
<svg version="1.0" xmlns="http://www.w3.org/2000/svg"
 width="335.000000pt" height="335.000000pt" viewBox="0 0 335.000000 335.000000"
 preserveAspectRatio="xMidYMid meet">
<metadata>
Created by potrace 1.11, written by Peter Selinger 2001-2013
</metadata>
<g transform="translate(0.000000,335.000000) scale(0.100000,-0.100000)"
fill="#000000" stroke="none">
<path d="M2198 3086 c-13 -7 -41 -23 -63 -36 -22 -13 -51 -30 -65 -37 -14 -8
-41 -23 -60 -35 -19 -11 -141 -81 -270 -156 -129 -74 -298 -172 -375 -216
l-140 -82 -1 -573 c-1 -480 -3 -574 -15 -582 -8 -5 -81 -48 -164 -95 -82 -48
-170 -99 -195 -114 -25 -15 -169 -98 -320 -185 -151 -87 -283 -163 -292 -170
-17 -11 20 -36 227 -151 21 -12 436 -252 637 -368 l116 -68 114 65 c62 36 228
131 368 212 140 81 315 181 388 223 l132 76 0 576 0 575 261 150 c144 83 285
164 313 180 341 196 416 240 416 245 0 4 -10 12 -22 18 -13 7 -36 20 -53 30
-39 23 -75 44 -345 200 -124 71 -241 139 -260 151 -19 11 -42 24 -50 28 -8 4
-70 39 -137 79 -110 65 -124 71 -145 60z"/>
</g>
</svg>
