<?xml version="1.0" encoding="UTF-8" standalone="no"?>
<!-- Created with Inkscape (http://www.inkscape.org/) -->

<svg
   xmlns:dc="http://purl.org/dc/elements/1.1/"
   xmlns:cc="http://creativecommons.org/ns#"
   xmlns:rdf="http://www.w3.org/1999/02/22-rdf-syntax-ns#"
   xmlns:svg="http://www.w3.org/2000/svg"
   xmlns="http://www.w3.org/2000/svg"
   xmlns:sodipodi="http://sodipodi.sourceforge.net/DTD/sodipodi-0.dtd"
   xmlns:inkscape="http://www.inkscape.org/namespaces/inkscape"
   width="349.31589mm"
   height="191.09233mm"
   viewBox="0 0 349.31589 191.09233"
   version="1.1"
   id="svg8"
   inkscape:version="0.92.5 (2060ec1f9f, 2020-04-08)"
   sodipodi:docname="co2-alerting-chart.svg">
  <defs
     id="defs2" />
  <sodipodi:namedview
     id="base"
     pagecolor="#ffffff"
     bordercolor="#666666"
     borderopacity="1.0"
     inkscape:pageopacity="0.0"
     inkscape:pageshadow="2"
     inkscape:zoom="0.98994949"
     inkscape:cx="381.7127"
     inkscape:cy="257.96638"
     inkscape:document-units="mm"
     inkscape:current-layer="layer1"
     showgrid="false"
     showguides="true"
     inkscape:guide-bbox="true"
     inkscape:window-width="2800"
     inkscape:window-height="1672"
     inkscape:window-x="80"
     inkscape:window-y="54"
     inkscape:window-maximized="1">
    <sodipodi:guide
       position="30.114147,128.90907"
       orientation="1,0"
       id="guide1293"
       inkscape:locked="false" />
    <sodipodi:guide
       position="219.29123,70.511747"
       orientation="1,0"
       id="guide1295"
       inkscape:locked="false" />
  </sodipodi:namedview>
  <metadata
     id="metadata5">
    <rdf:RDF>
      <cc:Work
         rdf:about="">
        <dc:format>image/svg+xml</dc:format>
        <dc:type
           rdf:resource="http://purl.org/dc/dcmitype/StillImage" />
        <dc:title />
      </cc:Work>
    </rdf:RDF>
  </metadata>
  <g
     inkscape:label="Layer 1"
     inkscape:groupmode="layer"
     id="layer1"
     transform="translate(104.57545,40.349949)">
    <path
       style="fill:none;stroke:#c8c8c8;stroke-width:0.67380291;stroke-linecap:butt;stroke-linejoin:miter;stroke-miterlimit:4;stroke-dasharray:none;stroke-opacity:1"
       d="M -68.113271,93.406535 238.61839,93.272902"
       id="path1297-2-3-7"
       inkscape:connector-curvature="0" />
    <path
       style="fill:none;stroke:#c8c8c8;stroke-width:0.67380291;stroke-linecap:butt;stroke-linejoin:miter;stroke-miterlimit:4;stroke-dasharray:none;stroke-opacity:1"
       d="M -68.113271,51.917202 238.61837,51.783569"
       id="path1297-2-3"
       inkscape:connector-curvature="0" />
    <path
       style="fill:none;stroke:#c8c8c8;stroke-width:0.67380285;stroke-linecap:butt;stroke-linejoin:miter;stroke-miterlimit:4;stroke-dasharray:none;stroke-opacity:1"
       d="M -68.113271,10.384046 238.61836,10.250413"
       id="path1297-2"
       inkscape:connector-curvature="0" />
    <path
       style="fill:#ffcdd2;stroke:none;stroke-width:1.3261472;stroke-linecap:butt;stroke-linejoin:miter;stroke-miterlimit:4;stroke-dasharray:none;stroke-opacity:1;fill-opacity:1"
       d="m 155.00829,6.83445 c 0.40586,-0.11309 0.84116,-0.205016 1.30861,-0.273909 4.8885,-0.720465 6.72096,5.008218 11.2935,6.321306 3.20759,0.921114 7.04537,1.350101 10.47622,0.849131 4.49871,-0.656896 6.98814,-5.036275 11.59073,-4.811741 4.94842,0.241406 6.15608,5.881879 11.07061,6.321305 3.9815,0.356003 7.6867,-1.771646 10.84773,-3.349348 4.67431,-2.333007 11.36779,-8.7271753 11.36779,-8.7271753 l 0,131.6758213 h -67.9701 z"
       id="path826-6-1-5"
       inkscape:connector-curvature="0"
       sodipodi:nodetypes="csaaaaac" />
    <path
       style="fill:#b3e5fc;stroke:none;stroke-width:1.3261472;stroke-linecap:butt;stroke-linejoin:miter;stroke-miterlimit:4;stroke-dasharray:none;stroke-opacity:1;fill-opacity:1"
       d="m -64.852533,100.80238 c 0,0 7.67763,0.008 11.516414,0 3.814099,-0.008 7.629822,-0.12206 11.442113,-0.0471 3.622642,0.0712 7.223336,0.47174 10.847712,0.47174 3.624379,0 7.225067,-0.40073 10.847718,-0.47174 3.713287,-0.0728 7.431202,0.11042 11.144917,0.0471 3.695597,-0.063 7.373697,-0.41756 11.070611,-0.42456 3.646043,-0.007 7.276164,0.35278 10.922019,0.37739 3.741576,0.0253 7.477995,-0.27723 11.219217,-0.23587 3.648532,0.0403 7.276862,0.57925 10.922016,0.47174 3.709318,-0.1094 7.285636,-1.043266 10.996316,-1.132176 3.775559,-0.0905 7.523295,0.769616 11.293509,0.613266 3.693867,-0.15318 7.145981,-1.506246 10.847724,-1.509576 3.750132,-0.003 7.25628,1.334956 10.996317,1.509576 3.73784,0.17452 7.47965,-0.31291 11.21921,-0.47175 3.66559,-0.155686 7.94759,0.82978 10.99631,-0.471736 6.93063,-2.95872 7.51764,-9.47302 10.99635,-14.29369 3.92824,-5.44361 8.37542,-10.787132 11.14492,-16.51088 0.42603,-0.880476 0.80743,-1.768729 1.15182,-2.663389 l 0,68.879345 H -64.75229 Z"
       id="path826-7"
       inkscape:connector-curvature="0"
       sodipodi:nodetypes="caaaaaaaaaaaaaaaasc" />
    <path
       style="fill:#ffccbc;stroke:none;stroke-width:1.3261472;stroke-linecap:butt;stroke-linejoin:miter;stroke-miterlimit:4;stroke-dasharray:none;stroke-opacity:1;fill-opacity:1"
       d="m 124.72268,66.060725 c 4.10028,-10.732969 2.91585,-22.380633 9.58746,-32.580855 2.63976,-4.035926 8.32694,-7.002448 11.5907,-10.850004 4.09463,-4.82705 1.85665,-13.7227157 9.10745,-15.795416 l 0,127.93843 h -30.34118 z"
       id="path826-6-6"
       inkscape:connector-curvature="0"
       sodipodi:nodetypes="cssc" />
    <path
       style="fill:none;stroke:#64b5f6;stroke-width:1.3261472;stroke-linecap:butt;stroke-linejoin:miter;stroke-miterlimit:4;stroke-dasharray:none;stroke-opacity:1"
       d="m -64.852527,100.80238 c 0,0 7.677629,0.008 11.516413,0 3.814099,-0.008 7.629822,-0.12206 11.442113,-0.0471 3.622641,0.0712 7.223336,0.47174 10.847713,0.47174 3.624378,0 7.225066,-0.40073 10.847718,-0.47174 3.713285,-0.0728 7.431199,0.11042 11.1449154,0.0471 3.6955969,-0.063 7.3736968,-0.41756 11.0706099,-0.42456 3.6460438,-0.007 7.2761638,0.35278 10.9220187,0.37739 3.741578,0.0253 7.477996,-0.27723 11.219217,-0.23587 3.648533,0.0403 7.276862,0.57925 10.922017,0.47174 3.709319,-0.1094 7.285636,-1.043267 10.996315,-1.132181 3.775559,-0.09046 7.523296,0.769621 11.29351,0.613271 3.693866,-0.15318 7.14598,-1.506248 10.847724,-1.509573 3.750133,-0.003 7.25628,1.334953 10.996317,1.509573 3.737835,0.17452 7.479648,-0.31291 11.219213,-0.47175 3.665591,-0.155689 7.947583,0.82978 10.996303,-0.47174 6.93063,-2.958715 7.51764,-9.47302 10.99635,-14.29369 3.92824,-5.443604 8.37543,-10.787124 11.14492,-16.510874 5.54866,-11.467485 3.52699,-24.254183 10.77342,-35.333268 2.63976,-4.03592 8.32694,-7.002455 11.59071,-10.850003 4.33347,-5.108605 1.57403,-14.7743054 10.47622,-16.0863083 4.88851,-0.7204706 6.72097,5.0082183 11.29351,6.3213053 3.20758,0.921115 7.04537,1.350101 10.47622,0.849132 4.49871,-0.656896 6.98814,-5.0362755 11.59072,-4.8117414 4.94842,0.2414059 6.15609,5.8818794 11.0706,6.3213054 3.98151,0.356003 7.6867,-1.771646 10.84773,-3.349348 4.67433,-2.3330075 11.3678,-8.727175 11.3678,-8.727175"
       id="path826"
       inkscape:connector-curvature="0"
       sodipodi:nodetypes="caaaaaaaaaaaaaaaaaaaaaaaaac" />
    <path
       style="opacity:1;fill:#ffffff;fill-opacity:1;stroke:#2196f3;stroke-width:1.05833328;stroke-linecap:round;stroke-linejoin:round;stroke-miterlimit:4;stroke-dasharray:none;stroke-dashoffset:0;stroke-opacity:1;paint-order:normal"
       d="m -63.008631,101.04295 a 1.5355282,1.5355282 0 0 1 -1.535528,1.53553 1.5355282,1.5355282 0 0 1 -1.535528,-1.53553 1.5355282,1.5355282 0 0 1 1.535528,-1.535525 1.5355282,1.5355282 0 0 1 1.535528,1.535525 z"
       id="path828" />
    <path
       style="fill:none;stroke:#c8c8c8;stroke-width:0.67380273;stroke-linecap:butt;stroke-linejoin:miter;stroke-miterlimit:4;stroke-dasharray:none;stroke-opacity:1"
       d="M -68.113268,-30.937906 238.61836,-31.071538"
       id="path1297"
       inkscape:connector-curvature="0" />
    <path
       style="fill:none;stroke:#c8c8c8;stroke-width:0.67380291;stroke-linecap:butt;stroke-linejoin:miter;stroke-miterlimit:4;stroke-dasharray:none;stroke-opacity:1"
       d="M -68.113271,134.96604 238.6184,134.8324"
       id="path1297-2-3-7-5"
       inkscape:connector-curvature="0" />
    <path
       style="opacity:1;fill:#ffffff;fill-opacity:1;stroke:#2196f3;stroke-width:1.05833328;stroke-linecap:round;stroke-linejoin:round;stroke-miterlimit:4;stroke-dasharray:none;stroke-dashoffset:0;stroke-opacity:1;paint-order:normal"
       d="m -39.296469,100.49842 a 1.5355282,1.5355282 0 0 1 -1.535528,1.53553 1.5355282,1.5355282 0 0 1 -1.535528,-1.53553 1.5355282,1.5355282 0 0 1 1.535528,-1.535527 1.5355282,1.5355282 0 0 1 1.535528,1.535527 z"
       id="path828-9" />
    <path
       style="opacity:1;fill:#ffffff;fill-opacity:1;stroke:#2196f3;stroke-width:1.05833328;stroke-linecap:round;stroke-linejoin:round;stroke-miterlimit:4;stroke-dasharray:none;stroke-dashoffset:0;stroke-opacity:1;paint-order:normal"
       d="m -18.91717,100.43159 a 1.5355282,1.5355282 0 0 1 -1.535528,1.53553 1.5355282,1.5355282 0 0 1 -1.535528,-1.53553 1.5355282,1.5355282 0 0 1 1.535528,-1.535531 1.5355282,1.5355282 0 0 1 1.535528,1.535531 z"
       id="path828-9-2" />
    <path
       style="opacity:1;fill:#ffffff;fill-opacity:1;stroke:#2196f3;stroke-width:1.05833328;stroke-linecap:round;stroke-linejoin:round;stroke-miterlimit:4;stroke-dasharray:none;stroke-dashoffset:0;stroke-opacity:1;paint-order:normal"
       d="m 2.4643858,100.29796 a 1.5355282,1.5355282 0 0 1 -1.53552818,1.53553 1.5355282,1.5355282 0 0 1 -1.53552818,-1.53553 1.5355282,1.5355282 0 0 1 1.53552818,-1.53553 1.5355282,1.5355282 0 0 1 1.53552818,1.53553 z"
       id="path828-9-2-2" />
    <path
       style="opacity:1;fill:#ffffff;fill-opacity:1;stroke:#2196f3;stroke-width:1.05833328;stroke-linecap:round;stroke-linejoin:round;stroke-miterlimit:4;stroke-dasharray:none;stroke-dashoffset:0;stroke-opacity:1;paint-order:normal"
       d="m 13.155164,100.89931 a 1.5355282,1.5355282 0 0 1 -1.535528,1.53553 1.5355282,1.5355282 0 0 1 -1.535529,-1.53553 1.5355282,1.5355282 0 0 1 1.535529,-1.535531 1.5355282,1.5355282 0 0 1 1.535528,1.535531 z"
       id="path828-9-2-2-8" />
    <path
       style="opacity:1;fill:#ffffff;fill-opacity:1;stroke:#2196f3;stroke-width:1.05833328;stroke-linecap:round;stroke-linejoin:round;stroke-miterlimit:4;stroke-dasharray:none;stroke-dashoffset:0;stroke-opacity:1;paint-order:normal"
       d="m 27.120005,100.29795 a 1.5355282,1.5355282 0 0 1 -1.535529,1.53553 1.5355282,1.5355282 0 0 1 -1.535528,-1.53553 1.5355282,1.5355282 0 0 1 1.535528,-1.535527 1.5355282,1.5355282 0 0 1 1.535529,1.535527 z"
       id="path828-9-2-2-8-9" />
    <path
       style="opacity:1;fill:#ffffff;fill-opacity:1;stroke:#2196f3;stroke-width:1.05833328;stroke-linecap:round;stroke-linejoin:round;stroke-miterlimit:4;stroke-dasharray:none;stroke-dashoffset:0;stroke-opacity:1;paint-order:normal"
       d="m 36.340803,101.2334 a 1.5355282,1.5355282 0 0 1 -1.535528,1.53553 1.5355282,1.5355282 0 0 1 -1.535528,-1.53553 1.5355282,1.5355282 0 0 1 1.535528,-1.53553 1.5355282,1.5355282 0 0 1 1.535528,1.53553 z"
       id="path828-9-2-2-8-9-7" />
    <path
       style="opacity:1;fill:#ffffff;fill-opacity:1;stroke:#2196f3;stroke-width:1.05833328;stroke-linecap:round;stroke-linejoin:round;stroke-miterlimit:4;stroke-dasharray:none;stroke-dashoffset:0;stroke-opacity:1;paint-order:normal"
       d="m 47.900209,99.629776 a 1.5355282,1.5355282 0 0 1 -1.535528,1.535524 1.5355282,1.5355282 0 0 1 -1.535528,-1.535524 1.5355282,1.5355282 0 0 1 1.535528,-1.535528 1.5355282,1.5355282 0 0 1 1.535528,1.535528 z"
       id="path828-9-2-2-8-9-7-3" />
    <path
       style="opacity:1;fill:#ffffff;fill-opacity:1;stroke:#2196f3;stroke-width:1.05833328;stroke-linecap:round;stroke-linejoin:round;stroke-miterlimit:4;stroke-dasharray:none;stroke-dashoffset:0;stroke-opacity:1;paint-order:normal"
       d="m 57.989637,100.63205 a 1.5355282,1.5355282 0 0 1 -1.535528,1.53553 1.5355282,1.5355282 0 0 1 -1.535528,-1.53553 1.5355282,1.5355282 0 0 1 1.535528,-1.535529 1.5355282,1.5355282 0 0 1 1.535528,1.535529 z"
       id="path828-9-2-2-8-9-7-3-6" />
    <path
       style="opacity:1;fill:#ffffff;fill-opacity:1;stroke:#2196f3;stroke-width:1.05833328;stroke-linecap:round;stroke-linejoin:round;stroke-miterlimit:4;stroke-dasharray:none;stroke-dashoffset:0;stroke-opacity:1;paint-order:normal"
       d="m 70.083578,98.894798 a 1.5355282,1.5355282 0 0 1 -1.535528,1.535532 1.5355282,1.5355282 0 0 1 -1.535528,-1.535532 1.5355282,1.5355282 0 0 1 1.535528,-1.535528 1.5355282,1.5355282 0 0 1 1.535528,1.535528 z"
       id="path828-9-2-2-8-9-7-3-6-1" />
    <path
       style="opacity:1;fill:#ffffff;fill-opacity:1;stroke:#2196f3;stroke-width:1.05833328;stroke-linecap:round;stroke-linejoin:round;stroke-miterlimit:4;stroke-dasharray:none;stroke-dashoffset:0;stroke-opacity:1;paint-order:normal"
       d="m 80.306639,100.76569 a 1.5355282,1.5355282 0 0 1 -1.535528,1.53553 1.5355282,1.5355282 0 0 1 -1.535529,-1.53553 1.5355282,1.5355282 0 0 1 1.535529,-1.535525 1.5355282,1.5355282 0 0 1 1.535528,1.535525 z"
       id="path828-9-2-2-8-9-7-3-6-1-2" />
    <path
       style="opacity:1;fill:#ffffff;fill-opacity:1;stroke:#2196f3;stroke-width:1.05833328;stroke-linecap:round;stroke-linejoin:round;stroke-miterlimit:4;stroke-dasharray:none;stroke-dashoffset:0;stroke-opacity:1;paint-order:normal"
       d="m 93.13558,99.830238 a 1.5355282,1.5355282 0 0 1 -1.535528,1.535532 1.5355282,1.5355282 0 0 1 -1.535528,-1.535532 1.5355282,1.5355282 0 0 1 1.535528,-1.535528 1.5355282,1.5355282 0 0 1 1.535528,1.535528 z"
       id="path828-9-2-2-8-9-7-3-6-1-2-9" />
    <path
       style="opacity:1;fill:#ffffff;fill-opacity:1;stroke:#2196f3;stroke-width:1.05833328;stroke-linecap:round;stroke-linejoin:round;stroke-miterlimit:4;stroke-dasharray:none;stroke-dashoffset:0;stroke-opacity:1;paint-order:normal"
       d="m 113.24759,85.93222 a 1.5355282,1.5355282 0 0 1 -1.53552,1.535529 1.5355282,1.5355282 0 0 1 -1.53553,-1.535529 1.5355282,1.5355282 0 0 1 1.53553,-1.535528 1.5355282,1.5355282 0 0 1 1.53552,1.535528 z"
       id="path828-9-2-2-8-9-7-3-6-1-2-9-3" />
    <path
       style="fill:none;stroke:#ff8a65;stroke-width:1.3261472;stroke-linecap:butt;stroke-linejoin:miter;stroke-miterlimit:4;stroke-dasharray:none;stroke-opacity:1"
       d="m 124.75682,65.971705 c 4.10028,-10.73297 2.91585,-22.380634 9.58746,-32.580855 2.63976,-4.035925 8.32693,-7.002457 11.5907,-10.850005 4.33347,-5.108605 1.57403,-14.774305 10.47623,-16.086308 4.8885,-0.720471 6.72096,5.008218 11.2935,6.321305 3.20759,0.921115 7.04537,1.350101 10.47622,0.849132 4.49871,-0.656896 6.98814,-5.036275 11.59073,-4.811741 4.94842,0.241406 6.15608,5.881879 11.07061,6.321305 3.9815,0.356003 7.6867,-1.771646 10.84773,-3.349348 4.67431,-2.333007 11.36779,-8.727175 11.36779,-8.727175"
       id="path826-6"
       inkscape:connector-curvature="0"
       sodipodi:nodetypes="csaaaaaaac" />
    <path
       style="opacity:1;fill:#ffffff;fill-opacity:1;stroke:#ff5722;stroke-width:1.05833328;stroke-linecap:round;stroke-linejoin:round;stroke-miterlimit:4;stroke-dasharray:none;stroke-dashoffset:0;stroke-opacity:1;paint-order:normal"
       d="m 126.27699,65.953819 a 1.5355282,1.5355282 0 0 1 -1.53553,1.535528 1.5355282,1.5355282 0 0 1 -1.53553,-1.535528 1.5355282,1.5355282 0 0 1 1.53553,-1.535528 1.5355282,1.5355282 0 0 1 1.53553,1.535528 z"
       id="path828-9-2-2-8-9-7-3-6-1-2-9-3-1" />
    <path
       style="opacity:1;fill:#ffffff;fill-opacity:1;stroke:#ff5722;stroke-width:1.05833328;stroke-linecap:round;stroke-linejoin:round;stroke-miterlimit:4;stroke-dasharray:none;stroke-dashoffset:0;stroke-opacity:1;paint-order:normal"
       d="m 136.16588,32.879223 a 1.5355282,1.5355282 0 0 1 -1.53552,1.535528 1.5355282,1.5355282 0 0 1 -1.53553,-1.535528 1.5355282,1.5355282 0 0 1 1.53553,-1.535528 1.5355282,1.5355282 0 0 1 1.53552,1.535528 z"
       id="path828-9-2-2-8-9-7-3-6-1-2-9-3-1-9" />
    <path
       style="opacity:1;fill:#ffffff;fill-opacity:1;stroke:#ff5722;stroke-width:1.05833328;stroke-linecap:round;stroke-linejoin:round;stroke-miterlimit:4;stroke-dasharray:none;stroke-dashoffset:0;stroke-opacity:1;paint-order:normal"
       d="m 148.79438,20.518005 a 1.5355282,1.5355282 0 0 1 -1.53553,1.535529 1.5355282,1.5355282 0 0 1 -1.53553,-1.535529 1.5355282,1.5355282 0 0 1 1.53553,-1.535528 1.5355282,1.5355282 0 0 1 1.53553,1.535528 z"
       id="path828-9-2-2-8-9-7-3-6-1-2-9-3-1-9-4" />
    <path
       style="fill:none;stroke:#e57373;stroke-width:1.3261472;stroke-linecap:butt;stroke-linejoin:miter;stroke-miterlimit:4;stroke-dasharray:none;stroke-opacity:1"
       d="m 155.1026,6.7284459 c 0.40586,-0.1130901 0.84116,-0.2050161 1.30861,-0.2739089 4.8885,-0.7204655 6.72096,5.008218 11.2935,6.321306 3.20759,0.921114 7.04537,1.350101 10.47622,0.849131 4.49871,-0.656896 6.98814,-5.036275 11.59073,-4.811741 4.94842,0.241406 6.15608,5.881879 11.07061,6.321305 3.9815,0.356003 7.6867,-1.771646 10.84773,-3.349348 4.67431,-2.333007 11.36779,-8.727175 11.36779,-8.727175"
       id="path826-6-1"
       inkscape:connector-curvature="0"
       sodipodi:nodetypes="csaaaaac" />
    <path
       style="opacity:1;fill:#ffffff;fill-opacity:1;stroke:#f44336;stroke-width:1.05833328;stroke-linecap:round;stroke-linejoin:round;stroke-miterlimit:4;stroke-dasharray:none;stroke-dashoffset:0;stroke-opacity:1;paint-order:normal"
       d="m 156.54519,6.7536254 a 1.5355282,1.5355282 0 0 1 -1.53553,1.5355282 1.5355282,1.5355282 0 0 1 -1.53553,-1.5355282 1.5355282,1.5355282 0 0 1 1.53553,-1.5355282 1.5355282,1.5355282 0 0 1 1.53553,1.5355282 z"
       id="path828-9-2-2-8-9-7-3-6-1-2-9-3-1-9-4-7" />
    <path
       style="opacity:1;fill:#ffffff;fill-opacity:1;stroke:#f44336;stroke-width:1.05833328;stroke-linecap:round;stroke-linejoin:round;stroke-miterlimit:4;stroke-dasharray:none;stroke-dashoffset:0;stroke-opacity:1;paint-order:normal"
       d="m 166.30053,11.564476 a 1.5355282,1.5355282 0 0 1 -1.53553,1.535528 1.5355282,1.5355282 0 0 1 -1.53553,-1.535528 1.5355282,1.5355282 0 0 1 1.53553,-1.535528 1.5355282,1.5355282 0 0 1 1.53553,1.535528 z"
       id="path828-9-2-2-8-9-7-3-6-1-2-9-3-1-9-4-7-8" />
    <path
       style="opacity:1;fill:#ffffff;fill-opacity:1;stroke:#f44336;stroke-width:1.05833328;stroke-linecap:round;stroke-linejoin:round;stroke-miterlimit:4;stroke-dasharray:none;stroke-dashoffset:0;stroke-opacity:1;paint-order:normal"
       d="m 181.86898,12.900824 a 1.5355282,1.5355282 0 0 1 -1.53553,1.535528 1.5355282,1.5355282 0 0 1 -1.53553,-1.535528 1.5355282,1.5355282 0 0 1 1.53553,-1.535529 1.5355282,1.5355282 0 0 1 1.53553,1.535529 z"
       id="path828-9-2-2-8-9-7-3-6-1-2-9-3-1-9-4-7-8-4" />
    <path
       style="opacity:1;fill:#ffffff;fill-opacity:1;stroke:#f44336;stroke-width:1.05833328;stroke-linecap:round;stroke-linejoin:round;stroke-miterlimit:4;stroke-dasharray:none;stroke-dashoffset:0;stroke-opacity:1;paint-order:normal"
       d="m 191.89159,9.2258682 a 1.5355282,1.5355282 0 0 1 -1.53553,1.5355278 1.5355282,1.5355282 0 0 1 -1.53552,-1.5355278 1.5355282,1.5355282 0 0 1 1.53552,-1.5355282 1.5355282,1.5355282 0 0 1 1.53553,1.5355282 z"
       id="path828-9-2-2-8-9-7-3-6-1-2-9-3-1-9-4-7-8-4-5" />
    <path
       style="opacity:1;fill:#ffffff;fill-opacity:1;stroke:#f44336;stroke-width:1.05833328;stroke-linecap:round;stroke-linejoin:round;stroke-miterlimit:4;stroke-dasharray:none;stroke-dashoffset:0;stroke-opacity:1;paint-order:normal"
       d="m 203.65143,15.105798 a 1.5355282,1.5355282 0 0 1 -1.53552,1.535528 1.5355282,1.5355282 0 0 1 -1.53553,-1.535528 1.5355282,1.5355282 0 0 1 1.53553,-1.535528 1.5355282,1.5355282 0 0 1 1.53552,1.535528 z"
       id="path828-9-2-2-8-9-7-3-6-1-2-9-3-1-9-4-7-8-4-5-0" />
    <path
       style="opacity:1;fill:#ffffff;fill-opacity:1;stroke:#f44336;stroke-width:1.05833328;stroke-linecap:round;stroke-linejoin:round;stroke-miterlimit:4;stroke-dasharray:none;stroke-dashoffset:0;stroke-opacity:1;paint-order:normal"
       d="m 223.76348,3.8136594 a 1.5355282,1.5355282 0 0 1 -1.53553,1.5355282 1.5355282,1.5355282 0 0 1 -1.53553,-1.5355282 1.5355282,1.5355282 0 0 1 1.53553,-1.5355282 1.5355282,1.5355282 0 0 1 1.53553,1.5355282 z"
       id="path828-9-2-2-8-9-7-3-6-1-2-9-3-1-9-4-7-8-4-5-0-3" />
    <g
       aria-label="2000"
       style="font-style:normal;font-variant:normal;font-weight:bold;font-stretch:normal;font-size:7.05555534px;line-height:1.25;font-family:'Open Sans';-inkscape-font-specification:'Open Sans Bold';letter-spacing:0px;word-spacing:0px;fill:#555555;fill-opacity:1;stroke:none;stroke-width:0.26458332"
       id="text1787">
      <path
         d="m -85.837864,-28.48119 h -3.414089 v -0.613227 l 1.298801,-1.305691 q 0.575331,-0.589111 0.761366,-0.833713 0.18948,-0.248047 0.275608,-0.465088 0.08613,-0.217041 0.08613,-0.465088 0,-0.341064 -0.206706,-0.537435 -0.20326,-0.19637 -0.564995,-0.19637 -0.289388,0 -0.561551,0.106798 -0.268717,0.106798 -0.623562,0.385851 l -0.437527,-0.53399 q 0.420301,-0.354845 0.816487,-0.502984 0.396186,-0.148139 0.844049,-0.148139 0.702799,0 1.126546,0.368625 0.423747,0.36518 0.423747,0.985297 0,0.341065 -0.124024,0.647678 -0.120578,0.306614 -0.375515,0.633898 -0.251492,0.323839 -0.840604,0.878499 l -0.875054,0.847494 v 0.03445 h 2.390896 z"
         style="font-style:normal;font-variant:normal;font-weight:600;font-stretch:normal;font-family:'Open Sans';-inkscape-font-specification:'Open Sans Semi-Bold';fill:#555555;fill-opacity:1;stroke-width:0.26458332"
         id="path882" />
      <path
         d="m -81.810547,-30.999554 q 0,1.312581 -0.423747,1.949924 -0.420301,0.637342 -1.288465,0.637342 -0.840604,0 -1.274686,-0.658013 -0.434082,-0.658013 -0.434082,-1.929253 0,-1.333252 0.420302,-1.963705 0.423747,-0.633897 1.288466,-0.633897 0.844048,0 1.27813,0.661458 0.434082,0.661458 0.434082,1.936144 z m -2.601047,0 q 0,1.030083 0.210151,1.471055 0.213596,0.440972 0.678684,0.440972 0.465087,0 0.678683,-0.447862 0.217041,-0.447862 0.217041,-1.464165 0,-1.012858 -0.217041,-1.464166 -0.213596,-0.454753 -0.678683,-0.454753 -0.465088,0 -0.678684,0.444418 -0.210151,0.444417 -0.210151,1.474501 z"
         style="font-style:normal;font-variant:normal;font-weight:600;font-stretch:normal;font-family:'Open Sans';-inkscape-font-specification:'Open Sans Semi-Bold';fill:#555555;fill-opacity:1;stroke-width:0.26458332"
         id="path884" />
      <path
         d="m -77.78323,-30.999554 q 0,1.312581 -0.423747,1.949924 -0.420302,0.637342 -1.288466,0.637342 -0.840603,0 -1.274685,-0.658013 -0.434082,-0.658013 -0.434082,-1.929253 0,-1.333252 0.420301,-1.963705 0.423747,-0.633897 1.288466,-0.633897 0.844048,0 1.278131,0.661458 0.434082,0.661458 0.434082,1.936144 z m -2.601047,0 q 0,1.030083 0.21015,1.471055 0.213596,0.440972 0.678684,0.440972 0.465088,0 0.678684,-0.447862 0.217041,-0.447862 0.217041,-1.464165 0,-1.012858 -0.217041,-1.464166 -0.213596,-0.454753 -0.678684,-0.454753 -0.465088,0 -0.678684,0.444418 -0.21015,0.444417 -0.21015,1.474501 z"
         style="font-style:normal;font-variant:normal;font-weight:600;font-stretch:normal;font-family:'Open Sans';-inkscape-font-specification:'Open Sans Semi-Bold';fill:#555555;fill-opacity:1;stroke-width:0.26458332"
         id="path886" />
      <path
         d="m -73.755914,-30.999554 q 0,1.312581 -0.423747,1.949924 -0.420302,0.637342 -1.288466,0.637342 -0.840603,0 -1.274685,-0.658013 -0.434082,-0.658013 -0.434082,-1.929253 0,-1.333252 0.420302,-1.963705 0.423746,-0.633897 1.288465,-0.633897 0.844049,0 1.278131,0.661458 0.434082,0.661458 0.434082,1.936144 z m -2.601047,0 q 0,1.030083 0.21015,1.471055 0.213596,0.440972 0.678684,0.440972 0.465088,0 0.678684,-0.447862 0.217041,-0.447862 0.217041,-1.464165 0,-1.012858 -0.217041,-1.464166 -0.213596,-0.454753 -0.678684,-0.454753 -0.465088,0 -0.678684,0.444418 -0.21015,0.444417 -0.21015,1.474501 z"
         style="font-style:normal;font-variant:normal;font-weight:600;font-stretch:normal;font-family:'Open Sans';-inkscape-font-specification:'Open Sans Semi-Bold';fill:#555555;fill-opacity:1;stroke-width:0.26458332"
         id="path888" />
    </g>
    <g
       aria-label="1500"
       style="font-style:normal;font-variant:normal;font-weight:bold;font-stretch:normal;font-size:7.05555534px;line-height:1.25;font-family:'Open Sans';-inkscape-font-specification:'Open Sans Bold';letter-spacing:0px;word-spacing:0px;fill:#555555;fill-opacity:1;stroke:none;stroke-width:0.26458332"
       id="text1787-0">
      <path
         d="m -86.874837,12.840762 h -0.809598 V 9.5885921 q 0,-0.5822211 0.02756,-0.9232856 -0.07924,0.082682 -0.19637,0.1825901 -0.113689,0.099908 -0.771702,0.6338975 l -0.406521,-0.5133192 1.481391,-1.1644422 h 0.675239 z"
         style="font-style:normal;font-variant:normal;font-weight:600;font-stretch:normal;font-family:'Open Sans';-inkscape-font-specification:'Open Sans Semi-Bold';fill:#555555;fill-opacity:1;stroke-width:0.26458332"
         id="path891" />
      <path
         d="m -83.515869,9.6953901 q 0.761366,0 1.205783,0.4030759 0.444417,0.403076 0.444417,1.098986 0,0.806152 -0.506429,1.260905 -0.502984,0.451307 -1.433159,0.451307 -0.844049,0 -1.326362,-0.272162 v -0.733806 q 0.279053,0.158475 0.640788,0.244602 0.361735,0.08613 0.671793,0.08613 0.547771,0 0.833713,-0.244601 0.285943,-0.244602 0.285943,-0.71658 0,-0.902615 -1.150662,-0.902615 -0.161919,0 -0.399631,0.03445 -0.237711,0.03101 -0.416856,0.07235 l -0.361735,-0.213596 0.192925,-2.4597983 h 2.618273 v 0.7200249 h -1.905138 l -0.113688,1.2471246 q 0.120578,-0.020671 0.292833,-0.048231 0.1757,-0.027561 0.427192,-0.027561 z"
         style="font-style:normal;font-variant:normal;font-weight:600;font-stretch:normal;font-family:'Open Sans';-inkscape-font-specification:'Open Sans Semi-Bold';fill:#555555;fill-opacity:1;stroke-width:0.26458332"
         id="path893" />
      <path
         d="m -77.78323,10.322397 q 0,1.312582 -0.423747,1.949924 -0.420302,0.637343 -1.288466,0.637343 -0.840603,0 -1.274685,-0.658013 -0.434082,-0.658013 -0.434082,-1.929254 0,-1.3332515 0.420301,-1.963704 0.423747,-0.6338975 1.288466,-0.6338975 0.844048,0 1.278131,0.6614583 0.434082,0.6614583 0.434082,1.9361432 z m -2.601047,0 q 0,1.030084 0.21015,1.471056 0.213596,0.440972 0.678684,0.440972 0.465088,0 0.678684,-0.447862 0.217041,-0.447862 0.217041,-1.464166 0,-1.0128576 -0.217041,-1.4641651 -0.213596,-0.4547526 -0.678684,-0.4547526 -0.465088,0 -0.678684,0.4444173 -0.21015,0.4444173 -0.21015,1.4745004 z"
         style="font-style:normal;font-variant:normal;font-weight:600;font-stretch:normal;font-family:'Open Sans';-inkscape-font-specification:'Open Sans Semi-Bold';fill:#555555;fill-opacity:1;stroke-width:0.26458332"
         id="path895" />
      <path
         d="m -73.755914,10.322397 q 0,1.312582 -0.423747,1.949924 -0.420302,0.637343 -1.288466,0.637343 -0.840603,0 -1.274685,-0.658013 -0.434082,-0.658013 -0.434082,-1.929254 0,-1.3332515 0.420302,-1.963704 0.423746,-0.6338975 1.288465,-0.6338975 0.844049,0 1.278131,0.6614583 0.434082,0.6614583 0.434082,1.9361432 z m -2.601047,0 q 0,1.030084 0.21015,1.471056 0.213596,0.440972 0.678684,0.440972 0.465088,0 0.678684,-0.447862 0.217041,-0.447862 0.217041,-1.464166 0,-1.0128576 -0.217041,-1.4641651 -0.213596,-0.4547526 -0.678684,-0.4547526 -0.465088,0 -0.678684,0.4444173 -0.21015,0.4444173 -0.21015,1.4745004 z"
         style="font-style:normal;font-variant:normal;font-weight:600;font-stretch:normal;font-family:'Open Sans';-inkscape-font-specification:'Open Sans Semi-Bold';fill:#555555;fill-opacity:1;stroke-width:0.26458332"
         id="path897" />
    </g>
    <g
       aria-label="1000"
       style="font-style:normal;font-variant:normal;font-weight:bold;font-stretch:normal;font-size:7.05555534px;line-height:1.25;font-family:'Open Sans';-inkscape-font-specification:'Open Sans Bold';letter-spacing:0px;word-spacing:0px;fill:#555555;fill-opacity:1;stroke:none;stroke-width:0.26458332"
       id="text1787-0-3">
      <path
         d="m -86.874837,54.373917 h -0.809598 v -3.25217 q 0,-0.582222 0.02756,-0.923286 -0.07924,0.08268 -0.19637,0.18259 -0.113689,0.09991 -0.771702,0.633898 l -0.406521,-0.51332 1.481391,-1.164442 h 0.675239 z"
         style="font-style:normal;font-variant:normal;font-weight:600;font-stretch:normal;font-family:'Open Sans';-inkscape-font-specification:'Open Sans Semi-Bold';fill:#555555;fill-opacity:1;stroke-width:0.26458332"
         id="path900" />
      <path
         d="m -81.810547,51.855552 q 0,1.312581 -0.423747,1.949924 -0.420301,0.637343 -1.288465,0.637343 -0.840604,0 -1.274686,-0.658014 -0.434082,-0.658013 -0.434082,-1.929253 0,-1.333252 0.420302,-1.963704 0.423747,-0.633898 1.288466,-0.633898 0.844048,0 1.27813,0.661458 0.434082,0.661459 0.434082,1.936144 z m -2.601047,0 q 0,1.030083 0.210151,1.471056 0.213596,0.440972 0.678684,0.440972 0.465087,0 0.678683,-0.447863 0.217041,-0.447862 0.217041,-1.464165 0,-1.012858 -0.217041,-1.464166 -0.213596,-0.454752 -0.678683,-0.454752 -0.465088,0 -0.678684,0.444417 -0.210151,0.444417 -0.210151,1.474501 z"
         style="font-style:normal;font-variant:normal;font-weight:600;font-stretch:normal;font-family:'Open Sans';-inkscape-font-specification:'Open Sans Semi-Bold';fill:#555555;fill-opacity:1;stroke-width:0.26458332"
         id="path902" />
      <path
         d="m -77.78323,51.855552 q 0,1.312581 -0.423747,1.949924 -0.420302,0.637343 -1.288466,0.637343 -0.840603,0 -1.274685,-0.658014 -0.434082,-0.658013 -0.434082,-1.929253 0,-1.333252 0.420301,-1.963704 0.423747,-0.633898 1.288466,-0.633898 0.844048,0 1.278131,0.661458 0.434082,0.661459 0.434082,1.936144 z m -2.601047,0 q 0,1.030083 0.21015,1.471056 0.213596,0.440972 0.678684,0.440972 0.465088,0 0.678684,-0.447863 0.217041,-0.447862 0.217041,-1.464165 0,-1.012858 -0.217041,-1.464166 -0.213596,-0.454752 -0.678684,-0.454752 -0.465088,0 -0.678684,0.444417 -0.21015,0.444417 -0.21015,1.474501 z"
         style="font-style:normal;font-variant:normal;font-weight:600;font-stretch:normal;font-family:'Open Sans';-inkscape-font-specification:'Open Sans Semi-Bold';fill:#555555;fill-opacity:1;stroke-width:0.26458332"
         id="path904" />
      <path
         d="m -73.755914,51.855552 q 0,1.312581 -0.423747,1.949924 -0.420302,0.637343 -1.288466,0.637343 -0.840603,0 -1.274685,-0.658014 -0.434082,-0.658013 -0.434082,-1.929253 0,-1.333252 0.420302,-1.963704 0.423746,-0.633898 1.288465,-0.633898 0.844049,0 1.278131,0.661458 0.434082,0.661459 0.434082,1.936144 z m -2.601047,0 q 0,1.030083 0.21015,1.471056 0.213596,0.440972 0.678684,0.440972 0.465088,0 0.678684,-0.447863 0.217041,-0.447862 0.217041,-1.464165 0,-1.012858 -0.217041,-1.464166 -0.213596,-0.454752 -0.678684,-0.454752 -0.465088,0 -0.678684,0.444417 -0.21015,0.444417 -0.21015,1.474501 z"
         style="font-style:normal;font-variant:normal;font-weight:600;font-stretch:normal;font-family:'Open Sans';-inkscape-font-specification:'Open Sans Semi-Bold';fill:#555555;fill-opacity:1;stroke-width:0.26458332"
         id="path906" />
    </g>
    <g
       aria-label="500"
       style="font-style:normal;font-variant:normal;font-weight:bold;font-stretch:normal;font-size:7.05555534px;line-height:1.25;font-family:'Open Sans';-inkscape-font-specification:'Open Sans Bold';letter-spacing:0px;word-spacing:0px;fill:#555555;fill-opacity:1;stroke:none;stroke-width:0.26458332"
       id="text1787-0-3-0">
      <path
         d="m -83.515873,92.717879 q 0.761366,0 1.205784,0.403076 0.444417,0.403076 0.444417,1.098985 0,0.806153 -0.506429,1.260905 -0.502984,0.451308 -1.43316,0.451308 -0.844048,0 -1.326361,-0.272163 v -0.733805 q 0.279052,0.158474 0.640787,0.244602 0.361735,0.08613 0.671794,0.08613 0.54777,0 0.833713,-0.244602 0.285943,-0.244602 0.285943,-0.71658 0,-0.902615 -1.150662,-0.902615 -0.161919,0 -0.399631,0.03445 -0.237711,0.03101 -0.416856,0.07235 l -0.361735,-0.213596 0.192925,-2.459798 h 2.618272 v 0.720025 h -1.905137 l -0.113689,1.247125 q 0.120579,-0.02067 0.292834,-0.04823 0.175699,-0.02756 0.427191,-0.02756 z"
         style="font-style:normal;font-variant:normal;font-weight:600;font-stretch:normal;font-family:'Open Sans';-inkscape-font-specification:'Open Sans Semi-Bold';fill:#555555;fill-opacity:1;stroke-width:0.26458332"
         id="path909" />
      <path
         d="m -77.783234,93.344886 q 0,1.312581 -0.423747,1.949924 -0.420301,0.637343 -1.288465,0.637343 -0.840603,0 -1.274686,-0.658014 -0.434082,-0.658013 -0.434082,-1.929253 0,-1.333252 0.420302,-1.963704 0.423747,-0.633898 1.288466,-0.633898 0.844048,0 1.27813,0.661458 0.434082,0.661459 0.434082,1.936144 z m -2.601047,0 q 0,1.030084 0.210151,1.471056 0.213596,0.440972 0.678684,0.440972 0.465088,0 0.678684,-0.447862 0.217041,-0.447863 0.217041,-1.464166 0,-1.012858 -0.217041,-1.464166 -0.213596,-0.454752 -0.678684,-0.454752 -0.465088,0 -0.678684,0.444417 -0.210151,0.444417 -0.210151,1.474501 z"
         style="font-style:normal;font-variant:normal;font-weight:600;font-stretch:normal;font-family:'Open Sans';-inkscape-font-specification:'Open Sans Semi-Bold';fill:#555555;fill-opacity:1;stroke-width:0.26458332"
         id="path911" />
      <path
         d="m -73.755917,93.344886 q 0,1.312581 -0.423747,1.949924 -0.420302,0.637343 -1.288466,0.637343 -0.840603,0 -1.274685,-0.658014 -0.434082,-0.658013 -0.434082,-1.929253 0,-1.333252 0.420302,-1.963704 0.423746,-0.633898 1.288465,-0.633898 0.844049,0 1.278131,0.661458 0.434082,0.661459 0.434082,1.936144 z m -2.601047,0 q 0,1.030084 0.210151,1.471056 0.213595,0.440972 0.678683,0.440972 0.465088,0 0.678684,-0.447862 0.217041,-0.447863 0.217041,-1.464166 0,-1.012858 -0.217041,-1.464166 -0.213596,-0.454752 -0.678684,-0.454752 -0.465088,0 -0.678683,0.444417 -0.210151,0.444417 -0.210151,1.474501 z"
         style="font-style:normal;font-variant:normal;font-weight:600;font-stretch:normal;font-family:'Open Sans';-inkscape-font-specification:'Open Sans Semi-Bold';fill:#555555;fill-opacity:1;stroke-width:0.26458332"
         id="path913" />
    </g>
    <g
       aria-label="0"
       style="font-style:normal;font-variant:normal;font-weight:bold;font-stretch:normal;font-size:7.05555534px;line-height:1.25;font-family:'Open Sans';-inkscape-font-specification:'Open Sans Bold';letter-spacing:0px;word-spacing:0px;fill:#555555;fill-opacity:1;stroke:none;stroke-width:0.26458332"
       id="text1787-0-3-0-1">
      <path
         d="m -73.755916,134.90438 q 0,1.31258 -0.423747,1.94992 -0.420302,0.63735 -1.288466,0.63735 -0.840603,0 -1.274685,-0.65802 -0.434082,-0.65801 -0.434082,-1.92925 0,-1.33325 0.420302,-1.9637 0.423746,-0.6339 1.288465,-0.6339 0.844049,0 1.278131,0.66146 0.434082,0.66145 0.434082,1.93614 z m -2.601047,0 q 0,1.03008 0.210151,1.47106 0.213595,0.44097 0.678683,0.44097 0.465088,0 0.678684,-0.44786 0.217041,-0.44787 0.217041,-1.46417 0,-1.01286 -0.217041,-1.46417 -0.213596,-0.45475 -0.678684,-0.45475 -0.465088,0 -0.678683,0.44442 -0.210151,0.44442 -0.210151,1.4745 z"
         style="font-style:normal;font-variant:normal;font-weight:600;font-stretch:normal;font-family:'Open Sans';-inkscape-font-specification:'Open Sans Semi-Bold';fill:#555555;fill-opacity:1;stroke-width:0.26458332"
         id="path916" />
    </g>
    <g
       aria-label="CO2 ppm"
       transform="rotate(-90)"
       style="font-style:normal;font-variant:normal;font-weight:bold;font-stretch:normal;font-size:7.05555534px;line-height:1.25;font-family:'Open Sans';-inkscape-font-specification:'Open Sans Bold';letter-spacing:0px;word-spacing:0px;fill:#555555;fill-opacity:1;stroke:none;stroke-width:0.26458332"
       id="text1787-0-5">
      <path
         d="m -63.982027,-101.06367 q -0.70969,0 -1.116211,0.50298 -0.406521,0.50298 -0.406521,1.388373 0,0.92673 0.389296,1.402153 0.392741,0.475424 1.133436,0.475424 0.320394,0 0.620117,-0.06201 0.299724,-0.06546 0.623563,-0.165365 v 0.706245 q -0.592557,0.223931 -1.343588,0.223931 -1.105875,0 -1.698432,-0.668348 -0.592556,-0.671794 -0.592556,-1.918919 0,-0.785481 0.285943,-1.374592 0.289388,-0.58911 0.833713,-0.90262 0.544325,-0.3135 1.27813,-0.3135 0.771702,0 1.42627,0.32384 l -0.296278,0.68557 q -0.254938,-0.12057 -0.54088,-0.21015 -0.282498,-0.093 -0.596002,-0.093 z"
         style="font-style:normal;font-variant:normal;font-weight:600;font-stretch:normal;font-family:'Open Sans';-inkscape-font-specification:'Open Sans Semi-Bold';fill:#555555;fill-opacity:1;stroke-width:0.26458332"
         id="path919" />
      <path
         d="m -57.181409,-99.186098 q 0,1.229899 -0.616672,1.912028 -0.613227,0.682129 -1.739773,0.682129 -1.140327,0 -1.753554,-0.675239 -0.609782,-0.678683 -0.609782,-1.925808 0,-1.247122 0.613227,-1.915472 0.616672,-0.66835 1.756999,-0.66835 1.123101,0 1.736328,0.67868 0.613227,0.67869 0.613227,1.912032 z m -3.844726,0 q 0,0.930176 0.375515,1.412489 0.375515,0.478869 1.112766,0.478869 0.733805,0 1.105875,-0.475424 0.375516,-0.475423 0.375516,-1.415934 0,-0.926732 -0.37207,-1.405602 -0.368626,-0.47886 -1.102431,-0.47886 -0.740695,0 -1.119656,0.47886 -0.375515,0.47887 -0.375515,1.405602 z"
         style="font-style:normal;font-variant:normal;font-weight:600;font-stretch:normal;font-family:'Open Sans';-inkscape-font-specification:'Open Sans Semi-Bold';fill:#555555;fill-opacity:1;stroke-width:0.26458332"
         id="path921" />
      <path
         d="m -54.343856,-95.249732 h -2.219158 v -0.398597 l 0.844221,-0.848699 q 0.373965,-0.382923 0.494887,-0.541914 0.123163,-0.16123 0.179145,-0.302307 0.05598,-0.141077 0.05598,-0.302307 0,-0.221692 -0.134359,-0.349333 -0.132119,-0.127641 -0.367247,-0.127641 -0.188102,0 -0.365008,0.06942 -0.174666,0.06942 -0.405315,0.250803 l -0.284393,-0.347093 q 0.273196,-0.230649 0.530717,-0.32694 0.257521,-0.09629 0.548632,-0.09629 0.456819,0 0.732255,0.239606 0.275435,0.237367 0.275435,0.640443 0,0.221692 -0.08062,0.420991 -0.07838,0.199299 -0.244085,0.412033 -0.16347,0.210496 -0.546392,0.571025 l -0.568785,0.550871 v 0.02239 h 1.554082 z"
         style="font-size:64.99999762%;baseline-shift:sub"
         id="path923" />
      <path
         d="m -49.802531,-96.591941 q -0.72347,0 -1.123101,-0.520209 h -0.04823 q 0.04823,0.482313 0.04823,0.585666 v 1.560628 h -0.809598 v -5.505264 h 0.654568 q 0.02756,0.1068 0.113688,0.509876 h 0.04134 q 0.37896,-0.578776 1.136881,-0.578776 0.713135,0 1.109321,0.51676 0.399631,0.516768 0.399631,1.450389 0,0.933621 -0.406521,1.457276 -0.403077,0.523654 -1.116211,0.523654 z m -0.196371,-3.286621 q -0.482313,0 -0.706244,0.282498 -0.220486,0.282498 -0.220486,0.902615 v 0.120578 q 0,0.695909 0.220486,1.009413 0.220486,0.310059 0.720025,0.310059 0.420301,0 0.647678,-0.34451 0.227376,-0.344509 0.227376,-0.981852 0,-0.640788 -0.227376,-0.968072 -0.223932,-0.330729 -0.661459,-0.330729 z"
         style="font-style:normal;font-variant:normal;font-weight:600;font-stretch:normal;font-family:'Open Sans';-inkscape-font-specification:'Open Sans Semi-Bold';fill:#555555;fill-opacity:1;stroke-width:0.26458332"
         id="path925" />
      <path
         d="m -45.40659,-96.591941 q -0.72347,0 -1.123101,-0.520209 h -0.04823 q 0.04823,0.482313 0.04823,0.585666 v 1.560628 h -0.809597 v -5.505264 h 0.654568 q 0.02756,0.1068 0.113688,0.509876 h 0.04134 q 0.378961,-0.578776 1.136882,-0.578776 0.713135,0 1.109321,0.51676 0.399631,0.516768 0.399631,1.450389 0,0.933621 -0.406522,1.457276 -0.403076,0.523654 -1.116211,0.523654 z m -0.19637,-3.286621 q -0.482313,0 -0.706245,0.282498 -0.220486,0.282498 -0.220486,0.902615 v 0.120578 q 0,0.695909 0.220486,1.009413 0.220487,0.310059 0.720025,0.310059 0.420302,0 0.647678,-0.34451 0.227377,-0.344509 0.227377,-0.981852 0,-0.640788 -0.227377,-0.968072 -0.223931,-0.330729 -0.661458,-0.330729 z"
         style="font-style:normal;font-variant:normal;font-weight:600;font-stretch:normal;font-family:'Open Sans';-inkscape-font-specification:'Open Sans Semi-Bold';fill:#555555;fill-opacity:1;stroke-width:0.26458332"
         id="path927" />
      <path
         d="m -39.732518,-96.660843 h -0.813043 v -2.349555 q 0,-0.437527 -0.165365,-0.651123 -0.165364,-0.217041 -0.516764,-0.217041 -0.468533,0 -0.689019,0.306614 -0.217041,0.303168 -0.217041,1.012858 v 1.898247 h -0.809597 v -3.810277 h 0.633897 l 0.113688,0.49954 h 0.04134 q 0.158474,-0.27216 0.458197,-0.4203 0.303169,-0.14814 0.664904,-0.14814 0.878499,0 1.164442,0.599446 h 0.05512 q 0.16881,-0.282496 0.475424,-0.440976 0.306613,-0.15847 0.702799,-0.15847 0.682129,0 0.992187,0.34451 0.313504,0.344509 0.313504,1.050753 v 2.483914 h -0.809597 v -2.349555 q 0,-0.437527 -0.16881,-0.651123 -0.165365,-0.217041 -0.516764,-0.217041 -0.471978,0 -0.692464,0.296278 -0.217041,0.292833 -0.217041,0.902615 z"
         style="font-style:normal;font-variant:normal;font-weight:600;font-stretch:normal;font-family:'Open Sans';-inkscape-font-specification:'Open Sans Semi-Bold';fill:#555555;fill-opacity:1;stroke-width:0.26458332"
         id="path929" />
    </g>
  </g>
</svg>
