<svg width="1132" xmlns:xlink="http://www.w3.org/1999/xlink" viewBox="0 0 1132 804" xmlns="http://www.w3.org/2000/svg" xmlns:ev="http://www.w3.org/2001/xml-events" height="804"><style type="text/css"><![CDATA[
.st1 {fill:#303030;font-family:Arial;font-size:7.5pt}
]]></style><defs><linearGradient id="lg1" y1="0%" y2="0%" x1="0%" x2="100%"><stop offset="0" stop-color="#606060"/><stop offset="0.5" stop-color="#dfdfdf"/><stop offset="1" stop-color="#606060"/></linearGradient></defs><g transform="translate(5,5)" id="page1"><rect width="1123" x="0" y="0" fill="#ffffff" stroke="#808080" height="794"/><g transform="translate(253.63,109.47)"><g transform="translate(-0,0)" id="shape1"><path d="M0,0L705.4,0L720.5,-15.1L-15.1,-15.1L0,0z" fill="#808080"/><path d="M0,0L705.4,0M720.5,-15.1L-15.1,-15.1" fill="none" stroke="#808080"/></g><g transform="matrix(0,1,-1,0,705.4,0)" id="shape2"><path d="M0,0L561.5,0L576.6,-15.1L-15.1,-15.1L0,0z" fill="#808080"/><path d="M0,0L561.5,0M576.6,-15.1L-15.1,-15.1" fill="none" stroke="#808080"/></g><g transform="matrix(-0,-1,1,-0,0,561.5)" id="shape3"><path d="M0,0L561.5,0L576.6,-15.1L-15.1,-15.1L0,0z" fill="#808080"/><path d="M0,0L561.5,0M576.6,-15.1L-15.1,-15.1" fill="none" stroke="#808080"/></g><g transform="matrix(-1,0,0,-1,110.4,561.5)" id="shape4"><path d="M0,0L110.4,0L125.5,-15.1L-15.1,-15.1L0,0z" fill="#808080"/><path d="M0,0L110.4,0M125.5,-15.1L-15.1,-15.1" fill="none" stroke="#808080"/></g><g transform="matrix(0,1,-1,0,110.4,514.5)" id="shape5"><path d="M0,0L47,0L62.1,-15.1L15.1,-15.1L0,0z" fill="#808080"/><path d="M0,0L47,0M62.1,-15.1L15.1,-15.1" fill="none" stroke="#808080"/></g><g transform="matrix(-1,0,0,-1,577.4,514.5)" id="shape6"><path d="M0,0L467,0L451.9,-15.1L15.1,-15.1L0,0z" fill="#808080"/><path d="M0,0L467,0M451.9,-15.1L15.1,-15.1" fill="none" stroke="#808080"/></g><g transform="matrix(0,-1,1,0,577.4,561.5)" id="shape7"><path d="M0,0L47,0L31.9,-15.1L-15.1,-15.1L0,0z" fill="#808080"/><path d="M0,0L47,0M31.9,-15.1L-15.1,-15.1" fill="none" stroke="#808080"/></g><g transform="matrix(-1,0,0,-1,705.4,561.5)" id="shape8"><path d="M0,0L128,0L143.1,-15.1L-15.1,-15.1L0,0z" fill="#808080"/><path d="M0,0L128,0M143.1,-15.1L-15.1,-15.1" fill="none" stroke="#808080"/></g></g><g transform="matrix(0,1,-1,0,364,109)" id="shape9"><path d="M.5,0L515,0L515,-7.6L.5,-7.6L.5,0z" fill="#808080"/><path d="M.5,0L515,0M515,-7.6L.5,-7.6M515,0L515,-7.6" fill="none" stroke="#808080"/></g><g transform="matrix(0,1,-1,0,400,109)" id="shape10"><path d="M.5,0L363,0L355.4,-7.6L.5,-7.6L.5,0z" fill="#808080"/><path d="M.5,0L363,0M355.4,-7.6L.5,-7.6" fill="none" stroke="#808080"/></g><g transform="matrix(0,1,-1,0,823,109)" id="shape11"><path d="M.5,0L515.5,0L515.5,-7.6L.5,-7.6L.5,0z" fill="#808080"/><path d="M.5,0L515.5,0M515.5,-7.6L.5,-7.6M515.5,0L515.5,-7.6" fill="none" stroke="#808080"/></g><g transform="matrix(0,1,-1,0,787,109)" id="shape12"><path d="M.5,0L355.4,0L363,-7.6L.5,-7.6L.5,0z" fill="#808080"/><path d="M.5,0L355.4,0M363,-7.6L.5,-7.6" fill="none" stroke="#808080"/></g><g transform="translate(400,472)" id="shape13"><path d="M0,0L394.6,0L387,-7.6L7.6,-7.6L0,0z" fill="#808080"/><path d="M0,0L394.6,0M387,-7.6L7.6,-7.6" fill="none" stroke="#808080"/></g><g transform="translate(372,514)" id="shape14"><path d="M-0.4,0L451,0L451,-7.6L-0.4,-7.6L-0.4,0z" fill="#808080"/><path d="M-0.4,0L451,0M451,-7.6L-0.4,-7.6" fill="none" stroke="#808080"/></g><g transform="translate(254,277)" id="shape15"><path d="M-0.4,0L110,0L110,-7.6L-0.4,-7.6L-0.4,0z" fill="#808080"/><path d="M-0.4,0L110,0M110,-7.6L-0.4,-7.6" fill="none" stroke="#808080"/></g><g transform="matrix(1,-0,0,1,254,464)" id="shape16"><path d="M-0.4,0L110,0L110,-7.6L-0.4,-7.6L-0.4,0z" fill="#808080"/><path d="M-0.4,0L110,0M110,-7.6L-0.4,-7.6" fill="none" stroke="#808080"/></g><g transform="matrix(1,0,-0,1,254,514)" id="shape17"><path d="M-0.4,0L110,0L110,-7.6L-0.4,-7.6L-0.4,0z" fill="#808080"/><path d="M-0.4,0L110,0M110,-7.6L-0.4,-7.6" fill="none" stroke="#808080"/></g><g transform="translate(831,280)" id="shape18"><path d="M-0.4,0L128,0L128,-7.6L-0.4,-7.6L-0.4,0z" fill="#808080"/><path d="M-0.4,0L128,0M128,-7.6L-0.4,-7.6" fill="none" stroke="#808080"/></g><g transform="translate(823,463)" id="shape19"><path d="M7.6,0L136,0L136,-7.6L7.6,-7.6L7.6,0z" fill="#808080"/><path d="M7.6,0L136,0M136,-7.6L7.6,-7.6" fill="none" stroke="#808080"/></g><g transform="translate(823,514)" id="shape20"><path d="M0,0L136,0L136,-7.6L0,-7.6L0,0z" fill="#808080"/><path d="M0,0L136,0M136,-7.6L0,-7.6M0,0L0,-7.6" fill="none" stroke="#808080"/></g><g transform="matrix(1,0,0,-1,327.1,514)" id="shape21"><path d="M0,0L24.6,0L24.6,7.6L0,7.6L0,0zM0,0L0,7.6L-4,7.6L-4,0L0,0zM24.6,0L24.6,7.6L28.6,7.6L28.6,0L24.6,0zM24.6,0L24.6,-24.6L20.6,-24.6L20.6,0L24.6,0z" fill="#ffffff"/><path d="M0,0C0,-13.6,11,-24.6,24.6,-24.6M0,0L0,7.6L-4,7.6L-4,0L0,0zM24.6,0L24.6,7.6L28.6,7.6L28.6,0L24.6,0zM24.6,0L24.6,-24.6L20.6,-24.6L20.6,0L24.6,0z" fill="none" stroke="#000000"/></g><g transform="matrix(0,1,1,0,364,466.6)" id="shape22"><path d="M0,0L34.8,0L34.8,7.6L0,7.6L0,0zM0,0L0,7.6L-4,7.6L-4,0L0,0zM34.8,0L38.8,0L38.8,7.6L34.8,7.6L34.8,0zM34.8,0L34.8,-17.4L30.8,-17.4L30.8,0L34.8,0zM0,0L0,-17.4L4,-17.4L4,0L0,0z" fill="#ffffff"/><path d="M17.4,0C17.4,-9.6,25.2,-17.4,34.8,-17.4M0,0L0,7.6L-4,7.6L-4,0L0,0zM34.8,0L38.8,0L38.8,7.6L34.8,7.6L34.8,0zM34.8,0L34.8,-17.4L30.8,-17.4L30.8,0L34.8,0zM0,0L0,-17.4L4,-17.4L4,0L0,0zM17.4,0C17.4,-9.6,9.6,-17.4,0,-17.4" fill="none" stroke="#000000"/></g><g transform="matrix(-0,-1,-1,0,830.6,501.4)" id="shape23"><path d="M0,0L34.8,0L34.8,7.6L0,7.6L0,0zM0,0L0,7.6L-4,7.6L-4,0L0,0zM34.8,0L38.8,0L38.8,7.6L34.8,7.6L34.8,0zM34.8,0L34.8,-17.4L30.8,-17.4L30.8,0L34.8,0zM0,0L0,-17.4L4,-17.4L4,0L0,0z" fill="#ffffff"/><path d="M17.4,0C17.4,-9.6,25.2,-17.4,34.8,-17.4M0,0L0,7.6L-4,7.6L-4,0L0,0zM34.8,0L38.8,0L38.8,7.6L34.8,7.6L34.8,0zM34.8,0L34.8,-17.4L30.8,-17.4L30.8,0L34.8,0zM0,0L0,-17.4L4,-17.4L4,0L0,0zM17.4,0C17.4,-9.6,9.6,-17.4,0,-17.4" fill="none" stroke="#000000"/></g><g transform="matrix(0,1,-1,0,429,514)" id="shape24"><path d="M0,0L110,0L110,-7.6L0,-7.6L0,0z" fill="#808080"/><path d="M0,0L110,0M110,-7.6L0,-7.6" fill="none" stroke="#808080"/></g><g transform="matrix(0,1,-1,0,756,506)" id="shape25"><path d="M8,0L118,0L118,-7.6L8,-7.6L8,0z" fill="#808080"/><path d="M8,0L118,0M118,-7.6L8,-7.6" fill="none" stroke="#808080"/></g><g transform="matrix(0,1,-1,0,558,514)" id="shape26"><path d="M0,0L110,0L110,-7.6L0,-7.6L0,0z" fill="#808080"/><path d="M0,0L110,0M110,-7.6L0,-7.6" fill="none" stroke="#808080"/></g><g transform="matrix(0,1,-1,0,612,514)" id="shape27"><path d="M0,0L110,0L110,-7.6L0,-7.6L0,0z" fill="#808080"/><path d="M0,0L110,0M110,-7.6L0,-7.6" fill="none" stroke="#808080"/></g><g transform="matrix(-1,0,0,-1,604.9,514)" id="shape28"><path d="M0,0L34.8,0L34.8,7.6L0,7.6L0,0zM0,0L0,7.6L-4,7.6L-4,0L0,0zM34.8,0L38.8,0L38.8,7.6L34.8,7.6L34.8,0zM34.8,0L34.8,-17.4L30.8,-17.4L30.8,0L34.8,0zM0,0L0,-17.4L4,-17.4L4,0L0,0z" fill="#ffffff"/><path d="M17.4,0C17.4,-9.6,25.2,-17.4,34.8,-17.4M0,0L0,7.6L-4,7.6L-4,0L0,0zM34.8,0L38.8,0L38.8,7.6L34.8,7.6L34.8,0zM34.8,0L34.8,-17.4L30.8,-17.4L30.8,0L34.8,0zM0,0L0,-17.4L4,-17.4L4,0L0,0zM17.4,0C17.4,-9.6,9.6,-17.4,0,-17.4" fill="none" stroke="#000000"/></g><g transform="matrix(0,1,1,-0,238.5,469)" id="shape29"><path d="M0,0L37.8,0L37.8,15.1L0,15.1L0,0zM0,0L0,15.1L-5,15.1L-5,0L0,0zM37.8,0L42.8,0L42.8,15.1L37.8,15.1L37.8,0zM37.8,0L37.8,-18.9L32.8,-18.9L32.8,0L37.8,0zM0,0L0,-18.9L5,-18.9L5,0L0,0z" fill="#ffffff"/><path d="M18.9,0C18.9,-10.4,27.4,-18.9,37.8,-18.9M0,0L0,15.1L-5,15.1L-5,0L0,0zM37.8,0L42.8,0L42.8,15.1L37.8,15.1L37.8,0zM37.8,0L37.8,-18.9L32.8,-18.9L32.8,0L37.8,0zM0,0L0,-18.9L5,-18.9L5,0L0,0zM18.9,0C18.9,-10.4,10.4,-18.9,0,-18.9" fill="none" stroke="#000000"/></g><g transform="translate(408,355)" id="shape30"><path d="M-0.4,0L379,0L379,-7.6L-0.4,-7.6L-0.4,0z" fill="#808080"/><path d="M-0.4,0L379,0M379,-7.6L-0.4,-7.6" fill="none" stroke="#808080"/></g><g transform="matrix(0,1,-1,0,484,514)" id="shape31"><path d="M0,0L110,0L110,-7.6L0,-7.6L0,0z" fill="#808080"/><path d="M0,0L110,0M110,-7.6L0,-7.6" fill="none" stroke="#808080"/></g><g transform="matrix(0,-1,1,0,364,147)" id="shape32"><path d="M0,0L24.6,0L24.6,7.6L0,7.6L0,0zM0,0L0,7.6L-4,7.6L-4,0L0,0zM24.6,0L24.6,7.6L28.6,7.6L28.6,0L24.6,0zM24.6,0L24.6,-24.6L20.6,-24.6L20.6,0L24.6,0z" fill="#ffffff"/><path d="M0,0C0,-13.6,11,-24.6,24.6,-24.6M0,0L0,7.6L-4,7.6L-4,0L0,0zM24.6,0L24.6,7.6L28.6,7.6L28.6,0L24.6,0zM24.6,0L24.6,-24.6L20.6,-24.6L20.6,0L24.6,0z" fill="none" stroke="#000000"/></g><g transform="matrix(0,1,1,0,364,426.5)" id="shape33"><path d="M0,0L24.6,0L24.6,7.6L0,7.6L0,0zM0,0L0,7.6L-4,7.6L-4,0L0,0zM24.6,0L24.6,7.6L28.6,7.6L28.6,0L24.6,0zM24.6,0L24.6,-24.6L20.6,-24.6L20.6,0L24.6,0z" fill="#ffffff"/><path d="M0,0C0,-13.6,11,-24.6,24.6,-24.6M0,0L0,7.6L-4,7.6L-4,0L0,0zM24.6,0L24.6,7.6L28.6,7.6L28.6,0L24.6,0zM24.6,0L24.6,-24.6L20.6,-24.6L20.6,0L24.6,0z" fill="none" stroke="#000000"/></g><g transform="matrix(1,0,0,-1,399.5,514)" id="shape34"><path d="M0,0L24.6,0L24.6,7.6L0,7.6L0,0zM0,0L0,7.6L-4,7.6L-4,0L0,0zM24.6,0L24.6,7.6L28.6,7.6L28.6,0L24.6,0zM24.6,0L24.6,-24.6L20.6,-24.6L20.6,0L24.6,0z" fill="#ffffff"/><path d="M0,0C0,-13.6,11,-24.6,24.6,-24.6M0,0L0,7.6L-4,7.6L-4,0L0,0zM24.6,0L24.6,7.6L28.6,7.6L28.6,0L24.6,0zM24.6,0L24.6,-24.6L20.6,-24.6L20.6,0L24.6,0z" fill="none" stroke="#000000"/></g><g transform="matrix(1,0,0,-1,454,514)" id="shape35"><path d="M0,0L24.6,0L24.6,7.6L0,7.6L0,0zM0,0L0,7.6L-4,7.6L-4,0L0,0zM24.6,0L24.6,7.6L28.6,7.6L28.6,0L24.6,0zM24.6,0L24.6,-24.6L20.6,-24.6L20.6,0L24.6,0z" fill="#ffffff"/><path d="M0,0C0,-13.6,11,-24.6,24.6,-24.6M0,0L0,7.6L-4,7.6L-4,0L0,0zM24.6,0L24.6,7.6L28.6,7.6L28.6,0L24.6,0zM24.6,0L24.6,-24.6L20.6,-24.6L20.6,0L24.6,0z" fill="none" stroke="#000000"/></g><g transform="matrix(-1,0,0,-1,651.3,514)" id="shape36"><path d="M0,0L24.6,0L24.6,7.6L0,7.6L0,0zM0,0L0,7.6L-4,7.6L-4,0L0,0zM24.6,0L24.6,7.6L28.6,7.6L28.6,0L24.6,0zM24.6,0L24.6,-24.6L20.6,-24.6L20.6,0L24.6,0z" fill="#ffffff"/><path d="M0,0C0,-13.6,11,-24.6,24.6,-24.6M0,0L0,7.6L-4,7.6L-4,0L0,0zM24.6,0L24.6,7.6L28.6,7.6L28.6,0L24.6,0zM24.6,0L24.6,-24.6L20.6,-24.6L20.6,0L24.6,0z" fill="none" stroke="#000000"/></g><g transform="matrix(1,0,0,-1,528.8,514)" id="shape37"><path d="M0,0L24.6,0L24.6,7.6L0,7.6L0,0zM0,0L0,7.6L-4,7.6L-4,0L0,0zM24.6,0L24.6,7.6L28.6,7.6L28.6,0L24.6,0zM24.6,0L24.6,-24.6L20.6,-24.6L20.6,0L24.6,0z" fill="#ffffff"/><path d="M0,0C0,-13.6,11,-24.6,24.6,-24.6M0,0L0,7.6L-4,7.6L-4,0L0,0zM24.6,0L24.6,7.6L28.6,7.6L28.6,0L24.6,0zM24.6,0L24.6,-24.6L20.6,-24.6L20.6,0L24.6,0z" fill="none" stroke="#000000"/></g><g transform="matrix(1,-0,0,-1,570.1,639.1)" id="shape38"><path d="M0,0L34.8,0L34.8,15.1L0,15.1L0,0zM0,0L0,15.1L-5,15.1L-5,0L0,0zM34.8,0L39.8,0L39.8,15.1L34.8,15.1L34.8,0zM34.8,0L34.8,-17.4L29.8,-17.4L29.8,0L34.8,0zM0,0L0,-17.4L5,-17.4L5,0L0,0z" fill="#ffffff"/><path d="M17.4,0C17.4,-9.6,25.2,-17.4,34.8,-17.4M0,0L0,15.1L-5,15.1L-5,0L0,0zM34.8,0L39.8,0L39.8,15.1L34.8,15.1L34.8,0zM34.8,0L34.8,-17.4L29.8,-17.4L29.8,0L34.8,0zM0,0L0,-17.4L5,-17.4L5,0L0,0zM17.4,0C17.4,-9.6,9.6,-17.4,0,-17.4" fill="none" stroke="#000000"/></g><g transform="matrix(0,-1,-1,0,974.1,501.4)" id="shape39"><path d="M0,0L34.8,0L34.8,15.1L0,15.1L0,0zM0,0L0,15.1L-5,15.1L-5,0L0,0zM34.8,0L39.8,0L39.8,15.1L34.8,15.1L34.8,0zM34.8,0L34.8,-17.4L29.8,-17.4L29.8,0L34.8,0zM0,0L0,-17.4L5,-17.4L5,0L0,0z" fill="#ffffff"/><path d="M17.4,0C17.4,-9.6,25.2,-17.4,34.8,-17.4M0,0L0,15.1L-5,15.1L-5,0L0,0zM34.8,0L39.8,0L39.8,15.1L34.8,15.1L34.8,0zM34.8,0L34.8,-17.4L29.8,-17.4L29.8,0L34.8,0zM0,0L0,-17.4L5,-17.4L5,0L0,0zM17.4,0C17.4,-9.6,9.6,-17.4,0,-17.4" fill="none" stroke="#000000"/></g><g transform="matrix(1,0,0,-1,795,514)" id="shape40"><path d="M0,0L24.6,0L24.6,7.6L0,7.6L0,0zM0,0L0,7.6L-4,7.6L-4,0L0,0zM24.6,0L24.6,7.6L28.6,7.6L28.6,0L24.6,0zM24.6,0L24.6,-24.6L20.6,-24.6L20.6,0L24.6,0z" fill="#ffffff"/><path d="M0,0C0,-13.6,11,-24.6,24.6,-24.6M0,0L0,7.6L-4,7.6L-4,0L0,0zM24.6,0L24.6,7.6L28.6,7.6L28.6,0L24.6,0zM24.6,0L24.6,-24.6L20.6,-24.6L20.6,0L24.6,0z" fill="none" stroke="#000000"/></g><g transform="matrix(0,-1,-1,-0,830.6,140.1)" id="shape41"><path d="M0,0L24.6,0L24.6,7.6L0,7.6L0,0zM0,0L0,7.6L-4,7.6L-4,0L0,0zM24.6,0L24.6,7.6L28.6,7.6L28.6,0L24.6,0zM24.6,0L24.6,-24.6L20.6,-24.6L20.6,0L24.6,0z" fill="#ffffff"/><path d="M0,0C0,-13.6,11,-24.6,24.6,-24.6M0,0L0,7.6L-4,7.6L-4,0L0,0zM24.6,0L24.6,7.6L28.6,7.6L28.6,0L24.6,0zM24.6,0L24.6,-24.6L20.6,-24.6L20.6,0L24.6,0z" fill="none" stroke="#000000"/></g><g transform="matrix(-0,-1,-1,0,830.6,311.6)" id="shape42"><path d="M0,0L24.6,0L24.6,7.6L0,7.6L0,0zM0,0L0,7.6L-4,7.6L-4,0L0,0zM24.6,0L24.6,7.6L28.6,7.6L28.6,0L24.6,0zM24.6,0L24.6,-24.6L20.6,-24.6L20.6,0L24.6,0z" fill="#ffffff"/><path d="M0,0C0,-13.6,11,-24.6,24.6,-24.6M0,0L0,7.6L-4,7.6L-4,0L0,0zM24.6,0L24.6,7.6L28.6,7.6L28.6,0L24.6,0zM24.6,0L24.6,-24.6L20.6,-24.6L20.6,0L24.6,0z" fill="none" stroke="#000000"/></g><g transform="matrix(-1,0,0,1,517.6,464.4)" id="shape43"><path d="M0,0L34.8,0L34.8,7.6L0,7.6L0,0zM0,0L0,7.6L-4,7.6L-4,0L0,0zM34.8,0L38.8,0L38.8,7.6L34.8,7.6L34.8,0zM34.8,0L34.8,-17.4L30.8,-17.4L30.8,0L34.8,0zM0,0L0,-17.4L4,-17.4L4,0L0,0z" fill="#ffffff"/><path d="M17.4,0C17.4,-9.6,25.2,-17.4,34.8,-17.4M0,0L0,7.6L-4,7.6L-4,0L0,0zM34.8,0L38.8,0L38.8,7.6L34.8,7.6L34.8,0zM34.8,0L34.8,-17.4L30.8,-17.4L30.8,0L34.8,0zM0,0L0,-17.4L4,-17.4L4,0L0,0zM17.4,0C17.4,-9.6,9.6,-17.4,0,-17.4" fill="none" stroke="#000000"/></g><g transform="matrix(-1,0,0,1,706.9,464.4)" id="shape44"><path d="M0,0L34.8,0L34.8,7.6L0,7.6L0,0zM0,0L0,7.6L-4,7.6L-4,0L0,0zM34.8,0L38.8,0L38.8,7.6L34.8,7.6L34.8,0zM34.8,0L34.8,-17.4L30.8,-17.4L30.8,0L34.8,0zM0,0L0,-17.4L4,-17.4L4,0L0,0z" fill="#ffffff"/><path d="M17.4,0C17.4,-9.6,25.2,-17.4,34.8,-17.4M0,0L0,7.6L-4,7.6L-4,0L0,0zM34.8,0L38.8,0L38.8,7.6L34.8,7.6L34.8,0zM34.8,0L34.8,-17.4L30.8,-17.4L30.8,0L34.8,0zM0,0L0,-17.4L4,-17.4L4,0L0,0zM17.4,0C17.4,-9.6,9.6,-17.4,0,-17.4" fill="none" stroke="#000000"/></g><g transform="matrix(-1,0,0,-1,874.1,514)" id="shape45"><path d="M0,0L24.6,0L24.6,7.6L0,7.6L0,0zM0,0L0,7.6L-4,7.6L-4,0L0,0zM24.6,0L24.6,7.6L28.6,7.6L28.6,0L24.6,0zM24.6,0L24.6,-24.6L20.6,-24.6L20.6,0L24.6,0z" fill="#ffffff"/><path d="M0,0C0,-13.6,11,-24.6,24.6,-24.6M0,0L0,7.6L-4,7.6L-4,0L0,0zM24.6,0L24.6,7.6L28.6,7.6L28.6,0L24.6,0zM24.6,0L24.6,-24.6L20.6,-24.6L20.6,0L24.6,0z" fill="none" stroke="#000000"/></g><g transform="matrix(-1,0,0,1,546,94.4)" id="shape46"><path d="M0,0L24.6,0L24.6,15.1L0,15.1L0,0zM0,0L0,15.1L-5,15.1L-5,0L0,0zM24.6,0L24.6,15.1L29.6,15.1L29.6,0L24.6,0zM24.6,0L24.6,-24.6L19.6,-24.6L19.6,0L24.6,0z" fill="#ffffff"/><path d="M0,0C0,-13.6,11,-24.6,24.6,-24.6M0,0L0,15.1L-5,15.1L-5,0L0,0zM24.6,0L24.6,15.1L29.6,15.1L29.6,0L24.6,0zM24.6,0L24.6,-24.6L19.6,-24.6L19.6,0L24.6,0z" fill="none" stroke="#000000"/></g><g transform="translate(648.68,94.35)" id="shape47"><path d="M0,0L24.6,0L24.6,15.1L0,15.1L0,0zM0,0L0,15.1L-5,15.1L-5,0L0,0zM24.6,0L24.6,15.1L29.6,15.1L29.6,0L24.6,0zM24.6,0L24.6,-24.6L19.6,-24.6L19.6,0L24.6,0z" fill="#ffffff"/><path d="M0,0C0,-13.6,11,-24.6,24.6,-24.6M0,0L0,15.1L-5,15.1L-5,0L0,0zM24.6,0L24.6,15.1L29.6,15.1L29.6,0L24.6,0zM24.6,0L24.6,-24.6L19.6,-24.6L19.6,0L24.6,0z" fill="none" stroke="#000000"/></g><g transform="translate(257,465)"><path d="M0,0L9.2,0L9.2,18.6L0,18.6L0,0z" fill="#ffffff" transform="translate(21.22,22.45)" id="shape48" stroke="#000000"/><path d="M0,0L9.2,0L9.2,18.6L0,18.6L0,0z" fill="#ffffff" transform="translate(30.17,22.4)" id="shape49" stroke="#000000"/><path d="M0,0L9.2,0L9.2,18.6L0,18.6L0,0z" fill="#ffffff" transform="translate(39.2,22.4)" id="shape50" stroke="#000000"/><path d="M0,0L9.2,0L9.2,18.6L0,18.6L0,0z" fill="#ffffff" transform="translate(48.23,22.4)" id="shape51" stroke="#000000"/><path d="M0,0L9.2,0L9.2,18.6L0,18.6L0,0z" fill="#ffffff" transform="translate(57.27,22.4)" id="shape52" stroke="#000000"/><path d="M0,0L9.2,0L9.2,18.6L0,18.6L0,0z" fill="#ffffff" transform="translate(66.3,22.4)" id="shape53" stroke="#000000"/><path d="M0,0L9.2,0L9.2,18.6L0,18.6L0,0z" fill="#ffffff" transform="translate(75.33,22.4)" id="shape54" stroke="#000000"/><path d="M1.5,1.9C1.5,1.9,1.6,1,3.3,1C5,1,91.7,1,91.7,1C91.7,1,93.5,.9,93.5,1.9L95.2,1.9C95.2,1.9,95,0,92.2,0C89.7,0,3.3,0,3.3,0C3.3,0,0,.2,0,1.9C0,1.9,1.5,1.9,1.5,1.9z" fill="#ffffff" transform="translate(10.82,39.02)" id="shape55" stroke="#000000"/><path d="M0,0L9.2,0L9.2,18.6L0,18.6L0,0z" fill="#ffffff" transform="translate(21.22,0)" id="shape56" stroke="#000000"/><path d="M0,0L9.2,0L9.2,18.6L0,18.6L0,0z" fill="#ffffff" transform="translate(30.17,0.04)" id="shape57" stroke="#000000"/><path d="M0,0L9.2,0L9.2,18.6L0,18.6L0,0z" fill="#ffffff" transform="translate(39.2,0.04)" id="shape58" stroke="#000000"/><path d="M0,0L9.2,0L9.2,18.6L0,18.6L0,0z" fill="#ffffff" transform="translate(48.23,0.04)" id="shape59" stroke="#000000"/><path d="M0,0L9.2,0L9.2,18.6L0,18.6L0,0z" fill="#ffffff" transform="translate(57.27,0.04)" id="shape60" stroke="#000000"/><path d="M0,0L9.2,0L9.2,18.6L0,18.6L0,0z" fill="#ffffff" transform="translate(66.3,0.04)" id="shape61" stroke="#000000"/><path d="M0,0L9.2,0L9.2,18.6L0,18.6L0,0z" fill="#ffffff" transform="translate(75.33,0.04)" id="shape62" stroke="#000000"/><path d="M93.6,0C93.6,0,93.5,1,91.9,1C90.2,1,3.5,1,3.5,1C3.5,1,1.6,1,1.6,0L0,0C0,0,.1,1.9,3,1.9C5.4,1.9,91.9,1.9,91.9,1.9C91.9,1.9,95.2,1.8,95.2,0C95.2,0,93.6,0,93.6,0z" fill="#ffffff" transform="translate(-0.01,0.11)" id="shape63" stroke="#000000"/><path d="M2.7,0L74.7,0C76.1,0,77.3,.6,77.3,1.4L77.3,6.2C77.3,6.9,76.1,7.5,74.7,7.5L2.7,7.5C1.2,7.5,0,6.9,0,6.2L0,1.4C0,.6,1.2,0,2.7,0z" fill="#ffffff" transform="translate(14.33,16.74)" id="shape64" stroke="#000000"/><path d="M2.7,0L72,0C73.5,0,74.7,.6,74.7,1.4L74.7,4.3C74.7,5,73.5,5.6,72,5.6L2.7,5.6C1.2,5.6,0,5,0,4.3L0,1.4C0,.6,1.2,0,2.7,0z" fill="#ffffff" transform="translate(15.67,17.68)" id="shape65" stroke="#000000"/><path d="M18.8,5.5L18.8,1.4L8.8,1.4L8.8,0L0,3.4L8.8,6.8L8.8,5.5L18.8,5.5z" fill="#000000" transform="translate(61.49,5.86)" id="shape66" stroke="#000000"/><path d="M-11.3,1.4L-11.3,5.5L2.9,5.5L2.9,6.8L11.8,3.4L2.9,0L2.9,1.4L-11.3,1.4z" fill="#000000" transform="translate(21.22,28.74)" id="shape67" stroke="#000000"/></g><g transform="translate(873,464.41)"><path d="M0,0L7.2,0L7.2,18.6L0,18.6L0,0z" fill="#ffffff" transform="translate(16.62,22.45)" id="shape68" stroke="#000000"/><path d="M0,0L7.2,0L7.2,18.6L0,18.6L0,0z" fill="#ffffff" transform="translate(23.63,22.4)" id="shape69" stroke="#000000"/><path d="M0,0L7.2,0L7.2,18.6L0,18.6L0,0z" fill="#ffffff" transform="translate(30.7,22.4)" id="shape70" stroke="#000000"/><path d="M0,0L7.2,0L7.2,18.6L0,18.6L0,0z" fill="#ffffff" transform="translate(37.77,22.4)" id="shape71" stroke="#000000"/><path d="M0,0L7.2,0L7.2,18.6L0,18.6L0,0z" fill="#ffffff" transform="translate(44.84,22.4)" id="shape72" stroke="#000000"/><path d="M0,0L7.2,0L7.2,18.6L0,18.6L0,0z" fill="#ffffff" transform="translate(51.91,22.4)" id="shape73" stroke="#000000"/><path d="M0,0L7.2,0L7.2,18.6L0,18.6L0,0z" fill="#ffffff" transform="translate(58.98,22.4)" id="shape74" stroke="#000000"/><path d="M1.2,1.9C1.2,1.9,1.3,1,2.6,1C3.9,1,71.8,1,71.8,1C71.8,1,73.2,.9,73.2,1.9L74.5,1.9C74.5,1.9,74.4,0,72.2,0C70.3,0,2.6,0,2.6,0C2.6,0,0,.2,0,1.9C0,1.9,1.2,1.9,1.2,1.9z" fill="#ffffff" transform="translate(8.47,39.02)" id="shape75" stroke="#000000"/><path d="M0,0L7.2,0L7.2,18.6L0,18.6L0,0z" fill="#ffffff" transform="translate(16.62,0)" id="shape76" stroke="#000000"/><path d="M0,0L7.2,0L7.2,18.6L0,18.6L0,0z" fill="#ffffff" transform="translate(23.63,0.04)" id="shape77" stroke="#000000"/><path d="M0,0L7.2,0L7.2,18.6L0,18.6L0,0z" fill="#ffffff" transform="translate(30.7,0.04)" id="shape78" stroke="#000000"/><path d="M0,0L7.2,0L7.2,18.6L0,18.6L0,0z" fill="#ffffff" transform="translate(37.77,0.04)" id="shape79" stroke="#000000"/><path d="M0,0L7.2,0L7.2,18.6L0,18.6L0,0z" fill="#ffffff" transform="translate(44.84,0.04)" id="shape80" stroke="#000000"/><path d="M0,0L7.2,0L7.2,18.6L0,18.6L0,0z" fill="#ffffff" transform="translate(51.91,0.04)" id="shape81" stroke="#000000"/><path d="M0,0L7.2,0L7.2,18.6L0,18.6L0,0z" fill="#ffffff" transform="translate(58.98,0.04)" id="shape82" stroke="#000000"/><path d="M73.3,0C73.3,0,73.2,1,71.9,1C70.6,1,2.7,1,2.7,1C2.7,1,1.3,1,1.3,0L0,0C0,0,.1,1.9,2.3,1.9C4.3,1.9,71.9,1.9,71.9,1.9C71.9,1.9,74.5,1.8,74.5,0C74.5,0,73.3,0,73.3,0z" fill="#ffffff" transform="translate(-0.01,0.11)" id="shape83" stroke="#000000"/><path d="M2.1,0L58.5,0C59.6,0,60.6,.6,60.6,1.4L60.6,6.2C60.6,6.9,59.6,7.5,58.5,7.5L2.1,7.5C.9,7.5,0,6.9,0,6.2L0,1.4C0,.6,.9,0,2.1,0z" fill="#ffffff" transform="translate(11.22,16.74)" id="shape84" stroke="#000000"/><path d="M2.1,0L56.4,0C57.5,0,58.5,.6,58.5,1.4L58.5,4.3C58.5,5,57.5,5.6,56.4,5.6L2.1,5.6C.9,5.6,0,5,0,4.3L0,1.4C0,.6,.9,0,2.1,0z" fill="#ffffff" transform="translate(12.27,17.68)" id="shape85" stroke="#000000"/><path d="M14.8,5.5L14.8,1.4L6.9,1.4L6.9,0L0,3.4L6.9,6.8L6.9,5.5L14.8,5.5z" fill="#000000" transform="translate(48.15,5.86)" id="shape86" stroke="#000000"/><path d="M-11.3,1.4L-11.3,5.5L2.3,5.5L2.3,6.8L9.2,3.4L2.3,0L2.3,1.4L-11.3,1.4z" fill="#000000" transform="translate(16.62,28.74)" id="shape87" stroke="#000000"/></g><g transform="translate(765,568.5)"><g transform="translate(0.16,7.96)"><g id="shape88"><path d="M2.8,10.4C2.8,10.4,0,10.4,0,10.4L0,0C0,0,2.8,0,2.8,0C3.1,0,3.1,.4,3.1,.4L3.2,1.7L7.2,.7C7.2,.7,9.7,.3,11.1,3.6C11.1,3.6,11.8,5.1,11.1,6.9C9.7,10,7.2,9.7,7.2,9.7L3.2,8.7L3.1,10C3.1,10,3,10.4,2.8,10.4z" fill="#ffffff"/><path d="M2.8,10.4C2.8,10.4,0,10.4,0,10.4L0,0C0,0,2.8,0,2.8,0C3.1,0,3.1,.4,3.1,.4L3.2,1.7L7.2,.7C7.2,.7,9.7,.3,11.1,3.6C11.1,3.6,11.8,5.1,11.1,6.9C9.7,10,7.2,9.7,7.2,9.7L3.2,8.7L3.1,10C3.1,10,3,10.4,2.8,10.4zM3.1,.8L0,2L0,8.4L3.1,9.6M3.2,1.7C3.2,1.7,3.7,5.2,3.2,8.7" fill="none" stroke="#000000" stroke-width="0.25"/></g><path d="M0,1.4C0,1.4,1.1,.1,2.5,0C3.9,-0.1,5.1,1,5.5,1.6C5.9,2.2,6.3,3,6.3,4.2C6.3,5.3,5.7,6.3,5.7,6.3C5.7,6.3,4.6,8.2,2.4,8.2C2.4,8.2,1,8,0,6.8L0,1.4z" fill="#ffffff" transform="translate(4.74,1.13)" id="shape89" stroke="#000000" stroke-width="0.25"/><path d="M0,0" fill="none" transform="translate(3.86,2.44)" id="shape90" stroke="#000000" stroke-width="0.25"/><path d="M0,0" fill="none" transform="translate(3.86,7.45)" id="shape91" stroke="#000000" stroke-width="0.25"/><path d="M0,0L.5,5.6L0,0z" fill="#ffffff" transform="translate(4.29,2.42)" id="shape92" stroke="#000000" stroke-width="0.25"/></g><path d="M0,0L32.8,0L0,0z" fill="none" transform="translate(0,52.1)" id="shape93" stroke="#000000"/><path d="M0,0L32.8,0L0,0z" fill="none" transform="translate(0,0)" id="shape94" stroke="#000000"/><path d="M0,0L.4,2.6L0,0z" fill="#ffffff" transform="translate(32.85,0)" id="shape95" stroke="#000000"/><path d="M0,0L.4,2.6L0,0z" fill="#ffffff" transform="translate(32.85,26.47)" id="shape96" stroke="#000000"/><path d="M0,0L.4,2.6L0,0z" fill="#ffffff" transform="translate(32.85,50.37)" id="shape97" stroke="#000000"/><g transform="matrix(0,1,1,0,32.2,29.9)" id="shape98"><path d="M0,0L19.9,0L19.9,13L0,13L0,0M0,0L0,13L-5,13L-5,0L0,0M19.9,0L19.9,13L24.9,13L24.9,0L19.9,0M19.9,0L19.9,-19.9L14.9,-19.9L14.9,0L19.9,0" fill="#ffffff"/><path d="M0,0C-0,-11,8.9,-19.9,19.9,-19.9M0,0L0,13L-5,13L-5,0L0,0M19.9,0L19.9,13L24.9,13L24.9,0L19.9,0M19.9,0L19.9,-19.9L14.9,-19.9L14.9,0L19.9,0M0,3L3,3L3,6L0,6L0,3M19.9,3L16.9,3L16.9,6L19.9,6L19.9,3" fill="none" stroke="#000000"/></g><path d="M0,0L.4,2.6L0,0z" fill="#ffffff" transform="translate(32.85,23.7)" id="shape99" stroke="#000000"/><g transform="matrix(0,1,1,0,32.2,3.3)" id="shape100"><path d="M0,0L19.9,0L19.9,13L0,13L0,0M0,0L0,13L-5,13L-5,0L0,0M19.9,0L19.9,13L24.9,13L24.9,0L19.9,0M19.9,0L19.9,-19.9L14.9,-19.9L14.9,0L19.9,0" fill="#ffffff"/><path d="M0,0C0,-11,8.9,-19.9,19.9,-19.9M0,0L0,13L-5,13L-5,0L0,0M19.9,0L19.9,13L24.9,13L24.9,0L19.9,0M19.9,0L19.9,-19.9L14.9,-19.9L14.9,0L19.9,0M0,3L3,3L3,6L0,6L0,3M19.9,3L16.9,3L16.9,6L19.9,6L19.9,3" fill="none" stroke="#000000"/></g><path d="M0,0L32.8,0L0,0z" fill="none" transform="translate(0,26.4)" id="shape101" stroke="#000000"/><g transform="translate(0.16,34.59)"><g id="shape102"><path d="M2.8,10.4C2.8,10.4,0,10.4,0,10.4L0,0C0,0,2.8,0,2.8,0C3.1,0,3.1,.4,3.1,.4L3.2,1.7L7.2,.7C7.2,.7,9.7,.3,11.1,3.6C11.1,3.6,11.8,5.1,11.1,6.9C9.7,10,7.2,9.7,7.2,9.7L3.2,8.7L3.1,10C3.1,10,3,10.4,2.8,10.4z" fill="#ffffff"/><path d="M2.8,10.4C2.8,10.4,0,10.4,0,10.4L0,0C0,0,2.8,0,2.8,0C3.1,0,3.1,.4,3.1,.4L3.2,1.7L7.2,.7C7.2,.7,9.7,.3,11.1,3.6C11.1,3.6,11.8,5.1,11.1,6.9C9.7,10,7.2,9.7,7.2,9.7L3.2,8.7L3.1,10C3.1,10,3,10.4,2.8,10.4zM3.1,.8L0,2L0,8.4L3.1,9.6M3.2,1.7C3.2,1.7,3.7,5.2,3.2,8.7" fill="none" stroke="#000000" stroke-width="0.25"/></g><path d="M0,1.4C0,1.4,1.1,.1,2.5,0C3.9,-0.1,5.1,1,5.5,1.6C5.9,2.2,6.3,3,6.3,4.2C6.3,5.3,5.7,6.3,5.7,6.3C5.7,6.3,4.6,8.2,2.4,8.2C2.4,8.2,1,8,0,6.8L0,1.4z" fill="#ffffff" transform="translate(4.74,1.13)" id="shape103" stroke="#000000" stroke-width="0.25"/><path d="M0,0" fill="none" transform="translate(3.86,2.44)" id="shape104" stroke="#000000" stroke-width="0.25"/><path d="M0,0" fill="none" transform="translate(3.86,7.45)" id="shape105" stroke="#000000" stroke-width="0.25"/><path d="M0,0L.5,5.6L0,0z" fill="#ffffff" transform="translate(4.29,2.42)" id="shape106" stroke="#000000" stroke-width="0.25"/></g></g><g transform="translate(372,568.5)"><g transform="translate(0.16,7.96)"><g id="shape107"><path d="M2.8,10.4C2.8,10.4,0,10.4,0,10.4L0,0C0,0,2.8,0,2.8,0C3.1,0,3.1,.4,3.1,.4L3.2,1.7L7.2,.7C7.2,.7,9.7,.3,11.1,3.6C11.1,3.6,11.8,5.1,11.1,6.9C9.7,10,7.2,9.7,7.2,9.7L3.2,8.7L3.1,10C3.1,10,3,10.4,2.8,10.4z" fill="#ffffff"/><path d="M2.8,10.4C2.8,10.4,0,10.4,0,10.4L0,0C0,0,2.8,0,2.8,0C3.1,0,3.1,.4,3.1,.4L3.2,1.7L7.2,.7C7.2,.7,9.7,.3,11.1,3.6C11.1,3.6,11.8,5.1,11.1,6.9C9.7,10,7.2,9.7,7.2,9.7L3.2,8.7L3.1,10C3.1,10,3,10.4,2.8,10.4zM3.1,.8L0,2L0,8.4L3.1,9.6M3.2,1.7C3.2,1.7,3.7,5.2,3.2,8.7" fill="none" stroke="#000000" stroke-width="0.25"/></g><path d="M0,1.4C0,1.4,1.1,.1,2.5,0C3.9,-0.1,5.1,1,5.5,1.6C5.9,2.2,6.3,3,6.3,4.2C6.3,5.3,5.7,6.3,5.7,6.3C5.7,6.3,4.6,8.2,2.4,8.2C2.4,8.2,1,8,0,6.8L0,1.4z" fill="#ffffff" transform="translate(4.74,1.13)" id="shape108" stroke="#000000" stroke-width="0.25"/><path d="M0,0" fill="none" transform="translate(3.86,2.44)" id="shape109" stroke="#000000" stroke-width="0.25"/><path d="M0,0" fill="none" transform="translate(3.86,7.45)" id="shape110" stroke="#000000" stroke-width="0.25"/><path d="M0,0L.5,5.6L0,0z" fill="#ffffff" transform="translate(4.29,2.42)" id="shape111" stroke="#000000" stroke-width="0.25"/></g><path d="M0,0L32.8,0L0,0z" fill="none" transform="translate(0,52.1)" id="shape112" stroke="#000000"/><path d="M0,0L32.8,0L0,0z" fill="none" transform="translate(0,0)" id="shape113" stroke="#000000"/><path d="M0,0L.4,2.6L0,0z" fill="#ffffff" transform="translate(32.85,0)" id="shape114" stroke="#000000"/><path d="M0,0L.4,2.6L0,0z" fill="#ffffff" transform="translate(32.85,26.47)" id="shape115" stroke="#000000"/><path d="M0,0L.4,2.6L0,0z" fill="#ffffff" transform="translate(32.85,50.37)" id="shape116" stroke="#000000"/><g transform="matrix(0,1,1,0,32.2,29.9)" id="shape117"><path d="M0,0L19.9,0L19.9,13L0,13L0,0M0,0L0,13L-5,13L-5,0L0,0M19.9,0L19.9,13L24.9,13L24.9,0L19.9,0M19.9,0L19.9,-19.9L14.9,-19.9L14.9,0L19.9,0" fill="#ffffff"/><path d="M0,0C-0,-11,8.9,-19.9,19.9,-19.9M0,0L0,13L-5,13L-5,0L0,0M19.9,0L19.9,13L24.9,13L24.9,0L19.9,0M19.9,0L19.9,-19.9L14.9,-19.9L14.9,0L19.9,0M0,3L3,3L3,6L0,6L0,3M19.9,3L16.9,3L16.9,6L19.9,6L19.9,3" fill="none" stroke="#000000"/></g><path d="M0,0L.4,2.6L0,0z" fill="#ffffff" transform="translate(32.85,23.7)" id="shape118" stroke="#000000"/><g transform="matrix(0,1,1,0,32.2,3.3)" id="shape119"><path d="M0,0L19.9,0L19.9,13L0,13L0,0M0,0L0,13L-5,13L-5,0L0,0M19.9,0L19.9,13L24.9,13L24.9,0L19.9,0M19.9,0L19.9,-19.9L14.9,-19.9L14.9,0L19.9,0" fill="#ffffff"/><path d="M0,0C0,-11,8.9,-19.9,19.9,-19.9M0,0L0,13L-5,13L-5,0L0,0M19.9,0L19.9,13L24.9,13L24.9,0L19.9,0M19.9,0L19.9,-19.9L14.9,-19.9L14.9,0L19.9,0M0,3L3,3L3,6L0,6L0,3M19.9,3L16.9,3L16.9,6L19.9,6L19.9,3" fill="none" stroke="#000000"/></g><path d="M0,0L32.8,0L0,0z" fill="none" transform="translate(0,26.4)" id="shape120" stroke="#000000"/><g transform="translate(0.16,34.59)"><g id="shape121"><path d="M2.8,10.4C2.8,10.4,0,10.4,0,10.4L0,0C0,0,2.8,0,2.8,0C3.1,0,3.1,.4,3.1,.4L3.2,1.7L7.2,.7C7.2,.7,9.7,.3,11.1,3.6C11.1,3.6,11.8,5.1,11.1,6.9C9.7,10,7.2,9.7,7.2,9.7L3.2,8.7L3.1,10C3.1,10,3,10.4,2.8,10.4z" fill="#ffffff"/><path d="M2.8,10.4C2.8,10.4,0,10.4,0,10.4L0,0C0,0,2.8,0,2.8,0C3.1,0,3.1,.4,3.1,.4L3.2,1.7L7.2,.7C7.2,.7,9.7,.3,11.1,3.6C11.1,3.6,11.8,5.1,11.1,6.9C9.7,10,7.2,9.7,7.2,9.7L3.2,8.7L3.1,10C3.1,10,3,10.4,2.8,10.4zM3.1,.8L0,2L0,8.4L3.1,9.6M3.2,1.7C3.2,1.7,3.7,5.2,3.2,8.7" fill="none" stroke="#000000" stroke-width="0.25"/></g><path d="M0,1.4C0,1.4,1.1,.1,2.5,0C3.9,-0.1,5.1,1,5.5,1.6C5.9,2.2,6.3,3,6.3,4.2C6.3,5.3,5.7,6.3,5.7,6.3C5.7,6.3,4.6,8.2,2.4,8.2C2.4,8.2,1,8,0,6.8L0,1.4z" fill="#ffffff" transform="translate(4.74,1.13)" id="shape122" stroke="#000000" stroke-width="0.25"/><path d="M0,0" fill="none" transform="translate(3.86,2.44)" id="shape123" stroke="#000000" stroke-width="0.25"/><path d="M0,0" fill="none" transform="translate(3.86,7.45)" id="shape124" stroke="#000000" stroke-width="0.25"/><path d="M0,0L.5,5.6L0,0z" fill="#ffffff" transform="translate(4.29,2.42)" id="shape125" stroke="#000000" stroke-width="0.25"/></g></g><g transform="translate(282.36,185)" id="shape126"><text class="st1"><tspan x="5" y="12.5">Class 1A</tspan></text></g><g transform="translate(277.5,356)" id="shape127"><text class="st1"><tspan x="5" y="12.5">Class 2A</tspan></text></g><g transform="translate(870.5,360.5)" id="shape128"><text class="st1"><tspan x="5" y="12.5">Class 3A</tspan></text></g><g transform="translate(870.5,188.06)" id="shape129"><text class="st1"><tspan x="5" y="12.5">Class 4A</tspan></text></g><g transform="translate(569.28,204)" id="shape130"><text class="st1"><tspan x="7.3" y="12.5">Auditorium</tspan></text></g><g transform="translate(583.65,129)"><path d="M0,17.8C0,8,7.6,0,16.9,0C26.2,0,33.8,8,33.8,17.8C33.8,27.6,26.2,35.6,16.9,35.6C7.6,35.6,0,27.6,0,17.8z" fill="none" transform="translate(0,4.24)" id="shape131" stroke="#595757"/><path d="M0,13.1C0,5.9,5.6,0,12.4,0C19.3,0,24.9,5.9,24.9,13.1C24.9,20.4,19.3,26.2,12.4,26.2C5.6,26.2,0,20.4,0,13.1z" fill="none" transform="translate(4.45,8.93)" id="shape132" stroke="#595757"/><g transform="translate(1.21,5.52)"><path d="M0,4.4L1.7,0C1.7,0,8.3,2.4,11,9.7L6.9,11.5C6.9,11.5,5.1,6.4,0,4.4z" fill="#595757" transform="translate(20.22,0)" id="shape133" stroke="#595757"/><path d="M11,4.4L9.3,0C9.3,0,2.8,2.4,0,9.7L4.1,11.5C4.1,11.5,6,6.4,11,4.4z" fill="#595757" id="shape134" stroke="#595757"/><path d="M11,7.1L9.3,11.5C9.3,11.5,2.8,9.1,0,1.8L4.1,0C4.1,0,6,5.1,11,7.1z" fill="#595757" transform="translate(0,21.56)" id="shape135" stroke="#595757"/><path d="M0,7.1L1.7,11.5C1.7,11.5,8.3,9.1,11,1.8L6.9,0C6.9,0,5.1,5.1,0,7.1z" fill="#595757" transform="translate(20.22,21.56)" id="shape136" stroke="#595757"/></g><path d="M0,41L8.9,0L17.8,41L8.9,35.1L0,41z" fill="url(#lg1)" transform="translate(7.96,0)" id="shape137" stroke="#595757"/><path d="M0,8.2L0,0L1.5,0L4.7,5.4L4.7,0L6.1,0L6.1,8.2L4.5,8.2L1.4,2.8L1.4,8.2L0,8.2z" fill="#000000" transform="translate(13.83,20.5)" id="shape138" stroke="#000000"/></g><g transform="translate(368.5,540)" id="shape139"><text class="st1"><tspan x="14.3" y="12.5">Female</tspan></text></g><g transform="translate(760.5,531.75)" id="shape140"><text class="st1"><tspan x="20.3" y="12.5">Male</tspan></text></g><g transform="translate(637.5,559.5)" id="shape141"><text class="st1"><tspan x="6.3" y="12.5">Staff Room</tspan></text></g><g transform="translate(429.06,559.5)" id="shape142"><text class="st1"><tspan x="18.3" y="12.5">Nurse</tspan></text></g><g transform="translate(492.41,559.5)" id="shape143"><text class="st1"><tspan x="19.3" y="12.5">Head</tspan></text></g><g transform="translate(537.91,464.44)" id="shape144"><path d="M0,7.6L113.4,7.6L113.4,0L0,0L0,7.6zM0,0L0,7.6L-7.6,7.6L-7.6,0L0,0zM113.4,0L113.4,7.6L121.4,7.6L121.4,0L113.4,0zM4,1.8L4,5.8L0,5.8L0,1.8L4,1.8zM109.4,1.8L109.4,5.8L113.4,5.8L113.4,1.8L109.4,1.8z" fill="#ffffff"/><path d="M0,0L0,7.6L-7.6,7.6L-7.6,0L0,0zM113.4,0L113.4,7.6L121.4,7.6L121.4,0L113.4,0zM4,1.8L4,5.8L0,5.8L0,1.8L4,1.8zM109.4,1.8L109.4,5.8L113.4,5.8L113.4,1.8L109.4,1.8zM4,3.8L109.4,3.8" fill="none" stroke="#000000"/></g><g transform="translate(422.94,94.35)" id="shape145"><path d="M0,15.1L83.1,15.1L83.1,0L0,0L0,15.1zM0,0L0,15.1L-7.6,15.1L-7.6,0L0,0zM83.1,0L83.1,15.1L91.1,15.1L91.1,0L83.1,0zM4,3.6L4,7.6L0,7.6L0,3.6L4,3.6zM41.5,3.6L41.5,7.6L45.5,7.6L45.5,3.6L41.5,3.6zM41.5,7.6L45.5,7.6L45.5,11.6L41.5,11.6L41.5,7.6zM83.1,7.6L79.1,7.6L79.1,11.6L83.1,11.6L83.1,7.6z" fill="#ffffff"/><path d="M0,0L0,15.1L-7.6,15.1L-7.6,0L0,0zM83.1,0L83.1,15.1L91.1,15.1L91.1,0L83.1,0zM4,3.6L4,7.6L0,7.6L0,3.6L4,3.6zM41.5,3.6L41.5,7.6L45.5,7.6L45.5,3.6L41.5,3.6zM4,5.6L41.5,5.6M45.5,9.6L79.1,9.6M41.5,7.6L45.5,7.6L45.5,11.6L41.5,11.6L41.5,7.6zM83.1,7.6L79.1,7.6L79.1,11.6L83.1,11.6L83.1,7.6z" fill="none" stroke="#000000"/></g><g transform="translate(691.38,94.35)" id="shape146"><path d="M0,15.1L83.1,15.1L83.1,0L0,0L0,15.1zM0,0L0,15.1L-7.6,15.1L-7.6,0L0,0zM83.1,0L83.1,15.1L91.1,15.1L91.1,0L83.1,0zM4,3.6L4,7.6L0,7.6L0,3.6L4,3.6zM41.5,3.6L41.5,7.6L45.5,7.6L45.5,3.6L41.5,3.6zM41.5,7.6L45.5,7.6L45.5,11.6L41.5,11.6L41.5,7.6zM83.1,7.6L79.1,7.6L79.1,11.6L83.1,11.6L83.1,7.6z" fill="#ffffff"/><path d="M0,0L0,15.1L-7.6,15.1L-7.6,0L0,0zM83.1,0L83.1,15.1L91.1,15.1L91.1,0L83.1,0zM4,3.6L4,7.6L0,7.6L0,3.6L4,3.6zM41.5,3.6L41.5,7.6L45.5,7.6L45.5,3.6L41.5,3.6zM4,5.6L41.5,5.6M45.5,9.6L79.1,9.6M41.5,7.6L45.5,7.6L45.5,11.6L41.5,11.6L41.5,7.6zM83.1,7.6L79.1,7.6L79.1,11.6L83.1,11.6L83.1,7.6z" fill="none" stroke="#000000"/></g><g transform="translate(562.42,94.35)" id="shape147"><path d="M0,15.1L70.2,15.1L70.2,0L0,0L0,15.1zM0,0L0,15.1L-7.6,15.1L-7.6,0L0,0zM70.2,0L70.2,15.1L78.2,15.1L78.2,0L70.2,0zM4,3.6L4,7.6L0,7.6L0,3.6L4,3.6zM35.1,3.6L35.1,7.6L39.1,7.6L39.1,3.6L35.1,3.6zM35.1,7.6L39.1,7.6L39.1,11.6L35.1,11.6L35.1,7.6zM70.2,7.6L66.2,7.6L66.2,11.6L70.2,11.6L70.2,7.6z" fill="#ffffff"/><path d="M0,0L0,15.1L-7.6,15.1L-7.6,0L0,0zM70.2,0L70.2,15.1L78.2,15.1L78.2,0L70.2,0zM4,3.6L4,7.6L0,7.6L0,3.6L4,3.6zM35.1,3.6L35.1,7.6L39.1,7.6L39.1,3.6L35.1,3.6zM4,5.6L35.1,5.6M39.1,9.6L66.2,9.6M35.1,7.6L39.1,7.6L39.1,11.6L35.1,11.6L35.1,7.6zM70.2,7.6L66.2,7.6L66.2,11.6L70.2,11.6L70.2,7.6z" fill="none" stroke="#000000"/></g><g transform="matrix(-1,0,0,-1,702,639.1)" id="shape148"><path d="M0,15.1L69.2,15.1L69.2,0L0,0L0,15.1zM0,0L0,15.1L-7.6,15.1L-7.6,0L0,0zM69.2,0L69.2,15.1L77.2,15.1L77.2,0L69.2,0zM6,4.6L6,10.6L0,10.6L0,4.6L6,4.6zM63.2,4.6L63.2,10.6L69.2,10.6L69.2,4.6L63.2,4.6z" fill="#ffffff"/><path d="M0,0L0,15.1L-7.6,15.1L-7.6,0L0,0zM69.2,0L69.2,15.1L77.2,15.1L77.2,0L69.2,0zM6,4.6L6,10.6L0,10.6L0,4.6L6,4.6zM63.2,4.6L63.2,10.6L69.2,10.6L69.2,4.6L63.2,4.6zM6,7.6L63.2,7.6" fill="none" stroke="#000000"/></g><g transform="matrix(-1,0,0,-1,471.1,639.1)" id="shape149"><path d="M0,15.1L22,15.1L22,0L0,0L0,15.1zM0,0L0,15.1L-7.6,15.1L-7.6,0L0,0zM22,0L22,15.1L30,15.1L30,0L22,0zM6,4.6L6,10.6L0,10.6L0,4.6L6,4.6zM16,4.6L16,10.6L22,10.6L22,4.6L16,4.6z" fill="#ffffff"/><path d="M0,0L0,15.1L-7.6,15.1L-7.6,0L0,0zM22,0L22,15.1L30,15.1L30,0L22,0zM6,4.6L6,10.6L0,10.6L0,4.6L6,4.6zM16,4.6L16,10.6L22,10.6L22,4.6L16,4.6zM6,7.6L16,7.6" fill="none" stroke="#000000"/></g><g transform="matrix(-1,0,0,-1,548,639.1)" id="shape150"><path d="M0,15.1L44.6,15.1L44.6,0L0,0L0,15.1zM0,0L0,15.1L-7.6,15.1L-7.6,0L0,0zM44.6,0L44.6,15.1L52.6,15.1L52.6,0L44.6,0zM6,4.6L6,10.6L0,10.6L0,4.6L6,4.6zM38.6,4.6L38.6,10.6L44.6,10.6L44.6,4.6L38.6,4.6z" fill="#ffffff"/><path d="M0,0L0,15.1L-7.6,15.1L-7.6,0L0,0zM44.6,0L44.6,15.1L52.6,15.1L52.6,0L44.6,0zM6,4.6L6,10.6L0,10.6L0,4.6L6,4.6zM38.6,4.6L38.6,10.6L44.6,10.6L44.6,4.6L38.6,4.6zM6,7.6L38.6,7.6" fill="none" stroke="#000000"/></g><g transform="matrix(-1,0,0,-1,349,686.1)" id="shape151"><path d="M0,15.1L81.6,15.1L81.6,0L0,0L0,15.1zM0,0L0,15.1L-7.6,15.1L-7.6,0L0,0zM81.6,0L81.6,15.1L89.6,15.1L89.6,0L81.6,0zM6,4.6L6,10.6L0,10.6L0,4.6L6,4.6zM75.6,4.6L75.6,10.6L81.6,10.6L81.6,4.6L75.6,4.6z" fill="#ffffff"/><path d="M0,0L0,15.1L-7.6,15.1L-7.6,0L0,0zM81.6,0L81.6,15.1L89.6,15.1L89.6,0L81.6,0zM6,4.6L6,10.6L0,10.6L0,4.6L6,4.6zM75.6,4.6L75.6,10.6L81.6,10.6L81.6,4.6L75.6,4.6zM6,7.6L75.6,7.6" fill="none" stroke="#000000"/></g><g transform="matrix(-0,-1,1,-0,238.5,658)" id="shape152"><path d="M0,15.1L133,15.1L133,0L0,0L0,15.1zM0,0L0,15.1L-7.6,15.1L-7.6,0L0,0zM133,0L133,15.1L141,15.1L141,0L133,0zM6,4.6L6,10.6L0,10.6L0,4.6L6,4.6zM127,4.6L127,10.6L133,10.6L133,4.6L127,4.6z" fill="#ffffff"/><path d="M0,0L0,15.1L-7.6,15.1L-7.6,0L0,0zM133,0L133,15.1L141,15.1L141,0L133,0zM6,4.6L6,10.6L0,10.6L0,4.6L6,4.6zM127,4.6L127,10.6L133,10.6L133,4.6L127,4.6zM6,7.6L127,7.6" fill="none" stroke="#000000"/></g><g transform="matrix(-0,-1,1,-0,238.5,445)" id="shape153"><path d="M0,15.1L155,15.1L155,0L0,0L0,15.1zM0,0L0,15.1L-7.6,15.1L-7.6,0L0,0zM155,0L155,15.1L163,15.1L163,0L155,0zM6,4.6L6,10.6L0,10.6L0,4.6L6,4.6zM149,4.6L149,10.6L155,10.6L155,4.6L149,4.6z" fill="#ffffff"/><path d="M0,0L0,15.1L-7.6,15.1L-7.6,0L0,0zM155,0L155,15.1L163,15.1L163,0L155,0zM6,4.6L6,10.6L0,10.6L0,4.6L6,4.6zM149,4.6L149,10.6L155,10.6L155,4.6L149,4.6zM6,7.6L149,7.6" fill="none" stroke="#000000"/></g><g transform="matrix(0,1,-1,0,371.6,291)" id="shape154"><path d="M0,7.6L67.4,7.6L67.4,0L0,0L0,7.6zM0,0L0,7.6L-7.6,7.6L-7.6,0L0,0zM67.4,0L67.4,7.6L75.4,7.6L75.4,0L67.4,0zM4,1.8L4,5.8L0,5.8L0,1.8L4,1.8zM63.4,1.8L63.4,5.8L67.4,5.8L67.4,1.8L63.4,1.8z" fill="#ffffff"/><path d="M0,0L0,7.6L-7.6,7.6L-7.6,0L0,0zM67.4,0L67.4,7.6L75.4,7.6L75.4,0L67.4,0zM4,1.8L4,5.8L0,5.8L0,1.8L4,1.8zM63.4,1.8L63.4,5.8L67.4,5.8L67.4,1.8L63.4,1.8zM4,3.8L63.4,3.8" fill="none" stroke="#000000"/></g><g transform="matrix(0,1,-1,0,371.6,163)" id="shape155"><path d="M0,7.6L90,7.6L90,0L0,0L0,7.6zM0,0L0,7.6L-7.6,7.6L-7.6,0L0,0zM90,0L90,7.6L98,7.6L98,0L90,0zM4,1.8L4,5.8L0,5.8L0,1.8L4,1.8zM86,1.8L86,5.8L90,5.8L90,1.8L86,1.8z" fill="#ffffff"/><path d="M0,0L0,7.6L-7.6,7.6L-7.6,0L0,0zM90,0L90,7.6L98,7.6L98,0L90,0zM4,1.8L4,5.8L0,5.8L0,1.8L4,1.8zM86,1.8L86,5.8L90,5.8L90,1.8L86,1.8zM4,3.8L86,3.8" fill="none" stroke="#000000"/></g><g transform="matrix(-0,-1,1,-0,238.5,255)" id="shape156"><path d="M0,15.1L135.5,15.1L135.5,0L0,0L0,15.1zM0,0L0,15.1L-7.6,15.1L-7.6,0L0,0zM135.5,0L135.5,15.1L143.5,15.1L143.5,0L135.5,0zM6,4.6L6,10.6L0,10.6L0,4.6L6,4.6zM129.5,4.6L129.5,10.6L135.5,10.6L135.5,4.6L129.5,4.6z" fill="#ffffff"/><path d="M0,0L0,15.1L-7.6,15.1L-7.6,0L0,0zM135.5,0L135.5,15.1L143.5,15.1L143.5,0L135.5,0zM6,4.6L6,10.6L0,10.6L0,4.6L6,4.6zM129.5,4.6L129.5,10.6L135.5,10.6L135.5,4.6L129.5,4.6zM6,7.6L129.5,7.6" fill="none" stroke="#000000"/></g><g transform="translate(266.58,94.35)" id="shape157"><path d="M0,15.1L81.6,15.1L81.6,0L0,0L0,15.1zM0,0L0,15.1L-7.6,15.1L-7.6,0L0,0zM81.6,0L81.6,15.1L89.6,15.1L89.6,0L81.6,0zM6,4.6L6,10.6L0,10.6L0,4.6L6,4.6zM75.6,4.6L75.6,10.6L81.6,10.6L81.6,4.6L75.6,4.6z" fill="#ffffff"/><path d="M0,0L0,15.1L-7.6,15.1L-7.6,0L0,0zM81.6,0L81.6,15.1L89.6,15.1L89.6,0L81.6,0zM6,4.6L6,10.6L0,10.6L0,4.6L6,4.6zM75.6,4.6L75.6,10.6L81.6,10.6L81.6,4.6L75.6,4.6zM6,7.6L75.6,7.6" fill="none" stroke="#000000"/></g><g transform="translate(850.44,94.35)" id="shape158"><path d="M0,15.1L81.6,15.1L81.6,0L0,0L0,15.1zM0,0L0,15.1L-7.6,15.1L-7.6,0L0,0zM81.6,0L81.6,15.1L89.6,15.1L89.6,0L81.6,0zM6,4.6L6,10.6L0,10.6L0,4.6L6,4.6zM75.6,4.6L75.6,10.6L81.6,10.6L81.6,4.6L75.6,4.6z" fill="#ffffff"/><path d="M0,0L0,15.1L-7.6,15.1L-7.6,0L0,0zM81.6,0L81.6,15.1L89.6,15.1L89.6,0L81.6,0zM6,4.6L6,10.6L0,10.6L0,4.6L6,4.6zM75.6,4.6L75.6,10.6L81.6,10.6L81.6,4.6L75.6,4.6zM6,7.6L75.6,7.6" fill="none" stroke="#000000"/></g><g transform="translate(863.75,585.5)" id="shape159"><text class="st1"><tspan x="14.3" y="12.5">Storage</tspan></text></g><g transform="matrix(0,1,-1,0,974.1,290.6)" id="shape160"><path d="M0,15.1L155,15.1L155,0L0,0L0,15.1zM0,0L0,15.1L-7.6,15.1L-7.6,0L0,0zM155,0L155,15.1L163,15.1L163,0L155,0zM6,4.6L6,10.6L0,10.6L0,4.6L6,4.6zM149,4.6L149,10.6L155,10.6L155,4.6L149,4.6z" fill="#ffffff"/><path d="M0,0L0,15.1L-7.6,15.1L-7.6,0L0,0zM155,0L155,15.1L163,15.1L163,0L155,0zM6,4.6L6,10.6L0,10.6L0,4.6L6,4.6zM149,4.6L149,10.6L155,10.6L155,4.6L149,4.6zM6,7.6L149,7.6" fill="none" stroke="#000000"/></g><g transform="matrix(0,1,-1,0,974.1,123)" id="shape161"><path d="M0,15.1L142,15.1L142,0L0,0L0,15.1zM0,0L0,15.1L-7.6,15.1L-7.6,0L0,0zM142,0L142,15.1L150,15.1L150,0L142,0zM6,4.6L6,10.6L0,10.6L0,4.6L6,4.6zM136,4.6L136,10.6L142,10.6L142,4.6L136,4.6z" fill="#ffffff"/><path d="M0,0L0,15.1L-7.6,15.1L-7.6,0L0,0zM142,0L142,15.1L150,15.1L150,0L142,0zM6,4.6L6,10.6L0,10.6L0,4.6L6,4.6zM136,4.6L136,10.6L142,10.6L142,4.6L136,4.6zM6,7.6L136,7.6" fill="none" stroke="#000000"/></g><g transform="matrix(0,1,-1,0,830.6,342.4)" id="shape162"><path d="M0,7.6L92.6,7.6L92.6,0L0,0L0,7.6zM0,0L0,7.6L-7.6,7.6L-7.6,0L0,0zM92.6,0L92.6,7.6L100.6,7.6L100.6,0L92.6,0zM4,1.8L4,5.8L0,5.8L0,1.8L4,1.8zM88.6,1.8L88.6,5.8L92.6,5.8L92.6,1.8L88.6,1.8z" fill="#ffffff"/><path d="M0,0L0,7.6L-7.6,7.6L-7.6,0L0,0zM92.6,0L92.6,7.6L100.6,7.6L100.6,0L92.6,0zM4,1.8L4,5.8L0,5.8L0,1.8L4,1.8zM88.6,1.8L88.6,5.8L92.6,5.8L92.6,1.8L88.6,1.8zM4,3.8L88.6,3.8" fill="none" stroke="#000000"/></g><g transform="matrix(0,1,-1,0,830.6,162)" id="shape163"><path d="M0,7.6L92.6,7.6L92.6,0L0,0L0,7.6zM0,0L0,7.6L-7.6,7.6L-7.6,0L0,0zM92.6,0L92.6,7.6L100.6,7.6L100.6,0L92.6,0zM4,1.8L4,5.8L0,5.8L0,1.8L4,1.8zM88.6,1.8L88.6,5.8L92.6,5.8L92.6,1.8L88.6,1.8z" fill="#ffffff"/><path d="M0,0L0,7.6L-7.6,7.6L-7.6,0L0,0zM92.6,0L92.6,7.6L100.6,7.6L100.6,0L92.6,0zM4,1.8L4,5.8L0,5.8L0,1.8L4,1.8zM88.6,1.8L88.6,5.8L92.6,5.8L92.6,1.8L88.6,1.8zM4,3.8L88.6,3.8" fill="none" stroke="#000000"/></g><g transform="translate(452.17,347.44)" id="shape164"><path d="M0,7.6L293.8,7.6L293.8,0L0,0L0,7.6zM0,0L0,7.6L-7.6,7.6L-7.6,0L0,0zM293.8,0L293.8,7.6L301.8,7.6L301.8,0L293.8,0zM4,1.8L4,5.8L0,5.8L0,1.8L4,1.8zM289.8,1.8L289.8,5.8L293.8,5.8L293.8,1.8L289.8,1.8z" fill="#ffffff"/><path d="M0,0L0,7.6L-7.6,7.6L-7.6,0L0,0zM293.8,0L293.8,7.6L301.8,7.6L301.8,0L293.8,0zM4,1.8L4,5.8L0,5.8L0,1.8L4,1.8zM289.8,1.8L289.8,5.8L293.8,5.8L293.8,1.8L289.8,1.8zM4,3.8L31.4,1.9M31.4,1.9L60.8,3.8M60.8,3.8L90.1,1.9M90.1,1.9L119.5,3.8M119.5,3.8L148.9,1.9" fill="none" stroke="#000000"/></g><g transform="translate(275.61,581.78)" id="shape165"><text class="st1"><tspan x="8.3" y="6.5">Reference</tspan><tspan x="20.3" y="18.5">Area</tspan></text></g><path d="M0,0L8,0L8,8L0,8L0,0z" fill="#daedd1" transform="translate(302.86,261)" id="shape166" stroke="#00b050"/><path d="M0,0L8,0L8,8L0,8L0,0z" fill="#daedd1" transform="translate(302.86,277.56)" id="shape167" stroke="#00b050"/><path d="M0,0L8,0L8,8L0,8L0,0z" fill="#daedd1" transform="translate(355.63,586.78)" id="shape168" stroke="#00b050"/><path d="M0,0L8,0L8,8L0,8L0,0z" fill="#daedd1" transform="translate(703.56,565)" id="shape169" stroke="#00b050"/><path d="M0,0L8,0L8,8L0,8L0,0z" fill="#daedd1" transform="translate(896,446.56)" id="shape170" stroke="#00b050"/><path d="M0,0L8,0L8,8L0,8L0,0z" fill="#daedd1" transform="translate(896,264)" id="shape171" stroke="#00b050"/><path d="M0,0L8,0L8,8L0,8L0,0z" fill="#daedd1" transform="translate(408,227)" id="shape172" stroke="#00b050"/><path d="M0,0L8,0L8,8L0,8L0,0z" fill="#daedd1" transform="translate(779,227)" id="shape173" stroke="#00b050"/><g transform="matrix(0,1,-1,0,712,514)" id="shape174"><path d="M0,0L110,0L110,-7.6L0,-7.6L0,0z" fill="#808080"/><path d="M0,0L110,0M110,-7.6L0,-7.6" fill="none" stroke="#808080"/></g><g transform="matrix(-1,0,0,-1,750.1,514)" id="shape175"><path d="M0,0L24.6,0L24.6,7.6L0,7.6L0,0zM0,0L0,7.6L-4,7.6L-4,0L0,0zM24.6,0L24.6,7.6L28.6,7.6L28.6,0L24.6,0zM24.6,0L24.6,-24.6L20.6,-24.6L20.6,0L24.6,0z" fill="#ffffff"/><path d="M0,0C0,-13.6,11,-24.6,24.6,-24.6M0,0L0,7.6L-4,7.6L-4,0L0,0zM24.6,0L24.6,7.6L28.6,7.6L28.6,0L24.6,0zM24.6,0L24.6,-24.6L20.6,-24.6L20.6,0L24.6,0z" fill="none" stroke="#000000"/></g><g transform="translate(706.53,577.88)" id="shape176"><text class="st1"><tspan x="27.3" y="6.5">IT</tspan><tspan x="18.3" y="18.5">Room</tspan></text></g><path d="M0,0L8,0L8,8L0,8L0,0z" fill="#cbe3f8" transform="translate(733.78,559.5)" id="shape177" stroke="#00aeee"/><path d="M0,0L8,0L8,8L0,8L0,0z" fill="#cbe3f8" transform="translate(535,680)" id="shape178" stroke="#00aeee"/><path d="M0,0L8,0L8,8L0,8L0,0z" fill="#daedd1" transform="translate(676,680)" id="shape179" stroke="#00b050"/><g transform="translate(539,674.5)" id="shape180"><text class="st1"><tspan x="11.3" y="12.5">Gateway</tspan></text></g><g transform="translate(676.28,674.5)" id="shape181"><text class="st1"><tspan x="15.3" y="12.5">Sensor</tspan></text></g></g></svg>