<?xml version="1.0" encoding="UTF-8" standalone="no"?>
<!-- Created with Inkscape (http://www.inkscape.org/) -->

<svg
   xmlns:dc="http://purl.org/dc/elements/1.1/"
   xmlns:cc="http://creativecommons.org/ns#"
   xmlns:rdf="http://www.w3.org/1999/02/22-rdf-syntax-ns#"
   xmlns:svg="http://www.w3.org/2000/svg"
   xmlns="http://www.w3.org/2000/svg"
   xmlns:sodipodi="http://sodipodi.sourceforge.net/DTD/sodipodi-0.dtd"
   xmlns:inkscape="http://www.inkscape.org/namespaces/inkscape"
   width="263.4494mm"
   height="263.4494mm"
   viewBox="0 0 263.4494 263.4494"
   version="1.1"
   id="svg2346"
   inkscape:version="0.92.5 (2060ec1f9f, 2020-04-08)"
   sodipodi:docname="government-guidelines.svg">
  <defs
     id="defs2340" />
  <sodipodi:namedview
     id="base"
     pagecolor="#ffffff"
     bordercolor="#666666"
     borderopacity="1.0"
     inkscape:pageopacity="0.0"
     inkscape:pageshadow="2"
     inkscape:zoom="0.7"
     inkscape:cx="1067.3825"
     inkscape:cy="310.43495"
     inkscape:document-units="mm"
     inkscape:current-layer="layer2"
     showgrid="false"
     inkscape:window-width="2800"
     inkscape:window-height="1672"
     inkscape:window-x="80"
     inkscape:window-y="54"
     inkscape:window-maximized="1" />
  <metadata
     id="metadata2343">
    <rdf:RDF>
      <cc:Work
         rdf:about="">
        <dc:format>image/svg+xml</dc:format>
        <dc:type
           rdf:resource="http://purl.org/dc/dcmitype/StillImage" />
        <dc:title></dc:title>
      </cc:Work>
    </rdf:RDF>
  </metadata>
  <g
     inkscape:label="Layer 1"
     inkscape:groupmode="layer"
     id="layer1"
     transform="translate(26.724701,-16.775299)">
    <rect
       style="opacity:1;fill:#1d70b8;fill-opacity:1;stroke:none;stroke-width:0.26458332;stroke-linecap:round;stroke-linejoin:miter;stroke-miterlimit:3.70588231;stroke-dasharray:none;stroke-dashoffset:0;stroke-opacity:1;paint-order:normal"
       id="rect2904"
       width="263.4494"
       height="263.4494"
       x="-26.724701"
       y="16.775299"
       ry="0" />
  </g>
  <g
     inkscape:groupmode="layer"
     id="layer2"
     inkscape:label="Layer 2"
     transform="translate(26.724701,-16.775299)">
    <g
       id="g2958"
       transform="translate(0,26.151503)">
      <path
         style="fill:#ffffff;fill-opacity:1;stroke-width:0.26458335"
         d="m -2.4683811,189.89845 c -4.0734611,-3.4366 -6.9011713,-7.45903 -8.4154799,-11.97109 -0.749021,-2.23181 -0.879783,-3.02879 -0.989751,-6.03266 -0.20215,-5.5216 0.84208,-9.4131 3.7066896,-13.81364 1.3093406,-2.01135 5.1767392,-6.10673 7.18429087,-7.60775 l 1.02981932,-0.76999 1.80657921,1.92861 1.8065892,1.9286 -1.7518894,1.63723 c -5.8783304,5.49361 -8.3552004,12.67941 -6.8381702,19.83872 0.8253709,3.89522 4.04711161,9.11958 7.3068501,11.84878 l 1.3367517,1.11919 -1.797752,1.81163 c -0.9887491,0.9964 -1.91998721,1.81044 -2.06941843,1.80897 -0.14942131,-9.9e-4 -1.19121977,-0.77843 -2.31510907,-1.7266 z m 191.2808811,-0.062 -1.77752,-1.79125 2.01176,-1.97907 c 4.53158,-4.45793 6.60918,-8.71766 6.90661,-14.16072 0.3305,-6.0481 -1.74524,-11.15544 -6.49078,-15.97046 l -2.46457,-2.50066 1.85084,-1.85082 1.85084,-1.85085 1.0106,0.75235 c 1.94403,1.44726 5.80788,5.57435 7.1774,7.66641 2.7589,4.21446 3.90927,8.52068 3.67716,13.76486 -0.23325,5.26993 -1.8475,9.43861 -5.35016,13.8164 -1.65328,2.06635 -5.77612,5.89122 -6.35297,5.89383 -0.14943,6.6e-4 -1.07157,-0.80483 -2.04921,-1.79002 z M 14.287108,182.47774 C 9.6955593,181.243 5.9314581,177.14066 4.6061167,171.9268 4.367249,170.98711 4.2052566,169.16732 4.2052566,167.42357 c 0,-4.96198 1.3941402,-8.67835 4.3691319,-11.64688 2.7463705,-2.7404 5.5422705,-3.83648 9.7860785,-3.83648 4.186141,0 7.080682,1.11204 9.657291,3.71018 1.265429,1.27601 2.91042,3.94263 2.91042,4.71795 0,0.25019 -5.768511,2.30652 -5.93727,2.11647 -0.0457,-0.0515 -0.32724,-0.57795 -0.625629,-1.16995 -1.606579,-3.18747 -5.545042,-4.57659 -8.952151,-3.15749 -3.092448,1.28805 -5.174699,5.87829 -4.7411,10.45158 0.4708,4.96578 2.907169,8.04825 6.802981,8.60706 2.64844,0.3799 5.84735,-1.35623 6.981251,-3.78892 0.251667,-0.53993 0.493617,-1.02379 0.537667,-1.07525 0.1636,-0.19116 5.934251,1.86698 5.934251,2.11647 0,0.77532 -1.644991,3.44194 -2.91042,4.71795 -2.617289,2.63918 -5.485821,3.72239 -9.77902,3.69277 -1.38826,-0.01 -3.166489,-0.19015 -3.95163,-0.40129 z m 29.78857,0.0216 c -4.84905,-1.33304 -8.479711,-5.18304 -9.883469,-10.48061 -0.603109,-2.276 -0.60173,-6.92995 0.003,-9.21153 1.401538,-5.29023 5.113989,-9.18297 9.997181,-10.48268 1.888078,-0.50253 6.06693,-0.48898 8.044398,0.0261 6.243971,1.62634 10.432481,7.67585 10.432481,15.06769 0,7.42227 -4.170961,13.43678 -10.45285,15.073 -1.89933,0.49472 -6.354161,0.49911 -8.14047,0.008 z m 7.360991,-5.92711 c 1.520089,-0.6724 3.19216,-2.49539 3.896209,-4.24788 0.503731,-1.25384 0.589152,-1.96518 0.589152,-4.90605 0,-4.06521 -0.478972,-5.64472 -2.280111,-7.51917 -1.57729,-1.64149 -3.077459,-2.24869 -5.515819,-2.23254 -2.46248,0.0163 -4.061541,0.70809 -5.552821,2.40228 -1.72545,1.9602 -2.230369,3.624 -2.230369,7.34943 0,3.72461 0.504948,5.38925 2.228808,7.34766 2.144521,2.43631 5.770463,3.17511 8.864951,1.80627 z M 169.03356,182.294 c -0.9498,-0.32381 -2.34002,-1.03882 -3.08938,-1.5889 -1.29935,-0.9538 -2.98892,-3.09035 -2.98892,-3.77963 0,-0.1782 1.24184,-0.80527 2.75966,-1.3935 l 2.75966,-1.0695 1.14749,1.14749 c 3.16751,3.16751 8.00078,1.7898 9.59421,-2.73481 0.38331,-1.08842 0.55381,-2.67871 0.28718,-2.67871 -0.0663,0 -0.56,0.29822 -1.09712,0.66272 -1.38964,0.94304 -3.34116,1.45394 -5.55366,1.45394 -4.44367,0 -7.95598,-2.1728 -9.69606,-5.99823 -0.79376,-1.74504 -0.83655,-5.66252 -0.084,-7.69105 1.52207,-4.10277 5.12278,-6.58802 9.96823,-6.88017 8.60645,-0.5189 13.96416,6.03115 13.36237,16.33612 -0.20228,3.46379 -0.71816,5.66275 -1.90967,8.14 -1.55581,3.23467 -4.47837,5.62809 -7.8103,6.39624 -2.09848,0.48378 -5.73525,0.3307 -7.64969,-0.322 z m 7.67753,-15.76345 c 1.52021,-0.8153 2.45438,-2.20095 2.59051,-3.8425 0.15649,-1.88703 -0.28066,-3.1057 -1.51361,-4.21959 -2.42183,-2.18798 -6.6327,-1.61973 -8.16208,1.10144 -0.64502,1.14764 -0.784,3.18684 -0.30382,4.45774 0.37182,0.98412 1.51068,2.17865 2.49671,2.61878 1.19143,0.5318 3.79982,0.47003 4.89229,-0.11587 z M 72.265639,178.33238 c -0.61488,-2.21919 -2.530511,-9.00901 -4.256961,-15.08848 l -3.138998,-11.05357 3.570418,0.0734 3.570421,0.0734 2.74935,10.71563 c 1.512139,5.89359 2.818632,10.89422 2.903319,11.1125 0.0847,0.21828 1.42556,-4.60375 2.979718,-10.71563 l 2.825729,-11.1125 3.515709,-0.074 c 3.26581,-0.0687 3.50567,-0.0405 3.374462,0.39687 -0.0777,0.25896 -1.936841,6.84068 -4.131451,14.62605 -2.19461,7.78537 -4.05321,14.36358 -4.130221,14.61824 -0.12585,0.41615 -0.573889,0.46302 -4.426785,0.46302 h -4.28676 z M 94.163604,167.15373 V 151.9402 h 3.175002 3.174994 v 15.21353 15.21355 h -3.174994 -3.175002 z m 12.435416,0.13229 v -15.08125 h 7.08815 c 5.47805,0 7.44637,0.0915 8.6651,0.40259 6.5763,1.67894 10.16671,6.86276 10.16671,14.67866 0,6.53179 -2.59862,11.40774 -7.25759,13.6178 -2.77787,1.31775 -3.93921,1.46346 -11.66395,1.46346 h -6.99842 z m 14.92114,8.73301 c 1.63603,-0.78982 2.79973,-1.94894 3.61567,-3.60143 0.58675,-1.18831 0.63973,-1.61149 0.64247,-5.13158 0.003,-4.38003 -0.31065,-5.45539 -2.12249,-7.26721 -1.70713,-1.70715 -2.91174,-2.08349 -7.06878,-2.20847 l -3.63802,-0.10937 v 9.58505 9.58505 l 3.63802,-0.11339 c 3.14015,-0.0979 3.81525,-0.19898 4.93313,-0.73865 z m 30.05801,-3.57363 v -9.92187 h -2.77812 -2.77813 v -2.74159 -2.7416 l 1.75395,-0.17969 c 1.92772,-0.1975 3.09685,-0.67809 3.41776,-1.40494 0.11481,-0.26005 0.27807,-1.12765 0.36279,-1.92801 l 0.15404,-1.45521 3.10886,-0.0745 3.10885,-0.0745 v 15.22194 15.22195 h -3.175 -3.175 z m -16.66875,-3.57188 v -2.64582 h 4.63021 4.63021 v 2.64582 2.64583 h -4.63021 -4.63021 z M -1.6466417,137.41337 c -4.6852023,-1.49877 -8.0311295,-5.18941 -9.4049003,-10.37379 -0.291149,-1.09874 -0.44783,-2.70828 -0.44783,-4.60044 0,-3.26231 0.440419,-5.34367 1.6732808,-7.90772 1.5629192,-3.25048 4.731217,-5.98821 8.1531596,-7.04514 2.06218864,-0.63695 6.1010882,-0.70613 8.2247896,-0.14089 3.3345798,0.88753 6.29575,3.12251 7.74377,5.84471 1.32808,2.49669 1.424839,2.32423 -1.931411,3.44258 -1.72379,0.57439 -3.0107997,0.87802 -3.0626287,0.72252 -0.3014521,-0.90435 -1.7930589,-2.81669 -2.7217008,-3.4894 -1.9873407,-1.43962 -5.075651,-1.62533 -7.362509,-0.44276 -1.2164909,0.62907 -2.8431223,2.61982 -3.4931624,4.27508 -0.5224272,1.33033 -0.6149891,2.04388 -0.6149891,4.74102 0,2.69715 0.092602,3.4107 0.6149891,4.74102 0.6500401,1.65527 2.2766715,3.64601 3.4931624,4.27509 2.286858,1.18258 5.3751683,0.99685 7.362509,-0.44277 0.9031987,-0.65426 2.4018997,-2.55804 2.7085211,-3.44059 0.0419,-0.12067 1.4209894,0.2017 3.0645904,0.71638 3.377168,1.05753 3.279529,0.88665 1.942629,3.39993 -1.44802,2.72219 -4.4091902,4.95716 -7.74377,5.8447 -2.0218889,0.53815 -6.33936055,0.47519 -8.1984997,-0.11953 z m 27.0942507,0.1341 c -1.73534,-0.56419 -3.286621,-1.57985 -4.66695,-3.05553 -4.13749,-4.42331 -4.001702,-12.61315 0.28012,-16.89497 4.18799,-4.18799 11.54998,-4.21607 15.706131,-0.0599 3.76892,3.76892 4.45404,10.84599 1.501829,15.51351 -0.95929,1.51667 -2.940899,3.23124 -4.648382,4.022 -1.269838,0.58807 -1.930259,0.70634 -4.279678,0.76639 -1.816389,0.0464 -3.164101,-0.0545 -3.89307,-0.29148 z m 5.7554,-5.72084 c 0.576118,-0.29392 1.368701,-1.01976 1.761269,-1.61299 0.605891,-0.91555 0.73058,-1.42995 0.824911,-3.40301 0.160541,-3.3578 -0.632511,-5.20799 -2.68789,-6.27086 -1.055699,-0.54593 -3.259292,-0.54593 -4.314981,0 -2.060829,1.06568 -2.84852,2.91135 -2.686739,6.29531 0.0994,2.07785 0.20212,2.47557 0.89077,3.44701 0.428149,0.60397 1.19332,1.31881 1.700371,1.58854 1.226707,0.65252 3.184398,0.63343 4.512289,-0.044 z m 35.57621,5.7337 c -2.882211,-0.95217 -5.125799,-2.78348 -6.33601,-5.17172 -3.144081,-6.20454 -1.073109,-13.98035 4.447271,-16.69804 7.216808,-3.55282 15.288684,0.75031 16.284534,8.6813 0.70726,5.63264 -1.676863,10.44268 -6.275146,12.66026 -1.298327,0.62614 -1.889259,0.73678 -4.28419,0.80209 -1.788617,0.0488 -3.155078,-0.0488 -3.836459,-0.27389 z m 5.608751,-5.75389 c 1.685909,-0.81614 2.519118,-2.37648 2.671119,-5.00217 0.242631,-4.19143 -1.52598,-6.64083 -4.81643,-6.6704 -2.12267,-0.0191 -3.701358,1.0033 -4.581078,2.96673 -0.521081,1.16299 -0.585352,4.54022 -0.112151,5.8937 1.034129,2.95797 4.009669,4.18158 6.83854,2.81214 z m 40.39841,5.69802 c -2.39045,-0.88084 -4.42311,-3.38017 -4.7454,-5.83488 -0.2847,-2.16844 0.38841,-4.02922 1.97286,-5.45377 1.59669,-1.43557 2.86094,-1.86007 7.37234,-2.47553 2.50956,-0.34236 3.50033,-0.57776 3.50033,-0.83167 0,-0.75815 -0.78267,-2.1698 -1.44286,-2.60237 -1.08249,-0.70928 -3.82582,-0.58542 -6.09777,0.27532 -1.01865,0.38591 -2.03086,0.75955 -2.24936,0.83027 -0.56953,0.18437 -2.83564,-4.37805 -2.33241,-4.69588 0.19164,-0.12102 1.31094,-0.57005 2.48732,-0.99784 5.76457,-2.09625 11.2093,-1.52874 13.8232,1.4408 1.54,1.74953 1.67661,2.44851 1.8259,9.34247 l 0.13381,6.1789 0.89444,0.52774 c 0.53456,0.31539 0.8203,0.65037 0.71018,0.83255 -1.67266,2.76706 -2.5461,3.87671 -3.05153,3.87671 -0.87211,0 -2.82812,-1.04534 -3.29805,-1.76255 l -0.42178,-0.64371 -0.68899,0.64375 c -1.30788,1.22203 -2.39855,1.593 -4.92231,1.6742 -1.64056,0.0528 -2.71989,-0.0482 -3.46992,-0.32451 z m 6.80963,-5.03258 c 0.80126,-0.71402 1.2905,-2.00662 1.2905,-3.40966 0,-0.96565 -0.0902,-1.19911 -0.46303,-1.19906 -1.05053,9e-5 -4.71908,0.83442 -5.27731,1.20017 -1.22362,0.80175 -0.9848,2.916 0.41905,3.70986 0.95304,0.53892 3.28336,0.36473 4.03079,-0.30131 z m 64.74747,4.57988 c -1.81381,-0.93626 -3.13684,-2.52252 -3.65254,-4.37925 -0.15766,-0.56764 -0.27085,-4.47242 -0.27171,-9.37347 l -9.9e-4,-8.40052 h 3.03141 3.03143 l 0.0774,7.8005 0.0774,7.8005 0.86499,0.8646 c 0.76352,0.76318 1.03282,0.86462 2.29571,0.86462 1.6386,0 2.59794,-0.55887 3.45389,-2.01204 0.48806,-0.8286 0.53552,-1.45848 0.61087,-8.10829 l 0.0817,-7.20989 h 3.02715 3.02716 v 11.37708 11.37708 h -3.04271 -3.04271 v -0.97216 -0.97216 l -0.59531,0.55887 c -1.18154,1.1092 -2.83352,1.63803 -5.13626,1.64423 -1.9275,0.005 -2.33998,-0.0873 -3.83646,-0.8597 z m 24.25241,0.36808 c -0.87313,-0.25285 -1.88516,-0.61305 -2.24896,-0.80045 -1.23102,-0.63412 -3.17398,-2.00801 -3.17449,-2.24473 -2.7e-4,-0.12944 0.6748,-1.08194 1.50018,-2.11666 0.82538,-1.03475 1.53759,-1.92881 1.58271,-1.98681 0.0451,-0.058 0.53065,0.20433 1.07899,0.58295 3.10417,2.1434 6.88,2.66746 7.90858,1.09764 0.38753,-0.59145 0.38833,-0.70553 0.009,-1.28447 -0.43645,-0.66612 -1.22384,-1.00228 -4.95337,-2.11479 -4.13566,-1.23364 -6.33285,-3.61018 -6.33285,-6.84977 0,-1.91444 0.55278,-3.14373 2.12646,-4.72886 1.23045,-1.23943 1.79384,-1.59169 3.27936,-2.05053 3.15887,-0.97568 6.97598,-0.5963 10.157,1.00946 2.42803,1.22567 2.44777,1.3076 0.81741,3.39156 -0.77101,0.98551 -1.43961,1.84284 -1.48578,1.90517 -0.0462,0.0623 -0.76716,-0.208 -1.60222,-0.60073 -2.65623,-1.24924 -5.30336,-1.41569 -6.39155,-0.40189 -1.25866,1.17261 -0.39115,1.98087 3.34947,3.12069 1.56019,0.47539 3.39116,1.14532 4.06882,1.48872 2.73652,1.3867 4.09011,4.20339 3.46109,7.20223 -0.55973,2.66852 -2.48851,4.60872 -5.45881,5.49109 -1.77244,0.52654 -5.68664,0.47065 -7.69104,-0.10982 z M 43.89276,126.01103 v -11.37709 h 2.91042 2.91042 v 1.22672 1.22669 l 0.72413,-0.72412 c 1.118429,-1.11844 2.672048,-1.78674 4.49361,-1.93295 l 1.661421,-0.13337 v 3.04808 c 0,3.39292 0.01878,3.36211 -2.059011,3.37076 -1.761742,0.007 -3.59262,1.29689 -4.325062,3.04633 -0.224269,0.53565 -0.366599,2.88 -0.43775,7.20989 l -0.10542,6.41614 H 46.779139 43.89276 Z m 41.010424,0 v -11.37709 h 3.042709 3.042713 v 0.93951 0.93951 l 0.9255,-0.70592 c 1.35895,-1.03652 2.662767,-1.41302 4.938361,-1.42607 1.784479,-0.0102 2.228308,0.0921 3.704163,0.8539 1.81381,0.93626 3.13684,2.52253 3.65253,4.37924 0.15766,0.56765 0.27085,4.47244 0.27171,9.37348 l 9.9e-4,8.40052 h -3.03141 -3.031423 l -0.0774,-7.8005 -0.0774,-7.8005 -0.85554,-0.85515 c -0.75645,-0.75612 -1.02378,-0.85516 -2.308349,-0.85516 -1.661401,0 -2.593982,0.53866 -3.45069,1.99314 -0.488061,0.82859 -0.535521,1.45847 -0.610871,8.10828 l -0.0817,7.20989 h -3.027148 -3.027161 z m 50.562646,8.79739 c -1.31986,-4.31412 -5.86467,-19.21696 -6.01372,-19.71951 -0.12963,-0.43708 0.10466,-0.46572 3.24592,-0.39688 l 3.38563,0.0742 1.75077,6.74687 c 0.96292,3.71078 1.84283,7.10406 1.95536,7.54063 0.1699,0.65918 0.54734,-0.48474 2.22617,-6.74687 l 2.02159,-7.54063 3.24114,-0.0743 c 2.35133,-0.0539 3.24115,0.0112 3.24115,0.2371 0,0.17127 -1.5119,5.29464 -3.35978,11.38523 l -3.35979,11.07382 h -3.7726 -3.77261 z m 17.96443,-8.79739 v -11.37709 h 2.91041 2.91042 v 11.37709 11.37708 h -2.91042 -2.91041 z m 10.84791,0 v -11.37709 h 2.91042 2.91042 v 1.22672 1.22669 l 0.72413,-0.72412 c 1.11843,-1.11844 2.67205,-1.78674 4.49361,-1.93295 l 1.66142,-0.13337 v 3.04808 c 0,3.39292 0.0188,3.36211 -2.05902,3.37076 -1.76173,0.007 -3.59261,1.29689 -4.32505,3.04633 -0.22427,0.53565 -0.3666,2.88 -0.43775,7.20989 l -0.10542,6.41614 h -2.88638 -2.88638 z m -9.41515,-13.86983 c -1.87494,-0.81635 -2.6039,-2.7955 -1.7449,-4.73742 0.61938,-1.4002 1.62322,-2.03025 3.23474,-2.03025 2.07738,0 3.52461,1.49498 3.49266,3.6079 -0.0389,2.57588 -2.59726,4.1983 -4.9825,3.15977 z"
         id="path2931"
         inkscape:connector-curvature="0" />
      <path
         id="path2933"
         d="m 15.550209,53.070523 1.648414,5.184051 -0.01177,0.01425 c -0.148519,0.115872 -0.282333,0.248069 -0.395559,0.399236 l -0.01472,0.01148 -4.092363,-1.295206 v 6.039877 l 4.101187,-2.151175 0.0088,0.0087 c 0.120578,0.159254 0.261745,0.299391 0.42203,0.419235 l -2.352779,7.102746 c -0.0013,0.0088 -0.0059,0.01763 -0.0088,0.025 l -0.003,0.0088 c -0.108818,0.355857 -0.169107,0.730831 -0.169107,1.120509 0,1.921925 1.41755,3.507109 3.26301,3.77915 0.02795,0.0044 0.05441,0.01177 0.08235,0.01472 0.157342,0.02057 0.316153,0.03529 0.480847,0.03529 0.161755,0 0.324977,-0.01323 0.48232,-0.03529 0.02646,-0.003 0.05294,-0.0088 0.0794,-0.01472 1.84546,-0.272041 3.265953,-1.857225 3.265953,-3.77915 0,-0.389678 -0.06176,-0.764652 -0.169106,-1.120509 l -0.003,-0.0088 c -0.0013,-0.0088 -0.0044,-0.01766 -0.0088,-0.025 l -2.352779,-7.102746 c 0.160283,-0.119844 0.301449,-0.259833 0.423502,-0.419235 l 0.01029,-0.0087 4.099714,2.151175 v -6.039877 l -4.096774,1.295206 -0.01029,-0.01148 c -0.114697,-0.151167 -0.245571,-0.283364 -0.397033,-0.399236 l -0.01177,-0.01425 1.648413,-5.184051 H 18.511654 Z M 0.80270126,60.839395 c -1.2562383,0.01941 -2.45380136,0.780974 -2.96391216,2.018979 -0.6805434,1.642827 0.1069024,3.536667 1.74326066,4.207209 C 1.2497283,67.753769 3.1426847,66.965593 3.820579,65.316878 4.5043537,63.671845 3.7235258,61.761095 2.0545243,61.07776 1.6463187,60.909686 1.2214937,60.832926 0.80270126,60.839395 Z m 35.44019074,0 c -0.419087,-0.0065 -0.845529,0.07029 -1.254324,0.238365 -1.667533,0.683335 -2.448361,2.594085 -1.766054,4.239118 0.679362,1.648711 2.571879,2.436891 4.24088,1.748705 1.636653,-0.670542 2.423365,-2.564382 1.743999,-4.207209 -0.51026,-1.238005 -1.707234,-1.999568 -2.964501,-2.018979 z M 8.9962497,63.427156 c -1.255795,0.01941 -2.454241,0.780388 -2.964501,2.018979 -0.6793624,1.642973 0.107346,3.534021 1.743999,4.204563 1.667529,0.688187 3.5600463,-0.09705 4.2394123,-1.74547 0.682306,-1.644001 -0.09853,-3.557989 -1.766055,-4.242647 C 9.8388387,63.494652 9.4153397,63.420538 8.9962497,63.427156 Z m 19.0530933,0 c -0.41909,-0.0066 -0.84406,0.0675 -1.252855,0.235425 -1.666061,0.684658 -2.451301,2.598646 -1.768995,4.242647 0.680835,1.648417 2.573351,2.433657 4.242353,1.74547 1.635181,-0.670542 2.423361,-2.56159 1.743998,-4.204563 -0.51026,-1.238591 -1.707237,-1.999568 -2.964501,-2.018979 z m -34.5902527,1.714586 c -1.2560894,0.01984 -2.4532127,0.780832 -2.9640577,2.019422 -0.6795116,1.641061 0.1069024,3.536518 1.7434062,4.20706 1.6685615,0.688187 3.5628442,-0.09999 4.2419126,-1.748407 0.6834837,-1.645476 -0.1005789,-3.555048 -1.7691404,-4.239706 -0.4086489,-0.167784 -0.8334738,-0.244983 -1.2521207,-0.238369 z m 50.1244687,0 c -0.417618,-0.0066 -0.842589,0.07059 -1.251383,0.238369 -1.666061,0.684658 -2.449829,2.59423 -1.766055,4.239706 0.679366,1.648414 2.570411,2.436594 4.239413,1.748407 1.635181,-0.670542 2.424832,-2.565999 1.745466,-4.20706 -0.510256,-1.23859 -1.710174,-1.999568 -2.967441,-2.019422 z m -52.2728493,8.161643 c -1.2565293,0.02057 -2.4532127,0.780828 -2.9639127,2.020447 -0.6801,1.642533 0.107419,3.536522 1.7432612,4.207064 1.6690047,0.688186 3.5619612,-0.09705 4.2420614,-1.746939 0.6828916,-1.644004 -0.098231,-3.557106 -1.766349,-4.240884 -0.4087944,-0.169106 -0.8361196,-0.245571 -1.2550609,-0.239688 z m 54.4241733,0 c -0.417618,-0.0059 -0.842588,0.07058 -1.251386,0.239688 -1.669002,0.683778 -2.45277,2.59688 -1.768995,4.240884 0.677894,1.649886 2.573351,2.435125 4.240884,1.746939 1.636649,-0.670542 2.421889,-2.564531 1.741055,-4.207064 -0.508788,-1.239619 -1.704294,-1.999862 -2.961558,-2.020447 z M 3.0246036,74.16509 c -2.67201834,3.552695 -2.29263264,6.486315 1.0175789,9.789026 -2.1557327,-1.192563 -5.50462,0.06176 -3.53005224,4.089425 1.03213454,-2.50571 3.24330784,-1.941045 3.70503914,0.211748 0.3117444,1.520483 -0.6131932,3.311537 -2.6221704,3.679159 -1.64518214,0.304389 -4.1841239,-0.823472 -6.2181011,-5.204051 1.1465412,0.02795 2.1460292,0.60731 3.446526,1.502835 L -3.3133382,81.11902 c -0.5386396,1.998391 -1.2250635,3.304182 -1.9529544,4.014429 -0.4908456,-1.439609 -0.419821,-2.479242 0.017198,-4.718792 l -4.4086643,1.569008 c 2.3408665,3.195369 4.6082113,7.683293 6.4707272,15.515103 6.5616057,-0.93817 13.9243297,-1.466077 21.7043817,-1.466077 7.780342,0 15.146009,0.527907 21.708789,1.469018 1.863108,-7.834751 4.132067,-12.322675 6.474551,-15.518044 l -4.408516,-1.569008 c 0.438203,2.23955 0.507316,3.279183 0.01617,4.718792 -0.726419,-0.710247 -1.41755,-2.016038 -1.955746,-4.014429 l -2.133676,7.114212 c 1.298439,-0.895525 2.302782,-1.474898 3.44976,-1.502835 -2.033683,4.380579 -4.574682,5.50844 -6.221626,5.204051 -2.008683,-0.367622 -2.933621,-2.158676 -2.621876,-3.679159 0.463203,-2.152793 2.673344,-2.717458 3.705624,-0.211748 1.973394,-4.027665 -1.374905,-5.281988 -3.530638,-4.089425 3.311535,-3.302711 3.689452,-6.236331 1.017576,-9.789026 -3.724741,2.84686 -3.767385,5.664314 -2.091032,9.630215 -2.174849,-2.488062 -5.559908,-1.154333 -4.337934,2.865979 1.56754,-2.426304 3.646807,-0.898469 3.320359,1.407254 -0.274981,2.010154 -2.92774,3.630631 -6.231923,3.343886 -4.733495,-0.429382 -5.0173,-3.693863 -5.134938,-6.399557 1.163154,-0.214691 3.258598,0.863177 5.045241,3.371827 l 0.658778,-7.545066 c -1.943986,2.027799 -3.71004,2.411597 -5.673138,2.473357 0.652897,-2.038094 3.657099,-5.376097 3.657099,-5.376097 h -4.362934 -0.003 -5.052589 c 0,0 3.00273,3.338003 3.657099,5.376097 -1.963101,-0.06176 -3.729156,-0.445558 -5.673138,-2.473357 l 0.658778,7.545066 c 1.788111,-2.50865 3.882083,-3.586518 5.045241,-3.371827 -0.11617,2.705694 -0.399974,5.970175 -5.134942,6.399557 C 9.0605867,91.699169 6.4107707,90.078692 6.1357897,88.068538 5.8093683,85.762815 7.8842237,84.23498 9.4532357,86.661284 10.67521,82.640972 7.2886787,81.307243 5.1152979,83.795305 6.7916547,79.829404 6.7490107,77.01195 3.0242662,74.16509 Z"
         inkscape:connector-curvature="0"
         sodipodi:nodetypes="cccccccccccccsccsccscccccccccccccccccccccsccccsccccccccccccccccccccccccccccccccccccccccccccccccscccccccccccccccccccccccccccccccccc"
         style="fill:#ffffff;fill-opacity:1;stroke-width:1.4704864" />
    </g>
  </g>
</svg>
