<?xml version="1.0" encoding="UTF-8" standalone="no"?>
<svg
   xmlns:dc="http://purl.org/dc/elements/1.1/"
   xmlns:cc="http://creativecommons.org/ns#"
   xmlns:rdf="http://www.w3.org/1999/02/22-rdf-syntax-ns#"
   xmlns:svg="http://www.w3.org/2000/svg"
   xmlns="http://www.w3.org/2000/svg"
   xmlns:sodipodi="http://sodipodi.sourceforge.net/DTD/sodipodi-0.dtd"
   xmlns:inkscape="http://www.inkscape.org/namespaces/inkscape"
   version="1.1"
   x="0px"
   y="0px"
   width="135.33304"
   height="87.807091"
   viewBox="0 0 316.56283 205.42374"
   preserveAspectRatio="xMinYMin meet"
   enable-background="new 0 0 285.375 160"
   xml:space="preserve"
   id="svg46"
   sodipodi:docname="harvard-business-review-logo.svg"
   inkscape:version="0.92.5 (2060ec1f9f, 2020-04-08)"><metadata
     id="metadata52"><rdf:RDF><cc:Work
         rdf:about=""><dc:format>image/svg+xml</dc:format><dc:type
           rdf:resource="http://purl.org/dc/dcmitype/StillImage" /></cc:Work></rdf:RDF></metadata><defs
     id="defs50" /><sodipodi:namedview
     pagecolor="#ffffff"
     bordercolor="#666666"
     borderopacity="1"
     objecttolerance="10"
     gridtolerance="10"
     guidetolerance="10"
     inkscape:pageopacity="0"
     inkscape:pageshadow="2"
     inkscape:window-width="2800"
     inkscape:window-height="1672"
     id="namedview48"
     showgrid="false"
     inkscape:zoom="3.4507465"
     inkscape:cx="69.693771"
     inkscape:cy="42.309688"
     inkscape:window-x="80"
     inkscape:window-y="54"
     inkscape:window-maximized="1"
     inkscape:current-layer="svg46" /><g
     id="g44"
     transform="translate(20.338984,26.44068)"><path
       d="m 37.163,90.951 c 0,7.372 -5.046,12.338 -16.216,12.338 H 0.001 V 57.594 h 20.325 c 9.698,0 14.9,4.4 14.9,11.9 0,5.351 -3.105,9.077 -7.99,10.316 6.433,1.39 9.964,5.69 9.964,11.141 z M 12.565,76.598 h 4.891 c 3.258,0 5.273,-1.239 5.273,-4.344 0,-3.105 -2.015,-4.344 -5.273,-4.344 h -4.891 z m 0,16.219 h 6.596 c 3.183,0 4.965,-1.397 4.965,-4.037 0,-2.64 -1.783,-4.033 -4.965,-4.033 h -6.596 z"
       id="path2"
       inkscape:connector-curvature="0" /><path
       d="m 64.737,96.612 c -1.009,4.732 -4.658,7.604 -10.782,7.604 -6.521,0 -11.096,-4.033 -11.096,-12.492 v -24.28 h 12.564 v 21.647 c 0,3.6 1,5.7 3.9,5.739 3.257,0 5.276,-2.95 5.276,-8.767 v -18.62 h 12.57 v 35.845 h -11.25 z"
       id="path4"
       inkscape:connector-curvature="0" /><path
       d="m 92.779,90.951 c 0.705,3 3,4.5 5.7,4.5 2.251,0 3.798,-0.776 3.798,-2.326 0,-1.55 -1.314,-2.245 -3.875,-2.789 l -4.813,-1.012 c -6.509,-1.395 -9.925,-4.732 -9.925,-10.627 0,-8.691 7.447,-12.104 15.437,-12.104 8.611,0 13.8,3.6 15.1,10.238 l -11.406,1.7 c -0.394,-2.016 -1.63,-3.177 -4.037,-3.177 -1.786,0 -3.028,0.851 -3.028,2.251 0,1.4 1,2.1 2.9,2.404 l 4.807,0.9 c 7.918,1.3 11.3,5.6 11.3,11.642 0,8.45 -7.375,11.71 -16.219,11.71 -8.146,0 -13.574,-2.949 -15.592,-9.31 z"
       id="path6"
       inkscape:connector-curvature="0" /><path
       d="m 126.137,51.93 c 3.726,0 6.9,2.6 6.9,6.592 0,4.034 -3.177,6.599 -6.903,6.599 -3.72,0 -6.903,-2.564 -6.903,-6.599 C 119.234,54.5 122.4,51.9 126.1,51.93 Z m 6.288,15.514 v 35.845 H 119.932 V 67.444 Z"
       id="path8"
       inkscape:connector-curvature="0" /><path
       d="m 152.013,74.347 c 1.856,-5.348 6.049,-7.754 11.399,-7.754 5.512,0 10.5,3.3 10.5,11.478 V 103.29 H 161.419 V 82.881 c 0,-3.643 -1.087,-5.895 -4.27,-5.895 -2.711,0 -5.04,1.633 -5.04,7.14 v 19.163 H 139.617 V 67.444 h 11.25 z"
       id="path10"
       inkscape:connector-curvature="0" /><path
       d="m 202.497,90.336 10.402,3.255 c -2.024,7.677 -8.385,10.626 -15.521,10.626 -10.63,0 -18.387,-6.751 -18.387,-18.464 0,-12.104 6.825,-19.16 18.076,-19.16 10.63,0 16.1,6.8 16.1,16.76 0,1.3 0,2.866 -0.155,4.499 h -21.874 c 0.233,4.4 2.4,6.8 6.1,6.823 2.625,0.025 4.362,-1.175 5.262,-4.339 z M 201.261,81.5 c 0,-3.105 -1.087,-5.816 -4.58,-5.816 -3.022,0 -4.963,2.478 -5.273,5.816 z"
       id="path12"
       inkscape:connector-curvature="0" /><path
       d="m 227.464,90.951 c 0.699,3 3,4.5 5.7,4.5 2.252,0 3.804,-0.776 3.804,-2.326 0,-1.55 -1.319,-2.245 -3.881,-2.789 l -4.808,-1.012 c -6.521,-1.395 -9.931,-4.732 -9.931,-10.627 0,-8.691 7.446,-12.104 15.437,-12.104 8.611,0 13.8,3.6 15.1,10.238 l -11.406,1.7 c -0.388,-2.016 -1.63,-3.177 -4.036,-3.177 -1.786,0 -3.022,0.851 -3.022,2.251 0,1.4 1,2.1 2.9,2.404 l 4.812,0.9 c 7.913,1.3 11.2,5.6 11.2,11.642 0,8.45 -7.369,11.71 -16.213,11.71 -8.146,0 -13.574,-2.949 -15.592,-9.31 z"
       id="path14"
       inkscape:connector-curvature="0" /><path
       d="m 263.515,90.951 c 0.699,3 3,4.5 5.7,4.5 2.246,0 3.798,-0.776 3.798,-2.326 0,-1.55 -1.319,-2.245 -3.881,-2.789 l -4.808,-1.012 c -6.515,-1.395 -9.931,-4.732 -9.931,-10.627 0,-8.691 7.446,-12.104 15.437,-12.104 8.611,0 13.8,3.6 15.1,10.238 l -11.406,1.7 c -0.388,-2.016 -1.63,-3.177 -4.03,-3.177 -1.786,0 -3.027,0.851 -3.027,2.251 0,1.4 1,2.1 2.9,2.404 l 4.807,0.9 c 7.913,1.3 11.3,5.6 11.3,11.642 0,8.45 -7.369,11.71 -16.219,11.71 -8.146,0 -13.574,-2.949 -15.592,-9.31 z"
       id="path16"
       inkscape:connector-curvature="0" /><path
       d="m 25.602,158.628 c -1.475,-1.242 -2.019,-2.95 -2.562,-5.121 l -1.397,-5.667 c -0.773,-3.254 -2.093,-3.875 -5.04,-3.875 h -3.959 v 14.663 H 0.001 V 112.93 h 19.548 c 10.241,0 17.3,4 17.3,14.353 0,7.217 -4.658,10.788 -9.698,11.633 4.186,0.9 6.3,2.7 7.4,6.7 l 2.174,7.838 c 0.541,2 1.2,3.6 2.8,5.198 H 25.602 Z M 12.643,133.72 h 4.891 c 4.422,0 6.36,-1.782 6.36,-5.037 0,-3.26 -1.938,-5.049 -6.36,-5.049 h -4.891 z"
       id="path18"
       inkscape:connector-curvature="0" /><path
       d="m 63.781,145.669 10.396,3.261 c -2.019,7.677 -8.378,10.627 -15.517,10.627 -10.63,0 -18.387,-6.745 -18.387,-18.465 0,-12.104 6.829,-19.16 18.076,-19.16 10.635,0 16.1,6.8 16.1,16.76 0,1.3 0,2.866 -0.155,4.5 H 52.378 c 0.233,4.4 2.4,6.8 6.1,6.822 C 61.142,150 62.9,148.9 63.8,145.669 Z M 62.542,136.8 c 0,-3.105 -1.09,-5.816 -4.58,-5.816 -3.022,0 -4.962,2.479 -5.273,5.816 z"
       id="path20"
       inkscape:connector-curvature="0" /><path
       d="m 76.196,122.783 h 13.191 l 4.114,14.431 c 1.469,5.2 2.3,8.8 2.3,8.772 h 0.155 c 0,0 0.776,-3.577 2.406,-8.772 l 4.658,-14.431 h 12.176 L 102.16,158.628 H 88.689 Z"
       id="path22"
       inkscape:connector-curvature="0" /><path
       d="m 125.396,107.263 c 3.732,0 6.9,2.6 6.9,6.599 0,3.999 -3.171,6.599 -6.903,6.599 -3.72,0 -6.897,-2.564 -6.897,-6.599 0,-4.035 3.18,-6.562 6.904,-6.599 z m 6.295,15.52 v 35.845 h -12.499 v -35.845 z"
       id="path24"
       inkscape:connector-curvature="0" /><path
       d="m 160.838,145.669 10.403,3.261 c -2.024,7.677 -8.379,10.627 -15.526,10.627 -10.624,0 -18.381,-6.745 -18.381,-18.465 0,-12.104 6.825,-19.16 18.076,-19.16 10.624,0 16.1,6.8 16.1,16.76 0,1.3 0,2.866 -0.155,4.5 h -21.886 c 0.232,4.4 2.4,6.8 6.1,6.822 2.63,-0.014 4.431,-1.114 5.231,-4.345 z m -1.235,-8.869 c 0,-3.105 -1.087,-5.816 -4.574,-5.816 -3.034,0 -4.969,2.479 -5.279,5.816 z"
       id="path26"
       inkscape:connector-curvature="0" /><path
       d="m 207.728,122.783 2.562,12.492 c 1.313,6.4 2,11.3 2,11.254 h 0.155 c 0,0 0.776,-4.732 2.252,-11.099 l 2.866,-12.647 h 12.182 l -9.697,35.845 h -14.04 l -2.174,-10.475 c -1.086,-5.272 -1.94,-11.483 -1.94,-11.483 h -0.149 c 0,0 -0.854,6.211 -1.94,11.5 l -2.174,10.475 H 183.68 L 173.983,122.8 h 12.642 l 2.866,12.647 c 1.476,6.4 2.3,11.1 2.3,11.099 h 0.155 c 0,0 0.699,-4.816 2.013,-11.254 l 2.574,-12.492 h 11.195 z"
       id="path28"
       inkscape:connector-curvature="0" /><path
       d="m 79.218,36.155 c 0,1.7 0.5,2.6 1.8,2.64 0.771,0 1.553,-0.311 2.251,-0.699 v 8.844 c -1.708,1.242 -3.338,1.705 -6.21,1.7 -4.808,0 -7.45,-2.167 -8.847,-5.661 -2.009,3.72 -5.192,5.816 -10.313,5.816 -6.596,0 -10.707,-3.878 -10.707,-10.005 0,-7.683 5.509,-11.558 16.291,-11.558 h 3.648 V 24.83 c 0,-2.326 -0.779,-3.959 -3.024,-3.959 -2.174,0 -3.18,1.319 -3.338,4.27 L 48.823,23.275 c 0.696,-7.366 6.438,-12.021 15.673,-12.021 10.235,0 14.7,4.5 14.7,12.337 V 36.155 Z M 67.116,33.597 h -1.63 c -4.5,0 -6.049,1.394 -6.049,3.726 0,1.7 1.2,3 3.3,3.021 2.093,0 4.344,-1.086 4.344,-4.416 v -2.331 z"
       id="path30"
       inkscape:connector-curvature="0" /><path
       d="m 112.522,26.225 c -1.469,-0.543 -2.329,-0.929 -4.342,-0.929 -2.95,0 -6.521,1.162 -6.521,7.527 V 47.949 H 89.167 V 12.104 H 99.88 l 1.236,8.844 c 1.009,-5.972 6.056,-8.844 12.182,-8.844 z"
       id="path32"
       inkscape:connector-curvature="0" /><path
       d="m 116.857,12.104 h 13.197 l 4.103,14.431 c 1.481,5.2 2.3,8.8 2.3,8.766 h 0.155 c 0,0 0.777,-3.565 2.407,-8.766 l 4.652,-14.431 h 12.182 l -13.03,35.845 H 129.35 Z"
       id="path34"
       inkscape:connector-curvature="0" /><path
       d="m 188.863,36.155 c 0,1.7 0.5,2.6 1.8,2.64 0.776,0 1.553,-0.311 2.252,-0.699 v 8.844 c -1.708,1.242 -3.338,1.705 -6.205,1.705 -4.812,0 -7.452,-2.167 -8.85,-5.661 -2.013,3.72 -5.195,5.816 -10.313,5.8 -6.599,0 -10.707,-3.878 -10.707,-10.005 0,-7.683 5.506,-11.558 16.291,-11.558 h 3.643 V 24.83 c 0,-2.326 -0.771,-3.959 -3.021,-3.959 -2.174,0 -3.183,1.319 -3.338,4.27 l -11.949,-1.866 c 0.704,-7.366 6.437,-12.021 15.675,-12.021 10.241,0 14.7,4.5 14.7,12.337 v 12.564 z m -12.104,-2.558 h -1.624 c -4.503,0 -6.056,1.394 -6.056,3.726 0,1.7 1.2,3 3.3,3.021 2.091,0 4.342,-1.086 4.342,-4.416 v -2.331 z"
       id="path36"
       inkscape:connector-curvature="0" /><path
       d="m 222.186,26.225 c -1.476,-0.543 -2.329,-0.929 -4.348,-0.929 -2.944,0 -6.516,1.162 -6.516,7.527 V 47.949 H 198.836 V 12.104 h 10.701 l 1.242,8.844 c 1.009,-5.972 6.049,-8.844 12.183,-8.844 z"
       id="path38"
       inkscape:connector-curvature="0" /><path
       d="m 252.288,0 h 12.564 V 47.949 H 253.53 l -1.164,-6.205 c -1.32,4.804 -5.59,7.133 -11.019,7.133 -8.378,0 -14.35,-6.515 -14.35,-18.154 0,-12.027 5.739,-19.471 15.825,-19.471 4.58,0 8.2,2.1 9.5,5.506 V 0 Z m 0.078,27.463 c 0,-4.577 -2.252,-7.055 -5.895,-7.055 -3.648,0 -6.754,2.717 -6.754,9.85 0,5.9 2.5,9 6.6,9 3.177,0 6.05,-2.401 6.05,-7.289 v -4.506 z"
       id="path40"
       inkscape:connector-curvature="0" /><path
       d="M 0.001,47.949 V 2.254 H 12.724 V 19.237 H 28.393 V 2.254 H 41.116 V 47.949 H 28.393 V 30.258 H 12.724 v 17.691 z"
       id="path42"
       inkscape:connector-curvature="0" /></g></svg>