<?xml version="1.0" encoding="UTF-8" standalone="no"?>
<svg
   xmlns:dc="http://purl.org/dc/elements/1.1/"
   xmlns:cc="http://creativecommons.org/ns#"
   xmlns:rdf="http://www.w3.org/1999/02/22-rdf-syntax-ns#"
   xmlns:svg="http://www.w3.org/2000/svg"
   xmlns="http://www.w3.org/2000/svg"
   id="svg8"
   version="1.1"
   viewBox="0 0 368.14881 105.83333"
   height="105.83333mm"
   width="368.1488mm">
  <defs
     id="defs2" />
  <metadata
     id="metadata5">
    <rdf:RDF>
      <cc:Work
         rdf:about="">
        <dc:format>image/svg+xml</dc:format>
        <dc:type
           rdf:resource="http://purl.org/dc/dcmitype/StillImage" />
        <dc:title></dc:title>
      </cc:Work>
    </rdf:RDF>
  </metadata>
  <g
     transform="translate(328.99045,28.878477)"
     id="layer1">
    <path
       id="path826"
       d="m -284.37984,66.044411 c -4.88416,-1.084994 -8.4507,-4.520714 -9.70746,-9.351403 -0.4525,-1.739266 -0.51225,-4.962906 -0.12257,-6.613304 1.30293,-5.51833 6.17054,-9.346588 12.25414,-9.637594 6.96323,-0.333081 12.56985,3.691209 13.88773,9.968259 0.41726,1.987368 0.4144,3.465671 -0.0107,5.575491 -0.96816,4.804208 -4.27305,8.453725 -8.91621,9.84595 -1.75968,0.527628 -5.48408,0.634849 -7.38486,0.212601 z m 5.51297,-3.810553 c 1.67039,-0.758839 2.99847,-2.744208 3.53779,-5.288667 0.3638,-1.716411 0.4125,-5.205255 0.096,-6.874382 -0.47481,-2.50366 -1.85436,-4.636305 -3.57173,-5.521509 -1.09376,-0.563769 -3.47061,-0.566691 -4.70551,-0.0057 -2.56909,1.166916 -4.07353,5.044086 -3.76963,9.714897 0.27163,4.174881 1.521,6.830608 3.72718,7.92265 1.21084,0.599354 3.42786,0.624333 4.68595,0.0528 z m 50.36944,3.758715 c -2.95256,-0.771753 -5.1384,-2.628369 -6.61035,-5.614732 -1.09925,-2.230198 -1.53724,-4.238019 -1.54223,-7.069888 -0.006,-3.399498 0.80695,-5.90978 2.74245,-8.468519 3.79867,-5.021862 11.35379,-5.980848 15.68267,-1.990628 l 0.97008,0.894189 v -7.192488 -7.192489 h 3.30665 3.30665 v 18.186586 18.186585 h -3.30665 -3.30665 V 64.01458 62.297974 l -1.17465,1.110387 c -2.79812,2.645031 -6.34867,3.556374 -10.06797,2.584212 z m 7.226,-4.09399 c 0.9696,-0.501403 2.16109,-1.736197 2.70605,-2.804391 1.19262,-2.337721 1.67977,-6.841191 1.01091,-9.345153 -1.11594,-4.177629 -4.08696,-6.155859 -7.74653,-5.157962 -1.41579,0.38606 -3.0576,2.230751 -3.62744,4.075697 -1.61798,5.238409 0.0501,11.783339 3.40511,13.360634 1.06163,0.499099 3.16061,0.435504 4.2519,-0.128825 z m 24.1872,4.14745 c -4.21259,-0.832795 -7.83219,-3.925011 -9.28747,-7.934242 -2.36423,-6.513393 0.13154,-13.32586 5.92881,-16.183328 7.86022,-3.874289 17.11742,-0.262299 19.47844,7.600133 0.62642,2.086043 0.53021,5.674789 -0.2132,7.953248 -2.13018,6.528702 -8.59532,10.009566 -15.90658,8.564189 z m 6.0249,-4.121743 c 2.11587,-1.400251 3.10727,-3.814351 3.27995,-7.986826 0.19903,-4.808998 -1.07698,-8.020755 -3.72987,-9.388164 -1.08909,-0.561359 -3.47075,-0.566659 -4.6951,-0.01045 -2.38191,1.082082 -3.84305,4.326187 -3.85204,8.552556 -0.01,4.467509 1.42117,7.894787 3.79918,9.101197 1.39835,0.709409 3.91692,0.579401 5.19788,-0.268317 z M -316.89525,48.316156 V 30.901119 h 3.41687 3.41687 V 46.0015 61.101876 h 7.27464 7.27463 v 2.314657 2.314656 h -10.6915 -10.69151 z m 52.68598,5.0702 V 41.041523 h 3.30665 3.30666 v 1.337418 1.33742 l 0.95229,-0.780327 c 2.14061,-1.754072 5.16485,-2.664276 8.30618,-2.499907 4.15151,0.217225 6.32379,1.678926 7.61569,5.124486 0.37577,1.002198 0.42023,1.967383 0.48988,10.636397 l 0.0766,9.534179 h -3.19733 -3.19733 l -0.067,-8.558395 -0.067,-8.558397 -0.66133,-1.306448 c -0.56624,-1.118578 -0.83568,-1.396121 -1.87378,-1.93002 -1.0883,-0.559728 -1.38434,-0.614415 -2.89151,-0.534154 -2.621,0.139581 -4.33255,1.362696 -5.15035,3.680568 -0.27647,0.783595 -0.33499,2.369507 -0.33499,9.078155 v 8.128691 h -3.30665 -3.30665 z m 87.29561,0 V 41.041523 h 3.19643 3.19644 v 1.3298 1.329803 l 1.15732,-0.863258 c 0.63653,-0.474792 1.48551,-1.029141 1.88662,-1.231885 1.27187,-0.642879 4.01227,-1.225791 5.76273,-1.225791 4.38202,0 6.9774,1.739363 8.20939,5.501735 0.44477,1.358249 0.47783,1.978171 0.5678,10.645748 l 0.0955,9.203514 h -3.31912 -3.31913 l -0.0646,-8.762627 c -0.0631,-8.551171 -0.0763,-8.784566 -0.55094,-9.671782 -0.99024,-1.851177 -2.61568,-2.64314 -5.03123,-2.451372 -2.22195,0.176399 -3.9186,1.320377 -4.82055,3.250305 -0.44137,0.944417 -0.46673,1.391126 -0.52864,9.313736 l -0.0651,8.32174 h -3.18651 -3.18651 z M -265.09104,9.8487796 V -8.7786942 h 3.19643 3.19643 v 1.7001468 1.7001552 l 1.04711,-1.0048478 c 2.27402,-2.1822542 4.01176,-2.8999326 6.99908,-2.8906176 4.11664,0.01283 7.17397,2.0054052 9.04463,5.8946882 1.15502,2.40137698 1.49232,4.17889134 1.35981,7.1657551 -0.26535,5.9804097 -3.39875,10.7626573 -8.08979,12.3467913 -1.17236,0.395899 -1.79768,0.468177 -3.4393,0.397532 -1.70548,-0.0734 -2.21796,-0.19093 -3.41687,-0.783623 -0.77575,-0.383493 -1.80725,-1.095488 -2.29223,-1.582202 -0.48498,-0.486713 -0.95617,-0.888194 -1.0471,-0.892185 -0.0909,-0.0042 -0.16534,3.415129 -0.16534,7.598044 v 7.605304 h -3.19643 -3.19643 z m 14.89619,2.0390964 c 2.04481,-1.384581 3.16906,-4.4487219 3.17635,-8.6571744 0.009,-5.2771123 -2.18241,-8.6220998 -5.61748,-8.5740088 -3.27243,0.04582 -5.31187,2.5306862 -5.90517,7.194884 -0.44083,3.4656044 0.33854,7.0617921 1.93454,8.9263562 1.07077,1.250958 2.33056,1.825996 4.00082,1.826213 1.16246,1.5e-4 1.50178,-0.100656 2.41094,-0.71627 z m 221.933761,16.261951 c -2.081626,-0.377702 -5.377343,-1.474515 -5.981667,-1.990682 -0.03644,-0.03116 0.202499,-0.954398 0.530959,-2.051703 l 0.597226,-1.995105 1.287698,0.650024 c 1.871036,0.9445 3.898984,1.366485 6.692289,1.392564 2.322614,0.02166 2.492973,-0.009 3.903613,-0.703031 2.937916,-1.445429 3.915451,-3.353451 4.088653,-7.980588 l 0.111367,-2.974756 -1.445161,1.351871 c -2.052571,1.920077 -3.495902,2.560278 -6.04209,2.680013 -5.57453,0.26215 -9.42398,-3.107997 -10.777084,-9.4351963 -1.343029,-6.28008496 1.344221,-12.8118723 6.288613,-15.2854535 3.815038,-1.9085902 8.092325,-1.3792008 10.867443,1.3450238 l 1.047106,1.0279104 v -1.4797068 -1.4797058 h 3.207541 3.207562 l -0.07568,13.2817163 c -0.07407,13.0027639 -0.086,13.3156449 -0.567797,14.8972639 -1.490594,4.893229 -4.491358,7.746452 -9.194828,8.742775 -1.861623,0.394341 -5.591791,0.397599 -7.745766,0.0067 z m 7.154646,-15.967074 c 1.642193,-0.846453 2.969528,-2.806432 3.596028,-5.3099644 0.439498,-1.7562435 0.394858,-5.97462736 -0.0796,-7.52239452 -0.530805,-1.73156498 -1.621647,-3.25662048 -2.885957,-4.03473688 -1.441943,-0.8874288 -3.504499,-0.9356858 -4.985483,-0.1166444 -1.247864,0.6901164 -2.322173,2.1005452 -2.816275,3.6973441 -0.602913,1.94854794 -0.548199,6.9151787 0.09885,8.9714309 1.002003,3.1842672 2.62795,4.7306092 4.97823,4.7344502 0.82825,0.0017 1.563473,-0.145914 2.094213,-0.419485 z m -207.390987,4.053205 c -3.2591,-0.89356 -6.20404,-3.191906 -7.67171,-5.987306 -1.5003,-2.8575553 -2.04434,-7.4434681 -1.25148,-10.54906712 1.27453,-4.99226908 4.99872,-8.23934208 10.26247,-8.94773048 6.98839,-0.9404934 11.86706,3.8451834 11.88351,11.6569562 l 0.004,1.8186565 h -7.85592 -7.85592 l 0.11137,1.3874732 c 0.22541,2.8081318 2.41316,5.7094117 4.85123,6.4334387 2.20825,0.655781 4.95011,0.296917 7.45434,-0.975628 l 1.24278,-0.631544 0.84734,1.737913 c 0.46602,0.955856 0.80375,1.777821 0.75049,1.826587 -0.34776,0.318505 -2.59364,1.28755 -4.17502,1.801426 -2.34836,0.763118 -6.60386,0.975377 -8.5973,0.428825 z m 7.27336,-16.14179954 c -0.006,-2.61163646 -0.95951,-4.66186526 -2.49329,-5.35822266 -3.25261,-1.4767398 -6.57302,0.7725924 -7.10941,4.81610258 l -0.15234,1.14833616 h 4.87816 4.87816 l -0.002,-0.60621608 z m 41.3791,16.16018754 c -2.07299,-0.739457 -3.47654,-2.254013 -4.2518,-4.588102 -0.51942,-1.56383 -0.34649,-4.5255655 0.34898,-5.9767848 1.28328,-2.6777736 4.14032,-4.4076639 10.30514,-6.23956772 2.56978,-0.76361888 3.58047,-1.15755938 3.57857,-1.39483838 -0.005,-0.6157641 -0.99007,-2.0784649 -1.74048,-2.5841589 -1.21731,-0.8203504 -2.33801,-1.0249438 -4.05823,-0.7408574 -1.60151,0.264482 -3.19048,0.9611564 -4.27656,1.8750378 l -0.66366,0.5584344 -1.05041,-1.5796788 -1.05042,-1.5796778 0.63555,-0.5178424 c 0.34955,-0.28482 1.43391,-0.9172474 2.4097,-1.4054118 4.3775,-2.1899522 10.48844,-1.8653738 13.41724,0.7126624 2.46044,2.1657732 2.76484,3.514697 2.77917,12.3156859 0.0103,6.3689265 0.16458,8.4455065 0.78167,10.5261695 l 0.14709,0.495995 h -3.32459 c -3.83706,0 -3.73776,0.05624 -3.94544,-2.234008 -0.0645,-0.711195 -0.1873,-1.293082 -0.27291,-1.293082 -0.0856,0 -0.34464,0.210167 -0.5756,0.467034 -0.6673,0.742122 -2.99334,2.33438 -4.29602,2.94078 -1.37293,0.639084 -3.49072,0.743839 -4.89699,0.242211 z m 6.59298,-4.662562 c 0.47158,-0.314406 1.03467,-0.785607 1.2513,-1.047106 0.6945,-0.8383459 1.63766,-2.8652537 1.89317,-4.0685127 0.27801,-1.309255 0.33785,-4.6735707 0.0831,-4.6735707 -0.0907,0 -1.23691,0.3571975 -2.54711,0.7937714 -3.50242,1.1670575 -4.93056,2.4174489 -5.43209,4.7560049 -0.38634,1.8014348 0.0773,3.4475911 1.22547,4.3507081 0.85837,0.675202 2.42039,0.625895 3.52612,-0.111295 z m 50.74812,4.545943 c -6.89175,-1.453418 -11.89761,-6.1457751 -13.64328,-12.7888066 -2.39049,-9.096858 2.29174,-18.1651394 11.01393,-21.3311264 3.76693,-1.367319 8.57695,-1.675893 11.79436,-0.756629 1.73711,0.496321 4.98312,1.880195 4.98312,2.124456 0,0.35988 -2.0204,4.088142 -2.21543,4.088142 -0.12486,0 -0.62789,-0.20451 -1.11785,-0.45447 -1.4132,-0.720961 -4.07432,-1.309388 -5.9055,-1.305822 -3.44548,0.0067 -6.22262,1.147802 -8.43277,3.464912 -2.11615,2.2185558 -3.19881,4.8916144 -3.41675,8.4357804 -0.63898,10.3913145 8.16181,16.8159526 17.73721,12.9482776 l 1.30648,-0.527706 0.85697,1.992997 c 0.47133,1.096154 0.89056,2.072673 0.93162,2.170054 0.12048,0.285803 -2.33291,1.278402 -4.56689,1.847684 -2.61295,0.665862 -6.42647,0.703588 -9.32522,0.09226 z m 23.231682,0.09142 c -2.141442,-0.576397 -3.610322,-1.447911 -5.357052,-3.178442 -2.64045,-2.615959 -3.77551,-5.5450095 -3.76085,-9.705013 0.0207,-5.874305 3.14113,-10.287245 8.521422,-12.0510882 3.634288,-1.1914364 8.12462,-0.6172804 11.259927,1.4397478 2.439956,1.6008238 3.871229,3.468689 4.876253,6.36372068 0.512773,1.47710576 0.594205,2.06100942 0.592354,4.24761972 -0.0024,2.9659178 -0.386085,4.6401773 -1.590919,6.943965 -1.541009,2.946654 -4.300017,5.096111 -7.633725,5.947205 -1.645656,0.420143 -5.333134,0.416019 -6.90741,-0.0075 z m 5.963046,-3.88748 c 1.186064,-0.652473 2.228316,-2.193733 2.860248,-4.2295971 0.706322,-2.2756681 0.711462,-6.8471503 0.0101,-9.07826022 -0.912132,-2.90188108 -2.530436,-4.45175688 -4.869782,-4.66388228 -4.303772,-0.390249 -6.888594,4.2320242 -6.190474,11.0699761 0.30483,2.9856641 1.05807,4.8938445 2.464804,6.2440165 1.504074,1.443595 3.81408,1.708994 5.725044,0.657747 z m 42.048284,3.894287 c -3.259103,-0.89356 -6.204051,-3.191906 -7.67172,-5.987306 -1.500294,-2.8575553 -2.044348,-7.4434681 -1.251479,-10.54906712 1.55567,-6.09345588 7.388405,-9.90472888 13.662733,-8.92759208 5.221534,0.8131764 8.487073,5.3173738 8.487073,11.7063377 v 1.7491366 h -7.855921 -7.855922 l 0.111148,1.3846987 c 0.227674,2.8363347 2.390224,5.7053042 4.851453,6.4362132 2.208249,0.655781 4.950124,0.296917 7.45434,-0.975628 l 1.242772,-0.631544 0.84734,1.737913 c 0.46604,0.955856 0.803759,1.777821 0.7505,1.826587 -0.347772,0.318505 -2.593649,1.28755 -4.175023,1.801426 -2.348362,0.763118 -6.603868,0.975377 -8.597294,0.428825 z m 7.190931,-16.94681872 c -0.264664,-2.58338368 -0.963734,-3.89587208 -2.429595,-4.56158548 -3.233332,-1.4684078 -6.555768,0.7921804 -7.090674,4.82448458 l -0.152348,1.14833616 h 4.908614 4.908592 z M 1.0944679,16.167596 C -2.871643,14.974011 -5.8586316,12.111925 -7.1489314,8.2689019 -7.9261938,5.953983 -8.1609438,3.1221476 -7.7641458,0.84773764 -6.938231,-3.8862804 -4.1672558,-7.2142624 0.14043156,-8.6457782 4.3860184,-10.056656 8.4866642,-9.3743466 11.203342,-6.805017 c 2.073248,1.9607878 3.159946,4.777486 3.384644,8.7729379 l 0.127062,2.2595462 H 6.831971 -1.0511102 l 0.0908,1.3777751 c 0.2391374,3.6283647 3.0274171,6.5170388 6.5063457,6.7406538 1.7367856,0.111636 4.2347407,-0.441123 5.7439185,-1.271054 l 1.157328,-0.636418 0.798402,1.427673 c 0.439123,0.785223 0.811121,1.588784 0.826663,1.785687 0.03858,0.488272 -1.299977,1.21109 -3.824362,2.065149 -1.8614023,0.629745 -2.4241284,0.718094 -4.9650918,0.779483 -2.2771811,0.05499 -3.137418,-0.0125 -4.1884253,-0.32882 z M 8.4793231,-0.81755672 c 0,-2.96945068 -1.6794925,-4.88129888 -4.2782123,-4.87009188 -1.4435515,0.0058 -2.6779252,0.5770134 -3.70043024,1.7111188 -0.85040538,0.9432268 -1.50042678,2.6524627 -1.50042678,3.94536256 V 0.70037454 H 3.7397884 8.4793231 Z M -316.89525,-1.2836166 V -18.698651 h 3.41687 3.41687 V -1.2836166 16.131411 h -3.41687 -3.41687 z M -306.5344,3.676357 V -8.7786942 h 3.19642 3.19643 v 1.4328818 c 0,0.7880814 0.0602,1.4328818 0.13361,1.4328818 0.0735,0 0.31959,-0.236446 0.54692,-0.5254404 0.58422,-0.7427154 2.34195,-1.8255478 3.74614,-2.3077632 3.6024,-1.2371194 7.5075,-0.492013 9.65997,1.8431532 l 0.90727,0.9842684 1.02588,-0.7830654 c 3.24739,-2.4787972 7.35555,-3.2897156 10.54365,-2.0812492 1.73822,0.6588904 3.39931,2.3186532 4.04342,4.040187 0.79421,2.1227242 0.91318,3.7412524 0.91489,12.4481845 l 0.002,8.4378567 -3.25155,-0.06099 -3.25154,-0.06099 -0.11022,-8.9279532 c -0.10736,-8.6965007 -0.12292,-8.9517097 -0.60006,-9.8440124 -0.88026,-1.6461328 -2.43411,-2.4243316 -4.29108,-2.1490686 -1.52142,0.2255228 -2.65022,1.0028652 -3.38658,2.3321746 l -0.65024,1.1738318 -0.0646,8.7626213 -0.0646,8.7626275 h -3.28999 -3.28998 l -0.0623,-8.8728478 c -0.062,-8.8300499 -0.0648,-8.8779657 -0.58499,-9.9344948 -0.75924,-1.5421028 -1.91963,-2.2502156 -3.64968,-2.2271866 -1.55471,0.02066 -2.42136,0.4068708 -3.39072,1.5109162 -1.27736,1.454836 -1.36485,2.1789876 -1.36485,11.2969985 v 8.2266135 h -3.30665 -3.30665 z m 94.34979,0 V -8.7786942 h 3.18872 3.18871 l 0.0628,2.2506822 0.0628,2.2506902 0.95591,-1.4685998 c 1.19344,-1.8335208 2.5965,-3.1440346 3.72949,-3.4834856 1.22283,-0.3663714 2.9838,0.166485 4.24295,1.2838854 l 0.94586,0.8393794 -1.17128,2.1948182 c -0.64421,1.2071588 -1.18045,2.2122902 -1.19164,2.2336272 -0.0112,0.02133 -0.61291,-0.161244 -1.33715,-0.405738 -3.20225,-1.0810748 -5.47485,0.7113374 -6.05528,4.7758009 -0.12119,0.8487108 -0.22232,4.4446984 -0.22472,7.991079 l -0.004,6.4479661 h -3.19644 -3.19643 z m 18.51725,0 V -8.7786942 h 3.19643 3.19643 V 3.676357 16.131411 h -3.19643 -3.19643 z m 34.16873,-5.8417446 V -20.462201 h 3.30665 3.30666 V -2.1653876 16.131411 h -3.30666 -3.30665 z m 79.139235,0 V -20.462201 h 3.306652 3.306652 V -2.1653876 16.131411 h -3.306652 -3.306652 z m 10.581286,0 V -20.462201 h 3.19643 3.19643 V -2.1653876 16.131411 h -3.19643 -3.19643 z M -192.01404,-12.396537 c -2.01543,-0.895768 -2.87305,-3.559278 -1.81865,-5.648282 1.73207,-3.431636 7.09389,-2.030774 7.09342,1.853266 -4.5e-4,2.907829 -2.77668,4.905293 -5.27477,3.795016 z"
       style="fill:#003b70;fill-opacity:1;stroke-width:0.22044344" />
  </g>
</svg>
