<?xml version="1.0" encoding="UTF-8" standalone="no"?>
<!-- Created with Inkscape (http://www.inkscape.org/) -->

<svg
   xmlns:dc="http://purl.org/dc/elements/1.1/"
   xmlns:cc="http://creativecommons.org/ns#"
   xmlns:rdf="http://www.w3.org/1999/02/22-rdf-syntax-ns#"
   xmlns:svg="http://www.w3.org/2000/svg"
   xmlns="http://www.w3.org/2000/svg"
   xmlns:sodipodi="http://sodipodi.sourceforge.net/DTD/sodipodi-0.dtd"
   xmlns:inkscape="http://www.inkscape.org/namespaces/inkscape"
   width="153.43872mm"
   height="153.43825mm"
   viewBox="0 0 153.43872 153.43825"
   version="1.1"
   id="svg8"
   inkscape:version="0.92.5 (2060ec1f9f, 2020-04-08)"
   sodipodi:docname="stop-icon.svg">
  <defs
     id="defs2" />
  <sodipodi:namedview
     id="base"
     pagecolor="#ffffff"
     bordercolor="#666666"
     borderopacity="1.0"
     inkscape:pageopacity="0.0"
     inkscape:pageshadow="2"
     inkscape:zoom="1.4"
     inkscape:cx="256.64781"
     inkscape:cy="157.08481"
     inkscape:document-units="mm"
     inkscape:current-layer="layer1"
     showgrid="false"
     inkscape:window-width="2800"
     inkscape:window-height="1672"
     inkscape:window-x="80"
     inkscape:window-y="54"
     inkscape:window-maximized="1" />
  <metadata
     id="metadata5">
    <rdf:RDF>
      <cc:Work
         rdf:about="">
        <dc:format>image/svg+xml</dc:format>
        <dc:type
           rdf:resource="http://purl.org/dc/dcmitype/StillImage" />
        <dc:title></dc:title>
      </cc:Work>
    </rdf:RDF>
  </metadata>
  <g
     inkscape:label="Layer 1"
     inkscape:groupmode="layer"
     id="layer1"
     transform="translate(-28.273159,-15.672864)">
    <path
       style="fill:#ffffff;stroke-width:0.13177076;fill-opacity:1"
       d="m 77.280236,159.9112 c -0.107559,-0.0688 -8.966992,-8.99719 -19.687628,-19.84094 L 38.100539,120.35434 V 92.39301 64.431676 L 57.722818,44.587987 77.345088,24.744299 h 27.648542 27.64853 l 19.62118,19.843856 19.62116,19.843856 -0.002,27.89403 c -8.7e-4,16.583489 -0.0504,27.971539 -0.12148,28.085169 -0.1913,0.30578 -38.8353,39.37337 -39.07926,39.50764 -0.3019,0.16613 -55.141633,0.15857 -55.401609,-0.008 z m 53.477544,-4.64087 c 0.0455,0 8.23444,-8.24449 18.19757,-18.32047 12.60649,-12.74926 18.14981,-18.44082 18.22995,-18.71749 0.0645,-0.22265 0.1133,-11.68107 0.11096,-26.047155 -0.003,-21.559384 -0.0329,-25.690561 -0.18453,-25.906336 -0.0992,-0.141196 -8.33119,-8.500693 -18.29331,-18.576664 L 130.7055,29.382266 H 104.99001 79.274509 L 60.980594,47.881953 42.686671,66.381648 v 25.997968 25.997964 l 18.148707,18.37368 c 9.981793,10.10552 18.232646,18.42119 18.335243,18.47924 0.129277,0.0732 40.848979,0.1046 51.587159,0.0399 z m -67.462688,-20.7026 -17.329884,-17.52386 -0.0017,-24.648647 -0.0017,-24.64864 17.329535,-17.52575 17.329536,-17.525741 h 24.372421 24.37241 l 17.32885,17.525062 17.32886,17.525053 v 24.646216 24.646227 l -17.29585,17.49279 -17.29584,17.4928 -24.40304,0.0342 -24.403051,0.0341 z m 7.039437,-24.41727 c 4.184245,-0.78332 6.879023,-3.17481 8.14169,-7.22532 0.279585,-0.89687 0.309238,-1.2331 0.309552,-3.509643 2.62e-4,-2.091899 -0.04124,-2.65223 -0.245424,-3.312834 -0.414137,-1.339699 -0.937751,-2.344303 -1.710503,-3.281762 -1.46201,-1.773616 -2.612662,-2.379509 -7.842748,-4.129719 -4.640784,-1.553001 -5.452117,-1.984012 -6.004033,-3.189574 -0.277606,-0.606379 -0.323128,-1.76905 -0.103765,-2.650087 0.187773,-0.754139 0.891828,-1.575333 1.737253,-2.026302 0.631294,-0.33674 0.775254,-0.358617 2.311132,-0.351087 1.393199,0.0071 1.745553,0.05299 2.35845,0.309221 1.586971,0.66339 2.409814,1.783946 2.669982,3.636029 l 0.152016,1.082226 2.916286,0.03568 c 2.597379,0.03177 2.925267,0.01201 2.998403,-0.180731 0.04516,-0.119021 0.01186,-0.871576 -0.07403,-1.672345 -0.299709,-2.794528 -1.240276,-4.83542 -2.987155,-6.481662 -2.154712,-2.030591 -4.864549,-2.888136 -8.623592,-2.728997 -1.9039,0.08059 -3.093797,0.406614 -4.576462,1.253851 -3.339126,1.908072 -5.054433,5.029072 -5.054433,9.196551 0,3.314928 1.166382,5.882936 3.370776,7.4214 1.097492,0.765948 3.288938,1.810346 4.637313,2.210056 0.84001,0.249 3.198391,1.10113 4.672189,1.688143 2.291679,0.912778 2.867267,1.362616 3.309637,2.586558 0.499113,1.380948 0.179037,3.161088 -0.739401,4.112288 -1.20023,1.24304 -3.632417,1.7513 -5.976455,1.24894 -2.320121,-0.49725 -3.966521,-2.43914 -4.131477,-4.872991 -0.03862,-0.570241 -0.141711,-1.088582 -0.231412,-1.163867 -0.102309,-0.08588 -1.190569,-0.122582 -2.962305,-0.09993 l -2.800567,0.0358 -0.04272,0.530051 c -0.06862,0.851195 0.230977,3.051117 0.555988,4.083267 1.793377,5.69526 7.387728,8.67826 13.965796,7.44678 z m 50.486851,-0.0693 c 1.99796,-0.44099 3.89792,-1.56689 5.3985,-3.19909 1.94425,-2.11478 3.31526,-4.86069 4.12499,-8.261644 0.7368,-3.09468 0.73403,-9.179172 -0.005,-12.389987 -1.52064,-6.600819 -5.32684,-10.94673 -10.22112,-11.670451 -1.63692,-0.242051 -3.99907,-0.09643 -5.29805,0.326621 -2.88844,0.940694 -4.69875,2.486839 -6.68795,5.712019 -1.22186,1.981055 -2.25056,5.272932 -2.54672,8.149563 -0.16868,1.638412 -0.16844,5.9661 3.9e-4,7.487 0.16195,1.458692 0.55952,3.215709 1.05711,4.671769 0.34748,1.01681 1.20965,2.93572 1.59122,3.54155 0.64207,1.01944 1.70656,2.32086 2.50272,3.05978 1.63141,1.51412 3.20654,2.29952 5.43329,2.70919 1.61634,0.29737 2.85019,0.26121 4.65126,-0.13632 z m -4.16687,-6.41317 c -1.91539,-0.47998 -3.51267,-2.13659 -4.3557,-4.517514 -0.82367,-2.326218 -0.8845,-2.782175 -0.88407,-6.625661 4e-4,-3.318848 0.0228,-3.668986 0.31052,-4.83673 0.81133,-3.293611 2.08867,-5.282641 4.04563,-6.299746 0.71501,-0.371612 0.83437,-0.39117 2.3905,-0.391657 1.53149,-5.3e-4 1.68561,0.02356 2.37237,0.370065 2.67159,1.347949 4.10212,4.271432 4.4674,9.129703 0.1585,2.1079 0.0195,5.278199 -0.28351,6.467558 -0.39426,1.547415 -0.60576,2.166858 -1.06637,3.123182 -0.56899,1.18137 -1.57436,2.41412 -2.39729,2.93948 -1.1928,0.76149 -3.07346,1.02372 -4.59948,0.64132 z m -21.260609,-8.062242 0.03331,-14.344554 4.062013,-0.06625 4.062006,-0.06626 0.035,-3.276599 0.035,-3.276595 -0.2971,-0.07063 c -0.16342,-0.03889 -5.191178,-0.0552 -11.172811,-0.03624 l -10.875696,0.03439 -0.03505,3.34404 -0.03496,3.344039 4.031496,0.03504 4.031487,0.03505 0.03331,14.344552 0.03331,14.344569 h 3.012579 3.01258 z m 43.263349,14.264122 c 0.18496,-0.0718 0.20726,-0.75514 0.20726,-6.34914 v -6.268696 l 4.02925,-0.05828 c 3.88667,-0.05626 4.06403,-0.07019 5.012,-0.393687 1.42451,-0.486175 2.17533,-0.956637 3.21305,-2.013309 2.0874,-2.125487 3.09688,-5.04159 3.09958,-8.953837 0.004,-5.795352 -2.20915,-9.616697 -6.37815,-11.012819 -0.90495,-0.303043 -1.01064,-0.307778 -7.89471,-0.353603 l -6.97747,-0.04647 v 17.676792 c 0,9.722239 0.0393,17.716549 0.0874,17.765139 0.10916,0.11041 5.31877,0.11776 5.60184,0.008 z m 0.20726,-24.050946 v -5.314503 l 3.04651,0.06155 c 3.31953,0.0671 3.87686,0.176734 4.89682,0.963494 1.11584,0.860704 1.6865,2.533661 1.58095,4.634707 -0.0891,1.77281 -0.37871,2.703028 -1.09126,3.504508 -1.05327,1.184722 -2.17858,1.464733 -5.88645,1.464733 h -2.54657 z"
       id="path826"
       inkscape:connector-curvature="0" />
  </g>
</svg>
