<?xml version="1.0" encoding="UTF-8" standalone="no"?>
<!-- Created with Inkscape (http://www.inkscape.org/) -->

<svg
   xmlns:dc="http://purl.org/dc/elements/1.1/"
   xmlns:cc="http://creativecommons.org/ns#"
   xmlns:rdf="http://www.w3.org/1999/02/22-rdf-syntax-ns#"
   xmlns:svg="http://www.w3.org/2000/svg"
   xmlns="http://www.w3.org/2000/svg"
   xmlns:sodipodi="http://sodipodi.sourceforge.net/DTD/sodipodi-0.dtd"
   xmlns:inkscape="http://www.inkscape.org/namespaces/inkscape"
   width="211.39677mm"
   height="131.21591mm"
   viewBox="0 0 211.39677 131.21591"
   version="1.1"
   id="svg8"
   inkscape:version="0.92.5 (2060ec1f9f, 2020-04-08)"
   sodipodi:docname="supported-protocols.svg">
  <defs
     id="defs2">
        
        
        
        
    
        
        
    
        
        
    
        
        
        
        
    
        
    </defs>
  <sodipodi:namedview
     id="base"
     pagecolor="#ffffff"
     bordercolor="#666666"
     borderopacity="1.0"
     inkscape:pageopacity="0.0"
     inkscape:pageshadow="2"
     inkscape:zoom="5.6"
     inkscape:cx="143.97084"
     inkscape:cy="113.6958"
     inkscape:document-units="mm"
     inkscape:current-layer="layer1"
     showgrid="false"
     inkscape:window-width="2800"
     inkscape:window-height="1672"
     inkscape:window-x="80"
     inkscape:window-y="54"
     inkscape:window-maximized="1" />
  <metadata
     id="metadata5">
    <rdf:RDF>
      <cc:Work
         rdf:about="">
        <dc:format>image/svg+xml</dc:format>
        <dc:type
           rdf:resource="http://purl.org/dc/dcmitype/StillImage" />
        <dc:title></dc:title>
      </cc:Work>
    </rdf:RDF>
  </metadata>
  <g
     inkscape:label="Layer 1"
     inkscape:groupmode="layer"
     id="layer1"
     transform="translate(0.92872784,1.1324426)">
    <g
       style="clip-rule:evenodd;fill-rule:evenodd;stroke-miterlimit:1.5"
       id="g827"
       transform="matrix(0.26458333,0,0,0.26458333,118.73938,62.57722)">
            <path
   id="path815"
   style="fill:none;stroke:#757575;stroke-width:2.5px"
   d="M 254.665,202.979 V 192.707"
   inkscape:connector-curvature="0" />

            <path
   id="path817"
   style="fill:none;stroke:#757575;stroke-width:2.5px"
   d="M 227.808,202.979 V 192.301"
   inkscape:connector-curvature="0" />

            <path
   id="path819"
   style="fill:none;stroke:#757575;stroke-width:2.5px"
   d="M 177.025,202.979 V 192.707"
   inkscape:connector-curvature="0" />

            <path
   id="path821"
   style="fill:none;stroke:#757575;stroke-width:2.5px"
   d="M 131.912,202.979 V 181.138"
   inkscape:connector-curvature="0" />

            <path
   id="path823"
   style="fill:none;stroke:#757575;stroke-width:2.5px"
   d="M 88.265,202.979 V 192.301"
   inkscape:connector-curvature="0" />

            <path
   id="path825"
   style="fill:none;stroke:#757575;stroke-width:2.5px"
   d="m 36.089,188.485 v 14.494 h 247.494 v -11.185"
   inkscape:connector-curvature="0" />

        </g>
    <path
       id="path829"
       style="clip-rule:evenodd;fill:#757575;fill-rule:evenodd;stroke-width:0.26458332;stroke-miterlimit:1.5"
       d="m 121.6625,107.44976 v 0.64056 c 0.0976,0.26511 0.50376,0.25558 0.60404,0 v -0.54875 c 0.0122,-0.14975 -0.21114,-0.31538 -0.53287,-0.48763 -0.41222,-0.21034 -0.66199,-0.50324 -0.70829,-0.89932 v -0.48048 c 0.002,-0.96123 1.89812,-0.94218 1.9214,0 v 0.48048 h -0.68024 v -0.48048 c -0.2122,-0.26591 -0.59822,-0.13944 -0.60404,0.19473 -8e-4,0.12145 0.0209,0.2331 0.0712,0.33258 0.15372,0.12859 0.12726,0.16008 0.30639,0.25639 0.39026,0.20928 0.86677,0.58181 0.90672,0.90143 v 0.79878 c -0.0542,0.48683 -0.44582,0.64082 -0.95858,0.67522 -0.68607,-0.0193 -0.97764,-0.29793 -1.01494,-0.74295 v -0.64056 z m 8.30368,-2.35003 h 1.76477 v 0.53155 h -1.06971 v 0.88371 h 0.99616 v 0.54319 h -0.99616 v 1.12897 h 1.11284 v 0.55695 h -1.8079 z m -6.04917,1.4142 h 0.59373 v -1.4142 h 0.694 v 3.64437 h -0.694 v -1.68222 h -0.59373 v 1.68222 h -0.69083 v -3.64437 h 0.69083 z m 4.44341,2.23017 h -1.36789 c -0.0572,-0.05 -0.0791,-0.12488 -0.0831,-0.2122 v -1.10728 c -0.0286,-0.1524 -0.1061,-0.24474 -0.22172,-0.29051 h -0.44926 v 1.60999 h -0.6911 v -3.64437 h 1.55178 c 0.24157,0.0376 0.42016,0.16536 0.46726,0.48234 v 0.87762 c -0.0529,0.24236 -0.20135,0.38179 -0.42757,0.43709 0.24448,0.0622 0.44291,0.18256 0.46514,0.52784 v 1.10728 c 0.0354,0.022 0.0519,0.0556 0.0521,0.099 v 0.10107 l 0.70432,-3.6322 h 0.77021 l 0.70405,3.64437 h -0.70405 l -0.0918,-0.58235 h -0.60617 z m -7.44008,0 h -0.70406 l -0.0918,-0.58235 h -0.60616 l -0.0722,0.58235 h -0.7067 l 0.7067,-3.64437 h 0.7702 z m -1.09035,-2.58948 -0.2241,1.42346 h 0.4281 z m 8.91434,0 -0.2241,1.42346 h 0.4281 z m -2.0058,-0.51144 h -0.48313 v 0.97129 h 0.4228 c 0.0913,-0.01 0.16113,-0.0516 0.19341,-0.15187 v -0.69003 c -0.0209,-0.0677 -0.0667,-0.10954 -0.13308,-0.12939 z"
       inkscape:connector-curvature="0" />
    <path
       id="path831"
       style="clip-rule:evenodd;fill:none;fill-rule:evenodd;stroke:#757575;stroke-width:0.66145831px;stroke-linejoin:round;stroke-miterlimit:1.5"
       d="m 123.73471,104.56448 1.58671,-2.76622 h 5.87798 l 2.93899,5.12366 -2.93899,5.12365 h -5.87798 l -1.58433,-2.76198"
       inkscape:connector-curvature="0" />
    <path
       id="path833"
       style="clip-rule:evenodd;fill:#757575;fill-rule:evenodd;stroke-width:0.26458332;stroke-miterlimit:1.5"
       d="m 184.53967,109.98791 h 5.69515 c 0.0907,-3.43218 -1.38721,-5.01836 -4.0595,-5.19933 -5.22208,-0.0907 -5.64197,9.23607 0.21325,9.10008 2.15345,-0.23892 3.32344,-1.13718 3.65205,-2.60006 l -2.17937,-0.39846 c -0.5088,1.99998 -3.29645,1.48881 -3.32158,-0.90223 z m 9.93854,-4.99481 h 1.55575 v 1.86346 h -1.55575 v 4.37066 c 0.081,0.79904 0.59955,0.95858 1.55575,0.4781 l 0.22119,1.78144 c -2.49264,0.78422 -3.95129,0.31406 -4.06955,-1.78144 v -4.84876 h -1.05146 v -1.86346 h 1.05146 v -1.71423 l 2.29261,-1.33244 z m -26.27101,0.5797 2.31511,-0.58552 c -1.07104,-4.62571 -8.16108,-4.7363 -9.89542,0 -0.86148,3.06044 -0.2839,5.34379 1.07209,7.20672 2.6588,2.79824 8.23119,1.98967 8.82333,-2.15609 l -2.31511,-0.74427 c -0.20981,2.82019 -4.04204,3.51076 -5.1689,0.74427 -0.49715,-1.55204 -0.48657,-3.11308 0,-4.68233 0.99986,-2.56699 4.46855,-2.29103 5.1689,0.21722 z m 6.62729,8.06239 h -2.24685 v -8.57091 h 2.06508 v 1.1631 c 2.12592,-2.39739 5.57159,-1.66026 5.80019,1.34673 v 6.06108 h -2.29341 v -5.25516 c -0.0407,-2.73314 -3.46445,-2.35585 -3.32501,0.81704 z m -23.24153,-2.69108 -0.95039,2.64081 -2.56645,-0.0206 4.55321,-11.84645 h 2.63313 l 4.72546,11.84645 -2.62705,0.0206 -1.02684,-2.64081 z m -7.77981,-9.22628 c 3.30068,0.11403 4.71434,3.88117 1.63777,5.59884 3.50282,0.83741 2.99614,6.65692 -1.82192,6.24761 h -5.93487 v -11.84645 z m -3.69094,6.76936 v 3.15436 h 3.46869 c 2.27198,-0.23151 2.27515,-3.19802 -0.5207,-3.15436 z m 13.78241,-3.97087 -1.59835,4.39976 h 3.25649 z m 30.69008,4.05792 h 3.37714 c 0,0 0.0413,-1.98702 -1.66396,-2.01295 -1.74228,-0.0267 -1.71318,2.01295 -1.71318,2.01295 z m -41.43772,-4.87177 h -3.03477 v 2.7559 h 3.25755 c 2.02512,-0.29422 1.81002,-2.71437 -0.22278,-2.7559 z"
       inkscape:connector-curvature="0" />
    <g
       style="clip-rule:evenodd;fill-rule:evenodd;stroke-linecap:round;stroke-linejoin:round;stroke-miterlimit:1.5"
       id="g862"
       transform="matrix(0.20433838,0,0,0.20433838,54.51471,-40.913827)">
            <path
   id="path858"
   style="fill:#757575;stroke:#757575;stroke-width:0.94999999px"
   d="m 401.701,279.916 -0.08,-0.024 c -33.733,-9.852 -41.893,60.015 0.398,64.585 -24.054,0 -43.583,-19.529 -43.583,-43.583 0,-24.054 19.529,-43.583 43.583,-43.583 0,0 2.715,0.063 4.023,0.184 7.549,1.866 22.141,8.367 24.452,29.271 2.708,24.499 -8.376,30.379 -10.99,32.491 -4.076,3.294 -14.35,4.431 -17.883,2 17.999,-9.335 16.731,-34.067 0.398,-41.245 l -0.175,-0.053 z"
   inkscape:connector-curvature="0" />

            <path
   id="path860"
   style="fill:none;stroke:#757575;stroke-width:0.94999999px"
   d="m 402.493,321.871 0.081,0.024 c 33.733,9.853 41.893,-60.015 -0.398,-64.584 24.054,0 43.582,19.529 43.582,43.583 0,24.054 -19.528,43.583 -43.582,43.583 0,0 -2.715,-0.064 -4.024,-0.184 -7.548,-1.867 -22.14,-8.368 -24.451,-29.272 -2.708,-24.499 8.376,-30.379 10.989,-32.49 4.077,-3.294 13.906,-5.432 17.439,-3 -17.999,9.335 -16.286,35.067 0.047,42.244 l 0.174,0.054 z"
   inkscape:connector-curvature="0" />

        </g>
    <g
       style="clip-rule:evenodd;fill-rule:evenodd;stroke-linecap:round;stroke-linejoin:round;stroke-miterlimit:1.5"
       id="g872"
       transform="matrix(0.20433838,0,0,0.20433838,54.51471,-40.913827)">
            <path
   id="path864"
   style="fill:#757575;fill-rule:nonzero"
   d="m 439.231,348.926 v -9.509 c 3.486,1.329 6.565,1.994 9.238,1.994 3.486,0 5.918,-1.167 7.298,-3.502 1.38,-2.335 2.07,-6.416 2.07,-12.244 v -66.463 h 9.151 v 66.105 c 0,16.462 -6.638,24.693 -19.914,24.693 -2.033,0 -4.648,-0.358 -7.843,-1.074 z"
   inkscape:connector-curvature="0" />

            <path
   id="path866"
   style="fill:#757575;fill-rule:nonzero"
   d="m 495.965,336.759 c -4.329,0 -9.863,-1.108 -16.602,-3.323 v -10.634 c 7.262,3.953 13.232,5.93 17.909,5.93 3.602,0 6.5,-1.108 8.693,-3.323 2.193,-2.215 3.29,-5.13 3.29,-8.742 0,-2.966 -0.719,-5.488 -2.157,-7.567 -1.438,-2.079 -4.089,-4.397 -7.952,-6.953 l -4.445,-3.016 c -5.49,-3.681 -9.361,-7.149 -11.613,-10.404 -2.251,-3.255 -3.377,-7.047 -3.377,-11.375 0,-5.828 1.801,-10.626 5.404,-14.392 3.602,-3.766 8.192,-5.649 13.769,-5.649 4.968,0 10.211,0.971 15.73,2.914 v 9.816 c -6.797,-3.136 -11.866,-4.704 -15.207,-4.704 -3.166,0 -5.781,0.989 -7.843,2.966 -2.063,1.976 -3.094,4.465 -3.094,7.464 0,2.522 0.755,4.754 2.266,6.697 1.51,1.943 4.27,4.261 8.279,6.953 l 4.619,3.068 c 5.577,3.715 9.47,7.225 11.678,10.531 2.207,3.306 3.311,7.277 3.311,11.912 0,6.578 -2.069,11.861 -6.209,15.849 -4.14,3.988 -9.623,5.982 -16.449,5.982 z"
   inkscape:connector-curvature="0" />

            <path
   id="path868"
   style="fill:#757575;fill-rule:nonzero"
   d="m 557.361,336.759 c -8.947,0 -16.144,-3.639 -21.591,-10.915 -5.447,-7.277 -8.17,-16.897 -8.17,-28.86 0,-12.032 2.738,-21.652 8.213,-28.86 5.476,-7.209 12.789,-10.813 21.94,-10.813 9.122,0 16.428,3.596 21.918,10.787 5.49,7.192 8.236,16.786 8.236,28.783 0,12.236 -2.746,21.941 -8.236,29.116 -5.49,7.174 -12.927,10.762 -22.31,10.762 z m 0.131,-8.027 c 6.594,0 11.692,-2.786 15.294,-8.359 3.602,-5.572 5.403,-13.437 5.403,-23.594 0,-9.85 -1.808,-17.553 -5.425,-23.108 -3.616,-5.556 -8.62,-8.334 -15.011,-8.334 -6.42,0 -11.431,2.787 -15.033,8.359 -3.602,5.573 -5.403,13.318 -5.403,23.237 0,9.884 1.786,17.655 5.359,23.312 3.573,5.658 8.512,8.487 14.816,8.487 z"
   inkscape:connector-curvature="0" />

            <path
   id="path870"
   style="fill:#757575;fill-rule:nonzero"
   d="m 600.717,334.867 v -75.665 h 8.977 l 32.463,58.436 V 259.202 H 650 v 75.665 h -8.933 l -32.506,-58.436 v 58.436 z"
   inkscape:connector-curvature="0" />

        </g>
    <path
       id="path897"
       style="clip-rule:evenodd;fill:#757575;fill-rule:evenodd;stroke:none;stroke-width:0.39687499px;stroke-linecap:round;stroke-linejoin:round;stroke-miterlimit:1.5"
       d="m 84.834373,111.60956 c -0.06191,0.42995 0.189971,0.60828 0.573088,0.6813 0.915987,0.0836 1.812396,0.10981 2.662237,0 1.0668,-0.27119 0.971021,-1.11204 0,-1.10516 l -3.235325,-0.10345 c -0.802481,-0.063 -1.370806,-0.3183 -1.461558,-0.96547 -0.06879,-0.62812 0.01429,-1.2438 0.304271,-1.84309 0.28919,-0.5834 0.824177,-0.97895 1.730375,-1.09087 1.261533,-0.0757 2.518304,-0.0995 3.763962,0 1.081617,0.077 1.644386,0.32041 1.806311,0.78978 0.177535,0.42148 0.15875,0.82127 0.128587,1.21999 h -2.094177 c -0.01349,-0.27781 -0.199231,-0.42968 -0.527579,-0.47704 -0.840317,-0.0304 -1.681956,-0.0833 -2.518039,0 -0.815182,0.21193 -0.7239,0.7665 0,0.85566 1.162579,0.0272 2.329391,0.0617 3.500172,0.10266 1.255713,0.11853 1.553634,0.83502 1.395413,1.83674 -0.183092,1.40837 -0.832908,1.98067 -1.690688,2.18016 -1.769533,0.29237 -3.541183,0.30242 -5.314949,0 -0.638969,-0.099 -1.066271,-0.43021 -1.212057,-1.07077 -0.01005,-0.33416 0.01826,-0.67071 0.104511,-1.01044 z m -8.65796,-4.39393 -0.627856,3.14086 c -0.258763,1.00516 0.08387,1.61343 1.426633,1.56237 1.222904,0.0447 1.894417,-0.53076 2.159794,-1.56237 l 0.648229,-3.14086 h 2.330715 l -1.290638,6.64236 h -2.224616 l 0.286014,-1.50177 c -0.620977,0.89482 -1.446212,1.36921 -2.437606,1.50177 -0.792692,0.0773 -1.580885,0.046 -2.361142,-0.19976 -0.867039,-0.30983 -1.223962,-1.08003 -1.027906,-2.35029 l 0.812006,-4.09231 z m -15.046854,6.595 h -2.303198 l 0.216165,-1.04352 c -0.47334,0.71941 -1.206765,1.02579 -2.121694,1.04352 -0.76835,0.11933 -1.595966,0.0847 -2.442898,0 -0.665691,-0.13335 -1.340643,-0.25241 -1.405202,-1.30651 0.01799,-1.42769 0.295011,-2.84242 0.926571,-4.23942 0.58129,-0.86704 1.704181,-1.22899 3.290888,-1.15914 1.528497,-0.003 2.520949,0.31591 2.637895,1.15914 l 0.725488,-3.78328 h 2.349764 z m 3.957638,-0.002 h -2.303198 l 1.830387,-9.32921 h 2.349765 l -0.785548,3.64041 c -0.01349,0.0458 -0.02381,0.0934 -0.03069,0.14287 l 0.03069,-0.14287 c 0.219339,-0.73581 1.299369,-1.01283 2.738437,-1.01045 1.586442,-0.0699 2.473325,0.0357 3.054615,0.9025 0.366977,1.08611 -0.09895,2.80881 -0.534458,4.16454 -0.338932,1.05436 -0.889794,1.36869 -2.001573,1.63221 -0.846932,0.0847 -1.816365,0.11933 -2.584979,0 -0.91493,-0.0177 -1.441715,-0.42201 -1.587236,-1.03505 z m -16.671925,-6.65427 c -0.875242,-0.0169 -2.697956,0.0998 -3.360473,0.48922 -1.11469,0.65563 -1.217612,1.49436 -1.511829,2.5265 -0.159015,0.55695 -0.519377,2.29976 0.141817,3.06864 0.629443,0.73184 2.761191,0.6477 3.485091,0.63923 0.881592,-0.01 2.606675,0.0312 3.606536,-0.63923 0.851693,-0.57124 1.198033,-2.14127 1.291166,-2.69187 0.119327,-0.70432 0.449527,-2.05899 -0.305594,-2.78527 -0.706437,-0.67998 -2.644245,-0.59346 -3.346714,-0.60722 z m -13.639271,2.86332 4.046538,-5.53402 h 4.311914 l -1.851554,9.32338 h -2.65774 l 1.282171,-6.65268 -4.918075,6.65268 H 33.00488 l -2.309547,-6.65268 -1.334823,6.65268 h -2.68605 l 1.863989,-9.32338 h 4.285986 z m 13.349288,-0.97446 c -0.628386,0.0132 -1.221582,-0.0577 -1.706298,0.20823 -0.536575,0.29448 -0.494242,0.55589 -0.653521,1.21126 -0.059,0.24262 -0.237861,1.0078 0.130439,1.3417 0.210873,0.19103 1.332971,0.18045 1.667934,0.18045 0.353748,0 1.216289,0.0688 1.69201,-0.27543 0.424921,-0.30692 0.482865,-1.01547 0.52705,-1.24672 0.04233,-0.22278 0.145786,-0.96308 0,-1.10463 -0.348192,-0.33761 -1.292489,-0.32227 -1.657614,-0.31486 z m 9.670785,-0.0114 c -0.628386,0.0132 -1.221581,-0.0577 -1.706298,0.20822 -0.536575,0.29422 -0.494242,0.55589 -0.653521,1.21126 -0.059,0.24263 -0.23786,1.00754 0.13044,1.34144 0.210873,0.1913 1.332971,0.18071 1.667933,0.18071 0.353748,0 1.21629,0.0685 1.69201,-0.27543 0.424921,-0.30718 0.482865,-1.01547 0.526786,-1.24672 0.0426,-0.22304 0.14605,-0.96308 0,-1.10463 -0.347927,-0.33761 -1.292225,-0.32253 -1.65735,-0.31485 z m 9.604904,2.9202 c 0.628385,-0.0132 1.221581,0.0577 1.706298,-0.20823 0.536575,-0.29448 0.494241,-0.55589 0.653521,-1.21126 0.059,-0.24262 0.23786,-1.00753 -0.13044,-1.3417 -0.210873,-0.19103 -1.332971,-0.18045 -1.667669,-0.18045 -0.354012,0 -1.216554,-0.0685 -1.692275,0.27544 -0.424921,0.30691 -0.482864,1.01547 -0.526785,1.24671 -0.0426,0.22278 -0.14605,0.96308 0,1.10464 0.347927,0.33761 1.292225,0.32226 1.65735,0.31485 z"
       inkscape:connector-curvature="0" />
    <g
       style="clip-rule:evenodd;fill-rule:evenodd;stroke-linejoin:round;stroke-miterlimit:2"
       id="g916"
       transform="matrix(23.518521,0,0,23.518521,119.70278,74.070395)">
            <path
   id="path914"
   style="fill:#757575"
   d="m 0.035,-0.237 0.21,-0.013 c 0.005,0.034 0.014,0.06 0.028,0.078 0.023,0.029 0.055,0.044 0.098,0.044 0.031,0 0.056,-0.008 0.073,-0.023 0.017,-0.014 0.025,-0.032 0.025,-0.051 0,-0.019 -0.008,-0.035 -0.024,-0.05 C 0.429,-0.267 0.391,-0.28 0.332,-0.293 0.235,-0.315 0.165,-0.344 0.124,-0.38 0.082,-0.417 0.062,-0.463 0.062,-0.519 c 0,-0.036 0.01,-0.071 0.032,-0.104 0.021,-0.033 0.053,-0.058 0.096,-0.077 0.043,-0.019 0.101,-0.028 0.176,-0.028 0.091,0 0.161,0.017 0.209,0.051 0.048,0.034 0.077,0.088 0.086,0.162 L 0.452,-0.502 C 0.447,-0.535 0.435,-0.558 0.417,-0.573 0.399,-0.587 0.375,-0.595 0.344,-0.595 c -0.026,0 -0.045,0.006 -0.058,0.017 -0.013,0.011 -0.02,0.024 -0.02,0.039 0,0.012 0.005,0.022 0.016,0.031 0.011,0.01 0.035,0.018 0.074,0.027 0.097,0.02 0.166,0.041 0.208,0.063 0.042,0.021 0.072,0.048 0.092,0.079 0.019,0.032 0.028,0.067 0.028,0.106 0,0.046 -0.013,0.088 -0.038,0.127 -0.025,0.039 -0.061,0.068 -0.106,0.088 -0.046,0.02 -0.103,0.03 -0.173,0.03 -0.122,0 -0.206,-0.023 -0.253,-0.07 C 0.067,-0.105 0.041,-0.165 0.035,-0.237 Z"
   inkscape:connector-curvature="0" />

        </g>
    <g
       style="clip-rule:evenodd;fill-rule:evenodd;stroke-linejoin:round;stroke-miterlimit:2"
       id="g920"
       transform="matrix(23.518521,0,0,23.518521,136.6871,74.070395)">
            <path
   id="path918"
   style="fill:#757575"
   d="m 0.075,-0.716 h 0.206 l 0.27,0.396 V -0.716 H 0.759 V 0 H 0.551 L 0.283,-0.393 V 0 H 0.075 Z"
   inkscape:connector-curvature="0" />

        </g>
    <g
       style="clip-rule:evenodd;fill-rule:evenodd;stroke-linejoin:round;stroke-miterlimit:2"
       id="g924"
       transform="matrix(23.518521,0,0,23.518521,156.27825,74.070395)">
            <path
   id="path922"
   style="fill:#757575"
   d="m 0.071,-0.716 h 0.291 l 0.112,0.436 0.112,-0.436 h 0.29 V 0 H 0.695 V -0.546 L 0.555,0 H 0.392 L 0.252,-0.546 V 0 H 0.071 Z"
   inkscape:connector-curvature="0" />

        </g>
    <g
       style="clip-rule:evenodd;fill-rule:evenodd;stroke-linejoin:round;stroke-miterlimit:2"
       id="g928"
       transform="matrix(23.518521,0,0,23.518521,178.476,74.070395)">
            <path
   id="path926"
   style="fill:#757575"
   d="M 0.072,-0.716 H 0.44 c 0.08,0 0.14,0.019 0.18,0.057 0.04,0.038 0.06,0.093 0.06,0.163 0,0.072 -0.022,0.129 -0.065,0.169 -0.044,0.041 -0.11,0.061 -0.199,0.061 H 0.294 V 0 H 0.072 Z m 0.222,0.305 h 0.055 c 0.042,0 0.072,-0.007 0.089,-0.022 0.018,-0.015 0.026,-0.034 0.026,-0.057 0,-0.022 -0.007,-0.041 -0.022,-0.057 C 0.427,-0.563 0.399,-0.57 0.357,-0.57 H 0.294 Z"
   inkscape:connector-curvature="0" />

        </g>
    <path
       id="path951"
       style="clip-rule:evenodd;fill:#757575;fill-rule:evenodd;stroke-width:0.26458332;stroke-linejoin:round;stroke-miterlimit:2"
       d="m 25.075823,61.682015 v 3.175 l -7.9375,3.175 7.9375,3.175 v 3.099329 L 13.69874,69.354931 v -2.645833 z m 54.449397,0 v 3.175 l 7.9375,3.175 -7.9375,3.175 v 3.099329 L 90.902304,69.354931 V 66.709098 Z M 65.557073,73.852848 H 62.646656 V 57.448682 h 2.910417 z m 8.995833,0 h -2.38125 l 4.233333,-16.857662 h 2.38125 z m -43.127083,0 h -3.704167 l 4.233334,-6.085417 -4.233334,-5.820833 h 3.96875 l 2.116667,3.439583 2.116667,-3.439583 h 3.704166 l -3.96875,5.820833 4.497917,6.085417 h -3.96875 l -2.38125,-3.439583 z m 13.229166,-11.90625 v 1.5875 c 2.45798,-2.489464 5.541169,-2.375164 7.14375,0 2.00713,-2.6416 6.757459,-2.541587 7.408334,1.322917 v 8.995833 h -3.175 v -8.202083 c -0.06376,-2.366698 -3.955257,-1.834092 -3.96875,1.058333 v 7.14375 h -3.175 v -8.202083 c -0.08096,-2.288117 -3.938059,-1.759215 -3.96875,0.79375 v 7.408333 h -3.175 v -11.90625 z"
       inkscape:connector-curvature="0" />
    <path
       id="path3121-6"
       d="m 26.492874,33.950997 c -0.08197,-0.0111 -0.350229,-0.04472 -0.596134,-0.07471 -1.120583,-0.136676 -2.539085,-0.535395 -3.601648,-1.01237 -0.54754,-0.245788 -1.599854,-0.822981 -1.823163,-1.000008 l -0.130962,-0.103815 0.418188,-0.602406 c 0.230003,-0.331323 0.437437,-0.603164 0.460965,-0.604092 0.02353,-9.38e-4 0.224723,0.107611 0.447101,0.241195 1.435732,0.862465 2.959688,1.389345 4.626942,1.599676 0.577776,0.07289 2.066189,0.07252 2.608088,-7.51e-4 1.612595,-0.217742 3.092899,-0.708392 4.350414,-1.441952 0.283413,-0.165326 0.532674,-0.299889 0.553915,-0.299029 0.02124,9.39e-4 0.226109,0.273257 0.455265,0.605322 l 0.416647,0.603755 -0.128865,0.10259 c -0.234528,0.186705 -1.184791,0.690889 -1.793783,0.951731 -1.077687,0.461594 -2.09074,0.752179 -3.291625,0.944177 -0.462122,0.07389 -2.610961,0.139404 -2.971345,0.0906 z m 0.322292,-2.805109 C 25.722708,31.06901 24.382883,30.723459 23.37074,30.257543 22.821037,30.0045 21.997025,29.522467 21.997025,29.453942 c 0,-0.04271 0.530115,-0.828454 0.641831,-0.951327 0.01866,-0.02054 0.280906,0.103583 0.582749,0.275814 0.908731,0.518528 1.860111,0.85526 2.99804,1.061136 0.704019,0.12737 2.124248,0.115736 2.890145,-0.02367 0.989917,-0.180186 2.22124,-0.635496 2.978196,-1.101256 0.133941,-0.08242 0.252734,-0.149849 0.263983,-0.149849 0.02831,0 0.732275,1.002058 0.713523,1.015663 -0.0083,0.006 -0.14927,0.09051 -0.313206,0.187716 -1.748294,1.036611 -3.850922,1.524531 -5.93712,1.377722 z M 26.691585,28.38219 c -0.972096,-0.121826 -2.183769,-0.547126 -2.966521,-1.041258 l -0.191069,-0.120617 0.25903,-0.370998 c 0.142468,-0.204051 0.273473,-0.371 0.291126,-0.371 0.01765,0 0.265042,0.121575 0.549756,0.270168 0.612659,0.319746 1.245504,0.540505 1.853272,0.646493 0.568519,0.09914 1.628131,0.09919 2.197433,9.8e-5 0.564266,-0.0982 1.365938,-0.366243 1.852487,-0.619374 0.209364,-0.108924 0.396047,-0.198042 0.41485,-0.198042 0.0556,0 0.533772,0.70462 0.507268,0.747506 -0.04563,0.07383 -0.651888,0.390348 -1.070667,0.558978 -0.506299,0.203877 -1.273546,0.408072 -1.800381,0.479163 -0.362765,0.04895 -1.561412,0.06087 -1.896584,0.01887 z M 55.08249,19.523418 v -5.911669 h 1.440302 1.440304 l 0.01277,3.273221 0.01277,3.273221 2.259265,-3.273221 2.259266,-3.273221 h 1.180569 1.18057 l 0.01279,3.251576 0.01277,3.251578 2.237076,-3.239158 2.237068,-3.239158 1.749581,-0.01305 c 0.962264,-0.0072 1.748512,0.004 1.747215,0.02484 -0.0013,0.02084 -1.797828,2.675788 -3.992288,5.899882 l -3.989933,5.861988 -1.471866,0.01316 -1.471866,0.01316 -0.01282,-2.804498 -0.01282,-2.8045 -1.961774,2.80376 -1.961777,2.80376 h -1.453578 -1.453579 z m 12.304493,5.349125 c 0.21351,-0.309397 2.064832,-2.969197 4.114044,-5.910669 l 3.72584,-5.348128 1.477916,-9.95e-4 1.477918,-9.95e-4 v 5.911667 5.911668 h -1.41582 -1.415819 v -0.844529 -0.844524 l -1.925018,0.0021 -1.925017,0.0021 -0.571296,0.842399 -0.571296,0.842399 -1.679828,2.6e-5 -1.679827,2.5e-5 0.388203,-0.562539 z m 7.964079,-5.150415 c 0,-0.847008 -0.009,-1.540015 -0.01994,-1.540015 -0.01096,0 -0.394879,0.553288 -0.853148,1.229528 -0.458263,0.67624 -0.931887,1.369247 -1.052493,1.540015 l -0.21929,0.310486 h 1.072436 1.072437 z m 4.868431,-0.198712 v -5.911668 h 1.505494 1.505497 l 2.071309,3.187095 2.071313,3.187092 v -3.187092 -3.187095 h 1.465498 1.465498 v 5.911668 5.911665 h -1.564809 -1.564807 l -2.024419,-3.036752 -2.024418,-3.036752 -0.01281,3.036752 -0.01281,3.036752 H 81.659763 80.219487 Z M 30.765172,15.64227 c -0.564052,-0.372279 -1.54553,-0.736322 -2.334981,-0.866075 -0.710872,-0.116837 -1.806682,-0.07399 -2.483774,0.09712 -0.594236,0.15017 -0.880058,0.257648 -1.460689,0.549259 l -0.43745,0.2197 -0.259247,-0.379885 c -0.305896,-0.448242 -0.334717,-0.39592 0.418661,-0.760022 1.089205,-0.526402 1.961225,-0.71787 3.2539,-0.714449 0.958313,0.0025 1.412816,0.0693 2.233703,0.328124 0.463772,0.146227 1.456202,0.605342 1.679074,0.776772 l 0.112418,0.08647 -0.277147,0.384305 c -0.15243,0.211368 -0.281261,0.382672 -0.286291,0.380674 -0.005,-0.002 -0.07621,-0.0479 -0.158177,-0.101995 z m 1.341302,-2.059656 c -0.440067,-0.277686 -1.314552,-0.685741 -1.86143,-0.868587 -1.742082,-0.582458 -3.527605,-0.623851 -5.271307,-0.122201 -0.563661,0.16216 -1.406826,0.518241 -1.89802,0.801562 -0.461515,0.266203 -0.39264,0.295664 -0.849651,-0.36343 l -0.282845,-0.407915 0.209991,-0.132563 c 1.048851,-0.662111 2.551698,-1.193753 3.9174,-1.385808 0.675372,-0.09498 1.977679,-0.09528 2.6997,-6.38e-4 1.056587,0.138506 2.187865,0.482916 3.13745,0.955175 0.547397,0.272238 1.117753,0.617218 1.117753,0.676074 0,0.0618 -0.643381,0.977139 -0.685499,0.975263 -0.01916,-9.39e-4 -0.124251,-0.05797 -0.233542,-0.126939 z M 33.398098,11.41844 C 32.221296,10.683225 30.785055,10.139295 29.349351,9.885108 28.481967,9.7315404 26.933234,9.6951638 26.070612,9.8080965 c -1.604599,0.2100715 -3.086103,0.7108405 -4.424707,1.4956095 -0.207866,0.121864 -0.398331,0.221356 -0.423252,0.221093 -0.02492,-2.44e-4 -0.233499,-0.271663 -0.463506,-0.603113 -0.478206,-0.689117 -0.489947,-0.590851 0.112936,-0.9453668 0.500499,-0.2943122 1.575428,-0.8017528 2.136221,-1.008446 2.897149,-1.0678106 6.331714,-1.0126493 9.223274,0.1481325 0.99522,0.3995188 2.464276,1.2136753 2.416166,1.3390483 -0.02135,0.05563 -0.751926,1.104025 -0.82104,1.178209 -0.01716,0.01841 -0.210023,-0.07826 -0.428606,-0.214823 z"
       style="fill:#00aeef;fill-opacity:1;stroke-width:0.04967788"
       inkscape:connector-curvature="0"
       sodipodi:nodetypes="cscccccccccccccccccssscccccsccscccssccccscccccccccccccccccccccscccccccccccscccccccccccccccccsscccccscccccccccccccccccccccccssccscccccccccscsccscsscccsssccscssccs" />
    <path
       id="path3121"
       d="m 26.386559,25.662701 c -1.501577,-0.284775 -2.708328,-1.221606 -3.226698,-2.504962 -0.439709,-1.088606 -0.489086,-2.703146 -0.117227,-3.833036 0.473054,-1.437369 1.656517,-2.46286 3.226178,-2.795535 0.661334,-0.140164 1.823557,-0.140164 2.484889,0 1.564775,0.331641 2.743578,1.34996 3.225978,2.786793 0.297421,0.885876 0.329246,2.257823 0.07554,3.256633 -0.3816,1.502324 -1.498483,2.591266 -3.099379,3.02184 -0.488433,0.131368 -2.021743,0.172109 -2.569284,0.06827 z m 1.8434,-2.049332 C 28.975972,23.35122 29.348388,22.82951 29.529615,21.7927 29.7186,20.711516 29.4927,19.625307 28.950414,19.007678 c -0.360876,-0.411016 -1.14768,-0.647384 -1.788927,-0.537421 -0.837881,0.143681 -1.357921,0.65876 -1.619032,1.603587 -0.110975,0.401566 -0.124574,1.526726 -0.02337,1.933464 0.235778,0.947572 0.807372,1.551033 1.594745,1.683658 0.324907,0.05473 0.841838,0.01879 1.116125,-0.0776 z m 19.117319,2.047521 c -0.468587,-0.105866 -0.925893,-0.347807 -1.275414,-0.674766 -0.570604,-0.533771 -0.806961,-1.17413 -0.760266,-2.059776 0.0607,-1.151223 0.556993,-1.853584 1.682471,-2.381051 0.714677,-0.334941 1.628944,-0.565077 2.971586,-0.747994 0.886506,-0.120776 0.794846,-0.05365 0.794846,-0.582056 0,-0.619131 -0.09888,-0.827949 -0.480437,-1.014628 -0.235515,-0.115228 -0.336099,-0.134177 -0.70442,-0.132703 -0.728821,0.0029 -1.100621,0.254911 -1.270762,0.86129 l -0.08309,0.296141 H 46.950716 45.67964 l 0.03297,-0.321778 c 0.131505,-1.28357 0.897541,-2.073403 2.300473,-2.371937 0.393718,-0.08378 0.663238,-0.103654 1.40612,-0.103681 2.235831,-9.9e-5 3.327469,0.474565 3.756922,1.633499 0.08301,0.224004 0.09345,0.515621 0.122567,3.424241 0.03234,3.230193 0.03607,3.296087 0.222796,3.936972 l 0.03257,0.111775 h -1.218042 -1.218043 l -0.05645,-0.161454 c -0.03105,-0.0888 -0.06952,-0.285861 -0.08549,-0.437918 l -0.02904,-0.276463 -0.235923,0.229796 c -0.256561,0.249899 -0.769137,0.521562 -1.316696,0.697841 -0.443464,0.142768 -1.564604,0.183653 -2.047081,0.07465 z m 2.442409,-2.01593 c 0.446032,-0.21421 0.755956,-0.614176 0.903284,-1.165712 0.07065,-0.264496 0.09355,-1.217108 0.02925,-1.217108 -0.117258,0 -1.995465,0.568198 -2.167023,0.655571 -0.530924,0.270394 -0.760567,0.607477 -0.709219,1.041031 0.07146,0.603379 0.441602,0.845907 1.250312,0.819243 0.347687,-0.01145 0.501865,-0.04104 0.693396,-0.133025 z M 14.296943,19.597932 v -5.936507 h 1.490336 1.490336 v 4.66972 4.669721 h 2.310022 2.31002 v 1.266785 1.266787 h -3.800356 -3.800358 z m 19.62276,-0.0027 v -5.939247 l 3.514709,0.01889 c 3.374624,0.01814 3.531888,0.02308 3.945718,0.12397 1.445196,0.35232 2.274716,1.119296 2.634813,2.436153 0.08533,0.31204 0.10537,0.532936 0.109051,1.201983 0.0043,0.777361 -0.0027,0.840206 -0.135236,1.217108 -0.280583,0.797939 -0.886259,1.487797 -1.635483,1.862795 -0.218494,0.10936 -0.426887,0.198837 -0.463095,0.198837 -0.03621,0 -0.07879,0.02097 -0.09464,0.04661 -0.01584,0.02564 0.564069,1.086598 1.288693,2.357698 0.724624,1.271099 1.317498,2.334643 1.317498,2.36343 0,0.03589 -0.523955,0.04823 -1.66698,0.03926 l -1.666979,-0.01309 -1.154871,-2.111309 -1.154871,-2.111311 -0.928828,-0.01352 -0.928829,-0.01352 v 2.137244 2.137245 h -1.490337 -1.490335 z m 6.419015,-0.681534 c 0.256992,-0.11916 0.524296,-0.365039 0.63699,-0.585936 0.155206,-0.304231 0.219338,-0.820859 0.150774,-1.214588 -0.0998,-0.5731 -0.307451,-0.862207 -0.773495,-1.076925 -0.240415,-0.110764 -0.299825,-0.114938 -1.850501,-0.129974 l -1.602111,-0.01553 v 1.571047 1.571046 l 1.62695,-0.0168 c 1.411267,-0.01459 1.651402,-0.02815 1.811393,-0.102329 z"
       style="fill:#000000;stroke-width:0.04967787"
       inkscape:connector-curvature="0"
       sodipodi:nodetypes="sccsscsssccscccccsssscsccscccsccsssccccccccsccscsccccccccccccccccccscsccscsscccccccccccccssccccccc" />
    <path
       style="clip-rule:evenodd;fill:#757575;fill-rule:evenodd;stroke-width:0.99999994;stroke-linecap:round;stroke-linejoin:round;stroke-miterlimit:1.5"
       d="m 89.990234,372.16602 c -1.23901,-0.0496 -2.50739,0.0842 -3.767578,0.42187 -6.72,1.801 -10.713107,8.71947 -8.912109,15.43945 0.07899,0.29503 0.166639,0.5853 0.265625,0.86914 -2.707,2.00999 -5.106188,4.41116 -7.117188,7.11719 -0.283997,-0.0979 -0.574148,-0.18858 -0.86914,-0.26758 -6.72,-1.8 -13.638452,2.19407 -15.439453,8.91407 -1.800998,6.72 2.194062,13.63945 8.914062,15.43945 0.293,0.079 0.585917,0.14605 0.878906,0.20312 0.387999,3.42101 1.282472,6.69049 2.605469,9.73047 -0.224999,0.19499 -0.445189,0.39936 -0.658203,0.61328 -4.92,4.92 -4.92,12.90813 0,17.82813 4.918998,4.91902 12.90717,4.91902 17.826172,0 0.213997,-0.214 0.420248,-0.43332 0.615234,-0.6582 3.039999,1.32196 6.307514,2.21449 9.728516,2.60351 0.05598,0.29299 0.125115,0.58599 0.203125,0.87891 1.801001,6.72 8.718448,10.71504 15.439448,8.91406 6.72001,-1.8 10.71312,-8.71843 8.91211,-15.43945 -0.079,-0.29499 -0.16762,-0.5853 -0.26562,-0.86914 2.707,-2.00999 5.10814,-4.41018 7.11914,-7.11719 0.284,0.0983 0.5722,0.18859 0.86719,0.26758 6.721,1.80098 13.63845,-2.19304 15.43945,-8.91407 0.0806,-0.30107 0.13765,-0.6029 0.19531,-0.90429 l -5.64648,7.63672 c -0.14058,0.18922 -0.36194,0.30134 -0.59766,0.30273 h -7.5 c -0.31902,4.8e-4 -0.60345,-0.20089 -0.70898,-0.50195 l -2.35742,-6.79492 -1.91211,-0.51172 1.44336,-0.83399 -0.57422,-1.6582 -6.62891,-1.77539 -2.30469,11.4707 c -0.0687,0.34975 -0.37405,0.60284 -0.73047,0.60547 h -9.99218 l 2.60742,9.73242 1.86133,-3.2207 1.04687,3.91016 -2.86328,4.95703 -4.95703,-2.86328 -1.04687,-3.91016 3.22265,1.86133 -5.546874,-20.69922 -1.859375,3.2207 -1.048828,-3.9082 2.861328,-4.95703 4.958989,2.86133 1.04687,3.91015 -3.22266,-1.86133 2.32227,8.66797 2.0332,-10.16601 -2.15429,-0.57617 -2.86328,-4.95704 4.95898,-2.86328 1.64844,0.44141 0.5332,-2.66797 -2.19141,2.19141 h -5.72461 v -5.72461 l 2.86133,-2.86133 v 3.7207 l 6.98438,-6.98437 0.67773,-3.38867 c 0.0693,-0.35262 0.37892,-0.60656 0.73828,-0.60547 h 2.58008 l 4.17383,-4.17383 h -3.7207 l 2.86132,-2.86328 h 5.72461 v 5.72461 l -1.3125,1.3125 h 5.88868 c 0.31902,-4.8e-4 0.60345,0.20089 0.70898,0.50195 l 1.29492,3.67383 c 0.16567,-0.14899 0.33056,-0.29741 0.49024,-0.45703 4.92,-4.91902 4.92,-12.9072 0,-17.82618 -4.92,-4.92 -12.90618,-4.92 -17.82618,0 -0.21299,0.21302 -0.41829,0.43213 -0.61328,0.65626 -3.04,-1.32201 -6.30947,-2.21453 -9.73047,-2.60352 -0.057,-0.293 -0.12511,-0.5869 -0.20312,-0.87891 -1.46331,-5.46081 -6.302831,-9.12122 -11.671876,-9.33593 z m -1.177734,10.08007 4.957031,2.86329 1.046875,3.91015 -3.222656,-1.86133 5.546875,20.70118 1.861328,-3.22266 1.046877,3.91016 -2.86133,4.95703 -4.958984,-2.86329 -1.046875,-3.91015 3.222656,1.86133 -5.546875,-20.69922 -1.861328,3.22265 -1.046875,-3.91015 z m 31.29102,14.01758 -2.17188,2.17188 h 2.17188 z m -51.335942,8.12305 3.910156,1.04883 -3.222656,1.85937 20.699219,5.54688 -1.859375,-3.22266 3.908203,1.04688 2.863281,4.95703 -4.958984,2.86328 -3.910156,-1.04688 3.224609,-1.86133 -20.701172,-5.54687 1.861328,3.22266 -3.910156,-1.04688 -2.863281,-4.95898 z m 40.162112,3.05078 -3.98047,3.98047 h 3.18359 z m 9.11914,12.87891 4.94531,1.32421 c -3.71551,-9.15486 -2.48571,-13.56966 -4.94531,-1.32421 z m 15.08398,-7.52735 2.01953,5.72656 2.45704,-3.35937 c -1.28042,-1.05736 -2.78834,-1.87389 -4.47657,-2.36719 z m -26.09961,4.12891 -0.52734,0.30469 0.44336,0.11914 z m -16.916012,1.60351 h 5.724609 v 5.72461 l -2.861328,2.86133 v -3.7207 l -15.154297,15.15234 h 3.722656 l -2.863281,2.86328 h -5.724609 v -5.72461 l 2.861328,-2.86132 v 3.7207 l 15.154296,-15.15234 h -3.720703 z m 15.654292,1.4375 0.48633,0.8418 0.13477,-0.67578 z"
       transform="matrix(0.26458333,0,0,0.26458333,-0.92872784,-1.1324426)"
       id="path895"
       inkscape:connector-curvature="0"
       sodipodi:nodetypes="ccccccscccccccccccccccccccccccccccccccccccccccccccccccccccccccccccccccccccccccccccccccccccccccccccccccccccccccccccccccccccccccccccccccccccccccccccccc" />
  </g>
</svg>
