<?xml version="1.0" encoding="UTF-8" standalone="no"?>
<svg
   xmlns:dc="http://purl.org/dc/elements/1.1/"
   xmlns:cc="http://creativecommons.org/ns#"
   xmlns:rdf="http://www.w3.org/1999/02/22-rdf-syntax-ns#"
   xmlns:svg="http://www.w3.org/2000/svg"
   xmlns="http://www.w3.org/2000/svg"
   xmlns:sodipodi="http://sodipodi.sourceforge.net/DTD/sodipodi-0.dtd"
   xmlns:inkscape="http://www.inkscape.org/namespaces/inkscape"
   width="100%"
   height="100%"
   viewBox="0 0 800 600"
   version="1.1"
   xml:space="preserve"
   style="fill-rule:evenodd;clip-rule:evenodd;stroke-linecap:round;stroke-linejoin:round;stroke-miterlimit:1.5;"
   id="svg1191"
   sodipodi:docname="whooping-cough-icon.svg"
   inkscape:version="0.92.5 (2060ec1f9f, 2020-04-08)"><sodipodi:namedview
   pagecolor="#ffffff"
   bordercolor="#666666"
   borderopacity="1"
   objecttolerance="10"
   gridtolerance="10"
   guidetolerance="10"
   inkscape:pageopacity="0"
   inkscape:pageshadow="2"
   inkscape:window-width="2800"
   inkscape:window-height="1672"
   id="namedview28"
   showgrid="false"
   inkscape:zoom="1.5733333"
   inkscape:cx="384.70821"
   inkscape:cy="338.14369"
   inkscape:window-x="80"
   inkscape:window-y="54"
   inkscape:window-maximized="1"
   inkscape:current-layer="svg1191" /><metadata
   id="metadata1197"><rdf:RDF><cc:Work
       rdf:about=""><dc:format>image/svg+xml</dc:format><dc:type
         rdf:resource="http://purl.org/dc/dcmitype/StillImage" /><dc:title></dc:title></cc:Work></rdf:RDF></metadata><defs
   id="defs1195" />
    
    
<path
   style="clip-rule:evenodd;opacity:1;fill:none;fill-opacity:1;fill-rule:evenodd;stroke:#000000;stroke-width:18.89763832;stroke-linecap:round;stroke-linejoin:round;stroke-miterlimit:4;stroke-dasharray:none;stroke-dashoffset:0;stroke-opacity:1"
   d="m 481.7277,150.92606 a 81.72773,81.72773 0 0 1 -81.72773,81.72773 81.72773,81.72773 0 0 1 -81.72773,-81.72773 81.72773,81.72773 0 0 1 81.72773,-81.727734 81.72773,81.72773 0 0 1 81.72773,81.727734 z"
   id="path828" /><path
   inkscape:connector-curvature="0"
   id="path832"
   d="m 321.8888,277.20816 c -33.40551,1.70231 -57.72589,18.54916 -73.77419,49.18017 l -24.59006,117.16775 c -3.26892,27.82446 1.07827,51.61406 30.37668,62.19704 0,0 27.32665,6.02398 41.22605,7.23423 69.6516,6.06477 140.09383,6.06477 209.74544,0 13.8994,-1.21025 41.22607,-7.23423 41.22607,-7.23423 29.29838,-10.58298 33.64557,-34.37258 30.37667,-62.19704 L 551.88137,326.38833 c -16.04829,-30.63101 -40.36471,-47.47786 -73.77023,-49.18017 h -65.09231 -26.03771 z"
   style="clip-rule:evenodd;fill:none;fill-rule:evenodd;stroke:#000000;stroke-width:18.89763832;stroke-linecap:butt;stroke-linejoin:miter;stroke-miterlimit:4;stroke-dasharray:none;stroke-opacity:1" /><path
   style="fill:none;stroke:#000000;stroke-width:14;stroke-linecap:round;stroke-linejoin:miter;stroke-opacity:1;stroke-miterlimit:1.5;stroke-dasharray:none"
   d="M 508.47458,153.81356 576.48305,140.4661"
   id="path946"
   inkscape:connector-curvature="0" /><path
   style="clip-rule:evenodd;fill:none;fill-rule:evenodd;stroke:#000000;stroke-width:14;stroke-linecap:round;stroke-linejoin:miter;stroke-miterlimit:1.5;stroke-dasharray:none;stroke-opacity:1"
   d="m 507.96454,176.6163 90.63871,3.9708"
   id="path946-7"
   inkscape:connector-curvature="0" /><path
   style="clip-rule:evenodd;fill:none;fill-rule:evenodd;stroke:#000000;stroke-width:14;stroke-linecap:round;stroke-linejoin:miter;stroke-miterlimit:1.5;stroke-dasharray:none;stroke-opacity:1"
   d="m 503.65528,199.15886 65.57079,22.445"
   id="path946-5"
   inkscape:connector-curvature="0" /><path
   style="opacity:1;fill:none;fill-opacity:1;stroke:#000000;stroke-width:14;stroke-linecap:round;stroke-linejoin:round;stroke-miterlimit:1.5;stroke-dasharray:none;stroke-dashoffset:0;stroke-opacity:1;paint-order:normal"
   d="m 564.90917,270.12751 c 25.28164,4.37449 50.22768,-9.31927 60.11046,-32.99687 m 0,0 c 20.34904,-5.62264 35.64101,-22.461 39.28344,-43.25596 4.18389,-24.2037 -8.29073,-48.22583 -30.49605,-58.72573 -5.46943,-19.9123 -21.9312,-34.88515 -42.27132,-38.447997"
   id="path978"
   inkscape:connector-curvature="0"
   sodipodi:nodetypes="cccccc" /></svg>