<?xml version="1.0" encoding="UTF-8" standalone="no"?>
<!DOCTYPE svg PUBLIC "-//W3C//DTD SVG 1.1//EN" "http://www.w3.org/Graphics/SVG/1.1/DTD/svg11.dtd">
<svg width="100%" height="100%" viewBox="0 0 200 200" version="1.1" xmlns="http://www.w3.org/2000/svg" xmlns:xlink="http://www.w3.org/1999/xlink" xml:space="preserve" xmlns:serif="http://www.serif.com/" style="fill-rule:evenodd;clip-rule:evenodd;stroke-linecap:round;stroke-linejoin:round;stroke-miterlimit:1.5;">
    <path d="M65.954,115.163L79.038,115.163" style="fill:none;stroke:rgb(51,51,51);stroke-width:4px;"/>
    <path d="M116.429,115.163L130.539,115.163" style="fill:none;stroke:rgb(51,51,51);stroke-width:4px;"/>
    <path d="M78.012,63.31C85.249,68.457 91.361,73.928 93.683,81.555C95.344,87.013 99.357,92.706 106.732,92.658L124.35,92.658" style="fill:none;stroke:rgb(51,51,51);stroke-width:4px;"/>
    <path d="M67.324,62.28C80.566,62.452 91.971,66.282 100.447,75.948C102.753,78.577 109.15,78.157 114.116,76.9C133.944,71.879 153.284,71.569 172.853,69.879" style="fill:none;stroke:rgb(51,51,51);stroke-width:4px;"/>
    <path d="M15.494,96.831C28.513,96.361 33.384,89.369 33.027,78.192" style="fill:none;stroke:rgb(51,51,51);stroke-width:4px;"/>
    <path d="M52.724,73.582C67.971,87.292 77.537,103.649 81.974,122.393L114.007,122.393C116.476,109.329 121.608,96.54 130.551,84.146C132.457,81.401 134.67,80.003 137.055,79.356L173.251,69.745C179.857,77.772 183.104,85.358 183.652,92.589L155.106,92.589C152,95.702 150.172,98.953 149.304,102.306" style="fill:none;stroke:rgb(51,51,51);stroke-width:4px;"/>
    <path d="M21.175,119.205C17.796,115.843 15.347,111.776 14.603,106.418C13.701,99.931 16.046,93.381 17.841,86.879C19.814,79.734 26.045,79.547 30.996,78.399L52.73,73.647C56.684,68.895 61.325,64.875 67.368,62.345C69.321,57.153 72.853,52.511 77.647,48.308L93.708,48.308" style="fill:none;stroke:rgb(51,51,51);stroke-width:4px;"/>
    <g>
        <g transform="matrix(1.07338,0,0,1.07338,-9.59816,-11.5357)">
            <circle cx="50.445" cy="127.834" r="21.72" style="fill:none;stroke:rgb(51,51,51);stroke-width:3.73px;"/>
        </g>
        <g transform="matrix(0.392685,0,0,0.392685,24.4776,75.0454)">
            <circle cx="50.445" cy="127.834" r="21.72" style="fill:none;stroke:rgb(51,51,51);stroke-width:10.19px;"/>
        </g>
    </g>
    <g transform="matrix(1,0,0,1,107,0)">
        <g transform="matrix(1.07338,0,0,1.07338,-9.59816,-11.5357)">
            <circle cx="50.445" cy="127.834" r="21.72" style="fill:none;stroke:rgb(51,51,51);stroke-width:3.73px;"/>
        </g>
        <g transform="matrix(0.392685,0,0,0.392685,24.4776,75.0454)">
            <circle cx="50.445" cy="127.834" r="21.72" style="fill:none;stroke:rgb(51,51,51);stroke-width:10.19px;"/>
        </g>
    </g>
</svg>
