<?xml version="1.0" encoding="UTF-8" standalone="no"?>
<!DOCTYPE svg PUBLIC "-//W3C//DTD SVG 1.1//EN" "http://www.w3.org/Graphics/SVG/1.1/DTD/svg11.dtd">
<svg width="100%" height="100%" viewBox="0 0 200 200" version="1.1" xmlns="http://www.w3.org/2000/svg" xmlns:xlink="http://www.w3.org/1999/xlink" xml:space="preserve" xmlns:serif="http://www.serif.com/" style="fill-rule:evenodd;clip-rule:evenodd;stroke-linecap:round;stroke-linejoin:round;stroke-miterlimit:1.5;">
    <g transform="matrix(1,0,0,1,5.20428,-0.75369)">
        <path d="M48.311,78.208C57.613,75.748 61.116,69.739 59.655,60.691C50.881,63.456 46.248,68.771 48.311,78.208Z" style="fill:none;stroke:rgb(51,51,51);stroke-width:4px;"/>
        <path d="M65.207,112.6C77.016,122.374 91.236,126.635 110.009,120.481" style="fill:none;stroke:rgb(51,51,51);stroke-width:4px;"/>
        <path d="M39.305,105.475C42.057,113.154 47.238,117.417 54.48,118.781" style="fill:none;stroke:rgb(51,51,51);stroke-width:4px;"/>
        <path d="M52.818,113.493L63.518,140.817L69.577,140.817L69.577,125.158C72.915,124.569 75.366,122.893 77.083,120.319" style="fill:none;stroke:rgb(51,51,51);stroke-width:4px;"/>
        <path d="M103.218,106.073C106.572,120.782 116.292,128.619 131.706,130.308L131.706,140.735L139.764,140.735L146.273,117.22C160.161,108.226 154.115,70.579 131.706,70.772L60.27,70.772" style="fill:none;stroke:rgb(51,51,51);stroke-width:4px;"/>
        <path d="M46.371,70.772L43.334,70.772C35.919,79.527 26.676,84.096 15.647,84.577C17.649,99.493 27.831,105.255 43.334,105.062" style="fill:none;stroke:rgb(51,51,51);stroke-width:4px;"/>
        <g transform="matrix(1,0,0,1,-2.19717,-1.45876)">
            <circle cx="42.368" cy="83.443" r="1.678" style="fill:white;" />
        </g>
        <path d="M153.953,98.817C159.311,105.985 171.738,99.506 163.822,90.019C153.261,98.76 171.288,108.589 173.944,95.081" style="fill:none;stroke:rgb(51,51,51);stroke-width:4px;"/>
    </g>
</svg>
