<?xml version="1.0" encoding="UTF-8" standalone="no"?>
<svg
   xmlns:dc="http://purl.org/dc/elements/1.1/"
   xmlns:cc="http://creativecommons.org/ns#"
   xmlns:rdf="http://www.w3.org/1999/02/22-rdf-syntax-ns#"
   xmlns:svg="http://www.w3.org/2000/svg"
   xmlns="http://www.w3.org/2000/svg"
   xmlns:sodipodi="http://sodipodi.sourceforge.net/DTD/sodipodi-0.dtd"
   xmlns:inkscape="http://www.inkscape.org/namespaces/inkscape"
   id="svg8"
   version="1.1"
   viewBox="0 0 892.77972 43.089287"
   height="43.089287mm"
   width="892.77972mm"
   sodipodi:docname="supported-manufacturers.svg"
   inkscape:version="0.92.5 (2060ec1f9f, 2020-04-08)">
  <sodipodi:namedview
     pagecolor="#ffffff"
     bordercolor="#666666"
     borderopacity="1"
     objecttolerance="10"
     gridtolerance="10"
     guidetolerance="10"
     inkscape:pageopacity="0"
     inkscape:pageshadow="2"
     inkscape:window-width="2800"
     inkscape:window-height="1672"
     id="namedview39"
     showgrid="false"
     inkscape:zoom="0.52099918"
     inkscape:cx="1636.4717"
     inkscape:cy="-747.98052"
     inkscape:window-x="80"
     inkscape:window-y="54"
     inkscape:window-maximized="1"
     inkscape:current-layer="g1057" />
  <defs
     id="defs2">
    <style
       id="style985">.cls-1{fill:#fff;}</style>
  </defs>
  <metadata
     id="metadata5">
    <rdf:RDF>
      <cc:Work
         rdf:about="">
        <dc:format>image/svg+xml</dc:format>
        <dc:type
           rdf:resource="http://purl.org/dc/dcmitype/StillImage" />
        <dc:title />
      </cc:Work>
    </rdf:RDF>
  </metadata>
  <g
     id="g1057"
     transform="translate(40.492249,1.7902133)">
    <g
       transform="matrix(0.37669201,0,0,0.37669201,369.40687,0.91977673)"
       id="g959"
       style="clip-rule:evenodd;fill-rule:evenodd;stroke-width:0.70238638;stroke-linejoin:round;stroke-miterlimit:1.41420996">
      <g
         style="stroke-width:0.70238638"
         transform="translate(0,6.71537)"
         id="g947">
        <path
           inkscape:connector-curvature="0"
           d="m 242.494,46.106 h 22.024 c 0,0 3.444,-16.602 -12.285,-17.834 -13.862,-1.086 -18.957,10.405 -19.035,15.381 -0.378,24.165 28.994,12.771 28.994,12.771 l 0.559,-6.819 c -3.34,1.907 -7.34,2.969 -11.849,3.379 -5.64,0.091 -8.24,-2.372 -8.408,-6.878 z m -101.997,-9.065 0.826,-7.181 c 0,0 -25.274,-7.752 -27.243,13.74 -1.969,21.492 24.709,13.91 24.709,13.91 L 139.424,50 c 0,0 -16.846,8.459 -15.575,-6.889 1.117,-13.484 16.648,-6.07 16.648,-6.07 z m 153.633,0 0.826,-7.181 c 0,0 -25.274,-7.752 -27.243,13.74 -1.969,21.492 24.709,13.91 24.709,13.91 L 293.057,50 c 0,0 -16.846,8.459 -15.575,-6.889 1.117,-13.484 16.648,-6.07 16.648,-6.07 z M 75.473,29.809 74.646,36.65 c 0,0 -9.226,-3.255 -13.667,-2.193 -4.441,1.062 -2.963,3.831 -0.766,5.017 2.423,1.309 6.586,0.382 10.006,2.026 7.099,3.412 7.113,10.886 0,15.887 -4.43,3.116 -21.4,0 -21.4,0 L 49.506,50 c 0,0 7.058,4.142 14.248,2.7 4.431,-0.889 3.744,-4.857 0,-5.558 -2.554,-0.479 -10.918,-1.095 -12.295,-4.031 -2.061,-4.395 -1.44,-10.46 3.455,-13.302 5.309,-3.084 20.559,0 20.559,0 z m 86.019,-1.371 c 11.972,0 15.701,7.825 14.843,14.673 -1.996,15.946 -13.263,15.65 -18.639,15.65 -10.212,0 -14.7,-6.983 -13.615,-15.65 1.228,-9.807 7.394,-14.673 17.411,-14.673 z m -64.834,0 c 11.972,0 15.701,7.825 14.844,14.673 -1.996,15.946 -13.264,15.65 -18.64,15.65 -10.212,0 -14.7,-6.983 -13.615,-15.65 1.228,-9.807 7.394,-14.673 17.411,-14.673 z M 42.021,58.761 H 30.743 V 47.508 L 5.044,58.761 V 47.508 L 21.312,40.141 C 15.626,38.901 10.188,39.009 5.044,40.726 V 29.311 c 0,0 9.886,-4.161 18.834,0 8.17,3.799 18.143,0 18.143,0 v 11.415 c -3.522,1.78 -7.287,2.184 -11.278,1.301 v 5.481 h 11.278 z m 147.135,-0.197 h -9.288 l 2.602,-30.066 h 9.304 v 4.468 c 4.874,-6.094 14.079,-6.629 17.746,0.619 5.398,-7.362 17.485,-7.312 19.28,1.721 -0.044,7.773 -0.624,15.522 -1.475,23.258 h -9.36 l 1.711,-18.17 c -0.166,-7.677 -7.486,-6.412 -9.48,0 l -1.857,18.17 h -9.38 l 1.585,-18.17 c 0.092,-6.842 -6.974,-7.229 -9.441,0 z M 160.727,34.779 c 3.85,-0.143 6.404,3.205 5.997,8.332 -0.468,5.899 -2.908,9.336 -7.413,9.504 -4.504,0.168 -6.071,-4.03 -5.675,-9.015 0.441,-5.554 3.241,-8.677 7.091,-8.821 z m -64.834,0 c 3.851,-0.143 6.405,3.205 5.998,8.332 -0.469,5.899 -2.908,9.336 -7.413,9.504 -4.505,0.168 -6.071,-4.03 -5.676,-9.015 0.441,-5.554 3.241,-8.677 7.091,-8.821 z m 147.252,5.638 h 12.18 c 0.43,-3.467 -2.038,-6.313 -4.828,-6.149 -4.365,0.257 -6.642,2.469 -7.352,6.149 z"
           style="fill:#707070;stroke-width:0.70238638"
           id="path945" />
      </g>
    </g>
    <g
       transform="matrix(0.26458333,0,0,0.26458333,9.1083071,6.0059095)"
       id="g857"
       style="clip-rule:evenodd;fill-rule:evenodd;stroke-linejoin:round;stroke-miterlimit:1.41420996">
      <path
         inkscape:connector-curvature="0"
         d="M 116.061,78.917 C 103.021,98.668 72.888,102 77.017,76 h 7.685 l 1.389,-3.81 h -7.718 c 0.295,-1.474 0.969,-2.325 1.674,-3.723 h 6.868 l 0.963,-3.401 h -5.531 c 14.375,-19.251 42.362,-20.668 38.901,3.006 h -9.565 l -1.033,3.603 h 9.217 l -1.524,3.634 h -8.531 l -1.023,3.608 z m 98.711,-6.478 6.698,-6.828 v 3.859 h 5.263 v 2.969 h -5.263 v 9.754 c 1.065,2.795 3.454,2.427 6.351,0.846 v 3.078 c -4.72,2.144 -8.207,1.576 -9.954,-2.823 V 72.439 Z m -43.557,6.284 h 12.234 c -0.837,-9.267 -8.026,-11.836 -13.304,-7.336 -4.161,3.548 -2.867,12.486 1.838,14.949 2.794,1.463 7.506,1.433 11.028,-1.067 v -3.476 c -6.17,3.879 -10.952,2.489 -11.796,-3.07 z m 90.406,8.298 H 258.37 V 69.597 h 3.251 z M 146.391,60.559 v 3.429 h -10.987 v 7.97 h 10.356 v 3.531 h -10.356 v 7.997 h 11.423 V 86.94 H 131.371 V 60.559 Z m 137.887,13.623 v -3.653 c 0,0 -12.956,-5.586 -13.644,7.437 -0.681,12.87 13.644,8.105 13.644,8.105 v -3.103 c -13.257,6.098 -14.327,-15.946 0,-8.786 z m -78.537,0 v -3.653 c 0,0 -12.956,-5.586 -13.644,7.437 -0.681,12.87 13.644,8.105 13.644,8.105 v -3.103 c -13.257,6.098 -14.327,-15.946 0,-8.786 z m -46.742,12.745 h -3.456 V 60.559 h 3.456 z M 240.145,69.47 v 3.725 c 2.65,-4.899 5.741,-4.99 9.133,-1.792 l -2.084,2.779 c -2.872,-2.81 -5.164,-1.709 -7.049,2.126 v 10.469 h -3.679 V 69.47 Z M 115.257,59.246 h -11.212 c -5.09,1.183 -8.076,3.926 -9.484,7.841 l -2.393,10.214 c -0.213,1.102 -0.855,1.78 -1.87,2.096 H 84.402 L 82.799,85.2 h 11.044 c 5.651,-0.813 10.027,-3.505 11.02,-11.172 0.638,-3.247 1.2,-6.544 2.673,-9.248 h 6.309 z m 55.958,17.028 h 8.697 c 0,0 -0.691,-4.165 -4.061,-4.165 -3.37,0 -4.636,4.165 -4.636,4.165 z M 258.37,66.03 c -1.134,-2.048 0.152,-3.973 3.251,-3.251 0.906,1.511 -0.169,4.316 -3.251,3.251 z m 4.654,-24.536 c -2.858,-27.727 -33.373,-18.944 -32.46,0 0.668,13.863 20.383,18.783 31.503,10.256 v -6.217 c -9.763,8.251 -20.969,4.312 -21.2,-4.039 z m -85.881,0 c -2.858,-27.727 -33.373,-18.944 -32.46,0 0.668,13.863 20.383,18.783 31.503,10.256 v -6.217 c -9.764,8.251 -20.969,4.312 -21.2,-4.039 z m 49.337,13.665 h -9.603 v -2.417 c 0,0 -8.926,7.213 -17.11,0 -9.394,-8.279 -5.789,-20.35 0,-25.418 6.408,-5.612 17.11,-1.737 17.11,-1.737 V 9.647 h 9.603 z M 38.695,21.664 v -8.808 c 0,0 -24.862,-11.096 -32.492,6.38 -3.079,7.052 4.998,15.565 14.2,17.761 15.011,3.583 7.828,10.621 2.764,10.296 C 11.382,46.537 7.16,41.532 7.16,41.532 v 9.691 c 0.173,2.449 16.47,6.864 26.717,1.876 7.835,-3.814 9.155,-14.421 2.913,-20.552 -3.455,-3.394 -10.685,-6.236 -13.623,-6.461 -6.494,-0.496 -9.782,-10.238 4.481,-8.674 2.675,0.293 11.047,4.252 11.047,4.252 z M 70.628,25.7 v 7.183 c -24.729,-9.558 -21.23,24.629 0,14.018 v 6.984 C 30.555,64.534 37.159,13.296 70.628,25.7 Z m 119.637,29.525 h -9.589 v -30.75 h 9.589 z M 110.367,45.082 V 24.484 h 9.894 v 3.969 c 5.576,-7.677 18.256,-6.425 20.913,5.049 v 21.654 c -5.061,0.101 -4.324,-0.008 -9.803,0 V 35.694 c -1.904,-6.83 -8.753,-6.156 -11.11,0 v 14.307 c -2.764,-2.226 -6.009,-3.923 -9.894,-4.919 z m 166.876,9.822 H 267.35 V 24.422 h 9.893 v 7.652 c 5.577,-7.677 8.55,-11.477 16.002,-5.028 l -2.868,8.961 c -5.973,-6.381 -10.776,-1.361 -13.134,4.795 z m -192.241,0 H 75.109 V 9.806 h 9.893 v 18.96 c 5.576,-7.677 18.256,-6.425 20.913,5.049 v 11.58 c -3.674,-0.399 -6.886,0.862 -9.802,3.407 V 36.007 c -1.905,-6.83 -8.754,-6.156 -11.111,0 z M 216.877,32.161 v 14.885 c -17.894,11.313 -16.982,-24.764 0,-14.885 z m 37.186,4.097 c -1.52,-8.814 -11.367,-8.14 -13.013,0 z m -85.882,0 c -1.519,-8.814 -11.366,-8.14 -13.012,0 z m 12.495,-17.642 c -4.2,-4.718 5.654,-11.973 9.589,-8.306 3.536,3.295 -4.853,13.624 -9.589,8.306 z"
         style="fill:#757575"
         id="path846" />
    </g>
    <g
       transform="matrix(0.26458333,0,0,0.26458333,124.62575,6.5252633)"
       id="g866"
       style="clip-rule:evenodd;fill-rule:evenodd;stroke-linejoin:round;stroke-miterlimit:1.41420996">
      <path
         inkscape:connector-curvature="0"
         id="path828-3"
         d="M 63.990467,74.550526 C 57.433012,73.376483 54.97733,69.685855 56.37393,63.103661 c 0.74657,-3.518609 2.909481,-6.536543 5.729947,-7.995064 3.201099,-1.655353 12.861685,-2.473943 19.113543,-1.619586 1.722233,0.235354 3.191842,0.367414 3.265782,0.293469 0.07395,-0.07394 0.303651,-1.224947 0.51044,-2.557783 0.688932,-4.440211 -0.286704,-5.162581 -6.620117,-4.901635 -4.464915,0.183962 -5.443741,0.673025 -5.965735,2.98072 l -0.325301,1.438137 H 66.06179 60.041092 l 0.225433,-1.409767 c 0.299493,-1.87291 1.639147,-4.457114 3.033322,-5.85129 1.518137,-1.518135 4.647196,-2.948772 7.654009,-3.49949 3.914337,-0.716935 16.391756,-0.620131 19.217274,0.149097 2.846275,0.774881 4.77207,2.108753 5.870229,4.065936 1.331162,2.372447 1.163422,6.229109 -0.802824,18.45863 -0.885515,5.507658 -1.691649,10.363543 -1.791406,10.79086 -0.178778,0.765748 -0.260961,0.776942 -5.699732,0.776942 h -5.518344 v -1.245521 c 0,-1.044938 -0.09731,-1.207921 -0.604287,-1.012048 -6.005153,2.32014 -13.213035,3.376843 -17.634299,2.585258 z m 14.14869,-7.384104 c 4.34454,-0.77484 4.502857,-0.910419 5.028797,-4.30634 0.247259,-1.596504 0.385595,-2.966688 0.307423,-3.044862 -0.07819,-0.07817 -1.67922,-0.286757 -3.557889,-0.463527 -3.5884,-0.337638 -7.712855,-0.02006 -9.052795,0.697055 -2.040029,1.091787 -2.853106,5.070342 -1.325703,6.486859 1.274437,1.181918 4.275783,1.402058 8.600167,0.630815 z m 177.779663,7.290424 c -2.91872,-0.567332 -4.54093,-1.37945 -6.01527,-3.011359 -1.41385,-1.564977 -1.72213,-2.887011 -1.51353,-6.490652 0.25621,-4.425743 2.13662,-7.710786 5.44429,-9.511044 3.74766,-2.03974 13.25069,-2.930876 20.21261,-1.895419 1.43961,0.214116 2.69524,0.311537 2.79028,0.216492 0.095,-0.09505 0.26341,-1.474492 0.37416,-3.065435 0.18708,-2.687664 0.14684,-2.941559 -0.56793,-3.583241 -0.68473,-0.614705 -1.25591,-0.690615 -5.1967,-0.690615 -5.13471,0 -6.03316,0.378143 -6.84166,2.879552 l -0.46441,1.436794 h -5.97897 -5.97897 l 0.42795,-1.812865 c 0.87133,-3.691152 2.44181,-5.733026 5.6385,-7.330965 2.68848,-1.343893 5.80541,-1.880722 12.34522,-2.126204 11.34579,-0.425882 16.04958,1.030767 17.99454,5.572458 0.95334,2.226167 0.70009,5.946387 -1.21406,17.834042 -0.96778,6.010334 -1.7596,11.021613 -1.7596,11.136169 0,0.114556 -2.57095,0.208283 -5.71322,0.208283 h -5.71322 l 0.22673,-1.208575 c 0.1247,-0.664719 0.13749,-1.208574 0.0284,-1.208574 -0.10907,0 -0.94608,0.294744 -1.86004,0.655 -4.60043,1.813314 -12.64721,2.777166 -16.66514,1.996158 z m 14.1576,-7.277746 c 4.52238,-0.739987 4.71436,-0.880471 5.1816,-3.791768 0.21705,-1.35236 0.46744,-2.718753 0.55644,-3.036429 0.13237,-0.472537 -0.20204,-0.625984 -1.83853,-0.843639 -3.08647,-0.410512 -8.41856,-0.320559 -9.84476,0.166076 -1.66064,0.566636 -2.87594,2.035141 -3.16135,3.819991 -0.29183,1.825024 0.46226,3.386617 1.7751,3.675903 0.51882,0.114325 1.0987,0.259697 1.28862,0.323051 0.79661,0.265736 3.29677,0.13616 6.04288,-0.313185 z M 19.728362,74.195286 c -3.051081,-0.452213 -6.22474,-2.039678 -7.361551,-3.682255 -1.682788,-2.431442 -1.898991,-5.14281 -0.881309,-11.052093 l 0.37168,-2.158173 h 5.69453 5.694531 l -0.233824,1.700163 c -0.355877,2.587484 -0.280286,4.837262 0.181202,5.393326 0.72125,0.869055 2.871493,1.271164 6.118372,1.144178 3.458851,-0.135274 4.658639,-0.681694 5.566559,-2.535182 0.261043,-0.532902 1.698896,-8.599126 3.195235,-17.924947 1.49633,-9.325822 2.800753,-17.305661 2.898712,-17.732979 0.176103,-0.768224 0.243902,-0.776942 6.041749,-0.776942 3.225008,0 5.863654,0.07171 5.863654,0.159345 0,1.0089 -5.669967,35.04315 -6.071301,36.443264 -0.742909,2.591768 -2.639144,5.909083 -4.121929,7.210979 -1.649252,1.44807 -4.181576,2.693278 -6.806557,3.346969 -2.627784,0.654383 -12.878918,0.949127 -16.149753,0.464347 z m 161.586918,-0.09744 c -2.27923,-0.614706 -3.96891,-1.780322 -4.64447,-3.203967 -1.06632,-2.247122 -1.00714,-4.628782 0.32489,-13.07315 0.68905,-4.368142 1.34623,-8.602478 1.46043,-9.409634 l 0.20764,-1.467558 h -2.48736 c -2.20637,0 -2.4673,-0.06827 -2.30978,-0.604288 0.0977,-0.332359 0.35911,-1.886243 0.58096,-3.453077 l 0.40337,-2.848788 h 2.51973 2.51973 l 0.42619,-3.118616 c 0.23439,-1.715236 0.59767,-3.230273 0.80728,-3.366749 0.77196,-0.502599 11.94895,-2.373052 11.94664,-1.999249 -9.2e-4,0.203434 -0.31101,2.156851 -0.68833,4.340922 -0.37732,2.18407 -0.68706,4.009886 -0.68833,4.057365 -0.002,0.04748 3.33856,0.08632 7.42183,0.08632 h 7.42411 l -0.0263,0.776942 c -0.0145,0.427318 -0.21358,1.942356 -0.4425,3.366749 l -0.41622,2.589808 -7.47359,0.09299 -7.47359,0.09299 -0.19125,0.942932 c -0.55396,2.731301 -2.62318,16.547327 -2.62318,17.514683 0,1.647805 0.6504,2.007213 3.32427,1.836956 2.74074,-0.174527 3.39357,-0.763259 3.75425,-3.385704 l 0.23775,-1.72866 h 5.62301 5.623 l -0.48066,2.293031 c -1.11117,5.300979 -4.12247,8.342923 -9.51813,9.61499 -2.7199,0.641244 -12.82883,0.676457 -15.14141,0.05274 z m -77.33184,-0.49235 c 0,-0.339537 1.16464,-7.914729 2.58811,-16.833746 1.42346,-8.919025 2.58887,-16.332946 2.5898,-16.475385 9.2e-4,-0.142439 2.48791,-0.258981 5.52662,-0.258981 h 5.52492 v 1.535743 1.535742 l 2.15818,-1.009877 c 7.35206,-3.440263 16.57301,-3.535209 20.2341,-0.208352 2.87292,2.610644 2.97639,5.983233 0.6318,20.591743 -0.8992,5.602621 -1.71108,10.536198 -1.80418,10.963515 -0.16762,0.769271 -0.22835,0.776942 -6.14416,0.776942 h -5.97488 l 1.65574,-10.272904 c 0.91066,-5.650092 1.65995,-11.21699 1.66511,-12.370881 0.008,-1.816118 -0.11046,-2.21045 -0.88259,-2.935116 -0.81002,-0.760222 -1.18279,-0.837132 -4.05737,-0.837132 -4.04863,0 -7.7552,0.938184 -7.99935,2.02475 -0.0912,0.405739 -0.94597,5.710142 -1.89955,11.787552 -0.95358,6.077424 -1.81282,11.399472 -1.9094,11.826789 -0.17366,0.768321 -0.24067,0.776942 -6.03925,0.776942 -5.40148,0 -5.86365,-0.04868 -5.86365,-0.617344 z m 47.99776,0.06399 c 0,-0.304343 1.16541,-7.928099 2.58981,-16.941674 1.42439,-9.013569 2.58981,-16.456289 2.58981,-16.53937 0,-0.08309 2.72226,-0.151059 6.04946,-0.151059 h 6.04946 l -0.17854,0.776943 c -0.0982,0.427318 -1.26601,7.769422 -2.59512,16.315787 -1.32911,8.546361 -2.49778,15.888467 -2.59707,16.315784 -0.17845,0.768137 -0.24702,0.776942 -6.04416,0.776942 -5.14862,0 -5.86365,-0.06749 -5.86365,-0.553353 z m 56.99724,-0.223589 c 0.0118,-0.427317 0.28372,-2.281377 0.60428,-4.120131 l 0.58283,-3.343197 9.6601,-8.742572 9.66011,-8.742576 -7.7222,-0.09306 -7.72221,-0.09306 0.19073,-1.806132 c 0.1049,-0.993371 0.37537,-2.855003 0.60102,-4.136958 l 0.41031,-2.330827 h 14.99201 14.99201 l -0.17514,0.776943 c -0.0963,0.427318 -0.40347,2.253132 -0.68254,4.057365 -0.4866,3.145887 -0.56412,3.329988 -1.89021,4.488999 -0.76054,0.664718 -5.1087,4.627123 -9.66259,8.805346 l -8.27978,7.59677 8.81081,0.09221 8.81081,0.09221 -0.17989,0.943714 c -0.099,0.519043 -0.35534,2.109128 -0.56976,3.533519 -0.21442,1.424391 -0.46648,2.861737 -0.56013,3.194092 -0.159,0.56427 -1.22062,0.604287 -16.03116,0.604287 h -15.86088 l 0.0215,-0.776942 z m -50.7806,-39.365071 c 7e-4,-0.2374 0.23473,-1.830132 0.52027,-3.539405 0.28554,-1.709273 0.60286,-3.612781 0.70516,-4.230018 l 0.186,-1.12225 h 6.06417 c 4.70828,0 6.02766,0.09651 5.90081,0.431634 -0.0899,0.237399 -0.45223,2.335143 -0.80528,4.661654 l -0.64191,4.230019 h -5.96516 c -4.5425,0 -5.96489,-0.102943 -5.96406,-0.431634 z"
         style="fill:#707070;fill-opacity:1;stroke-width:0.99999994" />
    </g>
    <g
       style="stroke-width:1.07915187"
       transform="matrix(0.92675837,0,0,0.92654893,-582.31494,-185.79893)"
       id="g1021">
      <path
         inkscape:connector-curvature="0"
         d="m 1191.2555,209.76582 h 11.8 v 11.62801 h -11.8 z m 12.2592,17.92721 c 0,1.70043 -0.6314,3.17631 -1.8911,4.4227 -1.2212,1.21077 -2.7106,1.81517 -4.4681,1.81517 -1.7179,0 -3.2073,-0.6044 -4.4661,-1.81517 -1.2221,-1.24639 -1.8337,-2.72227 -1.8337,-4.4227 0,-1.74098 0.6116,-3.21687 1.8337,-4.42665 1.2588,-1.24837 2.7482,-1.87255 4.4661,-1.87255 1.7575,0 3.2469,0.62418 4.4681,1.87255 1.2597,1.20978 1.8911,2.68567 1.8911,4.42665 z m -2.9233,-15.54423 h -6.9292 l 3.4359,3.34546 z m 0,6.86304 v -3.29006 l -3.4359,3.23368 -3.4933,-3.23368 v 3.29006 z m 0.3454,9.8702 h -4.1257 v -2.43836 h 4.0673 c -0.6096,-1.7766 -1.8516,-2.66688 -3.7229,-2.66688 -1.0688,0 -1.9861,0.37689 -2.7491,1.1356 -0.764,0.75575 -1.146,1.68262 -1.146,2.78063 0,1.05646 0.382,1.96455 1.146,2.72029 0.763,0.75773 1.6803,1.13461 2.7491,1.13461 1.9099,0 3.1707,-0.8883 3.7813,-2.66589 z"
         id="path110"
         style="fill:#707070;fill-opacity:1;fill-rule:evenodd;stroke:none;stroke-width:0.12455456;stroke-linecap:butt;stroke-linejoin:miter;stroke-miterlimit:3.86400008;stroke-dasharray:none;stroke-opacity:1" />
      <path
         style="fill:#707070;fill-opacity:1;fill-rule:nonzero;stroke:none;stroke-width:1.00000012"
         d="m 2127.4316,39.347656 v 83.914064 h 490.8809 V 39.347656 Z m 245.4786,18.470703 c 6.9255,0 13.6678,1.569285 18.2851,3.810547 v 10.132813 c -5.9101,-2.850946 -11.6268,-4.242188 -17.332,-4.242188 -12.5793,0 -16.9844,7.768942 -16.9844,14.634766 0,8.223727 6.4401,13.595703 16.0313,13.595703 2.8529,0 4.223,-0.283161 7.6269,-1.644531 v -5.369141 h -6.6738 V 80.25 h 18.2851 v 18.878906 c -3.4662,3.609564 -12.0211,6.322264 -19.498,6.322264 -16.1738,0 -27.7305,-9.867217 -27.7305,-23.730467 0,-14.140392 11.4666,-23.902344 27.9903,-23.902344 z m -228.9473,0.607422 h 10.0527 l 14.8184,17.232422 14.9043,-17.232422 h 10.0527 v 46.417969 h -11.5254 V 75.832031 l -12.4785,14.548828 h -1.8203 l -12.4785,-14.548828 v 29.011719 h -11.5254 z m 118.459,0 h 9.7929 v 46.417969 h -9.7929 z m 21.9258,0 c 1.711,-0.04913 3.1545,0.742942 3.7265,2.251953 0.9114,2.417934 -0.7011,5.808089 -3.6406,7.533204 -2.936,1.73548 -6.1078,1.201576 -7.0195,-1.212891 -0.9079,-2.421401 0.7906,-5.794221 3.7265,-7.533203 1.1034,-0.650797 2.1808,-1.011047 3.2071,-1.039063 z m 182.7597,0 c 1.71,-0.04913 3.1547,0.742942 3.7246,2.251953 0.9083,2.417934 -0.7921,5.808089 -3.7246,7.533204 -2.9395,1.73548 -6.0187,1.201576 -6.9336,-1.212891 -0.9152,-2.421401 0.6942,-5.794221 3.6407,-7.533203 1.0984,-0.650797 2.2666,-1.011047 3.2929,-1.039063 z m -252.0859,14.462891 c 9.113,0 16.68,6.418761 16.2051,17.839844 h -22.5313 c 0.3398,5.573721 4.132,8.832031 10.3125,8.832031 3.9444,0 6.9944,-1.176428 11.6113,-4.501953 v 6.234376 c -5.6428,4.14291 -11.5073,4.1582 -13.9511,4.1582 -11.0157,0 -18.1973,-6.405806 -18.1973,-16.195311 0,-9.588564 6.9008,-16.367187 16.5508,-16.367187 z m 39.8613,0 c 1.9619,0 3.7333,0.747797 6.586,2.857422 l -2.7735,8.660156 c -2.5752,-1.628111 -4.2449,-2.251953 -5.8047,-2.251953 -3.6015,0 -5.8871,3.315656 -8.0605,9.09375 v 13.595703 h -9.8789 V 73.494141 h 9.8789 v 8.919921 h 0.088 c 2.9223,-6.522881 6.1556,-9.52539 9.9648,-9.52539 z m 58.3203,0 c 4.8944,0 11.4395,2.787985 11.4395,12.037109 v 19.917969 h -9.8789 V 85.705078 c 0,-4.423657 -2.0664,-6.236328 -4.8535,-6.236328 -2.4505,0 -4.26,1.324425 -6.8457,5.197266 v 20.177734 h -9.879 V 73.494141 h 9.879 v 4.503906 c 3.123,-3.602668 6.128,-5.109375 10.1386,-5.109375 z m 99.916,0 c 9.106,0 16.6867,6.418761 16.2051,17.839844 h -22.5312 c 0.3429,5.573721 4.1323,8.832031 10.3125,8.832031 3.9482,0 7.0718,-1.176428 11.6992,-4.501953 v 6.234376 c -5.6499,4.14291 -11.5952,4.1582 -14.0391,4.1582 -11.0156,0 -18.1972,-6.405806 -18.1972,-16.195311 0,-9.588564 6.8969,-16.367187 16.5507,-16.367187 z m 39.9493,0 c 1.9685,0 3.6415,0.747797 6.498,2.857422 l -2.7734,8.660156 c -2.5791,-1.628111 -4.2485,-2.251953 -5.8047,-2.251953 -3.6085,0 -5.8805,3.315656 -8.0606,9.09375 v 13.595703 h -9.8789 V 73.494141 h 9.8789 v 8.919921 h 0.088 c 2.922,-6.522881 6.2467,-9.52539 10.0528,-9.52539 z m 42.8086,0 c 4.8943,0 11.3515,2.787985 11.3515,12.037109 v 19.917969 h -9.791 V 85.705078 c 0,-4.423657 -2.1492,-6.236328 -4.9395,-6.236328 -2.4438,0 -4.26,1.324425 -6.8457,5.197266 v 20.177734 h -9.8808 V 73.494141 h 9.8808 v 4.503906 c 3.1266,-3.602668 6.2105,-5.109375 10.2247,-5.109375 z m -218.0293,0.865234 h 9.7929 v 31.089844 h -9.7929 z m 182.7597,0 h 9.7051 v 31.089844 h -9.7051 z m -244.8926,4.935547 c -3.8683,0 -6.433,2.578801 -6.8457,6.929688 h 13.6055 c -0.4091,-4.285086 -2.9541,-6.929688 -6.7598,-6.929688 z m 198.0977,0 c -3.8789,0 -6.4331,2.578801 -6.8457,6.929688 h 13.6055 c -0.4056,-4.285086 -2.9538,-6.929688 -6.7598,-6.929688 z"
         transform="matrix(0.28549333,0,0,0.28555786,602.9142,198.59579)"
         id="path112"
         inkscape:connector-curvature="0" />
    </g>
    <g
       style="fill:#707070;fill-opacity:1;stroke-width:2.98726654"
       transform="matrix(0.08857037,0,0,0.08857037,241.93043,12.751436)"
       id="SIEMENS">
	<g
   style="fill:#707070;fill-opacity:1;stroke-width:2.98726654"
   id="g19">
		<path
   inkscape:connector-curvature="0"
   id="path5"
   d="M 3.086,152.537 V 122.46 c 17.119,5.388 32.267,8.082 45.444,8.082 18.193,0 27.291,-4.809 27.291,-14.42 0,-3.583 -1.324,-6.594 -3.978,-9.032 C 69.129,104.504 62.178,100.919 51.008,96.326 30.966,88.085 17.897,81.057 11.818,75.244 3.939,67.571 0,57.895 0,46.202 0,31.144 5.74,19.667 17.212,11.78 28.557,3.962 43.33,0.057 61.554,0.057 c 10.041,0 24.574,1.848 43.583,5.549 V 34.539 C 90.993,28.889 77.864,26.07 65.734,26.07 c -17.081,0 -25.621,4.69 -25.621,14.091 0,3.514 1.72,6.38 5.165,8.602 2.865,1.798 10.759,5.596 23.665,11.406 18.583,8.253 30.954,15.427 37.118,21.529 7.314,7.238 10.978,16.604 10.978,28.084 0,16.501 -7.177,29.088 -21.521,37.761 -11.621,7.033 -26.69,10.535 -45.198,10.535 -15.63,0 -31.378,-1.841 -47.234,-5.541 z"
   style="clip-rule:evenodd;fill:#707070;fill-opacity:1;fill-rule:evenodd;stroke-width:2.98726654" />

		<polygon
   id="polygon7"
   points="141.063,155.001 141.063,2.704 183.603,2.704 183.603,155.001 "
   style="clip-rule:evenodd;fill:#707070;fill-opacity:1;fill-rule:evenodd;stroke-width:2.98726654" />

		<polygon
   id="polygon9"
   points="263.616,30.25 263.616,64.639 322.898,64.639 322.898,89.765 263.616,89.765 263.616,125.906 333.476,125.906 333.476,155.001 222.616,155.001 222.616,2.704 331.721,2.704 331.721,30.25 "
   style="clip-rule:evenodd;fill:#707070;fill-opacity:1;fill-rule:evenodd;stroke-width:2.98726654" />

		<polygon
   id="polygon11"
   points="361.247,2.704 416.402,2.704 454.721,100.015 494.001,2.704 546.39,2.704 546.39,155.001 506.056,155.001 506.056,47.171 461.392,156.547 435.023,156.547 391.219,47.171 391.219,155.001 361.247,155.001 "
   style="clip-rule:evenodd;fill:#707070;fill-opacity:1;fill-rule:evenodd;stroke-width:2.98726654" />

		<polygon
   id="polygon13"
   points="626.415,30.25 626.415,64.639 685.695,64.639 685.695,89.765 626.415,89.765 626.415,125.906 696.28,125.906 696.28,155.001 585.411,155.001 585.411,2.704 694.514,2.704 694.514,30.25 "
   style="clip-rule:evenodd;fill:#707070;fill-opacity:1;fill-rule:evenodd;stroke-width:2.98726654" />

		<polygon
   id="polygon15"
   points="724.271,155.001 724.271,2.704 773.575,2.704 825.883,104.655 825.883,2.704 855.847,2.704 855.847,155.001 807.943,155.001 754.247,51.678 754.247,155.001 "
   style="clip-rule:evenodd;fill:#707070;fill-opacity:1;fill-rule:evenodd;stroke-width:2.98726654" />

		<path
   inkscape:connector-curvature="0"
   id="path17"
   d="M 886.047,152.537 V 122.46 c 16.974,5.388 32.12,8.082 45.452,8.082 18.195,0 27.282,-4.809 27.282,-14.42 0,-3.583 -1.289,-6.594 -3.854,-9.032 -2.728,-2.586 -9.708,-6.171 -20.945,-10.764 C 914,88.153 900.918,81.128 894.783,75.244 886.908,67.639 882.976,57.927 882.976,46.098 c 0,-14.993 5.726,-26.432 17.21,-34.319 11.328,-7.818 26.118,-11.723 44.344,-11.723 10.247,0 23.525,1.627 39.81,4.896 l 3.761,0.653 v 28.933 c -14.146,-5.65 -27.313,-8.469 -39.508,-8.469 -17.016,0 -25.503,4.69 -25.503,14.091 0,3.514 1.711,6.38 5.147,8.602 2.73,1.729 10.656,5.529 23.778,11.406 18.442,8.253 30.787,15.427 37.005,21.529 7.325,7.238 10.98,16.604 10.98,28.084 0,16.501 -7.135,29.088 -21.406,37.761 -11.689,7.033 -26.796,10.535 -45.301,10.535 -15.647,0.001 -31.402,-1.84 -47.246,-5.54 z"
   style="clip-rule:evenodd;fill:#707070;fill-opacity:1;fill-rule:evenodd;stroke-width:2.98726654" />

	</g>

</g>
    <g
       id="g1543"
       transform="matrix(0.22982821,0,0,0.22982821,710.01336,8.4836545)"
       style="stroke-width:1.15122223">
      <path
         style="fill:#707070;fill-opacity:1;stroke-width:1.15122223"
         id="path989"
         d="m 16.98,9.41 a 7.58,7.58 0 0 0 -7.57,7.57 v 64.18 a 7.58,7.58 0 0 0 7.57,7.57 h 135.2 a 7.57,7.57 0 0 0 7.57,-7.57 V 16.95 a 7.58,7.58 0 0 0 -7.57,-7.54 z m 135.19,88.7 H 16.98 a 17,17 0 0 1 -17,-17 V 16.95 a 17,17 0 0 1 17,-17 h 135.2 a 17,17 0 0 1 17,17 v 64.18 a 17,17 0 0 1 -17,17 z"
         class="cls-1"
         inkscape:connector-curvature="0" />
      <path
         style="fill:#707070;fill-opacity:1;stroke-width:1.15122223"
         id="path991"
         d="m 145.51,66.67 h -21 V 24.11 a 2.54,2.54 0 0 0 -2.54,-2.54 h -4.74 a 2.54,2.54 0 0 0 -2.57,2.54 v 49.85 a 2.54,2.54 0 0 0 2.55,2.54 h 28.33 a 2.55,2.55 0 0 0 2.54,-2.54 v -4.73 a 2.56,2.56 0 0 0 -2.57,-2.56 z M 105.66,24.12 a 2.54,2.54 0 0 0 -2.55,-2.54 H 74.78 a 2.56,2.56 0 0 0 -2.55,2.54 v 49.84 a 2.55,2.55 0 0 0 2.55,2.54 h 28.33 a 2.55,2.55 0 0 0 2.54,-2.54 v -4.73 a 2.55,2.55 0 0 0 -2.54,-2.55 h -21 V 53.95 H 93.63 A 2.55,2.55 0 0 0 96.1,51.41 V 46.67 A 2.55,2.55 0 0 0 93.58,44.13 H 82.07 V 31.41 h 21 a 2.55,2.55 0 0 0 2.59,-2.57 z M 63.12,58.59 a 12.57,12.57 0 0 0 -0.86,-3.49 16.62,16.62 0 0 0 -9,-8.72 41.61,41.61 0 0 0 -7.67,-2 c -1.62,-0.33 -3.24,-0.64 -4.85,-1 a 15.75,15.75 0 0 1 -3.88,-1.3 c -1.57,-0.83 -3.12,-1.67 -3.75,-3.42 a 4.45,4.45 0 0 1 0.36,-3.62 8.8,8.8 0 0 1 4.06,-3.18 13.19,13.19 0 0 1 11.13,0.13 10.18,10.18 0 0 1 1.3,0.82 13.9,13.9 0 0 1 2.48,2.36 7.46,7.46 0 0 0 1.93,1.76 5.49,5.49 0 0 0 2.9,0.64 c 1.68,0 4,-0.26 5,-1.83 a 2.8,2.8 0 0 0 0.47,-1.33 6.37,6.37 0 0 0 -0.28,-1.9 9.8,9.8 0 0 0 -1.43,-2.91 20.78,20.78 0 0 0 -3.09,-3.39 c -0.29,-0.25 -0.61,-0.45 -0.91,-0.68 a 24.77,24.77 0 0 0 -16.88,-4.58 24.49,24.49 0 0 0 -8.79,2.83 17.84,17.84 0 0 0 -5.7,5.07 14.58,14.58 0 0 0 -2.84,9 14.14,14.14 0 0 0 3.41,8.73 15.49,15.49 0 0 0 3.56,3.05 c 4.06,2.31 11,3.85 16.6,5.18 2,0.49 3.93,0.91 5.52,2.38 a 4.84,4.84 0 0 1 1.13,1.86 c 1,3 -1.37,5.5 -3.78,6.79 a 13.66,13.66 0 0 1 -3.89,1.27 14.61,14.61 0 0 1 -5.11,-0.06 12.06,12.06 0 0 1 -3.77,-1.22 9.51,9.51 0 0 1 -3,-3.08 6.72,6.72 0 0 0 -0.9,-1.22 4.75,4.75 0 0 0 -3.39,-1 13.06,13.06 0 0 0 -2.2,0.23 8.28,8.28 0 0 0 -1.9,0.55 2.81,2.81 0 0 0 -1.44,1.37 3.87,3.87 0 0 0 -0.3,1.81 4.87,4.87 0 0 0 0.05,0.49 6.93,6.93 0 0 0 0.92,2.56 18,18 0 0 0 4,4.73 c 0.5,0.4 1,0.78 1.52,1.14 a 19.29,19.29 0 0 0 2.73,1.58 25.6,25.6 0 0 0 10.16,2.28 24.82,24.82 0 0 0 6,-0.76 20.11,20.11 0 0 0 9.34,-4.9 16.11,16.11 0 0 0 2,-2.3 16.49,16.49 0 0 0 3.04,-10.72 z M 194.39,26.41 a 9.84,9.84 0 0 1 -8.25,-3.85 l 3.06,-2.73 a 6.88,6.88 0 0 0 5.46,2.43 c 2.52,0 3.7,-0.7 3.7,-2.3 0,-1.36 -0.73,-2 -4.73,-2.88 -4,-0.88 -6.64,-2.15 -6.64,-6.34 0,-3.85 3.4,-6.21 7.58,-6.21 a 10.14,10.14 0 0 1 7.73,3.33 l -3.06,3 a 6.47,6.47 0 0 0 -4.82,-2.18 c -2.27,0 -3,1 -3,1.91 0,1.33 0.91,1.76 4.27,2.55 3.36,0.79 7.09,1.94 7.09,6.55 -0.05,4 -2.6,6.72 -8.39,6.72 z m 24.8,-15.37 a 4,4 0 0 0 -3.88,-2.3 c -3.18,0 -5,2.79 -5,6.73 0,3.94 1.85,6.73 5,6.73 1.91,0 3,-0.82 4.15,-2.7 l 3.58,2.12 a 8.11,8.11 0 0 1 -7.82,4.79 c -5.55,0 -9.28,-4.24 -9.28,-10.94 0,-6.46 3.88,-10.94 9.43,-10.94 a 8,8 0 0 1 7.76,4.7 z m 21.13,15.04 v -8.91 h -8.66 v 8.91 h -4.25 V 4.86 h 4.25 v 8.13 h 8.7 V 4.86 h 4.24 v 21.22 h -4.24 z m 27.74,0 h -4.15 L 261.3,15.17 c -0.3,-1.27 -0.61,-2.85 -0.73,-3.64 a 36.69,36.69 0 0 1 -0.7,3.64 l -2.67,10.91 h -4 L 248.77,4.86 h 4.43 l 1.85,10.34 c 0.18,1 0.42,2.61 0.52,3.49 0.15,-0.88 0.49,-2.46 0.73,-3.49 l 2.49,-10.34 h 3.7 l 2.52,10.34 c 0.24,1 0.58,2.61 0.73,3.49 0.09,-0.88 0.33,-2.49 0.52,-3.49 l 1.85,-10.34 h 4.37 z m 8.66,0 V 4.86 h 14.74 v 4.15 h -10.49 v 3.67 h 6.09 v 4.12 h -6.09 v 5.12 h 10.94 v 4.15 h -15.19 z m 20.01,0 V 4.86 h 4.24 V 26.08 Z M 315.66,9.04 v 17 h -4.2 v -17 h -6.09 V 4.86 h 16.43 v 4.18 z m 8.78,17.04 v -3.76 l 9.12,-10.91 c 0.67,-0.82 1.88,-2.21 2.42,-2.76 -0.85,0 -3.06,0.06 -4.3,0.06 h -6.64 V 4.86 h 16 v 3.76 l -9,10.88 c -0.67,0.82 -1.88,2.21 -2.42,2.76 0.85,0 3.06,-0.06 4.3,-0.06 h 7.31 v 3.88 z m 21.52,0 V 4.86 h 14.7 V 9.01 H 350.2 v 3.67 h 6.09 v 4.12 h -6.09 v 5.12 h 10.94 v 4.15 h -15.18 z m 32.01,0 -3.79,-7.67 h -4.27 v 7.64 h -4.25 V 4.86 h 9.88 c 4,0 7.31,2.21 7.31,6.73 0,3.18 -1.36,5.18 -4.06,6.24 l 4.06,8.25 z m -2.52,-17.1 h -5.55 v 5.43 h 5.55 c 2,0 3,-0.91 3,-2.76 0,-1.85 -1.12,-2.67 -3,-2.67 z M 187.51,59.65 V 38.41 h 14.73 v 4.15 h -10.49 v 3.67 h 6.09 v 4.18 h -6.09 v 5.12 h 10.91 v 4.15 h -15.15 z m 33.1,0 -7.79,-11.58 c -0.52,-0.79 -1.21,-1.85 -1.49,-2.39 0,0.79 0.06,3.46 0.06,4.64 v 9.34 h -4.18 V 38.41 h 4.06 l 7.52,11.22 c 0.52,0.79 1.21,1.85 1.49,2.4 0,-0.79 -0.06,-3.46 -0.06,-4.64 v -8.98 h 4.18 v 21.24 z m 17.4,0.34 c -5.55,0 -9.28,-4.24 -9.28,-10.94 0,-6.46 3.88,-10.94 9.43,-10.94 4.34,0 6.64,2 8,5.31 l -4,1.67 c -0.79,-1.58 -1.76,-2.76 -4.06,-2.76 -3.18,0 -5,2.79 -5,6.73 0,3.94 1.85,6.79 5,6.79 2.91,0 3.91,-1.37 4.15,-3.21 h -3.37 v -4 h 7.61 v 2.77 c 0.04,5.48 -3.57,8.58 -8.48,8.58 z m 13.3,-0.34 V 38.41 h 4.24 v 21.24 z m 23.41,0 -7.79,-11.58 c -0.51,-0.79 -1.21,-1.85 -1.49,-2.39 0,0.79 0.06,3.46 0.06,4.64 v 9.34 h -4.18 V 38.41 h 4.06 l 7.52,11.22 c 0.52,0.79 1.21,1.85 1.49,2.4 0,-0.79 -0.06,-3.46 -0.06,-4.64 v -8.98 h 4.18 v 21.24 z m 9.24,0 V 38.41 h 14.7 v 4.15 h -10.45 v 3.67 h 6.09 v 4.18 h -6.09 v 5.12 h 10.94 v 4.15 h -15.19 z m 19.7,0 V 38.41 h 14.73 v 4.15 h -10.48 v 3.67 H 314 v 4.18 h -6.09 v 5.12 h 10.94 v 4.15 h -15.19 z m 32,0 -3.79,-7.64 h -4.21 v 7.64 h -4.25 V 38.41 h 9.88 c 4,0 7.31,2.21 7.31,6.73 0,3.18 -1.36,5.18 -4.06,6.24 l 4.06,8.25 h -4.94 z m -2.52,-17.1 h -5.48 v 5.46 h 5.55 c 2,0 3,-0.91 3,-2.76 0,-1.85 -1.17,-2.69 -3.05,-2.69 z m 12.17,17.1 V 38.41 h 4.24 v 21.24 z m 23.41,0 -7.79,-11.58 c -0.51,-0.79 -1.21,-1.85 -1.48,-2.39 0,0.79 0.06,3.46 0.06,4.64 v 9.34 h -4.18 V 38.41 h 4.06 l 7.52,11.22 c 0.52,0.79 1.21,1.85 1.49,2.4 0,-0.79 -0.06,-3.46 -0.06,-4.64 v -8.98 h 4.18 v 21.24 h -3.79 z m 17.4,0.34 c -5.55,0 -9.28,-4.24 -9.28,-10.94 0,-6.46 3.88,-10.94 9.43,-10.94 4.33,0 6.64,2 8,5.31 l -4,1.67 c -0.79,-1.58 -1.76,-2.76 -4.06,-2.76 -3.18,0 -5,2.79 -5,6.73 0,3.94 1.85,6.79 5,6.79 2.91,0 3.91,-1.37 4.15,-3.21 h -3.37 v -4 h 7.67 v 2.77 c 0,5.48 -3.63,8.58 -8.54,8.58 z M 187.51,93.23 V 72.01 h 4.24 v 17 h 10.64 v 4.18 h -14.88 z m 32.92,0 -1.67,-4.73 H 211 l -1.67,4.73 h -4.55 l 8.13,-21.22 h 4.12 l 8.06,21.22 h -4.67 z m -4.49,-12.61 c -0.43,-1.24 -0.85,-2.52 -1.06,-3.3 -0.21,0.79 -0.64,2.06 -1.06,3.3 l -1.37,3.85 h 4.85 z m 22.72,12.61 h -9.64 V 72.01 h 9.73 c 4.12,0 6.73,2 6.73,5.61 a 4.66,4.66 0 0 1 -2.24,4.12 4.85,4.85 0 0 1 3,4.64 c -0.02,4.45 -3.02,6.85 -7.58,6.85 z m -0.09,-17.31 h -5.4 v 4 h 5.61 c 1.76,0 2.4,-0.82 2.4,-2 0.01,-1.3 -0.75,-2 -2.6,-2 z m 0.24,7.79 h -5.64 v 5.49 h 5.64 c 2.06,0 3,-1.09 3,-2.76 0.05,-1.82 -0.92,-2.73 -2.98,-2.73 z m 19.69,9.85 c -5.55,0 -9.34,-4.06 -9.34,-10.91 0,-6.85 3.85,-11 9.4,-11 5.55,0 9.31,4.06 9.31,10.91 0,6.85 -3.85,11 -9.37,11 z m 0,-17.67 c -3,0 -4.94,2.39 -4.94,6.7 0,4.31 2.06,6.76 5,6.76 2.94,0 4.94,-2.4 4.94,-6.7 0,-4.3 -2.06,-6.76 -5.03,-6.76 z m 25.95,17.34 -3.79,-7.64 h -4.27 v 7.64 h -4.25 V 72.01 h 9.88 c 4,0 7.31,2.21 7.31,6.73 0,3.18 -1.36,5.18 -4.06,6.25 l 4.06,8.25 h -4.88 z m -2.52,-17.1 h -5.55 v 5.46 h 5.55 c 2,0 3,-0.91 3,-2.76 0,-1.85 -1.12,-2.7 -3,-2.7 z m 25.52,17.1 -1.67,-4.73 h -7.76 l -1.67,4.73 h -4.55 l 8.12,-21.22 h 4.12 l 8.06,21.22 h -4.67 z m -4.49,-12.61 c -0.42,-1.24 -0.85,-2.52 -1.06,-3.3 -0.21,0.79 -0.64,2.06 -1.06,3.3 l -1.36,3.85 h 4.85 z m 19.2,-4.43 v 17 h -4.24 v -17 h -6.09 v -4.18 h 16.43 v 4.18 z m 17.31,17.37 c -5.55,0 -9.34,-4.06 -9.34,-10.91 0,-6.85 3.85,-11 9.4,-11 5.55,0 9.31,4.06 9.31,10.91 0,6.85 -3.86,11 -9.37,11 z m 0,-17.67 c -3,0 -4.94,2.39 -4.94,6.7 0,4.31 2.06,6.76 5,6.76 2.94,0 4.94,-2.4 4.94,-6.7 0,-4.3 -2.06,-6.76 -5.03,-6.76 z m 25.94,17.34 -3.75,-7.64 h -4.27 v 7.64 h -4.25 V 72.01 h 9.88 c 4,0 7.31,2.21 7.31,6.73 0,3.18 -1.36,5.18 -4.06,6.25 l 4.06,8.25 h -4.88 z m -2.52,-17.1 h -5.55 v 5.46 h 5.55 c 2,0 3,-0.91 3,-2.76 0,-1.85 -1.11,-2.7 -2.99,-2.7 z m 12.16,17.1 V 72.01 h 4.24 v 21.22 z m 10.01,0 V 72.01 h 14.73 v 4.15 H 389.3 v 3.67 h 6.09 v 4.12 h -6.09 v 5.12 h 10.94 v 4.15 h -15.18 z m 26.46,0.33 a 9.84,9.84 0 0 1 -8.25,-3.85 l 3.06,-2.73 a 6.88,6.88 0 0 0 5.43,2.43 c 2.52,0 3.7,-0.7 3.7,-2.3 0,-1.36 -0.73,-2 -4.73,-2.88 -4,-0.88 -6.64,-2.15 -6.64,-6.34 0,-3.85 3.4,-6.21 7.58,-6.21 a 10.14,10.14 0 0 1 7.73,3.33 l -3.06,3 a 6.47,6.47 0 0 0 -4.82,-2.18 c -2.27,0 -3,1 -3,1.91 0,1.33 0.91,1.76 4.27,2.55 3.36,0.79 7.09,1.94 7.09,6.55 -0.02,3.99 -2.57,6.72 -8.36,6.72 z"
         class="cls-1"
         inkscape:connector-curvature="0" />
    </g>
  </g>
</svg>
