<?xml version="1.0" encoding="UTF-8" standalone="no"?>
<svg
   xmlns:dc="http://purl.org/dc/elements/1.1/"
   xmlns:cc="http://creativecommons.org/ns#"
   xmlns:rdf="http://www.w3.org/1999/02/22-rdf-syntax-ns#"
   xmlns:svg="http://www.w3.org/2000/svg"
   xmlns="http://www.w3.org/2000/svg"
   xmlns:xlink="http://www.w3.org/1999/xlink"
   id="svg8"
   version="1.1"
   viewBox="0 0 1179.1931 378.45366"
   height="378.45364mm"
   width="1179.1931mm">
  <defs
     id="defs2" />
  <metadata
     id="metadata5">
    <rdf:RDF>
      <cc:Work
         rdf:about="">
        <dc:format>image/svg+xml</dc:format>
        <dc:type
           rdf:resource="http://purl.org/dc/dcmitype/StillImage" />
        <dc:title></dc:title>
      </cc:Work>
    </rdf:RDF>
  </metadata>
  <g
     transform="translate(566.69391,-93.30658)"
     id="layer1">
    <g
       transform="translate(7.0276476,6.5598469)"
       id="g1052">
      <a
         id="a3344"
         xlink:href="/monitoring/environmental/temperature">
        <g
           id="g3252">
          <path
             id="path1134"
             d="m -259.41284,350.85958 -129.70641,74.88603 -129.70642,-74.88604 V 201.08751 l 129.70642,-74.88603 129.70641,74.88603 z"
             style="opacity:1;fill:#64c7cc;fill-opacity:1;stroke:none;stroke-width:2.11666656;stroke-linecap:round;stroke-linejoin:round;stroke-miterlimit:4;stroke-dasharray:none;stroke-dashoffset:0;stroke-opacity:1;paint-order:normal" />
          <g
             id="g3165"
             transform="translate(-1.250228e-5,-17.172601)">
            <g
               style="stroke-width:0.69399345;stroke-miterlimit:1.5;stroke-dasharray:none"
               transform="matrix(3.1243809,0,0,2.9773524,-801.36129,-2927.0305)"
               id="g2954">
              <path
                 id="path6631"
                 style="clip-rule:evenodd;fill:#ffffff;fill-opacity:1;fill-rule:evenodd;stroke:#000000;stroke-width:0.69399345;stroke-linecap:round;stroke-linejoin:round;stroke-miterlimit:1.5;stroke-dasharray:none"
                 d="m 127.38166,1081.4457 v -21.7451 c 0,-2.5165 2.04299,-4.5595 4.55946,-4.5595 2.51647,0 4.55946,2.043 4.55946,4.5595 v 21.7451 c 2.18889,1.4709 3.63014,3.9696 3.63014,6.8023 0,4.52 -3.66963,8.1896 -8.1896,8.1896 -4.51996,0 -8.1896,-3.6696 -8.1896,-8.1896 0,-2.8327 1.44125,-5.3314 3.63014,-6.8023 z" />
              <path
                 id="path6629"
                 d="m 130.66331,1083.5364 v -18.1728 c 0,-0.7053 0.57258,-1.2778 1.27781,-1.2778 0.70524,0 1.27781,0.5725 1.27781,1.2778 v 18.1728 c 2.10641,0.5638 3.65919,2.4868 3.65919,4.7697 0,2.7247 -2.21224,4.937 -4.937,4.937 -2.72475,0 -4.93699,-2.2123 -4.93699,-4.937 0,-2.2829 1.55277,-4.2059 3.65918,-4.7697 z"
                 style="clip-rule:evenodd;fill-rule:evenodd;stroke-width:0.69399345;stroke-linecap:round;stroke-linejoin:round;stroke-miterlimit:1.5;stroke-dasharray:none" />
              <path
                 id="path6633"
                 style="clip-rule:evenodd;fill:none;fill-rule:evenodd;stroke:#000000;stroke-width:0.69399345;stroke-linecap:round;stroke-linejoin:round;stroke-miterlimit:1.5;stroke-dasharray:none"
                 d="m 136.50058,1063.3041 h 3.63014" />
              <path
                 d="m 136.50058,1067.2537 h 3.63014"
                 style="clip-rule:evenodd;fill:none;fill-rule:evenodd;stroke:#000000;stroke-width:0.69399345;stroke-linecap:round;stroke-linejoin:round;stroke-miterlimit:1.5;stroke-dasharray:none"
                 id="path6635" />
              <path
                 d="m 136.50058,1071.2033 h 3.63014"
                 style="clip-rule:evenodd;fill:none;fill-rule:evenodd;stroke:#000000;stroke-width:0.69399345;stroke-linecap:round;stroke-linejoin:round;stroke-miterlimit:1.5;stroke-dasharray:none"
                 id="path6639" />
              <path
                 d="m 136.50058,1075.1529 h 3.63014"
                 style="clip-rule:evenodd;fill:none;fill-rule:evenodd;stroke:#000000;stroke-width:0.69399345;stroke-linecap:round;stroke-linejoin:round;stroke-miterlimit:1.5;stroke-dasharray:none"
                 id="path6643" />
            </g>
            <g
               aria-label="TEMPERATURE"
               style="font-style:normal;font-variant:normal;font-weight:bold;font-stretch:normal;font-size:7.05555534px;line-height:1.25;font-family:'Open Sans';-inkscape-font-specification:'Open Sans Bold';letter-spacing:0px;word-spacing:0px;fill:#000000;fill-opacity:1;stroke:none;stroke-width:0.26458332"
               id="text3006">
              <path
                 d="m -461.43317,372.60855 h -3.41754 v -13.27326 h -4.37665 v -2.84427 h 12.17084 v 2.84427 h -4.37665 z"
                 style="font-size:22.57777786px;stroke-width:0.26458332"
                 id="path7159" />
              <path
                 d="m -445.29359,372.60855 h -9.28246 v -16.11753 h 9.28246 v 2.80017 h -5.86493 v 3.5388 h 5.45703 v 2.80018 h -5.45703 v 4.15616 h 5.86493 z"
                 style="font-size:22.57777786px;stroke-width:0.26458332"
                 id="path7161" />
              <path
                 d="m -435.10713,372.60855 -3.88056,-12.64488 h -0.0992 q 0.20947,3.85851 0.20947,5.14835 v 7.49653 h -3.05374 v -16.11753 h 4.65226 l 3.81441,12.32517 h 0.0661 l 4.04592,-12.32517 h 4.65225 v 16.11753 h -3.18602 v -7.62882 q 0,-0.54019 0.011,-1.24574 0.022,-0.70556 0.15434,-3.74827 h -0.0992 l -4.15617,12.62283 z"
                 style="font-size:22.57777786px;stroke-width:0.26458332"
                 id="path7163" />
              <path
                 d="m -417.22571,364.07574 h 1.12448 q 1.57648,0 2.3592,-0.61736 0.78273,-0.62839 0.78273,-1.81901 0,-1.20165 -0.66146,-1.77492 -0.65043,-0.57326 -2.05052,-0.57326 h -1.55443 z m 7.71702,-2.55764 q 0,2.60174 -1.6316,3.97977 -1.62057,1.37804 -4.61919,1.37804 h -1.46623 v 5.73264 h -3.41753 v -16.11753 h 5.14835 q 2.93246,0 4.45382,1.26779 1.53238,1.25677 1.53238,3.75929 z"
                 style="font-size:22.57777786px;stroke-width:0.26458332"
                 id="path7165" />
              <path
                 d="m -397.18352,372.60855 h -9.28247 v -16.11753 h 9.28247 v 2.80017 h -5.86493 v 3.5388 h 5.45703 v 2.80018 h -5.45703 v 4.15616 h 5.86493 z"
                 style="font-size:22.57777786px;stroke-width:0.26458332"
                 id="path7167" />
              <path
                 d="m -390.40357,363.64579 h 1.10243 q 1.62057,0 2.39227,-0.54019 0.7717,-0.54019 0.7717,-1.69774 0,-1.14653 -0.79375,-1.6316 -0.78272,-0.48507 -2.43637,-0.48507 h -1.03628 z m 0,2.77813 v 6.18463 h -3.41754 v -16.11753 h 4.69636 q 3.28524,0 4.86172,1.20165 1.57647,1.19062 1.57647,3.62699 0,1.42214 -0.78272,2.53559 -0.78273,1.10243 -2.21589,1.73082 3.63802,5.43498 4.74045,7.02248 h -3.79236 l -3.84748,-6.18463 z"
                 style="font-size:22.57777786px;stroke-width:0.26458332"
                 id="path7169" />
              <path
                 d="m -369.04949,372.60855 -1.16858,-3.83646 h -5.87595 l -1.16858,3.83646 h -3.68212 l 5.68854,-16.18368 h 4.17822 l 5.71059,16.18368 z m -1.98438,-6.70278 q -1.62057,-5.21449 -1.83003,-5.898 -0.19844,-0.68351 -0.28663,-1.08038 -0.36381,1.41111 -2.0836,6.97838 z"
                 style="font-size:22.57777786px;stroke-width:0.26458332"
                 id="path7171" />
              <path
                 d="m -357.12119,372.60855 h -3.41753 v -13.27326 h -4.37665 v -2.84427 h 12.17083 v 2.84427 h -4.37665 z"
                 style="font-size:22.57777786px;stroke-width:0.26458332"
                 id="path7173" />
              <path
                 d="m -337.14515,356.49102 v 10.42899 q 0,1.78594 -0.80478,3.1309 -0.79375,1.34497 -2.30408,2.06155 -1.51033,0.71658 -3.57187,0.71658 -3.10886,0 -4.82865,-1.5875 -1.71979,-1.59853 -1.71979,-4.36563 v -10.38489 h 3.40651 v 9.86675 q 0,1.86311 0.74965,2.73403 0.74966,0.87092 2.48047,0.87092 1.6757,0 2.42535,-0.87092 0.76068,-0.88195 0.76068,-2.75608 v -9.8447 z"
                 style="font-size:22.57777786px;stroke-width:0.26458332"
                 id="path7175" />
              <path
                 d="m -329.78092,363.64579 h 1.10243 q 1.62057,0 2.39227,-0.54019 0.7717,-0.54019 0.7717,-1.69774 0,-1.14653 -0.79375,-1.6316 -0.78272,-0.48507 -2.43637,-0.48507 h -1.03628 z m 0,2.77813 v 6.18463 h -3.41754 v -16.11753 h 4.69636 q 3.28524,0 4.86172,1.20165 1.57647,1.19062 1.57647,3.62699 0,1.42214 -0.78272,2.53559 -0.78273,1.10243 -2.21589,1.73082 3.63802,5.43498 4.74045,7.02248 h -3.79236 l -3.84748,-6.18463 z"
                 style="font-size:22.57777786px;stroke-width:0.26458332"
                 id="path7177" />
              <path
                 d="m -309.01113,372.60855 h -9.28247 v -16.11753 h 9.28247 v 2.80017 h -5.86493 v 3.5388 h 5.45703 v 2.80018 h -5.45703 v 4.15616 h 5.86493 z"
                 style="font-size:22.57777786px;stroke-width:0.26458332"
                 id="path7179" />
            </g>
          </g>
        </g>
      </a>
      <a
         id="a7061"
         xlink:href="/monitoring/environmental/humidity">
        <g
           id="g3263">
          <path
             id="path1134-6"
             d="M 10.58333,350.85958 -119.12309,425.74561 -248.8295,350.85957 V 201.08751 l 129.70642,-74.88603 129.70641,74.88603 z"
             style="opacity:1;fill:#64c7cc;fill-opacity:1;stroke:none;stroke-width:2.11666656;stroke-linecap:round;stroke-linejoin:round;stroke-miterlimit:4;stroke-dasharray:none;stroke-dashoffset:0;stroke-opacity:1;paint-order:normal" />
          <g
             id="g3174"
             transform="translate(-5.7727162e-6,-18.3063)">
            <g
               style="stroke-width:0.36228079"
               transform="matrix(2.7780949,0,0,2.7425991,4.36109,-2557.2032)"
               id="g2960">
              <path
                 d="m -29.41746,1039.5586 c 0,0 -0.159377,2.7835 -0.524903,4.0816 -1.780858,6.3257 -7.596944,10.9682 -14.48882,10.9682 -8.306198,0 -15.049814,-6.7436 -15.049814,-15.0498 0.0012,-14.5337 15.056888,-22.7062 15.049814,-28.1146 h -0.03609 c -0.0071,5.4084 15.048659,13.5809 15.049813,28.1146 z"
                 style="clip-rule:evenodd;fill:#ffffff;fill-opacity:1;fill-rule:evenodd;stroke:#000000;stroke-width:0.76682758;stroke-linecap:round;stroke-linejoin:round;stroke-miterlimit:1.5;stroke-dasharray:none"
                 id="path7326" />
              <path
                 d="m -51.504956,1046.3798 14.436272,-14.5807"
                 style="clip-rule:evenodd;fill:none;fill-rule:evenodd;stroke:#000000;stroke-width:0.76682758;stroke-linecap:round;stroke-linejoin:round;stroke-miterlimit:1.5;stroke-dasharray:none"
                 id="path7316" />
              <path
                 style="clip-rule:evenodd;fill:none;fill-rule:evenodd;stroke:#000000;stroke-width:0.76682758;stroke-linecap:round;stroke-linejoin:round;stroke-miterlimit:1.5;stroke-dasharray:none"
                 d="m -45.441723,1031.7991 a 3.2481613,3.2481613 0 0 1 -3.248161,3.2481 3.2481613,3.2481613 0 0 1 -3.248162,-3.2481 3.2481613,3.2481613 0 0 1 3.248162,-3.2482 3.2481613,3.2481613 0 0 1 3.248161,3.2482 z"
                 id="circle7318" />
              <path
                 style="clip-rule:evenodd;fill:none;fill-rule:evenodd;stroke:#000000;stroke-width:0.76682758;stroke-linecap:round;stroke-linejoin:round;stroke-miterlimit:1.5;stroke-dasharray:none"
                 d="m -36.779961,1046.0911 a 3.2481613,3.2481613 0 0 1 -3.248161,3.2481 3.2481613,3.2481613 0 0 1 -3.248161,-3.2481 3.2481613,3.2481613 0 0 1 3.248161,-3.2482 3.2481613,3.2481613 0 0 1 3.248161,3.2482 z"
                 id="circle7322" />
            </g>
            <g
               aria-label="HUMIDITY"
               style="font-style:normal;font-variant:normal;font-weight:bold;font-stretch:normal;font-size:7.05555534px;line-height:1.25;font-family:'Open Sans';-inkscape-font-specification:'Open Sans Bold';letter-spacing:0px;word-spacing:0px;fill:#000000;fill-opacity:1;stroke:none;stroke-width:0.26458332"
               id="text3006-0">
              <path
                 d="m -162.1289,372.60855 h -3.40651 v -6.95634 h -6.38307 v 6.95634 h -3.41753 v -16.11753 h 3.41753 v 6.31692 h 6.38307 v -6.31692 h 3.40651 z"
                 style="font-size:22.57777786px;stroke-width:0.26458332"
                 id="path7184" />
              <path
                 d="m -144.942,356.49102 v 10.42899 q 0,1.78594 -0.80478,3.1309 -0.79375,1.34497 -2.30408,2.06155 -1.51033,0.71658 -3.57187,0.71658 -3.10886,0 -4.82865,-1.5875 -1.71979,-1.59853 -1.71979,-4.36563 v -10.38489 h 3.40651 v 9.86675 q 0,1.86311 0.74965,2.73403 0.74966,0.87092 2.48047,0.87092 1.6757,0 2.42535,-0.87092 0.76068,-0.88195 0.76068,-2.75608 v -9.8447 z"
                 style="font-size:22.57777786px;stroke-width:0.26458332"
                 id="path7186" />
              <path
                 d="m -134.17126,372.60855 -3.88055,-12.64488 h -0.0992 q 0.20946,3.85851 0.20946,5.14835 v 7.49653 h -3.05373 v -16.11753 h 4.65226 l 3.81441,12.32517 h 0.0661 l 4.04592,-12.32517 h 4.65226 v 16.11753 h -3.18603 v -7.62882 q 0,-0.54019 0.011,-1.24574 0.0221,-0.70556 0.15434,-3.74827 h -0.0992 l -4.15616,12.62283 z"
                 style="font-size:22.57777786px;stroke-width:0.26458332"
                 id="path7188" />
              <path
                 d="m -119.70737,372.60855 v -16.11753 h 3.41754 v 16.11753 z"
                 style="font-size:22.57777786px;stroke-width:0.26458332"
                 id="path7190" />
              <path
                 d="m -98.860409,364.39544 q 0,3.97978 -2.271011,6.09644 -2.25998,2.11667 -6.53741,2.11667 h -4.56406 v -16.11753 h 5.06015 q 3.94671,0 6.12952,2.08359 2.182811,2.08359 2.182811,5.82083 z m -3.549831,0.0882 q 0,-5.19245 -4.58611,-5.19245 h -1.81901 v 10.49514 h 1.46624 q 4.93888,0 4.93888,-5.30269 z"
                 style="font-size:22.57777786px;stroke-width:0.26458332"
                 id="path7192" />
              <path
                 d="m -95.520043,372.60855 v -16.11753 h 3.417535 v 16.11753 z"
                 style="font-size:22.57777786px;stroke-width:0.26458332"
                 id="path7194" />
              <path
                 d="m -81.827855,372.60855 h -3.417535 v -13.27326 h -4.376649 v -2.84427 h 12.170833 v 2.84427 h -4.376649 z"
                 style="font-size:22.57777786px;stroke-width:0.26458332"
                 id="path7196" />
              <path
                 d="m -69.954675,363.12765 3.362413,-6.63663 h 3.682118 l -5.346788,9.8447 v 6.27283 h -3.395486 v -6.16259 l -5.346789,-9.95494 h 3.704167 z"
                 style="font-size:22.57777786px;stroke-width:0.26458332"
                 id="path7198" />
            </g>
          </g>
        </g>
      </a>
      <a
         id="a7073"
         xlink:href="/monitoring/environmental/dewpoint">
        <g
           id="g3272">
          <path
             id="path1134-6-4"
             d="M 280.5795,350.85959 150.87308,425.74562 21.16667,350.85958 V 201.08752 l 129.70642,-74.88603 129.70641,74.88603 z"
             style="opacity:1;fill:#64c7cc;fill-opacity:1;stroke:none;stroke-width:2.11666656;stroke-linecap:round;stroke-linejoin:round;stroke-miterlimit:4;stroke-dasharray:none;stroke-dashoffset:0;stroke-opacity:1;paint-order:normal" />
          <g
             id="g3181"
             transform="translate(1.9850276e-6,-17.878903)">
            <g
               style="fill:#ffffff;fill-opacity:1;stroke-width:0.66057175"
               transform="matrix(1.5164541,0,0,1.5112306,498.74728,-1312.633)"
               id="g2964">
              <path
                 style="clip-rule:evenodd;fill:#ffffff;fill-opacity:1;fill-rule:evenodd;stroke:#000000;stroke-width:1.74776268px;stroke-linecap:round;stroke-linejoin:round;stroke-miterlimit:1.5"
                 d="m -199.33647,1025.4037 a 5.953125,5.953125 0 0 1 -5.95313,5.9531 5.953125,5.953125 0 0 1 -5.95312,-5.9531 5.953125,5.953125 0 0 1 5.95312,-5.9531 5.953125,5.953125 0 0 1 5.95313,5.9531 z"
                 id="circle1253" />
              <path
                 id="path1257"
                 style="clip-rule:evenodd;fill:#ffffff;fill-opacity:1;fill-rule:evenodd;stroke:#000000;stroke-width:1.74776268px;stroke-linecap:round;stroke-linejoin:round;stroke-miterlimit:1.5"
                 d="m -204.36355,1063.173 c 0,0 -0.2921,5.1014 -0.96202,7.4805 -3.2639,11.5936 -13.92344,20.1023 -26.55464,20.1023 -15.22334,0 -27.58282,-12.3595 -27.58282,-27.5828 0.002,-26.637 27.59578,-41.6153 27.58282,-51.5276 h -0.0661 c -0.013,9.9123 27.5807,24.8906 27.58281,51.5276 z" />
            </g>
            <g
               aria-label="DEW POINT"
               style="font-style:normal;font-variant:normal;font-weight:bold;font-stretch:normal;font-size:7.05555534px;line-height:1.25;font-family:'Open Sans';-inkscape-font-specification:'Open Sans Bold';letter-spacing:0px;word-spacing:0px;fill:#000000;fill-opacity:1;stroke:none;stroke-width:0.26458332"
               id="text3006-0-3">
              <path
                 d="m 101.43459,364.39547 q 0,3.97978 -2.271012,6.09644 -2.259982,2.11667 -6.537413,2.11667 h -4.564062 v -16.11753 h 5.060156 q 3.946701,0 6.129514,2.08359 2.182817,2.08359 2.182817,5.82083 z m -3.549831,0.0882 q 0,-5.19245 -4.586111,-5.19245 h -1.819011 v 10.49514 h 1.466233 q 4.938889,0 4.938889,-5.30269 z"
                 style="font-size:22.57777786px;stroke-width:0.26458332"
                 id="path7202" />
              <path
                 d="m 114.05741,372.60858 h -9.28246 v -16.11753 h 9.28246 v 2.80017 h -5.86493 v 3.5388 h 5.45704 v 2.80018 h -5.45704 v 4.15616 h 5.86493 z"
                 style="font-size:22.57777786px;stroke-width:0.26458332"
                 id="path7204" />
              <path
                 d="m 133.11844,372.60858 h -3.89158 l -2.18281,-8.46667 q -0.12127,-0.45199 -0.41893,-1.8631 -0.28663,-1.42214 -0.33073,-1.90721 -0.0661,0.59531 -0.33073,1.91823 -0.26458,1.31189 -0.40789,1.87413 l -2.17179,8.44462 h -3.88056 l -4.11206,-16.11753 h 3.36241 l 2.06154,8.79739 q 0.54019,2.43637 0.78273,4.22231 0.0662,-0.62838 0.29766,-1.94028 0.24253,-1.32291 0.45199,-2.05052 l 2.34818,-9.0289 h 3.23012 l 2.34818,9.0289 q 0.15434,0.60634 0.38585,1.85209 0.23151,1.24574 0.35278,2.13871 0.11024,-0.85989 0.35277,-2.13871 0.24254,-1.28985 0.44098,-2.0836 l 2.05052,-8.79739 h 3.36241 z"
                 style="font-size:22.57777786px;stroke-width:0.26458332"
                 id="path7206" />
              <path
                 d="m 148.53042,364.07577 h 1.12448 q 1.57647,0 2.3592,-0.61736 0.78272,-0.62839 0.78272,-1.81901 0,-1.20165 -0.66145,-1.77492 -0.65044,-0.57326 -2.05052,-0.57326 h -1.55443 z m 7.71701,-2.55764 q 0,2.60174 -1.63159,3.97977 -1.62058,1.37804 -4.61919,1.37804 h -1.46623 v 5.73264 h -3.41754 v -16.11753 h 5.14835 q 2.93247,0 4.45382,1.26779 1.53238,1.25677 1.53238,3.75929 z"
                 style="font-size:22.57777786px;stroke-width:0.26458332"
                 id="path7208" />
              <path
                 d="m 173.91939,364.52777 q 0,4.00182 -1.98437,6.15156 -1.98438,2.14974 -5.68855,2.14974 -3.70416,0 -5.68854,-2.14974 -1.98437,-2.14974 -1.98437,-6.17361 0,-4.02387 1.98437,-6.14054 1.9954,-2.12769 5.71059,-2.12769 3.71519,0 5.67752,2.13871 1.97335,2.13872 1.97335,6.15157 z m -11.76293,0 q 0,2.70095 1.02526,4.06796 1.02526,1.36702 3.06475,1.36702 4.09002,0 4.09002,-5.43498 0,-5.44601 -4.06797,-5.44601 -2.03949,0 -3.07578,1.37804 -1.03628,1.36701 -1.03628,4.06797 z"
                 style="font-size:22.57777786px;stroke-width:0.26458332"
                 id="path7210" />
              <path
                 d="m 177.25976,372.60858 v -16.11753 h 3.41753 v 16.11753 z"
                 style="font-size:22.57777786px;stroke-width:0.26458332"
                 id="path7212" />
              <path
                 d="m 199.03276,372.60858 h -4.34358 l -7.01145,-12.19288 h -0.0992 q 0.20946,3.23012 0.20946,4.60816 v 7.58472 h -3.05373 v -16.11753 h 4.3105 l 7.00043,12.07161 h 0.0772 q -0.16536,-3.14193 -0.16536,-4.44279 v -7.62882 h 3.07578 z"
                 style="font-size:22.57777786px;stroke-width:0.26458332"
                 id="path7214" />
              <path
                 d="m 209.30741,372.60858 h -3.41753 v -13.27326 h -4.37665 v -2.84427 h 12.17083 v 2.84427 h -4.37665 z"
                 style="font-size:22.57777786px;stroke-width:0.26458332"
                 id="path7216" />
            </g>
          </g>
        </g>
      </a>
      <a
         id="a7083"
         xlink:href="/monitoring/environmental/water">
        <g
           id="g3282">
          <path
             id="path1134-6-4-2"
             d="M 550.57567,350.8596 420.86925,425.74563 291.16284,350.85959 V 201.08753 l 129.70642,-74.88603 129.70641,74.88603 z"
             style="opacity:1;fill:#64c7cc;fill-opacity:1;stroke:none;stroke-width:2.11666656;stroke-linecap:round;stroke-linejoin:round;stroke-miterlimit:4;stroke-dasharray:none;stroke-dashoffset:0;stroke-opacity:1;paint-order:normal" />
          <g
             id="g3189"
             transform="translate(1.85305e-8,-14.865486)">
            <g
               style="fill:#ffffff;fill-opacity:1;stroke-width:0.63340324"
               transform="matrix(1.5834178,0,0,1.5741419,-82.607328,-1410.7399)"
               id="g2969">
              <path
                 d="m 317.3068,1054.6972 c 0,0 -0.14166,2.4739 -0.46654,3.6277 -1.58283,5.6223 -6.75217,9.7486 -12.87767,9.7486 -7.38256,0 -13.37629,-5.9938 -13.37629,-13.3763 0.001,-12.9176 13.38258,-20.1813 13.37629,-24.9883 h -0.0321 c -0.006,4.807 13.37526,12.0707 13.37629,24.9883 z"
                 style="clip-rule:evenodd;fill:#ffffff;fill-opacity:1;fill-rule:evenodd;stroke:#000000;stroke-width:1.67582417px;stroke-linecap:round;stroke-linejoin:round;stroke-miterlimit:1.5"
                 id="path1274" />
              <path
                 d="m 345.3502,1075.8638 c 0,0 -0.14166,2.4739 -0.46654,3.6277 -1.58283,5.6223 -6.75217,9.7486 -12.87767,9.7486 -7.38256,0 -13.37629,-5.9938 -13.37629,-13.3763 10e-4,-12.9176 13.38258,-20.1813 13.37629,-24.9883 h -0.0321 c -0.006,4.807 13.37526,12.0707 13.37629,24.9883 z"
                 style="clip-rule:evenodd;fill:#ffffff;fill-opacity:1;fill-rule:evenodd;stroke:#000000;stroke-width:1.67582417px;stroke-linecap:round;stroke-linejoin:round;stroke-miterlimit:1.5"
                 id="path1278" />
              <path
                 d="m 317.3068,1099.9408 c 0,0 -0.14166,2.4739 -0.46654,3.6277 -1.58283,5.6223 -6.75217,9.7486 -12.87767,9.7486 -7.38256,0 -13.37629,-5.9938 -13.37629,-13.3763 0.001,-12.9176 13.38258,-20.1813 13.37629,-24.9883 h -0.0321 c -0.006,4.807 13.37526,12.0707 13.37629,24.9883 z"
                 style="clip-rule:evenodd;fill:#ffffff;fill-opacity:1;fill-rule:evenodd;stroke:#000000;stroke-width:1.67582417px;stroke-linecap:round;stroke-linejoin:round;stroke-miterlimit:1.5"
                 id="path1282" />
            </g>
            <g
               aria-label="WATER"
               style="font-style:normal;font-variant:normal;font-weight:bold;font-stretch:normal;font-size:7.05555534px;line-height:1.25;font-family:'Open Sans';-inkscape-font-specification:'Open Sans Bold';letter-spacing:0px;word-spacing:0px;fill:#000000;fill-opacity:1;stroke:none;stroke-width:0.26458332"
               id="text3006-0-3-0">
              <path
                 d="m 399.58133,372.82907 h -3.89158 l -2.18281,-8.46667 q -0.12127,-0.45199 -0.41892,-1.8631 -0.28664,-1.42214 -0.33073,-1.90721 -0.0661,0.59531 -0.33073,1.91823 -0.26459,1.31189 -0.4079,1.87413 l -2.17179,8.44462 h -3.88056 l -4.11206,-16.11753 h 3.36241 l 2.06155,8.79739 q 0.54019,2.43637 0.78272,4.22231 0.0661,-0.62838 0.29766,-1.94028 0.24253,-1.32291 0.45199,-2.05052 l 2.34818,-9.0289 h 3.23012 l 2.34818,9.0289 q 0.15434,0.60634 0.38585,1.85209 0.23151,1.24574 0.35278,2.13871 0.11024,-0.85989 0.35278,-2.13871 0.24253,-1.28985 0.44097,-2.0836 l 2.05052,-8.79739 h 3.36241 z"
                 style="font-size:22.57777786px;stroke-width:0.26458332"
                 id="path7219" />
              <path
                 d="m 415.5776,372.82907 -1.16858,-3.83646 h -5.87595 l -1.16858,3.83646 h -3.68212 l 5.68854,-16.18368 h 4.17822 l 5.71059,16.18368 z m -1.98438,-6.70278 q -1.62057,-5.21449 -1.83003,-5.898 -0.19844,-0.68351 -0.28663,-1.08038 -0.3638,1.41111 -2.0836,6.97838 z"
                 style="font-size:22.57777786px;stroke-width:0.26458332"
                 id="path7221" />
              <path
                 d="m 427.5059,372.82907 h -3.41754 v -13.27326 h -4.37665 v -2.84427 h 12.17084 v 2.84427 h -4.37665 z"
                 style="font-size:22.57777786px;stroke-width:0.26458332"
                 id="path7223" />
              <path
                 d="m 443.64548,372.82907 h -9.28247 v -16.11753 h 9.28247 v 2.80017 h -5.86493 v 3.5388 h 5.45703 v 2.80018 h -5.45703 v 4.15616 h 5.86493 z"
                 style="font-size:22.57777786px;stroke-width:0.26458332"
                 id="path7225" />
              <path
                 d="m 450.42543,363.86631 h 1.10243 q 1.62057,0 2.39228,-0.54019 0.7717,-0.54019 0.7717,-1.69774 0,-1.14653 -0.79375,-1.6316 -0.78273,-0.48507 -2.43637,-0.48507 h -1.03629 z m 0,2.77813 v 6.18463 h -3.41753 v -16.11753 h 4.69635 q 3.28524,0 4.86172,1.20165 1.57647,1.19062 1.57647,3.62699 0,1.42214 -0.78272,2.53559 -0.78273,1.10243 -2.21589,1.73082 3.63802,5.43498 4.74045,7.02248 h -3.79236 l -3.84748,-6.18463 z"
                 style="font-size:22.57777786px;stroke-width:0.26458332"
                 id="path7227" />
            </g>
          </g>
        </g>
      </a>
    </g>
  </g>
</svg>
