<?xml version="1.0" encoding="UTF-8" standalone="no"?>
<svg
   xmlns:dc="http://purl.org/dc/elements/1.1/"
   xmlns:cc="http://creativecommons.org/ns#"
   xmlns:rdf="http://www.w3.org/1999/02/22-rdf-syntax-ns#"
   xmlns:svg="http://www.w3.org/2000/svg"
   xmlns="http://www.w3.org/2000/svg"
   xmlns:sodipodi="http://sodipodi.sourceforge.net/DTD/sodipodi-0.dtd"
   xmlns:inkscape="http://www.inkscape.org/namespaces/inkscape"
   id="svg8"
   version="1.1"
   viewBox="0 0 1179.1931 378.45366"
   height="378.45364mm"
   width="1179.1931mm"
   sodipodi:docname="popular-power-sensors.svg"
   inkscape:version="0.92.5 (2060ec1f9f, 2020-04-08)">
  <sodipodi:namedview
     pagecolor="#ffffff"
     bordercolor="#666666"
     borderopacity="1"
     objecttolerance="10"
     gridtolerance="10"
     guidetolerance="10"
     inkscape:pageopacity="0"
     inkscape:pageshadow="2"
     inkscape:window-width="2800"
     inkscape:window-height="1672"
     id="namedview78"
     showgrid="false"
     inkscape:zoom="0.32998317"
     inkscape:cx="1776.523"
     inkscape:cy="430.29436"
     inkscape:window-x="80"
     inkscape:window-y="54"
     inkscape:window-maximized="1"
     inkscape:current-layer="svg8" />
  <defs
     id="defs2" />
  <metadata
     id="metadata5">
    <rdf:RDF>
      <cc:Work
         rdf:about="">
        <dc:format>image/svg+xml</dc:format>
        <dc:type
           rdf:resource="http://purl.org/dc/dcmitype/StillImage" />
        <dc:title />
      </cc:Work>
    </rdf:RDF>
  </metadata>
  <path
     id="path1134"
     d="M 314.30872,264.11285 184.60231,338.99888 54.89589,264.11284 V 114.34078 L 184.60231,39.454747 314.30872,114.34078 Z"
     style="opacity:1;fill:#64c7cc;fill-opacity:1;stroke:none;stroke-width:2.11666656;stroke-linecap:round;stroke-linejoin:round;stroke-miterlimit:4;stroke-dasharray:none;stroke-dashoffset:0;stroke-opacity:1;paint-order:normal"
     inkscape:connector-curvature="0" />
  <path
     id="path1134-6"
     d="M 584.30489,264.11285 454.59847,338.99888 324.89206,264.11284 V 114.34078 L 454.59848,39.454747 584.30489,114.34078 Z"
     style="opacity:1;fill:#64c7cc;fill-opacity:1;stroke:none;stroke-width:2.11666656;stroke-linecap:round;stroke-linejoin:round;stroke-miterlimit:4;stroke-dasharray:none;stroke-dashoffset:0;stroke-opacity:1;paint-order:normal"
     inkscape:connector-curvature="0" />
  <path
     id="path1134-6-4"
     d="M 854.30106,264.11286 724.59464,338.99889 594.88823,264.11285 V 114.34079 L 724.59465,39.454757 854.30106,114.34079 Z"
     style="opacity:1;fill:#64c7cc;fill-opacity:1;stroke:none;stroke-width:2.11666656;stroke-linecap:round;stroke-linejoin:round;stroke-miterlimit:4;stroke-dasharray:none;stroke-dashoffset:0;stroke-opacity:1;paint-order:normal"
     inkscape:connector-curvature="0" />
  <path
     id="path1134-6-4-2"
     d="M 1124.2972,264.11287 994.59081,338.9989 864.8844,264.11286 V 114.3408 L 994.59082,39.454767 1124.2972,114.3408 Z"
     style="opacity:1;fill:#64c7cc;fill-opacity:1;stroke:none;stroke-width:2.11666656;stroke-linecap:round;stroke-linejoin:round;stroke-miterlimit:4;stroke-dasharray:none;stroke-dashoffset:0;stroke-opacity:1;paint-order:normal"
     inkscape:connector-curvature="0" />
  <g
     aria-label="A"
     style="font-style:normal;font-variant:normal;font-weight:bold;font-stretch:normal;font-size:7.05555534px;line-height:1.25;font-family:'Open Sans';-inkscape-font-specification:'Open Sans Bold';letter-spacing:0px;word-spacing:0px;fill:#000000;fill-opacity:1;stroke:none;stroke-width:0.26458332"
     id="text921">
    <path
       d="m 210.26827,213.34245 -7.3036,-23.97786 h -36.72472 l -7.3036,23.97786 h -23.01324 l 35.55339,-101.148 h 26.11382 l 35.69119,101.148 z m -12.40234,-41.89236 q -10.12858,-32.5906 -11.43772,-36.86252 -1.24023,-4.27192 -1.79145,-6.75239 -2.27376,8.81945 -13.02246,43.61491 z"
       style="font-size:141.1111145px;stroke-width:0.26458332"
       id="path1310" />
  </g>
  <g
     aria-label="V"
     style="font-style:normal;font-variant:normal;font-weight:bold;font-stretch:normal;font-size:7.05555534px;line-height:1.25;font-family:'Open Sans';-inkscape-font-specification:'Open Sans Bold';letter-spacing:0px;word-spacing:0px;fill:#000000;fill-opacity:1;stroke:none;stroke-width:0.26458332"
     id="text921-5">
    <path
       d="m 478.8864,112.40116 h 21.5663 L 466.20845,213.13574 H 442.91961 L 408.74426,112.40116 h 21.5663 l 18.94802,59.94466 q 1.58475,5.30544 3.23839,12.40234 1.72255,7.02799 2.13596,9.78407 0.75792,-6.33898 5.16764,-22.18641 z"
       style="font-size:141.11109924px;stroke-width:0.26458332"
       id="path1313" />
  </g>
  <g
     aria-label="kW"
     style="font-style:normal;font-variant:normal;font-weight:bold;font-stretch:normal;font-size:5.75919867px;line-height:1.25;font-family:'Open Sans';-inkscape-font-specification:'Open Sans Bold';letter-spacing:0px;word-spacing:0px;fill:#000000;fill-opacity:1;stroke:none;stroke-width:0.26458332"
     id="text921-5-5">
    <path
       d="m 654.17942,172.32963 7.48021,-9.56116 17.6038,-19.12234 h 19.34731 l -24.97153,27.27745 26.49006,35.60129 h -19.79724 l -18.10998,-25.4777 -7.36772,5.90543 v 19.57227 h -17.15386 v -87.51281 h 17.15386 v 39.03206 l -0.89988,14.28551 z"
       style="font-size:115.18395996px;stroke-width:0.26458332"
       id="path1316" />
    <path
       d="m 790.56668,206.52487 h -19.85349 l -11.13595,-43.19398 q -0.61866,-2.30593 -2.1372,-9.50493 -1.46229,-7.25524 -1.68726,-9.72989 -0.33746,3.03707 -1.68727,9.78613 -1.34981,6.69282 -2.08096,9.56117 l -11.07971,43.0815 H 721.1076 l -20.97833,-82.22605 h 17.15386 l 10.51729,44.88125 q 2.75587,12.42952 3.99319,21.54075 0.33746,-3.2058 1.51854,-9.89862 1.23733,-6.74906 2.30593,-10.46104 l 11.97958,-46.06234 h 16.47896 l 11.97958,46.06234 q 0.78739,3.09332 1.96848,9.44868 1.18108,6.35537 1.79974,10.91098 0.56243,-4.38689 1.79975,-10.91098 1.23733,-6.58033 2.24969,-10.62977 l 10.46104,-44.88125 h 17.15387 z"
       style="font-size:115.18395996px;stroke-width:0.26458332"
       id="path1318" />
  </g>
  <g
     aria-label="kWh
"
     style="font-style:normal;font-variant:normal;font-weight:bold;font-stretch:normal;font-size:4.68104744px;line-height:1.25;font-family:'Open Sans';-inkscape-font-specification:'Open Sans Bold';letter-spacing:0px;word-spacing:0px;fill:#000000;fill-opacity:1;stroke:none;stroke-width:0.26458332"
     id="text921-5-5-2">
    <path
       d="m 910.11256,170.53975 6.07988,-7.77127 14.30828,-15.54254 h 15.72539 l -20.29673,22.17098 21.53099,28.93655 h -16.0911 l -14.7197,-20.70815 -5.98844,4.7999 v 15.90825 H 896.71855 V 127.2035 h 13.94258 v 31.72506 l -0.73142,11.61119 z"
       style="font-size:93.62093353px;stroke-width:0.26458332"
       id="path1321" />
    <path
       d="m 1020.9674,198.33347 h -16.1368 l -9.05122,-35.10785 q -0.50285,-1.87425 -1.73711,-7.72556 -1.18855,-5.89702 -1.3714,-7.90841 -0.27428,2.46852 -1.3714,7.95412 -1.09712,5.43989 -1.6914,7.77127 l -9.00552,35.01643 h -16.0911 l -17.05108,-66.83292 h 13.94257 l 8.5484,36.47925 q 2.23995,10.10265 3.24564,17.50822 0.27428,-2.60567 1.23426,-8.04555 1.0057,-5.48561 1.87425,-8.50269 l 9.73694,-37.43923 h 13.39401 l 9.73696,37.43923 q 0.64,2.51424 1.6,7.67985 0.9599,5.1656 1.4628,8.86839 0.4571,-3.56565 1.4628,-8.86839 1.0057,-5.34847 1.8285,-8.63983 l 8.5027,-36.47925 h 13.9426 z"
       style="font-size:93.62093353px;stroke-width:0.26458332"
       id="path1323" />
    <path
       d="m 1092.4631,198.33347 h -13.9426 v -29.85082 q 0,-11.06263 -8.2284,-11.06263 -5.8513,0 -8.4569,3.97706 -2.6057,3.97706 -2.6057,12.89117 v 24.04522 h -13.9426 V 127.2035 h 13.9426 v 14.49113 q 0,1.69139 -0.32,7.95412 l -0.32,4.1142 h 0.7314 q 4.6628,-7.49699 14.8112,-7.49699 9.0055,0 13.6682,4.84562 4.6628,4.84561 4.6628,13.89686 z"
       style="font-size:93.62093353px;stroke-width:0.26458332"
       id="path1325" />
  </g>
  <g
     aria-label="AMPS"
     style="font-style:normal;font-variant:normal;font-weight:bold;font-stretch:normal;font-size:7.05555534px;line-height:1.25;font-family:'Open Sans';-inkscape-font-specification:'Open Sans Bold';letter-spacing:0px;word-spacing:0px;fill:#000000;fill-opacity:1;stroke:none;stroke-width:0.26458332"
     id="text1254">
    <path
       d="m 162.78038,256.50751 -1.31465,-4.31602 h -6.61044 l -1.31465,4.31602 h -4.14239 l 6.39961,-18.20664 h 4.70049 l 6.42442,18.20664 z m -2.23242,-7.54063 q -1.82314,-5.86631 -2.05879,-6.63525 -0.22324,-0.76895 -0.32246,-1.21543 -0.40928,1.5875 -2.34404,7.85068 z"
       style="font-size:25.39999962px;stroke-width:0.26458332"
       id="path1328" />
    <path
       d="m 176.88185,256.50751 -4.36563,-14.22549 h -0.11162 q 0.23565,4.34082 0.23565,5.79189 v 8.4336 h -3.43545 v -18.13223 h 5.23379 l 4.29121,13.86582 h 0.0744 l 4.55166,-13.86582 h 5.23379 v 18.13223 h -3.58428 v -8.58242 q 0,-0.60772 0.0124,-1.40147 0.0248,-0.79375 0.17364,-4.2168 h -0.11162 l -4.67569,14.20069 z"
       style="font-size:25.39999962px;stroke-width:0.26458332"
       id="path1330" />
    <path
       d="m 196.99845,246.90809 h 1.26504 q 1.77353,0 2.6541,-0.69453 0.88056,-0.70693 0.88056,-2.04638 0,-1.35186 -0.74414,-1.99678 -0.73174,-0.64492 -2.30683,-0.64492 h -1.74873 z m 8.68164,-2.87734 q 0,2.92695 -1.83555,4.47725 -1.82314,1.55029 -5.19658,1.55029 h -1.64951 v 6.44922 h -3.84473 v -18.13223 h 5.79189 q 3.29903,0 5.01055,1.42627 1.72393,1.41387 1.72393,4.2292 z"
       style="font-size:25.39999962px;stroke-width:0.26458332"
       id="path1332" />
    <path
       d="m 219.80636,251.47216 q 0,2.45566 -1.77354,3.86953 -1.76113,1.41386 -4.91132,1.41386 -2.90215,0 -5.13457,-1.0914 v -3.57188 q 1.83554,0.81856 3.10058,1.15342 1.27744,0.33486 2.33164,0.33486 1.26504,0 1.93477,-0.48369 0.68213,-0.48369 0.68213,-1.43867 0,-0.5333 -0.29766,-0.94258 -0.29766,-0.42168 -0.88057,-0.80615 -0.5705,-0.38447 -2.34404,-1.22783 -1.66191,-0.78135 -2.49287,-1.50069 -0.83096,-0.71933 -1.32705,-1.67431 -0.49609,-0.95498 -0.49609,-2.23242 0,-2.40606 1.6247,-3.78272 1.63711,-1.37666 4.51446,-1.37666 1.41386,0 2.6913,0.33487 1.28985,0.33486 2.69131,0.94257 l -1.24023,2.98897 q -1.45108,-0.59531 -2.40606,-0.83096 -0.94257,-0.23564 -1.86035,-0.23564 -1.0914,0 -1.67431,0.50849 -0.58291,0.5085 -0.58291,1.32705 0,0.5085 0.23564,0.89297 0.23565,0.37207 0.74414,0.73174 0.5209,0.34727 2.44326,1.26504 2.54248,1.21543 3.48506,2.44326 0.94258,1.21543 0.94258,2.98897 z"
       style="font-size:25.39999962px;stroke-width:0.26458332"
       id="path1334" />
  </g>
  <g
     aria-label="VOLTAGE"
     style="font-style:normal;font-variant:normal;font-weight:bold;font-stretch:normal;font-size:7.05555534px;line-height:1.25;font-family:'Open Sans';-inkscape-font-specification:'Open Sans Bold';letter-spacing:0px;word-spacing:0px;fill:#000000;fill-opacity:1;stroke:none;stroke-width:0.26458332"
     id="text1254-1">
    <path
       d="m 410.01206,238.38767 h 3.88193 l -6.16396,18.13223 h -4.19199 l -6.15157,-18.13223 h 3.88194 l 3.41064,10.79004 q 0.28526,0.95498 0.58291,2.23242 0.31006,1.26504 0.38448,1.76113 0.13642,-1.14101 0.93017,-3.99355 z"
       style="font-size:25.39999962px;stroke-width:0.26458332"
       id="path1337" />
    <path
       d="m 432.63393,247.42898 q 0,4.50205 -2.23242,6.92051 -2.23242,2.41845 -6.39961,2.41845 -4.16718,0 -6.39961,-2.41845 -2.23242,-2.41846 -2.23242,-6.94532 0,-4.52685 2.23242,-6.9081 2.24483,-2.39365 6.42442,-2.39365 4.17959,0 6.38721,2.40605 2.22001,2.40606 2.22001,6.92051 z m -13.2333,0 q 0,3.03857 1.15342,4.57646 1.15342,1.5379 3.44785,1.5379 4.60127,0 4.60127,-6.11436 0,-6.12676 -4.57646,-6.12676 -2.29444,0 -3.46026,1.55029 -1.16582,1.5379 -1.16582,4.57647 z"
       style="font-size:25.39999962px;stroke-width:0.26458332"
       id="path1339" />
    <path
       d="m 436.39184,256.5199 v -18.13223 h 3.84473 v 14.95723 h 7.35459 v 3.175 z"
       style="font-size:25.39999962px;stroke-width:0.26458332"
       id="path1341" />
    <path
       d="m 457.73628,256.5199 h -3.84473 v -14.93242 h -4.92373 v -3.19981 h 13.69219 v 3.19981 h -4.92373 z"
       style="font-size:25.39999962px;stroke-width:0.26458332"
       id="path1343" />
    <path
       d="m 476.55063,256.5199 -1.31465,-4.31602 h -6.61045 l -1.31464,4.31602 h -4.14239 l 6.39961,-18.20664 h 4.70049 l 6.42441,18.20664 z m -2.23242,-7.54063 q -1.82314,-5.86631 -2.05879,-6.63525 -0.22324,-0.76895 -0.32246,-1.21543 -0.40928,1.5875 -2.34404,7.85068 z"
       style="font-size:25.39999962px;stroke-width:0.26458332"
       id="path1345" />
    <path
       d="m 489.85835,246.33757 h 7.19336 v 9.40098 q -1.74873,0.57051 -3.29903,0.79375 -1.53789,0.23564 -3.15019,0.23564 -4.10518,0 -6.27559,-2.40605 -2.15801,-2.41846 -2.15801,-6.93291 0,-4.39043 2.50528,-6.84609 2.51767,-2.45567 6.97012,-2.45567 2.79052,0 5.38261,1.11621 l -1.27744,3.07578 q -1.98437,-0.99218 -4.12998,-0.99218 -2.49287,0 -3.99355,1.67431 -1.50069,1.67432 -1.50069,4.50205 0,2.95176 1.20303,4.51446 1.21543,1.55029 3.52227,1.55029 1.20302,0 2.44326,-0.24805 v -3.78271 h -3.43545 z"
       style="font-size:25.39999962px;stroke-width:0.26458332"
       id="path1347" />
    <path
       d="m 511.8105,256.5199 h -10.44278 v -18.13223 h 10.44278 v 3.1502 h -6.59805 v 3.98115 h 6.13916 v 3.15019 h -6.13916 v 4.67569 h 6.59805 z"
       style="font-size:25.39999962px;stroke-width:0.26458332"
       id="path1349" />
  </g>
  <g
     aria-label="KILOWATT"
     style="font-style:normal;font-variant:normal;font-weight:bold;font-stretch:normal;font-size:7.05555534px;line-height:1.25;font-family:'Open Sans';-inkscape-font-specification:'Open Sans Bold';letter-spacing:0px;word-spacing:0px;fill:#000000;fill-opacity:1;stroke:none;stroke-width:0.26458332"
     id="text1254-1-7">
    <path
       d="m 674.90466,256.51993 h -4.36562 l -4.7501,-7.63985 -1.62471,1.16582 v 6.47403 h -3.84472 V 238.3877 h 3.84472 v 8.29717 l 1.51309,-2.1332 4.91133,-6.16397 h 4.2664 l -6.32519,8.02432 z"
       style="font-size:25.39999962px;stroke-width:0.26458332"
       id="path1352" />
    <path
       d="M 677.18669,256.51993 V 238.3877 h 3.84473 v 18.13223 z"
       style="font-size:25.39999962px;stroke-width:0.26458332"
       id="path1354" />
    <path
       d="M 685.59548,256.51993 V 238.3877 h 3.84473 v 14.95723 h 7.35459 v 3.175 z"
       style="font-size:25.39999962px;stroke-width:0.26458332"
       id="path1356" />
    <path
       d="m 716.4029,247.42901 q 0,4.50205 -2.23242,6.92051 -2.23242,2.41845 -6.39961,2.41845 -4.16718,0 -6.39961,-2.41845 -2.23242,-2.41846 -2.23242,-6.94531 0,-4.52686 2.23242,-6.90811 2.24483,-2.39365 6.42442,-2.39365 4.17959,0 6.38721,2.40605 2.22001,2.40606 2.22001,6.92051 z m -13.2333,0 q 0,3.03857 1.15342,4.57646 1.15342,1.5379 3.44785,1.5379 4.60127,0 4.60127,-6.11436 0,-6.12676 -4.57646,-6.12676 -2.29444,0 -3.46026,1.5503 -1.16582,1.53789 -1.16582,4.57646 z"
       style="font-size:25.39999962px;stroke-width:0.26458332"
       id="path1358" />
    <path
       d="m 737.82175,256.51993 h -4.37802 l -2.45567,-9.525 q -0.13642,-0.5085 -0.47129,-2.096 -0.32246,-1.5999 -0.37207,-2.1456 -0.0744,0.66972 -0.37207,2.158 -0.29765,1.47588 -0.45889,2.1084 l -2.44326,9.5002 h -4.36562 l -4.62608,-18.13223 h 3.78272 l 2.31924,9.89707 q 0.60771,2.74092 0.88056,4.7501 0.0744,-0.70693 0.33487,-2.18281 0.27285,-1.48828 0.50849,-2.30684 l 2.6417,-10.15752 h 3.63389 l 2.6417,10.15752 q 0.17363,0.68213 0.43408,2.08359 0.26045,1.40147 0.39688,2.40606 0.12402,-0.96738 0.39687,-2.40606 0.27285,-1.45107 0.49609,-2.34404 l 2.30684,-9.89707 h 3.78271 z"
       style="font-size:25.39999962px;stroke-width:0.26458332"
       id="path1360" />
    <path
       d="m 755.81755,256.51993 -1.31464,-4.31602 h -6.61045 l -1.31465,4.31602 h -4.14239 l 6.39961,-18.20664 h 4.70049 l 6.42442,18.20664 z m -2.23242,-7.54063 q -1.82314,-5.86631 -2.05879,-6.63525 -0.22324,-0.76895 -0.32246,-1.21543 -0.40928,1.5875 -2.34404,7.85068 z"
       style="font-size:25.39999962px;stroke-width:0.26458332"
       id="path1362" />
    <path
       d="m 769.23689,256.51993 h -3.84473 v -14.93242 h -4.92373 v -3.19981 h 13.69219 v 3.19981 h -4.92373 z"
       style="font-size:25.39999962px;stroke-width:0.26458332"
       id="path1364" />
    <path
       d="m 783.94607,256.51993 h -3.84473 v -14.93242 h -4.92373 v -3.19981 h 13.69219 v 3.19981 h -4.92373 z"
       style="font-size:25.39999962px;stroke-width:0.26458332"
       id="path1366" />
  </g>
  <g
     aria-label="KILOWATT-HOUR"
     style="font-style:normal;font-variant:normal;font-weight:bold;font-stretch:normal;font-size:7.05555534px;line-height:1.25;font-family:'Open Sans';-inkscape-font-specification:'Open Sans Bold';letter-spacing:0px;word-spacing:0px;fill:#000000;fill-opacity:1;stroke:none;stroke-width:0.26458332"
     id="text1254-1-7-9">
    <path
       d="m 902.75146,256.51993 h -4.36562 l -4.7501,-7.63985 -1.6247,1.16582 v 6.47403 h -3.84473 V 238.3877 h 3.84473 v 8.29717 l 1.51308,-2.1332 4.91133,-6.16397 h 4.26641 l -6.3252,8.02432 z"
       style="font-size:25.39999962px;stroke-width:0.26458332"
       id="path1369" />
    <path
       d="M 905.0335,256.51993 V 238.3877 h 3.84472 v 18.13223 z"
       style="font-size:25.39999962px;stroke-width:0.26458332"
       id="path1371" />
    <path
       d="M 913.44228,256.51993 V 238.3877 h 3.84473 v 14.95723 h 7.35459 v 3.175 z"
       style="font-size:25.39999962px;stroke-width:0.26458332"
       id="path1373" />
    <path
       d="m 944.24971,247.42901 q 0,4.50205 -2.23243,6.92051 -2.23242,2.41845 -6.3996,2.41845 -4.16719,0 -6.39961,-2.41845 -2.23243,-2.41846 -2.23243,-6.94531 0,-4.52686 2.23243,-6.90811 2.24482,-2.39365 6.42441,-2.39365 4.17959,0 6.38721,2.40605 2.22002,2.40606 2.22002,6.92051 z m -13.2333,0 q 0,3.03857 1.15341,4.57646 1.15342,1.5379 3.44786,1.5379 4.60127,0 4.60127,-6.11436 0,-6.12676 -4.57647,-6.12676 -2.29443,0 -3.46025,1.5503 -1.16582,1.53789 -1.16582,4.57646 z"
       style="font-size:25.39999962px;stroke-width:0.26458332"
       id="path1375" />
    <path
       d="m 965.66855,256.51993 h -4.37802 l -2.45567,-9.525 q -0.13642,-0.5085 -0.47129,-2.096 -0.32246,-1.5999 -0.37207,-2.1456 -0.0744,0.66972 -0.37207,2.158 -0.29765,1.47588 -0.45888,2.1084 l -2.44326,9.5002 h -4.36563 l -4.62607,-18.13223 h 3.78271 l 2.31924,9.89707 q 0.60771,2.74092 0.88057,4.7501 0.0744,-0.70693 0.33486,-2.18281 0.27285,-1.48828 0.50849,-2.30684 l 2.6417,-10.15752 h 3.63389 l 2.6417,10.15752 q 0.17363,0.68213 0.43408,2.08359 0.26045,1.40147 0.39688,2.40606 0.12402,-0.96738 0.39687,-2.40606 0.27285,-1.45107 0.4961,-2.34404 l 2.30683,-9.89707 h 3.78272 z"
       style="font-size:25.39999962px;stroke-width:0.26458332"
       id="path1377" />
    <path
       d="m 983.66436,256.51993 -1.31465,-4.31602 h -6.61045 l -1.31465,4.31602 h -4.14238 l 6.39961,-18.20664 h 4.70048 l 6.42442,18.20664 z m -2.23243,-7.54063 q -1.82314,-5.86631 -2.05879,-6.63525 -0.22324,-0.76895 -0.32246,-1.21543 -0.40927,1.5875 -2.34404,7.85068 z"
       style="font-size:25.39999962px;stroke-width:0.26458332"
       id="path1379" />
    <path
       d="m 997.08369,256.51993 h -3.84472 v -14.93242 h -4.92373 v -3.19981 h 13.69216 v 3.19981 h -4.92371 z"
       style="font-size:25.39999962px;stroke-width:0.26458332"
       id="path1381" />
    <path
       d="m 1011.7929,256.51993 h -3.8448 v -14.93242 h -4.9237 v -3.19981 h 13.6922 v 3.19981 h -4.9237 z"
       style="font-size:25.39999962px;stroke-width:0.26458332"
       id="path1383" />
    <path
       d="m 1017.9816,251.26133 v -3.10058 h 6.6601 v 3.10058 z"
       style="font-size:25.39999962px;stroke-width:0.26458332"
       id="path1385" />
    <path
       d="m 1042.5383,256.51993 h -3.8323 v -7.82588 h -7.181 v 7.82588 h -3.8447 V 238.3877 h 3.8447 v 7.10654 h 7.181 v -7.10654 h 3.8323 z"
       style="font-size:25.39999962px;stroke-width:0.26458332"
       id="path1387" />
    <path
       d="m 1063.5727,247.42901 q 0,4.50205 -2.2325,6.92051 -2.2324,2.41845 -6.3996,2.41845 -4.1672,0 -6.3996,-2.41845 -2.2324,-2.41846 -2.2324,-6.94531 0,-4.52686 2.2324,-6.90811 2.2448,-2.39365 6.4244,-2.39365 4.1796,0 6.3872,2.40605 2.2201,2.40606 2.2201,6.92051 z m -13.2333,0 q 0,3.03857 1.1534,4.57646 1.1534,1.5379 3.4478,1.5379 4.6013,0 4.6013,-6.11436 0,-6.12676 -4.5765,-6.12676 -2.2944,0 -3.4602,1.5503 -1.1658,1.53789 -1.1658,4.57646 z"
       style="font-size:25.39999962px;stroke-width:0.26458332"
       id="path1389" />
    <path
       d="m 1082.0894,238.3877 v 11.73262 q 0,2.00918 -0.9054,3.52226 -0.893,1.51309 -2.5921,2.31924 -1.6991,0.80615 -4.0184,0.80615 -3.4974,0 -5.4322,-1.78593 -1.9348,-1.79834 -1.9348,-4.91133 V 238.3877 h 3.8324 v 11.1001 q 0,2.096 0.8433,3.07578 0.8434,0.97979 2.7906,0.97979 1.8851,0 2.7285,-0.97979 0.8557,-0.99219 0.8557,-3.10059 V 238.3877 Z"
       style="font-size:25.39999962px;stroke-width:0.26458332"
       id="path1391" />
    <path
       d="m 1090.3741,246.43682 h 1.2403 q 1.8231,0 2.6913,-0.60771 0.8681,-0.60772 0.8681,-1.90996 0,-1.28985 -0.8929,-1.83555 -0.8806,-0.5457 -2.741,-0.5457 h -1.1658 z m 0,3.12539 v 6.95772 h -3.8447 V 238.3877 h 5.2834 q 3.6959,0 5.4694,1.35186 1.7736,1.33945 1.7736,4.08037 0,1.5999 -0.8806,2.85254 -0.8806,1.24023 -2.4929,1.94717 4.0928,6.11435 5.333,7.90029 h -4.2664 l -4.3284,-6.95772 z"
       style="font-size:25.39999962px;stroke-width:0.26458332"
       id="path1393" />
  </g>
</svg>
