<?xml version="1.0" encoding="UTF-8" standalone="no"?>
<!-- Created with Inkscape (http://www.inkscape.org/) -->

<svg
   xmlns:dc="http://purl.org/dc/elements/1.1/"
   xmlns:cc="http://creativecommons.org/ns#"
   xmlns:rdf="http://www.w3.org/1999/02/22-rdf-syntax-ns#"
   xmlns:svg="http://www.w3.org/2000/svg"
   xmlns="http://www.w3.org/2000/svg"
   xmlns:sodipodi="http://sodipodi.sourceforge.net/DTD/sodipodi-0.dtd"
   xmlns:inkscape="http://www.inkscape.org/namespaces/inkscape"
   width="2100"
   height="122.85714"
   viewBox="0 0 555.62501 32.505951"
   version="1.1"
   id="svg8"
   sodipodi:docname="supported-manufacturers.svg"
   inkscape:version="0.92.5 (2060ec1f9f, 2020-04-08)">
  <defs
     id="defs2" />
  <sodipodi:namedview
     id="base"
     pagecolor="#ffffff"
     bordercolor="#666666"
     borderopacity="1.0"
     inkscape:pageopacity="0.0"
     inkscape:pageshadow="2"
     inkscape:zoom="0.7"
     inkscape:cx="1289.6742"
     inkscape:cy="67.417477"
     inkscape:document-units="mm"
     inkscape:current-layer="layer1"
     showgrid="false"
     inkscape:window-width="2800"
     inkscape:window-height="1672"
     inkscape:window-x="80"
     inkscape:window-y="54"
     inkscape:window-maximized="1"
     units="px" />
  <metadata
     id="metadata5">
    <rdf:RDF>
      <cc:Work
         rdf:about="">
        <dc:format>image/svg+xml</dc:format>
        <dc:type
           rdf:resource="http://purl.org/dc/dcmitype/StillImage" />
        <dc:title></dc:title>
      </cc:Work>
    </rdf:RDF>
  </metadata>
  <g
     inkscape:label="Layer 1"
     inkscape:groupmode="layer"
     id="layer1"
     transform="translate(3.3637972,-54.473925)">
    <g
       style="clip-rule:evenodd;fill-rule:evenodd;stroke-linejoin:round;stroke-miterlimit:1.41420996"
       id="g826"
       transform="matrix(0.26458333,0,0,0.26458333,7.9139118,58.183039)">
      <path
         id="path815"
         style="fill:#757575"
         d="M 126.026,87.371 H 69.21 L 60.391,68.393 90.34,67.497 75.744,30.773 52.131,85.867 H 24.807 L 60.391,9.261 H 90.34 Z m 74.848,-56.393 c 6.677,-13.493 21.571,-21.236 36.108,-23.086 18.332,-2.332 36.096,5.297 36.096,5.297 v 22.592 c 0,0 -13.142,-7.332 -26.312,-7.696 -11.94,-0.329 -24.027,7.21 -24.002,18.876 0.029,13.327 14.857,19.071 24.002,19.77 12.248,0.935 26.312,-5.536 26.312,-5.536 v 19.622 c 0,0 -17.323,8.152 -35.41,5.726 -19.754,-2.65 -40.419,-16.778 -40.419,-39.582 0,-0.245 0.002,-0.488 0.007,-0.731 -3.916,6.907 -10.839,12.157 -20.091,12.835 h -22.23 V 85.472 H 126.026 V 40.05 h 44.005 c 5.154,1.378 5.85,-11.669 0.548,-13.153 -0.195,-0.055 -0.357,-0.205 -0.548,-0.304 H 126.026 L 119.181,9.261 175.357,7.782 c 17.083,1.25 24.909,11.91 25.517,23.196 z"
         inkscape:connector-curvature="0" />
    </g>
    <g
       style="clip-rule:evenodd;fill-rule:evenodd;stroke-linejoin:round;stroke-miterlimit:1.41420996"
       id="g839"
       transform="matrix(0.26458333,0,0,0.26458333,148.44716,57.497734)">
      <path
         id="path828"
         style="fill:#707070"
         d="M 117.25,89.899 H 79.641 l 6.178,-21.063 h 25.254 z m -67.523,0 H 4.082 V 10.101 H 73.94 l -6.956,22.925 h -35.41 v 6.471 H 65.02 L 58.488,61.026 H 31.574 v 6.471 h 24.95 z M 272.549,10.101 h 23.369 V 89.899 H 258.144 L 243.256,40.476 V 89.899 H 219.942 V 10.101 l 37.428,0.448 15.179,50.166 z M 171.077,89.899 h -36.52 V 33.211 h -22.778 v -23.11 h 71.978 l -0.09,0.568 c -17.067,3.322 -30.1,20.8 -30.1,41.833 0,15.512 7.088,29.09 17.655,36.482 z m 25.578,-53.114 c 8.467,0 15.341,7.344 15.341,16.39 0,9.047 -6.874,16.391 -15.341,16.391 -8.467,0 -15.341,-7.344 -15.341,-16.391 0,-9.046 6.874,-16.39 15.341,-16.39 z m -90.794,14.28 h -14.83 l 7.415,-25.283 z"
         inkscape:connector-curvature="0" />
    </g>
    <g
       style="clip-rule:evenodd;fill-rule:evenodd;stroke-linejoin:round;stroke-miterlimit:1.41420996"
       id="g852"
       transform="matrix(0.26458333,0,0,0.26458333,244.75407,57.390313)">
      <path
         id="path841"
         style="fill:#757575"
         d="M 37.79,9 2,19.049 V 66.853 L 43.335,91.812 84.939,66.853 V 13.734 L 40.757,33.417 42.233,69.088 44.592,38.343 79.285,22.261 V 63.688 L 43.335,82.636 7.866,63.688 V 20.294 Z m 94.95,19.367 v 6.881 H 98.298 c -2.427,0.167 -3.706,1.51 -4.147,3.713 v 21.474 c 0.401,1.987 1.757,3.086 4.147,3.222 h 25.189 c 2.221,-0.113 3.272,-1.156 3.039,-3.222 V 55.51 c 0.007,-2.107 -1.09,-3.022 -3.039,-3.018 h -16.962 v -7.043 h 20.001 c 3.736,0.738 5.807,3.086 6.214,7.043 v 11.165 c -0.472,3.621 -2.577,5.729 -6.214,6.42 H 94.151 c -2.919,-0.892 -4.785,-2.998 -5.509,-6.42 V 36.562 c 0.044,-3.584 1.742,-6.381 5.509,-8.195 z m 50.219,0.666 v 6.023 h -35.251 c -1.411,0.365 -2.265,1.454 -2.561,3.269 v 7.731 h 36.85 v 7.054 h -36.85 v 8.527 c 0.212,1.366 1.045,2.157 2.561,2.317 h 35.251 v 6.101 H 145.147 C 141.393,69.036 139.331,66.588 139,62.674 V 37.081 c 0.277,-4.039 2.248,-6.781 6.147,-8.048 z m 64.017,-0.182 v 6.464 h -34.213 c -1.655,0.262 -2.28,1.253 -2.756,2.864 v 4.853 c 0.132,1.432 1.508,2.342 2.756,2.755 h 26.503 c 3.816,0.431 6.611,2.093 7.71,5.801 v 12.385 c -0.305,3.145 -1.982,5.159 -4.997,6.068 h -38.051 v -6.068 h 35.338 c 1.523,-0.427 2.526,-1.378 2.713,-3.152 v -5.632 c -0.423,-1.561 -1.464,-2.053 -2.713,-2.185 h -28.032 c -3.865,-0.655 -6.456,-2.459 -7.306,-5.836 V 35.315 c 0.516,-3.213 2.331,-5.516 6.079,-6.464 z m 48.956,0.081 v 6.202 H 280.86 c -1.264,-0.064 -1.793,0.674 -1.793,1.988 v 32.821 h -6.266 V 37.122 c -0.142,-1.402 -0.696,-2.043 -1.623,-1.988 H 253.055 V 28.932 Z M 195.866,69.901 h -4.823 v -41.05 h 4.823 z"
         inkscape:connector-curvature="0" />
    </g>
    <g
       style="clip-rule:evenodd;fill-rule:evenodd;stroke-linejoin:round;stroke-miterlimit:1.41420996"
       id="g865"
       transform="matrix(0.26458333,0,0,0.26458333,324.68377,57.741019)">
      <path
         id="path854"
         style="fill:#707070"
         d="m 112.443,42.182 c -4.091,0.04 -2.682,-6.903 4.68,-7.239 h 54.733 c 8.095,-0.4 12.073,3.014 10.836,11.263 -1.836,5.817 -4.244,11.519 -7.414,17.069 -4.542,5.074 -9.846,8.138 -16.182,8.474 H 131.71 c -2.414,-0.136 -4.054,0.768 -4.92,2.711 l -5.421,13.329 c -1.219,3.196 -3.045,5.108 -5.756,5.143 h -15.041 c -2.608,-0.2 -3.077,-2.064 -1.982,-5.143 l 13.853,-34.635 c 0.692,-2.357 2.539,-3.807 6.075,-3.932 h 13.192 c 3.162,0.234 4.025,1.968 2.587,5.203 l -1.703,4.221 c -1.021,2.883 -0.876,5.054 2.242,5.407 H 150 c 2.302,-0.401 3.878,-1.762 4.814,-3.967 l 5.043,-12.881 c 1.557,-3.22 0.228,-4.846 -3.728,-5.023 z M 75.568,31.356 c -1.098,2.499 -3.042,3.358 -5.284,3.587 -5.347,0.545 -7.999,5.967 -4.348,6.813 3.071,0.712 4.886,2.822 2.964,6.123 -1.465,2.516 -3.084,7.691 -4.256,11.295 -2.005,6.164 0.338,11.408 4.256,11.447 2.976,0.03 6.084,1.331 8.859,1.1 3.58,-0.297 6.09,-3.477 6.82,-6.88 1.026,-4.781 5.278,-14.905 7.608,-18.66 1.311,-2.112 4.163,-3.748 6.373,-3.87 6.288,-0.349 6.966,-8.291 0.702,-7.368 -1.274,0.187 -2.62,-0.537 -2.279,-2.45 C 97.282,30.817 93.507,28.794 91.2,28.671 87.631,28.481 79.991,27.61 75.568,31.356 Z M 227.924,13.22 c 2.579,0.013 3.016,1.446 1.677,4.057 l -4.72,12.971 c -0.721,2.892 -0.236,4.533 1.705,4.663 h 6.822 c 5.316,0.317 3.716,6.961 -2.644,7.332 h -6.933 c -2.286,0.081 -3.922,1.747 -5.293,4.054 l -4.818,13.051 c -1.189,2.549 -0.604,4.031 1.541,4.574 1.309,0.023 2.515,0.339 3.277,1.904 0.02,2.745 -1.803,4.519 -5.468,5.322 -5.859,0.644 -11.703,0.432 -17.535,-0.568 -4.415,-1.63 -5.987,-5.328 -4.527,-11.232 l 5.322,-13.656 c 0.525,-2.013 -0.442,-3.077 -2.5,-3.449 -1.664,0.122 -2.874,-0.455 -2.822,-2.984 0.62,-2.689 2.584,-4.384 6.892,-4.348 2.145,-0.408 3.654,-2.081 4.706,-4.663 l 5.315,-12.971 c 0.924,-2.451 2.589,-3.874 5.149,-4.057 z M 93.705,5.229 c 5.653,0 10.242,4.589 10.242,10.242 0,5.653 -4.589,10.242 -10.242,10.242 -5.653,0 -10.242,-4.589 -10.242,-10.242 0,-5.653 4.589,-10.242 10.242,-10.242 z"
         inkscape:connector-curvature="0" />
    </g>
    <g
       style="clip-rule:evenodd;fill-rule:evenodd;stroke-linejoin:round;stroke-miterlimit:1.41420996"
       id="g881"
       transform="matrix(0.26458333,0,0,0.26458333,387.30237,57.49774)">
      <g
         id="g869"
         transform="translate(2.10342,-0.194523)">
        <path
           id="path867"
           style="fill:#707070"
           d="M 227.881,94.334 H 67.912 V 6.055 H 227.881 Z M 222.811,9.959 H 71.745 V 90.43 h 151.066 z m -3.922,76.25 H 76.268 V 14.866 H 218.889 Z M 149.728,25.128 h -13.289 v 0.13 c -1.258,0.253 -2.423,0.872 -3.344,1.793 -1.231,1.231 -1.922,2.9 -1.922,4.641 v 11.132 c -0.055,3.382 1.553,6.019 5.266,7.714 3.164,1.444 6.586,3.097 7.75,6.125 v 9.304 c 0,0.314 -0.125,0.616 -0.347,0.838 -0.223,0.223 -0.524,0.348 -0.839,0.348 0,0 -10e-4,0 -0.002,0 -0.716,0 -1.296,-0.58 -1.296,-1.296 V 55.309 h -10.532 v 14.518 c 0,1.612 0.64,3.159 1.78,4.299 0.947,0.947 2.174,1.549 3.486,1.726 v 0.055 h 13.289 v -0.052 c 1.385,-0.179 2.68,-0.81 3.678,-1.808 1.191,-1.191 1.86,-2.806 1.86,-4.49 V 53.102 h -0.111 c -0.085,-0.644 -0.75,-3.475 -5.883,-6.293 -2.228,-1.223 -5.192,-2.396 -6.503,-3.985 -0.404,-0.49 -0.776,-1.169 -1.064,-1.768 v -6.958 c 0,-0.676 0.548,-1.224 1.224,-1.224 0.001,0 0.001,0 0.002,0 0.695,0 1.258,0.563 1.258,1.258 0,2.676 0,8.692 0,8.692 h 11.077 c 0,0 0,-6.149 0,-11.198 0,-1.724 -0.684,-3.376 -1.903,-4.595 -0.99,-0.99 -2.267,-1.627 -3.635,-1.832 z m -39.39,6.613 c 0,-3.652 -2.96,-6.613 -6.613,-6.613 -3.446,0 -7.645,0 -11.075,0 -1.725,0 -3.379,0.686 -4.599,1.906 -1.22,1.219 -1.905,2.874 -1.905,4.599 0,9.805 0,28.251 0,37.949 0,3.493 2.831,6.325 6.324,6.325 3.416,0 7.633,0 11.113,0 1.792,0 3.51,-0.712 4.777,-1.979 1.267,-1.267 1.978,-2.985 1.978,-4.777 0,-9.767 0,-27.722 0,-37.41 z m 71,0 c 0,-3.652 -2.96,-6.613 -6.613,-6.613 -3.446,0 -7.645,0 -11.075,0 -1.725,0 -3.379,0.686 -4.599,1.906 -1.22,1.219 -1.905,2.874 -1.905,4.599 0,9.805 0,28.251 0,37.949 0,3.493 2.831,6.325 6.324,6.325 3.416,0 7.633,0 11.113,0 1.792,0 3.51,-0.712 4.777,-1.979 1.267,-1.267 1.978,-2.985 1.978,-4.777 0,-9.767 0,-27.722 0,-37.41 z M 123.706,25.128 H 113.47 v 50.779 h 16.325 v -8.754 h -6.089 z m 70.925,0 h -10.635 v 50.779 h 9.213 V 53.766 l 4.417,22.141 h 10.618 V 25.128 h -9.196 v 22.141 z m -23.991,8.966 c 0.008,-2.167 -2.567,-2.013 -2.599,0 v 31.67 c 0.008,1.927 2.632,1.775 2.599,0 z m -71.324,0 c 0.007,-2.167 -2.567,-2.013 -2.599,0 v 31.67 c 0.008,1.927 2.632,1.775 2.599,0 z"
           inkscape:connector-curvature="0" />
      </g>
    </g>
    <g
       id="g901"
       transform="matrix(0.41346988,0,0,0.41346988,466.69353,58.700466)">
      <g
         style="fill:#707070;fill-opacity:1"
         id="g6">
        <path
           style="fill:#707070;fill-opacity:1"
           id="path2"
           d="m 75.34,47.5 v 2.1 h 2.22 v 5.49 h 2.01 V 47.5 Z m -0.27,2.1 v -2.76 h -0.48 v 2.76 z"
           inkscape:connector-curvature="0" />
        <path
           style="fill:#707070;fill-opacity:1"
           id="path4"
           d="m 76.53,55.09 v -2.1 h -2.21 v -5.48 h -2.01 v 7.58 z m 0.27,-2.1 v 2.77 h 0.49 v -2.77 z"
           inkscape:connector-curvature="0" />
      </g>
      <path
         style="fill:#707070;fill-opacity:1"
         id="path8"
         d="m 83.98,55.48 v -8.19 h -1.79 v 8.19 z"
         inkscape:connector-curvature="0" />
      <path
         style="fill:#707070;fill-opacity:1"
         id="path10"
         d="m 96.57,49.48 v 6 h 1.91 v -3.06 c 0,-1.5 1.7,-1.59 1.7,-1.59 v -1.45 a 2.85,2.85 0 0 0 -1.71,0.72 v -0.61 h -1.9 m 7.9,-0.01 v 6 h 1.84 v -3.54 a 0.68,0.68 0 0 1 1.36,0 v 3.53 h 1.8 v -4.48 c 0,-0.9 -1.18,-2.23 -3.17,-0.94 v -0.56 h -1.84"
         inkscape:connector-curvature="0" />
      <path
         style="fill:#707070;fill-opacity:1"
         id="path12"
         d="m 100.62,50.77 a 3.79,3.79 0 0 1 0.85,0 c 0.88,0 0.77,0.75 0.77,0.75 a 2.25,2.25 0 0 0 -1,-0.27 2,2 0 0 0 -2,2.18 1.93,1.93 0 0 0 2,2 1.88,1.88 0 0 0 1.14,-0.35 v 0.38 h 1.73 v -4.07 a 1.65,1.65 0 0 0 -0.5,-1.41 2.9,2.9 0 0 0 -1.7,-0.6 h -1.23 v 1.4 z m 0.18,2.49 a 0.77,0.77 0 1 1 0.77,0.77 0.77,0.77 0 0 1 -0.77,-0.77 m 11.72,0.43 a 1.16,1.16 0 1 1 1.15,-1.15 1.15,1.15 0 0 1 -1.15,1.15 z m 0,-4 a 2.68,2.68 0 0 0 -2.73,2.84 2.62,2.62 0 0 0 2.71,2.89 1.94,1.94 0 0 0 1,-0.44 v 0.51 h 1.85 V 47.28 H 113.5 V 50 a 2.34,2.34 0 0 0 -1,-0.33 m -19.29,3.97 a 1.16,1.16 0 1 1 1.16,-1.16 1.16,1.16 0 0 1 -1.16,1.16 z m 0.13,2.79 c -0.85,0 -1,-0.58 -1,-0.58 h -2.17 c 0.45,3 5.7,3.11 5.94,0.24 v -6.61 h -1.78 v 0.62 c -1.23,-1.25 -4.11,-0.34 -4,2.46 0.09,2.62 2.87,3.41 4,2.4 v 0.7 c 0,0.79 -1,0.76 -1,0.76 m -7.14,-4.7 a 1,1 0 0 1 2,0 z m 1,-2.46 a 3,3 0 0 0 -2.89,3.09 c 0,2.13 1.33,3.35 3.08,3.3 A 2.72,2.72 0 0 0 90,53.57 h -1.85 a 0.92,0.92 0 0 1 -0.89,0.41 1,1 0 0 1 -1,-1 h 3.87 c 0.22,-2.21 -1.21,-3.71 -2.91,-3.71"
         inkscape:connector-curvature="0" />
      <path
         sodipodi:nodetypes="cccccccccccccccccccccccccssssscccccccccccccccscsccccscccssccccccccccccccccccccccccccccccsssccccccccccccccccccccccccccccccccssccccccccccsscccsccssscccccccscsccccccccccccccscccccccccccccscccsccccccsccccccccccsccccccccccscsccccccccccccccscccsssccccccccscc"
         style="fill:#707070;fill-opacity:1"
         inkscape:connector-curvature="0"
         id="path16"
         d="M 26.8,55.01 26.36,53.7 h -2.61 l -0.45,1.31 h -1.5 l 2.68,-7.37 h 1.13 l 2.69,7.37 z m -1.72,-5.2 -0.93,2.68 H 26 Z m 10.41,4.78 c -0.357399,0.325731 -0.826566,0.501221 -1.31,0.49 -0.514584,0.03279 -1.014628,-0.17834 -1.35,-0.57 v 0.51 h -1.3 v -7.38 h 1.35 v 2.45 c 0.328819,-0.37408 0.813087,-0.573702 1.31,-0.54 0.483434,-0.01122 0.952601,0.164269 1.31,0.49 0.445303,0.667248 0.623753,1.47741 0.5,2.27 0.121436,0.797047 -0.06055,1.61065 -0.51,2.28 z m -1.71,-3.82 c -0.81,0 -0.91,0.66 -0.91,1.54 0,0.88 0.1,1.55 0.91,1.55 0.81,0 0.91,-0.67 0.91,-1.55 0,-0.88 -0.1,-1.54 -0.91,-1.54 z m 6.12,0.32 c -0.571258,-0.668088 -1.663124,-0.205082 -1.58,0.67 v 3.25 H 37 v -5.4 h 1.31 v 0.52 c 0.35158,-0.37601 0.845268,-0.586554 1.36,-0.58 0.477655,-0.02456 0.941993,0.161907 1.27,0.51 z m 4.17,3.92 v -0.47 c -0.340634,0.367384 -0.830512,0.558916 -1.33,0.52 -0.506533,0.03732 -1.005964,-0.136393 -1.38,-0.48 -0.300507,-0.330161 -0.461745,-0.763712 -0.45,-1.21 0,-0.86 0.59,-1.56 1.84,-1.56 H 44 v -0.27 c 0,-0.59 -0.29,-0.85 -1,-0.85 -0.387666,-0.02697 -0.763085,0.141968 -1,0.45 L 41.14,50.3 c 0.489492,-0.552042 1.216741,-0.831753 1.95,-0.75 1.51,0 2.3,0.64 2.3,1.91 v 3.55 z m 0,-2.28 H 43 c -0.49,0 -0.76,0.23 -0.76,0.61 0,0.38 0.25,0.62 0.78,0.62 0.30763,0.04069 0.617772,-0.05418 0.85,-0.26 0.157944,-0.189197 0.230362,-0.435419 0.2,-0.68 z m 5.55,2.28 v -3.26 c 0.140391,-1.326314 -1.930391,-1.326314 -1.79,0 v 3.26 h -1.35 v -5.4 h 1.32 v 0.5 c 0.354066,-0.364044 0.842213,-0.566534 1.35,-0.56 0.470678,-0.01742 0.92851,0.155613 1.27,0.48 0.402654,0.403965 0.613677,0.960628 0.58,1.53 v 3.45 z m 5.52,0 v -0.5 c -0.33129,0.391357 -0.828297,0.60277 -1.34,0.57 -0.489771,0.0133 -0.965923,-0.162127 -1.33,-0.49 -0.462534,-0.664241 -0.658819,-1.477933 -0.55,-2.28 -0.109224,-0.798937 0.08721,-1.609657 0.55,-2.27 0.359915,-0.328155 0.833139,-0.503821 1.32,-0.49 0.499826,-0.03378 0.987162,0.165585 1.32,0.54 v -2.45 h 1.35 v 7.37 z m -1,-4.25 c -0.81,0 -0.91,0.66 -0.91,1.54 0,0.88 0.1,1.55 0.91,1.55 0.81,0 0.92,-0.67 0.92,-1.55 0,-0.88 -0.06,-1.53 -0.88,-1.53 z m 9.32,3.65 c -0.442657,0.445873 -1.052221,0.685345 -1.68,0.66 -0.624986,0.02626 -1.231826,-0.213569 -1.67,-0.66 -0.485963,-0.585008 -0.706919,-1.345678 -0.61,-2.1 -0.0954,-0.755846 0.12937,-1.517173 0.62,-2.1 0.438174,-0.446431 1.045014,-0.68626 1.67,-0.66 0.627779,-0.02534 1.237343,0.214127 1.68,0.66 0.484354,0.581937 0.705282,1.338887 0.61,2.09 0.09704,0.759053 -0.127759,1.524102 -0.62,2.11 z m -1,-3.41 c -0.167941,-0.16342 -0.395896,-0.25026 -0.63,-0.24 -0.231079,-0.0099 -0.4558,0.07711 -0.62,0.24 -0.266024,0.381419 -0.376863,0.849807 -0.31,1.31 -0.06744,0.463376 0.04334,0.935089 0.31,1.32 0.1642,0.162891 0.388921,0.24988 0.62,0.24 0.234104,0.01026 0.462059,-0.07658 0.63,-0.24 0.266664,-0.384911 0.377445,-0.856624 0.31,-1.32 0.05642,-0.465448 -0.06895,-0.934716 -0.35,-1.31 z m 4.12,-0.2 v 4.21 H 65.23 V 50.8 h -0.56 v -1 h 0.56 v -0.67 c -0.04408,-0.880165 0.690849,-1.601053 1.57,-1.54 h 0.77 v 1.14 H 67 c -0.32,0 -0.47,0.18 -0.47,0.49 v 0.59 h 1 v 1 z M 14.56,38.68 9.51,22.82 H 6.09 V 38.68 H 0 V 0 h 9.78 c 7.06,0 9.89,3.42 9.89,11.41 0,4.78 -1,8.2 -4.51,10.11 l 5.76,17.17 z M 9.83,5.48 H 6.09 v 11.85 h 3.74 c 3.26,0 3.75,-2.72 3.75,-5.92 0,-3.2 -0.49,-5.93 -3.75,-5.93 z m 23.26,33.2 v -2.47 c -0.463276,0.731095 -1.052374,1.374363 -1.74,1.9 -0.9465,0.684028 -2.092743,1.035637 -3.26,1 -2.075365,0.126055 -4.082298,-0.765501 -5.38,-2.39 C 21.57,35.37 21,33.21 21,30.31 c -0.09068,-2.422364 0.880861,-4.763569 2.66,-6.41 1.41,-1.25 3.26,-2 6.57,-2 h 2.55 v -4 c 0,-2.12 -1,-3.31 -2.77,-3.31 -0.724697,-0.02778 -1.42309,0.273636 -1.9,0.82 -0.630935,0.736401 -0.943837,1.693091 -0.87,2.66 h -5.78 c -0.08057,-2.312475 0.803195,-4.554487 2.44,-6.19 1.637253,-1.502474 3.777835,-2.337301 6,-2.34 2.246777,-0.1315268 4.449938,0.659444 6.1,2.19 1.733366,1.801876 2.639053,4.243607 2.5,6.74 V 38.68 Z M 32.76,26.02 h -1.9 c -1.077155,-0.135712 -2.162574,0.179059 -3,0.87 -0.759663,0.894644 -1.165222,2.036612 -1.14,3.21 0,2.55 1,4 3,4 1.74,0 3,-1.47 3,-3.8 z M 51.88,15.21 c -2.747823,-0.108618 -4.978998,2.19724 -4.78,4.94 V 38.68 H 41.34 V 10.05 h 5.54 v 3 c 0.670682,-0.921146 1.521143,-1.696766 2.5,-2.28 1.348842,-0.7995106 2.892155,-1.2112915 4.46,-1.19 v 5.63 z m 3.81,-12 c 0.011,-1.74845 1.431515,-3.16003458 3.18,-3.16 1.728953,0.02715527 3.119338,1.4308671 3.13,3.16 0.01119,1.7447029 -1.385476,3.1726029 -3.13,3.2 -1.764106,3.49e-5 -3.191095,-1.4359292 -3.18,-3.2 z M 56,38.68 V 10.81 h 5.76 v 27.87 z m 13.87,-1.74 c -1.79,-1.41 -2.88,-3.59 -2.88,-7 V 15.21 h -3.7 v -4.4 H 67 v -8.1 h 5.76 v 8.1 h 4 v 4.4 h -4 v 14.45 c 0,2.66 1.36,3.86 4.07,3.86 v 5.16 c -2.73,0 -5.01,-0.22 -6.96,-1.74 z m 20.04,1.74 v -2.47 c -0.463444,0.730967 -1.052516,1.374207 -1.74,1.9 -0.9465,0.684028 -2.092743,1.035637 -3.26,1 -2.075365,0.126055 -4.082298,-0.765501 -5.38,-2.39 -1.14,-1.35 -1.73,-3.51 -1.73,-6.41 -0.09068,-2.422364 0.880861,-4.763569 2.66,-6.41 1.41,-1.25 3.26,-2 6.57,-2 h 2.55 v -4 c 0,-2.12 -1,-3.31 -2.77,-3.31 -0.724697,-0.02778 -1.42309,0.273636 -1.9,0.82 -0.663359,0.747579 -0.99214,1.733921 -0.91,2.73 h -5.71 c -0.08057,-2.312475 0.803195,-4.554487 2.44,-6.19 1.637253,-1.502474 3.777835,-2.337301 6,-2.34 2.230003,-0.1448861 4.423553,0.61997 6.08,2.12 1.733366,1.801876 2.639053,4.243607 2.5,6.74 V 38.68 Z M 89.58,26.02 h -1.9 c -1.077155,-0.135712 -2.162574,0.179059 -3,0.87 -0.759663,0.894644 -1.165222,2.036612 -1.14,3.21 0,2.55 1,4 3,4 1.74,0 3,-1.47 3,-3.8 z m 20,12.66 V 18.09 c 0,-2.23 -1.25,-3.31 -2.83,-3.31 -1.58,0 -2.82,1.09 -2.82,3.31 V 38.68 H 98.17 V 10.05 h 5.54 v 2.16 c 0.50866,-0.716507 1.15447,-1.324928 1.9,-1.79 0.87567,-0.5041177 1.86961,-0.7664066 2.88,-0.76 1.99611,-0.1319616 3.93538,0.696498 5.22,2.23 1.14,1.3 1.63,2.88 1.63,6.19 v 20.6 z" />
    </g>
    <path
       style="fill:#707070;fill-opacity:1;stroke-width:0.26458332"
       id="path2-3"
       d="m 113.71629,66.718411 -4.00889,3.084006 c -0.41112,-1.542227 -1.74801,-2.673342 -3.3929,-2.673342 h -2.87819 v 7.093346 h 2.87819 c 1.64479,0 3.08378,-1.131294 3.39217,-2.673298 l 4.00953,3.083962 4.00951,-3.083962 v 2.673298 h 4.52268 v -1.439515 h -2.98063 v -5.653787 h -1.64529 v 2.672402 l -3.80374,3.084856 -0.82267,-0.720003 1.85112,-1.439561 1.95266,-1.542004 -1.13044,-0.924663 -3.80374,2.980622 -0.82222,-0.719781 3.80374,-2.87818 -1.1313,-0.924663 z m -8.7378,1.849329 h 1.23378 c 0.25701,0 0.50772,0.05861 0.73901,0.164615 0.23131,0.106021 0.44268,0.25995 0.62259,0.452715 0.1799,0.192751 0.32802,0.423655 0.43082,0.683871 0.10285,0.260214 0.16029,0.549732 0.16029,0.858133 0,0.282702 -0.0515,0.558922 -0.14623,0.814331 -0.0947,0.255395 -0.23282,0.489925 -0.40629,0.689115 -0.17348,0.199175 -0.38208,0.363172 -0.6182,0.477239 -0.23611,0.114053 -0.49926,0.17775 -0.78192,0.17775 h -1.23378 V 68.56777 Z m 22.41027,4.215613 v 1.439204 h -4.52312 v -7.093348 h 1.6448 v 5.653787 h 2.8784 z M 114.8465,54.587318 c -8.8409,0 -16.139589,7.298679 -16.139589,16.139583 0,8.840906 7.196019,16.139583 16.139589,16.139583 8.94358,0 16.13958,-7.196013 16.13958,-16.139583 0,-8.943569 -7.29867,-16.139583 -16.13958,-16.139583 z m 0,1.645297 c 1.00228,-1.2e-5 1.98016,0.100582 2.92459,0.293337 0.94449,0.192747 1.85583,0.477013 2.72319,0.843247 0.86737,0.366225 1.6913,0.814916 2.46227,1.335327 0.77099,0.520412 1.48906,1.112556 2.14442,1.767912 0.65536,0.655357 1.24745,1.373434 1.76792,2.144413 0.52041,0.770979 0.96908,1.594904 1.33532,2.462272 0.36622,0.867369 0.65046,1.778761 0.84324,2.723197 0.19276,0.944479 0.29334,1.922314 0.29334,2.924581 0,1.002269 -0.10065,1.980148 -0.29334,2.924582 -0.19274,0.94448 -0.477,1.855828 -0.84324,2.723196 -0.36622,0.867369 -0.81491,1.691294 -1.33532,2.462273 -0.52042,0.770979 -1.11256,1.489056 -1.76792,2.144413 -0.65536,0.655357 -1.37343,1.247455 -2.14442,1.767912 -0.77097,0.520411 -1.5949,0.969092 -2.46227,1.335326 -0.86736,0.366225 -1.77876,0.65047 -2.72319,0.843248 -0.94448,0.192752 -1.92231,0.293337 -2.92459,0.293337 -1.00227,0 -1.98015,-0.100582 -2.92458,-0.293337 -0.94462,-0.191433 -1.85604,-0.475669 -2.72355,-0.841947 -0.86706,-0.36628 -1.69107,-0.81505 -2.46218,-1.335551 -0.77112,-0.520054 -1.48887,-1.112286 -2.14433,-1.767733 -0.65545,-0.655446 -1.24767,-1.37321 -1.7679,-2.144322 -0.52042,-0.771115 -0.96911,-1.59513 -1.33534,-2.462184 -0.36622,-0.867503 -0.65047,-1.778941 -0.84324,-2.723555 -0.19273,-0.944165 -0.29335,-1.921954 -0.29335,-2.924403 0,-1.002446 0.10065,-1.980236 0.29335,-2.924402 0.19272,-0.944614 0.47702,-1.856052 0.84324,-2.723555 0.36623,-0.867054 0.81492,-1.691069 1.33534,-2.462182 0.52023,-0.771115 1.11245,-1.488876 1.7679,-2.144323 0.65546,-0.655447 1.37321,-1.24768 2.14433,-1.767912 0.77111,-0.520413 1.59512,-0.969093 2.46218,-1.335327 0.86751,-0.366234 1.77893,-0.65047 2.72355,-0.843247 0.94416,-0.192735 1.92196,-0.293337 2.92441,-0.293337 z"
       inkscape:connector-curvature="0" />
  </g>
</svg>
