<?xml version="1.0" encoding="UTF-8" standalone="no"?>
<svg
   xmlns:dc="http://purl.org/dc/elements/1.1/"
   xmlns:cc="http://creativecommons.org/ns#"
   xmlns:rdf="http://www.w3.org/1999/02/22-rdf-syntax-ns#"
   xmlns:svg="http://www.w3.org/2000/svg"
   xmlns="http://www.w3.org/2000/svg"
   xmlns:sodipodi="http://sodipodi.sourceforge.net/DTD/sodipodi-0.dtd"
   xmlns:inkscape="http://www.inkscape.org/namespaces/inkscape"
   width="222.64145mm"
   height="68.970459mm"
   viewBox="0 0 222.64145 68.970461"
   version="1.1"
   id="svg8"
   sodipodi:docname="operators-line.svg"
   inkscape:version="0.92.5 (2060ec1f9f, 2020-04-08)">
  <sodipodi:namedview
     pagecolor="#ffffff"
     bordercolor="#666666"
     borderopacity="1"
     objecttolerance="10"
     gridtolerance="10"
     guidetolerance="10"
     inkscape:pageopacity="0"
     inkscape:pageshadow="2"
     inkscape:window-width="2375"
     inkscape:window-height="1013"
     id="namedview24"
     showgrid="false"
     inkscape:zoom="0.87464995"
     inkscape:cx="148.63089"
     inkscape:cy="131.10255"
     inkscape:window-x="80"
     inkscape:window-y="54"
     inkscape:window-maximized="0"
     inkscape:current-layer="svg8" />
  <defs
     id="defs2" />
  <metadata
     id="metadata5">
    <rdf:RDF>
      <cc:Work
         rdf:about="">
        <dc:format>image/svg+xml</dc:format>
        <dc:type
           rdf:resource="http://purl.org/dc/dcmitype/StillImage" />
        <dc:title />
      </cc:Work>
    </rdf:RDF>
  </metadata>
  <g
     id="g853"
     transform="translate(10.001877,0.20232156)">
    <g
       style="clip-rule:evenodd;fill-rule:evenodd;stroke-linejoin:round;stroke-miterlimit:1.41420996"
       id="g967"
       transform="matrix(0.37041667,0,0,0.37041667,13.019752,15.762075)">
      <g
         id="g954">
        <path
           inkscape:connector-curvature="0"
           id="path950"
           style="fill:#00b5b6"
           d="M 50,3 C 64.902,3 77,15.098 77,30 77,44.902 64.902,57 50,57 35.098,57 23,44.902 23,30 23,15.098 35.098,3 50,3 Z m -6.264,18.183 c -0.668,-0.324 -1.129,-1.009 -1.129,-1.8 0,-1.104 0.896,-2 2,-2 0.803,0 1.496,0.474 1.814,1.157 0.317,-0.686 1.011,-1.163 1.817,-1.163 0.767,0 1.434,0.433 1.769,1.068 0.337,-0.632 1.002,-1.062 1.767,-1.062 0.799,0 1.49,0.469 1.81,1.148 0.32,-0.679 1.01,-1.148 1.809,-1.148 1.104,0 2,0.896 2,2 0,1.103 -0.896,2 -2,2 -0.799,0 -1.489,-0.47 -1.809,-1.149 -0.32,0.679 -1.011,1.149 -1.81,1.149 -0.767,0 -1.434,-0.434 -1.77,-1.068 -0.336,0.631 -1.001,1.062 -1.766,1.062 -0.803,0 -1.496,-0.475 -1.814,-1.158 -0.195,0.421 -0.531,0.763 -0.947,0.964 0.668,0.324 1.13,1.009 1.13,1.801 0,0.814 -0.487,1.514 -1.185,1.827 0.698,0.312 1.185,1.013 1.185,1.826 0,0.792 -0.462,1.477 -1.13,1.801 0.414,0.201 0.749,0.54 0.944,0.958 0.317,-0.686 1.011,-1.163 1.817,-1.163 0.767,0 1.434,0.433 1.769,1.068 0.337,-0.632 1.002,-1.062 1.767,-1.062 0.799,0 1.49,0.47 1.81,1.148 0.32,-0.678 1.01,-1.148 1.809,-1.148 1.104,0 2,0.896 2,2 0,1.103 -0.896,2 -2,2 -0.799,0 -1.489,-0.47 -1.809,-1.149 -0.32,0.679 -1.011,1.149 -1.81,1.149 -0.767,0 -1.434,-0.433 -1.77,-1.068 -0.336,0.631 -1.001,1.062 -1.766,1.062 -0.803,0 -1.496,-0.475 -1.814,-1.158 -0.132,0.286 -0.329,0.535 -0.573,0.729 0.46,0.366 0.756,0.931 0.756,1.565 0,0.813 -0.487,1.514 -1.185,1.826 0.698,0.313 1.185,1.013 1.185,1.827 0,0.792 -0.462,1.477 -1.13,1.801 0.414,0.2 0.749,0.54 0.944,0.958 0.317,-0.687 1.011,-1.164 1.817,-1.164 0.767,0 1.434,0.434 1.769,1.068 0.337,-0.631 1.002,-1.062 1.767,-1.062 0.799,0 1.49,0.47 1.81,1.149 0.32,-0.679 1.01,-1.149 1.809,-1.149 1.104,0 2,0.897 2,2 0,1.104 -0.896,2 -2,2 -0.799,0 -1.489,-0.469 -1.809,-1.148 -0.32,0.679 -1.011,1.148 -1.81,1.148 -0.767,0 -1.434,-0.433 -1.77,-1.068 -0.336,0.632 -1.001,1.062 -1.766,1.062 -0.803,0 -1.496,-0.474 -1.814,-1.157 -0.317,0.686 -1.012,1.163 -1.817,1.163 -1.104,0 -2,-0.896 -2,-2 0,-0.791 0.461,-1.476 1.129,-1.8 -0.668,-0.324 -1.129,-1.009 -1.129,-1.801 0,-0.814 0.486,-1.514 1.184,-1.827 -0.698,-0.312 -1.184,-1.013 -1.184,-1.826 0,-0.634 0.295,-1.199 0.755,-1.565 -0.46,-0.367 -0.755,-0.932 -0.755,-1.565 0,-0.792 0.461,-1.477 1.129,-1.801 -0.668,-0.324 -1.129,-1.009 -1.129,-1.801 0,-0.813 0.486,-1.514 1.184,-1.826 -0.698,-0.313 -1.184,-1.013 -1.184,-1.827 0,-0.792 0.461,-1.477 1.129,-1.801 z" />
        <path
           inkscape:connector-curvature="0"
           id="path952"
           style="fill:#00b5b6"
           d="M 50,43 C 64.902,43 77,55.098 77,70 77,84.902 64.902,97 50,97 35.098,97 23,84.902 23,70 23,55.098 35.098,43 50,43 Z m -6.264,18.183 c -0.668,-0.324 -1.129,-1.009 -1.129,-1.8 0,-1.104 0.896,-2 2,-2 0.803,0 1.496,0.474 1.814,1.157 0.317,-0.686 1.011,-1.163 1.817,-1.163 0.767,0 1.434,0.433 1.769,1.068 0.337,-0.632 1.002,-1.062 1.767,-1.062 0.799,0 1.49,0.469 1.81,1.148 0.32,-0.679 1.01,-1.148 1.809,-1.148 1.104,0 2,0.896 2,2 0,1.103 -0.896,2 -2,2 -0.799,0 -1.489,-0.47 -1.809,-1.149 -0.32,0.679 -1.011,1.149 -1.81,1.149 -0.767,0 -1.434,-0.434 -1.77,-1.068 -0.336,0.631 -1.001,1.062 -1.766,1.062 -0.803,0 -1.496,-0.475 -1.814,-1.158 -0.195,0.421 -0.531,0.763 -0.947,0.964 0.668,0.324 1.13,1.009 1.13,1.801 0,0.814 -0.487,1.514 -1.185,1.827 0.698,0.312 1.185,1.013 1.185,1.826 0,0.792 -0.462,1.477 -1.13,1.801 0.414,0.201 0.749,0.54 0.944,0.958 0.317,-0.686 1.011,-1.163 1.817,-1.163 0.767,0 1.434,0.433 1.769,1.068 0.337,-0.632 1.002,-1.062 1.767,-1.062 0.799,0 1.49,0.47 1.81,1.148 0.32,-0.678 1.01,-1.148 1.809,-1.148 1.104,0 2,0.896 2,2 0,1.103 -0.896,2 -2,2 -0.799,0 -1.489,-0.47 -1.809,-1.149 -0.32,0.679 -1.011,1.149 -1.81,1.149 -0.767,0 -1.434,-0.433 -1.77,-1.068 -0.336,0.631 -1.001,1.062 -1.766,1.062 -0.803,0 -1.496,-0.475 -1.814,-1.158 -0.132,0.286 -0.329,0.535 -0.573,0.729 0.46,0.366 0.756,0.931 0.756,1.565 0,0.813 -0.487,1.514 -1.185,1.826 0.698,0.313 1.185,1.013 1.185,1.827 0,0.792 -0.462,1.477 -1.13,1.801 0.414,0.2 0.749,0.54 0.944,0.958 0.317,-0.687 1.011,-1.164 1.817,-1.164 0.767,0 1.434,0.434 1.769,1.068 0.337,-0.631 1.002,-1.062 1.767,-1.062 0.799,0 1.49,0.47 1.81,1.149 0.32,-0.679 1.01,-1.149 1.809,-1.149 1.104,0 2,0.897 2,2 0,1.104 -0.896,2 -2,2 -0.799,0 -1.489,-0.469 -1.809,-1.148 -0.32,0.679 -1.011,1.148 -1.81,1.148 -0.767,0 -1.434,-0.433 -1.77,-1.068 -0.336,0.632 -1.001,1.062 -1.766,1.062 -0.803,0 -1.496,-0.474 -1.814,-1.157 -0.317,0.686 -1.012,1.163 -1.817,1.163 -1.104,0 -2,-0.896 -2,-2 0,-0.791 0.461,-1.476 1.129,-1.8 -0.668,-0.324 -1.129,-1.009 -1.129,-1.801 0,-0.814 0.486,-1.514 1.184,-1.827 -0.698,-0.312 -1.184,-1.013 -1.184,-1.826 0,-0.634 0.295,-1.199 0.755,-1.565 -0.46,-0.367 -0.755,-0.932 -0.755,-1.565 0,-0.792 0.461,-1.477 1.129,-1.801 -0.668,-0.324 -1.129,-1.009 -1.129,-1.801 0,-0.813 0.486,-1.514 1.184,-1.826 -0.698,-0.313 -1.184,-1.013 -1.184,-1.827 0,-0.792 0.461,-1.477 1.129,-1.801 z" />
      </g>
    </g>
    <g
       style="clip-rule:evenodd;fill-rule:evenodd;stroke-linejoin:round;stroke-miterlimit:1.41420996"
       id="g983"
       transform="matrix(0.37041667,0,0,0.37041667,145.52651,15.714476)">
      <path
         inkscape:connector-curvature="0"
         id="path969"
         style="fill:#000166"
         d="M 40.5,5 C 60.645,5 77,21.651 77,42.16 77,62.668 60.645,79.319 40.5,79.319 20.355,79.319 4,62.668 4,42.16 4,21.651 20.355,5 40.5,5 Z m 0,10.16 c 12.418,0 22.5,12.098 22.5,27 0,14.901 -10.082,27 -22.5,27 -12.418,0 -22.5,-12.099 -22.5,-27 0,-14.902 10.082,-27 22.5,-27 z" />
      <path
         inkscape:connector-curvature="0"
         id="path971"
         style="fill:#000166;fill-rule:nonzero"
         d="m 74.858,95.257 v -5.068 c 0,0 4.825,-4.706 6.63,-6.279 l 4.62,-5.317 c 1.701,-2.203 3.73,-7.459 1.163,-9.15 -1.198,-0.789 -3.594,-1.481 -5.783,-1.147 -2.33,0.355 -4.443,1.776 -5.228,2.177 l -0.579,-5.247 c 3.262,-1.213 6.416,-1.819 9.462,-1.819 0.444,0 2.912,-0.067 4.727,0.6 1.705,0.627 2.834,1.813 3.271,2.392 1.263,1.671 2.821,7.227 0,12.194 -1.433,2.524 -3.322,4.777 -5.199,6.765 -2.077,2.2 -3.84,4.174 -4.83,4.831 h 12.92 v 5.068 z" />
    </g>
    <g
       style="clip-rule:evenodd;fill-rule:evenodd;stroke-linejoin:round;stroke-miterlimit:1.41420996"
       id="g1025"
       transform="matrix(0.37041667,0,0,0.37041667,79.41427,15.927651)">
      <path
         inkscape:connector-curvature="0"
         id="path998"
         style="fill:#e90000"
         d="M 51,14.426 C 63.459,14.426 73.574,24.541 73.574,37 73.574,49.459 63.459,59.574 51,59.574 38.541,59.574 28.426,49.459 28.426,37 28.426,24.541 38.541,14.426 51,14.426 Z M 39.112,41.161 c -4.041,-12.075 7.599,-25.072 21.072,-24.054 -5.334,1.842 -7.316,5.819 -7.153,9.292 5.68,1.085 10.203,5.391 10.203,11.385 0,6.787 -5.509,12.297 -12.296,12.297 -5.616,0 -10.357,-3.773 -11.826,-8.92 z" />
      <path
         inkscape:connector-curvature="0"
         style="fill:#ee3023;fill-rule:nonzero"
         d="M 5.259,84.391 0,71.841 h 3.435 l 3.281,8.334 3.179,-8.334 h 3.281 l -5.104,12.55 z"
         id="path2339-2" />
      <path
         inkscape:connector-curvature="0"
         style="fill:#ee3023;fill-rule:nonzero"
         d="m 22.329,78.051 c 0,-0.521 -0.06,-1.017 -0.184,-1.488 -0.12,-0.471 -0.303,-0.876 -0.546,-1.214 -0.244,-0.341 -0.538,-0.61 -0.885,-0.809 -0.348,-0.202 -0.756,-0.303 -1.224,-0.303 -0.467,0 -0.878,0.101 -1.223,0.303 -0.347,0.199 -0.644,0.468 -0.885,0.809 -0.243,0.338 -0.426,0.743 -0.546,1.214 -0.124,0.471 -0.184,0.967 -0.184,1.488 0,0.541 0.06,1.043 0.184,1.505 0.12,0.461 0.297,0.866 0.531,1.213 0.234,0.348 0.531,0.623 0.888,0.825 0.354,0.199 0.768,0.3 1.235,0.3 0.468,0 0.876,-0.101 1.224,-0.3 0.347,-0.202 0.641,-0.477 0.885,-0.825 0.243,-0.347 0.426,-0.752 0.546,-1.213 0.124,-0.462 0.184,-0.964 0.184,-1.505 m 3.176,0.014 c 0,0.819 -0.127,1.621 -0.376,2.412 -0.253,0.79 -0.626,1.494 -1.122,2.12 -0.493,0.626 -1.119,1.128 -1.874,1.511 -0.756,0.382 -1.637,0.572 -2.643,0.572 -1.008,0 -1.889,-0.19 -2.642,-0.572 -0.755,-0.382 -1.381,-0.885 -1.877,-1.511 -0.493,-0.626 -0.866,-1.33 -1.119,-2.12 -0.249,-0.791 -0.376,-1.593 -0.376,-2.412 0,-0.815 0.127,-1.612 0.376,-2.395 0.253,-0.781 0.626,-1.48 1.119,-2.096 0.496,-0.616 1.122,-1.109 1.877,-1.482 0.753,-0.373 1.634,-0.563 2.642,-0.563 1.006,0 1.884,0.19 2.63,0.563 0.746,0.373 1.372,0.866 1.874,1.482 0.506,0.616 0.882,1.315 1.135,2.096 0.249,0.783 0.376,1.58 0.376,2.395"
         id="path2341-0" />
      <path
         inkscape:connector-curvature="0"
         style="fill:#ee3023;fill-rule:nonzero"
         d="m 35.204,74.603 c -0.622,-0.243 -1.201,-0.366 -1.738,-0.366 -0.55,0 -1.027,0.107 -1.422,0.316 -0.398,0.208 -0.727,0.49 -0.986,0.847 -0.259,0.357 -0.452,0.758 -0.582,1.204 -0.129,0.442 -0.196,0.901 -0.196,1.372 0,0.521 0.057,1.02 0.171,1.501 0.111,0.477 0.284,0.897 0.518,1.254 0.231,0.358 0.525,0.645 0.879,0.863 0.354,0.215 0.774,0.326 1.258,0.326 0.398,0 0.802,-0.111 1.216,-0.326 0.415,-0.218 0.708,-0.477 0.882,-0.771 z m 0.259,9.788 -0.129,-0.961 c -0.294,0.329 -0.683,0.62 -1.17,0.87 -0.483,0.252 -1.055,0.379 -1.713,0.379 -0.862,0 -1.627,-0.183 -2.281,-0.547 -0.661,-0.363 -1.214,-0.85 -1.663,-1.457 -0.449,-0.607 -0.793,-1.311 -1.027,-2.111 -0.231,-0.797 -0.348,-1.631 -0.348,-2.5 0,-0.815 0.121,-1.615 0.361,-2.396 0.243,-0.78 0.61,-1.479 1.103,-2.095 0.496,-0.616 1.112,-1.109 1.858,-1.482 0.743,-0.373 1.618,-0.563 2.62,-0.563 0.657,0 1.369,0.123 2.13,0.364 v -4.867 h 3.227 v 17.366 z"
         id="path2343-6" />
      <path
         inkscape:connector-curvature="0"
         style="fill:#ee3023;fill-rule:nonzero"
         d="m 47.521,78.506 c -0.348,0.019 -0.708,0.051 -1.075,0.092 -0.367,0.044 -0.714,0.101 -1.046,0.171 -0.702,0.139 -1.185,0.376 -1.457,0.714 -0.269,0.341 -0.405,0.708 -0.405,1.109 0,0.414 0.152,0.749 0.459,1.002 0.306,0.25 0.736,0.376 1.295,0.376 0.421,0 0.828,-0.085 1.22,-0.259 0.392,-0.174 0.73,-0.392 1.009,-0.651 z m 0.259,5.876 -0.127,-0.939 c -0.351,0.386 -0.793,0.689 -1.333,0.907 -0.541,0.218 -1.132,0.329 -1.777,0.329 -0.54,0 -1.062,-0.092 -1.555,-0.275 -0.499,-0.18 -0.938,-0.443 -1.321,-0.781 -0.382,-0.338 -0.692,-0.752 -0.926,-1.248 -0.237,-0.496 -0.354,-1.056 -0.354,-1.681 0,-0.623 0.12,-1.176 0.367,-1.653 0.243,-0.478 0.572,-0.879 0.992,-1.211 0.418,-0.329 0.898,-0.597 1.438,-0.806 0.538,-0.208 1.107,-0.366 1.698,-0.471 0.417,-0.085 0.875,-0.148 1.371,-0.193 0.496,-0.044 0.91,-0.082 1.242,-0.117 V 76.06 c 0,-0.695 -0.177,-1.188 -0.537,-1.485 -0.357,-0.294 -0.85,-0.443 -1.476,-0.443 -0.367,0 -0.717,0.045 -1.049,0.133 -0.332,0.085 -0.626,0.193 -0.888,0.322 -0.263,0.133 -0.493,0.263 -0.696,0.392 -0.199,0.13 -0.36,0.247 -0.483,0.351 l -1.068,-2.263 c 0.139,-0.123 0.35,-0.268 0.638,-0.442 0.288,-0.174 0.632,-0.345 1.043,-0.509 0.408,-0.164 0.866,-0.303 1.378,-0.417 0.512,-0.114 1.065,-0.171 1.653,-0.171 0.695,0 1.33,0.092 1.902,0.275 0.572,0.183 1.069,0.468 1.486,0.86 0.414,0.389 0.739,0.882 0.976,1.482 0.234,0.597 0.351,1.321 0.351,2.171 v 8.066 z"
         id="path2345-7" />
      <path
         inkscape:connector-curvature="0"
         style="fill:#ee3023;fill-rule:nonzero"
         d="m 60.7,69.888 c -0.105,-0.051 -0.307,-0.126 -0.61,-0.221 -0.307,-0.095 -0.708,-0.143 -1.214,-0.143 -0.449,0 -0.828,0.136 -1.131,0.405 -0.304,0.269 -0.456,0.708 -0.456,1.315 v 0.597 h 2.709 v 2.604 h -2.683 v 9.946 h -3.23 v -9.946 h -1.666 v -2.604 h 1.666 v -0.676 c 0,-0.816 0.104,-1.505 0.313,-2.07 0.208,-0.563 0.499,-1.024 0.872,-1.378 0.373,-0.357 0.812,-0.62 1.315,-0.784 0.505,-0.165 1.052,-0.247 1.643,-0.247 0.781,0 1.425,0.073 1.937,0.222 0.512,0.148 0.813,0.246 0.898,0.3 z"
         id="path2347-3" />
      <path
         inkscape:connector-curvature="0"
         style="fill:#ee3023;fill-rule:nonzero"
         d="m 69.501,78.051 c 0,-0.521 -0.063,-1.017 -0.183,-1.488 -0.12,-0.471 -0.303,-0.876 -0.547,-1.214 -0.243,-0.341 -0.537,-0.61 -0.885,-0.809 -0.347,-0.202 -0.755,-0.303 -1.223,-0.303 -0.467,0 -0.878,0.101 -1.223,0.303 -0.347,0.199 -0.644,0.468 -0.888,0.809 -0.24,0.338 -0.423,0.743 -0.547,1.214 -0.12,0.471 -0.18,0.967 -0.18,1.488 0,0.541 0.06,1.043 0.18,1.505 0.124,0.461 0.301,0.866 0.535,1.213 0.233,0.348 0.53,0.623 0.884,0.825 0.358,0.199 0.772,0.3 1.239,0.3 0.468,0 0.876,-0.101 1.223,-0.3 0.348,-0.202 0.642,-0.477 0.885,-0.825 0.244,-0.347 0.427,-0.752 0.547,-1.213 0.12,-0.462 0.183,-0.964 0.183,-1.505 m 3.177,0.014 c 0,0.819 -0.127,1.621 -0.38,2.412 -0.249,0.79 -0.622,1.494 -1.118,2.12 -0.493,0.626 -1.119,1.128 -1.875,1.511 -0.755,0.382 -1.637,0.572 -2.642,0.572 -1.008,0 -1.89,-0.19 -2.642,-0.572 -0.755,-0.382 -1.381,-0.885 -1.877,-1.511 -0.493,-0.626 -0.866,-1.33 -1.119,-2.12 -0.253,-0.791 -0.376,-1.593 -0.376,-2.412 0,-0.815 0.123,-1.612 0.376,-2.395 0.253,-0.781 0.626,-1.48 1.119,-2.096 0.496,-0.616 1.122,-1.109 1.877,-1.482 0.752,-0.373 1.634,-0.563 2.642,-0.563 1.005,0 1.884,0.19 2.63,0.563 0.746,0.373 1.371,0.866 1.874,1.482 0.506,0.616 0.882,1.315 1.131,2.096 0.253,0.783 0.38,1.58 0.38,2.395"
         id="path2349-9" />
      <path
         inkscape:connector-curvature="0"
         style="fill:#ee3023;fill-rule:nonzero"
         d="m 82.699,84.391 v -7.158 c 0,-0.955 -0.199,-1.694 -0.597,-2.216 -0.401,-0.518 -0.954,-0.78 -1.669,-0.78 -0.502,0 -0.967,0.129 -1.39,0.392 -0.427,0.259 -0.797,0.546 -1.109,0.859 v 8.903 h -3.227 v -12.55 h 2.942 l 0.155,0.989 c 0.506,-0.414 1.071,-0.736 1.707,-0.96 0.632,-0.228 1.27,-0.339 1.912,-0.339 0.66,0 1.267,0.098 1.823,0.297 0.556,0.203 1.034,0.519 1.432,0.952 0.401,0.433 0.708,0.998 0.926,1.691 0.215,0.695 0.325,1.529 0.325,2.499 v 7.421 z"
         id="path2351-6" />
      <path
         inkscape:connector-curvature="0"
         style="fill:#ee3023;fill-rule:nonzero"
         d="m 95.973,76.607 c -0.034,-0.433 -0.126,-0.812 -0.275,-1.131 -0.148,-0.323 -0.331,-0.582 -0.55,-0.781 -0.218,-0.202 -0.451,-0.348 -0.704,-0.446 -0.256,-0.094 -0.512,-0.142 -0.775,-0.142 -0.559,0 -1.09,0.209 -1.596,0.626 -0.505,0.417 -0.802,1.04 -0.891,1.874 z m -4.867,2.317 c 0.07,1.058 0.398,1.823 0.993,2.291 0.591,0.468 1.359,0.705 2.297,0.705 0.436,0 0.847,-0.041 1.23,-0.117 0.382,-0.079 0.723,-0.177 1.021,-0.3 0.297,-0.121 0.549,-0.244 0.758,-0.364 0.209,-0.123 0.363,-0.237 0.471,-0.341 l 0.86,2.632 c -0.124,0.086 -0.32,0.203 -0.588,0.351 -0.269,0.149 -0.604,0.285 -1.002,0.417 -0.398,0.13 -0.869,0.241 -1.407,0.339 -0.537,0.094 -1.128,0.142 -1.769,0.142 -0.819,0 -1.593,-0.13 -2.333,-0.389 -0.736,-0.262 -1.384,-0.667 -1.937,-1.214 -0.556,-0.546 -0.999,-1.226 -1.328,-2.041 -0.331,-0.816 -0.496,-1.789 -0.496,-2.917 0,-1.059 0.152,-1.998 0.455,-2.813 0.304,-0.816 0.721,-1.501 1.249,-2.058 0.531,-0.553 1.147,-0.979 1.849,-1.276 0.704,-0.294 1.453,-0.443 2.253,-0.443 0.8,0 1.536,0.133 2.216,0.392 0.676,0.259 1.261,0.664 1.757,1.21 0.493,0.547 0.885,1.255 1.169,2.124 0.288,0.866 0.43,1.9 0.43,3.098 v 0.572 z"
         id="path2353-4" />
    </g>
  </g>
</svg>
