<svg xmlns="http://www.w3.org/2000/svg" width="841.479" height="260.676" viewBox="0 0 222.641 68.97"><g style="clip-rule:evenodd;fill-rule:evenodd;stroke-linejoin:round;stroke-miterlimit:1.41420996"><path style="fill:#00b5b6" d="M50 3c14.902 0 27 12.098 27 27S64.902 57 50 57 23 44.902 23 30 35.098 3 50 3Zm-6.264 18.183a2.001 2.001 0 0 1 .871-3.8 2 2 0 0 1 1.814 1.157 2.001 2.001 0 0 1 3.586-.095 2.001 2.001 0 0 1 3.577.086 1.999 1.999 0 1 1 0 1.703 2.001 2.001 0 0 1-3.58.081 2 2 0 0 1-3.58-.096 2.01 2.01 0 0 1-.947.964 2.002 2.002 0 0 1-.055 3.628 2.001 2.001 0 0 1 .055 3.627c.414.201.749.54.944.958a2.001 2.001 0 0 1 3.586-.095 2.001 2.001 0 0 1 3.577.086 2 2 0 1 1 0 1.703 2.001 2.001 0 0 1-3.58.081 2 2 0 0 1-3.58-.096 2.005 2.005 0 0 1-.573.729 2.001 2.001 0 0 1-.429 3.391 2.002 2.002 0 0 1 .055 3.628c.414.2.749.54.944.958a2 2 0 0 1 3.586-.096 2.001 2.001 0 0 1 3.577.087 2 2 0 1 1 0 1.703 2 2 0 0 1-3.58.08 1.999 1.999 0 0 1-3.58-.095 2 2 0 1 1-2.688-2.637 2.001 2.001 0 0 1 .055-3.628 2 2 0 0 1-.429-3.391 1.998 1.998 0 0 1 .374-3.366 2.001 2.001 0 0 1 .055-3.627 2.002 2.002 0 0 1-.055-3.628z" transform="matrix(.37042 0 0 .37042 23.022 15.964)"/><path style="fill:#00b5b6" d="M50 43c14.902 0 27 12.098 27 27S64.902 97 50 97 23 84.902 23 70s12.098-27 27-27Zm-6.264 18.183a2.001 2.001 0 0 1 .871-3.8 2 2 0 0 1 1.814 1.157 2.001 2.001 0 0 1 3.586-.095 2.001 2.001 0 0 1 3.577.086 1.999 1.999 0 1 1 0 1.703 2.001 2.001 0 0 1-3.58.081 2 2 0 0 1-3.58-.096 2.01 2.01 0 0 1-.947.964 2.002 2.002 0 0 1-.055 3.628 2.001 2.001 0 0 1 .055 3.627c.414.201.749.54.944.958a2.001 2.001 0 0 1 3.586-.095 2.001 2.001 0 0 1 3.577.086 2 2 0 1 1 0 1.703 2.001 2.001 0 0 1-3.58.081 2 2 0 0 1-3.58-.096 2.005 2.005 0 0 1-.573.729 2.001 2.001 0 0 1-.429 3.391 2.002 2.002 0 0 1 .055 3.628c.414.2.749.54.944.958a2 2 0 0 1 3.586-.096 2.001 2.001 0 0 1 3.577.087 2 2 0 1 1 0 1.703 2 2 0 0 1-3.58.08 1.999 1.999 0 0 1-3.58-.095 2 2 0 1 1-2.688-2.637 2.001 2.001 0 0 1 .055-3.628 2 2 0 0 1-.429-3.391 1.998 1.998 0 0 1 .374-3.366 2.001 2.001 0 0 1 .055-3.627 2.002 2.002 0 0 1-.055-3.628z" transform="matrix(.37042 0 0 .37042 23.022 15.964)"/></g><g style="clip-rule:evenodd;fill-rule:evenodd;stroke-linejoin:round;stroke-miterlimit:1.41420996"><path style="fill:#000166" d="M40.5 5C60.645 5 77 21.651 77 42.16c0 20.508-16.355 37.159-36.5 37.159S4 62.668 4 42.16C4 21.651 20.355 5 40.5 5Zm0 10.16c12.418 0 22.5 12.098 22.5 27 0 14.901-10.082 27-22.5 27S18 57.061 18 42.16c0-14.902 10.082-27 22.5-27z" transform="matrix(.37042 0 0 .37042 155.528 15.917)"/><path style="fill:#000166;fill-rule:nonzero" d="M74.858 95.257v-5.068s4.825-4.706 6.63-6.279l4.62-5.317c1.701-2.203 3.73-7.459 1.163-9.15-1.198-.789-3.594-1.481-5.783-1.147-2.33.355-4.443 1.776-5.228 2.177l-.579-5.247c3.262-1.213 6.416-1.819 9.462-1.819.444 0 2.912-.067 4.727.6 1.705.627 2.834 1.813 3.271 2.392 1.263 1.671 2.821 7.227 0 12.194-1.433 2.524-3.322 4.777-5.199 6.765-2.077 2.2-3.84 4.174-4.83 4.831h12.92v5.068z" transform="matrix(.37042 0 0 .37042 155.528 15.917)"/></g><g style="clip-rule:evenodd;fill-rule:evenodd;stroke-linejoin:round;stroke-miterlimit:1.41420996"><path style="fill:#e90000" d="M51 14.426c12.459 0 22.574 10.115 22.574 22.574 0 12.459-10.115 22.574-22.574 22.574-12.459 0-22.574-10.115-22.574-22.574 0-12.459 10.115-22.574 22.574-22.574ZM39.112 41.161c-4.041-12.075 7.599-25.072 21.072-24.054-5.334 1.842-7.316 5.819-7.153 9.292 5.68 1.085 10.203 5.391 10.203 11.385 0 6.787-5.509 12.297-12.296 12.297-5.616 0-10.357-3.773-11.826-8.92z" transform="matrix(.37042 0 0 .37042 89.416 16.13)"/><path style="fill:#ee3023;fill-rule:nonzero" d="M5.259 84.391 0 71.841h3.435l3.281 8.334 3.179-8.334h3.281l-5.104 12.55zM22.329 78.051c0-.521-.06-1.017-.184-1.488a3.568 3.568 0 0 0-.546-1.214 2.782 2.782 0 0 0-.885-.809c-.348-.202-.756-.303-1.224-.303-.467 0-.878.101-1.223.303a2.75 2.75 0 0 0-.885.809 3.568 3.568 0 0 0-.546 1.214 5.822 5.822 0 0 0-.184 1.488c0 .541.06 1.043.184 1.505.12.461.297.866.531 1.213.234.348.531.623.888.825.354.199.768.3 1.235.3.468 0 .876-.101 1.224-.3.347-.202.641-.477.885-.825.243-.347.426-.752.546-1.213.124-.462.184-.964.184-1.505m3.176.014c0 .819-.127 1.621-.376 2.412a6.633 6.633 0 0 1-1.122 2.12 5.527 5.527 0 0 1-1.874 1.511c-.756.382-1.637.572-2.643.572-1.008 0-1.889-.19-2.642-.572a5.556 5.556 0 0 1-1.877-1.511 6.686 6.686 0 0 1-1.119-2.12 7.854 7.854 0 0 1 0-4.807 6.555 6.555 0 0 1 1.119-2.096 5.493 5.493 0 0 1 1.877-1.482c.753-.373 1.634-.563 2.642-.563 1.006 0 1.884.19 2.63.563a5.628 5.628 0 0 1 1.874 1.482 6.347 6.347 0 0 1 1.135 2.096c.249.783.376 1.58.376 2.395M35.204 74.603c-.622-.243-1.201-.366-1.738-.366-.55 0-1.027.107-1.422.316-.398.208-.727.49-.986.847a3.877 3.877 0 0 0-.582 1.204 4.882 4.882 0 0 0-.196 1.372c0 .521.057 1.02.171 1.501.111.477.284.897.518 1.254.231.358.525.645.879.863.354.215.774.326 1.258.326.398 0 .802-.111 1.216-.326.415-.218.708-.477.882-.771zm.259 9.788-.129-.961c-.294.329-.683.62-1.17.87-.483.252-1.055.379-1.713.379-.862 0-1.627-.183-2.281-.547a5.102 5.102 0 0 1-1.663-1.457 6.661 6.661 0 0 1-1.027-2.111 8.94 8.94 0 0 1-.348-2.5c0-.815.121-1.615.361-2.396.243-.78.61-1.479 1.103-2.095a5.508 5.508 0 0 1 1.858-1.482c.743-.373 1.618-.563 2.62-.563.657 0 1.369.123 2.13.364v-4.867h3.227v17.366zM47.521 78.506c-.348.019-.708.051-1.075.092-.367.044-.714.101-1.046.171-.702.139-1.185.376-1.457.714-.269.341-.405.708-.405 1.109 0 .414.152.749.459 1.002.306.25.736.376 1.295.376.421 0 .828-.085 1.22-.259s.73-.392 1.009-.651zm.259 5.876-.127-.939a3.577 3.577 0 0 1-1.333.907 4.707 4.707 0 0 1-1.777.329c-.54 0-1.062-.092-1.555-.275a4.061 4.061 0 0 1-1.321-.781 3.818 3.818 0 0 1-1.28-2.929c0-.623.12-1.176.367-1.653.243-.478.572-.879.992-1.211a5.54 5.54 0 0 1 1.438-.806 9.146 9.146 0 0 1 1.698-.471c.417-.085.875-.148 1.371-.193.496-.044.91-.082 1.242-.117v-.183c0-.695-.177-1.188-.537-1.485-.357-.294-.85-.443-1.476-.443a4.08 4.08 0 0 0-1.049.133 4.564 4.564 0 0 0-.888.322 8.177 8.177 0 0 0-.696.392c-.199.13-.36.247-.483.351l-1.068-2.263c.139-.123.35-.268.638-.442a7.113 7.113 0 0 1 1.043-.509 8.858 8.858 0 0 1 1.378-.417 7.61 7.61 0 0 1 1.653-.171c.695 0 1.33.092 1.902.275a3.849 3.849 0 0 1 1.486.86c.414.389.739.882.976 1.482.234.597.351 1.321.351 2.171v8.066zM60.7 69.888a5.095 5.095 0 0 0-.61-.221c-.307-.095-.708-.143-1.214-.143-.449 0-.828.136-1.131.405-.304.269-.456.708-.456 1.315v.597h2.709v2.604h-2.683v9.946h-3.23v-9.946h-1.666v-2.604h1.666v-.676c0-.816.104-1.505.313-2.07.208-.563.499-1.024.872-1.378.373-.357.812-.62 1.315-.784a5.259 5.259 0 0 1 1.643-.247c.781 0 1.425.073 1.937.222.512.148.813.246.898.3zM69.501 78.051c0-.521-.063-1.017-.183-1.488a3.55 3.55 0 0 0-.547-1.214 2.76 2.76 0 0 0-.885-.809c-.347-.202-.755-.303-1.223-.303-.467 0-.878.101-1.223.303a2.791 2.791 0 0 0-.888.809c-.24.338-.423.743-.547 1.214-.12.471-.18.967-.18 1.488 0 .541.06 1.043.18 1.505.124.461.301.866.535 1.213.233.348.53.623.884.825.358.199.772.3 1.239.3.468 0 .876-.101 1.223-.3.348-.202.642-.477.885-.825.244-.347.427-.752.547-1.213.12-.462.183-.964.183-1.505m3.177.014c0 .819-.127 1.621-.38 2.412a6.546 6.546 0 0 1-1.118 2.12 5.522 5.522 0 0 1-1.875 1.511c-.755.382-1.637.572-2.642.572-1.008 0-1.89-.19-2.642-.572a5.556 5.556 0 0 1-1.877-1.511 6.686 6.686 0 0 1-1.119-2.12 7.859 7.859 0 0 1 0-4.807 6.555 6.555 0 0 1 1.119-2.096 5.493 5.493 0 0 1 1.877-1.482c.752-.373 1.634-.563 2.642-.563 1.005 0 1.884.19 2.63.563a5.638 5.638 0 0 1 1.874 1.482 6.266 6.266 0 0 1 1.131 2.096c.253.783.38 1.58.38 2.395M82.699 84.391v-7.158c0-.955-.199-1.694-.597-2.216-.401-.518-.954-.78-1.669-.78-.502 0-.967.129-1.39.392a5.815 5.815 0 0 0-1.109.859v8.903h-3.227v-12.55h2.942l.155.989a5.617 5.617 0 0 1 1.707-.96 5.597 5.597 0 0 1 1.912-.339c.66 0 1.267.098 1.823.297a3.585 3.585 0 0 1 1.432.952c.401.433.708.998.926 1.691.215.695.325 1.529.325 2.499v7.421zM95.973 76.607a3.273 3.273 0 0 0-.275-1.131 2.369 2.369 0 0 0-.55-.781 2.19 2.19 0 0 0-.704-.446 2.225 2.225 0 0 0-.775-.142c-.559 0-1.09.209-1.596.626-.505.417-.802 1.04-.891 1.874zm-4.867 2.317c.07 1.058.398 1.823.993 2.291.591.468 1.359.705 2.297.705.436 0 .847-.041 1.23-.117a5.728 5.728 0 0 0 1.021-.3c.297-.121.549-.244.758-.364.209-.123.363-.237.471-.341l.86 2.632c-.124.086-.32.203-.588.351a5.992 5.992 0 0 1-1.002.417c-.398.13-.869.241-1.407.339-.537.094-1.128.142-1.769.142-.819 0-1.593-.13-2.333-.389a5.207 5.207 0 0 1-1.937-1.214c-.556-.546-.999-1.226-1.328-2.041-.331-.816-.496-1.789-.496-2.917 0-1.059.152-1.998.455-2.813.304-.816.721-1.501 1.249-2.058a5.523 5.523 0 0 1 1.849-1.276 5.781 5.781 0 0 1 2.253-.443c.8 0 1.536.133 2.216.392a4.546 4.546 0 0 1 1.757 1.21c.493.547.885 1.255 1.169 2.124.288.866.43 1.9.43 3.098v.572z" transform="matrix(.37042 0 0 .37042 89.416 16.13)"/></g></svg>