<svg width="210mm" height="297mm" viewBox="0 0 210 297" xmlns="http://www.w3.org/2000/svg"><path style="fill:#fff;fill-opacity:1;stroke:none;stroke-width:.264583px;stroke-linecap:butt;stroke-linejoin:miter;stroke-opacity:1" d="M44.176 56.37c-.002-16.063 4.92-19.125 10.82-19.607l55.35-5.345c4.03-.324 8.068-.097 12.118.81 9.263 2.367 17.967 3.204 27.802 7.141 4.623 1.96 8.73 4.953 9.618 14.403l-3.029 189.507c-.145 5.43-1.35 10.176-5.098 13.278l-25.324 14.552c-4.788 2.048-8.608 5.267-16.63 3.401l-50.46-15.497c-6.453-1.873-10.533-9.147-11.529-23.434L44.176 56.37"/><path style="fill:none;stroke:#000;stroke-width:.79375;stroke-linecap:butt;stroke-linejoin:miter;stroke-opacity:1;stroke-miterlimit:4;stroke-dasharray:none" d="m44.176 56.37 3.638 179.209c0 10.552 4.182 21.466 11.528 23.434l50.46 15.497c5.396 1.446 10.162.333 16.631-3.401l25.324-14.552c4.036-2.33 5.292-9.235 5.292-19.466l2.835-183.319c0-11.18-8.757-14.673-16.064-16.63l-21.356-4.914c-5.417-1.226-10.56-1.12-16.253-.567l-51.215 5.102c-9.621 1.198-10.978 9.694-10.82 19.608z"/><path style="fill:none;stroke:#000;stroke-width:.79375;stroke-linecap:butt;stroke-linejoin:miter;stroke-opacity:1;stroke-miterlimit:4;stroke-dasharray:none" d="M106.757 31.618c11.993-.981 21.6 4.257 21.6 20.095l-.068 208.738c0 10.49-6.642 15.36-16.37 14.5"/><path style="fill:none;stroke:#000;stroke-width:.79375;stroke-linecap:butt;stroke-linejoin:miter;stroke-opacity:1;stroke-miterlimit:4;stroke-dasharray:none" d="M110.347 31.418c11.992-.981 21.598 4.257 21.598 20.095l-.066 208.738c0 9.592-10.232 15.56-19.96 14.7"/><ellipse style="opacity:1;fill:none;fill-opacity:1;stroke:#000;stroke-width:.79709284;stroke-linecap:round;stroke-linejoin:round;stroke-miterlimit:4;stroke-dasharray:none;stroke-dashoffset:0;stroke-opacity:1;paint-order:normal" cx="56.764" cy="216.56" rx="27.27" ry="38.205" transform="skewX(7.418) scale(1 .99163)"/><path style="fill:none;stroke:#000;stroke-width:.79375;stroke-linecap:butt;stroke-linejoin:miter;stroke-opacity:1;stroke-miterlimit:4;stroke-dasharray:none" d="M80.414 181.481v15.308l6.426 1.134.095-15.544zM65.579 220.696v7.749l8.835 2.456-.142-8.126zM94.636 228.02v7.842l10.03 2.688.033-8.59z"/><path style="fill:none;stroke:#000;stroke-width:.79375;stroke-linecap:butt;stroke-linejoin:miter;stroke-opacity:1;stroke-miterlimit:4;stroke-dasharray:none" d="M98.99 228.88v5.612l5.73 1.535M94.636 235.862l4.354-1.37M69.557 221.63v5.58l4.838 1.296M65.579 228.445l3.978-1.236M85.426 182.174v13.53l1.418.38M80.414 196.79l5.012-1.085M61.421 74.986v5.103M59.646 77.824c-1.823.488-1.402 6.726 1.969 6.726 3.37 0 3.725-5.788 1.932-6.823M59.791 97.901c.716 1.011.622 1.95-.047 2.835M61.256 96.153c1.164 2.235 1.023 4.293-.142 6.213M62.65 94.547c1.649 3.206 1.892 6.44.141 9.709M137.911 55.823v22.851h7.183V55.89Z"/></svg>