<svg width="442.737" height="4001.115" viewBox="0 0 117.141 1058.628" xml:space="preserve" xmlns="http://www.w3.org/2000/svg"><g style="clip-rule:evenodd;fill-rule:evenodd;stroke-linecap:round;stroke-linejoin:round;stroke-miterlimit:1.5"><circle style="stroke:#000;stroke-width:3.2px" r="5.462" cy="69.571" cx="306.8" transform="matrix(1.11804 0 0 1.11804 -284.443 346.221)"/><path style="fill:none;stroke:#000;stroke-width:3.2px" d="m307.393 137.26-32.995 17.594c17.04-23.133 27.997-48.339 32.995-75.574v79.239l-21.372-21.372c7.675-6.746 14.949-13.767 21.372-21.372l-7.761-7.761M295.283 118.899l12.11 18.361" transform="matrix(1.11804 0 0 1.11804 -285.107 341.473)"/><path style="fill:none;stroke:#000;stroke-width:3.2px" d="m307.393 137.26-32.995 17.594c17.04-23.133 27.997-48.339 32.995-75.574v79.239l-21.372-21.372c7.675-6.746 14.949-13.767 21.372-21.372l-7.761-7.761M295.283 118.899l12.11 18.361" transform="matrix(-1.11804 0 0 1.11804 402.247 341.473)"/><path style="fill:none;stroke:#000;stroke-width:6.24px" d="M211.396 77.61c0-13.889 11.276-25.165 25.165-25.165M261.725 77.61c0 13.888-11.276 25.164-25.164 25.164" transform="rotate(-45 555.392 327.626) scale(.57536 .57078)"/><path style="fill:none;stroke:#000;stroke-width:6.24px" d="M187.945 82.779c0-25.958 21.075-47.033 47.033-47.033M282.011 82.779c0 25.959-21.074 47.033-47.033 47.033" transform="rotate(-45 551.375 328.002) scale(.57536 .57078)"/><path style="fill:none;stroke:#000;stroke-width:6.24px" d="M307.229 87.512c0 38.73-31.443 70.173-70.172 70.173M166.884 87.512c0-38.729 31.444-70.172 70.173-70.172" transform="rotate(-45 548.712 330.797) scale(.57536 .57078)"/></g><path d="M-42.345 123.783q0 1.228-.887 1.934-.88.707-2.455.707-1.452 0-2.568-.545v-1.786q.918.409 1.55.576.64.168 1.166.168.633 0 .968-.242.34-.242.34-.72 0-.266-.148-.47-.149-.211-.44-.404-.286-.192-1.172-.614-.831-.39-1.247-.75-.415-.36-.663-.837-.248-.478-.248-1.116 0-1.203.812-1.892.819-.688 2.257-.688.707 0 1.346.167.645.168 1.346.472l-.62 1.494q-.726-.297-1.204-.415-.47-.118-.93-.118-.545 0-.837.254-.291.254-.291.664 0 .254.117.446.118.186.373.366.26.174 1.221.633 1.271.607 1.743 1.221.471.608.471 1.495zm5.482 2.517-2.183-7.112h-.056q.118 2.17.118 2.896v4.216h-1.718v-9.066h2.617l2.146 6.933h.037l2.276-6.933h2.617v9.066h-1.792v-4.29q0-.305.006-.702.012-.396.087-2.108h-.056l-2.338 7.1zm13.686 0-.658-2.158h-3.305l-.657 2.158h-2.071l3.2-9.103h2.35l3.212 9.103zm-1.116-3.77q-.912-2.933-1.03-3.318-.111-.384-.161-.607-.205.793-1.172 3.925zm6.25-1.271h.62q.912 0 1.346-.304.434-.304.434-.955 0-.645-.446-.918-.44-.273-1.37-.273h-.584zm0 1.562v3.48h-1.922v-9.067h2.642q1.848 0 2.734.676.887.67.887 2.04 0 .8-.44 1.427-.44.62-1.247.973 2.047 3.057 2.667 3.95h-2.133l-2.164-3.479zm9.96 3.48h-1.923v-7.467h-2.462v-1.6h6.846v1.6h-2.462zm5.779-4.8h.632q.887 0 1.328-.348.44-.353.44-1.023 0-.676-.372-.998-.366-.323-1.154-.323h-.874zm4.34-1.439q0 1.463-.917 2.239-.912.775-2.598.775h-.825v3.224h-1.922v-9.066h2.896q1.65 0 2.505.713.862.707.862 2.115zm1.712 6.238v-9.066h1.923v7.479h3.677v1.587zm14.554-9.066v5.867q0 1.004-.452 1.76-.447.757-1.296 1.16-.85.403-2.01.403-1.748 0-2.716-.893-.967-.899-.967-2.455v-5.842h1.916v5.55q0 1.048.422 1.538t1.395.49q.943 0 1.364-.49.428-.496.428-1.55v-5.538zm5.662 3.975h3.597v4.7q-.875.286-1.65.398-.769.117-1.575.117-2.052 0-3.138-1.203-1.079-1.209-1.079-3.466 0-2.195 1.253-3.423 1.259-1.228 3.485-1.228 1.395 0 2.691.558l-.638 1.538q-.993-.496-2.065-.496-1.247 0-1.997.837t-.75 2.251q0 1.476.601 2.257.608.775 1.761.775.602 0 1.222-.124v-1.89h-1.718z" style="font-weight:700;font-size:12.7px;line-height:1.25;font-family:'Open Sans';-inkscape-font-specification:'Open Sans Bold';letter-spacing:0;word-spacing:0;stroke-width:.264583" aria-label="SMARTPLUG" transform="translate(68.917 88.986)"/><g transform="matrix(.72489 0 0 .72489 -15.263 -9.372)"><path style="fill:#fff;fill-opacity:1;stroke:none;stroke-width:.264583px;stroke-linecap:butt;stroke-linejoin:miter;stroke-opacity:1" d="M44.176 56.37c-.002-16.063 4.92-19.125 10.82-19.607l55.35-5.345c4.03-.324 8.068-.097 12.118.81 9.263 2.367 17.967 3.204 27.802 7.141 4.623 1.96 8.73 4.953 9.618 14.403l-3.029 189.507c-.145 5.43-1.35 10.176-5.098 13.278l-25.324 14.552c-4.788 2.048-8.608 5.267-16.63 3.401l-50.46-15.497c-6.453-1.873-10.533-9.147-11.529-23.434L44.176 56.37"/><path style="fill:none;stroke:#000;stroke-width:.79375;stroke-linecap:butt;stroke-linejoin:miter;stroke-miterlimit:4;stroke-dasharray:none;stroke-opacity:1" d="m44.176 56.37 3.638 179.209c0 10.552 4.182 21.466 11.528 23.434l50.46 15.497c5.396 1.446 10.162.333 16.631-3.401l25.324-14.552c4.036-2.33 5.292-9.235 5.292-19.466l2.835-183.319c0-11.18-8.757-14.673-16.064-16.63l-21.356-4.914c-5.417-1.226-10.56-1.12-16.253-.567l-51.215 5.102c-9.621 1.198-10.978 9.694-10.82 19.608z"/><path style="fill:none;stroke:#000;stroke-width:.79375;stroke-linecap:butt;stroke-linejoin:miter;stroke-miterlimit:4;stroke-dasharray:none;stroke-opacity:1" d="M106.757 31.618c11.993-.981 21.6 4.257 21.6 20.095l-.068 208.738c0 10.49-6.642 15.36-16.37 14.5"/><path style="fill:none;stroke:#000;stroke-width:.79375;stroke-linecap:butt;stroke-linejoin:miter;stroke-miterlimit:4;stroke-dasharray:none;stroke-opacity:1" d="M110.347 31.418c11.992-.981 21.598 4.257 21.598 20.095l-.066 208.738c0 9.592-10.232 15.56-19.96 14.7"/><ellipse style="opacity:1;fill:none;fill-opacity:1;stroke:#000;stroke-width:.797093;stroke-linecap:round;stroke-linejoin:round;stroke-miterlimit:4;stroke-dasharray:none;stroke-dashoffset:0;stroke-opacity:1;paint-order:normal" cx="56.764" cy="216.56" rx="27.27" ry="38.205" transform="skewX(7.418) scale(1 .99163)"/><path style="fill:none;stroke:#000;stroke-width:.79375;stroke-linecap:butt;stroke-linejoin:miter;stroke-miterlimit:4;stroke-dasharray:none;stroke-opacity:1" d="M80.414 181.481v15.308l6.426 1.134.095-15.544zm-14.835 39.215v7.749l8.835 2.456-.142-8.126zm29.057 7.324v7.842l10.03 2.688.033-8.59z"/><path style="fill:none;stroke:#000;stroke-width:.79375;stroke-linecap:butt;stroke-linejoin:miter;stroke-miterlimit:4;stroke-dasharray:none;stroke-opacity:1" d="M98.99 228.88v5.612l5.73 1.535m-10.084-.165 4.354-1.37M69.557 221.63v5.58l4.838 1.296m-8.816-.061 3.978-1.236m15.869-45.035v13.53l1.418.38m-6.43.706 5.012-1.085M61.421 74.986v5.103m-1.775-2.265c-1.823.488-1.402 6.726 1.969 6.726 3.37 0 3.725-5.788 1.932-6.823m-3.756 20.174c.716 1.011.622 1.95-.047 2.835m1.512-4.583c1.164 2.235 1.023 4.293-.142 6.213m1.536-7.819c1.649 3.206 1.892 6.44.141 9.709m75.12-48.433v22.851h7.183V55.89Z"/></g><g style="stroke-width:.653044"><path style="opacity:1;fill:none;fill-opacity:1;stroke:#000;stroke-width:.653044;stroke-linecap:round;stroke-linejoin:round;stroke-miterlimit:4;stroke-dasharray:none;stroke-dashoffset:0;stroke-opacity:1;paint-order:normal" d="M151.616 38.441h15.71v10.276h-15.71z" transform="matrix(4.60537 0 0 4.6539 -675.85 809.81)"/><path transform="matrix(1.2185 0 0 1.23134 -675.85 809.81)" d="M573.035 183.488v3.409h-6.826v1.705l1.674 1.673h69.681l1.672-1.673v-1.706h-6.826V183.488h-45.512z" style="fill:#000;fill-opacity:1;stroke:#000;stroke-width:2.4682;stroke-linecap:butt;stroke-linejoin:miter;stroke-miterlimit:4;stroke-dasharray:none;stroke-opacity:1"/></g><path d="M-10.243 170.27H43.71" style="fill:none;stroke:#000;stroke-width:2;stroke-linecap:butt;stroke-linejoin:miter;stroke-miterlimit:4;stroke-dasharray:none;stroke-opacity:1" transform="rotate(-90 -5.576 352.982) scale(2.28088)"/><path style="fill:none;stroke:#000;stroke-width:2;stroke-linecap:square;stroke-linejoin:miter;stroke-miterlimit:4;stroke-dasharray:none;stroke-opacity:1" d="M88.635 120.107h6.426M95.061 113.682v6.425" transform="scale(2.28088 -2.28088) rotate(45 330.14 -93.22)"/><path d="M-10.243 170.27H43.71" style="fill:none;stroke:#000;stroke-width:2;stroke-linecap:butt;stroke-linejoin:miter;stroke-miterlimit:4;stroke-dasharray:none;stroke-opacity:1" transform="rotate(90 103.928 371.771) scale(2.28088)"/><path style="fill:none;stroke:#000;stroke-width:2;stroke-linecap:square;stroke-linejoin:miter;stroke-miterlimit:4;stroke-dasharray:none;stroke-opacity:1" d="M88.635 120.107h6.426M95.061 113.682v6.425" transform="scale(-2.28088 2.28088) rotate(45 -21.147 -20.344)"/><path d="M-10.243 170.27H43.71" style="fill:none;stroke:#000;stroke-width:2;stroke-linecap:butt;stroke-linejoin:miter;stroke-miterlimit:4;stroke-dasharray:none;stroke-opacity:1" transform="rotate(-90 143.757 502.315) scale(2.28088)"/><path style="fill:none;stroke:#000;stroke-width:2;stroke-linecap:square;stroke-linejoin:miter;stroke-miterlimit:4;stroke-dasharray:none;stroke-opacity:1" d="M88.635 120.107h6.426M95.061 113.682v6.425" transform="scale(2.28088 -2.28088) rotate(45 488.202 -158.693)"/><path d="M-10.243 170.27H43.71" style="fill:none;stroke:#000;stroke-width:2;stroke-linecap:butt;stroke-linejoin:miter;stroke-miterlimit:4;stroke-dasharray:none;stroke-opacity:1" transform="rotate(90 -45.405 521.104) scale(2.28088)"/><path style="fill:none;stroke:#000;stroke-width:2;stroke-linecap:square;stroke-linejoin:miter;stroke-miterlimit:4;stroke-dasharray:none;stroke-opacity:1" d="M88.635 120.107h6.426M95.061 113.682v6.425" transform="scale(-2.28088 2.28088) rotate(45 -179.21 45.128)"/><path d="M-10.243 170.27H43.71" style="fill:none;stroke:#000;stroke-width:2;stroke-linecap:butt;stroke-linejoin:miter;stroke-miterlimit:4;stroke-dasharray:none;stroke-opacity:1" transform="rotate(-90 291.306 649.864) scale(2.28088)"/><path style="fill:none;stroke:#000;stroke-width:2;stroke-linecap:square;stroke-linejoin:miter;stroke-miterlimit:4;stroke-dasharray:none;stroke-opacity:1" d="M88.635 120.107h6.426M95.061 113.682v6.425" transform="scale(2.28088 -2.28088) rotate(45 644.377 -223.382)"/><path d="M-10.243 170.27H43.71" style="fill:none;stroke:#000;stroke-width:2;stroke-linecap:butt;stroke-linejoin:miter;stroke-miterlimit:4;stroke-dasharray:none;stroke-opacity:1" transform="rotate(90 -192.955 668.653) scale(2.28088)"/><path style="fill:none;stroke:#000;stroke-width:2;stroke-linecap:square;stroke-linejoin:miter;stroke-miterlimit:4;stroke-dasharray:none;stroke-opacity:1" d="M88.635 120.107h6.426M95.061 113.682v6.425" transform="scale(-2.28088 2.28088) rotate(45 -335.384 109.817)"/><path d="M182.308 198.978q0 2.25-1.116 3.46t-3.2 1.21q-2.083 0-3.2-1.21-1.116-1.21-1.116-3.473t1.116-3.454q1.123-1.197 3.213-1.197t3.193 1.203q1.11 1.203 1.11 3.46zm-6.616 0q0 1.519.576 2.288.577.769 1.724.769 2.3 0 2.3-3.057 0-3.064-2.287-3.064-1.148 0-1.73.775-.583.77-.583 2.289zm12.334 4.545-2.183-7.113h-.056q.118 2.17.118 2.896v4.217h-1.718v-9.066h2.617l2.146 6.933h.037l2.276-6.933h2.617v9.066h-1.793v-4.291q0-.304.006-.7.013-.398.087-2.11h-.056l-2.337 7.101zm16.179 0h-2.444l-3.944-6.858h-.055q.117 1.817.117 2.592v4.266h-1.717v-9.066h2.424l3.938 6.79h.043q-.093-1.767-.093-2.499v-4.29h1.73zm2.282 0v-9.066h1.922v9.066zm13.034 0h-2.189l-1.227-4.762q-.069-.255-.236-1.048-.161-.8-.186-1.073-.037.335-.186 1.079-.149.738-.23 1.054l-1.221 4.75h-2.183l-2.313-9.066h1.891l1.16 4.949q.304 1.37.44 2.375.037-.354.168-1.092.136-.744.254-1.153l1.32-5.079h1.818l1.32 5.079q.087.34.218 1.042.13.7.198 1.203.062-.484.198-1.203.137-.726.248-1.172l1.154-4.949h1.891zm8.998 0-.657-2.158h-3.305l-.658 2.158h-2.07l3.2-9.103h2.35l3.212 9.103zm-1.116-3.77-1.03-3.318q-.11-.384-.16-.607-.205.793-1.173 3.925zm7.826 3.77h-1.922v-7.466h-2.462v-1.6h6.846v1.6h-2.462Zm7.708-7.596q-1.085 0-1.68.818-.596.813-.596 2.27 0 3.032 2.276 3.032.955 0 2.313-.477v1.612q-1.116.465-2.493.465-1.978 0-3.026-1.197-1.048-1.203-1.048-3.447 0-1.414.515-2.475.514-1.066 1.476-1.63.967-.571 2.263-.571 1.32 0 2.654.639l-.62 1.562q-.508-.242-1.023-.421-.515-.18-1.01-.18zm11.67 7.596h-1.915v-3.913H249.1v3.913h-1.922v-9.066h1.922v3.553h3.59v-3.553h1.917z" style="font-weight:700;font-size:12.7px;line-height:1.25;font-family:'Open Sans';-inkscape-font-specification:'Open Sans Bold';letter-spacing:0;word-spacing:0;stroke-width:.264583" aria-label="OMNIWATCH" transform="translate(-155.572 605.534)"/><path style="opacity:1;fill:none;fill-opacity:1;stroke:#000;stroke-width:1.06298;stroke-linecap:round;stroke-linejoin:round;stroke-miterlimit:4;stroke-dasharray:none;stroke-dashoffset:0;stroke-opacity:1;paint-order:normal" d="M95.1 35.001c0 1.066-2.519 1.93-5.626 1.93s-5.626-.864-5.626-1.93M95.1 38.176c0 1.066-2.519 1.93-5.626 1.93s-5.626-.864-5.626-1.93" transform="translate(-339.828 556.835) scale(4.60598)"/><path style="opacity:1;fill:none;fill-opacity:1;stroke:#000;stroke-width:4.01755;stroke-linecap:round;stroke-linejoin:round;stroke-miterlimit:4;stroke-dasharray:none;stroke-dashoffset:0;stroke-opacity:1;paint-order:normal" d="m359.434 120.287-42.618.069.012 36.187h.102a21.265 7.292 0 0 0 21.24 7.037 21.265 7.292 0 0 0 21.264-7.293h.09z" transform="matrix(1.21867 0 0 1.21867 -339.828 556.835)"/><path style="opacity:1;fill:#fff;fill-opacity:1;stroke:#000;stroke-width:1.06298;stroke-linecap:round;stroke-linejoin:round;stroke-miterlimit:4;stroke-dasharray:none;stroke-dashoffset:0;stroke-opacity:1;paint-order:normal" d="M95.1 31.826a5.626 1.93 0 0 1-5.626 1.93 5.626 1.93 0 0 1-5.626-1.93 5.626 1.93 0 0 1 5.626-1.93 5.626 1.93 0 0 1 5.626 1.93z" transform="translate(-339.828 556.835) scale(4.60598)"/><g style="fill:#fff;fill-opacity:1" transform="translate(-534.332 576.632) scale(4.60598)"><rect ry="0" y="33.878" x="120.065" height="3.451" width="11.283" style="opacity:1;fill:#fff;fill-opacity:1;stroke:#000;stroke-width:1;stroke-linecap:round;stroke-linejoin:round;stroke-miterlimit:4;stroke-dasharray:none;stroke-dashoffset:0;stroke-opacity:1;paint-order:normal"/><circle r=".549" cy="35.603" cx="121.927" style="opacity:1;fill:#fff;fill-opacity:1;stroke:#000;stroke-width:.6;stroke-linecap:round;stroke-linejoin:round;stroke-miterlimit:4;stroke-dasharray:none;stroke-dashoffset:0;stroke-opacity:1;paint-order:normal"/></g><g style="fill:#fff;fill-opacity:1" transform="translate(-534.332 592.528) scale(4.60598)"><rect ry="0" y="33.878" x="120.065" height="3.451" width="11.283" style="opacity:1;fill:#fff;fill-opacity:1;stroke:#000;stroke-width:1;stroke-linecap:round;stroke-linejoin:round;stroke-miterlimit:4;stroke-dasharray:none;stroke-dashoffset:0;stroke-opacity:1;paint-order:normal"/><circle r=".549" cy="35.603" cx="121.927" style="opacity:1;fill:#fff;fill-opacity:1;stroke:#000;stroke-width:.6;stroke-linecap:round;stroke-linejoin:round;stroke-miterlimit:4;stroke-dasharray:none;stroke-dashoffset:0;stroke-opacity:1;paint-order:normal"/></g><g style="fill:#fff;fill-opacity:1" transform="translate(-534.332 608.424) scale(4.60598)"><rect ry="0" y="33.878" x="120.065" height="3.451" width="11.283" style="opacity:1;fill:#fff;fill-opacity:1;stroke:#000;stroke-width:1;stroke-linecap:round;stroke-linejoin:round;stroke-miterlimit:4;stroke-dasharray:none;stroke-dashoffset:0;stroke-opacity:1;paint-order:normal"/><circle r=".549" cy="35.603" cx="121.927" style="opacity:1;fill:#fff;fill-opacity:1;stroke:#000;stroke-width:.6;stroke-linecap:round;stroke-linejoin:round;stroke-miterlimit:4;stroke-dasharray:none;stroke-dashoffset:0;stroke-opacity:1;paint-order:normal"/></g></svg>