<?xml version="1.0" encoding="UTF-8" standalone="no"?>
<!DOCTYPE svg PUBLIC "-//W3C//DTD SVG 1.1//EN" "http://www.w3.org/Graphics/SVG/1.1/DTD/svg11.dtd">
<svg width="100%" height="100%" viewBox="0 0 400 200" version="1.1" xmlns="http://www.w3.org/2000/svg" xmlns:xlink="http://www.w3.org/1999/xlink" xml:space="preserve" xmlns:serif="http://www.serif.com/" style="fill-rule:evenodd;clip-rule:evenodd;stroke-linejoin:round;stroke-miterlimit:2;">
    <g id="layer1" transform="matrix(1,0,0,1,56.4727,-899.279)">
        <g id="flowRoot815" transform="matrix(0.264583,0,0,0.264583,0,922.52)">
            <path id="path872" d="M142.869,341.738L114.168,341.738L114.168,157.132C114.168,141.777 114.641,127.25 115.586,113.549C113.105,116.029 110.33,118.628 107.259,121.344C104.188,124.061 90.133,135.576 65.094,155.891L49.503,135.695L118.066,82.722L142.869,82.722L142.869,341.738Z" style="fill-rule:nonzero;"/>
            <path id="path874" d="M411.806,341.738L241.55,341.738L241.55,316.403L309.759,247.84C330.546,226.817 344.247,211.817 350.861,202.84C357.475,193.864 362.436,185.124 365.743,176.62C369.05,168.116 370.704,158.962 370.704,149.159C370.704,135.34 366.511,124.415 358.125,116.383C349.739,108.234 338.105,104.159 323.223,104.159C312.475,104.159 302.259,105.931 292.574,109.474C283.007,113.017 272.318,119.454 260.507,128.785L244.916,108.765C268.775,88.923 294.759,79.002 322.869,79.002C347.2,79.002 366.275,85.261 380.094,97.781C393.912,110.183 400.822,126.895 400.822,147.919C400.822,164.336 396.216,180.576 387.003,196.639C377.79,212.702 360.546,233.017 335.271,257.584L278.578,313.037L278.578,314.454L411.806,314.454L411.806,341.738Z" style="fill-rule:nonzero;"/>
            <path id="path876" d="M620.861,211.876C620.861,256.639 613.775,290.065 599.601,312.151C585.546,334.238 563.991,345.281 534.936,345.281C507.062,345.281 485.861,334.002 471.334,311.443C456.806,288.765 449.542,255.576 449.542,211.876C449.542,166.757 456.57,133.273 470.625,111.423C484.68,89.572 506.117,78.647 534.936,78.647C563.046,78.647 584.365,90.045 598.893,112.84C613.538,135.635 620.861,168.647 620.861,211.876ZM479.306,211.876C479.306,249.553 483.735,277.013 492.593,294.257C501.452,311.383 515.566,319.946 534.936,319.946C554.542,319.946 568.716,311.265 577.456,293.903C586.314,276.423 590.743,249.08 590.743,211.876C590.743,174.671 586.314,147.446 577.456,130.202C568.716,112.84 554.542,104.159 534.936,104.159C515.566,104.159 501.452,112.722 492.593,129.848C483.735,146.856 479.306,174.198 479.306,211.876Z" style="fill-rule:nonzero;"/>
            <path id="path878" d="M828.499,211.876C828.499,256.639 821.412,290.065 807.239,312.151C793.184,334.238 771.629,345.281 742.574,345.281C714.7,345.281 693.499,334.002 678.971,311.443C664.444,288.765 657.18,255.576 657.18,211.876C657.18,166.757 664.208,133.273 678.263,111.423C692.318,89.572 713.755,78.647 742.574,78.647C770.684,78.647 792.003,90.045 806.53,112.84C821.176,135.635 828.499,168.647 828.499,211.876ZM686.944,211.876C686.944,249.553 691.373,277.013 700.231,294.257C709.09,311.383 723.204,319.946 742.574,319.946C762.18,319.946 776.353,311.265 785.094,293.903C793.952,276.423 798.381,249.08 798.381,211.876C798.381,174.671 793.952,147.446 785.094,130.202C776.353,112.84 762.18,104.159 742.574,104.159C723.204,104.159 709.09,112.722 700.231,129.848C691.373,146.856 686.944,174.198 686.944,211.876Z" style="fill-rule:nonzero;"/>
            <path id="path880" d="M962.436,201.6L1035.43,201.6L1035.43,226.049L962.436,226.049L962.436,301.521L937.81,301.521L937.81,226.049L865.172,226.049L865.172,201.6L937.81,201.6L937.81,125.773L962.436,125.773L962.436,201.6Z" style="fill-rule:nonzero;"/>
        </g>
        <g id="text851">
            <path id="path883" d="M13.212,1025.5L29.969,1025.5L29.969,1028.82L17.157,1028.82L17.157,1037.42L28.719,1037.42L28.719,1040.74L17.157,1040.74L17.157,1054.66L13.212,1054.66L13.212,1025.5Z" style="fill-rule:nonzero;"/>
            <path id="path885" d="M48.094,1028.18C45.23,1028.18 42.951,1029.25 41.258,1031.38C39.579,1033.52 38.739,1036.43 38.739,1040.11C38.739,1043.78 39.579,1046.69 41.258,1048.82C42.951,1050.96 45.23,1052.03 48.094,1052.03C50.959,1052.03 53.225,1050.96 54.891,1048.82C56.571,1046.69 57.411,1043.78 57.411,1040.11C57.411,1036.43 56.571,1033.52 54.891,1031.38C53.225,1029.25 50.959,1028.18 48.094,1028.18ZM48.094,1024.97C52.183,1024.97 55.451,1026.35 57.899,1029.1C60.347,1031.83 61.571,1035.5 61.571,1040.11C61.571,1044.71 60.347,1048.38 57.899,1051.13C55.451,1053.86 52.183,1055.23 48.094,1055.23C43.993,1055.23 40.712,1053.86 38.251,1051.13C35.803,1048.39 34.579,1044.72 34.579,1040.11C34.579,1035.5 35.803,1031.83 38.251,1029.1C40.712,1026.35 43.993,1024.97 48.094,1024.97Z" style="fill-rule:nonzero;"/>
            <path id="path887" d="M79.579,1028.18C76.714,1028.18 74.435,1029.25 72.743,1031.38C71.063,1033.52 70.223,1036.43 70.223,1040.11C70.223,1043.78 71.063,1046.69 72.743,1048.82C74.435,1050.96 76.714,1052.03 79.579,1052.03C82.443,1052.03 84.709,1050.96 86.376,1048.82C88.055,1046.69 88.895,1043.78 88.895,1040.11C88.895,1036.43 88.055,1033.52 86.376,1031.38C84.709,1029.25 82.443,1028.18 79.579,1028.18ZM79.579,1024.97C83.667,1024.97 86.935,1026.35 89.383,1029.1C91.831,1031.83 93.055,1035.5 93.055,1040.11C93.055,1044.71 91.831,1048.38 89.383,1051.13C86.935,1053.86 83.667,1055.23 79.579,1055.23C75.477,1055.23 72.196,1053.86 69.735,1051.13C67.287,1048.39 66.063,1044.72 66.063,1040.11C66.063,1035.5 67.287,1031.83 69.735,1029.1C72.196,1026.35 75.477,1024.97 79.579,1024.97Z" style="fill-rule:nonzero;"/>
            <path id="path889" d="M95.184,1025.5L119.852,1025.5L119.852,1028.82L109.501,1028.82L109.501,1054.66L105.536,1054.66L105.536,1028.82L95.184,1028.82L95.184,1025.5Z" style="fill-rule:nonzero;"/>
            <path id="path891" d="M150.243,1040.99C151.089,1041.28 151.909,1041.89 152.704,1042.83C153.511,1043.76 154.318,1045.05 155.126,1046.69L159.129,1054.66L154.891,1054.66L151.161,1047.18C150.197,1045.23 149.26,1043.93 148.348,1043.3C147.45,1042.66 146.219,1042.34 144.657,1042.34L140.36,1042.34L140.36,1054.66L136.415,1054.66L136.415,1025.5L145.321,1025.5C148.654,1025.5 151.141,1026.2 152.782,1027.59C154.422,1028.99 155.243,1031.09 155.243,1033.9C155.243,1035.74 154.813,1037.26 153.954,1038.47C153.107,1039.68 151.87,1040.52 150.243,1040.99ZM140.36,1028.74L140.36,1039.1L145.321,1039.1C147.222,1039.1 148.654,1038.66 149.618,1037.79C150.594,1036.9 151.083,1035.61 151.083,1033.9C151.083,1032.19 150.594,1030.91 149.618,1030.05C148.654,1029.18 147.222,1028.74 145.321,1028.74L140.36,1028.74Z" style="fill-rule:nonzero;"/>
            <path id="path893" d="M172.333,1029.39L166.981,1043.9L177.704,1043.9L172.333,1029.39ZM170.106,1025.5L174.579,1025.5L185.692,1054.66L181.59,1054.66L178.934,1047.18L165.79,1047.18L163.133,1054.66L158.973,1054.66L170.106,1025.5Z" style="fill-rule:nonzero;"/>
            <path id="path895" d="M189.93,1025.5L195.243,1025.5L208.172,1049.9L208.172,1025.5L212.001,1025.5L212.001,1054.66L206.688,1054.66L193.758,1030.27L193.758,1054.66L189.93,1054.66L189.93,1025.5Z" style="fill-rule:nonzero;"/>
            <path id="path897" d="M239.735,1050.5L239.735,1042.67L233.29,1042.67L233.29,1039.43L243.641,1039.43L243.641,1051.95C242.118,1053.03 240.438,1053.85 238.602,1054.41C236.766,1054.95 234.807,1055.23 232.723,1055.23C228.166,1055.23 224.598,1053.9 222.02,1051.24C219.455,1048.58 218.172,1044.86 218.172,1040.11C218.172,1035.35 219.455,1031.63 222.02,1028.98C224.598,1026.31 228.166,1024.97 232.723,1024.97C234.624,1024.97 236.428,1025.21 238.133,1025.68C239.852,1026.15 241.434,1026.84 242.879,1027.75L242.879,1031.95C241.421,1030.71 239.872,1029.78 238.231,1029.15C236.59,1028.53 234.865,1028.22 233.055,1028.22C229.488,1028.22 226.805,1029.21 225.008,1031.2C223.225,1033.2 222.333,1036.17 222.333,1040.11C222.333,1044.04 223.225,1047.01 225.008,1049C226.805,1050.99 229.488,1051.99 233.055,1051.99C234.448,1051.99 235.692,1051.87 236.786,1051.63C237.879,1051.39 238.863,1051.01 239.735,1050.5Z" style="fill-rule:nonzero;"/>
            <path id="path899" d="M250.868,1025.5L269.305,1025.5L269.305,1028.82L254.813,1028.82L254.813,1037.45L268.7,1037.45L268.7,1040.78L254.813,1040.78L254.813,1051.34L269.657,1051.34L269.657,1054.66L250.868,1054.66L250.868,1025.5Z" style="fill-rule:nonzero;"/>
        </g>
    </g>
</svg>
