<svg viewBox="0 0 400 200" xmlns="http://www.w3.org/2000/svg" fill-rule="evenodd" clip-rule="evenodd" stroke-linejoin="round" stroke-miterlimit="2"><g fill-rule="nonzero"><path d="M94.273 113.66H86.68V64.814c0-4.062.125-7.906.375-11.53a49.626 49.626 0 01-2.203 2.062c-.813.718-4.532 3.765-11.157 9.14l-4.125-5.343 18.141-14.016h6.562v68.531zM165.43 113.66h-45.047v-6.704l18.047-18.14c5.5-5.563 9.125-9.532 10.875-11.907s3.062-4.687 3.937-6.937 1.313-4.672 1.313-7.266c0-3.656-1.11-6.547-3.329-8.672-2.218-2.156-5.296-3.234-9.234-3.234-2.844 0-5.547.469-8.11 1.406-2.53.937-5.359 2.64-8.484 5.11l-4.125-5.298c6.313-5.25 13.188-7.874 20.625-7.874 6.438 0 11.485 1.656 15.141 4.968 3.656 3.282 5.484 7.703 5.484 13.266 0 4.344-1.218 8.64-3.656 12.89-2.437 4.25-7 9.625-13.687 16.125l-15 14.672v.375h35.25v7.22zM220.742 79.3c0 11.843-1.875 20.687-5.625 26.53-3.719 5.845-9.422 8.766-17.11 8.766-7.374 0-12.984-2.984-16.827-8.952-3.844-6-5.766-14.782-5.766-26.344 0-11.938 1.86-20.797 5.578-26.578 3.719-5.782 9.39-8.672 17.016-8.672 7.437 0 13.078 3.015 16.922 9.047 3.874 6.03 5.812 14.765 5.812 26.203zm-37.453 0c0 9.968 1.172 17.234 3.515 21.796 2.344 4.532 6.079 6.797 11.204 6.797 5.187 0 8.937-2.297 11.25-6.89 2.343-4.625 3.515-11.86 3.515-21.703 0-9.844-1.172-17.047-3.515-21.61-2.313-4.593-6.063-6.89-11.25-6.89-5.125 0-8.86 2.265-11.204 6.797-2.343 4.5-3.515 11.734-3.515 21.703zM275.68 79.3c0 11.843-1.876 20.687-5.626 26.53-3.718 5.845-9.421 8.766-17.109 8.766-7.375 0-12.984-2.984-16.828-8.952-3.844-6-5.766-14.782-5.766-26.344 0-11.938 1.86-20.797 5.579-26.578 3.718-5.782 9.39-8.672 17.015-8.672 7.438 0 13.078 3.015 16.922 9.047 3.875 6.03 5.812 14.765 5.812 26.203zm-37.454 0c0 9.968 1.172 17.234 3.516 21.796 2.344 4.532 6.078 6.797 11.203 6.797 5.188 0 8.938-2.297 11.25-6.89 2.344-4.625 3.516-11.86 3.516-21.703 0-9.844-1.172-17.047-3.516-21.61-2.312-4.593-6.062-6.89-11.25-6.89-5.125 0-8.86 2.265-11.203 6.797-2.344 4.5-3.516 11.734-3.516 21.703zM311.117 76.58h19.313v6.47h-19.313v19.968H304.6V83.05h-19.218v-6.47H304.6V56.519h6.516v20.063z"/><g><path d="M69.685 126.221h16.757v3.32H73.63v8.6h11.562v3.32H73.63v13.92h-3.945v-29.16zM104.567 128.901c-2.864 0-5.143 1.07-6.836 3.2-1.68 2.14-2.52 5.05-2.52 8.73 0 3.67.84 6.58 2.52 8.71 1.693 2.14 3.972 3.21 6.836 3.21 2.865 0 5.13-1.07 6.797-3.21 1.68-2.13 2.52-5.04 2.52-8.71 0-3.68-.84-6.59-2.52-8.73-1.666-2.13-3.932-3.2-6.797-3.2zm0-3.21c4.089 0 7.357 1.38 9.805 4.13 2.448 2.73 3.672 6.4 3.672 11.01 0 4.6-1.224 8.27-3.672 11.02-2.448 2.73-5.716 4.1-9.805 4.1-4.101 0-7.382-1.37-9.843-4.1-2.448-2.74-3.672-6.41-3.672-11.02 0-4.61 1.224-8.28 3.672-11.01 2.46-2.75 5.742-4.13 9.843-4.13zM136.052 128.901c-2.865 0-5.144 1.07-6.836 3.2-1.68 2.14-2.52 5.05-2.52 8.73 0 3.67.84 6.58 2.52 8.71 1.692 2.14 3.97 3.21 6.836 3.21 2.864 0 5.13-1.07 6.797-3.21 1.679-2.13 2.519-5.04 2.519-8.71 0-3.68-.84-6.59-2.52-8.73-1.666-2.13-3.932-3.2-6.796-3.2zm0-3.21c4.088 0 7.356 1.38 9.804 4.13 2.448 2.73 3.672 6.4 3.672 11.01 0 4.6-1.224 8.27-3.672 11.02-2.448 2.73-5.716 4.1-9.804 4.1-4.102 0-7.383-1.37-9.844-4.1-2.448-2.74-3.672-6.41-3.672-11.02 0-4.61 1.224-8.28 3.672-11.01 2.46-2.75 5.742-4.13 9.844-4.13zM151.657 126.221h24.668v3.32h-10.351v25.84h-3.965v-25.84h-10.352v-3.32zM206.716 141.711c.846.29 1.666.9 2.46 1.84.808.93 1.615 2.22 2.423 3.86l4.003 7.97h-4.238l-3.73-7.48c-.964-1.95-1.901-3.25-2.813-3.88-.898-.64-2.13-.96-3.691-.96h-4.297v12.32h-3.945v-29.16h8.906c3.333 0 5.82.7 7.46 2.09 1.64 1.4 2.462 3.5 2.462 6.31 0 1.84-.43 3.36-1.29 4.57-.846 1.21-2.083 2.05-3.71 2.52zm-9.883-12.25v10.36h4.96c1.902 0 3.334-.44 4.298-1.31.976-.89 1.465-2.18 1.465-3.89s-.49-2.99-1.465-3.85c-.964-.87-2.396-1.31-4.297-1.31h-4.961z"/><path d="M228.806 130.111l-5.352 14.51h10.723l-5.371-14.51zm-2.227-3.89h4.473l11.113 29.16h-4.102l-2.656-7.48h-13.144l-2.657 7.48h-4.16l11.133-29.16zM246.403 126.221h5.313l12.929 24.4v-24.4h3.829v29.16h-5.313l-12.93-24.39v24.39h-3.828v-29.16zM296.208 151.221v-7.83h-6.445v-3.24h10.35v12.52a17.448 17.448 0 01-5.038 2.46c-1.836.54-3.795.82-5.88.82-4.556 0-8.124-1.33-10.702-3.99-2.565-2.66-3.848-6.38-3.848-11.13 0-4.76 1.283-8.48 3.848-11.13 2.578-2.67 6.146-4.01 10.703-4.01 1.9 0 3.705.24 5.41.71a17.52 17.52 0 014.746 2.07v4.2c-1.458-1.24-3.007-2.17-4.648-2.8a14.52 14.52 0 00-5.176-.93c-3.567 0-6.25.99-8.047 2.98-1.783 2-2.675 4.97-2.675 8.91 0 3.93.892 6.9 2.675 8.89 1.797 1.99 4.48 2.99 8.047 2.99 1.393 0 2.637-.12 3.73-.36 1.094-.24 2.078-.62 2.95-1.13zM307.34 126.221h18.438v3.32h-14.492v8.63h13.887v3.33h-13.887v10.56h14.844v3.32h-18.79v-29.16z"/></g></g></svg>