<?xml version="1.0" encoding="UTF-8" standalone="no"?>
<svg
   xmlns:dc="http://purl.org/dc/elements/1.1/"
   xmlns:cc="http://creativecommons.org/ns#"
   xmlns:rdf="http://www.w3.org/1999/02/22-rdf-syntax-ns#"
   xmlns:svg="http://www.w3.org/2000/svg"
   xmlns="http://www.w3.org/2000/svg"
   id="svg8"
   version="1.1"
   viewBox="0 0 105.83333 52.916668"
   height="200"
   width="400">
  <defs
     id="defs2" />
  <metadata
     id="metadata5">
    <rdf:RDF>
      <cc:Work
         rdf:about="">
        <dc:format>image/svg+xml</dc:format>
        <dc:type
           rdf:resource="http://purl.org/dc/dcmitype/StillImage" />
        <dc:title></dc:title>
      </cc:Work>
    </rdf:RDF>
  </metadata>
  <g
     transform="translate(0,-244.08331)"
     id="layer1">
    <g
       id="flowRoot815"
       style="font-style:normal;font-weight:normal;font-size:40px;line-height:1.25;font-family:sans-serif;letter-spacing:0px;word-spacing:0px;fill:#000000;fill-opacity:1;stroke:none"
       transform="matrix(0.26458333,0,0,0.26458333,0,244.08331)"
       aria-label="1200+">
      <path
         id="path872"
         style="font-style:normal;font-variant:normal;font-weight:normal;font-stretch:normal;font-size:96px;font-family:'Open Sans';-inkscape-font-specification:'Open Sans'"
         d="m 37.800781,90.418131 h -7.59375 v -48.84375 q 0,-6.09375 0.375,-11.53125 -0.984375,0.984375 -2.203125,2.0625 -1.21875,1.078125 -11.15625,9.140625 l -4.125,-5.34375 18.140625,-14.015625 h 6.5625 z" />
      <path
         id="path874"
         style="font-style:normal;font-variant:normal;font-weight:normal;font-stretch:normal;font-size:96px;font-family:'Open Sans';-inkscape-font-specification:'Open Sans'"
         d="M 108.95703,90.418131 H 63.910156 V 83.715006 L 81.957031,65.574381 q 8.25,-8.34375 10.875,-11.90625 2.625,-3.5625 3.9375,-6.9375 1.3125,-3.375 1.3125,-7.265625 0,-5.484375 -3.328125,-8.671875 -3.328125,-3.234375 -9.234375,-3.234375 -4.265625,0 -8.109375,1.40625 -3.796875,1.40625 -8.484375,5.109375 l -4.125,-5.296875 q 9.46875,-7.875 20.625,-7.875 9.65625,0 15.140629,4.96875 5.48437,4.921875 5.48437,13.265625 0,6.515625 -3.65625,12.890625 -3.656249,6.375 -13.687499,16.125 l -15,14.671875 v 0.375 h 35.249999 z" />
      <path
         id="path876"
         style="font-style:normal;font-variant:normal;font-weight:normal;font-stretch:normal;font-size:96px;font-family:'Open Sans';-inkscape-font-specification:'Open Sans'"
         d="m 164.26953,56.058756 q 0,17.765625 -5.625,26.53125 -5.57812,8.765625 -17.10937,8.765625 -11.0625,0 -16.82813,-8.953125 -5.76562,-9 -5.76562,-26.34375 0,-17.90625 5.57812,-26.578125 5.57813,-8.671875 17.01563,-8.671875 11.15625,0 16.92187,9.046875 5.8125,9.046875 5.8125,26.203125 z m -37.45312,0 q 0,14.953125 3.51562,21.796875 3.51563,6.796875 11.20313,6.796875 7.78125,0 11.25,-6.890625 3.51562,-6.9375 3.51562,-21.703125 0,-14.765625 -3.51562,-21.609375 -3.46875,-6.890625 -11.25,-6.890625 -7.6875,0 -11.20313,6.796875 -3.51562,6.75 -3.51562,21.703125 z" />
      <path
         id="path878"
         style="font-style:normal;font-variant:normal;font-weight:normal;font-stretch:normal;font-size:96px;font-family:'Open Sans';-inkscape-font-specification:'Open Sans'"
         d="m 219.20703,56.058756 q 0,17.765625 -5.625,26.53125 -5.57812,8.765625 -17.10937,8.765625 -11.0625,0 -16.82813,-8.953125 -5.76562,-9 -5.76562,-26.34375 0,-17.90625 5.57812,-26.578125 5.57813,-8.671875 17.01563,-8.671875 11.15625,0 16.92187,9.046875 5.8125,9.046875 5.8125,26.203125 z m -37.45312,0 q 0,14.953125 3.51562,21.796875 3.51563,6.796875 11.20313,6.796875 7.78125,0 11.25,-6.890625 3.51562,-6.9375 3.51562,-21.703125 0,-14.765625 -3.51562,-21.609375 -3.46875,-6.890625 -11.25,-6.890625 -7.6875,0 -11.20313,6.796875 -3.51562,6.75 -3.51562,21.703125 z" />
      <path
         id="path880"
         style="font-style:normal;font-variant:normal;font-weight:normal;font-stretch:normal;font-size:96px;font-family:'Open Sans';-inkscape-font-specification:'Open Sans'"
         d="m 254.64453,53.340006 h 19.3125 v 6.46875 h -19.3125 v 19.96875 h -6.51562 v -19.96875 h -19.21875 v -6.46875 h 19.21875 v -20.0625 h 6.51562 z" />
    </g>
    <flowRoot
       style="font-style:normal;font-weight:normal;font-size:48.0000006px;line-height:1.25;font-family:sans-serif;letter-spacing:0px;word-spacing:0px;fill:#000000;fill-opacity:1;stroke:none;"
       id="flowRoot815-7"
       xml:space="preserve"
       transform="matrix(0.26458333,0,0,0.26458333,0.01166492,266.66454)"><flowRegion
         style="font-size:48.0000006px;"
         id="flowRegion817-4"><rect
           style="font-size:48.0000006px;"
           y="5.3571424"
           x="4.2857141"
           height="120.71428"
           width="392.5"
           id="rect819-3" /></flowRegion><flowPara
         style="font-style:normal;font-variant:normal;font-weight:normal;font-stretch:normal;font-size:48.0000006px;font-family:'Open Sans';-inkscape-font-specification:'Open Sans';"
         id="flowPara821-1" /></flowRoot>    <g
       id="text851"
       style="font-style:normal;font-weight:normal;font-size:10.58333302px;line-height:1.25;font-family:sans-serif;letter-spacing:0px;word-spacing:0px;fill:#000000;fill-opacity:1;stroke:none;stroke-width:0.26458332"
       aria-label="FOOT RANGE">
      <path
         id="path883"
         style="stroke-width:0.26458332"
         d="m 3.4955411,271.33082 h 4.4338377 v 0.8785 H 4.539405 v 2.27376 h 3.0592447 v 0.8785 H 4.539405 v 3.68453 H 3.4955411 Z" />
      <path
         id="path885"
         style="stroke-width:0.26458332"
         d="m 12.724952,272.03879 q -1.136882,0 -1.808675,0.84749 -0.666626,0.84749 -0.666626,2.30994 0,1.45727 0.666626,2.30477 0.671793,0.84749 1.808675,0.84749 1.136881,0 1.798339,-0.84749 0.666626,-0.8475 0.666626,-2.30477 0,-1.46245 -0.666626,-2.30994 -0.661458,-0.84749 -1.798339,-0.84749 z m 0,-0.8475 q 1.62264,0 2.594156,1.09038 0.971517,1.0852 0.971517,2.91455 0,1.82418 -0.971517,2.91455 -0.971516,1.0852 -2.594156,1.0852 -1.627808,0 -2.604492,-1.0852 -0.9715174,-1.08521 -0.9715174,-2.91455 0,-1.82935 0.9715174,-2.91455 0.976684,-1.09038 2.604492,-1.09038 z" />
      <path
         id="path887"
         style="stroke-width:0.26458332"
         d="m 21.055191,272.03879 q -1.136881,0 -1.808675,0.84749 -0.666626,0.84749 -0.666626,2.30994 0,1.45727 0.666626,2.30477 0.671794,0.84749 1.808675,0.84749 1.136882,0 1.79834,-0.84749 0.666626,-0.8475 0.666626,-2.30477 0,-1.46245 -0.666626,-2.30994 -0.661458,-0.84749 -1.79834,-0.84749 z m 0,-0.8475 q 1.62264,0 2.594157,1.09038 0.971517,1.0852 0.971517,2.91455 0,1.82418 -0.971517,2.91455 -0.971517,1.0852 -2.594157,1.0852 -1.627807,0 -2.604492,-1.0852 -0.971517,-1.08521 -0.971517,-2.91455 0,-1.82935 0.971517,-2.91455 0.976685,-1.09038 2.604492,-1.09038 z" />
      <path
         id="path889"
         style="stroke-width:0.26458332"
         d="m 25.184138,271.33082 h 6.526733 v 0.8785 H 28.97202 v 6.83679 h -1.049031 v -6.83679 h -2.738851 z" />
      <path
         id="path891"
         style="stroke-width:0.26458332"
         d="m 39.751725,275.42876 q 0.335896,0.11369 0.651123,0.48576 0.320393,0.37207 0.640787,1.02319 l 1.059367,2.1084 h -1.121378 l -0.98702,-1.97921 q -0.382406,-0.77514 -0.744141,-1.02836 -0.356567,-0.25321 -0.976684,-0.25321 h -1.136882 v 3.26078 h -1.043864 v -7.71529 h 2.356446 q 1.322916,0 1.974039,0.55294 0.651123,0.55294 0.651123,1.66915 0,0.72864 -0.341064,1.20923 -0.335897,0.48059 -0.981852,0.66662 z m -2.614828,-3.24011 v 2.73885 h 1.312582 q 0.754475,0 1.136881,-0.34623 0.387573,-0.3514 0.387573,-1.02836 0,-0.67696 -0.387573,-1.01803 -0.382406,-0.34623 -1.136881,-0.34623 z" />
      <path
         id="path893"
         style="stroke-width:0.26458332"
         d="m 45.596328,272.35918 -1.415934,3.83956 h 2.837036 z m -0.589111,-1.02836 h 1.18339 l 2.940389,7.71529 h -1.085205 l -0.7028,-1.97921 h -3.477824 l -0.702799,1.97921 H 42.06166 Z" />
      <path
         id="path895"
         style="stroke-width:0.26458332"
         d="m 50.252373,271.33082 h 1.405599 l 3.42098,6.45439 v -6.45439 h 1.012858 v 7.71529 h -1.405599 l -3.42098,-6.45438 v 6.45438 h -1.012858 z" />
      <path
         id="path897"
         style="stroke-width:0.26458332"
         d="m 63.429866,277.9454 v -2.07222 h -1.705322 v -0.85783 h 2.73885 v 3.31246 q -0.604614,0.42891 -1.333251,0.65112 -0.728638,0.21704 -1.555461,0.21704 -1.808675,0 -2.831868,-1.0542 -1.018026,-1.05936 -1.018026,-2.94555 0,-1.89136 1.018026,-2.94556 1.023193,-1.05937 2.831868,-1.05937 0.754476,0 1.431437,0.18604 0.682129,0.18603 1.255737,0.54777 v 1.11104 q -0.578776,-0.49092 -1.229899,-0.73897 -0.651123,-0.24805 -1.369425,-0.24805 -1.415934,0 -2.129069,0.79065 -0.707967,0.79065 -0.707967,2.35645 0,1.56063 0.707967,2.35128 0.713135,0.79064 2.129069,0.79064 0.552938,0 0.98702,-0.093 0.434082,-0.0982 0.780314,-0.29973 z" />
      <path
         id="path899"
         style="stroke-width:0.26458332"
         d="m 66.37542,271.33082 h 4.878255 v 0.8785 h -3.834391 v 2.2841 h 3.674194 v 0.8785 h -3.674194 v 2.79569 h 3.927409 v 0.8785 H 66.37542 Z" />
    </g>
  </g>
</svg>
