<?xml version="1.0" encoding="UTF-8" standalone="no"?>
<!DOCTYPE svg PUBLIC "-//W3C//DTD SVG 1.1//EN" "http://www.w3.org/Graphics/SVG/1.1/DTD/svg11.dtd">
<svg width="100%" height="100%" viewBox="0 0 400 200" version="1.1" xmlns="http://www.w3.org/2000/svg" xmlns:xlink="http://www.w3.org/1999/xlink" xml:space="preserve" xmlns:serif="http://www.serif.com/" style="fill-rule:evenodd;clip-rule:evenodd;stroke-linejoin:round;stroke-miterlimit:2;">
    <g id="layer1" transform="matrix(1,0,0,1,0,-922.52)">
        <g id="flowRoot815" transform="matrix(0.264583,0,0,0.264583,17.4629,954.68)">
            <path id="path921" d="M142.869,341.738L114.168,341.738L114.168,157.132C114.168,141.777 114.641,127.25 115.586,113.549C113.105,116.029 110.33,118.628 107.259,121.344C104.188,124.061 90.133,135.576 65.094,155.891L49.503,135.695L118.066,82.722L142.869,82.722L142.869,341.738Z" style="fill-rule:nonzero;"/>
            <path id="path923" d="M411.806,341.738L241.55,341.738L241.55,316.403L309.759,247.84C330.546,226.817 344.247,211.817 350.861,202.84C357.475,193.864 362.436,185.124 365.743,176.62C369.05,168.116 370.704,158.962 370.704,149.159C370.704,135.34 366.511,124.415 358.125,116.383C349.739,108.234 338.105,104.159 323.223,104.159C312.475,104.159 302.259,105.931 292.574,109.474C283.007,113.017 272.318,119.454 260.507,128.785L244.916,108.765C268.775,88.923 294.759,79.002 322.869,79.002C347.2,79.002 366.275,85.261 380.094,97.781C393.912,110.183 400.822,126.895 400.822,147.919C400.822,164.336 396.216,180.576 387.003,196.639C377.79,212.702 360.546,233.017 335.271,257.584L278.578,313.037L278.578,314.454L411.806,314.454L411.806,341.738Z" style="fill-rule:nonzero;"/>
            <path id="path925" d="M547.16,201.6L620.153,201.6L620.153,226.049L547.16,226.049L547.16,301.521L522.534,301.521L522.534,226.049L449.897,226.049L449.897,201.6L522.534,201.6L522.534,125.773L547.16,125.773L547.16,201.6Z" style="fill-rule:nonzero;"/>
        </g>
        <g id="text851" transform="matrix(1,0,0,1,-1.5371,23.4199)">
            <g>
                <g id="path928" transform="matrix(1,0,0,1,186.792,-80.9827)">
                    <path d="M13.208,1025.5L17.446,1025.5L25.532,1037.49L33.559,1025.5L37.797,1025.5L27.485,1040.78L27.485,1054.66L23.52,1054.66L23.52,1040.78L13.208,1025.5Z" style="fill-rule:nonzero;"/>
                </g>
                <g id="path930" transform="matrix(1,0,0,1,186.792,-80.9827)">
                    <path d="M41.665,1025.5L60.102,1025.5L60.102,1028.82L45.61,1028.82L45.61,1037.45L59.497,1037.45L59.497,1040.78L45.61,1040.78L45.61,1051.34L60.454,1051.34L60.454,1054.66L41.665,1054.66L41.665,1025.5Z" style="fill-rule:nonzero;"/>
                </g>
                <g id="path932" transform="matrix(1,0,0,1,186.792,-80.9827)">
                    <path d="M76.723,1029.39L71.372,1043.9L82.094,1043.9L76.723,1029.39ZM74.497,1025.5L78.969,1025.5L90.083,1054.66L85.981,1054.66L83.325,1047.18L70.18,1047.18L67.524,1054.66L63.364,1054.66L74.497,1025.5Z" style="fill-rule:nonzero;"/>
                </g>
                <g id="path934" transform="matrix(1,0,0,1,186.792,-80.9827)">
                    <path d="M108.149,1040.99C108.995,1041.28 109.816,1041.89 110.61,1042.83C111.417,1043.76 112.225,1045.05 113.032,1046.69L117.036,1054.66L112.797,1054.66L109.067,1047.18C108.103,1045.23 107.166,1043.93 106.254,1043.3C105.356,1042.66 104.126,1042.34 102.563,1042.34L98.266,1042.34L98.266,1054.66L94.321,1054.66L94.321,1025.5L103.227,1025.5C106.56,1025.5 109.047,1026.2 110.688,1027.59C112.329,1028.99 113.149,1031.09 113.149,1033.9C113.149,1035.74 112.719,1037.26 111.86,1038.47C111.014,1039.68 109.777,1040.52 108.149,1040.99ZM98.266,1028.74L98.266,1039.1L103.227,1039.1C105.128,1039.1 106.56,1038.66 107.524,1037.79C108.501,1036.9 108.989,1035.61 108.989,1033.9C108.989,1032.19 108.501,1030.91 107.524,1030.05C106.56,1029.18 105.128,1028.74 103.227,1028.74L98.266,1028.74Z" style="fill-rule:nonzero;"/>
                </g>
            </g>
            <g transform="matrix(1,0,0,1,0,6.01729)">
                <g id="path936" transform="matrix(1,0,0,1,65.1322,-47)">
                    <path d="M138.813,1040.74L138.813,1051.42L145.141,1051.42C147.264,1051.42 148.833,1050.98 149.848,1050.11C150.877,1049.23 151.391,1047.88 151.391,1046.07C151.391,1044.25 150.877,1042.9 149.848,1042.05C148.833,1041.17 147.264,1040.74 145.141,1040.74L138.813,1040.74ZM138.813,1028.74L138.813,1037.53L144.653,1037.53C146.58,1037.53 148.012,1037.17 148.95,1036.46C149.9,1035.73 150.376,1034.62 150.376,1033.14C150.376,1031.67 149.9,1030.57 148.95,1029.84C148.012,1029.11 146.58,1028.74 144.653,1028.74L138.813,1028.74ZM134.868,1025.5L144.946,1025.5C147.954,1025.5 150.271,1026.13 151.899,1027.38C153.527,1028.63 154.34,1030.4 154.34,1032.71C154.34,1034.49 153.924,1035.91 153.09,1036.97C152.257,1038.02 151.033,1038.68 149.419,1038.94C151.359,1039.36 152.863,1040.23 153.93,1041.56C155.011,1042.87 155.551,1044.52 155.551,1046.5C155.551,1049.1 154.666,1051.11 152.895,1052.53C151.124,1053.95 148.605,1054.66 145.337,1054.66L134.868,1054.66L134.868,1025.5Z" style="fill-rule:nonzero;"/>
                </g>
                <g id="path938" transform="matrix(1,0,0,1,65.1322,-47)">
                    <path d="M172.036,1029.39L166.684,1043.9L177.407,1043.9L172.036,1029.39ZM169.809,1025.5L174.282,1025.5L185.395,1054.66L181.294,1054.66L178.637,1047.18L165.493,1047.18L162.836,1054.66L158.676,1054.66L169.809,1025.5Z" style="fill-rule:nonzero;"/>
                </g>
                <g id="path940" transform="matrix(1,0,0,1,65.1322,-47)">
                    <path d="M182.465,1025.5L207.133,1025.5L207.133,1028.82L196.782,1028.82L196.782,1054.66L192.817,1054.66L192.817,1028.82L182.465,1028.82L182.465,1025.5Z" style="fill-rule:nonzero;"/>
                </g>
                <g id="path942" transform="matrix(1,0,0,1,65.1322,-47)">
                    <path d="M206.215,1025.5L230.883,1025.5L230.883,1028.82L220.532,1028.82L220.532,1054.66L216.567,1054.66L216.567,1028.82L206.215,1028.82L206.215,1025.5Z" style="fill-rule:nonzero;"/>
                </g>
                <g id="path944" transform="matrix(1,0,0,1,65.1322,-47)">
                    <path d="M234.711,1025.5L253.149,1025.5L253.149,1028.82L238.657,1028.82L238.657,1037.45L252.544,1037.45L252.544,1040.78L238.657,1040.78L238.657,1051.34L253.501,1051.34L253.501,1054.66L234.711,1054.66L234.711,1025.5Z" style="fill-rule:nonzero;"/>
                </g>
                <g id="path946" transform="matrix(1,0,0,1,65.1322,-47)">
                    <path d="M273.852,1040.99C274.698,1041.28 275.519,1041.89 276.313,1042.83C277.12,1043.76 277.928,1045.05 278.735,1046.69L282.739,1054.66L278.501,1054.66L274.77,1047.18C273.807,1045.23 272.869,1043.93 271.958,1043.3C271.059,1042.66 269.829,1042.34 268.266,1042.34L263.969,1042.34L263.969,1054.66L260.024,1054.66L260.024,1025.5L268.93,1025.5C272.264,1025.5 274.751,1026.2 276.391,1027.59C278.032,1028.99 278.852,1031.09 278.852,1033.9C278.852,1035.74 278.422,1037.26 277.563,1038.47C276.717,1039.68 275.48,1040.52 273.852,1040.99ZM263.969,1028.74L263.969,1039.1L268.93,1039.1C270.831,1039.1 272.264,1038.66 273.227,1037.79C274.204,1036.9 274.692,1035.61 274.692,1033.9C274.692,1032.19 274.204,1030.91 273.227,1030.05C272.264,1029.18 270.831,1028.74 268.93,1028.74L263.969,1028.74Z" style="fill-rule:nonzero;"/>
                </g>
                <g id="path948" transform="matrix(1,0,0,1,65.1322,-47)">
                    <path d="M281.254,1025.5L285.493,1025.5L293.579,1037.49L301.606,1025.5L305.844,1025.5L295.532,1040.78L295.532,1054.66L291.567,1054.66L291.567,1040.78L281.254,1025.5Z" style="fill-rule:nonzero;"/>
                </g>
            </g>
            <g transform="matrix(1,0,0,1,0,12.0173)">
                <g id="path950" transform="matrix(1,0,0,1,-122.446,-13)">
                    <path d="M322.446,1025.5L326.391,1025.5L326.391,1051.34L340.59,1051.34L340.59,1054.66L322.446,1054.66L322.446,1025.5Z" style="fill-rule:nonzero;"/>
                </g>
                <g id="path952" transform="matrix(1,0,0,1,-122.446,-13)">
                    <rect x="344.711" y="1025.5" width="3.945" height="29.16" style="fill-rule:nonzero;"/>
                </g>
                <g id="path954" transform="matrix(1,0,0,1,-122.446,-13)">
                    <path d="M356.508,1025.5L373.266,1025.5L373.266,1028.82L360.454,1028.82L360.454,1037.42L372.016,1037.42L372.016,1040.74L360.454,1040.74L360.454,1054.66L356.508,1054.66L356.508,1025.5Z" style="fill-rule:nonzero;"/>
                </g>
                <g id="path956" transform="matrix(1,0,0,1,-122.446,-13)">
                    <path d="M379.555,1025.5L397.993,1025.5L397.993,1028.82L383.501,1028.82L383.501,1037.45L397.387,1037.45L397.387,1040.78L383.501,1040.78L383.501,1051.34L398.344,1051.34L398.344,1054.66L379.555,1054.66L379.555,1025.5Z" style="fill-rule:nonzero;"/>
                </g>
            </g>
        </g>
    </g>
</svg>
