<svg viewBox="0 0 400 200" xmlns="http://www.w3.org/2000/svg" fill-rule="evenodd" clip-rule="evenodd" stroke-linejoin="round" stroke-miterlimit="2"><g fill-rule="nonzero"><path d="M55.264 122.578H47.67V73.734c0-4.062.125-7.906.375-11.53a49.626 49.626 0 01-2.203 2.062c-.813.718-4.531 3.765-11.156 9.14l-4.125-5.343L48.7 54.047h6.563v68.531zM126.42 122.578H81.373v-6.703l18.047-18.14c5.5-5.563 9.125-9.532 10.875-11.907s3.062-4.687 3.937-6.937 1.313-4.672 1.313-7.266c0-3.656-1.11-6.547-3.328-8.672-2.22-2.156-5.297-3.234-9.235-3.234-2.844 0-5.547.469-8.109 1.406-2.531.937-5.36 2.64-8.484 5.11l-4.125-5.298c6.312-5.25 13.187-7.874 20.625-7.874 6.437 0 11.484 1.656 15.14 4.968 3.656 3.282 5.485 7.703 5.485 13.266 0 4.344-1.22 8.64-3.657 12.89-2.437 4.25-7 9.625-13.687 16.125l-15 14.672v.375h35.25v7.22zM162.232 85.5h19.313v6.469h-19.313v19.968h-6.515V91.97h-19.219v-6.47h19.219V65.438h6.515V85.5z"/></g><path d="M198.463 45.417h4.238l8.086 11.99 8.027-11.99h4.238l-10.312 15.28v13.88h-3.965v-13.88l-10.312-15.28zM226.92 45.417h18.437v3.32h-14.492v8.63h13.887v3.33h-13.887v10.56h14.844v3.32h-18.79v-29.16zM261.978 49.307l-5.351 14.51h10.722l-5.371-14.51zm-2.226-3.89h4.472l11.114 29.16h-4.102l-2.656-7.48h-13.145l-2.656 7.48h-4.16l11.133-29.16zM293.404 60.907c.846.29 1.667.9 2.46 1.84.808.93 1.616 2.22 2.423 3.86l4.004 7.97h-4.24l-3.73-7.48c-.963-1.95-1.9-3.25-2.812-3.88-.898-.64-2.128-.96-3.691-.96h-4.297v12.32h-3.945v-29.16h8.906c3.333 0 5.82.7 7.46 2.09 1.642 1.4 2.462 3.5 2.462 6.31 0 1.84-.43 3.36-1.29 4.57-.845 1.21-2.082 2.05-3.71 2.52zm-9.883-12.25v10.36h4.96c1.902 0 3.334-.44 4.298-1.31.977-.89 1.465-2.18 1.465-3.89s-.488-2.99-1.465-3.85c-.964-.87-2.396-1.31-4.297-1.31h-4.961z" fill-rule="nonzero"/><g><path d="M202.408 100.657v10.68h6.328c2.123 0 3.692-.44 4.707-1.31 1.03-.88 1.543-2.23 1.543-4.04 0-1.82-.514-3.17-1.543-4.02-1.015-.88-2.584-1.31-4.707-1.31h-6.328zm0-12v8.79h5.84c1.927 0 3.36-.36 4.297-1.07.95-.73 1.426-1.84 1.426-3.32 0-1.47-.476-2.57-1.426-3.3-.938-.73-2.37-1.1-4.297-1.1h-5.84zm-3.945-3.24h10.078c3.008 0 5.325.63 6.953 1.88 1.628 1.25 2.441 3.02 2.441 5.33 0 1.78-.416 3.2-1.25 4.26-.833 1.05-2.057 1.71-3.67 1.97 1.94.42 3.443 1.29 4.51 2.62 1.081 1.31 1.621 2.96 1.621 4.94 0 2.6-.885 4.61-2.656 6.03-1.77 1.42-4.29 2.13-7.558 2.13h-10.469v-29.16zM235.631 89.307l-5.352 14.51h10.723l-5.37-14.51zm-2.227-3.89h4.473l11.113 29.16h-4.1l-2.658-7.48h-13.144l-2.657 7.48h-4.16l11.133-29.16zM246.06 85.417h24.668v3.32h-10.35v25.84h-3.966v-25.84H246.06v-3.32z" fill-rule="nonzero"/><path d="M269.81 85.417h24.668v3.32h-10.35v25.84h-3.966v-25.84H269.81v-3.32zM298.306 85.417h18.438v3.32h-14.492v8.63h13.887v3.33h-13.887v10.56h14.844v3.32h-18.79v-29.16zM337.447 100.907c.846.29 1.667.9 2.461 1.84.807.93 1.615 2.22 2.422 3.86l4.004 7.97h-4.238l-3.73-7.48c-.964-1.95-1.902-3.25-2.813-3.88-.899-.64-2.129-.96-3.692-.96h-4.297v12.32h-3.945v-29.16h8.906c3.334 0 5.821.7 7.461 2.09 1.641 1.4 2.461 3.5 2.461 6.31 0 1.84-.43 3.36-1.289 4.57-.846 1.21-2.083 2.05-3.71 2.52zm-9.883-12.25v10.36h4.961c1.901 0 3.334-.44 4.297-1.31.977-.89 1.465-2.18 1.465-3.89s-.488-2.99-1.465-3.85c-.963-.87-2.396-1.31-4.297-1.31h-4.96zM344.85 85.417h4.238l8.086 11.99 8.027-11.99h4.238l-10.312 15.28v13.88h-3.965v-13.88l-10.313-15.28z" fill-rule="nonzero"/></g><g><path d="M198.463 125.417h3.945v25.84h14.199v3.32h-18.144v-29.16zM220.728 125.417h3.945v29.16h-3.945zM232.525 125.417h16.758v3.32H236.47v8.6h11.562v3.32H236.47v13.92h-3.946v-29.16zM255.572 125.417h18.438v3.32h-14.492v8.63h13.886v3.33h-13.886v10.56h14.843v3.32h-18.79v-29.16z" fill-rule="nonzero"/></g></svg>