<?xml version="1.0" encoding="UTF-8" standalone="no"?>
<svg
   xmlns:dc="http://purl.org/dc/elements/1.1/"
   xmlns:cc="http://creativecommons.org/ns#"
   xmlns:rdf="http://www.w3.org/1999/02/22-rdf-syntax-ns#"
   xmlns:svg="http://www.w3.org/2000/svg"
   xmlns="http://www.w3.org/2000/svg"
   id="svg8"
   version="1.1"
   viewBox="0 0 105.83333 52.916668"
   height="200"
   width="400">
  <defs
     id="defs2" />
  <metadata
     id="metadata5">
    <rdf:RDF>
      <cc:Work
         rdf:about="">
        <dc:format>image/svg+xml</dc:format>
        <dc:type
           rdf:resource="http://purl.org/dc/dcmitype/StillImage" />
        <dc:title></dc:title>
      </cc:Work>
    </rdf:RDF>
  </metadata>
  <g
     transform="translate(0,-244.08331)"
     id="layer1">
    <g
       id="flowRoot815"
       style="font-style:normal;font-weight:normal;font-size:40px;line-height:1.25;font-family:sans-serif;letter-spacing:0px;word-spacing:0px;fill:#000000;fill-opacity:1;stroke:none"
       transform="matrix(0.26458333,0,0,0.26458333,0,244.08331)"
       aria-label="12+ ">
      <path
         id="path921"
         style="font-style:normal;font-variant:normal;font-weight:normal;font-stretch:normal;font-size:96px;font-family:'Open Sans';-inkscape-font-specification:'Open Sans'"
         d="m 37.800781,90.418131 h -7.59375 v -48.84375 q 0,-6.09375 0.375,-11.53125 -0.984375,0.984375 -2.203125,2.0625 -1.21875,1.078125 -11.15625,9.140625 l -4.125,-5.34375 18.140625,-14.015625 h 6.5625 z" />
      <path
         id="path923"
         style="font-style:normal;font-variant:normal;font-weight:normal;font-stretch:normal;font-size:96px;font-family:'Open Sans';-inkscape-font-specification:'Open Sans'"
         d="M 108.95703,90.418131 H 63.910156 V 83.715006 L 81.957031,65.574381 q 8.25,-8.34375 10.875,-11.90625 2.625,-3.5625 3.9375,-6.9375 1.3125,-3.375 1.3125,-7.265625 0,-5.484375 -3.328125,-8.671875 -3.328125,-3.234375 -9.234375,-3.234375 -4.265625,0 -8.109375,1.40625 -3.796875,1.40625 -8.484375,5.109375 l -4.125,-5.296875 q 9.46875,-7.875 20.625,-7.875 9.65625,0 15.140629,4.96875 5.48437,4.921875 5.48437,13.265625 0,6.515625 -3.65625,12.890625 -3.656249,6.375 -13.687499,16.125 l -15,14.671875 v 0.375 h 35.249999 z" />
      <path
         id="path925"
         style="font-style:normal;font-variant:normal;font-weight:normal;font-stretch:normal;font-size:96px;font-family:'Open Sans';-inkscape-font-specification:'Open Sans'"
         d="m 144.76953,53.340006 h 19.3125 v 6.46875 h -19.3125 v 19.96875 h -6.51562 v -19.96875 h -19.21875 v -6.46875 h 19.21875 v -20.0625 h 6.51562 z" />
    </g>
    <flowRoot
       style="font-style:normal;font-weight:normal;font-size:48.0000006px;line-height:1.25;font-family:sans-serif;letter-spacing:0px;word-spacing:0px;fill:#000000;fill-opacity:1;stroke:none;"
       id="flowRoot815-7"
       xml:space="preserve"
       transform="matrix(0.26458333,0,0,0.26458333,0.01166492,266.66454)"><flowRegion
         style="font-size:48.0000006px;"
         id="flowRegion817-4"><rect
           style="font-size:48.0000006px;"
           y="5.3571424"
           x="4.2857141"
           height="120.71428"
           width="392.5"
           id="rect819-3" /></flowRegion><flowPara
         style="font-style:normal;font-variant:normal;font-weight:normal;font-stretch:normal;font-size:48.0000006px;font-family:'Open Sans';-inkscape-font-specification:'Open Sans';"
         id="flowPara821-1" /></flowRoot>    <g
       id="text851"
       style="font-style:normal;font-weight:normal;font-size:10.58333302px;line-height:1.25;font-family:sans-serif;letter-spacing:0px;word-spacing:0px;fill:#000000;fill-opacity:1;stroke:none;stroke-width:0.26458332"
       aria-label="YEAR BATTERY LIFE">
      <path
         id="path928"
         style="stroke-width:0.26458332"
         d="m 3.4945076,271.33082 h 1.1213786 l 2.1394042,3.17293 2.1239013,-3.17293 H 10.00057 l -2.7285153,4.0411 v 3.67419 H 6.2230232 v -3.67419 z" />
      <path
         id="path930"
         style="stroke-width:0.26458332"
         d="m 11.023764,271.33082 h 4.878255 v 0.8785 h -3.834391 v 2.2841 h 3.674194 v 0.8785 h -3.674194 v 2.79569 h 3.927408 v 0.8785 h -4.971272 z" />
      <path
         id="path932"
         style="stroke-width:0.26458332"
         d="m 20.299683,272.35918 -1.415935,3.83956 h 2.837037 z m -0.589112,-1.02836 h 1.183391 l 2.940389,7.71529 h -1.085206 l -0.702799,-1.97921 h -3.477824 l -0.702799,1.97921 h -1.100708 z" />
      <path
         id="path934"
         style="stroke-width:0.26458332"
         d="m 28.614421,275.42876 q 0.335897,0.11369 0.651123,0.48576 0.320394,0.37207 0.640788,1.02319 l 1.059367,2.1084 H 29.84432 L 28.8573,277.0669 q -0.382405,-0.77514 -0.74414,-1.02836 -0.356568,-0.25321 -0.976685,-0.25321 h -1.136881 v 3.26078 H 24.95573 v -7.71529 h 2.356445 q 1.322917,0 1.97404,0.55294 0.651123,0.55294 0.651123,1.66915 0,0.72864 -0.341065,1.20923 -0.335896,0.48059 -0.981852,0.66662 z m -2.614827,-3.24011 v 2.73885 h 1.312581 q 0.754476,0 1.136882,-0.34623 0.387573,-0.3514 0.387573,-1.02836 0,-0.67696 -0.387573,-1.01803 -0.382406,-0.34623 -1.136882,-0.34623 z" />
      <path
         id="path936"
         style="stroke-width:0.26458332"
         d="m 36.727621,275.36158 v 2.8267 h 1.674317 q 0.842325,0 1.245402,-0.34623 0.408243,-0.3514 0.408243,-1.0697 0,-0.72347 -0.408243,-1.06454 -0.403077,-0.34623 -1.245402,-0.34623 z m 0,-3.17293 v 2.32544 h 1.545125 q 0.764812,0 1.136882,-0.28422 0.377238,-0.28939 0.377238,-0.8785 0,-0.58394 -0.377238,-0.87333 -0.37207,-0.28939 -1.136882,-0.28939 z m -1.043864,-0.85783 h 2.666504 q 1.193726,0 1.839681,0.49609 0.645955,0.4961 0.645955,1.41077 0,0.70797 -0.330729,1.12655 -0.330729,0.41858 -0.971517,0.52193 0.769979,0.16536 1.193726,0.69246 0.428914,0.52194 0.428914,1.30742 0,1.03353 -0.702799,1.5968 -0.7028,0.56327 -1.999878,0.56327 h -2.769857 z" />
      <path
         id="path938"
         style="stroke-width:0.26458332"
         d="m 45.517782,272.35918 -1.415934,3.83956 h 2.837036 z m -0.589111,-1.02836 h 1.18339 l 2.940389,7.71529 h -1.085205 l -0.702799,-1.97921 h -3.477824 l -0.7028,1.97921 h -1.100708 z" />
      <path
         id="path940"
         style="stroke-width:0.26458332"
         d="m 48.277301,271.33082 h 6.526734 v 0.8785 h -2.738851 v 6.83679 h -1.049032 v -6.83679 h -2.738851 z" />
      <path
         id="path942"
         style="stroke-width:0.26458332"
         d="m 54.561157,271.33082 h 6.526733 v 0.8785 h -2.738851 v 6.83679 h -1.049031 v -6.83679 h -2.738851 z" />
      <path
         id="path944"
         style="stroke-width:0.26458332"
         d="m 62.100749,271.33082 h 4.878256 v 0.8785 h -3.834392 v 2.2841 h 3.674195 v 0.8785 h -3.674195 v 2.79569 h 3.927409 v 0.8785 h -4.971273 z" />
      <path
         id="path946"
         style="stroke-width:0.26458332"
         d="m 72.456706,275.42876 q 0.335897,0.11369 0.651123,0.48576 0.320394,0.37207 0.640788,1.02319 l 1.059367,2.1084 h -1.121379 l -0.987019,-1.97921 q -0.382406,-0.77514 -0.744141,-1.02836 -0.356567,-0.25321 -0.976685,-0.25321 h -1.136881 v 3.26078 h -1.043864 v -7.71529 h 2.356445 q 1.322917,0 1.97404,0.55294 0.651123,0.55294 0.651123,1.66915 0,0.72864 -0.341064,1.20923 -0.335897,0.48059 -0.981853,0.66662 z m -2.614827,-3.24011 v 2.73885 h 1.312581 q 0.754476,0 1.136882,-0.34623 0.387573,-0.3514 0.387573,-1.02836 0,-0.67696 -0.387573,-1.01803 -0.382406,-0.34623 -1.136882,-0.34623 z" />
      <path
         id="path948"
         style="stroke-width:0.26458332"
         d="m 74.415238,271.33082 h 1.121379 l 2.139404,3.17293 2.123901,-3.17293 h 1.121379 l -2.728516,4.0411 v 3.67419 h -1.049031 v -3.67419 z" />
      <path
         id="path950"
         style="stroke-width:0.26458332"
         d="m 85.3138,271.33082 h 1.043864 v 6.83679 h 3.756877 v 0.8785 H 85.3138 Z" />
      <path
         id="path952"
         style="stroke-width:0.26458332"
         d="m 91.204914,271.33082 h 1.043863 v 7.71529 h -1.043863 z" />
      <path
         id="path954"
         style="stroke-width:0.26458332"
         d="m 94.326168,271.33082 h 4.433837 v 0.8785 h -3.389974 v 2.27376 h 3.059245 v 0.8785 h -3.059245 v 3.68453 h -1.043863 z" />
      <path
         id="path956"
         style="stroke-width:0.26458332"
         d="m 100.42399,271.33082 h 4.87826 v 0.8785 h -3.83439 v 2.2841 h 3.67419 v 0.8785 h -3.67419 v 2.79569 h 3.9274 v 0.8785 h -4.97127 z" />
    </g>
  </g>
</svg>
