<?xml version="1.0" encoding="UTF-8" standalone="no"?>
<!DOCTYPE svg PUBLIC "-//W3C//DTD SVG 1.1//EN" "http://www.w3.org/Graphics/SVG/1.1/DTD/svg11.dtd">
<svg width="100%" height="100%" viewBox="0 0 800 600" version="1.1" xmlns="http://www.w3.org/2000/svg" xmlns:xlink="http://www.w3.org/1999/xlink" xml:space="preserve" xmlns:serif="http://www.serif.com/" style="fill-rule:evenodd;clip-rule:evenodd;stroke-linejoin:round;stroke-miterlimit:2;">
    <path d="M556.602,138.293C516.077,99.032 460.841,74.848 400,74.848C275.735,74.848 174.848,175.735 174.848,300C174.848,424.265 275.735,525.152 400,525.152C524.265,525.152 625.152,424.265 625.152,300C625.152,296.26 625.061,292.54 624.88,288.848L647.59,287.653C647.791,291.733 647.893,295.854 647.893,300C647.893,436.816 536.816,547.893 400,547.893C263.184,547.893 152.107,436.816 152.107,300C152.107,163.184 263.184,52.107 400,52.107C467.109,52.107 528.025,78.831 572.681,122.214L599.145,95.75L599.145,164.75L530.145,164.75L556.602,138.293Z"/>
    <g transform="matrix(1,0,0,1,12.3249,1.66163)">
        <g transform="matrix(159.26,0,0,159.26,222,356)">
            <path d="M0.518,0L0.049,0L0.049,-0.07L0.237,-0.259C0.294,-0.317 0.332,-0.358 0.35,-0.383C0.368,-0.408 0.382,-0.432 0.391,-0.455C0.4,-0.479 0.405,-0.504 0.405,-0.531C0.405,-0.569 0.393,-0.599 0.37,-0.621C0.347,-0.644 0.315,-0.655 0.274,-0.655C0.244,-0.655 0.216,-0.65 0.19,-0.64C0.163,-0.63 0.134,-0.613 0.101,-0.587L0.058,-0.642C0.124,-0.697 0.195,-0.724 0.273,-0.724C0.34,-0.724 0.393,-0.707 0.431,-0.673C0.469,-0.638 0.488,-0.592 0.488,-0.534C0.488,-0.489 0.475,-0.444 0.45,-0.4C0.424,-0.356 0.377,-0.3 0.307,-0.232L0.151,-0.079L0.151,-0.075L0.518,-0.075L0.518,0Z" style="fill-rule:nonzero;"/>
        </g>
        <g transform="matrix(159.26,0,0,159.26,313.061,356)">
            <path d="M0.552,-0.164L0.446,-0.164L0.446,0L0.368,0L0.368,-0.164L0.021,-0.164L0.021,-0.235L0.36,-0.718L0.446,-0.718L0.446,-0.238L0.552,-0.238L0.552,-0.164ZM0.368,-0.238L0.368,-0.475C0.368,-0.522 0.37,-0.574 0.373,-0.633L0.369,-0.633C0.354,-0.602 0.339,-0.576 0.325,-0.555L0.102,-0.238L0.368,-0.238Z" style="fill-rule:nonzero;"/>
        </g>
        <g transform="matrix(159.26,0,0,159.26,404.122,356)">
            <path d="M0.357,-0.714L0.091,0L0.01,0L0.276,-0.714L0.357,-0.714Z" style="fill-rule:nonzero;"/>
        </g>
        <g transform="matrix(159.26,0,0,159.26,462.6,356)">
            <path d="M0.139,0L0.435,-0.639L0.046,-0.639L0.046,-0.714L0.521,-0.714L0.521,-0.649L0.229,0L0.139,0Z" style="fill-rule:nonzero;"/>
        </g>
    </g>
</svg>
