<?xml version="1.0" encoding="UTF-8" standalone="no"?>
<!DOCTYPE svg PUBLIC "-//W3C//DTD SVG 1.1//EN" "http://www.w3.org/Graphics/SVG/1.1/DTD/svg11.dtd">
<svg width="100%" height="100%" viewBox="0 0 800 600" version="1.1" xmlns="http://www.w3.org/2000/svg" xmlns:xlink="http://www.w3.org/1999/xlink" xml:space="preserve" xmlns:serif="http://www.serif.com/" style="fill-rule:evenodd;clip-rule:evenodd;stroke-linejoin:round;stroke-miterlimit:2;">
    <path d="M541.465,155.288C504.964,119.599 455.032,97.589 400,97.589C288.286,97.589 197.589,188.286 197.589,300C197.589,411.714 288.286,502.411 400,502.411C511.714,502.411 602.411,411.714 602.411,300C602.411,295.699 602.277,291.429 602.011,287.185L647.567,287.185C647.784,291.433 647.893,295.704 647.893,300C647.893,436.816 536.816,547.893 400,547.893C263.184,547.893 152.107,436.816 152.107,300C152.107,163.184 263.184,52.107 400,52.107C467.589,52.107 528.896,79.215 573.64,123.151L597.309,99.51L597.309,180.239L516.485,180.239L541.465,155.288Z"/>
    <g transform="matrix(173.124,0,0,173.124,221.484,358.518)">
        <path d="M0.518,0L0.049,0L0.049,-0.07L0.237,-0.259C0.294,-0.317 0.332,-0.358 0.35,-0.383C0.368,-0.408 0.382,-0.432 0.391,-0.455C0.4,-0.479 0.405,-0.504 0.405,-0.531C0.405,-0.569 0.393,-0.599 0.37,-0.621C0.347,-0.644 0.315,-0.655 0.274,-0.655C0.244,-0.655 0.216,-0.65 0.19,-0.64C0.163,-0.63 0.134,-0.613 0.101,-0.587L0.058,-0.642C0.124,-0.697 0.195,-0.724 0.273,-0.724C0.34,-0.724 0.393,-0.707 0.431,-0.673C0.469,-0.638 0.488,-0.592 0.488,-0.534C0.488,-0.489 0.475,-0.444 0.45,-0.4C0.424,-0.356 0.377,-0.3 0.307,-0.232L0.151,-0.079L0.151,-0.075L0.518,-0.075L0.518,0Z" style="fill-rule:nonzero;"/>
    </g>
    <g transform="matrix(173.124,0,0,173.124,320.473,358.518)">
        <path d="M0.552,-0.164L0.446,-0.164L0.446,0L0.368,0L0.368,-0.164L0.021,-0.164L0.021,-0.235L0.36,-0.718L0.446,-0.718L0.446,-0.238L0.552,-0.238L0.552,-0.164ZM0.368,-0.238L0.368,-0.475C0.368,-0.522 0.37,-0.574 0.373,-0.633L0.369,-0.633C0.354,-0.602 0.339,-0.576 0.325,-0.555L0.102,-0.238L0.368,-0.238Z" style="fill-rule:nonzero;"/>
    </g>
    <g transform="matrix(173.124,0,0,173.124,419.462,358.518)">
        <path d="M0.357,-0.714L0.091,0L0.01,0L0.276,-0.714L0.357,-0.714Z" style="fill-rule:nonzero;"/>
    </g>
    <g transform="matrix(173.124,0,0,173.124,483.031,358.518)">
        <path d="M0.139,0L0.435,-0.639L0.046,-0.639L0.046,-0.714L0.521,-0.714L0.521,-0.649L0.229,0L0.139,0Z" style="fill-rule:nonzero;"/>
    </g>
</svg>
