<?xml version="1.0" encoding="UTF-8" standalone="no"?>
<svg
   xmlns:dc="http://purl.org/dc/elements/1.1/"
   xmlns:cc="http://creativecommons.org/ns#"
   xmlns:rdf="http://www.w3.org/1999/02/22-rdf-syntax-ns#"
   xmlns:svg="http://www.w3.org/2000/svg"
   xmlns="http://www.w3.org/2000/svg"
   id="svg8"
   version="1.1"
   viewBox="0 0 105.83333 52.916668"
   height="200"
   width="400">
  <defs
     id="defs2" />
  <metadata
     id="metadata5">
    <rdf:RDF>
      <cc:Work
         rdf:about="">
        <dc:format>image/svg+xml</dc:format>
        <dc:type
           rdf:resource="http://purl.org/dc/dcmitype/StillImage" />
        <dc:title></dc:title>
      </cc:Work>
    </rdf:RDF>
  </metadata>
  <g
     transform="translate(0,-244.08331)"
     id="layer1">
    <g
       id="flowRoot815"
       style="font-style:normal;font-weight:normal;font-size:40px;line-height:1.25;font-family:sans-serif;letter-spacing:0px;word-spacing:0px;fill:#000000;fill-opacity:1;stroke:none"
       transform="matrix(0.26458333,0,0,0.26458333,1.0394345,244.08331)"
       aria-label="80+ ">
      <path
         id="path997"
         style="font-style:normal;font-variant:normal;font-weight:normal;font-stretch:normal;font-size:96px;font-family:'Open Sans';-inkscape-font-specification:'Open Sans'"
         d="m 31.660156,20.902506 q 9.375,0 14.859375,4.359375 5.484375,4.359375 5.484375,12.046875 0,5.0625 -3.140625,9.234375 -3.140625,4.171875 -10.03125,7.59375 8.34375,3.984375 11.859375,8.390625 3.515625,4.359375 3.515625,10.125 0,8.53125 -5.953125,13.640625 -5.953125,5.0625 -16.3125,5.0625 -10.96875,0 -16.875,-4.78125 -5.9062497,-4.828125 -5.9062497,-13.640625 0,-11.765625 14.3437497,-18.328125 -6.46875,-3.65625 -9.28125,-7.875 -2.8125,-4.265625 -2.8125,-9.515625 0,-7.453125 5.484375,-11.859375 5.53125,-4.453125 14.765625,-4.453125 z m -14.8125,52.21875 q 0,5.625 3.890625,8.765625 3.9375,3.140625 11.015625,3.140625 6.984375,0 10.875,-3.28125 3.890625,-3.28125 3.890625,-9 0,-4.546875 -3.65625,-8.0625 -3.65625,-3.5625 -12.75,-6.890625 -6.984375,3 -10.125,6.65625 -3.140625,3.609375 -3.140625,8.671875 z m 14.71875,-45.890625 q -5.859375,0 -9.1875,2.8125 -3.328125,2.8125 -3.328125,7.5 0,4.3125 2.765625,7.40625 2.765625,3.09375 10.21875,6.1875 6.703125,-2.8125 9.46875,-6.046875 2.8125,-3.234375 2.8125,-7.546875 0,-4.734375 -3.421875,-7.5 -3.375,-2.8125 -9.328125,-2.8125 z" />
      <path
         id="path999"
         style="font-style:normal;font-variant:normal;font-weight:normal;font-stretch:normal;font-size:96px;font-family:'Open Sans';-inkscape-font-specification:'Open Sans'"
         d="m 109.33203,56.058756 q 0,17.765625 -5.625,26.53125 -5.578124,8.765625 -17.109374,8.765625 -11.0625,0 -16.828125,-8.953125 -5.765625,-9 -5.765625,-26.34375 0,-17.90625 5.578125,-26.578125 5.578125,-8.671875 17.015625,-8.671875 11.15625,0 16.921874,9.046875 5.8125,9.046875 5.8125,26.203125 z m -37.453124,0 q 0,14.953125 3.515625,21.796875 3.515625,6.796875 11.203125,6.796875 7.78125,0 11.25,-6.890625 3.515624,-6.9375 3.515624,-21.703125 0,-14.765625 -3.515624,-21.609375 -3.46875,-6.890625 -11.25,-6.890625 -7.6875,0 -11.203125,6.796875 -3.515625,6.75 -3.515625,21.703125 z" />
      <path
         id="path1001"
         style="font-style:normal;font-variant:normal;font-weight:normal;font-stretch:normal;font-size:96px;font-family:'Open Sans';-inkscape-font-specification:'Open Sans'"
         d="m 144.76953,53.340006 h 19.3125 v 6.46875 h -19.3125 v 19.96875 h -6.51562 v -19.96875 h -19.21875 v -6.46875 h 19.21875 v -20.0625 h 6.51562 z" />
    </g>
    <flowRoot
       style="font-style:normal;font-weight:normal;font-size:48.0000006px;line-height:1.25;font-family:sans-serif;letter-spacing:0px;word-spacing:0px;fill:#000000;fill-opacity:1;stroke:none;"
       id="flowRoot815-7"
       xml:space="preserve"
       transform="matrix(0.26458333,0,0,0.26458333,0.01166492,266.66454)"><flowRegion
         style="font-size:48.0000006px;"
         id="flowRegion817-4"><rect
           style="font-size:48.0000006px;"
           y="5.3571424"
           x="4.2857141"
           height="120.71428"
           width="392.5"
           id="rect819-3" /></flowRegion><flowPara
         style="font-style:normal;font-variant:normal;font-weight:normal;font-stretch:normal;font-size:48.0000006px;font-family:'Open Sans';-inkscape-font-specification:'Open Sans';"
         id="flowPara821-1" /></flowRoot>    <g
       id="text851"
       style="font-style:normal;font-weight:normal;font-size:10.58333302px;line-height:1.25;font-family:sans-serif;letter-spacing:0px;word-spacing:0px;fill:#000000;fill-opacity:1;stroke:none;stroke-width:0.26458332"
       aria-label="SENSOR TYPES">
      <path
         id="path1004"
         style="stroke-width:0.26458332"
         d="m 8.4229622,271.58404 v 1.01802 q -0.594279,-0.28422 -1.1213786,-0.42375 -0.5270996,-0.13952 -1.0180257,-0.13952 -0.8526611,0 -1.3177489,0.33073 -0.4599203,0.33073 -0.4599203,0.94051 0,0.51159 0.304891,0.77514 0.3100586,0.25839 1.1678873,0.41858 l 0.6304525,0.12919 q 1.1678873,0.22221 1.7208251,0.78549 0.5581055,0.5581 0.5581055,1.49861 0,1.12138 -0.7544759,1.70016 -0.7493083,0.57877 -2.201416,0.57877 -0.5477701,0 -1.1678873,-0.12402 -0.6149495,-0.12402 -1.2764079,-0.3669 v -1.07487 q 0.6356201,0.35657 1.245402,0.53743 0.6097819,0.18087 1.1988932,0.18087 0.8940023,0 1.3797607,-0.3514 0.4857585,-0.3514 0.4857585,-1.00252 0,-0.56844 -0.3513998,-0.88884 -0.346232,-0.32039 -1.1420491,-0.48059 l -0.6356201,-0.12402 q -1.1678873,-0.23255 -1.6898193,-0.72864 -0.5219319,-0.49609 -0.5219319,-1.37976 0,-1.02319 0.7183024,-1.6123 0.72347,-0.58912 1.9895426,-0.58912 0.5426025,0 1.1058756,0.0982 0.5632731,0.0982 1.1523844,0.29456 z" />
      <path
         id="path1006"
         style="stroke-width:0.26458332"
         d="m 10.515858,271.33082 h 4.878255 v 0.8785 h -3.834391 v 2.2841 h 3.674194 v 0.8785 h -3.674194 v 2.79569 h 3.927408 v 0.8785 h -4.971272 z" />
      <path
         id="path1008"
         style="stroke-width:0.26458332"
         d="m 17.213123,271.33082 h 1.405599 l 3.420979,6.45439 v -6.45439 h 1.012858 v 7.71529 h -1.405598 l -3.42098,-6.45438 v 6.45438 h -1.012858 z" />
      <path
         id="path1010"
         style="stroke-width:0.26458332"
         d="m 29.754993,271.58404 v 1.01802 q -0.594279,-0.28422 -1.121378,-0.42375 -0.5271,-0.13952 -1.018026,-0.13952 -0.852661,0 -1.317749,0.33073 -0.45992,0.33073 -0.45992,0.94051 0,0.51159 0.304891,0.77514 0.310059,0.25839 1.167887,0.41858 l 0.630453,0.12919 q 1.167887,0.22221 1.720825,0.78549 0.558105,0.5581 0.558105,1.49861 0,1.12138 -0.754476,1.70016 -0.749308,0.57877 -2.201416,0.57877 -0.54777,0 -1.167887,-0.12402 -0.614949,-0.12402 -1.276408,-0.3669 v -1.07487 q 0.63562,0.35657 1.245402,0.53743 0.609782,0.18087 1.198893,0.18087 0.894003,0 1.379761,-0.3514 0.485759,-0.3514 0.485759,-1.00252 0,-0.56844 -0.3514,-0.88884 -0.346232,-0.32039 -1.142049,-0.48059 l -0.63562,-0.12402 q -1.167888,-0.23255 -1.68982,-0.72864 -0.521932,-0.49609 -0.521932,-1.37976 0,-1.02319 0.718303,-1.6123 0.72347,-0.58912 1.989542,-0.58912 0.542603,0 1.105876,0.0982 0.563273,0.0982 1.152384,0.29456 z" />
      <path
         id="path1012"
         style="stroke-width:0.26458332"
         d="m 34.97948,272.03879 q -1.136881,0 -1.808675,0.84749 -0.666626,0.84749 -0.666626,2.30994 0,1.45727 0.666626,2.30477 0.671794,0.84749 1.808675,0.84749 1.136882,0 1.79834,-0.84749 0.666626,-0.8475 0.666626,-2.30477 0,-1.46245 -0.666626,-2.30994 -0.661458,-0.84749 -1.79834,-0.84749 z m 0,-0.8475 q 1.62264,0 2.594157,1.09038 0.971517,1.0852 0.971517,2.91455 0,1.82418 -0.971517,2.91455 -0.971517,1.0852 -2.594157,1.0852 -1.627807,0 -2.604492,-1.0852 -0.971517,-1.08521 -0.971517,-2.91455 0,-1.82935 0.971517,-2.91455 0.976685,-1.09038 2.604492,-1.09038 z" />
      <path
         id="path1014"
         style="stroke-width:0.26458332"
         d="m 43.83682,275.42876 q 0.335897,0.11369 0.651123,0.48576 0.320394,0.37207 0.640788,1.02319 l 1.059367,2.1084 h -1.121379 l -0.98702,-1.97921 q -0.382405,-0.77514 -0.74414,-1.02836 -0.356568,-0.25321 -0.976685,-0.25321 h -1.136881 v 3.26078 h -1.043864 v -7.71529 h 2.356445 q 1.322917,0 1.97404,0.55294 0.651123,0.55294 0.651123,1.66915 0,0.72864 -0.341065,1.20923 -0.335897,0.48059 -0.981852,0.66662 z m -2.614827,-3.24011 v 2.73885 h 1.312581 q 0.754476,0 1.136881,-0.34623 0.387574,-0.3514 0.387574,-1.02836 0,-0.67696 -0.387574,-1.01803 -0.382405,-0.34623 -1.136881,-0.34623 z" />
      <path
         id="path1016"
         style="stroke-width:0.26458332"
         d="m 49.836454,271.33082 h 6.526733 v 0.8785 h -2.738851 v 6.83679 h -1.049031 v -6.83679 h -2.738851 z" />
      <path
         id="path1018"
         style="stroke-width:0.26458332"
         d="m 56.31668,271.33082 h 1.121378 l 2.139405,3.17293 2.123901,-3.17293 h 1.121378 l -2.728515,4.0411 v 3.67419 h -1.049032 v -3.67419 z" />
      <path
         id="path1020"
         style="stroke-width:0.26458332"
         d="m 64.889797,272.18865 v 2.89905 h 1.312582 q 0.728637,0 1.126546,-0.37724 0.397908,-0.37724 0.397908,-1.07487 0,-0.69246 -0.397908,-1.0697 -0.397909,-0.37724 -1.126546,-0.37724 z m -1.043864,-0.85783 h 2.356446 q 1.297078,0 1.958536,0.58911 0.666626,0.58395 0.666626,1.71566 0,1.14205 -0.666626,1.72599 -0.661458,0.58395 -1.958536,0.58395 h -1.312582 v 3.10058 h -1.043864 z" />
      <path
         id="path1022"
         style="stroke-width:0.26458332"
         d="m 70.23314,271.33082 h 4.878255 v 0.8785 h -3.834391 v 2.2841 h 3.674195 v 0.8785 h -3.674195 v 2.79569 h 3.927409 v 0.8785 H 70.23314 Z" />
      <path
         id="path1024"
         style="stroke-width:0.26458332"
         d="m 81.555447,271.58404 v 1.01802 q -0.594279,-0.28422 -1.121379,-0.42375 -0.5271,-0.13952 -1.018026,-0.13952 -0.852661,0 -1.317749,0.33073 -0.45992,0.33073 -0.45992,0.94051 0,0.51159 0.304891,0.77514 0.310059,0.25839 1.167887,0.41858 l 0.630453,0.12919 q 1.167887,0.22221 1.720825,0.78549 0.558105,0.5581 0.558105,1.49861 0,1.12138 -0.754475,1.70016 -0.749309,0.57877 -2.201416,0.57877 -0.547771,0 -1.167888,-0.12402 -0.614949,-0.12402 -1.276408,-0.3669 v -1.07487 q 0.635621,0.35657 1.245402,0.53743 0.609782,0.18087 1.198894,0.18087 0.894002,0 1.37976,-0.3514 0.485759,-0.3514 0.485759,-1.00252 0,-0.56844 -0.3514,-0.88884 -0.346232,-0.32039 -1.142049,-0.48059 l -0.63562,-0.12402 q -1.167887,-0.23255 -1.689819,-0.72864 -0.521932,-0.49609 -0.521932,-1.37976 0,-1.02319 0.718302,-1.6123 0.72347,-0.58912 1.989543,-0.58912 0.542602,0 1.105875,0.0982 0.563273,0.0982 1.152385,0.29456 z" />
    </g>
  </g>
</svg>
