<?xml version="1.0" encoding="UTF-8" standalone="no"?>
<!DOCTYPE svg PUBLIC "-//W3C//DTD SVG 1.1//EN" "http://www.w3.org/Graphics/SVG/1.1/DTD/svg11.dtd">
<svg width="100%" height="100%" viewBox="0 0 400 200" version="1.1" xmlns="http://www.w3.org/2000/svg" xmlns:xlink="http://www.w3.org/1999/xlink" xml:space="preserve" xmlns:serif="http://www.serif.com/" style="fill-rule:evenodd;clip-rule:evenodd;stroke-linejoin:round;stroke-miterlimit:2;">
    <g id="layer1" transform="matrix(1,0,0,1,0,-922.52)">
        <g id="text851" transform="matrix(1,0,0,1,6.03027,19.5996)">
            <g transform="matrix(1,0,0,1,186.935,-57.0354)">
                <path id="path1004" d="M31.835,1026.46L31.835,1030.31C30.337,1029.59 28.925,1029.06 27.597,1028.7C26.268,1028.35 24.986,1028.18 23.749,1028.18C21.6,1028.18 19.94,1028.6 18.768,1029.43C17.61,1030.26 17.03,1031.45 17.03,1032.98C17.03,1034.27 17.414,1035.25 18.182,1035.91C18.964,1036.56 20.435,1037.09 22.597,1037.49L24.979,1037.98C27.922,1038.54 30.09,1039.53 31.483,1040.95C32.89,1042.36 33.593,1044.25 33.593,1046.62C33.593,1049.44 32.642,1051.58 30.741,1053.04C28.853,1054.5 26.08,1055.23 22.421,1055.23C21.041,1055.23 19.569,1055.07 18.007,1054.76C16.457,1054.45 14.849,1053.99 13.182,1053.37L13.182,1049.31C14.784,1050.21 16.353,1050.89 17.89,1051.34C19.426,1051.8 20.936,1052.03 22.421,1052.03C24.673,1052.03 26.412,1051.58 27.636,1050.7C28.86,1049.81 29.472,1048.55 29.472,1046.91C29.472,1045.48 29.029,1044.36 28.143,1043.55C27.271,1042.74 25.832,1042.14 23.827,1041.73L21.425,1041.26C18.482,1040.68 16.353,1039.76 15.038,1038.51C13.723,1037.26 13.065,1035.52 13.065,1033.3C13.065,1030.72 13.97,1028.69 15.78,1027.2C17.603,1025.72 20.11,1024.97 23.3,1024.97C24.667,1024.97 26.06,1025.1 27.479,1025.35C28.899,1025.59 30.35,1025.96 31.835,1026.46L31.835,1026.46Z" style="fill-rule:nonzero;"/>
                <path id="path1006" d="M39.745,1025.5L58.182,1025.5L58.182,1028.82L43.69,1028.82L43.69,1037.45L57.577,1037.45L57.577,1040.78L43.69,1040.78L43.69,1051.34L58.534,1051.34L58.534,1054.66L39.745,1054.66L39.745,1025.5Z" style="fill-rule:nonzero;"/>
                <path id="path1008" d="M65.057,1025.5L70.37,1025.5L83.3,1049.9L83.3,1025.5L87.128,1025.5L87.128,1054.66L81.815,1054.66L68.886,1030.27L68.886,1054.66L65.057,1054.66L65.057,1025.5Z" style="fill-rule:nonzero;"/>
                <path id="path1010" d="M112.46,1026.46L112.46,1030.31C110.962,1029.59 109.55,1029.06 108.222,1028.7C106.893,1028.35 105.611,1028.18 104.374,1028.18C102.225,1028.18 100.565,1028.6 99.393,1029.43C98.235,1030.26 97.655,1031.45 97.655,1032.98C97.655,1034.27 98.039,1035.25 98.807,1035.91C99.589,1036.56 101.06,1037.09 103.222,1037.49L105.604,1037.98C108.547,1038.54 110.715,1039.53 112.108,1040.95C113.515,1042.36 114.218,1044.25 114.218,1046.62C114.218,1049.44 113.267,1051.58 111.366,1053.04C109.478,1054.5 106.705,1055.23 103.046,1055.23C101.666,1055.23 100.194,1055.07 98.632,1054.76C97.082,1054.45 95.474,1053.99 93.807,1053.37L93.807,1049.31C95.409,1050.21 96.978,1050.89 98.515,1051.34C100.051,1051.8 101.561,1052.03 103.046,1052.03C105.298,1052.03 107.037,1051.58 108.261,1050.7C109.485,1049.81 110.097,1048.55 110.097,1046.91C110.097,1045.48 109.654,1044.36 108.768,1043.55C107.896,1042.74 106.457,1042.14 104.452,1041.73L102.05,1041.26C99.107,1040.68 96.978,1039.76 95.663,1038.51C94.348,1037.26 93.69,1035.52 93.69,1033.3C93.69,1030.72 94.595,1028.69 96.405,1027.2C98.228,1025.72 100.735,1024.97 103.925,1024.97C105.292,1024.97 106.685,1025.1 108.104,1025.35C109.524,1025.59 110.975,1025.96 112.46,1026.46L112.46,1026.46Z" style="fill-rule:nonzero;"/>
                <path id="path1012" d="M132.206,1028.18C129.341,1028.18 127.063,1029.25 125.37,1031.38C123.69,1033.52 122.85,1036.43 122.85,1040.11C122.85,1043.78 123.69,1046.69 125.37,1048.82C127.063,1050.96 129.341,1052.03 132.206,1052.03C135.071,1052.03 137.336,1050.96 139.003,1048.82C140.682,1046.69 141.522,1043.78 141.522,1040.11C141.522,1036.43 140.682,1033.52 139.003,1031.38C137.336,1029.25 135.071,1028.18 132.206,1028.18ZM132.206,1024.97C136.294,1024.97 139.563,1026.35 142.011,1029.1C144.459,1031.83 145.682,1035.5 145.682,1040.11C145.682,1044.71 144.459,1048.38 142.011,1051.13C139.563,1053.86 136.294,1055.23 132.206,1055.23C128.104,1055.23 124.823,1053.86 122.362,1051.13C119.914,1048.39 118.69,1044.72 118.69,1040.11C118.69,1035.5 119.914,1031.83 122.362,1029.1C124.823,1026.35 128.104,1024.97 132.206,1024.97Z" style="fill-rule:nonzero;"/>
                <path id="path1014" d="M165.682,1040.99C166.529,1041.28 167.349,1041.89 168.143,1042.83C168.951,1043.76 169.758,1045.05 170.565,1046.69L174.569,1054.66L170.331,1054.66L166.6,1047.18C165.637,1045.23 164.699,1043.93 163.788,1043.3C162.89,1042.66 161.659,1042.34 160.097,1042.34L155.8,1042.34L155.8,1054.66L151.854,1054.66L151.854,1025.5L160.761,1025.5C164.094,1025.5 166.581,1026.2 168.222,1027.59C169.862,1028.99 170.682,1031.09 170.682,1033.9C170.682,1035.74 170.253,1037.26 169.393,1038.47C168.547,1039.68 167.31,1040.52 165.682,1040.99ZM155.8,1028.74L155.8,1039.1L160.761,1039.1C162.662,1039.1 164.094,1038.66 165.057,1037.79C166.034,1036.9 166.522,1035.61 166.522,1033.9C166.522,1032.19 166.034,1030.91 165.057,1030.05C164.094,1029.18 162.662,1028.74 160.761,1028.74L155.8,1028.74Z" style="fill-rule:nonzero;"/>
            </g>
            <g transform="matrix(1,0,0,1,11.6417,-17.0354)">
                <path id="path1016" d="M188.358,1025.5L213.026,1025.5L213.026,1028.82L202.675,1028.82L202.675,1054.66L198.71,1054.66L198.71,1028.82L188.358,1028.82L188.358,1025.5Z" style="fill-rule:nonzero;"/>
                <path id="path1018" d="M212.85,1025.5L217.089,1025.5L225.175,1037.49L233.202,1025.5L237.44,1025.5L227.128,1040.78L227.128,1054.66L223.163,1054.66L223.163,1040.78L212.85,1025.5Z" style="fill-rule:nonzero;"/>
                <path id="path1020" d="M245.253,1028.74L245.253,1039.7L250.214,1039.7C252.05,1039.7 253.469,1039.23 254.472,1038.28C255.474,1037.33 255.975,1035.97 255.975,1034.21C255.975,1032.47 255.474,1031.12 254.472,1030.17C253.469,1029.22 252.05,1028.74 250.214,1028.74L245.253,1028.74ZM241.307,1025.5L250.214,1025.5C253.482,1025.5 255.949,1026.24 257.616,1027.73C259.296,1029.2 260.136,1031.36 260.136,1034.21C260.136,1037.09 259.296,1039.27 257.616,1040.74C255.949,1042.21 253.482,1042.94 250.214,1042.94L245.253,1042.94L245.253,1054.66L241.307,1054.66L241.307,1025.5Z" style="fill-rule:nonzero;"/>
                <path id="path1022" d="M265.448,1025.5L283.886,1025.5L283.886,1028.82L269.393,1028.82L269.393,1037.45L283.28,1037.45L283.28,1040.78L269.393,1040.78L269.393,1051.34L284.237,1051.34L284.237,1054.66L265.448,1054.66L265.448,1025.5Z" style="fill-rule:nonzero;"/>
                <path id="path1024" d="M308.241,1026.46L308.241,1030.31C306.744,1029.59 305.331,1029.06 304.003,1028.7C302.675,1028.35 301.392,1028.18 300.155,1028.18C298.007,1028.18 296.347,1028.6 295.175,1029.43C294.016,1030.26 293.436,1031.45 293.436,1032.98C293.436,1034.27 293.82,1035.25 294.589,1035.91C295.37,1036.56 296.841,1037.09 299.003,1037.49L301.386,1037.98C304.328,1038.54 306.496,1039.53 307.889,1040.95C309.296,1042.36 309.999,1044.25 309.999,1046.62C309.999,1049.44 309.048,1051.58 307.147,1053.04C305.259,1054.5 302.486,1055.23 298.827,1055.23C297.447,1055.23 295.975,1055.07 294.413,1054.76C292.863,1054.45 291.255,1053.99 289.589,1053.37L289.589,1049.31C291.19,1050.21 292.759,1050.89 294.296,1051.34C295.832,1051.8 297.343,1052.03 298.827,1052.03C301.08,1052.03 302.818,1051.58 304.042,1050.7C305.266,1049.81 305.878,1048.55 305.878,1046.91C305.878,1045.48 305.435,1044.36 304.55,1043.55C303.677,1042.74 302.238,1042.14 300.233,1041.73L297.831,1041.26C294.888,1040.68 292.759,1039.76 291.444,1038.51C290.129,1037.26 289.472,1035.52 289.472,1033.3C289.472,1030.72 290.376,1028.69 292.186,1027.2C294.009,1025.72 296.516,1024.97 299.706,1024.97C301.073,1024.97 302.466,1025.1 303.886,1025.35C305.305,1025.59 306.757,1025.96 308.241,1026.46L308.241,1026.46Z" style="fill-rule:nonzero;"/>
            </g>
        </g>
        <g id="flowRoot815" transform="matrix(0.264583,0,0,0.264583,23.3057,966.437)">
            <path id="path997" d="M119.66,79.002C143.282,79.002 162.003,84.494 175.822,95.478C189.641,106.462 196.55,121.639 196.55,141.009C196.55,153.765 192.594,165.399 184.68,175.911C176.767,186.423 164.129,195.99 146.767,204.612C167.79,214.651 182.731,225.222 191.59,236.324C200.448,247.309 204.877,260.065 204.877,274.592C204.877,296.088 197.377,313.273 182.377,326.147C167.377,338.903 146.826,345.281 120.723,345.281C93.086,345.281 71.826,339.257 56.944,327.21C42.062,315.045 34.621,297.86 34.621,275.655C34.621,246.009 52.692,222.919 88.834,206.383C72.534,197.171 60.842,187.25 53.755,176.62C46.668,165.872 43.125,153.883 43.125,140.655C43.125,121.876 50.034,106.935 63.853,95.832C77.79,84.612 96.393,79.002 119.66,79.002ZM63.676,276.364C63.676,290.537 68.578,301.58 78.381,309.494C88.302,317.407 102.18,321.364 120.015,321.364C137.613,321.364 151.314,317.23 161.117,308.962C170.92,300.695 175.822,289.356 175.822,274.946C175.822,263.49 171.216,253.332 162.003,244.474C152.79,235.498 136.727,226.817 113.814,218.431C96.216,225.99 83.46,234.376 75.546,243.588C67.633,252.683 63.676,263.608 63.676,276.364ZM119.306,102.919C104.542,102.919 92.968,106.462 84.582,113.549C76.196,120.635 72.003,130.084 72.003,141.895C72.003,152.761 75.487,162.092 82.456,169.887C89.424,177.683 102.298,185.478 121.078,193.273C137.968,186.187 149.897,178.569 156.865,170.419C163.952,162.269 167.495,152.761 167.495,141.895C167.495,129.966 163.184,120.517 154.562,113.549C146.058,106.462 134.306,102.919 119.306,102.919Z" style="fill-rule:nonzero;"/>
            <path id="path999" d="M413.223,211.876C413.223,256.639 406.137,290.065 391.964,312.151C377.908,334.238 356.353,345.281 327.298,345.281C299.424,345.281 278.223,334.002 263.696,311.443C249.168,288.765 241.905,255.576 241.905,211.876C241.905,166.757 248.932,133.273 262.987,111.423C277.042,89.572 298.479,78.647 327.298,78.647C355.408,78.647 376.727,90.045 391.255,112.84C405.901,135.635 413.223,168.647 413.223,211.876ZM271.668,211.876C271.668,249.553 276.097,277.013 284.956,294.257C293.814,311.383 307.928,319.946 327.298,319.946C346.905,319.946 361.078,311.265 369.818,293.903C378.676,276.423 383.105,249.08 383.105,211.876C383.105,174.671 378.676,147.446 369.818,130.202C361.078,112.84 346.905,104.159 327.298,104.159C307.928,104.159 293.814,112.722 284.956,129.848C276.097,146.856 271.668,174.198 271.668,211.876Z" style="fill-rule:nonzero;"/>
            <path id="path1001" d="M547.16,201.6L620.153,201.6L620.153,226.049L547.16,226.049L547.16,301.521L522.534,301.521L522.534,226.049L449.897,226.049L449.897,201.6L522.534,201.6L522.534,125.773L547.16,125.773L547.16,201.6Z" style="fill-rule:nonzero;"/>
        </g>
    </g>
</svg>
