<svg viewBox="0 0 400 200" xmlns="http://www.w3.org/2000/svg" fill-rule="evenodd" clip-rule="evenodd" stroke-linejoin="round" stroke-miterlimit="2"><g fill-rule="nonzero"><path d="M224.8 66.504v3.85c-1.498-.72-2.91-1.25-4.238-1.61a15.076 15.076 0 00-3.848-.52c-2.149 0-3.809.42-4.98 1.25-1.159.83-1.739 2.02-1.739 3.55 0 1.29.384 2.27 1.152 2.93.782.65 2.253 1.18 4.415 1.58l2.382.49c2.943.56 5.111 1.55 6.504 2.97 1.407 1.41 2.11 3.3 2.11 5.67 0 2.82-.95 4.96-2.852 6.42-1.888 1.46-4.66 2.19-8.32 2.19-1.38 0-2.852-.16-4.414-.47-1.55-.31-3.158-.77-4.825-1.39v-4.06c1.602.9 3.171 1.58 4.708 2.03 1.536.46 3.046.69 4.531.69 2.252 0 3.991-.45 5.215-1.33 1.224-.89 1.836-2.15 1.836-3.79 0-1.43-.443-2.55-1.329-3.36-.872-.81-2.31-1.41-4.316-1.82l-2.402-.47c-2.943-.58-5.072-1.5-6.387-2.75-1.315-1.25-1.973-2.99-1.973-5.21 0-2.58.905-4.61 2.715-6.1 1.823-1.48 4.33-2.23 7.52-2.23 1.367 0 2.76.13 4.18.38 1.42.24 2.87.61 4.355 1.11zm7.91-.96h18.437v3.32h-14.492v8.63h13.887v3.33h-13.887v10.56H251.5v3.32h-18.79v-29.16zm25.312 0h5.313l12.93 24.4v-24.4h3.828v29.16h-5.313l-12.929-24.39v24.39h-3.829v-29.16zm47.403.96v3.85c-1.498-.72-2.91-1.25-4.238-1.61a15.076 15.076 0 00-3.848-.52c-2.149 0-3.809.42-4.98 1.25-1.159.83-1.739 2.02-1.739 3.55 0 1.29.384 2.27 1.152 2.93.782.65 2.253 1.18 4.415 1.58l2.382.49c2.943.56 5.111 1.55 6.504 2.97 1.407 1.41 2.11 3.3 2.11 5.67 0 2.82-.95 4.96-2.852 6.42-1.888 1.46-4.66 2.19-8.32 2.19-1.38 0-2.852-.16-4.414-.47-1.55-.31-3.158-.77-4.825-1.39v-4.06c1.602.9 3.171 1.58 4.708 2.03 1.536.46 3.046.69 4.531.69 2.252 0 3.991-.45 5.215-1.33 1.224-.89 1.836-2.15 1.836-3.79 0-1.43-.443-2.55-1.329-3.36-.872-.81-2.31-1.41-4.316-1.82l-2.402-.47c-2.943-.58-5.072-1.5-6.387-2.75-1.315-1.25-1.973-2.99-1.973-5.21 0-2.58.905-4.61 2.715-6.1 1.823-1.48 4.33-2.23 7.52-2.23 1.367 0 2.76.13 4.18.38 1.42.24 2.87.61 4.355 1.11zm19.746 1.72c-2.865 0-5.143 1.07-6.836 3.2-1.68 2.14-2.52 5.05-2.52 8.73 0 3.67.84 6.58 2.52 8.71 1.693 2.14 3.971 3.21 6.836 3.21s5.13-1.07 6.797-3.21c1.68-2.13 2.52-5.04 2.52-8.71 0-3.68-.84-6.59-2.52-8.73-1.667-2.13-3.932-3.2-6.797-3.2zm0-3.21c4.088 0 7.357 1.38 9.805 4.13 2.448 2.73 3.671 6.4 3.671 11.01 0 4.6-1.223 8.27-3.67 11.02-2.449 2.73-5.718 4.1-9.806 4.1-4.102 0-7.383-1.37-9.844-4.1-2.448-2.74-3.672-6.41-3.672-11.02 0-4.61 1.224-8.28 3.672-11.01 2.461-2.75 5.742-4.13 9.844-4.13zm33.476 16.02c.847.29 1.667.9 2.461 1.84.808.93 1.615 2.22 2.422 3.86l4.004 7.97h-4.238l-3.73-7.48c-.964-1.95-1.902-3.25-2.813-3.88-.898-.64-2.129-.96-3.69-.96h-4.298v12.32h-3.946v-29.16h8.907c3.333 0 5.82.7 7.461 2.09 1.64 1.4 2.46 3.5 2.46 6.31 0 1.84-.429 3.36-1.289 4.57-.846 1.21-2.083 2.05-3.71 2.52zm-9.882-12.25v10.36h4.961c1.901 0 3.333-.44 4.296-1.31.977-.89 1.465-2.18 1.465-3.89s-.488-2.99-1.465-3.85c-.963-.87-2.395-1.31-4.296-1.31h-4.96zM206.03 105.544h24.668v3.32h-10.351v25.84h-3.965v-25.84H206.03v-3.32z"/><path d="M230.522 105.544h4.239l8.086 11.99 8.027-11.99h4.238l-10.312 15.28v13.88h-3.965v-13.88l-10.313-15.28zm32.403 3.24v10.96h4.961c1.836 0 3.255-.47 4.258-1.42 1.002-.95 1.503-2.31 1.503-4.07 0-1.74-.501-3.09-1.503-4.04-1.003-.95-2.422-1.43-4.258-1.43h-4.961zm-3.946-3.24h8.907c3.268 0 5.735.74 7.402 2.23 1.68 1.47 2.52 3.63 2.52 6.48 0 2.88-.84 5.06-2.52 6.53-1.667 1.47-4.134 2.2-7.402 2.2h-4.961v11.72h-3.946v-29.16zm24.141 0h18.438v3.32h-14.493v8.63h13.887v3.33h-13.887v10.56h14.844v3.32H283.12v-29.16zm42.793.96v3.85c-1.497-.72-2.91-1.25-4.238-1.61a15.07 15.07 0 00-3.848-.52c-2.148 0-3.808.42-4.98 1.25-1.159.83-1.739 2.02-1.739 3.55 0 1.29.384 2.27 1.153 2.93.781.65 2.252 1.18 4.414 1.58l2.383.49c2.942.56 5.11 1.55 6.503 2.97 1.407 1.41 2.11 3.3 2.11 5.67 0 2.82-.951 4.96-2.852 6.42-1.888 1.46-4.661 2.19-8.32 2.19-1.38 0-2.852-.16-4.414-.47-1.55-.31-3.158-.77-4.824-1.39v-4.06c1.601.9 3.17 1.58 4.707 2.03 1.536.46 3.047.69 4.531.69 2.253 0 3.991-.45 5.215-1.33 1.224-.89 1.836-2.15 1.836-3.79 0-1.43-.443-2.55-1.328-3.36-.873-.81-2.312-1.41-4.317-1.82l-2.402-.47c-2.943-.58-5.072-1.5-6.387-2.75-1.315-1.25-1.972-2.99-1.972-5.21 0-2.58.904-4.61 2.714-6.1 1.823-1.48 4.33-2.23 7.52-2.23 1.367 0 2.76.13 4.18.38 1.419.24 2.871.61 4.355 1.11z"/><g><path d="M54.966 64.82c6.25 0 11.203 1.453 14.86 4.359 3.655 2.906 5.483 6.922 5.483 12.047 0 3.375-1.046 6.453-3.14 9.234-2.094 2.781-5.438 5.313-10.031 7.594 5.562 2.656 9.515 5.453 11.86 8.39 2.343 2.907 3.515 6.282 3.515 10.125 0 5.688-1.985 10.235-5.953 13.641-3.97 3.375-9.407 5.062-16.313 5.062-7.312 0-12.937-1.593-16.875-4.78-3.937-3.22-5.906-7.766-5.906-13.641 0-7.844 4.781-13.953 14.344-18.329-4.313-2.437-7.407-5.062-9.282-7.874-1.875-2.844-2.812-6.016-2.812-9.516 0-4.969 1.828-8.922 5.484-11.86 3.688-2.968 8.61-4.452 14.766-4.452zm-14.813 52.218c0 3.75 1.297 6.672 3.891 8.766 2.625 2.093 6.297 3.14 11.016 3.14 4.656 0 8.28-1.093 10.875-3.28 2.593-2.188 3.89-5.188 3.89-9.001 0-3.031-1.218-5.719-3.656-8.062-2.438-2.375-6.688-4.672-12.75-6.89-4.656 2-8.031 4.218-10.125 6.655-2.094 2.407-3.14 5.297-3.14 8.672zm14.719-45.89c-3.906 0-6.969.937-9.187 2.812-2.22 1.875-3.329 4.375-3.329 7.5 0 2.875.922 5.344 2.766 7.406 1.844 2.063 5.25 4.125 10.219 6.188 4.469-1.875 7.625-3.89 9.469-6.047 1.875-2.156 2.812-4.672 2.812-7.547 0-3.156-1.14-5.656-3.422-7.5-2.25-1.875-5.36-2.812-9.328-2.812zm77.765 28.828c0 11.843-1.874 20.687-5.624 26.53-3.72 5.845-9.422 8.766-17.11 8.766-7.375 0-12.984-2.984-16.828-8.952-3.844-6-5.765-14.782-5.765-26.344 0-11.938 1.859-20.797 5.578-26.578 3.718-5.782 9.39-8.672 17.015-8.672 7.438 0 13.078 3.015 16.922 9.047 3.875 6.03 5.812 14.765 5.812 26.203zm-37.453 0c0 9.968 1.172 17.234 3.516 21.796 2.344 4.532 6.078 6.797 11.203 6.797 5.188 0 8.938-2.297 11.25-6.89 2.344-4.625 3.516-11.86 3.516-21.703 0-9.844-1.172-17.047-3.516-21.61-2.312-4.593-6.062-6.89-11.25-6.89-5.125 0-8.86 2.265-11.203 6.797-2.344 4.5-3.516 11.734-3.516 21.703zm72.891-2.719h19.313v6.469h-19.313v19.968h-6.516v-19.968h-19.218v-6.47h19.218V77.195h6.516v20.063z"/></g></g></svg>