<?xml version="1.0" encoding="UTF-8" standalone="no"?>
<!DOCTYPE svg PUBLIC "-//W3C//DTD SVG 1.1//EN" "http://www.w3.org/Graphics/SVG/1.1/DTD/svg11.dtd">
<svg width="100%" height="100%" viewBox="0 0 200 200" version="1.1" xmlns="http://www.w3.org/2000/svg" xmlns:xlink="http://www.w3.org/1999/xlink" xml:space="preserve" xmlns:serif="http://www.serif.com/" style="fill-rule:evenodd;clip-rule:evenodd;stroke-linecap:round;stroke-linejoin:round;stroke-miterlimit:1.5;">
    <g transform="matrix(11.8719,0,0,11.8719,-6192.78,-2289.79)">
        <g transform="matrix(1,0,0,1,-0.488845,-0.70623)">
            <path d="M532,208.335C532,209.164 531.327,209.838 530.497,209.838C529.668,209.838 528.994,209.164 528.994,208.335" style="fill:none;stroke:black;stroke-width:1px;"/>
        </g>
        <path d="M531.324,194.871C531.324,194.094 530.693,193.463 529.916,193.463L529.914,193.463C529.136,193.463 528.506,194.094 528.506,194.871L528.506,195.908L531.324,195.908L531.324,194.871Z" style="fill:none;stroke:black;stroke-width:1px;"/>
        <path d="M530,204.062L525.563,204.062L523.462,205.578L523.462,207.156L530.103,207.156" style="fill:none;stroke:black;stroke-width:1px;"/>
        <g transform="matrix(-1,0,0,1,1060.11,0)">
            <path d="M525.468,204.062L523.462,205.578L523.462,207.156L530.103,207.156" style="fill:none;stroke:black;stroke-width:1px;"/>
        </g>
        <g transform="matrix(1,0,0,1.05578,0,-11.4621)">
            <path d="M534.643,204.138L534.643,198.565C534.643,197.378 533.625,196.415 532.373,196.415L527.833,196.415C526.58,196.415 525.563,197.378 525.563,198.565L525.563,204.138" style="fill:none;stroke:black;stroke-width:0.97px;"/>
        </g>
    </g>
</svg>
