<?xml version="1.0" encoding="UTF-8" standalone="no"?>
<svg
   xmlns:dc="http://purl.org/dc/elements/1.1/"
   xmlns:cc="http://creativecommons.org/ns#"
   xmlns:rdf="http://www.w3.org/1999/02/22-rdf-syntax-ns#"
   xmlns:svg="http://www.w3.org/2000/svg"
   xmlns="http://www.w3.org/2000/svg"
   id="svg24"
   version="1.1"
   stroke-miterlimit="1.5"
   stroke-linejoin="round"
   stroke-linecap="round"
   fill-rule="evenodd"
   clip-rule="evenodd"
   viewBox="0 0 160000 120000"
   height="200"
   width="200">
  <metadata
     id="metadata30">
    <rdf:RDF>
      <cc:Work
         rdf:about="">
        <dc:format>image/svg+xml</dc:format>
        <dc:type
           rdf:resource="http://purl.org/dc/dcmitype/StillImage" />
        <dc:title></dc:title>
      </cc:Work>
    </rdf:RDF>
  </metadata>
  <defs
     id="defs28" />
  <path
     id="path2"
     fill="#64c7cc"
     d="M147816.342 99153.78L80000 138307.57 12183.657 99153.78V20846.214L80000-18307.569l67816.343 39153.783z" />
  <g
     style="stroke:#000000;stroke-opacity:1"
     transform="matrix(2512.1037,0,0,2512.1037,-90248.911,-584142.61)"
     id="layer1">
    <g
       transform="matrix(0.09522579,0,0,0.09522579,29.681171,227.84788)"
       id="g1490"
       style="clip-rule:evenodd;fill:none;fill-rule:evenodd;stroke:#000000;stroke-width:22.12912178;stroke-linecap:round;stroke-linejoin:round;stroke-miterlimit:4;stroke-dasharray:none;stroke-opacity:1">
      <g
         id="g1046"
         transform="matrix(26.971689,0,0,26.971689,-13896.479,-5129.3305)"
         style="clip-rule:evenodd;fill:none;fill-rule:evenodd;stroke:#000000;stroke-width:0.61808896;stroke-linecap:round;stroke-linejoin:round;stroke-miterlimit:4;stroke-dasharray:none;stroke-opacity:1">
        <path
           style="fill:#ffffff;fill-opacity:1;stroke:#000000;stroke-width:0;stroke-linecap:butt;stroke-linejoin:miter;stroke-miterlimit:4;stroke-dasharray:none;stroke-opacity:1"
           d="m 529.92405,193.37484 -1.37498,0.91666 -0.0431,1.6165 -1.55017,0.10769 -1.50594,1.70236 0.11311,6.34467 -2.101,1.51528 v 1.578 h 13.186 v -1.578 l -2.005,-1.51528 0.0171,-6.32284 -1.30951,-1.72419 -2.02661,-0.10769 -0.0468,-1.81293 z"
           id="path825" />
        <path
           style="fill:#ffffff;fill-opacity:1;stroke:#000000;stroke-width:0;stroke-linecap:butt;stroke-linejoin:miter;stroke-miterlimit:4;stroke-dasharray:none;stroke-opacity:1"
           d="m 528.41811,207.16836 0.28373,1.28768 1.28769,0.78571 1.39681,-0.69841 0.21825,-1.39681 z"
           id="path823" />
        <g
           style="fill:none;fill-opacity:1;stroke:#000000;stroke-width:0.61808896;stroke-miterlimit:4;stroke-dasharray:none;stroke-opacity:1"
           id="g1032"
           transform="translate(-0.488845,-0.70623)">
          <path
             id="path1030"
             style="fill:none;fill-opacity:1;stroke:#000000;stroke-width:0.61808896;stroke-miterlimit:4;stroke-dasharray:none;stroke-opacity:1"
             d="m 532,208.335 c 0,0.829 -0.673,1.503 -1.503,1.503 -0.829,0 -1.503,-0.674 -1.503,-1.503" />
        </g>
        <path
           id="path1034"
           style="fill:none;stroke:#000000;stroke-width:0.61808896;stroke-miterlimit:4;stroke-dasharray:none;stroke-opacity:1"
           d="m 531.324,194.871 c 0,-0.777 -0.631,-1.408 -1.408,-1.408 h -0.002 c -0.778,0 -1.408,0.631 -1.408,1.408 v 1.037 h 2.818 z" />
        <path
           id="path1036"
           style="fill:none;stroke:#000000;stroke-width:0.61808896;stroke-miterlimit:4;stroke-dasharray:none;stroke-opacity:1"
           d="m 530,204.062 h -4.437 l -2.101,1.516 v 1.578 h 6.641" />
        <g
           style="fill:none;stroke:#000000;stroke-width:0.61808896;stroke-miterlimit:4;stroke-dasharray:none;stroke-opacity:1"
           id="g1040"
           transform="matrix(-1,0,0,1,1060.11,0)">
          <path
             id="path1038"
             style="fill:none;stroke:#000000;stroke-width:0.61808896;stroke-miterlimit:4;stroke-dasharray:none;stroke-opacity:1"
             d="m 525.468,204.062 -2.006,1.516 v 1.578 h 6.641" />
        </g>
        <g
           style="fill:none;stroke:#000000;stroke-width:0.60153967;stroke-miterlimit:4;stroke-dasharray:none;stroke-opacity:1"
           id="g1044"
           transform="matrix(1,0,0,1.05578,0,-11.4621)">
          <path
             id="path1042"
             style="fill:none;stroke:#000000;stroke-width:0.60153967;stroke-miterlimit:4;stroke-dasharray:none;stroke-opacity:1"
             d="m 534.643,204.138 v -5.573 c 0,-1.187 -1.018,-2.15 -2.27,-2.15 h -4.54 c -1.253,0 -2.27,0.963 -2.27,2.15 v 5.573" />
        </g>
      </g>
    </g>
  </g>
</svg>
