<?xml version="1.0" encoding="UTF-8" standalone="no"?>
<!DOCTYPE svg PUBLIC "-//W3C//DTD SVG 1.1//EN" "http://www.w3.org/Graphics/SVG/1.1/DTD/svg11.dtd">
<svg width="100%" height="100%" viewBox="0 0 300 300" version="1.1" xmlns="http://www.w3.org/2000/svg" xmlns:xlink="http://www.w3.org/1999/xlink" xml:space="preserve" xmlns:serif="http://www.serif.com/" style="fill-rule:evenodd;clip-rule:evenodd;stroke-linecap:round;stroke-linejoin:round;stroke-miterlimit:1.5;">
    <g transform="matrix(1,0,0,1,2.84217e-14,21.6522)">
        <g transform="matrix(0.776702,0,0,0.796113,33.4948,7.75889)">
            <path d="M283.884,247.838L283.884,278.835L16.116,278.835L16.116,247.838C44.21,216.093 56.639,176.816 56.541,131.514C56.541,79.932 98.419,38.055 150,38.055C201.581,38.055 243.459,79.932 243.459,131.514C243.361,176.816 255.79,216.093 283.884,247.838" style="fill:rgb(235,235,235);fill-opacity:0;stroke:black;stroke-width:10.6px;"/>
        </g>
        <g transform="matrix(1,0,0,1,50.9898,-120.39)">
            <circle cx="99.01" cy="144.748" r="13.697" style="fill:rgb(235,235,235);fill-opacity:0;stroke:black;stroke-width:8.33px;"/>
        </g>
        <g transform="matrix(1,0,0,1,0,-49.0919)">
            <path d="M187.441,278.835C178.094,288.856 164.773,295.127 150,295.127C135.227,295.127 121.906,288.856 112.559,278.835L187.441,278.835Z" style="fill:rgb(235,235,235);fill-opacity:0;stroke:black;stroke-width:8.33px;"/>
        </g>
    </g>
</svg>
