<svg xmlns="http://www.w3.org/2000/svg" width="622.857" height="141.429" viewBox="0 0 164.798 37.42"><g transform="translate(16.912 -12.642)"><path d="M35.797 24.516a.701.701 0 00-.698.698v12.275a.7.7 0 00.698.698h17.396a.7.7 0 00.697-.698V25.214a.701.701 0 00-.697-.698zm10.242 7.789l-1.57 1.354-1.538-1.335-5.239 4.468H51.3zm-9.545-5.565v9.243l5.372-4.582zm16.001-.003l-5.388 4.647 5.388 4.596zm-14.828-.826l6.803 5.904 6.847-5.904z" clip-rule="evenodd" fill-rule="evenodd" stroke-linejoin="round" stroke-miterlimit="2"/><path d="M138.746 37.47c-5.64 1.85-14.851-8.076-12.493-12.465l3.847.006c.275 1.167.424 2.366.426 3.603l-1.172 1.28c.21 1.006 3.133 4.043 4.503 4.474l1.28-1.171c1.237.002 2.437.15 3.603.425z" fill="none" stroke="#000" stroke-width="1.3229" clip-rule="evenodd" fill-rule="evenodd" stroke-linecap="round" stroke-linejoin="round" stroke-miterlimit="1.5"/><g clip-rule="evenodd" fill-rule="evenodd" stroke-linecap="round" stroke-linejoin="round" stroke-miterlimit="1.5"><path d="M93.912 34.177c1.08 0 1.958-.877 1.958-1.958v-5.373c0-1.081-.877-1.958-1.958-1.958h-11.02c-1.081 0-1.959.877-1.959 1.958v5.373c0 1.081.878 1.958 1.958 1.958h7.191l3.639 3.639v-3.639z" fill="none" stroke="#000" stroke-width="1.3229"/><path d="M85.951 30.166c0 .264-.095.465-.296.608-.196.143-.47.217-.825.217-.376 0-.667-.058-.879-.18v-.397c.138.07.286.122.44.164.153.038.306.059.45.059.227 0 .396-.037.518-.106a.355.355 0 00.18-.328.36.36 0 00-.143-.286c-.095-.074-.28-.17-.561-.275-.265-.1-.45-.185-.561-.26a.743.743 0 01-.249-.248.648.648 0 01-.08-.334c0-.227.09-.412.281-.545.186-.132.445-.2.773-.2.307 0 .603.063.894.185l-.153.349a2.06 2.06 0 00-.773-.175c-.2 0-.354.032-.46.095a.302.302 0 00-.154.265c0 .074.021.138.059.19.037.059.1.106.185.154.09.048.254.122.497.212.339.121.561.243.683.37.116.122.174.28.174.466zM90.26 30.938v-1.841c0-.228-.049-.397-.144-.508-.1-.111-.248-.17-.45-.17-.27 0-.465.075-.592.228-.127.153-.19.392-.19.71v1.581h-.43v-1.841c0-.228-.047-.397-.148-.508-.095-.111-.243-.17-.45-.17-.27 0-.465.08-.592.244-.122.159-.185.423-.185.788v1.487h-.429v-2.83H87l.068.386h.021a.845.845 0 01.344-.323 1.01 1.01 0 01.492-.117c.445 0 .73.16.868.482h.021a.942.942 0 01.366-.355c.164-.084.344-.127.55-.127.323 0 .56.085.72.249.158.164.238.429.238.789v1.846zM93.398 30.166c0 .264-.095.465-.296.608-.196.143-.471.217-.826.217-.375 0-.666-.058-.878-.18v-.397c.137.07.286.122.44.164.153.038.306.059.449.059.227 0 .397-.037.518-.106a.355.355 0 00.18-.328.36.36 0 00-.143-.286c-.095-.074-.28-.17-.56-.275-.265-.1-.45-.185-.561-.26a.743.743 0 01-.25-.248.648.648 0 01-.078-.334c0-.227.09-.412.28-.545.185-.132.445-.2.773-.2.307 0 .603.063.894.185l-.154.349a2.06 2.06 0 00-.772-.175c-.201 0-.355.032-.46.095a.302.302 0 00-.154.265c0 .074.021.138.058.19.037.059.1.106.185.154.09.048.254.122.498.212.339.121.56.243.682.37.117.122.175.28.175.466z" fill-rule="nonzero"/></g><circle r="2.405" cy="31.352" cx="66.448" opacity=".7" fill="none" stroke="#000" stroke-miterlimit="1.5"/><circle r="2.405" cy="31.352" cx="110.355" opacity=".7" fill="none" stroke="#000" stroke-miterlimit="1.5"/><g clip-rule="evenodd" fill-rule="evenodd" stroke-linecap="round" stroke-linejoin="round" stroke-miterlimit="1.5"><path d="M2.44 39.404a1.912 1.912 0 01-3.823 0M2.202 23.179c0-.989-.803-1.791-1.791-1.791H.408c-.99 0-1.79.802-1.79 1.79v1.32h3.584zM.518 34.868h-5.643l-2.672 1.928v2.006H.649" fill="none" stroke="#000" stroke-width="1.27178"/><path d="M6.421 34.868l2.551 1.928v2.006H.527" fill="none" stroke="#000" stroke-width="1.27178"/><path d="M534.643 204.138v-5.573c0-1.187-1.018-2.15-2.27-2.15h-4.54c-1.253 0-2.27.963-2.27 2.15v5.573" fill="none" stroke="#000" stroke-width=".97" transform="matrix(1.27178 0 0 1.34272 -673.524 -239.231)"/></g><circle r="2.405" cy="31.352" cx="22.541" opacity=".7" fill="none" stroke="#000" stroke-miterlimit="1.5"/></g></svg>