<svg xmlns="http://www.w3.org/2000/svg" width="200" height="200" viewBox="0 0 52.917 52.917"><g transform="matrix(.11896 0 0 .11896 -24.995 -9.512)" clip-rule="evenodd" fill-rule="evenodd" stroke-width="2.224" stroke-linecap="round" stroke-linejoin="round" stroke-miterlimit="1.5"><circle cx="391.685" cy="264.032" r="101.807" fill="#fff"/><path style="line-height:normal;font-variant-ligatures:normal;font-variant-position:normal;font-variant-caps:normal;font-variant-numeric:normal;font-variant-alternates:normal;font-feature-settings:normal;text-indent:0;text-align:start;text-decoration-line:none;text-decoration-style:solid;text-decoration-color:#000;text-transform:none;text-orientation:mixed;white-space:normal;shape-padding:0;isolation:auto;mix-blend-mode:normal;solid-color:#000;solid-opacity:1" d="M391.244 148.844c-63.255 0-114.734 51.481-114.734 114.736s51.48 114.734 114.734 114.734c29.501 0 56.438-11.2 76.79-29.568L575.2 455.914l13.363-13.361-107.578-107.578c15.635-19.61 24.994-44.43 24.994-71.395 0-63.255-51.48-114.736-114.736-114.736zm0 18.896c53.042 0 95.84 42.798 95.84 95.84s-42.798 95.838-95.84 95.838-95.838-42.796-95.838-95.838c0-53.042 42.796-95.84 95.838-95.84z" color="#000" font-weight="400" font-family="sans-serif" clip-rule="nonzero" overflow="visible" fill-rule="nonzero"/><path style="line-height:normal;font-variant-ligatures:normal;font-variant-position:normal;font-variant-caps:normal;font-variant-numeric:normal;font-variant-alternates:normal;font-feature-settings:normal;text-indent:0;text-align:start;text-decoration-line:none;text-decoration-style:solid;text-decoration-color:#000;text-transform:none;text-orientation:mixed;white-space:normal;shape-padding:0;isolation:auto;mix-blend-mode:normal;solid-color:#000;solid-opacity:1" d="M398.721 235.79l-17.148 29.702-15.344-26.574-14.863-1.957-19.038 19.04h-28.42v18.896h36.247l15.865-15.866 17.369 30.084h16.365l13.928-24.12 9.059 33.808 17.31 2.28 17.844-30.907h29.767v-18.898h-40.677l-11.895 20.601-9.058-33.81z" color="#000" font-weight="400" font-family="sans-serif" clip-rule="nonzero" overflow="visible" fill-rule="nonzero"/></g></svg>