<svg xmlns="http://www.w3.org/2000/svg" width="200" height="200" viewBox="0 0 52.917 52.917"><path d="M31.76 7.35c-.805.015-1.5.432-1.986 1.559l-1.05 1.781-2.265.01-2.265.01-1.06-1.791c-1.931-3.25-3.563-.598-7.08.595-.043.03.154.983.438 2.117l.517 2.062-1.6 1.6-1.598 1.598-1.804-.482c-.993-.266-1.943-.482-2.112-.482-.203.001-.714 1.007-1.51 2.972-.663 1.633-1.17 3.003-1.125 3.043.043.04.874.542 1.846 1.114l1.767 1.04-.03 2.301c-.025 2.081-.067 2.321-.438 2.512-1.371.703-3.168 1.786-3.168 1.908.001.222 2.265 5.647 2.43 5.819.079.084 1.056-.079 2.17-.362l2.025-.513 1.135 1.2c.624.66 1.346 1.34 1.605 1.513l.47.312-.53 2.096c-.293 1.152-.474 2.152-.404 2.223.07.07 1.386.653 2.924 1.295v-.001c1.537.642 2.842 1.168 2.898 1.171.056.003.595-.821 1.198-1.83l1.096-1.836h4.399l1.084 1.79c.597.985 1.105 1.818 1.128 1.851.056.08 5.666-2.222 5.88-2.412.09-.08-.075-1.091-.368-2.247l-.532-2.1.47-.313c.259-.173.98-.854 1.605-1.514l1.135-1.2 2.025.515c1.114.282 2.09.445 2.17.361.157-.164 2.429-5.591 2.43-5.803 0-.07-.819-.6-1.82-1.179l-1.819-1.05.003-2.25.004-2.249 1.765-1.055c.97-.58 1.8-1.083 1.844-1.118.043-.035-.463-1.4-1.125-3.033-.796-1.964-1.307-2.97-1.51-2.971-.169-.001-1.12.216-2.112.481l-1.804.483-1.6-1.6-1.599-1.6.518-2.061c.284-1.134.48-2.088.438-2.12-1.633-.754-3.567-2.189-5.103-2.16zm-5.433 12.273a6.77 6.77 0 014.734 1.796c2.955 2.697 2.979 7.19.053 10.02-1.823 1.765-4.794 2.32-7.289 1.36-3.52-1.352-5.205-5.835-3.5-9.312 1.204-2.454 3.57-3.812 6.002-3.864z" fill="#fff" stroke="#000" stroke-width="2.11664"/></svg>