<?xml version="1.0" encoding="UTF-8" standalone="no"?>
<!-- Created with Inkscape (http://www.inkscape.org/) -->

<svg
   xmlns:dc="http://purl.org/dc/elements/1.1/"
   xmlns:cc="http://creativecommons.org/ns#"
   xmlns:rdf="http://www.w3.org/1999/02/22-rdf-syntax-ns#"
   xmlns:svg="http://www.w3.org/2000/svg"
   xmlns="http://www.w3.org/2000/svg"
   xmlns:sodipodi="http://sodipodi.sourceforge.net/DTD/sodipodi-0.dtd"
   xmlns:inkscape="http://www.inkscape.org/namespaces/inkscape"
   width="200"
   height="200"
   viewBox="0 0 52.916665 52.916668"
   version="1.1"
   id="svg8"
   inkscape:version="0.92.5 (2060ec1f9f, 2020-04-08)"
   sodipodi:docname="asset-optimisation.svg">
  <defs
     id="defs2" />
  <sodipodi:namedview
     id="base"
     pagecolor="#ffffff"
     bordercolor="#666666"
     borderopacity="1.0"
     inkscape:pageopacity="0.0"
     inkscape:pageshadow="2"
     inkscape:zoom="3.959798"
     inkscape:cx="41.83532"
     inkscape:cy="65.224086"
     inkscape:document-units="px"
     inkscape:current-layer="layer1"
     showgrid="false"
     units="px"
     showguides="true"
     inkscape:guide-bbox="true"
     inkscape:window-width="2800"
     inkscape:window-height="1672"
     inkscape:window-x="80"
     inkscape:window-y="54"
     inkscape:window-maximized="1">
    <sodipodi:guide
       position="5.2916666,34.010048"
       orientation="1,0"
       id="guide828"
       inkscape:locked="false"
       inkscape:label=""
       inkscape:color="rgb(0,0,255)" />
    <sodipodi:guide
       position="180,31.738257"
       orientation="1,0"
       id="guide830"
       inkscape:locked="false"
       inkscape:label=""
       inkscape:color="rgb(0,0,255)" />
    <sodipodi:guide
       position="47.625,35.613665"
       orientation="1,0"
       id="guide832"
       inkscape:locked="false"
       inkscape:label=""
       inkscape:color="rgb(0,0,255)" />
    <sodipodi:guide
       position="5.2916666,46.505"
       orientation="0,1"
       id="guide834"
       inkscape:locked="false"
       inkscape:label=""
       inkscape:color="rgb(0,0,255)" />
    <sodipodi:guide
       position="31.203716,5.2916666"
       orientation="0,1"
       id="guide836"
       inkscape:locked="false"
       inkscape:label=""
       inkscape:color="rgb(0,0,255)" />
  </sodipodi:namedview>
  <metadata
     id="metadata5">
    <rdf:RDF>
      <cc:Work
         rdf:about="">
        <dc:format>image/svg+xml</dc:format>
        <dc:type
           rdf:resource="http://purl.org/dc/dcmitype/StillImage" />
        <dc:title></dc:title>
      </cc:Work>
    </rdf:RDF>
  </metadata>
  <g
     inkscape:label="Layer 1"
     inkscape:groupmode="layer"
     id="layer1"
     transform="translate(0,-244.08332)">
    <path
       style="fill:#ffffff;fill-opacity:1;stroke:#000000;stroke-width:7.99999952;stroke-miterlimit:4;stroke-dasharray:none;stroke-opacity:1"
       d="M 120.03711 27.779297 C 116.99636 27.83651 114.36742 29.410531 112.5332 33.669922 L 108.56445 40.404297 L 100.00391 40.441406 L 91.443359 40.478516 L 87.4375 33.708984 C 80.137365 21.428921 73.968297 31.451255 60.675781 35.958984 C 60.51316 36.073013 61.257757 39.673038 62.332031 43.958984 L 64.285156 51.751953 L 58.242188 57.796875 L 52.199219 63.841797 L 45.378906 62.017578 C 41.627419 61.013622 38.036057 60.194885 37.398438 60.197266 C 36.631649 60.200403 34.699443 64.002588 31.689453 71.427734 C 29.186593 77.602008 27.272482 82.778192 27.4375 82.931641 C 27.602478 83.084938 30.743164 84.980121 34.416016 87.142578 L 41.09375 91.074219 L 40.984375 99.769531 C 40.886085 107.63427 40.728407 108.54221 39.326172 109.26172 C 34.143999 111.92115 27.351961 116.01332 27.353516 116.47461 C 27.356679 117.31457 35.914752 137.81763 36.533203 138.4668 C 36.834682 138.78337 40.52638 138.16801 44.736328 137.09961 L 52.390625 135.1582 L 56.679688 139.69336 C 59.039375 142.18755 61.769131 144.76109 62.746094 145.41211 L 64.523438 146.59375 L 62.517578 154.51367 C 61.4141 158.86867 60.727797 162.64956 60.994141 162.91602 C 61.260465 163.18243 66.233789 165.38511 72.044922 167.81055 L 72.044922 167.80664 C 77.856063 170.23219 82.785486 172.22304 82.998047 172.23438 C 83.210589 172.24386 85.248973 169.12966 87.527344 165.31445 L 91.669922 158.37891 L 99.980469 158.37891 L 108.29297 158.37891 L 112.39258 165.14453 C 114.6479 168.86551 116.56683 172.01281 116.65625 172.13867 C 116.8685 172.43941 138.06934 163.7419 138.87891 163.02148 C 139.22081 162.71742 138.59462 158.89747 137.48828 154.53125 L 135.47656 146.5918 L 137.25391 145.4082 C 138.23087 144.75733 140.96063 142.18371 143.32031 139.68945 L 147.60938 135.1543 L 155.26367 137.09766 C 159.47362 138.1656 163.1653 138.78157 163.4668 138.46484 C 164.05837 137.84357 172.64339 117.33007 172.64648 116.5293 C 172.6476 116.26322 169.55509 114.2596 165.77344 112.07617 L 158.89648 108.10547 L 158.9082 99.605469 L 158.91992 91.103516 L 165.5918 87.115234 C 169.26061 84.921445 172.39565 83.019444 172.56055 82.888672 C 172.72552 82.757636 170.81341 77.600017 168.31055 71.425781 C 165.30057 64.000635 163.36833 60.198412 162.60156 60.195312 C 161.96396 60.192667 158.37259 61.011896 154.62109 62.015625 L 147.80078 63.839844 L 141.75586 57.794922 L 135.71289 51.748047 L 137.66797 43.955078 C 138.7422 39.669056 139.48685 36.06506 139.32422 35.943359 C 133.15219 33.094271 125.84218 27.670072 120.03711 27.779297 z M 99.501953 74.166016 C 105.79119 74.032134 112.19804 76.210713 117.39648 80.955078 C 128.56351 91.14665 128.65432 108.12977 117.59766 118.82617 C 110.70455 125.49462 99.477041 127.58978 90.048828 123.9668 C 76.741316 118.85298 70.373606 101.90951 76.820312 88.769531 C 81.370023 79.496058 90.309988 74.361689 99.501953 74.166016 z "
       transform="matrix(0.26458333,0,0,0.26458333,0,244.08332)"
       id="path872" />
  </g>
</svg>
