<?xml version="1.0" encoding="UTF-8" standalone="no"?>
<svg
   xmlns:dc="http://purl.org/dc/elements/1.1/"
   xmlns:cc="http://creativecommons.org/ns#"
   xmlns:rdf="http://www.w3.org/1999/02/22-rdf-syntax-ns#"
   xmlns:svg="http://www.w3.org/2000/svg"
   xmlns="http://www.w3.org/2000/svg"
   id="svg1191"
   style="fill-rule:evenodd;clip-rule:evenodd;stroke-linecap:round;stroke-linejoin:round;stroke-miterlimit:1.5;"
   xml:space="preserve"
   version="1.1"
   viewBox="0 0 800 600"
   height="100%"
   width="100%"><metadata
   id="metadata1197"><rdf:RDF><cc:Work
       rdf:about=""><dc:format>image/svg+xml</dc:format><dc:type
         rdf:resource="http://purl.org/dc/dcmitype/StillImage" /><dc:title></dc:title></cc:Work></rdf:RDF></metadata><defs
   id="defs1195" />
    
    
<g
   style="fill:#000000;fill-opacity:1;opacity:1"
   transform="translate(-2.941155,715.50715)"
   id="g5506"><g
     transform="translate(2.94115,-10.126995)"
     id="g5514"><path
       id="path5458"
       d="m 385.7207,-663.42773 -21.47265,29.78906 -33.49024,-15.0625 -9.98828,35.33594 -36.62109,-2.69922 2.69922,36.62109 -35.33789,9.99024 15.0625,33.49023 -29.78907,21.4707 25.60742,26.32031 -20.64843,30.36524 33.0664,15.97266 -9.01757,35.59765 36.5332,3.70117 3.70117,36.53321 35.5957,-9.01758 15.97461,33.06445 30.36524,-20.64844 26.31836,25.60743 21.47265,-29.78907 33.49024,15.0625 9.98828,-35.33593 36.62109,2.69921 -2.69922,-36.62109 35.33789,-9.99023 -15.0625,-33.49024 29.78907,-21.4707 -25.60742,-26.32031 20.64843,-30.36524 -33.0664,-15.97265 9.01757,-35.59766 -36.5332,-3.69922 -3.70117,-36.53516 -35.5957,9.01758 -15.97461,-33.06445 -30.36524,20.64844 z M 400,-607.94531 A 107.73306,107.73306 0 0 1 507.73242,-500.21094 107.73306,107.73306 0 0 1 400,-392.47852 107.73306,107.73306 0 0 1 292.26758,-500.21094 107.73306,107.73306 0 0 1 400,-607.94531 Z"
       style="opacity:1;fill:#000000;fill-opacity:1;stroke:none;stroke-width:10.00063038;stroke-linejoin:miter;stroke-miterlimit:1.5;stroke-dasharray:none;stroke-dashoffset:0;stroke-opacity:1" /><circle
       r="87.076271"
       cy="-500.21185"
       cx="400"
       id="path5456"
       style="opacity:1;fill:#000000;fill-opacity:1;stroke:none;stroke-width:10.00063038;stroke-linejoin:miter;stroke-miterlimit:1.5;stroke-dasharray:none;stroke-dashoffset:0;stroke-opacity:1" /><path
       id="rect5476"
       d="m 285.72415,-366.73806 -97.86816,169.51264 68.15817,-18.26436 18.26267,68.1572 97.86719,-169.51094 z"
       style="opacity:1;fill:#000000;fill-opacity:1;stroke:none;stroke-width:10.00063038;stroke-linejoin:miter;stroke-miterlimit:1.5;stroke-dasharray:none;stroke-dashoffset:0;stroke-opacity:1" /><path
       id="rect5476-6"
       d="m 514.27585,-366.73806 97.86817,169.51264 -68.15817,-18.26436 -18.26267,68.1572 -97.86719,-169.51094 z"
       style="clip-rule:evenodd;opacity:1;fill:#000000;fill-opacity:1;fill-rule:evenodd;stroke:none;stroke-width:10.00063038;stroke-linecap:round;stroke-linejoin:miter;stroke-miterlimit:1.5;stroke-dasharray:none;stroke-dashoffset:0;stroke-opacity:1" /></g></g></svg>