<?xml version="1.0" encoding="UTF-8" standalone="no"?>
<svg
   xmlns:dc="http://purl.org/dc/elements/1.1/"
   xmlns:cc="http://creativecommons.org/ns#"
   xmlns:rdf="http://www.w3.org/1999/02/22-rdf-syntax-ns#"
   xmlns:svg="http://www.w3.org/2000/svg"
   xmlns="http://www.w3.org/2000/svg"
   id="svg8"
   version="1.1"
   viewBox="0 0 52.916665 52.916668"
   height="200"
   width="200">
  <defs
     id="defs2" />
  <metadata
     id="metadata5">
    <rdf:RDF>
      <cc:Work
         rdf:about="">
        <dc:format>image/svg+xml</dc:format>
        <dc:type
           rdf:resource="http://purl.org/dc/dcmitype/StillImage" />
        <dc:title></dc:title>
      </cc:Work>
    </rdf:RDF>
  </metadata>
  <g
     transform="translate(0,-244.08332)"
     id="layer1">
    <g
       transform="translate(-0.66500575,-0.11472189)"
       id="g877">
      <path
         style="opacity:1;fill:#333333;fill-opacity:1;stroke:none;stroke-width:0.588;stroke-linecap:round;stroke-linejoin:miter;stroke-miterlimit:1.5;stroke-dasharray:none;stroke-dashoffset:0;stroke-opacity:1;paint-order:normal"
         d="m 70.142578,34.082031 c -1.654375,0 -3.410156,0.246911 -3.410156,2.904297 1.440892,24.146117 5.180725,55.66448 23.613281,69.384762 1.302781,1.07604 3.3913,1.65636 4.640625,3.67774 l 1.011719,3.625 c 0.01311,0.23318 0.0293,0.46241 0.0293,0.71484 0.07266,7.40377 -1.812468,12.0206 -4.167969,15.96875 H 75.357422 v 22.23102 h 54.820308 v -22.23102 h -16.97461 c -2.35594,-3.94815 -4.24257,-8.56498 -4.16992,-15.96875 0,-0.25243 0.0162,-0.48166 0.0293,-0.71484 l 1.01172,-3.625 c 1.24932,-2.02138 3.33784,-2.6017 4.64062,-3.67774 18.43256,-13.720282 22.1724,-45.238645 23.61328,-69.384762 0,-2.657386 -1.75578,-2.904297 -3.41015,-2.904297 H 131.25586 73.804688 Z M 66.427734,151.60742 v 15.17774 h 71.787106 v -15.17774 z"
         transform="matrix(0.26458333,0,0,0.26458333,0,244.08332)"
         id="rect834" />
      <path
         style="fill:none;stroke:#333333;stroke-width:2.11666656;stroke-linecap:butt;stroke-linejoin:round;stroke-miterlimit:4;stroke-dasharray:none;stroke-opacity:1"
         d="m 18.426339,255.84783 h -4.831008 c 0.586363,8.67465 4.922135,11.30037 8.3391,12.14249"
         id="path857" />
      <path
         style="fill:none;stroke:#333333;stroke-width:2.11666656;stroke-linecap:butt;stroke-linejoin:round;stroke-miterlimit:4;stroke-dasharray:none;stroke-opacity:1"
         d="m 35.820339,255.84783 h 4.831008 c -0.586363,8.67465 -4.922135,11.30037 -8.3391,12.14249"
         id="path857-6" />
    </g>
  </g>
</svg>
