<?xml version="1.0" encoding="UTF-8" standalone="no"?>
<svg
   xmlns:dc="http://purl.org/dc/elements/1.1/"
   xmlns:cc="http://creativecommons.org/ns#"
   xmlns:rdf="http://www.w3.org/1999/02/22-rdf-syntax-ns#"
   xmlns:svg="http://www.w3.org/2000/svg"
   xmlns="http://www.w3.org/2000/svg"
   id="svg8"
   version="1.1"
   viewBox="0 0 52.916665 52.916668"
   height="200"
   width="200">
  <defs
     id="defs2" />
  <metadata
     id="metadata5">
    <rdf:RDF>
      <cc:Work
         rdf:about="">
        <dc:format>image/svg+xml</dc:format>
        <dc:type
           rdf:resource="http://purl.org/dc/dcmitype/StillImage" />
        <dc:title></dc:title>
      </cc:Work>
    </rdf:RDF>
  </metadata>
  <g
     transform="translate(0,-244.08332)"
     id="layer1">
    <g
       transform="matrix(0.26458333,0,0,0.26458333,-3.9890156,271.13266)"
       id="g1048"
       style="clip-rule:evenodd;fill-rule:evenodd;stroke-linecap:round;stroke-linejoin:round;stroke-miterlimit:1.5">
      <g
         style="stroke-width:1.15031028"
         transform="matrix(0.86188854,-2.0549275e-5,0.006917,0.87684067,-358.50615,-339.34544)"
         id="g1008">
        <path
   d="m 434,417 c 8.027,36.858 227.664,-22.574 217,-57 -9.154,-29.551 -226.466,13.535 -217,57 z"
   style="fill:none;stroke:#000000;stroke-width:2.39264512px"
   id="path998" />

        <path
   d="m 586,374 v 17 h 32 c 7.637,0.093 8.055,-17.063 0,-17 z"
   style="fill:none;stroke:#000000;stroke-width:2.39264512px"
   id="path1000" />

        <path
   d="m 566,354 v 74 h 19 v -18 h 31 c 3.189,0.919 4.462,3.198 5,6 v 12 h 18 v -18 c -1.241,-6.609 -4.632,-8.807 -9,-9 6.158,-1.893 9.336,-6.089 9,-13 v -19 c -0.139,-8.529 -5.359,-12.783 -13,-15 h -60"
   style="fill:none;stroke:#000000;stroke-width:2.39264512px"
   id="path1002" />

        <rect
   x="535"
   y="354"
   width="17"
   height="74"
   style="fill:none;stroke:#000000;stroke-width:2.39264512px"
   id="rect1004" />

        <path
   d="m 504,381 h 18 v -12 c -2.494,-8.428 -8.783,-13.145 -18,-15 h -40 c -9.912,1.086 -15.851,6.147 -18,15 v 42 c 0.002,10.017 5.268,15.452 15,17 h 46 c 6.894,-0.67 12.101,-4.009 15,-11 v -17 h -18 v 5 c -1.046,3.969 -3.448,5.865 -7,6 h -27 c -4.09,-1.53 -6.121,-4.69 -6,-9 v -21 c 0.898,-6.253 4.567,-8.349 9,-9.3 h 24 c 5.259,2.101 8.143,5.013 7,9.3 z"
   style="fill:none;stroke:#000000;stroke-width:2.39264512px"
   id="path1006" />

    </g>
    </g>
  </g>
</svg>
