<svg xmlns="http://www.w3.org/2000/svg" viewBox="0 0 800 600" fill-rule="evenodd" clip-rule="evenodd" stroke-linecap="round" stroke-linejoin="round" stroke-miterlimit="1.5"><g color="#000" font-weight="400" font-family="sans-serif"><path d="M271.78 121.082v38.494c-29.294 4.811-51.801 30.366-51.801 60.975s22.507 56.163 51.8 60.974V478.92h20V281.525c29.294-4.81 51.801-30.365 51.801-60.974 0-30.61-22.507-56.164-51.8-60.975v-38.494h-20zm10 57.668a41.65 41.65 0 0141.8 41.8 41.65 41.65 0 01-41.8 41.802 41.65 41.65 0 01-41.801-41.801 41.65 41.65 0 0141.8-41.801z" style="line-height:normal;font-variant-ligatures:normal;font-variant-position:normal;font-variant-caps:normal;font-variant-numeric:normal;font-variant-alternates:normal;font-feature-settings:normal;text-indent:0;text-align:start;text-decoration-line:none;text-decoration-style:solid;text-decoration-color:#000;text-transform:none;text-orientation:mixed;white-space:normal;shape-padding:0;isolation:auto;mix-blend-mode:normal;solid-color:#000;solid-opacity:1" clip-rule="nonzero" overflow="visible" fill-rule="nonzero"/><path d="M390 121.082v198.494c-29.293 4.811-51.8 30.366-51.8 60.975s22.507 56.163 51.8 60.974v37.395h20v-37.395c29.293-4.81 51.8-30.365 51.8-60.974 0-30.61-22.507-56.164-51.8-60.975V121.082h-20zm10 217.668a41.65 41.65 0 0141.8 41.8 41.65 41.65 0 01-41.8 41.802 41.65 41.65 0 01-41.8-41.801A41.65 41.65 0 01400 338.75zM508.22 121.082v98.494c-29.292 4.811-51.8 30.366-51.8 60.975s22.508 56.163 51.8 60.974V478.92h20V341.525c29.294-4.81 51.801-30.365 51.801-60.974 0-30.61-22.507-56.164-51.8-60.975v-98.494h-20zm10 117.668a41.65 41.65 0 0141.801 41.8 41.65 41.65 0 01-41.8 41.802 41.65 41.65 0 01-41.801-41.801 41.65 41.65 0 0141.8-41.801z" style="line-height:normal;font-variant-ligatures:normal;font-variant-position:normal;font-variant-caps:normal;font-variant-numeric:normal;font-variant-alternates:normal;font-feature-settings:normal;text-indent:0;text-align:start;text-decoration-line:none;text-decoration-style:solid;text-decoration-color:#000;text-transform:none;text-orientation:mixed;white-space:normal;shape-padding:0;isolation:auto;mix-blend-mode:normal;solid-color:#000;solid-opacity:1" overflow="visible"/></g></svg>