<svg xmlns="http://www.w3.org/2000/svg" width="200" height="200" viewBox="0 0 160000 120000" clip-rule="evenodd" fill-rule="evenodd" stroke-linecap="round" stroke-linejoin="round" stroke-miterlimit="1.5"><g transform="matrix(.71483 0 0 .71483 114.067 159285.55)"><path d="M206624.76-84119.98l-94870.14 54773.307L16884.481-84119.98v-109546.6l94870.139-54773.3 94870.14 54773.3z" fill="#64c7cc"/><circle r="16768.803" cy="-166169.31" cx="71222.375" fill="#fff"/><circle r="16768.803" cy="-110731.46" cx="111449.18" fill="#fff"/><circle r="16768.803" cy="-144818.88" cx="151767.61" fill="#fff"/><g color="#000" font-weight="400" font-family="sans-serif" stroke-width="3.273"><path d="M67910.691-200073.025v13162.73c-10016.525 1645.15-17712.816 10383.26-17712.816 20849.726 0 10466.475 7696.28 19204.586 17712.816 20849.726v67497.307h6838.823v-67497.307c10016.597-1645.085 17712.816-10383.206 17712.816-20849.726 0-10466.514-7696.23-19204.63-17712.816-20849.727v-13162.729zm3419.411 19719.05c7934.546 0 14293.406 6358.86 14293.406 14293.406 0 7934.542-6358.86 14293.405-14293.406 14293.405-7934.542 0-14293.405-6358.863-14293.405-14293.405 0-7934.546 6358.863-14293.406 14293.405-14293.406z" style="line-height:normal;font-variant-ligatures:normal;font-variant-position:normal;font-variant-caps:normal;font-variant-numeric:normal;font-variant-alternates:normal;font-feature-settings:normal;text-indent:0;text-align:start;text-decoration-line:none;text-decoration-style:solid;text-decoration-color:#000;text-transform:none;text-orientation:mixed;white-space:normal;shape-padding:0;isolation:auto;mix-blend-mode:normal;solid-color:#000;solid-opacity:1" clip-rule="nonzero" overflow="visible" fill-rule="nonzero"/><path d="M108335.21-200073.025v67873.308c-10016.526 1645.151-17712.817 10383.261-17712.817 20849.727 0 10466.476 7696.28 19204.586 17712.817 20849.726v12786.728h6838.822v-12786.728c10016.598-1645.085 17712.817-10383.206 17712.817-20849.726 0-10466.513-7696.23-19204.63-17712.817-20849.727v-67873.308zm3419.411 74429.63c7934.542 0 14293.406 6358.86 14293.406 14293.405 0 7934.542-6358.864 14293.405-14293.406 14293.405-7934.545 0-14293.406-6358.863-14293.406-14293.405 0-7934.545 6358.86-14293.406 14293.406-14293.406zM148759.728-200073.025v33679.196c-10016.522 1645.151-17712.816 10383.261-17712.816 20849.727 0 10466.476 7696.284 19204.586 17712.816 20849.726v46980.84h6838.823v-46980.84c10016.6-1645.085 17712.816-10383.206 17712.816-20849.726 0-10466.513-7696.226-19204.63-17712.816-20849.727v-33679.196zm3419.412 40235.517c7934.545 0 14293.405 6358.86 14293.405 14293.406 0 7934.542-6358.86 14293.405-14293.405 14293.405-7934.546 0-14293.406-6358.863-14293.406-14293.405 0-7934.545 6358.86-14293.406 14293.406-14293.406z" style="line-height:normal;font-variant-ligatures:normal;font-variant-position:normal;font-variant-caps:normal;font-variant-numeric:normal;font-variant-alternates:normal;font-feature-settings:normal;text-indent:0;text-align:start;text-decoration-line:none;text-decoration-style:solid;text-decoration-color:#000;text-transform:none;text-orientation:mixed;white-space:normal;shape-padding:0;isolation:auto;mix-blend-mode:normal;solid-color:#000;solid-opacity:1" overflow="visible"/></g></g></svg>