<svg xmlns="http://www.w3.org/2000/svg" viewBox="0 0 800 600" fill-rule="evenodd" clip-rule="evenodd" stroke-linecap="round" stroke-linejoin="round" stroke-miterlimit="1.5"><g stroke="#000" stroke-width="15"><path fill="#fff" d="M334.827 148.32H498.87v301.12H334.827zM498.87 275.06h92.583v174.38H498.87zM242.082 275.06h92.583v174.38h-92.583z"/><path d="M219.28 449.44H614.3" fill="none" stroke-linecap="butt" stroke-linejoin="miter"/><path fill="none" stroke-linejoin="miter" d="M397.78 382.945h38.137v65.784H397.78z"/><g fill="none" stroke-linejoin="miter"><path d="M364.73 310.806h38.136v39.725H364.73zM430.831 310.806h38.136v39.725h-38.136zM364.73 244.227h38.136v39.725H364.73zM430.831 244.227h38.136v39.725h-38.136zM364.73 179.079h38.136v39.725H364.73zM430.831 179.079h38.136v39.725h-38.136z"/></g><g fill="none" stroke-linejoin="miter"><path d="M526.094 374.963h38.136v39.725h-38.136zM526.094 309.814h38.136v39.725h-38.136z"/></g><g fill="none" stroke-linejoin="miter"><path d="M269.306 374.963h38.136v39.725h-38.136zM269.306 309.814h38.136v39.725h-38.136z"/></g></g></svg>