<svg xmlns="http://www.w3.org/2000/svg" baseProfile="full" version="1.1" style="fill: none;" width="870px" height="570px"><path style="stroke-width: 15px; stroke-linecap: round; stroke-linejoin: round; stroke: rgb(106, 106, 106); fill: none;" d=""/><path style="stroke-width: 15px; stroke-linecap: round; stroke-linejoin: round; stroke: rgb(74, 74, 74); fill: none;" d=""/><path style="stroke-width: 15px; stroke-linecap: round; stroke-linejoin: round; stroke: rgb(10, 10, 10); fill: none;" d="M60,120 L60,120 L120,60 L120,240 M60,240 L60,240 L180,240 M240,120 A60,60 0 0,1 300,60 L300,60 A60,60 0 0,1 360,120 M240,120 L240,120 L240,180 L240,120 M240,180 A60,60 0 0,0 300,240 L300,240 A60,60 0 0,0 360,180 M360,120 L360,120 L360,180 M420,240 L420,240 L540,240 M480,240 L480,240 L480,60 L420,120 M600,240 L600,240 L720,240 M660,240 L660,240 L660,60 L600,120 M120,300 A60,60 0 0,0 60,360 M60,420 L60,420 L60,360 M120,480 A60,60 0 0,1 60,420 M120,480 A60,60 0 0,0 180,420 M180,360 L180,360 L180,420 M120,300 A60,60 0 0,1 180,360 M240,480 L240,480 L360,480 M300,480 L300,480 L300,300 L240,360 M420,360 L420,360 L420,420 M420,360 A60,60 0 0,1 480,300 M420,420 A60,60 0 0,0 480,480 L480,480 A60,60 0 0,0 540,420 L540,420 L540,360 A60,60 0 0,0 480,300 M600,480 L600,480 L720,480 M660,480 L660,480 L660,300 L600,360 "/></svg>