<svg xmlns="http://www.w3.org/2000/svg" baseProfile="full" width="870" height="570" fill="none"><path d="M60 120h0l60-60v180m-60 0h120m60-120a60 60 0 0160-60h0a60 60 0 0160 60m-120 0h0v60-60m0 60a60 60 0 0060 60h0a60 60 0 0060-60m0-60h0v60m60 60h120m-60 0h0V60l-60 60m180 120h120m-60 0h0V60l-60 60M120 300a60 60 0 00-60 60m0 60h0v-60m60 120a60 60 0 01-60-60m60 60a60 60 0 0060-60m0-60h0v60m-60-120a60 60 0 0160 60m60 120h120m-60 0h0V300l-60 60m180 0h0v60m0-60a60 60 0 0160-60m-60 120a60 60 0 0060 60h0a60 60 0 0060-60h0v-60a60 60 0 00-60-60m120 180h120m-60 0h0V300l-60 60" stroke-width="15" stroke-linecap="round" stroke-linejoin="round" stroke="#0a0a0a"/></svg>