<?xml version="1.0" encoding="UTF-8" standalone="no"?>
<svg
   xmlns:dc="http://purl.org/dc/elements/1.1/"
   xmlns:cc="http://creativecommons.org/ns#"
   xmlns:rdf="http://www.w3.org/1999/02/22-rdf-syntax-ns#"
   xmlns:svg="http://www.w3.org/2000/svg"
   xmlns="http://www.w3.org/2000/svg"
   xmlns:sodipodi="http://sodipodi.sourceforge.net/DTD/sodipodi-0.dtd"
   xmlns:inkscape="http://www.inkscape.org/namespaces/inkscape"
   width="498.30508"
   height="498.30508"
   viewBox="0 0 498.30508 498.30508"
   version="1.1"
   xml:space="preserve"
   style="clip-rule:evenodd;fill-rule:evenodd;stroke-linecap:round;stroke-linejoin:round;stroke-miterlimit:1.5"
   id="svg54"
   sodipodi:docname="cellular.svg"
   inkscape:version="0.92.5 (0.92.5+69)"><metadata
   id="metadata60"><rdf:RDF><cc:Work
       rdf:about=""><dc:format>image/svg+xml</dc:format><dc:type
         rdf:resource="http://purl.org/dc/dcmitype/StillImage" /></cc:Work></rdf:RDF></metadata><defs
   id="defs58" /><sodipodi:namedview
   pagecolor="#ffffff"
   bordercolor="#666666"
   borderopacity="1"
   objecttolerance="10"
   gridtolerance="10"
   guidetolerance="10"
   inkscape:pageopacity="0"
   inkscape:pageshadow="2"
   inkscape:window-width="1366"
   inkscape:window-height="704"
   id="namedview56"
   showgrid="false"
   inkscape:zoom="0.39333333"
   inkscape:cx="-28.389831"
   inkscape:cy="277.11865"
   inkscape:window-x="0"
   inkscape:window-y="27"
   inkscape:window-maximized="1"
   inkscape:current-layer="g52" />
    <g
   transform="matrix(2.04501,0,0,2.04501,-56.728394,16.68544)"
   id="g52">
        
        <g
   transform="translate(-157.81975,24.536766)"
   id="g50">
            <g
   transform="translate(0.163941)"
   id="g26">
                <g
   transform="matrix(1.52859,0,0,1.52859,-162.649,-68.7417)"
   id="g18">
                    <g
   transform="translate(0.593186,4.24723)"
   id="g12">
                        <circle
   cx="306.79999"
   cy="69.570999"
   r="5.4619999"
   style="stroke:#000000;stroke-width:3.20000005px"
   id="circle10" />
                    </g>
                    <path
   d="m 307.393,137.26 -32.995,17.594 c 17.04,-23.133 27.997,-48.339 32.995,-75.574 v 79.239 l -21.372,-21.372 c 7.675,-6.746 14.949,-13.767 21.372,-21.372 l -7.761,-7.761"
   style="fill:none;stroke:#000000;stroke-width:3.20000005px"
   id="path14"
   inkscape:connector-curvature="0" />
                    <path
   d="m 295.283,118.899 12.11,18.361"
   style="fill:none;stroke:#000000;stroke-width:3.20000005px"
   id="path16"
   inkscape:connector-curvature="0" />
                </g>
                <g
   transform="matrix(-1.52859,0,0,1.52859,777.108,-68.7417)"
   id="g24">
                    <path
   d="m 307.393,137.26 -32.995,17.594 c 17.04,-23.133 27.997,-48.339 32.995,-75.574 v 79.239 l -21.372,-21.372 c 7.675,-6.746 14.949,-13.767 21.372,-21.372 l -7.761,-7.761"
   style="fill:none;stroke:#000000;stroke-width:3.20000005px"
   id="path20"
   inkscape:connector-curvature="0" />
                    <path
   d="m 295.283,118.899 12.11,18.361"
   style="fill:none;stroke:#000000;stroke-width:3.20000005px"
   id="path22"
   inkscape:connector-curvature="0" />
                </g>
            </g>
            <g
   transform="matrix(0.556237,-0.556237,0.551811,0.551811,127.244,127.334)"
   id="g48">
                <g
   transform="translate(0.496152,9.90259)"
   id="g30">
                    <path
   d="m 211.396,77.61 c 0,-13.889 11.276,-25.165 25.165,-25.165"
   style="fill:none;stroke:#000000;stroke-width:6.23999977px"
   id="path28"
   inkscape:connector-curvature="0" />
                </g>
                <g
   transform="translate(0.496152,9.90259)"
   id="g34">
                    <path
   d="m 261.725,77.61 c 0,13.888 -11.276,25.164 -25.164,25.164"
   style="fill:none;stroke:#000000;stroke-width:6.23999977px"
   id="path32"
   inkscape:connector-curvature="0" />
                </g>
                <g
   transform="translate(2.07862,4.73302)"
   id="g38">
                    <path
   d="m 187.945,82.779 c 0,-25.958 21.075,-47.033 47.033,-47.033"
   style="fill:none;stroke:#000000;stroke-width:6.23999977px"
   id="path36"
   inkscape:connector-curvature="0" />
                </g>
                <g
   transform="translate(2.07862,4.73302)"
   id="g42">
                    <path
   d="m 282.011,82.779 c 0,25.959 -21.074,47.033 -47.033,47.033"
   style="fill:none;stroke:#000000;stroke-width:6.23999977px"
   id="path40"
   inkscape:connector-curvature="0" />
                </g>
                <path
   d="m 307.229,87.512 c 0,38.73 -31.443,70.173 -70.172,70.173"
   style="fill:none;stroke:#000000;stroke-width:6.23999977px"
   id="path44"
   inkscape:connector-curvature="0" />
                <path
   d="m 166.884,87.512 c 0,-38.729 31.444,-70.172 70.173,-70.172"
   style="fill:none;stroke:#000000;stroke-width:6.23999977px"
   id="path46"
   inkscape:connector-curvature="0" />
            </g>
        </g>
    </g>
</svg>