<?xml version="1.0" encoding="UTF-8" standalone="no"?>
<!DOCTYPE svg PUBLIC "-//W3C//DTD SVG 1.1//EN" "http://www.w3.org/Graphics/SVG/1.1/DTD/svg11.dtd">
<svg width="100%" height="100%" viewBox="0 0 300 300" version="1.1" xmlns="http://www.w3.org/2000/svg" xmlns:xlink="http://www.w3.org/1999/xlink" xml:space="preserve" xmlns:serif="http://www.serif.com/" style="fill-rule:evenodd;clip-rule:evenodd;stroke-linecap:round;stroke-linejoin:round;stroke-miterlimit:1.5;">
    <path d="M100.18,20.648L62.393,20.648L62.393,281.915L236.421,281.915L236.421,20.648L199.475,20.648" style="fill:none;stroke:black;stroke-width:8.33px;"/>
    <g transform="matrix(1,0,0,1,-3.00691,8)">
        <rect x="105.379" y="9.26" width="95.255" height="23.33" style="fill:none;stroke:black;stroke-width:8.33px;"/>
    </g>
    <path d="M100.541,36.098L76.884,36.098L76.884,265.427L220.058,265.427L220.058,36.098L199.712,36.098" style="fill:none;stroke:black;stroke-width:8.33px;"/>
    <path d="M120.772,17.26C124.943,10.344 136.46,5.369 150,5.369C163.54,5.369 175.057,10.344 179.228,17.26L120.772,17.26Z" style="fill:none;stroke:black;stroke-width:8.33px;"/>
    <path d="M94.582,78.042L166.199,78.042" style="fill:none;stroke:black;stroke-width:8.33px;"/>
    <g transform="matrix(0.598171,0,0,0.598171,38.006,64.3015)">
        <path d="M94.582,78.042L166.199,78.042" style="fill:none;stroke:black;stroke-width:13.93px;"/>
    </g>
    <g transform="matrix(1.50834,0,0,1.50834,-48.0799,26.2125)">
        <path d="M94.582,78.042L166.199,78.042" style="fill:none;stroke:black;stroke-width:5.52px;"/>
    </g>
    <g transform="matrix(1,0,0,1,-7.10543e-15,98.8262)">
        <path d="M94.582,78.042L166.199,78.042" style="fill:none;stroke:black;stroke-width:8.33px;"/>
    </g>
    <g transform="matrix(0.598171,0,0,0.598171,38.006,163.128)">
        <path d="M94.582,78.042L166.199,78.042" style="fill:none;stroke:black;stroke-width:13.93px;"/>
    </g>
    <g transform="matrix(1.50834,0,0,1.50834,-48.0799,125.039)">
        <path d="M94.582,78.042L166.199,78.042" style="fill:none;stroke:black;stroke-width:5.52px;"/>
    </g>
</svg>
