<?xml version="1.0" encoding="UTF-8" standalone="no"?>
<svg
   xmlns:dc="http://purl.org/dc/elements/1.1/"
   xmlns:cc="http://creativecommons.org/ns#"
   xmlns:rdf="http://www.w3.org/1999/02/22-rdf-syntax-ns#"
   xmlns:svg="http://www.w3.org/2000/svg"
   xmlns="http://www.w3.org/2000/svg"
   width="100%"
   height="100%"
   viewBox="0 0 800 600"
   version="1.1"
   xml:space="preserve"
   style="fill-rule:evenodd;clip-rule:evenodd;stroke-linecap:round;stroke-linejoin:round;stroke-miterlimit:1.5;"
   id="svg1191"><metadata
   id="metadata1197"><rdf:RDF><cc:Work
       rdf:about=""><dc:format>image/svg+xml</dc:format><dc:type
         rdf:resource="http://purl.org/dc/dcmitype/StillImage" /><dc:title></dc:title></cc:Work></rdf:RDF></metadata><defs
   id="defs1195" />
    
    
<g
   transform="translate(8.131835,5.893555)"
   id="g858"><path
     style="color:#000000;font-style:normal;font-variant:normal;font-weight:normal;font-stretch:normal;font-size:medium;line-height:normal;font-family:sans-serif;font-variant-ligatures:normal;font-variant-position:normal;font-variant-caps:normal;font-variant-numeric:normal;font-variant-alternates:normal;font-feature-settings:normal;text-indent:0;text-align:start;text-decoration:none;text-decoration-line:none;text-decoration-style:solid;text-decoration-color:#000000;letter-spacing:normal;word-spacing:normal;text-transform:none;writing-mode:lr-tb;direction:ltr;text-orientation:mixed;dominant-baseline:auto;baseline-shift:baseline;text-anchor:start;white-space:normal;shape-padding:0;clip-rule:nonzero;display:inline;overflow:visible;visibility:visible;opacity:1;isolation:auto;mix-blend-mode:normal;color-interpolation:sRGB;color-interpolation-filters:linearRGB;solid-color:#000000;solid-opacity:1;vector-effect:none;fill:#000000;fill-opacity:1;fill-rule:nonzero;stroke:none;stroke-width:18.89763832;stroke-linecap:butt;stroke-linejoin:miter;stroke-miterlimit:4;stroke-dasharray:none;stroke-dashoffset:0;stroke-opacity:1;color-rendering:auto;image-rendering:auto;shape-rendering:auto;text-rendering:auto;enable-background:accumulate"
     d="m 391.86719,119.5625 c -96.2862,0 -174.54297,78.25677 -174.54297,174.54297 0,96.2862 78.25677,174.54492 174.54297,174.54492 96.2862,0 174.54492,-78.25872 174.54492,-174.54492 0,-96.2862 -78.25872,-174.54297 -174.54492,-174.54297 z m 0,18.89648 c 86.07316,0 155.64648,69.57333 155.64648,155.64649 0,86.07316 -69.57332,155.64648 -155.64648,155.64648 -86.07316,0 -155.64649,-69.57332 -155.64649,-155.64648 0,-86.07316 69.57333,-155.64649 155.64649,-155.64649 z"
     id="path838" /><path
     style="color:#000000;font-style:normal;font-variant:normal;font-weight:normal;font-stretch:normal;font-size:medium;line-height:normal;font-family:sans-serif;font-variant-ligatures:normal;font-variant-position:normal;font-variant-caps:normal;font-variant-numeric:normal;font-variant-alternates:normal;font-feature-settings:normal;text-indent:0;text-align:start;text-decoration:none;text-decoration-line:none;text-decoration-style:solid;text-decoration-color:#000000;letter-spacing:normal;word-spacing:normal;text-transform:none;writing-mode:lr-tb;direction:ltr;text-orientation:mixed;dominant-baseline:auto;baseline-shift:baseline;text-anchor:start;white-space:normal;shape-padding:0;clip-rule:nonzero;display:inline;overflow:visible;visibility:visible;opacity:1;isolation:auto;mix-blend-mode:normal;color-interpolation:sRGB;color-interpolation-filters:linearRGB;solid-color:#000000;solid-opacity:1;vector-effect:none;fill:#000000;fill-opacity:1;fill-rule:nonzero;stroke:none;stroke-width:18.89763832;stroke-linecap:butt;stroke-linejoin:round;stroke-miterlimit:1.5;stroke-dasharray:none;stroke-dashoffset:0;stroke-opacity:1;color-rendering:auto;image-rendering:auto;shape-rendering:auto;text-rendering:auto;enable-background:accumulate"
     d="m 364.00391,122.64062 c -2.19769,2.19769 -3.03153,6.01063 -2.75,8.14063 0.28152,2.13 0.93186,3.1714 1.39843,3.94922 0.93315,1.55564 1.58919,2.1371 2.24219,2.78711 1.306,1.30002 2.62603,2.36927 4.21485,3.63281 3.17763,2.52708 7.27065,5.56957 11.4121,8.81836 4.14146,3.24879 8.3153,6.70578 11.29297,9.64258 0.86966,0.85772 1.28782,1.5309 1.86914,2.30078 -0.66372,0.21753 -0.58976,0.30118 -1.46679,0.48437 -5.4558,1.13962 -13.63309,1.3907 -20.04297,2.07618 -11.08539,1.18547 -19.43107,7.22146 -26.26172,11.73437 -6.83065,4.51291 -12.13652,6.7072 -12.99414,6.62891 -30.99652,-2.82985 -58.14795,7.19142 -68.81055,26.60351 -5.3313,9.70605 -4.64078,22.64751 2.99414,32.53711 7.63492,9.88961 20.66773,17.52684 40.07422,23.47266 1.21596,0.37255 3.75165,3.50236 8.51563,9.79297 4.67498,6.1731 12.40782,14.15406 24.82031,16.75781 0.0122,0.0478 0.12676,0.1863 0.4414,0.8125 0.70897,1.41095 1.45945,4.20807 1.66211,7.11133 0.20267,2.90325 -0.1126,5.95191 -0.62695,7.77539 -0.25308,0.89723 -0.58789,1.27161 -0.61719,1.32226 -14.35223,6.9827 -23.8869,16.31949 -29.21093,26.50977 -5.50248,10.53182 -6.61126,21.46842 -6.26563,30.88867 0.33178,9.04265 1.92042,16.84411 2.64844,21.98828 -0.71768,-0.34748 -1.40813,-0.63843 -2.22656,-1.32031 -2.3689,-1.97365 -5.17053,-6.07796 -7.55079,-11.74805 -4.76051,-11.34018 -7.85316,-28.17548 -10.34374,-42.93359 -1.47642,-8.74862 -6.97475,-14.25972 -10.98829,-18.46875 -4.01353,-4.20903 -6.70791,-7.40764 -7.37109,-9.54688 -1.13289,-3.65439 -0.67705,-8.96113 0.24414,-15.72656 0.92119,-6.76542 2.30719,-15.0127 -0.5918,-23.95117 -3.00188,-9.25571 -9.47587,-17.63257 -15.2207,-24.75195 -5.74483,-7.11939 -10.93945,-12.52149 -10.93945,-12.52149 l -13.62696,13.09375 c 0,0 4.67365,4.86841 9.85938,11.29492 5.18573,6.42652 10.70418,14.87001 11.95117,18.71485 1.16938,3.60556 0.75815,8.84237 -0.1582,15.57226 -0.91636,6.7299 -2.34029,14.92959 0.43164,23.8711 2.52608,8.14847 7.96955,13.03569 11.74414,16.99414 3.77459,3.95844 5.71535,6.6984 6.03125,8.57031 2.50433,14.83955 5.43898,32.5351 11.55469,47.10352 3.05785,7.2842 6.90802,13.97847 12.8789,18.95312 5.97089,4.97465 14.6019,7.52725 23.1875,5.80469 2.5755,-0.51673 5.47647,-2.13861 7.26758,-4.32227 1.79111,-2.18365 2.51848,-4.49179 2.8711,-6.40429 0.70522,-3.82502 0.27517,-6.77381 -0.14844,-9.97461 -0.84722,-6.40162 -2.34705,-13.56846 -2.61914,-20.98438 -0.2721,-7.41591 0.63101,-14.7446 4.13086,-21.44336 3.49984,-6.69875 9.60873,-13.21922 21.76953,-18.86718 6.15493,-2.85861 8.20972,-8.02546 9.49609,-12.58594 1.28637,-4.56049 1.62975,-9.36833 1.29102,-14.2207 -0.33873,-4.85238 -1.33001,-9.70996 -3.62696,-14.28126 -2.29695,-4.57129 -6.58036,-9.47649 -13.11132,-10.71874 -7.20927,-1.37128 -10.09366,-4.65788 -13.97071,-9.77735 -3.87705,-5.11946 -7.8301,-13.32093 -18.04687,-16.45117 -17.19486,-5.26821 -26.75192,-11.90338 -30.65039,-16.95313 -3.89848,-5.04974 -3.68481,-7.71389 -1.39063,-11.89062 4.58836,-8.35347 25.09579,-19.20496 50.53125,-16.88281 10.90825,0.99587 18.28218,-5.15616 25.12891,-9.67969 6.84672,-4.52353 13.17805,-8.2129 17.85351,-8.71289 4.82817,-0.51633 13.69532,-0.65412 21.89649,-2.36719 4.10058,-0.85653 8.22239,-1.94405 12.23047,-5.03125 4.00807,-3.0872 7.10579,-9.96963 5.88867,-15.77344 -1.43343,-6.83523 -5.19091,-10.06314 -9.11524,-13.93359 -3.92432,-3.87045 -8.51777,-7.62021 -12.89843,-11.05664 -4.38066,-3.43643 -8.56676,-6.55507 -11.31446,-8.74023 -1.37385,-1.09259 -2.42772,-2.01857 -2.64453,-2.23438 -0.1084,-0.10791 3.1e-4,-0.16641 0.63086,0.88477 0.31528,0.52559 0.87358,1.34836 1.13086,3.29492 0.25728,1.94655 -0.53445,5.61257 -2.62109,7.69922 z"
     id="path840" /><path
     style="color:#000000;font-style:normal;font-variant:normal;font-weight:normal;font-stretch:normal;font-size:medium;line-height:normal;font-family:sans-serif;font-variant-ligatures:normal;font-variant-position:normal;font-variant-caps:normal;font-variant-numeric:normal;font-variant-alternates:normal;font-feature-settings:normal;text-indent:0;text-align:start;text-decoration:none;text-decoration-line:none;text-decoration-style:solid;text-decoration-color:#000000;letter-spacing:normal;word-spacing:normal;text-transform:none;writing-mode:lr-tb;direction:ltr;text-orientation:mixed;dominant-baseline:auto;baseline-shift:baseline;text-anchor:start;white-space:normal;shape-padding:0;clip-rule:nonzero;display:inline;overflow:visible;visibility:visible;opacity:1;isolation:auto;mix-blend-mode:normal;color-interpolation:sRGB;color-interpolation-filters:linearRGB;solid-color:#000000;solid-opacity:1;vector-effect:none;fill:#000000;fill-opacity:1;fill-rule:nonzero;stroke:none;stroke-width:18.89763832;stroke-linecap:butt;stroke-linejoin:miter;stroke-miterlimit:1.5;stroke-dasharray:none;stroke-dashoffset:0;stroke-opacity:1;color-rendering:auto;image-rendering:auto;shape-rendering:auto;text-rendering:auto;enable-background:accumulate"
     d="m 496.88281,162.05664 c -9.0448,3.8485 -16.37321,7.57795 -21.95312,12.38672 -2.78996,2.40438 -5.30313,5.15508 -6.80469,9.05859 -1.50156,3.90351 -1.27305,9.13484 0.76367,12.99414 4.07344,7.71862 11.27781,10.95634 21.35742,14.51758 10.07962,3.56125 23.73235,6.76416 42.09375,9.86133 l 3.14454,-18.63281 c -17.74628,-2.99341 -30.61913,-6.10388 -38.94336,-9.04492 -5.04341,-1.7819 -7.65356,-3.39098 -9.22461,-4.47266 2.70132,-2.31402 8.81254,-5.80859 16.96484,-9.27734 z"
     id="path842" /><path
     style="color:#000000;font-style:normal;font-variant:normal;font-weight:normal;font-stretch:normal;font-size:medium;line-height:normal;font-family:sans-serif;font-variant-ligatures:normal;font-variant-position:normal;font-variant-caps:normal;font-variant-numeric:normal;font-variant-alternates:normal;font-feature-settings:normal;text-indent:0;text-align:start;text-decoration:none;text-decoration-line:none;text-decoration-style:solid;text-decoration-color:#000000;letter-spacing:normal;word-spacing:normal;text-transform:none;writing-mode:lr-tb;direction:ltr;text-orientation:mixed;dominant-baseline:auto;baseline-shift:baseline;text-anchor:start;white-space:normal;shape-padding:0;clip-rule:nonzero;display:inline;overflow:visible;visibility:visible;opacity:1;isolation:auto;mix-blend-mode:normal;color-interpolation:sRGB;color-interpolation-filters:linearRGB;solid-color:#000000;solid-opacity:1;vector-effect:none;fill:#000000;fill-opacity:1;fill-rule:nonzero;stroke:none;stroke-width:18.89763832;stroke-linecap:butt;stroke-linejoin:round;stroke-miterlimit:1.5;stroke-dasharray:none;stroke-dashoffset:0;stroke-opacity:1;color-rendering:auto;image-rendering:auto;shape-rendering:auto;text-rendering:auto;enable-background:accumulate"
     d="m 482.57227,231.99023 c -12.05417,0.50777 -23.99925,5.14018 -34.20313,12.14258 -11.66158,8.00275 -21.33332,19.32725 -24.58203,33.17383 -1.66464,7.09499 0.5422,13.94721 3.60742,18.95313 3.06522,5.00591 6.92434,8.91146 10.43359,12.53515 3.50926,3.62369 6.68683,6.95506 8.54493,9.69531 1.71396,2.52769 2.13467,4.05615 2.08398,5.43555 -0.14301,0.0654 -0.64137,0.69295 -2.36133,2.05274 -2.65411,2.09833 -7.49626,4.86555 -10.29101,11.49414 -5.43935,12.90099 -2.04853,24.18493 -3.34571,30.39648 -0.93286,4.46702 -8.6217,16.55338 -14.74218,27.05859 -3.06024,5.25261 -5.93573,10.10836 -6.74024,16.52539 -0.40225,3.20852 -0.0637,7.36461 2.38282,10.95704 2.4465,3.59242 6.40472,5.61603 10.06054,6.44531 10.24493,2.32393 20.40931,-0.57563 30.94336,-4.67774 10.53405,-4.1021 21.50393,-9.87734 32.17774,-15.59765 10.6738,-5.72031 21.05358,-11.39234 29.76953,-15.22852 8.71595,-3.83617 15.97451,-5.20831 17.92383,-4.88476 l 3.09374,-18.64258 c -9.75714,-1.61951 -18.73058,1.87303 -28.63085,6.23047 -9.90028,4.35743 -20.52026,10.20782 -31.08399,15.86914 -10.56372,5.66131 -21.07111,11.12566 -30.10742,14.64453 -6.75593,2.63085 -12.6472,3.90695 -16.60156,4.06641 0.73653,-1.69543 1.79376,-3.88161 3.14062,-6.19336 5.34478,-9.17379 14.27396,-20.07615 16.91211,-32.70899 2.62705,-12.57965 0.24314,-22.13032 2.26172,-26.91797 -0.10377,0.24612 1.40194,-1.4852 4.59766,-4.01172 3.19571,-2.52651 8.69635,-6.76435 9.49023,-14.59375 0.72765,-7.17622 -2.0227,-13.50135 -5.29297,-18.32421 -3.27027,-4.82287 -7.17527,-8.68823 -10.61133,-12.23633 -3.43605,-3.5481 -6.3835,-6.79134 -7.89257,-9.25586 -1.50908,-2.46452 -1.64426,-3.40549 -1.32422,-4.76953 1.79148,-7.63563 8.20493,-15.95704 16.87695,-21.90821 8.67202,-5.95116 19.31856,-9.3043 27.57227,-8.82031 0.36487,0.0214 0.63145,-0.003 1.97461,1.36524 1.34315,1.36867 3.14507,3.9762 5.14453,7.0664 1.99946,3.0902 4.20035,6.65806 7.41797,10.03516 3.21761,3.37709 7.99941,6.75583 14.05078,7.35742 11.76488,1.1696 20.2787,-5.48471 27.47265,-10.87891 7.19395,-5.39419 12.58985,-10.89257 12.58985,-10.89257 l -13.46289,-13.26172 c 0,0 -4.5752,4.61895 -10.46485,9.03515 -5.88965,4.4162 -13.57276,7.26224 -14.26562,7.19336 -0.3884,-0.0386 -0.83357,-0.1156 -2.23633,-1.58789 -1.40276,-1.47229 -3.21649,-4.14694 -5.23438,-7.26562 -2.01789,-3.11869 -4.23589,-6.68709 -7.52343,-10.03711 -3.28755,-3.35002 -8.26189,-6.6367 -14.35743,-6.99414 -1.72175,-0.10097 -3.44594,-0.1116 -5.16796,-0.0391 z"
     id="path844" /></g></svg>