<svg xmlns="http://www.w3.org/2000/svg" viewBox="0 0 52.917 52.917" height="200" width="200"><g transform="matrix(-1 0 0 1 52.494 .124)" stroke="#6a87da" stroke-width="1.058"><path d="M16.9 35.744v7.304h-5.944" fill="none"/><circle r="2.448" cy="42.854" cx="8.897" fill="#fff"/></g><g transform="rotate(-90 18.284 34.68)" stroke-width="1.058" stroke="#6a87da"><path d="M16.9 42.854h-5.944" fill="none"/><circle cx="8.897" cy="42.854" r="2.448" fill="#fff"/></g><g transform="translate(.437 .124)" stroke="#6a87da" stroke-width="1.058"><path d="M16.9 35.744v7.304h-5.944" fill="none"/><circle r="2.448" cy="42.854" cx="8.897" fill="#fff"/></g><path d="M29.375 6.327a10.093 10.093 0 00-7.746 3.626 6.332 6.332 0 00-3.115-.824 6.332 6.332 0 00-6.332 6.332c.003.437.05.873.143 1.3a9.863 9.863 0 00-5.823 8.984 9.863 9.863 0 009.06 9.822c7.496.084 15.13.045 21.543.022a9.863 9.863 0 009.31-9.844 9.863 9.863 0 00-6.951-9.423c-.053-5.534-4.554-9.993-10.09-9.995z" stroke-width="2.117" stroke-linecap="round" stroke="#333" fill="#fffffa"/></svg>