<svg xmlns="http://www.w3.org/2000/svg" width="200" height="200" viewBox="0 0 52.917 52.917"><g fill="#fff" stroke="#000" stroke-width="6.496" clip-rule="evenodd" fill-rule="evenodd" stroke-linecap="round" stroke-linejoin="round"><g transform="matrix(.31882 0 0 .333 -9.286 31.262)"><path d="M101.909-.406c-4.364.223-7.542 2.424-9.639 6.426l-3.212 15.308c-.427 3.635.14 6.743 3.968 8.126l5.387.945.094 1.89s10.293.534 13.607.42c3.313.114 13.608-.42 13.608-.42l.094-1.89 5.386-.945c3.828-1.383 4.396-4.49 3.97-8.126L131.957 6.02c-2.097-4.002-5.274-6.203-9.638-6.426h-11.907z" stroke-linecap="butt" stroke-linejoin="miter"/><circle cx="112.114" cy="-16.905" r="10.678"/></g><g transform="matrix(.31882 0 0 .333 -9.286 31.93)"><path d="M58.575-36.408c-4.365.223-7.542 2.424-9.639 6.426l-3.213 15.308c-.427 3.635.141 6.743 3.97 8.126l5.385.945.095 1.89s10.293.534 13.607.42c3.313.114 13.607-.42 13.607-.42l.095-1.89 5.386-.945c3.828-1.383 4.396-4.49 3.969-8.126l-3.213-15.308c-2.097-4.002-5.274-6.203-9.638-6.426H67.079z" stroke-linecap="butt" stroke-linejoin="miter"/><circle cy="-52.906" cx="68.78" r="10.678"/></g><g transform="matrix(.31882 0 0 .333 -9.286 31.262)"><path d="M145.243-34.401c-4.364.222-7.542 2.423-9.639 6.425l-3.212 15.309c-.427 3.635.14 6.743 3.968 8.126l5.387.945.094 1.89s10.293.533 13.607.42c3.314.113 13.608-.42 13.608-.42l.094-1.89 5.386-.945c3.828-1.383 4.396-4.491 3.97-8.126l-3.214-15.309c-2.097-4.002-5.274-6.203-9.638-6.425h-11.906z" stroke-linecap="butt" stroke-linejoin="miter"/><circle cy="-50.9" cx="155.448" r="10.678"/></g></g></svg>