<?xml version="1.0" encoding="UTF-8" standalone="no"?>
<!-- Created with Inkscape (http://www.inkscape.org/) -->

<svg
   xmlns:dc="http://purl.org/dc/elements/1.1/"
   xmlns:cc="http://creativecommons.org/ns#"
   xmlns:rdf="http://www.w3.org/1999/02/22-rdf-syntax-ns#"
   xmlns:svg="http://www.w3.org/2000/svg"
   xmlns="http://www.w3.org/2000/svg"
   xmlns:sodipodi="http://sodipodi.sourceforge.net/DTD/sodipodi-0.dtd"
   xmlns:inkscape="http://www.inkscape.org/namespaces/inkscape"
   width="200"
   height="200"
   viewBox="0 0 52.916665 52.916668"
   version="1.1"
   id="svg8"
   inkscape:version="0.92.5 (2060ec1f9f, 2020-04-08)"
   sodipodi:docname="council.svg">
  <defs
     id="defs2" />
  <sodipodi:namedview
     id="base"
     pagecolor="#ffffff"
     bordercolor="#666666"
     borderopacity="1.0"
     inkscape:pageopacity="0.0"
     inkscape:pageshadow="2"
     inkscape:zoom="3.959798"
     inkscape:cx="13.998991"
     inkscape:cy="130.15864"
     inkscape:document-units="px"
     inkscape:current-layer="layer1-3"
     showgrid="false"
     units="px"
     showguides="true"
     inkscape:guide-bbox="true"
     inkscape:window-width="2800"
     inkscape:window-height="1672"
     inkscape:window-x="80"
     inkscape:window-y="54"
     inkscape:window-maximized="1">
    <sodipodi:guide
       position="5.2916666,9.3544337"
       orientation="1,0"
       id="guide815"
       inkscape:locked="false"
       inkscape:label=""
       inkscape:color="rgb(0,0,255)" />
    <sodipodi:guide
       position="47.625,11.358955"
       orientation="1,0"
       id="guide817"
       inkscape:locked="false"
       inkscape:label=""
       inkscape:color="rgb(0,0,255)" />
    <sodipodi:guide
       position="14.566189,5.2916666"
       orientation="0,1"
       id="guide819"
       inkscape:locked="false"
       inkscape:label=""
       inkscape:color="rgb(0,0,255)" />
    <sodipodi:guide
       position="26.593317,47.625"
       orientation="0,1"
       id="guide821"
       inkscape:locked="false"
       inkscape:label=""
       inkscape:color="rgb(0,0,255)" />
  </sodipodi:namedview>
  <metadata
     id="metadata5">
    <rdf:RDF>
      <cc:Work
         rdf:about="">
        <dc:format>image/svg+xml</dc:format>
        <dc:type
           rdf:resource="http://purl.org/dc/dcmitype/StillImage" />
        <dc:title></dc:title>
      </cc:Work>
    </rdf:RDF>
  </metadata>
  <g
     inkscape:label="Layer 1"
     inkscape:groupmode="layer"
     id="layer1"
     transform="translate(0,-244.08332)"
     style="opacity:1">
    <g
       style="clip-rule:evenodd;fill-rule:evenodd;stroke-width:49.72154054;stroke-linecap:round;stroke-linejoin:round;stroke-miterlimit:4;stroke-dasharray:none"
       id="g937"
       transform="matrix(0.04165408,0,0,0.04350691,-4.0455111,293.06312)">
      <g
         style="clip-rule:evenodd;fill-rule:evenodd;stroke-width:6.4961803;stroke-linecap:round;stroke-linejoin:round;stroke-miterlimit:4;stroke-dasharray:none"
         id="layer1-3"
         transform="matrix(7.6539656,0,0,7.6539656,-125.80583,-358.57408)">
        <g
           id="g1005"
           transform="translate(1.8707195e-6,-6.3590061)">
          <g
             id="g981">
            <path
               style="fill:#ffffff;fill-opacity:1;stroke:#000000;stroke-width:6.49618053;stroke-linecap:butt;stroke-linejoin:miter;stroke-miterlimit:4;stroke-dasharray:none;stroke-opacity:1"
               d="m 101.909,-0.40573562 c -4.36447,0.222409 -7.541957,2.42347002 -9.638688,6.42544902 L 89.057591,21.327824 c -0.427088,3.6353 0.140877,6.74344 3.96875,8.12612 l 5.386234,0.94516 0.09457,1.8898 c 0,0 10.293215,0.53371 13.606915,0.42065 3.31341,0.1131 13.60744,-0.42065 13.60744,-0.42065 l 0.0946,-1.8898 5.38624,-0.94516 c 3.82787,-1.38268 4.39583,-4.49082 3.96875,-8.12612 L 131.95781,6.0197134 c -2.09673,-4.001979 -5.2737,-6.20304002 -9.63817,-6.42544902 h -8.50439 -3.40186 z"
               id="path832"
               inkscape:connector-curvature="0" />
            <circle
               style="opacity:1;fill:#ffffff;fill-opacity:1;stroke:#000000;stroke-width:6.49618053;stroke-linecap:round;stroke-linejoin:round;stroke-miterlimit:4;stroke-dasharray:none;stroke-dashoffset:0;stroke-opacity:1"
               id="path828"
               cx="112.11434"
               cy="-16.904648"
               r="10.677828" />
          </g>
          <g
             id="g993">
            <g
               id="g985"
               transform="translate(0,2.0065263)">
              <path
                 inkscape:connector-curvature="0"
                 id="path832-5"
                 d="m 58.574872,-36.407556 c -4.364471,0.22241 -7.541958,2.42347 -9.638689,6.42545 l -3.212721,15.308111 c -0.427088,3.6353 0.140877,6.7434403 3.96875,8.1261203 l 5.386234,0.94516 0.09457,1.8898 c 0,0 10.29322,0.53371 13.60692,0.42065 3.313406,0.1131 13.607439,-0.42065 13.607439,-0.42065 l 0.09457,-1.8898 5.386238,-0.94516 c 3.827869,-1.38268 4.395834,-4.4908203 3.968749,-8.1261203 l -3.213249,-15.308111 c -2.096727,-4.00198 -5.273699,-6.20304 -9.638169,-6.42545 h -8.504391 -3.401859 z"
                 style="clip-rule:evenodd;opacity:1;fill:#ffffff;fill-opacity:1;fill-rule:evenodd;stroke:#000000;stroke-width:6.49618053;stroke-linecap:butt;stroke-linejoin:miter;stroke-miterlimit:4;stroke-dasharray:none;stroke-opacity:1" />
              <ellipse
                 cy="-52.906467"
                 cx="68.780197"
                 id="path828-6"
                 style="clip-rule:evenodd;opacity:1;fill:#ffffff;fill-opacity:1;fill-rule:evenodd;stroke:#000000;stroke-width:6.49618053;stroke-linecap:round;stroke-linejoin:round;stroke-miterlimit:4;stroke-dasharray:none;stroke-dashoffset:0;stroke-opacity:1"
                 rx="10.677828"
                 ry="10.677829" />
            </g>
            <g
               id="g977">
              <path
                 inkscape:connector-curvature="0"
                 id="path832-5-2"
                 d="m 145.2431,-34.40103 c -4.36447,0.22241 -7.54196,2.42347 -9.63869,6.42545 l -3.21272,15.308111 c -0.42709,3.6353006 0.14087,6.7434406 3.96875,8.1261206 l 5.38623,0.94516 0.0946,1.8898 c 0,0 10.29322,0.53371 13.60692,0.42065 3.31341,0.1131 13.60744,-0.42065 13.60744,-0.42065 l 0.0946,-1.8898 5.38624,-0.94516 c 3.82787,-1.38268 4.39583,-4.49082 3.96875,-8.1261206 l -3.21325,-15.308111 c -2.09673,-4.00198 -5.2737,-6.20304 -9.63817,-6.42545 h -8.50439 -3.40186 z"
                 style="clip-rule:evenodd;opacity:1;fill:#ffffff;fill-opacity:1;fill-rule:evenodd;stroke:#000000;stroke-width:6.49618053;stroke-linecap:butt;stroke-linejoin:miter;stroke-miterlimit:4;stroke-dasharray:none;stroke-opacity:1" />
              <ellipse
                 cy="-50.89994"
                 cx="155.44843"
                 id="path828-6-9"
                 style="clip-rule:evenodd;opacity:1;fill:#ffffff;fill-opacity:1;fill-rule:evenodd;stroke:#000000;stroke-width:6.49618053;stroke-linecap:round;stroke-linejoin:round;stroke-miterlimit:4;stroke-dasharray:none;stroke-dashoffset:0;stroke-opacity:1"
                 rx="10.677828"
                 ry="10.677829" />
            </g>
          </g>
        </g>
      </g>
    </g>
  </g>
</svg>
