<?xml version="1.0" encoding="UTF-8" standalone="no"?>
<!DOCTYPE svg PUBLIC "-//W3C//DTD SVG 1.1//EN" "http://www.w3.org/Graphics/SVG/1.1/DTD/svg11.dtd">
<svg width="100%" height="100%" viewBox="0 0 200 100" version="1.1" xmlns="http://www.w3.org/2000/svg" xmlns:xlink="http://www.w3.org/1999/xlink" xml:space="preserve" xmlns:serif="http://www.serif.com/" style="fill-rule:evenodd;clip-rule:evenodd;stroke-linecap:round;stroke-linejoin:round;stroke-miterlimit:1.5;">
    <g transform="matrix(0.908941,0,0,0.908941,0.0837813,-46.8944)">
        <g transform="matrix(3.98046,0,0,3.98046,-2069.54,-911.036)">
            <g transform="matrix(1,0,0,1,-1.21751,-1.15093)">
                <path d="M531.977,245.247L523.863,245.247L523.863,265.055L538.777,265.055L538.777,252.047" style="fill:none;stroke:rgb(5,15,25);stroke-width:1.47px;"/>
            </g>
            <g transform="matrix(1,0,0,1,-3.88337,6.42389)">
                <path d="M541.443,244.473L534.643,237.672L534.643,244.473L541.443,244.473Z" style="fill:none;stroke:rgb(5,15,25);stroke-width:1.47px;"/>
            </g>
        </g>
        <g transform="matrix(1.10018,0,0,1.10018,-45.8051,-52.4456)">
            <circle cx="78.456" cy="174.398" r="14.57" style="fill:rgb(98,177,98);"/>
        </g>
        <g transform="matrix(3.98046,0,0,3.98046,-2000.24,-911.035)">
            <g transform="matrix(1,0,0,1,-1.18875,-1.15093)">
                <path d="M531.977,245.247L523.863,245.247L523.863,265.055L538.777,265.055L538.777,252.047" style="fill:none;stroke:rgb(5,15,25);stroke-width:1.47px;"/>
            </g>
            <g transform="matrix(1,0,0,1,-3.88337,6.42389)">
                <path d="M541.443,244.473L534.643,237.672L534.643,244.473L541.443,244.473Z" style="fill:none;stroke:rgb(5,15,25);stroke-width:1.47px;"/>
            </g>
        </g>
        <g transform="matrix(1.10018,0,0,1.10018,23.6104,-52.4456)">
            <circle cx="78.456" cy="174.398" r="14.57" style="fill:rgb(98,177,98);"/>
        </g>
        <g transform="matrix(3.98046,0,0,3.98046,-1930.71,-911.035)">
            <g transform="matrix(1,0,0,1,-1.21751,-1.15093)">
                <path d="M531.977,245.247L523.863,245.247L523.863,265.055L538.777,265.055L538.777,252.047" style="fill:none;stroke:rgb(5,15,25);stroke-width:1.47px;"/>
            </g>
            <g transform="matrix(1,0,0,1,-3.88337,6.42389)">
                <path d="M541.443,244.473L534.643,237.672L534.643,244.473L541.443,244.473Z" style="fill:none;stroke:rgb(5,15,25);stroke-width:1.47px;"/>
            </g>
        </g>
        <g transform="matrix(1.10018,0,0,1.10018,93.0253,-52.4456)">
            <circle cx="78.456" cy="174.398" r="14.57" style="fill:rgb(177,101,98);"/>
        </g>
    </g>
    <g transform="matrix(0.101683,0,0,0.101683,-24.614,35.8845)">
        <path d="M521,431C544.739,451.342 561.985,475.448 574,501C575.453,504.089 578.63,503.994 580,501C603.582,449.449 641.864,404.011 689,367C692.496,364.255 687.369,359.075 683,362C642.857,385.79 599.568,415.127 578,451C576.797,453 575.262,452.054 574,451C554.382,433.037 537.302,425.769 522,426C519.424,426.131 519.284,429.53 521,431Z" style="fill:white;stroke:white;stroke-width:8.25px;"/>
    </g>
    <g transform="matrix(0.101683,0,0,0.101683,38.4806,35.8845)">
        <path d="M521,431C544.739,451.342 561.985,475.448 574,501C575.453,504.089 578.63,503.994 580,501C603.582,449.449 641.864,404.011 689,367C692.496,364.255 687.369,359.075 683,362C642.857,385.79 599.568,415.127 578,451C576.797,453 575.262,452.054 574,451C554.382,433.037 537.302,425.769 522,426C519.424,426.131 519.284,429.53 521,431Z" style="fill:white;stroke:white;stroke-width:8.25px;"/>
    </g>
    <g transform="matrix(0.504727,-0.504727,0.504727,0.504727,38.5882,32.5223)">
        <path d="M73.667,167.402L73.667,161.563C73.667,160.015 74.924,158.758 76.473,158.758C78.021,158.758 79.278,160.015 79.278,161.563L79.278,167.402L85.116,167.402C86.665,167.402 87.922,168.659 87.922,170.207C87.922,171.756 86.665,173.013 85.116,173.013L79.278,173.013L79.278,178.851C79.278,180.399 78.021,181.656 76.473,181.656C74.924,181.656 73.667,180.399 73.667,178.851L73.667,173.013L67.829,173.013C66.28,173.013 65.023,171.756 65.023,170.207C65.023,168.659 66.28,167.402 67.829,167.402L73.667,167.402Z" style="fill:white;"/>
    </g>
</svg>
