<?xml version="1.0" encoding="UTF-8" standalone="no"?>
<!DOCTYPE svg PUBLIC "-//W3C//DTD SVG 1.1//EN" "http://www.w3.org/Graphics/SVG/1.1/DTD/svg11.dtd">
<svg width="100%" height="100%" viewBox="0 0 400 400" version="1.1" xmlns="http://www.w3.org/2000/svg" xmlns:xlink="http://www.w3.org/1999/xlink" xml:space="preserve" xmlns:serif="http://www.serif.com/" style="fill-rule:evenodd;clip-rule:evenodd;stroke-linecap:square;stroke-miterlimit:1.5;">
    <g transform="matrix(1,0,0,1,-16.8416,-13.2658)">
        <circle cx="216.808" cy="213.266" r="186.734" style="fill:rgb(108,138,216);"/>
    </g>
    <g id="DataCenter" transform="matrix(1.236,0,0,1.236,-47.1588,-34.4666)">
        <g transform="matrix(0.644417,0,0,0.644417,119.29,73.8448)">
            <g>
                <g transform="matrix(0.837479,0,0,5.32231,34.3377,-1067.8)">
                    <path d="M297.779,239.889L297.779,235.527" style="fill:none;stroke:white;stroke-width:1.37px;"/>
                </g>
                <g transform="matrix(0.837479,0,0,5.32231,34.3377,-1067.8)">
                    <path d="M297.779,227.46L297.779,222.419" style="fill:none;stroke:white;stroke-width:1.37px;"/>
                </g>
                <g transform="matrix(0.837479,0,0,5.32231,34.3377,-1067.8)">
                    <path d="M297.779,214.684L297.779,210.816L125.194,210.816L125.194,214.684" style="fill:none;stroke:white;stroke-width:1.37px;"/>
                </g>
                <g transform="matrix(0.837479,0,0,5.32231,34.3377,-1067.8)">
                    <path d="M125.194,222.419L125.194,227.46" style="fill:none;stroke:white;stroke-width:1.37px;"/>
                </g>
                <g transform="matrix(0.837479,0,0,5.32231,34.3377,-1067.8)">
                    <path d="M125.194,235.196L125.194,240.234" style="fill:none;stroke:white;stroke-width:1.37px;"/>
                </g>
                <g transform="matrix(0.837479,0,0,5.32231,34.3377,-1067.8)">
                    <path d="M125.194,248.008L125.194,251.987L297.779,251.987L297.779,248.188" style="fill:none;stroke:white;stroke-width:1.37px;"/>
                </g>
            </g>
            <g>
                <g>
                    <rect x="125.194" y="210.816" width="172.585" height="41.171" style="fill:none;stroke:white;stroke-width:5.23px;"/>
                    <g transform="matrix(0.661082,0,0,0.393745,90.8043,140.288)">
                        <rect x="125.194" y="210.816" width="172.585" height="41.171" style="fill:none;stroke:white;stroke-width:9.61px;"/>
                    </g>
                    <g transform="matrix(1,0,0,1,-1.72056,-2.77164)">
                        <circle cx="149.712" cy="234.173" r="11.381" style="fill:none;stroke:white;stroke-width:5.23px;"/>
                    </g>
                </g>
                <g transform="matrix(1,0,0,1,0,-68)">
                    <rect x="125.194" y="210.816" width="172.585" height="41.171" style="fill:none;stroke:white;stroke-width:5.23px;"/>
                    <g transform="matrix(0.661082,0,0,0.393745,90.8043,140.288)">
                        <rect x="125.194" y="210.816" width="172.585" height="41.171" style="fill:none;stroke:white;stroke-width:9.61px;"/>
                    </g>
                    <g transform="matrix(1,0,0,1,-1.72056,-2.77164)">
                        <circle cx="149.712" cy="234.173" r="11.381" style="fill:none;stroke:white;stroke-width:5.23px;"/>
                    </g>
                </g>
                <g transform="matrix(1,0,0,1,0,-136)">
                    <rect x="125.194" y="210.816" width="172.585" height="41.171" style="fill:none;stroke:white;stroke-width:5.23px;"/>
                    <g transform="matrix(0.661082,0,0,0.393745,90.8043,140.288)">
                        <rect x="125.194" y="210.816" width="172.585" height="41.171" style="fill:none;stroke:white;stroke-width:9.61px;"/>
                    </g>
                    <g transform="matrix(1,0,0,1,-1.72056,-2.77164)">
                        <circle cx="149.712" cy="234.173" r="11.381" style="fill:none;stroke:white;stroke-width:5.23px;"/>
                    </g>
                </g>
            </g>
        </g>
        <g transform="matrix(0.644417,0,0,0.644417,8.07296,73.8448)">
            <g>
                <g transform="matrix(0.837479,0,0,5.32231,34.3377,-1067.8)">
                    <path d="M297.779,239.889L297.779,235.527" style="fill:none;stroke:white;stroke-width:1.37px;"/>
                </g>
                <g transform="matrix(0.837479,0,0,5.32231,34.3377,-1067.8)">
                    <path d="M297.779,227.46L297.779,222.419" style="fill:none;stroke:white;stroke-width:1.37px;"/>
                </g>
                <g transform="matrix(0.837479,0,0,5.32231,34.3377,-1067.8)">
                    <path d="M297.779,214.684L297.779,210.816L125.194,210.816L125.194,214.684" style="fill:none;stroke:white;stroke-width:1.37px;"/>
                </g>
                <g transform="matrix(0.837479,0,0,5.32231,34.3377,-1067.8)">
                    <path d="M125.194,222.419L125.194,227.46" style="fill:none;stroke:white;stroke-width:1.37px;"/>
                </g>
                <g transform="matrix(0.837479,0,0,5.32231,34.3377,-1067.8)">
                    <path d="M125.194,235.196L125.194,240.234" style="fill:none;stroke:white;stroke-width:1.37px;"/>
                </g>
                <g transform="matrix(0.837479,0,0,5.32231,34.3377,-1067.8)">
                    <path d="M125.194,248.008L125.194,251.987L297.779,251.987L297.779,248.188" style="fill:none;stroke:white;stroke-width:1.37px;"/>
                </g>
            </g>
            <g>
                <g>
                    <rect x="125.194" y="210.816" width="172.585" height="41.171" style="fill:none;stroke:white;stroke-width:5.23px;"/>
                    <g transform="matrix(0.661082,0,0,0.393745,90.8043,140.288)">
                        <rect x="125.194" y="210.816" width="172.585" height="41.171" style="fill:none;stroke:white;stroke-width:9.61px;"/>
                    </g>
                    <g transform="matrix(1,0,0,1,-1.72056,-2.77164)">
                        <circle cx="149.712" cy="234.173" r="11.381" style="fill:none;stroke:white;stroke-width:5.23px;"/>
                    </g>
                </g>
                <g transform="matrix(1,0,0,1,0,-68)">
                    <rect x="125.194" y="210.816" width="172.585" height="41.171" style="fill:none;stroke:white;stroke-width:5.23px;"/>
                    <g transform="matrix(0.661082,0,0,0.393745,90.8043,140.288)">
                        <rect x="125.194" y="210.816" width="172.585" height="41.171" style="fill:none;stroke:white;stroke-width:9.61px;"/>
                    </g>
                    <g transform="matrix(1,0,0,1,-1.72056,-2.77164)">
                        <circle cx="149.712" cy="234.173" r="11.381" style="fill:none;stroke:white;stroke-width:5.23px;"/>
                    </g>
                </g>
                <g transform="matrix(1,0,0,1,0,-136)">
                    <rect x="125.194" y="210.816" width="172.585" height="41.171" style="fill:none;stroke:white;stroke-width:5.23px;"/>
                    <g transform="matrix(0.661082,0,0,0.393745,90.8043,140.288)">
                        <rect x="125.194" y="210.816" width="172.585" height="41.171" style="fill:none;stroke:white;stroke-width:9.61px;"/>
                    </g>
                    <g transform="matrix(1,0,0,1,-1.72056,-2.77164)">
                        <circle cx="149.712" cy="234.173" r="11.381" style="fill:none;stroke:white;stroke-width:5.23px;"/>
                    </g>
                </g>
            </g>
        </g>
        <path d="M246.549,141.805L255.608,141.805L255.608,169.193L246.549,169.193L246.549,185.035L255.608,185.035L255.608,213.013L246.549,213.013L246.549,231.303L255.608,231.303L255.608,256.834L246.549,256.834L246.549,270.604L152.602,270.604L152.602,256.834L144.358,256.834L144.358,231.303L152.602,231.303L152.602,213.013L144.358,213.013L144.358,185.035L152.602,185.035L152.602,169.193L144.358,169.193L144.358,141.805L152.602,141.805L152.602,130.1L246.549,130.1L246.549,141.805Z" style="fill:rgb(108,138,216);stroke:white;stroke-width:1.35px;"/>
        <g transform="matrix(0.644417,0,0,0.644417,63.7146,94.4489)">
            <g>
                <g transform="matrix(0.837479,0,0,5.32231,34.3377,-1067.8)">
                    <path d="M297.779,239.889L297.779,235.527" style="fill:none;stroke:white;stroke-width:1.37px;"/>
                </g>
                <g transform="matrix(0.837479,0,0,5.32231,34.3377,-1067.8)">
                    <path d="M297.779,227.46L297.779,222.419" style="fill:none;stroke:white;stroke-width:1.37px;"/>
                </g>
                <g transform="matrix(0.837479,0,0,5.32231,34.3377,-1067.8)">
                    <path d="M297.779,214.684L297.779,210.816L125.194,210.816L125.194,214.684" style="fill:none;stroke:white;stroke-width:1.37px;"/>
                </g>
                <g transform="matrix(0.837479,0,0,5.32231,34.3377,-1067.8)">
                    <path d="M125.194,222.419L125.194,227.46" style="fill:none;stroke:white;stroke-width:1.37px;"/>
                </g>
                <g transform="matrix(0.837479,0,0,5.32231,34.3377,-1067.8)">
                    <path d="M125.194,235.196L125.194,240.234" style="fill:none;stroke:white;stroke-width:1.37px;"/>
                </g>
                <g transform="matrix(0.837479,0,0,5.32231,34.3377,-1067.8)">
                    <path d="M125.194,248.008L125.194,251.987L297.779,251.987L297.779,248.188" style="fill:none;stroke:white;stroke-width:1.37px;"/>
                </g>
            </g>
            <g>
                <g>
                    <rect x="125.194" y="210.816" width="172.585" height="41.171" style="fill:none;stroke:white;stroke-width:5.23px;"/>
                    <g transform="matrix(0.661082,0,0,0.393745,90.8043,140.288)">
                        <rect x="125.194" y="210.816" width="172.585" height="41.171" style="fill:none;stroke:white;stroke-width:9.61px;"/>
                    </g>
                    <g transform="matrix(1,0,0,1,-1.72056,-2.77164)">
                        <circle cx="149.712" cy="234.173" r="11.381" style="fill:none;stroke:white;stroke-width:5.23px;"/>
                    </g>
                </g>
                <g transform="matrix(1,0,0,1,0,-68)">
                    <rect x="125.194" y="210.816" width="172.585" height="41.171" style="fill:none;stroke:white;stroke-width:5.23px;"/>
                    <g transform="matrix(0.661082,0,0,0.393745,90.8043,140.288)">
                        <rect x="125.194" y="210.816" width="172.585" height="41.171" style="fill:none;stroke:white;stroke-width:9.61px;"/>
                    </g>
                    <g transform="matrix(1,0,0,1,-1.72056,-2.77164)">
                        <circle cx="149.712" cy="234.173" r="11.381" style="fill:none;stroke:white;stroke-width:5.23px;"/>
                    </g>
                </g>
                <g transform="matrix(1,0,0,1,0,-136)">
                    <rect x="125.194" y="210.816" width="172.585" height="41.171" style="fill:none;stroke:white;stroke-width:5.23px;"/>
                    <g transform="matrix(0.661082,0,0,0.393745,90.8043,140.288)">
                        <rect x="125.194" y="210.816" width="172.585" height="41.171" style="fill:none;stroke:white;stroke-width:9.61px;"/>
                    </g>
                    <g transform="matrix(1,0,0,1,-1.72056,-2.77164)">
                        <circle cx="149.712" cy="234.173" r="11.381" style="fill:none;stroke:white;stroke-width:5.23px;"/>
                    </g>
                </g>
            </g>
        </g>
    </g>
</svg>
