<?xml version="1.0" encoding="utf-8"?>
<!-- Generator: Adobe Illustrator 24.1.1, SVG Export Plug-In . SVG Version: 6.00 Build 0)  -->
<svg version="1.1" id="Layer_1" xmlns="http://www.w3.org/2000/svg" xmlns:xlink="http://www.w3.org/1999/xlink" x="0px" y="0px"
	 viewBox="0 0 512 512" style="enable-background:new 0 0 512 512;" xml:space="preserve">
<g>
	<path d="M311.4,448.7c73.1-12,124.6-50,155.6-96.8c31.2-46.9,43.1-101.6,43.1-150.2h-45c0,41.3-10.5,87.8-35.6,125.3
		c-25.2,37.4-63.8,66.9-125.5,77.4L311.4,448.7L311.4,448.7z M310.1,326.6l-53.4,106.7l105,78.7l27-36l-74.9-56.2l36.6-73.2
		L310.1,326.6L310.1,326.6z M28.9,197.2l72-54l54,72l36-27l-81-107.9l-107.9,81L28.9,197.2L28.9,197.2z M227.8,406.4
		c-44.3-22.2-74.1-48.5-93.2-78.1c-19-29.6-27.8-62.8-27.9-100.9c0-33,6.8-69.5,19.9-108.6L84,104.6
		c-14.2,42.6-22.2,83.6-22.2,122.9c-0.1,45.1,10.9,87.8,35.1,125.3c24.1,37.5,61.1,69,110.9,93.9L227.8,406.4L227.8,406.4z
		 M483.8,121.8c-28-42-60.8-72.6-95.9-92.6C352.8,9.2,315.4,0,278.9,0c-51.7,0-101.3,18.2-142.1,48.9l27,36
		C197.6,59.5,237.9,45,278.9,45c29,0,58.3,7.2,86.8,23.3c28.4,16.2,56,41.4,80.7,78.4L483.8,121.8L483.8,121.8z M442.6,21.8v89.9
		l-89.9,0v45l134.9,0V21.8H442.6L442.6,21.8z"/>
</g>
</svg>
