<?xml version="1.0" encoding="UTF-8" standalone="no"?>
<svg
   xmlns:dc="http://purl.org/dc/elements/1.1/"
   xmlns:cc="http://creativecommons.org/ns#"
   xmlns:rdf="http://www.w3.org/1999/02/22-rdf-syntax-ns#"
   xmlns:svg="http://www.w3.org/2000/svg"
   xmlns="http://www.w3.org/2000/svg"
   id="svg940"
   version="1.1"
   viewBox="0 0 52.916665 52.916668"
   height="200"
   width="200">
  <defs
     id="defs934" />
  <metadata
     id="metadata937">
    <rdf:RDF>
      <cc:Work
         rdf:about="">
        <dc:format>image/svg+xml</dc:format>
        <dc:type
           rdf:resource="http://purl.org/dc/dcmitype/StillImage" />
        <dc:title></dc:title>
      </cc:Work>
    </rdf:RDF>
  </metadata>
  <g
     transform="translate(0,-244.08332)"
     id="layer1">
    <g
       style="stroke-width:3.70613027;stroke-miterlimit:4;stroke-dasharray:none"
       id="layer1-6"
       transform="matrix(0.57119016,0,0,0.57106146,20.160137,124.61979)">
      <path
         style="fill:#ffffff;fill-opacity:1;stroke:#000000;stroke-width:14.00742149;stroke-miterlimit:4;stroke-dasharray:none;stroke-opacity:1"
         d="m 120.03711,27.779297 c -3.04075,0.05721 -5.66969,1.631234 -7.50391,5.890625 l -3.96875,6.734375 -8.56054,0.03711 -8.560551,0.03711 -4.005859,-6.769532 c -7.300135,-12.280063 -13.469203,-2.257729 -26.761719,2.25 -0.162621,0.114029 0.581976,3.714054 1.65625,8 l 1.953125,7.792969 -6.042968,6.044922 -6.042969,6.044922 -6.820313,-1.824219 c -3.751487,-1.003956 -7.342849,-1.822693 -7.980468,-1.820312 -0.766789,0.0031 -2.698995,3.805322 -5.708985,11.230468 -2.50286,6.174274 -4.416971,11.350458 -4.251953,11.503907 0.164978,0.153297 3.305664,2.04848 6.978516,4.210937 l 6.677734,3.931641 -0.109375,8.695312 c -0.09829,7.864738 -0.255968,8.772678 -1.658203,9.492188 -5.182173,2.65943 -11.974211,6.7516 -11.972656,7.21289 0.0032,0.83996 8.561236,21.34302 9.179687,21.99219 0.301479,0.31657 3.993177,-0.29879 8.203125,-1.36719 l 7.654297,-1.94141 4.289063,4.53516 c 2.359687,2.49419 5.089443,5.06773 6.066406,5.71875 l 1.777344,1.18164 -2.00586,7.91992 c -1.103478,4.355 -1.789781,8.13589 -1.523437,8.40235 0.266324,0.26641 5.239648,2.46909 11.050781,4.89453 v -0.004 c 5.811141,2.42555 10.740564,4.4164 10.953125,4.42774 0.212542,0.009 2.250926,-3.10472 4.529297,-6.91993 l 4.142578,-6.93554 h 8.310547 8.312501 l 4.09961,6.76562 c 2.25532,3.72098 4.17425,6.86828 4.26367,6.99414 0.21225,0.30074 21.41309,-8.39677 22.22266,-9.11719 0.3419,-0.30406 -0.28429,-4.12401 -1.39063,-8.49023 l -2.01172,-7.93945 1.77735,-1.1836 c 0.97696,-0.65087 3.70672,-3.22449 6.0664,-5.71875 l 4.28907,-4.53515 7.65429,1.94336 c 4.20995,1.06794 7.90163,1.68391 8.20313,1.36718 0.59157,-0.62127 9.17659,-21.13477 9.17968,-21.93554 0.001,-0.26608 -3.09139,-2.2697 -6.87304,-4.45313 l -6.87696,-3.9707 0.0117,-8.5 0.0117,-8.501953 6.67188,-3.988282 c 3.66881,-2.193789 6.80385,-4.09579 6.96875,-4.226562 0.16497,-0.131036 -1.74714,-5.288655 -4.25,-11.462891 -3.00998,-7.425146 -4.94222,-11.227369 -5.70899,-11.230469 -0.6376,-0.0026 -4.22897,0.816584 -7.98047,1.820313 l -6.82031,1.824219 -6.04492,-6.044922 -6.04297,-6.046875 1.95508,-7.792969 c 1.07423,-4.286022 1.81888,-7.890018 1.65625,-8.011719 -6.17203,-2.849088 -13.48204,-8.273287 -19.28711,-8.164062 z M 99.501953,74.166016 c 6.289237,-0.133882 12.696087,2.044697 17.894527,6.789062 11.16703,10.191572 11.25784,27.174692 0.20118,37.871092 -6.89311,6.66845 -18.120619,8.76361 -27.548832,5.14063 C 76.741316,118.85298 70.373606,101.90951 76.820312,88.769531 81.370023,79.496058 90.309988,74.361689 99.501953,74.166016 Z"
         transform="matrix(0.26458333,0,0,0.26458333,0,244.08332)"
         id="path872" />
    </g>
    <g
       style="stroke-width:5.46682405;stroke-miterlimit:4;stroke-dasharray:none"
       id="layer1-6-2"
       transform="matrix(0.38722761,0,0,0.38714034,3.9498168,170.92399)">
      <path
         style="fill:#ffffff;fill-opacity:1;stroke:#000000;stroke-width:20.6620121;stroke-miterlimit:4;stroke-dasharray:none;stroke-opacity:1"
         d="m 120.03711,27.779297 c -3.04075,0.05721 -5.66969,1.631234 -7.50391,5.890625 l -3.96875,6.734375 -8.56054,0.03711 -8.560551,0.03711 -4.005859,-6.769532 c -7.300135,-12.280063 -13.469203,-2.257729 -26.761719,2.25 -0.162621,0.114029 0.581976,3.714054 1.65625,8 l 1.953125,7.792969 -6.042968,6.044922 -6.042969,6.044922 -6.820313,-1.824219 c -3.751487,-1.003956 -7.342849,-1.822693 -7.980468,-1.820312 -0.766789,0.0031 -2.698995,3.805322 -5.708985,11.230468 -2.50286,6.174274 -4.416971,11.350458 -4.251953,11.503907 0.164978,0.153297 3.305664,2.04848 6.978516,4.210937 l 6.677734,3.931641 -0.109375,8.695312 c -0.09829,7.864738 -0.255968,8.772678 -1.658203,9.492188 -5.182173,2.65943 -11.974211,6.7516 -11.972656,7.21289 0.0032,0.83996 8.561236,21.34302 9.179687,21.99219 0.301479,0.31657 3.993177,-0.29879 8.203125,-1.36719 l 7.654297,-1.94141 4.289063,4.53516 c 2.359687,2.49419 5.089443,5.06773 6.066406,5.71875 l 1.777344,1.18164 -2.00586,7.91992 c -1.103478,4.355 -1.789781,8.13589 -1.523437,8.40235 0.266324,0.26641 5.239648,2.46909 11.050781,4.89453 v -0.004 c 5.811141,2.42555 10.740564,4.4164 10.953125,4.42774 0.212542,0.009 2.250926,-3.10472 4.529297,-6.91993 l 4.142578,-6.93554 h 8.310547 8.312501 l 4.09961,6.76562 c 2.25532,3.72098 4.17425,6.86828 4.26367,6.99414 0.21225,0.30074 21.41309,-8.39677 22.22266,-9.11719 0.3419,-0.30406 -0.28429,-4.12401 -1.39063,-8.49023 l -2.01172,-7.93945 1.77735,-1.1836 c 0.97696,-0.65087 3.70672,-3.22449 6.0664,-5.71875 l 4.28907,-4.53515 7.65429,1.94336 c 4.20995,1.06794 7.90163,1.68391 8.20313,1.36718 0.59157,-0.62127 9.17659,-21.13477 9.17968,-21.93554 0.001,-0.26608 -3.09139,-2.2697 -6.87304,-4.45313 l -6.87696,-3.9707 0.0117,-8.5 0.0117,-8.501953 6.67188,-3.988282 c 3.66881,-2.193789 6.80385,-4.09579 6.96875,-4.226562 0.16497,-0.131036 -1.74714,-5.288655 -4.25,-11.462891 -3.00998,-7.425146 -4.94222,-11.227369 -5.70899,-11.230469 -0.6376,-0.0026 -4.22897,0.816584 -7.98047,1.820313 l -6.82031,1.824219 -6.04492,-6.044922 -6.04297,-6.046875 1.95508,-7.792969 c 1.07423,-4.286022 1.81888,-7.890018 1.65625,-8.011719 -6.17203,-2.849088 -13.48204,-8.273287 -19.28711,-8.164062 z M 99.501953,74.166016 c 6.289237,-0.133882 12.696087,2.044697 17.894527,6.789062 11.16703,10.191572 11.25784,27.174692 0.20118,37.871092 -6.89311,6.66845 -18.120619,8.76361 -27.548832,5.14063 C 76.741316,118.85298 70.373606,101.90951 76.820312,88.769531 81.370023,79.496058 90.309988,74.361689 99.501953,74.166016 Z"
         transform="matrix(0.26458333,0,0,0.26458333,0,244.08332)"
         id="path872-9" />
    </g>
    <path
       id="path1535"
       d="m 21.73363,264.63577 4.512091,-4.51209 4.535715,4.53572"
       style="fill:none;stroke:#000000;stroke-width:2.11666656;stroke-linecap:butt;stroke-linejoin:miter;stroke-miterlimit:4;stroke-dasharray:none;stroke-opacity:1" />
    <path
       id="path1537"
       d="m 26.245721,260.12368 v 9.59588"
       style="fill:none;stroke:#000000;stroke-width:2.11666656;stroke-linecap:butt;stroke-linejoin:miter;stroke-miterlimit:4;stroke-dasharray:none;stroke-opacity:1" />
    <path
       id="path1535-0"
       d="m 31.053106,256.30088 4.512091,-4.51209 4.535715,4.53572"
       style="fill:none;stroke:#000000;stroke-width:2.11666656;stroke-linecap:butt;stroke-linejoin:miter;stroke-miterlimit:4;stroke-dasharray:none;stroke-opacity:1" />
    <path
       id="path1537-9"
       d="m 35.565197,251.78879 v 14.35838"
       style="fill:none;stroke:#000000;stroke-width:2.11666656;stroke-linecap:butt;stroke-linejoin:miter;stroke-miterlimit:4;stroke-dasharray:none;stroke-opacity:1" />
  </g>
</svg>
