<svg xmlns="http://www.w3.org/2000/svg" viewBox="0 0 52.917 52.917" height="200" width="200"><path d="M120.037 27.78c-3.04.057-5.67 1.63-7.504 5.89l-3.969 6.734-8.56.037-8.56.038-4.007-6.77c-7.3-12.28-13.469-2.258-26.761 2.25-.163.114.582 3.714 1.656 8l1.953 7.793-6.043 6.045-6.043 6.045-6.82-1.824c-3.752-1.004-7.343-1.823-7.98-1.82-.767.002-2.7 3.805-5.71 11.23-2.502 6.174-4.417 11.35-4.252 11.504.165.153 3.306 2.048 6.979 4.21l6.678 3.932-.11 8.696c-.098 7.864-.256 8.772-1.658 9.492-5.182 2.66-11.974 6.751-11.972 7.213.003.84 8.56 21.343 9.18 21.992.3.316 3.992-.299 8.202-1.367l7.655-1.942 4.289 4.535c2.36 2.495 5.09 5.068 6.066 5.72l1.777 1.18-2.005 7.92c-1.104 4.356-1.79 8.137-1.524 8.403s5.24 2.47 11.05 4.895v-.004c5.812 2.425 10.741 4.416 10.954 4.427.213.01 2.251-3.104 4.53-6.92l4.142-6.935h16.623l4.1 6.765c2.255 3.721 4.174 6.869 4.263 6.995.212.3 21.413-8.397 22.223-9.118.342-.304-.284-4.124-1.39-8.49l-2.012-7.94 1.777-1.183c.977-.65 3.707-3.224 6.066-5.719l4.29-4.535 7.654 1.944c4.21 1.068 7.901 1.683 8.203 1.367.591-.622 9.176-21.135 9.18-21.936 0-.266-3.092-2.27-6.874-4.453l-6.877-3.97.012-8.5.012-8.503 6.672-3.988c3.669-2.194 6.804-4.096 6.969-4.226.164-.131-1.748-5.29-4.25-11.463-3.01-7.425-4.943-11.228-5.71-11.23-.637-.003-4.228.816-7.98 1.82l-6.82 1.824-6.045-6.045-6.043-6.047 1.955-7.793c1.074-4.286 1.819-7.89 1.656-8.012-6.172-2.849-13.482-8.273-19.287-8.164zM99.502 74.165c6.29-.134 12.696 2.045 17.894 6.79 11.168 10.19 11.258 27.174.202 37.87-6.893 6.669-18.121 8.764-27.55 5.14-13.307-5.113-19.674-22.056-13.228-35.196 4.55-9.274 13.49-14.408 22.682-14.604z" transform="matrix(.15113 0 0 .1511 20.16 19.923)" fill="#fff" stroke="#000" stroke-width="14.007"/><path d="M120.037 27.78c-3.04.057-5.67 1.63-7.504 5.89l-3.969 6.734-8.56.037-8.56.038-4.007-6.77c-7.3-12.28-13.469-2.258-26.761 2.25-.163.114.582 3.714 1.656 8l1.953 7.793-6.043 6.045-6.043 6.045-6.82-1.824c-3.752-1.004-7.343-1.823-7.98-1.82-.767.002-2.7 3.805-5.71 11.23-2.502 6.174-4.417 11.35-4.252 11.504.165.153 3.306 2.048 6.979 4.21l6.678 3.932-.11 8.696c-.098 7.864-.256 8.772-1.658 9.492-5.182 2.66-11.974 6.751-11.972 7.213.003.84 8.56 21.343 9.18 21.992.3.316 3.992-.299 8.202-1.367l7.655-1.942 4.289 4.535c2.36 2.495 5.09 5.068 6.066 5.72l1.777 1.18-2.005 7.92c-1.104 4.356-1.79 8.137-1.524 8.403s5.24 2.47 11.05 4.895v-.004c5.812 2.425 10.741 4.416 10.954 4.427.213.01 2.251-3.104 4.53-6.92l4.142-6.935h16.623l4.1 6.765c2.255 3.721 4.174 6.869 4.263 6.995.212.3 21.413-8.397 22.223-9.118.342-.304-.284-4.124-1.39-8.49l-2.012-7.94 1.777-1.183c.977-.65 3.707-3.224 6.066-5.719l4.29-4.535 7.654 1.944c4.21 1.068 7.901 1.683 8.203 1.367.591-.622 9.176-21.135 9.18-21.936 0-.266-3.092-2.27-6.874-4.453l-6.877-3.97.012-8.5.012-8.503 6.672-3.988c3.669-2.194 6.804-4.096 6.969-4.226.164-.131-1.748-5.29-4.25-11.463-3.01-7.425-4.943-11.228-5.71-11.23-.637-.003-4.228.816-7.98 1.82l-6.82 1.824-6.045-6.045-6.043-6.047 1.955-7.793c1.074-4.286 1.819-7.89 1.656-8.012-6.172-2.849-13.482-8.273-19.287-8.164zM99.502 74.165c6.29-.134 12.696 2.045 17.894 6.79 11.168 10.19 11.258 27.174.202 37.87-6.893 6.669-18.121 8.764-27.55 5.14-13.307-5.113-19.674-22.056-13.228-35.196 4.55-9.274 13.49-14.408 22.682-14.604z" transform="matrix(.10245 0 0 .10243 3.95 21.335)" fill="#fff" stroke="#000" stroke-width="20.662"/><path d="M21.734 20.552l4.512-4.512 4.535 4.536M26.246 16.04v9.596M31.053 12.218l4.512-4.513 4.536 4.536M35.565 7.705v14.359" fill="none" stroke="#000" stroke-width="2.117"/></svg>