<?xml version="1.0" encoding="UTF-8" standalone="no"?>
<!DOCTYPE svg PUBLIC "-//W3C//DTD SVG 1.1//EN" "http://www.w3.org/Graphics/SVG/1.1/DTD/svg11.dtd">
<svg width="100%" height="100%" viewBox="0 0 72 52" version="1.1" xmlns="http://www.w3.org/2000/svg" xmlns:xlink="http://www.w3.org/1999/xlink" xml:space="preserve" xmlns:serif="http://www.serif.com/" style="fill-rule:evenodd;clip-rule:evenodd;stroke-linejoin:round;stroke-miterlimit:2;">
    <g transform="matrix(1,0,0,1,-55.2018,-58.7946)">
        <g transform="matrix(5.27177,0,0,5.27177,23.4868,18.4867)">
            <path d="M6.516,7.646C6.241,7.647 6.016,7.872 6.016,8.146L6.016,16.947C6.016,17.222 6.241,17.447 6.516,17.447L18.988,17.447C19.263,17.447 19.488,17.222 19.488,16.947L19.488,8.146C19.488,7.872 19.263,7.647 18.988,7.646L6.516,7.646ZM13.859,13.23L12.734,14.201L11.631,13.244L7.875,16.447L17.631,16.447L13.859,13.23ZM7.016,9.24L7.016,15.867L10.867,12.582L7.016,9.24ZM18.488,9.238L14.625,12.57L18.488,15.865L18.488,9.238ZM7.857,8.646L12.734,12.879L17.643,8.646L7.857,8.646Z"/>
        </g>
    </g>
</svg>
