<?xml version="1.0" encoding="UTF-8" standalone="no"?>
<svg
   xmlns:dc="http://purl.org/dc/elements/1.1/"
   xmlns:cc="http://creativecommons.org/ns#"
   xmlns:rdf="http://www.w3.org/1999/02/22-rdf-syntax-ns#"
   xmlns:svg="http://www.w3.org/2000/svg"
   xmlns="http://www.w3.org/2000/svg"
   xmlns:sodipodi="http://sodipodi.sourceforge.net/DTD/sodipodi-0.dtd"
   xmlns:inkscape="http://www.inkscape.org/namespaces/inkscape"
   width="25px"
   height="25px"
   viewBox="0 0 50 50"
   version="1.1"
   xml:space="preserve"
   style="fill-rule:evenodd;clip-rule:evenodd;stroke-linejoin:round;stroke-miterlimit:1.41421;"
   id="svg4"
   sodipodi:docname="email.svg"
   inkscape:version="0.92.5 (0.92.5+69)"><metadata
     id="metadata10"><rdf:RDF><cc:Work
         rdf:about=""><dc:format>image/svg+xml</dc:format><dc:type
           rdf:resource="http://purl.org/dc/dcmitype/StillImage" /><dc:title></dc:title></cc:Work></rdf:RDF></metadata><defs
     id="defs8" /><sodipodi:namedview
     pagecolor="#ffffff"
     bordercolor="#666666"
     borderopacity="1"
     objecttolerance="10"
     gridtolerance="10"
     guidetolerance="10"
     inkscape:pageopacity="0"
     inkscape:pageshadow="2"
     inkscape:window-width="1328"
     inkscape:window-height="704"
     id="namedview6"
     showgrid="false"
     showguides="true"
     inkscape:guide-bbox="true"
     inkscape:zoom="9.44"
     inkscape:cx="18.212314"
     inkscape:cy="7.3140835"
     inkscape:window-x="38"
     inkscape:window-y="27"
     inkscape:window-maximized="1"
     inkscape:current-layer="svg4"><sodipodi:guide
       position="25.467829,26.216883"
       orientation="1,0"
       id="guide824"
       inkscape:locked="false" /></sodipodi:namedview><path
     style="fill:#ffffff;stroke-width:0.5"
     d="M 12.5 1.75 C 6.567 1.75 1.75 6.567 1.75 12.5 C 1.75 18.433 6.567 23.25 12.5 23.25 C 18.433 23.25 23.25 18.433 23.25 12.5 C 23.25 6.567 18.433 1.75 12.5 1.75 z M 6.515625 7.6464844 L 18.988281 7.6464844 A 0.50005 0.50005 0 0 1 19.488281 8.1464844 L 19.488281 16.947266 A 0.50005 0.50005 0 0 1 18.988281 17.447266 L 6.515625 17.447266 A 0.50005 0.50005 0 0 1 6.015625 16.947266 L 6.015625 8.1464844 A 0.50005 0.50005 0 0 1 6.515625 7.6464844 z M 7.8574219 8.6464844 L 12.734375 12.878906 L 17.642578 8.6464844 L 7.8574219 8.6464844 z M 18.488281 9.2382812 L 14.625 12.570312 L 18.488281 15.865234 L 18.488281 9.2382812 z M 7.015625 9.2402344 L 7.015625 15.867188 L 10.867188 12.582031 L 7.015625 9.2402344 z M 13.859375 13.230469 L 12.734375 14.201172 L 11.630859 13.244141 L 7.875 16.447266 L 17.630859 16.447266 L 13.859375 13.230469 z "
     transform="scale(2)"
     id="path2" /><g
     inkscape:groupmode="layer"
     id="layer1"
     inkscape:label="Layer 1"
     style="display:inline" /></svg>