<svg xmlns="http://www.w3.org/2000/svg" viewBox="0 0 160000 120000" height="200" width="200" clip-rule="evenodd" fill-rule="evenodd" stroke-linecap="round" stroke-linejoin="round" stroke-miterlimit="1.5"><circle r="27612.164" cy="60156.25" cx="80156.25" fill="#fffffb" stroke="#333" stroke-width="6400" stroke-miterlimit="4"/><path d="M63859.648 81248.245c0-4322.131 1716.958-8467.236 4773.164-11523.441 3056.205-3056.206 7201.31-4773.165 11523.438-4773.165 4322.127 0 8467.231 1716.958 11523.437 4773.164 3056.207 3056.206 4773.164 7201.31 4773.164 11523.442" fill="none" stroke="#333" stroke-width="3200" stroke-miterlimit="4"/><circle r="9280.776" cy="51169.707" cx="80156.25" fill="none" stroke="#333" stroke-width="3200" stroke-miterlimit="4"/><g fill="none" stroke="#333" stroke-width="6400"><path d="M80000 122322.33V98346.992l-9446.508 9446.508M80000 122322.33V98346.992l9446.508 9446.508"/></g><g fill="none" stroke="#333" stroke-width="6400"><path d="M35934.243 104069.696l16953.124-16953.124h-13359.38M35934.243 104069.696l16953.124-16953.124v13359.38"/></g><g fill="none" stroke="#333" stroke-width="6400"><path d="M17681.608 60003.938h23975.338l-9446.508-9446.508M17681.608 60003.938h23975.338l-9446.508 9446.508"/></g><g fill="none" stroke="#333" stroke-width="6400"><path d="M35934.243 15938.18l16953.124 16953.125v-13359.38M35934.243 15938.18l16953.124 16953.125h-13359.38"/></g><g fill="none" stroke="#333" stroke-width="6400"><path d="M80000-2314.454v23975.338l9446.508-9446.508M80000-2314.454v23975.338l-9446.508-9446.508"/></g><g fill="none" stroke="#333" stroke-width="6400"><path d="M124065.758 15938.18l-16953.124 16953.124h13359.38"/><path d="M124065.758 15938.18l-16953.124 16953.124v-13359.38"/></g><g fill="none" stroke="#333" stroke-width="6400"><path d="M142318.392 60003.938h-23975.338l9446.508 9446.508M142318.392 60003.938h-23975.338l9446.508-9446.508"/></g><g fill="none" stroke="#333" stroke-width="6400"><path d="M124065.758 104069.695l-16953.124-16953.124v13359.38"/><path d="M124065.758 104069.695l-16953.124-16953.124h13359.38"/></g></svg>