<?xml version="1.0" encoding="UTF-8" standalone="no"?>
<!DOCTYPE svg PUBLIC "-//W3C//DTD SVG 1.1//EN" "http://www.w3.org/Graphics/SVG/1.1/DTD/svg11.dtd">
<svg width="100%" height="100%" viewBox="0 0 400 400" version="1.1" xmlns="http://www.w3.org/2000/svg" xmlns:xlink="http://www.w3.org/1999/xlink" xml:space="preserve" xmlns:serif="http://www.serif.com/" style="fill-rule:evenodd;clip-rule:evenodd;stroke-linecap:square;stroke-miterlimit:1.5;">
    <g transform="matrix(1,0,0,1,-16.8416,-13.2658)">
        <circle cx="216.808" cy="213.266" r="186.734" style="fill:rgb(108,138,216);"/>
    </g>
    <g id="Environmental">
        <g id="Arrows">
            <g>
                <g transform="matrix(1,0,0,1,-37.2743,-29.8503)">
                    <path d="M105.351,191.8C118.827,145.057 156.498,108.527 203.9,96.668" style="fill:none;stroke:white;stroke-width:8px;"/>
                </g>
                <g transform="matrix(0.866025,0.5,-0.5,0.866025,151.322,-1.68565)">
                    <path d="M24.303,50L50,50" style="fill:none;stroke:white;stroke-width:8px;"/>
                    <g transform="matrix(6.12323e-17,-1,1,6.12323e-17,0,100)">
                        <path d="M24.303,50L50,50" style="fill:none;stroke:white;stroke-width:8px;"/>
                    </g>
                </g>
            </g>
            <g transform="matrix(6.12323e-17,1,-1,6.12323e-17,399.967,0.0333347)">
                <g transform="matrix(1,0,0,1,-37.2743,-29.8503)">
                    <path d="M105.351,191.8C118.827,145.057 156.498,108.527 203.9,96.668" style="fill:none;stroke:white;stroke-width:8px;"/>
                </g>
                <g transform="matrix(0.866025,0.5,-0.5,0.866025,151.322,-1.68565)">
                    <path d="M24.303,50L50,50" style="fill:none;stroke:white;stroke-width:8px;"/>
                    <g transform="matrix(6.12323e-17,-1,1,6.12323e-17,0,100)">
                        <path d="M24.303,50L50,50" style="fill:none;stroke:white;stroke-width:8px;"/>
                    </g>
                </g>
            </g>
            <g transform="matrix(-1,1.22465e-16,-1.22465e-16,-1,399.933,400)">
                <g transform="matrix(1,0,0,1,-37.2743,-29.8503)">
                    <path d="M105.351,191.8C118.827,145.057 156.498,108.527 203.9,96.668" style="fill:none;stroke:white;stroke-width:8px;"/>
                </g>
                <g transform="matrix(0.866025,0.5,-0.5,0.866025,151.322,-1.68565)">
                    <path d="M24.303,50L50,50" style="fill:none;stroke:white;stroke-width:8px;"/>
                    <g transform="matrix(6.12323e-17,-1,1,6.12323e-17,0,100)">
                        <path d="M24.303,50L50,50" style="fill:none;stroke:white;stroke-width:8px;"/>
                    </g>
                </g>
            </g>
            <g transform="matrix(6.12323e-17,-1,1,6.12323e-17,-0.0333347,399.967)">
                <g transform="matrix(1,0,0,1,-37.2743,-29.8503)">
                    <path d="M105.351,191.8C118.827,145.057 156.498,108.527 203.9,96.668" style="fill:none;stroke:white;stroke-width:8px;"/>
                </g>
                <g transform="matrix(0.866025,0.5,-0.5,0.866025,151.322,-1.68565)">
                    <path d="M24.303,50L50,50" style="fill:none;stroke:white;stroke-width:8px;"/>
                    <g transform="matrix(6.12323e-17,-1,1,6.12323e-17,0,100)">
                        <path d="M24.303,50L50,50" style="fill:none;stroke:white;stroke-width:8px;"/>
                    </g>
                </g>
            </g>
        </g>
        <g id="Globe">
            <g transform="matrix(1,0,0,1,5.23153,30.7295)">
                <circle cx="194.768" cy="169.27" r="76.695" style="fill:none;stroke:white;stroke-width:8px;"/>
            </g>
            <path d="M200,123.305L200,276.695" style="fill:none;stroke:white;stroke-width:8px;"/>
            <path d="M129.727,169.656L269.784,169.656" style="fill:none;stroke:white;stroke-width:8px;"/>
            <path d="M129.727,230.344L269.784,230.344" style="fill:none;stroke:white;stroke-width:8px;"/>
            <path d="M176.668,128.189C145.93,173.325 145.689,229.399 176.668,272.386" style="fill:none;stroke:white;stroke-width:8px;"/>
            <g transform="matrix(-1,0,0,1,400.787,0)">
                <path d="M176.668,128.189C145.93,173.325 145.689,229.399 176.668,272.386" style="fill:none;stroke:white;stroke-width:8px;"/>
            </g>
        </g>
    </g>
</svg>
