<svg xmlns="http://www.w3.org/2000/svg" width="200" height="200" viewBox="0 0 160000 120000" clip-rule="evenodd" fill-rule="evenodd" stroke-linecap="round" stroke-linejoin="round" stroke-miterlimit="1.5"><path d="M53953.1 66849.957v4851.311h-4929.362v4517.485H34703.012v-4517.485h-4928.891v-4851.311H24533.5V45737.019c0-1074.83 873.123-1947.483 1947.953-1947.483h30764.312c1074.83 0 1947.483 872.653 1947.483 1947.483v21112.938zM29963.602 45877.603h-2907.12v6160.29h2907.12zm3786.826 0h-2907.12v6160.29h2907.12zm3905.78 0h-2907.12v6160.29h2907.12zm3836.665 0h-2907.59v6160.29h2907.59zm3894.966 0h-2907.12v6160.29h2907.12zm3563.02 0h-2907.12v6160.29h2907.12zm3921.767 0h-2907.12v6160.29h2907.12zm3798.11 0h-2907.59v6160.29h2907.59z" fill="#6a87da"/><path d="M66016.79 43302.43c0-3893.556-3161.016-7054.573-7054.572-7054.573H24765.126c-3893.556 0-7054.572 3161.017-7054.572 7054.573v33403.429c0 3893.556 3161.016 7054.572 7054.572 7054.572h34197.092c3893.556 0 7054.573-3161.016 7054.573-7054.572z" fill="none" stroke-width="1786.6819099999998" stroke="#333"/><g><path d="M122217.06 78968.63l-18421.418 9822.896c9513.59-12915.372 15630.985-26988.116 18421.418-42193.67v44239.873L110284.87 78905.541c4285.025-3766.356 8346.166-7686.246 11932.189-11932.186l-4333.04-4333.04M115455.932 68717.512l6761.128 10251.117" fill="none" stroke="#333" stroke-width="1786.41163206"/><g stroke="#333" fill="none" stroke-width="3.2"><path d="M122217.522 78968.63l18421.416 9822.895c-9513.59-12915.37-15630.986-26988.115-18421.416-42193.67V90837.73l11932.187-11932.187c-4285.024-3766.355-8346.167-7686.245-11932.187-11932.188l4333.038-4333.038M128978.648 68717.513l-6761.126 10251.118" stroke-width="1786.5898560000003"/></g><circle r="5.462" cy="69.571" cx="306.8" stroke-width="3.2" transform="matrix(558.30933 0 0 558.30933 -49072.141 4706.36)" fill="#6a87da" stroke="#6a87da"/><g stroke="#333"><path d="M211.396 77.61c0-13.889 11.276-25.165 25.165-25.165M261.725 77.61c0 13.888-11.276 25.164-25.164 25.164" fill="none" stroke-width="6.24" transform="rotate(-45 120811.534 -32711.348) scale(287.3153 285.02911)"/><path d="M187.945 82.779c0-25.958 21.075-47.033 47.033-47.033M282.011 82.779c0 25.959-21.074 47.033-47.033 47.033" fill="none" stroke-width="6.24" transform="rotate(-45 118805.556 -32523.44) scale(287.3153 285.02911)"/><path d="M307.229 87.512c0 38.73-31.443 70.173-70.172 70.173M166.884 87.512c0-38.729 31.444-70.172 70.173-70.172" fill="none" stroke-width="6.24" transform="rotate(-45 117475.72 -31128.009) scale(287.3153 285.02911)"/></g></g></svg>