<?xml version="1.0" encoding="UTF-8" standalone="no"?>
<!DOCTYPE svg PUBLIC "-//W3C//DTD SVG 1.1//EN" "http://www.w3.org/Graphics/SVG/1.1/DTD/svg11.dtd">
<svg width="100%" height="100%" viewBox="0 0 800 600" version="1.1" xmlns="http://www.w3.org/2000/svg" xmlns:xlink="http://www.w3.org/1999/xlink" xml:space="preserve" xmlns:serif="http://www.serif.com/" style="fill-rule:evenodd;clip-rule:evenodd;stroke-linecap:round;stroke-linejoin:round;stroke-miterlimit:1.5;">
    <g transform="matrix(2.04501,0,0,2.04501,-18.5928,95.499)">
        <g transform="matrix(1.2873,0,0,1.2873,-45.2311,-32.301)">
            <path d="M130.763,117.334L130.763,127.652L120.279,127.652L120.279,137.26L89.821,137.26L89.821,127.652L79.338,127.652L79.338,117.334L68.192,117.334L68.192,72.43C68.192,70.144 70.049,68.288 72.335,68.288L137.766,68.288C140.052,68.288 141.908,70.144 141.908,72.43L141.908,117.334L130.763,117.334ZM79.741,72.729L73.558,72.729L73.558,85.831L79.741,85.831L79.741,72.729ZM87.795,72.729L81.612,72.729L81.612,85.831L87.795,85.831L87.795,72.729ZM96.102,72.729L89.919,72.729L89.919,85.831L96.102,85.831L96.102,72.729ZM104.262,72.729L98.078,72.729L98.078,85.831L104.262,85.831L104.262,72.729ZM112.546,72.729L106.363,72.729L106.363,85.831L112.546,85.831L112.546,72.729ZM120.124,72.729L113.941,72.729L113.941,85.831L120.124,85.831L120.124,72.729ZM128.465,72.729L122.282,72.729L122.282,85.831L128.465,85.831L128.465,72.729ZM136.543,72.729L130.359,72.729L130.359,85.831L136.543,85.831L136.543,72.729Z" style="fill-opacity:0.9;"/>
            <g transform="matrix(1,0,0,1,-0.268368,0)">
                <path d="M156.689,67.252C156.689,58.971 149.966,52.248 141.685,52.248L68.953,52.248C60.672,52.248 53.949,58.971 53.949,67.252L53.949,138.296C53.949,146.577 60.672,153.3 68.953,153.3L141.685,153.3C149.966,153.3 156.689,146.577 156.689,138.296L156.689,67.252Z" style="fill:none;stroke:black;stroke-width:3.8px;"/>
            </g>
        </g>
        <g transform="matrix(1,0,0,1,2.60657,10.8501)">
            <g transform="matrix(1,0,0,1,0.163941,0)">
                <g transform="matrix(1.52859,0,0,1.52859,-162.649,-68.7417)">
                    <g transform="matrix(1,0,0,1,0.593186,4.24723)">
                        <circle cx="306.8" cy="69.571" r="5.462" style="stroke:black;stroke-width:3.2px;"/>
                    </g>
                    <path d="M307.393,137.26L274.398,154.854C291.438,131.721 302.395,106.515 307.393,79.28L307.393,158.519L286.021,137.147C293.696,130.401 300.97,123.38 307.393,115.775L299.632,108.014" style="fill:none;stroke:black;stroke-width:3.2px;"/>
                    <path d="M295.283,118.899L307.393,137.26" style="fill:none;stroke:black;stroke-width:3.2px;"/>
                </g>
                <g transform="matrix(-1.52859,0,0,1.52859,777.108,-68.7417)">
                    <path d="M307.393,137.26L274.398,154.854C291.438,131.721 302.395,106.515 307.393,79.28L307.393,158.519L286.021,137.147C293.696,130.401 300.97,123.38 307.393,115.775L299.632,108.014" style="fill:none;stroke:black;stroke-width:3.2px;"/>
                    <path d="M295.283,118.899L307.393,137.26" style="fill:none;stroke:black;stroke-width:3.2px;"/>
                </g>
            </g>
            <g transform="matrix(0.556237,-0.556237,0.551811,0.551811,127.244,127.334)">
                <g transform="matrix(1,0,0,1,0.496152,9.90259)">
                    <path d="M211.396,77.61C211.396,63.721 222.672,52.445 236.561,52.445" style="fill:none;stroke:black;stroke-width:6.24px;"/>
                </g>
                <g transform="matrix(1,0,0,1,0.496152,9.90259)">
                    <path d="M261.725,77.61C261.725,91.498 250.449,102.774 236.561,102.774" style="fill:none;stroke:black;stroke-width:6.24px;"/>
                </g>
                <g transform="matrix(1,0,0,1,2.07862,4.73302)">
                    <path d="M187.945,82.779C187.945,56.821 209.02,35.746 234.978,35.746" style="fill:none;stroke:black;stroke-width:6.24px;"/>
                </g>
                <g transform="matrix(1,0,0,1,2.07862,4.73302)">
                    <path d="M282.011,82.779C282.011,108.738 260.937,129.812 234.978,129.812" style="fill:none;stroke:black;stroke-width:6.24px;"/>
                </g>
                <path d="M307.229,87.512C307.229,126.242 275.786,157.685 237.057,157.685" style="fill:none;stroke:black;stroke-width:6.24px;"/>
                <path d="M166.884,87.512C166.884,48.783 198.328,17.34 237.057,17.34" style="fill:none;stroke:black;stroke-width:6.24px;"/>
            </g>
        </g>
    </g>
</svg>
