<svg width="25px" height="25px" viewBox="0 0 50 50" version="1.1" xmlns="http://www.w3.org/2000/svg" xmlns:xlink="http://www.w3.org/1999/xlink" xml:space="preserve" xmlns:serif="http://www.serif.com/" style="fill-rule:evenodd;clip-rule:evenodd;stroke-linejoin:round;stroke-miterlimit:1.41421;"><path d="M25,3.5c11.866,0 21.5,9.634 21.5,21.5c0,11.866 -9.634,21.5 -21.5,21.5c-11.866,0 -21.5,-9.634 -21.5,-21.5c0,-11.866 9.634,-21.5 21.5,-21.5Zm4.721,14.807l0,-3.015l-3.992,0c0,0 -0.151,0.043 -0.387,0.112c-1.708,0.497 -2.882,2.062 -2.882,3.841l0,2.755l-3.46,0l0,3l3.46,0l0,9.607l3.269,0l0,-9.607l3.492,0l0.335,-3l-3.827,0l0,-3c0.182,-0.359 0.815,-0.756 1.207,-0.693l2.785,0Z" style="fill:#fff;"/></svg>