<svg xmlns="http://www.w3.org/2000/svg" viewBox="0 0 800 600" fill-rule="evenodd" clip-rule="evenodd" stroke-linecap="round" stroke-linejoin="round" stroke-miterlimit="1.5"><path d="M226.739 304.723c101.955 111.817 213.158 137.946 342.018.45-106.532-115.584-219.326-134.458-342.018-.45z" fill="#fff"/><path d="M397.355 268.194c-20.67 0-37.641 16.97-37.641 37.639 0 20.67 16.97 37.64 37.64 37.64s37.64-16.97 37.64-37.64-16.97-37.639-37.64-37.639zm0 20c9.86 0 17.638 7.778 17.638 17.639 0 9.86-7.778 17.64-17.638 17.64-9.861 0-17.641-7.78-17.641-17.64 0-9.861 7.78-17.639 17.64-17.639z" style="line-height:normal;font-variant-ligatures:normal;font-variant-position:normal;font-variant-caps:normal;font-variant-numeric:normal;font-variant-alternates:normal;font-feature-settings:normal;text-indent:0;text-align:start;text-decoration-line:none;text-decoration-style:solid;text-decoration-color:#000;text-transform:none;text-orientation:mixed;white-space:normal;shape-padding:0;isolation:auto;mix-blend-mode:normal;solid-color:#000;solid-opacity:1" color="#000" font-weight="400" font-family="sans-serif" clip-rule="nonzero" overflow="visible" fill-rule="nonzero"/><path d="M397.637 199.874c-1.862 0-3.724.033-5.585.1-75.026 6.648-143.872 57.583-180.727 105.635 50.56 58.9 121.265 104.216 186.03 104.66 11.77 0 23.092-1.963 33.66-5.574 62.11-13.588 100.993-45.78 151.591-99.086-48.87-52.044-113.277-105.735-184.969-105.735zm-.283 21.526c46.75 0 84.434 37.683 84.434 84.433 0 46.75-37.683 84.436-84.434 84.436-46.75 0-84.435-37.685-84.435-84.436 0-46.75 37.685-84.433 84.435-84.433zm-86.181 25.537c-11.509 16.78-18.254 37.069-18.254 58.896 0 19.644 5.462 38.04 14.943 53.756-21.88-14.363-43.542-33.114-64.797-54.978 22.751-24.382 45.456-43.68 68.108-57.674zm172.564.293c21.816 13.878 44.059 33.282 66.805 58.847-21.864 23.467-43.67 42.274-65.338 56.147 10.49-16.278 16.584-35.64 16.584-56.39 0-21.7-6.665-41.88-18.05-58.604z" style="line-height:normal;font-variant-ligatures:normal;font-variant-position:normal;font-variant-caps:normal;font-variant-numeric:normal;font-variant-alternates:normal;font-feature-settings:normal;text-indent:0;text-align:start;text-decoration-line:none;text-decoration-style:solid;text-decoration-color:#000;text-transform:none;text-orientation:mixed;white-space:normal;shape-padding:0;isolation:auto;mix-blend-mode:normal;solid-color:#000;solid-opacity:1" color="#000" font-weight="400" font-family="sans-serif" overflow="visible"/><path d="M189.191 122.296v79.551h24.495V146.79h55.054v-24.494h-55.054zM604.74 122.296v79.551h-24.494V146.79h-55.055v-24.494h55.055zM189.191 487.847v-79.551h24.495v55.057h55.054v24.494h-55.054zM604.74 487.847v-79.551h-24.494v55.057h-55.055v24.494h55.055z"/></svg>