<svg xmlns="http://www.w3.org/2000/svg" width="200" height="200" viewBox="0 0 160000 120000" clip-rule="evenodd" fill-rule="evenodd" stroke-linecap="round" stroke-linejoin="round" stroke-miterlimit="1.5"><path d="M147816.342 99153.78L80000 138307.57 12183.657 99153.78V20846.214L80000-18307.569l67816.343 39153.783z" fill="#64c7cc"/><path d="M47243.378 60334.696c18596.622 17860.949 38118.35 30171.25 64751.22-185.277-23592.547-28922.473-44596.012-20488.161-64751.22 185.277z" fill="#fff"/><g stroke-width="4.145"><path d="M80075.016 52882.785c-3989.137 0-7264.468 3274.958-7264.468 7264.096 0 3989.138 3275.33 7264.462 7264.468 7264.462s7264.09-3275.324 7264.09-7264.462c0-3989.138-3274.952-7264.096-7264.09-7264.096zm0 3859.908c1903.087 0 3404.182 1501.1 3404.182 3404.188 0 1903.089-1501.095 3404.555-3404.182 3404.555-1903.089 0-3404.56-1501.466-3404.56-3404.555s1501.471-3404.188 3404.56-3404.188z" style="line-height:normal;font-variant-ligatures:normal;font-variant-position:normal;font-variant-caps:normal;font-variant-numeric:normal;font-variant-alternates:normal;font-feature-settings:normal;text-indent:0;text-align:start;text-decoration-line:none;text-decoration-style:solid;text-decoration-color:#000;text-transform:none;text-orientation:mixed;white-space:normal;shape-padding:0;isolation:auto;mix-blend-mode:normal;solid-color:#000;solid-opacity:1" color="#000" font-weight="400" font-family="sans-serif" clip-rule="nonzero" overflow="visible" fill-rule="nonzero"/><path d="M80129.624 39697.412c-359.357-.083-718.834 6.369-1078.058 19.222-14479.53 1283.037-27766.45 11113.17-34879.307 20386.989 9757.595 11367.425 23403.575 20113.358 35902.71 20198.961 2271.619 0 4456.82-378.908 6496.255-1075.798 11987.212-2622.262 19491.332-8835.24 29256.519-19123.128-9431.697-10044.231-21862.013-20406.246-35698.119-20406.246zm-54.656 4154.3c9022.612 0 16295.296 7272.685 16295.296 16295.296 0 9022.612-7272.684 16295.67-16295.296 16295.67-9022.612 0-16295.67-7273.058-16295.67-16295.67 0-9022.611 7273.058-16295.295 16295.67-16295.295zm-16632.66 4928.545c-2221.108 3238.64-3522.918 7154.114-3522.918 11366.751 0 3791.111 1054.278 7341.425 2883.998 10374.634-4222.882-2772.095-8403.396-6390.803-12505.497-10610.601 4390.863-4705.62 8772.675-8429.946 13144.418-11130.784zm33304.144 56.542c4210.42 2678.365 8503.178 6423.215 12892.998 11357.327-4219.627 4528.94-8427.986 8158.664-12609.912 10836.012 2024.383-3141.64 3200.634-6878.217 3200.634-10883.13 0-4188.032-1286.346-8082.631-3483.72-11310.209z" style="line-height:normal;font-variant-ligatures:normal;font-variant-position:normal;font-variant-caps:normal;font-variant-numeric:normal;font-variant-alternates:normal;font-feature-settings:normal;text-indent:0;text-align:start;text-decoration-line:none;text-decoration-style:solid;text-decoration-color:#000;text-transform:none;text-orientation:mixed;white-space:normal;shape-padding:0;isolation:auto;mix-blend-mode:normal;solid-color:#000;solid-opacity:1" color="#000" font-weight="400" font-family="sans-serif" overflow="visible"/><path d="M39900.496 24725.186V40078.12h4727.256V29452.442h10625.301v-4727.256H44627.752zM120099.504 24725.188v15352.938h-4727.256v-10625.69h-10625.301v-4727.248h10625.301zM39900.496 95274.816V79921.882h4727.256v10625.677h10625.301v4727.257H44627.752zM120099.504 95274.814V79921.875h-4727.256v10625.69h-10625.301v4727.249h10625.301z"/></g></svg>