<?xml version="1.0" encoding="UTF-8" standalone="no"?>
<svg
   xmlns:dc="http://purl.org/dc/elements/1.1/"
   xmlns:cc="http://creativecommons.org/ns#"
   xmlns:rdf="http://www.w3.org/1999/02/22-rdf-syntax-ns#"
   xmlns:svg="http://www.w3.org/2000/svg"
   xmlns="http://www.w3.org/2000/svg"
   width="200"
   height="200"
   viewBox="0 0 160000 120000"
   version="1.1"
   xml:space="preserve"
   style="clip-rule:evenodd;fill-rule:evenodd;stroke-linecap:round;stroke-linejoin:round;stroke-miterlimit:1.5"
   id="svg1191"><metadata
   id="metadata1197"><rdf:RDF><cc:Work
       rdf:about=""><dc:format>image/svg+xml</dc:format><dc:type
         rdf:resource="http://purl.org/dc/dcmitype/StillImage" /><dc:title></dc:title></cc:Work></rdf:RDF></metadata><defs
   id="defs1195" />
    
    
<g
   transform="matrix(0.71483338,0,0,0.71483338,114.06665,159285.55)"
   id="g990"><path
     style="opacity:1;fill:#64c7cc;fill-opacity:1;stroke:none;stroke-width:1548.17675781;stroke-linecap:round;stroke-linejoin:round;stroke-miterlimit:4;stroke-dasharray:none;stroke-dashoffset:0;stroke-opacity:1;paint-order:normal"
     d="M 206624.76,-84119.98 111754.62,-29346.673 16884.481,-84119.98 v -109546.6 l 94870.139,-54773.3 94870.14,54773.3 z"
     id="path1134-4-1" /><path
     id="path1883"
     d="m 65930.485,-138425.06 c 26015.324,24986.17 53324.805,42207.388 90582.255,-259.19 -33004.26,-40460.44 -62386.583,-28661.45 -90582.255,259.19 z"
     style="fill:#ffffff;fill-opacity:1;stroke:none;stroke-width:1119.1418457px;stroke-linecap:butt;stroke-linejoin:miter;stroke-opacity:1" /><g
     transform="matrix(269.98654,0,0,269.98654,4579.1926,-221258.51)"
     id="g1881"
     style="clip-rule:evenodd;fill-rule:evenodd;stroke-width:4.14517689;stroke-linecap:round;stroke-linejoin:round;stroke-miterlimit:1.5"><g
       style="opacity:1;fill:#000000;fill-opacity:1;stroke-width:4.14517689"
       transform="translate(-2.941155,715.50715)"
       id="g5506"><path
         id="path5564"
         d="m 400.29567,-447.31316 c -20.6696,0 -37.64063,16.9691 -37.64063,37.6387 0,20.6696 16.97103,37.6406 37.64063,37.6406 20.6696,0 37.63867,-16.971 37.63867,-37.6406 0,-20.6696 -16.96907,-37.6387 -37.63867,-37.6387 z m 0,20 c 9.86079,0 17.63867,7.7779 17.63867,17.6387 0,9.8608 -7.77788,17.6406 -17.63867,17.6406 -9.8608,0 -17.64063,-7.7798 -17.64063,-17.6406 0,-9.8608 7.77983,-17.6387 17.64063,-17.6387 z"
         style="color:#000000;font-style:normal;font-variant:normal;font-weight:normal;font-stretch:normal;font-size:medium;line-height:normal;font-family:sans-serif;font-variant-ligatures:normal;font-variant-position:normal;font-variant-caps:normal;font-variant-numeric:normal;font-variant-alternates:normal;font-feature-settings:normal;text-indent:0;text-align:start;text-decoration:none;text-decoration-line:none;text-decoration-style:solid;text-decoration-color:#000000;letter-spacing:normal;word-spacing:normal;text-transform:none;writing-mode:lr-tb;direction:ltr;text-orientation:mixed;dominant-baseline:auto;baseline-shift:baseline;text-anchor:start;white-space:normal;shape-padding:0;clip-rule:nonzero;display:inline;overflow:visible;visibility:visible;opacity:1;isolation:auto;mix-blend-mode:normal;color-interpolation:sRGB;color-interpolation-filters:linearRGB;solid-color:#000000;solid-opacity:1;vector-effect:none;fill:#000000;fill-opacity:1;fill-rule:nonzero;stroke:none;stroke-width:82.90353394;stroke-linecap:butt;stroke-linejoin:miter;stroke-miterlimit:1.5;stroke-dasharray:none;stroke-dashoffset:0;stroke-opacity:1;color-rendering:auto;image-rendering:auto;shape-rendering:auto;text-rendering:auto;enable-background:accumulate" /><path
         id="path5564-5"
         d="m 400.57862,-515.63279 c -1.862,-4.3e-4 -3.72462,0.033 -5.58593,0.0996 -75.02526,6.64802 -143.87105,57.58257 -180.72611,105.63459 50.55869,58.89998 121.26494,104.21678 186.02884,104.66033 11.77033,0 23.09289,-1.9633 33.66016,-5.57422 62.11139,-13.58717 100.99377,-45.77954 151.5918,-99.08593 C 536.67732,-461.94231 472.27,-515.63279 400.57862,-515.63279 Z m -0.2832,21.52539 c 46.7504,0 84.4336,37.6832 84.4336,84.4336 0,46.7504 -37.6832,84.43554 -84.4336,84.43554 -46.7504,0 -84.43554,-37.68514 -84.43554,-84.43554 0,-46.7504 37.68514,-84.4336 84.43554,-84.4336 z m -86.18164,25.53711 c -11.50861,16.78092 -18.2539,37.06883 -18.2539,58.89649 0,19.64353 5.46271,38.03938 14.94335,53.75586 -21.88074,-14.36353 -43.54195,-33.11376 -64.79687,-54.97852 22.75113,-24.38203 45.45536,-43.67952 68.10742,-57.67383 z m 172.56445,0.29297 c 21.81617,13.87787 44.05897,33.2817 66.80469,58.84766 -21.86387,23.46657 -43.66936,42.27388 -65.33789,56.14648 10.48928,-16.27832 16.58399,-35.63928 16.58399,-56.39062 0,-21.70017 -6.66516,-41.87992 -18.05079,-58.60352 z"
         style="color:#000000;font-style:normal;font-variant:normal;font-weight:normal;font-stretch:normal;font-size:medium;line-height:normal;font-family:sans-serif;font-variant-ligatures:normal;font-variant-position:normal;font-variant-caps:normal;font-variant-numeric:normal;font-variant-alternates:normal;font-feature-settings:normal;text-indent:0;text-align:start;text-decoration:none;text-decoration-line:none;text-decoration-style:solid;text-decoration-color:#000000;letter-spacing:normal;word-spacing:normal;text-transform:none;writing-mode:lr-tb;direction:ltr;text-orientation:mixed;dominant-baseline:auto;baseline-shift:baseline;text-anchor:start;white-space:normal;shape-padding:0;clip-rule:evenodd;display:inline;overflow:visible;visibility:visible;opacity:1;isolation:auto;mix-blend-mode:normal;color-interpolation:sRGB;color-interpolation-filters:linearRGB;solid-color:#000000;solid-opacity:1;vector-effect:none;fill:#000000;fill-opacity:1;fill-rule:evenodd;stroke:none;stroke-width:82.90353394;stroke-linecap:round;stroke-linejoin:miter;stroke-miterlimit:1.5;stroke-dasharray:none;stroke-dashoffset:0;stroke-opacity:1;color-rendering:auto;image-rendering:auto;shape-rendering:auto;text-rendering:auto;enable-background:accumulate" /><path
         id="rect5546"
         d="m 192.13256,-593.21094 v 24.49414 55.05664 h 24.49414 v -55.05664 h 55.05469 v -24.49414 H 216.6267 Z"
         style="opacity:1;fill:#000000;fill-opacity:1;stroke:none;stroke-width:41.45438004;stroke-linejoin:miter;stroke-miterlimit:1.5;stroke-dasharray:none;stroke-dashoffset:0;stroke-opacity:1" /><path
         id="rect5546-5"
         d="m 607.68139,-593.21093 v 24.4941 55.0567 h -24.49414 v -55.0567 h -55.05469 v -24.4941 h 55.05469 z"
         style="clip-rule:evenodd;opacity:1;fill:#000000;fill-opacity:1;fill-rule:evenodd;stroke:none;stroke-width:41.45438004;stroke-linecap:round;stroke-linejoin:miter;stroke-miterlimit:1.5;stroke-dasharray:none;stroke-dashoffset:0;stroke-opacity:1" /><path
         id="rect5546-2"
         d="m 192.13256,-227.66009 v -24.49414 -55.05664 h 24.49414 v 55.05664 h 55.05469 v 24.49414 H 216.6267 Z"
         style="clip-rule:evenodd;opacity:1;fill:#000000;fill-opacity:1;fill-rule:evenodd;stroke:none;stroke-width:41.45438004;stroke-linecap:round;stroke-linejoin:miter;stroke-miterlimit:1.5;stroke-dasharray:none;stroke-dashoffset:0;stroke-opacity:1" /><path
         id="rect5546-5-9"
         d="m 607.68139,-227.6601 v -24.4941 -55.0567 h -24.49414 v 55.0567 h -55.05469 v 24.4941 h 55.05469 z"
         style="clip-rule:evenodd;opacity:1;fill:#000000;fill-opacity:1;fill-rule:evenodd;stroke:none;stroke-width:41.45438004;stroke-linecap:round;stroke-linejoin:miter;stroke-miterlimit:1.5;stroke-dasharray:none;stroke-dashoffset:0;stroke-opacity:1" /></g></g></g></svg>