<?xml version="1.0" encoding="UTF-8" standalone="no"?>
<!-- Created with Inkscape (http://www.inkscape.org/) -->

<svg
   xmlns:dc="http://purl.org/dc/elements/1.1/"
   xmlns:cc="http://creativecommons.org/ns#"
   xmlns:rdf="http://www.w3.org/1999/02/22-rdf-syntax-ns#"
   xmlns:svg="http://www.w3.org/2000/svg"
   xmlns="http://www.w3.org/2000/svg"
   xmlns:sodipodi="http://sodipodi.sourceforge.net/DTD/sodipodi-0.dtd"
   xmlns:inkscape="http://www.inkscape.org/namespaces/inkscape"
   width="200"
   height="200"
   viewBox="0 0 52.916665 52.916668"
   version="1.1"
   id="svg8"
   inkscape:version="0.92.5 (2060ec1f9f, 2020-04-08)"
   sodipodi:docname="food.svg">
  <defs
     id="defs2" />
  <sodipodi:namedview
     id="base"
     pagecolor="#ffffff"
     bordercolor="#666666"
     borderopacity="1.0"
     inkscape:pageopacity="0.0"
     inkscape:pageshadow="2"
     inkscape:zoom="3.959798"
     inkscape:cx="125.86573"
     inkscape:cy="96.608508"
     inkscape:document-units="px"
     inkscape:current-layer="layer1-3"
     showgrid="false"
     units="px"
     showguides="true"
     inkscape:guide-bbox="true"
     inkscape:window-width="2800"
     inkscape:window-height="1672"
     inkscape:window-x="80"
     inkscape:window-y="54"
     inkscape:window-maximized="1">
    <sodipodi:guide
       position="5.2916666,9.3544337"
       orientation="1,0"
       id="guide815"
       inkscape:locked="false"
       inkscape:label=""
       inkscape:color="rgb(0,0,255)" />
    <sodipodi:guide
       position="47.625,11.358955"
       orientation="1,0"
       id="guide817"
       inkscape:locked="false"
       inkscape:label=""
       inkscape:color="rgb(0,0,255)" />
    <sodipodi:guide
       position="14.566189,5.2916666"
       orientation="0,1"
       id="guide819"
       inkscape:locked="false"
       inkscape:label=""
       inkscape:color="rgb(0,0,255)" />
    <sodipodi:guide
       position="26.593317,47.625"
       orientation="0,1"
       id="guide821"
       inkscape:locked="false"
       inkscape:label=""
       inkscape:color="rgb(0,0,255)" />
    <sodipodi:guide
       position="26.458333,23.619945"
       orientation="1,0"
       id="guide1037"
       inkscape:locked="false"
       inkscape:label=""
       inkscape:color="rgb(0,0,255)" />
  </sodipodi:namedview>
  <metadata
     id="metadata5">
    <rdf:RDF>
      <cc:Work
         rdf:about="">
        <dc:format>image/svg+xml</dc:format>
        <dc:type
           rdf:resource="http://purl.org/dc/dcmitype/StillImage" />
        <dc:title></dc:title>
      </cc:Work>
    </rdf:RDF>
  </metadata>
  <g
     inkscape:label="Layer 1"
     inkscape:groupmode="layer"
     id="layer1"
     transform="translate(0,-244.08332)"
     style="opacity:1">
    <g
       style="clip-rule:evenodd;fill-rule:evenodd;stroke-width:49.72154054;stroke-linecap:round;stroke-linejoin:round;stroke-miterlimit:4;stroke-dasharray:none"
       id="g937"
       transform="matrix(0.04165408,0,0,0.04350691,-4.0455111,293.06312)">
      <g
         style="clip-rule:evenodd;fill-rule:evenodd;stroke-width:6.4961803;stroke-linecap:round;stroke-linejoin:round;stroke-miterlimit:4;stroke-dasharray:none"
         id="layer1-3"
         transform="matrix(7.6539656,0,0,7.6539656,-125.80583,-358.57408)">
        <g
           id="g1211"
           transform="matrix(0.74482311,-0.63884527,0.69694269,0.74482311,44.608851,71.907441)"
           style="fill:#ffffff;fill-opacity:1;stroke:#000900;stroke-opacity:1">
          <path
             sodipodi:nodetypes="cczcccc"
             inkscape:connector-curvature="0"
             id="path1202"
             d="m 108.21519,-6.2907138 -2.51494,49.7116698 c 0,0 -1.61586,10.344773 8.04255,10.459014 9.65841,0.114241 8.98566,-11.10029 8.98566,-11.10029 l -2.30536,-46.3114206 -4.32254,-3.3107679 z"
             style="fill:#ffffff;fill-opacity:1;stroke:#000900;stroke-width:4.87213516;stroke-linecap:butt;stroke-linejoin:miter;stroke-miterlimit:4;stroke-dasharray:none;stroke-opacity:1" />
          <path
             sodipodi:nodetypes="cccccccccccccccccc"
             inkscape:connector-curvature="0"
             id="path1204"
             d="m 109.47265,-35.019824 c 0,-2.141516 -0.37914,-4.350975 -1.51943,-5.442701 l -6.83748,-5.743679 c -2.70519,-2.988934 -3.581763,-6.02394 -3.641418,-9.079529 l 2.855498,-41.886223 c 0.4852,-2.77342 5.6848,-2.81242 5.6848,0.12541 l -0.78592,33.107671 c 0.61643,4.354419 5.99917,2.805333 5.99917,0.250816 l 0.0524,-33.910287 c 0,-2.667464 5.99917,-2.765994 5.99917,-0.0752 l 0.10478,34.487163 c 0,2.422703 6.10397,2.9207 6.10397,-0.02508 l -1.07409,-33.809953 c 0,-3.158084 5.00508,-3.690824 5.94677,-0.32607 l 2.75071,39.102174 c 0.88057,5.500817 -1.8173,9.56535 -6.33974,13.895189 -3.70034,3.84042 -5.55772,4.454764 -5.55381,9.305263 z"
             style="fill:#ffffff;fill-opacity:1;stroke:#000900;stroke-width:4.87213516;stroke-linecap:butt;stroke-linejoin:miter;stroke-miterlimit:4;stroke-dasharray:none;stroke-opacity:1" />
          <path
             sodipodi:nodetypes="cccccccc"
             inkscape:connector-curvature="0"
             id="path1206"
             d="M 53.725934,-27.012463 H 193.32461 c 3.35765,-0.08567 2.53593,2.351847 0.51868,3.759896 -8.92783,5.747808 -40.10148,12.639366 -65.64991,14.0463947 -3.28993,0.379677 -5.48131,-1.3461107 -6.66872,-2.4829487 -1.96576,-1.955348 -4.19636,-3.417665 -7.4097,-3.050483 l -61.796867,4.185544 c -13.248437,0 -13.841232,-16.458403 1.407841,-16.458403 z"
             style="fill:#ffffff;fill-opacity:1;stroke:#000900;stroke-width:4.87213516;stroke-linecap:butt;stroke-linejoin:miter;stroke-miterlimit:4;stroke-dasharray:none;stroke-opacity:1" />
        </g>
      </g>
    </g>
  </g>
</svg>
