<svg xmlns="http://www.w3.org/2000/svg" width="200" height="200" viewBox="0 0 52.917 52.917"><g fill="#fff" stroke="#000900" stroke-width="4.872" stroke-linecap="butt" stroke-linejoin="miter" clip-rule="evenodd" fill-rule="evenodd"><path d="M108.215-6.29L105.7 43.42s-1.616 10.345 8.043 10.459c9.658.114 8.985-11.1 8.985-11.1l-2.305-46.312-4.322-3.31zM109.473-35.02c0-2.141-.38-4.35-1.52-5.443l-6.837-5.743c-2.705-2.99-3.582-6.024-3.642-9.08l2.856-41.886c.485-2.773 5.685-2.812 5.685.125l-.786 33.108c.616 4.355 5.999 2.805 5.999.25l.052-33.91c0-2.667 6-2.765 6-.075l.104 34.488c0 2.422 6.104 2.92 6.104-.025l-1.074-33.81c0-3.158 5.005-3.691 5.947-.326l2.75 39.102c.881 5.5-1.817 9.565-6.34 13.895-3.7 3.84-5.557 4.455-5.553 9.305zM53.726-27.012h139.599c3.357-.086 2.536 2.351.518 3.76-8.928 5.747-40.101 12.639-65.65 14.046-3.29.38-5.48-1.346-6.668-2.483-1.966-1.955-4.197-3.418-7.41-3.05l-61.797 4.185c-13.248 0-13.841-16.458 1.408-16.458z" transform="matrix(.23746 -.21274 .2222 .24803 4.936 57.325)"/></g></svg>