<svg xmlns="http://www.w3.org/2000/svg" viewBox="0 0 160000 120000" height="200" width="200" clip-rule="evenodd" fill-rule="evenodd" stroke-linecap="round" stroke-linejoin="round" stroke-miterlimit="1.5"><g transform="translate(-60805.591 -45677.969) scale(359.31878)" stroke-width=".003"><circle r="163.103" cy="293.109" cx="391.865" fill="#92a9ea"/><path d="M368.85 130.006l-66.541 25.016-52.533 53.533-13.509 25.516 25.516 40.026 1 34.021 18.512 39.025 17.511 49.531 21.014-5.503-1-51.533 34.02-27.517-2.501-23.015-52.033-35.522-28.018-29.519 6.505-16.51 60.037-19.012 58.037-21.514 5.504-11.507zM549.465 248.58l-35.022 18.512-29.019-25.015-48.53 21.513-1.501 21.514 23.515 44.528-32.521 61.038-1.5 27.518 89.055-31.02 23.386-17.344 19.642-78.717zm-48.031-79.55l-25.516 18.012 19.012 19.012 38.024 2.501z" fill="#85cd01" stroke="#000" stroke-width="2.226" stroke-linecap="butt" stroke-linejoin="miter"/><path d="M391.867 119.563c-96.286 0-174.543 78.256-174.543 174.542 0 96.287 78.257 174.545 174.543 174.545s174.545-78.258 174.545-174.545c0-96.286-78.259-174.543-174.545-174.543zm0 18.896c86.073 0 155.647 69.573 155.647 155.646 0 86.074-69.574 155.647-155.647 155.647s-155.646-69.573-155.646-155.647c0-86.073 69.573-155.646 155.646-155.646z" style="line-height:normal;font-variant-ligatures:normal;font-variant-position:normal;font-variant-caps:normal;font-variant-numeric:normal;font-variant-alternates:normal;font-feature-settings:normal;text-indent:0;text-align:start;text-decoration-line:none;text-decoration-style:solid;text-decoration-color:#000;text-transform:none;text-orientation:mixed;white-space:normal;shape-padding:0;isolation:auto;mix-blend-mode:normal;solid-color:#000;solid-opacity:1" color="#000" font-weight="400" font-family="sans-serif" clip-rule="nonzero" overflow="visible" fill="#0d0000" fill-rule="nonzero"/><path d="M364.004 122.64c-2.198 2.198-3.032 6.011-2.75 8.141.281 2.13.932 3.172 1.398 3.95.933 1.555 1.59 2.137 2.243 2.787 1.306 1.3 2.626 2.369 4.214 3.632 3.178 2.527 7.271 5.57 11.412 8.819 4.142 3.249 8.316 6.706 11.293 9.642.87.858 1.288 1.531 1.87 2.301-.664.218-.59.301-1.467.484-5.456 1.14-13.633 1.391-20.043 2.077-11.086 1.185-19.431 7.221-26.262 11.734-6.83 4.513-12.136 6.707-12.994 6.629-30.997-2.83-58.148 7.191-68.81 26.603-5.332 9.707-4.641 22.648 2.994 32.538 7.634 9.89 20.667 17.526 40.074 23.472 1.216.373 3.751 3.503 8.515 9.793 4.675 6.173 12.408 14.154 24.82 16.758.013.048.127.186.442.813.71 1.41 1.46 4.208 1.662 7.11.203 2.904-.112 5.953-.627 7.776-.253.897-.588 1.272-.617 1.322-14.352 6.983-23.887 16.32-29.21 26.51-5.503 10.532-6.612 21.469-6.266 30.889.331 9.043 1.92 16.844 2.648 21.988-.718-.347-1.408-.638-2.227-1.32-2.368-1.974-5.17-6.078-7.55-11.748-4.76-11.34-7.854-28.176-10.344-42.934-1.477-8.748-6.975-14.26-10.988-18.468-4.014-4.21-6.708-7.408-7.372-9.547-1.132-3.655-.677-8.962.245-15.727.92-6.765 2.307-15.013-.592-23.951-3.002-9.256-9.476-17.633-15.22-24.752-5.746-7.12-10.94-12.522-10.94-12.522l-13.627 13.094s4.673 4.869 9.86 11.295c5.185 6.427 10.703 14.87 11.95 18.715 1.17 3.606.758 8.842-.158 15.572-.916 6.73-2.34 14.93.432 23.871 2.526 8.149 7.97 13.036 11.744 16.994 3.774 3.959 5.715 6.699 6.031 8.57 2.504 14.84 5.44 32.536 11.555 47.104 3.058 7.285 6.908 13.979 12.879 18.953 5.97 4.975 14.602 7.528 23.187 5.805 2.576-.517 5.477-2.138 7.268-4.322 1.79-2.184 2.518-4.492 2.87-6.404.706-3.825.276-6.774-.148-9.975-.847-6.402-2.347-13.569-2.619-20.984-.272-7.416.631-14.745 4.131-21.444s9.609-13.219 21.77-18.867c6.155-2.859 8.21-8.025 9.496-12.586 1.286-4.56 1.63-9.368 1.29-14.22-.338-4.853-1.33-9.71-3.626-14.282-2.297-4.571-6.58-9.476-13.111-10.719-7.21-1.37-10.094-4.657-13.971-9.777-3.877-5.12-7.83-13.32-18.047-16.451-17.195-5.268-26.752-11.904-30.65-16.953-3.899-5.05-3.685-7.714-1.391-11.89 4.588-8.354 25.096-19.206 50.531-16.884 10.908.996 18.282-5.156 25.13-9.68 6.846-4.523 13.177-8.212 17.853-8.712 4.828-.517 13.695-.654 21.896-2.367 4.1-.857 8.222-1.945 12.23-5.032 4.009-3.087 7.106-9.97 5.89-15.773-1.434-6.835-5.192-10.063-9.116-13.934-3.924-3.87-8.518-7.62-12.898-11.056-4.381-3.437-8.567-6.555-11.315-8.74-1.374-1.093-2.428-2.02-2.644-2.235-.109-.108 0-.166.63.885.316.525.874 1.348 1.131 3.295.258 1.946-.534 5.612-2.62 7.699zm132.879 39.417c-9.045 3.848-16.373 7.578-21.953 12.386-2.79 2.405-5.303 5.155-6.805 9.059-1.502 3.903-1.273 9.135.764 12.994 4.073 7.719 11.277 10.956 21.357 14.518 10.08 3.56 23.732 6.764 42.094 9.861l3.144-18.633c-17.746-2.993-30.619-6.104-38.943-9.045-5.043-1.782-7.654-3.39-9.225-4.472 2.702-2.314 8.813-5.809 16.965-9.278zm-14.311 69.933c-12.054.508-23.999 5.14-34.203 12.143-11.661 8.003-21.333 19.327-24.582 33.174-1.665 7.095.542 13.947 3.608 18.953 3.065 5.006 6.924 8.911 10.433 12.535 3.51 3.624 6.687 6.955 8.545 9.695 1.714 2.528 2.135 4.056 2.084 5.436-.143.065-.641.693-2.361 2.053-2.654 2.098-7.497 4.865-10.291 11.494-5.44 12.9-2.049 24.185-3.346 30.396-.933 4.467-8.622 16.554-14.742 27.059-3.06 5.252-5.936 10.108-6.74 16.525-.403 3.209-.064 7.365 2.382 10.957 2.447 3.593 6.405 5.616 10.06 6.445 10.246 2.324 20.41-.575 30.944-4.677 10.534-4.102 21.504-9.878 32.178-15.598 10.674-5.72 21.054-11.392 29.77-15.228 8.715-3.837 15.974-5.209 17.923-4.885l3.094-18.643c-9.757-1.62-18.73 1.873-28.63 6.23-9.901 4.358-20.521 10.209-31.085 15.87-10.563 5.661-21.07 11.125-30.107 14.644-6.756 2.631-12.647 3.907-16.602 4.067a60.088 60.088 0 013.14-6.194c5.346-9.173 14.275-20.076 16.913-32.709 2.627-12.58.243-22.13 2.262-26.918-.104.247 1.402-1.485 4.597-4.011 3.196-2.527 8.697-6.765 9.49-14.594.728-7.176-2.022-13.501-5.292-18.324-3.27-4.823-7.176-8.688-10.612-12.237-3.436-3.548-6.383-6.79-7.892-9.255-1.51-2.465-1.644-3.406-1.324-4.77 1.791-7.636 8.204-15.957 16.877-21.908 8.672-5.951 19.318-9.304 27.572-8.82.365.02.631-.003 1.974 1.365 1.344 1.368 3.145 3.976 5.145 7.066 2 3.09 4.2 6.658 7.418 10.035 3.217 3.377 8 6.756 14.05 7.358 11.766 1.17 20.28-5.485 27.473-10.88 7.194-5.393 12.59-10.892 12.59-10.892l-13.463-13.261s-4.575 4.619-10.465 9.035-13.572 7.262-14.265 7.193c-.389-.039-.834-.116-2.237-1.588-1.402-1.472-3.216-4.147-5.234-7.265-2.018-3.12-4.236-6.688-7.523-10.038-3.288-3.35-8.262-6.636-14.358-6.994a51.357 51.357 0 00-5.168-.039z" style="line-height:normal;font-variant-ligatures:normal;font-variant-position:normal;font-variant-caps:normal;font-variant-numeric:normal;font-variant-alternates:normal;font-feature-settings:normal;text-indent:0;text-align:start;text-decoration-line:none;text-decoration-style:solid;text-decoration-color:#000;text-transform:none;text-orientation:mixed;white-space:normal;shape-padding:0;isolation:auto;mix-blend-mode:normal;solid-color:#000;solid-opacity:1" color="#000" font-weight="400" font-family="sans-serif" clip-rule="nonzero" overflow="visible" fill-rule="nonzero"/></g></svg>