<svg xmlns="http://www.w3.org/2000/svg" width="200" height="200" viewBox="0 0 52.917 52.917"><g transform="matrix(.31882 0 0 .333 -9.286 33.38)" stroke-width="6.496" stroke-linecap="butt" clip-rule="evenodd" fill-rule="evenodd" stroke-linejoin="round"><path d="M74.325-65.335h27.268v92.366" fill="none" stroke="#000" stroke-linejoin="miter"/><path d="M66.619 15.396V-9.149h96.622M159.536-56.396v24.687H63.655" fill="none" stroke="#000" stroke-linejoin="miter"/><path d="M125.007-67.038v91.231h26.527" fill="none" stroke="#000" stroke-linejoin="miter"/><ellipse cx="66.1" cy="-65.122" rx="6.891" ry="6.598" fill="#fff" stroke="#000900"/><ellipse cx="125.007" cy="-75.409" rx="6.891" ry="6.598" fill="#fbffff" stroke="#000900"/><ellipse cx="159.536" cy="-64.058" rx="6.891" ry="6.598" fill="#fff" stroke="#000900"/><ellipse cx="171.392" cy="-9.291" rx="6.891" ry="6.598" fill="#fff" stroke="#000900"/><ellipse cx="159.388" cy="24.335" rx="6.891" ry="6.598" fill="#fff" stroke="#000900"/><ellipse cx="101.296" cy="34.267" rx="6.891" ry="6.598" fill="#fff" stroke="#000900"/><ellipse cx="66.471" cy="23.342" rx="6.891" ry="6.598" fill="#fff" stroke="#000900"/><ellipse cx="55.208" cy="-31.709" rx="6.891" ry="6.598" fill="#fff" stroke="#000900"/><path fill="#fdffff" stroke="#000900" d="M86.477-45.897h52.461V4.33H86.477z"/></g></svg>