<?xml version="1.0" encoding="UTF-8" standalone="no"?>
<svg
   xmlns:dc="http://purl.org/dc/elements/1.1/"
   xmlns:cc="http://creativecommons.org/ns#"
   xmlns:rdf="http://www.w3.org/1999/02/22-rdf-syntax-ns#"
   xmlns:svg="http://www.w3.org/2000/svg"
   xmlns="http://www.w3.org/2000/svg"
   id="svg4"
   style="fill-rule:evenodd;clip-rule:evenodd;stroke-linejoin:round;stroke-miterlimit:1.41421;"
   xml:space="preserve"
   version="1.1"
   viewBox="0 0 50 50"
   height="25px"
   width="25px"><metadata
     id="metadata10"><rdf:RDF><cc:Work
         rdf:about=""><dc:format>image/svg+xml</dc:format><dc:type
           rdf:resource="http://purl.org/dc/dcmitype/StillImage" /><dc:title></dc:title></cc:Work></rdf:RDF></metadata><defs
     id="defs8" /><path
     id="path2"
     transform="scale(2)"
     d="M 12.5 1.75 C 6.567 1.75 1.75 6.567 1.75 12.5 C 1.75 18.433 6.567 23.25 12.5 23.25 C 18.433 23.25 23.25 18.433 23.25 12.5 C 23.25 6.567 18.433 1.75 12.5 1.75 z M 9.7441406 5.7636719 L 15.255859 5.7636719 C 17.452368 5.7636719 19.236328 7.547634 19.236328 9.7441406 L 19.236328 15.255859 C 19.236328 17.452369 17.452368 19.236328 15.255859 19.236328 L 9.7441406 19.236328 C 7.5476321 19.236328 5.7636719 17.452369 5.7636719 15.255859 L 5.7636719 9.7441406 C 5.7636719 7.547634 7.5476321 5.7636719 9.7441406 5.7636719 z M 9.7441406 6.7636719 C 8.0843356 6.7636719 6.7636719 8.0843356 6.7636719 9.7441406 L 6.7636719 15.255859 C 6.7636719 16.915664 8.0843356 18.236328 9.7441406 18.236328 L 15.255859 18.236328 C 16.915664 18.236328 18.236328 16.915664 18.236328 15.255859 L 18.236328 9.7441406 C 18.236328 8.0843356 16.915664 6.7636719 15.255859 6.7636719 L 9.7441406 6.7636719 z M 15.841797 8.3515625 A 0.79353734 0.79353734 0 0 1 16.634766 9.1445312 A 0.79353734 0.79353734 0 0 1 15.841797 9.9375 A 0.79353734 0.79353734 0 0 1 15.046875 9.1445312 A 0.79353734 0.79353734 0 0 1 15.841797 8.3515625 z M 12.5 9.2304688 C 14.300281 9.2304688 15.769532 10.699717 15.769531 12.5 C 15.76953 14.300277 14.30028 15.769534 12.5 15.769531 C 10.69972 15.769534 9.2304701 14.300277 9.2304688 12.5 C 9.2304685 10.699717 10.699719 9.2304687 12.5 9.2304688 z M 12.5 10.228516 C 11.240159 10.228516 10.230468 11.240158 10.230469 12.5 C 10.23047 13.759839 11.24016 14.769531 12.5 14.769531 C 13.75984 14.769531 14.771483 13.759839 14.771484 12.5 C 14.771485 11.240158 13.759841 10.228516 12.5 10.228516 z "
     style="fill:#ffffff;fill-opacity:1;stroke-width:0.5" /><g
     style="stroke-width:3.39376616;stroke-miterlimit:4;stroke-dasharray:none"
     transform="matrix(0.58931579,0,0,0.58931579,9.4076869,-134.43447)"
     id="layer1" /></svg>