<?xml version="1.0" encoding="UTF-8" standalone="no"?>
<!DOCTYPE svg PUBLIC "-//W3C//DTD SVG 1.1//EN" "http://www.w3.org/Graphics/SVG/1.1/DTD/svg11.dtd">
<svg width="100%" height="100%" viewBox="0 0 300 300" version="1.1" xmlns="http://www.w3.org/2000/svg" xmlns:xlink="http://www.w3.org/1999/xlink" xml:space="preserve" xmlns:serif="http://www.serif.com/" style="fill-rule:evenodd;clip-rule:evenodd;stroke-linecap:round;stroke-linejoin:round;stroke-miterlimit:1.5;">
    <g transform="matrix(1,0,0,1,-14.0503,-3.33138)">
        <path d="M275.167,159.321L293.901,159.321L293.901,272.62L34.2,272.62L34.2,240.342" style="fill:none;stroke:black;stroke-width:8.33px;"/>
    </g>
    <g transform="matrix(1,0,0,1,-14.0503,-3.33138)">
        <path d="M34.2,186.472L34.2,142.985" style="fill:none;stroke:black;stroke-width:8.33px;"/>
    </g>
    <g>
        <g transform="matrix(0.577591,0,0,1,0.722786,0)">
            <path d="M20.149,139.654L47.119,139.654" style="fill:none;stroke:black;stroke-width:10.21px;"/>
        </g>
        <g transform="matrix(0.577591,0,0,1,0.722786,-53.8698)">
            <path d="M20.149,139.654L47.119,139.654" style="fill:none;stroke:black;stroke-width:10.21px;"/>
        </g>
    </g>
    <g transform="matrix(1,0,0,1,0,97.3567)">
        <g transform="matrix(0.577591,0,0,1,0.722786,0)">
            <path d="M20.149,139.654L47.119,139.654" style="fill:none;stroke:black;stroke-width:10.21px;"/>
        </g>
        <g transform="matrix(0.577591,0,0,1,0.722786,-53.8698)">
            <path d="M20.149,139.654L47.119,139.654" style="fill:none;stroke:black;stroke-width:10.21px;"/>
        </g>
    </g>
    <g transform="matrix(1,0,0,1,-14.0503,-3.33138)">
        <path d="M34.2,88.084L34.2,34.043L176.142,34.043L176.142,159.321L209.759,159.321" style="fill:none;stroke:black;stroke-width:8.33px;"/>
    </g>
    <path d="M195.709,155.817L239.215,112.311C255.565,121.341 261.117,137.14 261.117,155.817" style="fill:none;stroke:black;stroke-width:8.33px;"/>
</svg>
