<svg xmlns="http://www.w3.org/2000/svg" viewBox="0 0 800 600" fill-rule="evenodd" clip-rule="evenodd" stroke-linecap="round" stroke-linejoin="round" stroke-miterlimit="1.5"><g fill="#fff" stroke="#000" stroke-width="22.677"><path d="M410.594 368.116l-47.067-.586c2.444-5.353 3.453-10.532 3.453-15.947 0-23.564-19.102-42.666-42.666-42.666-23.563 0-42.666 19.102-42.666 42.666 0 5.736 1.134 11.208 3.106 16.369l-46.717.164v172.557h172.557"/><path d="M410.594 368.116l-.586 47.066c-5.353-2.443-10.532-3.453-15.948-3.453-23.563 0-42.666 19.103-42.666 42.666 0 23.564 19.103 42.666 42.666 42.666 5.737 0 11.209-1.133 16.37-3.105l.164 46.717H583.15V368.116"/><path d="M496.873 427.315c23.563 0 42.666-19.102 42.666-42.666 0-5.736-1.134-11.208-3.106-16.369l46.717-.164V195.559H410.594v45.713c19.219 4.149 33.623 21.237 33.623 41.698 0 20.46-14.404 37.548-33.623 41.697v43.449l47.066.586c-2.444 5.353-3.453 10.532-3.453 15.947 0 23.564 19.102 42.666 42.666 42.666zM341.194 94.669c-11.781-20.407-37.876-27.399-58.282-15.617-4.969 2.868-9.14 6.586-12.624 10.874l-23.5-40.376-149.439 86.278 86.279 149.439 39.588-22.857c-6.017-18.718 1.58-39.737 19.3-49.967 17.718-10.23 39.72-6.3 52.922 8.27l37.628-21.724-23.026-41.054c5.858-.56 10.848-2.276 15.538-4.983 20.406-11.782 27.398-37.876 15.616-58.283z"/></g></svg>