<svg xmlns="http://www.w3.org/2000/svg" viewBox="0 0 800 600" fill-rule="evenodd" clip-rule="evenodd" stroke-linecap="round" stroke-linejoin="round" stroke-miterlimit="1.5"><path fill="#fff" d="M237.886 129.956h324.229v92.511h-324.23zM238.767 252.423h322.908v95.595H238.767zM240.529 375.771h322.026v94.273H240.529z"/><path d="M238.295 120.397a10.96 9.45 0 00-10.96 9.448v93.834a10.96 9.45 0 0010.96 9.449h323.41a10.96 9.45 0 0010.96-9.45v-93.833a10.96 9.45 0 00-10.96-9.448zm10.956 18.897h301.495v74.935H249.251z" style="line-height:normal;font-variant-ligatures:normal;font-variant-position:normal;font-variant-caps:normal;font-variant-numeric:normal;font-variant-alternates:normal;font-feature-settings:normal;text-indent:0;text-align:start;text-decoration-line:none;text-decoration-style:solid;text-decoration-color:#000;text-transform:none;text-orientation:mixed;white-space:normal;shape-padding:0;isolation:auto;mix-blend-mode:normal;solid-color:#000;solid-opacity:1" color="#000" font-weight="400" font-family="sans-serif" clip-rule="nonzero" overflow="visible" fill-rule="nonzero"/><g transform="translate(26.211 -2.974)"><circle cx="502.643" cy="179.736" r="9.251"/><circle cx="461.674" cy="179.736" r="9.251"/><circle cx="420.705" cy="179.736" r="9.251"/></g><path d="M238.295 243.635a10.96 9.45 0 00-10.96 9.447v93.834a10.96 9.45 0 0010.96 9.45h323.41a10.96 9.45 0 0010.96-9.45v-93.834a10.96 9.45 0 00-10.96-9.447zm10.956 18.896h301.495v74.936H249.251z" style="line-height:normal;font-variant-ligatures:normal;font-variant-position:normal;font-variant-caps:normal;font-variant-numeric:normal;font-variant-alternates:normal;font-feature-settings:normal;text-indent:0;text-align:start;text-decoration-line:none;text-decoration-style:solid;text-decoration-color:#000;text-transform:none;text-orientation:mixed;white-space:normal;shape-padding:0;isolation:auto;mix-blend-mode:normal;solid-color:#000;solid-opacity:1" color="#000" font-weight="400" font-family="sans-serif" clip-rule="nonzero" overflow="visible" fill-rule="nonzero"/><g transform="translate(26.211 120.264)"><circle cx="502.643" cy="179.736" r="9.251"/><circle cx="461.674" cy="179.736" r="9.251"/><circle cx="420.705" cy="179.736" r="9.251"/></g><path d="M238.295 366.872a10.96 9.45 0 00-10.96 9.448v93.834a10.96 9.45 0 0010.96 9.449h323.41a10.96 9.45 0 0010.96-9.45V376.32a10.96 9.45 0 00-10.96-9.448zm10.956 18.897h301.495v74.935H249.251z" style="line-height:normal;font-variant-ligatures:normal;font-variant-position:normal;font-variant-caps:normal;font-variant-numeric:normal;font-variant-alternates:normal;font-feature-settings:normal;text-indent:0;text-align:start;text-decoration-line:none;text-decoration-style:solid;text-decoration-color:#000;text-transform:none;text-orientation:mixed;white-space:normal;shape-padding:0;isolation:auto;mix-blend-mode:normal;solid-color:#000;solid-opacity:1" color="#000" font-weight="400" font-family="sans-serif" clip-rule="nonzero" overflow="visible" fill-rule="nonzero"/><g transform="translate(26.211 243.501)"><circle cx="502.643" cy="179.736" r="9.251"/><circle cx="461.674" cy="179.736" r="9.251"/><circle cx="420.705" cy="179.736" r="9.251"/></g></svg>