<?xml version="1.0" encoding="UTF-8" standalone="no"?>
<!-- Created with Inkscape (http://www.inkscape.org/) -->

<svg
   xmlns:dc="http://purl.org/dc/elements/1.1/"
   xmlns:cc="http://creativecommons.org/ns#"
   xmlns:rdf="http://www.w3.org/1999/02/22-rdf-syntax-ns#"
   xmlns:svg="http://www.w3.org/2000/svg"
   xmlns="http://www.w3.org/2000/svg"
   xmlns:sodipodi="http://sodipodi.sourceforge.net/DTD/sodipodi-0.dtd"
   xmlns:inkscape="http://www.inkscape.org/namespaces/inkscape"
   width="200"
   height="200"
   viewBox="0 0 52.916665 52.916668"
   version="1.1"
   id="svg8"
   inkscape:version="0.92.5 (2060ec1f9f, 2020-04-08)"
   sodipodi:docname="kpis.svg">
  <defs
     id="defs2" />
  <sodipodi:namedview
     id="base"
     pagecolor="#ffffff"
     bordercolor="#666666"
     borderopacity="1.0"
     inkscape:pageopacity="0.0"
     inkscape:pageshadow="2"
     inkscape:zoom="5.6"
     inkscape:cx="112.71979"
     inkscape:cy="88.387382"
     inkscape:document-units="px"
     inkscape:current-layer="layer1-2"
     showgrid="false"
     units="px"
     showguides="true"
     inkscape:guide-bbox="true"
     inkscape:window-width="2800"
     inkscape:window-height="1672"
     inkscape:window-x="80"
     inkscape:window-y="54"
     inkscape:window-maximized="1">
    <sodipodi:guide
       position="5.2916666,45.168156"
       orientation="1,0"
       id="guide815"
       inkscape:locked="false"
       inkscape:label=""
       inkscape:color="rgb(0,0,255)" />
    <sodipodi:guide
       position="47.625,39.593007"
       orientation="1,0"
       id="guide817"
       inkscape:locked="false"
       inkscape:label=""
       inkscape:color="rgb(0,0,255)" />
    <sodipodi:guide
       position="13.418154,47.625"
       orientation="0,1"
       id="guide819"
       inkscape:locked="false"
       inkscape:label=""
       inkscape:color="rgb(0,0,255)" />
    <sodipodi:guide
       position="17.197916,5.2916666"
       orientation="0,1"
       id="guide821"
       inkscape:locked="false"
       inkscape:label=""
       inkscape:color="rgb(0,0,255)" />
  </sodipodi:namedview>
  <metadata
     id="metadata5">
    <rdf:RDF>
      <cc:Work
         rdf:about="">
        <dc:format>image/svg+xml</dc:format>
        <dc:type
           rdf:resource="http://purl.org/dc/dcmitype/StillImage" />
        <dc:title></dc:title>
      </cc:Work>
    </rdf:RDF>
  </metadata>
  <g
     inkscape:label="Layer 1"
     inkscape:groupmode="layer"
     id="layer1"
     transform="translate(0,-244.08332)">
    <g
       transform="translate(-7.8430059,30.832269)"
       id="layer1-2"
       inkscape:label="Layer 1">
      <path
         inkscape:connector-curvature="0"
         id="path854"
         d="m 43.391668,238.36643 3.732515,4.77195 9.402157,-9.96913"
         style="fill:none;stroke:#000000;stroke-width:2.11666656;stroke-linecap:butt;stroke-linejoin:miter;stroke-miterlimit:4;stroke-dasharray:none;stroke-opacity:1" />
      <g
         aria-label="KPIs"
         style="font-style:normal;font-variant:normal;font-weight:bold;font-stretch:normal;font-size:7.05555534px;line-height:1.25;font-family:'Open Sans';-inkscape-font-specification:'Open Sans Bold';letter-spacing:0px;word-spacing:0px;fill:#000000;fill-opacity:1;stroke:none;stroke-width:0.26458332"
         id="text912">
        <path
           d="m 20.331969,244.67722 h -2.425347 l -2.638943,-4.24436 -0.902615,0.64768 v 3.59668 h -2.135959 v -10.07346 h 2.135959 v 4.60953 l 0.840603,-1.18511 2.728515,-3.42442 h 2.370226 l -3.513997,4.45795 z"
           style="font-size:14.11111069px;stroke-width:0.26458332"
           id="path914" />
        <path
           d="m 23.735723,239.34421 h 0.7028 q 0.985297,0 1.474501,-0.38585 0.489203,-0.39274 0.489203,-1.13688 0,-0.75104 -0.413411,-1.10932 -0.406521,-0.35829 -1.281576,-0.35829 h -0.971517 z m 4.823134,-1.59853 q 0,1.62609 -1.019748,2.48736 -1.012858,0.86128 -2.88699,0.86128 h -0.916396 v 3.5829 h -2.135959 v -10.07346 h 3.217719 q 1.832791,0 2.783638,0.79237 0.957736,0.78548 0.957736,2.34955 z"
           style="font-size:14.11111069px;stroke-width:0.26458332"
           id="path916" />
        <path
           d="m 30.46055,244.67722 v -10.07346 h 2.135959 v 10.07346 z"
           style="font-size:14.11111069px;stroke-width:0.26458332"
           id="path918" />
        <path
           d="m 40.341083,242.38967 q 0,1.18512 -0.826823,1.80523 -0.819933,0.62012 -2.459798,0.62012 -0.840603,0 -1.43316,-0.11713 -0.592556,-0.11025 -1.10932,-0.33073 v -1.73633 q 0.585666,0.27561 1.316026,0.46164 0.73725,0.18604 1.295356,0.18604 1.143771,0 1.143771,-0.66146 0,-0.24805 -0.151584,-0.39963 -0.151584,-0.15848 -0.523654,-0.3514 -0.372071,-0.19982 -0.992188,-0.46165 -0.888834,-0.37207 -1.309136,-0.68901 -0.413411,-0.31695 -0.606337,-0.72347 -0.186035,-0.41342 -0.186035,-1.01286 0,-1.02664 0.792372,-1.58475 0.799262,-0.56499 2.259983,-0.56499 1.391818,0 2.707845,0.60634 l -0.633898,1.51584 q -0.578776,-0.24805 -1.08176,-0.40652 -0.502984,-0.15848 -1.026638,-0.15848 -0.930176,0 -0.930176,0.50299 0,0.28249 0.296278,0.4892 0.303169,0.2067 1.316027,0.61323 0.902615,0.36518 1.322916,0.68212 0.420302,0.31695 0.620117,0.73036 0.199816,0.41342 0.199816,0.9853 z"
           style="font-size:14.11111069px;stroke-width:0.26458332"
           id="path920" />
      </g>
    </g>
  </g>
</svg>
