<svg width="25" height="25" viewBox="0 0 50 50" xmlns="http://www.w3.org/2000/svg" fill-rule="evenodd" clip-rule="evenodd" stroke-linejoin="round" stroke-miterlimit="1.414"><path d="M25 3.5c11.866 0 21.5 9.634 21.5 21.5S36.866 46.5 25 46.5 3.5 36.866 3.5 25 13.134 3.5 25 3.5zm10.848 31.875v-8.468c-.111-6.141-6.931-7.818-9.569-3.44v-2.05h-4.576v13.958h4.576v-8.468c.759-2.669 4.197-3.18 4.901 0v8.468h4.668zm-16.798 0V21.417h-4.599v13.958h4.599zm-2.277-20.753c1.431 0 2.594 1.093 2.594 2.439S18.204 19.5 16.773 19.5c-1.431 0-2.594-1.093-2.594-2.439s1.163-2.439 2.594-2.439z" fill="#fff"/></svg>