<svg width="25px" height="25px" viewBox="0 0 50 50" version="1.1" xmlns="http://www.w3.org/2000/svg" xmlns:xlink="http://www.w3.org/1999/xlink" xml:space="preserve" xmlns:serif="http://www.serif.com/" style="fill-rule:evenodd;clip-rule:evenodd;stroke-linejoin:round;stroke-miterlimit:1.41421;"><path d="M25,3.5c11.866,0 21.5,9.634 21.5,21.5c0,11.866 -9.634,21.5 -21.5,21.5c-11.866,0 -21.5,-9.634 -21.5,-21.5c0,-11.866 9.634,-21.5 21.5,-21.5Zm10.848,31.875l0,-8.468c-0.111,-6.141 -6.931,-7.818 -9.569,-3.44l0,-2.05l-4.576,0l0,13.958l4.576,0l0,-8.468c0.759,-2.669 4.197,-3.18 4.901,0l0,8.468l4.668,0Zm-16.798,0l0,-13.958l-4.599,0l0,13.958l4.599,0Zm-2.277,-20.753c1.431,0 2.594,1.093 2.594,2.439c0,1.346 -1.163,2.439 -2.594,2.439c-1.431,0 -2.594,-1.093 -2.594,-2.439c0,-1.346 1.163,-2.439 2.594,-2.439Z" style="fill:#fff;"/></svg>