<svg xmlns="http://www.w3.org/2000/svg" width="200" height="200" viewBox="0 0 52.917 52.917"><g stroke-width="6.496" clip-rule="evenodd" fill-rule="evenodd" stroke-linecap="round" stroke-linejoin="round"><path d="M5.979 16.027l5.245 5.246-2.973 5.211 2.94 1.905v6.648l15.266 8.814 15.44-8.914V28.79l2.903-2.306-3.107-5.278 5.245-5.212-15.502-7.016-4.979 4.61-5.077-4.677z" fill="#fff"/><g stroke="#000" fill="none" stroke-linecap="butt"><path d="M238.107-26.096l16.866-8.729 16.142 8.127" stroke-linejoin="miter" transform="matrix(.31882 0 0 .333 -54.833 35.007)"/><path d="M254.973-64.32L239.05-78.367l-48.308 21.37 16.452 15.75-9.326 15.651 44.43 24.78 12.675-16.553L267.238-.613l45.269-24.982-9.746-15.851 16.452-15.651-48.622-21.069z" transform="matrix(.31882 0 0 .333 -54.833 35.007)"/><path d="M207.194-41.246l47.78-23.075 47.787 22.875-47.788 24.078-47.78-23.878" transform="matrix(.31882 0 0 .333 -54.833 35.007)"/><path d="M207.089-19.876V.089l47.884 26.469 48.429-26.77v-18.46M254.973-17.368v43.926M254.973-64.32v29.495" stroke-linejoin="miter" transform="matrix(.31882 0 0 .333 -54.833 35.007)"/></g></g></svg>