<?xml version="1.0" encoding="UTF-8" standalone="no"?>
<svg
   xmlns:dc="http://purl.org/dc/elements/1.1/"
   xmlns:cc="http://creativecommons.org/ns#"
   xmlns:rdf="http://www.w3.org/1999/02/22-rdf-syntax-ns#"
   xmlns:svg="http://www.w3.org/2000/svg"
   xmlns="http://www.w3.org/2000/svg"
   xmlns:sodipodi="http://sodipodi.sourceforge.net/DTD/sodipodi-0.dtd"
   xmlns:inkscape="http://www.inkscape.org/namespaces/inkscape"
   width="200"
   height="200"
   viewBox="0 0 160000 120000"
   clip-rule="evenodd"
   fill-rule="evenodd"
   stroke-linecap="round"
   stroke-linejoin="round"
   stroke-miterlimit="1.5"
   version="1.1"
   id="svg24"
   sodipodi:docname="logistics-hex.svg"
   inkscape:version="0.92.5 (2060ec1f9f, 2020-04-08)">
  <metadata
     id="metadata30">
    <rdf:RDF>
      <cc:Work
         rdf:about="">
        <dc:format>image/svg+xml</dc:format>
        <dc:type
           rdf:resource="http://purl.org/dc/dcmitype/StillImage" />
        <dc:title></dc:title>
      </cc:Work>
    </rdf:RDF>
  </metadata>
  <defs
     id="defs28" />
  <sodipodi:namedview
     pagecolor="#ffffff"
     bordercolor="#666666"
     borderopacity="1"
     objecttolerance="10"
     gridtolerance="10"
     guidetolerance="10"
     inkscape:pageopacity="0"
     inkscape:pageshadow="2"
     inkscape:window-width="2800"
     inkscape:window-height="1672"
     id="namedview26"
     showgrid="false"
     inkscape:zoom="4.72"
     inkscape:cx="154.92016"
     inkscape:cy="82.20206"
     inkscape:window-x="80"
     inkscape:window-y="54"
     inkscape:window-maximized="1"
     inkscape:current-layer="svg24" />
  <path
     d="M147816.342 99153.78L80000 138307.57 12183.657 99153.78V20846.214L80000-18307.569l67816.343 39153.783z"
     fill="#64c7cc"
     id="path2" />
  <g
     transform="matrix(2435.1711,0,0,2435.1711,15567.988,-4375.1162)"
     style="clip-rule:evenodd;fill-rule:evenodd;stroke-width:1.50272167;stroke-linecap:round;stroke-linejoin:round;stroke-miterlimit:4;stroke-dasharray:none"
     id="g14">
    <path
       style="fill:#ffffff;stroke-width:1.50272167;stroke-miterlimit:4;stroke-dasharray:none"
       inkscape:connector-curvature="0"
       d="m 5.979,16.027 5.245,5.246 -2.973,5.211 2.94,1.905 v 6.648 l 15.266,8.814 15.44,-8.914 V 28.79 L 44.8,26.484 41.693,21.206 46.938,15.994 31.436,8.978 26.457,13.588 21.38,8.911 Z"
       id="path2-3" />
    <g
       style="fill:none;stroke:#000000;stroke-width:1.50272167;stroke-linecap:butt;stroke-miterlimit:4;stroke-dasharray:none"
       id="g12">
      <path
         style="stroke-width:4.61193991;stroke-linejoin:miter;stroke-miterlimit:4;stroke-dasharray:none"
         inkscape:connector-curvature="0"
         d="m 238.107,-26.096 16.866,-8.729 16.142,8.127"
         transform="matrix(0.31882,0,0,0.333,-54.833,35.007)"
         id="path4" />
      <path
         inkscape:connector-curvature="0"
         d="m 254.973,-64.32 -15.923,-14.047 -48.308,21.37 16.452,15.75 -9.326,15.651 44.43,24.78 12.675,-16.553 12.265,16.756 45.269,-24.982 -9.746,-15.851 16.452,-15.651 -48.622,-21.069 z"
         transform="matrix(0.31882,0,0,0.333,-54.833,35.007)"
         id="path6"
         style="stroke-width:4.61193991;stroke-miterlimit:4;stroke-dasharray:none" />
      <path
         inkscape:connector-curvature="0"
         d="m 207.194,-41.246 47.78,-23.075 47.787,22.875 -47.788,24.078 -47.78,-23.878"
         transform="matrix(0.31882,0,0,0.333,-54.833,35.007)"
         id="path8"
         style="stroke-width:4.61193991;stroke-miterlimit:4;stroke-dasharray:none" />
      <path
         style="stroke-width:4.61193991;stroke-linejoin:miter;stroke-miterlimit:4;stroke-dasharray:none"
         inkscape:connector-curvature="0"
         d="M 207.089,-19.876 V 0.089 l 47.884,26.469 48.429,-26.77 v -18.46 m -48.429,1.304 v 43.926 m 0,-90.878 v 29.495"
         transform="matrix(0.31882,0,0,0.333,-54.833,35.007)"
         id="path10" />
    </g>
  </g>
</svg>
