<?xml version="1.0" encoding="UTF-8" standalone="no"?>
<svg
   xmlns:dc="http://purl.org/dc/elements/1.1/"
   xmlns:cc="http://creativecommons.org/ns#"
   xmlns:rdf="http://www.w3.org/1999/02/22-rdf-syntax-ns#"
   xmlns:svg="http://www.w3.org/2000/svg"
   xmlns="http://www.w3.org/2000/svg"
   id="svg2563"
   version="1.1"
   viewBox="0 0 418.78375 137.21466"
   height="137.21466mm"
   width="418.78375mm">
  <defs
     id="defs2557" />
  <metadata
     id="metadata2560">
    <rdf:RDF>
      <cc:Work
         rdf:about="">
        <dc:format>image/svg+xml</dc:format>
        <dc:type
           rdf:resource="http://purl.org/dc/dcmitype/StillImage" />
        <dc:title></dc:title>
      </cc:Work>
    </rdf:RDF>
  </metadata>
  <g
     transform="translate(205.92738,-71.195305)"
     id="layer1">
    <g
       id="g3180">
      <path
         style="fill:#00aeef;fill-opacity:1;stroke-width:0.26458338"
         d="m -140.9721,208.32073 c -0.43656,-0.0591 -1.86531,-0.23819 -3.175,-0.39793 -5.9682,-0.72793 -13.52311,-2.8515 -19.1823,-5.39186 -2.91619,-1.30906 -8.52079,-4.38318 -9.71013,-5.32602 l -0.6975,-0.55292 2.22726,-3.2084 c 1.22499,-1.76462 2.32978,-3.21244 2.45509,-3.21738 0.12531,-0.005 1.19687,0.57313 2.38125,1.2846 7.64668,4.59347 15.76324,7.39962 24.643,8.51984 3.07722,0.38821 11.00448,0.38621 13.89062,-0.004 8.58865,-1.15969 16.47272,-3.77288 23.17022,-7.67981 1.50945,-0.88052 2.83701,-1.5972 2.95014,-1.59262 0.11313,0.005 1.20425,1.45536 2.424732,3.22393 l 2.21905,3.21559 -0.68633,0.54639 c -1.24909,0.99439 -6.310172,3.67966 -9.553652,5.0689 -5.73974,2.45844 -11.13524,4.00609 -17.53113,5.02867 -2.46125,0.39351 -13.90592,0.74246 -15.82532,0.48252 z m 1.71652,-14.93995 c -5.81841,-0.40945 -12.95429,-2.24985 -18.34494,-4.73131 -2.92771,-1.3477 -7.31638,-3.915 -7.31638,-4.27996 0,-0.22747 2.82338,-4.41233 3.41838,-5.06675 0.0994,-0.10938 1.4961,0.55168 3.10371,1.46898 4.83988,2.76167 9.90691,4.5551 15.9675,5.65159 3.74959,0.67837 11.3137,0.61641 15.39285,-0.12608 5.27228,-0.95967 11.83028,-3.38464 15.86181,-5.86527 0.71337,-0.43895 1.34606,-0.79809 1.40597,-0.79809 0.15075,0 3.90008,5.33694 3.80021,5.4094 -0.0444,0.0322 -0.79501,0.48207 -1.66813,0.99977 -9.31138,5.52097 -20.50993,8.11962 -31.62098,7.33772 z m -0.65819,-14.7194 c -5.17736,-0.64884 -11.63071,-2.91398 -15.79963,-5.54572 l -1.01763,-0.6424 1.37959,-1.97593 c 0.75878,-1.08677 1.45651,-1.97594 1.55053,-1.97594 0.094,0 1.41161,0.64751 2.92799,1.43891 3.26301,1.70296 6.63353,2.87872 9.87049,3.44321 3.02792,0.52802 8.67139,0.5283 11.70348,5.2e-4 3.00527,-0.52303 7.27496,-1.9506 9.86631,-3.29877 1.11507,-0.58013 2.10934,-1.05477 2.20948,-1.05477 0.29614,0 2.84286,3.75279 2.7017,3.9812 -0.24302,0.39321 -3.47194,2.07899 -5.70235,2.97711 -2.69654,1.08584 -6.78288,2.17338 -9.58879,2.55201 -1.93208,0.26069 -8.31605,0.32422 -10.10117,0.10051 z M 11.295608,131.47974 V 99.994312 h 7.67102 7.67103 l 0.068,17.433108 0.068,17.43311 12.0328,-17.43311 12.0328,-17.433108 h 6.28769 6.28769 l 0.0681,17.317828 0.068,17.31784 11.91462,-17.25169 11.91458,-17.25169 9.31823,-0.0695 c 5.125002,-0.0382 9.312542,0.0213 9.305632,0.1323 -0.007,0.111 -9.575192,14.25119 -21.262843,31.42265 l -21.250299,31.22083 -7.83913,0.0701 -7.83913,0.0701 -0.0683,-14.9367 -0.0683,-14.93671 -10.44837,14.93277 -10.44838,14.93277 h -7.74173 -7.74173 z m 65.53348,28.48933 c 1.137149,-1.64784 10.99725,-15.81388 21.91131,-31.4801 l 19.843752,-28.48402 7.87135,-0.0053 7.87136,-0.0053 v 31.48542 31.48542 h -7.54063 -7.54062 v -4.49794 -4.49792 l -10.25261,0.0112 -10.252602,0.0112 -3.04271,4.4866 -3.04271,4.4866 -8.946731,1.4e-4 -8.94672,1.3e-4 2.067561,-2.99607 z m 42.416522,-27.431 c 0,-4.51115 -0.0478,-8.20209 -0.10621,-8.20209 -0.0584,0 -2.10312,2.9468 -4.54385,6.54844 -2.4407,3.60164 -4.96321,7.29258 -5.60556,8.20209 l -1.16793,1.65364 h 5.71177 5.71178 z m 25.92916,-1.05834 V 99.994307 h 8.01823 8.01825 L 172.243,116.96871 183.27477,133.9431 V 116.96871 99.994307 h 7.80521 7.80521 v 31.485423 31.48541 h -8.33414 -8.33413 l -10.78201,-16.17368 -10.78201,-16.17368 -0.0682,16.17368 -0.0682,16.17368 h -7.67088 -7.67088 z m -263.3927,-20.6709 c -3.00413,-1.98275 -8.23146,-3.92164 -12.43606,-4.6127 -3.78609,-0.62227 -9.62235,-0.39405 -13.22853,0.51727 -3.16489,0.7998 -4.68717,1.37223 -7.7796,2.92534 l -2.32985,1.17012 -1.38074,-2.02326 c -1.6292,-2.38733 -1.7827,-2.10866 2.22978,-4.04786 5.80108,-2.80361 10.44544,-3.82336 17.3302,-3.80514 5.10396,0.0135 7.52463,0.3691 11.89666,1.74758 2.47004,0.7788 7.7557,3.22404 8.94271,4.13707 l 0.59874,0.46054 -1.47608,2.0468 c -0.81184,1.12574 -1.49799,2.0381 -1.52478,2.02746 -0.0268,-0.0106 -0.40589,-0.25509 -0.84245,-0.54322 z m 325.42437,-2.72002 c -1.0877,-0.47377 -2.17638,-1.81997 -2.38919,-2.95433 -0.23817,-1.26961 0.49996,-3.12206 1.53877,-3.86176 1.72786,-1.23034 4.60481,-0.80502 5.82506,0.86116 1.34488,1.83636 0.58749,4.87778 -1.44438,5.79994 -1.3222,0.60009 -2.39977,0.6474 -3.53026,0.15499 z m 2.65896,-1.07349 c 0.63542,-0.29096 0.68659,-0.36774 0.25643,-0.38494 -0.34361,-0.0137 -0.64529,-0.30759 -0.8369,-0.81524 -0.16478,-0.43656 -0.42902,-0.79375 -0.58716,-0.79375 -0.15817,0 -0.28758,0.35719 -0.28758,0.79375 0,0.61736 -0.11758,0.79375 -0.52917,0.79375 -0.48506,0 -0.52916,-0.17639 -0.52916,-2.11667 v -2.11666 h 1.29053 c 1.52522,0 2.02213,0.43619 1.79435,1.57512 -0.0858,0.42904 -0.0241,1.15888 0.13742,1.62187 l 0.29345,0.84181 0.34941,-0.63034 c 0.64254,-1.15913 0.45662,-2.31461 -0.53141,-3.30263 -1.14218,-1.14219 -2.38382,-1.21948 -3.56905,-0.22218 -1.57919,1.32881 -1.26523,3.95293 0.5683,4.74992 1.05611,0.45908 1.19063,0.45946 2.18054,0.006 z m -0.66146,-3.05631 c 0.35277,-0.23159 0.35277,-0.28948 0,-0.52107 -0.59486,-0.3905 -0.79375,-0.32522 -0.79375,0.26053 0,0.58576 0.19889,0.65104 0.79375,0.26054 z m -320.27812,-4.119868 c -2.34379,-1.47895 -7.00128,-3.65224 -9.91394,-4.626079 -9.27829,-3.102157 -18.78795,-3.322614 -28.07487,-0.65084 -3.00205,0.863666 -7.49273,2.760146 -10.10882,4.269105 -2.45802,1.417792 -2.09119,1.574702 -4.52522,-1.935618 l -1.50643,-2.172552 1.11841,-0.706025 c 5.58616,-3.526388 13.59029,-6.357903 20.86399,-7.380785 3.59702,-0.505838 10.53308,-0.507463 14.37855,-0.0034 5.62736,0.737682 11.65252,2.572001 16.70999,5.087244 2.91543,1.449936 5.95313,3.28729 5.95313,3.600755 0,0.329136 -3.42663,5.204223 -3.65095,5.194233 -0.10203,-0.005 -0.66176,-0.30877 -1.24384,-0.676073 z m 6.87916,-11.526344 c -6.26762,-3.915743 -13.91701,-6.812703 -21.56354,-8.166497 -4.61967,-0.817898 -12.86819,-1.011639 -17.4625,-0.410162 -8.54606,1.118838 -16.43652,3.78592 -23.5659,7.965588 -1.10709,0.649044 -2.1215,1.178936 -2.25423,1.177536 -0.13273,-0.0013 -1.24361,-1.446874 -2.46862,-3.212168 -2.54692,-3.670226 -2.60945,-3.146859 0.60149,-5.035005 2.66565,-1.567501 8.3907,-4.270119 11.37747,-5.370963 15.43016,-5.687137 33.72258,-5.393349 49.12297,0.788951 5.30052,2.127829 13.124682,6.464011 12.868452,7.131746 -0.1137,0.296291 -4.004742,5.880013 -4.372842,6.275117 -0.0914,0.09804 -1.11858,-0.416819 -2.28275,-1.144143 z"
         id="path3121-6" />
      <path
         style="fill:#000000;stroke-width:0.26458335"
         d="m -141.53833,164.17744 c -7.99737,-1.51671 -14.4245,-6.50625 -17.18533,-13.34138 -2.34188,-5.79789 -2.60486,-14.3969 -0.62435,-20.41467 2.51948,-7.6554 8.82258,-13.11714 17.18256,-14.88896 3.52225,-0.74651 9.71223,-0.74651 13.23447,0 8.33396,1.76631 14.61224,7.18986 17.18149,14.8424 1.58406,4.71816 1.75356,12.02512 0.40234,17.34476 -2.03239,8.00135 -7.98089,13.80103 -16.50723,16.09426 -2.60138,0.69966 -10.76776,0.91665 -13.68395,0.36359 z m 9.81791,-10.9147 c 3.97325,-1.3962 5.95673,-4.17482 6.92194,-9.69685 1.00653,-5.75836 -0.19661,-11.54349 -3.08481,-14.83297 -1.92202,-2.18906 -6.11252,-3.44795 -9.52779,-2.86229 -4.46254,0.76524 -7.23226,3.50854 -8.62293,8.54067 -0.59105,2.13873 -0.66348,8.13131 -0.12445,10.29759 1.25575,5.04675 4.30005,8.26077 8.49358,8.96713 1.73045,0.29147 4.48361,0.10006 5.94446,-0.41328 z m 101.81845,10.90505 c -2.495687,-0.56384 -4.931291,-1.85241 -6.792833,-3.59379 -3.03902,-2.84285 -4.297854,-6.25339 -4.049157,-10.97032 0.323276,-6.13139 2.96653,-9.87215 8.960803,-12.68143 3.806359,-1.78389 8.675724,-3.00959 15.826607,-3.9838 4.721511,-0.64325 4.233333,-0.28576 4.233333,-3.10002 0,-3.29748 -0.526618,-4.40964 -2.558796,-5.40389 -1.254349,-0.6137 -1.790057,-0.71462 -3.751728,-0.70677 -3.881686,0.0155 -5.861883,1.35765 -6.768052,4.58721 l -0.442552,1.57724 h -6.769722 -6.769724 l 0.175582,-1.71378 c 0.700395,-6.83627 4.780286,-11.0429 12.252275,-12.63289 2.096934,-0.44622 3.532394,-0.55206 7.488967,-0.5522 11.9079913,-5.3e-4 17.72203,2.52752 20.0092894,8.69998 0.4420923,1.19304 0.4976865,2.74619 0.6527906,18.23744 0.172249,17.20394 0.1921086,17.55489 1.1866059,20.96823 l 0.1734476,0.59531 h -6.4872657 -6.4872687 l -0.3006431,-0.8599 c -0.165351,-0.47294 -0.370253,-1.52249 -0.455337,-2.33234 l -0.154694,-1.47244 -1.256522,1.22389 c -1.366441,1.33096 -4.096409,2.77783 -7.012694,3.71669 -2.36188,0.76038 -8.333052,0.97813 -10.902712,0.39758 z m 13.008216,-10.7368 c 2.375558,-1.14088 4.026207,-3.27109 4.810876,-6.20856 0.376296,-1.4087 0.498232,-6.48229 0.155789,-6.48229 -0.624514,0 -10.627807,3.02621 -11.541521,3.49156 -2.82769,1.44011 -4.050766,3.23541 -3.777287,5.54451 0.380603,3.21358 2.351966,4.50528 6.659139,4.36327 1.851774,-0.061 2.672921,-0.21859 3.693004,-0.70849 z M -205.92738,131.8766 v -31.61771 h 7.9375 7.9375 v 24.87083 24.87084 h 12.30313 12.30312 v 6.74687 6.74688 h -20.24062 -20.24063 z m 104.51042,-0.0146 v -31.63231 l 18.719266,0.10063 c 17.973177,0.0966 18.810763,0.12294 21.014814,0.66026 7.697086,1.87645 12.11509,5.96135 14.03296,12.9749 0.454458,1.66192 0.561197,2.83841 0.580805,6.40174 0.02278,4.14021 -0.01442,4.47492 -0.720267,6.48229 -1.494375,4.24981 -4.720196,7.92398 -8.710547,9.92121 -1.163695,0.58245 -2.273593,1.059 -2.466435,1.059 -0.192841,0 -0.419658,0.11171 -0.504039,0.24823 -0.08438,0.13653 3.004219,5.7872 6.863554,12.55705 3.859331,6.76985 7.016966,12.43426 7.016966,12.58758 0,0.19115 -2.790576,0.25687 -8.8783,0.20911 l -8.878297,-0.0697 -6.150819,-11.24479 -6.150819,-11.2448 -4.946922,-0.072 -4.946925,-0.072 v 11.38292 11.38292 h -7.9375 -7.937495 z m 34.18754,-3.62984 c 1.368737,-0.63464 2.792391,-1.94419 3.392596,-3.12068 0.826627,-1.62033 1.168193,-4.37188 0.803018,-6.46887 -0.53154,-3.05232 -1.637474,-4.5921 -4.119618,-5.73568 -1.280446,-0.58993 -1.596858,-0.61216 -9.855729,-0.69224 l -8.532812,-0.0827 v 8.36736 8.36736 l 8.665104,-0.0895 c 7.516378,-0.0777 8.795332,-0.1499 9.647441,-0.545 z m 274.43579,-20.14335 c -2.75862,-1.50338 -3.14674,-5.07113 -0.85043,-6.81609 1.72786,-1.23034 4.60481,-0.80502 5.82507,0.86116 1.34488,1.83636 0.58748,4.87778 -1.44439,5.79994 -1.3222,0.60009 -2.39977,0.6474 -3.53025,0.15499 z m 2.65895,-1.07349 c 0.63543,-0.29096 0.6866,-0.36774 0.25644,-0.38494 -0.34362,-0.0137 -0.6453,-0.30759 -0.83691,-0.81524 -0.16478,-0.43656 -0.42902,-0.79375 -0.58716,-0.79375 -0.15817,0 -0.28758,0.35719 -0.28758,0.79375 0,0.61736 -0.11758,0.79375 -0.52916,0.79375 -0.48506,0 -0.52917,-0.17639 -0.52917,-2.11667 v -2.11666 h 1.29053 c 1.52522,0 2.02213,0.43619 1.79435,1.57512 -0.0858,0.42904 -0.0241,1.15888 0.13743,1.62187 l 0.29345,0.84181 0.34941,-0.63034 c 0.64254,-1.15913 0.45661,-2.31461 -0.53142,-3.30263 -1.14218,-1.14219 -2.38382,-1.21948 -3.56904,-0.22218 -1.5792,1.32881 -1.26524,3.95293 0.5683,4.74992 1.05611,0.45908 1.19062,0.45946 2.18053,0.006 z m -0.66146,-3.05631 c 0.35277,-0.23159 0.35277,-0.28948 0,-0.52107 -0.59486,-0.3905 -0.79375,-0.32522 -0.79375,0.26053 0,0.58576 0.19889,0.65104 0.79375,0.26054 z"
         id="path3121" />
    </g>
  </g>
</svg>
