<svg xmlns="http://www.w3.org/2000/svg" viewBox="0 0 418.784 137.215" height="518.607" width="1582.805"><path d="M64.955 137.125c-.436-.059-1.865-.238-3.175-.398-5.968-.727-13.523-2.851-19.182-5.391-2.916-1.31-8.52-4.384-9.71-5.326l-.698-.553 2.228-3.209c1.225-1.764 2.33-3.212 2.455-3.217.125-.005 1.197.573 2.38 1.285 7.648 4.593 15.764 7.4 24.644 8.52 3.077.388 11.004.386 13.89-.005 8.59-1.16 16.473-3.773 23.17-7.68 1.51-.88 2.838-1.597 2.95-1.592.114.005 1.205 1.455 2.426 3.224l2.219 3.215-.687.547c-1.249.994-6.31 3.68-9.553 5.069-5.74 2.458-11.136 4.006-17.531 5.028-2.462.394-13.906.743-15.826.483zm1.717-14.94c-5.819-.409-12.954-2.25-18.345-4.73-2.928-1.349-7.317-3.916-7.317-4.28 0-.228 2.824-4.413 3.419-5.068.1-.109 1.496.552 3.104 1.47 4.84 2.761 9.906 4.555 15.967 5.651 3.75.678 11.314.616 15.393-.126 5.272-.96 11.83-3.385 15.862-5.865.713-.44 1.346-.798 1.406-.798.15 0 3.9 5.337 3.8 5.409-.044.032-.795.482-1.668 1-9.312 5.52-20.51 8.12-31.621 7.337zm-.658-14.719c-5.178-.649-11.631-2.914-15.8-5.546l-1.018-.642 1.38-1.976c.759-1.087 1.456-1.976 1.55-1.976.094 0 1.412.648 2.928 1.439 3.263 1.703 6.634 2.879 9.87 3.443 3.029.528 8.672.529 11.704 0 3.006-.522 7.275-1.95 9.867-3.298 1.115-.58 2.11-1.055 2.21-1.055.295 0 2.842 3.753 2.7 3.981-.242.394-3.471 2.08-5.701 2.977-2.697 1.086-6.783 2.174-9.59 2.553-1.931.26-8.315.324-10.1.1zm151.209-47.182V28.8h15.342l.068 17.433.068 17.433 12.033-17.433L256.767 28.8h12.575l.068 17.318.068 17.318 11.915-17.252 11.914-17.252 9.319-.07c5.125-.037 9.312.022 9.305.133-.007.111-9.575 14.251-21.263 31.423l-21.25 31.22-7.84.07-7.838.07-.069-14.936-.068-14.937-10.448 14.933-10.449 14.933h-15.483zm65.533 28.49c1.138-1.648 10.998-15.814 21.912-31.48l19.844-28.484 7.87-.006 7.872-.005V91.77h-15.081v-8.996l-10.253.011-10.252.011-3.043 4.487-3.043 4.487H280.69l2.067-2.996zm42.417-27.431c0-4.511-.048-8.202-.106-8.202-.059 0-2.103 2.946-4.544 6.548-2.44 3.602-4.963 7.293-5.606 8.202l-1.168 1.654h11.424zm25.93-1.059V28.8h16.036l11.031 16.974 11.032 16.975v-33.95h15.611V91.77h-16.669l-10.782-16.174-10.782-16.174-.068 16.174-.068 16.174h-15.341zM87.708 39.614c-3.003-1.984-8.23-3.922-12.435-4.614-3.786-.622-9.622-.394-13.228.517-3.165.8-4.687 1.372-7.78 2.925l-2.33 1.17-1.38-2.023c-1.63-2.387-1.783-2.108 2.23-4.048 5.8-2.803 10.445-3.823 17.33-3.805 5.104.014 7.524.37 11.896 1.748 2.47.779 7.756 3.224 8.943 4.137l.599.46-1.476 2.047c-.812 1.126-1.498 2.038-1.525 2.028-.027-.01-.406-.255-.843-.543zm325.425-2.72c-1.088-.474-2.177-1.82-2.39-2.955-.238-1.27.5-3.122 1.54-3.862 1.727-1.23 4.604-.805 5.824.862 1.345 1.836.588 4.877-1.444 5.8-1.322.6-2.4.647-3.53.155zm2.659-1.074c.635-.29.686-.368.256-.385-.343-.014-.645-.308-.837-.815-.164-.437-.429-.794-.587-.794-.158 0-.287.357-.287.794 0 .617-.118.794-.53.794-.485 0-.529-.177-.529-2.117V31.18h1.29c1.526 0 2.023.436 1.795 1.575-.086.43-.024 1.16.138 1.622l.293.842.35-.63c.642-1.16.456-2.315-.532-3.303-1.142-1.142-2.384-1.22-3.57-.222-1.578 1.329-1.264 3.953.57 4.75 1.055.459 1.19.46 2.18.006zm-.662-3.056c.353-.232.353-.29 0-.521-.595-.39-.793-.326-.793.26 0 .586.198.651.793.26zm-320.278-4.12c-2.344-1.48-7.001-3.652-9.914-4.626-9.278-3.102-18.788-3.323-28.075-.651-3.002.864-7.492 2.76-10.108 4.269-2.458 1.418-2.092 1.575-4.526-1.936l-1.506-2.172 1.118-.706c5.586-3.527 13.59-6.358 20.864-7.381 3.597-.506 10.533-.507 14.379-.003 5.627.737 11.652 2.572 16.71 5.087 2.915 1.45 5.953 3.287 5.953 3.6 0 .33-3.427 5.205-3.651 5.195-.102-.005-.662-.309-1.244-.676zm6.88-11.527c-6.268-3.915-13.918-6.812-21.564-8.166-4.62-.818-12.868-1.012-17.463-.41C54.16 9.66 46.27 12.327 39.14 16.506c-1.107.65-2.121 1.18-2.254 1.178-.133-.001-1.243-1.447-2.468-3.212-2.547-3.67-2.61-3.147.601-5.035 2.666-1.568 8.39-4.27 11.378-5.371 15.43-5.687 33.722-5.394 49.123.789 5.3 2.128 13.124 6.464 12.868 7.132-.114.296-4.005 5.88-4.373 6.275-.091.098-1.118-.417-2.283-1.145z" fill="#00aeef"/><path d="M64.389 92.982c-7.997-1.517-14.424-6.506-17.185-13.341-2.342-5.798-2.605-14.397-.625-20.415 2.52-7.655 8.823-13.117 17.183-14.889 3.522-.746 9.712-.746 13.234 0 8.334 1.766 14.613 7.19 17.182 14.843 1.584 4.718 1.753 12.025.402 17.344-2.032 8.002-7.98 13.801-16.507 16.095-2.601.7-10.768.916-13.684.363zm9.818-10.915c3.973-1.396 5.957-4.174 6.922-9.696 1.006-5.759-.197-11.544-3.085-14.833-1.922-2.19-6.112-3.448-9.528-2.863-4.462.766-7.232 3.509-8.623 8.541-.59 2.139-.663 8.131-.124 10.298 1.256 5.046 4.3 8.26 8.494 8.967 1.73.291 4.483.1 5.944-.414zm101.818 10.905a14.97 14.97 0 01-6.792-3.593c-3.04-2.843-4.298-6.254-4.05-10.97.324-6.132 2.967-9.873 8.961-12.682 3.807-1.784 8.676-3.01 15.827-3.984 4.721-.643 4.233-.286 4.233-3.1 0-3.297-.526-4.41-2.559-5.404-1.254-.613-1.79-.714-3.751-.707-3.882.016-5.862 1.358-6.768 4.588l-.443 1.577h-13.54l.176-1.714c.7-6.836 4.78-11.043 12.252-12.633 2.097-.446 3.533-.552 7.49-.552 11.907 0 17.721 2.528 20.009 8.7.442 1.193.497 2.746.652 18.237.173 17.204.193 17.555 1.187 20.969l.174.595h-12.975l-.3-.86c-.166-.473-.37-1.522-.456-2.332l-.155-1.473-1.256 1.224c-1.367 1.331-4.097 2.778-7.013 3.717-2.362.76-8.333.978-10.903.397zm13.009-10.736c2.375-1.141 4.026-3.271 4.81-6.209.377-1.409.499-6.482.156-6.482-.624 0-10.628 3.026-11.541 3.491-2.828 1.44-4.051 3.236-3.778 5.545.381 3.213 2.352 4.505 6.66 4.363 1.851-.06 2.673-.218 3.693-.708zM0 60.68V29.064h15.875v49.741h24.606V92.3H0zm104.51-.014V29.034l18.72.101c17.973.097 18.81.123 21.014.66 7.698 1.877 12.116 5.962 14.033 12.975.455 1.662.562 2.839.581 6.402.023 4.14-.014 4.475-.72 6.482-1.494 4.25-4.72 7.924-8.71 9.921-1.164.583-2.274 1.06-2.467 1.06-.193 0-.42.111-.504.248-.084.136 3.004 5.787 6.864 12.557 3.859 6.77 7.016 12.434 7.016 12.587 0 .191-2.79.257-8.878.21l-8.878-.07-6.15-11.245-6.152-11.245-4.947-.072-4.947-.072V92.3H104.51zm34.188-3.63c1.369-.635 2.792-1.944 3.393-3.12.826-1.621 1.168-4.373.803-6.47-.532-3.052-1.638-4.592-4.12-5.735-1.28-.59-1.597-.613-9.856-.693l-8.533-.082V57.67l8.666-.09c7.516-.077 8.795-.149 9.647-.544zm274.436-20.143c-2.759-1.504-3.147-5.072-.85-6.817 1.727-1.23 4.604-.805 5.824.862 1.345 1.836.588 4.877-1.444 5.8-1.322.6-2.4.647-3.53.155zm2.659-1.074c.635-.29.686-.368.256-.385-.343-.014-.645-.308-.837-.815-.165-.437-.429-.794-.587-.794-.158 0-.288.357-.288.794 0 .617-.117.794-.529.794-.485 0-.529-.177-.529-2.117V31.18h1.29c1.526 0 2.023.436 1.795 1.575-.086.43-.024 1.16.137 1.622l.294.842.35-.63c.642-1.16.456-2.315-.532-3.303-1.142-1.142-2.384-1.22-3.57-.222-1.578 1.329-1.264 3.953.57 4.75 1.055.459 1.19.46 2.18.006zm-.662-3.056c.353-.232.353-.29 0-.521-.595-.39-.794-.326-.794.26 0 .586.2.651.794.26z"/></svg>