<svg xmlns="http://www.w3.org/2000/svg" width="200" height="200" viewBox="0 0 52.917 52.917"><g stroke-width="6.496" fill="none" stroke="#000" stroke-linecap="butt" stroke-linejoin="miter" clip-rule="evenodd" fill-rule="evenodd"><path d="M45.723 26.466h132.782V-6.943L162.183-22.57H61.296L45.723-7.344z" transform="matrix(.31882 0 0 .333 -9.286 33.38)"/><path d="M45.723-7.344h66.391L128.38-22.7l16.986 16.263 16.818-16.134M112.114-7.344v33.66M145.365-6.436v32.669M128.379-22.7l-3.372-48.665h-9.706l-4.724 48.63M114.115-54.836h11.855M112.114-38.023h15.19" transform="matrix(.31882 0 0 .333 -9.286 33.38)"/><g><path d="M128.379-22.7l-3.372-48.665h-9.706l-4.724 48.63M114.115-54.836h11.855M112.114-38.023h15.19" transform="matrix(.31882 0 0 .333 -.82 33.38)"/></g></g></svg>