<?xml version="1.0" encoding="UTF-8" standalone="no"?>
<svg
   xmlns:dc="http://purl.org/dc/elements/1.1/"
   xmlns:cc="http://creativecommons.org/ns#"
   xmlns:rdf="http://www.w3.org/1999/02/22-rdf-syntax-ns#"
   xmlns:svg="http://www.w3.org/2000/svg"
   xmlns="http://www.w3.org/2000/svg"
   xmlns:sodipodi="http://sodipodi.sourceforge.net/DTD/sodipodi-0.dtd"
   xmlns:inkscape="http://www.inkscape.org/namespaces/inkscape"
   id="svg1191"
   style="fill-rule:evenodd;clip-rule:evenodd;stroke-linecap:round;stroke-linejoin:round;stroke-miterlimit:1.5;"
   xml:space="preserve"
   version="1.1"
   viewBox="0 0 800 600"
   height="100%"
   width="100%"
   sodipodi:docname="monitor-all.svg"
   inkscape:version="0.92.5 (2060ec1f9f, 2020-04-08)"><sodipodi:namedview
   pagecolor="#ffffff"
   bordercolor="#666666"
   borderopacity="1"
   objecttolerance="10"
   gridtolerance="10"
   guidetolerance="10"
   inkscape:pageopacity="0"
   inkscape:pageshadow="2"
   inkscape:window-width="1880"
   inkscape:window-height="1136"
   id="namedview820"
   showgrid="false"
   inkscape:zoom="0.76333333"
   inkscape:cx="400.01561"
   inkscape:cy="174.08977"
   inkscape:window-x="40"
   inkscape:window-y="27"
   inkscape:window-maximized="1"
   inkscape:current-layer="svg1191" /><metadata
   id="metadata1197"><rdf:RDF><cc:Work
       rdf:about=""><dc:format>image/svg+xml</dc:format><dc:type
         rdf:resource="http://purl.org/dc/dcmitype/StillImage" /><dc:title></dc:title></cc:Work></rdf:RDF></metadata><defs
   id="defs1195" />
    
    
<g
   id="g990"
   transform="matrix(0.71483338,0,0,0.71483338,114.06665,85.549985)"><path
     inkscape:connector-curvature="0"
     id="path833-3"
     d="m 144.17969,255.05994 c -24.70826,0 -44.941411,20.2312 -44.941411,44.93945 0,24.70826 20.233151,44.94141 44.941411,44.94141 21.46884,0 39.55131,-15.27828 43.92578,-35.49219 h 423.79102 c 4.37408,20.21391 22.45499,35.49219 43.92382,35.49219 24.70826,0 44.94141,-20.23315 44.94141,-44.94141 0,-24.70825 -20.23315,-44.93945 -44.94141,-44.93945 -21.46949,0 -39.55045,15.27775 -43.92382,35.49219 H 188.10547 c -4.37376,-20.21444 -22.45628,-35.49219 -43.92578,-35.49219 z m 0,18.89648 c 14.49521,0 26.04297,11.54776 26.04297,26.04297 0,14.49522 -11.54776,26.04493 -26.04297,26.04493 -14.49522,0 -26.04297,-11.54971 -26.04297,-26.04493 0,-14.49521 11.54775,-26.04297 26.04297,-26.04297 z m 511.64062,0 c 14.49522,0 26.04493,11.54776 26.04492,26.04297 0,14.49522 -11.5497,26.04493 -26.04492,26.04493 -14.49521,0 -26.04297,-11.54971 -26.04297,-26.04493 0,-14.49521 11.54776,-26.04297 26.04297,-26.04297 z"
     style="color:#000000;font-style:normal;font-variant:normal;font-weight:normal;font-stretch:normal;font-size:medium;line-height:normal;font-family:sans-serif;font-variant-ligatures:normal;font-variant-position:normal;font-variant-caps:normal;font-variant-numeric:normal;font-variant-alternates:normal;font-feature-settings:normal;text-indent:0;text-align:start;text-decoration:none;text-decoration-line:none;text-decoration-style:solid;text-decoration-color:#000000;letter-spacing:normal;word-spacing:normal;text-transform:none;writing-mode:lr-tb;direction:ltr;text-orientation:mixed;dominant-baseline:auto;baseline-shift:baseline;text-anchor:start;white-space:normal;shape-padding:0;clip-rule:evenodd;display:inline;overflow:visible;visibility:visible;opacity:1;isolation:auto;mix-blend-mode:normal;color-interpolation:sRGB;color-interpolation-filters:linearRGB;solid-color:#000000;solid-opacity:1;vector-effect:none;fill:#000000;fill-opacity:1;fill-rule:evenodd;stroke:none;stroke-width:18.89763832;stroke-linecap:butt;stroke-linejoin:miter;stroke-miterlimit:1.5;stroke-dasharray:none;stroke-dashoffset:0;stroke-opacity:1;color-rendering:auto;image-rendering:auto;shape-rendering:auto;text-rendering:auto;enable-background:accumulate" /><path
     inkscape:connector-curvature="0"
     id="path833-3-3"
     d="M 311.00939,55.983272 C 298.65526,34.585292 271.01795,27.178461 249.61998,39.532586 228.222,51.886716 220.81616,79.525722 233.17029,100.9237 c 10.73442,18.59257 33.00703,26.61331 52.70002,20.29475 l 211.89551,367.01378 c -15.31872,13.89502 -19.50964,37.19269 -8.77523,55.78524 12.35413,21.39798 39.99313,28.80383 61.39111,16.4497 21.39797,-12.35412 28.80213,-39.99215 16.448,-61.39013 -10.73475,-18.59312 -33.00615,-26.61282 -52.69905,-20.29305 L 302.23515,111.77021 c 15.31933,-13.895009 19.50899,-37.193805 8.77424,-55.786938 z m -16.36483,9.44824 c 7.24761,12.55322 3.02083,28.327754 -9.53239,35.575358 -12.55323,7.24761 -28.32945,3.02181 -35.57705,-9.531408 -7.24761,-12.553228 -3.01915,-28.328728 9.53408,-35.576338 12.55322,-7.247605 28.32775,-3.02084 35.57536,9.532388 z M 550.46487,508.52528 c 7.24761,12.55323 3.02181,28.32945 -9.53142,35.57705 -12.55323,7.24761 -28.33042,3.02013 -35.57803,-9.5331 -7.2476,-12.55322 -3.01914,-28.32873 9.53409,-35.57634 12.55322,-7.2476 28.32775,-3.02083 35.57536,9.53239 z"
     style="color:#000000;font-style:normal;font-variant:normal;font-weight:normal;font-stretch:normal;font-size:medium;line-height:normal;font-family:sans-serif;font-variant-ligatures:normal;font-variant-position:normal;font-variant-caps:normal;font-variant-numeric:normal;font-variant-alternates:normal;font-feature-settings:normal;text-indent:0;text-align:start;text-decoration:none;text-decoration-line:none;text-decoration-style:solid;text-decoration-color:#000000;letter-spacing:normal;word-spacing:normal;text-transform:none;writing-mode:lr-tb;direction:ltr;text-orientation:mixed;dominant-baseline:auto;baseline-shift:baseline;text-anchor:start;white-space:normal;shape-padding:0;clip-rule:evenodd;display:inline;overflow:visible;visibility:visible;opacity:1;isolation:auto;mix-blend-mode:normal;color-interpolation:sRGB;color-interpolation-filters:linearRGB;solid-color:#000000;solid-opacity:1;vector-effect:none;fill:#000000;fill-opacity:1;fill-rule:evenodd;stroke:none;stroke-width:18.89763832;stroke-linecap:butt;stroke-linejoin:miter;stroke-miterlimit:1.5;stroke-dasharray:none;stroke-dashoffset:0;stroke-opacity:1;color-rendering:auto;image-rendering:auto;shape-rendering:auto;text-rendering:auto;enable-background:accumulate" /><path
     inkscape:connector-curvature="0"
     id="path833-3-3-5"
     d="m 488.99102,55.983266 c 12.35413,-21.39798 39.99144,-28.80481 61.38941,-16.45068 21.39798,12.35413 28.80382,39.99313 16.44969,61.391114 -10.73442,18.59257 -33.00703,26.61331 -52.70002,20.29475 L 302.2346,488.23223 c 15.31872,13.89502 19.50964,37.19269 8.77523,55.78524 -12.35413,21.39798 -39.99313,28.80383 -61.39111,16.4497 -21.39797,-12.35412 -28.80213,-39.99215 -16.448,-61.39013 10.73475,-18.59312 33.00615,-26.61282 52.69905,-20.29305 L 497.76526,111.77021 C 482.44593,97.875196 478.25627,74.576406 488.99102,55.983266 Z m 16.36483,9.44824 c -7.24761,12.55322 -3.02083,28.32776 9.53239,35.575364 12.55323,7.24761 28.32945,3.02181 35.57705,-9.531414 7.24761,-12.55323 3.01915,-28.32873 -9.53408,-35.57634 -12.55322,-7.2476 -28.32775,-3.02084 -35.57536,9.53239 z M 249.53555,508.52528 c -7.24761,12.55323 -3.02181,28.32945 9.53142,35.57705 12.55323,7.24761 28.33042,3.02013 35.57803,-9.5331 7.2476,-12.55322 3.01914,-28.32873 -9.53409,-35.57634 -12.55322,-7.2476 -28.32775,-3.02083 -35.57536,9.53239 z"
     style="color:#000000;font-style:normal;font-variant:normal;font-weight:normal;font-stretch:normal;font-size:medium;line-height:normal;font-family:sans-serif;font-variant-ligatures:normal;font-variant-position:normal;font-variant-caps:normal;font-variant-numeric:normal;font-variant-alternates:normal;font-feature-settings:normal;text-indent:0;text-align:start;text-decoration:none;text-decoration-line:none;text-decoration-style:solid;text-decoration-color:#000000;letter-spacing:normal;word-spacing:normal;text-transform:none;writing-mode:lr-tb;direction:ltr;text-orientation:mixed;dominant-baseline:auto;baseline-shift:baseline;text-anchor:start;white-space:normal;shape-padding:0;clip-rule:evenodd;display:inline;overflow:visible;visibility:visible;opacity:1;isolation:auto;mix-blend-mode:normal;color-interpolation:sRGB;color-interpolation-filters:linearRGB;solid-color:#000000;solid-opacity:1;vector-effect:none;fill:#000000;fill-opacity:1;fill-rule:evenodd;stroke:none;stroke-width:18.89763832;stroke-linecap:butt;stroke-linejoin:miter;stroke-miterlimit:1.5;stroke-dasharray:none;stroke-dashoffset:0;stroke-opacity:1;color-rendering:auto;image-rendering:auto;shape-rendering:auto;text-rendering:auto;enable-background:accumulate" /><circle
     r="81.885445"
     cy="300.00037"
     cx="400"
     id="path833"
     style="opacity:1;fill:#ffffff;fill-opacity:1;stroke:#000000;stroke-width:18.89763832;stroke-linecap:butt;stroke-linejoin:miter;stroke-miterlimit:1.5;stroke-dasharray:none;stroke-dashoffset:0;stroke-opacity:1" /></g></svg>