<?xml version="1.0" encoding="UTF-8" standalone="no"?>
<svg
   xmlns:dc="http://purl.org/dc/elements/1.1/"
   xmlns:cc="http://creativecommons.org/ns#"
   xmlns:rdf="http://www.w3.org/1999/02/22-rdf-syntax-ns#"
   xmlns:svg="http://www.w3.org/2000/svg"
   xmlns="http://www.w3.org/2000/svg"
   width="200"
   height="200"
   viewBox="0 0 160000 120000"
   version="1.1"
   xml:space="preserve"
   style="clip-rule:evenodd;fill-rule:evenodd;stroke-linecap:round;stroke-linejoin:round;stroke-miterlimit:1.5"
   id="svg1191"><metadata
   id="metadata1197"><rdf:RDF><cc:Work
       rdf:about=""><dc:format>image/svg+xml</dc:format><dc:type
         rdf:resource="http://purl.org/dc/dcmitype/StillImage" /><dc:title></dc:title></cc:Work></rdf:RDF></metadata><defs
   id="defs1195" />
    
    
<g
   transform="matrix(0.71483338,0,0,0.71483338,114.06665,159285.55)"
   id="g990"><path
     style="opacity:1;fill:#64c7cc;fill-opacity:1;stroke:none;stroke-width:1548.17675781;stroke-linecap:round;stroke-linejoin:round;stroke-miterlimit:4;stroke-dasharray:none;stroke-dashoffset:0;stroke-opacity:1;paint-order:normal"
     d="M 206624.76,-84119.98 111754.62,-29346.673 16884.481,-84119.98 v -109546.6 l 94870.139,-54773.3 94870.14,54773.3 z"
     id="path1134-4-1" /><g
     style="stroke-width:1.38724518"
     transform="matrix(0.72085311,0,0,0.72085311,36361.29,-72572.691)"
     id="g1841"><circle
       style="opacity:1;fill:#ffffff;fill-opacity:1;stroke:none;stroke-width:1604.75073242;stroke-linecap:round;stroke-linejoin:round;stroke-miterlimit:4;stroke-dasharray:none;stroke-dashoffset:0;stroke-opacity:1;paint-order:normal"
       id="path819"
       cx="59807.98"
       cy="-169043.53"
       r="11460.552" /><circle
       style="clip-rule:evenodd;opacity:1;fill:#ffffff;fill-opacity:1;fill-rule:evenodd;stroke:none;stroke-width:1604.75073242;stroke-linecap:round;stroke-linejoin:round;stroke-miterlimit:4;stroke-dasharray:none;stroke-dashoffset:0;stroke-opacity:1;paint-order:normal"
       id="path819-3"
       cx="148945.61"
       cy="-169361.88"
       r="11460.552" /><circle
       style="clip-rule:evenodd;opacity:1;fill:#ffffff;fill-opacity:1;fill-rule:evenodd;stroke:none;stroke-width:1604.75073242;stroke-linecap:round;stroke-linejoin:round;stroke-miterlimit:4;stroke-dasharray:none;stroke-dashoffset:0;stroke-opacity:1;paint-order:normal"
       id="path819-3-6-7"
       cx="149104.8"
       cy="-14485.25"
       r="11460.552" /><circle
       style="clip-rule:evenodd;opacity:1;fill:#ffffff;fill-opacity:1;fill-rule:evenodd;stroke:none;stroke-width:1604.75073242;stroke-linecap:round;stroke-linejoin:round;stroke-miterlimit:4;stroke-dasharray:none;stroke-dashoffset:0;stroke-opacity:1;paint-order:normal"
       id="path819-3-6-7-5"
       cx="60126.328"
       cy="-14166.904"
       r="11460.552" /><g
       style="stroke-width:1.38724518"
       id="g1826"><circle
         r="11460.552"
         cy="-91684.797"
         cx="193673.61"
         id="path819-3-6"
         style="clip-rule:evenodd;opacity:1;fill:#ffffff;fill-opacity:1;fill-rule:evenodd;stroke:none;stroke-width:1604.75073242;stroke-linecap:round;stroke-linejoin:round;stroke-miterlimit:4;stroke-dasharray:none;stroke-dashoffset:0;stroke-opacity:1;paint-order:normal" /><circle
         r="11460.552"
         cy="-91525.617"
         cx="15080.002"
         id="path819-3-6-7-5-3"
         style="clip-rule:evenodd;opacity:1;fill:#ffffff;fill-opacity:1;fill-rule:evenodd;stroke:none;stroke-width:1604.75073242;stroke-linecap:round;stroke-linejoin:round;stroke-miterlimit:4;stroke-dasharray:none;stroke-dashoffset:0;stroke-opacity:1;paint-order:normal" /><circle
         r="27457.57"
         cy="-91764.383"
         cx="104456.38"
         id="path819-3-6-7-5-3-5"
         style="clip-rule:evenodd;opacity:1;fill:#ffffff;fill-opacity:1;fill-rule:evenodd;stroke:none;stroke-width:3844.71557617;stroke-linecap:round;stroke-linejoin:round;stroke-miterlimit:4;stroke-dasharray:none;stroke-dashoffset:0;stroke-opacity:1;paint-order:normal" /><path
         id="path833-3-3"
         d="m 59720.227,-184567.6 c -2518.316,61.55 -5052.481,731.88 -7375.615,2073.14 -7434.039,4292.05 -10007.435,13894.5 -5715.393,21328.54 3729.328,6459.39 11467.3,9246.16 18308.997,7050.97 l 22694.494,39307.2 a 28448.461,28448.461 0 0 1 5686.912,-3280.59 l -22695.447,-39309.08 c 5322.209,-4827.38 6777.466,-12922.06 3048.022,-19381.64 -2950.78,-5110.9 -8411.673,-7923.96 -13951.97,-7788.54 z m 199.338,6533.64 c 3205.188,-91.61 6335.579,1539.04 8066.667,4537.38 2517.947,4361.21 1050.253,9842.14 -3310.959,12360.09 -4361.216,2517.95 -9842.142,1049.3 -12360.089,-3311.91 -2517.947,-4361.21 -1049.311,-9842.14 3311.906,-12360.09 1362.881,-786.86 2835.576,-1183.84 4292.475,-1225.47 z m 61625.785,108835.426 a 28448.461,28448.461 0 0 1 -5686.91,3280.583 l 22696.4,39310.039 c -5322,4827.375 -6778.3,12921.307 -3048.97,19380.6876 4292.05,7434.03906 13894.5,10007.4352 21328.54,5715.3927 7434.03,-4292.0425 10006.48,-13894.4983 5714.44,-21328.5373 -3729.45,-6459.58 -11467.33,-9245.626 -18309,-7050.026 z m 27249.92,45103.267 c 3205.18,-91.609 6336.52,1539.045 8067.61,4537.381 2517.95,4361.212 1050.26,9842.1426 -3310.96,12360.0897 -4361.21,2517.947 -9842.14,1049.3053 -12360.09,-3311.9117 -2517.94,-4361.211 -1049.3,-9842.137 3311.91,-12360.089 1362.88,-786.854 2834.63,-1183.829 4291.53,-1225.47 z"
         style="color:#000000;font-style:normal;font-variant:normal;font-weight:normal;font-stretch:normal;font-size:medium;line-height:normal;font-family:sans-serif;font-variant-ligatures:normal;font-variant-position:normal;font-variant-caps:normal;font-variant-numeric:normal;font-variant-alternates:normal;font-feature-settings:normal;text-indent:0;text-align:start;text-decoration:none;text-decoration-line:none;text-decoration-style:solid;text-decoration-color:#000000;letter-spacing:normal;word-spacing:normal;text-transform:none;writing-mode:lr-tb;direction:ltr;text-orientation:mixed;dominant-baseline:auto;baseline-shift:baseline;text-anchor:start;white-space:normal;shape-padding:0;clip-rule:evenodd;display:inline;overflow:visible;visibility:visible;opacity:1;isolation:auto;mix-blend-mode:normal;color-interpolation:sRGB;color-interpolation-filters:linearRGB;solid-color:#000000;solid-opacity:1;vector-effect:none;fill:#000000;fill-opacity:1;fill-rule:evenodd;stroke:none;stroke-width:9107.78613281;stroke-linecap:butt;stroke-linejoin:miter;stroke-miterlimit:1.5;stroke-dasharray:none;stroke-dashoffset:0;stroke-opacity:1;color-rendering:auto;image-rendering:auto;shape-rendering:auto;text-rendering:auto;enable-background:accumulate" /><g
         style="stroke-width:1.38724518"
         id="g1816"><path
           style="color:#000000;font-style:normal;font-variant:normal;font-weight:normal;font-stretch:normal;font-size:medium;line-height:normal;font-family:sans-serif;font-variant-ligatures:normal;font-variant-position:normal;font-variant-caps:normal;font-variant-numeric:normal;font-variant-alternates:normal;font-feature-settings:normal;text-indent:0;text-align:start;text-decoration:none;text-decoration-line:none;text-decoration-style:solid;text-decoration-color:#000000;letter-spacing:normal;word-spacing:normal;text-transform:none;writing-mode:lr-tb;direction:ltr;text-orientation:mixed;dominant-baseline:auto;baseline-shift:baseline;text-anchor:start;white-space:normal;shape-padding:0;clip-rule:evenodd;display:inline;overflow:visible;visibility:visible;opacity:1;isolation:auto;mix-blend-mode:normal;color-interpolation:sRGB;color-interpolation-filters:linearRGB;solid-color:#000000;solid-opacity:1;vector-effect:none;fill:#000000;fill-opacity:1;fill-rule:evenodd;stroke:none;stroke-width:9107.78613281;stroke-linecap:butt;stroke-linejoin:miter;stroke-miterlimit:1.5;stroke-dasharray:none;stroke-dashoffset:0;stroke-opacity:1;color-rendering:auto;image-rendering:auto;shape-rendering:auto;text-rendering:auto;enable-background:accumulate"
           d="m 15712.383,-107616.29 c -8584.0895,0 -15613.144193,7029.06 -15613.144193,15613.146 0,8584.09 7029.054693,15613.144 15613.144193,15613.144 7458.656,0 13741.206,-5307.993 15260.976,-12330.661 h 45391.836 a 28448.461,28448.461 0 0 1 -224.97,-3282.483 28448.461,28448.461 0 0 1 208.835,-3282.484 H 30973.359 c -1519.523,-7022.852 -7802.092,-12330.662 -15260.976,-12330.662 z m 177753.297,0 c -7458.88,0 -13740.64,5307.81 -15260.03,12330.662 h -45392.78 a 28448.461,28448.461 0 0 1 224.97,3282.484 28448.461,28448.461 0 0 1 -208.84,3282.483 h 45376.65 c 1519.64,7022.668 7801.38,12330.661 15260.03,12330.661 8584.09,0 15613.15,-7029.054 15613.15,-15613.144 0,-8584.086 -7029.06,-15613.146 -15613.15,-15613.146 z m -177753.297,6564.96 c 5035.895,0 9048.184,4012.292 9048.184,9048.186 0,5035.899 -4012.289,9048.183 -9048.184,9048.183 -5035.898,0 -9047.23,-4012.284 -9047.2349,-9048.183 0,-5035.894 4011.3369,-9048.186 9047.2349,-9048.186 z m 177753.297,0 c 5035.9,0 9048.19,4012.292 9048.18,9048.186 0,5035.899 -4012.28,9048.183 -9048.18,9048.183 -5035.89,0 -9048.18,-4012.284 -9048.18,-9048.183 0,-5035.894 4012.29,-9048.186 9048.18,-9048.186 z"
           id="path833-3" /><path
           style="color:#000000;font-style:normal;font-variant:normal;font-weight:normal;font-stretch:normal;font-size:medium;line-height:normal;font-family:sans-serif;font-variant-ligatures:normal;font-variant-position:normal;font-variant-caps:normal;font-variant-numeric:normal;font-variant-alternates:normal;font-feature-settings:normal;text-indent:0;text-align:start;text-decoration:none;text-decoration-line:none;text-decoration-style:solid;text-decoration-color:#000000;letter-spacing:normal;word-spacing:normal;text-transform:none;writing-mode:lr-tb;direction:ltr;text-orientation:mixed;dominant-baseline:auto;baseline-shift:baseline;text-anchor:start;white-space:normal;shape-padding:0;clip-rule:evenodd;display:inline;overflow:visible;visibility:visible;opacity:1;isolation:auto;mix-blend-mode:normal;color-interpolation:sRGB;color-interpolation-filters:linearRGB;solid-color:#000000;solid-opacity:1;vector-effect:none;fill:#000000;fill-opacity:1;fill-rule:evenodd;stroke:none;stroke-width:9107.78613281;stroke-linecap:butt;stroke-linejoin:miter;stroke-miterlimit:1.5;stroke-dasharray:none;stroke-dashoffset:0;stroke-opacity:1;color-rendering:auto;image-rendering:auto;shape-rendering:auto;text-rendering:auto;enable-background:accumulate"
           d="m 148703.19,-184567.6 c -5276.74,125.34 -10380.67,2909.95 -13197.32,7788.54 -3729.45,6459.58 -2273.24,14554.26 3048.97,19381.64 l -22684.06,39289.15 a 28448.461,28448.461 0 0 1 5673.63,3303.36 l 22695.44,-39310.04 c 6841.7,2195.19 14579.67,-591.58 18309,-7050.97 4292.04,-7434.04 1718.64,-17036.49 -5715.4,-21328.54 -2555.45,-1475.38 -5366.25,-2138.8 -8130.26,-2073.14 z m 556.26,6533.64 c 1456.9,41.65 2928.64,438.61 4291.52,1225.47 4361.22,2517.95 5829.86,7998.88 3311.91,12360.09 -2517.95,4361.21 -7998.87,5829.86 -12360.09,3311.91 -4361.21,-2517.95 -5828.9,-7998.88 -3310.96,-12360.09 1731.09,-2998.34 4862.43,-4628.99 8067.62,-4537.38 z M 87634.605,-69201.382 64938.216,-29890.395 c -6841.668,-2195.6 -14579.553,590.446 -18308.997,7050.026 -4292.042,7434.039 -1719.594,17036.4948 5714.44,21328.5373 7434.039,4292.0425 17036.49,1718.64636 21328.538,-5715.3927 3729.322,-6459.3806 2273.026,-14553.3126 -3048.969,-19380.6876 L 93307.282,-65898.02 a 28448.461,28448.461 0 0 1 -5672.677,-3303.362 z m -27251.807,45106.115 c 1456.9,41.651 2928.647,438.616 4291.527,1225.47 4361.212,2517.952 5830.802,7998.878 3312.855,12360.089 -2517.947,4361.217 -7999.821,5829.8587 -12361.038,3311.9117 -4361.216,-2517.9471 -5828.905,-7998.8777 -3310.958,-12360.0897 1731.088,-2998.336 4862.431,-4628.99 8067.614,-4537.381 z"
           id="path833-3-3-5" /><circle
           r="28448.461"
           cy="-92003.016"
           cx="104589.03"
           id="path833"
           style="opacity:1;fill:none;fill-opacity:1;stroke:#000000;stroke-width:9107.78613281;stroke-linecap:butt;stroke-linejoin:miter;stroke-miterlimit:1.5;stroke-dasharray:none;stroke-dashoffset:0;stroke-opacity:1" /></g></g></g></g></svg>