<?xml version="1.0" encoding="UTF-8" standalone="no"?>
<svg
   xmlns:dc="http://purl.org/dc/elements/1.1/"
   xmlns:cc="http://creativecommons.org/ns#"
   xmlns:rdf="http://www.w3.org/1999/02/22-rdf-syntax-ns#"
   xmlns:svg="http://www.w3.org/2000/svg"
   xmlns="http://www.w3.org/2000/svg"
   xmlns:sodipodi="http://sodipodi.sourceforge.net/DTD/sodipodi-0.dtd"
   xmlns:inkscape="http://www.inkscape.org/namespaces/inkscape"
   id="svg1191"
   style="fill-rule:evenodd;clip-rule:evenodd;stroke-linecap:round;stroke-linejoin:round;stroke-miterlimit:1.5;"
   xml:space="preserve"
   version="1.1"
   viewBox="0 0 800 600"
   height="100%"
   width="100%"
   sodipodi:docname="monitor-all.svg"
   inkscape:version="0.92.5 (2060ec1f9f, 2020-04-08)"><sodipodi:namedview
   pagecolor="#ffffff"
   bordercolor="#666666"
   borderopacity="1"
   objecttolerance="10"
   gridtolerance="10"
   guidetolerance="10"
   inkscape:pageopacity="0"
   inkscape:pageshadow="2"
   inkscape:window-width="2800"
   inkscape:window-height="1672"
   id="namedview820"
   showgrid="false"
   inkscape:zoom="3.0533333"
   inkscape:cx="409.35044"
   inkscape:cy="276.04938"
   inkscape:window-x="80"
   inkscape:window-y="54"
   inkscape:window-maximized="1"
   inkscape:current-layer="g990" /><metadata
   id="metadata1197"><rdf:RDF><cc:Work
       rdf:about=""><dc:format>image/svg+xml</dc:format><dc:type
         rdf:resource="http://purl.org/dc/dcmitype/StillImage" /><dc:title /></cc:Work></rdf:RDF></metadata><defs
   id="defs1195" />
    
    
<g
   id="g990"
   transform="matrix(0.71483338,0,0,0.71483338,114.06665,85.549985)"><circle
     style="opacity:1;fill:#ffffff;fill-opacity:1;stroke:none;stroke-width:3.32967854;stroke-linecap:round;stroke-linejoin:round;stroke-miterlimit:4;stroke-dasharray:none;stroke-dashoffset:0;stroke-opacity:1;paint-order:normal"
     id="path819"
     cx="271.10318"
     cy="78.248604"
     r="32.987808" /><circle
     style="clip-rule:evenodd;opacity:1;fill:#ffffff;fill-opacity:1;fill-rule:evenodd;stroke:none;stroke-width:3.32967854;stroke-linecap:round;stroke-linejoin:round;stroke-miterlimit:4;stroke-dasharray:none;stroke-dashoffset:0;stroke-opacity:1;paint-order:normal"
     id="path819-3"
     cx="527.67505"
     cy="77.332291"
     r="32.987808" /><circle
     style="clip-rule:evenodd;opacity:1;fill:#ffffff;fill-opacity:1;fill-rule:evenodd;stroke:none;stroke-width:3.32967854;stroke-linecap:round;stroke-linejoin:round;stroke-miterlimit:4;stroke-dasharray:none;stroke-dashoffset:0;stroke-opacity:1;paint-order:normal"
     id="path819-3-6"
     cx="656.41913"
     cy="300.91632"
     r="32.987808" /><circle
     style="clip-rule:evenodd;opacity:1;fill:#ffffff;fill-opacity:1;fill-rule:evenodd;stroke:none;stroke-width:3.32967854;stroke-linecap:round;stroke-linejoin:round;stroke-miterlimit:4;stroke-dasharray:none;stroke-dashoffset:0;stroke-opacity:1;paint-order:normal"
     id="path819-3-6-7"
     cx="528.13324"
     cy="523.12585"
     r="32.987808" /><circle
     style="clip-rule:evenodd;opacity:1;fill:#ffffff;fill-opacity:1;fill-rule:evenodd;stroke:none;stroke-width:3.32967854;stroke-linecap:round;stroke-linejoin:round;stroke-miterlimit:4;stroke-dasharray:none;stroke-dashoffset:0;stroke-opacity:1;paint-order:normal"
     id="path819-3-6-7-5"
     cx="272.0195"
     cy="524.04218"
     r="32.987808" /><circle
     style="clip-rule:evenodd;opacity:1;fill:#ffffff;fill-opacity:1;fill-rule:evenodd;stroke:none;stroke-width:3.32967854;stroke-linecap:round;stroke-linejoin:round;stroke-miterlimit:4;stroke-dasharray:none;stroke-dashoffset:0;stroke-opacity:1;paint-order:normal"
     id="path819-3-6-7-5-3"
     cx="142.35912"
     cy="301.37451"
     r="32.987808" /><circle
     style="clip-rule:evenodd;opacity:1;fill:#ffffff;fill-opacity:1;fill-rule:evenodd;stroke:none;stroke-width:7.977355;stroke-linecap:round;stroke-linejoin:round;stroke-miterlimit:4;stroke-dasharray:none;stroke-dashoffset:0;stroke-opacity:1;paint-order:normal"
     id="path819-3-6-7-5-3-5"
     cx="399.61819"
     cy="300.68726"
     r="79.033287" /><path
     style="color:#000000;font-style:normal;font-variant:normal;font-weight:normal;font-stretch:normal;font-size:medium;line-height:normal;font-family:sans-serif;font-variant-ligatures:normal;font-variant-position:normal;font-variant-caps:normal;font-variant-numeric:normal;font-variant-alternates:normal;font-feature-settings:normal;text-indent:0;text-align:start;text-decoration:none;text-decoration-line:none;text-decoration-style:solid;text-decoration-color:#000000;letter-spacing:normal;word-spacing:normal;text-transform:none;writing-mode:lr-tb;direction:ltr;text-orientation:mixed;dominant-baseline:auto;baseline-shift:baseline;text-anchor:start;white-space:normal;shape-padding:0;clip-rule:evenodd;display:inline;overflow:visible;visibility:visible;opacity:1;isolation:auto;mix-blend-mode:normal;color-interpolation:sRGB;color-interpolation-filters:linearRGB;solid-color:#000000;solid-opacity:1;vector-effect:none;fill:#000000;fill-opacity:1;fill-rule:evenodd;stroke:none;stroke-width:13.50866222;stroke-linecap:butt;stroke-linejoin:miter;stroke-miterlimit:1.5;stroke-dasharray:none;stroke-dashoffset:0;stroke-opacity:1;color-rendering:auto;image-rendering:auto;shape-rendering:auto;text-rendering:auto;enable-background:accumulate"
     d="M 217.13086 267.875 C 199.46857 267.875 185.00586 282.33772 185.00586 300 C 185.00586 317.66229 199.46857 332.125 217.13086 332.125 C 232.4775 332.125 245.40423 321.20348 248.53125 306.75391 L 341.92773 306.75391 A 58.534449 58.534449 0 0 1 341.46484 300 A 58.534449 58.534449 0 0 1 341.89453 293.24609 L 248.53125 293.24609 C 245.40474 278.79614 232.47797 267.875 217.13086 267.875 z M 582.86914 267.875 C 567.52203 267.875 554.59693 278.79614 551.4707 293.24609 L 458.07227 293.24609 A 58.534449 58.534449 0 0 1 458.53516 300 A 58.534449 58.534449 0 0 1 458.10547 306.75391 L 551.4707 306.75391 C 554.59744 321.20348 567.5225 332.125 582.86914 332.125 C 600.53143 332.125 614.99414 317.66229 614.99414 300 C 614.99414 282.33772 600.53143 267.875 582.86914 267.875 z M 217.13086 281.38281 C 227.49252 281.38281 235.74805 289.63834 235.74805 300 C 235.74805 310.36167 227.49252 318.61719 217.13086 318.61719 C 206.76919 318.61719 198.51563 310.36167 198.51562 300 C 198.51562 289.63834 206.76919 281.38281 217.13086 281.38281 z M 582.86914 281.38281 C 593.23081 281.38281 601.48634 289.63834 601.48633 300 C 601.48633 310.36167 593.23081 318.61719 582.86914 318.61719 C 572.50748 318.61719 564.25195 310.36167 564.25195 300 C 564.25195 289.63834 572.50748 281.38281 582.86914 281.38281 z "
     transform="matrix(1.3989274,0,0,1.3989274,-159.57096,-119.67822)"
     id="path833-3" /><path
     style="color:#000000;font-style:normal;font-variant:normal;font-weight:normal;font-stretch:normal;font-size:medium;line-height:normal;font-family:sans-serif;font-variant-ligatures:normal;font-variant-position:normal;font-variant-caps:normal;font-variant-numeric:normal;font-variant-alternates:normal;font-feature-settings:normal;text-indent:0;text-align:start;text-decoration:none;text-decoration-line:none;text-decoration-style:solid;text-decoration-color:#000000;letter-spacing:normal;word-spacing:normal;text-transform:none;writing-mode:lr-tb;direction:ltr;text-orientation:mixed;dominant-baseline:auto;baseline-shift:baseline;text-anchor:start;white-space:normal;shape-padding:0;clip-rule:evenodd;display:inline;overflow:visible;visibility:visible;opacity:1;isolation:auto;mix-blend-mode:normal;color-interpolation:sRGB;color-interpolation-filters:linearRGB;solid-color:#000000;solid-opacity:1;vector-effect:none;fill:#000000;fill-opacity:1;fill-rule:evenodd;stroke:none;stroke-width:13.50866222;stroke-linecap:butt;stroke-linejoin:miter;stroke-miterlimit:1.5;stroke-dasharray:none;stroke-dashoffset:0;stroke-opacity:1;color-rendering:auto;image-rendering:auto;shape-rendering:auto;text-rendering:auto;enable-background:accumulate"
     d="M 307.67969 109.54297 C 302.4981 109.66962 297.2839 111.04886 292.50391 113.80859 C 277.20792 122.63974 271.913 142.39737 280.74414 157.69336 C 288.41746 170.98395 304.33881 176.71789 318.41602 172.20117 L 365.11133 253.07812 A 58.534449 58.534449 0 0 1 376.8125 246.32812 L 330.11523 165.44727 C 341.066 155.51465 344.06028 138.85935 336.38672 125.56836 C 330.31531 115.05237 319.07919 109.26433 307.67969 109.54297 z M 308.08984 122.98633 C 314.68471 122.79784 321.12568 126.15301 324.6875 132.32227 C 329.86833 141.29573 326.84846 152.57308 317.875 157.75391 C 308.90153 162.93474 297.62419 159.91291 292.44336 150.93945 C 287.26253 141.96599 290.28434 130.68865 299.25781 125.50781 C 302.06202 123.8888 305.09218 123.072 308.08984 122.98633 z M 434.88867 346.92188 A 58.534449 58.534449 0 0 1 423.1875 353.67188 L 469.88672 434.55469 C 458.93639 444.48731 455.93997 461.14107 463.61328 474.43164 C 472.44443 489.72763 492.20206 495.02255 507.49805 486.19141 C 522.79403 477.36027 528.087 457.60263 519.25586 442.30664 C 511.5823 429.01566 495.66113 423.2832 481.58398 427.80078 L 434.88867 346.92188 z M 490.95703 439.72461 C 497.55189 439.53612 503.99482 442.89129 507.55664 449.06055 C 512.73747 458.03401 509.71761 469.31136 500.74414 474.49219 C 491.77067 479.67302 480.49333 476.6512 475.3125 467.67773 C 470.13167 458.70427 473.15349 447.42693 482.12695 442.24609 C 484.93116 440.62709 487.95937 439.81029 490.95703 439.72461 z "
     transform="matrix(1.3989274,0,0,1.3989274,-159.57096,-119.67822)"
     id="path833-3-3" /><path
     style="color:#000000;font-style:normal;font-variant:normal;font-weight:normal;font-stretch:normal;font-size:medium;line-height:normal;font-family:sans-serif;font-variant-ligatures:normal;font-variant-position:normal;font-variant-caps:normal;font-variant-numeric:normal;font-variant-alternates:normal;font-feature-settings:normal;text-indent:0;text-align:start;text-decoration:none;text-decoration-line:none;text-decoration-style:solid;text-decoration-color:#000000;letter-spacing:normal;word-spacing:normal;text-transform:none;writing-mode:lr-tb;direction:ltr;text-orientation:mixed;dominant-baseline:auto;baseline-shift:baseline;text-anchor:start;white-space:normal;shape-padding:0;clip-rule:evenodd;display:inline;overflow:visible;visibility:visible;opacity:1;isolation:auto;mix-blend-mode:normal;color-interpolation:sRGB;color-interpolation-filters:linearRGB;solid-color:#000000;solid-opacity:1;vector-effect:none;fill:#000000;fill-opacity:1;fill-rule:evenodd;stroke:none;stroke-width:13.50866222;stroke-linecap:butt;stroke-linejoin:miter;stroke-miterlimit:1.5;stroke-dasharray:none;stroke-dashoffset:0;stroke-opacity:1;color-rendering:auto;image-rendering:auto;shape-rendering:auto;text-rendering:auto;enable-background:accumulate"
     d="M 490.76758 109.54297 C 479.91036 109.80086 469.40872 115.53037 463.61328 125.56836 C 455.93972 138.85936 458.93595 155.51465 469.88672 165.44727 L 423.21289 246.28711 A 58.534449 58.534449 0 0 1 434.88672 253.08398 L 481.58398 172.20117 C 495.66119 176.71789 511.58254 170.98395 519.25586 157.69336 C 528.087 142.39737 522.79208 122.63974 507.49609 113.80859 C 502.2381 110.77289 496.45469 109.40788 490.76758 109.54297 z M 491.91211 122.98633 C 494.90977 123.072 497.93798 123.8888 500.74219 125.50781 C 509.71566 130.68865 512.73747 141.96599 507.55664 150.93945 C 502.37581 159.91292 491.09847 162.93474 482.125 157.75391 C 473.15154 152.57308 470.13167 141.29573 475.3125 132.32227 C 478.87432 126.15301 485.31725 122.79784 491.91211 122.98633 z M 365.11523 346.91602 L 318.41602 427.80078 C 304.33887 423.2832 288.4177 429.01566 280.74414 442.30664 C 271.913 457.60263 277.20597 477.36027 292.50195 486.19141 C 307.79794 495.02255 327.55557 489.72763 336.38672 474.43164 C 344.06003 461.14107 341.06361 444.48731 330.11328 434.55469 L 376.78711 353.71289 A 58.534449 58.534449 0 0 1 365.11523 346.91602 z M 309.04297 439.72461 C 312.04063 439.81029 315.06884 440.62709 317.87305 442.24609 C 326.84651 447.42693 329.87028 458.70427 324.68945 467.67773 C 319.50862 476.6512 308.22933 479.67302 299.25586 474.49219 C 290.28239 469.31136 287.26253 458.03401 292.44336 449.06055 C 296.00518 442.89129 302.44811 439.53612 309.04297 439.72461 z "
     transform="matrix(1.3989274,0,0,1.3989274,-159.57096,-119.67822)"
     id="path833-3-3-5" /><circle
     r="81.885445"
     cy="300.00037"
     cx="400"
     id="path833"
     style="opacity:1;fill:none;fill-opacity:1;stroke:#000000;stroke-width:18.89763832;stroke-linecap:butt;stroke-linejoin:miter;stroke-miterlimit:1.5;stroke-dasharray:none;stroke-dashoffset:0;stroke-opacity:1" /></g></svg>