<svg xmlns="http://www.w3.org/2000/svg" viewBox="0 0 800 600" fill-rule="evenodd" clip-rule="evenodd" stroke-linecap="round" stroke-linejoin="round" stroke-miterlimit="1.5"><g transform="matrix(.71483 0 0 .71483 114.067 85.55)"><circle cx="271.103" cy="78.249" r="32.988" fill="#fff"/><circle cx="527.675" cy="77.332" r="32.988" fill="#fff"/><circle cx="656.419" cy="300.916" r="32.988" fill="#fff"/><circle cx="528.133" cy="523.126" r="32.988" fill="#fff"/><circle cx="272.019" cy="524.042" r="32.988" fill="#fff"/><circle cx="142.359" cy="301.375" r="32.988" fill="#fff"/><circle cx="399.618" cy="300.687" r="79.033" fill="#fff"/><path style="line-height:normal;font-variant-ligatures:normal;font-variant-position:normal;font-variant-caps:normal;font-variant-numeric:normal;font-variant-alternates:normal;font-feature-settings:normal;text-indent:0;text-align:start;text-decoration-line:none;text-decoration-style:solid;text-decoration-color:#000;text-transform:none;text-orientation:mixed;white-space:normal;shape-padding:0;isolation:auto;mix-blend-mode:normal;solid-color:#000;solid-opacity:1" d="M144.18 255.06c-24.709 0-44.941 20.232-44.941 44.94s20.232 44.94 44.94 44.94c21.47 0 39.553-15.278 43.927-35.492h130.655a81.885 81.885 0 01-.647-9.448 81.885 81.885 0 01.6-9.448H188.107c-4.374-20.215-22.457-35.493-43.927-35.493zm511.64 0c-21.469 0-39.55 15.277-43.923 35.492H481.239a81.885 81.885 0 01.647 9.448 81.885 81.885 0 01-.6 9.448h130.61c4.375 20.214 22.456 35.493 43.925 35.493 24.708 0 44.94-20.233 44.94-44.941 0-24.708-20.232-44.94-44.94-44.94zm-511.64 18.896c14.495 0 26.043 11.549 26.043 26.044 0 14.495-11.548 26.044-26.044 26.044-14.495 0-26.041-11.549-26.041-26.044 0-14.495 11.546-26.044 26.041-26.044zm511.64 0c14.496 0 26.045 11.549 26.045 26.044 0 14.495-11.55 26.044-26.044 26.044-14.496 0-26.044-11.549-26.044-26.044 0-14.495 11.548-26.044 26.044-26.044zM270.85 33.564a44.518 44.518 0 00-21.23 5.968c-21.397 12.354-28.804 39.993-16.45 61.391 10.734 18.593 33.007 26.614 52.7 20.296l65.323 113.14a81.885 81.885 0 0116.37-9.442L302.235 111.77c15.32-13.895 19.508-37.194 8.774-55.787-8.494-14.711-24.212-22.808-40.16-22.419zm.574 18.807c9.226-.264 18.237 4.43 23.22 13.06 7.247 12.553 3.022 28.33-9.53 35.577-12.554 7.248-28.33 3.02-35.578-9.533-7.248-12.553-3.02-28.33 9.533-35.577 3.923-2.265 8.162-3.407 12.355-3.527zm177.383 313.27a81.885 81.885 0 01-16.37 9.442l65.33 113.15c-15.32 13.894-19.511 37.192-8.777 55.784 12.354 21.398 39.994 28.805 61.392 16.451 21.398-12.354 28.802-39.993 16.448-61.391-10.734-18.593-33.007-26.613-52.7-20.293L448.807 365.64zm78.435 129.824c9.226-.264 18.24 4.43 23.222 13.06 7.248 12.553 3.023 28.33-9.53 35.577-12.553 7.248-28.33 3.02-35.577-9.533-7.248-12.553-3.02-28.33 9.533-35.577 3.923-2.265 8.159-3.408 12.352-3.527zM526.977 33.564c-15.188.361-29.88 8.376-37.987 22.419-10.734 18.593-6.543 41.892 8.776 55.787l-65.293 113.09a81.885 81.885 0 0116.331 9.508l65.326-113.15c19.693 6.32 41.966-1.702 52.7-20.295 12.354-21.398 4.947-49.037-16.45-61.391a44.547 44.547 0 00-23.403-5.968zm1.601 18.807c4.194.12 8.43 1.262 12.353 3.527 12.553 7.248 16.78 23.024 9.533 35.577-7.248 12.553-23.024 16.78-35.577 9.533-12.553-7.248-16.778-23.024-9.53-35.577 4.982-8.63 13.996-13.324 23.221-13.06zm-177.38 313.261L285.87 478.784c-19.693-6.32-41.966 1.7-52.7 20.293-12.354 21.398-4.95 49.037 16.448 61.391s49.038 4.947 61.392-16.45c10.734-18.593 6.542-41.89-8.776-55.786l65.293-113.092a81.885 81.885 0 01-16.328-9.508zm-78.44 129.833c4.193.12 8.43 1.262 12.352 3.527 12.554 7.248 16.784 23.024 9.536 35.577-7.248 12.553-23.027 16.78-35.58 9.533-12.553-7.248-16.778-23.024-9.53-35.577 4.983-8.63 13.996-13.324 23.222-13.06z" color="#000" font-weight="400" font-family="sans-serif" overflow="visible"/><circle r="81.885" cy="300" cx="400" fill="none" stroke="#000" stroke-width="18.898" stroke-linecap="butt" stroke-linejoin="miter"/></g></svg>