<svg xmlns="http://www.w3.org/2000/svg" width="200" height="200" viewBox="0 0 160000 120000" clip-rule="evenodd" fill-rule="evenodd" stroke-linecap="round" stroke-linejoin="round" stroke-miterlimit="1.5"><path d="M147816.342 99153.78L80000 138307.57 12183.657 99153.78V20846.214L80000-18307.569l67816.343 39153.783z" fill="#64c7cc"/><g transform="matrix(.51529 0 0 .51529 26106.33 107408.168)" stroke-width="1.387"><circle cx="59807.98" cy="-169043.53" r="11460.552" fill="#fff"/><circle cx="148945.61" cy="-169361.88" r="11460.552" fill="#fff"/><circle cx="149104.8" cy="-14485.25" r="11460.552" fill="#fff"/><circle cx="60126.328" cy="-14166.904" r="11460.552" fill="#fff"/><circle r="11460.552" cy="-91684.797" cx="193673.61" fill="#fff"/><circle r="11460.552" cy="-91525.617" cx="15080.002" fill="#fff"/><circle r="27457.57" cy="-91764.383" cx="104456.38" fill="#fff"/><path d="M59720.227-184567.6c-2518.316 61.55-5052.481 731.88-7375.615 2073.14-7434.039 4292.05-10007.435 13894.5-5715.393 21328.54 3729.328 6459.39 11467.3 9246.16 18308.997 7050.97l22694.494 39307.2a28448.461 28448.461 0 015686.912-3280.59l-22695.447-39309.08c5322.209-4827.38 6777.466-12922.06 3048.022-19381.64-2950.78-5110.9-8411.673-7923.96-13951.97-7788.54zm199.338 6533.64c3205.188-91.61 6335.579 1539.04 8066.667 4537.38 2517.947 4361.21 1050.253 9842.14-3310.959 12360.09-4361.216 2517.95-9842.142 1049.3-12360.089-3311.91s-1049.311-9842.14 3311.906-12360.09c1362.881-786.86 2835.576-1183.84 4292.475-1225.47zM121545.35-69198.534a28448.461 28448.461 0 01-5686.91 3280.583l22696.4 39310.039c-5322 4827.375-6778.3 12921.307-3048.97 19380.688 4292.05 7434.039 13894.5 10007.435 21328.54 5715.392 7434.03-4292.042 10006.48-13894.498 5714.44-21328.537-3729.45-6459.58-11467.33-9245.626-18309-7050.026zm27249.92 45103.267c3205.18-91.609 6336.52 1539.045 8067.61 4537.381 2517.95 4361.212 1050.26 9842.143-3310.96 12360.09-4361.21 2517.947-9842.14 1049.305-12360.09-3311.912-2517.94-4361.211-1049.3-9842.137 3311.91-12360.089 1362.88-786.854 2834.63-1183.829 4291.53-1225.47zM15712.383-107616.29c-8584.09 0-15613.144 7029.06-15613.144 15613.146C99.239-83419.054 7128.294-76390 15712.383-76390c7458.656 0 13741.206-5307.993 15260.976-12330.661h45391.836a28448.461 28448.461 0 01-224.97-3282.483 28448.461 28448.461 0 01208.835-3282.484H30973.359c-1519.523-7022.852-7802.092-12330.662-15260.976-12330.662zm177753.297 0c-7458.88 0-13740.64 5307.81-15260.03 12330.662h-45392.78a28448.461 28448.461 0 01224.97 3282.484 28448.461 28448.461 0 01-208.84 3282.483h45376.65C179725.29-81697.993 186007.03-76390 193465.68-76390c8584.09 0 15613.15-7029.054 15613.15-15613.144 0-8584.086-7029.06-15613.146-15613.15-15613.146zm-177753.297 6564.96c5035.895 0 9048.184 4012.292 9048.184 9048.186 0 5035.899-4012.289 9048.183-9048.184 9048.183-5035.898 0-9047.23-4012.284-9047.235-9048.183 0-5035.894 4011.337-9048.186 9047.235-9048.186zm177753.297 0c5035.9 0 9048.19 4012.292 9048.18 9048.186 0 5035.899-4012.28 9048.183-9048.18 9048.183-5035.89 0-9048.18-4012.284-9048.18-9048.183 0-5035.894 4012.29-9048.186 9048.18-9048.186zM148703.19-184567.6c-5276.74 125.34-10380.67 2909.95-13197.32 7788.54-3729.45 6459.58-2273.24 14554.26 3048.97 19381.64l-22684.06 39289.15a28448.461 28448.461 0 015673.63 3303.36l22695.44-39310.04c6841.7 2195.19 14579.67-591.58 18309-7050.97 4292.04-7434.04 1718.64-17036.49-5715.4-21328.54-2555.45-1475.38-5366.25-2138.8-8130.26-2073.14zm556.26 6533.64c1456.9 41.65 2928.64 438.61 4291.52 1225.47 4361.22 2517.95 5829.86 7998.88 3311.91 12360.09s-7998.87 5829.86-12360.09 3311.91c-4361.21-2517.95-5828.9-7998.88-3310.96-12360.09 1731.09-2998.34 4862.43-4628.99 8067.62-4537.38zM87634.605-69201.382L64938.216-29890.395c-6841.668-2195.6-14579.553 590.446-18308.997 7050.026-4292.042 7434.039-1719.594 17036.495 5714.44 21328.537 7434.039 4292.043 17036.49 1718.647 21328.538-5715.392 3729.322-6459.381 2273.026-14553.313-3048.969-19380.688L93307.282-65898.02a28448.461 28448.461 0 01-5672.677-3303.362zM60382.798-24095.267c1456.9 41.651 2928.647 438.616 4291.527 1225.47 4361.212 2517.952 5830.802 7998.878 3312.855 12360.089-2517.947 4361.217-7999.821 5829.859-12361.038 3311.912-4361.216-2517.947-5828.905-7998.878-3310.958-12360.09 1731.088-2998.336 4862.431-4628.99 8067.614-4537.381z" style="line-height:normal;font-variant-ligatures:normal;font-variant-position:normal;font-variant-caps:normal;font-variant-numeric:normal;font-variant-alternates:normal;font-feature-settings:normal;text-indent:0;text-align:start;text-decoration-line:none;text-decoration-style:solid;text-decoration-color:#000;text-transform:none;text-orientation:mixed;white-space:normal;shape-padding:0;isolation:auto;mix-blend-mode:normal;solid-color:#000;solid-opacity:1" color="#000" font-weight="400" font-family="sans-serif" overflow="visible"/><circle r="28448.461" cy="-92003.016" cx="104589.03" fill="none" stroke="#000" stroke-width="9107.786" stroke-linecap="butt" stroke-linejoin="miter"/></g></svg>