<?xml version="1.0" encoding="UTF-8" standalone="no"?>
<svg
   xmlns:dc="http://purl.org/dc/elements/1.1/"
   xmlns:cc="http://creativecommons.org/ns#"
   xmlns:rdf="http://www.w3.org/1999/02/22-rdf-syntax-ns#"
   xmlns:svg="http://www.w3.org/2000/svg"
   xmlns="http://www.w3.org/2000/svg"
   xmlns:sodipodi="http://sodipodi.sourceforge.net/DTD/sodipodi-0.dtd"
   xmlns:inkscape="http://www.inkscape.org/namespaces/inkscape"
   id="svg54"
   style="clip-rule:evenodd;fill-rule:evenodd;stroke-linecap:round;stroke-linejoin:round;stroke-miterlimit:1.5"
   xml:space="preserve"
   version="1.1"
   viewBox="0 0 498.30508 498.30508"
   height="498.30508"
   width="498.30508"
   sodipodi:docname="no-ethernet.svg"
   inkscape:version="0.92.5 (2060ec1f9f, 2020-04-08)"><sodipodi:namedview
   pagecolor="#ffffff"
   bordercolor="#666666"
   borderopacity="1"
   objecttolerance="10"
   gridtolerance="10"
   guidetolerance="10"
   inkscape:pageopacity="0"
   inkscape:pageshadow="2"
   inkscape:window-width="2800"
   inkscape:window-height="1672"
   id="namedview1132"
   showgrid="false"
   inkscape:zoom="1.9327104"
   inkscape:cx="228.3907"
   inkscape:cy="234.7753"
   inkscape:window-x="80"
   inkscape:window-y="54"
   inkscape:window-maximized="1"
   inkscape:current-layer="svg54" /><metadata
   id="metadata60"><rdf:RDF><cc:Work
       rdf:about=""><dc:format>image/svg+xml</dc:format><dc:type
         rdf:resource="http://purl.org/dc/dcmitype/StillImage" /><dc:title></dc:title></cc:Work></rdf:RDF></metadata><defs
   id="defs58" />
    <g
   id="g52"
   transform="matrix(2.04501,0,0,2.04501,-56.728394,16.68544)">
        
        
    <g
   id="g1099"
   transform="matrix(1.2873,0,0,1.2873,14.34262,-18.625682)"
   style="clip-rule:evenodd;fill-rule:evenodd;stroke-linecap:round;stroke-linejoin:round;stroke-miterlimit:1.5"><path
     id="path1093"
     style="fill-opacity:0.9"
     d="m 130.763,117.334 v 10.318 h -10.484 v 9.608 H 89.821 v -9.608 H 79.338 V 117.334 H 68.192 V 72.43 c 0,-2.286 1.857,-4.142 4.143,-4.142 h 65.431 c 2.286,0 4.142,1.856 4.142,4.142 v 44.904 z M 79.741,72.729 h -6.183 v 13.102 h 6.183 z m 8.054,0 h -6.183 v 13.102 h 6.183 z m 8.307,0 h -6.183 v 13.102 h 6.183 z m 8.16,0 h -6.184 v 13.102 h 6.184 z m 8.284,0 h -6.183 v 13.102 h 6.183 z m 7.578,0 h -6.183 v 13.102 h 6.183 z m 8.341,0 h -6.183 v 13.102 h 6.183 z m 8.078,0 h -6.184 v 13.102 h 6.184 z" /><g
     id="g1097"
     transform="translate(-0.268368)"><path
       id="path1095"
       style="fill:none;stroke:#000000;stroke-width:3.79999995px"
       d="m 156.689,67.252 c 0,-8.281 -6.723,-15.004 -15.004,-15.004 H 68.953 c -8.281,0 -15.004,6.723 -15.004,15.004 v 71.044 c 0,8.281 6.723,15.004 15.004,15.004 h 72.732 c 8.281,0 15.004,-6.723 15.004,-15.004 z" /></g></g></g>
<g
   style="clip-rule:evenodd;fill:#db0000;fill-opacity:1;fill-rule:evenodd;stroke-linecap:round;stroke-linejoin:round;stroke-miterlimit:1.5"
   id="g1153"
   transform="matrix(0.47191635,0,0,0.47191635,281.46646,31.882341)"><g
     transform="rotate(45,201.87551,200.92726)"
     id="g8"
     style="fill:#db0000;fill-opacity:1">
        
        
    <g
   style="clip-rule:evenodd;fill:#db0000;fill-opacity:1;fill-rule:evenodd;stroke-linecap:round;stroke-linejoin:round"
   id="g1626"
   transform="rotate(-45,395.77679,263.44772)"><g
     id="g1633"
     transform="matrix(11.73456,0,0,11.73456,-542.42874,-709.00025)"
     style="fill:#db0000;fill-opacity:1"><g
       transform="matrix(0.999999,0,0,0.999999,-6.58022,-107.058)"
       id="g1583"
       style="fill:#db0000;fill-opacity:1">
        <circle
   cx="78.456001"
   cy="174.39799"
   r="14.57"
   style="fill:#db0000;fill-opacity:1"
   id="circle1581" />
    </g><path
       style="fill:#db0000;fill-opacity:1;stroke:#ffffff;stroke-width:3.40873361;stroke-linecap:butt;stroke-linejoin:miter;stroke-miterlimit:1.5;stroke-dasharray:none;stroke-opacity:1"
       d="M 79.783676,59.431848 63.96773,75.247793"
       id="path1654"
       inkscape:connector-curvature="0" /><path
       style="clip-rule:evenodd;fill:#db0000;fill-opacity:1;fill-rule:evenodd;stroke:#ffffff;stroke-width:3.40873384;stroke-linecap:butt;stroke-linejoin:miter;stroke-miterlimit:1.5;stroke-dasharray:none;stroke-opacity:1"
       d="M 63.967729,59.431847 79.783676,75.247793"
       id="path1654-0"
       inkscape:connector-curvature="0" /></g></g></g></g></svg>