<svg xmlns="http://www.w3.org/2000/svg" baseProfile="full" version="1.1" style="fill: none;" width="870px" height="570px"><path style="stroke-width: 15px; stroke-linecap: round; stroke-linejoin: round; stroke: rgb(106, 106, 106); fill: none;" d=""/><path style="stroke-width: 15px; stroke-linecap: round; stroke-linejoin: round; stroke: rgb(74, 74, 74); fill: none;" d=""/><path style="stroke-width: 15px; stroke-linecap: round; stroke-linejoin: round; stroke: rgb(10, 10, 10); fill: none;" d="M60,60 L60,60 L60,180 L180,180 L180,60 L60,60 M240,60 L240,60 L240,180 L360,180 L360,60 L240,60 M420,60 L420,60 L420,180 L540,180 L540,60 L420,60 M600,60 L600,60 L600,180 L720,180 L720,60 L600,60 M60,240 L60,240 L60,360 L180,360 L180,240 L60,240 M240,240 L240,240 L240,360 L360,360 L360,240 L240,240 M420,240 L420,240 L420,360 L540,360 L540,240 L420,240 M600,240 L600,240 L720,240 L720,360 L600,360 L600,240 M60,420 L60,420 L180,420 L180,540 L60,540 L60,420 M240,420 L240,420 L240,540 L360,540 L360,420 L240,420 M420,480 L420,480 L540,480 M600,480 L600,480 L720,480 "/></svg>