<svg xmlns="http://www.w3.org/2000/svg" width="200" height="200" viewBox="0 0 52.917 52.917"><path d="M6.71 41.223l-.025-2.102L19.56 26.41l2.032-.85-4.229-4.323-3.567.708-4.158-1.488-2.244-3.095-.661-4.11.33-1.441 3.402 3.283 2.67.52 2.764-3.213-.52-2.456-3.142-3.024 3.52-.51 3.969 2.21 2.055 3.143.354 3.33-.472 1.985 5.93 5.93 10.795-10.537.095-2.858 6.095-3.203 1.795 2.187-3.236 5.835h-2.552L29.671 25.395l16.253 16.253.378 2.953-2.268 1.89-2.976-1.205-13.584-13.772-.945.85-.07 1.394L13.913 46.16l-2.008.166z" fill="#fff" stroke="#000" stroke-width=".265"/><path d="M12.358 47.016a2.975 2.975 0 01-.566-.197c-.292-.137-.547-.376-2.934-2.764-2.407-2.406-2.627-2.64-2.768-2.94a2.463 2.463 0 01.002-2.107c.141-.302.557-.729 6.431-6.614 4.114-4.12 6.38-6.357 6.573-6.483.323-.213.653-.325 1.107-.377l.299-.035-1.692-1.69-1.693-1.692-.608.153c-1.062.266-1.867.34-2.774.255-2.067-.194-3.774-.99-5.218-2.435-1.514-1.515-2.294-3.256-2.458-5.49-.053-.717.099-1.933.345-2.773.151-.516.504-.758.944-.647.092.023.738.63 1.934 1.82 1.162 1.157 1.874 1.828 2.018 1.903.19.1.292.116.713.116.449 0 .514-.012.744-.14.327-.18 2.18-2.038 2.328-2.334a1.693 1.693 0 00-.008-1.51c-.06-.12-.804-.907-1.885-1.994-1.193-1.199-1.798-1.841-1.82-1.933-.052-.206.008-.476.135-.614.16-.174.454-.294 1.061-.432 3.367-.768 6.822.617 8.775 3.515a8.29 8.29 0 011.09 6.886l-.128.46 2.702 2.701 2.702 2.702 5.103-5.105 5.104-5.104-.083-1.199-.084-1.199.104-.178c.091-.159.455-.375 3.22-1.913 1.715-.953 3.188-1.747 3.273-1.763.304-.06.523.104 1.598 1.19 1.054 1.067 1.17 1.229 1.102 1.532-.016.074-.81 1.538-1.762 3.252-1.541 2.773-1.753 3.13-1.912 3.221l-.179.104-1.199-.084-1.198-.084L35.69 20.1l-5.104 5.104 7.84 7.847c5.355 5.361 7.9 7.942 8.03 8.143.4.619.58 1.248.576 2.018-.004 1.045-.327 1.818-1.069 2.56-.375.376-.519.483-.912.676-.602.296-1.018.393-1.673.392-.801-.002-1.594-.26-2.185-.71-.11-.085-3.262-3.211-7.003-6.948l-6.802-6.794-.003.221c-.005.336-.153.837-.339 1.144-.118.195-2.012 2.12-6.493 6.596-5.913 5.907-6.348 6.33-6.647 6.47a2.442 2.442 0 01-1.549.197zm.83-1.376c.177-.05.996-.849 6.42-6.261 4.31-4.302 6.245-6.265 6.309-6.401a1.148 1.148 0 000-.886c-.13-.276-4.88-5.01-5.132-5.115a1.166 1.166 0 00-.85.02c-.281.13-12.538 12.404-12.644 12.658-.101.246-.093.61.019.85.05.109.25.352.442.541l.35.344 5.4-5.392c4.74-4.733 5.433-5.407 5.676-5.518.407-.187.64-.238 1.09-.238.697 0 1.267.24 1.736.73.491.512.682 1.04.653 1.803-.017.437-.04.543-.186.867-.166.366-.21.412-5.558 5.771l-5.392 5.403.394.38c.499.483.782.582 1.273.444zm30.64-.19c.858-.163 1.563-.835 1.79-1.707.136-.52.076-1.035-.186-1.589-.141-.298-.681-.85-7.953-8.13-4.29-4.296-7.824-7.811-7.852-7.811-.028 0-.359.309-.736.687l-.686.687.152.21c.34.473.455 1.005.34 1.559-.092.442-.252.723-.638 1.127l-.297.31 5.566 5.57c3.061 3.063 6.193 6.208 6.96 6.989 1.364 1.389 1.799 1.78 2.153 1.936.447.196.914.25 1.386.161zm-.646-1.177c-.68-.137-1.076-.887-.793-1.504.39-.85 1.56-.883 1.983-.057.126.245.139.662.03.92-.195.456-.732.739-1.22.64zM15.905 38.5c5.617-5.626 5.432-5.427 5.431-5.849 0-.454-.38-.926-.822-1.02a1.025 1.025 0 00-.752.095c-.094.049-2.54 2.459-5.436 5.356L9.062 42.35l.737.739c.405.406.748.738.763.738.014 0 2.418-2.397 5.343-5.326zm10.904-8.687c.543-.557.619-.694.554-1.006-.049-.233-3.026-3.21-3.259-3.258-.314-.066-.449.009-1.019.569l-.543.533 1.845 1.847c1.015 1.016 1.858 1.847 1.874 1.847.016 0 .263-.24.548-.532zm6.926-9.674c5.584-5.58 6.494-6.471 6.643-6.498.094-.016.646.005 1.225.047.58.042 1.057.071 1.062.064.093-.137 2.83-5.113 2.83-5.144 0-.065-1.118-1.191-1.183-1.191-.037 0-4.972 2.71-5.152 2.83-.007.004.022.482.064 1.061.042.58.063 1.131.046 1.226-.026.148-.924 1.066-6.509 6.654l-6.478 6.482.466.468c.256.257.477.467.49.467.014 0 2.937-2.91 6.496-6.466zm-11.266 4.677c.807-.761 1.757-.868 2.598-.292l.262.18.685-.685c.377-.376.686-.707.686-.734 0-.064-5.126-5.191-5.19-5.191-.025 0-.151.102-.279.228-.2.197-.265.231-.478.252-.301.029-.546-.1-.666-.353-.173-.365-.095-.564.436-1.107.382-.392.42-.451.537-.816.247-.779.302-1.166.299-2.116-.003-.727-.023-.978-.114-1.4-.299-1.385-.9-2.48-1.921-3.499-1.437-1.434-3.19-2.126-5.187-2.049-.374.014-.693.04-.71.056-.017.017.569.633 1.3 1.37 1.45 1.46 1.591 1.645 1.785 2.348.114.412.134 1.019.048 1.437-.03.144-.143.45-.252.68-.19.4-.245.465-1.385 1.601-1.302 1.299-1.46 1.414-2.177 1.597-.724.186-1.49.088-2.2-.28-.305-.159-.537-.366-1.693-1.51-1.131-1.12-1.345-1.31-1.377-1.232-.02.052-.036.47-.034.93.003.663.026.94.11 1.338.459 2.147 1.807 3.91 3.728 4.876a7.654 7.654 0 001.757.61c.415.09.654.109 1.387.108.977 0 1.453-.077 2.286-.363.555-.19.765-.191 1.015-.006.106.079 1.133 1.086 2.283 2.239 1.15 1.153 2.1 2.096 2.11 2.096.01 0 .168-.141.35-.313z"/></svg>