<?xml version="1.0" encoding="UTF-8" standalone="no"?>
<!-- Created with Inkscape (http://www.inkscape.org/) -->

<svg
   xmlns:dc="http://purl.org/dc/elements/1.1/"
   xmlns:cc="http://creativecommons.org/ns#"
   xmlns:rdf="http://www.w3.org/1999/02/22-rdf-syntax-ns#"
   xmlns:svg="http://www.w3.org/2000/svg"
   xmlns="http://www.w3.org/2000/svg"
   xmlns:sodipodi="http://sodipodi.sourceforge.net/DTD/sodipodi-0.dtd"
   xmlns:inkscape="http://www.inkscape.org/namespaces/inkscape"
   width="200"
   height="200"
   viewBox="0 0 52.916665 52.916668"
   version="1.1"
   id="svg8"
   inkscape:version="0.92.5 (2060ec1f9f, 2020-04-08)"
   sodipodi:docname="predictive-maintenance.svg">
  <defs
     id="defs2" />
  <sodipodi:namedview
     id="base"
     pagecolor="#ffffff"
     bordercolor="#666666"
     borderopacity="1.0"
     inkscape:pageopacity="0.0"
     inkscape:pageshadow="2"
     inkscape:zoom="3.959798"
     inkscape:cx="91.948139"
     inkscape:cy="83.408488"
     inkscape:document-units="mm"
     inkscape:current-layer="layer1"
     showgrid="false"
     units="px"
     showguides="true"
     inkscape:guide-bbox="true"
     inkscape:window-width="2800"
     inkscape:window-height="1672"
     inkscape:window-x="80"
     inkscape:window-y="54"
     inkscape:window-maximized="1">
    <sodipodi:guide
       position="5.2916666,34.010048"
       orientation="1,0"
       id="guide828"
       inkscape:locked="false"
       inkscape:label=""
       inkscape:color="rgb(0,0,255)" />
    <sodipodi:guide
       position="180,31.738257"
       orientation="1,0"
       id="guide830"
       inkscape:locked="false"
       inkscape:label=""
       inkscape:color="rgb(0,0,255)" />
    <sodipodi:guide
       position="47.625,35.613665"
       orientation="1,0"
       id="guide832"
       inkscape:locked="false"
       inkscape:label=""
       inkscape:color="rgb(0,0,255)" />
    <sodipodi:guide
       position="5.2916666,46.505"
       orientation="0,1"
       id="guide834"
       inkscape:locked="false"
       inkscape:label=""
       inkscape:color="rgb(0,0,255)" />
    <sodipodi:guide
       position="31.203716,5.2916666"
       orientation="0,1"
       id="guide836"
       inkscape:locked="false"
       inkscape:label=""
       inkscape:color="rgb(0,0,255)" />
  </sodipodi:namedview>
  <metadata
     id="metadata5">
    <rdf:RDF>
      <cc:Work
         rdf:about="">
        <dc:format>image/svg+xml</dc:format>
        <dc:type
           rdf:resource="http://purl.org/dc/dcmitype/StillImage" />
        <dc:title></dc:title>
      </cc:Work>
    </rdf:RDF>
  </metadata>
  <g
     inkscape:label="Layer 1"
     inkscape:groupmode="layer"
     id="layer1"
     transform="translate(0,-244.08332)">
    <path
       style="fill:#ffffff;stroke:#000000;stroke-width:0.26458332px;stroke-linecap:butt;stroke-linejoin:miter;stroke-opacity:1;fill-opacity:1"
       d="m 6.7090773,285.30635 -0.023624,-2.1025 12.8748147,-12.70944 2.031622,-0.85045 -4.228609,-4.3231 -3.56715,0.7087 -4.1577385,-1.48828 -2.2442337,-3.09468 -0.6614583,-4.11049 0.3307292,-1.44103 3.4017863,3.28366 2.669456,0.51972 2.763951,-3.2128 -0.519717,-2.45684 -3.141927,-3.02381 3.519903,-0.51002 3.96875,2.21091 2.055246,3.14193 0.354353,3.33091 -0.472471,1.98438 5.9295,5.9295 10.795947,-10.53609 0.09449,-2.85844 6.094865,-3.2031 1.795388,2.18729 -3.236423,5.83501 H 40.58519 l -10.914063,10.96131 16.252976,16.25297 0.377976,2.95294 -2.267858,1.88988 -2.976562,-1.2048 -13.583518,-13.77251 -0.944941,0.85045 -0.07087,1.39379 -12.544085,12.40234 -2.007998,0.16537 z"
       id="path859"
       inkscape:connector-curvature="0" />
    <path
       style="fill:#000000;stroke-width:1"
       d="m 12.358035,291.09958 c -0.135028,-0.0258 -0.389644,-0.11429 -0.565814,-0.19687 -0.292558,-0.13705 -0.546803,-0.37655 -2.9347066,-2.76445 -2.4061517,-2.40615 -2.6265796,-2.6404 -2.7673225,-2.94073 -0.3148006,-0.67177 -0.314171,-1.43185 0.00175,-2.10637 0.1413157,-0.30174 0.5566216,-0.72882 6.4310131,-6.6135 4.113922,-4.12111 6.380968,-6.35744 6.572847,-6.48377 0.322769,-0.21254 0.652797,-0.32492 1.107117,-0.37699 l 0.298618,-0.0343 -1.692032,-1.69117 -1.692032,-1.69116 -0.608723,0.15281 c -1.061259,0.26643 -1.866485,0.3406 -2.773576,0.25548 -2.067279,-0.19399 -3.7744008,-0.9906 -5.2181307,-2.435 -1.5144083,-1.5151 -2.2940073,-3.25653 -2.4580856,-5.49073 -0.052586,-0.71603 0.098836,-1.93294 0.3449897,-2.7725 0.1513084,-0.51608 0.5040323,-0.75786 0.9443668,-0.64734 0.092111,0.0231 0.7375183,0.63087 1.9341191,1.82126 1.1617987,1.15578 1.8740477,1.82753 2.0172817,1.90254 0.189635,0.0993 0.292007,0.11595 0.713417,0.11595 0.448471,0 0.514305,-0.0123 0.743917,-0.13964 0.327401,-0.1815 2.179264,-2.03899 2.327698,-2.33478 0.234777,-0.46786 0.231783,-1.03173 -0.0079,-1.51087 -0.05963,-0.11913 -0.803624,-0.90565 -1.884962,-1.99265 -1.19325,-1.19951 -1.79782,-1.84166 -1.820659,-1.93382 -0.05099,-0.20576 0.0087,-0.4754 0.135769,-0.61378 0.159722,-0.17389 0.454,-0.2937 1.061041,-0.43205 3.36713,-0.76739 6.821768,0.61672 8.774657,3.51559 1.356277,2.01325 1.7538,4.52175 1.091135,6.88545 l -0.128798,0.45941 2.701776,2.70177 2.701777,2.70178 5.103785,-5.10463 5.103786,-5.10465 -0.0836,-1.19853 -0.0836,-1.19853 0.103614,-0.17867 c 0.09192,-0.15849 0.455588,-0.37441 3.220935,-1.91235 1.714525,-0.95352 3.187009,-1.74727 3.272185,-1.76391 0.304325,-0.0594 0.523775,0.10417 1.598065,1.19084 1.054633,1.06683 1.170936,1.22834 1.102573,1.53113 -0.01678,0.0743 -0.810046,1.538 -1.762814,3.25261 -1.540542,2.77239 -1.752133,3.12893 -1.911411,3.22094 l -0.179102,0.10348 -1.198531,-0.0836 -1.19853,-0.0836 -5.104488,5.10363 -5.104489,5.10364 7.83965,7.8478 c 5.355305,5.36089 7.900028,7.94124 8.03018,8.14262 0.399956,0.61882 0.579661,1.24797 0.576313,2.01766 -0.0045,1.04505 -0.327268,1.81818 -1.069068,2.56112 -0.374549,0.37511 -0.518587,0.48174 -0.912194,0.67526 -0.601502,0.29574 -1.017887,0.39318 -1.672841,0.39149 -0.801234,-0.002 -1.593587,-0.25962 -2.184702,-0.71008 -0.110857,-0.0845 -3.262485,-3.21089 -7.003622,-6.94758 l -6.802065,-6.79398 -0.0029,0.22116 c -0.0044,0.33586 -0.152701,0.8371 -0.338683,1.14397 -0.118138,0.19494 -2.012317,2.119 -6.493298,6.59576 -5.912366,5.90679 -6.34744,6.3303 -6.646313,6.46954 -0.50961,0.23741 -1.007997,0.30104 -1.549338,0.19782 z m 0.830212,-1.37674 c 0.176688,-0.0497 0.995293,-0.84806 6.41928,-6.26086 4.310681,-4.30177 6.245039,-6.26427 6.308974,-6.40072 0.118439,-0.2528 0.118396,-0.63298 -9.8e-5,-0.88563 -0.12983,-0.2768 -4.879168,-5.01098 -5.131579,-5.1152 -0.246224,-0.10164 -0.610529,-0.0935 -0.850302,0.019 -0.280859,0.13179 -12.5379419,12.40468 -12.6430239,12.65932 -0.1014631,0.24588 -0.093517,0.61024 0.018542,0.8503 0.050526,0.10831 0.2494849,0.35137 0.4421296,0.5403 l 0.3502632,0.34348 5.3994311,-5.39136 c 4.740278,-4.73318 5.433216,-5.40686 5.676171,-5.51835 0.406787,-0.18667 0.640133,-0.23744 1.090687,-0.23731 0.696437,2e-4 1.265919,0.2395 1.735109,0.72909 0.491127,0.51247 0.682329,1.04081 0.652717,1.80363 -0.01697,0.4372 -0.03965,0.54298 -0.185977,0.86696 -0.165342,0.36611 -0.208928,0.41137 -5.558051,5.77123 l -5.391406,5.40222 0.393609,0.38069 c 0.49914,0.48275 0.7823,0.58131 1.273523,0.44322 z m 30.638826,-0.1901 c 0.858887,-0.16288 1.563887,-0.83445 1.790882,-1.70593 0.135794,-0.52135 0.07557,-1.03568 -0.186125,-1.58953 -0.140841,-0.29809 -0.681018,-0.85035 -7.952478,-8.13051 -4.290754,-4.29587 -7.824175,-7.81069 -7.852044,-7.81069 -0.02787,0 -0.359182,0.30911 -0.736252,0.6869 l -0.685577,0.6869 0.151535,0.21102 c 0.339167,0.47233 0.455283,1.00455 0.339897,1.55795 -0.09223,0.44234 -0.25144,0.72368 -0.638093,1.12758 l -0.296426,0.30966 5.565786,5.56989 c 3.061183,3.06344 6.192971,6.20862 6.959529,6.98928 1.36399,1.3891 1.799025,1.78023 2.153058,1.93581 0.44748,0.19664 0.914626,0.25112 1.386308,0.16167 z m -0.644987,-1.17681 c -0.68085,-0.13685 -1.076291,-0.88647 -0.793181,-1.50363 0.389493,-0.84908 1.559846,-0.88257 1.983229,-0.0568 0.125372,0.24455 0.138783,0.66231 0.0295,0.91925 -0.194375,0.45705 -0.731234,0.73927 -1.219555,0.64114 z m -27.277005,-5.77184 c 5.617278,-5.62605 5.432385,-5.42697 5.431398,-5.84836 -0.0011,-0.45465 -0.381417,-0.92674 -0.82213,-1.0204 -0.287864,-0.0612 -0.498349,-0.0346 -0.752034,0.0951 -0.09472,0.0484 -2.541083,2.45843 -5.436382,5.35557 l -5.264176,5.26754 0.7370523,0.73828 c 0.4053787,0.40605 0.7486377,0.73828 0.7627977,0.73828 0.01416,0 2.418723,-2.39672 5.343474,-5.32603 z m 10.903788,-8.68668 c 0.543516,-0.55734 0.619102,-0.69459 0.554037,-1.00596 -0.04867,-0.23291 -3.02567,-3.20991 -3.258584,-3.25859 -0.314387,-0.0657 -0.449261,0.009 -1.019149,0.56923 l -0.54299,0.53318 1.844799,1.84687 c 1.014639,1.01576 1.858009,1.84686 1.874154,1.84686 0.01615,0 0.262626,-0.23922 0.547733,-0.53159 z M 33.73502,264.223 c 5.583624,-5.58043 6.493994,-6.47086 6.642597,-6.49718 0.09472,-0.0168 0.646102,0.005 1.22531,0.0466 0.579209,0.0424 1.057041,0.0712 1.061851,0.0642 0.09294,-0.13731 2.829765,-5.11312 2.829765,-5.14477 0,-0.0646 -1.11782,-1.1905 -1.182065,-1.1905 -0.03701,0 -4.972575,2.71 -5.152641,2.82919 -0.0068,0.005 0.02219,0.48233 0.06441,1.06185 0.04222,0.57953 0.0629,1.13117 0.04598,1.22589 -0.02652,0.14844 -0.924458,1.06639 -6.509057,6.65419 l -6.478287,6.48198 0.465734,0.46768 c 0.256155,0.25723 0.477047,0.46769 0.490872,0.46769 0.01383,0 2.936815,-2.91002 6.49553,-6.46669 z m -11.266375,4.67744 c 0.807268,-0.76155 1.756942,-0.86831 2.598449,-0.29215 l 0.261654,0.17917 0.685469,-0.68417 c 0.377006,-0.37628 0.685468,-0.70652 0.685468,-0.73384 0,-0.0637 -5.125231,-5.19155 -5.188862,-5.19155 -0.02623,0 -0.15198,0.10267 -0.27945,0.22827 -0.199699,0.19669 -0.265865,0.23155 -0.478255,0.25196 -0.301468,0.029 -0.545977,-0.10072 -0.665757,-0.35315 -0.173147,-0.36488 -0.09487,-0.56395 0.43538,-1.10714 0.38243,-0.39177 0.421124,-0.45054 0.537068,-0.8158 0.247108,-0.77844 0.301745,-1.16528 0.298808,-2.11565 -0.0022,-0.72686 -0.02263,-0.97784 -0.113708,-1.4001 -0.298727,-1.38496 -0.899438,-2.47908 -1.920993,-3.49881 -1.436478,-1.43393 -3.189607,-2.12659 -5.186553,-2.04919 -0.374127,0.0145 -0.693793,0.0399 -0.710371,0.0564 -0.01658,0.0166 0.568634,0.63301 1.300466,1.36982 1.450028,1.45993 1.59053,1.64475 1.784418,2.34733 0.113812,0.41241 0.134035,1.0191 0.04792,1.4377 -0.0295,0.14339 -0.142613,0.44891 -0.251364,0.67894 -0.189845,0.40153 -0.245089,0.46542 -1.385501,1.60234 -1.302016,1.29803 -1.459456,1.41356 -2.176519,1.59694 -0.724297,0.18524 -1.490363,0.0875 -2.199514,-0.28079 -0.30555,-0.15866 -0.538275,-0.36609 -1.69362,-1.50952 -1.1312857,-1.11963 -1.3452225,-1.31105 -1.3769008,-1.23198 -0.020629,0.0515 -0.03603,0.47 -0.034228,0.93003 0.0026,0.66308 0.025454,0.94032 0.1102839,1.33771 0.4582375,2.14666 1.8066243,3.91071 3.7271219,4.87607 0.515221,0.25898 1.1429,0.47695 1.757517,0.61036 0.4148,0.09 0.654072,0.10865 1.386904,0.10773 0.977278,-8.9e-4 1.452554,-0.0767 2.285718,-0.36273 0.555153,-0.19061 0.765328,-0.19179 1.01568,-0.006 0.105535,0.0785 1.132761,1.08584 2.282721,2.23865 1.149958,1.15282 2.099309,2.09603 2.109668,2.09603 0.01035,0 0.168252,-0.14096 0.350873,-0.31322 z"
       id="path826"
       inkscape:connector-curvature="0" />
  </g>
</svg>
