<svg xmlns="http://www.w3.org/2000/svg" viewBox="0 0 52.917 52.917" height="200" width="200"><g fill="none" stroke="#000"><path d="M17.145 19.508c.921-8.454-5.592-4.832-9.087-6.114 1.459 6.244 4.11 9.296 9.087 6.114 6.89 1.202 7.233-4.092 5.908-11.042-3.936 1.463-7.22 3.101-7.784 5.47M17.145 19.508c.857 2.129.34 3.72-.223 5.294" stroke-width="2.117"/><path d="M17.145 19.508c-1.493-2.638-3.445-3.626-5.604-3.867M17.17 17.453c.355-1.958 1.438-3.453 2.949-4.677" stroke-width="1.058"/></g><g stroke="#000"><g transform="translate(10.708 -254.7)"><circle cx="26.458" cy="270.542" r="5.963" fill="#fff" stroke-width="2.117" stroke-linecap="round" stroke-linejoin="round"/><g fill="none" stroke-width="1.058"><path d="M17.847 270.542h2.004M26.459 261.93v2.004M35.07 270.542h-2.004M26.459 279.154v-2.005"/></g></g><g fill="none" stroke-width="1.058"><path d="M31.077 9.751l1.417 1.418M43.256 9.751l-1.417 1.418M43.256 21.93l-1.417-1.417M31.077 21.93l1.417-1.417"/></g></g><g fill="none" stroke="#000" stroke-width="2.117"><path d="M15.615 42.25l-4.453 1.666 1.299-1.665-4.607-2.859 2.162-.283-1.56-2.8 2.67.544.142-1.843 2.315 2.008-.933-4.536 2.043 1.264.898-3.921 1.205 3.957 1.925-1.3-.945 4.678 2.256-2.256.331 1.984 2.421-.472-1.346 2.846 1.5.166-4.11 2.823 1.263 1.63zM15.626 42.629c.076 2.254.738 4.151 3.13 4.996"/></g><g transform="translate(11.085 -233.255)" fill="none" stroke="#000" stroke-width="2.117"><circle cx="26.458" cy="270.542" r="1.521" stroke-linecap="round" stroke-linejoin="round"/><path d="M26.42 269.538v-8.168M24.417 263.591l2.003 2.003 2.08-2.08M27.307 270.006l7.074-4.084M31.456 265.298l-.734 2.736 2.841.761M27.345 271.008l7.075 4.085M33.497 272.247l-2.736.733.76 2.841"/><g><path d="M26.497 271.543v8.168M28.5 277.49l-2.003-2.004-2.08 2.08"/></g><g><path d="M25.61 271.075l-7.075 4.084M21.461 275.783l.733-2.737-2.84-.76"/></g><g><path d="M25.571 270.072l-7.074-4.084M19.42 268.834l2.736-.733-.761-2.841"/></g></g></svg>