<?xml version="1.0" encoding="UTF-8" standalone="no"?>
<!DOCTYPE svg PUBLIC "-//W3C//DTD SVG 1.1//EN" "http://www.w3.org/Graphics/SVG/1.1/DTD/svg11.dtd">
<svg width="100%" height="100%" viewBox="0 0 800 600" version="1.1" xmlns="http://www.w3.org/2000/svg" xmlns:xlink="http://www.w3.org/1999/xlink" xml:space="preserve" xmlns:serif="http://www.serif.com/" style="fill-rule:evenodd;clip-rule:evenodd;stroke-linecap:round;stroke-linejoin:round;stroke-miterlimit:1.5;">
    <g transform="matrix(1,0,0,1,-0.268958,3.29481)">
        <path d="M400,49.736L400.538,49.736L615.746,128.96C636.746,370.427 563.7,507.207 400.538,543.675L400,543.675C236.838,507.207 163.792,370.427 184.792,128.96L400,49.736Z" style="fill:none;stroke:black;stroke-width:30px;"/>
    </g>
    <path d="M331,260L331,207.693C331,179.715 353.715,157 381.693,157L416.307,157C444.285,157 467,179.715 467,207.693L467,260L478.408,260C489.773,260 499,269.227 499,280.592L499,378.408C499,389.773 489.773,399 478.408,399L321.592,399C310.227,399 301,389.773 301,378.408L301,280.592C301,269.227 310.227,260 321.592,260L331,260ZM409.496,328.732C416.32,325.262 421,318.173 421,310C421,298.41 411.59,289 400,289C388.41,289 379,298.41 379,310C379,317.779 383.239,324.576 389.531,328.205C389.511,328.467 389.5,328.732 389.5,329L389.5,362C389.5,367.519 393.981,372 399.5,372C405.019,372 409.5,367.519 409.5,362L409.5,329C409.5,328.911 409.499,328.821 409.496,328.732ZM433.831,260C434.586,258.062 435,255.954 435,253.75L435,207.25C435,197.729 427.271,190 417.75,190L383.25,190C373.729,190 366,197.729 366,207.25L366,253.75C366,255.954 366.414,258.062 367.169,260L433.831,260Z"/>
</svg>
