<?xml version="1.0" encoding="UTF-8" standalone="no"?>
<!DOCTYPE svg PUBLIC "-//W3C//DTD SVG 1.1//EN" "http://www.w3.org/Graphics/SVG/1.1/DTD/svg11.dtd">
<svg width="100%" height="100%" viewBox="0 0 200 100" version="1.1" xmlns="http://www.w3.org/2000/svg" xmlns:xlink="http://www.w3.org/1999/xlink" xml:space="preserve" xmlns:serif="http://www.serif.com/" style="fill-rule:evenodd;clip-rule:evenodd;stroke-linecap:round;stroke-linejoin:round;">
    <g transform="matrix(0.144947,0,0,0.144947,106.909,9.39291)">
        <path d="M420,60C354.17,60 300,114.17 300,180C300,245.83 354.17,300 420,300C485.83,300 540,245.83 540,180C540,114.17 485.83,60 420,60M420,330C321.255,330 240,397.712 240,480M420,330C518.745,330 600,397.712 600,480L240,480" style="fill:none;fill-rule:nonzero;stroke:rgb(10,10,10);stroke-width:15px;"/>
    </g>
    <g transform="matrix(5.27177,0,0,5.27177,-25.5903,-19.3659)">
        <path d="M6.516,7.646C6.241,7.647 6.016,7.872 6.016,8.146L6.016,16.947C6.016,17.222 6.241,17.447 6.516,17.447L18.988,17.447C19.263,17.447 19.488,17.222 19.488,16.947L19.488,8.146C19.488,7.872 19.263,7.647 18.988,7.646L6.516,7.646ZM13.859,13.23L12.734,14.201L11.631,13.244L7.875,16.447L17.631,16.447L13.859,13.23ZM7.016,9.24L7.016,15.867L10.867,12.582L7.016,9.24ZM18.488,9.238L14.625,12.57L18.488,15.865L18.488,9.238ZM7.857,8.646L12.734,12.879L17.643,8.646L7.857,8.646Z"/>
    </g>
    <g transform="matrix(0.999999,0,0,0.999999,-6.58022,-107.058)">
        <circle cx="78.456" cy="174.398" r="14.57" style="fill:rgb(177,101,98);"/>
    </g>
    <g transform="matrix(1,0,0,1,-3.4746,21.8571)">
        <g transform="matrix(30,0,0,30,70.9851,56.0081)">
            <path d="M0.226,-0.252L0.065,-0.252L0.04,-0.714L0.251,-0.714L0.226,-0.252ZM0.042,-0.081C0.042,-0.111 0.051,-0.134 0.068,-0.15C0.086,-0.167 0.111,-0.175 0.145,-0.175C0.178,-0.175 0.203,-0.167 0.22,-0.15C0.238,-0.134 0.246,-0.111 0.246,-0.081C0.246,-0.052 0.237,-0.029 0.219,-0.012C0.202,0.004 0.177,0.012 0.145,0.012C0.113,0.012 0.088,0.004 0.069,-0.012C0.051,-0.029 0.042,-0.052 0.042,-0.081Z" style="fill:white;fill-rule:nonzero;"/>
        </g>
    </g>
    <g transform="matrix(1,0,0,1,0.107099,13.2981)">
        <path d="M91.378,33.516L133.002,33.516" style="fill:none;stroke:black;stroke-width:4px;stroke-miterlimit:1.5;"/>
    </g>
    <g transform="matrix(0.707107,-0.707107,0.707107,0.707107,-2.00594,48.5718)">
        <path d="M93.567,97.515L100,97.515" style="fill:none;stroke:black;stroke-width:4px;stroke-miterlimit:1.5;"/>
        <g transform="matrix(6.12323e-17,1,-1,6.12323e-17,197.515,-2.48536)">
            <path d="M93.567,97.515L100,97.515" style="fill:none;stroke:black;stroke-width:4px;stroke-miterlimit:1.5;"/>
        </g>
    </g>
</svg>
