<?xml version="1.0" encoding="UTF-8" standalone="no"?>
<!DOCTYPE svg PUBLIC "-//W3C//DTD SVG 1.1//EN" "http://www.w3.org/Graphics/SVG/1.1/DTD/svg11.dtd">
<svg width="100%" height="100%" viewBox="0 0 400 400" version="1.1" xmlns="http://www.w3.org/2000/svg" xmlns:xlink="http://www.w3.org/1999/xlink" xml:space="preserve" xmlns:serif="http://www.serif.com/" style="fill-rule:evenodd;clip-rule:evenodd;stroke-linecap:butt;stroke-miterlimit:0;">
    <g transform="matrix(1,0,0,1,-16.8416,-13.2658)">
        <circle cx="216.808" cy="213.266" r="186.734" style="fill:rgb(108,138,216);"/>
    </g>
    <g id="Server-Room" serif:id="Server Room" transform="matrix(1.15885,0,0,1.15885,-45.0808,10.1883)">
        <g>
            <g transform="matrix(0.837479,0,0,5.32231,34.3377,-1067.8)">
                <path d="M297.779,239.889L297.779,235.527" style="fill:none;stroke:white;stroke-width:3px;"/>
            </g>
            <g transform="matrix(0.837479,0,0,5.32231,34.3377,-1067.8)">
                <path d="M297.779,227.46L297.779,222.419" style="fill:none;stroke:white;stroke-width:3px;"/>
            </g>
            <g transform="matrix(0.837479,0,0,5.32231,34.3377,-1067.8)">
                <path d="M297.779,214.684L297.779,210.816L125.194,210.816L125.194,214.684" style="fill:none;stroke:white;stroke-width:3px;"/>
            </g>
            <g transform="matrix(0.837479,0,0,5.32231,34.3377,-1067.8)">
                <path d="M125.194,222.419L125.194,227.46" style="fill:none;stroke:white;stroke-width:3px;"/>
            </g>
            <g transform="matrix(0.837479,0,0,5.32231,34.3377,-1067.8)">
                <path d="M125.194,235.196L125.194,240.234" style="fill:none;stroke:white;stroke-width:3px;"/>
            </g>
            <g transform="matrix(0.837479,0,0,5.32231,34.3377,-1067.8)">
                <path d="M125.194,248.008L125.194,251.987L297.779,251.987L297.779,248.188" style="fill:none;stroke:white;stroke-width:3px;"/>
            </g>
        </g>
        <g>
            <g>
                <rect x="125.194" y="210.816" width="172.585" height="41.171" style="fill:none;stroke:white;stroke-width:3px;"/>
                <g transform="matrix(0.661082,0,0,0.393745,90.8043,140.288)">
                    <rect x="125.194" y="210.816" width="172.585" height="41.171" style="fill:none;stroke:white;stroke-width:3px;"/>
                </g>
                <g transform="matrix(1,0,0,1,-1.72056,-2.77164)">
                    <circle cx="149.712" cy="234.173" r="11.381" style="fill:none;stroke:white;stroke-width:3px;"/>
                </g>
            </g>
            <g transform="matrix(1,0,0,1,0,-68)">
                <rect x="125.194" y="210.816" width="172.585" height="41.171" style="fill:none;stroke:white;stroke-width:3px;"/>
                <g transform="matrix(0.661082,0,0,0.393745,90.8043,140.288)">
                    <rect x="125.194" y="210.816" width="172.585" height="41.171" style="fill:none;stroke:white;stroke-width:3px;"/>
                </g>
                <g transform="matrix(1,0,0,1,-1.72056,-2.77164)">
                    <circle cx="149.712" cy="234.173" r="11.381" style="fill:none;stroke:white;stroke-width:3px;"/>
                </g>
            </g>
            <g transform="matrix(1,0,0,1,0,-136)">
                <rect x="125.194" y="210.816" width="172.585" height="41.171" style="fill:none;stroke:white;stroke-width:3px;"/>
                <g transform="matrix(0.661082,0,0,0.393745,90.8043,140.288)">
                    <rect x="125.194" y="210.816" width="172.585" height="41.171" style="fill:none;stroke:white;stroke-width:3px;"/>
                </g>
                <g transform="matrix(1,0,0,1,-1.72056,-2.77164)">
                    <circle cx="149.712" cy="234.173" r="11.381" style="fill:none;stroke:white;stroke-width:3px;"/>
                </g>
            </g>
        </g>
    </g>
</svg>
