<svg xmlns="http://www.w3.org/2000/svg" width="200" height="200" viewBox="0 0 52.917 52.917"><g transform="rotate(-45 -267.27 146.183)" fill="#000"><path d="M13.898 246.055c-2.138 0-2.138 3 0 3 17.345 0 31.373 14.029 31.374 31.373.016 2.073 3 2.066 3 0-.002-18.966-15.408-34.373-34.374-34.373z" style="line-height:normal;font-variant-ligatures:normal;font-variant-position:normal;font-variant-caps:normal;font-variant-numeric:normal;font-variant-alternates:normal;font-feature-settings:normal;text-indent:0;text-align:start;text-decoration-line:none;text-decoration-style:solid;text-decoration-color:#000;text-transform:none;text-orientation:mixed;white-space:normal;shape-padding:0;isolation:auto;mix-blend-mode:normal;solid-color:#000;solid-opacity:1" color="#000" font-weight="400" font-family="sans-serif" overflow="visible"/><path d="M13.898 255.944c-2.138 0-2.138 3 0 3 11.883 0 21.484 9.601 21.485 21.484 0 2.073 3 2.073 3 0-.001-13.504-10.98-24.484-24.485-24.484z" style="line-height:normal;font-variant-ligatures:normal;font-variant-position:normal;font-variant-caps:normal;font-variant-numeric:normal;font-variant-alternates:normal;font-feature-settings:normal;text-indent:0;text-align:start;text-decoration-line:none;text-decoration-style:solid;text-decoration-color:#000;text-transform:none;text-orientation:mixed;white-space:normal;shape-padding:0;isolation:auto;mix-blend-mode:normal;solid-color:#000;solid-opacity:1" color="#000" font-weight="400" font-family="sans-serif" overflow="visible"/><path d="M13.898 266.502c-2.138 0-2.138 3 0 3a10.905 10.905 0 0110.928 10.926c0 2.073 3 2.073 3 0 0-7.674-6.254-13.926-13.928-13.926z" style="line-height:normal;font-variant-ligatures:normal;font-variant-position:normal;font-variant-caps:normal;font-variant-numeric:normal;font-variant-alternates:normal;font-feature-settings:normal;text-indent:0;text-align:start;text-decoration-line:none;text-decoration-style:solid;text-decoration-color:#000;text-transform:none;text-orientation:mixed;white-space:normal;shape-padding:0;isolation:auto;mix-blend-mode:normal;solid-color:#000;solid-opacity:1" color="#000" font-weight="400" font-family="sans-serif" overflow="visible"/><circle r="1.203" cy="280.429" cx="13.898" stroke="#000" stroke-width="3" stroke-linecap="square" stroke-linejoin="bevel"/></g></svg>