<?xml version="1.0" encoding="UTF-8" standalone="no"?>
<!DOCTYPE svg PUBLIC "-//W3C//DTD SVG 1.1//EN" "http://www.w3.org/Graphics/SVG/1.1/DTD/svg11.dtd">
<svg width="100%" height="100%" viewBox="0 0 200 200" version="1.1" xmlns="http://www.w3.org/2000/svg" xmlns:xlink="http://www.w3.org/1999/xlink" xml:space="preserve" xmlns:serif="http://www.serif.com/" style="fill-rule:evenodd;clip-rule:evenodd;stroke-linejoin:round;stroke-miterlimit:2;">
    <g transform="matrix(0.707107,-0.707107,0.707107,0.707107,-686.547,-552.462)">
        <g id="Layer-1" serif:id="Layer 1">
            <g id="g931">
                <g id="path826" transform="matrix(0.264583,0,0,0.264583,0,922.52)">
                    <path d="M198.529,28.162C167.988,28.162 167.988,71.014 198.529,71.014L198.536,71.014C446.3,71.014 646.682,271.416 646.698,519.176C646.937,548.784 689.55,548.693 689.55,519.176C689.534,248.255 469.46,28.162 198.536,28.162L198.529,28.162Z" style="fill:white;fill-rule:nonzero;stroke:white;stroke-width:3.78px;"/>
                </g>
                <g id="path828" transform="matrix(0.264583,0,0,0.264583,0,922.52)">
                    <path d="M198.529,169.422C167.988,169.422 167.988,212.274 198.529,212.274L198.536,212.274C368.283,212.274 505.422,349.433 505.438,519.176C505.438,548.784 548.29,548.784 548.29,519.176C548.275,326.272 391.443,169.422 198.536,169.422L198.529,169.422Z" style="fill:white;fill-rule:nonzero;stroke:white;stroke-width:3.78px;"/>
                </g>
                <g id="path830" transform="matrix(0.264583,0,0,0.264583,0,922.52)">
                    <path d="M198.529,320.249C167.988,320.249 167.988,363.1 198.529,363.1L198.536,363.1C284.994,363.1 354.625,432.721 354.641,519.176C354.641,548.784 397.493,548.784 397.493,519.176C397.478,409.561 308.155,320.249 198.536,320.249L198.529,320.249Z" style="fill:white;fill-rule:nonzero;stroke:white;stroke-width:3.78px;"/>
                </g>
                <circle id="path832" cx="52.528" cy="1059.89" r="4.546" style="fill:white;stroke:white;stroke-width:11.34px;stroke-linecap:square;stroke-linejoin:bevel;stroke-miterlimit:4;"/>
            </g>
        </g>
    </g>
</svg>
