<svg xmlns="http://www.w3.org/2000/svg" viewBox="0 0 52.917 52.917" height="200" width="200"><g stroke-width="3.094" stroke-miterlimit="4" clip-rule="evenodd" fill-rule="evenodd" stroke-linecap="round" stroke-linejoin="round"><path d="M40.706 33.765a5.065 5.065 0 005.063-5.063V14.807a5.065 5.065 0 00-5.063-5.063H12.21a5.065 5.065 0 00-5.063 5.063v13.895a5.065 5.065 0 005.063 5.063h18.594l9.408 9.408v-9.408z" fill="#fff" stroke="#333" stroke-width="2.11669822"/><g fill="#6a87da" stroke-width=".155"><path d="M20.122 23.392c0 .684-.246 1.204-.766 1.574-.506.369-1.218.56-2.134.56-.972 0-1.725-.15-2.272-.465v-1.026c.356.178.739.315 1.136.424.397.096.793.15 1.163.15.588 0 1.026-.095 1.34-.273.315-.191.466-.465.466-.848 0-.288-.123-.534-.37-.739-.246-.192-.725-.438-1.45-.712-.684-.26-1.163-.478-1.45-.67-.288-.192-.506-.397-.643-.643-.137-.233-.206-.52-.206-.862 0-.588.233-1.067.726-1.41.479-.341 1.149-.52 1.997-.52.794 0 1.56.165 2.313.48l-.397.903c-.739-.301-1.396-.452-1.998-.452-.52 0-.916.082-1.19.246-.26.165-.397.397-.397.684 0 .192.055.356.15.493.096.15.26.274.48.397.232.123.656.315 1.286.547.875.315 1.45.63 1.765.958.3.315.451.725.451 1.204zM31.26 25.39v-4.762c0-.588-.123-1.026-.369-1.313-.26-.288-.643-.438-1.163-.438-.698 0-1.204.191-1.532.588-.329.397-.493 1.013-.493 1.834v4.09h-1.108v-4.76c0-.59-.123-1.027-.383-1.314-.247-.288-.63-.438-1.163-.438-.698 0-1.204.205-1.533.63-.314.41-.479 1.094-.479 2.038v3.845H21.93v-7.32h.903l.178.998h.055c.205-.355.506-.63.89-.834.368-.206.806-.301 1.272-.301 1.149 0 1.888.41 2.244 1.245h.054c.22-.383.534-.684.944-.917a3.03 3.03 0 011.423-.328c.835 0 1.45.219 1.861.643.41.424.616 1.108.616 2.038v4.776zM39.377 23.392c0 .684-.246 1.204-.766 1.574-.506.369-1.218.56-2.135.56-.971 0-1.724-.15-2.27-.465v-1.026c.355.178.738.315 1.135.424.397.096.793.15 1.163.15.588 0 1.026-.095 1.34-.273.315-.191.466-.465.466-.848 0-.288-.123-.534-.37-.739-.246-.192-.725-.438-1.45-.712-.684-.26-1.163-.478-1.45-.67-.288-.192-.506-.397-.643-.643-.137-.233-.206-.52-.206-.862 0-.588.233-1.067.726-1.41.479-.341 1.149-.52 1.997-.52.794 0 1.56.165 2.313.48l-.397.903c-.739-.301-1.396-.452-1.998-.452-.52 0-.917.082-1.19.246-.26.165-.397.397-.397.684 0 .192.055.356.15.493.096.15.26.274.48.397.232.123.656.315 1.286.547.875.315 1.45.63 1.765.958.3.315.451.725.451 1.204z" fill-rule="nonzero"/></g></g></svg>