<?xml version="1.0" encoding="UTF-8" standalone="no"?>
<!DOCTYPE svg PUBLIC "-//W3C//DTD SVG 1.1//EN" "http://www.w3.org/Graphics/SVG/1.1/DTD/svg11.dtd">
<svg width="100%" height="100%" viewBox="0 0 62 54" version="1.1" xmlns="http://www.w3.org/2000/svg" xmlns:xlink="http://www.w3.org/1999/xlink" xml:space="preserve" xmlns:serif="http://www.serif.com/" style="fill-rule:evenodd;clip-rule:evenodd;stroke-linecap:round;stroke-linejoin:round;stroke-miterlimit:1.5;">
    <g transform="matrix(1,0,0,1,-59.9751,-174.919)">
        <g transform="matrix(1,0,0,1,-137.525,85.4332)">
            <path d="M249.053,127.097C253.138,127.097 256.454,123.781 256.454,119.696L256.454,99.386C256.454,95.302 253.138,91.986 249.053,91.986L207.4,91.986C203.316,91.986 200,95.302 200,99.386L200,119.696C200,123.781 203.316,127.097 207.4,127.097L234.579,127.097L248.331,140.848L248.331,127.097L249.053,127.097Z" style="fill:none;stroke:black;stroke-width:5px;"/>
            <g transform="matrix(1,0,0,1,-12.8515,4.95981)">
                <g transform="matrix(20,0,0,20,223.197,109.895)">
                    <path d="M0.431,-0.146C0.431,-0.096 0.413,-0.058 0.375,-0.031C0.338,-0.004 0.286,0.01 0.219,0.01C0.148,0.01 0.093,-0.001 0.053,-0.024L0.053,-0.099C0.079,-0.086 0.107,-0.076 0.136,-0.068C0.165,-0.061 0.194,-0.057 0.221,-0.057C0.264,-0.057 0.296,-0.064 0.319,-0.077C0.342,-0.091 0.353,-0.111 0.353,-0.139C0.353,-0.16 0.344,-0.178 0.326,-0.193C0.308,-0.207 0.273,-0.225 0.22,-0.245C0.17,-0.264 0.135,-0.28 0.114,-0.294C0.093,-0.308 0.077,-0.323 0.067,-0.341C0.057,-0.358 0.052,-0.379 0.052,-0.404C0.052,-0.447 0.069,-0.482 0.105,-0.507C0.14,-0.532 0.189,-0.545 0.251,-0.545C0.309,-0.545 0.365,-0.533 0.42,-0.51L0.391,-0.444C0.337,-0.466 0.289,-0.477 0.245,-0.477C0.207,-0.477 0.178,-0.471 0.158,-0.459C0.139,-0.447 0.129,-0.43 0.129,-0.409C0.129,-0.395 0.133,-0.383 0.14,-0.373C0.147,-0.362 0.159,-0.353 0.175,-0.344C0.192,-0.335 0.223,-0.321 0.269,-0.304C0.333,-0.281 0.375,-0.258 0.398,-0.234C0.42,-0.211 0.431,-0.181 0.431,-0.146Z" style="fill-rule:nonzero;"/>
                </g>
                <g transform="matrix(20,0,0,20,232.738,109.895)">
                    <path d="M0.768,0L0.768,-0.348C0.768,-0.391 0.759,-0.423 0.741,-0.444C0.722,-0.465 0.694,-0.476 0.656,-0.476C0.605,-0.476 0.568,-0.462 0.544,-0.433C0.52,-0.404 0.508,-0.359 0.508,-0.299L0.508,0L0.427,0L0.427,-0.348C0.427,-0.391 0.418,-0.423 0.399,-0.444C0.381,-0.465 0.353,-0.476 0.314,-0.476C0.263,-0.476 0.226,-0.461 0.202,-0.43C0.179,-0.4 0.167,-0.35 0.167,-0.281L0.167,0L0.086,0L0.086,-0.535L0.152,-0.535L0.165,-0.462L0.169,-0.462C0.184,-0.488 0.206,-0.508 0.234,-0.523C0.261,-0.538 0.293,-0.545 0.327,-0.545C0.411,-0.545 0.465,-0.515 0.491,-0.454L0.495,-0.454C0.511,-0.482 0.534,-0.504 0.564,-0.521C0.595,-0.537 0.629,-0.545 0.668,-0.545C0.729,-0.545 0.774,-0.529 0.804,-0.498C0.834,-0.467 0.849,-0.417 0.849,-0.349L0.849,0L0.768,0Z" style="fill-rule:nonzero;"/>
                </g>
                <g transform="matrix(20,0,0,20,251.342,109.895)">
                    <path d="M0.431,-0.146C0.431,-0.096 0.413,-0.058 0.375,-0.031C0.338,-0.004 0.286,0.01 0.219,0.01C0.148,0.01 0.093,-0.001 0.053,-0.024L0.053,-0.099C0.079,-0.086 0.107,-0.076 0.136,-0.068C0.165,-0.061 0.194,-0.057 0.221,-0.057C0.264,-0.057 0.296,-0.064 0.319,-0.077C0.342,-0.091 0.353,-0.111 0.353,-0.139C0.353,-0.16 0.344,-0.178 0.326,-0.193C0.308,-0.207 0.273,-0.225 0.22,-0.245C0.17,-0.264 0.135,-0.28 0.114,-0.294C0.093,-0.308 0.077,-0.323 0.067,-0.341C0.057,-0.358 0.052,-0.379 0.052,-0.404C0.052,-0.447 0.069,-0.482 0.105,-0.507C0.14,-0.532 0.189,-0.545 0.251,-0.545C0.309,-0.545 0.365,-0.533 0.42,-0.51L0.391,-0.444C0.337,-0.466 0.289,-0.477 0.245,-0.477C0.207,-0.477 0.178,-0.471 0.158,-0.459C0.139,-0.447 0.129,-0.43 0.129,-0.409C0.129,-0.395 0.133,-0.383 0.14,-0.373C0.147,-0.362 0.159,-0.353 0.175,-0.344C0.192,-0.335 0.223,-0.321 0.269,-0.304C0.333,-0.281 0.375,-0.258 0.398,-0.234C0.42,-0.211 0.431,-0.181 0.431,-0.146Z" style="fill-rule:nonzero;"/>
                </g>
            </g>
        </g>
    </g>
</svg>
