<?xml version="1.0" encoding="UTF-8" standalone="no"?>
<svg
   xmlns:dc="http://purl.org/dc/elements/1.1/"
   xmlns:cc="http://creativecommons.org/ns#"
   xmlns:rdf="http://www.w3.org/1999/02/22-rdf-syntax-ns#"
   xmlns:svg="http://www.w3.org/2000/svg"
   xmlns="http://www.w3.org/2000/svg"
   xmlns:sodipodi="http://sodipodi.sourceforge.net/DTD/sodipodi-0.dtd"
   xmlns:inkscape="http://www.inkscape.org/namespaces/inkscape"
   id="svg8"
   version="1.1"
   viewBox="0 0 52.916666 52.916666"
   height="200"
   width="200"
   sodipodi:docname="sms-icon.svg"
   inkscape:version="0.92.5 (2060ec1f9f, 2020-04-08)">
  <sodipodi:namedview
     pagecolor="#ffffff"
     bordercolor="#666666"
     borderopacity="1"
     objecttolerance="10"
     gridtolerance="10"
     guidetolerance="10"
     inkscape:pageopacity="0"
     inkscape:pageshadow="2"
     inkscape:window-width="2800"
     inkscape:window-height="1672"
     id="namedview17"
     showgrid="false"
     inkscape:zoom="1.18"
     inkscape:cx="100"
     inkscape:cy="100"
     inkscape:window-x="80"
     inkscape:window-y="54"
     inkscape:window-maximized="1"
     inkscape:current-layer="g855" />
  <defs
     id="defs2" />
  <metadata
     id="metadata5">
    <rdf:RDF>
      <cc:Work
         rdf:about="">
        <dc:format>image/svg+xml</dc:format>
        <dc:type
           rdf:resource="http://purl.org/dc/dcmitype/StillImage" />
        <dc:title />
      </cc:Work>
    </rdf:RDF>
  </metadata>
  <g
     transform="translate(0,-244.08334)"
     id="layer1">
    <g
       transform="matrix(0.68413355,0,0,0.68413355,5.4370299,252.11726)"
       id="g875"
       style="clip-rule:evenodd;fill-rule:evenodd;stroke-linecap:round;stroke-linejoin:round;stroke-miterlimit:1.5">
      <g
         style="stroke-width:3.09393778;stroke-miterlimit:4;stroke-dasharray:none"
         transform="translate(-59.9751,-174.919)"
         id="g855">
        <path
           inkscape:connector-curvature="0"
           id="path837"
           style="fill:#ffffff;stroke:#333333;stroke-width:3.09393787;stroke-miterlimit:4;stroke-dasharray:none;stroke-opacity:1;fill-opacity:1"
           d="m 111.528,212.5302 c 4.085,0 7.401,-3.316 7.401,-7.401 v -20.31 c 0,-4.084 -3.316,-7.4 -7.401,-7.4 H 69.875 c -4.084,0 -7.4,3.316 -7.4,7.4 v 20.31 c 0,4.085 3.316,7.401 7.4,7.401 h 27.179 l 13.752,13.751 v -13.751 z" />
        <g
           id="g851"
           transform="translate(-150.3765,90.39301)"
           style="fill:#6a87da;fill-opacity:1;stroke:none;stroke-width:3.09393787;stroke-miterlimit:4;stroke-dasharray:none;stroke-opacity:1">
          <g
             id="g841"
             transform="matrix(20,0,0,20,223.197,109.895)"
             style="fill:#6a87da;fill-opacity:1;stroke:none;stroke-width:0.1546969;stroke-miterlimit:4;stroke-dasharray:none;stroke-opacity:1">
            <path
               inkscape:connector-curvature="0"
               id="path839"
               style="fill:#6a87da;fill-opacity:1;fill-rule:nonzero;stroke:none;stroke-width:0.1546969;stroke-miterlimit:4;stroke-dasharray:none;stroke-opacity:1"
               d="m 0.431,-0.146 c 0,0.05 -0.018,0.088 -0.056,0.115 C 0.338,-0.004 0.286,0.01 0.219,0.01 0.148,0.01 0.093,-0.001 0.053,-0.024 v -0.075 c 0.026,0.013 0.054,0.023 0.083,0.031 0.029,0.007 0.058,0.011 0.085,0.011 0.043,0 0.075,-0.007 0.098,-0.02 0.023,-0.014 0.034,-0.034 0.034,-0.062 0,-0.021 -0.009,-0.039 -0.027,-0.054 C 0.308,-0.207 0.273,-0.225 0.22,-0.245 0.17,-0.264 0.135,-0.28 0.114,-0.294 0.093,-0.308 0.077,-0.323 0.067,-0.341 0.057,-0.358 0.052,-0.379 0.052,-0.404 c 0,-0.043 0.017,-0.078 0.053,-0.103 0.035,-0.025 0.084,-0.038 0.146,-0.038 0.058,0 0.114,0.012 0.169,0.035 L 0.391,-0.444 C 0.337,-0.466 0.289,-0.477 0.245,-0.477 c -0.038,0 -0.067,0.006 -0.087,0.018 -0.019,0.012 -0.029,0.029 -0.029,0.05 0,0.014 0.004,0.026 0.011,0.036 0.007,0.011 0.019,0.02 0.035,0.029 0.017,0.009 0.048,0.023 0.094,0.04 0.064,0.023 0.106,0.046 0.129,0.07 0.022,0.023 0.033,0.053 0.033,0.088 z" />
          </g>
          <g
             id="g845"
             transform="matrix(20,0,0,20,232.738,109.895)"
             style="fill:#6a87da;fill-opacity:1;stroke:none;stroke-width:0.1546969;stroke-miterlimit:4;stroke-dasharray:none;stroke-opacity:1">
            <path
               inkscape:connector-curvature="0"
               id="path843"
               style="fill:#6a87da;fill-opacity:1;fill-rule:nonzero;stroke:none;stroke-width:0.1546969;stroke-miterlimit:4;stroke-dasharray:none;stroke-opacity:1"
               d="m 0.768,0 v -0.348 c 0,-0.043 -0.009,-0.075 -0.027,-0.096 -0.019,-0.021 -0.047,-0.032 -0.085,-0.032 -0.051,0 -0.088,0.014 -0.112,0.043 -0.024,0.029 -0.036,0.074 -0.036,0.134 V 0 H 0.427 v -0.348 c 0,-0.043 -0.009,-0.075 -0.028,-0.096 -0.018,-0.021 -0.046,-0.032 -0.085,-0.032 -0.051,0 -0.088,0.015 -0.112,0.046 -0.023,0.03 -0.035,0.08 -0.035,0.149 V 0 H 0.086 v -0.535 h 0.066 l 0.013,0.073 h 0.004 c 0.015,-0.026 0.037,-0.046 0.065,-0.061 0.027,-0.015 0.059,-0.022 0.093,-0.022 0.084,0 0.138,0.03 0.164,0.091 h 0.004 c 0.016,-0.028 0.039,-0.05 0.069,-0.067 0.031,-0.016 0.065,-0.024 0.104,-0.024 0.061,0 0.106,0.016 0.136,0.047 0.03,0.031 0.045,0.081 0.045,0.149 V 0 Z" />
          </g>
          <g
             id="g849"
             transform="matrix(20,0,0,20,251.342,109.895)"
             style="fill:#6a87da;fill-opacity:1;stroke:none;stroke-width:0.1546969;stroke-miterlimit:4;stroke-dasharray:none;stroke-opacity:1">
            <path
               inkscape:connector-curvature="0"
               id="path847"
               style="fill:#6a87da;fill-opacity:1;fill-rule:nonzero;stroke:none;stroke-width:0.1546969;stroke-miterlimit:4;stroke-dasharray:none;stroke-opacity:1"
               d="m 0.431,-0.146 c 0,0.05 -0.018,0.088 -0.056,0.115 C 0.338,-0.004 0.286,0.01 0.219,0.01 0.148,0.01 0.093,-0.001 0.053,-0.024 v -0.075 c 0.026,0.013 0.054,0.023 0.083,0.031 0.029,0.007 0.058,0.011 0.085,0.011 0.043,0 0.075,-0.007 0.098,-0.02 0.023,-0.014 0.034,-0.034 0.034,-0.062 0,-0.021 -0.009,-0.039 -0.027,-0.054 C 0.308,-0.207 0.273,-0.225 0.22,-0.245 0.17,-0.264 0.135,-0.28 0.114,-0.294 0.093,-0.308 0.077,-0.323 0.067,-0.341 0.057,-0.358 0.052,-0.379 0.052,-0.404 c 0,-0.043 0.017,-0.078 0.053,-0.103 0.035,-0.025 0.084,-0.038 0.146,-0.038 0.058,0 0.114,0.012 0.169,0.035 L 0.391,-0.444 C 0.337,-0.466 0.289,-0.477 0.245,-0.477 c -0.038,0 -0.067,0.006 -0.087,0.018 -0.019,0.012 -0.029,0.029 -0.029,0.05 0,0.014 0.004,0.026 0.011,0.036 0.007,0.011 0.019,0.02 0.035,0.029 0.017,0.009 0.048,0.023 0.094,0.04 0.064,0.023 0.106,0.046 0.129,0.07 0.022,0.023 0.033,0.053 0.033,0.088 z" />
          </g>
        </g>
      </g>
    </g>
  </g>
</svg>
