<?xml version="1.0" encoding="UTF-8" standalone="no"?>
<!DOCTYPE svg PUBLIC "-//W3C//DTD SVG 1.1//EN" "http://www.w3.org/Graphics/SVG/1.1/DTD/svg11.dtd">
<svg width="100%" height="100%" viewBox="0 0 400 200" version="1.1" xmlns="http://www.w3.org/2000/svg" xmlns:xlink="http://www.w3.org/1999/xlink" xml:space="preserve" xmlns:serif="http://www.serif.com/" style="fill-rule:evenodd;clip-rule:evenodd;stroke-linecap:round;stroke-linejoin:round;">
    <g id="path939" transform="matrix(0.438523,0,0,0.438523,12.5314,-24.9819)">
        <path d="M574.439,187.041L574.439,187.041C520.7,187.041 476.48,231.261 476.48,285L476.48,285C476.48,338.739 520.7,382.959 574.439,382.959L574.439,382.959C628.178,382.959 672.398,338.739 672.398,285L672.398,285C672.398,231.261 628.178,187.041 574.439,187.041M574.439,138.061C655.047,138.061 721.378,204.392 721.378,285C721.378,365.608 655.047,431.939 574.439,431.939M280.561,431.939C199.953,431.939 133.622,365.608 133.622,285C133.622,204.392 199.953,138.061 280.561,138.061L574.439,138.061M280.561,431.939L574.439,431.939" style="fill:none;fill-rule:nonzero;stroke:rgb(10,10,10);stroke-width:20px;"/>
    </g>
</svg>
