<svg width="25px" height="25px" viewBox="0 0 50 50" version="1.1" xmlns="http://www.w3.org/2000/svg" xmlns:xlink="http://www.w3.org/1999/xlink" xml:space="preserve" xmlns:serif="http://www.serif.com/" style="fill-rule:evenodd;clip-rule:evenodd;stroke-linejoin:round;stroke-miterlimit:1.41421;"><path d="M25,3.5c11.866,0 21.5,9.634 21.5,21.5c0,11.866 -9.634,21.5 -21.5,21.5c-11.866,0 -21.5,-9.634 -21.5,-21.5c0,-11.866 9.634,-21.5 21.5,-21.5Zm-0.775,17.241c-0.086,-0.39 -0.131,-0.795 -0.131,-1.211c0,-3.109 2.525,-5.633 5.634,-5.633c1.609,0 3.061,0.675 4.088,1.758c1.278,-0.195 2.461,-0.675 3.577,-1.352c-0.468,1.457 -1.244,2.523 -2.497,2.983c0.011,0.025 0.022,0.05 0.032,0.076c1.142,0.007 2.172,-0.346 3.159,-0.844c-0.843,1.253 -1.751,2.192 -2.73,2.779c0.003,0.077 0.005,0.155 0.005,0.233c0,0.274 -0.02,0.543 -0.058,0.806c-0.59,13.185 -14.055,19.441 -24.256,13.155c2.996,0.275 5.737,-0.379 8.121,-2.328c-2.862,-0.242 -4.383,-1.758 -5.174,-3.97c0.828,0.279 1.683,0.33 2.583,0c-3.112,-0.913 -4.388,-2.849 -4.452,-5.46c0.785,0.497 1.612,0.722 2.491,0.627c-2.783,-2.142 -2.901,-4.698 -1.749,-7.451c2.665,3.024 5.966,5.435 11.357,5.832l0,0Z" style="fill:#fff;"/></svg>