<svg width="25" height="25" viewBox="0 0 50 50" xmlns="http://www.w3.org/2000/svg" fill-rule="evenodd" clip-rule="evenodd" stroke-linejoin="round" stroke-miterlimit="1.414"><path d="M25 3.5c11.866 0 21.5 9.634 21.5 21.5S36.866 46.5 25 46.5 3.5 36.866 3.5 25 13.134 3.5 25 3.5zm-.775 17.241a5.636 5.636 0 015.503-6.844c1.609 0 3.061.675 4.088 1.758 1.278-.195 2.461-.675 3.577-1.352-.468 1.457-1.244 2.523-2.497 2.983l.032.076c1.142.007 2.172-.346 3.159-.844-.843 1.253-1.751 2.192-2.73 2.779a5.633 5.633 0 01-.053 1.039c-.59 13.185-14.055 19.441-24.256 13.155 2.996.275 5.737-.379 8.121-2.328-2.862-.242-4.383-1.758-5.174-3.97.828.279 1.683.33 2.583 0-3.112-.913-4.388-2.849-4.452-5.46.785.497 1.612.722 2.491.627-2.783-2.142-2.901-4.698-1.749-7.451 2.665 3.024 5.966 5.435 11.357 5.832z" fill="#fff"/></svg>