<svg xmlns="http://www.w3.org/2000/svg" width="200" height="200" viewBox="0 0 52.917 52.917"><g transform="matrix(.31882 0 0 .333 -9.286 33.38)" stroke-width="6.496" fill="#fff" stroke="#000900" stroke-linecap="butt" clip-rule="evenodd" fill-rule="evenodd" stroke-linejoin="round"><g transform="translate(108.98 44.495)"><path d="M-48.89-63.226v15.852c0 6.754 17.758 12.23 39.663 12.23 21.905 0 39.663-5.476 39.663-12.23v-14.949"/><ellipse ry="12.23" rx="39.663" cy="-63.527" cx="-9.227"/></g><g transform="translate(99.34 21.42)"><path d="M-48.89-63.226v15.852c0 6.754 17.758 12.23 39.663 12.23 21.905 0 39.663-5.476 39.663-12.23v-14.949"/><ellipse ry="12.23" rx="39.663" cy="-63.527" cx="-9.227"/></g><g transform="translate(109.19 1.003)"><path d="M-48.89-63.226v15.852c0 6.754 17.758 12.23 39.663 12.23 21.905 0 39.663-5.476 39.663-12.23v-14.949"/><ellipse ry="12.23" rx="39.663" cy="-63.527" cx="-9.227"/></g><ellipse cx="137.158" cy="-8.949" rx="38.35" ry="36.717"/></g></svg>