<?xml version="1.0" encoding="UTF-8" standalone="no"?>
<svg
   xmlns:dc="http://purl.org/dc/elements/1.1/"
   xmlns:cc="http://creativecommons.org/ns#"
   xmlns:rdf="http://www.w3.org/1999/02/22-rdf-syntax-ns#"
   xmlns:svg="http://www.w3.org/2000/svg"
   xmlns="http://www.w3.org/2000/svg"
   id="svg8"
   height="255.10681"
   width="375.21362"
   style="fill:none"
   version="1.1">
  <metadata
     id="metadata14">
    <rdf:RDF>
      <cc:Work
         rdf:about="">
        <dc:format>image/svg+xml</dc:format>
        <dc:type
           rdf:resource="http://purl.org/dc/dcmitype/StillImage" />
        <dc:title></dc:title>
      </cc:Work>
    </rdf:RDF>
  </metadata>
  <defs
     id="defs12" />
  <path
     id="path2"
     d=""
     style="fill:none;stroke:#6a6a6a;stroke-width:15px;stroke-linecap:round;stroke-linejoin:round" />
  <path
     id="path4"
     d=""
     style="fill:none;stroke:#4a4a4a;stroke-width:15px;stroke-linecap:round;stroke-linejoin:round" />
  <path
     id="path6"
     d="m 7.6068187,67.5 a 180,60 0 0 1 180.0000013,-60 180,60 0 0 1 180,60 m -360.0000013,0 v 0 H 367.60682 m -360.0000013,0 v 0 120 H 367.60682 V 67.5 M 7.6068187,187.5 v 0 60 H 367.60682 v -60 m -180,60 v 0 -30 m -30,30 v 0 -30 h 60 v 30 m -180.000001,-30 v 0 0 15 h 45 v -15 h -45 m 255.000001,0 v 0 15 h 45 v -15 h -45 M 37.606819,67.5 v 0 120 m 30,-120 v 0 120 m 30,-120 v 0 120 m 30.000001,-120 v 0 120 m 30,-120 v 0 120 m 30,-120 v 0 120 m 30,0 v 0 -120 m 30,0 v 0 120 m 30,-120 v 0 120 m 30,-120 v 0 120 m 30,-120 v 0 120"
     style="fill:none;stroke:#0a0a0a;stroke-width:15px;stroke-linecap:round;stroke-linejoin:round" />
</svg>
