<?xml version="1.0" encoding="UTF-8" standalone="no"?>
<svg
   xmlns:dc="http://purl.org/dc/elements/1.1/"
   xmlns:cc="http://creativecommons.org/ns#"
   xmlns:rdf="http://www.w3.org/1999/02/22-rdf-syntax-ns#"
   xmlns:svg="http://www.w3.org/2000/svg"
   xmlns="http://www.w3.org/2000/svg"
   xmlns:sodipodi="http://sodipodi.sourceforge.net/DTD/sodipodi-0.dtd"
   xmlns:inkscape="http://www.inkscape.org/namespaces/inkscape"
   version="1.1"
   style="fill: none;"
   width="600px"
   height="570px"
   id="svg8"
   sodipodi:docname="server-room.svg"
   inkscape:version="0.92.5 (0.92.5+69)">
  <metadata
     id="metadata14">
    <rdf:RDF>
      <cc:Work
         rdf:about="">
        <dc:format>image/svg+xml</dc:format>
        <dc:type
           rdf:resource="http://purl.org/dc/dcmitype/StillImage" />
      </cc:Work>
    </rdf:RDF>
  </metadata>
  <defs
     id="defs12" />
  <sodipodi:namedview
     pagecolor="#ffffff"
     bordercolor="#666666"
     borderopacity="1"
     objecttolerance="10"
     gridtolerance="10"
     guidetolerance="10"
     inkscape:pageopacity="0"
     inkscape:pageshadow="2"
     inkscape:window-width="664"
     inkscape:window-height="704"
     id="namedview10"
     showgrid="false"
     inkscape:zoom="0.41403509"
     inkscape:cx="257.73305"
     inkscape:cy="285"
     inkscape:window-x="38"
     inkscape:window-y="27"
     inkscape:window-maximized="0"
     inkscape:current-layer="svg8" />
  <path
     style="fill:none;stroke:#6a6a6a;stroke-width:15px;stroke-linecap:round;stroke-linejoin:round"
     d=""
     id="path2"
     inkscape:connector-curvature="0" />
  <path
     style="fill:none;stroke:#4a4a4a;stroke-width:15px;stroke-linecap:round;stroke-linejoin:round"
     d=""
     id="path4"
     inkscape:connector-curvature="0" />
  <path
     style="fill:none;stroke:#0a0a0a;stroke-width:15px;stroke-linecap:round;stroke-linejoin:round"
     d="m 180,180 v 0 H 420 V 555 H 180 V 180 m 30,30 v 0 315 H 390 V 210 H 210 m 0,45 v 0 h 180 m -180,45 v 0 h 180 m -180,45 v 0 h 180 m -180,45 v 0 h 180 m -180,45 v 0 h 180 m -180,45 v 0 H 390 M 345,120 v 0 H 585 V 495 H 420 M 345,120 v 0 60 m 30,0 v 0 -30 H 555 V 465 H 420 m 0,-270 v 0 h 135 m -135,45 v 0 h 135 m -135,45 v 0 h 135 m -135,45 v 0 h 135 m -135,45 v 0 h 135 m -135,45 v 0 H 555 M 420,180 v 0 H 180 V 555 H 420 V 180 m -30,30 v 0 315 H 210 V 210 h 180 m 0,45 v 0 H 210 m 180,45 v 0 H 210 m 180,45 v 0 H 210 m 180,45 v 0 H 210 m 180,45 v 0 H 210 m 180,45 v 0 H 210 m 45,-360 v 0 H 15 v 375 h 165 m 75,-375 v 0 60 m -30,0 v 0 -30 H 45 v 315 h 135 m 0,-270 v 0 H 45 m 135,45 v 0 H 45 m 135,45 v 0 H 45 m 135,45 v 0 H 45 m 135,45 v 0 H 45 m 135,45 v 0 H 45"
     id="path6"
     inkscape:connector-curvature="0" />
</svg>
