<svg xmlns="http://www.w3.org/2000/svg" width="1773.845" height="419.49" viewBox="0 0 469.33 110.99"><g transform="translate(205.461 1.915)"><path style="opacity:1;fill:#fffffd;fill-opacity:1;stroke:#000;stroke-width:1.05833328;stroke-linecap:round;stroke-linejoin:miter;stroke-miterlimit:4;stroke-dasharray:none;stroke-dashoffset:0;stroke-opacity:1" d="M-186.252 14.318h54.807v20.316h-54.807z"/><path d="m-27.361 13.89 4.21-4.209.748.748-2.93 2.93h45.089v1.06h-45.093l2.937 2.936-.748.749-4.21-4.21zm1.496 0z" style="color:#000;font-style:normal;font-variant:normal;font-weight:400;font-stretch:normal;font-size:medium;line-height:normal;font-family:sans-serif;font-variant-ligatures:normal;font-variant-position:normal;font-variant-caps:normal;font-variant-numeric:normal;font-variant-alternates:normal;font-feature-settings:normal;text-indent:0;text-align:start;text-decoration:none;text-decoration-line:none;text-decoration-style:solid;text-decoration-color:#000;letter-spacing:normal;word-spacing:normal;text-transform:none;writing-mode:lr-tb;direction:ltr;text-orientation:mixed;dominant-baseline:auto;baseline-shift:baseline;text-anchor:start;white-space:normal;shape-padding:0;clip-rule:nonzero;display:inline;overflow:visible;visibility:visible;opacity:1;isolation:auto;mix-blend-mode:normal;color-interpolation:sRGB;color-interpolation-filters:linearRGB;solid-color:#000;solid-opacity:1;vector-effect:none;fill:#000;fill-opacity:1;fill-rule:nonzero;stroke:none;stroke-width:1.05833328;stroke-linecap:butt;stroke-linejoin:miter;stroke-miterlimit:4;stroke-dasharray:none;stroke-dashoffset:0;stroke-opacity:1;color-rendering:auto;image-rendering:auto;shape-rendering:auto;text-rendering:auto;enable-background:accumulate" transform="matrix(-1 0 0 1 -96.71 10.583)"/><g transform="matrix(-1 0 0 1 91.283 -14.948)"><circle r="9.213" cy="39.424" cx="145.521" style="opacity:1;fill:#b16562;fill-opacity:1;stroke:#000;stroke-width:1.05833328;stroke-linecap:round;stroke-linejoin:miter;stroke-miterlimit:4;stroke-dasharray:none;stroke-dashoffset:0;stroke-opacity:1"/><path style="clip-rule:evenodd;fill:#fff;fill-rule:evenodd;stroke-width:.45860755;stroke-linecap:round;stroke-linejoin:round;stroke-miterlimit:1.5" d="m143.702 39.424-1.894-1.894a1.287 1.287 0 0 1 1.82-1.82l1.893 1.894 1.894-1.893a1.287 1.287 0 0 1 1.82 1.82l-1.894 1.893 1.893 1.893a1.287 1.287 0 0 1-1.82 1.82l-1.893-1.894-1.893 1.893a1.287 1.287 0 0 1-1.82-1.82z"/></g><path d="m-104.62 13.89 4.21-4.209.748.748-2.93 2.93h45.09v1.06h-45.093l2.937 2.936-.748.749-4.21-4.21zm1.497 0z" style="color:#000;font-style:normal;font-variant:normal;font-weight:400;font-stretch:normal;font-size:medium;line-height:normal;font-family:sans-serif;font-variant-ligatures:normal;font-variant-position:normal;font-variant-caps:normal;font-variant-numeric:normal;font-variant-alternates:normal;font-feature-settings:normal;text-indent:0;text-align:start;text-decoration:none;text-decoration-line:none;text-decoration-style:solid;text-decoration-color:#000;letter-spacing:normal;word-spacing:normal;text-transform:none;writing-mode:lr-tb;direction:ltr;text-orientation:mixed;dominant-baseline:auto;baseline-shift:baseline;text-anchor:start;white-space:normal;shape-padding:0;clip-rule:nonzero;display:inline;overflow:visible;visibility:visible;opacity:1;isolation:auto;mix-blend-mode:normal;color-interpolation:sRGB;color-interpolation-filters:linearRGB;solid-color:#000;solid-opacity:1;vector-effect:none;fill:#000;fill-opacity:1;fill-rule:nonzero;stroke:none;stroke-width:1.05833328;stroke-linecap:butt;stroke-linejoin:miter;stroke-miterlimit:4;stroke-dasharray:none;stroke-dashoffset:0;stroke-opacity:1;color-rendering:auto;image-rendering:auto;shape-rendering:auto;text-rendering:auto;enable-background:accumulate" transform="matrix(-1 0 0 1 -96.71 10.583)"/><path style="fill:#fff;stroke:#fff;stroke-width:.60000002;stroke-linecap:round;stroke-linejoin:round;stroke-miterlimit:1.5" stroke-miterlimit="1.5" d="M35.674 25.022h17.623v12.545H35.674Z" transform="translate(35.069 -22.746) scale(1.50723)"/><path style="fill:#fff;stroke:#000;stroke-width:.26499999" d="m.377 21.313-1.737 1.22-.022 1.964-3.085.775-.919 3.792.26 5.804-2.671 1.928v2.006h6.203l.886 2.34 2.656-.068.935-2.321 6.09.05v-2.007l-2.55-1.928.018-8.042-1.92-2.272-2.32-.057.03-2.131z" transform="translate(35.069 -22.746) scale(1.50723)"/><path style="clip-rule:evenodd;fill-rule:evenodd;stroke-linejoin:round;stroke-miterlimit:2" d="M35.797 24.516a.701.701 0 0 0-.698.698v12.275a.7.7 0 0 0 .698.698h17.396a.7.7 0 0 0 .697-.698V25.214a.701.701 0 0 0-.697-.698zm10.242 7.789-1.57 1.354-1.538-1.335-5.239 4.468H51.3Zm-9.545-5.565v9.243l5.372-4.582zm16.001-.003-5.388 4.647 5.388 4.596zm-14.828-.826 6.803 5.904 6.847-5.904z" transform="translate(35.069 -22.746) scale(1.50723)"/><g style="clip-rule:evenodd;fill-rule:evenodd;stroke-linecap:round;stroke-linejoin:round;stroke-miterlimit:1.5" stroke-miterlimit="1.5"><path style="fill:none;stroke:#000;stroke-width:1.27178001" d="M2.44 39.404a1.912 1.912 0 0 1-3.823 0m3.585-16.225c0-.989-.803-1.791-1.791-1.791H.408c-.99 0-1.79.802-1.79 1.79v1.32h3.584ZM.518 34.868h-5.643l-2.672 1.928v2.006H.649" transform="translate(35.069 -22.746) scale(1.50723)"/><path style="fill:none;stroke:#000;stroke-width:1.27178001" d="m6.421 34.868 2.551 1.928v2.006H.527" transform="translate(35.069 -22.746) scale(1.50723)"/><path style="fill:none;stroke:#000;stroke-width:.97000003" d="M534.643 204.138v-5.573c0-1.187-1.018-2.15-2.27-2.15h-4.54c-1.253 0-2.27.963-2.27 2.15v5.573" transform="matrix(1.91687 0 0 2.02379 -980.088 -383.322)"/></g><circle style="opacity:.7;fill:#fff;stroke:#000;stroke-miterlimit:1.5" r="2.405" cy="31.352" cx="22.541" stroke-miterlimit="1.5" transform="translate(35.069 -22.746) scale(1.50723)"/><g aria-label="ASSET 1" style="font-style:normal;font-variant:normal;font-weight:700;font-stretch:normal;font-size:7.05555534px;line-height:1.25;font-family:'Open Sans';-inkscape-font-specification:'Open Sans Bold';letter-spacing:0;word-spacing:0;fill:#000;fill-opacity:1;stroke:none;stroke-width:.26458332"><path d="m-172.684 28.508-.805-2.238h-3.081l-.788 2.238h-1.39l3.016-8.092h1.433l3.015 8.092zm-1.152-3.373-.755-2.194q-.083-.22-.232-.695-.143-.474-.198-.694-.149.678-.436 1.483l-.727 2.1zM-165.573 26.32q0 1.075-.778 1.687-.777.611-2.144.611t-2.238-.424v-1.246q.552.26 1.169.408.623.149 1.157.149.783 0 1.152-.298.375-.297.375-.799 0-.452-.341-.766-.342-.314-1.412-.744-1.102-.447-1.554-1.02-.452-.573-.452-1.378 0-1.009.717-1.588.716-.578 1.923-.578 1.158 0 2.304.507l-.419 1.075q-1.074-.452-1.918-.452-.64 0-.97.28-.33.276-.33.734 0 .314.132.54.132.22.435.419.303.198 1.092.524.887.369 1.3.689.414.32.607.722.193.402.193.948zM-159.367 26.32q0 1.075-.777 1.687-.777.611-2.144.611t-2.238-.424v-1.246q.551.26 1.169.408.622.149 1.157.149.783 0 1.152-.298.375-.297.375-.799 0-.452-.342-.766t-1.41-.744q-1.103-.447-1.555-1.02-.452-.573-.452-1.378 0-1.009.716-1.588.717-.578 1.924-.578 1.158 0 2.304.507l-.419 1.075q-1.075-.452-1.918-.452-.64 0-.97.28-.33.276-.33.734 0 .314.131.54.133.22.436.419.303.198 1.091.524.888.369 1.301.689.414.32.606.722.193.402.193.948zM-153.248 28.508h-4.559V20.45h4.559v1.114h-3.241v2.194h3.037v1.102h-3.037v2.53h3.24zM-148.723 28.508h-1.317V21.58h-2.37v-1.13h6.058v1.13h-2.37zM-138.95 28.508h-1.295v-5.203q0-.932.044-1.478-.127.133-.314.293-.182.16-1.235 1.014l-.65-.822 2.37-1.863h1.08z" style="font-style:normal;font-variant:normal;font-weight:600;font-stretch:normal;font-size:11.28888893px;font-family:'Open Sans';-inkscape-font-specification:'Open Sans Semi-Bold';stroke-width:.26458332"/></g><path style="opacity:1;fill:#fffffd;fill-opacity:1;stroke:#000;stroke-width:1.05833328;stroke-linecap:round;stroke-linejoin:miter;stroke-miterlimit:4;stroke-dasharray:none;stroke-dashoffset:0;stroke-opacity:1" d="M-186.252 14.318h54.807v20.316h-54.807z" transform="translate(0 58.208)"/><path d="m-27.361 13.89 4.21-4.209.748.748-2.93 2.93h45.089v1.06h-45.093l2.937 2.936-.748.749-4.21-4.21zm1.496 0z" style="color:#000;font-style:normal;font-variant:normal;font-weight:400;font-stretch:normal;font-size:medium;line-height:normal;font-family:sans-serif;font-variant-ligatures:normal;font-variant-position:normal;font-variant-caps:normal;font-variant-numeric:normal;font-variant-alternates:normal;font-feature-settings:normal;text-indent:0;text-align:start;text-decoration:none;text-decoration-line:none;text-decoration-style:solid;text-decoration-color:#000;letter-spacing:normal;word-spacing:normal;text-transform:none;writing-mode:lr-tb;direction:ltr;text-orientation:mixed;dominant-baseline:auto;baseline-shift:baseline;text-anchor:start;white-space:normal;shape-padding:0;clip-rule:nonzero;display:inline;overflow:visible;visibility:visible;opacity:1;isolation:auto;mix-blend-mode:normal;color-interpolation:sRGB;color-interpolation-filters:linearRGB;solid-color:#000;solid-opacity:1;vector-effect:none;fill:#000;fill-opacity:1;fill-rule:nonzero;stroke:none;stroke-width:1.05833328;stroke-linecap:butt;stroke-linejoin:miter;stroke-miterlimit:4;stroke-dasharray:none;stroke-dashoffset:0;stroke-opacity:1;color-rendering:auto;image-rendering:auto;shape-rendering:auto;text-rendering:auto;enable-background:accumulate" transform="matrix(-1 0 0 1 -96.71 68.792)"/><g transform="matrix(-1 0 0 1 91.283 43.26)"><circle r="9.213" cy="39.424" cx="145.521" style="opacity:1;fill:#b16562;fill-opacity:1;stroke:#000;stroke-width:1.05833328;stroke-linecap:round;stroke-linejoin:miter;stroke-miterlimit:4;stroke-dasharray:none;stroke-dashoffset:0;stroke-opacity:1"/><path style="clip-rule:evenodd;fill:#fff;fill-rule:evenodd;stroke-width:.45860755;stroke-linecap:round;stroke-linejoin:round;stroke-miterlimit:1.5" d="m143.702 39.424-1.894-1.894a1.287 1.287 0 0 1 1.82-1.82l1.893 1.894 1.894-1.893a1.287 1.287 0 0 1 1.82 1.82l-1.894 1.893 1.893 1.893a1.287 1.287 0 0 1-1.82 1.82l-1.893-1.894-1.893 1.893a1.287 1.287 0 0 1-1.82-1.82z"/></g><path d="m-104.62 13.89 4.21-4.209.748.748-2.93 2.93h45.09v1.06h-45.093l2.937 2.936-.748.749-4.21-4.21zm1.497 0z" style="color:#000;font-style:normal;font-variant:normal;font-weight:400;font-stretch:normal;font-size:medium;line-height:normal;font-family:sans-serif;font-variant-ligatures:normal;font-variant-position:normal;font-variant-caps:normal;font-variant-numeric:normal;font-variant-alternates:normal;font-feature-settings:normal;text-indent:0;text-align:start;text-decoration:none;text-decoration-line:none;text-decoration-style:solid;text-decoration-color:#000;letter-spacing:normal;word-spacing:normal;text-transform:none;writing-mode:lr-tb;direction:ltr;text-orientation:mixed;dominant-baseline:auto;baseline-shift:baseline;text-anchor:start;white-space:normal;shape-padding:0;clip-rule:nonzero;display:inline;overflow:visible;visibility:visible;opacity:1;isolation:auto;mix-blend-mode:normal;color-interpolation:sRGB;color-interpolation-filters:linearRGB;solid-color:#000;solid-opacity:1;vector-effect:none;fill:#000;fill-opacity:1;fill-rule:nonzero;stroke:none;stroke-width:1.05833328;stroke-linecap:butt;stroke-linejoin:miter;stroke-miterlimit:4;stroke-dasharray:none;stroke-dashoffset:0;stroke-opacity:1;color-rendering:auto;image-rendering:auto;shape-rendering:auto;text-rendering:auto;enable-background:accumulate" transform="matrix(-1 0 0 1 -96.71 68.792)"/><g transform="translate(35.069 35.462) scale(1.50723)"><path style="fill:#fff;stroke:#fff;stroke-width:.60000002;stroke-linecap:round;stroke-linejoin:round;stroke-miterlimit:1.5" stroke-miterlimit="1.5" d="M35.674 25.022h17.623v12.545H35.674Z"/><path style="fill:#fff;stroke:#000;stroke-width:.26499999" d="m.377 21.313-1.737 1.22-.022 1.964-3.085.775-.919 3.792.26 5.804-2.671 1.928v2.006h6.203l.886 2.34 2.656-.068.935-2.321 6.09.05v-2.007l-2.55-1.928.018-8.042-1.92-2.272-2.32-.057.03-2.131z"/><path style="clip-rule:evenodd;fill-rule:evenodd;stroke-linejoin:round;stroke-miterlimit:2" d="M35.797 24.516a.701.701 0 0 0-.698.698v12.275a.7.7 0 0 0 .698.698h17.396a.7.7 0 0 0 .697-.698V25.214a.701.701 0 0 0-.697-.698zm10.242 7.789-1.57 1.354-1.538-1.335-5.239 4.468H51.3Zm-9.545-5.565v9.243l5.372-4.582zm16.001-.003-5.388 4.647 5.388 4.596zm-14.828-.826 6.803 5.904 6.847-5.904z"/><path style="clip-rule:evenodd;fill:#fbffff;fill-rule:evenodd;stroke:#000;stroke-width:1.32290006;stroke-linecap:round;stroke-linejoin:round;stroke-miterlimit:1.5" d="M138.746 37.47c-5.64 1.85-14.851-8.076-12.493-12.465l3.847.006a15.76 15.76 0 0 1 .426 3.603l-1.172 1.28c.21 1.006 3.133 4.043 4.503 4.474l1.28-1.171c1.237.002 2.437.15 3.603.425z" stroke-miterlimit="1.5"/><g style="clip-rule:evenodd;fill-rule:evenodd;stroke-linecap:round;stroke-linejoin:round;stroke-miterlimit:1.5" stroke-miterlimit="1.5"><path style="fill:#fff;stroke:#000;stroke-width:.26458001;stroke-linecap:butt;stroke-linejoin:miter" d="m82.83 24.738-2.021 1.386.017 6.515 1.687 1.653 7.216-.133 3.541 2.89.642-2.872 1.897-.97.05-6.649-1.52-1.737z"/><path style="fill:none;stroke:#000;stroke-width:1.32290006" d="M93.912 34.177a1.96 1.96 0 0 0 1.958-1.958v-5.373a1.958 1.958 0 0 0-1.958-1.958h-11.02a1.96 1.96 0 0 0-1.959 1.958v5.373a1.96 1.96 0 0 0 1.958 1.958h7.191l3.639 3.639v-3.639z"/><path style="fill-rule:nonzero" d="M85.951 30.166c0 .264-.095.465-.296.608-.196.143-.47.217-.825.217-.376 0-.667-.058-.879-.18v-.397c.138.07.286.122.44.164.153.038.306.059.45.059.227 0 .396-.037.518-.106a.355.355 0 0 0 .18-.328.36.36 0 0 0-.143-.286c-.095-.074-.28-.17-.561-.275-.265-.1-.45-.185-.561-.26a.743.743 0 0 1-.249-.248.648.648 0 0 1-.08-.334c0-.227.09-.412.281-.545.186-.132.445-.2.773-.2.307 0 .603.063.894.185l-.153.349a2.06 2.06 0 0 0-.773-.175c-.2 0-.354.032-.46.095a.302.302 0 0 0-.154.265c0 .074.021.138.059.19.037.059.1.106.185.154.09.048.254.122.497.212.339.121.561.243.683.37.116.122.174.28.174.466zm4.309.772v-1.841c0-.228-.049-.397-.144-.508-.1-.111-.248-.17-.45-.17-.27 0-.465.075-.592.228-.127.153-.19.392-.19.71v1.581h-.43v-1.841c0-.228-.047-.397-.148-.508-.095-.111-.243-.17-.45-.17-.27 0-.465.08-.592.244-.122.159-.185.423-.185.788v1.487h-.429v-2.83H87l.068.386h.021a.845.845 0 0 1 .344-.323 1.01 1.01 0 0 1 .492-.117c.445 0 .73.16.868.482h.021a.942.942 0 0 1 .366-.355 1.18 1.18 0 0 1 .55-.127c.323 0 .56.085.72.249.158.164.238.429.238.789v1.846zm3.138-.772c0 .264-.095.465-.296.608-.196.143-.471.217-.826.217-.375 0-.666-.058-.878-.18v-.397c.137.07.286.122.44.164.153.038.306.059.449.059.227 0 .397-.037.518-.106a.355.355 0 0 0 .18-.328.36.36 0 0 0-.143-.286c-.095-.074-.28-.17-.56-.275-.265-.1-.45-.185-.561-.26a.743.743 0 0 1-.25-.248.648.648 0 0 1-.078-.334.63.63 0 0 1 .28-.545c.185-.132.445-.2.773-.2.307 0 .603.063.894.185l-.154.349a2.06 2.06 0 0 0-.772-.175c-.201 0-.355.032-.46.095a.302.302 0 0 0-.154.265c0 .074.021.138.058.19.037.059.1.106.185.154.09.048.254.122.498.212.339.121.56.243.682.37a.65.65 0 0 1 .175.466z"/></g><circle style="opacity:.7;fill:#fff;stroke:#000;stroke-miterlimit:1.5" r="2.405" cy="31.352" cx="66.448" stroke-miterlimit="1.5"/><circle style="opacity:.7;fill:#fff;stroke:#000;stroke-miterlimit:1.5" r="2.405" cy="31.352" cx="110.355" stroke-miterlimit="1.5"/><g style="clip-rule:evenodd;fill-rule:evenodd;stroke-linecap:round;stroke-linejoin:round;stroke-miterlimit:1.5" stroke-miterlimit="1.5"><path style="fill:none;stroke:#000;stroke-width:1.27178001" d="M2.44 39.404a1.912 1.912 0 0 1-3.823 0m3.585-16.225c0-.989-.803-1.791-1.791-1.791H.408c-.99 0-1.79.802-1.79 1.79v1.32h3.584ZM.518 34.868h-5.643l-2.672 1.928v2.006H.649"/><path style="fill:none;stroke:#000;stroke-width:1.27178001" d="m6.421 34.868 2.551 1.928v2.006H.527"/><path style="fill:none;stroke:#000;stroke-width:.97000003" d="M534.643 204.138v-5.573c0-1.187-1.018-2.15-2.27-2.15h-4.54c-1.253 0-2.27.963-2.27 2.15v5.573" transform="matrix(1.27178 0 0 1.34272 -673.524 -239.231)"/></g><circle style="opacity:.7;fill:#fff;stroke:#000;stroke-miterlimit:1.5" r="2.405" cy="31.352" cx="22.541" stroke-miterlimit="1.5"/></g><g aria-label="ASSET 2" style="font-style:normal;font-variant:normal;font-weight:700;font-stretch:normal;font-size:7.05555534px;line-height:1.25;font-family:'Open Sans';-inkscape-font-specification:'Open Sans Bold';letter-spacing:0;word-spacing:0;fill:#000;fill-opacity:1;stroke:none;stroke-width:.26458332"><path d="m-172.684 86.716-.805-2.238h-3.081l-.788 2.238h-1.39l3.016-8.092h1.433l3.015 8.092zm-1.152-3.373-.755-2.194q-.083-.22-.232-.695-.143-.474-.198-.694-.149.678-.436 1.483l-.727 2.1zM-165.573 84.528q0 1.075-.778 1.687-.777.611-2.144.611t-2.238-.424v-1.246q.552.26 1.169.408.623.149 1.157.149.783 0 1.152-.298.375-.297.375-.799 0-.452-.341-.766-.342-.314-1.412-.744-1.102-.447-1.554-1.02-.452-.573-.452-1.378 0-1.009.717-1.588.716-.578 1.923-.578 1.158 0 2.304.507l-.419 1.075q-1.074-.452-1.918-.452-.64 0-.97.28-.33.276-.33.734 0 .314.132.54.132.22.435.419.303.198 1.092.524.887.369 1.3.689.414.32.607.722.193.402.193.948zM-159.367 84.528q0 1.075-.777 1.687-.777.611-2.144.611t-2.238-.424v-1.246q.551.26 1.169.408.622.149 1.157.149.783 0 1.152-.298.375-.297.375-.799 0-.452-.342-.766t-1.41-.744q-1.103-.447-1.555-1.02-.452-.573-.452-1.378 0-1.009.716-1.588.717-.578 1.924-.578 1.158 0 2.304.507l-.419 1.075q-1.075-.452-1.918-.452-.64 0-.97.28-.33.276-.33.734 0 .314.131.54.133.22.436.419.303.198 1.091.524.888.369 1.301.689.414.32.606.722.193.402.193.948zM-153.248 86.716h-4.559v-8.059h4.559v1.114h-3.241v2.194h3.037v1.102h-3.037v2.53h3.24zM-148.723 86.716h-1.317v-6.929h-2.37v-1.13h6.058v1.13h-2.37zM-137.29 86.716h-5.463v-.981l2.078-2.09q.92-.942 1.218-1.333.303-.397.441-.744t.138-.744q0-.546-.33-.86-.326-.314-.905-.314-.463 0-.898.17-.43.171-.998.618l-.7-.855q.673-.567 1.306-.804.634-.237 1.35-.237 1.125 0 1.803.59.678.584.678 1.576 0 .546-.198 1.036-.193.49-.6 1.014-.403.519-1.346 1.406l-1.4 1.356v.055h3.826z" style="font-style:normal;font-variant:normal;font-weight:600;font-stretch:normal;font-size:11.28888893px;font-family:'Open Sans';-inkscape-font-specification:'Open Sans Semi-Bold';stroke-width:.26458332"/></g></g></svg>