<svg xmlns="http://www.w3.org/2000/svg" width="1273.261" height="819.839" viewBox="0 0 336.884 216.916"><path style="fill:#fff;stroke:none;stroke-width:.26458329px;stroke-linecap:butt;stroke-linejoin:miter;stroke-opacity:1;fill-opacity:1" d="m159.834 171.453-2.27 1.953-.048 2.8-4.23.897-1.795 5.597.053 9.768-4.33 3.274.105 1.795 10.403.264.528 3.327 3.537.475 2.113-3.696 9.222-.141v-3.023l-3.839-2.904.002-12.519-3.22-2.851-3.147-.262-.233-3.381z"/><path d="M16.404 60.968h54.807v20.316H16.404z" style="opacity:1;fill:#fffffd;fill-opacity:1;stroke:#000;stroke-width:1.05833328;stroke-linecap:round;stroke-linejoin:miter;stroke-miterlimit:4;stroke-dasharray:none;stroke-dashoffset:0;stroke-opacity:1" transform="translate(.28 -4.583)"/><g aria-label="ASSET 1" style="font-style:normal;font-variant:normal;font-weight:700;font-stretch:normal;font-size:7.05555534px;line-height:1.25;font-family:'Open Sans';-inkscape-font-specification:'Open Sans Bold';letter-spacing:0;word-spacing:0;fill:#000;fill-opacity:1;stroke:none;stroke-width:.26458332"><path d="m29.972 75.158-.805-2.238h-3.08l-.79 2.238H23.91l3.015-8.092h1.433l3.015 8.092zm-1.152-3.373-.755-2.194q-.083-.22-.232-.695-.143-.474-.198-.694-.149.678-.435 1.482l-.728 2.1zM37.083 72.97q0 1.075-.777 1.686-.778.612-2.145.612t-2.238-.424v-1.246q.552.26 1.169.408.623.149 1.158.149.782 0 1.152-.298.374-.297.374-.8 0-.451-.341-.765-.342-.314-1.411-.744-1.103-.447-1.555-1.02-.452-.573-.452-1.378 0-1.009.717-1.588.716-.578 1.923-.578 1.158 0 2.305.507l-.42 1.075q-1.074-.452-1.918-.452-.639 0-.97.28-.33.276-.33.734 0 .314.132.54.132.22.435.419.303.198 1.092.524.887.369 1.3.689.414.32.607.722.193.402.193.948zM43.29 72.97q0 1.075-.778 1.686-.777.612-2.144.612t-2.238-.424v-1.246q.551.26 1.169.408.623.149 1.157.149.783 0 1.152-.298.375-.297.375-.8 0-.451-.342-.765-.341-.314-1.41-.744-1.103-.447-1.555-1.02-.452-.573-.452-1.378 0-1.009.716-1.588.717-.578 1.924-.578 1.158 0 2.304.507l-.419 1.075q-1.075-.452-1.918-.452-.64 0-.97.28-.33.276-.33.734 0 .314.132.54.132.22.435.419.303.198 1.091.524.888.369 1.301.689.414.32.607.722.193.402.193.948zM49.408 75.158h-4.559V67.1h4.559v1.114h-3.241v2.194h3.037v1.102h-3.037v2.53h3.241zM53.933 75.158h-1.317V68.23h-2.37V67.1h6.058v1.13h-2.37zM63.707 75.158H62.41v-5.203q0-.932.044-1.478-.126.133-.314.292-.182.16-1.235 1.015l-.65-.822 2.37-1.863h1.08z" style="font-style:normal;font-variant:normal;font-weight:600;font-stretch:normal;font-size:11.28888893px;font-family:'Open Sans';-inkscape-font-specification:'Open Sans Semi-Bold';stroke-width:.26458332" transform="translate(.28 -4.583)"/></g><path d="M249.094 53.055h70.8V89.14h-70.8z" style="opacity:1;fill:#fff;fill-opacity:1;stroke:none;stroke-width:1.08162117;stroke-linecap:square;stroke-linejoin:miter;stroke-miterlimit:4;stroke-dasharray:none;stroke-dashoffset:0;stroke-opacity:1;paint-order:normal" transform="translate(.28 -4.583)"/><path d="M248.708 52.5V89.75h71.74V52.5zm1.06 1.059h69.622v35.133h-69.623z" style="color:#000;font-style:normal;font-variant:normal;font-weight:400;font-stretch:normal;font-size:medium;line-height:normal;font-family:sans-serif;font-variant-ligatures:normal;font-variant-position:normal;font-variant-caps:normal;font-variant-numeric:normal;font-variant-alternates:normal;font-feature-settings:normal;text-indent:0;text-align:start;text-decoration:none;text-decoration-line:none;text-decoration-style:solid;text-decoration-color:#000;letter-spacing:normal;word-spacing:normal;text-transform:none;writing-mode:lr-tb;direction:ltr;text-orientation:mixed;dominant-baseline:auto;baseline-shift:baseline;text-anchor:start;white-space:normal;shape-padding:0;clip-rule:nonzero;display:inline;overflow:visible;visibility:visible;opacity:1;isolation:auto;mix-blend-mode:normal;color-interpolation:sRGB;color-interpolation-filters:linearRGB;solid-color:#000;solid-opacity:1;vector-effect:none;fill:#000;fill-opacity:1;fill-rule:nonzero;stroke:none;stroke-width:1.05833328;stroke-linecap:round;stroke-linejoin:miter;stroke-miterlimit:4;stroke-dasharray:none;stroke-dashoffset:0;stroke-opacity:1;color-rendering:auto;image-rendering:auto;shape-rendering:auto;text-rendering:auto;enable-background:accumulate" transform="translate(.28 -4.583)"/><g aria-label="SERVICE" style="font-style:normal;font-variant:normal;font-weight:700;font-stretch:normal;font-size:7.05555534px;line-height:1.25;font-family:'Open Sans';-inkscape-font-specification:'Open Sans Bold';letter-spacing:0;word-spacing:0;fill:#000;fill-opacity:1;stroke:none;stroke-width:.26458332"><path d="M268.53 72.97q0 1.074-.777 1.686-.778.612-2.145.612t-2.238-.424v-1.246q.552.259 1.169.408.623.149 1.158.149.782 0 1.152-.298.374-.298.374-.8 0-.451-.341-.765-.342-.315-1.411-.745-1.103-.446-1.555-1.02-.452-.573-.452-1.377 0-1.01.717-1.588.716-.579 1.923-.579 1.158 0 2.305.508l-.42 1.074q-1.074-.452-1.918-.452-.64 0-.97.282-.33.275-.33.733 0 .314.132.54.132.22.435.419.303.198 1.092.523.887.37 1.3.69.414.32.607.721.193.403.193.949zM274.648 75.158h-4.558v-8.059h4.558v1.114h-3.24v2.193h3.036v1.103h-3.037v2.53h3.241zM277.708 70.847h.915q.92 0 1.333-.341.414-.342.414-1.015 0-.683-.447-.98-.446-.298-1.345-.298h-.87zm0 1.092v3.219h-1.318v-8.059h2.277q1.56 0 2.31.584.749.585.749 1.764 0 1.505-1.566 2.145l2.277 3.566h-1.5l-1.929-3.22zM288.197 67.1h1.367l-2.822 8.058h-1.39l-2.81-8.059h1.356l1.68 5.01q.133.359.282.927.149.562.193.838.072-.42.22-.97.15-.552.243-.816zM290.628 75.158v-8.059h1.317v8.059zM297.502 68.113q-1.136 0-1.786.805-.65.805-.65 2.222 0 1.482.622 2.243.629.76 1.814.76.512 0 .992-.099.48-.104.998-.264v1.13q-.949.358-2.15.358-1.77 0-2.718-1.07-.948-1.074-.948-3.07 0-1.256.458-2.199.463-.942 1.334-1.444.87-.502 2.045-.502 1.234 0 2.282.519l-.474 1.096q-.408-.192-.866-.336-.452-.149-.953-.149zM305.786 75.158h-4.558v-8.059h4.558v1.114h-3.24v2.193h3.036v1.103h-3.037v2.53h3.241z" style="font-style:normal;font-variant:normal;font-weight:600;font-stretch:normal;font-size:11.28888893px;font-family:'Open Sans';-inkscape-font-specification:'Open Sans Semi-Bold';stroke-width:.26458332" transform="translate(.28 -4.583)"/></g><path style="color:#000;font-style:normal;font-variant:normal;font-weight:400;font-stretch:normal;font-size:medium;line-height:normal;font-family:sans-serif;font-variant-ligatures:normal;font-variant-position:normal;font-variant-caps:normal;font-variant-numeric:normal;font-variant-alternates:normal;font-feature-settings:normal;text-indent:0;text-align:start;text-decoration:none;text-decoration-line:none;text-decoration-style:solid;text-decoration-color:#000;letter-spacing:normal;word-spacing:normal;text-transform:none;writing-mode:lr-tb;direction:ltr;text-orientation:mixed;dominant-baseline:auto;baseline-shift:baseline;text-anchor:start;white-space:normal;shape-padding:0;clip-rule:nonzero;display:inline;overflow:visible;visibility:visible;opacity:1;isolation:auto;mix-blend-mode:normal;color-interpolation:sRGB;color-interpolation-filters:linearRGB;solid-color:#000;solid-opacity:1;vector-effect:none;fill:#000;fill-opacity:1;fill-rule:nonzero;stroke:none;stroke-width:1.05833328;stroke-linecap:butt;stroke-linejoin:miter;stroke-miterlimit:4;stroke-dasharray:none;stroke-dashoffset:0;stroke-opacity:1;color-rendering:auto;image-rendering:auto;shape-rendering:auto;text-rendering:auto;enable-background:accumulate" d="m175.295 57.012 4.21-4.21.748.75-2.93 2.93h45.09v1.058h-45.094l2.937 2.937-.748.749-4.21-4.21zm1.496 0z" transform="translate(.28 -4.583)"/><path style="opacity:1;fill:#b16562;fill-opacity:1;stroke:#000;stroke-width:1.05833328;stroke-linecap:round;stroke-linejoin:miter;stroke-miterlimit:4;stroke-dasharray:none;stroke-dashoffset:0;stroke-opacity:1" d="M169.396 57.015a9.213 9.213 0 0 1-9.213 9.213 9.213 9.213 0 0 1-9.213-9.213 9.213 9.213 0 0 1 9.213-9.213 9.213 9.213 0 0 1 9.213 9.213z" transform="translate(.28 -4.583)"/><path style="color:#000;font-style:normal;font-variant:normal;font-weight:400;font-stretch:normal;font-size:medium;line-height:normal;font-family:sans-serif;font-variant-ligatures:normal;font-variant-position:normal;font-variant-caps:normal;font-variant-numeric:normal;font-variant-alternates:normal;font-feature-settings:normal;text-indent:0;text-align:start;text-decoration:none;text-decoration-line:none;text-decoration-style:solid;text-decoration-color:#000;letter-spacing:normal;word-spacing:normal;text-transform:none;writing-mode:lr-tb;direction:ltr;text-orientation:mixed;dominant-baseline:auto;baseline-shift:baseline;text-anchor:start;white-space:normal;shape-padding:0;clip-rule:nonzero;display:inline;overflow:visible;visibility:visible;opacity:1;isolation:auto;mix-blend-mode:normal;color-interpolation:sRGB;color-interpolation-filters:linearRGB;solid-color:#000;solid-opacity:1;vector-effect:none;fill:#b16562;fill-opacity:1;fill-rule:nonzero;stroke:none;stroke-width:1.05833328;stroke-linecap:butt;stroke-linejoin:miter;stroke-miterlimit:4;stroke-dasharray:none;stroke-dashoffset:0;stroke-opacity:1;color-rendering:auto;image-rendering:auto;shape-rendering:auto;text-rendering:auto;enable-background:accumulate" d="m98.036 57.012 4.21-4.21.748.75-2.93 2.93h45.09v1.058h-45.093l2.937 2.937-.748.749-4.21-4.21zm1.497 0z" transform="translate(.28 -4.583)"/><path style="color:#000;font-style:normal;font-variant:normal;font-weight:400;font-stretch:normal;font-size:medium;line-height:normal;font-family:sans-serif;font-variant-ligatures:normal;font-variant-position:normal;font-variant-caps:normal;font-variant-numeric:normal;font-variant-alternates:normal;font-feature-settings:normal;text-indent:0;text-align:start;text-decoration:none;text-decoration-line:none;text-decoration-style:solid;text-decoration-color:#000;letter-spacing:normal;word-spacing:normal;text-transform:none;writing-mode:lr-tb;direction:ltr;text-orientation:mixed;dominant-baseline:auto;baseline-shift:baseline;text-anchor:start;white-space:normal;shape-padding:0;clip-rule:nonzero;display:inline;overflow:visible;visibility:visible;opacity:1;isolation:auto;mix-blend-mode:normal;color-interpolation:sRGB;color-interpolation-filters:linearRGB;solid-color:#000;solid-opacity:1;vector-effect:none;fill:#000;fill-opacity:1;fill-rule:nonzero;stroke:none;stroke-width:1.05833328;stroke-linecap:butt;stroke-linejoin:miter;stroke-miterlimit:4;stroke-dasharray:none;stroke-dashoffset:0;stroke-opacity:1;color-rendering:auto;image-rendering:auto;shape-rendering:auto;text-rendering:auto;enable-background:accumulate" d="m175.295 85.235 4.21-4.21.748.749-2.93 2.93h45.09v1.059h-45.094l2.937 2.936-.748.75-4.21-4.21zm1.496 0v-.001z" transform="translate(.28 -4.583)"/><path style="opacity:1;fill:#b16562;fill-opacity:1;stroke:#000;stroke-width:1.05833328;stroke-linecap:round;stroke-linejoin:miter;stroke-miterlimit:4;stroke-dasharray:none;stroke-dashoffset:0;stroke-opacity:1" d="M169.396 85.237a9.213 9.213 0 0 1-9.213 9.213 9.213 9.213 0 0 1-9.213-9.213 9.213 9.213 0 0 1 9.213-9.213 9.213 9.213 0 0 1 9.213 9.213z" transform="translate(.28 -4.583)"/><path style="color:#000;font-style:normal;font-variant:normal;font-weight:400;font-stretch:normal;font-size:medium;line-height:normal;font-family:sans-serif;font-variant-ligatures:normal;font-variant-position:normal;font-variant-caps:normal;font-variant-numeric:normal;font-variant-alternates:normal;font-feature-settings:normal;text-indent:0;text-align:start;text-decoration:none;text-decoration-line:none;text-decoration-style:solid;text-decoration-color:#000;letter-spacing:normal;word-spacing:normal;text-transform:none;writing-mode:lr-tb;direction:ltr;text-orientation:mixed;dominant-baseline:auto;baseline-shift:baseline;text-anchor:start;white-space:normal;shape-padding:0;clip-rule:nonzero;display:inline;overflow:visible;visibility:visible;opacity:1;isolation:auto;mix-blend-mode:normal;color-interpolation:sRGB;color-interpolation-filters:linearRGB;solid-color:#000;solid-opacity:1;vector-effect:none;fill:#b16562;fill-opacity:1;fill-rule:nonzero;stroke:none;stroke-width:1.05833328;stroke-linecap:butt;stroke-linejoin:miter;stroke-miterlimit:4;stroke-dasharray:none;stroke-dashoffset:0;stroke-opacity:1;color-rendering:auto;image-rendering:auto;shape-rendering:auto;text-rendering:auto;enable-background:accumulate" d="m98.036 85.235 4.21-4.21.748.749-2.93 2.93h45.09v1.059h-45.093l2.937 2.936-.748.75-4.21-4.21zm1.497 0v-.001z" transform="translate(.28 -4.583)"/><path style="color:#000;font-style:normal;font-variant:normal;font-weight:400;font-stretch:normal;font-size:medium;line-height:normal;font-family:sans-serif;font-variant-ligatures:normal;font-variant-position:normal;font-variant-caps:normal;font-variant-numeric:normal;font-variant-alternates:normal;font-feature-settings:normal;text-indent:0;text-align:start;text-decoration:none;text-decoration-line:none;text-decoration-style:solid;text-decoration-color:#000;letter-spacing:normal;word-spacing:normal;text-transform:none;writing-mode:lr-tb;direction:ltr;text-orientation:mixed;dominant-baseline:auto;baseline-shift:baseline;text-anchor:start;white-space:normal;shape-padding:0;clip-rule:nonzero;display:inline;overflow:visible;visibility:visible;opacity:1;isolation:auto;mix-blend-mode:normal;color-interpolation:sRGB;color-interpolation-filters:linearRGB;solid-color:#000;solid-opacity:1;vector-effect:none;fill:#000;fill-opacity:1;fill-rule:nonzero;stroke:none;stroke-width:1.05833328;stroke-linecap:butt;stroke-linejoin:miter;stroke-miterlimit:4;stroke-dasharray:none;stroke-dashoffset:0;stroke-opacity:1;color-rendering:auto;image-rendering:auto;shape-rendering:auto;text-rendering:auto;enable-background:accumulate" d="m175.295 113.457 4.21-4.21.748.749-2.93 2.93h45.09v1.059h-45.094l2.937 2.937-.748.748-4.21-4.21zm1.496 0z" transform="translate(.28 -4.583)"/><path style="opacity:1;fill:#b16562;fill-opacity:1;stroke:#000;stroke-width:1.05833328;stroke-linecap:round;stroke-linejoin:miter;stroke-miterlimit:4;stroke-dasharray:none;stroke-dashoffset:0;stroke-opacity:1" d="M169.396 113.459a9.213 9.213 0 0 1-9.213 9.213 9.213 9.213 0 0 1-9.213-9.213 9.213 9.213 0 0 1 9.213-9.213 9.213 9.213 0 0 1 9.213 9.213z" transform="translate(.28 -4.583)"/><path style="color:#000;font-style:normal;font-variant:normal;font-weight:400;font-stretch:normal;font-size:medium;line-height:normal;font-family:sans-serif;font-variant-ligatures:normal;font-variant-position:normal;font-variant-caps:normal;font-variant-numeric:normal;font-variant-alternates:normal;font-feature-settings:normal;text-indent:0;text-align:start;text-decoration:none;text-decoration-line:none;text-decoration-style:solid;text-decoration-color:#000;letter-spacing:normal;word-spacing:normal;text-transform:none;writing-mode:lr-tb;direction:ltr;text-orientation:mixed;dominant-baseline:auto;baseline-shift:baseline;text-anchor:start;white-space:normal;shape-padding:0;clip-rule:nonzero;display:inline;overflow:visible;visibility:visible;opacity:1;isolation:auto;mix-blend-mode:normal;color-interpolation:sRGB;color-interpolation-filters:linearRGB;solid-color:#000;solid-opacity:1;vector-effect:none;fill:#b16562;fill-opacity:1;fill-rule:nonzero;stroke:none;stroke-width:1.05833328;stroke-linecap:butt;stroke-linejoin:miter;stroke-miterlimit:4;stroke-dasharray:none;stroke-dashoffset:0;stroke-opacity:1;color-rendering:auto;image-rendering:auto;shape-rendering:auto;text-rendering:auto;enable-background:accumulate" d="m98.036 113.457 4.21-4.21.748.749-2.93 2.93h45.09v1.059h-45.093l2.937 2.937-.748.748-4.21-4.21zm1.497 0z" transform="translate(.28 -4.583)"/><path style="opacity:1;fill:#62b162;fill-opacity:1;stroke:#000;stroke-width:1.05833328;stroke-linecap:round;stroke-linejoin:miter;stroke-miterlimit:4;stroke-dasharray:none;stroke-dashoffset:0;stroke-opacity:1" d="M169.396 28.793a9.213 9.213 0 0 1-9.213 9.213 9.213 9.213 0 0 1-9.213-9.213 9.213 9.213 0 0 1 9.213-9.213 9.213 9.213 0 0 1 9.213 9.213z" transform="translate(.28 -4.583)"/><path d="m175.295 28.789 4.21-4.21.748.75-2.93 2.93h45.09v1.059h-45.094l2.937 2.936-.748.75-4.21-4.21zm1.496 0zm-78.755 0 4.21-4.21.748.75-2.93 2.93h45.09v1.059h-45.093l2.937 2.936-.748.75-4.21-4.21zm1.497 0z" style="color:#000;font-style:normal;font-variant:normal;font-weight:400;font-stretch:normal;font-size:medium;line-height:normal;font-family:sans-serif;font-variant-ligatures:normal;font-variant-position:normal;font-variant-caps:normal;font-variant-numeric:normal;font-variant-alternates:normal;font-feature-settings:normal;text-indent:0;text-align:start;text-decoration:none;text-decoration-line:none;text-decoration-style:solid;text-decoration-color:#000;letter-spacing:normal;word-spacing:normal;text-transform:none;writing-mode:lr-tb;direction:ltr;text-orientation:mixed;dominant-baseline:auto;baseline-shift:baseline;text-anchor:start;white-space:normal;shape-padding:0;clip-rule:nonzero;display:inline;overflow:visible;visibility:visible;opacity:1;isolation:auto;mix-blend-mode:normal;color-interpolation:sRGB;color-interpolation-filters:linearRGB;solid-color:#000;solid-opacity:1;vector-effect:none;fill:#000;fill-opacity:1;fill-rule:nonzero;stroke:none;stroke-width:1.05833328;stroke-linecap:butt;stroke-linejoin:miter;stroke-miterlimit:4;stroke-dasharray:none;stroke-dashoffset:0;stroke-opacity:1;color-rendering:auto;image-rendering:auto;shape-rendering:auto;text-rendering:auto;enable-background:accumulate" transform="translate(.28 -4.583)"/><g style="clip-rule:evenodd;fill-rule:evenodd;stroke-linecap:round;stroke-linejoin:round;stroke-miterlimit:1.5" stroke-miterlimit="1.5"><path style="fill:none;stroke:#000;stroke-width:1.27178001" d="M2.44 39.404a1.912 1.912 0 0 1-3.823 0m3.585-16.225c0-.989-.803-1.791-1.791-1.791H.408c-.99 0-1.79.802-1.79 1.79v1.32h3.584ZM.518 34.868h-5.643l-2.672 1.928v2.006H.649" transform="translate(159.6 139.282) scale(1.50723)"/><path style="fill:none;stroke:#000;stroke-width:1.27178001" d="m6.421 34.868 2.551 1.928v2.006H.527" transform="translate(159.6 139.282) scale(1.50723)"/><path style="fill:none;stroke:#000;stroke-width:.97000003" d="M534.643 204.138v-5.573c0-1.187-1.018-2.15-2.27-2.15h-4.54c-1.253 0-2.27.963-2.27 2.15v5.573" transform="matrix(1.91687 0 0 2.02379 -855.558 -221.294)"/></g><path style="opacity:1;fill:#62b162;fill-opacity:1;stroke:#000;stroke-width:1.05833328;stroke-linecap:round;stroke-linejoin:miter;stroke-miterlimit:4;stroke-dasharray:none;stroke-dashoffset:0;stroke-opacity:1" d="M169.588 142.252a9.213 9.213 0 0 1-9.213 9.213 9.213 9.213 0 0 1-9.213-9.213 9.213 9.213 0 0 1 9.213-9.213 9.213 9.213 0 0 1 9.213 9.213z" transform="translate(.28 -4.583)"/><path d="m175.487 142.248 4.21-4.21.748.75-2.93 2.93h45.089v1.059H177.51l2.937 2.936-.748.75-4.21-4.21zm1.496 0zm-78.755 0 4.21-4.21.748.75-2.93 2.93h45.09v1.059h-45.093l2.937 2.936-.748.75-4.21-4.21zm1.497 0z" style="color:#000;font-style:normal;font-variant:normal;font-weight:400;font-stretch:normal;font-size:medium;line-height:normal;font-family:sans-serif;font-variant-ligatures:normal;font-variant-position:normal;font-variant-caps:normal;font-variant-numeric:normal;font-variant-alternates:normal;font-feature-settings:normal;text-indent:0;text-align:start;text-decoration:none;text-decoration-line:none;text-decoration-style:solid;text-decoration-color:#000;letter-spacing:normal;word-spacing:normal;text-transform:none;writing-mode:lr-tb;direction:ltr;text-orientation:mixed;dominant-baseline:auto;baseline-shift:baseline;text-anchor:start;white-space:normal;shape-padding:0;clip-rule:nonzero;display:inline;overflow:visible;visibility:visible;opacity:1;isolation:auto;mix-blend-mode:normal;color-interpolation:sRGB;color-interpolation-filters:linearRGB;solid-color:#000;solid-opacity:1;vector-effect:none;fill:#000;fill-opacity:1;fill-rule:nonzero;stroke:none;stroke-width:1.05833328;stroke-linecap:butt;stroke-linejoin:miter;stroke-miterlimit:4;stroke-dasharray:none;stroke-dashoffset:0;stroke-opacity:1;color-rendering:auto;image-rendering:auto;shape-rendering:auto;text-rendering:auto;enable-background:accumulate" transform="translate(.28 -4.583)"/><g style="font-style:normal;font-variant:normal;font-weight:700;font-stretch:normal;font-size:7.05555439px;line-height:1.25;font-family:'Open Sans';-inkscape-font-specification:'Open Sans Bold';letter-spacing:0;word-spacing:0;fill:#000;fill-opacity:1;stroke:none;stroke-width:.26458329"><path d="M162.181 61.044h-1.703v-4.663l.017-.766.027-.838q-.424.424-.59.557l-.926.744-.821-1.025 2.596-2.067h1.4z" style="font-size:11.28888702px;fill:#fff;fill-opacity:1;stroke-width:.26458329" transform="translate(.28 -4.583)" aria-label="1"/></g><g style="font-style:normal;font-variant:normal;font-weight:700;font-stretch:normal;font-size:7.05555439px;line-height:1.25;font-family:'Open Sans';-inkscape-font-specification:'Open Sans Bold';letter-spacing:0;word-spacing:0;fill:#000;fill-opacity:1;stroke:none;stroke-width:.26458329"><path d="M162.991 89.254h-5.633V88.07l2.023-2.045q.898-.92 1.174-1.273.275-.359.397-.662.121-.303.121-.628 0-.485-.27-.722-.265-.237-.711-.237-.469 0-.91.215-.44.215-.92.612l-.926-1.097q.595-.508.986-.717.392-.21.855-.32.463-.115 1.036-.115.755 0 1.334.275.579.276.898.772.32.496.32 1.135 0 .557-.198 1.048-.193.485-.607.997-.407.513-1.444 1.461l-1.036.976v.077h3.511z" style="font-size:11.28888702px;fill:#fff;fill-opacity:1;stroke-width:.26458329" transform="translate(.28 -4.583)" aria-label="2"/></g><g style="font-style:normal;font-variant:normal;font-weight:700;font-stretch:normal;font-size:7.05555439px;line-height:1.25;font-family:'Open Sans';-inkscape-font-specification:'Open Sans Bold';letter-spacing:0;word-spacing:0;fill:#000;fill-opacity:1;stroke:none;stroke-width:.26458329"><path d="M162.735 111.235q0 .755-.457 1.284-.458.53-1.285.728v.033q.976.121 1.478.595.501.469.501 1.268 0 1.163-.843 1.813-.843.645-2.409.645-1.312 0-2.326-.435v-1.45q.469.237 1.03.386.563.149 1.114.149.844 0 1.246-.287.402-.286.402-.92 0-.568-.463-.805-.463-.237-1.477-.237h-.612v-1.306h.623q.937 0 1.367-.243.436-.248.436-.843 0-.915-1.147-.915-.397 0-.81.132-.408.132-.91.457l-.788-1.174q1.102-.793 2.63-.793 1.25 0 1.973.507.727.507.727 1.41z" style="font-size:11.28888702px;fill:#fff;fill-opacity:1;stroke-width:.26458329" transform="translate(.28 -4.583)" aria-label="3"/></g><g style="font-style:normal;font-variant:normal;font-weight:700;font-stretch:normal;font-size:7.05555439px;line-height:1.25;font-family:'Open Sans';-inkscape-font-specification:'Open Sans Bold';letter-spacing:0;word-spacing:0;fill:#000;fill-opacity:1;stroke:none;stroke-width:.26458329"><path d="M163 28.801q0 2.111-.695 3.126-.689 1.014-2.127 1.014-1.395 0-2.106-1.048-.706-1.047-.706-3.092 0-2.133.69-3.142.688-1.014 2.122-1.014 1.394 0 2.105 1.058.717 1.059.717 3.098zm-3.941 0q0 1.483.253 2.128.26.64.866.64.595 0 .86-.651.264-.65.264-2.117 0-1.483-.27-2.128-.265-.65-.854-.65-.601 0-.86.65-.26.645-.26 2.128z" style="font-size:11.28888702px;fill:#fff;fill-opacity:1;stroke-width:.26458329" transform="translate(.28 -4.583)" aria-label="0"/></g><g style="font-style:normal;font-variant:normal;font-weight:700;font-stretch:normal;font-size:7.05555439px;line-height:1.25;font-family:'Open Sans';-inkscape-font-specification:'Open Sans Bold';letter-spacing:0;word-spacing:0;fill:#000;fill-opacity:1;stroke:none;stroke-width:.26458329"><path d="M163.191 142.26q0 2.111-.694 3.125-.69 1.015-2.128 1.015-1.394 0-2.105-1.048-.706-1.047-.706-3.092 0-2.133.689-3.142.69-1.014 2.122-1.014 1.395 0 2.106 1.058.716 1.058.716 3.098zm-3.94 0q0 1.483.253 2.128.259.639.865.639.596 0 .86-.65.265-.65.265-2.117 0-1.483-.27-2.128-.265-.65-.855-.65-.6 0-.86.65-.259.645-.259 2.128z" style="font-size:11.28888702px;fill:#fff;fill-opacity:1;stroke-width:.26458329" transform="translate(.28 -4.583)" aria-label="0"/></g><path d="M68.181 165.317h184.387" style="fill:none;stroke:#b16562;stroke-width:1.05833316;stroke-linecap:butt;stroke-linejoin:miter;stroke-miterlimit:4;stroke-dasharray:none;stroke-opacity:1" transform="translate(.28 -4.583)"/></svg>