<svg xmlns="http://www.w3.org/2000/svg" width="1267.143" height="532.857" viewBox="0 0 335.265 140.985"><path style="opacity:1;fill:#fff;fill-opacity:1;stroke:none;stroke-width:1.05833328;stroke-linecap:square;stroke-linejoin:miter;stroke-miterlimit:4;stroke-dasharray:none;stroke-dashoffset:0;stroke-opacity:1;paint-order:normal" d="M-70.027 2.07H-.404v35.133h-69.623z" transform="translate(202.127 46.017)"/><path d="M-71.086 1.012V38.26H.654V1.012Zm1.059 1.058H-.404v35.133h-69.623z" style="color:#000;font-style:normal;font-variant:normal;font-weight:400;font-stretch:normal;font-size:medium;line-height:normal;font-family:sans-serif;font-variant-ligatures:normal;font-variant-position:normal;font-variant-caps:normal;font-variant-numeric:normal;font-variant-alternates:normal;font-feature-settings:normal;text-indent:0;text-align:start;text-decoration:none;text-decoration-line:none;text-decoration-style:solid;text-decoration-color:#000;letter-spacing:normal;word-spacing:normal;text-transform:none;writing-mode:lr-tb;direction:ltr;text-orientation:mixed;dominant-baseline:auto;baseline-shift:baseline;text-anchor:start;white-space:normal;shape-padding:0;clip-rule:nonzero;display:inline;overflow:visible;visibility:visible;opacity:1;isolation:auto;mix-blend-mode:normal;color-interpolation:sRGB;color-interpolation-filters:linearRGB;solid-color:#000;solid-opacity:1;vector-effect:none;fill:#000;fill-opacity:1;fill-rule:nonzero;stroke:none;stroke-width:1.05833328;stroke-linecap:round;stroke-linejoin:miter;stroke-miterlimit:4;stroke-dasharray:none;stroke-dashoffset:0;stroke-opacity:1;color-rendering:auto;image-rendering:auto;shape-rendering:auto;text-rendering:auto;enable-background:accumulate" transform="translate(202.127 46.017)"/><path d="M-123.612 66.32h89.164V45.625l2.937 2.937.749-.749-4.21-4.21-.004-.003-4.209 4.21.748.748 2.931-2.931v19.634h-88.106zm88.636-21.223z" style="color:#000;font-style:normal;font-variant:normal;font-weight:400;font-stretch:normal;font-size:medium;line-height:normal;font-family:sans-serif;font-variant-ligatures:normal;font-variant-position:normal;font-variant-caps:normal;font-variant-numeric:normal;font-variant-alternates:normal;font-feature-settings:normal;text-indent:0;text-align:start;text-decoration:none;text-decoration-line:none;text-decoration-style:solid;text-decoration-color:#000;letter-spacing:normal;word-spacing:normal;text-transform:none;writing-mode:lr-tb;direction:ltr;text-orientation:mixed;dominant-baseline:auto;baseline-shift:baseline;text-anchor:start;white-space:normal;shape-padding:0;clip-rule:nonzero;display:inline;overflow:visible;visibility:visible;opacity:1;isolation:auto;mix-blend-mode:normal;color-interpolation:sRGB;color-interpolation-filters:linearRGB;solid-color:#000;solid-opacity:1;vector-effect:none;fill:#000;fill-opacity:1;fill-rule:nonzero;stroke:none;stroke-width:1.05833328;stroke-linecap:butt;stroke-linejoin:miter;stroke-miterlimit:4;stroke-dasharray:none;stroke-dashoffset:0;stroke-opacity:1;color-rendering:auto;image-rendering:auto;shape-rendering:auto;text-rendering:auto;enable-background:accumulate" transform="translate(202.127 46.017)"/><path style="opacity:1;fill:#fffffd;fill-opacity:1;stroke:#000;stroke-width:1.05833328;stroke-linecap:round;stroke-linejoin:miter;stroke-miterlimit:4;stroke-dasharray:none;stroke-dashoffset:0;stroke-opacity:1" d="M-186.973-30.209h54.807v20.316h-54.807z" transform="translate(202.127 39.686)"/><g aria-label="ASSET 1" style="font-style:normal;font-variant:normal;font-weight:700;font-stretch:normal;font-size:7.05555534px;line-height:1.25;font-family:'Open Sans';-inkscape-font-specification:'Open Sans Bold';letter-spacing:0;word-spacing:0;fill:#000;fill-opacity:1;stroke:none;stroke-width:.26458332"><path d="m28.722 23.667-.805-2.238h-3.081l-.788 2.238h-1.39l3.016-8.092h1.433l3.015 8.092zm-1.152-3.373-.755-2.194q-.083-.22-.232-.695-.143-.474-.198-.694-.149.678-.436 1.483l-.727 2.1zM35.833 21.479q0 1.075-.778 1.687-.777.611-2.144.611t-2.238-.424v-1.246q.552.26 1.169.408.623.149 1.157.149.783 0 1.152-.298.375-.297.375-.799 0-.452-.341-.766-.342-.314-1.412-.744-1.102-.447-1.554-1.02-.452-.573-.452-1.378 0-1.009.717-1.588.716-.578 1.923-.578 1.158 0 2.304.507l-.419 1.075q-1.074-.452-1.918-.452-.64 0-.97.28-.33.276-.33.734 0 .314.132.54.132.22.435.419.303.198 1.092.524.887.369 1.3.689.414.32.607.722.193.402.193.948zM42.04 21.479q0 1.075-.778 1.687-.777.611-2.144.611t-2.238-.424v-1.246q.551.26 1.169.408.622.149 1.157.149.783 0 1.152-.298.375-.297.375-.799 0-.452-.342-.766t-1.41-.744q-1.103-.447-1.555-1.02-.452-.573-.452-1.378 0-1.009.716-1.588.717-.578 1.924-.578 1.158 0 2.304.507l-.419 1.075q-1.075-.452-1.918-.452-.64 0-.97.28-.33.276-.33.734 0 .314.131.54.133.22.436.419.303.198 1.091.524.888.369 1.301.689.414.32.606.722.193.402.193.948zM48.158 23.667h-4.559v-8.059h4.559v1.114h-3.241v2.194h3.037v1.102h-3.037v2.53h3.24zM52.683 23.667h-1.317v-6.929h-2.37v-1.13h6.058v1.13h-2.37zM62.456 23.667h-1.295v-5.203q0-.932.044-1.478-.127.133-.314.293-.182.16-1.235 1.014l-.65-.822 2.37-1.863h1.08z" style="font-style:normal;font-variant:normal;font-weight:600;font-stretch:normal;font-size:11.28888893px;font-family:'Open Sans';-inkscape-font-specification:'Open Sans Semi-Bold';stroke-width:.26458332"/></g><path style="opacity:1;fill:#fffffd;fill-opacity:1;stroke:#000;stroke-width:1.05833328;stroke-linecap:round;stroke-linejoin:miter;stroke-miterlimit:4;stroke-dasharray:none;stroke-dashoffset:0;stroke-opacity:1" d="M-186.973 1.541h54.807v20.316h-54.807z" transform="translate(202.127 54.049)"/><g aria-label="ASSET 2" style="font-style:normal;font-variant:normal;font-weight:700;font-stretch:normal;font-size:7.05555534px;line-height:1.25;font-family:'Open Sans';-inkscape-font-specification:'Open Sans Bold';letter-spacing:0;word-spacing:0;fill:#000;fill-opacity:1;stroke:none;stroke-width:.26458332"><path d="m27.892 69.78-.804-2.238h-3.082l-.788 2.238H21.83l3.015-8.092h1.433l3.016 8.092zm-1.152-3.373-.755-2.194q-.082-.22-.231-.695-.144-.474-.199-.694-.149.678-.435 1.483l-.728 2.1zM35.003 67.592q0 1.075-.777 1.687-.777.611-2.144.611t-2.238-.424V68.22q.55.26 1.168.408.623.149 1.158.149.783 0 1.152-.298.375-.297.375-.799 0-.452-.342-.766t-1.411-.744q-1.103-.447-1.555-1.02-.452-.573-.452-1.378 0-1.009.717-1.588.717-.578 1.924-.578 1.157 0 2.304.507l-.42 1.075q-1.074-.452-1.917-.452-.64 0-.97.28-.331.276-.331.734 0 .314.132.54.132.22.436.419.303.198 1.091.524.887.369 1.3.689.414.32.607.722.193.402.193.948zM41.21 67.592q0 1.075-.777 1.687-.778.611-2.145.611t-2.238-.424V68.22q.552.26 1.169.408.623.149 1.158.149.782 0 1.152-.298.374-.297.374-.799 0-.452-.341-.766-.342-.314-1.411-.744-1.103-.447-1.555-1.02-.452-.573-.452-1.378 0-1.009.717-1.588.716-.578 1.923-.578 1.158 0 2.305.507l-.42 1.075q-1.074-.452-1.918-.452-.639 0-.97.28-.33.276-.33.734 0 .314.132.54.132.22.435.419.303.198 1.092.524.887.369 1.3.689.414.32.607.722.193.402.193.948zM47.328 69.78H42.77v-8.059h4.558v1.114h-3.24v2.194h3.036v1.102h-3.037v2.53h3.241zM51.854 69.78h-1.318v-6.929h-2.37v-1.13h6.058v1.13h-2.37zM63.286 69.78h-5.463V68.8l2.078-2.09q.921-.942 1.219-1.333.303-.397.44-.744.138-.347.138-.744 0-.546-.33-.86-.325-.314-.904-.314-.463 0-.899.17-.43.171-.997.618l-.7-.855q.672-.567 1.306-.804.634-.237 1.35-.237 1.125 0 1.803.59.678.584.678 1.576 0 .546-.199 1.036-.193.49-.6 1.014-.403.519-1.345 1.406l-1.4 1.356v.055h3.825z" style="font-style:normal;font-variant:normal;font-weight:600;font-stretch:normal;font-size:11.28888893px;font-family:'Open Sans';-inkscape-font-specification:'Open Sans Semi-Bold';stroke-width:.26458332"/></g><path style="opacity:1;fill:#fffffd;fill-opacity:1;stroke:#000;stroke-width:1.05833328;stroke-linecap:round;stroke-linejoin:miter;stroke-miterlimit:4;stroke-dasharray:none;stroke-dashoffset:0;stroke-opacity:1" d="M-186.973 33.291h54.807v20.316h-54.807z" transform="translate(202.127 68.6)"/><g aria-label="ASSET 3" style="font-style:normal;font-variant:normal;font-weight:700;font-stretch:normal;font-size:7.05555534px;line-height:1.25;font-family:'Open Sans';-inkscape-font-specification:'Open Sans Bold';letter-spacing:0;word-spacing:0;fill:#000;fill-opacity:1;stroke:none;stroke-width:.26458332"><path d="m27.925 116.081-.804-2.238h-3.082l-.788 2.238h-1.389l3.015-8.092h1.433l3.016 8.092zm-1.152-3.373-.755-2.194q-.082-.22-.231-.695-.144-.474-.199-.694-.148.678-.435 1.483l-.728 2.1zM35.036 113.893q0 1.075-.777 1.687-.777.611-2.144.611t-2.238-.424v-1.246q.551.26 1.168.408.623.149 1.158.149.783 0 1.152-.298.375-.297.375-.799 0-.452-.342-.766t-1.411-.744q-1.103-.447-1.555-1.02-.452-.573-.452-1.378 0-1.009.717-1.588.717-.578 1.924-.578 1.157 0 2.304.507l-.419 1.075q-1.075-.452-1.918-.452-.64 0-.97.28-.331.276-.331.734 0 .314.132.54.132.22.436.419.303.198 1.091.524.887.369 1.3.689.414.32.607.722.193.402.193.948zM41.243 113.893q0 1.075-.777 1.687-.778.611-2.145.611t-2.238-.424v-1.246q.552.26 1.17.408.622.149 1.157.149.782 0 1.152-.298.374-.297.374-.799 0-.452-.341-.766-.342-.314-1.411-.744-1.103-.447-1.555-1.02-.452-.573-.452-1.378 0-1.009.717-1.588.716-.578 1.924-.578 1.157 0 2.304.507l-.42 1.075q-1.074-.452-1.918-.452-.639 0-.97.28-.33.276-.33.734 0 .314.132.54.132.22.435.419.303.198 1.092.524.887.369 1.3.689.414.32.607.722.193.402.193.948zM47.361 116.081h-4.558v-8.059h4.558v1.114h-3.24v2.194h3.036v1.102H44.12v2.53h3.241zM51.887 116.081h-1.318v-6.929H48.2v-1.13h6.058v1.13h-2.37zM63.016 109.874q0 .767-.447 1.28-.446.506-1.256.683v.044q.97.121 1.455.606.485.48.485 1.279 0 1.163-.821 1.797-.822.628-2.338.628-1.339 0-2.26-.435v-1.152q.513.253 1.086.391.574.138 1.103.138.937 0 1.4-.347.463-.347.463-1.075 0-.645-.513-.948-.512-.303-1.61-.303h-.7v-1.053h.712q1.929 0 1.929-1.334 0-.518-.336-.8-.337-.28-.992-.28-.458 0-.882.132-.425.127-1.004.501l-.634-.904q1.108-.815 2.575-.815 1.218 0 1.901.523.684.524.684 1.444z" style="font-style:normal;font-variant:normal;font-weight:600;font-stretch:normal;font-size:11.28888893px;font-family:'Open Sans';-inkscape-font-specification:'Open Sans Semi-Bold';stroke-width:.26458332"/></g><g aria-label="SERVICE" style="font-style:normal;font-variant:normal;font-weight:700;font-stretch:normal;font-size:7.05555534px;line-height:1.25;font-family:'Open Sans';-inkscape-font-specification:'Open Sans Bold';letter-spacing:0;word-spacing:0;fill:#000;fill-opacity:1;stroke:none;stroke-width:.26458332"><path d="M-51.264 21.48q0 1.076-.778 1.687-.777.612-2.144.612t-2.238-.424v-1.246q.551.26 1.169.408.623.149 1.157.149.783 0 1.152-.298.375-.298.375-.8 0-.451-.342-.765-.341-.315-1.41-.744-1.103-.447-1.555-1.02-.452-.573-.452-1.378 0-1.009.717-1.588.716-.579 1.923-.579 1.158 0 2.304.508l-.419 1.074q-1.074-.452-1.918-.452-.64 0-.97.282-.33.275-.33.733 0 .314.132.54.132.22.435.419.303.198 1.091.523.888.37 1.301.69.414.32.607.722.193.402.193.948zM-45.146 23.669h-4.558V15.61h4.558v1.114h-3.241v2.194h3.037v1.102h-3.037v2.53h3.241zM-42.087 19.358h.915q.92 0 1.334-.341.414-.342.414-1.014 0-.684-.447-.982-.446-.297-1.345-.297h-.87zm0 1.092v3.219h-1.317V15.61h2.276q1.56 0 2.31.585.75.584.75 1.763 0 1.505-1.566 2.145l2.277 3.566h-1.5l-1.929-3.22zM-31.597 15.61h1.367l-2.822 8.059h-1.39l-2.81-8.059h1.355l1.682 5.01q.132.36.28.927.15.562.194.838.071-.42.22-.97.149-.552.243-.816zM-29.166 23.669V15.61h1.317v8.059zM-22.293 16.624q-1.135 0-1.785.805-.65.805-.65 2.222 0 1.482.622 2.243.628.76 1.813.76.513 0 .993-.098.48-.105.997-.265v1.13q-.948.358-2.15.358-1.769 0-2.717-1.07-.948-1.074-.948-3.07 0-1.256.458-2.199.463-.942 1.333-1.444.871-.502 2.045-.502 1.235 0 2.283.519l-.475 1.097q-.407-.193-.865-.337-.452-.149-.954-.149zM-14.008 23.669h-4.558V15.61h4.558v1.114h-3.24v2.194h3.036v1.102h-3.037v2.53h3.241z" style="font-style:normal;font-variant:normal;font-weight:600;font-stretch:normal;font-size:11.28888893px;font-family:'Open Sans';-inkscape-font-specification:'Open Sans Semi-Bold';stroke-width:.26458332" transform="translate(202.127 46.017)"/></g><path d="M-123.593-27.025h89.145V-6.33l2.937-2.936.749.748-4.21 4.21-.004.003-4.209-4.21.748-.747 2.931 2.93v-19.634h-88.087zm88.617 21.223zM-76.48 19.634l-4.21-4.209-.747.749 2.93 2.93h-45.09v1.059h45.093l-2.937 2.936.748.75 4.21-4.21zm-1.496 0z" style="color:#000;font-style:normal;font-variant:normal;font-weight:400;font-stretch:normal;font-size:medium;line-height:normal;font-family:sans-serif;font-variant-ligatures:normal;font-variant-position:normal;font-variant-caps:normal;font-variant-numeric:normal;font-variant-alternates:normal;font-feature-settings:normal;text-indent:0;text-align:start;text-decoration:none;text-decoration-line:none;text-decoration-style:solid;text-decoration-color:#000;letter-spacing:normal;word-spacing:normal;text-transform:none;writing-mode:lr-tb;direction:ltr;text-orientation:mixed;dominant-baseline:auto;baseline-shift:baseline;text-anchor:start;white-space:normal;shape-padding:0;clip-rule:nonzero;display:inline;overflow:visible;visibility:visible;opacity:1;isolation:auto;mix-blend-mode:normal;color-interpolation:sRGB;color-interpolation-filters:linearRGB;solid-color:#000;solid-opacity:1;vector-effect:none;fill:#000;fill-opacity:1;fill-rule:nonzero;stroke:none;stroke-width:1.05833328;stroke-linecap:butt;stroke-linejoin:miter;stroke-miterlimit:4;stroke-dasharray:none;stroke-dashoffset:0;stroke-opacity:1;color-rendering:auto;image-rendering:auto;shape-rendering:auto;text-rendering:auto;enable-background:accumulate" transform="translate(202.127 46.017)"/><path style="opacity:1;fill:#62b162;fill-opacity:1;stroke:#000;stroke-width:1.05833328;stroke-linecap:round;stroke-linejoin:miter;stroke-miterlimit:4;stroke-dasharray:none;stroke-dashoffset:0;stroke-opacity:1" d="M-122.968-9.846a9.213 9.213 0 0 1-9.213 9.213 9.213 9.213 0 0 1-9.213-9.213 9.213 9.213 0 0 1 9.213-9.213 9.213 9.213 0 0 1 9.213 9.213z" transform="translate(204.267 41.796)"/><path style="clip-rule:evenodd;fill:#fff;fill-rule:evenodd;stroke:#fff;stroke-width:.49325851px;stroke-linecap:round;stroke-linejoin:round;stroke-miterlimit:1.5" d="M-137.203-9.92a12.431 12.431 0 0 1 3.169 4.186c.087.185.277.179.358 0 1.41-3.082 3.7-5.799 6.517-8.012.21-.164-.097-.474-.358-.299-2.4 1.423-4.989 3.177-6.278 5.322-.072.12-.164.063-.24 0-1.172-1.074-2.193-1.509-3.108-1.495-.154.008-.163.21-.06.299z" transform="translate(204.267 41.796)"/><path style="opacity:1;fill:#62b162;fill-opacity:1;stroke:#000;stroke-width:1.05833328;stroke-linecap:round;stroke-linejoin:miter;stroke-miterlimit:4;stroke-dasharray:none;stroke-dashoffset:0;stroke-opacity:1" d="M-122.968-9.846a9.213 9.213 0 0 1-9.213 9.213 9.213 9.213 0 0 1-9.213-9.213 9.213 9.213 0 0 1 9.213-9.213 9.213 9.213 0 0 1 9.213 9.213z" transform="translate(204.267 87.833)"/><path style="clip-rule:evenodd;fill:#fff;fill-rule:evenodd;stroke:#fff;stroke-width:.49325851px;stroke-linecap:round;stroke-linejoin:round;stroke-miterlimit:1.5" d="M-137.203-9.92a12.431 12.431 0 0 1 3.169 4.186c.087.185.277.179.358 0 1.41-3.082 3.7-5.799 6.517-8.012.21-.164-.097-.474-.358-.299-2.4 1.423-4.989 3.177-6.278 5.322-.072.12-.164.063-.24 0-1.172-1.074-2.193-1.509-3.108-1.495-.154.008-.163.21-.06.299z" transform="translate(204.267 87.833)"/><path style="opacity:1;fill:#62b162;fill-opacity:1;stroke:#000;stroke-width:1.05833328;stroke-linecap:round;stroke-linejoin:miter;stroke-miterlimit:4;stroke-dasharray:none;stroke-dashoffset:0;stroke-opacity:1" d="M-122.968-9.846a9.213 9.213 0 0 1-9.213 9.213 9.213 9.213 0 0 1-9.213-9.213 9.213 9.213 0 0 1 9.213-9.213 9.213 9.213 0 0 1 9.213 9.213z" transform="translate(204.267 134.258)"/><path style="clip-rule:evenodd;fill:#fff;fill-rule:evenodd;stroke:#fff;stroke-width:.49325851px;stroke-linecap:round;stroke-linejoin:round;stroke-miterlimit:1.5" d="M-137.203-9.92a12.431 12.431 0 0 1 3.169 4.186c.087.185.277.179.358 0 1.41-3.082 3.7-5.799 6.517-8.012.21-.164-.097-.474-.358-.299-2.4 1.423-4.989 3.177-6.278 5.322-.072.12-.164.063-.24 0-1.172-1.074-2.193-1.509-3.108-1.495-.154.008-.163.21-.06.299z" transform="translate(204.267 134.258)"/><path d="m53.067 19.567-4.21-4.21-.748.749 2.93 2.93H5.95v1.059h45.093l-2.937 2.936.748.75 4.21-4.21zm-1.497 0v-.001z" style="color:#000;font-style:normal;font-variant:normal;font-weight:400;font-stretch:normal;font-size:medium;line-height:normal;font-family:sans-serif;font-variant-ligatures:normal;font-variant-position:normal;font-variant-caps:normal;font-variant-numeric:normal;font-variant-alternates:normal;font-feature-settings:normal;text-indent:0;text-align:start;text-decoration:none;text-decoration-line:none;text-decoration-style:solid;text-decoration-color:#000;letter-spacing:normal;word-spacing:normal;text-transform:none;writing-mode:lr-tb;direction:ltr;text-orientation:mixed;dominant-baseline:auto;baseline-shift:baseline;text-anchor:start;white-space:normal;shape-padding:0;clip-rule:nonzero;display:inline;overflow:visible;visibility:visible;opacity:1;isolation:auto;mix-blend-mode:normal;color-interpolation:sRGB;color-interpolation-filters:linearRGB;solid-color:#000;solid-opacity:1;vector-effect:none;fill:#000;fill-opacity:1;fill-rule:nonzero;stroke:none;stroke-width:1.05833328;stroke-linecap:butt;stroke-linejoin:miter;stroke-miterlimit:4;stroke-dasharray:none;stroke-dashoffset:0;stroke-opacity:1;color-rendering:auto;image-rendering:auto;shape-rendering:auto;text-rendering:auto;enable-background:accumulate" transform="translate(202.127 46.017)"/><g style="clip-rule:evenodd;fill-rule:evenodd;stroke-linejoin:round;stroke-miterlimit:2"><g style="stroke:#000;stroke-width:.99987227;stroke-miterlimit:2;stroke-dasharray:none;stroke-opacity:1"><path transform="matrix(.05618 0 0 .05635 241.038 -51.536)" style="fill:#92a9ea;fill-opacity:1;stroke:none;stroke-width:.99987227;stroke-miterlimit:2;stroke-dasharray:none;stroke-opacity:1" d="M1416.86 2080.22a531.001 531.001 0 0 1-531.001 531 531.001 531.001 0 0 1-531.001-531 531.001 531.001 0 0 1 531.001-531.001 531.001 531.001 0 0 1 531.001 531.001Z" stroke="none"/></g><path d="M.637-.323a.465.465 0 0 1-.019.14.293.293 0 0 1-.058.106.274.274 0 0 1-.096.066.356.356 0 0 1-.131.022.381.381 0 0 1-.129-.019.232.232 0 0 1-.092-.059.268.268 0 0 1-.055-.1.517.517 0 0 1 .002-.283.27.27 0 0 1 .058-.104.24.24 0 0 1 .095-.066.358.358 0 0 1 .132-.023c.048 0 .09.006.127.019a.221.221 0 0 1 .092.059.25.25 0 0 1 .055.099.472.472 0 0 1 .019.143zm-.135.007a.502.502 0 0 0-.007-.091.209.209 0 0 0-.027-.07.136.136 0 0 0-.05-.045.18.18 0 0 0-.078-.016.157.157 0 0 0-.079.018.15.15 0 0 0-.052.048.192.192 0 0 0-.027.069.463.463 0 0 0 0 .178.2.2 0 0 0 .026.07c.012.02.029.035.05.045a.18.18 0 0 0 .078.015.175.175 0 0 0 .08-.017.147.147 0 0 0 .051-.048.195.195 0 0 0 .027-.071.39.39 0 0 0 .008-.085Z" style="fill:#fff;fill-rule:nonzero" transform="translate(267.097 63.094) scale(20.0574)"/><path d="M.805-.018c0 .004-.001.007-.003.009-.001.003-.005.005-.009.007a.26.26 0 0 1-.097 0C.692-.004.688-.006.687-.009.685-.011.684-.014.684-.018v-.514H.683L.5-.018c-.002.004-.004.008-.007.01a.035.035 0 0 1-.012.007.05.05 0 0 1-.019.003L.434.003.405.002a.078.078 0 0 1-.019-.004.035.035 0 0 1-.012-.007.015.015 0 0 1-.006-.009L.191-.532H.19v.514c0 .004 0 .007-.002.009-.002.003-.005.005-.01.007a.26.26 0 0 1-.097 0C.077-.004.073-.006.072-.009.07-.011.069-.014.069-.018v-.563c0-.016.004-.029.013-.038a.052.052 0 0 1 .035-.013h.084a.15.15 0 0 1 .039.004.07.07 0 0 1 .028.012.082.082 0 0 1 .019.022c.005.01.01.021.014.035l.137.376h.001l.142-.375a.196.196 0 0 1 .014-.035.084.084 0 0 1 .018-.023.046.046 0 0 1 .023-.012.104.104 0 0 1 .032-.004h.086c.009 0 .017.001.023.004a.034.034 0 0 1 .016.01.035.035 0 0 1 .009.016.066.066 0 0 1 .003.021z" style="fill:#fff;fill-rule:nonzero" transform="translate(279.257 63.094) scale(20.0574)"/><path d="M.59-.045a.042.042 0 0 1-.004.02.042.042 0 0 1-.011.015.028.028 0 0 1-.015.008.057.057 0 0 1-.018.003H.487a.132.132 0 0 1-.03-.003.076.076 0 0 1-.023-.013.127.127 0 0 1-.02-.024l-.022-.04-.157-.296a.973.973 0 0 1-.028-.056l-.025-.06H.181l.003.07.001.072v.331a.016.016 0 0 1-.003.009C.18-.007.177-.004.173-.003a.22.22 0 0 1-.075.004.06.06 0 0 1-.018-.004C.076-.004.073-.007.071-.009L.069-.018v-.568c0-.015.004-.027.013-.034a.048.048 0 0 1 .033-.012h.069c.012 0 .023.001.031.003a.073.073 0 0 1 .042.031.228.228 0 0 1 .018.032l.123.231.021.041.02.041.019.04a.698.698 0 0 1 .019.039 1.638 1.638 0 0 1-.002-.072l-.001-.07v-.297l.003-.009a.029.029 0 0 1 .01-.006.056.056 0 0 1 .018-.005l.029-.001.028.001a.058.058 0 0 1 .017.005c.004.002.007.004.008.006a.016.016 0 0 1 .003.009z" style="fill:#fff;fill-rule:nonzero" transform="translate(295.383 63.094) scale(20.0574)"/><path d="M.198-.018c0 .004-.001.007-.003.009a.03.03 0 0 1-.011.007.26.26 0 0 1-.101 0C.078-.004.074-.006.072-.009.07-.011.069-.014.069-.018v-.596c0-.004.001-.006.003-.009.002-.003.006-.005.011-.006a.236.236 0 0 1 .101 0 .02.02 0 0 1 .011.006.014.014 0 0 1 .003.009z" style="fill:#fff;fill-rule:nonzero" transform="translate(307.19 63.094) scale(20.0574)"/><g style="fill:#000;fill-opacity:1"><g style="fill:#000;fill-opacity:1"><path d="M.734-.033a.068.068 0 0 1-.008.019.038.038 0 0 1-.016.011.12.12 0 0 1-.026.005L.643.003.598.002a.12.12 0 0 1-.026-.005C.565-.006.561-.009.558-.014a.047.047 0 0 1-.007-.019l-.101-.4H.449l-.096.4a.069.069 0 0 1-.007.019.033.033 0 0 1-.014.011.12.12 0 0 1-.026.005L.263.003.218.002a.146.146 0 0 1-.027-.005.031.031 0 0 1-.014-.011.069.069 0 0 1-.007-.019L.026-.584.021-.612a.02.02 0 0 1 .006-.015c.004-.004.011-.006.02-.007l.039-.001.036.001c.009 0 .016.002.021.003a.024.024 0 0 1 .009.008l.004.015.111.483.115-.48.005-.015a.024.024 0 0 1 .011-.009.08.08 0 0 1 .021-.005l.035-.001.037.001c.01.001.017.002.022.004a.02.02 0 0 1 .011.009.06.06 0 0 1 .005.016l.119.48h.001L.76-.607.764-.62a.02.02 0 0 1 .009-.009.083.083 0 0 1 .02-.005l.036-.001.033.001c.008.001.014.003.017.007a.018.018 0 0 1 .005.016.128.128 0 0 1-.005.028z" style="fill:#000;fill-opacity:1;fill-rule:nonzero" transform="translate(262.13 78.299) scale(20.0574)"/></g><g style="fill:#000;fill-opacity:1"><path d="m.586-.048.008.028c.001.007-.001.012-.004.015C.586-.001.58.001.571.002a.4.4 0 0 1-.038.001L.494.002a.058.058 0 0 1-.021-.003C.468-.002.465-.004.463-.007a.023.023 0 0 1-.005-.01L.416-.144H.178l-.04.123a.033.033 0 0 1-.005.012.015.015 0 0 1-.01.007.088.088 0 0 1-.02.004.333.333 0 0 1-.069-.001C.025 0 .019-.002.016-.006.013-.009.012-.015.013-.021A.16.16 0 0 1 .02-.049l.195-.56a.046.046 0 0 1 .007-.014.023.023 0 0 1 .012-.008C.24-.632.248-.634.258-.634l.04-.001.046.001c.011 0 .02.002.026.003a.03.03 0 0 1 .014.008.052.052 0 0 1 .007.015zm-.29-.463-.089.268h.179z" style="fill:#000;fill-opacity:1;fill-rule:nonzero" transform="translate(278.163 78.299) scale(20.0574)"/></g><g style="fill:#000;fill-opacity:1"><path d="m.489-.579-.001.024a.053.053 0 0 1-.004.016.015.015 0 0 1-.006.009.011.011 0 0 1-.008.003H.312v.509c0 .004-.001.007-.003.009-.002.003-.006.005-.011.007a.26.26 0 0 1-.101 0C.192-.004.188-.006.186-.009.184-.011.183-.014.183-.018v-.509H.025A.011.011 0 0 1 .017-.53a.015.015 0 0 1-.006-.009.053.053 0 0 1-.004-.016L.006-.579l.001-.025A.053.053 0 0 1 .011-.62a.015.015 0 0 1 .006-.009.011.011 0 0 1 .008-.003H.47c.003 0 .006.001.008.003a.015.015 0 0 1 .006.009.053.053 0 0 1 .004.016.185.185 0 0 1 .001.025z" style="fill:#000;fill-opacity:1;fill-rule:nonzero" transform="translate(287.546 78.299) scale(20.0574)"/></g><g style="fill:#000;fill-opacity:1"><path d="m.506-.096-.001.021a.06.06 0 0 1-.002.015.03.03 0 0 1-.004.01l-.008.01a.07.07 0 0 1-.021.015.312.312 0 0 1-.15.035.313.313 0 0 1-.117-.02.227.227 0 0 1-.089-.06.264.264 0 0 1-.056-.099.45.45 0 0 1-.019-.139c0-.053.007-.101.021-.143A.262.262 0 0 1 .213-.62a.304.304 0 0 1 .275.026.073.073 0 0 1 .009.011.036.036 0 0 1 .004.011l.002.016a.162.162 0 0 1 .001.023l-.001.025A.187.187 0 0 1 .5-.491a.035.035 0 0 1-.006.009C.491-.48.489-.479.486-.479c-.005 0-.011-.003-.019-.009a.276.276 0 0 0-.071-.038.205.205 0 0 0-.059-.008.144.144 0 0 0-.067.015.143.143 0 0 0-.051.044.22.22 0 0 0-.031.069.368.368 0 0 0 .001.188c.007.027.018.05.032.067a.13.13 0 0 0 .052.039.16.16 0 0 0 .067.013.192.192 0 0 0 .102-.026.224.224 0 0 0 .029-.017C.479-.147.485-.15.489-.15l.008.002c.002.001.004.004.005.008a.157.157 0 0 1 .003.016l.001.028z" style="fill:#000;fill-opacity:1;fill-rule:nonzero" transform="translate(295.833 78.299) scale(20.0574)"/></g><g style="fill:#000;fill-opacity:1"><path d="M.562-.018c0 .004-.001.007-.003.009-.002.003-.006.005-.011.007a.26.26 0 0 1-.101 0C.442-.004.439-.006.437-.009.435-.011.434-.014.434-.018v-.255H.197v.255c0 .004-.001.007-.003.009-.002.003-.005.005-.01.007a.26.26 0 0 1-.101 0C.078-.004.074-.006.072-.009.07-.011.069-.014.069-.018v-.596c0-.004.001-.006.003-.009.002-.003.006-.005.011-.006a.269.269 0 0 1 .082-.004.078.078 0 0 1 .019.004c.005.001.008.003.01.006a.014.014 0 0 1 .003.009v.232h.237v-.232c0-.004.001-.006.003-.009.002-.003.005-.005.01-.006a.24.24 0 0 1 .101 0c.005.001.009.003.011.006a.014.014 0 0 1 .003.009z" style="fill:#000;fill-opacity:1;fill-rule:nonzero" transform="translate(305.246 78.299) scale(20.0574)"/></g></g></g></svg>