<svg xmlns="http://www.w3.org/2000/svg" width="1272.853" height="725.119" viewBox="0 0 336.776 191.854"><path style="color:#000;font-style:normal;font-variant:normal;font-weight:400;font-stretch:normal;font-size:medium;line-height:normal;font-family:sans-serif;font-variant-ligatures:normal;font-variant-position:normal;font-variant-caps:normal;font-variant-numeric:normal;font-variant-alternates:normal;font-feature-settings:normal;text-indent:0;text-align:start;text-decoration:none;text-decoration-line:none;text-decoration-style:solid;text-decoration-color:#000;letter-spacing:normal;word-spacing:normal;text-transform:none;writing-mode:lr-tb;direction:ltr;text-orientation:mixed;dominant-baseline:auto;baseline-shift:baseline;text-anchor:start;white-space:normal;shape-padding:0;clip-rule:nonzero;display:inline;overflow:visible;visibility:visible;opacity:1;isolation:auto;mix-blend-mode:normal;color-interpolation:sRGB;color-interpolation-filters:linearRGB;solid-color:#000;solid-opacity:1;vector-effect:none;fill:#000;fill-opacity:1;fill-rule:nonzero;stroke:none;stroke-width:1.05833328;stroke-linecap:butt;stroke-linejoin:miter;stroke-miterlimit:4;stroke-dasharray:none;stroke-dashoffset:0;stroke-opacity:1;color-rendering:auto;image-rendering:auto;shape-rendering:auto;text-rendering:auto;enable-background:accumulate" d="m32.608-72.083-4.21-4.21-.748.75 2.93 2.93H1.365v1.058h29.218l-2.937 2.937.748.749 4.21-4.21z" transform="translate(102.62 92.757)"/><path style="opacity:1;fill:#fffffd;fill-opacity:1;stroke:#000;stroke-width:1.05833328;stroke-linecap:round;stroke-linejoin:miter;stroke-miterlimit:4;stroke-dasharray:none;stroke-dashoffset:0;stroke-opacity:1" d="M-83.343-82.239h54.807v20.316h-54.807z" transform="translate(102.62 92.757)"/><g aria-label="ASSET 1" style="font-style:normal;font-variant:normal;font-weight:700;font-stretch:normal;font-size:7.05555534px;line-height:1.25;font-family:'Open Sans';-inkscape-font-specification:'Open Sans Bold';letter-spacing:0;word-spacing:0;fill:#000;fill-opacity:1;stroke:none;stroke-width:.26458332"><path d="m-69.775-68.049-.805-2.238h-3.081l-.788 2.238h-1.39l3.016-8.092h1.433l3.015 8.092zm-1.152-3.373-.755-2.194q-.083-.22-.232-.695-.143-.474-.198-.694-.149.678-.436 1.483l-.727 2.1zM-62.664-70.237q0 1.075-.778 1.687-.777.611-2.144.611t-2.238-.424v-1.246q.552.26 1.169.408.623.149 1.157.149.783 0 1.152-.298.375-.297.375-.799 0-.452-.341-.766-.342-.314-1.412-.744-1.102-.447-1.554-1.02-.452-.573-.452-1.378 0-1.009.717-1.588.716-.578 1.923-.578 1.158 0 2.304.507l-.419 1.075q-1.074-.452-1.918-.452-.64 0-.97.28-.33.276-.33.734 0 .314.132.54.132.22.435.419.303.198 1.092.524.887.369 1.3.689.414.32.607.722.193.402.193.948zM-56.458-70.237q0 1.075-.777 1.687-.777.611-2.144.611t-2.238-.424v-1.246q.551.26 1.169.408.622.149 1.157.149.783 0 1.152-.298.375-.297.375-.799 0-.452-.342-.766t-1.41-.744q-1.103-.447-1.555-1.02-.452-.573-.452-1.378 0-1.009.716-1.588.717-.578 1.924-.578 1.158 0 2.304.507l-.419 1.075q-1.075-.452-1.918-.452-.64 0-.97.28-.33.276-.33.734 0 .314.131.54.133.22.436.419.303.198 1.091.524.888.369 1.301.689.414.32.606.722.193.402.193.948zM-50.34-68.049h-4.558v-8.059h4.559v1.114h-3.241v2.194h3.037v1.102h-3.037v2.53h3.24zM-45.814-68.049h-1.317v-6.929h-2.37v-1.13h6.058v1.13h-2.37zM-36.04-68.049h-1.296v-5.203q0-.932.044-1.478-.127.133-.314.293-.182.16-1.235 1.014l-.65-.822 2.37-1.863h1.08z" style="font-style:normal;font-variant:normal;font-weight:600;font-stretch:normal;font-size:11.28888893px;font-family:'Open Sans';-inkscape-font-specification:'Open Sans Semi-Bold';stroke-width:.26458332" transform="translate(102.62 92.757)"/></g><path style="opacity:1;fill:#62b162;fill-opacity:1;stroke:#000;stroke-width:1.05833328;stroke-linecap:round;stroke-linejoin:miter;stroke-miterlimit:4;stroke-dasharray:none;stroke-dashoffset:0;stroke-opacity:1" d="M-46.727-42.342a9.213 9.213 0 0 1-9.213 9.213 9.213 9.213 0 0 1-9.213-9.213 9.213 9.213 0 0 1 9.213-9.213 9.213 9.213 0 0 1 9.213 9.213z" transform="translate(102.62 92.757)"/><path style="clip-rule:evenodd;fill:#fff;fill-rule:evenodd;stroke:#fff;stroke-width:.49325851px;stroke-linecap:round;stroke-linejoin:round;stroke-miterlimit:1.5" d="M-60.962-42.416a12.431 12.431 0 0 1 3.168 4.185c.087.185.277.18.36 0 1.41-3.082 3.698-5.798 6.516-8.011.21-.164-.097-.474-.359-.3-2.4 1.423-4.988 3.177-6.277 5.322-.072.12-.164.063-.24 0-1.173-1.074-2.194-1.509-3.109-1.495-.154.008-.162.211-.06.3z" transform="translate(102.62 92.757)"/><path style="opacity:1;fill:#fffffd;fill-opacity:1;stroke:#000;stroke-width:1.05833328;stroke-linecap:round;stroke-linejoin:miter;stroke-miterlimit:4;stroke-dasharray:none;stroke-dashoffset:0;stroke-opacity:1" d="M-187.991 17.335h54.807v20.316h-54.807z" transform="translate(207.268 54.037)"/><g aria-label="ASSET 2" style="font-style:normal;font-variant:normal;font-weight:700;font-stretch:normal;font-size:7.05555534px;line-height:1.25;font-family:'Open Sans';-inkscape-font-specification:'Open Sans Bold';letter-spacing:0;word-spacing:0;fill:#000;fill-opacity:1;stroke:none;stroke-width:.26458332"><path d="m-70.605-7.195-.804-2.238h-3.082l-.788 2.238h-1.389l3.015-8.092h1.433l3.016 8.092zm-1.152-3.373-.755-2.194q-.082-.22-.231-.695-.144-.474-.199-.694-.149.678-.435 1.483l-.728 2.1zM-63.494-9.383q0 1.075-.777 1.687-.777.611-2.144.611t-2.238-.424v-1.246q.55.26 1.168.408.623.149 1.158.149.783 0 1.152-.298.375-.297.375-.799 0-.452-.342-.766t-1.411-.744q-1.103-.447-1.555-1.02-.452-.573-.452-1.378 0-1.009.717-1.588.717-.578 1.924-.578 1.157 0 2.304.507l-.42 1.075q-1.074-.452-1.917-.452-.64 0-.97.28-.331.276-.331.734 0 .314.132.54.132.22.436.419.303.198 1.091.524.887.369 1.3.689.414.32.607.722.193.402.193.948zM-57.287-9.383q0 1.075-.777 1.687-.778.611-2.145.611t-2.238-.424v-1.246q.552.26 1.169.408.623.149 1.158.149.782 0 1.152-.298.374-.297.374-.799 0-.452-.341-.766-.342-.314-1.411-.744-1.103-.447-1.555-1.02-.452-.573-.452-1.378 0-1.009.717-1.588.716-.578 1.923-.578 1.158 0 2.305.507l-.42 1.075q-1.074-.452-1.918-.452-.64 0-.97.28-.33.276-.33.734 0 .314.132.54.132.22.435.419.303.198 1.092.524.887.369 1.3.689.414.32.607.722.193.402.193.948zM-51.169-7.195h-4.558v-8.059h4.558v1.114h-3.24v2.194h3.036v1.102h-3.037v2.53h3.241zM-46.643-7.195h-1.318v-6.929h-2.37v-1.13h6.058v1.13h-2.37zM-35.211-7.195h-5.463v-.981l2.078-2.09q.921-.942 1.219-1.333.303-.397.44-.744.138-.347.138-.744 0-.546-.33-.86-.325-.314-.904-.314-.463 0-.899.17-.43.171-.997.618l-.7-.855q.672-.567 1.306-.804.634-.237 1.35-.237 1.125 0 1.803.59.678.584.678 1.576 0 .546-.199 1.036-.193.49-.6 1.014-.403.519-1.345 1.406l-1.4 1.356v.055h3.825z" style="font-style:normal;font-variant:normal;font-weight:600;font-stretch:normal;font-size:11.28888893px;font-family:'Open Sans';-inkscape-font-specification:'Open Sans Semi-Bold';stroke-width:.26458332" transform="translate(102.62 92.757)"/></g><path style="opacity:1;fill:#62b162;fill-opacity:1;stroke:#000;stroke-width:1.05833328;stroke-linecap:round;stroke-linejoin:miter;stroke-miterlimit:4;stroke-dasharray:none;stroke-dashoffset:0;stroke-opacity:1" d="M80.651 39.424a9.213 9.213 0 0 1-9.213 9.213 9.213 9.213 0 0 1-9.213-9.213 9.213 9.213 0 0 1 9.213-9.213 9.213 9.213 0 0 1 9.213 9.213z" transform="translate(-24.758 71.845)"/><path style="clip-rule:evenodd;fill:#fff;fill-rule:evenodd;stroke:#fff;stroke-width:.49325851px;stroke-linecap:round;stroke-linejoin:round;stroke-miterlimit:1.5" d="M66.416 39.35a12.431 12.431 0 0 1 3.168 4.185c.087.185.277.18.36 0 1.41-3.082 3.698-5.799 6.516-8.011.21-.164-.097-.474-.359-.3-2.4 1.423-4.988 3.177-6.277 5.322-.072.12-.164.063-.24 0-1.173-1.074-2.194-1.509-3.109-1.495-.154.008-.162.211-.06.3z" transform="translate(-24.758 71.845)"/><path style="opacity:1;fill:#fffffd;fill-opacity:1;stroke:#000;stroke-width:1.05833328;stroke-linecap:round;stroke-linejoin:miter;stroke-miterlimit:4;stroke-dasharray:none;stroke-dashoffset:0;stroke-opacity:1" d="M-187.991 17.335h54.807v20.316h-54.807z" transform="translate(207.268 114.891)"/><g aria-label="ASSET 3" style="font-style:normal;font-variant:normal;font-weight:700;font-stretch:normal;font-size:7.05555534px;line-height:1.25;font-family:'Open Sans';-inkscape-font-specification:'Open Sans Bold';letter-spacing:0;word-spacing:0;fill:#000;fill-opacity:1;stroke:none;stroke-width:.26458332"><path d="m-70.572 53.66-.804-2.239h-3.082l-.788 2.238h-1.389l3.015-8.092h1.433l3.016 8.092zm-1.152-3.374-.755-2.194q-.082-.22-.231-.695-.144-.474-.199-.694-.148.678-.435 1.483l-.728 2.1zM-63.46 51.47q0 1.076-.778 1.688-.777.611-2.144.611t-2.238-.424v-1.246q.551.26 1.168.408.623.149 1.158.149.783 0 1.152-.298.375-.297.375-.799 0-.452-.342-.766t-1.411-.744q-1.103-.447-1.555-1.02-.452-.573-.452-1.378 0-1.009.717-1.588.717-.578 1.924-.578 1.157 0 2.304.507l-.419 1.075q-1.075-.452-1.918-.452-.64 0-.97.28-.331.276-.331.734 0 .314.132.54.132.22.436.419.303.198 1.091.524.887.369 1.3.689.414.32.607.722.193.402.193.948zM-57.254 51.47q0 1.076-.777 1.688-.778.611-2.145.611t-2.238-.424v-1.246q.552.26 1.17.408.622.149 1.157.149.782 0 1.152-.298.374-.297.374-.799 0-.452-.341-.766-.342-.314-1.411-.744-1.103-.447-1.555-1.02-.452-.573-.452-1.378 0-1.009.717-1.588.716-.578 1.924-.578 1.157 0 2.304.507l-.42 1.075q-1.074-.452-1.918-.452-.639 0-.97.28-.33.276-.33.734 0 .314.132.54.132.22.435.419.303.198 1.092.524.887.369 1.3.689.414.32.607.722.193.402.193.948zM-51.136 53.66h-4.558V45.6h4.558v1.114h-3.24v2.194h3.036v1.102h-3.037v2.53h3.241zM-46.61 53.66h-1.318v-6.93h-2.37V45.6h6.058v1.13h-2.37zM-35.481 47.452q0 .767-.447 1.28-.446.506-1.256.683v.044q.97.121 1.455.606.485.48.485 1.279 0 1.163-.821 1.797-.822.628-2.338.628-1.339 0-2.26-.435v-1.152q.513.253 1.086.391.574.138 1.103.138.937 0 1.4-.347.463-.347.463-1.075 0-.645-.513-.948-.512-.303-1.61-.303h-.7v-1.053h.712q1.929 0 1.929-1.334 0-.518-.336-.8-.337-.28-.992-.28-.458 0-.882.132-.425.127-1.004.501l-.634-.904q1.108-.815 2.575-.815 1.218 0 1.901.523.684.524.684 1.444z" style="font-style:normal;font-variant:normal;font-weight:600;font-stretch:normal;font-size:11.28888893px;font-family:'Open Sans';-inkscape-font-specification:'Open Sans Semi-Bold';stroke-width:.26458332" transform="translate(102.62 92.757)"/></g><path style="opacity:1;fill:#62b162;fill-opacity:1;stroke:#000;stroke-width:1.05833328;stroke-linecap:round;stroke-linejoin:miter;stroke-miterlimit:4;stroke-dasharray:none;stroke-dashoffset:0;stroke-opacity:1" d="M80.651 39.424a9.213 9.213 0 0 1-9.213 9.213 9.213 9.213 0 0 1-9.213-9.213 9.213 9.213 0 0 1 9.213-9.213 9.213 9.213 0 0 1 9.213 9.213z" transform="translate(-24.758 132.699)"/><path style="clip-rule:evenodd;fill:#fff;fill-rule:evenodd;stroke:#fff;stroke-width:.49325851px;stroke-linecap:round;stroke-linejoin:round;stroke-miterlimit:1.5" d="M66.416 39.35a12.431 12.431 0 0 1 3.168 4.185c.087.185.277.18.36 0 1.41-3.082 3.698-5.799 6.516-8.011.21-.164-.097-.474-.359-.3-2.4 1.423-4.988 3.177-6.277 5.322-.072.12-.164.063-.24 0-1.173-1.074-2.194-1.509-3.109-1.495-.154.008-.162.211-.06.3z" transform="translate(-24.758 132.699)"/><path style="opacity:1;fill:#fffffd;fill-opacity:1;stroke:#000;stroke-width:1.05833328;stroke-linecap:round;stroke-linejoin:miter;stroke-miterlimit:4;stroke-dasharray:none;stroke-dashoffset:0;stroke-opacity:1" d="M43.657-72.185H214.88V38.09H43.657Z" transform="translate(102.62 89.053)"/><path style="fill:none;stroke:#000;stroke-width:1.05833328;stroke-linecap:butt;stroke-linejoin:miter;stroke-miterlimit:4;stroke-dasharray:none;stroke-opacity:1" d="M43.717-64.38h170.866" transform="translate(102.62 89.053)"/><path d="M228.594-66.522v3.964m1.982-1.982h-3.964" style="fill:none;stroke:#000;stroke-width:1.05833328;stroke-linecap:butt;stroke-linejoin:miter;stroke-miterlimit:4;stroke-dasharray:none;stroke-opacity:1" transform="rotate(45 168.105 80.752)"/><path style="fill:none;stroke:#000;stroke-width:1.05833328;stroke-linecap:butt;stroke-linejoin:miter;stroke-miterlimit:4;stroke-dasharray:none;stroke-opacity:1" d="M206.953-72.151v7.69" transform="translate(102.62 89.053)"/><g style="stroke-width:1.31466854;stroke-miterlimit:4;stroke-dasharray:none"><path d="m4.767-50.72 2.587-2.587c2.361-2.361-1.508-6.001-3.755-3.754l-6.61 6.61c-2.145 2.145 1.376 6.061 3.718 3.72l.7-.701" style="fill:none;stroke:#000;stroke-width:1.31466854;stroke-linecap:round;stroke-linejoin:miter;stroke-miterlimit:4;stroke-dasharray:none;stroke-opacity:1" transform="matrix(.80502 0 0 .80502 85.135 63.126)"/><path d="m5.063-54.744-2.586 2.587c-2.362 2.362 1.507 6.002 3.754 3.754l6.61-6.61c2.145-2.145-1.376-6.06-3.718-3.719l-.7.701" style="fill:none;stroke:#000;stroke-width:1.31466854;stroke-linecap:round;stroke-linejoin:miter;stroke-miterlimit:4;stroke-dasharray:none;stroke-opacity:1" transform="matrix(.80502 0 0 .80502 85.135 63.126)"/></g></svg>