<svg version="1.1" class="highcharts-root" style="font-family:&quot;Lucida Grande&quot;, &quot;Lucida Sans Unicode&quot;, Arial, Helvetica, sans-serif;font-size:12px;" xmlns="http://www.w3.org/2000/svg" width="359" height="400" viewBox="0 0 359 400"><desc>Created with Highcharts 8.2.0</desc><defs><clipPath id="highcharts-jbbvass-1-"><rect x="0" y="0" width="275" height="190" fill="none"></rect></clipPath></defs><rect fill="rgba(0,0,0,0)" class="highcharts-background" x="0" y="0" width="359" height="400" rx="0" ry="0"></rect><rect fill="none" class="highcharts-plot-background" x="74" y="67" width="275" height="190"></rect><g class="highcharts-grid highcharts-xaxis-grid" data-z-index="1"><path fill="none" data-z-index="1" class="highcharts-grid-line" d="M 119.5 67 L 119.5 257" opacity="1"></path><path fill="none" data-z-index="1" class="highcharts-grid-line" d="M 165.5 67 L 165.5 257" opacity="1"></path><path fill="none" data-z-index="1" class="highcharts-grid-line" d="M 211.5 67 L 211.5 257" opacity="1"></path><path fill="none" data-z-index="1" class="highcharts-grid-line" d="M 256.5 67 L 256.5 257" opacity="1"></path><path fill="none" data-z-index="1" class="highcharts-grid-line" d="M 302.5 67 L 302.5 257" opacity="1"></path><path fill="none" data-z-index="1" class="highcharts-grid-line" d="M 348.5 67 L 348.5 257" opacity="1"></path><path fill="none" data-z-index="1" class="highcharts-grid-line" d="M 73.5 67 L 73.5 257" opacity="1"></path></g><g class="highcharts-grid highcharts-yaxis-grid" data-z-index="1"><path fill="none" stroke="#e6e6e6" stroke-width="1" data-z-index="1" class="highcharts-grid-line" d="M 74 257.5 L 349 257.5" opacity="1"></path><path fill="none" stroke="#e6e6e6" stroke-width="1" data-z-index="1" class="highcharts-grid-line" d="M 74 210.5 L 349 210.5" opacity="1"></path><path fill="none" stroke="#e6e6e6" stroke-width="1" data-z-index="1" class="highcharts-grid-line" d="M 74 162.5 L 349 162.5" opacity="1"></path><path fill="none" stroke="#e6e6e6" stroke-width="1" data-z-index="1" class="highcharts-grid-line" d="M 74 115.5 L 349 115.5" opacity="1"></path><path fill="none" stroke="#e6e6e6" stroke-width="1" data-z-index="1" class="highcharts-grid-line" d="M 74 66.5 L 349 66.5" opacity="1"></path></g><rect fill="none" class="highcharts-plot-border" data-z-index="1" x="74" y="67" width="275" height="190"></rect><g class="highcharts-axis highcharts-xaxis" data-z-index="2"><path fill="none" class="highcharts-axis-line" stroke="#ccd6eb" stroke-width="1" data-z-index="7" d="M 74 257.5 L 349 257.5"></path></g><g class="highcharts-axis highcharts-yaxis" data-z-index="2"><text x="24.53333282470703" data-z-index="7" text-anchor="middle" transform="translate(0,0) rotate(270 24.53333282470703 162)" class="highcharts-axis-title" style="color:#666666;fill:#666666;" y="162"><tspan>Power consumption (watts)</tspan></text><path fill="none" class="highcharts-axis-line" data-z-index="7" d="M 74 67 L 74 257"></path></g><g class="highcharts-series-group" data-z-index="3"><g class="highcharts-series highcharts-series-0 highcharts-column-series highcharts-color-0 highcharts-tracker" data-z-index="0.1" opacity="1" transform="translate(74,67) scale(1 1)" clip-path="url(#highcharts-jbbvass-1-)"><rect x="10.5" y="185.5" width="11" height="5" fill="#7cb5ec" stroke="#ffffff" stroke-width="1" opacity="1" class="highcharts-point highcharts-color-0"></rect><rect x="55.5" y="184.5" width="11" height="6" fill="#7cb5ec" stroke="#ffffff" stroke-width="1" opacity="1" class="highcharts-point highcharts-color-0"></rect><rect x="101.5" y="185.5" width="11" height="5" fill="#7cb5ec" stroke="#ffffff" stroke-width="1" opacity="1" class="highcharts-point highcharts-color-0"></rect><rect x="147.5" y="182.5" width="11" height="8" fill="#7cb5ec" stroke="#ffffff" stroke-width="1" opacity="1" class="highcharts-point highcharts-color-0"></rect><rect x="193.5" y="166.5" width="11" height="24" fill="#7cb5ec" stroke="#ffffff" stroke-width="1" opacity="1" class="highcharts-point highcharts-color-0"></rect><rect x="239.5" y="183.5" width="11" height="7" fill="#7cb5ec" stroke="#ffffff" stroke-width="1" opacity="1" class="highcharts-point highcharts-color-0"></rect></g><g class="highcharts-markers highcharts-series-0 highcharts-column-series highcharts-color-0" data-z-index="0.1" opacity="1" transform="translate(74,67) scale(1 1)" clip-path="none"></g><g class="highcharts-series highcharts-series-1 highcharts-column-series highcharts-color-1 highcharts-tracker" data-z-index="0.1" opacity="1" transform="translate(74,67) scale(1 1)" clip-path="url(#highcharts-jbbvass-1-)"><rect x="23.5" y="147.5" width="11" height="43" fill="#434348" stroke="#ffffff" stroke-width="1" opacity="1" class="highcharts-point highcharts-color-1"></rect><rect x="69.5" y="165.5" width="11" height="25" fill="#434348" stroke="#ffffff" stroke-width="1" opacity="1" class="highcharts-point highcharts-color-1"></rect><rect x="115.5" y="165.5" width="11" height="25" fill="#434348" stroke="#ffffff" stroke-width="1" opacity="1" class="highcharts-point highcharts-color-1"></rect><rect x="161.5" y="100.5" width="11" height="90" fill="#434348" stroke="#ffffff" stroke-width="1" opacity="1" class="highcharts-point highcharts-color-1"></rect><rect x="207.5" y="54.5" width="11" height="136" fill="#434348" stroke="#ffffff" stroke-width="1" opacity="1" class="highcharts-point highcharts-color-1"></rect><rect x="252.5" y="161.5" width="11" height="29" fill="#434348" stroke="#ffffff" stroke-width="1" opacity="1" class="highcharts-point highcharts-color-1"></rect></g><g class="highcharts-markers highcharts-series-1 highcharts-column-series highcharts-color-1" data-z-index="0.1" opacity="1" transform="translate(74,67) scale(1 1)" clip-path="none"></g></g><text x="180" text-anchor="middle" class="highcharts-title" data-z-index="4" style="color:#333333;font-size:18px;fill:#333333;" y="24"><tspan>Comparison of power consumption</tspan><tspan dy="21" x="180">while idle vs at 100% work load</tspan></text><text x="180" text-anchor="middle" class="highcharts-subtitle" data-z-index="4" style="color:#666666;fill:#666666;" y="66"></text><text x="10" text-anchor="start" class="highcharts-caption" data-z-index="4" style="color:#666666;fill:#666666;" y="397"></text><g class="highcharts-legend" data-z-index="7" transform="translate(67,359)"><rect fill="none" class="highcharts-legend-box" rx="0" ry="0" x="0" y="0" width="225" height="26" visibility="visible"></rect><g data-z-index="1"><g><g class="highcharts-legend-item highcharts-column-series highcharts-color-0 highcharts-series-0" data-z-index="1" transform="translate(8,3)"><text x="21" style="color:#333333;cursor:pointer;font-size:12px;font-weight:bold;fill:#333333;" text-anchor="start" data-z-index="2" y="15"><tspan>Idle (avg)</tspan></text><rect x="2" y="4" width="12" height="12" fill="#7cb5ec" rx="6" ry="6" class="highcharts-point" data-z-index="3"></rect></g><g class="highcharts-legend-item highcharts-column-series highcharts-color-1 highcharts-series-1" data-z-index="1" transform="translate(101.66666793823242,3)"><text x="21" y="15" style="color:#333333;cursor:pointer;font-size:12px;font-weight:bold;fill:#333333;" text-anchor="start" data-z-index="2"><tspan>100% Load (avg)</tspan></text><rect x="2" y="4" width="12" height="12" fill="#434348" rx="6" ry="6" class="highcharts-point" data-z-index="3"></rect></g></g></g></g><g class="highcharts-axis-labels highcharts-xaxis-labels" data-z-index="7"><text x="99.509391531014" style="color:#666666;cursor:default;font-size:11px;fill:#666666;" text-anchor="end" transform="translate(0,0) rotate(-45 99.509391531014 273)" y="273" opacity="1"><tspan>Dell PowerEdge</tspan></text><text x="145.34272486435404" style="color:#666666;cursor:default;font-size:11px;fill:#666666;" text-anchor="end" transform="translate(0,0) rotate(-45 145.34272486435404 273)" y="273" opacity="1"><tspan>CISCO VCS</tspan></text><text x="191.17605819768403" style="color:#666666;cursor:default;font-size:11px;fill:#666666;" text-anchor="end" transform="translate(0,0) rotate(-45 191.17605819768403 273)" y="273" opacity="1"><tspan>IBM System</tspan></text><text x="237.00939153101402" style="color:#666666;cursor:default;font-size:11px;fill:#666666;" text-anchor="end" transform="translate(0,0) rotate(-45 237.00939153101402 273)" y="273" opacity="1"><tspan>HPE ProLiant</tspan></text><text x="282.84272486435395" style="color:#666666;cursor:default;font-size:11px;fill:#666666;" text-anchor="end" transform="translate(0,0) rotate(-45 282.84272486435395 273)" y="273" opacity="1"><tspan>Lenovo ThinkSystem</tspan></text><text x="328.676058197684" style="color:#666666;cursor:default;font-size:11px;fill:#666666;" text-anchor="end" transform="translate(0,0) rotate(-45 328.676058197684 273)" y="273" opacity="1"><tspan>SuperMicro SYS</tspan></text></g><g class="highcharts-axis-labels highcharts-yaxis-labels" data-z-index="7"><text x="59" style="color:#666666;cursor:default;font-size:11px;fill:#666666;" text-anchor="end" transform="translate(0,0)" y="261" opacity="1">0</text><text x="59" style="color:#666666;cursor:default;font-size:11px;fill:#666666;" text-anchor="end" transform="translate(0,0)" y="214" opacity="1">500</text><text x="59" style="color:#666666;cursor:default;font-size:11px;fill:#666666;" text-anchor="end" transform="translate(0,0)" y="166" opacity="1">1000</text><text x="59" style="color:#666666;cursor:default;font-size:11px;fill:#666666;" text-anchor="end" transform="translate(0,0)" y="119" opacity="1">1500</text><text x="59" style="color:#666666;cursor:default;font-size:11px;fill:#666666;" text-anchor="end" transform="translate(0,0)" y="71" opacity="1">2000</text></g></svg>
