<?xml version="1.0" encoding="UTF-8" standalone="no"?>
<!DOCTYPE svg PUBLIC "-//W3C//DTD SVG 1.1//EN" "http://www.w3.org/Graphics/SVG/1.1/DTD/svg11.dtd">
<svg width="100%" height="100%" viewBox="0 0 200 200" version="1.1" xmlns="http://www.w3.org/2000/svg" xmlns:xlink="http://www.w3.org/1999/xlink" xml:space="preserve" xmlns:serif="http://www.serif.com/" style="fill-rule:evenodd;clip-rule:evenodd;stroke-linecap:round;stroke-linejoin:round;stroke-miterlimit:1.5;">
    <g transform="matrix(1,0,0,1,0.5,-3.5)">
        <path d="M69,110L92,110C92,110 90.251,98 80,98C69.749,98 69,110 69,110Z" style="fill:none;stroke:rgb(51,51,51);stroke-width:2px;"/>
        <g transform="matrix(1,0,0,1,26,0)">
            <path d="M69,110L92,110C92,110 90.251,98 80,98C69.749,98 69,110 69,110Z" style="fill:none;stroke:rgb(51,51,51);stroke-width:2px;"/>
        </g>
        <g transform="matrix(1,0,0,1,52,0)">
            <path d="M69,110L92,110C92,110 90.251,98 80,98C69.749,98 69,110 69,110Z" style="fill:none;stroke:rgb(51,51,51);stroke-width:2px;"/>
        </g>
        <g transform="matrix(1,0,0,1,78,0)">
            <path d="M69,110L92,110C92,110 90.251,98 80,98C69.749,98 69,110 69,110Z" style="fill:none;stroke:rgb(51,51,51);stroke-width:2px;"/>
        </g>
        <g transform="matrix(1,0,0,1,1,1)">
            <path d="M25,115L1,115L1,124L5,128L184,128L186,125L187,118L196,110L175,110L173,112L28,112L25,115" style="fill:none;stroke:rgb(51,51,51);stroke-width:2px;"/>
        </g>
        <g transform="matrix(1,0,0,1,1,0)">
            <path d="M40,78L40,94L31,94L31,110L65,110L65,90L68,90L68,87L51,87L51,91L47,91L47,94L44,94L44,78L40,78Z" style="fill:none;stroke:rgb(51,51,51);stroke-width:2px;"/>
        </g>
    </g>
</svg>
