<?xml version="1.0" encoding="UTF-8" standalone="no"?>
<!DOCTYPE svg PUBLIC "-//W3C//DTD SVG 1.1//EN" "http://www.w3.org/Graphics/SVG/1.1/DTD/svg11.dtd">
<svg width="100%" height="100%" viewBox="0 0 200 200" version="1.1" xmlns="http://www.w3.org/2000/svg" xmlns:xlink="http://www.w3.org/1999/xlink" xml:space="preserve" xmlns:serif="http://www.serif.com/" style="fill-rule:evenodd;clip-rule:evenodd;stroke-linecap:round;stroke-linejoin:round;stroke-miterlimit:1.5;">
    <g>
        <path d="M65,180L69,171C69.524,169.414 70.882,168.432 73,168C88.436,166.105 103.735,166.293 119,167C127.083,167.614 134.48,170.105 141,175" style="fill:none;stroke:rgb(51,51,51);stroke-width:2px;"/>
        <path d="M67.022,174.478L39.696,177.474L37.981,187.592C37.788,189.338 38.977,190.351 41.739,190.531C81.442,195.04 121.643,193.367 162.139,188.047C164.769,187.603 166.913,186.382 168.484,184.246L174.002,173.366C174.448,171.773 173.423,171.399 171.262,171.966C128.57,177.488 86.046,180.903 43.858,180.088C42.029,179.765 40.812,178.682 39.696,177.474" style="fill:none;stroke:rgb(51,51,51);stroke-width:2px;"/>
        <path d="M165.63,151.817L172.931,171.765" style="fill:none;stroke:rgb(51,51,51);stroke-width:2px;"/>
        <path d="M81,167C87.406,162.764 92.107,158.352 96.93,152" style="fill:none;stroke:rgb(51,51,51);stroke-width:2px;"/>
        <path d="M103.626,142.531C121.067,112.416 122.778,66.065 103,14C126.137,57.195 146.207,103.458 165,151C165.919,153.576 165.386,156.574 162,157C142.156,160.019 122.98,160.743 103.626,159.809" style="fill:none;stroke:rgb(51,51,51);stroke-width:2px;"/>
        <path d="M97.399,159.472C95.119,159.326 93.274,159.19 91,159" style="fill:none;stroke:rgb(51,51,51);stroke-width:2px;"/>
        <path d="M98,18C84.245,63.489 66.503,106.07 46.5,147" style="fill:none;stroke:rgb(51,51,51);stroke-width:2px;"/>
        <path d="M46.5,152L97.459,152" style="fill:none;stroke:rgb(51,51,51);stroke-width:2px;"/>
        <g transform="matrix(1,0,0,1.01266,-2,-2.11392)">
            <path d="M105,166.012L105,9L100,9L100,166.012" style="fill:none;stroke:rgb(51,51,51);stroke-width:1.99px;"/>
        </g>
        <g transform="matrix(0.6,0,0,1,18,0)">
            <circle cx="47.5" cy="149.5" r="2.5" style="fill:none;stroke:rgb(51,51,51);stroke-width:2.43px;"/>
        </g>
        <path d="M46.5,147L97.434,147" style="fill:none;stroke:rgb(51,51,51);stroke-width:2px;"/>
    </g>
</svg>
