<?xml version="1.0" encoding="UTF-8" standalone="no"?>
<!DOCTYPE svg PUBLIC "-//W3C//DTD SVG 1.1//EN" "http://www.w3.org/Graphics/SVG/1.1/DTD/svg11.dtd">
<svg width="100%" height="100%" viewBox="0 0 173 229" version="1.1" xmlns="http://www.w3.org/2000/svg" xmlns:xlink="http://www.w3.org/1999/xlink" xml:space="preserve" xmlns:serif="http://www.serif.com/" style="fill-rule:evenodd;clip-rule:evenodd;stroke-linejoin:round;stroke-miterlimit:1.5;">
    <g id="Artboard1" transform="matrix(1,0,0,1,-36,-86)">
        <rect x="36" y="86" width="173" height="229" style="fill:none;"/>
        <g transform="matrix(1,0,0,1,-133.808,23.8829)">
            <g transform="matrix(1,0,0,1,82.0028,44.9248)">
                <g transform="matrix(16,0,0,16,126.194,44.4741)">
                    <path d="M0.365,0L0.214,0L0.214,-0.588L0.02,-0.588L0.02,-0.714L0.559,-0.714L0.559,-0.588L0.365,-0.588L0.365,0Z" style="fill:rgb(47,47,47);fill-rule:nonzero;"/>
                </g>
                <g transform="matrix(16,0,0,16,135.459,44.4741)">
                    <path d="M0.304,-0.45C0.273,-0.45 0.248,-0.44 0.23,-0.42C0.212,-0.4 0.202,-0.372 0.199,-0.335L0.408,-0.335C0.408,-0.372 0.398,-0.4 0.379,-0.42C0.361,-0.44 0.336,-0.45 0.304,-0.45ZM0.325,0.01C0.237,0.01 0.169,-0.014 0.119,-0.063C0.07,-0.111 0.045,-0.18 0.045,-0.269C0.045,-0.361 0.068,-0.431 0.114,-0.481C0.159,-0.531 0.222,-0.556 0.303,-0.556C0.38,-0.556 0.44,-0.534 0.483,-0.49C0.526,-0.446 0.548,-0.386 0.548,-0.308L0.548,-0.236L0.196,-0.236C0.197,-0.194 0.21,-0.16 0.233,-0.137C0.257,-0.113 0.29,-0.101 0.332,-0.101C0.365,-0.101 0.396,-0.104 0.425,-0.111C0.455,-0.118 0.485,-0.129 0.517,-0.144L0.517,-0.029C0.491,-0.016 0.463,-0.006 0.434,0C0.404,0.007 0.368,0.01 0.325,0.01Z" style="fill:rgb(47,47,47);fill-rule:nonzero;"/>
                </g>
                <g transform="matrix(16,0,0,16,144.912,44.4741)">
                    <path d="M0.567,0L0.418,0L0.418,-0.319C0.418,-0.358 0.411,-0.388 0.398,-0.407C0.385,-0.427 0.364,-0.437 0.336,-0.437C0.298,-0.437 0.27,-0.423 0.253,-0.395C0.236,-0.367 0.227,-0.321 0.227,-0.257L0.227,0L0.078,0L0.078,-0.546L0.192,-0.546L0.212,-0.476L0.22,-0.476C0.235,-0.501 0.256,-0.521 0.284,-0.535C0.311,-0.549 0.343,-0.556 0.379,-0.556C0.461,-0.556 0.516,-0.529 0.545,-0.476L0.558,-0.476C0.573,-0.501 0.594,-0.521 0.623,-0.535C0.651,-0.549 0.683,-0.556 0.719,-0.556C0.781,-0.556 0.828,-0.54 0.86,-0.509C0.891,-0.477 0.907,-0.426 0.907,-0.356L0.907,0L0.758,0L0.758,-0.319C0.758,-0.358 0.751,-0.388 0.738,-0.407C0.725,-0.427 0.704,-0.437 0.676,-0.437C0.639,-0.437 0.612,-0.424 0.594,-0.398C0.576,-0.372 0.567,-0.331 0.567,-0.274L0.567,0Z" style="fill:rgb(47,47,47);fill-rule:nonzero;"/>
                </g>
                <g transform="matrix(16,0,0,16,160.623,44.4741)">
                    <path d="M0.378,0.01C0.314,0.01 0.264,-0.014 0.227,-0.06L0.219,-0.06C0.224,-0.014 0.227,0.012 0.227,0.019L0.227,0.24L0.078,0.24L0.078,-0.546L0.199,-0.546L0.22,-0.475L0.227,-0.475C0.262,-0.529 0.313,-0.556 0.382,-0.556C0.446,-0.556 0.497,-0.531 0.533,-0.481C0.57,-0.432 0.588,-0.362 0.588,-0.274C0.588,-0.216 0.579,-0.165 0.562,-0.122C0.545,-0.079 0.521,-0.046 0.489,-0.024C0.458,-0.001 0.421,0.01 0.378,0.01ZM0.334,-0.437C0.297,-0.437 0.27,-0.426 0.253,-0.403C0.236,-0.38 0.228,-0.343 0.227,-0.291L0.227,-0.275C0.227,-0.216 0.236,-0.174 0.253,-0.149C0.271,-0.124 0.298,-0.111 0.336,-0.111C0.403,-0.111 0.436,-0.166 0.436,-0.276C0.436,-0.33 0.428,-0.37 0.411,-0.397C0.395,-0.424 0.369,-0.437 0.334,-0.437Z" style="fill:rgb(47,47,47);fill-rule:nonzero;"/>
                </g>
                <g transform="matrix(16,0,0,16,170.748,44.4741)">
                    <path d="M0.304,-0.45C0.273,-0.45 0.248,-0.44 0.23,-0.42C0.212,-0.4 0.202,-0.372 0.199,-0.335L0.408,-0.335C0.408,-0.372 0.398,-0.4 0.379,-0.42C0.361,-0.44 0.336,-0.45 0.304,-0.45ZM0.325,0.01C0.237,0.01 0.169,-0.014 0.119,-0.063C0.07,-0.111 0.045,-0.18 0.045,-0.269C0.045,-0.361 0.068,-0.431 0.114,-0.481C0.159,-0.531 0.222,-0.556 0.303,-0.556C0.38,-0.556 0.44,-0.534 0.483,-0.49C0.526,-0.446 0.548,-0.386 0.548,-0.308L0.548,-0.236L0.196,-0.236C0.197,-0.194 0.21,-0.16 0.233,-0.137C0.257,-0.113 0.29,-0.101 0.332,-0.101C0.365,-0.101 0.396,-0.104 0.425,-0.111C0.455,-0.118 0.485,-0.129 0.517,-0.144L0.517,-0.029C0.491,-0.016 0.463,-0.006 0.434,0C0.404,0.007 0.368,0.01 0.325,0.01Z" style="fill:rgb(47,47,47);fill-rule:nonzero;"/>
                </g>
                <g transform="matrix(16,0,0,16,180.201,44.4741)">
                    <path d="M0.383,-0.556C0.403,-0.556 0.42,-0.555 0.433,-0.552L0.422,-0.412C0.41,-0.415 0.395,-0.417 0.378,-0.417C0.33,-0.417 0.293,-0.405 0.267,-0.38C0.24,-0.356 0.227,-0.322 0.227,-0.278L0.227,0L0.078,0L0.078,-0.546L0.191,-0.546L0.213,-0.454L0.22,-0.454C0.237,-0.485 0.26,-0.509 0.289,-0.528C0.318,-0.547 0.349,-0.556 0.383,-0.556Z" style="fill:rgb(47,47,47);fill-rule:nonzero;"/>
                </g>
                <g transform="matrix(16,0,0,16,187.467,44.4741)">
                    <path d="M0.425,0L0.396,-0.074L0.392,-0.074C0.367,-0.043 0.341,-0.021 0.315,-0.009C0.288,0.004 0.254,0.01 0.211,0.01C0.159,0.01 0.117,-0.005 0.087,-0.035C0.057,-0.065 0.042,-0.108 0.042,-0.163C0.042,-0.221 0.062,-0.264 0.103,-0.291C0.143,-0.319 0.204,-0.334 0.286,-0.337L0.381,-0.34L0.381,-0.364C0.381,-0.419 0.353,-0.447 0.296,-0.447C0.252,-0.447 0.201,-0.434 0.142,-0.407L0.093,-0.508C0.156,-0.541 0.225,-0.557 0.302,-0.557C0.375,-0.557 0.431,-0.541 0.47,-0.509C0.509,-0.477 0.529,-0.429 0.529,-0.364L0.529,0L0.425,0ZM0.381,-0.253L0.323,-0.251C0.28,-0.25 0.248,-0.242 0.227,-0.228C0.205,-0.213 0.195,-0.191 0.195,-0.162C0.195,-0.12 0.219,-0.099 0.267,-0.099C0.302,-0.099 0.329,-0.109 0.35,-0.129C0.371,-0.149 0.381,-0.175 0.381,-0.208L0.381,-0.253Z" style="fill:rgb(47,47,47);fill-rule:nonzero;"/>
                </g>
                <g transform="matrix(16,0,0,16,197.131,44.4741)">
                    <path d="M0.308,-0.109C0.334,-0.109 0.365,-0.115 0.402,-0.126L0.402,-0.015C0.365,0.001 0.319,0.01 0.265,0.01C0.206,0.01 0.162,-0.005 0.135,-0.035C0.108,-0.066 0.094,-0.111 0.094,-0.171L0.094,-0.434L0.023,-0.434L0.023,-0.497L0.105,-0.547L0.148,-0.662L0.243,-0.662L0.243,-0.546L0.396,-0.546L0.396,-0.434L0.243,-0.434L0.243,-0.171C0.243,-0.15 0.249,-0.134 0.261,-0.124C0.273,-0.114 0.289,-0.109 0.308,-0.109Z" style="fill:rgb(47,47,47);fill-rule:nonzero;"/>
                </g>
                <g transform="matrix(16,0,0,16,204.076,44.4741)">
                    <path d="M0.465,0L0.445,-0.07L0.437,-0.07C0.421,-0.044 0.398,-0.025 0.369,-0.011C0.34,0.003 0.306,0.01 0.269,0.01C0.205,0.01 0.157,-0.007 0.124,-0.042C0.091,-0.076 0.075,-0.125 0.075,-0.19L0.075,-0.546L0.224,-0.546L0.224,-0.227C0.224,-0.188 0.231,-0.158 0.245,-0.138C0.259,-0.119 0.281,-0.109 0.312,-0.109C0.354,-0.109 0.384,-0.123 0.402,-0.151C0.421,-0.178 0.43,-0.225 0.43,-0.289L0.43,-0.546L0.579,-0.546L0.579,0L0.465,0Z" style="fill:rgb(47,47,47);fill-rule:nonzero;"/>
                </g>
                <g transform="matrix(16,0,0,16,214.592,44.4741)">
                    <path d="M0.383,-0.556C0.403,-0.556 0.42,-0.555 0.433,-0.552L0.422,-0.412C0.41,-0.415 0.395,-0.417 0.378,-0.417C0.33,-0.417 0.293,-0.405 0.267,-0.38C0.24,-0.356 0.227,-0.322 0.227,-0.278L0.227,0L0.078,0L0.078,-0.546L0.191,-0.546L0.213,-0.454L0.22,-0.454C0.237,-0.485 0.26,-0.509 0.289,-0.528C0.318,-0.547 0.349,-0.556 0.383,-0.556Z" style="fill:rgb(47,47,47);fill-rule:nonzero;"/>
                </g>
                <g transform="matrix(16,0,0,16,221.858,44.4741)">
                    <path d="M0.304,-0.45C0.273,-0.45 0.248,-0.44 0.23,-0.42C0.212,-0.4 0.202,-0.372 0.199,-0.335L0.408,-0.335C0.408,-0.372 0.398,-0.4 0.379,-0.42C0.361,-0.44 0.336,-0.45 0.304,-0.45ZM0.325,0.01C0.237,0.01 0.169,-0.014 0.119,-0.063C0.07,-0.111 0.045,-0.18 0.045,-0.269C0.045,-0.361 0.068,-0.431 0.114,-0.481C0.159,-0.531 0.222,-0.556 0.303,-0.556C0.38,-0.556 0.44,-0.534 0.483,-0.49C0.526,-0.446 0.548,-0.386 0.548,-0.308L0.548,-0.236L0.196,-0.236C0.197,-0.194 0.21,-0.16 0.233,-0.137C0.257,-0.113 0.29,-0.101 0.332,-0.101C0.365,-0.101 0.396,-0.104 0.425,-0.111C0.455,-0.118 0.485,-0.129 0.517,-0.144L0.517,-0.029C0.491,-0.016 0.463,-0.006 0.434,0C0.404,0.007 0.368,0.01 0.325,0.01Z" style="fill:rgb(47,47,47);fill-rule:nonzero;"/>
                </g>
                <g transform="matrix(16,0,0,16,235.467,44.4741)">
                    <path d="M0.413,0L0.262,0L0.262,-0.413L0.264,-0.481L0.266,-0.555C0.241,-0.53 0.224,-0.514 0.214,-0.506L0.132,-0.44L0.059,-0.531L0.289,-0.714L0.413,-0.714L0.413,0Z" style="fill:rgb(47,47,47);fill-rule:nonzero;"/>
                </g>
            </g>
            <g transform="matrix(1,0,0,1,98.1584,36.8753)">
                <g transform="matrix(16,0,0,16,145.128,238.171)">
                    <path d="M0.511,-0.554C0.511,-0.51 0.498,-0.472 0.471,-0.44C0.444,-0.409 0.406,-0.388 0.357,-0.376L0.357,-0.373C0.415,-0.366 0.458,-0.348 0.488,-0.321C0.517,-0.293 0.532,-0.255 0.532,-0.208C0.532,-0.139 0.507,-0.086 0.458,-0.048C0.408,-0.009 0.337,0.01 0.244,0.01C0.167,0.01 0.098,-0.003 0.038,-0.029L0.038,-0.157C0.066,-0.143 0.096,-0.132 0.129,-0.123C0.163,-0.114 0.195,-0.11 0.228,-0.11C0.278,-0.11 0.315,-0.118 0.338,-0.135C0.362,-0.152 0.374,-0.179 0.374,-0.217C0.374,-0.25 0.36,-0.274 0.333,-0.288C0.306,-0.302 0.262,-0.309 0.202,-0.309L0.148,-0.309L0.148,-0.425L0.203,-0.425C0.258,-0.425 0.299,-0.432 0.324,-0.447C0.35,-0.461 0.363,-0.486 0.363,-0.521C0.363,-0.575 0.329,-0.602 0.261,-0.602C0.238,-0.602 0.214,-0.598 0.19,-0.59C0.165,-0.583 0.139,-0.569 0.109,-0.55L0.039,-0.654C0.104,-0.701 0.182,-0.724 0.272,-0.724C0.346,-0.724 0.404,-0.709 0.447,-0.679C0.49,-0.649 0.511,-0.608 0.511,-0.554Z" style="fill:rgb(239,83,80);fill-rule:nonzero;"/>
                </g>
                <g transform="matrix(16,0,0,16,154.26,238.171)">
                    <path d="M0.3,-0.456C0.369,-0.456 0.424,-0.437 0.465,-0.398C0.505,-0.359 0.526,-0.306 0.526,-0.239C0.526,-0.159 0.501,-0.098 0.452,-0.055C0.403,-0.012 0.333,0.01 0.241,0.01C0.162,0.01 0.098,-0.003 0.049,-0.029L0.049,-0.159C0.075,-0.146 0.104,-0.134 0.139,-0.126C0.173,-0.117 0.205,-0.113 0.236,-0.113C0.328,-0.113 0.374,-0.151 0.374,-0.226C0.374,-0.298 0.326,-0.334 0.231,-0.334C0.214,-0.334 0.195,-0.332 0.174,-0.329C0.153,-0.325 0.136,-0.322 0.123,-0.318L0.063,-0.35L0.09,-0.714L0.477,-0.714L0.477,-0.586L0.222,-0.586L0.209,-0.446L0.226,-0.449C0.246,-0.454 0.271,-0.456 0.3,-0.456Z" style="fill:rgb(239,83,80);fill-rule:nonzero;"/>
                </g>
                <g transform="matrix(16,0,0,16,163.393,238.171)">
                    <path d="M0.057,-0.07C0.057,-0.097 0.064,-0.118 0.079,-0.132C0.094,-0.146 0.115,-0.153 0.143,-0.153C0.17,-0.153 0.191,-0.146 0.206,-0.131C0.221,-0.117 0.228,-0.097 0.228,-0.07C0.228,-0.044 0.221,-0.024 0.206,-0.009C0.191,0.006 0.17,0.013 0.143,0.013C0.116,0.013 0.095,0.006 0.08,-0.009C0.065,-0.023 0.057,-0.043 0.057,-0.07Z" style="fill:rgb(239,83,80);fill-rule:nonzero;"/>
                </g>
                <g transform="matrix(16,0,0,16,167.956,238.171)">
                    <path d="M0.536,-0.409C0.536,-0.269 0.507,-0.164 0.447,-0.094C0.388,-0.025 0.298,0.01 0.178,0.01C0.136,0.01 0.104,0.007 0.082,0.003L0.082,-0.118C0.109,-0.111 0.138,-0.108 0.168,-0.108C0.218,-0.108 0.26,-0.115 0.292,-0.13C0.325,-0.145 0.35,-0.168 0.367,-0.2C0.384,-0.232 0.394,-0.275 0.397,-0.331L0.391,-0.331C0.372,-0.3 0.35,-0.279 0.326,-0.267C0.301,-0.254 0.27,-0.248 0.233,-0.248C0.171,-0.248 0.122,-0.268 0.086,-0.308C0.05,-0.348 0.032,-0.403 0.032,-0.474C0.032,-0.551 0.054,-0.611 0.097,-0.656C0.141,-0.7 0.2,-0.722 0.275,-0.722C0.328,-0.722 0.374,-0.71 0.413,-0.685C0.453,-0.66 0.483,-0.624 0.504,-0.577C0.526,-0.53 0.536,-0.474 0.536,-0.409ZM0.278,-0.601C0.247,-0.601 0.222,-0.59 0.205,-0.569C0.187,-0.547 0.178,-0.516 0.178,-0.476C0.178,-0.442 0.186,-0.414 0.202,-0.394C0.218,-0.374 0.242,-0.364 0.275,-0.364C0.306,-0.364 0.332,-0.374 0.354,-0.394C0.375,-0.414 0.386,-0.437 0.386,-0.463C0.386,-0.502 0.376,-0.534 0.356,-0.561C0.335,-0.588 0.309,-0.601 0.278,-0.601Z" style="fill:rgb(239,83,80);fill-rule:nonzero;"/>
                </g>
                <g transform="matrix(16,0,0,16,177.088,238.171)">
                    <path d="M0.045,-0.555C0.045,-0.585 0.052,-0.613 0.067,-0.639C0.082,-0.665 0.103,-0.686 0.129,-0.701C0.155,-0.716 0.183,-0.724 0.214,-0.724C0.244,-0.724 0.272,-0.717 0.298,-0.702C0.324,-0.687 0.345,-0.666 0.36,-0.64C0.375,-0.613 0.383,-0.585 0.383,-0.555C0.383,-0.525 0.375,-0.497 0.36,-0.47C0.345,-0.444 0.324,-0.424 0.298,-0.409C0.272,-0.395 0.244,-0.387 0.214,-0.387C0.167,-0.387 0.127,-0.403 0.094,-0.436C0.061,-0.468 0.045,-0.508 0.045,-0.555ZM0.138,-0.555C0.138,-0.534 0.145,-0.517 0.16,-0.502C0.174,-0.487 0.192,-0.48 0.214,-0.48C0.235,-0.48 0.253,-0.487 0.268,-0.502C0.283,-0.517 0.29,-0.535 0.29,-0.555C0.29,-0.576 0.283,-0.594 0.268,-0.609C0.253,-0.624 0.235,-0.632 0.214,-0.632C0.193,-0.632 0.175,-0.624 0.16,-0.609C0.146,-0.594 0.138,-0.576 0.138,-0.555Z" style="fill:rgb(239,83,80);fill-rule:nonzero;"/>
                </g>
                <g transform="matrix(16,0,0,16,183.94,238.171)">
                    <path d="M0.393,-0.598C0.336,-0.598 0.292,-0.577 0.261,-0.534C0.229,-0.491 0.214,-0.431 0.214,-0.355C0.214,-0.196 0.274,-0.116 0.393,-0.116C0.443,-0.116 0.504,-0.129 0.575,-0.154L0.575,-0.027C0.517,-0.002 0.451,0.01 0.379,0.01C0.275,0.01 0.196,-0.022 0.141,-0.085C0.086,-0.148 0.058,-0.238 0.058,-0.356C0.058,-0.43 0.072,-0.495 0.099,-0.551C0.126,-0.607 0.164,-0.65 0.215,-0.679C0.266,-0.709 0.325,-0.724 0.393,-0.724C0.462,-0.724 0.532,-0.707 0.602,-0.674L0.553,-0.551C0.527,-0.563 0.5,-0.575 0.473,-0.584C0.446,-0.593 0.419,-0.598 0.393,-0.598Z" style="fill:rgb(239,83,80);fill-rule:nonzero;"/>
                </g>
            </g>
            <g transform="matrix(1,0,0,1,86.7608,31.152)">
                <path d="M124.787,78.59L237.318,78.59" style="fill:none;stroke:rgb(216,216,216);stroke-width:1px;"/>
            </g>
            <g transform="matrix(1,0,0,1,86.7608,53.2555)">
                <path d="M124.787,78.59L237.318,78.59" style="fill:none;stroke:rgb(216,216,216);stroke-width:1px;"/>
            </g>
            <g transform="matrix(1,0,0,1,86.7608,63.6882)">
                <path d="M124.787,78.59L237.318,78.59" style="fill:none;stroke:rgb(255,0,0);stroke-width:1px;"/>
            </g>
            <g transform="matrix(1,0,0,1,86.7608,75.2249)">
                <path d="M124.787,78.59L237.318,78.59" style="fill:none;stroke:rgb(216,216,216);stroke-width:1px;"/>
            </g>
            <g transform="matrix(1,0,0,1,86.7608,97.3149)">
                <path d="M124.787,78.59L237.318,78.59" style="fill:none;stroke:rgb(216,216,216);stroke-width:1px;"/>
            </g>
            <g transform="matrix(1,0,0,1,86.7608,118.327)">
                <path d="M124.787,78.59L237.318,78.59" style="fill:none;stroke:rgb(216,216,216);stroke-width:1px;"/>
            </g>
            <g transform="matrix(1,0,0,1,86.7608,129.859)">
                <path d="M124.787,78.59L237.318,78.59" style="fill:none;stroke:rgb(0,0,255);stroke-width:1px;"/>
            </g>
            <g transform="matrix(1,0,0,1,86.7608,140.367)">
                <path d="M124.787,78.59L237.318,78.59" style="fill:none;stroke:rgb(216,216,216);stroke-width:1px;"/>
            </g>
            <g transform="matrix(1,0,0,1,86.7608,162.368)">
                <path d="M124.787,78.59L237.318,78.59L237.318,88.784" style="fill:none;stroke:rgb(192,208,224);stroke-width:1px;"/>
            </g>
            <g transform="matrix(1,0,0,1,86.7608,31.152)">
                <path d="M124.787,209.807L124.787,220" style="fill:none;stroke:rgb(192,208,224);stroke-width:1px;"/>
            </g>
            <g transform="matrix(1,0,0,1,94.1158,37.8873)">
                <g transform="matrix(12,0,0,12,97.7894,71.7378)">
                    <path d="M0.272,-0.436C0.347,-0.436 0.406,-0.417 0.449,-0.38C0.493,-0.343 0.514,-0.292 0.514,-0.227C0.514,-0.153 0.491,-0.095 0.444,-0.053C0.397,-0.011 0.332,0.01 0.249,0.01C0.169,0.01 0.107,-0.003 0.065,-0.029L0.065,-0.107C0.088,-0.092 0.116,-0.081 0.15,-0.073C0.184,-0.064 0.217,-0.06 0.25,-0.06C0.307,-0.06 0.352,-0.074 0.384,-0.101C0.415,-0.128 0.431,-0.167 0.431,-0.218C0.431,-0.317 0.37,-0.367 0.248,-0.367C0.217,-0.367 0.176,-0.362 0.124,-0.353L0.082,-0.38L0.109,-0.714L0.464,-0.714L0.464,-0.639L0.178,-0.639L0.16,-0.425C0.198,-0.432 0.235,-0.436 0.272,-0.436Z" style="fill:rgb(34,34,34);fill-rule:nonzero;"/>
                </g>
                <g transform="matrix(12,0,0,12,104.651,71.7378)">
                    <path d="M0.522,-0.358C0.522,-0.235 0.503,-0.142 0.464,-0.082C0.425,-0.021 0.365,0.01 0.285,0.01C0.208,0.01 0.15,-0.021 0.11,-0.084C0.07,-0.146 0.05,-0.237 0.05,-0.358C0.05,-0.482 0.069,-0.575 0.108,-0.635C0.147,-0.695 0.206,-0.725 0.285,-0.725C0.363,-0.725 0.421,-0.694 0.462,-0.631C0.502,-0.568 0.522,-0.477 0.522,-0.358ZM0.132,-0.358C0.132,-0.254 0.144,-0.178 0.168,-0.131C0.193,-0.084 0.232,-0.06 0.285,-0.06C0.339,-0.06 0.378,-0.084 0.403,-0.132C0.427,-0.18 0.439,-0.255 0.439,-0.358C0.439,-0.46 0.427,-0.536 0.403,-0.583C0.378,-0.631 0.339,-0.655 0.285,-0.655C0.232,-0.655 0.193,-0.631 0.168,-0.584C0.144,-0.537 0.132,-0.462 0.132,-0.358Z" style="fill:rgb(34,34,34);fill-rule:nonzero;"/>
                </g>
            </g>
            <g transform="matrix(1,0,0,1,94.1158,60.108)">
                <g transform="matrix(12,0,0,12,97.7894,71.7378)">
                    <path d="M0.552,-0.164L0.446,-0.164L0.446,0L0.368,0L0.368,-0.164L0.021,-0.164L0.021,-0.235L0.36,-0.718L0.446,-0.718L0.446,-0.238L0.552,-0.238L0.552,-0.164ZM0.368,-0.238L0.368,-0.475C0.368,-0.522 0.37,-0.574 0.373,-0.633L0.369,-0.633C0.354,-0.602 0.339,-0.576 0.325,-0.555L0.102,-0.238L0.368,-0.238Z" style="fill:rgb(34,34,34);fill-rule:nonzero;"/>
                </g>
                <g transform="matrix(12,0,0,12,104.651,71.7378)">
                    <path d="M0.522,-0.358C0.522,-0.235 0.503,-0.142 0.464,-0.082C0.425,-0.021 0.365,0.01 0.285,0.01C0.208,0.01 0.15,-0.021 0.11,-0.084C0.07,-0.146 0.05,-0.237 0.05,-0.358C0.05,-0.482 0.069,-0.575 0.108,-0.635C0.147,-0.695 0.206,-0.725 0.285,-0.725C0.363,-0.725 0.421,-0.694 0.462,-0.631C0.502,-0.568 0.522,-0.477 0.522,-0.358ZM0.132,-0.358C0.132,-0.254 0.144,-0.178 0.168,-0.131C0.193,-0.084 0.232,-0.06 0.285,-0.06C0.339,-0.06 0.378,-0.084 0.403,-0.132C0.427,-0.18 0.439,-0.255 0.439,-0.358C0.439,-0.46 0.427,-0.536 0.403,-0.583C0.378,-0.631 0.339,-0.655 0.285,-0.655C0.232,-0.655 0.193,-0.631 0.168,-0.584C0.144,-0.537 0.132,-0.462 0.132,-0.358Z" style="fill:rgb(34,34,34);fill-rule:nonzero;"/>
                </g>
            </g>
            <g transform="matrix(1,0,0,1,94.1158,81.9601)">
                <g transform="matrix(12,0,0,12,97.7894,71.7378)">
                    <path d="M0.491,-0.546C0.491,-0.5 0.478,-0.463 0.453,-0.434C0.427,-0.405 0.391,-0.386 0.344,-0.376L0.344,-0.372C0.402,-0.365 0.444,-0.347 0.472,-0.317C0.499,-0.288 0.513,-0.25 0.513,-0.202C0.513,-0.134 0.49,-0.082 0.442,-0.045C0.395,-0.009 0.328,0.01 0.241,0.01C0.203,0.01 0.169,0.007 0.137,0.001C0.106,-0.004 0.076,-0.014 0.046,-0.029L0.046,-0.106C0.077,-0.091 0.11,-0.079 0.145,-0.071C0.18,-0.063 0.213,-0.059 0.244,-0.059C0.368,-0.059 0.429,-0.107 0.429,-0.204C0.429,-0.291 0.361,-0.334 0.225,-0.334L0.155,-0.334L0.155,-0.404L0.226,-0.404C0.282,-0.404 0.326,-0.416 0.358,-0.441C0.391,-0.465 0.407,-0.499 0.407,-0.543C0.407,-0.578 0.395,-0.605 0.371,-0.625C0.347,-0.645 0.315,-0.655 0.274,-0.655C0.243,-0.655 0.213,-0.651 0.186,-0.642C0.158,-0.634 0.126,-0.618 0.091,-0.595L0.05,-0.65C0.079,-0.673 0.113,-0.691 0.151,-0.704C0.189,-0.718 0.23,-0.724 0.272,-0.724C0.341,-0.724 0.395,-0.708 0.434,-0.677C0.472,-0.645 0.491,-0.601 0.491,-0.546Z" style="fill:rgb(34,34,34);fill-rule:nonzero;"/>
                </g>
                <g transform="matrix(12,0,0,12,104.651,71.7378)">
                    <path d="M0.522,-0.358C0.522,-0.235 0.503,-0.142 0.464,-0.082C0.425,-0.021 0.365,0.01 0.285,0.01C0.208,0.01 0.15,-0.021 0.11,-0.084C0.07,-0.146 0.05,-0.237 0.05,-0.358C0.05,-0.482 0.069,-0.575 0.108,-0.635C0.147,-0.695 0.206,-0.725 0.285,-0.725C0.363,-0.725 0.421,-0.694 0.462,-0.631C0.502,-0.568 0.522,-0.477 0.522,-0.358ZM0.132,-0.358C0.132,-0.254 0.144,-0.178 0.168,-0.131C0.193,-0.084 0.232,-0.06 0.285,-0.06C0.339,-0.06 0.378,-0.084 0.403,-0.132C0.427,-0.18 0.439,-0.255 0.439,-0.358C0.439,-0.46 0.427,-0.536 0.403,-0.583C0.378,-0.631 0.339,-0.655 0.285,-0.655C0.232,-0.655 0.193,-0.631 0.168,-0.584C0.144,-0.537 0.132,-0.462 0.132,-0.358Z" style="fill:rgb(34,34,34);fill-rule:nonzero;"/>
                </g>
            </g>
            <g transform="matrix(1,0,0,1,94.1158,104.05)">
                <g transform="matrix(12,0,0,12,97.7894,71.7378)">
                    <path d="M0.518,0L0.049,0L0.049,-0.07L0.237,-0.259C0.294,-0.317 0.332,-0.358 0.35,-0.383C0.368,-0.408 0.382,-0.432 0.391,-0.455C0.4,-0.479 0.405,-0.504 0.405,-0.531C0.405,-0.569 0.393,-0.599 0.37,-0.621C0.347,-0.644 0.315,-0.655 0.274,-0.655C0.244,-0.655 0.216,-0.65 0.19,-0.64C0.163,-0.63 0.134,-0.613 0.101,-0.587L0.058,-0.642C0.124,-0.697 0.195,-0.724 0.273,-0.724C0.34,-0.724 0.393,-0.707 0.431,-0.673C0.469,-0.638 0.488,-0.592 0.488,-0.534C0.488,-0.489 0.475,-0.444 0.45,-0.4C0.424,-0.356 0.377,-0.3 0.307,-0.232L0.151,-0.079L0.151,-0.075L0.518,-0.075L0.518,0Z" style="fill:rgb(34,34,34);fill-rule:nonzero;"/>
                </g>
                <g transform="matrix(12,0,0,12,104.651,71.7378)">
                    <path d="M0.522,-0.358C0.522,-0.235 0.503,-0.142 0.464,-0.082C0.425,-0.021 0.365,0.01 0.285,0.01C0.208,0.01 0.15,-0.021 0.11,-0.084C0.07,-0.146 0.05,-0.237 0.05,-0.358C0.05,-0.482 0.069,-0.575 0.108,-0.635C0.147,-0.695 0.206,-0.725 0.285,-0.725C0.363,-0.725 0.421,-0.694 0.462,-0.631C0.502,-0.568 0.522,-0.477 0.522,-0.358ZM0.132,-0.358C0.132,-0.254 0.144,-0.178 0.168,-0.131C0.193,-0.084 0.232,-0.06 0.285,-0.06C0.339,-0.06 0.378,-0.084 0.403,-0.132C0.427,-0.18 0.439,-0.255 0.439,-0.358C0.439,-0.46 0.427,-0.536 0.403,-0.583C0.378,-0.631 0.339,-0.655 0.285,-0.655C0.232,-0.655 0.193,-0.631 0.168,-0.584C0.144,-0.537 0.132,-0.462 0.132,-0.358Z" style="fill:rgb(34,34,34);fill-rule:nonzero;"/>
                </g>
            </g>
            <g transform="matrix(1,0,0,1,94.1158,125.062)">
                <g transform="matrix(12,0,0,12,97.7894,71.7378)">
                    <path d="M0.349,0L0.27,0L0.27,-0.509C0.27,-0.551 0.271,-0.591 0.274,-0.629C0.267,-0.622 0.259,-0.615 0.251,-0.607C0.243,-0.6 0.204,-0.568 0.135,-0.512L0.092,-0.568L0.281,-0.714L0.349,-0.714L0.349,0Z" style="fill:rgb(34,34,34);fill-rule:nonzero;"/>
                </g>
                <g transform="matrix(12,0,0,12,104.651,71.7378)">
                    <path d="M0.522,-0.358C0.522,-0.235 0.503,-0.142 0.464,-0.082C0.425,-0.021 0.365,0.01 0.285,0.01C0.208,0.01 0.15,-0.021 0.11,-0.084C0.07,-0.146 0.05,-0.237 0.05,-0.358C0.05,-0.482 0.069,-0.575 0.108,-0.635C0.147,-0.695 0.206,-0.725 0.285,-0.725C0.363,-0.725 0.421,-0.694 0.462,-0.631C0.502,-0.568 0.522,-0.477 0.522,-0.358ZM0.132,-0.358C0.132,-0.254 0.144,-0.178 0.168,-0.131C0.193,-0.084 0.232,-0.06 0.285,-0.06C0.339,-0.06 0.378,-0.084 0.403,-0.132C0.427,-0.18 0.439,-0.255 0.439,-0.358C0.439,-0.46 0.427,-0.536 0.403,-0.583C0.378,-0.631 0.339,-0.655 0.285,-0.655C0.232,-0.655 0.193,-0.631 0.168,-0.584C0.144,-0.537 0.132,-0.462 0.132,-0.358Z" style="fill:rgb(34,34,34);fill-rule:nonzero;"/>
                </g>
            </g>
            <g transform="matrix(1,0,0,1,94.7427,147.103)">
                <g transform="matrix(12,0,0,12,104.024,71.7378)">
                    <path d="M0.522,-0.358C0.522,-0.235 0.503,-0.142 0.464,-0.082C0.425,-0.021 0.365,0.01 0.285,0.01C0.208,0.01 0.15,-0.021 0.11,-0.084C0.07,-0.146 0.05,-0.237 0.05,-0.358C0.05,-0.482 0.069,-0.575 0.108,-0.635C0.147,-0.695 0.206,-0.725 0.285,-0.725C0.363,-0.725 0.421,-0.694 0.462,-0.631C0.502,-0.568 0.522,-0.477 0.522,-0.358ZM0.132,-0.358C0.132,-0.254 0.144,-0.178 0.168,-0.131C0.193,-0.084 0.232,-0.06 0.285,-0.06C0.339,-0.06 0.378,-0.084 0.403,-0.132C0.427,-0.18 0.439,-0.255 0.439,-0.358C0.439,-0.46 0.427,-0.536 0.403,-0.583C0.378,-0.631 0.339,-0.655 0.285,-0.655C0.232,-0.655 0.193,-0.631 0.168,-0.584C0.144,-0.537 0.132,-0.462 0.132,-0.358Z" style="fill:rgb(34,34,34);fill-rule:nonzero;"/>
                </g>
            </g>
            <g transform="matrix(1,0,0,1,90.2545,169.104)">
                <g transform="matrix(12,0,0,12,97.7894,71.7378)">
                    <rect x="0.041" y="-0.305" width="0.24" height="0.074" style="fill:rgb(34,34,34);fill-rule:nonzero;"/>
                </g>
                <g transform="matrix(12,0,0,12,101.651,71.7378)">
                    <path d="M0.349,0L0.27,0L0.27,-0.509C0.27,-0.551 0.271,-0.591 0.274,-0.629C0.267,-0.622 0.259,-0.615 0.251,-0.607C0.243,-0.6 0.204,-0.568 0.135,-0.512L0.092,-0.568L0.281,-0.714L0.349,-0.714L0.349,0Z" style="fill:rgb(34,34,34);fill-rule:nonzero;"/>
                </g>
                <g transform="matrix(12,0,0,12,108.512,71.7378)">
                    <path d="M0.522,-0.358C0.522,-0.235 0.503,-0.142 0.464,-0.082C0.425,-0.021 0.365,0.01 0.285,0.01C0.208,0.01 0.15,-0.021 0.11,-0.084C0.07,-0.146 0.05,-0.237 0.05,-0.358C0.05,-0.482 0.069,-0.575 0.108,-0.635C0.147,-0.695 0.206,-0.725 0.285,-0.725C0.363,-0.725 0.421,-0.694 0.462,-0.631C0.502,-0.568 0.522,-0.477 0.522,-0.358ZM0.132,-0.358C0.132,-0.254 0.144,-0.178 0.168,-0.131C0.193,-0.084 0.232,-0.06 0.285,-0.06C0.339,-0.06 0.378,-0.084 0.403,-0.132C0.427,-0.18 0.439,-0.255 0.439,-0.358C0.439,-0.46 0.427,-0.536 0.403,-0.583C0.378,-0.631 0.339,-0.655 0.285,-0.655C0.232,-0.655 0.193,-0.631 0.168,-0.584C0.144,-0.537 0.132,-0.462 0.132,-0.358Z" style="fill:rgb(34,34,34);fill-rule:nonzero;"/>
                </g>
            </g>
            <g transform="matrix(1,0,0,1.2802,86.7608,-21.4705)">
                <rect x="165.845" y="126.347" width="31.512" height="61.459" style="fill:rgb(239,83,80);"/>
            </g>
        </g>
    </g>
</svg>
