<?xml version="1.0" encoding="UTF-8" standalone="no"?>
<!DOCTYPE svg PUBLIC "-//W3C//DTD SVG 1.1//EN" "http://www.w3.org/Graphics/SVG/1.1/DTD/svg11.dtd">
<svg width="100%" height="100%" viewBox="0 0 400 400" version="1.1" xmlns="http://www.w3.org/2000/svg" xmlns:xlink="http://www.w3.org/1999/xlink" xml:space="preserve" xmlns:serif="http://www.serif.com/" style="fill-rule:evenodd;clip-rule:evenodd;stroke-linejoin:round;stroke-miterlimit:1.5;">
    <rect x="0" y="0" width="400" height="400" style="fill:white;"/>
    <g transform="matrix(1,0,0,1,0,-49.1858)">
        <circle cx="201.696" cy="256" r="144" style="fill:rgb(235,235,235);"/>
    </g>
    <g>
        <g transform="matrix(0.65559,0,0,0.65559,-15.0654,-77.7942)">
            <g transform="matrix(20,0,0,20,231.059,262.578)">
                <path d="M0.656,0L0.561,0L0.171,-0.599L0.167,-0.599C0.172,-0.529 0.175,-0.464 0.175,-0.406L0.175,0L0.098,0L0.098,-0.714L0.192,-0.714L0.581,-0.117L0.585,-0.117C0.584,-0.126 0.583,-0.154 0.581,-0.202C0.578,-0.25 0.577,-0.284 0.578,-0.304L0.578,-0.714L0.656,-0.714L0.656,0Z" style="fill:rgb(61,61,61);fill-rule:nonzero;"/>
            </g>
            <g transform="matrix(20,0,0,20,246.137,262.578)">
                <path d="M0.415,0L0.399,-0.076L0.395,-0.076C0.368,-0.043 0.342,-0.02 0.315,-0.008C0.289,0.004 0.256,0.01 0.216,0.01C0.163,0.01 0.121,-0.004 0.091,-0.031C0.061,-0.059 0.046,-0.097 0.046,-0.148C0.046,-0.256 0.132,-0.313 0.305,-0.318L0.396,-0.321L0.396,-0.354C0.396,-0.396 0.387,-0.427 0.369,-0.447C0.351,-0.467 0.322,-0.477 0.282,-0.477C0.238,-0.477 0.187,-0.463 0.131,-0.436L0.106,-0.498C0.132,-0.512 0.161,-0.524 0.193,-0.532C0.224,-0.54 0.256,-0.544 0.287,-0.544C0.351,-0.544 0.398,-0.53 0.429,-0.501C0.46,-0.473 0.475,-0.428 0.475,-0.365L0.475,0L0.415,0ZM0.232,-0.057C0.282,-0.057 0.322,-0.071 0.351,-0.099C0.38,-0.126 0.394,-0.165 0.394,-0.215L0.394,-0.263L0.313,-0.26C0.249,-0.257 0.202,-0.247 0.174,-0.23C0.145,-0.212 0.131,-0.184 0.131,-0.147C0.131,-0.118 0.14,-0.095 0.157,-0.08C0.175,-0.065 0.2,-0.057 0.232,-0.057Z" style="fill:rgb(61,61,61);fill-rule:nonzero;"/>
            </g>
            <g transform="matrix(20,0,0,20,257.26,262.578)">
                <path d="M0.768,0L0.768,-0.348C0.768,-0.391 0.759,-0.423 0.741,-0.444C0.722,-0.465 0.694,-0.476 0.656,-0.476C0.605,-0.476 0.568,-0.462 0.544,-0.433C0.52,-0.404 0.508,-0.359 0.508,-0.299L0.508,0L0.427,0L0.427,-0.348C0.427,-0.391 0.418,-0.423 0.399,-0.444C0.381,-0.465 0.353,-0.476 0.314,-0.476C0.263,-0.476 0.226,-0.461 0.202,-0.43C0.179,-0.4 0.167,-0.35 0.167,-0.281L0.167,0L0.086,0L0.086,-0.535L0.152,-0.535L0.165,-0.462L0.169,-0.462C0.184,-0.488 0.206,-0.508 0.234,-0.523C0.261,-0.538 0.293,-0.545 0.327,-0.545C0.411,-0.545 0.465,-0.515 0.491,-0.454L0.495,-0.454C0.511,-0.482 0.534,-0.504 0.564,-0.521C0.595,-0.537 0.629,-0.545 0.668,-0.545C0.729,-0.545 0.774,-0.529 0.804,-0.498C0.834,-0.467 0.849,-0.417 0.849,-0.349L0.849,0L0.768,0Z" style="fill:rgb(61,61,61);fill-rule:nonzero;"/>
            </g>
            <g transform="matrix(20,0,0,20,275.863,262.578)">
                <path d="M0.312,0.01C0.233,0.01 0.17,-0.014 0.125,-0.063C0.079,-0.111 0.056,-0.178 0.056,-0.263C0.056,-0.349 0.077,-0.418 0.12,-0.469C0.162,-0.52 0.219,-0.545 0.291,-0.545C0.358,-0.545 0.411,-0.523 0.45,-0.479C0.489,-0.435 0.509,-0.376 0.509,-0.304L0.509,-0.253L0.14,-0.253C0.142,-0.19 0.158,-0.142 0.188,-0.11C0.218,-0.077 0.26,-0.061 0.315,-0.061C0.373,-0.061 0.43,-0.073 0.486,-0.097L0.486,-0.025C0.457,-0.013 0.43,-0.004 0.405,0.002C0.379,0.007 0.348,0.01 0.312,0.01ZM0.29,-0.477C0.247,-0.477 0.213,-0.463 0.187,-0.435C0.162,-0.407 0.147,-0.368 0.142,-0.319L0.422,-0.319C0.422,-0.37 0.41,-0.409 0.388,-0.436C0.365,-0.463 0.332,-0.477 0.29,-0.477Z" style="fill:rgb(61,61,61);fill-rule:nonzero;"/>
            </g>
        </g>
        <g transform="matrix(0.65559,0,0,0.65559,-15.0654,-12.5254)">
            <g transform="matrix(20,0,0,20,231.059,262.578)">
                <path d="M0.496,0L0.098,0L0.098,-0.714L0.496,-0.714L0.496,-0.64L0.181,-0.64L0.181,-0.41L0.477,-0.41L0.477,-0.337L0.181,-0.337L0.181,-0.074L0.496,-0.074L0.496,0Z" style="fill:rgb(61,61,61);fill-rule:nonzero;"/>
            </g>
            <g transform="matrix(20,0,0,20,242.182,262.578)">
                <path d="M0.768,0L0.768,-0.348C0.768,-0.391 0.759,-0.423 0.741,-0.444C0.722,-0.465 0.694,-0.476 0.656,-0.476C0.605,-0.476 0.568,-0.462 0.544,-0.433C0.52,-0.404 0.508,-0.359 0.508,-0.299L0.508,0L0.427,0L0.427,-0.348C0.427,-0.391 0.418,-0.423 0.399,-0.444C0.381,-0.465 0.353,-0.476 0.314,-0.476C0.263,-0.476 0.226,-0.461 0.202,-0.43C0.179,-0.4 0.167,-0.35 0.167,-0.281L0.167,0L0.086,0L0.086,-0.535L0.152,-0.535L0.165,-0.462L0.169,-0.462C0.184,-0.488 0.206,-0.508 0.234,-0.523C0.261,-0.538 0.293,-0.545 0.327,-0.545C0.411,-0.545 0.465,-0.515 0.491,-0.454L0.495,-0.454C0.511,-0.482 0.534,-0.504 0.564,-0.521C0.595,-0.537 0.629,-0.545 0.668,-0.545C0.729,-0.545 0.774,-0.529 0.804,-0.498C0.834,-0.467 0.849,-0.417 0.849,-0.349L0.849,0L0.768,0Z" style="fill:rgb(61,61,61);fill-rule:nonzero;"/>
            </g>
            <g transform="matrix(20,0,0,20,260.785,262.578)">
                <path d="M0.415,0L0.399,-0.076L0.395,-0.076C0.368,-0.043 0.342,-0.02 0.315,-0.008C0.289,0.004 0.256,0.01 0.216,0.01C0.163,0.01 0.121,-0.004 0.091,-0.031C0.061,-0.059 0.046,-0.097 0.046,-0.148C0.046,-0.256 0.132,-0.313 0.305,-0.318L0.396,-0.321L0.396,-0.354C0.396,-0.396 0.387,-0.427 0.369,-0.447C0.351,-0.467 0.322,-0.477 0.282,-0.477C0.238,-0.477 0.187,-0.463 0.131,-0.436L0.106,-0.498C0.132,-0.512 0.161,-0.524 0.193,-0.532C0.224,-0.54 0.256,-0.544 0.287,-0.544C0.351,-0.544 0.398,-0.53 0.429,-0.501C0.46,-0.473 0.475,-0.428 0.475,-0.365L0.475,0L0.415,0ZM0.232,-0.057C0.282,-0.057 0.322,-0.071 0.351,-0.099C0.38,-0.126 0.394,-0.165 0.394,-0.215L0.394,-0.263L0.313,-0.26C0.249,-0.257 0.202,-0.247 0.174,-0.23C0.145,-0.212 0.131,-0.184 0.131,-0.147C0.131,-0.118 0.14,-0.095 0.157,-0.08C0.175,-0.065 0.2,-0.057 0.232,-0.057Z" style="fill:rgb(61,61,61);fill-rule:nonzero;"/>
            </g>
            <g transform="matrix(20,0,0,20,271.908,262.578)">
                <path d="M0.167,0L0.086,0L0.086,-0.535L0.167,-0.535L0.167,0ZM0.079,-0.68C0.079,-0.699 0.084,-0.712 0.093,-0.721C0.102,-0.73 0.113,-0.734 0.127,-0.734C0.14,-0.734 0.151,-0.729 0.161,-0.721C0.17,-0.712 0.175,-0.698 0.175,-0.68C0.175,-0.662 0.17,-0.648 0.161,-0.639C0.151,-0.63 0.14,-0.626 0.127,-0.626C0.113,-0.626 0.102,-0.63 0.093,-0.639C0.084,-0.648 0.079,-0.662 0.079,-0.68Z" style="fill:rgb(61,61,61);fill-rule:nonzero;"/>
            </g>
            <g transform="matrix(20,0,0,20,276.967,262.578)">
                <rect x="0.086" y="-0.76" width="0.081" height="0.76" style="fill:rgb(61,61,61);fill-rule:nonzero;"/>
            </g>
            <g transform="matrix(20,0,0,20,287.221,262.578)">
                <path d="M0.415,0L0.399,-0.076L0.395,-0.076C0.368,-0.043 0.342,-0.02 0.315,-0.008C0.289,0.004 0.256,0.01 0.216,0.01C0.163,0.01 0.121,-0.004 0.091,-0.031C0.061,-0.059 0.046,-0.097 0.046,-0.148C0.046,-0.256 0.132,-0.313 0.305,-0.318L0.396,-0.321L0.396,-0.354C0.396,-0.396 0.387,-0.427 0.369,-0.447C0.351,-0.467 0.322,-0.477 0.282,-0.477C0.238,-0.477 0.187,-0.463 0.131,-0.436L0.106,-0.498C0.132,-0.512 0.161,-0.524 0.193,-0.532C0.224,-0.54 0.256,-0.544 0.287,-0.544C0.351,-0.544 0.398,-0.53 0.429,-0.501C0.46,-0.473 0.475,-0.428 0.475,-0.365L0.475,0L0.415,0ZM0.232,-0.057C0.282,-0.057 0.322,-0.071 0.351,-0.099C0.38,-0.126 0.394,-0.165 0.394,-0.215L0.394,-0.263L0.313,-0.26C0.249,-0.257 0.202,-0.247 0.174,-0.23C0.145,-0.212 0.131,-0.184 0.131,-0.147C0.131,-0.118 0.14,-0.095 0.157,-0.08C0.175,-0.065 0.2,-0.057 0.232,-0.057Z" style="fill:rgb(61,61,61);fill-rule:nonzero;"/>
            </g>
            <g transform="matrix(20,0,0,20,298.344,262.578)">
                <path d="M0.45,-0.072L0.446,-0.072C0.408,-0.017 0.352,0.01 0.278,0.01C0.208,0.01 0.153,-0.014 0.115,-0.062C0.076,-0.11 0.056,-0.178 0.056,-0.266C0.056,-0.354 0.076,-0.423 0.115,-0.472C0.154,-0.521 0.208,-0.545 0.278,-0.545C0.35,-0.545 0.406,-0.519 0.445,-0.466L0.451,-0.466L0.448,-0.504L0.446,-0.542L0.446,-0.76L0.527,-0.76L0.527,0L0.461,0L0.45,-0.072ZM0.288,-0.058C0.343,-0.058 0.384,-0.073 0.408,-0.103C0.433,-0.133 0.446,-0.182 0.446,-0.249L0.446,-0.266C0.446,-0.342 0.433,-0.396 0.408,-0.428C0.383,-0.461 0.342,-0.477 0.287,-0.477C0.24,-0.477 0.203,-0.459 0.178,-0.422C0.153,-0.385 0.14,-0.333 0.14,-0.265C0.14,-0.197 0.153,-0.145 0.178,-0.11C0.203,-0.076 0.24,-0.058 0.288,-0.058Z" style="fill:rgb(61,61,61);fill-rule:nonzero;"/>
            </g>
            <g transform="matrix(20,0,0,20,310.6,262.578)">
                <path d="M0.45,-0.072L0.446,-0.072C0.408,-0.017 0.352,0.01 0.278,0.01C0.208,0.01 0.153,-0.014 0.115,-0.062C0.076,-0.11 0.056,-0.178 0.056,-0.266C0.056,-0.354 0.076,-0.423 0.115,-0.472C0.154,-0.521 0.208,-0.545 0.278,-0.545C0.35,-0.545 0.406,-0.519 0.445,-0.466L0.451,-0.466L0.448,-0.504L0.446,-0.542L0.446,-0.76L0.527,-0.76L0.527,0L0.461,0L0.45,-0.072ZM0.288,-0.058C0.343,-0.058 0.384,-0.073 0.408,-0.103C0.433,-0.133 0.446,-0.182 0.446,-0.249L0.446,-0.266C0.446,-0.342 0.433,-0.396 0.408,-0.428C0.383,-0.461 0.342,-0.477 0.287,-0.477C0.24,-0.477 0.203,-0.459 0.178,-0.422C0.153,-0.385 0.14,-0.333 0.14,-0.265C0.14,-0.197 0.153,-0.145 0.178,-0.11C0.203,-0.076 0.24,-0.058 0.288,-0.058Z" style="fill:rgb(61,61,61);fill-rule:nonzero;"/>
            </g>
            <g transform="matrix(20,0,0,20,322.855,262.578)">
                <path d="M0.33,-0.545C0.354,-0.545 0.375,-0.543 0.394,-0.539L0.383,-0.464C0.361,-0.469 0.341,-0.471 0.324,-0.471C0.281,-0.471 0.244,-0.454 0.213,-0.418C0.182,-0.383 0.167,-0.34 0.167,-0.287L0.167,0L0.086,0L0.086,-0.535L0.153,-0.535L0.162,-0.436L0.166,-0.436C0.186,-0.471 0.21,-0.498 0.238,-0.517C0.266,-0.535 0.297,-0.545 0.33,-0.545Z" style="fill:rgb(61,61,61);fill-rule:nonzero;"/>
            </g>
            <g transform="matrix(20,0,0,20,331.02,262.578)">
                <path d="M0.312,0.01C0.233,0.01 0.17,-0.014 0.125,-0.063C0.079,-0.111 0.056,-0.178 0.056,-0.263C0.056,-0.349 0.077,-0.418 0.12,-0.469C0.162,-0.52 0.219,-0.545 0.291,-0.545C0.358,-0.545 0.411,-0.523 0.45,-0.479C0.489,-0.435 0.509,-0.376 0.509,-0.304L0.509,-0.253L0.14,-0.253C0.142,-0.19 0.158,-0.142 0.188,-0.11C0.218,-0.077 0.26,-0.061 0.315,-0.061C0.373,-0.061 0.43,-0.073 0.486,-0.097L0.486,-0.025C0.457,-0.013 0.43,-0.004 0.405,0.002C0.379,0.007 0.348,0.01 0.312,0.01ZM0.29,-0.477C0.247,-0.477 0.213,-0.463 0.187,-0.435C0.162,-0.407 0.147,-0.368 0.142,-0.319L0.422,-0.319C0.422,-0.37 0.41,-0.409 0.388,-0.436C0.365,-0.463 0.332,-0.477 0.29,-0.477Z" style="fill:rgb(61,61,61);fill-rule:nonzero;"/>
            </g>
            <g transform="matrix(20,0,0,20,342.24,262.578)">
                <path d="M0.431,-0.146C0.431,-0.096 0.413,-0.058 0.375,-0.031C0.338,-0.004 0.286,0.01 0.219,0.01C0.148,0.01 0.093,-0.001 0.053,-0.024L0.053,-0.099C0.079,-0.086 0.107,-0.076 0.136,-0.068C0.165,-0.061 0.194,-0.057 0.221,-0.057C0.264,-0.057 0.296,-0.064 0.319,-0.077C0.342,-0.091 0.353,-0.111 0.353,-0.139C0.353,-0.16 0.344,-0.178 0.326,-0.193C0.308,-0.207 0.273,-0.225 0.22,-0.245C0.17,-0.264 0.135,-0.28 0.114,-0.294C0.093,-0.308 0.077,-0.323 0.067,-0.341C0.057,-0.358 0.052,-0.379 0.052,-0.404C0.052,-0.447 0.069,-0.482 0.105,-0.507C0.14,-0.532 0.189,-0.545 0.251,-0.545C0.309,-0.545 0.365,-0.533 0.42,-0.51L0.391,-0.444C0.337,-0.466 0.289,-0.477 0.245,-0.477C0.207,-0.477 0.178,-0.471 0.158,-0.459C0.139,-0.447 0.129,-0.43 0.129,-0.409C0.129,-0.395 0.133,-0.383 0.14,-0.373C0.147,-0.362 0.159,-0.353 0.175,-0.344C0.192,-0.335 0.223,-0.321 0.269,-0.304C0.333,-0.281 0.375,-0.258 0.398,-0.234C0.42,-0.211 0.431,-0.181 0.431,-0.146Z" style="fill:rgb(61,61,61);fill-rule:nonzero;"/>
            </g>
            <g transform="matrix(20,0,0,20,351.781,262.578)">
                <path d="M0.431,-0.146C0.431,-0.096 0.413,-0.058 0.375,-0.031C0.338,-0.004 0.286,0.01 0.219,0.01C0.148,0.01 0.093,-0.001 0.053,-0.024L0.053,-0.099C0.079,-0.086 0.107,-0.076 0.136,-0.068C0.165,-0.061 0.194,-0.057 0.221,-0.057C0.264,-0.057 0.296,-0.064 0.319,-0.077C0.342,-0.091 0.353,-0.111 0.353,-0.139C0.353,-0.16 0.344,-0.178 0.326,-0.193C0.308,-0.207 0.273,-0.225 0.22,-0.245C0.17,-0.264 0.135,-0.28 0.114,-0.294C0.093,-0.308 0.077,-0.323 0.067,-0.341C0.057,-0.358 0.052,-0.379 0.052,-0.404C0.052,-0.447 0.069,-0.482 0.105,-0.507C0.14,-0.532 0.189,-0.545 0.251,-0.545C0.309,-0.545 0.365,-0.533 0.42,-0.51L0.391,-0.444C0.337,-0.466 0.289,-0.477 0.245,-0.477C0.207,-0.477 0.178,-0.471 0.158,-0.459C0.139,-0.447 0.129,-0.43 0.129,-0.409C0.129,-0.395 0.133,-0.383 0.14,-0.373C0.147,-0.362 0.159,-0.353 0.175,-0.344C0.192,-0.335 0.223,-0.321 0.269,-0.304C0.333,-0.281 0.375,-0.258 0.398,-0.234C0.42,-0.211 0.431,-0.181 0.431,-0.146Z" style="fill:rgb(61,61,61);fill-rule:nonzero;"/>
            </g>
        </g>
        <g transform="matrix(0.65559,0,0,0.65559,-15.0654,52.7433)">
            <g transform="matrix(20,0,0,20,231.059,262.578)">
                <path d="M0.501,-0.19C0.501,-0.127 0.478,-0.078 0.433,-0.043C0.387,-0.008 0.325,0.01 0.247,0.01C0.162,0.01 0.097,-0.001 0.052,-0.023L0.052,-0.103C0.081,-0.091 0.113,-0.081 0.147,-0.074C0.182,-0.067 0.216,-0.063 0.25,-0.063C0.305,-0.063 0.347,-0.073 0.375,-0.094C0.403,-0.115 0.417,-0.145 0.417,-0.182C0.417,-0.207 0.412,-0.227 0.402,-0.243C0.392,-0.259 0.376,-0.273 0.352,-0.287C0.329,-0.3 0.294,-0.315 0.246,-0.332C0.18,-0.356 0.132,-0.384 0.104,-0.417C0.075,-0.449 0.061,-0.492 0.061,-0.544C0.061,-0.599 0.082,-0.643 0.123,-0.675C0.164,-0.708 0.219,-0.724 0.287,-0.724C0.358,-0.724 0.423,-0.711 0.483,-0.685L0.457,-0.613C0.398,-0.638 0.341,-0.65 0.285,-0.65C0.241,-0.65 0.207,-0.64 0.182,-0.622C0.157,-0.603 0.145,-0.576 0.145,-0.543C0.145,-0.518 0.15,-0.498 0.159,-0.482C0.168,-0.466 0.183,-0.452 0.205,-0.439C0.226,-0.426 0.26,-0.411 0.304,-0.395C0.379,-0.368 0.431,-0.34 0.459,-0.309C0.487,-0.278 0.501,-0.239 0.501,-0.19Z" style="fill:rgb(61,61,61);fill-rule:nonzero;"/>
            </g>
            <g transform="matrix(20,0,0,20,242.035,262.578)">
                <path d="M0.414,0L0.172,-0.633L0.168,-0.633C0.173,-0.583 0.175,-0.523 0.175,-0.454L0.175,0L0.098,0L0.098,-0.714L0.223,-0.714L0.449,-0.125L0.453,-0.125L0.681,-0.714L0.805,-0.714L0.805,0L0.722,0L0.722,-0.46C0.722,-0.513 0.724,-0.57 0.729,-0.632L0.725,-0.632L0.481,0L0.414,0Z" style="fill:rgb(61,61,61);fill-rule:nonzero;"/>
            </g>
            <g transform="matrix(20,0,0,20,260.092,262.578)">
                <path d="M0.501,-0.19C0.501,-0.127 0.478,-0.078 0.433,-0.043C0.387,-0.008 0.325,0.01 0.247,0.01C0.162,0.01 0.097,-0.001 0.052,-0.023L0.052,-0.103C0.081,-0.091 0.113,-0.081 0.147,-0.074C0.182,-0.067 0.216,-0.063 0.25,-0.063C0.305,-0.063 0.347,-0.073 0.375,-0.094C0.403,-0.115 0.417,-0.145 0.417,-0.182C0.417,-0.207 0.412,-0.227 0.402,-0.243C0.392,-0.259 0.376,-0.273 0.352,-0.287C0.329,-0.3 0.294,-0.315 0.246,-0.332C0.18,-0.356 0.132,-0.384 0.104,-0.417C0.075,-0.449 0.061,-0.492 0.061,-0.544C0.061,-0.599 0.082,-0.643 0.123,-0.675C0.164,-0.708 0.219,-0.724 0.287,-0.724C0.358,-0.724 0.423,-0.711 0.483,-0.685L0.457,-0.613C0.398,-0.638 0.341,-0.65 0.285,-0.65C0.241,-0.65 0.207,-0.64 0.182,-0.622C0.157,-0.603 0.145,-0.576 0.145,-0.543C0.145,-0.518 0.15,-0.498 0.159,-0.482C0.168,-0.466 0.183,-0.452 0.205,-0.439C0.226,-0.426 0.26,-0.411 0.304,-0.395C0.379,-0.368 0.431,-0.34 0.459,-0.309C0.487,-0.278 0.501,-0.239 0.501,-0.19Z" style="fill:rgb(61,61,61);fill-rule:nonzero;"/>
            </g>
            <g transform="matrix(20,0,0,20,276.264,262.578)">
                <path d="M0.452,0L0.452,-0.346C0.452,-0.39 0.442,-0.422 0.422,-0.444C0.403,-0.465 0.371,-0.476 0.329,-0.476C0.273,-0.476 0.232,-0.461 0.206,-0.431C0.18,-0.4 0.167,-0.35 0.167,-0.281L0.167,0L0.086,0L0.086,-0.535L0.152,-0.535L0.165,-0.462L0.169,-0.462C0.186,-0.488 0.209,-0.509 0.239,-0.523C0.269,-0.538 0.302,-0.545 0.339,-0.545C0.403,-0.545 0.452,-0.529 0.484,-0.498C0.517,-0.467 0.533,-0.417 0.533,-0.349L0.533,0L0.452,0Z" style="fill:rgb(61,61,61);fill-rule:nonzero;"/>
            </g>
            <g transform="matrix(20,0,0,20,288.539,262.578)">
                <path d="M0.162,-0.535L0.162,-0.188C0.162,-0.144 0.172,-0.112 0.192,-0.09C0.212,-0.069 0.243,-0.058 0.285,-0.058C0.341,-0.058 0.382,-0.073 0.408,-0.104C0.434,-0.135 0.447,-0.185 0.447,-0.254L0.447,-0.535L0.528,-0.535L0.528,0L0.461,0L0.449,-0.072L0.445,-0.072C0.428,-0.045 0.405,-0.025 0.376,-0.011C0.346,0.003 0.313,0.01 0.275,0.01C0.21,0.01 0.161,-0.006 0.129,-0.037C0.096,-0.068 0.08,-0.117 0.08,-0.185L0.08,-0.535L0.162,-0.535Z" style="fill:rgb(61,61,61);fill-rule:nonzero;"/>
            </g>
            <g transform="matrix(20,0,0,20,300.814,262.578)">
                <path d="M0.768,0L0.768,-0.348C0.768,-0.391 0.759,-0.423 0.741,-0.444C0.722,-0.465 0.694,-0.476 0.656,-0.476C0.605,-0.476 0.568,-0.462 0.544,-0.433C0.52,-0.404 0.508,-0.359 0.508,-0.299L0.508,0L0.427,0L0.427,-0.348C0.427,-0.391 0.418,-0.423 0.399,-0.444C0.381,-0.465 0.353,-0.476 0.314,-0.476C0.263,-0.476 0.226,-0.461 0.202,-0.43C0.179,-0.4 0.167,-0.35 0.167,-0.281L0.167,0L0.086,0L0.086,-0.535L0.152,-0.535L0.165,-0.462L0.169,-0.462C0.184,-0.488 0.206,-0.508 0.234,-0.523C0.261,-0.538 0.293,-0.545 0.327,-0.545C0.411,-0.545 0.465,-0.515 0.491,-0.454L0.495,-0.454C0.511,-0.482 0.534,-0.504 0.564,-0.521C0.595,-0.537 0.629,-0.545 0.668,-0.545C0.729,-0.545 0.774,-0.529 0.804,-0.498C0.834,-0.467 0.849,-0.417 0.849,-0.349L0.849,0L0.768,0Z" style="fill:rgb(61,61,61);fill-rule:nonzero;"/>
            </g>
            <g transform="matrix(20,0,0,20,319.418,262.578)">
                <path d="M0.335,-0.544C0.405,-0.544 0.46,-0.52 0.499,-0.472C0.538,-0.424 0.557,-0.356 0.557,-0.268C0.557,-0.18 0.538,-0.112 0.498,-0.063C0.459,-0.015 0.405,0.01 0.335,0.01C0.3,0.01 0.268,0.003 0.24,-0.01C0.211,-0.022 0.187,-0.042 0.167,-0.069L0.161,-0.069L0.144,0L0.086,0L0.086,-0.76L0.167,-0.76L0.167,-0.575C0.167,-0.534 0.166,-0.497 0.163,-0.464L0.167,-0.464C0.205,-0.517 0.261,-0.544 0.335,-0.544ZM0.323,-0.476C0.268,-0.476 0.228,-0.46 0.204,-0.428C0.179,-0.397 0.167,-0.343 0.167,-0.268C0.167,-0.193 0.18,-0.139 0.205,-0.107C0.23,-0.074 0.27,-0.058 0.325,-0.058C0.375,-0.058 0.412,-0.076 0.437,-0.113C0.461,-0.149 0.473,-0.201 0.473,-0.269C0.473,-0.339 0.461,-0.391 0.437,-0.425C0.412,-0.459 0.374,-0.476 0.323,-0.476Z" style="fill:rgb(61,61,61);fill-rule:nonzero;"/>
            </g>
            <g transform="matrix(20,0,0,20,331.674,262.578)">
                <path d="M0.312,0.01C0.233,0.01 0.17,-0.014 0.125,-0.063C0.079,-0.111 0.056,-0.178 0.056,-0.263C0.056,-0.349 0.077,-0.418 0.12,-0.469C0.162,-0.52 0.219,-0.545 0.291,-0.545C0.358,-0.545 0.411,-0.523 0.45,-0.479C0.489,-0.435 0.509,-0.376 0.509,-0.304L0.509,-0.253L0.14,-0.253C0.142,-0.19 0.158,-0.142 0.188,-0.11C0.218,-0.077 0.26,-0.061 0.315,-0.061C0.373,-0.061 0.43,-0.073 0.486,-0.097L0.486,-0.025C0.457,-0.013 0.43,-0.004 0.405,0.002C0.379,0.007 0.348,0.01 0.312,0.01ZM0.29,-0.477C0.247,-0.477 0.213,-0.463 0.187,-0.435C0.162,-0.407 0.147,-0.368 0.142,-0.319L0.422,-0.319C0.422,-0.37 0.41,-0.409 0.388,-0.436C0.365,-0.463 0.332,-0.477 0.29,-0.477Z" style="fill:rgb(61,61,61);fill-rule:nonzero;"/>
            </g>
            <g transform="matrix(20,0,0,20,342.895,262.578)">
                <path d="M0.33,-0.545C0.354,-0.545 0.375,-0.543 0.394,-0.539L0.383,-0.464C0.361,-0.469 0.341,-0.471 0.324,-0.471C0.281,-0.471 0.244,-0.454 0.213,-0.418C0.182,-0.383 0.167,-0.34 0.167,-0.287L0.167,0L0.086,0L0.086,-0.535L0.153,-0.535L0.162,-0.436L0.166,-0.436C0.186,-0.471 0.21,-0.498 0.238,-0.517C0.266,-0.535 0.297,-0.545 0.33,-0.545Z" style="fill:rgb(61,61,61);fill-rule:nonzero;"/>
            </g>
        </g>
        <g transform="matrix(0.65559,0,0,0.65559,-15.0654,118.012)">
            <g transform="matrix(20,0,0,20,231.059,262.578)">
                <path d="M0.551,-0.506C0.551,-0.434 0.526,-0.378 0.477,-0.339C0.427,-0.3 0.357,-0.281 0.265,-0.281L0.181,-0.281L0.181,0L0.098,0L0.098,-0.714L0.283,-0.714C0.462,-0.714 0.551,-0.645 0.551,-0.506ZM0.181,-0.352L0.256,-0.352C0.329,-0.352 0.383,-0.364 0.416,-0.388C0.448,-0.411 0.465,-0.45 0.465,-0.502C0.465,-0.549 0.449,-0.584 0.418,-0.607C0.388,-0.631 0.339,-0.642 0.274,-0.642L0.181,-0.642L0.181,-0.352Z" style="fill:rgb(61,61,61);fill-rule:nonzero;"/>
            </g>
            <g transform="matrix(20,0,0,20,243.1,262.578)">
                <path d="M0.452,0L0.452,-0.346C0.452,-0.39 0.442,-0.422 0.422,-0.444C0.403,-0.465 0.371,-0.476 0.329,-0.476C0.273,-0.476 0.232,-0.461 0.206,-0.43C0.18,-0.4 0.167,-0.349 0.167,-0.28L0.167,0L0.086,0L0.086,-0.76L0.167,-0.76L0.167,-0.53C0.167,-0.502 0.166,-0.479 0.163,-0.461L0.168,-0.461C0.184,-0.487 0.207,-0.507 0.236,-0.522C0.266,-0.537 0.299,-0.544 0.337,-0.544C0.402,-0.544 0.451,-0.528 0.484,-0.497C0.517,-0.466 0.533,-0.417 0.533,-0.349L0.533,0L0.452,0Z" style="fill:rgb(61,61,61);fill-rule:nonzero;"/>
            </g>
            <g transform="matrix(20,0,0,20,255.375,262.578)">
                <path d="M0.548,-0.268C0.548,-0.181 0.526,-0.113 0.482,-0.064C0.438,-0.015 0.377,0.01 0.3,0.01C0.252,0.01 0.209,-0.001 0.172,-0.024C0.135,-0.046 0.107,-0.079 0.086,-0.121C0.066,-0.163 0.056,-0.212 0.056,-0.268C0.056,-0.355 0.078,-0.423 0.122,-0.472C0.165,-0.521 0.226,-0.545 0.303,-0.545C0.378,-0.545 0.438,-0.52 0.482,-0.47C0.526,-0.42 0.548,-0.353 0.548,-0.268ZM0.14,-0.268C0.14,-0.2 0.154,-0.148 0.181,-0.112C0.208,-0.076 0.249,-0.058 0.302,-0.058C0.355,-0.058 0.395,-0.076 0.423,-0.112C0.45,-0.147 0.464,-0.199 0.464,-0.268C0.464,-0.336 0.45,-0.388 0.423,-0.423C0.395,-0.458 0.354,-0.476 0.301,-0.476C0.248,-0.476 0.208,-0.459 0.181,-0.424C0.154,-0.389 0.14,-0.337 0.14,-0.268Z" style="fill:rgb(61,61,61);fill-rule:nonzero;"/>
            </g>
            <g transform="matrix(20,0,0,20,267.455,262.578)">
                <path d="M0.452,0L0.452,-0.346C0.452,-0.39 0.442,-0.422 0.422,-0.444C0.403,-0.465 0.371,-0.476 0.329,-0.476C0.273,-0.476 0.232,-0.461 0.206,-0.431C0.18,-0.4 0.167,-0.35 0.167,-0.281L0.167,0L0.086,0L0.086,-0.535L0.152,-0.535L0.165,-0.462L0.169,-0.462C0.186,-0.488 0.209,-0.509 0.239,-0.523C0.269,-0.538 0.302,-0.545 0.339,-0.545C0.403,-0.545 0.452,-0.529 0.484,-0.498C0.517,-0.467 0.533,-0.417 0.533,-0.349L0.533,0L0.452,0Z" style="fill:rgb(61,61,61);fill-rule:nonzero;"/>
            </g>
            <g transform="matrix(20,0,0,20,279.73,262.578)">
                <path d="M0.312,0.01C0.233,0.01 0.17,-0.014 0.125,-0.063C0.079,-0.111 0.056,-0.178 0.056,-0.263C0.056,-0.349 0.077,-0.418 0.12,-0.469C0.162,-0.52 0.219,-0.545 0.291,-0.545C0.358,-0.545 0.411,-0.523 0.45,-0.479C0.489,-0.435 0.509,-0.376 0.509,-0.304L0.509,-0.253L0.14,-0.253C0.142,-0.19 0.158,-0.142 0.188,-0.11C0.218,-0.077 0.26,-0.061 0.315,-0.061C0.373,-0.061 0.43,-0.073 0.486,-0.097L0.486,-0.025C0.457,-0.013 0.43,-0.004 0.405,0.002C0.379,0.007 0.348,0.01 0.312,0.01ZM0.29,-0.477C0.247,-0.477 0.213,-0.463 0.187,-0.435C0.162,-0.407 0.147,-0.368 0.142,-0.319L0.422,-0.319C0.422,-0.37 0.41,-0.409 0.388,-0.436C0.365,-0.463 0.332,-0.477 0.29,-0.477Z" style="fill:rgb(61,61,61);fill-rule:nonzero;"/>
            </g>
            <g transform="matrix(20,0,0,20,296.146,262.578)">
                <path d="M0.452,0L0.452,-0.346C0.452,-0.39 0.442,-0.422 0.422,-0.444C0.403,-0.465 0.371,-0.476 0.329,-0.476C0.273,-0.476 0.232,-0.461 0.206,-0.431C0.18,-0.4 0.167,-0.35 0.167,-0.281L0.167,0L0.086,0L0.086,-0.535L0.152,-0.535L0.165,-0.462L0.169,-0.462C0.186,-0.488 0.209,-0.509 0.239,-0.523C0.269,-0.538 0.302,-0.545 0.339,-0.545C0.403,-0.545 0.452,-0.529 0.484,-0.498C0.517,-0.467 0.533,-0.417 0.533,-0.349L0.533,0L0.452,0Z" style="fill:rgb(61,61,61);fill-rule:nonzero;"/>
            </g>
            <g transform="matrix(20,0,0,20,308.422,262.578)">
                <path d="M0.162,-0.535L0.162,-0.188C0.162,-0.144 0.172,-0.112 0.192,-0.09C0.212,-0.069 0.243,-0.058 0.285,-0.058C0.341,-0.058 0.382,-0.073 0.408,-0.104C0.434,-0.135 0.447,-0.185 0.447,-0.254L0.447,-0.535L0.528,-0.535L0.528,0L0.461,0L0.449,-0.072L0.445,-0.072C0.428,-0.045 0.405,-0.025 0.376,-0.011C0.346,0.003 0.313,0.01 0.275,0.01C0.21,0.01 0.161,-0.006 0.129,-0.037C0.096,-0.068 0.08,-0.117 0.08,-0.185L0.08,-0.535L0.162,-0.535Z" style="fill:rgb(61,61,61);fill-rule:nonzero;"/>
            </g>
            <g transform="matrix(20,0,0,20,320.697,262.578)">
                <path d="M0.768,0L0.768,-0.348C0.768,-0.391 0.759,-0.423 0.741,-0.444C0.722,-0.465 0.694,-0.476 0.656,-0.476C0.605,-0.476 0.568,-0.462 0.544,-0.433C0.52,-0.404 0.508,-0.359 0.508,-0.299L0.508,0L0.427,0L0.427,-0.348C0.427,-0.391 0.418,-0.423 0.399,-0.444C0.381,-0.465 0.353,-0.476 0.314,-0.476C0.263,-0.476 0.226,-0.461 0.202,-0.43C0.179,-0.4 0.167,-0.35 0.167,-0.281L0.167,0L0.086,0L0.086,-0.535L0.152,-0.535L0.165,-0.462L0.169,-0.462C0.184,-0.488 0.206,-0.508 0.234,-0.523C0.261,-0.538 0.293,-0.545 0.327,-0.545C0.411,-0.545 0.465,-0.515 0.491,-0.454L0.495,-0.454C0.511,-0.482 0.534,-0.504 0.564,-0.521C0.595,-0.537 0.629,-0.545 0.668,-0.545C0.729,-0.545 0.774,-0.529 0.804,-0.498C0.834,-0.467 0.849,-0.417 0.849,-0.349L0.849,0L0.768,0Z" style="fill:rgb(61,61,61);fill-rule:nonzero;"/>
            </g>
            <g transform="matrix(20,0,0,20,339.301,262.578)">
                <path d="M0.335,-0.544C0.405,-0.544 0.46,-0.52 0.499,-0.472C0.538,-0.424 0.557,-0.356 0.557,-0.268C0.557,-0.18 0.538,-0.112 0.498,-0.063C0.459,-0.015 0.405,0.01 0.335,0.01C0.3,0.01 0.268,0.003 0.24,-0.01C0.211,-0.022 0.187,-0.042 0.167,-0.069L0.161,-0.069L0.144,0L0.086,0L0.086,-0.76L0.167,-0.76L0.167,-0.575C0.167,-0.534 0.166,-0.497 0.163,-0.464L0.167,-0.464C0.205,-0.517 0.261,-0.544 0.335,-0.544ZM0.323,-0.476C0.268,-0.476 0.228,-0.46 0.204,-0.428C0.179,-0.397 0.167,-0.343 0.167,-0.268C0.167,-0.193 0.18,-0.139 0.205,-0.107C0.23,-0.074 0.27,-0.058 0.325,-0.058C0.375,-0.058 0.412,-0.076 0.437,-0.113C0.461,-0.149 0.473,-0.201 0.473,-0.269C0.473,-0.339 0.461,-0.391 0.437,-0.425C0.412,-0.459 0.374,-0.476 0.323,-0.476Z" style="fill:rgb(61,61,61);fill-rule:nonzero;"/>
            </g>
            <g transform="matrix(20,0,0,20,351.557,262.578)">
                <path d="M0.312,0.01C0.233,0.01 0.17,-0.014 0.125,-0.063C0.079,-0.111 0.056,-0.178 0.056,-0.263C0.056,-0.349 0.077,-0.418 0.12,-0.469C0.162,-0.52 0.219,-0.545 0.291,-0.545C0.358,-0.545 0.411,-0.523 0.45,-0.479C0.489,-0.435 0.509,-0.376 0.509,-0.304L0.509,-0.253L0.14,-0.253C0.142,-0.19 0.158,-0.142 0.188,-0.11C0.218,-0.077 0.26,-0.061 0.315,-0.061C0.373,-0.061 0.43,-0.073 0.486,-0.097L0.486,-0.025C0.457,-0.013 0.43,-0.004 0.405,0.002C0.379,0.007 0.348,0.01 0.312,0.01ZM0.29,-0.477C0.247,-0.477 0.213,-0.463 0.187,-0.435C0.162,-0.407 0.147,-0.368 0.142,-0.319L0.422,-0.319C0.422,-0.37 0.41,-0.409 0.388,-0.436C0.365,-0.463 0.332,-0.477 0.29,-0.477Z" style="fill:rgb(61,61,61);fill-rule:nonzero;"/>
            </g>
            <g transform="matrix(20,0,0,20,362.777,262.578)">
                <path d="M0.33,-0.545C0.354,-0.545 0.375,-0.543 0.394,-0.539L0.383,-0.464C0.361,-0.469 0.341,-0.471 0.324,-0.471C0.281,-0.471 0.244,-0.454 0.213,-0.418C0.182,-0.383 0.167,-0.34 0.167,-0.287L0.167,0L0.086,0L0.086,-0.535L0.153,-0.535L0.162,-0.436L0.166,-0.436C0.186,-0.471 0.21,-0.498 0.238,-0.517C0.266,-0.535 0.297,-0.545 0.33,-0.545Z" style="fill:rgb(61,61,61);fill-rule:nonzero;"/>
            </g>
        </g>
    </g>
    <g transform="matrix(0.65559,0,0,0.65559,-12.429,-77.6114)">
        <path d="M565,281.661C565,279.089 562.911,277 560.339,277L233.661,277C231.089,277 229,279.089 229,281.661L229,316.339C229,318.911 231.089,321 233.661,321L560.339,321C562.911,321 565,318.911 565,316.339L565,281.661Z" style="fill:white;stroke:rgb(204,204,204);stroke-width:2.29px;"/>
    </g>
    <g transform="matrix(0.65559,0,0,0.65559,-12.429,-12.3427)">
        <path d="M565,281.661C565,279.089 562.911,277 560.339,277L233.661,277C231.089,277 229,279.089 229,281.661L229,316.339C229,318.911 231.089,321 233.661,321L560.339,321C562.911,321 565,318.911 565,316.339L565,281.661Z" style="fill:white;stroke:rgb(204,204,204);stroke-width:2.29px;"/>
    </g>
    <g transform="matrix(0.65559,0,0,0.65559,-12.429,52.9261)">
        <path d="M565,281.661C565,279.089 562.911,277 560.339,277L233.661,277C231.089,277 229,279.089 229,281.661L229,316.339C229,318.911 231.089,321 233.661,321L560.339,321C562.911,321 565,318.911 565,316.339L565,281.661Z" style="fill:white;stroke:rgb(204,204,204);stroke-width:2.29px;"/>
    </g>
    <g transform="matrix(0.65559,0,0,0.65559,-12.429,118.195)">
        <path d="M565,281.661C565,279.089 562.911,277 560.339,277L233.661,277C231.089,277 229,279.089 229,281.661L229,316.339C229,318.911 231.089,321 233.661,321L560.339,321C562.911,321 565,318.911 565,316.339L565,281.661Z" style="fill:white;stroke:rgb(204,204,204);stroke-width:2.29px;"/>
    </g>
    <path d="M400,0L0,0L0,400L400,400L400,0ZM201.696,62.814C281.172,62.814 345.696,127.338 345.696,206.814C345.696,286.29 281.172,350.814 201.696,350.814C122.221,350.814 57.696,286.29 57.696,206.814C57.696,127.338 122.221,62.814 201.696,62.814Z" style="fill:white;"/>
    <g transform="matrix(0.287804,0,0,0.287804,-50.3767,3.82148)">
        <path d="M420,60C354.17,60 300,114.17 300,180C300,245.83 354.17,300 420,300C485.83,300 540,245.83 540,180C540,114.17 485.83,60 420,60M420,330C321.255,330 240,397.712 240,480M420,330C518.745,330 600,397.712 600,480L240,480" style="fill:white;fill-rule:nonzero;stroke:rgb(10,10,10);stroke-width:27.6px;stroke-linecap:round;stroke-miterlimit:4;"/>
    </g>
</svg>
