<?xml version="1.0" encoding="UTF-8" standalone="no"?>
<!DOCTYPE svg PUBLIC "-//W3C//DTD SVG 1.1//EN" "http://www.w3.org/Graphics/SVG/1.1/DTD/svg11.dtd">
<svg width="100%" height="100%" viewBox="0 0 400 400" version="1.1" xmlns="http://www.w3.org/2000/svg" xmlns:xlink="http://www.w3.org/1999/xlink" xml:space="preserve" xmlns:serif="http://www.serif.com/" style="fill-rule:evenodd;clip-rule:evenodd;stroke-linecap:round;stroke-linejoin:round;stroke-miterlimit:1.5;">
    <g transform="matrix(1,0,0,1,0,-46)">
        <g transform="matrix(0.328358,0,0,0.328358,144.343,143.851)">
            <g transform="matrix(0.87156,0,0,1,21.7706,0)">
                <rect x="115" y="104" width="109" height="134" style="fill:none;stroke:black;stroke-width:6.49px;"/>
            </g>
            <g>
                <g transform="matrix(1,0,0,1,7,0)">
                    <rect x="126" y="132" width="10" height="17" style="fill:none;stroke:black;stroke-width:6.09px;"/>
                </g>
                <g transform="matrix(1,0,0,1,70,0)">
                    <rect x="126" y="132" width="10" height="17" style="fill:none;stroke:black;stroke-width:6.09px;"/>
                </g>
                <g transform="matrix(1,0,0,1,38.5,0)">
                    <rect x="126" y="132" width="10" height="17" style="fill:none;stroke:black;stroke-width:6.09px;"/>
                </g>
                <g transform="matrix(1,0,0,1,7,39)">
                    <rect x="126" y="132" width="10" height="17" style="fill:none;stroke:black;stroke-width:6.09px;"/>
                </g>
                <g transform="matrix(1,0,0,1,70,39)">
                    <rect x="126" y="132" width="10" height="17" style="fill:none;stroke:black;stroke-width:6.09px;"/>
                </g>
                <g transform="matrix(1,0,0,1,38.5,39)">
                    <rect x="126" y="132" width="10" height="17" style="fill:none;stroke:black;stroke-width:6.09px;"/>
                </g>
                <g transform="matrix(1,0,0,1,7,78)">
                    <rect x="126" y="132" width="10" height="17" style="fill:none;stroke:black;stroke-width:6.09px;"/>
                </g>
                <g transform="matrix(1,0,0,1,70,78)">
                    <rect x="126" y="132" width="10" height="17" style="fill:none;stroke:black;stroke-width:6.09px;"/>
                </g>
                <g transform="matrix(1,0,0,1,5,0)">
                    <g transform="matrix(1,0,0,1,28.5,89)">
                        <rect x="126" y="132" width="10" height="17" style="fill:none;stroke:black;stroke-width:6.09px;"/>
                    </g>
                    <g transform="matrix(1,0,0,1,38.5,89)">
                        <rect x="126" y="132" width="10" height="17" style="fill:none;stroke:black;stroke-width:6.09px;"/>
                    </g>
                </g>
            </g>
        </g>
        <g transform="matrix(0.328358,0,0,0.328358,82.3433,143.851)">
            <g transform="matrix(0.87156,0,0,1,21.7706,0)">
                <rect x="115" y="104" width="109" height="134" style="fill:none;stroke:black;stroke-width:6.49px;"/>
            </g>
            <g>
                <g transform="matrix(1,0,0,1,7,0)">
                    <rect x="126" y="132" width="10" height="17" style="fill:none;stroke:black;stroke-width:6.09px;"/>
                </g>
                <g transform="matrix(1,0,0,1,70,0)">
                    <rect x="126" y="132" width="10" height="17" style="fill:none;stroke:black;stroke-width:6.09px;"/>
                </g>
                <g transform="matrix(1,0,0,1,38.5,0)">
                    <rect x="126" y="132" width="10" height="17" style="fill:none;stroke:black;stroke-width:6.09px;"/>
                </g>
                <g transform="matrix(1,0,0,1,7,39)">
                    <rect x="126" y="132" width="10" height="17" style="fill:none;stroke:black;stroke-width:6.09px;"/>
                </g>
                <g transform="matrix(1,0,0,1,70,39)">
                    <rect x="126" y="132" width="10" height="17" style="fill:none;stroke:black;stroke-width:6.09px;"/>
                </g>
                <g transform="matrix(1,0,0,1,38.5,39)">
                    <rect x="126" y="132" width="10" height="17" style="fill:none;stroke:black;stroke-width:6.09px;"/>
                </g>
                <g transform="matrix(1,0,0,1,7,78)">
                    <rect x="126" y="132" width="10" height="17" style="fill:none;stroke:black;stroke-width:6.09px;"/>
                </g>
                <g transform="matrix(1,0,0,1,70,78)">
                    <rect x="126" y="132" width="10" height="17" style="fill:none;stroke:black;stroke-width:6.09px;"/>
                </g>
                <g transform="matrix(1,0,0,1,5,0)">
                    <g transform="matrix(1,0,0,1,28.5,89)">
                        <rect x="126" y="132" width="10" height="17" style="fill:none;stroke:black;stroke-width:6.09px;"/>
                    </g>
                    <g transform="matrix(1,0,0,1,38.5,89)">
                        <rect x="126" y="132" width="10" height="17" style="fill:none;stroke:black;stroke-width:6.09px;"/>
                    </g>
                </g>
            </g>
        </g>
        <g transform="matrix(0.328358,0,0,0.328358,20.3433,143.851)">
            <g transform="matrix(0.87156,0,0,1,21.7706,0)">
                <rect x="115" y="104" width="109" height="134" style="fill:none;stroke:black;stroke-width:6.49px;"/>
            </g>
            <g>
                <g transform="matrix(1,0,0,1,7,0)">
                    <rect x="126" y="132" width="10" height="17" style="fill:none;stroke:black;stroke-width:6.09px;"/>
                </g>
                <g transform="matrix(1,0,0,1,70,0)">
                    <rect x="126" y="132" width="10" height="17" style="fill:none;stroke:black;stroke-width:6.09px;"/>
                </g>
                <g transform="matrix(1,0,0,1,38.5,0)">
                    <rect x="126" y="132" width="10" height="17" style="fill:none;stroke:black;stroke-width:6.09px;"/>
                </g>
                <g transform="matrix(1,0,0,1,7,39)">
                    <rect x="126" y="132" width="10" height="17" style="fill:none;stroke:black;stroke-width:6.09px;"/>
                </g>
                <g transform="matrix(1,0,0,1,70,39)">
                    <rect x="126" y="132" width="10" height="17" style="fill:none;stroke:black;stroke-width:6.09px;"/>
                </g>
                <g transform="matrix(1,0,0,1,38.5,39)">
                    <rect x="126" y="132" width="10" height="17" style="fill:none;stroke:black;stroke-width:6.09px;"/>
                </g>
                <g transform="matrix(1,0,0,1,7,78)">
                    <rect x="126" y="132" width="10" height="17" style="fill:none;stroke:black;stroke-width:6.09px;"/>
                </g>
                <g transform="matrix(1,0,0,1,70,78)">
                    <rect x="126" y="132" width="10" height="17" style="fill:none;stroke:black;stroke-width:6.09px;"/>
                </g>
                <g transform="matrix(1,0,0,1,5,0)">
                    <g transform="matrix(1,0,0,1,28.5,89)">
                        <rect x="126" y="132" width="10" height="17" style="fill:none;stroke:black;stroke-width:6.09px;"/>
                    </g>
                    <g transform="matrix(1,0,0,1,38.5,89)">
                        <rect x="126" y="132" width="10" height="17" style="fill:none;stroke:black;stroke-width:6.09px;"/>
                    </g>
                </g>
            </g>
        </g>
        <g transform="matrix(0.328358,0,0,0.328358,206.343,143.851)">
            <g transform="matrix(0.87156,0,0,1,21.7706,0)">
                <rect x="115" y="104" width="109" height="134" style="fill:none;stroke:black;stroke-width:6.49px;"/>
            </g>
            <g>
                <g transform="matrix(1,0,0,1,7,0)">
                    <rect x="126" y="132" width="10" height="17" style="fill:none;stroke:black;stroke-width:6.09px;"/>
                </g>
                <g transform="matrix(1,0,0,1,70,0)">
                    <rect x="126" y="132" width="10" height="17" style="fill:none;stroke:black;stroke-width:6.09px;"/>
                </g>
                <g transform="matrix(1,0,0,1,38.5,0)">
                    <rect x="126" y="132" width="10" height="17" style="fill:none;stroke:black;stroke-width:6.09px;"/>
                </g>
                <g transform="matrix(1,0,0,1,7,39)">
                    <rect x="126" y="132" width="10" height="17" style="fill:none;stroke:black;stroke-width:6.09px;"/>
                </g>
                <g transform="matrix(1,0,0,1,70,39)">
                    <rect x="126" y="132" width="10" height="17" style="fill:none;stroke:black;stroke-width:6.09px;"/>
                </g>
                <g transform="matrix(1,0,0,1,38.5,39)">
                    <rect x="126" y="132" width="10" height="17" style="fill:none;stroke:black;stroke-width:6.09px;"/>
                </g>
                <g transform="matrix(1,0,0,1,7,78)">
                    <rect x="126" y="132" width="10" height="17" style="fill:none;stroke:black;stroke-width:6.09px;"/>
                </g>
                <g transform="matrix(1,0,0,1,70,78)">
                    <rect x="126" y="132" width="10" height="17" style="fill:none;stroke:black;stroke-width:6.09px;"/>
                </g>
                <g transform="matrix(1,0,0,1,5,0)">
                    <g transform="matrix(1,0,0,1,28.5,89)">
                        <rect x="126" y="132" width="10" height="17" style="fill:none;stroke:black;stroke-width:6.09px;"/>
                    </g>
                    <g transform="matrix(1,0,0,1,38.5,89)">
                        <rect x="126" y="132" width="10" height="17" style="fill:none;stroke:black;stroke-width:6.09px;"/>
                    </g>
                </g>
            </g>
        </g>
        <g transform="matrix(0.328358,0,0,0.328358,268.343,143.851)">
            <g transform="matrix(0.87156,0,0,1,21.7706,0)">
                <rect x="115" y="104" width="109" height="134" style="fill:none;stroke:black;stroke-width:6.49px;"/>
            </g>
            <g>
                <g transform="matrix(1,0,0,1,7,0)">
                    <rect x="126" y="132" width="10" height="17" style="fill:none;stroke:black;stroke-width:6.09px;"/>
                </g>
                <g transform="matrix(1,0,0,1,70,0)">
                    <rect x="126" y="132" width="10" height="17" style="fill:none;stroke:black;stroke-width:6.09px;"/>
                </g>
                <g transform="matrix(1,0,0,1,38.5,0)">
                    <rect x="126" y="132" width="10" height="17" style="fill:none;stroke:black;stroke-width:6.09px;"/>
                </g>
                <g transform="matrix(1,0,0,1,7,39)">
                    <rect x="126" y="132" width="10" height="17" style="fill:none;stroke:black;stroke-width:6.09px;"/>
                </g>
                <g transform="matrix(1,0,0,1,70,39)">
                    <rect x="126" y="132" width="10" height="17" style="fill:none;stroke:black;stroke-width:6.09px;"/>
                </g>
                <g transform="matrix(1,0,0,1,38.5,39)">
                    <rect x="126" y="132" width="10" height="17" style="fill:none;stroke:black;stroke-width:6.09px;"/>
                </g>
                <g transform="matrix(1,0,0,1,7,78)">
                    <rect x="126" y="132" width="10" height="17" style="fill:none;stroke:black;stroke-width:6.09px;"/>
                </g>
                <g transform="matrix(1,0,0,1,70,78)">
                    <rect x="126" y="132" width="10" height="17" style="fill:none;stroke:black;stroke-width:6.09px;"/>
                </g>
                <g transform="matrix(1,0,0,1,5,0)">
                    <g transform="matrix(1,0,0,1,28.5,89)">
                        <rect x="126" y="132" width="10" height="17" style="fill:none;stroke:black;stroke-width:6.09px;"/>
                    </g>
                    <g transform="matrix(1,0,0,1,38.5,89)">
                        <rect x="126" y="132" width="10" height="17" style="fill:none;stroke:black;stroke-width:6.09px;"/>
                    </g>
                </g>
            </g>
        </g>
    </g>
    <g>
        <circle cx="76" cy="191" r="5" style="fill:none;stroke:black;stroke-width:1px;"/>
        <g transform="matrix(1,0,0,1,-19.5,2.5)">
            <circle cx="95.5" cy="188.5" r="2.5" style="fill:rgb(49,49,49);"/>
        </g>
    </g>
    <g transform="matrix(1,0,0,1,62,0)">
        <circle cx="76" cy="191" r="5" style="fill:none;stroke:black;stroke-width:1px;"/>
        <g transform="matrix(1,0,0,1,-19.5,2.5)">
            <circle cx="95.5" cy="188.5" r="2.5" style="fill:rgb(49,49,49);"/>
        </g>
    </g>
    <g transform="matrix(1,0,0,1,124,0)">
        <circle cx="76" cy="191" r="5" style="fill:none;stroke:black;stroke-width:1px;"/>
        <g transform="matrix(1,0,0,1,-19.5,2.5)">
            <circle cx="95.5" cy="188.5" r="2.5" style="fill:rgb(49,49,49);"/>
        </g>
    </g>
    <g transform="matrix(1,0,0,1,186,0)">
        <circle cx="76" cy="191" r="5" style="fill:none;stroke:black;stroke-width:1px;"/>
    </g>
    <g transform="matrix(1,0,0,1,248,0)">
        <circle cx="76" cy="191" r="5" style="fill:none;stroke:black;stroke-width:1px;"/>
        <g transform="matrix(1,0,0,1,-19.5,2.5)">
            <circle cx="95.5" cy="188.5" r="2.5" style="fill:rgb(49,49,49);"/>
        </g>
    </g>
</svg>
