<?xml version="1.0" encoding="UTF-8" standalone="no"?>
<svg
   xmlns:dc="http://purl.org/dc/elements/1.1/"
   xmlns:cc="http://creativecommons.org/ns#"
   xmlns:rdf="http://www.w3.org/1999/02/22-rdf-syntax-ns#"
   xmlns:svg="http://www.w3.org/2000/svg"
   xmlns="http://www.w3.org/2000/svg"
   id="svg7513"
   style="clip-rule:evenodd;fill-rule:evenodd;stroke-linejoin:round;stroke-miterlimit:1.5"
   xml:space="preserve"
   version="1.1"
   viewBox="0 0 182.55885 248.36421"
   height="248.36421"
   width="182.55885"><metadata
   id="metadata7519"><rdf:RDF><cc:Work
       rdf:about=""><dc:format>image/svg+xml</dc:format><dc:type
         rdf:resource="http://purl.org/dc/dcmitype/StillImage" /><dc:title></dc:title></cc:Work></rdf:RDF></metadata><defs
   id="defs7517" />
    <g
   transform="matrix(1.94798,0,0,1.48472,-75.561553,-172.9032)"
   id="Artboard1">
        <rect
   id="rect7106"
   style="fill:none"
   height="229"
   width="173"
   y="86"
   x="36" />
        <g
   id="g7298"
   transform="matrix(0.513353,0,0,0.673529,-46.056286,81.140119)">
            <g
   id="g7156"
   transform="translate(82.0028,44.9248)">
                <g
   id="g7110"
   transform="matrix(16,0,0,16,126.194,44.4741)">
                    <path
   id="path7108"
   style="fill:#2f2f2f;fill-rule:nonzero"
   d="M 0.365,0 H 0.214 V -0.588 H 0.02 v -0.126 h 0.539 v 0.126 H 0.365 Z" />
                </g>
                <g
   id="g7114"
   transform="matrix(16,0,0,16,135.459,44.4741)">
                    <path
   id="path7112"
   style="fill:#2f2f2f;fill-rule:nonzero"
   d="m 0.304,-0.45 c -0.031,0 -0.056,0.01 -0.074,0.03 -0.018,0.02 -0.028,0.048 -0.031,0.085 H 0.408 C 0.408,-0.372 0.398,-0.4 0.379,-0.42 0.361,-0.44 0.336,-0.45 0.304,-0.45 Z M 0.325,0.01 C 0.237,0.01 0.169,-0.014 0.119,-0.063 0.07,-0.111 0.045,-0.18 0.045,-0.269 c 0,-0.092 0.023,-0.162 0.069,-0.212 0.045,-0.05 0.108,-0.075 0.189,-0.075 0.077,0 0.137,0.022 0.18,0.066 0.043,0.044 0.065,0.104 0.065,0.182 v 0.072 H 0.196 c 0.001,0.042 0.014,0.076 0.037,0.099 0.024,0.024 0.057,0.036 0.099,0.036 0.033,0 0.064,-0.003 0.093,-0.01 0.03,-0.007 0.06,-0.018 0.092,-0.033 v 0.115 C 0.491,-0.016 0.463,-0.006 0.434,0 0.404,0.007 0.368,0.01 0.325,0.01 Z" />
                </g>
                <g
   id="g7118"
   transform="matrix(16,0,0,16,144.912,44.4741)">
                    <path
   id="path7116"
   style="fill:#2f2f2f;fill-rule:nonzero"
   d="M 0.567,0 H 0.418 v -0.319 c 0,-0.039 -0.007,-0.069 -0.02,-0.088 -0.013,-0.02 -0.034,-0.03 -0.062,-0.03 -0.038,0 -0.066,0.014 -0.083,0.042 -0.017,0.028 -0.026,0.074 -0.026,0.138 V 0 H 0.078 v -0.546 h 0.114 l 0.02,0.07 H 0.22 c 0.015,-0.025 0.036,-0.045 0.064,-0.059 0.027,-0.014 0.059,-0.021 0.095,-0.021 0.082,0 0.137,0.027 0.166,0.08 h 0.013 c 0.015,-0.025 0.036,-0.045 0.065,-0.059 0.028,-0.014 0.06,-0.021 0.096,-0.021 0.062,0 0.109,0.016 0.141,0.047 0.031,0.032 0.047,0.083 0.047,0.153 V 0 H 0.758 v -0.319 c 0,-0.039 -0.007,-0.069 -0.02,-0.088 -0.013,-0.02 -0.034,-0.03 -0.062,-0.03 -0.037,0 -0.064,0.013 -0.082,0.039 -0.018,0.026 -0.027,0.067 -0.027,0.124 z" />
                </g>
                <g
   id="g7122"
   transform="matrix(16,0,0,16,160.623,44.4741)">
                    <path
   id="path7120"
   style="fill:#2f2f2f;fill-rule:nonzero"
   d="M 0.378,0.01 C 0.314,0.01 0.264,-0.014 0.227,-0.06 H 0.219 c 0.005,0.046 0.008,0.072 0.008,0.079 V 0.24 H 0.078 v -0.786 h 0.121 l 0.021,0.071 h 0.007 c 0.035,-0.054 0.086,-0.081 0.155,-0.081 0.064,0 0.115,0.025 0.151,0.075 0.037,0.049 0.055,0.119 0.055,0.207 0,0.058 -0.009,0.109 -0.026,0.152 C 0.545,-0.079 0.521,-0.046 0.489,-0.024 0.458,-0.001 0.421,0.01 0.378,0.01 Z M 0.334,-0.437 c -0.037,0 -0.064,0.011 -0.081,0.034 -0.017,0.023 -0.025,0.06 -0.026,0.112 v 0.016 c 0,0.059 0.009,0.101 0.026,0.126 0.018,0.025 0.045,0.038 0.083,0.038 0.067,0 0.1,-0.055 0.1,-0.165 0,-0.054 -0.008,-0.094 -0.025,-0.121 -0.016,-0.027 -0.042,-0.04 -0.077,-0.04 z" />
                </g>
                <g
   id="g7126"
   transform="matrix(16,0,0,16,170.748,44.4741)">
                    <path
   id="path7124"
   style="fill:#2f2f2f;fill-rule:nonzero"
   d="m 0.304,-0.45 c -0.031,0 -0.056,0.01 -0.074,0.03 -0.018,0.02 -0.028,0.048 -0.031,0.085 H 0.408 C 0.408,-0.372 0.398,-0.4 0.379,-0.42 0.361,-0.44 0.336,-0.45 0.304,-0.45 Z M 0.325,0.01 C 0.237,0.01 0.169,-0.014 0.119,-0.063 0.07,-0.111 0.045,-0.18 0.045,-0.269 c 0,-0.092 0.023,-0.162 0.069,-0.212 0.045,-0.05 0.108,-0.075 0.189,-0.075 0.077,0 0.137,0.022 0.18,0.066 0.043,0.044 0.065,0.104 0.065,0.182 v 0.072 H 0.196 c 0.001,0.042 0.014,0.076 0.037,0.099 0.024,0.024 0.057,0.036 0.099,0.036 0.033,0 0.064,-0.003 0.093,-0.01 0.03,-0.007 0.06,-0.018 0.092,-0.033 v 0.115 C 0.491,-0.016 0.463,-0.006 0.434,0 0.404,0.007 0.368,0.01 0.325,0.01 Z" />
                </g>
                <g
   id="g7130"
   transform="matrix(16,0,0,16,180.201,44.4741)">
                    <path
   id="path7128"
   style="fill:#2f2f2f;fill-rule:nonzero"
   d="m 0.383,-0.556 c 0.02,0 0.037,0.001 0.05,0.004 l -0.011,0.14 C 0.41,-0.415 0.395,-0.417 0.378,-0.417 c -0.048,0 -0.085,0.012 -0.111,0.037 -0.027,0.024 -0.04,0.058 -0.04,0.102 V 0 H 0.078 v -0.546 h 0.113 l 0.022,0.092 H 0.22 c 0.017,-0.031 0.04,-0.055 0.069,-0.074 0.029,-0.019 0.06,-0.028 0.094,-0.028 z" />
                </g>
                <g
   id="g7134"
   transform="matrix(16,0,0,16,187.467,44.4741)">
                    <path
   id="path7132"
   style="fill:#2f2f2f;fill-rule:nonzero"
   d="M 0.425,0 0.396,-0.074 H 0.392 C 0.367,-0.043 0.341,-0.021 0.315,-0.009 0.288,0.004 0.254,0.01 0.211,0.01 0.159,0.01 0.117,-0.005 0.087,-0.035 0.057,-0.065 0.042,-0.108 0.042,-0.163 c 0,-0.058 0.02,-0.101 0.061,-0.128 0.04,-0.028 0.101,-0.043 0.183,-0.046 L 0.381,-0.34 v -0.024 c 0,-0.055 -0.028,-0.083 -0.085,-0.083 -0.044,0 -0.095,0.013 -0.154,0.04 L 0.093,-0.508 c 0.063,-0.033 0.132,-0.049 0.209,-0.049 0.073,0 0.129,0.016 0.168,0.048 0.039,0.032 0.059,0.08 0.059,0.145 V 0 Z M 0.381,-0.253 0.323,-0.251 c -0.043,0.001 -0.075,0.009 -0.096,0.023 -0.022,0.015 -0.032,0.037 -0.032,0.066 0,0.042 0.024,0.063 0.072,0.063 0.035,0 0.062,-0.01 0.083,-0.03 0.021,-0.02 0.031,-0.046 0.031,-0.079 z" />
                </g>
                <g
   id="g7138"
   transform="matrix(16,0,0,16,197.131,44.4741)">
                    <path
   id="path7136"
   style="fill:#2f2f2f;fill-rule:nonzero"
   d="m 0.308,-0.109 c 0.026,0 0.057,-0.006 0.094,-0.017 v 0.111 C 0.365,0.001 0.319,0.01 0.265,0.01 0.206,0.01 0.162,-0.005 0.135,-0.035 0.108,-0.066 0.094,-0.111 0.094,-0.171 V -0.434 H 0.023 v -0.063 l 0.082,-0.05 0.043,-0.115 h 0.095 v 0.116 h 0.153 v 0.112 H 0.243 v 0.263 c 0,0.021 0.006,0.037 0.018,0.047 0.012,0.01 0.028,0.015 0.047,0.015 z" />
                </g>
                <g
   id="g7142"
   transform="matrix(16,0,0,16,204.076,44.4741)">
                    <path
   id="path7140"
   style="fill:#2f2f2f;fill-rule:nonzero"
   d="M 0.465,0 0.445,-0.07 H 0.437 C 0.421,-0.044 0.398,-0.025 0.369,-0.011 0.34,0.003 0.306,0.01 0.269,0.01 0.205,0.01 0.157,-0.007 0.124,-0.042 0.091,-0.076 0.075,-0.125 0.075,-0.19 v -0.356 h 0.149 v 0.319 c 0,0.039 0.007,0.069 0.021,0.089 0.014,0.019 0.036,0.029 0.067,0.029 0.042,0 0.072,-0.014 0.09,-0.042 C 0.421,-0.178 0.43,-0.225 0.43,-0.289 V -0.546 H 0.579 V 0 Z" />
                </g>
                <g
   id="g7146"
   transform="matrix(16,0,0,16,214.592,44.4741)">
                    <path
   id="path7144"
   style="fill:#2f2f2f;fill-rule:nonzero"
   d="m 0.383,-0.556 c 0.02,0 0.037,0.001 0.05,0.004 l -0.011,0.14 C 0.41,-0.415 0.395,-0.417 0.378,-0.417 c -0.048,0 -0.085,0.012 -0.111,0.037 -0.027,0.024 -0.04,0.058 -0.04,0.102 V 0 H 0.078 v -0.546 h 0.113 l 0.022,0.092 H 0.22 c 0.017,-0.031 0.04,-0.055 0.069,-0.074 0.029,-0.019 0.06,-0.028 0.094,-0.028 z" />
                </g>
                <g
   id="g7150"
   transform="matrix(16,0,0,16,221.858,44.4741)">
                    <path
   id="path7148"
   style="fill:#2f2f2f;fill-rule:nonzero"
   d="m 0.304,-0.45 c -0.031,0 -0.056,0.01 -0.074,0.03 -0.018,0.02 -0.028,0.048 -0.031,0.085 H 0.408 C 0.408,-0.372 0.398,-0.4 0.379,-0.42 0.361,-0.44 0.336,-0.45 0.304,-0.45 Z M 0.325,0.01 C 0.237,0.01 0.169,-0.014 0.119,-0.063 0.07,-0.111 0.045,-0.18 0.045,-0.269 c 0,-0.092 0.023,-0.162 0.069,-0.212 0.045,-0.05 0.108,-0.075 0.189,-0.075 0.077,0 0.137,0.022 0.18,0.066 0.043,0.044 0.065,0.104 0.065,0.182 v 0.072 H 0.196 c 0.001,0.042 0.014,0.076 0.037,0.099 0.024,0.024 0.057,0.036 0.099,0.036 0.033,0 0.064,-0.003 0.093,-0.01 0.03,-0.007 0.06,-0.018 0.092,-0.033 v 0.115 C 0.491,-0.016 0.463,-0.006 0.434,0 0.404,0.007 0.368,0.01 0.325,0.01 Z" />
                </g>
                <g
   id="g7154"
   transform="matrix(16,0,0,16,235.467,44.4741)">
                    <path
   id="path7152"
   style="fill:#2f2f2f;fill-rule:nonzero"
   d="M 0.413,0 H 0.262 V -0.413 L 0.264,-0.481 0.266,-0.555 C 0.241,-0.53 0.224,-0.514 0.214,-0.506 L 0.132,-0.44 0.059,-0.531 0.289,-0.714 h 0.124 z" />
                </g>
            </g>
            <g
   id="g7182"
   transform="translate(98.1584,36.8753)">
                <g
   id="g7160"
   transform="matrix(16,0,0,16,145.128,238.171)">
                    <path
   id="path7158"
   style="fill:#449f47;fill-rule:nonzero"
   d="M 0.539,0 H 0.04 V -0.105 L 0.219,-0.286 C 0.272,-0.34 0.307,-0.378 0.323,-0.399 0.34,-0.42 0.351,-0.44 0.358,-0.458 0.366,-0.475 0.369,-0.494 0.369,-0.513 0.369,-0.542 0.361,-0.563 0.345,-0.577 0.33,-0.591 0.309,-0.598 0.282,-0.598 c -0.027,0 -0.054,0.006 -0.08,0.019 -0.026,0.013 -0.054,0.031 -0.082,0.054 L 0.038,-0.622 c 0.035,-0.03 0.064,-0.051 0.087,-0.064 0.024,-0.012 0.049,-0.021 0.076,-0.028 0.028,-0.007 0.058,-0.01 0.092,-0.01 0.045,0 0.084,0.008 0.118,0.024 0.034,0.017 0.061,0.039 0.08,0.069 0.019,0.029 0.028,0.062 0.028,0.1 0,0.033 -0.006,0.064 -0.017,0.093 C 0.49,-0.409 0.472,-0.38 0.448,-0.35 0.424,-0.319 0.381,-0.276 0.32,-0.22 l -0.092,0.086 v 0.007 h 0.311 z" />
                </g>
                <g
   id="g7164"
   transform="matrix(16,0,0,16,154.26,238.171)">
                    <path
   id="path7162"
   style="fill:#449f47;fill-rule:nonzero"
   d="m 0.286,-0.723 c 0.068,0 0.124,0.015 0.165,0.046 0.042,0.032 0.063,0.073 0.063,0.126 0,0.037 -0.01,0.069 -0.03,0.098 -0.02,0.028 -0.053,0.054 -0.098,0.076 0.054,0.029 0.092,0.059 0.115,0.09 0.023,0.031 0.035,0.065 0.035,0.102 0,0.059 -0.023,0.106 -0.069,0.141 C 0.421,-0.008 0.361,0.01 0.286,0.01 0.208,0.01 0.147,-0.007 0.102,-0.04 0.057,-0.073 0.035,-0.12 0.035,-0.181 0.035,-0.222 0.046,-0.258 0.068,-0.29 0.089,-0.321 0.124,-0.349 0.172,-0.373 0.131,-0.399 0.102,-0.426 0.084,-0.456 0.066,-0.485 0.057,-0.517 0.057,-0.552 c 0,-0.051 0.021,-0.092 0.064,-0.124 0.042,-0.031 0.097,-0.047 0.165,-0.047 z M 0.175,-0.19 c 0,0.028 0.01,0.05 0.029,0.065 0.02,0.016 0.046,0.024 0.08,0.024 0.038,0 0.066,-0.008 0.084,-0.024 0.019,-0.016 0.028,-0.038 0.028,-0.064 0,-0.022 -0.009,-0.042 -0.028,-0.061 C 0.35,-0.269 0.32,-0.29 0.279,-0.311 0.209,-0.279 0.175,-0.239 0.175,-0.19 Z m 0.11,-0.423 c -0.026,0 -0.046,0.007 -0.062,0.02 -0.016,0.013 -0.024,0.031 -0.024,0.053 0,0.019 0.006,0.037 0.019,0.052 0.013,0.016 0.035,0.032 0.068,0.048 0.032,-0.015 0.054,-0.03 0.067,-0.046 0.013,-0.015 0.019,-0.034 0.019,-0.054 0,-0.023 -0.008,-0.04 -0.024,-0.053 -0.017,-0.013 -0.037,-0.02 -0.063,-0.02 z" />
                </g>
                <g
   id="g7168"
   transform="matrix(16,0,0,16,163.393,238.171)">
                    <path
   id="path7166"
   style="fill:#449f47;fill-rule:nonzero"
   d="m 0.057,-0.07 c 0,-0.027 0.007,-0.048 0.022,-0.062 0.015,-0.014 0.036,-0.021 0.064,-0.021 0.027,0 0.048,0.007 0.063,0.022 0.015,0.014 0.022,0.034 0.022,0.061 0,0.026 -0.007,0.046 -0.022,0.061 C 0.191,0.006 0.17,0.013 0.143,0.013 0.116,0.013 0.095,0.006 0.08,-0.009 0.065,-0.023 0.057,-0.043 0.057,-0.07 Z" />
                </g>
                <g
   id="g7172"
   transform="matrix(16,0,0,16,167.956,238.171)">
                    <path
   id="path7170"
   style="fill:#449f47;fill-rule:nonzero"
   d="M 0.555,-0.148 H 0.469 V 0 H 0.322 V -0.148 H 0.017 V -0.253 L 0.33,-0.714 h 0.139 v 0.449 H 0.555 Z M 0.322,-0.265 v -0.121 c 0,-0.02 0.001,-0.05 0.002,-0.088 0.002,-0.039 0.003,-0.061 0.004,-0.067 H 0.324 C 0.312,-0.514 0.298,-0.488 0.281,-0.463 L 0.15,-0.265 Z" />
                </g>
                <g
   id="g7176"
   transform="matrix(16,0,0,16,177.088,238.171)">
                    <path
   id="path7174"
   style="fill:#449f47;fill-rule:nonzero"
   d="m 0.045,-0.555 c 0,-0.03 0.007,-0.058 0.022,-0.084 0.015,-0.026 0.036,-0.047 0.062,-0.062 0.026,-0.015 0.054,-0.023 0.085,-0.023 0.03,0 0.058,0.007 0.084,0.022 0.026,0.015 0.047,0.036 0.062,0.062 0.015,0.027 0.023,0.055 0.023,0.085 0,0.03 -0.008,0.058 -0.023,0.085 -0.015,0.026 -0.036,0.046 -0.062,0.061 -0.026,0.014 -0.054,0.022 -0.084,0.022 -0.047,0 -0.087,-0.016 -0.12,-0.049 C 0.061,-0.468 0.045,-0.508 0.045,-0.555 Z m 0.093,0 c 0,0.021 0.007,0.038 0.022,0.053 0.014,0.015 0.032,0.022 0.054,0.022 0.021,0 0.039,-0.007 0.054,-0.022 0.015,-0.015 0.022,-0.033 0.022,-0.053 0,-0.021 -0.007,-0.039 -0.022,-0.054 -0.015,-0.015 -0.033,-0.023 -0.054,-0.023 -0.021,0 -0.039,0.008 -0.054,0.023 -0.014,0.015 -0.022,0.033 -0.022,0.054 z" />
                </g>
                <g
   id="g7180"
   transform="matrix(16,0,0,16,183.94,238.171)">
                    <path
   id="path7178"
   style="fill:#449f47;fill-rule:nonzero"
   d="m 0.393,-0.598 c -0.057,0 -0.101,0.021 -0.132,0.064 -0.032,0.043 -0.047,0.103 -0.047,0.179 0,0.159 0.06,0.239 0.179,0.239 0.05,0 0.111,-0.013 0.182,-0.038 v 0.127 C 0.517,-0.002 0.451,0.01 0.379,0.01 0.275,0.01 0.196,-0.022 0.141,-0.085 0.086,-0.148 0.058,-0.238 0.058,-0.356 c 0,-0.074 0.014,-0.139 0.041,-0.195 0.027,-0.056 0.065,-0.099 0.116,-0.128 0.051,-0.03 0.11,-0.045 0.178,-0.045 0.069,0 0.139,0.017 0.209,0.05 L 0.553,-0.551 C 0.527,-0.563 0.5,-0.575 0.473,-0.584 0.446,-0.593 0.419,-0.598 0.393,-0.598 Z" />
                </g>
            </g>
            <g
   id="g7186"
   transform="translate(86.7608,31.152)">
                <path
   id="path7184"
   style="fill:none;stroke:#d8d8d8;stroke-width:1px"
   d="M 124.787,78.59 H 237.318" />
            </g>
            <g
   id="g7190"
   transform="translate(86.7608,53.2555)">
                <path
   id="path7188"
   style="fill:none;stroke:#d8d8d8;stroke-width:1px"
   d="M 124.787,78.59 H 237.318" />
            </g>
            <g
   id="g7194"
   transform="translate(86.7608,63.6882)">
                <path
   id="path7192"
   style="fill:none;stroke:#ff0000;stroke-width:1px"
   d="M 124.787,78.59 H 237.318" />
            </g>
            <g
   id="g7198"
   transform="translate(86.7608,75.2249)">
                <path
   id="path7196"
   style="fill:none;stroke:#d8d8d8;stroke-width:1px"
   d="M 124.787,78.59 H 237.318" />
            </g>
            <g
   id="g7202"
   transform="translate(86.7608,97.3149)">
                <path
   id="path7200"
   style="fill:none;stroke:#d8d8d8;stroke-width:1px"
   d="M 124.787,78.59 H 237.318" />
            </g>
            <g
   id="g7206"
   transform="translate(86.7608,118.327)">
                <path
   id="path7204"
   style="fill:none;stroke:#d8d8d8;stroke-width:1px"
   d="M 124.787,78.59 H 237.318" />
            </g>
            <g
   id="g7210"
   transform="translate(86.7608,129.859)">
                <path
   id="path7208"
   style="fill:none;stroke:#0000ff;stroke-width:1px"
   d="M 124.787,78.59 H 237.318" />
            </g>
            <g
   id="g7214"
   transform="translate(86.7608,140.367)">
                <path
   id="path7212"
   style="fill:none;stroke:#d8d8d8;stroke-width:1px"
   d="M 124.787,78.59 H 237.318" />
            </g>
            <g
   id="g7218"
   transform="translate(86.7608,162.368)">
                <path
   id="path7216"
   style="fill:none;stroke:#c0d0e0;stroke-width:1px"
   d="M 124.787,78.59 H 237.318 V 88.784" />
            </g>
            <g
   id="g7222"
   transform="translate(86.7608,31.152)">
                <path
   id="path7220"
   style="fill:none;stroke:#c0d0e0;stroke-width:1px"
   d="M 124.787,209.807 V 220" />
            </g>
            <g
   id="g7232"
   transform="translate(94.1158,37.8873)">
                <g
   id="g7226"
   transform="matrix(12,0,0,12,97.7894,71.7378)">
                    <path
   id="path7224"
   style="fill:#222222;fill-rule:nonzero"
   d="m 0.272,-0.436 c 0.075,0 0.134,0.019 0.177,0.056 0.044,0.037 0.065,0.088 0.065,0.153 0,0.074 -0.023,0.132 -0.07,0.174 C 0.397,-0.011 0.332,0.01 0.249,0.01 0.169,0.01 0.107,-0.003 0.065,-0.029 v -0.078 c 0.023,0.015 0.051,0.026 0.085,0.034 0.034,0.009 0.067,0.013 0.1,0.013 0.057,0 0.102,-0.014 0.134,-0.041 0.031,-0.027 0.047,-0.066 0.047,-0.117 0,-0.099 -0.061,-0.149 -0.183,-0.149 -0.031,0 -0.072,0.005 -0.124,0.014 L 0.082,-0.38 0.109,-0.714 h 0.355 v 0.075 H 0.178 L 0.16,-0.425 c 0.038,-0.007 0.075,-0.011 0.112,-0.011 z" />
                </g>
                <g
   id="g7230"
   transform="matrix(12,0,0,12,104.651,71.7378)">
                    <path
   id="path7228"
   style="fill:#222222;fill-rule:nonzero"
   d="m 0.522,-0.358 c 0,0.123 -0.019,0.216 -0.058,0.276 C 0.425,-0.021 0.365,0.01 0.285,0.01 0.208,0.01 0.15,-0.021 0.11,-0.084 0.07,-0.146 0.05,-0.237 0.05,-0.358 c 0,-0.124 0.019,-0.217 0.058,-0.277 0.039,-0.06 0.098,-0.09 0.177,-0.09 0.078,0 0.136,0.031 0.177,0.094 0.04,0.063 0.06,0.154 0.06,0.273 z m -0.39,0 c 0,0.104 0.012,0.18 0.036,0.227 0.025,0.047 0.064,0.071 0.117,0.071 0.054,0 0.093,-0.024 0.118,-0.072 0.024,-0.048 0.036,-0.123 0.036,-0.226 0,-0.102 -0.012,-0.178 -0.036,-0.225 -0.025,-0.048 -0.064,-0.072 -0.118,-0.072 -0.053,0 -0.092,0.024 -0.117,0.071 -0.024,0.047 -0.036,0.122 -0.036,0.226 z" />
                </g>
            </g>
            <g
   id="g7242"
   transform="translate(94.1158,60.108)">
                <g
   id="g7236"
   transform="matrix(12,0,0,12,97.7894,71.7378)">
                    <path
   id="path7234"
   style="fill:#222222;fill-rule:nonzero"
   d="M 0.552,-0.164 H 0.446 V 0 H 0.368 V -0.164 H 0.021 V -0.235 L 0.36,-0.718 h 0.086 v 0.48 H 0.552 Z M 0.368,-0.238 v -0.237 c 0,-0.047 0.002,-0.099 0.005,-0.158 H 0.369 c -0.015,0.031 -0.03,0.057 -0.044,0.078 l -0.223,0.317 z" />
                </g>
                <g
   id="g7240"
   transform="matrix(12,0,0,12,104.651,71.7378)">
                    <path
   id="path7238"
   style="fill:#222222;fill-rule:nonzero"
   d="m 0.522,-0.358 c 0,0.123 -0.019,0.216 -0.058,0.276 C 0.425,-0.021 0.365,0.01 0.285,0.01 0.208,0.01 0.15,-0.021 0.11,-0.084 0.07,-0.146 0.05,-0.237 0.05,-0.358 c 0,-0.124 0.019,-0.217 0.058,-0.277 0.039,-0.06 0.098,-0.09 0.177,-0.09 0.078,0 0.136,0.031 0.177,0.094 0.04,0.063 0.06,0.154 0.06,0.273 z m -0.39,0 c 0,0.104 0.012,0.18 0.036,0.227 0.025,0.047 0.064,0.071 0.117,0.071 0.054,0 0.093,-0.024 0.118,-0.072 0.024,-0.048 0.036,-0.123 0.036,-0.226 0,-0.102 -0.012,-0.178 -0.036,-0.225 -0.025,-0.048 -0.064,-0.072 -0.118,-0.072 -0.053,0 -0.092,0.024 -0.117,0.071 -0.024,0.047 -0.036,0.122 -0.036,0.226 z" />
                </g>
            </g>
            <g
   id="g7252"
   transform="translate(94.1158,81.9601)">
                <g
   id="g7246"
   transform="matrix(12,0,0,12,97.7894,71.7378)">
                    <path
   id="path7244"
   style="fill:#222222;fill-rule:nonzero"
   d="m 0.491,-0.546 c 0,0.046 -0.013,0.083 -0.038,0.112 -0.026,0.029 -0.062,0.048 -0.109,0.058 v 0.004 c 0.058,0.007 0.1,0.025 0.128,0.055 0.027,0.029 0.041,0.067 0.041,0.115 0,0.068 -0.023,0.12 -0.071,0.157 C 0.395,-0.009 0.328,0.01 0.241,0.01 0.203,0.01 0.169,0.007 0.137,0.001 0.106,-0.004 0.076,-0.014 0.046,-0.029 v -0.077 c 0.031,0.015 0.064,0.027 0.099,0.035 0.035,0.008 0.068,0.012 0.099,0.012 0.124,0 0.185,-0.048 0.185,-0.145 0,-0.087 -0.068,-0.13 -0.204,-0.13 h -0.07 v -0.07 h 0.071 c 0.056,0 0.1,-0.012 0.132,-0.037 0.033,-0.024 0.049,-0.058 0.049,-0.102 0,-0.035 -0.012,-0.062 -0.036,-0.082 -0.024,-0.02 -0.056,-0.03 -0.097,-0.03 -0.031,0 -0.061,0.004 -0.088,0.013 -0.028,0.008 -0.06,0.024 -0.095,0.047 L 0.05,-0.65 c 0.029,-0.023 0.063,-0.041 0.101,-0.054 0.038,-0.014 0.079,-0.02 0.121,-0.02 0.069,0 0.123,0.016 0.162,0.047 0.038,0.032 0.057,0.076 0.057,0.131 z" />
                </g>
                <g
   id="g7250"
   transform="matrix(12,0,0,12,104.651,71.7378)">
                    <path
   id="path7248"
   style="fill:#222222;fill-rule:nonzero"
   d="m 0.522,-0.358 c 0,0.123 -0.019,0.216 -0.058,0.276 C 0.425,-0.021 0.365,0.01 0.285,0.01 0.208,0.01 0.15,-0.021 0.11,-0.084 0.07,-0.146 0.05,-0.237 0.05,-0.358 c 0,-0.124 0.019,-0.217 0.058,-0.277 0.039,-0.06 0.098,-0.09 0.177,-0.09 0.078,0 0.136,0.031 0.177,0.094 0.04,0.063 0.06,0.154 0.06,0.273 z m -0.39,0 c 0,0.104 0.012,0.18 0.036,0.227 0.025,0.047 0.064,0.071 0.117,0.071 0.054,0 0.093,-0.024 0.118,-0.072 0.024,-0.048 0.036,-0.123 0.036,-0.226 0,-0.102 -0.012,-0.178 -0.036,-0.225 -0.025,-0.048 -0.064,-0.072 -0.118,-0.072 -0.053,0 -0.092,0.024 -0.117,0.071 -0.024,0.047 -0.036,0.122 -0.036,0.226 z" />
                </g>
            </g>
            <g
   id="g7262"
   transform="translate(94.1158,104.05)">
                <g
   id="g7256"
   transform="matrix(12,0,0,12,97.7894,71.7378)">
                    <path
   id="path7254"
   style="fill:#222222;fill-rule:nonzero"
   d="M 0.518,0 H 0.049 V -0.07 L 0.237,-0.259 C 0.294,-0.317 0.332,-0.358 0.35,-0.383 0.368,-0.408 0.382,-0.432 0.391,-0.455 0.4,-0.479 0.405,-0.504 0.405,-0.531 0.405,-0.569 0.393,-0.599 0.37,-0.621 0.347,-0.644 0.315,-0.655 0.274,-0.655 0.244,-0.655 0.216,-0.65 0.19,-0.64 0.163,-0.63 0.134,-0.613 0.101,-0.587 L 0.058,-0.642 c 0.066,-0.055 0.137,-0.082 0.215,-0.082 0.067,0 0.12,0.017 0.158,0.051 0.038,0.035 0.057,0.081 0.057,0.139 0,0.045 -0.013,0.09 -0.038,0.134 -0.026,0.044 -0.073,0.1 -0.143,0.168 l -0.156,0.153 v 0.004 h 0.367 z" />
                </g>
                <g
   id="g7260"
   transform="matrix(12,0,0,12,104.651,71.7378)">
                    <path
   id="path7258"
   style="fill:#222222;fill-rule:nonzero"
   d="m 0.522,-0.358 c 0,0.123 -0.019,0.216 -0.058,0.276 C 0.425,-0.021 0.365,0.01 0.285,0.01 0.208,0.01 0.15,-0.021 0.11,-0.084 0.07,-0.146 0.05,-0.237 0.05,-0.358 c 0,-0.124 0.019,-0.217 0.058,-0.277 0.039,-0.06 0.098,-0.09 0.177,-0.09 0.078,0 0.136,0.031 0.177,0.094 0.04,0.063 0.06,0.154 0.06,0.273 z m -0.39,0 c 0,0.104 0.012,0.18 0.036,0.227 0.025,0.047 0.064,0.071 0.117,0.071 0.054,0 0.093,-0.024 0.118,-0.072 0.024,-0.048 0.036,-0.123 0.036,-0.226 0,-0.102 -0.012,-0.178 -0.036,-0.225 -0.025,-0.048 -0.064,-0.072 -0.118,-0.072 -0.053,0 -0.092,0.024 -0.117,0.071 -0.024,0.047 -0.036,0.122 -0.036,0.226 z" />
                </g>
            </g>
            <g
   id="g7272"
   transform="translate(94.1158,125.062)">
                <g
   id="g7266"
   transform="matrix(12,0,0,12,97.7894,71.7378)">
                    <path
   id="path7264"
   style="fill:#222222;fill-rule:nonzero"
   d="M 0.349,0 H 0.27 v -0.509 c 0,-0.042 0.001,-0.082 0.004,-0.12 C 0.267,-0.622 0.259,-0.615 0.251,-0.607 0.243,-0.6 0.204,-0.568 0.135,-0.512 L 0.092,-0.568 0.281,-0.714 h 0.068 z" />
                </g>
                <g
   id="g7270"
   transform="matrix(12,0,0,12,104.651,71.7378)">
                    <path
   id="path7268"
   style="fill:#222222;fill-rule:nonzero"
   d="m 0.522,-0.358 c 0,0.123 -0.019,0.216 -0.058,0.276 C 0.425,-0.021 0.365,0.01 0.285,0.01 0.208,0.01 0.15,-0.021 0.11,-0.084 0.07,-0.146 0.05,-0.237 0.05,-0.358 c 0,-0.124 0.019,-0.217 0.058,-0.277 0.039,-0.06 0.098,-0.09 0.177,-0.09 0.078,0 0.136,0.031 0.177,0.094 0.04,0.063 0.06,0.154 0.06,0.273 z m -0.39,0 c 0,0.104 0.012,0.18 0.036,0.227 0.025,0.047 0.064,0.071 0.117,0.071 0.054,0 0.093,-0.024 0.118,-0.072 0.024,-0.048 0.036,-0.123 0.036,-0.226 0,-0.102 -0.012,-0.178 -0.036,-0.225 -0.025,-0.048 -0.064,-0.072 -0.118,-0.072 -0.053,0 -0.092,0.024 -0.117,0.071 -0.024,0.047 -0.036,0.122 -0.036,0.226 z" />
                </g>
            </g>
            <g
   id="g7278"
   transform="translate(94.7427,147.103)">
                <g
   id="g7276"
   transform="matrix(12,0,0,12,104.024,71.7378)">
                    <path
   id="path7274"
   style="fill:#222222;fill-rule:nonzero"
   d="m 0.522,-0.358 c 0,0.123 -0.019,0.216 -0.058,0.276 C 0.425,-0.021 0.365,0.01 0.285,0.01 0.208,0.01 0.15,-0.021 0.11,-0.084 0.07,-0.146 0.05,-0.237 0.05,-0.358 c 0,-0.124 0.019,-0.217 0.058,-0.277 0.039,-0.06 0.098,-0.09 0.177,-0.09 0.078,0 0.136,0.031 0.177,0.094 0.04,0.063 0.06,0.154 0.06,0.273 z m -0.39,0 c 0,0.104 0.012,0.18 0.036,0.227 0.025,0.047 0.064,0.071 0.117,0.071 0.054,0 0.093,-0.024 0.118,-0.072 0.024,-0.048 0.036,-0.123 0.036,-0.226 0,-0.102 -0.012,-0.178 -0.036,-0.225 -0.025,-0.048 -0.064,-0.072 -0.118,-0.072 -0.053,0 -0.092,0.024 -0.117,0.071 -0.024,0.047 -0.036,0.122 -0.036,0.226 z" />
                </g>
            </g>
            <g
   id="g7292"
   transform="translate(90.2545,169.104)">
                <g
   id="g7282"
   transform="matrix(12,0,0,12,97.7894,71.7378)">
                    <rect
   id="rect7280"
   style="fill:#222222;fill-rule:nonzero"
   height="0.074000001"
   width="0.23999999"
   y="-0.30500001"
   x="0.041000001" />
                </g>
                <g
   id="g7286"
   transform="matrix(12,0,0,12,101.651,71.7378)">
                    <path
   id="path7284"
   style="fill:#222222;fill-rule:nonzero"
   d="M 0.349,0 H 0.27 v -0.509 c 0,-0.042 0.001,-0.082 0.004,-0.12 C 0.267,-0.622 0.259,-0.615 0.251,-0.607 0.243,-0.6 0.204,-0.568 0.135,-0.512 L 0.092,-0.568 0.281,-0.714 h 0.068 z" />
                </g>
                <g
   id="g7290"
   transform="matrix(12,0,0,12,108.512,71.7378)">
                    <path
   id="path7288"
   style="fill:#222222;fill-rule:nonzero"
   d="m 0.522,-0.358 c 0,0.123 -0.019,0.216 -0.058,0.276 C 0.425,-0.021 0.365,0.01 0.285,0.01 0.208,0.01 0.15,-0.021 0.11,-0.084 0.07,-0.146 0.05,-0.237 0.05,-0.358 c 0,-0.124 0.019,-0.217 0.058,-0.277 0.039,-0.06 0.098,-0.09 0.177,-0.09 0.078,0 0.136,0.031 0.177,0.094 0.04,0.063 0.06,0.154 0.06,0.273 z m -0.39,0 c 0,0.104 0.012,0.18 0.036,0.227 0.025,0.047 0.064,0.071 0.117,0.071 0.054,0 0.093,-0.024 0.118,-0.072 0.024,-0.048 0.036,-0.123 0.036,-0.226 0,-0.102 -0.012,-0.178 -0.036,-0.225 -0.025,-0.048 -0.064,-0.072 -0.118,-0.072 -0.053,0 -0.092,0.024 -0.117,0.071 -0.024,0.047 -0.036,0.122 -0.036,0.226 z" />
                </g>
            </g>
            <g
   id="g7296"
   transform="translate(86.7608,31.152)">
                <rect
   id="rect7294"
   style="fill:#449f47"
   height="61.459"
   width="31.511999"
   y="126.347"
   x="165.845" />
            </g>
        </g>
        
        
        
        
        
        
        
        
    </g>
</svg>