<?xml version="1.0" encoding="UTF-8" standalone="no"?>
<!DOCTYPE svg PUBLIC "-//W3C//DTD SVG 1.1//EN" "http://www.w3.org/Graphics/SVG/1.1/DTD/svg11.dtd">
<svg width="100%" height="100%" viewBox="0 0 337 340" version="1.1" xmlns="http://www.w3.org/2000/svg" xmlns:xlink="http://www.w3.org/1999/xlink" xml:space="preserve" xmlns:serif="http://www.serif.com/" style="fill-rule:evenodd;clip-rule:evenodd;stroke-linejoin:round;stroke-miterlimit:1.5;">
    <g id="Artboard1" transform="matrix(1.94798,0,0,1.48472,-70.1272,-127.686)">
        <rect x="36" y="86" width="173" height="229" style="fill:none;"/>
        <g transform="matrix(0.513353,0,0,0.673529,-51.1713,80.5329)">
            <g transform="matrix(1,0,0,1,82.0028,44.9248)">
                <g transform="matrix(16,0,0,16,126.194,44.4741)">
                    <path d="M0.365,0L0.214,0L0.214,-0.588L0.02,-0.588L0.02,-0.714L0.559,-0.714L0.559,-0.588L0.365,-0.588L0.365,0Z" style="fill:rgb(47,47,47);fill-rule:nonzero;"/>
                </g>
                <g transform="matrix(16,0,0,16,135.459,44.4741)">
                    <path d="M0.304,-0.45C0.273,-0.45 0.248,-0.44 0.23,-0.42C0.212,-0.4 0.202,-0.372 0.199,-0.335L0.408,-0.335C0.408,-0.372 0.398,-0.4 0.379,-0.42C0.361,-0.44 0.336,-0.45 0.304,-0.45ZM0.325,0.01C0.237,0.01 0.169,-0.014 0.119,-0.063C0.07,-0.111 0.045,-0.18 0.045,-0.269C0.045,-0.361 0.068,-0.431 0.114,-0.481C0.159,-0.531 0.222,-0.556 0.303,-0.556C0.38,-0.556 0.44,-0.534 0.483,-0.49C0.526,-0.446 0.548,-0.386 0.548,-0.308L0.548,-0.236L0.196,-0.236C0.197,-0.194 0.21,-0.16 0.233,-0.137C0.257,-0.113 0.29,-0.101 0.332,-0.101C0.365,-0.101 0.396,-0.104 0.425,-0.111C0.455,-0.118 0.485,-0.129 0.517,-0.144L0.517,-0.029C0.491,-0.016 0.463,-0.006 0.434,0C0.404,0.007 0.368,0.01 0.325,0.01Z" style="fill:rgb(47,47,47);fill-rule:nonzero;"/>
                </g>
                <g transform="matrix(16,0,0,16,144.912,44.4741)">
                    <path d="M0.567,0L0.418,0L0.418,-0.319C0.418,-0.358 0.411,-0.388 0.398,-0.407C0.385,-0.427 0.364,-0.437 0.336,-0.437C0.298,-0.437 0.27,-0.423 0.253,-0.395C0.236,-0.367 0.227,-0.321 0.227,-0.257L0.227,0L0.078,0L0.078,-0.546L0.192,-0.546L0.212,-0.476L0.22,-0.476C0.235,-0.501 0.256,-0.521 0.284,-0.535C0.311,-0.549 0.343,-0.556 0.379,-0.556C0.461,-0.556 0.516,-0.529 0.545,-0.476L0.558,-0.476C0.573,-0.501 0.594,-0.521 0.623,-0.535C0.651,-0.549 0.683,-0.556 0.719,-0.556C0.781,-0.556 0.828,-0.54 0.86,-0.509C0.891,-0.477 0.907,-0.426 0.907,-0.356L0.907,0L0.758,0L0.758,-0.319C0.758,-0.358 0.751,-0.388 0.738,-0.407C0.725,-0.427 0.704,-0.437 0.676,-0.437C0.639,-0.437 0.612,-0.424 0.594,-0.398C0.576,-0.372 0.567,-0.331 0.567,-0.274L0.567,0Z" style="fill:rgb(47,47,47);fill-rule:nonzero;"/>
                </g>
                <g transform="matrix(16,0,0,16,160.623,44.4741)">
                    <path d="M0.378,0.01C0.314,0.01 0.264,-0.014 0.227,-0.06L0.219,-0.06C0.224,-0.014 0.227,0.012 0.227,0.019L0.227,0.24L0.078,0.24L0.078,-0.546L0.199,-0.546L0.22,-0.475L0.227,-0.475C0.262,-0.529 0.313,-0.556 0.382,-0.556C0.446,-0.556 0.497,-0.531 0.533,-0.481C0.57,-0.432 0.588,-0.362 0.588,-0.274C0.588,-0.216 0.579,-0.165 0.562,-0.122C0.545,-0.079 0.521,-0.046 0.489,-0.024C0.458,-0.001 0.421,0.01 0.378,0.01ZM0.334,-0.437C0.297,-0.437 0.27,-0.426 0.253,-0.403C0.236,-0.38 0.228,-0.343 0.227,-0.291L0.227,-0.275C0.227,-0.216 0.236,-0.174 0.253,-0.149C0.271,-0.124 0.298,-0.111 0.336,-0.111C0.403,-0.111 0.436,-0.166 0.436,-0.276C0.436,-0.33 0.428,-0.37 0.411,-0.397C0.395,-0.424 0.369,-0.437 0.334,-0.437Z" style="fill:rgb(47,47,47);fill-rule:nonzero;"/>
                </g>
                <g transform="matrix(16,0,0,16,170.748,44.4741)">
                    <path d="M0.304,-0.45C0.273,-0.45 0.248,-0.44 0.23,-0.42C0.212,-0.4 0.202,-0.372 0.199,-0.335L0.408,-0.335C0.408,-0.372 0.398,-0.4 0.379,-0.42C0.361,-0.44 0.336,-0.45 0.304,-0.45ZM0.325,0.01C0.237,0.01 0.169,-0.014 0.119,-0.063C0.07,-0.111 0.045,-0.18 0.045,-0.269C0.045,-0.361 0.068,-0.431 0.114,-0.481C0.159,-0.531 0.222,-0.556 0.303,-0.556C0.38,-0.556 0.44,-0.534 0.483,-0.49C0.526,-0.446 0.548,-0.386 0.548,-0.308L0.548,-0.236L0.196,-0.236C0.197,-0.194 0.21,-0.16 0.233,-0.137C0.257,-0.113 0.29,-0.101 0.332,-0.101C0.365,-0.101 0.396,-0.104 0.425,-0.111C0.455,-0.118 0.485,-0.129 0.517,-0.144L0.517,-0.029C0.491,-0.016 0.463,-0.006 0.434,0C0.404,0.007 0.368,0.01 0.325,0.01Z" style="fill:rgb(47,47,47);fill-rule:nonzero;"/>
                </g>
                <g transform="matrix(16,0,0,16,180.201,44.4741)">
                    <path d="M0.383,-0.556C0.403,-0.556 0.42,-0.555 0.433,-0.552L0.422,-0.412C0.41,-0.415 0.395,-0.417 0.378,-0.417C0.33,-0.417 0.293,-0.405 0.267,-0.38C0.24,-0.356 0.227,-0.322 0.227,-0.278L0.227,0L0.078,0L0.078,-0.546L0.191,-0.546L0.213,-0.454L0.22,-0.454C0.237,-0.485 0.26,-0.509 0.289,-0.528C0.318,-0.547 0.349,-0.556 0.383,-0.556Z" style="fill:rgb(47,47,47);fill-rule:nonzero;"/>
                </g>
                <g transform="matrix(16,0,0,16,187.467,44.4741)">
                    <path d="M0.425,0L0.396,-0.074L0.392,-0.074C0.367,-0.043 0.341,-0.021 0.315,-0.009C0.288,0.004 0.254,0.01 0.211,0.01C0.159,0.01 0.117,-0.005 0.087,-0.035C0.057,-0.065 0.042,-0.108 0.042,-0.163C0.042,-0.221 0.062,-0.264 0.103,-0.291C0.143,-0.319 0.204,-0.334 0.286,-0.337L0.381,-0.34L0.381,-0.364C0.381,-0.419 0.353,-0.447 0.296,-0.447C0.252,-0.447 0.201,-0.434 0.142,-0.407L0.093,-0.508C0.156,-0.541 0.225,-0.557 0.302,-0.557C0.375,-0.557 0.431,-0.541 0.47,-0.509C0.509,-0.477 0.529,-0.429 0.529,-0.364L0.529,0L0.425,0ZM0.381,-0.253L0.323,-0.251C0.28,-0.25 0.248,-0.242 0.227,-0.228C0.205,-0.213 0.195,-0.191 0.195,-0.162C0.195,-0.12 0.219,-0.099 0.267,-0.099C0.302,-0.099 0.329,-0.109 0.35,-0.129C0.371,-0.149 0.381,-0.175 0.381,-0.208L0.381,-0.253Z" style="fill:rgb(47,47,47);fill-rule:nonzero;"/>
                </g>
                <g transform="matrix(16,0,0,16,197.131,44.4741)">
                    <path d="M0.308,-0.109C0.334,-0.109 0.365,-0.115 0.402,-0.126L0.402,-0.015C0.365,0.001 0.319,0.01 0.265,0.01C0.206,0.01 0.162,-0.005 0.135,-0.035C0.108,-0.066 0.094,-0.111 0.094,-0.171L0.094,-0.434L0.023,-0.434L0.023,-0.497L0.105,-0.547L0.148,-0.662L0.243,-0.662L0.243,-0.546L0.396,-0.546L0.396,-0.434L0.243,-0.434L0.243,-0.171C0.243,-0.15 0.249,-0.134 0.261,-0.124C0.273,-0.114 0.289,-0.109 0.308,-0.109Z" style="fill:rgb(47,47,47);fill-rule:nonzero;"/>
                </g>
                <g transform="matrix(16,0,0,16,204.076,44.4741)">
                    <path d="M0.465,0L0.445,-0.07L0.437,-0.07C0.421,-0.044 0.398,-0.025 0.369,-0.011C0.34,0.003 0.306,0.01 0.269,0.01C0.205,0.01 0.157,-0.007 0.124,-0.042C0.091,-0.076 0.075,-0.125 0.075,-0.19L0.075,-0.546L0.224,-0.546L0.224,-0.227C0.224,-0.188 0.231,-0.158 0.245,-0.138C0.259,-0.119 0.281,-0.109 0.312,-0.109C0.354,-0.109 0.384,-0.123 0.402,-0.151C0.421,-0.178 0.43,-0.225 0.43,-0.289L0.43,-0.546L0.579,-0.546L0.579,0L0.465,0Z" style="fill:rgb(47,47,47);fill-rule:nonzero;"/>
                </g>
                <g transform="matrix(16,0,0,16,214.592,44.4741)">
                    <path d="M0.383,-0.556C0.403,-0.556 0.42,-0.555 0.433,-0.552L0.422,-0.412C0.41,-0.415 0.395,-0.417 0.378,-0.417C0.33,-0.417 0.293,-0.405 0.267,-0.38C0.24,-0.356 0.227,-0.322 0.227,-0.278L0.227,0L0.078,0L0.078,-0.546L0.191,-0.546L0.213,-0.454L0.22,-0.454C0.237,-0.485 0.26,-0.509 0.289,-0.528C0.318,-0.547 0.349,-0.556 0.383,-0.556Z" style="fill:rgb(47,47,47);fill-rule:nonzero;"/>
                </g>
                <g transform="matrix(16,0,0,16,221.858,44.4741)">
                    <path d="M0.304,-0.45C0.273,-0.45 0.248,-0.44 0.23,-0.42C0.212,-0.4 0.202,-0.372 0.199,-0.335L0.408,-0.335C0.408,-0.372 0.398,-0.4 0.379,-0.42C0.361,-0.44 0.336,-0.45 0.304,-0.45ZM0.325,0.01C0.237,0.01 0.169,-0.014 0.119,-0.063C0.07,-0.111 0.045,-0.18 0.045,-0.269C0.045,-0.361 0.068,-0.431 0.114,-0.481C0.159,-0.531 0.222,-0.556 0.303,-0.556C0.38,-0.556 0.44,-0.534 0.483,-0.49C0.526,-0.446 0.548,-0.386 0.548,-0.308L0.548,-0.236L0.196,-0.236C0.197,-0.194 0.21,-0.16 0.233,-0.137C0.257,-0.113 0.29,-0.101 0.332,-0.101C0.365,-0.101 0.396,-0.104 0.425,-0.111C0.455,-0.118 0.485,-0.129 0.517,-0.144L0.517,-0.029C0.491,-0.016 0.463,-0.006 0.434,0C0.404,0.007 0.368,0.01 0.325,0.01Z" style="fill:rgb(47,47,47);fill-rule:nonzero;"/>
                </g>
                <g transform="matrix(16,0,0,16,235.467,44.4741)">
                    <path d="M0.413,0L0.262,0L0.262,-0.413L0.264,-0.481L0.266,-0.555C0.241,-0.53 0.224,-0.514 0.214,-0.506L0.132,-0.44L0.059,-0.531L0.289,-0.714L0.413,-0.714L0.413,0Z" style="fill:rgb(47,47,47);fill-rule:nonzero;"/>
                </g>
            </g>
            <g transform="matrix(1,0,0,1,98.1584,36.8753)">
                <g transform="matrix(16,0,0,16,145.128,238.171)">
                    <path d="M0.539,0L0.04,0L0.04,-0.105L0.219,-0.286C0.272,-0.34 0.307,-0.378 0.323,-0.399C0.34,-0.42 0.351,-0.44 0.358,-0.458C0.366,-0.475 0.369,-0.494 0.369,-0.513C0.369,-0.542 0.361,-0.563 0.345,-0.577C0.33,-0.591 0.309,-0.598 0.282,-0.598C0.255,-0.598 0.228,-0.592 0.202,-0.579C0.176,-0.566 0.148,-0.548 0.12,-0.525L0.038,-0.622C0.073,-0.652 0.102,-0.673 0.125,-0.686C0.149,-0.698 0.174,-0.707 0.201,-0.714C0.229,-0.721 0.259,-0.724 0.293,-0.724C0.338,-0.724 0.377,-0.716 0.411,-0.7C0.445,-0.683 0.472,-0.661 0.491,-0.631C0.51,-0.602 0.519,-0.569 0.519,-0.531C0.519,-0.498 0.513,-0.467 0.502,-0.438C0.49,-0.409 0.472,-0.38 0.448,-0.35C0.424,-0.319 0.381,-0.276 0.32,-0.22L0.228,-0.134L0.228,-0.127L0.539,-0.127L0.539,0Z" style="fill:rgb(68,159,71);fill-rule:nonzero;"/>
                </g>
                <g transform="matrix(16,0,0,16,154.26,238.171)">
                    <path d="M0.286,-0.723C0.354,-0.723 0.41,-0.708 0.451,-0.677C0.493,-0.645 0.514,-0.604 0.514,-0.551C0.514,-0.514 0.504,-0.482 0.484,-0.453C0.464,-0.425 0.431,-0.399 0.386,-0.377C0.44,-0.348 0.478,-0.318 0.501,-0.287C0.524,-0.256 0.536,-0.222 0.536,-0.185C0.536,-0.126 0.513,-0.079 0.467,-0.044C0.421,-0.008 0.361,0.01 0.286,0.01C0.208,0.01 0.147,-0.007 0.102,-0.04C0.057,-0.073 0.035,-0.12 0.035,-0.181C0.035,-0.222 0.046,-0.258 0.068,-0.29C0.089,-0.321 0.124,-0.349 0.172,-0.373C0.131,-0.399 0.102,-0.426 0.084,-0.456C0.066,-0.485 0.057,-0.517 0.057,-0.552C0.057,-0.603 0.078,-0.644 0.121,-0.676C0.163,-0.707 0.218,-0.723 0.286,-0.723ZM0.175,-0.19C0.175,-0.162 0.185,-0.14 0.204,-0.125C0.224,-0.109 0.25,-0.101 0.284,-0.101C0.322,-0.101 0.35,-0.109 0.368,-0.125C0.387,-0.141 0.396,-0.163 0.396,-0.189C0.396,-0.211 0.387,-0.231 0.368,-0.25C0.35,-0.269 0.32,-0.29 0.279,-0.311C0.209,-0.279 0.175,-0.239 0.175,-0.19ZM0.285,-0.613C0.259,-0.613 0.239,-0.606 0.223,-0.593C0.207,-0.58 0.199,-0.562 0.199,-0.54C0.199,-0.521 0.205,-0.503 0.218,-0.488C0.231,-0.472 0.253,-0.456 0.286,-0.44C0.318,-0.455 0.34,-0.47 0.353,-0.486C0.366,-0.501 0.372,-0.52 0.372,-0.54C0.372,-0.563 0.364,-0.58 0.348,-0.593C0.331,-0.606 0.311,-0.613 0.285,-0.613Z" style="fill:rgb(68,159,71);fill-rule:nonzero;"/>
                </g>
                <g transform="matrix(16,0,0,16,163.393,238.171)">
                    <path d="M0.057,-0.07C0.057,-0.097 0.064,-0.118 0.079,-0.132C0.094,-0.146 0.115,-0.153 0.143,-0.153C0.17,-0.153 0.191,-0.146 0.206,-0.131C0.221,-0.117 0.228,-0.097 0.228,-0.07C0.228,-0.044 0.221,-0.024 0.206,-0.009C0.191,0.006 0.17,0.013 0.143,0.013C0.116,0.013 0.095,0.006 0.08,-0.009C0.065,-0.023 0.057,-0.043 0.057,-0.07Z" style="fill:rgb(68,159,71);fill-rule:nonzero;"/>
                </g>
                <g transform="matrix(16,0,0,16,167.956,238.171)">
                    <path d="M0.555,-0.148L0.469,-0.148L0.469,0L0.322,0L0.322,-0.148L0.017,-0.148L0.017,-0.253L0.33,-0.714L0.469,-0.714L0.469,-0.265L0.555,-0.265L0.555,-0.148ZM0.322,-0.265L0.322,-0.386C0.322,-0.406 0.323,-0.436 0.324,-0.474C0.326,-0.513 0.327,-0.535 0.328,-0.541L0.324,-0.541C0.312,-0.514 0.298,-0.488 0.281,-0.463L0.15,-0.265L0.322,-0.265Z" style="fill:rgb(68,159,71);fill-rule:nonzero;"/>
                </g>
                <g transform="matrix(16,0,0,16,177.088,238.171)">
                    <path d="M0.045,-0.555C0.045,-0.585 0.052,-0.613 0.067,-0.639C0.082,-0.665 0.103,-0.686 0.129,-0.701C0.155,-0.716 0.183,-0.724 0.214,-0.724C0.244,-0.724 0.272,-0.717 0.298,-0.702C0.324,-0.687 0.345,-0.666 0.36,-0.64C0.375,-0.613 0.383,-0.585 0.383,-0.555C0.383,-0.525 0.375,-0.497 0.36,-0.47C0.345,-0.444 0.324,-0.424 0.298,-0.409C0.272,-0.395 0.244,-0.387 0.214,-0.387C0.167,-0.387 0.127,-0.403 0.094,-0.436C0.061,-0.468 0.045,-0.508 0.045,-0.555ZM0.138,-0.555C0.138,-0.534 0.145,-0.517 0.16,-0.502C0.174,-0.487 0.192,-0.48 0.214,-0.48C0.235,-0.48 0.253,-0.487 0.268,-0.502C0.283,-0.517 0.29,-0.535 0.29,-0.555C0.29,-0.576 0.283,-0.594 0.268,-0.609C0.253,-0.624 0.235,-0.632 0.214,-0.632C0.193,-0.632 0.175,-0.624 0.16,-0.609C0.146,-0.594 0.138,-0.576 0.138,-0.555Z" style="fill:rgb(68,159,71);fill-rule:nonzero;"/>
                </g>
                <g transform="matrix(16,0,0,16,183.94,238.171)">
                    <path d="M0.393,-0.598C0.336,-0.598 0.292,-0.577 0.261,-0.534C0.229,-0.491 0.214,-0.431 0.214,-0.355C0.214,-0.196 0.274,-0.116 0.393,-0.116C0.443,-0.116 0.504,-0.129 0.575,-0.154L0.575,-0.027C0.517,-0.002 0.451,0.01 0.379,0.01C0.275,0.01 0.196,-0.022 0.141,-0.085C0.086,-0.148 0.058,-0.238 0.058,-0.356C0.058,-0.43 0.072,-0.495 0.099,-0.551C0.126,-0.607 0.164,-0.65 0.215,-0.679C0.266,-0.709 0.325,-0.724 0.393,-0.724C0.462,-0.724 0.532,-0.707 0.602,-0.674L0.553,-0.551C0.527,-0.563 0.5,-0.575 0.473,-0.584C0.446,-0.593 0.419,-0.598 0.393,-0.598Z" style="fill:rgb(68,159,71);fill-rule:nonzero;"/>
                </g>
            </g>
            <g transform="matrix(1,0,0,1,86.7608,31.152)">
                <path d="M124.787,78.59L237.318,78.59" style="fill:none;stroke:rgb(216,216,216);stroke-width:1px;"/>
            </g>
            <g transform="matrix(1,0,0,1,86.7608,53.2555)">
                <path d="M124.787,78.59L237.318,78.59" style="fill:none;stroke:rgb(216,216,216);stroke-width:1px;"/>
            </g>
            <g transform="matrix(1,0,0,1,86.7608,63.6882)">
                <path d="M124.787,78.59L237.318,78.59" style="fill:none;stroke:rgb(255,0,0);stroke-width:1px;"/>
            </g>
            <g transform="matrix(1,0,0,1,86.7608,75.2249)">
                <path d="M124.787,78.59L237.318,78.59" style="fill:none;stroke:rgb(216,216,216);stroke-width:1px;"/>
            </g>
            <g transform="matrix(1,0,0,1,86.7608,97.3149)">
                <path d="M124.787,78.59L237.318,78.59" style="fill:none;stroke:rgb(216,216,216);stroke-width:1px;"/>
            </g>
            <g transform="matrix(1,0,0,1,86.7608,118.327)">
                <path d="M124.787,78.59L237.318,78.59" style="fill:none;stroke:rgb(216,216,216);stroke-width:1px;"/>
            </g>
            <g transform="matrix(1,0,0,1,86.7608,129.859)">
                <path d="M124.787,78.59L237.318,78.59" style="fill:none;stroke:rgb(0,0,255);stroke-width:1px;"/>
            </g>
            <g transform="matrix(1,0,0,1,86.7608,140.367)">
                <path d="M124.787,78.59L237.318,78.59" style="fill:none;stroke:rgb(216,216,216);stroke-width:1px;"/>
            </g>
            <g transform="matrix(1,0,0,1,86.7608,162.368)">
                <path d="M124.787,78.59L237.318,78.59L237.318,88.784" style="fill:none;stroke:rgb(192,208,224);stroke-width:1px;"/>
            </g>
            <g transform="matrix(1,0,0,1,86.7608,31.152)">
                <path d="M124.787,209.807L124.787,220" style="fill:none;stroke:rgb(192,208,224);stroke-width:1px;"/>
            </g>
            <g transform="matrix(1,0,0,1,94.1158,37.8873)">
                <g transform="matrix(12,0,0,12,97.7894,71.7378)">
                    <path d="M0.272,-0.436C0.347,-0.436 0.406,-0.417 0.449,-0.38C0.493,-0.343 0.514,-0.292 0.514,-0.227C0.514,-0.153 0.491,-0.095 0.444,-0.053C0.397,-0.011 0.332,0.01 0.249,0.01C0.169,0.01 0.107,-0.003 0.065,-0.029L0.065,-0.107C0.088,-0.092 0.116,-0.081 0.15,-0.073C0.184,-0.064 0.217,-0.06 0.25,-0.06C0.307,-0.06 0.352,-0.074 0.384,-0.101C0.415,-0.128 0.431,-0.167 0.431,-0.218C0.431,-0.317 0.37,-0.367 0.248,-0.367C0.217,-0.367 0.176,-0.362 0.124,-0.353L0.082,-0.38L0.109,-0.714L0.464,-0.714L0.464,-0.639L0.178,-0.639L0.16,-0.425C0.198,-0.432 0.235,-0.436 0.272,-0.436Z" style="fill:rgb(34,34,34);fill-rule:nonzero;"/>
                </g>
                <g transform="matrix(12,0,0,12,104.651,71.7378)">
                    <path d="M0.522,-0.358C0.522,-0.235 0.503,-0.142 0.464,-0.082C0.425,-0.021 0.365,0.01 0.285,0.01C0.208,0.01 0.15,-0.021 0.11,-0.084C0.07,-0.146 0.05,-0.237 0.05,-0.358C0.05,-0.482 0.069,-0.575 0.108,-0.635C0.147,-0.695 0.206,-0.725 0.285,-0.725C0.363,-0.725 0.421,-0.694 0.462,-0.631C0.502,-0.568 0.522,-0.477 0.522,-0.358ZM0.132,-0.358C0.132,-0.254 0.144,-0.178 0.168,-0.131C0.193,-0.084 0.232,-0.06 0.285,-0.06C0.339,-0.06 0.378,-0.084 0.403,-0.132C0.427,-0.18 0.439,-0.255 0.439,-0.358C0.439,-0.46 0.427,-0.536 0.403,-0.583C0.378,-0.631 0.339,-0.655 0.285,-0.655C0.232,-0.655 0.193,-0.631 0.168,-0.584C0.144,-0.537 0.132,-0.462 0.132,-0.358Z" style="fill:rgb(34,34,34);fill-rule:nonzero;"/>
                </g>
            </g>
            <g transform="matrix(1,0,0,1,94.1158,60.108)">
                <g transform="matrix(12,0,0,12,97.7894,71.7378)">
                    <path d="M0.552,-0.164L0.446,-0.164L0.446,0L0.368,0L0.368,-0.164L0.021,-0.164L0.021,-0.235L0.36,-0.718L0.446,-0.718L0.446,-0.238L0.552,-0.238L0.552,-0.164ZM0.368,-0.238L0.368,-0.475C0.368,-0.522 0.37,-0.574 0.373,-0.633L0.369,-0.633C0.354,-0.602 0.339,-0.576 0.325,-0.555L0.102,-0.238L0.368,-0.238Z" style="fill:rgb(34,34,34);fill-rule:nonzero;"/>
                </g>
                <g transform="matrix(12,0,0,12,104.651,71.7378)">
                    <path d="M0.522,-0.358C0.522,-0.235 0.503,-0.142 0.464,-0.082C0.425,-0.021 0.365,0.01 0.285,0.01C0.208,0.01 0.15,-0.021 0.11,-0.084C0.07,-0.146 0.05,-0.237 0.05,-0.358C0.05,-0.482 0.069,-0.575 0.108,-0.635C0.147,-0.695 0.206,-0.725 0.285,-0.725C0.363,-0.725 0.421,-0.694 0.462,-0.631C0.502,-0.568 0.522,-0.477 0.522,-0.358ZM0.132,-0.358C0.132,-0.254 0.144,-0.178 0.168,-0.131C0.193,-0.084 0.232,-0.06 0.285,-0.06C0.339,-0.06 0.378,-0.084 0.403,-0.132C0.427,-0.18 0.439,-0.255 0.439,-0.358C0.439,-0.46 0.427,-0.536 0.403,-0.583C0.378,-0.631 0.339,-0.655 0.285,-0.655C0.232,-0.655 0.193,-0.631 0.168,-0.584C0.144,-0.537 0.132,-0.462 0.132,-0.358Z" style="fill:rgb(34,34,34);fill-rule:nonzero;"/>
                </g>
            </g>
            <g transform="matrix(1,0,0,1,94.1158,81.9601)">
                <g transform="matrix(12,0,0,12,97.7894,71.7378)">
                    <path d="M0.491,-0.546C0.491,-0.5 0.478,-0.463 0.453,-0.434C0.427,-0.405 0.391,-0.386 0.344,-0.376L0.344,-0.372C0.402,-0.365 0.444,-0.347 0.472,-0.317C0.499,-0.288 0.513,-0.25 0.513,-0.202C0.513,-0.134 0.49,-0.082 0.442,-0.045C0.395,-0.009 0.328,0.01 0.241,0.01C0.203,0.01 0.169,0.007 0.137,0.001C0.106,-0.004 0.076,-0.014 0.046,-0.029L0.046,-0.106C0.077,-0.091 0.11,-0.079 0.145,-0.071C0.18,-0.063 0.213,-0.059 0.244,-0.059C0.368,-0.059 0.429,-0.107 0.429,-0.204C0.429,-0.291 0.361,-0.334 0.225,-0.334L0.155,-0.334L0.155,-0.404L0.226,-0.404C0.282,-0.404 0.326,-0.416 0.358,-0.441C0.391,-0.465 0.407,-0.499 0.407,-0.543C0.407,-0.578 0.395,-0.605 0.371,-0.625C0.347,-0.645 0.315,-0.655 0.274,-0.655C0.243,-0.655 0.213,-0.651 0.186,-0.642C0.158,-0.634 0.126,-0.618 0.091,-0.595L0.05,-0.65C0.079,-0.673 0.113,-0.691 0.151,-0.704C0.189,-0.718 0.23,-0.724 0.272,-0.724C0.341,-0.724 0.395,-0.708 0.434,-0.677C0.472,-0.645 0.491,-0.601 0.491,-0.546Z" style="fill:rgb(34,34,34);fill-rule:nonzero;"/>
                </g>
                <g transform="matrix(12,0,0,12,104.651,71.7378)">
                    <path d="M0.522,-0.358C0.522,-0.235 0.503,-0.142 0.464,-0.082C0.425,-0.021 0.365,0.01 0.285,0.01C0.208,0.01 0.15,-0.021 0.11,-0.084C0.07,-0.146 0.05,-0.237 0.05,-0.358C0.05,-0.482 0.069,-0.575 0.108,-0.635C0.147,-0.695 0.206,-0.725 0.285,-0.725C0.363,-0.725 0.421,-0.694 0.462,-0.631C0.502,-0.568 0.522,-0.477 0.522,-0.358ZM0.132,-0.358C0.132,-0.254 0.144,-0.178 0.168,-0.131C0.193,-0.084 0.232,-0.06 0.285,-0.06C0.339,-0.06 0.378,-0.084 0.403,-0.132C0.427,-0.18 0.439,-0.255 0.439,-0.358C0.439,-0.46 0.427,-0.536 0.403,-0.583C0.378,-0.631 0.339,-0.655 0.285,-0.655C0.232,-0.655 0.193,-0.631 0.168,-0.584C0.144,-0.537 0.132,-0.462 0.132,-0.358Z" style="fill:rgb(34,34,34);fill-rule:nonzero;"/>
                </g>
            </g>
            <g transform="matrix(1,0,0,1,94.1158,104.05)">
                <g transform="matrix(12,0,0,12,97.7894,71.7378)">
                    <path d="M0.518,0L0.049,0L0.049,-0.07L0.237,-0.259C0.294,-0.317 0.332,-0.358 0.35,-0.383C0.368,-0.408 0.382,-0.432 0.391,-0.455C0.4,-0.479 0.405,-0.504 0.405,-0.531C0.405,-0.569 0.393,-0.599 0.37,-0.621C0.347,-0.644 0.315,-0.655 0.274,-0.655C0.244,-0.655 0.216,-0.65 0.19,-0.64C0.163,-0.63 0.134,-0.613 0.101,-0.587L0.058,-0.642C0.124,-0.697 0.195,-0.724 0.273,-0.724C0.34,-0.724 0.393,-0.707 0.431,-0.673C0.469,-0.638 0.488,-0.592 0.488,-0.534C0.488,-0.489 0.475,-0.444 0.45,-0.4C0.424,-0.356 0.377,-0.3 0.307,-0.232L0.151,-0.079L0.151,-0.075L0.518,-0.075L0.518,0Z" style="fill:rgb(34,34,34);fill-rule:nonzero;"/>
                </g>
                <g transform="matrix(12,0,0,12,104.651,71.7378)">
                    <path d="M0.522,-0.358C0.522,-0.235 0.503,-0.142 0.464,-0.082C0.425,-0.021 0.365,0.01 0.285,0.01C0.208,0.01 0.15,-0.021 0.11,-0.084C0.07,-0.146 0.05,-0.237 0.05,-0.358C0.05,-0.482 0.069,-0.575 0.108,-0.635C0.147,-0.695 0.206,-0.725 0.285,-0.725C0.363,-0.725 0.421,-0.694 0.462,-0.631C0.502,-0.568 0.522,-0.477 0.522,-0.358ZM0.132,-0.358C0.132,-0.254 0.144,-0.178 0.168,-0.131C0.193,-0.084 0.232,-0.06 0.285,-0.06C0.339,-0.06 0.378,-0.084 0.403,-0.132C0.427,-0.18 0.439,-0.255 0.439,-0.358C0.439,-0.46 0.427,-0.536 0.403,-0.583C0.378,-0.631 0.339,-0.655 0.285,-0.655C0.232,-0.655 0.193,-0.631 0.168,-0.584C0.144,-0.537 0.132,-0.462 0.132,-0.358Z" style="fill:rgb(34,34,34);fill-rule:nonzero;"/>
                </g>
            </g>
            <g transform="matrix(1,0,0,1,94.1158,125.062)">
                <g transform="matrix(12,0,0,12,97.7894,71.7378)">
                    <path d="M0.349,0L0.27,0L0.27,-0.509C0.27,-0.551 0.271,-0.591 0.274,-0.629C0.267,-0.622 0.259,-0.615 0.251,-0.607C0.243,-0.6 0.204,-0.568 0.135,-0.512L0.092,-0.568L0.281,-0.714L0.349,-0.714L0.349,0Z" style="fill:rgb(34,34,34);fill-rule:nonzero;"/>
                </g>
                <g transform="matrix(12,0,0,12,104.651,71.7378)">
                    <path d="M0.522,-0.358C0.522,-0.235 0.503,-0.142 0.464,-0.082C0.425,-0.021 0.365,0.01 0.285,0.01C0.208,0.01 0.15,-0.021 0.11,-0.084C0.07,-0.146 0.05,-0.237 0.05,-0.358C0.05,-0.482 0.069,-0.575 0.108,-0.635C0.147,-0.695 0.206,-0.725 0.285,-0.725C0.363,-0.725 0.421,-0.694 0.462,-0.631C0.502,-0.568 0.522,-0.477 0.522,-0.358ZM0.132,-0.358C0.132,-0.254 0.144,-0.178 0.168,-0.131C0.193,-0.084 0.232,-0.06 0.285,-0.06C0.339,-0.06 0.378,-0.084 0.403,-0.132C0.427,-0.18 0.439,-0.255 0.439,-0.358C0.439,-0.46 0.427,-0.536 0.403,-0.583C0.378,-0.631 0.339,-0.655 0.285,-0.655C0.232,-0.655 0.193,-0.631 0.168,-0.584C0.144,-0.537 0.132,-0.462 0.132,-0.358Z" style="fill:rgb(34,34,34);fill-rule:nonzero;"/>
                </g>
            </g>
            <g transform="matrix(1,0,0,1,94.7427,147.103)">
                <g transform="matrix(12,0,0,12,104.024,71.7378)">
                    <path d="M0.522,-0.358C0.522,-0.235 0.503,-0.142 0.464,-0.082C0.425,-0.021 0.365,0.01 0.285,0.01C0.208,0.01 0.15,-0.021 0.11,-0.084C0.07,-0.146 0.05,-0.237 0.05,-0.358C0.05,-0.482 0.069,-0.575 0.108,-0.635C0.147,-0.695 0.206,-0.725 0.285,-0.725C0.363,-0.725 0.421,-0.694 0.462,-0.631C0.502,-0.568 0.522,-0.477 0.522,-0.358ZM0.132,-0.358C0.132,-0.254 0.144,-0.178 0.168,-0.131C0.193,-0.084 0.232,-0.06 0.285,-0.06C0.339,-0.06 0.378,-0.084 0.403,-0.132C0.427,-0.18 0.439,-0.255 0.439,-0.358C0.439,-0.46 0.427,-0.536 0.403,-0.583C0.378,-0.631 0.339,-0.655 0.285,-0.655C0.232,-0.655 0.193,-0.631 0.168,-0.584C0.144,-0.537 0.132,-0.462 0.132,-0.358Z" style="fill:rgb(34,34,34);fill-rule:nonzero;"/>
                </g>
            </g>
            <g transform="matrix(1,0,0,1,90.2545,169.104)">
                <g transform="matrix(12,0,0,12,97.7894,71.7378)">
                    <rect x="0.041" y="-0.305" width="0.24" height="0.074" style="fill:rgb(34,34,34);fill-rule:nonzero;"/>
                </g>
                <g transform="matrix(12,0,0,12,101.651,71.7378)">
                    <path d="M0.349,0L0.27,0L0.27,-0.509C0.27,-0.551 0.271,-0.591 0.274,-0.629C0.267,-0.622 0.259,-0.615 0.251,-0.607C0.243,-0.6 0.204,-0.568 0.135,-0.512L0.092,-0.568L0.281,-0.714L0.349,-0.714L0.349,0Z" style="fill:rgb(34,34,34);fill-rule:nonzero;"/>
                </g>
                <g transform="matrix(12,0,0,12,108.512,71.7378)">
                    <path d="M0.522,-0.358C0.522,-0.235 0.503,-0.142 0.464,-0.082C0.425,-0.021 0.365,0.01 0.285,0.01C0.208,0.01 0.15,-0.021 0.11,-0.084C0.07,-0.146 0.05,-0.237 0.05,-0.358C0.05,-0.482 0.069,-0.575 0.108,-0.635C0.147,-0.695 0.206,-0.725 0.285,-0.725C0.363,-0.725 0.421,-0.694 0.462,-0.631C0.502,-0.568 0.522,-0.477 0.522,-0.358ZM0.132,-0.358C0.132,-0.254 0.144,-0.178 0.168,-0.131C0.193,-0.084 0.232,-0.06 0.285,-0.06C0.339,-0.06 0.378,-0.084 0.403,-0.132C0.427,-0.18 0.439,-0.255 0.439,-0.358C0.439,-0.46 0.427,-0.536 0.403,-0.583C0.378,-0.631 0.339,-0.655 0.285,-0.655C0.232,-0.655 0.193,-0.631 0.168,-0.584C0.144,-0.537 0.132,-0.462 0.132,-0.358Z" style="fill:rgb(34,34,34);fill-rule:nonzero;"/>
                </g>
            </g>
            <g transform="matrix(1,0,0,1,86.7608,31.152)">
                <rect x="165.845" y="126.347" width="31.512" height="61.459" style="fill:rgb(68,159,71);"/>
            </g>
        </g>
        <g transform="matrix(-0.513353,0,0,0.673529,252.983,-42.5743)">
            <path d="M227.286,203.563L330.422,203.563L330.422,245.835L336.177,245.835L327.322,254.69L318.468,245.835L324.223,245.835L324.223,238.148L227.286,238.148L227.286,203.563Z" style="fill:white;stroke:rgb(128,128,128);stroke-width:1.11px;stroke-linecap:square;stroke-linejoin:miter;"/>
        </g>
        <g transform="matrix(-0.513353,0,0,-0.673529,252.983,442.537)">
            <path d="M227.286,203.563L330.422,203.563L330.422,245.835L336.177,245.835L327.322,254.69L318.468,245.835L324.223,245.835L324.223,238.148L227.286,238.148L227.286,203.563Z" style="fill:white;stroke:rgb(128,128,128);stroke-width:1.11px;stroke-linecap:square;stroke-linejoin:miter;"/>
        </g>
        <g transform="matrix(-3.14338e-17,0.673529,-0.513353,-4.12418e-17,261.277,-47.8148)">
            <path d="M301.286,155.563L336.422,155.563L336.422,266.835L342.177,266.835L333.322,275.69L324.468,266.835L330.223,266.835L330.223,259.148L301.286,259.148L301.286,155.563Z" style="fill:white;stroke:rgb(128,128,128);stroke-width:1.11px;stroke-linecap:square;stroke-linejoin:miter;"/>
        </g>
        <g transform="matrix(-3.14338e-17,0.673529,-0.513353,-4.12418e-17,261.277,-3.43528)">
            <path d="M301.286,155.563L336.422,155.563L336.422,266.835L342.177,266.835L333.322,275.69L324.468,266.835L330.223,266.835L330.223,259.148L301.286,259.148L301.286,155.563Z" style="fill:white;stroke:rgb(128,128,128);stroke-width:1.11px;stroke-linecap:square;stroke-linejoin:miter;"/>
        </g>
        <g transform="matrix(0.513353,0,0,0.673529,37.0267,89.3676)">
            <g transform="matrix(12,0,0,12,107.26,28.2489)">
                <path d="M0.501,-0.19C0.501,-0.127 0.478,-0.078 0.433,-0.043C0.387,-0.008 0.325,0.01 0.247,0.01C0.162,0.01 0.097,-0.001 0.052,-0.023L0.052,-0.103C0.081,-0.091 0.113,-0.081 0.147,-0.074C0.182,-0.067 0.216,-0.063 0.25,-0.063C0.305,-0.063 0.347,-0.073 0.375,-0.094C0.403,-0.115 0.417,-0.145 0.417,-0.182C0.417,-0.207 0.412,-0.227 0.402,-0.243C0.392,-0.259 0.376,-0.273 0.352,-0.287C0.329,-0.3 0.294,-0.315 0.246,-0.332C0.18,-0.356 0.132,-0.384 0.104,-0.417C0.075,-0.449 0.061,-0.492 0.061,-0.544C0.061,-0.599 0.082,-0.643 0.123,-0.675C0.164,-0.708 0.219,-0.724 0.287,-0.724C0.358,-0.724 0.423,-0.711 0.483,-0.685L0.457,-0.613C0.398,-0.638 0.341,-0.65 0.285,-0.65C0.241,-0.65 0.207,-0.64 0.182,-0.622C0.157,-0.603 0.145,-0.576 0.145,-0.543C0.145,-0.518 0.15,-0.498 0.159,-0.482C0.168,-0.466 0.183,-0.452 0.205,-0.439C0.226,-0.426 0.26,-0.411 0.304,-0.395C0.379,-0.368 0.431,-0.34 0.459,-0.309C0.487,-0.278 0.501,-0.239 0.501,-0.19Z" style="fill:rgb(47,47,47);fill-rule:nonzero;"/>
            </g>
            <g transform="matrix(12,0,0,12,113.846,28.2489)">
                <path d="M0.312,0.01C0.233,0.01 0.17,-0.014 0.125,-0.063C0.079,-0.111 0.056,-0.178 0.056,-0.263C0.056,-0.349 0.077,-0.418 0.12,-0.469C0.162,-0.52 0.219,-0.545 0.291,-0.545C0.358,-0.545 0.411,-0.523 0.45,-0.479C0.489,-0.435 0.509,-0.376 0.509,-0.304L0.509,-0.253L0.14,-0.253C0.142,-0.19 0.158,-0.142 0.188,-0.11C0.218,-0.077 0.26,-0.061 0.315,-0.061C0.373,-0.061 0.43,-0.073 0.486,-0.097L0.486,-0.025C0.457,-0.013 0.43,-0.004 0.405,0.002C0.379,0.007 0.348,0.01 0.312,0.01ZM0.29,-0.477C0.247,-0.477 0.213,-0.463 0.187,-0.435C0.162,-0.407 0.147,-0.368 0.142,-0.319L0.422,-0.319C0.422,-0.37 0.41,-0.409 0.388,-0.436C0.365,-0.463 0.332,-0.477 0.29,-0.477Z" style="fill:rgb(47,47,47);fill-rule:nonzero;"/>
            </g>
            <g transform="matrix(12,0,0,12,120.578,28.2489)">
                <path d="M0.452,0L0.452,-0.346C0.452,-0.39 0.442,-0.422 0.422,-0.444C0.403,-0.465 0.371,-0.476 0.329,-0.476C0.273,-0.476 0.232,-0.461 0.206,-0.431C0.18,-0.4 0.167,-0.35 0.167,-0.281L0.167,0L0.086,0L0.086,-0.535L0.152,-0.535L0.165,-0.462L0.169,-0.462C0.186,-0.488 0.209,-0.509 0.239,-0.523C0.269,-0.538 0.302,-0.545 0.339,-0.545C0.403,-0.545 0.452,-0.529 0.484,-0.498C0.517,-0.467 0.533,-0.417 0.533,-0.349L0.533,0L0.452,0Z" style="fill:rgb(47,47,47);fill-rule:nonzero;"/>
            </g>
            <g transform="matrix(12,0,0,12,127.943,28.2489)">
                <path d="M0.431,-0.146C0.431,-0.096 0.413,-0.058 0.375,-0.031C0.338,-0.004 0.286,0.01 0.219,0.01C0.148,0.01 0.093,-0.001 0.053,-0.024L0.053,-0.099C0.079,-0.086 0.107,-0.076 0.136,-0.068C0.165,-0.061 0.194,-0.057 0.221,-0.057C0.264,-0.057 0.296,-0.064 0.319,-0.077C0.342,-0.091 0.353,-0.111 0.353,-0.139C0.353,-0.16 0.344,-0.178 0.326,-0.193C0.308,-0.207 0.273,-0.225 0.22,-0.245C0.17,-0.264 0.135,-0.28 0.114,-0.294C0.093,-0.308 0.077,-0.323 0.067,-0.341C0.057,-0.358 0.052,-0.379 0.052,-0.404C0.052,-0.447 0.069,-0.482 0.105,-0.507C0.14,-0.532 0.189,-0.545 0.251,-0.545C0.309,-0.545 0.365,-0.533 0.42,-0.51L0.391,-0.444C0.337,-0.466 0.289,-0.477 0.245,-0.477C0.207,-0.477 0.178,-0.471 0.158,-0.459C0.139,-0.447 0.129,-0.43 0.129,-0.409C0.129,-0.395 0.133,-0.383 0.14,-0.373C0.147,-0.362 0.159,-0.353 0.175,-0.344C0.192,-0.335 0.223,-0.321 0.269,-0.304C0.333,-0.281 0.375,-0.258 0.398,-0.234C0.42,-0.211 0.431,-0.181 0.431,-0.146Z" style="fill:rgb(47,47,47);fill-rule:nonzero;"/>
            </g>
            <g transform="matrix(12,0,0,12,133.668,28.2489)">
                <path d="M0.548,-0.268C0.548,-0.181 0.526,-0.113 0.482,-0.064C0.438,-0.015 0.377,0.01 0.3,0.01C0.252,0.01 0.209,-0.001 0.172,-0.024C0.135,-0.046 0.107,-0.079 0.086,-0.121C0.066,-0.163 0.056,-0.212 0.056,-0.268C0.056,-0.355 0.078,-0.423 0.122,-0.472C0.165,-0.521 0.226,-0.545 0.303,-0.545C0.378,-0.545 0.438,-0.52 0.482,-0.47C0.526,-0.42 0.548,-0.353 0.548,-0.268ZM0.14,-0.268C0.14,-0.2 0.154,-0.148 0.181,-0.112C0.208,-0.076 0.249,-0.058 0.302,-0.058C0.355,-0.058 0.395,-0.076 0.423,-0.112C0.45,-0.147 0.464,-0.199 0.464,-0.268C0.464,-0.336 0.45,-0.388 0.423,-0.423C0.395,-0.458 0.354,-0.476 0.301,-0.476C0.248,-0.476 0.208,-0.459 0.181,-0.424C0.154,-0.389 0.14,-0.337 0.14,-0.268Z" style="fill:rgb(47,47,47);fill-rule:nonzero;"/>
            </g>
            <g transform="matrix(12,0,0,12,140.916,28.2489)">
                <path d="M0.33,-0.545C0.354,-0.545 0.375,-0.543 0.394,-0.539L0.383,-0.464C0.361,-0.469 0.341,-0.471 0.324,-0.471C0.281,-0.471 0.244,-0.454 0.213,-0.418C0.182,-0.383 0.167,-0.34 0.167,-0.287L0.167,0L0.086,0L0.086,-0.535L0.153,-0.535L0.162,-0.436L0.166,-0.436C0.186,-0.471 0.21,-0.498 0.238,-0.517C0.266,-0.535 0.297,-0.545 0.33,-0.545Z" style="fill:rgb(47,47,47);fill-rule:nonzero;"/>
            </g>
            <g transform="matrix(12,0,0,12,148.932,28.2489)">
                <path d="M0.452,0L0.452,-0.346C0.452,-0.39 0.442,-0.422 0.422,-0.444C0.403,-0.465 0.371,-0.476 0.329,-0.476C0.273,-0.476 0.232,-0.461 0.206,-0.431C0.18,-0.4 0.167,-0.35 0.167,-0.281L0.167,0L0.086,0L0.086,-0.535L0.152,-0.535L0.165,-0.462L0.169,-0.462C0.186,-0.488 0.209,-0.509 0.239,-0.523C0.269,-0.538 0.302,-0.545 0.339,-0.545C0.403,-0.545 0.452,-0.529 0.484,-0.498C0.517,-0.467 0.533,-0.417 0.533,-0.349L0.533,0L0.452,0Z" style="fill:rgb(47,47,47);fill-rule:nonzero;"/>
            </g>
            <g transform="matrix(12,0,0,12,156.297,28.2489)">
                <path d="M0.415,0L0.399,-0.076L0.395,-0.076C0.368,-0.043 0.342,-0.02 0.315,-0.008C0.289,0.004 0.256,0.01 0.216,0.01C0.163,0.01 0.121,-0.004 0.091,-0.031C0.061,-0.059 0.046,-0.097 0.046,-0.148C0.046,-0.256 0.132,-0.313 0.305,-0.318L0.396,-0.321L0.396,-0.354C0.396,-0.396 0.387,-0.427 0.369,-0.447C0.351,-0.467 0.322,-0.477 0.282,-0.477C0.238,-0.477 0.187,-0.463 0.131,-0.436L0.106,-0.498C0.132,-0.512 0.161,-0.524 0.193,-0.532C0.224,-0.54 0.256,-0.544 0.287,-0.544C0.351,-0.544 0.398,-0.53 0.429,-0.501C0.46,-0.473 0.475,-0.428 0.475,-0.365L0.475,0L0.415,0ZM0.232,-0.057C0.282,-0.057 0.322,-0.071 0.351,-0.099C0.38,-0.126 0.394,-0.165 0.394,-0.215L0.394,-0.263L0.313,-0.26C0.249,-0.257 0.202,-0.247 0.174,-0.23C0.145,-0.212 0.131,-0.184 0.131,-0.147C0.131,-0.118 0.14,-0.095 0.157,-0.08C0.175,-0.065 0.2,-0.057 0.232,-0.057Z" style="fill:rgb(47,47,47);fill-rule:nonzero;"/>
            </g>
            <g transform="matrix(12,0,0,12,162.971,28.2489)">
                <path d="M0.768,0L0.768,-0.348C0.768,-0.391 0.759,-0.423 0.741,-0.444C0.722,-0.465 0.694,-0.476 0.656,-0.476C0.605,-0.476 0.568,-0.462 0.544,-0.433C0.52,-0.404 0.508,-0.359 0.508,-0.299L0.508,0L0.427,0L0.427,-0.348C0.427,-0.391 0.418,-0.423 0.399,-0.444C0.381,-0.465 0.353,-0.476 0.314,-0.476C0.263,-0.476 0.226,-0.461 0.202,-0.43C0.179,-0.4 0.167,-0.35 0.167,-0.281L0.167,0L0.086,0L0.086,-0.535L0.152,-0.535L0.165,-0.462L0.169,-0.462C0.184,-0.488 0.206,-0.508 0.234,-0.523C0.261,-0.538 0.293,-0.545 0.327,-0.545C0.411,-0.545 0.465,-0.515 0.491,-0.454L0.495,-0.454C0.511,-0.482 0.534,-0.504 0.564,-0.521C0.595,-0.537 0.629,-0.545 0.668,-0.545C0.729,-0.545 0.774,-0.529 0.804,-0.498C0.834,-0.467 0.849,-0.417 0.849,-0.349L0.849,0L0.768,0Z" style="fill:rgb(47,47,47);fill-rule:nonzero;"/>
            </g>
            <g transform="matrix(12,0,0,12,174.133,28.2489)">
                <path d="M0.312,0.01C0.233,0.01 0.17,-0.014 0.125,-0.063C0.079,-0.111 0.056,-0.178 0.056,-0.263C0.056,-0.349 0.077,-0.418 0.12,-0.469C0.162,-0.52 0.219,-0.545 0.291,-0.545C0.358,-0.545 0.411,-0.523 0.45,-0.479C0.489,-0.435 0.509,-0.376 0.509,-0.304L0.509,-0.253L0.14,-0.253C0.142,-0.19 0.158,-0.142 0.188,-0.11C0.218,-0.077 0.26,-0.061 0.315,-0.061C0.373,-0.061 0.43,-0.073 0.486,-0.097L0.486,-0.025C0.457,-0.013 0.43,-0.004 0.405,0.002C0.379,0.007 0.348,0.01 0.312,0.01ZM0.29,-0.477C0.247,-0.477 0.213,-0.463 0.187,-0.435C0.162,-0.407 0.147,-0.368 0.142,-0.319L0.422,-0.319C0.422,-0.37 0.41,-0.409 0.388,-0.436C0.365,-0.463 0.332,-0.477 0.29,-0.477Z" style="fill:rgb(47,47,47);fill-rule:nonzero;"/>
            </g>
        </g>
        <g transform="matrix(0.513353,0,0,0.673529,78.8701,149.933)">
            <g transform="matrix(12,0,0,12,107.26,28.2489)">
                <path d="M0.64,0L0.557,0L0.557,-0.336L0.181,-0.336L0.181,0L0.098,0L0.098,-0.714L0.181,-0.714L0.181,-0.41L0.557,-0.41L0.557,-0.714L0.64,-0.714L0.64,0Z" style="fill:rgb(47,47,47);fill-rule:nonzero;"/>
            </g>
            <g transform="matrix(12,0,0,12,116.113,28.2489)">
                <path d="M0.167,0L0.086,0L0.086,-0.535L0.167,-0.535L0.167,0ZM0.079,-0.68C0.079,-0.699 0.084,-0.712 0.093,-0.721C0.102,-0.73 0.113,-0.734 0.127,-0.734C0.14,-0.734 0.151,-0.729 0.161,-0.721C0.17,-0.712 0.175,-0.698 0.175,-0.68C0.175,-0.662 0.17,-0.648 0.161,-0.639C0.151,-0.63 0.14,-0.626 0.127,-0.626C0.113,-0.626 0.102,-0.63 0.093,-0.639C0.084,-0.648 0.079,-0.662 0.079,-0.68Z" style="fill:rgb(47,47,47);fill-rule:nonzero;"/>
            </g>
            <g transform="matrix(12,0,0,12,119.149,28.2489)">
                <path d="M0.524,-0.535L0.524,-0.484L0.425,-0.472C0.434,-0.461 0.442,-0.446 0.449,-0.427C0.456,-0.409 0.46,-0.388 0.46,-0.365C0.46,-0.313 0.442,-0.271 0.406,-0.24C0.37,-0.208 0.321,-0.193 0.259,-0.193C0.243,-0.193 0.228,-0.194 0.214,-0.197C0.179,-0.179 0.162,-0.156 0.162,-0.128C0.162,-0.113 0.168,-0.102 0.18,-0.095C0.192,-0.088 0.213,-0.085 0.242,-0.085L0.337,-0.085C0.395,-0.085 0.439,-0.073 0.47,-0.048C0.502,-0.024 0.517,0.012 0.517,0.058C0.517,0.117 0.493,0.163 0.446,0.194C0.398,0.225 0.329,0.24 0.238,0.24C0.168,0.24 0.114,0.227 0.076,0.201C0.038,0.175 0.019,0.138 0.019,0.091C0.019,0.058 0.029,0.03 0.05,0.006C0.071,-0.017 0.1,-0.034 0.138,-0.042C0.125,-0.048 0.113,-0.058 0.104,-0.071C0.094,-0.084 0.09,-0.099 0.09,-0.116C0.09,-0.136 0.095,-0.153 0.105,-0.167C0.116,-0.182 0.132,-0.196 0.155,-0.21C0.127,-0.221 0.105,-0.241 0.087,-0.268C0.07,-0.295 0.061,-0.327 0.061,-0.362C0.061,-0.42 0.079,-0.466 0.114,-0.497C0.149,-0.529 0.199,-0.545 0.263,-0.545C0.291,-0.545 0.316,-0.542 0.339,-0.535L0.524,-0.535ZM0.097,0.09C0.097,0.119 0.109,0.141 0.134,0.156C0.158,0.171 0.193,0.178 0.239,0.178C0.307,0.178 0.357,0.168 0.39,0.148C0.423,0.127 0.439,0.1 0.439,0.065C0.439,0.036 0.43,0.016 0.412,0.005C0.394,-0.007 0.361,-0.012 0.311,-0.012L0.214,-0.012C0.177,-0.012 0.148,-0.003 0.128,0.014C0.107,0.032 0.097,0.057 0.097,0.09ZM0.141,-0.364C0.141,-0.326 0.152,-0.298 0.173,-0.279C0.194,-0.26 0.223,-0.25 0.261,-0.25C0.34,-0.25 0.38,-0.288 0.38,-0.365C0.38,-0.446 0.34,-0.486 0.26,-0.486C0.222,-0.486 0.192,-0.476 0.172,-0.455C0.151,-0.435 0.141,-0.404 0.141,-0.364Z" style="fill:rgb(47,47,47);fill-rule:nonzero;"/>
            </g>
            <g transform="matrix(12,0,0,12,125.723,28.2489)">
                <path d="M0.452,0L0.452,-0.346C0.452,-0.39 0.442,-0.422 0.422,-0.444C0.403,-0.465 0.371,-0.476 0.329,-0.476C0.273,-0.476 0.232,-0.461 0.206,-0.43C0.18,-0.4 0.167,-0.349 0.167,-0.28L0.167,0L0.086,0L0.086,-0.76L0.167,-0.76L0.167,-0.53C0.167,-0.502 0.166,-0.479 0.163,-0.461L0.168,-0.461C0.184,-0.487 0.207,-0.507 0.236,-0.522C0.266,-0.537 0.299,-0.544 0.337,-0.544C0.402,-0.544 0.451,-0.528 0.484,-0.497C0.517,-0.466 0.533,-0.417 0.533,-0.349L0.533,0L0.452,0Z" style="fill:rgb(47,47,47);fill-rule:nonzero;"/>
            </g>
            <g transform="matrix(12,0,0,12,136.205,28.2489)">
                <path d="M0.259,-0.057C0.273,-0.057 0.287,-0.058 0.3,-0.06C0.314,-0.062 0.324,-0.065 0.332,-0.067L0.332,-0.005C0.323,-0.001 0.31,0.003 0.293,0.006C0.276,0.008 0.261,0.01 0.247,0.01C0.144,0.01 0.092,-0.045 0.092,-0.154L0.092,-0.472L0.015,-0.472L0.015,-0.511L0.092,-0.545L0.126,-0.659L0.173,-0.659L0.173,-0.535L0.328,-0.535L0.328,-0.472L0.173,-0.472L0.173,-0.157C0.173,-0.125 0.181,-0.1 0.196,-0.083C0.211,-0.066 0.232,-0.057 0.259,-0.057Z" style="fill:rgb(47,47,47);fill-rule:nonzero;"/>
            </g>
            <g transform="matrix(12,0,0,12,140.442,28.2489)">
                <path d="M0.33,-0.545C0.354,-0.545 0.375,-0.543 0.394,-0.539L0.383,-0.464C0.361,-0.469 0.341,-0.471 0.324,-0.471C0.281,-0.471 0.244,-0.454 0.213,-0.418C0.182,-0.383 0.167,-0.34 0.167,-0.287L0.167,0L0.086,0L0.086,-0.535L0.153,-0.535L0.162,-0.436L0.166,-0.436C0.186,-0.471 0.21,-0.498 0.238,-0.517C0.266,-0.535 0.297,-0.545 0.33,-0.545Z" style="fill:rgb(47,47,47);fill-rule:nonzero;"/>
            </g>
            <g transform="matrix(12,0,0,12,145.34,28.2489)">
                <path d="M0.167,0L0.086,0L0.086,-0.535L0.167,-0.535L0.167,0ZM0.079,-0.68C0.079,-0.699 0.084,-0.712 0.093,-0.721C0.102,-0.73 0.113,-0.734 0.127,-0.734C0.14,-0.734 0.151,-0.729 0.161,-0.721C0.17,-0.712 0.175,-0.698 0.175,-0.68C0.175,-0.662 0.17,-0.648 0.161,-0.639C0.151,-0.63 0.14,-0.626 0.127,-0.626C0.113,-0.626 0.102,-0.63 0.093,-0.639C0.084,-0.648 0.079,-0.662 0.079,-0.68Z" style="fill:rgb(47,47,47);fill-rule:nonzero;"/>
            </g>
            <g transform="matrix(12,0,0,12,148.375,28.2489)">
                <path d="M0.335,0.01C0.3,0.01 0.268,0.003 0.24,-0.01C0.211,-0.022 0.187,-0.042 0.167,-0.069L0.161,-0.069C0.165,-0.038 0.167,-0.008 0.167,0.02L0.167,0.24L0.086,0.24L0.086,-0.535L0.152,-0.535L0.163,-0.462L0.167,-0.462C0.188,-0.491 0.212,-0.512 0.24,-0.525C0.267,-0.538 0.299,-0.545 0.335,-0.545C0.406,-0.545 0.461,-0.521 0.499,-0.472C0.538,-0.424 0.557,-0.356 0.557,-0.268C0.557,-0.18 0.538,-0.112 0.498,-0.063C0.459,-0.015 0.405,0.01 0.335,0.01ZM0.323,-0.476C0.269,-0.476 0.229,-0.461 0.205,-0.431C0.18,-0.4 0.168,-0.352 0.167,-0.286L0.167,-0.268C0.167,-0.193 0.18,-0.139 0.205,-0.107C0.23,-0.074 0.27,-0.058 0.325,-0.058C0.371,-0.058 0.408,-0.077 0.434,-0.114C0.46,-0.152 0.473,-0.203 0.473,-0.269C0.473,-0.336 0.46,-0.387 0.434,-0.423C0.408,-0.458 0.371,-0.476 0.323,-0.476Z" style="fill:rgb(47,47,47);fill-rule:nonzero;"/>
            </g>
            <g transform="matrix(12,0,0,12,158.846,28.2489)">
                <path d="M0.203,0L0,-0.535L0.087,-0.535L0.202,-0.218C0.228,-0.144 0.243,-0.095 0.248,-0.073L0.252,-0.073C0.256,-0.09 0.267,-0.126 0.286,-0.18C0.305,-0.235 0.348,-0.353 0.414,-0.535L0.501,-0.535L0.298,0L0.203,0Z" style="fill:rgb(47,47,47);fill-rule:nonzero;"/>
            </g>
            <g transform="matrix(12,0,0,12,164.858,28.2489)">
                <path d="M0.415,0L0.399,-0.076L0.395,-0.076C0.368,-0.043 0.342,-0.02 0.315,-0.008C0.289,0.004 0.256,0.01 0.216,0.01C0.163,0.01 0.121,-0.004 0.091,-0.031C0.061,-0.059 0.046,-0.097 0.046,-0.148C0.046,-0.256 0.132,-0.313 0.305,-0.318L0.396,-0.321L0.396,-0.354C0.396,-0.396 0.387,-0.427 0.369,-0.447C0.351,-0.467 0.322,-0.477 0.282,-0.477C0.238,-0.477 0.187,-0.463 0.131,-0.436L0.106,-0.498C0.132,-0.512 0.161,-0.524 0.193,-0.532C0.224,-0.54 0.256,-0.544 0.287,-0.544C0.351,-0.544 0.398,-0.53 0.429,-0.501C0.46,-0.473 0.475,-0.428 0.475,-0.365L0.475,0L0.415,0ZM0.232,-0.057C0.282,-0.057 0.322,-0.071 0.351,-0.099C0.38,-0.126 0.394,-0.165 0.394,-0.215L0.394,-0.263L0.313,-0.26C0.249,-0.257 0.202,-0.247 0.174,-0.23C0.145,-0.212 0.131,-0.184 0.131,-0.147C0.131,-0.118 0.14,-0.095 0.157,-0.08C0.175,-0.065 0.2,-0.057 0.232,-0.057Z" style="fill:rgb(47,47,47);fill-rule:nonzero;"/>
            </g>
            <g transform="matrix(12,0,0,12,171.531,28.2489)">
                <rect x="0.086" y="-0.76" width="0.081" height="0.76" style="fill:rgb(47,47,47);fill-rule:nonzero;"/>
            </g>
            <g transform="matrix(12,0,0,12,174.567,28.2489)">
                <path d="M0.162,-0.535L0.162,-0.188C0.162,-0.144 0.172,-0.112 0.192,-0.09C0.212,-0.069 0.243,-0.058 0.285,-0.058C0.341,-0.058 0.382,-0.073 0.408,-0.104C0.434,-0.135 0.447,-0.185 0.447,-0.254L0.447,-0.535L0.528,-0.535L0.528,0L0.461,0L0.449,-0.072L0.445,-0.072C0.428,-0.045 0.405,-0.025 0.376,-0.011C0.346,0.003 0.313,0.01 0.275,0.01C0.21,0.01 0.161,-0.006 0.129,-0.037C0.096,-0.068 0.08,-0.117 0.08,-0.185L0.08,-0.535L0.162,-0.535Z" style="fill:rgb(47,47,47);fill-rule:nonzero;"/>
            </g>
            <g transform="matrix(12,0,0,12,181.932,28.2489)">
                <path d="M0.312,0.01C0.233,0.01 0.17,-0.014 0.125,-0.063C0.079,-0.111 0.056,-0.178 0.056,-0.263C0.056,-0.349 0.077,-0.418 0.12,-0.469C0.162,-0.52 0.219,-0.545 0.291,-0.545C0.358,-0.545 0.411,-0.523 0.45,-0.479C0.489,-0.435 0.509,-0.376 0.509,-0.304L0.509,-0.253L0.14,-0.253C0.142,-0.19 0.158,-0.142 0.188,-0.11C0.218,-0.077 0.26,-0.061 0.315,-0.061C0.373,-0.061 0.43,-0.073 0.486,-0.097L0.486,-0.025C0.457,-0.013 0.43,-0.004 0.405,0.002C0.379,0.007 0.348,0.01 0.312,0.01ZM0.29,-0.477C0.247,-0.477 0.213,-0.463 0.187,-0.435C0.162,-0.407 0.147,-0.368 0.142,-0.319L0.422,-0.319C0.422,-0.37 0.41,-0.409 0.388,-0.436C0.365,-0.463 0.332,-0.477 0.29,-0.477Z" style="fill:rgb(47,47,47);fill-rule:nonzero;"/>
            </g>
        </g>
        <g transform="matrix(0.513353,0,0,0.673529,79.6447,194.986)">
            <g transform="matrix(12,0,0,12,107.26,28.2489)">
                <path d="M0.098,0L0.098,-0.714L0.181,-0.714L0.181,-0.075L0.496,-0.075L0.496,0L0.098,0Z" style="fill:rgb(47,47,47);fill-rule:nonzero;"/>
            </g>
            <g transform="matrix(12,0,0,12,113.488,28.2489)">
                <path d="M0.548,-0.268C0.548,-0.181 0.526,-0.113 0.482,-0.064C0.438,-0.015 0.377,0.01 0.3,0.01C0.252,0.01 0.209,-0.001 0.172,-0.024C0.135,-0.046 0.107,-0.079 0.086,-0.121C0.066,-0.163 0.056,-0.212 0.056,-0.268C0.056,-0.355 0.078,-0.423 0.122,-0.472C0.165,-0.521 0.226,-0.545 0.303,-0.545C0.378,-0.545 0.438,-0.52 0.482,-0.47C0.526,-0.42 0.548,-0.353 0.548,-0.268ZM0.14,-0.268C0.14,-0.2 0.154,-0.148 0.181,-0.112C0.208,-0.076 0.249,-0.058 0.302,-0.058C0.355,-0.058 0.395,-0.076 0.423,-0.112C0.45,-0.147 0.464,-0.199 0.464,-0.268C0.464,-0.336 0.45,-0.388 0.423,-0.423C0.395,-0.458 0.354,-0.476 0.301,-0.476C0.248,-0.476 0.208,-0.459 0.181,-0.424C0.154,-0.389 0.14,-0.337 0.14,-0.268Z" style="fill:rgb(47,47,47);fill-rule:nonzero;"/>
            </g>
            <g transform="matrix(12,0,0,12,120.736,28.2489)">
                <path d="M0.523,0L0.425,-0.314C0.419,-0.333 0.407,-0.377 0.39,-0.445L0.386,-0.445C0.373,-0.388 0.362,-0.344 0.352,-0.313L0.251,0L0.157,0L0.011,-0.535L0.096,-0.535C0.131,-0.401 0.157,-0.298 0.175,-0.228C0.193,-0.158 0.203,-0.11 0.206,-0.086L0.21,-0.086C0.214,-0.104 0.219,-0.128 0.227,-0.158C0.235,-0.187 0.242,-0.211 0.248,-0.228L0.346,-0.535L0.434,-0.535L0.53,-0.228C0.548,-0.172 0.56,-0.125 0.567,-0.087L0.571,-0.087C0.572,-0.099 0.576,-0.117 0.581,-0.141C0.587,-0.166 0.621,-0.297 0.683,-0.535L0.767,-0.535L0.619,0L0.523,0Z" style="fill:rgb(47,47,47);fill-rule:nonzero;"/>
            </g>
            <g transform="matrix(12,0,0,12,133.188,28.2489)">
                <path d="M0.259,-0.057C0.273,-0.057 0.287,-0.058 0.3,-0.06C0.314,-0.062 0.324,-0.065 0.332,-0.067L0.332,-0.005C0.323,-0.001 0.31,0.003 0.293,0.006C0.276,0.008 0.261,0.01 0.247,0.01C0.144,0.01 0.092,-0.045 0.092,-0.154L0.092,-0.472L0.015,-0.472L0.015,-0.511L0.092,-0.545L0.126,-0.659L0.173,-0.659L0.173,-0.535L0.328,-0.535L0.328,-0.472L0.173,-0.472L0.173,-0.157C0.173,-0.125 0.181,-0.1 0.196,-0.083C0.211,-0.066 0.232,-0.057 0.259,-0.057Z" style="fill:rgb(47,47,47);fill-rule:nonzero;"/>
            </g>
            <g transform="matrix(12,0,0,12,137.424,28.2489)">
                <path d="M0.33,-0.545C0.354,-0.545 0.375,-0.543 0.394,-0.539L0.383,-0.464C0.361,-0.469 0.341,-0.471 0.324,-0.471C0.281,-0.471 0.244,-0.454 0.213,-0.418C0.182,-0.383 0.167,-0.34 0.167,-0.287L0.167,0L0.086,0L0.086,-0.535L0.153,-0.535L0.162,-0.436L0.166,-0.436C0.186,-0.471 0.21,-0.498 0.238,-0.517C0.266,-0.535 0.297,-0.545 0.33,-0.545Z" style="fill:rgb(47,47,47);fill-rule:nonzero;"/>
            </g>
            <g transform="matrix(12,0,0,12,142.322,28.2489)">
                <path d="M0.167,0L0.086,0L0.086,-0.535L0.167,-0.535L0.167,0ZM0.079,-0.68C0.079,-0.699 0.084,-0.712 0.093,-0.721C0.102,-0.73 0.113,-0.734 0.127,-0.734C0.14,-0.734 0.151,-0.729 0.161,-0.721C0.17,-0.712 0.175,-0.698 0.175,-0.68C0.175,-0.662 0.17,-0.648 0.161,-0.639C0.151,-0.63 0.14,-0.626 0.127,-0.626C0.113,-0.626 0.102,-0.63 0.093,-0.639C0.084,-0.648 0.079,-0.662 0.079,-0.68Z" style="fill:rgb(47,47,47);fill-rule:nonzero;"/>
            </g>
            <g transform="matrix(12,0,0,12,145.358,28.2489)">
                <path d="M0.335,0.01C0.3,0.01 0.268,0.003 0.24,-0.01C0.211,-0.022 0.187,-0.042 0.167,-0.069L0.161,-0.069C0.165,-0.038 0.167,-0.008 0.167,0.02L0.167,0.24L0.086,0.24L0.086,-0.535L0.152,-0.535L0.163,-0.462L0.167,-0.462C0.188,-0.491 0.212,-0.512 0.24,-0.525C0.267,-0.538 0.299,-0.545 0.335,-0.545C0.406,-0.545 0.461,-0.521 0.499,-0.472C0.538,-0.424 0.557,-0.356 0.557,-0.268C0.557,-0.18 0.538,-0.112 0.498,-0.063C0.459,-0.015 0.405,0.01 0.335,0.01ZM0.323,-0.476C0.269,-0.476 0.229,-0.461 0.205,-0.431C0.18,-0.4 0.168,-0.352 0.167,-0.286L0.167,-0.268C0.167,-0.193 0.18,-0.139 0.205,-0.107C0.23,-0.074 0.27,-0.058 0.325,-0.058C0.371,-0.058 0.408,-0.077 0.434,-0.114C0.46,-0.152 0.473,-0.203 0.473,-0.269C0.473,-0.336 0.46,-0.387 0.434,-0.423C0.408,-0.458 0.371,-0.476 0.323,-0.476Z" style="fill:rgb(47,47,47);fill-rule:nonzero;"/>
            </g>
            <g transform="matrix(12,0,0,12,155.828,28.2489)">
                <path d="M0.203,0L0,-0.535L0.087,-0.535L0.202,-0.218C0.228,-0.144 0.243,-0.095 0.248,-0.073L0.252,-0.073C0.256,-0.09 0.267,-0.126 0.286,-0.18C0.305,-0.235 0.348,-0.353 0.414,-0.535L0.501,-0.535L0.298,0L0.203,0Z" style="fill:rgb(47,47,47);fill-rule:nonzero;"/>
            </g>
            <g transform="matrix(12,0,0,12,161.84,28.2489)">
                <path d="M0.415,0L0.399,-0.076L0.395,-0.076C0.368,-0.043 0.342,-0.02 0.315,-0.008C0.289,0.004 0.256,0.01 0.216,0.01C0.163,0.01 0.121,-0.004 0.091,-0.031C0.061,-0.059 0.046,-0.097 0.046,-0.148C0.046,-0.256 0.132,-0.313 0.305,-0.318L0.396,-0.321L0.396,-0.354C0.396,-0.396 0.387,-0.427 0.369,-0.447C0.351,-0.467 0.322,-0.477 0.282,-0.477C0.238,-0.477 0.187,-0.463 0.131,-0.436L0.106,-0.498C0.132,-0.512 0.161,-0.524 0.193,-0.532C0.224,-0.54 0.256,-0.544 0.287,-0.544C0.351,-0.544 0.398,-0.53 0.429,-0.501C0.46,-0.473 0.475,-0.428 0.475,-0.365L0.475,0L0.415,0ZM0.232,-0.057C0.282,-0.057 0.322,-0.071 0.351,-0.099C0.38,-0.126 0.394,-0.165 0.394,-0.215L0.394,-0.263L0.313,-0.26C0.249,-0.257 0.202,-0.247 0.174,-0.23C0.145,-0.212 0.131,-0.184 0.131,-0.147C0.131,-0.118 0.14,-0.095 0.157,-0.08C0.175,-0.065 0.2,-0.057 0.232,-0.057Z" style="fill:rgb(47,47,47);fill-rule:nonzero;"/>
            </g>
            <g transform="matrix(12,0,0,12,168.514,28.2489)">
                <rect x="0.086" y="-0.76" width="0.081" height="0.76" style="fill:rgb(47,47,47);fill-rule:nonzero;"/>
            </g>
            <g transform="matrix(12,0,0,12,171.549,28.2489)">
                <path d="M0.162,-0.535L0.162,-0.188C0.162,-0.144 0.172,-0.112 0.192,-0.09C0.212,-0.069 0.243,-0.058 0.285,-0.058C0.341,-0.058 0.382,-0.073 0.408,-0.104C0.434,-0.135 0.447,-0.185 0.447,-0.254L0.447,-0.535L0.528,-0.535L0.528,0L0.461,0L0.449,-0.072L0.445,-0.072C0.428,-0.045 0.405,-0.025 0.376,-0.011C0.346,0.003 0.313,0.01 0.275,0.01C0.21,0.01 0.161,-0.006 0.129,-0.037C0.096,-0.068 0.08,-0.117 0.08,-0.185L0.08,-0.535L0.162,-0.535Z" style="fill:rgb(47,47,47);fill-rule:nonzero;"/>
            </g>
            <g transform="matrix(12,0,0,12,178.914,28.2489)">
                <path d="M0.312,0.01C0.233,0.01 0.17,-0.014 0.125,-0.063C0.079,-0.111 0.056,-0.178 0.056,-0.263C0.056,-0.349 0.077,-0.418 0.12,-0.469C0.162,-0.52 0.219,-0.545 0.291,-0.545C0.358,-0.545 0.411,-0.523 0.45,-0.479C0.489,-0.435 0.509,-0.376 0.509,-0.304L0.509,-0.253L0.14,-0.253C0.142,-0.19 0.158,-0.142 0.188,-0.11C0.218,-0.077 0.26,-0.061 0.315,-0.061C0.373,-0.061 0.43,-0.073 0.486,-0.097L0.486,-0.025C0.457,-0.013 0.43,-0.004 0.405,0.002C0.379,0.007 0.348,0.01 0.312,0.01ZM0.29,-0.477C0.247,-0.477 0.213,-0.463 0.187,-0.435C0.162,-0.407 0.147,-0.368 0.142,-0.319L0.422,-0.319C0.422,-0.37 0.41,-0.409 0.388,-0.436C0.365,-0.463 0.332,-0.477 0.29,-0.477Z" style="fill:rgb(47,47,47);fill-rule:nonzero;"/>
            </g>
        </g>
        <g transform="matrix(0.513353,0,0,0.673529,35.811,278.504)">
            <g transform="matrix(12,0,0,12,107.26,28.2489)">
                <path d="M0.404,-0.65C0.325,-0.65 0.263,-0.624 0.218,-0.572C0.173,-0.519 0.15,-0.448 0.15,-0.357C0.15,-0.264 0.172,-0.191 0.216,-0.14C0.259,-0.089 0.322,-0.064 0.403,-0.064C0.453,-0.064 0.509,-0.073 0.573,-0.091L0.573,-0.018C0.524,0 0.463,0.01 0.39,0.01C0.285,0.01 0.204,-0.022 0.147,-0.086C0.09,-0.15 0.061,-0.24 0.061,-0.358C0.061,-0.431 0.075,-0.496 0.102,-0.551C0.13,-0.607 0.17,-0.649 0.221,-0.679C0.273,-0.709 0.334,-0.724 0.405,-0.724C0.48,-0.724 0.545,-0.71 0.601,-0.683L0.566,-0.612C0.512,-0.637 0.458,-0.65 0.404,-0.65Z" style="fill:rgb(47,47,47);fill-rule:nonzero;"/>
            </g>
            <g transform="matrix(12,0,0,12,114.83,28.2489)">
                <path d="M0.162,-0.535L0.162,-0.188C0.162,-0.144 0.172,-0.112 0.192,-0.09C0.212,-0.069 0.243,-0.058 0.285,-0.058C0.341,-0.058 0.382,-0.073 0.408,-0.104C0.434,-0.135 0.447,-0.185 0.447,-0.254L0.447,-0.535L0.528,-0.535L0.528,0L0.461,0L0.449,-0.072L0.445,-0.072C0.428,-0.045 0.405,-0.025 0.376,-0.011C0.346,0.003 0.313,0.01 0.275,0.01C0.21,0.01 0.161,-0.006 0.129,-0.037C0.096,-0.068 0.08,-0.117 0.08,-0.185L0.08,-0.535L0.162,-0.535Z" style="fill:rgb(47,47,47);fill-rule:nonzero;"/>
            </g>
            <g transform="matrix(12,0,0,12,122.195,28.2489)">
                <path d="M0.33,-0.545C0.354,-0.545 0.375,-0.543 0.394,-0.539L0.383,-0.464C0.361,-0.469 0.341,-0.471 0.324,-0.471C0.281,-0.471 0.244,-0.454 0.213,-0.418C0.182,-0.383 0.167,-0.34 0.167,-0.287L0.167,0L0.086,0L0.086,-0.535L0.153,-0.535L0.162,-0.436L0.166,-0.436C0.186,-0.471 0.21,-0.498 0.238,-0.517C0.266,-0.535 0.297,-0.545 0.33,-0.545Z" style="fill:rgb(47,47,47);fill-rule:nonzero;"/>
            </g>
            <g transform="matrix(12,0,0,12,127.094,28.2489)">
                <path d="M0.33,-0.545C0.354,-0.545 0.375,-0.543 0.394,-0.539L0.383,-0.464C0.361,-0.469 0.341,-0.471 0.324,-0.471C0.281,-0.471 0.244,-0.454 0.213,-0.418C0.182,-0.383 0.167,-0.34 0.167,-0.287L0.167,0L0.086,0L0.086,-0.535L0.153,-0.535L0.162,-0.436L0.166,-0.436C0.186,-0.471 0.21,-0.498 0.238,-0.517C0.266,-0.535 0.297,-0.545 0.33,-0.545Z" style="fill:rgb(47,47,47);fill-rule:nonzero;"/>
            </g>
            <g transform="matrix(12,0,0,12,131.992,28.2489)">
                <path d="M0.312,0.01C0.233,0.01 0.17,-0.014 0.125,-0.063C0.079,-0.111 0.056,-0.178 0.056,-0.263C0.056,-0.349 0.077,-0.418 0.12,-0.469C0.162,-0.52 0.219,-0.545 0.291,-0.545C0.358,-0.545 0.411,-0.523 0.45,-0.479C0.489,-0.435 0.509,-0.376 0.509,-0.304L0.509,-0.253L0.14,-0.253C0.142,-0.19 0.158,-0.142 0.188,-0.11C0.218,-0.077 0.26,-0.061 0.315,-0.061C0.373,-0.061 0.43,-0.073 0.486,-0.097L0.486,-0.025C0.457,-0.013 0.43,-0.004 0.405,0.002C0.379,0.007 0.348,0.01 0.312,0.01ZM0.29,-0.477C0.247,-0.477 0.213,-0.463 0.187,-0.435C0.162,-0.407 0.147,-0.368 0.142,-0.319L0.422,-0.319C0.422,-0.37 0.41,-0.409 0.388,-0.436C0.365,-0.463 0.332,-0.477 0.29,-0.477Z" style="fill:rgb(47,47,47);fill-rule:nonzero;"/>
            </g>
            <g transform="matrix(12,0,0,12,138.725,28.2489)">
                <path d="M0.452,0L0.452,-0.346C0.452,-0.39 0.442,-0.422 0.422,-0.444C0.403,-0.465 0.371,-0.476 0.329,-0.476C0.273,-0.476 0.232,-0.461 0.206,-0.431C0.18,-0.4 0.167,-0.35 0.167,-0.281L0.167,0L0.086,0L0.086,-0.535L0.152,-0.535L0.165,-0.462L0.169,-0.462C0.186,-0.488 0.209,-0.509 0.239,-0.523C0.269,-0.538 0.302,-0.545 0.339,-0.545C0.403,-0.545 0.452,-0.529 0.484,-0.498C0.517,-0.467 0.533,-0.417 0.533,-0.349L0.533,0L0.452,0Z" style="fill:rgb(47,47,47);fill-rule:nonzero;"/>
            </g>
            <g transform="matrix(12,0,0,12,146.09,28.2489)">
                <path d="M0.259,-0.057C0.273,-0.057 0.287,-0.058 0.3,-0.06C0.314,-0.062 0.324,-0.065 0.332,-0.067L0.332,-0.005C0.323,-0.001 0.31,0.003 0.293,0.006C0.276,0.008 0.261,0.01 0.247,0.01C0.144,0.01 0.092,-0.045 0.092,-0.154L0.092,-0.472L0.015,-0.472L0.015,-0.511L0.092,-0.545L0.126,-0.659L0.173,-0.659L0.173,-0.535L0.328,-0.535L0.328,-0.472L0.173,-0.472L0.173,-0.157C0.173,-0.125 0.181,-0.1 0.196,-0.083C0.211,-0.066 0.232,-0.057 0.259,-0.057Z" style="fill:rgb(47,47,47);fill-rule:nonzero;"/>
            </g>
            <g transform="matrix(12,0,0,12,153.443,28.2489)">
                <path d="M0.203,0L0,-0.535L0.087,-0.535L0.202,-0.218C0.228,-0.144 0.243,-0.095 0.248,-0.073L0.252,-0.073C0.256,-0.09 0.267,-0.126 0.286,-0.18C0.305,-0.235 0.348,-0.353 0.414,-0.535L0.501,-0.535L0.298,0L0.203,0Z" style="fill:rgb(47,47,47);fill-rule:nonzero;"/>
            </g>
            <g transform="matrix(12,0,0,12,159.455,28.2489)">
                <path d="M0.415,0L0.399,-0.076L0.395,-0.076C0.368,-0.043 0.342,-0.02 0.315,-0.008C0.289,0.004 0.256,0.01 0.216,0.01C0.163,0.01 0.121,-0.004 0.091,-0.031C0.061,-0.059 0.046,-0.097 0.046,-0.148C0.046,-0.256 0.132,-0.313 0.305,-0.318L0.396,-0.321L0.396,-0.354C0.396,-0.396 0.387,-0.427 0.369,-0.447C0.351,-0.467 0.322,-0.477 0.282,-0.477C0.238,-0.477 0.187,-0.463 0.131,-0.436L0.106,-0.498C0.132,-0.512 0.161,-0.524 0.193,-0.532C0.224,-0.54 0.256,-0.544 0.287,-0.544C0.351,-0.544 0.398,-0.53 0.429,-0.501C0.46,-0.473 0.475,-0.428 0.475,-0.365L0.475,0L0.415,0ZM0.232,-0.057C0.282,-0.057 0.322,-0.071 0.351,-0.099C0.38,-0.126 0.394,-0.165 0.394,-0.215L0.394,-0.263L0.313,-0.26C0.249,-0.257 0.202,-0.247 0.174,-0.23C0.145,-0.212 0.131,-0.184 0.131,-0.147C0.131,-0.118 0.14,-0.095 0.157,-0.08C0.175,-0.065 0.2,-0.057 0.232,-0.057Z" style="fill:rgb(47,47,47);fill-rule:nonzero;"/>
            </g>
            <g transform="matrix(12,0,0,12,166.129,28.2489)">
                <rect x="0.086" y="-0.76" width="0.081" height="0.76" style="fill:rgb(47,47,47);fill-rule:nonzero;"/>
            </g>
            <g transform="matrix(12,0,0,12,169.164,28.2489)">
                <path d="M0.162,-0.535L0.162,-0.188C0.162,-0.144 0.172,-0.112 0.192,-0.09C0.212,-0.069 0.243,-0.058 0.285,-0.058C0.341,-0.058 0.382,-0.073 0.408,-0.104C0.434,-0.135 0.447,-0.185 0.447,-0.254L0.447,-0.535L0.528,-0.535L0.528,0L0.461,0L0.449,-0.072L0.445,-0.072C0.428,-0.045 0.405,-0.025 0.376,-0.011C0.346,0.003 0.313,0.01 0.275,0.01C0.21,0.01 0.161,-0.006 0.129,-0.037C0.096,-0.068 0.08,-0.117 0.08,-0.185L0.08,-0.535L0.162,-0.535Z" style="fill:rgb(47,47,47);fill-rule:nonzero;"/>
            </g>
            <g transform="matrix(12,0,0,12,176.529,28.2489)">
                <path d="M0.312,0.01C0.233,0.01 0.17,-0.014 0.125,-0.063C0.079,-0.111 0.056,-0.178 0.056,-0.263C0.056,-0.349 0.077,-0.418 0.12,-0.469C0.162,-0.52 0.219,-0.545 0.291,-0.545C0.358,-0.545 0.411,-0.523 0.45,-0.479C0.489,-0.435 0.509,-0.376 0.509,-0.304L0.509,-0.253L0.14,-0.253C0.142,-0.19 0.158,-0.142 0.188,-0.11C0.218,-0.077 0.26,-0.061 0.315,-0.061C0.373,-0.061 0.43,-0.073 0.486,-0.097L0.486,-0.025C0.457,-0.013 0.43,-0.004 0.405,0.002C0.379,0.007 0.348,0.01 0.312,0.01ZM0.29,-0.477C0.247,-0.477 0.213,-0.463 0.187,-0.435C0.162,-0.407 0.147,-0.368 0.142,-0.319L0.422,-0.319C0.422,-0.37 0.41,-0.409 0.388,-0.436C0.365,-0.463 0.332,-0.477 0.29,-0.477Z" style="fill:rgb(47,47,47);fill-rule:nonzero;"/>
            </g>
        </g>
    </g>
</svg>
