<?xml version="1.0" encoding="UTF-8" standalone="no"?>
<svg
   xmlns:dc="http://purl.org/dc/elements/1.1/"
   xmlns:cc="http://creativecommons.org/ns#"
   xmlns:rdf="http://www.w3.org/1999/02/22-rdf-syntax-ns#"
   xmlns:svg="http://www.w3.org/2000/svg"
   xmlns="http://www.w3.org/2000/svg"
   xmlns:sodipodi="http://sodipodi.sourceforge.net/DTD/sodipodi-0.dtd"
   xmlns:inkscape="http://www.inkscape.org/namespaces/inkscape"
   id="svg8"
   version="1.1"
   viewBox="0 0 75.102737 83.120819"
   height="83.120819mm"
   width="75.102737mm"
   sodipodi:docname="12-days-of-christmas.svg"
   inkscape:version="0.92.5 (2060ec1f9f, 2020-04-08)">
  <sodipodi:namedview
     pagecolor="#ffffff"
     bordercolor="#666666"
     borderopacity="1"
     objecttolerance="10"
     gridtolerance="10"
     guidetolerance="10"
     inkscape:pageopacity="0"
     inkscape:pageshadow="2"
     inkscape:window-width="1747"
     inkscape:window-height="1736"
     id="namedview3087"
     showgrid="false"
     inkscape:zoom="3.0048629"
     inkscape:cx="140.48858"
     inkscape:cy="118.7861"
     inkscape:window-x="40"
     inkscape:window-y="27"
     inkscape:window-maximized="0"
     inkscape:current-layer="layer1" />
  <defs
     id="defs2" />
  <metadata
     id="metadata5">
    <rdf:RDF>
      <cc:Work
         rdf:about="">
        <dc:format>image/svg+xml</dc:format>
        <dc:type
           rdf:resource="http://purl.org/dc/dcmitype/StillImage" />
        <dc:title />
      </cc:Work>
    </rdf:RDF>
  </metadata>
  <g
     transform="translate(-5.3453903,-7.2798319)"
     id="layer1">
    <path
       id="rect1444-9-3"
       d="m 14.244417,76.691427 h 1.769489 c 2.146975,0 3.875409,1.728432 3.875409,3.875408 0,2.146977 -1.728434,3.875409 -3.875409,3.875409 h -1.769489 c -2.146976,0 -3.875409,-1.728432 -3.875409,-3.875409 0,-2.146976 1.728433,-3.875408 3.875409,-3.875408 z"
       style="opacity:1;fill:#6a87da;fill-opacity:1;stroke:none;stroke-width:0.2;stroke-linecap:round;stroke-linejoin:miter;stroke-miterlimit:4;stroke-dasharray:none;stroke-dashoffset:0;stroke-opacity:1;paint-order:normal"
       inkscape:connector-curvature="0"
       sodipodi:nodetypes="sssssss" />
    <path
       id="rect1444-9"
       d="m 50.756915,58.946925 h 20.819488 c 2.146975,0 3.875408,1.728432 3.875408,3.875408 0,2.146977 -1.728433,3.875409 -3.875408,3.875409 H 50.756915 c -2.146976,0 -3.875409,-1.728432 -3.875409,-3.875409 0,-2.146976 1.728433,-3.875408 3.875409,-3.875408 z"
       style="opacity:1;fill:#6a87da;fill-opacity:1;stroke:none;stroke-width:0.2;stroke-linecap:round;stroke-linejoin:miter;stroke-miterlimit:4;stroke-dasharray:none;stroke-dashoffset:0;stroke-opacity:1;paint-order:normal"
       inkscape:connector-curvature="0"
       sodipodi:nodetypes="sssssss" />
    <path
       id="rect1444"
       d="m 14.244416,67.820414 h 57.331987 c 2.146976,0 3.875408,1.728432 3.875408,3.875408 0,2.146976 -1.728432,3.875408 -3.875408,3.875408 H 14.244416 c -2.146976,0 -3.875408,-1.728432 -3.875408,-3.875408 0,-2.146976 1.728432,-3.875408 3.875408,-3.875408 z"
       style="opacity:1;fill:#6a87da;fill-opacity:1;stroke:none;stroke-width:0.2;stroke-linecap:round;stroke-linejoin:miter;stroke-miterlimit:4;stroke-dasharray:none;stroke-dashoffset:0;stroke-opacity:1;paint-order:normal"
       inkscape:connector-curvature="0"
       sodipodi:nodetypes="sssssss" />
    <path
       style="opacity:1;fill:none;fill-opacity:1;stroke:#ababab;stroke-width:0.2;stroke-linecap:round;stroke-linejoin:miter;stroke-miterlimit:4;stroke-dasharray:none;stroke-dashoffset:0;stroke-opacity:1;paint-order:normal"
       d="M 9.8592789,10.759141 H 75.934239 c 0.752527,0 1.358352,0.605825 1.358352,1.358352 V 85.56299 c 0,0.752527 -0.605825,1.358352 -1.358352,1.358352 H 9.8592789 c -0.752527,0 -1.3583519,-0.605825 -1.3583519,-1.358352 V 12.117493 c 0,-0.752527 0.6058249,-1.358352 1.3583519,-1.358352 z"
       id="rect838" />
    <g
       aria-label="December 2021"
       style="font-style:normal;font-variant:normal;font-weight:600;font-stretch:normal;font-size:7.05555534px;line-height:1.25;font-family:'Open Sans';-inkscape-font-specification:'Open Sans Semi-Bold';letter-spacing:0px;word-spacing:0px;fill:#000000;fill-opacity:1;stroke:none;stroke-width:0.26458332"
       id="text842">
      <path
         d="m 31.128141,16.666179 q 0,0.685918 -0.380856,1.04972 -0.380855,0.361907 -1.09709,0.361907 H 28.87522 v -2.770201 h 0.856451 q 0.661286,0 1.028878,0.356223 0.367592,0.356223 0.367592,1.002351 z m -0.477491,0.01516 q 0,-0.994771 -0.930348,-0.994771 h -0.392224 v 2.010385 h 0.322117 q 1.000455,0 1.000455,-1.015614 z"
         style="font-size:3.88055563px;stroke-width:0.26458332"
         id="path3648" />
      <path
         d="m 32.590928,18.115703 q -0.488859,0 -0.7655,-0.284221 -0.274747,-0.286115 -0.274747,-0.786343 0,-0.513491 0.255799,-0.807186 0.255798,-0.293694 0.702972,-0.293694 0.414961,0 0.655601,0.252009 0.24064,0.252008 0.24064,0.693497 v 0.24064 h -1.396469 q 0.0095,0.305063 0.164848,0.469911 0.155373,0.162953 0.437699,0.162953 0.185691,0 0.344854,-0.03411 0.161058,-0.036 0.344854,-0.117478 v 0.361907 q -0.162953,0.07769 -0.329696,0.109899 -0.166742,0.03221 -0.380855,0.03221 z m -0.08148,-1.834169 q -0.212218,0 -0.341065,0.134531 -0.126952,0.134531 -0.151584,0.392224 h 0.951191 q -0.0038,-0.259588 -0.125057,-0.392224 -0.121268,-0.134531 -0.333485,-0.134531 z"
         style="font-size:3.88055563px;stroke-width:0.26458332"
         id="path3650" />
      <path
         d="m 34.756688,18.115703 q -0.475596,0 -0.723815,-0.276642 -0.246324,-0.278536 -0.246324,-0.797712 0,-0.528649 0.257693,-0.81287 0.259588,-0.28422 0.748447,-0.28422 0.33159,0 0.596863,0.123162 l -0.134531,0.358118 q -0.282326,-0.109899 -0.466122,-0.109899 -0.543808,0 -0.543808,0.72192 0,0.352433 0.134531,0.530545 0.136426,0.176216 0.397908,0.176216 0.297484,0 0.562757,-0.147794 v 0.388434 q -0.119373,0.07011 -0.255799,0.100425 -0.13453,0.03032 -0.3278,0.03032 z"
         style="font-size:3.88055563px;stroke-width:0.26458332"
         id="path3652" />
      <path
         d="m 36.748125,18.115703 q -0.488859,0 -0.7655,-0.284221 -0.274747,-0.286115 -0.274747,-0.786343 0,-0.513491 0.255799,-0.807186 0.255798,-0.293694 0.702971,-0.293694 0.414962,0 0.655602,0.252009 0.24064,0.252008 0.24064,0.693497 v 0.24064 h -1.39647 q 0.0095,0.305063 0.164848,0.469911 0.155374,0.162953 0.4377,0.162953 0.18569,0 0.344854,-0.03411 0.161058,-0.036 0.344854,-0.117478 v 0.361907 q -0.162953,0.07769 -0.329696,0.109899 -0.166742,0.03221 -0.380855,0.03221 z m -0.08148,-1.834169 q -0.212218,0 -0.341064,0.134531 -0.126952,0.134531 -0.151584,0.392224 h 0.951191 q -0.0038,-0.259588 -0.125057,-0.392224 -0.121268,-0.134531 -0.333486,-0.134531 z"
         style="font-size:3.88055563px;stroke-width:0.26458332"
         id="path3654" />
      <path
         d="m 39.834758,18.077806 h -0.447174 v -1.292255 q 0,-0.24064 -0.09095,-0.358118 -0.09095,-0.119372 -0.284221,-0.119372 -0.257693,0 -0.37896,0.168637 -0.119373,0.166743 -0.119373,0.557072 v 1.044036 h -0.445278 v -2.095651 h 0.348643 l 0.06253,0.274746 h 0.02274 q 0.08716,-0.149689 0.252008,-0.231166 0.166743,-0.08148 0.365697,-0.08148 0.483175,0 0.640443,0.329695 h 0.03032 q 0.09285,-0.155373 0.261483,-0.242534 0.168637,-0.08716 0.38654,-0.08716 0.375171,0 0.545703,0.18948 0.172427,0.18948 0.172427,0.577915 v 1.366152 h -0.445279 v -1.292255 q 0,-0.24064 -0.09285,-0.358118 -0.09095,-0.119372 -0.28422,-0.119372 -0.259588,0 -0.380856,0.162953 -0.119372,0.161058 -0.119372,0.496438 z"
         style="font-size:3.88055563px;stroke-width:0.26458332"
         id="path3656" />
      <path
         d="m 42.849389,15.944259 q 0.392224,0 0.610127,0.28422 0.219797,0.284221 0.219797,0.797712 0,0.515386 -0.221692,0.803396 -0.221692,0.286116 -0.615811,0.286116 -0.397909,0 -0.617706,-0.286116 h -0.03032 l -0.08148,0.248219 h -0.333485 v -2.948312 h 0.445278 v 0.701077 q 0,0.07769 -0.0076,0.231166 -0.0076,0.153479 -0.01137,0.195164 h 0.01895 q 0.212218,-0.312642 0.625285,-0.312642 z m -0.115583,0.363802 q -0.269062,0 -0.388434,0.159163 -0.117478,0.157269 -0.121268,0.52865 v 0.03032 q 0,0.38275 0.121268,0.555177 0.121267,0.170532 0.396013,0.170532 0.236851,0 0.358118,-0.187585 0.123162,-0.187585 0.123162,-0.541914 0,-0.71434 -0.488859,-0.71434 z"
         style="font-size:3.88055563px;stroke-width:0.26458332"
         id="path3658" />
      <path
         d="m 45.111784,18.115703 q -0.488859,0 -0.7655,-0.284221 -0.274747,-0.286115 -0.274747,-0.786343 0,-0.513491 0.255798,-0.807186 0.255799,-0.293694 0.702972,-0.293694 0.414962,0 0.655602,0.252009 0.24064,0.252008 0.24064,0.693497 v 0.24064 h -1.39647 q 0.0095,0.305063 0.164848,0.469911 0.155374,0.162953 0.4377,0.162953 0.18569,0 0.344854,-0.03411 0.161058,-0.036 0.344854,-0.117478 v 0.361907 q -0.162953,0.07769 -0.329696,0.109899 -0.166743,0.03221 -0.380855,0.03221 z m -0.08148,-1.834169 q -0.212218,0 -0.341064,0.134531 -0.126952,0.134531 -0.151584,0.392224 h 0.95119 q -0.0038,-0.259588 -0.125057,-0.392224 -0.121267,-0.134531 -0.333485,-0.134531 z"
         style="font-size:3.88055563px;stroke-width:0.26458332"
         id="path3660" />
      <path
         d="m 47.495445,15.944259 q 0.134531,0 0.221692,0.01895 l -0.04358,0.414962 q -0.09474,-0.02274 -0.197059,-0.02274 -0.267167,0 -0.43391,0.174322 -0.164848,0.174322 -0.164848,0.452858 v 1.095195 h -0.445278 v -2.095651 h 0.348643 l 0.05874,0.369486 h 0.02274 q 0.104214,-0.187585 0.270957,-0.297484 0.168637,-0.109898 0.361907,-0.109898 z"
         style="font-size:3.88055563px;stroke-width:0.26458332"
         id="path3662" />
      <path
         d="m 50.84356,18.077806 h -1.877749 v -0.337274 l 0.71434,-0.718131 q 0.316432,-0.324011 0.418752,-0.458542 0.104214,-0.136426 0.151584,-0.255798 0.04737,-0.119373 0.04737,-0.255798 0,-0.187586 -0.113688,-0.29559 -0.111794,-0.108003 -0.310748,-0.108003 -0.159163,0 -0.308853,0.05874 -0.147794,0.05874 -0.342959,0.212218 l -0.24064,-0.293694 q 0.231166,-0.195165 0.449068,-0.276641 0.217903,-0.08148 0.464227,-0.08148 0.38654,0 0.6196,0.202744 0.233061,0.200849 0.233061,0.541914 0,0.187585 -0.06821,0.356223 -0.06632,0.168637 -0.206533,0.348643 -0.138321,0.178112 -0.462332,0.483175 l -0.48128,0.466121 v 0.01895 h 1.314993 z"
         style="font-size:3.88055563px;stroke-width:0.26458332"
         id="path3664" />
      <path
         d="m 53.058585,16.692706 q 0,0.72192 -0.233061,1.072458 -0.231166,0.350539 -0.708656,0.350539 -0.462332,0 -0.701077,-0.361908 -0.238745,-0.361907 -0.238745,-1.061089 0,-0.733289 0.231166,-1.080038 0.233061,-0.348643 0.708656,-0.348643 0.464227,0 0.702972,0.363802 0.238745,0.363802 0.238745,1.064879 z m -1.430576,0 q 0,0.566546 0.115583,0.80908 0.117478,0.242535 0.373276,0.242535 0.255799,0 0.373276,-0.246324 0.119373,-0.246324 0.119373,-0.805291 0,-0.557072 -0.119373,-0.805291 -0.117477,-0.250114 -0.373276,-0.250114 -0.255798,0 -0.373276,0.244429 -0.115583,0.24443 -0.115583,0.810976 z"
         style="font-size:3.88055563px;stroke-width:0.26458332"
         id="path3666" />
      <path
         d="m 55.27361,18.077806 h -1.877749 v -0.337274 l 0.71434,-0.718131 q 0.316432,-0.324011 0.418752,-0.458542 0.104214,-0.136426 0.151584,-0.255798 0.04737,-0.119373 0.04737,-0.255798 0,-0.187586 -0.113688,-0.29559 -0.111794,-0.108003 -0.310748,-0.108003 -0.159163,0 -0.308853,0.05874 -0.147794,0.05874 -0.342959,0.212218 l -0.24064,-0.293694 q 0.231166,-0.195165 0.449068,-0.276641 0.217903,-0.08148 0.464227,-0.08148 0.38654,0 0.6196,0.202744 0.233061,0.200849 0.233061,0.541914 0,0.187585 -0.06821,0.356223 -0.06632,0.168637 -0.206533,0.348643 -0.138321,0.178112 -0.462332,0.483175 l -0.48128,0.466121 v 0.01895 h 1.314993 z"
         style="font-size:3.88055563px;stroke-width:0.26458332"
         id="path3668" />
      <path
         d="m 56.918297,18.077806 h -0.445278 v -1.788693 q 0,-0.320222 0.01516,-0.507807 -0.04358,0.04547 -0.108003,0.100424 -0.06253,0.05495 -0.424436,0.348644 l -0.223587,-0.282326 0.814765,-0.640443 h 0.371381 z"
         style="font-size:3.88055563px;stroke-width:0.26458332"
         id="path3670" />
    </g>
    <path
       id="rect956"
       d="m 14.34843,16.622597 1.399231,-1.399231 v 2.798463 z"
       style="opacity:1;fill:#3d3d3d;fill-opacity:1;stroke:none;stroke-width:0.12339677;stroke-linecap:round;stroke-linejoin:miter;stroke-miterlimit:4;stroke-dasharray:none;stroke-dashoffset:0;stroke-opacity:1;paint-order:normal" />
    <path
       id="rect956-0"
       d="m 71.81851,16.622597 -1.399231,-1.399231 -10e-7,2.798463 z"
       style="opacity:1;fill:#3d3d3d;fill-opacity:1;stroke:none;stroke-width:0.12339677;stroke-linecap:round;stroke-linejoin:miter;stroke-miterlimit:4;stroke-dasharray:none;stroke-dashoffset:0;stroke-opacity:1;paint-order:normal" />
    <g
       aria-label="W"
       style="font-style:normal;font-variant:normal;font-weight:600;font-stretch:normal;font-size:7.05555534px;line-height:1.25;font-family:'Open Sans';-inkscape-font-specification:'Open Sans Semi-Bold';letter-spacing:0px;word-spacing:0px;fill:#000000;fill-opacity:1;stroke:none;stroke-width:0.26458332"
       id="text846-3-7-3">
      <path
         d="m 34.208039,25.251129 h -0.268717 l -0.256316,-0.901237 q -0.01654,-0.05891 -0.04134,-0.169498 -0.0248,-0.111622 -0.02997,-0.15503 -0.01034,0.06615 -0.03411,0.171566 -0.02274,0.10542 -0.03824,0.157096 l -0.250114,0.897103 H 33.020515 L 32.825178,24.494586 32.62674,23.74011 h 0.252181 l 0.216008,0.880567 q 0.05064,0.211873 0.07235,0.374137 0.01137,-0.08785 0.03411,-0.19637 0.02274,-0.108521 0.04134,-0.1757 l 0.24598,-0.882634 h 0.244946 l 0.252181,0.886768 q 0.03617,0.12299 0.07648,0.367936 0.0155,-0.147795 0.07442,-0.376204 l 0.214973,-0.8785 h 0.250114 z"
         style="font-size:2.11666656px;stroke-width:0.26458332"
         id="path3673" />
    </g>
    <g
       aria-label="01"
       style="font-style:normal;font-variant:normal;font-weight:600;font-stretch:normal;font-size:7.05555534px;line-height:1.25;font-family:'Open Sans';-inkscape-font-specification:'Open Sans Semi-Bold';letter-spacing:0px;word-spacing:0px;fill:#000000;fill-opacity:1;stroke:none;stroke-width:0.26458332"
       id="text846-9">
      <path
         d="m 33.700402,36.271734 q 0,0.525032 -0.169498,0.779969 -0.168121,0.254937 -0.515387,0.254937 -0.336241,0 -0.509874,-0.263205 -0.173633,-0.263205 -0.173633,-0.771701 0,-0.533301 0.168121,-0.785482 0.169499,-0.253559 0.515386,-0.253559 0.33762,0 0.511252,0.264583 0.173633,0.264583 0.173633,0.774458 z m -1.040419,0 q 0,0.412033 0.08406,0.588422 0.08544,0.176389 0.271473,0.176389 0.186035,0 0.271474,-0.179145 0.08682,-0.179145 0.08682,-0.585666 0,-0.405144 -0.08682,-0.585667 -0.08544,-0.181901 -0.271474,-0.181901 -0.186035,0 -0.271473,0.177767 -0.08406,0.177767 -0.08406,0.589801 z"
         style="font-size:2.82222223px;stroke-width:0.26458332"
         id="path3676" />
      <path
         d="M 34.896539,37.279079 H 34.5727 v -1.300868 q 0,-0.232888 0.01103,-0.369314 -0.03169,0.03307 -0.07855,0.07304 -0.04548,0.03996 -0.308681,0.253559 l -0.162609,-0.205327 0.592557,-0.465777 h 0.270095 z"
         style="font-size:2.82222223px;stroke-width:0.26458332"
         id="path3678" />
    </g>
    <g
       aria-label="08"
       style="font-style:normal;font-variant:normal;font-weight:600;font-stretch:normal;font-size:7.05555534px;line-height:1.25;font-family:'Open Sans';-inkscape-font-specification:'Open Sans Semi-Bold';letter-spacing:0px;word-spacing:0px;fill:#000000;fill-opacity:1;stroke:none;stroke-width:0.26458332"
       id="text846-9-3">
      <path
         d="m 33.493009,45.144128 q 0,0.525033 -0.169499,0.77997 -0.168121,0.254937 -0.515386,0.254937 -0.336242,0 -0.509875,-0.263206 -0.173632,-0.263205 -0.173632,-0.771701 0,-0.533301 0.16812,-0.785482 0.169499,-0.253559 0.515387,-0.253559 0.337619,0 0.511252,0.264584 0.173633,0.264583 0.173633,0.774457 z m -1.040419,0 q 0,0.412033 0.08406,0.588422 0.08544,0.176389 0.271474,0.176389 0.186035,0 0.271473,-0.179145 0.08682,-0.179145 0.08682,-0.585666 0,-0.405143 -0.08682,-0.585666 -0.08544,-0.181901 -0.271473,-0.181901 -0.186036,0 -0.271474,0.177767 -0.08406,0.177767 -0.08406,0.5898 z"
         style="font-size:2.82222223px;stroke-width:0.26458332"
         id="path3681" />
      <path
         d="m 34.41905,44.110599 q 0.286632,0 0.453375,0.132292 0.166742,0.130914 0.166742,0.3514 0,0.310058 -0.37207,0.493338 0.237023,0.118511 0.336241,0.249424 0.100597,0.130914 0.100597,0.292145 0,0.249424 -0.183279,0.399631 -0.183279,0.150206 -0.496094,0.150206 -0.327973,0 -0.508496,-0.14056 -0.180523,-0.14056 -0.180523,-0.398253 0,-0.168121 0.09371,-0.301791 0.09508,-0.135047 0.310058,-0.239778 -0.184657,-0.110243 -0.263205,-0.232889 -0.07855,-0.122645 -0.07855,-0.275607 0,-0.219108 0.172255,-0.348644 0.172255,-0.130914 0.44924,-0.130914 z m -0.373448,1.518599 q 0,0.143315 0.100597,0.223242 0.100596,0.07855 0.272851,0.07855 0.177767,0 0.275608,-0.0813 0.09922,-0.08268 0.09922,-0.223243 0,-0.111621 -0.09095,-0.203949 -0.09095,-0.09233 -0.275608,-0.170877 l -0.03996,-0.01791 q -0.181901,0.07993 -0.261827,0.176388 -0.07993,0.09508 -0.07993,0.219109 z m 0.370692,-1.269174 q -0.137804,0 -0.221864,0.0689 -0.08406,0.06752 -0.08406,0.184657 0,0.07166 0.03032,0.128158 0.03032,0.0565 0.08819,0.103353 0.05788,0.04547 0.195681,0.110243 0.165365,-0.07304 0.232889,-0.152962 0.0689,-0.08131 0.0689,-0.188792 0,-0.117133 -0.08544,-0.184657 -0.08406,-0.0689 -0.22462,-0.0689 z"
         style="font-size:2.82222223px;stroke-width:0.26458332"
         id="path3683" />
    </g>
    <g
       aria-label="15"
       style="font-style:normal;font-variant:normal;font-weight:600;font-stretch:normal;font-size:7.05555534px;line-height:1.25;font-family:'Open Sans';-inkscape-font-specification:'Open Sans Semi-Bold';letter-spacing:0px;word-spacing:0px;fill:#000000;fill-opacity:1;stroke:none;stroke-width:0.26458332"
       id="text846-9-3-3">
      <path
         d="M 33.043769,54.992165 H 32.71993 v -1.300868 q 0,-0.232889 0.01102,-0.369315 -0.03169,0.03307 -0.07855,0.07304 -0.04548,0.03996 -0.308681,0.253559 l -0.162608,-0.205327 0.592556,-0.465777 h 0.270096 z"
         style="font-size:2.82222223px;stroke-width:0.26458332"
         id="path3686" />
      <path
         d="m 34.387356,53.734016 q 0.304546,0 0.482313,0.16123 0.177767,0.161231 0.177767,0.439594 0,0.322461 -0.202572,0.504362 -0.201193,0.180523 -0.573263,0.180523 -0.33762,0 -0.530545,-0.108865 v -0.293522 q 0.111621,0.06339 0.256315,0.09784 0.144694,0.03445 0.268717,0.03445 0.219108,0 0.333486,-0.09784 0.114377,-0.09784 0.114377,-0.286632 0,-0.361046 -0.460265,-0.361046 -0.06477,0 -0.159852,0.01378 -0.09509,0.0124 -0.166743,0.02894 l -0.144694,-0.08544 0.07717,-0.983919 h 1.047309 v 0.28801 h -0.762055 l -0.04548,0.49885 q 0.04823,-0.0083 0.117133,-0.01929 0.07028,-0.01102 0.170877,-0.01102 z"
         style="font-size:2.82222223px;stroke-width:0.26458332"
         id="path3688" />
    </g>
    <g
       aria-label="22"
       style="font-style:normal;font-variant:normal;font-weight:600;font-stretch:normal;font-size:7.05555534px;line-height:1.25;font-family:'Open Sans';-inkscape-font-specification:'Open Sans Semi-Bold';letter-spacing:0px;word-spacing:0px;fill:#000000;fill-opacity:1;stroke:none;stroke-width:0.26458332"
       id="text846-9-3-3-8">
      <path
         d="m 33.491631,63.861786 h -1.365635 v -0.245291 l 0.51952,-0.522276 q 0.230132,-0.235645 0.304546,-0.333486 0.07579,-0.09922 0.110244,-0.186035 0.03445,-0.08682 0.03445,-0.186035 0,-0.136426 -0.08268,-0.214974 -0.0813,-0.07855 -0.225998,-0.07855 -0.115755,0 -0.22462,0.04272 -0.107487,0.04272 -0.249425,0.15434 L 32.13702,62.078604 q 0.168121,-0.141937 0.326595,-0.201193 0.158474,-0.05926 0.337619,-0.05926 0.28112,0 0.450619,0.14745 0.169499,0.146072 0.169499,0.394119 0,0.136426 -0.04961,0.259071 -0.04823,0.122646 -0.150206,0.253559 -0.100597,0.129536 -0.336241,0.3514 l -0.350022,0.338998 v 0.01378 h 0.956358 z"
         style="font-size:2.82222223px;fill:#000000;fill-opacity:1;stroke-width:0.26458332"
         id="path3691" />
      <path
         d="m 35.102558,63.861786 h -1.365636 v -0.245291 l 0.519521,-0.522276 q 0.230132,-0.235645 0.304546,-0.333486 0.07579,-0.09922 0.110243,-0.186035 0.03445,-0.08682 0.03445,-0.186035 0,-0.136426 -0.08268,-0.214974 -0.0813,-0.07855 -0.225998,-0.07855 -0.115756,0 -0.224621,0.04272 -0.107487,0.04272 -0.249425,0.15434 l -0.17501,-0.213596 q 0.16812,-0.141937 0.326595,-0.201193 0.158474,-0.05926 0.337619,-0.05926 0.28112,0 0.450618,0.14745 0.169499,0.146072 0.169499,0.394119 0,0.136426 -0.04961,0.259071 -0.04823,0.122646 -0.150206,0.253559 -0.100597,0.129536 -0.336242,0.3514 L 34.1462,63.562752 v 0.01378 h 0.956358 z"
         style="font-size:2.82222223px;fill:#000000;fill-opacity:1;stroke-width:0.26458332"
         id="path3693" />
    </g>
    <g
       aria-label="29"
       style="font-style:normal;font-variant:normal;font-weight:600;font-stretch:normal;font-size:7.05555534px;line-height:1.25;font-family:'Open Sans';-inkscape-font-specification:'Open Sans Semi-Bold';letter-spacing:0px;word-spacing:0px;fill:#ffffff;fill-opacity:1;stroke:none;stroke-width:0.26458332"
       id="text846-9-3-3-6">
      <path
         d="m 33.493009,72.703857 h -1.365636 v -0.24529 l 0.51952,-0.522277 q 0.230133,-0.235644 0.304547,-0.333485 0.07579,-0.09922 0.110243,-0.186035 0.03445,-0.08682 0.03445,-0.186035 0,-0.136426 -0.08268,-0.214974 -0.0813,-0.07855 -0.225998,-0.07855 -0.115755,0 -0.22462,0.04272 -0.107487,0.04272 -0.249425,0.15434 l -0.175011,-0.213596 q 0.168121,-0.141938 0.326595,-0.201194 0.158474,-0.05925 0.337619,-0.05925 0.28112,0 0.450619,0.14745 0.169499,0.146072 0.169499,0.394119 0,0.136426 -0.04961,0.259071 -0.04823,0.122645 -0.150206,0.253559 -0.100597,0.129536 -0.336241,0.3514 l -0.350022,0.338997 v 0.01378 h 0.956359 z"
         style="font-size:2.82222223px;fill:#ffffff;fill-opacity:1;stroke-width:0.26458332"
         id="path3696" />
      <path
         d="m 35.101179,71.549061 q 0,0.595313 -0.239778,0.888835 -0.239779,0.293522 -0.722093,0.293522 -0.183279,0 -0.263205,-0.02205 v -0.271474 q 0.122646,0.03445 0.246669,0.03445 0.327973,0 0.489204,-0.176389 0.16123,-0.176389 0.176388,-0.553971 h -0.01654 q -0.0813,0.124023 -0.197059,0.179145 -0.114378,0.05512 -0.268718,0.05512 -0.267339,0 -0.420302,-0.166742 -0.152962,-0.166743 -0.152962,-0.457509 0,-0.315571 0.176389,-0.501606 0.177767,-0.187413 0.483692,-0.187413 0.214973,0 0.374826,0.104731 0.159852,0.104731 0.246669,0.304546 0.08682,0.198438 0.08682,0.476801 z M 34.39838,70.9317 q -0.168121,0 -0.257693,0.110243 -0.08957,0.108865 -0.08957,0.307303 0,0.172255 0.08268,0.271473 0.08406,0.09784 0.253559,0.09784 0.163987,0 0.275608,-0.09784 0.111621,-0.09784 0.111621,-0.228754 0,-0.122645 -0.04823,-0.228754 -0.04685,-0.107487 -0.132292,-0.169499 -0.08544,-0.06201 -0.195681,-0.06201 z"
         style="font-size:2.82222223px;fill:#ffffff;fill-opacity:1;stroke-width:0.26458332"
         id="path3698" />
    </g>
    <g
       aria-label="05"
       style="font-style:normal;font-variant:normal;font-weight:600;font-stretch:normal;font-size:7.05555534px;line-height:1.25;font-family:'Open Sans';-inkscape-font-specification:'Open Sans Semi-Bold';letter-spacing:0px;word-spacing:0px;fill:#aeaeae;fill-opacity:1;stroke:none;stroke-width:0.26458332"
       id="text846-9-3-3-7">
      <path
         d="m 33.504033,80.568902 q 0,0.525033 -0.169499,0.77997 -0.16812,0.254937 -0.515386,0.254937 -0.336241,0 -0.509874,-0.263205 -0.173633,-0.263206 -0.173633,-0.771702 0,-0.533301 0.168121,-0.785482 0.169498,-0.253559 0.515386,-0.253559 0.337619,0 0.511252,0.264584 0.173633,0.264583 0.173633,0.774457 z m -1.040419,0 q 0,0.412034 0.08406,0.588423 0.08544,0.176388 0.271473,0.176388 0.186035,0 0.271474,-0.179145 0.08682,-0.179144 0.08682,-0.585666 0,-0.405143 -0.08682,-0.585666 -0.08544,-0.181901 -0.271474,-0.181901 -0.186035,0 -0.271473,0.177767 -0.08406,0.177767 -0.08406,0.5898 z"
         style="font-size:2.82222223px;fill:#aeaeae;fill-opacity:1;stroke-width:0.26458332"
         id="path3701" />
      <path
         d="m 34.432831,80.318099 q 0.304546,0 0.482313,0.161231 0.177767,0.16123 0.177767,0.439594 0,0.322461 -0.202572,0.504362 -0.201193,0.180523 -0.573263,0.180523 -0.33762,0 -0.530545,-0.108865 v -0.293522 q 0.111621,0.06339 0.256315,0.09784 0.144694,0.03445 0.268717,0.03445 0.219109,0 0.333486,-0.09784 0.114377,-0.09784 0.114377,-0.286632 0,-0.361046 -0.460265,-0.361046 -0.06477,0 -0.159852,0.01378 -0.09508,0.0124 -0.166743,0.02894 l -0.144694,-0.08544 0.07717,-0.98392 h 1.047309 v 0.28801 h -0.762055 l -0.04547,0.49885 q 0.04823,-0.0083 0.117133,-0.01929 0.07028,-0.01102 0.170877,-0.01102 z"
         style="font-size:2.82222223px;fill:#aeaeae;fill-opacity:1;stroke-width:0.26458332"
         id="path3703" />
    </g>
    <g
       aria-label="T"
       style="font-style:normal;font-variant:normal;font-weight:600;font-stretch:normal;font-size:7.05555534px;line-height:1.25;font-family:'Open Sans';-inkscape-font-specification:'Open Sans Semi-Bold';letter-spacing:0px;word-spacing:0px;fill:#000000;fill-opacity:1;stroke:none;stroke-width:0.26458332"
       id="text846-3-7">
      <path
         d="M 43.026193,25.251129 H 42.77918 V 23.951984 H 42.334763 V 23.74011 h 1.135848 v 0.211874 h -0.444418 z"
         style="font-size:2.11666656px;stroke-width:0.26458332"
         id="path3706" />
    </g>
    <g
       aria-label="02"
       style="font-style:normal;font-variant:normal;font-weight:600;font-stretch:normal;font-size:7.05555534px;line-height:1.25;font-family:'Open Sans';-inkscape-font-specification:'Open Sans Semi-Bold';letter-spacing:0px;word-spacing:0px;fill:#000000;fill-opacity:1;stroke:none;stroke-width:0.26458332"
       id="text846-9-6">
      <path
         d="m 42.781419,36.271753 q 0,0.525032 -0.169499,0.779969 -0.168121,0.254937 -0.515386,0.254937 -0.336242,0 -0.509874,-0.263205 -0.173633,-0.263205 -0.173633,-0.771701 0,-0.533301 0.168121,-0.785482 0.169498,-0.253559 0.515386,-0.253559 0.337619,0 0.511252,0.264583 0.173633,0.264583 0.173633,0.774458 z m -1.040419,0 q 0,0.412033 0.08406,0.588422 0.08544,0.176389 0.271474,0.176389 0.186035,0 0.271473,-0.179145 0.08682,-0.179145 0.08682,-0.585666 0,-0.405144 -0.08682,-0.585667 -0.08544,-0.181901 -0.271473,-0.181901 -0.186035,0 -0.271474,0.177767 -0.08406,0.177767 -0.08406,0.589801 z"
         style="font-size:2.82222223px;stroke-width:0.26458332"
         id="path3709" />
      <path
         d="M 44.392345,37.279099 H 43.02671 v -0.245291 l 0.51952,-0.522277 q 0.230132,-0.235644 0.304546,-0.333485 0.07579,-0.09922 0.110243,-0.186035 0.03445,-0.08682 0.03445,-0.186035 0,-0.136426 -0.08268,-0.214974 -0.0813,-0.07855 -0.225998,-0.07855 -0.115755,0 -0.22462,0.04272 -0.107487,0.04272 -0.249425,0.15434 l -0.175011,-0.213596 q 0.168121,-0.141938 0.326595,-0.201193 0.158474,-0.05926 0.337619,-0.05926 0.28112,0 0.450619,0.14745 0.169498,0.146072 0.169498,0.394119 0,0.136426 -0.04961,0.259071 -0.04823,0.122645 -0.150206,0.253559 -0.100597,0.129536 -0.336241,0.3514 l -0.350022,0.338997 v 0.01378 h 0.956358 z"
         style="font-size:2.82222223px;stroke-width:0.26458332"
         id="path3711" />
    </g>
    <g
       aria-label="09"
       style="font-style:normal;font-variant:normal;font-weight:600;font-stretch:normal;font-size:7.05555534px;line-height:1.25;font-family:'Open Sans';-inkscape-font-specification:'Open Sans Semi-Bold';letter-spacing:0px;word-spacing:0px;fill:#000000;fill-opacity:1;stroke:none;stroke-width:0.26458332"
       id="text846-9-6-9">
      <path
         d="m 42.782796,45.132837 q 0,0.525032 -0.169499,0.779969 -0.16812,0.254937 -0.515386,0.254937 -0.336241,0 -0.509874,-0.263205 -0.173633,-0.263205 -0.173633,-0.771701 0,-0.533301 0.168121,-0.785482 0.169498,-0.253559 0.515386,-0.253559 0.337619,0 0.511252,0.264583 0.173633,0.264583 0.173633,0.774458 z m -1.040419,0 q 0,0.412033 0.08406,0.588422 0.08544,0.176389 0.271474,0.176389 0.186035,0 0.271473,-0.179145 0.08682,-0.179145 0.08682,-0.585666 0,-0.405144 -0.08682,-0.585667 -0.08544,-0.181901 -0.271473,-0.181901 -0.186035,0 -0.271474,0.177767 -0.08406,0.177767 -0.08406,0.589801 z"
         style="font-size:2.82222223px;stroke-width:0.26458332"
         id="path3714" />
      <path
         d="m 44.390966,44.985386 q 0,0.595313 -0.239778,0.888835 -0.239779,0.293522 -0.722092,0.293522 -0.183279,0 -0.263206,-0.02205 v -0.271474 q 0.122646,0.03445 0.246669,0.03445 0.327973,0 0.489204,-0.176389 0.16123,-0.176389 0.176389,-0.553971 h -0.01654 q -0.0813,0.124023 -0.197059,0.179145 -0.114377,0.05512 -0.268718,0.05512 -0.267339,0 -0.420301,-0.166742 -0.152962,-0.166743 -0.152962,-0.457509 0,-0.315571 0.176388,-0.501606 0.177767,-0.187413 0.483692,-0.187413 0.214974,0 0.374826,0.104731 0.159853,0.104731 0.246669,0.304546 0.08682,0.198438 0.08682,0.476801 z m -0.702799,-0.617361 q -0.168121,0 -0.257693,0.110243 -0.08957,0.108865 -0.08957,0.307303 0,0.172255 0.08268,0.271473 0.08406,0.09784 0.253559,0.09784 0.163986,0 0.275607,-0.09784 0.111621,-0.09784 0.111621,-0.228754 0,-0.122645 -0.04823,-0.228754 -0.04685,-0.107487 -0.132292,-0.169499 -0.08544,-0.06201 -0.195681,-0.06201 z"
         style="font-size:2.82222223px;stroke-width:0.26458332"
         id="path3716" />
    </g>
    <g
       aria-label="16"
       style="font-style:normal;font-variant:normal;font-weight:600;font-stretch:normal;font-size:7.05555534px;line-height:1.25;font-family:'Open Sans';-inkscape-font-specification:'Open Sans Semi-Bold';letter-spacing:0px;word-spacing:0px;fill:#000000;fill-opacity:1;stroke:none;stroke-width:0.26458332"
       id="text846-9-6-9-0">
      <path
         d="M 42.317019,54.995747 H 41.99318 v -1.300868 q 0,-0.232889 0.01102,-0.369315 -0.03169,0.03307 -0.07855,0.07304 -0.04547,0.03996 -0.30868,0.253559 l -0.162609,-0.205327 0.592557,-0.465777 h 0.270095 z"
         style="font-size:2.82222223px;stroke-width:0.26458332"
         id="path3719" />
      <path
         d="m 42.982612,54.137229 q 0,-1.182357 0.963248,-1.182357 0.151584,0 0.256315,0.02343 v 0.270095 q -0.104731,-0.03032 -0.242534,-0.03032 -0.323839,0 -0.486448,0.173633 -0.162608,0.173633 -0.176389,0.556728 h 0.01654 q 0.06477,-0.111622 0.181901,-0.172255 0.117133,-0.06201 0.275607,-0.06201 0.27423,0 0.427192,0.168121 0.152963,0.16812 0.152963,0.45613 0,0.316949 -0.177767,0.501606 -0.176389,0.183279 -0.482314,0.183279 -0.216352,0 -0.376204,-0.103352 -0.159853,-0.104731 -0.246669,-0.303169 -0.08544,-0.199815 -0.08544,-0.479557 z m 0.702799,0.618739 q 0.166743,0 0.256315,-0.107487 0.09095,-0.107487 0.09095,-0.307303 0,-0.173632 -0.08544,-0.272851 -0.08406,-0.09922 -0.253559,-0.09922 -0.104731,0 -0.192925,0.04548 -0.08819,0.0441 -0.139182,0.122646 -0.05099,0.07717 -0.05099,0.158474 0,0.194304 0.104731,0.327973 0.106109,0.132292 0.270095,0.132292 z"
         style="font-size:2.82222223px;stroke-width:0.26458332"
         id="path3721" />
    </g>
    <g
       aria-label="23"
       style="font-style:normal;font-variant:normal;font-weight:600;font-stretch:normal;font-size:7.05555534px;line-height:1.25;font-family:'Open Sans';-inkscape-font-specification:'Open Sans Semi-Bold';letter-spacing:0px;word-spacing:0px;fill:#000000;fill-opacity:1;stroke:none;stroke-width:0.26458332"
       id="text846-9-6-9-0-4">
      <path
         d="m 42.788308,63.854073 h -1.365636 v -0.245291 l 0.519521,-0.522277 q 0.230132,-0.235644 0.304546,-0.333485 0.07579,-0.09922 0.110243,-0.186035 0.03445,-0.08682 0.03445,-0.186035 0,-0.136426 -0.08268,-0.214974 -0.0813,-0.07855 -0.225998,-0.07855 -0.115756,0 -0.224621,0.04272 -0.107487,0.04272 -0.249425,0.15434 l -0.17501,-0.213596 q 0.16812,-0.141938 0.326595,-0.201193 0.158474,-0.05926 0.337619,-0.05926 0.28112,0 0.450618,0.14745 0.169499,0.146072 0.169499,0.394119 0,0.136426 -0.04961,0.259071 -0.04823,0.122646 -0.150206,0.253559 -0.100597,0.129536 -0.336242,0.3514 l -0.350021,0.338997 v 0.01378 h 0.956358 z"
         style="font-size:2.82222223px;fill:#000000;fill-opacity:1;stroke-width:0.26458332"
         id="path3724" />
      <path
         d="m 44.323443,62.302402 q 0,0.191547 -0.111621,0.319704 -0.111622,0.12678 -0.314193,0.170877 v 0.01102 q 0.242535,0.03032 0.363802,0.151585 0.121267,0.119889 0.121267,0.319705 0,0.290766 -0.205327,0.44924 -0.205328,0.157096 -0.584289,0.157096 -0.334863,0 -0.564995,-0.108865 v -0.28801 q 0.128157,0.06339 0.271473,0.09784 0.143316,0.03445 0.275608,0.03445 0.234266,0 0.350022,-0.08682 0.115755,-0.08682 0.115755,-0.268718 0,-0.16123 -0.128158,-0.237022 -0.128157,-0.07579 -0.402387,-0.07579 h -0.175011 v -0.263205 h 0.177767 q 0.482314,0 0.482314,-0.333485 0,-0.129536 -0.08406,-0.199816 -0.08406,-0.07028 -0.248047,-0.07028 -0.114377,0 -0.220486,0.03307 -0.106109,0.0317 -0.250803,0.125402 l -0.158474,-0.225998 q 0.276986,-0.20395 0.643544,-0.20395 0.304546,0 0.475423,0.130914 0.170877,0.130913 0.170877,0.361046 z"
         style="font-size:2.82222223px;fill:#000000;fill-opacity:1;stroke-width:0.26458332"
         id="path3726" />
    </g>
    <g
       aria-label="30"
       style="font-style:normal;font-variant:normal;font-weight:600;font-stretch:normal;font-size:7.05555534px;line-height:1.25;font-family:'Open Sans';-inkscape-font-specification:'Open Sans Semi-Bold';letter-spacing:0px;word-spacing:0px;fill:#ffffff;fill-opacity:1;stroke:none;stroke-width:0.26458332"
       id="text846-9-6-9-0-9">
      <path
         d="m 42.707004,71.163493 q 0,0.191547 -0.111621,0.319705 -0.111621,0.12678 -0.314193,0.170877 v 0.01102 q 0.242535,0.03032 0.363802,0.151584 0.121267,0.11989 0.121267,0.319705 0,0.290766 -0.205327,0.449241 -0.205328,0.157096 -0.584288,0.157096 -0.334864,0 -0.564996,-0.108865 v -0.28801 q 0.128157,0.06339 0.271473,0.09784 0.143316,0.03445 0.275608,0.03445 0.234267,0 0.350022,-0.08682 0.115755,-0.08682 0.115755,-0.268717 0,-0.161231 -0.128158,-0.237023 -0.128157,-0.07579 -0.402387,-0.07579 H 41.71895 v -0.263205 h 0.177767 q 0.482314,0 0.482314,-0.333485 0,-0.129536 -0.08406,-0.199816 -0.08406,-0.07028 -0.248047,-0.07028 -0.114377,0 -0.220486,0.03307 -0.106109,0.03169 -0.250803,0.125401 L 41.41716,70.875483 q 0.276986,-0.203949 0.643544,-0.203949 0.304546,0 0.475423,0.130913 0.170877,0.130914 0.170877,0.361046 z"
         style="font-size:2.82222223px;fill:#ffffff;fill-opacity:1;stroke-width:0.26458332"
         id="path3729" />
      <path
         d="m 44.393723,71.707818 q 0,0.525033 -0.169499,0.77997 -0.168121,0.254937 -0.515386,0.254937 -0.336242,0 -0.509875,-0.263205 -0.173632,-0.263206 -0.173632,-0.771702 0,-0.533301 0.16812,-0.785482 0.169499,-0.253559 0.515387,-0.253559 0.337619,0 0.511252,0.264584 0.173633,0.264583 0.173633,0.774457 z m -1.040419,0 q 0,0.412034 0.08406,0.588423 0.08544,0.176388 0.271474,0.176388 0.186035,0 0.271473,-0.179145 0.08682,-0.179144 0.08682,-0.585666 0,-0.405143 -0.08682,-0.585666 -0.08544,-0.181901 -0.271473,-0.181901 -0.186036,0 -0.271474,0.177767 -0.08406,0.177767 -0.08406,0.5898 z"
         style="font-size:2.82222223px;fill:#ffffff;fill-opacity:1;stroke-width:0.26458332"
         id="path3731" />
    </g>
    <g
       aria-label="06"
       style="font-style:normal;font-variant:normal;font-weight:600;font-stretch:normal;font-size:7.05555534px;line-height:1.25;font-family:'Open Sans';-inkscape-font-specification:'Open Sans Semi-Bold';letter-spacing:0px;word-spacing:0px;fill:#aeaeae;fill-opacity:1;stroke:none;stroke-width:0.26458332"
       id="text846-9-6-9-0-6">
      <path
         d="m 42.777284,80.568902 q 0,0.525033 -0.169499,0.77997 -0.168121,0.254937 -0.515386,0.254937 -0.336242,0 -0.509874,-0.263205 -0.173633,-0.263206 -0.173633,-0.771702 0,-0.533301 0.16812,-0.785482 0.169499,-0.253559 0.515387,-0.253559 0.337619,0 0.511252,0.264584 0.173633,0.264583 0.173633,0.774457 z m -1.040419,0 q 0,0.412034 0.08406,0.588423 0.08544,0.176388 0.271474,0.176388 0.186035,0 0.271473,-0.179145 0.08682,-0.179144 0.08682,-0.585666 0,-0.405143 -0.08682,-0.585666 -0.08544,-0.181901 -0.271473,-0.181901 -0.186035,0 -0.271474,0.177767 -0.08406,0.177767 -0.08406,0.5898 z"
         style="font-size:2.82222223px;fill:#aeaeae;fill-opacity:1;stroke-width:0.26458332"
         id="path3734" />
      <path
         d="m 43.028087,80.71773 q 0,-1.182356 0.963248,-1.182356 0.151584,0 0.256315,0.02343 v 0.270096 q -0.104731,-0.03032 -0.242534,-0.03032 -0.323839,0 -0.486448,0.173633 -0.162608,0.173633 -0.176389,0.556727 h 0.01654 q 0.06477,-0.111621 0.181901,-0.172255 0.117133,-0.06201 0.275607,-0.06201 0.27423,0 0.427192,0.16812 0.152963,0.168121 0.152963,0.456131 0,0.316949 -0.177767,0.501606 -0.176389,0.183279 -0.482314,0.183279 -0.216352,0 -0.376204,-0.103353 -0.159853,-0.104731 -0.246669,-0.303168 -0.08544,-0.199816 -0.08544,-0.479558 z m 0.702799,0.61874 q 0.166743,0 0.256315,-0.107487 0.09095,-0.107487 0.09095,-0.307303 0,-0.173633 -0.08544,-0.272852 -0.08406,-0.09922 -0.253559,-0.09922 -0.104731,0 -0.192925,0.04547 -0.08819,0.0441 -0.139182,0.122645 -0.05099,0.07717 -0.05099,0.158475 0,0.194303 0.104731,0.327973 0.106109,0.132292 0.270095,0.132292 z"
         style="font-size:2.82222223px;fill:#aeaeae;fill-opacity:1;stroke-width:0.26458332"
         id="path3736" />
    </g>
    <g
       aria-label="S"
       style="font-style:normal;font-variant:normal;font-weight:600;font-stretch:normal;font-size:7.05555534px;line-height:1.25;font-family:'Open Sans';-inkscape-font-specification:'Open Sans Semi-Bold';letter-spacing:0px;word-spacing:0px;fill:#000000;fill-opacity:1;stroke:none;stroke-width:0.26458332"
       id="text846-3-7-3-6-9">
      <path
         d="m 62.063793,24.862522 q 0,0.201538 -0.145728,0.31626 -0.145727,0.114721 -0.402042,0.114721 -0.256315,0 -0.419613,-0.07958 v -0.233578 q 0.103353,0.04858 0.219108,0.07648 0.116789,0.02791 0.217041,0.02791 0.146761,0 0.216008,-0.05581 0.07028,-0.05581 0.07028,-0.149862 0,-0.08475 -0.06408,-0.14366 -0.06408,-0.05891 -0.264583,-0.139526 -0.206706,-0.08372 -0.291456,-0.191203 -0.08475,-0.107487 -0.08475,-0.258382 0,-0.189136 0.134359,-0.297657 0.134359,-0.10852 0.360701,-0.10852 0.217041,0 0.432015,0.09508 l -0.07855,0.201538 q -0.201538,-0.08475 -0.359668,-0.08475 -0.119889,0 -0.181901,0.05271 -0.06201,0.05168 -0.06201,0.13746 0,0.05891 0.02481,0.101285 0.02481,0.04134 0.08165,0.07855 0.05684,0.03721 0.204638,0.09819 0.166399,0.06925 0.243913,0.129191 0.07752,0.05994 0.113688,0.135392 0.03617,0.07545 0.03617,0.177767 z"
         style="font-size:2.11666656px;stroke-width:0.26458332"
         id="path3739" />
    </g>
    <g
       aria-label="04"
       style="font-style:normal;font-variant:normal;font-weight:600;font-stretch:normal;font-size:7.05555534px;line-height:1.25;font-family:'Open Sans';-inkscape-font-specification:'Open Sans Semi-Bold';letter-spacing:0px;word-spacing:0px;fill:#000000;fill-opacity:1;stroke:none;stroke-width:0.26458332"
       id="text846-9-6-6">
      <path
         d="m 61.423005,36.271753 q 0,0.525032 -0.169499,0.779969 -0.16812,0.254937 -0.515386,0.254937 -0.336241,0 -0.509874,-0.263205 -0.173633,-0.263205 -0.173633,-0.771701 0,-0.533301 0.168121,-0.785482 0.169499,-0.253559 0.515386,-0.253559 0.337619,0 0.511252,0.264583 0.173633,0.264583 0.173633,0.774458 z m -1.040419,0 q 0,0.412033 0.08406,0.588422 0.08544,0.176389 0.271473,0.176389 0.186035,0 0.271474,-0.179145 0.08682,-0.179145 0.08682,-0.585666 0,-0.405144 -0.08682,-0.585667 -0.08544,-0.181901 -0.271474,-0.181901 -0.186035,0 -0.271473,0.177767 -0.08406,0.177767 -0.08406,0.589801 z"
         style="font-size:2.82222223px;stroke-width:0.26458332"
         id="path3742" />
      <path
         d="m 63.10559,36.839504 h -0.271474 v 0.439595 h -0.315571 v -0.439595 h -0.920529 v -0.249425 l 0.920529,-1.331184 h 0.315571 v 1.311892 h 0.271474 z m -0.587045,-0.268717 v -0.50574 q 0,-0.270096 0.01378,-0.44235 h -0.01102 q -0.03859,0.09095 -0.121268,0.220486 l -0.500228,0.727604 z"
         style="font-size:2.82222223px;stroke-width:0.26458332"
         id="path3744" />
    </g>
    <g
       aria-label="11"
       style="font-style:normal;font-variant:normal;font-weight:600;font-stretch:normal;font-size:7.05555534px;line-height:1.25;font-family:'Open Sans';-inkscape-font-specification:'Open Sans Semi-Bold';letter-spacing:0px;word-spacing:0px;fill:#000000;fill-opacity:1;stroke:none;stroke-width:0.26458332"
       id="text846-9-6-6-7">
      <path
         d="m 61.205962,46.120331 h -0.323839 v -1.300868 q 0,-0.232889 0.01102,-0.369314 -0.03169,0.03307 -0.07855,0.07304 -0.04548,0.03996 -0.308681,0.253559 l -0.162608,-0.205328 0.592556,-0.465777 h 0.270096 z"
         style="font-size:2.82222223px;stroke-width:0.26458332"
         id="path3747" />
      <path
         d="M 62.816888,46.120331 H 62.49305 v -1.300868 q 0,-0.232889 0.01102,-0.369314 -0.0317,0.03307 -0.07855,0.07304 -0.04548,0.03996 -0.308681,0.253559 l -0.162608,-0.205328 0.592556,-0.465777 h 0.270095 z"
         style="font-size:2.82222223px;stroke-width:0.26458332"
         id="path3749" />
    </g>
    <g
       aria-label="18"
       style="font-style:normal;font-variant:normal;font-weight:600;font-stretch:normal;font-size:7.05555534px;line-height:1.25;font-family:'Open Sans';-inkscape-font-specification:'Open Sans Semi-Bold';letter-spacing:0px;word-spacing:0px;fill:#000000;fill-opacity:1;stroke:none;stroke-width:0.26458332"
       id="text846-9-6-6-7-1">
      <path
         d="m 60.998568,54.96019 h -0.323839 v -1.300868 q 0,-0.232889 0.01103,-0.369314 -0.0317,0.03307 -0.07855,0.07304 -0.04548,0.03996 -0.30868,0.253559 l -0.162609,-0.205328 0.592557,-0.465777 h 0.270095 z"
         style="font-size:2.82222223px;stroke-width:0.26458332"
         id="path3752" />
      <path
         d="m 62.339399,52.919315 q 0.286632,0 0.453375,0.132292 0.166743,0.130914 0.166743,0.3514 0,0.310058 -0.372071,0.493337 0.237023,0.118512 0.336242,0.249425 0.100596,0.130914 0.100596,0.292144 0,0.249425 -0.183279,0.399631 -0.183279,0.150207 -0.496093,0.150207 -0.327974,0 -0.508497,-0.14056 -0.180523,-0.14056 -0.180523,-0.398253 0,-0.168121 0.09371,-0.301791 0.09508,-0.135047 0.310059,-0.239778 -0.184658,-0.110243 -0.263206,-0.232889 -0.07855,-0.122645 -0.07855,-0.275607 0,-0.219109 0.172255,-0.348644 0.172255,-0.130914 0.44924,-0.130914 z m -0.373448,1.518598 q 0,0.143316 0.100597,0.223243 0.100597,0.07855 0.272851,0.07855 0.177767,0 0.275608,-0.08131 0.09922,-0.08268 0.09922,-0.223242 0,-0.111621 -0.09095,-0.203949 -0.09095,-0.09233 -0.275607,-0.170877 l -0.03996,-0.01791 q -0.181901,0.07993 -0.261827,0.176389 -0.07993,0.09508 -0.07993,0.219108 z m 0.370692,-1.269173 q -0.137804,0 -0.221864,0.0689 -0.08406,0.06752 -0.08406,0.184657 0,0.07166 0.03032,0.128158 0.03032,0.0565 0.08819,0.103353 0.05788,0.04548 0.195682,0.110243 0.165364,-0.07304 0.232888,-0.152963 0.0689,-0.0813 0.0689,-0.188791 0,-0.117133 -0.08544,-0.184657 -0.08406,-0.0689 -0.224621,-0.0689 z"
         style="font-size:2.82222223px;stroke-width:0.26458332"
         id="path3754" />
    </g>
    <g
       aria-label="25"
       style="font-style:normal;font-variant:normal;font-weight:600;font-stretch:normal;font-size:7.05555534px;line-height:1.25;font-family:'Open Sans';-inkscape-font-specification:'Open Sans Semi-Bold';letter-spacing:0px;word-spacing:0px;fill:#ffffff;fill-opacity:1;stroke:none;stroke-width:0.26458332"
       id="text846-9-6-6-7-1-1">
      <path
         d="m 61.46848,63.830368 h -1.365636 v -0.245291 l 0.519521,-0.522276 q 0.230132,-0.235645 0.304546,-0.333485 0.07579,-0.09922 0.110243,-0.186036 0.03445,-0.08682 0.03445,-0.186035 0,-0.136426 -0.08268,-0.214974 -0.0813,-0.07855 -0.225998,-0.07855 -0.115756,0 -0.224621,0.04272 -0.107487,0.04272 -0.249425,0.154341 l -0.17501,-0.213596 q 0.16812,-0.141938 0.326595,-0.201194 0.158474,-0.05926 0.337619,-0.05926 0.28112,0 0.450618,0.14745 0.169499,0.146073 0.169499,0.394119 0,0.136426 -0.04961,0.259072 -0.04823,0.122645 -0.150206,0.253559 -0.100597,0.129535 -0.336242,0.351399 l -0.350021,0.338998 v 0.01378 h 0.956358 z"
         style="font-size:2.82222223px;fill:#ffffff;fill-opacity:1;stroke-width:0.26458332"
         id="path3757" />
      <path
         d="m 62.397278,62.572219 q 0.304546,0 0.482313,0.161231 0.177767,0.16123 0.177767,0.439594 0,0.322461 -0.202572,0.504362 -0.201193,0.180523 -0.573263,0.180523 -0.33762,0 -0.530545,-0.108865 v -0.293522 q 0.111621,0.06339 0.256315,0.09784 0.144694,0.03445 0.268717,0.03445 0.219109,0 0.333486,-0.09784 0.114377,-0.09784 0.114377,-0.286632 0,-0.361046 -0.460265,-0.361046 -0.06477,0 -0.159852,0.01378 -0.09508,0.0124 -0.166743,0.02894 l -0.144694,-0.08544 0.07717,-0.983919 h 1.047309 v 0.28801 h -0.762055 l -0.04548,0.49885 q 0.04823,-0.0083 0.117133,-0.01929 0.07028,-0.01102 0.170877,-0.01102 z"
         style="font-size:2.82222223px;fill:#ffffff;fill-opacity:1;stroke-width:0.26458332"
         id="path3759" />
    </g>
    <g
       aria-label="01"
       style="font-style:normal;font-variant:normal;font-weight:600;font-stretch:normal;font-size:7.05555534px;line-height:1.25;font-family:'Open Sans';-inkscape-font-specification:'Open Sans Semi-Bold';letter-spacing:0px;word-spacing:0px;fill:#aeaeae;fill-opacity:1;stroke:none;stroke-width:0.26458332"
       id="text846-9-6-6-7-1-0">
      <path
         d="m 61.666226,71.695962 q 0,0.525033 -0.169498,0.77997 -0.168121,0.254937 -0.515387,0.254937 -0.336241,0 -0.509874,-0.263205 -0.173633,-0.263206 -0.173633,-0.771702 0,-0.533301 0.168121,-0.785482 0.169499,-0.253559 0.515386,-0.253559 0.33762,0 0.511253,0.264584 0.173632,0.264583 0.173632,0.774457 z m -1.040418,0 q 0,0.412034 0.08406,0.588422 0.08544,0.176389 0.271473,0.176389 0.186036,0 0.271474,-0.179145 0.08682,-0.179145 0.08682,-0.585666 0,-0.405143 -0.08682,-0.585666 -0.08544,-0.181901 -0.271474,-0.181901 -0.186035,0 -0.271473,0.177767 -0.08406,0.177767 -0.08406,0.5898 z"
         style="font-size:2.82222223px;fill:#aeaeae;fill-opacity:1;stroke-width:0.26458332"
         id="path3762" />
      <path
         d="M 62.862364,72.703308 H 62.538525 V 71.40244 q 0,-0.232888 0.01102,-0.369314 -0.03169,0.03307 -0.07855,0.07304 -0.04548,0.03996 -0.308681,0.253559 l -0.162608,-0.205328 0.592556,-0.465777 h 0.270096 z"
         style="font-size:2.82222223px;fill:#aeaeae;fill-opacity:1;stroke-width:0.26458332"
         id="path3764" />
    </g>
    <g
       aria-label="08"
       style="font-style:normal;font-variant:normal;font-weight:600;font-stretch:normal;font-size:7.05555534px;line-height:1.25;font-family:'Open Sans';-inkscape-font-specification:'Open Sans Semi-Bold';letter-spacing:0px;word-spacing:0px;fill:#aeaeae;fill-opacity:1;stroke:none;stroke-width:0.26458332"
       id="text846-9-6-6-7-1-3">
      <path
         d="m 61.458833,80.568902 q 0,0.525033 -0.169499,0.77997 -0.168121,0.254937 -0.515386,0.254937 -0.336242,0 -0.509874,-0.263205 -0.173633,-0.263206 -0.173633,-0.771702 0,-0.533301 0.16812,-0.785482 0.169499,-0.253559 0.515387,-0.253559 0.337619,0 0.511252,0.264584 0.173633,0.264583 0.173633,0.774457 z m -1.040419,0 q 0,0.412034 0.08406,0.588423 0.08544,0.176388 0.271474,0.176388 0.186035,0 0.271473,-0.179145 0.08682,-0.179144 0.08682,-0.585666 0,-0.405143 -0.08682,-0.585666 -0.08544,-0.181901 -0.271473,-0.181901 -0.186035,0 -0.271474,0.177767 -0.08406,0.177767 -0.08406,0.5898 z"
         style="font-size:2.82222223px;fill:#aeaeae;fill-opacity:1;stroke-width:0.26458332"
         id="path3767" />
      <path
         d="m 62.384874,79.535374 q 0.286632,0 0.453375,0.132291 0.166743,0.130914 0.166743,0.3514 0,0.310059 -0.372071,0.493338 0.237023,0.118511 0.336242,0.249425 0.100596,0.130913 0.100596,0.292144 0,0.249425 -0.183279,0.399631 -0.183279,0.150206 -0.496093,0.150206 -0.327974,0 -0.508497,-0.14056 -0.180523,-0.14056 -0.180523,-0.398253 0,-0.168121 0.09371,-0.30179 0.09508,-0.135048 0.310059,-0.239779 -0.184658,-0.110243 -0.263206,-0.232888 -0.07855,-0.122646 -0.07855,-0.275608 0,-0.219108 0.172255,-0.348644 0.172255,-0.130913 0.44924,-0.130913 z m -0.373448,1.518598 q 0,0.143316 0.100597,0.223242 0.100597,0.07855 0.272851,0.07855 0.177767,0 0.275608,-0.0813 0.09922,-0.08268 0.09922,-0.223242 0,-0.111621 -0.09095,-0.20395 -0.09095,-0.09233 -0.275607,-0.170877 l -0.03996,-0.01791 q -0.181901,0.07993 -0.261827,0.176389 -0.07993,0.09508 -0.07993,0.219108 z m 0.370692,-1.269173 q -0.137804,0 -0.221864,0.0689 -0.08406,0.06752 -0.08406,0.184658 0,0.07166 0.03032,0.128157 0.03032,0.0565 0.08819,0.103353 0.05788,0.04547 0.195682,0.110243 0.165364,-0.07304 0.232888,-0.152962 0.0689,-0.0813 0.0689,-0.188791 0,-0.117134 -0.08544,-0.184658 -0.08406,-0.0689 -0.224621,-0.0689 z"
         style="font-size:2.82222223px;fill:#aeaeae;fill-opacity:1;stroke-width:0.26458332"
         id="path3769" />
    </g>
    <g
       aria-label="F"
       style="font-style:normal;font-variant:normal;font-weight:600;font-stretch:normal;font-size:7.05555534px;line-height:1.25;font-family:'Open Sans';-inkscape-font-specification:'Open Sans Semi-Bold';letter-spacing:0px;word-spacing:0px;fill:#000000;fill-opacity:1;stroke:none;stroke-width:0.26458332"
       id="text846-3-7-3-6">
      <path
         d="M 52.044164,25.251129 H 51.799218 V 23.74011 h 0.852661 v 0.208773 h -0.607715 v 0.472323 h 0.569474 v 0.209806 h -0.569474 z"
         style="font-size:2.11666656px;stroke-width:0.26458332"
         id="path3772" />
    </g>
    <g
       aria-label="03"
       style="font-style:normal;font-variant:normal;font-weight:600;font-stretch:normal;font-size:7.05555534px;line-height:1.25;font-family:'Open Sans';-inkscape-font-specification:'Open Sans Semi-Bold';letter-spacing:0px;word-spacing:0px;fill:#000000;fill-opacity:1;stroke:none;stroke-width:0.26458332"
       id="text846-9-6-6-6">
      <path
         d="m 52.11255,36.271768 q 0,0.525032 -0.169499,0.779969 -0.168121,0.254938 -0.515386,0.254938 -0.336242,0 -0.509874,-0.263206 -0.173633,-0.263205 -0.173633,-0.771701 0,-0.533301 0.16812,-0.785482 0.169499,-0.253559 0.515387,-0.253559 0.337619,0 0.511252,0.264583 0.173633,0.264584 0.173633,0.774458 z m -1.040419,0 q 0,0.412033 0.08406,0.588422 0.08544,0.176389 0.271474,0.176389 0.186035,0 0.271473,-0.179145 0.08682,-0.179145 0.08682,-0.585666 0,-0.405143 -0.08682,-0.585666 -0.08544,-0.181901 -0.271473,-0.181901 -0.186035,0 -0.271474,0.177766 -0.08406,0.177767 -0.08406,0.589801 z"
         style="font-size:2.82222223px;stroke-width:0.26458332"
         id="path3775" />
      <path
         d="m 53.647684,35.727443 q 0,0.191547 -0.111621,0.319705 -0.111621,0.126779 -0.314193,0.170876 v 0.01103 q 0.242535,0.03032 0.363803,0.151584 0.121267,0.119889 0.121267,0.319705 0,0.290766 -0.205328,0.44924 -0.205327,0.157097 -0.584288,0.157097 -0.334863,0 -0.564996,-0.108865 V 36.9098 q 0.128158,0.06339 0.271474,0.09784 0.143316,0.03445 0.275608,0.03445 0.234266,0 0.350021,-0.08682 0.115755,-0.08682 0.115755,-0.268718 0,-0.16123 -0.128157,-0.237022 -0.128158,-0.07579 -0.402387,-0.07579 h -0.175011 v -0.263206 h 0.177767 q 0.482313,0 0.482313,-0.333485 0,-0.129535 -0.08406,-0.199815 -0.08406,-0.07028 -0.248047,-0.07028 -0.114377,0 -0.220486,0.03307 -0.106109,0.03169 -0.250803,0.125401 l -0.158474,-0.225998 q 0.276985,-0.20395 0.643543,-0.20395 0.304547,0 0.475424,0.130914 0.170876,0.130913 0.170876,0.361046 z"
         style="font-size:2.82222223px;stroke-width:0.26458332"
         id="path3777" />
    </g>
    <g
       aria-label="10"
       style="font-style:normal;font-variant:normal;font-weight:600;font-stretch:normal;font-size:7.05555534px;line-height:1.25;font-family:'Open Sans';-inkscape-font-specification:'Open Sans Semi-Bold';letter-spacing:0px;word-spacing:0px;fill:#000000;fill-opacity:1;stroke:none;stroke-width:0.26458332"
       id="text846-9-6-6-6-4">
      <path
         d="m 51.644015,46.157013 h -0.323839 v -1.300868 q 0,-0.232889 0.01102,-0.369314 -0.03169,0.03307 -0.07855,0.07304 -0.04547,0.03996 -0.30868,0.253559 l -0.162609,-0.205328 0.592557,-0.465777 h 0.270095 z"
         style="font-size:2.82222223px;stroke-width:0.26458332"
         id="path3780" />
      <path
         d="m 53.669731,45.149667 q 0,0.525033 -0.169499,0.77997 -0.16812,0.254937 -0.515386,0.254937 -0.336241,0 -0.509874,-0.263206 -0.173633,-0.263205 -0.173633,-0.771701 0,-0.533301 0.168121,-0.785482 0.169499,-0.253559 0.515386,-0.253559 0.337619,0 0.511252,0.264584 0.173633,0.264583 0.173633,0.774457 z m -1.040419,0 q 0,0.412033 0.08406,0.588422 0.08544,0.176389 0.271473,0.176389 0.186035,0 0.271474,-0.179145 0.08682,-0.179145 0.08682,-0.585666 0,-0.405143 -0.08682,-0.585666 -0.08544,-0.181901 -0.271474,-0.181901 -0.186035,0 -0.271473,0.177767 -0.08406,0.177767 -0.08406,0.5898 z"
         style="font-size:2.82222223px;stroke-width:0.26458332"
         id="path3782" />
    </g>
    <g
       aria-label="17"
       style="font-style:normal;font-variant:normal;font-weight:600;font-stretch:normal;font-size:7.05555534px;line-height:1.25;font-family:'Open Sans';-inkscape-font-specification:'Open Sans Semi-Bold';letter-spacing:0px;word-spacing:0px;fill:#000000;fill-opacity:1;stroke:none;stroke-width:0.26458332"
       id="text846-9-6-6-6-4-5">
      <path
         d="m 51.641261,55.003204 h -0.323839 v -1.300868 q 0,-0.232888 0.01102,-0.369314 -0.03169,0.03307 -0.07855,0.07304 -0.04548,0.03996 -0.308681,0.253559 l -0.162608,-0.205328 0.592556,-0.465777 h 0.270096 z"
         style="font-size:2.82222223px;stroke-width:0.26458332"
         id="path3785" />
      <path
         d="m 52.530095,55.003204 0.796506,-1.726682 h -1.047309 v -0.285253 h 1.393197 v 0.225998 l -0.792372,1.785937 z"
         style="font-size:2.82222223px;stroke-width:0.26458332"
         id="path3787" />
    </g>
    <g
       aria-label="24"
       style="font-style:normal;font-variant:normal;font-weight:600;font-stretch:normal;font-size:7.05555534px;line-height:1.25;font-family:'Open Sans';-inkscape-font-specification:'Open Sans Semi-Bold';letter-spacing:0px;word-spacing:0px;fill:#ffffff;fill-opacity:1;stroke:none;stroke-width:0.26458332"
       id="text846-9-6-6-6-4-5-9">
      <path
         d="m 52.067075,63.850777 h -1.365636 v -0.245291 l 0.51952,-0.522277 q 0.230133,-0.235644 0.304547,-0.333485 0.07579,-0.09922 0.110243,-0.186035 0.03445,-0.08682 0.03445,-0.186035 0,-0.136426 -0.08268,-0.214974 -0.0813,-0.07855 -0.225998,-0.07855 -0.115755,0 -0.22462,0.04272 -0.107487,0.04272 -0.249425,0.15434 l -0.175011,-0.213596 q 0.168121,-0.141938 0.326595,-0.201193 0.158475,-0.05926 0.33762,-0.05926 0.281119,0 0.450618,0.14745 0.169499,0.146072 0.169499,0.394119 0,0.136426 -0.04961,0.259071 -0.04823,0.122646 -0.150206,0.253559 -0.100597,0.129536 -0.336241,0.3514 l -0.350022,0.338997 v 0.01378 h 0.956359 z"
         style="font-size:2.82222223px;fill:#ffffff;fill-opacity:1;stroke-width:0.26458332"
         id="path3790" />
      <path
         d="m 53.749659,63.411182 h -0.271473 v 0.439595 h -0.315571 v -0.439595 h -0.920529 v -0.249424 l 0.920529,-1.331185 h 0.315571 v 1.311892 h 0.271473 z m -0.587044,-0.268717 v -0.50574 q 0,-0.270095 0.01378,-0.44235 h -0.01102 q -0.03858,0.09095 -0.121267,0.220486 l -0.500228,0.727604 z"
         style="font-size:2.82222223px;fill:#ffffff;fill-opacity:1;stroke-width:0.26458332"
         id="path3792" />
    </g>
    <g
       aria-label="31"
       style="font-style:normal;font-variant:normal;font-weight:600;font-stretch:normal;font-size:7.05555534px;line-height:1.25;font-family:'Open Sans';-inkscape-font-specification:'Open Sans Semi-Bold';letter-spacing:0px;word-spacing:0px;fill:#ffffff;fill-opacity:1;stroke:none;stroke-width:0.26458332"
       id="text846-9-6-6-6-4-5-7">
      <path
         d="m 52.237262,71.146678 q 0,0.191547 -0.111621,0.319705 -0.111621,0.126779 -0.314193,0.170877 v 0.01102 q 0.242535,0.03032 0.363802,0.151584 0.121268,0.119889 0.121268,0.319705 0,0.290766 -0.205328,0.44924 -0.205328,0.157097 -0.584288,0.157097 -0.334864,0 -0.564996,-0.108865 v -0.28801 q 0.128158,0.06339 0.271474,0.09784 0.143316,0.03445 0.275607,0.03445 0.234267,0 0.350022,-0.08682 0.115755,-0.08682 0.115755,-0.268717 0,-0.161231 -0.128157,-0.237023 -0.128158,-0.07579 -0.402388,-0.07579 h -0.17501 v -0.263205 h 0.177767 q 0.482313,0 0.482313,-0.333486 0,-0.129535 -0.08406,-0.199815 -0.08406,-0.07028 -0.248047,-0.07028 -0.114377,0 -0.220486,0.03307 -0.106109,0.03169 -0.250803,0.125401 l -0.158475,-0.225998 q 0.276986,-0.20395 0.643544,-0.20395 0.304546,0 0.475423,0.130914 0.170877,0.130914 0.170877,0.361046 z"
         style="font-size:2.82222223px;fill:#ffffff;fill-opacity:1;stroke-width:0.26458332"
         id="path3795" />
      <path
         d="m 53.509191,72.698349 h -0.323839 v -1.300868 q 0,-0.232889 0.01102,-0.369314 -0.03169,0.03307 -0.07855,0.07304 -0.04548,0.03996 -0.30868,0.253559 l -0.162609,-0.205328 0.592557,-0.465777 h 0.270095 z"
         style="font-size:2.82222223px;fill:#ffffff;fill-opacity:1;stroke-width:0.26458332"
         id="path3797" />
    </g>
    <g
       aria-label="07"
       style="font-style:normal;font-variant:normal;font-weight:600;font-stretch:normal;font-size:7.05555534px;line-height:1.25;font-family:'Open Sans';-inkscape-font-specification:'Open Sans Semi-Bold';letter-spacing:0px;word-spacing:0px;fill:#aeaeae;fill-opacity:1;stroke:none;stroke-width:0.26458332"
       id="text846-9-6-6-6-4-5-5">
      <path
         d="m 52.101525,80.568902 q 0,0.525033 -0.169498,0.77997 -0.168121,0.254937 -0.515387,0.254937 -0.336241,0 -0.509874,-0.263205 -0.173633,-0.263206 -0.173633,-0.771702 0,-0.533301 0.168121,-0.785482 0.169499,-0.253559 0.515386,-0.253559 0.33762,0 0.511252,0.264584 0.173633,0.264583 0.173633,0.774457 z m -1.040419,0 q 0,0.412034 0.08406,0.588423 0.08544,0.176388 0.271473,0.176388 0.186035,0 0.271474,-0.179145 0.08682,-0.179144 0.08682,-0.585666 0,-0.405143 -0.08682,-0.585666 -0.08544,-0.181901 -0.271474,-0.181901 -0.186035,0 -0.271473,0.177767 -0.08406,0.177767 -0.08406,0.5898 z"
         style="font-size:2.82222223px;fill:#aeaeae;fill-opacity:1;stroke-width:0.26458332"
         id="path3800" />
      <path
         d="m 52.57557,81.576248 0.796506,-1.726682 h -1.047309 v -0.285254 h 1.393197 v 0.225999 l -0.792372,1.785937 z"
         style="font-size:2.82222223px;fill:#aeaeae;fill-opacity:1;stroke-width:0.26458332"
         id="path3802" />
    </g>
    <g
       aria-label="S"
       style="font-style:normal;font-variant:normal;font-weight:600;font-stretch:normal;font-size:7.05555534px;line-height:1.25;font-family:'Open Sans';-inkscape-font-specification:'Open Sans Semi-Bold';letter-spacing:0px;word-spacing:0px;fill:#000000;fill-opacity:1;stroke:none;stroke-width:0.26458332"
       id="text846-3-7-3-6-9-2">
      <path
         d="m 71.386661,24.862522 q 0,0.201538 -0.145727,0.31626 -0.145728,0.114721 -0.402043,0.114721 -0.256315,0 -0.419613,-0.07958 v -0.233578 q 0.103353,0.04858 0.219109,0.07648 0.116788,0.02791 0.217041,0.02791 0.146761,0 0.216007,-0.05581 0.07028,-0.05581 0.07028,-0.149862 0,-0.08475 -0.06408,-0.14366 -0.06408,-0.05891 -0.264583,-0.139526 -0.206706,-0.08372 -0.291455,-0.191203 -0.08475,-0.107487 -0.08475,-0.258382 0,-0.189136 0.134359,-0.297657 0.134359,-0.10852 0.360702,-0.10852 0.217041,0 0.432015,0.09508 l -0.07855,0.201538 q -0.201538,-0.08475 -0.359668,-0.08475 -0.119889,0 -0.181901,0.05271 -0.06201,0.05168 -0.06201,0.13746 0,0.05891 0.0248,0.101285 0.02481,0.04134 0.08165,0.07855 0.05684,0.03721 0.204639,0.09819 0.166398,0.06925 0.243913,0.129191 0.07751,0.05994 0.113688,0.135392 0.03617,0.07545 0.03617,0.177767 z"
         style="font-size:2.11666656px;stroke-width:0.26458332"
         id="path3805" />
    </g>
    <g
       aria-label="05"
       style="font-style:normal;font-variant:normal;font-weight:600;font-stretch:normal;font-size:7.05555534px;line-height:1.25;font-family:'Open Sans';-inkscape-font-specification:'Open Sans Semi-Bold';letter-spacing:0px;word-spacing:0px;fill:#000000;fill-opacity:1;stroke:none;stroke-width:0.26458332"
       id="text846-9-6-6-8">
      <path
         d="m 70.792722,36.271718 q 0,0.525033 -0.169499,0.77997 -0.168121,0.254937 -0.515386,0.254937 -0.336242,0 -0.509874,-0.263205 -0.173633,-0.263206 -0.173633,-0.771702 0,-0.533301 0.16812,-0.785482 0.169499,-0.253559 0.515387,-0.253559 0.337619,0 0.511252,0.264584 0.173633,0.264583 0.173633,0.774457 z m -1.040419,0 q 0,0.412034 0.08406,0.588423 0.08544,0.176388 0.271474,0.176388 0.186035,0 0.271473,-0.179145 0.08682,-0.179144 0.08682,-0.585666 0,-0.405143 -0.08682,-0.585666 -0.08544,-0.181901 -0.271473,-0.181901 -0.186035,0 -0.271474,0.177767 -0.08406,0.177767 -0.08406,0.5898 z"
         style="font-size:2.82222223px;stroke-width:0.26458332"
         id="path3808" />
      <path
         d="m 71.721519,36.020915 q 0.304547,0 0.482314,0.161231 0.177767,0.16123 0.177767,0.439594 0,0.322461 -0.202572,0.504362 -0.201193,0.180523 -0.573264,0.180523 -0.337619,0 -0.530544,-0.108865 v -0.293522 q 0.111621,0.06339 0.256315,0.09784 0.144694,0.03445 0.268717,0.03445 0.219108,0 0.333485,-0.09784 0.114378,-0.09784 0.114378,-0.286632 0,-0.361046 -0.460265,-0.361046 -0.06477,0 -0.159853,0.01378 -0.09508,0.0124 -0.166742,0.02894 l -0.144694,-0.08544 0.07717,-0.98392 h 1.047309 v 0.28801 h -0.762055 l -0.04548,0.49885 q 0.04823,-0.0083 0.117134,-0.01929 0.07028,-0.01102 0.170876,-0.01102 z"
         style="font-size:2.82222223px;stroke-width:0.26458332"
         id="path3810" />
    </g>
    <g
       aria-label="12"
       style="font-style:normal;font-variant:normal;font-weight:600;font-stretch:normal;font-size:7.05555534px;line-height:1.25;font-family:'Open Sans';-inkscape-font-specification:'Open Sans Semi-Bold';letter-spacing:0px;word-spacing:0px;fill:#000000;fill-opacity:1;stroke:none;stroke-width:0.26458332"
       id="text846-9-6-6-8-0">
      <path
         d="m 70.321437,46.143456 h -0.323839 v -1.300869 q 0,-0.232888 0.01102,-0.369314 -0.03169,0.03307 -0.07855,0.07304 -0.04548,0.03996 -0.308681,0.253559 l -0.162608,-0.205327 0.592556,-0.465777 h 0.270096 z"
         style="font-size:2.82222223px;stroke-width:0.26458332"
         id="path3813" />
      <path
         d="m 72.347153,46.143456 h -1.365636 v -0.245291 l 0.51952,-0.522277 q 0.230133,-0.235644 0.304547,-0.333485 0.07579,-0.09922 0.110243,-0.186035 0.03445,-0.08682 0.03445,-0.186035 0,-0.136426 -0.08268,-0.214974 -0.0813,-0.07855 -0.225998,-0.07855 -0.115755,0 -0.22462,0.04272 -0.107487,0.04272 -0.249425,0.15434 l -0.175011,-0.213596 q 0.168121,-0.141938 0.326595,-0.201194 0.158475,-0.05926 0.33762,-0.05926 0.281119,0 0.450618,0.14745 0.169499,0.146072 0.169499,0.394119 0,0.136426 -0.04961,0.259071 -0.04823,0.122645 -0.150206,0.253559 -0.100597,0.129536 -0.336241,0.3514 l -0.350022,0.338997 v 0.01378 h 0.956359 z"
         style="font-size:2.82222223px;stroke-width:0.26458332"
         id="path3815" />
    </g>
    <g
       aria-label="19"
       style="font-style:normal;font-variant:normal;font-weight:600;font-stretch:normal;font-size:7.05555534px;line-height:1.25;font-family:'Open Sans';-inkscape-font-specification:'Open Sans Semi-Bold';letter-spacing:0px;word-spacing:0px;fill:#000000;fill-opacity:1;stroke:none;stroke-width:0.26458332"
       id="text846-9-6-6-8-0-7">
      <path
         d="m 70.32281,54.977531 h -0.323839 v -1.300868 q 0,-0.232888 0.01102,-0.369314 -0.03169,0.03307 -0.07855,0.07304 -0.04548,0.03996 -0.308681,0.253559 l -0.162608,-0.205328 0.592556,-0.465776 h 0.270096 z"
         style="font-size:2.82222223px;stroke-width:0.26458332"
         id="path3818" />
      <path
         d="m 72.34577,53.822735 q 0,0.595313 -0.239779,0.888835 -0.239778,0.293522 -0.722092,0.293522 -0.183279,0 -0.263205,-0.02205 V 54.71157 q 0.122645,0.03445 0.246669,0.03445 0.327973,0 0.489203,-0.176389 0.161231,-0.176389 0.176389,-0.553971 h -0.01654 q -0.0813,0.124023 -0.19706,0.179145 -0.114377,0.05512 -0.268717,0.05512 -0.26734,0 -0.420302,-0.166742 -0.152962,-0.166743 -0.152962,-0.457509 0,-0.315571 0.176389,-0.501606 0.177767,-0.187413 0.483691,-0.187413 0.214974,0 0.374827,0.104731 0.159852,0.104731 0.246669,0.304546 0.08682,0.198438 0.08682,0.476801 z m -0.7028,-0.617361 q -0.16812,0 -0.257693,0.110243 -0.08957,0.108865 -0.08957,0.307303 0,0.172255 0.08268,0.271473 0.08406,0.09784 0.253559,0.09784 0.163987,0 0.275608,-0.09784 0.111621,-0.09784 0.111621,-0.228754 0,-0.122645 -0.04823,-0.228754 -0.04685,-0.107487 -0.132292,-0.169499 -0.08544,-0.06201 -0.195682,-0.06201 z"
         style="font-size:2.82222223px;stroke-width:0.26458332"
         id="path3820" />
    </g>
    <g
       aria-label="26"
       style="font-style:normal;font-variant:normal;font-weight:600;font-stretch:normal;font-size:7.05555534px;line-height:1.25;font-family:'Open Sans';-inkscape-font-specification:'Open Sans Semi-Bold';letter-spacing:0px;word-spacing:0px;fill:#ffffff;fill-opacity:1;stroke:none;stroke-width:0.26458332"
       id="text846-9-6-6-8-0-7-0">
      <path
         d="m 70.776189,63.841927 h -1.365636 v -0.245291 l 0.51952,-0.522277 q 0.230133,-0.235644 0.304547,-0.333485 0.07579,-0.09922 0.110243,-0.186035 0.03445,-0.08682 0.03445,-0.186035 0,-0.136426 -0.08268,-0.214974 -0.08131,-0.07855 -0.225999,-0.07855 -0.115755,0 -0.22462,0.04272 -0.107487,0.04272 -0.249425,0.15434 l -0.175011,-0.213596 q 0.168121,-0.141938 0.326595,-0.201193 0.158475,-0.05926 0.33762,-0.05926 0.281119,0 0.450618,0.14745 0.169499,0.146072 0.169499,0.394119 0,0.136426 -0.04961,0.259071 -0.04823,0.122646 -0.150207,0.253559 -0.100596,0.129536 -0.336241,0.3514 l -0.350022,0.338997 v 0.01378 h 0.956359 z"
         style="font-size:2.82222223px;fill:#ffffff;fill-opacity:1;stroke-width:0.26458332"
         id="path3823" />
      <path
         d="m 71.026992,62.983409 q 0,-1.182357 0.963248,-1.182357 0.151585,0 0.256316,0.02343 v 0.270095 q -0.104731,-0.03032 -0.242535,-0.03032 -0.323839,0 -0.486448,0.173633 -0.162608,0.173633 -0.176389,0.556728 h 0.01654 q 0.06477,-0.111622 0.181901,-0.172255 0.117133,-0.06201 0.275608,-0.06201 0.274229,0 0.427191,0.168121 0.152963,0.16812 0.152963,0.45613 0,0.316949 -0.177767,0.501606 -0.176389,0.183279 -0.482314,0.183279 -0.216352,0 -0.376204,-0.103353 -0.159852,-0.10473 -0.246669,-0.303168 -0.08544,-0.199815 -0.08544,-0.479557 z m 0.702799,0.618739 q 0.166743,0 0.256315,-0.107487 0.09095,-0.107487 0.09095,-0.307303 0,-0.173632 -0.08544,-0.272851 -0.08406,-0.09922 -0.253559,-0.09922 -0.10473,0 -0.192925,0.04547 -0.08819,0.0441 -0.139182,0.122646 -0.05099,0.07717 -0.05099,0.158474 0,0.194304 0.104731,0.327973 0.106109,0.132292 0.270095,0.132292 z"
         style="font-size:2.82222223px;fill:#ffffff;fill-opacity:1;stroke-width:0.26458332"
         id="path3825" />
    </g>
    <g
       aria-label="02"
       style="font-style:normal;font-variant:normal;font-weight:600;font-stretch:normal;font-size:7.05555534px;line-height:1.25;font-family:'Open Sans';-inkscape-font-specification:'Open Sans Semi-Bold';letter-spacing:0px;word-spacing:0px;fill:#aeaeae;fill-opacity:1;stroke:none;stroke-width:0.26458332"
       id="text846-9-6-6-8-0-7-7">
      <path
         d="m 70.781697,71.701745 q 0,0.525033 -0.169498,0.77997 -0.168121,0.254937 -0.515387,0.254937 -0.336241,0 -0.509874,-0.263205 -0.173633,-0.263206 -0.173633,-0.771702 0,-0.533301 0.168121,-0.785482 0.169499,-0.253559 0.515386,-0.253559 0.33762,0 0.511252,0.264584 0.173633,0.264583 0.173633,0.774457 z m -1.040419,0 q 0,0.412034 0.08406,0.588423 0.08544,0.176388 0.271473,0.176388 0.186035,0 0.271474,-0.179145 0.08682,-0.179144 0.08682,-0.585666 0,-0.405143 -0.08682,-0.585666 -0.08544,-0.181901 -0.271474,-0.181901 -0.186035,0 -0.271473,0.177767 -0.08406,0.177767 -0.08406,0.5898 z"
         style="font-size:2.82222223px;fill:#aeaeae;fill-opacity:1;stroke-width:0.26458332"
         id="path3828" />
      <path
         d="M 72.392624,72.709091 H 71.026988 V 72.4638 l 0.51952,-0.522276 q 0.230133,-0.235645 0.304547,-0.333485 0.07579,-0.09922 0.110243,-0.186035 0.03445,-0.08682 0.03445,-0.186036 0,-0.136425 -0.08268,-0.214974 -0.08131,-0.07855 -0.225999,-0.07855 -0.115755,0 -0.22462,0.04272 -0.107487,0.04272 -0.249425,0.154341 L 71.038012,70.92591 q 0.168121,-0.141938 0.326595,-0.201194 0.158475,-0.05926 0.33762,-0.05926 0.28112,0 0.450618,0.14745 0.169499,0.146072 0.169499,0.394119 0,0.136425 -0.04961,0.259071 -0.04823,0.122645 -0.150207,0.253559 -0.100596,0.129535 -0.336241,0.3514 l -0.350022,0.338997 v 0.01378 h 0.956359 z"
         style="font-size:2.82222223px;fill:#aeaeae;fill-opacity:1;stroke-width:0.26458332"
         id="path3830" />
    </g>
    <g
       aria-label="09"
       style="font-style:normal;font-variant:normal;font-weight:600;font-stretch:normal;font-size:7.05555534px;line-height:1.25;font-family:'Open Sans';-inkscape-font-specification:'Open Sans Semi-Bold';letter-spacing:0px;word-spacing:0px;fill:#aeaeae;fill-opacity:1;stroke:none;stroke-width:0.26458332"
       id="text846-9-6-6-8-0-7-3">
      <path
         d="m 70.783078,80.568902 q 0,0.525033 -0.169499,0.77997 -0.16812,0.254937 -0.515386,0.254937 -0.336241,0 -0.509874,-0.263205 -0.173633,-0.263206 -0.173633,-0.771702 0,-0.533301 0.168121,-0.785482 0.169499,-0.253559 0.515386,-0.253559 0.33762,0 0.511252,0.264584 0.173633,0.264583 0.173633,0.774457 z m -1.040419,0 q 0,0.412034 0.08406,0.588423 0.08544,0.176388 0.271473,0.176388 0.186035,0 0.271474,-0.179145 0.08682,-0.179144 0.08682,-0.585666 0,-0.405143 -0.08682,-0.585666 -0.08544,-0.181901 -0.271474,-0.181901 -0.186035,0 -0.271473,0.177767 -0.08406,0.177767 -0.08406,0.5898 z"
         style="font-size:2.82222223px;fill:#aeaeae;fill-opacity:1;stroke-width:0.26458332"
         id="path3833" />
      <path
         d="m 72.391249,80.421452 q 0,0.595313 -0.239779,0.888835 -0.239779,0.293522 -0.722092,0.293522 -0.183279,0 -0.263205,-0.02205 v -0.271473 q 0.122645,0.03445 0.246669,0.03445 0.327973,0 0.489203,-0.176389 0.161231,-0.176389 0.176389,-0.553971 h -0.01654 q -0.08131,0.124023 -0.19706,0.179144 -0.114377,0.05512 -0.268717,0.05512 -0.26734,0 -0.420302,-0.166743 -0.152962,-0.166742 -0.152962,-0.457508 0,-0.315571 0.176389,-0.501606 0.177767,-0.187413 0.483691,-0.187413 0.214974,0 0.374826,0.10473 0.159853,0.104731 0.246669,0.304547 0.08682,0.198437 0.08682,0.476801 z m -0.7028,-0.617361 q -0.16812,0 -0.257693,0.110243 -0.08957,0.108865 -0.08957,0.307303 0,0.172254 0.08268,0.271473 0.08406,0.09784 0.253559,0.09784 0.163986,0 0.275608,-0.09784 0.111621,-0.09784 0.111621,-0.228754 0,-0.122646 -0.04823,-0.228755 -0.04685,-0.107487 -0.132291,-0.169498 -0.08544,-0.06201 -0.195682,-0.06201 z"
         style="font-size:2.82222223px;fill:#aeaeae;fill-opacity:1;stroke-width:0.26458332"
         id="path3835" />
    </g>
    <g
       aria-label="T"
       style="font-style:normal;font-variant:normal;font-weight:600;font-stretch:normal;font-size:7.05555534px;line-height:1.25;font-family:'Open Sans';-inkscape-font-specification:'Open Sans Semi-Bold';letter-spacing:0px;word-spacing:0px;fill:#000000;fill-opacity:1;stroke:none;stroke-width:0.26458332"
       id="text846-3">
      <path
         d="M 24.417677,25.251129 H 24.170663 V 23.951984 H 23.726246 V 23.74011 h 1.135848 v 0.211874 h -0.444417 z"
         style="font-size:2.11666656px;stroke-width:0.26458332"
         id="path3838" />
    </g>
    <g
       aria-label="30"
       style="font-style:normal;font-variant:normal;font-weight:600;font-stretch:normal;font-size:7.05555534px;line-height:1.25;font-family:'Open Sans';-inkscape-font-specification:'Open Sans Semi-Bold';letter-spacing:0px;word-spacing:0px;fill:#aeaeae;fill-opacity:1;stroke:none;stroke-width:0.26458332"
       id="text846-9-6-6-8-9">
      <path
         d="m 24.098489,35.727408 q 0,0.191548 -0.111621,0.319705 -0.111621,0.12678 -0.314193,0.170877 v 0.01102 q 0.242535,0.03032 0.363802,0.151585 0.121268,0.119889 0.121268,0.319704 0,0.290766 -0.205328,0.449241 -0.205328,0.157096 -0.584288,0.157096 -0.334864,0 -0.564996,-0.108865 v -0.28801 q 0.128158,0.06339 0.271474,0.09784 0.143316,0.03445 0.275607,0.03445 0.234267,0 0.350022,-0.08682 0.115755,-0.08682 0.115755,-0.268717 0,-0.16123 -0.128157,-0.237023 -0.128158,-0.07579 -0.402388,-0.07579 h -0.17501 v -0.263205 h 0.177767 q 0.482313,0 0.482313,-0.333485 0,-0.129536 -0.08406,-0.199816 -0.08406,-0.07028 -0.248047,-0.07028 -0.114377,0 -0.220486,0.03307 -0.106109,0.03169 -0.250803,0.125402 l -0.158475,-0.225999 q 0.276986,-0.203949 0.643544,-0.203949 0.304547,0 0.475423,0.130913 0.170877,0.130914 0.170877,0.361046 z"
         style="font-size:2.82222223px;fill:#aeaeae;fill-opacity:1;stroke-width:0.26458332"
         id="path3841" />
      <path
         d="m 25.785208,36.271734 q 0,0.525032 -0.169499,0.779969 -0.168121,0.254937 -0.515386,0.254937 -0.336242,0 -0.509874,-0.263205 -0.173633,-0.263205 -0.173633,-0.771701 0,-0.533301 0.16812,-0.785482 0.169499,-0.253559 0.515387,-0.253559 0.337619,0 0.511252,0.264583 0.173633,0.264583 0.173633,0.774458 z m -1.040419,0 q 0,0.412033 0.08406,0.588422 0.08544,0.176389 0.271474,0.176389 0.186035,0 0.271473,-0.179145 0.08682,-0.179145 0.08682,-0.585666 0,-0.405144 -0.08682,-0.585667 -0.08544,-0.181901 -0.271473,-0.181901 -0.186035,0 -0.271474,0.177767 -0.08406,0.177767 -0.08406,0.589801 z"
         style="font-size:2.82222223px;fill:#aeaeae;fill-opacity:1;stroke-width:0.26458332"
         id="path3843" />
    </g>
    <g
       aria-label="07"
       style="font-style:normal;font-variant:normal;font-weight:600;font-stretch:normal;font-size:7.05555534px;line-height:1.25;font-family:'Open Sans';-inkscape-font-specification:'Open Sans Semi-Bold';letter-spacing:0px;word-spacing:0px;fill:#000000;fill-opacity:1;stroke:none;stroke-width:0.26458332"
       id="text846-9-6-6-8-9-6">
      <path
         d="m 24.170148,45.148534 q 0,0.525033 -0.169499,0.77997 -0.16812,0.254937 -0.515386,0.254937 -0.336241,0 -0.509874,-0.263206 -0.173633,-0.263205 -0.173633,-0.771701 0,-0.533301 0.168121,-0.785482 0.169498,-0.253559 0.515386,-0.253559 0.337619,0 0.511252,0.264584 0.173633,0.264583 0.173633,0.774457 z m -1.040419,0 q 0,0.412033 0.08406,0.588422 0.08544,0.176389 0.271474,0.176389 0.186035,0 0.271473,-0.179145 0.08682,-0.179145 0.08682,-0.585666 0,-0.405143 -0.08682,-0.585666 -0.08544,-0.181901 -0.271473,-0.181901 -0.186035,0 -0.271474,0.177767 -0.08406,0.177767 -0.08406,0.5898 z"
         style="font-size:2.82222223px;stroke-width:0.26458332"
         id="path3846" />
      <path
         d="m 24.644193,46.15588 0.796506,-1.726682 H 24.39339 v -0.285254 h 1.393197 v 0.225998 l -0.792372,1.785938 z"
         style="font-size:2.82222223px;stroke-width:0.26458332"
         id="path3848" />
    </g>
    <g
       aria-label="14"
       style="font-style:normal;font-variant:normal;font-weight:600;font-stretch:normal;font-size:7.05555534px;line-height:1.25;font-family:'Open Sans';-inkscape-font-specification:'Open Sans Semi-Bold';letter-spacing:0px;word-spacing:0px;fill:#000000;fill-opacity:1;stroke:none;stroke-width:0.26458332"
       id="text846-9-6-6-8-9-6-5">
      <path
         d="m 23.67681,55.006496 h -0.323839 v -1.300868 q 0,-0.232888 0.01102,-0.369314 -0.03169,0.03307 -0.07855,0.07304 -0.04547,0.03996 -0.30868,0.253559 l -0.162609,-0.205328 0.592556,-0.465776 h 0.270096 z"
         style="font-size:2.82222223px;stroke-width:0.26458332"
         id="path3851" />
      <path
         d="m 25.774184,54.566902 h -0.271473 v 0.439594 H 25.18714 v -0.439594 h -0.92053 v -0.249425 l 0.92053,-1.331185 h 0.315571 v 1.311893 h 0.271473 z M 25.18714,54.298185 v -0.50574 q 0,-0.270096 0.01378,-0.44235 h -0.01102 q -0.03859,0.09095 -0.121267,0.220486 l -0.500228,0.727604 z"
         style="font-size:2.82222223px;stroke-width:0.26458332"
         id="path3853" />
    </g>
    <g
       aria-label="21"
       style="font-style:normal;font-variant:normal;font-weight:600;font-stretch:normal;font-size:7.05555534px;line-height:1.25;font-family:'Open Sans';-inkscape-font-specification:'Open Sans Semi-Bold';letter-spacing:0px;word-spacing:0px;fill:#000000;fill-opacity:1;stroke:none;stroke-width:0.26458332"
       id="text846-9-6-6-8-9-6-5-8">
      <path
         d="m 24.378921,63.852974 h -1.365636 v -0.245291 l 0.51952,-0.522276 q 0.230132,-0.235645 0.304547,-0.333486 0.07579,-0.09922 0.110243,-0.186035 0.03445,-0.08682 0.03445,-0.186035 0,-0.136426 -0.08268,-0.214974 -0.0813,-0.07855 -0.225998,-0.07855 -0.115755,0 -0.22462,0.04272 -0.107487,0.04272 -0.249425,0.15434 l -0.175011,-0.213595 q 0.168121,-0.141938 0.326595,-0.201194 0.158474,-0.05926 0.337619,-0.05926 0.28112,0 0.450619,0.14745 0.169499,0.146072 0.169499,0.394119 0,0.136426 -0.04961,0.259071 -0.04823,0.122646 -0.150206,0.25356 -0.100597,0.129535 -0.336241,0.351399 l -0.350022,0.338998 v 0.01378 h 0.956359 z"
         style="font-size:2.82222223px;fill:#000000;fill-opacity:1;stroke-width:0.26458332"
         id="path3856" />
      <path
         d="m 25.575058,63.852974 h -0.323839 v -1.300868 q 0,-0.232889 0.01102,-0.369314 -0.0317,0.03307 -0.07855,0.07304 -0.04547,0.03996 -0.308681,0.253559 l -0.162608,-0.205328 0.592556,-0.465777 h 0.270096 z"
         style="font-size:2.82222223px;fill:#000000;fill-opacity:1;stroke-width:0.26458332"
         id="path3858" />
    </g>
    <g
       aria-label="28"
       style="font-style:normal;font-variant:normal;font-weight:600;font-stretch:normal;font-size:7.05555534px;line-height:1.25;font-family:'Open Sans';-inkscape-font-specification:'Open Sans Semi-Bold';letter-spacing:0px;word-spacing:0px;fill:#ffffff;fill-opacity:1;stroke:none;stroke-width:0.26458332"
       id="text846-9-6-6-8-9-6-5-7">
      <path
         d="M 24.171525,72.699448 H 22.805889 V 72.454157 L 23.32541,71.93188 q 0.230132,-0.235644 0.304546,-0.333485 0.07579,-0.09922 0.110243,-0.186035 0.03445,-0.08682 0.03445,-0.186035 0,-0.136426 -0.08268,-0.214974 -0.08131,-0.07855 -0.225999,-0.07855 -0.115755,0 -0.22462,0.04272 -0.107487,0.04272 -0.249425,0.15434 l -0.175011,-0.213596 q 0.168121,-0.141938 0.326595,-0.201193 0.158475,-0.05926 0.33762,-0.05926 0.28112,0 0.450618,0.14745 0.169499,0.146072 0.169499,0.394119 0,0.136426 -0.04961,0.259071 -0.04823,0.122646 -0.150207,0.253559 -0.100596,0.129536 -0.336241,0.3514 l -0.350022,0.338997 v 0.01378 h 0.956359 z"
         style="font-size:2.82222223px;fill:#ffffff;fill-opacity:1;stroke-width:0.26458332"
         id="path3861" />
      <path
         d="m 25.097567,70.658573 q 0.286632,0 0.453374,0.132292 0.166743,0.130913 0.166743,0.351399 0,0.310059 -0.37207,0.493338 0.237022,0.118511 0.336241,0.249425 0.100597,0.130914 0.100597,0.292144 0,0.249425 -0.183279,0.399631 -0.18328,0.150206 -0.496094,0.150206 -0.327973,0 -0.508496,-0.14056 -0.180523,-0.140559 -0.180523,-0.398253 0,-0.16812 0.09371,-0.30179 0.09509,-0.135048 0.310059,-0.239779 -0.184657,-0.110243 -0.263205,-0.232888 -0.07855,-0.122645 -0.07855,-0.275608 0,-0.219108 0.172255,-0.348643 0.172255,-0.130914 0.449241,-0.130914 z m -0.373449,1.518598 q 0,0.143316 0.100597,0.223242 0.100597,0.07855 0.272852,0.07855 0.177767,0 0.275607,-0.08131 0.09922,-0.08268 0.09922,-0.223242 0,-0.111621 -0.09095,-0.20395 -0.09095,-0.09233 -0.275607,-0.170876 l -0.03996,-0.01792 q -0.181901,0.07993 -0.261828,0.176389 -0.07993,0.09508 -0.07993,0.219108 z m 0.370693,-1.269173 q -0.137804,0 -0.221865,0.0689 -0.08406,0.06752 -0.08406,0.184657 0,0.07166 0.03032,0.128158 0.03032,0.0565 0.08819,0.103352 0.05788,0.04548 0.195682,0.110243 0.165364,-0.07304 0.232888,-0.152962 0.0689,-0.0813 0.0689,-0.188791 0,-0.117133 -0.08544,-0.184657 -0.08406,-0.0689 -0.22462,-0.0689 z"
         style="font-size:2.82222223px;fill:#ffffff;fill-opacity:1;stroke-width:0.26458332"
         id="path3863" />
    </g>
    <g
       aria-label="04"
       style="font-style:normal;font-variant:normal;font-weight:600;font-stretch:normal;font-size:7.05555534px;line-height:1.25;font-family:'Open Sans';-inkscape-font-specification:'Open Sans Semi-Bold';letter-spacing:0px;word-spacing:0px;fill:#aeaeae;fill-opacity:1;stroke:none;stroke-width:0.26458332"
       id="text846-9-6-6-8-9-6-5-4">
      <path
         d="m 24.137074,80.568902 q 0,0.525033 -0.169498,0.77997 -0.168121,0.254937 -0.515387,0.254937 -0.336241,0 -0.509874,-0.263205 -0.173632,-0.263206 -0.173632,-0.771702 0,-0.533301 0.16812,-0.785482 0.169499,-0.253559 0.515386,-0.253559 0.33762,0 0.511253,0.264584 0.173632,0.264583 0.173632,0.774457 z m -1.040418,0 q 0,0.412034 0.08406,0.588423 0.08544,0.176388 0.271473,0.176388 0.186036,0 0.271474,-0.179145 0.08682,-0.179144 0.08682,-0.585666 0,-0.405143 -0.08682,-0.585666 -0.08544,-0.181901 -0.271474,-0.181901 -0.186035,0 -0.271473,0.177767 -0.08406,0.177767 -0.08406,0.5898 z"
         style="font-size:2.82222223px;fill:#aeaeae;fill-opacity:1;stroke-width:0.26458332"
         id="path3866" />
      <path
         d="m 25.819659,81.136654 h -0.271473 v 0.439594 h -0.315571 v -0.439594 h -0.92053 v -0.249425 l 0.92053,-1.331185 h 0.315571 v 1.311893 h 0.271473 z m -0.587044,-0.268717 v -0.50574 q 0,-0.270096 0.01378,-0.442351 h -0.01102 q -0.03859,0.09095 -0.121267,0.220486 l -0.500228,0.727605 z"
         style="font-size:2.82222223px;fill:#aeaeae;fill-opacity:1;stroke-width:0.26458332"
         id="path3868" />
    </g>
    <g
       aria-label="M"
       style="font-style:normal;font-variant:normal;font-weight:600;font-stretch:normal;font-size:7.05555534px;line-height:1.25;font-family:'Open Sans';-inkscape-font-specification:'Open Sans Semi-Bold';letter-spacing:0px;word-spacing:0px;fill:#000000;fill-opacity:1;stroke:none;stroke-width:0.26458332"
       id="text846">
      <path
         d="m 14.84539,25.251129 -0.438216,-1.261938 h -0.0083 q 0.01757,0.28112 0.01757,0.527099 v 0.734839 H 14.1922 V 23.74011 h 0.348299 l 0.419613,1.201994 h 0.0062 l 0.432015,-1.201994 h 0.349333 v 1.511019 h -0.237712 v -0.747241 q 0,-0.112655 0.0052,-0.293522 0.0062,-0.180868 0.01033,-0.219108 h -0.0083 l -0.453719,1.259871 z"
         style="font-size:2.11666656px;stroke-width:0.26458332"
         id="path3871" />
    </g>
    <g
       aria-label="29"
       style="font-style:normal;font-variant:normal;font-weight:600;font-stretch:normal;font-size:7.05555534px;line-height:1.25;font-family:'Open Sans';-inkscape-font-specification:'Open Sans Semi-Bold';letter-spacing:0px;word-spacing:0px;fill:#aeaeae;fill-opacity:1;stroke:none;stroke-width:0.26458332"
       id="text846-9-6-6-8-9-0">
      <path
         d="m 14.848664,37.276287 h -1.365636 v -0.245291 l 0.519521,-0.522276 q 0.230132,-0.235645 0.304546,-0.333485 0.07579,-0.09922 0.110243,-0.186036 0.03445,-0.08682 0.03445,-0.186035 0,-0.136426 -0.08268,-0.214974 -0.0813,-0.07855 -0.225998,-0.07855 -0.115755,0 -0.224621,0.04272 -0.107486,0.04272 -0.249424,0.154341 l -0.175011,-0.213596 q 0.16812,-0.141938 0.326595,-0.201194 0.158474,-0.05926 0.337619,-0.05926 0.28112,0 0.450619,0.147451 0.169498,0.146072 0.169498,0.394118 0,0.136426 -0.04961,0.259072 -0.04823,0.122645 -0.150206,0.253559 -0.100597,0.129535 -0.336242,0.351399 l -0.350021,0.338998 v 0.01378 h 0.956358 z"
         style="font-size:2.82222223px;fill:#aeaeae;fill-opacity:1;stroke-width:0.26458332"
         id="path3874" />
      <path
         d="m 16.456835,36.121491 q 0,0.595313 -0.239779,0.888835 -0.239778,0.293522 -0.722092,0.293522 -0.183279,0 -0.263205,-0.02205 v -0.271473 q 0.122645,0.03445 0.246669,0.03445 0.327973,0 0.489203,-0.176389 0.161231,-0.176389 0.176389,-0.553972 h -0.01654 q -0.08131,0.124024 -0.19706,0.179145 -0.114377,0.05512 -0.268717,0.05512 -0.26734,0 -0.420302,-0.166743 -0.152962,-0.166742 -0.152962,-0.457508 0,-0.315571 0.176389,-0.501606 0.177767,-0.187413 0.483691,-0.187413 0.214974,0 0.374827,0.10473 0.159852,0.104731 0.246668,0.304547 0.08682,0.198437 0.08682,0.476801 z m -0.7028,-0.617361 q -0.16812,0 -0.257693,0.110243 -0.08957,0.108865 -0.08957,0.307303 0,0.172254 0.08268,0.271473 0.08406,0.09784 0.253559,0.09784 0.163987,0 0.275608,-0.09784 0.111621,-0.09784 0.111621,-0.228754 0,-0.122646 -0.04823,-0.228755 -0.04685,-0.107487 -0.132291,-0.169498 -0.08544,-0.06201 -0.195682,-0.06201 z"
         style="font-size:2.82222223px;fill:#aeaeae;fill-opacity:1;stroke-width:0.26458332"
         id="path3876" />
    </g>
    <g
       aria-label="06"
       style="font-style:normal;font-variant:normal;font-weight:600;font-stretch:normal;font-size:7.05555534px;line-height:1.25;font-family:'Open Sans';-inkscape-font-specification:'Open Sans Semi-Bold';letter-spacing:0px;word-spacing:0px;fill:#000000;fill-opacity:1;stroke:none;stroke-width:0.26458332"
       id="text846-9-6-6-8-9-0-0">
      <path
         d="m 14.84453,45.135553 q 0,0.525032 -0.169499,0.779969 -0.16812,0.254937 -0.515386,0.254937 -0.336241,0 -0.509874,-0.263205 -0.173633,-0.263205 -0.173633,-0.771701 0,-0.533301 0.168121,-0.785482 0.169499,-0.253559 0.515386,-0.253559 0.337619,0 0.511252,0.264583 0.173633,0.264584 0.173633,0.774458 z m -1.040419,0 q 0,0.412033 0.08406,0.588422 0.08544,0.176389 0.271473,0.176389 0.186035,0 0.271474,-0.179145 0.08682,-0.179145 0.08682,-0.585666 0,-0.405144 -0.08682,-0.585667 -0.08544,-0.181901 -0.271474,-0.181901 -0.186035,0 -0.271473,0.177767 -0.08406,0.177767 -0.08406,0.589801 z"
         style="font-size:2.82222223px;stroke-width:0.26458332"
         id="path3879" />
      <path
         d="m 15.095333,45.284381 q 0,-1.182357 0.963249,-1.182357 0.151584,0 0.256315,0.02343 v 0.270095 q -0.104731,-0.03032 -0.242535,-0.03032 -0.323839,0 -0.486447,0.173633 -0.162609,0.173633 -0.176389,0.556728 h 0.01654 q 0.06477,-0.111622 0.181901,-0.172255 0.117133,-0.06201 0.275608,-0.06201 0.274229,0 0.427192,0.168121 0.152962,0.16812 0.152962,0.45613 0,0.316949 -0.177767,0.501606 -0.176389,0.183279 -0.482313,0.183279 -0.216352,0 -0.376205,-0.103353 -0.159852,-0.10473 -0.246669,-0.303168 -0.08544,-0.199815 -0.08544,-0.479557 z m 0.702799,0.618739 q 0.166743,0 0.256316,-0.107487 0.09095,-0.107487 0.09095,-0.307303 0,-0.173632 -0.08544,-0.272851 -0.08406,-0.09922 -0.253559,-0.09922 -0.104731,0 -0.192926,0.04548 -0.08819,0.0441 -0.139181,0.122646 -0.05099,0.07717 -0.05099,0.158474 0,0.194304 0.104731,0.327973 0.106109,0.132292 0.270095,0.132292 z"
         style="font-size:2.82222223px;stroke-width:0.26458332"
         id="path3881" />
    </g>
    <g
       aria-label="13"
       style="font-style:normal;font-variant:normal;font-weight:600;font-stretch:normal;font-size:7.05555534px;line-height:1.25;font-family:'Open Sans';-inkscape-font-specification:'Open Sans Semi-Bold';letter-spacing:0px;word-spacing:0px;fill:#000000;fill-opacity:1;stroke:none;stroke-width:0.26458332"
       id="text846-9-6-6-8-9-0-0-9">
      <path
         d="m 14.396668,55.006744 h -0.323839 v -1.300868 q 0,-0.232888 0.01102,-0.369314 -0.03169,0.03307 -0.07855,0.07304 -0.04547,0.03996 -0.30868,0.253559 l -0.162609,-0.205328 0.592557,-0.465776 h 0.270095 z"
         style="font-size:2.82222223px;stroke-width:0.26458332"
         id="path3884" />
      <path
         d="m 16.346592,53.455073 q 0,0.191548 -0.111621,0.319705 -0.111621,0.12678 -0.314193,0.170877 v 0.01102 q 0.242535,0.03032 0.363802,0.151584 0.121268,0.11989 0.121268,0.319705 0,0.290766 -0.205328,0.449241 -0.205328,0.157096 -0.584288,0.157096 -0.334863,0 -0.564996,-0.108865 v -0.28801 q 0.128158,0.06339 0.271474,0.09784 0.143316,0.03445 0.275607,0.03445 0.234267,0 0.350022,-0.08682 0.115755,-0.08682 0.115755,-0.268717 0,-0.161231 -0.128157,-0.237023 -0.128158,-0.07579 -0.402387,-0.07579 h -0.175011 v -0.263205 h 0.177767 q 0.482313,0 0.482313,-0.333485 0,-0.129536 -0.08406,-0.199816 -0.08406,-0.07028 -0.248047,-0.07028 -0.114377,0 -0.220486,0.03307 -0.106109,0.03169 -0.250803,0.125402 l -0.158475,-0.225999 q 0.276986,-0.203949 0.643544,-0.203949 0.304547,0 0.475423,0.130913 0.170877,0.130914 0.170877,0.361046 z"
         style="font-size:2.82222223px;stroke-width:0.26458332"
         id="path3886" />
    </g>
    <g
       aria-label="20"
       style="font-style:normal;font-variant:normal;font-weight:600;font-stretch:normal;font-size:7.05555534px;line-height:1.25;font-family:'Open Sans';-inkscape-font-specification:'Open Sans Semi-Bold';letter-spacing:0px;word-spacing:0px;fill:#000000;fill-opacity:1;stroke:none;stroke-width:0.26458332"
       id="text846-9-6-6-8-9-0-0-9-2">
      <path
         d="M 14.847286,63.873352 H 13.48165 v -0.245291 l 0.519521,-0.522276 q 0.230132,-0.235645 0.304546,-0.333485 0.07579,-0.09922 0.110243,-0.186036 0.03445,-0.08682 0.03445,-0.186035 0,-0.136426 -0.08268,-0.214974 -0.0813,-0.07855 -0.225998,-0.07855 -0.115756,0 -0.224621,0.04272 -0.107487,0.04272 -0.249424,0.154341 l -0.175011,-0.213596 q 0.16812,-0.141938 0.326595,-0.201194 0.158474,-0.05926 0.337619,-0.05926 0.28112,0 0.450619,0.14745 0.169498,0.146073 0.169498,0.394119 0,0.136426 -0.04961,0.259072 -0.04823,0.122645 -0.150206,0.253559 -0.100597,0.129535 -0.336242,0.351399 l -0.350021,0.338998 v 0.01378 h 0.956358 z"
         style="font-size:2.82222223px;fill:#000000;fill-opacity:1;stroke-width:0.26458332"
         id="path3889" />
      <path
         d="m 16.458213,62.866006 q 0,0.525033 -0.169499,0.77997 -0.168121,0.254937 -0.515386,0.254937 -0.336241,0 -0.509874,-0.263205 -0.173633,-0.263206 -0.173633,-0.771702 0,-0.533301 0.168121,-0.785482 0.169498,-0.253559 0.515386,-0.253559 0.337619,0 0.511252,0.264584 0.173633,0.264583 0.173633,0.774457 z m -1.040419,0 q 0,0.412034 0.08406,0.588422 0.08544,0.176389 0.271474,0.176389 0.186035,0 0.271473,-0.179145 0.08682,-0.179145 0.08682,-0.585666 0,-0.405143 -0.08682,-0.585666 -0.08544,-0.181901 -0.271473,-0.181901 -0.186035,0 -0.271474,0.177767 -0.08406,0.177767 -0.08406,0.5898 z"
         style="font-size:2.82222223px;fill:#000000;fill-opacity:1;stroke-width:0.26458332"
         id="path3891" />
    </g>
    <g
       aria-label="27"
       style="font-style:normal;font-variant:normal;font-weight:600;font-stretch:normal;font-size:7.05555534px;line-height:1.25;font-family:'Open Sans';-inkscape-font-specification:'Open Sans Semi-Bold';letter-spacing:0px;word-spacing:0px;fill:#ffffff;fill-opacity:1;stroke:none;stroke-width:0.26458332"
       id="text846-9-6-6-8-9-0-0-9-26">
      <path
         d="m 14.84453,72.737198 h -1.365636 v -0.245291 l 0.519521,-0.522276 q 0.230132,-0.235645 0.304546,-0.333486 0.07579,-0.09922 0.110243,-0.186035 0.03445,-0.08682 0.03445,-0.186035 0,-0.136426 -0.08268,-0.214974 -0.0813,-0.07855 -0.225998,-0.07855 -0.115756,0 -0.224621,0.04272 -0.107487,0.04272 -0.249425,0.15434 l -0.17501,-0.213596 q 0.16812,-0.141937 0.326595,-0.201193 0.158474,-0.05926 0.337619,-0.05926 0.28112,0 0.450618,0.14745 0.169499,0.146072 0.169499,0.394119 0,0.136426 -0.04961,0.259071 -0.04823,0.122646 -0.150206,0.253559 -0.100597,0.129536 -0.336242,0.3514 l -0.350021,0.338998 v 0.01378 h 0.956358 z"
         style="font-size:2.82222223px;fill:#ffffff;fill-opacity:1;stroke-width:0.26458332"
         id="path3894" />
      <path
         d="m 15.318575,72.737198 0.796506,-1.726682 h -1.047309 v -0.285254 h 1.393197 v 0.225998 l -0.792372,1.785938 z"
         style="font-size:2.82222223px;fill:#ffffff;fill-opacity:1;stroke-width:0.26458332"
         id="path3896" />
    </g>
    <g
       aria-label="03"
       style="font-style:normal;font-variant:normal;font-weight:600;font-stretch:normal;font-size:7.05555534px;line-height:1.25;font-family:'Open Sans';-inkscape-font-specification:'Open Sans Semi-Bold';letter-spacing:0px;word-spacing:0px;fill:#aeaeae;fill-opacity:1;stroke:none;stroke-width:0.26458332"
       id="text846-9-6-6-8-9-0-0-9-1">
      <path
         d="m 14.856933,80.568902 q 0,0.525033 -0.169499,0.77997 -0.168121,0.254937 -0.515386,0.254937 -0.336242,0 -0.509874,-0.263205 -0.173633,-0.263206 -0.173633,-0.771702 0,-0.533301 0.16812,-0.785482 0.169499,-0.253559 0.515387,-0.253559 0.337619,0 0.511252,0.264584 0.173633,0.264583 0.173633,0.774457 z m -1.040419,0 q 0,0.412034 0.08406,0.588423 0.08544,0.176388 0.271474,0.176388 0.186035,0 0.271473,-0.179145 0.08682,-0.179144 0.08682,-0.585666 0,-0.405143 -0.08682,-0.585666 -0.08544,-0.181901 -0.271473,-0.181901 -0.186036,0 -0.271474,0.177767 -0.08406,0.177767 -0.08406,0.5898 z"
         style="font-size:2.82222223px;fill:#aeaeae;fill-opacity:1;stroke-width:0.26458332"
         id="path3899" />
      <path
         d="m 16.392067,80.024577 q 0,0.191547 -0.111621,0.319705 -0.111621,0.12678 -0.314193,0.170877 v 0.01102 q 0.242535,0.03032 0.363802,0.151584 0.121268,0.11989 0.121268,0.319705 0,0.290766 -0.205328,0.449241 -0.205328,0.157096 -0.584288,0.157096 -0.334863,0 -0.564996,-0.108865 v -0.28801 q 0.128158,0.06339 0.271474,0.09784 0.143316,0.03445 0.275607,0.03445 0.234267,0 0.350022,-0.08682 0.115755,-0.08682 0.115755,-0.268717 0,-0.161231 -0.128157,-0.237023 -0.128158,-0.07579 -0.402387,-0.07579 h -0.175011 v -0.263205 h 0.177767 q 0.482313,0 0.482313,-0.333485 0,-0.129536 -0.08406,-0.199816 -0.08406,-0.07028 -0.248047,-0.07028 -0.114377,0 -0.220486,0.03307 -0.106109,0.03169 -0.250803,0.125401 l -0.158475,-0.225998 q 0.276986,-0.203949 0.643544,-0.203949 0.304547,0 0.475423,0.130913 0.170877,0.130914 0.170877,0.361046 z"
         style="font-size:2.82222223px;fill:#aeaeae;fill-opacity:1;stroke-width:0.26458332"
         id="path3901" />
    </g>
  </g>
</svg>
