<svg xmlns="http://www.w3.org/2000/svg" viewBox="0 0 165.173 100.894" height="381.333" width="624.274"><path d="M93.927 122.658h22.064l6.237 5.434-6.237 6.047H93.927v-11.48" style="fill:#0b9444;fill-opacity:1;stroke:none;stroke-width:.26458332px;stroke-linecap:butt;stroke-linejoin:miter;stroke-opacity:1" transform="translate(-30.068 -117.128)"/><path d="M93.927 135.785h32.648l6.236 5.434-6.236 6.047H93.927v-11.48" style="fill:#2cb573;fill-opacity:1;stroke:none;stroke-width:.26458332px;stroke-linecap:butt;stroke-linejoin:miter;stroke-opacity:1" transform="translate(-30.068 -117.128)"/><path d="M93.927 148.912h43.231l6.237 5.433-6.237 6.048h-43.23v-11.48" style="fill:#8cc53e;fill-opacity:1;stroke:none;stroke-width:.26458332px;stroke-linecap:butt;stroke-linejoin:miter;stroke-opacity:1" transform="translate(-30.068 -117.128)"/><path d="M93.927 162.039h53.285l6.237 5.433-6.237 6.048H93.927v-11.481" style="fill:#f5ed30;fill-opacity:1;stroke:none;stroke-width:.26458332px;stroke-linecap:butt;stroke-linejoin:miter;stroke-opacity:1" transform="translate(-30.068 -117.128)"/><path d="M93.927 175.166h63.34l6.236 5.433-6.237 6.048H93.927v-11.481" style="fill:#fcaf3e;fill-opacity:1;stroke:none;stroke-width:.26458332px;stroke-linecap:butt;stroke-linejoin:miter;stroke-opacity:1" transform="translate(-30.068 -117.128)"/><path d="M93.927 188.292h73.923l6.236 5.434-6.236 6.048H93.927v-11.482" style="fill:#f7931c;fill-opacity:1;stroke:none;stroke-width:.26458332px;stroke-linecap:butt;stroke-linejoin:miter;stroke-opacity:1" transform="translate(-30.068 -117.128)"/><path d="M93.927 201.42h85.035l6.237 5.433-6.237 6.047H93.927v-11.48" style="fill:#ed1a24;fill-opacity:1;stroke:none;stroke-width:.26458332px;stroke-linecap:butt;stroke-linejoin:miter;stroke-opacity:1" transform="translate(-30.068 -117.128)"/><path transform="matrix(.26458 0 0 .26458 -30.068 -117.128)" d="m338.906 471.367-47.73 33.723v-26.653h-34.344v50.916L139.275 612.41h29.104v188.258h170.527z" style="fill:none;stroke:#0b9444;stroke-width:8;stroke-linecap:butt;stroke-linejoin:miter;stroke-miterlimit:4;stroke-dasharray:none;stroke-opacity:1"/><g style="font-style:normal;font-variant:normal;font-weight:700;font-stretch:normal;font-size:7.05555534px;line-height:1.25;font-family:'Open Sans';-inkscape-font-specification:'Open Sans Bold';letter-spacing:0;word-spacing:0;fill:#fff;fill-opacity:1;stroke:none;stroke-width:.26458332" aria-label="A"><path style="font-style:normal;font-variant:normal;font-weight:400;font-stretch:normal;font-size:9.17222214px;font-family:'Open Sans';-inkscape-font-specification:'Open Sans';fill:#fff;fill-opacity:1;stroke-width:.26458332" d="m114.53 131.493-.815-2.082h-2.625l-.806 2.082h-.77l2.588-6.574h.64l2.576 6.574zm-1.053-2.767-.761-2.03q-.148-.384-.305-.944-.098.43-.282.945l-.77 2.029z" transform="translate(-30.068 -117.128)"/></g><g style="font-style:normal;font-variant:normal;font-weight:700;font-stretch:normal;font-size:7.05555534px;line-height:1.25;font-family:'Open Sans';-inkscape-font-specification:'Open Sans Bold';letter-spacing:0;word-spacing:0;fill:#fff;fill-opacity:1;stroke:none;stroke-width:.26458332" aria-label="B"><path style="font-style:normal;font-variant:normal;font-weight:400;font-stretch:normal;font-size:9.17222214px;font-family:'Open Sans';-inkscape-font-specification:'Open Sans';fill:#fff;fill-opacity:1;stroke-width:.26458332" d="M120.808 138.256h1.85q1.303 0 1.886.39.582.389.582 1.23 0 .583-.327.964-.323.376-.945.488v.045q1.491.255 1.491 1.567 0 .878-.595 1.37-.592.493-1.657.493h-2.285zm.762 2.803h1.254q.806 0 1.16-.25.354-.256.354-.856 0-.551-.395-.793-.394-.246-1.254-.246h-1.12zm0 .645v2.45h1.366q.792 0 1.191-.305.403-.309.403-.963 0-.609-.412-.895-.407-.287-1.245-.287z" transform="translate(-30.068 -117.128)"/></g><g style="font-style:normal;font-variant:normal;font-weight:700;font-stretch:normal;font-size:7.05555534px;line-height:1.25;font-family:'Open Sans';-inkscape-font-specification:'Open Sans Bold';letter-spacing:0;word-spacing:0;fill:#fff;fill-opacity:1;stroke:none;stroke-width:.26458332" aria-label="C"><path style="font-style:normal;font-variant:normal;font-weight:400;font-stretch:normal;font-size:9.17222214px;font-family:'Open Sans';-inkscape-font-specification:'Open Sans';fill:#fff;fill-opacity:1;stroke-width:.26458332" d="M133.97 151.791q-1.08 0-1.707.721-.622.717-.622 1.967 0 1.285.6 1.988.604.699 1.72.699.685 0 1.563-.247v.668q-.681.255-1.68.255-1.446 0-2.235-.878-.783-.878-.783-2.494 0-1.013.376-1.774.38-.761 1.092-1.173.717-.412 1.684-.412 1.03 0 1.8.376l-.322.654q-.743-.35-1.486-.35z" transform="translate(-30.068 -117.128)"/></g><g style="font-style:normal;font-variant:normal;font-weight:700;font-stretch:normal;font-size:7.05555534px;line-height:1.25;font-family:'Open Sans';-inkscape-font-specification:'Open Sans Bold';letter-spacing:0;word-spacing:0;fill:#fff;fill-opacity:1;stroke:none;stroke-width:.26458332" aria-label="D"><path style="font-style:normal;font-variant:normal;font-weight:400;font-stretch:normal;font-size:9.17222214px;font-family:'Open Sans';-inkscape-font-specification:'Open Sans';fill:#fff;fill-opacity:1;stroke-width:.26458332" d="M146.814 167.982q0 1.621-.882 2.481-.878.856-2.53.856h-1.814v-6.548h2.006q1.528 0 2.374.846.846.847.846 2.365zm-.806.027q0-1.281-.645-1.93-.64-.65-1.908-.65h-1.106v5.231h.927q1.362 0 2.047-.667.685-.672.685-1.984z" transform="translate(-30.068 -117.128)"/></g><g style="font-style:normal;font-variant:normal;font-weight:700;font-stretch:normal;font-size:7.05555534px;line-height:1.25;font-family:'Open Sans';-inkscape-font-specification:'Open Sans Bold';letter-spacing:0;word-spacing:0;fill:#fff;fill-opacity:1;stroke:none;stroke-width:.26458332" aria-label="E"><path style="font-style:normal;font-variant:normal;font-weight:400;font-stretch:normal;font-size:9.17222214px;font-family:'Open Sans';-inkscape-font-specification:'Open Sans';fill:#fff;fill-opacity:1;stroke-width:.26458332" d="M155.446 183.811h-3.65v-6.548h3.65v.677h-2.888v2.11h2.714v.67h-2.714v2.41h2.888z" transform="translate(-30.068 -117.128)"/></g><g style="font-style:normal;font-variant:normal;font-weight:700;font-stretch:normal;font-size:7.05555534px;line-height:1.25;font-family:'Open Sans';-inkscape-font-specification:'Open Sans Bold';letter-spacing:0;word-spacing:0;fill:#fff;fill-opacity:1;stroke:none;stroke-width:.26458332" aria-label="F"><path style="font-style:normal;font-variant:normal;font-weight:400;font-stretch:normal;font-size:9.17222214px;font-family:'Open Sans';-inkscape-font-specification:'Open Sans';fill:#fff;fill-opacity:1;stroke-width:.26458332" d="M162.834 196.907h-.761v-6.547h3.65v.676h-2.889v2.396h2.714v.676h-2.714z" transform="translate(-30.068 -117.128)"/></g><g style="font-style:normal;font-variant:normal;font-weight:700;font-stretch:normal;font-size:7.05555534px;line-height:1.25;font-family:'Open Sans';-inkscape-font-specification:'Open Sans Bold';letter-spacing:0;word-spacing:0;fill:#fff;fill-opacity:1;stroke:none;stroke-width:.26458332" aria-label="G"><path style="font-style:normal;font-variant:normal;font-weight:400;font-stretch:normal;font-size:9.17222214px;font-family:'Open Sans';-inkscape-font-specification:'Open Sans';fill:#fff;fill-opacity:1;stroke-width:.26458332" d="M175.063 206.907h2.226v3.184q-.52.166-1.057.251-.537.085-1.245.085-1.487 0-2.315-.882-.829-.887-.829-2.481 0-1.021.408-1.787.412-.77 1.182-1.174.77-.407 1.805-.407 1.048 0 1.953.385l-.296.672q-.887-.376-1.706-.376-1.196 0-1.868.712-.672.712-.672 1.975 0 1.325.645 2.01.65.686 1.904.686.68 0 1.33-.157v-2.015h-1.465z" transform="translate(-30.068 -117.128)"/></g><g style="font-style:normal;font-variant:normal;font-weight:700;font-stretch:normal;font-size:7.05555534px;line-height:1.25;font-family:'Open Sans';-inkscape-font-specification:'Open Sans Bold';letter-spacing:0;word-spacing:0;fill:#0b9444;fill-opacity:1;stroke:none;stroke-width:.26458332" aria-label="Energy Efficiency"><path style="font-size:7.76111126px;fill:#0b9444;fill-opacity:1;stroke-width:.26458332" d="M51.663 195.037h-3.191v-5.54h3.19v.962h-2.016v1.216h1.876v.963h-1.876v1.429h2.017zM56.638 195.037h-1.156v-2.475q0-.458-.162-.686-.163-.231-.52-.231-.485 0-.7.326-.217.322-.217 1.072v1.994h-1.156V190.8h.883l.156.542h.064q.193-.307.53-.463.342-.159.774-.159.739 0 1.122.402.382.398.382 1.152zM59.583 191.543q-.368 0-.576.235-.209.23-.239.659h1.622q-.008-.428-.224-.66-.216-.234-.583-.234zm.163 3.57q-1.023 0-1.6-.565-.575-.565-.575-1.6 0-1.064.53-1.644.534-.584 1.474-.584.898 0 1.399.512.5.512.5 1.413v.561h-2.732q.018.493.291.77.273.276.766.276.383 0 .724-.08.34-.079.712-.253v.894q-.303.152-.648.224-.345.075-.841.075zM64.778 190.72q.235 0 .39.034l-.086 1.084q-.14-.038-.342-.038-.553 0-.864.285-.306.284-.306.795v2.157h-1.156V190.8h.875l.17.712h.057q.198-.356.531-.572.337-.22.731-.22zM69.625 190.8v.587l-.663.17q.182.285.182.637 0 .683-.477 1.065-.474.38-1.32.38l-.208-.012-.17-.019q-.178.136-.178.303 0 .25.636.25h.72q.698 0 1.061.3.368.299.368.879 0 .743-.621 1.152-.618.41-1.778.41-.887 0-1.356-.312-.467-.307-.467-.864 0-.382.24-.64.238-.258.7-.368-.178-.075-.31-.246-.133-.174-.133-.368 0-.242.14-.401.14-.163.406-.319-.334-.144-.531-.462-.193-.318-.193-.75 0-.694.45-1.073.452-.379 1.29-.379.177 0 .42.034.246.03.314.046zm-3.27 4.835q0 .24.227.376.231.136.644.136.622 0 .974-.17.353-.171.353-.467 0-.238-.209-.33-.208-.09-.644-.09h-.599q-.318 0-.534.148-.212.151-.212.397zm.42-3.448q0 .345.156.546.159.2.481.2.326 0 .478-.2.151-.201.151-.546 0-.766-.629-.766-.636 0-.636.766zM69.716 190.8h1.266l.8 2.384q.102.31.14.735h.023q.041-.39.162-.735l.785-2.384h1.24l-1.793 4.779q-.247.663-.705.992-.455.33-1.065.33-.3 0-.587-.064v-.917q.208.049.454.049.307 0 .535-.19.23-.185.36-.564l.068-.209zM51.663 204.738h-3.191v-5.54h3.19v.962h-2.016v1.217h1.876v.962h-1.876v1.429h2.017zM55.07 201.37h-1.001v3.368h-1.156v-3.369h-.637v-.557l.637-.31v-.311q0-.724.356-1.058.357-.333 1.141-.333.599 0 1.065.178l-.296.849q-.348-.11-.644-.11-.246 0-.356.148-.11.144-.11.371v.265h1zm3.005 0h-1v3.368h-1.157v-3.369h-.636v-.557l.636-.31v-.311q0-.724.357-1.058.356-.333 1.14-.333.599 0 1.065.178l-.296.849q-.348-.11-.644-.11-.246 0-.356.148-.11.144-.11.371v.265h1zm.602-1.964q0-.565.63-.565.628 0 .628.565 0 .27-.159.42-.155.149-.47.149-.629 0-.629-.569zm1.205 5.332h-1.156v-4.237h1.156zM62.815 204.814q-1.978 0-1.978-2.172 0-1.08.538-1.648.538-.572 1.543-.572.735 0 1.318.288l-.34.894q-.273-.11-.508-.178-.235-.072-.47-.072-.902 0-.902 1.28 0 1.244.902 1.244.333 0 .617-.087.285-.091.569-.28v.988q-.28.178-.569.247-.284.068-.72.068zM65.036 199.406q0-.565.63-.565.628 0 .628.565 0 .27-.159.42-.155.149-.47.149-.629 0-.629-.569zm1.205 5.332h-1.156v-4.237h1.156zM69.208 201.244q-.367 0-.576.235-.208.231-.238.66h1.622q-.008-.429-.224-.66-.216-.235-.584-.235zm.163 3.57q-1.023 0-1.599-.565-.576-.564-.576-1.599 0-1.065.53-1.645.535-.583 1.475-.583.898 0 1.398.511.5.512.5 1.414v.56h-2.732q.02.493.292.77.273.277.765.277.383 0 .724-.08.341-.08.713-.254v.894q-.303.152-.648.224-.345.076-.842.076zM75.95 204.738h-1.156v-2.475q0-.458-.163-.685-.163-.232-.519-.232-.485 0-.7.326-.217.322-.217 1.073v1.993H72.04v-4.237h.883l.156.542h.064q.193-.307.53-.462.342-.16.774-.16.739 0 1.121.402.383.398.383 1.152zM78.86 204.814q-1.978 0-1.978-2.172 0-1.08.539-1.648.538-.572 1.542-.572.735 0 1.319.288l-.341.894q-.273-.11-.508-.178-.235-.072-.47-.072-.902 0-.902 1.28 0 1.244.902 1.244.333 0 .618-.087.284-.091.568-.28v.988q-.28.178-.568.247-.285.068-.72.068zM80.524 200.501h1.266l.8 2.384q.102.31.14.735h.022q.042-.39.163-.735l.785-2.384h1.24l-1.793 4.779q-.247.663-.705.993-.455.33-1.065.33-.3 0-.588-.065v-.917q.209.05.455.05.307 0 .535-.19.23-.186.36-.565l.068-.208z" transform="translate(-30.068 -117.128)"/></g></svg>