<?xml version="1.0" encoding="UTF-8" standalone="no"?>
<svg
   xmlns:dc="http://purl.org/dc/elements/1.1/"
   xmlns:cc="http://creativecommons.org/ns#"
   xmlns:rdf="http://www.w3.org/1999/02/22-rdf-syntax-ns#"
   xmlns:svg="http://www.w3.org/2000/svg"
   xmlns="http://www.w3.org/2000/svg"
   id="svg8"
   version="1.1"
   viewBox="0 0 258.76251 115.62292"
   height="115.62292mm"
   width="258.76251mm">
  <defs
     id="defs2" />
  <metadata
     id="metadata5">
    <rdf:RDF>
      <cc:Work
         rdf:about="">
        <dc:format>image/svg+xml</dc:format>
        <dc:type
           rdf:resource="http://purl.org/dc/dcmitype/StillImage" />
        <dc:title></dc:title>
      </cc:Work>
    </rdf:RDF>
  </metadata>
  <g
     transform="translate(-21.562237,-102.77643)"
     id="layer1">
    <path
       id="path889"
       d="m 228.81895,204.38887 c -8.51829,-0.69712 -16.8241,-4.49713 -22.77267,-10.41877 -1.79389,-1.78576 -3.59294,-4.02063 -5.81102,-7.21873 l -0.41289,-0.59532 h -8.34848 -8.34848 l -0.88399,-0.88399 c -0.48619,-0.48619 -0.96364,-1.20135 -1.06099,-1.58924 -0.4492,-1.78971 0.65816,-3.62664 2.49357,-4.13646 0.55809,-0.15502 4.66778,-0.26471 9.82307,-0.26219 10.52253,0.005 10.46513,-0.007 11.90178,2.53996 6.33667,11.23439 18.88692,17.34318 31.44618,15.30632 3.05694,-0.49577 4.97913,-1.12669 8.37808,-2.74993 11.10308,-5.3025 18.01111,-17.4017 16.82707,-29.47205 -1.29951,-13.24742 -10.00798,-23.53125 -22.83703,-26.96827 l -2.19212,-0.58729 -47.23984,-0.13853 c -44.95481,-0.13184 -47.27509,-0.16163 -47.96836,-0.61593 -1.65604,-1.08521 -2.18771,-3.05384 -1.24313,-4.60299 1.09679,-1.7988 -2.74111,-1.6666 48.35017,-1.66543 40.20814,0.001 46.57739,0.0539 48.76262,0.4053 7.00725,1.12695 12.69992,3.79528 18.6072,8.72176 1.55292,1.29508 5.00088,5.25676 6.44769,7.40833 2.46719,3.669 4.57701,8.91893 5.54552,13.79908 0.63997,3.22469 0.63763,11.03012 -0.004,13.84234 -1.94583,8.52639 -5.92311,15.30124 -12.26115,20.88546 -7.28519,6.41872 -17.48254,9.79172 -27.19865,8.99657 z m 10.58333,-23.67081 c -1.10147,-0.56569 -10.36093,-9.84501 -10.84785,-10.87113 -0.6143,-1.29453 -0.58916,-23.29021 0.0281,-24.59099 0.85338,-1.79836 3.35095,-2.57505 5.05106,-1.57078 1.45911,0.86193 1.43759,0.67922 1.41362,12.00031 l -0.0222,10.49454 4.38941,4.36562 c 2.41418,2.4011 4.55993,4.68714 4.76834,5.08009 0.5535,1.04366 0.474,2.77339 -0.17579,3.82479 -0.98349,1.5913 -2.93061,2.1273 -4.60467,1.26755 z M 170.4155,169.60637 c -0.96287,-0.52787 -1.52468,-1.68059 -1.52468,-3.12834 0,-1.4639 0.91308,-2.6709 2.33461,-3.08613 0.64818,-0.18933 4.91638,-0.25713 12.79368,-0.20321 11.49326,0.0787 11.84169,0.0962 12.5677,0.63151 1.85413,1.36716 2.11398,3.54573 0.62211,5.21578 l -0.7577,0.8482 -12.65572,0.0596 c -10.83261,0.051 -12.76005,0.002 -13.38,-0.33744 z m -14.67485,-16.51253 c -1.64326,-1.00195 -2.20991,-3.48183 -1.11396,-4.8751 1.2233,-1.55518 0.0834,-1.48561 24.34008,-1.48561 21.86932,0 22.28869,0.01 23.13601,0.53334 1.67495,1.03518 2.12667,3.21269 1.0176,4.90535 -0.9684,1.47797 -0.33521,1.44056 -24.36533,1.43949 -21.5192,-0.001 -22.19212,-0.0161 -23.0144,-0.51747 z"
       style="fill:#000000;stroke-width:0.26458335" />
    <g
       transform="translate(-23.283342,-106.65287)"
       id="g900">
      <path
         style="fill:#000000;stroke-width:0.20889249"
         d="m 92.316718,284.14986 -1.354658,-2.00466 0.72798,-0.53752 c 3.458833,-2.55385 5.007892,-5.95287 4.013633,-8.80689 l -0.400245,-1.14891 -2.330497,-0.0591 -2.33049,-0.0591 v -1.8732 -1.87318 h 1.479653 c 0.813808,0 1.444354,-0.0705 1.401215,-0.15667 -1.393675,-2.78373 -1.651112,-3.45614 -1.801522,-4.70551 -0.603545,-5.01335 2.124473,-8.69838 7.485247,-10.11111 1.698466,-0.4476 5.685656,-0.49746 7.311226,-0.0914 4.54269,1.13467 7.06736,4.31154 7.61427,9.58128 l 0.1355,1.30559 h -3.114 -3.114 l -0.13334,-1.27573 c -0.18024,-1.72446 -1.01148,-3.221 -2.21267,-3.98364 -0.80356,-0.51017 -1.13707,-0.58962 -2.47514,-0.58962 -0.9624,0 -1.80351,0.12197 -2.22707,0.32297 -2.502729,1.18762 -3.006487,4.47748 -1.226747,8.01138 l 0.799757,1.58804 2.97672,0.058 2.97672,0.058 v 1.87429 1.8743 l -2.24559,-5e-5 -2.2456,-6e-5 v 2.3501 c 0,2.80773 -0.2647,3.45465 -2.274324,5.55824 l -1.276842,1.33653 0.902083,-0.45606 c 1.406193,-0.71094 2.537993,-0.7388 5.573583,-0.13722 4.12694,0.81787 5.53103,0.69126 6.99424,-0.63067 l 0.80236,-0.72488 1.35255,2.25325 1.35254,2.25325 -0.75966,0.67054 c -0.97765,0.86297 -2.53789,1.61668 -4.02787,1.94575 -1.88148,0.41555 -5.11513,0.16364 -7.48975,-0.58347 -1.09146,-0.3434 -2.54849,-0.68909 -3.237832,-0.76821 -1.571924,-0.1804 -3.975396,0.29142 -5.230085,1.02673 -0.496202,0.29078 -0.932449,0.52524 -0.969437,0.52101 -0.03695,-0.004 -0.676843,-0.90979 -1.421908,-2.01235 z"
         id="path889-3-6" />
      <path
         style="fill:#000000;stroke-width:0.10495139"
         d="m 99.118223,316.45167 c -12.75611,-1.01847 -23.57828,-6.40627 -31.43226,-15.64847 -0.61965,-0.72918 -1.40461,-1.71019 -1.74436,-2.18004 l -0.61773,-0.85427 -0.0533,5.17115 c -0.0477,4.62663 -0.0729,5.22053 -0.23953,5.64 -0.95264,2.39873 -3.41842,3.74778 -5.64408,3.08793 -0.86536,-0.25656 -1.34008,-0.5345 -2.01932,-1.18226 -0.7183,-0.68501 -1.0679,-1.23779 -1.34411,-2.12524 -0.18788,-0.60364 -0.19773,-1.13649 -0.19773,-10.69194 0,-9.55545 0.01,-10.08829 0.19773,-10.69193 0.27621,-0.88746 0.62581,-1.44023 1.34411,-2.12524 0.67924,-0.64777 1.15396,-0.9257 2.01932,-1.18226 0.5067,-0.15023 1.68645,-0.16901 10.61698,-0.16901 9.54595,0 10.07861,0.01 10.68223,0.19773 0.88746,0.27621 1.44023,0.62581 2.12525,1.34411 1.2212,1.28055 1.63664,2.87503 1.15353,4.42729 -0.27621,0.88745 -0.62581,1.44023 -1.34411,2.12524 -1.26221,1.20372 -1.82935,1.35126 -5.1941,1.35126 -1.43261,0 -2.60474,0.026 -2.60474,0.0578 0,0.0318 0.29029,0.44504 0.64509,0.91832 5.4363,7.25162 11.23305,11.15104 19.21117,12.92317 4.45409,0.98935 10.946507,1.05357 15.512357,0.15342 7.97354,-1.57196 14.94477,-5.3485 20.48539,-11.09758 4.49536,-4.6645 7.84651,-10.62313 9.42206,-16.75321 0.86479,-3.36469 1.1014,-5.02408 1.25229,-8.78255 l 0.0828,-2.06262 0.38021,-0.80061 c 0.45239,-0.9526 1.11023,-1.63751 2.07517,-2.16056 0.66284,-0.35929 0.6939,-0.36515 1.93528,-0.36515 1.21219,0 1.28886,0.0134 1.95693,0.3423 0.89803,0.44211 1.85664,1.44344 2.2025,2.30069 0.23293,0.57733 0.2459,0.73311 0.23861,2.86696 -0.0309,9.02867 -3.13378,18.47987 -8.56899,26.10028 -1.63721,2.29544 -3.0702,3.97762 -5.2184,6.12581 -6.80159,6.8016 -14.68442,11.01694 -24.33639,13.01387 -1.18459,0.24509 -2.11146,0.39597 -2.92516,0.47618 -0.33498,0.033 -0.98688,0.10562 -1.44867,0.16135 -1.15374,0.13922 -7.19149,0.201 -8.606007,0.0881 z m -40.21884,-42.85874 c -1.32789,-0.43173 -2.46059,-1.564 -2.86079,-2.85971 -0.16841,-0.54524 -0.21282,-0.97917 -0.21282,-2.07956 0,-4.56206 0.85093,-9.65367 2.37734,-14.2251 1.8194,-5.44887 4.4237,-10.1893 8.19179,-14.9109 1.25576,-1.57354 4.71205,-5.101 6.18993,-6.3174 6.52458,-5.37018 13.16819,-8.55922 21.3383,-10.24271 5.45017,-1.12304 12.742107,-1.14265 18.418957,-0.0495 7.29214,1.40413 13.39846,4.0661 19.01289,8.2884 3.16325,2.37891 6.67713,5.91113 8.83622,8.88234 l 0.59272,0.81568 0.0533,-5.17116 c 0.0579,-5.61339 0.0414,-5.45317 0.67384,-6.53208 0.31799,-0.54244 1.36514,-1.54228 1.9013,-1.81538 1.46432,-0.7459 3.0865,-0.70617 4.47823,0.10967 0.56628,0.33195 1.56341,1.37026 1.84387,1.92001 0.57202,1.12124 0.55372,0.68816 0.52323,12.38369 l -0.0282,10.80273 -0.28188,0.5342 c -0.4374,0.82895 -1.15471,1.37312 -2.38194,1.80703 -0.43356,0.15328 -1.59146,0.17478 -10.96916,0.20366 -9.41509,0.029 -10.54408,0.0149 -11.06921,-0.13772 -0.87492,-0.25434 -1.35541,-0.5339 -2.04038,-1.18712 -0.7183,-0.68501 -1.0679,-1.23779 -1.3441,-2.12525 -0.73171,-2.35097 0.75835,-4.99278 3.25048,-5.76298 0.6232,-0.1926 0.99365,-0.20614 5.64114,-0.20614 2.73577,0 4.97413,-0.0286 4.97413,-0.0636 0,-0.11928 -1.33831,-1.7706 -2.16985,-2.67734 -2.75764,-3.00702 -5.90224,-5.30971 -10.05698,-7.3644 -1.46885,-0.72641 -4.04811,-1.80114 -5.03767,-2.09911 -0.28862,-0.0869 -1.08292,-0.32836 -1.76511,-0.53655 -2.09771,-0.6402 -5.80839,-1.40127 -7.94289,-1.62911 -2.56098,-0.27337 -4.36461,-0.34979 -6.82184,-0.28905 -2.784097,0.0688 -4.493197,0.23804 -6.469507,0.64055 -6.3105,1.28523 -11.71909,3.79532 -16.7014,7.751 -1.71143,1.35879 -4.5124,4.15976 -5.87119,5.87119 -1.04162,1.31196 -2.76685,3.82434 -3.33518,4.85689 -1.87962,3.41492 -2.9893,6.09735 -3.78572,9.15127 -0.83569,3.20451 -1.16181,5.40128 -1.25897,8.48056 -0.0328,1.03902 -0.11021,2.12527 -0.17206,2.41388 -0.2789,1.30151 -1.1968,2.4877 -2.40555,3.10864 -0.61199,0.31438 -0.76313,0.3463 -1.77108,0.37403 -0.72559,0.0199 -1.25305,-0.0188 -1.54425,-0.11348 z"
         id="path896" />
    </g>
  </g>
</svg>
