<?xml version="1.0" encoding="UTF-8" standalone="no"?>
<!-- Created with Inkscape (http://www.inkscape.org/) -->

<svg
   xmlns:dc="http://purl.org/dc/elements/1.1/"
   xmlns:cc="http://creativecommons.org/ns#"
   xmlns:rdf="http://www.w3.org/1999/02/22-rdf-syntax-ns#"
   xmlns:svg="http://www.w3.org/2000/svg"
   xmlns="http://www.w3.org/2000/svg"
   xmlns:sodipodi="http://sodipodi.sourceforge.net/DTD/sodipodi-0.dtd"
   xmlns:inkscape="http://www.inkscape.org/namespaces/inkscape"
   width="224.18051mm"
   height="109.65491mm"
   viewBox="0 0 224.18051 109.65491"
   version="1.1"
   id="svg8"
   inkscape:version="0.92.5 (2060ec1f9f, 2020-04-08)"
   sodipodi:docname="return-on-investment.svg">
  <defs
     id="defs2" />
  <sodipodi:namedview
     id="base"
     pagecolor="#ffffff"
     bordercolor="#666666"
     borderopacity="1.0"
     inkscape:pageopacity="0.0"
     inkscape:pageshadow="2"
     inkscape:zoom="0.70710678"
     inkscape:cx="429.58536"
     inkscape:cy="278.31872"
     inkscape:document-units="mm"
     inkscape:current-layer="layer1"
     showgrid="false"
     showguides="true"
     inkscape:guide-bbox="true"
     inkscape:window-width="2800"
     inkscape:window-height="1672"
     inkscape:window-x="80"
     inkscape:window-y="54"
     inkscape:window-maximized="1">
    <sodipodi:guide
       position="39.518714,142.13746"
       orientation="1,0"
       id="guide848"
       inkscape:locked="false" />
    <sodipodi:guide
       position="103.1132,134.67243"
       orientation="0,1"
       id="guide850"
       inkscape:locked="false" />
  </sodipodi:namedview>
  <metadata
     id="metadata5">
    <rdf:RDF>
      <cc:Work
         rdf:about="">
        <dc:format>image/svg+xml</dc:format>
        <dc:type
           rdf:resource="http://purl.org/dc/dcmitype/StillImage" />
        <dc:title></dc:title>
      </cc:Work>
    </rdf:RDF>
  </metadata>
  <g
     inkscape:label="Layer 1"
     inkscape:groupmode="layer"
     id="layer1"
     transform="translate(-44.580986,-106.09861)">
    <path
       style="fill:#000000;stroke-width:0.26458335"
       d="m 94.807492,215.61368 c -13.475308,-0.94233 -25.209928,-6.56711 -33.678129,-16.143 -2.026981,-2.29212 -4.715121,-5.99581 -5.583029,-7.69223 -0.241961,-0.47294 -0.569962,-0.8599 -0.72889,-0.8599 -0.158927,0 -2.497889,1.19017 -5.197694,2.64482 -2.699803,1.45465 -4.965311,2.58824 -5.03446,2.51909 -0.165111,-0.16511 4.474252,-33.01778 4.699074,-33.2755 0.133945,-0.15355 25.689412,11.76774 29.87953,13.9384 l 0.892861,0.46254 -4.588465,2.46402 c -2.523657,1.35521 -4.626489,2.57808 -4.672957,2.71749 -0.173212,0.51963 2.748817,4.5009 4.815538,6.56117 6.354924,6.33509 15.081888,9.53741 23.987792,8.80219 2.841967,-0.23461 5.365977,-0.76236 7.544737,-1.57754 0.80241,-0.30022 1.51196,-0.49284 1.57676,-0.42804 0.0869,0.087 3.28525,17.20397 3.28525,17.58236 0,0.13586 -2.89636,0.88829 -5.34895,1.38958 -2.44881,0.50052 -8.502796,1.12239 -9.969161,1.02403 -0.37905,-0.0254 -1.224963,-0.0837 -1.879807,-0.12948 z m 26.070458,-8.34516 c -0.17312,-0.75427 -5.69754,-32.60102 -5.69754,-32.8447 0,-0.0972 2.14187,0.89538 4.75971,2.20584 2.61785,1.31045 4.80584,2.38264 4.86221,2.38264 0.20845,0 1.22223,-2.62485 1.84859,-4.78629 2.94577,-10.16523 0.18587,-21.49564 -7.0684,-29.0184 -1.11879,-1.1602 -1.75578,-2.01529 -1.60659,-2.1567 0.13595,-0.12886 3.34281,-2.57743 7.12635,-5.44125 l 6.87917,-5.20694 1.6749,1.80739 c 4.88093,5.26703 9.28226,14.09308 10.88193,21.82166 1.97922,9.56236 1.02548,19.85097 -2.6244,28.31105 -0.5872,1.36108 -1.06792,2.5366 -1.06826,2.61227 -2.7e-4,0.0757 2.37474,1.32052 5.27797,2.76633 l 5.2786,2.62875 -4.02183,2.07641 c -2.21201,1.14203 -9.0486,4.63529 -15.19243,7.76281 -10.63165,5.41204 -11.17733,5.65709 -11.30998,5.07913 z m 107.941,-2.87965 c -8.51829,-0.69712 -16.8241,-4.49713 -22.77267,-10.41877 -1.79389,-1.78576 -3.59294,-4.02063 -5.81102,-7.21873 l -0.41289,-0.59532 h -8.34848 -8.34848 l -0.88399,-0.88399 c -0.48619,-0.48619 -0.96364,-1.20135 -1.06099,-1.58924 -0.4492,-1.78971 0.65816,-3.62664 2.49357,-4.13646 0.55809,-0.15502 4.66778,-0.26471 9.82307,-0.26219 10.52253,0.005 10.46513,-0.007 11.90178,2.53996 6.33667,11.23439 18.88692,17.34318 31.44618,15.30632 3.05694,-0.49577 4.97913,-1.12669 8.37808,-2.74993 11.10308,-5.3025 18.01111,-17.4017 16.82707,-29.47205 -1.29951,-13.24742 -10.00798,-23.53125 -22.83703,-26.96827 l -2.19212,-0.58729 -47.23984,-0.13853 c -44.95481,-0.13184 -47.27509,-0.16163 -47.96836,-0.61593 -1.65604,-1.08521 -2.18771,-3.05384 -1.24313,-4.60299 1.09679,-1.7988 -2.74111,-1.6666 48.35017,-1.66543 40.20814,0.001 46.57739,0.0539 48.76262,0.4053 7.00725,1.12695 12.69992,3.79528 18.6072,8.72176 1.55292,1.29508 5.00088,5.25676 6.44769,7.40833 2.46719,3.669 4.57701,8.91893 5.54552,13.79908 0.63997,3.22469 0.63763,11.03012 -0.004,13.84234 -1.94583,8.52639 -5.92311,15.30124 -12.26115,20.88546 -7.28519,6.41872 -17.48254,9.79172 -27.19865,8.99657 z m -144.061645,-16.02891 -1.71581,-2.5391 0.92206,-0.68082 c 4.380958,-3.23472 6.342999,-7.53992 5.08367,-11.15482 l -0.506952,-1.45521 -2.951808,-0.0748 -2.951806,-0.0748 v -2.37259 -2.37258 h 1.874131 c 1.030774,0 1.829427,-0.0893 1.774785,-0.19844 -1.765233,-3.52587 -2.091301,-4.37755 -2.281809,-5.96 -0.764457,-6.34991 2.69085,-11.01737 9.48081,-12.80674 2.151284,-0.56693 7.201464,-0.63008 9.260414,-0.1158 5.75377,1.43717 8.95152,5.461 9.64424,12.13566 l 0.17162,1.65365 h -3.94419 -3.9442 l -0.16889,-1.61583 c -0.22829,-2.18421 -1.28113,-4.07972 -2.80256,-5.04568 -1.01779,-0.64619 -1.44021,-0.74682 -3.135019,-0.74682 -1.218972,0 -2.284317,0.15449 -2.82081,0.40908 -3.169957,1.50424 -3.808021,5.67117 -1.553803,10.14721 l 1.012989,2.01142 3.770313,0.0734 3.77031,0.0734 v 2.37398 2.37399 l -2.844269,-7e-5 -2.84427,-7e-5 v 2.97663 c 0,3.55627 -0.33528,4.37566 -2.88067,7.04007 l -1.617247,1.69286 1.142574,-0.57765 c 1.781093,-0.90048 3.214635,-0.93577 7.059512,-0.1738 5.22718,1.03591 7.0056,0.87555 8.85891,-0.79881 l 1.01626,-0.91813 1.71314,2.85396 1.71313,2.85397 -0.96218,0.84931 c -1.2383,1.09304 -3.2145,2.04769 -5.1017,2.46449 -2.38309,0.52633 -6.47883,0.20726 -9.486521,-0.73903 -1.382448,-0.43495 -3.227917,-0.8728 -4.101042,-0.97301 -1.991008,-0.2285 -5.035248,0.36911 -6.624441,1.30045 -0.628486,0.36831 -1.181034,0.66528 -1.227881,0.65992 -0.04685,-0.005 -0.857293,-1.15234 -1.80099,-2.54885 z m 154.644975,-7.6419 c -1.10147,-0.56569 -10.36093,-9.84501 -10.84785,-10.87113 -0.6143,-1.29453 -0.58916,-23.29021 0.0281,-24.59099 0.85338,-1.79836 3.35095,-2.57505 5.05106,-1.57078 1.45911,0.86193 1.43759,0.67922 1.41362,12.00031 l -0.0222,10.49454 4.38941,4.36562 c 2.41418,2.4011 4.55993,4.68714 4.76834,5.08009 0.5535,1.04366 0.474,2.77339 -0.17579,3.82479 -0.98349,1.5913 -2.93061,2.1273 -4.60467,1.26755 z M 170.4155,169.60637 c -0.96287,-0.52787 -1.52468,-1.68059 -1.52468,-3.12834 0,-1.4639 0.91308,-2.6709 2.33461,-3.08613 0.64818,-0.18933 4.91638,-0.25713 12.79368,-0.20321 11.49326,0.0787 11.84169,0.0962 12.5677,0.63151 1.85413,1.36716 2.11398,3.54573 0.62211,5.21578 l -0.7577,0.8482 -12.65572,0.0596 c -10.83261,0.051 -12.76005,0.002 -13.38,-0.33744 z M 58.824159,156.52706 c -4.621686,-2.16127 -7.838188,-3.81389 -7.886067,-4.0518 -0.132982,-0.66078 1.211246,-4.35464 2.722721,-7.48188 7.500562,-15.51864 23.125975,-25.99904 40.281918,-27.01819 l 2.707113,-0.16082 0.07101,-5.85788 0.07101,-5.85788 13.483316,9.93236 c 7.41582,5.46281 13.48331,10.05143 13.48331,10.19695 0,0.14553 -6.06749,4.73417 -13.48331,10.19699 l -13.483316,9.93241 -0.07151,-5.36834 -0.07151,-5.36835 h -1.150599 c -0.632828,0 -2.168813,0.17756 -3.413297,0.39458 -11.472741,2.00068 -20.621985,9.97352 -24.107777,21.00801 -0.377487,1.19495 -0.68634,2.40462 -0.68634,2.68815 0,0.28353 -0.148828,0.50431 -0.330729,0.49061 -0.181901,-0.0137 -3.843073,-1.66742 -8.135938,-3.67492 z m 96.916491,-3.43322 c -1.64326,-1.00195 -2.20991,-3.48183 -1.11396,-4.8751 1.2233,-1.55518 0.0834,-1.48561 24.34008,-1.48561 21.86932,0 22.28869,0.01 23.13601,0.53334 1.67495,1.03518 2.12667,3.21269 1.0176,4.90535 -0.9684,1.47797 -0.33521,1.44056 -24.36533,1.43949 -21.5192,-0.001 -22.19212,-0.0161 -23.0144,-0.51747 z"
       id="path889"
       inkscape:connector-curvature="0" />
  </g>
</svg>
