<svg xmlns="http://www.w3.org/2000/svg" xmlns:xlink="http://www.w3.org/1999/xlink" width="2423.714" height="148" viewBox="0 0 641.274 39.158"><defs><path id="c" d="M12.93.06c1.929 5.643 2.715 10.177 2.715 13.76 0 10.245-6.428 12.706-10.963 11.01-.26 1.97-.208 4.193.325 6.726l-1.46.079c-.282-2.75-.124-5.121.28-7.19a6.654 6.654 0 01-1.748-1.273C.576 21.674 0 19.837 0 18.487.17 9.133 12.164 9.793 12.93.06z"/><path d="M122.1 7.3s-4.9 1.7-7.6 4c-1.7 1.4-2.9 3.3-3.3 5.4 1.9-1 3.8-1.7 3.8-1.7l17.8-5.8s.7 13.5-7.3 19.4c2.3-.5 5-1.4 8-3.2C145.3 18.8 144.3 0 144.3 0l-22.2 7.3z" id="a"/><path d="M109 18.1c-1.8 1.5-2.8 3.7-2.8 6.1 0 4.5 4 8.1 8.9 8.1 2.4.1 5.4-.7 9.2-2.8.5-.3.9-.6 1.4-.9-1.2.2-2.4.3-3.4.3-6.1 0-11.1-4.5-11.1-10.1 0-.7.1-1.5.2-2.2-1 .5-1.8 1-2.4 1.5" id="b"/><clipPath id="d"><use height="100%" width="100%" xlink:href="#a"/></clipPath><clipPath id="e"><use height="100%" width="100%" xlink:href="#b"/></clipPath></defs><g transform="translate(471.778 6.19) scale(.84128)" fill="#757575" fill-rule="evenodd"><path d="M134.226 13.626c0-1.703-1.36-3.742-3.943-3.742h-5.536V22.35h2.564V11.58h2.02c1.943 0 2.235 1.47 2.235 2.16 0 1.152-.43 2.119-2.182 2.119-.894 0-1.248.176-1.288.686-.037.478.532.745 1.11.856 2.55.486 5.02-1.042 5.02-3.775zm52.979 2.974c.941-.284 2.576-1.097 2.576-3.282 0-1.706-1.344-3.434-3.928-3.434h-5.537V22.35h2.56V11.58h2.022c1.938 0 2.225 1.16 2.225 1.85 0 1.15-.82 1.873-2.151 1.873-.86 0-1.356.334-1.356.906 0 .322.207.733 1.155.881 1.176.184 1.646 1.334 2.25 2.783 0 0 .513 1.224.692 1.62.18.394.34.856 1.225.856h2.002l-.887-1.9c-.877-1.956-1.578-3.115-2.848-3.85m-15.405.164h5.99v-1.696h-5.99V11.58h6.297V9.89h-8.86v12.46h8.989v-1.694h-6.427zM141.728 9.71c-4.61 0-6.667 3.224-6.667 6.405 0 3.195 2.058 6.41 6.667 6.41 4.559 0 6.635-3.319 6.635-6.41 0-3.18-2.046-6.404-6.635-6.404m0 10.793c-2.555 0-4.01-1.601-4.01-4.389 0-2.784 1.455-4.381 4.01-4.381 2.534 0 3.98 1.597 3.98 4.381 0 2.788-1.446 4.389-3.98 4.389m24.86-10.614c-.863 0-.964.455-1.092.854l-2.815 9.109-2.81-9.964h-2.33c-.833 0-.96.429-1.08.815l-2.694 9.203L151.1 9.889h-2.833l3.65 12.482h3.29l2.894-9.834 2.77 9.834h3.25l3.793-12.482h-1.326zM41.618 21.446l.103-1.807c1.21.551 2.688.875 3.466.85.725-.022 2.696.033 2.598-1.67-.122-2.16-6.142-1.742-6.142-5.625 0-2.691 2.815-3.63 5.087-3.63.857 0 2.089.226 2.89.477l-.052.856c0 .485-.452.778-.922.682a8.43 8.43 0 00-1.896-.162c-.74.028-2.507.14-2.42 1.46.129 1.924 6.243 1.616 6.243 5.922 0 2.609-2.56 3.577-5.284 3.577-.975 0-2.535-.328-3.671-.93m16.581-10.011c.85-.026 1.415.026 1.883.123.55.11.94-.17.963-.667l.05-.85a10.594 10.594 0 00-3.051-.479c-4.606 0-6.665 3.225-6.665 6.404 0 3.18 2.059 6.406 6.665 6.406a10.57 10.57 0 003.051-.478l-.104-1.774c-.726.243-1.344.424-2.792.38-2.547-.08-4.163-1.749-4.163-4.534 0-2.785 1.616-4.454 4.163-4.531m9.863-1.872c-4.605 0-6.665 3.224-6.665 6.403 0 3.196 2.06 6.411 6.665 6.411 4.561 0 6.637-3.32 6.637-6.41 0-3.18-2.046-6.404-6.637-6.404m0 10.792c-2.554 0-4.009-1.601-4.009-4.389 0-2.785 1.455-4.38 4.01-4.38 2.53 0 3.98 1.595 3.98 4.38 0 2.788-1.45 4.389-3.98 4.389m27.329 1.989h2.562V9.884h-2.562zM83.753 9.884h-9.22v1.696h3.432v10.764h2.564V11.58h3.224zm10.123 0h-9.222v1.696h3.433v10.764h2.562V11.58h3.227zm25.477 0v5.17h-5.905v-5.17h-2.564v12.46h2.564v-5.596h5.905v5.596h2.561V9.884zm-19.158 11.562l.102-1.807c1.207.551 2.685.875 3.465.85.726-.022 2.697.033 2.6-1.67-.127-2.16-6.142-1.742-6.142-5.625 0-2.691 2.813-3.63 5.084-3.63.858 0 2.089.226 2.89.477l-.049.856c0 .485-.454.778-.923.682a8.463 8.463 0 00-1.896-.162c-.74.028-2.51.14-2.422 1.46.132 1.924 6.242 1.616 6.242 5.922 0 2.609-2.558 3.577-5.281 3.577-.975 0-2.538-.328-3.67-.93"/><use transform="translate(0 .068)" xlink:href="#c" width="100%" height="100%"/><path d="M3.243 13.308c.424 1.814 1.39 4.241 2.334 5.885.755-1.568 1.64-2.97 2.535-4.336-1.001-1.509-1.258-3.988-1.24-4.474.28.85.775 2.326 1.692 3.791.854-1.285 1.685-2.548 2.379-3.904-.444-.927-.745-2.373-.712-2.84.19.636.71 1.471 1.131 1.986.914-1.83 1.385-3.341 1.585-4.307.231-1.506.253-3.146-.016-4.98C12.165 9.861.17 9.201 0 18.468c-.025 1.358.543 3.241 2.077 4.771.5.511 1.092.937 1.75 1.273a21.5 21.5 0 011.38-4.482c-.988-1.564-2.024-4.609-1.965-6.722zM9.357 18.469c-.021 1.358.549 3.241 2.076 4.77 5.212 5.223 19.488 2.172 10.856-23.11-.76 9.732-12.765 9.072-12.932 18.34z"/><path d="M11.433 23.24c.182.182.372.35.577.513 2.634-2.147 4.382-6.561 3.316-14.087-3.021 2.15-5.887 4.305-5.97 8.803-.02 1.358.55 3.241 2.077 4.771zM31.749.128c-.76 9.734-12.762 9.074-12.92 18.342-.028 1.358.54 3.241 2.072 4.77 5.206 5.223 19.484 2.172 10.848-23.11"/><path d="M18.829 18.469c-.028 1.358.54 3.241 2.071 4.771.162.166.335.326.518.47 2.602-2.156 4.317-6.543 3.276-13.974-2.987 2.129-5.794 4.281-5.865 8.733"/></g><g fill="#757575"><path d="M282.545 25.294c-.252.266-.938.364-1.13.67-.294.46-.97 1.507-1.496 2.007-1.701 1.615-5.343 2.427-7.14.884-.117.008-.049.077.093.518.13.835.803 2.796.555 3.296.162.557.33.353.636.663.208.208.293.754.533.902.274-.019.547-.04.82-.058.05.152.102.305.15.46l1.055-.076c.197.046.794.353.97.401l1.17-.08c.893.238 1.674-.136 2.428-.646.42-.281.88-.236 1.253-.555.541-.465 1.278-1.371 1.624-2 .845-1.536.558-5.218-.209-6.128-.3-.328-.654-.334-1.312-.258m7.075-1.009c-.635.486-.9.366-1.272 1.115-.039 0 .056.112.019.112.377.756 1.244 1.059 1.881 1.59.197.167.736 1.1.99 1.167.288.342.475 1.29.663 1.29.194.265-.017.892.174 1.136.012 1.122-.143 1.2-.339 1.416 0 .078.107.282.107.358.053.053.504.376.7.337.611.017 3.115 1.972 3.314 2.348 1.796.135 1.665-.414 2.904-.939.335-.144.602-.008.821-.236.23-.235.249-.699.47-.94.03-4.417-5.98-8.601-10.432-8.754m4.878-9.334c-2.225.334-3.586 1.045-4.427 1.627-.588.41-.759.683-.883.856-.13.173-.215.554-.153.956.066.398.229.823.576 1.06 2.732-.201 7.477-.374 8.4 1.921.049.32.122.514.128.59.905-.224.243-.145 1.577.063.305.048 1.058-.121 1.557-.244.227-.053.356-.258.356-.258s-.044-.219-.031-.339c0 0 .468.036.659-.112 1.264-.203.6-.797 1.196-1.468-.358-4.291-4.762-5.288-8.955-4.652m-16.944 7.824c.49-.126 1.323-.191 1.76-.408.696-.349 3.088-2.02 2.326-3.383-.233-2.869-3.696-.444-5.172-1.45-1.49-.193-3.167-3.014-3.616-4.223-.174-.478-.103-.315-.342-.693.001-.038-.153.131-.151.092-.436.507-.361.952-.43 2.19-.195-.013-.39-.024-.586-.038-.037.45-.082.694-.292.925-.042.077-.087.15-.13.227-.372-.124-.186.052-.337-.26-1.372.07-1.272 1.452-1.903 2.235.028 2.578 5.128 5.757 8.873 4.786m9.936-14.013c.118-.973-.027-2.396.741-3.066.226-1.039 1.862-.796 1.607-1.458-.159-.414-.927-.217-1.238-.14-.236.056-2.479.765-3.34.86-.366-.1-.73-.201-1.095-.304-1.409.19-2.22 1.31-3.002 2.199-.656.745-1.546 2.572-.838 3.665l-.119.717 1.599 2.335c.552.397.625.69 1.219 1.081.123.183.244.367.367.552.485.319 1.919.323 2.158.115 2.306.215 2.056-4.452 2.787-5.433-.092-.44-.48-.897-.846-1.123" fill-rule="evenodd"/><path d="M324.58 26.055c2.041 0 3.702-.675 3.702-4.281 0-3.068-1.66-4.088-3.703-4.088h-1.07v8.369zm1.082-10.8c3.696 0 6.198 2.336 6.198 6.519 0 5.256-3.435 6.812-7.036 6.812h-4.82c.018-.292 0-1.07 0-2.044v-9.245c0-.973.018-1.595 0-2.043M337.1 26.541c0 .975.048 2.045.048 2.045h-3.575s.024-1.07.024-2.045v-9.245c0-.974-.024-2.042-.024-2.042h8.452v2.58s-1.89-.048-2.53-.048H337.1v2.685l2.394.025c.448 0 1.99-.025 1.99-.025v2.457s-1.367-.038-1.99-.038l-2.394.014M309.895 20.292c.053-.771.328-2.563 2.276-2.563 1.997 0 2.106 1.683 2.106 2.574v.179s-1.335.037-2.13.037c-.797 0-2.265-.037-2.265-.037zm2.974 5.6c-1.68 0-2.974-1.132-2.974-2.9v-.151s3.123-.076 4.183-.076c1.8 0 2.543-.018 3.963-.036v-1.006c0-4.542-1.926-6.753-5.895-6.753-1.828 0-6.08.687-6.08 7.048 0 4.245 2.141 6.781 5.888 6.781 2.94 0 4.745-.751 6.053-1.706-.148-.22-1.242-2.189-1.386-2.403-.785.598-2.08 1.201-3.752 1.201"/></g><g fill="#757575"><path d="M367.011 3.766v15.183h79.782V3.766H367.01zm12.091 3.665h2.093c2.296 0 3.15.55 3.15 2.027v.383H383.166l-.003-.132c-.017-1.007-.021-1.217-2.554-1.217h-1.031c-1.919 0-2.406.112-2.406 1.145 0 .73.142 1.008 1.652 1.008h2.876c1.952 0 2.822.585 2.822 1.899v.466c0 2.028-1.89 2.028-3.02 2.028h-2.698c-1.386 0-2.802-.231-2.802-1.949v-.659H377.183v.639c0 .575.238.907 1.453.907h3.015c1.437 0 1.692-.313 1.692-1.194 0-.76-.198-.997-1.434-.997h-1.844c-2.956 0-4.072-.19-4.072-2.217 0-1.788 1.14-2.137 3.11-2.137zm28.865.079h7.319V8.57H409.207v2.023h5.842v1.062h-5.842v2.24h6.12V14.96H407.967V7.51zm9.69 0h5.876c2.142 0 2.534.73 2.534 2.167v.585c0 .886-.435 1.242-.91 1.392.564.233.821.66.821 1.335v1.97h-1.181v-1.711c0-.969-.38-1.126-1.294-1.126h-4.607V14.96H417.656V7.51zm10.891 0H430.184l.038.037 6.35 6.09V7.51H437.812v7.448h-1.636l-.039-.036-6.35-6.092V14.96H428.548V7.51zM387 7.51h7.321v1.061H388.24v2.023h5.843v1.062h-5.843v2.24h6.12V14.96H387V7.51zm9.249 0H397.647l.038.07 3.363 6.095 3.365-6.096.038-.069H405.849l-.11.2-3.978 7.18-.038.069h-1.349l-.038-.07-3.977-7.18-.11-.199zm22.647 1.061v2.49h4.528c1.168 0 1.403-.348 1.403-.908V9.5c0-.631-.162-.928-1.641-.928h-4.29zM367.011 20.4v15.184h79.782V20.4H367.01zm14.354 3.745h8.501v1.061h-3.631v6.387H384.996v-6.387H381.365v-1.061zm31.27 0H414.27l.04.037 6.349 6.092V24.145H421.898V31.594h-1.635l-.04-.038-6.349-6.09v6.128H412.635V24.145zm11.432 0H432.568v1.061h-3.63v6.387h-1.24v-6.387h-3.631v-1.061zm-32.041 0h5.876c2.143 0 2.534.73 2.534 2.167v.586c0 .885-.434 1.241-.91 1.392.563.232.82.658.82 1.335V31.594H399.168V29.883c0-.97-.383-1.127-1.295-1.127h-4.606v2.838H392.026V24.145zm10.919 0h7.32v1.061h-6.08v2.023H410.027v1.062H404.185v2.241h6.119v1.061h-7.359v-7.448zm-9.68 1.061v2.49h4.528c1.168 0 1.404-.347 1.404-.907v-.656c0-.63-.163-.927-1.642-.927h-4.29z"/></g><path d="M211.834 19.579c0-9.2 7.458-16.656 16.658-16.656 9.199 0 16.655 7.457 16.655 16.656 0 9.198-7.456 16.657-16.655 16.657-9.2 0-16.658-7.46-16.658-16.657zM231.67 4.71h-.001a.321.321 0 00-.386.31c0 .14.093.259.22.302v.002c5.27 1.585 10.71 6.242 10.71 13.94 0 2.483-.695 5.332-1.91 7.254-.996 1.58-2.817 3.478-5.815 3.555l-.088.001c-.992 0-2.049-.367-2.982-.692l-.008-.002c-.967-.339-1.967-.688-2.92-.688-.95 0-1.946.348-2.913.686l-.006.002-.005.002c-.934.324-1.993.692-2.982.692l-.09-.001c-2.999-.077-4.817-1.976-5.816-3.555-1.215-1.922-1.91-4.77-1.91-7.253 0-7.699 5.442-12.356 10.712-13.941v-.002a.322.322 0 00.219-.302.321.321 0 00-.387-.31c-6.996 1.522-12.006 7.862-11.915 15.074.061 4.77 1.695 7.615 3.055 9.161 1.638 1.864 3.824 2.932 6 2.932h.028c1.406-.007 2.604-.37 3.662-.689l.008-.002.019-.006c.863-.26 1.608-.483 2.322-.483.713 0 1.458.223 2.321.483l.02.006.005.001c1.059.32 2.257.683 3.664.69h.027c2.176 0 4.364-1.068 6.002-2.932 1.36-1.546 2.993-4.392 3.054-9.161.091-7.212-4.919-13.552-11.914-15.074zm-6.454 23.215a7.642 7.642 0 01-2.838.575c-2.014 0-3.665-.9-4.913-2.678a.322.322 0 01.266-.506c.073 0 .141.024.195.064 1.218.898 2.46 1.499 3.774 1.499.918 0 1.875-.206 2.922-.628 1.437-.578 2.674-.847 3.892-.847 1.216 0 2.454.27 3.891.847 1.048.422 2.004.628 2.924.628 1.314 0 2.559-.6 3.772-1.499a.327.327 0 01.52.26.35.35 0 01-.056.182c-1.25 1.777-2.9 2.678-4.916 2.678a7.649 7.649 0 01-2.837-.575c-1.222-.503-2.302-.746-3.298-.746-.999 0-2.075.243-3.298.746zm9.4 5.003h-.044a4.29 4.29 0 01-.627.055l-.173.003h-.11c-1.182 0-1.697 0-2.461-.229l-.515-.152-.01-.002c-.617-.18-1.38-.401-2.188-.401-.81 0-1.578.223-2.194.403h-.002l-.515.152c-.768.229-1.282.229-2.463.229h-.11l-.171-.003a4.324 4.324 0 01-.63-.055h-.041c-.169 0-.308.127-.308.288 0 .116.068.214.172.258 1.851.762 4.216 1.252 6.262 1.253 2.045-.001 4.408-.49 6.262-1.253a.277.277 0 00.171-.258.296.296 0 00-.305-.288zM217.11 13.21h2.791c.241 0 .44.198.44.438 0 .242-.199.441-.44.441h-.917v3.02c0 .267-.21.478-.478.478a.473.473 0 01-.477-.478v-3.02h-.919a.44.44 0 010-.88zm4.118-.053a.47.47 0 00-.47.471v3.488a.47.47 0 10.94 0v-1.42c0-.447.23-.676.591-.676.36 0 .569.23.569.675v1.421a.471.471 0 00.944 0V15.4c0-.764-.414-1.234-1.128-1.234-.477 0-.756.252-.975.532v-1.069a.47.47 0 00-.47-.47zm8.152 3.96a.473.473 0 01-.945 0v-2.456a.473.473 0 01.945 0v.036c.218-.28.503-.532.979-.532.434 0 .764.192.939.526.289-.34.636-.526 1.09-.526.699 0 1.12.421 1.12 1.22v1.731a.47.47 0 11-.942 0v-1.42c0-.447-.197-.676-.55-.676-.355 0-.571.23-.571.675v1.421a.47.47 0 11-.943 0v-1.42c0-.447-.198-.676-.552-.676-.352 0-.57.23-.57.675zm-9.89 1.771c0 .056.019.125.039.18l1.213 3.411c.088.243.268.39.497.39h.1c.23 0 .404-.143.488-.39l.857-2.485.855 2.485c.088.247.26.39.49.39h.1c.23 0 .41-.147.497-.39l1.213-3.411a.599.599 0 00.039-.186.46.46 0 00-.472-.458.48.48 0 00-.459.34l-.861 2.662-.869-2.637c-.074-.229-.241-.38-.482-.38h-.075c-.242 0-.411.157-.484.38l-.867 2.637-.864-2.661a.482.482 0 00-.465-.341c-.266 0-.49.198-.49.464zm10.643.173c0-.26.21-.47.471-.47.26 0 .444.21.444.47v.415h.444c.223 0 .402.158.402.38 0 .223-.18.386-.402.386h-.444v1.517c0 .217.095.322.305.322.03 0 .1-.005.142-.01.244-.034.385.094.394.325a.38.38 0 01-.249.369c-.174.07-.336.093-.539.093-.577 0-.968-.23-.968-.999v-1.617h-.09c-.22 0-.403-.163-.403-.385 0-.223.182-.38.403-.38h.09zm6.498 1v-.15a.47.47 0 00-.942 0v2.457a.471.471 0 10.942 0v-.882c0-.667.268-1.034.743-1.147a.439.439 0 00.36-.44c0-.268-.173-.459-.464-.459-.28 0-.524.3-.64.621zm-8.258 1.044a.869.869 0 00-.87-.91c-.498 0-.86.363-.86.914 0 .46.327.922.86.922.578 0 .87-.42.87-.926zm-.013 1.266c-.22.315-.657.48-.987.48-1.025 0-1.664-.79-1.664-1.73 0-.886.593-1.737 1.631-1.737.446 0 .83.191 1.02.466.035-.308.259-.44.463-.44.314 0 .483.218.483.48v2.465a.47.47 0 01-.48.471c-.223 0-.44-.149-.466-.455zm-2.305-7.409c.406 0 .87.302.87.91 0 .506-.293.926-.87.926-.534 0-.861-.463-.861-.922 0-.55.362-.914.86-.914zm-.132 2.657c.33 0 .768-.166.988-.481.026.306.243.455.466.455a.47.47 0 00.48-.471v-2.466c0-.26-.169-.48-.483-.48-.204 0-.428.132-.463.441-.19-.275-.574-.466-1.02-.466-1.038 0-1.631.85-1.631 1.737 0 .94.639 1.73 1.663 1.73zm7.72 2.555c-.327 0-.625.219-.715.67h1.41c-.072-.45-.354-.67-.695-.67zm-.013-.754c1.062 0 1.573.81 1.613 1.505.02.351-.147.558-.523.558h-1.783c.11.451.443.64.804.64.284 0 .474-.08.675-.225.215-.154.45-.098.554.05.116.164.083.384-.088.531-.286.247-.67.398-1.156.398-1.051 0-1.732-.745-1.732-1.733 0-1.035.77-1.724 1.636-1.724zm1.275-3.832c.09-.452.39-.67.715-.67.341 0 .623.22.695.67zm2.315.081c-.04-.695-.55-1.506-1.613-1.506-.865 0-1.636.689-1.636 1.725 0 .987.681 1.733 1.733 1.733.485 0 .87-.151 1.156-.398.17-.148.204-.368.088-.532-.105-.147-.34-.203-.554-.05a1.065 1.065 0 01-.675.226c-.361 0-.694-.19-.804-.64h1.783c.376 0 .542-.207.522-.558zm2.428-.558a1.78 1.78 0 00-.734-.213c-.302-.008-.43.107-.432.24-.002.147.131.205.27.25.061.02.179.05.31.086.158.042.337.09.461.13.531.168.76.459.76.935 0 .63-.489 1.066-1.357 1.066-.44 0-.88-.141-1.14-.301a.38.38 0 01-.129-.499c.107-.207.356-.222.51-.146.222.112.483.205.751.217.293.013.516-.077.524-.261.007-.167-.161-.233-.35-.28a9.983 9.983 0 00-.172-.039 7.957 7.957 0 01-.603-.147c-.4-.145-.68-.408-.68-.93 0-.575.497-1.047 1.255-1.047.527 0 .885.118 1.125.29a.394.394 0 01.118.539c-.11.188-.341.188-.487.11z" clip-rule="evenodd" fill-rule="evenodd" fill="#757575"/><path d="M185.76 26.553a84.335 84.335 0 01-.992 2.889c-.329.875-.955 1-1.77 1-1.466 0-2.58-.359-3.123-.797a.52.52 0 01-.153-.571c.168-.517.488-1.445.848-2.521m-9.806 0c-1.335 1.427-2.358 2.622-2.8 3.123-.474.54-1.168.651-1.985.651-1 0-2.075-.542-2.174-.594-.321-.167-.329-.353-.237-.741l.266-1.104c.077-.318.206-.777.374-1.334h6.556zm-10.371 0c-2.717 3.919-6.158 3.888-9.982 3.888-2.083 0-6.715.023-6.777-3.888zm-38.529 0c.664.399 1.458.653 2.35.653a5.2 5.2 0 002.519-.653h9.379c-.39 1.77-5.808 4.37-10.386 4.37-4.793 0-9.264-1.77-11.69-4.373h7.829zm21.321-6.663c0 .54-.61 2.021-.702 2.24-.557 1.391-2.006 1.616-3.037 1.616-1.534 0-2.06-.56-2.06-1.446 0-.684.565-1.867.641-2.041.694-1.61 1.93-1.787 3.152-1.787 1.037 0 2.006.439 2.006 1.418m-13.14-3.402c0-1.025-.046-2.496-.832-2.496-2.572 0-7.082 3.994-7.532 4.453-.336.34-.091.313.359.313h5.777c2.045 0 2.228-.352 2.228-2.27zm25.137.37c-.535 0-1.336.084-1.702.593-1.358 1.914-2.259 6.698-2.259 8.026 0 .908.626.851 1.45.851.489 0 1.267.013 1.702-.453 1.199-1.266 2.229-6.994 2.229-8.027 0-.737-.054-.99-1.42-.99zm9.027 9.695c.893-2.965 2.923-8.79 4.395-12.191.077-.172.145-.315.527-.374.175-.028.756-.165 1.564-.165.595 0 1.748.044 2.32.358 0 0 .008-.01.008.974 0 .427.046 1.873 1.382 1.873 2.266 0 6.363-3.942 9.988-3.942 3.19 0 3.907 1.998 3.907 3.545 0 1.812-1.48 6.692-2.541 9.923h-5.188c.801-2.42 1.801-5.587 1.801-6.488 0-.716-.206-1.25-.908-1.25-2.953 0-7.639 4.47-10.7 7.74l-6.555-.004zm-20.573 0v-.083c0-1.787 1.534-5.061 2.785-8.168.542-1.32 2.816-5.756 10.577-5.756 3.205 0 7.174.51 7.174 4.055 0 2.184-2.121 6.979-2.808 8.31a14.45 14.45 0 01-.97 1.641h-16.758zm-16.904 0a5.512 5.512 0 001.39-1.065s2.518-.292 4.128-.292c1.572 0 3.876.253 3.876 1.163 0 .062-.008.128-.015.191h-9.379zm-12.697 0c-1.199-1.283-1.9-2.765-1.9-4.336 0-7.975 15.14-13.982 19.558-13.982 3.976 0 4.517 6.438 4.517 8.792 0 5.027-3.037 6.068-6.418 6.068h-2.365c-2.374 0-7.143-.141-7.143-.141-.382-.008-.672-.085-.672.141 0 1.113.84 2.612 2.252 3.458z" fill="#757575"/><g fill="#757575"><path clip-path="url(#d)" d="M117.3 41.6l-17-36.5L139.2-13l17 36.5z" transform="matrix(.54237 0 0 .54237 10.325 4.393)"/><path clip-path="url(#e)" d="M111 8.2l21.3 12.3-11.6 20.3-21.4-12.4z" transform="matrix(.54237 0 0 .54237 10.325 4.393)"/><path d="M73.131 33.193c-.488.054-1.518.108-2.332.108-.813 0-.922-.542-.922-.976 0-.705.325-.922 1.139-1.085l2.115-.271zm1.953-3.96c0-1.627-.651-2.495-2.658-2.495-1.247 0-2.929.163-3.634.217 0 .977.271 1.465 1.14 1.465l2.386-.054c.596 0 .867.217.867.867v.272l-2.44.27c-1.736.272-2.766.76-2.766 2.496 0 1.572.76 2.495 2.44 2.495 1.736 0 3.689-.109 4.719-.272v-5.26zm3.037-.27c0-.489.38-.706.868-.706l2.06.054c.869.055 1.303-.434 1.303-1.464l-3.092-.163c-1.736 0-3.037.651-3.037 2.278 0 1.682.976 2.17 2.712 2.44 1.572.272 1.898.38 1.898.923 0 .65-.76.76-1.464.76a41.215 41.215 0 01-2.875-.11l-.109 1.628 3.038.108c2.06 0 3.308-.65 3.308-2.332 0-1.627-.868-2.115-2.549-2.44-1.573-.272-2.06-.38-2.06-.977m-11.228-.542h-4.068c-.108 1.193.271 1.681 1.302 1.681h.705v2.712l-2.386.163c-1.628 0-2.224-.651-2.224-3.797 0-3.091.488-3.796 3.037-3.634l1.736.109c1.139.054 1.573-.543 1.573-1.573l-3.743-.38c-3.742 0-4.718 1.085-4.718 5.424 0 4.285 1.193 5.532 4.284 5.532 1.14 0 3.363-.217 4.502-.488zm-26.305.542c0-.488.38-.705.868-.705l2.06.054c.869.055 1.303-.434 1.303-1.464l-3.092-.163c-1.736 0-3.037.651-3.037 2.278 0 1.682.976 2.17 2.712 2.44 1.572.272 1.898.38 1.898.923 0 .65-.76.76-1.464.76a41.215 41.215 0 01-2.875-.11l-.109 1.628 3.038.108c2.06 0 3.308-.65 3.308-2.332 0-1.627-.868-2.115-2.549-2.44-1.573-.272-2.06-.38-2.06-.977m-4.99-2.224h2.006v7.865h-2.007zm15.782-.054c-1.03 0-2.386.543-3.2.868v-3.96c-.976-.108-1.952.163-1.952 1.248v9.763h1.952v-5.424c.868-.325 1.899-.705 2.604-.705.596 0 .922.38.922.868v5.26h1.952v-5.369c0-1.627-.596-2.549-2.278-2.549m-26.088.054h1.953v7.865h-1.953zm6.454 1.573h1.356c1.03 0 1.41-.488 1.302-1.573h-2.712v-2.657c-.976-.109-1.952.163-1.952 1.247v1.41h-1.465v1.573h1.465v3.58c0 1.952.813 2.82 2.874 2.82.651 0 1.14-.054 1.682-.108l-.055-1.573c-.38.054-.922.054-1.356.054-.759 0-1.139-.271-1.139-1.085zm-6.454-2.223h1.953v-1.953c-.976-.108-1.953.163-1.953 1.248zm-2.495.596c-2.06.054-3.145.705-3.145 2.82v5.153h1.952v-5.152c0-.977.38-1.14 1.14-1.14.487-.054.65.055 1.084-.162.38-.217.542-.705.542-1.41a4.783 4.783 0 00-1.573-.109m-10.413 3.309h2.82c1.085 0 1.41.434 1.41 1.464s-.325 1.519-1.41 1.519h-2.82zm6.237 1.573c0-1.736-.76-2.333-1.735-2.495.813-.38 1.464-.868 1.464-2.333 0-2.06-.976-2.82-3.037-2.82h-4.99v10.793h5.207c1.952-.054 3.091-.813 3.091-3.145m-6.237-3.2v-2.82h2.549c1.139 0 1.41.379 1.41 1.41 0 1.03-.325 1.464-1.41 1.464h-2.55zm23.213-2.278h1.953v-1.953c-.976-.108-1.953.163-1.953 1.248z"/></g></svg>