<svg xmlns="http://www.w3.org/2000/svg" xmlns:xlink="http://www.w3.org/1999/xlink" width="750" height="500" viewBox="0 0 198.438 132.292" version="1.1" id="svg864"><defs id="defs858"><clipPath id="clipPath1425" clipPathUnits="userSpaceOnUse"><path id="path1423" d="M10.436 97.332c0-.042-.003-.088-.003-.133v-.283c.04-4.229 1.866-9.931 6.544-14.582 1.57-1.607 3.437-2.949 5.507-4.004-1.275-6.505-1.772-13.958-.883-22.603l4.598.247c-1.677 7.964-1.84 14.951-1.021 21.145 19.274-7.195 49.408 9.412 25.974 77.874-2.411-30.601-40.186-28.521-40.716-57.661"/></clipPath><clipPath id="clipPath1451" clipPathUnits="userSpaceOnUse"><path id="path1449" d="M10.436 97.332c0-.042-.003-.088-.003-.133v-.283c.04-4.229 1.866-9.931 6.544-14.582 1.57-1.607 3.437-2.949 5.507-4.004a67.623 67.623 0 0 0 4.349 14.09c-3.113 4.919-6.371 14.487-6.189 21.135v.011c1.336-5.711 4.377-13.346 7.351-18.512 2.378 4.932 5.162 9.342 7.983 13.634-3.154 4.742-3.96 12.538-3.903 14.067 0 .027.021.027.046.041.834-2.719 2.396-7.355 5.278-11.964 2.691 4.042 5.309 8.013 7.497 12.275-1.401 2.915-2.35 7.46-2.244 8.928.596-2.001 2.236-4.626 3.564-6.24 2.875 5.752 4.359 10.501 4.99 13.538.728 4.737.795 9.892-.054 15.66-2.411-30.601-40.186-28.521-40.716-57.661"/></clipPath><clipPath id="clipPath1477" clipPathUnits="userSpaceOnUse"><path id="path1475" d="M39.899 97.332c-.068-4.269 1.729-10.191 6.539-14.998 16.415-16.419 61.374-6.825 34.187 72.659-2.394-30.601-40.202-28.521-40.726-57.661"/></clipPath><clipPath id="clipPath1501" clipPathUnits="userSpaceOnUse"><path id="path1499" d="M58.691 125.005c-9.512-6.756-18.533-13.537-18.792-27.673-.068-4.269 1.729-10.191 6.539-14.998.573-.574 1.17-1.1 1.815-1.618 8.296 6.749 13.8 20.631 10.444 44.289z"/></clipPath><clipPath id="clipPath1529" clipPathUnits="userSpaceOnUse"><path id="path1527" d="M69.727 97.332c-.085-4.269 1.703-10.191 6.526-14.998 16.397-16.419 61.366-6.825 34.165 72.659-2.394-30.601-40.192-28.521-40.691-57.661"/></clipPath><clipPath id="clipPath1559" clipPathUnits="userSpaceOnUse"><path id="path1557" d="M69.727 97.332c-.085-4.269 1.703-10.191 6.526-14.998a16.35 16.35 0 0 1 1.63-1.479c8.196 6.777 13.596 20.568 10.316 43.93-9.403-6.693-18.248-13.458-18.472-27.453"/></clipPath><clipPath id="clipPath1587" clipPathUnits="userSpaceOnUse"><path id="path1585" d="M0 166h444V0H0Z"/></clipPath><clipPath clipPathUnits="userSpaceOnUse" id="clipPath2333"><path d="M0 0h595.276v841.89H0Z" id="path2331"/></clipPath><clipPath clipPathUnits="userSpaceOnUse" id="clipPath2313"><path d="M0 0h595.276v841.89H0Z" id="path2311"/></clipPath><clipPath clipPathUnits="userSpaceOnUse" id="clipPath2289"><path d="M0 0h595.276v841.89H0Z" id="path2287"/></clipPath><clipPath id="C"><use height="100%" width="100%" y="0" x="0" xlink:href="#A" id="use6"/></clipPath><clipPath id="F"><use height="100%" width="100%" y="0" x="0" xlink:href="#E" id="use9"/></clipPath><radialGradient id="radialGradient1467" spreadMethod="pad" gradientTransform="translate(-3.625 168.75) scale(116.01016)" gradientUnits="userSpaceOnUse" r="1" cy="0" cx="0" fy="0" fx="0"><stop id="stop1457" offset="0" style="stop-opacity:1;stop-color:#d5d830"/><stop id="stop1459" offset=".191" style="stop-opacity:1;stop-color:#d5d830"/><stop id="stop1461" offset=".634" style="stop-opacity:1;stop-color:#6b9505"/><stop id="stop1463" offset=".77" style="stop-opacity:1;stop-color:#6b9505"/><stop id="stop1465" offset="1" style="stop-opacity:1;stop-color:#6b9505"/></radialGradient><radialGradient id="radialGradient1491" spreadMethod="pad" gradientTransform="translate(25.813 168.656) scale(115.9647)" gradientUnits="userSpaceOnUse" r="1" cy="0" cx="0" fy="0" fx="0"><stop id="stop1483" offset="0" style="stop-opacity:1;stop-color:#e4ecf7"/><stop id="stop1485" offset=".48" style="stop-opacity:1;stop-color:#e4ecf7"/><stop id="stop1487" offset=".885" style="stop-opacity:1;stop-color:#0071bb"/><stop id="stop1489" offset="1" style="stop-opacity:1;stop-color:#0071bb"/></radialGradient><radialGradient id="radialGradient1519" spreadMethod="pad" gradientTransform="translate(25.813 168.563) scale(115.98769)" gradientUnits="userSpaceOnUse" r="1" cy="0" cx="0" fy="0" fx="0"><stop id="stop1507" offset="0" style="stop-opacity:1;stop-color:#fff"/><stop id="stop1509" offset=".122" style="stop-opacity:1;stop-color:#bbcee6"/><stop id="stop1511" offset=".382" style="stop-opacity:1;stop-color:#bbcee6"/><stop id="stop1513" offset=".742" style="stop-opacity:1;stop-color:#0071bb"/><stop id="stop1515" offset=".8" style="stop-opacity:1;stop-color:#0071bb"/><stop id="stop1517" offset="1" style="stop-opacity:1;stop-color:#0071bb"/></radialGradient><radialGradient id="radialGradient1549" spreadMethod="pad" gradientTransform="translate(55.594 168.656) scale(116.04356)" gradientUnits="userSpaceOnUse" r="1" cy="0" cx="0" fy="0" fx="0"><stop id="stop1535" offset="0" style="stop-opacity:1;stop-color:#ffec00"/><stop id="stop1537" offset=".135" style="stop-opacity:1;stop-color:#ffec00"/><stop id="stop1539" offset=".295" style="stop-opacity:1;stop-color:#fcc700"/><stop id="stop1541" offset=".5" style="stop-opacity:1;stop-color:#fcc700"/><stop id="stop1543" offset=".893" style="stop-opacity:1;stop-color:#ef8700"/><stop id="stop1545" offset=".95" style="stop-opacity:1;stop-color:#ef8700"/><stop id="stop1547" offset="1" style="stop-opacity:1;stop-color:#ef8700"/></radialGradient><radialGradient id="radialGradient1577" spreadMethod="pad" gradientTransform="translate(55.656 168.594) scale(115.8963)" gradientUnits="userSpaceOnUse" r="1" cy="0" cx="0" fy="0" fx="0"><stop id="stop1565" offset="0" style="stop-opacity:1;stop-color:#ffe800"/><stop id="stop1567" offset=".145" style="stop-opacity:1;stop-color:#f5b900"/><stop id="stop1569" offset=".45" style="stop-opacity:1;stop-color:#f5b900"/><stop id="stop1571" offset=".654" style="stop-opacity:1;stop-color:#ef8700"/><stop id="stop1573" offset=".85" style="stop-opacity:1;stop-color:#ef8700"/><stop id="stop1575" offset="1" style="stop-opacity:1;stop-color:#ef8700"/></radialGradient><linearGradient id="linearGradient1441" spreadMethod="pad" gradientTransform="rotate(-56.913 139.404 52.093) scale(73.84352)" gradientUnits="userSpaceOnUse" y2="0" x2="1" y1="0" x1="0"><stop id="stop1431" offset="0" style="stop-opacity:1;stop-color:#d3d100"/><stop id="stop1433" offset=".034" style="stop-opacity:1;stop-color:#d3d100"/><stop id="stop1435" offset=".147" style="stop-opacity:1;stop-color:#d3d100"/><stop id="stop1437" offset=".8" style="stop-opacity:1;stop-color:#6b9505"/><stop id="stop1439" offset="1" style="stop-opacity:1;stop-color:#6b9505"/></linearGradient><linearGradient id="D" x1="133.42" x2="124.33" y1="25.847" y2="6.345" gradientUnits="userSpaceOnUse"><stop stop-color="#2bace2" offset="0" id="stop12"/><stop stop-color="#1877bb" offset=".421" id="stop14"/><stop stop-color="#0751a0" offset=".8" id="stop16"/><stop stop-color="#1f4799" offset=".861" id="stop18"/><stop stop-color="#2b3b92" offset=".944" id="stop20"/><stop stop-color="#2e368f" offset="1" id="stop22"/></linearGradient><linearGradient id="G" x1="107.63" x2="124.96" y1="19.802" y2="29.807" gradientUnits="userSpaceOnUse"><stop stop-color="#d6e042" offset="0" id="stop25"/><stop stop-color="#97b543" offset=".294" id="stop27"/><stop stop-color="#5c9642" offset=".627" id="stop29"/><stop stop-color="#2c8541" offset=".872" id="stop31"/><stop stop-color="#048040" offset="1" id="stop33"/></linearGradient><path d="M122.1 7.3s-4.9 1.7-7.6 4c-1.7 1.4-2.9 3.3-3.3 5.4 1.9-1 3.8-1.7 3.8-1.7l17.8-5.8s.7 13.5-7.3 19.4c2.3-.5 5-1.4 8-3.2C145.3 18.8 144.3 0 144.3 0Z" id="A"/><path d="M109 18.1c-1.8 1.5-2.8 3.7-2.8 6.1 0 4.5 4 8.1 8.9 8.1 2.4.1 5.4-.7 9.2-2.8.5-.3.9-.6 1.4-.9-1.2.2-2.4.3-3.4.3-6.1 0-11.1-4.5-11.1-10.1 0-.7.1-1.5.2-2.2-1 .5-1.8 1-2.4 1.5" id="E"/></defs><g id="layer1" transform="translate(0 -164.708)"><g transform="matrix(.14557 0 0 -.14557 67.367 276.742)" id="g1417"><g id="g1419"><g clip-path="url(#clipPath1425)" id="g1421"><g id="g1427"><g id="g1429"><path id="path1443" style="fill:url(#linearGradient1441);stroke:none" d="M10.436 97.332c0-.042-.003-.088-.003-.133v-.283c.04-4.229 1.866-9.931 6.544-14.582 1.57-1.607 3.437-2.949 5.507-4.004-1.275-6.505-1.772-13.958-.883-22.603l4.598.247c-1.677 7.964-1.84 14.951-1.021 21.145 19.274-7.195 49.408 9.412 25.974 77.874-2.411-30.601-40.186-28.521-40.716-57.661"/></g></g></g></g><g id="g1445"><g clip-path="url(#clipPath1451)" id="g1447"><g id="g1453"><g id="g1455"><path id="path1469" style="fill:url(#radialGradient1467);stroke:none" d="M10.436 97.332c0-.042-.003-.088-.003-.133v-.283c.04-4.229 1.866-9.931 6.544-14.582 1.57-1.607 3.437-2.949 5.507-4.004a67.623 67.623 0 0 0 4.349 14.09c-3.113 4.919-6.371 14.487-6.189 21.135v.011c1.336-5.711 4.377-13.346 7.351-18.512 2.378 4.932 5.162 9.342 7.983 13.634-3.154 4.742-3.96 12.538-3.903 14.067 0 .027.021.027.046.041.834-2.719 2.396-7.355 5.278-11.964 2.691 4.042 5.309 8.013 7.497 12.275-1.401 2.915-2.35 7.46-2.244 8.928.596-2.001 2.236-4.626 3.564-6.24 2.875 5.752 4.359 10.501 4.99 13.538.728 4.737.795 9.892-.054 15.66-2.411-30.601-40.186-28.521-40.716-57.661"/></g></g></g></g><g id="g1471"><g clip-path="url(#clipPath1477)" id="g1473"><g id="g1479"><g id="g1481"><path id="path1493" style="fill:url(#radialGradient1491);stroke:none" d="M39.899 97.332c-.068-4.269 1.729-10.191 6.539-14.998 16.415-16.419 61.374-6.825 34.187 72.659-2.394-30.601-40.202-28.521-40.726-57.661"/></g></g></g></g><g id="g1495"><g clip-path="url(#clipPath1501)" id="g1497"><g id="g1503"><g id="g1505"><path id="path1521" style="fill:url(#radialGradient1519);stroke:none" d="M58.691 125.005c-9.512-6.756-18.533-13.537-18.792-27.673-.068-4.269 1.729-10.191 6.539-14.998.573-.574 1.17-1.1 1.815-1.618 8.296 6.749 13.8 20.631 10.444 44.289z"/></g></g></g></g><g id="g1523"><g clip-path="url(#clipPath1529)" id="g1525"><g id="g1531"><g id="g1533"><path id="path1551" style="fill:url(#radialGradient1549);stroke:none" d="M69.727 97.332c-.085-4.269 1.703-10.191 6.526-14.998 16.397-16.419 61.366-6.825 34.165 72.659-2.394-30.601-40.192-28.521-40.691-57.661"/></g></g></g></g><g id="g1553"><g clip-path="url(#clipPath1559)" id="g1555"><g id="g1561"><g id="g1563"><path id="path1579" style="fill:url(#radialGradient1577);stroke:none" d="M69.727 97.332c-.085-4.269 1.703-10.191 6.526-14.998a16.35 16.35 0 0 1 1.63-1.479c8.196 6.777 13.596 20.568 10.316 43.93-9.403-6.693-18.248-13.458-18.472-27.453"/></g></g></g></g><g id="g1581"><g clip-path="url(#clipPath1587)" id="g1583"><g transform="translate(278.716 44.338)" id="g1589"><path id="path1591" style="fill:#6b9505;fill-opacity:1;fill-rule:nonzero;stroke:none" d="M0 0c0 4.455-3.566 9.775-10.329 9.775h-14.489v-32.578h6.71V5.344h5.285c5.092 0 5.855-3.843 5.855-5.647 0-3.006-1.123-5.536-5.71-5.536-2.339 0-3.272-.461-3.376-1.788-.097-1.248 1.395-1.951 2.908-2.242C-6.471-11.137 0-7.144 0 0"/></g><g transform="translate(417.402 36.563)" id="g1593"><path id="path1595" style="fill:#6b9505;fill-opacity:1;fill-rule:nonzero;stroke:none" d="M0 0c2.466.741 6.747 2.87 6.747 8.58 0 4.458-3.52 8.97-10.289 8.97h-14.489v-32.578h6.702v28.146h5.288c5.076 0 5.828-3.029 5.828-4.833 0-3.011-2.149-4.897-5.635-4.897-2.252 0-3.55-.873-3.55-2.364 0-.846.544-1.917 3.026-2.306 3.076-.481 4.315-3.487 5.89-7.268 0 0 1.349-3.203 1.814-4.235.467-1.032.89-2.243 3.204-2.243h5.245l-2.322 4.965C5.161-4.946 3.326-1.917 0 0"/></g><g transform="translate(377.071 36.136)" id="g1597"><path id="path1599" style="fill:#6b9505;fill-opacity:1;fill-rule:nonzero;stroke:none" d="M0 0h15.686v4.433H0v9.113h16.487v4.416H-6.707v-32.563h23.532v4.433H0Z"/></g><g transform="translate(298.347 26.364)" id="g1601"><path id="path1603" style="fill:#6b9505;fill-opacity:1;fill-rule:nonzero;stroke:none" d="M0 0c-6.685 0-10.493 4.183-10.493 11.466 0 7.279 3.808 11.454 10.493 11.454 6.632 0 10.419-4.175 10.419-11.454C10.419 4.183 6.632 0 0 0m0 28.202c-12.061 0-17.448-8.421-17.448-16.736 0-8.35 5.387-16.752 17.448-16.752 11.941 0 17.373 8.675 17.373 16.752 0 8.315-5.355 16.736-17.373 16.736"/></g><g transform="translate(363.426 54.098)" id="g1605"><path id="path1607" style="fill:#6b9505;fill-opacity:1;fill-rule:nonzero;stroke:none" d="M0 0c-2.256 0-2.518-1.187-2.854-2.23l-7.366-23.805L-17.576 0h-6.104c-2.181 0-2.514-1.115-2.824-2.125l-7.051-24.054L-40.536 0h-7.422l9.551-32.615h8.616l7.58 25.699 7.249-25.699h8.506L3.479 0Z"/></g><g transform="translate(36.273 23.9)" id="g1609"><path id="path1611" style="fill:#6b9505;fill-opacity:1;fill-rule:nonzero;stroke:none" d="m0 0 .27 4.723c3.161-1.441 7.031-2.285 9.072-2.228 1.899.061 7.059-.083 6.802 4.372-.325 5.642-16.08 4.549-16.08 14.702 0 7.03 7.364 9.485 13.317 9.485 2.244 0 5.466-.591 7.565-1.248l-.134-2.236c0-1.27-1.187-2.034-2.417-1.785-1.702.345-3.47.477-4.964.424-1.934-.075-6.561-.366-6.333-3.815.337-5.03 16.339-4.22 16.339-15.478 0-6.814-6.695-9.344-13.827-9.344C7.055-2.428 2.972-1.573 0 0"/></g><g transform="translate(79.679 50.063)" id="g1613"><path id="path1615" style="fill:#6b9505;fill-opacity:1;fill-rule:nonzero;stroke:none" d="M0 0c2.225.067 3.706-.068 4.927-.321C6.368-.613 7.392.121 7.45 1.418l.13 2.224c-1.971.62-4.888 1.251-7.985 1.251-12.06 0-17.449-8.425-17.449-16.737 0-8.311 5.389-16.741 17.449-16.741 3.097 0 6.014.632 7.985 1.252l-.271 4.629c-1.898-.632-3.518-1.105-7.309-.983-6.67.204-10.896 4.564-10.896 11.843C-10.896-4.568-6.67-.208 0 0"/></g><g transform="translate(105.499 26.75)" id="g1617"><path id="path1619" style="fill:#6b9505;fill-opacity:1;fill-rule:nonzero;stroke:none" d="M0 0c-6.686 0-10.496 4.187-10.496 11.466 0 7.283 3.81 11.454 10.496 11.454 6.629 0 10.42-4.171 10.42-11.454C10.42 4.187 6.629 0 0 0m0 28.206c-12.058 0-17.449-8.425-17.449-16.74 0-8.35 5.391-16.748 17.449-16.748 11.94 0 17.373 8.671 17.373 16.748 0 8.315-5.355 16.74-17.373 16.74"/></g><path id="path1621" style="fill:#6b9505;fill-opacity:1;fill-rule:nonzero;stroke:none" d="M177.045 21.551h6.707v32.563h-6.707z"/><g transform="translate(146.579 54.113)" id="g1623"><path id="path1625" style="fill:#6b9505;fill-opacity:1;fill-rule:nonzero;stroke:none" d="M0 0h-24.141v-4.432h8.988v-28.131h6.708v28.131H0Z"/></g><g transform="translate(173.079 54.113)" id="g1627"><path id="path1629" style="fill:#6b9505;fill-opacity:1;fill-rule:nonzero;stroke:none" d="M0 0h-24.141v-4.432h8.984v-28.131h6.708v28.131H0Z"/></g><g transform="translate(239.775 54.113)" id="g1631"><path id="path1633" style="fill:#6b9505;fill-opacity:1;fill-rule:nonzero;stroke:none" d="M0 0v-13.512h-15.462V0h-6.709v-32.563h6.709v14.624H0v-14.624h6.705V0Z"/></g><g transform="translate(189.62 23.9)" id="g1635"><path id="path1637" style="fill:#6b9505;fill-opacity:1;fill-rule:nonzero;stroke:none" d="m0 0 .27 4.723c3.159-1.441 7.031-2.285 9.068-2.228 1.901.061 7.061-.083 6.803 4.372C15.814 12.509.064 11.416.064 21.569c0 7.03 7.363 9.485 13.313 9.485 2.245 0 5.469-.591 7.564-1.248l-.129-2.236c0-1.27-1.191-2.034-2.419-1.785a21.872 21.872 0 0 1-4.964.424c-1.934-.075-6.564-.366-6.331-3.815.335-5.03 16.339-4.22 16.339-15.478 0-6.814-6.697-9.344-13.832-9.344C7.053-2.428 2.97-1.573 0 0"/></g></g></g></g><g transform="matrix(1.38924 0 0 1.38924 -106.603 34.058)" id="layer1-6"><g id="g2615"><path d="M123.042 174.97h-45v-19.012h45z" style="fill:#fff;fill-opacity:1;fill-rule:nonzero;stroke:none;stroke-width:.35277778" id="path2277"/><path d="M78.832 156.858h43.42v8.264h-43.42Z" style="fill:#23346a;fill-opacity:1;fill-rule:nonzero;stroke:none;stroke-width:.35277778" id="path2279"/><path d="M78.832 165.911h43.42v8.264h-43.42Z" style="fill:#009340;fill-opacity:1;fill-rule:nonzero;stroke:none;stroke-width:.35277778" id="path2281"/><path id="path2293" style="fill:#fff;fill-opacity:1;fill-rule:nonzero;stroke:none;stroke-width:.35277778" d="M86.72 162.993h-1.47c-.753 0-1.524-.126-1.524-1.06v-.36H84.368V161.921c0 .313.13.494.79.494H86.8c.782 0 .92-.17.92-.65 0-.414-.107-.543-.78-.543h-1.004c-1.608 0-2.216-.103-2.216-1.206 0-.973.62-1.163 1.693-1.163h1.138c1.25 0 1.715.299 1.715 1.103V160.164H87.625l-.002-.071c-.01-.549-.011-.663-1.39-.663h-.561c-1.044 0-1.31.061-1.31.624 0 .397.078.548.9.548h1.565c1.062 0 1.536.318 1.536 1.033v.254c0 1.104-1.029 1.104-1.644 1.104"/><path id="path2297" style="fill:#fff;fill-opacity:1;fill-rule:nonzero;stroke:none;stroke-width:.35277778" d="M93.716 162.95h-4.005v-4.054h3.984v.577h-3.309v1.101h3.179v.578h-3.179v1.22h3.33v.505z"/><path id="path2301" style="fill:#fff;fill-opacity:1;fill-rule:nonzero;stroke:none;stroke-width:.35277778" d="M97.723 162.95H96.99l-.021-.038-2.165-3.908-.06-.108h.761l.02.038 1.831 3.317 1.831-3.317.021-.038h.761l-.06.108-2.165 3.908z"/><path id="path2305" style="fill:#fff;fill-opacity:1;fill-rule:nonzero;stroke:none;stroke-width:.35277778" d="M105.127 162.95h-4.005v-4.054h3.983v.577h-3.308v1.101h3.179v.578h-3.179v1.22h3.33v.505z"/><path id="path2317" style="fill:#fff;fill-opacity:1;fill-rule:nonzero;stroke:none;stroke-width:.35277778" d="M110.924 162.95H110.281V162.019c0-.528-.207-.613-.704-.613h-2.507v1.544H106.395v-4.054h3.198c1.166 0 1.38.397 1.38 1.18v.318c0 .482-.237.675-.495.757.306.127.446.359.446.727v.999zm-3.854-2.122h2.464c.636 0 .764-.189.764-.493v-.357c0-.343-.089-.505-.894-.505h-2.334z"/><path id="path2321" style="fill:#fff;fill-opacity:1;fill-rule:nonzero;stroke:none;stroke-width:.35277778" d="M117.364 162.95h-.89l-.021-.02-3.456-3.316v3.336H112.323V158.896h.89l.02.02 3.456 3.315v-3.335H117.364v3.981z"/><path id="path2325" style="fill:#fff;fill-opacity:1;fill-rule:nonzero;stroke:none;stroke-width:.35277778" d="M89.295 172.003H88.62v-3.476h-1.976v-.578H91.271v.578h-1.976v3.403z"/><path id="path2337" style="fill:#fff;fill-opacity:1;fill-rule:nonzero;stroke:none;stroke-width:.35277778" d="M96.975 172.003H96.333V171.072c0-.528-.209-.613-.705-.613h-2.507v1.544H92.446v-4.054h3.198c1.166 0 1.38.397 1.38 1.18v.318c0 .482-.237.676-.496.758.307.126.447.358.447.726v.999zm-3.854-2.121h2.464c.636 0 .764-.19.764-.494v-.357c0-.342-.089-.504-.894-.504h-2.334z"/><path id="path2341" style="fill:#fff;fill-opacity:1;fill-rule:nonzero;stroke:none;stroke-width:.35277778" d="M102.394 172.003h-4.005v-4.054h3.983v.578h-3.309v1.1h3.18v.579h-3.18v1.22h3.331v.504z"/><path id="path2345" style="fill:#fff;fill-opacity:1;fill-rule:nonzero;stroke:none;stroke-width:.35277778" d="M108.704 172.003h-.891l-.02-.02-3.456-3.315v3.335H103.662v-4.054h.891l.02.02 3.456 3.316v-3.336H108.704v3.981z"/><path id="path2349" style="fill:#fff;fill-opacity:1;fill-rule:nonzero;stroke:none;stroke-width:.35277778" d="M112.535 172.003H111.86v-3.476h-1.976v-.578H114.51v.578h-1.975v3.403z"/></g></g><g id="g1808" transform="matrix(1.3863 0 0 -1.3863 -209.082 237.974)"><path id="path1798" d="M256.353 25.547c-.152-.16-.566-.22-.682-.403-.177-.278-.584-.91-.902-1.21-1.025-.974-3.221-1.464-4.304-.534-.071-.005-.03-.046.055-.312.079-.504.485-1.686.335-1.988.098-.335.199-.212.383-.399.126-.126.177-.455.322-.544l.495.035.09-.278.636.046c.119-.027.479-.212.585-.242l.705.05c.539-.144 1.01.08 1.464.388.253.17.53.143.756.335.326.28.77.827.978 1.206.51.926.337 3.146-.125 3.694-.181.198-.395.202-.791.156m4.265.608c-.382-.292-.543-.22-.767-.672-.023 0 .034-.067.012-.067.228-.456.75-.639 1.134-.958.119-.102.444-.664.597-.705.174-.206.286-.777.4-.777.117-.16-.01-.538.105-.685.007-.677-.087-.724-.205-.854 0-.047.065-.17.065-.216.032-.032.304-.227.422-.203.368-.01 1.878-1.189 1.998-1.416 1.083-.081 1.004.25 1.751.566.202.088.363.005.495.143.139.141.15.421.283.566.018 2.664-3.605 5.186-6.29 5.278m2.941 5.628c-1.341-.201-2.162-.63-2.669-.98-.354-.248-.457-.413-.532-.517-.078-.104-.13-.334-.092-.576.04-.24.138-.496.347-.64 1.647.122 4.508.226 5.065-1.158.03-.193.073-.31.077-.355.546.135.146.087.95-.038.184-.03.638.073.94.147a.385.385 0 0 1 .214.156s-.026.132-.019.204c0 0 .282-.022.398.067.762.123.361.481.72.885-.215 2.588-2.87 3.189-5.399 2.805m-10.216-4.717c.296.076.798.115 1.061.246.42.21 1.862 1.218 1.403 2.04-.14 1.73-2.228.268-3.118.874-.9.116-1.91 1.817-2.18 2.546-.106.288-.063.19-.207.418 0 .023-.092-.079-.091-.056-.263-.305-.218-.573-.259-1.32-.118.008-.235.014-.353.023-.023-.271-.05-.418-.176-.558l-.08-.137c-.223.075-.11-.03-.202.157-.828-.043-.767-.875-1.147-1.347.017-1.555 3.092-3.471 5.35-2.886m5.99 8.449c.071.587-.016 1.445.447 1.848.136.627 1.122.48.969.88-.096.25-.56.13-.747.084-.142-.034-1.494-.461-2.013-.52l-.66.185c-.85-.115-1.34-.79-1.81-1.326-.396-.45-.933-1.55-.506-2.21l-.071-.432.963-1.408c.333-.24.377-.416.735-.652l.222-.332c.292-.193 1.157-.196 1.301-.07 1.39-.13 1.24 2.684 1.68 3.276-.055.265-.289.54-.51.677" style="fill:#f1471c;fill-rule:evenodd"/><g id="g1806" style="fill:#13356d"><path id="path1800" d="M281.697 25.089c1.23 0 2.232.406 2.232 2.58 0 1.85-1.001 2.465-2.232 2.465h-.646V25.09zm.652 6.512c2.229 0 3.737-1.41 3.737-3.931 0-3.17-2.071-4.108-4.242-4.108h-2.906c.01.177 0 .645 0 1.233v5.574c0 .587.01.962 0 1.232"/><path id="path1802" d="M289.245 24.795c0-.588.03-1.233.03-1.233h-2.156s.014.645.014 1.233v5.575c0 .587-.014 1.23-.014 1.23h5.096v-1.555s-1.14.03-1.526.03h-1.444v-1.62l1.444-.015c.27 0 1.2.015 1.2.015v-1.481s-.825.022-1.2.022l-1.444-.008"/><path id="path1804" d="M272.843 28.563c.032.465.197 1.545 1.372 1.545 1.204 0 1.27-1.014 1.27-1.551v-.108s-.805-.023-1.285-.023c-.48 0-1.365.023-1.365.023zm1.793-3.376c-1.013 0-1.793.682-1.793 1.749v.09s1.883.046 2.522.046c1.085 0 1.533.01 2.39.022v.606c0 2.739-1.162 4.072-3.555 4.072-1.102 0-3.666-.414-3.666-4.25 0-2.56 1.291-4.088 3.55-4.088 1.773 0 2.861.453 3.65 1.028-.09.133-.75 1.32-.836 1.45-.473-.361-1.254-.725-2.262-.725"/></g></g><g id="g1827" transform="matrix(.72989 0 0 .72989 -168.256 -691.191)"><path d="M140.16 1043.7c-.873 2.772-1.598 4.933-1.89 5.73-.625 1.737-1.816 1.983-3.37 1.983-2.788 0-4.91-.71-5.944-1.58-.202-.181-.462-.569-.29-1.132.319-1.026.93-2.867 1.614-5.001m-18.668 0c-2.542 2.831-4.49 5.2-5.332 6.195-.901 1.07-2.222 1.291-3.777 1.291-1.903 0-3.951-1.075-4.14-1.178-.61-.331-.625-.7-.45-1.47l.507-2.188c.145-.632.392-1.543.711-2.648h12.48zm-19.744 0c-5.171 7.773-11.723 7.713-19.002 7.713-3.965 0-12.784.046-12.901-7.713zm-73.348 0a8.36 8.36 0 0 0 4.475 1.296c1.946 0 3.559-.59 4.793-1.296h17.855c-.74 3.513-11.056 8.669-19.772 8.669-9.123 0-17.636-3.513-22.256-8.674H18.52zm40.59-13.214c0 1.069-1.162 4.009-1.337 4.443-1.06 2.758-3.82 3.205-5.782 3.205-2.92 0-3.923-1.111-3.923-2.868 0-1.356 1.076-3.704 1.221-4.05 1.322-3.192 3.675-3.542 6-3.542 1.976 0 3.82.87 3.82 2.812m-25.015-6.749c0-2.033-.088-4.95-1.584-4.95-4.897 0-13.482 7.923-14.339 8.833-.64.674-.174.62.683.62h10.998c3.892-.001 4.241-.699 4.241-4.503zm47.854.734c-1.019 0-2.543.168-3.241 1.178-2.585 3.794-4.3 13.283-4.3 15.918 0 1.801 1.192 1.688 2.762 1.688.929 0 2.41.025 3.24-.898 2.28-2.511 4.242-13.872 4.242-15.922 0-1.46-.104-1.965-2.703-1.965zm17.185 19.23c1.699-5.88 5.564-17.432 8.367-24.18.146-.341.275-.624 1.003-.742.334-.054 1.44-.326 2.978-.326 1.132 0 3.327.086 4.416.709 0 0 .016-.018.016 1.933 0 .846.086 3.714 2.63 3.714 4.314 0 12.114-7.818 19.015-7.818 6.073 0 7.438 3.963 7.438 7.03 0 3.595-2.818 13.273-4.838 19.683h-9.877c1.525-4.801 3.43-11.081 3.43-12.868 0-1.42-.394-2.481-1.73-2.481-5.62 0-14.542 8.868-20.368 15.354l-12.48-.01zm-39.166 0v-.164c0-3.544 2.92-10.04 5.303-16.2 1.03-2.617 5.36-11.417 20.135-11.417 6.102 0 13.658 1.011 13.658 8.041 0 4.333-4.04 13.842-5.347 16.482a28.95 28.95 0 0 1-1.844 3.257H59.967zm-32.18 0c1.425-.81 2.34-1.762 2.645-2.112 0 0 4.794-.58 7.859-.58 2.993 0 7.38.503 7.38 2.306 0 .124-.015.254-.029.38H27.787zm-24.172 0c-2.282-2.545-3.619-5.484-3.619-8.6 0-15.819 28.823-27.732 37.235-27.732 7.569 0 8.6 12.77 8.6 17.437 0 9.972-5.782 12.036-12.218 12.036h-4.504c-4.519 0-13.598-.28-13.598-.28-.726-.016-1.279-.169-1.279.28 0 2.208 1.599 5.18 4.287 6.859z" id="path2285_1_" style="fill:#ea1c0a"/></g><g transform="matrix(.4185 0 0 .4185 66.952 165.514)" id="Isolation_Mode"><path id="path1892" d="M17.1 77.1c0-33.1 26.9-60 60-60s60 26.9 60 60-26.9 60-60 60-60-26.8-60-60" style="fill:#009fdf"/><path id="path1894" d="M88.6 23.6h-.2c-.6 0-1.2.5-1.2 1.1 0 .5.3.9.8 1.1 19 5.7 38.6 22.5 38.6 50.2 0 8.9-2.5 19.2-6.9 26.1-3.6 5.7-10.2 12.5-20.9 12.8h-.3c-3.6 0-7.4-1.3-10.8-2.5-3.5-1.2-7.1-2.5-10.5-2.5-3.4 0-7 1.3-10.5 2.5-3.4 1.2-7.2 2.5-10.8 2.5h-.3c-10.8-.3-17.4-7.1-21-12.8-4.4-6.9-6.9-17.1-6.9-26.1 0-27.7 19.6-44.5 38.6-50.2.4-.2.8-.6.8-1.1 0-.6-.5-1.1-1.2-1.1h-.2c-25.2 5.5-43.3 28.3-42.9 54.3.2 17.2 6.1 27.4 11 33 5.9 6.7 13.8 10.6 21.6 10.6h.1c5.1 0 9.4-1.3 13.2-2.5 3.1-.9 5.8-1.8 8.4-1.8 2.6 0 5.3.8 8.4 1.8 3.8 1.2 8.1 2.5 13.2 2.5h.1c7.8 0 15.7-3.8 21.6-10.6 4.9-5.6 10.8-15.8 11-33 .4-26-17.6-48.8-42.8-54.3" class="st1" style="fill:#fff"/><path id="path1896" d="M55.1 109.3c4.5 0 8.3-1.3 10.2-2.1 4.4-1.8 8.3-2.7 11.9-2.7 3.6 0 7.5.9 11.9 2.7 1.9.8 5.7 2.1 10.2 2.1 7.3 0 13.2-3.2 17.7-9.6.1-.2.2-.4.2-.7 0-.6-.5-1.2-1.2-1.2-.3 0-.5.1-.7.2-4.4 3.2-8.9 5.4-13.6 5.4-3.3 0-6.8-.7-10.5-2.3-5.2-2.1-9.6-3-14-3s-8.8 1-14 3c-3.8 1.5-7.2 2.3-10.5 2.3-4.7 0-9.2-2.2-13.6-5.4-.2-.1-.4-.2-.7-.2-.6 0-1.2.5-1.2 1.2 0 .2.1.5.2.7 4.5 6.3 10.5 9.6 17.7 9.6" class="st1" style="fill:#fff"/><path id="path1898" d="M99.2 125.2H99c-.8.1-1.6.2-2.3.2h-.6c-4.5 0-6.4 0-9.3-.8l-1.9-.5c-2.2-.6-5-1.5-7.9-1.5-2.9 0-5.7.8-7.9 1.5l-1.9.5c-2.9.8-4.7.8-9.3.8h-.6c-.7 0-1.5-.1-2.3-.2h-.1c-.6 0-1.1.5-1.1 1 0 .4.2.8.6.9 6.7 2.7 15.2 4.5 22.6 4.5 7.4 0 15.9-1.8 22.6-4.5.4-.2.6-.5.6-.9.1-.5-.4-1-1-1" class="st1" style="fill:#fff"/><path id="path1900" d="M46.2 54.2H36.1c-.9 0-1.6.7-1.6 1.6 0 .9.7 1.6 1.6 1.6h3.3v10.9c0 1 .8 1.7 1.7 1.7 1 0 1.7-.8 1.7-1.7V57.4h3.3c.9 0 1.6-.7 1.6-1.6.1-.9-.6-1.6-1.5-1.6" class="st1" style="fill:#fff"/><path id="path1902" d="M51 54c-.9 0-1.7.8-1.7 1.7v12.6c0 .9.8 1.7 1.7 1.7.9 0 1.7-.8 1.7-1.7v-5.1c0-1.6.8-2.4 2.1-2.4s2 .8 2 2.4v5.1c0 .9.8 1.7 1.7 1.7.9 0 1.7-.8 1.7-1.7v-6.2c0-2.8-1.5-4.4-4.1-4.4-1.7 0-2.7.9-3.5 1.9v-3.9c.1-.9-.7-1.7-1.6-1.7" class="st1" style="fill:#fff"/><path id="path1904" d="M78.6 70c.9 0 1.7-.8 1.7-1.7v-5.1c0-1.6.8-2.4 2.1-2.4s2 .8 2 2.4v5.1c0 .9.8 1.7 1.7 1.7.9 0 1.7-.8 1.7-1.7v-5.1c0-1.6.8-2.4 2.1-2.4s2 .8 2 2.4v5.1c0 .9.8 1.7 1.7 1.7.9 0 1.7-.8 1.7-1.7V62c0-2.9-1.5-4.4-4-4.4-1.6 0-2.9.7-3.9 1.9-.6-1.2-1.8-1.9-3.4-1.9-1.7 0-2.7.9-3.5 1.9v-.1c0-.9-.8-1.7-1.7-1.7-.9 0-1.7.8-1.7 1.7v8.8c-.2 1 .6 1.8 1.5 1.8" class="st1" style="fill:#fff"/><path id="path1906" d="M44.7 74.7c0 .2.1.5.1.6l4.4 12.3c.3.9 1 1.4 1.8 1.4h.4c.8 0 1.5-.5 1.8-1.4l3.1-9 3.1 9c.3.9.9 1.4 1.8 1.4h.4c.8 0 1.5-.5 1.8-1.4l4.4-12.3c.1-.2.1-.5.1-.7 0-.9-.8-1.7-1.7-1.7-.8 0-1.4.6-1.7 1.2l-3.1 9.6-3.1-9.5c-.3-.8-.9-1.4-1.7-1.4h-.3c-.9 0-1.5.6-1.7 1.4l-3.1 9.5-3.1-9.6c-.2-.7-.9-1.2-1.7-1.2-1.2.1-2 .8-2 1.8" class="st1" style="fill:#fff"/><path id="path1908" d="M84.7 73.6c-.9 0-1.7.8-1.7 1.7v1.5h-.3c-.8 0-1.5.6-1.5 1.4 0 .8.7 1.4 1.5 1.4h.3v5.8c0 2.8 1.4 3.6 3.5 3.6.7 0 1.3-.1 1.9-.3.5-.2.9-.7.9-1.3 0-.8-.5-1.3-1.4-1.2h-.5c-.8 0-1.1-.4-1.1-1.2v-5.5h1.6c.8 0 1.4-.6 1.4-1.4 0-.8-.6-1.4-1.4-1.4h-1.6v-1.5c0-.9-.6-1.6-1.6-1.6" class="st1" style="fill:#fff"/><path id="path1910" d="M106.5 78.9v-.5c0-.9-.8-1.7-1.7-1.7-.9 0-1.7.8-1.7 1.7v8.9c0 .9.8 1.7 1.7 1.7.9 0 1.7-.8 1.7-1.7V84c0-2.4 1-3.7 2.7-4.1.7-.2 1.3-.7 1.3-1.6 0-1-.6-1.6-1.7-1.6-1-.1-1.9 1-2.3 2.2" class="st1" style="fill:#fff"/><path id="path1912" d="M73.6 79.4c1.5 0 3.1 1.1 3.1 3.3 0 1.8-1.1 3.3-3.1 3.3-1.9 0-3.1-1.7-3.1-3.3 0-2 1.3-3.3 3.1-3.3m-.5 9.5c1.2 0 2.8-.6 3.6-1.7.1 1.1.9 1.6 1.7 1.6 1 0 1.7-.8 1.7-1.7v-8.9c0-.9-.6-1.7-1.7-1.7-.7 0-1.5.5-1.7 1.6-.7-1-2.1-1.7-3.7-1.7-3.7 0-5.9 3.1-5.9 6.3 0 3.4 2.3 6.2 6 6.2" class="st1" style="fill:#fff"/><path id="path1914" d="M68.4 60.5c1.5 0 3.1 1.1 3.1 3.3 0 1.8-1.1 3.3-3.1 3.3-1.9 0-3.1-1.7-3.1-3.3 0-2 1.3-3.3 3.1-3.3m-.5 9.6c1.2 0 2.8-.6 3.6-1.7.1 1.1.9 1.6 1.7 1.6 1 0 1.7-.8 1.7-1.7v-8.9c0-.9-.6-1.7-1.7-1.7-.7 0-1.5.5-1.7 1.6-.7-1-2.1-1.7-3.7-1.7-3.7 0-5.9 3.1-5.9 6.3 0 3.3 2.3 6.2 6 6.2" class="st1" style="fill:#fff"/><path id="path1916" d="M93.1 81.7c.3-1.6 1.4-2.4 2.6-2.4 1.2 0 2.2.8 2.5 2.4zm8.4.3c-.1-2.5-2-5.4-5.8-5.4-3.1 0-5.9 2.5-5.9 6.2 0 3.6 2.5 6.2 6.2 6.2 1.7 0 3.1-.5 4.2-1.4.6-.5.7-1.3.3-1.9-.4-.5-1.2-.7-2-.2-.7.5-1.4.8-2.4.8-1.3 0-2.5-.7-2.9-2.3h6.4c1.3 0 1.9-.7 1.9-2" class="st1" style="fill:#fff"/><path id="path1918" d="M100.2 62.8c.3-1.6 1.4-2.4 2.6-2.4 1.2 0 2.2.8 2.5 2.4zm8.4.3c-.1-2.5-2-5.4-5.8-5.4-3.1 0-5.9 2.5-5.9 6.2 0 3.6 2.5 6.2 6.2 6.2 1.7 0 3.1-.5 4.2-1.4.6-.5.7-1.3.3-1.9-.4-.5-1.2-.7-2-.2-.7.5-1.4.8-2.4.8-1.3 0-2.5-.7-2.9-2.3h6.4c1.4 0 2-.8 1.9-2" class="st1" style="fill:#fff"/><path id="path1920" d="M114.7 60.3c.6 0 1.7.2 2.6.8.5.3 1.4.3 1.8-.4.4-.7.2-1.5-.4-1.9-.9-.6-2.2-1-4.1-1-2.7 0-4.5 1.7-4.5 3.8 0 1.9 1 2.8 2.4 3.3.5.2 2.4.6 2.8.7.7.2 1.3.4 1.3 1 0 .7-.8 1-1.9.9-1 0-1.9-.4-2.7-.8-.6-.3-1.4-.2-1.8.5-.4.7 0 1.5.5 1.8.9.6 2.5 1.1 4.1 1.1 3.1 0 4.9-1.6 4.9-3.8 0-1.7-.8-2.8-2.7-3.4-.8-.3-2.3-.6-2.8-.8-.5-.2-1-.4-1-.9-.1-.5.4-.9 1.5-.9" class="st1" style="fill:#fff"/></g><g transform="translate(2.503 185.92) scale(.42363)" id="g856"><path style="fill:url(#D)" id="path36" clip-path="url(#C)" d="m117.3 41.6-17-36.5L139.2-13l17 36.5z"/><path style="fill:url(#G)" id="path38" clip-path="url(#F)" d="m111 8.2 21.3 12.3-11.6 20.3-21.4-12.4Z"/><path style="fill:#21356b" id="path40" d="M115.8 53.1c-.9.1-2.8.2-4.3.2s-1.7-1-1.7-1.8c0-1.3.6-1.7 2.1-2l3.9-.5zm3.6-7.3c0-3-1.2-4.6-4.9-4.6-2.3 0-5.4.3-6.7.4 0 1.8.5 2.7 2.1 2.7l4.4-.1c1.1 0 1.6.4 1.6 1.6v.5l-4.5.5c-3.2.5-5.1 1.4-5.1 4.6 0 2.9 1.4 4.6 4.5 4.6 3.2 0 6.8-.2 8.7-.5v-9.7zm5.6-.5c0-.9.7-1.3 1.6-1.3l3.8.1c1.6.1 2.4-.8 2.4-2.7l-5.7-.3c-3.2 0-5.6 1.2-5.6 4.2 0 3.1 1.8 4 5 4.5 2.9.5 3.5.7 3.5 1.7 0 1.2-1.4 1.4-2.7 1.4a75.99 75.99 0 0 1-5.3-.2l-.2 3 5.6.2c3.8 0 6.1-1.2 6.1-4.3 0-3-1.6-3.9-4.7-4.5-2.9-.5-3.8-.7-3.8-1.8m-20.7-1h-7.5c-.2 2.2.5 3.1 2.4 3.1h1.3v5l-4.4.3c-3 0-4.1-1.2-4.1-7 0-5.7.9-7 5.6-6.7l3.2.2c2.1.1 2.9-1 2.9-2.9l-6.9-.7c-6.9 0-8.7 2-8.7 10 0 7.9 2.2 10.2 7.9 10.2 2.1 0 6.2-.4 8.3-.9zm-48.5 1c0-.9.7-1.3 1.6-1.3l3.8.1c1.6.1 2.4-.8 2.4-2.7l-5.7-.3c-3.2 0-5.6 1.2-5.6 4.2 0 3.1 1.8 4 5 4.5 2.9.5 3.5.7 3.5 1.7 0 1.2-1.4 1.4-2.7 1.4a75.99 75.99 0 0 1-5.3-.2l-.2 3 5.6.2c3.8 0 6.1-1.2 6.1-4.3 0-3-1.6-3.9-4.7-4.5-2.9-.5-3.8-.7-3.8-1.8m-9.2-4.1h3.7v14.5h-3.7zm29.1-.1c-1.9 0-4.4 1-5.9 1.6v-7.3c-1.8-.2-3.6.3-3.6 2.3v18h3.6v-10c1.6-.6 3.5-1.3 4.8-1.3 1.1 0 1.7.7 1.7 1.6v9.7h3.6v-9.9c0-3-1.1-4.7-4.2-4.7m-48.1.1h3.6v14.5h-3.6zm11.9 2.9H42c1.9 0 2.6-.9 2.4-2.9h-5v-4.9c-1.8-.2-3.6.3-3.6 2.3v2.6h-2.7v2.9h2.7v6.6c0 3.6 1.5 5.2 5.3 5.2 1.2 0 2.1-.1 3.1-.2l-.1-2.9c-.7.1-1.7.1-2.5.1-1.4 0-2.1-.5-2.1-2zM27.6 40h3.6v-3.6c-1.8-.2-3.6.3-3.6 2.3zM23 41.1c-3.8.1-5.8 1.3-5.8 5.2v9.5h3.6v-9.5c0-1.8.7-2.1 2.1-2.1.9-.1 1.2.1 2-.3.7-.4 1-1.3 1-2.6-.9-.2-1.7-.3-2.9-.2M3.8 47.2H9c2 0 2.6.8 2.6 2.7 0 1.9-.6 2.8-2.6 2.8H3.8Zm11.5 2.9c0-3.2-1.4-4.3-3.2-4.6 1.5-.7 2.7-1.6 2.7-4.3 0-3.8-1.8-5.2-5.6-5.2H0v19.9h9.6c3.6-.1 5.7-1.5 5.7-5.8M3.8 44.2V39h4.7c2.1 0 2.6.7 2.6 2.6 0 1.9-.6 2.7-2.6 2.7H3.8ZM46.6 40h3.6v-3.6c-1.8-.2-3.6.3-3.6 2.3z"/></g><g aria-label="and more." style="font-style:normal;font-variant:normal;font-weight:700;font-stretch:normal;font-size:7.05555534px;line-height:1.25;font-family:'Open Sans';-inkscape-font-specification:'Open Sans Bold';letter-spacing:0;word-spacing:0;fill:#000;fill-opacity:1;stroke:none;stroke-width:.26458335" id="text2011"><path d="m150.477 266.56-.204-.523h-.027q-.266.334-.548.465-.28.128-.73.128-.555 0-.875-.317-.317-.317-.317-.903 0-.613.427-.902.43-.293 1.295-.324l.668-.021v-.169q0-.585-.599-.585-.462 0-1.085.279l-.348-.71q.665-.348 1.474-.348.776 0 1.189.338.413.337.413 1.026v2.567zm-.31-1.784-.407.014q-.458.014-.682.165-.224.152-.224.462 0 .445.51.445.365 0 .582-.21.22-.21.22-.559z" style="stroke-width:.26458335" id="path2013"/><path d="M155.847 266.56h-1.05v-2.249q0-.417-.148-.623-.149-.21-.472-.21-.441 0-.638.296-.196.293-.196.975v1.812h-1.05v-3.852h.802l.141.493h.059q.175-.28.482-.42.31-.145.703-.145.672 0 1.02.365.348.362.348 1.047z" style="stroke-width:.26458335" id="path2015"/><path d="M158.149 266.63q-.679 0-1.068-.527-.386-.527-.386-1.461 0-.947.393-1.475.396-.53 1.088-.53.727 0 1.11.565h.034q-.079-.43-.079-.768V261.2h1.054v5.36h-.806l-.203-.499h-.045q-.358.569-1.092.569zm.368-.837q.404 0 .59-.235.189-.234.206-.795v-.114q0-.62-.193-.889-.19-.269-.62-.269-.351 0-.548.3-.192.296-.192.865 0 .568.196.854.196.283.561.283z" style="stroke-width:.26458335" id="path2017"/><path d="M166.675 266.56h-1.05v-2.249q0-.417-.142-.623-.137-.21-.437-.21-.403 0-.586.296-.182.296-.182.975v1.812h-1.051v-3.852h.803l.14.493h.06q.154-.265.447-.414.293-.151.672-.151.865 0 1.171.565h.093q.155-.269.455-.417.303-.148.682-.148.655 0 .99.338.337.334.337 1.074v2.512h-1.055v-2.25q0-.417-.14-.623-.139-.21-.438-.21-.386 0-.58.275-.189.276-.189.875z" style="stroke-width:.26458335" id="path2019"/><path d="M170.992 264.628q0 .572.186.865.19.293.613.293.42 0 .603-.29.186-.293.186-.868 0-.572-.186-.858-.186-.286-.61-.286-.42 0-.606.286-.186.283-.186.858zm2.663 0q0 .94-.496 1.471-.496.53-1.381.53-.555 0-.979-.24-.424-.245-.65-.7-.228-.455-.228-1.06 0-.945.492-1.468.493-.524 1.385-.524.555 0 .979.241.423.241.65.693.228.45.228 1.057z" style="stroke-width:.26458335" id="path2021"/><path d="M176.673 262.637q.214 0 .355.03l-.08.986q-.127-.034-.31-.034-.502 0-.785.258-.279.259-.279.724v1.96h-1.05v-3.852h.795l.155.648h.052q.18-.324.482-.52.307-.2.665-.2z" style="stroke-width:.26458335" id="path2023"/><path d="M179.322 263.384q-.334 0-.523.214-.19.21-.217.6h1.474q-.007-.39-.203-.6-.196-.214-.53-.214zm.149 3.246q-.93 0-1.454-.514-.524-.513-.524-1.453 0-.968.482-1.496.486-.53 1.34-.53.817 0 1.272.465.454.465.454 1.285v.51h-2.483q.017.448.265.7.248.25.696.25.348 0 .658-.072.31-.072.647-.23v.813q-.275.137-.589.203-.313.069-.764.069z" style="stroke-width:.26458335" id="path2025"/><path d="M181.748 266.068q0-.29.155-.437.155-.148.451-.148.286 0 .441.151.159.152.159.434 0 .272-.159.43-.158.156-.44.156-.29 0-.449-.152-.158-.155-.158-.434z" style="stroke-width:.26458335" id="path2027"/></g></g><style id="style1890" type="text/css">.st1{fill:#fff}</style></svg>