<svg xmlns="http://www.w3.org/2000/svg" width="1130.52" height="1921.229" viewBox="0 0 299.117 508.325"><path d="M149.584 336.582v98.557l-2.646-.52.992-97.234zM140.258 322.88v15.923l2.684.72-1.24 2.145v36.255l-4.511-1.492v-34.085l-3.725-3.725v-13.898zM51.549 129.41v25.845l-12.143-3.922-3.313-5.891-.183-26.047 3.165 5.858 6.993 3.355z" fill="#e0e5e8"/><path d="M72.184 118.137a18.217 11.259 0 01-18.217 11.259 18.217 11.259 0 01-18.217-11.259 18.217 11.259 0 0118.217-11.259 18.217 11.259 0 0118.217 11.259z" fill="none" stroke="#000" stroke-width="2.117" stroke-linecap="round" stroke-linejoin="round"/><path d="M72.184 118.137l-.02 27.265h0c-1.238 5.473-8.843 9.685-18.04 9.685-9.174 0-16.765-4.192-18.03-9.645h0l-.326-27.276" fill="none" stroke="#000" stroke-width="2.117"/><path d="M137.317 225.947v7.181l-12.851-7.323v-7.134z" fill="#e0e5e8"/><g fill="none" stroke="#000" stroke-width="2.117"><path d="M124.466 218.67l24.993-14.646 25.088 14.647v7.134l-25.088 14.41-24.993-14.41z"/><path d="M124.466 218.67l24.993 14.27 25.088-14.27M149.46 232.94v7.275"/></g><path d="M149.412 194.764l-50.318 29.151 50.318 29.151 50.602-29.15zm0 5.197l41.672 23.954-41.672 24.002-41.53-24.002z" fill="#e0e5e8" stroke="#000" stroke-width="2.11664"/><path d="M147.14 129.41v25.845l-12.142-3.922-3.313-5.891-.183-26.047 3.165 5.858 6.993 3.355z" fill="#e0e5e8"/><path d="M167.775 118.137a18.217 11.259 0 01-18.217 11.259 18.217 11.259 0 01-18.217-11.259 18.217 11.259 0 0118.217-11.259 18.217 11.259 0 0118.217 11.259z" fill="none" stroke="#000" stroke-width="2.117" stroke-linecap="round" stroke-linejoin="round"/><path d="M167.775 118.137l-.019 27.265h0c-1.238 5.473-8.843 9.685-18.04 9.685-9.175 0-16.765-4.192-18.031-9.645h0l-.325-27.276" fill="none" stroke="#000" stroke-width="2.117"/><path d="M242.34 129.41v25.845l-12.143-3.922-3.313-5.891-.183-26.047 3.165 5.858 6.993 3.355z" fill="#e0e5e8"/><path d="M262.974 118.137a18.217 11.259 0 01-18.217 11.259 18.217 11.259 0 01-18.217-11.259 18.217 11.259 0 0118.217-11.259 18.217 11.259 0 0118.217 11.259z" fill="none" stroke="#000" stroke-width="2.117" stroke-linecap="round" stroke-linejoin="round"/><path d="M262.974 118.137l-.018 27.265h0c-1.24 5.473-8.844 9.685-18.04 9.685-9.175 0-16.766-4.192-18.032-9.645h0l-.325-27.276" fill="none" stroke="#000" stroke-width="2.117"/><path d="M149.393 161.549v27.97" fill="none" stroke="#000" stroke-width="2.117" stroke-dasharray="2.11666654,2.11666654"/><path d="M53.967 161.549v62.46" fill="none" stroke="#000" stroke-width="2.117" stroke-dasharray="2.11666667,2.11666667"/><path d="M244.757 161.549v62.46" fill="none" stroke="#000" stroke-width="2.117" stroke-dasharray="2.11666669,2.11666669"/><path d="M56.083 224.008H93.04" fill="none" stroke="#000" stroke-width="2.117" stroke-dasharray="2.11666667,2.11666667"/><path d="M242.693 224.008h-36.955" fill="none" stroke="#000" stroke-width="2.117" stroke-dasharray="2.11666669,2.11666669"/><path d="M149.393 260.09v52.652" fill="none" stroke="#000" stroke-width="2.117" stroke-dasharray="2.11666667,2.11666667"/><g fill="none" stroke="#000" stroke-width="1.312"><path d="M137.227 340.601v35.876l8.518 2.283v-36.176z" stroke-width="2.11739744"/><path d="M137.218 340.401l.648-2.325 10.141 2.668-.153 36.067-2.118 1.748M145.745 342.584l2.272-1.64" stroke-width="2.11739744"/><path d="M137.18 362.208l-1.556.85-1.604-1.773v-36.192l7.79-3.114 2.427 1.105-.175 16.499" stroke-width="2.11739744"/><path d="M135.624 363.057l-.017-36.085 8.63-3.888M135.607 326.972l-1.587-1.88M160.54 335.454l.096-7.281 3.24-.02 1.22 5.433-.076 36.067-3.05.572-.686-2.631" stroke-width="2.11739744"/><path d="M160.636 328.173l1.353 6.042 3.108-.629M161.99 334.215l-.02 36.01M147.854 376.81l-.705 57.028c0 1.94 4.744 1.941 4.744.034l-.539-96.473c0-1.492-3.666-1.169-3.666-.107v2.857M151.536 344.732l9.47-.755M151.752 365.167l10.062-.917M143.213 378.019l-.386 16.067M162.69 369.534l.216 17.307" stroke-width="2.11739744"/></g><path d="M148.545 446.789v52.652" fill="none" stroke="#000" stroke-width="2.117" stroke-dasharray="2.11666669,2.11666669"/><g clip-rule="evenodd" fill-rule="evenodd" stroke-width="13.897" stroke-linecap="round" stroke-linejoin="round"><path d="M234.833 43.854L123.79 200.148c27.435 8.838 55.13 17.127 82.463 25.245l-41.086 130.753L276.21 199.853c-27.434-8.839-55.13-17.126-82.463-25.246z" fill="none" stroke="#000" stroke-linecap="butt" stroke-linejoin="miter" transform="matrix(.15112 0 0 .15352 23.742 39.597)"/></g><g clip-rule="evenodd" fill-rule="evenodd" stroke-width="14.072" stroke-linecap="round" stroke-linejoin="round"><circle r="15.5" cy="169.5" cx="201.5" fill="none" stroke="#000" transform="matrix(.14991 0 0 .15092 119.35 39.665)"/><path d="M226 166.5h55" fill="none" stroke="#000" transform="matrix(.12974 -.05564 .05875 .13884 114.43 52.984)" stroke-width="14.509"/><path d="M168 312v42h63v-42" fill="none" stroke="#000" transform="matrix(.14991 0 0 .15092 119.576 39.967)"/><circle r="110" cy="190" cx="212" fill="none" stroke="#000" transform="matrix(.16286 0 0 .16395 115.032 34.095)" stroke-width="12.953"/><circle r="86.5" cy="182.5" cx="219.5" fill="none" stroke="#000" transform="matrix(.16378 0 0 .16488 113.609 35.156)" stroke-width="12.881"/><path d="M157 279v33h87v-32" fill="none" stroke="#000" transform="matrix(.14991 0 0 .15092 119.576 39.967)"/><g><path d="M200.5 72v26" fill="none" stroke="#000" transform="matrix(.14991 0 0 .15092 119.65 40.118)"/><path d="M200.5 72v26" fill="none" stroke="#000" transform="matrix(.106 .10672 -.106 .10672 146.06 26.188)"/><path d="M200.5 72v26" fill="none" stroke="#000" transform="matrix(0 .15092 -.14991 0 174.52 35.138)"/><path d="M200.5 72v26" fill="none" stroke="#000" transform="matrix(-.106 .10672 -.106 -.10672 188.356 61.724)"/><path d="M200.5 72v26" fill="none" stroke="#000" transform="matrix(-.14991 0 0 -.15092 179.466 90.373)"/><path d="M200.5 72v26" fill="none" stroke="#000" transform="matrix(-.106 -.10672 .106 -.10672 153.057 104.303)"/><path d="M200.5 72v26" fill="none" stroke="#000" transform="matrix(0 -.15092 .14991 0 124.598 95.354)"/><path d="M200.5 72v26" fill="none" stroke="#000" transform="matrix(.106 -.10672 .106 .10672 110.76 68.767)"/></g></g><g clip-rule="evenodd" fill-rule="evenodd" stroke-width="13.459" stroke-linecap="round" stroke-linejoin="round"><g fill="#fff" stroke-width="27.754"><path d="M304 243.75s-1.104 19.281-3.636 28.273C288.028 315.841 247.74 348 200 348c-57.537 0-104.25-46.713-104.25-104.25C95.758 143.075 200.049 86.464 200 49h-.25c-.049 37.464 104.242 94.075 104.25 194.75z" stroke="#000" transform="matrix(.07585 0 0 .07668 221.308 41.56)"/><path d="M304 243.75s-1.104 19.281-3.636 28.273C288.028 315.841 247.74 348 200 348c-57.537 0-104.25-46.713-104.25-104.25C95.758 143.075 200.049 86.464 200 49h-.25c-.049 37.464 104.242 94.075 104.25 194.75z" stroke="#000" transform="matrix(.07585 0 0 .07668 237.886 54.21)"/><path d="M304 243.75s-1.104 19.281-3.636 28.273C288.028 315.841 247.74 348 200 348c-57.537 0-104.25-46.713-104.25-104.25C95.758 143.075 200.049 86.464 200 49h-.25c-.049 37.464 104.242 94.075 104.25 194.75z" stroke="#000" transform="matrix(.07585 0 0 .07668 221.308 68.6)"/></g></g><text style="line-height:1.25;-inkscape-font-specification:'Open Sans Bold'" x="35.002" y="24.328" font-weight="700" font-size="7.056" font-family="Open Sans" letter-spacing="0" word-spacing="0" stroke-width=".265" transform="translate(1.058 7.99)"><tspan x="35.002" y="24.328">Electricity</tspan></text><text style="line-height:1.25;-inkscape-font-specification:'Open Sans Bold'" x="141.99" y="25.954" font-weight="700" font-size="7.056" font-family="Open Sans" letter-spacing="0" word-spacing="0" stroke-width=".265" transform="translate(1.058 7.99)"><tspan x="141.99" y="25.954">Gas</tspan></text><text style="line-height:1.25;-inkscape-font-specification:'Open Sans Bold'" x="233.014" y="25.954" font-weight="700" font-size="7.056" font-family="Open Sans" letter-spacing="0" word-spacing="0" stroke-width=".265" transform="translate(1.058 7.99)"><tspan x="233.014" y="25.954">Water</tspan></text><text style="line-height:1.25;-inkscape-font-specification:'Open Sans Bold'" x="180.229" y="243.573" font-weight="700" font-size="7.056" font-family="Open Sans" letter-spacing="0" word-spacing="0" stroke-width=".265" transform="translate(1.058 7.99)"><tspan x="180.229" y="243.573">Wireless</tspan><tspan x="180.229" y="252.392">Gateway</tspan></text><text style="line-height:1.25;-inkscape-font-specification:'Open Sans Bold'" x="173.417" y="368.838" font-weight="700" font-size="7.056" font-family="Open Sans" letter-spacing="0" word-spacing="0" stroke-width=".265" transform="translate(1.058 7.99)"><tspan x="173.417" y="368.838">Cellular</tspan><tspan x="173.417" y="377.657">Transfer</tspan></text></svg>