<svg xmlns="http://www.w3.org/2000/svg" width="1130.52" height="1921.229" viewBox="0 0 299.117 508.325"><path d="M149.584 336.582v98.557l-2.646-.52.992-97.234zm-9.326-13.702v15.923l2.684.72-1.24 2.145v36.255l-4.511-1.492v-34.085l-3.725-3.725v-13.898zM51.549 129.41v25.845l-12.143-3.922-3.313-5.891-.183-26.047 3.165 5.858 6.993 3.355z" fill="#e0e5e8"/><path d="M72.184 118.137a18.217 11.259 0 01-18.217 11.259 18.217 11.259 0 01-18.217-11.259 18.217 11.259 0 0118.217-11.259 18.217 11.259 0 0118.217 11.259z" fill="none" stroke="#000" stroke-width="2.117" stroke-linecap="round" stroke-linejoin="round"/><path d="M72.184 118.137l-.02 27.265h0c-1.238 5.473-8.843 9.685-18.04 9.685-9.174 0-16.765-4.192-18.03-9.645h0l-.326-27.276" fill="none" stroke="#000" stroke-width="2.117"/><path d="M137.317 225.947v7.181l-12.851-7.323v-7.134z" fill="#e0e5e8"/><g fill="none" stroke="#000" stroke-width="2.117"><path d="M124.466 218.67l24.993-14.646 25.088 14.647v7.134l-25.088 14.41-24.993-14.41z"/><path d="M124.466 218.67l24.993 14.27 25.088-14.27m-25.087 14.27v7.275"/></g><path d="M149.412 194.764l-50.318 29.151 50.318 29.151 50.602-29.15zm0 5.197l41.672 23.954-41.672 24.002-41.53-24.002z" fill="#e0e5e8" stroke="#000" stroke-width="2.117"/><path d="M147.14 129.41v25.845l-12.142-3.922-3.313-5.891-.183-26.047 3.165 5.858 6.993 3.355z" fill="#e0e5e8"/><path d="M167.775 118.137a18.217 11.259 0 01-18.217 11.259 18.217 11.259 0 01-18.217-11.259 18.217 11.259 0 0118.217-11.259 18.217 11.259 0 0118.217 11.259z" fill="none" stroke="#000" stroke-width="2.117" stroke-linecap="round" stroke-linejoin="round"/><path d="M167.775 118.137l-.019 27.265h0c-1.238 5.473-8.843 9.685-18.04 9.685-9.175 0-16.765-4.192-18.031-9.645h0l-.325-27.276" fill="none" stroke="#000" stroke-width="2.117"/><path d="M242.34 129.41v25.845l-12.143-3.922-3.313-5.891-.183-26.047 3.165 5.858 6.993 3.355z" fill="#e0e5e8"/><path d="M262.974 118.137a18.217 11.259 0 01-18.217 11.259 18.217 11.259 0 01-18.217-11.259 18.217 11.259 0 0118.217-11.259 18.217 11.259 0 0118.217 11.259z" fill="none" stroke="#000" stroke-width="2.117" stroke-linecap="round" stroke-linejoin="round"/><path d="M262.974 118.137l-.018 27.265h0c-1.24 5.473-8.844 9.685-18.04 9.685-9.175 0-16.766-4.192-18.032-9.645h0l-.325-27.276" fill="none" stroke="#000" stroke-width="2.117"/><path d="M149.393 161.549v27.97" fill="none" stroke="#000" stroke-width="2.117" stroke-dasharray="2.11666654,2.11666654"/><path d="M53.967 161.549v62.46" fill="none" stroke="#000" stroke-width="2.117" stroke-dasharray="2.11666667,2.11666667"/><path d="M244.757 161.549v62.46" fill="none" stroke="#000" stroke-width="2.117" stroke-dasharray="2.11666669,2.11666669"/><path d="M56.083 224.008H93.04" fill="none" stroke="#000" stroke-width="2.117" stroke-dasharray="2.11666667,2.11666667"/><path d="M242.693 224.008h-36.955" fill="none" stroke="#000" stroke-width="2.117" stroke-dasharray="2.11666669,2.11666669"/><path d="M149.393 260.09v52.652" fill="none" stroke="#000" stroke-width="2.117" stroke-dasharray="2.11666667,2.11666667"/><g fill="none" stroke="#000" stroke-width="2.117"><path d="M137.227 340.601v35.876l8.518 2.283v-36.176z"/><path d="M137.218 340.401l.648-2.325 10.141 2.668-.153 36.067-2.118 1.748m.009-35.975l2.272-1.64"/><path d="M137.18 362.208l-1.556.85-1.604-1.773v-36.192l7.79-3.114 2.427 1.105-.175 16.499"/><path d="M135.624 363.057l-.017-36.085 8.63-3.888m-8.63 3.888l-1.587-1.88m26.52 10.362l.096-7.281 3.24-.02 1.22 5.433-.076 36.067-3.05.572-.686-2.631"/><path d="M160.636 328.173l1.353 6.042 3.108-.629m-3.107.629l-.02 36.01m-14.116 6.585l-.705 57.028c0 1.94 4.744 1.941 4.744.034l-.539-96.473c0-1.492-3.666-1.169-3.666-.107v2.857m3.848 4.583l9.47-.755m-9.254 21.19l10.062-.917m-18.601 13.769l-.386 16.067m19.863-24.552l.216 17.307"/></g><path d="M148.545 446.789v52.652" fill="none" stroke="#000" stroke-width="2.117" stroke-dasharray="2.11666669,2.11666669"/><path d="M234.833 43.854L123.79 200.148c27.435 8.838 55.13 17.127 82.463 25.245l-41.086 130.753L276.21 199.853c-27.434-8.839-55.13-17.126-82.463-25.246z" fill="none" stroke="#000" stroke-linecap="butt" stroke-linejoin="miter" transform="matrix(.15112 0 0 .15352 23.742 39.597)" clip-rule="evenodd" fill-rule="evenodd" stroke-width="13.897"/><g clip-rule="evenodd" fill-rule="evenodd" stroke-width="14.072" stroke-linecap="round" stroke-linejoin="round" fill="none" stroke="#000"><circle r="15.5" cy="169.5" cx="201.5" transform="matrix(.14991 0 0 .15092 119.35 39.665)"/><path d="M226 166.5h55" transform="matrix(.12974 -.05564 .05875 .13884 114.43 52.984)" stroke-width="14.509"/><path d="M168 312v42h63v-42" transform="matrix(.14991 0 0 .15092 119.576 39.967)"/><circle r="110" cy="190" cx="212" transform="matrix(.16286 0 0 .16395 115.032 34.095)" stroke-width="12.953"/><circle r="86.5" cy="182.5" cx="219.5" transform="matrix(.16378 0 0 .16488 113.609 35.156)" stroke-width="12.881"/><path d="M157 279v33h87v-32" transform="matrix(.14991 0 0 .15092 119.576 39.967)"/><path d="M200.5 72v26" transform="matrix(.14991 0 0 .15092 119.65 40.118)"/><path d="M200.5 72v26" transform="scale(.1499 .15092) rotate(45 277.717 1262.89)"/><path d="M200.5 72v26" transform="matrix(0 .15092 -.14991 0 174.52 35.138)"/><path d="M200.5 72v26" transform="matrix(-.106 .10672 -.106 -.10672 188.356 61.724)"/><path d="M200.5 72v26" transform="matrix(-.14991 0 0 -.15092 179.466 90.373)"/><path d="M200.5 72v26" transform="scale(-.1499 -.15092) rotate(45 323.714 -1578.02)"/><path d="M200.5 72v26" transform="matrix(0 -.15092 .14991 0 124.598 95.354)"/><path d="M200.5 72v26" transform="matrix(.106 -.10672 .106 .10672 110.76 68.767)"/></g><g fill="#fff" stroke-width="27.754" stroke="#000" clip-rule="evenodd" fill-rule="evenodd" stroke-linecap="round" stroke-linejoin="round"><path d="M304 243.75s-1.104 19.281-3.636 28.273C288.028 315.841 247.74 348 200 348c-57.537 0-104.25-46.713-104.25-104.25C95.758 143.075 200.049 86.464 200 49h-.25c-.049 37.464 104.242 94.075 104.25 194.75z" transform="matrix(.07585 0 0 .07668 221.308 41.56)"/><path d="M304 243.75s-1.104 19.281-3.636 28.273C288.028 315.841 247.74 348 200 348c-57.537 0-104.25-46.713-104.25-104.25C95.758 143.075 200.049 86.464 200 49h-.25c-.049 37.464 104.242 94.075 104.25 194.75z" transform="matrix(.07585 0 0 .07668 237.886 54.21)"/><path d="M304 243.75s-1.104 19.281-3.636 28.273C288.028 315.841 247.74 348 200 348c-57.537 0-104.25-46.713-104.25-104.25C95.758 143.075 200.049 86.464 200 49h-.25c-.049 37.464 104.242 94.075 104.25 194.75z" transform="matrix(.07585 0 0 .07668 221.308 68.6)"/></g><g aria-label="Electricity" style="line-height:1.25;-inkscape-font-specification:'Open Sans Bold'" font-weight="700" font-size="7.056" font-family="Open Sans" letter-spacing="0" word-spacing="0" stroke-width=".265"><path d="M39.595 32.318h-2.901v-5.037h2.9v.875h-1.832v1.106h1.705v.875h-1.705v1.299h1.833zM41.614 32.318h-1.051v-5.36h1.05zM44.312 29.141q-.335 0-.524.214-.19.21-.217.6h1.474q-.007-.39-.203-.6-.196-.214-.53-.214zm.148 3.246q-.93 0-1.454-.513-.524-.514-.524-1.454 0-.969.482-1.496.486-.53 1.34-.53.817 0 1.272.465.455.465.455 1.285v.51h-2.484q.017.448.265.7.248.25.696.25.348 0 .658-.072.31-.072.648-.23v.813q-.276.138-.59.203-.313.069-.764.069zM48.45 32.387q-1.8 0-1.8-1.974 0-.982.49-1.499.49-.52 1.402-.52.669 0 1.2.262l-.31.813q-.249-.1-.462-.162-.214-.066-.428-.066-.82 0-.82 1.165 0 1.13.82 1.13.304 0 .562-.08.258-.082.517-.254v.899q-.255.162-.517.224-.258.062-.655.062zM52.136 31.55q.275 0 .661-.12v.781q-.392.176-.964.176-.63 0-.92-.317-.286-.32-.286-.958v-1.857h-.503v-.444l.579-.352.303-.813h.672v.82h1.078v.79h-1.078v1.856q0 .224.124.33.127.108.334.108zM55.726 28.394q.213 0 .355.03l-.08.986q-.127-.034-.31-.034-.503 0-.785.258-.28.259-.28.724v1.96h-1.05v-3.852h.796l.155.648h.052q.179-.324.482-.52.307-.2.665-.2zM56.735 27.47q0-.513.572-.513t.572.513q0 .245-.145.383-.14.134-.427.134-.572 0-.572-.517zm1.096 4.848h-1.05v-3.852h1.05zM60.498 32.387q-1.799 0-1.799-1.974 0-.982.49-1.499.489-.52 1.402-.52.668 0 1.199.262l-.31.813q-.249-.1-.462-.162-.214-.066-.427-.066-.82 0-.82 1.165 0 1.13.82 1.13.303 0 .561-.08.259-.082.517-.254v.899q-.255.162-.517.224-.258.062-.654.062zM62.517 27.47q0-.513.571-.513.572 0 .572.513 0 .245-.144.383-.142.134-.428.134-.571 0-.571-.517zm1.095 4.848h-1.05v-3.852h1.05zM66.337 31.55q.276 0 .662-.12v.781q-.393.176-.965.176-.63 0-.92-.317-.286-.32-.286-.958v-1.857h-.503v-.444l.58-.352.302-.813h.672v.82h1.079v.79h-1.079v1.856q0 .224.124.33.128.108.334.108zM67.226 28.466h1.151l.727 2.167q.093.283.127.669h.021q.038-.355.148-.669l.713-2.167h1.127l-1.63 4.345q-.223.603-.64.902-.414.3-.969.3-.272 0-.534-.058v-.834q.19.045.414.045.279 0 .486-.173.21-.169.327-.513l.062-.19z"/></g><g aria-label="Gas" style="line-height:1.25;-inkscape-font-specification:'Open Sans Bold'" font-weight="700" font-size="7.056" font-family="Open Sans" letter-spacing="0" word-spacing="0" stroke-width=".265"><path d="M145.594 31.115h1.998v2.612q-.485.158-.916.22-.427.066-.875.066-1.14 0-1.744-.668-.599-.672-.599-1.926 0-1.22.696-1.902.7-.682 1.936-.682.775 0 1.495.31l-.354.854q-.552-.276-1.148-.276-.692 0-1.11.466-.416.465-.416 1.25 0 .82.334 1.254.338.431.979.431.334 0 .678-.069v-1.05h-.954zM151.155 33.944l-.203-.524h-.028q-.265.335-.548.465-.279.128-.73.128-.555 0-.875-.317-.317-.317-.317-.903 0-.613.427-.902.43-.293 1.295-.324l.669-.02v-.17q0-.585-.6-.585-.461 0-1.085.279l-.348-.71q.665-.348 1.475-.348.775 0 1.188.338.414.337.414 1.026v2.567zm-.31-1.785l-.407.014q-.458.014-.682.165-.224.152-.224.462 0 .445.51.445.365 0 .582-.21.22-.21.22-.559zM155.658 32.8q0 .593-.414.903-.41.31-1.23.31-.42 0-.716-.059-.296-.055-.555-.165v-.868q.293.138.658.23.369.094.648.094.572 0 .572-.331 0-.124-.076-.2-.076-.08-.262-.176-.186-.1-.496-.23-.444-.187-.655-.345-.206-.159-.303-.362-.093-.207-.093-.506 0-.514.396-.793.4-.282 1.13-.282.696 0 1.355.303l-.317.758q-.29-.124-.541-.203-.252-.08-.514-.08-.465 0-.465.252 0 .141.148.245.152.103.658.306.452.183.662.341.21.159.31.365.1.207.1.493z"/></g><g aria-label="Water" style="line-height:1.25;-inkscape-font-specification:'Open Sans Bold'" font-weight="700" font-size="7.056" font-family="Open Sans" letter-spacing="0" word-spacing="0" stroke-width=".265"><path d="M239.612 33.944h-1.216l-.682-2.646q-.038-.141-.131-.582-.09-.445-.104-.596-.02.186-.103.6-.083.41-.127.585l-.68 2.639h-1.212l-1.285-5.037h1.05l.645 2.75q.169.76.245 1.319.02-.197.093-.607.076-.413.141-.64l.734-2.822h1.01l.733 2.822q.048.19.12.578.073.39.111.669.034-.269.11-.669.076-.403.138-.65l.64-2.75h1.052zM243.891 33.944l-.203-.524h-.028q-.265.335-.548.465-.279.128-.73.128-.555 0-.875-.317-.317-.317-.317-.903 0-.613.427-.902.43-.293 1.296-.324l.668-.02v-.17q0-.585-.6-.585-.461 0-1.085.279l-.348-.71q.665-.348 1.475-.348.775 0 1.189.338.413.337.413 1.026v2.567zm-.31-1.785l-.406.014q-.459.014-.683.165-.224.152-.224.462 0 .445.51.445.366 0 .583-.21.22-.21.22-.559zM247.33 33.176q.275 0 .661-.12v.781q-.393.176-.965.176-.63 0-.92-.317-.285-.32-.285-.958v-1.857h-.503v-.444l.578-.352.304-.813h.671v.82h1.079v.79h-1.079v1.856q0 .224.124.33.128.108.335.108zM250.365 30.767q-.334 0-.524.214-.19.21-.217.6h1.475q-.007-.39-.204-.6-.196-.214-.53-.214zm.148 3.246q-.93 0-1.454-.513-.524-.514-.524-1.454 0-.968.483-1.496.486-.53 1.34-.53.817 0 1.271.465.455.465.455 1.285v.51H249.6q.017.448.265.7.248.25.696.25.348 0 .658-.072.31-.072.648-.23v.813q-.276.138-.59.203-.313.069-.764.069zM255.088 30.02q.214 0 .355.03l-.079.986q-.127-.034-.31-.034-.503 0-.786.258-.279.259-.279.724v1.96h-1.05v-3.852h.795l.155.648h.052q.18-.324.483-.52.306-.2.664-.2z"/></g><g aria-label="WirelessGateway" style="line-height:1.25;-inkscape-font-specification:'Open Sans Bold'" font-weight="700" font-size="7.056" font-family="Open Sans" letter-spacing="0" word-spacing="0" stroke-width=".265"><path d="M186.827 251.563h-1.216l-.682-2.646q-.038-.141-.131-.582-.09-.445-.104-.596-.02.186-.103.6-.083.41-.127.585l-.68 2.639h-1.212l-1.285-5.037h1.05l.645 2.75q.169.76.245 1.319.02-.197.093-.607.076-.413.141-.64l.734-2.822h1.01l.733 2.822q.048.19.12.578.073.39.111.669.034-.269.11-.669.076-.403.138-.65l.64-2.75h1.052zM188.615 246.715q0-.513.572-.513t.572.513q0 .245-.145.383-.14.134-.427.134-.572 0-.572-.517zm1.096 4.848h-1.051v-3.852h1.05zM192.963 247.639q.214 0 .355.03l-.08.986q-.127-.034-.31-.034-.502 0-.785.258-.279.258-.279.724v1.96h-1.05v-3.852h.795l.155.648h.052q.179-.324.482-.52.307-.2.665-.2zM195.613 248.386q-.335 0-.524.214-.19.21-.217.6h1.474q-.007-.39-.203-.6-.196-.214-.53-.214zm.148 3.246q-.93 0-1.454-.513-.524-.514-.524-1.454 0-.969.482-1.496.486-.53 1.34-.53.817 0 1.272.465.455.465.455 1.285v.51h-2.484q.017.448.265.7.248.25.696.25.348 0 .658-.072.31-.072.648-.23v.813q-.276.137-.59.203-.313.069-.764.069zM199.237 251.563h-1.05v-5.36h1.05zM201.935 248.386q-.334 0-.524.214-.19.21-.217.6h1.475q-.007-.39-.204-.6-.196-.214-.53-.214zm.148 3.246q-.93 0-1.454-.513-.524-.514-.524-1.454 0-.969.483-1.496.485-.53 1.34-.53.816 0 1.271.465.455.465.455 1.285v.51h-2.484q.017.448.265.7.248.25.696.25.348 0 .658-.072.31-.072.648-.23v.813q-.276.137-.59.203-.313.069-.764.069zM207.196 250.42q0 .592-.414.902-.41.31-1.23.31-.42 0-.716-.059-.297-.055-.555-.165v-.868q.293.138.658.23.369.094.648.094.572 0 .572-.331 0-.124-.076-.2-.076-.08-.262-.176-.186-.1-.496-.23-.444-.187-.655-.345-.206-.159-.303-.362-.093-.207-.093-.506 0-.514.396-.793.4-.282 1.13-.282.696 0 1.354.303l-.317.758q-.289-.124-.54-.203-.252-.08-.514-.08-.465 0-.465.252 0 .141.148.245.152.103.658.306.452.183.662.341.21.159.31.365.1.207.1.493zM210.703 250.42q0 .592-.413.902-.41.31-1.23.31-.42 0-.717-.059-.296-.055-.555-.165v-.868q.293.138.658.23.369.094.648.094.572 0 .572-.331 0-.124-.076-.2-.076-.08-.262-.176-.186-.1-.496-.23-.444-.187-.654-.345-.207-.159-.304-.362-.093-.207-.093-.506 0-.514.397-.793.4-.282 1.13-.282.696 0 1.354.303l-.317.758q-.29-.124-.541-.203-.252-.08-.513-.08-.466 0-.466.252 0 .141.149.245.151.103.658.306.45.183.661.341.21.159.31.365.1.207.1.493zM183.833 257.553h1.998v2.612q-.485.158-.916.22-.427.066-.875.066-1.14 0-1.744-.668-.599-.672-.599-1.926 0-1.22.696-1.902.7-.682 1.936-.682.775 0 1.495.31l-.354.854q-.552-.275-1.148-.275-.692 0-1.11.465-.416.465-.416 1.25 0 .82.334 1.254.338.431.979.431.334 0 .678-.069v-1.05h-.954zM189.394 260.382l-.203-.524h-.028q-.265.335-.548.465-.279.128-.73.128-.555 0-.875-.317-.317-.317-.317-.903 0-.613.427-.902.43-.293 1.295-.324l.669-.021v-.169q0-.585-.6-.585-.461 0-1.085.279l-.348-.71q.665-.348 1.475-.348.775 0 1.188.338.414.337.414 1.026v2.567zm-.31-1.785l-.407.014q-.458.014-.682.166-.224.151-.224.461 0 .445.51.445.365 0 .582-.21.22-.21.22-.559zM192.832 259.614q.276 0 .662-.12v.781q-.393.176-.965.176-.63 0-.92-.317-.286-.32-.286-.958v-1.857h-.503v-.444l.579-.352.303-.813h.672v.82h1.078v.79h-1.078v1.856q0 .224.124.33.128.108.334.108zM195.868 257.205q-.335 0-.524.214-.19.21-.217.6h1.474q-.007-.39-.203-.6-.196-.214-.53-.214zm.148 3.246q-.93 0-1.454-.513-.524-.514-.524-1.454 0-.968.482-1.496.486-.53 1.34-.53.817 0 1.272.465.455.465.455 1.285v.51h-2.484q.017.448.265.7.248.25.696.25.348 0 .658-.072.31-.072.648-.23v.813q-.276.137-.59.203-.313.069-.764.069zM201.607 260.382l-.296-1.347-.4-1.702h-.024l-.702 3.049h-1.13l-1.096-3.852h1.047l.445 1.706q.107.458.217 1.264h.02q.014-.262.121-.83l.055-.293.476-1.847h1.157l.452 1.847.041.224q.031.148.059.317.027.165.048.327.024.159.027.255h.021q.031-.248.11-.679.08-.434.114-.585l.462-1.706h1.03l-1.11 3.852zM206.927 260.382l-.203-.524h-.028q-.265.335-.548.465-.279.128-.73.128-.555 0-.875-.317-.317-.317-.317-.903 0-.613.427-.902.43-.293 1.296-.324l.668-.021v-.169q0-.585-.6-.585-.461 0-1.085.279l-.348-.71q.665-.348 1.475-.348.775 0 1.188.338.414.337.414 1.026v2.567zm-.31-1.785l-.407.014q-.458.014-.682.166-.224.151-.224.461 0 .445.51.445.365 0 .582-.21.22-.21.22-.559zM208.191 256.53h1.151l.727 2.167q.093.283.128.669h.02q.038-.355.148-.669l.714-2.167h1.126l-1.63 4.345q-.223.603-.64.902-.414.3-.968.3-.273 0-.534-.059v-.833q.19.045.413.045.28 0 .486-.173.21-.169.327-.513l.062-.19z"/></g><g aria-label="CellularTransfer" style="line-height:1.25;-inkscape-font-specification:'Open Sans Bold'" font-weight="700" font-size="7.056" font-family="Open Sans" letter-spacing="0" word-spacing="0" stroke-width=".265"><path d="M177.248 372.608q-.602 0-.933.454-.331.452-.331 1.261 0 1.685 1.264 1.685.531 0 1.286-.265v.896q-.62.258-1.385.258-1.1 0-1.682-.665-.582-.668-.582-1.916 0-.785.286-1.374.286-.593.82-.906.537-.317 1.257-.317.734 0 1.475.354l-.344.869q-.283-.135-.569-.235-.286-.1-.562-.1zM181.118 373.651q-.335 0-.524.214-.19.21-.217.6h1.474q-.007-.39-.203-.6-.196-.214-.53-.214zm.148 3.246q-.93 0-1.454-.513-.524-.514-.524-1.454 0-.968.482-1.496.486-.53 1.34-.53.817 0 1.272.465.455.465.455 1.285v.51h-2.484q.017.448.265.7.248.25.696.25.348 0 .658-.071.31-.073.648-.231v.813q-.276.138-.59.203-.313.069-.764.069zM184.742 376.828h-1.05v-5.36h1.05zM186.895 376.828h-1.05v-5.36h1.05zM190.727 376.828l-.142-.493h-.055q-.169.27-.479.417-.31.145-.706.145-.679 0-1.023-.362-.345-.365-.345-1.047v-2.512h1.051v2.25q0 .417.148.627.148.207.472.207.441 0 .638-.293.196-.296.196-.979v-1.812h1.05v3.852zM193.686 376.828h-1.05v-5.36h1.05zM197.235 376.828l-.204-.524h-.027q-.265.335-.548.465-.279.128-.73.128-.555 0-.875-.317-.317-.317-.317-.903 0-.613.427-.902.43-.293 1.295-.324l.669-.021v-.169q0-.585-.6-.585-.462 0-1.085.279l-.348-.71q.665-.348 1.474-.348.776 0 1.19.338.413.337.413 1.026v2.567zm-.31-1.785l-.407.014q-.458.014-.682.166-.224.151-.224.461 0 .445.51.445.365 0 .582-.21.22-.21.22-.559zM201.2 372.904q.214 0 .355.03l-.079.986q-.128-.034-.31-.034-.503 0-.786.258-.279.259-.279.724v1.96h-1.05v-3.852h.795l.155.648h.052q.18-.324.482-.52.307-.2.665-.2zM177.052 385.647h-1.068v-4.148h-1.368v-.889h3.804v.889h-1.368zM181.262 381.723q.214 0 .355.03l-.08.986q-.127-.034-.31-.034-.502 0-.785.258-.279.259-.279.724v1.96h-1.05v-3.852h.795l.155.648h.052q.18-.324.482-.52.307-.2.665-.2zM184.763 385.647l-.204-.524h-.027q-.265.335-.548.465-.279.128-.73.128-.555 0-.875-.317-.317-.317-.317-.903 0-.613.427-.902.43-.293 1.295-.324l.669-.021v-.169q0-.585-.6-.585-.462 0-1.085.279l-.348-.71q.665-.348 1.474-.348.776 0 1.19.338.413.337.413 1.026v2.567zm-.31-1.785l-.407.014q-.458.014-.682.166-.224.151-.224.461 0 .445.51.445.365 0 .582-.21.22-.21.22-.559zM190.134 385.647h-1.05v-2.25q0-.417-.149-.623-.148-.21-.472-.21-.441 0-.637.296-.197.293-.197.975v1.812h-1.05v-3.852h.802l.141.493h.059q.176-.28.482-.42.31-.145.703-.145.672 0 1.02.365.348.362.348 1.047zM193.903 384.503q0 .593-.413.903-.41.31-1.23.31-.42 0-.717-.059-.296-.055-.555-.165v-.868q.293.138.658.23.37.094.648.094.572 0 .572-.331 0-.124-.076-.2-.076-.08-.262-.176-.186-.1-.496-.23-.444-.187-.654-.345-.207-.159-.303-.362-.093-.207-.093-.506 0-.514.396-.793.4-.282 1.13-.282.696 0 1.354.303l-.317.758q-.29-.124-.541-.203-.252-.08-.513-.08-.466 0-.466.252 0 .141.149.245.151.103.658.306.451.183.661.341.21.159.31.365.1.207.1.493zM196.852 382.584h-.91v3.063h-1.05v-3.063h-.579v-.506l.579-.283v-.282q0-.658.324-.962.324-.303 1.037-.303.544 0 .968.162l-.269.772q-.317-.1-.585-.1-.224 0-.324.134-.1.131-.1.338v.241h.91zM199.05 382.47q-.334 0-.523.214-.19.21-.217.6h1.474q-.007-.39-.203-.6-.196-.214-.53-.214zm.149 3.246q-.93 0-1.454-.513-.524-.514-.524-1.454 0-.968.482-1.496.486-.53 1.34-.53.817 0 1.272.465.455.465.455 1.285v.51h-2.484q.017.448.265.7.248.25.696.25.348 0 .658-.071.31-.073.648-.231v.813q-.276.138-.59.203-.313.069-.764.069zM203.774 381.723q.214 0 .355.03l-.08.986q-.127-.034-.31-.034-.502 0-.785.258-.28.259-.28.724v1.96h-1.05v-3.852h.796l.155.648h.052q.179-.324.482-.52.307-.2.665-.2z"/></g></svg>