<?xml version="1.0" encoding="UTF-8" standalone="no"?>
<svg
   xmlns:dc="http://purl.org/dc/elements/1.1/"
   xmlns:cc="http://creativecommons.org/ns#"
   xmlns:rdf="http://www.w3.org/1999/02/22-rdf-syntax-ns#"
   xmlns:svg="http://www.w3.org/2000/svg"
   xmlns="http://www.w3.org/2000/svg"
   xmlns:sodipodi="http://sodipodi.sourceforge.net/DTD/sodipodi-0.dtd"
   xmlns:inkscape="http://www.inkscape.org/namespaces/inkscape"
   width="100%"
   height="100%"
   viewBox="0 0 400 400"
   version="1.1"
   xml:space="preserve"
   style="fill-rule:evenodd;clip-rule:evenodd;stroke-linecap:round;stroke-linejoin:round;stroke-miterlimit:1.5;"
   id="svg1137"
   sodipodi:docname="air-quality.svg"
   inkscape:version="0.92.5 (2060ec1f9f, 2020-04-08)"><metadata
   id="metadata1143"><rdf:RDF><cc:Work
       rdf:about=""><dc:format>image/svg+xml</dc:format><dc:type
         rdf:resource="http://purl.org/dc/dcmitype/StillImage" /><dc:title></dc:title></cc:Work></rdf:RDF></metadata><defs
   id="defs1141" /><sodipodi:namedview
   pagecolor="#ffffff"
   bordercolor="#666666"
   borderopacity="1"
   objecttolerance="10"
   gridtolerance="10"
   guidetolerance="10"
   inkscape:pageopacity="0"
   inkscape:pageshadow="2"
   inkscape:window-width="1880"
   inkscape:window-height="1136"
   id="namedview1139"
   showgrid="false"
   inkscape:zoom="0.80963727"
   inkscape:cx="337.05401"
   inkscape:cy="107.33732"
   inkscape:window-x="40"
   inkscape:window-y="27"
   inkscape:window-maximized="1"
   inkscape:current-layer="layer2" />
    
<g
   inkscape:groupmode="layer"
   id="layer2"
   inkscape:label="Layer 2"><rect
     style="opacity:1;fill:none;fill-opacity:1;stroke:#000000;stroke-width:12;stroke-linecap:square;stroke-linejoin:miter;stroke-miterlimit:4;stroke-dasharray:none;stroke-dashoffset:0;stroke-opacity:1"
     id="rect1834"
     width="197.61937"
     height="292.72369"
     x="101.19032"
     y="53.638153" /><g
     id="g1876"
     transform="translate(0.724611,5.0069103)"
     style="stroke:#000000;stroke-opacity:1;stroke-width:2;stroke-miterlimit:1.5;stroke-dasharray:none"><path
       id="path1836"
       d="m 264.10156,115.91797 c -0.86082,-0.002 -1.7183,0.006 -2.57422,0.0234 -27.38923,0.57055 -51.96477,10.85969 -75.04492,20.94531 -23.08014,10.08561 -44.71063,19.90706 -65.89258,20.92969 -1.08476,0.0524 -2.16908,0.0778 -3.2539,0.0859 v 9.99219 c 1.24788,-0.004 2.49333,-0.0298 3.73633,-0.0898 23.87374,-1.15258 46.45326,-11.72045 69.41406,-21.75391 22.9608,-10.03346 46.2584,-19.59072 71.25,-20.11133 24.99159,-0.52061 51.98479,7.69152 83.31445,34.53907 l 6.50781,-7.59375 c -31.72236,-27.18408 -60.77158,-36.90452 -87.45703,-36.9668 z m -209.812498,10.17187 -7.296874,6.83789 c 12.497446,13.33577 24.839776,22.2584 36.996093,27.75586 V 149.75 C 74.467667,144.74947 64.64732,137.14292 54.289062,126.08984 Z"
       style="color:#000000;font-style:normal;font-variant:normal;font-weight:normal;font-stretch:normal;font-size:medium;line-height:normal;font-family:sans-serif;font-variant-ligatures:normal;font-variant-position:normal;font-variant-caps:normal;font-variant-numeric:normal;font-variant-alternates:normal;font-feature-settings:normal;text-indent:0;text-align:start;text-decoration:none;text-decoration-line:none;text-decoration-style:solid;text-decoration-color:#000000;letter-spacing:normal;word-spacing:normal;text-transform:none;writing-mode:lr-tb;direction:ltr;text-orientation:mixed;dominant-baseline:auto;baseline-shift:baseline;text-anchor:start;white-space:normal;shape-padding:0;clip-rule:nonzero;display:inline;overflow:visible;visibility:visible;opacity:1;isolation:auto;mix-blend-mode:normal;color-interpolation:sRGB;color-interpolation-filters:linearRGB;solid-color:#000000;solid-opacity:1;vector-effect:none;fill:#000000;fill-opacity:1;fill-rule:nonzero;stroke:#000000;stroke-width:2;stroke-linecap:butt;stroke-linejoin:miter;stroke-miterlimit:1.5;stroke-dasharray:none;stroke-dashoffset:0;stroke-opacity:1;color-rendering:auto;image-rendering:auto;shape-rendering:auto;text-rendering:auto;enable-background:accumulate"
       inkscape:connector-curvature="0" /><path
       id="path1836-3"
       d="m 264.10155,169.00501 c -0.86082,-0.002 -1.7183,0.006 -2.57422,0.0234 -27.38923,0.57055 -51.96477,10.85969 -75.04492,20.94531 -23.08014,10.08561 -44.71062,19.90706 -65.89257,20.92969 -1.08476,0.0524 -2.16908,0.0778 -3.2539,0.0859 v 9.99219 c 1.24788,-0.004 2.49333,-0.0298 3.73633,-0.0898 23.87374,-1.15258 46.45325,-11.72045 69.41405,-21.75391 22.9608,-10.03346 46.2584,-19.59072 71.25,-20.11133 24.99159,-0.52061 51.98479,7.69152 83.31446,34.53907 l 6.50781,-7.59375 C 319.83623,178.7877 290.787,169.06726 264.10155,169.00498 Z m -209.812492,10.17187 -7.29687,6.83789 c 12.49744,13.33577 24.83977,22.2584 36.99609,27.75586 v -10.93359 c -9.52062,-5.00053 -19.34096,-12.60708 -29.69922,-23.66016 z"
       style="color:#000000;font-style:normal;font-variant:normal;font-weight:normal;font-stretch:normal;font-size:medium;line-height:normal;font-family:sans-serif;font-variant-ligatures:normal;font-variant-position:normal;font-variant-caps:normal;font-variant-numeric:normal;font-variant-alternates:normal;font-feature-settings:normal;text-indent:0;text-align:start;text-decoration:none;text-decoration-line:none;text-decoration-style:solid;text-decoration-color:#000000;letter-spacing:normal;word-spacing:normal;text-transform:none;writing-mode:lr-tb;direction:ltr;text-orientation:mixed;dominant-baseline:auto;baseline-shift:baseline;text-anchor:start;white-space:normal;shape-padding:0;clip-rule:nonzero;display:inline;overflow:visible;visibility:visible;opacity:1;isolation:auto;mix-blend-mode:normal;color-interpolation:sRGB;color-interpolation-filters:linearRGB;solid-color:#000000;solid-opacity:1;vector-effect:none;fill:#000000;fill-opacity:1;fill-rule:nonzero;stroke:#000000;stroke-width:2;stroke-linecap:butt;stroke-linejoin:miter;stroke-miterlimit:1.5;stroke-dasharray:none;stroke-dashoffset:0;stroke-opacity:1;color-rendering:auto;image-rendering:auto;shape-rendering:auto;text-rendering:auto;enable-background:accumulate"
       inkscape:connector-curvature="0" /><path
       id="path1836-3-6"
       d="m 264.10155,222.09202 c -0.86082,-0.002 -1.7183,0.006 -2.57422,0.0234 -27.38923,0.57055 -51.96477,10.85969 -75.04492,20.94531 -23.08014,10.08561 -44.71062,19.90706 -65.89257,20.92969 -1.08476,0.0524 -2.16908,0.0778 -3.2539,0.0859 v 9.99219 c 1.24788,-0.004 2.49333,-0.0298 3.73633,-0.0898 23.87374,-1.15258 46.45325,-11.72045 69.41405,-21.75391 22.9608,-10.03346 46.2584,-19.59072 71.25,-20.11133 24.99159,-0.52061 51.98479,7.69152 83.31446,34.53907 l 6.50781,-7.59375 C 319.83623,231.87471 290.787,222.15427 264.10155,222.09199 Z m -209.812492,10.17187 -7.29687,6.83789 c 12.49744,13.33577 24.83977,22.2584 36.99609,27.75586 v -10.93359 c -9.52062,-5.00053 -19.34096,-12.60708 -29.69922,-23.66016 z"
       style="color:#000000;font-style:normal;font-variant:normal;font-weight:normal;font-stretch:normal;font-size:medium;line-height:normal;font-family:sans-serif;font-variant-ligatures:normal;font-variant-position:normal;font-variant-caps:normal;font-variant-numeric:normal;font-variant-alternates:normal;font-feature-settings:normal;text-indent:0;text-align:start;text-decoration:none;text-decoration-line:none;text-decoration-style:solid;text-decoration-color:#000000;letter-spacing:normal;word-spacing:normal;text-transform:none;writing-mode:lr-tb;direction:ltr;text-orientation:mixed;dominant-baseline:auto;baseline-shift:baseline;text-anchor:start;white-space:normal;shape-padding:0;clip-rule:nonzero;display:inline;overflow:visible;visibility:visible;opacity:1;isolation:auto;mix-blend-mode:normal;color-interpolation:sRGB;color-interpolation-filters:linearRGB;solid-color:#000000;solid-opacity:1;vector-effect:none;fill:#000000;fill-opacity:1;fill-rule:nonzero;stroke:#000000;stroke-width:2;stroke-linecap:butt;stroke-linejoin:miter;stroke-miterlimit:1.5;stroke-dasharray:none;stroke-dashoffset:0;stroke-opacity:1;color-rendering:auto;image-rendering:auto;shape-rendering:auto;text-rendering:auto;enable-background:accumulate"
       inkscape:connector-curvature="0" /></g></g></svg>