<?xml version="1.0" encoding="UTF-8" standalone="no"?>
<!DOCTYPE svg PUBLIC "-//W3C//DTD SVG 1.1//EN" "http://www.w3.org/Graphics/SVG/1.1/DTD/svg11.dtd">
<svg width="100%" height="100%" viewBox="0 0 400 400" version="1.1" xmlns="http://www.w3.org/2000/svg" xmlns:xlink="http://www.w3.org/1999/xlink" xml:space="preserve" xmlns:serif="http://www.serif.com/" style="fill-rule:evenodd;clip-rule:evenodd;stroke-linecap:round;stroke-linejoin:round;stroke-miterlimit:1.5;">
    <g transform="matrix(1,0,0,1,0,78)">
        <rect x="26" y="145" width="346" height="29" style="fill:none;stroke:black;stroke-width:10px;"/>
    </g>
    <g transform="matrix(1,0,0,1,0,-249.501)">
        <path d="M283.832,400.007C269.581,400.722 269.222,438.244 241,438L240.834,438.001C212.666,438.093 212.388,400.427 198,400L197.832,400.007C183.581,400.722 183.222,438.244 155,438L154.834,438.001C126.666,438.093 126.388,400.427 112,400L111.832,400.007C97.581,400.722 97.222,438.244 69,438L68.834,438.001C40.666,438.093 40.388,400.427 26,400L26,380C53.609,380.077 54.176,417.842 69,418L69.087,417.999C83.826,417.691 84.446,380.077 112,380L112.322,380.003C139.614,380.371 140.234,417.843 155,418L155.087,417.999C169.826,417.691 170.446,380.077 198,380L198.322,380.003C225.614,380.371 226.234,417.843 241,418L241.087,417.999C255.826,417.691 256.446,380.077 284,380L284.322,380.003C311.614,380.371 312.234,417.843 327,418L327.087,417.999C341.826,417.691 342.446,380.077 370,380L370,400C355.583,400.428 355.333,438.245 327,438L326.834,438.001C298.666,438.093 298.388,400.427 284,400L283.832,400.007Z" style="fill:none;stroke:black;stroke-width:10px;"/>
    </g>
</svg>
