<?xml version="1.0" encoding="UTF-8" standalone="no"?>
<svg
   xmlns:dc="http://purl.org/dc/elements/1.1/"
   xmlns:cc="http://creativecommons.org/ns#"
   xmlns:rdf="http://www.w3.org/1999/02/22-rdf-syntax-ns#"
   xmlns:svg="http://www.w3.org/2000/svg"
   xmlns="http://www.w3.org/2000/svg"
   width="100%"
   height="100%"
   viewBox="0 0 800 600"
   version="1.1"
   xml:space="preserve"
   style="fill-rule:evenodd;clip-rule:evenodd;stroke-linecap:round;stroke-linejoin:round;stroke-miterlimit:1.5;"
   id="svg1191"><metadata
   id="metadata1197"><rdf:RDF><cc:Work
       rdf:about=""><dc:format>image/svg+xml</dc:format><dc:type
         rdf:resource="http://purl.org/dc/dcmitype/StillImage" /><dc:title></dc:title></cc:Work></rdf:RDF></metadata><defs
   id="defs1195" />
    
    
<g
   id="g5506"
   transform="translate(-2.941155,715.50715)"
   style="fill:#000000;fill-opacity:1;opacity:1"><path
     id="rect3191"
     transform="translate(2.941155,-715.50715)"
     d="M 158.89844 188.77148 C 148.33488 188.77148 139.83008 197.27628 139.83008 207.83984 L 139.83008 394.70312 C 139.83008 405.26668 148.33488 413.77148 158.89844 413.77148 L 617.16016 413.77148 C 627.72372 413.77148 636.22852 405.26668 636.22852 394.70312 L 636.22852 358.46875 C 638.88286 360.46029 642.17514 361.65234 645.76367 361.65234 C 654.56664 361.65234 661.65234 354.56664 661.65234 345.76367 L 661.65234 251.69531 C 661.65234 242.89235 654.56664 235.80469 645.76367 235.80469 C 642.17514 235.80469 638.88286 236.99674 636.22852 238.98828 L 636.22852 207.83984 C 636.22852 197.27628 627.72372 188.77148 617.16016 188.77148 L 158.89844 188.77148 z "
     style="opacity:1;fill:none;fill-opacity:1;stroke:#000000;stroke-width:18.89763832;stroke-linecap:square;stroke-linejoin:miter;stroke-miterlimit:1.5;stroke-dasharray:none;stroke-dashoffset:0;stroke-opacity:1" /><rect
     ry="15.8898"
     y="-493.04953"
     x="172.00896"
     height="154.44916"
     width="252.96609"
     id="rect3204"
     style="opacity:1;fill:#000000;fill-opacity:1;stroke:none;stroke-width:18.89763832;stroke-linecap:square;stroke-linejoin:miter;stroke-miterlimit:1.5;stroke-dasharray:none;stroke-dashoffset:0;stroke-opacity:1" /></g></svg>