<?xml version="1.0" encoding="UTF-8" standalone="no"?>
<svg
   xmlns:dc="http://purl.org/dc/elements/1.1/"
   xmlns:cc="http://creativecommons.org/ns#"
   xmlns:rdf="http://www.w3.org/1999/02/22-rdf-syntax-ns#"
   xmlns:svg="http://www.w3.org/2000/svg"
   xmlns="http://www.w3.org/2000/svg"
   xmlns:sodipodi="http://sodipodi.sourceforge.net/DTD/sodipodi-0.dtd"
   xmlns:inkscape="http://www.inkscape.org/namespaces/inkscape"
   id="svg1277"
   style="fill-rule:evenodd;clip-rule:evenodd;stroke-linecap:round;stroke-linejoin:round;stroke-miterlimit:1.5;"
   xml:space="preserve"
   version="1.1"
   viewBox="0 0 400 400"
   height="100%"
   width="100%"
   sodipodi:docname="damage.svg"
   inkscape:version="0.92.5 (2060ec1f9f, 2020-04-08)"><sodipodi:namedview
   pagecolor="#ffffff"
   bordercolor="#666666"
   borderopacity="1"
   objecttolerance="10"
   gridtolerance="10"
   guidetolerance="10"
   inkscape:pageopacity="0"
   inkscape:pageshadow="2"
   inkscape:window-width="2800"
   inkscape:window-height="1672"
   id="namedview10"
   showgrid="false"
   inkscape:zoom="3.337544"
   inkscape:cx="246.65902"
   inkscape:cy="175.52352"
   inkscape:window-x="80"
   inkscape:window-y="54"
   inkscape:window-maximized="1"
   inkscape:current-layer="g954" /><metadata
   id="metadata1283"><rdf:RDF><cc:Work
       rdf:about=""><dc:format>image/svg+xml</dc:format><dc:type
         rdf:resource="http://purl.org/dc/dcmitype/StillImage" /><dc:title /></cc:Work></rdf:RDF></metadata><defs
   id="defs1281" />
    
<g
   style="stroke-width:1.40985826;stroke-miterlimit:1.5;stroke-dasharray:none"
   id="layer1-7"
   transform="matrix(7.0929116,0,0,7.0929116,-41.704199,-45.946417)"><g
     id="g954"
     style="stroke:#000000;stroke-opacity:1;stroke-width:1.40985826;stroke-miterlimit:1.5;stroke-dasharray:none"
     transform="translate(0.46487901,0.63571491)"><path
       id="path929"
       d="m 29.704304,27.626314 -17.9412,2.790151 -0.49893,0.641626 0.342518,1.414559 -0.01045,0.0027 0.628663,3.031624 0.725657,0.36634 17.410298,-5.151116 0.78008,-0.649276 -0.453964,-2.193353 z"
       style="fill:#ffffff;stroke:#000000;stroke-width:1.40985826;stroke-linecap:round;stroke-linejoin:miter;stroke-miterlimit:1.5;stroke-dasharray:none;stroke-opacity:1;fill-opacity:1" /><path
       id="path947"
       d="m 30.686976,27.879569 c 4.607647,-1.816468 8.294435,-5.131143 1.364459,-9.649692 0,0 -0.86172,-0.59956 -0.132292,-0.826822 3.522696,0.340725 7.396065,0.03501 10.153385,10.682551 0.105955,0.721601 -0.138204,0.953042 -0.330729,1.256771 -0.75049,1.333672 -0.194308,1.762726 0.661459,1.984375 0.432511,0.03205 0.490492,0.213907 0.628385,0.363802 l 0.760677,3.274219 -6.283854,1.422135 -0.79375,-3.175 c 0.04193,-0.192564 -0.144536,-0.347062 0.23151,-0.595312 2.436456,-1.159715 -0.17893,-3.523372 -2.93618,-3.075781 l -2.869106,0.532107 z"
       style="fill:#ffffff;stroke:#000000;stroke-width:1.40985826;stroke-linecap:round;stroke-linejoin:round;stroke-miterlimit:1.5;stroke-dasharray:none;stroke-opacity:1;fill-opacity:1" /><path
       id="path949"
       d="m 30.245928,35.278675 -3.601457,2.712786 4.583673,0.514493 0.982215,4.209494 5.144937,-1.262848 1.870887,8.278675 5.098167,-9.822156 7.202913,3.882091 -3.741772,-9.588295 6.92228,-3.040191 -7.015826,-1.028988"
       style="fill:none;stroke:#000000;stroke-width:1.40985826;stroke-linecap:butt;stroke-linejoin:miter;stroke-miterlimit:1.5;stroke-dasharray:none;stroke-opacity:1" /></g></g></svg>