<?xml version="1.0" encoding="UTF-8" standalone="no"?>
<svg
   xmlns:dc="http://purl.org/dc/elements/1.1/"
   xmlns:cc="http://creativecommons.org/ns#"
   xmlns:rdf="http://www.w3.org/1999/02/22-rdf-syntax-ns#"
   xmlns:svg="http://www.w3.org/2000/svg"
   xmlns="http://www.w3.org/2000/svg"
   id="svg10"
   style="fill-rule:evenodd;clip-rule:evenodd;stroke-linecap:round;stroke-linejoin:round;stroke-miterlimit:1.5;"
   xml:space="preserve"
   version="1.1"
   viewBox="0 0 400 400"
   height="100%"
   width="100%"><metadata
   id="metadata16"><rdf:RDF><cc:Work
       rdf:about=""><dc:format>image/svg+xml</dc:format><dc:type
         rdf:resource="http://purl.org/dc/dcmitype/StillImage" /><dc:title></dc:title></cc:Work></rdf:RDF></metadata><defs
   id="defs14" />
    <g
   id="g8"
   transform="matrix(0.707107,0.707107,-0.707107,0.707107,201.205,-83.8974)">
        
        
    <g
   transform="rotate(-45,395.77679,263.44772)"
   id="g1626"
   style="clip-rule:evenodd;fill-rule:evenodd;stroke-linecap:round;stroke-linejoin:round"><g
     transform="matrix(11.73456,0,0,11.73456,-542.42874,-709.00025)"
     id="g1633"><g
       style="fill:#000000;fill-opacity:1"
       id="g1583"
       transform="matrix(0.999999,0,0,0.999999,-6.58022,-107.058)">
        <circle
   id="circle1581"
   style="fill:#000000;fill-opacity:1"
   r="14.57"
   cy="174.39799"
   cx="78.456001" />
    </g><g
       id="g1589"
       transform="translate(-3.4746,21.8571)">
        <g
   id="g1587"
   transform="matrix(30,0,0,30,70.9851,56.0081)">
            <path
   id="path1585"
   style="fill:#ffffff;fill-rule:nonzero"
   d="M 0.226,-0.252 H 0.065 L 0.04,-0.714 h 0.211 z m -0.184,0.171 c 0,-0.03 0.009,-0.053 0.026,-0.069 0.018,-0.017 0.043,-0.025 0.077,-0.025 0.033,0 0.058,0.008 0.075,0.025 0.018,0.016 0.026,0.039 0.026,0.069 0,0.029 -0.009,0.052 -0.027,0.069 C 0.202,0.004 0.177,0.012 0.145,0.012 0.113,0.012 0.088,0.004 0.069,-0.012 0.051,-0.029 0.042,-0.052 0.042,-0.081 Z" />
        </g>
    </g></g></g></g>
</svg>