<?xml version="1.0" encoding="UTF-8" standalone="no"?>
<!DOCTYPE svg PUBLIC "-//W3C//DTD SVG 1.1//EN" "http://www.w3.org/Graphics/SVG/1.1/DTD/svg11.dtd">
<svg width="100%" height="100%" viewBox="0 0 400 400" version="1.1" xmlns="http://www.w3.org/2000/svg" xmlns:xlink="http://www.w3.org/1999/xlink" xml:space="preserve" xmlns:serif="http://www.serif.com/" style="fill-rule:evenodd;clip-rule:evenodd;stroke-linecap:round;stroke-linejoin:round;stroke-miterlimit:1.5;">
    <g transform="matrix(1.15727,0,0,1.15727,-23.978,-5.33228)">
        <path d="M171.545,274.347C147.477,254.495 149.617,228.396 165.848,203.603C165.112,216.625 169.394,225.288 178.811,229.488C175.333,201.651 182.226,179.235 203.206,164.183C199.092,188.152 216.352,202.786 226.855,217.663C239.685,235.836 232.915,259.374 215.31,274.317C263.139,250.446 275.601,209.621 241.375,146.414C240.127,157.367 235.438,165.22 227.389,170.044C232.178,129.169 211.691,101.568 178.745,80.509C177.989,109.104 168.365,134.79 150.222,152.933C112.917,195.011 118.626,250.649 171.545,274.347Z" style="fill:none;stroke:black;stroke-width:8.64px;"/>
    </g>
</svg>
