<?xml version="1.0" encoding="UTF-8" standalone="no"?>
<!DOCTYPE svg PUBLIC "-//W3C//DTD SVG 1.1//EN" "http://www.w3.org/Graphics/SVG/1.1/DTD/svg11.dtd">
<svg width="100%" height="100%" viewBox="0 0 400 400" version="1.1" xmlns="http://www.w3.org/2000/svg" xmlns:xlink="http://www.w3.org/1999/xlink" xml:space="preserve" xmlns:serif="http://www.serif.com/" style="fill-rule:evenodd;clip-rule:evenodd;stroke-linecap:round;stroke-linejoin:round;stroke-miterlimit:1.5;">
    <path d="M92.262,195.628L92.262,194.5C95.033,165.617 119.396,143 149,143C153.637,143 164.102,144.74 164.102,144.74C174.402,114.654 202.942,93 236.5,93C278.721,93 313,127.279 313,169.5C313,171.519 312.922,173.52 312.768,175.5L313,175.5C346.391,175.5 373.5,202.609 373.5,236C373.5,269.391 346.391,296.5 313,296.5L81.5,297.5C53.076,297.5 30,274.424 30,246C30,217.576 53.076,194.5 81.5,194.5C85.191,194.5 88.791,194.889 92.262,195.628Z" style="fill:none;stroke:black;stroke-width:10px;"/>
</svg>
