<?xml version="1.0" encoding="UTF-8" standalone="no"?>
<!DOCTYPE svg PUBLIC "-//W3C//DTD SVG 1.1//EN" "http://www.w3.org/Graphics/SVG/1.1/DTD/svg11.dtd">
<svg width="100%" height="100%" viewBox="0 0 400 400" version="1.1" xmlns="http://www.w3.org/2000/svg" xmlns:xlink="http://www.w3.org/1999/xlink" xml:space="preserve" xmlns:serif="http://www.serif.com/" style="fill-rule:evenodd;clip-rule:evenodd;stroke-linecap:round;stroke-linejoin:round;stroke-miterlimit:1.5;">
    <g id="Light">
        <path d="M200,62L200,93" style="fill:none;stroke:black;stroke-width:10px;"/>
        <g transform="matrix(0.707107,-0.707107,0.707107,0.707107,-82.8427,200)">
            <path d="M200,62L200,93" style="fill:none;stroke:black;stroke-width:10px;"/>
        </g>
        <g transform="matrix(0,-1,1,0,-2.84217e-14,400)">
            <path d="M200,62L200,93" style="fill:none;stroke:black;stroke-width:10px;"/>
        </g>
        <g transform="matrix(-0.707107,-0.707107,0.707107,-0.707107,200,482.843)">
            <path d="M200,62L200,93" style="fill:none;stroke:black;stroke-width:10px;"/>
        </g>
        <g transform="matrix(0.707107,0.707107,-0.707107,0.707107,200,-82.8427)">
            <path d="M200,62L200,93" style="fill:none;stroke:black;stroke-width:10px;"/>
        </g>
        <g transform="matrix(0,1,-1,0,400,-2.84217e-14)">
            <path d="M200,62L200,93" style="fill:none;stroke:black;stroke-width:10px;"/>
        </g>
        <g transform="matrix(-0.707107,0.707107,-0.707107,-0.707107,482.843,200)">
            <path d="M200,62L200,93" style="fill:none;stroke:black;stroke-width:10px;"/>
        </g>
        <path d="M183.84,319C175.098,319 168,312.167 168,303.75C174.031,233.595 124,257.413 124,187C124,151.975 147.744,122.453 180,113.664L180,113.664L180.045,113.652C180.224,113.603 180.404,113.555 180.583,113.507L180.598,113.503L180.669,113.485L181.016,113.394L181.127,113.366L181.199,113.348L181.296,113.323L181.472,113.279L181.697,113.223L181.801,113.197L181.853,113.184C182.034,113.14 182.215,113.096 182.397,113.053L182.405,113.051L182.451,113.04L182.845,112.948L182.945,112.925L183.011,112.909L183.113,112.886L183.305,112.843L183.515,112.796L183.619,112.773L183.679,112.76C183.862,112.72 184.045,112.681 184.229,112.641L184.691,112.545L184.78,112.527L184.841,112.515L184.946,112.494L185.156,112.452L185.351,112.414L185.454,112.393L185.521,112.38L185.621,112.361L186.025,112.285L186.069,112.276L186.077,112.275C186.262,112.241 186.447,112.207 186.632,112.174L186.686,112.165L186.793,112.146L187.022,112.106L187.204,112.075L187.304,112.058L187.378,112.046L187.491,112.026L187.853,111.968L187.924,111.956L187.94,111.953C188.126,111.924 188.313,111.895 188.499,111.866L188.546,111.859L188.654,111.843L188.904,111.806L189.072,111.782L189.17,111.767L189.25,111.756L189.377,111.738L189.706,111.693L189.795,111.681L189.819,111.677C190.006,111.652 190.194,111.628 190.382,111.604L190.422,111.599L190.527,111.586L190.802,111.552L190.957,111.534L191.05,111.522L191.137,111.513L191.278,111.496L191.58,111.462L191.68,111.451L191.712,111.448C191.9,111.427 192.089,111.407 192.279,111.388L192.311,111.385L192.412,111.375L192.713,111.345L192.856,111.332L192.944,111.324L193.038,111.316L193.193,111.301L193.472,111.277L193.578,111.268L193.618,111.265C193.809,111.249 193.999,111.234 194.19,111.219L194.214,111.217L194.305,111.211L194.639,111.187L194.769,111.178L194.852,111.172L194.951,111.166L195.122,111.154L195.38,111.139L195.49,111.132L195.538,111.129C195.73,111.118 195.922,111.108 196.114,111.098L196.131,111.097L196.205,111.094L196.577,111.076L196.695,111.071L196.772,111.067L196.876,111.064L197.064,111.056L197.303,111.047L197.415,111.043L197.471,111.042C197.664,111.035 197.857,111.03 198.051,111.025L198.059,111.024L198.106,111.023L198.529,111.014L198.634,111.012L198.705,111.011L198.813,111.009L199.018,111.006L199.241,111.004L199.352,111.003L199.415,111.002C199.606,111.001 199.803,111 200,111L200.491,111.002L200.585,111.002L200.648,111.003L200.759,111.004L200.982,111.006L201.187,111.009L201.295,111.011L201.366,111.012L201.471,111.014L201.894,111.023L201.941,111.024L201.949,111.025C202.142,111.029 202.335,111.035 202.529,111.042L202.585,111.043L202.697,111.047L202.936,111.056L203.124,111.064L203.228,111.067L203.305,111.071L203.423,111.076L203.795,111.094L203.869,111.097L203.886,111.098C204.079,111.108 204.271,111.118 204.462,111.129L204.51,111.132L204.62,111.139L204.878,111.154L205.049,111.166L205.148,111.172L205.231,111.178L205.361,111.187L205.695,111.211L205.786,111.217L205.81,111.219C206.003,111.234 206.195,111.249 206.382,111.265L206.422,111.268L206.528,111.277L206.807,111.301L206.962,111.316L207.056,111.324L207.144,111.332L207.287,111.345L207.588,111.375L207.689,111.385L207.721,111.388C207.909,111.407 208.097,111.427 208.288,111.448L208.32,111.451L208.42,111.462L208.722,111.496L208.863,111.513L208.95,111.522L209.043,111.534L209.198,111.552L209.473,111.586L209.578,111.599L209.618,111.604C209.805,111.628 209.992,111.652 210.181,111.677L210.205,111.681L210.294,111.693L210.623,111.738L210.75,111.756L210.83,111.767L210.928,111.782L211.096,111.806L211.346,111.843L211.454,111.859L211.501,111.866C211.687,111.895 211.873,111.924 212.06,111.953L212.076,111.956L212.147,111.968L212.509,112.026L212.622,112.046L212.696,112.058L212.796,112.075L212.978,112.106L213.207,112.146L213.314,112.165L213.368,112.174C213.553,112.207 213.738,112.241 213.923,112.275L213.931,112.276L213.975,112.285L214.379,112.361L214.479,112.38L214.546,112.393L214.649,112.414L214.844,112.452L215.054,112.494L215.159,112.515L215.22,112.527L215.309,112.545L215.771,112.641C215.954,112.68 216.136,112.719 216.321,112.76L216.381,112.773L216.485,112.796L216.695,112.843L216.887,112.886L216.989,112.909L217.055,112.925L217.155,112.948L217.549,113.04L217.595,113.051L217.603,113.053C217.784,113.095 217.964,113.139 218.147,113.184L218.199,113.197L218.303,113.223L218.528,113.279L218.704,113.323L218.801,113.348L218.873,113.366L218.984,113.394L219.331,113.485L219.402,113.503L219.417,113.507C219.596,113.555 219.775,113.603 219.955,113.652L220,113.664L220,113.664C252.256,122.453 276,151.975 276,187C276,257.413 225.969,233.595 232,303.75C232,312.167 224.902,319 216.16,319L183.84,319Z" style="fill:none;stroke:black;stroke-width:10px;"/>
        <path d="M168,280L232.364,280" style="fill:none;stroke:black;stroke-width:10px;"/>
        <path d="M191,303L231.937,303" style="fill:none;stroke:black;stroke-width:10px;"/>
        <g transform="matrix(1,0,0,1,8,-2)">
            <circle cx="192" cy="326" r="5" style="fill:none;stroke:black;stroke-width:10px;"/>
        </g>
        <path d="M179,303L168,303" style="fill:none;stroke:black;stroke-width:10px;"/>
    </g>
</svg>
