<?xml version="1.0" encoding="UTF-8" standalone="no"?>
<svg
   xmlns:dc="http://purl.org/dc/elements/1.1/"
   xmlns:cc="http://creativecommons.org/ns#"
   xmlns:rdf="http://www.w3.org/1999/02/22-rdf-syntax-ns#"
   xmlns:svg="http://www.w3.org/2000/svg"
   xmlns="http://www.w3.org/2000/svg"
   xmlns:sodipodi="http://sodipodi.sourceforge.net/DTD/sodipodi-0.dtd"
   xmlns:inkscape="http://www.inkscape.org/namespaces/inkscape"
   width="100%"
   height="100%"
   viewBox="0 0 400 400"
   version="1.1"
   xml:space="preserve"
   style="fill-rule:evenodd;clip-rule:evenodd;stroke-linecap:round;stroke-linejoin:round;stroke-miterlimit:1.5;"
   id="svg22"
   sodipodi:docname="motion.svg"
   inkscape:version="0.92.5 (2060ec1f9f, 2020-04-08)"><metadata
   id="metadata28"><rdf:RDF><cc:Work
       rdf:about=""><dc:format>image/svg+xml</dc:format><dc:type
         rdf:resource="http://purl.org/dc/dcmitype/StillImage" /></cc:Work></rdf:RDF></metadata><defs
   id="defs26" /><sodipodi:namedview
   pagecolor="#ffffff"
   bordercolor="#666666"
   borderopacity="1"
   objecttolerance="10"
   gridtolerance="10"
   guidetolerance="10"
   inkscape:pageopacity="0"
   inkscape:pageshadow="2"
   inkscape:window-width="2800"
   inkscape:window-height="1672"
   id="namedview24"
   showgrid="false"
   inkscape:zoom="1.668772"
   inkscape:cx="251.4109"
   inkscape:cy="-26.273174"
   inkscape:window-x="80"
   inkscape:window-y="54"
   inkscape:window-maximized="1"
   inkscape:current-layer="g20" />
    <g
   transform="matrix(1,0,0,1,-5,-9)"
   id="g6">
        <path
   d="M102.691,209.31C91.188,189.365 90.567,167.883 101.898,144.712"
   style="fill:none;stroke:black;stroke-width:10px;"
   id="path2" />
        <path
   d="M81.333,132.383C64.703,161.931 65.573,191.801 82.236,221.962"
   style="fill:none;stroke:black;stroke-width:10px;"
   id="path4" />
    </g>
    <g
   transform="matrix(-1,0,0,1,365.991,72.8276)"
   id="g12">
        <path
   d="M102.691,209.31C91.188,189.365 90.567,167.883 101.898,144.712"
   style="fill:none;stroke:black;stroke-width:10px;"
   id="path8" />
        <path
   d="M81.333,132.383C64.703,161.931 65.573,191.801 82.236,221.962"
   style="fill:none;stroke:black;stroke-width:10px;"
   id="path10" />
    </g>
    <g
   transform="matrix(1,0,0,1,-21.2581,20.2459)"
   id="g20">
        <g
   transform="matrix(1,0,0,1,-3.96815,-12.6709)"
   id="g16"
   style="fill:#ffffff;fill-opacity:1">
            <circle
   cx="252.579"
   cy="108.733"
   r="22.72"
   style="fill:#ffffff;stroke:black;stroke-width:10px;fill-opacity:1"
   id="circle14" />
        </g>
        <path
   d="M196.955,137.244L126.047,270.729C120.262,281.739 140.559,291.174 148.535,283.197L187.53,215.397L211.632,231.704L182.652,251.339C172.996,257.405 182.455,277.141 194.365,271.868L241.345,247.956C250.513,240.534 254.63,230.546 246.289,222.205L218.219,201.77L240.737,156.769C271.782,162.259 296.154,150.433 315.447,125.423C323.623,114.824 305.268,103.995 295.803,113.46C235.21,174.053 204.767,66.3 139.738,142.132C133.477,148.394 147.223,163.869 155.64,155.452C168.445,139.639 182.294,134.346 196.955,137.244Z"
   style="fill:#ffffff;stroke:black;stroke-width:10px;fill-opacity:1"
   id="path18" />
    </g>
</svg>