<?xml version="1.0" encoding="UTF-8" standalone="no"?>
<!DOCTYPE svg PUBLIC "-//W3C//DTD SVG 1.1//EN" "http://www.w3.org/Graphics/SVG/1.1/DTD/svg11.dtd">
<svg width="100%" height="100%" viewBox="0 0 400 400" version="1.1" xmlns="http://www.w3.org/2000/svg" xmlns:xlink="http://www.w3.org/1999/xlink" xml:space="preserve" xmlns:serif="http://www.serif.com/" style="fill-rule:evenodd;clip-rule:evenodd;stroke-linecap:round;stroke-linejoin:round;stroke-miterlimit:1.5;">
    <g transform="matrix(1,0,0,1,-5,-9)">
        <path d="M102.691,209.31C91.188,189.365 90.567,167.883 101.898,144.712" style="fill:none;stroke:black;stroke-width:10px;"/>
        <path d="M81.333,132.383C64.703,161.931 65.573,191.801 82.236,221.962" style="fill:none;stroke:black;stroke-width:10px;"/>
    </g>
    <g transform="matrix(-1,0,0,1,365.991,72.8276)">
        <path d="M102.691,209.31C91.188,189.365 90.567,167.883 101.898,144.712" style="fill:none;stroke:black;stroke-width:10px;"/>
        <path d="M81.333,132.383C64.703,161.931 65.573,191.801 82.236,221.962" style="fill:none;stroke:black;stroke-width:10px;"/>
    </g>
    <g transform="matrix(1,0,0,1,-21.2581,20.2459)">
        <g transform="matrix(1,0,0,1,-3.96815,-12.6709)">
            <circle cx="252.579" cy="108.733" r="22.72" style="fill:none;stroke:black;stroke-width:10px;"/>
        </g>
        <path d="M196.955,137.244L126.047,270.729C120.262,281.739 140.559,291.174 148.535,283.197L187.53,215.397L211.632,231.704L182.652,251.339C172.996,257.405 182.455,277.141 194.365,271.868L241.345,247.956C250.513,240.534 254.63,230.546 246.289,222.205L218.219,201.77L240.737,156.769C271.782,162.259 296.154,150.433 315.447,125.423C323.623,114.824 305.268,103.995 295.803,113.46C235.21,174.053 204.767,66.3 139.738,142.132C133.477,148.394 147.223,163.869 155.64,155.452C168.445,139.639 182.294,134.346 196.955,137.244Z" style="fill:none;stroke:black;stroke-width:10px;"/>
    </g>
</svg>
