<?xml version="1.0" encoding="UTF-8" standalone="no"?>
<svg
   xmlns:dc="http://purl.org/dc/elements/1.1/"
   xmlns:cc="http://creativecommons.org/ns#"
   xmlns:rdf="http://www.w3.org/1999/02/22-rdf-syntax-ns#"
   xmlns:svg="http://www.w3.org/2000/svg"
   xmlns="http://www.w3.org/2000/svg"
   xmlns:sodipodi="http://sodipodi.sourceforge.net/DTD/sodipodi-0.dtd"
   xmlns:inkscape="http://www.inkscape.org/namespaces/inkscape"
   width="100%"
   height="100%"
   viewBox="0 0 400 400"
   version="1.1"
   xml:space="preserve"
   style="fill-rule:evenodd;clip-rule:evenodd;stroke-linecap:round;stroke-linejoin:round;stroke-miterlimit:1.5;"
   id="svg1951"
   sodipodi:docname="pdu-socket.svg"
   inkscape:version="0.92.5 (2060ec1f9f, 2020-04-08)"><metadata
   id="metadata1957"><rdf:RDF><cc:Work
       rdf:about=""><dc:format>image/svg+xml</dc:format><dc:type
         rdf:resource="http://purl.org/dc/dcmitype/StillImage" /><dc:title /></cc:Work></rdf:RDF></metadata><defs
   id="defs1955" /><sodipodi:namedview
   pagecolor="#ffffff"
   bordercolor="#666666"
   borderopacity="1"
   objecttolerance="10"
   gridtolerance="10"
   guidetolerance="10"
   inkscape:pageopacity="0"
   inkscape:pageshadow="2"
   inkscape:window-width="2800"
   inkscape:window-height="1672"
   id="namedview1953"
   showgrid="false"
   inkscape:zoom="3.2385491"
   inkscape:cx="167.84036"
   inkscape:cy="235.90879"
   inkscape:window-x="80"
   inkscape:window-y="54"
   inkscape:window-maximized="1"
   inkscape:current-layer="svg1951" />
    
    
    
    
    
    
<path
   style="fill:#ffffff;stroke:none;stroke-width:1px;stroke-linecap:butt;stroke-linejoin:miter;stroke-opacity:1;fill-opacity:1"
   d="M 106.83797,65.590985 H 295.19392 L 305.4275,79.357501 V 324.65762 L 294.57636,335.77371 106.22041,335.46493 94.177977,323.11372 94.486758,77.633415 Z"
   id="path822"
   inkscape:connector-curvature="0" /><g
   id="layer1"
   transform="matrix(3.7795275,0,0,3.7795275,80.000002,31.766031)"><g
     id="g1851"
     transform="translate(227.54167,-179.91667)"><rect
       id="rect1095"
       style="clip-rule:evenodd;fill:none;fill-rule:evenodd;stroke:#000000;stroke-width:2.64600004;stroke-linecap:round;stroke-linejoin:round;stroke-miterlimit:1.5;stroke-dasharray:none"
       height="4.4558477"
       width="10.397067"
       y="222.28902"
       x="-196.82208" /><rect
       id="rect1097"
       style="clip-rule:evenodd;fill:none;fill-rule:evenodd;stroke:#000000;stroke-width:2.64600004;stroke-linecap:round;stroke-linejoin:round;stroke-miterlimit:1.5;stroke-dasharray:none"
       height="4.4558477"
       width="10.397067"
       y="208.02042"
       x="-205.86121" /><rect
       id="rect1101"
       style="clip-rule:evenodd;fill:none;fill-rule:evenodd;stroke:#000000;stroke-width:2.64600004;stroke-linecap:round;stroke-linejoin:round;stroke-miterlimit:1.5;stroke-dasharray:none"
       height="4.4558477"
       width="10.397067"
       y="236.43262"
       x="-205.86121" /><path
       id="path1105"
       style="clip-rule:evenodd;fill:none;fill-rule:evenodd;stroke:#000000;stroke-width:2.64600004;stroke-linecap:round;stroke-linejoin:round;stroke-miterlimit:1.5;stroke-dasharray:none"
       d="m -173.15511,205.12285 -13.26991,-11.89011 h -22.77189 c -2.27463,0 -4.45585,0.90355 -6.06425,2.51196 -1.60841,1.6084 -2.51196,3.79015 -2.51196,6.06557 0,11.81364 0,32.96708 0,44.78073 0,2.27541 0.90355,4.45558 2.51196,6.06425 1.6084,1.60866 3.78962,2.51354 6.06425,2.51354 9.28132,0 22.77189,0 22.77189,0 l 13.26991,-11.31888 z"
       inkscape:connector-curvature="0" /><path
       id="path1107"
       style="clip-rule:evenodd;fill:none;fill-rule:evenodd;stroke:#000000;stroke-width:2.64600004;stroke-linecap:round;stroke-linejoin:round;stroke-miterlimit:1.5;stroke-dasharray:none"
       d="m -179.38422,212.47818 -9.76919,-10.62157 h -16.83731 c -3.4467,0 -6.24088,2.79422 -6.24088,6.24038 0,8.51612 0,23.69089 0,32.20702 0,3.44577 2.79418,6.24057 6.24088,6.24057 6.83477,0 16.83731,0 16.83731,0 l 9.76919,-10.31442 z"
       inkscape:connector-curvature="0" /><path
       id="path1111"
       style="clip-rule:evenodd;fill:none;fill-rule:evenodd;stroke:#000000;stroke-width:2.64600004;stroke-linecap:round;stroke-linejoin:round;stroke-miterlimit:1.5;stroke-dasharray:none"
       d="m -167.89731,192.50858 c 0,-1.98173 -1.60866,-3.59066 -3.59039,-3.59066 h -48.60793 c -1.98173,0 -3.5904,1.60893 -3.5904,3.59066 v 63.84025 c 0,1.98173 1.60867,3.5904 3.5904,3.5904 h 48.60793 c 1.98173,0 3.59039,-1.60867 3.59039,-3.5904 z"
       inkscape:connector-curvature="0" /></g></g></svg>