<?xml version="1.0" encoding="UTF-8" standalone="no"?>
<svg
   xmlns:dc="http://purl.org/dc/elements/1.1/"
   xmlns:cc="http://creativecommons.org/ns#"
   xmlns:rdf="http://www.w3.org/1999/02/22-rdf-syntax-ns#"
   xmlns:svg="http://www.w3.org/2000/svg"
   xmlns="http://www.w3.org/2000/svg"
   xmlns:sodipodi="http://sodipodi.sourceforge.net/DTD/sodipodi-0.dtd"
   xmlns:inkscape="http://www.inkscape.org/namespaces/inkscape"
   width="100%"
   height="100%"
   viewBox="0 0 400 400"
   version="1.1"
   xml:space="preserve"
   style="fill-rule:evenodd;clip-rule:evenodd;stroke-linecap:round;stroke-linejoin:round;stroke-miterlimit:1.5;"
   id="svg999"
   sodipodi:docname="percentage.svg"
   inkscape:version="0.92.5 (2060ec1f9f, 2020-04-08)"><metadata
   id="metadata1005"><rdf:RDF><cc:Work
       rdf:about=""><dc:format>image/svg+xml</dc:format><dc:type
         rdf:resource="http://purl.org/dc/dcmitype/StillImage" /><dc:title /></cc:Work></rdf:RDF></metadata><defs
   id="defs1003" /><sodipodi:namedview
   pagecolor="#ffffff"
   bordercolor="#666666"
   borderopacity="1"
   objecttolerance="10"
   gridtolerance="10"
   guidetolerance="10"
   inkscape:pageopacity="0"
   inkscape:pageshadow="2"
   inkscape:window-width="1880"
   inkscape:window-height="1136"
   id="namedview1001"
   showgrid="false"
   inkscape:zoom="0.86"
   inkscape:cx="140.30982"
   inkscape:cy="253.22682"
   inkscape:window-x="40"
   inkscape:window-y="27"
   inkscape:window-maximized="1"
   inkscape:current-layer="g1096" />
    
    
<g
   id="g1096"
   transform="rotate(-45,200,233.67205)"><g
     aria-label="%"
     transform="rotate(45)"
     style="font-style:normal;font-variant:normal;font-weight:600;font-stretch:normal;font-size:26.66666603px;line-height:1.25;font-family:'Open Sans';-inkscape-font-specification:'Open Sans Semi-Bold';letter-spacing:0px;word-spacing:0px;fill:#000000;fill-opacity:1;stroke:none"
     id="text986"><path
       d="m 202.40439,-57.795263 q 0,27.669272 6.02214,41.503908 6.02214,13.8346357 19.53125,13.8346357 26.69271,0 26.69271,-55.3385437 0,-55.013027 -26.69271,-55.013027 -13.50911,0 -19.53125,13.67188 -6.02214,13.671876 -6.02214,41.341147 z m 74.54428,0 q 0,37.109376 -12.53255,56.1523458 -12.3698,18.8802092 -36.45834,18.8802092 -22.78646,0 -35.48177,-19.3684905 -12.53255,-19.3684905 -12.53255,-55.6640645 0,-36.946615 12.04427,-55.664067 12.20703,-18.71745 35.97005,-18.71745 23.60026,0 36.29557,19.36849 12.69532,19.368495 12.69532,55.013027 z m 68.6849,95.377607 q 0,27.832033 6.02213,41.666668 6.02214,13.671876 19.69401,13.671876 13.67188,0 20.18229,-13.509115 6.51042,-13.671876 6.51042,-41.829429 0,-27.8320317 -6.51042,-41.1783863 -6.51041,-13.5091147 -20.18229,-13.5091147 -13.67187,0 -19.69401,13.5091147 -6.02213,13.3463546 -6.02213,41.1783863 z m 74.70703,0 q 0,36.946616 -12.53255,55.989585 -12.3698,18.880211 -36.45834,18.880211 -23.11198,0 -35.64453,-19.368492 -12.36979,-19.36849 -12.36979,-55.501304 0,-36.9466153 12.04427,-55.664064 12.20703,-18.717448 35.97005,-18.717448 23.11198,0 35.97006,19.205729 13.02083,19.0429698 13.02083,55.175783 z M 378.34841,-128.75881 246.34971,109.19693 h -23.92578 l 131.9987,-237.95574 z"
       style="font-style:normal;font-variant:normal;font-weight:normal;font-stretch:normal;font-size:333.33334351px;font-family:'Open Sans';-inkscape-font-specification:'Open Sans'"
       id="path988" /></g></g></svg>