<?xml version="1.0" encoding="UTF-8" standalone="no"?>
<svg
   xmlns:dc="http://purl.org/dc/elements/1.1/"
   xmlns:cc="http://creativecommons.org/ns#"
   xmlns:rdf="http://www.w3.org/1999/02/22-rdf-syntax-ns#"
   xmlns:svg="http://www.w3.org/2000/svg"
   xmlns="http://www.w3.org/2000/svg"
   xmlns:sodipodi="http://sodipodi.sourceforge.net/DTD/sodipodi-0.dtd"
   xmlns:inkscape="http://www.inkscape.org/namespaces/inkscape"
   width="100%"
   height="100%"
   viewBox="0 0 400 400"
   version="1.1"
   xml:space="preserve"
   style="fill-rule:evenodd;clip-rule:evenodd;stroke-linecap:round;stroke-linejoin:round;stroke-miterlimit:1.5;"
   id="svg56"
   sodipodi:docname="pressure.svg"
   inkscape:version="0.92.5 (2060ec1f9f, 2020-04-08)"><metadata
   id="metadata62"><rdf:RDF><cc:Work
       rdf:about=""><dc:format>image/svg+xml</dc:format><dc:type
         rdf:resource="http://purl.org/dc/dcmitype/StillImage" /></cc:Work></rdf:RDF></metadata><defs
   id="defs60" /><sodipodi:namedview
   pagecolor="#ffffff"
   bordercolor="#666666"
   borderopacity="1"
   objecttolerance="10"
   gridtolerance="10"
   guidetolerance="10"
   inkscape:pageopacity="0"
   inkscape:pageshadow="2"
   inkscape:window-width="2800"
   inkscape:window-height="1672"
   id="namedview58"
   showgrid="false"
   inkscape:zoom="6.675088"
   inkscape:cx="167.53723"
   inkscape:cy="133.8421"
   inkscape:window-x="80"
   inkscape:window-y="54"
   inkscape:window-maximized="1"
   inkscape:current-layer="g22" />
    
    
    <g
   transform="matrix(1,0,0,1,0,-1)"
   id="g22">
        <path
   style="fill:#ffffff;stroke:none;stroke-width:1px;stroke-linecap:butt;stroke-linejoin:miter;stroke-opacity:1;fill-opacity:1"
   d="m 156.25262,269.31634 v 42.54626 h 11.53543 v 41.34777 h 62.77071 v -40.74853 h 12.43429 v -43.59493 z"
   id="path869"
   inkscape:connector-curvature="0" /><path
   d="M168,312L168,354L231,354L231,312"
   style="fill:none;stroke:black;stroke-width:10px;"
   id="path10" />
        <g
   transform="matrix(1.08636,0,0,1.08636,-30.3091,-38.9091)"
   id="g14"
   style="fill:#ffffff;fill-opacity:1">
            <circle
   cx="212"
   cy="190"
   r="110"
   style="fill:#ffffff;stroke:black;stroke-width:9.21px;fill-opacity:1"
   id="circle12" />
        </g>
        <g
   transform="matrix(1.09249,0,0,1.09249,-39.8006,-31.8786)"
   id="g18">
            <circle
   cx="219.5"
   cy="182.5"
   r="86.5"
   style="fill:none;stroke:black;stroke-width:9.15px;"
   id="circle16" />
        </g>
        <path
   d="M157,279L157,312L244,312L244,280"
   style="fill:none;stroke:black;stroke-width:10px;"
   id="path20" />
    </g>
    <g
   transform="matrix(1,0,0,1,0.5,0)"
   id="g54">
        <path
   d="M200.5,72L200.5,98"
   style="fill:none;stroke:black;stroke-width:10px;"
   id="path24" />
        <g
   transform="matrix(0.707107,0.707107,-0.707107,0.707107,176.165,-92.3011)"
   id="g28">
            <path
   d="M200.5,72L200.5,98"
   style="fill:none;stroke:black;stroke-width:10px;"
   id="path26" />
        </g>
        <g
   transform="matrix(0,1,-1,0,366,-33)"
   id="g32">
            <path
   d="M200.5,72L200.5,98"
   style="fill:none;stroke:black;stroke-width:10px;"
   id="path30" />
        </g>
        <g
   transform="matrix(-0.707107,0.707107,-0.707107,-0.707107,458.301,143.165)"
   id="g36">
            <path
   d="M200.5,72L200.5,98"
   style="fill:none;stroke:black;stroke-width:10px;"
   id="path34" />
        </g>
        <g
   transform="matrix(-1,2.22045e-16,-2.22045e-16,-1,399,333)"
   id="g40">
            <path
   d="M200.5,72L200.5,98"
   style="fill:none;stroke:black;stroke-width:10px;"
   id="path38" />
        </g>
        <g
   transform="matrix(-0.707107,-0.707107,0.707107,-0.707107,222.835,425.301)"
   id="g44">
            <path
   d="M200.5,72L200.5,98"
   style="fill:none;stroke:black;stroke-width:10px;"
   id="path42" />
        </g>
        <g
   transform="matrix(1.11022e-16,-1,1,1.11022e-16,33,366)"
   id="g48">
            <path
   d="M200.5,72L200.5,98"
   style="fill:none;stroke:black;stroke-width:10px;"
   id="path46" />
        </g>
        <g
   transform="matrix(0.707107,-0.707107,0.707107,0.707107,-59.3011,189.835)"
   id="g52">
            <path
   d="M200.5,72L200.5,98"
   style="fill:none;stroke:black;stroke-width:10px;"
   id="path50" />
        </g>
    </g>
<g
   transform="matrix(1,0,0,1,-1.5,-3)"
   id="g4">
        <circle
   cx="201.5"
   cy="169.5"
   r="15.5"
   style="fill:none;stroke:black;stroke-width:10px;"
   id="circle2" />
    </g><g
   transform="matrix(0.865453,-0.368685,0.391921,0.919999,-34.3193,85.2549)"
   id="g8">
        <path
   d="M226,166.5L281,166.5"
   style="fill:none;stroke:black;stroke-width:10.3px;"
   id="path6" />
    </g></svg>