<?xml version="1.0" encoding="UTF-8" standalone="no"?>
<svg
   xmlns:dc="http://purl.org/dc/elements/1.1/"
   xmlns:cc="http://creativecommons.org/ns#"
   xmlns:rdf="http://www.w3.org/1999/02/22-rdf-syntax-ns#"
   xmlns:svg="http://www.w3.org/2000/svg"
   xmlns="http://www.w3.org/2000/svg"
   id="svg890"
   style="fill-rule:evenodd;clip-rule:evenodd;stroke-linecap:round;stroke-linejoin:round;stroke-miterlimit:1.5;"
   xml:space="preserve"
   version="1.1"
   viewBox="0 0 400 400"
   height="100%"
   width="100%"><metadata
   id="metadata896"><rdf:RDF><cc:Work
       rdf:about=""><dc:format>image/svg+xml</dc:format><dc:type
         rdf:resource="http://purl.org/dc/dcmitype/StillImage" /><dc:title></dc:title></cc:Work></rdf:RDF></metadata><defs
   id="defs894">
        
    </defs>
    
<g
   transform="translate(-69.82972,-4.586915)"
   id="g961"><path
     style="opacity:1;fill:none;fill-opacity:1;stroke:#000000;stroke-width:10.00063038;stroke-linecap:round;stroke-linejoin:miter;stroke-miterlimit:1.39999998;stroke-dasharray:none;stroke-dashoffset:0;stroke-opacity:1;paint-order:normal"
     d="m 279.75586,102.23828 -70.40234,54 c 0,32.23242 0,64.46485 0,96.69727 l 70.40234,54 c 0,-68.23242 0,-136.46485 0,-204.69727 z m -93.80274,55.85352 c -6.15831,0 -11.11523,4.95692 -11.11523,11.11523 v 74.10742 c 0,6.15831 4.95692,11.11719 11.11523,11.11719 h 22.23243 V 158.0918 Z"
     id="rect909" /><g
     id="g955"
     transform="translate(0,-7.3770503)"
     style="stroke:#000000;stroke-opacity:1"><path
       id="path936"
       d="m 310.69869,163.53712 c 0,0 21.39738,14.4348 21.39738,46.06987 0,31.63506 -21.39738,46.50655 -21.39738,46.50655"
       style="fill:none;stroke:#000000;stroke-width:10.00063038;stroke-linecap:butt;stroke-linejoin:miter;stroke-miterlimit:1.5;stroke-dasharray:none;stroke-opacity:1" /><path
       id="path936-6"
       d="m 344.00161,146.0583 c 0,0 20.81994,20.56066 20.81994,65.62105 0,45.06036 -20.81994,66.24303 -20.81994,66.24303"
       style="clip-rule:evenodd;fill:none;fill-rule:evenodd;stroke:#000000;stroke-width:10.00063038;stroke-linecap:butt;stroke-linejoin:miter;stroke-miterlimit:1.5;stroke-dasharray:none;stroke-opacity:1" /></g></g></svg>