<?xml version="1.0" encoding="UTF-8" standalone="no"?>
<svg
   xmlns:dc="http://purl.org/dc/elements/1.1/"
   xmlns:cc="http://creativecommons.org/ns#"
   xmlns:rdf="http://www.w3.org/1999/02/22-rdf-syntax-ns#"
   xmlns:svg="http://www.w3.org/2000/svg"
   xmlns="http://www.w3.org/2000/svg"
   xmlns:sodipodi="http://sodipodi.sourceforge.net/DTD/sodipodi-0.dtd"
   xmlns:inkscape="http://www.inkscape.org/namespaces/inkscape"
   id="svg6076"
   version="1.1"
   viewBox="0 0 52.916665 52.916668"
   height="200"
   width="200"
   sodipodi:docname="temperature.svg"
   inkscape:version="0.92.5 (2060ec1f9f, 2020-04-08)">
  <sodipodi:namedview
     pagecolor="#ffffff"
     bordercolor="#666666"
     borderopacity="1"
     objecttolerance="10"
     gridtolerance="10"
     guidetolerance="10"
     inkscape:pageopacity="0"
     inkscape:pageshadow="2"
     inkscape:window-width="1880"
     inkscape:window-height="1016"
     id="namedview16"
     showgrid="false"
     inkscape:zoom="1.18"
     inkscape:cx="100"
     inkscape:cy="100"
     inkscape:window-x="40"
     inkscape:window-y="27"
     inkscape:window-maximized="1"
     inkscape:current-layer="g6664" />
  <defs
     id="defs6070" />
  <metadata
     id="metadata6073">
    <rdf:RDF>
      <cc:Work
         rdf:about="">
        <dc:format>image/svg+xml</dc:format>
        <dc:type
           rdf:resource="http://purl.org/dc/dcmitype/StillImage" />
        <dc:title />
      </cc:Work>
    </rdf:RDF>
  </metadata>
  <g
     transform="translate(0,-244.08332)"
     id="layer1">
    <g
       transform="matrix(0.11616456,0,0,0.11616456,3.2178846,247.57011)"
       id="g6664"
       style="clip-rule:evenodd;fill-rule:evenodd;stroke-width:2.27765965;stroke-linecap:round;stroke-linejoin:round;stroke-miterlimit:1.5">
      <path
         d="M 160.75,246.443 V 59.25 C 160.75,37.587 178.337,20 200,20 c 21.663,0 39.25,17.587 39.25,39.25 v 187.193 c 18.843,12.662 31.25,34.172 31.25,58.557 0,38.91 -31.59,70.5 -70.5,70.5 -38.91,0 -70.5,-31.59 -70.5,-70.5 0,-24.385 12.407,-45.895 31.25,-58.557 z"
         style="fill:#fffffc;stroke:#000000;stroke-width:18.22127724;stroke-miterlimit:1.5;stroke-dasharray:none;fill-opacity:1"
         id="path6631" />
      <path
         style="stroke-width:2.27765965"
         d="M 189,264.44 V 108 c 0,-6.071 4.929,-11 11,-11 6.071,0 11,4.929 11,11 v 156.44 c 18.133,4.854 31.5,21.408 31.5,41.06 0,23.456 -19.044,42.5 -42.5,42.5 -23.456,0 -42.5,-19.044 -42.5,-42.5 0,-19.652 13.367,-36.206 31.5,-41.06 z"
         id="path6629" />
      <path
         d="M 239.25,90.271 H 270.5"
         style="fill:none;stroke:#000000;stroke-width:18.22127724;stroke-miterlimit:1.5;stroke-dasharray:none"
         id="path6633" />
      <g
         style="stroke-width:2.27765965"
         transform="translate(0,34)"
         id="g6637">
        <path
           d="M 239.25,90.271 H 270.5"
           style="fill:none;stroke:#000000;stroke-width:18.22127724;stroke-miterlimit:1.5;stroke-dasharray:none"
           id="path6635" />
      </g>
      <g
         style="stroke-width:2.27765965"
         transform="translate(0,68)"
         id="g6641">
        <path
           d="M 239.25,90.271 H 270.5"
           style="fill:none;stroke:#000000;stroke-width:18.22127724;stroke-miterlimit:1.5;stroke-dasharray:none"
           id="path6639" />
      </g>
      <g
         style="stroke-width:2.27765965"
         transform="translate(0,102)"
         id="g6645">
        <path
           d="M 239.25,90.271 H 270.5"
           style="fill:none;stroke:#000000;stroke-width:18.22127724;stroke-miterlimit:1.5;stroke-dasharray:none"
           id="path6643" />
      </g>
    </g>
  </g>
</svg>
