<?xml version="1.0" encoding="UTF-8" standalone="no"?>
<!DOCTYPE svg PUBLIC "-//W3C//DTD SVG 1.1//EN" "http://www.w3.org/Graphics/SVG/1.1/DTD/svg11.dtd">
<svg width="100%" height="100%" viewBox="0 0 400 400" version="1.1" xmlns="http://www.w3.org/2000/svg" xmlns:xlink="http://www.w3.org/1999/xlink" xml:space="preserve" xmlns:serif="http://www.serif.com/" style="fill-rule:evenodd;clip-rule:evenodd;stroke-linecap:round;stroke-linejoin:round;stroke-miterlimit:1.5;">
    <path d="M50,277L50,307C50.135,310.865 52.421,312.579 56,313L87,313C91.98,313.313 93.947,310.614 94,306L94,285L70,285C61.577,285 56.667,282.148 50,277Z" style="fill:none;stroke:black;stroke-width:10px;"/>
    <g transform="matrix(-1,0,0,1,401,0)">
        <path d="M50,277L50,307C50.135,310.865 52.421,312.579 56,313L87,313C91.98,313.313 93.947,310.614 94,306L94,285L70,285C61.577,285 56.667,282.148 50,277Z" style="fill:none;stroke:black;stroke-width:10px;"/>
    </g>
    <path d="M200,86L131.371,87C126.421,87.346 122.188,88.836 119,92L97,126C93.594,133.167 96.019,136.845 106,136L200,138" style="fill:none;stroke:black;stroke-width:10px;"/>
    <g transform="matrix(-1,0,0,1,400,0)">
        <path d="M200,86L131.371,87C126.421,87.346 122.188,88.836 119,92L97,126C93.594,133.167 96.019,136.845 106,136L200,138" style="fill:none;stroke:black;stroke-width:10px;"/>
    </g>
    <path d="M264,191.621L136,191.621C125.347,198.329 135.393,210.332 143,216L257,216M264,191.621C274.653,198.329 264.607,210.332 257,216" style="fill:none;stroke:black;stroke-width:10px;"/>
    <path d="M75,273C58.847,273 48,257.153 48,241L49,187C49.786,181.116 51.148,176.865 53,174L71,146L65,142C52.247,146.956 38.58,144.24 39,135C39,125.751 55.099,121.522 69,130C70.579,133.715 74.913,133.365 78.65,135L111,83C117.033,76.605 119.212,76.004 134,76L199.995,75.283L265.991,76C280.779,76.004 282.958,76.605 288.991,83L321.341,135C325.078,133.365 329.411,133.715 330.991,130C344.892,121.522 360.991,125.751 360.991,135C361.41,144.24 347.744,146.956 334.991,142L328.991,146L346.991,174C348.842,176.865 350.205,181.116 350.991,187L351.991,241C351.991,257.153 341.143,273 324.991,273L75,273Z" style="fill:none;stroke:black;stroke-width:10px;"/>
    <path d="M72,174.141C62.125,176.096 60.174,182.086 62,190C73.892,199.63 87.583,205.918 103,209C115.229,209.856 119.359,205.276 115,195C104.388,180.53 89.16,175.385 72,174.141Z" style="fill:none;stroke:black;stroke-width:10px;"/>
    <g transform="matrix(-1,0,0,1,400.073,0)">
        <path d="M72,174.141C62.125,176.096 60.174,182.086 62,190C73.892,199.63 87.583,205.918 103,209C115.229,209.856 119.359,205.276 115,195C104.388,180.53 89.16,175.385 72,174.141Z" style="fill:none;stroke:black;stroke-width:10px;"/>
    </g>
</svg>
