<?xml version="1.0" encoding="UTF-8" standalone="no"?>
<!DOCTYPE svg PUBLIC "-//W3C//DTD SVG 1.1//EN" "http://www.w3.org/Graphics/SVG/1.1/DTD/svg11.dtd">
<svg width="100%" height="100%" viewBox="0 0 200 200" version="1.1" xmlns="http://www.w3.org/2000/svg" xmlns:xlink="http://www.w3.org/1999/xlink" xml:space="preserve" xmlns:serif="http://www.serif.com/" style="fill-rule:evenodd;clip-rule:evenodd;stroke-linecap:round;stroke-linejoin:round;stroke-miterlimit:1.5;">
    <path d="M85.498,103.329C92.007,113.131 94.142,124.692 93,138C92.103,119.558 95.289,97.503 102.18,81.916" style="fill:none;stroke:rgb(51,51,51);stroke-width:4px;"/>
    <path d="M47,62C52.707,110.804 68.344,113.606 85,106C85.62,101.775 80.01,95.02 64.752,83.11C76.876,85.381 82.137,94.007 87,103C92.936,101.152 89.159,73.945 73,73C63.606,72.451 47,62 47,62Z" style="fill:none;stroke:rgb(51,51,51);stroke-width:4px;"/>
    <g transform="matrix(-1.67515,0.284741,0.284741,1.67515,213.053,-109.945)">
        <path d="M47,62C52.707,110.804 68.079,113.448 84.735,105.842C85.355,101.617 80.01,95.02 64.752,83.11C76.876,85.381 82.137,94.007 87,103C92.936,101.152 89.159,73.945 73,73C63.606,72.451 47,62 47,62Z" style="fill:none;stroke:rgb(51,51,51);stroke-width:2.35px;"/>
    </g>
    <g transform="matrix(1,0,0,1,0,4)">
        <path d="M49,165L138,165C138.024,159.709 137.631,154.595 129,153C127.947,149.648 125.463,148.925 122,150C115.248,143.87 108.03,141.317 100,145C97.031,138.124 81.735,139.388 79,145C72.478,144.907 67.129,147.536 63,153C53.146,153.266 49.275,157.688 49,165Z" style="fill:none;stroke:rgb(51,51,51);stroke-width:4px;"/>
    </g>
</svg>
