<?xml version="1.0" encoding="UTF-8" standalone="no"?>
<!DOCTYPE svg PUBLIC "-//W3C//DTD SVG 1.1//EN" "http://www.w3.org/Graphics/SVG/1.1/DTD/svg11.dtd">
<svg width="100%" height="100%" viewBox="0 0 200 200" version="1.1" xmlns="http://www.w3.org/2000/svg" xmlns:xlink="http://www.w3.org/1999/xlink" xml:space="preserve" xmlns:serif="http://www.serif.com/" style="fill-rule:evenodd;clip-rule:evenodd;stroke-linecap:round;stroke-linejoin:round;stroke-miterlimit:1.5;">
    <g transform="matrix(1,0,0,1,-11.7554,-0.69155)">
        <path d="M158.547,139.551C158.547,139.551 146.549,156.825 146.549,164.228C146.549,170.849 151.925,176.226 158.547,176.226C165.169,176.226 170.545,170.849 170.545,164.228C170.545,156.825 158.547,139.551 158.547,139.551Z" style="fill:none;stroke:rgb(51,51,51);stroke-width:4px;"/>
    </g>
    <path d="M85.287,46.941L85.287,59.826L77.905,59.826L77.905,77.622C77.96,82.799 75.499,84.651 69.837,84.731L41.72,84.731L41.72,111.965L130.326,112.125L130.326,124.45C130.326,128.577 133.676,131.927 137.802,131.927L152.755,131.927C156.881,131.927 160.231,128.577 160.231,124.45L160.231,91.864C160.231,87.738 157.126,84.732 152.755,84.388L112.134,84.731C107.819,84.533 105.357,82.379 105.363,77.622L105.363,59.826L100.052,59.826L100.052,46.941L100.022,46.59C102.412,45.509 104.315,43.928 105.443,42.054C112.1,44.942 121.069,48.371 126.131,48.371C131.781,48.371 136.367,43.785 136.367,38.135C136.367,32.486 131.781,27.899 126.131,27.899C121.08,27.899 112.137,31.314 105.484,34.199C103.569,30.261 97.991,28.097 92.367,28.041C86.535,27.983 81.526,30.583 79.396,34.199C72.742,31.314 63.8,27.899 58.748,27.899C53.099,27.899 48.512,32.486 48.512,38.135C48.512,43.785 53.099,48.371 58.748,48.371C63.811,48.371 72.779,44.942 79.437,42.054C80.565,43.928 82.468,45.509 84.858,46.59" style="fill:none;stroke:rgb(51,51,51);stroke-width:4px;"/>
</svg>
