<?xml version="1.0" encoding="UTF-8" standalone="no"?>
<!DOCTYPE svg PUBLIC "-//W3C//DTD SVG 1.1//EN" "http://www.w3.org/Graphics/SVG/1.1/DTD/svg11.dtd">
<svg width="100%" height="100%" viewBox="0 0 200 200" version="1.1" xmlns="http://www.w3.org/2000/svg" xmlns:xlink="http://www.w3.org/1999/xlink" xml:space="preserve" xmlns:serif="http://www.serif.com/" style="fill-rule:evenodd;clip-rule:evenodd;stroke-linecap:round;stroke-linejoin:round;stroke-miterlimit:1.5;">
    <g transform="matrix(1,0,0,1,-3.05844,2.32389)">
        <g transform="matrix(1,0,0,1,-30.1973,-4.32389)">
            <path d="M115.869,169.022C127.031,181.293 143.122,189 161,189C194.667,189 222,161.667 222,128C222,94.1 161,15 161,15C161,15 154.207,23.809 145.155,36.807" style="fill:none;stroke:rgb(51,51,51);stroke-width:4px;"/>
        </g>
        <g transform="matrix(1.69264,0,0,1.69264,-89.1997,-114.969)">
            <path d="M112.573,95.401L115.88,87.475L126.544,109.796L103.178,117.917L106.413,110.163C98.458,104.288 88.321,108.698 77.165,117.917C83.435,98.236 99.289,90.63 112.573,95.401Z" style="fill:none;stroke:rgb(51,51,51);stroke-width:2.36px;"/>
        </g>
        <g transform="matrix(-0.846318,1.46587,-1.46587,-0.846318,365.785,63.2824)">
            <path d="M112.573,95.401L115.88,87.475L126.544,109.796L103.178,117.917L106.413,110.163C98.458,104.288 88.321,108.698 77.165,117.917C83.435,98.236 99.289,90.63 112.573,95.401Z" style="fill:none;stroke:rgb(51,51,51);stroke-width:2.36px;"/>
        </g>
        <g transform="matrix(-0.846318,-1.46587,1.46587,-0.846318,-15.8423,369.14)">
            <path d="M112.573,95.401L115.88,87.475L126.544,109.796L103.178,117.917L106.413,110.163C98.458,104.288 88.321,108.698 77.165,117.917C83.435,98.236 99.289,90.63 112.573,95.401Z" style="fill:none;stroke:rgb(51,51,51);stroke-width:2.36px;"/>
        </g>
    </g>
</svg>
