<?xml version="1.0" encoding="UTF-8" standalone="no"?>
<!DOCTYPE svg PUBLIC "-//W3C//DTD SVG 1.1//EN" "http://www.w3.org/Graphics/SVG/1.1/DTD/svg11.dtd">
<svg width="100%" height="100%" viewBox="0 0 300 100" version="1.1" xmlns="http://www.w3.org/2000/svg" xmlns:xlink="http://www.w3.org/1999/xlink" xml:space="preserve" xmlns:serif="http://www.serif.com/" style="fill-rule:evenodd;clip-rule:evenodd;stroke-linejoin:round;stroke-miterlimit:2;">
    <g>
        <path d="M75,3C85.762,3 94.5,11.738 94.5,22.5C94.5,33.262 85.762,42 75,42C64.238,42 55.5,33.262 55.5,22.5C55.5,11.738 64.238,3 75,3ZM75,14.5C79.415,14.5 83,18.085 83,22.5C83,26.915 79.415,30.5 75,30.5C70.585,30.5 67,26.915 67,22.5C67,18.085 70.585,14.5 75,14.5Z" style="fill-opacity:0.75;"/>
        <g transform="matrix(1,0,0,1,0,27.5)">
            <path d="M75,3C85.762,3 94.5,11.738 94.5,22.5C94.5,33.262 85.762,42 75,42C64.238,42 55.5,33.262 55.5,22.5C55.5,11.738 64.238,3 75,3ZM75,14.5C79.415,14.5 83,18.085 83,22.5C83,26.915 79.415,30.5 75,30.5C70.585,30.5 67,26.915 67,22.5C67,18.085 70.585,14.5 75,14.5Z" style="fill-opacity:0.75;"/>
        </g>
    </g>
    <g transform="matrix(1,0,0,1,39.5711,0)">
        <path d="M75,3C85.762,3 94.5,11.738 94.5,22.5C94.5,33.262 85.762,42 75,42C64.238,42 55.5,33.262 55.5,22.5C55.5,11.738 64.238,3 75,3ZM75,14.5C79.415,14.5 83,18.085 83,22.5C83,26.915 79.415,30.5 75,30.5C70.585,30.5 67,26.915 67,22.5C67,18.085 70.585,14.5 75,14.5Z" style="fill-opacity:0.75;"/>
        <g transform="matrix(1,0,0,1,0,27.5)">
            <path d="M75,3C85.762,3 94.5,11.738 94.5,22.5C94.5,33.262 85.762,42 75,42C64.238,42 55.5,33.262 55.5,22.5C55.5,11.738 64.238,3 75,3ZM75,14.5C79.415,14.5 83,18.085 83,22.5C83,26.915 79.415,30.5 75,30.5C70.585,30.5 67,26.915 67,22.5C67,18.085 70.585,14.5 75,14.5Z" style="fill-opacity:0.75;"/>
        </g>
    </g>
    <g transform="matrix(1,0,0,1,79.1422,0)">
        <path d="M75,3C85.762,3 94.5,11.738 94.5,22.5C94.5,33.262 85.762,42 75,42C64.238,42 55.5,33.262 55.5,22.5C55.5,11.738 64.238,3 75,3ZM75,14.5C79.415,14.5 83,18.085 83,22.5C83,26.915 79.415,30.5 75,30.5C70.585,30.5 67,26.915 67,22.5C67,18.085 70.585,14.5 75,14.5Z" style="fill-opacity:0.75;"/>
        <g transform="matrix(1,0,0,1,0,27.5)">
            <path d="M75,3C85.762,3 94.5,11.738 94.5,22.5C94.5,33.262 85.762,42 75,42C64.238,42 55.5,33.262 55.5,22.5C55.5,11.738 64.238,3 75,3ZM75,14.5C79.415,14.5 83,18.085 83,22.5C83,26.915 79.415,30.5 75,30.5C70.585,30.5 67,26.915 67,22.5C67,18.085 70.585,14.5 75,14.5Z" style="fill-opacity:0.75;"/>
        </g>
    </g>
    <g transform="matrix(1,0,0,1,-2,-0.386007)">
        <g transform="matrix(27.5719,0,0,27.5719,58,97.75)">
            <path d="M0.072,-0.714L0.072,0L0.14,0L0.14,-0.346L0.564,-0.346L0.564,0L0.632,0L0.632,-0.714L0.564,-0.714L0.564,-0.404L0.14,-0.404L0.14,-0.714L0.072,-0.714Z" style="fill-rule:nonzero;"/>
        </g>
        <g transform="matrix(27.5719,0,0,27.5719,85.0756,97.75)">
            <path d="M0.102,-0.357C0.102,-0.396 0.107,-0.435 0.118,-0.472C0.128,-0.509 0.144,-0.543 0.166,-0.573C0.187,-0.602 0.215,-0.626 0.249,-0.644C0.283,-0.662 0.324,-0.671 0.371,-0.671C0.418,-0.671 0.459,-0.662 0.493,-0.644C0.526,-0.626 0.554,-0.602 0.576,-0.573C0.597,-0.543 0.613,-0.509 0.624,-0.472C0.634,-0.435 0.639,-0.396 0.639,-0.357C0.639,-0.318 0.634,-0.28 0.624,-0.243C0.613,-0.205 0.597,-0.171 0.576,-0.142C0.554,-0.112 0.526,-0.088 0.493,-0.07C0.459,-0.052 0.418,-0.043 0.371,-0.043C0.324,-0.043 0.283,-0.052 0.249,-0.07C0.215,-0.088 0.187,-0.112 0.166,-0.142C0.144,-0.171 0.128,-0.205 0.118,-0.243C0.107,-0.28 0.102,-0.318 0.102,-0.357ZM0.034,-0.357C0.034,-0.308 0.041,-0.261 0.055,-0.216C0.069,-0.171 0.09,-0.132 0.118,-0.098C0.146,-0.064 0.181,-0.037 0.224,-0.017C0.266,0.004 0.315,0.014 0.371,0.014C0.427,0.014 0.476,0.004 0.518,-0.017C0.56,-0.037 0.595,-0.064 0.623,-0.098C0.651,-0.132 0.672,-0.171 0.686,-0.216C0.7,-0.261 0.707,-0.308 0.707,-0.357C0.707,-0.406 0.7,-0.453 0.686,-0.498C0.672,-0.543 0.651,-0.582 0.623,-0.617C0.595,-0.651 0.56,-0.678 0.518,-0.699C0.476,-0.719 0.427,-0.729 0.371,-0.729C0.315,-0.729 0.266,-0.719 0.224,-0.699C0.181,-0.678 0.146,-0.651 0.118,-0.617C0.09,-0.582 0.069,-0.543 0.055,-0.498C0.041,-0.453 0.034,-0.406 0.034,-0.357Z" style="fill-rule:nonzero;"/>
        </g>
        <g transform="matrix(27.5719,0,0,27.5719,113.171,97.75)">
            <path d="M0.072,-0.714L0.072,0L0.54,0L0.54,-0.058L0.14,-0.058L0.14,-0.714L0.072,-0.714Z" style="fill-rule:nonzero;"/>
        </g>
        <g transform="matrix(27.5719,0,0,27.5719,135.643,97.75)">
            <path d="M0.072,-0.714L0.072,0L0.319,0C0.428,-0.003 0.509,-0.033 0.565,-0.092C0.62,-0.15 0.647,-0.238 0.647,-0.357C0.647,-0.476 0.62,-0.564 0.565,-0.623C0.509,-0.681 0.428,-0.711 0.319,-0.714L0.072,-0.714ZM0.14,-0.058L0.14,-0.656L0.285,-0.656C0.336,-0.656 0.381,-0.651 0.418,-0.64C0.455,-0.628 0.485,-0.611 0.509,-0.587C0.533,-0.563 0.551,-0.532 0.562,-0.494C0.573,-0.456 0.579,-0.41 0.579,-0.357C0.579,-0.304 0.573,-0.258 0.562,-0.22C0.551,-0.182 0.533,-0.151 0.509,-0.127C0.485,-0.103 0.455,-0.086 0.418,-0.075C0.381,-0.064 0.336,-0.058 0.285,-0.058L0.14,-0.058Z" style="fill-rule:nonzero;"/>
        </g>
        <g transform="matrix(27.5719,0,0,27.5719,162.194,97.75)">
            <rect x="0.077" y="-0.714" width="0.068" height="0.714" style="fill-rule:nonzero;"/>
        </g>
        <g transform="matrix(27.5719,0,0,27.5719,175.98,97.75)">
            <path d="M0.071,-0.714L0.071,0L0.139,0L0.139,-0.604L0.141,-0.604L0.557,0L0.633,0L0.633,-0.714L0.565,-0.714L0.565,-0.11L0.563,-0.11L0.147,-0.714L0.071,-0.714Z" style="fill-rule:nonzero;"/>
        </g>
        <g transform="matrix(27.5719,0,0,27.5719,203.056,97.75)">
            <path d="M0.682,0L0.682,-0.363L0.379,-0.363L0.379,-0.305L0.622,-0.305C0.623,-0.267 0.618,-0.232 0.607,-0.2C0.596,-0.168 0.58,-0.14 0.559,-0.117C0.538,-0.094 0.511,-0.076 0.481,-0.063C0.45,-0.05 0.414,-0.043 0.375,-0.043C0.328,-0.043 0.287,-0.052 0.253,-0.07C0.219,-0.088 0.191,-0.112 0.17,-0.142C0.148,-0.171 0.132,-0.205 0.122,-0.243C0.111,-0.28 0.106,-0.318 0.106,-0.357C0.106,-0.396 0.111,-0.435 0.122,-0.472C0.132,-0.509 0.148,-0.543 0.17,-0.573C0.191,-0.602 0.219,-0.626 0.253,-0.644C0.287,-0.662 0.328,-0.671 0.375,-0.671C0.409,-0.671 0.44,-0.666 0.467,-0.655C0.494,-0.644 0.518,-0.629 0.538,-0.612C0.557,-0.595 0.573,-0.576 0.585,-0.555C0.596,-0.534 0.603,-0.513 0.605,-0.492L0.673,-0.492C0.666,-0.531 0.654,-0.566 0.636,-0.595C0.618,-0.624 0.596,-0.649 0.57,-0.669C0.544,-0.689 0.514,-0.704 0.481,-0.714C0.448,-0.724 0.412,-0.729 0.375,-0.729C0.319,-0.729 0.27,-0.719 0.228,-0.699C0.185,-0.678 0.15,-0.651 0.122,-0.617C0.094,-0.582 0.073,-0.543 0.059,-0.498C0.045,-0.453 0.038,-0.406 0.038,-0.357C0.038,-0.308 0.045,-0.261 0.059,-0.216C0.073,-0.171 0.094,-0.132 0.122,-0.098C0.15,-0.064 0.185,-0.037 0.228,-0.017C0.27,0.004 0.319,0.014 0.375,0.014C0.401,0.014 0.426,0.011 0.451,0.006C0.475,0.001 0.498,-0.008 0.519,-0.02C0.54,-0.031 0.56,-0.046 0.578,-0.065C0.595,-0.083 0.61,-0.105 0.622,-0.13L0.624,-0.13L0.633,0L0.682,0Z" style="fill-rule:nonzero;"/>
        </g>
        <g transform="matrix(27.5719,0,0,27.5719,231.152,97.75)">
            <path d="M0.104,-0.235L0.036,-0.235C0.034,-0.191 0.04,-0.153 0.054,-0.122C0.067,-0.091 0.087,-0.065 0.112,-0.045C0.137,-0.025 0.168,-0.01 0.204,-0.001C0.24,0.009 0.279,0.014 0.321,0.014C0.363,0.014 0.399,0.01 0.429,0.003C0.459,-0.005 0.484,-0.015 0.505,-0.028C0.525,-0.04 0.541,-0.054 0.553,-0.069C0.564,-0.084 0.573,-0.099 0.58,-0.115C0.586,-0.13 0.59,-0.144 0.592,-0.157C0.593,-0.17 0.594,-0.181 0.594,-0.189C0.594,-0.218 0.589,-0.243 0.58,-0.264C0.57,-0.285 0.557,-0.302 0.54,-0.317C0.523,-0.331 0.503,-0.343 0.481,-0.353C0.458,-0.362 0.434,-0.37 0.409,-0.377L0.235,-0.42C0.22,-0.423 0.206,-0.428 0.194,-0.433C0.181,-0.438 0.169,-0.445 0.159,-0.454C0.149,-0.463 0.141,-0.473 0.136,-0.486C0.13,-0.498 0.127,-0.512 0.127,-0.529C0.127,-0.556 0.132,-0.578 0.142,-0.596C0.152,-0.614 0.165,-0.628 0.182,-0.64C0.198,-0.651 0.217,-0.659 0.239,-0.664C0.26,-0.669 0.283,-0.671 0.306,-0.671C0.331,-0.671 0.356,-0.668 0.379,-0.661C0.402,-0.654 0.422,-0.643 0.44,-0.63C0.457,-0.616 0.472,-0.599 0.483,-0.579C0.494,-0.558 0.5,-0.534 0.501,-0.507L0.569,-0.507C0.569,-0.544 0.562,-0.576 0.548,-0.604C0.533,-0.631 0.514,-0.654 0.49,-0.673C0.466,-0.692 0.438,-0.706 0.406,-0.715C0.374,-0.724 0.34,-0.729 0.305,-0.729C0.255,-0.729 0.214,-0.722 0.182,-0.708C0.15,-0.693 0.125,-0.676 0.107,-0.655C0.088,-0.634 0.076,-0.612 0.069,-0.589C0.062,-0.566 0.059,-0.545 0.059,-0.528C0.059,-0.5 0.064,-0.476 0.073,-0.457C0.082,-0.438 0.093,-0.421 0.108,-0.408C0.123,-0.395 0.14,-0.384 0.16,-0.376C0.179,-0.368 0.199,-0.361 0.22,-0.356L0.379,-0.317C0.396,-0.313 0.413,-0.308 0.43,-0.302C0.447,-0.295 0.463,-0.287 0.478,-0.277C0.492,-0.267 0.503,-0.255 0.513,-0.24C0.522,-0.225 0.526,-0.208 0.526,-0.188C0.526,-0.162 0.52,-0.14 0.507,-0.122C0.494,-0.103 0.478,-0.088 0.46,-0.077C0.44,-0.065 0.42,-0.056 0.398,-0.051C0.376,-0.046 0.356,-0.043 0.337,-0.043C0.304,-0.043 0.274,-0.046 0.245,-0.053C0.216,-0.059 0.192,-0.069 0.171,-0.084C0.15,-0.099 0.133,-0.118 0.121,-0.143C0.109,-0.168 0.103,-0.198 0.104,-0.235Z" style="fill-rule:nonzero;"/>
        </g>
    </g>
    <g transform="matrix(0.522488,-0.448196,0.143423,0.896392,71.2564,91.319)">
        <path d="M202.875,22.5C206.669,22.5 209.75,25.581 209.75,29.375C209.75,33.169 206.669,36.25 202.875,36.25C199.081,36.25 196,33.169 196,29.375C196,25.581 199.081,22.5 202.875,22.5ZM202.875,25.5C205.014,25.5 206.75,27.236 206.75,29.375C206.75,31.514 205.014,33.25 202.875,33.25C200.736,33.25 199,31.514 199,29.375C199,27.236 200.736,25.5 202.875,25.5Z" style="fill:rgb(109,191,56);fill-opacity:0.75;"/>
        <g transform="matrix(1,0,0,1,30,0)">
            <path d="M202.875,22.5C206.669,22.5 209.75,25.581 209.75,29.375C209.75,33.169 206.669,36.25 202.875,36.25C199.081,36.25 196,33.169 196,29.375C196,25.581 199.081,22.5 202.875,22.5ZM202.875,25.5C205.014,25.5 206.75,27.236 206.75,29.375C206.75,31.514 205.014,33.25 202.875,33.25C200.736,33.25 199,31.514 199,29.375C199,27.236 200.736,25.5 202.875,25.5Z" style="fill:rgb(109,191,56);fill-opacity:0.75;"/>
        </g>
        <g transform="matrix(1,0,-2.77556e-17,1,14.2284,13.8077)">
            <path d="M202.875,22.5C206.669,22.5 209.75,25.581 209.75,29.375C209.75,33.169 206.669,36.25 202.875,36.25C199.081,36.25 196,33.169 196,29.375C196,25.581 199.081,22.5 202.875,22.5ZM202.875,25.5C205.014,25.5 206.75,27.236 206.75,29.375C206.75,31.514 205.014,33.25 202.875,33.25C200.736,33.25 199,31.514 199,29.375C199,27.236 200.736,25.5 202.875,25.5Z" style="fill:rgb(109,191,56);fill-opacity:0.75;"/>
        </g>
        <g transform="matrix(1,0,0,1,0,30)">
            <path d="M202.875,22.5C206.669,22.5 209.75,25.581 209.75,29.375C209.75,33.169 206.669,36.25 202.875,36.25C199.081,36.25 196,33.169 196,29.375C196,25.581 199.081,22.5 202.875,22.5ZM202.875,25.5C205.014,25.5 206.75,27.236 206.75,29.375C206.75,31.514 205.014,33.25 202.875,33.25C200.736,33.25 199,31.514 199,29.375C199,27.236 200.736,25.5 202.875,25.5Z" style="fill:rgb(109,191,56);fill-opacity:0.75;"/>
        </g>
        <g transform="matrix(1,0,0,1,30,30)">
            <path d="M202.875,22.5C206.669,22.5 209.75,25.581 209.75,29.375C209.75,33.169 206.669,36.25 202.875,36.25C199.081,36.25 196,33.169 196,29.375C196,25.581 199.081,22.5 202.875,22.5ZM202.875,25.5C205.014,25.5 206.75,27.236 206.75,29.375C206.75,31.514 205.014,33.25 202.875,33.25C200.736,33.25 199,31.514 199,29.375C199,27.236 200.736,25.5 202.875,25.5Z" style="fill:rgb(109,191,56);fill-opacity:0.75;"/>
        </g>
    </g>
    <g transform="matrix(0.774161,0.205714,0.196544,0.857143,46.353,-57.3557)">
        <path d="M202.875,22.5C206.669,22.5 209.75,25.581 209.75,29.375C209.75,33.169 206.669,36.25 202.875,36.25C199.081,36.25 196,33.169 196,29.375C196,25.581 199.081,22.5 202.875,22.5ZM202.875,25.5C205.014,25.5 206.75,27.236 206.75,29.375C206.75,31.514 205.014,33.25 202.875,33.25C200.736,33.25 199,31.514 199,29.375C199,27.236 200.736,25.5 202.875,25.5Z" style="fill:rgb(0,123,200);fill-opacity:0.75;"/>
        <g transform="matrix(1,0,0,1,30,0)">
            <path d="M202.875,22.5C206.669,22.5 209.75,25.581 209.75,29.375C209.75,33.169 206.669,36.25 202.875,36.25C199.081,36.25 196,33.169 196,29.375C196,25.581 199.081,22.5 202.875,22.5ZM202.875,25.5C205.014,25.5 206.75,27.236 206.75,29.375C206.75,31.514 205.014,33.25 202.875,33.25C200.736,33.25 199,31.514 199,29.375C199,27.236 200.736,25.5 202.875,25.5Z" style="fill:rgb(0,123,200);fill-opacity:0.75;"/>
        </g>
        <g transform="matrix(1,0,0,1,0,30)">
            <path d="M202.875,22.5C206.669,22.5 209.75,25.581 209.75,29.375C209.75,33.169 206.669,36.25 202.875,36.25C199.081,36.25 196,33.169 196,29.375C196,25.581 199.081,22.5 202.875,22.5ZM202.875,25.5C205.014,25.5 206.75,27.236 206.75,29.375C206.75,31.514 205.014,33.25 202.875,33.25C200.736,33.25 199,31.514 199,29.375C199,27.236 200.736,25.5 202.875,25.5Z" style="fill:rgb(0,123,200);fill-opacity:0.75;"/>
        </g>
        <g transform="matrix(1,0,0,1,30,30)">
            <path d="M202.875,22.5C206.669,22.5 209.75,25.581 209.75,29.375C209.75,33.169 206.669,36.25 202.875,36.25C199.081,36.25 196,33.169 196,29.375C196,25.581 199.081,22.5 202.875,22.5ZM202.875,25.5C205.014,25.5 206.75,27.236 206.75,29.375C206.75,31.514 205.014,33.25 202.875,33.25C200.736,33.25 199,31.514 199,29.375C199,27.236 200.736,25.5 202.875,25.5Z" style="fill:rgb(0,123,200);fill-opacity:0.75;"/>
        </g>
    </g>
    <g transform="matrix(0.808046,0.0859509,-0.611928,0.428476,65.5393,19.6166)">
        <path d="M202.875,22.5C206.669,22.5 209.75,25.581 209.75,29.375C209.75,33.169 206.669,36.25 202.875,36.25C199.081,36.25 196,33.169 196,29.375C196,25.581 199.081,22.5 202.875,22.5ZM202.875,25.5C205.014,25.5 206.75,27.236 206.75,29.375C206.75,31.514 205.014,33.25 202.875,33.25C200.736,33.25 199,31.514 199,29.375C199,27.236 200.736,25.5 202.875,25.5Z" style="fill:rgb(255,0,0);fill-opacity:0.75;"/>
        <g transform="matrix(1,0,0,1,30,0)">
            <path d="M202.875,22.5C206.669,22.5 209.75,25.581 209.75,29.375C209.75,33.169 206.669,36.25 202.875,36.25C199.081,36.25 196,33.169 196,29.375C196,25.581 199.081,22.5 202.875,22.5ZM202.875,25.5C205.014,25.5 206.75,27.236 206.75,29.375C206.75,31.514 205.014,33.25 202.875,33.25C200.736,33.25 199,31.514 199,29.375C199,27.236 200.736,25.5 202.875,25.5Z" style="fill:rgb(255,0,0);fill-opacity:0.75;"/>
        </g>
        <g transform="matrix(1,0,0,1,0,15)">
            <path d="M202.875,22.5C206.669,22.5 209.75,25.581 209.75,29.375C209.75,33.169 206.669,36.25 202.875,36.25C199.081,36.25 196,33.169 196,29.375C196,25.581 199.081,22.5 202.875,22.5ZM202.875,25.5C205.014,25.5 206.75,27.236 206.75,29.375C206.75,31.514 205.014,33.25 202.875,33.25C200.736,33.25 199,31.514 199,29.375C199,27.236 200.736,25.5 202.875,25.5Z" style="fill:rgb(255,0,0);fill-opacity:0.75;"/>
        </g>
        <g transform="matrix(1,0,0,1,30,15)">
            <path d="M202.875,22.5C206.669,22.5 209.75,25.581 209.75,29.375C209.75,33.169 206.669,36.25 202.875,36.25C199.081,36.25 196,33.169 196,29.375C196,25.581 199.081,22.5 202.875,22.5ZM202.875,25.5C205.014,25.5 206.75,27.236 206.75,29.375C206.75,31.514 205.014,33.25 202.875,33.25C200.736,33.25 199,31.514 199,29.375C199,27.236 200.736,25.5 202.875,25.5Z" style="fill:rgb(255,0,0);fill-opacity:0.75;"/>
        </g>
        <g transform="matrix(1,0,0,1,0,30)">
            <path d="M202.875,22.5C206.669,22.5 209.75,25.581 209.75,29.375C209.75,33.169 206.669,36.25 202.875,36.25C199.081,36.25 196,33.169 196,29.375C196,25.581 199.081,22.5 202.875,22.5ZM202.875,25.5C205.014,25.5 206.75,27.236 206.75,29.375C206.75,31.514 205.014,33.25 202.875,33.25C200.736,33.25 199,31.514 199,29.375C199,27.236 200.736,25.5 202.875,25.5Z" style="fill:rgb(255,0,0);fill-opacity:0.75;"/>
        </g>
        <g transform="matrix(1,0,0,1,30,30)">
            <path d="M202.875,22.5C206.669,22.5 209.75,25.581 209.75,29.375C209.75,33.169 206.669,36.25 202.875,36.25C199.081,36.25 196,33.169 196,29.375C196,25.581 199.081,22.5 202.875,22.5ZM202.875,25.5C205.014,25.5 206.75,27.236 206.75,29.375C206.75,31.514 205.014,33.25 202.875,33.25C200.736,33.25 199,31.514 199,29.375C199,27.236 200.736,25.5 202.875,25.5Z" style="fill:rgb(255,0,0);fill-opacity:0.75;"/>
        </g>
    </g>
</svg>
