<svg width="87px" height="51px" viewBox="0 0 87 51" version="1.1" xmlns="http://www.w3.org/2000/svg" xmlns:xlink="http://www.w3.org/1999/xlink"> <defs> <polygon id="path-1" points="6.9258891 0.00956048584 6.9258891 9.08018524 0.451209406 9.08018524 0.451209406 0.00956048584 6.9258891 0.00956048584"></polygon> <polygon id="path-3" points="0 0.0722044312 0 8.95389578 8.84426887 8.95389578 8.84426887 0.0722044312"></polygon> <polygon id="path-5" points="0.390705188 9.56048584 9.25919396 9.56048584 9.25919396 0.439509192 0.390705188 0.439509192"></polygon> </defs> <g id="Symbols" stroke="none" stroke-width="1" fill="none" fill-rule="evenodd"> <g id="AB-Hotel" transform="translate(-469.000000, -17.000000)"> <g id="Page-1" transform="translate(469.000000, 17.000000)"> <g id="Group-3" transform="translate(80.125977, 40.981250)"> <mask id="mask-2" fill="white"> <use xlink:href="#path-1"></use> </mask> <g id="Clip-2"></g> <path d="M4.02819689,4.21754004 C1.93718206,3.78868396 1.45779199,3.22188373 1.45779199,2.28996399 L1.45779199,2.26492462 C1.45779199,1.34484167 2.31504888,0.601855347 3.61299865,0.601855347 C4.58270507,0.601855347 5.41446734,0.879109436 6.24577435,1.59660114 L6.66142785,1.07987964 C5.76683953,0.362843201 4.92324047,0.00956048584 3.63803802,0.00956048584 C2.00046337,0.00956048584 0.803126337,1.01705359 0.803126337,2.32729541 L0.803126337,2.35279004 C0.803126337,3.68807123 1.65947271,4.40647345 3.77643743,4.83396375 C5.77958685,5.23778046 6.27126898,5.77908606 6.27126898,6.71191632 L6.27126898,6.73695569 C6.27126898,7.74490405 5.3643886,8.48789038 4.04094421,8.48789038 C2.74390496,8.48789038 1.84840612,8.07223688 0.878699701,7.17810382 L0.451209406,7.66933069 C1.50878124,8.614453 2.59230297,9.08018524 4.00315753,9.08018524 C5.70446874,9.08018524 6.92593463,8.09773151 6.92593463,6.6745849 L6.92593463,6.64863501 C6.92593463,5.36388782 6.06958825,4.63273828 4.02819689,4.21754004" id="Fill-1" fill="#B3B4B3" mask="url(#mask-2)"></path> </g> <polygon id="Fill-4" fill="#B3B4B3" points="72.5289869 41.1165538 71.8734107 41.1165538 71.8734107 49.9349639 77.7071281 49.9349639 77.7071281 49.3308322 72.5289869 49.3308322"></polygon> <g id="Group-8" transform="translate(0.000000, 40.981250)"> <mask id="mask-4" fill="white"> <use xlink:href="#path-3"></use> </mask> <g id="Clip-7"></g> <path d="M2.07908699,5.89317452 L4.40956923,0.790606653 L6.72775941,5.89317452 L2.07908699,5.89317452 Z M4.10682051,0.0722044312 L-9.10522461e-05,8.95389578 L0.680069226,8.95389578 L1.8018329,6.48546938 L7.00455824,6.48546938 L8.12632191,8.95389578 L8.84426887,8.95389578 L4.73690205,0.0722044312 L4.10682051,0.0722044312 Z" id="Fill-6" fill="#B3B4B3" mask="url(#mask-4)"></path> </g> <path d="M18.395604,47.529318 C18.395604,48.6374238 17.4377343,49.3307867 15.926267,49.3307867 L12.7262359,49.3307867 L12.7262359,45.7911306 L15.7122943,45.7911306 C17.4504816,45.7911306 18.395604,46.4207569 18.395604,47.5038234 L18.395604,47.529318 Z M12.7262359,41.7215505 L15.699547,41.7215505 C17.1104015,41.7215505 17.9043771,42.3771266 17.9043771,43.3463778 L17.9043771,43.3718724 C17.9043771,44.5432596 16.9592548,45.1860884 15.6358104,45.1860884 L12.7262359,45.1860884 L12.7262359,41.7215505 Z M17.0730701,45.4005165 C17.791017,45.1100598 18.5717901,44.5063834 18.5717901,43.3085911 L18.5717901,43.2830965 C18.5717901,42.7290436 18.3701093,42.2628561 18.0045346,41.8977366 C17.513763,41.4065097 16.7070401,41.1165083 15.7122943,41.1165083 L12.0711149,41.1165083 L12.0711149,49.9353736 L15.9012277,49.9353736 C17.8028538,49.9353736 19.0634722,49.0034539 19.0634722,47.529318 L19.0634722,47.5038234 C19.0634722,46.2823575 18.1310972,45.67686 17.0730701,45.4005165 Z" id="Fill-9" fill="#B3B4B3"></path> <path d="M51.1277028,27.0834906 C52.6928909,25.5952416 53.672613,23.6535525 53.89387,21.4432592 C54.2594448,17.7916089 52.4830154,14.1704611 49.2852606,11.8336052 C50.1129255,10.4300348 50.3983743,9.09156677 50.446632,8.01578448 C50.570463,5.27647766 49.2647738,2.94098755 47.91629,1.84198694 C47.5338706,1.530133 47.1314197,1.25606573 46.7203188,1.01568781 C53.0794076,2.47161322 57.8391638,8.17102856 57.8391638,14.9653472 C57.8391638,20.0656387 55.1558541,24.5485961 51.1277028,27.0834906 Z M46.6083245,28.9395906 C45.7173783,29.1362635 44.7959296,29.2482578 43.852173,29.269655 L43.852173,16.5250721 C44.4849861,16.2364365 45.0941257,15.91138 45.6550075,15.5326027 C47.1619222,14.5155491 48.2076572,13.4397668 48.9333436,12.3849265 C51.9244099,14.5865698 53.5870239,17.9718923 53.245578,21.3786121 C52.8886532,24.9419418 50.406569,27.7650167 46.605593,28.9313959 L46.6083245,28.9395906 Z M43.852173,10.1373018 C45.1683332,10.4500663 46.4234885,10.8925802 47.529318,11.4921592 C47.8284246,11.6551428 48.1152392,11.8317841 48.3947696,12.0152544 C47.7118777,13.0086344 46.7225951,14.0261432 45.2907985,14.9926628 C44.8414557,15.2958668 44.3556919,15.5612841 43.852173,15.8034831 L43.852173,10.1373018 Z M43.852173,0.665136658 C45.0039839,0.793065063 46.3679466,1.4208703 47.5047339,2.3473269 C48.7271103,3.34298322 49.9094237,5.47315051 49.7960637,7.98664777 C49.7523586,8.96500415 49.4919492,10.1819174 48.7448655,11.4652988 C48.4516772,11.2740891 48.1525706,11.0897083 47.8398061,10.9194406 C46.6447454,10.2711486 45.2816933,9.7981322 43.852173,9.47307568 L43.852173,0.665136658 Z M43.1997837,9.3378631 C42.0479728,9.11569562 40.8633831,8.98867773 39.6874433,8.94952527 L43.1997837,1.78416876 L43.1997837,9.3378631 Z M43.1997837,16.0930292 C40.8260516,17.0768488 38.045316,17.4515287 35.5923685,17.3035688 L39.3783209,9.57960681 C40.6548734,9.60692249 41.9487258,9.73985876 43.1997837,9.99161823 L43.1997837,16.0930292 Z M43.1997837,29.269655 C38.8192601,29.1708633 34.9194924,27.0966932 32.3577375,23.9021251 L35.2773278,17.9473082 C35.732589,17.9832739 36.1960449,18.0064922 36.6708824,18.0064922 C38.8324627,18.0064922 41.1406371,17.6158781 43.1997837,16.7991394 L43.1997837,29.269655 Z M29.2264507,15.4970923 C29.5674414,15.9591824 30.049563,16.3757465 30.6819209,16.7308502 C31.7035271,17.3049346 33.0647582,17.6919067 34.5853307,17.8776533 L31.9170446,23.3216671 C30.3149803,21.1031791 29.3334371,18.4107642 29.2264507,15.4970923 Z M29.2806268,13.591824 L29.3047557,13.5931898 C29.3753212,12.4409236 30.4228773,11.6255508 31.2901499,11.1443397 C33.0515556,10.1668938 35.7690099,9.60236987 38.6558213,9.57414368 L34.892632,17.2503033 C33.3597674,17.0914171 31.9953495,16.7212897 31.001059,16.1631395 C30.1947914,15.7096993 29.2451164,14.9134474 29.3015688,13.6933473 L29.2724321,13.6919815 C29.275619,13.6587474 29.2769847,13.6250581 29.2806268,13.591824 Z M43.0231423,0.664681396 L38.9708621,8.9304043 C35.8464043,8.91947803 32.8767353,9.51905707 30.9741986,10.5748079 C30.4319825,10.8757355 29.9803633,11.207621 29.6243491,11.5663668 C31.1153296,5.46632159 36.5247435,0.890490967 43.0231423,0.664681396 Z M43.526206,0 C35.2745962,0 28.5613141,6.71373737 28.5613141,14.9653472 C28.5613141,23.2165017 35.2745962,29.9293286 43.526206,29.9293286 C51.7778158,29.9293286 58.4910979,23.2165017 58.4910979,14.9653472 C58.4910979,6.71373737 51.7778158,0 43.526206,0 Z" id="Fill-11" fill="#B3B4B3"></path> <polygon id="Fill-13" fill="#B3B4B3" points="50.4857389 41.7216415 53.5592075 41.7216415 53.5592075 49.9354646 54.2143284 49.9354646 54.2143284 41.7216415 57.2882522 41.7216415 57.2882522 41.1165993 50.4857389 41.1165993"></polygon> <g id="Group-17" transform="translate(38.241943, 40.525989)"> <mask id="mask-6" fill="white"> <use xlink:href="#path-5"></use> </mask> <g id="Clip-16"></g> <path d="M8.57948894,5.02535557 C8.57948894,7.20378055 7.01657714,8.96791782 4.83724163,8.96791782 C2.65790612,8.96791782 1.07041021,7.17919645 1.07041021,5.0003162 L1.07041021,4.97527683 C1.07041021,2.79548606 2.63241149,1.03180405 4.81265752,1.03180405 C6.99244829,1.03180405 8.57948894,2.82052543 8.57948894,5.0003162 L8.57948894,5.02535557 Z M4.83724163,0.439509192 C2.16667925,0.439509192 0.390705188,2.59380533 0.390705188,5.0003162 L0.390705188,5.02535557 C0.390705188,7.43095591 2.14118462,9.56066794 4.81265752,9.56066794 C7.4832199,9.56066794 9.25919396,7.40591654 9.25919396,5.0003162 L9.25919396,4.97527683 C9.25919396,2.56831071 7.50825927,0.439509192 4.83724163,0.439509192 Z" id="Fill-15" fill="#B3B4B3" mask="url(#mask-6)"></path> </g> <polygon id="Fill-18" fill="#B3B4B3" points="62.0113143 45.790994 67.0638034 45.790994 67.0638034 45.1859519 62.0113143 45.1859519 62.0113143 41.7214139 67.6310589 41.7214139 67.6310589 41.1163717 61.3561934 41.1163717 61.3561934 49.935237 67.6929745 49.935237 67.6929745 49.3311054 62.0113143 49.3311054"></polygon> <polygon id="Fill-20" fill="#B3B4B3" points="33.6703922 45.1987902 28.0260635 45.1987902 28.0260635 41.116918 27.3713978 41.116918 27.3713978 49.9353281 28.0260635 49.9353281 28.0260635 45.8029219 33.6703922 45.8029219 33.6703922 49.9353281 34.3255131 49.9353281 34.3255131 41.116918 33.6703922 41.116918"></polygon> </g> </g> </g> </svg>
