<?xml version="1.0" encoding="UTF-8" standalone="no"?>
<!DOCTYPE svg PUBLIC "-//W3C//DTD SVG 1.1//EN" "http://www.w3.org/Graphics/SVG/1.1/DTD/svg11.dtd">
<svg width="100%" height="100%" viewBox="0 0 300 100" version="1.1" xmlns="http://www.w3.org/2000/svg" xmlns:xlink="http://www.w3.org/1999/xlink" xml:space="preserve" xmlns:serif="http://www.serif.com/" style="fill-rule:evenodd;clip-rule:evenodd;stroke-linejoin:round;stroke-miterlimit:2;">
    <g transform="matrix(1.0216,0,0,1.0216,-2.49116,4.02807)">
        <path d="M4,39L20,39L7,62L17,80L37,80L47,63L27,63L57,10L37,10L30.767,21.581L14.431,21.581L4,39Z" style="fill:rgb(222,113,0);"/>
        <g transform="matrix(17.1086,0,0,17.1086,91.3335,70.1794)">
            <path d="M0.234,0L0.234,-0.595L0.021,-0.595L0.021,-0.716L0.59,-0.716L0.59,-0.595L0.378,-0.595L0.378,0L0.234,0Z" style="fill:rgb(222,113,0);fill-rule:nonzero;"/>
        </g>
        <g transform="matrix(17.1086,0,0,17.1086,107.772,70.1794)">
            <path d="M0.073,0L0.073,-0.716L0.604,-0.716L0.604,-0.595L0.217,-0.595L0.217,-0.436L0.577,-0.436L0.577,-0.315L0.217,-0.315L0.217,-0.121L0.617,-0.121L0.617,0L0.073,0Z" style="fill:rgb(222,113,0);fill-rule:nonzero;"/>
        </g>
        <g transform="matrix(17.1086,0,0,17.1086,125.172,70.1794)">
            <path d="M0.531,-0.263L0.671,-0.219C0.649,-0.141 0.614,-0.083 0.564,-0.045C0.514,-0.007 0.45,0.012 0.374,0.012C0.278,0.012 0.2,-0.02 0.139,-0.085C0.078,-0.15 0.047,-0.239 0.047,-0.352C0.047,-0.471 0.078,-0.563 0.14,-0.629C0.201,-0.695 0.282,-0.728 0.382,-0.728C0.47,-0.728 0.541,-0.702 0.596,-0.65C0.628,-0.62 0.653,-0.576 0.669,-0.519L0.526,-0.484C0.517,-0.521 0.5,-0.551 0.473,-0.572C0.446,-0.594 0.413,-0.604 0.375,-0.604C0.322,-0.604 0.279,-0.585 0.246,-0.547C0.213,-0.509 0.196,-0.448 0.196,-0.362C0.196,-0.272 0.213,-0.207 0.245,-0.169C0.278,-0.131 0.32,-0.111 0.372,-0.111C0.41,-0.111 0.444,-0.124 0.471,-0.148C0.499,-0.172 0.519,-0.211 0.531,-0.263Z" style="fill:rgb(222,113,0);fill-rule:nonzero;"/>
        </g>
        <g transform="matrix(17.1086,0,0,17.1086,143.515,70.1794)">
            <path d="M0.073,0L0.073,-0.716L0.218,-0.716L0.218,-0.434L0.501,-0.434L0.501,-0.716L0.646,-0.716L0.646,0L0.501,0L0.501,-0.313L0.218,-0.313L0.218,0L0.073,0Z" style="fill:rgb(222,113,0);fill-rule:nonzero;"/>
        </g>
        <g transform="matrix(17.1086,0,0,17.1086,161.858,70.1794)">
            <path d="M0.074,0L0.074,-0.716L0.215,-0.716L0.508,-0.238L0.508,-0.716L0.642,-0.716L0.642,0L0.497,0L0.208,-0.467L0.208,0L0.074,0Z" style="fill:rgb(222,113,0);fill-rule:nonzero;"/>
        </g>
        <g transform="matrix(17.1086,0,0,17.1086,180.202,70.1794)">
            <path d="M0.043,-0.354C0.043,-0.426 0.054,-0.488 0.076,-0.537C0.092,-0.574 0.115,-0.606 0.143,-0.635C0.171,-0.664 0.202,-0.686 0.235,-0.7C0.28,-0.719 0.331,-0.728 0.39,-0.728C0.495,-0.728 0.58,-0.695 0.643,-0.63C0.706,-0.564 0.738,-0.473 0.738,-0.357C0.738,-0.241 0.706,-0.151 0.644,-0.086C0.581,-0.02 0.497,0.012 0.392,0.012C0.285,0.012 0.201,-0.02 0.138,-0.085C0.075,-0.15 0.043,-0.24 0.043,-0.354ZM0.192,-0.358C0.192,-0.277 0.211,-0.216 0.249,-0.174C0.286,-0.132 0.333,-0.111 0.391,-0.111C0.449,-0.111 0.496,-0.132 0.533,-0.174C0.57,-0.215 0.588,-0.277 0.588,-0.36C0.588,-0.442 0.57,-0.504 0.534,-0.544C0.498,-0.584 0.451,-0.604 0.391,-0.604C0.332,-0.604 0.284,-0.584 0.247,-0.543C0.211,-0.502 0.192,-0.441 0.192,-0.358Z" style="fill:rgb(222,113,0);fill-rule:nonzero;"/>
        </g>
        <g transform="matrix(17.1086,0,0,17.1086,199.497,70.1794)">
            <path d="M0.077,0L0.077,-0.71L0.221,-0.71L0.221,-0.121L0.581,-0.121L0.581,0L0.077,0Z" style="fill:rgb(222,113,0);fill-rule:nonzero;"/>
        </g>
        <g transform="matrix(17.1086,0,0,17.1086,215.936,70.1794)">
            <path d="M0.043,-0.354C0.043,-0.426 0.054,-0.488 0.076,-0.537C0.092,-0.574 0.115,-0.606 0.143,-0.635C0.171,-0.664 0.202,-0.686 0.235,-0.7C0.28,-0.719 0.331,-0.728 0.39,-0.728C0.495,-0.728 0.58,-0.695 0.643,-0.63C0.706,-0.564 0.738,-0.473 0.738,-0.357C0.738,-0.241 0.706,-0.151 0.644,-0.086C0.581,-0.02 0.497,0.012 0.392,0.012C0.285,0.012 0.201,-0.02 0.138,-0.085C0.075,-0.15 0.043,-0.24 0.043,-0.354ZM0.192,-0.358C0.192,-0.277 0.211,-0.216 0.249,-0.174C0.286,-0.132 0.333,-0.111 0.391,-0.111C0.449,-0.111 0.496,-0.132 0.533,-0.174C0.57,-0.215 0.588,-0.277 0.588,-0.36C0.588,-0.442 0.57,-0.504 0.534,-0.544C0.498,-0.584 0.451,-0.604 0.391,-0.604C0.332,-0.604 0.284,-0.584 0.247,-0.543C0.211,-0.502 0.192,-0.441 0.192,-0.358Z" style="fill:rgb(222,113,0);fill-rule:nonzero;"/>
        </g>
        <g transform="matrix(17.1086,0,0,17.1086,235.232,70.1794)">
            <path d="M0.406,-0.263L0.406,-0.384L0.717,-0.384L0.717,-0.099C0.687,-0.069 0.643,-0.044 0.586,-0.021C0.528,0.001 0.47,0.012 0.411,0.012C0.336,0.012 0.271,-0.003 0.215,-0.035C0.16,-0.066 0.118,-0.111 0.09,-0.17C0.062,-0.228 0.048,-0.292 0.048,-0.36C0.048,-0.435 0.063,-0.501 0.095,-0.559C0.126,-0.617 0.172,-0.661 0.232,-0.692C0.278,-0.716 0.335,-0.728 0.403,-0.728C0.492,-0.728 0.562,-0.709 0.612,-0.672C0.662,-0.635 0.694,-0.583 0.708,-0.518L0.564,-0.491C0.554,-0.526 0.535,-0.554 0.508,-0.574C0.48,-0.594 0.445,-0.604 0.403,-0.604C0.34,-0.604 0.29,-0.584 0.253,-0.544C0.215,-0.504 0.197,-0.445 0.197,-0.366C0.197,-0.281 0.216,-0.218 0.253,-0.175C0.291,-0.133 0.341,-0.111 0.402,-0.111C0.432,-0.111 0.462,-0.117 0.493,-0.129C0.523,-0.141 0.549,-0.155 0.571,-0.172L0.571,-0.263L0.406,-0.263Z" style="fill:rgb(222,113,0);fill-rule:nonzero;"/>
        </g>
        <g transform="matrix(17.1086,0,0,17.1086,254.527,70.1794)">
            <rect x="0.068" y="-0.716" width="0.145" height="0.716" style="fill:rgb(222,113,0);fill-rule:nonzero;"/>
        </g>
        <g transform="matrix(17.1086,0,0,17.1086,265.269,70.1794)">
            <path d="M0.073,0L0.073,-0.716L0.604,-0.716L0.604,-0.595L0.217,-0.595L0.217,-0.436L0.577,-0.436L0.577,-0.315L0.217,-0.315L0.217,-0.121L0.617,-0.121L0.617,0L0.073,0Z" style="fill:rgb(222,113,0);fill-rule:nonzero;"/>
        </g>
        <g transform="matrix(17.1086,0,0,17.1086,282.668,70.1794)">
            <path d="M0.036,-0.233L0.177,-0.247C0.185,-0.199 0.202,-0.165 0.228,-0.143C0.254,-0.12 0.289,-0.109 0.333,-0.109C0.38,-0.109 0.415,-0.119 0.438,-0.139C0.462,-0.159 0.474,-0.182 0.474,-0.208C0.474,-0.225 0.469,-0.239 0.459,-0.251C0.449,-0.263 0.431,-0.273 0.407,-0.282C0.39,-0.288 0.351,-0.299 0.291,-0.313C0.214,-0.333 0.159,-0.356 0.128,-0.384C0.084,-0.424 0.062,-0.472 0.062,-0.528C0.062,-0.565 0.072,-0.599 0.093,-0.631C0.114,-0.662 0.143,-0.687 0.182,-0.703C0.221,-0.72 0.268,-0.728 0.323,-0.728C0.413,-0.728 0.481,-0.708 0.526,-0.669C0.572,-0.63 0.595,-0.577 0.598,-0.511L0.453,-0.505C0.447,-0.542 0.434,-0.568 0.413,-0.584C0.393,-0.6 0.362,-0.608 0.322,-0.608C0.28,-0.608 0.247,-0.6 0.223,-0.583C0.208,-0.571 0.2,-0.557 0.2,-0.538C0.2,-0.521 0.207,-0.507 0.222,-0.495C0.24,-0.479 0.284,-0.463 0.354,-0.447C0.425,-0.43 0.477,-0.413 0.51,-0.395C0.544,-0.378 0.571,-0.353 0.59,-0.323C0.609,-0.292 0.618,-0.254 0.618,-0.208C0.618,-0.167 0.607,-0.129 0.584,-0.093C0.561,-0.057 0.529,-0.031 0.487,-0.013C0.446,0.004 0.394,0.013 0.332,0.013C0.241,0.013 0.172,-0.008 0.123,-0.05C0.075,-0.092 0.046,-0.153 0.036,-0.233Z" style="fill:rgb(222,113,0);fill-rule:nonzero;"/>
        </g>
        <g transform="matrix(1,0,0,1,-3.81559,0)">
            <g transform="matrix(39.4905,0,0,39.4905,96.9876,52.1567)">
                <path d="M0.718,0L0.561,0L0.499,-0.163L0.212,-0.163L0.153,0L0,0L0.279,-0.716L0.432,-0.716L0.718,0ZM0.452,-0.283L0.354,-0.549L0.257,-0.283L0.452,-0.283Z" style="fill:rgb(0,20,40);fill-rule:nonzero;"/>
            </g>
            <g transform="matrix(39.4905,0,0,39.4905,126.296,52.1567)">
                <path d="M0.531,-0.263L0.671,-0.219C0.649,-0.141 0.614,-0.083 0.564,-0.045C0.514,-0.007 0.45,0.012 0.374,0.012C0.278,0.012 0.2,-0.02 0.139,-0.085C0.078,-0.15 0.047,-0.239 0.047,-0.352C0.047,-0.471 0.078,-0.563 0.14,-0.629C0.201,-0.695 0.282,-0.728 0.382,-0.728C0.47,-0.728 0.541,-0.702 0.596,-0.65C0.628,-0.62 0.653,-0.576 0.669,-0.519L0.526,-0.484C0.517,-0.521 0.5,-0.551 0.473,-0.572C0.446,-0.594 0.413,-0.604 0.375,-0.604C0.322,-0.604 0.279,-0.585 0.246,-0.547C0.213,-0.509 0.196,-0.448 0.196,-0.362C0.196,-0.272 0.213,-0.207 0.245,-0.169C0.278,-0.131 0.32,-0.111 0.372,-0.111C0.41,-0.111 0.444,-0.124 0.471,-0.148C0.499,-0.172 0.519,-0.211 0.531,-0.263Z" style="fill:rgb(0,20,40);fill-rule:nonzero;"/>
            </g>
            <g transform="matrix(39.4905,0,0,39.4905,155.605,52.1567)">
                <path d="M0.531,-0.263L0.671,-0.219C0.649,-0.141 0.614,-0.083 0.564,-0.045C0.514,-0.007 0.45,0.012 0.374,0.012C0.278,0.012 0.2,-0.02 0.139,-0.085C0.078,-0.15 0.047,-0.239 0.047,-0.352C0.047,-0.471 0.078,-0.563 0.14,-0.629C0.201,-0.695 0.282,-0.728 0.382,-0.728C0.47,-0.728 0.541,-0.702 0.596,-0.65C0.628,-0.62 0.653,-0.576 0.669,-0.519L0.526,-0.484C0.517,-0.521 0.5,-0.551 0.473,-0.572C0.446,-0.594 0.413,-0.604 0.375,-0.604C0.322,-0.604 0.279,-0.585 0.246,-0.547C0.213,-0.509 0.196,-0.448 0.196,-0.362C0.196,-0.272 0.213,-0.207 0.245,-0.169C0.278,-0.131 0.32,-0.111 0.372,-0.111C0.41,-0.111 0.444,-0.124 0.471,-0.148C0.499,-0.172 0.519,-0.211 0.531,-0.263Z" style="fill:rgb(0,20,40);fill-rule:nonzero;"/>
            </g>
            <g transform="matrix(39.4905,0,0,39.4905,184.913,52.1567)">
                <path d="M0.043,-0.354C0.043,-0.426 0.054,-0.488 0.076,-0.537C0.092,-0.574 0.115,-0.606 0.143,-0.635C0.171,-0.664 0.202,-0.686 0.235,-0.7C0.28,-0.719 0.331,-0.728 0.39,-0.728C0.495,-0.728 0.58,-0.695 0.643,-0.63C0.706,-0.564 0.738,-0.473 0.738,-0.357C0.738,-0.241 0.706,-0.151 0.644,-0.086C0.581,-0.02 0.497,0.012 0.392,0.012C0.285,0.012 0.201,-0.02 0.138,-0.085C0.075,-0.15 0.043,-0.24 0.043,-0.354ZM0.192,-0.358C0.192,-0.277 0.211,-0.216 0.249,-0.174C0.286,-0.132 0.333,-0.111 0.391,-0.111C0.449,-0.111 0.496,-0.132 0.533,-0.174C0.57,-0.215 0.588,-0.277 0.588,-0.36C0.588,-0.442 0.57,-0.504 0.534,-0.544C0.498,-0.584 0.451,-0.604 0.391,-0.604C0.332,-0.604 0.284,-0.584 0.247,-0.543C0.211,-0.502 0.192,-0.441 0.192,-0.358Z" style="fill:rgb(0,20,40);fill-rule:nonzero;"/>
            </g>
            <g transform="matrix(39.4905,0,0,39.4905,216.42,52.1567)">
                <path d="M0.072,-0.716L0.216,-0.716L0.216,-0.328C0.216,-0.267 0.218,-0.227 0.222,-0.208C0.228,-0.179 0.243,-0.156 0.266,-0.138C0.289,-0.12 0.321,-0.111 0.361,-0.111C0.402,-0.111 0.433,-0.12 0.454,-0.136C0.475,-0.153 0.487,-0.174 0.492,-0.198C0.496,-0.223 0.498,-0.263 0.498,-0.32L0.498,-0.716L0.643,-0.716L0.643,-0.34C0.643,-0.254 0.639,-0.193 0.631,-0.158C0.623,-0.122 0.609,-0.092 0.588,-0.068C0.567,-0.043 0.539,-0.024 0.503,-0.01C0.468,0.005 0.422,0.012 0.366,0.012C0.297,0.012 0.246,0.004 0.21,-0.011C0.175,-0.027 0.147,-0.048 0.126,-0.073C0.106,-0.098 0.092,-0.125 0.086,-0.152C0.076,-0.193 0.072,-0.254 0.072,-0.334L0.072,-0.716Z" style="fill:rgb(0,20,40);fill-rule:nonzero;"/>
            </g>
            <g transform="matrix(39.4905,0,0,39.4905,245.729,52.1567)">
                <path d="M0.074,0L0.074,-0.716L0.215,-0.716L0.508,-0.238L0.508,-0.716L0.642,-0.716L0.642,0L0.497,0L0.208,-0.467L0.208,0L0.074,0Z" style="fill:rgb(0,20,40);fill-rule:nonzero;"/>
            </g>
            <g transform="matrix(39.4905,0,0,39.4905,275.037,52.1567)">
                <path d="M0.234,0L0.234,-0.595L0.021,-0.595L0.021,-0.716L0.59,-0.716L0.59,-0.595L0.378,-0.595L0.378,0L0.234,0Z" style="fill:rgb(0,20,40);fill-rule:nonzero;"/>
            </g>
        </g>
        <path d="M60.369,15.672L50.577,33.028L70.528,67.267L80.36,50.059L60.369,15.672Z" style="fill:rgb(0,20,40);"/>
    </g>
</svg>
