<?xml version="1.0" encoding="UTF-8" standalone="no"?>
<svg
   xmlns:dc="http://purl.org/dc/elements/1.1/"
   xmlns:cc="http://creativecommons.org/ns#"
   xmlns:rdf="http://www.w3.org/1999/02/22-rdf-syntax-ns#"
   xmlns:svg="http://www.w3.org/2000/svg"
   xmlns="http://www.w3.org/2000/svg"
   xmlns:sodipodi="http://sodipodi.sourceforge.net/DTD/sodipodi-0.dtd"
   xmlns:inkscape="http://www.inkscape.org/namespaces/inkscape"
   width="1066.7601"
   height="427.75882"
   version="1.1"
   id="svg16"
   sodipodi:docname="alder-hey.svg"
   inkscape:version="0.92.5 (2060ec1f9f, 2020-04-08)">
  <metadata
     id="metadata22">
    <rdf:RDF>
      <cc:Work
         rdf:about="">
        <dc:format>image/svg+xml</dc:format>
        <dc:type
           rdf:resource="http://purl.org/dc/dcmitype/StillImage" />
      </cc:Work>
    </rdf:RDF>
  </metadata>
  <defs
     id="defs20" />
  <sodipodi:namedview
     pagecolor="#ffffff"
     bordercolor="#666666"
     borderopacity="1"
     objecttolerance="10"
     gridtolerance="10"
     guidetolerance="10"
     inkscape:pageopacity="0"
     inkscape:pageshadow="2"
     inkscape:window-width="1127"
     inkscape:window-height="687"
     id="namedview18"
     showgrid="false"
     inkscape:zoom="0.29733895"
     inkscape:cx="512.81253"
     inkscape:cy="173.52144"
     inkscape:window-x="40"
     inkscape:window-y="27"
     inkscape:window-maximized="0"
     inkscape:current-layer="svg16" />
  <path
     d="M 745.76052,181.3539 H 1016.7975 V 76.433896 H 745.76052 V 181.3539"
     id="path2"
     inkscape:connector-curvature="0"
     style="fill:#ffffff" />
  <path
     d="M 1024.0695,72.564896 H 742.49552 V 185.9509 h 281.57398 z m -168.36398,10.94 -19.438,91.264004 h -30.505 l -19.178,-63.15 h -0.257 l -12.759,63.15 h -23.133 l 19.593,-91.264004 h 30.608 l 18.799,63.286004 h 0.259 l 12.878,-63.286004 z m 87.246,0 -19.058,91.264004 h -24.564 l 8.147,-39.088 h -29.053 l -8.148,39.088 h -24.566 l 19.06,-91.264004 h 24.564 l -7.216,34.915004 h 29.039 l 7.23,-34.915004 z m 70.57198,2.49 -5.922,18.172004 c -4.729,-2.218 -11.16998,-4.175004 -20.23198,-4.175004 -9.718,0 -17.609,1.424004 -17.609,8.759004 0,12.933 35.61298,8.106 35.61298,35.826 0,25.228 -23.52898,31.774 -44.81398,31.774 -9.459,0 -20.371,-2.236 -28.379,-4.724 l 5.783,-18.566 c 4.85,3.143 14.588,5.239 22.596,5.239 7.632,0 19.576,-1.444 19.576,-10.855 0,-14.649 -35.612,-9.154 -35.612,-34.898 0,-23.547004 20.769,-30.606004 40.876,-30.606004 11.309,0 21.94498,1.186 28.12398,4.054"
     id="path4"
     inkscape:connector-curvature="0"
     style="fill:#196fc1" />
  <g
     aria-label="NHS Foundation Trust"
     style="font-weight:700;font-size:40px;font-family:Frutiger;-inkscape-font-specification:Frutiger-Bold;text-anchor:end;fill:#196fc1"
     font-weight="700"
     font-size="40"
     id="g8"
     transform="translate(-48.447475,-142.6161)">
    <path
       d="m 576.338,499.224 h -8.646 l -11.667,-21.485 q -1.12,-2.03 -2.942,-6.302 0.807,5.547 0.807,9.167 v 18.62 h -6.823 V 463.65 h 8.464 l 11.953,21.536 q 0.625,1.146 0.807,1.641 0.208,0.495 0.755,1.875 0.547,1.38 1.12,2.786 -0.651,-3.724 -0.651,-8.697 V 463.65 h 6.823 z m 37.083,0 H 606.26 V 483.91 h -14.193 v 15.313 H 584.88 V 463.65 h 7.187 v 14.453 H 606.26 V 463.65 h 7.161 z m 7.969,-0.807 0.651,-6.38 q 4.219,2.291 8.047,2.291 2.474,0 4.323,-1.224 1.875,-1.224 1.875,-3.594 0,-2.396 -1.589,-3.411 -1.562,-1.016 -5.703,-2.787 -4.14,-1.797 -6.224,-3.984 -2.057,-2.214 -2.057,-6.302 0,-3.412 1.719,-5.677 1.745,-2.292 4.583,-3.36 2.865,-1.093 6.224,-1.093 4.505,0 8.49,1.406 l -0.6,5.86 q -3.88,-1.772 -7.37,-1.772 -2.29,0 -4.01,1.042 -1.692,1.016 -1.692,3.23 0,2.109 1.276,2.89 1.276,0.781 5.781,2.786 4.531,1.98 6.667,4.245 2.135,2.24 2.135,6.302 0,2.89 -1.068,5 -1.067,2.11 -2.968,3.49 -1.875,1.354 -4.323,2.005 -2.422,0.651 -5.157,0.651 -4.322,0 -9.01,-1.614 z m 51.406,-14.61 v 15.417 h -7.24 V 463.65 h 19.74 v 5.86 h -12.552 v 8.437 h 12.058 v 5.86 z m 44.011,2.448 q 0,3.047 -0.99,5.599 -0.99,2.526 -2.812,4.323 -1.797,1.77 -4.323,2.76 -2.526,0.99 -5.625,0.99 -4.089,0 -7.188,-1.77 -3.099,-1.772 -4.791,-5 -1.667,-3.23 -1.667,-7.267 0,-4.036 1.719,-7.161 1.718,-3.125 4.817,-4.844 3.125,-1.745 7.162,-1.745 3.125,0 5.65,1.042 2.553,1.042 4.35,2.969 1.797,1.901 2.734,4.48 0.964,2.577 0.964,5.624 z m -7.084,-0.156 q 0,-2.136 -0.703,-4.193 -0.677,-2.057 -2.187,-3.385 -1.51,-1.328 -3.724,-1.328 -2.11,0 -3.646,1.302 -1.51,1.302 -2.24,3.333 -0.729,2.005 -0.729,4.062 0,2.214 0.677,4.271 0.703,2.058 2.214,3.386 1.51,1.302 3.828,1.302 1.64,0 2.89,-0.781 1.25,-0.808 2.032,-2.032 0.781,-1.25 1.172,-2.786 0.416,-1.563 0.416,-3.151 z m 36.25,-13.281 v 16.12 q 0.053,1.12 0.105,3.463 0.078,2.344 0.13,3.75 0.052,1.406 0.156,3.073 h -6.458 l -0.209,-4.063 q -0.911,1.433 -2.213,2.422 -1.276,0.99 -2.89,1.537 -1.616,0.52 -3.23,0.52 -3.672,0 -5.73,-1.51 -2.057,-1.51 -2.838,-4.14 -0.755,-2.63 -0.755,-6.277 v -14.895 h 6.823 v 12.708 q 0,2.474 0.234,4.193 0.26,1.692 1.328,2.968 1.068,1.25 3.23,1.25 3.099,0 4.296,-2.604 1.198,-2.63 1.198,-6.146 v -12.37 z m 13.724,0 0.157,4.218 q 3.177,-4.635 8.906,-4.635 5.312,0 7.161,3.151 1.85,3.125 1.85,8.802 v 14.87 h -6.824 v -13.281 q 0,-3.516 -0.911,-5.704 -0.886,-2.187 -3.88,-2.187 -3.203,0 -4.506,2.578 -1.302,2.552 -1.302,6.068 v 12.526 H 753.5 v -16.797 q 0,-5.599 -0.26,-9.61 z m 49.115,26.406 h -6.458 l -0.105,-4.48 q -1.171,2.37 -3.359,3.646 -2.161,1.25 -4.896,1.25 -2.864,0 -5.026,-1.12 -2.135,-1.145 -3.463,-3.072 -1.328,-1.927 -1.98,-4.375 -0.625,-2.448 -0.625,-5.13 0,-3.542 1.172,-6.641 1.172,-3.125 3.62,-5.026 2.474,-1.927 6.146,-1.927 2.76,0 4.818,1.224 2.057,1.224 3.385,3.62 -0.26,-1.928 -0.26,-4.688 v -11.693 h 6.823 v 30.73 q 0.052,2.552 0.078,4.479 0.052,1.927 0.13,3.203 z m -6.927,-13.021 q 0,-2.057 -0.651,-3.88 -0.651,-1.85 -2.057,-3.047 -1.38,-1.224 -3.438,-1.224 -3.073,0 -4.427,2.37 -1.328,2.343 -1.328,5.677 0,3.125 1.484,5.65 1.485,2.527 4.375,2.527 1.953,0 3.334,-1.172 1.406,-1.198 2.057,-3.02 0.65,-1.85 0.65,-3.881 z m 35.885,13.021 h -6.094 l -0.104,-3.959 q -1.224,2.11 -3.437,3.256 -2.188,1.12 -4.766,1.12 -2.63,0 -4.713,-0.912 -2.058,-0.911 -3.256,-2.76 -1.197,-1.875 -1.197,-4.532 0,-4.948 3.88,-6.77 3.88,-1.823 9.453,-1.823 0.807,0 1.042,0.026 0.234,0 1.041,0.052 0.808,0.026 1.64,0.078 0,-2.943 -1.431,-4.375 -1.433,-1.432 -4.428,-1.432 -4.53,0 -8.177,2.89 l -0.208,-5.937 q 4.245,-1.797 9.193,-1.797 1.849,0 3.672,0.364 1.823,0.365 3.359,1.224 1.563,0.834 2.578,2.24 1.042,1.406 1.354,3.23 0.339,1.796 0.339,4.296 v 5.182 q 0.026,2.604 0.052,4.766 0.052,2.135 0.208,5.573 z m -6.406,-12.005 q -0.26,-0.053 -0.807,-0.053 h -0.834 q -2.24,0 -4.114,0.26 -1.85,0.235 -3.255,1.25 -1.38,0.99 -1.38,2.918 0,1.562 1.223,2.5 1.25,0.911 2.891,0.911 3.099,0 4.687,-2.292 1.589,-2.291 1.589,-5.494 z m 27.839,6.354 0.234,5.338 q -2.604,0.521 -4.61,0.521 -3.359,0 -5.312,-1.224 -1.953,-1.25 -2.734,-3.515 -0.782,-2.292 -0.782,-5.6 v -11.041 h -4.974 v -5.078 h 5.079 v -5.365 l 6.822,-2.24 v 7.605 h 6.016 v 5.078 h -6.016 v 9.61 q 0,3.072 0.652,4.687 0.677,1.588 3.28,1.588 0.964,0 2.345,-0.364 z m 11.744,5.651 h -6.823 v -26.406 h 6.823 z m 0.104,-31.198 h -7.03 v -6.458 h 7.03 z m 32.683,18.229 q 0,3.047 -0.99,5.599 -0.99,2.526 -2.812,4.323 -1.797,1.77 -4.323,2.76 -2.526,0.99 -5.625,0.99 -4.089,0 -7.188,-1.77 -3.099,-1.772 -4.791,-5 -1.667,-3.23 -1.667,-7.267 0,-4.036 1.719,-7.161 1.718,-3.125 4.817,-4.844 3.125,-1.745 7.162,-1.745 3.125,0 5.65,1.042 2.553,1.042 4.35,2.969 1.797,1.901 2.734,4.48 0.964,2.577 0.964,5.624 z m -7.084,-0.156 q 0,-2.136 -0.703,-4.193 -0.677,-2.057 -2.187,-3.385 -1.51,-1.328 -3.724,-1.328 -2.11,0 -3.646,1.302 -1.51,1.302 -2.24,3.333 -0.729,2.005 -0.729,4.062 0,2.214 0.677,4.271 0.703,2.058 2.214,3.386 1.51,1.302 3.828,1.302 1.64,0 2.89,-0.781 1.25,-0.808 2.032,-2.032 0.781,-1.25 1.172,-2.786 0.416,-1.563 0.416,-3.151 z m 18.985,-13.281 0.156,4.218 q 3.177,-4.635 8.906,-4.635 5.313,0 7.162,3.151 1.849,3.125 1.849,8.802 v 14.87 h -6.823 v -13.281 q 0,-3.516 -0.912,-5.704 -0.885,-2.187 -3.88,-2.187 -3.203,0 -4.505,2.578 -1.302,2.552 -1.302,6.068 v 12.526 h -6.85 v -16.797 q 0,-5.599 -0.26,-9.61 z m 53.906,26.406 h -7.187 V 469.51 h -10.157 v -5.86 h 27.578 v 5.86 h -10.234 z m 21.276,0 h -6.823 V 480.76 q -0.13,-6.588 -0.208,-7.942 h 6.198 l 0.156,6.666 q 0.885,-3.125 2.682,-5 1.823,-1.875 4.74,-1.875 0.885,0 2.005,0.26 v 6.407 q -1.354,-0.365 -2.396,-0.365 -2.422,0 -3.854,1.276 -1.432,1.276 -1.98,3.282 -0.52,1.979 -0.52,4.349 v 0.52 z m 36.693,-26.406 v 16.12 q 0.052,1.12 0.104,3.463 0.078,2.344 0.13,3.75 0.052,1.406 0.156,3.073 h -6.458 l -0.208,-4.063 q -0.912,1.433 -2.214,2.422 -1.276,0.99 -2.89,1.537 -1.615,0.52 -3.23,0.52 -3.671,0 -5.729,-1.51 -2.057,-1.51 -2.838,-4.14 -0.755,-2.63 -0.755,-6.277 v -14.895 h 6.822 v 12.708 q 0,2.474 0.235,4.193 0.26,1.692 1.328,2.968 1.068,1.25 3.23,1.25 3.098,0 4.296,-2.604 1.198,-2.63 1.198,-6.146 v -12.37 z m 6.094,25.702 0.312,-5.755 q 3.646,1.875 6.719,1.875 1.693,0 3.203,-0.729 1.51,-0.729 1.51,-2.265 0,-1.328 -2.161,-2.266 -2.162,-0.937 -4.35,-1.849 -2.16,-0.911 -3.75,-2.552 -1.588,-1.64 -1.588,-4.583 0,-2.813 1.641,-4.61 1.667,-1.797 4.219,-2.604 2.552,-0.833 5.286,-0.833 2.89,0 6.51,1.015 l -0.494,5.105 q -3.177,-1.016 -5.6,-1.016 -1.77,0 -3.28,0.599 -1.51,0.599 -1.51,2.083 0,1.276 2.057,2.136 2.083,0.833 4.348,1.692 2.292,0.834 3.907,2.526 1.64,1.667 1.64,4.792 0,2.839 -1.588,4.74 -1.563,1.9 -4.063,2.786 -2.5,0.886 -5.286,0.886 -3.177,0 -7.682,-1.172 z m 38.88,-4.947 0.234,5.338 q -2.604,0.521 -4.61,0.521 -3.359,0 -5.312,-1.224 -1.953,-1.25 -2.734,-3.515 -0.781,-2.292 -0.781,-5.6 v -11.041 h -4.974 v -5.078 h 5.078 v -5.365 l 6.823,-2.24 v 7.605 h 6.015 v 5.078 h -6.015 v 9.61 q 0,3.072 0.65,4.687 0.678,1.588 3.282,1.588 0.964,0 2.344,-0.364 z"
       style="text-align:end"
       id="path6"
       inkscape:connector-curvature="0" />
  </g>
  <g
     id="g14"
     transform="translate(-48.447475,-142.6161)">
    <g
       aria-label="Alder Hey Children's"
       style="font-weight:700;font-size:600px;font-family:Frutiger;-inkscape-font-specification:Frutiger-Bold;text-anchor:end;fill:#231f20;stroke-width:10"
       font-weight="700"
       font-size="600"
       id="g12">
      <path
         d="m 398.311,420.152 h -11.757 l -4.649,-12.148 h -22.07 l -4.57,12.148 h -11.133 l 20.82,-53.36 h 11.992 z m -19.687,-20.898 -6.875,-18.868 q -0.235,-0.625 -1.055,-3.515 -0.312,1.21 -0.625,2.46 -0.312,1.212 -0.547,1.954 l -6.406,17.969 z m 35.742,20.898 h -10.234 v -57.617 h 10.234 z m 46.954,0 h -9.688 l -0.157,-6.719 q -1.757,3.555 -5.039,5.47 -3.242,1.874 -7.343,1.874 -4.297,0 -7.54,-1.68 -3.203,-1.718 -5.195,-4.609 -1.992,-2.89 -2.969,-6.563 -0.937,-3.671 -0.937,-7.695 0,-5.312 1.758,-9.96 1.758,-4.688 5.43,-7.54 3.71,-2.89 9.218,-2.89 4.14,0 7.227,1.835 3.086,1.836 5.078,5.43 -0.39,-2.89 -0.39,-7.031 v -17.54 h 10.234 v 46.095 q 0.078,3.828 0.117,6.718 0.078,2.891 0.195,4.805 z m -10.391,-19.531 q 0,-3.086 -0.977,-5.82 -0.977,-2.774 -3.086,-4.57 -2.07,-1.837 -5.156,-1.837 -4.61,0 -6.64,3.555 -1.993,3.516 -1.993,8.516 0,4.687 2.227,8.476 2.226,3.79 6.562,3.79 2.93,0 5,-1.759 2.11,-1.797 3.086,-4.53 0.977,-2.774 0.977,-5.821 z m 52.617,8.984 0.156,8.867 q -6.29,2.735 -13.594,2.735 -4.883,0 -8.71,-1.367 -3.79,-1.407 -6.485,-4.102 -2.695,-2.734 -4.102,-6.563 -1.406,-3.867 -1.406,-8.789 0,-4.53 1.29,-8.32 1.327,-3.828 3.788,-6.601 2.461,-2.813 6.055,-4.375 3.633,-1.563 8.203,-1.563 4.453,0 7.852,1.602 3.398,1.601 5.507,4.414 2.149,2.812 3.204,6.523 1.054,3.672 1.054,8.086 0,0.781 -0.039,1.172 -0.039,0.39 -0.078,0.976 -0.04,0.586 -0.117,1.368 h -26.64 q 0.39,4.687 3.632,7.304 3.281,2.618 8.125,2.618 5.469,0 12.305,-3.985 z m -6.953,-13.047 q -0.079,-2.656 -0.977,-4.883 -0.86,-2.226 -2.695,-3.593 -1.797,-1.367 -4.492,-1.367 -2.774,0 -4.766,1.367 -1.953,1.328 -3.047,3.554 -1.055,2.227 -1.29,4.922 z m 28.477,23.594 h -10.235 v -27.695 q -0.196,-9.883 -0.313,-11.914 h 9.297 l 0.235,10 q 1.328,-4.688 4.023,-7.5 2.734,-2.813 7.11,-2.813 1.327,0 3.007,0.39 v 9.61 q -2.031,-0.547 -3.594,-0.547 -3.632,0 -5.78,1.914 -2.15,1.914 -2.97,4.922 -0.78,2.969 -0.78,6.524 v 0.78 z m 85.702,0 H 600.03 v -22.969 h -21.289 v 22.97 H 567.96 v -53.36 h 10.781 v 21.68 h 21.29 v -21.68 h 10.741 z m 43.398,-10.547 0.157,8.867 q -6.29,2.735 -13.594,2.735 -4.883,0 -8.71,-1.367 -3.79,-1.407 -6.485,-4.102 -2.695,-2.734 -4.102,-6.563 -1.406,-3.867 -1.406,-8.789 0,-4.53 1.29,-8.32 1.327,-3.828 3.788,-6.601 2.461,-2.813 6.055,-4.375 3.633,-1.563 8.203,-1.563 4.453,0 7.852,1.602 3.398,1.601 5.507,4.414 2.149,2.812 3.204,6.523 1.054,3.672 1.054,8.086 0,0.781 -0.039,1.172 -0.039,0.39 -0.078,0.976 -0.04,0.586 -0.117,1.368 h -26.64 q 0.39,4.687 3.632,7.304 3.281,2.618 8.125,2.618 5.469,0 12.305,-3.985 z m -6.952,-13.047 q -0.079,-2.656 -0.977,-4.883 -0.86,-2.226 -2.695,-3.593 -1.797,-1.367 -4.492,-1.367 -2.774,0 -4.766,1.367 -1.953,1.328 -3.047,3.554 -1.055,2.227 -1.29,4.922 z m 16.093,39.258 0.703,-7.734 q 2.266,0.86 4.336,0.86 3.125,0 4.883,-1.798 1.758,-1.797 3.047,-5 l -15.625,-41.68 h 11.367 l 8.164,24.18 q 0.274,0.86 0.703,2.227 0.43,1.328 0.977,3.125 0.586,-2.11 1.055,-3.79 0.508,-1.718 0.86,-2.773 l 7.694,-22.968 h 10.391 l -15.742,42.421 q -1.797,4.649 -3.633,7.5 -1.797,2.891 -4.766,4.688 -2.93,1.797 -7.226,1.797 -2.89,0 -7.188,-1.055 z m 106.563,-26.446 0.39,9.415 q -6.64,1.758 -12.148,1.758 -6.25,0 -11.562,-1.64 -5.313,-1.642 -9.375,-5 -4.024,-3.4 -6.211,-8.4 -2.149,-5 -2.149,-11.523 0,-6.523 1.953,-11.68 1.953,-5.156 5.664,-8.71 3.75,-3.594 8.985,-5.391 5.234,-1.797 11.718,-1.797 5.782,0 12.891,2.305 l -0.86,9.14 q -5.273,-2.89 -11.445,-2.89 -5.234,0 -9.218,2.265 -3.985,2.227 -6.133,6.25 -2.11,4.024 -2.11,9.258 0,5.43 2.227,9.766 2.266,4.336 6.406,6.719 4.14,2.382 9.688,2.382 5.273,0 11.289,-2.226 z m 43.75,10.782 h -10.235 v -19.219 q 0,-5.703 -1.25,-9.101 -1.21,-3.438 -5.78,-3.438 -4.923,0 -6.915,4.063 -1.992,4.023 -1.992,9.453 v 18.242 h -10.234 v -57.617 h 10.234 v 23.633 q 2.227,-3.203 5.352,-4.766 3.125,-1.562 7.148,-1.562 4.18,0 6.875,1.367 2.734,1.328 4.18,3.633 1.484,2.304 2.03,5.39 0.587,3.047 0.587,7.188 z m 20.312,0 h -10.234 v -39.61 h 10.234 z m 0.157,-46.797 h -10.547 v -9.687 h 10.547 z m 20.39,46.797 H 844.25 v -57.617 h 10.234 z m 46.953,0 h -9.687 l -0.156,-6.719 q -1.758,3.555 -5.04,5.47 -3.242,1.874 -7.343,1.874 -4.297,0 -7.54,-1.68 -3.202,-1.718 -5.195,-4.609 -1.992,-2.89 -2.968,-6.563 -0.938,-3.671 -0.938,-7.695 0,-5.312 1.758,-9.96 1.758,-4.688 5.43,-7.54 3.71,-2.89 9.218,-2.89 4.141,0 7.227,1.835 3.086,1.836 5.078,5.43 -0.39,-2.89 -0.39,-7.031 v -17.54 h 10.234 v 46.095 q 0.078,3.828 0.117,6.718 0.078,2.891 0.195,4.805 z m -10.39,-19.531 q 0,-3.086 -0.977,-5.82 -0.976,-2.774 -3.086,-4.57 -2.07,-1.837 -5.156,-1.837 -4.61,0 -6.64,3.555 -1.993,3.516 -1.993,8.516 0,4.687 2.227,8.476 2.226,3.79 6.562,3.79 2.93,0 5,-1.759 2.11,-1.797 3.086,-4.53 0.977,-2.774 0.977,-5.821 z m 31.328,19.531 h -10.235 v -27.695 q -0.195,-9.883 -0.312,-11.914 h 9.297 l 0.234,10 q 1.328,-4.688 4.024,-7.5 2.734,-2.813 7.109,-2.813 1.328,0 3.008,0.39 v 9.61 q -2.031,-0.547 -3.594,-0.547 -3.633,0 -5.781,1.914 -2.149,1.914 -2.969,4.922 -0.781,2.969 -0.781,6.524 v 0.78 z m 51.289,-10.547 0.156,8.867 q -6.289,2.735 -13.594,2.735 -4.882,0 -8.71,-1.367 -3.79,-1.407 -6.485,-4.102 -2.695,-2.734 -4.102,-6.563 -1.406,-3.867 -1.406,-8.789 0,-4.53 1.29,-8.32 1.327,-3.828 3.788,-6.601 2.461,-2.813 6.055,-4.375 3.633,-1.563 8.203,-1.563 4.453,0 7.852,1.602 3.398,1.601 5.508,4.414 2.148,2.812 3.203,6.523 1.054,3.672 1.054,8.086 0,0.781 -0.039,1.172 -0.039,0.39 -0.078,0.976 -0.039,0.586 -0.117,1.368 h -26.64 q 0.39,4.687 3.632,7.304 3.281,2.618 8.125,2.618 5.469,0 12.305,-3.985 z m -6.953,-13.047 q -0.078,-2.656 -0.977,-4.883 -0.86,-2.226 -2.695,-3.593 -1.797,-1.367 -4.492,-1.367 -2.774,0 -4.766,1.367 -1.953,1.328 -3.047,3.554 -1.055,2.227 -1.289,4.922 z m 27.617,-16.015 0.234,6.328 q 4.766,-6.953 13.36,-6.953 7.968,0 10.742,4.726 2.773,4.688 2.773,13.203 v 22.305 h -10.234 V 400.23 q 0,-5.273 -1.367,-8.555 -1.328,-3.28 -5.82,-3.28 -4.805,0 -6.758,3.866 -1.954,3.829 -1.954,9.102 v 18.79 H 985.03 v -25.196 q 0,-8.399 -0.39,-14.414 z m 44.648,3.437 h -7.539 l -1.836,-21.445 h 11.29 z m 8.711,35.117 0.47,-8.632 q 5.468,2.812 10.077,2.812 2.54,0 4.805,-1.094 2.265,-1.093 2.265,-3.398 0,-1.992 -3.242,-3.399 -3.242,-1.406 -6.523,-2.773 -3.242,-1.367 -5.625,-3.828 -2.383,-2.461 -2.383,-6.875 0,-4.219 2.461,-6.914 2.5,-2.696 6.328,-3.906 3.828,-1.25 7.93,-1.25 4.336,0 9.765,1.523 l -0.742,7.656 q -4.765,-1.523 -8.398,-1.523 -2.656,0 -4.922,0.898 -2.266,0.899 -2.266,3.125 0,1.914 3.086,3.203 3.125,1.25 6.524,2.54 3.437,1.25 5.86,3.788 2.46,2.5 2.46,7.188 0,4.258 -2.383,7.11 -2.344,2.85 -6.094,4.18 -3.75,1.327 -7.93,1.327 -4.765,0 -11.523,-1.758 z"
         style="line-height:0;text-align:end"
         id="path10"
         inkscape:connector-curvature="0" />
    </g>
  </g>
</svg>
