<?xml version="1.0" encoding="UTF-8" standalone="no"?>
<!DOCTYPE svg PUBLIC "-//W3C//DTD SVG 1.1//EN" "http://www.w3.org/Graphics/SVG/1.1/DTD/svg11.dtd">
<svg width="100%" height="100%" viewBox="0 0 300 100" version="1.1" xmlns="http://www.w3.org/2000/svg" xmlns:xlink="http://www.w3.org/1999/xlink" xml:space="preserve" xmlns:serif="http://www.serif.com/" style="fill-rule:evenodd;clip-rule:evenodd;stroke-linecap:square;stroke-miterlimit:2;">
    <g transform="matrix(1,0,-0.547629,1.3576,31.2749,-20.4223)">
        <rect x="3.92" y="22.581" width="18.192" height="34.529" style="fill:rgb(29,165,68);"/>
    </g>
    <g transform="matrix(1,0,-0.547629,1.3576,53.2749,-20.4223)">
        <rect x="3.92" y="22.581" width="18.192" height="34.529" style="fill:rgb(8,73,145);"/>
    </g>
    <g transform="matrix(1,0,-0.547629,1.3576,76.2749,-20.4223)">
        <rect x="3.92" y="22.581" width="18.192" height="34.529" style="fill:rgb(223,28,46);"/>
    </g>
    <g>
        <g transform="matrix(1.0406,0,0,1,-24.6983,-1)">
            <path d="M125.365,43.432L130.404,57.11L136.883,57.11L119.933,11.562L112.538,11.562L96.309,57.11L102.33,57.11L107.238,43.432L125.365,43.432ZM108.808,38.262C112.277,28.053 114.96,20.331 116.072,16.47L116.138,16.47C117.119,19.939 119.475,26.287 123.86,38.262L108.808,38.262Z" style="fill:rgb(102,121,132);fill-rule:nonzero;stroke:rgb(102,121,132);stroke-width:1.96px;"/>
        </g>
        <g transform="matrix(1.0406,0,0,1,-24.6983,-1)">
            <rect x="143.1" y="9.075" width="5.759" height="48.034" style="fill:rgb(102,121,132);fill-rule:nonzero;stroke:rgb(102,121,132);stroke-width:1.96px;"/>
        </g>
        <g transform="matrix(1.0406,0,0,1,-24.6983,-1)">
            <path d="M195.912,9.075L195.912,57.11L201.671,57.11L201.671,38.982C201.671,32.045 204.288,28.119 210.243,28.119C215.086,28.119 217.442,31.26 217.442,36.888L217.442,57.11L223.201,57.11L223.201,35.907C223.201,26.025 217.311,23.145 212.01,23.145C206.382,23.145 203.307,25.894 201.671,28.839L201.671,9.075L195.912,9.075Z" style="fill:rgb(102,121,132);fill-rule:nonzero;stroke:rgb(102,121,132);stroke-width:1.96px;"/>
        </g>
        <g transform="matrix(1.0406,0,0,1,-24.6983,-1)">
            <path d="M257.296,34.009C257.296,26.483 252.781,23.145 244.666,23.145C235.111,23.145 232.297,28.381 231.839,32.962L237.402,32.962C237.991,30.409 238.972,27.661 244.47,27.661C250.687,27.661 251.603,31.195 251.603,34.14L251.603,36.954L245.975,36.954C236.093,36.954 230.269,40.357 230.269,47.752C230.269,52.791 233.606,57.895 241.459,57.895C247.873,57.895 250.556,54.95 251.734,52.791C251.799,54.819 251.995,56.39 252.257,57.11L257.754,57.11C257.558,56.128 257.296,52.921 257.296,49.846L257.296,34.009ZM251.668,41.993C251.668,48.013 250.621,53.38 242.637,53.38C238.514,53.38 236.158,50.893 236.158,47.424C236.158,42.778 239.692,40.946 246.302,40.946L251.668,40.946L251.668,41.993Z" style="fill:rgb(102,121,132);fill-rule:nonzero;stroke:rgb(102,121,132);stroke-width:1.96px;"/>
        </g>
        <path d="M147.443,21.964C147.588,23.124 147.661,25.171 147.661,27.422C149.69,23.874 151.387,21.145 157.693,21.145C166.174,21.145 172.335,27.832 172.335,38.339C172.335,50.756 165.304,57.374 156.389,57.374C150.445,57.374 149.328,55.054 147.661,52.257L147.661,65L236.023,65C243.742,65 250,71.258 250,78.977C250,78.997 250,79.016 250,79.035C250,82.712 248.539,86.238 245.939,88.838C243.339,91.438 239.813,92.899 236.136,92.899C201.883,92.899 113.629,92.899 80.391,92.899C73.255,92.899 67.47,87.114 67.47,79.978C67.47,79.642 67.47,79.304 67.47,78.967C67.47,71.253 73.724,65 81.438,65L139.355,65L139.355,30.424C139.355,27.559 139.355,24.625 139.282,21.964L147.443,21.964ZM236.432,73.116C236.407,73.369 236.331,74.227 236.305,74.808C236.025,73.949 234.981,72.813 232.512,72.813C229.406,72.813 226.937,75.363 226.937,79.529C226.937,83.291 229.101,85.866 232.283,85.866C234.447,85.866 235.618,85.033 236.305,83.619L236.305,84.654C236.305,87.582 235.592,89.425 232.665,89.425C231.01,89.425 229.864,88.693 229.483,87.279L227.217,87.279C227.446,89.021 228.643,91.193 232.563,91.193C236.789,91.193 238.494,88.87 238.494,84.755L238.494,76.802C238.494,75.59 238.52,73.848 238.52,73.116L236.432,73.116ZM171.491,82.003C170.957,83.518 170.015,84.376 168.411,84.376C166.171,84.376 164.923,82.432 164.923,79.504C164.923,76.6 166.222,74.656 168.487,74.656C170.371,74.656 171.186,75.792 171.491,77.08L173.706,77.08C173.553,75.439 172.255,72.813 168.538,72.813C164.694,72.813 162.632,75.969 162.632,79.579C162.632,83.694 164.822,86.219 168.386,86.219C171.669,86.219 173.171,84.199 173.706,82.003L171.491,82.003ZM106.219,78.14C102.375,78.14 100.109,79.453 100.109,82.306C100.109,84.25 101.408,86.219 104.463,86.219C106.957,86.219 108.001,85.083 108.459,84.25C108.485,85.033 108.561,85.638 108.663,85.916L110.801,85.916C110.725,85.537 110.623,84.3 110.623,83.114L110.623,77.004C110.623,74.101 108.867,72.813 105.71,72.813C101.993,72.813 100.899,74.833 100.72,76.6L102.884,76.6C103.113,75.616 103.495,74.555 105.634,74.555C108.052,74.555 108.409,75.919 108.409,77.055L108.409,78.14L106.219,78.14ZM155.275,78.14C151.431,78.14 149.165,79.453 149.165,82.306C149.165,84.25 150.464,86.219 153.519,86.219C156.013,86.219 157.057,85.083 157.515,84.25C157.541,85.033 157.617,85.638 157.719,85.916L159.857,85.916C159.781,85.537 159.679,84.3 159.679,83.114L159.679,77.004C159.679,74.101 157.923,72.813 154.766,72.813C151.049,72.813 149.955,74.833 149.776,76.6L151.94,76.6C152.169,75.616 152.551,74.555 154.69,74.555C157.108,74.555 157.464,75.919 157.464,77.055L157.464,78.14L155.275,78.14ZM186.613,73.116L184.398,73.116L184.398,81.523C184.398,85.134 186.486,86.219 188.675,86.219C190.711,86.219 191.933,85.411 192.57,83.997C192.595,84.805 192.621,85.588 192.672,85.916L194.835,85.916C194.835,85.159 194.81,83.442 194.81,82.18L194.81,73.116L192.57,73.116L192.57,79.781C192.57,82.988 191.653,84.3 189.286,84.3C187.147,84.3 186.613,82.735 186.613,81.069L186.613,73.116ZM130.913,73.116L128.698,73.116L128.698,81.523C128.698,85.134 130.785,86.219 132.975,86.219C135.011,86.219 136.233,85.411 136.87,83.997C136.895,84.805 136.921,85.588 136.971,85.916L139.135,85.916C139.135,85.159 139.11,83.442 139.11,82.18L139.11,73.116L136.87,73.116L136.87,79.781C136.87,82.988 135.953,84.3 133.586,84.3C131.447,84.3 130.913,82.735 130.913,81.069L130.913,73.116ZM179.459,69.329L177.245,69.329L177.245,73.116L175.004,73.116L175.004,74.909L177.245,74.909L177.245,82.937C177.245,85.058 178.11,86.093 180.121,86.093C180.758,86.093 181.521,86.068 182.056,85.866L182.056,84.199C181.7,84.275 181.241,84.3 180.936,84.3C179.765,84.3 179.459,83.669 179.459,82.407L179.459,74.909L182.311,74.909L182.311,73.116L179.459,73.116L179.459,69.329ZM213.419,73.116C213.445,74.101 213.445,75.237 213.445,76.348L213.445,85.916L215.685,85.916L215.685,79.15C215.685,76.575 216.652,74.732 219.096,74.732C221.056,74.732 221.82,76.019 221.82,77.963L221.82,85.916L224.06,85.916L224.06,77.686C224.06,74.277 222.176,72.813 219.733,72.813C217.238,72.813 216.194,74.126 215.685,75.212C215.685,74.833 215.659,73.495 215.583,73.116L213.419,73.116ZM143.438,74.909L143.438,85.916L145.678,85.916L145.678,74.909L148.274,74.909L148.274,73.116L145.678,73.116L145.678,71.728C145.678,69.859 146.187,69.051 147.511,69.051C147.842,69.051 148.325,69.102 148.631,69.178L148.631,67.284C148.325,67.183 147.689,67.133 147.205,67.133C144.354,67.133 143.438,69.228 143.438,71.576L143.438,73.116L141.376,73.116L141.376,74.909L143.438,74.909ZM198.603,73.116C198.603,73.798 198.629,74.808 198.629,76.6L198.629,85.916L200.869,85.916L200.869,79.705C200.869,76.474 202.549,75.085 205.197,75.01L205.197,72.813C203.058,72.864 201.531,74 200.869,75.717C200.869,74.479 200.818,73.47 200.792,73.116L198.603,73.116ZM79.591,73.116C79.617,74.151 79.617,75.313 79.617,76.423L79.617,85.916L81.831,85.916L81.831,78.822C81.831,76.398 82.824,74.732 84.886,74.732C86.923,74.732 87.381,76.196 87.381,77.837L87.381,85.916L89.57,85.916L89.57,78.569C89.57,76.297 90.487,74.732 92.6,74.732C94.611,74.732 95.145,76.297 95.145,77.762L95.145,85.916L97.335,85.916L97.335,77.509C97.335,74.05 95.374,72.813 93.262,72.813C91.072,72.813 89.85,73.899 89.163,75.111C88.654,73.722 87.406,72.813 85.573,72.813C83.537,72.813 82.417,73.949 81.831,75.085C81.831,74.429 81.78,73.495 81.729,73.116L79.591,73.116ZM114.442,73.116C114.467,74.101 114.467,75.237 114.467,76.348L114.467,85.916L116.708,85.916L116.708,79.15C116.708,76.575 117.675,74.732 120.119,74.732C122.079,74.732 122.843,76.019 122.843,77.963L122.843,85.916L125.083,85.916L125.083,77.686C125.083,74.277 123.199,72.813 120.755,72.813C118.26,72.813 117.217,74.126 116.708,75.212C116.708,74.833 116.682,73.495 116.606,73.116L114.442,73.116ZM209.652,73.116L207.411,73.116L207.411,85.916L209.652,85.916L209.652,73.116ZM157.49,80.084C157.49,82.407 157.083,84.477 153.977,84.477C152.373,84.477 151.457,83.518 151.457,82.18C151.457,80.387 152.831,79.68 155.402,79.68L157.49,79.68L157.49,80.084ZM108.434,80.084C108.434,82.407 108.027,84.477 104.921,84.477C103.317,84.477 102.401,83.518 102.401,82.18C102.401,80.387 103.775,79.68 106.346,79.68L108.434,79.68L108.434,80.084ZM229.254,79.428C229.254,76.676 230.475,74.681 232.868,74.681C235.618,74.681 236.382,76.398 236.382,79.276C236.382,82.104 235.567,83.972 232.792,83.972C230.679,83.972 229.254,82.129 229.254,79.428ZM209.652,67.385L207.411,67.385L207.411,70.137L209.652,70.137L209.652,67.385ZM163.812,38.612C163.812,42.14 163.26,51.325 155.519,51.325C150.835,51.325 147.371,47.345 147.371,39.226C147.371,30.765 151.342,28.119 156.026,28.262C159.189,28.359 163.812,31.243 163.812,38.612Z" style="fill:rgb(102,121,132);"/>
        <g transform="matrix(1.17597,0,0,1,-49.3844,-20.1306)">
            <path d="M271.966,36.94C273.796,36.94 275.28,37.162 276.416,37.606C277.553,38.049 278.454,38.618 279.12,39.311C279.785,40.004 280.229,40.808 280.451,41.723C280.673,42.638 280.784,43.595 280.784,44.593C280.784,45.425 280.659,46.299 280.409,47.214C280.16,48.129 279.744,48.947 279.162,49.668C278.579,50.388 277.775,50.985 276.749,51.456C275.723,51.927 274.462,52.163 272.964,52.163L263.564,52.163L263.564,63.143L272.964,63.143C276.458,63.143 278.94,63.823 280.409,65.181C281.879,66.54 282.614,68.578 282.614,71.295C282.614,72.405 282.475,73.514 282.198,74.623C281.92,75.732 281.421,76.73 280.7,77.618C279.98,78.505 278.967,79.212 277.664,79.739C276.361,80.266 274.656,80.529 272.548,80.529C269.942,80.529 267.294,80.224 264.604,79.614C261.915,79.004 259.461,78.283 257.242,77.451L257.242,88.431C259.183,89.374 261.471,90.081 264.105,90.553C266.739,91.024 269.554,91.26 272.548,91.26C276.597,91.26 279.993,90.705 282.738,89.596C285.484,88.487 287.702,87.003 289.393,85.146C291.085,83.288 292.305,81.167 293.053,78.782C293.802,76.397 294.176,73.902 294.176,71.295C294.176,69.965 294.052,68.62 293.802,67.261C293.552,65.902 293.164,64.585 292.637,63.31C292.111,62.034 291.445,60.842 290.641,59.733C289.837,58.624 288.88,57.653 287.771,56.821C289.268,55.269 290.405,53.341 291.182,51.04C291.958,48.739 292.346,46.59 292.346,44.593C292.346,42.153 292,39.824 291.306,37.606C290.613,35.388 289.476,33.433 287.896,31.741C286.315,30.05 284.222,28.705 281.615,27.707C279.009,26.709 275.793,26.209 271.966,26.209C270.968,26.209 269.831,26.251 268.555,26.334C267.28,26.417 265.977,26.556 264.646,26.75C263.315,26.944 261.998,27.18 260.695,27.457C259.391,27.735 258.241,28.067 257.242,28.455L257.242,39.852C259.627,38.909 262.178,38.188 264.895,37.689C267.613,37.19 269.97,36.94 271.966,36.94Z" style="fill:rgb(102,121,132);fill-rule:nonzero;stroke:rgb(102,121,132);stroke-width:1.83px;"/>
        </g>
    </g>
</svg>
