<?xml version="1.0" encoding="UTF-8" standalone="no"?>
<!DOCTYPE svg PUBLIC "-//W3C//DTD SVG 1.1//EN" "http://www.w3.org/Graphics/SVG/1.1/DTD/svg11.dtd">
<svg width="100%" height="100%" viewBox="0 0 300 100" version="1.1" xmlns="http://www.w3.org/2000/svg" xmlns:xlink="http://www.w3.org/1999/xlink" xml:space="preserve" xmlns:serif="http://www.serif.com/" style="fill-rule:evenodd;clip-rule:evenodd;stroke-linejoin:round;stroke-miterlimit:2;">
    <g transform="matrix(0.330655,0,0,0.481779,-1.22342,-60.4659)">
        <rect x="3.7" y="128.1" width="6.9" height="204" style="fill:rgb(0,177,64);"/>
    </g>
    <g transform="matrix(0.330655,0,0,0.330655,0,1.25)">
        <g transform="matrix(75,0,0,75,45,204)">
            <path d="M-0.001,0L0.273,-0.716L0.375,-0.716L0.668,0L0.561,0L0.477,-0.217L0.178,-0.217L0.099,0L-0.001,0ZM0.205,-0.294L0.448,-0.294L0.373,-0.492C0.35,-0.552 0.333,-0.602 0.322,-0.641C0.313,-0.595 0.3,-0.549 0.284,-0.504L0.205,-0.294Z" style="fill-rule:nonzero;"/>
        </g>
        <g transform="matrix(75,0,0,75,95.0244,204)">
            <path d="M0.066,0L0.066,-0.519L0.145,-0.519L0.145,-0.445C0.183,-0.502 0.238,-0.53 0.31,-0.53C0.341,-0.53 0.37,-0.525 0.396,-0.513C0.422,-0.502 0.442,-0.487 0.455,-0.469C0.468,-0.451 0.477,-0.429 0.482,-0.404C0.486,-0.388 0.487,-0.36 0.487,-0.319L0.487,0L0.399,0L0.399,-0.315C0.399,-0.351 0.396,-0.378 0.389,-0.396C0.382,-0.413 0.37,-0.428 0.353,-0.438C0.335,-0.449 0.315,-0.454 0.292,-0.454C0.254,-0.454 0.222,-0.442 0.195,-0.418C0.167,-0.395 0.154,-0.35 0.154,-0.283L0.154,0L0.066,0Z" style="fill-rule:nonzero;"/>
        </g>
        <g transform="matrix(75,0,0,75,136.736,204)">
            <path d="M0.066,-0.615L0.066,-0.716L0.154,-0.716L0.154,-0.615L0.066,-0.615ZM0.066,0L0.066,-0.519L0.154,-0.519L0.154,0L0.066,0Z" style="fill-rule:nonzero;"/>
        </g>
        <g transform="matrix(75,0,0,75,153.398,204)">
            <path d="M0.066,0L0.066,-0.519L0.145,-0.519L0.145,-0.446C0.161,-0.471 0.182,-0.492 0.209,-0.507C0.236,-0.523 0.267,-0.53 0.302,-0.53C0.34,-0.53 0.372,-0.522 0.396,-0.506C0.421,-0.49 0.438,-0.468 0.448,-0.439C0.489,-0.5 0.543,-0.53 0.608,-0.53C0.66,-0.53 0.699,-0.516 0.727,-0.488C0.755,-0.459 0.769,-0.415 0.769,-0.356L0.769,0L0.681,0L0.681,-0.327C0.681,-0.362 0.678,-0.387 0.673,-0.403C0.667,-0.418 0.657,-0.431 0.642,-0.44C0.627,-0.449 0.609,-0.454 0.589,-0.454C0.552,-0.454 0.522,-0.442 0.498,-0.418C0.474,-0.393 0.462,-0.355 0.462,-0.301L0.462,0L0.374,0L0.374,-0.337C0.374,-0.376 0.367,-0.405 0.353,-0.425C0.338,-0.444 0.315,-0.454 0.282,-0.454C0.257,-0.454 0.235,-0.448 0.214,-0.435C0.193,-0.422 0.177,-0.403 0.168,-0.377C0.159,-0.352 0.154,-0.316 0.154,-0.269L0.154,0L0.066,0Z" style="fill-rule:nonzero;"/>
        </g>
        <g transform="matrix(75,0,0,75,215.874,204)">
            <path d="M0.404,-0.064C0.372,-0.036 0.34,-0.017 0.31,-0.005C0.28,0.006 0.248,0.012 0.213,0.012C0.156,0.012 0.113,-0.002 0.082,-0.03C0.051,-0.058 0.036,-0.093 0.036,-0.137C0.036,-0.162 0.042,-0.185 0.053,-0.206C0.065,-0.227 0.08,-0.244 0.099,-0.257C0.118,-0.27 0.139,-0.279 0.162,-0.286C0.179,-0.29 0.205,-0.295 0.24,-0.299C0.311,-0.307 0.363,-0.317 0.397,-0.329C0.397,-0.341 0.397,-0.349 0.397,-0.352C0.397,-0.388 0.389,-0.413 0.373,-0.428C0.35,-0.448 0.317,-0.458 0.272,-0.458C0.231,-0.458 0.201,-0.45 0.181,-0.436C0.161,-0.421 0.147,-0.396 0.137,-0.359L0.051,-0.371C0.059,-0.407 0.072,-0.437 0.09,-0.46C0.108,-0.482 0.134,-0.5 0.167,-0.512C0.201,-0.524 0.241,-0.53 0.285,-0.53C0.329,-0.53 0.365,-0.525 0.393,-0.515C0.421,-0.504 0.441,-0.491 0.454,-0.475C0.467,-0.46 0.476,-0.44 0.481,-0.416C0.484,-0.401 0.486,-0.374 0.486,-0.334L0.486,-0.217C0.486,-0.136 0.488,-0.084 0.491,-0.062C0.495,-0.041 0.503,-0.02 0.514,0L0.422,0C0.413,-0.018 0.407,-0.04 0.404,-0.064ZM0.397,-0.26C0.365,-0.247 0.317,-0.236 0.253,-0.227C0.217,-0.222 0.192,-0.216 0.177,-0.209C0.162,-0.203 0.15,-0.193 0.142,-0.181C0.134,-0.168 0.13,-0.154 0.13,-0.139C0.13,-0.116 0.139,-0.096 0.156,-0.081C0.174,-0.065 0.2,-0.057 0.234,-0.057C0.268,-0.057 0.298,-0.065 0.325,-0.079C0.351,-0.094 0.37,-0.114 0.383,-0.14C0.392,-0.16 0.397,-0.189 0.397,-0.228L0.397,-0.26Z" style="fill-rule:nonzero;"/>
        </g>
        <g transform="matrix(75,0,0,75,257.585,204)">
            <rect x="0.064" y="-0.716" width="0.088" height="0.716" style="fill-rule:nonzero;"/>
        </g>
        <g transform="matrix(75,0,0,75,295.085,204)">
            <path d="M0.475,-0.084C0.446,-0.052 0.415,-0.028 0.38,-0.012C0.346,0.004 0.309,0.012 0.27,0.012C0.196,0.012 0.138,-0.013 0.095,-0.062C0.06,-0.102 0.043,-0.147 0.043,-0.197C0.043,-0.242 0.057,-0.281 0.086,-0.317C0.114,-0.353 0.157,-0.384 0.213,-0.411C0.181,-0.448 0.16,-0.478 0.149,-0.501C0.138,-0.525 0.133,-0.547 0.133,-0.568C0.133,-0.611 0.15,-0.649 0.183,-0.68C0.217,-0.712 0.259,-0.728 0.311,-0.728C0.359,-0.728 0.399,-0.713 0.43,-0.683C0.462,-0.653 0.477,-0.617 0.477,-0.575C0.477,-0.507 0.432,-0.449 0.342,-0.401L0.47,-0.237C0.485,-0.266 0.496,-0.299 0.504,-0.337L0.596,-0.317C0.58,-0.255 0.559,-0.203 0.532,-0.163C0.565,-0.119 0.602,-0.083 0.644,-0.053L0.585,0.017C0.549,-0.006 0.513,-0.04 0.475,-0.084ZM0.296,-0.458C0.334,-0.48 0.359,-0.5 0.37,-0.517C0.382,-0.534 0.387,-0.552 0.387,-0.573C0.387,-0.597 0.379,-0.617 0.364,-0.633C0.349,-0.648 0.329,-0.656 0.306,-0.656C0.282,-0.656 0.263,-0.648 0.247,-0.633C0.231,-0.618 0.223,-0.599 0.223,-0.577C0.223,-0.566 0.226,-0.554 0.232,-0.542C0.237,-0.53 0.246,-0.517 0.257,-0.503L0.296,-0.458ZM0.42,-0.154L0.259,-0.354C0.211,-0.325 0.179,-0.299 0.163,-0.275C0.146,-0.25 0.138,-0.226 0.138,-0.203C0.138,-0.174 0.149,-0.144 0.172,-0.112C0.195,-0.081 0.228,-0.065 0.271,-0.065C0.297,-0.065 0.324,-0.074 0.352,-0.09C0.38,-0.107 0.403,-0.128 0.42,-0.154Z" style="fill-rule:nonzero;"/>
        </g>
        <g transform="matrix(75,0,0,75,365.947,204)">
            <path d="M0.077,0L0.077,-0.716L0.347,-0.716C0.395,-0.716 0.431,-0.714 0.456,-0.709C0.491,-0.703 0.521,-0.692 0.544,-0.676C0.568,-0.659 0.587,-0.636 0.602,-0.606C0.616,-0.577 0.624,-0.544 0.624,-0.509C0.624,-0.448 0.604,-0.396 0.565,-0.354C0.527,-0.312 0.457,-0.291 0.355,-0.291L0.172,-0.291L0.172,0L0.077,0ZM0.172,-0.375L0.357,-0.375C0.418,-0.375 0.462,-0.387 0.487,-0.41C0.513,-0.432 0.526,-0.465 0.526,-0.506C0.526,-0.536 0.518,-0.561 0.503,-0.583C0.488,-0.604 0.468,-0.618 0.443,-0.625C0.427,-0.629 0.398,-0.631 0.355,-0.631L0.172,-0.631L0.172,-0.375Z" style="fill-rule:nonzero;"/>
        </g>
        <g transform="matrix(75,0,0,75,415.972,204)">
            <rect x="0.064" y="-0.716" width="0.088" height="0.716" style="fill-rule:nonzero;"/>
        </g>
        <g transform="matrix(75,0,0,75,432.634,204)">
            <path d="M0.404,-0.064C0.372,-0.036 0.34,-0.017 0.31,-0.005C0.28,0.006 0.248,0.012 0.213,0.012C0.156,0.012 0.113,-0.002 0.082,-0.03C0.051,-0.058 0.036,-0.093 0.036,-0.137C0.036,-0.162 0.042,-0.185 0.053,-0.206C0.065,-0.227 0.08,-0.244 0.099,-0.257C0.118,-0.27 0.139,-0.279 0.162,-0.286C0.179,-0.29 0.205,-0.295 0.24,-0.299C0.311,-0.307 0.363,-0.317 0.397,-0.329C0.397,-0.341 0.397,-0.349 0.397,-0.352C0.397,-0.388 0.389,-0.413 0.373,-0.428C0.35,-0.448 0.317,-0.458 0.272,-0.458C0.231,-0.458 0.201,-0.45 0.181,-0.436C0.161,-0.421 0.147,-0.396 0.137,-0.359L0.051,-0.371C0.059,-0.407 0.072,-0.437 0.09,-0.46C0.108,-0.482 0.134,-0.5 0.167,-0.512C0.201,-0.524 0.241,-0.53 0.285,-0.53C0.329,-0.53 0.365,-0.525 0.393,-0.515C0.421,-0.504 0.441,-0.491 0.454,-0.475C0.467,-0.46 0.476,-0.44 0.481,-0.416C0.484,-0.401 0.486,-0.374 0.486,-0.334L0.486,-0.217C0.486,-0.136 0.488,-0.084 0.491,-0.062C0.495,-0.041 0.503,-0.02 0.514,0L0.422,0C0.413,-0.018 0.407,-0.04 0.404,-0.064ZM0.397,-0.26C0.365,-0.247 0.317,-0.236 0.253,-0.227C0.217,-0.222 0.192,-0.216 0.177,-0.209C0.162,-0.203 0.15,-0.193 0.142,-0.181C0.134,-0.168 0.13,-0.154 0.13,-0.139C0.13,-0.116 0.139,-0.096 0.156,-0.081C0.174,-0.065 0.2,-0.057 0.234,-0.057C0.268,-0.057 0.298,-0.065 0.325,-0.079C0.351,-0.094 0.37,-0.114 0.383,-0.14C0.392,-0.16 0.397,-0.189 0.397,-0.228L0.397,-0.26Z" style="fill-rule:nonzero;"/>
        </g>
        <g transform="matrix(75,0,0,75,474.346,204)">
            <path d="M0.066,0L0.066,-0.519L0.145,-0.519L0.145,-0.445C0.183,-0.502 0.238,-0.53 0.31,-0.53C0.341,-0.53 0.37,-0.525 0.396,-0.513C0.422,-0.502 0.442,-0.487 0.455,-0.469C0.468,-0.451 0.477,-0.429 0.482,-0.404C0.486,-0.388 0.487,-0.36 0.487,-0.319L0.487,0L0.399,0L0.399,-0.315C0.399,-0.351 0.396,-0.378 0.389,-0.396C0.382,-0.413 0.37,-0.428 0.353,-0.438C0.335,-0.449 0.315,-0.454 0.292,-0.454C0.254,-0.454 0.222,-0.442 0.195,-0.418C0.167,-0.395 0.154,-0.35 0.154,-0.283L0.154,0L0.066,0Z" style="fill-rule:nonzero;"/>
        </g>
        <g transform="matrix(75,0,0,75,516.057,204)">
            <path d="M0.258,-0.079L0.271,-0.001C0.246,0.004 0.224,0.007 0.204,0.007C0.172,0.007 0.147,0.002 0.13,-0.008C0.112,-0.018 0.1,-0.032 0.093,-0.048C0.086,-0.065 0.082,-0.099 0.082,-0.152L0.082,-0.45L0.018,-0.45L0.018,-0.519L0.082,-0.519L0.082,-0.647L0.169,-0.7L0.169,-0.519L0.258,-0.519L0.258,-0.45L0.169,-0.45L0.169,-0.147C0.169,-0.122 0.171,-0.106 0.174,-0.099C0.177,-0.091 0.182,-0.086 0.189,-0.082C0.196,-0.077 0.206,-0.075 0.219,-0.075C0.229,-0.075 0.242,-0.076 0.258,-0.079Z" style="fill-rule:nonzero;"/>
        </g>
        <g transform="matrix(75,0,0,75,45,281.454)">
            <path d="M0.08,0L0.08,-0.716L0.175,-0.716L0.175,-0.422L0.547,-0.422L0.547,-0.716L0.642,-0.716L0.642,0L0.547,0L0.547,-0.337L0.175,-0.337L0.175,0L0.08,0Z" style="fill-rule:nonzero;"/>
        </g>
        <g transform="matrix(75,0,0,75,99.1626,281.454)">
            <path d="M0.421,-0.167L0.512,-0.156C0.497,-0.103 0.471,-0.062 0.432,-0.032C0.393,-0.003 0.344,0.012 0.284,0.012C0.208,0.012 0.148,-0.012 0.103,-0.058C0.059,-0.105 0.037,-0.171 0.037,-0.255C0.037,-0.342 0.059,-0.41 0.104,-0.458C0.149,-0.506 0.207,-0.53 0.279,-0.53C0.348,-0.53 0.405,-0.507 0.449,-0.459C0.493,-0.412 0.515,-0.346 0.515,-0.26C0.515,-0.255 0.514,-0.247 0.514,-0.237L0.127,-0.237C0.131,-0.18 0.147,-0.136 0.176,-0.106C0.205,-0.076 0.241,-0.061 0.284,-0.061C0.316,-0.061 0.344,-0.069 0.367,-0.086C0.389,-0.103 0.408,-0.13 0.421,-0.167ZM0.132,-0.309L0.422,-0.309C0.418,-0.353 0.407,-0.385 0.389,-0.407C0.361,-0.441 0.324,-0.458 0.28,-0.458C0.239,-0.458 0.205,-0.444 0.178,-0.417C0.15,-0.39 0.135,-0.354 0.132,-0.309Z" style="fill-rule:nonzero;"/>
        </g>
        <g transform="matrix(75,0,0,75,140.874,281.454)">
            <path d="M0.404,-0.064C0.372,-0.036 0.34,-0.017 0.31,-0.005C0.28,0.006 0.248,0.012 0.213,0.012C0.156,0.012 0.113,-0.002 0.082,-0.03C0.051,-0.058 0.036,-0.093 0.036,-0.137C0.036,-0.162 0.042,-0.185 0.053,-0.206C0.065,-0.227 0.08,-0.244 0.099,-0.257C0.118,-0.27 0.139,-0.279 0.162,-0.286C0.179,-0.29 0.205,-0.295 0.24,-0.299C0.311,-0.307 0.363,-0.317 0.397,-0.329C0.397,-0.341 0.397,-0.349 0.397,-0.352C0.397,-0.388 0.389,-0.413 0.373,-0.428C0.35,-0.448 0.317,-0.458 0.272,-0.458C0.231,-0.458 0.201,-0.45 0.181,-0.436C0.161,-0.421 0.147,-0.396 0.137,-0.359L0.051,-0.371C0.059,-0.407 0.072,-0.437 0.09,-0.46C0.108,-0.482 0.134,-0.5 0.167,-0.512C0.201,-0.524 0.241,-0.53 0.285,-0.53C0.329,-0.53 0.365,-0.525 0.393,-0.515C0.421,-0.504 0.441,-0.491 0.454,-0.475C0.467,-0.46 0.476,-0.44 0.481,-0.416C0.484,-0.401 0.486,-0.374 0.486,-0.334L0.486,-0.217C0.486,-0.136 0.488,-0.084 0.491,-0.062C0.495,-0.041 0.503,-0.02 0.514,0L0.422,0C0.413,-0.018 0.407,-0.04 0.404,-0.064ZM0.397,-0.26C0.365,-0.247 0.317,-0.236 0.253,-0.227C0.217,-0.222 0.192,-0.216 0.177,-0.209C0.162,-0.203 0.15,-0.193 0.142,-0.181C0.134,-0.168 0.13,-0.154 0.13,-0.139C0.13,-0.116 0.139,-0.096 0.156,-0.081C0.174,-0.065 0.2,-0.057 0.234,-0.057C0.268,-0.057 0.298,-0.065 0.325,-0.079C0.351,-0.094 0.37,-0.114 0.383,-0.14C0.392,-0.16 0.397,-0.189 0.397,-0.228L0.397,-0.26Z" style="fill-rule:nonzero;"/>
        </g>
        <g transform="matrix(75,0,0,75,182.585,281.454)">
            <rect x="0.064" y="-0.716" width="0.088" height="0.716" style="fill-rule:nonzero;"/>
        </g>
        <g transform="matrix(75,0,0,75,199.248,281.454)">
            <path d="M0.258,-0.079L0.271,-0.001C0.246,0.004 0.224,0.007 0.204,0.007C0.172,0.007 0.147,0.002 0.13,-0.008C0.112,-0.018 0.1,-0.032 0.093,-0.048C0.086,-0.065 0.082,-0.099 0.082,-0.152L0.082,-0.45L0.018,-0.45L0.018,-0.519L0.082,-0.519L0.082,-0.647L0.169,-0.7L0.169,-0.519L0.258,-0.519L0.258,-0.45L0.169,-0.45L0.169,-0.147C0.169,-0.122 0.171,-0.106 0.174,-0.099C0.177,-0.091 0.182,-0.086 0.189,-0.082C0.196,-0.077 0.206,-0.075 0.219,-0.075C0.229,-0.075 0.242,-0.076 0.258,-0.079Z" style="fill-rule:nonzero;"/>
        </g>
        <g transform="matrix(75,0,0,75,220.085,281.454)">
            <path d="M0.066,0L0.066,-0.716L0.154,-0.716L0.154,-0.459C0.195,-0.507 0.247,-0.53 0.309,-0.53C0.347,-0.53 0.381,-0.523 0.409,-0.508C0.438,-0.492 0.458,-0.472 0.47,-0.445C0.482,-0.418 0.488,-0.379 0.488,-0.329L0.488,0L0.4,0L0.4,-0.329C0.4,-0.373 0.391,-0.405 0.372,-0.425C0.353,-0.445 0.326,-0.455 0.291,-0.455C0.265,-0.455 0.24,-0.448 0.218,-0.434C0.195,-0.421 0.178,-0.403 0.168,-0.379C0.159,-0.356 0.154,-0.324 0.154,-0.284L0.154,0L0.066,0Z" style="fill-rule:nonzero;"/>
        </g>
        <g transform="matrix(75,0,0,75,278.496,281.454)">
            <path d="M-0.001,0L0.273,-0.716L0.375,-0.716L0.668,0L0.561,0L0.477,-0.217L0.178,-0.217L0.099,0L-0.001,0ZM0.205,-0.294L0.448,-0.294L0.373,-0.492C0.35,-0.552 0.333,-0.602 0.322,-0.641C0.313,-0.595 0.3,-0.549 0.284,-0.504L0.205,-0.294Z" style="fill-rule:nonzero;"/>
        </g>
        <g transform="matrix(75,0,0,75,328.521,281.454)">
            <path d="M0.05,0.043L0.135,0.056C0.139,0.082 0.149,0.101 0.165,0.113C0.187,0.13 0.217,0.138 0.254,0.138C0.295,0.138 0.326,0.13 0.349,0.113C0.371,0.097 0.386,0.074 0.394,0.045C0.398,0.027 0.4,-0.011 0.4,-0.068C0.361,-0.023 0.314,0 0.256,0C0.185,0 0.13,-0.026 0.091,-0.077C0.052,-0.129 0.032,-0.19 0.032,-0.262C0.032,-0.312 0.041,-0.357 0.059,-0.399C0.077,-0.441 0.103,-0.473 0.137,-0.496C0.171,-0.519 0.211,-0.53 0.257,-0.53C0.318,-0.53 0.368,-0.506 0.408,-0.456L0.408,-0.519L0.489,-0.519L0.489,-0.07C0.489,0.01 0.481,0.068 0.465,0.101C0.448,0.135 0.422,0.162 0.386,0.181C0.351,0.201 0.307,0.21 0.255,0.21C0.193,0.21 0.143,0.197 0.105,0.169C0.067,0.141 0.049,0.099 0.05,0.043ZM0.123,-0.269C0.123,-0.201 0.136,-0.151 0.163,-0.12C0.19,-0.088 0.224,-0.073 0.265,-0.073C0.305,-0.073 0.339,-0.088 0.366,-0.119C0.394,-0.15 0.407,-0.199 0.407,-0.266C0.407,-0.329 0.393,-0.377 0.365,-0.409C0.337,-0.441 0.303,-0.458 0.263,-0.458C0.224,-0.458 0.191,-0.442 0.164,-0.41C0.136,-0.378 0.123,-0.331 0.123,-0.269Z" style="fill-rule:nonzero;"/>
        </g>
        <g transform="matrix(75,0,0,75,370.232,281.454)">
            <path d="M0.421,-0.167L0.512,-0.156C0.497,-0.103 0.471,-0.062 0.432,-0.032C0.393,-0.003 0.344,0.012 0.284,0.012C0.208,0.012 0.148,-0.012 0.103,-0.058C0.059,-0.105 0.037,-0.171 0.037,-0.255C0.037,-0.342 0.059,-0.41 0.104,-0.458C0.149,-0.506 0.207,-0.53 0.279,-0.53C0.348,-0.53 0.405,-0.507 0.449,-0.459C0.493,-0.412 0.515,-0.346 0.515,-0.26C0.515,-0.255 0.514,-0.247 0.514,-0.237L0.127,-0.237C0.131,-0.18 0.147,-0.136 0.176,-0.106C0.205,-0.076 0.241,-0.061 0.284,-0.061C0.316,-0.061 0.344,-0.069 0.367,-0.086C0.389,-0.103 0.408,-0.13 0.421,-0.167ZM0.132,-0.309L0.422,-0.309C0.418,-0.353 0.407,-0.385 0.389,-0.407C0.361,-0.441 0.324,-0.458 0.28,-0.458C0.239,-0.458 0.205,-0.444 0.178,-0.417C0.15,-0.39 0.135,-0.354 0.132,-0.309Z" style="fill-rule:nonzero;"/>
        </g>
        <g transform="matrix(75,0,0,75,411.943,281.454)">
            <path d="M0.066,0L0.066,-0.519L0.145,-0.519L0.145,-0.445C0.183,-0.502 0.238,-0.53 0.31,-0.53C0.341,-0.53 0.37,-0.525 0.396,-0.513C0.422,-0.502 0.442,-0.487 0.455,-0.469C0.468,-0.451 0.477,-0.429 0.482,-0.404C0.486,-0.388 0.487,-0.36 0.487,-0.319L0.487,0L0.399,0L0.399,-0.315C0.399,-0.351 0.396,-0.378 0.389,-0.396C0.382,-0.413 0.37,-0.428 0.353,-0.438C0.335,-0.449 0.315,-0.454 0.292,-0.454C0.254,-0.454 0.222,-0.442 0.195,-0.418C0.167,-0.395 0.154,-0.35 0.154,-0.283L0.154,0L0.066,0Z" style="fill-rule:nonzero;"/>
        </g>
        <g transform="matrix(75,0,0,75,453.655,281.454)">
            <path d="M0.404,-0.19L0.491,-0.179C0.481,-0.119 0.457,-0.073 0.418,-0.039C0.379,-0.005 0.332,0.012 0.275,0.012C0.204,0.012 0.147,-0.011 0.104,-0.058C0.061,-0.104 0.039,-0.171 0.039,-0.257C0.039,-0.313 0.048,-0.362 0.067,-0.404C0.085,-0.446 0.114,-0.478 0.152,-0.499C0.19,-0.52 0.231,-0.53 0.275,-0.53C0.332,-0.53 0.378,-0.516 0.414,-0.488C0.449,-0.459 0.472,-0.419 0.482,-0.366L0.397,-0.353C0.389,-0.388 0.374,-0.414 0.354,-0.432C0.333,-0.449 0.308,-0.458 0.279,-0.458C0.235,-0.458 0.199,-0.442 0.171,-0.41C0.143,-0.379 0.129,-0.328 0.129,-0.26C0.129,-0.19 0.143,-0.139 0.169,-0.108C0.196,-0.076 0.231,-0.061 0.274,-0.061C0.308,-0.061 0.337,-0.071 0.36,-0.092C0.383,-0.113 0.398,-0.146 0.404,-0.19Z" style="fill-rule:nonzero;"/>
        </g>
        <g transform="matrix(75,0,0,75,491.155,281.454)">
            <path d="M0.062,0.2L0.052,0.117C0.071,0.122 0.088,0.125 0.103,0.125C0.122,0.125 0.138,0.122 0.149,0.115C0.161,0.109 0.171,0.1 0.178,0.088C0.184,0.079 0.193,0.057 0.205,0.022C0.207,0.018 0.209,0.01 0.213,0.001L0.016,-0.519L0.111,-0.519L0.219,-0.218C0.233,-0.18 0.245,-0.14 0.256,-0.098C0.266,-0.139 0.278,-0.178 0.292,-0.216L0.403,-0.519L0.491,-0.519L0.294,0.009C0.273,0.066 0.256,0.105 0.245,0.126C0.229,0.155 0.211,0.177 0.191,0.19C0.171,0.204 0.147,0.21 0.119,0.21C0.102,0.21 0.083,0.207 0.062,0.2Z" style="fill-rule:nonzero;"/>
        </g>
    </g>
    <g id="path3113" transform="matrix(0.423676,0,0,-0.423676,67.2606,64.372)">
        <path d="M-84.3,133.7C-84.8,132.7 -85.3,132.1 -85.2,131.4C-85.1,130.6 -84.3,130.1 -84,129.3C-83.7,130.2 -83.1,130.9 -83.2,131.6C-83.1,132.3 -84.1,133.2 -84.3,133.7" style="fill-rule:nonzero;"/>
    </g>
    <g id="path3117" transform="matrix(0.423676,0,0,-0.423676,69.1729,64.372)">
        <path d="M-75.6,133.7C-75.1,132.7 -74.6,132.1 -74.7,131.4C-74.8,130.6 -75.6,130.1 -75.9,129.3C-76.2,130.2 -76.8,130.9 -76.7,131.6C-76.7,132.3 -75.8,133.2 -75.6,133.7" style="fill-rule:nonzero;"/>
    </g>
    <g id="path3121" transform="matrix(0.423676,0,0,-0.423676,66.1601,64.2895)">
        <path d="M-89.3,134.1C-88.8,134.1 -88.4,134.5 -88.4,135C-88.4,135.5 -88.8,135.9 -89.3,135.9C-89.8,135.9 -90.2,135.5 -90.2,135C-90.2,134.5 -89.8,134.1 -89.3,134.1" style="fill-rule:nonzero;"/>
    </g>
    <g id="path3125" transform="matrix(0.423676,0,0,-0.423676,66.2464,64.474)">
        <path d="M-88.9,133.2C-88.9,133.7 -89.3,134.1 -89.8,134.1C-90.3,134.1 -90.7,133.7 -90.7,133.2C-90.7,132.7 -90.3,132.3 -89.8,132.3C-89.3,132.4 -88.9,132.7 -88.9,133.2" style="fill-rule:nonzero;"/>
    </g>
    <g id="path3129" transform="matrix(0.423676,0,0,-0.423676,66.3095,64.7872)">
        <path d="M-88.6,131.8C-88.6,132.3 -89,132.7 -89.5,132.7C-90,132.7 -90.4,132.3 -90.4,131.8C-90.4,131.3 -90,130.9 -89.5,130.9C-89,130.9 -88.6,131.3 -88.6,131.8" style="fill-rule:nonzero;"/>
    </g>
    <g id="path3133" transform="matrix(0.423676,0,0,-0.423676,66.8754,63.6734)">
        <path d="M-86,136.9C-85.5,136.9 -85.1,137.3 -85.1,137.8C-85.1,138.3 -85.5,138.7 -86,138.7C-86.5,138.7 -86.9,138.3 -86.9,137.8C-86.9,137.3 -86.5,136.9 -86,136.9" style="fill-rule:nonzero;"/>
    </g>
    <g id="path3137" transform="matrix(0.423676,0,0,-0.423676,66.5541,63.7725)">
        <path d="M-87.5,136.4C-87,136.4 -86.6,136.8 -86.6,137.3C-86.6,137.8 -87,138.2 -87.5,138.2C-88,138.2 -88.4,137.8 -88.4,137.3C-88.4,136.8 -88,136.4 -87.5,136.4" style="fill-rule:nonzero;"/>
    </g>
    <g id="path3141" transform="matrix(0.423676,0,0,-0.423676,66.3016,63.9938)">
        <path d="M-88.6,135.4C-88.1,135.4 -87.7,135.8 -87.7,136.3C-87.7,136.8 -88.1,137.2 -88.6,137.2C-89.1,137.2 -89.5,136.8 -89.5,136.3C-89.5,135.8 -89.1,135.4 -88.6,135.4" style="fill-rule:nonzero;"/>
    </g>
    <g id="path3145" transform="matrix(0.423676,0,0,-0.423676,67.2125,63.7045)">
        <path d="M-84.5,136.7C-84,136.7 -83.6,137.1 -83.6,137.6C-83.6,138.1 -84,138.5 -84.5,138.5C-85,138.5 -85.4,138.1 -85.4,137.6C-85.4,137.1 -85,136.7 -84.5,136.7" style="fill-rule:nonzero;"/>
    </g>
    <g id="path3149" transform="matrix(0.423676,0,0,-0.423676,67.533,63.7972)">
        <path d="M-83,136.3C-82.5,136.3 -82.1,136.7 -82.1,137.2C-82.1,137.7 -82.5,138.1 -83,138.1C-83.5,138.1 -83.9,137.7 -83.9,137.2C-83.9,136.7 -83.5,136.3 -83,136.3" style="fill-rule:nonzero;"/>
    </g>
    <g id="path3153" transform="matrix(0.423676,0,0,-0.423676,67.8345,63.9387)">
        <path d="M-81.7,135.7C-81.2,135.7 -80.8,136.1 -80.8,136.6C-80.8,137.1 -81.2,137.5 -81.7,137.5C-82.2,137.5 -82.6,137.1 -82.6,136.6C-82.6,136.1 -82.2,135.7 -81.7,135.7" style="fill-rule:nonzero;"/>
    </g>
    <g id="path3157" transform="matrix(0.423676,0,0,-0.423676,70.1398,64.1602)">
        <path d="M-71.2,134.7C-71.2,134.2 -70.8,133.8 -70.3,133.8C-69.8,133.8 -69.4,134.2 -69.4,134.7C-69.4,135.2 -69.8,135.6 -70.3,135.6C-70.8,135.6 -71.2,135.2 -71.2,134.7" style="fill-rule:nonzero;"/>
    </g>
    <g id="path3161" transform="matrix(0.423676,0,0,-0.423676,70.3121,64.3447)">
        <path d="M-70.4,133.8C-70.9,133.8 -71.3,133.4 -71.3,132.9C-71.3,132.4 -70.9,132 -70.4,132C-69.9,132 -69.5,132.4 -69.5,132.9C-69.5,133.4 -69.9,133.8 -70.4,133.8" style="fill-rule:nonzero;"/>
    </g>
    <g id="path3165" transform="matrix(0.423676,0,0,-0.423676,70.249,64.6579)">
        <path d="M-70.7,132.4C-71.2,132.4 -71.6,132 -71.6,131.5C-71.6,131 -71.2,130.6 -70.7,130.6C-70.2,130.6 -69.8,131 -69.8,131.5C-69.8,132 -70.2,132.4 -70.7,132.4" style="fill-rule:nonzero;"/>
    </g>
    <g id="path3169" transform="matrix(0.423676,0,0,-0.423676,69.5542,63.6734)">
        <path d="M-73.8,136.9C-73.3,136.9 -72.9,137.3 -72.9,137.8C-72.9,138.3 -73.3,138.7 -73.8,138.7C-74.3,138.7 -74.7,138.3 -74.7,137.8C-74.7,137.3 -74.3,136.9 -73.8,136.9" style="fill-rule:nonzero;"/>
    </g>
    <g id="path3173" transform="matrix(0.423676,0,0,-0.423676,69.8753,63.7725)">
        <path d="M-72.4,136.4C-71.9,136.4 -71.5,136.8 -71.5,137.3C-71.5,137.8 -71.9,138.2 -72.4,138.2C-72.9,138.2 -73.3,137.8 -73.3,137.3C-73.3,136.8 -72.9,136.4 -72.4,136.4" style="fill-rule:nonzero;"/>
    </g>
    <g id="path3177" transform="matrix(0.423676,0,0,-0.423676,70.1279,63.9938)">
        <path d="M-71.2,135.4C-70.7,135.4 -70.3,135.8 -70.3,136.3C-70.3,136.8 -70.7,137.2 -71.2,137.2C-71.7,137.2 -72.1,136.8 -72.1,136.3C-72.1,135.8 -71.7,135.4 -71.2,135.4" style="fill-rule:nonzero;"/>
    </g>
    <g id="path3181" transform="matrix(0.423676,0,0,-0.423676,69.2166,63.7045)">
        <path d="M-75.4,136.7C-74.9,136.7 -74.5,137.1 -74.5,137.6C-74.5,138.1 -74.9,138.5 -75.4,138.5C-75.9,138.5 -76.3,138.1 -76.3,137.6C-76.3,137.1 -75.9,136.7 -75.4,136.7" style="fill-rule:nonzero;"/>
    </g>
    <g id="path3185" transform="matrix(0.423676,0,0,-0.423676,68.8964,63.7972)">
        <path d="M-76.8,136.3C-76.3,136.3 -75.9,136.7 -75.9,137.2C-75.9,137.7 -76.3,138.1 -76.8,138.1C-77.3,138.1 -77.7,137.7 -77.7,137.2C-77.7,136.7 -77.3,136.3 -76.8,136.3" style="fill-rule:nonzero;"/>
    </g>
    <g id="path3189" transform="matrix(0.423676,0,0,-0.423676,68.4659,63.8092)">
        <path d="M-78.8,136.3C-78.8,135.8 -78.4,135.4 -77.9,135.4C-77.4,135.4 -77,135.8 -77,136.3C-77,136.8 -77.4,137.2 -77.9,137.2C-78.4,137.2 -78.8,136.8 -78.8,136.3" style="fill-rule:nonzero;"/>
    </g>
    <g id="path3193" transform="matrix(0.423676,0,0,-0.423676,67.9942,64.5084)">
        <path d="M-80.9,133.1L-79.9,133.1L-79.9,136.9C-80.3,137 -80.6,137.1 -80.9,137.2L-80.9,133.1Z" style="fill-rule:nonzero;"/>
    </g>
    <g id="path3197" transform="matrix(0.423676,0,0,-0.423676,68.4356,63.9102)">
        <path d="M-78.9,135.8C-79.2,135.7 -79.5,135.5 -79.9,135.5L-79.9,131.7L-78.9,131.7L-78.9,135.8Z" style="fill-rule:nonzero;"/>
    </g>
    <g id="path3201" transform="matrix(0.423676,0,0,-0.423676,68.1318,63.2995)">
        <path d="M-80.3,138.6L-80.3,140.9C-81.4,140.7 -82.3,139.8 -82.5,138.6L-80.3,138.6Z" style="fill-rule:nonzero;"/>
    </g>
    <g id="path3205" transform="matrix(0.423676,0,0,-0.423676,68.2997,63.2995)">
        <path d="M-79.6,138.6L-77.4,138.6C-77.6,139.7 -78.5,140.6 -79.6,140.9L-79.6,138.6Z" style="fill-rule:nonzero;"/>
    </g>
    <g id="path3209" transform="matrix(0.423676,0,0,-0.423676,67.8182,63.4579)">
        <path d="M-81.7,137.9C-81.4,136.6 -80.3,135.7 -79,135.7C-77.7,135.7 -76.5,136.6 -76.3,137.9L-81.7,137.9Z" style="fill-rule:nonzero;"/>
    </g>
    <g id="path3213" transform="matrix(0.423676,0,0,-0.423676,68.4372,62.9196)">
        <path d="M-78.9,140.3C-79.5,140.8 -80,141.5 -80.1,142.3C-79.4,142.2 -78.6,141.6 -78.1,141L-78.1,144.1C-78.6,143.5 -79.4,142.9 -80.1,142.8C-80,143.5 -79.6,144.2 -78.9,145L-81.9,145C-81.3,144.2 -80.8,143.5 -80.7,142.8C-81.4,142.9 -82.2,143.5 -82.7,144.1L-82.7,141C-82.2,141.6 -81.4,142.2 -80.7,142.3C-80.8,141.5 -81.3,140.8 -81.9,140.3L-78.9,140.3Z" style="fill-rule:nonzero;"/>
    </g>
    <g id="path3217" transform="matrix(0.423676,0,0,-0.423676,68.9127,71.7955)">
        <path d="M-76.8,99.9C-79.6,100.6 -83,101.8 -86.1,103.2C-86,103.8 -86.2,104.5 -86.7,105.1C-87.2,105.7 -87.8,106 -88.5,106C-88.8,106 -89.1,105.9 -89.4,105.8C-89.9,106.2 -90.3,106.6 -90.7,107.1C-91.9,108.5 -92.8,110.1 -93.5,111.9C-93.9,112.9 -94.1,114 -94.3,115.1C-94.4,114.2 -95.5,113 -97.2,113C-97.2,113.2 -97.2,113.6 -97.4,113.7C-97.9,113.2 -98.6,112.6 -100.1,113.2C-99.9,112 -99.5,110.7 -99.1,109.6C-98.2,107.1 -96.8,104.8 -95.1,102.8C-94.5,102.2 -93.9,101.6 -93.3,101L-93.3,100.6C-93.3,99.9 -92.7,98.9 -91.8,98.4C-91.1,98 -90.2,98.1 -89.5,98.7C-88.1,98 -86.4,97.3 -84.5,96.8C-82.4,96.2 -80.4,95.9 -78.8,95.9C-77.4,95.9 -75.6,96.5 -73.8,97.7C-73.1,98.2 -72.4,98.7 -71.9,99.1C-71.8,99.2 -71.8,99.2 -71.7,99.3C-73,99.1 -75,99.5 -76.8,99.9M-87.1,104.2L-87.4,104.4C-87.9,104.8 -88.4,104.8 -88.9,104.4C-89.1,104.2 -89.3,104 -89.5,103.7L-89.8,103.4L-89.6,103.2C-89,102.7 -88.9,102.2 -89.1,101.9C-89.2,101.8 -89.3,101.7 -89.4,101.7C-89.7,101.6 -90.1,101.7 -90.5,102L-90.7,102.1L-90.8,101.9C-90.8,101.8 -90.9,101.8 -90.9,101.7C-90.9,101.6 -91,101.6 -91.1,101.5C-91.3,101.1 -91.5,100.7 -91.5,100.5L-91.5,100.3C-91.4,100 -91.2,99.8 -90.9,99.7L-90.8,99.6C-90.5,99.4 -90.2,99.2 -89.9,99.1C-90.4,98.8 -90.9,98.8 -91.4,99C-92.2,99.4 -92.7,100.3 -92.7,100.7C-92.7,101.4 -92.4,102.2 -91.9,103.1L-91.8,103.2L-91.9,103.3C-92.1,103.6 -92.2,103.8 -92.3,104.1C-92,104.1 -91.7,104 -91.4,103.9L-91.3,103.9L-91.2,104C-90.9,104.4 -89.7,105.6 -88.6,105.6C-88.1,105.6 -87.6,105.3 -87.2,104.9C-86.9,104.6 -86.7,104.2 -86.7,103.8C-86.7,103.9 -86.9,104 -87.1,104.2M-85.2,98.8C-85.9,98.8 -86.4,99.3 -86.4,100C-86.4,100.7 -85.9,101.2 -85.2,101.2C-84.5,101.2 -84,100.7 -84,100C-84,99.3 -84.6,98.8 -85.2,98.8M-80,97.2C-80.6,97.2 -81.1,97.7 -81.1,98.3C-81.1,98.9 -80.6,99.4 -80,99.4C-79.4,99.4 -78.9,98.9 -78.9,98.3C-78.9,97.7 -79.4,97.2 -80,97.2" style="fill-rule:nonzero;"/>
    </g>
    <g id="path3221" transform="matrix(0.423676,0,0,-0.423676,68.6588,72.9964)">
        <path d="M-77.9,94.5C-78.1,94.5 -78.3,94.5 -78.5,94.4L-78.5,97.8C-80,97.8 -81.7,98.1 -83.4,98.5L-83.4,94.4C-83.6,94.5 -83.8,94.5 -84,94.5C-85.2,94.5 -85.9,93.5 -85.9,92.6C-85.9,91.7 -85.4,90.9 -84.9,90.4C-84.7,90.9 -84.5,91.3 -84.2,91.3C-83.6,91.3 -83.9,88.4 -82.2,88.3C-82.3,88.2 -82.3,88 -82.3,87.8C-82.3,87.1 -81.7,86.5 -81,86.5C-80.3,86.5 -79.7,87.1 -79.7,87.8C-79.7,88 -79.7,88.1 -79.8,88.3C-78.1,88.4 -78.4,91.3 -77.8,91.3C-77.5,91.3 -77.3,90.9 -77.1,90.4C-76.7,90.9 -76.2,91.7 -76.2,92.6C-76,93.5 -76.7,94.5 -77.9,94.5M-81,87.1C-81.4,87.1 -81.7,87.4 -81.7,87.8C-81.7,88.2 -81.4,88.5 -81,88.5C-80.6,88.5 -80.3,88.2 -80.3,87.8C-80.2,87.5 -80.5,87.1 -81,87.1M-77,91.4C-77.2,91.8 -77.5,92 -77.8,92C-79,92 -78.5,89 -79.9,89C-80.5,89 -80.8,89.4 -80.8,89.8C-80.8,90.2 -80.5,90.4 -80.5,90.7C-80.5,91 -80.8,91.2 -81.1,91.2C-81.4,91.2 -81.7,91.1 -81.7,90.7C-81.7,90.4 -81.4,90.2 -81.4,89.8C-81.4,89.4 -81.7,89 -82.3,89C-83.7,89 -83.2,92 -84.4,92C-84.7,92 -85,91.8 -85.2,91.4C-85.4,91.8 -85.6,92.3 -85.6,92.6C-85.6,93.2 -85.2,93.9 -84.3,93.9C-82.8,93.9 -83.1,91.8 -82.4,91.8C-82.1,91.8 -81.8,92 -81.8,92.3C-81.8,92.9 -82.9,93.5 -82.9,94.3C-82.9,95.1 -82.1,95.9 -81.3,96.6C-80.4,95.9 -79.7,95.2 -79.7,94.3C-79.7,93.4 -80.8,92.9 -80.8,92.3C-80.8,92 -80.6,91.8 -80.2,91.8C-79.5,91.8 -79.8,93.9 -78.3,93.9C-77.4,93.9 -77,93.1 -77,92.6C-76.6,92.3 -76.7,91.8 -77,91.4" style="fill-rule:nonzero;"/>
    </g>
    <g id="path3225" transform="matrix(0.423676,0,0,-0.423676,74.373,73.5817)">
        <path d="M-51.9,91.8C-52,92 -52.2,92.1 -52.3,92C-56.2,90.9 -61.1,94.1 -65.8,97.3C-69.8,99.9 -73.5,102.4 -76.7,102.4C-77.9,102.4 -78.9,102.1 -79.9,101.7C-81,101.1 -81.9,100.1 -82.4,98.8C-82.9,97.5 -83.5,96.6 -84,95.9C-84.5,95 -84.9,94.4 -84.9,93.6C-84.9,93 -84.6,92.4 -84.1,91.8C-83.6,91.3 -83,90.9 -82,90.4C-81.8,90.3 -81.6,90.2 -81.4,90.1C-80.6,89.7 -80.1,89.5 -80,89C-81.6,88.3 -83.6,87.7 -85.9,87.3C-88.5,86.8 -91.3,86.6 -94.3,86.6C-97.3,86.6 -100.1,86.8 -102.7,87.3C-105,87.7 -107,88.3 -108.6,89C-108.5,89.7 -108.1,89.9 -107.2,90.3C-107,90.4 -106.8,90.5 -106.6,90.6C-105.8,91 -105.1,91.4 -104.6,91.9C-104,92.4 -103.8,92.9 -103.8,93.6C-103.8,94.4 -104.2,95 -104.7,95.9C-105.2,96.6 -105.7,97.5 -106.3,98.8C-106.8,100.1 -107.7,101.1 -108.8,101.7C-109.7,102.2 -110.8,102.4 -111.9,102.4C-115.1,102.4 -118.9,99.9 -122.9,97.2C-127.6,94.1 -132.5,90.8 -136.4,91.9C-136.6,92 -136.8,91.9 -136.8,91.7C-136.9,91.5 -136.8,91.3 -136.6,91.2C-135.4,90.7 -134.3,89.8 -133.3,89.1C-131.9,88 -130.5,86.9 -129.1,86.9C-127.7,86.9 -126.2,87.3 -124.4,88.3C-122.8,89.1 -121.2,90.2 -119.6,91.3C-116.5,93.4 -113.3,95.6 -110.2,95.9C-110.5,95.6 -110.8,95.3 -111.1,95C-112,94.2 -112.8,93.5 -112.8,92.1C-112.8,91 -112.4,90.2 -111.9,89.1C-111.7,88.8 -111.6,88.4 -111.4,88C-111.1,87.2 -110.9,86.6 -110.7,85.8C-110.6,85.4 -110.5,85 -110.4,84.6C-110.2,83.9 -109.8,82.5 -107.6,81.4C-105,80.1 -100.5,79.4 -94.3,79.4C-88.1,79.4 -83.6,80.1 -81,81.4C-78.8,82.5 -78.4,83.9 -78.2,84.6C-78.1,85.1 -78,85.5 -77.9,85.8C-77.7,86.6 -77.6,87.2 -77.2,88C-77,88.6 -76.7,89 -76.5,89.4C-76,90.3 -75.7,91 -75.7,92C-75.7,93.4 -76.5,94.1 -77.5,95C-77.8,95.3 -78.1,95.6 -78.5,95.9C-75.4,95.7 -72.2,93.5 -69.1,91.3C-67.5,90.2 -65.9,89.1 -64.3,88.3C-62.5,87.3 -61,86.9 -59.6,86.9C-58.1,86.9 -56.8,87.9 -55.4,89.1C-54.4,89.9 -53.3,90.7 -52.1,91.2C-52,91.4 -51.9,91.6 -51.9,91.8" style="fill-rule:nonzero;"/>
    </g>
    <g id="path3229" transform="matrix(0.423676,0,0,-0.423676,70.9495,69.0208)">
        <path d="M-67.5,112.6C-67.9,112.9 -68.6,113.6 -69,114.4C-69.5,115.4 -71.4,119.2 -71.7,119.7C-72,120.1 -72.1,120.5 -72.1,120.8C-72.1,121.2 -71.9,121.5 -71.7,121.8C-71.5,122 -71.1,122.4 -71,122.7C-70.9,122.9 -70.8,123 -70.7,123.2C-71.4,124.4 -72.1,125.4 -73.1,126.4C-74.2,127.7 -75.5,128.8 -76.9,129.7C-76.2,130.2 -75.4,130.9 -75.4,132.1C-75.4,132.8 -75.7,133.3 -76.2,133.8C-75.4,136.3 -74,139.4 -72.8,140.7L-75.3,141.8C-74.6,140.8 -74.6,139.6 -74.7,138.9C-75.4,139.4 -75.9,140 -76.1,140.8C-76.2,140 -76.6,138.8 -77,138.1C-76.3,138.4 -75.7,138.6 -74.9,138.3C-75.3,137.7 -76.4,136.8 -78.1,137.2C-79,137.4 -79.9,137.9 -79.9,138.6C-79.9,139 -79.6,139.5 -79,139.5C-78.4,139.4 -78.4,138.6 -78.6,138.2C-77.9,138.6 -77.1,140.7 -78.3,141C-79.2,141.2 -80,140 -80.3,139.1C-80.5,140.2 -80.9,141.3 -81.8,141.3C-83,141.2 -82.6,139.1 -82.2,138.5C-82.1,139.3 -81.7,139.7 -81.4,139.6C-81.1,139.6 -80.7,139.4 -80.8,138.7C-80.9,138 -81.8,137.6 -83,137.6C-84.1,137.6 -85.9,137.9 -86.1,140C-85.4,139.9 -84.3,139.3 -83.9,138.7C-84,139.9 -84,140.8 -83.9,142.1C-84.5,141.3 -85.4,140.9 -86.1,140.8C-85.9,141.7 -85.1,142.6 -84.3,143.2L-88.9,143.2C-88,142.6 -87.3,141.7 -87.1,140.8C-87.8,140.9 -88.7,141.3 -89.3,142.1C-89.2,140.8 -89.2,139.9 -89.3,138.7C-88.8,139.4 -87.8,139.9 -87.1,140C-87.3,137.9 -89.2,137.6 -90.2,137.6C-91.3,137.6 -92.3,138 -92.4,138.7C-92.5,139.4 -92.1,139.6 -91.7,139.6C-91.4,139.6 -90.9,139.2 -90.9,138.5C-90.5,139 -90.1,141.2 -91.3,141.3C-92.2,141.4 -92.7,140.3 -92.8,139.1C-93.1,140 -93.9,141.3 -94.8,141C-95.9,140.7 -95.2,138.6 -94.5,138.2C-94.7,138.6 -94.6,139.4 -94.1,139.5C-93.5,139.6 -93.2,139.1 -93.2,138.6C-93.2,137.9 -94.1,137.4 -95,137.2C-96.7,136.8 -97.7,137.7 -98.2,138.3C-97.4,138.6 -96.9,138.5 -96.1,138.1C-96.5,138.8 -96.9,140.1 -97,140.8C-97.2,140 -97.8,139.3 -98.4,138.9C-98.5,139.6 -98.5,140.8 -97.8,141.8L-100.3,140.7C-99.1,139.4 -97.7,136.3 -96.9,133.8C-97.4,133.4 -97.7,132.8 -97.7,132.2C-97.7,131 -96.9,130.3 -96.2,129.8C-97.6,128.9 -98.9,127.8 -100,126.5C-101.7,124.6 -103.1,122.3 -104,119.8C-103.6,119.4 -102.1,117.8 -101.8,117.3C-101.2,116.5 -100.8,115.7 -100.8,115.1C-100.8,114 -100.5,113.5 -99.9,112.7C-99.7,112.5 -99.4,111.6 -99.4,111L-86.8,111L-86.8,97.2C-87.3,97.2 -87.8,97 -88.2,96.5C-86.7,95.9 -85.4,95.4 -84,95C-83.9,95.9 -83.7,96.4 -83.2,97C-83.2,97 -85,97.2 -86,97.2L-86,110.9L-73.7,110.9C-73.7,109 -74.1,107.2 -74.7,105.5C-75.3,103.7 -76.3,102.1 -77.5,100.7C-78.7,99.3 -80,98.2 -81.6,97.5C-81.8,97.4 -81.8,97.2 -82.1,97.1C-82.3,96.9 -82.5,96.5 -82.7,96C-82.9,95.6 -82.9,95.3 -83,94.8C-82.4,94.6 -82.1,94.5 -81.6,94.4C-77.3,93.3 -76.2,93.6 -76,93.8C-75,94.5 -74.1,95.4 -73.3,96.3C-71.6,98.3 -70.2,100.5 -69.3,103.1C-68.3,105.7 -67.8,108.5 -67.8,111.4C-67.5,111.9 -67.5,112 -67.5,112.6M-86.6,111.6L-99.2,111.6C-99.2,113.5 -98.8,115.4 -98.2,117.2C-97.6,119 -96.6,120.6 -95.4,122C-94.2,123.4 -92.8,124.5 -91.3,125.2C-89.8,125.9 -88.2,126.3 -86.6,126.4L-86.6,111.6ZM-86.4,132.6C-90.6,132.6 -93.5,131.4 -95.2,130.2C-96.2,130.8 -96.6,131.3 -96.6,132C-96.6,134.4 -89.9,134.6 -86.5,134.6C-83.1,134.6 -76.4,134.4 -76.4,132C-76.4,131.3 -76.8,130.8 -77.8,130.2C-79.3,131.3 -82.2,132.6 -86.4,132.6M-85.8,111.6L-85.8,126.4C-84.3,126.3 -82.8,126 -81.4,125.3C-79.9,124.5 -78.5,123.5 -77.3,122.1C-76.1,120.7 -75.2,119.1 -74.5,117.3C-73.9,115.5 -73.5,113.6 -73.5,111.7C-73.6,111.6 -85.8,111.6 -85.8,111.6Z" style="fill-rule:nonzero;"/>
    </g>
    <g id="path3233" transform="matrix(0.423676,0,0,-0.423676,69.7898,68.8078)">
        <path d="M-72.8,113.5C-72.6,113.4 -72.7,113 -72.9,113.1C-73.2,115.3 -74,117.5 -75.3,119.3C-75.1,119.4 -74.8,119.6 -74.8,119.9C-75.2,119.9 -75.4,119.8 -75.6,119.6C-75.7,119.7 -75.8,119.8 -75.9,119.9C-76.7,120.9 -77.6,121.7 -78.6,122.4C-79.5,123 -80.5,123.5 -81.6,123.8C-81.6,124 -81.3,124.1 -81.1,123.9C-81.1,124.3 -81.4,124.5 -81.6,124.4C-81.7,124.4 -81.8,124.3 -81.8,124.1C-81.9,124.2 -82.1,124.4 -82.4,124.4C-82.4,124.1 -82.3,124 -82.2,123.8C-82.4,123.8 -82.5,123.7 -82.5,123.6C-82.6,123.4 -82.5,123.1 -82.1,123C-82.3,123.2 -82.2,123.5 -82,123.4L-82,118.6C-82.2,118.7 -82.5,118.6 -82.8,118.4C-82.5,118.1 -82.2,118.1 -82,118.2L-82,113C-82.3,113 -82.3,113.3 -82.1,113.4C-82.5,113.4 -82.7,113 -82.6,112.9C-82.5,112.8 -82.4,112.7 -82.2,112.7C-82.3,112.6 -82.4,112.4 -82.4,112.1C-82.2,112.1 -82,112.2 -81.9,112.3C-81.9,112.1 -81.8,112 -81.7,111.9C-81.5,111.8 -81.2,112 -81.2,112.4C-81.3,112.2 -81.7,112.3 -81.7,112.5L-78.1,112.5C-78.2,112.3 -78.1,112 -77.9,111.7C-77.7,112 -77.6,112.3 -77.7,112.5L-73.7,112.5C-73.7,112.2 -74,112.2 -74.1,112.4C-74.1,112 -73.7,111.9 -73.6,111.9C-73.5,112 -73.4,112.1 -73.4,112.3C-73.3,112.2 -73.1,112.1 -72.8,112.1C-72.8,112.3 -72.9,112.5 -73,112.6C-72.8,112.6 -72.7,112.7 -72.6,112.8C-72.2,113.2 -72.4,113.5 -72.8,113.5M-76.2,119.9C-76.3,119.8 -76.4,119.7 -76.3,119.6C-76.3,119.5 -76.2,119.4 -75.9,119.4C-76,119.3 -76.1,119.1 -76.2,118.9C-76,118.9 -75.8,118.9 -75.6,119C-75.6,118.8 -75.6,118.7 -75.5,118.6C-75.4,118.5 -75.3,118.5 -75.2,118.6C-74.3,117.1 -73.6,115.4 -73.4,113.6C-73.5,113.7 -73.7,113.7 -73.9,113.7C-73.9,113.4 -73.8,113.3 -73.7,113.1L-76.8,113.1C-76.8,113.3 -76.9,113.5 -77,113.5C-77.1,113.5 -77.3,113.5 -77.4,113.4C-77.4,113.6 -77.5,113.8 -77.6,113.9C-77.8,113.7 -77.8,113.5 -77.8,113.4C-77.9,113.6 -78.1,113.6 -78.2,113.5C-78.3,113.5 -78.4,113.3 -78.4,113.1L-81,113.1C-80.9,113.2 -80.8,113.4 -80.8,113.6C-81,113.6 -81.2,113.5 -81.3,113.4L-81.3,117.6C-81.1,117.6 -80.9,117.7 -80.9,117.8C-80.9,117.9 -80.9,118.1 -81,118.2C-80.8,118.2 -80.6,118.3 -80.5,118.4C-80.7,118.6 -80.9,118.6 -81,118.6C-80.8,118.7 -80.8,118.9 -80.9,119C-80.9,119.1 -81.1,119.2 -81.3,119.2L-81.3,122.8C-81.2,122.7 -81,122.6 -80.8,122.6C-80.8,122.8 -80.8,123 -80.9,123.1C-80.1,122.8 -79.3,122.4 -78.5,121.9C-77.8,121.5 -77,120.8 -76.2,119.9" style="fill-rule:nonzero;"/>
    </g>
    <g id="path3237" transform="matrix(0.423676,0,0,-0.423676,69.4785,68.6162)">
        <path d="M-74.2,114.4C-74,114.5 -73.9,114.6 -73.9,114.7C-74.1,114.6 -74.2,114.7 -74.2,114.7C-74.1,114.8 -73.9,114.7 -74.1,114.9C-74.2,115.1 -74.3,115.1 -74.5,115C-74.6,114.8 -75.6,115 -75.6,115.8C-75.5,115.7 -75.4,115.6 -75.3,115.5C-75.3,115.5 -75.2,115.5 -75.2,115.4L-74.7,115.4C-74.5,115.4 -74.3,115.6 -74.3,115.8C-74.3,116.2 -74.6,116.4 -75.1,116.7C-75.3,116.8 -75.4,117 -75.5,117.1C-75.6,117.4 -75.5,117.7 -75.9,118.2C-75.9,118.3 -75.9,118.5 -76,118.7C-76.2,118.4 -76.3,117.7 -75.8,117.2C-75.4,116.7 -74.5,116.3 -74.6,115.9C-74.6,115.8 -74.7,115.7 -74.8,115.7L-74.9,115.7L-75,115.7C-75.1,115.7 -75.1,115.7 -75.2,115.8C-75.3,115.9 -75.4,115.9 -75.5,116C-75.9,116.3 -76.2,116.8 -76.4,117.1C-76.8,117.6 -76.6,118.1 -76.6,118.5C-76.3,118.9 -76.8,119.7 -77,119.9C-77,119.9 -76.9,120.1 -77,120.3L-77.2,120.3C-77.3,120.4 -77.3,120.5 -77.4,120.5C-77.6,120.5 -77.6,120.6 -77.6,120.7C-77.7,120.6 -77.7,120.5 -77.8,120.5L-78.1,120.5C-78.2,120.4 -78.2,120.4 -78.4,120.4C-78.6,120.4 -78.6,120.3 -78.5,120.2C-78.5,120.1 -78.5,120 -78.4,120L-78.3,119.8L-78.2,120C-78.1,120.1 -77.9,120.1 -77.9,119.9C-77.9,119.8 -77.9,119.8 -78,119.7L-78.4,119.7C-78.5,119.7 -78.5,119.6 -78.5,119.5C-78.5,119.4 -78.4,119.4 -78.2,119.4C-78,119.4 -77.7,119.5 -77.7,119.3C-77.7,118.9 -78.2,118.9 -78.3,118.4C-78.4,118.5 -78.5,118.6 -78.6,118.7C-78.7,118.8 -78.8,119 -79,119.2C-79.1,119.3 -79.2,119.4 -79.4,119.5C-79.6,119.6 -79.6,119.7 -79.6,119.9C-79.6,120.1 -79.5,120.2 -79.5,120.3L-79.5,120.4C-79.5,120.5 -79.7,120.6 -79.7,120.5C-79.7,120.5 -79.6,120.4 -79.6,120.3L-79.7,120.2L-79.7,120.1L-79.7,120C-79.7,120.1 -79.8,120.3 -79.9,120.3L-80,120.3C-80,120.4 -80.1,120.5 -80.3,120.4L-80.2,120.4L-80.2,120.3C-80.2,120.2 -80.1,120.1 -80,120.1C-80.2,120.2 -80.3,120.1 -80.3,120L-80.3,119.9C-80.4,119.9 -80.4,119.7 -80.3,119.7L-80.3,119.8L-80.2,119.7L-80,119.7C-80.1,119.6 -80.1,119.5 -80,119.4C-80.1,119.3 -80.3,119.3 -80.3,119.5C-80.5,119.2 -80.2,119 -80,119.1L-80,118.8C-80,118.8 -80,118.9 -79.9,118.9C-79.9,118.8 -79.9,118.8 -79.8,118.7L-79.8,118.8C-79.8,118.7 -79.7,118.7 -79.7,118.6C-79.6,118.4 -79.4,117.9 -78.8,117.7C-79.1,117.5 -79.2,117.3 -79.4,117.1C-79.5,117 -79.8,116.8 -79.9,116.9C-80,116.9 -80,117 -80.1,117.1C-80.2,117.1 -80.2,117.2 -80.3,117.1L-80.4,117.1C-80.5,117.1 -80.6,117.1 -80.7,117L-80.5,117L-80.5,116.9C-80.5,116.8 -80.5,116.8 -80.2,116.8C-80.2,116.8 -80.3,116.7 -80.3,116.8C-80.4,116.8 -80.5,116.9 -80.6,116.8L-80.7,116.7C-80.8,116.7 -80.9,116.5 -80.8,116.4C-80.8,116.4 -80.8,116.5 -80.7,116.6C-80.7,116.6 -80.7,116.5 -80.6,116.5C-80.5,116.4 -80.4,116.3 -80.3,116.6C-80.3,116.5 -80.4,116.3 -80.3,116.3L-80.2,116.3C-80.2,116.2 -80,116.1 -79.9,116.2C-80,116.2 -80,116.3 -80.1,116.4L-80,116.4C-79.9,116.5 -80,116.6 -80,116.7C-80,116.6 -79.9,116.5 -79.7,116.6C-79.6,116.6 -79.6,116.7 -79.6,116.8C-79.4,116.9 -79.3,116.9 -79.1,116.9C-79.1,117 -79,117.1 -78.8,117.2C-78.6,117.3 -78.5,117.2 -78.5,117.1C-78.5,117.2 -78.4,117.3 -78.3,117.4C-78.3,116.6 -77.3,116.7 -77,116.2C-77.3,116.3 -77.7,116.4 -77.8,116.4C-78.1,116.4 -78.5,116.1 -78.5,115.8C-78.5,115.6 -78.3,115.1 -78.1,115C-78.4,114.9 -78.5,115 -78.8,115C-79,115 -79.1,115.4 -79.3,115.3C-79.3,115.3 -79.4,115.3 -79.4,115.2C-79.5,115.2 -79.7,115.1 -79.6,115C-79.6,115 -79.5,115.1 -79.4,115.1L-79.4,115C-79.4,115 -79.4,114.9 -79.3,114.9L-79.2,114.9C-79.2,114.8 -79.5,115 -79.5,114.7C-79.5,114.7 -79.5,114.6 -79.4,114.6C-79.4,114.5 -79.3,114.4 -79.2,114.5L-79.3,114.6L-79.2,114.6L-79.2,114.5L-79.2,114.4C-79.2,114.3 -79.1,114.2 -78.9,114.3C-78.9,114.3 -79,114.3 -79,114.4L-78.9,114.4L-78.9,114.5L-78.8,114.5C-78.8,114.4 -78.7,114.4 -78.6,114.4C-78.5,114.4 -78.5,114.5 -78.5,114.5C-78.5,114.5 -78.4,114.5 -78.4,114.4C-78.4,114.5 -78.4,114.6 -78.1,114.4L-77.9,114.5C-77.9,114.5 -77.7,114.4 -77.6,114.5C-77.5,114.6 -77.5,114.6 -77.5,114.8C-77.6,115 -77.7,115 -77.7,115.2C-77.8,115.6 -77.2,115.8 -76.9,115.7C-76.8,115.5 -76.5,114.8 -75.9,114.6C-75.5,114.5 -75.4,114.9 -75.3,114.8L-75.2,114.7L-75.2,114.3C-75.2,114.2 -75.4,114.3 -75.6,114.3C-75.7,114.3 -75.7,114.3 -75.7,114.2C-75.8,114.2 -75.9,114.1 -75.9,114C-75.9,114 -75.8,114.1 -75.7,114.1L-75.7,114C-75.7,113.9 -75.5,113.8 -75.4,113.9C-75.4,113.9 -75.3,113.9 -75.4,113.9C-75.5,113.8 -75.6,113.7 -75.5,113.6L-75.4,113.6C-75.4,113.5 -75.3,113.4 -75.3,113.4L-75.3,113.6L-75.2,113.6C-75.1,113.6 -75.1,113.8 -75,113.8C-75,113.7 -75.1,113.6 -75,113.5L-74.9,113.5C-74.9,113.4 -74.8,113.4 -74.6,113.4C-74.6,113.4 -74.7,113.4 -74.7,113.5L-74.6,113.6C-74.5,113.8 -74.7,113.8 -74.7,113.9C-74.7,114 -74.5,113.9 -74.5,114.2C-74.4,114.3 -74.3,114.3 -74.2,114.4C-74,114.3 -74.2,114.4 -74.2,114.4Z" style="fill-rule:nonzero;"/>
    </g>
    <g id="path3241" transform="matrix(0.423676,0,0,-0.423676,67.9805,69.6186)">
        <path d="M-81,109.8L-81.2,109.8L-81.2,110C-81.2,110.7 -81.6,111.3 -82.4,111.3C-83.1,111.3 -84.5,110.4 -86.4,110.4C-87.2,110.4 -88.2,110.8 -88.8,111.1L-89,110.5L-89,110.6C-89,110.9 -89.2,111.1 -89.5,111.1C-89.8,111.1 -90,110.9 -90,110.6C-90,110.3 -89.8,110.1 -89.5,110.1C-89.4,110.1 -89.2,110.2 -89.1,110.3L-89.3,109.7C-89.2,109.7 -89.1,109.6 -89.1,109.6C-89.4,106.7 -87.2,103 -83.5,101.9C-82.9,102 -82.4,102 -82.4,101.4C-82.4,101 -82.6,100.9 -82.9,100.9C-83.1,100.9 -83.3,101 -83.3,101.2C-83.3,101.5 -82.9,101.3 -82.8,101.5C-82.7,101.7 -82.9,101.8 -83.2,101.8C-83.5,101.8 -83.9,101.6 -83.9,101.2C-83.9,100.7 -83.5,100.4 -83,100.4C-82.6,100.4 -81.7,100.6 -81.8,101.7C-81.6,101.7 -81.4,101.7 -81.3,101.9L-81.3,102.5L-81.5,102.5L-81.3,109.1L-81.2,109.1C-81,109.1 -80.7,109.2 -80.7,109.5C-80.6,109.7 -80.8,109.8 -81,109.8M-87.8,109.3L-83.2,102.7C-85.7,103.7 -88.1,105.9 -87.8,109.3M-83.1,103.4L-87.3,109.4L-86.3,109.4L-82.9,104.6C-83,104.1 -83.1,103.7 -83.1,103.4M-82.8,105.3L-85.8,109.5C-85.5,109.6 -85.2,109.7 -84.9,109.8L-82.7,106.6C-82.7,106.2 -82.7,105.7 -82.8,105.3M-82.1,109.9L-82.3,109.9C-82.5,109.9 -82.7,109.8 -82.8,109.6C-82.8,109.3 -82.6,109.2 -82.4,109.2L-82.3,109.2L-82.3,109C-82.4,108.6 -82.5,108 -82.6,107.3L-84.5,110C-83.6,110.3 -82.9,110.7 -82.5,110.7C-82.1,110.7 -82,110.5 -82.1,109.9" style="fill-rule:nonzero;"/>
    </g>
    <g id="path3245" transform="matrix(0.423676,0,0,-0.423676,67.8643,67.6865)">
        <path d="M-81.5,118.6C-80.6,118.6 -80.2,118.9 -80.2,119.2C-80.2,120.2 -82.7,119.6 -82.7,120.2C-82.7,120.3 -82.6,120.4 -82.5,120.5C-81.3,120.6 -81.2,121.5 -80.4,121.6C-81.5,121.8 -81.6,120.9 -82.1,120.9C-81.9,121 -81.8,121.3 -81.8,121.4C-82,121.1 -82.5,121.1 -82.8,120.8C-82.8,120.7 -82.9,120.7 -82.8,120.6C-83,120.5 -83.1,120.4 -83.1,120.2C-83.1,119.3 -80.6,119.9 -80.6,119.2C-80.6,119 -81,118.8 -81.7,118.8C-82.2,118.8 -82.6,119.2 -83.5,118.9C-83.5,119.1 -83.2,119.4 -83.3,119.5C-83.2,119.5 -83.1,119.6 -83.1,119.7C-83.2,119.8 -83.2,119.8 -83.3,119.8L-83.3,119.9C-83.3,119.9 -83.3,120 -83.4,120C-83.4,120 -83.5,120.1 -83.6,120.1C-83.7,120.2 -83.8,120.2 -83.8,120.2L-83.9,120.2C-84,120.2 -84,120.2 -84,120.1C-84,120.1 -84.1,120.2 -84.2,120.2C-84.2,120.1 -84.3,120.1 -84.2,119.9C-84.3,119.9 -84.4,119.7 -84.5,119.7C-84.5,119.6 -84.4,119.6 -84.4,119.6C-84.5,119.5 -84.5,119.3 -84.6,119.3C-84.6,119.3 -84.6,119.2 -84.5,119.2C-84.6,119 -84.6,118.8 -84.6,118.6C-84.7,118.7 -84.7,118.7 -84.8,118.8C-84.9,118.9 -84.9,119 -84.9,119.1C-84.9,119.2 -84.8,119.3 -84.8,119.4L-84.8,119.5C-84.8,119.6 -84.9,119.6 -85,119.6L-84.9,119.5L-85,119.4C-85,119.4 -85.1,119.3 -85,119.3L-85,119.2C-85,119.3 -85,119.4 -85.1,119.4L-85.2,119.4C-85.2,119.5 -85.3,119.6 -85.4,119.5L-85.3,119.5L-85.3,119.4C-85.3,119.3 -85.3,119.3 -85.1,119.3C-85.3,119.4 -85.4,119.3 -85.4,119.2L-85.4,119.1C-85.5,119.1 -85.5,119 -85.4,118.9C-85.4,118.9 -85.4,119 -85.3,119L-85.2,119C-85.3,118.9 -85.3,118.8 -85.2,118.8C-85.2,118.6 -85.5,118.6 -85.5,118.8C-85.7,118.6 -85.4,118.4 -85.2,118.5C-85.2,118.5 -85.2,118.4 -85.1,118.4L-85,118.4C-85,118.4 -85,118.3 -84.9,118.3L-84.9,118.4C-84.9,118.4 -84.8,118.2 -84.7,118.1C-84.9,118 -85.2,117.9 -85.3,117.9L-85.7,117.9C-85.8,117.8 -86.2,117.7 -86.3,117.8C-86.3,117.8 -86.3,117.9 -86.4,118L-86.5,118.1L-86.6,118.1C-86.7,118.2 -86.8,118.2 -86.8,118.1C-86.8,118.1 -86.7,118.1 -86.7,118L-86.7,117.9C-86.7,117.9 -86.7,117.8 -86.5,117.7L-86.6,117.7C-86.7,117.8 -86.7,117.9 -86.8,117.8L-86.9,117.8C-87,117.8 -87.1,117.7 -87.1,117.6C-87.1,117.6 -87.1,117.7 -87,117.7L-87,117.6C-87,117.5 -86.9,117.4 -86.7,117.6C-86.8,117.5 -86.9,117.4 -86.8,117.3L-86.7,117.3C-86.7,117.2 -86.6,117.1 -86.5,117.1C-86.5,117.1 -86.6,117.2 -86.6,117.3L-86.5,117.3C-86.4,117.3 -86.4,117.5 -86.4,117.5C-86.4,117.4 -86.4,117.3 -86.2,117.3C-86.1,117.3 -86,117.4 -86,117.5L-85.9,117.4C-85.9,117.4 -85.8,117.4 -85.8,117.5L-85.8,117.3C-85.8,117.3 -85.6,117.4 -85.6,117.5L-85.6,117.4L-85.3,117.4L-85.3,117.3L-85.3,117.4C-85.3,117.4 -85.3,117.3 -85.2,117.2C-85.2,117.5 -85,117.4 -84.8,117.5C-84.8,117.5 -84.8,117.4 -84.9,117.4C-84.8,117.4 -84.6,117.5 -84.6,117.6L-84.5,117.7C-84.4,117.7 -84.3,117.7 -84.3,117.8L-84.3,117.6C-84.1,117.6 -83.9,117.8 -83.8,117.9C-83.3,118 -84.1,118.3 -83.1,118.3C-83,118.3 -82.9,118.3 -82.8,118.4C-82.9,118.3 -82.9,118 -82.7,117.9C-82.6,117.9 -82.5,117.8 -82.5,117.8C-82.6,117.8 -82.7,117.8 -82.7,117.7C-82.9,117.6 -82.9,118 -83.2,117.9L-83.3,117.9C-83.4,117.9 -83.5,117.8 -83.5,117.7C-83.5,117.7 -83.4,117.8 -83.3,117.8C-83.3,117.8 -83.3,117.7 -83.2,117.7L-83.1,117.7C-83.1,117.6 -83.4,117.7 -83.3,117.5L-83.3,117.4C-83.3,117.3 -83.2,117.2 -83.1,117.3C-83.1,117.3 -83.2,117.3 -83.2,117.4L-83.1,117.4L-83.1,117.3L-83.1,117.2C-83.1,117.1 -83,117 -82.8,117.1C-82.8,117.1 -82.9,117.1 -82.9,117.2L-82.8,117.2L-82.8,117.3L-82.7,117.3C-82.7,117.2 -82.6,117.2 -82.5,117.2C-82.3,117.3 -82.5,117.4 -82.3,117.4L-81.9,117.4C-81.9,117.5 -81.9,117.7 -82,117.8C-82.1,117.8 -82,117.9 -82.1,118.1C-82,118 -81.8,118 -81.6,118C-81.3,118 -81.6,118.1 -81.4,118.1C-81.2,118.2 -81,118.2 -81,118.1C-81,118.1 -80.9,118.1 -80.9,118L-80.9,117.7C-80.9,117.6 -81.1,117.7 -81.2,117.7L-81.3,117.7C-81.4,117.7 -81.5,117.6 -81.5,117.5C-81.5,117.5 -81.4,117.6 -81.3,117.6C-81.3,117.5 -81.2,117.4 -81.1,117.5C-81.2,117.4 -81.3,117.3 -81.2,117.3L-81.1,117.3C-81.1,117.2 -81.1,117.1 -81,117.1L-81,117.2L-80.9,117.2C-80.8,117.2 -80.9,117.3 -80.8,117.4L-80.8,117.2L-80.7,117.2C-80.7,117.1 -80.6,117.1 -80.5,117.1C-80.5,117.1 -80.6,117.1 -80.6,117.2L-80.5,117.3C-80.5,117.5 -80.6,117.5 -80.6,117.6C-80.6,117.7 -80.4,117.6 -80.4,117.8C-80.4,117.8 -80.4,117.9 -80.5,117.9C-80.5,117.9 -80.4,117.9 -80.4,118C-80.5,118 -80.5,118.1 -80.5,118.2C-80.5,118.2 -80.4,118.3 -80.4,118.4C-80.4,118.3 -80.6,118.3 -80.6,118.4C-80.6,118.4 -80.6,118.5 -80.7,118.5C-81,118.4 -81.1,118.6 -81.5,118.6C-81.6,118.6 -81.6,118.6 -81.5,118.6M-83.6,119.8C-83.6,119.8 -83.4,119.7 -83.3,119.7C-83.4,119.7 -83.4,119.6 -83.5,119.6C-83.6,119.6 -83.6,119.7 -83.6,119.8M-83.8,119.9C-83.8,119.8 -83.9,119.8 -84,119.8C-84.1,119.9 -84,119.9 -84.1,120C-84,120 -83.8,119.9 -83.8,119.9M-84.1,119.3C-84.1,119.3 -84,119.4 -84.1,119.3C-84,119.4 -84,119.4 -83.9,119.5C-83.9,119.6 -83.9,119.6 -84,119.6C-83.9,119.6 -83.9,119.6 -83.9,119.7L-84,119.7L-83.9,119.8L-83.8,119.8L-83.6,119.7L-83.6,119.6L-83.6,119.5C-83.6,119.5 -83.6,119.6 -83.7,119.6L-83.7,119.5L-83.8,119.5L-83.8,119.4L-83.8,119.3C-83.8,119.2 -83.9,119.2 -84.1,119.3C-84.1,119.1 -84.1,119.2 -84.1,119.3" style="fill-rule:nonzero;"/>
    </g>
    <g id="path3249" transform="matrix(0.423676,0,0,-0.423676,68.0439,68.1712)">
        <path d="M-80.7,116.4C-80.7,116.7 -81,116.8 -81.9,116.8C-82.8,116.8 -84.8,116.5 -84.8,117C-84.8,117.2 -84.4,117.2 -84,117.2C-84,117.2 -83.9,117.1 -83.8,117.1C-82.7,116.8 -81.3,117.4 -80.6,117.2C-81.4,117.8 -82.1,117.2 -82.9,117.4C-82.4,117.4 -82.2,117.5 -82.2,117.7C-82.6,117.4 -83.3,117.8 -83.8,117.5C-83.8,117.5 -83.9,117.5 -83.9,117.4C-84.5,117.4 -85,117.4 -85,117C-85,116.1 -82.6,116.6 -81.9,116.6C-81.2,116.6 -81,116.5 -81,116.4C-81,116.2 -81.7,116.1 -82.1,116.1C-82.7,116.1 -84.7,116.4 -85.8,116.2C-85.7,116.4 -85.5,116.6 -85.6,116.8C-85.5,116.8 -85.4,116.9 -85.4,117C-85.5,117.1 -85.5,117.1 -85.6,117.1C-85.6,117.2 -85.6,117.2 -85.7,117.3C-85.7,117.3 -85.7,117.4 -85.8,117.4C-85.8,117.4 -85.9,117.5 -86.1,117.6C-86.2,117.7 -86.3,117.7 -86.4,117.7L-86.6,117.7C-86.7,117.7 -86.7,117.7 -86.7,117.6C-86.8,117.7 -86.8,117.7 -86.9,117.7C-86.9,117.6 -87,117.5 -86.9,117.4C-87,117.4 -87.1,117.1 -87.2,117.2C-87.2,117.1 -87.1,117.1 -87.1,117.1C-87.2,116.9 -87.2,116.8 -87.3,116.8L-87.2,116.7L-87.2,116.4L-87.4,116.5L-87.5,116.5L-87.4,116.5L-87.5,116.5C-87.6,116.6 -87.7,116.7 -87.9,116.8C-88.1,116.9 -88.1,117 -88.1,117.2C-88.1,117.4 -88,117.5 -88,117.6L-88,117.7C-88,117.8 -88.1,117.9 -88.2,117.9C-88.2,117.9 -88.1,117.8 -88.1,117.7L-88.2,117.6L-88.2,117.4L-88.2,117.3C-88.2,117.4 -88.3,117.6 -88.4,117.6L-88.5,117.6C-88.5,117.7 -88.6,117.8 -88.8,117.7L-88.7,117.7L-88.7,117.6C-88.7,117.5 -88.6,117.4 -88.5,117.4L-88.5,117.3C-88.7,117.4 -88.8,117.3 -88.8,117.2L-88.8,117.1C-88.9,117 -88.9,116.9 -88.8,116.9L-88.8,117L-88.6,117C-88.7,116.9 -88.7,116.7 -88.6,116.7C-88.6,116.5 -89,116.5 -88.9,116.7C-89.1,116.4 -88.8,116.2 -88.5,116.3C-88.5,116.3 -88.5,116.2 -88.4,116.2C-88.4,116.2 -88.4,116.3 -88.3,116.3C-88.3,116.2 -88.3,116.2 -88.2,116.1L-88.2,116.2C-88.2,116.2 -88,116 -87.8,115.9C-87.6,115.8 -87.5,115.7 -87.4,115.8C-87.4,115.6 -87.3,115.4 -87.3,115.4L-87.9,115.4C-88.1,115.3 -88.5,115.2 -88.6,115.3C-88.6,115.4 -88.6,115.4 -88.7,115.5C-88.7,115.6 -88.8,115.6 -88.8,115.6L-88.9,115.6C-89,115.7 -89.1,115.7 -89.2,115.6C-89.2,115.6 -89.1,115.6 -89,115.5L-89,115.4C-89,115.3 -89,115.3 -88.8,115.2L-88.9,115.2C-89,115.3 -89,115.4 -89.1,115.3L-89.2,115.3C-89.3,115.3 -89.5,115.2 -89.4,115L-89.3,115.1L-89.3,115C-89.3,114.9 -89.2,114.8 -88.9,114.9C-89,114.8 -89.1,114.7 -89,114.6L-88.9,114.6C-88.9,114.4 -88.8,114.3 -88.7,114.3C-88.7,114.3 -88.8,114.4 -88.8,114.5L-88.7,114.5C-88.6,114.6 -88.6,114.7 -88.6,114.8C-88.6,114.7 -88.6,114.6 -88.4,114.6C-88.3,114.6 -88.2,114.7 -88.2,114.8C-88.2,114.8 -88.1,114.7 -88.1,114.6C-88.1,114.6 -88,114.6 -88,114.7C-88,114.6 -88,114.5 -88.1,114.4C-88,114.4 -87.9,114.5 -87.9,114.7C-87.9,114.7 -87.9,114.6 -87.8,114.6L-87.5,114.6L-87.5,114.5C-87.5,114.5 -87.5,114.6 -87.4,114.6C-87.4,114.6 -87.4,114.5 -87.3,114.4C-87.3,114.8 -87.1,114.6 -86.8,114.8C-86.8,114.8 -86.8,114.7 -86.9,114.7C-86.6,114.6 -86.2,115 -86.1,115.2L-85.8,115.2C-85,115.1 -85.6,115.9 -84.3,115.7C-84.2,115.7 -84.1,115.8 -84,115.8C-84.1,115.6 -84.1,115.3 -83.9,115.3C-83.8,115.3 -83.7,115.2 -83.6,115.2C-83.7,115.2 -83.8,115.2 -83.8,115.1C-84.1,114.9 -84.1,115.5 -84.3,115.4C-84.3,115.4 -84.4,115.4 -84.4,115.3C-84.5,115.3 -84.7,115.2 -84.6,115.1C-84.6,115.1 -84.5,115.2 -84.4,115.2L-84.4,115.1C-84.4,115.1 -84.4,115 -84.3,115L-84.2,115C-84.2,114.9 -84.6,115.1 -84.5,114.8L-84.5,114.7C-84.5,114.6 -84.4,114.5 -84.3,114.6L-84.4,114.7L-84.3,114.7L-84.3,114.6L-84.3,114.5C-84.3,114.4 -84.2,114.3 -84,114.4C-84,114.4 -84.1,114.4 -84.2,114.5L-84.1,114.5L-84.1,114.6L-83.9,114.6C-83.9,114.5 -83.8,114.5 -83.7,114.5C-83.5,114.6 -83.7,114.7 -83.5,114.8L-83,114.8C-83,114.9 -83,115.1 -83.1,115.2C-83.2,115.2 -83.1,115.4 -83.2,115.5C-83,115.4 -82.9,115.4 -82.7,115.4C-82.3,115.4 -82.2,115.5 -82,115.6C-81.8,115.7 -81.6,115.7 -81.5,115.6C-81.5,115.6 -81.4,115.6 -81.4,115.5L-81.4,115.2C-81.4,115.1 -81.6,115.2 -81.7,115.2C-81.8,115.2 -81.8,115.2 -81.8,115.1C-81.9,115.1 -82,115 -82,114.9C-82,114.9 -81.9,115 -81.8,115C-81.8,114.9 -81.6,114.8 -81.5,114.9C-81.6,114.8 -81.7,114.7 -81.6,114.7L-81.5,114.7C-81.5,114.6 -81.4,114.5 -81.4,114.5L-81.4,114.7L-81.3,114.7C-81.2,114.7 -81.3,114.9 -81.2,114.9C-81.2,114.8 -81.3,114.7 -81.2,114.6L-81.1,114.6C-81.1,114.5 -81,114.5 -80.9,114.5C-80.9,114.5 -81,114.5 -81,114.6L-80.9,114.7C-80.8,114.9 -81,114.9 -81,115C-81,115.1 -80.8,115 -80.8,115.2C-80.8,115.2 -80.8,115.3 -80.9,115.3C-80.8,115.3 -80.8,115.3 -80.7,115.4C-80.9,115.4 -80.8,115.5 -80.8,115.6C-80.7,115.6 -80.7,115.7 -80.7,115.8C-80.8,115.7 -80.9,115.6 -80.9,115.8C-80.9,115.8 -80.9,115.9 -81.1,115.9C-81.4,115.9 -81.6,115.9 -82.1,116C-81.6,116 -80.7,116.1 -80.7,116.4M-86.2,117.2C-86.2,117.2 -86,117.1 -85.9,117.1C-86.1,117.1 -86,117 -86.1,117C-86.2,117 -86.2,117.1 -86.2,117.2M-86.4,117.3C-86.4,117.2 -86.5,117.2 -86.6,117.2C-86.7,117.3 -86.6,117.3 -86.7,117.4C-86.6,117.4 -86.4,117.3 -86.4,117.3M-86.7,116.6C-86.7,116.7 -86.6,116.7 -86.7,116.6C-86.5,116.7 -86.5,116.7 -86.5,116.8C-86.5,116.9 -86.5,116.9 -86.6,116.9C-86.5,116.9 -86.5,116.9 -86.5,117L-86.6,117C-86.6,117 -86.6,117.1 -86.5,117.1L-86.4,117.1L-86.1,117C-86.1,117 -86,117 -86,116.9L-86,116.8C-86,116.8 -86,116.9 -86.1,116.9L-86.1,116.8C-86.2,116.8 -86.2,116.9 -86.3,116.8L-86.3,116.7L-86.3,116.6C-86.3,116.5 -86.4,116.4 -86.5,116.5C-86.8,116.4 -86.8,116.5 -86.7,116.6M-86,115C-86,115 -86,115.1 -86,115" style="fill-rule:nonzero;"/>
    </g>
    <g id="path3253" transform="matrix(0.423676,0,0,-0.423676,67.9874,68.7282)">
        <path d="M-81,113.9C-81,114.2 -81.3,114.3 -82.1,114.3C-82.9,114.3 -85.5,114 -85.5,114.5C-85.5,114.8 -84.6,114.7 -84,114.7C-84,114.7 -83.9,114.6 -83.8,114.6C-82.7,114.3 -81.6,115 -80.8,114.8C-81.4,115.4 -82.2,114.7 -83,114.9C-82.5,114.9 -82,115 -82,115.1C-82.4,114.9 -83.4,115.3 -83.9,115C-83.9,115 -84,115 -84,114.9C-84.8,114.9 -85.8,115 -85.8,114.5C-85.8,113.7 -82.9,114.2 -82.2,114.2C-81.5,114.2 -81.3,114.1 -81.3,114C-81.3,113.8 -82,113.8 -82.4,113.8C-83,113.8 -85.8,114.2 -86.9,113.8C-86.8,114 -86.6,114.3 -86.7,114.4C-86.6,114.4 -86.5,114.5 -86.5,114.6C-86.6,114.7 -86.6,114.7 -86.7,114.7L-86.7,114.8C-86.7,114.8 -86.7,114.9 -86.8,114.9C-86.8,114.9 -86.9,115 -87,115.1C-87.1,115.2 -87.2,115.2 -87.2,115.2L-87.4,115.2C-87.5,115.2 -87.5,115.2 -87.5,115.1C-87.5,115.1 -87.6,115.2 -87.7,115.2C-87.7,115.1 -87.8,115 -87.7,114.9C-87.8,114.9 -87.9,114.6 -88,114.7C-88,114.6 -87.9,114.6 -87.9,114.6C-88,114.5 -88,114.3 -88.1,114.3L-88,114.2L-88,113.9L-88.1,113.9L-88.2,113.9L-88.3,113.9C-88.4,113.9 -88.5,114.1 -88.8,114.3C-89,114.4 -89,114.5 -89,114.6C-89,114.7 -88.9,114.9 -88.9,115L-88.9,115.1C-88.9,115.2 -89.1,115.3 -89.1,115.2L-89,115.1L-89.1,115L-89.1,114.9L-89.1,114.8C-89.1,114.9 -89.2,115.1 -89.3,115.1L-89.4,115.1C-89.4,115.2 -89.5,115.3 -89.6,115.2L-89.5,115.2L-89.5,115.1C-89.5,115 -89.4,115 -89.3,114.9C-89.5,115 -89.6,114.9 -89.6,114.8L-89.6,114.7C-89.7,114.6 -89.7,114.6 -89.6,114.5L-89.6,114.6L-89.3,114.6C-89.4,114.5 -89.4,114.4 -89.2,114.3C-89.2,114.1 -89.5,114.1 -89.5,114.3C-89.7,114 -89.4,113.8 -89.1,114C-89.1,114 -89.1,113.9 -89,113.9L-88.9,113.9C-88.9,113.8 -88.9,113.8 -88.8,113.7L-88.8,113.8C-88.8,113.8 -88.6,113.5 -88.2,113.3C-88.1,113.3 -88,113.3 -88,113.4C-88,113.4 -88,113.3 -87.9,113.3C-87.9,113.1 -87.8,113 -87.8,113L-88.5,113C-88.7,112.9 -89,112.8 -89.2,112.9C-89.2,113 -89.2,113 -89.3,113.1C-89.3,113.2 -89.4,113.2 -89.4,113.2L-89.5,113.2C-89.6,113.3 -89.7,113.3 -89.8,113.2C-89.8,113.2 -89.7,113.2 -89.6,113.1L-89.6,113C-89.6,112.9 -89.6,112.9 -89.4,112.8L-89.5,112.8C-89.6,112.9 -89.6,113 -89.7,112.9L-89.8,112.9C-89.9,112.9 -90.1,112.8 -90,112.6L-89.9,112.7L-89.9,112.6C-89.9,112.5 -89.8,112.4 -89.6,112.5C-89.7,112.4 -89.8,112.3 -89.7,112.2L-89.6,112.2C-89.6,112.1 -89.5,111.9 -89.4,112C-89.4,112 -89.5,112.1 -89.5,112.2L-89.4,112.2C-89.3,112.2 -89.3,112.4 -89.3,112.4C-89.3,112.3 -89.3,112.2 -89.1,112.2C-89,112.2 -88.9,112.3 -88.9,112.4C-88.9,112.4 -88.8,112.3 -88.8,112.2L-88.7,112.3C-88.7,112.2 -88.7,112.1 -88.8,112.1C-88.7,112.1 -88.6,112.2 -88.6,112.3L-88.6,112.2L-88.3,112.2L-88.3,112.1C-88.3,112.1 -88.3,112.2 -88.2,112.2C-88.2,112.2 -88.2,112.1 -88.1,112C-88.1,112.4 -87.6,112.2 -87.4,112.3C-87.4,112.3 -87.4,112.2 -87.5,112.2C-87.4,112.2 -87.3,112.2 -87.2,112.3L-86.8,112.5L-86.8,112.6L-86.7,112.6C-86.5,112.6 -86.5,112.8 -86.4,112.8C-85,112.6 -85.8,113.4 -84.2,113.2C-84.1,113.2 -84.1,113.2 -84,113.3C-84.1,113.1 -84.1,112.9 -83.9,112.9C-83.8,112.9 -83.7,112.8 -83.6,112.8C-83.7,112.8 -83.8,112.8 -83.8,112.7C-84.1,112.5 -84.1,113.1 -84.3,113C-84.3,113 -84.4,113 -84.4,112.9C-84.5,112.9 -84.7,112.8 -84.6,112.7C-84.6,112.7 -84.5,112.8 -84.4,112.8L-84.4,112.7C-84.4,112.7 -84.4,112.6 -84.3,112.6L-84.2,112.6C-84.2,112.5 -84.5,112.7 -84.5,112.4L-84.5,112.3C-84.5,112.2 -84.4,112.1 -84.3,112.2L-84.4,112.3L-84.3,112.3L-84.3,112.2L-84.3,112.1C-84.3,112 -84.2,111.9 -84,112C-84,112 -84.1,112 -84.1,112.1L-84,112.1L-84,112.2L-83.8,112.2C-83.8,112.1 -83.7,112.1 -83.6,112.1C-83.4,112.2 -83.6,112.3 -83.4,112.4L-82.9,112.4C-82.9,112.5 -82.9,112.7 -83,112.8C-83.1,112.8 -83,113 -83.1,113.1C-82.9,113 -82.8,113 -82.6,113C-82.2,113 -82.1,113.1 -82,113.2C-81.8,113.3 -81.6,113.3 -81.5,113.2C-81.5,113.2 -81.4,113.2 -81.4,113.1L-81.4,112.8C-81.4,112.7 -81.6,112.8 -81.7,112.8C-81.8,112.8 -81.8,112.8 -81.8,112.7C-81.9,112.7 -82,112.6 -82,112.5C-82,112.5 -81.9,112.6 -81.8,112.6C-81.8,112.5 -81.6,112.4 -81.6,112.5C-81.7,112.4 -81.8,112.3 -81.7,112.3L-81.6,112.3C-81.6,112.2 -81.5,112.1 -81.5,112.1L-81.5,112.3L-81.4,112.3C-81.3,112.3 -81.4,112.5 -81.3,112.5L-81.3,112.3L-81.2,112.3C-81.2,112.2 -81.1,112.2 -81,112.2C-81,112.2 -81.1,112.2 -81.1,112.3L-81,112.4C-80.9,112.6 -81.1,112.6 -81.1,112.7C-81.1,112.8 -80.9,112.7 -80.9,112.9C-80.9,112.9 -80.9,113 -81,113C-80.9,113 -80.9,113 -80.9,113.1C-81.1,113.1 -81,113.2 -81,113.3C-81,113.3 -80.9,113.4 -80.9,113.5C-80.9,113.4 -81.1,113.3 -81.1,113.5C-81.1,113.5 -81.1,113.6 -81.3,113.6C-81.6,113.6 -81.7,113.6 -82.2,113.7C-81.8,113.5 -81,113.6 -81,113.9M-87.1,114.6C-87.1,114.6 -86.9,114.5 -86.8,114.5C-86.9,114.5 -86.9,114.4 -87,114.4C-87.1,114.4 -87.1,114.5 -87.1,114.6M-87.3,114.7C-87.3,114.6 -87.4,114.6 -87.5,114.6C-87.6,114.7 -87.5,114.7 -87.6,114.8C-87.5,114.8 -87.3,114.7 -87.3,114.7M-87.6,114C-87.6,114.1 -87.6,114.1 -87.6,114C-87.4,114.1 -87.4,114.1 -87.4,114.2C-87.4,114.3 -87.4,114.3 -87.5,114.3C-87.4,114.3 -87.4,114.3 -87.4,114.4L-87.5,114.4L-87.4,114.5L-87.3,114.5L-87,114.4C-87,114.4 -86.9,114.4 -86.9,114.3L-86.9,114.2C-86.9,114.2 -86.9,114.3 -87,114.3L-87,114.2L-87.2,114.2L-87.2,114.1L-87.2,114C-87.2,113.9 -87.3,113.9 -87.4,113.9C-87.6,113.9 -87.6,114 -87.6,114" style="fill-rule:nonzero;"/>
    </g>
    <g id="path3257" transform="matrix(0.423676,0,0,-0.423676,69.7095,69.6605)">
        <path d="M-73.1,109.7C-73,109.8 -73,109.8 -73,110C-73.1,109.9 -73.2,109.8 -73.2,110C-73.2,110 -73.2,110.1 -73.4,110.1C-73.7,110.1 -73.9,110.1 -74.4,110.2C-74.4,110.2 -74.5,110.2 -74.4,110.2C-73.9,110.2 -73,110.3 -73,110.6C-73,110.9 -73.3,111 -74.1,111C-74.9,111 -77.5,110.7 -77.5,111.2C-77.5,111.5 -76.6,111.4 -76,111.4C-76,111.4 -75.9,111.3 -75.8,111.3C-74.7,111 -73.5,111.8 -72.8,111.6C-73.6,111.9 -74.2,111.4 -75,111.6C-74.5,111.6 -74,111.7 -74,111.8C-74.4,111.6 -75.4,112 -75.9,111.7C-75.9,111.7 -76,111.7 -76,111.6C-76.8,111.6 -77.8,111.7 -77.8,111.2C-77.8,110.4 -74.9,110.9 -74.2,110.9C-73.5,110.9 -73.3,110.8 -73.3,110.7C-73.3,110.5 -74,110.4 -74.4,110.4C-75.1,110.4 -77.8,110.8 -78.9,110.4C-78.8,110.6 -78.6,110.9 -78.7,111C-78.6,111 -78.5,111.1 -78.5,111.2C-78.6,111.3 -78.6,111.3 -78.7,111.3L-78.7,111.4C-78.7,111.4 -78.7,111.5 -78.8,111.5C-78.8,111.5 -78.9,111.6 -79,111.7C-79.1,111.8 -79.2,111.8 -79.2,111.8L-79.3,111.8C-79.4,111.8 -79.4,111.8 -79.4,111.7C-79.5,111.7 -79.5,111.8 -79.6,111.8C-79.6,111.7 -79.7,111.6 -79.6,111.5C-79.7,111.5 -79.8,111.2 -79.9,111.3C-79.9,111.2 -79.8,111.2 -79.8,111.2C-79.9,111.1 -79.9,110.9 -80,110.9L-79.9,110.8L-79.9,110.6L-80,110.6L-80.1,110.6L-80.2,110.6C-80.3,110.6 -80.4,110.8 -80.7,111C-80.9,111.1 -80.9,111.2 -80.9,111.3C-80.9,111.4 -80.8,111.6 -80.8,111.7L-80.8,111.8C-80.8,111.9 -80.9,112 -81,111.9L-80.9,111.8L-81,111.7L-81,111.6L-81,111.5C-81,111.6 -81.1,111.7 -81.2,111.8L-81.3,111.8C-81.3,111.9 -81.4,112 -81.5,111.9L-81.4,111.9L-81.4,111.8C-81.4,111.7 -81.3,111.6 -81.2,111.6C-81.4,111.7 -81.5,111.6 -81.5,111.5L-81.5,111.4C-81.6,111.4 -81.6,111.3 -81.5,111.2L-81.5,111.3L-81.2,111.3C-81.3,111.2 -81.3,111 -81.1,111C-81.1,110.8 -81.4,110.8 -81.4,111C-81.6,110.7 -81.3,110.5 -81,110.7C-81,110.7 -81,110.6 -80.9,110.6L-80.8,110.6C-80.8,110.5 -80.8,110.5 -80.7,110.4L-80.7,110.5C-80.7,110.5 -80.5,110.2 -80.2,110C-80.2,110 -80.1,110.1 -80,110.1C-80,110 -79.9,110 -79.9,109.9L-79.8,109.9C-79.8,109.7 -79.6,109.6 -79.7,109.6L-80.2,109.6C-80.4,109.5 -80.7,109.4 -80.9,109.5C-80.9,109.6 -80.9,109.6 -81,109.7C-81,109.8 -81.1,109.8 -81.1,109.8L-81.2,109.8C-81.3,109.9 -81.4,109.9 -81.5,109.8C-81.5,109.8 -81.4,109.8 -81.4,109.7L-81.4,109.6C-81.4,109.5 -81.4,109.5 -81.2,109.4L-81.3,109.4C-81.4,109.5 -81.4,109.6 -81.5,109.5L-81.6,109.5C-81.7,109.5 -81.9,109.4 -81.8,109.2L-81.7,109.3L-81.7,109.2C-81.7,109.1 -81.6,109 -81.4,109.1C-81.5,109 -81.6,108.9 -81.5,108.8L-81.4,108.8C-81.4,108.7 -81.3,108.6 -81.2,108.6C-81.2,108.6 -81.3,108.7 -81.3,108.8L-81.2,108.8C-81.1,108.8 -81.1,109 -81.1,109C-81.1,108.9 -81.1,108.8 -80.9,108.8C-80.8,108.8 -80.7,108.9 -80.7,109C-80.7,109 -80.6,108.9 -80.6,108.8L-80.5,108.9C-80.5,108.8 -80.5,108.7 -80.6,108.6C-80.5,108.6 -80.4,108.7 -80.4,108.9C-80.4,108.9 -80.4,108.8 -80.3,108.8L-80,108.8L-80,108.7C-80,108.7 -80,108.8 -79.9,108.8C-79.9,108.8 -79.9,108.7 -79.8,108.6C-79.8,109 -79.6,108.8 -79.3,109C-79.3,109 -79.3,108.9 -79.4,108.9C-79.3,108.8 -79,109 -79,109.2C-79,109.2 -78.9,109.2 -78.8,109.3C-78.6,109.3 -78.6,109.5 -78.5,109.5C-77.1,109.3 -77.9,110.1 -76.3,109.9C-76.2,109.9 -76.2,110 -76.1,110.1C-76.2,109.9 -76.2,109.6 -76,109.6C-75.9,109.6 -75.8,109.5 -75.7,109.5C-75.8,109.5 -75.9,109.5 -75.9,109.4C-76.1,109.2 -76.2,109.8 -76.4,109.7C-76.4,109.7 -76.5,109.7 -76.5,109.6C-76.6,109.6 -76.7,109.5 -76.7,109.4C-76.7,109.4 -76.6,109.5 -76.5,109.5L-76.5,109.4C-76.5,109.4 -76.5,109.3 -76.4,109.3L-76.3,109.3C-76.3,109.2 -76.6,109.4 -76.6,109.1C-76.6,109.1 -76.6,109 -76.5,109C-76.5,108.9 -76.4,108.8 -76.3,108.9L-76.4,109L-76.3,109L-76.3,108.9L-76.3,108.8C-76.3,108.7 -76.2,108.6 -76,108.7C-76,108.7 -76.1,108.7 -76.1,108.8L-76,108.8L-76,108.9L-75.9,108.9C-75.9,108.8 -75.8,108.8 -75.7,108.8C-75.5,108.9 -75.7,109 -75.5,109L-75,109C-75,109.1 -75,109.3 -75.1,109.4C-75.2,109.4 -75.1,109.6 -75.2,109.7C-75,109.6 -74.9,109.6 -74.7,109.6C-74.3,109.6 -74.2,109.7 -74,109.8C-73.8,109.9 -73.6,109.9 -73.5,109.8C-73.5,109.8 -73.4,109.8 -73.4,109.7C-73.5,109.5 -73.4,109.5 -73.4,109.4C-73.4,109.3 -73.6,109.4 -73.7,109.4C-73.8,109.4 -73.8,109.4 -73.8,109.3C-73.9,109.3 -74,109.2 -74,109.1C-74,109.1 -73.9,109.2 -73.8,109.2C-73.8,109.1 -73.7,109 -73.6,109.1C-73.7,109 -73.8,108.9 -73.7,108.9L-73.6,108.9C-73.6,108.8 -73.6,108.7 -73.5,108.7L-73.5,108.9L-73.4,108.9C-73.3,108.9 -73.3,109.1 -73.2,109.1C-73.2,109 -73.3,108.9 -73.2,108.9L-73.1,108.9C-73.1,108.8 -73,108.8 -72.9,108.8C-72.9,108.8 -73,108.8 -73,108.9L-72.9,109C-72.8,109.2 -73,109.2 -73,109.3C-73,109.4 -72.8,109.3 -72.8,109.5C-72.8,109.5 -72.8,109.6 -72.9,109.6C-72.8,109.6 -72.8,109.6 -72.7,109.7C-73.2,109.4 -73.1,109.6 -73.1,109.7M-79.2,111.2C-79.2,111.2 -79,111.1 -78.9,111.1L-79,111C-79.1,111 -79.2,111.1 -79.2,111.2M-79.4,111.3C-79.4,111.2 -79.5,111.2 -79.6,111.2C-79.7,111.3 -79.6,111.3 -79.7,111.4C-79.6,111.4 -79.4,111.3 -79.4,111.3M-79.7,110.6C-79.7,110.7 -79.6,110.7 -79.7,110.6C-79.5,110.7 -79.5,110.7 -79.5,110.8C-79.5,110.9 -79.5,110.9 -79.6,110.9C-79.5,110.9 -79.5,110.9 -79.5,111L-79.6,111L-79.6,111.1L-79.5,111.1L-79.2,111L-79.2,110.9L-79.2,110.8C-79.2,110.8 -79.2,110.9 -79.3,110.9L-79.3,110.8C-79.4,110.8 -79.4,110.9 -79.5,110.8L-79.5,110.7L-79.5,110.6C-79.5,110.5 -79.6,110.5 -79.7,110.6C-79.7,110.5 -79.7,110.6 -79.7,110.6" style="fill-rule:nonzero;"/>
    </g>
    <g id="path3261" transform="matrix(0.423676,0,0,-0.423676,69.1662,69.9652)">
        <path d="M-75.6,108.3C-75.6,108.2 -75.5,108.2 -75.4,108.2C-74.4,107.9 -73.2,108.7 -72.6,108.5C-73.4,108.8 -73.9,108.3 -74.7,108.5C-74.2,108.5 -73.8,108.6 -73.7,108.7C-74.1,108.5 -75,108.8 -75.5,108.6L-75.6,108.6C-76.2,108.6 -76.6,108.6 -76.6,108.2C-76.6,107.4 -74.5,107.9 -73.8,107.9C-73.1,107.9 -73.2,107.8 -73.2,107.7C-73.2,107.5 -74,107.5 -74.3,107.5C-74.9,107.5 -76.6,107.8 -77.7,107.6C-77.6,107.8 -77.4,108 -77.5,108.1C-77.4,108.1 -77.3,108.2 -77.3,108.3C-77.4,108.4 -77.4,108.4 -77.5,108.4L-77.5,108.5C-77.5,108.5 -77.5,108.6 -77.6,108.6C-77.6,108.6 -77.7,108.7 -77.8,108.8C-77.9,108.9 -78,108.9 -78,108.9L-78.1,108.9C-78.2,108.9 -78.2,108.9 -78.2,108.8C-78.2,108.8 -78.3,108.9 -78.4,108.9C-78.4,108.8 -78.5,108.7 -78.4,108.6C-78.5,108.6 -78.6,108.4 -78.7,108.4C-78.7,108.3 -78.6,108.3 -78.6,108.3C-78.7,108.2 -78.7,108 -78.8,108L-78.7,107.9C-78.7,107.8 -78.7,107.7 -78.8,107.6L-78.9,107.6C-79,107.6 -79.1,107.6 -79.3,107.7C-79.5,107.8 -79.5,107.9 -79.5,108C-79.5,108.1 -79.4,108.3 -79.4,108.4L-79.4,108.5C-79.4,108.6 -79.5,108.7 -79.6,108.6L-79.5,108.5L-79.6,108.4L-79.6,108.3L-79.6,108.2C-79.6,108.3 -79.7,108.4 -79.8,108.4L-79.9,108.4C-79.9,108.5 -80,108.6 -80.1,108.5L-80,108.5L-80,108.4C-80,108.3 -79.9,108.3 -79.8,108.3C-80,108.4 -80.1,108.3 -80.1,108.2L-80.1,108.1C-80.2,108.1 -80.2,108 -80.1,107.9L-80.1,108L-79.9,108C-80,107.9 -80,107.8 -79.8,107.7C-79.8,107.5 -80.1,107.5 -80.1,107.7C-80.3,107.4 -80,107.2 -79.7,107.4C-79.7,107.4 -79.7,107.3 -79.6,107.3C-79.6,107.2 -79.6,107.2 -79.5,107.2L-79.5,107.3C-79.5,107.3 -79.5,107.4 -79.2,107.2C-79.2,107.2 -79.2,107.1 -79.1,107.1L-78.9,107.1L-78.9,106.7L-79.4,106.7C-79.5,106.6 -79.9,106.5 -80,106.6C-80,106.7 -80,106.7 -80.1,106.8C-80.1,106.9 -80.2,106.9 -80.2,106.9L-80.3,106.9C-80.4,107 -80.5,107 -80.6,106.9C-80.6,106.9 -80.5,106.9 -80.5,106.8L-80.5,106.7C-80.5,106.7 -80.5,106.6 -80.3,106.5L-80.4,106.5C-80.5,106.6 -80.5,106.7 -80.6,106.6L-80.7,106.6C-80.8,106.6 -81,106.5 -80.9,106.4C-80.9,106.4 -80.9,106.5 -80.8,106.5L-80.8,106.4C-80.8,106.3 -80.7,106.2 -80.5,106.4C-80.6,106.3 -80.7,106.2 -80.6,106.1L-80.5,106.1C-80.5,106 -80.4,105.9 -80.3,105.9C-80.3,105.9 -80.4,106 -80.4,106.1L-80.3,106.1C-80.2,106.1 -80.2,106.3 -80.2,106.3C-80.2,106.2 -80.2,106.1 -80,106.1C-79.9,106.1 -79.8,106.2 -79.8,106.3C-79.8,106.3 -79.7,106.2 -79.7,106.1L-79.6,106.2C-79.6,106.1 -79.6,106 -79.7,106C-79.6,106 -79.5,106.1 -79.5,106.2C-79.5,106.2 -79.5,106.1 -79.4,106.1L-79.1,106.1L-79.1,106C-79.1,106 -79.1,106.1 -79,106.1C-79,106.1 -79,106 -78.9,105.9C-78.9,106.3 -78.6,106.2 -78.4,106.3C-78.4,106.3 -78.4,106.2 -78.5,106.2C-78.3,106.1 -78,106.4 -77.9,106.6L-77.8,106.7L-77.8,106.6C-77.6,106.6 -77.6,106.8 -77.5,106.8C-76.8,106.7 -77.3,107.4 -76.2,107.2C-76.1,107.2 -76,107.3 -75.9,107.3C-76,107.2 -76,106.8 -75.8,106.8C-75.7,106.8 -75.6,106.7 -75.5,106.7C-75.6,106.7 -75.7,106.7 -75.7,106.6C-75.9,106.4 -75.9,107 -76.2,106.9L-76.3,106.9C-76.4,106.9 -76.5,106.8 -76.5,106.7C-76.5,106.7 -76.4,106.8 -76.3,106.8L-76.3,106.7C-76.3,106.7 -76.3,106.6 -76.2,106.6L-76.1,106.6C-76.1,106.5 -76.4,106.7 -76.4,106.4L-76.4,106.3C-76.4,106.2 -76.3,106.1 -76.2,106.2L-76.3,106.3L-76.2,106.3L-76.2,106.2L-76.2,106.1C-76.2,106 -76.1,105.9 -75.9,106C-75.9,106 -76,106 -76,106.1L-75.9,106.1L-75.9,106.2L-75.8,106.2C-75.8,106.1 -75.7,106.1 -75.6,106.1C-75.4,106.2 -75.6,106.3 -75.4,106.3L-74.9,106.3C-74.9,106.4 -74.9,106.6 -75,106.7C-75.1,106.7 -75,106.8 -75.1,107C-75,106.9 -74.8,106.9 -74.6,106.9C-74.2,106.9 -74.1,106.9 -73.9,107C-73.7,107.1 -73.5,107.1 -73.4,107C-73.4,107 -73.3,107 -73.4,106.9C-73.5,106.7 -73.4,106.7 -73.5,106.6C-73.6,106.5 -73.7,106.6 -73.8,106.6L-73.9,106.6C-74,106.6 -74.1,106.5 -74.1,106.4C-74.1,106.4 -74,106.5 -73.9,106.5C-73.9,106.4 -73.8,106.3 -73.7,106.4C-73.8,106.3 -74,106.2 -73.9,106.2L-73.8,106.2C-73.8,106.1 -73.8,106 -73.7,106C-73.7,106 -73.7,106.1 -73.6,106.2L-73.5,106.2C-73.4,106.2 -73.4,106.4 -73.3,106.4C-73.4,106.3 -73.4,106.2 -73.3,106.2L-73.2,106.2C-73.2,106.1 -73.1,106.1 -73,106.1C-73,106.1 -73.1,106.1 -73.1,106.2L-73,106.3C-72.9,106.5 -73.1,106.5 -73,106.6C-73,106.7 -72.8,106.6 -72.7,106.8C-72.7,106.8 -72.7,106.9 -72.8,106.9C-72.7,106.9 -72.7,106.9 -72.6,107C-72.7,107 -72.7,107.1 -72.7,107.2C-72.6,107.2 -72.6,107.3 -72.6,107.4C-72.7,107.3 -72.8,107.3 -72.8,107.4C-72.8,107.4 -72.8,107.5 -72.9,107.5C-73.1,107.5 -73.5,107.5 -73.9,107.6C-73.4,107.6 -72.5,107.7 -72.5,108C-72.5,108.2 -72.5,108.4 -73.3,108.4C-74.1,108.4 -75.9,108.1 -75.9,108.6C-76.4,108.3 -76,108.3 -75.6,108.3M-78.2,108.3C-78.2,108.2 -78.3,108.2 -78.4,108.2C-78.5,108.3 -78.4,108.3 -78.5,108.4C-78.4,108.4 -78.3,108.3 -78.2,108.3M-78,107.8C-78.1,107.8 -78.1,107.9 -78,107.8C-78.2,107.9 -78.1,107.9 -78,107.8L-78.2,107.8L-78.2,107.7L-78.2,107.6C-78.2,107.6 -78.3,107.5 -78.4,107.5C-78.5,107.5 -78.5,107.6 -78.5,107.7C-78.5,107.8 -78.4,107.8 -78.4,107.8C-78.3,107.8 -78.3,107.8 -78.3,107.9C-78.3,108 -78.3,108 -78.4,108C-78.3,108 -78.3,108 -78.3,108.1L-78.4,108.1L-78.4,108.2L-78.3,108.2L-78,108.1L-78,107.8C-78,107.9 -78,107.9 -78,107.8M-77.9,108C-78,108 -78,108.1 -78,108.2C-78,108.2 -77.8,108.1 -77.7,108.1C-77.8,108.1 -77.8,108 -77.9,108" style="fill-rule:nonzero;"/>
    </g>
    <g id="path3265" transform="matrix(0.423676,0,0,-0.423676,69.0445,70.4998)">
        <path d="M-76.2,105.8C-76.2,105.7 -76.1,105.7 -76,105.7C-75,105.4 -73.8,106.2 -73.2,106C-74,106.3 -74.5,105.8 -75.3,106C-74.8,106 -74.4,106.1 -74.3,106.2C-74.7,106 -75.6,106.4 -76.1,106.1C-76.1,106.1 -76.2,106.1 -76.2,106C-76.5,105.9 -76.8,105.8 -76.8,105.5C-76.8,104.8 -74.2,105.4 -74.2,105.1C-74.2,104.9 -74.7,104.7 -75.4,104.7C-75.9,104.7 -76.8,105 -78,104.8C-77.9,105 -77.7,105.3 -77.8,105.4C-77.7,105.4 -77.6,105.5 -77.6,105.6C-77.7,105.7 -77.7,105.7 -77.8,105.7L-77.8,105.8C-77.8,105.8 -77.8,105.9 -77.9,105.9C-77.9,105.9 -78,106 -78.1,106C-78.2,106.1 -78.3,106 -78.3,106.1L-78.4,106.1C-78.4,106.1 -78.5,106.1 -78.5,106C-78.5,106 -78.6,106.1 -78.7,106.1C-78.7,106 -78.8,105.9 -78.7,105.8C-78.8,105.8 -78.9,105.6 -79,105.6C-79,105.5 -78.9,105.5 -78.9,105.5C-79,105.4 -79,105.2 -79.1,105.2L-79,105.1C-79,104.9 -79.1,104.6 -79,104.5C-79.2,104.7 -79.4,105 -79.6,105.1C-79.8,105.2 -79.8,105.3 -79.8,105.4C-79.8,105.5 -79.7,105.6 -79.7,105.8L-79.7,105.9C-79.7,106 -79.8,106 -79.9,106L-79.8,105.9L-79.9,105.8L-79.9,105.7L-79.9,105.6C-79.9,105.7 -80,105.8 -80.1,105.8L-80.2,105.8C-80.2,105.9 -80.3,106 -80.4,105.9L-80.3,105.9L-80.3,105.8C-80.3,105.7 -80.2,105.7 -80.1,105.7C-80.3,105.8 -80.3,105.7 -80.4,105.6L-80.4,105.5C-80.5,105.5 -80.5,105.4 -80.4,105.3L-80.4,105.4L-80.2,105.4C-80.3,105.3 -80.3,105.2 -80.1,105.2C-80.1,105 -80.4,105 -80.4,105.2C-80.6,105 -80.3,104.8 -80.1,104.9C-80.1,104.9 -80.1,104.8 -80,104.8C-80,104.7 -80,104.7 -79.9,104.7L-79.9,104.8C-79.9,104.8 -79.9,104.5 -79.6,104.3C-79.5,104.1 -79.4,104 -79.2,104C-79.1,103.9 -79.1,103.8 -79.1,103.8L-79.6,103.8C-79.7,103.8 -79.8,103.7 -79.9,103.7C-80,103.7 -80.1,103.7 -80.2,103.8C-80.2,103.8 -80.2,103.9 -80.3,104C-80.3,104.1 -80.4,104.1 -80.4,104.1L-80.5,104.1C-80.6,104.2 -80.7,104.2 -80.7,104.1C-80.7,104.1 -80.6,104.1 -80.6,104L-80.6,103.9C-80.6,103.9 -80.6,103.8 -80.4,103.7L-80.5,103.7C-80.6,103.8 -80.6,103.9 -80.7,103.8L-80.8,103.8C-80.9,103.8 -81,103.7 -81,103.6C-81,103.6 -81,103.7 -80.9,103.7L-80.9,103.6C-80.9,103.5 -80.8,103.4 -80.6,103.6C-80.7,103.5 -80.8,103.4 -80.7,103.3C-80.7,103.2 -80.6,103.1 -80.5,103.1C-80.5,103.1 -80.6,103.2 -80.6,103.3L-80.5,103.3C-80.4,103.3 -80.4,103.5 -80.4,103.5C-80.4,103.4 -80.4,103.3 -80.2,103.3C-80.1,103.3 -80,103.4 -80,103.5L-79.9,103.4C-79.9,103.4 -79.8,103.4 -79.8,103.5C-79.8,103.4 -79.8,103.4 -79.9,103.3C-79.9,103.3 -79.7,103.4 -79.7,103.5L-79.7,103.4L-79.4,103.4L-79.4,103.3C-79.4,103.3 -79.4,103.4 -79.3,103.4C-79.3,103.4 -79.3,103.3 -79.2,103.2C-79.2,103.5 -79,103.4 -78.8,103.5C-78.8,103.5 -78.8,103.4 -78.9,103.4C-78.8,103.4 -78.6,103.5 -78.6,103.6C-78.6,103.6 -78.4,103.8 -78.4,104.2L-78.3,104.2C-78,104.2 -77.9,104.4 -77.6,104.4C-77.7,104.3 -77.7,104.1 -77.7,104C-77.7,103.9 -77.5,103.7 -77.4,103.6C-77.5,103.6 -77.6,103.6 -77.6,103.5C-77.8,103.4 -77.8,103.8 -78.1,103.7L-78.2,103.6C-78.3,103.6 -78.4,103.5 -78.4,103.4C-78.4,103.4 -78.3,103.5 -78.2,103.5C-78.2,103.5 -78.2,103.4 -78.1,103.4L-78,103.4C-78,103.3 -78.3,103.5 -78.2,103.2L-78.2,103.1C-78.2,103 -78.1,102.9 -78,103L-78.1,103.1L-78,103.1L-78,103L-78,102.9C-78,102.8 -77.9,102.7 -77.7,102.8C-77.7,102.8 -77.8,102.8 -77.8,102.9L-77.7,102.9L-77.7,103L-77.6,103C-77.6,103 -77.5,102.9 -77.4,102.9C-77.2,103 -77.4,103.1 -77.2,103.1L-77.1,103.1C-77,103.1 -76.9,103 -76.8,103.1C-76.8,103.2 -76.8,103.4 -76.9,103.5C-77,103.5 -76.8,104 -77.2,104.3C-77,104.3 -76.4,104.2 -76.3,104.3C-76.1,104.3 -75.9,104.1 -75.9,104.1L-75.9,104C-76.1,103.9 -76,103.9 -76.1,103.8C-76.1,103.8 -76.2,103.9 -76.3,104L-76.4,104C-76.5,104 -76.6,104 -76.6,103.9L-76.4,103.9L-76.4,103.8C-76.5,103.8 -76.7,103.8 -76.6,103.7L-76.6,103.6C-76.7,103.6 -76.7,103.5 -76.6,103.4C-76.6,103.4 -76.6,103.5 -76.5,103.5L-76.5,103.4C-76.5,103.4 -76.4,103.5 -76.3,103.5C-76.4,103.5 -76.5,103.4 -76.4,103.3L-76.4,103.2C-76.4,103.1 -76.4,103 -76.3,103L-76.3,103.1L-76.2,103.1C-76,103.2 -76.1,103.3 -76.1,103.4C-76,103.5 -76,103.3 -75.8,103.4L-75.8,103.5C-75.8,103.5 -75.7,103.4 -75.7,103.5C-75.8,103.6 -75.7,103.6 -75.6,103.7C-75.6,103.7 -75.5,103.7 -75.4,103.8C-75.5,103.8 -75.7,103.9 -75.6,103.9C-75.4,104 -75.4,104.1 -75.5,104.2C-75.6,104.4 -75.9,104.4 -75.9,104.6L-75.6,104.6C-74.7,104.6 -74.1,104.8 -74.2,105.1C-74.2,105.7 -76.9,105.1 -76.9,105.5C-76.5,105.7 -76.4,105.8 -76.2,105.8M-78.1,105.8C-78.1,105.8 -77.9,105.7 -77.8,105.7C-77.9,105.7 -77.9,105.6 -78,105.6C-78.1,105.6 -78.1,105.7 -78.1,105.8M-78.3,105.8C-78.3,105.7 -78.4,105.7 -78.5,105.7C-78.6,105.8 -78.5,105.8 -78.6,105.9C-78.5,105.9 -78.3,105.9 -78.3,105.8M-78.5,105.2C-78.5,105.3 -78.5,105.3 -78.5,105.2C-78.4,105.3 -78.3,105.3 -78.3,105.3C-78.3,105.4 -78.3,105.4 -78.4,105.4C-78.3,105.4 -78.3,105.4 -78.3,105.5L-78.4,105.5L-78.4,105.6L-78.3,105.6L-78.1,105.5L-78.1,105.4L-78.1,105.3C-78.1,105.3 -78.1,105.4 -78.2,105.4L-78.2,105.3L-78.3,105.3L-78.3,105.2L-78.3,105.1C-78.3,105 -78.4,105 -78.5,105C-78.6,105.1 -78.6,105.2 -78.5,105.2" style="fill-rule:nonzero;"/>
    </g>
    <g id="path3269" transform="matrix(0.423676,0,0,-0.423676,62.8346,63.818)">
        <path d="M-104.4,136.2C-104.4,136.6 -104.7,136.8 -105,136.8C-105.4,136.8 -105.6,136.5 -105.6,136.2C-105.6,135.9 -105.3,135.6 -105,135.6C-104.7,135.6 -104.4,135.9 -104.4,136.2" style="fill-rule:nonzero;"/>
    </g>
    <g id="path3273" transform="matrix(0.423676,0,0,-0.423676,62.8022,63.5705)">
        <path d="M-104.6,137.4C-104.6,137.8 -104.9,138 -105.2,138C-105.6,138 -105.8,137.7 -105.8,137.4C-105.8,137.1 -105.5,136.8 -105.2,136.8C-104.8,136.7 -104.6,137 -104.6,137.4" style="fill-rule:nonzero;"/>
    </g>
    <g id="path3277" transform="matrix(0.423676,0,0,-0.423676,62.8549,63.4606)">
        <path d="M-104.3,137.9C-103.9,137.9 -103.7,138.2 -103.7,138.5C-103.7,138.8 -104,139.1 -104.3,139.1C-104.7,139.1 -104.9,138.8 -104.9,138.5C-104.9,138.2 -104.7,137.9 -104.3,137.9" style="fill-rule:nonzero;"/>
    </g>
    <g id="path3281" transform="matrix(0.423676,0,0,-0.423676,63.1023,63.4442)">
        <path d="M-103.2,137.9C-102.8,137.9 -102.6,138.2 -102.6,138.5C-102.6,138.9 -102.9,139.1 -103.2,139.1C-103.6,139.1 -103.8,138.8 -103.8,138.5C-103.8,138.2 -103.5,137.9 -103.2,137.9" style="fill-rule:nonzero;"/>
    </g>
    <g id="path3285" transform="matrix(0.423676,0,0,-0.423676,64.1582,63.2725)">
        <path d="M-98.4,138.7C-98.1,138.5 -97.7,138.5 -97.5,138.7C-97.3,138.9 -97.3,139.4 -97.5,139.6C-97.8,139.9 -98.2,139.9 -98.4,139.6C-98.6,139.4 -98.6,139 -98.4,138.7" style="fill-rule:nonzero;"/>
    </g>
    <g id="path3289" transform="matrix(0.423676,0,0,-0.423676,64.1374,63.0744)">
        <path d="M-98.5,139.6C-98.2,139.8 -98.2,140.3 -98.5,140.5C-98.8,140.7 -99.2,140.8 -99.4,140.5C-99.7,140.3 -99.6,139.8 -99.4,139.6C-99.1,139.4 -98.7,139.4 -98.5,139.6" style="fill-rule:nonzero;"/>
    </g>
    <g id="path3293" transform="matrix(0.423676,0,0,-0.423676,63.8911,63.0342)">
        <path d="M-99.6,139.8C-99.4,140 -99.4,140.5 -99.6,140.7C-99.9,141 -100.3,141 -100.5,140.7C-100.7,140.4 -100.7,140 -100.5,139.8C-100.3,139.5 -99.9,139.5 -99.6,139.8" style="fill-rule:nonzero;"/>
    </g>
    <g id="path3297" transform="matrix(0.423676,0,0,-0.423676,63.6808,63.1904)">
        <path d="M-100.6,139.1C-100.4,139.3 -100.4,139.8 -100.6,140C-100.9,140.2 -101.3,140.2 -101.5,140C-101.7,139.7 -101.7,139.3 -101.5,139.1C-101.2,138.8 -100.8,138.8 -100.6,139.1" style="fill-rule:nonzero;"/>
    </g>
    <g id="path3301" transform="matrix(0.423676,0,0,-0.423676,63.0881,63.0625)">
        <path d="M-103.3,139.7L-102.8,138.6L-102.2,139.4L-102.1,139.4C-102,139 -102,138.4 -102,138C-102,137.5 -101.6,137.2 -101.2,137.2C-100.8,137.2 -100.4,137.6 -100.4,138C-100.4,138.3 -100.6,138.6 -100.8,138.7C-101.1,138.9 -101.5,139.3 -101.7,139.5L-101.7,139.6L-100.6,139.5L-101,140.7L-101.8,140L-101.9,141.2L-103,140.8L-102.3,139.9L-102.3,139.8L-103.3,139.7Z" style="fill-rule:nonzero;"/>
    </g>
    <g id="path3305" transform="matrix(0.423676,0,0,-0.423676,64.1642,63.3517)">
        <path d="M-98.4,138.3C-98.2,137.9 -98.1,137.7 -98,137.4C-98.2,137.5 -98.4,137.7 -98.7,138L-98.6,136.5C-98.4,136.8 -98.3,136.9 -98.1,137C-98.2,136 -98.5,135.6 -98.9,135.6C-99.3,135.5 -99.6,135.8 -99.7,136.1C-99.8,136.5 -99.4,136.8 -99,136.4C-98.9,137.3 -99.7,137.3 -100,136.9C-99.6,137.8 -99.8,138.3 -100.5,138.8C-101,138 -100.8,137.5 -100.2,136.8C-100.8,137.1 -101.3,136.6 -100.8,135.9C-100.7,136.5 -100.2,136.3 -100.1,135.9C-100,135.5 -100.4,135 -101,134.8C-101.9,134.5 -102.2,135.1 -102.4,135.6C-102.2,135.7 -101.7,135.7 -101.2,135.3L-101.6,136.8C-101.8,136.3 -102.1,136.1 -102.5,135.9C-102.5,136.3 -102.2,137.2 -102.2,137.2L-104,136.5C-104,136.5 -103.2,136.1 -102.9,135.8C-103.3,135.7 -103.6,135.6 -104.1,135.8L-103.4,134.4C-103.3,135 -103,135.4 -102.7,135.4C-102.5,134.9 -102.3,134.3 -103.2,133.8C-103.8,133.5 -104.4,133.6 -104.6,133.9C-104.8,134.3 -104.6,134.8 -104.1,134.4C-104.2,135.2 -104.9,135.2 -105.1,134.6C-105.1,135.5 -105.3,136 -106.2,136.2C-106.4,135.3 -106.1,134.8 -105.3,134.5C-105.8,134.6 -106.3,134.1 -105.6,133.5C-105.6,134 -105.1,134.1 -104.9,133.7C-104.7,133.4 -104.8,133 -105.1,132.8C-105.4,132.6 -105.9,132.6 -106.7,133.3C-106.5,133.4 -106.3,133.4 -105.9,133.3L-106.8,134.5C-106.7,134.1 -106.8,133.8 -106.9,133.6C-107.1,133.8 -107.2,134 -107.3,134.5L-108,133.9C-107.3,133.5 -106.5,132.8 -105.6,131.5C-104.6,132.1 -102.8,133 -101.7,133.5C-100.6,134 -98.7,134.6 -97.5,134.8C-97.7,136.4 -97.6,137.4 -97.4,138.2L-98.4,138.3Z" style="fill-rule:nonzero;"/>
    </g>
    <g id="path3309" transform="matrix(0.423676,0,0,-0.423676,66.2033,69.2653)">
        <path d="M-89.1,111.5C-88.8,112.2 -90.1,113 -90.3,113.9C-90.5,114.8 -90.3,115.8 -91.5,117.1C-92.6,118.4 -96.4,122.5 -97.6,123.8C-97.3,123.8 -96.6,124 -95.9,123.3C-95.5,122.9 -94.7,122.1 -93.9,121.4C-92.9,124 -91.6,125.9 -89.8,128C-89.6,128.3 -89.3,128.5 -89.1,128.8C-89.8,128.6 -90.8,128.4 -91.4,128C-91.4,129.1 -91.4,130 -92.1,130.8C-91.8,132.4 -92.1,134.3 -95.6,136.6C-93.8,136.2 -92.7,134.5 -91.3,135.8C-92.5,135.8 -92.6,138.5 -97.1,140.8C-95.4,140.8 -94.1,138.1 -92.1,139.6C-94,139.8 -94.6,143.1 -98,144.2C-96.8,144.1 -95.6,143.5 -94.6,144.9C-95.8,144.6 -96.5,145.7 -97.7,145.8C-97.2,147.3 -97.3,148.2 -97.8,149.2C-98.7,149.1 -99.6,148.9 -100.2,148.3C-100.3,149.1 -101.1,149.1 -101.9,149.1C-101.9,148.8 -101.7,148.3 -102.1,148.2C-102.7,148.1 -104.7,147.5 -106.3,146.9C-107.8,146.3 -109.6,145.2 -110.1,144.8C-110.4,144.6 -110.7,145.1 -110.9,145.3C-111.4,144.8 -112,144.2 -111.6,143.6C-112.5,143.5 -113.4,143.3 -114.2,142.7C-114.2,141.7 -113.4,140.7 -112.1,140.2C-114.2,138.1 -112.3,136.2 -114.1,134.4C-111.5,134.3 -112,137.9 -110.7,138.4C-110.8,135.9 -112.2,135.4 -112.2,132.7C-112.2,131.2 -111.3,129.7 -112.1,128.7C-109.9,129.3 -110.5,134.1 -109.2,135.5C-109,134.7 -109.1,133.9 -109.4,133.1C-110.2,130.9 -109.3,127.8 -110.5,126.9C-108.3,127.1 -108,130.6 -106.2,131.9C-107.8,128.7 -109.3,122 -111.7,118.6C-115.4,113.5 -117.7,107.4 -121.1,107.4C-122.6,107.4 -123.8,108.3 -123.8,110.2C-123.8,115.9 -113.9,119.9 -113.9,126C-113.9,128.7 -116.1,129.8 -117.5,129.8C-118.4,129.8 -119.6,129.3 -120.5,128.6C-120.9,128.8 -121.3,128.9 -121.7,128.9C-125.2,128.9 -124.3,122.6 -127.3,122.7C-126.1,122 -124,123.3 -122.8,125.1C-123.3,121 -129.2,122.1 -128.7,117.2C-127.9,121 -118.6,120.5 -118.6,126.3C-118.6,127 -118.9,127.5 -119.4,127.9C-118.7,128.3 -118,128.5 -117.4,128.5C-116.3,128.5 -115.3,127.7 -115.3,126C-115.3,120.9 -125.1,116.5 -125.1,110.2C-125.1,109.1 -124.8,108.2 -124.3,107.6C-125,107.3 -125.7,107.4 -126.3,108.1C-126.4,106.5 -124,105.5 -122.6,106.3C-122.3,106.2 -121.9,106.1 -121.6,106.1C-122,104.9 -123.5,104.5 -124.3,104.6C-121.9,102.7 -117.7,105.2 -117.9,107.3C-116,108.8 -114.8,111.5 -113.4,113.2C-113.5,112.8 -113.6,112.4 -113.6,112C-115,109.4 -116.3,107.2 -116.7,103.8C-117,101 -118.4,98.4 -120.4,98.4C-120.8,98.4 -121.5,99 -121.9,98.7C-122.5,98.2 -121.9,97.6 -121.9,97.1C-121.9,96.3 -123.4,95.5 -123.4,93C-123.4,91.9 -122.8,90.6 -123,89.8C-122.4,90.1 -121.5,91.2 -121.2,92.5C-120.5,89.2 -122.6,89.4 -121.1,86.5C-120.9,87.5 -120,87.9 -119.4,87.5C-118.8,87.1 -119.1,86.8 -119.5,86.4C-119.9,86 -120.3,83.8 -118.4,83.9C-118.8,84.1 -118.8,84.7 -117.8,84.9C-116.4,85.2 -116,84.5 -114.6,84.5C-113.7,84.5 -113.5,85.7 -112.7,85.7C-112,85.7 -112,85.1 -112.2,84.7C-111.1,85 -110.8,85.6 -110.8,86.3C-110.8,86.9 -111.3,87.3 -110.9,87.6C-110.5,87.8 -109.2,87.6 -109.7,86.5C-109,86.6 -108.6,87.1 -108.6,88C-108.6,88.8 -109.6,89.3 -110.4,89.2C-110.6,89.7 -111.3,90 -112,90C-113.6,90 -113.4,88.7 -114.5,88.7C-116.3,88.7 -118,91 -118,94.9C-118,97 -115.8,97.5 -114.2,98.2C-112.6,98.9 -109.9,100.6 -108.2,103.4C-106.9,105.6 -106.9,108 -107,110.8C-104.8,109.5 -104.5,107.7 -104.5,106.4C-104.5,104.7 -105.4,104 -106.1,103.7C-106.7,103.4 -106.9,103.5 -107,103.2C-107.1,102.8 -106.8,102.5 -106.5,102.4C-105.7,102 -105.9,101.2 -105.6,100.4C-105.4,99.6 -104.6,98.3 -103.4,97.3C-103.3,97.8 -103.3,98.6 -103.4,99.7C-101.7,98.9 -103.1,95.4 -99.7,95.4C-100.3,95.8 -100.1,96.6 -99.8,96.8C-99.5,97 -99,96.6 -98.4,95.7C-97.8,94.8 -97.9,94.9 -96.4,94.9C-94.8,94.9 -95.5,95.4 -94.7,95.4C-93.9,95.4 -93.9,94.4 -94.4,93.7C-93,94.1 -92.6,95.2 -93.1,96.3C-91.9,97 -91.2,96 -91,95.3C-89.8,96.5 -91,98 -92,98.1C-92,98.5 -92.4,99 -92.9,99.1C-93.4,99.1 -93.9,99.2 -94.5,99.1C-95.1,99.1 -95.4,98.2 -96.1,98.2C-98.2,98.2 -102.3,102 -102.3,103.6C-102.3,105.2 -98.4,106.2 -98.4,108.7C-98.4,112 -101.6,113.1 -104.4,115.2C-103.4,116.3 -100.6,116.6 -99,115.8C-98.8,116.7 -98.2,116.5 -98,118.1C-97.4,116.7 -98,115.5 -97.4,114.9C-96.9,115.6 -95.8,115.5 -95.8,117.2C-95.4,116.1 -96.3,114.5 -95.4,113.7C-95.3,114.6 -94.7,114.8 -94.4,114.8C-94.1,114.8 -93.8,114.6 -93.8,114C-93.8,112.7 -95.4,113.3 -95.4,111.8C-95.4,111.2 -94.6,111 -94.6,110.6C-94.6,110.2 -95.2,109.6 -96,110.1C-95.7,109.5 -95.2,109 -94.5,109C-93.8,109 -93,109.6 -92.7,110.3C-92.3,109.4 -92.6,108.3 -93.3,108.2C-92.6,107.8 -90.9,108.2 -91.1,110.4C-90.1,110.2 -89.6,109.6 -90.2,108.4C-89.4,108.6 -88.7,109 -88.7,109.8C-88.7,110.4 -89.4,110.6 -89.1,111.5M-107.7,141.2C-108.6,141.1 -108.6,142 -110.2,142.4C-109.1,142.6 -107.7,143.2 -106.4,143.7C-106.1,142.6 -106.6,141.3 -107.7,141.2M-101.3,134.5C-102.5,134 -103.4,135 -103.6,135.7C-103.8,136.4 -104,137 -103.7,137.2C-103.2,137.7 -103,138.1 -103.3,138.7C-103.6,139.4 -104.4,139.1 -105.2,138.9C-104.8,139.6 -104.8,140.1 -105.3,140C-105.9,139.9 -105.9,138.9 -106.3,139.1C-106.6,139.2 -106.4,139.8 -106.4,140.1C-106.4,140.5 -106.1,140.7 -105.7,140.9L-102.4,142.2C-102,142.4 -101.7,142.4 -101.4,142.1C-101.2,141.9 -100.6,141.6 -100.8,141.3C-101,141 -101.7,141.7 -102.2,141.3C-102.6,141 -102.3,140.7 -101.5,140.4C-102.2,140 -103,139.7 -102.7,138.9C-102.5,138.3 -102.1,138.1 -101.4,138.1C-101,138.1 -100.8,137.6 -100.4,136.9C-100.2,136.2 -100.1,135 -101.3,134.5M-101.1,143.8C-102,143.1 -103.2,143.7 -103.7,144.7C-102.5,145.2 -101,145.8 -100.1,146.4C-101,145 -100.4,144.4 -101.1,143.8" style="fill-rule:nonzero;"/>
    </g>
    <g id="path3313" transform="matrix(0.423676,0,0,-0.423676,75.2946,71.5573)">
        <path d="M-47.7,101C-47.7,99.5 -46.5,98.2 -44.9,98.2C-43.4,98.2 -42.1,99.4 -42.1,101C-42.1,102.6 -43.3,103.8 -44.9,103.8C-46.5,103.8 -47.7,102.6 -47.7,101M-47,101C-47,102.1 -46.1,103.1 -44.9,103.1C-43.8,103.1 -42.8,102.2 -42.8,101C-42.8,99.8 -43.8,99 -45,99C-46.1,99 -47,99.9 -47,101" style="fill-rule:nonzero;"/>
    </g>
    <g id="path3317" transform="matrix(0.423676,0,0,-0.423676,73.7984,71.9268)">
        <path d="M-54.5,99.4C-54.9,99.1 -55.1,98.8 -55.2,98.4C-55.3,97.9 -55.1,97.4 -54.8,97C-54.5,96.6 -54,96.4 -53.4,96.3C-52.8,96.2 -52.3,96.3 -51.8,96.5C-51.3,96.8 -51,97.2 -50.9,97.7C-50.7,98.7 -51.5,99.6 -52.7,99.8C-53.4,99.8 -54.1,99.7 -54.5,99.4M-53.3,96.9C-54.1,97 -54.6,97.6 -54.5,98.2C-54.4,98.5 -54.3,98.7 -54.1,98.8C-53.8,99 -53.3,99.1 -52.9,99C-52.2,98.9 -51.6,98.4 -51.6,97.8L-51.6,97.7C-51.8,97.1 -52.5,96.7 -53.3,96.9" style="fill-rule:nonzero;"/>
    </g>
    <g id="path3321" transform="matrix(0.423676,0,0,-0.423676,71.5897,66.3004)">
        <path d="M-64.6,124.9C-65.5,124.2 -65.7,123.1 -65.2,122.4C-64.6,121.7 -63.5,121.7 -62.6,122.3C-62.1,122.7 -61.8,123.2 -61.8,123.7C-61.8,124.1 -61.8,124.5 -62.1,124.8C-62.3,125.1 -62.7,125.3 -63.1,125.3C-63.5,125.5 -64.1,125.3 -64.6,124.9M-64.7,123.3C-64.7,123.7 -64.5,124.1 -64.1,124.4C-63.8,124.6 -63.4,124.8 -63.1,124.7C-62.9,124.7 -62.7,124.6 -62.6,124.4C-62.5,124.2 -62.4,124 -62.5,123.8C-62.5,123.5 -62.8,123.1 -63.1,122.9C-63.6,122.5 -64.4,122.5 -64.7,122.9L-64.7,123.3" style="fill-rule:nonzero;"/>
    </g>
    <g id="path3325" transform="matrix(0.423676,0,0,-0.423676,73.3275,71.2604)">
        <path d="M-56.7,102.4C-57.1,102 -57.4,101.4 -57.4,100.7L-57.4,100.6C-57.4,100 -57.2,99.4 -56.8,99C-56.5,98.7 -56.1,98.5 -55.7,98.5C-55.3,98.5 -54.9,98.7 -54.6,99C-54.2,99.4 -53.9,100 -53.9,100.7C-53.9,101.3 -54.1,101.8 -54.4,102.2C-54.7,102.6 -55.2,102.9 -55.7,102.9C-56,102.9 -56.4,102.7 -56.7,102.4M-55.6,99.2C-55.9,99.2 -56.1,99.4 -56.2,99.5C-56.5,99.8 -56.6,100.2 -56.6,100.7C-56.6,101.2 -56.4,101.6 -56.1,101.9C-56,102 -55.7,102.2 -55.5,102.2C-54.9,102.2 -54.4,101.5 -54.5,100.7C-54.5,100.2 -54.7,99.8 -55,99.5C-55.1,99.4 -55.3,99.2 -55.6,99.2" style="fill-rule:nonzero;"/>
    </g>
    <g id="path3329" transform="matrix(0.423676,0,0,-0.423676,71.3651,68.0205)">
        <path d="M-65.6,117.1C-66,117 -66.4,116.7 -66.5,116.3C-66.9,115.4 -66.4,114.3 -65.3,113.8C-64.7,113.5 -64.1,113.5 -63.5,113.7C-63.1,113.8 -62.7,114.1 -62.6,114.5C-62.4,114.9 -62.4,115.3 -62.6,115.7C-62.8,116.2 -63.2,116.7 -63.8,117C-64.4,117.3 -65.1,117.3 -65.6,117.1M-65.1,114.4C-65.8,114.7 -66.2,115.5 -65.9,116C-65.8,116.3 -65.5,116.4 -65.4,116.4C-65,116.5 -64.6,116.5 -64.2,116.3C-63.8,116.1 -63.5,115.8 -63.3,115.4C-63.2,115.2 -63.2,115 -63.3,114.7C-63.4,114.4 -63.7,114.3 -63.8,114.3C-64.2,114.2 -64.6,114.2 -65.1,114.4" style="fill-rule:nonzero;"/>
    </g>
    <g id="path3333" transform="matrix(0.423676,0,0,-0.423676,75.5793,67.6084)">
        <path d="M-46.4,119C-45.5,116.5 -43.7,115.6 -42.3,116.3C-45.4,116.7 -42.9,121.9 -46.8,121.9C-47,121.9 -47.2,121.9 -47.4,121.8C-48.1,122.5 -48.8,122.8 -50,122.8C-51.7,122.8 -54.5,121.2 -54.5,117.9C-54.5,110.8 -46.2,110.1 -46.2,103.8C-46.2,102 -47.6,100.8 -49.2,100.8C-50.6,100.8 -51.7,102.4 -52.9,104.8C-53.5,106 -54.7,107.6 -55.9,109.2C-55.5,108.9 -55.1,108.8 -54.7,108.8C-54.3,108.8 -53.8,108.9 -53.5,109.2C-53.2,109.5 -53,109.9 -53,110.3L-53,110.4C-53,111 -53.2,111.5 -53.7,112C-54.2,112.5 -54.7,112.8 -55.3,112.8C-55.7,112.8 -56.2,112.7 -56.5,112.4C-56.8,112.1 -57,111.7 -57,111.3L-57,111.2C-57,111 -57,110.7 -56.9,110.5C-58.7,112.8 -60.3,115.1 -60.3,116.4C-60.3,117.5 -59.5,118.5 -58.6,119.6L-58.3,119.4L-58.1,119.7C-57.8,120.1 -57.1,120.8 -55.6,122.4L-55.5,122.5L-55.2,122.9L-56.1,123.6C-55.9,124.1 -55.7,124.7 -55.5,125.4C-55.2,124.3 -54.6,123.5 -53.8,123.8C-54.3,125 -53.3,126.6 -54,129.5C-53.3,128.4 -52.3,127.8 -51.6,128C-53.4,129.6 -51.1,131.9 -53.4,135.4C-52.6,135.1 -52.1,135.3 -51.7,135.7C-53.9,136 -52.9,138.8 -56.7,139.8C-55.7,140 -55.2,140.5 -55.3,141C-56.3,140.3 -57.2,142.4 -60.5,142.3C-60.7,143.5 -61.9,144.9 -63.2,145.5C-63,144.5 -63.2,143.7 -63.4,142.9L-74.2,153.5C-74.5,153.8 -74.7,153.9 -74.8,153.8C-74.9,153.7 -74.9,153.5 -74.7,153.3L-65.4,141.6C-66.1,141.4 -66.8,141.1 -67.5,140.8C-68,140.6 -68.3,140.2 -68.3,139.6C-70,138.7 -71.5,137.7 -72.3,137C-72.9,136.5 -73.3,136.4 -72.8,135.2C-72.6,134.8 -73.2,133.7 -71.9,134.5C-71,135 -69,136.1 -68.7,135.4C-68.5,135 -69.5,134.6 -70.2,134.3C-70.9,134 -71.6,133.5 -71.5,133.2C-71.4,132.9 -70.9,133.2 -70.8,132.9C-70.8,132.6 -70.5,132.3 -70.3,132.3C-70,132.3 -69.7,132.9 -69.5,132.7C-69.3,132.5 -69.6,131.2 -69.8,130.9C-68.7,131 -68.1,132 -68,132.8C-68,133.6 -67.8,133.8 -67.6,133.9C-67.4,134 -67.2,133.1 -67.5,132.5C-66.9,132.6 -66.4,133.4 -66.4,134.7C-66.1,134.9 -65.8,135.1 -65.6,135.1C-65.2,135.1 -64.5,134.1 -63.5,134.1C-61.7,134.1 -60.6,135.6 -60.5,136.3C-60.4,136.9 -60.5,137.4 -60.8,137.8C-60.1,137.3 -59.9,136.4 -59.9,135.8C-59.9,133.2 -64.5,132 -66.4,130.2C-66.5,130.1 -66.5,130.1 -66.6,130L-68.8,130.8L-68.9,130.3C-68.9,130.3 -68.9,130.2 -69,129.9C-69.2,129.2 -69.7,127.6 -70,126.7L-70.1,126.3L-69.9,126.2C-71.2,124.5 -72.2,122.6 -72.4,120.6C-72.9,121.1 -73.4,121.6 -74,122C-73.9,122.2 -73.9,122.4 -73.9,122.6C-73.9,123.2 -74,123.7 -74.4,124.1C-74.7,124.4 -75,124.6 -75.4,124.6C-75.8,124.6 -76.1,124.5 -76.5,124.2C-76.6,124.1 -76.6,124.1 -76.7,124C-76.8,124.1 -76.9,124.1 -76.9,124.2C-77.6,124.8 -78.5,125.4 -79,126C-79.2,126.3 -79.5,126.4 -79.9,126.4L-80.9,126.4C-81.2,126.4 -81.4,126.2 -81.8,125.8C-82,125.6 -82.5,125.3 -83,124.8C-82.7,124.5 -82.5,124.3 -82.2,124C-82.1,123.8 -81.9,123.7 -81.8,123.5C-81.7,123.6 -81.5,123.7 -81.4,123.8C-81.2,124 -80.9,124 -80.6,124C-80.3,124 -79.9,123.8 -79.7,123.4C-79.5,123.1 -77.8,120.8 -76.3,119.2C-76.5,119.1 -76.6,119.1 -76.8,119C-77.4,118.7 -78.8,118.8 -79.4,118.8C-80,118.9 -80.1,119 -80.6,118.3C-80.8,118 -81,117.7 -81.2,117.5C-81.4,117.2 -81.6,117 -81.1,116.2C-80.5,115.1 -78.9,112.3 -78.3,111C-77.8,109.7 -77.2,109.5 -76.1,109.1C-75.1,108.7 -73.4,107.7 -73.2,107.5L-73.1,108.5C-73.4,108.8 -74.4,109.2 -74.7,109.3C-75.1,109.4 -75.2,109.6 -74.7,109.6C-74.3,109.6 -73.1,109.2 -72.2,108.8C-72.5,109.8 -73.4,110.8 -73.9,111.4C-74.6,111.6 -75.4,111.6 -75.7,111.4C-75.7,111.2 -75.8,110.9 -76.1,110.9C-76.4,110.9 -76.6,111.1 -76.5,111.4C-76.4,111.7 -76,111.8 -76.1,112.3C-76.2,112.9 -76.9,112.9 -77.3,113C-77.9,113.9 -78.6,115.2 -79,115.7C-79.3,116.2 -79.1,116.5 -78.9,116.7C-78.4,117.1 -77.3,116.5 -75.1,116.3C-74.3,116.3 -73.4,116.2 -72.4,116.2C-72.1,113.6 -71.1,111.2 -67.5,110.3C-65.8,109.9 -64,108.6 -63.4,106.9C-70.5,107 -71.6,104.3 -71.6,101.6C-71.6,98.6 -69.1,98.8 -69.1,96.6C-69.1,94.7 -75.1,93.9 -76.9,93.6C-78.4,93.4 -79.3,93 -80,92.3C-80.7,91.6 -81.5,90.9 -82.8,89.5C-82.8,89.5 -82.2,89.4 -81.7,89.4L-80.7,90.7C-80.4,91.1 -80.2,91.5 -80,91.5C-79.8,91.5 -79.9,91.1 -80.2,90.7L-81,89.3C-77.5,89.1 -77.3,90.4 -77.3,90.9C-77.3,91.4 -78.2,91.8 -77.7,92.1C-77.2,92.4 -76.8,92.2 -76.4,91.7C-76,91.2 -75.9,90.8 -74.9,91.2C-74.9,91.2 -67.3,94.4 -66.3,94.8C-65.4,95.2 -65.7,95.6 -66.2,96C-66.8,96.5 -66.9,97.2 -66.9,98C-66.9,100.3 -65.5,101 -63,101C-63,100.6 -63.1,100.2 -63.1,99.9C-63.1,96.3 -57.6,92.8 -56.2,92.8C-55.5,92.8 -54.7,93.3 -54.6,91.1C-54.6,89.5 -54.2,88.4 -54.5,86.5C-54.8,84.7 -55.3,84.4 -56.4,83.6C-57.5,82.8 -58.6,80.4 -59,79.9C-58.5,79.6 -58,79.5 -57.6,80.7C-57.3,81.7 -56.9,82.4 -56.4,82.6C-56.8,81.5 -57.1,79.9 -57.4,79.4C-56,79.2 -53.7,80.4 -53.7,81.4C-53.7,82.4 -54.5,82.3 -54.5,83C-54.5,83.3 -54.1,83.6 -53.7,83.6C-53.1,83.6 -52.7,83.2 -52.7,82.9C-52.1,83.2 -51.7,83.8 -51.7,85.3C-51.7,85.9 -51.7,86.4 -51.8,87C-51.8,86.9 -51.7,86.8 -51.7,86.8C-51.4,86.4 -51,86.1 -50.4,86.1C-49.9,86.1 -49.3,86.2 -48.9,86.5C-48.4,86.9 -48,87.4 -47.9,88L-47.9,88.4C-47.9,88.7 -48,89 -48.2,89.3C-48.4,89.6 -48.8,89.9 -49.2,90C-49.8,90.1 -50.4,90 -51,89.6C-51.5,89.3 -51.9,88.8 -52,88.3C-52.1,90.3 -52.3,92.1 -52.2,92.9C-52.1,94 -52.1,94.5 -52.4,94.7C-52.8,94.9 -53.2,94.2 -53.7,94.2C-54.2,94.2 -55.8,95.7 -55.8,97.2C-55.8,98.8 -54.1,100.8 -54.2,102.9C-54.2,103.6 -53.8,103.9 -53.5,103.3C-53.2,102.6 -52.7,101.6 -52,100.8C-52.4,98.1 -49.5,95.5 -47.1,97.4C-48.3,97.2 -49.1,98.3 -49.7,99.4C-49.5,99.4 -49.3,99.3 -49,99.3L-48.6,99.3C-47.7,98.2 -45,98.3 -44.3,101C-44.8,100.4 -45.8,100 -46.5,100.1C-45.5,100.9 -44.9,102.2 -44.9,103.6C-44.9,110.4 -53.2,111.2 -53.2,117.4C-53.2,119.7 -51.2,121.2 -49.8,121.2C-49.3,121.2 -48.9,121 -48.5,120.8C-49,120.3 -49.3,119.4 -49.3,118.4C-49.1,113.5 -41.1,113.7 -41,111.4C-40.3,115.3 -46.2,114.2 -46.4,119M-67.7,137.8C-67.3,138.5 -67.7,139.7 -66.3,139.7C-65.6,139.7 -65,139 -64.2,138.8C-65.6,138.6 -66.8,138.3 -67.7,137.8M-75,122.8C-75,122.4 -75.2,122 -75.4,121.8C-75.5,121.7 -75.7,121.6 -75.9,121.6C-76.4,121.6 -76.7,122.2 -76.7,122.8L-76.7,122.9C-76.7,123.3 -76.5,123.7 -76.3,123.9C-76.2,124 -76,124.1 -75.8,124.1C-75.6,124.1 -75.4,123.9 -75.3,123.8C-75.1,123.5 -75,123.2 -75,122.8M-51.4,88.4C-51.3,88.8 -51,89.2 -50.7,89.4C-50.3,89.7 -49.9,89.8 -49.5,89.7C-49.3,89.7 -49.1,89.6 -48.9,89.3C-48.7,89.1 -48.8,88.8 -48.8,88.6C-48.9,88.2 -49.2,87.8 -49.5,87.6C-50.2,87.2 -51,87.2 -51.3,87.7C-51.5,88 -51.4,88.2 -51.4,88.4M-56.4,111.2C-56.4,111.4 -56.3,111.6 -56.1,111.8C-55.9,112 -55.6,112 -55.5,112C-55.1,112 -54.7,111.8 -54.4,111.4C-54.1,111.1 -53.9,110.6 -53.9,110.2C-53.9,110 -54,109.8 -54.2,109.6C-54.4,109.4 -54.7,109.4 -54.8,109.4C-55.2,109.4 -55.6,109.6 -55.9,110C-56.2,110.4 -56.4,110.8 -56.4,111.2M-69.9,126.6C-69.5,127.8 -68.8,130.2 -68.8,130.2L-67.5,129.7C-67.9,129.6 -68.3,129.2 -68.7,128.8C-68.4,128.7 -67.9,128.7 -67.6,128.9L-68.1,127.6C-68.2,127.8 -68.6,128.3 -68.9,128.3C-69.2,127.3 -68.5,126.9 -68.1,126.7C-67.3,126.3 -66.8,126.2 -66.6,126.6C-66.4,127 -66.9,127.6 -67.5,127.4C-67.6,128.1 -67.2,128.4 -66.8,128.4C-66.5,128.4 -66.2,128.1 -66.1,127.7C-66.1,128.8 -65.7,129.6 -64.7,129.9C-64.3,128.9 -64.6,128.2 -65.4,127.4C-65,127.6 -64.5,127.5 -64.3,127.3C-64.1,126.9 -64.1,126.4 -64.7,126.1C-64.8,126.8 -65.6,126.8 -65.9,126.4C-66.1,126 -65.8,125.5 -65.1,125.1C-64.3,124.6 -63.6,124.9 -63.2,125.6C-63.5,125.7 -63.9,125.6 -64.4,125.4L-63.6,127C-63.6,126.8 -63.4,126.4 -63.1,126.1C-63,126.5 -62.8,127.1 -63.1,127.6L-61.3,126.6C-61.9,126.5 -62.4,126.1 -62.6,125.8C-62.2,125.6 -61.8,125.7 -61.5,125.8L-62.4,124.3C-62.4,124.8 -62.6,125.2 -62.8,125.4C-63.2,124.7 -63.1,124 -62.3,123.5C-61.6,123.1 -61.1,123 -60.8,123.4C-60.5,123.8 -61,124.5 -61.6,124.3C-61.6,125 -61.2,125.3 -60.8,125.3C-60.4,125.3 -60.2,124.9 -60.1,124.4C-59.8,125.5 -59.4,126.1 -58.3,126.3C-58.1,125.3 -58.6,124.5 -59.5,124C-59.1,124.1 -58.7,124.1 -58.5,123.8C-58.3,123.4 -58.4,122.9 -59,122.7C-59.1,123.4 -59.9,123.5 -60.1,123.1C-60.3,122.7 -60,122.3 -59.3,121.9C-58.9,121.6 -58.2,121.3 -57.5,122C-57.7,122.3 -58.3,122.4 -58.6,122.4L-57.8,123.5C-57.8,123.1 -57.6,122.7 -57.3,122.5C-57.2,123 -57.1,123.6 -57.2,124L-56.1,123.2C-56.1,123.2 -57.8,121.4 -58.6,120.4L-69.9,126.6ZM-58.7,98.4C-59.2,97.8 -59.9,97.5 -60.4,97.9C-60.9,98.3 -60.9,99.1 -60.5,99.7C-60.1,100.3 -59.3,100.6 -58.8,100.2C-58.3,99.8 -58.3,99 -58.7,98.4M-55.5,103.5C-56,102.9 -56.7,102.6 -57.2,103C-57.7,103.4 -57.7,104.2 -57.3,104.8C-56.8,105.4 -56.1,105.7 -55.6,105.3C-55.1,105 -55,104.2 -55.5,103.5" style="fill-rule:nonzero;"/>
    </g>
</svg>
