<?xml version="1.0" encoding="UTF-8" standalone="no"?>
<!DOCTYPE svg PUBLIC "-//W3C//DTD SVG 1.1//EN" "http://www.w3.org/Graphics/SVG/1.1/DTD/svg11.dtd">
<svg width="100%" height="100%" viewBox="0 0 300 100" version="1.1" xmlns="http://www.w3.org/2000/svg" xmlns:xlink="http://www.w3.org/1999/xlink" xml:space="preserve" xmlns:serif="http://www.serif.com/" style="fill-rule:evenodd;clip-rule:evenodd;stroke-linejoin:round;stroke-miterlimit:2;">
    <g id="g2969" transform="matrix(0.279393,0,0,0.279393,11.2394,-49.2818)">
        <path id="path2830" d="M34.85,414.898L34.85,409.447C59.676,407.304 79.674,390.717 87.018,368.371C83.159,370.667 78.728,372.817 73.578,374.577C67.746,384.76 58.348,392.815 46.94,396.982C51.056,389.661 54.284,381.437 56.382,372.53C69.528,369.552 80.687,364.666 88.632,359.494C89.373,355.862 89.571,350.749 89.571,349.04C89.571,347.33 89.373,342.202 88.632,338.571C80.687,333.377 69.506,328.527 56.367,325.549C54.269,316.628 51.034,308.382 46.94,301.112C58.363,305.279 67.746,313.305 73.578,323.495C78.728,325.263 83.159,327.405 87.018,329.708C79.674,307.347 59.676,290.775 34.85,288.625L34.85,283.24C55.611,282.265 75.229,275.941 83.9,267.335L78.317,259.728C68.435,267.306 52.772,272.463 34.85,273.344L34.85,259.075L23.926,259.075L23.926,273.344C5.989,272.463 -9.674,267.306 -19.556,259.728L-25.154,267.335C-16.482,275.941 3.157,282.272 23.926,283.24L23.926,288.625C-0.915,290.775 -20.928,307.347 -28.257,329.708C-24.413,327.405 -19.982,325.263 -14.832,323.495C-8.985,313.305 0.413,305.279 11.821,301.112C7.727,308.397 4.492,316.65 2.394,325.549C-10.731,328.542 -21.875,333.377 -29.849,338.571C-30.561,342.202 -30.781,347.33 -30.781,349.04C-30.781,350.749 -30.561,355.862 -29.849,359.494C-21.875,364.666 -10.731,369.537 2.379,372.516C4.477,381.437 7.705,389.661 11.821,396.982C0.428,392.801 -8.985,384.76 -14.832,374.577C-19.982,372.817 -24.413,370.667 -28.257,368.371C-20.928,390.717 -0.915,407.304 23.926,409.447L23.926,414.898C-2.932,416.695 -25.521,431.301 -34.845,450.823L-22.777,450.823C-13.43,436.393 4.162,426.474 23.926,424.897L23.926,451.623L34.85,451.623L34.85,424.897C54.584,426.474 72.206,436.393 81.538,450.823L93.606,450.823C84.296,431.301 61.708,416.695 34.85,414.898ZM79.234,343.2C79.425,344.983 79.535,347.411 79.535,349.04C79.535,350.668 79.425,353.097 79.234,354.865C73.292,358.012 66.168,360.631 58.194,362.538C58.759,358.122 59.089,353.632 59.089,349.032C59.089,344.425 58.759,339.95 58.194,335.563C66.168,337.448 73.292,340.06 79.234,343.2ZM9.598,349.032C9.598,343.743 10.038,338.593 10.845,333.633C16.722,332.782 22.95,332.306 29.399,332.306C35.84,332.306 42.039,332.782 47.901,333.611C48.723,338.593 49.148,343.743 49.148,349.032C49.148,354.314 48.723,359.464 47.901,364.453C42.039,365.297 35.84,365.766 29.399,365.766C22.95,365.766 16.722,365.297 10.845,364.453C10.038,359.464 9.598,354.314 9.598,349.032ZM24.872,298.228C26.369,298.089 27.866,298.008 29.384,298.008C30.895,298.008 32.392,298.089 33.874,298.228C39.031,305.557 43.11,314.148 45.744,323.634C40.506,322.915 35.04,322.504 29.399,322.504C23.735,322.504 18.284,322.915 13.039,323.634C15.651,314.148 19.722,305.572 24.872,298.228ZM-20.407,354.865C-20.613,353.097 -20.723,350.668 -20.723,349.04C-20.723,347.411 -20.613,344.983 -20.407,343.2C-14.516,340.06 -7.393,337.448 0.567,335.57C0.002,339.95 -0.328,344.44 -0.328,349.032C-0.328,353.632 0.002,358.122 0.567,362.509C-7.393,360.631 -14.516,358.012 -20.407,354.865ZM13.054,374.453C18.284,375.164 23.757,375.575 29.399,375.575C35.026,375.575 40.477,375.164 45.722,374.453C43.096,383.909 39.009,392.514 33.874,399.858C32.392,399.968 30.895,400.064 29.384,400.064C27.88,400.064 26.369,399.968 24.902,399.858C19.737,392.514 15.665,383.909 13.054,374.453" style="fill:rgb(237,27,46);fill-rule:nonzero;"/>
        <rect id="path2832" x="961.966" y="300.693" width="62.256" height="8.51" style="fill:rgb(237,27,46);fill-rule:nonzero;"/>
        <path id="path2836" d="M1028.15,330.904L958.892,330.904L958.892,339.451L1002.84,339.451L1002.84,386.227C1002.84,389.316 1000.34,391.825 997.254,391.825L997.254,391.854L976.793,391.854L973.36,400.064L1001.85,400.064C1008.98,400.064 1014.75,394.29 1014.75,387.174L1014.75,339.451L1028.15,339.451L1028.15,330.904" style="fill:rgb(237,27,46);fill-rule:nonzero;"/>
        <path id="path2840" d="M941.711,328.146C941.711,328.146 928.52,349.516 911.228,365.972L924.06,365.972C927.618,362.582 931.088,358.694 934.162,354.938L933.971,360.946L933.971,400.064L944.814,400.064L944.814,340.471C949.531,333.362 952.319,328.146 952.319,328.146L941.711,328.146" style="fill:rgb(237,27,46);fill-rule:nonzero;"/>
        <path id="path2844" d="M916.415,329.694L928.645,329.694C942.642,313.825 952.524,296.123 952.524,296.123L941.681,296.123C941.681,296.123 930.868,313.789 916.415,329.694" style="fill:rgb(237,27,46);fill-rule:nonzero;"/>
        <path id="path2848" d="M598.798,368.085L610.411,368.085C617.542,368.085 623.323,362.318 623.323,355.18L623.323,319.584L580.611,319.584L580.611,308.903L628.649,308.903L628.649,300.686L580.611,300.686L580.611,294.267L568.675,294.267L568.675,300.686L520.828,300.686L520.828,308.903L568.675,308.903L568.675,319.584L525.743,319.584L525.743,368.085L550.488,368.085C540.716,379.969 526.374,391.619 515.12,400.064L529.917,400.064C540.306,392.815 554.032,380.989 563.826,368.085L568.675,368.085L568.675,401.56L580.611,401.56L580.611,368.085L585.512,368.085C595.284,380.989 608.995,392.815 619.398,400.064L634.195,400.064C622.912,391.619 608.599,379.969 598.798,368.085ZM611.394,327.801L611.394,339.055L580.611,339.055L580.611,327.801L611.394,327.801ZM537.657,327.801L568.675,327.801L568.675,339.055L537.657,339.055L537.657,327.801ZM537.657,359.89L537.657,347.264L568.675,347.264L568.675,359.89L537.657,359.89ZM580.611,347.264L611.394,347.264L611.394,354.248C611.394,357.322 608.9,359.839 605.811,359.839C605.811,359.861 605.797,359.875 605.797,359.875C604.175,359.89 593.237,359.89 580.611,359.89L580.611,347.264" style="fill:rgb(237,27,46);fill-rule:nonzero;"/>
        <path id="path2852" d="M732.289,391.854L732.289,369.097L745.89,369.097C753.029,369.097 758.802,363.309 758.802,356.185L758.802,325.717L732.289,325.717L732.289,306.218L762.426,306.218L762.426,298.008L655.045,298.008L655.045,306.218L685.161,306.218L685.161,325.717L658.633,325.717L658.633,369.097L685.161,369.097L685.161,391.854L651.604,391.854L651.604,400.063L761.986,400.063L765.86,391.854L732.289,391.854ZM670.532,360.866L670.532,333.927L697.097,333.927L697.097,306.218L720.375,306.218L720.375,333.927L746.881,333.927L746.881,355.253C746.881,358.342 744.394,360.851 741.32,360.851C741.32,360.851 741.305,360.866 741.291,360.866L720.375,360.866L720.375,391.854L697.097,391.854L697.097,360.866L670.532,360.866" style="fill:rgb(237,27,46);fill-rule:nonzero;"/>
        <path id="path2856" d="M368.68,389.727L292.882,389.727L292.882,351.659L355.849,351.659L355.849,341.322L292.882,341.322L292.882,308.353L364.961,308.353L364.961,298.008L277.894,298.008L277.894,400.064L363.86,400.064L368.68,389.807L368.68,389.727" style="fill:rgb(237,27,46);fill-rule:nonzero;"/>
        <path id="path2860" d="M476.223,400.064L491.226,400.064L443.188,298.052L424.465,298.052L376.405,400.064L391.423,400.064L405.721,369.662L461.91,369.662L476.223,400.064ZM410.607,359.31L433.827,310.025L457.039,359.31L410.607,359.31" style="fill:rgb(237,27,46);fill-rule:nonzero;"/>
        <path id="path2864" d="M235.556,346.149C246.084,341.564 253.288,332.423 253.317,321.859L253.369,321.859C253.354,321.844 253.317,321.844 253.303,321.844C253.288,308.705 240.618,298.089 224.713,298.089C224.867,298.089 159.493,298.089 159.493,298.089L159.493,400.071L221.529,400.071C225.879,400.071 230.971,399.55 236.502,398.222C252.503,394.378 257.58,380.806 257.418,371.701C257.103,351.284 235.938,346.23 235.556,346.149L235.556,346.149ZM224.537,389.118C222.16,389.602 219.365,389.741 212.762,389.741L174.481,389.741L174.481,308.441L221.72,308.441C231.602,308.441 238.314,315.344 238.329,323.891L238.358,323.898L238.329,323.927C238.329,332.408 232.673,341.307 217.978,341.784L181.715,341.784L181.715,352.12C181.715,352.12 212.447,352.091 217.978,352.091C223.517,352.091 229.819,353.602 232.482,355.07C238.314,358.144 241.689,363.705 241.689,370.344C241.689,378.238 236.407,387.1 224.537,389.117" style="fill:rgb(237,27,46);fill-rule:nonzero;"/>
        <path id="path2868" d="M807.691,308.118C810.42,304.508 811.851,304.45 812.878,304.45C813.92,304.45 815.365,304.508 818.08,308.118C818.08,308.118 822.789,314.361 826.59,319.357L839.421,319.357L826.245,301.926C822.21,296.629 818.094,294.274 812.878,294.274C807.662,294.274 803.532,296.629 799.526,301.926L786.35,319.357L799.181,319.357L807.691,308.118" style="fill:rgb(237,27,46);fill-rule:nonzero;"/>
        <path id="path2872" d="M799.996,357.102L791.075,357.102C791.992,366.713 793.613,375.868 795.711,385.237L804.28,385.237C802.805,378.744 800.407,364.416 799.996,357.102" style="fill:rgb(237,27,46);fill-rule:nonzero;"/>
        <path id="path2876" d="M830.074,385.237C832.158,375.868 833.765,366.713 834.696,357.102L825.768,357.102C825.343,364.416 822.966,378.744 821.484,385.237L830.074,385.237" style="fill:rgb(237,27,46);fill-rule:nonzero;"/>
        <path id="path2880" d="M881.942,378.289C887.415,370.887 891.971,363.309 894.362,356.64L882.478,356.64C880.79,360.154 878.267,365.194 875.009,369.772C871.51,365.187 868.436,360.69 866.242,356.64L854.343,356.64C862.633,372.017 879.69,392.199 890.041,400.064L903.569,400.064C897.121,394.591 889.146,386.638 881.942,378.289" style="fill:rgb(237,27,46);fill-rule:nonzero;"/>
        <path id="path2884" d="M818.234,349.766L835.335,349.766L835.335,341.549L818.234,341.549L818.234,332.019L835.335,332.019L835.335,323.803L790.29,323.803L790.29,332.019L807.515,332.019L807.515,341.549L790.29,341.549L790.29,349.766L807.515,349.766L807.515,391.854L785.844,391.854L785.844,400.071L835.606,400.071L839.48,391.869L839.48,391.854L818.234,391.854L818.234,349.766" style="fill:rgb(237,27,46);fill-rule:nonzero;"/>
        <path id="path2888" d="M858.774,389.301C856.302,391.04 853.529,390.834 853.529,387.24L853.529,348.878L883.38,348.878C888.882,348.878 893.343,344.41 893.343,338.894C893.343,338.057 893.372,298.023 893.372,298.023L842.796,298.023L842.796,390.695C842.796,397.621 847.931,401.942 855.451,401.472C863.66,400.966 871.209,392.617 871.209,392.617C868.311,389.301 867.079,387.665 864.687,384.305C862.273,386.447 860.997,387.709 858.774,389.301L858.774,389.301ZM878.274,340.647C877.327,340.647 853.529,340.662 853.529,340.662L853.529,327.559L882.639,327.559L882.639,336.267C882.639,338.673 880.665,340.647 878.274,340.647L878.274,340.647ZM882.639,306.254L882.639,319.35L853.529,319.35L853.529,306.254L882.639,306.254" style="fill:rgb(237,27,46);fill-rule:nonzero;"/>
    </g>
</svg>
