<?xml version="1.0" encoding="UTF-8" standalone="no"?>
<!DOCTYPE svg PUBLIC "-//W3C//DTD SVG 1.1//EN" "http://www.w3.org/Graphics/SVG/1.1/DTD/svg11.dtd">
<svg width="100%" height="100%" viewBox="0 0 300 100" version="1.1" xmlns="http://www.w3.org/2000/svg" xmlns:xlink="http://www.w3.org/1999/xlink" xml:space="preserve" xmlns:serif="http://www.serif.com/" style="fill-rule:evenodd;clip-rule:evenodd;stroke-linejoin:round;stroke-miterlimit:2;">
    <g transform="matrix(3.5,0,0,3.5,-0.2125,-1.5099e-14)">
        <rect x="0" y="0" width="24.97" height="28.78" style="fill:rgb(54,30,84);"/>
        <path d="M0,28.78L0,25.9C0,25.9 2.45,25.45 3.49,26.38C4.06,26.04 5.07,25.52 6.07,25.48C6.72,25.46 7.84,26.06 7.96,26.76C7.96,26.76 11.87,22.04 19.31,24.11C19.31,24.11 21.48,21.3 24.97,20.26L24.97,28.79L0,28.78Z" style="fill:rgb(0,173,226);fill-rule:nonzero;"/>
        <path d="M16.27,11.38C16.24,11.39 16.21,11.39 16.19,11.39L16.09,11.39C16,11.39 15.94,11.37 15.92,11.32C15.89,11.27 15.88,11.21 15.88,11.14L15.88,8.59L15.67,8.59L15.67,11.15C15.67,11.3 15.71,11.41 15.78,11.48C15.85,11.55 15.95,11.58 16.08,11.58C16.12,11.58 16.16,11.58 16.19,11.57C16.22,11.56 16.24,11.56 16.27,11.55L16.27,11.38ZM14.85,9.5L14.63,9.5L14.63,11.56L14.85,11.56L14.85,9.5ZM14.88,8.64L14.6,8.64L14.6,8.93L14.89,8.93L14.89,8.64L14.88,8.64ZM13.81,10.91C13.79,11.05 13.72,11.17 13.62,11.27C13.52,11.37 13.39,11.42 13.23,11.42C13.04,11.42 12.88,11.36 12.77,11.25C12.68,11.15 12.62,11.05 12.59,10.93C12.56,10.81 12.55,10.68 12.55,10.55C12.55,10.42 12.56,10.29 12.59,10.17C12.62,10.05 12.68,9.94 12.77,9.85C12.82,9.8 12.89,9.75 12.97,9.72C13.05,9.69 13.13,9.67 13.23,9.67C13.39,9.67 13.52,9.72 13.62,9.81C13.72,9.9 13.79,10.02 13.81,10.16L14.02,10.16C14.01,10.06 13.98,9.96 13.93,9.88C13.89,9.8 13.83,9.72 13.76,9.66C13.69,9.6 13.61,9.55 13.52,9.52C13.43,9.49 13.33,9.47 13.22,9.47C13.09,9.47 12.98,9.49 12.87,9.54C12.77,9.59 12.68,9.64 12.61,9.71C12.5,9.82 12.43,9.94 12.39,10.08C12.35,10.22 12.33,10.38 12.33,10.55C12.33,10.73 12.35,10.88 12.39,11.02C12.43,11.16 12.51,11.28 12.61,11.39C12.68,11.46 12.77,11.52 12.87,11.56C12.97,11.61 13.09,11.63 13.22,11.63C13.33,11.63 13.43,11.61 13.52,11.58C13.61,11.55 13.69,11.5 13.76,11.43C13.83,11.37 13.89,11.29 13.93,11.21C13.98,11.12 14,11.03 14.02,10.93L13.81,10.93L13.81,10.91ZM11.73,11.56L11.73,10.2C11.73,9.97 11.67,9.78 11.55,9.65C11.43,9.52 11.25,9.45 11.01,9.45C10.94,9.45 10.87,9.46 10.8,9.48C10.73,9.5 10.66,9.53 10.6,9.57C10.54,9.61 10.48,9.65 10.43,9.7C10.38,9.75 10.34,9.81 10.31,9.88L10.29,9.5L10.11,9.5L10.11,11.56L10.32,11.56L10.32,10.53C10.32,10.42 10.33,10.31 10.35,10.21C10.37,10.1 10.41,10.01 10.47,9.93C10.52,9.85 10.59,9.78 10.68,9.73C10.77,9.68 10.87,9.65 11,9.65C11.19,9.65 11.32,9.7 11.41,9.8C11.49,9.9 11.53,10.04 11.53,10.22L11.53,11.56L11.73,11.56ZM9.29,11.55L9.29,9.5L9.09,9.5L9.09,10.53C9.09,10.64 9.08,10.75 9.06,10.86C9.04,10.97 9,11.06 8.94,11.14C8.89,11.22 8.82,11.29 8.73,11.34C8.64,11.39 8.54,11.41 8.41,11.41C8.22,11.41 8.09,11.36 8,11.26C7.92,11.16 7.88,11.02 7.88,10.84L7.88,9.5L7.67,9.5L7.67,10.86C7.67,11.09 7.73,11.28 7.85,11.41C7.97,11.54 8.15,11.61 8.39,11.61C8.46,11.61 8.53,11.6 8.6,11.58C8.67,11.56 8.74,11.53 8.8,11.5C8.86,11.46 8.92,11.42 8.96,11.36C9.01,11.31 9.05,11.25 9.08,11.18L9.1,11.55L9.29,11.55ZM6.82,10.91C6.79,11.03 6.73,11.13 6.63,11.23C6.58,11.28 6.51,11.33 6.44,11.36C6.37,11.39 6.28,11.41 6.18,11.41C6.08,11.41 5.99,11.39 5.92,11.36C5.85,11.33 5.78,11.28 5.73,11.23C5.64,11.13 5.58,11.03 5.54,10.91C5.51,10.79 5.49,10.67 5.49,10.53C5.49,10.4 5.51,10.27 5.54,10.15C5.57,10.03 5.63,9.93 5.73,9.83C5.78,9.78 5.85,9.73 5.92,9.7C6,9.67 6.08,9.65 6.18,9.65C6.28,9.65 6.37,9.67 6.44,9.7C6.51,9.73 6.58,9.78 6.63,9.83C6.72,9.93 6.78,10.03 6.82,10.15C6.85,10.27 6.87,10.39 6.87,10.53C6.86,10.67 6.85,10.79 6.82,10.91M7.01,10.06C6.96,9.92 6.89,9.8 6.78,9.7C6.71,9.62 6.63,9.57 6.53,9.52C6.43,9.47 6.32,9.45 6.19,9.45C6.06,9.45 5.95,9.47 5.85,9.52C5.74,9.57 5.65,9.62 5.58,9.7C5.47,9.8 5.4,9.92 5.35,10.06C5.31,10.2 5.28,10.35 5.28,10.53C5.28,10.71 5.3,10.86 5.35,11C5.39,11.14 5.47,11.26 5.58,11.37C5.65,11.44 5.74,11.5 5.84,11.55C5.94,11.6 6.05,11.62 6.18,11.62C6.31,11.62 6.42,11.6 6.52,11.55C6.62,11.5 6.71,11.44 6.78,11.37C6.89,11.26 6.96,11.14 7.01,11C7.05,10.86 7.08,10.71 7.08,10.53C7.07,10.36 7.05,10.2 7.01,10.06M4.66,10.67C4.65,10.78 4.63,10.88 4.58,10.97C4.54,11.06 4.48,11.14 4.41,11.2C4.34,11.27 4.26,11.32 4.16,11.35C4.06,11.39 3.96,11.4 3.84,11.4C3.6,11.4 3.39,11.32 3.23,11.15C3.16,11.08 3.11,11 3.08,10.92C3.05,10.84 3.02,10.75 3,10.65C2.98,10.56 2.97,10.46 2.97,10.37C2.97,10.28 2.96,10.18 2.96,10.1C2.96,10.01 2.96,9.92 2.97,9.83C2.97,9.74 2.99,9.64 3,9.55C3.02,9.46 3.05,9.37 3.08,9.28C3.12,9.2 3.17,9.12 3.23,9.05C3.31,8.97 3.4,8.91 3.5,8.87C3.6,8.82 3.71,8.8 3.85,8.8C3.97,8.8 4.07,8.82 4.17,8.85C4.27,8.89 4.35,8.94 4.42,9C4.49,9.07 4.55,9.14 4.59,9.23C4.63,9.32 4.66,9.42 4.67,9.53L4.89,9.53C4.87,9.4 4.84,9.28 4.78,9.16C4.73,9.04 4.65,8.94 4.56,8.86C4.47,8.78 4.36,8.71 4.24,8.66C4.12,8.61 3.98,8.59 3.84,8.59C3.7,8.59 3.56,8.62 3.43,8.67C3.3,8.73 3.18,8.8 3.08,8.91C3,8.99 2.93,9.07 2.89,9.17C2.84,9.26 2.81,9.36 2.79,9.47C2.77,9.57 2.75,9.68 2.75,9.79C2.74,9.89 2.74,9.99 2.74,10.1C2.74,10.21 2.74,10.31 2.75,10.42C2.76,10.53 2.77,10.63 2.79,10.74C2.81,10.84 2.85,10.94 2.89,11.04C2.94,11.14 3,11.22 3.08,11.3C3.18,11.4 3.3,11.48 3.44,11.53C3.58,11.58 3.71,11.61 3.85,11.61C4,11.61 4.13,11.59 4.25,11.54C4.37,11.49 4.48,11.43 4.57,11.34C4.66,11.26 4.73,11.15 4.79,11.04C4.84,10.92 4.88,10.8 4.89,10.67L4.66,10.67Z" style="fill:white;fill-rule:nonzero;"/>
        <path d="M15.07,4.83C14.92,4.99 14.69,5.06 14.36,5.06L13.28,5.06L13.28,3.36L14.36,3.36C14.68,3.36 14.92,3.44 15.07,3.6C15.22,3.76 15.29,3.96 15.29,4.22C15.29,4.48 15.22,4.67 15.07,4.83M16.14,3.52C16.06,3.31 15.94,3.13 15.79,2.99C15.63,2.84 15.44,2.73 15.21,2.65C14.98,2.57 14.71,2.53 14.41,2.53L12.34,2.53L12.34,7.8L13.29,7.8L13.29,5.9L14.4,5.9C14.7,5.9 14.97,5.86 15.2,5.78C15.43,5.7 15.63,5.58 15.78,5.43C15.93,5.28 16.05,5.1 16.13,4.89C16.21,4.68 16.25,4.45 16.25,4.2C16.26,3.95 16.22,3.72 16.14,3.52M10.53,6.11C10.51,6.33 10.43,6.52 10.29,6.69C10.21,6.8 10.09,6.88 9.95,6.94C9.81,7 9.66,7.02 9.5,7.02C9.35,7.02 9.2,6.99 9.06,6.93C8.91,6.88 8.79,6.79 8.69,6.67C8.6,6.58 8.53,6.47 8.48,6.35C8.43,6.22 8.39,6.09 8.37,5.96C8.35,5.82 8.34,5.68 8.33,5.55C8.33,5.41 8.32,5.28 8.32,5.16C8.32,5.04 8.32,4.91 8.33,4.77C8.33,4.63 8.35,4.49 8.37,4.36C8.39,4.22 8.43,4.09 8.48,3.97C8.53,3.85 8.6,3.74 8.69,3.64C8.79,3.53 8.92,3.44 9.06,3.38C9.2,3.32 9.34,3.29 9.5,3.29C9.66,3.29 9.82,3.32 9.96,3.37C10.1,3.42 10.21,3.51 10.3,3.62C10.37,3.7 10.42,3.79 10.46,3.88C10.5,3.97 10.52,4.07 10.53,4.18L11.51,4.18C11.49,3.97 11.43,3.77 11.35,3.57C11.27,3.37 11.15,3.19 11,3.03C10.8,2.83 10.57,2.67 10.31,2.57C10.05,2.47 9.77,2.42 9.49,2.42C9.21,2.42 8.94,2.47 8.68,2.56C8.44,2.67 8.21,2.82 8,3.02C7.86,3.16 7.75,3.31 7.66,3.47C7.57,3.63 7.51,3.8 7.46,3.98C7.42,4.16 7.39,4.34 7.37,4.54C7.36,4.74 7.35,4.94 7.35,5.16C7.35,5.38 7.36,5.58 7.37,5.78C7.38,5.98 7.41,6.16 7.46,6.34C7.5,6.52 7.57,6.69 7.66,6.85C7.75,7 7.86,7.16 8,7.3C8.2,7.5 8.43,7.65 8.69,7.75C8.95,7.84 9.22,7.89 9.5,7.89C9.78,7.89 10.05,7.84 10.32,7.73C10.58,7.62 10.81,7.47 11.01,7.27C11.16,7.11 11.28,6.93 11.36,6.73C11.44,6.53 11.49,6.32 11.52,6.12L10.53,6.12L10.53,6.11ZM5.72,6.57C5.66,6.66 5.59,6.73 5.5,6.79C5.41,6.84 5.31,6.88 5.2,6.9C5.09,6.92 4.98,6.93 4.87,6.93L3.69,6.93L3.69,5.47L4.9,5.47C5.15,5.47 5.37,5.53 5.54,5.64C5.71,5.76 5.8,5.95 5.8,6.24C5.8,6.37 5.77,6.48 5.72,6.57M5.62,4.33C5.58,4.41 5.52,4.48 5.45,4.53C5.38,4.58 5.3,4.61 5.2,4.63C5.1,4.66 5,4.67 4.89,4.67L3.69,4.67L3.69,3.35L4.87,3.35C4.98,3.35 5.08,3.36 5.18,3.38C5.28,3.4 5.37,3.44 5.44,3.49C5.51,3.54 5.57,3.61 5.62,3.7C5.66,3.79 5.69,3.89 5.69,4.02C5.69,4.14 5.66,4.24 5.62,4.33M6.58,5.56C6.46,5.35 6.27,5.18 6.01,5.07C6.12,5.02 6.21,4.95 6.3,4.87C6.38,4.79 6.45,4.7 6.5,4.6C6.56,4.5 6.6,4.39 6.62,4.28C6.64,4.17 6.66,4.06 6.66,3.95C6.66,3.72 6.61,3.51 6.5,3.3C6.39,3.1 6.24,2.93 6.05,2.8C5.87,2.7 5.68,2.62 5.47,2.58C5.26,2.54 5.04,2.52 4.83,2.52L2.73,2.52L2.73,7.8L4.83,7.8C5.08,7.8 5.33,7.78 5.57,7.74C5.8,7.7 6.03,7.6 6.24,7.44C6.42,7.3 6.56,7.12 6.64,6.92C6.72,6.72 6.77,6.5 6.77,6.26C6.77,6.01 6.71,5.78 6.58,5.56" style="fill:white;fill-rule:nonzero;"/>
        <circle cx="6.64" cy="25.25" r="0.86" style="fill:white;"/>
        <circle cx="12.95" cy="23.41" r="0.86" style="fill:white;"/>
        <circle cx="20.58" cy="22.3" r="0.86" style="fill:white;"/>
        <g>
            <circle cx="17.97" cy="23.84" r="0.46" style="fill:white;"/>
            <circle cx="17.47" cy="22.71" r="0.44" style="fill:white;"/>
            <circle cx="17" cy="21.6" r="0.37" style="fill:white;"/>
            <circle cx="16.52" cy="20.58" r="0.34" style="fill:white;"/>
            <circle cx="16.06" cy="19.53" r="0.33" style="fill:white;"/>
            <circle cx="15.64" cy="18.56" r="0.27" style="fill:white;"/>
            <circle cx="15.25" cy="17.64" r="0.24" style="fill:white;"/>
            <circle cx="14.87" cy="16.78" r="0.21" style="fill:white;"/>
            <circle cx="14.53" cy="16.02" r="0.17" style="fill:white;"/>
            <circle cx="14.24" cy="15.32" r="0.12" style="fill:white;"/>
        </g>
        <g>
            <circle cx="19.46" cy="24.07" r="0.46" style="fill:white;"/>
            <circle cx="18.97" cy="22.94" r="0.44" style="fill:white;"/>
            <circle cx="18.49" cy="21.84" r="0.37" style="fill:white;"/>
            <circle cx="18.02" cy="20.81" r="0.34" style="fill:white;"/>
            <circle cx="17.56" cy="19.76" r="0.33" style="fill:white;"/>
            <circle cx="17.13" cy="18.79" r="0.27" style="fill:white;"/>
            <circle cx="16.74" cy="17.87" r="0.24" style="fill:white;"/>
            <circle cx="16.37" cy="17.01" r="0.21" style="fill:white;"/>
            <circle cx="16.02" cy="16.25" r="0.17" style="fill:white;"/>
        </g>
        <g>
            <circle cx="16.52" cy="23.74" r="0.46" style="fill:white;"/>
            <circle cx="16.02" cy="22.61" r="0.44" style="fill:white;"/>
            <circle cx="15.55" cy="21.5" r="0.37" style="fill:white;"/>
            <circle cx="15.07" cy="20.48" r="0.34" style="fill:white;"/>
            <circle cx="14.62" cy="19.43" r="0.33" style="fill:white;"/>
            <circle cx="14.19" cy="18.46" r="0.27" style="fill:white;"/>
            <circle cx="13.8" cy="17.54" r="0.24" style="fill:white;"/>
            <circle cx="13.42" cy="16.68" r="0.21" style="fill:white;"/>
            <circle cx="13.08" cy="15.92" r="0.17" style="fill:white;"/>
        </g>
        <g>
            <circle cx="15.11" cy="23.73" r="0.46" style="fill:white;"/>
            <circle cx="14.61" cy="22.6" r="0.44" style="fill:white;"/>
            <circle cx="14.13" cy="21.5" r="0.37" style="fill:white;"/>
            <circle cx="13.66" cy="20.47" r="0.34" style="fill:white;"/>
            <circle cx="13.2" cy="19.42" r="0.33" style="fill:white;"/>
            <circle cx="12.78" cy="18.45" r="0.27" style="fill:white;"/>
        </g>
        <g>
            <circle cx="11.29" cy="24.6" r="0.46" style="fill:white;"/>
            <circle cx="10.79" cy="23.47" r="0.44" style="fill:white;"/>
            <circle cx="10.32" cy="22.37" r="0.37" style="fill:white;"/>
            <circle cx="9.84" cy="21.34" r="0.34" style="fill:white;"/>
            <circle cx="9.38" cy="20.3" r="0.33" style="fill:white;"/>
            <circle cx="8.96" cy="19.32" r="0.27" style="fill:white;"/>
            <circle cx="8.57" cy="18.4" r="0.24" style="fill:white;"/>
            <circle cx="8.19" cy="17.54" r="0.21" style="fill:white;"/>
            <circle cx="7.85" cy="16.78" r="0.17" style="fill:white;"/>
        </g>
        <g>
            <circle cx="10.14" cy="25.19" r="0.46" style="fill:white;"/>
            <circle cx="9.65" cy="24.06" r="0.44" style="fill:white;"/>
            <circle cx="9.17" cy="22.95" r="0.37" style="fill:white;"/>
            <circle cx="8.7" cy="21.93" r="0.34" style="fill:white;"/>
            <circle cx="8.24" cy="20.88" r="0.33" style="fill:white;"/>
            <circle cx="7.81" cy="19.91" r="0.27" style="fill:white;"/>
            <circle cx="7.42" cy="18.99" r="0.24" style="fill:white;"/>
            <circle cx="7.05" cy="18.13" r="0.21" style="fill:white;"/>
            <circle cx="6.7" cy="17.37" r="0.17" style="fill:white;"/>
        </g>
        <g>
            <circle cx="9.07" cy="25.92" r="0.46" style="fill:white;"/>
            <circle cx="8.57" cy="24.79" r="0.44" style="fill:white;"/>
            <circle cx="8.09" cy="23.68" r="0.37" style="fill:white;"/>
            <circle cx="7.62" cy="22.66" r="0.34" style="fill:white;"/>
            <circle cx="7.16" cy="21.61" r="0.33" style="fill:white;"/>
            <circle cx="6.74" cy="20.64" r="0.27" style="fill:white;"/>
            <circle cx="6.35" cy="19.72" r="0.24" style="fill:white;"/>
            <circle cx="5.97" cy="18.86" r="0.21" style="fill:white;"/>
            <circle cx="5.63" cy="18.1" r="0.17" style="fill:white;"/>
            <circle cx="5.34" cy="17.4" r="0.12" style="fill:white;"/>
        </g>
        <g>
            <circle cx="8.08" cy="26.6" r="0.46" style="fill:white;"/>
            <circle cx="6.77" cy="23.7" r="0.37" style="fill:white;"/>
            <circle cx="6.3" cy="22.67" r="0.34" style="fill:white;"/>
            <circle cx="5.84" cy="21.63" r="0.33" style="fill:white;"/>
            <circle cx="5.42" cy="20.65" r="0.27" style="fill:white;"/>
            <circle cx="5.02" cy="19.73" r="0.24" style="fill:white;"/>
            <circle cx="4.65" cy="18.88" r="0.21" style="fill:white;"/>
            <circle cx="4.3" cy="18.11" r="0.17" style="fill:white;"/>
            <circle cx="4.02" cy="17.42" r="0.12" style="fill:white;"/>
        </g>
        <g>
            <circle cx="11.55" cy="21.94" r="0.37" style="fill:white;"/>
            <circle cx="11.07" cy="20.92" r="0.34" style="fill:white;"/>
            <circle cx="10.62" cy="19.87" r="0.33" style="fill:white;"/>
            <circle cx="10.19" cy="18.89" r="0.27" style="fill:white;"/>
            <circle cx="9.8" cy="17.97" r="0.24" style="fill:white;"/>
            <circle cx="9.43" cy="17.12" r="0.21" style="fill:white;"/>
            <circle cx="9.08" cy="16.35" r="0.17" style="fill:white;"/>
            <circle cx="8.79" cy="15.66" r="0.12" style="fill:white;"/>
        </g>
        <g>
            <circle cx="12.79" cy="21.61" r="0.37" style="fill:white;"/>
            <circle cx="12.32" cy="20.59" r="0.34" style="fill:white;"/>
            <circle cx="11.86" cy="19.54" r="0.33" style="fill:white;"/>
            <circle cx="11.43" cy="18.57" r="0.27" style="fill:white;"/>
        </g>
        <g>
            <circle cx="5.4" cy="23.99" r="0.44" style="fill:white;"/>
            <circle cx="4.92" cy="22.88" r="0.37" style="fill:white;"/>
            <circle cx="4.45" cy="21.85" r="0.34" style="fill:white;"/>
            <circle cx="3.99" cy="20.81" r="0.33" style="fill:white;"/>
        </g>
        <g>
            <circle cx="4.67" cy="25.43" r="0.46" style="fill:white;"/>
            <circle cx="4.17" cy="24.3" r="0.44" style="fill:white;"/>
            <circle cx="3.69" cy="23.2" r="0.37" style="fill:white;"/>
            <circle cx="3.22" cy="22.17" r="0.34" style="fill:white;"/>
        </g>
        <g>
            <circle cx="3.58" cy="26.16" r="0.46" style="fill:white;"/>
            <circle cx="3.08" cy="25.04" r="0.44" style="fill:white;"/>
            <circle cx="2.61" cy="23.93" r="0.37" style="fill:white;"/>
            <circle cx="2.13" cy="22.91" r="0.34" style="fill:white;"/>
        </g>
        <g>
            <circle cx="1.99" cy="25.77" r="0.46" style="fill:white;"/>
            <circle cx="1.5" cy="24.64" r="0.44" style="fill:white;"/>
        </g>
        <g>
            <circle cx="22.55" cy="21.32" r="0.44" style="fill:white;"/>
            <circle cx="22.07" cy="20.21" r="0.37" style="fill:white;"/>
            <circle cx="21.6" cy="19.19" r="0.34" style="fill:white;"/>
            <circle cx="21.14" cy="18.14" r="0.33" style="fill:white;"/>
        </g>
        <g>
            <circle cx="20.87" cy="20.7" r="0.37" style="fill:white;"/>
            <circle cx="20.39" cy="19.67" r="0.34" style="fill:white;"/>
            <circle cx="19.94" cy="18.63" r="0.33" style="fill:white;"/>
            <circle cx="19.51" cy="17.65" r="0.27" style="fill:white;"/>
        </g>
        <g>
            <circle cx="23.66" cy="20.61" r="0.37" style="fill:white;"/>
            <circle cx="23.19" cy="19.59" r="0.34" style="fill:white;"/>
        </g>
        <g>
            <circle cx="19.48" cy="20.91" r="0.37" style="fill:white;"/>
            <circle cx="19.01" cy="19.89" r="0.34" style="fill:white;"/>
            <circle cx="18.55" cy="18.84" r="0.33" style="fill:white;"/>
        </g>
        <path d="M24.72,0.25L24.72,28.55L0.25,28.55L0.25,0.25L24.72,0.25M24.97,0L0,0L0,28.8L24.97,28.8L24.97,0Z" style="fill:white;fill-rule:nonzero;"/>
    </g>
</svg>
