<?xml version="1.0" encoding="UTF-8" standalone="no"?>
<!DOCTYPE svg PUBLIC "-//W3C//DTD SVG 1.1//EN" "http://www.w3.org/Graphics/SVG/1.1/DTD/svg11.dtd">
<svg width="100%" height="100%" viewBox="0 0 300 100" version="1.1" xmlns="http://www.w3.org/2000/svg" xmlns:xlink="http://www.w3.org/1999/xlink" xml:space="preserve" xmlns:serif="http://www.serif.com/" style="fill-rule:evenodd;clip-rule:evenodd;stroke-linejoin:round;stroke-miterlimit:2;">
    <path d="M163.836,85.234L160.657,92.739C167.545,96.198 174.677,96.378 182.092,92.739C191.955,87.899 195.475,75.905 182.092,69.078C175.796,65.867 176.396,61.033 182.092,59.547C186.164,58.484 189.478,59.779 192.325,62.531L196.169,56.81C190.732,52.073 178.757,53.361 174.708,56.81C164.188,65.771 168.095,76.157 174.708,78.288C182.914,80.932 180.71,88.512 174.708,89.448C169.862,90.204 166.4,88.515 163.836,85.234ZM95.352,54.772L93.303,61.086C88.449,60.552 83.338,60.54 78.151,60.683L75.117,71.036C80.026,71.227 84.89,71.178 89.68,70.738L87.667,77.07C86.46,76.775 85.253,76.639 84.046,76.709L73.591,76.709L70.038,88.253C75.598,88.415 81.157,88.446 86.717,87.823L84.93,94.558L57.531,94.555L68.97,54.772L95.352,54.772ZM95.914,94.555L88.26,94.555C94.013,81.646 99.395,68.373 104.446,54.772L112.685,54.772C114.148,63.689 115.82,71.593 117.71,78.435C123.961,70.648 129.706,62.764 134.871,54.772L143.302,54.772C141.303,67.319 139.76,80.471 138.916,94.555L127.907,94.558C129.249,86.417 130.335,78.276 131.166,70.134C124.817,77.959 118.934,86.089 113.565,94.555L110.208,94.555L105.138,70.134C101.673,78.084 98.715,86.281 95.914,94.555ZM15.511,94.555L28.686,48.094L51.032,48.094C65.63,48.094 66.084,64.698 49.68,69.886C57.505,72.856 58.711,78.043 55.265,84.796C51.557,92.059 43.3,94.659 33.671,94.555L15.511,94.555ZM154.945,54.772L165.843,54.772L154.598,94.555L143.624,94.555L154.945,54.772ZM38.748,73.177L33.163,73.177L28.686,88.76L34.08,88.76C45.577,88.358 49.038,74.005 38.748,73.177ZM39.436,67.623C49.697,68.125 54.996,53.469 43.483,53.734L38.64,53.734L34.758,67.623L39.436,67.623ZM167.083,50L173.988,26.397C125.541,-8.994 47.074,1.019 3.907,39.604C57.71,2.526 135.806,7.339 167.083,50Z" style="fill:rgb(0,94,179);"/>
</svg>
