<?xml version="1.0" encoding="UTF-8" standalone="no"?>
<!DOCTYPE svg PUBLIC "-//W3C//DTD SVG 1.1//EN" "http://www.w3.org/Graphics/SVG/1.1/DTD/svg11.dtd">
<svg width="100%" height="100%" viewBox="0 0 300 100" version="1.1" xmlns="http://www.w3.org/2000/svg" xmlns:xlink="http://www.w3.org/1999/xlink" xml:space="preserve" xmlns:serif="http://www.serif.com/" style="fill-rule:evenodd;clip-rule:evenodd;stroke-linejoin:round;stroke-miterlimit:2;">
    <rect x="117" y="16.873" width="68.647" height="51.419" style="fill:rgb(255,234,0);"/>
    <g transform="matrix(1,0,0,1,1.18281,0.0713957)">
        <path d="M102.254,69.661L196.084,69.661L187.655,15.106C186.847,11.034 184.875,5.516 178.357,5.074L127.771,0.837C117.69,-0.905 113.112,7.681 111.082,15.106L102.254,69.661ZM149.349,16.802C163.538,16.802 175.058,28.322 175.058,42.511C175.058,56.701 163.538,68.221 149.349,68.221C135.159,68.221 123.639,56.701 123.639,42.511C123.639,28.322 135.159,16.802 149.349,16.802Z"/>
    </g>
    <path d="M188.965,16L197.267,69.732L103.437,69.732L112.132,16L188.965,16ZM150.532,16.873M150.532,16.873C164.721,16.873 176.241,28.393 176.241,42.582C176.241,56.772 164.721,68.292 150.532,68.292C136.342,68.292 124.822,56.772 124.822,42.582C124.822,28.393 136.342,16.873 150.532,16.873Z" style="fill:rgb(237,42,30);"/>
    <g transform="matrix(1,0,0,1,1.18281,0.0713957)">
        <path d="M145.606,22.687C142.783,21.816 141.56,23.618 143.881,26.185C144.501,24.364 146.965,26.71 143.881,26.566C141.824,26.103 141.758,26.8 141.019,26.824C140.334,26.846 139.32,25.662 139.32,25.662C139.223,26.609 140.248,27.883 141.019,27.84C141.649,27.805 142.634,27.798 143.396,27.84C143.904,27.868 144.712,27.153 144.982,27.161C146.343,27.204 146.18,28.081 144.982,28.166C144.87,28.174 144.475,27.6 144.475,27.6C143.667,29.424 144.926,29.554 145.238,29.543C146.105,29.511 145.957,30.727 144.982,30.723C143.817,30.719 140.629,31.089 141.019,31.428C141.019,31.428 142.015,31.377 142.129,31.428C142.545,31.617 143.009,32.28 141.332,32.112C140.457,31.15 139.26,30.322 137.945,29.543C137.764,29.164 137.746,28.744 137.799,28.375C138.097,26.285 137.773,24.842 137.173,24.494C136.945,25.637 136.404,25.885 135.404,24.825C134.535,24.113 133.52,24.025 132.418,24.312C134.069,25.207 134.1,25.697 132.705,25.83C131.675,25.828 131.03,26.073 130.769,26.566C131.934,26.778 132.146,27.209 131.49,27.84C130.774,28.103 130.38,28.582 130.168,29.182C131.036,28.856 131.576,29.157 131.815,30.037C132.457,31.645 133.428,31.952 134.537,31.713C135.401,31.495 136.116,31.664 136.477,32.748C136.71,34.656 137.39,35.661 138.828,35.135L139.077,35.344L139.32,35.135C140.945,35.006 141.465,35.325 140.307,36.323C139.544,36.588 139.02,36.424 138.828,35.665C136.886,36.337 135.836,35.752 135.861,33.648C135.893,32.796 135.685,32.214 135.047,32.112C135.228,33.113 134.788,33.423 133.817,33.141C132.397,32.923 131.364,33.123 130.632,33.648C132.495,33.872 132.854,34.387 130.93,35.344C130.358,35.664 130.136,36.056 130.168,36.5C131.276,36.303 131.595,36.669 130.93,37.742C130.511,38.136 130.475,38.621 130.632,39.152C131.12,38.507 131.634,38.466 132.179,39.152C133.071,40.068 134.113,40.435 135.404,39.881C136.522,39.427 137.554,39.141 138.058,39.881C138.751,41.827 140.861,42.283 143.396,42.292C144.565,42.21 145.698,42.188 146.603,42.551C146.618,42.565 146.631,42.584 146.65,42.593C148.889,43.631 149.092,45.127 147.284,44.605C145.339,44.109 143.795,44.197 142.972,45.335C141.692,47.022 142.026,48.726 143.396,50.439C144.002,51.045 144.818,51.372 145.238,52.01C145.858,52.951 145.699,53.883 145.238,54.483C144.427,55.047 143.752,54.902 143.207,54.079C143.392,50.879 140.542,49.889 138.413,52.01C137.45,52.249 136.775,52.79 136.477,53.728C138.946,52.779 138.865,54.596 137.173,54.58C136.442,55.11 136.199,55.7 136.477,56.353C137.059,55.895 137.437,55.832 137.41,56.55C137.428,57.107 138.214,57.213 139.077,57.273C139.388,58.141 139.242,58.945 138.413,59.652C138.863,59.675 139.316,59.651 139.774,59.518C140.442,59.473 141.101,59.528 141.752,59.652C142.347,59.45 142.843,59.132 143.207,58.66C144.177,58.456 144.873,58.813 145.238,59.847C145.453,59.316 145.799,58.936 146.405,58.859C147.305,58.65 147.968,58.103 148.52,57.399C149.478,57.357 150.418,57 151.342,56.353C151.755,55.962 151.788,55.592 151.177,55.257C150.287,54.093 149.633,52.86 150.633,51.138C151.586,50.11 152.07,50.522 152.277,51.784C152.41,53.55 152.959,54.898 154.097,55.659C154.561,55.977 155.807,56.037 157.503,55.947C159.203,56.266 159.285,57.844 157.503,58.859C156.772,58.849 156.138,58.294 155.361,58.194C153.185,57.915 151.998,58.776 151.832,60.815C153.44,60.062 153.871,60.414 153.098,61.898C152.831,63.01 152.991,64.042 153.715,64.968L154.097,63.865C154.841,64.126 155.531,64.073 156.143,63.583C156.703,63.709 157.103,64.192 157.141,65.478C158.45,64.093 159.77,63.287 161.123,64.133C160.923,62.972 160.821,61.79 161.469,60.448C161.634,60.318 161.728,59.229 161.739,57.037C162.377,56.374 162.949,55.659 163.456,54.892C163.996,53.948 163.617,53.068 162.548,52.235C161.482,51.38 160.959,50.305 162.103,48.558C162.837,47.437 163.084,45.789 160.745,42.292C160.04,40.742 159.491,39.081 159.651,36.913C159.948,34.857 160.598,32.795 161.888,30.723C162.402,29.747 162.775,28.487 162.818,26.566C162.699,23.987 162.166,22.781 161.469,22.119C161.357,22.694 161.08,23.079 160.545,23.167C160.618,22.566 160.57,22.06 160.298,21.732C160.087,22.262 159.624,22.398 158.994,22.275C159.051,21.001 158.655,19.951 156.143,19.949C156.947,20.308 157.115,20.664 156.143,21.014C154.67,21.461 153.607,21.068 153.098,19.544C153.017,20.694 153.624,21.581 154.736,22.275C155.799,22.827 156.593,23.648 157.141,24.716C158.326,27.183 158.043,29.648 157.141,32.112C155.544,34.821 155.894,37.541 157.013,40.266C157.981,41.812 159.437,43.26 161.123,44.881C161.87,46.462 161.62,47.188 160.745,47.379C160.826,45.9 160.13,44.304 156.693,42.292C155.564,41.185 154.594,39.846 153.956,38.02C153.547,36.599 154.018,36.677 155.07,37.742C154.655,34.877 154.535,32.737 155.894,34.234C155.639,33.19 155.506,32.07 155.735,30.723C155.595,29.437 155.301,28.79 154.951,28.375C154.124,27.492 154.703,27.378 155.894,27.6C155.438,27.036 154.996,26.469 154.853,25.83C154.762,25.015 154.339,24.283 153.715,23.6C153.369,23.124 152.841,22.695 152.277,22.275C152.132,21.314 151.84,20.438 151.342,19.679C151.107,20.351 150.693,20.929 150,21.36C149.208,21.196 148.321,21.185 147.41,21.21C146.288,21.358 145.583,21.782 145.606,22.687Z" style="fill:rgb(237,42,30);"/>
    </g>
    <g transform="matrix(1,0,0,1,1.18281,0.0713957)">
        <path d="M224.185,99.248L222.639,99.248C222.514,98.98 222.402,98.706 222.307,98.425C224.481,97.759 224.412,97.469 224.876,96.011L221.743,88.963C221.741,88.653 221.46,88.362 220.708,88.1C220.689,87.814 220.793,87.554 221.057,87.328L225.241,87.328C225.558,87.29 225.539,87.565 225.241,88.1L224.513,88.493C224.302,88.765 224.262,89.037 224.513,89.31L226.223,93.565L228.285,89.31C228.618,88.646 228.406,88.279 227.846,88.1C226.949,88.111 227.049,87.785 227.532,87.328L230.721,87.328C230.862,87.772 230.696,88.166 230.111,88.493L225.241,98.425C225.043,98.856 224.724,99.164 224.185,99.248ZM245.949,91.733C245.78,92.582 246.01,93.431 246.639,94.279C247.651,94.995 248.514,96.008 250.761,94.279L251.472,94.279C251.277,94.827 251.012,95.956 250.534,96.109C249.743,96.363 249.425,96.533 248.482,96.443C245.54,96.56 243.514,94.752 243.412,91.733C243.483,88.751 244.825,87.073 247.756,87.024C250.699,87.097 251.617,88.659 251.643,91.733L245.949,91.733ZM78.455,91.733C78.286,92.582 78.516,93.431 79.145,94.279C80.157,94.995 81.02,96.008 83.267,94.279L83.978,94.279C83.784,94.827 83.518,95.956 83.04,96.109C82.249,96.363 81.931,96.533 80.988,96.443C78.046,96.56 76.02,94.752 75.918,91.733C75.989,88.751 77.331,87.073 80.262,87.024C83.205,87.097 84.123,88.659 84.149,91.733L78.455,91.733ZM101.398,87.036C104.042,87.036 106.189,89.146 106.189,91.746C106.189,94.345 104.042,96.455 101.398,96.455C98.753,96.455 96.607,94.345 96.607,91.746C96.607,89.146 98.753,87.036 101.398,87.036ZM190.021,83.611L196.084,83.611C201.385,84.432 199.586,88.567 196.994,89.323C202.048,90.195 201.23,96.124 196.307,96.443C193.314,96.485 191.146,96.319 191.065,95.626L191.065,85.31C190.77,84.758 190.196,84.53 189.466,84.484C189.479,84.099 189.645,83.798 190.021,83.611ZM92.685,96.144C92.385,96.247 92.287,96.123 92.309,95.866L92.309,94.189C92.309,94.189 91.052,96.383 89.227,96.441C86.684,96.521 85.021,94.454 85.414,91.71C86.046,87.31 90.416,87.024 90.416,87.024C91.082,87.038 91.706,87.075 92.259,87.15L92.259,84.635C92.119,83.99 91.57,83.793 90.857,83.701L91.062,83.039L94.074,83.039C94.478,83.001 94.686,83.205 94.656,83.701L94.656,91.333L94.64,91.309L94.64,94.417C94.829,95.273 95.297,95.558 95.872,95.625L95.621,96.144L92.685,96.144ZM176.349,96.144C176.048,96.247 175.95,96.123 175.972,95.866L175.972,94.189C175.972,94.189 174.716,96.383 172.89,96.441C170.347,96.521 168.684,94.454 169.078,91.71C169.709,87.31 174.08,87.024 174.08,87.024C176.408,87.075 178.218,87.402 178.303,88.65L178.303,94.417C178.492,95.273 178.961,95.558 179.536,95.625L179.285,96.144L176.349,96.144ZM132.981,96.144C132.68,96.247 132.582,96.123 132.604,95.866L132.604,94.189C132.604,94.189 131.348,96.383 129.522,96.441C126.979,96.521 125.316,94.454 125.71,91.71C126.341,87.31 130.712,87.024 130.712,87.024C133.04,87.075 134.85,87.402 134.935,88.65L134.935,94.417C135.125,95.273 135.593,95.558 136.168,95.625L135.917,96.144L132.981,96.144ZM217.271,96.144C216.97,96.247 216.873,96.123 216.894,95.866L216.894,94.189C216.894,94.189 215.638,96.383 213.812,96.441C211.269,96.521 209.606,94.454 210,91.71C210.631,87.31 215.002,87.024 215.002,87.024C217.33,87.075 219.141,87.402 219.226,88.65L219.226,94.417C219.415,95.273 219.883,95.558 220.458,95.625L220.207,96.144L217.271,96.144ZM65.752,96.144C65.451,96.247 65.353,96.123 65.375,95.866L65.375,94.189C65.375,94.189 64.119,96.383 62.293,96.441C59.75,96.521 58.087,94.454 58.481,91.71C59.112,87.31 63.483,87.024 63.483,87.024C65.811,87.075 67.621,87.402 67.706,88.65L67.706,94.417C67.895,95.273 68.364,95.558 68.939,95.625L68.688,96.144L65.752,96.144ZM56.389,86.225C56.832,86.408 57.144,86.248 57.261,85.585L57.261,84.656C57.261,84.656 51.537,81.351 47.548,85.763C44.807,88.794 46.102,92.515 48.237,94.807C49.808,96.494 54.717,96.826 56.389,96.027C56.96,95.754 57.261,94.287 57.261,94.287L57.075,93.979C56.229,95.041 49.315,97.758 48.856,90.688C48.501,85.212 51.733,84.257 53.92,84.851C55.641,85.319 56.415,86.214 56.389,86.225ZM207.11,96.284L201.885,96.284C201.8,95.725 202.104,95.461 202.61,95.354C202.992,95.222 203.211,94.9 203.251,94.368L203.251,89.069C203.308,88.473 202.685,88.214 201.885,88.041C201.852,87.778 201.913,87.528 202.11,87.294L205.252,87.294C205.53,87.351 205.608,87.535 205.61,87.769L205.61,88.842C206.305,87.939 207.062,87.136 208.251,87.024C208.96,87.151 209.205,87.921 209.342,88.842L208.443,89.687C206.844,88.851 205.841,89.093 205.61,90.734L205.61,94.368C205.509,95.14 206.346,95.418 207.482,95.538C207.439,95.827 207.313,96.075 207.11,96.284ZM187.764,89.596C188.08,89.729 188.301,89.613 188.384,89.132L188.384,87.536C188.384,87.536 184.315,85.488 181.479,88.69C179.531,90.89 180.431,93.609 181.969,95.255C182.833,96.18 186.377,96.597 187.566,96.017C187.971,95.819 188.562,94.447 188.562,94.447L188.107,94.142C187.821,95.208 182.884,97.087 182.866,92.102C182.854,88.897 184.513,87.882 186.009,88.028C187.273,88.151 187.783,89.588 187.764,89.596ZM124.346,96.199L119.519,96.199C119.459,95.824 119.594,95.594 119.984,95.551C120.475,95.336 120.79,94.995 120.864,94.483L120.864,89.132C120.853,88.49 120.386,88.165 119.519,88.12C119.448,87.816 119.536,87.544 119.747,87.297L123.286,87.297L123.286,94.483C123.174,95.102 123.654,95.439 124.606,95.551C124.677,95.811 124.653,96.045 124.346,96.199ZM155.388,96.199L151.564,96.199C151.564,95.729 151.808,95.475 152.344,95.482C152.813,95.369 153.028,94.869 152.971,94.482L152.971,85.632C152.651,85.065 152.059,84.667 151.2,84.432C151.145,84.096 151.291,83.831 151.564,83.612L154.712,83.612C155.19,83.731 155.477,84.009 155.591,84.432L159.619,92.835L163.949,84.432C164.21,83.876 164.569,83.594 165.037,83.612L167.509,83.612C168.05,83.663 167.992,84.492 167.509,84.688C166.891,84.715 166.528,85.029 166.417,85.632L166.417,94.482C166.457,95.087 166.876,95.435 167.742,95.482L167.509,96.199L162.462,96.199C162.547,95.738 162.805,95.479 163.287,95.482C163.754,95.234 163.949,94.892 163.949,94.482L163.949,87.094L159.368,96.199L158.619,96.199L154.33,87.094L154.33,94.482C154.341,95.085 154.791,95.399 155.591,95.482C155.657,95.755 155.601,95.997 155.388,96.199ZM141.659,96.199L136.843,96.199C136.75,95.901 136.868,95.653 137.121,95.436C137.611,95.359 138.027,95.148 138.311,94.696L138.311,89.022C138.265,88.382 137.602,88.213 136.843,88.118C136.865,87.805 136.967,87.614 137.121,87.283L140.214,87.283C140.561,87.286 140.707,87.461 140.652,87.81L140.652,89.022C142.372,86.898 144.162,86.656 146,87.678C146.554,88.36 146.784,89.047 146.738,89.739L146.738,94.512C146.783,95.097 147.221,95.421 148.124,95.436C148.183,95.767 148.117,96.03 147.876,96.199L143.144,96.199C143.128,95.949 143.182,95.696 143.371,95.436C143.942,95.42 144.324,95.18 144.347,94.512L144.347,89.956C143.567,87.381 140.757,88.91 140.652,91.978L140.652,94.696C140.737,95.153 141.115,95.433 141.954,95.436C141.912,95.738 141.808,95.988 141.659,96.199ZM112.038,96.199L107.223,96.199C107.129,95.901 107.247,95.653 107.5,95.436C107.99,95.359 108.407,95.148 108.69,94.696L108.69,89.022C108.644,88.382 107.981,88.213 107.223,88.118C107.245,87.805 107.347,87.614 107.5,87.283L110.594,87.283C110.94,87.286 111.087,87.461 111.032,87.81L111.032,89.022C112.752,86.898 114.542,86.656 116.38,87.678C116.934,88.36 117.163,89.047 117.118,89.739L117.118,94.512C117.163,95.097 117.601,95.421 118.504,95.436C118.563,95.767 118.496,96.03 118.256,96.199L113.523,96.199C113.508,95.949 113.561,95.696 113.751,95.436C114.321,95.42 114.703,95.18 114.727,94.512L114.727,89.956C113.947,87.381 111.137,88.91 111.032,91.978L111.032,94.696C111.116,95.153 111.494,95.433 112.334,95.436C112.291,95.738 112.188,95.988 112.038,96.199ZM236.389,96.199L231.574,96.199C231.48,95.901 231.598,95.653 231.851,95.436C232.341,95.359 232.758,95.148 233.041,94.696L233.041,89.022C232.995,88.382 232.332,88.213 231.574,88.118C231.595,87.805 231.698,87.614 231.851,87.283L234.944,87.283C235.291,87.286 235.437,87.461 235.383,87.81L235.383,89.022C237.103,86.898 238.893,86.656 240.73,87.678C241.284,88.36 241.514,89.047 241.469,89.739L241.469,94.512C241.513,95.097 241.952,95.421 242.855,95.436C242.913,95.767 242.847,96.03 242.607,96.199L237.874,96.199C237.859,95.949 237.912,95.696 238.102,95.436C238.672,95.42 239.054,95.18 239.078,94.512L239.078,89.956C238.297,87.381 235.488,88.91 235.383,91.978L235.383,94.696C235.467,95.153 235.845,95.433 236.685,95.436C236.642,95.738 236.539,95.988 236.389,96.199ZM74.608,96.109L69.724,96.109C69.707,95.73 70.014,95.471 70.596,95.315C70.983,94.957 71.082,94.75 71.045,94.346L71.045,84.569C71.004,83.959 70.392,83.716 69.724,83.652C69.659,83.439 69.683,83.231 69.94,83.039L72.993,83.039C73.363,83.055 73.454,83.236 73.428,83.652L73.428,94.346C73.534,95.279 74.091,95.533 74.845,95.49L74.608,96.109ZM101.398,88.133C102.687,88.133 103.733,89.83 103.733,91.92C103.733,94.011 102.687,95.708 101.398,95.708C100.109,95.708 99.062,94.011 99.062,91.92C99.062,89.83 100.109,88.133 101.398,88.133ZM193.601,90.466L193.601,94.018C193.566,96.078 196.379,95.832 197.242,94.439C197.766,93.034 197.724,91.687 196.471,90.466C195.508,90.053 194.552,90.124 193.601,90.466ZM130.91,87.988C134.134,87.698 132.235,95.156 129.99,95.01C127.36,94.84 127.724,88.275 130.91,87.988ZM63.681,87.988C66.905,87.698 65.006,95.156 62.761,95.01C60.131,94.84 60.495,88.275 63.681,87.988ZM174.278,87.988C177.502,87.698 175.603,95.156 173.358,95.01C170.728,94.84 171.092,88.275 174.278,87.988ZM90.615,87.988C93.838,87.698 91.94,95.156 89.694,95.01C87.064,94.84 87.429,88.275 90.615,87.988ZM215.2,87.988C218.424,87.698 216.526,95.156 214.28,95.01C211.65,94.84 212.014,88.275 215.2,87.988ZM245.925,90.872L249.021,90.872C249.366,90.814 249.527,90.595 249.557,90.259C249.689,88.258 248.164,87.153 246.618,88.649C246.132,89.335 245.903,90.076 245.925,90.872ZM78.431,90.872L81.527,90.872C81.872,90.814 82.033,90.595 82.063,90.259C82.195,88.258 80.67,87.153 79.125,88.649C78.638,89.335 78.409,90.076 78.431,90.872ZM193.601,84.654L193.601,89.323C195.552,89.289 196.866,88.603 196.971,86.675C197.067,85.068 195.915,84.552 193.601,84.654ZM122.067,83.372C122.793,83.372 123.383,83.962 123.383,84.688C123.383,85.415 122.793,86.004 122.067,86.004C121.341,86.004 120.751,85.415 120.751,84.688C120.751,83.962 121.341,83.372 122.067,83.372Z"/>
    </g>
</svg>
