<?xml version="1.0" encoding="UTF-8" standalone="no"?>
<!DOCTYPE svg PUBLIC "-//W3C//DTD SVG 1.1//EN" "http://www.w3.org/Graphics/SVG/1.1/DTD/svg11.dtd">
<svg width="100%" height="100%" viewBox="0 0 300 100" version="1.1" xmlns="http://www.w3.org/2000/svg" xmlns:xlink="http://www.w3.org/1999/xlink" xml:space="preserve" xmlns:serif="http://www.serif.com/" style="fill-rule:evenodd;clip-rule:evenodd;stroke-linejoin:round;stroke-miterlimit:2;">
    <g transform="matrix(1,0,0,1,0.496619,19.0195)">
        <g id="path31" transform="matrix(2.19019,0,0,-2.19019,-1465.18,1781.82)">
            <path d="M780.522,813.07L759.619,813.07L759.619,809.257L767.244,809.257L767.244,785.729L772.426,785.729L772.426,809.257L779.143,809.257L780.522,813.07" style="fill:rgb(1,95,140);fill-rule:nonzero;"/>
        </g>
        <g id="path33" transform="matrix(2.19019,0,0,-2.19019,-1465.18,1781.82)">
            <path d="M732.551,813.07L724.038,813.07L724.038,785.729L729.218,785.729L729.218,795.794L732.551,795.794C739.405,795.794 742.343,800.019 742.343,804.433C742.343,808.846 739.405,813.07 732.551,813.07ZM731.982,799.43L729.218,799.43L729.218,809.396L731.982,809.396C735.715,809.396 736.769,807.673 736.769,804.433C736.769,801.194 735.715,799.43 731.982,799.43" style="fill:rgb(1,95,140);fill-rule:nonzero;"/>
        </g>
        <g id="path35" transform="matrix(2.19019,0,0,-2.19019,-1465.18,1781.82)">
            <rect x="748.429" y="785.729" width="5.182" height="27.342" style="fill:rgb(1,95,140);fill-rule:nonzero;"/>
        </g>
        <g id="path37" transform="matrix(2.19019,0,0,-2.19019,-1465.18,1781.82)">
            <path d="M682.233,809.949C684.651,809.949 686.851,808.966 688.475,807.902L689.743,811.411C687.942,812.754 685.128,813.545 682.188,813.545C677.447,813.545 673.278,811.174 670.995,807.264C669.635,804.97 668.976,802.245 668.976,798.965C668.976,795.015 670.163,791.695 672.444,789.206C674.815,786.639 678.018,785.255 682.056,785.255C683.995,785.255 686.079,785.578 688.091,786.097L689.516,790.037C686.324,788.986 683.685,788.81 682.54,788.81C679.598,788.81 677.096,790.074 675.78,792.681C674.989,794.223 674.595,796.12 674.595,799.477C674.595,802.718 675.122,805.011 676.175,806.67C677.492,808.763 679.642,809.949 682.233,809.949" style="fill:rgb(1,95,140);fill-rule:nonzero;"/>
        </g>
        <g id="path39" transform="matrix(2.19019,0,0,-2.19019,-1465.18,1781.82)">
            <path d="M708.736,813.07L703.446,813.07L693.56,785.729L698.236,785.729L700.451,791.986L710.75,791.986L712.983,785.729L718.622,785.729L708.736,813.07ZM701.799,795.793L705.601,806.535L709.391,795.793L701.799,795.793" style="fill:rgb(1,95,140);fill-rule:nonzero;"/>
        </g>
        <g id="path41" transform="matrix(2.19019,0,0,-2.19019,-1465.18,1781.82)">
            <path d="M795.607,813.07L790.318,813.07L780.432,785.729L785.108,785.729L787.323,791.986L797.622,791.986L799.855,785.729L805.494,785.729L795.607,813.07ZM788.67,795.793L792.472,806.535L796.263,795.793L788.67,795.793" style="fill:rgb(1,95,140);fill-rule:nonzero;"/>
        </g>
    </g>
</svg>
