<?xml version="1.0" encoding="UTF-8" standalone="no"?>
<!DOCTYPE svg PUBLIC "-//W3C//DTD SVG 1.1//EN" "http://www.w3.org/Graphics/SVG/1.1/DTD/svg11.dtd">
<svg width="100%" height="100%" viewBox="0 0 300 100" version="1.1" xmlns="http://www.w3.org/2000/svg" xmlns:xlink="http://www.w3.org/1999/xlink" xml:space="preserve" xmlns:serif="http://www.serif.com/" style="fill-rule:evenodd;clip-rule:evenodd;stroke-linejoin:round;stroke-miterlimit:2;">
    <g>
        <path d="M135.577,9.897L136.518,15.015C124.706,19.279 115.612,27.024 108.261,37.005C112.151,25.917 119.213,16.077 135.577,9.897Z" style="fill:rgb(105,150,31);"/>
        <path d="M105.544,48.168L104.822,52.604C124.729,40.408 146.764,34.384 171.166,35.221L169.785,28.015C145.822,29.331 124.627,36.512 105.544,48.168Z" style="fill:rgb(241,182,0);"/>
        <path d="M120.526,31.183L120.043,34.299C152.63,18.957 190.995,9.774 233.873,12.355L231.661,3.876C176.079,6.264 143.444,16.964 120.526,31.183Z" style="fill:rgb(177,9,50);"/>
    </g>
    <g>
        <path d="M77.023,65.452L78.906,69.739C85.821,60.535 105.046,70.875 81.029,75.815C72.21,77.628 70.362,95.656 85.945,93.985C87.554,93.813 90.925,92.072 92.147,89.865C93.014,92.393 94.573,93.948 97.211,93.985L97.211,67.797C97.211,62.607 83.908,59.041 77.023,65.452ZM90.429,86.554C91.005,85.566 91.798,84.523 92.413,83.181L92.333,75.705C89.035,76.871 86.336,77.744 84.192,78.379C81.121,78.685 78.722,81.186 78.722,84.221C78.722,87.463 81.457,90.094 84.826,90.094C87.334,90.094 89.49,88.636 90.429,86.554Z" style="fill:rgb(155,154,154);"/>
        <path d="M165.932,76.407C165.932,59.017 192.221,55.913 192.221,76.876L170.405,76.895C170.109,89.298 179.692,93.941 189.322,87.743L191.085,91.236C180.608,97.801 165.932,95.013 165.932,76.407ZM171.065,74.027L187.428,73.971C185.394,61.919 171.425,63.309 171.065,74.027Z" style="fill:rgb(155,154,154);"/>
        <path d="M62.167,70.421C58.798,62.813 48.409,65.277 47.63,73.295L47.63,93.985L43,93.985L43,50L47.63,50L47.63,65.304C54.6,58.694 66.797,62.24 66.797,70.421L66.797,93.985L62.167,93.985L62.167,70.421Z" style="fill:rgb(155,154,154);"/>
        <g transform="matrix(1,0,0,1,156.616,0.0160765)">
            <path d="M54.894,66.638C49.994,65.212 47.569,68.673 47.63,73.295L47.63,93.985L43,93.985L43,61.856L47.63,61.856L47.63,65.304C49.383,63.087 51.553,61.087 54.931,61.856L54.894,66.638Z" style="fill:rgb(155,154,154);"/>
        </g>
        <g transform="matrix(-1,0,0,-1,172.341,155.857)">
            <path d="M62.167,70.421C58.798,62.813 48.409,65.277 47.63,73.295L47.63,93.985L43,93.985L43,61.872C44.841,62.132 46.375,63.304 47.63,65.304C54.6,58.694 66.797,62.24 66.797,70.421L66.797,93.985L62.167,93.985L62.167,70.421Z" style="fill:rgb(155,154,154);"/>
        </g>
        <path d="M34,60L34,55C16.188,47.16 5.834,59.982 5.868,72.973C5.904,86.485 17.015,100.18 34,91L34,86C21.081,97.597 11.255,85.377 11.007,73.247C10.767,61.49 20.647,48.818 34,60Z" style="fill:rgb(155,154,154);"/>
        <g transform="matrix(0.789505,0,0,0.778424,131.885,21.2937)">
            <path d="M34,60.914L34,55C16.188,47.16 5.834,59.982 5.868,72.973C5.904,86.485 17.015,100.18 34,91L33.981,83.826C21.061,95.423 12.286,85.425 12.038,73.295C11.799,61.538 20.647,49.732 34,60.914Z" style="fill:rgb(155,154,154);"/>
        </g>
    </g>
</svg>
