<?xml version="1.0" encoding="UTF-8" standalone="no"?>
<svg
   xmlns:dc="http://purl.org/dc/elements/1.1/"
   xmlns:cc="http://creativecommons.org/ns#"
   xmlns:rdf="http://www.w3.org/1999/02/22-rdf-syntax-ns#"
   xmlns:svg="http://www.w3.org/2000/svg"
   xmlns="http://www.w3.org/2000/svg"
   xmlns:sodipodi="http://sodipodi.sourceforge.net/DTD/sodipodi-0.dtd"
   xmlns:inkscape="http://www.inkscape.org/namespaces/inkscape"
   id="svg190"
   style="clip-rule:evenodd;fill-rule:evenodd;stroke-linejoin:round;stroke-miterlimit:2"
   xml:space="preserve"
   version="1.1"
   viewBox="0 0 282.70907 155.52895"
   height="155.52895"
   width="282.70908"
   sodipodi:docname="clatterbridge.svg"
   inkscape:version="0.92.5 (2060ec1f9f, 2020-04-08)"><sodipodi:namedview
   pagecolor="#ffffff"
   bordercolor="#666666"
   borderopacity="1"
   objecttolerance="10"
   gridtolerance="10"
   guidetolerance="10"
   inkscape:pageopacity="0"
   inkscape:pageshadow="2"
   inkscape:window-width="2800"
   inkscape:window-height="1672"
   id="namedview204"
   showgrid="false"
   inkscape:zoom="3.341717"
   inkscape:cx="-54.951737"
   inkscape:cy="76.441132"
   inkscape:window-x="80"
   inkscape:window-y="54"
   inkscape:window-maximized="1"
   inkscape:current-layer="g1068" /><metadata
   id="metadata196"><rdf:RDF><cc:Work
       rdf:about=""><dc:format>image/svg+xml</dc:format><dc:type
         rdf:resource="http://purl.org/dc/dcmitype/StillImage" /><dc:title /></cc:Work></rdf:RDF></metadata><defs
   id="defs194" />
    
<g
   transform="translate(-46.230614,-56.79845)"
   id="g1068"><g
   id="g1014"
   transform="matrix(0.39703779,0,0,0.39703779,208.41492,68.94143)"><path
     style="opacity:1;fill:#005eb8;fill-opacity:1;stroke:#ffffff;stroke-width:0.75590551;stroke-linecap:butt;stroke-linejoin:round;stroke-miterlimit:4;stroke-dasharray:none;stroke-opacity:1"
     d="M 0,-0.18099548 H 268.23529 V 99.999997 H 0 Z"
     id="rect198"
     inkscape:connector-curvature="0" /><g
     style="fill:#ffffff;fill-opacity:1"
     id="g188"
     transform="matrix(6.50887,0,0,6.50887,5.2420193,-1.5105724)">
        <path
   id="path186"
   style="fill:#ffffff;fill-opacity:1;fill-rule:nonzero"
   d="m 3.9,1.5 h 4.4 l 2.6,9 H 11 l 1.8,-9 h 3.3 l -2.8,13 H 9 L 6.3,5.5 H 6.2 l -1.8,9 H 1.1 m 16.2,-13 h 3.6 l -1,4.9 h 4 L 25,1.5 h 3.5 l -2.7,13 h -3.5 l 1.1,-5.6 h -4.1 l -1.2,5.6 H 14.7 M 37.7,4.4 C 37,4.1 36.1,3.8 34.8,3.8 c -1.4,0 -2.5,0.2 -2.5,1.3 0,1.8 5.1,1.2 5.1,5.1 0,3.6 -3.3,4.5 -6.4,4.5 -1.3,0 -2.9,-0.3 -4,-0.7 l 0.8,-2.7 c 0.7,0.4 2.1,0.7 3.2,0.7 1.1,0 2.8,-0.2 2.8,-1.5 0,-2.1 -5.1,-1.3 -5.1,-5 0,-3.4 2.9,-4.4 5.8,-4.4 1.6,0 3.1,0.2 4,0.6"
   inkscape:connector-curvature="0" />
    </g></g><g
   aria-label="The Clatterbridge
Cancer Centre"
   style="font-style:normal;font-variant:normal;font-weight:bold;font-stretch:normal;font-size:26.66666603px;line-height:1.25;font-family:Frutiger;-inkscape-font-specification:'Frutiger Bold';letter-spacing:0px;word-spacing:0px;fill:#000000;fill-opacity:1;stroke:none"
   id="text870"><path
     d="m 74.736389,137.49167 h -4.3125 v -17.82813 h -6.09375 v -3.51562 h 16.546875 v 3.51562 h -6.140625 z"
     style="font-size:32px;text-align:end;text-anchor:end"
     id="path838" /><path
     d="m 97.845764,137.49167 h -4.09375 v -7.6875 q 0,-2.28125 -0.5,-3.64063 -0.484375,-1.375 -2.3125,-1.375 -1.96875,0 -2.765625,1.625 -0.796875,1.60938 -0.796875,3.78125 v 0.79688 6.5 h -4.09375 v -23.04688 h 4.09375 v 9.45313 q 0.890625,-1.28125 2.140625,-1.90625 1.25,-0.625 2.859375,-0.625 1.671875,0 2.75,0.54687 1.09375,0.53125 1.671875,1.45313 0.59375,0.92187 0.8125,2.15625 0.234375,1.21875 0.234375,2.875 z"
     style="font-size:32px;text-align:end;text-anchor:end"
     id="path840" /><path
     d="m 114.61139,133.27292 0.0625,3.54687 q -2.51563,1.09375 -5.4375,1.09375 -1.95313,0 -3.48438,-0.54687 -1.51562,-0.5625 -2.59375,-1.64063 -1.07812,-1.09375 -1.64062,-2.625 -0.5625,-1.54687 -0.5625,-3.51562 0,-1.8125 0.51562,-3.32813 0.53125,-1.53125 1.51563,-2.64062 0.98437,-1.125 2.42187,-1.75 1.45313,-0.625 3.28125,-0.625 1.78125,0 3.14063,0.64062 1.35937,0.64063 2.20312,1.76563 0.85938,1.125 1.28125,2.60937 0.42188,1.46875 0.42188,3.23438 0,0.3125 -0.0156,0.46875 -0.0156,0.15625 -0.0312,0.39062 -0.0156,0.23438 -0.0469,0.54688 h -10.65625 q 0.15625,1.875 1.45312,2.92187 1.3125,1.04688 3.25,1.04688 2.1875,0 4.92188,-1.59375 z m -2.78125,-5.21875 q -0.0312,-1.0625 -0.39063,-1.95313 -0.34375,-0.89062 -1.07812,-1.4375 -0.71875,-0.54687 -1.79688,-0.54687 -1.10937,0 -1.90625,0.54687 -0.78125,0.53125 -1.21875,1.42188 -0.42187,0.89062 -0.51562,1.96875 z"
     style="font-size:32px;text-align:end;text-anchor:end"
     id="path842" /><path
     d="m 143.79889,133.17917 0.15625,3.76562 q -2.65625,0.70313 -4.85938,0.70313 -2.5,0 -4.625,-0.65625 -2.125,-0.65625 -3.75,-2 -1.60937,-1.35938 -2.48437,-3.35938 -0.85938,-2 -0.85938,-4.60937 0,-2.60938 0.78125,-4.67188 0.78125,-2.0625 2.26563,-3.48437 1.5,-1.4375 3.59375,-2.15625 2.09375,-0.71875 4.6875,-0.71875 2.3125,0 5.15625,0.92187 l -0.34375,3.65625 q -2.10938,-1.15625 -4.57813,-1.15625 -2.09375,0 -3.6875,0.90625 -1.59375,0.89063 -2.45312,2.5 -0.84375,1.60938 -0.84375,3.70313 0,2.17187 0.89062,3.90625 0.90625,1.73437 2.5625,2.6875 1.65625,0.95312 3.875,0.95312 2.10938,0 4.51563,-0.89062 z"
     style="font-size:32px;text-align:end;text-anchor:end"
     id="path844" /><path
     d="m 150.79889,137.49167 h -4.09375 v -23.04688 h 4.09375 z"
     style="font-size:32px;text-align:end;text-anchor:end"
     id="path846" /><path
     d="m 168.17389,137.49167 h -3.65625 l -0.0625,-2.375 q -0.73438,1.26562 -2.0625,1.95312 -1.3125,0.67188 -2.85938,0.67188 -1.57812,0 -2.82812,-0.54688 -1.23438,-0.54687 -1.95313,-1.65625 -0.71875,-1.125 -0.71875,-2.71875 0,-2.96875 2.32813,-4.0625 2.32812,-1.09375 5.67187,-1.09375 0.48438,0 0.625,0.0156 0.14063,0 0.625,0.0312 0.48438,0.0156 0.98438,0.0469 0,-1.76562 -0.85938,-2.625 -0.85937,-0.85937 -2.65625,-0.85937 -2.71875,0 -4.90625,1.73437 l -0.125,-3.5625 q 2.54688,-1.07812 5.51563,-1.07812 1.10937,0 2.20312,0.21875 1.09375,0.21875 2.01563,0.73437 0.9375,0.5 1.54687,1.34375 0.625,0.84375 0.8125,1.9375 0.20313,1.07813 0.20313,2.57813 0,1.54687 0,3.10937 0.0156,1.5625 0.0312,2.85938 0.0312,1.28125 0.125,3.34375 z m -3.84375,-7.20313 q -0.15625,-0.0312 -0.48438,-0.0312 h -0.5 q -1.34375,0 -2.46875,0.15625 -1.10937,0.14063 -1.95312,0.75 -0.82813,0.59375 -0.82813,1.75 0,0.9375 0.73438,1.5 0.75,0.54688 1.73437,0.54688 1.85938,0 2.8125,-1.375 0.95313,-1.375 0.95313,-3.29688 z"
     style="font-size:32px;text-align:end;text-anchor:end"
     id="path848" /><path
     d="m 181.03326,134.10104 0.14063,3.20313 q -1.5625,0.3125 -2.76563,0.3125 -2.01562,0 -3.1875,-0.73438 -1.17187,-0.75 -1.64062,-2.10937 -0.46875,-1.375 -0.46875,-3.35938 v -6.625 h -2.98438 v -3.04687 h 3.04688 v -3.21875 l 4.09375,-1.34375 v 4.5625 h 3.60937 v 3.04687 h -3.60937 v 5.76563 q 0,1.84375 0.39062,2.8125 0.40625,0.95312 1.96875,0.95312 0.57813,0 1.40625,-0.21875 z"
     style="font-size:32px;text-align:end;text-anchor:end"
     id="path850" /><path
     d="m 192.84576,134.10104 0.14063,3.20313 q -1.5625,0.3125 -2.76563,0.3125 -2.01562,0 -3.1875,-0.73438 -1.17187,-0.75 -1.64062,-2.10937 -0.46875,-1.375 -0.46875,-3.35938 v -6.625 h -2.98438 v -3.04687 h 3.04688 v -3.21875 l 4.09375,-1.34375 v 4.5625 h 3.60937 v 3.04687 h -3.60937 v 5.76563 q 0,1.84375 0.39062,2.8125 0.40625,0.95312 1.96875,0.95312 0.57813,0 1.40625,-0.21875 z"
     style="font-size:32px;text-align:end;text-anchor:end"
     id="path852" /><path
     d="m 208.53326,133.27292 0.0625,3.54687 q -2.51562,1.09375 -5.4375,1.09375 -1.95312,0 -3.48437,-0.54687 -1.51563,-0.5625 -2.59375,-1.64063 -1.07813,-1.09375 -1.64063,-2.625 -0.5625,-1.54687 -0.5625,-3.51562 0,-1.8125 0.51563,-3.32813 0.53125,-1.53125 1.51562,-2.64062 0.98438,-1.125 2.42188,-1.75 1.45312,-0.625 3.28125,-0.625 1.78125,0 3.14062,0.64062 1.35938,0.64063 2.20313,1.76563 0.85937,1.125 1.28125,2.60937 0.42187,1.46875 0.42187,3.23438 0,0.3125 -0.0156,0.46875 -0.0156,0.15625 -0.0312,0.39062 -0.0156,0.23438 -0.0469,0.54688 h -10.65625 q 0.15625,1.875 1.45313,2.92187 1.3125,1.04688 3.25,1.04688 2.1875,0 4.92187,-1.59375 z m -2.78125,-5.21875 q -0.0312,-1.0625 -0.39062,-1.95313 -0.34375,-0.89062 -1.07813,-1.4375 -0.71875,-0.54687 -1.79687,-0.54687 -1.10938,0 -1.90625,0.54687 -0.78125,0.53125 -1.21875,1.42188 -0.42188,0.89062 -0.51563,1.96875 z"
     style="font-size:32px;text-align:end;text-anchor:end"
     id="path854" /><path
     d="m 217.14264,137.49167 h -4.09375 v -11.07813 q -0.0781,-3.95312 -0.125,-4.76562 h 3.71875 l 0.0937,4 q 0.53125,-1.875 1.60937,-3 1.09375,-1.125 2.84375,-1.125 0.53125,0 1.20313,0.15625 v 3.84375 q -0.8125,-0.21875 -1.4375,-0.21875 -1.45313,0 -2.3125,0.76562 -0.85938,0.76563 -1.1875,1.96875 -0.3125,1.1875 -0.3125,2.60938 v 0.3125 z"
     style="font-size:32px;text-align:end;text-anchor:end"
     id="path856" /><path
     d="m 228.73639,137.49167 h -3.84375 v -23.04688 h 4.09375 v 7.04688 q 0,1.70312 -0.15625,2.9375 0.8125,-1.5625 2.07812,-2.3125 1.26563,-0.75 3.07813,-0.75 1.65625,0 2.85937,0.64062 1.21875,0.625 1.98438,1.73438 0.76562,1.10937 1.14062,2.51562 0.375,1.39063 0.375,2.98438 0,1.6875 -0.34375,3.20312 -0.34375,1.5 -1.09375,2.6875 -0.75,1.17188 -2.03125,1.89063 -1.28125,0.71875 -3.0625,0.71875 -3.51562,0 -4.98437,-2.75 z m 7.35937,-7.90625 q 0,-1.90625 -0.82812,-3.34375 -0.8125,-1.45313 -2.5625,-1.45313 -1.84375,0 -2.76563,1.5 -0.92187,1.5 -0.92187,3.42188 0,1.92187 0.90625,3.375 0.90625,1.4375 2.71875,1.4375 1.1875,0 1.95312,-0.76563 0.78125,-0.76562 1.14063,-1.90625 0.35937,-1.15625 0.35937,-2.26562 z"
     style="font-size:32px;text-align:end;text-anchor:end"
     id="path858" /><path
     d="m 247.86139,137.49167 h -4.09375 v -11.07813 q -0.0781,-3.95312 -0.125,-4.76562 h 3.71875 l 0.0937,4 q 0.53125,-1.875 1.60937,-3 1.09375,-1.125 2.84375,-1.125 0.53125,0 1.20313,0.15625 v 3.84375 q -0.8125,-0.21875 -1.4375,-0.21875 -1.45313,0 -2.3125,0.76562 -0.85938,0.76563 -1.1875,1.96875 -0.3125,1.1875 -0.3125,2.60938 v 0.3125 z"
     style="font-size:32px;text-align:end;text-anchor:end"
     id="path860" /><path
     d="m 259.73639,137.49167 h -4.09375 v -15.84375 h 4.09375 z m 0.0625,-18.71875 h -4.21875 v -3.875 h 4.21875 z"
     style="font-size:32px;text-align:end;text-anchor:end"
     id="path862" /><path
     d="m 278.51764,137.49167 h -3.875 l -0.0625,-2.6875 q -0.70313,1.42187 -2.01563,2.1875 -1.29687,0.75 -2.9375,0.75 -1.71875,0 -3.01562,-0.67188 -1.28125,-0.6875 -2.07813,-1.84375 -0.79687,-1.15625 -1.1875,-2.625 -0.375,-1.46875 -0.375,-3.07812 0,-2.125 0.70313,-3.98438 0.70312,-1.875 2.17187,-3.01562 1.48438,-1.15625 3.6875,-1.15625 1.65625,0 2.89063,0.73437 1.23437,0.73438 2.03125,2.17188 -0.15625,-1.15625 -0.15625,-2.8125 v -7.01563 h 4.09375 v 18.4375 q 0.0312,1.53125 0.0469,2.6875 0.0312,1.15625 0.0781,1.92188 z m -4.15625,-7.8125 q 0,-1.23438 -0.39063,-2.32813 -0.39062,-1.10937 -1.23437,-1.82812 -0.82813,-0.73438 -2.0625,-0.73438 -1.84375,0 -2.65625,1.42188 -0.79688,1.40625 -0.79688,3.40625 0,1.875 0.89063,3.39062 0.89062,1.51563 2.625,1.51563 1.17187,0 2,-0.70313 0.84375,-0.71875 1.23437,-1.8125 0.39063,-1.10937 0.39063,-2.32812 z"
     style="font-size:32px;text-align:end;text-anchor:end"
     id="path864" /><path
     d="m 293.29889,121.67917 h 3.90625 v 13.89062 q 0,4.29688 -1.98438,6.48438 -1.96875,2.1875 -6.26562,2.1875 -2.78125,0 -5.54688,-1.125 l 0.32813,-3.54688 q 1.26562,0.625 2.4375,0.96875 1.1875,0.34375 2.39062,0.34375 1.34375,0 2.51563,-0.57812 1.17187,-0.57813 1.70312,-1.6875 0.35938,-0.75 0.4375,-1.65625 0.0937,-0.90625 0.14063,-2.64063 -0.78125,1.45313 -2.1875,2.3125 -1.40625,0.85938 -3.0625,0.85938 -2.14063,0 -3.59375,-1.14063 -1.4375,-1.14062 -2.10938,-2.98437 -0.65625,-1.84375 -0.65625,-3.9375 0,-2.14063 0.67188,-3.96875 0.6875,-1.84375 2.14062,-2.96875 1.45313,-1.125 3.64063,-1.125 1.71875,0 3.01562,0.70312 1.29688,0.70313 2.01563,2.14063 z m -0.15625,7.71875 q 0,-0.79688 -0.23438,-1.65625 -0.23437,-0.85938 -0.6875,-1.5 -0.4375,-0.65625 -1.15625,-1.0625 -0.71875,-0.42188 -1.57812,-0.42188 -1.75,0 -2.625,1.375 -0.85938,1.375 -0.85938,3.23438 0,1.84375 0.875,3.32812 0.89063,1.46875 2.60938,1.46875 1.21875,0 2.03125,-0.70312 0.8125,-0.70313 1.21875,-1.8125 0.40625,-1.10938 0.40625,-2.25 z"
     style="font-size:32px;text-align:end;text-anchor:end"
     id="path866" /><path
     d="m 313.93951,133.27292 0.0625,3.54687 q -2.51562,1.09375 -5.4375,1.09375 -1.95312,0 -3.48437,-0.54687 -1.51563,-0.5625 -2.59375,-1.64063 -1.07813,-1.09375 -1.64063,-2.625 -0.5625,-1.54687 -0.5625,-3.51562 0,-1.8125 0.51563,-3.32813 0.53125,-1.53125 1.51562,-2.64062 0.98438,-1.125 2.42188,-1.75 1.45312,-0.625 3.28125,-0.625 1.78125,0 3.14062,0.64062 1.35938,0.64063 2.20313,1.76563 0.85937,1.125 1.28125,2.60937 0.42187,1.46875 0.42187,3.23438 0,0.3125 -0.0156,0.46875 -0.0156,0.15625 -0.0312,0.39062 -0.0156,0.23438 -0.0469,0.54688 h -10.65625 q 0.15625,1.875 1.45313,2.92187 1.3125,1.04688 3.25,1.04688 2.1875,0 4.92187,-1.59375 z m -2.78125,-5.21875 q -0.0312,-1.0625 -0.39062,-1.95313 -0.34375,-0.89062 -1.07813,-1.4375 -0.71875,-0.54687 -1.79687,-0.54687 -1.10938,0 -1.90625,0.54687 -0.78125,0.53125 -1.21875,1.42188 -0.42188,0.89062 -0.51563,1.96875 z"
     style="font-size:32px;text-align:end;text-anchor:end"
     id="path868" /><path
     d="m 132.01764,173.17917 0.15625,3.76562 q -2.65625,0.70313 -4.85938,0.70313 -2.5,0 -4.625,-0.65625 -2.125,-0.65625 -3.75,-2 -1.60937,-1.35938 -2.48437,-3.35938 -0.85938,-2 -0.85938,-4.60937 0,-2.60938 0.78125,-4.67188 0.78125,-2.0625 2.26563,-3.48437 1.5,-1.4375 3.59375,-2.15625 2.09375,-0.71875 4.6875,-0.71875 2.3125,0 5.15625,0.92187 l -0.34375,3.65625 q -2.10938,-1.15625 -4.57813,-1.15625 -2.09375,0 -3.6875,0.90625 -1.59375,0.89063 -2.45312,2.5 -0.84375,1.60938 -0.84375,3.70313 0,2.17187 0.89062,3.90625 0.90625,1.73437 2.5625,2.6875 1.65625,0.95312 3.875,0.95312 2.10938,0 4.51563,-0.89062 z"
     style="font-size:32px;text-align:end;text-anchor:end"
     id="path870" /><path
     d="m 148.17389,177.49167 h -3.65625 l -0.0625,-2.375 q -0.73438,1.26562 -2.0625,1.95312 -1.3125,0.67188 -2.85938,0.67188 -1.57812,0 -2.82812,-0.54688 -1.23438,-0.54687 -1.95313,-1.65625 -0.71875,-1.125 -0.71875,-2.71875 0,-2.96875 2.32813,-4.0625 2.32812,-1.09375 5.67187,-1.09375 0.48438,0 0.625,0.0156 0.14063,0 0.625,0.0312 0.48438,0.0156 0.98438,0.0469 0,-1.76562 -0.85938,-2.625 -0.85937,-0.85937 -2.65625,-0.85937 -2.71875,0 -4.90625,1.73437 l -0.125,-3.5625 q 2.54688,-1.07812 5.51563,-1.07812 1.10937,0 2.20312,0.21875 1.09375,0.21875 2.01563,0.73437 0.9375,0.5 1.54687,1.34375 0.625,0.84375 0.8125,1.9375 0.20313,1.07813 0.20313,2.57813 0,1.54687 0,3.10937 0.0156,1.5625 0.0312,2.85938 0.0312,1.28125 0.125,3.34375 z m -3.84375,-7.20313 q -0.15625,-0.0312 -0.48438,-0.0312 h -0.5 q -1.34375,0 -2.46875,0.15625 -1.10937,0.14063 -1.95312,0.75 -0.82813,0.59375 -0.82813,1.75 0,0.9375 0.73438,1.5 0.75,0.54688 1.73437,0.54688 1.85938,0 2.8125,-1.375 0.95313,-1.375 0.95313,-3.29688 z"
     style="font-size:32px;text-align:end;text-anchor:end"
     id="path872" /><path
     d="m 156.04889,161.64792 0.0937,2.53125 q 1.90625,-2.78125 5.34375,-2.78125 3.1875,0 4.29687,1.89062 1.10938,1.875 1.10938,5.28125 v 8.92188 h -4.09375 v -7.96875 q 0,-2.10938 -0.54688,-3.42188 -0.53125,-1.3125 -2.32812,-1.3125 -1.92188,0 -2.70313,1.54688 -0.78125,1.53125 -0.78125,3.64062 v 7.51563 h -4.10937 v -10.07813 q 0,-3.35937 -0.15625,-5.76562 z"
     style="font-size:32px;text-align:end;text-anchor:end"
     id="path874" /><path
     d="m 181.61139,173.55417 0.23437,3.45312 q -2.0625,0.60938 -3.6875,0.60938 -1.8125,0 -3.32812,-0.54688 -1.51563,-0.5625 -2.60938,-1.625 -1.07812,-1.0625 -1.65625,-2.57812 -0.5625,-1.53125 -0.5625,-3.375 0,-2.34375 1,-4.15625 1.01563,-1.8125 2.84375,-2.8125 1.84375,-1 4.15625,-1 1.71875,0 3.48438,0.51562 l -0.3125,3.29688 q -1.40625,-0.54688 -2.53125,-0.54688 -1.28125,0 -2.29688,0.64063 -1.01562,0.625 -1.5625,1.6875 -0.53125,1.04687 -0.53125,2.34375 0,2.14062 1.25,3.4375 1.25,1.29687 3.35938,1.29687 1.34375,0 2.75,-0.64062 z"
     style="font-size:32px;text-align:end;text-anchor:end"
     id="path876" /><path
     d="m 197.42389,173.27292 0.0625,3.54687 q -2.51563,1.09375 -5.4375,1.09375 -1.95313,0 -3.48438,-0.54687 -1.51562,-0.5625 -2.59375,-1.64063 -1.07812,-1.09375 -1.64062,-2.625 -0.5625,-1.54687 -0.5625,-3.51562 0,-1.8125 0.51562,-3.32813 0.53125,-1.53125 1.51563,-2.64062 0.98437,-1.125 2.42187,-1.75 1.45313,-0.625 3.28125,-0.625 1.78125,0 3.14063,0.64062 1.35937,0.64063 2.20312,1.76563 0.85938,1.125 1.28125,2.60937 0.42188,1.46875 0.42188,3.23438 0,0.3125 -0.0156,0.46875 -0.0156,0.15625 -0.0312,0.39062 -0.0156,0.23438 -0.0469,0.54688 h -10.65625 q 0.15625,1.875 1.45312,2.92187 1.3125,1.04688 3.25,1.04688 2.1875,0 4.92188,-1.59375 z m -2.78125,-5.21875 q -0.0312,-1.0625 -0.39063,-1.95313 -0.34375,-0.89062 -1.07812,-1.4375 -0.71875,-0.54687 -1.79688,-0.54687 -1.10937,0 -1.90625,0.54687 -0.78125,0.53125 -1.21875,1.42188 -0.42187,0.89062 -0.51562,1.96875 z"
     style="font-size:32px;text-align:end;text-anchor:end"
     id="path878" /><path
     d="m 206.03326,177.49167 h -4.09375 v -11.07813 q -0.0781,-3.95312 -0.125,-4.76562 h 3.71875 l 0.0937,4 q 0.53125,-1.875 1.60938,-3 1.09375,-1.125 2.84375,-1.125 0.53125,0 1.20312,0.15625 v 3.84375 q -0.8125,-0.21875 -1.4375,-0.21875 -1.45312,0 -2.3125,0.76562 -0.85937,0.76563 -1.1875,1.96875 -0.3125,1.1875 -0.3125,2.60938 v 0.3125 z"
     style="font-size:32px;text-align:end;text-anchor:end"
     id="path880" /><path
     d="m 238.61139,173.17917 0.15625,3.76562 q -2.65625,0.70313 -4.85938,0.70313 -2.5,0 -4.625,-0.65625 -2.125,-0.65625 -3.75,-2 -1.60937,-1.35938 -2.48437,-3.35938 -0.85938,-2 -0.85938,-4.60937 0,-2.60938 0.78125,-4.67188 0.78125,-2.0625 2.26563,-3.48437 1.5,-1.4375 3.59375,-2.15625 2.09375,-0.71875 4.6875,-0.71875 2.3125,0 5.15625,0.92187 l -0.34375,3.65625 q -2.10938,-1.15625 -4.57813,-1.15625 -2.09375,0 -3.6875,0.90625 -1.59375,0.89063 -2.45312,2.5 -0.84375,1.60938 -0.84375,3.70313 0,2.17187 0.89062,3.90625 0.90625,1.73437 2.5625,2.6875 1.65625,0.95312 3.875,0.95312 2.10938,0 4.51563,-0.89062 z"
     style="font-size:32px;text-align:end;text-anchor:end"
     id="path882" /><path
     d="m 254.28326,173.27292 0.0625,3.54687 q -2.51562,1.09375 -5.4375,1.09375 -1.95312,0 -3.48437,-0.54687 -1.51563,-0.5625 -2.59375,-1.64063 -1.07813,-1.09375 -1.64063,-2.625 -0.5625,-1.54687 -0.5625,-3.51562 0,-1.8125 0.51563,-3.32813 0.53125,-1.53125 1.51562,-2.64062 0.98438,-1.125 2.42188,-1.75 1.45312,-0.625 3.28125,-0.625 1.78125,0 3.14062,0.64062 1.35938,0.64063 2.20313,1.76563 0.85937,1.125 1.28125,2.60937 0.42187,1.46875 0.42187,3.23438 0,0.3125 -0.0156,0.46875 -0.0156,0.15625 -0.0312,0.39062 -0.0156,0.23438 -0.0469,0.54688 h -10.65625 q 0.15625,1.875 1.45313,2.92187 1.3125,1.04688 3.25,1.04688 2.1875,0 4.92187,-1.59375 z m -2.78125,-5.21875 q -0.0312,-1.0625 -0.39062,-1.95313 -0.34375,-0.89062 -1.07813,-1.4375 -0.71875,-0.54687 -1.79687,-0.54687 -1.10938,0 -1.90625,0.54687 -0.78125,0.53125 -1.21875,1.42188 -0.42188,0.89062 -0.51563,1.96875 z"
     style="font-size:32px;text-align:end;text-anchor:end"
     id="path884" /><path
     d="m 262.54889,161.64792 0.0937,2.53125 q 1.90625,-2.78125 5.34375,-2.78125 3.1875,0 4.29687,1.89062 1.10938,1.875 1.10938,5.28125 v 8.92188 h -4.09375 v -7.96875 q 0,-2.10938 -0.54688,-3.42188 -0.53125,-1.3125 -2.32812,-1.3125 -1.92188,0 -2.70313,1.54688 -0.78125,1.53125 -0.78125,3.64062 v 7.51563 h -4.10937 v -10.07813 q 0,-3.35937 -0.15625,-5.76562 z"
     style="font-size:32px;text-align:end;text-anchor:end"
     id="path886" /><path
     d="m 286.25201,174.10104 0.14063,3.20313 q -1.5625,0.3125 -2.76563,0.3125 -2.01562,0 -3.1875,-0.73438 -1.17187,-0.75 -1.64062,-2.10937 -0.46875,-1.375 -0.46875,-3.35938 v -6.625 h -2.98438 v -3.04687 h 3.04688 v -3.21875 l 4.09375,-1.34375 v 4.5625 h 3.60937 v 3.04687 h -3.60937 v 5.76563 q 0,1.84375 0.39062,2.8125 0.40625,0.95312 1.96875,0.95312 0.57813,0 1.40625,-0.21875 z"
     style="font-size:32px;text-align:end;text-anchor:end"
     id="path888" /><path
     d="m 293.42389,177.49167 h -4.09375 v -11.07813 q -0.0781,-3.95312 -0.125,-4.76562 h 3.71875 l 0.0937,4 q 0.53125,-1.875 1.60937,-3 1.09375,-1.125 2.84375,-1.125 0.53125,0 1.20313,0.15625 v 3.84375 q -0.8125,-0.21875 -1.4375,-0.21875 -1.45313,0 -2.3125,0.76562 -0.85938,0.76563 -1.1875,1.96875 -0.3125,1.1875 -0.3125,2.60938 v 0.3125 z"
     style="font-size:32px;text-align:end;text-anchor:end"
     id="path890" /><path
     d="m 313.93951,173.27292 0.0625,3.54687 q -2.51562,1.09375 -5.4375,1.09375 -1.95312,0 -3.48437,-0.54687 -1.51563,-0.5625 -2.59375,-1.64063 -1.07813,-1.09375 -1.64063,-2.625 -0.5625,-1.54687 -0.5625,-3.51562 0,-1.8125 0.51563,-3.32813 0.53125,-1.53125 1.51562,-2.64062 0.98438,-1.125 2.42188,-1.75 1.45312,-0.625 3.28125,-0.625 1.78125,0 3.14062,0.64062 1.35938,0.64063 2.20313,1.76563 0.85937,1.125 1.28125,2.60937 0.42187,1.46875 0.42187,3.23438 0,0.3125 -0.0156,0.46875 -0.0156,0.15625 -0.0312,0.39062 -0.0156,0.23438 -0.0469,0.54688 h -10.65625 q 0.15625,1.875 1.45313,2.92187 1.3125,1.04688 3.25,1.04688 2.1875,0 4.92187,-1.59375 z m -2.78125,-5.21875 q -0.0312,-1.0625 -0.39062,-1.95313 -0.34375,-0.89062 -1.07813,-1.4375 -0.71875,-0.54687 -1.79687,-0.54687 -1.10938,0 -1.90625,0.54687 -0.78125,0.53125 -1.21875,1.42188 -0.42188,0.89062 -0.51563,1.96875 z"
     style="font-size:32px;text-align:end;text-anchor:end"
     id="path892" /></g>


<g
   aria-label="NHS Foundation Trust"
   style="font-style:normal;font-variant:normal;font-weight:bold;font-stretch:normal;font-size:20px;line-height:1.25;font-family:Frutiger;-inkscape-font-specification:'Frutiger Bold';letter-spacing:0.31000009px;word-spacing:0px;fill:#005eb8;fill-opacity:1;stroke:none"
   id="text1054"><path
     d="m 122.64612,200.54349 h -3.24219 l -4.375,-8.05664 q -0.41992,-0.76172 -1.10351,-2.36328 0.30273,2.08007 0.30273,3.4375 v 6.98242 h -2.55859 v -13.33985 h 3.17382 l 4.48243,8.07618 q 0.23437,0.42968 0.30273,0.61523 0.0781,0.18555 0.2832,0.70313 0.20508,0.51757 0.41993,1.04492 -0.24415,-1.39649 -0.24415,-3.26172 v -7.17774 h 2.5586 z"
     id="path265"
     inkscape:connector-curvature="0" /><path
     d="m 136.86237,200.54349 h -2.68555 v -5.74219 h -5.32226 v 5.74219 h -2.69532 v -13.33985 h 2.69532 v 5.41993 h 5.32226 v -5.41993 h 2.68555 z"
     id="path267"
     inkscape:connector-curvature="0" /><path
     d="m 140.16065,200.24075 0.24414,-2.39257 q 1.58203,0.85937 3.01758,0.85937 0.92773,0 1.62109,-0.45898 0.70313,-0.45899 0.70313,-1.34766 0,-0.89844 -0.59571,-1.2793 -0.58593,-0.38086 -2.13867,-1.04492 -1.55273,-0.67383 -2.33398,-1.49414 -0.77149,-0.83008 -0.77149,-2.36328 0,-1.2793 0.64454,-2.12891 0.65429,-0.85937 1.71875,-1.25976 1.07421,-0.41016 2.33398,-0.41016 1.68945,0 3.18359,0.52734 l -0.22461,2.19727 q -1.45507,-0.66406 -2.76367,-0.66406 -0.85937,0 -1.5039,0.39062 -0.63477,0.38086 -0.63477,1.21094 0,0.79102 0.47852,1.08398 0.47851,0.29297 2.16796,1.04493 1.69922,0.74218 2.5,1.59179 0.80079,0.83985 0.80079,2.36328 0,1.08399 -0.40039,1.875 -0.4004,0.79102 -1.11329,1.3086 -0.70312,0.50781 -1.62109,0.75195 -0.9082,0.24414 -1.93359,0.24414 -1.6211,0 -3.37891,-0.60547 z"
     id="path269"
     inkscape:connector-curvature="0" /><path
     d="m 160.05799,194.76224 v 5.78125 h -2.71484 v -13.33985 h 7.40234 v 2.19727 h -4.70703 v 3.16406 h 4.52149 v 2.19727 z"
     id="path271"
     inkscape:connector-curvature="0" /><path
     d="m 176.8719,195.68021 q 0,1.14257 -0.3711,2.09961 -0.37109,0.94726 -1.05468,1.62109 -0.67383,0.66406 -1.6211,1.03516 -0.94726,0.37109 -2.10937,0.37109 -1.5332,0 -2.69531,-0.66406 -1.16211,-0.66407 -1.79688,-1.875 -0.625,-1.21094 -0.625,-2.72461 0,-1.51367 0.64453,-2.68555 0.64453,-1.17187 1.80664,-1.81641 1.17188,-0.65429 2.68555,-0.65429 1.17187,0 2.11914,0.39062 0.95703,0.39063 1.63086,1.11328 0.67383,0.71289 1.02539,1.67969 0.36133,0.9668 0.36133,2.10938 z m -2.65625,-0.0586 q 0,-0.80078 -0.26367,-1.57226 -0.25391,-0.77149 -0.82032,-1.26953 -0.5664,-0.49805 -1.39648,-0.49805 -0.79102,0 -1.36719,0.48828 -0.5664,0.48828 -0.83984,1.25 -0.27344,0.75195 -0.27344,1.52344 0,0.83008 0.25391,1.60156 0.26367,0.77148 0.83008,1.26953 0.5664,0.48828 1.43554,0.48828 0.61524,0 1.08399,-0.29297 0.46875,-0.30273 0.76172,-0.76171 0.29296,-0.46875 0.43945,-1.04493 0.15625,-0.58593 0.15625,-1.18164 z"
     id="path273"
     inkscape:connector-curvature="0" /><path
     d="m 188.1194,190.64114 v 6.04493 q 0.0195,0.41992 0.0391,1.29882 0.0293,0.87891 0.0488,1.40625 0.0195,0.52735 0.0586,1.15235 h -2.42187 l -0.0781,-1.52344 q -0.34179,0.53711 -0.83007,0.9082 -0.47852,0.3711 -1.08399,0.57618 -0.60547,0.19531 -1.21094,0.19531 -1.37695,0 -2.14843,-0.56641 -0.77149,-0.5664 -1.06446,-1.55273 -0.2832,-0.98633 -0.2832,-2.35352 v -5.58594 h 2.55859 v 4.76563 q 0,0.92773 0.0879,1.57226 0.0976,0.63477 0.49804,1.11329 0.40039,0.46875 1.21094,0.46875 1.16211,0 1.61133,-0.97657 0.44922,-0.98632 0.44922,-2.30468 v -4.63868 z"
     id="path275"
     inkscape:connector-curvature="0" /><path
     d="m 193.57588,190.64114 0.0586,1.58204 q 1.1914,-1.73829 3.33984,-1.73829 1.99219,0 2.68555,1.18164 0.69336,1.17188 0.69336,3.30079 v 5.57617 h -2.5586 v -4.98047 q 0,-1.31836 -0.34179,-2.13867 -0.33204,-0.82032 -1.45508,-0.82032 -1.20117,0 -1.68946,0.9668 -0.48828,0.95703 -0.48828,2.27539 v 4.69727 h -2.56836 v -6.29883 q 0,-2.09961 -0.0976,-3.60352 z"
     id="path277"
     inkscape:connector-curvature="0" /><path
     d="m 212.30386,200.54349 h -2.42188 l -0.0391,-1.67969 q -0.43945,0.88867 -1.25977,1.36719 -0.81054,0.46875 -1.83593,0.46875 -1.07422,0 -1.88477,-0.41992 -0.80078,-0.42969 -1.29883,-1.15235 -0.49805,-0.72265 -0.74219,-1.64062 -0.23437,-0.91797 -0.23437,-1.92383 0,-1.32813 0.43945,-2.49024 0.43946,-1.17187 1.35742,-1.88476 0.92774,-0.72266 2.30469,-0.72266 1.03516,0 1.80664,0.45899 0.77149,0.45898 1.26953,1.35742 -0.0977,-0.72266 -0.0977,-1.75781 v -4.38477 h 2.55859 v 11.52344 q 0.0195,0.95703 0.0293,1.67969 0.0195,0.72265 0.0488,1.20117 z m -2.59766,-4.88281 q 0,-0.77149 -0.24414,-1.45508 -0.24414,-0.69336 -0.77149,-1.14258 -0.51757,-0.45899 -1.28906,-0.45899 -1.15234,0 -1.66015,0.88868 -0.49805,0.8789 -0.49805,2.1289 0,1.17188 0.55664,2.11914 0.55664,0.94727 1.64062,0.94727 0.73243,0 1.25,-0.43945 0.52735,-0.44922 0.77149,-1.13282 0.24414,-0.69336 0.24414,-1.45507 z"
     id="path279"
     inkscape:connector-curvature="0" /><path
     d="m 223.47323,200.54349 h -2.28516 l -0.0391,-1.48438 q -0.45898,0.79102 -1.28906,1.22071 -0.82032,0.41992 -1.78711,0.41992 -0.98633,0 -1.76758,-0.3418 -0.77148,-0.3418 -1.2207,-1.03516 -0.44922,-0.70312 -0.44922,-1.69921 0,-1.85547 1.45508,-2.53907 1.45507,-0.68359 3.54492,-0.68359 0.30273,0 0.39062,0.01 0.0879,0 0.39063,0.0195 0.30273,0.01 0.61523,0.0293 0,-1.10351 -0.53711,-1.64062 -0.53711,-0.53711 -1.66015,-0.53711 -1.69922,0 -3.06641,1.08398 l -0.0781,-2.22656 q 1.59179,-0.67383 3.44726,-0.67383 0.69336,0 1.37695,0.13672 0.6836,0.13672 1.25977,0.45899 0.58594,0.3125 0.9668,0.83984 0.39062,0.52734 0.50781,1.21094 0.12695,0.67383 0.12695,1.61133 0,0.96679 0,1.94335 0.01,0.97657 0.0195,1.78711 0.0195,0.80079 0.0781,2.08985 z m -2.40235,-4.50196 q -0.0976,-0.0195 -0.30273,-0.0195 h -0.3125 q -0.83984,0 -1.54297,0.0977 -0.69336,0.0879 -1.2207,0.46875 -0.51758,0.37109 -0.51758,1.09375 0,0.58594 0.45898,0.9375 0.46875,0.3418 1.08399,0.3418 1.16211,0 1.75781,-0.85938 0.5957,-0.85937 0.5957,-2.06055 z"
     id="path281"
     inkscape:connector-curvature="0" /><path
     d="m 231.82034,198.42435 0.0879,2.00195 q -0.97657,0.19531 -1.72852,0.19531 -1.25977,0 -1.99219,-0.45898 -0.73242,-0.46875 -1.02539,-1.31836 -0.29297,-0.85938 -0.29297,-2.09961 v -4.14063 h -1.86523 v -1.90429 h 1.9043 v -2.01172 l 2.55859,-0.83984 v 2.85156 h 2.25586 v 1.90429 h -2.25586 v 3.60352 q 0,1.15234 0.24414,1.75781 0.25391,0.59571 1.23047,0.59571 0.36133,0 0.87891,-0.13672 z"
     id="path283"
     inkscape:connector-curvature="0" /><path
     d="m 236.53464,200.54349 h -2.5586 v -9.90235 h 2.5586 z m 0.0391,-11.69922 h -2.63672 v -2.42188 h 2.63672 z"
     id="path285"
     inkscape:connector-curvature="0" /><path
     d="m 249.13956,195.68021 q 0,1.14257 -0.3711,2.09961 -0.37109,0.94726 -1.05468,1.62109 -0.67383,0.66406 -1.6211,1.03516 -0.94726,0.37109 -2.10937,0.37109 -1.53321,0 -2.69532,-0.66406 -1.1621,-0.66407 -1.79687,-1.875 -0.625,-1.21094 -0.625,-2.72461 0,-1.51367 0.64453,-2.68555 0.64453,-1.17187 1.80664,-1.81641 1.17188,-0.65429 2.68555,-0.65429 1.17187,0 2.11914,0.39062 0.95703,0.39063 1.63086,1.11328 0.67383,0.71289 1.02539,1.67969 0.36133,0.9668 0.36133,2.10938 z m -2.65625,-0.0586 q 0,-0.80078 -0.26367,-1.57226 -0.25391,-0.77149 -0.82032,-1.26953 -0.5664,-0.49805 -1.39648,-0.49805 -0.79102,0 -1.36719,0.48828 -0.56641,0.48828 -0.83984,1.25 -0.27344,0.75195 -0.27344,1.52344 0,0.83008 0.25391,1.60156 0.26367,0.77148 0.83007,1.26953 0.56641,0.48828 1.43555,0.48828 0.61524,0 1.08399,-0.29297 0.46875,-0.30273 0.76171,-0.76171 0.29297,-0.46875 0.43946,-1.04493 0.15625,-0.58593 0.15625,-1.18164 z"
     id="path287"
     inkscape:connector-curvature="0" /><path
     d="m 253.91245,190.64114 0.0586,1.58204 q 1.19141,-1.73829 3.33984,-1.73829 1.99219,0 2.68555,1.18164 0.69336,1.17188 0.69336,3.30079 v 5.57617 h -2.55859 v -4.98047 q 0,-1.31836 -0.3418,-2.13867 -0.33203,-0.82032 -1.45508,-0.82032 -1.20117,0 -1.68945,0.9668 -0.48828,0.95703 -0.48828,2.27539 v 4.69727 h -2.56836 v -6.29883 q 0,-2.09961 -0.0977,-3.60352 z"
     id="path289"
     inkscape:connector-curvature="0" /><path
     d="m 274.74728,200.54349 h -2.69531 v -11.14258 h -3.80859 v -2.19727 h 10.34179 v 2.19727 h -3.83789 z"
     id="path291"
     inkscape:connector-curvature="0" /><path
     d="m 283.03581,200.54349 h -2.55859 v -6.92383 q -0.0488,-2.4707 -0.0781,-2.97852 h 2.32422 l 0.0586,2.5 q 0.33203,-1.17187 1.00586,-1.875 0.68359,-0.70312 1.77734,-0.70312 0.33203,0 0.75195,0.0977 v 2.40234 q -0.50781,-0.13672 -0.89844,-0.13672 -0.9082,0 -1.44531,0.47852 -0.53711,0.47851 -0.74219,1.23046 -0.19531,0.74219 -0.19531,1.63086 v 0.19532 z"
     id="path293"
     inkscape:connector-curvature="0" /><path
     d="m 297.10558,190.64114 v 6.04493 q 0.0195,0.41992 0.0391,1.29882 0.0293,0.87891 0.0488,1.40625 0.0195,0.52735 0.0586,1.15235 h -2.42188 l -0.0781,-1.52344 q -0.3418,0.53711 -0.83008,0.9082 -0.47851,0.3711 -1.08398,0.57618 -0.60547,0.19531 -1.21094,0.19531 -1.37695,0 -2.14844,-0.56641 -0.77148,-0.5664 -1.06445,-1.55273 -0.2832,-0.98633 -0.2832,-2.35352 v -5.58594 h 2.55859 v 4.76563 q 0,0.92773 0.0879,1.57226 0.0977,0.63477 0.49805,1.11329 0.40039,0.46875 1.21093,0.46875 1.16211,0 1.61133,-0.97657 0.44922,-0.98632 0.44922,-2.30468 v -4.63868 z"
     id="path295"
     inkscape:connector-curvature="0" /><path
     d="m 299.70073,200.27982 0.11719,-2.15821 q 1.36718,0.70313 2.51953,0.70313 0.63476,0 1.20117,-0.27344 0.56641,-0.27344 0.56641,-0.84961 0,-0.49805 -0.81055,-0.84961 -0.81055,-0.35156 -1.63086,-0.69336 -0.81055,-0.34179 -1.40625,-0.95703 -0.5957,-0.61523 -0.5957,-1.71875 0,-1.05469 0.61523,-1.72851 0.625,-0.67383 1.58203,-0.97657 0.95703,-0.3125 1.98242,-0.3125 1.08399,0 2.44141,0.38086 l -0.18555,1.91406 q -1.1914,-0.38085 -2.09961,-0.38085 -0.66406,0 -1.23046,0.2246 -0.56641,0.22461 -0.56641,0.78125 0,0.47852 0.77148,0.80079 0.78125,0.3125 1.63086,0.63476 0.85938,0.3125 1.46485,0.94727 0.61523,0.625 0.61523,1.79687 0,1.06446 -0.5957,1.77735 -0.58594,0.71289 -1.52344,1.04492 -0.9375,0.33203 -1.98242,0.33203 -1.19141,0 -2.88086,-0.43945 z"
     id="path297"
     inkscape:connector-curvature="0" /><path
     d="m 314.59081,198.42435 0.0879,2.00195 q -0.97657,0.19531 -1.72852,0.19531 -1.25977,0 -1.99219,-0.45898 -0.73242,-0.46875 -1.02539,-1.31836 -0.29297,-0.85938 -0.29297,-2.09961 v -4.14063 h -1.86523 v -1.90429 h 1.9043 v -2.01172 l 2.55859,-0.83984 v 2.85156 h 2.25586 v 1.90429 h -2.25586 v 3.60352 q 0,1.15234 0.24414,1.75781 0.25391,0.59571 1.23047,0.59571 0.36133,0 0.87891,-0.13672 z"
     id="path299"
     inkscape:connector-curvature="0" /></g>
</g></svg>