<?xml version="1.0" encoding="UTF-8" standalone="no"?>
<svg
   xmlns:dc="http://purl.org/dc/elements/1.1/"
   xmlns:cc="http://creativecommons.org/ns#"
   xmlns:rdf="http://www.w3.org/1999/02/22-rdf-syntax-ns#"
   xmlns:svg="http://www.w3.org/2000/svg"
   xmlns="http://www.w3.org/2000/svg"
   xmlns:sodipodi="http://sodipodi.sourceforge.net/DTD/sodipodi-0.dtd"
   xmlns:inkscape="http://www.inkscape.org/namespaces/inkscape"
   id="svg190"
   style="clip-rule:evenodd;fill-rule:evenodd;stroke-linejoin:round;stroke-miterlimit:2"
   xml:space="preserve"
   version="1.1"
   viewBox="0 0 244.48509 132.12671"
   height="132.12671"
   width="244.48509"
   sodipodi:docname="182.svg"
   inkscape:version="0.92.5 (2060ec1f9f, 2020-04-08)"><sodipodi:namedview
   pagecolor="#ffffff"
   bordercolor="#666666"
   borderopacity="1"
   objecttolerance="10"
   gridtolerance="10"
   guidetolerance="10"
   inkscape:pageopacity="0"
   inkscape:pageshadow="2"
   inkscape:window-width="1326"
   inkscape:window-height="704"
   id="namedview204"
   showgrid="false"
   inkscape:zoom="3.341717"
   inkscape:cx="133.46432"
   inkscape:cy="66.063354"
   inkscape:window-x="40"
   inkscape:window-y="27"
   inkscape:window-maximized="1"
   inkscape:current-layer="text1007" /><metadata
   id="metadata196"><rdf:RDF><cc:Work
       rdf:about=""><dc:format>image/svg+xml</dc:format><dc:type
         rdf:resource="http://purl.org/dc/dcmitype/StillImage" /><dc:title /></cc:Work></rdf:RDF></metadata><defs
   id="defs194" />
    
<g
   transform="translate(-70.579432,-68.719506)"
   id="g1068"><g
   id="g1014"
   transform="matrix(0.39703779,0,0,0.39703779,208.41492,68.94143)"><path
     style="opacity:1;fill:#005eb8;fill-opacity:1;stroke:#ffffff;stroke-width:0.75590551;stroke-linecap:butt;stroke-linejoin:round;stroke-miterlimit:4;stroke-dasharray:none;stroke-opacity:1"
     d="M 0,-0.18099548 H 268.23529 V 99.999997 H 0 Z"
     id="rect198" /><g
     style="fill:#ffffff;fill-opacity:1"
     id="g188"
     transform="matrix(6.50887,0,0,6.50887,5.2420193,-1.5105724)">
        <path
   id="path186"
   style="fill:#ffffff;fill-opacity:1;fill-rule:nonzero"
   d="m 3.9,1.5 h 4.4 l 2.6,9 H 11 l 1.8,-9 h 3.3 l -2.8,13 H 9 L 6.3,5.5 H 6.2 l -1.8,9 H 1.1 m 16.2,-13 h 3.6 l -1,4.9 h 4 L 25,1.5 h 3.5 l -2.7,13 h -3.5 l 1.1,-5.6 h -4.1 l -1.2,5.6 H 14.7 M 37.7,4.4 C 37,4.1 36.1,3.8 34.8,3.8 c -1.4,0 -2.5,0.2 -2.5,1.3 0,1.8 5.1,1.2 5.1,5.1 0,3.6 -3.3,4.5 -6.4,4.5 -1.3,0 -2.9,-0.3 -4,-0.7 l 0.8,-2.7 c 0.7,0.4 2.1,0.7 3.2,0.7 1.1,0 2.8,-0.2 2.8,-1.5 0,-2.1 -5.1,-1.3 -5.1,-5 0,-3.4 2.9,-4.4 5.8,-4.4 1.6,0 3.1,0.2 4,0.6" />
    </g></g><g
   aria-label="The Clatterbridge"
   style="font-style:normal;font-variant:normal;font-weight:bold;font-stretch:normal;font-size:29.33333397px;line-height:1.25;font-family:Frutiger;-inkscape-font-specification:'Frutiger Bold';letter-spacing:1.25px;word-spacing:0px;fill:#000000;fill-opacity:1;stroke:none"
   id="text1007"><path
     d="m 86.997401,124.97159 v 2.40625 h -6.130208 v 17.15886 h -2.778646 v -17.15886 h -6.259115 v -2.40625 z"
     style="font-style:normal;font-variant:normal;font-weight:normal;font-stretch:normal;font-size:29.33333397px;font-family:Frutiger;-inkscape-font-specification:Frutiger;text-align:end;letter-spacing:1.25px;text-anchor:end"
     id="path207" /><path
     d="m 93.145839,123.41039 v 6.875 q 0,1.11719 -0.08594,2.22006 0.744792,-1.28907 1.933594,-1.91927 1.203125,-0.63021 2.835938,-0.63021 2.091145,0 3.279947,0.94531 1.20313,0.94531 1.64714,2.49219 0.44401,1.54687 0.44401,3.63802 v 7.50521 h -2.66407 v -6.21615 q 0,-2.76432 -0.24349,-3.72396 -0.300777,-1.17448 -1.074214,-1.77604 -0.773438,-0.60156 -1.947917,-0.60156 -0.845052,0 -1.61849,0.35807 -0.773437,0.35807 -1.346354,1.03125 -0.572917,0.65886 -0.845052,1.54688 -0.100261,0.30078 -0.186198,0.8164 -0.08594,0.50131 -0.114583,1.0599 -0.01432,0.55859 -0.01432,1.81901 v 5.6862 h -2.678386 v -21.12631 z"
     style="font-style:normal;font-variant:normal;font-weight:normal;font-stretch:normal;font-size:29.33333397px;font-family:Frutiger;-inkscape-font-specification:Frutiger;text-align:end;letter-spacing:1.25px;text-anchor:end"
     id="path209" /><path
     d="m 110.10808,138.04842 q 0.28646,2.13411 1.5612,3.3802 1.28906,1.23178 3.22265,1.23178 1.14584,0 2.23438,-0.32943 1.08854,-0.32943 2.2487,-1.01693 v 2.54948 q -1.30339,0.57292 -2.36329,0.81641 -1.05989,0.24349 -2.23437,0.24349 -1.66146,0 -3.02214,-0.54427 -1.36067,-0.54428 -2.32031,-1.5612 -0.95963,-1.01693 -1.47526,-2.44922 -0.51562,-1.44662 -0.51562,-3.16537 0,-2.1914 0.83072,-3.86718 0.83073,-1.67578 2.37761,-2.59245 1.5612,-0.93099 3.53776,-0.93099 2.32031,0 3.69531,1.14583 1.38933,1.13151 1.96224,2.99349 0.58724,1.86198 0.58724,4.09636 z m 0.0286,-2.07683 h 7.63412 q -0.14323,-1.17448 -0.54427,-2.0625 -0.40104,-0.90234 -1.1888,-1.44661 -0.78776,-0.54427 -1.9336,-0.54427 -1.57552,0 -2.63541,1.08854 -1.04558,1.07422 -1.33204,2.96484 z"
     style="font-style:normal;font-variant:normal;font-weight:normal;font-stretch:normal;font-size:29.33333397px;font-family:Frutiger;-inkscape-font-specification:Frutiger;text-align:end;letter-spacing:1.25px;text-anchor:end"
     id="path211" /><path
     d="m 148.38672,125.70206 -0.22916,2.67839 q -1.10287,-0.64453 -2.01953,-0.88802 -0.91667,-0.25782 -2.0625,-0.25782 -1.61849,0 -2.97917,0.52995 -1.34635,0.51563 -2.34896,1.50391 -1.0026,0.98828 -1.54687,2.34896 -0.54427,1.34635 -0.54427,2.97916 0,2.14844 0.97395,3.89584 0.98829,1.73307 2.70704,2.72135 1.73307,0.97396 3.86718,0.97396 1.99089,0 4.18229,-0.8737 l 0.21485,2.69271 q -1.14584,0.3724 -2.09115,0.52995 -0.93099,0.14323 -2.22005,0.14323 -3.07943,0 -5.5,-1.18881 -2.40625,-1.1888 -3.76693,-3.45182 -1.36067,-2.27734 -1.36067,-5.38542 0,-2.83593 1.28906,-5.07031 1.30338,-2.23437 3.65234,-3.48047 2.36328,-1.24609 5.32813,-1.24609 2.5638,0 4.45442,0.84505 z"
     style="font-style:normal;font-variant:normal;font-weight:normal;font-stretch:normal;font-size:29.33333397px;font-family:Frutiger;-inkscape-font-specification:Frutiger;text-align:end;letter-spacing:1.25px;text-anchor:end"
     id="path213" /><path
     d="m 155.25131,123.41039 v 21.12631 h -2.67839 v -21.12631 z"
     style="font-style:normal;font-variant:normal;font-weight:normal;font-stretch:normal;font-size:29.33333397px;font-family:Frutiger;-inkscape-font-specification:Frutiger;text-align:end;letter-spacing:1.25px;text-anchor:end"
     id="path215" /><path
     d="m 161.34245,131.27368 q 1.17448,-0.6875 2.32032,-1.00261 1.16015,-0.3151 2.47786,-0.3151 2.01953,0 3.38021,0.77344 1.375,0.75911 1.90495,2.16276 0.44401,1.17448 0.44401,3.98177 v 2.79297 q 0,1.61849 0.0286,2.83593 0.043,1.20313 0.11459,2.03386 h -2.4349 q -0.0286,-0.5013 -0.0286,-1.11719 0,-0.75911 0.0286,-1.34635 -0.83073,1.38932 -1.97656,2.03385 -1.14584,0.63021 -2.83594,0.63021 -1.48958,0 -2.63542,-0.52995 -1.13151,-0.52995 -1.74739,-1.50391 -0.60156,-0.98828 -0.60156,-2.27734 0,-1.13151 0.48697,-1.99089 0.50131,-0.87369 1.46094,-1.47526 0.95964,-0.61588 2.34896,-0.91666 1.38932,-0.30078 3.20833,-0.30078 1.08855,0 2.00521,0.0573 -0.0286,-1.84766 -0.90234,-2.70703 -0.8737,-0.8737 -2.67839,-0.8737 -1.17448,0 -2.14843,0.32943 -0.97396,0.3151 -2.07683,1.04557 z m 8.00651,6.48828 q -0.88802,-0.0859 -1.44661,-0.0859 -5.29948,0 -5.29948,2.72135 0,0.65886 0.34375,1.16016 0.34375,0.5013 0.97396,0.78776 0.63021,0.28646 1.43229,0.28646 1.47526,0 2.36328,-0.64453 0.88802,-0.64453 1.26042,-1.73307 0.37239,-1.08855 0.37239,-2.49219 z"
     style="font-style:normal;font-variant:normal;font-weight:normal;font-stretch:normal;font-size:29.33333397px;font-family:Frutiger;-inkscape-font-specification:Frutiger;text-align:end;letter-spacing:1.25px;text-anchor:end"
     id="path217" /><path
     d="m 181.15495,126.06013 v 4.19662 h 3.8099 v 2.07682 h -3.8099 v 5.62891 q 0,1.93359 0.17188,2.82161 0.1289,0.77344 0.70182,1.23177 0.58724,0.44401 1.48958,0.44401 0.83073,0 1.73308,-0.44401 v 2.29167 q -1.26042,0.40104 -2.46354,0.40104 -1.86198,0 -2.8073,-0.75911 -0.94531,-0.75912 -1.21744,-1.99089 -0.25782,-1.23177 -0.25782,-3.19401 v -6.43099 h -3.30859 v -2.07682 h 3.30859 v -3.29427 z"
     style="font-style:normal;font-variant:normal;font-weight:normal;font-stretch:normal;font-size:29.33333397px;font-family:Frutiger;-inkscape-font-specification:Frutiger;text-align:end;letter-spacing:1.25px;text-anchor:end"
     id="path219" /><path
     d="m 193.17579,126.06013 v 4.19662 h 3.8099 v 2.07682 h -3.8099 v 5.62891 q 0,1.93359 0.17187,2.82161 0.12891,0.77344 0.70183,1.23177 0.58724,0.44401 1.48958,0.44401 0.83073,0 1.73307,-0.44401 v 2.29167 q -1.26041,0.40104 -2.46354,0.40104 -1.86198,0 -2.80729,-0.75911 -0.94531,-0.75912 -1.21745,-1.99089 -0.25781,-1.23177 -0.25781,-3.19401 v -6.43099 h -3.30859 v -2.07682 h 3.30859 v -3.29427 z"
     style="font-style:normal;font-variant:normal;font-weight:normal;font-stretch:normal;font-size:29.33333397px;font-family:Frutiger;-inkscape-font-specification:Frutiger;text-align:end;letter-spacing:1.25px;text-anchor:end"
     id="path221" /><path
     d="m 203.13413,138.04842 q 0.28645,2.13411 1.56119,3.3802 1.28907,1.23178 3.22266,1.23178 1.14583,0 2.23437,-0.32943 1.08855,-0.32943 2.2487,-1.01693 v 2.54948 q -1.30338,0.57292 -2.36328,0.81641 -1.05989,0.24349 -2.23437,0.24349 -1.66146,0 -3.02214,-0.54427 -1.36068,-0.54428 -2.32031,-1.5612 -0.95964,-1.01693 -1.47526,-2.44922 -0.51563,-1.44662 -0.51563,-3.16537 0,-2.1914 0.83073,-3.86718 0.83073,-1.67578 2.37761,-2.59245 1.56119,-0.93099 3.53776,-0.93099 2.32031,0 3.69531,1.14583 1.38932,1.13151 1.96224,2.99349 0.58724,1.86198 0.58724,4.09636 z m 0.0286,-2.07683 h 7.63412 q -0.14323,-1.17448 -0.54428,-2.0625 -0.40104,-0.90234 -1.1888,-1.44661 -0.78776,-0.54427 -1.93359,-0.54427 -1.57552,0 -2.63542,1.08854 -1.04557,1.07422 -1.33203,2.96484 z"
     style="font-style:normal;font-variant:normal;font-weight:normal;font-stretch:normal;font-size:29.33333397px;font-family:Frutiger;-inkscape-font-specification:Frutiger;text-align:end;letter-spacing:1.25px;text-anchor:end"
     id="path223" /><path
     d="m 217.93361,130.19946 h 2.46354 l 0.12891,2.54948 q 0.64453,-1.34636 1.67578,-2.03386 1.04557,-0.70182 2.42057,-0.70182 0.71615,0 1.44662,0.1862 v 2.43489 q -0.6875,-0.24349 -1.26042,-0.24349 -1.38932,0 -2.30599,0.81641 -0.91667,0.80208 -1.33203,2.0625 -0.41537,1.24609 -0.41537,2.60677 v 1.03125 5.62891 h -2.63541 v -8.73698 q 0,-2.11979 -0.1862,-5.60026 z"
     style="font-style:normal;font-variant:normal;font-weight:normal;font-stretch:normal;font-size:29.33333397px;font-family:Frutiger;-inkscape-font-specification:Frutiger;text-align:end;letter-spacing:1.25px;text-anchor:end"
     id="path225" /><path
     d="m 232.44663,123.41039 v 7.60547 q 0,0.83073 -0.0859,1.67579 0.52995,-1.23178 1.8763,-1.97657 1.36068,-0.75911 3.05078,-0.75911 1.40365,0 2.53516,0.5013 1.14583,0.5013 1.96224,1.47526 0.83073,0.95964 1.26041,2.29167 0.42969,1.33203 0.42969,3.00781 0,1.6901 -0.42969,3.07943 -0.42968,1.375 -1.26041,2.3776 -0.83073,1.00261 -1.99089,1.53255 -1.14583,0.51563 -2.53515,0.51563 -1.66146,0 -2.95053,-0.6875 -1.28906,-0.70182 -1.97656,-1.94792 v 2.4349 h -2.5638 v -21.12631 z m 4.28255,8.8086 q -1.1888,0 -2.16276,0.67318 -0.97396,0.67317 -1.51823,1.86198 -0.54427,1.17447 -0.54427,2.62109 0,1.40364 0.52994,2.59245 0.54428,1.17448 1.48959,1.84765 0.95963,0.67318 2.11979,0.67318 1.13151,0 2.04818,-0.65885 0.93099,-0.65886 1.44661,-1.84766 0.51563,-1.1888 0.51563,-2.63542 0,-2.27734 -1.08855,-3.69531 -1.07421,-1.43229 -2.83593,-1.43229 z"
     style="font-style:normal;font-variant:normal;font-weight:normal;font-stretch:normal;font-size:29.33333397px;font-family:Frutiger;-inkscape-font-specification:Frutiger;text-align:end;letter-spacing:1.25px;text-anchor:end"
     id="path227" /><path
     d="m 247.91928,130.19946 h 2.46354 l 0.12891,2.54948 q 0.64453,-1.34636 1.67578,-2.03386 1.04557,-0.70182 2.42057,-0.70182 0.71615,0 1.44662,0.1862 v 2.43489 q -0.6875,-0.24349 -1.26042,-0.24349 -1.38932,0 -2.30599,0.81641 -0.91666,0.80208 -1.33203,2.0625 -0.41536,1.24609 -0.41536,2.60677 v 1.03125 5.62891 h -2.63542 v -8.73698 q 0,-2.11979 -0.1862,-5.60026 z"
     style="font-style:normal;font-variant:normal;font-weight:normal;font-stretch:normal;font-size:29.33333397px;font-family:Frutiger;-inkscape-font-specification:Frutiger;text-align:end;letter-spacing:1.25px;text-anchor:end"
     id="path229" /><path
     d="m 262.4323,123.82576 v 2.9362 h -2.90756 v -2.9362 z m -0.0573,6.3737 v 14.33724 h -2.67839 v -14.33724 z"
     style="font-style:normal;font-variant:normal;font-weight:normal;font-stretch:normal;font-size:29.33333397px;font-family:Frutiger;-inkscape-font-specification:Frutiger;text-align:end;letter-spacing:1.25px;text-anchor:end"
     id="path231" /><path
     d="m 280.39715,123.41039 v 14.43751 q 0,1.11718 0.0716,3.36588 0.0716,2.2487 0.12891,3.32292 h -2.57813 v -2.40625 q -0.8737,1.33203 -2.07682,1.97656 -1.20313,0.63021 -2.87891,0.63021 -1.8763,0 -3.30859,-0.88802 -1.43229,-0.88802 -2.20573,-2.54948 -0.75912,-1.66146 -0.75912,-3.86719 0,-1.67578 0.42969,-3.02213 0.44401,-1.34636 1.30339,-2.37761 0.85937,-1.03125 2.00521,-1.54687 1.14583,-0.52995 2.53515,-0.52995 3.05078,0 4.75521,2.49219 0,-0.21485 -0.0286,-0.60157 -0.0143,-0.38672 -0.043,-0.75911 -0.0143,-0.38672 -0.0143,-0.60156 v -7.07553 z m -6.68881,8.8086 q -0.90234,0 -1.64713,0.37239 -0.74479,0.3724 -1.30339,1.07422 -0.55859,0.70183 -0.85937,1.67578 -0.30078,0.97396 -0.30078,2.0625 0,2.23438 1.13151,3.66667 1.13151,1.41797 2.89323,1.41797 1.1888,0 2.13411,-0.65885 0.94531,-0.67318 1.48958,-1.84766 0.54428,-1.1888 0.54428,-2.60677 0,-1.43229 -0.54428,-2.62109 -0.52994,-1.18881 -1.47526,-1.86198 -0.93099,-0.67318 -2.0625,-0.67318 z"
     style="font-style:normal;font-variant:normal;font-weight:normal;font-stretch:normal;font-size:29.33333397px;font-family:Frutiger;-inkscape-font-specification:Frutiger;text-align:end;letter-spacing:1.25px;text-anchor:end"
     id="path233" /><path
     d="m 298.63413,130.15649 v 11.88802 q 0,2.13411 -0.25782,3.68099 -0.24349,1.54687 -0.97396,2.66406 -0.73046,1.13151 -2.11979,1.73308 -1.38932,0.60156 -3.6237,0.60156 -2.70703,0 -5.45703,-0.95964 l 0.25782,-2.59245 q 2.67838,1.28907 5.14192,1.28907 1.46094,0 2.49219,-0.5586 1.04557,-0.55859 1.51823,-1.60416 0.28646,-0.54427 0.38672,-1.21745 0.10026,-0.65886 0.10026,-1.54688 0.0143,-0.88802 0.043,-1.34635 -1.61849,2.3776 -4.78386,2.3776 -1.86198,0 -3.29427,-0.88802 -1.43229,-0.88802 -2.22005,-2.49219 -0.78776,-1.61848 -0.78776,-3.7526 0,-2.16276 0.78776,-3.88151 0.78776,-1.71875 2.19141,-2.64974 1.41797,-0.94531 3.26562,-0.94531 1.67578,0 2.97917,0.74479 1.31771,0.74479 1.86198,1.99089 0.0143,-0.11459 0.0143,-0.20053 0.0143,-0.0859 0.0143,-0.15755 l -0.0286,-0.38672 v -1.79036 z m -6.71745,2.0625 q -1.16016,0 -2.09115,0.67318 -0.93099,0.65885 -1.44661,1.84765 -0.51563,1.17448 -0.51563,2.66406 0,1.44662 0.5013,2.56381 0.51563,1.10286 1.41797,1.71875 0.90235,0.61588 2.04818,0.61588 0.91667,0 1.6901,-0.35807 0.77344,-0.3724 1.33204,-1.04557 0.57291,-0.67318 0.87369,-1.58985 0.30078,-0.91666 0.30078,-2.01953 0,-1.40364 -0.54427,-2.5638 -0.52994,-1.17448 -1.48958,-1.83333 -0.94531,-0.67318 -2.07682,-0.67318 z"
     style="font-style:normal;font-variant:normal;font-weight:normal;font-stretch:normal;font-size:29.33333397px;font-family:Frutiger;-inkscape-font-specification:Frutiger;text-align:end;letter-spacing:1.25px;text-anchor:end"
     id="path235" /><path
     d="m 305.57033,138.04842 q 0.28646,2.13411 1.5612,3.3802 1.28906,1.23178 3.22265,1.23178 1.14584,0 2.23438,-0.32943 1.08854,-0.32943 2.2487,-1.01693 v 2.54948 q -1.30339,0.57292 -2.36329,0.81641 -1.05989,0.24349 -2.23437,0.24349 -1.66146,0 -3.02214,-0.54427 -1.36067,-0.54428 -2.32031,-1.5612 -0.95963,-1.01693 -1.47526,-2.44922 -0.51562,-1.44662 -0.51562,-3.16537 0,-2.1914 0.83072,-3.86718 0.83073,-1.67578 2.37761,-2.59245 1.5612,-0.93099 3.53776,-0.93099 2.32031,0 3.69531,1.14583 1.38932,1.13151 1.96224,2.99349 0.58724,1.86198 0.58724,4.09636 z m 0.0286,-2.07683 h 7.63412 q -0.14323,-1.17448 -0.54427,-2.0625 -0.40104,-0.90234 -1.1888,-1.44661 -0.78776,-0.54427 -1.9336,-0.54427 -1.57552,0 -2.63541,1.08854 -1.04558,1.07422 -1.33204,2.96484 z"
     style="font-style:normal;font-variant:normal;font-weight:normal;font-stretch:normal;font-size:29.33333397px;font-family:Frutiger;-inkscape-font-specification:Frutiger;text-align:end;letter-spacing:1.25px;text-anchor:end"
     id="path237" /></g>
<g
   aria-label="Cancer Centre"
   style="font-style:normal;font-variant:normal;font-weight:bold;font-stretch:normal;font-size:29.33333397px;line-height:1.25;font-family:Frutiger;-inkscape-font-specification:'Frutiger Bold';letter-spacing:0.75px;word-spacing:0px;clip-rule:evenodd;fill:#000000;fill-opacity:1;fill-rule:evenodd;stroke:none;stroke-linejoin:round;stroke-miterlimit:2"
   id="text1007-3"><path
     d="m 142.13066,156.45923 -0.22916,2.67839 q -1.10287,-0.64453 -2.01954,-0.88802 -0.91666,-0.25781 -2.0625,-0.25781 -1.61849,0 -2.97916,0.52994 -1.34636,0.51563 -2.34896,1.50391 -1.0026,0.98828 -1.54688,2.34896 -0.54427,1.34635 -0.54427,2.97916 0,2.14844 0.97396,3.89584 0.98828,1.73307 2.70703,2.72135 1.73308,0.97396 3.86719,0.97396 1.99089,0 4.18229,-0.8737 l 0.21485,2.69271 q -1.14584,0.3724 -2.09115,0.52995 -0.93099,0.14323 -2.22005,0.14323 -3.07943,0 -5.5,-1.1888 -2.40625,-1.18881 -3.76693,-3.45183 -1.36068,-2.27734 -1.36068,-5.38541 0,-2.83594 1.28907,-5.07032 1.30338,-2.23437 3.65234,-3.48047 2.36328,-1.24609 5.32813,-1.24609 2.5638,0 4.45442,0.84505 z"
     style="font-style:normal;font-variant:normal;font-weight:normal;font-stretch:normal;font-size:29.33333397px;font-family:Frutiger;-inkscape-font-specification:Frutiger;text-align:end;letter-spacing:0.75px;text-anchor:end"
     id="path240" /><path
     d="m 146.61894,162.03085 q 1.17448,-0.6875 2.32032,-1.00261 1.16015,-0.3151 2.47786,-0.3151 2.01953,0 3.38021,0.77344 1.375,0.75911 1.90495,2.16276 0.44401,1.17448 0.44401,3.98177 v 2.79297 q 0,1.61849 0.0286,2.83593 0.043,1.20313 0.11459,2.03386 h -2.4349 q -0.0286,-0.5013 -0.0286,-1.11719 0,-0.75911 0.0286,-1.34635 -0.83073,1.38932 -1.97656,2.03385 -1.14583,0.63021 -2.83594,0.63021 -1.48958,0 -2.63542,-0.52995 -1.13151,-0.52995 -1.74739,-1.5039 -0.60156,-0.98829 -0.60156,-2.27735 0,-1.13151 0.48698,-1.99088 0.5013,-0.8737 1.46093,-1.47526 0.95964,-0.61589 2.34896,-0.91667 1.38932,-0.30078 3.20833,-0.30078 1.08855,0 2.00521,0.0573 -0.0286,-1.84766 -0.90234,-2.70703 -0.8737,-0.8737 -2.67839,-0.8737 -1.17448,0 -2.14843,0.32943 -0.97396,0.3151 -2.07683,1.04557 z m 8.00651,6.48828 q -0.88802,-0.0859 -1.44661,-0.0859 -5.29948,0 -5.29948,2.72136 0,0.65885 0.34375,1.16015 0.34375,0.5013 0.97396,0.78776 0.63021,0.28646 1.43229,0.28646 1.47526,0 2.36328,-0.64453 0.88802,-0.64453 1.26042,-1.73307 0.37239,-1.08854 0.37239,-2.49219 z"
     style="font-style:normal;font-variant:normal;font-weight:normal;font-stretch:normal;font-size:29.33333397px;font-family:Frutiger;-inkscape-font-specification:Frutiger;text-align:end;letter-spacing:0.75px;text-anchor:end"
     id="path242" /><path
     d="m 164.57077,160.95663 0.12891,2.27734 q 1.63281,-2.52083 4.92708,-2.52083 1.80469,0 2.89323,0.65885 1.08854,0.65886 1.60416,1.7474 0.51563,1.07422 0.67318,2.3776 0.15755,1.28907 0.15755,3.13672 v 6.66016 h -2.63541 v -6.45964 q 0,-1.54687 -0.0573,-2.24869 -0.043,-0.71615 -0.17188,-1.26042 -0.30078,-1.14583 -1.08854,-1.7474 -0.78776,-0.60156 -1.96224,-0.60156 -1.31771,0 -2.34896,0.78776 -1.03125,0.78776 -1.44661,2.14844 -0.12891,0.38672 -0.21485,0.90234 -0.0716,0.51563 -0.0859,1.11719 -0.0143,0.60156 -0.0143,2.10547 v 5.25651 h -2.66406 v -7.07552 q -0.0286,-1.21745 -0.043,-2.23438 -0.0143,-1.03125 -0.0573,-2.42057 -0.0286,-1.40365 -0.0859,-2.60677 z"
     style="font-style:normal;font-variant:normal;font-weight:normal;font-stretch:normal;font-size:29.33333397px;font-family:Frutiger;-inkscape-font-specification:Frutiger;text-align:end;letter-spacing:0.75px;text-anchor:end"
     id="path244" /><path
     d="m 189.13978,161.35767 -0.17188,2.34896 q -1.08854,-0.64453 -2.62109,-0.64453 -1.375,0 -2.49219,0.63021 -1.11719,0.6302 -1.73307,1.76172 -0.61589,1.11718 -0.61589,2.5638 0,1.5039 0.60157,2.69271 0.60156,1.1888 1.67578,1.84765 1.08854,0.65886 2.50651,0.65886 0.84505,0 1.51823,-0.21485 0.67317,-0.21484 1.47526,-0.70182 l 0.21484,2.4349 q -0.81641,0.37239 -1.66146,0.55859 -0.83073,0.17187 -1.86198,0.17187 -2.13411,0 -3.80989,-0.91666 -1.66146,-0.91667 -2.5638,-2.5638 -0.90235,-1.66146 -0.90235,-3.85287 0,-2.09115 0.93099,-3.76693 0.93099,-1.6901 2.57813,-2.63541 1.64713,-0.95964 3.68099,-0.95964 1.67578,0 3.2513,0.58724 z"
     style="font-style:normal;font-variant:normal;font-weight:normal;font-stretch:normal;font-size:29.33333397px;font-family:Frutiger;-inkscape-font-specification:Frutiger;text-align:end;letter-spacing:0.75px;text-anchor:end"
     id="path246" /><path
     d="m 194.63066,168.80559 q 0.28646,2.13411 1.5612,3.38021 1.28907,1.23177 3.22266,1.23177 1.14583,0 2.23437,-0.32943 1.08855,-0.32943 2.2487,-1.01693 v 2.54948 q -1.30338,0.57292 -2.36328,0.81641 -1.0599,0.24349 -2.23437,0.24349 -1.66146,0 -3.02214,-0.54427 -1.36068,-0.54427 -2.32031,-1.5612 -0.95964,-1.01693 -1.47526,-2.44922 -0.51563,-1.44661 -0.51563,-3.16536 0,-2.19141 0.83073,-3.86719 0.83073,-1.67578 2.37761,-2.59245 1.56119,-0.93099 3.53776,-0.93099 2.32031,0 3.69531,1.14583 1.38932,1.13151 1.96224,2.99349 0.58724,1.86198 0.58724,4.09636 z m 0.0286,-2.07683 h 7.63412 q -0.14323,-1.17447 -0.54428,-2.0625 -0.40104,-0.90234 -1.1888,-1.44661 -0.78776,-0.54427 -1.93359,-0.54427 -1.57552,0 -2.63542,1.08854 -1.04557,1.07422 -1.33203,2.96484 z"
     style="font-style:normal;font-variant:normal;font-weight:normal;font-stretch:normal;font-size:29.33333397px;font-family:Frutiger;-inkscape-font-specification:Frutiger;text-align:end;letter-spacing:0.75px;text-anchor:end"
     id="path248" /><path
     d="m 208.93014,160.95663 h 2.46354 l 0.12891,2.54948 q 0.64453,-1.34636 1.67578,-2.03386 1.04557,-0.70182 2.42057,-0.70182 0.71615,0 1.44662,0.1862 v 2.4349 q -0.6875,-0.24349 -1.26042,-0.24349 -1.38932,0 -2.30599,0.8164 -0.91666,0.80209 -1.33203,2.0625 -0.41536,1.2461 -0.41536,2.60677 v 1.03125 5.62891 h -2.63542 v -8.73698 q 0,-2.11979 -0.1862,-5.60026 z"
     style="font-style:normal;font-variant:normal;font-weight:normal;font-stretch:normal;font-size:29.33333397px;font-family:Frutiger;-inkscape-font-specification:Frutiger;text-align:end;letter-spacing:0.75px;text-anchor:end"
     id="path250" /><path
     d="m 243.2153,156.45923 -0.22916,2.67839 q -1.10287,-0.64453 -2.01953,-0.88802 -0.91667,-0.25781 -2.0625,-0.25781 -1.61849,0 -2.97917,0.52994 -1.34636,0.51563 -2.34896,1.50391 -1.0026,0.98828 -1.54688,2.34896 -0.54427,1.34635 -0.54427,2.97916 0,2.14844 0.97396,3.89584 0.98828,1.73307 2.70703,2.72135 1.73308,0.97396 3.86719,0.97396 1.99089,0 4.18229,-0.8737 l 0.21485,2.69271 q -1.14584,0.3724 -2.09115,0.52995 -0.93099,0.14323 -2.22005,0.14323 -3.07943,0 -5.5,-1.1888 -2.40625,-1.18881 -3.76693,-3.45183 -1.36068,-2.27734 -1.36068,-5.38541 0,-2.83594 1.28907,-5.07032 1.30338,-2.23437 3.65234,-3.48047 2.36328,-1.24609 5.32813,-1.24609 2.5638,0 4.45442,0.84505 z"
     style="font-style:normal;font-variant:normal;font-weight:normal;font-stretch:normal;font-size:29.33333397px;font-family:Frutiger;-inkscape-font-specification:Frutiger;text-align:end;letter-spacing:0.75px;text-anchor:end"
     id="path252" /><path
     d="m 248.69186,168.80559 q 0.28646,2.13411 1.5612,3.38021 1.28906,1.23177 3.22265,1.23177 1.14584,0 2.23438,-0.32943 1.08854,-0.32943 2.2487,-1.01693 v 2.54948 q -1.30339,0.57292 -2.36328,0.81641 -1.0599,0.24349 -2.23438,0.24349 -1.66146,0 -3.02213,-0.54427 -1.36068,-0.54427 -2.32032,-1.5612 -0.95963,-1.01693 -1.47526,-2.44922 -0.51562,-1.44661 -0.51562,-3.16536 0,-2.19141 0.83073,-3.86719 0.83073,-1.67578 2.3776,-2.59245 1.5612,-0.93099 3.53776,-0.93099 2.32031,0 3.69531,1.14583 1.38933,1.13151 1.96224,2.99349 0.58724,1.86198 0.58724,4.09636 z m 0.0286,-2.07683 h 7.63411 q -0.14323,-1.17447 -0.54427,-2.0625 -0.40104,-0.90234 -1.1888,-1.44661 -0.78776,-0.54427 -1.9336,-0.54427 -1.57552,0 -2.63541,1.08854 -1.04558,1.07422 -1.33203,2.96484 z"
     style="font-style:normal;font-variant:normal;font-weight:normal;font-stretch:normal;font-size:29.33333397px;font-family:Frutiger;-inkscape-font-specification:Frutiger;text-align:end;letter-spacing:0.75px;text-anchor:end"
     id="path254" /><path
     d="m 265.45489,160.95663 0.1289,2.27734 q 1.63281,-2.52083 4.92709,-2.52083 1.80468,0 2.89323,0.65885 1.08854,0.65886 1.60416,1.7474 0.51563,1.07422 0.67318,2.3776 0.15755,1.28907 0.15755,3.13672 v 6.66016 h -2.63542 v -6.45964 q 0,-1.54687 -0.0573,-2.24869 -0.043,-0.71615 -0.17187,-1.26042 -0.30078,-1.14583 -1.08854,-1.7474 -0.78776,-0.60156 -1.96224,-0.60156 -1.31771,0 -2.34896,0.78776 -1.03125,0.78776 -1.44662,2.14844 -0.1289,0.38672 -0.21484,0.90234 -0.0716,0.51563 -0.0859,1.11719 -0.0143,0.60156 -0.0143,2.10547 v 5.25651 h -2.66406 v -7.07552 q -0.0287,-1.21745 -0.043,-2.23438 -0.0143,-1.03125 -0.0573,-2.42057 -0.0286,-1.40365 -0.0859,-2.60677 z"
     style="font-style:normal;font-variant:normal;font-weight:normal;font-stretch:normal;font-size:29.33333397px;font-family:Frutiger;-inkscape-font-specification:Frutiger;text-align:end;letter-spacing:0.75px;text-anchor:end"
     id="path256" /><path
     d="m 284.30905,156.81731 v 4.19661 h 3.80989 v 2.07682 h -3.80989 v 5.62891 q 0,1.93359 0.17187,2.82161 0.12891,0.77344 0.70183,1.23178 0.58724,0.44401 1.48958,0.44401 0.83073,0 1.73307,-0.44401 v 2.29166 q -1.26041,0.40104 -2.46354,0.40104 -1.86198,0 -2.80729,-0.75911 -0.94531,-0.75912 -1.21745,-1.99089 -0.25781,-1.23177 -0.25781,-3.19401 v -6.43099 h -3.3086 v -2.07682 h 3.3086 v -3.29427 z"
     style="font-style:normal;font-variant:normal;font-weight:normal;font-stretch:normal;font-size:29.33333397px;font-family:Frutiger;-inkscape-font-specification:Frutiger;text-align:end;letter-spacing:0.75px;text-anchor:end"
     id="path258" /><path
     d="m 292.00567,160.95663 h 2.46354 l 0.12891,2.54948 q 0.64453,-1.34636 1.67578,-2.03386 1.04557,-0.70182 2.42057,-0.70182 0.71615,0 1.44662,0.1862 v 2.4349 q -0.6875,-0.24349 -1.26042,-0.24349 -1.38932,0 -2.30599,0.8164 -0.91666,0.80209 -1.33203,2.0625 -0.41536,1.2461 -0.41536,2.60677 v 1.03125 5.62891 h -2.63542 v -8.73698 q 0,-2.11979 -0.1862,-5.60026 z"
     style="font-style:normal;font-variant:normal;font-weight:normal;font-stretch:normal;font-size:29.33333397px;font-family:Frutiger;-inkscape-font-specification:Frutiger;text-align:end;letter-spacing:0.75px;text-anchor:end"
     id="path260" /><path
     d="m 305.07338,168.80559 q 0.28645,2.13411 1.56119,3.38021 1.28907,1.23177 3.22266,1.23177 1.14583,0 2.23437,-0.32943 1.08855,-0.32943 2.2487,-1.01693 v 2.54948 q -1.30338,0.57292 -2.36328,0.81641 -1.05989,0.24349 -2.23437,0.24349 -1.66146,0 -3.02214,-0.54427 -1.36068,-0.54427 -2.32031,-1.5612 -0.95964,-1.01693 -1.47526,-2.44922 -0.51563,-1.44661 -0.51563,-3.16536 0,-2.19141 0.83073,-3.86719 0.83073,-1.67578 2.37761,-2.59245 1.56119,-0.93099 3.53776,-0.93099 2.32031,0 3.69531,1.14583 1.38932,1.13151 1.96224,2.99349 0.58724,1.86198 0.58724,4.09636 z m 0.0286,-2.07683 h 7.63412 q -0.14323,-1.17447 -0.54427,-2.0625 -0.40105,-0.90234 -1.18881,-1.44661 -0.78776,-0.54427 -1.93359,-0.54427 -1.57552,0 -2.63542,1.08854 -1.04557,1.07422 -1.33203,2.96484 z"
     style="font-style:normal;font-variant:normal;font-weight:normal;font-stretch:normal;font-size:29.33333397px;font-family:Frutiger;-inkscape-font-specification:Frutiger;text-align:end;letter-spacing:0.75px;text-anchor:end"
     id="path262" /></g>
<g
   aria-label="NHS Foundation Trust"
   style="font-style:normal;font-variant:normal;font-weight:bold;font-stretch:normal;font-size:20px;line-height:1.25;font-family:Frutiger;-inkscape-font-specification:'Frutiger Bold';letter-spacing:0.31000009px;word-spacing:0px;fill:#005eb8;fill-opacity:1;stroke:none"
   id="text1054"><path
     d="m 122.64612,200.54349 h -3.24219 l -4.375,-8.05664 q -0.41992,-0.76172 -1.10351,-2.36328 0.30273,2.08007 0.30273,3.4375 v 6.98242 h -2.55859 v -13.33985 h 3.17382 l 4.48243,8.07618 q 0.23437,0.42968 0.30273,0.61523 0.0781,0.18555 0.2832,0.70313 0.20508,0.51757 0.41993,1.04492 -0.24415,-1.39649 -0.24415,-3.26172 v -7.17774 h 2.5586 z"
     style=""
     id="path265" /><path
     d="m 136.86237,200.54349 h -2.68555 v -5.74219 h -5.32226 v 5.74219 h -2.69532 v -13.33985 h 2.69532 v 5.41993 h 5.32226 v -5.41993 h 2.68555 z"
     style=""
     id="path267" /><path
     d="m 140.16065,200.24075 0.24414,-2.39257 q 1.58203,0.85937 3.01758,0.85937 0.92773,0 1.62109,-0.45898 0.70313,-0.45899 0.70313,-1.34766 0,-0.89844 -0.59571,-1.2793 -0.58593,-0.38086 -2.13867,-1.04492 -1.55273,-0.67383 -2.33398,-1.49414 -0.77149,-0.83008 -0.77149,-2.36328 0,-1.2793 0.64454,-2.12891 0.65429,-0.85937 1.71875,-1.25976 1.07421,-0.41016 2.33398,-0.41016 1.68945,0 3.18359,0.52734 l -0.22461,2.19727 q -1.45507,-0.66406 -2.76367,-0.66406 -0.85937,0 -1.5039,0.39062 -0.63477,0.38086 -0.63477,1.21094 0,0.79102 0.47852,1.08398 0.47851,0.29297 2.16796,1.04493 1.69922,0.74218 2.5,1.59179 0.80079,0.83985 0.80079,2.36328 0,1.08399 -0.40039,1.875 -0.4004,0.79102 -1.11329,1.3086 -0.70312,0.50781 -1.62109,0.75195 -0.9082,0.24414 -1.93359,0.24414 -1.6211,0 -3.37891,-0.60547 z"
     style=""
     id="path269" /><path
     d="m 160.05799,194.76224 v 5.78125 h -2.71484 v -13.33985 h 7.40234 v 2.19727 h -4.70703 v 3.16406 h 4.52149 v 2.19727 z"
     style=""
     id="path271" /><path
     d="m 176.8719,195.68021 q 0,1.14257 -0.3711,2.09961 -0.37109,0.94726 -1.05468,1.62109 -0.67383,0.66406 -1.6211,1.03516 -0.94726,0.37109 -2.10937,0.37109 -1.5332,0 -2.69531,-0.66406 -1.16211,-0.66407 -1.79688,-1.875 -0.625,-1.21094 -0.625,-2.72461 0,-1.51367 0.64453,-2.68555 0.64453,-1.17187 1.80664,-1.81641 1.17188,-0.65429 2.68555,-0.65429 1.17187,0 2.11914,0.39062 0.95703,0.39063 1.63086,1.11328 0.67383,0.71289 1.02539,1.67969 0.36133,0.9668 0.36133,2.10938 z m -2.65625,-0.0586 q 0,-0.80078 -0.26367,-1.57226 -0.25391,-0.77149 -0.82032,-1.26953 -0.5664,-0.49805 -1.39648,-0.49805 -0.79102,0 -1.36719,0.48828 -0.5664,0.48828 -0.83984,1.25 -0.27344,0.75195 -0.27344,1.52344 0,0.83008 0.25391,1.60156 0.26367,0.77148 0.83008,1.26953 0.5664,0.48828 1.43554,0.48828 0.61524,0 1.08399,-0.29297 0.46875,-0.30273 0.76172,-0.76171 0.29296,-0.46875 0.43945,-1.04493 0.15625,-0.58593 0.15625,-1.18164 z"
     style=""
     id="path273" /><path
     d="m 188.1194,190.64114 v 6.04493 q 0.0195,0.41992 0.0391,1.29882 0.0293,0.87891 0.0488,1.40625 0.0195,0.52735 0.0586,1.15235 h -2.42187 l -0.0781,-1.52344 q -0.34179,0.53711 -0.83007,0.9082 -0.47852,0.3711 -1.08399,0.57618 -0.60547,0.19531 -1.21094,0.19531 -1.37695,0 -2.14843,-0.56641 -0.77149,-0.5664 -1.06446,-1.55273 -0.2832,-0.98633 -0.2832,-2.35352 v -5.58594 h 2.55859 v 4.76563 q 0,0.92773 0.0879,1.57226 0.0976,0.63477 0.49804,1.11329 0.40039,0.46875 1.21094,0.46875 1.16211,0 1.61133,-0.97657 0.44922,-0.98632 0.44922,-2.30468 v -4.63868 z"
     style=""
     id="path275" /><path
     d="m 193.57588,190.64114 0.0586,1.58204 q 1.1914,-1.73829 3.33984,-1.73829 1.99219,0 2.68555,1.18164 0.69336,1.17188 0.69336,3.30079 v 5.57617 h -2.5586 v -4.98047 q 0,-1.31836 -0.34179,-2.13867 -0.33204,-0.82032 -1.45508,-0.82032 -1.20117,0 -1.68946,0.9668 -0.48828,0.95703 -0.48828,2.27539 v 4.69727 h -2.56836 v -6.29883 q 0,-2.09961 -0.0976,-3.60352 z"
     style=""
     id="path277" /><path
     d="m 212.30386,200.54349 h -2.42188 l -0.0391,-1.67969 q -0.43945,0.88867 -1.25977,1.36719 -0.81054,0.46875 -1.83593,0.46875 -1.07422,0 -1.88477,-0.41992 -0.80078,-0.42969 -1.29883,-1.15235 -0.49805,-0.72265 -0.74219,-1.64062 -0.23437,-0.91797 -0.23437,-1.92383 0,-1.32813 0.43945,-2.49024 0.43946,-1.17187 1.35742,-1.88476 0.92774,-0.72266 2.30469,-0.72266 1.03516,0 1.80664,0.45899 0.77149,0.45898 1.26953,1.35742 -0.0977,-0.72266 -0.0977,-1.75781 v -4.38477 h 2.55859 v 11.52344 q 0.0195,0.95703 0.0293,1.67969 0.0195,0.72265 0.0488,1.20117 z m -2.59766,-4.88281 q 0,-0.77149 -0.24414,-1.45508 -0.24414,-0.69336 -0.77149,-1.14258 -0.51757,-0.45899 -1.28906,-0.45899 -1.15234,0 -1.66015,0.88868 -0.49805,0.8789 -0.49805,2.1289 0,1.17188 0.55664,2.11914 0.55664,0.94727 1.64062,0.94727 0.73243,0 1.25,-0.43945 0.52735,-0.44922 0.77149,-1.13282 0.24414,-0.69336 0.24414,-1.45507 z"
     style=""
     id="path279" /><path
     d="m 223.47323,200.54349 h -2.28516 l -0.0391,-1.48438 q -0.45898,0.79102 -1.28906,1.22071 -0.82032,0.41992 -1.78711,0.41992 -0.98633,0 -1.76758,-0.3418 -0.77148,-0.3418 -1.2207,-1.03516 -0.44922,-0.70312 -0.44922,-1.69921 0,-1.85547 1.45508,-2.53907 1.45507,-0.68359 3.54492,-0.68359 0.30273,0 0.39062,0.01 0.0879,0 0.39063,0.0195 0.30273,0.01 0.61523,0.0293 0,-1.10351 -0.53711,-1.64062 -0.53711,-0.53711 -1.66015,-0.53711 -1.69922,0 -3.06641,1.08398 l -0.0781,-2.22656 q 1.59179,-0.67383 3.44726,-0.67383 0.69336,0 1.37695,0.13672 0.6836,0.13672 1.25977,0.45899 0.58594,0.3125 0.9668,0.83984 0.39062,0.52734 0.50781,1.21094 0.12695,0.67383 0.12695,1.61133 0,0.96679 0,1.94335 0.01,0.97657 0.0195,1.78711 0.0195,0.80079 0.0781,2.08985 z m -2.40235,-4.50196 q -0.0976,-0.0195 -0.30273,-0.0195 h -0.3125 q -0.83984,0 -1.54297,0.0977 -0.69336,0.0879 -1.2207,0.46875 -0.51758,0.37109 -0.51758,1.09375 0,0.58594 0.45898,0.9375 0.46875,0.3418 1.08399,0.3418 1.16211,0 1.75781,-0.85938 0.5957,-0.85937 0.5957,-2.06055 z"
     style=""
     id="path281" /><path
     d="m 231.82034,198.42435 0.0879,2.00195 q -0.97657,0.19531 -1.72852,0.19531 -1.25977,0 -1.99219,-0.45898 -0.73242,-0.46875 -1.02539,-1.31836 -0.29297,-0.85938 -0.29297,-2.09961 v -4.14063 h -1.86523 v -1.90429 h 1.9043 v -2.01172 l 2.55859,-0.83984 v 2.85156 h 2.25586 v 1.90429 h -2.25586 v 3.60352 q 0,1.15234 0.24414,1.75781 0.25391,0.59571 1.23047,0.59571 0.36133,0 0.87891,-0.13672 z"
     style=""
     id="path283" /><path
     d="m 236.53464,200.54349 h -2.5586 v -9.90235 h 2.5586 z m 0.0391,-11.69922 h -2.63672 v -2.42188 h 2.63672 z"
     style=""
     id="path285" /><path
     d="m 249.13956,195.68021 q 0,1.14257 -0.3711,2.09961 -0.37109,0.94726 -1.05468,1.62109 -0.67383,0.66406 -1.6211,1.03516 -0.94726,0.37109 -2.10937,0.37109 -1.53321,0 -2.69532,-0.66406 -1.1621,-0.66407 -1.79687,-1.875 -0.625,-1.21094 -0.625,-2.72461 0,-1.51367 0.64453,-2.68555 0.64453,-1.17187 1.80664,-1.81641 1.17188,-0.65429 2.68555,-0.65429 1.17187,0 2.11914,0.39062 0.95703,0.39063 1.63086,1.11328 0.67383,0.71289 1.02539,1.67969 0.36133,0.9668 0.36133,2.10938 z m -2.65625,-0.0586 q 0,-0.80078 -0.26367,-1.57226 -0.25391,-0.77149 -0.82032,-1.26953 -0.5664,-0.49805 -1.39648,-0.49805 -0.79102,0 -1.36719,0.48828 -0.56641,0.48828 -0.83984,1.25 -0.27344,0.75195 -0.27344,1.52344 0,0.83008 0.25391,1.60156 0.26367,0.77148 0.83007,1.26953 0.56641,0.48828 1.43555,0.48828 0.61524,0 1.08399,-0.29297 0.46875,-0.30273 0.76171,-0.76171 0.29297,-0.46875 0.43946,-1.04493 0.15625,-0.58593 0.15625,-1.18164 z"
     style=""
     id="path287" /><path
     d="m 253.91245,190.64114 0.0586,1.58204 q 1.19141,-1.73829 3.33984,-1.73829 1.99219,0 2.68555,1.18164 0.69336,1.17188 0.69336,3.30079 v 5.57617 h -2.55859 v -4.98047 q 0,-1.31836 -0.3418,-2.13867 -0.33203,-0.82032 -1.45508,-0.82032 -1.20117,0 -1.68945,0.9668 -0.48828,0.95703 -0.48828,2.27539 v 4.69727 h -2.56836 v -6.29883 q 0,-2.09961 -0.0977,-3.60352 z"
     style=""
     id="path289" /><path
     d="m 274.74728,200.54349 h -2.69531 v -11.14258 h -3.80859 v -2.19727 h 10.34179 v 2.19727 h -3.83789 z"
     style=""
     id="path291" /><path
     d="m 283.03581,200.54349 h -2.55859 v -6.92383 q -0.0488,-2.4707 -0.0781,-2.97852 h 2.32422 l 0.0586,2.5 q 0.33203,-1.17187 1.00586,-1.875 0.68359,-0.70312 1.77734,-0.70312 0.33203,0 0.75195,0.0977 v 2.40234 q -0.50781,-0.13672 -0.89844,-0.13672 -0.9082,0 -1.44531,0.47852 -0.53711,0.47851 -0.74219,1.23046 -0.19531,0.74219 -0.19531,1.63086 v 0.19532 z"
     style=""
     id="path293" /><path
     d="m 297.10558,190.64114 v 6.04493 q 0.0195,0.41992 0.0391,1.29882 0.0293,0.87891 0.0488,1.40625 0.0195,0.52735 0.0586,1.15235 h -2.42188 l -0.0781,-1.52344 q -0.3418,0.53711 -0.83008,0.9082 -0.47851,0.3711 -1.08398,0.57618 -0.60547,0.19531 -1.21094,0.19531 -1.37695,0 -2.14844,-0.56641 -0.77148,-0.5664 -1.06445,-1.55273 -0.2832,-0.98633 -0.2832,-2.35352 v -5.58594 h 2.55859 v 4.76563 q 0,0.92773 0.0879,1.57226 0.0977,0.63477 0.49805,1.11329 0.40039,0.46875 1.21093,0.46875 1.16211,0 1.61133,-0.97657 0.44922,-0.98632 0.44922,-2.30468 v -4.63868 z"
     style=""
     id="path295" /><path
     d="m 299.70073,200.27982 0.11719,-2.15821 q 1.36718,0.70313 2.51953,0.70313 0.63476,0 1.20117,-0.27344 0.56641,-0.27344 0.56641,-0.84961 0,-0.49805 -0.81055,-0.84961 -0.81055,-0.35156 -1.63086,-0.69336 -0.81055,-0.34179 -1.40625,-0.95703 -0.5957,-0.61523 -0.5957,-1.71875 0,-1.05469 0.61523,-1.72851 0.625,-0.67383 1.58203,-0.97657 0.95703,-0.3125 1.98242,-0.3125 1.08399,0 2.44141,0.38086 l -0.18555,1.91406 q -1.1914,-0.38085 -2.09961,-0.38085 -0.66406,0 -1.23046,0.2246 -0.56641,0.22461 -0.56641,0.78125 0,0.47852 0.77148,0.80079 0.78125,0.3125 1.63086,0.63476 0.85938,0.3125 1.46485,0.94727 0.61523,0.625 0.61523,1.79687 0,1.06446 -0.5957,1.77735 -0.58594,0.71289 -1.52344,1.04492 -0.9375,0.33203 -1.98242,0.33203 -1.19141,0 -2.88086,-0.43945 z"
     style=""
     id="path297" /><path
     d="m 314.59081,198.42435 0.0879,2.00195 q -0.97657,0.19531 -1.72852,0.19531 -1.25977,0 -1.99219,-0.45898 -0.73242,-0.46875 -1.02539,-1.31836 -0.29297,-0.85938 -0.29297,-2.09961 v -4.14063 h -1.86523 v -1.90429 h 1.9043 v -2.01172 l 2.55859,-0.83984 v 2.85156 h 2.25586 v 1.90429 h -2.25586 v 3.60352 q 0,1.15234 0.24414,1.75781 0.25391,0.59571 1.23047,0.59571 0.36133,0 0.87891,-0.13672 z"
     style=""
     id="path299" /></g>
</g></svg>