<?xml version="1.0" encoding="UTF-8" standalone="no"?>
<svg
   xmlns:dc="http://purl.org/dc/elements/1.1/"
   xmlns:cc="http://creativecommons.org/ns#"
   xmlns:rdf="http://www.w3.org/1999/02/22-rdf-syntax-ns#"
   xmlns:svg="http://www.w3.org/2000/svg"
   xmlns="http://www.w3.org/2000/svg"
   xmlns:sodipodi="http://sodipodi.sourceforge.net/DTD/sodipodi-0.dtd"
   xmlns:inkscape="http://www.inkscape.org/namespaces/inkscape"
   id="svg1381"
   version="1.1"
   viewBox="0 0 70 55"
   height="55mm"
   width="70mm"
   sodipodi:docname="clatterbridge.svg"
   inkscape:version="0.92.5 (2060ec1f9f, 2020-04-08)">
  <sodipodi:namedview
     pagecolor="#ffffff"
     bordercolor="#666666"
     borderopacity="1"
     objecttolerance="10"
     gridtolerance="10"
     guidetolerance="10"
     inkscape:pageopacity="0"
     inkscape:pageshadow="2"
     inkscape:window-width="2800"
     inkscape:window-height="1672"
     id="namedview3595"
     showgrid="false"
     inkscape:zoom="1.135303"
     inkscape:cx="-180.84879"
     inkscape:cy="103.93701"
     inkscape:window-x="80"
     inkscape:window-y="54"
     inkscape:window-maximized="1"
     inkscape:current-layer="svg1381" />
  <defs
     id="defs1375" />
  <metadata
     id="metadata1378">
    <rdf:RDF>
      <cc:Work
         rdf:about="">
        <dc:format>image/svg+xml</dc:format>
        <dc:type
           rdf:resource="http://purl.org/dc/dcmitype/StillImage" />
        <dc:title />
      </cc:Work>
    </rdf:RDF>
  </metadata>
  <g
     transform="translate(-46.113098,-92.136902)"
     id="layer1">
    <g
       id="g1967"
       transform="translate(-11.803434,-126.30008)">
      <g
         aria-label="The ClatterbridgeCancer Centre"
         transform="scale(0.98014637,1.0202558)"
         style="font-style:normal;font-variant:normal;font-weight:normal;font-stretch:normal;font-size:6.9154768px;line-height:1.25;font-family:Frutiger;-inkscape-font-specification:Frutiger;letter-spacing:0px;word-spacing:0px;fill:#000000;fill-opacity:1;stroke:none;stroke-width:0.26458332"
         id="text1237">
        <path
           d="m 74.124622,251.1348 h -0.931969 v -3.85281 h -1.316912 v -0.75976 h 3.575923 v 0.75976 h -1.327042 z"
           style="font-style:normal;font-variant:normal;font-weight:bold;font-stretch:normal;font-family:Frutiger;-inkscape-font-specification:'Frutiger Bold';text-align:end;text-anchor:end;stroke-width:0.26458332"
           id="path4140" />
        <path
           d="m 79.118757,251.1348 h -0.884694 v -1.66134 q 0,-0.49299 -0.108055,-0.78677 -0.104677,-0.29715 -0.499751,-0.29715 -0.425464,0 -0.597675,0.35118 -0.172212,0.3478 -0.172212,0.81716 v 0.17221 1.40471 h -0.884695 v -4.98063 h 0.884695 v 2.0429 q 0.192472,-0.27689 0.462608,-0.41196 0.270135,-0.13506 0.617935,-0.13506 0.361307,0 0.594299,0.11818 0.236369,0.11481 0.361307,0.31403 0.128314,0.19923 0.175588,0.46599 0.05065,0.26338 0.05065,0.62131 z"
           style="font-style:normal;font-variant:normal;font-weight:bold;font-stretch:normal;font-family:Frutiger;-inkscape-font-specification:'Frutiger Bold';text-align:end;text-anchor:end;stroke-width:0.26458332"
           id="path4142" />
        <path
           d="m 82.741954,250.22309 0.01351,0.76651 q -0.543649,0.23637 -1.175091,0.23637 -0.422087,0 -0.753004,-0.11818 -0.327539,-0.12157 -0.560532,-0.35456 -0.232992,-0.23637 -0.354553,-0.56728 -0.121561,-0.3343 -0.121561,-0.75976 0,-0.3917 0.111431,-0.71924 0.114808,-0.33091 0.32754,-0.57066 0.212732,-0.24312 0.523388,-0.37819 0.314033,-0.13507 0.709106,-0.13507 0.384944,0 0.678717,0.13845 0.293772,0.13844 0.476114,0.38156 0.185718,0.24313 0.276889,0.56391 0.09117,0.31741 0.09117,0.69898 0,0.0675 -0.0034,0.1013 -0.0034,0.0338 -0.0068,0.0844 -0.0034,0.0507 -0.01013,0.11818 h -2.302908 q 0.03377,0.40521 0.314033,0.63145 0.283643,0.22623 0.702353,0.22623 0.472738,0 1.06366,-0.34442 z m -0.601052,-1.12782 q -0.0068,-0.22961 -0.08442,-0.42208 -0.07429,-0.19248 -0.232992,-0.31066 -0.155328,-0.11818 -0.38832,-0.11818 -0.239746,0 -0.411957,0.11818 -0.168835,0.11481 -0.263383,0.30728 -0.09117,0.19247 -0.111431,0.42546 z"
           style="font-style:normal;font-variant:normal;font-weight:bold;font-stretch:normal;font-family:Frutiger;-inkscape-font-specification:'Frutiger Bold';text-align:end;text-anchor:end;stroke-width:0.26458332"
           id="path4144" />
        <path
           d="m 89.049625,250.20283 0.03377,0.81378 q -0.574039,0.15196 -1.050153,0.15196 -0.540272,0 -0.999503,-0.14183 -0.459231,-0.14182 -0.810407,-0.43221 -0.3478,-0.29378 -0.536895,-0.72599 -0.185718,-0.43222 -0.185718,-0.99613 0,-0.56391 0.168834,-1.00963 0.168835,-0.44573 0.489622,-0.753 0.324163,-0.31066 0.77664,-0.46599 0.452478,-0.15533 1.013009,-0.15533 0.499752,0 1.114311,0.19923 l -0.07429,0.79015 q -0.455854,-0.24988 -0.989372,-0.24988 -0.452478,0 -0.796901,0.19585 -0.344423,0.19247 -0.530141,0.54027 -0.182342,0.3478 -0.182342,0.80028 0,0.46936 0.192472,0.84417 0.195848,0.37482 0.553778,0.58079 0.35793,0.20598 0.837421,0.20598 0.455854,0 0.975866,-0.19247 z"
           style="font-style:normal;font-variant:normal;font-weight:bold;font-stretch:normal;font-family:Frutiger;-inkscape-font-specification:'Frutiger Bold';text-align:end;text-anchor:end;stroke-width:0.26458332"
           id="path4146" />
        <path
           d="m 90.562386,251.1348 h -0.884695 v -4.98063 h 0.884695 z"
           style="font-style:normal;font-variant:normal;font-weight:bold;font-stretch:normal;font-family:Frutiger;-inkscape-font-specification:'Frutiger Bold';text-align:end;text-anchor:end;stroke-width:0.26458332"
           id="path4148" />
        <path
           d="m 94.317273,251.1348 h -0.790147 l -0.01351,-0.51326 q -0.158705,0.27351 -0.445724,0.42209 -0.283643,0.1452 -0.617936,0.1452 -0.341046,0 -0.611182,-0.11819 -0.266759,-0.11818 -0.422087,-0.35793 -0.155328,-0.24312 -0.155328,-0.58754 0,-0.64158 0.503128,-0.87794 0.503128,-0.23637 1.225741,-0.23637 0.104677,0 0.135068,0.003 0.03039,0 0.135068,0.007 0.104677,0.003 0.212732,0.0101 0,-0.38157 -0.185719,-0.56729 -0.185718,-0.18572 -0.574038,-0.18572 -0.587546,0 -1.060283,0.37482 l -0.02701,-0.76989 q 0.550402,-0.23299 1.191974,-0.23299 0.239746,0 0.476115,0.0473 0.236368,0.0473 0.435594,0.15871 0.202601,0.10805 0.334293,0.29039 0.135068,0.18234 0.175588,0.41871 0.0439,0.23299 0.0439,0.55716 0,0.33429 0,0.67196 0.0034,0.33767 0.0068,0.61794 0.0068,0.27688 0.02701,0.72261 z m -0.830668,-1.55666 q -0.03377,-0.007 -0.104677,-0.007 h -0.108055 q -0.290396,0 -0.533518,0.0338 -0.239745,0.0304 -0.422087,0.16209 -0.178965,0.12831 -0.178965,0.37819 0,0.2026 0.158705,0.32416 0.162081,0.11818 0.374813,0.11818 0.401827,0 0.607806,-0.29715 0.205978,-0.29714 0.205978,-0.71248 z"
           style="font-style:normal;font-variant:normal;font-weight:bold;font-stretch:normal;font-family:Frutiger;-inkscape-font-specification:'Frutiger Bold';text-align:end;text-anchor:end;stroke-width:0.26458332"
           id="path4150" />
        <path
           d="m 97.096295,250.40206 0.03039,0.69222 q -0.337669,0.0675 -0.597675,0.0675 -0.435594,0 -0.688846,-0.1587 -0.253253,-0.16208 -0.354554,-0.45586 -0.101301,-0.29715 -0.101301,-0.72599 v -1.43172 H 94.73936 v -0.65845 h 0.658456 v -0.6956 l 0.884695,-0.2904 v 0.986 h 0.780017 v 0.65845 h -0.780017 v 1.24601 q 0,0.39845 0.08442,0.6078 0.08779,0.20598 0.425463,0.20598 0.124938,0 0.303903,-0.0473 z"
           style="font-style:normal;font-variant:normal;font-weight:bold;font-stretch:normal;font-family:Frutiger;-inkscape-font-specification:'Frutiger Bold';text-align:end;text-anchor:end;stroke-width:0.26458332"
           id="path4152" />
        <path
           d="m 99.649079,250.40206 0.03039,0.69222 q -0.337669,0.0675 -0.597675,0.0675 -0.435594,0 -0.688846,-0.1587 -0.253253,-0.16208 -0.354554,-0.45586 -0.101301,-0.29715 -0.101301,-0.72599 v -1.43172 h -0.644949 v -0.65845 H 97.9506 v -0.6956 l 0.884695,-0.2904 v 0.986 h 0.780017 v 0.65845 h -0.780017 v 1.24601 q 0,0.39845 0.08442,0.6078 0.08779,0.20598 0.425464,0.20598 0.124938,0 0.303903,-0.0473 z"
           style="font-style:normal;font-variant:normal;font-weight:bold;font-stretch:normal;font-family:Frutiger;-inkscape-font-specification:'Frutiger Bold';text-align:end;text-anchor:end;stroke-width:0.26458332"
           id="path4154" />
        <path
           d="m 103.03928,250.22309 0.0135,0.76651 q -0.54365,0.23637 -1.17509,0.23637 -0.42209,0 -0.753,-0.11818 -0.32754,-0.12157 -0.56054,-0.35456 -0.23299,-0.23637 -0.35455,-0.56728 -0.12156,-0.3343 -0.12156,-0.75976 0,-0.3917 0.11143,-0.71924 0.11481,-0.33091 0.32754,-0.57066 0.21273,-0.24312 0.52339,-0.37819 0.31403,-0.13507 0.70911,-0.13507 0.38494,0 0.67871,0.13845 0.29377,0.13844 0.47612,0.38156 0.18571,0.24313 0.27689,0.56391 0.0912,0.31741 0.0912,0.69898 0,0.0675 -0.003,0.1013 -0.003,0.0338 -0.007,0.0844 -0.003,0.0507 -0.0101,0.11818 h -2.30291 q 0.0338,0.40521 0.31403,0.63145 0.28364,0.22623 0.70235,0.22623 0.47274,0 1.06366,-0.34442 z m -0.60105,-1.12782 q -0.007,-0.22961 -0.0844,-0.42208 -0.0743,-0.19248 -0.23299,-0.31066 -0.15533,-0.11818 -0.38832,-0.11818 -0.23974,0 -0.41195,0.11818 -0.16884,0.11481 -0.26339,0.30728 -0.0912,0.19247 -0.11143,0.42546 z"
           style="font-style:normal;font-variant:normal;font-weight:bold;font-stretch:normal;font-family:Frutiger;-inkscape-font-specification:'Frutiger Bold';text-align:end;text-anchor:end;stroke-width:0.26458332"
           id="path4156" />
        <path
           d="m 104.89984,251.1348 h -0.88469 v -2.39408 q -0.0169,-0.8543 -0.027,-1.02989 h 0.80365 l 0.0203,0.86443 q 0.11481,-0.4052 0.3478,-0.64832 0.23637,-0.24313 0.61456,-0.24313 0.11481,0 0.26001,0.0338 v 0.83067 q -0.17559,-0.0473 -0.31066,-0.0473 -0.31403,0 -0.49975,0.16546 -0.18572,0.16546 -0.25663,0.42547 -0.0675,0.25663 -0.0675,0.56391 v 0.0675 z"
           style="font-style:normal;font-variant:normal;font-weight:bold;font-stretch:normal;font-family:Frutiger;-inkscape-font-specification:'Frutiger Bold';text-align:end;text-anchor:end;stroke-width:0.26458332"
           id="path4158" />
        <path
           d="m 107.40535,251.1348 h -0.83066 v -4.98063 h 0.88469 v 1.52289 q 0,0.36806 -0.0338,0.63482 0.17559,-0.33767 0.44911,-0.49975 0.27351,-0.16208 0.6652,-0.16208 0.35793,0 0.61794,0.13844 0.26338,0.13507 0.42884,0.37482 0.16546,0.23974 0.2465,0.54364 0.081,0.30053 0.081,0.64495 0,0.36469 -0.0743,0.69223 -0.0743,0.32416 -0.23637,0.58079 -0.16208,0.25325 -0.43897,0.40858 -0.27689,0.15533 -0.66183,0.15533 -0.75976,0 -1.07717,-0.5943 z m 1.59043,-1.70861 q 0,-0.41196 -0.17897,-0.72261 -0.17558,-0.31404 -0.55377,-0.31404 -0.39845,0 -0.59768,0.32417 -0.19922,0.32416 -0.19922,0.73949 0,0.41534 0.19584,0.72937 0.19585,0.31066 0.58755,0.31066 0.25663,0 0.42209,-0.16546 0.16883,-0.16546 0.2465,-0.41196 0.0777,-0.24987 0.0777,-0.48962 z"
           style="font-style:normal;font-variant:normal;font-weight:bold;font-stretch:normal;font-family:Frutiger;-inkscape-font-specification:'Frutiger Bold';text-align:end;text-anchor:end;stroke-width:0.26458332"
           id="path4160" />
        <path
           d="m 111.53843,251.1348 h -0.88469 v -2.39408 q -0.0169,-0.8543 -0.027,-1.02989 h 0.80366 l 0.0203,0.86443 q 0.11481,-0.4052 0.3478,-0.64832 0.23637,-0.24313 0.61456,-0.24313 0.11481,0 0.26,0.0338 v 0.83067 q -0.17558,-0.0473 -0.31065,-0.0473 -0.31404,0 -0.49975,0.16546 -0.18572,0.16546 -0.25663,0.42547 -0.0675,0.25663 -0.0675,0.56391 v 0.0675 z"
           style="font-style:normal;font-variant:normal;font-weight:bold;font-stretch:normal;font-family:Frutiger;-inkscape-font-specification:'Frutiger Bold';text-align:end;text-anchor:end;stroke-width:0.26458332"
           id="path4162" />
        <path
           d="m 114.10472,251.1348 h -0.88469 v -3.42397 h 0.88469 z m 0.0135,-4.04528 h -0.91171 v -0.83743 h 0.91171 z"
           style="font-style:normal;font-variant:normal;font-weight:bold;font-stretch:normal;font-family:Frutiger;-inkscape-font-specification:'Frutiger Bold';text-align:end;text-anchor:end;stroke-width:0.26458332"
           id="path4164" />
        <path
           d="m 118.16351,251.1348 h -0.83742 l -0.0135,-0.58079 q -0.15195,0.30728 -0.43559,0.47273 -0.28027,0.16209 -0.63482,0.16209 -0.37144,0 -0.6517,-0.1452 -0.27689,-0.14858 -0.4491,-0.39845 -0.17221,-0.24988 -0.25663,-0.56729 -0.081,-0.31741 -0.081,-0.66521 0,-0.45923 0.15195,-0.86105 0.15195,-0.40521 0.46936,-0.65171 0.32079,-0.24987 0.7969,-0.24987 0.35793,0 0.62469,0.1587 0.26676,0.15871 0.43897,0.46936 -0.0338,-0.24987 -0.0338,-0.6078 v -1.51614 h 0.8847 v 3.9845 q 0.007,0.33092 0.0101,0.5808 0.007,0.24987 0.0169,0.41533 z m -0.8982,-1.68835 q 0,-0.26676 -0.0844,-0.50313 -0.0844,-0.23974 -0.26676,-0.39507 -0.17896,-0.15871 -0.44572,-0.15871 -0.39845,0 -0.57404,0.30728 -0.17221,0.30391 -0.17221,0.73612 0,0.40521 0.19247,0.73275 0.19247,0.32754 0.56729,0.32754 0.25325,0 0.43221,-0.15195 0.18234,-0.15533 0.26676,-0.3917 0.0844,-0.23975 0.0844,-0.50313 z"
           style="font-style:normal;font-variant:normal;font-weight:bold;font-stretch:normal;font-family:Frutiger;-inkscape-font-specification:'Frutiger Bold';text-align:end;text-anchor:end;stroke-width:0.26458332"
           id="path4166" />
        <path
           d="m 121.35787,247.71758 h 0.84417 v 3.00189 q 0,0.92859 -0.42884,1.40132 -0.42546,0.47274 -1.35405,0.47274 -0.60106,0 -1.19873,-0.24312 l 0.0709,-0.76651 q 0.27351,0.13507 0.52676,0.20936 0.25663,0.0743 0.51664,0.0743 0.2904,0 0.54365,-0.12494 0.25325,-0.12493 0.36806,-0.36468 0.0777,-0.16208 0.0945,-0.35793 0.0203,-0.19585 0.0304,-0.57066 -0.16884,0.31403 -0.47274,0.49975 -0.3039,0.18572 -0.66183,0.18572 -0.46261,0 -0.77665,-0.2465 -0.31065,-0.2465 -0.45585,-0.64495 -0.14182,-0.39845 -0.14182,-0.85093 0,-0.4626 0.1452,-0.85768 0.14857,-0.39845 0.4626,-0.64157 0.31404,-0.24312 0.78678,-0.24312 0.37143,0 0.6517,0.15195 0.28026,0.15195 0.43559,0.46261 z m -0.0338,1.66809 q 0,-0.17221 -0.0507,-0.35793 -0.0506,-0.18572 -0.14857,-0.32416 -0.0945,-0.14182 -0.24988,-0.22962 -0.15533,-0.0912 -0.34105,-0.0912 -0.37819,0 -0.56728,0.29715 -0.18572,0.29715 -0.18572,0.69898 0,0.39845 0.1891,0.71923 0.19247,0.31741 0.5639,0.31741 0.26339,0 0.43898,-0.15195 0.17558,-0.15195 0.26338,-0.3917 0.0878,-0.23974 0.0878,-0.48624 z"
           style="font-style:normal;font-variant:normal;font-weight:bold;font-stretch:normal;font-family:Frutiger;-inkscape-font-specification:'Frutiger Bold';text-align:end;text-anchor:end;stroke-width:0.26458332"
           id="path4168" />
        <path
           d="m 125.81849,250.22309 0.0135,0.76651 q -0.54364,0.23637 -1.17509,0.23637 -0.42208,0 -0.753,-0.11818 -0.32754,-0.12157 -0.56053,-0.35456 -0.23299,-0.23637 -0.35456,-0.56728 -0.12156,-0.3343 -0.12156,-0.75976 0,-0.3917 0.11143,-0.71924 0.11481,-0.33091 0.32754,-0.57066 0.21274,-0.24312 0.52339,-0.37819 0.31404,-0.13507 0.70911,-0.13507 0.38494,0 0.67872,0.13845 0.29377,0.13844 0.47611,0.38156 0.18572,0.24313 0.27689,0.56391 0.0912,0.31741 0.0912,0.69898 0,0.0675 -0.003,0.1013 -0.003,0.0338 -0.007,0.0844 -0.003,0.0507 -0.0101,0.11818 h -2.30291 q 0.0338,0.40521 0.31403,0.63145 0.28365,0.22623 0.70236,0.22623 0.47274,0 1.06366,-0.34442 z m -0.60105,-1.12782 q -0.007,-0.22961 -0.0844,-0.42208 -0.0743,-0.19248 -0.23299,-0.31066 -0.15533,-0.11818 -0.38832,-0.11818 -0.23975,0 -0.41196,0.11818 -0.16884,0.11481 -0.26338,0.30728 -0.0912,0.19247 -0.11143,0.42546 z"
           style="font-style:normal;font-variant:normal;font-weight:bold;font-stretch:normal;font-family:Frutiger;-inkscape-font-specification:'Frutiger Bold';text-align:end;text-anchor:end;stroke-width:0.26458332"
           id="path4170" />
        <path
           d="m 86.503595,256.39845 0.03377,0.81378 q -0.574038,0.15195 -1.050153,0.15195 -0.540271,0 -0.999502,-0.14182 -0.459231,-0.14182 -0.810408,-0.43222 -0.3478,-0.29377 -0.536895,-0.72599 -0.185718,-0.43222 -0.185718,-0.99612 0,-0.56391 0.168835,-1.00964 0.168835,-0.44572 0.489621,-0.753 0.324163,-0.31066 0.776641,-0.46598 0.452477,-0.15533 1.013009,-0.15533 0.499751,0 1.11431,0.19922 l -0.07429,0.79015 q -0.455854,-0.24988 -0.989373,-0.24988 -0.452477,0 -0.7969,0.19585 -0.344424,0.19247 -0.530142,0.54027 -0.182342,0.3478 -0.182342,0.80028 0,0.46936 0.192472,0.84418 0.195849,0.37481 0.553779,0.58079 0.35793,0.20598 0.837421,0.20598 0.455854,0 0.975865,-0.19247 z"
           style="font-style:normal;font-variant:normal;font-weight:bold;font-stretch:normal;font-family:Frutiger;-inkscape-font-specification:'Frutiger Bold';text-align:end;text-anchor:end;stroke-width:0.26458332"
           id="path4172" />
        <path
           d="m 89.995101,257.33041 h -0.790147 l -0.01351,-0.51325 q -0.158705,0.27351 -0.445724,0.42208 -0.283643,0.1452 -0.617936,0.1452 -0.341046,0 -0.611182,-0.11818 -0.266759,-0.11819 -0.422087,-0.35793 -0.155329,-0.24313 -0.155329,-0.58755 0,-0.64157 0.503128,-0.87794 0.503128,-0.23637 1.225742,-0.23637 0.104677,0 0.135068,0.003 0.03039,0 0.135067,0.007 0.104678,0.003 0.212732,0.0101 0,-0.38157 -0.185718,-0.56728 -0.185718,-0.18572 -0.574039,-0.18572 -0.587545,0 -1.060283,0.37481 l -0.02701,-0.76989 q 0.550402,-0.23299 1.191974,-0.23299 0.239746,0 0.476114,0.0473 0.236369,0.0473 0.435594,0.1587 0.202602,0.10805 0.334293,0.2904 0.135068,0.18234 0.175589,0.41871 0.0439,0.23299 0.0439,0.55715 0,0.3343 0,0.67196 0.0034,0.33767 0.0068,0.61794 0.0068,0.27689 0.02701,0.72261 z m -0.830668,-1.55665 q -0.03377,-0.007 -0.104677,-0.007 h -0.108055 q -0.290396,0 -0.533518,0.0338 -0.239746,0.0304 -0.422087,0.16208 -0.178965,0.12832 -0.178965,0.37819 0,0.2026 0.158705,0.32416 0.162081,0.11819 0.374813,0.11819 0.401827,0 0.607806,-0.29715 0.205978,-0.29715 0.205978,-0.71248 z"
           style="font-style:normal;font-variant:normal;font-weight:bold;font-stretch:normal;font-family:Frutiger;-inkscape-font-specification:'Frutiger Bold';text-align:end;text-anchor:end;stroke-width:0.26458332"
           id="path4174" />
        <path
           d="m 91.696956,253.90644 0.02026,0.54703 q 0.411957,-0.60105 1.15483,-0.60105 0.688847,0 0.928592,0.40858 0.239746,0.4052 0.239746,1.14132 v 1.92809 H 93.15569 v -1.72211 q 0,-0.45586 -0.118185,-0.7395 -0.114807,-0.28364 -0.503128,-0.28364 -0.415333,0 -0.584168,0.33429 -0.168835,0.33092 -0.168835,0.78677 v 1.62419 h -0.888072 v -2.17797 q 0,-0.72599 -0.03377,-1.246 z"
           style="font-style:normal;font-variant:normal;font-weight:bold;font-stretch:normal;font-family:Frutiger;-inkscape-font-specification:'Frutiger Bold';text-align:end;text-anchor:end;stroke-width:0.26458332"
           id="path4176" />
        <path
           d="m 97.221234,256.47949 0.05065,0.74625 q -0.445724,0.13169 -0.7969,0.13169 -0.391697,0 -0.719237,-0.11819 -0.32754,-0.12156 -0.563908,-0.35117 -0.232993,-0.22962 -0.35793,-0.55716 -0.121562,-0.33092 -0.121562,-0.72937 0,-0.5065 0.216109,-0.8982 0.219485,-0.39169 0.614559,-0.6078 0.39845,-0.21611 0.898202,-0.21611 0.371436,0 0.753003,0.11143 l -0.06753,0.71248 q -0.303902,-0.11818 -0.547025,-0.11818 -0.276889,0 -0.496374,0.13844 -0.219486,0.13507 -0.33767,0.36469 -0.114808,0.22624 -0.114808,0.5065 0,0.46261 0.270136,0.74287 0.270136,0.28027 0.72599,0.28027 0.290396,0 0.594299,-0.13844 z"
           style="font-style:normal;font-variant:normal;font-weight:bold;font-stretch:normal;font-family:Frutiger;-inkscape-font-specification:'Frutiger Bold';text-align:end;text-anchor:end;stroke-width:0.26458332"
           id="path4178" />
        <path
           d="m 100.63845,256.41871 0.0135,0.76651 q -0.54365,0.23636 -1.175093,0.23636 -0.422087,0 -0.753003,-0.11818 -0.32754,-0.12156 -0.560532,-0.35455 -0.232992,-0.23637 -0.354553,-0.56729 -0.121561,-0.33429 -0.121561,-0.75976 0,-0.39169 0.111431,-0.71923 0.114807,-0.33092 0.327539,-0.57066 0.212732,-0.24313 0.523389,-0.37819 0.314032,-0.13507 0.709106,-0.13507 0.384944,0 0.678717,0.13844 0.29377,0.13845 0.47611,0.38157 0.18572,0.24312 0.27689,0.56391 0.0912,0.31741 0.0912,0.69897 0,0.0675 -0.003,0.10131 -0.003,0.0338 -0.007,0.0844 -0.003,0.0506 -0.0101,0.11819 h -2.302904 q 0.03377,0.4052 0.314033,0.63144 0.283642,0.22624 0.702353,0.22624 0.472738,0 1.063658,-0.34442 z m -0.60105,-1.12782 q -0.007,-0.22962 -0.08442,-0.42209 -0.07429,-0.19247 -0.232992,-0.31065 -0.155328,-0.11819 -0.388321,-0.11819 -0.239745,0 -0.411957,0.11819 -0.168835,0.1148 -0.263382,0.30727 -0.09117,0.19248 -0.111431,0.42547 z"
           style="font-style:normal;font-variant:normal;font-weight:bold;font-stretch:normal;font-family:Frutiger;-inkscape-font-specification:'Frutiger Bold';text-align:end;text-anchor:end;stroke-width:0.26458332"
           id="path4180" />
        <path
           d="m 102.49901,257.33041 h -0.88469 v -2.39407 q -0.0169,-0.85431 -0.027,-1.0299 h 0.80366 l 0.0203,0.86444 q 0.11481,-0.40521 0.3478,-0.64833 0.23637,-0.24312 0.61456,-0.24312 0.1148,0 0.26,0.0338 v 0.83066 q -0.17559,-0.0473 -0.31065,-0.0473 -0.31404,0 -0.49975,0.16546 -0.18572,0.16546 -0.25663,0.42546 -0.0675,0.25663 -0.0675,0.56391 v 0.0675 z"
           style="font-style:normal;font-variant:normal;font-weight:bold;font-stretch:normal;font-family:Frutiger;-inkscape-font-specification:'Frutiger Bold';text-align:end;text-anchor:end;stroke-width:0.26458332"
           id="path4182" />
        <path
           d="m 109.53943,256.39845 0.0338,0.81378 q -0.57403,0.15195 -1.05015,0.15195 -0.54027,0 -0.9995,-0.14182 -0.45923,-0.14182 -0.81041,-0.43222 -0.3478,-0.29377 -0.53689,-0.72599 -0.18572,-0.43222 -0.18572,-0.99612 0,-0.56391 0.16883,-1.00964 0.16884,-0.44572 0.48962,-0.753 0.32417,-0.31066 0.77664,-0.46598 0.45248,-0.15533 1.01301,-0.15533 0.49975,0 1.11431,0.19922 l -0.0743,0.79015 q -0.45586,-0.24988 -0.98938,-0.24988 -0.45247,0 -0.7969,0.19585 -0.34442,0.19247 -0.53014,0.54027 -0.18234,0.3478 -0.18234,0.80028 0,0.46936 0.19247,0.84418 0.19585,0.37481 0.55378,0.58079 0.35793,0.20598 0.83742,0.20598 0.45586,0 0.97587,-0.19247 z"
           style="font-style:normal;font-variant:normal;font-weight:bold;font-stretch:normal;font-family:Frutiger;-inkscape-font-specification:'Frutiger Bold';text-align:end;text-anchor:end;stroke-width:0.26458332"
           id="path4184" />
        <path
           d="m 112.92626,256.41871 0.0135,0.76651 q -0.54365,0.23636 -1.17509,0.23636 -0.42209,0 -0.753,-0.11818 -0.32754,-0.12156 -0.56053,-0.35455 -0.233,-0.23637 -0.35456,-0.56729 -0.12156,-0.33429 -0.12156,-0.75976 0,-0.39169 0.11143,-0.71923 0.11481,-0.33092 0.32754,-0.57066 0.21273,-0.24313 0.52339,-0.37819 0.31403,-0.13507 0.70911,-0.13507 0.38494,0 0.67871,0.13844 0.29378,0.13845 0.47612,0.38157 0.18572,0.24312 0.27689,0.56391 0.0912,0.31741 0.0912,0.69897 0,0.0675 -0.003,0.10131 -0.003,0.0338 -0.007,0.0844 -0.003,0.0506 -0.0101,0.11819 h -2.30291 q 0.0338,0.4052 0.31403,0.63144 0.28364,0.22624 0.70236,0.22624 0.47273,0 1.06366,-0.34442 z m -0.60106,-1.12782 q -0.007,-0.22962 -0.0844,-0.42209 -0.0743,-0.19247 -0.233,-0.31065 -0.15532,-0.11819 -0.38832,-0.11819 -0.23974,0 -0.41195,0.11819 -0.16884,0.1148 -0.26339,0.30727 -0.0912,0.19248 -0.11143,0.42547 z"
           style="font-style:normal;font-variant:normal;font-weight:bold;font-stretch:normal;font-family:Frutiger;-inkscape-font-specification:'Frutiger Bold';text-align:end;text-anchor:end;stroke-width:0.26458332"
           id="path4186" />
        <path
           d="m 114.71253,253.90644 0.0203,0.54703 q 0.41196,-0.60105 1.15483,-0.60105 0.68885,0 0.92859,0.40858 0.23975,0.4052 0.23975,1.14132 v 1.92809 h -0.8847 v -1.72211 q 0,-0.45586 -0.11818,-0.7395 -0.11481,-0.28364 -0.50313,-0.28364 -0.41533,0 -0.58417,0.33429 -0.16883,0.33092 -0.16883,0.78677 v 1.62419 h -0.88808 v -2.17797 q 0,-0.72599 -0.0338,-1.246 z"
           style="font-style:normal;font-variant:normal;font-weight:bold;font-stretch:normal;font-family:Frutiger;-inkscape-font-specification:'Frutiger Bold';text-align:end;text-anchor:end;stroke-width:0.26458332"
           id="path4188" />
        <path
           d="m 119.83498,256.59767 0.0304,0.69222 q -0.33767,0.0675 -0.59768,0.0675 -0.43559,0 -0.68884,-0.15871 -0.25325,-0.16208 -0.35456,-0.45585 -0.1013,-0.29715 -0.1013,-0.72599 v -1.43172 h -0.64495 v -0.65846 h 0.65846 v -0.6956 l 0.8847,-0.29039 v 0.98599 h 0.78001 v 0.65846 h -0.78001 v 1.246 q 0,0.39845 0.0844,0.60781 0.0878,0.20597 0.42547,0.20597 0.12493,0 0.3039,-0.0473 z"
           style="font-style:normal;font-variant:normal;font-weight:bold;font-stretch:normal;font-family:Frutiger;-inkscape-font-specification:'Frutiger Bold';text-align:end;text-anchor:end;stroke-width:0.26458332"
           id="path4190" />
        <path
           d="m 121.38488,257.33041 h -0.88469 v -2.39407 q -0.0169,-0.85431 -0.027,-1.0299 h 0.80365 l 0.0203,0.86444 q 0.11481,-0.40521 0.3478,-0.64833 0.23637,-0.24312 0.61456,-0.24312 0.11481,0 0.26,0.0338 v 0.83066 q -0.17558,-0.0473 -0.31065,-0.0473 -0.31403,0 -0.49975,0.16546 -0.18572,0.16546 -0.25663,0.42546 -0.0675,0.25663 -0.0675,0.56391 v 0.0675 z"
           style="font-style:normal;font-variant:normal;font-weight:bold;font-stretch:normal;font-family:Frutiger;-inkscape-font-specification:'Frutiger Bold';text-align:end;text-anchor:end;stroke-width:0.26458332"
           id="path4192" />
        <path
           d="m 125.81849,256.41871 0.0135,0.76651 q -0.54364,0.23636 -1.17509,0.23636 -0.42208,0 -0.753,-0.11818 -0.32754,-0.12156 -0.56053,-0.35455 -0.23299,-0.23637 -0.35455,-0.56729 -0.12157,-0.33429 -0.12157,-0.75976 0,-0.39169 0.11144,-0.71923 0.1148,-0.33092 0.32753,-0.57066 0.21274,-0.24313 0.52339,-0.37819 0.31404,-0.13507 0.70911,-0.13507 0.38494,0 0.67872,0.13844 0.29377,0.13845 0.47611,0.38157 0.18572,0.24312 0.27689,0.56391 0.0912,0.31741 0.0912,0.69897 0,0.0675 -0.003,0.10131 -0.003,0.0338 -0.007,0.0844 -0.003,0.0506 -0.0101,0.11819 h -2.30291 q 0.0338,0.4052 0.31404,0.63144 0.28364,0.22624 0.70235,0.22624 0.47274,0 1.06366,-0.34442 z m -0.60105,-1.12782 q -0.007,-0.22962 -0.0844,-0.42209 -0.0743,-0.19247 -0.23299,-0.31065 -0.15533,-0.11819 -0.38832,-0.11819 -0.23975,0 -0.41196,0.11819 -0.16884,0.1148 -0.26338,0.30727 -0.0912,0.19248 -0.11143,0.42547 z"
           style="font-style:normal;font-variant:normal;font-weight:bold;font-stretch:normal;font-family:Frutiger;-inkscape-font-specification:'Frutiger Bold';text-align:end;text-anchor:end;stroke-width:0.26458332"
           id="path4194" />
      </g>
      <g
         transform="translate(4.9267489e-6,187.25444)"
         id="g1259-6-5-1">
        <path
           style="opacity:1;fill:#196fc1;fill-opacity:1;stroke:none;stroke-width:13.22916603;stroke-linecap:round;stroke-linejoin:round;stroke-miterlimit:2;stroke-dasharray:none;stroke-dashoffset:0;stroke-opacity:1;paint-order:normal"
           d="M 81.578247,35.868095 H 124.2471 V 61.280302 H 81.578247 Z"
           id="rect1207-7-6-2" />
        <path
           style="opacity:1;fill:#ffffff;fill-opacity:1;stroke:none;stroke-width:13.22916603;stroke-linecap:round;stroke-linejoin:round;stroke-miterlimit:2;stroke-dasharray:none;stroke-dashoffset:0;stroke-opacity:1;paint-order:normal"
           d="M 82.369675,40.641895 H 123.39111 V 57.160528 H 82.369675 Z"
           id="rect1211-5-2-7" />
        <path
           id="path16-3-9-0"
           style="fill:#196fc1;fill-opacity:1;fill-rule:nonzero;stroke:none;stroke-width:0.03527778"
           d="M 124.21242,40.311164 H 81.548361 v 17.180092 h 42.664059 z m -25.510429,1.657624 -2.94534,13.828277 h -4.62195 l -2.90574,-9.568559 h -0.039 l -1.93319,9.568559 h -3.50515 l 2.96877,-13.828277 h 4.63771 l 2.84837,9.588963 h 0.0392 l 1.95137,-9.588963 z m 13.219369,0 -2.88756,13.828277 h -3.72193 l 1.23438,-5.922595 h -4.40214 l -1.23459,5.922595 h -3.722119 l 2.887959,-13.828277 h 3.72193 l -1.09337,5.290254 h 4.39992 l 1.0956,-5.290254 z m 10.69304,0.377182 -0.8972,2.753413 c -0.71659,-0.335969 -1.69258,-0.632543 -3.06555,-0.632543 -1.47257,0 -2.66816,0.215764 -2.66816,1.327109 0,1.959652 5.39612,1.228318 5.39612,5.428439 0,3.822533 -3.56515,4.81428 -6.7903,4.81428 -1.43317,0 -3.08655,-0.338798 -4.29992,-0.715778 l 0.87619,-2.81301 c 0.73497,0.476175 2.21037,0.79376 3.42373,0.79376 1.1564,0 2.96615,-0.218795 2.96615,-1.644694 0,-2.21966 -5.39591,-1.387111 -5.39591,-5.287829 0,-3.56778 3.14696,-4.637306 6.19351,-4.637306 1.71359,0 3.32514,0.1796 4.26134,0.614159" />
      </g>
      <g
         aria-label="NHS Foundation Trust"
         transform="scale(1.000319,0.99968111)"
         style="font-style:normal;font-variant:normal;font-weight:normal;font-stretch:normal;font-size:6.28654957px;line-height:1.25;font-family:Frutiger;-inkscape-font-specification:Frutiger;letter-spacing:0px;word-spacing:0px;fill:#196fc1;fill-opacity:1;stroke:none;stroke-width:0.26458338"
         id="text1335-9">
        <path
           d="m 65.016551,268.742 h -1.019109 l -1.375182,-2.53242 q -0.131993,-0.23943 -0.346866,-0.74284 0.09516,0.65382 0.09516,1.0805 v 2.19476 h -0.804236 v -4.19308 h 0.997621 l 1.408948,2.53857 q 0.07367,0.13506 0.09516,0.19338 0.02456,0.0583 0.08902,0.22101 0.06446,0.16269 0.131993,0.32845 -0.07674,-0.43895 -0.07674,-1.02525 v -2.25616 h 0.804236 z"
           style="font-style:normal;font-variant:normal;font-weight:bold;font-stretch:normal;font-family:Frutiger;-inkscape-font-specification:'Frutiger Bold';fill:#196fc1;fill-opacity:1;stroke-width:0.26458338"
           id="path4199" />
        <path
           d="m 69.387668,268.742 h -0.844142 v -1.80492 h -1.672934 v 1.80492 h -0.847211 v -4.19308 h 0.847211 v 1.70364 h 1.672934 v -1.70364 h 0.844142 z"
           style="font-style:normal;font-variant:normal;font-weight:bold;font-stretch:normal;font-family:Frutiger;-inkscape-font-specification:'Frutiger Bold';fill:#196fc1;fill-opacity:1;stroke-width:0.26458338"
           id="path4201" />
        <path
           d="m 70.326966,268.64685 0.07674,-0.75206 q 0.497276,0.27013 0.948508,0.27013 0.291613,0 0.509554,-0.14427 0.221012,-0.14427 0.221012,-0.42361 0,-0.2824 -0.187246,-0.40212 -0.184176,-0.11971 -0.672243,-0.32844 -0.488067,-0.21181 -0.733636,-0.46965 -0.242498,-0.26092 -0.242498,-0.74285 0,-0.40212 0.202593,-0.66917 0.205664,-0.27013 0.540251,-0.39598 0.337656,-0.12892 0.733635,-0.12892 0.531042,0 1.000691,0.16576 l -0.0706,0.69066 q -0.457371,-0.20874 -0.868698,-0.20874 -0.270125,0 -0.472719,0.12279 -0.199524,0.11971 -0.199524,0.38063 0,0.24864 0.150411,0.34072 0.15041,0.0921 0.681452,0.32845 0.534111,0.23329 0.785818,0.50035 0.251708,0.26398 0.251708,0.74284 0,0.34073 -0.125854,0.58937 -0.125854,0.24863 -0.349935,0.41132 -0.221011,0.15962 -0.509554,0.23636 -0.285473,0.0767 -0.607782,0.0767 -0.509554,0 -1.062083,-0.19031 z"
           style="font-style:normal;font-variant:normal;font-weight:bold;font-stretch:normal;font-family:Frutiger;-inkscape-font-specification:'Frutiger Bold';fill:#196fc1;fill-opacity:1;stroke-width:0.26458338"
           id="path4203" />
        <path
           d="m 76.386365,266.9248 v 1.8172 h -0.85335 v -4.19308 h 2.32676 v 0.69067 h -1.479549 v 0.99455 h 1.421227 v 0.69066 z"
           style="font-style:normal;font-variant:normal;font-weight:bold;font-stretch:normal;font-family:Frutiger;-inkscape-font-specification:'Frutiger Bold';fill:#196fc1;fill-opacity:1;stroke-width:0.26458338"
           id="path4205" />
        <path
           d="m 81.573997,267.21334 q 0,0.35915 -0.116645,0.65997 -0.116645,0.29775 -0.331517,0.50955 -0.211803,0.20873 -0.509555,0.32538 -0.297751,0.11664 -0.663034,0.11664 -0.481928,0 -0.847211,-0.20873 -0.365283,-0.20873 -0.564807,-0.58936 -0.196455,-0.38063 -0.196455,-0.85642 0,-0.47579 0.202594,-0.84414 0.202594,-0.36836 0.567877,-0.57095 0.368352,-0.20566 0.844141,-0.20566 0.368352,0 0.666104,0.12278 0.300821,0.12278 0.512624,0.34994 0.211803,0.22408 0.322308,0.52797 0.113576,0.30389 0.113576,0.66303 z m -0.834933,-0.0184 q 0,-0.2517 -0.08288,-0.4942 -0.07981,-0.2425 -0.257847,-0.39905 -0.178037,-0.15655 -0.438953,-0.15655 -0.248638,0 -0.429745,0.15348 -0.178037,0.15348 -0.263986,0.39291 -0.08595,0.23636 -0.08595,0.47886 0,0.26091 0.07981,0.50341 0.08288,0.2425 0.260917,0.39905 0.178037,0.15348 0.451231,0.15348 0.193385,0 0.340726,-0.0921 0.147341,-0.0952 0.23943,-0.23943 0.09209,-0.14734 0.138132,-0.32844 0.04911,-0.18418 0.04911,-0.37143 z"
           style="font-style:normal;font-variant:normal;font-weight:bold;font-stretch:normal;font-family:Frutiger;-inkscape-font-specification:'Frutiger Bold';fill:#196fc1;fill-opacity:1;stroke-width:0.26458338"
           id="path4207" />
        <path
           d="m 85.011954,265.62943 v 1.90008 q 0.0061,0.13199 0.01228,0.40826 0.0092,0.27626 0.01535,0.44202 0.0061,0.16576 0.01842,0.36221 h -0.761262 l -0.02456,-0.47885 q -0.107436,0.16882 -0.260916,0.28547 -0.150411,0.11664 -0.340726,0.18111 -0.190315,0.0614 -0.380631,0.0614 -0.432814,0 -0.675313,-0.17804 -0.242499,-0.17804 -0.334587,-0.48807 -0.08902,-0.31003 -0.08902,-0.73977 v -1.75581 h 0.804236 v 1.49796 q 0,0.29161 0.02763,0.49421 0.0307,0.19952 0.156549,0.34993 0.125854,0.14734 0.380631,0.14734 0.365283,0 0.506485,-0.30696 0.141202,-0.31003 0.141202,-0.72442 v -1.45806 z"
           style="font-style:normal;font-variant:normal;font-weight:bold;font-stretch:normal;font-family:Frutiger;-inkscape-font-specification:'Frutiger Bold';fill:#196fc1;fill-opacity:1;stroke-width:0.26458338"
           id="path4209" />
        <path
           d="m 86.629635,265.62943 0.01842,0.49727 q 0.374492,-0.54639 1.049805,-0.54639 0.626199,0 0.844141,0.37142 0.217942,0.36836 0.217942,1.03753 v 1.75274 h -0.804236 v -1.56549 q 0,-0.4144 -0.107436,-0.67225 -0.104367,-0.25784 -0.457371,-0.25784 -0.377562,0 -0.531042,0.30389 -0.15348,0.30082 -0.15348,0.71521 v 1.47648 h -0.807306 v -1.97989 q 0,-0.65997 -0.0307,-1.13268 z"
           style="font-style:normal;font-variant:normal;font-weight:bold;font-stretch:normal;font-family:Frutiger;-inkscape-font-specification:'Frutiger Bold';fill:#196fc1;fill-opacity:1;stroke-width:0.26458338"
           id="path4211" />
        <path
           d="m 92.418908,268.742 h -0.761262 l -0.01228,-0.52797 q -0.138132,0.27934 -0.395978,0.42975 -0.254778,0.14734 -0.577086,0.14734 -0.337657,0 -0.592434,-0.13199 -0.251707,-0.13507 -0.408257,-0.36222 -0.15655,-0.22715 -0.23329,-0.51569 -0.07367,-0.28854 -0.07367,-0.60471 0,-0.41747 0.138133,-0.78275 0.138132,-0.36836 0.426675,-0.59244 0.291612,-0.22715 0.724426,-0.22715 0.325378,0 0.567877,0.14427 0.242499,0.14428 0.399049,0.42668 -0.0307,-0.22715 -0.0307,-0.55253 v -1.37825 h 0.804236 v 3.62213 q 0.0061,0.30082 0.0092,0.52797 0.0061,0.22715 0.01535,0.37756 z m -0.816515,-1.5348 q 0,-0.2425 -0.07674,-0.45737 -0.07674,-0.21794 -0.242499,-0.35914 -0.162689,-0.14427 -0.405188,-0.14427 -0.362213,0 -0.521832,0.27933 -0.15655,0.27626 -0.15655,0.66917 0,0.36836 0.174967,0.66611 0.174968,0.29775 0.515694,0.29775 0.23022,0 0.392909,-0.13813 0.165759,-0.1412 0.242499,-0.35608 0.07674,-0.21794 0.07674,-0.45737 z"
           style="font-style:normal;font-variant:normal;font-weight:bold;font-stretch:normal;font-family:Frutiger;-inkscape-font-specification:'Frutiger Bold';fill:#196fc1;fill-opacity:1;stroke-width:0.26458338"
           id="path4213" />
        <path
           d="m 95.832308,268.742 h -0.718287 l -0.01228,-0.46658 q -0.144271,0.24864 -0.405187,0.38371 -0.257847,0.13199 -0.561738,0.13199 -0.31003,0 -0.555598,-0.10744 -0.242499,-0.10743 -0.383701,-0.32538 -0.141202,-0.22101 -0.141202,-0.53411 0,-0.58322 0.457371,-0.79809 0.457371,-0.21488 1.114267,-0.21488 0.09516,0 0.122784,0.003 0.02763,0 0.122784,0.006 0.09516,0.003 0.193385,0.009 0,-0.34686 -0.168828,-0.51569 -0.168828,-0.16883 -0.521833,-0.16883 -0.534111,0 -0.963856,0.34073 l -0.02456,-0.69987 q 0.500345,-0.21181 1.08357,-0.21181 0.217942,0 0.432814,0.043 0.214872,0.043 0.395979,0.14427 0.184176,0.0982 0.303891,0.26398 0.122784,0.16576 0.159619,0.38064 0.03991,0.2118 0.03991,0.50648 0,0.30389 0,0.61085 0.0031,0.30696 0.0061,0.56174 0.0061,0.25171 0.02456,0.65689 z m -0.755122,-1.41508 q -0.0307,-0.006 -0.09516,-0.006 H 94.8838 q -0.263985,0 -0.484997,0.0307 -0.217942,0.0276 -0.383701,0.14734 -0.162689,0.11665 -0.162689,0.3438 0,0.18418 0.144272,0.29468 0.147341,0.10744 0.340726,0.10744 0.365283,0 0.552529,-0.27013 0.187246,-0.27012 0.187246,-0.64768 z"
           style="font-style:normal;font-variant:normal;font-weight:bold;font-stretch:normal;font-family:Frutiger;-inkscape-font-specification:'Frutiger Bold';fill:#196fc1;fill-opacity:1;stroke-width:0.26458338"
           id="path4215" />
        <path
           d="m 98.358592,268.0759 0.02763,0.62927 q -0.306961,0.0614 -0.54332,0.0614 -0.395979,0 -0.626199,-0.14427 -0.230221,-0.14734 -0.322309,-0.4144 -0.09209,-0.27012 -0.09209,-0.65996 v -1.30151 h -0.586294 v -0.59858 h 0.598572 v -0.63234 l 0.804237,-0.26398 v 0.89632 h 0.709078 v 0.59858 h -0.709078 v 1.13268 q 0,0.36221 0.07674,0.55253 0.07981,0.18724 0.38677,0.18724 0.113575,0 0.276264,-0.043 z"
           style="font-style:normal;font-variant:normal;font-weight:bold;font-stretch:normal;font-family:Frutiger;-inkscape-font-specification:'Frutiger Bold';fill:#196fc1;fill-opacity:1;stroke-width:0.26458338"
           id="path4217" />
        <path
           d="m 99.742985,268.742 h -0.804237 v -3.11257 h 0.804237 z m 0.01228,-3.67738 H 98.92647 v -0.76126 h 0.828793 z"
           style="font-style:normal;font-variant:normal;font-weight:bold;font-stretch:normal;font-family:Frutiger;-inkscape-font-specification:'Frutiger Bold';fill:#196fc1;fill-opacity:1;stroke-width:0.26458338"
           id="path4219" />
        <path
           d="m 103.60762,267.21334 q 0,0.35915 -0.11665,0.65997 -0.11664,0.29775 -0.33152,0.50955 -0.2118,0.20873 -0.50955,0.32538 -0.29775,0.11664 -0.66304,0.11664 -0.48192,0 -0.84721,-0.20873 -0.36528,-0.20873 -0.5648,-0.58936 -0.19646,-0.38063 -0.19646,-0.85642 0,-0.47579 0.2026,-0.84414 0.20259,-0.36836 0.56787,-0.57095 0.36836,-0.20566 0.84414,-0.20566 0.36836,0 0.66611,0.12278 0.30082,0.12278 0.51262,0.34994 0.2118,0.22408 0.32231,0.52797 0.11358,0.30389 0.11358,0.66303 z m -0.83494,-0.0184 q 0,-0.2517 -0.0829,-0.4942 -0.0798,-0.2425 -0.25784,-0.39905 -0.17804,-0.15655 -0.43896,-0.15655 -0.24863,0 -0.42974,0.15348 -0.17804,0.15348 -0.26399,0.39291 -0.086,0.23636 -0.086,0.47886 0,0.26091 0.0798,0.50341 0.0829,0.2425 0.26092,0.39905 0.17804,0.15348 0.45123,0.15348 0.19339,0 0.34073,-0.0921 0.14734,-0.0952 0.23943,-0.23943 0.0921,-0.14734 0.13813,-0.32844 0.0491,-0.18418 0.0491,-0.37143 z"
           style="font-style:normal;font-variant:normal;font-weight:bold;font-stretch:normal;font-family:Frutiger;-inkscape-font-specification:'Frutiger Bold';fill:#196fc1;fill-opacity:1;stroke-width:0.26458338"
           id="path4221" />
        <path
           d="m 105.01043,265.62943 0.0184,0.49727 q 0.3745,-0.54639 1.04981,-0.54639 0.6262,0 0.84414,0.37142 0.21794,0.36836 0.21794,1.03753 v 1.75274 h -0.80423 v -1.56549 q 0,-0.4144 -0.10744,-0.67225 -0.10437,-0.25784 -0.45737,-0.25784 -0.37756,0 -0.53104,0.30389 -0.15348,0.30082 -0.15348,0.71521 v 1.47648 h -0.80731 v -1.97989 q 0,-0.65997 -0.0307,-1.13268 z"
           style="font-style:normal;font-variant:normal;font-weight:bold;font-stretch:normal;font-family:Frutiger;-inkscape-font-specification:'Frutiger Bold';fill:#196fc1;fill-opacity:1;stroke-width:0.26458338"
           id="path4223" />
        <path
           d="m 111.36451,268.742 h -0.84722 v -3.50241 h -1.19714 v -0.69067 h 3.25071 v 0.69067 h -1.20635 z"
           style="font-style:normal;font-variant:normal;font-weight:bold;font-stretch:normal;font-family:Frutiger;-inkscape-font-specification:'Frutiger Bold';fill:#196fc1;fill-opacity:1;stroke-width:0.26458338"
           id="path4225" />
        <path
           d="m 113.87237,268.742 h -0.80423 v -2.17635 q -0.0153,-0.7766 -0.0246,-0.93622 h 0.73057 l 0.0184,0.78581 q 0.10437,-0.36835 0.31617,-0.58936 0.21487,-0.22101 0.55867,-0.22101 0.10437,0 0.23636,0.0307 v 0.75513 q -0.15962,-0.043 -0.2824,-0.043 -0.28548,0 -0.4543,0.15041 -0.16883,0.15041 -0.23329,0.38677 -0.0614,0.23329 -0.0614,0.51263 v 0.0614 z"
           style="font-style:normal;font-variant:normal;font-weight:bold;font-stretch:normal;font-family:Frutiger;-inkscape-font-specification:'Frutiger Bold';fill:#196fc1;fill-opacity:1;stroke-width:0.26458338"
           id="path4227" />
        <path
           d="m 118.19745,265.62943 v 1.90008 q 0.006,0.13199 0.0123,0.40826 0.009,0.27626 0.0153,0.44202 0.006,0.16576 0.0184,0.36221 h -0.76126 l -0.0246,-0.47885 q -0.10744,0.16882 -0.26092,0.28547 -0.15041,0.11664 -0.34072,0.18111 -0.19032,0.0614 -0.38063,0.0614 -0.43282,0 -0.67532,-0.17804 -0.24249,-0.17804 -0.33458,-0.48807 -0.089,-0.31003 -0.089,-0.73977 v -1.75581 h 0.80424 v 1.49796 q 0,0.29161 0.0276,0.49421 0.0307,0.19952 0.15655,0.34993 0.12586,0.14734 0.38063,0.14734 0.36529,0 0.50649,-0.30696 0.1412,-0.31003 0.1412,-0.72442 v -1.45806 z"
           style="font-style:normal;font-variant:normal;font-weight:bold;font-stretch:normal;font-family:Frutiger;-inkscape-font-specification:'Frutiger Bold';fill:#196fc1;fill-opacity:1;stroke-width:0.26458338"
           id="path4229" />
        <path
           d="m 118.91573,268.65913 0.0368,-0.67839 q 0.42974,0.22101 0.79196,0.22101 0.19952,0 0.37756,-0.0859 0.17803,-0.086 0.17803,-0.26706 0,-0.15655 -0.25477,-0.26706 -0.25478,-0.1105 -0.51263,-0.21794 -0.25477,-0.10743 -0.44202,-0.30082 -0.18725,-0.19338 -0.18725,-0.54025 0,-0.33152 0.19339,-0.54332 0.19645,-0.2118 0.49727,-0.30696 0.30083,-0.0982 0.62313,-0.0982 0.34073,0 0.76741,0.11972 l -0.0583,0.60164 q -0.37449,-0.11971 -0.65996,-0.11971 -0.20874,0 -0.38677,0.0706 -0.17804,0.0706 -0.17804,0.24556 0,0.15042 0.2425,0.25171 0.24557,0.0982 0.51262,0.19953 0.27013,0.0982 0.46044,0.29775 0.19339,0.19645 0.19339,0.56481 0,0.33458 -0.18725,0.55866 -0.18417,0.22408 -0.47885,0.32845 -0.29469,0.10437 -0.62313,0.10437 -0.3745,0 -0.90554,-0.13813 z"
           style="font-style:normal;font-variant:normal;font-weight:bold;font-stretch:normal;font-family:Frutiger;-inkscape-font-specification:'Frutiger Bold';fill:#196fc1;fill-opacity:1;stroke-width:0.26458338"
           id="path4231" />
        <path
           d="m 123.49865,268.0759 0.0276,0.62927 q -0.30696,0.0614 -0.54332,0.0614 -0.39598,0 -0.6262,-0.14427 -0.23022,-0.14734 -0.32231,-0.4144 -0.0921,-0.27012 -0.0921,-0.65996 v -1.30151 h -0.58629 v -0.59858 h 0.59857 v -0.63234 l 0.80424,-0.26398 v 0.89632 h 0.70908 v 0.59858 h -0.70908 v 1.13268 q 0,0.36221 0.0767,0.55253 0.0798,0.18724 0.38677,0.18724 0.11357,0 0.27626,-0.043 z"
           style="font-style:normal;font-variant:normal;font-weight:bold;font-stretch:normal;font-family:Frutiger;-inkscape-font-specification:'Frutiger Bold';fill:#196fc1;fill-opacity:1;stroke-width:0.26458338"
           id="path4233" />
      </g>
    </g>
  </g>
</svg>
