<svg xmlns="http://www.w3.org/2000/svg" xmlns:xlink="http://www.w3.org/1999/xlink" width="354.813" height="57.583" viewBox="0 0 354.813 57.583">
  <defs>
    <linearGradient id="linear-gradient" y1="0.499" x2="1" y2="0.499" gradientUnits="objectBoundingBox">
      <stop offset="0" stop-color="#f39200"/>
      <stop offset="1" stop-color="#be1622"/>
    </linearGradient>
    <linearGradient id="linear-gradient-2" x1="0.001" y1="0.5" x2="1" y2="0.5" xlink:href="#linear-gradient"/>
    <linearGradient id="linear-gradient-3" x1="0" y1="0.5" x2="1" y2="0.5" xlink:href="#linear-gradient"/>
  </defs>
  <g id="Covenco365_logo_Strapline_-_Colour" data-name="Covenco365 logo + Strapline - Colour" transform="translate(0 -10.83)">
    <path id="Path_574" data-name="Path 574" d="M129.18,36.581c0-9.74,6.922-14.081,14-14.081s14,4.316,14,14.081c0,9.862-6.879,14.172-14,14.172S129.18,46.443,129.18,36.581Zm20.862,0c0-5.071-2.849-8.109-6.879-8.109s-6.824,2.989-6.824,8.109,2.843,8.139,6.873,8.139S150.042,41.676,150.042,36.581Z" transform="translate(-50.54 -4.566)"/>
    <path id="Path_575" data-name="Path 575" d="M177.07,23.36h7.823L192.1,42.366,199.26,23.36h7.914l-11.42,27.175h-7.348Z" transform="translate(-69.276 -4.902)"/>
    <path id="Path_576" data-name="Path 576" d="M228,36.581c0-8.346,5.686-14.081,13.886-14.081,8.961,0,14.227,6.258,13.393,15.737H235.208c.146,4.414,2.8,6.97,7.11,6.97,3.086,0,5.12-1.138,6.088-3.366l6.587.81c-1.912,5.26-6.295,8.011-12.863,8.011C233.595,50.661,228,45.067,228,36.581Zm20.7-3.08c-.286-3.6-2.752-5.929-6.593-5.929-3.7,0-6.3,2.088-6.7,5.929Z" transform="translate(-89.202 -4.566)"/>
    <path id="Path_577" data-name="Path 577" d="M281.35,23.031h7.208V27.39c1.218-2.989,4.261-4.87,8.389-4.87,7.256,0,10.526,4.17,10.526,12.7V50.146h-7.208V35.876c0-4.98-1.826-7.25-5.875-7.25-4.176,0-5.832,2.654-5.832,7.677V50.146H281.35Z" transform="translate(-110.074 -4.574)"/>
    <path id="Path_578" data-name="Path 578" d="M331.89,36.581c0-8.3,5.783-14.081,13.655-14.081,7.25,0,11.664,3.269,13.04,9.862l-6.307.992c-1.047-3.22-3.178-4.87-6.4-4.87-4.024,0-6.776,3.269-6.776,8.109s2.752,8.06,6.776,8.06a6.374,6.374,0,0,0,6.307-4.84l6.355,1c-1.218,6.307-5.972,9.862-12.991,9.862C337.673,50.661,331.89,44.878,331.89,36.581Z" transform="translate(-129.847 -4.566)"/>
    <path id="Path_579" data-name="Path 579" d="M380.88,36.581c0-9.74,6.922-14.081,14.032-14.081s14,4.316,14,14.081c0,9.862-6.873,14.172-14,14.172S380.88,46.443,380.88,36.581Zm20.856,0c0-5.071-2.843-8.109-6.873-8.109s-6.824,2.989-6.824,8.109,2.843,8.139,6.873,8.139S401.736,41.676,401.736,36.581Z" transform="translate(-149.014 -4.566)"/>
    <path id="Path_580" data-name="Path 580" d="M433.7,37.049l3.653-.664c1.516,4.079,4.87,6.307,10.148,6.307,6.161,0,9.667-2.654,9.667-6.824,0-4.365-2.557-6.167-9.625-6.167h-2.508v-3.22h1.893c6.167,0,9.247-2.039,9.247-5.881,0-4.079-2.989-6.307-8.87-6.307-4.17,0-7.305,1.753-8.955,5.479l-3.6-.664c1.893-5.406,6.447-8.249,12.656-8.249,8.06,0,12.656,3.6,12.656,9.436,0,4.17-2.435,6.916-7.11,7.774,5.357.475,8.06,3.366,8.06,8.151,0,5.972-5.168,10-13.466,10C440.342,46.2,435.459,42.881,433.7,37.049Zm31.838-3.841c0-7.348,5.12-13.935,13.7-21.916h5.217A50.083,50.083,0,0,0,473.172,23a12.358,12.358,0,0,1,6.873-2.033c6.824,0,13.18,3.933,13.18,12.37,0,9.01-6.733,12.851-13.8,12.851S465.538,42.217,465.538,33.208Zm23.894.146c0-5.692-3.841-9.247-10.1-9.247s-10.051,3.555-10.051,9.247,3.841,9.338,10.142,9.338c6.2,0,10.032-3.555,10.032-9.338Zm8.151,3.7,3.464-.475c1.278,3.987,4.645,6.088,9.625,6.088,6.161,0,10.093-3.7,10.093-9.387,0-5.448-3.884-9-10.191-8.815a10.392,10.392,0,0,0-8.961,4.87l-3.366-.8,3.08-17.258h21v3.506H504.341L502.3,25.123A12.936,12.936,0,0,1,511.2,21.5c7.987-.207,13.3,4.663,13.3,11.9,0,7.585-5.479,12.7-13.655,12.7-6.873,0-11.755-3.226-13.228-9.058Z" transform="translate(-169.679 -0.012)" fill="url(#linear-gradient)"/>
    <path id="Path_581" data-name="Path 581" d="M70.09,28.484c0-12.175,8.06-17.654,16.437-17.654,6.4,0,13.46,3.178,15.457,12.279l-7.354,1.278c-1.181-4.547-4.407-6.7-8.151-6.7-5.12,0-8.626,4.079-8.626,10.812s3.427,10.739,8.62,10.739c3.793,0,7.062-2.179,8.151-6.873l7.4,1.284c-1.966,9.241-9.077,12.468-15.548,12.468C78.15,46.12,70.09,41,70.09,28.484Z" transform="translate(-27.422 0)"/>
    <circle id="Ellipse_117" data-name="Ellipse 117" cx="2.606" cy="2.606" r="2.606" transform="translate(35.467 39.131)"/>
    <circle id="Ellipse_118" data-name="Ellipse 118" cx="2.606" cy="2.606" r="2.606" transform="translate(0 26.767)"/>
    <circle id="Ellipse_119" data-name="Ellipse 119" cx="1.985" cy="1.985" r="1.985" transform="translate(18.89 35.327)"/>
    <circle id="Ellipse_120" data-name="Ellipse 120" cx="2.606" cy="2.606" r="2.606" transform="translate(22.543 14.434)"/>
    <path id="Path_582" data-name="Path 582" d="M15.651,41.9A2.606,2.606,0,1,1,13.046,39.3,2.606,2.606,0,0,1,15.651,41.9ZM34.821,30.39a4.079,4.079,0,1,0,4.073,4.073A4.079,4.079,0,0,0,34.821,30.39Zm4.73-6.849a1.485,1.485,0,1,0,1.485,1.485A1.485,1.485,0,0,0,39.551,23.541ZM38.066,17.49a.743.743,0,1,0,.743.743A.743.743,0,0,0,38.066,17.49ZM18.695,32.027a.743.743,0,1,0,.743.743A.743.743,0,0,0,18.695,32.027Zm0-9.637a1.485,1.485,0,1,0,1.051.442,1.485,1.485,0,0,0-1.051-.442Z" transform="translate(-4.084 -2.606)" fill="url(#linear-gradient-2)"/>
    <path id="Path_583" data-name="Path 583" d="M74.7,94.763,71.12,88.42h1.595l2.679,4.87,2.7-4.87H79.71L76.1,94.763v2.478H74.7Zm6.27-1.924c0-3.141,1.96-4.517,4.164-4.517S89.31,89.7,89.31,92.84s-1.978,4.529-4.182,4.529-4.17-1.345-4.17-4.529Zm6.9,0c0-2.033-1.071-3.239-2.739-3.239s-2.776,1.218-2.776,3.239,1.035,3.251,2.752,3.251,2.752-1.169,2.752-3.251ZM92,93.12v-4.7h1.412v4.687c0,2.106.706,2.959,2.252,2.959s2.252-.852,2.252-2.946v-4.7h1.418v4.7c0,2.886-1.218,4.261-3.653,4.261s-3.7-1.358-3.7-4.261Zm15.414,4.121-1.936-2.971H103.7v2.971h-1.424V88.42h2.581c2.739,0,4.042.791,4.042,2.91a2.563,2.563,0,0,1-2.021,2.7l2.167,3.2Zm-2.435-4.127c1.668,0,2.508-.3,2.508-1.717s-.84-1.753-2.508-1.753H103.7v3.47ZM116.3,88.426h2.325c3.58,0,5.016,1.437,5.016,4.407s-1.461,4.407-5.028,4.407H116.29Zm2.374,7.537c2.569,0,3.543-.962,3.543-3.141s-.974-3.129-3.555-3.129h-.95v6.27Zm12.784-.451h-4.407l-.694,1.729h-1.5l3.653-8.815h1.412l3.713,8.815h-1.5Zm-.451-1.132-1.753-4.4-1.753,4.4Zm5.479-4.675H134.1V88.426h6.173V89.7H137.9v7.537h-1.412ZM147.3,95.512h-4.42l-.694,1.729h-1.5l3.653-8.815h1.412l3.713,8.815h-1.5Zm-.45-1.132-1.753-4.4-1.753,4.4Zm5.722.377h1.4l-1.948,3.957h-1.1Zm13.807.755h-4.407l-.706,1.729h-1.5l3.653-8.815h1.412l3.713,8.815h-1.5Zm-.45-1.132-1.753-4.4-1.753,4.4Zm4.663-5.954H172v7.537h3.726v1.278h-5.138Zm5.272,0h1.522l2.179,6.806,2.009-6.806h1.217l2.021,6.806L187,88.426h1.522l-3.032,8.815h-1.339l-2.009-6.782-2,6.782H178.8ZM195.393,95.5h-4.42l-.694,1.741h-1.5l3.653-8.815h1.412l3.713,8.815h-1.5Zm-.45-1.132-1.753-4.4-1.753,4.4Zm6.088.39-3.567-6.343h1.595l2.679,4.87,2.7-4.87h1.607l-3.6,6.343v2.484h-1.412Zm6.051.207,1.327-.268a2.332,2.332,0,0,0,2.325,1.425c1.218,0,1.912-.487,1.912-1.327,0-2.082-5.187-.609-5.187-4.03,0-1.473,1.218-2.484,3.044-2.484a3.216,3.216,0,0,1,3.446,2.265l-1.291.256a2.094,2.094,0,0,0-2.119-1.266c-1.1,0-1.729.463-1.729,1.218,0,2.192,5.211.609,5.211,4.03,0,1.546-1.291,2.557-3.287,2.557a3.484,3.484,0,0,1-3.653-2.368Zm19.627.536H222.3l-.682,1.741h-1.5l3.653-8.815h1.412l3.713,8.815h-1.5Zm-.426-1.126-1.753-4.4-1.753,4.4Zm2.946-5.954h1.546l2.8,7.171,2.8-7.171h1.546l-3.628,8.821h-1.5Zm15.219,7.086H240.04l-.694,1.735h-1.5l3.653-8.815h1.412l3.714,8.815h-1.473ZM244,94.374l-1.753-4.4-1.753,4.4Zm4.663-5.954h1.412v8.821H248.66Zm4.493,0h1.412v7.537h3.726v1.284h-5.138Zm13.137,7.086h-4.407l-.694,1.735h-1.5l3.683-8.815h1.412l3.689,8.815h-1.5Zm-.438-1.132-1.753-4.4-1.753,4.4Zm4.657-5.954h2.806c2.922,0,3.774.828,3.774,2.277a1.826,1.826,0,0,1-1.632,2.033,1.888,1.888,0,0,1,1.924,2.082c0,1.485-.974,2.435-3.933,2.435h-2.94Zm2.819,3.774c1.595,0,2.277-.365,2.277-1.339s-.536-1.218-2.313-1.218h-1.376v2.545Zm.11,3.823c1.765,0,2.435-.4,2.435-1.339,0-1.035-.609-1.364-2.435-1.364h-1.546v2.709Zm6.611-7.6h1.412v7.537h3.726v1.284h-5.138Zm7.591,0h5.753V89.7h-4.34v2.435h4.121v1.218h-4.121v2.581h4.34v1.309h-5.753Z" transform="translate(-27.825 -30.301)" fill="url(#linear-gradient-3)"/>
  </g>
</svg>
