<?xml version="1.0" encoding="UTF-8" standalone="no"?>
<!DOCTYPE svg PUBLIC "-//W3C//DTD SVG 1.1//EN" "http://www.w3.org/Graphics/SVG/1.1/DTD/svg11.dtd">
<svg width="100%" height="100%" viewBox="0 0 300 100" version="1.1" xmlns="http://www.w3.org/2000/svg" xmlns:xlink="http://www.w3.org/1999/xlink" xml:space="preserve" xmlns:serif="http://www.serif.com/" style="fill-rule:evenodd;clip-rule:evenodd;stroke-linejoin:round;stroke-miterlimit:2;">
    <path d="M111.308,71.444L118.81,85.913C89.057,100.933 63.997,104.042 47.956,84.258C42.458,77.473 33.403,63.727 33.403,63.727C33.403,63.727 36.079,68.627 42.93,74.971C61.923,87.558 86.895,83.685 111.308,71.444Z" style="fill:url(#_Linear1);"/>
    <path d="M42.93,74.971C39.469,71.877 34.241,66.031 33.403,63.727C24.912,40.354 54.279,2.155 121.961,0.769C69.951,11.015 36.597,39.803 42.93,74.971ZM39.092,53.497C37.563,53.497 36.358,52.978 35.476,51.94C34.594,50.902 34.348,49.351 34.739,47.286C35.126,45.244 35.957,43.701 37.234,42.657C38.51,41.614 39.912,41.092 41.441,41.092C42.969,41.092 44.173,41.614 45.055,42.657C45.936,43.701 46.183,45.244 45.796,47.286C45.405,49.351 44.572,50.902 43.297,51.94C42.022,52.978 40.62,53.497 39.092,53.497ZM39.399,51.872C40.455,51.872 41.381,51.452 42.175,50.611C42.969,49.771 43.496,48.662 43.757,47.286C44.015,45.921 43.907,44.818 43.431,43.977C42.955,43.137 42.189,42.717 41.133,42.717C40.077,42.717 39.151,43.137 38.357,43.977C37.563,44.818 37.037,45.921 36.779,47.286C36.518,48.662 36.626,49.771 37.101,50.611C37.577,51.452 38.343,51.872 39.399,51.872Z"/>
    <g transform="matrix(21.4737,0,-4.08261,21.5601,49.7882,53.1752)">
        <path d="M0.233,0L0.011,-0.546L0.109,-0.546L0.283,-0.118L0.462,-0.546L0.553,-0.546L0.324,0L0.233,0Z" style="fill:rgb(213,8,66);fill-rule:nonzero;"/>
    </g>
    <g transform="matrix(21.4737,0,-4.08261,21.5601,66.0367,53.1752)">
        <path d="M0.475,-0.141L0.565,-0.141L0.565,-0.135C0.565,-0.111 0.556,-0.086 0.537,-0.061C0.518,-0.036 0.492,-0.017 0.461,-0.004C0.429,0.009 0.393,0.015 0.352,0.015C0.269,0.015 0.205,-0.012 0.16,-0.066C0.115,-0.119 0.092,-0.187 0.092,-0.269C0.092,-0.353 0.116,-0.422 0.164,-0.478C0.211,-0.533 0.273,-0.56 0.348,-0.56C0.389,-0.56 0.427,-0.552 0.46,-0.534C0.494,-0.516 0.52,-0.488 0.54,-0.45C0.56,-0.412 0.569,-0.359 0.569,-0.291L0.569,-0.261L0.182,-0.261C0.182,-0.203 0.197,-0.155 0.229,-0.117C0.26,-0.079 0.304,-0.06 0.36,-0.06C0.4,-0.06 0.429,-0.068 0.447,-0.084C0.466,-0.099 0.475,-0.116 0.475,-0.135L0.475,-0.141ZM0.188,-0.33L0.482,-0.33L0.482,-0.341C0.482,-0.366 0.476,-0.39 0.464,-0.414C0.451,-0.439 0.435,-0.456 0.413,-0.468C0.392,-0.479 0.367,-0.485 0.338,-0.485C0.304,-0.485 0.273,-0.471 0.244,-0.444C0.216,-0.417 0.197,-0.379 0.188,-0.33Z" style="fill:rgb(213,8,66);fill-rule:nonzero;"/>
    </g>
    <g transform="matrix(21.4737,0,-4.08261,21.5601,82.5212,53.1752)">
        <path d="M0.209,0L0.118,0L0.118,-0.546L0.209,-0.546L0.209,-0.451C0.228,-0.481 0.247,-0.502 0.265,-0.517C0.283,-0.531 0.302,-0.542 0.322,-0.549C0.341,-0.557 0.363,-0.56 0.387,-0.56C0.422,-0.56 0.453,-0.554 0.479,-0.54C0.506,-0.526 0.527,-0.505 0.543,-0.478C0.558,-0.451 0.565,-0.407 0.565,-0.347L0.565,0L0.474,0L0.474,-0.308C0.474,-0.357 0.471,-0.392 0.465,-0.412C0.458,-0.432 0.445,-0.448 0.426,-0.46C0.408,-0.471 0.387,-0.477 0.365,-0.477C0.339,-0.477 0.313,-0.469 0.289,-0.454C0.265,-0.438 0.246,-0.416 0.231,-0.388C0.216,-0.36 0.209,-0.32 0.209,-0.268L0.209,0Z" style="fill:rgb(213,8,66);fill-rule:nonzero;"/>
    </g>
    <g transform="matrix(21.4737,0,-4.08261,21.5601,99.1743,53.1752)">
        <path d="M0.432,-0.083C0.432,-0.083 0.481,-0.018 0.451,-0.005C0.421,0.008 0.385,0.015 0.343,0.015C0.263,0.015 0.201,-0.01 0.157,-0.061C0.114,-0.112 0.092,-0.183 0.092,-0.273C0.092,-0.363 0.114,-0.433 0.157,-0.484C0.201,-0.535 0.263,-0.56 0.343,-0.56C0.385,-0.56 0.421,-0.554 0.451,-0.541C0.481,-0.528 0.505,-0.51 0.523,-0.487C0.541,-0.464 0.55,-0.438 0.55,-0.411L0.55,-0.405L0.459,-0.405L0.459,-0.411C0.46,-0.43 0.452,-0.447 0.433,-0.462C0.415,-0.477 0.386,-0.485 0.348,-0.485C0.302,-0.485 0.264,-0.468 0.233,-0.435C0.203,-0.401 0.187,-0.347 0.187,-0.273C0.187,-0.198 0.203,-0.144 0.233,-0.111C0.264,-0.077 0.302,-0.06 0.348,-0.06C0.386,-0.06 0.432,-0.083 0.432,-0.083Z" style="fill:rgb(213,8,66);fill-rule:nonzero;"/>
    </g>
    <g transform="matrix(21.4737,0,-4.08261,21.5601,17.1743,53.1752)">
        <path d="M0.386,-0.083C0.386,-0.083 0.434,-0.018 0.404,-0.005C0.374,0.008 0.339,0.015 0.297,0.015C0.216,0.015 0.154,-0.01 0.111,-0.061C0.067,-0.112 0.046,-0.183 0.046,-0.273C0.046,-0.363 0.067,-0.433 0.111,-0.484C0.154,-0.535 0.216,-0.56 0.297,-0.56C0.339,-0.56 0.374,-0.554 0.404,-0.541C0.434,-0.528 0.458,-0.51 0.476,-0.487C0.495,-0.464 0.504,-0.438 0.504,-0.411L0.504,-0.405L0.413,-0.405L0.413,-0.411C0.414,-0.43 0.405,-0.447 0.387,-0.462C0.368,-0.477 0.34,-0.485 0.301,-0.485C0.256,-0.485 0.218,-0.468 0.187,-0.435C0.156,-0.401 0.141,-0.347 0.141,-0.273C0.141,-0.198 0.156,-0.144 0.187,-0.111C0.218,-0.077 0.256,-0.06 0.301,-0.06C0.34,-0.06 0.386,-0.083 0.386,-0.083Z" style="fill:rgb(213,8,66);fill-rule:nonzero;"/>
    </g>
    <g transform="matrix(21.4737,0,-4.08261,21.5601,115.018,53.1752)">
        <path d="M0.35,0.015C0.278,0.015 0.218,-0.009 0.167,-0.057C0.117,-0.105 0.092,-0.177 0.092,-0.273C0.092,-0.368 0.117,-0.439 0.167,-0.488C0.218,-0.536 0.278,-0.56 0.35,-0.56C0.421,-0.56 0.481,-0.536 0.532,-0.488C0.582,-0.439 0.607,-0.368 0.607,-0.273C0.607,-0.177 0.582,-0.105 0.532,-0.057C0.481,-0.009 0.421,0.015 0.35,0.015ZM0.35,-0.06C0.399,-0.06 0.438,-0.08 0.468,-0.119C0.497,-0.158 0.512,-0.209 0.512,-0.273C0.512,-0.336 0.497,-0.388 0.468,-0.427C0.438,-0.466 0.399,-0.485 0.35,-0.485C0.3,-0.485 0.261,-0.466 0.231,-0.427C0.202,-0.388 0.187,-0.336 0.187,-0.273C0.187,-0.209 0.202,-0.158 0.231,-0.119C0.261,-0.08 0.3,-0.06 0.35,-0.06Z" style="fill:rgb(213,8,66);fill-rule:nonzero;"/>
    </g>
    <defs>
        <linearGradient id="_Linear1" x1="0" y1="0" x2="1" y2="0" gradientUnits="userSpaceOnUse" gradientTransform="matrix(85.4067,0,-0,85.4067,33.4035,80.9346)"><stop offset="0" style="stop-color:white;stop-opacity:1"/><stop offset="1" style="stop-color:black;stop-opacity:1"/></linearGradient>
    </defs>
</svg>
