<?xml version="1.0" encoding="UTF-8" standalone="no"?>
<!DOCTYPE svg PUBLIC "-//W3C//DTD SVG 1.1//EN" "http://www.w3.org/Graphics/SVG/1.1/DTD/svg11.dtd">
<svg width="100%" height="100%" viewBox="0 0 300 100" version="1.1" xmlns="http://www.w3.org/2000/svg" xmlns:xlink="http://www.w3.org/1999/xlink" xml:space="preserve" xmlns:serif="http://www.serif.com/" style="fill-rule:evenodd;clip-rule:evenodd;stroke-linejoin:round;stroke-miterlimit:2;">
    <g transform="matrix(0.764197,0,0,0.764197,-1.83925,18.2994)">
        <path d="M5.543,40.623C5.543,29.564 14.098,21.079 25.226,21.079C33.919,21.079 40.596,25.879 43.518,32.973L34.685,36.519C33.154,32.485 29.677,30.052 25.364,30.052C19.592,30.052 15.071,34.781 15.071,40.623C15.071,46.326 19.662,51.056 25.435,51.056C29.886,51.056 33.224,48.343 34.754,44.518L43.726,48.205C40.526,55.16 34.267,60.167 25.295,60.167C14.028,60.166 5.543,51.542 5.543,40.623" style="fill:rgb(2,22,96);fill-rule:nonzero;"/>
        <path d="M47.108,40.623C47.108,29.774 55.663,21.079 66.93,21.079C78.128,21.079 86.821,29.774 86.821,40.623C86.821,51.404 78.267,60.166 66.93,60.166C55.663,60.166 47.108,51.403 47.108,40.623M77.293,40.554C77.293,34.711 72.703,30.052 67,30.052C61.227,30.052 56.706,34.711 56.706,40.554C56.706,46.396 61.227,51.056 67,51.056C72.703,51.056 77.293,46.396 77.293,40.554" style="fill:rgb(2,22,96);fill-rule:nonzero;"/>
        <path d="M86.474,21.845L96.627,21.845L105.877,47.16L115.198,21.845L125.143,21.845L110.398,59.401L100.87,59.401L86.474,21.845Z" style="fill:rgb(2,22,96);fill-rule:nonzero;"/>
        <path d="M125.796,40.692C125.796,29.773 134.281,21.079 145.478,21.079C156.745,21.079 164.883,29.217 164.883,40.345L164.883,43.961L135.046,43.961C136.298,48.83 140.262,51.89 145.826,51.89C150.277,51.89 153.267,49.943 155.145,46.883L163.005,51.473C159.249,56.759 153.964,60.166 145.687,60.166C133.586,60.166 125.796,51.611 125.796,40.692M135.324,36.45L155.354,36.45C154.102,31.79 150.486,29.217 145.478,29.217C140.61,29.217 136.854,32.068 135.324,36.45" style="fill:rgb(2,22,96);fill-rule:nonzero;"/>
        <path d="M167.387,21.845L174.342,21.845L174.342,13.707L183.801,8.144L183.801,21.845L193.677,21.845L193.677,30.33L183.801,30.33L183.801,45.77C183.801,49.735 185.47,51.125 187.905,51.125C189.226,51.125 190.269,50.708 191.382,49.734L195.764,57.245C193.329,59.054 190.269,60.097 186.791,60.097C178.933,60.097 174.342,56.341 174.342,46.118L174.342,30.33L167.387,30.33L167.387,21.845Z" style="fill:rgb(2,22,96);fill-rule:nonzero;"/>
        <path d="M202.05,21.845L211.509,21.845L211.509,27.617C213.317,23.166 217.072,21.15 221.871,21.15C224.375,21.15 226.6,21.776 228.2,22.61L224.722,32.069C223.679,31.304 221.87,30.747 219.714,30.747C214.776,30.747 211.577,33.251 211.577,39.58L211.577,59.402L202.049,59.402L202.049,21.845L202.05,21.845Z" style="fill:rgb(2,22,96);fill-rule:nonzero;"/>
        <path d="M231.33,44.379L231.33,21.845L241.136,21.845L241.136,43.058C241.136,48.343 243.64,51.612 248.787,51.612C253.308,51.612 256.645,48.343 256.645,42.502L256.645,21.845L266.382,21.775L266.382,59.332L256.784,59.401L256.784,54.672C254.35,58.08 250.524,60.166 245.934,60.166C236.684,60.166 231.33,54.255 231.33,44.379" style="fill:rgb(2,22,96);fill-rule:nonzero;"/>
        <path d="M272.365,50.847L281.615,47.231C283.284,50.569 286.274,52.308 290.239,52.308C294.134,52.308 296.219,50.43 296.219,48.204C296.219,45.492 292.186,44.865 287.386,43.892C281.058,42.571 274.033,40.623 274.033,32.695C274.033,26.366 280.153,20.871 289.403,20.941C297.332,20.941 302.061,23.931 305.539,28.939L296.776,32.486C295.246,29.982 292.88,28.522 289.403,28.522C285.647,28.522 283.84,30.052 283.84,32.138C283.84,34.503 286.9,35.129 292.395,36.311C298.654,37.563 306.027,39.719 306.027,47.787C306.027,53.63 300.81,60.237 289.891,60.167C280.989,60.166 275.355,56.828 272.365,50.847" style="fill:rgb(2,22,96);fill-rule:nonzero;"/>
        <path d="M357.607,41L323.758,21.896L323.758,60.104L357.607,41Z" style="fill:rgb(2,22,96);fill-rule:nonzero;"/>
        <path d="M357.607,41L323.758,60.104L357.607,79.207L391.457,60.104L357.607,41Z" style="fill:rgb(39,189,190);fill-rule:nonzero;"/>
        <path d="M357.607,2.793L323.758,21.896L357.607,41L391.457,21.896L357.607,2.793Z" style="fill:rgb(237,48,48);fill-rule:nonzero;"/>
    </g>
</svg>
