<?xml version="1.0" encoding="UTF-8" standalone="no"?>
<!DOCTYPE svg PUBLIC "-//W3C//DTD SVG 1.1//EN" "http://www.w3.org/Graphics/SVG/1.1/DTD/svg11.dtd">
<svg width="100%" height="100%" viewBox="0 0 300 100" version="1.1" xmlns="http://www.w3.org/2000/svg" xmlns:xlink="http://www.w3.org/1999/xlink" xml:space="preserve" xmlns:serif="http://www.serif.com/" style="fill-rule:evenodd;clip-rule:evenodd;stroke-linejoin:round;stroke-miterlimit:2;">
    <g transform="matrix(1,0,0,1,-0.135069,-0.641278)">
        <path d="M76.52,29.395L76.52,9.537C66.223,5.832 59.178,3.028 44.836,5.806C25.603,9.532 7.239,24.994 8.524,51.515C10.036,82.717 45.791,90.544 45.791,90.544L52.871,97.387L59.831,90.932C63.931,90.654 67.686,90.116 71.711,88.363L74.657,93.493L95.206,93.43L87.179,79.345C89.489,77.276 91.477,75.032 93.274,72.682L82.3,59.237C72.531,74.183 57.125,77.563 42.441,72.039L52.714,54.374L63.197,73.268C69.235,70.339 73.215,65.166 75.387,58.022L54.732,21.408C63.452,21.758 70.772,24.509 76.52,29.395ZM9.988,93.604L29.891,93.685L33.984,86.64C26.839,82.901 20.284,80.405 16.03,82.754L9.988,93.604ZM101.556,88.551C165.819,93.993 229.791,94.334 293.414,88.551C229.658,84.035 165.699,84.18 101.556,88.551ZM162.789,56.321L166.513,53.758C166.247,52.885 164.197,50.946 161.369,50.117C158.063,49.147 153.495,50.211 152.531,52.128C149.188,58.776 153.169,61.945 156.335,62.981C160.069,64.203 163.94,65.916 161.369,68.823C158.642,71.909 154.779,66.624 154.779,66.624L150.873,69.301C150.59,69.59 152.606,73.975 160.105,73.855C165.386,73.77 167.151,69.073 167.151,66.624C167.151,61.423 162.603,59.853 160.105,59.164C157.141,58.347 155.909,57.459 155.999,55.867C156.056,54.852 157.4,53.552 159.061,53.758C160.67,53.959 162.597,55.64 162.789,56.321ZM139.118,56.321L142.841,53.758C142.575,52.885 140.525,50.946 137.698,50.117C134.392,49.147 129.823,50.211 128.859,52.128C125.517,58.776 129.498,61.945 132.663,62.981C136.398,64.203 140.268,65.916 137.698,68.823C134.971,71.909 131.108,66.624 131.108,66.624L127.201,69.301C126.918,69.59 128.934,73.975 136.433,73.855C141.714,73.77 143.48,69.073 143.48,66.624C143.48,61.423 138.931,59.853 136.433,59.164C133.47,58.347 132.237,57.459 132.327,55.867C132.385,54.852 133.728,53.552 135.389,53.758C136.999,53.959 138.926,55.64 139.118,56.321ZM255.391,50.174L260.603,50.174L260.603,68.803L270.645,68.803L270.645,73.242L255.391,73.242L255.391,50.174ZM241.1,73.242L231.234,73.242L231.234,50.174L241.043,50.174C248.026,50.119 248.025,59.609 243.346,61.144C248.811,62.603 248.395,72.527 241.1,73.242ZM210.962,64.926L215.096,50.174L221.752,50.174L221.752,73.242L217.526,73.242L217.526,54.462L212.776,73.242L209.27,73.242L204.447,54.462L204.447,73.242L200.048,73.242L200.048,50.174L206.907,50.174L210.962,64.926ZM175.171,50.123L190.536,50.123L190.536,54.261L180.215,54.261L180.215,59.297L187.333,59.297L187.333,63.452L180.215,63.452L180.215,68.914L191.321,68.914L191.321,73.133L175.171,73.133L175.171,50.123ZM120.393,73.133L115.465,73.133L114.156,68.72L107.243,68.72L106.078,73.133L101.009,73.133L107.665,50.182L113.707,50.182L120.393,73.133ZM286.54,73.057L281.383,73.057L281.383,63.779L274.146,50.174L279.579,50.174L283.865,58.692L287.936,50.174L293.414,50.174L286.54,63.779L286.54,73.057ZM239.767,63.155L236.157,63.155L236.157,69.545L239.767,69.545C242.415,68.726 242.479,63.845 239.767,63.155ZM110.733,54.408L108.074,64.709L113.328,64.709L110.733,54.408ZM28.604,60.467L50.153,21.957C40.296,23.528 32.91,28.073 28.477,36.172C23.931,44.484 24.792,52.544 28.604,60.467ZM239.501,53.736L236.157,53.736L236.157,59.545L239.501,59.545C242.148,58.726 242.213,54.426 239.501,53.736ZM106.952,26.637C106.981,21.569 109.546,18.925 114.769,18.82C120.23,18.82 122.758,21.464 122.537,26.588L117.428,26.588C117.604,24.595 116.799,23.33 114.769,22.974C113.297,23.014 112.433,23.808 112.055,25.203L112.055,36.388C112.433,37.783 113.297,38.577 114.769,38.617C116.799,38.261 117.626,36.399 117.45,34.406L122.558,34.406C122.78,39.53 120.23,42.771 114.769,42.771C109.546,42.666 106.981,40.022 106.952,34.954L106.952,26.637ZM238.027,42.298L227.397,42.298L227.397,40.156L230.308,40.156L230.308,21.221L227.397,21.221L227.397,19.126L238.027,19.126L238.027,21.221L235.308,21.221L235.308,40.156L238.027,40.156L238.027,42.298ZM214.639,42.231L209.377,42.231L209.377,23.49L203.483,23.49L203.483,19.126L220.345,19.126L220.345,23.49L214.639,23.49L214.639,42.231ZM136.25,42.187L131.335,42.187L131.335,19.155L139.291,19.155C139.301,19.155 147.191,18.643 147.177,25.29C147.162,31.941 142.789,31.944 142.789,31.944L147.83,42.187L142.278,42.187L137.911,32.796L136.25,32.796L136.25,42.187ZM257.504,42.168L251.984,42.168L244.785,19.126L249.989,19.126L254.691,35.447L259.181,19.126L264.352,19.126L257.504,42.168ZM272.171,19.123L287.536,19.123L287.536,23.261L277.215,23.261L277.215,28.297L284.333,28.297L284.333,32.452L277.215,32.452L277.215,37.914L288.321,37.914L288.321,42.133L272.171,42.133L272.171,19.123ZM199.198,42.133L194.27,42.133L192.961,37.72L186.047,37.72L184.882,42.133L179.814,42.133L186.469,19.182L192.511,19.182L199.198,42.133ZM156.171,19.123L171.536,19.123L171.536,23.261L161.215,23.261L161.215,28.297L168.333,28.297L168.333,32.452L161.215,32.452L161.215,37.914L172.321,37.914L172.321,42.133L156.171,42.133L156.171,19.123ZM189.538,23.408L186.879,33.709L192.132,33.709L189.538,23.408ZM139.557,22.781L136.25,22.781L136.25,29.144L139.557,29.144C139.557,29.144 142.082,28.9 142.082,25.997C142.082,23.097 139.563,22.782 139.557,22.781Z"/>
    </g>
</svg>
