<?xml version="1.0" encoding="UTF-8" standalone="no"?>
<!DOCTYPE svg PUBLIC "-//W3C//DTD SVG 1.1//EN" "http://www.w3.org/Graphics/SVG/1.1/DTD/svg11.dtd">
<svg width="100%" height="100%" viewBox="0 0 300 100" version="1.1" xmlns="http://www.w3.org/2000/svg" xmlns:xlink="http://www.w3.org/1999/xlink" xml:space="preserve" xmlns:serif="http://www.serif.com/" style="fill-rule:evenodd;clip-rule:evenodd;stroke-linejoin:round;stroke-miterlimit:2;">
    <path d="M37.15,66.15C33.43,70.341 27.897,73 21.724,73C10.533,73 1.447,64.262 1.447,53.5C1.447,42.738 10.533,34 21.724,34C27.425,34 32.581,36.268 36.266,39.917L32.502,44.623C29.898,41.702 26.034,39.85 21.724,39.85C13.89,39.85 7.53,45.966 7.53,53.5C7.53,61.034 13.89,67.15 21.724,67.15C26.262,67.15 30.306,65.097 32.905,61.905L37.15,66.15ZM43.397,73L35.661,73L50,52.795L36.661,34L44.397,34L54.208,47.824L64.019,34L71.755,34L58.416,52.795L72.755,73L65.019,73L54.208,57.767L43.397,73Z" style="fill:rgb(0,159,225);"/>
    <path d="M275.805,73L259.914,34L267.021,34L279.043,64.725L291.065,34L298.173,34L282.281,73C278.029,87.513 268.45,91.075 259.464,84.344L262.519,79.007C268.68,82.557 273.178,80.646 275.805,73ZM163.805,73L147.914,34L155.021,34L167.043,64.725L179.065,34L186.173,34L170.281,73C166.029,87.513 156.45,91.075 147.464,84.344L150.519,79.007C156.68,82.557 161.178,80.646 163.805,73ZM218.549,73L211.971,73L211.971,67.34C207.573,72.317 202.175,73.537 197.153,73.089C179.804,71.541 181.284,50.134 197.153,49.76L211.971,49.76L211.971,46.842C210.65,37.712 199.306,37.333 189.903,43.313L186.876,38.644C199.661,30.5 216.512,31.599 218.549,44.818L218.549,73ZM247.089,35.057L258.972,35.057L258.972,40.195L247.089,40.195L247.089,62.787C247.089,66.445 252.273,68.759 257.89,64.865L259.705,70.107C248.789,76.031 240.508,72.892 240.139,62.787L240.139,40.195L234.63,40.195L234.63,35.057L240.139,35.057L240.139,24.621L247.089,24.621L247.089,35.057ZM129.553,34C140.743,34 149.829,42.738 149.829,53.5C149.829,64.262 140.743,73 129.553,73C118.362,73 109.276,64.262 109.276,53.5C109.276,42.738 118.362,34 129.553,34ZM223.924,18.077L230.874,18.077L230.874,73L223.924,73L223.924,18.077ZM110.71,73L80.995,73L80.995,21.07L88.052,21.07L88.052,66.311L110.71,66.311L110.71,73ZM199.569,54.74C193.801,55.434 191.468,56.911 191.364,60.811C191.121,69.892 208.236,70.116 211.971,58.909L211.971,54.74L199.569,54.74ZM129.553,39.85C137.386,39.85 143.746,45.966 143.746,53.5C143.746,61.034 137.386,67.15 129.553,67.15C121.719,67.15 115.359,61.034 115.359,53.5C115.359,45.966 121.719,39.85 129.553,39.85Z" style="fill:rgb(24,45,92);"/>
</svg>
