<?xml version="1.0" encoding="UTF-8" standalone="no"?>
<!DOCTYPE svg PUBLIC "-//W3C//DTD SVG 1.1//EN" "http://www.w3.org/Graphics/SVG/1.1/DTD/svg11.dtd">
<svg width="100%" height="100%" viewBox="0 0 300 100" version="1.1" xmlns="http://www.w3.org/2000/svg" xmlns:xlink="http://www.w3.org/1999/xlink" xml:space="preserve" xmlns:serif="http://www.serif.com/" style="fill-rule:evenodd;clip-rule:evenodd;stroke-linecap:round;stroke-linejoin:round;stroke-miterlimit:1.5;">
    <path d="M241.951,46.917C240.199,47.368 238.639,48.109 237.39,49.321C236.352,51.258 236.44,52.935 238.06,54.258C239.591,55.507 240.813,56.321 239.185,58.133C236.983,60.633 237.949,62.661 240.092,64.513C241.603,65.495 242.574,66.871 242.36,69.111C242.051,71.601 243.865,72.378 246.955,72.123C247.631,72.081 248.3,71.955 248.961,71.724C249.619,73.177 250.176,74.151 251.181,75.303C252.82,77.183 254.269,78.076 256.777,76.662C258.849,75.494 260.114,75.193 261.042,77.869C261.773,79.978 266.771,80.349 266.688,76.662C266.635,74.286 267.665,72.805 269.975,75.303C272.39,77.915 278.226,75.448 276.277,72.123C274.998,69.446 275.275,68.791 278.706,70.05C282.689,71.512 285.86,66.805 283.594,64.999C283.045,64.561 281.637,64.765 281.183,64.139C280.624,63.369 281.191,61.735 282.719,60.874C285.719,65.363 290.142,57.121 286.349,55.374C284.167,54.37 283.84,53.867 286.349,52.46C289.199,50.861 289.376,44.692 285.725,45.362C283.849,45.706 283.138,44.97 285.164,42.937C287.101,40.993 285.35,36.842 282.121,37.163C280.275,37.347 279.977,36.002 280.935,34.518C282.175,32.599 280.447,30.085 276.277,30.157C274.946,30.18 274.298,29.709 274.257,28.412C274.146,24.944 271.473,24.857 267.77,25.991C265.506,26.683 263.902,28.376 262.695,30.157L241.951,46.917Z"/>
    <path d="M242.248,47.685L238.692,50.892C237.741,51.854 237.639,52.727 239.268,53.416C241.03,54.161 241.779,55.431 240.752,57.651C239.657,60.019 239.411,61.433 241.397,62.71C243.703,64.193 244.692,65.861 244.022,67.366C243.075,69.495 244.618,70.827 246.969,69.984C249.256,69.165 251.524,69.678 251.762,71.979C252.09,75.142 254.017,75.803 256.921,74.219C258.617,73.293 262.172,74.281 262.064,75.429C261.696,79.307 266.296,79.374 264.614,75.429C264.05,74.108 265.356,72.482 267.687,71.979C269.073,71.804 270.508,71.948 271.04,72.68C271.442,73.233 270.668,76.027 273.022,74.816L274.491,73.816C274.962,73.463 274.96,73.129 274.491,72.68C273.402,71.636 273.422,69.917 274.491,68.523C275.775,66.849 277.734,66.7 279.463,67.902C279.887,68.197 280.168,68.507 280.358,68.935C281.163,68.564 281.766,68.018 282.244,67.366C281.662,66.084 280.212,65.624 279.738,64.795C278.205,62.112 279.003,60.326 281.665,59.257C282.854,58.779 285.405,59.893 285.648,58.874C285.891,57.856 283.115,55.089 283.122,53.147C283.128,51.527 283.929,50.587 285.974,50.278C287.466,50.052 287.467,47.09 285.974,47.378C283.394,47.876 281.727,45.721 282.859,42.355C283.624,40.084 283.721,38.845 281.665,39.349C279.603,39.854 277.792,36.377 279.001,33.925C279.445,33.025 279.477,32.517 277.904,32.44L275.366,32.44C273.8,32.464 273.47,31.573 273.68,30.453C274.311,27.098 269.051,25.347 264.201,29.866L242.248,47.685Z" style="fill:rgb(255,253,253);"/>
    <g>
        <path d="M242.915,43.462C240.829,43.418 240.477,44.764 241.596,47.288C241.996,48.191 242.864,48.88 242.915,49.494C242.961,50.045 242.382,50.798 242.301,51.157C241.473,54.826 244.319,57.885 248.799,58.629C254.264,73.564 279.013,69.152 275.504,46.685C278.206,41.081 278.177,37.293 274.253,36.092C274.089,31.623 271.309,31.214 269.346,34.899L245.2,11.34L240.607,13.722L242.915,43.462Z"/>
        <path d="M242.041,13.722C242.962,13.458 243.684,12.952 244.293,12.311L267.093,35.126C257.022,34.206 249.981,36.774 245.373,42.143L242.041,13.722Z" style="fill:rgb(243,11,50);"/>
        <g transform="matrix(1.04703,0,0,1.04703,-11.1061,-1.44184)">
            <circle cx="240.19" cy="9.014" r="5.304" style="fill:rgb(243,11,50);stroke:black;stroke-width:0.96px;"/>
        </g>
        <g transform="matrix(1.04703,0,0,1.04703,-5.10342,11.0229)">
            <circle cx="240.19" cy="9.014" r="5.304" style="fill:rgb(243,11,50);stroke:black;stroke-width:0.96px;"/>
        </g>
        <g transform="matrix(1.04703,0,0,1.04703,1.50967,22.437)">
            <circle cx="240.19" cy="9.014" r="5.304" style="fill:rgb(243,11,50);stroke:black;stroke-width:0.96px;"/>
        </g>
        <path d="M244.989,49.75C242.883,50.358 243.055,51.825 244.571,53.799C245.522,55.188 246.999,55.665 248.911,55.387C257.768,72.095 276.244,65.707 272.528,44.485C274.336,44.806 274.901,43.998 274.77,40.208C274.686,37.797 272.221,37.557 272.097,40.208C270.597,39.557 269.543,38.574 268.614,37.497C267.96,37.761 267.485,38.205 267.351,38.99L265.041,37.497C263.775,38.257 262.511,38.722 261.248,38.99C261.044,38.571 261.131,38.083 261.646,37.497C258.273,36.531 255.262,37.226 252.62,39.621C252.99,39.974 253.165,40.383 253.207,40.833C250.94,41.448 249.12,42.724 247.896,44.878L247.896,43.748C247.223,42.791 246.76,43.101 246.473,44.485L246.473,47.831C246.667,49.662 246.063,50.113 244.989,49.75Z" style="fill:white;"/>
        <g>
            <path d="M259.512,45.307C256.551,45.316 255.488,51.816 260.234,51.954C264.36,52.073 263.971,45.292 259.512,45.307Z" style="fill:rgb(244,9,51);"/>
            <path d="M258.657,47.832C258.055,46.823 260.654,45.58 260.837,46.198C261.324,47.848 259.112,48.595 258.657,47.832Z" style="fill:white;"/>
        </g>
        <path d="M251.485,45.452C250.928,46.056 250.551,46.701 250.346,47.387C250.235,47.984 250.389,48.35 250.767,48.518C251.141,48.003 251.557,47.67 252.031,47.588C252.692,48.571 253.509,49.051 254.399,49.29C253.818,48.575 253.294,47.82 253.102,46.833C253.676,46.421 254.072,45.81 254.399,45.123C252.758,45.597 251.973,44.882 251.804,43.313L250.767,43.313C251.09,43.941 251.441,44.54 251.485,45.452Z"/>
        <path d="M264.102,39.572L264.102,41.457C263.675,42.075 263.199,42.273 262.703,42.31C262.211,42.346 262.658,43.561 263.32,43.393C263.618,43.318 264.003,43.152 264.439,42.823C264.698,43.468 265.066,44.049 265.705,44.474L266.467,44.474L266.467,42.31C266.852,42.041 267.277,41.976 267.714,41.98L267.714,40.699C267.188,40.765 266.668,40.866 266.167,41.083C265.23,41.573 265.122,39.611 265.191,39.572L264.102,39.572Z"/>
        <path d="M256.711,53.523C255.926,55.24 255.034,56.707 253.898,57.601C254.403,58.453 255.01,58.48 255.728,57.601C262.528,63.847 269.321,61.504 269.497,50.702L270.615,49.678C268.703,49.397 267.217,48.484 265.929,47.276C265.662,48.501 265.93,49.655 267.007,50.702C263.892,55.985 260.439,57.383 256.711,55.619L256.711,53.523Z"/>
        <path d="M258.171,57.697C261.889,58.119 266.026,58.014 268.246,51.991C266.896,60.924 262.749,61.231 258.171,57.697Z" style="fill:white;"/>
    </g>
    <g transform="matrix(0.833978,0,0,0.833978,4.95841,3.98139)">
        <g transform="matrix(1.35686,0,0,1.22376,-6.47839,-15.6008)">
            <g transform="matrix(61.426,0,0,61.426,3.78483,69)">
                <path d="M0.062,0L0.062,-0.716L0.264,-0.716C0.314,-0.716 0.352,-0.711 0.378,-0.703C0.413,-0.691 0.442,-0.67 0.467,-0.64C0.492,-0.61 0.512,-0.572 0.526,-0.526C0.54,-0.48 0.547,-0.425 0.547,-0.362C0.547,-0.281 0.535,-0.212 0.511,-0.156C0.487,-0.099 0.457,-0.059 0.42,-0.035C0.382,-0.012 0.334,0 0.273,0L0.062,0ZM0.139,-0.084L0.264,-0.084C0.315,-0.084 0.353,-0.093 0.379,-0.109C0.405,-0.126 0.425,-0.152 0.439,-0.188C0.458,-0.237 0.467,-0.295 0.467,-0.363C0.467,-0.435 0.457,-0.492 0.437,-0.534C0.418,-0.575 0.392,-0.603 0.361,-0.617C0.34,-0.627 0.307,-0.631 0.262,-0.631L0.139,-0.631L0.139,-0.084Z" style="fill-rule:nonzero;"/>
            </g>
            <g transform="matrix(61.426,0,0,61.426,40.1366,69)">
                <path d="M0.344,-0.167L0.418,-0.156C0.406,-0.1 0.383,-0.059 0.351,-0.031C0.318,-0.002 0.278,0.012 0.23,0.012C0.17,0.012 0.122,-0.011 0.084,-0.057C0.047,-0.103 0.028,-0.169 0.028,-0.255C0.028,-0.344 0.047,-0.413 0.085,-0.46C0.122,-0.507 0.17,-0.53 0.228,-0.53C0.283,-0.53 0.328,-0.507 0.365,-0.461C0.402,-0.415 0.42,-0.348 0.42,-0.26L0.42,-0.237L0.103,-0.237C0.105,-0.179 0.119,-0.135 0.143,-0.105C0.167,-0.075 0.196,-0.061 0.231,-0.061C0.285,-0.061 0.323,-0.096 0.344,-0.167ZM0.107,-0.309L0.344,-0.309C0.341,-0.354 0.331,-0.388 0.315,-0.41C0.292,-0.442 0.263,-0.458 0.227,-0.458C0.195,-0.458 0.167,-0.445 0.145,-0.418C0.122,-0.391 0.109,-0.355 0.107,-0.309Z" style="fill-rule:nonzero;"/>
            </g>
            <g transform="matrix(61.426,0,0,61.426,68.1502,69)">
                <path d="M0.054,0L0.054,-0.519L0.118,-0.519L0.118,-0.446C0.132,-0.473 0.151,-0.494 0.173,-0.508C0.196,-0.523 0.22,-0.53 0.247,-0.53C0.277,-0.53 0.302,-0.523 0.323,-0.507C0.344,-0.492 0.358,-0.469 0.367,-0.439C0.384,-0.47 0.404,-0.492 0.426,-0.508C0.448,-0.523 0.472,-0.53 0.499,-0.53C0.539,-0.53 0.571,-0.516 0.595,-0.489C0.618,-0.461 0.63,-0.417 0.63,-0.356L0.63,0L0.558,0L0.558,-0.327C0.558,-0.364 0.555,-0.39 0.55,-0.406C0.545,-0.421 0.536,-0.433 0.524,-0.441C0.512,-0.45 0.498,-0.454 0.483,-0.454C0.452,-0.454 0.427,-0.442 0.408,-0.417C0.388,-0.393 0.378,-0.354 0.378,-0.301L0.378,0L0.306,0L0.306,-0.337C0.306,-0.38 0.3,-0.41 0.286,-0.428C0.273,-0.445 0.255,-0.454 0.232,-0.454C0.199,-0.454 0.173,-0.441 0.154,-0.414C0.135,-0.388 0.125,-0.339 0.125,-0.269L0.125,0L0.054,0Z" style="fill-rule:nonzero;"/>
            </g>
            <g transform="matrix(61.426,0,0,61.426,110.111,69)">
                <path d="M0.344,-0.167L0.418,-0.156C0.406,-0.1 0.383,-0.059 0.351,-0.031C0.318,-0.002 0.278,0.012 0.23,0.012C0.17,0.012 0.122,-0.011 0.084,-0.057C0.047,-0.103 0.028,-0.169 0.028,-0.255C0.028,-0.344 0.047,-0.413 0.085,-0.46C0.122,-0.507 0.17,-0.53 0.228,-0.53C0.283,-0.53 0.328,-0.507 0.365,-0.461C0.402,-0.415 0.42,-0.348 0.42,-0.26L0.42,-0.237L0.103,-0.237C0.105,-0.179 0.119,-0.135 0.143,-0.105C0.167,-0.075 0.196,-0.061 0.231,-0.061C0.285,-0.061 0.323,-0.096 0.344,-0.167ZM0.107,-0.309L0.344,-0.309C0.341,-0.354 0.331,-0.388 0.315,-0.41C0.292,-0.442 0.263,-0.458 0.227,-0.458C0.195,-0.458 0.167,-0.445 0.145,-0.418C0.122,-0.391 0.109,-0.355 0.107,-0.309Z" style="fill-rule:nonzero;"/>
            </g>
            <g transform="matrix(61.426,0,0,61.426,138.124,69)">
                <rect x="0.051" y="-0.716" width="0.072" height="0.716" style="fill-rule:nonzero;"/>
            </g>
            <g transform="matrix(61.426,0,0,61.426,149.312,69)">
                <path d="M0.016,0L0.016,-0.071L0.287,-0.45C0.256,-0.448 0.229,-0.447 0.206,-0.447L0.032,-0.447L0.032,-0.519L0.38,-0.519L0.38,-0.46L0.149,-0.131L0.105,-0.071C0.137,-0.074 0.167,-0.076 0.196,-0.076L0.393,-0.076L0.393,0L0.016,0Z" style="fill-rule:nonzero;"/>
            </g>
            <g transform="matrix(61.426,0,0,61.426,174.506,69)">
                <path d="M0.33,-0.064C0.306,-0.039 0.281,-0.02 0.255,-0.007C0.229,0.005 0.202,0.012 0.174,0.012C0.13,0.012 0.094,-0.002 0.068,-0.028C0.042,-0.055 0.028,-0.091 0.028,-0.136C0.028,-0.166 0.035,-0.193 0.047,-0.216C0.059,-0.239 0.076,-0.257 0.098,-0.27C0.119,-0.283 0.152,-0.293 0.195,-0.299C0.254,-0.307 0.297,-0.317 0.324,-0.329L0.325,-0.352C0.325,-0.387 0.318,-0.412 0.306,-0.426C0.288,-0.447 0.26,-0.458 0.223,-0.458C0.19,-0.458 0.165,-0.451 0.148,-0.437C0.131,-0.423 0.119,-0.397 0.111,-0.359L0.041,-0.371C0.051,-0.426 0.071,-0.467 0.102,-0.492C0.133,-0.518 0.177,-0.53 0.234,-0.53C0.278,-0.53 0.313,-0.522 0.339,-0.505C0.364,-0.488 0.38,-0.468 0.387,-0.443C0.394,-0.418 0.397,-0.382 0.397,-0.334L0.397,-0.217C0.397,-0.135 0.399,-0.084 0.402,-0.062C0.405,-0.041 0.411,-0.02 0.42,0L0.345,0C0.337,-0.018 0.332,-0.039 0.33,-0.064ZM0.324,-0.26C0.298,-0.247 0.259,-0.236 0.207,-0.227C0.176,-0.222 0.155,-0.216 0.143,-0.209C0.131,-0.203 0.122,-0.193 0.115,-0.181C0.108,-0.169 0.105,-0.155 0.105,-0.139C0.105,-0.114 0.113,-0.094 0.128,-0.079C0.143,-0.065 0.164,-0.057 0.191,-0.057C0.217,-0.057 0.24,-0.064 0.261,-0.077C0.282,-0.09 0.298,-0.108 0.309,-0.131C0.319,-0.153 0.324,-0.185 0.324,-0.228L0.324,-0.26Z" style="fill-rule:nonzero;"/>
            </g>
        </g>
        <g transform="matrix(1.05634,0,0,1,-3.62471,0)">
            <g transform="matrix(16.7526,0,0,16.7526,63,92)">
                <path d="M0.08,0L0.08,-0.716L0.175,-0.716L0.175,-0.422L0.547,-0.422L0.547,-0.716L0.642,-0.716L0.642,0L0.547,0L0.547,-0.337L0.175,-0.337L0.175,0L0.08,0Z" style="fill-rule:nonzero;"/>
            </g>
            <g transform="matrix(16.7526,0,0,16.7526,75.0982,92)">
                <path d="M0.033,-0.259C0.033,-0.355 0.06,-0.426 0.113,-0.473C0.158,-0.511 0.212,-0.53 0.276,-0.53C0.348,-0.53 0.406,-0.507 0.451,-0.46C0.496,-0.413 0.519,-0.349 0.519,-0.267C0.519,-0.2 0.509,-0.147 0.489,-0.109C0.469,-0.071 0.44,-0.041 0.402,-0.02C0.363,0.001 0.322,0.012 0.276,0.012C0.204,0.012 0.145,-0.012 0.1,-0.058C0.056,-0.105 0.033,-0.172 0.033,-0.259ZM0.124,-0.259C0.124,-0.193 0.138,-0.143 0.167,-0.11C0.196,-0.077 0.232,-0.061 0.276,-0.061C0.32,-0.061 0.356,-0.077 0.385,-0.11C0.414,-0.144 0.429,-0.194 0.429,-0.262C0.429,-0.326 0.414,-0.375 0.385,-0.408C0.356,-0.441 0.32,-0.458 0.276,-0.458C0.232,-0.458 0.196,-0.441 0.167,-0.408C0.138,-0.375 0.124,-0.326 0.124,-0.259Z" style="fill-rule:nonzero;"/>
            </g>
            <g transform="matrix(16.7526,0,0,16.7526,84.4151,92)">
                <path d="M0.031,-0.155L0.118,-0.168C0.123,-0.134 0.136,-0.107 0.158,-0.088C0.181,-0.07 0.212,-0.061 0.252,-0.061C0.292,-0.061 0.322,-0.069 0.342,-0.085C0.361,-0.102 0.371,-0.121 0.371,-0.143C0.371,-0.163 0.362,-0.179 0.345,-0.19C0.333,-0.198 0.303,-0.208 0.255,-0.22C0.191,-0.236 0.146,-0.25 0.121,-0.262C0.096,-0.274 0.078,-0.29 0.065,-0.311C0.052,-0.332 0.045,-0.355 0.045,-0.381C0.045,-0.404 0.051,-0.425 0.061,-0.445C0.072,-0.465 0.086,-0.481 0.104,-0.494C0.118,-0.504 0.137,-0.513 0.16,-0.52C0.184,-0.527 0.209,-0.53 0.236,-0.53C0.277,-0.53 0.313,-0.524 0.344,-0.513C0.374,-0.501 0.397,-0.485 0.412,-0.465C0.426,-0.445 0.436,-0.418 0.442,-0.385L0.356,-0.373C0.352,-0.4 0.341,-0.421 0.322,-0.436C0.303,-0.451 0.277,-0.458 0.243,-0.458C0.202,-0.458 0.174,-0.451 0.156,-0.438C0.139,-0.425 0.13,-0.409 0.13,-0.391C0.13,-0.38 0.134,-0.369 0.141,-0.36C0.148,-0.351 0.16,-0.343 0.175,-0.337C0.184,-0.334 0.209,-0.326 0.252,-0.314C0.315,-0.298 0.358,-0.284 0.383,-0.274C0.407,-0.263 0.426,-0.248 0.44,-0.228C0.454,-0.207 0.461,-0.182 0.461,-0.152C0.461,-0.123 0.453,-0.095 0.436,-0.07C0.419,-0.044 0.394,-0.024 0.362,-0.01C0.33,0.005 0.293,0.012 0.252,0.012C0.185,0.012 0.134,-0.002 0.098,-0.03C0.063,-0.058 0.041,-0.1 0.031,-0.155Z" style="fill-rule:nonzero;"/>
            </g>
            <g transform="matrix(16.7526,0,0,16.7526,92.7914,92)">
                <path d="M0.066,0.199L0.066,-0.519L0.146,-0.519L0.146,-0.451C0.165,-0.478 0.186,-0.497 0.21,-0.51C0.234,-0.524 0.263,-0.53 0.296,-0.53C0.341,-0.53 0.38,-0.519 0.414,-0.496C0.447,-0.473 0.473,-0.441 0.49,-0.4C0.507,-0.358 0.516,-0.313 0.516,-0.263C0.516,-0.21 0.507,-0.162 0.488,-0.12C0.469,-0.077 0.441,-0.045 0.405,-0.022C0.368,0 0.33,0.012 0.29,0.012C0.261,0.012 0.234,0.006 0.211,-0.007C0.188,-0.019 0.169,-0.035 0.154,-0.054L0.154,0.199L0.066,0.199ZM0.146,-0.256C0.146,-0.19 0.159,-0.14 0.186,-0.108C0.213,-0.076 0.246,-0.061 0.284,-0.061C0.323,-0.061 0.357,-0.077 0.385,-0.11C0.412,-0.143 0.426,-0.194 0.426,-0.264C0.426,-0.33 0.413,-0.379 0.385,-0.412C0.358,-0.445 0.326,-0.461 0.288,-0.461C0.251,-0.461 0.218,-0.444 0.189,-0.409C0.16,-0.374 0.146,-0.323 0.146,-0.256Z" style="fill-rule:nonzero;"/>
            </g>
            <g transform="matrix(16.7526,0,0,16.7526,102.108,92)">
                <path d="M0.066,-0.615L0.066,-0.716L0.154,-0.716L0.154,-0.615L0.066,-0.615ZM0.066,0L0.066,-0.519L0.154,-0.519L0.154,0L0.066,0Z" style="fill-rule:nonzero;"/>
            </g>
            <g transform="matrix(16.7526,0,0,16.7526,105.83,92)">
                <path d="M0.404,-0.19L0.491,-0.179C0.481,-0.119 0.457,-0.073 0.418,-0.039C0.379,-0.005 0.332,0.012 0.275,0.012C0.204,0.012 0.147,-0.011 0.104,-0.058C0.061,-0.104 0.039,-0.171 0.039,-0.257C0.039,-0.313 0.048,-0.362 0.067,-0.404C0.085,-0.446 0.114,-0.478 0.152,-0.499C0.19,-0.52 0.231,-0.53 0.275,-0.53C0.332,-0.53 0.378,-0.516 0.414,-0.488C0.449,-0.459 0.472,-0.419 0.482,-0.366L0.397,-0.353C0.389,-0.388 0.374,-0.414 0.354,-0.432C0.333,-0.449 0.308,-0.458 0.279,-0.458C0.235,-0.458 0.199,-0.442 0.171,-0.41C0.143,-0.379 0.129,-0.328 0.129,-0.26C0.129,-0.19 0.143,-0.139 0.169,-0.108C0.196,-0.076 0.231,-0.061 0.274,-0.061C0.308,-0.061 0.337,-0.071 0.36,-0.092C0.383,-0.113 0.398,-0.146 0.404,-0.19Z" style="fill-rule:nonzero;"/>
            </g>
            <g transform="matrix(16.7526,0,0,16.7526,114.207,92)">
                <path d="M0.421,-0.167L0.512,-0.156C0.497,-0.103 0.471,-0.062 0.432,-0.032C0.393,-0.003 0.344,0.012 0.284,0.012C0.208,0.012 0.148,-0.012 0.103,-0.058C0.059,-0.105 0.037,-0.171 0.037,-0.255C0.037,-0.342 0.059,-0.41 0.104,-0.458C0.149,-0.506 0.207,-0.53 0.279,-0.53C0.348,-0.53 0.405,-0.507 0.449,-0.459C0.493,-0.412 0.515,-0.346 0.515,-0.26C0.515,-0.255 0.514,-0.247 0.514,-0.237L0.127,-0.237C0.131,-0.18 0.147,-0.136 0.176,-0.106C0.205,-0.076 0.241,-0.061 0.284,-0.061C0.316,-0.061 0.344,-0.069 0.367,-0.086C0.389,-0.103 0.408,-0.13 0.421,-0.167ZM0.132,-0.309L0.422,-0.309C0.418,-0.353 0.407,-0.385 0.389,-0.407C0.361,-0.441 0.324,-0.458 0.28,-0.458C0.239,-0.458 0.205,-0.444 0.178,-0.417C0.15,-0.39 0.135,-0.354 0.132,-0.309Z" style="fill-rule:nonzero;"/>
            </g>
            <g transform="matrix(16.7526,0,0,16.7526,128.178,92)">
                <path d="M0.588,-0.251L0.683,-0.227C0.663,-0.149 0.627,-0.09 0.575,-0.049C0.524,-0.008 0.461,0.012 0.386,0.012C0.309,0.012 0.246,-0.003 0.198,-0.035C0.15,-0.066 0.113,-0.112 0.088,-0.171C0.062,-0.231 0.05,-0.295 0.05,-0.363C0.05,-0.438 0.064,-0.503 0.093,-0.558C0.121,-0.614 0.162,-0.656 0.214,-0.685C0.267,-0.714 0.325,-0.728 0.388,-0.728C0.459,-0.728 0.52,-0.71 0.568,-0.673C0.617,-0.637 0.651,-0.586 0.67,-0.52L0.577,-0.498C0.561,-0.55 0.536,-0.588 0.505,-0.611C0.473,-0.635 0.434,-0.647 0.386,-0.647C0.331,-0.647 0.285,-0.634 0.248,-0.607C0.211,-0.581 0.185,-0.546 0.17,-0.501C0.155,-0.457 0.147,-0.411 0.147,-0.364C0.147,-0.303 0.156,-0.25 0.174,-0.204C0.192,-0.159 0.219,-0.125 0.257,-0.103C0.294,-0.08 0.335,-0.069 0.378,-0.069C0.431,-0.069 0.476,-0.084 0.513,-0.115C0.55,-0.145 0.575,-0.191 0.588,-0.251Z" style="fill-rule:nonzero;"/>
            </g>
            <g transform="matrix(16.7526,0,0,16.7526,140.276,92)">
                <path d="M0.404,-0.064C0.372,-0.036 0.34,-0.017 0.31,-0.005C0.28,0.006 0.248,0.012 0.213,0.012C0.156,0.012 0.113,-0.002 0.082,-0.03C0.051,-0.058 0.036,-0.093 0.036,-0.137C0.036,-0.162 0.042,-0.185 0.053,-0.206C0.065,-0.227 0.08,-0.244 0.099,-0.257C0.118,-0.27 0.139,-0.279 0.162,-0.286C0.179,-0.29 0.205,-0.295 0.24,-0.299C0.311,-0.307 0.363,-0.317 0.397,-0.329C0.397,-0.341 0.397,-0.349 0.397,-0.352C0.397,-0.388 0.389,-0.413 0.373,-0.428C0.35,-0.448 0.317,-0.458 0.272,-0.458C0.231,-0.458 0.201,-0.45 0.181,-0.436C0.161,-0.421 0.147,-0.396 0.137,-0.359L0.051,-0.371C0.059,-0.407 0.072,-0.437 0.09,-0.46C0.108,-0.482 0.134,-0.5 0.167,-0.512C0.201,-0.524 0.241,-0.53 0.285,-0.53C0.329,-0.53 0.365,-0.525 0.393,-0.515C0.421,-0.504 0.441,-0.491 0.454,-0.475C0.467,-0.46 0.476,-0.44 0.481,-0.416C0.484,-0.401 0.486,-0.374 0.486,-0.334L0.486,-0.217C0.486,-0.136 0.488,-0.084 0.491,-0.062C0.495,-0.041 0.503,-0.02 0.514,0L0.422,0C0.413,-0.018 0.407,-0.04 0.404,-0.064ZM0.397,-0.26C0.365,-0.247 0.317,-0.236 0.253,-0.227C0.217,-0.222 0.192,-0.216 0.177,-0.209C0.162,-0.203 0.15,-0.193 0.142,-0.181C0.134,-0.168 0.13,-0.154 0.13,-0.139C0.13,-0.116 0.139,-0.096 0.156,-0.081C0.174,-0.065 0.2,-0.057 0.234,-0.057C0.268,-0.057 0.298,-0.065 0.325,-0.079C0.351,-0.094 0.37,-0.114 0.383,-0.14C0.392,-0.16 0.397,-0.189 0.397,-0.228L0.397,-0.26Z" style="fill-rule:nonzero;"/>
            </g>
            <g transform="matrix(16.7526,0,0,16.7526,149.593,92)">
                <path d="M0.065,0L0.065,-0.519L0.144,-0.519L0.144,-0.44C0.164,-0.477 0.183,-0.501 0.2,-0.513C0.217,-0.524 0.236,-0.53 0.256,-0.53C0.286,-0.53 0.316,-0.521 0.347,-0.502L0.316,-0.42C0.295,-0.433 0.273,-0.439 0.252,-0.439C0.233,-0.439 0.215,-0.434 0.2,-0.422C0.185,-0.411 0.174,-0.395 0.167,-0.374C0.158,-0.343 0.153,-0.309 0.153,-0.271L0.153,0L0.065,0Z" style="fill-rule:nonzero;"/>
            </g>
            <g transform="matrix(16.7526,0,0,16.7526,155.172,92)">
                <path d="M0.421,-0.167L0.512,-0.156C0.497,-0.103 0.471,-0.062 0.432,-0.032C0.393,-0.003 0.344,0.012 0.284,0.012C0.208,0.012 0.148,-0.012 0.103,-0.058C0.059,-0.105 0.037,-0.171 0.037,-0.255C0.037,-0.342 0.059,-0.41 0.104,-0.458C0.149,-0.506 0.207,-0.53 0.279,-0.53C0.348,-0.53 0.405,-0.507 0.449,-0.459C0.493,-0.412 0.515,-0.346 0.515,-0.26C0.515,-0.255 0.514,-0.247 0.514,-0.237L0.127,-0.237C0.131,-0.18 0.147,-0.136 0.176,-0.106C0.205,-0.076 0.241,-0.061 0.284,-0.061C0.316,-0.061 0.344,-0.069 0.367,-0.086C0.389,-0.103 0.408,-0.13 0.421,-0.167ZM0.132,-0.309L0.422,-0.309C0.418,-0.353 0.407,-0.385 0.389,-0.407C0.361,-0.441 0.324,-0.458 0.28,-0.458C0.239,-0.458 0.205,-0.444 0.178,-0.417C0.15,-0.39 0.135,-0.354 0.132,-0.309Z" style="fill-rule:nonzero;"/>
            </g>
            <g transform="matrix(16.7526,0,0,16.7526,169.143,92)">
                <path d="M0.087,0L0.087,-0.45L0.009,-0.45L0.009,-0.519L0.087,-0.519L0.087,-0.574C0.087,-0.609 0.09,-0.634 0.096,-0.651C0.105,-0.674 0.12,-0.693 0.141,-0.707C0.162,-0.721 0.192,-0.728 0.23,-0.728C0.255,-0.728 0.283,-0.725 0.313,-0.719L0.299,-0.643C0.281,-0.646 0.264,-0.647 0.248,-0.647C0.221,-0.647 0.202,-0.642 0.191,-0.63C0.18,-0.619 0.174,-0.598 0.174,-0.566L0.174,-0.519L0.275,-0.519L0.275,-0.45L0.174,-0.45L0.174,0L0.087,0Z" style="fill-rule:nonzero;"/>
            </g>
            <g transform="matrix(16.7526,0,0,16.7526,173.798,92)">
                <path d="M0.033,-0.259C0.033,-0.355 0.06,-0.426 0.113,-0.473C0.158,-0.511 0.212,-0.53 0.276,-0.53C0.348,-0.53 0.406,-0.507 0.451,-0.46C0.496,-0.413 0.519,-0.349 0.519,-0.267C0.519,-0.2 0.509,-0.147 0.489,-0.109C0.469,-0.071 0.44,-0.041 0.402,-0.02C0.363,0.001 0.322,0.012 0.276,0.012C0.204,0.012 0.145,-0.012 0.1,-0.058C0.056,-0.105 0.033,-0.172 0.033,-0.259ZM0.124,-0.259C0.124,-0.193 0.138,-0.143 0.167,-0.11C0.196,-0.077 0.232,-0.061 0.276,-0.061C0.32,-0.061 0.356,-0.077 0.385,-0.11C0.414,-0.144 0.429,-0.194 0.429,-0.262C0.429,-0.326 0.414,-0.375 0.385,-0.408C0.356,-0.441 0.32,-0.458 0.276,-0.458C0.232,-0.458 0.196,-0.441 0.167,-0.408C0.138,-0.375 0.124,-0.326 0.124,-0.259Z" style="fill-rule:nonzero;"/>
            </g>
            <g transform="matrix(16.7526,0,0,16.7526,183.115,92)">
                <path d="M0.065,0L0.065,-0.519L0.144,-0.519L0.144,-0.44C0.164,-0.477 0.183,-0.501 0.2,-0.513C0.217,-0.524 0.236,-0.53 0.256,-0.53C0.286,-0.53 0.316,-0.521 0.347,-0.502L0.316,-0.42C0.295,-0.433 0.273,-0.439 0.252,-0.439C0.233,-0.439 0.215,-0.434 0.2,-0.422C0.185,-0.411 0.174,-0.395 0.167,-0.374C0.158,-0.343 0.153,-0.309 0.153,-0.271L0.153,0L0.065,0Z" style="fill-rule:nonzero;"/>
            </g>
            <g transform="matrix(16.7526,0,0,16.7526,193.348,92)">
                <path d="M0.588,-0.251L0.683,-0.227C0.663,-0.149 0.627,-0.09 0.575,-0.049C0.524,-0.008 0.461,0.012 0.386,0.012C0.309,0.012 0.246,-0.003 0.198,-0.035C0.15,-0.066 0.113,-0.112 0.088,-0.171C0.062,-0.231 0.05,-0.295 0.05,-0.363C0.05,-0.438 0.064,-0.503 0.093,-0.558C0.121,-0.614 0.162,-0.656 0.214,-0.685C0.267,-0.714 0.325,-0.728 0.388,-0.728C0.459,-0.728 0.52,-0.71 0.568,-0.673C0.617,-0.637 0.651,-0.586 0.67,-0.52L0.577,-0.498C0.561,-0.55 0.536,-0.588 0.505,-0.611C0.473,-0.635 0.434,-0.647 0.386,-0.647C0.331,-0.647 0.285,-0.634 0.248,-0.607C0.211,-0.581 0.185,-0.546 0.17,-0.501C0.155,-0.457 0.147,-0.411 0.147,-0.364C0.147,-0.303 0.156,-0.25 0.174,-0.204C0.192,-0.159 0.219,-0.125 0.257,-0.103C0.294,-0.08 0.335,-0.069 0.378,-0.069C0.431,-0.069 0.476,-0.084 0.513,-0.115C0.55,-0.145 0.575,-0.191 0.588,-0.251Z" style="fill-rule:nonzero;"/>
            </g>
            <g transform="matrix(16.7526,0,0,16.7526,205.446,92)">
                <path d="M0.066,0L0.066,-0.716L0.154,-0.716L0.154,-0.459C0.195,-0.507 0.247,-0.53 0.309,-0.53C0.347,-0.53 0.381,-0.523 0.409,-0.508C0.438,-0.492 0.458,-0.472 0.47,-0.445C0.482,-0.418 0.488,-0.379 0.488,-0.329L0.488,0L0.4,0L0.4,-0.329C0.4,-0.373 0.391,-0.405 0.372,-0.425C0.353,-0.445 0.326,-0.455 0.291,-0.455C0.265,-0.455 0.24,-0.448 0.218,-0.434C0.195,-0.421 0.178,-0.403 0.168,-0.379C0.159,-0.356 0.154,-0.324 0.154,-0.284L0.154,0L0.066,0Z" style="fill-rule:nonzero;"/>
            </g>
            <g transform="matrix(16.7526,0,0,16.7526,214.763,92)">
                <path d="M0.066,-0.615L0.066,-0.716L0.154,-0.716L0.154,-0.615L0.066,-0.615ZM0.066,0L0.066,-0.519L0.154,-0.519L0.154,0L0.066,0Z" style="fill-rule:nonzero;"/>
            </g>
            <g transform="matrix(16.7526,0,0,16.7526,218.485,92)">
                <rect x="0.064" y="-0.716" width="0.088" height="0.716" style="fill-rule:nonzero;"/>
            </g>
            <g transform="matrix(16.7526,0,0,16.7526,222.207,92)">
                <path d="M0.402,0L0.402,-0.065C0.369,-0.014 0.321,0.012 0.257,0.012C0.216,0.012 0.178,0 0.143,-0.022C0.109,-0.045 0.082,-0.077 0.063,-0.118C0.044,-0.159 0.034,-0.206 0.034,-0.259C0.034,-0.311 0.043,-0.358 0.06,-0.4C0.077,-0.442 0.103,-0.474 0.138,-0.497C0.172,-0.519 0.211,-0.53 0.253,-0.53C0.285,-0.53 0.313,-0.524 0.337,-0.51C0.361,-0.497 0.381,-0.48 0.396,-0.459L0.396,-0.716L0.484,-0.716L0.484,0L0.402,0ZM0.125,-0.259C0.125,-0.192 0.139,-0.143 0.167,-0.11C0.194,-0.077 0.228,-0.061 0.266,-0.061C0.304,-0.061 0.337,-0.076 0.364,-0.108C0.39,-0.139 0.404,-0.187 0.404,-0.251C0.404,-0.322 0.39,-0.375 0.363,-0.408C0.335,-0.441 0.302,-0.458 0.262,-0.458C0.223,-0.458 0.19,-0.442 0.164,-0.41C0.138,-0.378 0.125,-0.327 0.125,-0.259Z" style="fill-rule:nonzero;"/>
            </g>
            <g transform="matrix(16.7526,0,0,16.7526,231.524,92)">
                <path d="M0.065,0L0.065,-0.519L0.144,-0.519L0.144,-0.44C0.164,-0.477 0.183,-0.501 0.2,-0.513C0.217,-0.524 0.236,-0.53 0.256,-0.53C0.286,-0.53 0.316,-0.521 0.347,-0.502L0.316,-0.42C0.295,-0.433 0.273,-0.439 0.252,-0.439C0.233,-0.439 0.215,-0.434 0.2,-0.422C0.185,-0.411 0.174,-0.395 0.167,-0.374C0.158,-0.343 0.153,-0.309 0.153,-0.271L0.153,0L0.065,0Z" style="fill-rule:nonzero;"/>
            </g>
            <g transform="matrix(16.7526,0,0,16.7526,237.102,92)">
                <path d="M0.421,-0.167L0.512,-0.156C0.497,-0.103 0.471,-0.062 0.432,-0.032C0.393,-0.003 0.344,0.012 0.284,0.012C0.208,0.012 0.148,-0.012 0.103,-0.058C0.059,-0.105 0.037,-0.171 0.037,-0.255C0.037,-0.342 0.059,-0.41 0.104,-0.458C0.149,-0.506 0.207,-0.53 0.279,-0.53C0.348,-0.53 0.405,-0.507 0.449,-0.459C0.493,-0.412 0.515,-0.346 0.515,-0.26C0.515,-0.255 0.514,-0.247 0.514,-0.237L0.127,-0.237C0.131,-0.18 0.147,-0.136 0.176,-0.106C0.205,-0.076 0.241,-0.061 0.284,-0.061C0.316,-0.061 0.344,-0.069 0.367,-0.086C0.389,-0.103 0.408,-0.13 0.421,-0.167ZM0.132,-0.309L0.422,-0.309C0.418,-0.353 0.407,-0.385 0.389,-0.407C0.361,-0.441 0.324,-0.458 0.28,-0.458C0.239,-0.458 0.205,-0.444 0.178,-0.417C0.15,-0.39 0.135,-0.354 0.132,-0.309Z" style="fill-rule:nonzero;"/>
            </g>
            <g transform="matrix(16.7526,0,0,16.7526,246.419,92)">
                <path d="M0.066,0L0.066,-0.519L0.145,-0.519L0.145,-0.445C0.183,-0.502 0.238,-0.53 0.31,-0.53C0.341,-0.53 0.37,-0.525 0.396,-0.513C0.422,-0.502 0.442,-0.487 0.455,-0.469C0.468,-0.451 0.477,-0.429 0.482,-0.404C0.486,-0.388 0.487,-0.36 0.487,-0.319L0.487,0L0.399,0L0.399,-0.315C0.399,-0.351 0.396,-0.378 0.389,-0.396C0.382,-0.413 0.37,-0.428 0.353,-0.438C0.335,-0.449 0.315,-0.454 0.292,-0.454C0.254,-0.454 0.222,-0.442 0.195,-0.418C0.167,-0.395 0.154,-0.35 0.154,-0.283L0.154,0L0.066,0Z" style="fill-rule:nonzero;"/>
            </g>
        </g>
    </g>
</svg>
