<?xml version="1.0" encoding="UTF-8" standalone="no"?>
<!DOCTYPE svg PUBLIC "-//W3C//DTD SVG 1.1//EN" "http://www.w3.org/Graphics/SVG/1.1/DTD/svg11.dtd">
<svg width="100%" height="100%" viewBox="0 0 300 100" version="1.1" xmlns="http://www.w3.org/2000/svg" xmlns:xlink="http://www.w3.org/1999/xlink" xml:space="preserve" xmlns:serif="http://www.serif.com/" style="fill-rule:evenodd;clip-rule:evenodd;stroke-linejoin:round;stroke-miterlimit:2;">
    <g transform="matrix(1.2256,0,0,1,-15.0797,0)">
        <g transform="matrix(26.6591,0,0,26.6591,63.592,44.1976)">
            <path d="M0.221,-0.609L0.221,-0.353L0.377,-0.353C0.39,-0.353 0.4,-0.36 0.406,-0.373C0.411,-0.386 0.416,-0.401 0.419,-0.42C0.421,-0.429 0.427,-0.433 0.437,-0.433C0.439,-0.433 0.442,-0.433 0.445,-0.432C0.448,-0.431 0.451,-0.431 0.453,-0.43C0.452,-0.415 0.451,-0.399 0.45,-0.38C0.448,-0.361 0.448,-0.345 0.448,-0.331C0.448,-0.32 0.448,-0.306 0.449,-0.29C0.45,-0.273 0.451,-0.255 0.453,-0.234C0.448,-0.233 0.443,-0.232 0.438,-0.232C0.427,-0.232 0.421,-0.236 0.419,-0.245C0.416,-0.264 0.411,-0.28 0.406,-0.293C0.4,-0.306 0.39,-0.312 0.377,-0.312L0.221,-0.312L0.221,-0.076C0.221,-0.062 0.23,-0.053 0.248,-0.048C0.266,-0.043 0.296,-0.041 0.337,-0.041L0.392,-0.041C0.411,-0.041 0.428,-0.044 0.443,-0.05C0.457,-0.055 0.47,-0.063 0.481,-0.073C0.492,-0.082 0.501,-0.094 0.51,-0.107C0.519,-0.12 0.527,-0.135 0.535,-0.151C0.537,-0.156 0.542,-0.158 0.55,-0.158C0.553,-0.158 0.557,-0.157 0.561,-0.155C0.564,-0.153 0.568,-0.151 0.571,-0.149C0.565,-0.136 0.56,-0.121 0.556,-0.104C0.551,-0.086 0.547,-0.069 0.543,-0.053C0.539,-0.037 0.535,-0.023 0.531,-0.012C0.526,-0.001 0.521,0.005 0.514,0.005C0.509,0.005 0.501,0.005 0.491,0.004C0.481,0.003 0.47,0.003 0.459,0.003C0.447,0.002 0.435,0.002 0.423,0.001C0.411,0 0.401,0 0.392,0L0.173,0C0.154,0 0.133,0.001 0.111,0.002C0.089,0.003 0.068,0.004 0.048,0.005C0.047,-0.002 0.046,-0.007 0.046,-0.011C0.046,-0.02 0.049,-0.026 0.056,-0.027C0.081,-0.032 0.099,-0.037 0.111,-0.042C0.122,-0.047 0.127,-0.057 0.127,-0.07L0.127,-0.579C0.127,-0.592 0.122,-0.602 0.113,-0.607C0.103,-0.612 0.084,-0.617 0.056,-0.622C0.049,-0.623 0.046,-0.629 0.046,-0.639C0.046,-0.642 0.046,-0.645 0.047,-0.648C0.047,-0.65 0.047,-0.652 0.048,-0.655C0.077,-0.653 0.101,-0.652 0.12,-0.651C0.139,-0.65 0.157,-0.65 0.172,-0.65L0.369,-0.65C0.399,-0.65 0.425,-0.651 0.447,-0.653C0.469,-0.655 0.484,-0.656 0.491,-0.656C0.5,-0.656 0.506,-0.651 0.509,-0.64C0.511,-0.628 0.514,-0.615 0.516,-0.6C0.518,-0.585 0.52,-0.568 0.523,-0.551C0.526,-0.534 0.531,-0.519 0.538,-0.507C0.533,-0.503 0.527,-0.501 0.52,-0.501C0.511,-0.501 0.506,-0.504 0.503,-0.51C0.495,-0.527 0.487,-0.542 0.48,-0.555C0.473,-0.567 0.464,-0.577 0.455,-0.585C0.445,-0.593 0.433,-0.599 0.42,-0.603C0.406,-0.607 0.389,-0.609 0.369,-0.609L0.221,-0.609Z" style="fill-rule:nonzero;"/>
        </g>
        <g transform="matrix(26.6591,0,0,26.6591,82.3866,44.1976)">
            <path d="M0.429,-0.238L0.206,-0.238L0.142,-0.077C0.139,-0.069 0.137,-0.062 0.137,-0.057C0.137,-0.043 0.157,-0.033 0.198,-0.027C0.203,-0.026 0.206,-0.025 0.208,-0.022C0.209,-0.019 0.21,-0.015 0.21,-0.011C0.21,-0.007 0.209,-0.002 0.208,0.005C0.19,0.004 0.171,0.003 0.151,0.002C0.131,0.001 0.111,0 0.092,0C0.079,0 0.065,0 0.051,0.001C0.037,0.002 0.022,0.003 0.007,0.005C0.006,0 0.005,-0.006 0.005,-0.011C0.005,-0.016 0.006,-0.02 0.008,-0.023C0.009,-0.026 0.013,-0.028 0.018,-0.029C0.039,-0.032 0.054,-0.037 0.065,-0.042C0.075,-0.047 0.082,-0.054 0.087,-0.065L0.328,-0.645C0.333,-0.656 0.339,-0.662 0.347,-0.662C0.35,-0.662 0.354,-0.661 0.359,-0.66L0.601,-0.062C0.605,-0.053 0.614,-0.045 0.628,-0.04C0.642,-0.035 0.656,-0.031 0.669,-0.029C0.673,-0.028 0.676,-0.026 0.679,-0.024C0.681,-0.021 0.682,-0.017 0.682,-0.011C0.682,-0.007 0.681,-0.002 0.68,0.005C0.659,0.004 0.638,0.003 0.617,0.002C0.596,0.001 0.577,0 0.559,0C0.54,0 0.519,0.001 0.495,0.002C0.471,0.003 0.449,0.004 0.43,0.005C0.429,-0.002 0.428,-0.007 0.428,-0.011C0.428,-0.017 0.429,-0.021 0.432,-0.024C0.434,-0.026 0.436,-0.027 0.438,-0.027C0.455,-0.03 0.469,-0.034 0.48,-0.039C0.491,-0.043 0.496,-0.049 0.496,-0.058C0.496,-0.062 0.495,-0.067 0.492,-0.073L0.429,-0.238ZM0.413,-0.279L0.32,-0.524L0.223,-0.279L0.413,-0.279Z" style="fill-rule:nonzero;"/>
        </g>
        <g transform="matrix(26.6591,0,0,26.6591,102.568,44.1976)">
            <path d="M0.473,-0.493C0.466,-0.492 0.461,-0.491 0.458,-0.491C0.449,-0.491 0.443,-0.493 0.439,-0.496C0.435,-0.499 0.432,-0.503 0.43,-0.507C0.413,-0.545 0.392,-0.573 0.368,-0.59C0.344,-0.607 0.311,-0.616 0.27,-0.616C0.254,-0.616 0.239,-0.614 0.225,-0.61C0.21,-0.605 0.198,-0.599 0.187,-0.591C0.176,-0.582 0.168,-0.572 0.162,-0.56C0.155,-0.548 0.152,-0.535 0.152,-0.52C0.152,-0.489 0.165,-0.463 0.192,-0.443C0.218,-0.423 0.257,-0.403 0.308,-0.382C0.372,-0.357 0.419,-0.329 0.45,-0.298C0.48,-0.267 0.495,-0.228 0.495,-0.183C0.495,-0.156 0.491,-0.13 0.483,-0.107C0.474,-0.083 0.461,-0.062 0.444,-0.045C0.426,-0.027 0.403,-0.013 0.375,-0.003C0.347,0.007 0.313,0.012 0.274,0.012C0.233,0.012 0.195,0.008 0.162,-0.001C0.128,-0.01 0.099,-0.021 0.076,-0.035C0.074,-0.063 0.071,-0.09 0.067,-0.116C0.063,-0.142 0.058,-0.168 0.053,-0.194C0.058,-0.196 0.063,-0.197 0.07,-0.197C0.078,-0.197 0.084,-0.195 0.089,-0.192C0.093,-0.188 0.097,-0.182 0.1,-0.174C0.117,-0.126 0.138,-0.091 0.165,-0.068C0.191,-0.045 0.228,-0.034 0.275,-0.034C0.296,-0.034 0.315,-0.037 0.331,-0.043C0.347,-0.049 0.36,-0.057 0.371,-0.068C0.382,-0.079 0.39,-0.091 0.395,-0.104C0.4,-0.117 0.403,-0.132 0.403,-0.147C0.403,-0.182 0.391,-0.209 0.368,-0.229C0.344,-0.249 0.31,-0.267 0.266,-0.283C0.237,-0.294 0.211,-0.305 0.188,-0.317C0.165,-0.328 0.145,-0.342 0.128,-0.357C0.111,-0.372 0.098,-0.39 0.09,-0.411C0.081,-0.431 0.076,-0.455 0.076,-0.483C0.076,-0.508 0.081,-0.531 0.09,-0.553C0.098,-0.574 0.112,-0.593 0.129,-0.609C0.146,-0.625 0.166,-0.638 0.19,-0.647C0.214,-0.656 0.241,-0.661 0.271,-0.661C0.302,-0.661 0.332,-0.658 0.361,-0.652C0.39,-0.646 0.422,-0.636 0.458,-0.622C0.459,-0.602 0.461,-0.58 0.464,-0.558C0.466,-0.535 0.469,-0.513 0.473,-0.493Z" style="fill-rule:nonzero;"/>
        </g>
        <g transform="matrix(26.6591,0,0,26.6591,119.683,44.1976)">
            <path d="M0.371,-0.609L0.371,-0.075C0.371,-0.06 0.377,-0.049 0.39,-0.043C0.403,-0.036 0.424,-0.031 0.454,-0.028C0.461,-0.028 0.465,-0.023 0.465,-0.012C0.465,-0.007 0.464,-0.002 0.463,0.005C0.442,0.004 0.419,0.003 0.396,0.002C0.372,0.001 0.348,0 0.324,0C0.301,0 0.277,0.001 0.253,0.002C0.228,0.003 0.205,0.004 0.184,0.005C0.183,-0.002 0.182,-0.007 0.182,-0.012C0.182,-0.021 0.185,-0.027 0.192,-0.028C0.222,-0.032 0.244,-0.037 0.257,-0.043C0.27,-0.049 0.277,-0.06 0.277,-0.075L0.277,-0.609L0.174,-0.609C0.154,-0.609 0.137,-0.607 0.124,-0.603C0.11,-0.599 0.098,-0.593 0.088,-0.585C0.078,-0.577 0.069,-0.567 0.062,-0.554C0.055,-0.541 0.047,-0.527 0.039,-0.51C0.038,-0.507 0.035,-0.504 0.033,-0.503C0.029,-0.502 0.027,-0.501 0.024,-0.501C0.017,-0.501 0.01,-0.503 0.005,-0.507C0.012,-0.531 0.017,-0.552 0.02,-0.571C0.023,-0.59 0.026,-0.605 0.029,-0.618C0.032,-0.63 0.035,-0.639 0.038,-0.646C0.041,-0.653 0.045,-0.656 0.052,-0.656C0.057,-0.656 0.063,-0.656 0.072,-0.655C0.081,-0.654 0.09,-0.654 0.1,-0.653C0.109,-0.652 0.119,-0.652 0.129,-0.651C0.139,-0.65 0.148,-0.65 0.157,-0.65L0.491,-0.65C0.499,-0.65 0.508,-0.65 0.518,-0.651C0.528,-0.652 0.538,-0.652 0.548,-0.653C0.558,-0.654 0.567,-0.654 0.576,-0.655C0.584,-0.656 0.591,-0.656 0.596,-0.656C0.603,-0.656 0.608,-0.653 0.611,-0.646C0.614,-0.639 0.616,-0.629 0.619,-0.616C0.622,-0.603 0.624,-0.588 0.628,-0.569C0.631,-0.55 0.636,-0.53 0.643,-0.507C0.64,-0.506 0.636,-0.504 0.634,-0.503C0.631,-0.502 0.627,-0.501 0.623,-0.501C0.62,-0.501 0.617,-0.502 0.614,-0.503C0.611,-0.504 0.608,-0.507 0.607,-0.51C0.6,-0.527 0.592,-0.541 0.585,-0.554C0.578,-0.567 0.569,-0.577 0.56,-0.585C0.55,-0.593 0.538,-0.599 0.525,-0.603C0.511,-0.607 0.494,-0.609 0.474,-0.609L0.371,-0.609Z" style="fill-rule:nonzero;"/>
        </g>
        <g transform="matrix(26.6591,0,0,26.6591,147.861,44.1976)">
            <path d="M0.295,-0.292L0.221,-0.292L0.221,-0.072C0.221,-0.057 0.228,-0.047 0.242,-0.042C0.255,-0.037 0.276,-0.032 0.304,-0.029C0.312,-0.028 0.316,-0.022 0.316,-0.012C0.316,-0.007 0.315,-0.002 0.314,0.005C0.296,0.004 0.274,0.003 0.249,0.002C0.223,0.001 0.198,0 0.173,0C0.156,0 0.136,0.001 0.113,0.002C0.09,0.003 0.069,0.004 0.049,0.005C0.048,-0.002 0.047,-0.007 0.047,-0.011C0.047,-0.02 0.051,-0.026 0.058,-0.027C0.083,-0.031 0.101,-0.036 0.112,-0.042C0.122,-0.047 0.127,-0.057 0.127,-0.07L0.127,-0.579C0.127,-0.592 0.122,-0.601 0.113,-0.608C0.103,-0.614 0.084,-0.619 0.056,-0.622C0.049,-0.623 0.046,-0.628 0.046,-0.639C0.046,-0.643 0.047,-0.648 0.048,-0.655C0.068,-0.654 0.089,-0.653 0.11,-0.652C0.131,-0.651 0.152,-0.65 0.171,-0.65L0.306,-0.65C0.378,-0.65 0.432,-0.634 0.469,-0.603C0.506,-0.571 0.524,-0.528 0.524,-0.474C0.524,-0.459 0.522,-0.444 0.517,-0.428C0.511,-0.412 0.504,-0.396 0.494,-0.381C0.483,-0.366 0.47,-0.352 0.454,-0.339C0.437,-0.326 0.418,-0.315 0.396,-0.307L0.563,-0.075C0.576,-0.058 0.59,-0.046 0.605,-0.039C0.62,-0.032 0.635,-0.027 0.648,-0.024C0.654,-0.023 0.657,-0.018 0.657,-0.01C0.657,-0.005 0.656,0.001 0.655,0.008C0.64,0.007 0.621,0.006 0.599,0.005C0.577,0.004 0.557,0.003 0.538,0.003C0.524,0.003 0.51,-0.003 0.496,-0.015C0.481,-0.027 0.468,-0.042 0.455,-0.061L0.295,-0.292ZM0.274,-0.333C0.321,-0.333 0.357,-0.343 0.382,-0.363C0.407,-0.382 0.42,-0.417 0.42,-0.466C0.42,-0.487 0.417,-0.506 0.412,-0.523C0.407,-0.54 0.398,-0.555 0.387,-0.568C0.375,-0.581 0.36,-0.591 0.341,-0.598C0.322,-0.605 0.298,-0.609 0.271,-0.609L0.221,-0.609L0.221,-0.333L0.274,-0.333Z" style="fill-rule:nonzero;"/>
        </g>
        <g transform="matrix(26.6591,0,0,26.6591,167.829,44.1976)">
            <path d="M0.216,-0.07C0.216,-0.057 0.221,-0.048 0.23,-0.043C0.239,-0.038 0.257,-0.032 0.282,-0.027C0.289,-0.026 0.292,-0.02 0.292,-0.011C0.292,-0.007 0.291,-0.002 0.29,0.005C0.269,0.004 0.249,0.003 0.228,0.002C0.207,0.001 0.188,0 0.169,0C0.151,0 0.131,0.001 0.11,0.002C0.088,0.003 0.067,0.004 0.048,0.005C0.047,-0.002 0.046,-0.007 0.046,-0.011C0.046,-0.02 0.049,-0.026 0.056,-0.027C0.081,-0.032 0.099,-0.037 0.108,-0.042C0.117,-0.047 0.122,-0.057 0.122,-0.07L0.122,-0.579C0.122,-0.592 0.117,-0.602 0.108,-0.608C0.099,-0.613 0.081,-0.618 0.056,-0.622C0.052,-0.623 0.049,-0.625 0.048,-0.628C0.047,-0.631 0.046,-0.635 0.046,-0.639C0.046,-0.643 0.047,-0.648 0.048,-0.655C0.068,-0.654 0.089,-0.653 0.111,-0.652C0.132,-0.651 0.152,-0.65 0.169,-0.65C0.186,-0.65 0.205,-0.651 0.227,-0.652C0.248,-0.653 0.269,-0.654 0.29,-0.655C0.291,-0.648 0.292,-0.643 0.292,-0.639C0.292,-0.629 0.289,-0.623 0.282,-0.622C0.257,-0.618 0.239,-0.613 0.23,-0.608C0.221,-0.602 0.216,-0.592 0.216,-0.579L0.216,-0.07Z" style="fill-rule:nonzero;"/>
        </g>
        <g transform="matrix(26.6591,0,0,26.6591,179.532,44.1976)">
            <path d="M0.607,-0.306C0.607,-0.409 0.582,-0.485 0.531,-0.535C0.48,-0.584 0.405,-0.609 0.307,-0.609L0.22,-0.609L0.22,-0.077C0.22,-0.07 0.222,-0.065 0.225,-0.06C0.228,-0.055 0.234,-0.052 0.242,-0.049C0.25,-0.046 0.261,-0.044 0.275,-0.043C0.289,-0.042 0.307,-0.041 0.328,-0.041C0.379,-0.041 0.423,-0.047 0.458,-0.06C0.493,-0.072 0.522,-0.09 0.544,-0.113C0.566,-0.135 0.582,-0.163 0.592,-0.196C0.602,-0.229 0.607,-0.265 0.607,-0.306ZM0.712,-0.325C0.712,-0.286 0.705,-0.247 0.692,-0.208C0.678,-0.169 0.657,-0.134 0.63,-0.104C0.602,-0.073 0.567,-0.048 0.525,-0.029C0.482,-0.01 0.433,0 0.376,0L0.171,0C0.154,0 0.134,0.001 0.112,0.002C0.09,0.003 0.069,0.004 0.048,0.005C0.047,-0.002 0.046,-0.007 0.046,-0.011C0.046,-0.02 0.05,-0.026 0.057,-0.027C0.082,-0.033 0.099,-0.039 0.11,-0.044C0.121,-0.049 0.126,-0.058 0.126,-0.07L0.126,-0.579C0.126,-0.592 0.121,-0.602 0.111,-0.607C0.101,-0.612 0.083,-0.617 0.057,-0.622C0.053,-0.623 0.05,-0.625 0.049,-0.628C0.047,-0.631 0.046,-0.635 0.046,-0.639C0.046,-0.643 0.047,-0.648 0.048,-0.655C0.062,-0.654 0.074,-0.653 0.085,-0.653C0.095,-0.652 0.105,-0.652 0.114,-0.651C0.123,-0.65 0.133,-0.65 0.142,-0.65L0.375,-0.65C0.431,-0.65 0.48,-0.641 0.523,-0.624C0.565,-0.607 0.6,-0.583 0.628,-0.554C0.656,-0.525 0.677,-0.49 0.691,-0.451C0.705,-0.412 0.712,-0.37 0.712,-0.325Z" style="fill-rule:nonzero;"/>
        </g>
        <g transform="matrix(26.6591,0,0,26.6591,202.379,44.1976)">
            <path d="M0.216,-0.07C0.216,-0.057 0.221,-0.048 0.23,-0.043C0.239,-0.038 0.257,-0.032 0.282,-0.027C0.289,-0.026 0.292,-0.02 0.292,-0.011C0.292,-0.007 0.291,-0.002 0.29,0.005C0.269,0.004 0.249,0.003 0.228,0.002C0.207,0.001 0.188,0 0.169,0C0.151,0 0.131,0.001 0.11,0.002C0.088,0.003 0.067,0.004 0.048,0.005C0.047,-0.002 0.046,-0.007 0.046,-0.011C0.046,-0.02 0.049,-0.026 0.056,-0.027C0.081,-0.032 0.099,-0.037 0.108,-0.042C0.117,-0.047 0.122,-0.057 0.122,-0.07L0.122,-0.579C0.122,-0.592 0.117,-0.602 0.108,-0.608C0.099,-0.613 0.081,-0.618 0.056,-0.622C0.052,-0.623 0.049,-0.625 0.048,-0.628C0.047,-0.631 0.046,-0.635 0.046,-0.639C0.046,-0.643 0.047,-0.648 0.048,-0.655C0.068,-0.654 0.089,-0.653 0.111,-0.652C0.132,-0.651 0.152,-0.65 0.169,-0.65C0.186,-0.65 0.205,-0.651 0.227,-0.652C0.248,-0.653 0.269,-0.654 0.29,-0.655C0.291,-0.648 0.292,-0.643 0.292,-0.639C0.292,-0.629 0.289,-0.623 0.282,-0.622C0.257,-0.618 0.239,-0.613 0.23,-0.608C0.221,-0.602 0.216,-0.592 0.216,-0.579L0.216,-0.07Z" style="fill-rule:nonzero;"/>
        </g>
        <g transform="matrix(26.6591,0,0,26.6591,214.082,44.1976)">
            <path d="M0.563,-0.159L0.563,-0.577C0.563,-0.592 0.558,-0.602 0.547,-0.608C0.536,-0.614 0.518,-0.619 0.493,-0.622C0.486,-0.623 0.482,-0.628 0.482,-0.639C0.482,-0.643 0.483,-0.648 0.484,-0.655C0.501,-0.654 0.518,-0.653 0.535,-0.652C0.552,-0.651 0.569,-0.65 0.584,-0.65C0.599,-0.65 0.614,-0.651 0.63,-0.652C0.646,-0.653 0.662,-0.654 0.677,-0.655C0.678,-0.648 0.679,-0.643 0.679,-0.639C0.679,-0.628 0.676,-0.623 0.669,-0.622C0.646,-0.619 0.631,-0.614 0.623,-0.608C0.614,-0.602 0.61,-0.592 0.61,-0.579L0.61,0.01C0.609,0.011 0.606,0.011 0.603,0.012C0.6,0.012 0.597,0.012 0.595,0.012C0.59,0.012 0.586,0.011 0.582,0.009C0.578,0.006 0.573,0.001 0.568,-0.006L0.162,-0.541L0.162,-0.07C0.162,-0.057 0.167,-0.047 0.176,-0.042C0.185,-0.037 0.203,-0.032 0.23,-0.027C0.237,-0.026 0.24,-0.02 0.24,-0.011C0.24,-0.007 0.239,-0.002 0.238,0.005C0.221,0.004 0.204,0.003 0.188,0.002C0.171,0.001 0.155,0 0.14,0C0.127,0 0.111,0.001 0.093,0.002C0.075,0.003 0.059,0.004 0.044,0.005C0.043,-0.002 0.042,-0.007 0.042,-0.011C0.042,-0.02 0.046,-0.026 0.053,-0.027C0.077,-0.032 0.093,-0.037 0.102,-0.042C0.11,-0.047 0.114,-0.057 0.114,-0.07L0.114,-0.584C0.114,-0.595 0.11,-0.603 0.103,-0.609C0.095,-0.614 0.079,-0.619 0.055,-0.622C0.048,-0.623 0.044,-0.629 0.044,-0.639L0.046,-0.655C0.059,-0.654 0.072,-0.653 0.084,-0.652C0.095,-0.651 0.106,-0.651 0.118,-0.651C0.13,-0.65 0.141,-0.65 0.15,-0.65C0.169,-0.65 0.182,-0.649 0.189,-0.648C0.195,-0.647 0.2,-0.643 0.204,-0.638L0.563,-0.159Z" style="fill-rule:nonzero;"/>
        </g>
        <g transform="matrix(26.6591,0,0,26.6591,235.703,44.1976)">
            <path d="M0.585,-0.005C0.555,0 0.524,0.005 0.493,0.008C0.462,0.011 0.425,0.012 0.383,0.012C0.326,0.012 0.276,0.003 0.234,-0.014C0.191,-0.031 0.156,-0.055 0.128,-0.085C0.1,-0.115 0.079,-0.151 0.066,-0.192C0.052,-0.233 0.045,-0.277 0.045,-0.325C0.045,-0.365 0.052,-0.405 0.066,-0.445C0.079,-0.485 0.1,-0.521 0.128,-0.553C0.155,-0.585 0.19,-0.611 0.232,-0.632C0.274,-0.652 0.323,-0.662 0.379,-0.662C0.399,-0.662 0.418,-0.662 0.437,-0.661C0.455,-0.66 0.473,-0.658 0.491,-0.655C0.509,-0.652 0.527,-0.649 0.546,-0.646C0.564,-0.642 0.584,-0.637 0.605,-0.632C0.606,-0.609 0.609,-0.584 0.613,-0.56C0.616,-0.535 0.621,-0.51 0.627,-0.486C0.626,-0.485 0.623,-0.484 0.619,-0.483C0.615,-0.482 0.612,-0.482 0.609,-0.482C0.598,-0.482 0.592,-0.486 0.589,-0.495C0.577,-0.54 0.557,-0.572 0.528,-0.591C0.499,-0.61 0.458,-0.62 0.405,-0.62C0.362,-0.62 0.325,-0.613 0.293,-0.599C0.261,-0.585 0.235,-0.566 0.214,-0.542C0.193,-0.517 0.177,-0.488 0.166,-0.455C0.155,-0.421 0.15,-0.384 0.15,-0.345C0.15,-0.299 0.157,-0.257 0.171,-0.218C0.184,-0.179 0.203,-0.146 0.227,-0.118C0.25,-0.09 0.278,-0.068 0.311,-0.053C0.343,-0.038 0.378,-0.03 0.416,-0.03C0.435,-0.03 0.455,-0.031 0.475,-0.034C0.494,-0.037 0.511,-0.04 0.524,-0.044L0.524,-0.197C0.524,-0.215 0.519,-0.228 0.508,-0.235C0.497,-0.242 0.479,-0.247 0.454,-0.25C0.449,-0.251 0.445,-0.253 0.443,-0.257C0.441,-0.261 0.44,-0.265 0.44,-0.269C0.44,-0.274 0.441,-0.28 0.442,-0.285C0.461,-0.284 0.483,-0.283 0.506,-0.282C0.529,-0.281 0.55,-0.28 0.567,-0.28C0.584,-0.28 0.604,-0.281 0.627,-0.282C0.649,-0.283 0.668,-0.284 0.685,-0.285C0.686,-0.278 0.687,-0.273 0.687,-0.269C0.687,-0.262 0.686,-0.258 0.684,-0.256C0.681,-0.253 0.678,-0.252 0.675,-0.251C0.654,-0.248 0.639,-0.244 0.631,-0.238C0.622,-0.231 0.618,-0.221 0.618,-0.208L0.618,-0.03C0.618,-0.024 0.616,-0.019 0.613,-0.015C0.61,-0.011 0.6,-0.008 0.585,-0.005Z" style="fill-rule:nonzero;"/>
        </g>
    </g>
    <g transform="matrix(10,0,0,10,63.3494,74.5727)">
        <path d="M0.045,-0.325C0.045,-0.371 0.053,-0.414 0.07,-0.455C0.087,-0.496 0.109,-0.531 0.138,-0.562C0.167,-0.593 0.2,-0.617 0.238,-0.635C0.276,-0.653 0.316,-0.662 0.358,-0.662C0.416,-0.662 0.467,-0.653 0.51,-0.635C0.553,-0.616 0.589,-0.592 0.618,-0.561C0.646,-0.53 0.667,-0.494 0.681,-0.453C0.695,-0.412 0.702,-0.37 0.702,-0.325C0.702,-0.272 0.693,-0.225 0.676,-0.184C0.659,-0.142 0.635,-0.107 0.605,-0.078C0.574,-0.049 0.539,-0.026 0.498,-0.011C0.456,0.004 0.413,0.012 0.366,0.012C0.319,0.012 0.275,0.004 0.236,-0.012C0.197,-0.028 0.163,-0.051 0.135,-0.081C0.106,-0.11 0.084,-0.146 0.069,-0.187C0.053,-0.228 0.045,-0.274 0.045,-0.325ZM0.389,-0.036C0.42,-0.036 0.449,-0.042 0.475,-0.054C0.501,-0.066 0.523,-0.083 0.542,-0.104C0.561,-0.125 0.575,-0.151 0.586,-0.18C0.596,-0.209 0.601,-0.241 0.601,-0.276C0.601,-0.324 0.596,-0.369 0.586,-0.41C0.576,-0.451 0.561,-0.486 0.541,-0.517C0.52,-0.547 0.495,-0.571 0.464,-0.588C0.432,-0.605 0.396,-0.614 0.355,-0.614C0.328,-0.614 0.302,-0.609 0.277,-0.599C0.252,-0.588 0.23,-0.573 0.211,-0.554C0.192,-0.534 0.176,-0.51 0.165,-0.481C0.154,-0.452 0.148,-0.419 0.148,-0.382C0.148,-0.333 0.153,-0.287 0.164,-0.245C0.175,-0.202 0.19,-0.166 0.211,-0.135C0.231,-0.103 0.256,-0.079 0.286,-0.062C0.316,-0.045 0.35,-0.036 0.389,-0.036Z" style="fill-rule:nonzero;"/>
    </g>
    <g transform="matrix(10,0,0,10,76.8394,74.5727)">
        <path d="M0.127,-0.579C0.127,-0.592 0.122,-0.602 0.112,-0.607C0.101,-0.612 0.083,-0.617 0.056,-0.622C0.051,-0.623 0.049,-0.625 0.048,-0.628C0.047,-0.63 0.046,-0.634 0.046,-0.639C0.046,-0.643 0.047,-0.648 0.048,-0.655C0.07,-0.654 0.091,-0.653 0.112,-0.652C0.133,-0.651 0.152,-0.65 0.171,-0.65L0.369,-0.65C0.395,-0.65 0.42,-0.651 0.443,-0.653C0.466,-0.655 0.482,-0.656 0.491,-0.656C0.499,-0.656 0.505,-0.651 0.508,-0.64C0.511,-0.628 0.514,-0.615 0.516,-0.6C0.518,-0.585 0.52,-0.568 0.523,-0.552C0.526,-0.535 0.53,-0.52 0.537,-0.507C0.535,-0.504 0.532,-0.503 0.529,-0.502C0.526,-0.501 0.522,-0.5 0.519,-0.5C0.511,-0.5 0.506,-0.503 0.503,-0.509C0.495,-0.527 0.487,-0.542 0.48,-0.555C0.472,-0.568 0.463,-0.578 0.454,-0.586C0.444,-0.594 0.432,-0.6 0.419,-0.604C0.406,-0.607 0.389,-0.609 0.369,-0.609L0.221,-0.609L0.221,-0.343L0.37,-0.343C0.383,-0.343 0.393,-0.349 0.399,-0.363C0.404,-0.376 0.409,-0.391 0.412,-0.409C0.414,-0.418 0.42,-0.422 0.43,-0.422C0.435,-0.422 0.441,-0.421 0.446,-0.42C0.445,-0.405 0.444,-0.389 0.443,-0.37C0.442,-0.351 0.441,-0.334 0.441,-0.32C0.441,-0.309 0.441,-0.295 0.442,-0.279C0.443,-0.263 0.444,-0.245 0.446,-0.224C0.441,-0.223 0.436,-0.222 0.431,-0.222C0.426,-0.222 0.421,-0.223 0.418,-0.225C0.415,-0.226 0.413,-0.23 0.412,-0.235C0.409,-0.252 0.405,-0.268 0.399,-0.281C0.393,-0.294 0.383,-0.301 0.37,-0.301L0.221,-0.301L0.221,-0.069C0.221,-0.056 0.23,-0.047 0.247,-0.042C0.264,-0.037 0.284,-0.032 0.309,-0.029C0.317,-0.028 0.321,-0.023 0.321,-0.012C0.321,-0.007 0.32,-0.002 0.319,0.005C0.305,0.004 0.29,0.004 0.274,0.003C0.261,0.002 0.245,0.002 0.228,0.001C0.21,0 0.191,0 0.172,0C0.154,0 0.134,0.001 0.111,0.002C0.088,0.003 0.067,0.004 0.048,0.005C0.047,-0.002 0.046,-0.007 0.046,-0.011C0.046,-0.021 0.049,-0.026 0.056,-0.027C0.078,-0.032 0.095,-0.038 0.108,-0.043C0.121,-0.048 0.127,-0.057 0.127,-0.07L0.127,-0.579Z" style="fill-rule:nonzero;"/>
    </g>
    <g transform="matrix(10,0,0,10,96.6094,74.5727)">
        <path d="M0.248,-0.288L0.081,-0.588C0.074,-0.598 0.066,-0.606 0.056,-0.611C0.046,-0.616 0.032,-0.619 0.015,-0.622C0.012,-0.623 0.009,-0.625 0.008,-0.628C0.006,-0.631 0.005,-0.635 0.005,-0.64L0.005,-0.645L0.007,-0.655C0.022,-0.654 0.04,-0.653 0.063,-0.652C0.086,-0.651 0.108,-0.65 0.129,-0.65C0.137,-0.65 0.146,-0.65 0.157,-0.651C0.168,-0.651 0.179,-0.651 0.19,-0.652C0.201,-0.652 0.212,-0.652 0.223,-0.653C0.233,-0.654 0.242,-0.654 0.249,-0.655L0.251,-0.639C0.251,-0.635 0.25,-0.631 0.249,-0.628C0.247,-0.625 0.244,-0.623 0.241,-0.622C0.222,-0.619 0.208,-0.616 0.201,-0.613C0.193,-0.609 0.189,-0.604 0.189,-0.597C0.189,-0.592 0.191,-0.585 0.196,-0.578L0.32,-0.354L0.437,-0.562C0.444,-0.574 0.447,-0.583 0.447,-0.59C0.447,-0.599 0.443,-0.605 0.434,-0.61C0.424,-0.615 0.41,-0.619 0.391,-0.622C0.384,-0.623 0.38,-0.628 0.38,-0.639L0.382,-0.655C0.397,-0.654 0.414,-0.653 0.434,-0.652C0.453,-0.651 0.471,-0.65 0.488,-0.65C0.503,-0.65 0.52,-0.651 0.537,-0.652C0.554,-0.653 0.57,-0.654 0.587,-0.655L0.589,-0.639C0.589,-0.63 0.585,-0.624 0.578,-0.622C0.555,-0.619 0.538,-0.615 0.529,-0.61C0.519,-0.604 0.511,-0.596 0.504,-0.584L0.342,-0.297L0.342,-0.073C0.342,-0.058 0.347,-0.048 0.359,-0.043C0.37,-0.037 0.388,-0.032 0.414,-0.028C0.421,-0.027 0.425,-0.021 0.425,-0.012C0.425,-0.011 0.425,-0.009 0.425,-0.007C0.424,-0.005 0.424,-0.003 0.424,-0.002C0.423,0.001 0.423,0.003 0.423,0.004C0.407,0.003 0.391,0.003 0.376,0.002C0.363,0.001 0.349,0.001 0.334,0C0.319,-0.001 0.305,-0.001 0.294,-0.001C0.283,-0.001 0.27,-0.001 0.255,0C0.24,0.001 0.226,0.001 0.213,0.002C0.198,0.003 0.182,0.003 0.167,0.004C0.166,0.003 0.166,0.001 0.166,-0.002C0.165,-0.003 0.165,-0.005 0.165,-0.007L0.165,-0.012C0.165,-0.021 0.168,-0.027 0.175,-0.028C0.201,-0.033 0.22,-0.039 0.231,-0.044C0.242,-0.049 0.248,-0.058 0.248,-0.073L0.248,-0.288Z" style="fill-rule:nonzero;"/>
    </g>
    <g transform="matrix(10,0,0,10,107.999,74.5727)">
        <path d="M0.045,-0.325C0.045,-0.371 0.053,-0.414 0.07,-0.455C0.087,-0.496 0.109,-0.531 0.138,-0.562C0.167,-0.593 0.2,-0.617 0.238,-0.635C0.276,-0.653 0.316,-0.662 0.358,-0.662C0.416,-0.662 0.467,-0.653 0.51,-0.635C0.553,-0.616 0.589,-0.592 0.618,-0.561C0.646,-0.53 0.667,-0.494 0.681,-0.453C0.695,-0.412 0.702,-0.37 0.702,-0.325C0.702,-0.272 0.693,-0.225 0.676,-0.184C0.659,-0.142 0.635,-0.107 0.605,-0.078C0.574,-0.049 0.539,-0.026 0.498,-0.011C0.456,0.004 0.413,0.012 0.366,0.012C0.319,0.012 0.275,0.004 0.236,-0.012C0.197,-0.028 0.163,-0.051 0.135,-0.081C0.106,-0.11 0.084,-0.146 0.069,-0.187C0.053,-0.228 0.045,-0.274 0.045,-0.325ZM0.389,-0.036C0.42,-0.036 0.449,-0.042 0.475,-0.054C0.501,-0.066 0.523,-0.083 0.542,-0.104C0.561,-0.125 0.575,-0.151 0.586,-0.18C0.596,-0.209 0.601,-0.241 0.601,-0.276C0.601,-0.324 0.596,-0.369 0.586,-0.41C0.576,-0.451 0.561,-0.486 0.541,-0.517C0.52,-0.547 0.495,-0.571 0.464,-0.588C0.432,-0.605 0.396,-0.614 0.355,-0.614C0.328,-0.614 0.302,-0.609 0.277,-0.599C0.252,-0.588 0.23,-0.573 0.211,-0.554C0.192,-0.534 0.176,-0.51 0.165,-0.481C0.154,-0.452 0.148,-0.419 0.148,-0.382C0.148,-0.333 0.153,-0.287 0.164,-0.245C0.175,-0.202 0.19,-0.166 0.211,-0.135C0.231,-0.103 0.256,-0.079 0.286,-0.062C0.316,-0.045 0.35,-0.036 0.389,-0.036Z" style="fill-rule:nonzero;"/>
    </g>
    <g transform="matrix(10,0,0,10,121.489,74.5727)">
        <path d="M0.295,-0.292L0.221,-0.292L0.221,-0.072C0.221,-0.057 0.228,-0.047 0.242,-0.042C0.255,-0.037 0.276,-0.032 0.304,-0.029C0.312,-0.028 0.316,-0.022 0.316,-0.012C0.316,-0.007 0.315,-0.002 0.314,0.005C0.296,0.004 0.274,0.003 0.249,0.002C0.223,0.001 0.198,0 0.173,0C0.156,0 0.136,0.001 0.113,0.002C0.09,0.003 0.069,0.004 0.049,0.005C0.048,-0.002 0.047,-0.007 0.047,-0.011C0.047,-0.02 0.051,-0.026 0.058,-0.027C0.083,-0.031 0.101,-0.036 0.112,-0.042C0.122,-0.047 0.127,-0.057 0.127,-0.07L0.127,-0.579C0.127,-0.592 0.122,-0.601 0.113,-0.608C0.103,-0.614 0.084,-0.619 0.056,-0.622C0.049,-0.623 0.046,-0.628 0.046,-0.639C0.046,-0.643 0.047,-0.648 0.048,-0.655C0.068,-0.654 0.089,-0.653 0.11,-0.652C0.131,-0.651 0.152,-0.65 0.171,-0.65L0.306,-0.65C0.378,-0.65 0.432,-0.634 0.469,-0.603C0.506,-0.571 0.524,-0.528 0.524,-0.474C0.524,-0.459 0.522,-0.444 0.517,-0.428C0.511,-0.412 0.504,-0.396 0.494,-0.381C0.483,-0.366 0.47,-0.352 0.454,-0.339C0.437,-0.326 0.418,-0.315 0.396,-0.307L0.563,-0.075C0.576,-0.058 0.59,-0.046 0.605,-0.039C0.62,-0.032 0.635,-0.027 0.648,-0.024C0.654,-0.023 0.657,-0.018 0.657,-0.01C0.657,-0.005 0.656,0.001 0.655,0.008C0.64,0.007 0.621,0.006 0.599,0.005C0.577,0.004 0.557,0.003 0.538,0.003C0.524,0.003 0.51,-0.003 0.496,-0.015C0.481,-0.027 0.468,-0.042 0.455,-0.061L0.295,-0.292ZM0.274,-0.333C0.321,-0.333 0.357,-0.343 0.382,-0.363C0.407,-0.382 0.42,-0.417 0.42,-0.466C0.42,-0.487 0.417,-0.506 0.412,-0.523C0.407,-0.54 0.398,-0.555 0.387,-0.568C0.375,-0.581 0.36,-0.591 0.341,-0.598C0.322,-0.605 0.298,-0.609 0.271,-0.609L0.221,-0.609L0.221,-0.333L0.274,-0.333Z" style="fill-rule:nonzero;"/>
    </g>
    <g transform="matrix(10,0,0,10,133.979,74.5727)">
        <path d="M0.216,-0.323L0.216,-0.07C0.216,-0.057 0.22,-0.047 0.229,-0.042C0.237,-0.037 0.252,-0.032 0.275,-0.027C0.278,-0.026 0.281,-0.025 0.283,-0.023C0.285,-0.021 0.286,-0.017 0.286,-0.012C0.286,-0.007 0.285,-0.002 0.284,0.005C0.263,0.004 0.242,0.003 0.223,0.002C0.204,0.001 0.186,0 0.169,0C0.152,0 0.132,0.001 0.111,0.002C0.089,0.003 0.068,0.004 0.048,0.005C0.047,-0.002 0.046,-0.007 0.046,-0.011C0.046,-0.02 0.049,-0.026 0.056,-0.027C0.081,-0.032 0.099,-0.038 0.108,-0.043C0.117,-0.048 0.122,-0.057 0.122,-0.07L0.122,-0.579C0.122,-0.592 0.117,-0.602 0.108,-0.608C0.099,-0.613 0.081,-0.618 0.056,-0.622C0.049,-0.623 0.046,-0.628 0.046,-0.639C0.046,-0.643 0.047,-0.648 0.048,-0.655C0.067,-0.654 0.088,-0.653 0.11,-0.652C0.132,-0.651 0.151,-0.65 0.168,-0.65C0.185,-0.65 0.205,-0.651 0.226,-0.652C0.247,-0.653 0.269,-0.654 0.29,-0.655C0.291,-0.648 0.292,-0.643 0.292,-0.639C0.292,-0.629 0.289,-0.623 0.282,-0.622C0.257,-0.618 0.239,-0.613 0.23,-0.608C0.221,-0.602 0.216,-0.592 0.216,-0.579L0.216,-0.337L0.448,-0.567C0.452,-0.571 0.456,-0.576 0.459,-0.581C0.462,-0.586 0.463,-0.591 0.463,-0.596C0.463,-0.603 0.459,-0.609 0.452,-0.613C0.444,-0.616 0.434,-0.619 0.421,-0.621C0.414,-0.622 0.411,-0.628 0.411,-0.639C0.411,-0.643 0.412,-0.648 0.413,-0.655C0.432,-0.654 0.452,-0.653 0.471,-0.652C0.49,-0.651 0.508,-0.65 0.524,-0.65C0.539,-0.65 0.554,-0.651 0.571,-0.652C0.587,-0.653 0.602,-0.654 0.615,-0.655C0.616,-0.648 0.617,-0.643 0.617,-0.639C0.617,-0.628 0.613,-0.622 0.606,-0.62C0.591,-0.617 0.578,-0.613 0.565,-0.608C0.552,-0.603 0.54,-0.594 0.528,-0.583L0.303,-0.361L0.576,-0.067C0.587,-0.055 0.599,-0.046 0.61,-0.041C0.621,-0.036 0.635,-0.032 0.651,-0.029C0.659,-0.028 0.663,-0.023 0.663,-0.012C0.663,-0.007 0.662,-0.002 0.661,0.005C0.64,0.004 0.618,0.003 0.593,0.002C0.568,0.001 0.547,0 0.529,0C0.51,0 0.491,0.001 0.47,0.002C0.449,0.003 0.428,0.004 0.405,0.005C0.404,-0.002 0.403,-0.007 0.403,-0.011C0.403,-0.021 0.407,-0.026 0.414,-0.027C0.444,-0.029 0.459,-0.038 0.459,-0.053C0.459,-0.06 0.456,-0.066 0.449,-0.073L0.216,-0.323Z" style="fill-rule:nonzero;"/>
    </g>
    <g transform="matrix(10,0,0,10,146.419,74.5727)">
        <path d="M0.473,-0.493C0.466,-0.492 0.461,-0.491 0.458,-0.491C0.449,-0.491 0.443,-0.493 0.439,-0.496C0.435,-0.499 0.432,-0.503 0.43,-0.507C0.413,-0.545 0.392,-0.573 0.368,-0.59C0.344,-0.607 0.311,-0.616 0.27,-0.616C0.254,-0.616 0.239,-0.614 0.225,-0.61C0.21,-0.605 0.198,-0.599 0.187,-0.591C0.176,-0.582 0.168,-0.572 0.162,-0.56C0.155,-0.548 0.152,-0.535 0.152,-0.52C0.152,-0.489 0.165,-0.463 0.192,-0.443C0.218,-0.423 0.257,-0.403 0.308,-0.382C0.372,-0.357 0.419,-0.329 0.45,-0.298C0.48,-0.267 0.495,-0.228 0.495,-0.183C0.495,-0.156 0.491,-0.13 0.483,-0.107C0.474,-0.083 0.461,-0.062 0.444,-0.045C0.426,-0.027 0.403,-0.013 0.375,-0.003C0.347,0.007 0.313,0.012 0.274,0.012C0.233,0.012 0.195,0.008 0.162,-0.001C0.128,-0.01 0.099,-0.021 0.076,-0.035C0.074,-0.063 0.071,-0.09 0.067,-0.116C0.063,-0.142 0.058,-0.168 0.053,-0.194C0.058,-0.196 0.063,-0.197 0.07,-0.197C0.078,-0.197 0.084,-0.195 0.089,-0.192C0.093,-0.188 0.097,-0.182 0.1,-0.174C0.117,-0.126 0.138,-0.091 0.165,-0.068C0.191,-0.045 0.228,-0.034 0.275,-0.034C0.296,-0.034 0.315,-0.037 0.331,-0.043C0.347,-0.049 0.36,-0.057 0.371,-0.068C0.382,-0.079 0.39,-0.091 0.395,-0.104C0.4,-0.117 0.403,-0.132 0.403,-0.147C0.403,-0.182 0.391,-0.209 0.368,-0.229C0.344,-0.249 0.31,-0.267 0.266,-0.283C0.237,-0.294 0.211,-0.305 0.188,-0.317C0.165,-0.328 0.145,-0.342 0.128,-0.357C0.111,-0.372 0.098,-0.39 0.09,-0.411C0.081,-0.431 0.076,-0.455 0.076,-0.483C0.076,-0.508 0.081,-0.531 0.09,-0.553C0.098,-0.574 0.112,-0.593 0.129,-0.609C0.146,-0.625 0.166,-0.638 0.19,-0.647C0.214,-0.656 0.241,-0.661 0.271,-0.661C0.302,-0.661 0.332,-0.658 0.361,-0.652C0.39,-0.646 0.422,-0.636 0.458,-0.622C0.459,-0.602 0.461,-0.58 0.464,-0.558C0.466,-0.535 0.469,-0.513 0.473,-0.493Z" style="fill-rule:nonzero;"/>
    </g>
    <g transform="matrix(10,0,0,10,157.939,74.5727)">
        <path d="M0.625,-0.07C0.625,-0.057 0.629,-0.048 0.638,-0.043C0.647,-0.038 0.664,-0.032 0.69,-0.027C0.697,-0.026 0.7,-0.021 0.7,-0.013C0.7,-0.008 0.699,-0.002 0.698,0.005C0.681,0.004 0.662,0.003 0.639,0.002C0.616,0.001 0.596,0 0.578,0C0.559,0 0.54,0.001 0.519,0.002C0.498,0.003 0.477,0.004 0.457,0.005C0.456,-0.002 0.455,-0.008 0.455,-0.013C0.455,-0.021 0.458,-0.026 0.465,-0.027C0.49,-0.032 0.507,-0.037 0.516,-0.042C0.525,-0.047 0.53,-0.057 0.53,-0.07L0.53,-0.312L0.216,-0.312L0.216,-0.07C0.216,-0.057 0.22,-0.048 0.229,-0.043C0.238,-0.038 0.255,-0.032 0.281,-0.027C0.288,-0.026 0.292,-0.021 0.292,-0.013C0.292,-0.008 0.291,-0.002 0.29,0.005C0.273,0.004 0.253,0.003 0.23,0.002C0.207,0.001 0.187,0 0.169,0C0.15,0 0.131,0.001 0.11,0.002C0.089,0.003 0.069,0.004 0.048,0.005C0.047,-0.002 0.046,-0.008 0.046,-0.013C0.046,-0.021 0.049,-0.026 0.056,-0.027C0.081,-0.032 0.099,-0.037 0.108,-0.042C0.117,-0.047 0.122,-0.057 0.122,-0.07L0.122,-0.578C0.122,-0.585 0.121,-0.59 0.12,-0.595C0.118,-0.599 0.115,-0.603 0.11,-0.606C0.105,-0.609 0.099,-0.612 0.091,-0.615C0.082,-0.617 0.071,-0.619 0.058,-0.622C0.051,-0.623 0.048,-0.628 0.048,-0.638C0.048,-0.643 0.049,-0.648 0.05,-0.655C0.067,-0.654 0.086,-0.653 0.108,-0.652C0.13,-0.651 0.15,-0.65 0.168,-0.65C0.187,-0.65 0.206,-0.651 0.227,-0.652C0.248,-0.653 0.268,-0.654 0.288,-0.655C0.289,-0.648 0.29,-0.643 0.29,-0.638C0.29,-0.629 0.287,-0.623 0.28,-0.622C0.254,-0.618 0.237,-0.613 0.229,-0.607C0.22,-0.601 0.216,-0.591 0.216,-0.578L0.216,-0.354L0.53,-0.354L0.53,-0.578C0.53,-0.589 0.526,-0.599 0.518,-0.606C0.51,-0.612 0.493,-0.618 0.467,-0.622C0.46,-0.623 0.456,-0.628 0.456,-0.638C0.456,-0.643 0.457,-0.648 0.458,-0.655C0.475,-0.654 0.494,-0.653 0.517,-0.652C0.539,-0.651 0.559,-0.65 0.577,-0.65C0.596,-0.65 0.615,-0.651 0.636,-0.652C0.656,-0.653 0.676,-0.654 0.697,-0.655C0.698,-0.648 0.699,-0.643 0.699,-0.638C0.699,-0.629 0.696,-0.623 0.689,-0.622C0.663,-0.618 0.646,-0.613 0.638,-0.607C0.629,-0.601 0.625,-0.591 0.625,-0.578L0.625,-0.07Z" style="fill-rule:nonzero;"/>
    </g>
    <g transform="matrix(10,0,0,10,171.409,74.5727)">
        <path d="M0.216,-0.07C0.216,-0.057 0.221,-0.048 0.23,-0.043C0.239,-0.038 0.257,-0.032 0.282,-0.027C0.289,-0.026 0.292,-0.02 0.292,-0.011C0.292,-0.007 0.291,-0.002 0.29,0.005C0.269,0.004 0.249,0.003 0.228,0.002C0.207,0.001 0.188,0 0.169,0C0.151,0 0.131,0.001 0.11,0.002C0.088,0.003 0.067,0.004 0.048,0.005C0.047,-0.002 0.046,-0.007 0.046,-0.011C0.046,-0.02 0.049,-0.026 0.056,-0.027C0.081,-0.032 0.099,-0.037 0.108,-0.042C0.117,-0.047 0.122,-0.057 0.122,-0.07L0.122,-0.579C0.122,-0.592 0.117,-0.602 0.108,-0.608C0.099,-0.613 0.081,-0.618 0.056,-0.622C0.052,-0.623 0.049,-0.625 0.048,-0.628C0.047,-0.631 0.046,-0.635 0.046,-0.639C0.046,-0.643 0.047,-0.648 0.048,-0.655C0.068,-0.654 0.089,-0.653 0.111,-0.652C0.132,-0.651 0.152,-0.65 0.169,-0.65C0.186,-0.65 0.205,-0.651 0.227,-0.652C0.248,-0.653 0.269,-0.654 0.29,-0.655C0.291,-0.648 0.292,-0.643 0.292,-0.639C0.292,-0.629 0.289,-0.623 0.282,-0.622C0.257,-0.618 0.239,-0.613 0.23,-0.608C0.221,-0.602 0.216,-0.592 0.216,-0.579L0.216,-0.07Z" style="fill-rule:nonzero;"/>
    </g>
    <g transform="matrix(10,0,0,10,180.799,74.5727)">
        <path d="M0.295,-0.292L0.221,-0.292L0.221,-0.072C0.221,-0.057 0.228,-0.047 0.242,-0.042C0.255,-0.037 0.276,-0.032 0.304,-0.029C0.312,-0.028 0.316,-0.022 0.316,-0.012C0.316,-0.007 0.315,-0.002 0.314,0.005C0.296,0.004 0.274,0.003 0.249,0.002C0.223,0.001 0.198,0 0.173,0C0.156,0 0.136,0.001 0.113,0.002C0.09,0.003 0.069,0.004 0.049,0.005C0.048,-0.002 0.047,-0.007 0.047,-0.011C0.047,-0.02 0.051,-0.026 0.058,-0.027C0.083,-0.031 0.101,-0.036 0.112,-0.042C0.122,-0.047 0.127,-0.057 0.127,-0.07L0.127,-0.579C0.127,-0.592 0.122,-0.601 0.113,-0.608C0.103,-0.614 0.084,-0.619 0.056,-0.622C0.049,-0.623 0.046,-0.628 0.046,-0.639C0.046,-0.643 0.047,-0.648 0.048,-0.655C0.068,-0.654 0.089,-0.653 0.11,-0.652C0.131,-0.651 0.152,-0.65 0.171,-0.65L0.306,-0.65C0.378,-0.65 0.432,-0.634 0.469,-0.603C0.506,-0.571 0.524,-0.528 0.524,-0.474C0.524,-0.459 0.522,-0.444 0.517,-0.428C0.511,-0.412 0.504,-0.396 0.494,-0.381C0.483,-0.366 0.47,-0.352 0.454,-0.339C0.437,-0.326 0.418,-0.315 0.396,-0.307L0.563,-0.075C0.576,-0.058 0.59,-0.046 0.605,-0.039C0.62,-0.032 0.635,-0.027 0.648,-0.024C0.654,-0.023 0.657,-0.018 0.657,-0.01C0.657,-0.005 0.656,0.001 0.655,0.008C0.64,0.007 0.621,0.006 0.599,0.005C0.577,0.004 0.557,0.003 0.538,0.003C0.524,0.003 0.51,-0.003 0.496,-0.015C0.481,-0.027 0.468,-0.042 0.455,-0.061L0.295,-0.292ZM0.274,-0.333C0.321,-0.333 0.357,-0.343 0.382,-0.363C0.407,-0.382 0.42,-0.417 0.42,-0.466C0.42,-0.487 0.417,-0.506 0.412,-0.523C0.407,-0.54 0.398,-0.555 0.387,-0.568C0.375,-0.581 0.36,-0.591 0.341,-0.598C0.322,-0.605 0.298,-0.609 0.271,-0.609L0.221,-0.609L0.221,-0.333L0.274,-0.333Z" style="fill-rule:nonzero;"/>
    </g>
    <g transform="matrix(10,0,0,10,193.289,74.5727)">
        <path d="M0.221,-0.609L0.221,-0.353L0.377,-0.353C0.39,-0.353 0.4,-0.36 0.406,-0.373C0.411,-0.386 0.416,-0.401 0.419,-0.42C0.421,-0.429 0.427,-0.433 0.437,-0.433C0.439,-0.433 0.442,-0.433 0.445,-0.432C0.448,-0.431 0.451,-0.431 0.453,-0.43C0.452,-0.415 0.451,-0.399 0.45,-0.38C0.448,-0.361 0.448,-0.345 0.448,-0.331C0.448,-0.32 0.448,-0.306 0.449,-0.29C0.45,-0.273 0.451,-0.255 0.453,-0.234C0.448,-0.233 0.443,-0.232 0.438,-0.232C0.427,-0.232 0.421,-0.236 0.419,-0.245C0.416,-0.264 0.411,-0.28 0.406,-0.293C0.4,-0.306 0.39,-0.312 0.377,-0.312L0.221,-0.312L0.221,-0.076C0.221,-0.062 0.23,-0.053 0.248,-0.048C0.266,-0.043 0.296,-0.041 0.337,-0.041L0.392,-0.041C0.411,-0.041 0.428,-0.044 0.443,-0.05C0.457,-0.055 0.47,-0.063 0.481,-0.073C0.492,-0.082 0.501,-0.094 0.51,-0.107C0.519,-0.12 0.527,-0.135 0.535,-0.151C0.537,-0.156 0.542,-0.158 0.55,-0.158C0.553,-0.158 0.557,-0.157 0.561,-0.155C0.564,-0.153 0.568,-0.151 0.571,-0.149C0.565,-0.136 0.56,-0.121 0.556,-0.104C0.551,-0.086 0.547,-0.069 0.543,-0.053C0.539,-0.037 0.535,-0.023 0.531,-0.012C0.526,-0.001 0.521,0.005 0.514,0.005C0.509,0.005 0.501,0.005 0.491,0.004C0.481,0.003 0.47,0.003 0.459,0.003C0.447,0.002 0.435,0.002 0.423,0.001C0.411,0 0.401,0 0.392,0L0.173,0C0.154,0 0.133,0.001 0.111,0.002C0.089,0.003 0.068,0.004 0.048,0.005C0.047,-0.002 0.046,-0.007 0.046,-0.011C0.046,-0.02 0.049,-0.026 0.056,-0.027C0.081,-0.032 0.099,-0.037 0.111,-0.042C0.122,-0.047 0.127,-0.057 0.127,-0.07L0.127,-0.579C0.127,-0.592 0.122,-0.602 0.113,-0.607C0.103,-0.612 0.084,-0.617 0.056,-0.622C0.049,-0.623 0.046,-0.629 0.046,-0.639C0.046,-0.642 0.046,-0.645 0.047,-0.648C0.047,-0.65 0.047,-0.652 0.048,-0.655C0.077,-0.653 0.101,-0.652 0.12,-0.651C0.139,-0.65 0.157,-0.65 0.172,-0.65L0.369,-0.65C0.399,-0.65 0.425,-0.651 0.447,-0.653C0.469,-0.655 0.484,-0.656 0.491,-0.656C0.5,-0.656 0.506,-0.651 0.509,-0.64C0.511,-0.628 0.514,-0.615 0.516,-0.6C0.518,-0.585 0.52,-0.568 0.523,-0.551C0.526,-0.534 0.531,-0.519 0.538,-0.507C0.533,-0.503 0.527,-0.501 0.52,-0.501C0.511,-0.501 0.506,-0.504 0.503,-0.51C0.495,-0.527 0.487,-0.542 0.48,-0.555C0.473,-0.567 0.464,-0.577 0.455,-0.585C0.445,-0.593 0.433,-0.599 0.42,-0.603C0.406,-0.607 0.389,-0.609 0.369,-0.609L0.221,-0.609Z" style="fill-rule:nonzero;"/>
    </g>
    <g transform="matrix(10,0,0,10,213.439,74.5727)">
        <path d="M0.379,0.012C0.323,0.012 0.274,0.003 0.232,-0.014C0.19,-0.031 0.155,-0.055 0.128,-0.086C0.1,-0.116 0.079,-0.152 0.066,-0.193C0.052,-0.234 0.045,-0.278 0.045,-0.325C0.045,-0.364 0.052,-0.404 0.066,-0.444C0.079,-0.484 0.1,-0.52 0.128,-0.553C0.155,-0.585 0.19,-0.611 0.232,-0.632C0.274,-0.652 0.323,-0.662 0.379,-0.662C0.401,-0.662 0.421,-0.662 0.44,-0.661C0.458,-0.66 0.475,-0.658 0.492,-0.656C0.509,-0.653 0.525,-0.65 0.541,-0.647C0.557,-0.643 0.574,-0.639 0.591,-0.634C0.592,-0.616 0.594,-0.594 0.598,-0.568C0.602,-0.542 0.607,-0.516 0.614,-0.489C0.609,-0.486 0.603,-0.485 0.598,-0.485C0.593,-0.485 0.588,-0.486 0.584,-0.487C0.579,-0.488 0.576,-0.492 0.575,-0.498C0.563,-0.542 0.544,-0.573 0.518,-0.592C0.492,-0.611 0.454,-0.62 0.405,-0.62C0.364,-0.62 0.327,-0.613 0.296,-0.6C0.264,-0.587 0.237,-0.568 0.216,-0.544C0.194,-0.52 0.178,-0.491 0.167,-0.458C0.156,-0.424 0.15,-0.386 0.15,-0.345C0.15,-0.299 0.157,-0.257 0.171,-0.218C0.185,-0.179 0.204,-0.146 0.228,-0.118C0.251,-0.09 0.279,-0.068 0.311,-0.053C0.342,-0.038 0.376,-0.03 0.412,-0.03C0.441,-0.03 0.465,-0.033 0.485,-0.039C0.504,-0.044 0.521,-0.052 0.534,-0.063C0.547,-0.074 0.558,-0.087 0.567,-0.103C0.576,-0.118 0.584,-0.136 0.592,-0.156C0.597,-0.166 0.605,-0.171 0.616,-0.171C0.619,-0.171 0.623,-0.171 0.627,-0.17C0.63,-0.169 0.633,-0.167 0.635,-0.166C0.627,-0.143 0.619,-0.117 0.611,-0.089C0.603,-0.061 0.596,-0.033 0.591,-0.005C0.558,0 0.525,0.005 0.491,0.008C0.457,0.011 0.42,0.012 0.379,0.012Z" style="fill-rule:nonzero;"/>
    </g>
    <g transform="matrix(10,0,0,10,225.979,74.5727)">
        <path d="M0.045,-0.325C0.045,-0.371 0.053,-0.414 0.07,-0.455C0.087,-0.496 0.109,-0.531 0.138,-0.562C0.167,-0.593 0.2,-0.617 0.238,-0.635C0.276,-0.653 0.316,-0.662 0.358,-0.662C0.416,-0.662 0.467,-0.653 0.51,-0.635C0.553,-0.616 0.589,-0.592 0.618,-0.561C0.646,-0.53 0.667,-0.494 0.681,-0.453C0.695,-0.412 0.702,-0.37 0.702,-0.325C0.702,-0.272 0.693,-0.225 0.676,-0.184C0.659,-0.142 0.635,-0.107 0.605,-0.078C0.574,-0.049 0.539,-0.026 0.498,-0.011C0.456,0.004 0.413,0.012 0.366,0.012C0.319,0.012 0.275,0.004 0.236,-0.012C0.197,-0.028 0.163,-0.051 0.135,-0.081C0.106,-0.11 0.084,-0.146 0.069,-0.187C0.053,-0.228 0.045,-0.274 0.045,-0.325ZM0.389,-0.036C0.42,-0.036 0.449,-0.042 0.475,-0.054C0.501,-0.066 0.523,-0.083 0.542,-0.104C0.561,-0.125 0.575,-0.151 0.586,-0.18C0.596,-0.209 0.601,-0.241 0.601,-0.276C0.601,-0.324 0.596,-0.369 0.586,-0.41C0.576,-0.451 0.561,-0.486 0.541,-0.517C0.52,-0.547 0.495,-0.571 0.464,-0.588C0.432,-0.605 0.396,-0.614 0.355,-0.614C0.328,-0.614 0.302,-0.609 0.277,-0.599C0.252,-0.588 0.23,-0.573 0.211,-0.554C0.192,-0.534 0.176,-0.51 0.165,-0.481C0.154,-0.452 0.148,-0.419 0.148,-0.382C0.148,-0.333 0.153,-0.287 0.164,-0.245C0.175,-0.202 0.19,-0.166 0.211,-0.135C0.231,-0.103 0.256,-0.079 0.286,-0.062C0.316,-0.045 0.35,-0.036 0.389,-0.036Z" style="fill-rule:nonzero;"/>
    </g>
    <g transform="matrix(10,0,0,10,239.219,74.5727)">
        <path d="M0.649,-0.243C0.649,-0.205 0.645,-0.171 0.636,-0.14C0.627,-0.109 0.613,-0.082 0.593,-0.059C0.572,-0.036 0.545,-0.019 0.512,-0.007C0.479,0.006 0.437,0.012 0.387,0.012C0.33,0.012 0.283,0.005 0.248,-0.01C0.213,-0.024 0.186,-0.043 0.167,-0.066C0.148,-0.089 0.135,-0.116 0.129,-0.147C0.122,-0.177 0.119,-0.208 0.119,-0.239L0.119,-0.579C0.119,-0.592 0.114,-0.602 0.105,-0.608C0.096,-0.614 0.078,-0.619 0.052,-0.622C0.045,-0.623 0.042,-0.628 0.042,-0.639C0.042,-0.643 0.043,-0.648 0.044,-0.655C0.064,-0.654 0.085,-0.653 0.106,-0.652C0.127,-0.651 0.147,-0.65 0.166,-0.65C0.183,-0.65 0.204,-0.651 0.227,-0.652C0.25,-0.653 0.272,-0.654 0.292,-0.655C0.293,-0.648 0.294,-0.643 0.294,-0.639C0.294,-0.628 0.291,-0.623 0.284,-0.622C0.259,-0.619 0.241,-0.614 0.23,-0.608C0.219,-0.602 0.213,-0.592 0.213,-0.579L0.213,-0.261C0.213,-0.192 0.227,-0.138 0.255,-0.102C0.282,-0.065 0.329,-0.046 0.395,-0.046C0.432,-0.046 0.464,-0.05 0.49,-0.059C0.516,-0.067 0.537,-0.08 0.554,-0.097C0.571,-0.114 0.583,-0.137 0.59,-0.165C0.597,-0.192 0.601,-0.225 0.601,-0.264L0.601,-0.579C0.601,-0.592 0.596,-0.602 0.586,-0.608C0.576,-0.614 0.558,-0.619 0.532,-0.622C0.525,-0.623 0.521,-0.628 0.521,-0.639C0.521,-0.643 0.522,-0.648 0.523,-0.655C0.542,-0.654 0.561,-0.653 0.58,-0.652C0.598,-0.651 0.614,-0.65 0.627,-0.65C0.643,-0.65 0.659,-0.651 0.676,-0.652C0.692,-0.653 0.708,-0.654 0.724,-0.655C0.725,-0.648 0.726,-0.643 0.726,-0.639C0.726,-0.636 0.725,-0.632 0.723,-0.629C0.721,-0.625 0.718,-0.623 0.715,-0.622C0.69,-0.619 0.673,-0.615 0.664,-0.609C0.654,-0.602 0.649,-0.592 0.649,-0.579L0.649,-0.243Z" style="fill-rule:nonzero;"/>
    </g>
    <g transform="matrix(10,0,0,10,252.829,74.5727)">
        <path d="M0.563,-0.159L0.563,-0.577C0.563,-0.592 0.558,-0.602 0.547,-0.608C0.536,-0.614 0.518,-0.619 0.493,-0.622C0.486,-0.623 0.482,-0.628 0.482,-0.639C0.482,-0.643 0.483,-0.648 0.484,-0.655C0.501,-0.654 0.518,-0.653 0.535,-0.652C0.552,-0.651 0.569,-0.65 0.584,-0.65C0.599,-0.65 0.614,-0.651 0.63,-0.652C0.646,-0.653 0.662,-0.654 0.677,-0.655C0.678,-0.648 0.679,-0.643 0.679,-0.639C0.679,-0.628 0.676,-0.623 0.669,-0.622C0.646,-0.619 0.631,-0.614 0.623,-0.608C0.614,-0.602 0.61,-0.592 0.61,-0.579L0.61,0.01C0.609,0.011 0.606,0.011 0.603,0.012C0.6,0.012 0.597,0.012 0.595,0.012C0.59,0.012 0.586,0.011 0.582,0.009C0.578,0.006 0.573,0.001 0.568,-0.006L0.162,-0.541L0.162,-0.07C0.162,-0.057 0.167,-0.047 0.176,-0.042C0.185,-0.037 0.203,-0.032 0.23,-0.027C0.237,-0.026 0.24,-0.02 0.24,-0.011C0.24,-0.007 0.239,-0.002 0.238,0.005C0.221,0.004 0.204,0.003 0.188,0.002C0.171,0.001 0.155,0 0.14,0C0.127,0 0.111,0.001 0.093,0.002C0.075,0.003 0.059,0.004 0.044,0.005C0.043,-0.002 0.042,-0.007 0.042,-0.011C0.042,-0.02 0.046,-0.026 0.053,-0.027C0.077,-0.032 0.093,-0.037 0.102,-0.042C0.11,-0.047 0.114,-0.057 0.114,-0.07L0.114,-0.584C0.114,-0.595 0.11,-0.603 0.103,-0.609C0.095,-0.614 0.079,-0.619 0.055,-0.622C0.048,-0.623 0.044,-0.629 0.044,-0.639L0.046,-0.655C0.059,-0.654 0.072,-0.653 0.084,-0.652C0.095,-0.651 0.106,-0.651 0.118,-0.651C0.13,-0.65 0.141,-0.65 0.15,-0.65C0.169,-0.65 0.182,-0.649 0.189,-0.648C0.195,-0.647 0.2,-0.643 0.204,-0.638L0.563,-0.159Z" style="fill-rule:nonzero;"/>
    </g>
    <g transform="matrix(10,0,0,10,265.939,74.5727)">
        <path d="M0.379,0.012C0.323,0.012 0.274,0.003 0.232,-0.014C0.19,-0.031 0.155,-0.055 0.128,-0.086C0.1,-0.116 0.079,-0.152 0.066,-0.193C0.052,-0.234 0.045,-0.278 0.045,-0.325C0.045,-0.364 0.052,-0.404 0.066,-0.444C0.079,-0.484 0.1,-0.52 0.128,-0.553C0.155,-0.585 0.19,-0.611 0.232,-0.632C0.274,-0.652 0.323,-0.662 0.379,-0.662C0.401,-0.662 0.421,-0.662 0.44,-0.661C0.458,-0.66 0.475,-0.658 0.492,-0.656C0.509,-0.653 0.525,-0.65 0.541,-0.647C0.557,-0.643 0.574,-0.639 0.591,-0.634C0.592,-0.616 0.594,-0.594 0.598,-0.568C0.602,-0.542 0.607,-0.516 0.614,-0.489C0.609,-0.486 0.603,-0.485 0.598,-0.485C0.593,-0.485 0.588,-0.486 0.584,-0.487C0.579,-0.488 0.576,-0.492 0.575,-0.498C0.563,-0.542 0.544,-0.573 0.518,-0.592C0.492,-0.611 0.454,-0.62 0.405,-0.62C0.364,-0.62 0.327,-0.613 0.296,-0.6C0.264,-0.587 0.237,-0.568 0.216,-0.544C0.194,-0.52 0.178,-0.491 0.167,-0.458C0.156,-0.424 0.15,-0.386 0.15,-0.345C0.15,-0.299 0.157,-0.257 0.171,-0.218C0.185,-0.179 0.204,-0.146 0.228,-0.118C0.251,-0.09 0.279,-0.068 0.311,-0.053C0.342,-0.038 0.376,-0.03 0.412,-0.03C0.441,-0.03 0.465,-0.033 0.485,-0.039C0.504,-0.044 0.521,-0.052 0.534,-0.063C0.547,-0.074 0.558,-0.087 0.567,-0.103C0.576,-0.118 0.584,-0.136 0.592,-0.156C0.597,-0.166 0.605,-0.171 0.616,-0.171C0.619,-0.171 0.623,-0.171 0.627,-0.17C0.63,-0.169 0.633,-0.167 0.635,-0.166C0.627,-0.143 0.619,-0.117 0.611,-0.089C0.603,-0.061 0.596,-0.033 0.591,-0.005C0.558,0 0.525,0.005 0.491,0.008C0.457,0.011 0.42,0.012 0.379,0.012Z" style="fill-rule:nonzero;"/>
    </g>
    <g transform="matrix(10,0,0,10,278.629,74.5727)">
        <path d="M0.216,-0.07C0.216,-0.057 0.221,-0.048 0.23,-0.043C0.239,-0.038 0.257,-0.032 0.282,-0.027C0.289,-0.026 0.292,-0.02 0.292,-0.011C0.292,-0.007 0.291,-0.002 0.29,0.005C0.269,0.004 0.249,0.003 0.228,0.002C0.207,0.001 0.188,0 0.169,0C0.151,0 0.131,0.001 0.11,0.002C0.088,0.003 0.067,0.004 0.048,0.005C0.047,-0.002 0.046,-0.007 0.046,-0.011C0.046,-0.02 0.049,-0.026 0.056,-0.027C0.081,-0.032 0.099,-0.037 0.108,-0.042C0.117,-0.047 0.122,-0.057 0.122,-0.07L0.122,-0.579C0.122,-0.592 0.117,-0.602 0.108,-0.608C0.099,-0.613 0.081,-0.618 0.056,-0.622C0.052,-0.623 0.049,-0.625 0.048,-0.628C0.047,-0.631 0.046,-0.635 0.046,-0.639C0.046,-0.643 0.047,-0.648 0.048,-0.655C0.068,-0.654 0.089,-0.653 0.111,-0.652C0.132,-0.651 0.152,-0.65 0.169,-0.65C0.186,-0.65 0.205,-0.651 0.227,-0.652C0.248,-0.653 0.269,-0.654 0.29,-0.655C0.291,-0.648 0.292,-0.643 0.292,-0.639C0.292,-0.629 0.289,-0.623 0.282,-0.622C0.257,-0.618 0.239,-0.613 0.23,-0.608C0.221,-0.602 0.216,-0.592 0.216,-0.579L0.216,-0.07Z" style="fill-rule:nonzero;"/>
    </g>
    <g transform="matrix(10,0,0,10,288.019,74.5727)">
        <path d="M0.221,-0.072C0.221,-0.061 0.226,-0.053 0.236,-0.048C0.246,-0.043 0.26,-0.041 0.277,-0.041L0.386,-0.041C0.405,-0.041 0.422,-0.044 0.436,-0.049C0.45,-0.054 0.462,-0.061 0.472,-0.07C0.482,-0.079 0.491,-0.091 0.499,-0.105C0.506,-0.118 0.513,-0.134 0.519,-0.151C0.521,-0.156 0.525,-0.159 0.531,-0.159C0.534,-0.159 0.538,-0.158 0.542,-0.157C0.545,-0.155 0.549,-0.153 0.553,-0.151C0.548,-0.131 0.544,-0.11 0.54,-0.088C0.535,-0.065 0.531,-0.04 0.528,-0.012C0.527,-0.005 0.525,0 0.522,0.002C0.519,0.004 0.515,0.005 0.51,0.005C0.499,0.005 0.485,0.004 0.468,0.003C0.451,0.001 0.436,0 0.423,0L0.173,0C0.158,0 0.138,0.001 0.115,0.002C0.092,0.003 0.069,0.004 0.048,0.005C0.047,-0.002 0.046,-0.007 0.046,-0.011C0.046,-0.02 0.049,-0.026 0.056,-0.027C0.083,-0.032 0.102,-0.037 0.112,-0.043C0.122,-0.048 0.127,-0.057 0.127,-0.069L0.127,-0.579C0.127,-0.592 0.122,-0.602 0.113,-0.608C0.104,-0.613 0.086,-0.618 0.059,-0.622C0.056,-0.623 0.053,-0.624 0.052,-0.628C0.05,-0.631 0.049,-0.634 0.049,-0.638C0.049,-0.643 0.05,-0.648 0.051,-0.655C0.074,-0.654 0.096,-0.653 0.118,-0.652C0.14,-0.651 0.159,-0.65 0.174,-0.65C0.197,-0.65 0.221,-0.651 0.246,-0.652C0.271,-0.653 0.294,-0.654 0.314,-0.655C0.315,-0.648 0.316,-0.643 0.316,-0.639C0.316,-0.628 0.312,-0.622 0.305,-0.621C0.276,-0.618 0.255,-0.613 0.242,-0.607C0.228,-0.6 0.221,-0.589 0.221,-0.572L0.221,-0.072Z" style="fill-rule:nonzero;"/>
    </g>
    <path d="M62.739,59.72C92.951,52.614 123.685,48.858 155.422,51.541C223.232,57.274 251.326,58.748 296.907,53.773C297.948,53.66 298.559,54.804 296.004,55.18C263.38,59.991 222.729,63.255 180.275,58.195C130.568,52.27 104.293,54.609 66.303,61.334C61.06,62.262 60.329,60.287 62.739,59.72Z" style="fill:rgb(0,137,115);"/>
    <g>
        <path d="M25.59,22.097C26.309,21.257 27.015,20.335 27.7,19.548C28.732,18.36 29.711,18.443 30.656,19.29L33.004,21.879C33.919,22.935 33.673,23.566 36.988,22.928C39.756,22.396 52.153,28.123 53.351,34.224C53.55,35.235 53.723,36.792 54.124,37.532C54.498,38.221 59.344,38.648 59.706,39.61C60.008,40.414 58.815,42.922 58.815,42.922L57.585,45.559C57.194,46.342 57.234,47.082 57.912,47.862C59.375,49.545 57.347,63.456 51.895,66.822C50.663,67.583 49.684,67.98 49.669,69.505C49.658,70.644 49.521,71.709 49.508,72.767C49.389,74.72 48.682,75.522 47.013,75.095L43.524,74.335C42.445,74.095 41.682,74.357 41.064,75.095C39.364,77.119 25.457,80.038 21.61,75.976C19.869,74.138 18.1,74.502 16.889,75.095C11.387,77.785 11.873,73.772 11.623,70.589C11.559,69.773 11.277,69.216 10.311,68.838C4.08,66.398 1.668,51.138 3.32,48.318C4.049,47.073 4.013,45.852 3.32,44.92L1.655,42.092C1,41.019 1.155,40.116 2.233,39.61L6.013,38.263C6.772,37.923 7.198,37.185 7.065,36.283C6.471,32.258 17.691,21.308 22.069,22.928C23.82,23.576 24.683,23.156 25.59,22.097Z" style="fill:rgb(0,147,128);"/>
        <path d="M28.603,25.751L28.603,21.131L26.17,24.034L28.603,25.751Z" style="fill:white;"/>
        <path d="M30.246,25.52L30.246,21.359L32.593,23.798L30.246,25.52Z" style="fill:white;"/>
        <path d="M22.698,39.78L24.32,44.819L27.844,42.118L22.698,39.78Z" style="fill:white;"/>
        <path d="M33.505,41.966L37.105,44.621L38.212,39.363L33.505,41.966Z" style="fill:white;"/>
        <path d="M31.066,40.095C32.426,39.976 32.353,36.748 31.776,35.277C31.115,33.59 29.911,29.491 32.381,26.553C33.387,25.358 39.821,24.649 43.178,26.553C45.507,29.004 49.118,30.345 50.813,33.373C53.255,37.736 51.046,42.319 48.271,43.485C47.44,43.834 46.506,44.334 41.491,44.334C40.559,44.334 39.342,45.74 39.296,46.542C39.155,49.008 42.111,49.526 43.178,48.846C45.929,47.092 48.524,45.531 49.434,45.481C54.735,45.189 56.527,48.406 56.142,51.347C55.688,54.821 54.065,59.529 53.274,62.816C52.784,64.847 47.076,67.602 45.608,67.069C40.187,65.103 40.628,60.382 39.987,58.688C39.321,56.926 37.724,54.974 35.51,57.187C33.908,58.789 34.855,60.273 35.685,60.823C37.73,62.175 38.747,63.5 39.638,64.338C43.144,67.635 42.301,74.606 36.231,74.868C32.764,75.018 29.359,75.352 26.013,75.837C22.197,75.257 19.269,71.859 19.218,70.298C19.032,64.534 23.878,62.982 25.214,61.758C26.481,60.597 26.347,58.574 24.683,57.543C24.067,57.161 22.996,56.492 20.899,58.877C18.287,61.847 20.701,64.654 15.59,67.296C13.359,68.449 10.477,65.868 8.683,63.561C6.872,61.231 5.486,57.08 4.806,53.677C3.83,48.797 6.714,45.037 10.611,44.994C13.049,44.967 15.158,46.416 16.48,48.261C18.08,50.493 21.394,49.608 21.948,47.22C22.139,46.396 20.762,44.403 19.641,44.334C17.375,44.193 14.116,43.296 12.859,43.069C9.024,42.375 7.948,35.154 10.319,33.373C13.094,31.289 15.625,29.004 17.954,26.553C21.311,24.649 25.714,25.507 26.719,26.703C30.431,31.117 28.434,35.414 28.142,37.202C27.88,38.803 28.706,39.976 30.066,40.095L31.066,40.095ZM46.107,54.611C43.002,52.828 39.534,49.784 39.262,49.273C37.921,46.759 38.311,42.941 40.615,37.202C42.468,37.941 44.594,37.438 46.469,37.424C48.36,37.41 49.17,39.45 47.729,40.372C46.161,41.377 40.985,40.299 40.352,42.828C40.193,42.916 40.209,42.995 40.352,43.069C41.76,41.377 48.071,43.362 49.911,40.095C51.077,38.025 49.997,35.071 47.729,35.071C41.998,35.071 40.483,34.151 39.262,30.803C38.067,27.528 37.21,26.535 35.51,26.553C32.816,26.582 31.853,28.244 31.96,31.345C32.009,32.791 33.999,34.834 33.694,37.008C33.577,37.385 33.758,37.627 34.111,37.202C35.005,36.124 34.003,33.385 33.694,31.577C33.012,27.58 37.27,27.609 36.989,31.345C36.886,32.713 38.873,35.791 39.987,36.592C37.116,39.287 34.047,40.745 31.066,40.94L30.066,40.94C27.085,40.745 24.016,39.287 21.144,36.592C22.258,35.791 23.235,33.78 23.166,33.373C22.046,26.808 29.329,28.275 25.622,34.248C24.175,36.291 24.728,37.51 25.622,38.588C25.974,39.013 26.156,38.771 26.038,38.395C24.803,36.135 27.203,34.093 27.773,32.731C28.599,30.756 27.826,27.868 25.622,27.117C22.539,26.066 21.113,26.807 20.684,30.803C20.303,34.346 17.626,35.896 13.403,36.105C11.138,36.217 9.88,38.302 11.047,40.372C12.099,42.24 15.306,42.956 19.641,43.069C19.784,42.995 19.8,42.916 19.641,42.828C17.289,42.452 14.97,41.377 13.403,40.372C11.962,39.45 12.466,38.38 14.357,38.395C16.233,38.409 18.1,38.163 19.953,37.424C22.91,42.76 23.772,46.843 21.87,49.273L21.855,49.258C20.662,51.151 17.713,53.361 14.357,54.839C13.122,53.272 12.243,52.272 10.611,51.347C6.788,49.178 8.903,47.955 10.611,47.877C12.471,47.791 14.053,49.091 16.278,49.941C16.459,49.944 16.485,49.867 16.398,49.732C13.154,46.294 9.695,45.391 7.222,46.855C5.176,48.065 6.383,52.127 8.289,53.356C11.842,55.648 11.583,56.815 11.047,60.823C10.514,64.806 12.037,66.347 14.357,65.581C16.568,64.851 18.179,63.225 18.772,61.168C19.075,60.119 19.39,59.481 19.378,58.573C19.372,58.115 19.298,58.379 19.061,58.877C18.56,59.932 17.804,61.353 16.887,62.816C15.472,65.074 11.269,66 14.357,60.1C14.688,59.468 14.737,57.305 14.62,56.227C18.33,54.668 25.694,55.934 26.566,57.481C26.566,57.481 29.21,63.633 29.715,66.976C28.44,67.049 26.494,67.893 26.294,68.255C23.68,73.005 18.14,68.448 24.747,66.048C25.712,65.698 26.598,63.754 26.719,62.376C26.767,61.826 26.413,61.901 26.272,62.27C25.845,64.81 23.409,65.192 22.119,65.91C20.249,66.951 19.571,69.215 20.337,70.651C21.102,72.087 23.598,73.119 27.06,71.077C30.106,69.28 32.138,69.871 36.231,71.878C38.266,72.877 40.084,72.017 40.448,69.669C40.777,67.55 38.554,64.797 34.26,61.758C34.102,61.727 34.04,61.78 34.111,61.947C35.726,63.697 37.983,66.496 38.594,68.255C39.155,69.871 38.098,70.4 36.621,69.219C35.156,68.048 33.392,67.541 31.479,66.976C32.456,60.954 33.991,56.295 36.989,55.563C37.102,55.535 42.428,55.139 45.608,55.889C45.435,57.149 45.901,58.33 46.107,58.688C49.192,64.051 43.178,66.287 43.178,60.1C43.409,57.607 41.929,56.714 40.615,56.227C40.098,56.036 40.061,56.336 40.352,56.603C42.552,57.942 42.166,60.911 42.353,62.376C42.626,64.498 44.446,65.581 46.775,65.581C48.084,65.581 50.073,63.679 49.434,60.571C48.717,57.081 49.209,54.276 52.44,52.268C54.365,51.071 55.053,48.065 53.008,46.855C51.163,45.763 48.431,47.662 44.621,49.732C44.534,49.867 44.56,49.944 44.741,49.941C46.966,49.091 48.953,48.176 50.813,48.261C52.522,48.34 52.113,49.829 50.468,50.763C48.837,51.688 47.342,53.044 46.107,54.611Z" style="fill:white;"/>
        <path d="M53.008,42.027L57.043,40.095L53.793,39.193L53.008,42.027Z" style="fill:white;"/>
        <path d="M53.963,43.249L56.01,45.099L57.391,41.896L53.963,43.249Z" style="fill:white;"/>
        <path d="M44.995,68.652L47.889,72.417L48.073,68.652L44.995,68.652Z" style="fill:white;"/>
        <path d="M44.018,70.017L43.051,72.61L46.409,73.182L44.018,70.017Z" style="fill:white;"/>
        <path d="M17.147,70.441L18.412,72.923L14.604,73.957L17.147,70.441Z" style="fill:white;"/>
        <path d="M15.935,69.474L13.637,72.672L13.142,69.718L15.935,69.474Z" style="fill:white;"/>
        <path d="M3.388,42.011L5.362,45.247L7.509,43.472L3.388,42.011Z" style="fill:white;"/>
        <path d="M4.291,40.62L7.983,42.011L7.025,39.403L4.291,40.62Z" style="fill:white;"/>
        <path d="M23.026,50.432L24.497,54.098L19.157,54.224L23.026,50.432Z" style="fill:white;"/>
        <path d="M28.227,56.924L32.474,57.093L30.387,62.433L28.227,56.924Z" style="fill:white;"/>
        <path d="M38.565,50.577L37.071,54.159L42.744,54.159L38.565,50.577Z" style="fill:white;"/>
        <g transform="matrix(1.08242,0,0,1.05161,-5.22252,-4.36669)">
            <path d="M33.217,44.538C36.834,44.538 39.771,47.475 39.771,51.092C39.771,54.709 36.834,57.645 33.217,57.645C29.6,57.645 26.663,54.709 26.663,51.092C26.663,47.475 29.6,44.538 33.217,44.538ZM33.217,45.48C36.314,45.48 38.829,47.995 38.829,51.092C38.829,54.189 36.314,56.703 33.217,56.703C30.12,56.703 27.605,54.189 27.605,51.092C27.605,47.995 30.12,45.48 33.217,45.48Z" style="fill:white;"/>
        </g>
        <path d="M25.734,48.682L25.734,50.563C27.608,50.374 27.398,48.442 25.734,48.682Z" style="fill:white;"/>
        <path d="M29.813,44.059C29.792,45.757 31.426,45.978 31.545,44.059L29.813,44.059Z" style="fill:white;"/>
        <path d="M35.988,48.614C34.221,48.405 34.328,50.663 35.988,50.4L35.988,48.614Z" style="fill:white;"/>
        <path d="M29.89,54.555L31.706,54.555C31.579,53.034 29.929,52.749 29.89,54.555Z" style="fill:white;"/>
        <path d="M26.785,45.68C25.842,46.748 29.116,49.318 29.89,48.544C30.898,47.536 27.729,44.612 26.785,45.68Z" style="fill:white;"/>
        <g transform="matrix(-1,0,0,1,61.5834,-0.380704)">
            <path d="M26.785,45.68C25.842,46.748 29.116,49.318 29.89,48.544C30.898,47.536 27.729,44.612 26.785,45.68Z" style="fill:white;"/>
        </g>
        <g transform="matrix(-1,0,0,-1,61.6397,98.9816)">
            <path d="M26.785,45.68C25.842,46.748 29.116,49.318 29.89,48.544C30.898,47.536 27.729,44.612 26.785,45.68Z" style="fill:white;"/>
        </g>
        <g transform="matrix(1,0,0,-1,-0.0986724,99.0037)">
            <path d="M26.785,45.68C25.842,46.748 29.116,49.318 29.89,48.544C30.898,47.536 27.729,44.612 26.785,45.68Z" style="fill:white;"/>
        </g>
        <path d="M30.949,48.315C32.524,48.253 32.143,50.614 30.763,50.46C29.128,50.277 29.399,48.376 30.949,48.315Z" style="fill:white;"/>
    </g>
</svg>
