<?xml version="1.0" encoding="UTF-8" standalone="no"?>
<!-- Created with Inkscape (http://www.inkscape.org/) -->

<svg
   xmlns:dc="http://purl.org/dc/elements/1.1/"
   xmlns:cc="http://creativecommons.org/ns#"
   xmlns:rdf="http://www.w3.org/1999/02/22-rdf-syntax-ns#"
   xmlns:svg="http://www.w3.org/2000/svg"
   xmlns="http://www.w3.org/2000/svg"
   xmlns:sodipodi="http://sodipodi.sourceforge.net/DTD/sodipodi-0.dtd"
   xmlns:inkscape="http://www.inkscape.org/namespaces/inkscape"
   width="101.02789mm"
   height="40.357697mm"
   viewBox="0 0 101.02789 40.357697"
   version="1.1"
   id="svg8"
   inkscape:version="0.92.5 (0.92.5+69)"
   sodipodi:docname="eforce.svg">
  <defs
     id="defs2" />
  <sodipodi:namedview
     id="base"
     pagecolor="#ffffff"
     bordercolor="#666666"
     borderopacity="1.0"
     inkscape:pageopacity="0.0"
     inkscape:pageshadow="2"
     inkscape:zoom="0.98994949"
     inkscape:cx="183.06738"
     inkscape:cy="8.1148263"
     inkscape:document-units="mm"
     inkscape:current-layer="layer4"
     showgrid="false"
     showguides="true"
     inkscape:guide-bbox="true"
     inkscape:window-width="916"
     inkscape:window-height="703"
     inkscape:window-x="0"
     inkscape:window-y="27"
     inkscape:window-maximized="0" />
  <metadata
     id="metadata5">
    <rdf:RDF>
      <cc:Work
         rdf:about="">
        <dc:format>image/svg+xml</dc:format>
        <dc:type
           rdf:resource="http://purl.org/dc/dcmitype/StillImage" />
        <dc:title></dc:title>
      </cc:Work>
    </rdf:RDF>
  </metadata>
  <g
     inkscape:groupmode="layer"
     id="layer2"
     inkscape:label="Layer 2"
     style="display:inline"
     transform="translate(-2.9399648,-2.2017109)" />
  <g
     inkscape:groupmode="layer"
     id="layer3"
     inkscape:label="Layer 3"
     style="display:inline"
     transform="translate(-2.9399648,-2.2017109)" />
  <g
     inkscape:groupmode="layer"
     id="layer4"
     inkscape:label="Layer 4"
     transform="translate(-2.9399648,-2.2017109)">
    <g
       id="g1038"
       transform="translate(2.1392843,-1.2834958)">
      <rect
         y="28.394121"
         x="41.627228"
         height="4.27631"
         width="53.253456"
         id="rect887"
         style="display:inline;opacity:1;fill:#9cc1d6;fill-opacity:1;stroke:none;stroke-width:0.70172793;stroke-linecap:square;stroke-linejoin:round;stroke-miterlimit:4;stroke-dasharray:none;stroke-dashoffset:0;stroke-opacity:1" />
      <rect
         y="8.6222124"
         x="41.627434"
         height="4.27631"
         width="53.253456"
         id="rect887-5"
         style="display:inline;opacity:1;fill:#9cc1d6;fill-opacity:1;stroke:none;stroke-width:0.70172793;stroke-linecap:square;stroke-linejoin:round;stroke-miterlimit:4;stroke-dasharray:none;stroke-dashoffset:0;stroke-opacity:1" />
      <path
         inkscape:connector-curvature="0"
         id="rect889"
         transform="scale(0.26458333)"
         d="M 104.88672,32.421875 C 59.742806,32.450186 32.126322,45.448802 29.285156,76.78125 v 1.251953 1.251953 c 3.030577,33.421274 34.249307,45.982354 84.861324,44.193364 h 43.18555 v -16.16211 h -43.18555 -6.51171 c 0,0 -36.63567,3.23792 -39.945317,-20.937504 H 114.14648 V 85.851562 70.214844 69.6875 H 67.689453 C 70.999101,45.512079 107.63477,48.75 107.63477,48.75 h 6.51171 43.18555 V 32.587891 h -43.18555 c -3.16325,-0.111812 -6.25017,-0.167903 -9.25976,-0.166016 z"
         style="display:inline;opacity:1;fill:#0a1d5b;fill-opacity:1;stroke:none;stroke-width:1.99999988;stroke-linecap:square;stroke-linejoin:round;stroke-miterlimit:4;stroke-dasharray:none;stroke-dashoffset:0;stroke-opacity:1" />
      <path
         inkscape:connector-curvature="0"
         id="rect920"
         transform="scale(0.26458333)"
         d="m 142.43164,52.894531 c -6.36166,0.836372 -7.98547,4.962438 -8.33398,9.97461 v 4.167968 h -8.58594 v 6.439453 h 8.58594 V 102.64453 H 145.9668 V 73.476562 h 11.36523 V 67.037109 H 145.9668 v -4.167968 c 0.30043,-1.477087 1.21036,-2.22206 2.38476,-2.650391 h 8.98047 v -7.324219 z"
         style="display:inline;opacity:1;fill:#0a1d5b;fill-opacity:1;stroke:none;stroke-width:1.99999988;stroke-linecap:square;stroke-linejoin:round;stroke-miterlimit:4;stroke-dasharray:none;stroke-dashoffset:0;stroke-opacity:1" />
      <path
         inkscape:connector-curvature="0"
         transform="scale(0.26458333)"
         id="path929"
         d="M 188.75,62.333984 A 24.285713,18.986311 0 0 0 164.46484,81.320312 24.285713,18.986311 0 0 0 188.75,100.30664 24.285713,18.986311 0 0 0 213.03516,81.320312 24.285713,18.986311 0 0 0 188.75,62.333984 Z m 0,7.179688 A 11.679889,11.806145 0 0 1 200.42969,81.320312 11.679889,11.806145 0 0 1 188.75,93.126953 11.679889,11.806145 0 0 1 177.07031,81.320312 11.679889,11.806145 0 0 1 188.75,69.513672 Z"
         style="display:inline;opacity:1;fill:#0a1d5b;fill-opacity:1;stroke:none;stroke-width:2.15338707;stroke-linecap:square;stroke-linejoin:round;stroke-miterlimit:4;stroke-dasharray:none;stroke-dashoffset:0;stroke-opacity:1" />
      <path
         inkscape:connector-curvature="0"
         id="rect934"
         transform="scale(0.26458333)"
         d="m 224.75977,62.869141 v 36.365234 h 11.86914 V 71.330078 c 1.75842,-1.582825 9.48156,-3.00546 12.37304,2.929688 v 5.02539 h 11.36524 V 69.6875 c -0.78641,-4.632669 -4.25922,-6.012666 -8.20703,-6.818359 h -15.53125 z"
         style="display:inline;opacity:1;fill:#0a1d5b;fill-opacity:1;stroke:none;stroke-width:1.99999988;stroke-linecap:square;stroke-linejoin:round;stroke-miterlimit:4;stroke-dasharray:none;stroke-dashoffset:0;stroke-opacity:1" />
      <path
         inkscape:connector-curvature="0"
         id="rect943"
         transform="scale(0.26458333)"
         d="m 287.23242,62.869141 c -9.82511,1.079452 -17.82445,4.638597 -18.30469,18.40039 l 0.26563,0.179688 -0.26563,0.179687 c 0.48025,13.761793 8.47958,17.320939 18.30469,18.400394 h 22.12696 v -6.818362 h -14.53711 c -7.67802,-0.840178 -13.5356,-2.980429 -13.83985,-11.761719 0.30425,-8.78129 6.16184,-10.921541 13.83985,-11.761719 h 14.53711 v -6.818359 z"
         style="display:inline;opacity:1;fill:#0a1d5b;fill-opacity:1;stroke:none;stroke-width:1.99999988;stroke-linecap:square;stroke-linejoin:round;stroke-miterlimit:4;stroke-dasharray:none;stroke-dashoffset:0;stroke-opacity:1" />
      <path
         sodipodi:nodetypes="cccccccccccccccc"
         inkscape:connector-curvature="0"
         id="rect943-5"
         transform="scale(0.26458333)"
         d="m 336.47656,62.869141 c -9.82511,1.079452 -17.82444,4.638597 -18.30468,18.40039 l 0.26562,0.179688 -0.26562,0.179687 c 0.48024,13.761793 8.47957,17.320935 18.30468,18.400394 h 22.12696 v -6.818362 h -14.53711 c -6.18537,-0.676843 -9.79484,-2.202743 -11.66573,-7.359376 h 26.20284 V 78.033203 H 332.2932 c 0.62754,-6.956001 5.21371,-7.627921 11.77321,-8.345703 h 14.53711 v -6.818359 z"
         style="display:inline;opacity:1;fill:#0a1d5b;fill-opacity:1;stroke:none;stroke-width:1.99999988;stroke-linecap:square;stroke-linejoin:round;stroke-miterlimit:4;stroke-dasharray:none;stroke-dashoffset:0;stroke-opacity:1" />
      <text
         transform="scale(1.0654593,0.93856236)"
         id="text1015"
         y="40.204201"
         x="28.19417"
         style="font-style:normal;font-variant:normal;font-weight:bold;font-stretch:normal;font-size:4.96408701px;line-height:1.25;font-family:'Open Sans';-inkscape-font-specification:'Open Sans Bold';letter-spacing:0px;word-spacing:0px;fill:#1d2247;fill-opacity:1;stroke:none;stroke-width:0.23269156"
         xml:space="preserve"><tspan
           style="font-style:normal;font-variant:normal;font-weight:normal;font-stretch:normal;font-family:FreeSans;-inkscape-font-specification:FreeSans;fill:#1d2247;fill-opacity:1;stroke-width:0.23269156"
           y="40.204201"
           x="28.19417"
           id="tspan1013"
           sodipodi:role="line">Event IT Specialists</tspan></text>
    </g>
  </g>
  <g
     inkscape:groupmode="layer"
     id="layer5"
     inkscape:label="Layer 5"
     transform="translate(-2.9399648,-2.2017109)" />
</svg>
