<?xml version="1.0" encoding="UTF-8" standalone="no"?>
<!DOCTYPE svg PUBLIC "-//W3C//DTD SVG 1.1//EN" "http://www.w3.org/Graphics/SVG/1.1/DTD/svg11.dtd">
<svg width="100%" height="100%" viewBox="0 0 300 100" version="1.1" xmlns="http://www.w3.org/2000/svg" xmlns:xlink="http://www.w3.org/1999/xlink" xml:space="preserve" xmlns:serif="http://www.serif.com/" style="fill-rule:evenodd;clip-rule:evenodd;stroke-linejoin:round;stroke-miterlimit:2;">
    <g id="Logo" transform="matrix(2.28125,0,0,2.28125,4.00017,13.8555)">
        <g id="Group">
            <g id="Group-3" transform="matrix(1,0,0,1,0,4.15692)">
                <path id="Fill-1" d="M21.846,5.696C19.797,2.311 16.04,0.042 11.747,0.042C5.471,0.042 0.343,4.89 0.017,10.99C0.011,11.088 0.007,11.186 0.005,11.284C0.002,11.405 0,11.527 0,11.651L0,11.688C0,11.761 0,11.835 0.004,11.909C0.12,20.365 7.035,27.208 15.609,27.372C9.243,27.204 4.134,22.066 4.134,15.753C4.134,9.336 9.415,4.132 15.931,4.132C16.41,4.132 16.881,4.161 17.345,4.216C16.973,4.172 16.597,4.146 16.216,4.137C19.613,4.261 22.447,6.556 23.325,9.655C23.08,8.229 22.571,6.893 21.846,5.696" style="fill:rgb(184,29,49);"/>
            </g>
            <g id="Group-6" transform="matrix(1,0,0,1,0,0.08979)">
                <path id="Fill-4" d="M31.847,15.461L31.847,15.461C31.847,15.358 31.842,15.257 31.835,15.157C31.696,11.546 30.324,8.244 28.115,5.658C27.952,5.468 27.785,5.282 27.615,5.099C27.444,4.918 27.268,4.74 27.088,4.566C26.998,4.48 26.909,4.393 26.817,4.308C26.723,4.223 26.631,4.14 26.538,4.057C26.444,3.974 26.348,3.893 26.253,3.812C26.157,3.731 26.06,3.651 25.963,3.574C25.841,3.476 25.719,3.382 25.594,3.288C25.517,3.231 25.442,3.173 25.363,3.118C25.262,3.044 25.159,2.97 25.056,2.9C24.959,2.832 24.861,2.766 24.762,2.701C24.745,2.69 24.727,2.677 24.706,2.664C24.614,2.603 24.52,2.544 24.425,2.485C24.318,2.419 24.211,2.352 24.103,2.29C23.88,2.159 23.655,2.031 23.425,1.911C23.318,1.854 23.211,1.799 23.103,1.745C22.96,1.675 22.816,1.605 22.67,1.539C22.586,1.498 22.5,1.46 22.411,1.423C22.295,1.371 22.179,1.321 22.061,1.273C21.945,1.225 21.829,1.179 21.713,1.135C21.702,1.129 21.689,1.126 21.677,1.12C21.567,1.078 21.456,1.037 21.344,0.998C21.205,0.948 21.067,0.901 20.926,0.856C20.821,0.821 20.717,0.788 20.612,0.757C20.505,0.724 20.398,0.692 20.29,0.663C20.2,0.637 20.111,0.613 20.024,0.591C19.469,0.445 18.904,0.329 18.325,0.244C18.196,0.224 18.065,0.207 17.933,0.19C17.675,0.157 17.414,0.131 17.152,0.113C17.064,0.105 16.976,0.1 16.888,0.096C16.57,0.076 16.25,0.067 15.927,0.067C7.37,0.067 0.386,6.715 0.017,15.057C0.343,8.957 5.471,4.109 11.747,4.109C16.684,4.109 20.906,7.109 22.644,11.357L16.473,11.357L16.473,11.357C14.172,11.357 12.307,13.194 12.307,15.461C12.307,17.727 14.172,19.565 16.473,19.565L27.748,19.565L27.748,19.563C30.018,19.527 31.847,17.705 31.847,15.461L31.847,15.461Z" style="fill:rgb(226,29,72);"/>
            </g>
            <g id="Group-9" transform="matrix(1,0,0,1,3.97043,8.22405)">
                <path id="Fill-7" d="M19.515,7.327L19.515,7.326L19.509,7.326C19.51,7.327 19.51,7.327 19.51,7.327L19.515,7.327ZM21.127,12.797C19.68,12.156 17.994,12.39 16.772,13.387C15.715,14.25 14.137,15.071 11.95,15.071C7.772,15.071 4.385,11.736 4.385,7.62C4.385,3.834 7.256,0.618 10.971,0.127C10.988,0.125 11.005,0.123 11.022,0.121C11.132,0.107 11.242,0.095 11.353,0.086C11.266,0.092 11.181,0.102 11.096,0.112C11.12,0.109 11.144,0.105 11.169,0.102C11.229,0.097 11.291,0.092 11.353,0.086C11.48,0.077 11.609,0.069 11.738,0.066C5.322,0.178 0.156,5.338 0.156,11.686C0.156,17.176 4.02,21.777 9.214,22.991C9.993,23.175 10.802,23.282 11.632,23.304C11.738,23.306 11.847,23.308 11.954,23.308C12.064,23.308 12.173,23.306 12.283,23.304C12.306,23.304 12.33,23.302 12.353,23.302C12.416,23.3 12.48,23.297 12.546,23.295C12.562,23.295 12.579,23.295 12.596,23.293C12.669,23.291 12.744,23.288 12.819,23.284C12.914,23.278 13.01,23.273 13.106,23.265C13.192,23.26 13.28,23.253 13.366,23.245C13.379,23.243 13.392,23.243 13.403,23.241C17.154,22.848 20.009,21.314 22.055,19.677C24.443,17.765 23.933,14.04 21.127,12.797ZM11.955,0.064L11.954,0.064C11.954,0.064 11.955,0.064 11.955,0.064L11.955,0.064Z" style="fill:rgb(233,63,80);"/>
            </g>
        </g>
        <g transform="matrix(1,0,0,1,37,7)">
            <path id="Fill-11" serif:id="Fill-1" d="M10.44,14.188C10.319,14.262 10.139,14.39 9.899,14.564C9.659,14.739 9.349,14.91 8.966,15.078C8.583,15.243 8.129,15.392 7.605,15.522C7.079,15.649 6.481,15.714 5.804,15.714C4.904,15.714 4.095,15.574 3.374,15.293C2.655,15.013 2.043,14.621 1.541,14.119C1.038,13.615 0.656,13.013 0.394,12.304C0.13,11.597 0,10.818 0,9.966C0,9.221 0.123,8.503 0.371,7.811C0.618,7.118 0.974,6.514 1.44,5.996C1.905,5.479 2.474,5.064 3.149,4.752C3.825,4.442 4.59,4.286 5.445,4.286C6.299,4.286 7.05,4.437 7.695,4.741C8.339,5.046 8.883,5.468 9.325,6.009C9.767,6.547 10.101,7.194 10.327,7.948C10.552,8.7 10.664,9.525 10.664,10.422L10.664,10.971L3.149,10.971C3.165,11.548 3.416,12.054 3.904,12.487C4.391,12.92 5.062,13.138 5.916,13.138C6.756,13.138 7.44,13.013 7.965,12.761C8.489,12.511 8.872,12.293 9.112,12.111L10.44,14.188ZM7.605,8.871C7.605,8.643 7.559,8.412 7.469,8.175C7.38,7.94 7.244,7.724 7.066,7.525C6.884,7.328 6.659,7.163 6.39,7.035C6.12,6.906 5.797,6.841 5.421,6.841C5.047,6.841 4.717,6.906 4.432,7.035C4.147,7.163 3.91,7.328 3.723,7.525C3.536,7.724 3.393,7.94 3.296,8.175C3.198,8.412 3.149,8.643 3.149,8.871L7.605,8.871Z" style="fill:rgb(9,44,63);"/>
            <path id="Fill-3" d="M12.086,4.532L15.305,4.532L15.399,5.669C15.757,5.253 16.228,4.918 16.811,4.665C17.394,4.412 18.005,4.286 18.642,4.286C19.903,4.286 20.902,4.643 21.641,5.357C22.38,6.071 22.75,7.129 22.75,8.526L22.75,15L19.39,15L19.39,8.973C19.39,8.393 19.238,7.932 18.934,7.589C18.632,7.247 18.207,7.076 17.663,7.076C17.289,7.076 16.963,7.14 16.683,7.266C16.402,7.393 16.169,7.559 15.982,7.768C15.795,7.976 15.656,8.219 15.562,8.493C15.469,8.77 15.422,9.062 15.422,9.376L15.422,15L12.086,15L12.086,4.532Z" style="fill:rgb(9,44,63);"/>
            <path id="Fill-5" d="M31.015,14.307C30.688,14.706 30.27,15.043 29.759,15.311C29.247,15.579 28.667,15.714 28.015,15.714C27.379,15.714 26.782,15.585 26.226,15.322C25.672,15.06 25.19,14.688 24.782,14.204C24.374,13.719 24.052,13.135 23.815,12.448C23.579,11.764 23.461,10.992 23.461,10.131C23.461,9.161 23.627,8.312 23.961,7.581C24.293,6.849 24.723,6.246 25.249,5.768C25.774,5.293 26.359,4.934 27.004,4.696C27.649,4.457 28.281,4.338 28.904,4.338C29.408,4.338 29.799,4.374 30.081,4.442C30.363,4.512 30.652,4.601 30.948,4.708L30.948,0L34.125,0L34.125,15.391L31.148,15.391L31.015,14.307ZM30.948,7.546C30.726,7.408 30.485,7.307 30.225,7.246C29.966,7.185 29.644,7.153 29.26,7.153C28.444,7.153 27.811,7.439 27.36,8.008C26.908,8.577 26.682,9.307 26.682,10.2C26.682,10.985 26.867,11.627 27.236,12.125C27.607,12.626 28.162,12.876 28.904,12.876C29.26,12.876 29.566,12.812 29.825,12.68C30.085,12.549 30.3,12.377 30.47,12.162C30.64,11.946 30.763,11.693 30.837,11.4C30.911,11.107 30.948,10.807 30.948,10.499L30.948,7.546Z" style="fill:rgb(9,44,63);"/>
            <path id="Fill-71" serif:id="Fill-7" d="M37.116,12.041C37.455,12.361 37.901,12.628 38.454,12.84C39.007,13.052 39.541,13.159 40.058,13.159C40.529,13.159 40.919,13.098 41.229,12.976C41.538,12.855 41.694,12.619 41.694,12.271C41.694,12.133 41.66,12.008 41.594,11.894C41.528,11.779 41.406,11.672 41.229,11.575C41.052,11.475 40.806,11.373 40.488,11.266C40.171,11.16 39.769,11.038 39.284,10.902C38.886,10.795 38.491,10.654 38.1,10.478C37.709,10.304 37.363,10.088 37.062,9.828C36.76,9.571 36.517,9.258 36.332,8.893C36.146,8.529 36.055,8.103 36.055,7.615C36.055,7.115 36.165,6.663 36.386,6.259C36.608,5.857 36.915,5.506 37.304,5.209C37.695,4.914 38.158,4.685 38.698,4.526C39.235,4.366 39.814,4.286 40.434,4.286C41.318,4.286 42.092,4.388 42.754,4.594C43.417,4.799 44.029,5.1 44.59,5.494L43.241,7.662C42.902,7.434 42.515,7.229 42.081,7.046C41.645,6.864 41.156,6.772 40.609,6.772C40.123,6.772 39.769,6.844 39.548,6.989C39.327,7.135 39.217,7.327 39.217,7.57C39.217,7.921 39.445,8.179 39.902,8.346C40.359,8.514 40.977,8.703 41.759,8.917C42.822,9.222 43.59,9.639 44.071,10.171C44.548,10.704 44.789,11.41 44.789,12.293C44.789,12.886 44.66,13.397 44.402,13.821C44.143,14.247 43.797,14.601 43.363,14.882C42.928,15.163 42.435,15.373 41.882,15.509C41.329,15.647 40.765,15.714 40.19,15.714C39.262,15.714 38.383,15.585 37.559,15.326C36.732,15.068 36.063,14.671 35.547,14.14L37.116,12.041Z" style="fill:rgb(9,44,63);"/>
            <path id="Fill-9" d="M46.922,15L50.477,15L50.477,0L46.922,0L46.922,15Z" style="fill:rgb(9,44,63);"/>
            <path id="Fill-111" serif:id="Fill-11" d="M61.626,14.188C61.505,14.262 61.326,14.39 61.087,14.564C60.847,14.739 60.536,14.91 60.154,15.078C59.769,15.243 59.316,15.392 58.791,15.522C58.267,15.649 57.667,15.714 56.992,15.714C56.092,15.714 55.281,15.574 54.562,15.293C53.842,15.013 53.231,14.621 52.729,14.119C52.226,13.615 51.843,13.013 51.581,12.304C51.318,11.597 51.188,10.818 51.188,9.966C51.188,9.221 51.311,8.503 51.559,7.811C51.806,7.118 52.162,6.514 52.627,5.996C53.092,5.479 53.662,5.064 54.337,4.752C55.012,4.442 55.777,4.286 56.631,4.286C57.486,4.286 58.236,4.437 58.882,4.741C59.526,5.046 60.07,5.468 60.512,6.009C60.955,6.547 61.289,7.194 61.513,7.948C61.738,8.7 61.852,9.525 61.852,10.422L61.852,10.971L54.337,10.971C54.352,11.548 54.603,12.054 55.091,12.487C55.578,12.92 56.25,13.138 57.104,13.138C57.944,13.138 58.627,13.013 59.151,12.761C59.677,12.511 60.059,12.293 60.299,12.111L61.626,14.188ZM58.791,8.871C58.791,8.643 58.747,8.412 58.656,8.175C58.568,7.94 58.432,7.724 58.252,7.525C58.071,7.328 57.847,7.163 57.577,7.035C57.306,6.906 56.983,6.841 56.609,6.841C56.233,6.841 55.903,6.906 55.619,7.035C55.335,7.163 55.098,7.328 54.911,7.525C54.722,7.724 54.581,7.94 54.483,8.175C54.386,8.412 54.337,8.643 54.337,8.871L58.791,8.871Z" style="fill:rgb(9,44,63);"/>
            <path id="Fill-12" d="M63.273,15L66.828,15L66.828,4.286L63.273,4.286L63.273,15Z" style="fill:rgb(9,44,63);"/>
            <path id="Fill-13" d="M70.45,16.543C70.869,16.801 71.314,17.001 71.786,17.146C72.257,17.29 72.778,17.36 73.346,17.36C74.078,17.36 74.656,17.165 75.074,16.772C75.493,16.377 75.703,15.784 75.703,14.996L75.703,14.247C75.03,14.838 74.132,15.134 73.009,15.134C72.26,15.134 71.591,15.008 71,14.758C70.408,14.508 69.912,14.156 69.506,13.702C69.103,13.246 68.792,12.708 68.575,12.086C68.358,11.464 68.25,10.783 68.25,10.039C68.25,9.176 68.395,8.391 68.687,7.686C68.979,6.982 69.391,6.375 69.921,5.868C70.454,5.359 71.089,4.968 71.83,4.695C72.57,4.423 73.397,4.286 74.312,4.286C75.179,4.286 76.006,4.361 76.792,4.514C77.578,4.665 78.286,4.855 78.914,5.082L78.914,14.838C78.914,16.597 78.434,17.895 77.477,18.737C76.518,19.58 75.209,20 73.547,20C72.606,20 71.782,19.909 71.079,19.728C70.375,19.545 69.732,19.257 69.148,18.864L70.45,16.543ZM75.726,7.22C75.517,7.144 75.306,7.087 75.097,7.049C74.887,7.011 74.609,6.993 74.266,6.993C73.803,6.993 73.397,7.071 73.053,7.231C72.71,7.391 72.421,7.602 72.19,7.867C71.957,8.134 71.786,8.444 71.674,8.8C71.56,9.158 71.505,9.532 71.505,9.927C71.505,10.699 71.688,11.314 72.054,11.768C72.421,12.222 72.958,12.449 73.66,12.449C74.318,12.449 74.828,12.286 75.186,11.96C75.546,11.636 75.726,11.124 75.726,10.426L75.726,7.22Z" style="fill:rgb(9,44,63);"/>
            <path id="Fill-14" d="M80.336,0L83.659,0L83.659,5.465C84.015,5.061 84.488,4.749 85.076,4.533C85.663,4.314 86.261,4.206 86.864,4.206C88.12,4.206 89.122,4.566 89.873,5.285C90.625,6.004 91,7.07 91,8.478L91,15L87.679,15L87.679,8.974C87.679,8.359 87.515,7.879 87.19,7.534C86.864,7.189 86.432,7.017 85.889,7.017C85.533,7.017 85.215,7.081 84.937,7.208C84.658,7.334 84.426,7.504 84.24,7.714C84.054,7.923 83.914,8.167 83.822,8.444C83.729,8.721 83.681,9.018 83.681,9.334L83.681,15L80.336,15L80.336,0Z" style="fill:rgb(9,44,63);"/>
            <path id="Fill-15" d="M63.273,3.571L66.828,3.571L66.828,0L63.273,0L63.273,3.571Z" style="fill:rgb(9,44,63);"/>
        </g>
    </g>
</svg>
