<?xml version="1.0" encoding="UTF-8" standalone="no"?>
<!DOCTYPE svg PUBLIC "-//W3C//DTD SVG 1.1//EN" "http://www.w3.org/Graphics/SVG/1.1/DTD/svg11.dtd">
<svg width="100%" height="100%" viewBox="0 0 300 100" version="1.1" xmlns="http://www.w3.org/2000/svg" xmlns:xlink="http://www.w3.org/1999/xlink" xml:space="preserve" xmlns:serif="http://www.serif.com/" style="fill-rule:evenodd;clip-rule:evenodd;stroke-linejoin:round;stroke-miterlimit:2;">
    <g transform="matrix(0.292569,0,0,0.292569,5.33341,6.32091)">
        <g>
            <g>
                <path d="M908.14,88.61L908.17,88.61L791.85,0.95L799.28,87.42L908.14,88.61Z" style="fill:url(#_Linear1);fill-rule:nonzero;"/>
                <path d="M814.45,280.26L910.22,297.64L863.04,242.35L814.45,280.26Z" style="fill:url(#_Linear2);fill-rule:nonzero;"/>
                <path d="M944.47,178.82L984.47,147.95L958.36,127.65L944.47,178.82Z" style="fill:url(#_Linear3);fill-rule:nonzero;"/>
                <path d="M799.28,87.42L730.04,86.66L806.95,176.63L799.28,87.42Z" style="fill:url(#_Linear4);fill-rule:nonzero;"/>
                <path d="M806.95,176.63L814.45,280.26L863.04,242.35L806.95,176.63Z" style="fill:url(#_Linear5);fill-rule:nonzero;"/>
                <path d="M910.22,297.64L944.47,178.82L863.04,242.35L910.22,297.64Z" style="fill:url(#_Linear6);fill-rule:nonzero;"/>
                <path d="M908.17,88.61L958.36,127.65L969.46,89.3L908.17,88.61Z" style="fill:url(#_Linear7);fill-rule:nonzero;"/>
                <path d="M791.85,0.95L730.04,86.66L799.28,87.42L791.85,0.95Z" style="fill:url(#_Linear8);fill-rule:nonzero;"/>
            </g>
            <path d="M984.47,147.95L969.46,89.3L958.36,127.65L984.47,147.95Z" style="fill:url(#_Linear9);fill-rule:nonzero;"/>
        </g>
        <path d="M526,164.49L525.97,164.49C520.23,164.49 515.58,169.14 515.58,174.88L515.58,174.91C515.58,180.65 520.23,185.3 525.97,185.3L526,185.3C531.74,185.3 536.39,180.65 536.39,174.91L536.39,174.88C536.38,169.14 531.73,164.49 526,164.49Z" style="fill:rgb(33,33,33);fill-rule:nonzero;"/>
        <g>
            <path d="M4.47,280.26L24.06,280.26L24.06,232.37L68.48,232.37L68.48,215.34L24.06,215.34L24.06,182.56L74.87,182.56L74.87,165.69L4.47,165.69L4.47,280.26Z" style="fill:rgb(0,156,166);fill-rule:nonzero;"/>
            <path d="M156.53,182.56L156.53,165.69L84.69,165.69L84.69,280.26L156.53,280.26L156.53,263.39L104.27,263.39L104.27,231.41L149.82,231.41L149.82,214.38L104.43,214.38L104.43,182.56L156.53,182.56Z" style="fill:rgb(0,156,166);fill-rule:nonzero;"/>
        </g>
        <path d="M314.45,246.97C314.45,253.49 313.01,258.34 310.17,261.38C307.35,264.4 302.84,265.93 296.76,265.93C290.69,265.93 286.18,264.4 283.35,261.38C280.51,258.34 279.07,253.49 279.07,246.97L279.07,198.02L260.28,198.02L260.28,249.36C260.28,260.16 263.54,268.51 269.97,274.16C276.36,279.79 285.37,282.64 296.76,282.64C308.05,282.64 316.93,279.78 323.16,274.15C329.43,268.49 332.6,260.15 332.6,249.35L332.6,198.01L314.45,198.01L314.45,246.97Z" style="fill:rgb(33,33,33);fill-rule:nonzero;"/>
        <path d="M407.93,203.55C402.44,198.72 393.88,196.27 382.5,196.27C376.18,196.27 369.46,197.06 362.54,198.61C355.62,200.17 349.65,202.21 344.81,204.69L344.26,204.97L344.26,280.26L363.05,280.26L363.05,215.4C368.26,213.58 373.78,212.66 379.46,212.66C391.58,212.66 397.47,217.82 397.47,228.43L397.47,280.25L416.26,280.25L416.26,226.2C416.27,216.04 413.46,208.42 407.93,203.55Z" style="fill:rgb(33,33,33);fill-rule:nonzero;"/>
        <path d="M484.32,200.01C481.63,198.82 478.63,197.9 475.37,197.25C471.53,196.5 468.11,196.11 465.19,196.11C452.58,196.11 442.92,199.88 436.47,207.32C430.05,214.72 426.8,225.1 426.8,238.18C426.8,254.5 430.63,266.12 438.17,272.73C445.67,279.31 455.36,282.65 466.96,282.65C472.65,282.65 478.28,281.94 483.67,280.54C489.12,279.12 493.71,276.88 497.32,273.87C501.06,270.75 502.96,266.86 502.96,262.31L502.96,165.46L484.33,165.46L484.33,200.01L484.32,200.01ZM484.32,260.72C484.32,262.16 482.85,263.39 479.96,264.4C476.73,265.53 472.68,266.1 467.91,266.1C459.78,266.1 454.04,263.7 450.85,258.95C447.57,254.08 445.91,247.2 445.91,238.5C445.91,221.01 453,212.5 467.59,212.5C470.47,212.5 473.48,212.89 476.53,213.67C479.36,214.39 481.98,215.41 484.32,216.72L484.32,260.72Z" style="fill:rgb(33,33,33);fill-rule:nonzero;"/>
        <path d="M516.51,197.96L516.51,280.26L535.46,280.26L535.3,197.96L516.51,197.96Z" style="fill:rgb(33,33,33);fill-rule:nonzero;"/>
        <path d="M612.79,203.55C607.3,198.72 598.74,196.27 587.36,196.27C581.04,196.27 574.32,197.06 567.4,198.61C560.47,200.17 554.51,202.21 549.67,204.69L549.12,204.97L549.12,280.26L567.91,280.26L567.91,215.4C573.12,213.58 578.64,212.66 584.32,212.66C596.44,212.66 602.33,217.82 602.33,228.43L602.33,280.25L621.12,280.25L621.12,226.2C621.13,216.04 618.32,208.42 612.79,203.55Z" style="fill:rgb(33,33,33);fill-rule:nonzero;"/>
        <path d="M668.62,164.15C660.77,164.15 653.92,166.26 648.29,170.42C642.56,174.65 639.65,183.2 639.65,195.84L639.65,198.03L626.71,198.03L626.71,213.95L639.49,213.95L639.49,280.27L658.28,280.27L658.28,213.95L677.58,213.95L677.58,198.03L658.44,198.03L658.44,194.4C658.44,190.12 659.02,186.93 660.15,184.9C661.24,182.95 662.62,181.68 664.23,181.13C665.98,180.53 668.15,180.23 670.69,180.23C671.96,180.23 673.04,180.37 673.89,180.66C674.8,180.97 675.89,181.43 677.12,182.04L678.58,182.77L678.58,165.49L677.82,165.3C674.75,164.54 671.66,164.15 668.62,164.15Z" style="fill:rgb(33,33,33);fill-rule:nonzero;"/>
        <path d="M241.28,165.1C233.43,165.1 226.59,167.21 220.95,171.37C215.22,175.6 212.31,184.15 212.31,196.79L212.31,198.02L199.37,198.02L199.37,213.94L212.15,213.94L212.15,280.26L230.94,280.26L230.94,213.94L250.24,213.94L250.24,198.02L231.1,198.02L231.1,195.35C231.1,191.07 231.68,187.88 232.81,185.85C233.9,183.9 235.28,182.63 236.89,182.08C238.64,181.48 240.81,181.18 243.35,181.18C244.62,181.18 245.7,181.32 246.55,181.61C247.46,181.92 248.55,182.38 249.78,182.99L251.24,183.72L251.24,166.44L250.48,166.25C247.41,165.49 244.32,165.1 241.28,165.1Z" style="fill:rgb(33,33,33);fill-rule:nonzero;"/>
        <path d="M747.55,207.23C740.88,199.85 730.85,196.11 717.72,196.11C691.6,196.11 678.36,210.59 678.36,239.14C678.36,253.18 681.7,264.05 688.28,271.45C694.89,278.88 704.85,282.65 717.87,282.65C730.47,282.65 740.34,278.83 747.22,271.3C754.08,263.79 757.55,252.97 757.55,239.14C757.55,225.32 754.19,214.58 747.55,207.23ZM717.72,266.42C710.53,266.42 705.24,264.12 702,259.57C698.68,254.92 696.99,248.05 696.99,239.14C696.99,230.23 698.62,223.41 701.84,218.87C704.98,214.43 710.32,212.18 717.72,212.18C725.02,212.18 730.4,214.39 733.7,218.73C737.06,223.16 738.77,230.03 738.77,239.13C738.76,257.5 731.88,266.42 717.72,266.42Z" style="fill:rgb(33,33,33);fill-rule:nonzero;"/>
    </g>
    <defs>
        <linearGradient id="_Linear1" x1="0" y1="0" x2="1" y2="0" gradientUnits="userSpaceOnUse" gradientTransform="matrix(178.129,0,0,178.129,730.037,44.7796)"><stop offset="0" style="stop-color:rgb(108,194,74);stop-opacity:1"/><stop offset="0.5" style="stop-color:rgb(0,164,153);stop-opacity:1"/><stop offset="1" style="stop-color:rgb(0,156,166);stop-opacity:1"/></linearGradient>
        <linearGradient id="_Linear2" x1="0" y1="0" x2="1" y2="0" gradientUnits="userSpaceOnUse" gradientTransform="matrix(86.3496,0,0,86.3496,814.449,269.999)"><stop offset="0" style="stop-color:rgb(36,144,57);stop-opacity:1"/><stop offset="1" style="stop-color:rgb(0,107,81);stop-opacity:1"/></linearGradient>
        <linearGradient id="_Linear3" x1="0" y1="0" x2="1" y2="0" gradientUnits="userSpaceOnUse" gradientTransform="matrix(39.9955,0,0,39.9955,944.475,153.237)"><stop offset="0" style="stop-color:rgb(108,194,74);stop-opacity:1"/><stop offset="0.5" style="stop-color:rgb(0,164,153);stop-opacity:1"/><stop offset="1" style="stop-color:rgb(0,156,166);stop-opacity:1"/></linearGradient>
        <linearGradient id="_Linear4" x1="0" y1="0" x2="1" y2="0" gradientUnits="userSpaceOnUse" gradientTransform="matrix(70.2574,0,0,70.2574,732.578,131.641)"><stop offset="0" style="stop-color:rgb(108,194,74);stop-opacity:1"/><stop offset="0.5" style="stop-color:rgb(0,164,153);stop-opacity:1"/><stop offset="1" style="stop-color:rgb(0,156,166);stop-opacity:1"/></linearGradient>
        <linearGradient id="_Linear5" x1="0" y1="0" x2="1" y2="0" gradientUnits="userSpaceOnUse" gradientTransform="matrix(103.252,0,0,103.252,806.954,228.443)"><stop offset="0" style="stop-color:rgb(108,194,74);stop-opacity:1"/><stop offset="0.5" style="stop-color:rgb(0,164,153);stop-opacity:1"/><stop offset="1" style="stop-color:rgb(0,156,166);stop-opacity:1"/></linearGradient>
        <linearGradient id="_Linear6" x1="0" y1="0" x2="1" y2="0" gradientUnits="userSpaceOnUse" gradientTransform="matrix(129.999,0,0,129.999,809.902,238.232)"><stop offset="0" style="stop-color:rgb(108,194,74);stop-opacity:1"/><stop offset="0.5" style="stop-color:rgb(0,164,153);stop-opacity:1"/><stop offset="1" style="stop-color:rgb(0,156,166);stop-opacity:1"/></linearGradient>
        <linearGradient id="_Linear7" x1="0" y1="0" x2="1" y2="0" gradientUnits="userSpaceOnUse" gradientTransform="matrix(76.2956,0,0,76.2956,908.167,108.13)"><stop offset="0" style="stop-color:rgb(108,194,74);stop-opacity:1"/><stop offset="0.5" style="stop-color:rgb(0,164,153);stop-opacity:1"/><stop offset="1" style="stop-color:rgb(0,156,166);stop-opacity:1"/></linearGradient>
        <linearGradient id="_Linear8" x1="0" y1="0" x2="1" y2="0" gradientUnits="userSpaceOnUse" gradientTransform="matrix(76.9168,0,0,76.9168,730.037,44.1839)"><stop offset="0" style="stop-color:rgb(36,144,57);stop-opacity:1"/><stop offset="1" style="stop-color:rgb(0,107,81);stop-opacity:1"/></linearGradient>
        <linearGradient id="_Linear9" x1="0" y1="0" x2="1" y2="0" gradientUnits="userSpaceOnUse" gradientTransform="matrix(48.9614,0,0,48.9614,934.792,118.625)"><stop offset="0" style="stop-color:rgb(36,144,57);stop-opacity:1"/><stop offset="0.31" style="stop-color:rgb(36,144,57);stop-opacity:1"/><stop offset="0.51" style="stop-color:rgb(16,124,70);stop-opacity:1"/><stop offset="0.71" style="stop-color:rgb(4,111,78);stop-opacity:1"/><stop offset="0.91" style="stop-color:rgb(0,107,81);stop-opacity:1"/><stop offset="1" style="stop-color:rgb(0,107,81);stop-opacity:1"/></linearGradient>
    </defs>
</svg>
