<?xml version="1.0" encoding="UTF-8" standalone="no"?>
<!DOCTYPE svg PUBLIC "-//W3C//DTD SVG 1.1//EN" "http://www.w3.org/Graphics/SVG/1.1/DTD/svg11.dtd">
<svg width="100%" height="100%" viewBox="0 0 300 100" version="1.1" xmlns="http://www.w3.org/2000/svg" xmlns:xlink="http://www.w3.org/1999/xlink" xml:space="preserve" xmlns:serif="http://www.serif.com/" style="fill-rule:evenodd;clip-rule:evenodd;stroke-linejoin:round;stroke-miterlimit:2;">
    <g transform="matrix(1.2129,0,0,1.23745,-13.1018,-22.7003)">
        <g transform="matrix(10.2151,0,0,10.2151,61.0412,95.4175)">
            <path d="M0.235,0.018C0.186,0.018 0.124,0.007 0.049,-0.014L0.049,-0.115C0.13,-0.077 0.197,-0.059 0.25,-0.059C0.29,-0.059 0.322,-0.069 0.347,-0.09C0.372,-0.111 0.384,-0.139 0.384,-0.174C0.384,-0.202 0.376,-0.226 0.36,-0.246C0.344,-0.266 0.314,-0.288 0.271,-0.313L0.221,-0.341C0.159,-0.376 0.116,-0.41 0.091,-0.441C0.065,-0.472 0.053,-0.508 0.053,-0.549C0.053,-0.605 0.073,-0.651 0.113,-0.687C0.154,-0.723 0.205,-0.741 0.268,-0.741C0.323,-0.741 0.382,-0.731 0.444,-0.713L0.444,-0.619C0.368,-0.649 0.311,-0.664 0.273,-0.664C0.238,-0.664 0.209,-0.655 0.186,-0.636C0.162,-0.617 0.151,-0.593 0.151,-0.564C0.151,-0.54 0.159,-0.519 0.176,-0.5C0.193,-0.482 0.224,-0.46 0.269,-0.434L0.321,-0.405C0.383,-0.369 0.427,-0.336 0.452,-0.304C0.476,-0.273 0.489,-0.235 0.489,-0.19C0.489,-0.128 0.466,-0.077 0.419,-0.039C0.373,-0.001 0.311,0.018 0.235,0.018Z" style="fill:rgb(62,72,85);fill-rule:nonzero;"/>
        </g>
        <g transform="matrix(10.2151,0,0,10.2151,66.5428,95.4175)">
            <path d="M0.096,0L0.096,-0.53L0.192,-0.53L0.192,0L0.096,0ZM0.096,-0.626L0.096,-0.723L0.192,-0.723L0.192,-0.626L0.096,-0.626Z" style="fill:rgb(62,72,85);fill-rule:nonzero;"/>
        </g>
        <g transform="matrix(10.2151,0,0,10.2151,69.4956,95.4175)">
            <path d="M0.096,0L0.096,-0.53L0.192,-0.53L0.192,-0.431C0.243,-0.505 0.305,-0.542 0.379,-0.542C0.425,-0.542 0.461,-0.527 0.489,-0.498C0.516,-0.469 0.53,-0.43 0.53,-0.381L0.53,0L0.434,0L0.434,-0.35C0.434,-0.389 0.428,-0.417 0.416,-0.434C0.405,-0.451 0.386,-0.459 0.359,-0.459C0.3,-0.459 0.244,-0.42 0.192,-0.343L0.192,0L0.096,0Z" style="fill:rgb(62,72,85);fill-rule:nonzero;"/>
        </g>
        <g transform="matrix(10.2151,0,0,10.2151,75.8352,95.4175)">
            <path d="M0.303,0.012C0.232,0.012 0.172,-0.014 0.125,-0.067C0.078,-0.12 0.054,-0.187 0.054,-0.268C0.054,-0.354 0.078,-0.422 0.124,-0.47C0.171,-0.518 0.236,-0.542 0.32,-0.542C0.361,-0.542 0.407,-0.536 0.458,-0.525L0.458,-0.444C0.404,-0.46 0.36,-0.468 0.326,-0.468C0.277,-0.468 0.237,-0.45 0.207,-0.413C0.177,-0.376 0.163,-0.327 0.163,-0.265C0.163,-0.206 0.178,-0.157 0.208,-0.121C0.239,-0.084 0.279,-0.065 0.329,-0.065C0.373,-0.065 0.418,-0.077 0.464,-0.099L0.464,-0.016C0.402,0.003 0.348,0.012 0.303,0.012Z" style="fill:rgb(62,72,85);fill-rule:nonzero;"/>
        </g>
        <g transform="matrix(10.2151,0,0,10.2151,81.0675,95.4175)">
            <path d="M0.485,-0.017C0.42,0.002 0.365,0.012 0.319,0.012C0.241,0.012 0.177,-0.014 0.128,-0.066C0.079,-0.118 0.054,-0.185 0.054,-0.268C0.054,-0.348 0.076,-0.414 0.119,-0.465C0.163,-0.517 0.218,-0.542 0.286,-0.542C0.35,-0.542 0.4,-0.52 0.435,-0.474C0.47,-0.429 0.487,-0.364 0.487,-0.28L0.487,-0.25L0.152,-0.25C0.166,-0.124 0.228,-0.061 0.337,-0.061C0.377,-0.061 0.427,-0.072 0.485,-0.093L0.485,-0.017ZM0.157,-0.322L0.391,-0.322C0.391,-0.421 0.354,-0.47 0.28,-0.47C0.206,-0.47 0.165,-0.421 0.157,-0.322Z" style="fill:rgb(62,72,85);fill-rule:nonzero;"/>
        </g>
        <g transform="matrix(10.2151,0,0,10.2151,89.3124,95.4175)">
            <path d="M0.15,0L0.15,-0.072L0.295,-0.072L0.295,-0.643L0.15,-0.606L0.15,-0.681L0.392,-0.741L0.392,-0.072L0.536,-0.072L0.536,0L0.15,0Z" style="fill:rgb(62,72,85);fill-rule:nonzero;"/>
        </g>
        <g transform="matrix(10.2151,0,0,10.2151,95.7717,95.4175)">
            <path d="M0.15,0C0.16,-0.056 0.173,-0.105 0.191,-0.146C0.208,-0.187 0.239,-0.243 0.283,-0.315L0.48,-0.632L0.108,-0.632L0.108,-0.723L0.572,-0.723L0.572,-0.632C0.387,-0.359 0.283,-0.148 0.261,0L0.15,0Z" style="fill:rgb(62,72,85);fill-rule:nonzero;"/>
        </g>
        <g transform="matrix(10.2151,0,0,10.2151,102.231,95.4175)">
            <path d="M0.122,0.003L0.122,-0.083C0.169,-0.064 0.215,-0.054 0.258,-0.054C0.306,-0.054 0.343,-0.068 0.37,-0.096C0.398,-0.124 0.411,-0.163 0.411,-0.212C0.411,-0.32 0.336,-0.375 0.187,-0.375C0.17,-0.375 0.152,-0.373 0.134,-0.371L0.134,-0.723L0.5,-0.723L0.5,-0.639L0.218,-0.639L0.218,-0.448C0.311,-0.448 0.383,-0.427 0.436,-0.384C0.488,-0.342 0.514,-0.283 0.514,-0.207C0.514,-0.137 0.49,-0.082 0.443,-0.042C0.395,-0.002 0.33,0.018 0.246,0.018C0.209,0.018 0.168,0.013 0.122,0.003Z" style="fill:rgb(62,72,85);fill-rule:nonzero;"/>
        </g>
        <g transform="matrix(10.2151,0,0,10.2151,108.69,95.4175)">
            <path d="M0.313,0.018C0.239,0.018 0.179,-0.017 0.133,-0.087C0.087,-0.157 0.063,-0.249 0.063,-0.362C0.063,-0.476 0.087,-0.567 0.133,-0.637C0.179,-0.706 0.241,-0.741 0.316,-0.741C0.392,-0.741 0.453,-0.706 0.5,-0.637C0.546,-0.567 0.569,-0.476 0.569,-0.363C0.569,-0.247 0.546,-0.155 0.5,-0.086C0.453,-0.017 0.391,0.018 0.313,0.018ZM0.314,-0.054C0.416,-0.054 0.467,-0.158 0.467,-0.365C0.467,-0.567 0.417,-0.668 0.316,-0.668C0.216,-0.668 0.166,-0.566 0.166,-0.362C0.166,-0.157 0.215,-0.054 0.314,-0.054Z" style="fill:rgb(62,72,85);fill-rule:nonzero;"/>
        </g>
    </g>
    <g>
        <path d="M184.789,59.804C192.747,43.641 205.091,57.056 218.65,38.424C201.431,36.034 190.05,43.01 184.789,59.804ZM194.471,47.382C200.995,47.555 206.557,46.223 209.991,41.452C204.391,40.718 199.091,41.855 194.471,47.382Z" style="fill:rgb(0,105,53);"/>
        <path d="M188.012,45.349C199.156,36.71 207.731,32.52 210.937,12.318C192.871,20.316 191.848,28.28 188.012,45.349Z" style="fill:rgb(110,193,61);"/>
        <path d="M184.789,45.349C191.71,29.528 187.196,13.866 174.034,3.597C169.141,27.501 185.6,31.321 184.789,45.349Z" style="fill:rgb(0,150,69);"/>
    </g>
    <path d="M150.023,75.851C143.414,85.158 131.649,80.822 131.662,73.81L131.662,54.498C131.141,52.529 129.712,51.8 127.85,51.66L127.85,50.854L137.557,50.854C138.885,50.854 139.961,51.93 139.961,53.258L139.961,73.81C141.262,78.379 146.029,77.781 150.023,73.03L150.023,54.498C149.501,52.529 148.072,51.8 146.211,51.66L146.211,50.854L161.809,50.854L161.809,51.66C159.947,51.8 158.518,52.529 157.997,54.498L157.997,84.363C156.937,90.701 154.244,94.26 150.047,95.259L150.023,95.265C141.046,98.24 132.66,95.626 131.73,89.164C131.685,88.954 131.662,88.736 131.662,88.513C131.662,86.772 133.075,85.359 134.816,85.359C136.557,85.359 137.97,86.772 137.97,88.513C137.97,88.601 137.966,88.688 137.959,88.774L137.959,88.774C139.547,96.241 148.317,96.604 150.023,88.774L150.023,75.851ZM184.789,91.253L162.657,91.253L162.657,90.603L184.789,90.603L184.789,91.253ZM54.962,91.253L2.558,91.253L2.558,90.603L54.962,90.603L54.962,91.253ZM162.743,81.237L161.926,81.237L161.926,70.455L162.743,70.455C163.981,74.359 166.537,76.903 169.962,78.548C173.522,80.259 184.747,76.129 172.055,69.529C167.12,66.962 164.532,66.362 162.334,62.863C160.687,60.24 160.602,57.483 162.334,54.902C166.29,49.011 173.175,48.48 178.964,51.475C180.056,51.698 180.971,51.405 181.586,50.235L182.563,50.235L182.563,59.57L181.586,59.57L181.586,58.591C180.342,56.261 178.696,54.323 176.461,52.958C171.025,51.573 168.756,52.853 168.521,55.843C168.321,58.38 173.021,60.904 179.761,63.794C188.411,69.035 184.389,78.81 178.964,80.295C174.034,81.644 169.423,81.138 165.078,79.08C164.14,79.347 163.389,80.144 162.743,81.237ZM125.782,81.175L122.804,81.175C121.492,81.175 120.234,80.653 119.306,79.726C118.649,79.069 118.196,78.246 117.987,77.355C103.022,91.494 87.905,61.745 117.857,62.813L117.857,56.5C115.782,49.202 107.015,51.878 107.624,55.842L107.624,55.842C108.488,56.464 109.05,57.478 109.05,58.623C109.05,60.514 107.515,62.049 105.624,62.049C103.733,62.049 102.198,60.514 102.198,58.623C102.198,58.577 102.199,58.531 102.2,58.486L102.2,58.486C101.533,52.925 107.346,48.147 117.857,50.322L120.765,51.214C123.747,52.128 125.782,54.881 125.782,58L125.782,75.934C126.817,77.931 128.297,77.959 130.076,76.663L130.827,77.573C129.578,79.886 126.4,81.149 125.782,81.175ZM34.833,39.341L16.192,39.341L16.192,56.647L28.22,56.647C30.198,56.073 31.006,54.436 30.972,52.035L32,52.035L32,64.187L30.972,64.187C31.006,61.786 30.198,60.149 28.22,59.575L16.192,59.575L16.192,76.657C16.766,78.636 18.403,79.443 20.803,79.41L20.803,80.437L16.192,80.437L7.17,80.437L2.558,80.437L2.558,79.41C4.958,79.443 6.595,78.636 7.17,76.657L7.17,40.314C6.595,38.336 4.958,37.528 2.558,37.561L2.558,36.534L34.833,36.534L34.833,39.341ZM62.835,80.437L54.868,80.437L47.624,80.437L39.445,80.437L34.833,80.437L34.833,79.41C37.105,79.441 38.693,78.719 39.344,76.964L39.344,54.636C38.769,52.657 37.132,51.85 34.732,51.883L34.732,50.856L47.624,50.856L47.624,76.657C48.115,78.35 49.385,79.186 51.246,79.371C53.107,79.186 54.377,78.35 54.868,76.657L54.868,54.636C54.294,52.657 52.657,51.85 50.257,51.883L50.257,50.856L62.835,50.856L62.835,55.289C68.613,46.733 80.47,49.543 81.368,56.647L81.368,76.657C81.858,78.346 83.123,79.182 84.976,79.369C86.83,79.182 88.094,78.346 88.585,76.657L88.585,40.314C88.01,38.336 86.373,37.528 83.973,37.561L83.973,36.534L96.851,36.534L96.851,76.657C97.425,78.636 99.062,79.443 101.462,79.41L101.462,80.437L96.851,80.437L88.585,80.437L81.368,80.437L73.165,80.437L68.553,80.437L68.553,79.41C70.953,79.443 72.591,78.636 73.165,76.657L73.165,56.647L73.121,56.601C69.401,52.703 66.073,54.902 62.835,58.486L62.835,76.657C63.41,78.636 65.047,79.443 67.447,79.41L67.447,80.437L62.835,80.437ZM117.857,64.655L117.857,74.919C107.429,82.158 103.545,64.517 117.857,64.655ZM34.833,47.909L33.035,47.909C33.093,43.45 31.681,40.409 28.22,39.341L34.833,39.341L34.833,47.909ZM43.145,38.424C45.617,38.424 47.624,40.431 47.624,42.903C47.624,45.375 45.617,47.382 43.145,47.382C40.673,47.382 38.666,45.375 38.666,42.903C38.666,40.431 40.673,38.424 43.145,38.424Z" style="fill:rgb(62,72,85);"/>
</svg>
