<?xml version="1.0" encoding="UTF-8" standalone="no"?>
<!DOCTYPE svg PUBLIC "-//W3C//DTD SVG 1.1//EN" "http://www.w3.org/Graphics/SVG/1.1/DTD/svg11.dtd">
<svg width="100%" height="100%" viewBox="0 0 300 100" version="1.1" xmlns="http://www.w3.org/2000/svg" xmlns:xlink="http://www.w3.org/1999/xlink" xml:space="preserve" xmlns:serif="http://www.serif.com/" style="fill-rule:evenodd;clip-rule:evenodd;stroke-linejoin:round;stroke-miterlimit:2;">
    <g id="Logo" transform="matrix(0.259175,0,0,0.259175,0,-12.7462)">
        <path d="M418,378.8L418,416.1L407.9,416.1L407.3,409.7C402.6,414.8 396.1,417.8 388.2,417.8C369.1,417.8 354.4,401.7 354.4,383.1C354.4,364.4 369.1,348.4 388.2,348.4C400.1,348.4 411.1,353.7 416.1,363L404.9,370.2C402.5,364.7 396.7,361.7 388.3,361.7C376,361.7 369.4,367.7 369.4,379.2L369.4,387.5C369.4,399 376,405 388.3,405C398.1,405 404.5,400.3 405.8,391.2L388.3,391.2L388.3,378.8L418,378.8ZM500.8,416.1L487.4,394.8L474.8,394.8L474.8,416.1L461.1,416.1L461.1,349.8L489.3,349.8C503.9,349.8 515.2,359.6 515.2,372.3C515.2,380.8 509.8,387.9 501.7,391.8L517.4,416.2L500.8,416.2L500.8,416.1ZM474.8,382.4L488.7,382.4C496.9,382.4 500.3,379.8 500.3,374.3L500.3,370.5C500.3,365 496.9,362.3 488.7,362.3L477.5,362.3L474.8,365L474.8,382.4ZM551,383.1C551,364.4 565.7,348.4 584.8,348.4C603.9,348.4 618.5,364.5 618.5,383.1C618.5,401.8 603.9,417.8 584.8,417.8C565.7,417.8 551,401.7 551,383.1ZM603.5,387.2L603.5,378.9C603.5,367.4 596.9,361.6 584.8,361.6C572.7,361.6 566,367.4 566,378.9L566,387.2C566,398.6 572.6,404.5 584.8,404.5C596.9,404.5 603.5,398.6 603.5,387.2ZM714.6,349.8L714.6,389.8C714.6,406.1 700.7,417.8 686.2,417.8C671.7,417.8 657.6,406.7 657.6,389.8L657.6,349.8L671.5,349.8L671.5,389.8C671.5,400.4 678.4,404.5 686.1,404.5C693.7,404.5 700.6,400.3 700.6,389.8L700.6,349.8L714.6,349.8ZM811,372.3C811,385 800.3,394.9 785.1,394.9L770.6,394.9L770.6,416.2L756.9,416.2L756.9,349.9L785.1,349.9C799.7,349.8 811,359.6 811,372.3ZM796.1,370.5C796.1,365 792.7,362.3 784.5,362.3L773.3,362.3L770.6,365L770.6,382.4L784.5,382.4C792.7,382.4 796.1,379.8 796.1,374.3L796.1,370.5ZM80.2,83.4L80.2,93.5L121.9,93.5L121.9,106.3L80.2,106.3L80.2,134.3L66.5,134.3L66.5,67.9L121.9,67.9L121.9,80.7L82.9,80.7L80.2,83.4ZM217.1,121.5L217.1,134.3L166.3,134.3L166.3,121.5L182.3,121.5L185,118.8L185,83.5L182.3,80.8L166.3,80.8L166.3,68L217.1,68L217.1,80.8L201.1,80.8L198.4,83.5L198.4,118.8L201.1,121.5L217.1,121.5ZM290.3,79.5C281,79.5 277.3,82 277.1,86.5C277,91.9 279.9,92 297,95.2C312.7,98.1 319.3,104 319.3,114.1C319.3,126.2 307.3,135.8 291.1,135.8C276,135.8 267.9,130.7 260.2,124.4L267.7,113.6C274.1,118.9 280.1,122.7 291.1,122.7C301.2,122.7 305.3,120.1 305.3,115.5C305.3,111.1 303.5,109.8 294.8,108.3L285.7,106.7C271.2,104.2 263.4,97.1 263.4,87.6C263.4,76 274.5,66.5 290.3,66.5C300.8,66.5 310.5,69.8 317.2,76.1L309.9,86.2C305.4,82.2 299.9,79.5 290.3,79.5ZM404.1,134.4L384,106.9L375.3,106.9L375.3,134.3L361.6,134.3L361.6,68L375.3,68L375.3,93L383.8,93L408.1,66.6L417.3,75.7L395.4,99.3L420.7,134.4L404.1,134.4ZM500.8,119.9L474.2,119.9L469.5,134.4L454.9,134.4L477.3,68L497.7,68L520.2,134.3L505.6,134.3L500.8,119.9ZM480.3,107L494.6,107L496.1,105.4L488.8,83L486.2,83L478.9,105.4L480.3,107ZM601,134.4L587.6,113.1L575,113.1L575,134.4L561.3,134.4L561.3,68L589.5,68C604.1,68 615.4,77.8 615.4,90.5C615.4,99 610,106.1 601.9,110L617.6,134.4L601,134.4ZM575,100.6L588.9,100.6C597.1,100.6 600.5,98 600.5,92.5L600.5,88.7C600.5,83.2 597.1,80.5 588.9,80.5L577.7,80.5L575,83.2L575,100.6ZM683.2,79.5C673.9,79.5 670.2,82 670,86.5C669.9,91.9 672.8,92 689.9,95.2C705.6,98.1 712.2,104 712.2,114.1C712.2,126.2 700.2,135.8 684,135.8C668.9,135.8 660.8,130.7 653.1,124.4L660.6,113.6C667,118.9 673,122.7 684,122.7C694.1,122.7 698.2,120.1 698.2,115.5C698.2,111.1 696.4,109.8 687.7,108.3L678.6,106.7C664.1,104.2 656.3,97.1 656.3,87.6C656.3,76 667.4,66.5 683.2,66.5C693.7,66.5 703.4,69.8 710.1,76.1L702.8,86.2C698.2,82.2 692.7,79.5 683.2,79.5Z" style="fill-rule:nonzero;"/>
    </g>
    <g id="Symbol" transform="matrix(0.259175,0,0,0.259175,0,-12.7462)">
        <path d="M526.4,235C507.5,224.9 498.3,215.7 488.2,196.8C488,196.4 487.5,196.1 487,196.1L484.7,196.1C484.2,196.1 483.7,196.4 483.5,196.8C473.4,215.7 464.2,224.9 445.3,235C444.9,235.2 444.6,235.7 444.6,236.2L444.6,238.5C444.6,239 444.9,239.5 445.3,239.7C464.2,249.8 473.4,259 483.5,277.9C483.7,278.3 484.2,278.6 484.7,278.6L487,278.6C487.5,278.6 488,278.3 488.2,277.9C498.3,259 507.5,249.8 526.4,239.7C526.8,239.5 527.1,239 527.1,238.5L527.1,236.2C527.1,235.7 526.8,235.3 526.4,235ZM495.2,239.3C494.6,244.2 491.3,247 485.8,247C480.3,247 477,244.2 476.4,239.3C476.3,238.8 476.3,237.7 476.3,237.1C476.3,231.2 479.8,227.8 485.8,227.8C491.7,227.8 495.3,231.2 495.3,237.1C495.3,237.7 495.3,238.8 495.2,239.3Z" style="fill:rgb(224,255,38);fill-rule:nonzero;"/>
    </g>
</svg>
