<?xml version="1.0" encoding="UTF-8" standalone="no"?>
<!DOCTYPE svg PUBLIC "-//W3C//DTD SVG 1.1//EN" "http://www.w3.org/Graphics/SVG/1.1/DTD/svg11.dtd">
<svg width="100%" height="100%" viewBox="0 0 300 100" version="1.1" xmlns="http://www.w3.org/2000/svg" xmlns:xlink="http://www.w3.org/1999/xlink" xml:space="preserve" xmlns:serif="http://www.serif.com/" style="fill-rule:evenodd;clip-rule:evenodd;stroke-linejoin:round;stroke-miterlimit:2;">
    <path d="M2.167,64.868L2.167,95.603C11.342,84.494 22.159,75.823 35.902,71.495C31.392,67.274 26.258,63.707 20.393,60.904C14.863,63.425 8.8,64.772 2.167,64.868ZM26.123,60.904C36.37,63.926 47.407,65.736 59.588,65.795C66.822,58.75 74.779,53.052 83.616,48.995C80.41,46.136 78.657,42.855 78.291,39.173C77.796,34.193 72.944,21.353 64.453,12.012L57.37,13.169C70.88,36.48 55.131,55.539 26.123,60.904ZM2.167,55.655C4.854,56.52 7.8,56.918 10.983,56.892C8.663,58.694 5.714,59.73 2.167,60.034L2.167,55.655ZM51.059,3.583C53.71,11.369 54.855,19.332 53.776,27.558C53.437,30.149 54.535,33.454 55.889,36.401C46.438,40.815 37.635,47.066 29.579,55.435C20.621,52.437 11.428,51.645 2.167,51.472L2.167,48.995C7.439,49.649 12.692,49.341 17.784,48.995C40.726,47.437 57.602,22.916 39.845,8.554C39.004,7.428 37.393,8.333 38.326,9.322C39.561,10.633 40.04,12.262 40.476,13.91C33.627,9.098 26.058,6.812 17.784,7C19.366,5.539 21.073,4.212 23.434,3.583L51.059,3.583ZM2.167,39.173L2.167,44.757C8.131,45.406 13.069,45.04 17.295,44.026C11.491,43.664 6.446,42.051 2.167,39.173ZM21.764,9.322C34.163,19.317 35.94,29.701 30.629,40.344C38.827,35.882 43.227,29.686 39.474,19.766C39.525,22.545 39.091,25.182 37.421,27.461C36.927,18.106 31.489,12.212 21.764,9.322ZM2.167,24.282L2.167,34.498C11.361,40.255 18.38,40.252 24.212,37.108C12.685,37.377 5.337,33.102 2.167,24.282ZM16.76,17.722C8.152,21.893 14.477,28.724 16.76,29.264C23.043,30.748 26.471,28.285 24.212,21.518C31.163,28.827 24.698,33.732 18.707,32.964C12.036,32.11 4.286,19.293 16.76,17.722ZM6.696,22.391C5.404,0.844 34.927,15.353 17.295,24.282C26.652,12.135 9.235,9.792 6.696,22.391ZM17.295,3.583C10.644,6.325 5.965,10.205 2.979,15.061C3.706,10.801 5.316,6.776 10.053,3.583L17.295,3.583ZM76.168,3.583C73.906,6.599 72.711,10.112 72.556,14.109C70.001,12.408 67.866,10.181 66.187,7.383L58.074,8.968C56.871,7.319 56.519,5.471 56.343,3.583L76.168,3.583Z" style="fill:rgb(243,63,45);fill-opacity:0.99;"/>
    <g transform="matrix(1.00484,0,0,1,-3.02,-1.08192)">
        <g transform="matrix(35,0,0,35,95.2104,69.0583)">
            <path d="M0.073,0L0.073,-0.716L0.305,-0.716C0.393,-0.716 0.45,-0.712 0.477,-0.705C0.518,-0.694 0.552,-0.671 0.58,-0.635C0.607,-0.599 0.621,-0.553 0.621,-0.496C0.621,-0.452 0.613,-0.415 0.597,-0.385C0.581,-0.355 0.561,-0.331 0.536,-0.314C0.512,-0.297 0.487,-0.286 0.461,-0.28C0.427,-0.273 0.377,-0.27 0.312,-0.27L0.217,-0.27L0.217,0L0.073,0ZM0.217,-0.595L0.217,-0.392L0.296,-0.392C0.353,-0.392 0.391,-0.395 0.411,-0.403C0.43,-0.41 0.445,-0.422 0.456,-0.438C0.467,-0.454 0.472,-0.472 0.472,-0.494C0.472,-0.52 0.465,-0.541 0.449,-0.558C0.434,-0.575 0.415,-0.586 0.391,-0.59C0.374,-0.593 0.339,-0.595 0.287,-0.595L0.217,-0.595Z" style="fill:rgb(0,183,221);fill-rule:nonzero;"/>
        </g>
        <g transform="matrix(35,0,0,35,118.555,69.0583)">
            <path d="M0.203,0L0.066,0L0.066,-0.519L0.193,-0.519L0.193,-0.445C0.215,-0.48 0.235,-0.503 0.252,-0.514C0.27,-0.525 0.289,-0.53 0.312,-0.53C0.343,-0.53 0.373,-0.522 0.402,-0.504L0.359,-0.385C0.336,-0.4 0.315,-0.407 0.295,-0.407C0.276,-0.407 0.259,-0.402 0.246,-0.391C0.233,-0.381 0.222,-0.362 0.215,-0.334C0.207,-0.306 0.203,-0.248 0.203,-0.16L0.203,0Z" style="fill:rgb(0,183,221);fill-rule:nonzero;"/>
        </g>
        <g transform="matrix(35,0,0,35,132.176,69.0583)">
            <path d="M0.04,-0.267C0.04,-0.312 0.051,-0.356 0.074,-0.399C0.096,-0.442 0.128,-0.474 0.169,-0.497C0.21,-0.519 0.256,-0.53 0.307,-0.53C0.386,-0.53 0.45,-0.505 0.5,-0.454C0.55,-0.403 0.575,-0.339 0.575,-0.261C0.575,-0.182 0.55,-0.117 0.499,-0.066C0.449,-0.014 0.385,0.012 0.308,0.012C0.261,0.012 0.215,0.001 0.172,-0.021C0.129,-0.042 0.096,-0.073 0.074,-0.115C0.051,-0.156 0.04,-0.207 0.04,-0.267ZM0.181,-0.259C0.181,-0.208 0.193,-0.168 0.217,-0.141C0.242,-0.114 0.272,-0.1 0.308,-0.1C0.343,-0.1 0.373,-0.114 0.398,-0.141C0.422,-0.168 0.434,-0.208 0.434,-0.26C0.434,-0.311 0.422,-0.35 0.398,-0.377C0.373,-0.405 0.343,-0.418 0.308,-0.418C0.272,-0.418 0.242,-0.405 0.217,-0.377C0.193,-0.35 0.181,-0.311 0.181,-0.259Z" style="fill:rgb(0,183,221);fill-rule:nonzero;"/>
        </g>
        <g transform="matrix(35,0,0,35,153.555,69.0583)">
            <path d="M0.214,0L0.005,-0.519L0.149,-0.519L0.247,-0.254L0.275,-0.166C0.283,-0.188 0.288,-0.203 0.29,-0.21C0.294,-0.225 0.299,-0.239 0.304,-0.254L0.403,-0.519L0.544,-0.519L0.338,0L0.214,0Z" style="fill:rgb(0,183,221);fill-rule:nonzero;"/>
        </g>
        <g transform="matrix(35,0,0,35,173.02,69.0583)">
            <path d="M0.072,-0.589L0.072,-0.716L0.209,-0.716L0.209,-0.589L0.072,-0.589ZM0.072,0L0.072,-0.519L0.209,-0.519L0.209,0L0.072,0Z" style="fill:rgb(0,183,221);fill-rule:nonzero;"/>
        </g>
        <g transform="matrix(35,0,0,35,182.745,69.0583)">
            <path d="M0.547,0L0.42,0L0.42,-0.076C0.399,-0.047 0.374,-0.024 0.345,-0.01C0.316,0.004 0.287,0.012 0.258,0.012C0.198,0.012 0.147,-0.012 0.105,-0.06C0.062,-0.108 0.041,-0.175 0.041,-0.261C0.041,-0.349 0.062,-0.416 0.103,-0.462C0.144,-0.507 0.197,-0.53 0.26,-0.53C0.318,-0.53 0.368,-0.506 0.41,-0.458L0.41,-0.716L0.547,-0.716L0.547,0ZM0.181,-0.271C0.181,-0.215 0.189,-0.175 0.204,-0.15C0.226,-0.115 0.257,-0.097 0.297,-0.097C0.328,-0.097 0.355,-0.11 0.377,-0.137C0.4,-0.164 0.411,-0.204 0.411,-0.257C0.411,-0.317 0.4,-0.36 0.378,-0.386C0.357,-0.412 0.329,-0.425 0.296,-0.425C0.263,-0.425 0.236,-0.412 0.214,-0.386C0.192,-0.361 0.181,-0.322 0.181,-0.271Z" style="fill:rgb(0,183,221);fill-rule:nonzero;"/>
        </g>
        <g transform="matrix(35,0,0,35,204.124,69.0583)">
            <path d="M0.372,-0.165L0.509,-0.142C0.491,-0.092 0.463,-0.054 0.426,-0.028C0.388,-0.001 0.34,0.012 0.283,0.012C0.193,0.012 0.126,-0.018 0.083,-0.077C0.049,-0.124 0.032,-0.183 0.032,-0.255C0.032,-0.341 0.054,-0.409 0.099,-0.457C0.144,-0.506 0.201,-0.53 0.27,-0.53C0.347,-0.53 0.408,-0.505 0.452,-0.454C0.497,-0.403 0.518,-0.325 0.516,-0.22L0.172,-0.22C0.173,-0.179 0.184,-0.147 0.206,-0.125C0.227,-0.102 0.253,-0.091 0.285,-0.091C0.306,-0.091 0.324,-0.097 0.339,-0.108C0.354,-0.12 0.365,-0.139 0.372,-0.165ZM0.38,-0.304C0.379,-0.343 0.369,-0.374 0.349,-0.394C0.33,-0.415 0.306,-0.425 0.278,-0.425C0.248,-0.425 0.223,-0.414 0.204,-0.393C0.184,-0.371 0.174,-0.341 0.175,-0.304L0.38,-0.304Z" style="fill:rgb(0,183,221);fill-rule:nonzero;"/>
        </g>
        <g transform="matrix(35,0,0,35,223.589,69.0583)">
            <path d="M0.543,0L0.406,0L0.406,-0.265C0.406,-0.321 0.403,-0.357 0.397,-0.373C0.392,-0.39 0.382,-0.403 0.369,-0.412C0.356,-0.421 0.34,-0.425 0.321,-0.425C0.298,-0.425 0.276,-0.419 0.257,-0.406C0.238,-0.393 0.226,-0.375 0.219,-0.354C0.212,-0.333 0.208,-0.293 0.208,-0.235L0.208,0L0.071,0L0.071,-0.519L0.198,-0.519L0.198,-0.442C0.243,-0.501 0.3,-0.53 0.369,-0.53C0.399,-0.53 0.427,-0.525 0.452,-0.514C0.477,-0.503 0.496,-0.489 0.509,-0.472C0.522,-0.455 0.531,-0.436 0.536,-0.415C0.541,-0.393 0.543,-0.362 0.543,-0.322L0.543,0Z" style="fill:rgb(0,183,221);fill-rule:nonzero;"/>
        </g>
        <g transform="matrix(35,0,0,35,244.969,69.0583)">
            <path d="M0.31,-0.519L0.31,-0.409L0.216,-0.409L0.216,-0.2C0.216,-0.158 0.217,-0.133 0.219,-0.126C0.22,-0.119 0.224,-0.113 0.231,-0.109C0.237,-0.104 0.245,-0.102 0.254,-0.102C0.267,-0.102 0.285,-0.106 0.309,-0.115L0.321,-0.009C0.289,0.005 0.253,0.012 0.212,0.012C0.188,0.012 0.165,0.008 0.146,-0.001C0.126,-0.009 0.111,-0.02 0.102,-0.033C0.093,-0.046 0.086,-0.064 0.083,-0.086C0.08,-0.102 0.078,-0.135 0.078,-0.183L0.078,-0.409L0.015,-0.409L0.015,-0.519L0.078,-0.519L0.078,-0.622L0.216,-0.702L0.216,-0.519L0.31,-0.519Z" style="fill:rgb(0,183,221);fill-rule:nonzero;"/>
        </g>
    </g>
    <g transform="matrix(0.789743,0,0,0.888695,17.9745,34.6503)">
        <g transform="matrix(35,0,0,35,95.2104,69.0583)">
            <rect x="0.068" y="-0.716" width="0.145" height="0.716" style="fill:rgb(0,58,100);fill-rule:nonzero;"/>
        </g>
        <g transform="matrix(35,0,0,35,104.935,69.0583)">
            <path d="M0.543,0L0.406,0L0.406,-0.265C0.406,-0.321 0.403,-0.357 0.397,-0.373C0.392,-0.39 0.382,-0.403 0.369,-0.412C0.356,-0.421 0.34,-0.425 0.321,-0.425C0.298,-0.425 0.276,-0.419 0.257,-0.406C0.238,-0.393 0.226,-0.375 0.219,-0.354C0.212,-0.333 0.208,-0.293 0.208,-0.235L0.208,0L0.071,0L0.071,-0.519L0.198,-0.519L0.198,-0.442C0.243,-0.501 0.3,-0.53 0.369,-0.53C0.399,-0.53 0.427,-0.525 0.452,-0.514C0.477,-0.503 0.496,-0.489 0.509,-0.472C0.522,-0.455 0.531,-0.436 0.536,-0.415C0.541,-0.393 0.543,-0.362 0.543,-0.322L0.543,0Z" style="fill:rgb(0,58,100);fill-rule:nonzero;"/>
        </g>
        <g transform="matrix(35,0,0,35,126.314,69.0583)">
            <path d="M0.31,-0.519L0.31,-0.409L0.216,-0.409L0.216,-0.2C0.216,-0.158 0.217,-0.133 0.219,-0.126C0.22,-0.119 0.224,-0.113 0.231,-0.109C0.237,-0.104 0.245,-0.102 0.254,-0.102C0.267,-0.102 0.285,-0.106 0.309,-0.115L0.321,-0.009C0.289,0.005 0.253,0.012 0.212,0.012C0.188,0.012 0.165,0.008 0.146,-0.001C0.126,-0.009 0.111,-0.02 0.102,-0.033C0.093,-0.046 0.086,-0.064 0.083,-0.086C0.08,-0.102 0.078,-0.135 0.078,-0.183L0.078,-0.409L0.015,-0.409L0.015,-0.519L0.078,-0.519L0.078,-0.622L0.216,-0.702L0.216,-0.519L0.31,-0.519Z" style="fill:rgb(0,58,100);fill-rule:nonzero;"/>
        </g>
        <g transform="matrix(35,0,0,35,137.969,69.0583)">
            <path d="M0.372,-0.165L0.509,-0.142C0.491,-0.092 0.463,-0.054 0.426,-0.028C0.388,-0.001 0.34,0.012 0.283,0.012C0.193,0.012 0.126,-0.018 0.083,-0.077C0.049,-0.124 0.032,-0.183 0.032,-0.255C0.032,-0.341 0.054,-0.409 0.099,-0.457C0.144,-0.506 0.201,-0.53 0.27,-0.53C0.347,-0.53 0.408,-0.505 0.452,-0.454C0.497,-0.403 0.518,-0.325 0.516,-0.22L0.172,-0.22C0.173,-0.179 0.184,-0.147 0.206,-0.125C0.227,-0.102 0.253,-0.091 0.285,-0.091C0.306,-0.091 0.324,-0.097 0.339,-0.108C0.354,-0.12 0.365,-0.139 0.372,-0.165ZM0.38,-0.304C0.379,-0.343 0.369,-0.374 0.349,-0.394C0.33,-0.415 0.306,-0.425 0.278,-0.425C0.248,-0.425 0.223,-0.414 0.204,-0.393C0.184,-0.371 0.174,-0.341 0.175,-0.304L0.38,-0.304Z" style="fill:rgb(0,58,100);fill-rule:nonzero;"/>
        </g>
        <g transform="matrix(35,0,0,35,157.435,69.0583)">
            <path d="M0.203,0L0.066,0L0.066,-0.519L0.193,-0.519L0.193,-0.445C0.215,-0.48 0.235,-0.503 0.252,-0.514C0.27,-0.525 0.289,-0.53 0.312,-0.53C0.343,-0.53 0.373,-0.522 0.402,-0.504L0.359,-0.385C0.336,-0.4 0.315,-0.407 0.295,-0.407C0.276,-0.407 0.259,-0.402 0.246,-0.391C0.233,-0.381 0.222,-0.362 0.215,-0.334C0.207,-0.306 0.203,-0.248 0.203,-0.16L0.203,0Z" style="fill:rgb(0,58,100);fill-rule:nonzero;"/>
        </g>
        <g transform="matrix(35,0,0,35,171.055,69.0583)">
            <path d="M0.543,0L0.406,0L0.406,-0.265C0.406,-0.321 0.403,-0.357 0.397,-0.373C0.392,-0.39 0.382,-0.403 0.369,-0.412C0.356,-0.421 0.34,-0.425 0.321,-0.425C0.298,-0.425 0.276,-0.419 0.257,-0.406C0.238,-0.393 0.226,-0.375 0.219,-0.354C0.212,-0.333 0.208,-0.293 0.208,-0.235L0.208,0L0.071,0L0.071,-0.519L0.198,-0.519L0.198,-0.442C0.243,-0.501 0.3,-0.53 0.369,-0.53C0.399,-0.53 0.427,-0.525 0.452,-0.514C0.477,-0.503 0.496,-0.489 0.509,-0.472C0.522,-0.455 0.531,-0.436 0.536,-0.415C0.541,-0.393 0.543,-0.362 0.543,-0.322L0.543,0Z" style="fill:rgb(0,58,100);fill-rule:nonzero;"/>
        </g>
        <g transform="matrix(35,0,0,35,192.435,69.0583)">
            <path d="M0.174,-0.36L0.05,-0.383C0.064,-0.433 0.088,-0.47 0.122,-0.494C0.156,-0.518 0.207,-0.53 0.274,-0.53C0.336,-0.53 0.381,-0.523 0.411,-0.509C0.441,-0.494 0.462,-0.476 0.474,-0.453C0.487,-0.431 0.493,-0.39 0.493,-0.331L0.491,-0.17C0.491,-0.125 0.493,-0.091 0.498,-0.07C0.502,-0.048 0.51,-0.025 0.522,0L0.387,0C0.383,-0.009 0.379,-0.023 0.374,-0.041C0.371,-0.049 0.37,-0.054 0.369,-0.057C0.345,-0.034 0.32,-0.017 0.293,-0.005C0.267,0.006 0.238,0.012 0.208,0.012C0.155,0.012 0.113,-0.003 0.082,-0.032C0.051,-0.061 0.036,-0.097 0.036,-0.142C0.036,-0.171 0.043,-0.197 0.057,-0.22C0.071,-0.243 0.09,-0.26 0.115,-0.273C0.141,-0.285 0.177,-0.296 0.225,-0.305C0.289,-0.317 0.333,-0.328 0.358,-0.338L0.358,-0.352C0.358,-0.378 0.351,-0.397 0.338,-0.408C0.325,-0.42 0.301,-0.425 0.265,-0.425C0.24,-0.425 0.221,-0.42 0.208,-0.411C0.194,-0.401 0.183,-0.384 0.174,-0.36ZM0.358,-0.249C0.34,-0.243 0.313,-0.236 0.274,-0.228C0.236,-0.22 0.211,-0.212 0.2,-0.204C0.182,-0.191 0.173,-0.175 0.173,-0.156C0.173,-0.137 0.18,-0.12 0.194,-0.106C0.209,-0.092 0.227,-0.085 0.249,-0.085C0.274,-0.085 0.297,-0.093 0.32,-0.109C0.336,-0.122 0.347,-0.137 0.353,-0.155C0.356,-0.167 0.358,-0.189 0.358,-0.222L0.358,-0.249Z" style="fill:rgb(0,58,100);fill-rule:nonzero;"/>
        </g>
        <g transform="matrix(35,0,0,35,211.9,69.0583)">
            <path d="M0.31,-0.519L0.31,-0.409L0.216,-0.409L0.216,-0.2C0.216,-0.158 0.217,-0.133 0.219,-0.126C0.22,-0.119 0.224,-0.113 0.231,-0.109C0.237,-0.104 0.245,-0.102 0.254,-0.102C0.267,-0.102 0.285,-0.106 0.309,-0.115L0.321,-0.009C0.289,0.005 0.253,0.012 0.212,0.012C0.188,0.012 0.165,0.008 0.146,-0.001C0.126,-0.009 0.111,-0.02 0.102,-0.033C0.093,-0.046 0.086,-0.064 0.083,-0.086C0.08,-0.102 0.078,-0.135 0.078,-0.183L0.078,-0.409L0.015,-0.409L0.015,-0.519L0.078,-0.519L0.078,-0.622L0.216,-0.702L0.216,-0.519L0.31,-0.519Z" style="fill:rgb(0,58,100);fill-rule:nonzero;"/>
        </g>
        <g transform="matrix(35,0,0,35,223.555,69.0583)">
            <path d="M0.072,-0.589L0.072,-0.716L0.209,-0.716L0.209,-0.589L0.072,-0.589ZM0.072,0L0.072,-0.519L0.209,-0.519L0.209,0L0.072,0Z" style="fill:rgb(0,58,100);fill-rule:nonzero;"/>
        </g>
        <g transform="matrix(35,0,0,35,233.279,69.0583)">
            <path d="M0.04,-0.267C0.04,-0.312 0.051,-0.356 0.074,-0.399C0.096,-0.442 0.128,-0.474 0.169,-0.497C0.21,-0.519 0.256,-0.53 0.307,-0.53C0.386,-0.53 0.45,-0.505 0.5,-0.454C0.55,-0.403 0.575,-0.339 0.575,-0.261C0.575,-0.182 0.55,-0.117 0.499,-0.066C0.449,-0.014 0.385,0.012 0.308,0.012C0.261,0.012 0.215,0.001 0.172,-0.021C0.129,-0.042 0.096,-0.073 0.074,-0.115C0.051,-0.156 0.04,-0.207 0.04,-0.267ZM0.181,-0.259C0.181,-0.208 0.193,-0.168 0.217,-0.141C0.242,-0.114 0.272,-0.1 0.308,-0.1C0.343,-0.1 0.373,-0.114 0.398,-0.141C0.422,-0.168 0.434,-0.208 0.434,-0.26C0.434,-0.311 0.422,-0.35 0.398,-0.377C0.373,-0.405 0.343,-0.418 0.308,-0.418C0.272,-0.418 0.242,-0.405 0.217,-0.377C0.193,-0.35 0.181,-0.311 0.181,-0.259Z" style="fill:rgb(0,58,100);fill-rule:nonzero;"/>
        </g>
        <g transform="matrix(35,0,0,35,254.659,69.0583)">
            <path d="M0.543,0L0.406,0L0.406,-0.265C0.406,-0.321 0.403,-0.357 0.397,-0.373C0.392,-0.39 0.382,-0.403 0.369,-0.412C0.356,-0.421 0.34,-0.425 0.321,-0.425C0.298,-0.425 0.276,-0.419 0.257,-0.406C0.238,-0.393 0.226,-0.375 0.219,-0.354C0.212,-0.333 0.208,-0.293 0.208,-0.235L0.208,0L0.071,0L0.071,-0.519L0.198,-0.519L0.198,-0.442C0.243,-0.501 0.3,-0.53 0.369,-0.53C0.399,-0.53 0.427,-0.525 0.452,-0.514C0.477,-0.503 0.496,-0.489 0.509,-0.472C0.522,-0.455 0.531,-0.436 0.536,-0.415C0.541,-0.393 0.543,-0.362 0.543,-0.322L0.543,0Z" style="fill:rgb(0,58,100);fill-rule:nonzero;"/>
        </g>
        <g transform="matrix(35,0,0,35,276.038,69.0583)">
            <path d="M0.174,-0.36L0.05,-0.383C0.064,-0.433 0.088,-0.47 0.122,-0.494C0.156,-0.518 0.207,-0.53 0.274,-0.53C0.336,-0.53 0.381,-0.523 0.411,-0.509C0.441,-0.494 0.462,-0.476 0.474,-0.453C0.487,-0.431 0.493,-0.39 0.493,-0.331L0.491,-0.17C0.491,-0.125 0.493,-0.091 0.498,-0.07C0.502,-0.048 0.51,-0.025 0.522,0L0.387,0C0.383,-0.009 0.379,-0.023 0.374,-0.041C0.371,-0.049 0.37,-0.054 0.369,-0.057C0.345,-0.034 0.32,-0.017 0.293,-0.005C0.267,0.006 0.238,0.012 0.208,0.012C0.155,0.012 0.113,-0.003 0.082,-0.032C0.051,-0.061 0.036,-0.097 0.036,-0.142C0.036,-0.171 0.043,-0.197 0.057,-0.22C0.071,-0.243 0.09,-0.26 0.115,-0.273C0.141,-0.285 0.177,-0.296 0.225,-0.305C0.289,-0.317 0.333,-0.328 0.358,-0.338L0.358,-0.352C0.358,-0.378 0.351,-0.397 0.338,-0.408C0.325,-0.42 0.301,-0.425 0.265,-0.425C0.24,-0.425 0.221,-0.42 0.208,-0.411C0.194,-0.401 0.183,-0.384 0.174,-0.36ZM0.358,-0.249C0.34,-0.243 0.313,-0.236 0.274,-0.228C0.236,-0.22 0.211,-0.212 0.2,-0.204C0.182,-0.191 0.173,-0.175 0.173,-0.156C0.173,-0.137 0.18,-0.12 0.194,-0.106C0.209,-0.092 0.227,-0.085 0.249,-0.085C0.274,-0.085 0.297,-0.093 0.32,-0.109C0.336,-0.122 0.347,-0.137 0.353,-0.155C0.356,-0.167 0.358,-0.189 0.358,-0.222L0.358,-0.249Z" style="fill:rgb(0,58,100);fill-rule:nonzero;"/>
        </g>
        <g transform="matrix(35,0,0,35,295.503,69.0583)">
            <rect x="0.072" y="-0.716" width="0.137" height="0.716" style="fill:rgb(0,58,100);fill-rule:nonzero;"/>
        </g>
    </g>
    <g transform="matrix(1.19717,0,0,1.25367,-185.468,-10.4104)">
        <path d="M234.452,38.904L234.452,11.162L253.47,11.162L253.47,15.855L240.054,15.855L240.054,22.421L251.635,22.421L251.635,27.114L240.054,27.114L240.054,38.904L234.452,38.904Z" style="fill:rgb(0,58,100);fill-rule:nonzero;stroke:rgb(0,58,100);stroke-width:1.36px;"/>
        <path d="M263.14,38.904L257.823,38.904L257.823,18.807L262.762,18.807L262.762,21.664C263.607,20.314 264.367,19.425 265.042,18.996C265.717,18.567 266.484,18.353 267.341,18.353C268.553,18.353 269.719,18.687 270.842,19.356L269.196,23.992C268.3,23.411 267.468,23.121 266.698,23.121C265.954,23.121 265.323,23.326 264.806,23.736C264.288,24.146 263.882,24.888 263.585,25.96C263.289,27.032 263.14,29.278 263.14,32.697L263.14,38.904Z" style="fill:rgb(0,58,100);fill-rule:nonzero;stroke:rgb(0,58,100);stroke-width:1.36px;"/>
        <path d="M273.132,16.082L273.132,11.162L278.45,11.162L278.45,16.082L273.132,16.082ZM273.132,38.904L273.132,18.807L278.45,18.807L278.45,38.904L273.132,38.904Z" style="fill:rgb(0,58,100);fill-rule:nonzero;stroke:rgb(0,58,100);stroke-width:1.36px;"/>
        <path d="M295.537,32.507L300.836,33.397C300.155,35.34 299.079,36.819 297.61,37.834C296.14,38.85 294.301,39.358 292.093,39.358C288.599,39.358 286.013,38.216 284.335,35.933C283.01,34.103 282.348,31.795 282.348,29.007C282.348,25.676 283.218,23.068 284.959,21.182C286.7,19.296 288.902,18.353 291.564,18.353C294.553,18.353 296.913,19.34 298.641,21.314C300.369,23.288 301.196,26.313 301.12,30.388L287.798,30.388C287.836,31.965 288.265,33.192 289.085,34.069C289.905,34.945 290.926,35.384 292.15,35.384C292.983,35.384 293.683,35.157 294.251,34.703C294.818,34.248 295.247,33.517 295.537,32.507ZM295.84,27.133C295.802,25.594 295.405,24.424 294.648,23.623C293.891,22.822 292.97,22.421 291.885,22.421C290.725,22.421 289.766,22.844 289.009,23.689C288.252,24.534 287.88,25.682 287.892,27.133L295.84,27.133Z" style="fill:rgb(0,58,100);fill-rule:nonzero;stroke:rgb(0,58,100);stroke-width:1.36px;"/>
        <path d="M323.734,38.904L318.416,38.904L318.416,28.647C318.416,26.477 318.302,25.074 318.075,24.436C317.848,23.799 317.479,23.304 316.968,22.951C316.457,22.598 315.842,22.421 315.123,22.421C314.202,22.421 313.376,22.673 312.644,23.178C311.913,23.683 311.411,24.351 311.14,25.184C310.869,26.017 310.733,27.556 310.733,29.801L310.733,38.904L305.416,38.904L305.416,18.807L310.355,18.807L310.355,21.759C312.108,19.488 314.316,18.353 316.978,18.353C318.151,18.353 319.223,18.564 320.195,18.987C321.166,19.409 321.901,19.948 322.399,20.604C322.898,21.26 323.245,22.005 323.44,22.837C323.636,23.67 323.734,24.862 323.734,26.414L323.734,38.904Z" style="fill:rgb(0,58,100);fill-rule:nonzero;stroke:rgb(0,58,100);stroke-width:1.36px;"/>
        <path d="M347.558,38.904L342.619,38.904L342.619,35.951C341.799,37.099 340.831,37.954 339.714,38.516C338.598,39.077 337.472,39.358 336.337,39.358C334.028,39.358 332.05,38.427 330.404,36.566C328.758,34.706 327.935,32.11 327.935,28.779C327.935,25.373 328.736,22.784 330.338,21.011C331.94,19.239 333.965,18.353 336.412,18.353C338.658,18.353 340.601,19.286 342.241,21.153L342.241,11.162L347.558,11.162L347.558,38.904ZM333.366,28.42C333.366,30.565 333.662,32.116 334.255,33.075C335.113,34.463 336.311,35.157 337.85,35.157C339.074,35.157 340.115,34.636 340.973,33.595C341.831,32.555 342.26,31 342.26,28.931C342.26,26.622 341.843,24.96 341.011,23.944C340.178,22.929 339.112,22.421 337.813,22.421C336.551,22.421 335.494,22.923 334.643,23.926C333.791,24.929 333.366,26.427 333.366,28.42Z" style="fill:rgb(0,58,100);fill-rule:nonzero;stroke:rgb(0,58,100);stroke-width:1.36px;"/>
        <path d="M350.927,33.17L356.263,32.356C356.49,33.39 356.951,34.176 357.644,34.712C358.338,35.248 359.31,35.516 360.559,35.516C361.934,35.516 362.968,35.264 363.662,34.759C364.129,34.406 364.362,33.933 364.362,33.34C364.362,32.936 364.236,32.602 363.984,32.337C363.719,32.085 363.126,31.851 362.205,31.637C357.916,30.691 355.197,29.827 354.049,29.044C352.459,27.959 351.665,26.452 351.665,24.522C351.665,22.781 352.352,21.317 353.727,20.131C355.102,18.946 357.234,18.353 360.123,18.353C362.874,18.353 364.917,18.8 366.255,19.696C367.592,20.592 368.513,21.917 369.018,23.67L364.003,24.597C363.788,23.815 363.381,23.216 362.782,22.8C362.183,22.383 361.328,22.175 360.218,22.175C358.818,22.175 357.815,22.371 357.209,22.762C356.806,23.039 356.604,23.399 356.604,23.84C356.604,24.219 356.78,24.541 357.134,24.806C357.613,25.159 359.269,25.657 362.101,26.3C364.933,26.944 366.911,27.732 368.034,28.666C369.144,29.612 369.699,30.93 369.699,32.621C369.699,34.463 368.929,36.046 367.39,37.371C365.851,38.695 363.574,39.358 360.559,39.358C357.821,39.358 355.654,38.803 354.058,37.692C352.463,36.582 351.419,35.075 350.927,33.17Z" style="fill:rgb(0,58,100);fill-rule:nonzero;stroke:rgb(0,58,100);stroke-width:1.36px;"/>
    </g>
</svg>
