<?xml version="1.0" encoding="UTF-8" standalone="no"?>
<!DOCTYPE svg PUBLIC "-//W3C//DTD SVG 1.1//EN" "http://www.w3.org/Graphics/SVG/1.1/DTD/svg11.dtd">
<svg width="100%" height="100%" viewBox="0 0 300 100" version="1.1" xmlns="http://www.w3.org/2000/svg" xmlns:xlink="http://www.w3.org/1999/xlink" xml:space="preserve" xmlns:serif="http://www.serif.com/" style="fill-rule:evenodd;clip-rule:evenodd;stroke-linejoin:round;stroke-miterlimit:2;">
    <g transform="matrix(1.11225,0,0,1.11225,-33.106,11.2659)">
        <g transform="matrix(0.653252,0,0,0.653252,31,17.8481)">
            <path d="M72.8,48.3L74.7,47.6C77.4,46.5 77.8,45.8 77.6,44L77.6,36.8C79.6,42 81.6,45.6 85.5,45.6C86,45.6 86.6,45.5 87.2,45.4L88.7,45.1L87.6,43.9C86.9,43.2 86.6,42.6 86.2,41.9C86,41.6 85.9,41.3 85.7,41C84.8,39.5 82.6,39 80.8,39.8C80,38.2 79.2,36.1 78.2,33.5L78,33C77.8,32.6 77.7,32.2 77.5,31.8L77.5,31.7C76.9,30.3 76.2,29 75.5,27.7C74.8,26.5 74.1,25.5 73.3,24.6C71.2,22.2 68.5,20.7 65.2,20.1C62.9,19.7 61.3,19.6 59.2,19.5C58.8,19.5 58.3,19.5 57.9,19.4C57,19.3 55.1,19.2 53.2,19C51.9,18.9 50.7,18.8 49.7,18.7C49.8,18.4 49.8,18.1 49.8,17.8C49.8,17.4 49.8,17 49.7,16.7L62.9,16.7C66.3,16.7 68.8,15.2 70.2,12.2C73.6,12.2 76,10.6 77.5,7.7L78,7.7C81.5,7.7 84,6.1 85.5,2.9L86,2L41.4,2C38.5,2 36,3.9 35,6.9L35,7C34.2,4.9 32.9,3.1 31.1,2C28.6,0.5 25.8,0 23.6,0.7C22.9,0.9 22.1,1.2 21.5,1.6C21,2 20.2,2.5 19.7,3.2C19.1,3.9 18.6,4.8 18.2,5.6C17.9,5.8 17.7,6 17.6,6.2L17.1,7.2L17.1,7.3C16.5,8.7 15.7,9.7 15.1,10.5C14.5,11.2 14.5,11.9 14.5,12.3C14.6,12.8 14.8,13.2 15.1,13.5C14.9,13.8 14.8,14.2 14.8,14.5C14.8,15.7 15.8,16.6 17.1,16.6C18,16.6 18.8,16.2 19.6,15.6C19.9,15.4 20.8,14.8 21.1,14.8C21.5,14.8 21.8,15.1 21.8,15.5C21.8,16.5 20.6,17 19.7,17L17.9,17.2C16.6,17.3 16,18 16,18.6C16,19.2 16.3,19.6 16.5,19.8L16.6,19.9L17.1,20.3L15,23.5C13.6,22.2 12,21.5 10.6,21.4C9.7,21.4 8.9,21.6 8.3,22.2C8.1,22.4 8,22.5 7.9,22.7C6.4,22.7 5.2,23.5 4.6,24.4C3.9,25.4 4.2,27.1 5,28.4L0,29.8L0,53L89,53L89,48.4L72.8,48.4L72.8,48.3ZM84.3,42C84.5,42.3 84.6,42.6 84.8,42.8C85,43.1 85.2,43.4 85.4,43.8C84,43.7 82.9,42.9 82,41.5C82.8,41.1 83.9,41.4 84.3,42M65,22.2C67.9,22.7 70.2,24 72,26C72.4,26.4 72.7,26.9 73.1,27.4C68.3,26.8 66.6,26.1 63.9,22C64.3,22 64.6,22.1 65,22.2M62.9,15.2L53.8,15.2C54.6,14.5 55.2,13.6 55.7,12.6L68,12.6C67,14.4 65.3,15.2 62.9,15.2M70.1,10.8L61,10.8C61.8,10.1 62.5,9.2 63,8.1L75.3,8.1C74.3,9.9 72.6,10.8 70.1,10.8M70.8,3.9L83,3.9C81.8,5.5 80.2,6.3 77.9,6.3L68.8,6.3C69.6,5.6 70.3,4.8 70.8,3.9M21.2,4.3C21.5,3.9 22,3.5 22.5,3.1C22.9,2.8 23.5,2.5 24.1,2.4C25,2.2 26,2.2 27,2.4L23.7,4.4C23.3,4.4 22.9,4.3 22.5,4.3C21.9,4.3 21.4,4.3 21,4.4C21.1,4.4 21.1,4.4 21.2,4.3M17.4,18.7C17.4,18.6 17.5,18.5 17.6,18.5L19.2,18.6C21.1,18.5 23.1,17.7 23.3,15.7C23.3,14.3 22.3,13 21,13C20.3,13 19.4,13.5 18.5,14.1C17.9,14.5 17.4,14.8 17.1,14.8C16.9,14.8 16.7,14.6 16.7,14.5L16.7,14.4L17.7,13L16.8,12.4C16.6,12.3 16.3,12 16.3,11.9C16.3,11.8 16.4,11.7 16.4,11.6C16.8,11.2 17.2,10.7 17.6,10C17.9,9.6 18,9.4 18.4,9.4C18.8,9.4 19.2,9.7 19.2,10.2C19.2,10.5 19.5,10.7 19.9,10.7C20.3,10.7 20.5,10.4 20.7,10.2C20.7,10.2 21.6,9.4 21.1,9C20.6,8.6 18.4,9.5 19,7.5L19.2,7.2C19.4,6.9 20.5,6.1 22.6,6.1C23,6.1 23.4,6.1 23.9,6.2L24.2,6.2L28.8,3.4C28.8,3.5 28.9,3.6 28.9,3.6C29.1,5 28.3,6.6 26.9,7.4L26.3,7.7L26.7,9.8C25.5,10.2 24.7,11.1 24.7,12.2C24.7,12.6 24.8,13.1 24.9,13.6C25,14.3 25.2,15 25.2,15.7C25.2,17.9 22.2,19.3 19.7,19.2L19.6,19.2C19.5,19.2 17.9,19.1 17.5,18.8C17.4,18.9 17.4,18.8 17.4,18.7M6,25.5C6.4,24.9 7.2,24.5 8.2,24.6L9,24.7L9.3,24C9.4,23.8 9.5,23.6 9.6,23.5C9.8,23.3 10.2,23.2 10.6,23.2C11.7,23.2 13.1,24 14.2,25.2C14.6,25.6 15,26.2 15.3,26.7C15.4,26.8 15.4,26.9 15.5,27C15.6,27.1 15.7,27.3 15.7,27.3C15.7,27.4 16.3,28.2 16.3,28.3C16.7,27.8 17.1,27.2 17.4,26.7L17.4,26.6C17.3,26.4 17.1,26.1 17,25.9L16.9,25.8C16.9,25.8 16.8,25.7 16.8,25.6C16.7,25.4 16.5,25.1 16.4,25L18.8,21.2C19.4,21.3 19.9,21.3 20.2,21.3L20.3,21.3C23.7,21.3 27.2,19.3 27.2,16.1L27.2,16C27.2,15.1 27,14.3 26.9,13.6C26.8,13.1 26.7,12.7 26.7,12.5C26.7,12.1 27.2,11.7 27.9,11.7L29,11.7L28.5,8.9C30,7.8 31,5.9 30.9,4.2C32.6,5.5 33.7,7.7 33.9,10C34,10.7 33.8,11.6 33.6,12.6L33.5,13C33.1,14.6 32.5,16.3 32.2,17.1L31.9,17.8L32.6,18.2C33.8,18.9 34.6,19.4 34.6,21C34.6,22.9 32.9,24.3 31.3,24.6L29,25L30.9,26.3C31.5,26.7 31.9,27.4 31.9,28.1C31.9,29.3 30.9,30.2 29.7,30.2L29,30.2L28.8,30.8C28.1,33 27.4,34.1 25,34.4L25,31.1L24.9,29L23.4,30.5C22.9,31 22,31.4 21,31.6L21,29.8L10.5,27L6.8,28C6,27.2 5.8,25.8 6,25.5M3,48.3L10.6,46.3L18.2,48.3L3,48.3ZM19.2,46.7L10.5,44.4L1.8,46.7L1.8,31.2L10.5,28.9L19.2,31.2L19.2,46.7ZM23.3,43.7C22.5,44.8 22.4,46.4 23,48.3L21.1,48.3L21.1,33.5C21.8,33.4 22.5,33.2 23.2,32.9C23.2,33.5 23.1,34.1 23,34.7C23,34.9 22.9,35 22.9,35.2L22.7,36.3L23.8,36.3C25.4,36.3 26.6,36 27.6,35.6L27.6,41.8C27.6,42 27.5,42.1 27.3,42.1L27,42.1C25.4,42 24,42.6 23.3,43.7M43.3,44.1C42.6,44.9 42,46.2 42.4,48.3L31.1,48.3C32.3,48.2 33.2,47.9 33.8,47.3C34.5,46.5 34.6,45.5 34.6,44.7C34.6,44.6 34.7,44.4 35.3,44.1L36.3,43.7L35.7,42.8C34.7,41.3 35.2,38.1 35.5,36.3L35.6,36.3C39.4,36.3 41.9,35.5 44.5,34.7C45.2,34.5 45.9,34.3 46.6,34C46.6,34 47.4,33.8 48.4,33.5L52.1,39.6L52.1,39.7C52.5,40.2 52.5,40.6 51.8,41.3L50,43.3L47,42.7C45.7,42.5 44.2,43.1 43.3,44.1M44.3,48.3C44,47 44.1,46 44.7,45.3C45.3,44.6 46.1,44.5 46.8,44.5L50.3,45.1L50.9,45.1L53.4,42.4C53.8,41.9 55.1,40.4 53.8,38.5L50.5,33.1C51,33 51.6,33 52.1,33C52.1,33 53.8,33 55.6,34C55.8,34.5 56.2,35.2 56.5,36C57.2,37.4 58.1,39.2 58.3,39.9C58.4,40.1 58.6,40.8 57.8,41.7L51.5,48.4L44.3,48.4L44.3,48.3ZM65.9,48.3L53.9,48.3L59,42.9C60,41.8 60.4,40.5 59.9,39.3C59.7,38.6 59,37.2 58.3,35.7C60.3,36.6 63.4,37.5 69.7,38C70.5,38.1 70.7,38.3 70.8,39L71.1,41.7L67.8,42.4C66.7,42.6 65.8,43.3 65.4,44.4C65,45.6 65.2,47 65.9,48.3M67.2,45.1C67.4,44.6 67.7,44.3 68.2,44.2L73.1,43.1L72.7,38.7L72.7,38.6C72.6,38 72.2,36.3 69.9,36.1C61.1,35.4 59.1,34.1 56.9,32.7L56.8,32.6C54.5,31.1 52.2,31.1 52,31.1C49.5,31.1 46.4,32.1 46.1,32.2C45.3,32.4 44.6,32.7 43.9,32.9C41.1,33.8 38.8,34.6 34.8,34.4L34.1,34.4L33.9,35.1C33.8,35.6 32.6,40.1 33.7,42.9C32.7,43.7 32.7,44.5 32.7,44.7C32.7,45.7 32.5,45.9 32.4,46C31.9,46.5 30.4,46.5 29.1,46.5L28.6,46.5L28.3,46.9C27.5,48 25.8,48.3 24.7,48C24.2,46.5 24.2,45.4 24.7,44.7C25.3,43.9 26.4,43.8 26.9,43.8L27.2,43.8C28.4,43.8 29.3,42.8 29.3,41.7L29.3,33.8C29.7,33.3 29.9,32.6 30.2,31.9C32.1,31.6 33.6,30 33.6,28C33.6,27.2 33.4,26.5 33,25.9C34.8,25 36.3,23.3 36.3,21C36.3,18.7 35.1,17.6 34,17C34.3,16.1 34.8,14.6 35.2,13L36.7,7.5C37.4,5.3 39.2,3.9 41.3,3.9L68.5,3.9C67.3,5.5 65.7,6.3 63.4,6.3L47.1,6.3L46.2,8.1L61,8.1C59.8,9.9 58.1,10.8 55.7,10.8L45,10.8L44.1,12.6L53.6,12.6C52.4,14.4 50.8,15.2 48.4,15.2L42.6,15.2L41.7,17L47.8,17C47.9,17.1 48,17.4 48,18.1C48,19.3 47,20.2 45.8,20.2C45.4,20.2 45,20.1 44.4,19.8C44.1,19.7 43.9,19.6 43.6,19.5L42.2,20.8C42.5,20.9 42.7,21 43,21.1C44.2,21.6 44.9,21.9 45.8,21.9C46.9,21.9 47.9,21.4 48.7,20.7C49.7,20.8 51.4,20.9 53.1,21C55.1,21.2 56.9,21.3 57.9,21.4C58.4,21.4 58.8,21.4 59.3,21.5C60.1,21.5 60.9,21.6 61.6,21.6C65.3,27.6 67.2,28.4 74.4,29.3C74.9,30.2 75.4,31.2 75.8,32.2L75.8,44.8C75.5,45.1 74.4,45.6 74.1,45.7L68,48.2C67.2,47.1 66.9,46 67.2,45.1" style="fill:rgb(197,40,28);fill-rule:nonzero;"/>
        </g>
        <g transform="matrix(2.30661,0,0,2.30661,93.1946,-114.759)">
            <path d="M16.9,64.4L16.9,58.3C20.7,58.3 22.1,58.1 22.8,62.8L23.2,62.8L23.2,57.6L12.7,57.6L12.7,58.3L14.5,58.3L14.5,71.8L12.5,71.8L12.5,72.5L23.3,72.5L23.3,67L22.8,67C22.3,71.2 21.2,71.8 18.2,71.8L16.8,71.8L16.8,65.3L17.6,65.3C18.9,65.3 19.7,66.1 20,68.4L20.5,68.4L20.5,61.6L20,61.6C20,61.6 19.9,64.5 17.6,64.5L16.9,64.5L16.9,64.4Z" style="fill:rgb(197,40,28);fill-rule:nonzero;"/>
        </g>
        <g transform="matrix(2.30661,0,0,2.30661,93.1946,-114.759)">
            <path d="M12.6,64.6L6.7,64.6L6.7,65.3L8.7,65.3L8.7,70.1C8.4,71.3 6.5,71.8 6,71.8C2.2,71.8 2.5,66.3 2.5,64.8C2.5,63.5 2.4,57.8 6,57.8C8.6,57.8 9.9,60.3 10.4,62.6L10.8,62.6L10.8,57.2C10.8,57.2 9,58.5 9,58.4C9,58.4 8.2,57.2 5.9,57.2C1.5,57.2 -0.2,61.6 -0.2,64.7C-0.2,67.5 1.1,72.4 5.9,72.4C7.4,72.4 8.4,71.6 9,70.8L10.9,72.3L10.9,65.2L12.5,65.2L12.5,64.6L12.6,64.6Z" style="fill:rgb(197,40,28);fill-rule:nonzero;"/>
        </g>
        <g transform="matrix(2.30661,0,0,2.30661,93.1946,-114.759)">
            <path d="M81.5,66.9C81,71.1 79.9,71.7 76.9,71.7L76.7,71.7L76.7,58.3L78.6,58.3L78.6,57.6L72.4,57.6L72.4,58.3L74.3,58.3L74.3,71.8L72.8,71.8L67.3,57.2L66.5,57.2C66.5,57.2 61.9,70.4 61.9,70.5C61.9,70.5 61.6,71.6 60.8,71.8C60.1,71.8 60.2,71.5 60.2,71.3L60.2,68.7C60.2,68 60.1,66.5 59.5,65.8C58.7,65 57.4,65 57.4,64.9C57.4,64.9 60.8,64.2 60.8,61C60.8,58.7 59.2,57.6 56.6,57.5L49.2,57.5L49.2,58.2L51.1,58.2L51.1,71.7L49.2,71.7L49.2,72.4L55.3,72.4L55.3,71.7L53.4,71.7L53.4,65.2L55.9,65.2C60.3,65.6 55.1,72.4 60.9,72.4L64.5,72.4L64.5,71.7C64.3,71.7 63,71.7 62.9,70.8C62.8,70.1 63.8,67.7 63.8,67.7L68.8,67.7C68.8,67.7 70.3,71.7 70.4,71.7L68.7,71.7L68.7,72.4L82.2,72.4L82.2,66.9L81.5,66.9ZM55.8,64.5L53.4,64.5L53.4,58.3L56.5,58.3C58.3,58.6 58.4,60.7 58.4,61.3C58.4,62.9 57.7,64.5 55.8,64.5M64.2,67.1L66.4,60.7L68.7,67.1L64.2,67.1Z" style="fill:rgb(197,40,28);fill-rule:nonzero;"/>
        </g>
        <g transform="matrix(2.30661,0,0,2.30661,93.1946,-114.759)">
            <path d="M41.8,58.2C45.6,58.2 47.1,58 47.7,62.7L48.1,62.7L48.1,57.5L32.9,57.5L32.9,58.2L33.3,58.2C33.8,58.2 35.1,58.2 35.2,59.4L35.2,68L28.1,57.5L24.2,57.5L24.2,58.2L24.8,58.2C25.6,58.2 26.6,58.2 26.7,59.4L26.7,70.4C26.7,71.5 25.1,71.9 24.4,71.9L24.4,72.4L29.7,72.4L29.7,71.9C29,71.9 27.4,71.5 27.4,70.4L27.4,60.7C30.2,64.7 35.5,72.4 35.6,72.4L35.9,72.4L35.9,59.4C36,58.3 37.2,58.2 37.8,58.2L39.5,58.2L39.5,71.7L37.5,71.7L37.5,72.4L48.3,72.4L48.3,66.9L47.8,66.9C47.3,71.1 46.2,71.7 43.2,71.7L41.8,71.7L41.8,65.2L42.6,65.2C43.9,65.2 44.7,66 45,68.3L45.5,68.3L45.5,61.5L45,61.5C45,61.5 44.9,64.4 42.6,64.4L41.9,64.4L41.9,58.2L41.8,58.2Z" style="fill:rgb(197,40,28);fill-rule:nonzero;"/>
        </g>
        <g transform="matrix(2.30661,0,0,2.30661,93.1946,-114.759)">
            <path d="M88.9,58.3L88.9,57.5L82.8,57.5L82.8,58.3L84.7,58.3L84.7,71.7L82.8,71.7L82.8,72.4L88.9,72.4L88.9,71.7L86.9,71.7L86.9,58.3L88.9,58.3Z" style="fill:rgb(197,40,28);fill-rule:nonzero;"/>
        </g>
    </g>
</svg>
