<?xml version="1.0" encoding="UTF-8" standalone="no"?>
<svg
   xmlns:dc="http://purl.org/dc/elements/1.1/"
   xmlns:cc="http://creativecommons.org/ns#"
   xmlns:rdf="http://www.w3.org/1999/02/22-rdf-syntax-ns#"
   xmlns:svg="http://www.w3.org/2000/svg"
   xmlns="http://www.w3.org/2000/svg"
   id="svg69"
   style="clip-rule:evenodd;fill-rule:evenodd;stroke-linejoin:round;stroke-miterlimit:2"
   xml:space="preserve"
   version="1.1"
   viewBox="0 0 112.35807 100.37321"
   height="100.37321"
   width="112.35807"><metadata
   id="metadata73"><rdf:RDF><cc:Work
       rdf:about=""><dc:format>image/svg+xml</dc:format><dc:type
         rdf:resource="http://purl.org/dc/dcmitype/StillImage" /><dc:title></dc:title></cc:Work></rdf:RDF></metadata>
    <path
   id="path2"
   style="fill:url(#_Linear1)"
   d="m 67.139189,61.157587 c -14.563,27.422 -48.334,11.094 -38.299,-20.462 6.711,-21.103 23.214,-34.7990001 49.422,-36.7170001 -53.56,-4.06799999 -72.0149998,22.5480001 -71.2269998,53.8410001 1.049,41.643 60.9319998,48.683003 60.1039998,3.338 z" />
    <path
   id="path4"
   style="fill:url(#_Linear2)"
   d="m 27.092189,49.510587 c 5.187,-15.686 16.502,-21.474 36.63,-22.012 15.075,-0.403 23.11,-8.023 23.612,-21.3520001 -23.682,-9.54 -59.696,11.2140001 -60.242,43.3640001 z" />
    <path
   id="path6"
   style="fill:url(#_Linear3)"
   d="m 48.953189,40.695587 v 20.462 h 18.186 c -0.326,28.209 -31.672,40.440003 -50.142,20.872 22.366,27.344003 78.32,17.096 73.681,-41.334 z" />
    <g
   id="g36"
   transform="matrix(0,1.30949,-1.29373,0,157.84419,-85.860413)">
        <g
   id="g10"
   transform="matrix(10.0511,0,0,10.0511,96.1349,47.8219)">
            <path
   id="path8"
   style="fill-rule:nonzero"
   d="m 0.306,-0.392 h 0.253 v 0.145 C 0.558,-0.176 0.533,-0.116 0.486,-0.068 0.438,-0.02 0.378,0.005 0.305,0.006 0.249,0.005 0.202,-0.009 0.165,-0.035 0.127,-0.06 0.099,-0.089 0.082,-0.122 0.077,-0.133 0.072,-0.143 0.068,-0.153 0.064,-0.163 0.061,-0.176 0.058,-0.191 0.053,-0.22 0.051,-0.275 0.051,-0.356 c 0,-0.083 0.002,-0.138 0.007,-0.166 0.005,-0.028 0.013,-0.051 0.024,-0.068 0.017,-0.033 0.045,-0.062 0.083,-0.088 0.037,-0.026 0.084,-0.039 0.14,-0.04 0.069,0.001 0.125,0.021 0.168,0.061 0.043,0.041 0.071,0.091 0.082,0.15 H 0.441 C 0.432,-0.535 0.416,-0.56 0.393,-0.58 0.369,-0.599 0.34,-0.609 0.305,-0.61 0.28,-0.609 0.258,-0.604 0.24,-0.595 c -0.019,0.01 -0.034,0.022 -0.045,0.037 -0.014,0.015 -0.023,0.035 -0.028,0.059 -0.005,0.025 -0.008,0.073 -0.008,0.143 0,0.07 0.003,0.117 0.008,0.142 0.005,0.025 0.014,0.045 0.028,0.06 0.011,0.015 0.026,0.027 0.045,0.036 0.018,0.011 0.04,0.016 0.065,0.016 0.042,0 0.077,-0.014 0.104,-0.043 0.028,-0.027 0.042,-0.063 0.042,-0.108 V -0.29 H 0.306 Z" />
        </g>
        <g
   id="g14"
   transform="matrix(10.0511,0,0,10.0511,102.265,47.8219)">
            <path
   id="path12"
   style="fill-rule:nonzero"
   d="m 0.051,-0.356 c 0,-0.083 0.002,-0.138 0.007,-0.166 0.005,-0.028 0.013,-0.051 0.024,-0.068 0.017,-0.033 0.045,-0.062 0.083,-0.088 0.037,-0.026 0.084,-0.039 0.14,-0.04 0.057,0.001 0.104,0.014 0.142,0.04 0.037,0.026 0.064,0.055 0.081,0.088 0.012,0.017 0.02,0.04 0.025,0.068 0.004,0.028 0.006,0.083 0.006,0.166 0,0.081 -0.002,0.136 -0.006,0.165 C 0.548,-0.162 0.54,-0.139 0.528,-0.122 0.511,-0.089 0.484,-0.06 0.447,-0.035 0.409,-0.009 0.362,0.005 0.305,0.006 0.249,0.005 0.202,-0.009 0.165,-0.035 0.127,-0.06 0.099,-0.089 0.082,-0.122 0.077,-0.133 0.072,-0.143 0.068,-0.153 0.064,-0.163 0.061,-0.176 0.058,-0.191 0.053,-0.22 0.051,-0.275 0.051,-0.356 Z m 0.108,0 c 0,0.07 0.003,0.117 0.008,0.142 0.005,0.025 0.014,0.045 0.028,0.06 0.011,0.015 0.026,0.027 0.045,0.036 0.018,0.011 0.04,0.016 0.065,0.016 0.026,0 0.048,-0.005 0.067,-0.016 0.018,-0.009 0.032,-0.021 0.043,-0.036 0.014,-0.015 0.024,-0.035 0.029,-0.06 0.005,-0.025 0.007,-0.072 0.007,-0.142 0,-0.07 -0.002,-0.118 -0.007,-0.143 C 0.439,-0.523 0.429,-0.543 0.415,-0.558 0.404,-0.573 0.39,-0.585 0.372,-0.595 0.353,-0.604 0.331,-0.609 0.305,-0.61 0.28,-0.609 0.258,-0.604 0.24,-0.595 0.221,-0.585 0.206,-0.573 0.195,-0.558 0.181,-0.543 0.172,-0.523 0.167,-0.499 0.162,-0.474 0.159,-0.426 0.159,-0.356 Z" />
        </g>
        <g
   id="g18"
   transform="matrix(10.0511,0,0,10.0511,108.394,47.8219)">
            <path
   id="path16"
   style="fill-rule:nonzero"
   d="m 0.183,-0.4 h 0.163 c 0.041,-0.001 0.071,-0.012 0.091,-0.035 0.02,-0.021 0.03,-0.047 0.03,-0.078 C 0.466,-0.55 0.454,-0.577 0.431,-0.594 0.413,-0.608 0.387,-0.616 0.352,-0.616 H 0.183 Z M 0.075,-0.712 h 0.278 c 0.059,0 0.108,0.016 0.145,0.047 0.045,0.035 0.069,0.086 0.071,0.152 -0.001,0.096 -0.047,0.162 -0.138,0.197 L 0.596,0 H 0.468 L 0.321,-0.304 H 0.183 V 0 H 0.075 Z" />
        </g>
        <g
   id="g22"
   transform="matrix(10.0511,0,0,10.0511,114.524,47.8219)">
            <path
   id="path20"
   style="fill-rule:nonzero"
   d="m 0.075,-0.712 h 0.249 c 0.097,0.001 0.169,0.041 0.217,0.12 0.017,0.027 0.028,0.055 0.033,0.084 0.003,0.029 0.005,0.08 0.005,0.152 0,0.077 -0.003,0.13 -0.008,0.16 -0.003,0.015 -0.007,0.029 -0.012,0.041 -0.005,0.012 -0.012,0.024 -0.02,0.037 -0.021,0.033 -0.05,0.061 -0.087,0.083 C 0.415,-0.012 0.37,0 0.317,0 H 0.075 Z m 0.108,0.61 h 0.129 c 0.061,0 0.105,-0.021 0.132,-0.062 0.012,-0.015 0.02,-0.035 0.023,-0.058 0.003,-0.023 0.004,-0.067 0.004,-0.13 0,-0.062 -0.001,-0.106 -0.004,-0.133 C 0.463,-0.512 0.454,-0.533 0.439,-0.55 0.409,-0.591 0.367,-0.611 0.312,-0.61 H 0.183 Z" />
        </g>
        <g
   id="g26"
   transform="matrix(10.0511,0,0,10.0511,120.855,47.8219)">
            <path
   id="path24"
   style="fill-rule:nonzero"
   d="m 0.051,-0.356 c 0,-0.083 0.002,-0.138 0.007,-0.166 0.005,-0.028 0.013,-0.051 0.024,-0.068 0.017,-0.033 0.045,-0.062 0.083,-0.088 0.037,-0.026 0.084,-0.039 0.14,-0.04 0.057,0.001 0.104,0.014 0.142,0.04 0.037,0.026 0.064,0.055 0.081,0.088 0.012,0.017 0.02,0.04 0.025,0.068 0.004,0.028 0.006,0.083 0.006,0.166 0,0.081 -0.002,0.136 -0.006,0.165 C 0.548,-0.162 0.54,-0.139 0.528,-0.122 0.511,-0.089 0.484,-0.06 0.447,-0.035 0.409,-0.009 0.362,0.005 0.305,0.006 0.249,0.005 0.202,-0.009 0.165,-0.035 0.127,-0.06 0.099,-0.089 0.082,-0.122 0.077,-0.133 0.072,-0.143 0.068,-0.153 0.064,-0.163 0.061,-0.176 0.058,-0.191 0.053,-0.22 0.051,-0.275 0.051,-0.356 Z m 0.108,0 c 0,0.07 0.003,0.117 0.008,0.142 0.005,0.025 0.014,0.045 0.028,0.06 0.011,0.015 0.026,0.027 0.045,0.036 0.018,0.011 0.04,0.016 0.065,0.016 0.026,0 0.048,-0.005 0.067,-0.016 0.018,-0.009 0.032,-0.021 0.043,-0.036 0.014,-0.015 0.024,-0.035 0.029,-0.06 0.005,-0.025 0.007,-0.072 0.007,-0.142 0,-0.07 -0.002,-0.118 -0.007,-0.143 C 0.439,-0.523 0.429,-0.543 0.415,-0.558 0.404,-0.573 0.39,-0.585 0.372,-0.595 0.353,-0.604 0.331,-0.609 0.305,-0.61 0.28,-0.609 0.258,-0.604 0.24,-0.595 0.221,-0.585 0.206,-0.573 0.195,-0.558 0.181,-0.543 0.172,-0.523 0.167,-0.499 0.162,-0.474 0.159,-0.426 0.159,-0.356 Z" />
        </g>
        <g
   id="g30"
   transform="matrix(10.0511,0,0,10.0511,126.985,47.8219)">
            <path
   id="path28"
   style="fill-rule:nonzero"
   d="m 0.075,-0.712 h 0.102 l 0.322,0.506 H 0.501 V -0.712 H 0.609 V 0 H 0.507 L 0.185,-0.506 H 0.183 V 0 H 0.075 Z" />
        </g>
        <g
   id="g34"
   transform="matrix(10.0511,0,0,10.0511,133.861,47.8219)">
            <path
   id="path32"
   style="fill-rule:nonzero"
   d="m 0.084,-0.173 c 0.057,0.047 0.124,0.07 0.202,0.071 0.093,-0.001 0.139,-0.034 0.141,-0.099 0,-0.053 -0.031,-0.085 -0.093,-0.096 C 0.305,-0.301 0.274,-0.305 0.24,-0.31 0.179,-0.32 0.132,-0.343 0.1,-0.378 0.067,-0.414 0.051,-0.458 0.051,-0.51 c 0,-0.062 0.02,-0.112 0.062,-0.15 0.04,-0.038 0.097,-0.057 0.17,-0.058 0.089,0.002 0.166,0.027 0.231,0.074 l -0.06,0.089 C 0.401,-0.59 0.342,-0.609 0.278,-0.61 c -0.033,0 -0.061,0.008 -0.083,0.025 -0.023,0.017 -0.035,0.043 -0.036,0.077 0,0.021 0.008,0.039 0.024,0.056 0.016,0.017 0.042,0.028 0.077,0.035 0.019,0.003 0.046,0.007 0.08,0.011 0.067,0.009 0.116,0.033 0.148,0.072 0.031,0.038 0.047,0.082 0.047,0.133 -0.003,0.136 -0.087,0.205 -0.25,0.207 -0.105,0 -0.196,-0.033 -0.272,-0.098 z" />
        </g>
    </g>
    <defs
   id="defs67">
        <linearGradient
   gradientTransform="matrix(71.2514,0,0,88.4704,7.0109992,47.801687)"
   gradientUnits="userSpaceOnUse"
   y2="0"
   x2="1"
   y1="0"
   x1="0"
   id="_Linear1"><stop
     id="stop38"
     style="stop-color:rgb(103,12,0);stop-opacity:1"
     offset="0" /><stop
     id="stop40"
     style="stop-color:rgb(231,66,0);stop-opacity:1"
     offset="0.18" /><stop
     id="stop42"
     style="stop-color:rgb(248,163,0);stop-opacity:1"
     offset="0.44" /><stop
     id="stop44"
     style="stop-color:rgb(201,41,58);stop-opacity:1"
     offset="0.81" /><stop
     id="stop46"
     style="stop-color:rgb(113,25,116);stop-opacity:1"
     offset="1" /></linearGradient>
        <linearGradient
   gradientTransform="matrix(60.2422,0,0,45.6973,27.092189,26.662187)"
   gradientUnits="userSpaceOnUse"
   y2="0"
   x2="1"
   y1="0"
   x1="0"
   id="_Linear2"><stop
     id="stop49"
     style="stop-color:rgb(119,15,0);stop-opacity:1"
     offset="0" /><stop
     id="stop51"
     style="stop-color:rgb(200,44,0);stop-opacity:1"
     offset="0.5" /><stop
     id="stop53"
     style="stop-color:rgb(199,55,84);stop-opacity:1"
     offset="0.75" /><stop
     id="stop55"
     style="stop-color:rgb(150,31,113);stop-opacity:1"
     offset="1" /></linearGradient>
        <linearGradient
   gradientTransform="matrix(73.9529,0,0,55.7769,16.997489,68.584287)"
   gradientUnits="userSpaceOnUse"
   y2="0"
   x2="1"
   y1="0"
   x1="0"
   id="_Linear3"><stop
     id="stop58"
     style="stop-color:rgb(100,22,105);stop-opacity:1"
     offset="0" /><stop
     id="stop60"
     style="stop-color:rgb(192,46,82);stop-opacity:1"
     offset="0.5" /><stop
     id="stop62"
     style="stop-color:rgb(235,89,0);stop-opacity:1"
     offset="0.75" /><stop
     id="stop64"
     style="stop-color:rgb(253,221,100);stop-opacity:1"
     offset="1" /></linearGradient>
    </defs>
</svg>