<?xml version="1.0" encoding="UTF-8" standalone="no"?>
<!DOCTYPE svg PUBLIC "-//W3C//DTD SVG 1.1//EN" "http://www.w3.org/Graphics/SVG/1.1/DTD/svg11.dtd">
<svg width="100%" height="100%" viewBox="0 0 300 100" version="1.1" xmlns="http://www.w3.org/2000/svg" xmlns:xlink="http://www.w3.org/1999/xlink" xml:space="preserve" xmlns:serif="http://www.serif.com/" style="fill-rule:evenodd;clip-rule:evenodd;stroke-linejoin:round;stroke-miterlimit:2;">
    <path d="M67.289,61.084C52.726,88.506 18.955,72.178 28.99,40.622C35.701,19.519 52.204,5.823 78.412,3.905C24.852,-0.163 6.397,26.453 7.185,57.746C8.234,99.389 68.117,106.429 67.289,61.084Z" style="fill:url(#_Linear1);"/>
    <path d="M27.242,49.437C32.429,33.751 43.744,27.963 63.872,27.425C78.947,27.022 86.982,19.402 87.484,6.073C63.802,-3.467 27.788,17.287 27.242,49.437Z" style="fill:url(#_Linear2);"/>
    <path d="M49.103,40.622L49.103,61.084L67.289,61.084C66.963,89.293 35.617,101.524 17.147,81.956C39.513,109.3 95.467,99.052 90.828,40.622L49.103,40.622Z" style="fill:url(#_Linear3);"/>
    <g transform="matrix(8.01833e-17,1.30949,-1.29373,7.92181e-17,157.994,-85.934)">
        <g transform="matrix(10.0511,0,0,10.0511,96.1349,47.8219)">
            <path d="M0.306,-0.392L0.559,-0.392L0.559,-0.247C0.558,-0.176 0.533,-0.116 0.486,-0.068C0.438,-0.02 0.378,0.005 0.305,0.006C0.249,0.005 0.202,-0.009 0.165,-0.035C0.127,-0.06 0.099,-0.089 0.082,-0.122C0.077,-0.133 0.072,-0.143 0.068,-0.153C0.064,-0.163 0.061,-0.176 0.058,-0.191C0.053,-0.22 0.051,-0.275 0.051,-0.356C0.051,-0.439 0.053,-0.494 0.058,-0.522C0.063,-0.55 0.071,-0.573 0.082,-0.59C0.099,-0.623 0.127,-0.652 0.165,-0.678C0.202,-0.704 0.249,-0.717 0.305,-0.718C0.374,-0.717 0.43,-0.697 0.473,-0.657C0.516,-0.616 0.544,-0.566 0.555,-0.507L0.441,-0.507C0.432,-0.535 0.416,-0.56 0.393,-0.58C0.369,-0.599 0.34,-0.609 0.305,-0.61C0.28,-0.609 0.258,-0.604 0.24,-0.595C0.221,-0.585 0.206,-0.573 0.195,-0.558C0.181,-0.543 0.172,-0.523 0.167,-0.499C0.162,-0.474 0.159,-0.426 0.159,-0.356C0.159,-0.286 0.162,-0.239 0.167,-0.214C0.172,-0.189 0.181,-0.169 0.195,-0.154C0.206,-0.139 0.221,-0.127 0.24,-0.118C0.258,-0.107 0.28,-0.102 0.305,-0.102C0.347,-0.102 0.382,-0.116 0.409,-0.145C0.437,-0.172 0.451,-0.208 0.451,-0.253L0.451,-0.29L0.306,-0.29L0.306,-0.392Z" style="fill-rule:nonzero;"/>
        </g>
        <g transform="matrix(10.0511,0,0,10.0511,102.265,47.8219)">
            <path d="M0.051,-0.356C0.051,-0.439 0.053,-0.494 0.058,-0.522C0.063,-0.55 0.071,-0.573 0.082,-0.59C0.099,-0.623 0.127,-0.652 0.165,-0.678C0.202,-0.704 0.249,-0.717 0.305,-0.718C0.362,-0.717 0.409,-0.704 0.447,-0.678C0.484,-0.652 0.511,-0.623 0.528,-0.59C0.54,-0.573 0.548,-0.55 0.553,-0.522C0.557,-0.494 0.559,-0.439 0.559,-0.356C0.559,-0.275 0.557,-0.22 0.553,-0.191C0.548,-0.162 0.54,-0.139 0.528,-0.122C0.511,-0.089 0.484,-0.06 0.447,-0.035C0.409,-0.009 0.362,0.005 0.305,0.006C0.249,0.005 0.202,-0.009 0.165,-0.035C0.127,-0.06 0.099,-0.089 0.082,-0.122C0.077,-0.133 0.072,-0.143 0.068,-0.153C0.064,-0.163 0.061,-0.176 0.058,-0.191C0.053,-0.22 0.051,-0.275 0.051,-0.356ZM0.159,-0.356C0.159,-0.286 0.162,-0.239 0.167,-0.214C0.172,-0.189 0.181,-0.169 0.195,-0.154C0.206,-0.139 0.221,-0.127 0.24,-0.118C0.258,-0.107 0.28,-0.102 0.305,-0.102C0.331,-0.102 0.353,-0.107 0.372,-0.118C0.39,-0.127 0.404,-0.139 0.415,-0.154C0.429,-0.169 0.439,-0.189 0.444,-0.214C0.449,-0.239 0.451,-0.286 0.451,-0.356C0.451,-0.426 0.449,-0.474 0.444,-0.499C0.439,-0.523 0.429,-0.543 0.415,-0.558C0.404,-0.573 0.39,-0.585 0.372,-0.595C0.353,-0.604 0.331,-0.609 0.305,-0.61C0.28,-0.609 0.258,-0.604 0.24,-0.595C0.221,-0.585 0.206,-0.573 0.195,-0.558C0.181,-0.543 0.172,-0.523 0.167,-0.499C0.162,-0.474 0.159,-0.426 0.159,-0.356Z" style="fill-rule:nonzero;"/>
        </g>
        <g transform="matrix(10.0511,0,0,10.0511,108.394,47.8219)">
            <path d="M0.183,-0.4L0.346,-0.4C0.387,-0.401 0.417,-0.412 0.437,-0.435C0.457,-0.456 0.467,-0.482 0.467,-0.513C0.466,-0.55 0.454,-0.577 0.431,-0.594C0.413,-0.608 0.387,-0.616 0.352,-0.616L0.183,-0.616L0.183,-0.4ZM0.075,-0.712L0.353,-0.712C0.412,-0.712 0.461,-0.696 0.498,-0.665C0.543,-0.63 0.567,-0.579 0.569,-0.513C0.568,-0.417 0.522,-0.351 0.431,-0.316L0.596,0L0.468,0L0.321,-0.304L0.183,-0.304L0.183,0L0.075,0L0.075,-0.712Z" style="fill-rule:nonzero;"/>
        </g>
        <g transform="matrix(10.0511,0,0,10.0511,114.524,47.8219)">
            <path d="M0.075,-0.712L0.324,-0.712C0.421,-0.711 0.493,-0.671 0.541,-0.592C0.558,-0.565 0.569,-0.537 0.574,-0.508C0.577,-0.479 0.579,-0.428 0.579,-0.356C0.579,-0.279 0.576,-0.226 0.571,-0.196C0.568,-0.181 0.564,-0.167 0.559,-0.155C0.554,-0.143 0.547,-0.131 0.539,-0.118C0.518,-0.085 0.489,-0.057 0.452,-0.035C0.415,-0.012 0.37,0 0.317,0L0.075,0L0.075,-0.712ZM0.183,-0.102L0.312,-0.102C0.373,-0.102 0.417,-0.123 0.444,-0.164C0.456,-0.179 0.464,-0.199 0.467,-0.222C0.47,-0.245 0.471,-0.289 0.471,-0.352C0.471,-0.414 0.47,-0.458 0.467,-0.485C0.463,-0.512 0.454,-0.533 0.439,-0.55C0.409,-0.591 0.367,-0.611 0.312,-0.61L0.183,-0.61L0.183,-0.102Z" style="fill-rule:nonzero;"/>
        </g>
        <g transform="matrix(10.0511,0,0,10.0511,120.855,47.8219)">
            <path d="M0.051,-0.356C0.051,-0.439 0.053,-0.494 0.058,-0.522C0.063,-0.55 0.071,-0.573 0.082,-0.59C0.099,-0.623 0.127,-0.652 0.165,-0.678C0.202,-0.704 0.249,-0.717 0.305,-0.718C0.362,-0.717 0.409,-0.704 0.447,-0.678C0.484,-0.652 0.511,-0.623 0.528,-0.59C0.54,-0.573 0.548,-0.55 0.553,-0.522C0.557,-0.494 0.559,-0.439 0.559,-0.356C0.559,-0.275 0.557,-0.22 0.553,-0.191C0.548,-0.162 0.54,-0.139 0.528,-0.122C0.511,-0.089 0.484,-0.06 0.447,-0.035C0.409,-0.009 0.362,0.005 0.305,0.006C0.249,0.005 0.202,-0.009 0.165,-0.035C0.127,-0.06 0.099,-0.089 0.082,-0.122C0.077,-0.133 0.072,-0.143 0.068,-0.153C0.064,-0.163 0.061,-0.176 0.058,-0.191C0.053,-0.22 0.051,-0.275 0.051,-0.356ZM0.159,-0.356C0.159,-0.286 0.162,-0.239 0.167,-0.214C0.172,-0.189 0.181,-0.169 0.195,-0.154C0.206,-0.139 0.221,-0.127 0.24,-0.118C0.258,-0.107 0.28,-0.102 0.305,-0.102C0.331,-0.102 0.353,-0.107 0.372,-0.118C0.39,-0.127 0.404,-0.139 0.415,-0.154C0.429,-0.169 0.439,-0.189 0.444,-0.214C0.449,-0.239 0.451,-0.286 0.451,-0.356C0.451,-0.426 0.449,-0.474 0.444,-0.499C0.439,-0.523 0.429,-0.543 0.415,-0.558C0.404,-0.573 0.39,-0.585 0.372,-0.595C0.353,-0.604 0.331,-0.609 0.305,-0.61C0.28,-0.609 0.258,-0.604 0.24,-0.595C0.221,-0.585 0.206,-0.573 0.195,-0.558C0.181,-0.543 0.172,-0.523 0.167,-0.499C0.162,-0.474 0.159,-0.426 0.159,-0.356Z" style="fill-rule:nonzero;"/>
        </g>
        <g transform="matrix(10.0511,0,0,10.0511,126.985,47.8219)">
            <path d="M0.075,-0.712L0.177,-0.712L0.499,-0.206L0.501,-0.206L0.501,-0.712L0.609,-0.712L0.609,0L0.507,0L0.185,-0.506L0.183,-0.506L0.183,0L0.075,0L0.075,-0.712Z" style="fill-rule:nonzero;"/>
        </g>
        <g transform="matrix(10.0511,0,0,10.0511,133.861,47.8219)">
            <path d="M0.084,-0.173C0.141,-0.126 0.208,-0.103 0.286,-0.102C0.379,-0.103 0.425,-0.136 0.427,-0.201C0.427,-0.254 0.396,-0.286 0.334,-0.297C0.305,-0.301 0.274,-0.305 0.24,-0.31C0.179,-0.32 0.132,-0.343 0.1,-0.378C0.067,-0.414 0.051,-0.458 0.051,-0.51C0.051,-0.572 0.071,-0.622 0.113,-0.66C0.153,-0.698 0.21,-0.717 0.283,-0.718C0.372,-0.716 0.449,-0.691 0.514,-0.644L0.454,-0.555C0.401,-0.59 0.342,-0.609 0.278,-0.61C0.245,-0.61 0.217,-0.602 0.195,-0.585C0.172,-0.568 0.16,-0.542 0.159,-0.508C0.159,-0.487 0.167,-0.469 0.183,-0.452C0.199,-0.435 0.225,-0.424 0.26,-0.417C0.279,-0.414 0.306,-0.41 0.34,-0.406C0.407,-0.397 0.456,-0.373 0.488,-0.334C0.519,-0.296 0.535,-0.252 0.535,-0.201C0.532,-0.065 0.448,0.004 0.285,0.006C0.18,0.006 0.089,-0.027 0.013,-0.092L0.084,-0.173Z" style="fill-rule:nonzero;"/>
        </g>
    </g>
    <defs>
        <linearGradient id="_Linear1" x1="0" y1="0" x2="1" y2="0" gradientUnits="userSpaceOnUse" gradientTransform="matrix(71.2514,0,0,88.4704,7.16081,47.7281)"><stop offset="0" style="stop-color:rgb(103,12,0);stop-opacity:1"/><stop offset="0.18" style="stop-color:rgb(231,66,0);stop-opacity:1"/><stop offset="0.44" style="stop-color:rgb(248,163,0);stop-opacity:1"/><stop offset="0.81" style="stop-color:rgb(201,41,58);stop-opacity:1"/><stop offset="1" style="stop-color:rgb(113,25,116);stop-opacity:1"/></linearGradient>
        <linearGradient id="_Linear2" x1="0" y1="0" x2="1" y2="0" gradientUnits="userSpaceOnUse" gradientTransform="matrix(60.2422,0,0,45.6973,27.242,26.5886)"><stop offset="0" style="stop-color:rgb(119,15,0);stop-opacity:1"/><stop offset="0.5" style="stop-color:rgb(200,44,0);stop-opacity:1"/><stop offset="0.75" style="stop-color:rgb(199,55,84);stop-opacity:1"/><stop offset="1" style="stop-color:rgb(150,31,113);stop-opacity:1"/></linearGradient>
        <linearGradient id="_Linear3" x1="0" y1="0" x2="1" y2="0" gradientUnits="userSpaceOnUse" gradientTransform="matrix(73.9529,0,0,55.7769,17.1473,68.5107)"><stop offset="0" style="stop-color:rgb(100,22,105);stop-opacity:1"/><stop offset="0.5" style="stop-color:rgb(192,46,82);stop-opacity:1"/><stop offset="0.75" style="stop-color:rgb(235,89,0);stop-opacity:1"/><stop offset="1" style="stop-color:rgb(253,221,100);stop-opacity:1"/></linearGradient>
    </defs>
</svg>
