<?xml version="1.0" encoding="UTF-8" standalone="no"?>
<!DOCTYPE svg PUBLIC "-//W3C//DTD SVG 1.1//EN" "http://www.w3.org/Graphics/SVG/1.1/DTD/svg11.dtd">
<svg width="100%" height="100%" viewBox="0 0 300 100" version="1.1" xmlns="http://www.w3.org/2000/svg" xmlns:xlink="http://www.w3.org/1999/xlink" xml:space="preserve" xmlns:serif="http://www.serif.com/" style="fill-rule:evenodd;clip-rule:evenodd;stroke-linejoin:round;stroke-miterlimit:2;">
    <g id="g16713" transform="matrix(1.03585,0,0,1.03585,-341.015,-728.014)">
        <g>
            <path id="path15569" d="M339.706,785.73C334.259,785.73 330.242,781.918 330.242,776.707C330.242,771.47 334.363,767.476 339.783,767.476C341.857,767.476 343.698,767.995 346.109,769.058L346.109,772.091C344.035,770.951 341.857,770.148 339.731,770.148C335.867,770.148 333.197,773.127 333.197,776.628C333.197,780.311 335.841,783.059 340.069,783.059C341.857,783.059 342.739,782.644 343.517,782.359L343.517,778.288L339.394,778.288L340.25,775.566L346.473,775.566L346.473,784.252C344.113,785.288 342.169,785.73 339.706,785.73" style="fill:rgb(0,70,44);fill-rule:nonzero;"/>
            <path id="path15573" d="M356.714,770.302L355.287,770.302L355.287,775.28L356.714,775.28C359.126,775.28 359.826,773.959 359.8,772.663C359.774,771.184 358.892,770.302 356.714,770.302M362.496,785.47L358.426,779.455C357.516,778.132 357.18,777.899 356.766,777.899L355.287,777.899L355.287,785.47L352.332,785.47L352.332,767.683L356.818,767.683C360.5,767.683 362.78,769.499 362.78,772.739C362.78,774.788 361.823,776.291 359.93,777.044C360.603,777.148 366.074,785.47 366.1,785.47L362.496,785.47Z" style="fill:rgb(0,70,44);fill-rule:nonzero;"/>
            <path id="path15577" d="M369.781,785.47L369.781,767.683L380.153,767.683L379.193,770.407L372.737,770.407L372.737,775.177L379.245,775.177L379.245,777.899L372.737,777.899L372.737,782.749L380.179,782.749L380.179,785.47L369.781,785.47Z" style="fill:rgb(0,70,44);fill-rule:nonzero;"/>
            <path id="path15581" d="M385.91,785.47L385.91,767.683L396.281,767.683L395.321,770.407L388.865,770.407L388.865,775.177L395.374,775.177L395.374,777.899L388.865,777.899L388.865,782.749L396.306,782.749L396.306,785.47L385.91,785.47Z" style="fill:rgb(0,70,44);fill-rule:nonzero;"/>
            <path id="path15585" d="M415.909,785.47L404.863,772.739L404.863,785.47L402.037,785.47L402.037,767.683L404.293,767.683L415.649,780.803L415.649,767.683L418.502,767.683L418.502,785.47L415.909,785.47Z" style="fill:rgb(0,70,44);fill-rule:nonzero;"/>
            <path id="path15589" d="M425.036,785.47L425.036,767.683L435.406,767.683L434.446,770.407L427.992,770.407L427.992,775.177L434.498,775.177L434.498,777.899L427.992,777.899L427.992,782.749L435.432,782.749L435.432,785.47L425.036,785.47Z" style="fill:rgb(0,70,44);fill-rule:nonzero;"/>
            <path id="path15593" d="M461.465,785.47L452.416,776.681L452.416,785.47L449.459,785.47L449.459,767.683L452.416,767.683L452.416,775.826L459.881,767.683L463.592,767.683L455.839,776.11L465.355,785.47L461.465,785.47Z" style="fill:rgb(0,70,44);fill-rule:nonzero;"/>
            <rect id="path15595" x="468.775" y="767.683" width="2.957" height="17.787" style="fill:rgb(0,70,44);fill-rule:nonzero;"/>
            <path id="path15599" d="M492.137,785.47L481.092,772.739L481.092,785.47L478.265,785.47L478.265,767.683L480.521,767.683L491.877,780.803L491.877,767.683L494.729,767.683L494.729,785.47L492.137,785.47Z" style="fill:rgb(0,70,44);fill-rule:nonzero;"/>
            <path id="path15603" d="M508.706,785.73C503.26,785.73 499.241,781.918 499.241,776.707C499.241,771.47 503.366,767.476 508.784,767.476C510.858,767.476 512.7,767.995 515.11,769.058L515.11,772.091C513.036,770.951 510.858,770.148 508.732,770.148C504.869,770.148 502.198,773.127 502.198,776.628C502.198,780.311 504.844,783.059 509.069,783.059C510.858,783.059 511.74,782.644 512.518,782.359L512.518,778.288L508.394,778.288L509.249,775.566L515.473,775.566L515.473,784.252C513.113,785.288 511.169,785.73 508.706,785.73" style="fill:rgb(0,70,44);fill-rule:nonzero;"/>
            <path id="path15607" d="M374.437,795.876L373.418,795.876L373.418,797.724L374.437,797.724C375.43,797.724 375.65,797.268 375.65,796.771C375.65,796.263 375.251,795.876 374.437,795.876M374.327,793.231L373.418,793.231L373.418,794.883L374.313,794.883C374.893,794.883 375.278,794.58 375.278,794.056C375.278,793.534 374.906,793.231 374.327,793.231M374.603,798.812L372.205,798.812L372.205,792.14L374.301,792.14C375.747,792.14 376.519,792.858 376.519,793.904C376.519,794.802 376.09,795.131 375.61,795.298C376.587,795.477 376.905,796.263 376.905,796.896C376.905,798.15 375.886,798.812 374.603,798.812" style="fill:rgb(160,109,27);fill-rule:nonzero;"/>
            <path id="path15611" d="M382.031,798.949C380.584,798.949 379.179,798.164 379.179,796.357L379.179,792.141L380.391,792.141L380.391,795.905C380.391,796.648 380.474,796.965 380.749,797.269C381.093,797.64 381.521,797.833 382.044,797.833C382.707,797.833 383.188,797.598 383.464,797.294C383.768,796.951 383.849,796.468 383.849,795.848L383.849,792.141L385.064,792.141L385.064,796.262C385.064,797.889 384.071,798.949 382.031,798.949" style="fill:rgb(160,109,27);fill-rule:nonzero;"/>
            <path id="path15615" d="M389.5,793.231L388.756,793.231L388.756,795.104L389.5,795.104C390.41,795.104 390.659,794.649 390.659,794.153C390.659,793.644 390.355,793.231 389.5,793.231M391.499,798.812L390.246,796.772C389.928,796.263 389.763,796.192 389.611,796.192L388.756,796.192L388.756,798.812L387.544,798.812L387.544,792.156L389.679,792.156C391.059,792.156 391.912,792.844 391.912,794.056C391.912,794.828 391.527,795.517 390.811,795.807C391.099,795.848 392.822,798.812 392.891,798.812L391.499,798.812Z" style="fill:rgb(160,109,27);fill-rule:nonzero;"/>
            <path id="path15619" d="M397.26,795.82L397.26,798.812L396.045,798.812L396.045,795.876L393.607,792.14L395.013,792.14L396.653,794.704L398.321,792.14L399.671,792.14L397.26,795.82Z" style="fill:rgb(160,109,27);fill-rule:nonzero;"/>
            <path id="path15623" d="M406.823,798.936C406.093,798.936 405.432,798.798 404.824,798.426L404.824,797.145C405.403,797.489 405.857,797.805 406.783,797.805C407.457,797.805 407.773,797.502 407.773,797.129C407.773,796.538 407.223,796.29 406.92,796.125C405.445,795.312 404.743,794.912 404.743,793.892C404.743,792.582 405.9,792.004 406.975,792.004C407.307,792.004 407.952,792.015 408.725,792.374L408.725,793.629C408.311,793.382 407.773,793.12 406.947,793.12C406.093,793.12 405.983,793.602 405.983,793.768C405.983,794.249 406.34,794.414 407.651,795.117C408.823,795.738 409.015,796.496 409.015,797.034C409.015,798.398 407.761,798.936 406.823,798.936" style="fill:rgb(160,109,27);fill-rule:nonzero;"/>
            <path id="path15627" d="M415.548,793.231L413.59,793.231L413.59,798.812L412.377,798.812L412.377,793.231L410.17,793.231L410.17,792.141L415.946,792.141L415.548,793.231Z" style="fill:rgb(160,109,27);fill-rule:nonzero;"/>
            <path id="path15631" d="M425.207,793.231L422.466,793.231L422.466,794.843L425.139,794.843L425.139,795.932L422.466,795.932L422.466,797.724L425.4,797.724L425.4,798.812L421.252,798.812L421.252,792.141L425.607,792.141L425.207,793.231Z" style="fill:rgb(160,109,27);fill-rule:nonzero;"/>
            <path id="path15635" d="M430.072,793.231L428.86,793.231L428.86,797.724L430.072,797.724C431.656,797.724 432.386,796.717 432.386,795.477C432.386,794.236 431.656,793.231 430.072,793.231M430.156,798.812L427.645,798.812L427.645,792.156L430.156,792.156C432.304,792.156 433.641,793.629 433.641,795.477C433.641,797.323 432.304,798.812 430.156,798.812" style="fill:rgb(160,109,27);fill-rule:nonzero;"/>
            <path id="path15639" d="M441.222,798.812L441.222,794.29L439.279,797.06L438.727,797.06L436.783,794.29L436.783,798.812L435.571,798.812L435.571,792.156L436.633,792.156L439.003,795.53L441.374,792.156L442.434,792.156L442.434,798.812L441.222,798.812Z" style="fill:rgb(160,109,27);fill-rule:nonzero;"/>
            <path id="path15643" d="M447.768,798.949C446.32,798.949 444.916,798.164 444.916,796.357L444.916,792.141L446.127,792.141L446.127,795.905C446.127,796.648 446.211,796.965 446.486,797.269C446.831,797.64 447.258,797.833 447.782,797.833C448.443,797.833 448.924,797.598 449.2,797.294C449.504,796.951 449.587,796.468 449.587,795.848L449.587,792.141L450.8,792.141L450.8,796.262C450.8,797.889 449.807,798.949 447.768,798.949" style="fill:rgb(160,109,27);fill-rule:nonzero;"/>
            <path id="path15647" d="M458.256,798.812L454.493,794.097L454.493,798.812L453.28,798.812L453.28,792.141L454.45,792.141L458.241,796.91L458.241,792.141L459.454,792.141L459.454,798.812L458.256,798.812Z" style="fill:rgb(160,109,27);fill-rule:nonzero;"/>
            <path id="path15651" d="M464.443,793.231L463.231,793.231L463.231,797.724L464.443,797.724C466.028,797.724 466.756,796.717 466.756,795.477C466.756,794.236 466.028,793.231 464.443,793.231M464.526,798.812L462.016,798.812L462.016,792.156L464.526,792.156C466.675,792.156 468.012,793.629 468.012,795.477C468.012,797.323 466.675,798.812 464.526,798.812" style="fill:rgb(160,109,27);fill-rule:nonzero;"/>
            <path id="path15655" d="M471.318,798.936C470.589,798.936 469.928,798.798 469.321,798.426L469.321,797.145C469.9,797.489 470.354,797.805 471.28,797.805C471.954,797.805 472.269,797.502 472.269,797.129C472.269,796.538 471.718,796.29 471.416,796.125C469.941,795.312 469.238,794.912 469.238,793.892C469.238,792.582 470.396,792.004 471.472,792.004C471.802,792.004 472.449,792.015 473.221,792.374L473.221,793.629C472.808,793.382 472.269,793.12 471.444,793.12C470.589,793.12 470.48,793.602 470.48,793.768C470.48,794.249 470.837,794.414 472.146,795.117C473.318,795.738 473.51,796.496 473.51,797.034C473.51,798.398 472.257,798.936 471.318,798.936" style="fill:rgb(160,109,27);fill-rule:nonzero;"/>
            <path id="path15659" d="M395.564,734.981L394.26,734.981C394.697,732.757 395.491,730.869 396.703,728.915L393.288,728.915L393.445,727.809L398.36,727.809L398.36,728.331C397.016,730.409 396.034,732.601 395.564,734.981" style="fill:rgb(160,109,27);fill-rule:nonzero;"/>
            <path id="path15663" d="M399.254,707.91C401.589,709.472 403.44,707.681 404.744,709.809C402.045,708.934 400.576,710.401 399.254,707.91" style="fill:rgb(160,109,27);fill-rule:nonzero;"/>
            <path id="path15667" d="M403.62,714.053C405.954,715.614 407.806,713.823 409.108,715.95C406.411,715.079 404.942,716.543 403.62,714.053" style="fill:rgb(160,109,27);fill-rule:nonzero;"/>
            <path id="path15671" d="M400.353,709.444C402.69,711.005 404.538,709.216 405.841,711.341C403.144,710.471 401.673,711.936 400.353,709.444" style="fill:rgb(160,109,27);fill-rule:nonzero;"/>
            <path id="path15675" d="M401.453,710.978C403.788,712.541 405.639,710.749 406.94,712.877C404.241,712.003 402.775,713.47 401.453,710.978" style="fill:rgb(160,109,27);fill-rule:nonzero;"/>
            <path id="path15679" d="M402.552,712.511C404.889,714.076 406.737,712.284 408.041,714.412C405.342,713.538 403.874,715.005 402.552,712.511" style="fill:rgb(160,109,27);fill-rule:nonzero;"/>
            <path id="path15683" d="M410.128,715.143C410.186,712.546 411.766,711.561 410.502,709.818L406.107,703.693C406.002,703.546 405.875,703.392 405.726,703.233C406.397,705.763 404.458,706.954 405.473,708.658C404.134,706.793 403.258,705.57 403.258,705.57C403.137,705.402 402.899,705.363 402.73,705.483C402.563,705.606 402.522,705.841 402.613,706.01L418.193,727.65C418.426,727.65 418.765,727.574 418.952,727.436C418.954,727.435 414.352,721.02 410.129,715.143" style="fill:rgb(160,109,27);fill-rule:nonzero;"/>
            <path id="path15687" d="M447.44,707.91C445.101,709.472 443.253,707.681 441.948,709.809C444.648,708.934 446.116,710.401 447.44,707.91" style="fill:rgb(160,109,27);fill-rule:nonzero;"/>
            <path id="path15691" d="M443.073,714.053C440.737,715.614 438.887,713.823 437.585,715.95C440.282,715.079 441.75,716.543 443.073,714.053" style="fill:rgb(160,109,27);fill-rule:nonzero;"/>
            <path id="path15695" d="M446.339,709.444C444.001,711.005 442.153,709.216 440.851,711.341C443.548,710.471 445.016,711.936 446.339,709.444" style="fill:rgb(160,109,27);fill-rule:nonzero;"/>
            <path id="path15699" d="M445.24,710.978C442.904,712.541 441.053,710.749 439.752,712.877C442.45,712.003 443.918,713.47 445.24,710.978" style="fill:rgb(160,109,27);fill-rule:nonzero;"/>
            <path id="path15703" d="M444.14,712.511C441.804,714.076 439.956,712.284 438.653,714.412C441.349,713.538 442.818,715.005 444.14,712.511" style="fill:rgb(160,109,27);fill-rule:nonzero;"/>
            <path id="path15707" d="M436.562,715.143C436.507,712.546 434.928,711.561 436.191,709.818L440.583,703.693C440.692,703.546 440.818,703.392 440.966,703.233C440.297,705.763 442.233,706.954 441.219,708.658C442.558,706.793 443.437,705.57 443.437,705.57C443.555,705.402 443.793,705.363 443.961,705.483C444.128,705.606 444.17,705.841 444.079,706.01L428.499,727.65C428.266,727.65 427.927,727.574 427.739,727.436C427.738,727.435 432.342,721.02 436.562,715.143" style="fill:rgb(160,109,27);fill-rule:nonzero;"/>
            <path id="path15711" d="M424.51,732.459C424.51,733.099 423.99,733.618 423.35,733.618C422.711,733.618 422.191,733.099 422.191,732.459C422.191,731.819 422.711,731.301 423.35,731.301C423.99,731.301 424.51,731.819 424.51,732.459" style="fill:rgb(160,109,27);fill-rule:nonzero;"/>
            <path id="path15715" d="M411.897,733.091C411.897,733.513 411.557,733.858 411.133,733.858C410.709,733.858 410.367,733.512 410.367,733.091C410.367,732.667 410.709,732.326 411.133,732.326C411.557,732.326 411.897,732.667 411.897,733.091" style="fill:rgb(160,109,27);fill-rule:nonzero;"/>
            <path id="path15719" d="M436.322,733.091C436.322,733.513 435.979,733.858 435.557,733.858C435.134,733.858 434.79,733.512 434.79,733.091C434.79,732.667 435.134,732.326 435.557,732.326C435.98,732.326 436.322,732.667 436.322,733.091" style="fill:rgb(160,109,27);fill-rule:nonzero;"/>
            <path id="path15723" d="M435.556,734.464C434.796,734.464 434.183,733.85 434.183,733.09C434.183,732.333 434.796,731.72 435.556,731.72C436.314,731.72 436.927,732.333 436.927,733.09C436.927,733.85 436.314,734.464 435.556,734.464M423.35,734.349C422.306,734.349 421.46,733.503 421.46,732.46C421.46,731.416 422.306,730.569 423.35,730.569C424.395,730.569 425.24,731.416 425.24,732.46C425.24,733.503 424.395,734.349 423.35,734.349M411.132,734.464C410.374,734.464 409.759,733.85 409.759,733.09C409.759,732.333 410.374,731.72 411.132,731.72C411.891,731.72 412.504,732.333 412.504,733.09C412.504,733.85 411.891,734.464 411.132,734.464M423.346,729.966C414.932,729.966 407.58,730.953 406.162,732.225C406.908,733.57 407.726,735.134 408.378,736.513C408.996,735.616 416.007,734.94 423.348,734.94C429.97,734.94 437.57,735.6 438.322,736.47C438.975,735.092 439.824,733.57 440.574,732.225C439.154,730.953 431.762,729.966 423.346,729.966" style="fill:rgb(160,109,27);fill-rule:nonzero;"/>
            <path id="path15727" d="M441.062,731.465C443.634,726.965 446.232,723.25 446.232,723.25C443.46,722.793 442.857,725.982 442.104,725.951C441.793,725.936 441.749,725.423 441.572,724.873C441.266,723.93 440.442,723.279 439.293,723.525C436.937,724.023 438.308,726.346 438.298,726.331C438.248,725.823 439.694,725.157 440.322,726.159C441.258,727.651 440.052,729.849 436.409,729.133C433.714,728.606 433.91,727.301 433.845,726.331L433.845,726.327C434.469,726.171 434.933,725.606 434.933,724.933C434.933,724.137 434.288,723.493 433.494,723.493C432.698,723.493 432.054,724.137 432.054,724.933C432.054,725.439 432.314,725.885 432.709,726.142C432.708,726.15 432.706,726.154 432.705,726.161C432.161,728.588 425.428,729.844 425.541,724.393C425.581,722.526 427.912,721.597 429.308,722.965C430.137,721.358 429.148,719.881 427.447,719.625C425.859,719.385 425.456,720.56 424.893,719.984C424.599,719.684 425.436,718.43 425.368,717.932C425.121,716.4 423.34,714.976 423.34,714.976C423.34,714.976 421.592,716.4 421.345,717.932C421.277,718.43 422.136,719.712 421.821,719.984C421.213,720.512 420.855,719.385 419.268,719.625C417.567,719.881 416.576,721.358 417.404,722.965C418.804,721.597 421.133,722.526 421.172,724.393C421.287,729.844 414.552,728.588 414.009,726.161C414.007,726.154 414.006,726.15 414.002,726.142C414.396,725.885 414.659,725.439 414.659,724.933C414.659,724.137 414.016,723.493 413.219,723.493C412.424,723.493 411.779,724.137 411.779,724.933C411.779,725.606 412.243,726.172 412.867,726.327L412.867,726.331C412.802,727.302 412.998,728.607 410.303,729.134C406.66,729.85 405.451,727.653 406.387,726.161C407.018,725.158 408.463,725.825 408.416,726.333C408.405,726.348 409.775,724.025 407.416,723.526C406.27,723.281 405.444,723.931 405.14,724.874C404.963,725.425 404.919,725.938 404.608,725.953C403.858,725.983 403.254,722.794 400.48,723.251C400.48,723.251 403.076,726.966 405.652,731.466C407.051,730.181 414.996,729.182 423.346,729.182C431.692,729.182 439.662,730.181 441.062,731.466" style="fill:rgb(160,109,27);fill-rule:nonzero;"/>
            <path id="path15731" d="M409.138,737.087C409.138,737.555 413.309,738.141 419.07,738.346L420.959,735.71C414.253,735.855 409.138,736.57 409.138,737.087" style="fill:rgb(160,109,27);fill-rule:nonzero;"/>
            <path id="path15735" d="M437.587,737.087C437.587,736.569 432.47,735.851 425.743,735.709L427.636,738.345C433.4,738.14 437.587,737.555 437.587,737.087" style="fill:rgb(160,109,27);fill-rule:nonzero;"/>
            <path id="path15739" d="M423.352,736.057L423.337,736.072L421.664,738.407C422.217,738.415 422.776,738.422 423.348,738.422C423.92,738.422 424.481,738.415 425.036,738.407L423.364,736.072L423.352,736.057Z" style="fill:rgb(160,109,27);fill-rule:nonzero;"/>
            <path id="path15743" d="M412.2,750.41L422.775,735.667L421.834,735.686L413.124,747.831L410.431,747.67L407.768,756.599L412.187,750.423C412.19,750.42 412.195,750.416 412.202,750.412" style="fill:rgb(160,109,27);fill-rule:nonzero;"/>
            <path id="path15747" d="M409.109,755.98L415.767,751.862L414.411,748.554L409.109,755.98Z" style="fill:rgb(160,109,27);fill-rule:nonzero;"/>
            <path id="path15751" d="M434.521,750.422L438.939,756.598L436.276,747.669L433.584,747.829L424.872,735.683L423.933,735.668L434.507,750.411C434.511,750.415 434.518,750.418 434.522,750.422" style="fill:rgb(160,109,27);fill-rule:nonzero;"/>
            <path id="path15755" d="M430.94,751.862L437.597,755.981L432.297,748.553L430.94,751.862Z" style="fill:rgb(160,109,27);fill-rule:nonzero;"/>
            <path id="path15759" d="M448.986,728.793C448.088,728.793 447.694,729.461 447.694,730.034C447.694,730.806 448.226,731.181 448.966,731.181C449.643,731.181 450.018,730.941 450.258,730.733C450.288,730.575 450.32,730.421 450.32,730.181C450.32,729.294 449.675,728.793 448.986,728.793M448.246,735.31L447.504,734.445C448.559,734.027 449.611,733.267 450.071,731.974C449.778,732.203 449.183,732.318 448.703,732.318C447.495,732.318 446.474,731.473 446.484,730.138C446.492,728.907 447.515,727.731 448.894,727.731C450.456,727.731 451.551,728.846 451.551,730.555C451.551,733.099 449.915,734.475 448.246,735.31" style="fill:rgb(160,109,27);fill-rule:nonzero;"/>
            <path id="path15763" d="M456.483,728.793C455.587,728.793 455.189,729.461 455.189,730.034C455.189,730.806 455.721,731.181 456.463,731.181C457.14,731.181 457.515,730.941 457.752,730.733C457.786,730.575 457.819,730.421 457.819,730.181C457.819,729.294 457.171,728.793 456.483,728.793M455.741,735.31L455.001,734.445C456.055,734.027 457.107,733.267 457.567,731.974C457.274,732.203 456.68,732.318 456.2,732.318C454.992,732.318 453.969,731.473 453.98,730.138C453.988,728.907 455.012,727.731 456.388,727.731C457.953,727.731 459.048,728.846 459.048,730.555C459.048,733.099 457.408,734.475 455.741,735.31" style="fill:rgb(160,109,27);fill-rule:nonzero;"/>
            <path id="path15767" d="M388.691,733.734L388.691,728.982L386.982,729.689L386.668,728.741L388.942,727.732L389.9,727.732L389.9,733.734L388.691,733.734Z" style="fill:rgb(160,109,27);fill-rule:nonzero;"/>
        </g>
    </g>
</svg>
