<?xml version="1.0" encoding="UTF-8" standalone="no"?>
<svg
   xmlns:dc="http://purl.org/dc/elements/1.1/"
   xmlns:cc="http://creativecommons.org/ns#"
   xmlns:rdf="http://www.w3.org/1999/02/22-rdf-syntax-ns#"
   xmlns:svg="http://www.w3.org/2000/svg"
   xmlns="http://www.w3.org/2000/svg"
   xmlns:sodipodi="http://sodipodi.sourceforge.net/DTD/sodipodi-0.dtd"
   xmlns:inkscape="http://www.inkscape.org/namespaces/inkscape"
   width="100%"
   height="100%"
   viewBox="0 0 300 100"
   version="1.1"
   xml:space="preserve"
   style="fill-rule:evenodd;clip-rule:evenodd;stroke-linejoin:round;stroke-miterlimit:2;"
   id="svg1125"
   sodipodi:docname="greene-king.svg"
   inkscape:version="0.92.5 (2060ec1f9f, 2020-04-08)"><metadata
   id="metadata1131"><rdf:RDF><cc:Work
       rdf:about=""><dc:format>image/svg+xml</dc:format><dc:type
         rdf:resource="http://purl.org/dc/dcmitype/StillImage" /></cc:Work></rdf:RDF></metadata><defs
   id="defs1129" /><sodipodi:namedview
   pagecolor="#ffffff"
   bordercolor="#666666"
   borderopacity="1"
   objecttolerance="10"
   gridtolerance="10"
   guidetolerance="10"
   inkscape:pageopacity="0"
   inkscape:pageshadow="2"
   inkscape:window-width="2800"
   inkscape:window-height="1672"
   id="namedview1127"
   showgrid="false"
   inkscape:zoom="3.2133333"
   inkscape:cx="175.49"
   inkscape:cy="35.283967"
   inkscape:window-x="80"
   inkscape:window-y="54"
   inkscape:window-maximized="1"
   inkscape:current-layer="svg1125" />
    <g
   id="g16713"
   transform="matrix(1.03585,0,0,1.03585,-288.01694,-728.01761)">
        <g
   id="g1122">
            <path
   id="path15569"
   d="m 339.706,785.73 c -5.447,0 -9.464,-3.812 -9.464,-9.023 0,-5.237 4.121,-9.231 9.541,-9.231 2.074,0 3.915,0.519 6.326,1.582 v 3.033 c -2.074,-1.14 -4.252,-1.943 -6.378,-1.943 -3.864,0 -6.534,2.979 -6.534,6.48 0,3.683 2.644,6.431 6.872,6.431 1.788,0 2.67,-0.415 3.448,-0.7 v -4.071 h -4.123 l 0.856,-2.722 h 6.223 v 8.686 c -2.36,1.036 -4.304,1.478 -6.767,1.478"
   style="fill:#00462c;fill-rule:nonzero"
   inkscape:connector-curvature="0" />
            <path
   id="path15573"
   d="m 356.714,770.302 h -1.427 v 4.978 h 1.427 c 2.412,0 3.112,-1.321 3.086,-2.617 -0.026,-1.479 -0.908,-2.361 -3.086,-2.361 m 5.782,15.168 -4.07,-6.015 c -0.91,-1.323 -1.246,-1.556 -1.66,-1.556 h -1.479 v 7.571 h -2.955 v -17.787 h 4.486 c 3.682,0 5.962,1.816 5.962,5.056 0,2.049 -0.957,3.552 -2.85,4.305 0.673,0.104 6.144,8.426 6.17,8.426 z"
   style="fill:#00462c;fill-rule:nonzero"
   inkscape:connector-curvature="0" />
            <path
   id="path15577"
   d="m 369.781,785.47 v -17.787 h 10.372 l -0.96,2.724 h -6.456 v 4.77 h 6.508 v 2.722 h -6.508 v 4.85 h 7.442 v 2.721 z"
   style="fill:#00462c;fill-rule:nonzero"
   inkscape:connector-curvature="0" />
            <path
   id="path15581"
   d="m 385.91,785.47 v -17.787 h 10.371 l -0.96,2.724 h -6.456 v 4.77 h 6.509 v 2.722 h -6.509 v 4.85 h 7.441 v 2.721 z"
   style="fill:#00462c;fill-rule:nonzero"
   inkscape:connector-curvature="0" />
            <path
   id="path15585"
   d="m 415.909,785.47 -11.046,-12.731 v 12.731 h -2.826 v -17.787 h 2.256 l 11.356,13.12 v -13.12 h 2.853 v 17.787 z"
   style="fill:#00462c;fill-rule:nonzero"
   inkscape:connector-curvature="0" />
            <path
   id="path15589"
   d="m 425.036,785.47 v -17.787 h 10.37 l -0.96,2.724 h -6.454 v 4.77 h 6.506 v 2.722 h -6.506 v 4.85 h 7.44 v 2.721 z"
   style="fill:#00462c;fill-rule:nonzero"
   inkscape:connector-curvature="0" />
            <path
   id="path15593"
   d="m 461.465,785.47 -9.049,-8.789 v 8.789 h -2.957 v -17.787 h 2.957 v 8.143 l 7.465,-8.143 h 3.711 l -7.753,8.427 9.516,9.36 z"
   style="fill:#00462c;fill-rule:nonzero"
   inkscape:connector-curvature="0" />
            <rect
   id="path15595"
   x="468.77499"
   y="767.68298"
   width="2.957"
   height="17.787001"
   style="fill:#00462c;fill-rule:nonzero" />
            <path
   id="path15599"
   d="m 492.137,785.47 -11.045,-12.731 v 12.731 h -2.827 v -17.787 h 2.256 l 11.356,13.12 v -13.12 h 2.852 v 17.787 z"
   style="fill:#00462c;fill-rule:nonzero"
   inkscape:connector-curvature="0" />
            <path
   id="path15603"
   d="m 508.706,785.73 c -5.446,0 -9.465,-3.812 -9.465,-9.023 0,-5.237 4.125,-9.231 9.543,-9.231 2.074,0 3.916,0.519 6.326,1.582 v 3.033 c -2.074,-1.14 -4.252,-1.943 -6.378,-1.943 -3.863,0 -6.534,2.979 -6.534,6.48 0,3.683 2.646,6.431 6.871,6.431 1.789,0 2.671,-0.415 3.449,-0.7 v -4.071 h -4.124 l 0.855,-2.722 h 6.224 v 8.686 c -2.36,1.036 -4.304,1.478 -6.767,1.478"
   style="fill:#00462c;fill-rule:nonzero"
   inkscape:connector-curvature="0" />
            <path
   id="path15607"
   d="m 374.437,795.876 h -1.019 v 1.848 h 1.019 c 0.993,0 1.213,-0.456 1.213,-0.953 0,-0.508 -0.399,-0.895 -1.213,-0.895 m -0.11,-2.645 h -0.909 v 1.652 h 0.895 c 0.58,0 0.965,-0.303 0.965,-0.827 0,-0.522 -0.372,-0.825 -0.951,-0.825 m 0.276,5.581 h -2.398 v -6.672 h 2.096 c 1.446,0 2.218,0.718 2.218,1.764 0,0.898 -0.429,1.227 -0.909,1.394 0.977,0.179 1.295,0.965 1.295,1.598 0,1.254 -1.019,1.916 -2.302,1.916"
   style="fill:#a06d1b;fill-rule:nonzero"
   inkscape:connector-curvature="0" />
            <path
   id="path15611"
   d="m 382.031,798.949 c -1.447,0 -2.852,-0.785 -2.852,-2.592 v -4.216 h 1.212 v 3.764 c 0,0.743 0.083,1.06 0.358,1.364 0.344,0.371 0.772,0.564 1.295,0.564 0.663,0 1.144,-0.235 1.42,-0.539 0.304,-0.343 0.385,-0.826 0.385,-1.446 v -3.707 h 1.215 v 4.121 c 0,1.627 -0.993,2.687 -3.033,2.687"
   style="fill:#a06d1b;fill-rule:nonzero"
   inkscape:connector-curvature="0" />
            <path
   id="path15615"
   d="m 389.5,793.231 h -0.744 v 1.873 h 0.744 c 0.91,0 1.159,-0.455 1.159,-0.951 0,-0.509 -0.304,-0.922 -1.159,-0.922 m 1.999,5.581 -1.253,-2.04 c -0.318,-0.509 -0.483,-0.58 -0.635,-0.58 h -0.855 v 2.62 h -1.212 v -6.656 h 2.135 c 1.38,0 2.233,0.688 2.233,1.9 0,0.772 -0.385,1.461 -1.101,1.751 0.288,0.041 2.011,3.005 2.08,3.005 z"
   style="fill:#a06d1b;fill-rule:nonzero"
   inkscape:connector-curvature="0" />
            <path
   id="path15619"
   d="m 397.26,795.82 v 2.992 h -1.215 v -2.936 l -2.438,-3.736 h 1.406 l 1.64,2.564 1.668,-2.564 h 1.35 z"
   style="fill:#a06d1b;fill-rule:nonzero"
   inkscape:connector-curvature="0" />
            <path
   id="path15623"
   d="m 406.823,798.936 c -0.73,0 -1.391,-0.138 -1.999,-0.51 v -1.281 c 0.579,0.344 1.033,0.66 1.959,0.66 0.674,0 0.99,-0.303 0.99,-0.676 0,-0.591 -0.55,-0.839 -0.853,-1.004 -1.475,-0.813 -2.177,-1.213 -2.177,-2.233 0,-1.31 1.157,-1.888 2.232,-1.888 0.332,0 0.977,0.011 1.75,0.37 v 1.255 c -0.414,-0.247 -0.952,-0.509 -1.778,-0.509 -0.854,0 -0.964,0.482 -0.964,0.648 0,0.481 0.357,0.646 1.668,1.349 1.172,0.621 1.364,1.379 1.364,1.917 0,1.364 -1.254,1.902 -2.192,1.902"
   style="fill:#a06d1b;fill-rule:nonzero"
   inkscape:connector-curvature="0" />
            <path
   id="path15627"
   d="m 415.548,793.231 h -1.958 v 5.581 h -1.213 v -5.581 h -2.207 v -1.09 h 5.776 z"
   style="fill:#a06d1b;fill-rule:nonzero"
   inkscape:connector-curvature="0" />
            <path
   id="path15631"
   d="m 425.207,793.231 h -2.741 v 1.612 h 2.673 v 1.089 h -2.673 v 1.792 h 2.934 v 1.088 h -4.148 v -6.671 h 4.355 z"
   style="fill:#a06d1b;fill-rule:nonzero"
   inkscape:connector-curvature="0" />
            <path
   id="path15635"
   d="m 430.072,793.231 h -1.212 v 4.493 h 1.212 c 1.584,0 2.314,-1.007 2.314,-2.247 0,-1.241 -0.73,-2.246 -2.314,-2.246 m 0.084,5.581 h -2.511 v -6.656 h 2.511 c 2.148,0 3.485,1.473 3.485,3.321 0,1.846 -1.337,3.335 -3.485,3.335"
   style="fill:#a06d1b;fill-rule:nonzero"
   inkscape:connector-curvature="0" />
            <path
   id="path15639"
   d="m 441.222,798.812 v -4.522 l -1.943,2.77 h -0.552 l -1.944,-2.77 v 4.522 h -1.212 v -6.656 h 1.062 l 2.37,3.374 2.371,-3.374 h 1.06 v 6.656 z"
   style="fill:#a06d1b;fill-rule:nonzero"
   inkscape:connector-curvature="0" />
            <path
   id="path15643"
   d="m 447.768,798.949 c -1.448,0 -2.852,-0.785 -2.852,-2.592 v -4.216 h 1.211 v 3.764 c 0,0.743 0.084,1.06 0.359,1.364 0.345,0.371 0.772,0.564 1.296,0.564 0.661,0 1.142,-0.235 1.418,-0.539 0.304,-0.343 0.387,-0.826 0.387,-1.446 v -3.707 h 1.213 v 4.121 c 0,1.627 -0.993,2.687 -3.032,2.687"
   style="fill:#a06d1b;fill-rule:nonzero"
   inkscape:connector-curvature="0" />
            <path
   id="path15647"
   d="m 458.256,798.812 -3.763,-4.715 v 4.715 h -1.213 v -6.671 h 1.17 l 3.791,4.769 v -4.769 h 1.213 v 6.671 z"
   style="fill:#a06d1b;fill-rule:nonzero"
   inkscape:connector-curvature="0" />
            <path
   id="path15651"
   d="m 464.443,793.231 h -1.212 v 4.493 h 1.212 c 1.585,0 2.313,-1.007 2.313,-2.247 0,-1.241 -0.728,-2.246 -2.313,-2.246 m 0.083,5.581 h -2.51 v -6.656 h 2.51 c 2.149,0 3.486,1.473 3.486,3.321 0,1.846 -1.337,3.335 -3.486,3.335"
   style="fill:#a06d1b;fill-rule:nonzero"
   inkscape:connector-curvature="0" />
            <path
   id="path15655"
   d="m 471.318,798.936 c -0.729,0 -1.39,-0.138 -1.997,-0.51 v -1.281 c 0.579,0.344 1.033,0.66 1.959,0.66 0.674,0 0.989,-0.303 0.989,-0.676 0,-0.591 -0.551,-0.839 -0.853,-1.004 -1.475,-0.813 -2.178,-1.213 -2.178,-2.233 0,-1.31 1.158,-1.888 2.234,-1.888 0.33,0 0.977,0.011 1.749,0.37 v 1.255 c -0.413,-0.247 -0.952,-0.509 -1.777,-0.509 -0.855,0 -0.964,0.482 -0.964,0.648 0,0.481 0.357,0.646 1.666,1.349 1.172,0.621 1.364,1.379 1.364,1.917 0,1.364 -1.253,1.902 -2.192,1.902"
   style="fill:#a06d1b;fill-rule:nonzero"
   inkscape:connector-curvature="0" />
            <path
   id="path15659"
   d="m 395.564,734.981 h -1.304 c 0.437,-2.224 1.231,-4.112 2.443,-6.066 h -3.415 l 0.157,-1.106 h 4.915 v 0.522 c -1.344,2.078 -2.326,4.27 -2.796,6.65"
   style="fill:#a06d1b;fill-rule:nonzero"
   inkscape:connector-curvature="0" />
            <path
   id="path15663"
   d="m 399.254,707.91 c 2.335,1.562 4.186,-0.229 5.49,1.899 -2.699,-0.875 -4.168,0.592 -5.49,-1.899"
   style="fill:#a06d1b;fill-rule:nonzero"
   inkscape:connector-curvature="0" />
            <path
   id="path15667"
   d="m 403.62,714.053 c 2.334,1.561 4.186,-0.23 5.488,1.897 -2.697,-0.871 -4.166,0.593 -5.488,-1.897"
   style="fill:#a06d1b;fill-rule:nonzero"
   inkscape:connector-curvature="0" />
            <path
   id="path15671"
   d="m 400.353,709.444 c 2.337,1.561 4.185,-0.228 5.488,1.897 -2.697,-0.87 -4.168,0.595 -5.488,-1.897"
   style="fill:#a06d1b;fill-rule:nonzero"
   inkscape:connector-curvature="0" />
            <path
   id="path15675"
   d="m 401.453,710.978 c 2.335,1.563 4.186,-0.229 5.487,1.899 -2.699,-0.874 -4.165,0.593 -5.487,-1.899"
   style="fill:#a06d1b;fill-rule:nonzero"
   inkscape:connector-curvature="0" />
            <path
   id="path15679"
   d="m 402.552,712.511 c 2.337,1.565 4.185,-0.227 5.489,1.901 -2.699,-0.874 -4.167,0.593 -5.489,-1.901"
   style="fill:#a06d1b;fill-rule:nonzero"
   inkscape:connector-curvature="0" />
            <path
   id="path15683"
   d="m 410.128,715.143 c 0.058,-2.597 1.638,-3.582 0.374,-5.325 l -4.395,-6.125 c -0.105,-0.147 -0.232,-0.301 -0.381,-0.46 0.671,2.53 -1.268,3.721 -0.253,5.425 -1.339,-1.865 -2.215,-3.088 -2.215,-3.088 -0.121,-0.168 -0.359,-0.207 -0.528,-0.087 -0.167,0.123 -0.208,0.358 -0.117,0.527 l 15.58,21.64 c 0.233,0 0.572,-0.076 0.759,-0.214 0.002,-0.001 -4.6,-6.416 -8.823,-12.293"
   style="fill:#a06d1b;fill-rule:nonzero"
   inkscape:connector-curvature="0" />
            <path
   id="path15687"
   d="m 447.44,707.91 c -2.339,1.562 -4.187,-0.229 -5.492,1.899 2.7,-0.875 4.168,0.592 5.492,-1.899"
   style="fill:#a06d1b;fill-rule:nonzero"
   inkscape:connector-curvature="0" />
            <path
   id="path15691"
   d="m 443.073,714.053 c -2.336,1.561 -4.186,-0.23 -5.488,1.897 2.697,-0.871 4.165,0.593 5.488,-1.897"
   style="fill:#a06d1b;fill-rule:nonzero"
   inkscape:connector-curvature="0" />
            <path
   id="path15695"
   d="m 446.339,709.444 c -2.338,1.561 -4.186,-0.228 -5.488,1.897 2.697,-0.87 4.165,0.595 5.488,-1.897"
   style="fill:#a06d1b;fill-rule:nonzero"
   inkscape:connector-curvature="0" />
            <path
   id="path15699"
   d="m 445.24,710.978 c -2.336,1.563 -4.187,-0.229 -5.488,1.899 2.698,-0.874 4.166,0.593 5.488,-1.899"
   style="fill:#a06d1b;fill-rule:nonzero"
   inkscape:connector-curvature="0" />
            <path
   id="path15703"
   d="m 444.14,712.511 c -2.336,1.565 -4.184,-0.227 -5.487,1.901 2.696,-0.874 4.165,0.593 5.487,-1.901"
   style="fill:#a06d1b;fill-rule:nonzero"
   inkscape:connector-curvature="0" />
            <path
   id="path15707"
   d="m 436.562,715.143 c -0.055,-2.597 -1.634,-3.582 -0.371,-5.325 l 4.392,-6.125 c 0.109,-0.147 0.235,-0.301 0.383,-0.46 -0.669,2.53 1.267,3.721 0.253,5.425 1.339,-1.865 2.218,-3.088 2.218,-3.088 0.118,-0.168 0.356,-0.207 0.524,-0.087 0.167,0.123 0.209,0.358 0.118,0.527 l -15.58,21.64 c -0.233,0 -0.572,-0.076 -0.76,-0.214 -10e-4,-0.001 4.603,-6.416 8.823,-12.293"
   style="fill:#a06d1b;fill-rule:nonzero"
   inkscape:connector-curvature="0" />
            <path
   id="path15711"
   d="m 424.51,732.459 c 0,0.64 -0.52,1.159 -1.16,1.159 -0.639,0 -1.159,-0.519 -1.159,-1.159 0,-0.64 0.52,-1.158 1.159,-1.158 0.64,0 1.16,0.518 1.16,1.158"
   style="fill:#a06d1b;fill-rule:nonzero"
   inkscape:connector-curvature="0" />
            <path
   id="path15715"
   d="m 411.897,733.091 c 0,0.422 -0.34,0.767 -0.764,0.767 -0.424,0 -0.766,-0.346 -0.766,-0.767 0,-0.424 0.342,-0.765 0.766,-0.765 0.424,0 0.764,0.341 0.764,0.765"
   style="fill:#a06d1b;fill-rule:nonzero"
   inkscape:connector-curvature="0" />
            <path
   id="path15719"
   d="m 436.322,733.091 c 0,0.422 -0.343,0.767 -0.765,0.767 -0.423,0 -0.767,-0.346 -0.767,-0.767 0,-0.424 0.344,-0.765 0.767,-0.765 0.423,0 0.765,0.341 0.765,0.765"
   style="fill:#a06d1b;fill-rule:nonzero"
   inkscape:connector-curvature="0" />
            <path
   id="path15723"
   d="m 435.556,734.464 c -0.76,0 -1.373,-0.614 -1.373,-1.374 0,-0.757 0.613,-1.37 1.373,-1.37 0.758,0 1.371,0.613 1.371,1.37 0,0.76 -0.613,1.374 -1.371,1.374 m -12.206,-0.115 c -1.044,0 -1.89,-0.846 -1.89,-1.889 0,-1.044 0.846,-1.891 1.89,-1.891 1.045,0 1.89,0.847 1.89,1.891 0,1.043 -0.845,1.889 -1.89,1.889 m -12.218,0.115 c -0.758,0 -1.373,-0.614 -1.373,-1.374 0,-0.757 0.615,-1.37 1.373,-1.37 0.759,0 1.372,0.613 1.372,1.37 0,0.76 -0.613,1.374 -1.372,1.374 m 12.214,-4.498 c -8.414,0 -15.766,0.987 -17.184,2.259 0.746,1.345 1.564,2.909 2.216,4.288 0.618,-0.897 7.629,-1.573 14.97,-1.573 6.622,0 14.222,0.66 14.974,1.53 0.653,-1.378 1.502,-2.9 2.252,-4.245 -1.42,-1.272 -8.812,-2.259 -17.228,-2.259"
   style="fill:#a06d1b;fill-rule:nonzero"
   inkscape:connector-curvature="0" />
            <path
   id="path15727"
   d="m 441.062,731.465 c 2.572,-4.5 5.17,-8.215 5.17,-8.215 -2.772,-0.457 -3.375,2.732 -4.128,2.701 -0.311,-0.015 -0.355,-0.528 -0.532,-1.078 -0.306,-0.943 -1.13,-1.594 -2.279,-1.348 -2.356,0.498 -0.985,2.821 -0.995,2.806 -0.05,-0.508 1.396,-1.174 2.024,-0.172 0.936,1.492 -0.27,3.69 -3.913,2.974 -2.695,-0.527 -2.499,-1.832 -2.564,-2.802 v -0.004 c 0.624,-0.156 1.088,-0.721 1.088,-1.394 0,-0.796 -0.645,-1.44 -1.439,-1.44 -0.796,0 -1.44,0.644 -1.44,1.44 0,0.506 0.26,0.952 0.655,1.209 -10e-4,0.008 -0.003,0.012 -0.004,0.019 -0.544,2.427 -7.277,3.683 -7.164,-1.768 0.04,-1.867 2.371,-2.796 3.767,-1.428 0.829,-1.607 -0.16,-3.084 -1.861,-3.34 -1.588,-0.24 -1.991,0.935 -2.554,0.359 -0.294,-0.3 0.543,-1.554 0.475,-2.052 -0.247,-1.532 -2.028,-2.956 -2.028,-2.956 0,0 -1.748,1.424 -1.995,2.956 -0.068,0.498 0.791,1.78 0.476,2.052 -0.608,0.528 -0.966,-0.599 -2.553,-0.359 -1.701,0.256 -2.692,1.733 -1.864,3.34 1.4,-1.368 3.729,-0.439 3.768,1.428 0.115,5.451 -6.62,4.195 -7.163,1.768 -0.002,-0.007 -0.003,-0.011 -0.007,-0.019 0.394,-0.257 0.657,-0.703 0.657,-1.209 0,-0.796 -0.643,-1.44 -1.44,-1.44 -0.795,0 -1.44,0.644 -1.44,1.44 0,0.673 0.464,1.239 1.088,1.394 v 0.004 c -0.065,0.971 0.131,2.276 -2.564,2.803 -3.643,0.716 -4.852,-1.481 -3.916,-2.973 0.631,-1.003 2.076,-0.336 2.029,0.172 -0.011,0.015 1.359,-2.308 -1,-2.807 -1.146,-0.245 -1.972,0.405 -2.276,1.348 -0.177,0.551 -0.221,1.064 -0.532,1.079 -0.75,0.03 -1.354,-3.159 -4.128,-2.702 0,0 2.596,3.715 5.172,8.215 1.399,-1.285 9.344,-2.284 17.694,-2.284 8.346,0 16.316,0.999 17.716,2.284"
   style="fill:#a06d1b;fill-rule:nonzero"
   inkscape:connector-curvature="0" />
            <path
   id="path15731"
   d="m 409.138,737.087 c 0,0.468 4.171,1.054 9.932,1.259 l 1.889,-2.636 c -6.706,0.145 -11.821,0.86 -11.821,1.377"
   style="fill:#a06d1b;fill-rule:nonzero"
   inkscape:connector-curvature="0" />
            <path
   id="path15735"
   d="m 437.587,737.087 c 0,-0.518 -5.117,-1.236 -11.844,-1.378 l 1.893,2.636 c 5.764,-0.205 9.951,-0.79 9.951,-1.258"
   style="fill:#a06d1b;fill-rule:nonzero"
   inkscape:connector-curvature="0" />
            <path
   id="path15739"
   d="m 423.352,736.057 -0.015,0.015 -1.673,2.335 c 0.553,0.008 1.112,0.015 1.684,0.015 0.572,0 1.133,-0.007 1.688,-0.015 l -1.672,-2.335 z"
   style="fill:#a06d1b;fill-rule:nonzero"
   inkscape:connector-curvature="0" />
            <path
   id="path15743"
   d="m 412.2,750.41 10.575,-14.743 -0.941,0.019 -8.71,12.145 -2.693,-0.161 -2.663,8.929 4.419,-6.176 c 0.003,-0.003 0.008,-0.007 0.015,-0.011"
   style="fill:#a06d1b;fill-rule:nonzero"
   inkscape:connector-curvature="0" />
            <path
   id="path15747"
   d="m 409.109,755.98 6.658,-4.118 -1.356,-3.308 z"
   style="fill:#a06d1b;fill-rule:nonzero"
   inkscape:connector-curvature="0" />
            <path
   id="path15751"
   d="m 434.521,750.422 4.418,6.176 -2.663,-8.929 -2.692,0.16 -8.712,-12.146 -0.939,-0.015 10.574,14.743 c 0.004,0.004 0.011,0.007 0.015,0.011"
   style="fill:#a06d1b;fill-rule:nonzero"
   inkscape:connector-curvature="0" />
            <path
   id="path15755"
   d="m 430.94,751.862 6.657,4.119 -5.3,-7.428 z"
   style="fill:#a06d1b;fill-rule:nonzero"
   inkscape:connector-curvature="0" />
            <path
   id="path15759"
   d="m 448.986,728.793 c -0.898,0 -1.292,0.668 -1.292,1.241 0,0.772 0.532,1.147 1.272,1.147 0.677,0 1.052,-0.24 1.292,-0.448 0.03,-0.158 0.062,-0.312 0.062,-0.552 0,-0.887 -0.645,-1.388 -1.334,-1.388 m -0.74,6.517 -0.742,-0.865 c 1.055,-0.418 2.107,-1.178 2.567,-2.471 -0.293,0.229 -0.888,0.344 -1.368,0.344 -1.208,0 -2.229,-0.845 -2.219,-2.18 0.008,-1.231 1.031,-2.407 2.41,-2.407 1.562,0 2.657,1.115 2.657,2.824 0,2.544 -1.636,3.92 -3.305,4.755"
   style="fill:#a06d1b;fill-rule:nonzero"
   inkscape:connector-curvature="0" />
            <path
   id="path15763"
   d="m 456.483,728.793 c -0.896,0 -1.294,0.668 -1.294,1.241 0,0.772 0.532,1.147 1.274,1.147 0.677,0 1.052,-0.24 1.289,-0.448 0.034,-0.158 0.067,-0.312 0.067,-0.552 0,-0.887 -0.648,-1.388 -1.336,-1.388 m -0.742,6.517 -0.74,-0.865 c 1.054,-0.418 2.106,-1.178 2.566,-2.471 -0.293,0.229 -0.887,0.344 -1.367,0.344 -1.208,0 -2.231,-0.845 -2.22,-2.18 0.008,-1.231 1.032,-2.407 2.408,-2.407 1.565,0 2.66,1.115 2.66,2.824 0,2.544 -1.64,3.92 -3.307,4.755"
   style="fill:#a06d1b;fill-rule:nonzero"
   inkscape:connector-curvature="0" />
            <path
   id="path15767"
   d="m 388.691,733.734 v -4.752 l -1.709,0.707 -0.314,-0.948 2.274,-1.009 h 0.958 v 6.002 z"
   style="fill:#a06d1b;fill-rule:nonzero"
   inkscape:connector-curvature="0" />
        </g>
    </g>
</svg>