<?xml version="1.0" encoding="UTF-8" standalone="no"?>
<!DOCTYPE svg PUBLIC "-//W3C//DTD SVG 1.1//EN" "http://www.w3.org/Graphics/SVG/1.1/DTD/svg11.dtd">
<svg width="100%" height="100%" viewBox="0 0 300 100" version="1.1" xmlns="http://www.w3.org/2000/svg" xmlns:xlink="http://www.w3.org/1999/xlink" xml:space="preserve" xmlns:serif="http://www.serif.com/" style="fill-rule:evenodd;clip-rule:evenodd;stroke-linejoin:round;stroke-miterlimit:2;">
    <path d="M13.463,30.923C23.653,13.905 47.055,1.99 74.266,1.99C110.829,1.99 140.514,23.502 140.514,50C140.514,76.498 110.829,98.01 74.266,98.01C46.777,98.01 23.176,85.85 13.155,68.554L71.507,68.554L71.507,58.203L8.984,58.203C8.746,57.204 8.551,56.194 8.4,55.175L71.507,55.175L71.507,44.825L8.4,44.825C8.578,43.627 8.816,42.443 9.113,41.274L71.507,41.274L71.507,30.923L13.463,30.923ZM76.451,44.637L124.229,44.637L124.258,44.721C134.146,73.422 74.537,102.929 33.986,71.09L56.221,71.09C74.728,78.746 104.765,71.818 108.97,54.931L76.451,54.931L76.451,44.637ZM33.986,28.501L56.221,28.501C72.452,22.639 87.946,24.323 102.605,34.557L113.079,26.917C92.114,9.862 51.42,10.864 33.986,28.501Z" style="fill:rgb(0,45,105);"/>
    <g transform="matrix(1.10127,0,-0.0647756,1.03917,-40.0084,-1.78939)">
        <g transform="matrix(25.9793,0,0,25.9793,192.042,44.6372)">
            <path d="M0.671,-0.387L0.378,-0.387L0.352,-0.264L0.511,-0.264L0.51,-0.261C0.493,-0.18 0.458,-0.103 0.342,-0.103C0.245,-0.103 0.203,-0.173 0.203,-0.279C0.203,-0.414 0.267,-0.587 0.416,-0.587C0.515,-0.587 0.548,-0.528 0.551,-0.478L0.692,-0.478C0.692,-0.605 0.597,-0.699 0.433,-0.699C0.178,-0.699 0.057,-0.473 0.057,-0.269C0.057,-0.108 0.138,0.01 0.3,0.01C0.386,0.01 0.446,-0.013 0.493,-0.075C0.489,-0.054 0.485,-0.017 0.487,0L0.597,0L0.671,-0.387Z" style="fill:rgb(0,45,105);fill-rule:nonzero;"/>
        </g>
        <g transform="matrix(25.9793,0,0,25.9793,210.422,44.6372)">
            <path d="M0.562,-0.518L0.426,-0.518L0.371,-0.264C0.347,-0.149 0.295,-0.102 0.236,-0.102C0.178,-0.102 0.17,-0.137 0.181,-0.191L0.251,-0.518L0.116,-0.518L0.043,-0.173C0.018,-0.054 0.073,0.01 0.169,0.01C0.238,0.01 0.294,-0.015 0.333,-0.072C0.328,-0.053 0.323,-0.014 0.322,0L0.455,0C0.462,-0.042 0.472,-0.093 0.482,-0.138L0.562,-0.518Z" style="fill:rgb(0,45,105);fill-rule:nonzero;"/>
        </g>
        <g transform="matrix(25.9793,0,0,25.9793,225.256,44.6372)">
            <path d="M0.505,-0.228C0.513,-0.257 0.519,-0.287 0.519,-0.329C0.519,-0.435 0.465,-0.528 0.313,-0.528C0.107,-0.528 0.033,-0.339 0.033,-0.202C0.033,-0.077 0.101,0.01 0.24,0.01C0.395,0.01 0.461,-0.081 0.49,-0.158L0.348,-0.158C0.331,-0.124 0.307,-0.095 0.251,-0.095C0.19,-0.095 0.169,-0.142 0.169,-0.197C0.169,-0.208 0.171,-0.217 0.173,-0.228L0.505,-0.228ZM0.191,-0.319C0.209,-0.386 0.247,-0.426 0.309,-0.426C0.369,-0.426 0.389,-0.387 0.389,-0.342C0.389,-0.336 0.389,-0.328 0.387,-0.319L0.191,-0.319Z" style="fill:rgb(0,45,105);fill-rule:nonzero;"/>
        </g>
        <g transform="matrix(25.9793,0,0,25.9793,239.561,44.6372)">
            <path d="M0.407,-0.528C0.317,-0.528 0.27,-0.486 0.235,-0.424C0.244,-0.466 0.249,-0.505 0.25,-0.518L0.119,-0.518C0.11,-0.47 0.1,-0.415 0.089,-0.364L0.011,0L0.147,0L0.195,-0.225C0.219,-0.338 0.285,-0.39 0.38,-0.391L0.407,-0.528Z" style="fill:rgb(0,45,105);fill-rule:nonzero;"/>
        </g>
        <g transform="matrix(25.9793,0,0,25.9793,249.35,44.6372)">
            <path d="M0.011,0L0.147,0L0.203,-0.268C0.224,-0.364 0.266,-0.414 0.332,-0.414C0.39,-0.414 0.403,-0.372 0.39,-0.314L0.324,0L0.459,0L0.525,-0.313C0.558,-0.466 0.5,-0.528 0.398,-0.528C0.311,-0.528 0.266,-0.484 0.242,-0.453C0.245,-0.466 0.251,-0.503 0.252,-0.518L0.119,-0.518C0.112,-0.474 0.102,-0.43 0.093,-0.386L0.011,0Z" style="fill:rgb(0,45,105);fill-rule:nonzero;"/>
        </g>
        <g transform="matrix(25.9793,0,0,25.9793,264.295,44.6372)">
            <path d="M0.008,-0.16C0.002,-0.052 0.082,0.01 0.22,0.01C0.342,0.01 0.449,-0.045 0.449,-0.164C0.449,-0.236 0.407,-0.283 0.286,-0.321C0.223,-0.342 0.195,-0.352 0.195,-0.38C0.195,-0.416 0.229,-0.427 0.263,-0.427C0.321,-0.427 0.335,-0.4 0.337,-0.372L0.475,-0.372C0.478,-0.454 0.414,-0.528 0.27,-0.528C0.132,-0.528 0.059,-0.456 0.059,-0.363C0.059,-0.299 0.096,-0.257 0.217,-0.219C0.282,-0.199 0.309,-0.183 0.309,-0.15C0.309,-0.115 0.288,-0.091 0.235,-0.091C0.178,-0.091 0.149,-0.115 0.145,-0.16L0.008,-0.16Z" style="fill:rgb(0,45,105);fill-rule:nonzero;"/>
        </g>
        <g transform="matrix(25.9793,0,0,25.9793,277.087,44.6372)">
            <path d="M0.505,-0.228C0.513,-0.257 0.519,-0.287 0.519,-0.329C0.519,-0.435 0.465,-0.528 0.313,-0.528C0.107,-0.528 0.033,-0.339 0.033,-0.202C0.033,-0.077 0.101,0.01 0.24,0.01C0.395,0.01 0.461,-0.081 0.49,-0.158L0.348,-0.158C0.331,-0.124 0.307,-0.095 0.251,-0.095C0.19,-0.095 0.169,-0.142 0.169,-0.197C0.169,-0.208 0.171,-0.217 0.173,-0.228L0.505,-0.228ZM0.191,-0.319C0.209,-0.386 0.247,-0.426 0.309,-0.426C0.369,-0.426 0.389,-0.387 0.389,-0.342C0.389,-0.336 0.389,-0.328 0.387,-0.319L0.191,-0.319Z" style="fill:rgb(0,45,105);fill-rule:nonzero;"/>
        </g>
        <g transform="matrix(25.9793,0,0,25.9793,291.602,44.6372)">
            <path d="M0.048,-0.518L0.116,0.03C0.096,0.068 0.077,0.093 0.014,0.093C-0.007,0.093 -0.022,0.091 -0.031,0.089L-0.056,0.201C-0.036,0.205 -0.001,0.208 0.013,0.208C0.121,0.208 0.178,0.191 0.265,0.023L0.547,-0.518L0.405,-0.518C0.299,-0.302 0.24,-0.168 0.214,-0.111L0.213,-0.111C0.212,-0.165 0.203,-0.297 0.184,-0.518L0.048,-0.518Z" style="fill:rgb(0,45,105);fill-rule:nonzero;"/>
        </g>
    </g>
    <g transform="matrix(1.11144,0,-0.0647756,1.03917,-50.8972,22.4852)">
        <g transform="matrix(25.9793,0,0,25.9793,192.042,44.6372)">
            <path d="M0.561,-0.417L0.251,-0.417L0.284,-0.574L0.608,-0.574L0.633,-0.689L0.17,-0.689L0.024,0L0.499,0L0.54,-0.116L0.187,-0.116L0.226,-0.301L0.536,-0.301L0.561,-0.417Z" style="fill:rgb(0,45,105);fill-rule:nonzero;"/>
        </g>
        <g transform="matrix(25.9793,0,0,25.9793,207.619,44.6372)">
            <path d="M0.147,0L0.301,-0.73L0.165,-0.73L0.011,0L0.147,0Z" style="fill:rgb(0,45,105);fill-rule:nonzero;"/>
        </g>
        <g transform="matrix(25.9793,0,0,25.9793,214.504,44.6372)">
            <path d="M0.505,-0.228C0.513,-0.257 0.519,-0.287 0.519,-0.329C0.519,-0.435 0.465,-0.528 0.313,-0.528C0.107,-0.528 0.033,-0.339 0.033,-0.202C0.033,-0.077 0.101,0.01 0.24,0.01C0.395,0.01 0.461,-0.081 0.49,-0.158L0.348,-0.158C0.331,-0.124 0.307,-0.095 0.251,-0.095C0.19,-0.095 0.169,-0.142 0.169,-0.197C0.169,-0.208 0.171,-0.217 0.173,-0.228L0.505,-0.228ZM0.191,-0.319C0.209,-0.386 0.247,-0.426 0.309,-0.426C0.369,-0.426 0.389,-0.387 0.389,-0.342C0.389,-0.336 0.389,-0.328 0.387,-0.319L0.191,-0.319Z" style="fill:rgb(0,45,105);fill-rule:nonzero;"/>
        </g>
        <g transform="matrix(25.9793,0,0,25.9793,228.714,44.6372)">
            <path d="M0.348,-0.169C0.327,-0.118 0.296,-0.093 0.251,-0.093C0.202,-0.093 0.173,-0.125 0.173,-0.197C0.173,-0.28 0.211,-0.424 0.307,-0.424C0.368,-0.424 0.381,-0.383 0.382,-0.343L0.514,-0.343C0.521,-0.409 0.479,-0.528 0.311,-0.528C0.119,-0.528 0.033,-0.341 0.033,-0.191C0.033,-0.067 0.102,0.01 0.233,0.01C0.386,0.01 0.456,-0.071 0.484,-0.169L0.348,-0.169Z" style="fill:rgb(0,45,105);fill-rule:nonzero;"/>
        </g>
        <g transform="matrix(25.9793,0,0,25.9793,242.421,44.6372)">
            <path d="M0.044,-0.414L0.121,-0.414L0.065,-0.147C0.046,-0.056 0.063,0.005 0.171,0.005C0.199,0.005 0.232,0.005 0.263,-0.005L0.283,-0.103C0.268,-0.101 0.255,-0.1 0.239,-0.1C0.198,-0.1 0.196,-0.121 0.202,-0.153L0.257,-0.414L0.354,-0.414L0.377,-0.518L0.28,-0.518L0.309,-0.657L0.174,-0.657L0.144,-0.518L0.067,-0.518L0.044,-0.414Z" style="fill:rgb(0,45,105);fill-rule:nonzero;"/>
        </g>
        <g transform="matrix(25.9793,0,0,25.9793,251.503,44.6372)">
            <path d="M0.407,-0.528C0.317,-0.528 0.27,-0.486 0.235,-0.424C0.244,-0.466 0.249,-0.505 0.25,-0.518L0.119,-0.518C0.11,-0.47 0.1,-0.415 0.089,-0.364L0.011,0L0.147,0L0.195,-0.225C0.219,-0.338 0.285,-0.39 0.38,-0.391L0.407,-0.528Z" style="fill:rgb(0,45,105);fill-rule:nonzero;"/>
        </g>
        <g transform="matrix(25.9793,0,0,25.9793,261.292,44.6372)">
            <path d="M0.011,0L0.147,0L0.257,-0.518L0.121,-0.518L0.011,0ZM0.138,-0.602L0.274,-0.602L0.301,-0.73L0.165,-0.73L0.138,-0.602Z" style="fill:rgb(0,45,105);fill-rule:nonzero;"/>
        </g>
        <g transform="matrix(25.9793,0,0,25.9793,268.177,44.6372)">
            <path d="M0.348,-0.169C0.327,-0.118 0.296,-0.093 0.251,-0.093C0.202,-0.093 0.173,-0.125 0.173,-0.197C0.173,-0.28 0.211,-0.424 0.307,-0.424C0.368,-0.424 0.381,-0.383 0.382,-0.343L0.514,-0.343C0.521,-0.409 0.479,-0.528 0.311,-0.528C0.119,-0.528 0.033,-0.341 0.033,-0.191C0.033,-0.067 0.102,0.01 0.233,0.01C0.386,0.01 0.456,-0.071 0.484,-0.169L0.348,-0.169Z" style="fill:rgb(0,45,105);fill-rule:nonzero;"/>
        </g>
        <g transform="matrix(25.9793,0,0,25.9793,282.024,44.6372)">
            <path d="M0.011,0L0.147,0L0.257,-0.518L0.121,-0.518L0.011,0ZM0.138,-0.602L0.274,-0.602L0.301,-0.73L0.165,-0.73L0.138,-0.602Z" style="fill:rgb(0,45,105);fill-rule:nonzero;"/>
        </g>
        <g transform="matrix(25.9793,0,0,25.9793,288.908,44.6372)">
            <path d="M0.044,-0.414L0.121,-0.414L0.065,-0.147C0.046,-0.056 0.063,0.005 0.171,0.005C0.199,0.005 0.232,0.005 0.263,-0.005L0.283,-0.103C0.268,-0.101 0.255,-0.1 0.239,-0.1C0.198,-0.1 0.196,-0.121 0.202,-0.153L0.257,-0.414L0.354,-0.414L0.377,-0.518L0.28,-0.518L0.309,-0.657L0.174,-0.657L0.144,-0.518L0.067,-0.518L0.044,-0.414Z" style="fill:rgb(0,45,105);fill-rule:nonzero;"/>
        </g>
        <g transform="matrix(25.9793,0,0,25.9793,298.576,44.6372)">
            <path d="M0.048,-0.518L0.116,0.03C0.096,0.068 0.077,0.093 0.014,0.093C-0.007,0.093 -0.022,0.091 -0.031,0.089L-0.056,0.201C-0.036,0.205 -0.001,0.208 0.013,0.208C0.121,0.208 0.178,0.191 0.265,0.023L0.547,-0.518L0.405,-0.518C0.299,-0.302 0.24,-0.168 0.214,-0.111L0.213,-0.111C0.212,-0.165 0.203,-0.297 0.184,-0.518L0.048,-0.518Z" style="fill:rgb(0,45,105);fill-rule:nonzero;"/>
        </g>
    </g>
</svg>
