<?xml version="1.0" encoding="UTF-8" standalone="no"?>
<svg
   xmlns:dc="http://purl.org/dc/elements/1.1/"
   xmlns:cc="http://creativecommons.org/ns#"
   xmlns:rdf="http://www.w3.org/1999/02/22-rdf-syntax-ns#"
   xmlns:svg="http://www.w3.org/2000/svg"
   xmlns="http://www.w3.org/2000/svg"
   xmlns:sodipodi="http://sodipodi.sourceforge.net/DTD/sodipodi-0.dtd"
   xmlns:inkscape="http://www.inkscape.org/namespaces/inkscape"
   width="1198.4712"
   height="190.69446"
   viewBox="0 0 92.405005 14.703"
   version="1.1"
   id="svg3414"
   sodipodi:docname="harper-collins.svg"
   inkscape:version="0.92.5 (0.92.5+69)">
  <metadata
     id="metadata3420">
    <rdf:RDF>
      <cc:Work
         rdf:about="">
        <dc:format>image/svg+xml</dc:format>
        <dc:type
           rdf:resource="http://purl.org/dc/dcmitype/StillImage" />
        <dc:title></dc:title>
      </cc:Work>
    </rdf:RDF>
  </metadata>
  <defs
     id="defs3418" />
  <sodipodi:namedview
     pagecolor="#ffffff"
     bordercolor="#666666"
     borderopacity="1"
     objecttolerance="10"
     gridtolerance="10"
     guidetolerance="10"
     inkscape:pageopacity="0"
     inkscape:pageshadow="2"
     inkscape:window-width="1342"
     inkscape:window-height="728"
     id="namedview3416"
     showgrid="false"
     inkscape:zoom="0.64"
     inkscape:cx="396.01169"
     inkscape:cy="74.22607"
     inkscape:window-x="12"
     inkscape:window-y="28"
     inkscape:window-maximized="0"
     inkscape:current-layer="g3412" />
  <g
     id="g3412"
     style="clip-rule:evenodd;fill-rule:evenodd"
     transform="translate(-8.504,-89.027)">
    <path
       d="M 0,0 H 192.756 V 192.756 H 0 Z"
       id="path3404"
       inkscape:connector-curvature="0"
       style="fill:#ffffff" />
    <path
       d="m 23.745,92.208 c 0,-0.601 -0.12,-1.08 -1.32,-1.08 l -0.06,-0.12 v -0.24 c 0,-0.06 0.12,-0.12 0.24,-0.12 0.42,0 1.2,0.061 1.8,0.061 0.54,0 1.08,-0.061 1.68,-0.061 0.24,0 0.36,0 0.36,0.18 v 0.18 c 0,0.12 -0.18,0.12 -0.42,0.12 -0.54,0 -1.08,0 -1.08,0.66 v 3.061 h 5.76 v -2.521 c 0,-0.96 0,-1.14 -1.08,-1.2 -0.12,0 -0.18,-0.06 -0.18,-0.24 v -0.18 l 0.06,-0.061 c 0.48,0.061 1.32,0.061 2.16,0.061 0.84,0 1.2,0 1.56,-0.061 l 0.06,0.12 v 0.24 c 0,0.12 -0.12,0.12 -0.3,0.12 -0.72,0 -1.08,0.12 -1.08,0.9 v 6.661 c 0,0.96 0.54,1.08 1.32,1.08 0.06,0 0.06,0.18 0.06,0.3 0,0.06 -0.06,0.12 -0.419,0.12 -0.54,0 -1.081,-0.061 -1.621,-0.061 -0.479,0 -1.32,0.061 -1.5,0.061 -0.36,0 -0.42,0 -0.42,-0.061 v -0.3 l 0.06,-0.06 c 1.32,0 1.32,-0.301 1.32,-1.261 v -3.12 h -5.76 v 3.42 c 0,0.721 0.18,0.961 1.2,0.961 0.12,0 0.18,0 0.18,0.12 v 0.18 c 0,0.12 -0.12,0.12 -0.42,0.12 -0.54,0 -1.14,-0.061 -1.68,-0.061 -0.48,0 -1.02,0.061 -1.56,0.061 -0.06,0 -0.18,0 -0.24,-0.061 v -0.3 l 0.061,-0.06 c 0.66,0 1.26,-0.061 1.26,-0.78 v -6.778 z m 13.26,4.14 c 0,-0.78 -0.12,-1.319 -1.08,-1.319 -0.36,0 -1.02,0.12 -1.02,0.479 0,0.12 0,0.24 0.06,0.3 l -0.84,0.54 c -0.06,-0.119 -0.12,-0.3 -0.12,-0.42 0,-0.42 0.42,-0.78 0.72,-0.96 l 1.2,-0.66 c 0.18,-0.121 0.24,-0.18 0.3,-0.18 1.14,0 1.68,0.54 1.68,1.68 v 2.82 c 0,0.301 0,0.9 0.48,0.9 0.24,0 0.3,-0.12 0.48,-0.42 l 0.24,0.119 c -0.18,0.601 -0.48,1.141 -1.08,1.141 -0.9,0 -1.02,-0.84 -1.02,-1.2 -0.48,0.54 -1.141,1.2 -1.98,1.2 -0.78,0 -1.2,-1.02 -1.2,-1.62 0,-0.24 0.3,-0.66 1.38,-1.08 l 1.8,-0.66 z m 0,1.02 -1.38,0.6 c -0.18,0.061 -0.66,0.36 -0.66,0.66 0,0.36 0.18,1.08 0.6,1.08 0.48,0 0.96,-0.48 1.32,-0.779 l 0.12,-0.121 z m 4.5,1.38 c 0,0.54 0,1.08 1.02,1.08 0.06,0 0.06,0.061 0.06,0.18 0,0.12 0,0.181 -0.12,0.181 -0.42,0 -0.9,-0.061 -1.38,-0.061 -0.54,0 -1.08,0.061 -1.56,0.061 -0.06,0 -0.06,0 -0.06,-0.12 v -0.12 c 0,-0.12 0,-0.12 0.3,-0.12 0.6,-0.06 0.66,-0.3 0.66,-1.021 v -3 c 0,-0.24 -0.12,-0.42 -0.36,-0.48 -0.06,0 -0.42,-0.12 -0.42,-0.3 0,-0.061 0.06,-0.121 0.18,-0.18 l 1.02,-0.48 c 0.3,-0.12 0.48,-0.24 0.54,-0.24 0.12,0 0.12,0.12 0.12,0.12 v 1.44 c 0.42,-0.54 1.08,-1.56 1.86,-1.56 0.479,0 0.78,0.24 0.78,0.72 0,0.3 -0.24,0.54 -0.54,0.54 -0.36,0 -0.54,-0.24 -0.9,-0.24 -0.36,0 -0.78,0.48 -1.02,0.78 l -0.18,0.301 z m 3.781,-2.58 c 0,-0.6 0,-0.72 -0.3,-0.84 l -0.48,-0.18 v -0.12 c 0,-0.121 0,-0.121 0.12,-0.18 l 1.62,-0.78 c 0.06,0 0.06,0.12 0.06,0.18 0,0.24 0,0.54 0.06,0.78 0.42,-0.24 1.56,-0.9 1.98,-0.9 1.5,0 2.52,1.5 2.52,2.88 0,2.58 -2.64,3.36 -3.66,3.36 -0.3,0 -0.6,-0.061 -0.84,-0.12 v 2.101 c 0,0.9 0.18,0.96 1.2,1.02 l 0.06,0.061 v 0.18 c 0,0.06 0,0.12 -0.06,0.12 -0.6,0 -1.141,-0.061 -1.74,-0.061 -0.6,0 -1.14,0.061 -1.5,0.061 -0.12,0 -0.12,-0.061 -0.12,-0.181 v -0.06 -0.12 c 1.02,-0.119 1.08,-0.119 1.08,-1.2 z m 1.08,2.7 c 0,0.66 0.66,0.9 1.32,0.9 1.38,0 2.1,-0.961 2.1,-2.341 0,-1.199 -0.72,-2.399 -2.04,-2.399 -0.54,0 -0.96,0.12 -1.38,0.419 z m 6.3,-2.28 c -0.06,0.18 -0.06,0.36 -0.06,0.54 0,1.2 0.9,2.4 2.16,2.4 0.48,0 0.84,-0.24 1.5,-0.84 l 0.24,0.18 c -0.54,0.9 -1.32,1.5 -2.4,1.5 -1.38,0 -2.52,-1.32 -2.52,-2.82 0,-1.56 1.08,-3.42 2.82,-3.42 1.2,0 2.101,0.9 2.101,2.04 v 0.42 z m 2.34,-0.359 c 0.18,0 0.36,-0.301 0.36,-0.48 0,-0.66 -0.479,-1.14 -1.14,-1.14 -0.84,0 -1.38,0.9 -1.5,1.68 z m 4.02,2.519 c 0,0.54 0,1.08 1.021,1.08 0.12,0 0.12,0.061 0.12,0.18 0,0.12 0,0.181 -0.12,0.181 -0.48,0 -0.96,-0.061 -1.38,-0.061 -0.54,0 -1.08,0.061 -1.56,0.061 -0.06,0 -0.06,0 -0.06,-0.12 v -0.12 c 0,-0.12 0,-0.12 0.3,-0.12 0.54,-0.06 0.66,-0.3 0.66,-1.021 v -3 c 0,-0.24 -0.12,-0.42 -0.36,-0.48 -0.06,0 -0.42,-0.12 -0.42,-0.3 0,-0.061 0,-0.121 0.18,-0.18 l 1.02,-0.48 c 0.3,-0.12 0.48,-0.24 0.54,-0.24 0.06,0 0.12,0.12 0.12,0.12 l -0.061,1.38 0.061,0.06 c 0.42,-0.54 1.02,-1.56 1.86,-1.56 0.48,0 0.78,0.24 0.78,0.72 0,0.3 -0.3,0.54 -0.54,0.54 -0.36,0 -0.54,-0.24 -0.9,-0.24 -0.36,0 -0.78,0.48 -1.021,0.78 l -0.24,0.301 z m 12.301,0.9 c -0.9,0.42 -1.98,0.72 -3.24,0.72 -2.64,0 -5.581,-1.86 -5.581,-4.98 0,-2.94 2.76,-4.92 5.521,-4.92 0.9,0 2.46,0.3 3.24,0.78 l 0.18,1.56 c 0,0.12 0.06,0.3 0.06,0.36 0,0.06 -0.24,0.06 -0.3,0.06 -0.06,0 -0.18,-0.18 -0.36,-0.66 -0.42,-0.9 -1.561,-1.56 -2.76,-1.56 -2.581,0 -4.081,2.1 -4.081,4.56 0,2.22 1.8,4.26 4.081,4.26 0.78,0 1.8,-0.24 2.34,-0.72 0.42,-0.301 0.6,-0.9 0.78,-1.44 h 0.18 c 0.06,0 0.3,0 0.24,0.181 z m 4.26,-5.52 c 1.62,0 3,1.44 3,3.061 0,1.92 -1.62,3.18 -3.36,3.18 -1.62,0 -2.94,-1.38 -2.94,-3 0,-1.801 1.5,-3.241 3.3,-3.241 z m -0.3,0.48 c -1.38,0 -1.8,1.26 -1.8,2.581 0,1.14 0.66,2.76 2.04,2.76 1.32,0 1.86,-1.2 1.86,-2.34 0,-1.38 -0.48,-3.001 -2.1,-3.001 z m 5.52,4.56 c 0,0.3 0,0.66 0.9,0.66 0.06,0 0.06,0.061 0.06,0.18 0,0.12 -0.06,0.181 -0.06,0.181 -0.54,0 -1.141,-0.061 -1.38,-0.061 -0.48,0 -1.021,0.061 -1.5,0.061 -0.06,0 -0.12,-0.061 -0.12,-0.12 v -0.12 c 0,-0.12 0.06,-0.12 0.24,-0.12 0.6,0 0.84,-0.12 0.84,-0.72 v -7.321 c 0,-0.84 0,-0.9 -0.54,-1.08 -0.24,-0.12 -0.42,-0.18 -0.42,-0.24 0,-0.12 0.18,-0.18 0.72,-0.42 l 0.96,-0.36 c 0.06,0 0.18,-0.06 0.24,-0.06 0.06,0 0.06,0.12 0.06,0.24 z m 3.54,0 c 0,0.3 0,0.66 0.9,0.66 0.06,0 0.06,0.061 0.06,0.18 0,0.12 -0.06,0.181 -0.06,0.181 -0.54,0 -1.14,-0.061 -1.38,-0.061 -0.54,0 -1.02,0.061 -1.5,0.061 -0.061,0 -0.121,-0.061 -0.121,-0.12 v -0.12 c 0,-0.12 0.06,-0.12 0.24,-0.12 0.6,0 0.84,-0.12 0.84,-0.72 v -7.321 c 0,-0.84 0,-0.9 -0.54,-1.08 -0.24,-0.12 -0.419,-0.18 -0.419,-0.24 0,-0.12 0.18,-0.18 0.72,-0.42 l 0.96,-0.36 c 0.06,0 0.18,-0.06 0.24,-0.06 0.06,0 0.06,0.12 0.06,0.24 z m 3.6,0 c 0,0.3 0,0.66 0.96,0.66 v 0.361 c -0.54,0 -1.14,-0.061 -1.44,-0.061 -0.479,0 -0.96,0.061 -1.44,0.061 -0.12,0 -0.12,-0.061 -0.12,-0.12 v -0.12 c 0,-0.12 0.06,-0.12 0.24,-0.12 0.6,0 0.78,-0.12 0.78,-0.72 v -2.761 c 0,-0.9 0,-0.96 -0.54,-1.14 -0.18,-0.06 -0.36,-0.18 -0.36,-0.24 0,-0.12 0.12,-0.18 0.66,-0.36 l 1.02,-0.42 0.18,-0.06 c 0.12,0 0.12,0.18 0.12,0.24 0,0.661 -0.06,1.32 -0.06,1.98 z m -0.539,-9 c 0.42,0 0.78,0.3 0.78,0.72 0,0.42 -0.36,0.78 -0.78,0.78 -0.42,0 -0.72,-0.36 -0.72,-0.78 0,-0.42 0.3,-0.72 0.72,-0.72 z m 3.179,5.52 c 0,-0.3 -0.12,-0.42 -0.24,-0.48 l -0.48,-0.06 c 0,-0.06 -0.06,-0.06 -0.06,-0.18 0,-0.06 0,-0.12 0.06,-0.12 0.72,-0.18 1.62,-0.72 1.68,-0.72 0.06,0 0.06,0.12 0.06,0.18 v 0.959 c 0.66,-0.54 1.38,-1.14 2.22,-1.14 1.141,0 1.681,0.66 1.681,1.8 v 3.3 c 0,0.601 0.419,0.601 0.899,0.601 0,0 0.061,0 0.061,0.061 v 0.239 c 0,0.061 -0.061,0.061 -0.12,0.061 -0.54,0 -0.84,-0.061 -1.32,-0.061 -0.48,0 -0.96,0.061 -1.44,0.061 -0.06,0 -0.06,-0.24 -0.06,-0.3 0,-0.061 0,-0.061 0.12,-0.061 0.18,0 0.84,0 0.84,-0.42 v -3.18 c 0,-0.841 -0.3,-1.321 -1.2,-1.321 -0.6,0 -1.26,0.36 -1.68,0.72 v 3.54 c 0,0.3 0,0.66 0.96,0.66 v 0.18 c 0,0.12 0,0.181 -0.06,0.181 -0.48,0 -1.08,-0.061 -1.38,-0.061 -0.479,0 -0.96,0.061 -1.44,0.061 -0.12,0 -0.12,-0.061 -0.12,-0.12 v -0.12 c 0,-0.12 0,-0.12 0.18,-0.12 0.6,0 0.84,-0.12 0.84,-0.72 v -3.42 z m 10.142,0.12 h -0.361 c -0.119,-0.6 -0.479,-1.2 -1.199,-1.2 -0.6,0 -1.08,0.3 -1.08,0.9 0,0.54 0.721,0.84 1.439,1.26 0.721,0.421 1.381,0.9 1.381,1.681 0,1.2 -1.08,1.92 -2.16,1.92 -0.9,0 -1.74,-0.36 -1.74,-0.6 l -0.06,-1.2 0.361,-0.061 c 0.06225,0.06666 0.103622,0.150096 0.119,0.24 0.18,0.54 0.781,1.2 1.381,1.2 0.66,0 1.08,-0.42 1.08,-1.141 0,-0.42 -0.602,-0.899 -0.961,-1.08 -0.779,-0.419 -1.74,-0.899 -1.74,-1.919 0,-1.081 1.021,-1.68 2.041,-1.68 0.539,0 1.08,0.18 1.561,0.42 z"
       id="path3406"
       inkscape:connector-curvature="0"
       style="fill:#d76e53"
       sodipodi:nodetypes="cccssssssssccscsccsccssssssssssccsccssssssscccsccsssccsccssssccscssccsccsscccsssssssscsscsccsccssssccssccsccscssscsccsssssccsssssscscssccsssscccssccsssssssscsscsccscccssssccscsssccsscsssccsccssssssssssssscssssssscsccsssssscssssssscsccssssccssssssssscccsssssssscccscsscssscsssssssssscscssssssssccccsscssccccsscsscc" />
    <path
       d="m 10.184,95.448 c -0.54,0.541 -1.14,0.781 -1.68,0.6 v 4.021 h 9.541 v -4.26 c -0.78,0.959 -1.8,0.54 -1.68,-0.24 -1.5,1.68 -2.34,0.72 -2.1,0 -1.32,1.621 -2.22,0.72 -1.8,-0.12 -1.681,2.039 -2.761,1.259 -2.281,-0.001 z"
       id="path3408"
       inkscape:connector-curvature="0"
       style="fill:#3382c3" />
    <path
       d="m 13.604,89.988 c 0.12,-0.36 0,-0.78 -0.18,-0.9 v -0.061 c 0.6,0.18 1.14,0.96 1.14,1.86 0,1.2 -1.26,2.16 -1.2,3.18 0.3,-1.38 2.46,-2.22 2.04,-3.78 0.6,0.42 0.9,1.56 0.96,2.4 0.3,-0.9 1.5,-1.44 1.68,-2.1 v 4.38 h -9.54 v -2.22 c 0.06,-1.38 2.34,-1.32 2.16,-2.641 0.72,1.14 -0.36,2.101 -0.12,2.82 0.54,-2.158 2.64,-1.558 3.06,-2.938 z"
       id="path3410"
       inkscape:connector-curvature="0"
       style="fill:#d0482e" />
  </g>
</svg>
