<?xml version="1.0" encoding="UTF-8" standalone="no"?>
<!DOCTYPE svg PUBLIC "-//W3C//DTD SVG 1.1//EN" "http://www.w3.org/Graphics/SVG/1.1/DTD/svg11.dtd">
<svg width="100%" height="100%" viewBox="0 0 300 100" version="1.1" xmlns="http://www.w3.org/2000/svg" xmlns:xlink="http://www.w3.org/1999/xlink" xml:space="preserve" xmlns:serif="http://www.serif.com/" style="fill-rule:evenodd;clip-rule:evenodd;stroke-linejoin:round;stroke-miterlimit:2;">
    <g transform="matrix(0.913324,0,0,1,6.65912,0.43471)">
        <g transform="matrix(41.6,0,0,41.6,98.7629,49.1618)">
            <path d="M0.093,0L0.093,-0.723L0.196,-0.723L0.196,-0.418L0.54,-0.418L0.54,-0.723L0.642,-0.723L0.642,0L0.54,0L0.54,-0.341L0.196,-0.341L0.196,0L0.093,0Z" style="fill-rule:nonzero;"/>
        </g>
        <g transform="matrix(41.6,0,0,41.6,129.333,49.1618)">
            <path d="M0.485,-0.017C0.42,0.002 0.365,0.012 0.319,0.012C0.241,0.012 0.177,-0.014 0.128,-0.066C0.079,-0.118 0.054,-0.185 0.054,-0.268C0.054,-0.348 0.076,-0.414 0.119,-0.465C0.163,-0.517 0.218,-0.542 0.286,-0.542C0.35,-0.542 0.4,-0.52 0.435,-0.474C0.47,-0.429 0.487,-0.364 0.487,-0.28L0.487,-0.25L0.152,-0.25C0.166,-0.124 0.228,-0.061 0.337,-0.061C0.377,-0.061 0.427,-0.072 0.485,-0.093L0.485,-0.017ZM0.157,-0.322L0.391,-0.322C0.391,-0.421 0.354,-0.47 0.28,-0.47C0.206,-0.47 0.165,-0.421 0.157,-0.322Z" style="fill-rule:nonzero;"/>
        </g>
        <g transform="matrix(41.6,0,0,41.6,152.51,49.1618)">
            <path d="M0.37,-0.067C0.312,-0.014 0.257,0.012 0.203,0.012C0.159,0.012 0.123,-0.002 0.094,-0.029C0.065,-0.057 0.05,-0.091 0.05,-0.133C0.05,-0.191 0.075,-0.236 0.123,-0.267C0.172,-0.298 0.242,-0.313 0.333,-0.313L0.355,-0.313L0.355,-0.377C0.355,-0.439 0.324,-0.47 0.261,-0.47C0.21,-0.47 0.155,-0.454 0.096,-0.423L0.096,-0.502C0.161,-0.529 0.222,-0.542 0.278,-0.542C0.338,-0.542 0.381,-0.529 0.409,-0.502C0.438,-0.475 0.452,-0.434 0.452,-0.377L0.452,-0.137C0.452,-0.082 0.469,-0.055 0.502,-0.055C0.507,-0.055 0.513,-0.055 0.521,-0.057L0.528,-0.003C0.506,0.007 0.482,0.012 0.456,0.012C0.411,0.012 0.382,-0.014 0.37,-0.067ZM0.355,-0.12L0.355,-0.257L0.323,-0.258C0.271,-0.258 0.228,-0.248 0.195,-0.228C0.163,-0.208 0.146,-0.181 0.146,-0.149C0.146,-0.126 0.155,-0.106 0.171,-0.09C0.187,-0.074 0.207,-0.066 0.23,-0.066C0.271,-0.066 0.312,-0.084 0.355,-0.12Z" style="fill-rule:nonzero;"/>
        </g>
        <g transform="matrix(41.6,0,0,41.6,175.483,49.1618)">
            <path d="M0.096,0L0.096,-0.53L0.192,-0.53L0.192,-0.431C0.23,-0.505 0.286,-0.542 0.358,-0.542C0.368,-0.542 0.378,-0.541 0.389,-0.54L0.389,-0.45C0.373,-0.455 0.358,-0.458 0.345,-0.458C0.284,-0.458 0.233,-0.422 0.192,-0.35L0.192,0L0.096,0Z" style="fill-rule:nonzero;"/>
        </g>
        <g transform="matrix(41.6,0,0,41.6,192.505,49.1618)">
            <path d="M0.255,0.012C0.207,0.012 0.168,-0.002 0.141,-0.03C0.114,-0.058 0.1,-0.097 0.1,-0.146L0.1,-0.458L0.034,-0.458L0.034,-0.53L0.1,-0.53L0.1,-0.626L0.196,-0.636L0.196,-0.53L0.335,-0.53L0.335,-0.458L0.196,-0.458L0.196,-0.164C0.196,-0.095 0.226,-0.06 0.286,-0.06C0.299,-0.06 0.314,-0.062 0.333,-0.066L0.333,0C0.303,0.008 0.277,0.012 0.255,0.012Z" style="fill-rule:nonzero;"/>
        </g>
        <g transform="matrix(41.6,0,0,41.6,208.065,49.1618)">
            <path d="M0.158,0L0.006,-0.53L0.1,-0.53L0.216,-0.12L0.342,-0.53L0.438,-0.53L0.548,-0.12L0.681,-0.53L0.764,-0.53L0.591,0L0.494,0L0.382,-0.411L0.255,0L0.158,0Z" style="fill-rule:nonzero;"/>
        </g>
        <g transform="matrix(41.6,0,0,41.6,240.118,49.1618)">
            <path d="M0.304,0.012C0.228,0.012 0.167,-0.013 0.122,-0.063C0.077,-0.114 0.054,-0.181 0.054,-0.265C0.054,-0.35 0.077,-0.418 0.122,-0.468C0.168,-0.517 0.229,-0.542 0.307,-0.542C0.385,-0.542 0.447,-0.517 0.492,-0.468C0.537,-0.418 0.56,-0.351 0.56,-0.266C0.56,-0.18 0.537,-0.111 0.492,-0.062C0.446,-0.013 0.383,0.012 0.304,0.012ZM0.305,-0.06C0.407,-0.06 0.458,-0.129 0.458,-0.266C0.458,-0.402 0.408,-0.47 0.307,-0.47C0.207,-0.47 0.157,-0.402 0.157,-0.265C0.157,-0.128 0.206,-0.06 0.305,-0.06Z" style="fill-rule:nonzero;"/>
        </g>
        <g transform="matrix(41.6,0,0,41.6,265.671,49.1618)">
            <path d="M0.304,0.012C0.228,0.012 0.167,-0.013 0.122,-0.063C0.077,-0.114 0.054,-0.181 0.054,-0.265C0.054,-0.35 0.077,-0.418 0.122,-0.468C0.168,-0.517 0.229,-0.542 0.307,-0.542C0.385,-0.542 0.447,-0.517 0.492,-0.468C0.537,-0.418 0.56,-0.351 0.56,-0.266C0.56,-0.18 0.537,-0.111 0.492,-0.062C0.446,-0.013 0.383,0.012 0.304,0.012ZM0.305,-0.06C0.407,-0.06 0.458,-0.129 0.458,-0.266C0.458,-0.402 0.408,-0.47 0.307,-0.47C0.207,-0.47 0.157,-0.402 0.157,-0.265C0.157,-0.128 0.206,-0.06 0.305,-0.06Z" style="fill-rule:nonzero;"/>
        </g>
        <g transform="matrix(41.6,0,0,41.6,291.224,49.1618)">
            <path d="M0.437,0L0.437,-0.1C0.397,-0.025 0.339,0.012 0.26,0.012C0.196,0.012 0.146,-0.011 0.109,-0.058C0.073,-0.104 0.054,-0.168 0.054,-0.249C0.054,-0.337 0.075,-0.408 0.116,-0.461C0.158,-0.515 0.213,-0.542 0.28,-0.542C0.343,-0.542 0.395,-0.518 0.437,-0.47L0.437,-0.771L0.533,-0.771L0.533,0L0.437,0ZM0.437,-0.404C0.387,-0.448 0.34,-0.47 0.295,-0.47C0.203,-0.47 0.157,-0.399 0.157,-0.258C0.157,-0.134 0.198,-0.072 0.28,-0.072C0.333,-0.072 0.385,-0.101 0.437,-0.16L0.437,-0.404Z" style="fill-rule:nonzero;"/>
        </g>
    </g>
    <g transform="matrix(0.99847,0,0,1,0.249466,23.6808)">
        <g transform="matrix(16.6667,0,0,16.6667,98.7629,49.1618)">
            <rect x="0.093" y="-0.723" width="0.103" height="0.723" style="fill:rgb(100,99,99);fill-rule:nonzero;"/>
        </g>
        <g transform="matrix(16.6667,0,0,16.6667,103.564,49.1618)">
            <path d="M0.096,0L0.096,-0.53L0.192,-0.53L0.192,-0.431C0.243,-0.505 0.305,-0.542 0.379,-0.542C0.425,-0.542 0.461,-0.527 0.489,-0.498C0.516,-0.469 0.53,-0.43 0.53,-0.381L0.53,0L0.434,0L0.434,-0.35C0.434,-0.389 0.428,-0.417 0.416,-0.434C0.405,-0.451 0.386,-0.459 0.359,-0.459C0.3,-0.459 0.244,-0.42 0.192,-0.343L0.192,0L0.096,0Z" style="fill:rgb(100,99,99);fill-rule:nonzero;"/>
        </g>
        <g transform="matrix(16.6667,0,0,16.6667,113.908,49.1618)">
            <path d="M0.206,0L0.009,-0.53L0.105,-0.53L0.259,-0.118L0.422,-0.53L0.512,-0.53L0.302,0L0.206,0Z" style="fill:rgb(100,99,99);fill-rule:nonzero;"/>
        </g>
        <g transform="matrix(16.6667,0,0,16.6667,122.534,49.1618)">
            <path d="M0.485,-0.017C0.42,0.002 0.365,0.012 0.319,0.012C0.241,0.012 0.177,-0.014 0.128,-0.066C0.079,-0.118 0.054,-0.185 0.054,-0.268C0.054,-0.348 0.076,-0.414 0.119,-0.465C0.163,-0.517 0.218,-0.542 0.286,-0.542C0.35,-0.542 0.4,-0.52 0.435,-0.474C0.47,-0.429 0.487,-0.364 0.487,-0.28L0.487,-0.25L0.152,-0.25C0.166,-0.124 0.228,-0.061 0.337,-0.061C0.377,-0.061 0.427,-0.072 0.485,-0.093L0.485,-0.017ZM0.157,-0.322L0.391,-0.322C0.391,-0.421 0.354,-0.47 0.28,-0.47C0.206,-0.47 0.165,-0.421 0.157,-0.322Z" style="fill:rgb(100,99,99);fill-rule:nonzero;"/>
        </g>
        <g transform="matrix(16.6667,0,0,16.6667,131.82,49.1618)">
            <path d="M0.237,0.012C0.193,0.012 0.139,0.002 0.077,-0.019L0.077,-0.107C0.139,-0.076 0.194,-0.06 0.241,-0.06C0.268,-0.06 0.291,-0.068 0.31,-0.083C0.328,-0.097 0.337,-0.116 0.337,-0.139C0.337,-0.172 0.311,-0.199 0.26,-0.22L0.204,-0.244C0.121,-0.279 0.08,-0.328 0.08,-0.393C0.08,-0.439 0.096,-0.476 0.129,-0.502C0.161,-0.529 0.206,-0.542 0.263,-0.542C0.293,-0.542 0.329,-0.538 0.373,-0.53L0.393,-0.526L0.393,-0.446C0.339,-0.462 0.297,-0.47 0.265,-0.47C0.203,-0.47 0.172,-0.447 0.172,-0.402C0.172,-0.373 0.196,-0.349 0.243,-0.329L0.289,-0.31C0.341,-0.287 0.379,-0.264 0.4,-0.24C0.422,-0.215 0.433,-0.184 0.433,-0.147C0.433,-0.101 0.415,-0.063 0.378,-0.033C0.341,-0.003 0.294,0.012 0.237,0.012Z" style="fill:rgb(100,99,99);fill-rule:nonzero;"/>
        </g>
        <g transform="matrix(16.6667,0,0,16.6667,140.316,49.1618)">
            <path d="M0.255,0.012C0.207,0.012 0.168,-0.002 0.141,-0.03C0.114,-0.058 0.1,-0.097 0.1,-0.146L0.1,-0.458L0.034,-0.458L0.034,-0.53L0.1,-0.53L0.1,-0.626L0.196,-0.636L0.196,-0.53L0.335,-0.53L0.335,-0.458L0.196,-0.458L0.196,-0.164C0.196,-0.095 0.226,-0.06 0.286,-0.06C0.299,-0.06 0.314,-0.062 0.333,-0.066L0.333,0C0.303,0.008 0.277,0.012 0.255,0.012Z" style="fill:rgb(100,99,99);fill-rule:nonzero;"/>
        </g>
        <g transform="matrix(16.6667,0,0,16.6667,146.549,49.1618)">
            <path d="M0.096,0L0.096,-0.53L0.192,-0.53L0.192,-0.431C0.239,-0.505 0.299,-0.542 0.373,-0.542C0.444,-0.542 0.492,-0.505 0.518,-0.431C0.564,-0.505 0.623,-0.542 0.696,-0.542C0.743,-0.542 0.779,-0.529 0.805,-0.501C0.83,-0.474 0.843,-0.435 0.843,-0.386L0.843,0L0.747,0L0.747,-0.371C0.747,-0.431 0.723,-0.461 0.675,-0.461C0.625,-0.461 0.573,-0.426 0.518,-0.355L0.518,0L0.421,0L0.421,-0.371C0.421,-0.431 0.397,-0.462 0.348,-0.462C0.3,-0.462 0.248,-0.426 0.192,-0.355L0.192,0L0.096,0Z" style="fill:rgb(100,99,99);fill-rule:nonzero;"/>
        </g>
        <g transform="matrix(16.6667,0,0,16.6667,162.109,49.1618)">
            <path d="M0.485,-0.017C0.42,0.002 0.365,0.012 0.319,0.012C0.241,0.012 0.177,-0.014 0.128,-0.066C0.079,-0.118 0.054,-0.185 0.054,-0.268C0.054,-0.348 0.076,-0.414 0.119,-0.465C0.163,-0.517 0.218,-0.542 0.286,-0.542C0.35,-0.542 0.4,-0.52 0.435,-0.474C0.47,-0.429 0.487,-0.364 0.487,-0.28L0.487,-0.25L0.152,-0.25C0.166,-0.124 0.228,-0.061 0.337,-0.061C0.377,-0.061 0.427,-0.072 0.485,-0.093L0.485,-0.017ZM0.157,-0.322L0.391,-0.322C0.391,-0.421 0.354,-0.47 0.28,-0.47C0.206,-0.47 0.165,-0.421 0.157,-0.322Z" style="fill:rgb(100,99,99);fill-rule:nonzero;"/>
        </g>
        <g transform="matrix(16.6667,0,0,16.6667,171.395,49.1618)">
            <path d="M0.096,0L0.096,-0.53L0.192,-0.53L0.192,-0.431C0.243,-0.505 0.305,-0.542 0.379,-0.542C0.425,-0.542 0.461,-0.527 0.489,-0.498C0.516,-0.469 0.53,-0.43 0.53,-0.381L0.53,0L0.434,0L0.434,-0.35C0.434,-0.389 0.428,-0.417 0.416,-0.434C0.405,-0.451 0.386,-0.459 0.359,-0.459C0.3,-0.459 0.244,-0.42 0.192,-0.343L0.192,0L0.096,0Z" style="fill:rgb(100,99,99);fill-rule:nonzero;"/>
        </g>
        <g transform="matrix(16.6667,0,0,16.6667,181.738,49.1618)">
            <path d="M0.255,0.012C0.207,0.012 0.168,-0.002 0.141,-0.03C0.114,-0.058 0.1,-0.097 0.1,-0.146L0.1,-0.458L0.034,-0.458L0.034,-0.53L0.1,-0.53L0.1,-0.626L0.196,-0.636L0.196,-0.53L0.335,-0.53L0.335,-0.458L0.196,-0.458L0.196,-0.164C0.196,-0.095 0.226,-0.06 0.286,-0.06C0.299,-0.06 0.314,-0.062 0.333,-0.066L0.333,0C0.303,0.008 0.277,0.012 0.255,0.012Z" style="fill:rgb(100,99,99);fill-rule:nonzero;"/>
        </g>
        <g transform="matrix(16.6667,0,0,16.6667,189.543,49.1618)">
            <path d="M0.093,0L0.093,-0.723L0.235,-0.723L0.436,-0.164L0.642,-0.723L0.769,-0.723L0.769,0L0.673,0L0.673,-0.588L0.474,-0.048L0.375,-0.048L0.181,-0.589L0.181,0L0.093,0Z" style="fill:rgb(100,99,99);fill-rule:nonzero;"/>
        </g>
        <g transform="matrix(16.6667,0,0,16.6667,203.898,49.1618)">
            <path d="M0.37,-0.067C0.312,-0.014 0.257,0.012 0.203,0.012C0.159,0.012 0.123,-0.002 0.094,-0.029C0.065,-0.057 0.05,-0.091 0.05,-0.133C0.05,-0.191 0.075,-0.236 0.123,-0.267C0.172,-0.298 0.242,-0.313 0.333,-0.313L0.355,-0.313L0.355,-0.377C0.355,-0.439 0.324,-0.47 0.261,-0.47C0.21,-0.47 0.155,-0.454 0.096,-0.423L0.096,-0.502C0.161,-0.529 0.222,-0.542 0.278,-0.542C0.338,-0.542 0.381,-0.529 0.409,-0.502C0.438,-0.475 0.452,-0.434 0.452,-0.377L0.452,-0.137C0.452,-0.082 0.469,-0.055 0.502,-0.055C0.507,-0.055 0.513,-0.055 0.521,-0.057L0.528,-0.003C0.506,0.007 0.482,0.012 0.456,0.012C0.411,0.012 0.382,-0.014 0.37,-0.067ZM0.355,-0.12L0.355,-0.257L0.323,-0.258C0.271,-0.258 0.228,-0.248 0.195,-0.228C0.163,-0.208 0.146,-0.181 0.146,-0.149C0.146,-0.126 0.155,-0.106 0.171,-0.09C0.187,-0.074 0.207,-0.066 0.23,-0.066C0.271,-0.066 0.312,-0.084 0.355,-0.12Z" style="fill:rgb(100,99,99);fill-rule:nonzero;"/>
        </g>
        <g transform="matrix(16.6667,0,0,16.6667,213.102,49.1618)">
            <path d="M0.096,0L0.096,-0.53L0.192,-0.53L0.192,-0.431C0.243,-0.505 0.305,-0.542 0.379,-0.542C0.425,-0.542 0.461,-0.527 0.489,-0.498C0.516,-0.469 0.53,-0.43 0.53,-0.381L0.53,0L0.434,0L0.434,-0.35C0.434,-0.389 0.428,-0.417 0.416,-0.434C0.405,-0.451 0.386,-0.459 0.359,-0.459C0.3,-0.459 0.244,-0.42 0.192,-0.343L0.192,0L0.096,0Z" style="fill:rgb(100,99,99);fill-rule:nonzero;"/>
        </g>
        <g transform="matrix(16.6667,0,0,16.6667,223.446,49.1618)">
            <path d="M0.37,-0.067C0.312,-0.014 0.257,0.012 0.203,0.012C0.159,0.012 0.123,-0.002 0.094,-0.029C0.065,-0.057 0.05,-0.091 0.05,-0.133C0.05,-0.191 0.075,-0.236 0.123,-0.267C0.172,-0.298 0.242,-0.313 0.333,-0.313L0.355,-0.313L0.355,-0.377C0.355,-0.439 0.324,-0.47 0.261,-0.47C0.21,-0.47 0.155,-0.454 0.096,-0.423L0.096,-0.502C0.161,-0.529 0.222,-0.542 0.278,-0.542C0.338,-0.542 0.381,-0.529 0.409,-0.502C0.438,-0.475 0.452,-0.434 0.452,-0.377L0.452,-0.137C0.452,-0.082 0.469,-0.055 0.502,-0.055C0.507,-0.055 0.513,-0.055 0.521,-0.057L0.528,-0.003C0.506,0.007 0.482,0.012 0.456,0.012C0.411,0.012 0.382,-0.014 0.37,-0.067ZM0.355,-0.12L0.355,-0.257L0.323,-0.258C0.271,-0.258 0.228,-0.248 0.195,-0.228C0.163,-0.208 0.146,-0.181 0.146,-0.149C0.146,-0.126 0.155,-0.106 0.171,-0.09C0.187,-0.074 0.207,-0.066 0.23,-0.066C0.271,-0.066 0.312,-0.084 0.355,-0.12Z" style="fill:rgb(100,99,99);fill-rule:nonzero;"/>
        </g>
        <g transform="matrix(16.6667,0,0,16.6667,232.65,49.1618)">
            <path d="M0.098,0.176L0.109,0.093C0.165,0.119 0.22,0.132 0.274,0.132C0.382,0.132 0.437,0.075 0.437,-0.04L0.437,-0.124C0.401,-0.049 0.343,-0.012 0.262,-0.012C0.198,-0.012 0.148,-0.035 0.11,-0.082C0.073,-0.128 0.054,-0.19 0.054,-0.269C0.054,-0.349 0.076,-0.415 0.118,-0.466C0.161,-0.517 0.216,-0.542 0.284,-0.542C0.343,-0.542 0.394,-0.518 0.437,-0.47L0.437,-0.53L0.533,-0.53L0.533,-0.145C0.533,-0.062 0.529,0 0.52,0.04C0.512,0.08 0.495,0.112 0.472,0.138C0.43,0.182 0.364,0.205 0.276,0.205C0.214,0.205 0.155,0.195 0.098,0.176ZM0.437,-0.184L0.437,-0.404C0.394,-0.448 0.348,-0.47 0.298,-0.47C0.254,-0.47 0.219,-0.452 0.194,-0.417C0.169,-0.381 0.157,-0.332 0.157,-0.271C0.157,-0.154 0.198,-0.096 0.279,-0.096C0.335,-0.096 0.387,-0.125 0.437,-0.184Z" style="fill:rgb(100,99,99);fill-rule:nonzero;"/>
        </g>
        <g transform="matrix(16.6667,0,0,16.6667,243.042,49.1618)">
            <path d="M0.485,-0.017C0.42,0.002 0.365,0.012 0.319,0.012C0.241,0.012 0.177,-0.014 0.128,-0.066C0.079,-0.118 0.054,-0.185 0.054,-0.268C0.054,-0.348 0.076,-0.414 0.119,-0.465C0.163,-0.517 0.218,-0.542 0.286,-0.542C0.35,-0.542 0.4,-0.52 0.435,-0.474C0.47,-0.429 0.487,-0.364 0.487,-0.28L0.487,-0.25L0.152,-0.25C0.166,-0.124 0.228,-0.061 0.337,-0.061C0.377,-0.061 0.427,-0.072 0.485,-0.093L0.485,-0.017ZM0.157,-0.322L0.391,-0.322C0.391,-0.421 0.354,-0.47 0.28,-0.47C0.206,-0.47 0.165,-0.421 0.157,-0.322Z" style="fill:rgb(100,99,99);fill-rule:nonzero;"/>
        </g>
        <g transform="matrix(16.6667,0,0,16.6667,252.327,49.1618)">
            <path d="M0.096,0L0.096,-0.53L0.192,-0.53L0.192,-0.431C0.239,-0.505 0.299,-0.542 0.373,-0.542C0.444,-0.542 0.492,-0.505 0.518,-0.431C0.564,-0.505 0.623,-0.542 0.696,-0.542C0.743,-0.542 0.779,-0.529 0.805,-0.501C0.83,-0.474 0.843,-0.435 0.843,-0.386L0.843,0L0.747,0L0.747,-0.371C0.747,-0.431 0.723,-0.461 0.675,-0.461C0.625,-0.461 0.573,-0.426 0.518,-0.355L0.518,0L0.421,0L0.421,-0.371C0.421,-0.431 0.397,-0.462 0.348,-0.462C0.3,-0.462 0.248,-0.426 0.192,-0.355L0.192,0L0.096,0Z" style="fill:rgb(100,99,99);fill-rule:nonzero;"/>
        </g>
        <g transform="matrix(16.6667,0,0,16.6667,267.887,49.1618)">
            <path d="M0.485,-0.017C0.42,0.002 0.365,0.012 0.319,0.012C0.241,0.012 0.177,-0.014 0.128,-0.066C0.079,-0.118 0.054,-0.185 0.054,-0.268C0.054,-0.348 0.076,-0.414 0.119,-0.465C0.163,-0.517 0.218,-0.542 0.286,-0.542C0.35,-0.542 0.4,-0.52 0.435,-0.474C0.47,-0.429 0.487,-0.364 0.487,-0.28L0.487,-0.25L0.152,-0.25C0.166,-0.124 0.228,-0.061 0.337,-0.061C0.377,-0.061 0.427,-0.072 0.485,-0.093L0.485,-0.017ZM0.157,-0.322L0.391,-0.322C0.391,-0.421 0.354,-0.47 0.28,-0.47C0.206,-0.47 0.165,-0.421 0.157,-0.322Z" style="fill:rgb(100,99,99);fill-rule:nonzero;"/>
        </g>
        <g transform="matrix(16.6667,0,0,16.6667,277.173,49.1618)">
            <path d="M0.096,0L0.096,-0.53L0.192,-0.53L0.192,-0.431C0.243,-0.505 0.305,-0.542 0.379,-0.542C0.425,-0.542 0.461,-0.527 0.489,-0.498C0.516,-0.469 0.53,-0.43 0.53,-0.381L0.53,0L0.434,0L0.434,-0.35C0.434,-0.389 0.428,-0.417 0.416,-0.434C0.405,-0.451 0.386,-0.459 0.359,-0.459C0.3,-0.459 0.244,-0.42 0.192,-0.343L0.192,0L0.096,0Z" style="fill:rgb(100,99,99);fill-rule:nonzero;"/>
        </g>
        <g transform="matrix(16.6667,0,0,16.6667,287.516,49.1618)">
            <path d="M0.255,0.012C0.207,0.012 0.168,-0.002 0.141,-0.03C0.114,-0.058 0.1,-0.097 0.1,-0.146L0.1,-0.458L0.034,-0.458L0.034,-0.53L0.1,-0.53L0.1,-0.626L0.196,-0.636L0.196,-0.53L0.335,-0.53L0.335,-0.458L0.196,-0.458L0.196,-0.164C0.196,-0.095 0.226,-0.06 0.286,-0.06C0.299,-0.06 0.314,-0.062 0.333,-0.066L0.333,0C0.303,0.008 0.277,0.012 0.255,0.012Z" style="fill:rgb(100,99,99);fill-rule:nonzero;"/>
        </g>
    </g>
    <path d="M22.929,80.846L6.1,80.846L6.1,12.154L74.717,12.154L74.717,18.277C60.296,12.285 47.074,13.876 39.735,18.853C33.369,22.099 28.103,26.664 23.99,32.612C20.99,36.74 19.36,40.902 18.096,45.071C16.023,50.109 15.941,53.277 16.013,56.315C16.169,61.581 16.888,66.043 18.096,69.806C19.271,72.347 20.273,74.813 21.038,77.173C21.316,78.753 22.034,79.888 22.929,80.846ZM39.538,80.846L25.688,80.846C23.665,78.142 22.156,75.462 21.038,72.798C19.961,70.232 19.941,67.379 19.483,64.84C19.08,62.614 18.18,60.699 18.096,58.487C18.064,51.031 19.823,44.709 22.538,38.993C25.954,30.711 31.304,26.21 37.171,22.712C41.078,20.295 39.74,20.575 48.485,17.321C49.983,16.763 55.136,16.639 57.994,16.628C64.646,16.666 70.353,17.982 74.717,21.115L74.717,27.205C73.068,26.21 70.309,24.657 68.575,23.931C66.702,23.146 64.716,22.454 62.687,22.369C59.526,22.237 53.263,22.226 49.606,23.136C46.362,23.944 42.768,26.478 40.744,27.83C39.431,28.708 38.329,30.214 37.463,31.248C36.738,32.112 36.228,33.224 35.544,34.034C34.895,34.801 33.952,35.298 33.356,36.106C31.795,38.225 27.107,42.569 26.176,46.745C25.142,51.376 25.957,59.202 27.154,63.895C28.195,67.976 31.091,71.921 33.356,74.904C34.958,77.014 37.734,79.399 39.538,80.846ZM74.717,80.846L41.292,80.846C40.306,80.062 38.509,78.87 37.463,77.808C36.041,76.365 34.582,74.525 33.356,72.725C32.011,70.748 30.224,68.43 29.39,65.95C28.246,62.55 25.833,56.918 26.494,52.329C27.155,47.74 31.421,41.694 33.356,38.413C34.622,36.268 36.685,34.276 38.107,32.645C39.315,31.259 40.364,29.66 41.886,28.628C43.802,27.329 46.844,25.611 49.606,24.849C52.444,24.066 55.796,23.931 58.913,23.931C62.074,23.931 65.774,24.066 68.575,24.849C70.628,25.422 73.159,27.143 74.717,28.082L74.717,33.809C73.567,32.576 71.762,30.91 70.122,30.058C67.642,28.77 63.493,27.421 60.654,27.018C58.15,26.663 55.549,27.045 53.092,27.644C50.48,28.28 47.167,29.653 44.985,30.836C43.129,31.843 41.556,33.318 40,34.746C38.336,36.273 36.167,38.458 35,40C34.101,41.189 33.471,42.586 33,44C32.333,46 31,49.251 31,52C31,54.833 32,58.333 33,61C33.944,63.516 35.833,66.184 37,68C37.886,69.378 38.844,70.733 40,71.893C41.331,73.228 43.255,74.891 44.985,76.012C46.661,77.099 48.42,78.233 50.38,78.621C52.991,79.138 57.818,79.226 60.654,79.117C62.933,79.029 65.553,78.481 67.399,77.963C68.924,77.536 70.464,76.963 71.729,76.012C72.599,75.358 73.775,74.162 74.717,73.111L74.717,80.846ZM74.717,65.923L74.717,71.48C73.919,72.499 72.837,74.016 71.729,74.772C70.071,75.903 67.754,76.866 65.587,77.352C63.213,77.883 60.118,77.963 57.485,77.963C54.912,77.963 52.229,78.168 49.789,77.352C47.27,76.509 44.308,74.464 42.372,72.905C40.697,71.556 39.367,69.793 38.177,68C36.73,65.82 34.555,62.396 33.692,59.827C32.92,57.529 32.8,55.003 33,52.587C33.218,49.949 33.746,46.658 35,44C36.402,41.026 38.949,37.069 41.414,34.746C43.741,32.551 46.745,31.043 49.789,30.058C52.995,29.021 57.265,28.261 60.654,28.523C63.966,28.779 67.642,30.246 70.122,31.63C71.809,32.571 73.581,34.848 74.717,36.076L74.717,40.005L70.713,36.076L65.464,32.416L59.324,31.149L52.16,31.67L46.829,34.232L40.786,39.489L37.312,44.923L35.645,49.469L35.207,53.093L36.262,59.274L37.82,62.852L41.3,68.02L46.51,72.625L53.528,75.196L62.507,75.196L68.204,72.977L71.593,70.31L74.717,65.923ZM61.353,73.96L53.688,73.96L49.033,72.625L43.22,68.45L39.685,63.929L37.82,59.981L36.435,54.062L36.731,49.002L39.48,43.262L42.947,38.864L48.54,34.433L54.51,32.416L64.246,33.094L69.543,36.39L74.717,41.874L74.717,63.226L74.201,64.693L69.543,70.857L61.353,73.96ZM56.195,40.007C54.946,40.31 52.582,40.926 51.11,41.821C49.639,42.716 48.383,44.005 47.363,45.378C46.342,46.75 45.464,48.592 44.988,50.056C44.563,51.366 44.284,52.803 44.51,54.162C44.783,55.81 45.738,58.336 46.627,59.941C47.438,61.403 48.439,62.885 49.846,63.789C51.441,64.812 53.959,65.83 56.195,66.081C58.444,66.334 61.395,66.141 63.339,65.306C65.237,64.493 66.805,62.849 67.863,61.076C68.971,59.219 69.729,56.186 69.991,54.162C70.216,52.424 69.788,50.399 69.433,48.935C69.128,47.675 68.558,46.417 67.863,45.378C67.171,44.344 66.269,43.432 65.263,42.7C64.142,41.884 62.245,40.93 61.135,40.481C60.339,40.16 59.428,40.086 58.604,40.007C57.805,39.931 56.975,39.818 56.195,40.007ZM56.195,41.325C55.611,41.373 55.05,41.596 54.51,41.821C53.822,42.108 52.839,42.567 52.066,43.047C51.293,43.526 50.479,44.165 49.872,44.699C49.341,45.167 48.843,45.682 48.426,46.253C47.951,46.905 47.441,47.796 47.022,48.608C46.6,49.427 46.081,50.266 45.892,51.168C45.704,52.07 45.892,53.137 45.892,54.018C45.892,54.831 45.61,55.694 45.892,56.456C46.231,57.371 47.149,58.564 47.926,59.507C48.871,60.654 50.311,62.458 51.559,63.335C52.682,64.124 54.063,64.554 55.418,64.773C56.9,65.012 58.994,65.012 60.452,64.773C61.762,64.557 63.123,64.073 64.166,63.335C65.209,62.597 66.058,61.48 66.711,60.346C67.418,59.116 68.16,57.503 68.41,55.954C68.693,54.199 68.775,51.607 68.41,49.817C68.071,48.154 67.06,46.347 66.22,45.218C65.508,44.261 64.336,43.695 63.374,43.047C62.437,42.414 61.552,41.588 60.452,41.325C59.256,41.038 57.185,41.242 56.195,41.325ZM56.195,47.535C55.413,47.892 54.458,48 53.851,48.608C53.172,49.288 52.411,50.684 52.123,51.617C51.869,52.44 52.123,53.343 52.123,54.203C52.123,55.062 51.785,55.99 52.123,56.78C52.507,57.677 53.749,59.12 54.428,59.588C54.913,59.922 55.606,59.588 56.195,59.588C57.07,59.588 58.72,59.828 59.68,59.588C60.551,59.371 61.338,58.794 61.958,58.151C62.577,57.508 63.105,56.621 63.396,55.728C63.711,54.76 64.091,53.257 63.851,52.34C63.612,51.425 62.552,50.951 61.958,50.227C61.367,49.509 61.006,48.447 60.282,47.998C59.559,47.549 58.297,47.612 57.616,47.535C57.145,47.481 56.668,47.535 56.195,47.535Z" style="fill:rgb(16,70,51);"/>
</svg>
