<?xml version="1.0" encoding="UTF-8" standalone="no"?>
<!DOCTYPE svg PUBLIC "-//W3C//DTD SVG 1.1//EN" "http://www.w3.org/Graphics/SVG/1.1/DTD/svg11.dtd">
<svg width="100%" height="100%" viewBox="0 0 300 100" version="1.1" xmlns="http://www.w3.org/2000/svg" xmlns:xlink="http://www.w3.org/1999/xlink" xml:space="preserve" xmlns:serif="http://www.serif.com/" style="fill-rule:evenodd;clip-rule:evenodd;stroke-linejoin:round;stroke-miterlimit:2;">
    <g transform="matrix(1,0,0,1,0,9.38586)">
        <g>
            <path d="M1.993,26.04L31.996,26.04L31.996,28.154C30.548,28.198 21.888,29.148 15.826,38.322C8.522,49.376 3.658,48.82 1.993,48.82L1.993,26.04Z" style="fill:rgb(208,0,0);"/>
            <g transform="matrix(-1,0,0,-1,33.9887,81.192)">
                <path d="M1.993,26.04L31.996,26.04L31.996,28.154C30.548,28.198 21.888,29.148 15.826,38.322C8.522,49.376 3.658,48.82 1.993,48.82L1.993,26.04Z" style="fill:rgb(0,95,181);"/>
            </g>
        </g>
        <path d="M187.7,33.035L186.329,33.035C186.662,29.805 185.114,28.052 182.057,27.617C171.973,26.184 169.57,38.404 181.609,38.724C186.539,38.855 189.946,41.113 190.067,44.349C190.24,49.001 187.699,52.879 184.769,54.144C179.155,56.568 174.535,56.041 170.376,54.144C170.661,52.034 170.764,49.908 170.692,47.768L172.104,47.768C172.001,50.315 171.912,51.566 173.315,52.367C176.672,54.284 180.091,54.289 183.515,52.717C186.53,51.332 188.495,44.902 183.515,42.797C180.166,41.382 180.784,42.83 173.668,40.975C167.585,38.401 170.216,29.538 173.668,27.517C177.215,25.441 181.285,24.174 188.338,27.517L187.7,33.035ZM211.961,37.852L210.996,37.852C211.196,36.024 210.822,34.79 209.881,34.258C206.212,32.187 202.559,32.231 198.92,34.258C193.393,37.337 193.548,47.465 198.92,51.782C202.263,54.469 207.692,54.783 212.572,51.782L212.871,52.155L212.202,53.575C207.191,56.132 202.292,56.279 197.507,53.968C189.761,50.228 188.503,38.031 197.507,32.852C200.97,30.86 206.002,30.822 212.703,32.852L211.961,37.852ZM272.555,31.857C274.463,32.042 276.371,32.084 278.279,31.857L293.908,51.491L293.908,34.513C293.895,33.121 292.422,32.805 290.811,32.833L290.811,31.843L298.678,31.857L298.678,32.833C296.67,32.785 295.477,33.204 295.46,34.513C295.373,41.5 295.272,48.486 295.735,55.495L293.028,55.152L276.93,35.684L276.93,52.242C276.965,53.726 278.077,54.294 280.136,54.057L280.136,55.152C277.332,54.828 274.703,54.827 272.25,55.152L272.25,54.057C274.321,54.28 275.356,53.747 275.363,52.242L275.363,34.704C275.386,33.467 274.807,32.896 273.584,32.833L272.555,32.833L272.555,31.857ZM94.171,31.857C96.08,32.042 97.988,32.084 99.896,31.857L115.524,51.491L115.524,34.513C115.512,33.121 114.039,32.805 112.428,32.833L112.428,31.843L120.295,31.857L120.295,32.833C118.287,32.785 117.093,33.204 117.077,34.513C116.989,41.5 116.889,48.486 117.352,55.495L114.644,55.152L98.546,35.684L98.546,52.242C98.581,53.726 99.693,54.294 101.752,54.057L101.752,55.152C98.949,54.828 96.319,54.827 93.866,55.152L93.866,54.057C95.938,54.28 96.972,53.747 96.98,52.242L96.98,34.704C97.002,33.467 96.424,32.896 95.201,32.833L94.171,32.833L94.171,31.857ZM264.867,54.984C263.834,54.994 262.801,55.053 261.767,55.172L261.767,54.099C263.573,54.125 264.829,53.79 264.867,52.653L264.867,34.444C264.829,33.307 263.573,32.972 261.767,32.999L261.767,31.925C262.801,32.044 263.834,32.104 264.867,32.113C264.867,32.113 267.015,32.183 268.063,32.113C268.063,32.113 270.145,31.988 271.163,31.925L271.163,32.999C269.358,32.972 268.101,33.307 268.063,34.444L268.063,52.653C268.101,53.79 269.358,54.125 271.163,54.099L271.163,55.172C270.112,55.107 269.083,55.053 268.063,54.984L264.867,54.984ZM68.98,54.815C67.657,54.73 65.012,54.817 65.012,54.817C63.719,54.828 62.426,54.903 61.133,55.052L61.133,53.707C63.392,53.74 64.964,53.321 65.012,51.897L65.012,40.496L48.406,40.496L48.406,51.315C48.414,53.547 50.036,54.065 52.285,53.916L52.285,55.172L48.406,54.917L48.375,54.915C47.052,54.83 44.407,54.917 44.407,54.917C43.114,54.929 41.821,55.003 40.528,55.152L40.528,53.807C42.787,53.84 44.36,53.421 44.407,51.997L44.407,29.195C44.36,27.771 42.787,27.352 40.528,27.385L40.528,26.04C41.821,26.189 43.114,26.263 44.407,26.275C44.407,26.275 47.094,26.363 48.406,26.275L48.406,29.175C48.406,29.182 48.406,29.188 48.406,29.195L48.406,38.724L65.012,38.724L65.012,29.094C64.964,27.67 63.392,27.251 61.133,27.284L61.133,25.94C62.426,26.089 63.719,26.163 65.012,26.175C65.012,26.175 67.699,26.263 69.011,26.175L69.011,51.653C69.089,53.512 70.816,53.917 73.033,53.89L72.89,55.152C71.666,54.997 70.418,54.857 69.011,54.817L68.98,54.815ZM131.515,42.487C134.652,42.383 136.577,39.683 136.507,37.969C136.341,33.89 134.171,33.229 131.515,33.169C129.493,33.123 127.953,32.795 127.953,34.818L127.805,51.982C127.799,53.486 128.893,54.214 131.059,54.102L131.059,55.152C127.881,54.794 124.702,54.794 121.523,55.152L121.523,54.102C123.61,54.241 124.717,53.711 124.74,51.982L124.74,34.818C124.76,33.1 123.308,32.842 121.523,32.833L121.523,31.857C126.082,32.1 130.568,31.862 135.018,31.857C139.281,31.852 139.812,35.7 139.801,37.969C139.783,41.706 133.425,43.344 133.425,43.344L140.566,52.633C141.088,53.525 141.838,53.986 142.772,54.102L142.772,55.152C141.2,54.783 139.728,54.852 138.308,55.152L128.979,43.058L129.162,42.487L131.515,42.487ZM77.604,54.96L77.558,54.96C76.609,54.965 75.659,55.058 74.709,55.152L74.709,54.151C76.533,54.176 77.488,52.987 77.604,51.444L77.604,34.844C77.488,33.302 76.201,32.833 74.376,32.858L74.376,31.857L77.604,32.022L80.772,32.022C84.559,31.859 88.341,31.718 92.008,32.022C91.658,33.725 91.514,35.435 91.502,37.15L90.466,37.15C90.282,35.526 90.436,34.571 89.874,34.006C89.077,33.206 88.495,33.471 86.618,33.351L81.594,33.351C81.098,33.36 80.81,33.655 80.772,34.296L80.772,42.594C83.396,42.622 85.663,42.599 86.808,42.418C88.11,42.213 88.603,41.284 88.455,39.72L89.531,39.72L89.531,47.387L88.455,47.387C88.628,45.509 88.217,44.162 86.808,44.081C84.781,43.964 82.775,44.085 80.772,44.222L80.772,52.488C80.837,53.188 81.335,53.579 82.453,53.53L87.698,53.53C89.051,53.438 90.292,53.602 90.724,52.957C91.312,52.079 91.106,51.051 91.432,49.481L92.544,49.481C92.354,50.211 92.226,50.979 92.187,51.802L92.187,54.96C88.442,55.177 84.62,55.118 80.772,54.96L77.604,54.96ZM245.043,54.96L244.998,54.96C244.048,54.965 243.098,55.058 242.148,55.152L242.148,54.151C243.972,54.176 244.927,52.987 245.043,51.444L245.043,34.844C244.927,33.302 243.64,32.833 241.816,32.858L241.816,31.857L245.043,32.022L248.211,32.022C251.998,31.859 255.78,31.718 259.447,32.022C259.097,33.725 258.953,35.435 258.941,37.15L257.905,37.15C257.722,35.526 257.875,34.571 257.313,34.006C256.516,33.206 255.934,33.471 254.057,33.351L249.033,33.351C248.537,33.36 248.249,33.655 248.211,34.296L248.211,42.594C250.835,42.622 253.102,42.599 254.247,42.418C255.549,42.213 256.042,41.284 255.894,39.72L256.97,39.72L256.97,47.387L255.894,47.387C256.067,45.509 255.656,44.162 254.247,44.081C252.22,43.964 250.215,44.085 248.211,44.222L248.211,52.488C248.276,53.188 248.774,53.579 249.892,53.53L255.137,53.53C256.49,53.438 257.731,53.602 258.163,52.957C258.751,52.079 258.545,51.051 258.871,49.481L259.983,49.481C259.794,50.211 259.665,50.979 259.626,51.802L259.626,54.96C255.881,55.177 252.059,55.118 248.211,54.96L245.043,54.96ZM162.465,31.857L162.465,32.42C158.864,36.734 155.07,41.701 153.815,45.519L153.815,52.604C153.844,53.609 155.312,54.154 156.904,54.105L156.904,55.152C153.924,54.895 150.829,54.868 147.58,55.152L147.58,54.105C149.364,54.126 150.581,53.764 150.616,52.604L150.616,45.519L147.58,40.06C145.143,35.617 142.83,32.97 141.008,33.309L141.008,32.42C142.327,32.008 143.683,31.727 145.088,31.621C145.947,31.226 148.827,35.958 152.815,43.504C155.267,39.76 157.605,35.898 159.771,31.857L162.465,31.857ZM220.885,43.448L220.885,52.633C220.923,53.77 222.18,54.105 223.985,54.078L223.985,55.152C222.934,55.087 221.905,55.033 220.885,54.964L220.835,54.961C219.77,54.896 217.689,54.964 217.689,54.964C216.656,54.974 215.623,55.033 214.589,55.152L214.589,54.078C216.395,54.105 217.651,53.77 217.689,52.633L217.689,34.424C217.651,33.287 216.395,32.952 214.589,32.979L214.589,31.905C215.623,32.024 216.656,32.083 217.689,32.093C217.689,32.093 219.837,32.163 220.885,32.093L221.077,32.08C222.034,32.017 223,31.966 223.985,31.905L223.985,32.979C222.18,32.952 220.923,33.287 220.885,34.424L220.885,42.034L234.156,42.034L234.156,34.344C234.118,33.207 232.861,32.872 231.056,32.898L231.056,31.825C232.089,31.944 233.123,32.003 234.156,32.013C234.156,32.013 236.303,32.083 237.352,32.013L237.544,32C238.501,31.937 239.467,31.886 240.452,31.825L240.452,32.898C238.647,32.872 237.39,33.207 237.352,34.344L237.352,52.553C237.39,53.69 238.647,54.025 240.452,53.998L240.452,55.072C239.401,55.007 238.372,54.953 237.352,54.884L237.302,54.881C236.237,54.816 234.156,54.884 234.156,54.884C233.123,54.894 232.089,54.953 231.056,55.072L231.056,53.998C232.861,54.025 234.118,53.69 234.156,52.553L234.156,43.448L220.885,43.448ZM48.406,29.175L48.406,26.275C48.406,26.275 51.826,26.068 52.285,26.04L52.285,27.385C51.019,27.186 48.417,27.628 48.406,29.175L48.406,29.195L48.406,29.175ZM69.011,26.175C70.287,26.089 71.574,26.021 72.89,25.94L72.89,27.284C70.631,27.251 69.058,27.67 69.011,29.094L69.011,26.175Z"/>
    </g>
</svg>
