<?xml version="1.0" encoding="UTF-8" standalone="no"?>
<!DOCTYPE svg PUBLIC "-//W3C//DTD SVG 1.1//EN" "http://www.w3.org/Graphics/SVG/1.1/DTD/svg11.dtd">
<svg width="100%" height="100%" viewBox="0 0 300 100" version="1.1" xmlns="http://www.w3.org/2000/svg" xmlns:xlink="http://www.w3.org/1999/xlink" xml:space="preserve" xmlns:serif="http://www.serif.com/" style="fill-rule:evenodd;clip-rule:evenodd;stroke-linejoin:round;stroke-miterlimit:2;">
    <path d="M173,29L267,29L267,48L231,48L231,70L209,70L209,48L173,48L173,29ZM122,29L144,29L144,51L191,51L191,70L122,70L122,29ZM94,29L116,29L116,70L94,70L94,29ZM272,29L295,29L295,70L272,70L272,29ZM89,29L89,70L67,70L67,60L27,60L27,70L5,70L5,29L27,29L27,40L67,40L67,29L89,29Z" style="fill:rgb(212,0,18);"/>
</svg>
