<?xml version="1.0" encoding="UTF-8" standalone="no"?>
<!DOCTYPE svg PUBLIC "-//W3C//DTD SVG 1.1//EN" "http://www.w3.org/Graphics/SVG/1.1/DTD/svg11.dtd">
<svg width="100%" height="100%" viewBox="0 0 300 100" version="1.1" xmlns="http://www.w3.org/2000/svg" xmlns:xlink="http://www.w3.org/1999/xlink" xml:space="preserve" xmlns:serif="http://www.serif.com/" style="fill-rule:evenodd;clip-rule:evenodd;stroke-linejoin:round;stroke-miterlimit:2;">
    <g transform="matrix(1.33333,0,0,1.33333,3.00004,23)">
        <path d="M138.7,18.9L138.7,19C138.7,19.055 138.745,19.1 138.8,19.1L142.2,20.5C142.3,20.5 142.4,20.5 142.4,20.4C142.5,20.3 150,7.4 164.7,13.1C164.8,13.1 164.9,13.1 164.9,13L165,12.8C165,12.7 165,12.6 164.9,12.6C164.7,12.7 148.6,4.2 138.7,18.9Z" style="fill:rgb(86,155,190);fill-rule:nonzero;"/>
    </g>
    <g transform="matrix(1.33333,0,0,1.33333,3.00004,23)">
        <path d="M83.2,29.5L83.2,11.8C83.2,8.7 82.8,8.2 80.2,8.2L80.2,7.2L90,7.2L90,8.1C87.4,8.1 87,8.6 87,11.7L87,28C87,32.6 84.2,34.8 80.6,34.8C77.9,34.8 75.6,33.2 75.6,31C75.6,30.987 75.599,30.974 75.599,30.96C75.599,30.269 76.169,29.699 76.86,29.699C76.874,29.699 76.887,29.7 76.9,29.7C77.608,29.713 78.187,30.292 78.2,31C78.198,31.034 78.198,31.068 78.198,31.102C78.198,32.364 79.236,33.402 80.498,33.402C80.532,33.402 80.566,33.402 80.6,33.4C82.3,33.4 83.2,32.2 83.2,29.5ZM109.2,8.1L109.2,7.2L119,7.2L119,8.1C116.4,8.1 116,8.6 116,11.7L116,20.8C116,23.9 116.4,24.4 119,24.4L122.6,24.4C125.5,24.4 125.8,23.7 126.2,22L126.4,21.4L127.3,21.4L127.1,25.8L109.3,25.8L109.3,25C111.9,25 112.3,24.5 112.3,21.4L112.3,11.8C112.2,8.7 111.8,8.1 109.2,8.1ZM128.5,25C131.1,25 131.5,24.5 131.5,21.4L131.5,11.8C131.5,8.7 131.1,8.2 128.5,8.2L128.5,7.2L138.8,7.2C146,7.2 149.2,11.4 149.2,16.5C149.2,21.6 146.1,25.8 138.8,25.8L128.5,25.8L128.5,25ZM135.3,21C135.3,24 135.7,24.5 138.3,24.5L138.6,24.5C143.6,24.5 144.7,20.1 144.7,16.6C144.7,13.1 143.7,8.7 138.6,8.7L135.3,8.7L135.3,21ZM216.2,11.8C216.2,8.7 215.8,8.2 213.2,8.2L213.2,7.2L220.6,7.2L220.6,8.1C218,8.1 217.6,8.6 217.6,11.7L217.6,26.4L216.8,26.4L203.9,11L203.9,21.3C203.9,24.4 204.3,24.9 206.9,24.9L206.9,25.8L199.5,25.8L199.5,25C202.1,25 202.5,24.5 202.5,21.4L202.5,11.8C202.5,8.7 202.1,8.2 199.5,8.2L199.5,7.2L205.7,7.2L216.1,19.6L216.1,11.8L216.2,11.8ZM174.2,7.2L174.2,8.1C176.4,8.1 176.9,8.8 176.4,10.5L173.6,19.3L169.7,7.3L169,7.3L165.2,19.3L162.4,10.5C161.8,8.7 162.2,8.1 164.8,8.1L164.8,7.2L155,7.2L155,8.1C157.6,8.1 158.1,8.7 158.7,10.8L163.7,26.4L164.4,26.4L168.2,14.3L172.1,26.4L172.8,26.4L177.8,10.8C178.4,9 178.8,8.3 180.6,8.1L180.6,7.2L174.2,7.2ZM197.5,21.5L197.3,22.1C196.9,23.8 196.6,24.5 193.7,24.5L190.9,24.5C188.3,24.5 187.9,24 187.9,20.9L187.9,16.8L189.6,16.8C192.7,16.8 193.2,17.2 193.2,19.8L194.1,19.8L194.1,12.4L193.2,12.4C193.2,15 192.7,15.4 189.6,15.4L187.9,15.4L187.9,8.6L192.7,8.6C195.6,8.6 195.9,9.3 196.3,11L196.5,11.6L197.4,11.6L197.2,7.2L182,7.2L182,8.1C183.8,8.2 184.1,9 184.1,11.7L184.1,21.3C184.1,24.4 183.7,24.9 181.1,24.9L181.1,25.8L198.2,25.8L198.4,21.4L197.5,21.4L197.5,21.5ZM107.1,21.5L106.9,22.1C106.5,23.8 106.2,24.5 103.3,24.5L100.5,24.5C97.9,24.5 97.5,24 97.5,20.9L97.5,16.8L99.2,16.8C102.3,16.8 102.8,17.2 102.8,19.8L103.7,19.8L103.7,12.4L102.8,12.4C102.8,15 102.3,15.4 99.2,15.4L97.5,15.4L97.5,8.6L102.3,8.6C105.2,8.6 105.5,9.3 105.9,11L106.1,11.6L107,11.6L106.8,7.2L91.5,7.2L91.5,8.1C93.3,8.2 93.6,9 93.6,11.7L93.6,21.3C93.6,24.4 93.2,24.9 90.6,24.9L90.6,25.8L107.7,25.8L107.9,21.4L107.1,21.4L107.1,21.5ZM33.4,28.8L27,8.8C26.2,6.3 25.6,5.3 23,5.3C20.7,5.3 20.3,6.5 20.3,9.9L20.3,28.1C20.3,34 16.7,36.8 12.2,36.8C8.8,36.8 5.8,34.8 5.8,31.9C5.781,30.998 6.498,30.236 7.4,30.2C7.401,30.2 7.402,30.2 7.403,30.2C8.281,30.2 9.003,30.922 9.003,31.8C9.003,31.833 9.002,31.867 9,31.9C8.998,31.942 8.997,31.983 8.997,32.025C8.997,33.658 10.342,35.003 11.975,35.003C12.017,35.003 12.058,35.002 12.1,35C14.2,35 15.4,33.5 15.4,30L15.4,9.8C15.4,5.8 14.9,5.1 11.6,5.1L11.6,4L34.9,4L34.9,5.2C31.5,5.2 31,5.9 31.7,8.3L35.4,19.7L40.4,4L41.3,4L46.4,19.7L50.1,8.3C50.8,6.1 50.2,5.2 47.3,5.2L47.3,4L55.5,4L55.5,5.2C53.2,5.4 52.6,6.3 51.9,8.7L46.3,26C51.285,25.67 56.291,25.972 61.2,26.9L61.2,3.4C61.2,3.391 61.2,3.381 61.2,3.372C61.2,1.522 59.678,0 57.828,0C57.819,0 57.809,0 57.8,0L3.4,0C3.391,0 3.381,0 3.372,0C1.522,0 0,1.522 0,3.372C0,3.381 0,3.391 0,3.4L0,37.4C0,37.409 0,37.419 0,37.428C0,39.278 1.522,40.8 3.372,40.8C3.381,40.8 3.391,40.8 3.4,40.8L16.2,40.8C20.926,35.522 26.815,31.413 33.4,28.8Z" style="fill:rgb(0,66,108);fill-rule:nonzero;"/>
    </g>
    <g transform="matrix(1.33333,0,0,1.33333,3.00004,23)">
        <path d="M34.6,28.4C37.51,27.339 40.528,26.601 43.6,26.2L39.4,13.3L34.6,28.4ZM29.5,40.9L57.9,40.9C57.909,40.9 57.919,40.9 57.928,40.9C59.778,40.9 61.3,39.378 61.3,37.528C61.3,37.519 61.3,37.509 61.3,37.5L61.3,29.8C46.9,28.6 36.3,34.8 29.5,40.9Z" style="fill:rgb(0,66,108);fill-rule:nonzero;"/>
    </g>
</svg>
