<?xml version="1.0" encoding="UTF-8" standalone="no"?>
<!DOCTYPE svg PUBLIC "-//W3C//DTD SVG 1.1//EN" "http://www.w3.org/Graphics/SVG/1.1/DTD/svg11.dtd">
<svg width="100%" height="100%" viewBox="0 0 300 100" version="1.1" xmlns="http://www.w3.org/2000/svg" xmlns:xlink="http://www.w3.org/1999/xlink" xml:space="preserve" xmlns:serif="http://www.serif.com/" style="fill-rule:evenodd;clip-rule:evenodd;stroke-linejoin:round;stroke-miterlimit:2;">
    <g transform="matrix(1,0,0,1,-40,0)">
        <g transform="matrix(1,0,0,1,-0.0459954,-0.00836695)">
            <path d="M128.096,80.823L126.034,80.823L126.034,77.357L128.096,77.357L128.096,72.673L132.311,72.673L132.311,77.357L136.9,77.357L136.9,81.178L132.311,81.178L132.311,90.832C132.477,92.359 134.391,92.169 136.9,91.394L138.209,94.623C133.183,96.208 128.979,96.471 128.096,91.394L128.096,80.823Z" style="fill:rgb(39,69,147);"/>
        </g>
        <g transform="matrix(1,0,0,1,-0.0459954,-0.00836695)">
            <path d="M85.696,75.727L87.277,72.211C79.764,69.291 74.292,70.698 70.529,75.727C67.165,82.85 68.538,87.944 72.143,92.084C77.037,96.245 82.101,96.37 87.277,93.831L86.201,90.569C82.19,92.346 78.53,91.998 75.333,88.861C72.715,85.618 72.417,79.691 75.333,76.397C78.222,74.367 81.171,73.955 85.696,75.727Z" style="fill:rgb(39,69,147);"/>
        </g>
        <g transform="matrix(1,0,0,1,-0.0459954,-0.00836695)">
            <path d="M189.732,78.104L188.515,81.47C180.792,78.687 180.743,83.471 187.357,85.097C193.358,88.157 190.412,95.085 184.581,95.478C182.188,95.475 179.854,95.207 177.684,94.201L179.022,90.996C180.863,91.799 182.715,92.176 184.581,91.932C186.897,90.346 185.809,88.91 183.237,87.539C176.875,86.098 175.429,78.176 184.581,77.17C186.427,77.115 188.128,77.47 189.732,78.104Z" style="fill:rgb(39,69,147);"/>
        </g>
        <g transform="matrix(1,0,0,1,-0.0459954,-0.00836695)">
            <path d="M112.508,95.266L108.288,95.266L108.288,81.091C108.316,80.431 108.215,79.778 107.906,79.136C110.005,78.284 112.168,77.708 114.384,77.357C120.347,76.639 123.167,78.611 123.731,82.513L123.731,95.266L119.463,95.266L119.463,83.846C119.121,80.771 116.432,80.482 112.508,81.658L112.508,95.266Z" style="fill:rgb(39,69,147);"/>
        </g>
        <g transform="matrix(1,0,0,1,-0.0459954,-0.00836695)">
            <rect x="171.199" y="69.193" width="4.118" height="25.633" style="fill:rgb(39,69,147);"/>
        </g>
        <g transform="matrix(1,0,0,1,-0.0459954,-0.00836695)">
            <path d="M144.239,94.826L140.228,94.826L140.228,80.823C139.948,80.274 139.947,79.667 139.807,79.116C143.714,77.515 147.537,76.532 151.082,77.631L150,81.19C148.069,80.651 146.151,80.75 144.239,81.19L144.239,94.826Z" style="fill:rgb(39,69,147);"/>
        </g>
        <path d="M96.766,77.204C101.7,77.204 105.706,81.305 105.706,86.358C105.706,91.41 101.7,95.511 96.766,95.511C91.832,95.511 87.826,91.41 87.826,86.358C87.826,81.305 91.832,77.204 96.766,77.204ZM96.774,80.624C99.11,80.624 101.007,83.151 101.007,86.264C101.007,89.377 99.11,91.904 96.774,91.904C94.437,91.904 92.541,89.377 92.541,86.264C92.541,83.151 94.437,80.624 96.774,80.624Z" style="fill:rgb(39,69,147);"/>
        <path d="M159.732,77.077C164.666,77.077 168.672,81.179 168.672,86.231C168.672,91.283 164.666,95.385 159.732,95.385C154.798,95.385 150.792,91.283 150.792,86.231C150.792,81.179 154.798,77.077 159.732,77.077ZM159.74,80.497C162.076,80.497 163.973,83.024 163.973,86.137C163.973,89.25 162.076,91.777 159.74,91.777C157.404,91.777 155.507,89.25 155.507,86.137C155.507,83.024 157.404,80.497 159.74,80.497Z" style="fill:rgb(39,69,147);"/>
        <g transform="matrix(1,0,0,1,-0.0459954,-0.00836695)">
            <path d="M222.68,64.892C221.311,66.643 228.138,8.882 228.671,11.194L235.61,7.233L237.432,8.25C234.718,10.63 232.3,13.115 229.91,15.611C230.325,17.649 225.786,60.32 225.786,60.32C227.526,63.15 229.609,65.734 231.927,68.15C230.657,68.712 229.3,69.075 227.89,69.319C225.952,68.07 224.212,66.598 222.68,64.892Z" style="fill:rgb(0,178,200);"/>
        </g>
        <g transform="matrix(1,0,0,1,-0.0459954,-0.00836695)">
            <path d="M227.89,56.163C227.89,56.163 230.69,19.672 230.991,21.678C234.551,17.853 238.932,15.061 243.59,12.614L245.069,14.049C228.737,28.44 227.379,49.148 240.263,63.992C239.262,64.745 238.229,65.473 236.93,65.994C233.169,63.692 230.262,60.277 227.89,56.163Z" style="fill:rgb(54,185,156);"/>
        </g>
        <g transform="matrix(1,0,0,1,-0.0459954,-0.00836695)">
            <path d="M224.524,4.38L226.279,4.38C236.845,27.748 232.089,59.173 218.227,69.81C214.818,69.387 211.97,68.722 210.176,67.603C214.657,62.437 218.093,57.76 220.243,52.04C225.989,36.75 226.596,20.826 224.524,4.38Z" style="fill:rgb(39,69,147);"/>
        </g>
        <g transform="matrix(1,0,0,1,-0.0459954,-0.00836695)">
            <path d="M55.391,38.845L55.391,53.978C55.685,62.844 53.718,65.361 46.753,66.696L45.782,62.901C49.21,62.409 51.353,61.034 50.988,57.638L50.988,38.845L55.391,38.845Z" style="fill:rgb(39,69,147);"/>
        </g>
        <g transform="matrix(1,0,0,1,-0.0459954,-0.00836695)">
            <path d="M199.048,61.051C211.884,49.997 217.613,30.744 217.179,4.38L218.99,4.38C226.189,34.664 219.576,53.512 203.853,64.817C202.217,63.738 200.653,62.46 199.048,61.051Z" style="fill:rgb(28,97,162);"/>
        </g>
        <g transform="matrix(1,0,0,1,-0.0459954,-0.00836695)">
            <path d="M127.354,45.739L126.137,49.105C118.414,46.322 118.365,51.106 124.979,52.731C130.98,55.792 128.034,62.72 122.203,63.112C119.81,63.109 117.476,62.842 115.306,61.836L116.644,58.631C118.485,59.434 120.337,59.811 122.203,59.567C124.519,57.981 123.431,56.545 120.859,55.174C114.497,53.733 113.051,45.81 122.203,44.805C124.014,44.751 125.686,45.091 127.354,45.739Z" style="fill:rgb(39,69,147);"/>
        </g>
        <g transform="matrix(1,0,0,1,-0.0459954,-0.00836695)">
            <path d="M154.602,62.752L150.382,62.752L150.382,48.577C150.41,47.917 150.309,47.264 150,46.623C152.099,45.77 154.262,45.195 156.478,44.844C162.441,44.126 165.261,46.097 165.825,50L165.825,62.752L161.557,62.752L161.557,51.332C161.215,48.257 158.526,47.968 154.602,49.144L154.602,62.752Z" style="fill:rgb(39,69,147);"/>
        </g>
        <g transform="matrix(1,0,0,1,-0.0459954,-0.00836695)">
            <path d="M101.741,62.752L97.521,62.752L97.521,48.577C97.548,47.917 97.448,47.264 97.139,46.623C99.237,45.77 101.401,45.195 103.617,44.844C109.579,44.126 112.4,46.097 112.964,50L112.964,62.752L108.695,62.752L108.695,51.332C108.354,48.257 105.665,47.968 101.741,49.144L101.741,62.752Z" style="fill:rgb(39,69,147);"/>
        </g>
        <g transform="matrix(1,0,0,1,-0.0459954,-0.00836695)">
            <path d="M82.626,36.861L82.626,46.085C87.015,43.433 93.341,44.353 93.854,50L93.854,62.752L89.733,62.752L89.733,52.771C89.924,47.817 86.217,47.247 82.626,50L82.626,62.752L78.53,62.752L78.53,36.861L82.626,36.861Z" style="fill:rgb(39,69,147);"/>
        </g>
        <g transform="matrix(1,0,0,1,-0.0459954,-0.00836695)">
            <path d="M249.621,19.948L250.758,21.678C242.454,32.389 240.325,45.15 246.737,57.933L244.214,60.796C229.128,46.13 234.917,27.879 249.621,19.948Z" style="fill:rgb(97,191,103);"/>
        </g>
        <path d="M138.873,44.836C143.807,44.836 147.812,48.938 147.812,53.99C147.812,59.042 143.807,63.144 138.873,63.144C133.939,63.144 129.933,59.042 129.933,53.99C129.933,48.968 133.892,44.884 138.873,44.836ZM138.88,48.256C141.217,48.256 143.114,50.783 143.114,53.896C143.114,57.009 141.217,59.536 138.88,59.536C136.544,59.536 134.647,57.009 134.647,53.896C134.647,50.783 136.544,48.256 138.88,48.256Z" style="fill:rgb(39,69,147);"/>
        <path d="M66.794,44.836C71.728,44.836 75.733,48.938 75.733,53.99C75.733,59.042 71.728,63.144 66.794,63.144C61.86,63.144 57.854,59.042 57.854,53.99C57.854,48.968 61.813,44.884 66.794,44.836ZM66.801,48.256C69.138,48.256 71.035,50.783 71.035,53.896C71.035,57.009 69.138,59.536 66.801,59.536C64.465,59.536 62.568,57.009 62.568,53.896C62.568,50.783 64.465,48.256 66.801,48.256Z" style="fill:rgb(39,69,147);"/>
        <g transform="matrix(1,0,0,1,-0.0459954,-0.00836695)">
            <path d="M210.147,6.089C210.653,5.841 211.173,5.65 211.72,5.576C214.962,29.751 209.994,47.149 195.072,56.579C193.928,55.154 192.954,53.659 192.211,52.067C206.203,37.916 209.073,22.176 210.147,6.089Z" style="fill:rgb(30,124,183);"/>
        </g>
        <g transform="matrix(1,0,0,1,-0.0459954,-0.00836695)">
            <path d="M253.52,29.555C246.397,35.915 244.712,43.828 249.787,53.573C253.926,46.595 255.363,38.635 253.52,29.555Z" style="fill:rgb(121,200,0);"/>
        </g>
        <g transform="matrix(1,0,0,1,-0.0459954,-0.00836695)">
            <path d="M203.56,9.405L205.119,8.49C205.813,28.401 199.729,39.756 189.958,46.277C189.489,44.834 189.153,43.277 188.916,41.637C196.543,32.395 201.322,21.675 203.56,9.405Z" style="fill:rgb(18,155,208);"/>
        </g>
        <g transform="matrix(1,0,0,1,-0.0459954,-0.00836695)">
            <path d="M188.731,34.633C189.225,26.228 192.643,19.223 198.596,13.431C197.607,21.893 194.235,28.909 188.731,34.633Z" style="fill:rgb(33,184,230);"/>
        </g>
    </g>
</svg>
