<?xml version="1.0" encoding="UTF-8" standalone="no"?>
<!DOCTYPE svg PUBLIC "-//W3C//DTD SVG 1.1//EN" "http://www.w3.org/Graphics/SVG/1.1/DTD/svg11.dtd">
<svg width="100%" height="100%" viewBox="0 0 300 100" version="1.1" xmlns="http://www.w3.org/2000/svg" xmlns:xlink="http://www.w3.org/1999/xlink" xml:space="preserve" xmlns:serif="http://www.serif.com/" style="fill-rule:evenodd;clip-rule:evenodd;stroke-linejoin:round;stroke-miterlimit:2;">
    <path d="M51,2.5C77.216,2.5 98.5,23.784 98.5,50C98.5,76.216 77.216,97.5 51,97.5C24.784,97.5 3.5,76.216 3.5,50C3.5,23.784 24.784,2.5 51,2.5ZM42.37,50.634C42.37,47.614 45.014,45.163 48.305,45.163L48.315,45.163L48.326,45.163C51.617,45.163 54.2,47.614 54.2,50.634L54.2,59.976C54.2,62.996 51.617,65.447 48.326,65.447L48.315,65.447L48.305,65.447C45.014,65.447 42.37,62.996 42.37,59.976L42.37,50.634ZM35.315,57C35.795,57.03 36.04,57.259 36.007,57.722C36.007,57.722 36.007,62.411 36.007,64.245C36.007,64.436 36.083,64.62 36.219,64.756C36.354,64.892 36.538,64.968 36.73,64.968C37.509,64.968 38.742,64.968 39.521,64.968C39.712,64.968 39.896,64.892 40.031,64.756C40.167,64.621 40.243,64.437 40.243,64.246C40.243,62.874 40.243,59.821 40.243,57.539C40.243,56.85 39.932,56.198 39.397,55.765C38.951,55.404 38.39,55.226 37.826,55.259C37.716,55.286 37.602,55.301 37.484,55.305C37.484,55.305 37.485,55.305 37.485,55.305C37.598,55.281 37.712,55.266 37.826,55.259C40.844,54.531 40.879,45.562 36.572,45.578L31.952,45.578L31.952,45.582C31.927,45.579 31.902,45.578 31.877,45.578L28.861,45.578C28.508,45.578 28.222,45.864 28.222,46.216L28.222,64.33C28.222,64.682 28.508,64.968 28.861,64.968L31.877,64.968C32.229,64.967 32.515,64.682 32.515,64.33L32.515,57L35.315,57ZM17.643,64.968C17.829,64.967 22.689,64.779 22.689,64.779C27.603,64.779 26.982,54.766 23.185,54.764C26.595,54.762 26.643,45.561 22.153,45.578L14.627,45.578C14.275,45.578 13.989,45.864 13.989,46.216L13.989,64.33C13.989,64.682 14.275,64.968 14.627,64.968L17.643,64.968ZM71.727,64.779L71.729,64.778C72.045,64.758 72.337,64.498 72.393,64.181L75.489,46.377C75.547,46.047 75.326,45.779 74.996,45.779L72.171,45.779C71.841,45.779 71.526,46.047 71.469,46.377L69.728,57.27L69.462,56.089L67.618,45.954C67.549,45.648 67.227,45.498 66.9,45.621L66.084,45.621C66.034,45.62 65.982,45.62 65.928,45.621L64.279,45.621C64.224,45.62 64.171,45.62 64.12,45.621L63.342,45.621C63.019,45.498 62.701,45.648 62.634,45.954L61.263,53.691L60.527,56.952L58.835,46.377C58.777,46.047 58.467,45.779 58.141,45.779L55.353,45.779C55.028,45.779 54.81,46.047 54.868,46.377L57.964,64.181C58.02,64.498 58.309,64.758 58.62,64.778L58.622,64.779L58.639,64.779L58.658,64.779L62.212,64.779C62.542,64.779 62.855,64.511 62.913,64.182L65.119,54.061L67.319,64.182C67.376,64.512 67.687,64.779 68.012,64.779L71.691,64.779L71.711,64.779L71.727,64.779ZM88.702,64.779L88.704,64.778C89.016,64.758 89.263,64.498 89.263,64.181L89.263,46.377C89.263,46.047 88.995,45.779 88.665,45.779L85.84,45.779C85.511,45.779 85.243,46.047 85.243,46.377L85.243,55.105L81.318,45.954C81.195,45.648 80.848,45.498 80.542,45.621L77.921,45.621C76.823,45.607 76.636,45.858 76.731,46.149C76.702,46.219 76.686,46.296 76.686,46.376L76.686,64.182C76.686,64.512 76.954,64.779 77.283,64.779L80.105,64.779C80.435,64.779 80.702,64.511 80.702,64.182L80.702,55.361L84.592,64.379C84.714,64.685 85.395,64.779 85.395,64.779L85.821,64.779C85.827,64.779 85.834,64.779 85.84,64.779L88.665,64.779L88.675,64.779L88.685,64.779L88.702,64.779ZM49.907,52.221C49.905,51.552 49.898,49.665 49.898,49.634C49.898,48.899 49.116,48.303 48.315,48.303C48.312,48.303 48.308,48.303 48.305,48.303C48.301,48.303 48.298,48.303 48.294,48.303C47.494,48.303 46.652,48.899 46.652,49.634C46.652,49.656 46.656,50.629 46.659,51.426L46.659,51.426L46.659,51.477L46.663,52.453L46.658,52.453L46.652,60.976C46.652,61.71 47.494,62.307 48.294,62.307C48.298,62.307 48.301,62.307 48.305,62.307C48.308,62.307 48.312,62.307 48.315,62.307C49.116,62.307 49.898,61.71 49.898,60.976L49.907,52.221ZM18.449,56.572L18.449,61.413L20.913,61.413C21.191,61.413 21.457,61.302 21.653,61.106C21.849,60.91 21.959,60.644 21.959,60.367C21.959,59.615 21.959,58.598 21.959,57.807C21.959,57.125 21.407,56.572 20.725,56.572C19.714,56.572 18.449,56.572 18.449,56.572ZM32.695,49.014L32.695,53.27L34.724,53.27C35.302,53.27 35.77,52.801 35.77,52.224C35.77,51.627 35.77,50.874 35.77,50.248C35.77,49.921 35.64,49.607 35.409,49.375C35.177,49.144 34.863,49.014 34.536,49.014C33.68,49.014 32.695,49.014 32.695,49.014ZM18.449,49.014L18.449,53.27L20.478,53.27C21.056,53.27 21.524,52.801 21.524,52.224C21.524,51.627 21.524,50.874 21.524,50.248C21.524,49.921 21.394,49.607 21.163,49.375C20.931,49.144 20.617,49.014 20.29,49.014C19.434,49.014 18.449,49.014 18.449,49.014ZM20.261,23.638C20.261,23.286 20.547,23 20.899,23L23.915,23C24.267,23 24.553,23.286 24.553,23.638C24.553,23.638 24.587,37.233 24.587,37.434C24.587,40.454 22.01,42.905 18.835,42.905C15.661,42.905 13.084,40.454 13.084,37.434C13.084,37.157 13.081,36.886 13.08,36.621C13.079,36.359 13.182,36.108 13.367,35.923C13.552,35.737 13.803,35.633 14.065,35.633C14.774,35.633 15.73,35.633 16.447,35.633C16.714,35.633 16.969,35.74 17.157,35.929C17.345,36.119 17.449,36.375 17.447,36.642C17.441,37.033 17.437,37.396 17.437,37.434C17.437,38.168 18.063,38.765 18.835,38.765C19.607,38.765 20.234,38.168 20.234,37.434C20.234,37.362 20.261,23.638 20.261,23.638ZM26.954,27.901C26.954,24.882 29.598,22.43 32.889,22.43L32.9,22.43L32.91,22.43C36.201,22.43 38.785,24.882 38.785,27.901L38.785,37.244C38.785,40.263 36.201,42.715 32.91,42.715L32.9,42.715L32.889,42.715C29.598,42.715 26.954,40.263 26.954,37.244L26.954,27.901ZM67.697,42L67.699,41.999C68.011,41.979 68.258,41.719 68.258,41.402L68.258,23.598C68.258,23.268 67.991,23 67.661,23L64.836,23C64.506,23 64.238,23.268 64.238,23.598L64.238,32.326L60.313,23.174C60.191,22.868 59.843,22.719 59.537,22.841L56.916,22.841C55.818,22.828 55.631,23.079 55.726,23.37C55.697,23.44 55.681,23.517 55.681,23.597L55.681,41.403C55.681,41.732 55.949,42 56.278,42L59.1,42C59.43,42 59.697,41.732 59.697,41.403L59.697,32.582L63.587,41.6C63.709,41.906 64.39,42 64.39,42L64.816,42C64.822,42 64.829,42 64.836,42L67.661,42L67.671,42L67.681,42L67.697,42ZM52.342,42C52.694,42 52.98,41.714 52.98,41.362L52.98,23.638C52.98,23.286 52.694,23 52.342,23L49.326,23C48.973,23 48.688,23.286 48.688,23.638L48.688,30.549L45.442,30.549L45.442,23.638C45.442,23.286 45.156,23 44.804,23L41.788,23C41.435,23 41.15,23.286 41.15,23.638L41.15,41.362C41.15,41.714 41.435,42 41.788,42L44.804,42C45.156,42 45.442,41.714 45.442,41.362L45.442,34L48.688,34L48.688,41.362C48.688,41.714 48.973,42 49.326,42L52.342,42ZM34.492,29.489C34.489,28.819 34.482,26.933 34.482,26.901C34.482,26.167 33.7,25.571 32.9,25.571C32.896,25.571 32.893,25.571 32.889,25.571C32.885,25.571 32.882,25.571 32.878,25.571C32.078,25.571 31.236,26.167 31.236,26.901C31.236,26.924 31.24,27.897 31.243,28.693L31.243,28.693L31.243,28.745L31.247,29.721L31.242,29.721L31.236,38.244C31.236,38.978 32.078,39.574 32.878,39.574C32.882,39.574 32.885,39.574 32.889,39.574C32.893,39.574 32.896,39.574 32.9,39.574C33.7,39.574 34.482,38.978 34.482,38.244L34.492,29.489Z" style="fill:rgb(0,142,151);"/>
</svg>
