<?xml version="1.0" encoding="UTF-8" standalone="no"?>
<!DOCTYPE svg PUBLIC "-//W3C//DTD SVG 1.1//EN" "http://www.w3.org/Graphics/SVG/1.1/DTD/svg11.dtd">
<svg width="100%" height="100%" viewBox="0 0 300 100" version="1.1" xmlns="http://www.w3.org/2000/svg" xmlns:xlink="http://www.w3.org/1999/xlink" xml:space="preserve" xmlns:serif="http://www.serif.com/" style="fill-rule:evenodd;clip-rule:evenodd;stroke-linejoin:round;stroke-miterlimit:2;">
    <g transform="matrix(1.34917,0,0,1.34917,-80.5732,-3.11509)">
        <g transform="matrix(1.35105,0,0,1.28635,-45.3107,16.8433)">
            <g transform="matrix(29.7027,0,0,29.7027,79.9484,42.8841)">
                <path d="M0.705,-0.139C0.699,-0.141 0.697,-0.139 0.693,-0.135C0.679,-0.097 0.54,-0.05 0.484,-0.042C0.444,-0.037 0.322,-0.037 0.266,-0.037C0.194,-0.037 0.206,-0.151 0.206,-0.314L0.206,-0.4C0.206,-0.47 0.21,-0.62 0.21,-0.634C0.21,-0.661 0.214,-0.671 0.244,-0.671L0.266,-0.671C0.274,-0.671 0.276,-0.675 0.276,-0.679L0.276,-0.702C0.276,-0.707 0.274,-0.711 0.266,-0.711C0.258,-0.711 0.298,-0.708 0.19,-0.708C0.098,-0.708 0.062,-0.711 0.052,-0.711C0.046,-0.711 0.044,-0.709 0.044,-0.703L0.044,-0.68C0.044,-0.677 0.046,-0.671 0.052,-0.671L0.094,-0.671C0.12,-0.671 0.124,-0.661 0.126,-0.635C0.128,-0.618 0.13,-0.512 0.13,-0.448L0.13,-0.392C0.13,-0.332 0.126,-0.082 0.126,-0.064C0.126,-0.051 0.12,-0.037 0.084,-0.037L0.044,-0.037C0.038,-0.037 0.038,-0.035 0.038,-0.029L0.038,-0.006C0.038,0.001 0.038,0.003 0.046,0.003C0.058,0.003 0.094,0 0.184,0C0.286,0 0.577,0.015 0.6,0.003C0.647,-0.022 0.721,-0.117 0.725,-0.123C0.725,-0.129 0.725,-0.131 0.723,-0.133L0.705,-0.139Z" style="fill-rule:nonzero;"/>
            </g>
            <g transform="matrix(29.7027,0,0,29.7027,99.8492,42.8841)">
                <path d="M0.164,-0.144C0.164,-0.116 0.163,-0.084 0.162,-0.054C0.161,-0.038 0.156,-0.034 0.146,-0.034L0.102,-0.034C0.096,-0.034 0.092,-0.032 0.092,-0.026L0.092,-0.007C0.092,0.001 0.095,0.003 0.1,0.003C0.112,0.003 0.15,0 0.208,0C0.275,0 0.296,0.003 0.304,0.003C0.31,0.003 0.312,-0.001 0.312,-0.007L0.312,-0.027C0.312,-0.032 0.31,-0.034 0.302,-0.034L0.262,-0.034C0.252,-0.034 0.248,-0.042 0.246,-0.06C0.244,-0.072 0.244,-0.108 0.244,-0.146L0.244,-0.254C0.244,-0.337 0.244,-0.401 0.246,-0.417C0.247,-0.425 0.244,-0.429 0.238,-0.429C0.232,-0.429 0.224,-0.427 0.214,-0.423C0.197,-0.416 0.123,-0.381 0.109,-0.375C0.104,-0.373 0.102,-0.371 0.102,-0.367L0.102,-0.356C0.102,-0.352 0.103,-0.349 0.112,-0.347C0.158,-0.335 0.164,-0.315 0.164,-0.285L0.164,-0.144Z" style="fill-rule:nonzero;"/>
            </g>
            <g transform="matrix(29.7027,0,0,29.7027,171.562,42.8841)">
                <path d="M0.164,-0.144C0.164,-0.116 0.163,-0.084 0.162,-0.054C0.161,-0.038 0.156,-0.034 0.146,-0.034L0.102,-0.034C0.096,-0.034 0.092,-0.032 0.092,-0.026L0.092,-0.007C0.092,0.001 0.095,0.003 0.1,0.003C0.112,0.003 0.15,0 0.208,0C0.275,0 0.296,0.003 0.304,0.003C0.31,0.003 0.312,-0.001 0.312,-0.007L0.312,-0.027C0.312,-0.032 0.31,-0.034 0.302,-0.034L0.262,-0.034C0.252,-0.034 0.248,-0.042 0.246,-0.06C0.244,-0.072 0.244,-0.108 0.244,-0.146L0.244,-0.254C0.244,-0.337 0.244,-0.401 0.246,-0.417C0.247,-0.425 0.244,-0.429 0.238,-0.429C0.232,-0.429 0.224,-0.427 0.214,-0.423C0.197,-0.416 0.123,-0.381 0.109,-0.375C0.104,-0.373 0.102,-0.371 0.102,-0.367L0.102,-0.356C0.102,-0.352 0.103,-0.349 0.112,-0.347C0.158,-0.335 0.164,-0.315 0.164,-0.285L0.164,-0.144Z" style="fill-rule:nonzero;"/>
            </g>
            <g transform="matrix(29.7027,0,0,29.7027,107.899,42.8841)">
                <path d="M0.191,-0.025C0.219,-0.011 0.282,0.012 0.342,0.012C0.464,0.012 0.562,-0.11 0.562,-0.22C0.562,-0.275 0.551,-0.317 0.533,-0.345C0.502,-0.394 0.449,-0.429 0.387,-0.429C0.336,-0.429 0.259,-0.411 0.225,-0.378L0.226,-0.498C0.227,-0.585 0.231,-0.699 0.231,-0.707C0.233,-0.717 0.229,-0.723 0.221,-0.723C0.213,-0.723 0.205,-0.719 0.191,-0.711C0.159,-0.695 0.123,-0.679 0.083,-0.665C0.075,-0.663 0.073,-0.659 0.073,-0.657L0.073,-0.647C0.073,-0.643 0.075,-0.641 0.087,-0.639L0.099,-0.635C0.131,-0.625 0.145,-0.603 0.145,-0.535L0.147,-0.17C0.147,-0.098 0.146,-0.014 0.144,0C0.144,0.004 0.144,0.006 0.148,0.008L0.162,0.012C0.166,0.012 0.17,0.012 0.175,0.009L0.191,-0.025ZM0.225,-0.339C0.247,-0.359 0.304,-0.393 0.362,-0.393C0.441,-0.393 0.495,-0.304 0.495,-0.188C0.495,-0.144 0.49,-0.112 0.469,-0.076C0.446,-0.037 0.37,-0.025 0.338,-0.025C0.304,-0.025 0.251,-0.046 0.239,-0.07C0.227,-0.1 0.225,-0.132 0.225,-0.216L0.225,-0.339Z" style="fill-rule:nonzero;"/>
            </g>
            <g transform="matrix(29.7027,0,0,29.7027,123.463,42.8841)">
                <path d="M0.218,-0.251L0.46,-0.251C0.478,-0.251 0.488,-0.252 0.488,-0.267C0.488,-0.308 0.451,-0.427 0.337,-0.427C0.25,-0.427 0.205,-0.407 0.163,-0.353C0.12,-0.297 0.114,-0.26 0.114,-0.205C0.114,-0.143 0.124,-0.093 0.17,-0.04C0.205,0 0.25,0.014 0.314,0.014C0.424,0.014 0.475,-0.054 0.496,-0.092C0.503,-0.105 0.501,-0.109 0.496,-0.112L0.481,-0.121C0.477,-0.123 0.473,-0.123 0.469,-0.116C0.448,-0.084 0.41,-0.058 0.348,-0.058C0.291,-0.058 0.218,-0.118 0.218,-0.22L0.218,-0.251ZM0.221,-0.287C0.234,-0.354 0.264,-0.39 0.313,-0.39C0.365,-0.39 0.375,-0.331 0.375,-0.301C0.375,-0.293 0.363,-0.287 0.342,-0.287L0.221,-0.287Z" style="fill-rule:nonzero;"/>
            </g>
            <g transform="matrix(29.7027,0,0,29.7027,136.354,42.8841)">
                <path d="M0.208,-0.061C0.208,-0.042 0.198,-0.034 0.182,-0.034L0.147,-0.034C0.14,-0.034 0.138,-0.032 0.138,-0.026L0.138,-0.004C0.138,0.001 0.14,0.003 0.145,0.003C0.153,0.003 0.192,0 0.262,0C0.335,0 0.344,0.003 0.351,0.003C0.356,0.003 0.358,0.001 0.358,-0.004L0.358,-0.027C0.358,-0.032 0.356,-0.034 0.35,-0.034L0.306,-0.034C0.286,-0.034 0.278,-0.044 0.278,-0.076L0.278,-0.267C0.278,-0.28 0.282,-0.325 0.29,-0.339C0.302,-0.36 0.338,-0.372 0.35,-0.372C0.36,-0.372 0.37,-0.37 0.378,-0.364C0.386,-0.36 0.398,-0.356 0.412,-0.356C0.438,-0.356 0.454,-0.362 0.454,-0.39C0.454,-0.418 0.444,-0.429 0.412,-0.429C0.368,-0.429 0.328,-0.426 0.294,-0.37L0.29,-0.37C0.284,-0.375 0.282,-0.404 0.281,-0.444C0.28,-0.45 0.278,-0.456 0.272,-0.456C0.266,-0.456 0.262,-0.454 0.256,-0.452L0.135,-0.395C0.129,-0.392 0.127,-0.39 0.127,-0.386L0.127,-0.38C0.127,-0.376 0.129,-0.374 0.135,-0.372L0.153,-0.362C0.217,-0.378 0.208,-0.303 0.208,-0.257L0.208,-0.061Z" style="fill-rule:nonzero;"/>
            </g>
            <g transform="matrix(29.7027,0,0,29.7027,147.136,42.8841)">
                <path d="M0.418,-0.049C0.432,-0.006 0.464,0.012 0.502,0.012C0.56,0.012 0.565,-0.007 0.575,-0.025C0.579,-0.035 0.577,-0.039 0.573,-0.041L0.561,-0.049C0.557,-0.051 0.555,-0.051 0.551,-0.045C0.547,-0.037 0.533,-0.029 0.519,-0.029C0.501,-0.029 0.493,-0.045 0.493,-0.099L0.493,-0.147L0.491,-0.305C0.491,-0.332 0.484,-0.355 0.467,-0.38C0.453,-0.4 0.448,-0.417 0.394,-0.429C0.302,-0.449 0.233,-0.429 0.191,-0.397C0.161,-0.375 0.145,-0.343 0.145,-0.315C0.145,-0.293 0.161,-0.276 0.179,-0.281C0.215,-0.291 0.22,-0.289 0.226,-0.331C0.23,-0.355 0.216,-0.37 0.23,-0.38C0.246,-0.392 0.283,-0.406 0.301,-0.406C0.376,-0.405 0.382,-0.378 0.392,-0.367C0.404,-0.355 0.406,-0.331 0.408,-0.311L0.408,-0.259C0.386,-0.243 0.315,-0.229 0.253,-0.199C0.181,-0.167 0.161,-0.122 0.161,-0.076C0.161,-0.02 0.193,0.01 0.23,0.01C0.25,0.01 0.306,0.02 0.329,0.012C0.377,-0.004 0.403,-0.009 0.414,-0.049L0.418,-0.049ZM0.408,-0.091C0.408,-0.073 0.301,-0.031 0.273,-0.029C0.249,-0.029 0.227,-0.049 0.227,-0.09C0.227,-0.163 0.364,-0.194 0.408,-0.222L0.408,-0.091Z" style="fill-rule:nonzero;"/>
            </g>
            <g transform="matrix(29.7027,0,0,29.7027,160.294,42.8841)">
                <path d="M0.188,-0.388L0.188,-0.232C0.188,-0.194 0.185,-0.114 0.185,-0.078C0.185,-0.036 0.23,0.012 0.29,0.012C0.36,0.012 0.407,-0.005 0.421,-0.015C0.425,-0.019 0.427,-0.023 0.425,-0.029L0.419,-0.041C0.417,-0.046 0.414,-0.046 0.407,-0.043C0.393,-0.036 0.371,-0.031 0.349,-0.031C0.329,-0.031 0.268,0.008 0.27,-0.147L0.27,-0.237C0.27,-0.281 0.271,-0.329 0.273,-0.371L0.404,-0.385C0.41,-0.385 0.413,-0.387 0.414,-0.391L0.425,-0.429C0.426,-0.433 0.424,-0.437 0.418,-0.437L0.275,-0.427L0.279,-0.526C0.279,-0.534 0.275,-0.54 0.267,-0.54C0.261,-0.54 0.255,-0.538 0.251,-0.53C0.229,-0.488 0.163,-0.431 0.135,-0.421C0.122,-0.416 0.116,-0.41 0.116,-0.402C0.116,-0.392 0.122,-0.388 0.13,-0.388L0.188,-0.388Z" style="fill-rule:nonzero;"/>
            </g>
            <g transform="matrix(29.7027,0,0,29.7027,178.324,42.8841)">
                <path d="M0.283,-0.429C0.242,-0.429 0.19,-0.421 0.141,-0.381C0.081,-0.333 0.057,-0.263 0.057,-0.215C0.057,-0.154 0.067,-0.112 0.111,-0.06C0.156,-0.006 0.21,0.012 0.273,0.012C0.34,0.012 0.4,-0.014 0.441,-0.06C0.479,-0.102 0.503,-0.156 0.503,-0.212C0.503,-0.271 0.481,-0.323 0.434,-0.37C0.4,-0.403 0.35,-0.429 0.283,-0.429ZM0.281,-0.03C0.179,-0.029 0.142,-0.093 0.141,-0.211C0.139,-0.351 0.205,-0.386 0.277,-0.389C0.341,-0.392 0.434,-0.325 0.434,-0.215C0.434,-0.113 0.412,-0.031 0.281,-0.03Z" style="fill-rule:nonzero;"/>
            </g>
            <g transform="matrix(29.7027,0,0,29.7027,193.472,42.8841)">
                <path d="M0.015,-0.399C0.009,-0.397 0.005,-0.393 0.005,-0.389L0.005,-0.381C0.005,-0.377 0.007,-0.373 0.013,-0.371L0.021,-0.367C0.045,-0.355 0.09,-0.372 0.09,-0.301L0.091,-0.054C0.091,-0.038 0.077,-0.034 0.065,-0.034L0.045,-0.034C0.037,-0.034 0.035,-0.032 0.035,-0.026L0.035,-0.007C0.035,-0.001 0.037,0.003 0.041,0.003C0.047,0.003 0.079,0 0.141,0C0.201,0 0.204,0.003 0.21,0.003C0.216,0.003 0.218,-0.001 0.218,-0.007L0.218,-0.025C0.218,-0.032 0.216,-0.034 0.208,-0.034L0.19,-0.034C0.176,-0.034 0.171,-0.046 0.171,-0.068L0.17,-0.296C0.17,-0.323 0.175,-0.351 0.191,-0.367C0.215,-0.389 0.264,-0.393 0.28,-0.393C0.302,-0.393 0.32,-0.393 0.34,-0.375C0.364,-0.355 0.366,-0.329 0.366,-0.289L0.367,-0.152C0.367,-0.112 0.366,-0.084 0.363,-0.058C0.361,-0.04 0.353,-0.034 0.345,-0.034L0.325,-0.034C0.315,-0.034 0.313,-0.032 0.313,-0.026L0.313,-0.009C0.313,-0.001 0.315,0.003 0.321,0.003C0.327,0.003 0.359,0 0.419,0C0.489,0 0.494,0.003 0.502,0.003C0.508,0.003 0.51,0.001 0.51,-0.004L0.51,-0.027C0.51,-0.032 0.507,-0.034 0.498,-0.034L0.47,-0.034C0.458,-0.034 0.446,-0.04 0.446,-0.062C0.446,-0.082 0.447,-0.126 0.447,-0.158L0.446,-0.246C0.446,-0.287 0.449,-0.317 0.419,-0.375C0.406,-0.401 0.378,-0.421 0.325,-0.438C0.313,-0.442 0.254,-0.449 0.229,-0.438C0.203,-0.427 0.19,-0.42 0.17,-0.381L0.164,-0.381L0.162,-0.438C0.16,-0.446 0.156,-0.45 0.15,-0.45C0.144,-0.45 0.138,-0.446 0.13,-0.442L0.015,-0.399Z" style="fill-rule:nonzero;"/>
            </g>
        </g>
        <path d="M97.208,52.354L95.016,52.354C95.665,38.747 101.682,26.537 110.994,17.797C110.278,24.677 107.675,29.864 103.385,33.535C100.189,36.27 97.423,44.511 97.208,52.354Z" style="fill:rgb(128,119,171);"/>
        <path d="M105.622,52.354L98.906,52.354C99.459,44.723 102.11,38.308 106.07,33.535C113.168,24.981 112.276,21.013 112.617,16.337C115.528,13.83 118.725,11.648 122.153,9.846C121.153,16.318 120.666,22.871 120.891,29.537C123.019,33.903 124.422,38.474 125.552,43.122C125.976,46.176 125.841,49.246 125.638,52.354L110.545,52.354C110.636,48.381 110.774,44.556 110.774,44.212C110.893,43.648 110.656,43.31 110.182,43.31C109.709,43.31 109.235,43.535 108.406,43.986C106.512,44.888 104.375,45.765 102.007,46.554C101.534,46.666 101.415,46.892 101.415,47.005L101.415,47.568C101.415,47.794 101.534,47.906 102.244,48.019L102.955,48.245C104.566,48.724 105.407,49.711 105.622,52.354Z" style="fill:rgb(64,133,181);"/>
        <path d="M128.772,52.354L127.354,52.354C127.636,49.277 127.699,46.2 127.225,43.122C126.529,38.121 125.018,33.663 123.009,29.537C122.37,21.327 123.319,14.968 124.383,8.743C124.611,8.637 124.841,8.533 125.071,8.43L125.071,23.435C125.965,25.424 127.339,26.64 129.154,27.145L128.772,52.354Z" style="fill:rgb(207,119,133);"/>
        <path d="M134.261,52.354L130.379,52.354L130.82,25.75C128.106,25.75 126.847,23.429 126.847,20.714L126.847,7.678C127.483,7.423 128.125,7.18 128.772,6.951L128.772,17.626C128.772,17.836 128.856,18.038 129.004,18.186C129.153,18.335 129.354,18.418 129.565,18.418C129.567,18.418 129.57,18.418 129.572,18.418C130.01,18.418 130.365,18.064 130.365,17.626L130.365,6.416C130.746,6.295 131.129,6.178 131.514,6.066L131.514,17.626C131.514,17.836 131.597,18.038 131.746,18.186C131.894,18.335 132.096,18.418 132.306,18.418C132.309,18.418 132.311,18.418 132.314,18.418C132.751,18.418 133.106,18.064 133.106,17.626L133.106,5.631C133.602,5.504 134.1,5.384 134.602,5.272L134.602,17.626C134.602,17.836 134.685,18.038 134.834,18.186C134.982,18.335 135.184,18.418 135.394,18.418C135.397,18.418 135.399,18.418 135.402,18.418C135.612,18.418 135.813,18.335 135.962,18.186C136.11,18.038 136.194,17.836 136.194,17.626L136.194,4.942C136.731,4.84 137.271,4.747 137.813,4.662L137.813,21.393C137.813,23.119 135.987,25.588 134.261,25.588L134.261,52.354Z" style="fill:rgb(182,201,144);"/>
        <path d="M138.448,52.354L135.728,52.354C135.864,44.125 135.877,35.758 135.72,27.203C137.999,26.881 139.297,24.811 139.838,21.393C140.638,25.938 141.019,30.494 140.508,35.075C136.907,39.468 136.623,45.416 138.448,52.354Z" style="fill:rgb(68,153,201);"/>
        <path d="M152.424,52.354L141.008,52.354C137.94,46.697 138.149,41.23 142.458,36C142.711,25.994 141.869,15.605 138.962,4.495C141.072,4.214 143.223,4.063 145.407,4.05C144.771,14.663 145.22,25.039 147.211,35.075C152.48,40.106 153.573,46.003 152.424,52.354Z" style="fill:rgb(179,199,140);"/>
        <path d="M157.119,52.354L154.426,52.354C155.5,45.815 154.696,39.409 148.289,33.403L147.718,22.901C150.561,27.749 153.699,30.21 157.119,30.392L157.119,52.354Z" style="fill:rgb(131,193,232);"/>
        <path d="M162.846,52.354L157.845,52.354C159.193,50.19 159.319,42.68 159.04,33.403C159.029,30.842 157.963,28.503 153.803,26.814C149.736,25.161 147.528,18.494 147.211,12.694C147.064,10.009 147.009,6.987 147.14,4.068C156.685,4.332 165.575,7.235 173.105,12.074C173.046,20.038 170.388,25.9 163.328,28.202C162.217,28.564 161.654,29.516 161.193,31.1C160.509,40.037 161.178,46.945 162.846,52.354Z" style="fill:rgb(217,185,136);"/>
        <path d="M185.844,52.354L165.747,52.354C163.75,46.138 164.84,40.911 170.281,36.032C170.935,35.446 171.001,32.519 169.727,30.392C168.546,28.418 169.225,26.209 170.955,25.007C171.009,28.517 172.24,30.427 175.427,29.672L175.427,13.659C176.324,14.308 177.199,14.985 178.05,15.69L178.05,29.305C179.079,30.312 180.447,29.926 182.107,28.969C184.732,27.125 183.075,25.99 183.735,26.225C184.399,27.839 184.878,29.464 183.735,31.1C182.103,33.433 181.652,36.388 183.735,38.237C188.622,42.575 188.204,47.485 185.844,52.354Z" style="fill:rgb(181,106,158);"/>
        <path d="M180.267,17.635C189.677,26.386 195.764,38.663 196.418,52.354L187.891,52.354C190.431,47.473 190.927,42.574 186.349,37.627C184.744,35.892 184.564,34.241 185.979,31.888C187.885,28.72 186.996,25.128 184.475,23.809C183.255,23.17 180.267,25.125 180.267,27.711L180.267,17.635Z" style="fill:rgb(113,105,172);"/>
        <path d="M163.577,30.392C162.65,34.778 162.678,39.307 163.084,43.892C164.007,40.665 165.349,37.717 168.177,35.761C169.16,34.33 166.86,28.969 166.86,28.969L163.577,30.392Z" style="fill:rgb(184,181,209);"/>
        <path d="M173.63,26.225L173.63,21.393C173.375,22.778 172.779,23.658 171.742,23.882C172.645,24.125 173.274,24.906 173.63,26.225Z" style="fill:rgb(176,95,154);"/>
    </g>
</svg>
