<?xml version="1.0" encoding="UTF-8" standalone="no"?>
<!DOCTYPE svg PUBLIC "-//W3C//DTD SVG 1.1//EN" "http://www.w3.org/Graphics/SVG/1.1/DTD/svg11.dtd">
<svg width="100%" height="100%" viewBox="0 0 300 100" version="1.1" xmlns="http://www.w3.org/2000/svg" xmlns:xlink="http://www.w3.org/1999/xlink" xml:space="preserve" xmlns:serif="http://www.serif.com/" style="fill-rule:evenodd;clip-rule:evenodd;stroke-linejoin:round;stroke-miterlimit:2;">
    <g transform="matrix(1,0,0,1,-63,0)">
        <g transform="matrix(1,0,0,1,-0.34357,0)">
            <circle cx="116.75" cy="73" r="5" style="fill:rgb(36,45,90);"/>
        </g>
        <path d="M110,87L123,87C118.792,89.175 114.467,89.315 110,87Z" style="fill:rgb(244,99,11);"/>
        <path d="M100,90L133.109,90C142.051,90.111 141.315,87.741 133.109,86C145.472,87.105 163.962,91.047 133.109,93C128.803,93.273 121.94,93.532 116.723,93.465L116.555,93.462L116.386,93.465C111.169,93.532 104.306,93.273 100,93C69.147,91.047 87.637,87.105 100,86C91.795,87.741 91.058,90.111 100,90Z" style="fill:rgb(244,99,11);"/>
        <path d="M116.68,96.191L116.805,96.191C130.99,96.18 145.175,95.102 159.36,93C161.953,92.616 162.23,91.051 160.36,89C165.118,90.835 166.063,92.91 160.36,94C145.965,96.752 131.406,98.001 116.805,97.93L116.68,97.93L116.555,97.93C101.954,98.001 87.395,96.752 73,94C67.297,92.91 68.242,90.835 73,89C71.13,91.051 71.406,92.616 74,93C88.185,95.102 102.37,96.18 116.555,96.191L116.68,96.191Z" style="fill:rgb(244,99,11);"/>
        <g transform="matrix(0.958194,0,0,1,7.05448,0)">
            <g transform="matrix(13.9605,0,0,13.9605,168,61)">
                <path d="M0.412,-0.281L0.412,-0.365L0.715,-0.365L0.715,-0.1C0.669,-0.063 0.621,-0.035 0.571,-0.016C0.522,0.003 0.471,0.012 0.419,0.012C0.349,0.012 0.285,-0.003 0.227,-0.033C0.17,-0.063 0.126,-0.107 0.097,-0.164C0.068,-0.221 0.053,-0.284 0.053,-0.354C0.053,-0.424 0.068,-0.489 0.097,-0.55C0.126,-0.61 0.168,-0.655 0.223,-0.684C0.277,-0.713 0.34,-0.728 0.412,-0.728C0.463,-0.728 0.51,-0.72 0.552,-0.703C0.594,-0.686 0.627,-0.663 0.65,-0.633C0.674,-0.603 0.692,-0.564 0.705,-0.516L0.619,-0.492C0.608,-0.529 0.595,-0.557 0.579,-0.578C0.563,-0.599 0.54,-0.616 0.511,-0.628C0.481,-0.641 0.448,-0.647 0.412,-0.647C0.369,-0.647 0.331,-0.64 0.3,-0.627C0.268,-0.614 0.243,-0.597 0.223,-0.575C0.204,-0.554 0.189,-0.53 0.178,-0.504C0.16,-0.46 0.151,-0.412 0.151,-0.36C0.151,-0.297 0.162,-0.243 0.184,-0.2C0.206,-0.157 0.238,-0.125 0.28,-0.104C0.322,-0.084 0.366,-0.073 0.414,-0.073C0.455,-0.073 0.495,-0.081 0.534,-0.097C0.573,-0.113 0.602,-0.13 0.623,-0.147L0.623,-0.281L0.412,-0.281Z" style="fill:rgb(244,99,11);fill-rule:nonzero;"/>
            </g>
            <g transform="matrix(13.9605,0,0,13.9605,182.738,61)">
                <path d="M0.079,0L0.079,-0.716L0.396,-0.716C0.46,-0.716 0.508,-0.709 0.542,-0.697C0.575,-0.684 0.601,-0.661 0.621,-0.628C0.641,-0.596 0.651,-0.56 0.651,-0.521C0.651,-0.47 0.634,-0.427 0.602,-0.392C0.569,-0.357 0.518,-0.335 0.449,-0.326C0.474,-0.314 0.493,-0.302 0.506,-0.29C0.534,-0.265 0.56,-0.233 0.585,-0.195L0.709,0L0.59,0L0.496,-0.149C0.468,-0.192 0.445,-0.225 0.427,-0.248C0.409,-0.27 0.393,-0.286 0.379,-0.295C0.365,-0.305 0.351,-0.311 0.336,-0.314C0.325,-0.317 0.308,-0.318 0.283,-0.318L0.173,-0.318L0.173,0L0.079,0ZM0.173,-0.4L0.377,-0.4C0.42,-0.4 0.454,-0.404 0.479,-0.413C0.503,-0.422 0.521,-0.437 0.534,-0.456C0.547,-0.476 0.553,-0.497 0.553,-0.521C0.553,-0.554 0.541,-0.582 0.516,-0.604C0.492,-0.626 0.453,-0.637 0.4,-0.637L0.173,-0.637L0.173,-0.4Z" style="fill:rgb(244,99,11);fill-rule:nonzero;"/>
            </g>
            <g transform="matrix(13.9605,0,0,13.9605,196.698,61)">
                <path d="M0.048,-0.349C0.048,-0.467 0.08,-0.56 0.144,-0.628C0.208,-0.695 0.29,-0.729 0.391,-0.729C0.457,-0.729 0.517,-0.713 0.57,-0.681C0.623,-0.65 0.663,-0.606 0.691,-0.549C0.719,-0.493 0.733,-0.429 0.733,-0.357C0.733,-0.284 0.718,-0.219 0.689,-0.162C0.66,-0.105 0.618,-0.061 0.564,-0.032C0.511,-0.003 0.453,0.012 0.391,0.012C0.323,0.012 0.263,-0.004 0.21,-0.037C0.157,-0.069 0.117,-0.114 0.089,-0.17C0.062,-0.226 0.048,-0.286 0.048,-0.349ZM0.146,-0.347C0.146,-0.261 0.169,-0.193 0.216,-0.143C0.262,-0.094 0.32,-0.069 0.39,-0.069C0.461,-0.069 0.52,-0.094 0.566,-0.144C0.612,-0.194 0.635,-0.265 0.635,-0.357C0.635,-0.416 0.625,-0.467 0.606,-0.51C0.586,-0.553 0.557,-0.587 0.519,-0.611C0.481,-0.635 0.439,-0.647 0.392,-0.647C0.325,-0.647 0.267,-0.624 0.219,-0.578C0.17,-0.532 0.146,-0.455 0.146,-0.347Z" style="fill:rgb(244,99,11);fill-rule:nonzero;"/>
            </g>
            <g transform="matrix(13.9605,0,0,13.9605,211.436,61)">
                <path d="M0.547,-0.716L0.642,-0.716L0.642,-0.302C0.642,-0.23 0.633,-0.173 0.617,-0.131C0.601,-0.089 0.572,-0.054 0.529,-0.028C0.487,-0.001 0.431,0.012 0.362,0.012C0.295,0.012 0.24,0.001 0.197,-0.022C0.155,-0.046 0.124,-0.079 0.106,-0.123C0.088,-0.167 0.079,-0.226 0.079,-0.302L0.079,-0.716L0.173,-0.716L0.173,-0.303C0.173,-0.241 0.179,-0.195 0.191,-0.165C0.202,-0.136 0.222,-0.113 0.25,-0.097C0.278,-0.081 0.313,-0.073 0.354,-0.073C0.423,-0.073 0.473,-0.089 0.502,-0.121C0.532,-0.152 0.547,-0.213 0.547,-0.303L0.547,-0.716Z" style="fill:rgb(244,99,11);fill-rule:nonzero;"/>
            </g>
            <g transform="matrix(13.9605,0,0,13.9605,225.396,61)">
                <path d="M0.077,0L0.077,-0.716L0.347,-0.716C0.395,-0.716 0.431,-0.714 0.456,-0.709C0.491,-0.703 0.521,-0.692 0.544,-0.676C0.568,-0.659 0.587,-0.636 0.602,-0.606C0.616,-0.577 0.624,-0.544 0.624,-0.509C0.624,-0.448 0.604,-0.396 0.565,-0.354C0.527,-0.312 0.457,-0.291 0.355,-0.291L0.172,-0.291L0.172,0L0.077,0ZM0.172,-0.375L0.357,-0.375C0.418,-0.375 0.462,-0.387 0.487,-0.41C0.513,-0.432 0.526,-0.465 0.526,-0.506C0.526,-0.536 0.518,-0.561 0.503,-0.583C0.488,-0.604 0.468,-0.618 0.443,-0.625C0.427,-0.629 0.398,-0.631 0.355,-0.631L0.172,-0.631L0.172,-0.375Z" style="fill:rgb(244,99,11);fill-rule:nonzero;"/>
            </g>
        </g>
        <g transform="matrix(1,0,0,1,43.8206,0)">
            <rect x="67.929" y="1.841" width="9.313" height="41.026" style="fill:rgb(36,45,90);"/>
        </g>
        <path d="M195.588,1.841L204.901,1.841L204.901,20.664L217.588,1.841L228.901,1.841L215.495,21.868L231.369,42.868L219.056,42.868L204.901,23.006L204.901,42.868L195.588,42.868L195.588,1.841Z" style="fill:rgb(36,45,90);"/>
        <path d="M168.101,42.868L148.766,17.017L148.766,42.868L139.453,42.868L139.453,1.841L148.766,1.841L148.766,1.935L168.101,27.786L168.101,1.841L177.413,1.841L177.413,42.868L168.101,42.868Z" style="fill:rgb(36,45,90);"/>
        <path d="M67.929,1.841L77.242,1.841L77.242,35.671L96.458,35.671L96.458,42.868L67.929,42.868L67.929,1.841Z" style="fill:rgb(36,45,90);"/>
    </g>
</svg>
