<?xml version="1.0" encoding="UTF-8" standalone="no"?>
<svg
   xmlns:dc="http://purl.org/dc/elements/1.1/"
   xmlns:cc="http://creativecommons.org/ns#"
   xmlns:rdf="http://www.w3.org/1999/02/22-rdf-syntax-ns#"
   xmlns:svg="http://www.w3.org/2000/svg"
   xmlns="http://www.w3.org/2000/svg"
   id="svg3760"
   version="1.1"
   viewBox="0 0 77.753944 48.087021"
   height="48.087021mm"
   width="77.753944mm">
  <defs
     id="defs3754" />
  <metadata
     id="metadata3757">
    <rdf:RDF>
      <cc:Work
         rdf:about="">
        <dc:format>image/svg+xml</dc:format>
        <dc:type
           rdf:resource="http://purl.org/dc/dcmitype/StillImage" />
        <dc:title></dc:title>
      </cc:Work>
    </rdf:RDF>
  </metadata>
  <g
     transform="translate(-79.790696,-35.754781)"
     id="layer1">
    <g
       transform="translate(2.1381562,-2.9399648)"
       id="g4481">
      <g
         style="clip-rule:evenodd;fill-rule:evenodd;stroke-linejoin:round;stroke-miterlimit:2"
         id="g4443"
         transform="matrix(0.26458333,0,0,0.26458333,84.4452,44.991729)">
        <g
           id="g1068"
           transform="translate(-70.579432,-68.719506)"><g
   transform="matrix(0.39703779,0,0,0.39703779,208.41492,68.94143)"
   id="g1014">
  <path
     id="rect198"
     d="M 0,-0.18099548 H 268.23529 V 99.999997 H 0 Z"
     style="opacity:1;fill:#005eb8;fill-opacity:1;stroke:#ffffff;stroke-width:0.75590551;stroke-linecap:butt;stroke-linejoin:round;stroke-miterlimit:4;stroke-dasharray:none;stroke-opacity:1" />
  <g
     transform="matrix(6.50887,0,0,6.50887,5.2420193,-1.5105724)"
     id="g188"
     style="fill:#ffffff;fill-opacity:1">
        <path
   d="m 3.9,1.5 h 4.4 l 2.6,9 H 11 l 1.8,-9 h 3.3 l -2.8,13 H 9 L 6.3,5.5 H 6.2 l -1.8,9 H 1.1 m 16.2,-13 h 3.6 l -1,4.9 h 4 L 25,1.5 h 3.5 l -2.7,13 h -3.5 l 1.1,-5.6 h -4.1 l -1.2,5.6 H 14.7 M 37.7,4.4 C 37,4.1 36.1,3.8 34.8,3.8 c -1.4,0 -2.5,0.2 -2.5,1.3 0,1.8 5.1,1.2 5.1,5.1 0,3.6 -3.3,4.5 -6.4,4.5 -1.3,0 -2.9,-0.3 -4,-0.7 l 0.8,-2.7 c 0.7,0.4 2.1,0.7 3.2,0.7 1.1,0 2.8,-0.2 2.8,-1.5 0,-2.1 -5.1,-1.3 -5.1,-5 0,-3.4 2.9,-4.4 5.8,-4.4 1.6,0 3.1,0.2 4,0.6"
   style="fill:#ffffff;fill-opacity:1;fill-rule:nonzero"
   id="path186" />

    </g>
</g>


<g
   id="text1054"
   style="font-style:normal;font-variant:normal;font-weight:bold;font-stretch:normal;font-size:20px;line-height:1.25;font-family:Frutiger;-inkscape-font-specification:'Frutiger Bold';letter-spacing:0.31000009px;word-spacing:0px;fill:#005eb8;fill-opacity:1;stroke:none"
   aria-label="NHS Foundation Trust">
  <path
     id="path265"
     d="m 122.64612,200.54349 h -3.24219 l -4.375,-8.05664 q -0.41992,-0.76172 -1.10351,-2.36328 0.30273,2.08007 0.30273,3.4375 v 6.98242 h -2.55859 v -13.33985 h 3.17382 l 4.48243,8.07618 q 0.23437,0.42968 0.30273,0.61523 0.0781,0.18555 0.2832,0.70313 0.20508,0.51757 0.41993,1.04492 -0.24415,-1.39649 -0.24415,-3.26172 v -7.17774 h 2.5586 z" />
  <path
     id="path267"
     d="m 136.86237,200.54349 h -2.68555 v -5.74219 h -5.32226 v 5.74219 h -2.69532 v -13.33985 h 2.69532 v 5.41993 h 5.32226 v -5.41993 h 2.68555 z" />
  <path
     id="path269"
     d="m 140.16065,200.24075 0.24414,-2.39257 q 1.58203,0.85937 3.01758,0.85937 0.92773,0 1.62109,-0.45898 0.70313,-0.45899 0.70313,-1.34766 0,-0.89844 -0.59571,-1.2793 -0.58593,-0.38086 -2.13867,-1.04492 -1.55273,-0.67383 -2.33398,-1.49414 -0.77149,-0.83008 -0.77149,-2.36328 0,-1.2793 0.64454,-2.12891 0.65429,-0.85937 1.71875,-1.25976 1.07421,-0.41016 2.33398,-0.41016 1.68945,0 3.18359,0.52734 l -0.22461,2.19727 q -1.45507,-0.66406 -2.76367,-0.66406 -0.85937,0 -1.5039,0.39062 -0.63477,0.38086 -0.63477,1.21094 0,0.79102 0.47852,1.08398 0.47851,0.29297 2.16796,1.04493 1.69922,0.74218 2.5,1.59179 0.80079,0.83985 0.80079,2.36328 0,1.08399 -0.40039,1.875 -0.4004,0.79102 -1.11329,1.3086 -0.70312,0.50781 -1.62109,0.75195 -0.9082,0.24414 -1.93359,0.24414 -1.6211,0 -3.37891,-0.60547 z" />
  <path
     id="path271"
     d="m 160.05799,194.76224 v 5.78125 h -2.71484 v -13.33985 h 7.40234 v 2.19727 h -4.70703 v 3.16406 h 4.52149 v 2.19727 z" />
  <path
     id="path273"
     d="m 176.8719,195.68021 q 0,1.14257 -0.3711,2.09961 -0.37109,0.94726 -1.05468,1.62109 -0.67383,0.66406 -1.6211,1.03516 -0.94726,0.37109 -2.10937,0.37109 -1.5332,0 -2.69531,-0.66406 -1.16211,-0.66407 -1.79688,-1.875 -0.625,-1.21094 -0.625,-2.72461 0,-1.51367 0.64453,-2.68555 0.64453,-1.17187 1.80664,-1.81641 1.17188,-0.65429 2.68555,-0.65429 1.17187,0 2.11914,0.39062 0.95703,0.39063 1.63086,1.11328 0.67383,0.71289 1.02539,1.67969 0.36133,0.9668 0.36133,2.10938 z m -2.65625,-0.0586 q 0,-0.80078 -0.26367,-1.57226 -0.25391,-0.77149 -0.82032,-1.26953 -0.5664,-0.49805 -1.39648,-0.49805 -0.79102,0 -1.36719,0.48828 -0.5664,0.48828 -0.83984,1.25 -0.27344,0.75195 -0.27344,1.52344 0,0.83008 0.25391,1.60156 0.26367,0.77148 0.83008,1.26953 0.5664,0.48828 1.43554,0.48828 0.61524,0 1.08399,-0.29297 0.46875,-0.30273 0.76172,-0.76171 0.29296,-0.46875 0.43945,-1.04493 0.15625,-0.58593 0.15625,-1.18164 z" />
  <path
     id="path275"
     d="m 188.1194,190.64114 v 6.04493 q 0.0195,0.41992 0.0391,1.29882 0.0293,0.87891 0.0488,1.40625 0.0195,0.52735 0.0586,1.15235 h -2.42187 l -0.0781,-1.52344 q -0.34179,0.53711 -0.83007,0.9082 -0.47852,0.3711 -1.08399,0.57618 -0.60547,0.19531 -1.21094,0.19531 -1.37695,0 -2.14843,-0.56641 -0.77149,-0.5664 -1.06446,-1.55273 -0.2832,-0.98633 -0.2832,-2.35352 v -5.58594 h 2.55859 v 4.76563 q 0,0.92773 0.0879,1.57226 0.0976,0.63477 0.49804,1.11329 0.40039,0.46875 1.21094,0.46875 1.16211,0 1.61133,-0.97657 0.44922,-0.98632 0.44922,-2.30468 v -4.63868 z" />
  <path
     id="path277"
     d="m 193.57588,190.64114 0.0586,1.58204 q 1.1914,-1.73829 3.33984,-1.73829 1.99219,0 2.68555,1.18164 0.69336,1.17188 0.69336,3.30079 v 5.57617 h -2.5586 v -4.98047 q 0,-1.31836 -0.34179,-2.13867 -0.33204,-0.82032 -1.45508,-0.82032 -1.20117,0 -1.68946,0.9668 -0.48828,0.95703 -0.48828,2.27539 v 4.69727 h -2.56836 v -6.29883 q 0,-2.09961 -0.0976,-3.60352 z" />
  <path
     id="path279"
     d="m 212.30386,200.54349 h -2.42188 l -0.0391,-1.67969 q -0.43945,0.88867 -1.25977,1.36719 -0.81054,0.46875 -1.83593,0.46875 -1.07422,0 -1.88477,-0.41992 -0.80078,-0.42969 -1.29883,-1.15235 -0.49805,-0.72265 -0.74219,-1.64062 -0.23437,-0.91797 -0.23437,-1.92383 0,-1.32813 0.43945,-2.49024 0.43946,-1.17187 1.35742,-1.88476 0.92774,-0.72266 2.30469,-0.72266 1.03516,0 1.80664,0.45899 0.77149,0.45898 1.26953,1.35742 -0.0977,-0.72266 -0.0977,-1.75781 v -4.38477 h 2.55859 v 11.52344 q 0.0195,0.95703 0.0293,1.67969 0.0195,0.72265 0.0488,1.20117 z m -2.59766,-4.88281 q 0,-0.77149 -0.24414,-1.45508 -0.24414,-0.69336 -0.77149,-1.14258 -0.51757,-0.45899 -1.28906,-0.45899 -1.15234,0 -1.66015,0.88868 -0.49805,0.8789 -0.49805,2.1289 0,1.17188 0.55664,2.11914 0.55664,0.94727 1.64062,0.94727 0.73243,0 1.25,-0.43945 0.52735,-0.44922 0.77149,-1.13282 0.24414,-0.69336 0.24414,-1.45507 z" />
  <path
     id="path281"
     d="m 223.47323,200.54349 h -2.28516 l -0.0391,-1.48438 q -0.45898,0.79102 -1.28906,1.22071 -0.82032,0.41992 -1.78711,0.41992 -0.98633,0 -1.76758,-0.3418 -0.77148,-0.3418 -1.2207,-1.03516 -0.44922,-0.70312 -0.44922,-1.69921 0,-1.85547 1.45508,-2.53907 1.45507,-0.68359 3.54492,-0.68359 0.30273,0 0.39062,0.01 0.0879,0 0.39063,0.0195 0.30273,0.01 0.61523,0.0293 0,-1.10351 -0.53711,-1.64062 -0.53711,-0.53711 -1.66015,-0.53711 -1.69922,0 -3.06641,1.08398 l -0.0781,-2.22656 q 1.59179,-0.67383 3.44726,-0.67383 0.69336,0 1.37695,0.13672 0.6836,0.13672 1.25977,0.45899 0.58594,0.3125 0.9668,0.83984 0.39062,0.52734 0.50781,1.21094 0.12695,0.67383 0.12695,1.61133 0,0.96679 0,1.94335 0.01,0.97657 0.0195,1.78711 0.0195,0.80079 0.0781,2.08985 z m -2.40235,-4.50196 q -0.0976,-0.0195 -0.30273,-0.0195 h -0.3125 q -0.83984,0 -1.54297,0.0977 -0.69336,0.0879 -1.2207,0.46875 -0.51758,0.37109 -0.51758,1.09375 0,0.58594 0.45898,0.9375 0.46875,0.3418 1.08399,0.3418 1.16211,0 1.75781,-0.85938 0.5957,-0.85937 0.5957,-2.06055 z" />
  <path
     id="path283"
     d="m 231.82034,198.42435 0.0879,2.00195 q -0.97657,0.19531 -1.72852,0.19531 -1.25977,0 -1.99219,-0.45898 -0.73242,-0.46875 -1.02539,-1.31836 -0.29297,-0.85938 -0.29297,-2.09961 v -4.14063 h -1.86523 v -1.90429 h 1.9043 v -2.01172 l 2.55859,-0.83984 v 2.85156 h 2.25586 v 1.90429 h -2.25586 v 3.60352 q 0,1.15234 0.24414,1.75781 0.25391,0.59571 1.23047,0.59571 0.36133,0 0.87891,-0.13672 z" />
  <path
     id="path285"
     d="m 236.53464,200.54349 h -2.5586 v -9.90235 h 2.5586 z m 0.0391,-11.69922 h -2.63672 v -2.42188 h 2.63672 z" />
  <path
     id="path287"
     d="m 249.13956,195.68021 q 0,1.14257 -0.3711,2.09961 -0.37109,0.94726 -1.05468,1.62109 -0.67383,0.66406 -1.6211,1.03516 -0.94726,0.37109 -2.10937,0.37109 -1.53321,0 -2.69532,-0.66406 -1.1621,-0.66407 -1.79687,-1.875 -0.625,-1.21094 -0.625,-2.72461 0,-1.51367 0.64453,-2.68555 0.64453,-1.17187 1.80664,-1.81641 1.17188,-0.65429 2.68555,-0.65429 1.17187,0 2.11914,0.39062 0.95703,0.39063 1.63086,1.11328 0.67383,0.71289 1.02539,1.67969 0.36133,0.9668 0.36133,2.10938 z m -2.65625,-0.0586 q 0,-0.80078 -0.26367,-1.57226 -0.25391,-0.77149 -0.82032,-1.26953 -0.5664,-0.49805 -1.39648,-0.49805 -0.79102,0 -1.36719,0.48828 -0.56641,0.48828 -0.83984,1.25 -0.27344,0.75195 -0.27344,1.52344 0,0.83008 0.25391,1.60156 0.26367,0.77148 0.83007,1.26953 0.56641,0.48828 1.43555,0.48828 0.61524,0 1.08399,-0.29297 0.46875,-0.30273 0.76171,-0.76171 0.29297,-0.46875 0.43946,-1.04493 0.15625,-0.58593 0.15625,-1.18164 z" />
  <path
     id="path289"
     d="m 253.91245,190.64114 0.0586,1.58204 q 1.19141,-1.73829 3.33984,-1.73829 1.99219,0 2.68555,1.18164 0.69336,1.17188 0.69336,3.30079 v 5.57617 h -2.55859 v -4.98047 q 0,-1.31836 -0.3418,-2.13867 -0.33203,-0.82032 -1.45508,-0.82032 -1.20117,0 -1.68945,0.9668 -0.48828,0.95703 -0.48828,2.27539 v 4.69727 h -2.56836 v -6.29883 q 0,-2.09961 -0.0977,-3.60352 z" />
  <path
     id="path291"
     d="m 274.74728,200.54349 h -2.69531 v -11.14258 h -3.80859 v -2.19727 h 10.34179 v 2.19727 h -3.83789 z" />
  <path
     id="path293"
     d="m 283.03581,200.54349 h -2.55859 v -6.92383 q -0.0488,-2.4707 -0.0781,-2.97852 h 2.32422 l 0.0586,2.5 q 0.33203,-1.17187 1.00586,-1.875 0.68359,-0.70312 1.77734,-0.70312 0.33203,0 0.75195,0.0977 v 2.40234 q -0.50781,-0.13672 -0.89844,-0.13672 -0.9082,0 -1.44531,0.47852 -0.53711,0.47851 -0.74219,1.23046 -0.19531,0.74219 -0.19531,1.63086 v 0.19532 z" />
  <path
     id="path295"
     d="m 297.10558,190.64114 v 6.04493 q 0.0195,0.41992 0.0391,1.29882 0.0293,0.87891 0.0488,1.40625 0.0195,0.52735 0.0586,1.15235 h -2.42188 l -0.0781,-1.52344 q -0.3418,0.53711 -0.83008,0.9082 -0.47851,0.3711 -1.08398,0.57618 -0.60547,0.19531 -1.21094,0.19531 -1.37695,0 -2.14844,-0.56641 -0.77148,-0.5664 -1.06445,-1.55273 -0.2832,-0.98633 -0.2832,-2.35352 v -5.58594 h 2.55859 v 4.76563 q 0,0.92773 0.0879,1.57226 0.0977,0.63477 0.49805,1.11329 0.40039,0.46875 1.21093,0.46875 1.16211,0 1.61133,-0.97657 0.44922,-0.98632 0.44922,-2.30468 v -4.63868 z" />
  <path
     id="path297"
     d="m 299.70073,200.27982 0.11719,-2.15821 q 1.36718,0.70313 2.51953,0.70313 0.63476,0 1.20117,-0.27344 0.56641,-0.27344 0.56641,-0.84961 0,-0.49805 -0.81055,-0.84961 -0.81055,-0.35156 -1.63086,-0.69336 -0.81055,-0.34179 -1.40625,-0.95703 -0.5957,-0.61523 -0.5957,-1.71875 0,-1.05469 0.61523,-1.72851 0.625,-0.67383 1.58203,-0.97657 0.95703,-0.3125 1.98242,-0.3125 1.08399,0 2.44141,0.38086 l -0.18555,1.91406 q -1.1914,-0.38085 -2.09961,-0.38085 -0.66406,0 -1.23046,0.2246 -0.56641,0.22461 -0.56641,0.78125 0,0.47852 0.77148,0.80079 0.78125,0.3125 1.63086,0.63476 0.85938,0.3125 1.46485,0.94727 0.61523,0.625 0.61523,1.79687 0,1.06446 -0.5957,1.77735 -0.58594,0.71289 -1.52344,1.04492 -0.9375,0.33203 -1.98242,0.33203 -1.19141,0 -2.88086,-0.43945 z" />
  <path
     id="path299"
     d="m 314.59081,198.42435 0.0879,2.00195 q -0.97657,0.19531 -1.72852,0.19531 -1.25977,0 -1.99219,-0.45898 -0.73242,-0.46875 -1.02539,-1.31836 -0.29297,-0.85938 -0.29297,-2.09961 v -4.14063 h -1.86523 v -1.90429 h 1.9043 v -2.01172 l 2.55859,-0.83984 v 2.85156 h 2.25586 v 1.90429 h -2.25586 v 3.60352 q 0,1.15234 0.24414,1.75781 0.25391,0.59571 1.23047,0.59571 0.36133,0 0.87891,-0.13672 z" />
</g>

</g>
      </g>
      <g
         id="text4447"
         style="font-style:normal;font-variant:normal;font-weight:bold;font-stretch:normal;font-size:7.05555534px;line-height:1.25;font-family:Frutiger;-inkscape-font-specification:'Frutiger Bold';letter-spacing:0px;word-spacing:0px;fill:#000000;fill-opacity:1;stroke:none;stroke-width:0.26458332"
         aria-label="Liverpool Heart and
Chest Hospital">
        <path
           id="path4483"
           style="text-align:end;text-anchor:end;stroke-width:0.26458332"
           d="m 89.524835,62.306447 v 0.768256 h -2.787083 v -4.706 h 0.950847 v 3.937744 z" />
        <path
           id="path4485"
           style="text-align:end;text-anchor:end;stroke-width:0.26458332"
           d="m 91.006226,63.074703 h -0.902615 v -3.493327 h 0.902615 z m 0.01378,-4.127224 H 90.08983 v -0.854384 h 0.930176 z" />
        <path
           id="path4487"
           style="text-align:end;text-anchor:end;stroke-width:0.26458332"
           d="m 93.848429,63.074703 h -1.009413 l -1.305691,-3.493327 h 0.988743 l 0.585666,1.681207 q 0.230821,0.644233 0.282498,1.036974 0.08268,-0.416857 0.220486,-0.813043 l 0.627007,-1.905138 h 0.909505 z" />
        <path
           id="path4489"
           style="text-align:end;text-anchor:end;stroke-width:0.26458332"
           d="m 98.475193,62.144527 0.01378,0.782037 q -0.55466,0.241157 -1.198893,0.241157 -0.430637,0 -0.768256,-0.120579 -0.334174,-0.124023 -0.571886,-0.361735 -0.237712,-0.241156 -0.361735,-0.578776 -0.124023,-0.341064 -0.124023,-0.775146 0,-0.399631 0.113688,-0.733805 0.117133,-0.33762 0.334174,-0.582221 0.217041,-0.248047 0.53399,-0.385851 0.320394,-0.137804 0.72347,-0.137804 0.392741,0 0.692464,0.141249 0.299723,0.141249 0.485758,0.389296 0.189481,0.248047 0.282498,0.575331 0.09302,0.323839 0.09302,0.713134 0,0.0689 -0.0034,0.103353 -0.0034,0.03445 -0.0069,0.08613 -0.0034,0.05168 -0.01034,0.120578 h -2.349555 q 0.03445,0.413411 0.320394,0.644233 0.289388,0.230821 0.71658,0.230821 0.482313,0 1.085205,-0.3514 z m -0.613227,-1.150661 q -0.0069,-0.234267 -0.08613,-0.430637 -0.07579,-0.196371 -0.237712,-0.316949 -0.158474,-0.120578 -0.396186,-0.120578 -0.244602,0 -0.420302,0.120578 -0.172254,0.117133 -0.268717,0.313504 -0.09302,0.19637 -0.113688,0.434082 z" />
        <path
           id="path4491"
           style="text-align:end;text-anchor:end;stroke-width:0.26458332"
           d="m 100.37344,63.074703 h -0.902615 v -2.442572 q -0.01723,-0.87161 -0.02756,-1.050755 h 0.819935 l 0.0207,0.881945 q 0.11713,-0.413412 0.35484,-0.661458 0.24116,-0.248047 0.62701,-0.248047 0.11713,0 0.26527,0.03445 v 0.847493 q -0.17914,-0.04823 -0.31695,-0.04823 -0.32039,0 -0.50987,0.168809 -0.18948,0.16881 -0.26183,0.434083 -0.0689,0.261827 -0.0689,0.57533 v 0.0689 z" />
        <path
           id="path4493"
           style="text-align:end;text-anchor:end;stroke-width:0.26458332"
           d="m 103.02961,64.507863 h -0.90606 V 60.59768 q 0,-0.599447 -0.0344,-1.023194 h 0.86816 l 0.0138,0.551216 q 0.40308,-0.606337 1.14377,-0.606337 0.35829,0 0.62357,0.144694 0.26871,0.144694 0.44097,0.396186 0.1757,0.248047 0.25838,0.56844 0.0861,0.316949 0.0861,0.654569 0,0.499538 -0.14814,0.916395 -0.1447,0.416857 -0.47198,0.675239 -0.32728,0.254937 -0.83027,0.254937 -0.32728,0 -0.61322,-0.141249 -0.28595,-0.141249 -0.44787,-0.406521 0.0172,0.175699 0.0172,0.533989 z m 1.55718,-3.169488 q 0,-0.279053 -0.0724,-0.516764 -0.0689,-0.237712 -0.23771,-0.392741 -0.16536,-0.155029 -0.44441,-0.155029 -0.27217,0 -0.45476,0.158474 -0.18259,0.155029 -0.26527,0.403076 -0.0827,0.244602 -0.0827,0.509874 0,0.434082 0.18603,0.751031 0.18948,0.313504 0.59601,0.313504 0.26527,0 0.43752,-0.158475 0.17226,-0.161919 0.25494,-0.409966 0.0827,-0.251492 0.0827,-0.502984 z" />
        <path
           id="path4495"
           style="text-align:end;text-anchor:end;stroke-width:0.26458332"
           d="m 109.66486,61.359046 q 0,0.403076 -0.13091,0.740695 -0.13091,0.334174 -0.37207,0.571886 -0.23771,0.234267 -0.57189,0.36518 -0.33417,0.130914 -0.74414,0.130914 -0.54088,0 -0.95084,-0.234267 -0.40997,-0.234266 -0.6339,-0.661458 -0.22049,-0.427192 -0.22049,-0.961182 0,-0.533989 0.22738,-0.947401 0.22737,-0.413411 0.63734,-0.640788 0.41341,-0.230821 0.9474,-0.230821 0.41341,0 0.74759,0.137804 0.33762,0.137804 0.57533,0.392741 0.23771,0.251492 0.36173,0.592556 0.12747,0.341065 0.12747,0.744141 z m -0.93706,-0.02067 q 0,-0.282498 -0.093,-0.55466 -0.0896,-0.272163 -0.28939,-0.447863 -0.19981,-0.175699 -0.49265,-0.175699 -0.27905,0 -0.48231,0.172254 -0.19982,0.172255 -0.29628,0.440973 -0.0965,0.265272 -0.0965,0.537434 0,0.292833 0.0896,0.564996 0.093,0.272163 0.29283,0.447862 0.19982,0.172255 0.50643,0.172255 0.21704,0 0.38241,-0.103353 0.16536,-0.106798 0.26872,-0.268717 0.10335,-0.165365 0.15503,-0.368625 0.0551,-0.206706 0.0551,-0.416857 z" />
        <path
           id="path4497"
           style="text-align:end;text-anchor:end;stroke-width:0.26458332"
           d="m 113.80587,61.359046 q 0,0.403076 -0.13092,0.740695 -0.13091,0.334174 -0.37207,0.571886 -0.23771,0.234267 -0.57188,0.36518 -0.33418,0.130914 -0.74414,0.130914 -0.54088,0 -0.95085,-0.234267 -0.40997,-0.234266 -0.6339,-0.661458 -0.22048,-0.427192 -0.22048,-0.961182 0,-0.533989 0.22737,-0.947401 0.22738,-0.413411 0.63735,-0.640788 0.41341,-0.230821 0.9474,-0.230821 0.41341,0 0.74758,0.137804 0.33762,0.137804 0.57533,0.392741 0.23772,0.251492 0.36174,0.592556 0.12747,0.341065 0.12747,0.744141 z m -0.93707,-0.02067 q 0,-0.282498 -0.093,-0.55466 -0.0896,-0.272163 -0.28938,-0.447863 -0.19982,-0.175699 -0.49265,-0.175699 -0.27906,0 -0.48232,0.172254 -0.19981,0.172255 -0.29627,0.440973 -0.0965,0.265272 -0.0965,0.537434 0,0.292833 0.0896,0.564996 0.093,0.272163 0.29283,0.447862 0.19981,0.172255 0.50643,0.172255 0.21704,0 0.3824,-0.103353 0.16537,-0.106798 0.26872,-0.268717 0.10335,-0.165365 0.15503,-0.368625 0.0551,-0.206706 0.0551,-0.416857 z" />
        <path
           id="path4499"
           style="text-align:end;text-anchor:end;stroke-width:0.26458332"
           d="M 115.42162,63.074703 H 114.519 v -5.081515 h 0.90262 z" />
        <path
           id="path4501"
           style="text-align:end;text-anchor:end;stroke-width:0.26458332"
           d="m 122.18089,63.074703 h -0.9474 v -2.025716 h -1.87757 v 2.025716 h -0.95085 v -4.706 h 0.95085 v 1.912028 h 1.87757 v -1.912028 h 0.9474 z" />
        <path
           id="path4503"
           style="text-align:end;text-anchor:end;stroke-width:0.26458332"
           d="m 126.00839,62.144527 0.0138,0.782037 q -0.55466,0.241157 -1.19889,0.241157 -0.43064,0 -0.76825,-0.120579 -0.33418,-0.124023 -0.57189,-0.361735 -0.23771,-0.241156 -0.36174,-0.578776 -0.12402,-0.341064 -0.12402,-0.775146 0,-0.399631 0.11369,-0.733805 0.11713,-0.33762 0.33417,-0.582221 0.21704,-0.248047 0.53399,-0.385851 0.3204,-0.137804 0.72347,-0.137804 0.39274,0 0.69247,0.141249 0.29972,0.141249 0.48576,0.389296 0.18948,0.248047 0.28249,0.575331 0.093,0.323839 0.093,0.713134 0,0.0689 -0.003,0.103353 -0.003,0.03445 -0.007,0.08613 -0.003,0.05168 -0.0103,0.120578 h -2.34955 q 0.0345,0.413411 0.32039,0.644233 0.28939,0.230821 0.71658,0.230821 0.48231,0 1.0852,-0.3514 z m -0.61322,-1.150661 q -0.007,-0.234267 -0.0861,-0.430637 -0.0758,-0.196371 -0.23771,-0.316949 -0.15848,-0.120578 -0.39619,-0.120578 -0.2446,0 -0.4203,0.120578 -0.17225,0.117133 -0.26872,0.313504 -0.093,0.19637 -0.11368,0.434082 z" />
        <path
           id="path4505"
           style="text-align:end;text-anchor:end;stroke-width:0.26458332"
           d="m 129.89102,63.074703 h -0.80615 l -0.0138,-0.523654 q -0.16191,0.279052 -0.45475,0.430637 -0.28939,0.148139 -0.63045,0.148139 -0.34795,0 -0.62356,-0.120579 -0.27216,-0.120578 -0.43064,-0.36518 -0.15847,-0.248047 -0.15847,-0.599446 0,-0.654568 0.51332,-0.895725 0.51331,-0.241157 1.25057,-0.241157 0.10679,0 0.1378,0.0034 0.031,0 0.1378,0.0069 0.1068,0.0034 0.21704,0.01034 0,-0.389296 -0.18948,-0.578776 -0.18948,-0.18948 -0.58566,-0.18948 -0.59945,0 -1.08176,0.382405 l -0.0276,-0.785482 q 0.56155,-0.237711 1.21612,-0.237711 0.2446,0 0.48575,0.04823 0.24116,0.04823 0.44442,0.16192 0.20671,0.110243 0.34107,0.296278 0.1378,0.186035 0.17914,0.427192 0.0448,0.237711 0.0448,0.56844 0,0.341065 0,0.685574 0.003,0.34451 0.007,0.630453 0.007,0.282498 0.0276,0.73725 z m -0.8475,-1.588189 q -0.0344,-0.0069 -0.10679,-0.0069 h -0.11025 q -0.29628,0 -0.54432,0.03445 -0.2446,0.03101 -0.43064,0.165365 -0.18259,0.130913 -0.18259,0.38585 0,0.206706 0.16192,0.330729 0.16537,0.120579 0.38241,0.120579 0.40996,0 0.62011,-0.303169 0.21015,-0.303168 0.21015,-0.726915 z" />
        <path
           id="path4507"
           style="text-align:end;text-anchor:end;stroke-width:0.26458332"
           d="m 131.70314,63.074703 h -0.90262 v -2.442572 q -0.0172,-0.87161 -0.0276,-1.050755 h 0.81993 l 0.0207,0.881945 q 0.11714,-0.413412 0.35485,-0.661458 0.24116,-0.248047 0.62701,-0.248047 0.11713,0 0.26527,0.03445 v 0.847493 q -0.17915,-0.04823 -0.31695,-0.04823 -0.32039,0 -0.50987,0.168809 -0.18948,0.16881 -0.26183,0.434083 -0.0689,0.261827 -0.0689,0.57533 v 0.0689 z" />
        <path
           id="path4509"
           style="text-align:end;text-anchor:end;stroke-width:0.26458332"
           d="m 135.37217,62.327118 0.031,0.706244 q -0.34451,0.0689 -0.60978,0.0689 -0.44442,0 -0.7028,-0.16192 -0.25838,-0.165364 -0.36174,-0.465087 -0.10335,-0.303169 -0.10335,-0.740696 v -1.46072 h -0.65801 v -0.671794 h 0.67179 v -0.70969 l 0.90262,-0.296278 v 1.005968 h 0.79581 v 0.671794 h -0.79581 v 1.27124 q 0,0.406521 0.0861,0.620117 0.0896,0.210151 0.43409,0.210151 0.12747,0 0.31006,-0.04823 z" />
        <path
           id="path4511"
           style="text-align:end;text-anchor:end;stroke-width:0.26458332"
           d="m 140.8981,63.074703 h -0.80615 l -0.0138,-0.523654 q -0.16191,0.279052 -0.45475,0.430637 -0.28939,0.148139 -0.63045,0.148139 -0.34795,0 -0.62356,-0.120579 -0.27216,-0.120578 -0.43064,-0.36518 -0.15847,-0.248047 -0.15847,-0.599446 0,-0.654568 0.51332,-0.895725 0.51331,-0.241157 1.25057,-0.241157 0.10679,0 0.1378,0.0034 0.031,0 0.1378,0.0069 0.1068,0.0034 0.21704,0.01034 0,-0.389296 -0.18948,-0.578776 -0.18948,-0.18948 -0.58566,-0.18948 -0.59945,0 -1.08176,0.382405 l -0.0276,-0.785482 q 0.56155,-0.237711 1.21612,-0.237711 0.2446,0 0.48575,0.04823 0.24116,0.04823 0.44442,0.16192 0.20671,0.110243 0.34107,0.296278 0.1378,0.186035 0.17914,0.427192 0.0448,0.237711 0.0448,0.56844 0,0.341065 0,0.685574 0.003,0.34451 0.007,0.630453 0.007,0.282498 0.0276,0.73725 z m -0.8475,-1.588189 q -0.0344,-0.0069 -0.10679,-0.0069 h -0.11025 q -0.29627,0 -0.54432,0.03445 -0.2446,0.03101 -0.43064,0.165365 -0.18259,0.130913 -0.18259,0.38585 0,0.206706 0.16192,0.330729 0.16537,0.120579 0.38241,0.120579 0.40996,0 0.62011,-0.303169 0.21015,-0.303168 0.21015,-0.726915 z" />
        <path
           id="path4513"
           style="text-align:end;text-anchor:end;stroke-width:0.26458332"
           d="m 142.63442,59.581376 0.0207,0.558106 q 0.42031,-0.613227 1.17823,-0.613227 0.7028,0 0.9474,0.416857 0.2446,0.413411 0.2446,1.164442 v 1.967149 h -0.90261 v -1.756998 q 0,-0.465088 -0.12058,-0.754476 -0.11714,-0.289388 -0.51332,-0.289388 -0.42375,0 -0.596,0.341064 -0.17226,0.337619 -0.17226,0.802707 v 1.657091 h -0.90606 v -2.222086 q 0,-0.740696 -0.0344,-1.271241 z" />
        <path
           id="path4515"
           style="text-align:end;text-anchor:end;stroke-width:0.26458332"
           d="m 149.13188,63.074703 h -0.85439 l -0.0138,-0.592556 q -0.15503,0.313503 -0.44441,0.482313 -0.28595,0.165365 -0.64768,0.165365 -0.37896,0 -0.66491,-0.148139 -0.28249,-0.151585 -0.45819,-0.406522 -0.1757,-0.254937 -0.26183,-0.578776 -0.0827,-0.323839 -0.0827,-0.678683 0,-0.468533 0.15503,-0.8785 0.15503,-0.413411 0.47887,-0.664903 0.32728,-0.254937 0.81304,-0.254937 0.36518,0 0.63734,0.161919 0.27216,0.16192 0.44786,0.478869 -0.0345,-0.254938 -0.0345,-0.620118 v -1.546847 h 0.90262 V 62.0584 q 0.007,0.337619 0.0103,0.592556 0.007,0.254938 0.0172,0.423747 z m -0.9164,-1.722547 q 0,-0.272163 -0.0861,-0.51332 -0.0861,-0.244601 -0.27216,-0.403076 -0.18259,-0.161919 -0.45475,-0.161919 -0.40652,0 -0.58567,0.313503 -0.1757,0.310059 -0.1757,0.751031 0,0.413412 0.19637,0.747586 0.19637,0.334174 0.57878,0.334174 0.25838,0 0.44097,-0.155029 0.18604,-0.158475 0.27216,-0.399631 0.0861,-0.244602 0.0861,-0.513319 z" />
        <path
           id="path4517"
           style="text-align:end;text-anchor:end;stroke-width:0.26458332"
           d="m 107.65982,70.943301 0.0345,0.830268 q -0.58567,0.155029 -1.07143,0.155029 -0.55121,0 -1.01975,-0.144694 -0.46853,-0.144694 -0.82682,-0.440972 -0.35484,-0.299723 -0.54777,-0.740695 -0.18948,-0.440973 -0.18948,-1.016304 0,-0.57533 0.17226,-1.030083 0.17225,-0.454753 0.49954,-0.768256 0.33072,-0.316949 0.79237,-0.475423 0.46164,-0.158475 1.03353,-0.158475 0.50987,0 1.13688,0.203261 l -0.0758,0.806152 q -0.46509,-0.254937 -1.00942,-0.254937 -0.46164,0 -0.81304,0.199816 -0.3514,0.19637 -0.54088,0.551215 -0.18604,0.354845 -0.18604,0.816487 0,0.478869 0.19637,0.861274 0.19982,0.382406 0.565,0.592557 0.36518,0.210151 0.85438,0.210151 0.46509,0 0.99564,-0.196371 z" />
        <path
           id="path4519"
           style="text-align:end;text-anchor:end;stroke-width:0.26458332"
           d="m 111.51832,71.894147 h -0.90261 V 70.19916 q 0,-0.502983 -0.11024,-0.802707 -0.1068,-0.303168 -0.50988,-0.303168 -0.43408,0 -0.60978,0.35829 -0.1757,0.354845 -0.1757,0.833713 v 0.1757 1.433159 h -0.90262 v -5.081515 h 0.90262 v 2.084282 q 0.19637,-0.282497 0.47198,-0.420301 0.27561,-0.137804 0.63045,-0.137804 0.36863,0 0.60634,0.120578 0.24115,0.117134 0.36862,0.320394 0.13092,0.203261 0.17915,0.475423 0.0517,0.268718 0.0517,0.633898 z" />
        <path
           id="path4521"
           style="text-align:end;text-anchor:end;stroke-width:0.26458332"
           d="m 115.21491,70.963972 0.0138,0.782036 q -0.55466,0.241157 -1.19889,0.241157 -0.43064,0 -0.76826,-0.120578 -0.33417,-0.124024 -0.57188,-0.361735 -0.23772,-0.241157 -0.36174,-0.578776 -0.12402,-0.341065 -0.12402,-0.775147 0,-0.399631 0.11369,-0.733805 0.11713,-0.33762 0.33417,-0.582221 0.21704,-0.248047 0.53399,-0.385851 0.32039,-0.137804 0.72347,-0.137804 0.39274,0 0.69246,0.141249 0.29973,0.141249 0.48576,0.389296 0.18948,0.248047 0.2825,0.575331 0.093,0.323839 0.093,0.713135 0,0.0689 -0.003,0.103352 -0.003,0.03445 -0.007,0.08613 -0.003,0.05168 -0.0103,0.120578 h -2.34956 q 0.0344,0.413412 0.3204,0.644233 0.28938,0.230821 0.71658,0.230821 0.48231,0 1.0852,-0.351399 z m -0.61323,-1.150662 q -0.007,-0.234267 -0.0861,-0.430637 -0.0758,-0.196371 -0.23771,-0.316949 -0.15848,-0.120578 -0.39619,-0.120578 -0.2446,0 -0.4203,0.120578 -0.17226,0.117133 -0.26872,0.313504 -0.093,0.19637 -0.11369,0.434082 z" />
        <path
           id="path4523"
           style="text-align:end;text-anchor:end;stroke-width:0.26458332"
           d="m 116.02795,71.80113 0.0413,-0.761366 q 0.48232,0.248047 0.88884,0.248047 0.22393,0 0.42375,-0.09646 0.19981,-0.09646 0.19981,-0.299723 0,-0.1757 -0.28594,-0.299724 -0.28594,-0.124023 -0.57533,-0.244601 -0.28594,-0.120579 -0.4961,-0.33762 -0.21015,-0.217041 -0.21015,-0.606337 0,-0.37207 0.21704,-0.609781 0.22049,-0.237712 0.55811,-0.34451 0.33762,-0.110243 0.69935,-0.110243 0.38241,0 0.86128,0.134359 l -0.0655,0.675238 q -0.4203,-0.134358 -0.74069,-0.134358 -0.23427,0 -0.43409,0.07924 -0.19981,0.07924 -0.19981,0.275607 0,0.16881 0.27216,0.282498 0.27561,0.110243 0.57533,0.223932 0.30317,0.110243 0.51677,0.334174 0.21704,0.220486 0.21704,0.633897 0,0.375516 -0.21015,0.627008 -0.20671,0.251492 -0.53744,0.368625 -0.33073,0.117133 -0.69935,0.117133 -0.4203,0 -1.01631,-0.155029 z" />
        <path
           id="path4525"
           style="text-align:end;text-anchor:end;stroke-width:0.26458332"
           d="m 121.17148,71.146562 0.031,0.706244 q -0.34451,0.0689 -0.60978,0.0689 -0.44442,0 -0.7028,-0.161919 -0.25839,-0.165365 -0.36174,-0.465088 -0.10335,-0.303169 -0.10335,-0.740696 v -1.46072 h -0.65801 v -0.671794 h 0.67179 v -0.709689 l 0.90261,-0.296279 v 1.005968 h 0.79582 v 0.671794 h -0.79582 v 1.27124 q 0,0.406521 0.0861,0.620117 0.0896,0.210151 0.43408,0.210151 0.12747,0 0.31006,-0.04823 z" />
        <path
           id="path4527"
           style="text-align:end;text-anchor:end;stroke-width:0.26458332"
           d="m 127.66549,71.894147 h -0.94741 v -2.025716 h -1.87757 v 2.025716 h -0.95085 v -4.706 h 0.95085 v 1.912028 h 1.87757 v -1.912028 h 0.94741 z" />
        <path
           id="path4529"
           style="text-align:end;text-anchor:end;stroke-width:0.26458332"
           d="m 132.10621,70.17849 q 0,0.403076 -0.13091,0.740695 -0.13091,0.334175 -0.37207,0.571886 -0.23771,0.234267 -0.57189,0.36518 -0.33417,0.130914 -0.74414,0.130914 -0.54088,0 -0.95084,-0.234267 -0.40997,-0.234266 -0.6339,-0.661458 -0.22049,-0.427192 -0.22049,-0.961181 0,-0.53399 0.22738,-0.947402 0.22738,-0.413411 0.63734,-0.640787 0.41341,-0.230822 0.9474,-0.230822 0.41341,0 0.74759,0.137804 0.33762,0.137804 0.57533,0.392741 0.23771,0.251492 0.36173,0.592556 0.12747,0.341065 0.12747,0.744141 z m -0.93706,-0.02067 q 0,-0.282497 -0.093,-0.55466 -0.0896,-0.272163 -0.28939,-0.447862 -0.19981,-0.1757 -0.49265,-0.1757 -0.27905,0 -0.48231,0.172254 -0.19982,0.172255 -0.29628,0.440973 -0.0965,0.265272 -0.0965,0.537435 0,0.292833 0.0896,0.564995 0.093,0.272163 0.29283,0.447863 0.19982,0.172254 0.50643,0.172254 0.21704,0 0.38241,-0.103352 0.16536,-0.106798 0.26872,-0.268718 0.10335,-0.165365 0.15503,-0.368625 0.0551,-0.206706 0.0551,-0.416857 z" />
        <path
           id="path4531"
           style="text-align:end;text-anchor:end;stroke-width:0.26458332"
           d="m 132.67121,71.80113 0.0413,-0.761366 q 0.48231,0.248047 0.88883,0.248047 0.22394,0 0.42375,-0.09646 0.19982,-0.09646 0.19982,-0.299723 0,-0.1757 -0.28595,-0.299724 -0.28594,-0.124023 -0.57533,-0.244601 -0.28594,-0.120579 -0.49609,-0.33762 -0.21015,-0.217041 -0.21015,-0.606337 0,-0.37207 0.21704,-0.609781 0.22049,-0.237712 0.55811,-0.34451 0.33761,-0.110243 0.69935,-0.110243 0.38241,0 0.86127,0.134359 l -0.0654,0.675238 q -0.42031,-0.134358 -0.7407,-0.134358 -0.23427,0 -0.43408,0.07924 -0.19982,0.07924 -0.19982,0.275607 0,0.16881 0.27217,0.282498 0.2756,0.110243 0.57533,0.223932 0.30317,0.110243 0.51676,0.334174 0.21704,0.220486 0.21704,0.633897 0,0.375516 -0.21015,0.627008 -0.2067,0.251492 -0.53743,0.368625 -0.33073,0.117133 -0.69936,0.117133 -0.4203,0 -1.0163,-0.155029 z" />
        <path
           id="path4533"
           style="text-align:end;text-anchor:end;stroke-width:0.26458332"
           d="m 136.80188,73.327307 h -0.90606 v -3.910183 q 0,-0.599447 -0.0344,-1.023194 h 0.86816 l 0.0138,0.551216 q 0.40308,-0.606337 1.14377,-0.606337 0.35829,0 0.62357,0.144694 0.26871,0.144694 0.44097,0.396186 0.1757,0.248047 0.25838,0.568441 0.0861,0.316948 0.0861,0.654568 0,0.499539 -0.14814,0.916395 -0.1447,0.416857 -0.47198,0.675239 -0.32728,0.254937 -0.83027,0.254937 -0.32728,0 -0.61322,-0.141249 -0.28595,-0.141249 -0.44787,-0.406521 0.0172,0.1757 0.0172,0.53399 z m 1.55718,-3.169488 q 0,-0.279052 -0.0724,-0.516764 -0.0689,-0.237712 -0.23771,-0.392741 -0.16536,-0.155029 -0.44441,-0.155029 -0.27217,0 -0.45476,0.158474 -0.18259,0.15503 -0.26527,0.403076 -0.0827,0.244602 -0.0827,0.509875 0,0.434082 0.18603,0.75103 0.18948,0.313504 0.59601,0.313504 0.26527,0 0.43752,-0.158474 0.17226,-0.16192 0.25494,-0.409967 0.0827,-0.251492 0.0827,-0.502984 z" />
        <path
           id="path4535"
           style="text-align:end;text-anchor:end;stroke-width:0.26458332"
           d="m 140.91877,71.894147 h -0.90262 v -3.493326 h 0.90262 z m 0.0138,-4.127224 h -0.93018 v -0.854384 h 0.93018 z" />
        <path
           id="path4537"
           style="text-align:end;text-anchor:end;stroke-width:0.26458332"
           d="m 143.78853,71.146562 0.031,0.706244 q -0.34451,0.0689 -0.60978,0.0689 -0.44442,0 -0.7028,-0.161919 -0.25839,-0.165365 -0.36174,-0.465088 -0.10335,-0.303169 -0.10335,-0.740696 v -1.46072 h -0.65801 v -0.671794 h 0.67179 v -0.709689 l 0.90261,-0.296279 v 1.005968 h 0.79582 v 0.671794 h -0.79582 v 1.27124 q 0,0.406521 0.0861,0.620117 0.0896,0.210151 0.43408,0.210151 0.12747,0 0.31006,-0.04823 z" />
        <path
           id="path4539"
           style="text-align:end;text-anchor:end;stroke-width:0.26458332"
           d="m 147.35421,71.894147 h -0.80616 l -0.0138,-0.523654 q -0.16192,0.279053 -0.45475,0.430637 -0.28939,0.148139 -0.63045,0.148139 -0.34796,0 -0.62356,-0.120578 -0.27217,-0.120579 -0.43064,-0.365181 -0.15848,-0.248046 -0.15848,-0.599446 0,-0.654568 0.51332,-0.895725 0.51332,-0.241157 1.25057,-0.241157 0.1068,0 0.13781,0.0034 0.031,0 0.1378,0.0069 0.1068,0.0034 0.21704,0.01034 0,-0.389296 -0.18948,-0.578776 -0.18948,-0.18948 -0.58566,-0.18948 -0.59945,0 -1.08176,0.382405 l -0.0276,-0.785481 q 0.56156,-0.237712 1.21612,-0.237712 0.24461,0 0.48576,0.04823 0.24116,0.04823 0.44442,0.16192 0.2067,0.110243 0.34106,0.296278 0.13781,0.186035 0.17915,0.427192 0.0448,0.237711 0.0448,0.568441 0,0.341064 0,0.685574 0.003,0.344509 0.007,0.630452 0.007,0.282498 0.0276,0.73725 z m -0.8475,-1.588189 q -0.0344,-0.0069 -0.1068,-0.0069 h -0.11024 q -0.29628,0 -0.54432,0.03445 -0.24461,0.03101 -0.43064,0.165365 -0.18259,0.130913 -0.18259,0.38585 0,0.206706 0.16192,0.33073 0.16536,0.120578 0.3824,0.120578 0.40997,0 0.62012,-0.303168 0.21015,-0.303169 0.21015,-0.726916 z" />
        <path
           id="path4541"
           style="text-align:end;text-anchor:end;stroke-width:0.26458332"
           d="m 149.13188,71.894147 h -0.90262 v -5.081515 h 0.90262 z" />
      </g>
    </g>
  </g>
</svg>
