<?xml version="1.0" encoding="UTF-8" standalone="no"?>
<svg
   xmlns:dc="http://purl.org/dc/elements/1.1/"
   xmlns:cc="http://creativecommons.org/ns#"
   xmlns:rdf="http://www.w3.org/1999/02/22-rdf-syntax-ns#"
   xmlns:svg="http://www.w3.org/2000/svg"
   xmlns="http://www.w3.org/2000/svg"
   xmlns:sodipodi="http://sodipodi.sourceforge.net/DTD/sodipodi-0.dtd"
   xmlns:inkscape="http://www.inkscape.org/namespaces/inkscape"
   id="svg1381"
   version="1.1"
   viewBox="0 0 70 55"
   height="55mm"
   width="70mm"
   sodipodi:docname="liverpool-heart-and-chest-nhs.svg.svg"
   inkscape:version="0.92.5 (2060ec1f9f, 2020-04-08)">
  <sodipodi:namedview
     pagecolor="#ffffff"
     bordercolor="#666666"
     borderopacity="1"
     objecttolerance="10"
     gridtolerance="10"
     guidetolerance="10"
     inkscape:pageopacity="0"
     inkscape:pageshadow="2"
     inkscape:window-width="2800"
     inkscape:window-height="1672"
     id="namedview3595"
     showgrid="false"
     inkscape:zoom="3.2111218"
     inkscape:cx="236.95149"
     inkscape:cy="132.22206"
     inkscape:window-x="80"
     inkscape:window-y="54"
     inkscape:window-maximized="1"
     inkscape:current-layer="svg1381" />
  <defs
     id="defs1375" />
  <metadata
     id="metadata1378">
    <rdf:RDF>
      <cc:Work
         rdf:about="">
        <dc:format>image/svg+xml</dc:format>
        <dc:type
           rdf:resource="http://purl.org/dc/dcmitype/StillImage" />
        <dc:title></dc:title>
      </cc:Work>
    </rdf:RDF>
  </metadata>
  <g
     transform="translate(-57.916527,-31.18254)"
     id="g1259-6-5-1">
    <path
       style="opacity:1;fill:#196fc1;fill-opacity:1;stroke:none;stroke-width:13.22916603;stroke-linecap:round;stroke-linejoin:round;stroke-miterlimit:2;stroke-dasharray:none;stroke-dashoffset:0;stroke-opacity:1;paint-order:normal"
       d="M 81.578247,35.868095 H 124.2471 V 61.280302 H 81.578247 Z"
       id="rect1207-7-6-2"
       inkscape:connector-curvature="0" />
    <path
       style="opacity:1;fill:#ffffff;fill-opacity:1;stroke:none;stroke-width:13.22916603;stroke-linecap:round;stroke-linejoin:round;stroke-miterlimit:2;stroke-dasharray:none;stroke-dashoffset:0;stroke-opacity:1;paint-order:normal"
       d="M 82.369675,40.641895 H 123.39111 V 57.160528 H 82.369675 Z"
       id="rect1211-5-2-7"
       inkscape:connector-curvature="0" />
    <path
       id="path16-3-9-0"
       style="fill:#196fc1;fill-opacity:1;fill-rule:nonzero;stroke:none;stroke-width:0.03527778"
       d="M 124.21242,40.311164 H 81.548361 v 17.180092 h 42.664059 z m -25.510429,1.657624 -2.94534,13.828277 h -4.62195 l -2.90574,-9.568559 h -0.039 l -1.93319,9.568559 h -3.50515 l 2.96877,-13.828277 h 4.63771 l 2.84837,9.588963 h 0.0392 l 1.95137,-9.588963 z m 13.219369,0 -2.88756,13.828277 h -3.72193 l 1.23438,-5.922595 h -4.40214 l -1.23459,5.922595 h -3.722119 l 2.887959,-13.828277 h 3.72193 l -1.09337,5.290254 h 4.39992 l 1.0956,-5.290254 z m 10.69304,0.377182 -0.8972,2.753413 c -0.71659,-0.335969 -1.69258,-0.632543 -3.06555,-0.632543 -1.47257,0 -2.66816,0.215764 -2.66816,1.327109 0,1.959652 5.39612,1.228318 5.39612,5.428439 0,3.822533 -3.56515,4.81428 -6.7903,4.81428 -1.43317,0 -3.08655,-0.338798 -4.29992,-0.715778 l 0.87619,-2.81301 c 0.73497,0.476175 2.21037,0.79376 3.42373,0.79376 1.1564,0 2.96615,-0.218795 2.96615,-1.644694 0,-2.21966 -5.39591,-1.387111 -5.39591,-5.287829 0,-3.56778 3.14696,-4.637306 6.19351,-4.637306 1.71359,0 3.32514,0.1796 4.26134,0.614159"
       inkscape:connector-curvature="0" />
  </g>
  <g
     aria-label="NHS Foundation Trust"
     transform="matrix(1.000319,0,0,0.99968111,-57.916532,-218.43698)"
     style="font-style:normal;font-variant:normal;font-weight:normal;font-stretch:normal;font-size:6.28654957px;line-height:1.25;font-family:Frutiger;-inkscape-font-specification:Frutiger;letter-spacing:0px;word-spacing:0px;fill:#196fc1;fill-opacity:1;stroke:none;stroke-width:0.26458338"
     id="text1335-9">
    <path
       d="m 65.016551,268.742 h -1.019109 l -1.375182,-2.53242 q -0.131993,-0.23943 -0.346866,-0.74284 0.09516,0.65382 0.09516,1.0805 v 2.19476 h -0.804236 v -4.19308 h 0.997621 l 1.408948,2.53857 q 0.07367,0.13506 0.09516,0.19338 0.02456,0.0583 0.08902,0.22101 0.06446,0.16269 0.131993,0.32845 -0.07674,-0.43895 -0.07674,-1.02525 v -2.25616 h 0.804236 z"
       style="font-style:normal;font-variant:normal;font-weight:bold;font-stretch:normal;font-family:Frutiger;-inkscape-font-specification:'Frutiger Bold';fill:#196fc1;fill-opacity:1;stroke-width:0.26458338"
       id="path4199"
       inkscape:connector-curvature="0" />
    <path
       d="m 69.387668,268.742 h -0.844142 v -1.80492 h -1.672934 v 1.80492 h -0.847211 v -4.19308 h 0.847211 v 1.70364 h 1.672934 v -1.70364 h 0.844142 z"
       style="font-style:normal;font-variant:normal;font-weight:bold;font-stretch:normal;font-family:Frutiger;-inkscape-font-specification:'Frutiger Bold';fill:#196fc1;fill-opacity:1;stroke-width:0.26458338"
       id="path4201"
       inkscape:connector-curvature="0" />
    <path
       d="m 70.326966,268.64685 0.07674,-0.75206 q 0.497276,0.27013 0.948508,0.27013 0.291613,0 0.509554,-0.14427 0.221012,-0.14427 0.221012,-0.42361 0,-0.2824 -0.187246,-0.40212 -0.184176,-0.11971 -0.672243,-0.32844 -0.488067,-0.21181 -0.733636,-0.46965 -0.242498,-0.26092 -0.242498,-0.74285 0,-0.40212 0.202593,-0.66917 0.205664,-0.27013 0.540251,-0.39598 0.337656,-0.12892 0.733635,-0.12892 0.531042,0 1.000691,0.16576 l -0.0706,0.69066 q -0.457371,-0.20874 -0.868698,-0.20874 -0.270125,0 -0.472719,0.12279 -0.199524,0.11971 -0.199524,0.38063 0,0.24864 0.150411,0.34072 0.15041,0.0921 0.681452,0.32845 0.534111,0.23329 0.785818,0.50035 0.251708,0.26398 0.251708,0.74284 0,0.34073 -0.125854,0.58937 -0.125854,0.24863 -0.349935,0.41132 -0.221011,0.15962 -0.509554,0.23636 -0.285473,0.0767 -0.607782,0.0767 -0.509554,0 -1.062083,-0.19031 z"
       style="font-style:normal;font-variant:normal;font-weight:bold;font-stretch:normal;font-family:Frutiger;-inkscape-font-specification:'Frutiger Bold';fill:#196fc1;fill-opacity:1;stroke-width:0.26458338"
       id="path4203"
       inkscape:connector-curvature="0" />
    <path
       d="m 76.386365,266.9248 v 1.8172 h -0.85335 v -4.19308 h 2.32676 v 0.69067 h -1.479549 v 0.99455 h 1.421227 v 0.69066 z"
       style="font-style:normal;font-variant:normal;font-weight:bold;font-stretch:normal;font-family:Frutiger;-inkscape-font-specification:'Frutiger Bold';fill:#196fc1;fill-opacity:1;stroke-width:0.26458338"
       id="path4205"
       inkscape:connector-curvature="0" />
    <path
       d="m 81.573997,267.21334 q 0,0.35915 -0.116645,0.65997 -0.116645,0.29775 -0.331517,0.50955 -0.211803,0.20873 -0.509555,0.32538 -0.297751,0.11664 -0.663034,0.11664 -0.481928,0 -0.847211,-0.20873 -0.365283,-0.20873 -0.564807,-0.58936 -0.196455,-0.38063 -0.196455,-0.85642 0,-0.47579 0.202594,-0.84414 0.202594,-0.36836 0.567877,-0.57095 0.368352,-0.20566 0.844141,-0.20566 0.368352,0 0.666104,0.12278 0.300821,0.12278 0.512624,0.34994 0.211803,0.22408 0.322308,0.52797 0.113576,0.30389 0.113576,0.66303 z m -0.834933,-0.0184 q 0,-0.2517 -0.08288,-0.4942 -0.07981,-0.2425 -0.257847,-0.39905 -0.178037,-0.15655 -0.438953,-0.15655 -0.248638,0 -0.429745,0.15348 -0.178037,0.15348 -0.263986,0.39291 -0.08595,0.23636 -0.08595,0.47886 0,0.26091 0.07981,0.50341 0.08288,0.2425 0.260917,0.39905 0.178037,0.15348 0.451231,0.15348 0.193385,0 0.340726,-0.0921 0.147341,-0.0952 0.23943,-0.23943 0.09209,-0.14734 0.138132,-0.32844 0.04911,-0.18418 0.04911,-0.37143 z"
       style="font-style:normal;font-variant:normal;font-weight:bold;font-stretch:normal;font-family:Frutiger;-inkscape-font-specification:'Frutiger Bold';fill:#196fc1;fill-opacity:1;stroke-width:0.26458338"
       id="path4207"
       inkscape:connector-curvature="0" />
    <path
       d="m 85.011954,265.62943 v 1.90008 q 0.0061,0.13199 0.01228,0.40826 0.0092,0.27626 0.01535,0.44202 0.0061,0.16576 0.01842,0.36221 h -0.761262 l -0.02456,-0.47885 q -0.107436,0.16882 -0.260916,0.28547 -0.150411,0.11664 -0.340726,0.18111 -0.190315,0.0614 -0.380631,0.0614 -0.432814,0 -0.675313,-0.17804 -0.242499,-0.17804 -0.334587,-0.48807 -0.08902,-0.31003 -0.08902,-0.73977 v -1.75581 h 0.804236 v 1.49796 q 0,0.29161 0.02763,0.49421 0.0307,0.19952 0.156549,0.34993 0.125854,0.14734 0.380631,0.14734 0.365283,0 0.506485,-0.30696 0.141202,-0.31003 0.141202,-0.72442 v -1.45806 z"
       style="font-style:normal;font-variant:normal;font-weight:bold;font-stretch:normal;font-family:Frutiger;-inkscape-font-specification:'Frutiger Bold';fill:#196fc1;fill-opacity:1;stroke-width:0.26458338"
       id="path4209"
       inkscape:connector-curvature="0" />
    <path
       d="m 86.629635,265.62943 0.01842,0.49727 q 0.374492,-0.54639 1.049805,-0.54639 0.626199,0 0.844141,0.37142 0.217942,0.36836 0.217942,1.03753 v 1.75274 h -0.804236 v -1.56549 q 0,-0.4144 -0.107436,-0.67225 -0.104367,-0.25784 -0.457371,-0.25784 -0.377562,0 -0.531042,0.30389 -0.15348,0.30082 -0.15348,0.71521 v 1.47648 h -0.807306 v -1.97989 q 0,-0.65997 -0.0307,-1.13268 z"
       style="font-style:normal;font-variant:normal;font-weight:bold;font-stretch:normal;font-family:Frutiger;-inkscape-font-specification:'Frutiger Bold';fill:#196fc1;fill-opacity:1;stroke-width:0.26458338"
       id="path4211"
       inkscape:connector-curvature="0" />
    <path
       d="m 92.418908,268.742 h -0.761262 l -0.01228,-0.52797 q -0.138132,0.27934 -0.395978,0.42975 -0.254778,0.14734 -0.577086,0.14734 -0.337657,0 -0.592434,-0.13199 -0.251707,-0.13507 -0.408257,-0.36222 -0.15655,-0.22715 -0.23329,-0.51569 -0.07367,-0.28854 -0.07367,-0.60471 0,-0.41747 0.138133,-0.78275 0.138132,-0.36836 0.426675,-0.59244 0.291612,-0.22715 0.724426,-0.22715 0.325378,0 0.567877,0.14427 0.242499,0.14428 0.399049,0.42668 -0.0307,-0.22715 -0.0307,-0.55253 v -1.37825 h 0.804236 v 3.62213 q 0.0061,0.30082 0.0092,0.52797 0.0061,0.22715 0.01535,0.37756 z m -0.816515,-1.5348 q 0,-0.2425 -0.07674,-0.45737 -0.07674,-0.21794 -0.242499,-0.35914 -0.162689,-0.14427 -0.405188,-0.14427 -0.362213,0 -0.521832,0.27933 -0.15655,0.27626 -0.15655,0.66917 0,0.36836 0.174967,0.66611 0.174968,0.29775 0.515694,0.29775 0.23022,0 0.392909,-0.13813 0.165759,-0.1412 0.242499,-0.35608 0.07674,-0.21794 0.07674,-0.45737 z"
       style="font-style:normal;font-variant:normal;font-weight:bold;font-stretch:normal;font-family:Frutiger;-inkscape-font-specification:'Frutiger Bold';fill:#196fc1;fill-opacity:1;stroke-width:0.26458338"
       id="path4213"
       inkscape:connector-curvature="0" />
    <path
       d="m 95.832308,268.742 h -0.718287 l -0.01228,-0.46658 q -0.144271,0.24864 -0.405187,0.38371 -0.257847,0.13199 -0.561738,0.13199 -0.31003,0 -0.555598,-0.10744 -0.242499,-0.10743 -0.383701,-0.32538 -0.141202,-0.22101 -0.141202,-0.53411 0,-0.58322 0.457371,-0.79809 0.457371,-0.21488 1.114267,-0.21488 0.09516,0 0.122784,0.003 0.02763,0 0.122784,0.006 0.09516,0.003 0.193385,0.009 0,-0.34686 -0.168828,-0.51569 -0.168828,-0.16883 -0.521833,-0.16883 -0.534111,0 -0.963856,0.34073 l -0.02456,-0.69987 q 0.500345,-0.21181 1.08357,-0.21181 0.217942,0 0.432814,0.043 0.214872,0.043 0.395979,0.14427 0.184176,0.0982 0.303891,0.26398 0.122784,0.16576 0.159619,0.38064 0.03991,0.2118 0.03991,0.50648 0,0.30389 0,0.61085 0.0031,0.30696 0.0061,0.56174 0.0061,0.25171 0.02456,0.65689 z m -0.755122,-1.41508 q -0.0307,-0.006 -0.09516,-0.006 H 94.8838 q -0.263985,0 -0.484997,0.0307 -0.217942,0.0276 -0.383701,0.14734 -0.162689,0.11665 -0.162689,0.3438 0,0.18418 0.144272,0.29468 0.147341,0.10744 0.340726,0.10744 0.365283,0 0.552529,-0.27013 0.187246,-0.27012 0.187246,-0.64768 z"
       style="font-style:normal;font-variant:normal;font-weight:bold;font-stretch:normal;font-family:Frutiger;-inkscape-font-specification:'Frutiger Bold';fill:#196fc1;fill-opacity:1;stroke-width:0.26458338"
       id="path4215"
       inkscape:connector-curvature="0" />
    <path
       d="m 98.358592,268.0759 0.02763,0.62927 q -0.306961,0.0614 -0.54332,0.0614 -0.395979,0 -0.626199,-0.14427 -0.230221,-0.14734 -0.322309,-0.4144 -0.09209,-0.27012 -0.09209,-0.65996 v -1.30151 H 96.21601 v -0.59858 h 0.598572 v -0.63234 l 0.804237,-0.26398 v 0.89632 h 0.709078 v 0.59858 h -0.709078 v 1.13268 q 0,0.36221 0.07674,0.55253 0.07981,0.18724 0.38677,0.18724 0.113575,0 0.276264,-0.043 z"
       style="font-style:normal;font-variant:normal;font-weight:bold;font-stretch:normal;font-family:Frutiger;-inkscape-font-specification:'Frutiger Bold';fill:#196fc1;fill-opacity:1;stroke-width:0.26458338"
       id="path4217"
       inkscape:connector-curvature="0" />
    <path
       d="m 99.742985,268.742 h -0.804237 v -3.11257 h 0.804237 z m 0.01228,-3.67738 H 98.92647 v -0.76126 h 0.828793 z"
       style="font-style:normal;font-variant:normal;font-weight:bold;font-stretch:normal;font-family:Frutiger;-inkscape-font-specification:'Frutiger Bold';fill:#196fc1;fill-opacity:1;stroke-width:0.26458338"
       id="path4219"
       inkscape:connector-curvature="0" />
    <path
       d="m 103.60762,267.21334 q 0,0.35915 -0.11665,0.65997 -0.11664,0.29775 -0.33152,0.50955 -0.2118,0.20873 -0.50955,0.32538 -0.29775,0.11664 -0.66304,0.11664 -0.48192,0 -0.84721,-0.20873 -0.36528,-0.20873 -0.5648,-0.58936 -0.19646,-0.38063 -0.19646,-0.85642 0,-0.47579 0.2026,-0.84414 0.20259,-0.36836 0.56787,-0.57095 0.36836,-0.20566 0.84414,-0.20566 0.36836,0 0.66611,0.12278 0.30082,0.12278 0.51262,0.34994 0.2118,0.22408 0.32231,0.52797 0.11358,0.30389 0.11358,0.66303 z m -0.83494,-0.0184 q 0,-0.2517 -0.0829,-0.4942 -0.0798,-0.2425 -0.25784,-0.39905 -0.17804,-0.15655 -0.43896,-0.15655 -0.24863,0 -0.42974,0.15348 -0.17804,0.15348 -0.26399,0.39291 -0.086,0.23636 -0.086,0.47886 0,0.26091 0.0798,0.50341 0.0829,0.2425 0.26092,0.39905 0.17804,0.15348 0.45123,0.15348 0.19339,0 0.34073,-0.0921 0.14734,-0.0952 0.23943,-0.23943 0.0921,-0.14734 0.13813,-0.32844 0.0491,-0.18418 0.0491,-0.37143 z"
       style="font-style:normal;font-variant:normal;font-weight:bold;font-stretch:normal;font-family:Frutiger;-inkscape-font-specification:'Frutiger Bold';fill:#196fc1;fill-opacity:1;stroke-width:0.26458338"
       id="path4221"
       inkscape:connector-curvature="0" />
    <path
       d="m 105.01043,265.62943 0.0184,0.49727 q 0.3745,-0.54639 1.04981,-0.54639 0.6262,0 0.84414,0.37142 0.21794,0.36836 0.21794,1.03753 v 1.75274 h -0.80423 v -1.56549 q 0,-0.4144 -0.10744,-0.67225 -0.10437,-0.25784 -0.45737,-0.25784 -0.37756,0 -0.53104,0.30389 -0.15348,0.30082 -0.15348,0.71521 v 1.47648 h -0.80731 v -1.97989 q 0,-0.65997 -0.0307,-1.13268 z"
       style="font-style:normal;font-variant:normal;font-weight:bold;font-stretch:normal;font-family:Frutiger;-inkscape-font-specification:'Frutiger Bold';fill:#196fc1;fill-opacity:1;stroke-width:0.26458338"
       id="path4223"
       inkscape:connector-curvature="0" />
    <path
       d="m 111.36451,268.742 h -0.84722 v -3.50241 h -1.19714 v -0.69067 h 3.25071 v 0.69067 h -1.20635 z"
       style="font-style:normal;font-variant:normal;font-weight:bold;font-stretch:normal;font-family:Frutiger;-inkscape-font-specification:'Frutiger Bold';fill:#196fc1;fill-opacity:1;stroke-width:0.26458338"
       id="path4225"
       inkscape:connector-curvature="0" />
    <path
       d="m 113.87237,268.742 h -0.80423 v -2.17635 q -0.0153,-0.7766 -0.0246,-0.93622 h 0.73057 l 0.0184,0.78581 q 0.10437,-0.36835 0.31617,-0.58936 0.21487,-0.22101 0.55867,-0.22101 0.10437,0 0.23636,0.0307 v 0.75513 q -0.15962,-0.043 -0.2824,-0.043 -0.28548,0 -0.4543,0.15041 -0.16883,0.15041 -0.23329,0.38677 -0.0614,0.23329 -0.0614,0.51263 v 0.0614 z"
       style="font-style:normal;font-variant:normal;font-weight:bold;font-stretch:normal;font-family:Frutiger;-inkscape-font-specification:'Frutiger Bold';fill:#196fc1;fill-opacity:1;stroke-width:0.26458338"
       id="path4227"
       inkscape:connector-curvature="0" />
    <path
       d="m 118.19745,265.62943 v 1.90008 q 0.006,0.13199 0.0123,0.40826 0.009,0.27626 0.0153,0.44202 0.006,0.16576 0.0184,0.36221 h -0.76126 l -0.0246,-0.47885 q -0.10744,0.16882 -0.26092,0.28547 -0.15041,0.11664 -0.34072,0.18111 -0.19032,0.0614 -0.38063,0.0614 -0.43282,0 -0.67532,-0.17804 -0.24249,-0.17804 -0.33458,-0.48807 -0.089,-0.31003 -0.089,-0.73977 v -1.75581 h 0.80424 v 1.49796 q 0,0.29161 0.0276,0.49421 0.0307,0.19952 0.15655,0.34993 0.12586,0.14734 0.38063,0.14734 0.36529,0 0.50649,-0.30696 0.1412,-0.31003 0.1412,-0.72442 v -1.45806 z"
       style="font-style:normal;font-variant:normal;font-weight:bold;font-stretch:normal;font-family:Frutiger;-inkscape-font-specification:'Frutiger Bold';fill:#196fc1;fill-opacity:1;stroke-width:0.26458338"
       id="path4229"
       inkscape:connector-curvature="0" />
    <path
       d="m 118.91573,268.65913 0.0368,-0.67839 q 0.42974,0.22101 0.79196,0.22101 0.19952,0 0.37756,-0.0859 0.17803,-0.086 0.17803,-0.26706 0,-0.15655 -0.25477,-0.26706 -0.25478,-0.1105 -0.51263,-0.21794 -0.25477,-0.10743 -0.44202,-0.30082 -0.18725,-0.19338 -0.18725,-0.54025 0,-0.33152 0.19339,-0.54332 0.19645,-0.2118 0.49727,-0.30696 0.30083,-0.0982 0.62313,-0.0982 0.34073,0 0.76741,0.11972 l -0.0583,0.60164 q -0.37449,-0.11971 -0.65996,-0.11971 -0.20874,0 -0.38677,0.0706 -0.17804,0.0706 -0.17804,0.24556 0,0.15042 0.2425,0.25171 0.24557,0.0982 0.51262,0.19953 0.27013,0.0982 0.46044,0.29775 0.19339,0.19645 0.19339,0.56481 0,0.33458 -0.18725,0.55866 -0.18417,0.22408 -0.47885,0.32845 -0.29469,0.10437 -0.62313,0.10437 -0.3745,0 -0.90554,-0.13813 z"
       style="font-style:normal;font-variant:normal;font-weight:bold;font-stretch:normal;font-family:Frutiger;-inkscape-font-specification:'Frutiger Bold';fill:#196fc1;fill-opacity:1;stroke-width:0.26458338"
       id="path4231"
       inkscape:connector-curvature="0" />
    <path
       d="m 123.49865,268.0759 0.0276,0.62927 q -0.30696,0.0614 -0.54332,0.0614 -0.39598,0 -0.6262,-0.14427 -0.23022,-0.14734 -0.32231,-0.4144 -0.0921,-0.27012 -0.0921,-0.65996 v -1.30151 h -0.58629 v -0.59858 h 0.59857 v -0.63234 l 0.80424,-0.26398 v 0.89632 h 0.70908 v 0.59858 h -0.70908 v 1.13268 q 0,0.36221 0.0767,0.55253 0.0798,0.18724 0.38677,0.18724 0.11357,0 0.27626,-0.043 z"
       style="font-style:normal;font-variant:normal;font-weight:bold;font-stretch:normal;font-family:Frutiger;-inkscape-font-specification:'Frutiger Bold';fill:#196fc1;fill-opacity:1;stroke-width:0.26458338"
       id="path4233"
       inkscape:connector-curvature="0" />
  </g>
  <g
     aria-label="Liverpool Heart and
Chest Hospital"
     style="font-style:normal;font-variant:normal;font-weight:bold;font-stretch:normal;font-size:7.05555534px;line-height:1.25;font-family:Frutiger;-inkscape-font-specification:'Frutiger Bold';letter-spacing:0px;word-spacing:0px;fill:#000000;fill-opacity:1;stroke:none;stroke-width:0.26458335"
     id="text886">
    <path
       d="m 6.723527,35.996297 v 0.768256 H 3.9364448 v -4.706 h 0.9508463 v 3.937744 z"
       style="text-align:end;text-anchor:end;stroke-width:0.26458335"
       id="path1014" />
    <path
       d="m 8.2049181,36.764553 h -0.902615 v -3.493327 h 0.902615 z m 0.01378,-4.127224 H 7.2885227 v -0.854384 h 0.9301758 z"
       style="text-align:end;text-anchor:end;stroke-width:0.26458335"
       id="path1016" />
    <path
       d="M 11.047122,36.764553 H 10.037709 L 8.7320176,33.271226 h 0.9887423 l 0.5856661,1.681207 q 0.230822,0.644233 0.282498,1.036974 0.08268,-0.416857 0.220486,-0.813043 l 0.627007,-1.905138 h 0.909506 z"
       style="text-align:end;text-anchor:end;stroke-width:0.26458335"
       id="path1018" />
    <path
       d="m 15.673885,35.834377 0.01378,0.782037 q -0.554661,0.241157 -1.198894,0.241157 -0.430636,0 -0.768256,-0.120579 -0.334174,-0.124023 -0.571886,-0.361735 -0.237711,-0.241156 -0.361735,-0.578776 -0.124023,-0.341064 -0.124023,-0.775146 0,-0.399631 0.113688,-0.733806 0.117133,-0.337619 0.334174,-0.582221 0.217041,-0.248046 0.53399,-0.38585 0.320394,-0.137804 0.72347,-0.137804 0.392741,0 0.692464,0.141249 0.299724,0.141249 0.485759,0.389296 0.18948,0.248046 0.282498,0.57533 0.09302,0.323839 0.09302,0.713135 0,0.0689 -0.0034,0.103353 -0.0034,0.03445 -0.0069,0.08613 -0.0034,0.05168 -0.01034,0.120579 h -2.349556 q 0.03445,0.413411 0.320394,0.644233 0.289388,0.230821 0.71658,0.230821 0.482314,0 1.085205,-0.3514 z m -0.613227,-1.150662 q -0.0069,-0.234266 -0.08613,-0.430636 -0.07579,-0.196371 -0.237712,-0.316949 -0.158474,-0.120579 -0.396186,-0.120579 -0.244601,0 -0.420301,0.120579 -0.172255,0.117133 -0.268718,0.313503 -0.09302,0.196371 -0.113688,0.434082 z"
       style="text-align:end;text-anchor:end;stroke-width:0.26458335"
       id="path1020" />
    <path
       d="M 17.572133,36.764553 H 16.669518 V 34.32198 q -0.01723,-0.871609 -0.02756,-1.050754 h 0.819933 l 0.02067,0.881945 q 0.117134,-0.413412 0.354845,-0.661459 0.241157,-0.248046 0.627008,-0.248046 0.117133,0 0.265272,0.03445 v 0.847493 q -0.179145,-0.04823 -0.316949,-0.04823 -0.320394,0 -0.509874,0.168809 -0.18948,0.16881 -0.261827,0.434082 -0.0689,0.261828 -0.0689,0.575331 v 0.0689 z"
       style="text-align:end;text-anchor:end;stroke-width:0.26458335"
       id="path1022" />
    <path
       d="m 20.228301,38.197713 h -0.90606 v -3.910184 q 0,-0.599446 -0.03445,-1.023193 h 0.868164 l 0.01378,0.551215 q 0.403077,-0.606336 1.143772,-0.606336 0.35829,0 0.623562,0.144694 0.268718,0.144694 0.440973,0.396186 0.175699,0.248046 0.258382,0.56844 0.08613,0.316949 0.08613,0.654568 0,0.499539 -0.148139,0.916396 -0.144694,0.416856 -0.471978,0.675239 -0.327284,0.254937 -0.830268,0.254937 -0.327284,0 -0.613227,-0.141249 -0.285943,-0.141249 -0.447862,-0.406522 0.01722,0.1757 0.01722,0.53399 z m 1.557183,-3.169488 q 0,-0.279053 -0.07235,-0.516764 -0.0689,-0.237712 -0.237711,-0.392741 -0.165365,-0.155029 -0.444418,-0.155029 -0.272162,0 -0.454752,0.158474 -0.18259,0.155029 -0.265273,0.403076 -0.08268,0.244602 -0.08268,0.509874 0,0.434082 0.186035,0.751031 0.189481,0.313504 0.596002,0.313504 0.265272,0 0.437527,-0.158475 0.172255,-0.161919 0.254937,-0.409966 0.08268,-0.251492 0.08268,-0.502984 z"
       style="text-align:end;text-anchor:end;stroke-width:0.26458335"
       id="path1024" />
    <path
       d="m 26.863555,35.048896 q 0,0.403076 -0.130914,0.740695 -0.130913,0.334174 -0.37207,0.571886 -0.237712,0.234266 -0.571886,0.36518 -0.334174,0.130914 -0.74414,0.130914 -0.54088,0 -0.950847,-0.234267 -0.409966,-0.234266 -0.633897,-0.661458 -0.220486,-0.427192 -0.220486,-0.961182 0,-0.53399 0.227376,-0.947401 0.227376,-0.413411 0.637343,-0.640788 0.413411,-0.230821 0.947401,-0.230821 0.413411,0 0.747585,0.137804 0.33762,0.137804 0.575331,0.392741 0.237712,0.251492 0.361735,0.592556 0.127469,0.341064 0.127469,0.744141 z m -0.937066,-0.02067 q 0,-0.282498 -0.09302,-0.55466 -0.08957,-0.272163 -0.289388,-0.447863 -0.199815,-0.1757 -0.492648,-0.1757 -0.279053,0 -0.482314,0.172255 -0.199815,0.172255 -0.296278,0.440972 -0.09646,0.265273 -0.09646,0.537435 0,0.292833 0.08957,0.564996 0.09302,0.272162 0.292833,0.447862 0.199816,0.172255 0.506429,0.172255 0.217041,0 0.382406,-0.103353 0.165364,-0.106798 0.268717,-0.268717 0.103353,-0.165365 0.155029,-0.368625 0.05512,-0.206706 0.05512,-0.416857 z"
       style="text-align:end;text-anchor:end;stroke-width:0.26458335"
       id="path1026" />
    <path
       d="m 31.00456,35.048896 q 0,0.403076 -0.130914,0.740695 -0.130914,0.334174 -0.37207,0.571886 -0.237712,0.234266 -0.571886,0.36518 -0.334175,0.130914 -0.744141,0.130914 -0.54088,0 -0.950846,-0.234267 -0.409967,-0.234266 -0.633898,-0.661458 -0.220486,-0.427192 -0.220486,-0.961182 0,-0.53399 0.227376,-0.947401 0.227377,-0.413411 0.637343,-0.640788 0.413412,-0.230821 0.947401,-0.230821 0.413412,0 0.747586,0.137804 0.337619,0.137804 0.575331,0.392741 0.237712,0.251492 0.361735,0.592556 0.127469,0.341064 0.127469,0.744141 z m -0.937066,-0.02067 q 0,-0.282498 -0.09302,-0.55466 -0.08957,-0.272163 -0.289388,-0.447863 -0.199816,-0.1757 -0.492649,-0.1757 -0.279052,0 -0.482313,0.172255 -0.199816,0.172255 -0.296278,0.440972 -0.09646,0.265273 -0.09646,0.537435 0,0.292833 0.08957,0.564996 0.09302,0.272162 0.292833,0.447862 0.199815,0.172255 0.506429,0.172255 0.217041,0 0.382405,-0.103353 0.165365,-0.106798 0.268718,-0.268717 0.103353,-0.165365 0.155029,-0.368625 0.05512,-0.206706 0.05512,-0.416857 z"
       style="text-align:end;text-anchor:end;stroke-width:0.26458335"
       id="path1028" />
    <path
       d="m 32.620309,36.764553 h -0.902615 v -5.081516 h 0.902615 z"
       style="text-align:end;text-anchor:end;stroke-width:0.26458335"
       id="path1030" />
    <path
       d="m 39.379586,36.764553 h -0.947401 v -2.025716 h -1.877577 v 2.025716 h -0.950847 v -4.706 h 0.950847 v 1.912028 h 1.877577 v -1.912028 h 0.947401 z"
       style="text-align:end;text-anchor:end;stroke-width:0.26458335"
       id="path1032" />
    <path
       d="m 43.207086,35.834377 0.01378,0.782037 q -0.554661,0.241157 -1.198893,0.241157 -0.430637,0 -0.768257,-0.120579 -0.334174,-0.124023 -0.571885,-0.361735 -0.237712,-0.241156 -0.361735,-0.578776 -0.124024,-0.341064 -0.124024,-0.775146 0,-0.399631 0.113688,-0.733806 0.117133,-0.337619 0.334174,-0.582221 0.217042,-0.248046 0.53399,-0.38585 0.320394,-0.137804 0.72347,-0.137804 0.392741,0 0.692464,0.141249 0.299724,0.141249 0.485759,0.389296 0.18948,0.248046 0.282498,0.57533 0.09302,0.323839 0.09302,0.713135 0,0.0689 -0.0034,0.103353 -0.0034,0.03445 -0.0069,0.08613 -0.0034,0.05168 -0.01033,0.120579 h -2.349555 q 0.03445,0.413411 0.320394,0.644233 0.289388,0.230821 0.716579,0.230821 0.482314,0 1.085205,-0.3514 z m -0.613227,-1.150662 q -0.0069,-0.234266 -0.08613,-0.430636 -0.07579,-0.196371 -0.237711,-0.316949 -0.158475,-0.120579 -0.396186,-0.120579 -0.244602,0 -0.420302,0.120579 -0.172255,0.117133 -0.268718,0.313503 -0.09302,0.196371 -0.113688,0.434082 z"
       style="text-align:end;text-anchor:end;stroke-width:0.26458335"
       id="path1034" />
    <path
       d="m 47.08971,36.764553 h -0.806152 l -0.01378,-0.523654 q -0.161919,0.279052 -0.454752,0.430636 -0.289388,0.14814 -0.630453,0.14814 -0.347954,0 -0.623562,-0.120579 -0.272163,-0.120578 -0.430637,-0.36518 -0.158474,-0.248047 -0.158474,-0.599446 0,-0.654569 0.513319,-0.895725 0.513319,-0.241157 1.250569,-0.241157 0.106798,0 0.137804,0.0034 0.03101,0 0.137804,0.0069 0.106798,0.0034 0.217041,0.01034 0,-0.389296 -0.18948,-0.578776 -0.18948,-0.189481 -0.585666,-0.189481 -0.599447,0 -1.08176,0.382406 l -0.02756,-0.785482 q 0.56155,-0.237711 1.216119,-0.237711 0.244601,0 0.485758,0.04823 0.241157,0.04823 0.444417,0.161919 0.206706,0.110244 0.341065,0.296279 0.137804,0.186035 0.179145,0.427191 0.04479,0.237712 0.04479,0.568441 0,0.341065 0,0.685574 0.0034,0.34451 0.0069,0.630453 0.0069,0.282497 0.02756,0.73725 z m -0.847494,-1.588189 q -0.03445,-0.0069 -0.106798,-0.0069 h -0.110243 q -0.296278,0 -0.544325,0.03445 -0.244601,0.03101 -0.430637,0.165364 -0.18259,0.130914 -0.18259,0.385851 0,0.206706 0.16192,0.330729 0.165364,0.120579 0.382405,0.120579 0.409967,0 0.620118,-0.303169 0.21015,-0.303168 0.21015,-0.726915 z"
       style="text-align:end;text-anchor:end;stroke-width:0.26458335"
       id="path1036" />
    <path
       d="M 48.901829,36.764553 H 47.999214 V 34.32198 q -0.01723,-0.871609 -0.02756,-1.050754 h 0.819932 l 0.02067,0.881945 q 0.117133,-0.413412 0.354845,-0.661459 0.241157,-0.248046 0.627007,-0.248046 0.117133,0 0.265273,0.03445 v 0.847493 q -0.179145,-0.04823 -0.316949,-0.04823 -0.320394,0 -0.509874,0.168809 -0.189481,0.16881 -0.261828,0.434082 -0.0689,0.261828 -0.0689,0.575331 v 0.0689 z"
       style="text-align:end;text-anchor:end;stroke-width:0.26458335"
       id="path1038" />
    <path
       d="m 52.570858,36.016967 0.03101,0.706245 q -0.34451,0.0689 -0.609782,0.0689 -0.444418,0 -0.7028,-0.16192 Q 51.0309,36.46483 50.927547,36.165106 50.824194,35.861938 50.824194,35.424411 v -1.46072 h -0.658013 v -0.671794 h 0.671794 v -0.70969 l 0.902615,-0.296278 v 1.005968 h 0.795817 v 0.671794 H 51.74059 v 1.27124 q 0,0.406521 0.08613,0.620117 0.08957,0.210151 0.434082,0.210151 0.127469,0 0.310059,-0.04823 z"
       style="text-align:end;text-anchor:end;stroke-width:0.26458335"
       id="path1040" />
    <path
       d="m 58.09679,36.764553 h -0.806152 l -0.01378,-0.523654 q -0.161919,0.279052 -0.454752,0.430636 -0.289388,0.14814 -0.630453,0.14814 -0.347954,0 -0.623562,-0.120579 -0.272163,-0.120578 -0.430637,-0.36518 -0.158474,-0.248047 -0.158474,-0.599446 0,-0.654569 0.513319,-0.895725 0.513319,-0.241157 1.25057,-0.241157 0.106797,0 0.137803,0.0034 0.03101,0 0.137804,0.0069 0.106798,0.0034 0.217041,0.01034 0,-0.389296 -0.18948,-0.578776 -0.18948,-0.189481 -0.585666,-0.189481 -0.599447,0 -1.08176,0.382406 l -0.02756,-0.785482 q 0.561551,-0.237711 1.216119,-0.237711 0.244601,0 0.485758,0.04823 0.241157,0.04823 0.444417,0.161919 0.206706,0.110244 0.341065,0.296279 0.137804,0.186035 0.179145,0.427191 0.04479,0.237712 0.04479,0.568441 0,0.341065 0,0.685574 0.0034,0.34451 0.0069,0.630453 0.0069,0.282497 0.02756,0.73725 z m -0.847493,-1.588189 q -0.03445,-0.0069 -0.106798,-0.0069 h -0.110243 q -0.296279,0 -0.544326,0.03445 -0.244601,0.03101 -0.430636,0.165364 -0.182591,0.130914 -0.182591,0.385851 0,0.206706 0.16192,0.330729 0.165365,0.120579 0.382406,0.120579 0.409966,0 0.620117,-0.303169 0.210151,-0.303168 0.210151,-0.726915 z"
       style="text-align:end;text-anchor:end;stroke-width:0.26458335"
       id="path1042" />
    <path
       d="m 59.833116,33.271226 0.02067,0.558106 q 0.420302,-0.613227 1.178223,-0.613227 0.702799,0 0.947401,0.416856 0.244602,0.413412 0.244602,1.164443 v 1.967149 h -0.902615 v -1.756999 q 0,-0.465087 -0.120579,-0.754475 -0.117133,-0.289388 -0.513319,-0.289388 -0.423747,0 -0.596001,0.341064 -0.172255,0.337619 -0.172255,0.802707 v 1.657091 h -0.90606 v -2.222086 q 0,-0.740696 -0.03445,-1.271241 z"
       style="text-align:end;text-anchor:end;stroke-width:0.26458335"
       id="path1044" />
    <path
       d="m 66.33057,36.764553 h -0.854384 l -0.01378,-0.592556 q -0.155029,0.313503 -0.444417,0.482313 -0.285943,0.165365 -0.647678,0.165365 -0.378961,0 -0.664904,-0.14814 -0.282498,-0.151584 -0.458197,-0.406521 -0.1757,-0.254937 -0.261828,-0.578776 -0.08268,-0.323839 -0.08268,-0.678684 0,-0.468533 0.155029,-0.878499 0.15503,-0.413411 0.478869,-0.664903 0.327284,-0.254937 0.813042,-0.254937 0.36518,0 0.637343,0.161919 0.272162,0.16192 0.447862,0.478868 -0.03445,-0.254937 -0.03445,-0.620117 v -1.546848 h 0.902615 v 4.065213 q 0.0069,0.337619 0.01033,0.592556 0.0069,0.254937 0.01723,0.423747 z m -0.916395,-1.722548 q 0,-0.272162 -0.08613,-0.513319 -0.08613,-0.244602 -0.272162,-0.403076 -0.18259,-0.161919 -0.454753,-0.161919 -0.406521,0 -0.585666,0.313503 -0.1757,0.310059 -0.1757,0.751031 0,0.413411 0.19637,0.747586 0.196371,0.334174 0.578776,0.334174 0.258383,0 0.440973,-0.155029 0.186035,-0.158475 0.272162,-0.399631 0.08613,-0.244602 0.08613,-0.51332 z"
       style="text-align:end;text-anchor:end;stroke-width:0.26458335"
       id="path1046" />
    <path
       d="m 24.858509,42.633151 0.03445,0.830268 q -0.585666,0.155029 -1.071425,0.155029 -0.551215,0 -1.019748,-0.144694 -0.468533,-0.144694 -0.826823,-0.440972 -0.354845,-0.299723 -0.54777,-0.740696 -0.18948,-0.440972 -0.18948,-1.016303 0,-0.575331 0.172255,-1.030083 0.172254,-0.454753 0.499538,-0.768256 0.33073,-0.316949 0.792372,-0.475424 0.461643,-0.158474 1.033529,-0.158474 0.509874,0 1.136881,0.203261 l -0.07579,0.806152 q -0.465088,-0.254937 -1.009413,-0.254937 -0.461642,0 -0.813042,0.199815 -0.3514,0.196371 -0.54088,0.551216 -0.186035,0.354845 -0.186035,0.816487 0,0.478869 0.19637,0.861274 0.199816,0.382406 0.564996,0.592557 0.36518,0.21015 0.854383,0.21015 0.465088,0 0.995633,-0.19637 z"
       style="text-align:end;text-anchor:end;stroke-width:0.26458335"
       id="path1048" />
    <path
       d="M 28.717016,43.583997 H 27.814401 V 41.88901 q 0,-0.502984 -0.110243,-0.802707 -0.106798,-0.303168 -0.509874,-0.303168 -0.434082,0 -0.609782,0.35829 -0.1757,0.354844 -0.1757,0.833713 v 0.1757 1.433159 h -0.902615 v -5.081515 h 0.902615 v 2.084282 q 0.196371,-0.282498 0.471978,-0.420301 0.275608,-0.137804 0.630453,-0.137804 0.368625,0 0.606336,0.120578 0.241157,0.117133 0.368626,0.320394 0.130913,0.203261 0.179145,0.475423 0.05168,0.268718 0.05168,0.633898 z"
       style="text-align:end;text-anchor:end;stroke-width:0.26458335"
       id="path1050" />
    <path
       d="m 32.413604,42.653821 0.01378,0.782037 q -0.55466,0.241157 -1.198893,0.241157 -0.430637,0 -0.768257,-0.120579 -0.334174,-0.124023 -0.571885,-0.361735 -0.237712,-0.241156 -0.361735,-0.578776 -0.124024,-0.341064 -0.124024,-0.775146 0,-0.399631 0.113688,-0.733805 0.117134,-0.33762 0.334175,-0.582221 0.217041,-0.248047 0.533989,-0.385851 0.320394,-0.137804 0.72347,-0.137804 0.392741,0 0.692465,0.141249 0.299723,0.141249 0.485758,0.389296 0.18948,0.248047 0.282498,0.575331 0.09302,0.323839 0.09302,0.713134 0,0.0689 -0.0034,0.103353 -0.0034,0.03445 -0.0069,0.08613 -0.0034,0.05168 -0.01033,0.120578 h -2.349555 q 0.03445,0.413411 0.320394,0.644233 0.289388,0.230821 0.71658,0.230821 0.482313,0 1.085205,-0.3514 z M 31.800377,41.50316 q -0.0069,-0.234267 -0.08613,-0.430637 -0.07579,-0.196371 -0.237711,-0.316949 -0.158475,-0.120578 -0.396186,-0.120578 -0.244602,0 -0.420302,0.120578 -0.172255,0.117133 -0.268717,0.313504 -0.09302,0.19637 -0.113689,0.434082 z"
       style="text-align:end;text-anchor:end;stroke-width:0.26458335"
       id="path1052" />
    <path
       d="m 33.226646,43.49098 0.04134,-0.761366 q 0.482314,0.248046 0.888835,0.248046 0.223931,0 0.423747,-0.09646 0.199815,-0.09646 0.199815,-0.299724 0,-0.175699 -0.285943,-0.299723 -0.285943,-0.124023 -0.575331,-0.244602 -0.285943,-0.120578 -0.496093,-0.337619 -0.210151,-0.217041 -0.210151,-0.606337 0,-0.37207 0.217041,-0.609782 0.220486,-0.237711 0.558105,-0.344509 0.33762,-0.110243 0.699355,-0.110243 0.382405,0 0.861273,0.134359 l -0.06546,0.675238 q -0.420302,-0.134358 -0.740696,-0.134358 -0.234266,0 -0.434082,0.07924 -0.199815,0.07924 -0.199815,0.275607 0,0.16881 0.272162,0.282498 0.275608,0.110243 0.575331,0.223931 0.303168,0.110243 0.516764,0.334175 0.217041,0.220486 0.217041,0.633897 0,0.375516 -0.210151,0.627008 -0.206705,0.251491 -0.537434,0.368625 -0.33073,0.117133 -0.699355,0.117133 -0.420301,0 -1.016303,-0.155029 z"
       style="text-align:end;text-anchor:end;stroke-width:0.26458335"
       id="path1054" />
    <path
       d="m 38.370174,42.836412 0.03101,0.706244 q -0.34451,0.0689 -0.609782,0.0689 -0.444417,0 -0.702799,-0.161919 -0.258383,-0.165365 -0.361735,-0.465088 -0.103353,-0.303169 -0.103353,-0.740696 v -1.46072 h -0.658014 v -0.671794 h 0.671794 v -0.70969 l 0.902615,-0.296278 v 1.005968 h 0.795817 v 0.671794 h -0.795817 v 1.27124 q 0,0.406521 0.08613,0.620117 0.08957,0.210151 0.434082,0.210151 0.127469,0 0.310059,-0.04823 z"
       style="text-align:end;text-anchor:end;stroke-width:0.26458335"
       id="path1056" />
    <path
       d="M 44.864178,43.583997 H 43.916777 V 41.558281 H 42.0392 v 2.025716 h -0.950846 v -4.706 H 42.0392 v 1.912028 h 1.877577 v -1.912028 h 0.947401 z"
       style="text-align:end;text-anchor:end;stroke-width:0.26458335"
       id="path1058" />
    <path
       d="m 49.304906,41.86834 q 0,0.403076 -0.130914,0.740695 -0.130913,0.334175 -0.37207,0.571886 -0.237712,0.234267 -0.571886,0.36518 -0.334174,0.130914 -0.744141,0.130914 -0.54088,0 -0.950846,-0.234267 -0.409966,-0.234266 -0.633897,-0.661458 -0.220487,-0.427192 -0.220487,-0.961182 0,-0.533989 0.227377,-0.947401 0.227376,-0.413411 0.637342,-0.640788 0.413412,-0.230821 0.947402,-0.230821 0.413411,0 0.747585,0.137804 0.33762,0.137804 0.575331,0.392741 0.237712,0.251492 0.361735,0.592556 0.127469,0.341065 0.127469,0.744141 z m -0.937066,-0.02067 q 0,-0.282498 -0.09302,-0.55466 -0.08957,-0.272163 -0.289388,-0.447863 -0.199815,-0.175699 -0.492648,-0.175699 -0.279053,0 -0.482314,0.172254 -0.199815,0.172255 -0.296278,0.440973 -0.09646,0.265272 -0.09646,0.537434 0,0.292834 0.08957,0.564996 0.09302,0.272163 0.292833,0.447862 0.199815,0.172255 0.506429,0.172255 0.217041,0 0.382406,-0.103353 0.165364,-0.106798 0.268717,-0.268717 0.103353,-0.165365 0.155029,-0.368625 0.05512,-0.206706 0.05512,-0.416857 z"
       style="text-align:end;text-anchor:end;stroke-width:0.26458335"
       id="path1060" />
    <path
       d="m 49.869901,43.49098 0.04134,-0.761366 q 0.482314,0.248046 0.888835,0.248046 0.223931,0 0.423747,-0.09646 0.199815,-0.09646 0.199815,-0.299724 0,-0.175699 -0.285943,-0.299723 -0.285942,-0.124023 -0.57533,-0.244602 -0.285943,-0.120578 -0.496094,-0.337619 -0.210151,-0.217041 -0.210151,-0.606337 0,-0.37207 0.217041,-0.609782 0.220486,-0.237711 0.558105,-0.344509 0.33762,-0.110243 0.699355,-0.110243 0.382405,0 0.861274,0.134359 l -0.06546,0.675238 q -0.420302,-0.134358 -0.740696,-0.134358 -0.234266,0 -0.434082,0.07924 -0.199815,0.07924 -0.199815,0.275607 0,0.16881 0.272162,0.282498 0.275608,0.110243 0.575331,0.223931 0.303169,0.110243 0.516765,0.334175 0.217041,0.220486 0.217041,0.633897 0,0.375516 -0.210151,0.627008 -0.206706,0.251491 -0.537435,0.368625 -0.330729,0.117133 -0.699355,0.117133 -0.420301,0 -1.016303,-0.155029 z"
       style="text-align:end;text-anchor:end;stroke-width:0.26458335"
       id="path1062" />
    <path
       d="m 54.000571,45.017157 h -0.90606 v -3.910183 q 0,-0.599447 -0.03445,-1.023194 h 0.868164 l 0.01378,0.551216 q 0.403076,-0.606337 1.143771,-0.606337 0.35829,0 0.623563,0.144694 0.268717,0.144694 0.440972,0.396186 0.1757,0.248047 0.258382,0.568441 0.08613,0.316948 0.08613,0.654568 0,0.499538 -0.148139,0.916395 -0.144694,0.416857 -0.471978,0.675239 -0.327284,0.254937 -0.830268,0.254937 -0.327284,0 -0.613227,-0.141249 -0.285943,-0.141249 -0.447862,-0.406521 0.01723,0.175699 0.01723,0.533989 z m 1.557183,-3.169488 q 0,-0.279053 -0.07235,-0.516764 -0.0689,-0.237712 -0.237711,-0.392741 -0.165365,-0.155029 -0.444418,-0.155029 -0.272162,0 -0.454752,0.158474 -0.18259,0.155029 -0.265273,0.403076 -0.08268,0.244602 -0.08268,0.509874 0,0.434082 0.186035,0.751031 0.189481,0.313504 0.596002,0.313504 0.265272,0 0.437527,-0.158475 0.172255,-0.161919 0.254937,-0.409966 0.08268,-0.251492 0.08268,-0.502984 z"
       style="text-align:end;text-anchor:end;stroke-width:0.26458335"
       id="path1064" />
    <path
       d="m 58.117462,43.583997 h -0.902615 v -3.493326 h 0.902615 z m 0.01378,-4.127224 h -0.930176 v -0.854384 h 0.930176 z"
       style="text-align:end;text-anchor:end;stroke-width:0.26458335"
       id="path1066" />
    <path
       d="m 60.987224,42.836412 0.03101,0.706244 q -0.344509,0.0689 -0.609782,0.0689 -0.444417,0 -0.702799,-0.161919 -0.258382,-0.165365 -0.361735,-0.465088 -0.103353,-0.303169 -0.103353,-0.740696 v -1.46072 h -0.658013 v -0.671794 h 0.671793 v -0.70969 l 0.902615,-0.296278 v 1.005968 h 0.795817 v 0.671794 h -0.795817 v 1.27124 q 0,0.406521 0.08613,0.620117 0.08957,0.210151 0.434082,0.210151 0.127468,0 0.310058,-0.04823 z"
       style="text-align:end;text-anchor:end;stroke-width:0.26458335"
       id="path1068" />
    <path
       d="m 64.552898,43.583997 h -0.806152 l -0.01378,-0.523654 q -0.161919,0.279052 -0.454752,0.430637 -0.289388,0.148139 -0.630453,0.148139 -0.347954,0 -0.623562,-0.120579 -0.272163,-0.120578 -0.430637,-0.36518 -0.158474,-0.248047 -0.158474,-0.599446 0,-0.654568 0.513319,-0.895725 0.513319,-0.241157 1.25057,-0.241157 0.106797,0 0.137803,0.0034 0.03101,0 0.137804,0.0069 0.106798,0.0034 0.217041,0.01033 0,-0.389296 -0.18948,-0.578776 -0.18948,-0.18948 -0.585666,-0.18948 -0.599447,0 -1.08176,0.382405 l -0.02756,-0.785482 q 0.561551,-0.237711 1.216119,-0.237711 0.244601,0 0.485758,0.04823 0.241157,0.04823 0.444417,0.16192 0.206706,0.110243 0.341065,0.296278 0.137804,0.186035 0.179145,0.427192 0.04479,0.237711 0.04479,0.56844 0,0.341065 0,0.685574 0.0034,0.34451 0.0069,0.630453 0.0069,0.282498 0.02756,0.73725 z m -0.847493,-1.588189 q -0.03445,-0.0069 -0.106798,-0.0069 h -0.110243 q -0.296279,0 -0.544326,0.03445 -0.244601,0.03101 -0.430636,0.165365 -0.182591,0.130913 -0.182591,0.38585 0,0.206706 0.16192,0.330729 0.165365,0.120579 0.382406,0.120579 0.409966,0 0.620117,-0.303169 0.210151,-0.303168 0.210151,-0.726915 z"
       style="text-align:end;text-anchor:end;stroke-width:0.26458335"
       id="path1070" />
    <path
       d="m 66.330569,43.583997 h -0.902615 v -5.081515 h 0.902615 z"
       style="text-align:end;text-anchor:end;stroke-width:0.26458335"
       id="path1072" />
  </g>
</svg>
