<?xml version="1.0" encoding="UTF-8" standalone="no"?>
<!DOCTYPE svg PUBLIC "-//W3C//DTD SVG 1.1//EN" "http://www.w3.org/Graphics/SVG/1.1/DTD/svg11.dtd">
<svg width="100%" height="100%" viewBox="0 0 300 100" version="1.1" xmlns="http://www.w3.org/2000/svg" xmlns:xlink="http://www.w3.org/1999/xlink" xml:space="preserve" xmlns:serif="http://www.serif.com/" style="fill-rule:evenodd;clip-rule:evenodd;stroke-linejoin:round;stroke-miterlimit:2;">
    <path d="M244.703,77.951L247.509,74.804C240.931,69.672 230.342,69.87 225.816,74.804C224.418,76.329 224.057,79.06 225.816,81.188C227.035,82.662 231.365,84.155 235.82,83.946C241.544,83.679 246.123,88.415 235.82,88.4C231.424,88.393 228.737,87.226 226.922,85.636L224.09,89.143C229.836,94.606 244.795,93.712 246.834,88.4C248.369,84.401 247.03,81.561 242.223,80.12C239.58,79.327 235.553,78.967 232.198,78.856C229.145,78.755 229.04,75.929 234.217,75.503C238.109,75.183 241.687,76.104 244.703,77.951ZM135.892,71L135.892,92.762L130.137,92.762L130.137,71L135.892,71ZM221.643,71L221.643,92.762L215.889,92.762L215.889,71L221.643,71ZM199.934,88.201L213.149,88.201L213.149,92.762L194.642,92.762L194.642,71L199.934,71L199.934,88.201ZM56.863,88.201L70.079,88.201L70.079,92.762L51.571,92.762L51.571,71L56.863,71L56.863,88.201ZM152.463,75.397C147.98,75.397 144.341,78.302 144.341,81.881C144.341,85.46 147.98,88.365 152.463,88.365L153.188,88.365C156.406,88.365 159.226,87.103 160.774,85.217L163.438,88.331C160.955,91.017 156.962,92.762 152.463,92.762C144.941,92.762 138.834,87.886 138.834,81.881C138.834,75.876 144.941,71 152.463,71C156.981,71 160.989,72.759 163.469,75.465L160.729,78.49C159.171,76.635 156.375,75.397 153.188,75.397L152.463,75.397ZM114.716,71C119.242,71.013 123.345,72.672 125.812,75.397L123.136,78.728C121.805,76.596 117.847,75.397 114.663,75.397C110.18,75.397 106.541,78.302 106.541,81.881C106.541,85.46 110.18,88.365 114.663,88.365C117.216,88.365 120.984,86.864 120.984,86.864L120.984,84.394L114.663,84.394L114.663,80.326L126.202,80.326L126.202,88.365C123.788,91.423 119.521,92.762 114.663,92.762C107.141,92.762 101.034,87.886 101.034,81.881C101.034,75.876 107.141,71 114.663,71L114.716,71ZM85.057,71C92.579,71 98.686,75.876 98.686,81.881C98.686,87.886 92.579,92.762 85.057,92.762C77.535,92.762 71.428,87.886 71.428,81.881C71.428,75.876 77.535,71 85.057,71ZM192.121,92.762L185.416,92.762L183.779,89.654L172.945,89.654L171.308,92.762L164.604,92.762L178.362,71L192.121,92.762ZM85.057,75.397C89.539,75.397 93.179,78.302 93.179,81.881C93.179,85.46 89.539,88.365 85.057,88.365C80.574,88.365 76.935,85.46 76.935,81.881C76.935,78.302 80.574,75.397 85.057,75.397ZM181.647,85.607L178.362,79.373L175.078,85.607L181.647,85.607Z" style="fill:rgb(81,85,86);"/>
    <path d="M140.348,10.727C126.987,2.44 110.266,2.966 105.429,10.727C102.639,15.204 102.921,19.803 105.429,24.45C102.71,29.037 103.15,33.444 105.429,37.745C111.321,48.871 131.974,48.539 154.098,37.745C162.828,33.486 172.095,30.354 181.647,31.212C195.535,32.46 192.512,46.177 181.647,45.92C177.841,45.83 175.349,44.99 173.234,43.498C164.047,37.019 159.757,37.002 158.595,41.931C169.725,49.029 188.185,51.471 193.366,41.931C195.807,37.435 195.824,32.911 193.366,28.357C196.063,24.021 195.895,19.02 192.121,13.202C187.52,6.112 166.324,3.243 148.515,13.202C134.027,21.305 124.941,23.152 113.618,20.27C105.064,18.093 106.028,6.517 118.921,6.691C121.336,6.723 125.279,8.831 127.583,10.727C132.965,15.157 139.028,15.952 140.348,10.727ZM106.721,26.149C107.361,35.641 123.285,38.294 138.834,32.525C146.927,29.521 158.104,23.444 168.073,20.693C176.229,18.441 187.509,21.383 192.253,26.455C191.893,19.343 179.425,15.078 168.073,17.775C157.337,20.327 147.328,25.062 137.271,29.652C127.347,34.181 114.497,33.377 106.721,26.149Z" style="fill:rgb(226,31,0);"/>
</svg>
