<?xml version="1.0" encoding="UTF-8" standalone="no"?>
<svg
   xmlns:dc="http://purl.org/dc/elements/1.1/"
   xmlns:cc="http://creativecommons.org/ns#"
   xmlns:rdf="http://www.w3.org/1999/02/22-rdf-syntax-ns#"
   xmlns:svg="http://www.w3.org/2000/svg"
   xmlns="http://www.w3.org/2000/svg"
   xmlns:sodipodi="http://sodipodi.sourceforge.net/DTD/sodipodi-0.dtd"
   xmlns:inkscape="http://www.inkscape.org/namespaces/inkscape"
   viewBox="-7204 -6550.339 485.755 113.033"
   version="1.1"
   id="svg1963"
   sodipodi:docname="loscar.svg"
   inkscape:version="0.92.5 (0.92.5+69)">
  <metadata
     id="metadata1969">
    <rdf:RDF>
      <cc:Work
         rdf:about="">
        <dc:format>image/svg+xml</dc:format>
        <dc:type
           rdf:resource="http://purl.org/dc/dcmitype/StillImage" />
      </cc:Work>
    </rdf:RDF>
  </metadata>
  <defs
     id="defs1967" />
  <sodipodi:namedview
     pagecolor="#ffffff"
     bordercolor="#666666"
     borderopacity="1"
     objecttolerance="10"
     gridtolerance="10"
     guidetolerance="10"
     inkscape:pageopacity="0"
     inkscape:pageshadow="2"
     inkscape:window-width="1342"
     inkscape:window-height="728"
     id="namedview1965"
     showgrid="false"
     inkscape:zoom="0.69994132"
     inkscape:cx="48.5755"
     inkscape:cy="56.516499"
     inkscape:window-x="12"
     inkscape:window-y="28"
     inkscape:window-maximized="0"
     inkscape:current-layer="svg1963" />
  <g
     data-name="Group 5"
     id="g1961"
     style="fill:#000000;fill-opacity:1">
    <path
       data-name="Path 23"
       d="M-6780.555-6484.229c2.47 1.33 3.04 1.71 3.04 2.28a1.045 1.045 0 0 1-.57.95l-3.8 4.749c-4.369 5.509-6.459 9.119-6.459 13.488 0 8.359 7.789 12.538 19.567 12.538 22.416 0 39.7-16.147 49.772-33.055a3.537 3.537 0 0 0 .76-2.09 1.2 1.2 0 0 0-1.33-1.33c-.76 0-1.52.57-2.28 1.9-9.5 15.578-26.216 29.445-46.543 29.445-7.979 0-13.488-2.85-13.488-7.6 0-2.66 1.14-5.319 4.749-9.878l4.179-5.129a7.928 7.928 0 0 0 1.9-4.749c0-3.419-3.229-5.129-6.649-7.029-.95-.57-2.09-1.14-5.509-3.04l3.23-3.419c3.229-3.419 4.369-5.319 4.939-6.649a6.735 6.735 0 0 0 .57-2.09c0-.57-.19-.95-.95-.95-3.229 0-11.588 7.6-12.918 9.309a6.033 6.033 0 0 0-1.52 3.8v.57c-20.706 21.847-35.335 35.335-45.782 35.335-3.8 0-4.749-1.71-4.749-3.609 0-2.66 1.52-6.079 3.989-9.878 1.52-2.28 3.04-4.369 4.559-6.649 1.14-1.52 2.28-3.419 3.419-4.939a9.009 9.009 0 0 0 1.71-4.559c0-.95-.38-1.14-.95-1.14a11.262 11.262 0 0 0-3.229.76v-.76c-.57-1.9-2.28-2.09-4.559-2.09-9.119 0-18.617 2.85-27.356 7.6-19.377 10.638-38.944 25.646-61.171 25.646-7.409 0-10.828-3.609-10.828-8.549 0-13.108 15.768-19.947 24.886-19.947 3.42 0 6.079.76 6.079 2.85a5.678 5.678 0 0 1-.95 3.229 7.168 7.168 0 0 0-.95 3.04 2.195 2.195 0 0 0 2.28 2.28c1.52 0 2.47-.95 3.229-2.47a13.943 13.943 0 0 0 1.71-6.079c0-4.749-3.8-8.359-11.588-8.359-12.348 0-31.155 9.309-31.155 25.456 0 8.549 5.509 13.868 16.907 13.868 16.717 0 34.385-10.068 49.2-19.187a19.933 19.933 0 0 0-2.09 8.929c0 6.269 3.609 10.068 11.018 10.068 7.029 0 13.488-4.369 19.187-9.878v.95c0 4.749 2.09 8.929 10.448 8.929 12.918 0 26.976-13.678 49.012-37.044 1.52 1.33 3.04 1.9 7.029 4.179m-419.451 46.35c22.037-8.929 38.564-17.857 54.9-29.445-.19 1.9-.38 3.609-.38 5.129 0 11.968 6.079 17.477 18.047 17.477 14.628 0 30.775-12.158 45.783-26.976 1.33-1.33 1.9-2.47 1.9-3.229a.869.869 0 0 0-.76-.95c-.76 0-1.71.57-3.04 1.71-15.958 14.248-30.205 24.316-43.693 24.316-7.789 0-11.968-3.23-11.968-11.968a49.245 49.245 0 0 1 1.522-11.019c4.939-3.609 9.878-7.6 15.008-11.968 23.936-20.14 48.442-41.414 48.442-56.611 0-5.319-2.66-8.929-8.739-8.929-19.947 0-52.052 45.023-60.411 75.228a256.42 256.42 0 0 1-57.75 33.625c-2.09.947-2.85 1.9-2.85 2.847 0 .76.76 1.33 1.9 1.33a4.953 4.953 0 0 0 2.09-.57m232.71-44.45a107.82 107.82 0 0 0-2.47 11.018c-15.2 5.319-22.037 11.208-22.037 17.477 0 6.839 5.129 9.119 9.878 9.119 8.359 0 14.248-7.219 17.667-24.126 5.509-1.9 12.348-3.989 20.327-6.079 1.52-.38 2.28-.95 2.28-1.9 0-.76-.57-1.14-1.52-1.14a21.8 21.8 0 0 0-2.66.38c-6.079 1.33-12.158 2.66-17.667 4.179a121.524 121.524 0 0 1 3.419-13.3l.57-.38c4.559-3.229 6.459-6.649 6.459-9.119 0-1.33-.57-2.66-3.04-2.66-3.609 0-6.839 3.609-9.309 10.258-8.549 4.749-18.047 7.789-27.736 7.789a49.284 49.284 0 0 1-25.261-7.216c-.38-2.28-1.52-3.8-4.179-3.8-16.147 0-34 15.768-34 29.635 0 8.359 4.749 11.968 11.588 11.968 16.337 0 26.976-19 28.306-31.535a56.474 56.474 0 0 0 23.932 5.322 57.748 57.748 0 0 0 25.453-5.89m-116.069-62.501c2.09 0 2.85 1.33 2.85 3.419 0 12.918-23.176 33.055-45.593 52.052-2.85 2.47-5.7 4.939-8.549 7.219 10.448-27.736 36.854-62.69 51.292-62.69m61.361 59.651c0 9.5-8.929 29.445-21.467 29.445-4.559 0-6.839-2.47-6.839-6.649 0-11.208 14.438-23.746 28.306-24.886v2.09m188.261 1.33c-2.66 3.8-5.129 7.409-7.789 10.638-7.409 9.309-15.578 16.907-23.936 16.907-3.609 0-5.129-1.9-5.129-4.749 0-15.008 23.366-23.746 36.094-23.746a3.7 3.7 0 0 0 1.52-.19c-.19.38-.57.76-.76 1.14m-212.953-41.79c0 7.219-6.459 14.818-13.108 18.047-.76.38-2.09 1.14-2.09 2.28s.76 1.52 1.71 1.52a4.953 4.953 0 0 0 2.09-.57c9.878-4.369 18.237-12.348 18.237-21.847 0-2.09-1.71-3.04-3.419-3.04-2.47.19-3.419 1.33-3.419 3.609m65.35 75.228c-1.33 0-4.179-.38-4.179-3.8 0-4.179 4.369-8.169 14.628-12.348-2.47 11.968-6.079 16.148-10.448 16.148"
       fill="#ae9a63"
       id="path1959"
       style="fill:#000000;fill-opacity:1" />
  </g>
</svg>
