<?xml version="1.0" encoding="UTF-8" standalone="no"?>
<svg
   xmlns:dc="http://purl.org/dc/elements/1.1/"
   xmlns:cc="http://creativecommons.org/ns#"
   xmlns:rdf="http://www.w3.org/1999/02/22-rdf-syntax-ns#"
   xmlns:svg="http://www.w3.org/2000/svg"
   xmlns="http://www.w3.org/2000/svg"
   xmlns:sodipodi="http://sodipodi.sourceforge.net/DTD/sodipodi-0.dtd"
   xmlns:inkscape="http://www.inkscape.org/namespaces/inkscape"
   id="svg1381"
   version="1.1"
   viewBox="0 0 70 55"
   height="55mm"
   width="70mm"
   sodipodi:docname="maidstone-tunbridge-wells-nhs.svg"
   inkscape:version="0.92.5 (2060ec1f9f, 2020-04-08)">
  <sodipodi:namedview
     pagecolor="#ffffff"
     bordercolor="#666666"
     borderopacity="1"
     objecttolerance="10"
     gridtolerance="10"
     guidetolerance="10"
     inkscape:pageopacity="0"
     inkscape:pageshadow="2"
     inkscape:window-width="2800"
     inkscape:window-height="1672"
     id="namedview2964"
     showgrid="false"
     inkscape:zoom="1.135303"
     inkscape:cx="132.28346"
     inkscape:cy="103.93701"
     inkscape:window-x="80"
     inkscape:window-y="54"
     inkscape:window-maximized="1"
     inkscape:current-layer="svg1381" />
  <defs
     id="defs1375" />
  <metadata
     id="metadata1378">
    <rdf:RDF>
      <cc:Work
         rdf:about="">
        <dc:format>image/svg+xml</dc:format>
        <dc:type
           rdf:resource="http://purl.org/dc/dcmitype/StillImage" />
        <dc:title />
      </cc:Work>
    </rdf:RDF>
  </metadata>
  <g
     transform="translate(-46.113098,-92.136902)"
     id="layer1">
    <g
       id="g1956"
       transform="translate(-18.285281,-59.659979)">
      <g
         aria-label="Maidstone andTunbridge Wells"
         transform="scale(0.98426677,1.0159847)"
         style="font-style:normal;font-variant:normal;font-weight:normal;font-stretch:normal;font-size:6.94454861px;line-height:1.25;font-family:Frutiger;-inkscape-font-specification:Frutiger;letter-spacing:0px;word-spacing:0px;fill:#000000;fill-opacity:1;stroke:none;stroke-width:0.26458332"
         id="text1231">
        <path
           d="m 85.20602,185.87629 h -0.935886 v -2.73645 q 0.02035,-0.62393 0.06104,-1.25124 h -0.02713 q -0.06782,0.27466 -0.139026,0.4815 l -1.180031,3.50619 h -0.861287 l -1.000313,-2.89583 q -0.186499,-0.54254 -0.318744,-1.09186 h -0.02713 q 0.06782,0.67139 0.06782,1.21733 v 2.77036 h -0.888414 v -4.63196 h 1.478429 l 0.840942,2.43127 q 0.196671,0.58662 0.298398,1.13934 0.06104,-0.29162 0.11529,-0.50525 0.05765,-0.21701 0.128854,-0.43403 l 0.888414,-2.63133 h 1.498775 z"
           style="font-style:normal;font-variant:normal;font-weight:bold;font-stretch:normal;font-family:Frutiger;-inkscape-font-specification:'Frutiger Bold';text-align:end;text-anchor:end;stroke-width:0.26458332"
           id="path3509" />
        <path
           d="m 89.081811,185.87629 h -0.793469 l -0.01356,-0.51542 q -0.159372,0.27466 -0.447598,0.42386 -0.284835,0.14581 -0.620533,0.14581 -0.34248,0 -0.613752,-0.11868 -0.26788,-0.11868 -0.423861,-0.35944 -0.155981,-0.24414 -0.155981,-0.59001 0,-0.64427 0.505243,-0.88163 0.505243,-0.23737 1.230894,-0.23737 0.105118,0 0.135636,0.003 0.03052,0 0.135635,0.007 0.105118,0.003 0.213627,0.0102 0,-0.38317 -0.1865,-0.56967 -0.186499,-0.1865 -0.576451,-0.1865 -0.590016,0 -1.064741,0.37639 l -0.02713,-0.77312 q 0.552716,-0.23398 1.196985,-0.23398 0.240754,0 0.478116,0.0475 0.237363,0.0475 0.437425,0.15937 0.203454,0.10851 0.335699,0.29162 0.135635,0.1831 0.176326,0.42047 0.04408,0.23397 0.04408,0.55949 0,0.3357 0,0.67479 0.0034,0.33909 0.0068,0.62053 0.0068,0.27806 0.02713,0.72566 z m -0.83416,-1.56321 q -0.03391,-0.007 -0.105118,-0.007 h -0.108508 q -0.291617,0 -0.535761,0.0339 -0.240754,0.0305 -0.423862,0.16276 -0.179717,0.12886 -0.179717,0.37978 0,0.20346 0.159372,0.32553 0.162763,0.11868 0.376389,0.11868 0.403516,0 0.610361,-0.2984 0.206844,-0.2984 0.206844,-0.71548 z"
           style="font-style:normal;font-variant:normal;font-weight:bold;font-stretch:normal;font-family:Frutiger;-inkscape-font-specification:'Frutiger Bold';text-align:end;text-anchor:end;stroke-width:0.26458332"
           id="path3511" />
        <path
           d="M 90.838294,185.87629 H 89.94988 v -3.43837 h 0.888414 z m 0.01356,-4.06229 h -0.915541 v -0.84095 h 0.915541 z"
           style="font-style:normal;font-variant:normal;font-weight:bold;font-stretch:normal;font-family:Frutiger;-inkscape-font-specification:'Frutiger Bold';text-align:end;text-anchor:end;stroke-width:0.26458332"
           id="path3513" />
        <path
           d="m 94.914146,185.87629 h -0.840941 l -0.01356,-0.58324 q -0.15259,0.30857 -0.437425,0.47473 -0.281444,0.16276 -0.637488,0.16276 -0.372998,0 -0.654442,-0.14581 -0.278053,-0.1492 -0.450989,-0.40012 -0.172935,-0.25093 -0.257707,-0.56967 -0.08138,-0.31875 -0.08138,-0.66801 0,-0.46116 0.15259,-0.86468 0.15259,-0.4069 0.471334,-0.65444 0.322135,-0.25093 0.800251,-0.25093 0.359435,0 0.627315,0.15938 0.267881,0.15937 0.440816,0.47133 -0.03391,-0.25093 -0.03391,-0.61036 v -1.52251 h 0.888414 v 4.00125 q 0.0068,0.33231 0.01017,0.58324 0.0068,0.25092 0.01695,0.41708 z m -0.901977,-1.69545 q 0,-0.26788 -0.08477,-0.50524 -0.08477,-0.24076 -0.267881,-0.39674 -0.179717,-0.15937 -0.447598,-0.15937 -0.400125,0 -0.576452,0.30857 -0.172935,0.30518 -0.172935,0.73922 0,0.4069 0.193281,0.73582 0.193281,0.32892 0.56967,0.32892 0.254317,0 0.434034,-0.15259 0.183108,-0.15599 0.267881,-0.39335 0.08477,-0.24075 0.08477,-0.50524 z"
           style="font-style:normal;font-variant:normal;font-weight:bold;font-stretch:normal;font-family:Frutiger;-inkscape-font-specification:'Frutiger Bold';text-align:end;text-anchor:end;stroke-width:0.26458332"
           id="path3515" />
        <path
           d="m 95.663534,185.78473 0.04069,-0.74939 q 0.474725,0.24415 0.87485,0.24415 0.220408,0 0.41708,-0.095 0.196672,-0.0949 0.196672,-0.295 0,-0.17294 -0.281444,-0.29501 -0.281445,-0.12207 -0.56628,-0.24076 -0.281444,-0.11868 -0.488288,-0.3323 -0.206845,-0.21363 -0.206845,-0.5968 0,-0.36622 0.213627,-0.60019 0.217017,-0.23397 0.549324,-0.33909 0.332308,-0.10851 0.688352,-0.10851 0.376389,0 0.847723,0.13225 l -0.06443,0.66461 q -0.413689,-0.13224 -0.729042,-0.13224 -0.230581,0 -0.427253,0.078 -0.196671,0.078 -0.196671,0.27127 0,0.16616 0.26788,0.27805 0.271271,0.10851 0.566279,0.22041 0.298399,0.10851 0.508634,0.32892 0.213626,0.21702 0.213626,0.62392 0,0.36961 -0.206844,0.61715 -0.203454,0.24753 -0.528979,0.36282 -0.325526,0.11529 -0.688352,0.11529 -0.413689,0 -1.000313,-0.15259 z"
           style="font-style:normal;font-variant:normal;font-weight:bold;font-stretch:normal;font-family:Frutiger;-inkscape-font-specification:'Frutiger Bold';text-align:end;text-anchor:end;stroke-width:0.26458332"
           id="path3517" />
        <path
           d="m 100.72614,185.14046 0.0305,0.69514 q -0.33908,0.0678 -0.60018,0.0678 -0.437429,0 -0.691746,-0.15937 -0.254317,-0.16276 -0.356043,-0.45777 -0.101727,-0.2984 -0.101727,-0.72904 v -1.43774 h -0.647661 v -0.66122 h 0.661224 v -0.69853 l 0.888414,-0.29161 v 0.99014 h 0.783299 v 0.66122 h -0.783299 v 1.25124 q 0,0.40012 0.08477,0.61036 0.08817,0.20684 0.427256,0.20684 0.12546,0 0.30518,-0.0475 z"
           style="font-style:normal;font-variant:normal;font-weight:bold;font-stretch:normal;font-family:Frutiger;-inkscape-font-specification:'Frutiger Bold';text-align:end;text-anchor:end;stroke-width:0.26458332"
           id="path3519" />
        <path
           d="m 104.73417,184.18762 q 0,0.39674 -0.12885,0.72904 -0.12886,0.32892 -0.36622,0.56289 -0.23397,0.23058 -0.56289,0.35944 -0.32891,0.12885 -0.73243,0.12885 -0.53237,0 -0.93589,-0.23058 -0.40351,-0.23058 -0.62392,-0.65105 -0.21702,-0.42047 -0.21702,-0.94606 0,-0.52559 0.2238,-0.9325 0.2238,-0.4069 0.62732,-0.6307 0.4069,-0.22719 0.93249,-0.22719 0.40691,0 0.73583,0.13563 0.3323,0.13564 0.56627,0.38656 0.23398,0.24754 0.35605,0.58324 0.12546,0.3357 0.12546,0.73243 z m -0.92232,-0.0203 q 0,-0.27806 -0.0916,-0.54594 -0.0882,-0.26788 -0.28483,-0.44081 -0.19667,-0.17294 -0.4849,-0.17294 -0.27466,0 -0.47472,0.16955 -0.19667,0.16954 -0.29162,0.43403 -0.0949,0.2611 -0.0949,0.52898 0,0.28822 0.0882,0.55611 0.0915,0.26788 0.28822,0.44081 0.19668,0.16955 0.49847,0.16955 0.21362,0 0.37638,-0.10173 0.16277,-0.10512 0.26449,-0.26449 0.10173,-0.16276 0.15259,-0.36283 0.0543,-0.20345 0.0543,-0.41029 z"
           style="font-style:normal;font-variant:normal;font-weight:bold;font-stretch:normal;font-family:Frutiger;-inkscape-font-specification:'Frutiger Bold';text-align:end;text-anchor:end;stroke-width:0.26458332"
           id="path3521" />
        <path
           d="m 106.28381,182.43792 0.0203,0.54933 q 0.41368,-0.60358 1.15968,-0.60358 0.69174,0 0.9325,0.41029 0.24075,0.40691 0.24075,1.14613 v 1.9362 h -0.88841 v -1.72936 q 0,-0.45777 -0.11869,-0.74261 -0.11529,-0.28483 -0.50524,-0.28483 -0.41708,0 -0.58662,0.3357 -0.16955,0.33231 -0.16955,0.79008 v 1.63102 h -0.8918 v -2.18713 q 0,-0.72904 -0.0339,-1.25124 z"
           style="font-style:normal;font-variant:normal;font-weight:bold;font-stretch:normal;font-family:Frutiger;-inkscape-font-specification:'Frutiger Bold';text-align:end;text-anchor:end;stroke-width:0.26458332"
           id="path3523" />
        <path
           d="m 112.26874,184.96074 0.0136,0.76974 q -0.54593,0.23736 -1.18003,0.23736 -0.42386,0 -0.75617,-0.11868 -0.32892,-0.12207 -0.56289,-0.35605 -0.23397,-0.23736 -0.35604,-0.56967 -0.12207,-0.33569 -0.12207,-0.76295 0,-0.39334 0.1119,-0.72226 0.11529,-0.3323 0.32891,-0.57306 0.21363,-0.24414 0.52559,-0.37978 0.31535,-0.13563 0.71209,-0.13563 0.38656,0 0.68157,0.13902 0.29501,0.13903 0.47811,0.38317 0.1865,0.24415 0.27806,0.56628 0.0915,0.31875 0.0915,0.70192 0,0.0678 -0.003,0.10173 -0.003,0.0339 -0.007,0.0848 -0.003,0.0509 -0.0102,0.11868 h -2.31259 q 0.0339,0.40691 0.31535,0.6341 0.28483,0.22719 0.70531,0.22719 0.47472,0 1.06813,-0.34588 z m -0.60358,-1.13255 q -0.007,-0.23058 -0.0848,-0.42387 -0.0746,-0.19328 -0.23398,-0.31196 -0.15598,-0.11868 -0.38995,-0.11868 -0.24075,0 -0.41369,0.11868 -0.16954,0.11529 -0.26449,0.30857 -0.0915,0.19328 -0.1119,0.42726 z"
           style="font-style:normal;font-variant:normal;font-weight:bold;font-stretch:normal;font-family:Frutiger;-inkscape-font-specification:'Frutiger Bold';text-align:end;text-anchor:end;stroke-width:0.26458332"
           id="path3525" />
        <path
           d="m 118.01969,185.87629 h -0.79347 l -0.0136,-0.51542 q -0.15937,0.27466 -0.4476,0.42386 -0.28484,0.14581 -0.62053,0.14581 -0.34248,0 -0.61376,-0.11868 -0.26788,-0.11868 -0.42386,-0.35944 -0.15598,-0.24414 -0.15598,-0.59001 0,-0.64427 0.50524,-0.88163 0.50525,-0.23737 1.2309,-0.23737 0.10512,0 0.13563,0.003 0.0305,0 0.13564,0.007 0.10512,0.003 0.21363,0.0102 0,-0.38317 -0.1865,-0.56967 -0.1865,-0.1865 -0.57645,-0.1865 -0.59002,0 -1.06474,0.37639 l -0.0271,-0.77312 q 0.55271,-0.23398 1.19698,-0.23398 0.24076,0 0.47812,0.0475 0.23736,0.0475 0.43742,0.15937 0.20346,0.10851 0.3357,0.29162 0.13564,0.1831 0.17633,0.42047 0.0441,0.23397 0.0441,0.55949 0,0.3357 0,0.67479 0.003,0.33909 0.007,0.62053 0.007,0.27806 0.0271,0.72566 z m -0.83416,-1.56321 q -0.0339,-0.007 -0.10512,-0.007 h -0.10851 q -0.29161,0 -0.53576,0.0339 -0.24075,0.0305 -0.42386,0.16276 -0.17972,0.12886 -0.17972,0.37978 0,0.20346 0.15938,0.32553 0.16276,0.11868 0.37638,0.11868 0.40352,0 0.61037,-0.2984 0.20684,-0.2984 0.20684,-0.71548 z"
           style="font-style:normal;font-variant:normal;font-weight:bold;font-stretch:normal;font-family:Frutiger;-inkscape-font-specification:'Frutiger Bold';text-align:end;text-anchor:end;stroke-width:0.26458332"
           id="path3527" />
        <path
           d="m 119.7287,182.43792 0.0203,0.54933 q 0.41369,-0.60358 1.15969,-0.60358 0.69174,0 0.9325,0.41029 0.24075,0.40691 0.24075,1.14613 v 1.9362 h -0.88842 v -1.72936 q 0,-0.45777 -0.11868,-0.74261 -0.11529,-0.28483 -0.50524,-0.28483 -0.41708,0 -0.58662,0.3357 -0.16955,0.33231 -0.16955,0.79008 v 1.63102 h -0.8918 v -2.18713 q 0,-0.72904 -0.0339,-1.25124 z"
           style="font-style:normal;font-variant:normal;font-weight:bold;font-stretch:normal;font-family:Frutiger;-inkscape-font-specification:'Frutiger Bold';text-align:end;text-anchor:end;stroke-width:0.26458332"
           id="path3529" />
        <path
           d="m 126.12392,185.87629 h -0.84094 l -0.0136,-0.58324 q -0.15259,0.30857 -0.43743,0.47473 -0.28144,0.16276 -0.63748,0.16276 -0.373,0 -0.65445,-0.14581 -0.27805,-0.1492 -0.45099,-0.40012 -0.17293,-0.25093 -0.2577,-0.56967 -0.0814,-0.31875 -0.0814,-0.66801 0,-0.46116 0.1526,-0.86468 0.15259,-0.4069 0.47133,-0.65444 0.32213,-0.25093 0.80025,-0.25093 0.35943,0 0.62732,0.15938 0.26788,0.15937 0.44081,0.47133 -0.0339,-0.25093 -0.0339,-0.61036 v -1.52251 h 0.88842 v 4.00125 q 0.007,0.33231 0.0102,0.58324 0.007,0.25092 0.0169,0.41708 z m -0.90197,-1.69545 q 0,-0.26788 -0.0848,-0.50524 -0.0848,-0.24076 -0.26788,-0.39674 -0.17971,-0.15937 -0.44759,-0.15937 -0.40013,0 -0.57646,0.30857 -0.17293,0.30518 -0.17293,0.73922 0,0.4069 0.19328,0.73582 0.19328,0.32892 0.56967,0.32892 0.25432,0 0.43403,-0.15259 0.18311,-0.15599 0.26788,-0.39335 0.0848,-0.24075 0.0848,-0.50524 z"
           style="font-style:normal;font-variant:normal;font-weight:bold;font-stretch:normal;font-family:Frutiger;-inkscape-font-specification:'Frutiger Bold';text-align:end;text-anchor:end;stroke-width:0.26458332"
           id="path3531" />
        <path
           d="m 77.922382,192.09795 h -0.935886 v -3.86901 h -1.322449 v -0.76295 h 3.590956 v 0.76295 h -1.332621 z"
           style="font-style:normal;font-variant:normal;font-weight:bold;font-stretch:normal;font-family:Frutiger;-inkscape-font-specification:'Frutiger Bold';text-align:end;text-anchor:end;stroke-width:0.26458332"
           id="path3533" />
        <path
           d="m 82.866304,188.65958 v 2.09896 q 0.0068,0.14581 0.01356,0.45099 0.01017,0.30518 0.01695,0.48829 0.0068,0.18311 0.02035,0.40013 h -0.840941 l -0.02713,-0.52898 q -0.118682,0.1865 -0.288226,0.31535 -0.166154,0.12885 -0.376389,0.20006 -0.210236,0.0678 -0.420471,0.0678 -0.478116,0 -0.745997,-0.19667 -0.26788,-0.19667 -0.369607,-0.53915 -0.09834,-0.34248 -0.09834,-0.81721 v -1.93959 h 0.888414 v 1.65476 q 0,0.32213 0.03052,0.54593 0.03391,0.22041 0.172936,0.38656 0.139026,0.16276 0.42047,0.16276 0.403517,0 0.559498,-0.33908 0.155981,-0.34248 0.155981,-0.80026 v -1.61067 z"
           style="font-style:normal;font-variant:normal;font-weight:bold;font-stretch:normal;font-family:Frutiger;-inkscape-font-specification:'Frutiger Bold';text-align:end;text-anchor:end;stroke-width:0.26458332"
           id="path3535" />
        <path
           d="m 84.653304,188.65958 0.02035,0.54933 q 0.413689,-0.60358 1.159685,-0.60358 0.691742,0 0.932496,0.41029 0.240753,0.40691 0.240753,1.14613 v 1.9362 H 86.11817 v -1.72936 q 0,-0.45777 -0.118681,-0.7426 -0.115291,-0.28484 -0.505243,-0.28484 -0.41708,0 -0.586625,0.3357 -0.169544,0.33231 -0.169544,0.79008 v 1.63102 h -0.891805 v -2.18713 q 0,-0.72904 -0.03391,-1.25124 z"
           style="font-style:normal;font-variant:normal;font-weight:bold;font-stretch:normal;font-family:Frutiger;-inkscape-font-specification:'Frutiger Bold';text-align:end;text-anchor:end;stroke-width:0.26458332"
           id="path3537" />
        <path
           d="m 88.70203,192.09795 h -0.83416 v -5.00157 h 0.888414 v 1.52929 q 0,0.36961 -0.03391,0.63749 0.176327,-0.33909 0.450989,-0.50185 0.274662,-0.16277 0.668006,-0.16277 0.359435,0 0.620533,0.13903 0.26449,0.13564 0.430644,0.37639 0.166154,0.24075 0.247535,0.54593 0.08138,0.30179 0.08138,0.64766 0,0.36622 -0.0746,0.69514 -0.0746,0.32552 -0.237363,0.58323 -0.162763,0.25432 -0.440816,0.4103 -0.278053,0.15598 -0.664615,0.15598 -0.762951,0 -1.081695,-0.5968 z m 1.597111,-1.7158 q 0,-0.41368 -0.179718,-0.72565 -0.176326,-0.31535 -0.556106,-0.31535 -0.400126,0 -0.600188,0.32553 -0.200063,0.32552 -0.200063,0.7426 0,0.41708 0.196672,0.73243 0.196672,0.31197 0.590015,0.31197 0.257708,0 0.423862,-0.16616 0.169544,-0.16615 0.247535,-0.41369 0.07799,-0.25092 0.07799,-0.49168 z"
           style="font-style:normal;font-variant:normal;font-weight:bold;font-stretch:normal;font-family:Frutiger;-inkscape-font-specification:'Frutiger Bold';text-align:end;text-anchor:end;stroke-width:0.26458332"
           id="path3539" />
        <path
           d="m 92.852483,192.09795 h -0.888414 v -2.40415 q -0.01695,-0.85789 -0.02713,-1.03422 h 0.807033 l 0.02034,0.86807 q 0.115291,-0.40691 0.349262,-0.65105 0.237363,-0.24415 0.617143,-0.24415 0.11529,0 0.261098,0.0339 v 0.83416 q -0.176326,-0.0475 -0.311962,-0.0475 -0.315353,0 -0.501852,0.16615 -0.186499,0.16616 -0.257708,0.42726 -0.06782,0.2577 -0.06782,0.56628 v 0.0678 z"
           style="font-style:normal;font-variant:normal;font-weight:bold;font-stretch:normal;font-family:Frutiger;-inkscape-font-specification:'Frutiger Bold';text-align:end;text-anchor:end;stroke-width:0.26458332"
           id="path3541" />
        <path
           d="m 95.429562,192.09795 h -0.888414 v -3.43837 h 0.888414 z m 0.01356,-4.06229 h -0.915541 v -0.84094 h 0.915541 z"
           style="font-style:normal;font-variant:normal;font-weight:bold;font-stretch:normal;font-family:Frutiger;-inkscape-font-specification:'Frutiger Bold';text-align:end;text-anchor:end;stroke-width:0.26458332"
           id="path3543" />
        <path
           d="m 99.505414,192.09795 h -0.840941 l -0.01356,-0.58324 q -0.15259,0.30857 -0.437425,0.47473 -0.281444,0.16276 -0.637488,0.16276 -0.372998,0 -0.654442,-0.14581 -0.278053,-0.1492 -0.450989,-0.40012 -0.172936,-0.25093 -0.257708,-0.56967 -0.08138,-0.31875 -0.08138,-0.66801 0,-0.46116 0.15259,-0.86468 0.15259,-0.4069 0.471334,-0.65444 0.322135,-0.25093 0.800251,-0.25093 0.359434,0 0.627315,0.15938 0.26788,0.15937 0.440816,0.47133 -0.03391,-0.25093 -0.03391,-0.61036 v -1.52251 h 0.888414 v 4.00125 q 0.0068,0.33231 0.01017,0.58324 0.0068,0.25092 0.01695,0.41708 z m -0.901977,-1.69545 q 0,-0.26788 -0.08477,-0.50524 -0.08477,-0.24076 -0.26788,-0.39674 -0.179718,-0.15937 -0.447598,-0.15937 -0.400125,0 -0.576452,0.30857 -0.172935,0.30518 -0.172935,0.73922 0,0.4069 0.19328,0.73582 0.193281,0.32892 0.56967,0.32892 0.254317,0 0.434035,-0.15259 0.183108,-0.15598 0.26788,-0.39335 0.08477,-0.24075 0.08477,-0.50524 z"
           style="font-style:normal;font-variant:normal;font-weight:bold;font-stretch:normal;font-family:Frutiger;-inkscape-font-specification:'Frutiger Bold';text-align:end;text-anchor:end;stroke-width:0.26458332"
           id="path3545" />
        <path
           d="m 102.7132,188.66636 h 0.84772 v 3.01451 q 0,0.93249 -0.43064,1.40722 -0.42725,0.47472 -1.35975,0.47472 -0.60358,0 -1.20376,-0.24414 l 0.0712,-0.76974 q 0.27467,0.13564 0.52898,0.21024 0.25771,0.0746 0.51881,0.0746 0.29162,0 0.54593,-0.12546 0.25432,-0.12547 0.36961,-0.36622 0.078,-0.16276 0.095,-0.35943 0.0203,-0.19668 0.0305,-0.57307 -0.16954,0.31536 -0.47472,0.50186 -0.30518,0.1865 -0.66462,0.1865 -0.46455,0 -0.7799,-0.24754 -0.31196,-0.24753 -0.45777,-0.64766 -0.14242,-0.40012 -0.14242,-0.8545 0,-0.46456 0.14581,-0.86129 0.1492,-0.40013 0.46455,-0.64427 0.31535,-0.24415 0.79008,-0.24415 0.373,0 0.65444,0.15259 0.28145,0.1526 0.43743,0.46456 z m -0.0339,1.6751 q 0,-0.17293 -0.0509,-0.35943 -0.0509,-0.1865 -0.1492,-0.32553 -0.0949,-0.14241 -0.25093,-0.23058 -0.15598,-0.0915 -0.34248,-0.0915 -0.37978,0 -0.56967,0.2984 -0.1865,0.2984 -0.1865,0.70191 0,0.40013 0.18989,0.72226 0.19328,0.31875 0.56628,0.31875 0.26449,0 0.44082,-0.15259 0.17633,-0.15259 0.26449,-0.39335 0.0882,-0.24075 0.0882,-0.48829 z"
           style="font-style:normal;font-variant:normal;font-weight:bold;font-stretch:normal;font-family:Frutiger;-inkscape-font-specification:'Frutiger Bold';text-align:end;text-anchor:end;stroke-width:0.26458332"
           id="path3547" />
        <path
           d="m 107.19257,191.18241 0.0136,0.76973 q -0.54593,0.23736 -1.18003,0.23736 -0.42386,0 -0.75617,-0.11868 -0.32891,-0.12207 -0.56288,-0.35604 -0.23398,-0.23737 -0.35605,-0.56967 -0.12207,-0.3357 -0.12207,-0.76296 0,-0.39334 0.1119,-0.72226 0.11529,-0.3323 0.32892,-0.57306 0.21362,-0.24414 0.52558,-0.37978 0.31536,-0.13563 0.71209,-0.13563 0.38656,0 0.68157,0.13902 0.29501,0.13903 0.47812,0.38318 0.1865,0.24414 0.27805,0.56627 0.0915,0.31875 0.0915,0.70192 0,0.0678 -0.003,0.10173 -0.003,0.0339 -0.007,0.0848 -0.003,0.0509 -0.0102,0.11868 h -2.31259 q 0.0339,0.40691 0.31535,0.6341 0.28484,0.22719 0.70531,0.22719 0.47472,0 1.06813,-0.34587 z m -0.60358,-1.13256 q -0.007,-0.23058 -0.0848,-0.42386 -0.0746,-0.19329 -0.23397,-0.31197 -0.15598,-0.11868 -0.38996,-0.11868 -0.24075,0 -0.41368,0.11868 -0.16955,0.11529 -0.26449,0.30857 -0.0916,0.19329 -0.1119,0.42726 z"
           style="font-style:normal;font-variant:normal;font-weight:bold;font-stretch:normal;font-family:Frutiger;-inkscape-font-specification:'Frutiger Bold';text-align:end;text-anchor:end;stroke-width:0.26458332"
           id="path3549" />
        <path
           d="m 115.01875,192.09795 h -1.18681 l -0.41708,-1.74292 q -0.0373,-0.17633 -0.1119,-0.4849 -0.0712,-0.30857 -0.14242,-0.63749 -0.0712,-0.32891 -0.10851,-0.51202 -0.0339,-0.1865 -0.0746,-0.49168 h -0.0271 q -0.0475,0.4069 -0.13903,0.85111 -0.0882,0.44082 -0.19328,0.8579 l -0.48829,2.16 h -1.20038 l -1.24445,-4.63196 h 0.9664 l 0.44421,1.77004 q 0.32552,1.15291 0.43742,2.02097 h 0.0271 q 0.0542,-0.32891 0.14242,-0.80025 0.0915,-0.47472 0.17293,-0.89519 l 0.47134,-2.09557 h 1.24785 l 0.46116,1.89551 q 0.27127,1.10543 0.37978,1.8955 h 0.0271 q 0.0475,-0.31535 0.12208,-0.70191 0.0746,-0.38656 0.17293,-0.81042 0.10173,-0.42387 0.17294,-0.68835 l 0.39334,-1.59033 h 0.91893 z"
           style="font-style:normal;font-variant:normal;font-weight:bold;font-stretch:normal;font-family:Frutiger;-inkscape-font-specification:'Frutiger Bold';text-align:end;text-anchor:end;stroke-width:0.26458332"
           id="path3551" />
        <path
           d="m 119.51846,191.18241 0.0136,0.76973 q -0.54594,0.23736 -1.18003,0.23736 -0.42387,0 -0.75617,-0.11868 -0.32892,-0.12207 -0.56289,-0.35604 -0.23397,-0.23737 -0.35604,-0.56967 -0.12208,-0.3357 -0.12208,-0.76296 0,-0.39334 0.1119,-0.72226 0.11529,-0.3323 0.32892,-0.57306 0.21363,-0.24414 0.52559,-0.37978 0.31535,-0.13563 0.71209,-0.13563 0.38656,0 0.68156,0.13902 0.29501,0.13903 0.47812,0.38318 0.1865,0.24414 0.27805,0.56627 0.0916,0.31875 0.0916,0.70192 0,0.0678 -0.003,0.10173 -0.003,0.0339 -0.007,0.0848 -0.003,0.0509 -0.0102,0.11868 h -2.31259 q 0.0339,0.40691 0.31536,0.6341 0.28483,0.22719 0.7053,0.22719 0.47473,0 1.06813,-0.34587 z m -0.60358,-1.13256 q -0.007,-0.23058 -0.0848,-0.42386 -0.0746,-0.19329 -0.23397,-0.31197 -0.15598,-0.11868 -0.38995,-0.11868 -0.24076,0 -0.41369,0.11868 -0.16955,0.11529 -0.26449,0.30857 -0.0915,0.19329 -0.1119,0.42726 z"
           style="font-style:normal;font-variant:normal;font-weight:bold;font-stretch:normal;font-family:Frutiger;-inkscape-font-specification:'Frutiger Bold';text-align:end;text-anchor:end;stroke-width:0.26458332"
           id="path3553" />
        <path
           d="m 121.35294,192.09795 h -0.88842 v -5.00157 h 0.88842 z"
           style="font-style:normal;font-variant:normal;font-weight:bold;font-stretch:normal;font-family:Frutiger;-inkscape-font-specification:'Frutiger Bold';text-align:end;text-anchor:end;stroke-width:0.26458332"
           id="path3555" />
        <path
           d="m 123.13655,192.09795 h -0.88842 v -5.00157 h 0.88842 z"
           style="font-style:normal;font-variant:normal;font-weight:bold;font-stretch:normal;font-family:Frutiger;-inkscape-font-specification:'Frutiger Bold';text-align:end;text-anchor:end;stroke-width:0.26458332"
           id="path3557" />
        <path
           d="m 123.88593,192.00639 0.0407,-0.74939 q 0.47473,0.24415 0.87485,0.24415 0.22041,0 0.41708,-0.0949 0.19668,-0.0949 0.19668,-0.295 0,-0.17294 -0.28145,-0.29501 -0.28144,-0.12207 -0.56628,-0.24075 -0.28144,-0.11869 -0.48829,-0.33231 -0.20684,-0.21363 -0.20684,-0.5968 0,-0.36622 0.21363,-0.60019 0.21701,-0.23397 0.54932,-0.33909 0.33231,-0.10851 0.68835,-0.10851 0.37639,0 0.84773,0.13225 l -0.0644,0.66461 q -0.41369,-0.13224 -0.72904,-0.13224 -0.23058,0 -0.42726,0.078 -0.19667,0.078 -0.19667,0.27127 0,0.16616 0.26788,0.27805 0.27127,0.10851 0.56628,0.22041 0.2984,0.10851 0.50864,0.32892 0.21362,0.21702 0.21362,0.62392 0,0.36961 -0.20684,0.61715 -0.20346,0.24753 -0.52898,0.36282 -0.32553,0.11529 -0.68835,0.11529 -0.41369,0 -1.00032,-0.15259 z"
           style="font-style:normal;font-variant:normal;font-weight:bold;font-stretch:normal;font-family:Frutiger;-inkscape-font-specification:'Frutiger Bold';text-align:end;text-anchor:end;stroke-width:0.26458332"
           id="path3559" />
      </g>
      <g
         transform="translate(-6.505325e-7,120.7911)"
         id="g1259-6-5">
        <path
           style="opacity:1;fill:#196fc1;fill-opacity:1;stroke:none;stroke-width:13.22916603;stroke-linecap:round;stroke-linejoin:round;stroke-miterlimit:2;stroke-dasharray:none;stroke-dashoffset:0;stroke-opacity:1;paint-order:normal"
           d="M 81.578247,35.868095 H 124.2471 V 61.280302 H 81.578247 Z"
           id="rect1207-7-6" />
        <path
           style="opacity:1;fill:#ffffff;fill-opacity:1;stroke:none;stroke-width:13.22916603;stroke-linecap:round;stroke-linejoin:round;stroke-miterlimit:2;stroke-dasharray:none;stroke-dashoffset:0;stroke-opacity:1;paint-order:normal"
           d="M 82.369675,40.641895 H 123.39111 V 57.160528 H 82.369675 Z"
           id="rect1211-5-2" />
        <path
           id="path16-3-9"
           style="fill:#196fc1;fill-opacity:1;fill-rule:nonzero;stroke:none;stroke-width:0.03527778"
           d="M 124.21242,40.311164 H 81.548361 v 17.180092 h 42.664059 z m -25.510429,1.657624 -2.94534,13.828277 h -4.62195 l -2.90574,-9.568559 h -0.039 l -1.93319,9.568559 h -3.50515 l 2.96877,-13.828277 h 4.63771 l 2.84837,9.588963 h 0.0392 l 1.95137,-9.588963 z m 13.219369,0 -2.88756,13.828277 h -3.72193 l 1.23438,-5.922595 h -4.40214 l -1.23459,5.922595 h -3.722119 l 2.887959,-13.828277 h 3.72193 l -1.09337,5.290254 h 4.39992 l 1.0956,-5.290254 z m 10.69304,0.377182 -0.8972,2.753413 c -0.71659,-0.335969 -1.69258,-0.632543 -3.06555,-0.632543 -1.47257,0 -2.66816,0.215764 -2.66816,1.327109 0,1.959652 5.39612,1.228318 5.39612,5.428439 0,3.822533 -3.56515,4.81428 -6.7903,4.81428 -1.43317,0 -3.08655,-0.338798 -4.29992,-0.715778 l 0.87619,-2.81301 c 0.73497,0.476175 2.21037,0.79376 3.42373,0.79376 1.1564,0 2.96615,-0.218795 2.96615,-1.644694 0,-2.21966 -5.39591,-1.387111 -5.39591,-5.287829 0,-3.56778 3.14696,-4.637306 6.19351,-4.637306 1.71359,0 3.32514,0.1796 4.26134,0.614159" />
      </g>
      <g
         aria-label="NHS Trust"
         transform="scale(1.000319,0.99968111)"
         style="font-style:normal;font-variant:normal;font-weight:normal;font-stretch:normal;font-size:6.28654957px;line-height:1.25;font-family:Frutiger;-inkscape-font-specification:Frutiger;letter-spacing:0px;word-spacing:0px;fill:#196fc1;fill-opacity:1;stroke:none;stroke-width:0.26458338"
         id="text1335-9-6">
        <path
           d="m 99.854842,201.90382 h -1.019109 l -1.375182,-2.53242 q -0.131993,-0.23943 -0.346866,-0.74284 0.09516,0.65382 0.09516,1.0805 v 2.19476 h -0.804236 v -4.19308 h 0.997621 l 1.408949,2.53857 q 0.07367,0.13506 0.09516,0.19338 0.02456,0.0583 0.08902,0.22101 0.06446,0.16269 0.131993,0.32845 -0.07674,-0.43895 -0.07674,-1.02525 v -2.25616 h 0.804236 z"
           style="font-style:normal;font-variant:normal;font-weight:bold;font-stretch:normal;font-family:Frutiger;-inkscape-font-specification:'Frutiger Bold';fill:#196fc1;fill-opacity:1;stroke-width:0.26458338"
           id="path3564" />
        <path
           d="m 104.22596,201.90382 h -0.84414 v -1.80492 h -1.67294 v 1.80492 h -0.84721 v -4.19308 h 0.84721 v 1.70363 h 1.67294 v -1.70363 h 0.84414 z"
           style="font-style:normal;font-variant:normal;font-weight:bold;font-stretch:normal;font-family:Frutiger;-inkscape-font-specification:'Frutiger Bold';fill:#196fc1;fill-opacity:1;stroke-width:0.26458338"
           id="path3566" />
        <path
           d="m 105.16526,201.80867 0.0767,-0.75206 q 0.49727,0.27013 0.94851,0.27013 0.29161,0 0.50955,-0.14427 0.22101,-0.14427 0.22101,-0.42361 0,-0.2824 -0.18724,-0.40212 -0.18418,-0.11971 -0.67225,-0.32844 -0.48807,-0.21181 -0.73363,-0.46965 -0.2425,-0.26092 -0.2425,-0.74285 0,-0.40212 0.20259,-0.66917 0.20567,-0.27013 0.54025,-0.39598 0.33766,-0.12892 0.73364,-0.12892 0.53104,0 1.00069,0.16575 l -0.0706,0.69067 q -0.45737,-0.20874 -0.8687,-0.20874 -0.27013,0 -0.47272,0.12279 -0.19952,0.11971 -0.19952,0.38063 0,0.24864 0.15041,0.34072 0.15041,0.0921 0.68145,0.32845 0.53411,0.23329 0.78582,0.50035 0.25171,0.26398 0.25171,0.74284 0,0.34073 -0.12586,0.58936 -0.12585,0.24864 -0.34993,0.41133 -0.22102,0.15962 -0.50956,0.23636 -0.28547,0.0767 -0.60778,0.0767 -0.50955,0 -1.06208,-0.19031 z"
           style="font-style:normal;font-variant:normal;font-weight:bold;font-stretch:normal;font-family:Frutiger;-inkscape-font-specification:'Frutiger Bold';fill:#196fc1;fill-opacity:1;stroke-width:0.26458338"
           id="path3568" />
        <path
           d="m 111.9675,201.90382 h -0.84721 v -3.50241 h -1.19715 v -0.69067 h 3.25072 v 0.69067 h -1.20636 z"
           style="font-style:normal;font-variant:normal;font-weight:bold;font-stretch:normal;font-family:Frutiger;-inkscape-font-specification:'Frutiger Bold';fill:#196fc1;fill-opacity:1;stroke-width:0.26458338"
           id="path3570" />
        <path
           d="m 114.47537,201.90382 h -0.80424 v -2.17635 q -0.0154,-0.77661 -0.0246,-0.93622 h 0.73057 l 0.0184,0.78581 q 0.10436,-0.36835 0.31617,-0.58936 0.21487,-0.22101 0.55867,-0.22101 0.10436,0 0.23636,0.0307 v 0.75513 q -0.15962,-0.043 -0.28241,-0.043 -0.28547,0 -0.4543,0.15041 -0.16883,0.15041 -0.23329,0.38677 -0.0614,0.23329 -0.0614,0.51263 v 0.0614 z"
           style="font-style:normal;font-variant:normal;font-weight:bold;font-stretch:normal;font-family:Frutiger;-inkscape-font-specification:'Frutiger Bold';fill:#196fc1;fill-opacity:1;stroke-width:0.26458338"
           id="path3572" />
        <path
           d="m 118.80044,198.79125 v 1.90008 q 0.006,0.13199 0.0123,0.40826 0.009,0.27626 0.0153,0.44202 0.006,0.16576 0.0184,0.36221 h -0.76126 l -0.0246,-0.47885 q -0.10744,0.16882 -0.26092,0.28547 -0.15041,0.11664 -0.34073,0.18111 -0.19031,0.0614 -0.38063,0.0614 -0.43281,0 -0.67531,-0.17804 -0.2425,-0.17804 -0.33459,-0.48807 -0.089,-0.31003 -0.089,-0.73977 v -1.75581 h 0.80424 v 1.49796 q 0,0.29161 0.0276,0.49421 0.0307,0.19952 0.15655,0.34993 0.12585,0.14734 0.38063,0.14734 0.36528,0 0.50648,-0.30696 0.1412,-0.31003 0.1412,-0.72442 v -1.45806 z"
           style="font-style:normal;font-variant:normal;font-weight:bold;font-stretch:normal;font-family:Frutiger;-inkscape-font-specification:'Frutiger Bold';fill:#196fc1;fill-opacity:1;stroke-width:0.26458338"
           id="path3574" />
        <path
           d="m 119.51873,201.82094 0.0368,-0.67838 q 0.42975,0.22101 0.79196,0.22101 0.19952,0 0.37756,-0.0859 0.17804,-0.0859 0.17804,-0.26705 0,-0.15655 -0.25478,-0.26706 -0.25478,-0.1105 -0.51262,-0.21794 -0.25478,-0.10743 -0.44203,-0.30082 -0.18724,-0.19338 -0.18724,-0.54025 0,-0.33152 0.19338,-0.54332 0.19646,-0.2118 0.49728,-0.30696 0.30082,-0.0982 0.62313,-0.0982 0.34073,0 0.7674,0.11972 l -0.0583,0.60164 q -0.37449,-0.11972 -0.65997,-0.11972 -0.20873,0 -0.38677,0.0706 -0.17803,0.0706 -0.17803,0.24556 0,0.15041 0.24249,0.25171 0.24557,0.0982 0.51263,0.19953 0.27012,0.0982 0.46044,0.29775 0.19338,0.19645 0.19338,0.5648 0,0.33459 -0.18724,0.55867 -0.18418,0.22408 -0.47886,0.32845 -0.29468,0.10437 -0.62313,0.10437 -0.37449,0 -0.90553,-0.13814 z"
           style="font-style:normal;font-variant:normal;font-weight:bold;font-stretch:normal;font-family:Frutiger;-inkscape-font-specification:'Frutiger Bold';fill:#196fc1;fill-opacity:1;stroke-width:0.26458338"
           id="path3576" />
        <path
           d="m 124.10165,201.23772 0.0276,0.62927 q -0.30696,0.0614 -0.54332,0.0614 -0.39598,0 -0.6262,-0.14427 -0.23022,-0.14734 -0.32231,-0.4144 -0.0921,-0.27012 -0.0921,-0.65996 v -1.30151 h -0.5863 v -0.59858 h 0.59857 v -0.63234 l 0.80424,-0.26398 v 0.89632 h 0.70908 v 0.59858 h -0.70908 v 1.13268 q 0,0.36221 0.0767,0.55253 0.0798,0.18724 0.38677,0.18724 0.11358,0 0.27627,-0.043 z"
           style="font-style:normal;font-variant:normal;font-weight:bold;font-stretch:normal;font-family:Frutiger;-inkscape-font-specification:'Frutiger Bold';fill:#196fc1;fill-opacity:1;stroke-width:0.26458338"
           id="path3578" />
      </g>
    </g>
  </g>
</svg>
