<?xml version="1.0" encoding="UTF-8" standalone="no"?>
<svg
   xmlns:dc="http://purl.org/dc/elements/1.1/"
   xmlns:cc="http://creativecommons.org/ns#"
   xmlns:rdf="http://www.w3.org/1999/02/22-rdf-syntax-ns#"
   xmlns:svg="http://www.w3.org/2000/svg"
   xmlns="http://www.w3.org/2000/svg"
   id="svg2466"
   version="1.1"
   viewBox="0 0 160.21098 92.872345"
   height="92.872345mm"
   width="160.21098mm">
  <defs
     id="defs2460" />
  <metadata
     id="metadata2463">
    <rdf:RDF>
      <cc:Work
         rdf:about="">
        <dc:format>image/svg+xml</dc:format>
        <dc:type
           rdf:resource="http://purl.org/dc/dcmitype/StillImage" />
        <dc:title></dc:title>
      </cc:Work>
    </rdf:RDF>
  </metadata>
  <g
     transform="translate(365.48407,44.047921)"
     id="layer1">
    <g
       style="stroke-width:3.11632037"
       transform="matrix(0.32089128,0,0,0.32089128,-248.20342,-29.913327)"
       id="g3041">
      <path
         style="fill:#000000;stroke-width:3.11632013"
         d="m -117.06103,204.00196 c -1.1028,-0.20889 -2.99209,-0.69159 -4.19844,-1.07267 l -2.19335,-0.69288 0.15407,-1.23539 c 0.0847,-0.67947 0.23451,-2.28045 0.33281,-3.55773 0.0983,-1.27729 0.26763,-2.37728 0.37628,-2.44444 0.10865,-0.0671 0.9804,0.23287 1.93722,0.66672 6.98332,3.16639 13.55203,2.44817 16.26415,-1.77832 1.04309,-1.6255 1.60781,-3.79149 1.81304,-6.95391 l 0.16313,-2.51355 -1.69704,1.61725 c -2.76341,2.63347 -5.38018,3.64897 -9.35929,3.63209 -4.2646,-0.0181 -7.67719,-1.5151 -9.91898,-4.35118 -1.45161,-1.83642 -1.97509,-2.90726 -2.79022,-5.70766 -2.11983,-7.28274 -0.42508,-16.20099 3.92795,-20.67004 2.5569,-2.62503 5.45696,-3.80113 9.44271,-3.82943 4.19605,-0.0298 6.9977,1.12388 9.40094,3.87115 l 1.1824,1.35165 v -2.31056 -2.31056 h 4.233331 4.23333 v 16.5018 c 0,13.49074 -0.0725,16.91766 -0.39743,18.78087 -1.21735,6.98072 -4.68836,10.95957 -11.111941,12.73767 -2.23244,0.61796 -9.123,0.77519 -11.79467,0.26912 z m 9.84989,-21.66299 c 3.17554,-1.53842 4.94101,-5.68342 4.63569,-10.88376 -0.27016,-4.60134 -1.71241,-7.52173 -4.41554,-8.94096 -1.27678,-0.67035 -1.67345,-0.75058 -3.31417,-0.67037 -4.37616,0.21394 -6.90255,3.17554 -7.54699,8.84708 -0.48011,4.22522 0.84973,8.4517 3.35241,10.65465 0.68465,0.60265 1.61349,1.20876 2.06409,1.34691 1.2276,0.37638 4.12215,0.18049 5.22451,-0.35355 z m -213.95522,8.12881 c -3.53772,-0.53765 -6.53133,-2.61834 -7.94024,-5.51882 -1.48878,-3.06491 -1.5323,-3.50939 -1.65154,-16.86719 l -0.11041,-12.36927 h 4.36036 4.36036 l 0.12106,11.31094 c 0.13415,12.53369 0.21451,13.18433 1.85982,15.05824 1.0797,1.22971 2.17199,1.6773 4.08532,1.67407 2.61694,-0.004 5.03405,-1.53287 6.30218,-3.98515 0.22912,-0.44308 0.64807,-1.71068 0.93099,-2.81688 0.46314,-1.81087 0.51439,-2.96936 0.51439,-11.62625 v -9.61497 h 4.36563 4.36562 v 17.06563 17.06562 h -4.10104 -4.10104 v -2.24896 c 0,-1.23692 -0.0957,-2.24895 -0.21268,-2.24895 -0.11698,0 -0.62299,0.43235 -1.12448,0.96079 -1.34177,1.41386 -3.81908,2.94486 -5.71025,3.52899 -1.70483,0.52657 -4.90235,0.8467 -6.31405,0.63216 z m 87.53759,-0.22131 c -2.37548,-0.4311 -4.82116,-1.71651 -6.48831,-3.41017 l -1.2774,-1.29771 v 2.15258 2.15258 h -4.23334 -4.23333 v -24.73854 -24.73854 h 4.36562 4.36563 v 9.78958 c 0,5.38427 0.049,9.78959 0.10882,9.78959 0.0599,0 0.76955,-0.64509 1.57711,-1.43352 2.82814,-2.76115 6.55853,-3.90281 10.83795,-3.31687 4.71778,0.64595 7.75788,2.7847 9.86388,6.93934 1.56408,3.08556 2.06821,5.73513 2.05028,10.77563 -0.0128,3.60217 -0.1151,4.73578 -0.58492,6.48229 -1.68743,6.2729 -5.24006,9.91169 -10.61291,10.87031 -2.41621,0.4311 -3.2862,0.42859 -5.73908,-0.0166 z m 3.22531,-7.11437 c 3.0699,-1.42953 4.61939,-4.97705 4.61939,-10.57599 0,-7.07288 -3.12049,-11.19285 -8.08913,-10.68004 -2.5754,0.26581 -4.58951,1.8477 -5.8537,4.5975 -2.93252,6.37868 -0.79839,15.16215 4.10992,16.9153 1.55739,0.55627 3.69345,0.45107 5.21352,-0.25677 z m 75.39543,7.35621 c -0.29104,-0.0663 -1.18401,-0.25258 -1.98437,-0.4139 -3.75838,-0.7575 -7.0567,-3.60229 -8.74828,-7.54537 -2.58331,-6.02172 -2.2994,-15.29865 0.63819,-20.85288 2.53073,-4.78496 7.78972,-7.26312 13.78655,-6.49655 2.66987,0.34129 4.84448,1.34876 6.8251,3.16197 l 1.52135,1.39277 v -9.68384 -9.68384 h 4.36563 4.36562 v 24.73854 24.73854 h -4.22174 -4.22174 l -0.0777,-1.90401 -0.0777,-1.90401 -1.19062,1.10283 c -1.45301,1.34586 -3.30501,2.38221 -5.11974,2.86493 -1.4658,0.3899 -4.99566,0.68191 -5.86047,0.48482 z m 6.55778,-7.14843 c 5.40052,-1.84014 7.26812,-12.31514 3.27224,-18.35332 -1.96071,-2.96282 -5.6171,-4.00236 -8.65628,-2.46104 -2.82739,1.43392 -4.19649,4.33243 -4.40537,9.32657 -0.23765,5.68186 1.3477,9.66312 4.46681,11.21744 1.62552,0.81003 3.46459,0.90344 5.3226,0.27035 z m 76.338881,7.03826 c -6.8721,-0.86578 -11.5891,-4.56821 -13.63221,-10.7001 -0.65902,-1.97792 -0.71294,-2.47305 -0.72247,-6.63533 -0.008,-3.55195 0.0903,-4.85961 0.46808,-6.21771 1.22896,-4.41861 3.97208,-8.14307 7.27627,-9.87938 2.63274,-1.38345 4.69093,-1.85708 7.98346,-1.83713 10.12606,0.0614 15.15711,5.62617 15.79552,17.4712 l 0.16042,2.97656 h -11.8264 -11.82643 l 0.17362,0.99219 c 0.33322,1.90394 1.47151,4.01611 2.8157,5.22466 1.91336,1.72028 3.72136,2.3269 6.95653,2.33405 3.56875,0.008 6.30767,-0.78608 11.04636,-3.20215 0.10914,-0.0557 0.19843,1.50498 0.19843,3.46806 v 3.56923 l -1.91823,0.79618 c -3.47514,1.44241 -8.98072,2.13957 -12.94865,1.63967 z m 8.83232,-21.04635 c 0.0765,-0.0765 0.0276,-0.75213 -0.10859,-1.50147 -0.71001,-3.90634 -3.26416,-6.30752 -6.78643,-6.37995 -2.4898,-0.0512 -3.93644,0.51243 -5.60464,2.18361 -1.43626,1.43882 -1.88619,2.36426 -2.48407,5.10925 l -0.15845,0.72761 h 7.50157 c 4.12586,0 7.56412,-0.0626 7.64061,-0.13905 z m 111.28851,21.04635 c -3.86622,-0.48708 -6.90713,-1.79592 -9.35067,-4.02458 -3.3247,-3.03236 -4.85642,-6.66405 -5.08523,-12.05698 -0.42157,-9.9362 3.72112,-16.76436 11.38396,-18.76356 2.13852,-0.55792 6.60929,-0.54907 9.00602,0.0178 4.92442,1.16482 8.12413,4.12428 9.86202,9.12155 0.77529,2.22932 1.42833,6.32235 1.43047,8.96562 l 0.003,1.91822 h -11.78629 -11.78595 l 0.17362,0.99219 c 0.5011,2.86331 2.55191,5.62507 4.96324,6.6838 4.14785,1.82118 9.16263,1.08511 15.85534,-2.32724 0.10914,-0.0556 0.19844,1.50498 0.19844,3.46806 v 3.56923 l -1.91823,0.79619 c -3.47514,1.4424 -8.98073,2.13956 -12.94866,1.63966 z m 8.91648,-21.7672 c -0.74017,-3.70875 -1.74423,-5.33805 -3.95663,-6.42048 -2.55233,-1.24874 -5.62126,-0.95951 -8.03045,0.75681 -1.25023,0.89068 -2.80643,3.70481 -3.05882,5.53138 l -0.1371,0.99219 h 7.6773 7.67731 z m 57.808739,21.85743 c -1.98687,-0.18246 -7.13936,-1.1972 -7.28631,-1.43498 -0.15753,-0.25488 0.31824,-6.59727 0.50922,-6.78823 0.069,-0.069 0.93371,0.19789 1.92159,0.59311 2.38992,0.95612 5.64866,1.51776 7.56308,1.30349 3.90293,-0.43682 6.03364,-3.2582 4.4376,-5.87595 -0.7497,-1.22961 -1.79274,-1.7804 -5.68997,-3.00467 -4.18772,-1.31552 -5.66505,-2.08485 -7.12791,-3.7119 -1.55336,-1.72773 -2.09737,-3.55207 -1.94762,-6.53153 0.13748,-2.73512 0.72289,-4.22522 2.35601,-5.99694 1.99649,-2.16596 4.62153,-3.34658 8.51717,-3.83067 2.55551,-0.31756 6.95505,-0.0144 10.06856,0.69372 l 1.82261,0.41454 -0.16962,1.88989 c -0.0933,1.03943 -0.23818,2.49883 -0.32197,3.2431 l -0.15238,1.35322 -1.56093,-0.48581 c -2.36667,-0.73659 -5.83478,-1.09846 -7.5279,-0.78547 -2.57794,0.47656 -3.7097,1.3966 -3.97727,3.23321 -0.284,1.94951 0.89252,2.89725 5.36027,4.31787 5.7544,1.82973 8.17481,3.56664 9.36104,6.71755 0.75761,2.01242 0.64857,6.13332 -0.2128,8.04276 -1.29083,2.86134 -4.54549,5.26963 -8.28665,6.13171 -1.84756,0.42573 -5.7518,0.68683 -7.65582,0.51198 z M -352.2549,170.39688 V 150.95 h -6.61458 -6.61459 v -3.57187 -3.57188 h 17.85938 17.85937 v 3.57188 3.57187 h -6.61458 -6.61458 v 19.44688 19.44687 h -4.63021 -4.63021 z m 61.9125,2.38125 V 155.7125 h 4.10104 4.10104 v 2.24896 c 0,1.23693 0.0792,2.24896 0.17597,2.24896 0.0968,0 0.90286,-0.698 1.79128,-1.5511 2.67566,-2.56931 5.25969,-3.54798 9.40984,-3.56388 6.41374,-0.0246 10.30327,3.37437 11.36774,9.93394 0.1538,0.94775 0.27078,6.64325 0.27192,13.23885 l 0.002,11.57552 h -4.36562 -4.36563 l -0.002,-10.51718 c -7.9e-4,-5.78446 -0.11588,-11.21543 -0.25564,-12.06883 -0.36268,-2.21459 -1.1983,-3.77758 -2.46862,-4.61738 -0.94244,-0.62305 -1.33603,-0.71015 -3.20909,-0.71015 -1.84306,0 -2.30105,0.0977 -3.35027,0.71449 -2.14319,1.25995 -3.46815,3.54423 -4.09538,7.06058 -0.25506,1.42993 -0.36201,4.64418 -0.36857,11.07649 l -0.009,9.06198 h -4.36562 -4.36563 z m 80.9625,0 V 155.7125 h 3.96875 3.96875 l 0.0193,3.90261 0.0193,3.9026 0.49546,-1.39418 c 1.6134,-4.53995 5.89369,-7.5262 10.11535,-7.05724 l 1.52136,0.169 v 4.36067 4.36067 l -0.8599,-0.21946 c -0.47296,-0.1207 -1.81241,-0.21946 -2.97658,-0.21946 -2.54869,0 -3.80672,0.54844 -5.08604,2.21726 -1.89889,2.47703 -2.43789,6.31385 -2.44832,17.42805 l -0.006,6.68073 h -4.36562 -4.36563 z m 25.92916,0 V 155.7125 h 4.36563 4.36562 v 17.06563 17.06562 h -4.36562 -4.36563 z m 162.076611,15.67656 c -0.21577,-0.76398 -2.90589,-10.91406 -5.97805,-22.55573 -3.07216,-11.64167 -5.64541,-21.37503 -5.71831,-21.62969 -0.12276,-0.42873 0.22011,-0.46302 4.62992,-0.46302 4.30546,0 4.77607,0.0444 4.90392,0.46302 0.20352,0.66633 8.36091,35.77087 8.36091,35.98032 0,0.0962 0.11658,0.0584 0.25906,-0.0841 0.14247,-0.14248 1.93249,-8.10919 3.97779,-17.7038 2.0453095,-9.59461 3.7876195,-17.71929 3.8718395,-18.05483 l 0.15314,-0.61008 6.24430003,0.0709 6.24426997,0.0709 3.97846,18.03724 c 2.1881305,9.92049 4.0590505,18.1172 4.1575805,18.21492 0.24265,0.24064 0.1342,0.67493 4.74099,-18.98753 l 4.0757,-17.39578 4.46008,-5.3e-4 c 3.45453,-5.3e-4 4.43357,0.074 4.34255,0.33016 -0.0646,0.1819 -2.7767,10.54034 -6.02681,23.01875 l -5.90928,22.68802 h -5.90775 c -3.24927,-4e-5 -5.9077505,-0.056 -5.9077505,-0.12439 0,-0.0684 -1.84547,-8.29684 -4.10104,-18.28544 -2.25558,-9.9886 -4.10103997,-18.2313 -4.10103997,-18.31711 0,-0.0858 -0.10817,-0.0429 -0.24035,0.0953 -0.13221,0.13824 -2.05708003,8.4369 -4.27752003,18.44146 l -4.03715,18.1901 h -5.9015495 -5.90156 z m 94.04006,-23.34948 v -24.73854 h 4.36562 4.36563 v 24.73854 24.73854 h -4.36563 -4.36562 z m 18.25625,0 v -24.73854 h 4.36562 4.36563 v 24.73854 24.73854 h -4.36563 -4.36562 z M -183.45074,145.26146 v -4.10104 h 4.36563 4.36562 v 4.10104 4.10104 h -4.36562 -4.36563 z m -75.14166,-22.47185 c -3.15285,-0.87869 -5.76652,-2.87337 -7.02848,-5.36396 -0.71927,-1.41954 -0.77673,-1.74824 -0.77673,-4.44336 0,-2.6543 0.0676,-3.05689 0.76866,-4.57503 1.34789,-2.91901 4.16931,-4.98679 8.16658,-5.9852 1.83725,-0.45889 7.19379,-0.92319 10.84236,-0.93981 l 2.05053,-0.009 -0.002,-1.12447 c -0.002,-1.858213 -0.50846,-3.159248 -1.68718,-4.337972 -1.40616,-1.406158 -2.75077,-1.796844 -6.11656,-1.777215 -3.04285,0.01775 -5.74107,0.775611 -8.43523,2.369241 -0.85584,0.50624 -1.62554,0.850963 -1.71045,0.766053 -0.0849,-0.08491 -0.20245,-1.696937 -0.26119,-3.582281 l -0.1068,-3.427902 1.15579,-0.508278 c 3.04079,-1.33723 9.06157,-2.304891 12.53288,-2.014283 5.80628,0.486079 9.08349,2.181056 10.93555,5.655874 1.3694,2.569249 1.56648,4.084849 1.74313,13.405193 0.0883,4.65667 0.23453,10.04425 0.32504,11.9724 l 0.16457,3.50573 h -3.85229 -3.8523 l -0.18909,-2.41711 -0.18908,-2.41711 -1.28078,1.46015 c -2.52655,2.88037 -5.52852,4.18291 -9.55107,4.14416 -1.35055,-0.013 -2.99142,-0.17298 -3.64626,-0.35548 z m 9.39271,-6.59338 c 1.55172,-0.72413 3.15227,-2.39936 3.8936,-4.07526 0.30712,-0.69428 0.58621,-2.05902 0.66946,-3.27353 l 0.14276,-2.08286 -3.14666,0.005 c -6.36201,0.009 -9.59573,1.42216 -10.44118,4.56195 -0.59259,2.2007 0.13719,3.86865 2.14055,4.89232 1.66953,0.85309 4.88288,0.84011 6.74147,-0.0272 z m 46.46206,6.55381 c -5.55804,-1.49464 -8.99837,-6.52315 -9.85283,-14.40128 -0.71814,-6.62136 1.04046,-13.441673 4.35213,-16.878659 3.65092,-3.789068 10.80426,-4.827667 15.80325,-2.294487 0.76998,0.390181 2.03489,1.309901 2.81091,2.043824 l 1.41093,1.334405 v -9.827962 -9.827964 h 4.36563 4.36562 V 97.636459 122.375 h -4.23333 -4.23333 v -1.71979 c 0,-0.94589 -0.077,-1.71979 -0.171,-1.71979 -0.094,0 -0.73198,0.52473 -1.41763,1.16607 -2.36582,2.21296 -4.94908,3.07716 -9.11644,3.04985 -1.46101,-0.01 -3.29878,-0.19016 -4.08391,-0.4013 z m 9.71533,-6.97105 c 4.2107,-2.17057 5.9928,-9.70809 3.72705,-15.76383 -1.20786,-3.228294 -3.47747,-5.116511 -6.43537,-5.353943 -1.50708,-0.120975 -1.91199,-0.0469 -3.20706,0.586719 -2.6911,1.316635 -4.27016,4.448328 -4.54763,9.019154 -0.38502,6.34252 1.89221,11.01134 5.87937,12.05401 1.16564,0.30482 3.46919,0.0324 4.58364,-0.54211 z m 25.04969,6.96092 c -3.83655,-0.69122 -4.15584,-0.82181 -4.00175,-1.63665 0.0741,-0.39195 0.2114,-1.97458 0.30506,-3.51697 l 0.17029,-2.80432 1.53063,0.61824 c 2.80882,1.13453 4.69081,1.48342 7.4123,1.37412 1.93435,-0.0777 2.75136,-0.22874 3.45261,-0.6383 2.62078,-1.53061 2.83858,-4.75168 0.43231,-6.39325 -0.45913,-0.31321 -2.02541,-0.94022 -3.48062,-1.39335 -3.58583,-1.11656 -5.75196,-2.0258 -7.02757,-2.94985 -3.86782,-2.80183 -4.26919,-9.713264 -0.78545,-13.525031 2.60039,-2.845245 5.89355,-3.999281 11.3849,-3.98966 3.36559,0.0059 7.8163,0.587142 8.70592,1.136959 0.26873,0.166085 0.30337,0.82981 0.1561,2.990554 -0.10411,1.527403 -0.27295,2.912462 -0.37521,3.077909 -0.13443,0.217521 -0.76736,0.145364 -2.28584,-0.260599 -3.05818,-0.817602 -7.25657,-0.842002 -8.74024,-0.0508 -0.59624,0.317957 -1.28841,0.889973 -1.53817,1.271148 -0.5477,0.835906 -0.61321,2.475587 -0.12983,3.249612 0.50414,0.807258 2.38867,1.751148 5.13331,2.571088 5.18707,1.54961 8.0593,3.55308 9.10655,6.3521 1.97046,5.26654 -0.0972,10.85274 -4.88472,13.19695 -2.59313,1.26974 -5.09634,1.75168 -8.96051,1.72519 -1.90487,-0.0131 -4.4159,-0.19535 -5.58007,-0.40509 z m 36.98505,0.0608 c -2.54488,-0.83145 -4.51383,-2.4674 -5.64999,-4.69447 -1.12521,-2.20559 -1.29539,-4.0276 -1.30026,-13.92136 l -0.005,-9.326565 h -3.30729 -3.30729 v -3.175001 -3.175 h 3.30729 3.30729 v -3.389291 -3.389291 l 3.94737,-1.241015 c 2.17105,-0.682559 4.13558,-1.313241 4.36562,-1.401517 0.3718,-0.142674 0.41826,0.37166 0.41826,4.630307 v 4.790807 h 3.96875 3.96875 v 3.175 3.175001 h -3.98438 -3.98437 l 0.0818,9.194275 c 0.0763,8.57914 0.11717,9.26393 0.61094,10.23553 0.29104,0.57269 0.85498,1.27935 1.25321,1.57035 0.94025,0.68709 3.36398,0.85755 4.99951,0.3516 l 1.22564,-0.37915 0.16342,1.19229 c 0.0899,0.65576 0.16342,2.17382 0.16342,3.37347 0,2.02972 -0.0413,2.19425 -0.59531,2.36965 -1.23128,0.38983 -8.48072,0.41566 -9.64776,0.0344 z m 26.1751,-0.15042 c -4.00334,-1.0814 -7.32354,-3.40306 -9.3896,-6.56572 -1.58219,-2.42195 -2.22208,-4.05697 -2.73035,-6.97643 -1.41903,-8.15071 2.15125,-16.058551 8.69899,-19.267447 1.19532,-0.585798 2.94721,-1.265574 3.8931,-1.51061 2.33521,-0.604951 7.188461,-0.601609 9.649991,0.0066 6.35772,1.571021 11.03371,6.367851 12.46095,12.783007 0.67162,3.01878 0.43786,8.30636 -0.48154,10.89274 -1.80568,5.0795 -5.24965,8.51978 -10.296,10.28496 -1.6741,0.58559 -2.48589,0.69222 -5.90944,0.77617 -3.328821,0.0816 -4.279521,0.0134 -5.896101,-0.42331 z m 9.122001,-6.98094 c 2.28794,-1.15938 3.80667,-3.53029 4.46479,-6.96997 0.99166,-5.18295 -0.0479,-9.60031 -2.85268,-12.122078 -1.53321,-1.378482 -3.18183,-1.983568 -5.40438,-1.983568 -3.506021,0 -6.470631,2.089121 -7.792121,5.490986 -0.69691,1.79401 -0.97693,5.98199 -0.55279,8.26735 0.73897,3.98177 2.81984,6.92621 5.50218,7.78561 1.90981,0.61188 4.923021,0.39919 6.635001,-0.46833 z m 72.33082,7.21142 c -6.39361,-1.25416 -10.67179,-5.18683 -12.38362,-11.38348 -0.65936,-2.38694 -0.64494,-9.42788 0.0244,-11.876473 1.6216,-5.932513 5.61985,-10.073301 11.01817,-11.410979 2.01893,-0.500284 6.84702,-0.431292 8.99584,0.128548 4.86267,1.266894 7.9627895,4.190677 9.6804595,9.129834 0.76071,2.187414 1.42828,6.30972 1.43047,8.83333 l 0.003,1.78593 h -11.7770795 -11.77708 l 0.16444,1.12448 c 0.41558,2.84189 2.25472,5.41406 4.7884,6.69692 1.4736,0.74612 1.6801,0.77756 5.10757,0.77756 3.94888,0 5.46611,-0.36088 9.0553595,-2.15386 0.97865,-0.48886 1.84185,-0.88885 1.91823,-0.88885 0.0764,0 0.13891,1.59869 0.13891,3.55265 v 3.55264 l -2.16532,0.83504 c -1.1909495,0.45927 -3.0468895,1.00371 -4.1243295,1.20986 -2.1445,0.41031 -8.18258,0.46225 -10.09634,0.0868 z m 10.33856,-21.80389 c -0.13472,-1.511204 -0.95591,-3.547827 -1.88439,-4.673452 -1.23108,-1.492514 -2.9202,-2.192681 -5.29889,-2.196454 -3.33266,-0.0053 -5.76691,1.573054 -7.05307,4.57317 -0.45265,1.055835 -0.86897,3.147636 -0.66675,3.349886 0.0796,0.0796 3.48657,0.11312 7.57105,0.0745 l 7.42635,-0.0702 z m 39.05994,21.4715 c -3.75595,-1.28003 -6.15291,-3.73324 -6.995,-7.1591 -0.38344,-1.56001 -0.40447,-2.13118 -0.14418,-3.91698 0.68821,-4.72188 3.33026,-7.47902 8.5652,-8.93831 1.94575,-0.5424 7.41476,-1.04954 11.40053,-1.05717 l 2.05052,-0.004 -0.006,-0.7276 c -0.0116,-1.311103 -0.53631,-3.090026 -1.21645,-4.124507 -1.39396,-2.120249 -5.23706,-3.01076 -9.3749,-2.172327 -2.22647,0.451141 -5.37959,1.733608 -6.8679,2.793386 l -0.79055,0.562919 -0.0541,-2.663851 c -0.0298,-1.465117 -0.0595,-3.168949 -0.0662,-3.786293 l -0.0119,-1.122447 1.7198,-0.618443 c 3.47437,-1.249397 6.23998,-1.71809 10.18645,-1.726324 8.11663,-0.01693 12.10154,2.435447 13.79205,8.487817 0.34065,1.219595 0.46759,3.67722 0.63253,12.24613 0.11351,5.89618 0.29163,11.40282 0.39587,12.23698 l 0.18947,1.51665 h -3.83863 c -4.43211,0 -4.16007,0.18309 -4.16007,-2.79977 0,-1.0795 -0.0989,-1.96273 -0.21973,-1.96273 -0.12084,0 -0.59772,0.52634 -1.05971,1.16965 -1.07852,1.50182 -3.59442,3.17796 -5.78636,3.85498 -2.4524,0.75747 -5.96717,0.72007 -8.34043,-0.0887 z m 10.42567,-6.59142 c 2.54444,-1.49116 3.93877,-3.88902 4.3067,-7.40645 l 0.18682,-1.78594 h -2.51545 c -7.25524,0 -10.82458,1.70081 -11.19986,5.33679 -0.32914,3.18931 1.72627,4.80744 5.89235,4.63874 1.7358,-0.0703 2.36595,-0.21852 3.32944,-0.78314 z m 68.949329,6.59142 c -4.46781,-1.52264 -7.171909,-4.74483 -8.714029,-10.38358 -0.48525,-1.77435 -0.57237,-2.79776 -0.57237,-6.72315 0,-3.90643 0.0883,-4.95263 0.56464,-6.692878 1.14475,-4.181832 3.363709,-7.516487 6.048719,-9.090009 2.77921,-1.628717 7.04199,-2.287712 10.30743,-1.593448 2.36545,0.50292 4.10956,1.37927 5.83827,2.933528 0.74242,0.667504 1.42166,1.213641 1.50942,1.213641 0.0878,0 0.15957,-4.345781 0.15957,-9.657292 V 72.89792 h 4.36563 4.36562 V 97.636459 122.375 h -4.23333 -4.23334 v -1.71979 c 0,-0.94589 -0.0718,-1.71979 -0.15957,-1.71979 -0.0878,0 -0.74948,0.53039 -1.4705,1.17864 -2.49399,2.24232 -4.91752,3.04195 -9.21784,3.04139 -2.20181,-2.6e-4 -3.14741,-0.12621 -4.55832,-0.60705 z m 10.25464,-6.72964 c 3.02101,-1.55611 4.75347,-5.35492 4.73249,-10.37709 -0.0272,-6.51379 -3.19296,-10.849117 -7.91527,-10.839521 -1.99827,0.0041 -3.39249,0.621549 -4.71488,2.088171 -2.08042,2.30735 -3.03045,6.39669 -2.52846,10.88361 0.67101,5.99757 3.44321,9.16436 7.78028,8.88772 0.90353,-0.0576 2.05084,-0.33641 2.64584,-0.64289 z M -324.73823,99.356251 v -23.01875 l 7.34218,0.0024 7.34219,0.0024 5.4441,17.394066 c 2.99426,9.566553 5.54421,17.393883 5.66657,17.393883 0.12235,0 2.67313,-7.82759 5.6684,-17.39464 l 5.44593,-17.39464 7.34219,-0.0017 7.34219,-0.0017 V 99.356251 122.375 h -4.36563 -4.36562 l -0.0179,-18.98385 c -0.014,-14.807036 -0.0867,-18.841247 -0.33073,-18.335686 -0.17206,0.356497 -2.99776,8.869465 -6.27935,18.917706 l -5.96652,18.26954 h -4.4739 -4.4739 l -5.96374,-18.26839 c -3.28006,-10.047615 -6.10451,-18.560584 -6.27656,-18.917708 -0.24401,-0.506479 -0.31677,3.526819 -0.33073,18.334538 l -0.0179,18.98385 h -4.36563 -4.36562 z m 96.04375,6.085419 V 88.508334 h 4.36562 4.36563 V 105.44167 122.375 h -4.36563 -4.36562 z m 153.987491,0 V 88.508334 h 4.10104 4.10105 v 2.248959 c 0,1.236927 0.0724,2.248958 0.16094,2.248958 0.0885,0 0.81846,-0.668102 1.62208,-1.484675 3.73949,-3.799721 10.41665,-4.876239 15.33483,-2.472341 2.8588,1.397328 4.66394,4.026207 5.48002,7.980757 0.34753,1.683975 0.42088,4.070058 0.42088,13.692188 V 122.375 h -4.35026 -4.35025 l -0.0846,-11.44323 c -0.0825,-11.149466 -0.0999,-11.481163 -0.67956,-12.921002 -0.97446,-2.420742 -2.51727,-3.417017 -5.2915,-3.417017 -2.82766,0 -5.00243,1.522426 -6.34413,4.441127 -1.15737,2.517672 -1.37001,4.738172 -1.38001,14.410432 l -0.009,8.92969 h -4.36562 -4.36563 z m 132.29167,0 V 88.508334 h 4.23333 4.23333 v 2.290898 2.290895 l 1.65899,-1.593041 c 1.79158,-1.720368 2.98821,-2.435521 5.14517,-3.074961 4.75761,-1.410427 9.93606,-0.398822 12.61401,2.46415 1.46521,1.566412 2.16998,2.937219 2.82313,5.491003 0.4704,1.83927 0.51287,2.998444 0.51287,14.001502 V 122.375 h -4.36562 -4.36563 v -10.92462 c 0,-11.991653 -0.12639,-13.221352 -1.53927,-14.976693 -1.10037,-1.367099 -2.273,-1.88088 -4.27744,-1.874126 -3.69556,0.01246 -6.02358,2.160871 -7.30461,6.741069 -0.36608,1.30888 -0.46601,3.294 -0.56933,11.31093 l -0.12531,9.72344 h -4.33681 -4.33681 z M -228.69448,78.057292 v -4.101041 h 4.36562 4.36563 v 4.101041 4.101042 h -4.36563 -4.36562 z"
         id="path3022" />
      <path
         style="fill:#005eb8;fill-opacity:1;stroke-width:3.11632013"
         d="m 3.741975,245.23705 c -0.29104,-0.0593 -1.48167,-0.29589 -2.64583,-0.52576 l -2.11667,-0.41791 0.23739,-2.71907 0.23735,-2.71907 1.35015,0.59518 c 2.73991,1.20796 6.0289,1.52615 8.12612,0.78621 2.18699,-0.77166 3.38262,-2.60731 2.86768,-4.4028 -0.46355,-1.61634 -1.76461,-2.52947 -5.98995,-4.20399 -3.67721,-1.4573 -5.53239,-2.90399 -6.59321,-5.14128 -0.49884,-1.05214 -0.62777,-1.76297 -0.62981,-3.47247 -0.005,-4.41103 1.92849,-7.1823 5.98593,-8.57826 2.73479,-0.9409 7.1958,-0.92607 10.76788,0.0358 l 1.03024,0.27741 -0.18891,2.2969 c -0.10391,1.26329 -0.22731,2.33741 -0.27419,2.38697 -0.0469,0.0495 -1.06953,-0.15883 -2.27251,-0.46304 -4.8628,-1.22969 -7.90892,-0.31972 -8.69442,2.59732 -0.37745,1.40179 -0.0122,2.66068 1.02555,3.53383 0.40272,0.33888 2.15096,1.19637 3.88493,1.9055 3.79757,1.55311 5.36266,2.48084 6.5754,3.89766 1.18356,1.38274 1.73667,3.0512 1.73667,5.23878 0,2.54153 -0.57872,4.20243 -2.02467,5.81067 -1.4396,1.60118 -3.18272,2.55434 -5.61356,3.06956 -1.61856,0.34309 -5.53693,0.46549 -6.78156,0.21186 z m 75.097215,-0.0678 c -1.4178,-0.3661 -3.1383,-1.53313 -3.85342,-2.61376 -1.44415,-2.18223 -1.52609,-2.81816 -1.52609,-11.84283 v -8.32514 h 2.75402 2.754 l 0.0944,7.60677 c 0.0882,7.10774 0.13166,7.688 0.66238,8.84475 0.66543,1.45045 1.65682,2.0695 3.31317,2.06889 2.31979,0 4.1248,-1.62804 4.83052,-4.35465 0.31219,-1.20615 0.40815,-3.05689 0.40815,-7.87135 v -6.29441 h 2.91042 2.91041 v 11.24479 11.24479 h -2.76492 -2.76492 l -0.0794,-1.48995 -0.0793,-1.48992 -1.05833,0.96099 c -1.64984,1.49807 -3.59138,2.31286 -5.78652,2.4283 -1.03754,0.0546 -2.26359,0.003 -2.7246,-0.11727 z m 24.38611,0.1301 c -0.14552,-0.0558 -1.14429,-0.24694 -2.21948,-0.42474 l -1.95493,-0.32327 0.17434,-2.26782 c 0.0958,-1.2473 0.20166,-2.29468 0.23511,-2.32751 0.0335,-0.0329 0.89424,0.22444 1.91288,0.57176 3.35251,1.14308 6.54458,0.728 7.42,-0.96488 0.48287,-0.93377 0.48419,-1.39986 0.007,-2.32344 -0.42225,-0.81653 -1.39126,-1.30289 -4.54006,-2.27867 -3.80352,-1.17869 -5.15419,-2.68594 -5.33972,-5.95868 -0.24863,-4.38595 3.27303,-7.16113 9.04968,-7.13139 1.31966,0.007 3.17328,0.1589 4.11916,0.33803 l 1.7198,0.3257 -0.0658,2.08693 c -0.0362,1.14781 -0.10125,2.12241 -0.14464,2.1658 -0.0434,0.0434 -0.61635,-0.0829 -1.27331,-0.28062 -1.13641,-0.342 -3.08139,-0.51927 -4.91212,-0.4477 -1.15893,0.0453 -2.46769,1.18631 -2.46769,2.15138 0,0.41172 0.0742,0.94199 0.16491,1.17837 0.20971,0.5465 1.64299,1.27151 3.66358,1.85322 4.42145,1.27286 6.30349,3.30023 6.30349,6.79022 0,4.44275 -3.19979,7.04299 -8.94136,7.26601 -1.45521,0.0565 -2.76489,0.0571 -2.91041,0 z m 22.93832,-0.37669 c -1.61017,-0.57724 -2.76336,-1.57152 -3.58182,-3.08827 -0.53851,-0.99798 -0.57574,-1.46955 -0.65278,-8.26823 l -0.0817,-7.20989 h -2.2334 -2.2334 v -1.98438 -1.98437 h 2.24899 2.24896 v -2.32498 -2.325 l 2.59326,-0.85 c 1.42629,-0.46752 2.73597,-0.85002 2.91039,-0.85002 0.22889,0 0.31715,0.8839 0.31715,3.175 v 3.175 h 2.51354 2.51355 v 1.98437 1.98438 h -2.52648 -2.52648 l 0.0791,6.63789 0.0791,6.63792 0.74237,0.63812 c 0.57091,0.49078 1.04849,0.63815 2.06787,0.63815 0.72906,0 1.53983,-0.11464 1.80166,-0.25479 0.42254,-0.22614 0.49471,-0.0997 0.64174,1.12448 0.27784,2.31298 0.21315,3.02559 -0.2927,3.22442 -0.25467,0.10009 -1.53459,0.23627 -2.84428,0.30263 -1.89484,0.096 -2.6679,0.0177 -3.7846,-0.38243 z M -64.388235,229.53127 v -15.34585 h 3.64631 3.6463 l 5.77257,11.31096 c 3.17492,6.22101 5.87986,11.42404 6.01099,11.56226 0.14168,0.14941 0.23842,-4.43926 0.23842,-11.31094 v -11.56228 h 2.91041 2.91042 v 15.34585 15.34584 l -3.77031,-0.004 -3.77032,-0.004 -5.60884,-11.04239 c -3.08486,-6.0733 -5.78975,-11.28048 -6.01086,-11.57152 -0.36161,-0.47599 -0.40286,0.63431 -0.41042,11.04635 l -0.008,11.5755 h -2.77813 -2.77812 z m 32.01459,0 v -15.34585 h 3.0427 3.04271 v 6.21771 6.21773 h 6.21771 6.21771 v -6.21773 -6.21771 h 3.04271 3.04271 v 15.34585 15.34584 h -3.04271 -3.04271 v -6.74691 -6.74684 h -6.21771 -6.21771 v 6.74684 6.74691 h -3.04271 -3.0427 z m 74.34791,2.38125 v -12.9646 h -4.49791 -4.49792 v -2.38125 -2.38125 h 11.90625 11.90625 v 2.38125 2.38125 h -4.49792 -4.49791 v 12.9646 12.96459 h -2.91042 -2.91042 z m 14.2875,1.71979 v -11.24479 h 2.64584 2.64583 l 0.006,2.44737 0.006,2.44742 0.51118,-1.12617 c 1.26624,-2.78961 3.34687,-4.29778 5.92915,-4.29778 h 1.48556 v 2.92602 c 0,1.81057 -0.0972,2.86594 -0.25509,2.76839 -0.14028,-0.0867 -1.02719,-0.16356 -1.97091,-0.17081 -4.20886,-0.0323 -5.16982,2.17119 -5.17773,11.87272 l -0.005,5.62243 h -2.91042 -2.91041 z M -98.784065,2.6510402 V -44.047921 H 17.500305 133.78468 V 2.6510402 49.350001 H 17.500305 -98.784065 Z M 87.61489,41.399708 c 16.7623,-1.435568 26.62743,-7.59933 29.92355,-18.696339 0.91284,-3.07317 1.17446,-8.940615 0.5343,-11.982535 -0.61589,-2.9265478 -2.24919,-6.0272558 -4.34538,-8.2493238 -3.10531,-3.29177996 -6.11537,-5.061252 -14.10473,-8.29151 -5.02899,-2.033321 -6.93182,-3.002942 -8.45973,-4.3107612 -3.30904,-2.832431 -2.58376,-7.77513 1.41853,-9.66724 2.50788,-1.1856 5.11657,-1.57344 10.64387,-1.58246 5.95943,-0.01 8.83479,0.41313 13.36146,1.96495 1.67349,0.5737 3.2148,1.0704 3.42511,1.10378 0.27991,0.0444 1.0336,-1.9246 2.81245,-7.34764 l 2.43006,-7.40834 -1.00454,-0.46344 c -5.88246,-2.7139 -22.94626,-3.86806 -32.4594,-2.19549 -10.60104,1.86384 -17.86515,6.47715 -21.235585,13.48635 -1.73048,3.59868 -2.14919,5.37886 -2.30733,9.810081 -0.20947,5.8685402 0.87352,9.1877992 4.122235,12.63418024 2.84556,3.01871796 5.3839,4.48779896 13.12846,7.59818996 7.57695,3.0430788 10.03086,4.5579848 11.31586,6.9857938 0.81203,1.534173 0.81608,4.611655 0.008,6.137386 -0.66583,1.257252 -2.27854,2.786147 -3.70846,3.515635 -4.83309,2.465642 -14.11097,2.826388 -22.335955,0.868468 -2.68722,-0.639675 -5.8715,-1.757402 -7.05543,-2.476539 -0.48059,-0.29192 -0.93607,-0.468503 -1.01217,-0.392409 -0.3072,0.307181 -4.80592,15.148311 -4.64137,15.311802 0.0976,0.09694 2.08232,0.651616 4.41068,1.232612 9.517135,2.374845 17.097985,3.103147 25.135415,2.414799 z M -72.901355,39.097397 c 0.14409,-0.691224 2.50198,-12.359349 5.23975,-25.929167 2.73775,-13.56981976 5.04568,-24.672401 5.12871,-24.672401 0.083,0 3.40043,10.70363124 7.37203,23.785841 3.97161,13.082209 7.51637,24.750334 7.87723,25.929166 l 0.65612,2.143332 h 12.68317 c 6.97576,0 12.6832,-0.06153 12.6832,-0.136724 0,-0.0752 3.57187,-16.906708 7.9375,-37.4033648 4.36562,-20.4966502 7.9375,-37.4610602 7.9375,-37.6986902 0,-0.39167 -0.88869,-0.43206 -9.50717,-0.43206 -8.8265,0 -9.51685,0.0331 -9.6425,0.46302 -0.0744,0.25467 -2.4891,12.05503 -5.36588,26.2230402 -2.87682,14.168004 -5.29233,25.5980038 -5.36787,25.3999978 -0.0755,-0.198007 -3.59323,-11.9686068 -7.81712,-26.1568888 l -7.67982,-25.7968692 -12.54971,-0.0688 c -6.90232,-0.0378 -12.63902,0.0217 -12.74821,0.13229 -0.10917,0.11058 -3.78407,16.92934 -8.16645,37.3750202 -4.38237,20.4456768 -8.02888,37.3823168 -8.10339,37.6369788 -0.12726,0.434985 0.449,0.463021 9.51772,0.463021 h 9.65322 z m 79.74314,0.926041 c 0.0625,-0.181901 1.59284,-7.444713 3.40066,-16.139583 l 3.28695,-15.8088538 h 11.94871 c 11.24482,0 11.94229,0.02728 11.83979,0.463021 -0.5443,2.3138968 -6.45613,31.0488568 -6.45613,31.3805668 0,0.396801 0.90226,0.435579 10.13497,0.435579 h 10.135 l 7.85855,-37.6369798 c 4.32221,-20.7003392 7.85773,-37.7262792 7.8567,-37.8354192 0,-0.10914 -4.57288,-0.19844 -10.15963,-0.19844 h -10.15776 l -0.39605,1.78594 c -0.21781,0.98227 -1.57017,7.47117 -3.00522,14.41979 l -2.60916,12.6338612 h -11.94768 c -11.24461,0 -11.94115,-0.0272 -11.83672,-0.463021 0.52594,-2.19479 5.66034,-27.4693902 5.66034,-27.8635702 0,-0.49859 -0.28189,-0.513 -10.03856,-0.513 -5.52119,0 -10.09325,0.0893 -10.16008,0.19844 -0.10784,0.17608 -15.7847,74.997654 -15.7847,75.336268 0,0.07487 4.57118,0.136131 10.15815,0.136131 7.88948,0 10.18355,-0.07386 10.27187,-0.33073 z"
         id="path3022-2" />
    </g>
  </g>
</svg>
