<?xml version="1.0" encoding="UTF-8" standalone="no"?>
<svg
   xmlns:dc="http://purl.org/dc/elements/1.1/"
   xmlns:cc="http://creativecommons.org/ns#"
   xmlns:rdf="http://www.w3.org/1999/02/22-rdf-syntax-ns#"
   xmlns:svg="http://www.w3.org/2000/svg"
   xmlns="http://www.w3.org/2000/svg"
   xmlns:sodipodi="http://sodipodi.sourceforge.net/DTD/sodipodi-0.dtd"
   xmlns:inkscape="http://www.inkscape.org/namespaces/inkscape"
   width="100%"
   height="100%"
   viewBox="0 0 300 100"
   version="1.1"
   xml:space="preserve"
   style="fill-rule:evenodd;clip-rule:evenodd;stroke-linecap:round;stroke-miterlimit:1.5;"
   id="svg1418"
   sodipodi:docname="muller.svg"
   inkscape:version="0.92.5 (2060ec1f9f, 2020-04-08)"><metadata
   id="metadata1424"><rdf:RDF><cc:Work
       rdf:about=""><dc:format>image/svg+xml</dc:format><dc:type
         rdf:resource="http://purl.org/dc/dcmitype/StillImage" /></cc:Work></rdf:RDF></metadata><defs
   id="defs1422" /><sodipodi:namedview
   pagecolor="#ffffff"
   bordercolor="#666666"
   borderopacity="1"
   objecttolerance="10"
   gridtolerance="10"
   guidetolerance="10"
   inkscape:pageopacity="0"
   inkscape:pageshadow="2"
   inkscape:window-width="2800"
   inkscape:window-height="1672"
   id="namedview1420"
   showgrid="false"
   inkscape:zoom="2.36"
   inkscape:cx="150"
   inkscape:cy="50"
   inkscape:window-x="80"
   inkscape:window-y="54"
   inkscape:window-maximized="1"
   inkscape:current-layer="svg1418" />
    <g
   transform="matrix(0.629934,0,0,0.629934,55.985185,12.363734)"
   id="g1416">
        <path
   d="M 279.821,-13.943 H 18.67 v 123.831 c 10.587,24.373 85.442,28.109 117.884,18.941 47.608,-13.453 80.013,-21.75 143.267,0 z"
   style="fill:#e71600;stroke:#ffffff;stroke-width:7.05999994px"
   id="path1352"
   inkscape:connector-curvature="0" />
        <g
   id="g1414">
            <g
   transform="translate(-0.850983,1.3105)"
   id="g1356">
                <path
   d="M 230.2,91.259 V 36.056 c 7.23,-4.167 16.733,-8.036 29.258,-5.344 v 12.141 c -5.404,0.84 -9.263,1.863 -11.035,4.039 V 91.259 H 230.2"
   style="fill:#ffffff;stroke:#000000;stroke-width:3px;stroke-linecap:square"
   id="path1354"
   inkscape:connector-curvature="0" />
            </g>
            <g
   id="g1370">
                <g
   transform="translate(-0.850983,1.3105)"
   id="g1360">
                    <path
   d="m 187.723,45.25 c 0.759,-7.974 6.793,-12.964 13.57,-13.02 h 15.866 c 6.457,-0.062 10.642,5.317 11.225,13.02 v 33.699 c -1.225,7.199 -5.194,11.022 -11.225,12.31 h -15.866 c -8.02,-0.552 -12.808,-5.777 -13.57,-12.31 z"
   style="fill:#ffffff;stroke:#000000;stroke-width:3px;stroke-linecap:square"
   id="path1358"
   inkscape:connector-curvature="0" />
                </g>
                <g
   transform="translate(-0.850983,1.3105)"
   id="g1364">
                    <path
   d="M 228.384,63.592 H 209.103 V 76.146"
   style="fill:#ffffff;stroke:#000000;stroke-width:3px;stroke-linecap:butt"
   id="path1362"
   inkscape:connector-curvature="0" />
                </g>
                <g
   transform="translate(-0.850983,1.3105)"
   id="g1368">
                    <path
   d="M 209.103,58.327 V 46.892"
   style="fill:none;stroke:#000000;stroke-width:3px;stroke-linecap:butt"
   id="path1366"
   inkscape:connector-curvature="0" />
                </g>
            </g>
            <g
   id="g1380">
                <g
   transform="translate(-0.850983,1.3105)"
   id="g1374">
                    <rect
   x="146.991"
   y="6.1199999"
   width="40.731998"
   height="85.139"
   style="fill:#ffffff;stroke:#000000;stroke-width:3px;stroke-linecap:square"
   id="rect1372" />
                </g>
                <g
   transform="translate(-0.850983,1.3105)"
   id="g1378">
                    <path
   d="M 167.357,6.12 V 91.259"
   style="fill:none;stroke:#000000;stroke-width:3px;stroke-linecap:square"
   id="path1376"
   inkscape:connector-curvature="0" />
                </g>
            </g>
            <g
   id="g1398">
                <g
   transform="translate(-0.850983,1.3105)"
   id="g1384">
                    <path
   d="m 104.222,32.23 v 46.537 c 0.047,7.092 4.821,11.279 12.52,12.492 h 17.107 c 7.433,-1.242 11.962,-6.361 12.104,-12.492 V 32.23 Z"
   style="fill:#ffffff;stroke:#000000;stroke-width:3px"
   id="path1382"
   inkscape:connector-curvature="0" />
                </g>
                <g
   transform="translate(-0.850983,1.3105)"
   id="g1388">
                    <path
   d="M 125.087,32.23 V 75.137"
   style="fill:none;stroke:#000000;stroke-width:3px"
   id="path1386"
   inkscape:connector-curvature="0" />
                </g>
                <g
   transform="translate(-0.850983,1.3105)"
   id="g1392">
                    <circle
   cx="115.418"
   cy="21.218"
   r="9.6700001"
   style="fill:#ffffff;stroke:#000000;stroke-width:3px;stroke-linecap:square"
   id="circle1390" />
                </g>
                <g
   transform="translate(-0.850983,1.3105)"
   id="g1396">
                    <circle
   cx="134.757"
   cy="21.218"
   r="9.6700001"
   style="fill:#ffffff;stroke:#000000;stroke-width:3px;stroke-linecap:square"
   id="circle1394" />
                </g>
            </g>
            <g
   id="g1412">
                <g
   transform="translate(-0.850983,1.3105)"
   id="g1402">
                    <path
   d="m 42.244,91.259 h 60.853 V 41.696 C 102.99,35.406 99.789,32.202 93.94,32.23 H 52.044 c -6.616,-0.015 -9.812,2.987 -9.8,9.466 z"
   style="fill:#ffffff;stroke:#000000;stroke-width:3px;stroke-linecap:square"
   id="path1400"
   inkscape:connector-curvature="0" />
                </g>
                <g
   transform="translate(-0.850983,1.3105)"
   id="g1406">
                    <path
   d="M 62.384,46.646 V 91.259"
   style="fill:none;stroke:#000000;stroke-width:3px"
   id="path1404"
   inkscape:connector-curvature="0" />
                </g>
                <g
   transform="translate(-0.850983,1.3105)"
   id="g1410">
                    <path
   d="M 82.982,46.048 V 90.661"
   style="fill:none;stroke:#000000;stroke-width:3px"
   id="path1408"
   inkscape:connector-curvature="0" />
                </g>
            </g>
        </g>
    </g>
</svg>