<?xml version="1.0" encoding="UTF-8" standalone="no"?>
<!DOCTYPE svg PUBLIC "-//W3C//DTD SVG 1.1//EN" "http://www.w3.org/Graphics/SVG/1.1/DTD/svg11.dtd">
<svg width="100%" height="100%" viewBox="0 0 300 100" version="1.1" xmlns="http://www.w3.org/2000/svg" xmlns:xlink="http://www.w3.org/1999/xlink" xml:space="preserve" xmlns:serif="http://www.serif.com/" style="fill-rule:evenodd;clip-rule:evenodd;stroke-linejoin:round;stroke-miterlimit:2;">
    <g id="g10" transform="matrix(0.18178,0,0,-0.18178,-10.253,95.1714)">
        <g id="g14">
            <g id="path22" transform="matrix(1,0,0,1,403.191,283.448)">
                <path d="M0,0C-0.706,3.756 -4.683,7.605 -7.988,7.226C-9.334,7.07 -11.248,5.233 -11.537,3.869C-12.178,0.87 -7.69,-4.479 -5.102,-3.83C-3.2,-3.351 -1.687,-1.332 0,0M-119.242,-4.139C-103.85,-2.378 -89.442,1.811 -76.167,9.411C-73.029,11.208 -70.106,13.72 -67.805,16.495C-66.719,17.807 -66.489,20.962 -67.306,22.541C-73.664,34.863 -92.095,40.334 -104.066,33.454C-115.067,27.125 -123.236,17.909 -129.359,6.888C-131.978,2.171 -130.754,-0.91 -125.649,-2.75C-123.565,-3.498 -121.289,-3.713 -119.242,-4.139M-144.411,10.993C-136.463,20.659 -129.577,30.447 -121.252,38.798C-111.158,48.92 -98.926,55.613 -83.801,54.692C-74.477,54.125 -66.305,50.811 -59.372,44.552C-51.925,37.831 -49.901,29.58 -52.588,20.024C-53.198,17.864 -53.79,15.687 -54.23,13.487C-55.168,8.765 -54.193,7.747 -49.32,8.167C-42.545,8.745 -36.916,14.698 -36.641,22.907C-36.306,32.839 -36.397,42.831 -37.066,52.744C-38.991,81.337 -43.846,109.5 -50.346,137.392C-50.647,138.671 -50.672,140.346 -50.088,141.44C-47.594,146.117 -44.83,150.653 -42.148,155.228C-40.912,157.337 -39.098,158.136 -37.687,155.792C-30.421,143.714 -23.346,131.519 -15.664,118.449C-18.088,118.086 -19.378,117.726 -20.67,117.729C-27.108,117.74 -29.735,114.868 -29.018,108.558C-28.006,99.621 -26.68,90.703 -26.116,81.737C-25.044,64.74 -24.341,47.718 -23.652,30.702C-23.38,23.944 -21.926,22.637 -15.54,25.432C-9.071,28.261 -2.54,29.018 3.41,25.362C7.458,22.873 11.568,19.293 13.762,15.188C20.801,2.044 15.97,-14.219 3.966,-20.477C-5.287,-25.302 -14.91,-23.278 -21.433,-15.075C-22.527,-13.7 -23.488,-12.197 -24.355,-10.664C-29.971,-0.746 -32.267,-0.142 -43.123,-4.323C-52.398,-7.9 -61.71,-11.65 -71.325,-14.029C-84.543,-17.3 -97.991,-19.896 -111.481,-21.756C-123.42,-23.4 -134.807,-20.494 -145.352,-13.595C-147.421,-15.333 -149.46,-17.045 -152.243,-19.383C-153.009,-15.976 -154.446,-13.034 -154.069,-10.341C-153.643,-7.316 -154.604,-6.021 -156.835,-4.584C-166.289,1.508 -172.854,1.817 -181.449,-5.42C-194.596,-16.489 -207.147,-28.273 -220.014,-39.677C-224.58,-43.724 -229.136,-47.82 -234.045,-51.42C-241.268,-56.71 -249.633,-58.051 -258.372,-56.954C-269.94,-55.502 -278.286,-42.126 -275.579,-28.908C-274.49,-23.601 -272.401,-18.496 -270.689,-13.329C-270.043,-11.373 -269.175,-9.493 -268.347,-7.427C-275.995,-6.256 -283.53,-5.751 -290.679,-3.821C-297.575,-1.953 -304.523,0.626 -310.657,4.232C-325.885,13.187 -334.111,26.351 -331.971,44.683C-330.279,59.19 -325.361,72.479 -316.23,83.951C-314.657,85.927 -311.672,86.777 -309.339,88.149C-309.348,85.708 -308.801,83.1 -309.475,80.861C-311.094,75.495 -313.413,70.345 -315.204,65.024C-316.888,60.024 -318.821,55.009 -319.66,49.839C-322.767,30.716 -309.444,18.995 -294.369,13.062C-283.028,8.6 -271.366,9.32 -259.736,12.087C-242.711,16.135 -227.211,23.244 -214.549,35.566C-212.21,37.843 -211.105,41.386 -209.429,44.345C-212.63,45.275 -215.776,46.517 -219.039,47.061C-224.079,47.903 -229.36,47.665 -234.252,48.96C-246.478,52.189 -250.971,59.763 -248.757,72.142C-244.349,96.795 -225.13,115.75 -200.517,119.718C-193.555,120.841 -189.456,117.746 -189.575,110.69C-189.652,106.084 -190.346,101.358 -191.679,96.968C-192.234,95.134 -194.978,93.331 -197.067,92.752C-199.593,92.058 -202.158,93.042 -202.748,96.415C-203.278,99.448 -205.563,99.833 -207.904,99.017C-219.949,94.81 -229.068,87.041 -234.811,75.662C-236.914,71.504 -235.108,68.627 -230.017,68.071C-223.985,67.414 -217.865,67.555 -211.782,67.34C-210.98,67.311 -210.175,67.255 -209.378,67.15C-192.759,65.015 -186.1,51.854 -194.491,37.375C-196.486,33.931 -198.995,30.657 -201.793,27.828C-218.415,11.021 -237.711,-1.216 -261.196,-6.012C-263.667,-6.52 -265.493,-7.498 -265.363,-10.298C-265.082,-16.359 -265.499,-22.606 -264.152,-28.434C-262.02,-37.658 -254.435,-41.941 -245.684,-38.296C-238.89,-35.464 -232.41,-31.071 -226.922,-26.118C-219.189,-19.142 -212.737,-10.772 -205.296,-3.444C-199.247,2.514 -193.017,8.507 -186.035,13.26C-171.122,23.409 -158.831,23.681 -146.163,12.152C-145.474,11.523 -144.592,11.112 -144.411,10.993" style="fill:rgb(16,118,20);fill-rule:nonzero;"/>
            </g>
            <g id="path26" transform="matrix(1,0,0,1,1019.67,438.688)">
                <path d="M0,0C0.626,-4.314 1.358,-8.487 1.823,-12.685C6.469,-54.859 11.591,-96.993 10.772,-139.561C10.698,-143.348 11.392,-147.291 12.495,-150.931C16.512,-164.157 30.844,-169.362 41.649,-160.679C48.005,-155.577 52.56,-148.235 57.872,-141.857C58.686,-140.885 59.031,-139.465 59.947,-138.648C60.812,-137.874 62.269,-137.078 63.235,-137.296C64.162,-137.509 65.22,-138.915 65.46,-139.969C65.886,-141.817 65.775,-143.799 65.815,-145.723C66.053,-157.348 71.932,-164.132 83.486,-166.26C98.493,-169.021 112.337,-165.498 125.022,-157.759C134.328,-152.084 142.997,-145.366 151.951,-139.122C153.621,-137.954 155.307,-136.817 158.012,-134.966C158.012,-137.645 158.221,-139.272 157.978,-140.828C156.277,-151.642 160.707,-159.494 169.415,-160.923C180.094,-162.677 188.629,-157.178 189.771,-146.307C190.528,-139.099 189.454,-131.587 188.422,-124.328C184.167,-94.445 179.634,-64.604 175.147,-34.756C174.623,-31.272 174.311,-27.578 172.894,-24.437C168.049,-13.691 176.196,-6.951 180.473,0.831C182.035,3.668 184.082,1.006 185.136,-0.737C188.952,-7.064 192.657,-13.459 196.381,-19.843C198.729,-23.868 201.101,-27.882 203.323,-31.978C204.114,-33.435 204.491,-35.121 205.169,-37.018C203.831,-37.287 203.088,-37.568 202.346,-37.568C194.068,-37.553 192.362,-39.597 193.139,-47.996C196.01,-79.186 199.222,-110.356 201.404,-141.599C202.232,-153.454 197.649,-164.401 189.128,-173.066C182.421,-179.884 173.778,-181.247 164.979,-178.963C161.493,-178.058 158.496,-174.677 155.682,-171.995C154.264,-170.646 153.777,-168.333 152.83,-166.473C150.211,-161.331 148.629,-161.257 144.026,-164.616C136.667,-169.985 129.438,-175.847 121.323,-179.787C113.647,-183.518 105.043,-185.89 96.585,-187.342C81.811,-189.879 69.403,-184.782 60.009,-172.911C56.883,-168.956 55.341,-168.97 52.707,-173.682C48.549,-181.117 42.437,-185.434 33.942,-186.287C19.38,-187.753 9.057,-180.111 6.123,-165.674C5.709,-163.63 5.601,-161.521 5.168,-159.483C4.428,-155.976 2.582,-155.285 -0.295,-157.442C-1.437,-158.304 -2.435,-159.389 -3.382,-160.475C-22.042,-181.823 -46.157,-190.803 -73.888,-191.826C-88.603,-192.37 -101.914,-188.742 -113.377,-179.317C-124.061,-170.532 -128.928,-159.313 -125.929,-145.559C-124.191,-137.599 -121.706,-129.776 -119.086,-122.049C-118.148,-119.273 -116.198,-116.544 -113.998,-114.61C-112.779,-113.539 -109.604,-113.352 -108.162,-114.205C-106.092,-115.432 -105.471,-117.848 -107.303,-120.447C-109.508,-123.582 -111.555,-126.907 -113.125,-130.394C-118.596,-142.543 -115.937,-152.875 -105.463,-161.215C-97.112,-167.862 -87.245,-170.702 -76.927,-171.828C-47.021,-175.079 -22.635,-164.735 -4.144,-141.043C-2.081,-138.404 -0.723,-134.368 -0.808,-131.02C-1.763,-93.883 -4.859,-56.917 -10.519,-20.174C-10.874,-17.875 -10.278,-15.117 -9.261,-12.986C-7.194,-8.663 -4.552,-4.612 -2.083,-0.488C-1.925,-0.218 -1.225,-0.269 0,0" style="fill:rgb(16,118,20);fill-rule:nonzero;"/>
            </g>
            <g id="path30" transform="matrix(1,0,0,1,734.75,326.43)">
                <path d="M0,0C-0.907,2.529 -1.332,4.249 -2.12,5.786C-3.2,7.892 -5.431,9.507 -6.885,6.999C-9.451,2.574 -11.305,-2.313 -12.94,-7.183C-13.255,-8.11 -11.449,-10.375 -10.128,-11.032C-9.068,-11.56 -6.54,-11.095 -5.91,-10.196C-3.591,-6.868 -1.786,-3.178 0,0M5.063,-57.557C7.191,-56.492 9.323,-55.426 11.452,-54.363C10.151,-52.294 9.323,-49.317 7.449,-48.345C3.589,-46.338 -0.746,-44.881 -5.043,-44.172C-8.838,-43.546 -10.287,-46.341 -8.184,-49.663C-5.238,-54.309 -0.805,-56.577 5.063,-57.557M-4.272,40.567C7.934,31.133 14.457,-0.094 -0.867,-25.571C2.648,-26.705 6.231,-27.601 9.609,-28.993C24.911,-35.291 31.496,-54.057 23.627,-68.615C19.973,-75.373 12.781,-78.222 3.611,-76.544C-12.529,-73.587 -20.676,-65.177 -24.398,-47.631C-26.099,-39.623 -27.972,-38.446 -35.637,-41.613C-50.077,-47.574 -65.231,-50.448 -80.643,-51.406C-104.298,-52.875 -125.107,-46.205 -141.154,-27.726C-142.608,-26.053 -144.315,-24.109 -146.273,-23.528C-147.852,-23.057 -150.792,-23.873 -151.702,-25.143C-153.272,-27.34 -152.031,-29.35 -149.176,-30.019C-147.779,-30.345 -146.398,-30.827 -145.08,-31.402C-138.878,-34.104 -135.547,-39.43 -137.823,-45.726C-140.292,-52.546 -143.393,-59.53 -147.832,-65.174C-165.214,-87.273 -206.603,-107.83 -244.967,-93.487C-263.049,-86.729 -271.826,-72.524 -275.315,-54.87C-278.425,-39.138 -271.449,-25.73 -262.412,-13.354C-262.037,-12.838 -261.601,-12.237 -261.054,-12.008C-259.807,-11.48 -258.474,-11.16 -257.176,-10.752C-257.071,-12.076 -256.555,-13.53 -256.941,-14.692C-258.097,-18.19 -259.73,-21.529 -260.957,-25.007C-263.999,-33.616 -265.567,-42.466 -263.781,-51.54C-260.223,-69.599 -246.883,-80.963 -226.568,-81.703C-201.728,-82.61 -178.869,-76.005 -159.109,-60.338C-156.733,-58.453 -154.556,-56.242 -152.606,-53.915C-149.808,-50.576 -150.452,-48.345 -154.766,-47.432C-158.658,-46.613 -162.726,-46.446 -166.723,-46.346C-173.265,-46.179 -179.813,-46.298 -187.597,-46.298C-186.35,-39.501 -185.723,-33.625 -184,-28.094C-183.441,-26.303 -180.164,-24.82 -177.86,-24.199C-161.83,-19.882 -150.406,-3.77 -152.64,12.694C-154.78,28.44 -158.783,44.019 -159.778,59.811C-160.824,76.391 -159.344,93.138 -158.726,109.806C-158.672,111.268 -156.827,112.669 -155.815,114.097C-154.976,112.533 -153.601,111.039 -153.38,109.392C-150.021,84.076 -146.928,58.72 -143.515,33.409C-142.206,23.706 -140.536,14.034 -138.535,4.45C-134.552,-14.635 -120.699,-27.198 -100.511,-30.883C-86.879,-33.369 -73.587,-30.844 -60.324,-28.44C-52.449,-27.011 -44.629,-25.055 -36.972,-22.708C-26.578,-19.519 -20.988,-12.382 -18.522,-1.468C-15.704,10.996 -11.047,23.049 -7.084,35.246C-6.511,37.012 -5.34,38.582 -4.272,40.567" style="fill:rgb(16,118,20);fill-rule:nonzero;"/>
            </g>
            <g id="path34" transform="matrix(1,0,0,1,809.046,266.991)">
                <path d="M0,0C1.27,0.179 3.385,0.275 5.383,0.802C14.309,3.161 17.22,13.618 10.848,20.2C6.469,24.724 4.765,25.036 0.235,20.537C-2.775,17.549 -5.434,13.963 -7.367,10.193C-10.908,3.297 -8.586,0.011 0,0M-103.408,153.879C-90.011,145.247 -77.598,137.313 -65.273,129.249C-63.221,127.908 -61.773,125.946 -65.194,124.285C-70.396,121.765 -70.625,120.847 -66.453,116.779C-53.209,103.876 -39.912,91.023 -26.631,78.157C-17.277,69.094 -7.92,60.038 1.449,50.992C3.05,49.445 4.714,47.965 6.681,46.142C13.728,52.875 20.557,59.397 27.388,65.92C28.667,67.141 29.809,68.573 31.263,69.528C40.314,75.472 42.591,83.971 40.952,94.133C38.018,112.348 35.271,130.595 32.267,148.799C31.377,154.182 35.614,165.056 40.895,168.792C41.649,167.38 42.491,166.073 43.078,164.662C47.823,153.247 52.574,141.834 57.175,130.36C57.835,128.713 57.688,126.74 57.915,124.917C56.245,125.368 54.482,125.606 52.931,126.309C50.04,127.621 47.829,126.261 48.246,122.786C49.487,112.436 51.001,102.121 52.577,90.547C55.5,93.115 57.94,94.822 59.839,96.999C73.247,112.388 86.681,127.763 99.825,143.379C106.656,151.489 112.918,160.078 119.441,168.452C120.132,169.339 120.685,170.447 121.572,171.043C122.82,171.873 124.325,172.318 125.719,172.928C126.108,171.496 127.114,169.892 126.774,168.661C125.668,164.662 124.452,160.608 122.59,156.923C113.292,138.538 100.233,122.803 86.749,107.456C77.204,96.591 66.988,86.315 57.336,75.543C55.636,73.65 54.411,70.611 54.36,68.074C53.884,44.606 54.074,21.121 53.289,-2.33C52.951,-12.461 49.399,-22.037 42.789,-30.501L42.789,58.19C42.327,58.348 41.865,58.507 41.403,58.663C33.732,50.958 26.005,43.308 18.502,35.444C17.932,34.846 18.598,32.539 19.273,31.36C25.551,20.492 27.06,9 23.632,-3.01C19.709,-16.753 6.055,-25.268 -8.056,-23.077C-14.465,-22.079 -18.06,-18.632 -19.599,-11.801C-22.995,3.249 -19.718,16.543 -8.989,27.825C-8.215,28.641 -7.478,29.517 -6.596,30.203C-5.715,30.889 -4.677,31.377 -3.708,31.952C-3.515,32.675 -3.319,33.398 -3.127,34.123C-6.131,36.519 -9.403,38.645 -12.101,41.346C-41.08,70.37 -69.999,99.456 -98.804,128.653C-100.403,130.272 -101.398,132.942 -101.73,135.261C-102.543,140.961 -102.807,146.741 -103.408,153.879" style="fill:rgb(16,118,20);fill-rule:nonzero;"/>
            </g>
            <g id="path38" transform="matrix(1,0,0,1,444.267,394.657)">
                <path d="M0,0C-1.738,-0.111 -3.093,-0.252 -4.453,-0.269C-10.522,-0.349 -13.099,-3.231 -12.161,-9.556C-10.959,-17.654 -9.357,-25.693 -8.053,-33.778C-2.205,-70.118 -1.811,-106.41 -9.553,-142.546C-10.48,-146.869 -12.365,-151.078 -14.406,-155.035C-15.321,-156.815 -17.711,-157.833 -19.431,-159.197C-19.894,-158.922 -20.356,-158.647 -20.818,-158.372C-20.818,-156.54 -20.857,-154.709 -20.809,-152.878C-20.163,-127.979 -18.519,-103.059 -19.089,-78.188C-19.834,-45.658 -26.249,-13.762 -33.199,17.972C-33.715,20.319 -33.134,23.278 -32.105,25.512C-30.234,29.577 -27.655,33.318 -25.347,37.182C-23.893,39.611 -22.11,39.969 -20.602,37.403C-13.839,25.911 -7.177,14.363 -0.524,2.806C-0.17,2.194 -0.235,1.338 0,0" style="fill:rgb(16,118,20);fill-rule:nonzero;"/>
            </g>
            <g id="path42" transform="matrix(1,0,0,1,1276.53,403.284)">
                <path d="M0,0C-11.976,-1.179 -12.917,-2.483 -10.786,-14.261C-6.486,-37.99 -2.866,-61.838 -3.231,-86.003C-3.532,-106.058 -4.411,-126.167 -9.842,-145.684C-10.817,-149.193 -12.421,-152.612 -14.284,-155.744C-15.103,-157.127 -17.294,-157.697 -18.859,-158.632C-19.352,-156.969 -20.307,-155.296 -20.268,-153.646C-19.687,-128.443 -17.935,-103.212 -18.553,-78.043C-19.344,-45.711 -25.758,-13.995 -32.576,17.575C-33.117,20.069 -32.491,23.187 -31.422,25.571C-29.594,29.653 -27.011,33.395 -24.701,37.253C-23.414,39.402 -21.705,39.983 -20.285,37.573C-13.456,25.948 -6.735,14.261 -0.043,2.557C0.295,1.967 0,1.018 0,0" style="fill:rgb(16,118,20);fill-rule:nonzero;"/>
            </g>
            <g id="path46" transform="matrix(1,0,0,1,563.429,124.578)">
                <path d="M0,0C6.548,0.34 12.47,0.417 18.34,1.029C22.938,1.508 24.846,4.992 24.973,9.184C25.098,13.246 23.202,16.914 19.001,17.317C12.728,17.921 6.352,17.476 0,17.476L0,0ZM-0.045,-31.632C6.741,-31.632 12.997,-31.861 19.227,-31.561C24.058,-31.326 26.892,-27.91 27.196,-22.918C27.533,-17.382 25.036,-12.934 20.14,-12.489C13.527,-11.889 6.82,-12.342 -0.045,-12.342L-0.045,-31.632ZM28.928,-4.059C40.978,-13.303 43.639,-24.026 37.247,-35.073C34.228,-40.294 29.693,-43.569 23.652,-43.775C12.574,-44.161 1.48,-44.107 -9.604,-44.266C-11.806,-44.297 -13.283,-43.875 -13.269,-41.128C-13.161,-17.827 -13.139,5.477 -13.071,28.777C-13.071,29.058 -12.804,29.336 -12.62,29.693C-1.125,29.693 10.409,29.999 21.92,29.58C29.03,29.319 33.789,24.868 36.147,18.298C38.727,11.115 37.63,4.343 32.502,-1.497C31.589,-2.54 30.206,-3.163 28.928,-4.059" style="fill:rgb(16,118,20);fill-rule:nonzero;"/>
            </g>
            <g id="path50" transform="matrix(1,0,0,1,83.2,125.992)">
                <path d="M0,0L0,-45.346L-11.682,-45.346L-11.682,28.641C-8.209,28.641 -4.7,28.945 -1.293,28.485C0.02,28.31 1.491,26.612 2.225,25.248C9.218,12.249 16.064,-0.831 22.972,-13.878C23.834,-15.508 24.803,-17.082 26.779,-18.488L26.779,28.395L38.588,28.395L38.588,-45.618C34.784,-45.618 31.113,-45.918 27.539,-45.459C26.22,-45.289 24.755,-43.523 24.004,-42.134C17.203,-29.574 10.553,-16.934 3.847,-4.32C3.03,-2.784 2.16,-1.278 1.312,0.238C0.876,0.162 0.439,0.079 0,0" style="fill:rgb(16,118,20);fill-rule:nonzero;"/>
            </g>
            <g id="path54" transform="matrix(1,0,0,1,355.016,126.278)">
                <path d="M0,0L0,-36.536C0,-46.942 0,-46.942 -11.268,-45.524L-11.268,28.363C-8.484,28.363 -5.78,28.168 -3.121,28.414C-0.295,28.681 1.196,27.541 2.472,25.089C9.729,11.129 17.135,-2.752 24.503,-16.654C24.951,-17.498 25.466,-18.306 26.646,-20.316L26.646,27.969L38.75,27.969C38.849,26.515 39.025,25.106 39.027,23.7C39.042,2.157 38.934,-19.386 39.127,-40.927C39.163,-45.031 37.78,-45.862 33.928,-46.123C28.27,-46.502 25.007,-44.935 22.399,-39.487C16.586,-27.332 9.876,-15.602 3.518,-3.711C2.781,-2.333 1.942,-1.012 1.151,0.332C0.768,0.221 0.383,0.111 0,0" style="fill:rgb(16,118,20);fill-rule:nonzero;"/>
            </g>
            <g id="path58" transform="matrix(1,0,0,1,1088.16,107.728)">
                <path d="M0,0L-14.97,0L-14.97,11.988L12.472,11.988C12.472,5.148 11.832,-1.772 12.64,-8.518C13.629,-16.761 9.595,-20.908 2.957,-24.114C-5.74,-28.318 -14.683,-30.115 -24.126,-27.493C-37.749,-23.706 -43.954,-13.45 -46.508,-0.544C-48.679,10.409 -47.761,21.18 -42.939,31.456C-34.475,49.499 -14.496,51.216 -1.42,45.128C6.066,41.638 9.918,35.11 11.083,26.623C9.153,26.079 7.458,25.705 5.839,25.126C1.42,23.547 -1.208,24.188 -3.875,28.993C-9.363,38.863 -25.01,37.806 -30.543,27.094C-36.502,15.562 -36.346,3.243 -29.889,-8.019C-23.275,-19.548 -9.454,-17.311 -2.004,-10.295C-0.119,-8.518 -0.706,-4.113 0,0" style="fill:rgb(16,118,20);fill-rule:nonzero;"/>
            </g>
            <g id="path62" transform="matrix(1,0,0,1,718.455,154.394)">
                <path d="M0,0L11.687,0C11.823,-1.616 12.044,-3.013 12.044,-4.414C12.064,-25.951 11.965,-47.492 12.144,-69.032C12.175,-73.089 10.797,-73.95 6.928,-74.248C1.142,-74.696 -1.996,-72.726 -4.547,-67.459C-10.281,-55.619 -16.736,-44.127 -22.915,-32.505C-23.788,-30.864 -24.763,-29.273 -26.654,-27.882L-26.654,-72.833C-27.459,-73.42 -27.694,-73.732 -27.964,-73.766C-38.503,-75.121 -38.506,-75.118 -38.503,-64.803C-38.503,-45.193 -38.503,-25.58 -38.5,-5.97L-38.5,0.235C-34.58,0.235 -31.209,0.541 -27.947,0.085C-26.637,-0.099 -25.166,-1.749 -24.446,-3.093C-17.453,-16.101 -10.607,-29.183 -3.708,-42.239C-2.82,-43.92 -1.879,-45.57 0,-47.092L0,0Z" style="fill:rgb(16,118,20);fill-rule:nonzero;"/>
            </g>
            <g id="path66" transform="matrix(1,0,0,1,320.224,117.486)">
                <path d="M0,0C-1.057,5.202 -1.483,10.417 -3.229,15.146C-5.703,21.858 -10.93,25.79 -18.366,25.784C-25.781,25.775 -31.025,21.909 -33.608,15.211C-37.508,5.1 -37.511,-5.309 -33.367,-15.355C-30.643,-21.957 -25.432,-25.821 -17.972,-25.671C-10.689,-25.52 -5.774,-21.436 -3.348,-14.992C-1.573,-10.276 -1.083,-5.074 0,0M13.3,-1.528C11.889,-7.427 10.987,-14.516 8.467,-20.974C3.997,-32.44 -6.763,-38.959 -18.938,-38.523C-31.72,-38.066 -41.159,-32.1 -45.896,-20.14C-50.856,-7.614 -50.794,5.383 -46.602,18.113C-41.933,32.275 -32.097,38.546 -16.302,38.248C-4.003,38.018 6.511,29.755 10.179,16.73C11.73,11.228 12.155,5.403 13.3,-1.528" style="fill:rgb(16,118,20);fill-rule:nonzero;"/>
            </g>
            <g id="path70" transform="matrix(1,0,0,1,880.919,117.727)">
                <path d="M0,0C-1.21,5.258 -1.871,10.57 -3.696,15.446C-6.086,21.835 -11.174,25.387 -18.173,25.557C-25.174,25.724 -30.504,22.382 -33.202,16.18C-37.896,5.406 -38.035,-5.749 -33.029,-16.495C-30.095,-22.796 -24.871,-26.28 -17.544,-25.821C-10.675,-25.393 -5.995,-21.609 -3.699,-15.517C-1.86,-10.647 -1.219,-5.323 0,0M-49.844,0.184C-49.524,8.725 -47.993,16.736 -43.858,24.335C-33.908,42.622 -4.028,43.089 6.123,24.857C14.99,8.926 14.978,-7.892 6.851,-24.08C1.012,-35.708 -10.29,-40.204 -24.208,-38.146C-35.923,-36.42 -45.153,-27.476 -47.976,-14.584C-49.034,-9.754 -49.249,-4.745 -49.844,0.184" style="fill:rgb(16,118,20);fill-rule:nonzero;"/>
            </g>
            <g id="path74" transform="matrix(1,0,0,1,802.13,80.3307)">
                <path d="M0,0C-5.394,0 -9.74,-0.272 -14.017,0.15C-15.491,0.295 -17.342,1.877 -18.091,3.291C-22.669,11.94 -26.969,20.733 -31.388,29.469C-32.168,31.005 -33.069,32.488 -33.823,33.84C-47.665,26.079 -44.785,12.807 -44.748,0.023C-48.512,0.023 -51.67,-0.017 -54.828,0.034C-58.17,0.085 -57.461,2.676 -57.467,4.606C-57.512,23.247 -57.495,41.885 -57.498,60.525L-57.498,74.078L-44.901,74.078L-44.901,43.345C-44.277,42.905 -43.654,42.463 -43.03,42.026C-42.412,43.265 -41.981,44.649 -41.148,45.717C-34.631,54.079 -27.924,62.297 -21.532,70.753C-19.463,73.491 -17.254,74.642 -13.856,74.384C-10.086,74.103 -6.279,74.322 -1.346,74.322C-8.059,66.24 -14.043,58.989 -20.083,51.783C-25.373,45.476 -25.404,45.496 -21.433,38.375C-14.488,25.931 -7.537,13.496 0,0" style="fill:rgb(16,118,20);fill-rule:nonzero;"/>
            </g>
            <g id="path78" transform="matrix(1,0,0,1,1030.23,154.278)">
                <path d="M0,0L0,-11.934L-17.745,-11.934L-21.124,-11.934C-36.541,-11.934 -36.541,-11.934 -33.931,-28.502L-2.31,-28.502L-2.31,-40.89L-21.345,-40.89C-34.512,-40.89 -34.512,-40.89 -34.523,-54.286C-34.523,-55.253 -34.43,-56.231 -34.546,-57.183C-34.951,-60.489 -33.681,-61.724 -30.237,-61.642C-21.716,-61.435 -13.187,-61.577 -4.663,-61.577L1.386,-61.577C1.386,-65.154 1.593,-68.315 1.259,-71.413C1.159,-72.337 -0.456,-73.809 -1.389,-73.817C-16.325,-73.97 -31.258,-73.925 -46.562,-73.925L-46.562,0L0,0Z" style="fill:rgb(16,118,20);fill-rule:nonzero;"/>
            </g>
            <g id="path82" transform="matrix(1,0,0,1,648.954,109.723)">
                <path d="M0,0C-2.906,9.108 -5.641,17.683 -8.376,26.26C-8.7,26.252 -9.023,26.243 -9.346,26.235C-12.03,17.623 -14.712,9.014 -17.521,0L0,0ZM-1.857,44.923C6.625,20.282 15.015,-4.085 23.709,-29.336C19.307,-29.336 15.54,-29.477 11.801,-29.234C10.848,-29.171 9.862,-27.969 9.111,-27.102C8.623,-26.535 8.521,-25.628 8.266,-24.868C4.099,-12.461 4.099,-12.461 -9.272,-12.461C-21.492,-12.461 -21.662,-12.41 -24.925,-23.8C-26.124,-27.989 -27.865,-30.217 -32.533,-29.475C-34.858,-29.109 -37.293,-29.412 -40.377,-29.412C-38.103,-22.572 -36.065,-16.381 -33.99,-10.205C-28.429,6.361 -22.703,22.873 -17.382,39.515C-16.038,43.724 -14.207,45.694 -9.677,44.986C-7.33,44.62 -4.878,44.923 -1.857,44.923" style="fill:rgb(16,118,20);fill-rule:nonzero;"/>
            </g>
            <g id="path86" transform="matrix(1,0,0,1,152.234,109.837)">
                <path d="M0,0L17.49,0C14.621,8.906 11.937,17.237 9.252,25.571C8.813,25.546 8.374,25.523 7.934,25.498C5.318,17.099 2.707,8.697 0,0M40.859,-29.475C36.734,-29.475 33.055,-29.704 29.435,-29.341C28.287,-29.228 26.838,-27.711 26.334,-26.504C24.857,-22.958 24.024,-19.134 22.436,-15.65C21.824,-14.306 19.894,-12.781 18.496,-12.713C12.078,-12.402 5.624,-12.37 -0.791,-12.728C-2.279,-12.813 -4.272,-14.522 -4.966,-15.987C-6.395,-19.003 -7.257,-22.326 -8.062,-25.591C-8.796,-28.551 -10.267,-29.88 -13.442,-29.582C-16.285,-29.313 -19.171,-29.523 -22.714,-29.523C-21.668,-26.045 -20.889,-23.165 -19.942,-20.344C-13.161,-0.099 -6.273,20.109 0.383,40.391C1.434,43.597 2.684,45.009 6.321,44.909C15.449,44.663 15.466,44.872 18.451,36.247C25.384,16.226 32.309,-3.798 39.217,-23.825C39.787,-25.472 40.195,-27.173 40.859,-29.475" style="fill:rgb(16,118,20);fill-rule:nonzero;"/>
            </g>
            <g id="path90" transform="matrix(1,0,0,1,433.329,135.833)">
                <path d="M0,0C-0.386,-0.082 -0.771,-0.164 -1.157,-0.247C-3.801,-8.751 -6.446,-17.254 -9.227,-26.189L8.337,-26.189C5.462,-17.164 2.733,-8.58 0,0M31.47,-54.734C30.745,-55.12 30.609,-55.244 30.461,-55.261C18.403,-56.653 18.054,-56.75 14.865,-45.19C13.382,-39.815 11.015,-37.879 5.545,-38.463C0.771,-38.974 -4.11,-38.812 -8.915,-38.494C-12.353,-38.271 -13.873,-39.62 -14.587,-42.795C-15.256,-45.763 -16.495,-48.603 -17.141,-51.571C-17.819,-54.672 -19.488,-55.791 -22.578,-55.565C-25.432,-55.355 -28.315,-55.519 -31.966,-55.519C-30.92,-52.248 -30.095,-49.564 -29.203,-46.905C-22.428,-26.674 -15.531,-6.486 -8.955,13.81C-7.707,17.657 -6.049,19.08 -1.933,18.916C6.378,18.575 6.426,18.839 9.17,10.902C16.203,-9.417 23.204,-29.747 30.195,-50.08C30.708,-51.568 31.034,-53.121 31.47,-54.734" style="fill:rgb(16,118,20);fill-rule:nonzero;"/>
            </g>
            <g id="path94" transform="matrix(1,0,0,1,1184.91,131.637)">
                <path d="M0,0C0,-11.03 0,-11.049 11.058,-10.627C12.651,-10.568 14.542,-10.681 15.752,-9.884C18.162,-8.303 21.081,-6.562 22.209,-4.15C25.39,2.673 21.373,9.179 13.89,10.358C0.734,12.43 0.003,11.883 0,0M0.003,-51.077L-12.025,-51.077L-12.025,22.374C-0.952,22.374 9.924,22.564 20.789,22.294C26.614,22.15 30.798,18.505 33.236,13.569C37.769,4.374 37.766,-5.04 32.627,-14.102C29.214,-20.112 23.516,-22.484 16.92,-22.876C12.753,-23.125 8.558,-23.21 4.388,-23.02C1.069,-22.87 -0.156,-23.967 -0.06,-27.388C0.147,-35.073 0.003,-42.769 0.003,-51.077" style="fill:rgb(16,118,20);fill-rule:nonzero;"/>
            </g>
            <g id="path98" transform="matrix(1,0,0,1,1174.37,438.58)">
                <path d="M0,0C-2.92,-5.363 -5.145,-9.941 -7.88,-14.193C-8.79,-15.605 -10.916,-16.415 -12.643,-17.09C-47.843,-30.881 -81.791,-47.157 -113.621,-67.669C-117.4,-70.101 -120.909,-72.975 -124.801,-75.195C-126.329,-76.068 -129.175,-76.53 -130.311,-75.685C-131.508,-74.792 -132.146,-71.909 -131.692,-70.265C-130.178,-64.786 -127.48,-60.163 -122.255,-56.911C-86.42,-34.588 -48.773,-16.118 -8.705,-2.679C-6.18,-1.831 -3.609,-1.108 0,0" style="fill:rgb(16,118,20);fill-rule:nonzero;"/>
            </g>
            <g id="path102" transform="matrix(1,0,0,1,926.959,304.633)">
                <path d="M0,0C3.764,-0.283 7.549,-0.42 11.29,-0.873C20.931,-2.03 30.24,-0.964 38.903,3.498C40.915,4.538 42.225,6.936 43.86,8.708C41.922,9.921 40.133,11.744 38.027,12.251C25.002,15.392 23.562,17.192 24.483,30.728C25.308,42.823 30.217,52.96 39.251,61.058C40.436,62.121 41.749,63.094 43.132,63.882C50.44,68.031 53.311,66.41 53.311,58.204C53.308,48.291 52.977,47.818 43.37,44.705C39.591,43.478 36.317,41.559 36.754,37.071C37.213,32.357 41.054,31.116 45.074,30.591C46.497,30.404 47.962,30.523 49.408,30.543C56.239,30.645 59.335,27.882 60.024,21.039C61.781,3.637 49.893,-10.179 31.014,-12.591C21.96,-13.754 13.371,-12.416 5.74,-7.112C3.436,-5.508 1.468,-3.419 -0.655,-1.551C-0.437,-1.035 -0.218,-0.519 0,0" style="fill:rgb(16,118,20);fill-rule:nonzero;"/>
            </g>
            <g id="path106" transform="matrix(1,0,0,1,916.385,112.168)">
                <path d="M0,0L0,-31.496L-12.555,-31.496L-12.555,42.123L30.569,42.123L30.569,30.28L0.366,30.28L0.366,12.365C7.773,12.365 14.967,12.104 22.13,12.461C26.583,12.688 27.337,10.627 26.926,7.01C26.572,3.875 28.579,-0.414 22.32,-0.085C15.14,0.292 7.923,0 0,0" style="fill:rgb(16,118,20);fill-rule:nonzero;"/>
            </g>
            <g id="path110" transform="matrix(1,0,0,1,1134.34,125.613)">
                <path d="M0,0C4.241,8.396 8.439,16.123 12.064,24.111C13.876,28.103 16.26,29.648 20.529,29.095C23.156,28.755 25.863,29.032 29.35,29.032C24.712,20.475 21.042,12.229 16.072,4.861C7.628,-7.665 4.059,-21.081 5.876,-36.003C5.916,-36.32 5.882,-36.646 5.882,-36.967C5.879,-45.805 5.885,-45.686 -3.158,-45.354C-6.134,-45.247 -7.024,-44.152 -6.97,-41.315C-6.834,-33.769 -6.724,-26.209 -7.019,-18.672C-7.132,-15.763 -7.855,-12.631 -9.187,-10.063C-15.18,1.468 -21.498,12.824 -27.683,24.256C-28.42,25.62 -29.047,27.048 -30.01,29.027C-25.41,29.027 -21.421,29.273 -17.495,28.891C-16.16,28.76 -14.513,27.303 -13.813,26.016C-9.918,18.825 -6.282,11.494 -2.523,4.224C-1.877,2.974 -1.08,1.797 0,0" style="fill:rgb(16,118,20);fill-rule:nonzero;"/>
            </g>
            <g id="path114" transform="matrix(1,0,0,1,528.652,417.681)">
                <path d="M0,0C-2.381,2.313 -4.198,5.06 -5.139,4.785C-6.948,4.26 -9.218,2.177 -9.493,0.451C-9.746,-1.14 -7.639,-3.11 -6.571,-4.912C-4.714,-3.523 -2.852,-2.132 0,0M-72.198,-67.895C-47.959,-55.862 -25.461,-43.041 -9.598,-21.104C-11.577,-19.02 -13.521,-17.167 -15.242,-15.126C-24.653,-3.986 -20.356,11.293 -6.54,15.956C-0.68,17.935 5.766,15.443 6.146,9.502C6.746,0.145 9.213,-8.929 9.425,-18.278C9.448,-19.369 9.111,-20.497 8.807,-21.572C6.814,-28.67 5.193,-29.336 -1.137,-25.339C-1.996,-26.325 -2.928,-27.34 -3.798,-28.403C-18.533,-46.463 -36.842,-59.61 -58.493,-68.122C-65.418,-70.846 -67.243,-70.835 -72.198,-67.895" style="fill:rgb(16,118,20);fill-rule:nonzero;"/>
            </g>
            <g id="path118" transform="matrix(1,0,0,1,963.135,422.62)">
                <path d="M0,0C2.163,-2.361 3.617,-3.946 5.071,-5.533C6.588,-3.864 9.091,-2.313 9.309,-0.49C9.49,1.006 6.951,2.829 5.615,4.507C4.048,3.249 2.477,1.987 0,0M-60.055,-68.125C-58.408,-67.068 -56.854,-65.829 -55.108,-64.981C-36.32,-55.871 -18.839,-44.929 -4.714,-29.259C-2.996,-27.351 -1.457,-25.279 0.125,-23.255C0.604,-22.637 0.944,-21.915 1.434,-21.101C-0.595,-18.93 -2.693,-16.948 -4.493,-14.723C-13.317,-3.807 -8.821,11.319 4.501,15.752C10.874,17.872 16.617,14.632 17.935,8.008C18.337,5.981 18.411,3.835 18.264,1.772C17.98,-2.288 17.328,-5.885 20.319,-9.853C23.488,-14.063 20.021,-24.84 15.347,-28.823C13.686,-27.777 11.959,-26.688 9.981,-25.444C1.185,-37.023 -8.972,-47.194 -21.319,-54.516C-31.453,-60.523 -42.471,-65.055 -53.229,-69.956C-54.981,-70.753 -57.407,-70.067 -59.522,-70.067C-59.7,-69.42 -59.876,-68.771 -60.055,-68.125" style="fill:rgb(16,118,20);fill-rule:nonzero;"/>
            </g>
            <g id="path122" transform="matrix(1,0,0,1,219.631,80.555)">
                <path d="M0,0L-12.416,0L-12.416,5.82C-12.41,22.853 -12.498,39.883 -12.328,56.914C-12.291,60.65 -13.306,62.127 -17.212,61.858C-21.81,61.543 -26.447,61.784 -31.331,61.784L-31.331,73.834L18.791,73.834L18.791,61.792C14.255,61.792 9.499,61.551 4.776,61.866C0.833,62.13 -0.113,60.568 -0.077,56.88C0.082,39.852 -0.003,22.819 0,5.786L0,0Z" style="fill:rgb(16,118,20);fill-rule:nonzero;"/>
            </g>
            <g id="path126" transform="matrix(1,0,0,1,1227.77,142.344)">
                <path d="M0,0L0,11.923L50.145,11.923L50.145,0.105L31.601,0.105L31.601,-61.676C28.655,-61.815 26.3,-61.79 23.978,-62.067C20.061,-62.535 18.669,-61.115 18.72,-57.019C18.93,-40.793 18.839,-24.562 18.794,-8.334C18.768,1.389 19.604,-0.142 10.689,-0.009C7.328,0.043 3.963,0 0,0" style="fill:rgb(16,118,20);fill-rule:nonzero;"/>
            </g>
            <g id="path130" transform="matrix(1,0,0,1,473.037,80.6712)">
                <path d="M0,0L0,73.293C3.336,73.293 6.704,73.692 9.87,73.069C10.942,72.859 12.178,70.067 12.195,68.443C12.37,52.523 12.302,36.607 12.305,20.687L12.305,12.11L44.425,12.11L44.425,0L0,0Z" style="fill:rgb(16,118,20);fill-rule:nonzero;"/>
            </g>
            <g id="path134" transform="matrix(1,0,0,1,795.364,350.7)">
                <path d="M0,0C-3.762,5.797 -1.979,10.953 -0.085,16.254C-2.769,18.091 -5.46,19.763 -7.96,21.682C-12.175,24.922 -13.748,29.299 -12.716,34.486C-11.132,42.466 -6.891,48.739 0.145,52.838C6.146,56.33 14.44,54.746 19.114,49.606C21.674,46.789 22.051,43.943 18.21,42.265C14.176,40.501 9.765,39.617 5.675,37.967C3.767,37.196 0.899,35.629 0.785,34.234C0.53,31.073 3.492,29.863 6.202,30.552C10.511,31.652 14.666,33.367 18.865,34.889C21.523,35.853 24.14,36.935 26.887,38.007C28.497,28.519 25.342,22.311 17.691,18.913C10.981,15.934 6.007,11.086 2.511,4.669C1.766,3.3 1.032,1.919 0,0" style="fill:rgb(16,118,20);fill-rule:nonzero;"/>
            </g>
            <g id="path138" transform="matrix(1,0,0,1,248.056,154.408)">
                <path d="M0,0L12.708,0L12.708,-73.338C12.195,-73.57 11.786,-73.891 11.35,-73.933C0,-74.999 0,-74.993 0,-63.723L0,0Z" style="fill:rgb(16,118,20);fill-rule:nonzero;"/>
            </g>
            <g id="path142" transform="matrix(1,0,0,1,129.019,430.696)">
                <path d="M0,0C-2.041,1.757 -3.495,3.892 -4.586,3.719C-5.899,3.515 -7.722,1.403 -7.815,0.017C-7.911,-1.383 -6.157,-2.908 -5.213,-4.377C-3.75,-3.149 -2.288,-1.922 0,0M2.381,-22.088C0.666,-21.144 -0.55,-20.477 -1.828,-19.774C-15.514,-36.074 -31.226,-48.762 -51.925,-53.631C-52.37,-52.982 -52.812,-52.33 -53.257,-51.681C-51.894,-50.703 -50.632,-49.513 -49.15,-48.779C-35.076,-41.788 -22.207,-33.222 -11.69,-21.334C-8.793,-18.062 -8.087,-15.953 -11.662,-12.353C-18.417,-5.55 -17.402,3.203 -9.935,8.929C-7.024,11.166 -3.832,12.815 -0.159,11.021C3.716,9.128 4.615,5.315 4.258,1.585C3.912,-1.998 4.235,-4.989 5.59,-8.481C7.347,-13.003 6.134,-17.904 2.381,-22.088" style="fill:rgb(16,118,20);fill-rule:nonzero;"/>
            </g>
            <g id="path146" transform="matrix(1,0,0,1,143.962,407.421)">
                <path d="M0,0C2.1,-0.74 4.116,-0.816 4.946,-1.845C9.669,-7.71 13.079,-14.202 12.815,-22.048C12.609,-28.202 10.845,-30.251 4.694,-30.268C1.12,-30.277 -1.304,-31.073 -3.104,-34.384C-5.306,-38.435 -9.411,-39.107 -13.572,-38.812C-17.58,-38.526 -20.001,-35.81 -21.178,-32.298C-22.907,-27.133 -24.185,-21.818 -25.676,-16.574C-26.532,-13.561 -25.464,-11.18 -22.53,-10.624C-18.969,-9.947 -18.618,-12.852 -18.184,-15.548C-17.654,-18.845 -17.26,-22.309 -15.885,-25.274C-15.185,-26.782 -12.464,-27.354 -10.658,-28.352C-9.697,-26.41 -7.801,-24.381 -7.974,-22.547C-8.328,-18.777 -9.89,-15.134 -10.76,-11.392C-11.288,-9.133 -12.328,-6.443 -8.753,-5.539C-5.261,-4.654 -4.351,-6.866 -3.668,-9.666C-2.877,-12.92 -2.171,-16.313 -0.629,-19.222C0.3,-20.968 2.755,-21.909 4.524,-23.21C5.156,-21.095 6.738,-18.723 6.245,-16.917C4.825,-11.713 2.565,-6.735 0,0" style="fill:rgb(16,118,20);fill-rule:nonzero;"/>
            </g>
            <g id="path150" transform="matrix(1,0,0,1,542.595,374.463)">
                <path d="M0,0C1.607,-0.295 3.521,-0.06 4.19,-0.862C9.553,-7.299 13.175,-14.451 12.583,-23.21C12.229,-28.477 8.83,-30.076 4.442,-29.968C0.831,-29.88 -1.545,-30.892 -3.37,-34.146C-5.618,-38.154 -9.703,-38.741 -13.867,-38.412C-17.906,-38.092 -20.22,-35.365 -21.387,-31.861C-23.111,-26.702 -24.823,-21.478 -25.719,-16.143C-26.014,-14.386 -24.168,-11.001 -22.586,-10.463C-19.534,-9.422 -18.972,-12.308 -18.547,-14.89C-17.98,-18.337 -17.436,-21.92 -15.99,-25.033C-15.313,-26.487 -12.263,-27.992 -10.809,-27.587C-9.49,-27.224 -7.997,-24.225 -8.141,-22.521C-8.447,-18.91 -9.703,-15.367 -10.698,-11.835C-11.438,-9.21 -12.994,-6.403 -8.994,-5.125C-4.944,-3.83 -4.669,-6.982 -3.872,-9.624C-2.815,-13.13 -1.862,-16.727 -0.264,-19.99C0.405,-21.351 2.622,-21.954 4.133,-22.901C4.887,-21.166 6.619,-19.162 6.222,-17.751C4.64,-12.104 2.398,-6.642 0,0" style="fill:rgb(16,118,20);fill-rule:nonzero;"/>
            </g>
            <g id="path154" transform="matrix(1,0,0,1,626.711,259.207)">
                <path d="M0,0C0.122,-5.868 -1.48,-9.814 -5.961,-12.557C-17.442,-19.579 -28.874,-26.685 -40.235,-33.9C-42.44,-35.3 -44.147,-35.906 -46.023,-33.63C-47.871,-31.394 -47.979,-29.211 -45.746,-27.298C-32.247,-15.744 -17.297,-6.63 0,0" style="fill:rgb(16,118,20);fill-rule:nonzero;"/>
            </g>
            <g id="path158" transform="matrix(1,0,0,1,811.769,437.784)">
                <path d="M0,0C0.536,-5.91 -1.307,-9.748 -5.709,-12.467C-17.169,-19.548 -28.627,-26.629 -40.008,-33.829C-42.216,-35.223 -44.036,-35.756 -45.87,-33.523C-47.707,-31.292 -47.679,-29.044 -45.468,-27.164C-32.049,-15.763 -17.26,-6.65 0,0" style="fill:rgb(16,118,20);fill-rule:nonzero;"/>
            </g>
            <g id="path162" transform="matrix(1,0,0,1,1063.92,324.835)">
                <path d="M0,0C-5.049,2.186 -9.865,4.3 -14.706,6.358C-17.436,7.517 -17.972,9.218 -16.191,11.614C-15.523,12.518 -14.882,13.442 -14.19,14.329C-4.941,26.189 -8.807,25.586 7.203,19.437C11.367,17.838 11.857,15.466 9.258,11.965C6.301,7.982 3.192,4.113 0,0" style="fill:rgb(16,118,20);fill-rule:nonzero;"/>
            </g>
            <g id="path166" transform="matrix(1,0,0,1,1176.57,243.306)">
                <path d="M0,0C-1.709,-2.407 -3.019,-4.38 -4.459,-6.259C-11.503,-15.454 -11.514,-15.446 -22.107,-10.834C-22.842,-10.517 -23.576,-10.205 -24.31,-9.882C-29.82,-7.455 -29.985,-6.84 -26.467,-1.996C-26.184,-1.604 -25.883,-1.233 -25.594,-0.848C-17.683,9.805 -15.386,10.335 -3.623,3.796C-2.259,3.036 -1.352,1.451 0,0" style="fill:rgb(16,118,20);fill-rule:nonzero;"/>
            </g>
            <g id="path170" transform="matrix(1,0,0,1,383.211,255.78)">
                <path d="M0,0C-1.684,-2.421 -2.869,-5.584 -5.145,-7.132C-13.62,-12.895 -22.411,-18.204 -31.215,-23.462C-32.343,-24.137 -34.251,-23.505 -35.796,-23.477C-35.736,-21.926 -36.323,-19.655 -35.521,-18.935C-25.534,-10.015 -14.221,-3.249 -1.791,1.576C-1.193,1.049 -0.595,0.524 0,0" style="fill:rgb(16,118,20);fill-rule:nonzero;"/>
            </g>
            <g id="path174" transform="matrix(1,0,0,1,244.22,257.034)">
                <path d="M0,0C1.239,-4.487 -0.683,-7.223 -4.042,-9.315C-12.586,-14.638 -21.098,-20.018 -29.744,-25.169C-30.864,-25.835 -32.703,-25.296 -34.206,-25.319C-33.953,-23.519 -34.376,-20.957 -33.341,-20.047C-23.542,-11.438 -12.461,-4.859 0,0" style="fill:rgb(16,118,20);fill-rule:nonzero;"/>
            </g>
        </g>
        <rect id="path194" x="62.362" y="185.715" width="1215.56" height="17.376" style="fill:url(#_Linear1);fill-rule:nonzero;"/>
        <g id="path206" transform="matrix(1,0,0,1,1650.72,80.7015)">
            <path d="M0,0L0,333.405L-280.485,333.405L-280.485,0.814C-296.751,2.744 -309.351,9.913 -318.696,22.629C-326.639,33.44 -330.715,45.694 -330.724,59.102C-330.786,147.733 -330.817,236.364 -330.721,324.995C-330.684,357.803 -303.094,384.744 -269.501,384.8C-205.157,384.914 -140.814,384.837 -76.47,384.837C-55.264,384.837 -34.05,384.437 -12.852,384.931C19.664,385.685 50.097,359.036 50.046,321.866C49.932,235.046 50.264,148.226 49.839,61.41C49.72,37.247 40.153,17.357 17.416,5.981C12.339,3.444 6.602,2.222 0,0" style="fill:rgb(16,118,20);fill-rule:nonzero;"/>
        </g>
        <clipPath id="_clip2">
            <path id="path226" d="M1603.76,366.318C1551.05,366.316 1498.34,366.313 1445.63,366.307C1434.95,366.304 1424.26,366.253 1413.57,366.307C1410.83,366.321 1409.55,365.678 1409.12,362.46C1406.86,345.263 1409.25,328.81 1415.49,312.684C1432.66,268.381 1478.38,241.407 1525.89,249.344C1565.89,256.028 1593.13,279.595 1606.77,318.076C1612.25,333.533 1613.03,349.495 1610.5,366.318L1603.76,366.318Z"/>
        </clipPath>
        <g clip-path="url(#_clip2)">
            <path d="M1603.76,366.318C1551.05,366.316 1498.34,366.313 1445.63,366.307C1434.95,366.304 1424.26,366.253 1413.57,366.307C1410.83,366.321 1409.55,365.678 1409.12,362.46C1406.86,345.263 1409.25,328.81 1415.49,312.684C1432.66,268.381 1478.38,241.407 1525.89,249.344C1565.89,256.028 1593.13,279.595 1606.77,318.076C1612.25,333.533 1613.03,349.495 1610.5,366.318L1603.76,366.318Z" style="fill:url(#_Linear3);fill-rule:nonzero;"/>
        </g>
        <clipPath id="_clip4">
            <path id="path246" d="M1487.14,214.14L1487.14,31.734C1489.12,31.572 1490.53,31.363 1491.94,31.36C1505.5,31.334 1519.06,31.343 1533.11,31.343L1533.11,214.14L1487.14,214.14Z"/>
        </clipPath>
        <g clip-path="url(#_clip4)">
            <path d="M1487.14,214.14L1487.14,31.734C1489.12,31.572 1490.53,31.363 1491.94,31.36C1505.5,31.334 1519.06,31.343 1533.11,31.343L1533.11,214.14L1487.14,214.14Z" style="fill:url(#_Linear5);fill-rule:nonzero;"/>
        </g>
        <clipPath id="_clip6">
            <path id="path266" d="M1564.95,214.203L1564.95,31.878C1592.11,28.403 1611.22,45.099 1611.23,71.796C1611.24,117.283 1611.22,162.774 1611.2,208.261C1611.2,210.178 1611.04,212.094 1610.94,214.203L1564.95,214.203Z"/>
        </clipPath>
        <g clip-path="url(#_clip6)">
            <path d="M1564.95,214.203L1564.95,31.878C1592.11,28.403 1611.22,45.099 1611.23,71.796C1611.24,117.283 1611.22,162.774 1611.2,208.261C1611.2,210.178 1611.04,212.094 1610.94,214.203L1564.95,214.203Z" style="fill:url(#_Linear7);fill-rule:nonzero;"/>
        </g>
        <clipPath id="_clip8">
            <path id="path286" d="M1409.42,214.135C1409.3,212.803 1409.18,212.094 1409.18,211.382C1409.19,164.48 1408.98,117.573 1409.32,70.671C1409.51,44.756 1428.52,28.774 1454.92,31.85L1454.92,214.135L1409.42,214.135Z"/>
        </clipPath>
        <g clip-path="url(#_clip8)">
            <path d="M1409.42,214.135C1409.3,212.803 1409.18,212.094 1409.18,211.382C1409.19,164.48 1408.98,117.573 1409.32,70.671C1409.51,44.756 1428.52,28.774 1454.92,31.85L1454.92,214.135L1409.42,214.135Z" style="fill:url(#_Linear9);fill-rule:nonzero;"/>
        </g>
    </g>
    <defs>
        <linearGradient id="_Linear1" x1="0" y1="0" x2="1" y2="0" gradientUnits="userSpaceOnUse" gradientTransform="matrix(408.069,-582.783,582.783,408.069,466.105,485.796)"><stop offset="0" style="stop-color:rgb(249,198,14);stop-opacity:1"/><stop offset="1" style="stop-color:rgb(253,101,5);stop-opacity:1"/></linearGradient>
        <linearGradient id="_Linear3" x1="0" y1="0" x2="1" y2="0" gradientUnits="userSpaceOnUse" gradientTransform="matrix(98.8456,-141.166,141.166,98.8456,1465.79,404.333)"><stop offset="0" style="stop-color:rgb(249,198,14);stop-opacity:1"/><stop offset="1" style="stop-color:rgb(253,101,5);stop-opacity:1"/></linearGradient>
        <linearGradient id="_Linear5" x1="0" y1="0" x2="1" y2="0" gradientUnits="userSpaceOnUse" gradientTransform="matrix(101.008,-144.254,144.254,101.008,1459.71,194.933)"><stop offset="0" style="stop-color:rgb(249,198,14);stop-opacity:1"/><stop offset="1" style="stop-color:rgb(253,101,5);stop-opacity:1"/></linearGradient>
        <linearGradient id="_Linear7" x1="0" y1="0" x2="1" y2="0" gradientUnits="userSpaceOnUse" gradientTransform="matrix(92.6703,-132.347,132.347,92.6703,1537.55,195.014)"><stop offset="0" style="stop-color:rgb(249,198,14);stop-opacity:1"/><stop offset="1" style="stop-color:rgb(253,101,5);stop-opacity:1"/></linearGradient>
        <linearGradient id="_Linear9" x1="0" y1="0" x2="1" y2="0" gradientUnits="userSpaceOnUse" gradientTransform="matrix(100.615,-143.693,143.693,100.615,1387.72,198.945)"><stop offset="0" style="stop-color:rgb(249,198,14);stop-opacity:1"/><stop offset="1" style="stop-color:rgb(253,101,5);stop-opacity:1"/></linearGradient>
    </defs>
</svg>
