<?xml version="1.0" encoding="UTF-8" standalone="no"?>
<!-- Created with Inkscape (http://www.inkscape.org/) -->

<svg
   xmlns:dc="http://purl.org/dc/elements/1.1/"
   xmlns:cc="http://creativecommons.org/ns#"
   xmlns:rdf="http://www.w3.org/1999/02/22-rdf-syntax-ns#"
   xmlns:svg="http://www.w3.org/2000/svg"
   xmlns="http://www.w3.org/2000/svg"
   xmlns:sodipodi="http://sodipodi.sourceforge.net/DTD/sodipodi-0.dtd"
   xmlns:inkscape="http://www.inkscape.org/namespaces/inkscape"
   width="70mm"
   height="55mm"
   viewBox="0 0 70 55"
   version="1.1"
   id="svg1381"
   inkscape:version="0.92.5 (2060ec1f9f, 2020-04-08)"
   sodipodi:docname="nhs-bsa.svg">
  <defs
     id="defs1375" />
  <sodipodi:namedview
     id="base"
     pagecolor="#ffffff"
     bordercolor="#666666"
     borderopacity="1.0"
     inkscape:pageopacity="0.0"
     inkscape:pageshadow="2"
     inkscape:zoom="2.8"
     inkscape:cx="182.52583"
     inkscape:cy="37.769618"
     inkscape:document-units="mm"
     inkscape:current-layer="layer1"
     showgrid="false"
     inkscape:window-width="2800"
     inkscape:window-height="1672"
     inkscape:window-x="80"
     inkscape:window-y="54"
     inkscape:window-maximized="1" />
  <metadata
     id="metadata1378">
    <rdf:RDF>
      <cc:Work
         rdf:about="">
        <dc:format>image/svg+xml</dc:format>
        <dc:type
           rdf:resource="http://purl.org/dc/dcmitype/StillImage" />
        <dc:title></dc:title>
      </cc:Work>
    </rdf:RDF>
  </metadata>
  <g
     inkscape:label="Layer 1"
     inkscape:groupmode="layer"
     id="layer1"
     transform="translate(-46.113098,-92.136902)">
    <g
       transform="translate(-13.885038,63.291375)"
       id="g1935">
      <g
         id="g1259">
        <path
           style="opacity:1;fill:#196fc1;fill-opacity:1;stroke:none;stroke-width:13.22916603;stroke-linecap:round;stroke-linejoin:round;stroke-miterlimit:2;stroke-dasharray:none;stroke-dashoffset:0;stroke-opacity:1;paint-order:normal"
           d="M 81.578247,35.868095 H 124.2471 V 61.280302 H 81.578247 Z"
           id="rect1207" />
        <path
           style="opacity:1;fill:#ffffff;fill-opacity:1;stroke:none;stroke-width:13.22916603;stroke-linecap:round;stroke-linejoin:round;stroke-miterlimit:2;stroke-dasharray:none;stroke-dashoffset:0;stroke-opacity:1;paint-order:normal"
           d="M 82.369675,40.641895 H 123.39111 V 57.160528 H 82.369675 Z"
           id="rect1211" />
        <path
           d="M 124.21242,40.311164 H 81.548361 v 17.180092 h 42.664059 z m -25.510429,1.657624 -2.94534,13.828277 h -4.62195 l -2.90574,-9.568559 h -0.039 l -1.93319,9.568559 h -3.50515 l 2.96877,-13.828277 h 4.63771 l 2.84837,9.588963 h 0.0392 l 1.95137,-9.588963 z m 13.219369,0 -2.88756,13.828277 h -3.72193 l 1.23438,-5.922595 h -4.40214 l -1.23459,5.922595 h -3.722119 l 2.887959,-13.828277 h 3.72193 l -1.09337,5.290254 h 4.39992 l 1.0956,-5.290254 z m 10.69304,0.377182 -0.8972,2.753413 c -0.71659,-0.335969 -1.69258,-0.632543 -3.06555,-0.632543 -1.47257,0 -2.66816,0.215764 -2.66816,1.327109 0,1.959652 5.39612,1.228318 5.39612,5.428439 0,3.822533 -3.56515,4.81428 -6.7903,4.81428 -1.43317,0 -3.08655,-0.338798 -4.29992,-0.715778 l 0.87619,-2.81301 c 0.73497,0.476175 2.21037,0.79376 3.42373,0.79376 1.1564,0 2.96615,-0.218795 2.96615,-1.644694 0,-2.21966 -5.39591,-1.387111 -5.39591,-5.287829 0,-3.56778 3.14696,-4.637306 6.19351,-4.637306 1.71359,0 3.32514,0.1796 4.26134,0.614159"
           style="fill:#196fc1;fill-opacity:1;fill-rule:nonzero;stroke:none;stroke-width:0.03527778"
           id="path16"
           inkscape:connector-curvature="0" />
      </g>
      <g
         aria-label="Business Services
Authority"
         transform="scale(1.035162,0.96603235)"
         style="font-style:normal;font-variant:normal;font-weight:bold;font-stretch:normal;font-size:7.30364275px;line-height:1.25;font-family:Frutiger;-inkscape-font-specification:'Frutiger Bold';text-align:end;letter-spacing:0px;word-spacing:0px;text-anchor:end;fill:#000000;fill-opacity:1;stroke:none;stroke-width:0.26458332"
         id="text1221">
        <path
           d="m 63.515825,71.456214 v -4.871473 h 1.554877 q 0.723945,0 1.216085,0.271034 0.49214,0.267467 0.49214,0.95575 0,0.470743 -0.242504,0.73821 -0.238938,0.263901 -0.713246,0.363756 0.235371,0.02496 0.445779,0.121252 0.213974,0.09272 0.367322,0.249636 0.153347,0.153348 0.235371,0.360189 0.08202,0.203275 0.08202,0.467177 0,0.224672 -0.07132,0.43508 -0.07132,0.210408 -0.213974,0.381587 -0.14265,0.167613 -0.342359,0.285298 -0.2746,0.164047 -0.574163,0.203275 -0.295997,0.03923 -0.759607,0.03923 z m 0.98428,-0.745342 h 0.474308 q 0.420816,0 0.709681,-0.160481 0.292431,-0.164047 0.292431,-0.5492 0,-0.374454 -0.267468,-0.542067 -0.267467,-0.171179 -0.666885,-0.171179 h -0.542067 z m 0,-2.154005 h 0.467176 q 0.360189,0 0.595561,-0.135516 0.238937,-0.135517 0.238937,-0.46361 0,-0.338792 -0.221106,-0.477876 -0.221106,-0.142649 -0.581296,-0.142649 h -0.499272 z"
           style="font-style:normal;font-variant:normal;font-weight:bold;font-stretch:normal;font-family:Frutiger;-inkscape-font-specification:'Frutiger Bold';text-align:end;text-anchor:end;stroke-width:0.26458332"
           id="path2265" />
        <path
           d="m 71.04414,67.840055 v 2.207497 q 0.0071,0.153348 0.01426,0.474309 0.0107,0.320961 0.01783,0.513538 0.0071,0.192576 0.0214,0.420815 h -0.884426 l -0.02853,-0.556332 q -0.124818,0.196143 -0.303129,0.331659 -0.174746,0.135517 -0.395852,0.210408 -0.221107,0.07133 -0.442213,0.07133 -0.502839,0 -0.784571,-0.206842 -0.281732,-0.206841 -0.388719,-0.567031 -0.103421,-0.360189 -0.103421,-0.859462 v -2.039884 h 0.934353 v 1.740321 q 0,0.338792 0.0321,0.574163 0.03566,0.231805 0.181878,0.406551 0.146215,0.171179 0.442212,0.171179 0.424382,0 0.588429,-0.356623 0.164046,-0.36019 0.164046,-0.841631 v -1.69396 z"
           style="font-style:normal;font-variant:normal;font-weight:bold;font-stretch:normal;font-family:Frutiger;-inkscape-font-specification:'Frutiger Bold';text-align:end;text-anchor:end;stroke-width:0.26458332"
           id="path2267" />
        <path
           d="m 71.878638,71.359926 0.04279,-0.788138 q 0.499273,0.256769 0.920088,0.256769 0.231805,0 0.438646,-0.09985 0.206842,-0.09985 0.206842,-0.310263 0,-0.181877 -0.295997,-0.310262 -0.295998,-0.128384 -0.595561,-0.253202 -0.295997,-0.124818 -0.513537,-0.349491 -0.217541,-0.224672 -0.217541,-0.627657 0,-0.385153 0.224673,-0.631223 0.228239,-0.24607 0.57773,-0.356623 0.34949,-0.114119 0.723945,-0.114119 0.395851,0 0.891558,0.139083 l -0.06776,0.698981 q -0.43508,-0.139083 -0.76674,-0.139083 -0.242503,0 -0.449345,0.08202 -0.206841,0.08202 -0.206841,0.285299 0,0.174745 0.281732,0.292431 0.285299,0.114119 0.595561,0.231805 0.313828,0.11412 0.534935,0.345925 0.224672,0.228238 0.224672,0.656186 0,0.38872 -0.21754,0.649054 -0.213974,0.260335 -0.556332,0.381587 -0.342358,0.121252 -0.723945,0.121252 -0.435081,0 -1.052039,-0.16048 z"
           style="font-style:normal;font-variant:normal;font-weight:bold;font-stretch:normal;font-family:Frutiger;-inkscape-font-specification:'Frutiger Bold';text-align:end;text-anchor:end;stroke-width:0.26458332"
           id="path2269" />
        <path
           d="m 76.115322,71.456214 h -0.934353 v -3.616159 h 0.934353 z m 0.01426,-4.272346 h -0.962883 v -0.884425 h 0.962883 z"
           style="font-style:normal;font-variant:normal;font-weight:bold;font-stretch:normal;font-family:Frutiger;-inkscape-font-specification:'Frutiger Bold';text-align:end;text-anchor:end;stroke-width:0.26458332"
           id="path2271" />
        <path
           d="m 77.948365,67.840055 0.0214,0.577729 q 0.43508,-0.634789 1.219651,-0.634789 0.727512,0 0.980714,0.431514 0.253202,0.427948 0.253202,1.205387 v 2.036318 h -0.934352 v -1.818778 q 0,-0.481442 -0.124818,-0.781005 -0.121252,-0.299564 -0.531369,-0.299564 -0.438646,0 -0.616958,0.353057 -0.178312,0.349491 -0.178312,0.830932 v 1.715358 h -0.937919 v -2.30022 q 0,-0.766739 -0.03566,-1.315939 z"
           style="font-style:normal;font-variant:normal;font-weight:bold;font-stretch:normal;font-family:Frutiger;-inkscape-font-specification:'Frutiger Bold';text-align:end;text-anchor:end;stroke-width:0.26458332"
           id="path2273" />
        <path
           d="m 84.242765,70.493331 0.01426,0.809535 q -0.574163,0.249636 -1.241048,0.249636 -0.445779,0 -0.79527,-0.124818 -0.345924,-0.128384 -0.591994,-0.374454 -0.24607,-0.249636 -0.374455,-0.599127 -0.128384,-0.353057 -0.128384,-0.802402 0,-0.413683 0.117686,-0.759608 0.121251,-0.34949 0.345924,-0.602693 0.224673,-0.256769 0.552766,-0.399418 0.33166,-0.142649 0.748909,-0.142649 0.40655,0 0.716812,0.146215 0.310262,0.146216 0.502839,0.402985 0.196143,0.256768 0.292431,0.59556 0.09629,0.335226 0.09629,0.73821 0,0.07133 -0.0036,0.106987 -0.0036,0.03566 -0.0071,0.08916 -0.0036,0.05349 -0.0107,0.124818 h -2.43217 q 0.03566,0.427948 0.331659,0.666885 0.299564,0.238938 0.741777,0.238938 0.499272,0 1.123363,-0.363756 z m -0.63479,-1.191121 q -0.0071,-0.242504 -0.08916,-0.445779 -0.07846,-0.203275 -0.24607,-0.328093 -0.164046,-0.124818 -0.410116,-0.124818 -0.253203,0 -0.43508,0.124818 -0.178312,0.121252 -0.278167,0.324527 -0.09629,0.203275 -0.117685,0.449345 z"
           style="font-style:normal;font-variant:normal;font-weight:bold;font-stretch:normal;font-family:Frutiger;-inkscape-font-specification:'Frutiger Bold';text-align:end;text-anchor:end;stroke-width:0.26458332"
           id="path2275" />
        <path
           d="m 85.084396,71.359926 0.04279,-0.788138 q 0.499273,0.256769 0.920088,0.256769 0.231805,0 0.438647,-0.09985 0.206841,-0.09985 0.206841,-0.310263 0,-0.181877 -0.295997,-0.310262 -0.295997,-0.128384 -0.595561,-0.253202 -0.295997,-0.124818 -0.513537,-0.349491 -0.21754,-0.224672 -0.21754,-0.627657 0,-0.385153 0.224672,-0.631223 0.228239,-0.24607 0.57773,-0.356623 0.34949,-0.114119 0.723945,-0.114119 0.395852,0 0.891558,0.139083 l -0.06776,0.698981 q -0.43508,-0.139083 -0.766739,-0.139083 -0.242504,0 -0.449346,0.08202 -0.206841,0.08202 -0.206841,0.285299 0,0.174745 0.281732,0.292431 0.285299,0.114119 0.595561,0.231805 0.313828,0.11412 0.534935,0.345925 0.224672,0.228238 0.224672,0.656186 0,0.38872 -0.21754,0.649054 -0.213974,0.260335 -0.556332,0.381587 -0.342358,0.121252 -0.723945,0.121252 -0.43508,0 -1.052038,-0.16048 z"
           style="font-style:normal;font-variant:normal;font-weight:bold;font-stretch:normal;font-family:Frutiger;-inkscape-font-specification:'Frutiger Bold';text-align:end;text-anchor:end;stroke-width:0.26458332"
           id="path2277" />
        <path
           d="m 88.226245,71.359926 0.04279,-0.788138 q 0.499272,0.256769 0.920088,0.256769 0.231805,0 0.438646,-0.09985 0.206842,-0.09985 0.206842,-0.310263 0,-0.181877 -0.295998,-0.310262 -0.295997,-0.128384 -0.59556,-0.253202 -0.295998,-0.124818 -0.513538,-0.349491 -0.21754,-0.224672 -0.21754,-0.627657 0,-0.385153 0.224673,-0.631223 0.228239,-0.24607 0.577729,-0.356623 0.349491,-0.114119 0.723945,-0.114119 0.395852,0 0.891558,0.139083 l -0.06776,0.698981 q -0.43508,-0.139083 -0.76674,-0.139083 -0.242504,0 -0.449345,0.08202 -0.206842,0.08202 -0.206842,0.285299 0,0.174745 0.281733,0.292431 0.285298,0.114119 0.59556,0.231805 0.313829,0.11412 0.534935,0.345925 0.224673,0.228238 0.224673,0.656186 0,0.38872 -0.21754,0.649054 -0.213974,0.260335 -0.556333,0.381587 -0.342358,0.121252 -0.723945,0.121252 -0.43508,0 -1.052038,-0.16048 z"
           style="font-style:normal;font-variant:normal;font-weight:bold;font-stretch:normal;font-family:Frutiger;-inkscape-font-specification:'Frutiger Bold';text-align:end;text-anchor:end;stroke-width:0.26458332"
           id="path2279" />
        <path
           d="m 93.593424,71.345661 0.08916,-0.873727 q 0.57773,0.313828 1.101966,0.313828 0.338792,0 0.591994,-0.167613 0.256769,-0.167612 0.256769,-0.49214 0,-0.328093 -0.21754,-0.467176 -0.213974,-0.139083 -0.781005,-0.381587 -0.567031,-0.24607 -0.852329,-0.545633 -0.281732,-0.30313 -0.281732,-0.863028 0,-0.467177 0.235371,-0.777439 0.238937,-0.313828 0.627657,-0.460044 0.392285,-0.149781 0.852329,-0.149781 0.616958,0 1.162592,0.192576 l -0.08202,0.802402 q -0.531368,-0.242504 -1.009243,-0.242504 -0.313829,0 -0.5492,0.14265 -0.231805,0.139083 -0.231805,0.442213 0,0.288864 0.174745,0.395851 0.174746,0.106987 0.791704,0.381587 0.620524,0.271034 0.912955,0.581296 0.292431,0.306696 0.292431,0.863028 0,0.395852 -0.146215,0.684716 -0.146216,0.288865 -0.406551,0.477875 -0.256769,0.185445 -0.591994,0.2746 -0.33166,0.08916 -0.706114,0.08916 -0.591995,0 -1.233916,-0.221106 z"
           style="font-style:normal;font-variant:normal;font-weight:bold;font-stretch:normal;font-family:Frutiger;-inkscape-font-specification:'Frutiger Bold';text-align:end;text-anchor:end;stroke-width:0.26458332"
           id="path2281" />
        <path
           d="m 100.40849,70.493331 0.0143,0.809535 q -0.574166,0.249636 -1.241052,0.249636 -0.445779,0 -0.795269,-0.124818 -0.345925,-0.128384 -0.591995,-0.374454 -0.24607,-0.249636 -0.374454,-0.599127 -0.128384,-0.353057 -0.128384,-0.802402 0,-0.413683 0.117685,-0.759608 0.121252,-0.34949 0.345925,-0.602693 0.224672,-0.256769 0.552766,-0.399418 0.331659,-0.142649 0.748908,-0.142649 0.406551,0 0.716813,0.146215 0.310267,0.146216 0.502837,0.402985 0.19614,0.256768 0.29243,0.59556 0.0963,0.335226 0.0963,0.73821 0,0.07133 -0.004,0.106987 -0.004,0.03566 -0.007,0.08916 -0.004,0.05349 -0.0107,0.124818 h -2.432167 q 0.03566,0.427948 0.33166,0.666885 0.299563,0.238938 0.741776,0.238938 0.499273,0 1.123361,-0.363756 z M 99.773703,69.30221 q -0.0071,-0.242504 -0.08916,-0.445779 -0.07846,-0.203275 -0.24607,-0.328093 -0.164047,-0.124818 -0.410117,-0.124818 -0.253202,0 -0.43508,0.124818 -0.178311,0.121252 -0.278166,0.324527 -0.09629,0.203275 -0.117686,0.449345 z"
           style="font-style:normal;font-variant:normal;font-weight:bold;font-stretch:normal;font-family:Frutiger;-inkscape-font-specification:'Frutiger Bold';text-align:end;text-anchor:end;stroke-width:0.26458332"
           id="path2283" />
        <path
           d="m 102.37349,71.456214 h -0.93435 v -2.528458 q -0.0178,-0.902257 -0.0285,-1.087701 h 0.84876 l 0.0214,0.912955 q 0.12125,-0.427948 0.36732,-0.684716 0.24963,-0.256769 0.64905,-0.256769 0.12125,0 0.2746,0.03566 v 0.877293 q -0.18544,-0.04993 -0.32809,-0.04993 -0.33166,0 -0.5278,0.174745 -0.19615,0.174746 -0.27104,0.449346 -0.0713,0.271033 -0.0713,0.59556 v 0.07133 z"
           style="font-style:normal;font-variant:normal;font-weight:bold;font-stretch:normal;font-family:Frutiger;-inkscape-font-specification:'Frutiger Bold';text-align:end;text-anchor:end;stroke-width:0.26458332"
           id="path2285" />
        <path
           d="m 106.14299,71.456214 h -1.0449 l -1.3516,-3.616159 h 1.0235 l 0.60626,1.740321 q 0.23894,0.666885 0.29244,1.073436 0.0856,-0.431514 0.22823,-0.841631 l 0.64906,-1.972126 h 0.94148 z"
           style="font-style:normal;font-variant:normal;font-weight:bold;font-stretch:normal;font-family:Frutiger;-inkscape-font-specification:'Frutiger Bold';text-align:end;text-anchor:end;stroke-width:0.26458332"
           id="path2287" />
        <path
           d="m 108.96032,71.456214 h -0.93435 v -3.616159 h 0.93435 z m 0.0143,-4.272346 h -0.96288 v -0.884425 h 0.96288 z"
           style="font-style:normal;font-variant:normal;font-weight:bold;font-stretch:normal;font-family:Frutiger;-inkscape-font-specification:'Frutiger Bold';text-align:end;text-anchor:end;stroke-width:0.26458332"
           id="path2289" />
        <path
           d="m 112.35537,70.557524 0.0535,0.788137 q -0.47074,0.139083 -0.84163,0.139083 -0.41368,0 -0.7596,-0.124818 -0.34593,-0.128385 -0.59557,-0.370888 -0.24607,-0.242504 -0.37802,-0.588429 -0.12838,-0.34949 -0.12838,-0.770306 0,-0.534935 0.22824,-0.948617 0.2318,-0.413683 0.64905,-0.641922 0.42082,-0.228239 0.94862,-0.228239 0.39229,0 0.79527,0.117686 l -0.0713,0.752475 q -0.32097,-0.124819 -0.57773,-0.124819 -0.29244,0 -0.52424,0.146216 -0.23181,0.142649 -0.35662,0.385153 -0.12126,0.238938 -0.12126,0.534935 0,0.488574 0.2853,0.784571 0.2853,0.295997 0.76674,0.295997 0.3067,0 0.62766,-0.146215 z"
           style="font-style:normal;font-variant:normal;font-weight:bold;font-stretch:normal;font-family:Frutiger;-inkscape-font-specification:'Frutiger Bold';text-align:end;text-anchor:end;stroke-width:0.26458332"
           id="path2291" />
        <path
           d="m 115.9644,70.493331 0.0143,0.809535 q -0.57416,0.249636 -1.24105,0.249636 -0.44578,0 -0.79527,-0.124818 -0.34592,-0.128384 -0.59199,-0.374454 -0.24607,-0.249636 -0.37446,-0.599127 -0.12838,-0.353057 -0.12838,-0.802402 0,-0.413683 0.11769,-0.759608 0.12125,-0.34949 0.34592,-0.602693 0.22467,-0.256769 0.55277,-0.399418 0.33166,-0.142649 0.7489,-0.142649 0.40656,0 0.71682,0.146215 0.31026,0.146216 0.50284,0.402985 0.19614,0.256768 0.29243,0.59556 0.0963,0.335226 0.0963,0.73821 0,0.07133 -0.004,0.106987 -0.004,0.03566 -0.007,0.08916 -0.004,0.05349 -0.0107,0.124818 h -2.43217 q 0.0357,0.427948 0.33166,0.666885 0.29956,0.238938 0.74177,0.238938 0.49928,0 1.12337,-0.363756 z m -0.63479,-1.191121 q -0.007,-0.242504 -0.0892,-0.445779 -0.0785,-0.203275 -0.24607,-0.328093 -0.16405,-0.124818 -0.41012,-0.124818 -0.2532,0 -0.43508,0.124818 -0.17831,0.121252 -0.27816,0.324527 -0.0963,0.203275 -0.11769,0.449345 z"
           style="font-style:normal;font-variant:normal;font-weight:bold;font-stretch:normal;font-family:Frutiger;-inkscape-font-specification:'Frutiger Bold';text-align:end;text-anchor:end;stroke-width:0.26458332"
           id="path2293" />
        <path
           d="m 116.80603,71.359926 0.0428,-0.788138 q 0.49927,0.256769 0.92009,0.256769 0.2318,0 0.43864,-0.09985 0.20685,-0.09985 0.20685,-0.310263 0,-0.181877 -0.296,-0.310262 -0.296,-0.128384 -0.59556,-0.253202 -0.296,-0.124818 -0.51354,-0.349491 -0.21754,-0.224672 -0.21754,-0.627657 0,-0.385153 0.22467,-0.631223 0.22824,-0.24607 0.57773,-0.356623 0.34949,-0.114119 0.72395,-0.114119 0.39585,0 0.89156,0.139083 l -0.0678,0.698981 q -0.43508,-0.139083 -0.76674,-0.139083 -0.24251,0 -0.44935,0.08202 -0.20684,0.08202 -0.20684,0.285299 0,0.174745 0.28173,0.292431 0.2853,0.114119 0.59556,0.231805 0.31383,0.11412 0.53494,0.345925 0.22467,0.228238 0.22467,0.656186 0,0.38872 -0.21754,0.649054 -0.21397,0.260335 -0.55633,0.381587 -0.34236,0.121252 -0.72395,0.121252 -0.43508,0 -1.05203,-0.16048 z"
           style="font-style:normal;font-variant:normal;font-weight:bold;font-stretch:normal;font-family:Frutiger;-inkscape-font-specification:'Frutiger Bold';text-align:end;text-anchor:end;stroke-width:0.26458332"
           id="path2295" />
        <path
           d="M 92.880177,77.997862 H 91.806742 L 91.38236,76.888764 h -2.014921 l -0.417249,1.109098 h -1.016376 l 1.900801,-4.871472 h 1.094834 z m -1.79738,-1.907934 -0.627657,-1.72249 q -0.0214,-0.05706 -0.09629,-0.32096 -0.02853,0.110553 -0.05706,0.224672 -0.02853,0.110553 -0.04993,0.178312 l -0.584862,1.640466 z"
           style="font-style:normal;font-variant:normal;font-weight:bold;font-stretch:normal;font-family:Frutiger;-inkscape-font-specification:'Frutiger Bold';text-align:end;text-anchor:end;stroke-width:0.26458332"
           id="path2297" />
        <path
           d="m 96.667516,74.381703 v 2.207498 q 0.0071,0.153348 0.01426,0.474309 0.0107,0.320961 0.01783,0.513537 0.0071,0.192577 0.0214,0.420815 h -0.884425 l -0.02853,-0.556332 q -0.124818,0.196143 -0.30313,0.33166 -0.174745,0.135517 -0.395851,0.210408 -0.221107,0.07132 -0.442213,0.07132 -0.502839,0 -0.784571,-0.206841 -0.281733,-0.206842 -0.388719,-0.567031 -0.103421,-0.36019 -0.103421,-0.859462 v -2.039885 h 0.934353 v 1.740322 q 0,0.338792 0.0321,0.574163 0.03566,0.231805 0.181877,0.40655 0.146216,0.171179 0.442213,0.171179 0.424382,0 0.588428,-0.356623 0.164047,-0.360189 0.164047,-0.84163 v -1.693961 z"
           style="font-style:normal;font-variant:normal;font-weight:bold;font-stretch:normal;font-family:Frutiger;-inkscape-font-specification:'Frutiger Bold';text-align:end;text-anchor:end;stroke-width:0.26458332"
           id="path2299" />
        <path
           d="m 99.684548,77.22399 0.0321,0.731078 q -0.356624,0.07132 -0.631223,0.07132 -0.460044,0 -0.727512,-0.167613 -0.267467,-0.171179 -0.374454,-0.481441 -0.106987,-0.313828 -0.106987,-0.76674 v -1.512082 h -0.68115 v -0.695415 h 0.695415 v -0.734644 l 0.934353,-0.306696 v 1.04134 h 0.823799 v 0.695415 h -0.823799 v 1.31594 q 0,0.420815 0.08916,0.641921 0.09272,0.21754 0.449346,0.21754 0.13195,0 0.32096,-0.04993 z"
           style="font-style:normal;font-variant:normal;font-weight:bold;font-stretch:normal;font-family:Frutiger;-inkscape-font-specification:'Frutiger Bold';text-align:end;text-anchor:end;stroke-width:0.26458332"
           id="path2301" />
        <path
           d="m 103.68229,77.997862 h -0.93435 v -1.754586 q 0,-0.520669 -0.11412,-0.830932 -0.11055,-0.313828 -0.5278,-0.313828 -0.44935,0 -0.63122,0.370888 -0.18188,0.367322 -0.18188,0.863028 v 0.181878 1.483552 h -0.93435 v -5.260191 h 0.93435 v 2.15757 q 0.20327,-0.292431 0.48857,-0.43508 0.2853,-0.14265 0.65262,-0.14265 0.38159,0 0.62766,0.124818 0.24964,0.121252 0.38159,0.33166 0.13551,0.210408 0.18544,0.49214 0.0535,0.278166 0.0535,0.656187 z"
           style="font-style:normal;font-variant:normal;font-weight:bold;font-stretch:normal;font-family:Frutiger;-inkscape-font-specification:'Frutiger Bold';text-align:end;text-anchor:end;stroke-width:0.26458332"
           id="path2303" />
        <path
           d="m 108.14365,76.221879 q 0,0.417249 -0.13552,0.76674 -0.13551,0.345924 -0.38515,0.591994 -0.24607,0.242504 -0.592,0.378021 -0.34592,0.135517 -0.7703,0.135517 -0.5599,0 -0.98428,-0.242504 -0.42438,-0.242504 -0.65619,-0.684717 -0.22824,-0.442212 -0.22824,-0.994978 0,-0.552766 0.23537,-0.980714 0.23538,-0.427948 0.65976,-0.663319 0.42795,-0.238938 0.98071,-0.238938 0.42795,0 0.77387,0.14265 0.34949,0.142649 0.59556,0.40655 0.24607,0.260335 0.37446,0.613392 0.13195,0.353057 0.13195,0.770306 z m -0.97002,-0.0214 q 0,-0.292431 -0.0963,-0.574164 -0.0927,-0.281732 -0.29957,-0.46361 -0.20684,-0.181878 -0.50997,-0.181878 -0.28886,0 -0.49927,0.178312 -0.20684,0.178312 -0.3067,0.456478 -0.0998,0.274599 -0.0998,0.556332 0,0.303129 0.0927,0.584862 0.0963,0.281732 0.30313,0.46361 0.20684,0.178312 0.52424,0.178312 0.22467,0 0.39585,-0.106987 0.17118,-0.110554 0.27816,-0.278167 0.10699,-0.171179 0.16048,-0.381586 0.0571,-0.213974 0.0571,-0.431514 z"
           style="font-style:normal;font-variant:normal;font-weight:bold;font-stretch:normal;font-family:Frutiger;-inkscape-font-specification:'Frutiger Bold';text-align:end;text-anchor:end;stroke-width:0.26458332"
           id="path2305" />
        <path
           d="m 109.85188,77.997862 h -0.93436 v -2.528458 q -0.0178,-0.902257 -0.0285,-1.087701 h 0.84877 l 0.0214,0.912956 q 0.12126,-0.427948 0.36733,-0.684717 0.24963,-0.256768 0.64905,-0.256768 0.12125,0 0.2746,0.03566 v 0.877293 q -0.18544,-0.04993 -0.32809,-0.04993 -0.33166,0 -0.52781,0.174745 -0.19614,0.174745 -0.27103,0.449345 -0.0713,0.271034 -0.0713,0.595561 v 0.07133 z"
           style="font-style:normal;font-variant:normal;font-weight:bold;font-stretch:normal;font-family:Frutiger;-inkscape-font-specification:'Frutiger Bold';text-align:end;text-anchor:end;stroke-width:0.26458332"
           id="path2307" />
        <path
           d="m 112.56221,77.997862 h -0.93435 v -3.616159 h 0.93435 z m 0.0143,-4.272345 h -0.96289 v -0.884426 h 0.96289 z"
           style="font-style:normal;font-variant:normal;font-weight:bold;font-stretch:normal;font-family:Frutiger;-inkscape-font-specification:'Frutiger Bold';text-align:end;text-anchor:end;stroke-width:0.26458332"
           id="path2309" />
        <path
           d="m 115.53288,77.22399 0.0321,0.731078 q -0.35663,0.07132 -0.63123,0.07132 -0.46004,0 -0.72751,-0.167613 -0.26746,-0.171179 -0.37445,-0.481441 -0.10699,-0.313828 -0.10699,-0.76674 v -1.512082 h -0.68115 v -0.695415 h 0.69542 v -0.734644 l 0.93435,-0.306696 v 1.04134 h 0.8238 v 0.695415 h -0.8238 v 1.31594 q 0,0.420815 0.0892,0.641921 0.0927,0.21754 0.44934,0.21754 0.13195,0 0.32096,-0.04993 z"
           style="font-style:normal;font-variant:normal;font-weight:bold;font-stretch:normal;font-family:Frutiger;-inkscape-font-specification:'Frutiger Bold';text-align:end;text-anchor:end;stroke-width:0.26458332"
           id="path2311" />
        <path
           d="m 116.03929,79.427921 0.0642,-0.706113 q 0.20684,0.07846 0.39585,0.07846 0.2853,0 0.44578,-0.164047 0.16048,-0.164047 0.27817,-0.456478 l -1.4265,-3.805169 h 1.03778 l 0.74534,2.207497 q 0.025,0.07846 0.0642,0.203276 0.0392,0.121252 0.0892,0.285298 0.0535,-0.192576 0.0963,-0.345924 0.0464,-0.156914 0.0785,-0.253203 l 0.70255,-2.096944 h 0.94862 l -1.43719,3.872928 q -0.16405,0.424381 -0.33166,0.684716 -0.16405,0.263901 -0.43508,0.427948 -0.26747,0.164047 -0.65976,0.164047 -0.2639,0 -0.65618,-0.09629 z"
           style="font-style:normal;font-variant:normal;font-weight:bold;font-stretch:normal;font-family:Frutiger;-inkscape-font-specification:'Frutiger Bold';text-align:end;text-anchor:end;stroke-width:0.26458332"
           id="path2313" />
      </g>
    </g>
  </g>
</svg>
