<?xml version="1.0" encoding="UTF-8" standalone="no"?>
<svg
   xmlns:dc="http://purl.org/dc/elements/1.1/"
   xmlns:cc="http://creativecommons.org/ns#"
   xmlns:rdf="http://www.w3.org/1999/02/22-rdf-syntax-ns#"
   xmlns:svg="http://www.w3.org/2000/svg"
   xmlns="http://www.w3.org/2000/svg"
   viewBox="0 0 1184.227 344.27682"
   height="344.27682"
   width="1184.2271"
   xml:space="preserve"
   id="svg2"
   version="1.1"><metadata
     id="metadata8"><rdf:RDF><cc:Work
         rdf:about=""><dc:format>image/svg+xml</dc:format><dc:type
           rdf:resource="http://purl.org/dc/dcmitype/StillImage" /><dc:title></dc:title></cc:Work></rdf:RDF></metadata><defs
     id="defs6" /><g
     transform="matrix(1.3333333,0,0,-1.3333333,44.28404,645.55841)"
     id="g10"><g
       transform="scale(0.1)"
       id="g12"><path
         id="path14"
         style="fill:#ffffff;fill-opacity:1;fill-rule:nonzero;stroke:none"
         d="m 5956.56,3523.02 h 2032.78 v 786.91 H 5956.56 v -786.91" /><path
         id="path16"
         style="fill:#196fc1;fill-opacity:1;fill-rule:nonzero;stroke:none"
         d="M 8043.88,4338.9392 H 5932.07 v -850.39 h 2111.81 z m -1262.73,-82.05 -145.79,-684.48 h -228.78 l -143.83,473.63 h -1.93 l -95.69,-473.63 h -173.5 l 146.95,684.48 h 229.56 l 140.99,-474.64 h 1.94 l 96.59,474.64 z m 654.34,0 -142.93,-684.48 h -184.23 l 61.1,293.16 h -217.9 l -61.11,-293.16 h -184.24 l 142.95,684.48 h 184.23 l -54.12,-261.86 h 217.79 l 54.23,261.86 z m 529.29,-18.67 -44.41,-136.29 c -35.47,16.63 -83.78,31.31 -151.74,31.31 -72.89,0 -132.07,-10.68 -132.07,-65.69 0,-97 267.1,-60.8 267.1,-268.7 0,-189.21 -176.47,-238.3 -336.11,-238.3 -70.94,0 -152.78,16.77 -212.84,35.43 l 43.37,139.24 c 36.38,-23.57 109.41,-39.29 169.47,-39.29 57.24,0 146.82,10.83 146.82,81.41 0,109.87 -267.09,68.66 -267.09,261.74 0,176.6 155.77,229.54 306.57,229.54 84.82,0 164.59,-8.89 210.93,-30.4" /><g
         transform="scale(10)"
         id="g18"><text
           y="-288.79968"
           x="804.388"
           id="text24"
           style="font-variant:normal;font-weight:bold;font-size:60px;font-family:Frutiger;-inkscape-font-specification:Frutiger-Bold;writing-mode:lr-tb;fill:#231f20;fill-opacity:1;fill-rule:nonzero;stroke:none"
           transform="scale(1,-1)"><tspan
             style="text-align:end;text-anchor:end"
             y="-288.79968"
             x="804.388"
             id="tspan22">Business Services Authority</tspan></text>
</g></g></g></svg>