<?xml version="1.0" encoding="UTF-8" standalone="no"?>
<!DOCTYPE svg PUBLIC "-//W3C//DTD SVG 1.1//EN" "http://www.w3.org/Graphics/SVG/1.1/DTD/svg11.dtd">
<svg width="100%" height="100%" viewBox="0 0 300 100" version="1.1" xmlns="http://www.w3.org/2000/svg" xmlns:xlink="http://www.w3.org/1999/xlink" xml:space="preserve" xmlns:serif="http://www.serif.com/" style="fill-rule:evenodd;clip-rule:evenodd;stroke-linejoin:round;stroke-miterlimit:2;">
    <g transform="matrix(6.50887,0,0,6.50887,0.987506,-1.93406)">
        <path d="M3.9,1.5L8.3,1.5L10.9,10.5L11,10.5L12.8,1.5L16.1,1.5L13.3,14.5L9,14.5L6.3,5.5L6.2,5.5L4.4,14.5L1.1,14.5M17.3,1.5L20.9,1.5L19.9,6.4L23.9,6.4L25,1.5L28.5,1.5L25.8,14.5L22.3,14.5L23.4,8.9L19.3,8.9L18.1,14.5L14.7,14.5M37.7,4.4C37,4.1 36.1,3.8 34.8,3.8C33.4,3.8 32.3,4 32.3,5.1C32.3,6.9 37.4,6.3 37.4,10.2C37.4,13.8 34.1,14.7 31,14.7C29.7,14.7 28.1,14.4 27,14L27.8,11.3C28.5,11.7 29.9,12 31,12C32.1,12 33.8,11.8 33.8,10.5C33.8,8.4 28.7,9.2 28.7,5.5C28.7,2.1 31.6,1.1 34.5,1.1C36.1,1.1 37.6,1.3 38.5,1.7" style="fill:rgb(0,94,184);fill-rule:nonzero;"/>
    </g>
</svg>
