<?xml version="1.0" encoding="UTF-8" standalone="no"?>
<svg
   xmlns:dc="http://purl.org/dc/elements/1.1/"
   xmlns:cc="http://creativecommons.org/ns#"
   xmlns:rdf="http://www.w3.org/1999/02/22-rdf-syntax-ns#"
   xmlns:svg="http://www.w3.org/2000/svg"
   xmlns="http://www.w3.org/2000/svg"
   xmlns:sodipodi="http://sodipodi.sourceforge.net/DTD/sodipodi-0.dtd"
   xmlns:inkscape="http://www.inkscape.org/namespaces/inkscape"
   width="100%"
   height="100%"
   viewBox="0 0 300 100"
   version="1.1"
   xml:space="preserve"
   style="fill-rule:evenodd;clip-rule:evenodd;stroke-linejoin:round;stroke-miterlimit:2;"
   id="svg2130"
   sodipodi:docname="nhs.svg"
   inkscape:version="0.92.5 (2060ec1f9f, 2020-04-08)"><metadata
   id="metadata2136"><rdf:RDF><cc:Work
       rdf:about=""><dc:format>image/svg+xml</dc:format><dc:type
         rdf:resource="http://purl.org/dc/dcmitype/StillImage" /></cc:Work></rdf:RDF></metadata><defs
   id="defs2134" /><sodipodi:namedview
   pagecolor="#ffffff"
   bordercolor="#666666"
   borderopacity="1"
   objecttolerance="10"
   gridtolerance="10"
   guidetolerance="10"
   inkscape:pageopacity="0"
   inkscape:pageshadow="2"
   inkscape:window-width="2800"
   inkscape:window-height="1672"
   id="namedview2132"
   showgrid="false"
   inkscape:zoom="2.36"
   inkscape:cx="150"
   inkscape:cy="50"
   inkscape:window-x="80"
   inkscape:window-y="54"
   inkscape:window-maximized="1"
   inkscape:current-layer="svg2130" />
    <g
   transform="matrix(6.50887,0,0,6.50887,21.124374,-1.420073)"
   id="g2128">
        <path
   d="m 3.9,1.5 h 4.4 l 2.6,9 H 11 l 1.8,-9 h 3.3 l -2.8,13 H 9 L 6.3,5.5 H 6.2 l -1.8,9 H 1.1 m 16.2,-13 h 3.6 l -1,4.9 h 4 L 25,1.5 h 3.5 l -2.7,13 h -3.5 l 1.1,-5.6 h -4.1 l -1.2,5.6 H 14.7 M 37.7,4.4 C 37,4.1 36.1,3.8 34.8,3.8 c -1.4,0 -2.5,0.2 -2.5,1.3 0,1.8 5.1,1.2 5.1,5.1 0,3.6 -3.3,4.5 -6.4,4.5 -1.3,0 -2.9,-0.3 -4,-0.7 l 0.8,-2.7 c 0.7,0.4 2.1,0.7 3.2,0.7 1.1,0 2.8,-0.2 2.8,-1.5 0,-2.1 -5.1,-1.3 -5.1,-5 0,-3.4 2.9,-4.4 5.8,-4.4 1.6,0 3.1,0.2 4,0.6"
   style="fill:#005eb8;fill-rule:nonzero"
   id="path2126"
   inkscape:connector-curvature="0" />
    </g>
</svg>