<?xml version="1.0" encoding="UTF-8" standalone="no"?>
<svg
   viewBox="0 0 792.03021 587.14038"
   version="1.1"
   id="svg4"
   sodipodi:docname="nhsawp.svg"
   width="792.03021"
   height="587.14038"
   inkscape:version="1.3.2 (091e20e, 2023-11-25)"
   xmlns:inkscape="http://www.inkscape.org/namespaces/inkscape"
   xmlns:sodipodi="http://sodipodi.sourceforge.net/DTD/sodipodi-0.dtd"
   xmlns="http://www.w3.org/2000/svg"
   xmlns:svg="http://www.w3.org/2000/svg">
  <defs
     id="defs4" />
  <sodipodi:namedview
     id="namedview4"
     pagecolor="#ffffff"
     bordercolor="#666666"
     borderopacity="1.0"
     inkscape:showpageshadow="2"
     inkscape:pageopacity="0.0"
     inkscape:pagecheckerboard="0"
     inkscape:deskcolor="#d1d1d1"
     inkscape:zoom="0.34608898"
     inkscape:cx="226.82028"
     inkscape:cy="163.25281"
     inkscape:window-width="1400"
     inkscape:window-height="836"
     inkscape:window-x="40"
     inkscape:window-y="27"
     inkscape:window-maximized="1"
     inkscape:current-layer="svg4" />
  <path
     fill="#ffffff"
     d="m 556.78511,293.57019 h 203.28 v 78.69 h -203.28 z"
     id="path1" />
  <path
     d="m 258.45511,443.17019 -3.6,-9.6 h -16.98 l -3.66,9.6 h -8.7 l 16.32,-41.88 h 9.48 l 16.44,41.88 z m -12,-33.48 h -0.12 l -6.06,17.28 h 12.24 z m 32.22,33.48 -11.46,-30.9 h 8.64 l 7.68,22.5 h 0.12 l 7.44,-22.5 h 8.04 l -11.4,30.9 z m 39.48,0.72 c -9.96,0 -16.14,-6.84 -16.14,-15.96 0,-9.9 6.72,-16.38 16.14,-16.38 9.42,0 16.2,6.42 16.2,16.38 0,9.18 -6.24,15.96 -16.2,15.96 z m 7.8,-16.92 c 0,-4.92 -2.64,-9.18 -7.8,-9.18 -5.04,0 -7.74,4.32 -7.74,9.18 0,6.54 2.52,10.68 7.74,10.68 5.22,0 7.8,-4.02 7.8,-10.68 z m 35.04,16.2 v -17.34 c 0,-4.62 -0.96,-8.04 -5.22,-8.04 -5.1,0 -7.08,4.92 -7.08,10.38 v 15 h -8.04 v -30.9 h 7.62 v 4.2 h 0.12 c 2.46,-3.48 5.88,-4.92 10.14,-4.92 7.08,0 10.5,4.86 10.5,12.12 v 19.5 z m 51.84,0 a 36.18,36.18 0 0 1 -0.36,-4.62 h -0.12 a 11,11 0 0 1 -9.54,5.34 c -5.58,0 -10.8,-3.36 -10.8,-9.24 0,-5.34 3.06,-10.56 15.12,-10.56 h 4.98 v -0.12 c 0,-5.16 -2.64,-6.54 -6.96,-6.54 a 16.17,16.17 0 0 0 -9.54,3.36 l -0.24,-6.9 a 27.67,27.67 0 0 1 10.74,-2.34 c 9.24,0 13.32,3.72 13.32,13.02 v 6.36 c 0,1.62 0.12,8.1 0.48,12.24 z m -0.72,-14.28 h -3.54 c -5.7,0 -8.88,1.68 -8.88,5.34 0,2.4 1.86,3.78 5.1,3.78 3.6,0 7.32,-2.46 7.32,-8.76 z m 35.58,14.28 v -17.34 c 0,-4.62 -0.96,-8.04 -5.22,-8.04 -5.1,0 -7.08,4.92 -7.08,10.38 v 15 h -8.04 v -30.9 h 7.62 v 4.2 h 0.12 c 2.46,-3.48 5.88,-4.92 10.14,-4.92 7.08,0 10.5,4.86 10.5,12.12 v 19.5 z m 36.9,0 v -3.48 h -0.12 a 11.47,11.47 0 0 1 -9.48,4.2 c -9.42,0 -12.96,-7.68 -12.96,-16.26 0,-9.36 4.08,-16.08 12.96,-16.08 a 10.98,10.98 0 0 1 9.24,4.32 h 0.12 v -17.7 h 8.04 v 45 z m -0.3,-15.54 c 0,-4.32 -2.04,-9.84 -7.2,-9.84 -4.86,0 -6.66,5.04 -6.66,9.84 0,4.38 1.56,10.02 6.78,10.02 5.28,0 7.08,-5.52 7.08,-10.02 z m 66.6,15.54 -7.56,-33.48 h -0.12 l -7.44,33.48 h -10.86 l -11.1,-41.88 h 8.82 l 7.8,33.48 h 0.12 l 7.14,-33.48 h 11.4 l 7.38,33.48 h 0.12 l 7.86,-33.48 h 8.16 l -10.92,41.88 z m 26.64,-36.54 v -7.68 h 8.04 v 7.68 z m 0,36.54 v -30.9 h 8.04 v 30.9 z m 16.68,0 v -45 h 8.04 v 45 z m 34.86,0 a 21,21 0 0 1 -5.88,0.72 c -6.54,0 -9.84,-4.08 -9.84,-10.02 v -15.72 h -5.94 v -5.88 h 5.94 v -6.18 l 8.04,-2.58 v 8.76 h 7.14 v 5.88 h -7.14 v 14.34 c 0,3.24 1.02,5.16 3.84,5.16 a 7.1,7.1 0 0 0 3.6,-0.84 z m 3.78,-7.2 a 17.66,17.66 0 0 0 7.92,2.04 c 2.16,0 5.28,-0.84 5.28,-3.78 0,-2.58 -2.52,-3.36 -5.76,-4.26 -5.4,-1.44 -8.22,-3.66 -8.22,-8.82 0,-6.24 5.22,-9.6 12.18,-9.6 a 35.53,35.53 0 0 1 8.7,1.14 l -0.54,6.06 a 19.65,19.65 0 0 0 -7.14,-1.32 c -2.82,0 -4.8,1.14 -4.8,3.42 0,1.74 1.68,2.58 5.34,3.6 5.76,1.62 8.64,4.2 8.64,9.36 0,6.78 -5.82,10.08 -13.02,10.08 a 36.33,36.33 0 0 1 -9.06,-1.32 z m 48.18,7.2 v -17.46 c 0,-5.64 -1.68,-7.92 -5.22,-7.92 -4.74,0 -7.08,4.32 -7.08,10.44 v 14.94 h -8.04 v -45 h 8.04 v 18.3 h 0.12 a 11.5,11.5 0 0 1 9.72,-4.92 c 7.14,0 10.5,4.98 10.5,12.06 v 19.56 z m 16.5,-36.54 v -7.68 h 8.04 v 7.68 z m 0,36.54 v -30.9 h 8.04 v 30.9 z m 16.68,0 v -30.9 h 7.14 v 7.02 h 0.12 c 0.48,-3.24 3.84,-7.74 8.52,-7.74 a 7.75,7.75 0 0 1 2.4,0.24 v 8.1 a 8.2,8.2 0 0 0 -3.6,-0.66 c -3,0 -6.54,1.62 -6.54,11.22 v 12.72 z m 46.86,-1.74 a 21.15,21.15 0 0 1 -10.56,2.46 c -10.26,0 -16.2,-5.88 -16.2,-16.02 0,-8.64 4.5,-16.32 14.34,-16.32 10.5,0 14.7,6.48 14.7,18.66 h -21.36 c 0.36,4.86 3.66,7.8 8.88,7.8 a 20.81,20.81 0 0 0 10.2,-3.12 z m -5.4,-16.74 c -0.3,-4.44 -2.4,-7.26 -6.6,-7.26 -4.02,0 -6.66,2.64 -7.08,7.26 z m -689.930004,79.48 v -34.56 h -0.12 l -11.28,34.56 h -8.04 l -11.29,-34.56 -0.12,0.12 v 34.44 h -8.03 v -41.88 h 13.44 l 9.96,31.74 h 0.12 l 9.96,-31.74 h 13.44 v 41.88 z m 41.820004,-1.74 a 21.15,21.15 0 0 1 -10.560004,2.46 c -10.26,0 -16.2,-5.88 -16.2,-16.02 0,-8.64 4.5,-16.32 14.34,-16.32 10.500004,0 14.700004,6.48 14.700004,18.66 H 88.485106 c 0.36,4.86 3.66,7.8 8.88,7.8 a 20.81,20.81 0 0 0 10.200004,-3.12 z m -5.4,-16.74 c -0.3,-4.44 -2.400004,-7.26 -6.600004,-7.26 -4.02,0 -6.66,2.64 -7.08,7.26 z m 34.32,18.48 v -17.34 c 0,-4.62 -0.96,-8.04 -5.22,-8.04 -5.1,0 -7.08,4.92 -7.08,10.38 v 15 h -8.04 v -30.9 h 7.62 v 4.2 h 0.12 c 2.46,-3.48 5.88,-4.92 10.14,-4.92 7.08,0 10.5,4.86 10.5,12.12 v 19.5 z m 34.68,0 a 21,21 0 0 1 -5.88,0.72 c -6.54,0 -9.84,-4.08 -9.84,-10.02 v -15.72 h -5.94 v -5.88 h 5.94 v -6.18 l 8.04,-2.58 v 8.76 h 7.14 v 5.88 h -7.14 v 14.34 c 0,3.24 1.02,5.16 3.84,5.16 a 7.1,7.1 0 0 0 3.6,-0.84 z m 23.81,0 a 36.18,36.18 0 0 1 -0.36,-4.62 h -0.12 a 11,11 0 0 1 -9.54,5.34 c -5.57,0 -10.8,-3.36 -10.8,-9.24 0,-5.34 3.07,-10.56 15.12,-10.56 h 4.98 v -0.12 c 0,-5.16 -2.64,-6.54 -6.96,-6.54 a 16.17,16.17 0 0 0 -9.53,3.36 l -0.25,-6.9 a 27.67,27.67 0 0 1 10.74,-2.34 c 9.24,0 13.32,3.72 13.32,13.02 v 6.36 c 0,1.62 0.12,8.1 0.48,12.24 z m -0.72,-14.28 h -3.54 c -5.7,0 -8.87,1.68 -8.87,5.34 0,2.4 1.86,3.78 5.1,3.78 3.6,0 7.31,-2.46 7.31,-8.76 z m 15.43,14.28 v -45 h 8.03 v 45 z m 59.09,0 v -18.36 h -16.8 v 18.36 h -8.4 v -41.88 h 8.4 v 16.92 h 16.8 v -16.92 h 8.4 v 41.88 z m 42.18,-1.74 a 21.15,21.15 0 0 1 -10.56,2.46 c -10.26,0 -16.2,-5.88 -16.2,-16.02 0,-8.64 4.5,-16.32 14.34,-16.32 10.5,0 14.7,6.48 14.7,18.66 h -21.36 c 0.36,4.86 3.66,7.8 8.88,7.8 a 20.81,20.81 0 0 0 10.2,-3.12 z m -5.4,-16.74 c -0.3,-4.44 -2.4,-7.26 -6.6,-7.26 -4.02,0 -6.66,2.64 -7.08,7.26 z m 32.82,18.48 a 36.18,36.18 0 0 1 -0.36,-4.62 h -0.12 a 11,11 0 0 1 -9.54,5.34 c -5.58,0 -10.8,-3.36 -10.8,-9.24 0,-5.34 3.06,-10.56 15.12,-10.56 h 4.98 v -0.12 c 0,-5.16 -2.64,-6.54 -6.96,-6.54 a 16.17,16.17 0 0 0 -9.54,3.36 l -0.24,-6.9 a 27.66,27.66 0 0 1 10.74,-2.34 c 9.24,0 13.32,3.72 13.32,13.02 v 6.36 c 0,1.62 0.12,8.1 0.48,12.24 z m -0.72,-14.28 h -3.54 c -5.7,0 -8.88,1.68 -8.88,5.34 0,2.4 1.86,3.78 5.1,3.78 3.6,0 7.32,-2.46 7.32,-8.76 z m 15.42,14.28 v -45 h 8.04 v 45 z m 34.86,0 a 21,21 0 0 1 -5.88,0.72 c -6.54,0 -9.84,-4.08 -9.84,-10.02 v -15.72 h -5.94 v -5.88 h 5.94 v -6.18 l 8.04,-2.58 v 8.76 h 7.14 v 5.88 h -7.14 v 14.34 c 0,3.24 1.02,5.16 3.84,5.16 a 7.1,7.1 0 0 0 3.6,-0.84 z m 25.32,0 v -17.46 c 0,-5.64 -1.68,-7.92 -5.22,-7.92 -4.74,0 -7.08,4.32 -7.08,10.44 v 14.94 h -8.04 v -45 h 8.04 v 18.3 h 0.12 a 11.5,11.5 0 0 1 9.72,-4.92 c 7.14,0 10.5,4.98 10.5,12.06 v 19.56 z m 33,0 v -41.88 h 10.8 c 11.1,0 17.28,4.14 17.28,12.66 0,8.76 -5.88,13.32 -16.02,13.32 h -3.66 v 15.9 z m 11.22,-22.5 c 5.7,0 8.1,-2.34 8.1,-6.24 0,-4.38 -3,-6.54 -7.98,-6.54 h -2.94 v 12.78 z m 40.98,22.5 a 36,36 0 0 1 -0.36,-4.62 h -0.12 a 11,11 0 0 1 -9.54,5.34 c -5.58,0 -10.8,-3.36 -10.8,-9.24 0,-5.34 3.06,-10.56 15.12,-10.56 h 4.98 v -0.12 c 0,-5.16 -2.64,-6.54 -6.96,-6.54 a 16.17,16.17 0 0 0 -9.54,3.36 l -0.24,-6.9 a 27.66,27.66 0 0 1 10.74,-2.34 c 9.24,0 13.32,3.72 13.32,13.02 v 6.36 c 0,1.62 0.12,8.1 0.48,12.24 z m -0.72,-14.28 h -3.54 c -5.7,0 -8.88,1.68 -8.88,5.34 0,2.4 1.86,3.78 5.1,3.78 3.6,0 7.32,-2.46 7.32,-8.76 z m 15.42,14.28 v -30.9 h 7.14 v 7.02 h 0.12 c 0.48,-3.24 3.84,-7.74 8.52,-7.74 a 7.75,7.75 0 0 1 2.4,0.24 v 8.1 a 8.2,8.2 0 0 0 -3.6,-0.66 c -3,0 -6.54,1.62 -6.54,11.22 v 12.72 z m 41.52,0 a 21,21 0 0 1 -5.88,0.72 c -6.54,0 -9.84,-4.08 -9.84,-10.02 v -15.72 h -5.94 v -5.88 h 5.94 v -6.18 l 8.04,-2.58 v 8.76 h 7.14 v 5.88 h -7.14 v 14.34 c 0,3.24 1.02,5.16 3.84,5.16 a 7.1,7.1 0 0 0 3.6,-0.84 z m 25.32,0 v -17.34 c 0,-4.62 -0.96,-8.04 -5.22,-8.04 -5.1,0 -7.08,4.92 -7.08,10.38 v 15 h -8.04 v -30.9 h 7.62 v 4.2 h 0.12 c 2.46,-3.48 5.88,-4.92 10.14,-4.92 7.08,0 10.5,4.86 10.5,12.12 v 19.5 z m 41.1,-1.74 a 21.15,21.15 0 0 1 -10.56,2.46 c -10.26,0 -16.2,-5.88 -16.2,-16.02 0,-8.64 4.5,-16.32 14.34,-16.32 10.5,0 14.7,6.48 14.7,18.66 h -21.36 c 0.36,4.86 3.66,7.8 8.88,7.8 a 20.8,20.8 0 0 0 10.2,-3.12 z m -5.4,-16.74 c -0.3,-4.44 -2.4,-7.26 -6.6,-7.26 -4.02,0 -6.66,2.64 -7.08,7.26 z m 14.16,18.48 v -30.9 h 7.14 v 7.02 h 0.12 c 0.48,-3.24 3.84,-7.74 8.52,-7.74 a 7.75,7.75 0 0 1 2.4,0.24 v 8.1 a 8.2,8.2 0 0 0 -3.6,-0.66 c -3,0 -6.54,1.62 -6.54,11.22 v 12.72 z m 21.96,-7.2 a 17.66,17.66 0 0 0 7.92,2.04 c 2.16,0 5.28,-0.84 5.28,-3.78 0,-2.58 -2.52,-3.36 -5.76,-4.26 -5.4,-1.44 -8.22,-3.66 -8.22,-8.82 0,-6.24 5.22,-9.6 12.18,-9.6 a 35.53,35.53 0 0 1 8.7,1.14 l -0.54,6.06 a 19.65,19.65 0 0 0 -7.14,-1.32 c -2.82,0 -4.8,1.14 -4.8,3.42 0,1.74 1.68,2.58 5.34,3.6 5.76,1.62 8.64,4.2 8.64,9.36 0,6.78 -5.82,10.08 -13.02,10.08 a 36.33,36.33 0 0 1 -9.06,-1.32 z m 48.18,7.2 v -17.46 c 0,-5.64 -1.68,-7.92 -5.22,-7.92 -4.74,0 -7.08,4.32 -7.08,10.44 v 14.94 h -8.04 v -45 h 8.04 v 18.3 h 0.12 a 11.5,11.5 0 0 1 9.72,-4.92 c 7.14,0 10.5,4.98 10.5,12.06 v 19.56 z m 16.5,-36.54 v -7.68 h 8.04 v 7.68 z m 0,36.54 v -30.9 h 8.04 v 30.9 z m 16.5,12.6 v -43.5 h 7.68 v 4.38 h 0.12 c 2.04,-3.36 5.28,-5.1 9.6,-5.1 9,0 12.96,6.9 12.96,16.08 0,9.06 -3.9,16.26 -13.14,16.26 a 10.53,10.53 0 0 1 -9.06,-4.26 h -0.12 v 16.14 z m 21.96,-28.14 c 0,-4.26 -1.5,-9.84 -6.66,-9.84 -5.22,0 -7.2,5.58 -7.2,9.84 0,4.56 1.86,10.02 7.08,10.02 5.22,0 6.78,-5.64 6.78,-10.02 z"
     id="path3" />
  <path
     fill="#005eb8"
     d="m 601.59511,554.17019 -10.68,-20.88 h -0.08 v 20.88 h -5.36 v -27.92 h 6.88 l 10.64,20.88 h 0.08 v -20.88 h 5.36 v 27.92 z m 29.84,0 v -12.24 h -11.2 v 12.24 h -5.6 v -27.92 h 5.6 v 11.28 h 11.2 v -11.28 h 5.6 v 27.92 z m 12.12,-5.64 a 13.51,13.51 0 0 0 6.32,1.72 c 2.04,0 4.96,-1.04 4.96,-3.6 0,-2.12 -1.88,-3.04 -4.64,-4.12 -3.72,-1.44 -7.6,-3 -7.6,-8.24 0,-6 4.52,-8.52 9.8,-8.52 a 21,21 0 0 1 6.64,1 l -0.52,4.6 a 14.5,14.5 0 0 0 -5.68,-1.2 c -2.08,0 -4.4,0.96 -4.4,3.88 0,2.12 2.4,2.92 4.72,3.84 3.76,1.4 7.52,3.12 7.52,8.32 0,5.4 -3.84,8.44 -10.52,8.44 a 24.73,24.73 0 0 1 -7.12,-1.08 z m 38.4,5.64 v -23.52 h -8 v -4.4 h 21.6 v 4.4 h -8 v 23.52 z m 13.12,0 v -20.6 h 4.76 v 4.68 h 0.08 c 0.32,-2.16 2.56,-5.16 5.68,-5.16 a 5.14,5.14 0 0 1 1.6,0.16 v 5.4 a 5.46,5.46 0 0 0 -2.4,-0.44 c -2,0 -4.36,1.08 -4.36,7.48 v 8.48 z m 29.28,0 v -2.8 h -0.08 a 8.58,8.58 0 0 1 -6.76,3.28 c -4.6,0 -7,-3.08 -7,-8.08 v -13 h 5.36 v 11.76 c 0,4.12 1.52,5.16 3.48,5.16 3.24,0 4.72,-3 4.72,-6.96 v -9.96 h 5.36 v 20.6 z m 9.8,-4.8 a 11.77,11.77 0 0 0 5.28,1.36 c 1.44,0 3.52,-0.56 3.52,-2.52 0,-1.72 -1.68,-2.24 -3.84,-2.84 -3.6,-0.96 -5.48,-2.44 -5.48,-5.88 0,-4.16 3.48,-6.4 8.12,-6.4 a 23.69,23.69 0 0 1 5.8,0.76 l -0.36,4.04 a 13.1,13.1 0 0 0 -4.76,-0.88 c -1.88,0 -3.2,0.76 -3.2,2.28 0,1.16 1.12,1.72 3.56,2.4 3.84,1.08 5.76,2.8 5.76,6.24 0,4.52 -3.88,6.72 -8.68,6.72 a 24.22,24.22 0 0 1 -6.04,-0.88 z m 30.8,4.8 a 14,14 0 0 1 -3.92,0.48 c -4.36,0 -6.56,-2.72 -6.56,-6.68 v -10.48 h -3.96 v -3.92 h 3.96 v -4.12 l 5.36,-1.72 v 5.84 h 4.76 v 3.92 h -4.76 v 9.56 c 0,2.16 0.68,3.44 2.56,3.44 a 4.74,4.74 0 0 0 2.4,-0.56 z"
     id="path4" />
  <g
     transform="matrix(12.152078,0,0,12.152078,-744.34537,-382.64825)"
     id="g1935">
    <g
       id="g1259">
      <path
         style="opacity:1;fill:#196fc1;fill-opacity:1;stroke:none;stroke-width:13.2292;stroke-linecap:round;stroke-linejoin:round;stroke-miterlimit:2;stroke-dasharray:none;stroke-dashoffset:0;stroke-opacity:1;paint-order:normal"
         d="M 81.578247,35.868095 H 124.2471 V 61.280302 H 81.578247 Z"
         id="rect1207" />
      <path
         style="opacity:1;fill:#ffffff;fill-opacity:1;stroke:none;stroke-width:13.2292;stroke-linecap:round;stroke-linejoin:round;stroke-miterlimit:2;stroke-dasharray:none;stroke-dashoffset:0;stroke-opacity:1;paint-order:normal"
         d="M 82.369675,40.641895 H 123.39111 V 57.160528 H 82.369675 Z"
         id="rect1211" />
      <path
         d="M 124.21242,40.311164 H 81.548361 v 17.180092 h 42.664059 z m -25.510429,1.657624 -2.94534,13.828277 h -4.62195 l -2.90574,-9.568559 h -0.039 l -1.93319,9.568559 h -3.50515 l 2.96877,-13.828277 h 4.63771 l 2.84837,9.588963 h 0.0392 l 1.95137,-9.588963 z m 13.219369,0 -2.88756,13.828277 h -3.72193 l 1.23438,-5.922595 h -4.40214 l -1.23459,5.922595 h -3.722119 l 2.887959,-13.828277 h 3.72193 l -1.09337,5.290254 h 4.39992 l 1.0956,-5.290254 z m 10.69304,0.377182 -0.8972,2.753413 c -0.71659,-0.335969 -1.69258,-0.632543 -3.06555,-0.632543 -1.47257,0 -2.66816,0.215764 -2.66816,1.327109 0,1.959652 5.39612,1.228318 5.39612,5.428439 0,3.822533 -3.56515,4.81428 -6.7903,4.81428 -1.43317,0 -3.08655,-0.338798 -4.29992,-0.715778 l 0.87619,-2.81301 c 0.73497,0.476175 2.21037,0.79376 3.42373,0.79376 1.1564,0 2.96615,-0.218795 2.96615,-1.644694 0,-2.21966 -5.39591,-1.387111 -5.39591,-5.287829 0,-3.56778 3.14696,-4.637306 6.19351,-4.637306 1.71359,0 3.32514,0.1796 4.26134,0.614159"
         style="fill:#196fc1;fill-opacity:1;fill-rule:nonzero;stroke:none;stroke-width:0.0352778"
         id="path16"
         inkscape:connector-curvature="0" />
    </g>
  </g>
</svg>
