<svg xmlns="http://www.w3.org/2000/svg" width="400" height="90">
  <path d="M391.803 78h.064l3.88-12.203H400l-6.039 16.593c-1.35 3.697-2.313 7.334-6.694 7.334-1.002 0-2.005-.168-2.968-.455l.282-3.218c.527.191 1.131.287 2.159.287 1.683 0 2.724-1.196 2.724-2.99l-6.155-17.563h4.626zm-17.475-9.02h-3.097v-3.183h3.097V62.46l4.189-1.4v4.737h3.726v3.183h-3.726v7.788c0 1.423.372 2.763 1.966 2.763.745 0 1.464-.167 1.901-.454l.129 3.445c-.874.263-1.85.395-3.097.395-3.276 0-5.1-2.106-5.1-5.42V68.98zm-9.97-10.384h4.188v4.15h-4.189zm0 7.201h4.188V82.51h-4.189zm-12.156 0h3.726v3.793h.064c.193-1.555 1.902-4.187 4.408-4.187.41 0 .848 0 1.284.131v4.379c-.372-.228-1.13-.36-1.876-.36-3.404 0-3.404 4.415-3.404 6.82v6.137h-4.19V65.797zm-11.808-.394c4.78 0 8.442 3.337 8.442 8.864 0 4.81-3.097 8.638-8.442 8.638-5.32 0-8.416-3.828-8.416-8.638 0-5.515 3.662-8.864 8.416-8.864zm0 14.128c3.225 0 4.06-2.99 4.06-5.778 0-2.56-1.31-4.965-4.06-4.965-2.724 0-4.035 2.465-4.035 4.965 0 2.751.849 5.778 4.035 5.778zm-26.482-21.366h4.19v9.905h.063c1.067-1.627 2.878-2.655 5.063-2.655 3.816 0 5.473 2.787 5.473 6.555v10.552h-4.189v-8.925c0-2.045-.026-4.809-2.723-4.809-3.033 0-3.688 3.41-3.688 5.551v8.183h-4.189zm-10.78 10.815h-3.096v-3.183h3.096V62.46l4.189-1.4v4.737h3.726v3.183h-3.726v7.788c0 1.423.372 2.763 1.966 2.763.745 0 1.465-.167 1.901-.454l.129 3.445c-.874.263-1.85.395-3.097.395-3.276 0-5.1-2.106-5.1-5.42V68.98zm-5.68 13.53h-3.97v-2.273h-.063c-1.285 1.627-3.097 2.656-5.281 2.656-3.816 0-5.474-2.788-5.474-6.556V65.785h4.189v8.925c0 2.046.025 4.81 2.724 4.81 3.032 0 3.687-3.41 3.687-5.552v-8.183h4.19zm-30.72-22.658h4.933l8.57 22.658h-4.844l-1.876-5.192h-8.853l-1.901 5.192h-4.536zm2.402 4.546h-.064l-3.161 9.343h6.373zm-22.036 4.905c-1.285-.455-2.223-.718-3.752-.718-1.13 0-2.467.419-2.467 1.854 0 2.656 7.285.97 7.285 7.01 0 3.9-3.34 5.456-6.758 5.456-1.593 0-3.225-.287-4.754-.718l.244-3.565c1.31.682 2.685 1.1 4.124 1.1 1.067 0 2.75-.418 2.75-2.045 0-3.278-7.285-1.041-7.285-7.082 0-3.601 3.032-5.192 6.321-5.192 1.966 0 3.251.323 4.562.622zm-14.031 12.274c-1.53.873-3.277 1.328-5.538 1.328-5.32 0-8.416-3.182-8.416-8.662 0-4.833 2.467-8.828 7.478-8.828 5.975 0 7.658 4.246 7.658 10.096h-11.127c.193 2.692 2.004 4.223 4.6 4.223 2.03 0 3.777-.777 5.345-1.686zm-2.814-9.056c-.129-2.106-1.067-3.924-3.405-3.924-2.339 0-3.533 1.687-3.726 3.924zm-13.53-3.123c-.745-.359-1.568-.622-2.84-.622-2.595 0-4.253 2.142-4.253 5.288 0 3.086 1.414 5.455 4.343 5.455 1.182 0 2.506-.454 3.225-.777l.193 3.6c-1.22.395-2.467.55-4.189.55-5.28 0-7.94-3.732-7.94-8.828 0-4.833 2.75-8.661 7.786-8.661 1.683 0 2.904.191 4.06.55zm-19.042-10.802h4.189v4.15h-4.19zm0 7.201h4.189V82.51h-4.19zm-19.248 0h4.497l3.996 12.179h.065l3.88-12.179h4.189l-5.937 16.713h-4.715Zm-10.292 0h3.726v3.793h.065c.192-1.555 1.901-4.187 4.407-4.187.41 0 .848 0 1.285.131v4.379c-.373-.228-1.131-.36-1.876-.36-3.405 0-3.405 4.415-3.405 6.82v6.137h-4.189V65.797zm-4.548 15.78c-1.53.873-3.277 1.328-5.538 1.328-5.32 0-8.416-3.182-8.416-8.662 0-4.833 2.467-8.828 7.478-8.828 5.975 0 7.658 4.246 7.658 10.096h-11.127c.192 2.692 2.004 4.223 4.6 4.223 2.03 0 3.777-.777 5.345-1.686zm-2.814-9.056c-.129-2.106-1.067-3.924-3.405-3.924-2.339 0-3.534 1.687-3.726 3.924zm-15.38-8.506a10.847 10.847 0 0 0-4.446-.97c-1.503 0-3.444.683-3.444 3.147 0 3.924 9.573 2.273 9.573 9.87 0 4.965-3.778 6.843-8.198 6.843-2.377 0-3.443-.323-5.602-.874l.411-4.091c1.504.837 3.225 1.4 4.934 1.4 1.658 0 3.88-.874 3.88-2.92 0-4.318-9.572-2.536-9.572-10.024 0-5.06 3.778-6.915 7.632-6.915 1.876 0 3.624.263 5.217.813zm-25.094 5.288c-1.285-.455-2.223-.718-3.752-.718-1.131 0-2.467.419-2.467 1.854 0 2.656 7.285.97 7.285 7.01 0 3.9-3.34 5.456-6.758 5.456-1.594 0-3.226-.287-4.755-.718l.245-3.565c1.31.682 2.685 1.1 4.124 1.1 1.067 0 2.75-.418 2.75-2.045 0-3.278-7.286-1.041-7.286-7.082 0-3.601 3.033-5.192 6.322-5.192 1.966 0 3.25.323 4.561.622zm-13.877 0c-1.285-.455-2.223-.718-3.752-.718-1.13 0-2.467.419-2.467 1.854 0 2.656 7.285.97 7.285 7.01 0 3.9-3.34 5.456-6.758 5.456-1.594 0-3.225-.287-4.754-.718l.244-3.565c1.31.682 2.685 1.1 4.124 1.1 1.067 0 2.75-.418 2.75-2.045 0-3.278-7.285-1.041-7.285-7.082 0-3.601 3.032-5.192 6.321-5.192 1.966 0 3.251.323 4.562.622zM92.397 81.577c-1.53.873-3.277 1.328-5.538 1.328-5.32 0-8.416-3.182-8.416-8.662 0-4.833 2.467-8.828 7.478-8.828 5.975 0 7.658 4.246 7.658 10.096H82.452c.192 2.692 2.004 4.223 4.6 4.223 2.03 0 3.777-.777 5.345-1.686zm-2.814-9.056c-.129-2.106-1.067-3.924-3.405-3.924-2.339 0-3.534 1.687-3.726 3.924zm-29.206-6.724h3.97v2.273h.065c1.31-1.914 3.096-2.655 5.28-2.655 3.817 0 5.474 2.787 5.474 6.555v10.552h-4.189v-8.925c0-2.045-.025-4.809-2.723-4.809-3.033 0-3.688 3.41-3.688 5.551v8.183h-4.189zm-8.583-7.201h4.189v4.15h-4.189zm0 7.201h4.189V82.51h-4.189zm-4.407 3.506c-1.285-.455-2.223-.718-3.752-.718-1.13 0-2.467.419-2.467 1.854 0 2.656 7.285.97 7.285 7.01 0 3.9-3.34 5.456-6.758 5.456-1.593 0-3.225-.287-4.754-.718l.244-3.565c1.31.682 2.685 1.1 4.124 1.1 1.067 0 2.75-.418 2.75-2.045 0-3.278-7.285-1.041-7.285-7.082 0-3.601 3.032-5.192 6.321-5.192 1.966 0 3.251.323 4.562.622zM33.51 82.51h-3.97v-2.273h-.064c-1.285 1.627-3.097 2.656-5.281 2.656-3.817 0-5.474-2.788-5.474-6.556V65.785h4.189v8.925c0 2.046.025 4.81 2.724 4.81 3.032 0 3.687-3.41 3.687-5.552v-8.183h4.19zM0 59.852h7.632c2.814 0 7.029.85 7.029 5.814 0 2.692-1.748 4.582-4.343 5.06v.06c2.968.287 4.998 2.369 4.998 5.156 0 5.719-4.934 6.556-7.697 6.556H0zm4.381 9.163h1.786c1.85 0 4.125-.418 4.125-2.763 0-2.632-2.223-2.823-4.214-2.823H4.38zm0 9.93h2.07c2.03 0 4.496-.515 4.496-3.146 0-2.955-2.313-3.41-4.497-3.41H4.381z"/>
  <path fill="#005cb8" d="M399.833 45.986V0h-110v45.986zM334.06 4.438l-7.593 37.014h-11.911l-7.491-25.613h-.103l-4.985 25.613h-9.033L300.6 4.438h11.962l7.35 25.673h.103l5.036-25.673zm34.089 0-7.44 37.014h-9.598l3.187-15.85H342.95l-3.187 15.85h-9.598l7.44-37.014h9.598l-2.814 14.165h11.346l2.826-14.165zm27.573 1.005-2.312 7.37c-1.85-.898-4.369-1.7-7.902-1.7-3.79 0-6.875.575-6.875 3.554 0 5.252 13.916 3.29 13.916 14.535 0 10.229-9.187 12.884-17.513 12.884-3.7 0-7.954-.909-11.089-1.914l2.262-7.536c1.888 1.28 5.704 2.129 8.827 2.129 2.98 0 7.645-.586 7.645-4.402 0-5.946-13.915-3.71-13.915-14.153 0-9.547 8.107-12.418 15.97-12.418 4.408.012 8.57.49 10.986 1.651z"/>
</svg>
