<?xml version="1.0" encoding="UTF-8" standalone="no"?>
<svg
   xmlns:dc="http://purl.org/dc/elements/1.1/"
   xmlns:cc="http://creativecommons.org/ns#"
   xmlns:rdf="http://www.w3.org/1999/02/22-rdf-syntax-ns#"
   xmlns:svg="http://www.w3.org/2000/svg"
   xmlns="http://www.w3.org/2000/svg"
   xmlns:sodipodi="http://sodipodi.sourceforge.net/DTD/sodipodi-0.dtd"
   xmlns:inkscape="http://www.inkscape.org/namespaces/inkscape"
   width="100%"
   height="100%"
   viewBox="0 0 300 100"
   version="1.1"
   xml:space="preserve"
   style="fill-rule:evenodd;clip-rule:evenodd;stroke-linejoin:round;stroke-miterlimit:2;"
   id="svg3616"
   sodipodi:docname="nisa.svg"
   inkscape:version="0.92.5 (2060ec1f9f, 2020-04-08)"><metadata
   id="metadata3622"><rdf:RDF><cc:Work
       rdf:about=""><dc:format>image/svg+xml</dc:format><dc:type
         rdf:resource="http://purl.org/dc/dcmitype/StillImage" /></cc:Work></rdf:RDF></metadata><defs
   id="defs3620" /><sodipodi:namedview
   pagecolor="#ffffff"
   bordercolor="#666666"
   borderopacity="1"
   objecttolerance="10"
   gridtolerance="10"
   guidetolerance="10"
   inkscape:pageopacity="0"
   inkscape:pageshadow="2"
   inkscape:window-width="2800"
   inkscape:window-height="1672"
   id="namedview3618"
   showgrid="false"
   inkscape:zoom="2.36"
   inkscape:cx="150"
   inkscape:cy="50"
   inkscape:window-x="80"
   inkscape:window-y="54"
   inkscape:window-maximized="1"
   inkscape:current-layer="svg3616" />
    <g
   transform="matrix(1.80659,0,0,1.80659,37.181543,3.5099348)"
   id="g3614">
        <g
   id="g5254"
   transform="translate(-371.837,-860.126)">
            <path
   id="path4509"
   d="m 414.174,863.942 h -6.185 c -1.504,0 -2.555,0.99 -2.555,2.416 v 24.38 c -4.37,-6.986 -18.257,-25.092 -18.257,-25.092 -0.757,-1.17 -1.767,-1.704 -3.195,-1.704 h -11.645 l 1.713,2.498 c 0.255,0.372 0.531,1.382 0.531,2.718 v 38.761 c 0,1.423 1.051,2.417 2.552,2.417 h 6.972 v -32.541 c 4.576,7.316 21.796,30.76 21.796,30.76 0.755,1.168 1.768,1.707 3.193,1.707 h 5.867 v -41.104 c 0,-1.336 0.276,-2.346 0.529,-2.718 l 1.718,-2.498 z"
   style="fill:#2e2f79;fill-rule:nonzero"
   inkscape:connector-curvature="0" />
            <path
   id="path4513"
   d="m 421.954,877.828 h -3.397 l 2.168,2.616 c 0.282,0.344 0.662,0.979 0.662,2.534 v 24.866 c 0,1.164 0.823,2.418 2.628,2.418 h 6.751 v -30.019 c 0,-1.163 -0.823,-2.415 -2.628,-2.415 z"
   style="fill:#2e2f79;fill-rule:nonzero"
   inkscape:connector-curvature="0" />
            <path
   id="path4517"
   d="m 435.215,885.102 c 0,4.781 2.332,7.83 7.564,9.892 -0.004,-0.004 4.637,1.841 4.637,1.841 4.111,1.627 4.295,2.373 4.295,3.777 0,1.934 -1.942,2.916 -5.768,2.916 -3.627,0 -6.126,-0.988 -8.184,-1.91 l -1.54,-0.694 -2.787,7.283 1.46,0.587 c 3.864,1.545 7.623,2.3 11.492,2.3 13.139,0 14.556,-7.615 14.556,-10.89 0,-5.197 -2.428,-8.44 -7.876,-10.51 -0.003,-0.002 -6.481,-2.46 -6.481,-2.46 -2.506,-0.975 -2.506,-1.903 -2.506,-2.404 0,-0.815 0,-2.982 5.251,-2.982 1.952,0 5.112,0.599 7.385,1.743 l 2.766,1.393 -1.134,-7.366 c -0.149,-1.116 -0.633,-1.716 -1.778,-2.191 -1.068,-0.409 -3.999,-1.007 -7.826,-1.007 -9.345,0 -13.526,5.366 -13.526,10.682"
   style="fill:#2e2f79;fill-rule:nonzero"
   inkscape:connector-curvature="0" />
            <path
   id="path4521"
   d="m 478.916,874.42 c -4.886,0 -8.957,1.202 -10.427,1.839 -1.558,0.667 -2.343,1.587 -2.343,2.743 0,0.106 0.034,0.221 0.046,0.331 0,0.018 -0.002,0.034 -0.002,0.052 0,0.405 0.126,0.79 0.22,1.077 l 0.084,0.261 0.042,0.127 1.814,4.488 1.61,-0.996 c 0.847,-0.523 3.97,-1.878 8.22,-1.878 5.879,0 7.116,1.877 7.163,5.118 -1.855,-0.225 -4.345,-0.455 -6.871,-0.455 -9.576,0 -15.29,4.558 -15.29,12.188 0,7.155 4.99,11.779 12.713,11.779 4.557,0 7.675,-1.216 9.676,-2.388 0.311,0.85 1.111,1.568 2.476,1.568 h 6.677 v -22.916 c 0,-8.708 -5.172,-12.938 -15.808,-12.938 m 6.431,25.967 c -0.939,0.931 -3.368,2.867 -7.389,2.867 -5.252,0 -5.252,-2.96 -5.252,-4.075 0,-2.118 0.749,-4.553 6.578,-4.553 1.744,0 4.136,0.237 6.063,0.52 z"
   style="fill:#2e2f79;fill-rule:nonzero"
   inkscape:connector-curvature="0" />
        </g>
        <g
   id="path4525"
   transform="translate(-372.337,-859.626)">
            <path
   d="m 491.862,871.752 c -0.003,0.019 -0.003,0.04 0,0.059 0.055,0.297 0.349,0.257 0.526,0.233 0.03,-0.004 0.06,-0.008 0.091,-0.011 0.077,-0.008 0.155,-0.061 0.197,-0.132 0.046,-0.074 0.051,-0.155 0.015,-0.211 -0.154,-0.233 -0.336,-0.436 -0.493,-0.605 -0.059,-0.064 -0.167,-0.063 -0.256,0.004 -0.089,0.063 -0.133,0.174 -0.103,0.26 0.038,0.114 0.046,0.246 0.023,0.404 m -1.064,-1.178 c 0.041,0.076 0.06,0.178 0.059,0.315 -0.019,0.081 -0.027,0.164 -0.034,0.233 0,0.011 -0.002,0.026 -0.003,0.04 -0.004,0.03 -0.004,0.055 -0.011,0.085 -0.031,0.111 0.034,0.203 0.141,0.205 0.108,0.002 0.22,-0.087 0.251,-0.199 0,-0.003 10e-4,-0.004 10e-4,-0.008 0,0.004 0,0.004 -10e-4,0.004 0.038,-0.141 0.058,-0.28 0.062,-0.412 0.004,-0.011 0.008,-0.019 0.008,-0.027 l 0.168,0.09 c 0.079,0.042 0.192,0.011 0.265,-0.074 0.076,-0.086 0.09,-0.198 0.034,-0.265 l -0.089,-0.101 c -0.022,-0.023 -0.052,-0.043 -0.088,-0.047 l -0.114,-0.019 -0.323,-0.158 c -0.128,-0.192 -0.326,-0.334 -0.592,-0.414 -0.081,-0.026 -0.184,0.015 -0.25,0.098 -0.065,0.083 -0.074,0.185 -0.022,0.249 0.129,0.163 0.3,0.288 0.54,0.404 m 0.745,-0.045 c 0.003,0.038 -0.004,0.08 -0.026,0.121 0,0.002 -0.002,0.003 -0.002,0.003 l -0.004,-0.003 c 0.023,-0.041 0.031,-0.081 0.031,-0.12 z m -0.048,0.147 h 0.003 c -0.034,0.048 -0.079,0.083 -0.13,0.101 l -10e-4,-0.002 c 0.051,-0.018 0.096,-0.053 0.128,-0.1 m -0.45,0.372 c 0.002,0 0.003,-10e-4 0.007,-10e-4 -0.003,0 -0.004,10e-4 -0.007,10e-4 m 2.68,2.836 c 0.002,0.008 0.002,0.015 0.003,0.019 -0.09,-0.42 -0.592,-0.431 -1.122,-0.445 -0.327,-0.008 -0.656,-0.023 -0.907,-0.119 0.004,-0.004 0.008,-0.011 0.008,-0.015 0.12,-0.18 0.254,-0.387 0.192,-0.551 -0.019,-0.049 -0.074,-0.133 -0.227,-0.136 0.015,0 0.026,0.003 0.041,0.004 -0.201,-0.052 -0.4,-0.089 -0.591,-0.127 -0.408,-0.077 -0.76,-0.144 -1.036,-0.326 -0.019,-0.011 -0.045,-0.015 -0.07,-0.019 -0.027,-0.04 -0.031,-0.215 -0.027,-0.321 -10e-4,-0.27 0,-0.64 -0.328,-0.623 0.019,-0.001 0.038,10e-4 0.053,0.004 -0.429,-0.112 -2.034,-0.071 -2.298,0.395 -0.072,0.129 -0.095,0.313 0.214,0.461 0.426,0.204 0.804,0.366 1.171,0.525 0.637,0.273 1.187,0.511 1.791,0.883 0.011,0.004 0.022,0.011 0.034,0.015 0.842,0.253 1.814,0.569 2.672,1.076 0.156,0.14 0.244,0.331 0.338,0.532 l 0.023,0.052 c 0.039,0.087 0.149,0.109 0.252,0.052 0.101,-0.06 0.16,-0.176 0.135,-0.27 -0.084,-0.304 -0.188,-0.67 -0.326,-1.07 m 2.996,1.363 c -0.015,-0.057 -0.057,-0.099 -0.116,-0.109 -0.182,-0.03 -0.309,-0.049 -0.404,-0.06 -0.133,-0.682 -0.749,-1.034 -1.72,-0.963 -0.062,0.004 -0.126,0.038 -0.174,0.091 -0.047,0.052 -0.071,0.118 -0.067,0.177 l 0.034,0.461 c 0.004,0.071 0.05,0.123 0.117,0.136 0.224,0.045 0.379,0.003 0.484,-0.056 0.122,0.18 0.254,0.336 0.388,0.476 -0.002,0.019 -0.007,0.038 -0.003,0.054 0.003,0.052 0.034,0.096 0.077,0.117 l 0.223,0.112 c 0.085,0.078 0.171,0.152 0.254,0.224 l 0.246,0.215 c 0.038,0.03 0.093,0.044 0.153,0.03 0.058,-0.015 0.115,-0.049 0.155,-0.101 0.022,-0.034 0.052,-0.068 0.081,-0.103 0.146,-0.173 0.343,-0.411 0.273,-0.7 m -7.421,-4.453 0.236,0.105 c 0.058,0.027 0.134,0.015 0.201,-0.026 0.066,-0.044 0.111,-0.115 0.122,-0.186 0.062,-0.456 -0.253,-1.518 -0.366,-1.588 -1.629,-0.965 -3,-1.717 -4.312,-2.372 -0.047,-0.022 -0.107,-0.022 -0.165,0.003 -0.039,0.015 -0.075,0.038 -0.111,0.052 -0.053,0.027 -0.126,0.062 -0.16,0.067 -0.034,-0.162 -0.092,-0.303 -0.184,-0.419 -0.011,-0.015 -0.026,-0.03 -0.047,-0.038 l -0.62,-0.313 c -0.015,-0.008 -0.03,-0.015 -0.049,-0.015 l -0.019,-0.004 c -0.015,-0.019 -0.03,-0.034 -0.055,-0.045 l -1.453,-0.666 c -0.011,-0.003 -0.027,-0.007 -0.04,-0.011 l -0.059,-0.011 c -0.111,-0.019 -0.214,-0.038 -0.312,-0.044 0.003,-10e-4 -0.063,-0.008 -0.063,-0.008 -0.411,-0.037 -0.664,-0.073 -0.675,-0.341 -0.003,-0.061 -0.038,-0.111 -0.089,-0.132 l -0.267,-0.109 c -0.008,-0.004 -0.019,0 -0.027,-0.003 -0.007,-0.003 -0.011,-0.011 -0.019,-0.015 l -1.13,-0.466 c -0.499,-0.203 -1.027,-0.387 -1.536,-0.567 l -0.772,-0.275 c -6.188,-1.824 -8.818,-2.333 -15.636,-3.031 -2.96,-0.17 -6.739,-0.24 -10.375,-0.192 -9.231,0.552 -14.543,1.584 -20.211,3.536 -4.89,1.684 -7.13,3.058 -10.008,5.844 l -0.317,0.398 c -0.011,0.007 -0.023,0.019 -0.03,0.03 -0.86,0.981 -1.28,1.897 -1.243,2.721 0.039,0.896 0.636,1.672 1.681,2.187 0.016,0.008 0.031,0.015 0.034,0.019 0.008,0.004 0.019,0.007 0.027,0.011 3.115,1.055 7.016,-0.566 8.549,-1.313 0.087,-0.043 0.151,-0.134 0.155,-0.222 0.004,-0.089 -0.052,-0.153 -0.137,-0.161 -0.516,-0.041 -0.564,-0.189 -0.567,-0.219 -0.011,-0.063 0.066,-0.176 0.201,-0.301 0.76,-0.697 2.883,-1.436 4.48,-0.999 0.008,0.002 0.019,0.003 0.027,0.004 2.161,0.233 4.332,-0.657 6.431,-1.519 1.897,-0.778 3.858,-1.582 5.888,-1.621 0.668,0.011 1.57,-0.075 2.445,-0.159 0.493,-0.048 1.004,-0.096 1.461,-0.126 2.358,0.034 4.702,-0.14 6.966,-0.309 3.762,-0.278 7.657,-0.567 11.66,0.122 1.144,0.177 2.326,0.038 3.472,-0.097 0.584,-0.067 1.134,-0.132 1.668,-0.154 0.633,0.053 1.182,0.31 1.713,0.559 0.356,0.168 0.691,0.326 1.029,0.409 1.208,0.371 2.412,0.431 3.575,0.49 l 0.147,0.007 c 0.101,0.004 0.209,-0.07 0.249,-0.176 0.04,-0.105 -10e-4,-0.204 -0.095,-0.227 -0.642,-0.158 -1.217,-0.24 -1.825,-0.328 -0.52,-0.074 -1.058,-0.153 -1.672,-0.283 0.377,-0.171 1.238,-0.407 1.685,-0.42 0.012,0 0.019,-0.003 0.031,-0.004 0.04,0.03 0.086,0.194 0.112,0.286 0.062,0.223 0.147,0.518 0.426,0.487 0.382,0.119 0.816,0.087 1.278,0.052 0.19,-0.019 0.388,-0.03 0.585,-0.034 -0.015,0.05 -0.038,0.109 -0.053,0.148 -0.063,0.165 -0.116,0.308 -0.038,0.407 0.043,0.052 0.114,0.071 0.196,0.052 -0.023,0.004 -0.046,0.008 -0.069,0.004 0.419,0.053 0.895,-0.061 1.316,-0.163 0.436,-0.106 0.848,-0.205 0.981,-0.054 0.293,0.264 0.535,0.514 0.751,0.777 0.004,0.007 0.011,0.015 0.019,0.019 0.166,0.138 0.352,0.281 0.598,0.358 0.016,0.004 0.031,0.008 0.047,0.008 l 0.516,0.011 c 1.293,0.064 2.607,0.283 3.696,0.616 0.049,0.015 0.104,0.008 0.153,-0.019 m -12.249,-6.908 c 0.137,0.031 0.251,0.115 0.347,0.263 -0.131,-0.056 -0.248,-0.144 -0.347,-0.263 m 10.948,5.354 c -0.059,0.038 -0.123,0.041 -0.172,0.026 l 10e-4,-0.004 h -0.003 c -0.019,-0.003 -0.038,-0.015 -0.05,-0.026 l 0.004,-0.048 c 0.08,0.015 0.16,0.026 0.233,0.045 -0.003,0.003 -0.007,0.008 -0.011,0.008 m 0.281,0.066 c 0.286,0.106 0.487,0.287 0.526,0.652 -0.199,-0.167 -0.379,-0.377 -0.526,-0.652 m 0.542,0.667 c 0.007,-0.051 0.026,-0.103 0.069,-0.144 0.049,-0.053 0.117,-0.084 0.181,-0.084 0.107,0.003 0.169,0.091 0.144,0.202 -0.023,0.086 -0.093,0.161 -0.177,0.19 -0.073,-0.049 -0.147,-0.104 -0.217,-0.164 m 0.43,0.296 c -0.065,-0.038 -0.131,-0.077 -0.194,-0.12 l 0.265,-0.011 c -0.015,0.034 -0.038,0.079 -0.071,0.131"
   style="fill:#f2ce3b;fill-rule:nonzero"
   id="path3611"
   inkscape:connector-curvature="0" />
        </g>
    </g>
</svg>