<?xml version="1.0" encoding="UTF-8" standalone="no"?>
<!DOCTYPE svg PUBLIC "-//W3C//DTD SVG 1.1//EN" "http://www.w3.org/Graphics/SVG/1.1/DTD/svg11.dtd">
<svg width="100%" height="100%" viewBox="0 0 300 100" version="1.1" xmlns="http://www.w3.org/2000/svg" xmlns:xlink="http://www.w3.org/1999/xlink" xml:space="preserve" xmlns:serif="http://www.serif.com/" style="fill-rule:evenodd;clip-rule:evenodd;stroke-linejoin:round;stroke-miterlimit:2;">
    <g id="Lager_1" transform="matrix(2.16793,0,0,2.16793,2.52406,17.0887)">
        <path d="M124.1,6.2C118.6,6.6 114.2,11.1 113.8,16.6C113.4,23.1 118.5,28.5 124.9,28.5C127.2,28.5 130.3,27.3 131.7,24.9L131.7,28.2L136,28.2L136,17.6C136.2,10.6 130.6,5.7 124.1,6.2ZM131.4,17.6C131.2,21.3 128,24.1 124.2,23.6C121.3,23.2 119,20.9 118.6,18C118.2,14.1 121.2,10.8 125,10.8C128.4,10.8 131.2,13.5 131.4,16.9L131.4,17.6Z" style="fill:rgb(0,0,160);fill-rule:nonzero;"/>
        <path d="M100.5,6.2C94.6,6.4 89.6,10.9 89.6,17.5C89.6,23.5 94.5,28.6 100.8,28.6C105.2,28.6 109.5,26 111.2,21.7L106.9,20.4C106.1,22.2 104.2,23.7 102.1,24.1C99.1,24.7 96.3,22.8 95.2,20.8L111.9,16.2C111.4,11.8 107.6,6 100.5,6.2ZM94.3,16.8C94.3,14.5 95.7,11.8 98.7,10.7C102.1,9.4 105.1,11.1 106.4,13.5L94.3,16.8Z" style="fill:rgb(0,0,160);fill-rule:nonzero;"/>
        <path d="M63.8,10.7L63.8,6.1C59.6,6.1 58.2,8.2 57.5,9.3L57.5,6.8L52.7,6.8L52.7,28.1L57.6,28.1L57.6,17.6C57.6,12.8 60.4,10.9 63.8,10.7Z" style="fill:rgb(0,0,160);fill-rule:nonzero;"/>
        <path d="M19.7,19.6L5.1,2.4L0.1,2.4L0.1,28.1L5.3,28.1L5.3,10.9L20.1,28.2L24.6,28.2L24.6,2.4L19.7,2.4L19.7,19.6Z" style="fill:rgb(0,0,160);fill-rule:nonzero;"/>
        <path d="M86.7,0.1L82.1,0.1L82.1,8.5C81,7.1 77.6,5.9 74.7,6.2C69.2,6.6 64.8,11.1 64.4,16.6C64,23.1 69.1,28.5 75.5,28.5C77.9,28.5 81.2,27.4 82.3,25.3L82.3,28.1L86.6,28.1L86.6,17.5L86.6,17.3L86.6,17.1L86.7,0.1ZM81.9,17.6C81.7,21.3 78.5,24.1 74.7,23.6C71.8,23.2 69.5,20.9 69.1,18C68.7,14.1 71.7,10.8 75.5,10.8C78.9,10.8 81.7,13.5 81.9,16.9L81.9,17.6Z" style="fill:rgb(0,0,160);fill-rule:nonzero;"/>
        <path d="M38.7,6.1C32.5,6.1 27.5,11.1 27.5,17.3C27.5,23.5 32.5,28.5 38.7,28.5C44.9,28.5 49.9,23.5 49.9,17.3C49.8,11.1 44.8,6.1 38.7,6.1ZM38.7,23.7C35.2,23.7 32.3,20.8 32.3,17.3C32.3,13.8 35.2,10.9 38.7,10.9C42.2,10.9 45.1,13.8 45.1,17.3C45.1,20.9 42.2,23.7 38.7,23.7Z" style="fill:rgb(0,0,160);fill-rule:nonzero;"/>
    </g>
</svg>
