<?xml version="1.0" encoding="UTF-8" standalone="no"?>
<svg
   xmlns:dc="http://purl.org/dc/elements/1.1/"
   xmlns:cc="http://creativecommons.org/ns#"
   xmlns:rdf="http://www.w3.org/1999/02/22-rdf-syntax-ns#"
   xmlns:svg="http://www.w3.org/2000/svg"
   xmlns="http://www.w3.org/2000/svg"
   xmlns:sodipodi="http://sodipodi.sourceforge.net/DTD/sodipodi-0.dtd"
   xmlns:inkscape="http://www.inkscape.org/namespaces/inkscape"
   width="105.67463"
   height="95.312073"
   viewBox="0 0 105.67463 95.312073"
   version="1.1"
   xml:space="preserve"
   style="clip-rule:evenodd;fill-rule:evenodd;stroke-linejoin:round;stroke-miterlimit:2"
   id="svg18"
   sodipodi:docname="olympia-london.svg"
   inkscape:version="0.92.5 (0.92.5+69)"><metadata
   id="metadata22"><rdf:RDF><cc:Work
       rdf:about=""><dc:format>image/svg+xml</dc:format><dc:type
         rdf:resource="http://purl.org/dc/dcmitype/StillImage" /></cc:Work></rdf:RDF></metadata><sodipodi:namedview
   pagecolor="#ffffff"
   bordercolor="#666666"
   borderopacity="1"
   objecttolerance="10"
   gridtolerance="10"
   guidetolerance="10"
   inkscape:pageopacity="0"
   inkscape:pageshadow="2"
   inkscape:window-width="822"
   inkscape:window-height="480"
   id="namedview20"
   showgrid="false"
   inkscape:zoom="1.36"
   inkscape:cx="42.721525"
   inkscape:cy="47.192124"
   inkscape:window-x="0"
   inkscape:window-y="27"
   inkscape:window-maximized="0"
   inkscape:current-layer="svg18" />
    
    <g
   id="g833"
   transform="translate(-3.2343575,-1.88005)"><g
     transform="matrix(0.585455,0,0,0.585455,-47.4075,-27.3927)"
     id="olympia-arc">
        <path
   id="path2"
   style="fill:url(#_Linear1);fill-rule:nonzero"
   d="m 87,140 c 0,-49.6 40.4,-90 90,-90 49.5,0 89.8,40.2 90,89.6 v 0.4 h -36.8 c 0,-29.3 -23.9,-53.2 -53.2,-53.2 -29.3,0 -53.2,23.9 -53.2,53.2 z"
   inkscape:connector-curvature="0" />
    </g><g
     id="g7"
     transform="matrix(0.585455,0,0,0.585455,-47.4075,-27.3927)">
        <path
   id="path5"
   style="fill:#66cdd6;fill-rule:nonzero"
   d="m 170.2,200 c 0.7,-0.7 2.1,-1.6 4.1,-1.6 2,0 3.8,0.9 5,2.4 0.9,1.1 1.3,2.5 1.3,4.9 v 6.7 h -2.8 v -6.9 c 0,-1.8 -0.3,-2.6 -0.8,-3.2 -0.6,-0.8 -1.7,-1.3 -2.8,-1.3 -1.8,0 -3.1,1 -4,2 v 9.4 h -2.8 v -13.7 h 2.7 z m -12.6,10.1 c 2.5,0 4.3,-2 4.3,-4.5 0,-2.5 -1.8,-4.5 -4.3,-4.5 -2.5,0 -4.3,2 -4.3,4.5 -0.1,2.5 1.7,4.5 4.3,4.5 m 0,-11.7 c 4.1,0 7.1,3.1 7.1,7.2 0,4.1 -3,7.2 -7.1,7.2 -4.1,0 -7.1,-3.1 -7.1,-7.2 0,-4.1 3,-7.2 7.1,-7.2 m -12.8,4.6 c -0.8,-1.1 -2.3,-2 -3.9,-2 -2.7,0 -4.4,2.1 -4.4,4.5 0,2.5 1.9,4.5 4.6,4.5 1.4,0 2.8,-0.7 3.8,-2 z m 0.1,8.2 c -1.1,1 -2.6,1.6 -4.2,1.6 -1.2,0 -2.5,-0.3 -3.5,-0.9 -2.1,-1.2 -3.5,-3.5 -3.5,-6.3 0,-2.8 1.5,-5.1 3.5,-6.3 0.9,-0.6 2.1,-0.9 3.4,-0.9 1.5,0 3,0.5 4.2,1.5 v -8.2 h 2.8 v 20.7 h -2.7 z M 120.7,200 c 0.7,-0.7 2.1,-1.6 4.1,-1.6 2,0 3.8,0.9 5,2.4 0.9,1.1 1.3,2.5 1.3,4.9 v 6.7 h -2.8 v -6.9 c 0,-1.8 -0.3,-2.6 -0.8,-3.2 -0.6,-0.8 -1.7,-1.3 -2.8,-1.3 -1.8,0 -3.1,1 -4,2 v 9.4 H 118 v -13.7 h 2.7 z m -12.6,10.1 c 2.5,0 4.3,-2 4.3,-4.5 0,-2.5 -1.8,-4.5 -4.3,-4.5 -2.5,0 -4.3,2 -4.3,4.5 0,2.5 1.8,4.5 4.3,4.5 m 0,-11.7 c 4.1,0 7.1,3.1 7.1,7.2 0,4.1 -3,7.2 -7.1,7.2 -4.1,0 -7.1,-3.1 -7.1,-7.2 0,-4.1 3,-7.2 7.1,-7.2 m -17.4,11.3 h 9 v 2.8 H 87.8 v -20.4 h 2.9 z M 246.6,172 h 9.9 l -5,-11.9 z m 11.7,4.4 h -13.5 l -3.4,8.3 h -4.8 l 13.3,-32.1 h 3.2 l 13.3,32.1 h -4.8 z m -28.7,8.2 h 4.6 v -32.1 h -4.6 z M 215.5,166 c 2.2,0 3.4,-0.6 4.2,-1.4 0.8,-0.8 1.3,-1.9 1.3,-3.2 0,-1.2 -0.5,-2.4 -1.3,-3.2 -0.8,-0.9 -2,-1.4 -4.2,-1.4 h -7.4 v 9.1 z m -7.4,4.4 v 14.2 h -4.6 v -32.1 h 12.1 c 3.1,0 5.2,0.8 6.7,2.1 1.9,1.7 3.2,4.1 3.2,6.9 0,2.8 -1.2,5.2 -3.2,6.9 -1.6,1.3 -3.6,2.1 -6.7,2.1 h -7.5 z m -23.1,7.4 h -3.3 l -9.4,-14.7 v 21.6 h -4.5 v -32.1 h 3.2 l 12.4,19.6 12.4,-19.6 h 3.2 v 32.1 h -4.7 V 163 Z m -32.2,-7.9 v 14.7 h -4.6 v -14.7 l -11,-17.4 h 5.2 l 8.2,12.9 8.2,-12.9 h 5.2 z m -25.1,10.3 h 14.2 v 4.4 h -18.8 v -32.1 h 4.6 z m -25.1,0.5 c 6.6,0 11.4,-5.2 11.4,-12.1 0,-7 -4.9,-12.1 -11.4,-12.1 -6.6,0 -11.4,5.3 -11.4,12.1 -0.1,7 4.8,12.1 11.4,12.1 z m 0,-28.7 c 9,0 16.1,7.2 16.1,16.5 0,9.3 -7,16.5 -16.1,16.5 -9.1,0 -16.1,-7.2 -16.1,-16.5 0,-9.3 7,-16.5 16.1,-16.5 z"
   inkscape:connector-curvature="0" />
    </g></g>
    <defs
   id="defs16">
        <linearGradient
   id="_Linear1"
   x1="0"
   y1="0"
   x2="1"
   y2="0"
   gradientUnits="userSpaceOnUse"
   gradientTransform="matrix(0,87.8441,-87.8441,0,177.006,52.1535)"><stop
     offset="0"
     style="stop-color:rgb(0,171,189);stop-opacity:1"
     id="stop9" /><stop
     offset="0.74"
     style="stop-color:rgb(195,177,214);stop-opacity:1"
     id="stop11" /><stop
     offset="1"
     style="stop-color:rgb(195,177,214);stop-opacity:0"
     id="stop13" /></linearGradient>
    </defs>
</svg>