<?xml version="1.0" encoding="UTF-8" standalone="no"?>
<!DOCTYPE svg PUBLIC "-//W3C//DTD SVG 1.1//EN" "http://www.w3.org/Graphics/SVG/1.1/DTD/svg11.dtd">
<svg width="100%" height="100%" viewBox="0 0 300 100" version="1.1" xmlns="http://www.w3.org/2000/svg" xmlns:xlink="http://www.w3.org/1999/xlink" xml:space="preserve" xmlns:serif="http://www.serif.com/" style="fill-rule:evenodd;clip-rule:evenodd;stroke-linejoin:round;stroke-miterlimit:2;">
    <g id="olympia-arc" transform="matrix(0.585455,0,0,0.585455,-47.4075,-27.3927)">
        <path d="M87,140C87,90.4 127.4,50 177,50C226.5,50 266.8,90.2 267,139.6L267,140L230.2,140C230.2,110.7 206.3,86.8 177,86.8C147.7,86.8 123.8,110.7 123.8,140L87,140Z" style="fill:url(#_Linear1);fill-rule:nonzero;"/>
    </g>
    <g transform="matrix(0.585455,0,0,0.585455,-47.4075,-27.3927)">
        <path d="M170.2,200C170.9,199.3 172.3,198.4 174.3,198.4C176.3,198.4 178.1,199.3 179.3,200.8C180.2,201.9 180.6,203.3 180.6,205.7L180.6,212.4L177.8,212.4L177.8,205.5C177.8,203.7 177.5,202.9 177,202.3C176.4,201.5 175.3,201 174.2,201C172.4,201 171.1,202 170.2,203L170.2,212.4L167.4,212.4L167.4,198.7L170.1,198.7L170.2,200ZM157.6,210.1C160.1,210.1 161.9,208.1 161.9,205.6C161.9,203.1 160.1,201.1 157.6,201.1C155.1,201.1 153.3,203.1 153.3,205.6C153.2,208.1 155,210.1 157.6,210.1M157.6,198.4C161.7,198.4 164.7,201.5 164.7,205.6C164.7,209.7 161.7,212.8 157.6,212.8C153.5,212.8 150.5,209.7 150.5,205.6C150.5,201.5 153.5,198.4 157.6,198.4M144.8,203C144,201.9 142.5,201 140.9,201C138.2,201 136.5,203.1 136.5,205.5C136.5,208 138.4,210 141.1,210C142.5,210 143.9,209.3 144.9,208L144.8,203ZM144.9,211.2C143.8,212.2 142.3,212.8 140.7,212.8C139.5,212.8 138.2,212.5 137.2,211.9C135.1,210.7 133.7,208.4 133.7,205.6C133.7,202.8 135.2,200.5 137.2,199.3C138.1,198.7 139.3,198.4 140.6,198.4C142.1,198.4 143.6,198.9 144.8,199.9L144.8,191.7L147.6,191.7L147.6,212.4L144.9,212.4L144.9,211.2ZM120.7,200C121.4,199.3 122.8,198.4 124.8,198.4C126.8,198.4 128.6,199.3 129.8,200.8C130.7,201.9 131.1,203.3 131.1,205.7L131.1,212.4L128.3,212.4L128.3,205.5C128.3,203.7 128,202.9 127.5,202.3C126.9,201.5 125.8,201 124.7,201C122.9,201 121.6,202 120.7,203L120.7,212.4L118,212.4L118,198.7L120.7,198.7L120.7,200ZM108.1,210.1C110.6,210.1 112.4,208.1 112.4,205.6C112.4,203.1 110.6,201.1 108.1,201.1C105.6,201.1 103.8,203.1 103.8,205.6C103.8,208.1 105.6,210.1 108.1,210.1M108.1,198.4C112.2,198.4 115.2,201.5 115.2,205.6C115.2,209.7 112.2,212.8 108.1,212.8C104,212.8 101,209.7 101,205.6C101,201.5 104,198.4 108.1,198.4M90.7,209.7L99.7,209.7L99.7,212.5L87.8,212.5L87.8,192.1L90.7,192.1L90.7,209.7ZM246.6,172L256.5,172L251.5,160.1L246.6,172ZM258.3,176.4L244.8,176.4L241.4,184.7L236.6,184.7L249.9,152.6L253.1,152.6L266.4,184.7L261.6,184.7L258.3,176.4ZM229.6,184.6L234.2,184.6L234.2,152.5L229.6,152.5L229.6,184.6ZM215.5,166C217.7,166 218.9,165.4 219.7,164.6C220.5,163.8 221,162.7 221,161.4C221,160.2 220.5,159 219.7,158.2C218.9,157.3 217.7,156.8 215.5,156.8L208.1,156.8L208.1,165.9L215.5,166ZM208.1,170.4L208.1,184.6L203.5,184.6L203.5,152.5L215.6,152.5C218.7,152.5 220.8,153.3 222.3,154.6C224.2,156.3 225.5,158.7 225.5,161.5C225.5,164.3 224.3,166.7 222.3,168.4C220.7,169.7 218.7,170.5 215.6,170.5L208.1,170.5L208.1,170.4ZM185,177.8L181.7,177.8L172.3,163.1L172.3,184.7L167.8,184.7L167.8,152.6L171,152.6L183.4,172.2L195.8,152.6L199,152.6L199,184.7L194.3,184.7L194.3,163L185,177.8ZM152.8,169.9L152.8,184.6L148.2,184.6L148.2,169.9L137.2,152.5L142.4,152.5L150.6,165.4L158.8,152.5L164,152.5L152.8,169.9ZM127.7,180.2L141.9,180.2L141.9,184.6L123.1,184.6L123.1,152.5L127.7,152.5L127.7,180.2ZM102.6,180.7C109.2,180.7 114,175.5 114,168.6C114,161.6 109.1,156.5 102.6,156.5C96,156.5 91.2,161.8 91.2,168.6C91.1,175.6 96,180.7 102.6,180.7ZM102.6,152C111.6,152 118.7,159.2 118.7,168.5C118.7,177.8 111.7,185 102.6,185C93.5,185 86.5,177.8 86.5,168.5C86.5,159.2 93.5,152 102.6,152Z" style="fill:rgb(102,205,214);fill-rule:nonzero;"/>
    </g>
    <defs>
        <linearGradient id="_Linear1" x1="0" y1="0" x2="1" y2="0" gradientUnits="userSpaceOnUse" gradientTransform="matrix(5.3789e-15,87.8441,-87.8441,5.3789e-15,177.006,52.1535)"><stop offset="0" style="stop-color:rgb(0,171,189);stop-opacity:1"/><stop offset="0.74" style="stop-color:rgb(195,177,214);stop-opacity:1"/><stop offset="1" style="stop-color:rgb(195,177,214);stop-opacity:0"/></linearGradient>
    </defs>
</svg>
