<?xml version="1.0" encoding="UTF-8" standalone="no"?>
<!DOCTYPE svg PUBLIC "-//W3C//DTD SVG 1.1//EN" "http://www.w3.org/Graphics/SVG/1.1/DTD/svg11.dtd">
<svg width="100%" height="100%" viewBox="0 0 300 100" version="1.1" xmlns="http://www.w3.org/2000/svg" xmlns:xlink="http://www.w3.org/1999/xlink" xml:space="preserve" xmlns:serif="http://www.serif.com/" style="fill-rule:evenodd;clip-rule:evenodd;stroke-linejoin:round;stroke-miterlimit:2;">
    <g transform="matrix(3.33965,0,0,3.33965,-7.29791,1.47467)">
        <g id="path2224" transform="matrix(1,0,0,1,0,-41.874)">
            <path d="M11.962,46.333L3.646,46.333L3.646,66.429L8.276,66.429L8.276,60.099L11.962,60.099C15.779,60.099 18.444,57.258 18.444,53.189C18.444,49.152 15.779,46.333 11.962,46.333M10.931,56.186L8.276,56.186L8.276,50.248L11.017,50.248C12.713,50.248 13.727,51.347 13.727,53.189C13.727,55.066 12.682,56.186 10.931,56.186" style="fill-rule:nonzero;"/>
        </g>
        <g id="path2228" transform="matrix(1,0,0,1,0,-41.874)">
            <path d="M43.422,45.99C37.424,45.99 32.902,50.402 32.902,56.252C32.902,56.321 32.905,56.389 32.905,56.457L31.425,56.457L31.425,54.937L27.399,54.937L27.399,56.457L25.548,56.457C24.487,56.457 24.012,55.731 24.012,55.01C24.012,53.86 24.921,53.452 25.773,53.452C26.224,53.452 26.619,53.538 26.622,53.539L26.708,53.558L27.653,50.32L27.557,50.297C27.546,50.296 26.395,50.027 25.236,50.027C22.644,50.027 19.874,51.184 19.874,54.43C19.874,56.647 21.243,57.629 21.675,57.884C20.191,58.558 19.204,60.085 19.204,61.73C19.204,64.664 21.685,66.713 25.236,66.713C28.938,66.713 31.425,64.594 31.425,61.44L31.425,59.994L33.537,59.994C34.983,64.034 38.755,66.772 43.422,66.772C49.419,66.772 53.942,62.249 53.942,56.252C53.942,50.402 49.419,45.991 43.422,45.991M27.399,61.217C27.399,62.303 26.57,62.977 25.236,62.977C24.217,62.977 23.387,62.307 23.387,61.485C23.387,60.187 24.588,59.994 25.304,59.994L27.399,59.994L27.399,61.217ZM43.422,62.572C40.215,62.572 37.703,59.796 37.703,56.252C37.703,52.853 40.215,50.19 43.422,50.19C46.629,50.19 49.141,52.853 49.141,56.252C49.141,59.796 46.629,62.572 43.422,62.572" style="fill-rule:nonzero;"/>
        </g>
        <g id="path2298" transform="matrix(0.764003,0,0,-0.764003,-331.059,79.4821)">
            <path d="M539.28,90.96C536.756,89.005 534.375,87.789 531.606,86.386C531.182,86.165 530.732,85.936 530.302,85.715C532.684,83.636 535.242,81.483 538.96,79.172C545.299,75.23 552.423,73.348 552.605,73.301C551.211,75.117 548.482,79.279 546.629,85.056C544.949,90.273 544.165,95.804 544.143,95.953C544.108,95.885 542.895,93.764 539.28,90.96" style="fill:url(#_Linear1);fill-rule:nonzero;"/>
        </g>
        <g id="path2310" transform="matrix(0.764003,0,0,-0.764003,74.0933,13.9952)">
            <path d="M0,0C-0.308,0.266 -0.625,0.546 -0.938,0.816C-3.651,3.205 -6.215,5.459 -10.088,7.717C-16.564,11.511 -22.696,12.349 -22.769,12.353C-22.493,12.432 -18.211,13.287 -11.944,12.758C-5.75,12.229 -1.096,9.571 5.825,9.23C10.528,8.994 13.685,10.174 13.841,10.238C13.806,10.17 12.594,8.048 8.978,5.244C6.454,3.29 4.073,2.074 1.304,0.671C0.826,0.421 0.374,0.191 0,0" style="fill:white;fill-rule:nonzero;"/>
        </g>
        <g id="path2336" transform="matrix(0.764003,0,0,-0.764003,-331.059,79.4821)">
            <path d="M521.563,80.556C515.299,76.264 513.164,71.52 513.124,71.385C514.016,71.671 517.982,73.934 524.175,74.141C527.566,74.252 530.494,73.764 533.536,73.275C536.425,72.811 539.418,72.347 543.006,72.397C547.361,72.453 551.745,72.965 552.605,73.301C552.423,73.348 545.299,75.23 538.96,79.172C535.242,81.483 532.684,83.636 530.302,85.715C527.811,84.442 524.993,82.909 521.563,80.556" style="fill:url(#_Linear2);fill-rule:nonzero;"/>
        </g>
        <g id="path2356" transform="matrix(0.764003,0,0,-0.764003,-331.059,79.4821)">
            <path d="M513.124,71.385C513.164,71.52 515.299,76.264 521.563,80.556C524.993,82.909 527.811,84.442 530.302,85.715C529.994,85.982 529.677,86.261 529.364,86.531C526.651,88.921 524.087,91.174 520.214,93.432C513.738,97.226 507.606,98.064 507.533,98.068L513.124,71.385Z" style="fill:url(#_Linear3);fill-rule:nonzero;"/>
        </g>
        <g id="path2382" transform="matrix(0.764003,0,0,-0.764003,-331.059,79.4821)">
            <path d="M507.533,98.068C507.606,98.064 513.738,97.226 520.214,93.432C524.087,91.174 526.651,88.921 529.364,86.531C529.677,86.261 529.994,85.982 530.302,85.715C530.676,85.907 531.128,86.136 531.606,86.386C534.375,87.789 536.756,89.005 539.28,90.96C542.895,93.764 544.108,95.885 544.143,95.953C543.987,95.89 540.83,94.71 536.127,94.945C529.206,95.287 524.551,97.943 518.358,98.473C516.892,98.597 515.536,98.645 514.313,98.645C510.308,98.645 507.744,98.129 507.533,98.068" style="fill:url(#_Linear4);fill-rule:nonzero;"/>
        </g>
    </g>
    <defs>
        <linearGradient id="_Linear1" x1="0" y1="0" x2="1" y2="0" gradientUnits="userSpaceOnUse" gradientTransform="matrix(18.0597,3.18441,-3.18441,18.0597,528.862,93.8786)"><stop offset="0" style="stop-color:rgb(237,28,36);stop-opacity:1"/><stop offset="0.7" style="stop-color:rgb(196,22,29);stop-opacity:1"/><stop offset="1" style="stop-color:rgb(196,22,29);stop-opacity:1"/></linearGradient>
        <linearGradient id="_Linear2" x1="0" y1="0" x2="1" y2="0" gradientUnits="userSpaceOnUse" gradientTransform="matrix(35.9042,6.33087,-6.33087,35.9042,511.086,82.947)"><stop offset="0" style="stop-color:rgb(250,178,11);stop-opacity:1"/><stop offset="0.5" style="stop-color:rgb(253,221,16);stop-opacity:1"/><stop offset="0.5" style="stop-color:rgb(253,221,16);stop-opacity:1"/><stop offset="0.8" style="stop-color:rgb(250,178,11);stop-opacity:1"/><stop offset="1" style="stop-color:rgb(250,178,11);stop-opacity:1"/></linearGradient>
        <linearGradient id="_Linear3" x1="0" y1="0" x2="1" y2="0" gradientUnits="userSpaceOnUse" gradientTransform="matrix(19.9699,3.52123,-3.52123,19.9699,507.427,98.6698)"><stop offset="0" style="stop-color:rgb(37,74,165);stop-opacity:1"/><stop offset="1" style="stop-color:rgb(23,111,193);stop-opacity:1"/></linearGradient>
        <linearGradient id="_Linear4" x1="0" y1="0" x2="1" y2="0" gradientUnits="userSpaceOnUse" gradientTransform="matrix(35.1438,6.1968,-6.1968,35.1438,507.405,98.7963)"><stop offset="0" style="stop-color:rgb(200,199,199);stop-opacity:1"/><stop offset="0.5" style="stop-color:rgb(233,233,233);stop-opacity:1"/><stop offset="0.5" style="stop-color:rgb(233,233,233);stop-opacity:1"/><stop offset="0.8" style="stop-color:rgb(200,199,199);stop-opacity:1"/><stop offset="1" style="stop-color:rgb(200,199,199);stop-opacity:1"/></linearGradient>
    </defs>
</svg>
