<?xml version="1.0" encoding="UTF-8" standalone="no"?>
<!DOCTYPE svg PUBLIC "-//W3C//DTD SVG 1.1//EN" "http://www.w3.org/Graphics/SVG/1.1/DTD/svg11.dtd">
<svg width="100%" height="100%" viewBox="0 0 300 100" version="1.1" xmlns="http://www.w3.org/2000/svg" xmlns:xlink="http://www.w3.org/1999/xlink" xml:space="preserve" xmlns:serif="http://www.serif.com/" style="fill-rule:evenodd;clip-rule:evenodd;stroke-linejoin:round;stroke-miterlimit:2;">
    <path d="M124.191,68.476L113.39,68.476L106.261,43.69L96.864,68.476L96.821,68.613C93.143,80.248 86.052,84.601 75.961,82.552L77.398,73.837C82.93,75.318 85.867,73.506 86.269,68.476L71.965,32.69L81.752,32.69L91.448,56.947L100.645,32.69L112.373,32.69L119.508,57.499L126.643,32.69L135.661,32.69L142.831,57.619L150,32.69L159.275,32.69L148.984,68.476L138.113,68.476L131.152,44.272L124.191,68.476ZM12.464,81.857L3.418,81.857L3.418,32.69L12.464,32.69L12.464,36.809C20.279,29.754 28.24,29.306 36.4,37.894C40.471,42.178 40.965,54.612 36.4,62.832C32.043,70.677 19.646,71.17 12.464,64.808L12.464,81.857ZM296.398,68.584L287.351,68.584L287.351,64.464C279.537,71.52 271.576,71.968 263.415,63.38C259.344,59.095 258.85,46.661 263.415,38.441C267.772,30.596 280.169,30.103 287.351,36.466L287.351,19.417L296.398,19.417L296.398,68.584ZM73.626,68.476L64.579,68.476L64.579,64.98C55.519,73.096 40.882,69.246 40.852,57.367C40.821,44.98 57.591,42.473 64.579,50.028L64.579,44.604C64.052,39.117 53.57,37.007 46.455,43.507L42.59,37.476C51.894,28.379 73.689,29.11 73.626,44.604L73.626,68.476ZM236.626,68.476L227.579,68.476L227.579,64.98C218.519,73.096 203.882,69.246 203.852,57.367C203.821,44.98 220.591,42.473 227.579,50.028L227.579,44.604C227.052,39.117 216.57,37.007 209.455,43.507L205.59,37.476C214.894,28.379 236.689,29.11 236.626,44.604L236.626,68.476ZM161.579,32.69L170.626,32.69L170.626,68.476L161.579,68.476L161.579,32.69ZM248.241,68.476L239.194,68.476L239.194,32.69L248.241,32.69L248.241,37.34C251.737,34.063 255.547,31.727 260.089,31.58L260.089,40.524C255.162,40.181 251.318,41.844 248.241,44.927L248.241,68.476ZM201.761,68.476L172.577,68.476L172.577,61.336L188.813,40.6L172.577,40.6L172.577,32.69L201.761,32.69L201.761,39.353L185.697,60.398L201.761,60.398L201.761,68.476ZM64.13,55.004L64.13,60.023C59.72,64.654 50.365,63.569 50.223,57.52C50.081,51.469 59.338,50.74 64.13,55.004ZM227.13,55.004L227.13,60.023C222.72,64.654 213.365,63.569 213.223,57.52C213.081,51.469 222.338,50.74 227.13,55.004ZM286.79,57.103L286.79,44C278.344,35.947 269.984,42.408 269.962,50.938C270.68,61.451 279.874,64.333 286.79,57.103ZM13.026,44.171L13.026,57.273C21.471,65.327 29.832,58.866 29.854,50.335C29.136,39.822 19.942,36.941 13.026,44.171Z" style="fill:rgb(0,179,181);"/>
    <g transform="matrix(1,0,0,1,-1.34817,-0.576242)">
        <circle cx="167.23" cy="23.753" r="5.822" style="fill:rgb(202,26,134);"/>
    </g>
</svg>
