<?xml version="1.0" encoding="UTF-8" standalone="no"?>
<!DOCTYPE svg PUBLIC "-//W3C//DTD SVG 1.1//EN" "http://www.w3.org/Graphics/SVG/1.1/DTD/svg11.dtd">
<svg width="100%" height="100%" viewBox="0 0 300 100" version="1.1" xmlns="http://www.w3.org/2000/svg" xmlns:xlink="http://www.w3.org/1999/xlink" xml:space="preserve" xmlns:serif="http://www.serif.com/" style="fill-rule:evenodd;clip-rule:evenodd;stroke-linejoin:round;stroke-miterlimit:2;">
    <rect x="4.87" y="20.267" width="4.344" height="77.118" style="fill:rgb(233,53,133);"/>
    <g transform="matrix(1,0,0,1,7.25832,0)">
        <rect x="4.87" y="20.267" width="4.344" height="77.118" style="fill:rgb(235,85,74);"/>
    </g>
    <g transform="matrix(1,0,0,1,14.5166,0)">
        <rect x="4.87" y="20.267" width="4.344" height="77.118" style="fill:rgb(136,59,132);"/>
    </g>
    <g transform="matrix(1,0,0,1,136.794,-17.6517)">
        <rect x="4.87" y="20.267" width="4.344" height="77.118" style="fill:rgb(11,178,170);"/>
    </g>
    <g transform="matrix(1,0,0,1,144.052,-17.6517)">
        <rect x="4.87" y="20.267" width="4.344" height="77.118" style="fill:rgb(0,155,219);"/>
    </g>
    <g transform="matrix(1,0,0,1,151.31,-17.6517)">
        <rect x="4.87" y="20.267" width="4.344" height="77.118" style="fill:rgb(0,72,148);"/>
    </g>
    <g transform="matrix(1,0,0,1,206.4,-17.6517)">
        <rect x="4.87" y="20.267" width="4.344" height="77.118" style="fill:rgb(0,155,219);"/>
    </g>
    <g transform="matrix(1,0,0,1,213.658,-17.6517)">
        <rect x="4.87" y="20.267" width="4.344" height="77.118" style="fill:rgb(235,85,74);"/>
    </g>
    <g transform="matrix(1,0,0,1,220.917,-17.6517)">
        <rect x="4.87" y="20.267" width="4.344" height="77.118" style="fill:rgb(0,74,148);"/>
    </g>
    <g transform="matrix(0.949505,0,0,0.949505,-3.6415,-3.14276)">
        <path d="M115.223,22.116C133.907,22.116 149.076,37.285 149.076,55.969C149.076,74.653 133.907,89.822 115.223,89.822C96.539,89.822 81.37,74.653 81.37,55.969C81.37,37.285 96.539,22.116 115.223,22.116ZM115.223,26.117C131.699,26.117 145.075,39.493 145.075,55.969C145.075,72.444 131.699,85.82 115.223,85.82C98.748,85.82 85.372,72.444 85.372,55.969C85.372,39.493 98.748,26.117 115.223,26.117Z" style="fill:rgb(233,53,133);"/>
    </g>
    <g transform="matrix(0.729747,0,0,0.729747,21.6797,9.15684)">
        <path d="M115.223,22.116C133.907,22.116 149.076,37.285 149.076,55.969C149.076,74.653 133.907,89.822 115.223,89.822C96.539,89.822 81.37,74.653 81.37,55.969C81.37,37.285 96.539,22.116 115.223,22.116ZM115.223,26.922C131.255,26.922 144.27,39.938 144.27,55.969C144.27,72 131.255,85.016 115.223,85.016C99.192,85.016 86.176,72 86.176,55.969C86.176,39.938 99.192,26.922 115.223,26.922Z" style="fill:rgb(248,165,53);"/>
    </g>
    <g transform="matrix(0.496573,0,0,0.496573,48.5467,22.2073)">
        <path d="M115.223,22.116C133.907,22.116 149.076,37.285 149.076,55.969C149.076,74.653 133.907,89.822 115.223,89.822C96.539,89.822 81.37,74.653 81.37,55.969C81.37,37.285 96.539,22.116 115.223,22.116ZM115.223,28.021C130.648,28.021 143.171,40.544 143.171,55.969C143.171,71.394 130.648,83.917 115.223,83.917C99.798,83.917 87.276,71.394 87.276,55.969C87.276,40.544 99.798,28.021 115.223,28.021Z" style="fill:rgb(0,72,148);"/>
    </g>
    <path d="M164.145,36.755C166.999,34.522 170.592,33.19 174.493,33.19C183.771,33.19 191.304,40.722 191.304,50C191.304,59.278 183.771,66.81 174.493,66.81C170.592,66.81 166.999,65.478 164.145,63.245L164.145,59.244C166.687,62.087 170.383,63.878 174.493,63.878C182.153,63.878 188.371,57.66 188.371,50C188.371,42.34 182.153,36.122 174.493,36.122C170.383,36.122 166.687,37.913 164.145,40.756L164.145,36.755Z" style="fill:rgb(233,53,133);"/>
    <path d="M164.145,27.565C167.293,26.109 170.799,25.296 174.493,25.296C188.128,25.296 199.198,36.365 199.198,50C199.198,63.635 188.128,74.704 174.493,74.704C170.799,74.704 167.293,73.891 164.145,72.435L164.145,68.5C167.206,70.217 170.736,71.197 174.493,71.197C186.192,71.197 195.69,61.699 195.69,50C195.69,38.301 186.192,28.803 174.493,28.803C170.736,28.803 167.206,29.783 164.145,31.5L164.145,27.565Z" style="fill:rgb(0,155,219);"/>
    <path d="M164.145,19.561C167.393,18.456 170.874,17.856 174.493,17.856C192.234,17.856 206.637,32.259 206.637,50C206.637,67.741 192.234,82.144 174.493,82.144C170.874,82.144 167.393,81.544 164.145,80.439L164.145,76.393C167.352,77.652 170.842,78.344 174.493,78.344C190.137,78.344 202.838,65.644 202.838,50C202.838,34.356 190.137,21.656 174.493,21.656C170.842,21.656 167.352,22.348 164.145,23.607L164.145,19.561Z" style="fill:rgb(136,59,132);"/>
    <g transform="matrix(1,0,0,1,-137.327,0)">
        <path d="M164.145,36.755C166.999,34.522 170.592,33.19 174.493,33.19C183.771,33.19 191.304,40.722 191.304,50C191.304,59.278 183.771,66.81 174.493,66.81C170.592,66.81 166.999,65.478 164.145,63.245L164.145,59.244C166.687,62.087 170.383,63.878 174.493,63.878C182.153,63.878 188.371,57.66 188.371,50C188.371,42.34 182.153,36.122 174.493,36.122C170.383,36.122 166.687,37.913 164.145,40.756L164.145,36.755Z" style="fill:rgb(0,155,219);"/>
    </g>
    <g transform="matrix(1,0,0,1,-137.327,0)">
        <path d="M164.145,27.565C167.293,26.109 170.799,25.296 174.493,25.296C188.128,25.296 199.198,36.365 199.198,50C199.198,63.635 188.128,74.704 174.493,74.704C170.799,74.704 167.293,73.891 164.145,72.435L164.145,68.5C167.206,70.217 170.736,71.197 174.493,71.197C186.192,71.197 195.69,61.699 195.69,50C195.69,38.301 186.192,28.803 174.493,28.803C170.736,28.803 167.206,29.783 164.145,31.5L164.145,27.565Z" style="fill:rgb(11,178,170);"/>
    </g>
    <g transform="matrix(1,0,0,1,-137.327,0)">
        <path d="M164.145,19.561C167.393,18.456 170.874,17.856 174.493,17.856C192.234,17.856 206.637,32.259 206.637,50C206.637,67.741 192.234,82.144 174.493,82.144C170.874,82.144 167.393,81.544 164.145,80.439L164.145,76.393C167.352,77.652 170.842,78.344 174.493,78.344C190.137,78.344 202.838,65.644 202.838,50C202.838,34.356 190.137,21.656 174.493,21.656C170.842,21.656 167.352,22.348 164.145,23.607L164.145,19.561Z" style="fill:rgb(0,72,148);"/>
    </g>
</svg>
