<?xml version="1.0" encoding="UTF-8" standalone="no"?>
<!DOCTYPE svg PUBLIC "-//W3C//DTD SVG 1.1//EN" "http://www.w3.org/Graphics/SVG/1.1/DTD/svg11.dtd">
<svg width="100%" height="100%" viewBox="0 0 300 100" version="1.1" xmlns="http://www.w3.org/2000/svg" xmlns:xlink="http://www.w3.org/1999/xlink" xml:space="preserve" xmlns:serif="http://www.serif.com/" style="fill-rule:evenodd;clip-rule:evenodd;stroke-linejoin:round;stroke-miterlimit:2;">
    <g transform="matrix(1.42822,0,0,1.42822,-38.1143,-20.4874)">
        <g transform="matrix(31.8342,0,0,31.8342,84.407,48.6685)">
            <path d="M0.637,-0.254C0.637,-0.206 0.626,-0.161 0.604,-0.12C0.582,-0.078 0.552,-0.045 0.513,-0.021C0.475,0.003 0.433,0.015 0.386,0.015C0.318,0.015 0.257,-0.011 0.206,-0.064L0.206,0.14L0.306,0.14L0.306,0.23L0.012,0.23L0.012,0.14L0.105,0.14L0.105,-0.423L0.019,-0.423L0.019,-0.513L0.206,-0.513L0.206,-0.431C0.231,-0.461 0.259,-0.483 0.29,-0.498C0.321,-0.513 0.353,-0.52 0.388,-0.52C0.437,-0.52 0.48,-0.508 0.518,-0.484C0.555,-0.46 0.585,-0.428 0.606,-0.387C0.627,-0.347 0.637,-0.302 0.637,-0.254ZM0.385,-0.077C0.413,-0.077 0.438,-0.085 0.46,-0.102C0.483,-0.118 0.5,-0.14 0.513,-0.168C0.526,-0.196 0.532,-0.226 0.532,-0.257C0.532,-0.288 0.525,-0.317 0.511,-0.344C0.497,-0.371 0.478,-0.392 0.454,-0.407C0.429,-0.423 0.402,-0.431 0.371,-0.431C0.339,-0.431 0.311,-0.423 0.285,-0.406C0.26,-0.389 0.24,-0.367 0.226,-0.339C0.212,-0.312 0.205,-0.281 0.205,-0.248C0.205,-0.195 0.222,-0.153 0.256,-0.123C0.289,-0.092 0.332,-0.077 0.385,-0.077Z" style="fill:rgb(241,39,21);fill-rule:nonzero;"/>
        </g>
        <g transform="matrix(31.8342,0,0,31.8342,105.889,48.6685)">
            <path d="M0.225,-0.206L0.225,-0.09L0.337,-0.09L0.337,0L0.022,0L0.022,-0.09L0.125,-0.09L0.125,-0.423L0.022,-0.423L0.022,-0.513L0.205,-0.513L0.205,-0.397C0.226,-0.443 0.251,-0.475 0.281,-0.493C0.312,-0.511 0.355,-0.52 0.412,-0.52L0.435,-0.52L0.435,-0.418L0.413,-0.418C0.358,-0.418 0.318,-0.411 0.291,-0.396C0.264,-0.382 0.247,-0.361 0.238,-0.332C0.229,-0.303 0.225,-0.261 0.225,-0.206Z" style="fill:rgb(241,39,21);fill-rule:nonzero;"/>
        </g>
        <g transform="matrix(31.8342,0,0,31.8342,118.402,48.6685)">
            <path d="M0.58,-0.231L0.15,-0.231C0.156,-0.182 0.175,-0.143 0.207,-0.115C0.239,-0.086 0.278,-0.072 0.324,-0.072C0.358,-0.072 0.389,-0.079 0.418,-0.093C0.447,-0.107 0.472,-0.128 0.491,-0.157L0.58,-0.117C0.552,-0.074 0.515,-0.041 0.47,-0.018C0.425,0.004 0.375,0.015 0.322,0.015C0.266,0.015 0.217,0.004 0.174,-0.02C0.131,-0.043 0.098,-0.075 0.074,-0.116C0.05,-0.158 0.038,-0.204 0.038,-0.256C0.038,-0.307 0.05,-0.354 0.073,-0.395C0.097,-0.436 0.129,-0.469 0.17,-0.492C0.211,-0.515 0.257,-0.527 0.306,-0.527C0.36,-0.527 0.407,-0.515 0.448,-0.491C0.488,-0.467 0.519,-0.433 0.542,-0.388C0.566,-0.344 0.578,-0.292 0.58,-0.231ZM0.308,-0.443C0.27,-0.443 0.237,-0.43 0.208,-0.405C0.179,-0.379 0.161,-0.345 0.153,-0.303L0.474,-0.303C0.465,-0.345 0.445,-0.379 0.414,-0.405C0.383,-0.43 0.348,-0.443 0.308,-0.443Z" style="fill:rgb(241,39,21);fill-rule:nonzero;"/>
        </g>
        <g transform="matrix(31.8342,0,0,31.8342,168.065,48.6685)">
            <path d="M0.212,-0.686C0.212,-0.669 0.206,-0.655 0.194,-0.643C0.182,-0.631 0.167,-0.625 0.151,-0.625C0.134,-0.625 0.12,-0.631 0.108,-0.643C0.097,-0.655 0.091,-0.669 0.091,-0.686C0.091,-0.703 0.097,-0.717 0.108,-0.729C0.12,-0.741 0.134,-0.747 0.151,-0.747C0.168,-0.747 0.183,-0.741 0.194,-0.729C0.206,-0.718 0.212,-0.703 0.212,-0.686ZM0.284,-0.09L0.284,0L0.025,0L0.025,-0.09L0.105,-0.09L0.105,-0.423L0.025,-0.423L0.025,-0.513L0.206,-0.513L0.206,-0.09L0.284,-0.09Z" style="fill:rgb(241,39,21);fill-rule:nonzero;"/>
        </g>
        <g transform="matrix(31.8342,0,0,31.8342,177.811,48.6685)">
            <path d="M0.268,-0.079C0.313,-0.079 0.362,-0.101 0.415,-0.145L0.415,-0.423L0.324,-0.423L0.324,-0.513L0.516,-0.513L0.516,-0.09L0.604,-0.09L0.604,0L0.415,0L0.415,-0.059C0.356,-0.014 0.299,0.009 0.246,0.009C0.198,0.009 0.162,-0.006 0.139,-0.034C0.116,-0.063 0.105,-0.11 0.105,-0.177L0.105,-0.423L0.033,-0.423L0.033,-0.513L0.206,-0.513L0.206,-0.156C0.206,-0.129 0.211,-0.11 0.22,-0.098C0.23,-0.085 0.246,-0.079 0.268,-0.079Z" style="fill:rgb(241,39,21);fill-rule:nonzero;"/>
        </g>
        <g transform="matrix(0.700171,0,0,0.700171,26.6865,14.3447)">
            <path d="M258.22,49.022L245.344,49.022L245.344,44.937L249.54,44.937L249.54,29.797L245.61,29.797L245.61,25.689L254.113,25.689L254.113,28.642C256.851,26.466 259.537,25.379 262.172,25.379C264.865,25.379 266.716,26.592 267.722,29.02C270.712,26.592 273.531,25.379 276.18,25.379C278.06,25.379 279.558,25.934 280.676,27.044C281.793,28.154 282.352,29.856 282.352,32.15L282.352,44.937L286.437,44.937L286.437,49.022L275.269,49.033L275.269,44.937L277.801,44.937L277.801,34.237C277.801,33.215 277.749,32.387 277.645,31.75C277.542,31.114 277.272,30.574 276.835,30.13C276.399,29.686 275.707,29.464 274.759,29.464C273.916,29.464 272.932,29.715 271.807,30.218C270.682,30.722 269.498,31.476 268.255,32.483L268.255,44.937L272.206,44.937L272.206,49.022L261.08,49.033L261.08,44.937L263.659,44.937L263.659,33.659C263.659,32.165 263.434,31.092 262.982,30.44C262.531,29.789 261.787,29.464 260.751,29.464C259.064,29.464 256.851,30.47 254.113,32.483L254.113,44.937L258.22,44.937L258.22,49.022Z" style="fill:rgb(241,39,21);fill-rule:nonzero;"/>
        </g>
        <g transform="matrix(0.700171,0,0,0.700171,-32.9526,14.3215)">
            <path d="M258.22,49.022L245.344,49.022L245.344,44.937L249.54,44.937L249.54,29.797L245.61,29.797L245.61,25.689L254.113,25.689L254.113,28.642C256.851,26.466 259.537,25.379 262.172,25.379C264.865,25.379 266.716,26.592 267.722,29.02C270.712,26.592 273.531,25.379 276.18,25.379C278.06,25.379 279.558,25.934 280.676,27.044C281.793,28.154 282.352,29.856 282.352,32.15L282.352,44.937L286.437,44.937L286.437,49.022L275.269,49.033L275.269,44.937L277.801,44.937L277.801,34.237C277.801,33.215 277.749,32.387 277.645,31.75C277.542,31.114 277.272,30.574 276.835,30.13C276.399,29.686 275.707,29.464 274.759,29.464C273.916,29.464 272.932,29.715 271.807,30.218C270.682,30.722 269.498,31.476 268.255,32.483L268.255,44.937L272.206,44.937L272.206,49.022L261.08,49.033L261.08,44.937L263.659,44.937L263.659,33.659C263.659,32.165 263.434,31.092 262.982,30.44C262.531,29.789 261.787,29.464 260.751,29.464C259.064,29.464 256.851,30.47 254.113,32.483L254.113,44.937L258.22,44.937L258.22,49.022Z" style="fill:rgb(241,39,21);fill-rule:nonzero;"/>
        </g>
    </g>
    <path d="M67.466,49.033C67.739,50.603 67.882,52.218 67.882,53.865C67.882,69.319 55.335,81.866 39.882,81.866C35.495,81.866 31.343,80.855 27.646,79.053C35.109,79.064 43.238,76.223 48.888,64.23C52.946,55.615 58.537,49.548 67.466,49.033Z" style="fill:rgb(10,43,112);"/>
    <path d="M13.888,64.286C12.594,61.064 11.882,57.547 11.882,53.865C11.882,50.824 12.368,47.895 13.266,45.152C21.071,55.5 31.084,60.145 42.117,51.096C53.131,42.062 55.824,40.94 64.543,40.602C65.552,42.473 66.354,44.471 66.919,46.566C59.883,47.808 53.088,49.381 48.888,57.569C40.783,73.367 23.299,76.351 13.888,64.286Z" style="fill:rgb(241,39,21);"/>
    <path d="M15.791,39.595C20.673,31.378 29.639,25.865 39.882,25.865C49.605,25.865 58.178,30.832 63.198,38.365C57.653,38.017 52.253,38.37 48.888,41.646C39.243,51.033 25.519,51.646 15.791,39.595Z" style="fill:rgb(10,43,112);"/>
    <g transform="matrix(1.6436,0,0,1.56786,-54.8006,-46.6698)">
        <g transform="matrix(21.0907,0,0,21.0907,82.9927,81.8577)">
            <path d="M0.388,-0.155C0.367,-0.095 0.33,-0.061 0.267,-0.061C0.179,-0.061 0.13,-0.138 0.13,-0.254C0.13,-0.369 0.181,-0.446 0.27,-0.446C0.344,-0.446 0.376,-0.401 0.388,-0.35L0.475,-0.35C0.469,-0.415 0.418,-0.519 0.272,-0.519C0.121,-0.519 0.04,-0.394 0.04,-0.251C0.04,-0.088 0.126,0.012 0.266,0.012C0.395,0.012 0.454,-0.068 0.475,-0.155L0.388,-0.155Z" style="fill:rgb(10,43,112);fill-rule:nonzero;"/>
        </g>
        <g transform="matrix(21.0907,0,0,21.0907,93.6646,81.8577)">
            <path d="M0.075,-0.734L0.075,0L0.163,0L0.163,-0.277C0.163,-0.383 0.203,-0.443 0.294,-0.443C0.368,-0.443 0.404,-0.395 0.404,-0.309L0.404,0L0.492,0L0.492,-0.324C0.492,-0.475 0.402,-0.519 0.321,-0.519C0.235,-0.519 0.188,-0.477 0.163,-0.432L0.163,-0.734L0.075,-0.734Z" style="fill:rgb(10,43,112);fill-rule:nonzero;"/>
        </g>
        <g transform="matrix(21.0907,0,0,21.0907,105.602,81.8577)">
            <path d="M0.278,-0.519C0.125,-0.519 0.039,-0.403 0.039,-0.253C0.039,-0.1 0.127,0.012 0.272,0.012C0.427,0.012 0.511,-0.108 0.511,-0.255C0.511,-0.414 0.419,-0.519 0.278,-0.519ZM0.274,-0.446C0.369,-0.446 0.421,-0.367 0.421,-0.253C0.421,-0.138 0.368,-0.061 0.276,-0.061C0.185,-0.061 0.129,-0.142 0.129,-0.254C0.129,-0.369 0.179,-0.446 0.274,-0.446Z" style="fill:rgb(10,43,112);fill-rule:nonzero;"/>
        </g>
        <g transform="matrix(21.0907,0,0,21.0907,117.265,81.8577)">
            <path d="M0.075,0L0.163,0L0.163,-0.507L0.075,-0.507L0.075,0ZM0.163,-0.625L0.163,-0.734L0.075,-0.734L0.075,-0.625L0.163,-0.625Z" style="fill:rgb(10,43,112);fill-rule:nonzero;"/>
        </g>
        <g transform="matrix(21.0907,0,0,21.0907,122.264,81.8577)">
            <path d="M0.388,-0.155C0.367,-0.095 0.33,-0.061 0.267,-0.061C0.179,-0.061 0.13,-0.138 0.13,-0.254C0.13,-0.369 0.181,-0.446 0.27,-0.446C0.344,-0.446 0.376,-0.401 0.388,-0.35L0.475,-0.35C0.469,-0.415 0.418,-0.519 0.272,-0.519C0.121,-0.519 0.04,-0.394 0.04,-0.251C0.04,-0.088 0.126,0.012 0.266,0.012C0.395,0.012 0.454,-0.068 0.475,-0.155L0.388,-0.155Z" style="fill:rgb(10,43,112);fill-rule:nonzero;"/>
        </g>
        <g transform="matrix(21.0907,0,0,21.0907,133.041,81.8577)">
            <path d="M0.485,-0.238C0.486,-0.251 0.486,-0.264 0.486,-0.28C0.486,-0.388 0.433,-0.519 0.269,-0.519C0.115,-0.519 0.039,-0.399 0.039,-0.248C0.039,-0.118 0.104,0.012 0.263,0.012C0.402,0.012 0.457,-0.075 0.477,-0.14L0.388,-0.14C0.372,-0.103 0.346,-0.061 0.266,-0.061C0.18,-0.061 0.128,-0.135 0.127,-0.238L0.485,-0.238ZM0.13,-0.299C0.139,-0.388 0.178,-0.45 0.268,-0.45C0.354,-0.45 0.396,-0.383 0.397,-0.299L0.13,-0.299Z" style="fill:rgb(10,43,112);fill-rule:nonzero;"/>
        </g>
    </g>
</svg>
