<?xml version="1.0" encoding="UTF-8" standalone="no"?>
<!DOCTYPE svg PUBLIC "-//W3C//DTD SVG 1.1//EN" "http://www.w3.org/Graphics/SVG/1.1/DTD/svg11.dtd">
<svg width="100%" height="100%" viewBox="0 0 300 100" version="1.1" xmlns="http://www.w3.org/2000/svg" xmlns:xlink="http://www.w3.org/1999/xlink" xml:space="preserve" xmlns:serif="http://www.serif.com/" style="fill-rule:evenodd;clip-rule:evenodd;stroke-linejoin:round;stroke-miterlimit:2;">
    <g>
        <path d="M7.88,37.727L7.88,46.113L13.983,46.113C16.299,46.113 18.175,44.236 18.175,41.921C18.175,41.92 18.175,41.919 18.175,41.919C18.175,39.603 16.299,37.727 13.983,37.727L7.88,37.727ZM7.88,60.062L1.856,60.062L1.856,32.163L14.487,32.163C19.851,32.163 24.199,36.511 24.199,41.875C24.199,41.876 24.199,41.876 24.199,41.877C24.199,47.241 19.851,51.589 14.487,51.589L7.88,51.589L7.88,60.062Z"/>
        <path d="M33.768,42.854C35.195,40.412 36.925,38.366 40.511,38.751L40.511,44.576C36.362,44.606 34.584,46.854 33.768,50L33.768,60.062L27.771,60.062L27.771,38.751L33.768,38.751L33.768,42.854Z"/>
        <g transform="matrix(1,0,0,1,114.659,0)">
            <path d="M33.768,42.854C35.195,40.412 36.925,38.366 40.511,38.751L40.511,44.576C36.362,44.606 34.584,46.854 33.768,50L33.768,60.062L27.771,60.062L27.771,38.751L33.768,38.751L33.768,42.854Z"/>
        </g>
        <path d="M48.636,51.484C49.943,56.152 55.509,57.222 59.215,53.274L62.547,56.432C60.769,59.218 57.321,60.516 53.317,60.516C47.467,60.516 42.718,55.536 42.718,49.402C42.718,43.268 47.467,38.288 53.317,38.288C59.142,38.288 63.79,41.558 63.83,51.484L48.636,51.484ZM48.727,47.734L57.825,47.626C57.825,41.842 48.727,41.95 48.727,47.734Z"/>
        <g transform="matrix(1,0,0,1,74.2193,0.00470324)">
            <path d="M48.636,51.484C49.943,56.152 55.509,57.222 59.215,53.274L62.547,56.432C60.769,59.218 57.321,60.516 53.317,60.516C47.467,60.516 42.718,55.536 42.718,49.402C42.718,43.268 47.467,38.288 53.317,38.288C59.142,38.288 63.79,41.558 63.83,51.484L48.636,51.484ZM48.727,47.734L57.825,47.626C57.825,41.842 48.727,41.95 48.727,47.734Z"/>
        </g>
        <path d="M86.968,42.024C88.603,38.811 91.826,38.404 93.845,38.462C95.381,38.507 98.077,39.317 99.083,40.323C100.089,41.329 100.654,42.694 100.654,44.117L100.654,60.062L94.623,60.062L94.623,46.601C93.044,41.96 88.248,42.946 87.502,47.526L87.464,47.474L87.464,60.062L81.433,60.062L81.433,47.015C80.005,41.906 74.952,42.815 74.184,47.526L74.184,60.062L68.152,60.062L68.152,38.751L74.184,38.751L74.184,41.43C75.975,39.554 79.167,38.355 81.297,38.454C83.428,38.553 86.092,40.094 86.968,42.024Z"/>
        <g transform="matrix(1,0,0,1,191.674,0)">
            <path d="M86.968,42.024C87.768,43.787 87.502,45.321 87.502,47.526L87.464,60.062L81.433,60.062L81.433,47.015C80.005,41.906 74.952,42.815 74.184,47.526L74.184,60.062L68.152,60.062L68.152,38.751L74.184,38.751L74.184,41.43C75.975,39.554 79.167,38.355 81.297,38.454C83.428,38.553 86.092,40.094 86.968,42.024Z"/>
        </g>
        <g>
            <rect x="106.293" y="38.751" width="5.909" height="21.311"/>
            <rect x="106.293" y="31.238" width="5.909" height="5.091"/>
        </g>
        <g transform="matrix(1,0,0,1,99.6098,0)">
            <rect x="106.293" y="38.751" width="5.909" height="21.311"/>
            <rect x="106.293" y="31.238" width="5.909" height="5.091"/>
        </g>
        <path d="M192.921,32.133L199.373,32.133L199.373,60.062L193.464,60.062L193.464,41.945L185.47,53.76L177.522,41.494L177.522,60.062L171.612,60.062L171.612,32.133L178.376,32.133L185.611,43.952L192.921,32.133Z"/>
        <path d="M216.066,43.985L216.066,38.751L218.557,38.751L218.557,33.371L224.486,33.371L224.486,38.751L229.657,38.751L229.657,43.985L224.486,43.985L224.486,53.534C224.486,55.15 227.356,55.769 229.366,54.485L229.377,59.292C223.427,61.152 218.557,60.592 218.557,55.18L218.557,43.985L216.066,43.985Z"/>
        <path d="M243.942,38.2C250.255,38.2 255.38,43.231 255.38,49.429C255.38,55.626 250.255,60.657 243.942,60.657C237.629,60.657 232.503,55.626 232.503,49.429C232.503,43.231 237.629,38.2 243.942,38.2ZM243.96,43.448C247.006,43.448 249.48,46.12 249.48,49.412C249.48,52.703 247.006,55.375 243.96,55.375C240.913,55.375 238.44,52.703 238.44,49.412C238.44,46.12 240.913,43.448 243.96,43.448Z"/>
        <rect x="82.946" y="77.232" width="2.088" height="11.514"/>
        <path d="M127.788,79.022L121.361,79.022L121.361,82.086L127.04,82.086L127.04,83.84L121.361,83.84L121.361,87.24L127.788,87.24L127.788,88.746L119.281,88.746L119.281,77.232L127.788,77.232L127.788,79.022Z"/>
        <path d="M152.907,79.022L149.24,79.022L149.24,88.746L147.377,88.746L147.377,79.022L143.737,79.022L143.737,77.232L152.907,77.232L152.907,79.022Z"/>
        <path d="M90.13,88.746L90.13,77.232L92.034,77.232L98.03,84.995L98.03,77.232L100.062,77.232L100.062,88.746L98.03,88.746L92.034,80.983L92.034,88.746L90.13,88.746Z"/>
        <path d="M103.995,77.232L106.3,77.232L109.702,85.873L113.105,77.232L115.409,77.232L110.876,88.746L108.529,88.746L103.995,77.232Z"/>
        <path d="M162.044,77.232C165.391,77.232 168.108,79.812 168.108,82.989C168.108,86.167 165.391,88.746 162.044,88.746C158.698,88.746 155.981,86.167 155.981,82.989C155.981,79.812 158.698,77.232 162.044,77.232ZM162.05,79.022C164.206,79.022 165.957,80.863 165.957,83.131C165.957,85.398 164.206,87.24 162.05,87.24C159.894,87.24 158.143,85.398 158.143,83.131C158.143,80.863 159.894,79.022 162.05,79.022Z"/>
        <path d="M173.311,77.232L178.527,77.232C179.466,77.232 180.366,77.605 181.03,78.269C181.694,78.933 182.067,79.833 182.067,80.772C182.067,80.847 182.067,80.922 182.067,80.998C182.067,81.936 181.694,82.837 181.03,83.501C180.521,84.01 179.872,84.348 179.174,84.478L179.174,84.486L182.067,88.746L179.802,88.746L177.095,84.76L174.443,84.76L174.443,88.746L172.463,88.746L172.463,77.232L173.311,77.232ZM174.443,79.022L174.443,82.989L178.523,82.989C179.314,82.708 179.88,81.952 179.88,81.065C179.88,81.065 179.88,81.064 179.88,81.064C179.88,79.936 178.966,79.022 177.838,79.022L174.443,79.022Z"/>
        <g transform="matrix(15.7419,0,0,16.0853,184.853,88.7463)">
            <path d="M0.05,-0.107L0.135,-0.193C0.149,-0.179 0.21,-0.139 0.228,-0.129C0.284,-0.101 0.331,-0.099 0.394,-0.117C0.433,-0.128 0.477,-0.163 0.474,-0.208C0.467,-0.292 0.346,-0.297 0.291,-0.313C0.168,-0.35 0.022,-0.423 0.07,-0.581C0.094,-0.662 0.167,-0.708 0.247,-0.722C0.401,-0.749 0.467,-0.729 0.585,-0.63L0.509,-0.537C0.421,-0.609 0.351,-0.624 0.266,-0.602C0.227,-0.592 0.183,-0.56 0.206,-0.515C0.229,-0.468 0.316,-0.459 0.354,-0.447C0.46,-0.414 0.58,-0.393 0.611,-0.271C0.646,-0.132 0.553,-0.017 0.417,0.006C0.28,0.029 0.149,-0.009 0.05,-0.107Z" style="fill-rule:nonzero;"/>
        </g>
        <g transform="matrix(15.7419,0,0,16.0853,130.801,88.7463)">
            <path d="M0.05,-0.107L0.135,-0.193C0.149,-0.179 0.21,-0.139 0.228,-0.129C0.284,-0.101 0.331,-0.099 0.394,-0.117C0.433,-0.128 0.477,-0.163 0.474,-0.208C0.467,-0.292 0.346,-0.297 0.291,-0.313C0.168,-0.35 0.022,-0.423 0.07,-0.581C0.094,-0.662 0.167,-0.708 0.247,-0.722C0.401,-0.749 0.467,-0.729 0.585,-0.63L0.509,-0.537C0.421,-0.609 0.351,-0.624 0.266,-0.602C0.227,-0.592 0.183,-0.56 0.206,-0.515C0.229,-0.468 0.316,-0.459 0.354,-0.447C0.46,-0.414 0.58,-0.393 0.611,-0.271C0.646,-0.132 0.553,-0.017 0.417,0.006C0.28,0.029 0.149,-0.009 0.05,-0.107Z" style="fill-rule:nonzero;"/>
        </g>
    </g>
    <g>
        <path d="M289.78,20.735L298.192,32.979C286.776,27.509 275.1,27.98 263.23,32.921L263.09,32.979L263.166,32.895C269.604,25.866 277.99,20.989 289.78,20.735Z" style="fill:rgb(0,88,160);"/>
        <path d="M287.379,17.241L287.325,17.265C280.048,17.759 273.586,21.457 267.435,26.372L280.257,6.874L287.379,17.241Z" style="fill:rgb(42,171,228);"/>
    </g>
</svg>
