<svg height="35.6" viewBox="0 0 118 35.6" width="118" xmlns="http://www.w3.org/2000/svg" xmlns:xlink="http://www.w3.org/1999/xlink"><clipPath id="a"><path d="m128.301 589.304h114.968v49.048h-114.968z"/></clipPath><g clip-path="url(#a)" transform="matrix(1.25 0 0 -1.25 -173.23 785.086)"><g fill="#ed1738"><path d="m224.671 610.213c1.821-1.008 2.786.819 3.021 1.152.193.293.143.503.036.745-1.259 2.282-2.045 4.564-2.532 7.143-.014.057-.023.116-.04.207h1.068c.206 0 .424-.002.641-.003.266.001.332-.073.383-.307.294-1.935.732-3.57 1.674-5.221.016-.034.044-.099.063-.099.032-.002.052.05.073.108.595 1.408 1.172 3.345 1.587 5.234.047.214.122.295.357.285h1.71c-2.719-11.492-6.186-11.476-7.876-11.034-.399.104-.394.15-.333.556.06.402.11.806.168 1.234" fill-rule="evenodd"/><path d="m192.015 614.119c.143-.517.279-.994.402-1.476.011-.046-.052-.135-.104-.172-.855-.594-2.072-.79-3.09-.667-1.909.229-2.896 1.729-3.01 3.397-.065.952.047 1.871.54 2.711.566.965 1.417 1.501 2.504 1.663.829.123 1.887.008 2.625-.415.091-.053.177-.114.271-.175-.143-.514-.282-1.013-.403-1.452-.369.17-.777.326-1.172.384-1.149.169-2.114-.565-2.32-1.454-.139-.612-.122-1.221.099-1.813.34-.907 1.458-1.339 2.474-1.14.439.085.813.293 1.184.609" fill-rule="evenodd"/><path d="m212.523 622.96c.639.073 1.271.145 1.934.221v-.313c0-2.729 0-5.458.001-8.188 0-.177.007-.353.019-.529.035-.563.382-.821.934-.691.11.027.215.073.359.123.071-.5.14-.995.214-1.517-.829-.314-1.654-.457-2.485-.066-.576.272-.83.792-.929 1.395-.041.249-.055.504-.055.757-.004 2.86-.002 5.72-.002 8.58 0 .068.005.136.01.228" fill-rule="evenodd"/><path d="m171.948 611.928h-1.93v7.529h1.375c.096 0 .14-.091.15-.144.047-.239.08-.479.113-.687.144.165.816 1.228 2.397.908.139-.042.187-.104.168-.263-.053-.435-.134-1.441-.145-1.518-.941.414-2.127-.283-2.127-1.054-.001-1.507-.001-4.658-.001-4.771" fill-rule="evenodd"/><path d="m201.671 614.876c-.34-.96-1.102-1.343-2.049-1.426-.302-.026-.608-.004-.95-.004v.267c0 1.114.005 2.228-.004 3.343-.002.179.056.3.183.417.653.602 1.542.709 2.202.253.342-.236.545-.575.656-.969.178-.629.18-1.265-.038-1.881m2.051 2.021c-.142.786-.466 1.481-1.078 2.004-1.139.973-2.883.959-4.072-.019-.057-.047-.116-.094-.193-.155-.028.183-.058.385-.097.586-.01.053-.054.144-.15.144 0 0-1.011.002-1.375.002v-.002-7.529-3.703c.644.069 1.269.136 1.926.206v3.347c3.225 0 4.295 1.23 4.779 2.363.378.886.429 1.814.26 2.756" fill-rule="evenodd"/><path d="m185.172 615.514c-.004.529.009 1.064-.052 1.588-.112.979-.547 1.789-1.469 2.212-1.097.503-2.178.414-3.193-.267-.124-.083-.238-.18-.347-.262-.044.133-.119.494-.125.528-.01.053-.054.144-.151.144 0 0-1.374.001-1.374 0v-7.529h1.923v4.771s-.072.885.837 1.198c.549.19 1.072.159 1.517-.25.334-.307.464-.721.468-1.164.011-1.422 0-4.555 0-4.555h1.968c0 .093.005 2.479-.002 3.586" fill-rule="evenodd"/><path d="m193.509 619.447h1.92v-4.82-2.686h-1.92v4.207" fill-rule="evenodd"/><path d="m218.822 611.933h-1.903v4.792 2.718h1.903v-3.138" fill-rule="evenodd"/><path d="m176.983 611.931h-1.914v3.64 3.868h1.914v-4.707" fill-rule="evenodd"/><path d="m216.772 621.696c.002.621.476 1.102 1.086 1.099.64 0 1.115-.477 1.113-1.114-.003-.64-.478-1.1-1.129-1.096-.614.005-1.073.481-1.07 1.111" fill-rule="evenodd"/><path d="m194.475 620.585c-.627-.002-1.11.475-1.114 1.098-.006.615.485 1.11 1.103 1.113.622.003 1.11-.48 1.114-1.102.004-.62-.481-1.107-1.103-1.109" fill-rule="evenodd"/><path d="m176.02 620.585c-.628.002-1.102.48-1.098 1.108.004.626.484 1.105 1.107 1.103.623-.003 1.102-.486 1.1-1.112-.002-.627-.48-1.101-1.109-1.099" fill-rule="evenodd"/><path d="m224.31 613.839c-.186-.097-.353-.21-.539-.274-.191-.065-.399-.106-.602-.114-.567-.02-.903.28-.973.844-.018.145-.031.291-.031.437-.003.983-.002 1.968-.001 2.952 0 .074.007.148.011.242h1.684c.153.477.239.864.393 1.531h-2.093v2.691c-.652-.064-1.283-.126-1.931-.189 0-.609-.01-6.706.017-7.882.018-.764.246-1.453.916-1.915.872-.6 2.509-.45 3.296.075.048.032.084.13.075.191-.066.47-.146.939-.222 1.411"/><path d="m208.86 614.036c-.004-.075-.045-.164-.098-.216-.503-.494-1.111-.641-1.787-.499-.345.073-.55.329-.574.658-.023.326.159.798.508.932.451.173.922.18 1.395.144.18-.014.359-.049.56-.077 0-.271.008-.705-.004-.942m1.962.15c0 .03 0 .062-.001.092-.014.976.005 1.995-.007 2.976-.012 1.074-.557 1.799-1.598 2.146-.815.272-1.65.261-2.487.116-.76-.131-1.388-.378-2.023-.834.136-.499.269-.984.407-1.488.093.059.163.103.231.148.734.486 1.46.693 2.35.642.999-.059 1.3-.6 1.141-1.571-.487 0-.966.013-1.445-.004-.709-.025-1.393-.164-2.001-.559-1.255-.815-1.253-2.856.008-3.66.734-.468 1.54-.49 2.363-.334.55.105 1.026.369 1.442.752.1-.118.184-.227.279-.325.585-.608 1.717-.556 2.347-.266l-.218 1.467c-.523-.201-.788.034-.788.702"/><path d="m165.832 616.996c-.326-.148-.66-.205-1.004-.239-.53-.049-.903.076-.942.091v3.924c.926.045 1.847.004 2.565-.678.938-.894.596-2.546-.619-3.098m1.642 4.693c-.901.558-1.911.761-2.949.79 0 0-1.612.008-2.42.003-.211-.001-.264-.106-.264-.314.006-3.33 0-10.154 0-10.24h2.041c0 .105-.001 3.081-.001 3.081s.291.001.303.001c.774.017 1.536.121 2.267.383 1.337.481 2.287 1.328 2.553 2.803.261 1.454-.281 2.718-1.53 3.493"/><path d="m162.178 606.74h.27c.527 0 .837-.181.837-.491 0-.33-.318-.519-.858-.519-.084 0-.165 0-.249.008zm0 1.24c.08.004.153.004.221.004.471 0 .753-.173.753-.463 0-.31-.266-.495-.713-.495h-.261zm1.461-1.723c0 .37-.306.596-.664.656.261.072.531.278.531.644 0 .443-.415.716-1.139.716-.165 0-.334-.009-.527-.02v-2.793c.157-.008.314-.021.495-.021.833 0 1.304.302 1.304.817"/><path d="m164.898 605.423c.238 0 .459.101.62.27l.02-.234h.266v1.996h-.338v-1.496c-.133-.161-.306-.254-.496-.254-.261 0-.487.161-.487.567v1.183h-.337v-1.227c0-.551.337-.805.752-.805"/><path d="m166.448 605.46h.338v.727 1.269h-.338v-.692"/><path d="m166.617 607.847c.141 0 .25.109.25.253 0 .141-.109.25-.25.25-.145 0-.253-.109-.253-.25 0-.144.108-.253.253-.253"/><path d="m167.885 605.423c.121 0 .241.028.338.08l-.044.266c-.065-.04-.121-.06-.202-.06-.132 0-.213.093-.213.27v2.471l-.338-.044v-2.463c0-.347.177-.52.459-.52"/><path d="m169.636 607.202c.064 0 .137 0 .213-.004v-1.24c-.128-.156-.31-.253-.515-.253-.35 0-.56.278-.56.7 0 .467.266.797.862.797m-.378-1.779c.241 0 .463.084.64.27l.024-.234h.261v2.991l-.334-.044v-.918c-.064 0-.125.004-.181.004-.813 0-1.235-.447-1.235-1.107 0-.575.33-.962.825-.962"/><path d="m171.164 607.456h-.338v-.448-1.548h.338v.412"/><path d="m170.996 607.847c.141 0 .25.109.25.253 0 .141-.109.25-.25.25-.145 0-.253-.109-.253-.25 0-.144.108-.253.253-.253"/><path d="m172.143 606.961c.129.157.306.25.491.25.261 0 .487-.162.487-.568v-1.183h.338v1.227c0 .548-.338.805-.749.805-.245 0-.458-.1-.619-.269l-.02.233h-.266v-1.996h.338"/><path d="m174.658 605.436h.27c.261 0 .426-.121.426-.313 0-.23-.225-.379-.584-.379-.354 0-.571.141-.571.366 0 .202.161.326.459.326m-.358 1.372c0 .254.209.415.43.415.233 0 .443-.161.443-.423 0-.253-.21-.41-.43-.41-.234 0-.443.157-.443.418m-.427-1.714c0-.386.342-.62.877-.62.576 0 .934.258.934.668 0 .35-.278.564-.716.564h-.23c-.161 0-.265.101-.265.229 0 .081.032.149.088.212.053-.016.109-.023.165-.023.427 0 .769.254.769.692 0 .153-.052.274-.133.367h.044.286v.273h-.68c-.084.024-.169.037-.262.037-.418 0-.769-.25-.769-.696 0-.258.122-.447.306-.556-.08-.088-.128-.193-.128-.314 0-.12.056-.225.148-.286-.269-.077-.434-.281-.434-.547"/><path d="m178.484 606.164c0-.278-.226-.442-.543-.442-.226 0-.451.08-.64.213l-.089-.29c.194-.141.443-.222.725-.222.515 0 .901.29.901.777 0 .902-1.288.733-1.288 1.373 0 .261.218.418.504.418.201 0 .394-.064.579-.189l.093.281c-.198.134-.415.206-.672.206-.496 0-.858-.277-.858-.753 0-.881 1.288-.712 1.288-1.372"/><path d="m180.163 607.207c.354 0 .656-.262.656-.757 0-.466-.302-.74-.64-.74-.35 0-.656.257-.656.756 0 .467.306.741.64.741m0-1.783c.547 0 .998.382.998 1.046 0 .648-.455 1.023-.978 1.023-.547 0-1.002-.383-1.002-1.047 0-.648.455-1.022.982-1.022"/><path d="m182.481 605.717c-.378 0-.62.289-.62.749 0 .491.294.736.616.736.161 0 .31-.052.447-.165l.084.266c-.156.12-.338.189-.559.189-.499 0-.93-.358-.93-1.047 0-.627.366-1.022.906-1.022.273 0 .495.089.676.242l-.085.269c-.152-.144-.314-.217-.535-.217"/><path d="m183.994 608.1c0 .141-.108.25-.249.25-.146 0-.254-.109-.254-.25 0-.145.108-.253.254-.253.141 0 .249.108.249.253"/><path d="m183.914 607.456h-.338v-.465-1.531h.338v.482"/><path d="m185.266 607.215c.278 0 .459-.226.463-.539h-.982c.052.338.249.539.519.539m.133-1.505c-.403 0-.644.265-.665.68v.036h1.317c.004.048.008.097.008.149 0 .564-.314.918-.785.918-.511 0-.877-.411-.877-1.047 0-.632.374-1.022.962-1.022.29 0 .531.088.732.245l-.081.266c-.18-.149-.37-.225-.611-.225"/><path d="m186.586 606.027c0-.402.209-.604.575-.604.177 0 .359.052.495.161l-.052.27c-.113-.097-.233-.141-.366-.141-.205 0-.319.117-.319.35v1.119h.653v.273h-.653v.62l-.333-.036v-.584h-.322v-.273h.322"/><path d="m189.089 605.492c.274.568.499 1.3.652 1.964h-.334c-.121-.543-.285-1.123-.519-1.686-.238.543-.467 1.131-.6 1.686h-.346c.161-.64.414-1.284.752-2.028-.189-.399-.442-.656-.72-.656-.089 0-.169.024-.241.068l-.045-.282c.077-.044.186-.072.299-.072.438 0 .804.378 1.102 1.006"/><path d="m163.08 600.798c.378 0 .672.129.926.35l-.093.286c-.225-.217-.467-.334-.789-.334-.567 0-.926.451-.926 1.139 0 .757.439 1.127.918 1.127.234 0 .463-.081.664-.25l.097.278c-.213.181-.475.27-.777.27-.672 0-1.26-.487-1.26-1.445 0-.866.495-1.421 1.24-1.421"/><path d="m164.206 600.146c-.088 0-.169.024-.241.068l-.045-.281c.077-.045.185-.073.298-.073.439 0 .805.378 1.103 1.006.274.568.499 1.3.652 1.965h-.334c-.121-.544-.286-1.123-.519-1.687-.238.543-.467 1.131-.6 1.687h-.346c.161-.64.414-1.284.752-2.029-.189-.398-.442-.656-.72-.656"/><path d="m166.75 602.335c.121.158.278.249.443.249.233 0 .443-.165.443-.567v-1.183h.333v1.223c0 .09-.004.165-.019.238.116.177.285.289.466.289.234 0 .443-.161.443-.567v-1.183h.334v1.227c0 .548-.314.805-.704.805-.27.001-.487-.136-.632-.326-.125.223-.343.327-.588.327-.225 0-.422-.1-.571-.266l-.02.229h-.266v-1.996h.338"/><path d="m171.064 601.333c-.129-.157-.31-.253-.515-.253-.35 0-.56.277-.56.7 0 .467.266.797.862.797.064 0 .137 0 .213-.005zm-1.417.427c0-.576.33-.962.826-.962.241 0 .462.084.639.269l.024-.233h.262v2.99l-.334-.044v-.918c-.065 0-.125.004-.181.004-.813 0-1.236-.446-1.236-1.106"/><path d="m172.681 602.589c.278 0 .459-.226.463-.539h-.982c.052.338.249.539.519.539m.093-1.791c.29 0 .531.089.732.245l-.081.266c-.18-.149-.37-.225-.611-.225-.403 0-.644.265-.664.68v.036h1.316c.004.048.008.097.008.149 0 .564-.314.918-.785.918-.511 0-.877-.411-.877-1.047 0-.632.374-1.022.962-1.022"/><path d="m173.997 600.834h.338v.687 1.309h-.338v-.785"/><path d="m174.166 603.724c-.145 0-.254-.109-.254-.25 0-.144.109-.253.254-.253.141 0 .249.109.249.253 0 .141-.108.25-.249.25"/><path d="m175.083 601.402c0-.402.209-.604.576-.604.177 0 .358.053.495.162l-.053.269c-.112-.097-.233-.141-.366-.141-.205 0-.318.117-.318.35v1.119h.652v.274h-.652v.688l-.334-.036v-.652h-.322v-.274h.322"/><path d="m177.896 602.017v-1.183h.338v1.227c0 .548-.338.805-.748.805-.218 0-.419-.084-.568-.221v1.179l-.338-.044v-2.946h.338v1.501c.129.157.306.25.491.25.262 0 .487-.161.487-.568"/><path d="m179.86 601.317c-.121-.149-.29-.25-.507-.25-.229 0-.366.109-.366.282 0 .185.173.302.551.302.109 0 .213-.008.322-.028zm-.33.587c-.571 0-.881-.221-.881-.571 0-.318.249-.535.64-.535.273 0 .479.104.624.257.048-.153.172-.249.366-.249.124 0 .213.04.285.084l-.04.266c-.044-.04-.096-.068-.165-.068-.109 0-.161.068-.161.205l.003.784c0 .552-.297.785-.773.785-.31 0-.571-.104-.776-.273l.08-.266c.189.157.391.254.644.254.302 0 .487-.145.487-.531l-.003-.169c-.1.019-.213.027-.33.027"/><path d="m181.196 602.335c0 .153.137.257.362.257.161 0 .318-.052.447-.139l.084.264c-.148.094-.342.146-.539.146-.418 0-.688-.221-.688-.551 0-.673.986-.52.986-.962 0-.169-.153-.282-.39-.282-.177 0-.343.053-.504.157l-.072-.266c.149-.101.362-.161.58-.161.43 0 .72.226.72.576 0 .687-.986.531-.986.961"/><path d="m184.328 601.772c.145.511.322 1.022.515 1.497.193-.475.366-.986.511-1.497zm.305 1.856c-.374-.914-.684-1.88-.881-2.794h.346c.045.214.097.431.157.649h1.18c.056-.218.108-.435.152-.649h.359c-.197.914-.507 1.88-.886 2.794"/><path d="m187.668 601.333c-.129-.157-.31-.253-.515-.253-.35 0-.56.277-.56.7 0 .467.266.797.862.797.064 0 .137 0 .213-.005zm0 1.529c-.064 0-.125.004-.181.004-.813 0-1.236-.446-1.236-1.106 0-.576.33-.962.826-.962.241 0 .462.084.639.269l.025-.233h.261v2.99l-.334-.044"/><path d="m189.285 602.589c.278 0 .459-.226.463-.539h-.981c.052.338.249.539.518.539m.133-1.505c-.402 0-.644.265-.664.68v.036h1.317c.003.048.007.097.007.149 0 .564-.313.918-.784.918-.511 0-.877-.411-.877-1.047 0-.632.374-1.022.961-1.022.29 0 .53.089.733.245l-.081.266c-.181-.149-.37-.225-.612-.225"/><path d="m190.575 600.834h.338v.372 1.624h-.338v-.453"/><path d="m190.744 603.724c-.145 0-.253-.109-.253-.25 0-.144.108-.253.253-.253.141 0 .249.109.249.253 0 .141-.108.25-.249.25"/><path d="m192.082 601.084c-.133 0-.213.092-.213.269v2.471l-.339-.044v-2.463c0-.346.178-.519.459-.519.121 0 .242.028.339.08l-.045.266c-.064-.04-.12-.06-.201-.06"/><path d="m196.231 601.333c-.129-.157-.31-.253-.515-.253-.35 0-.559.277-.559.7 0 .467.265.797.861.797.064 0 .137 0 .213-.005zm0 1.529c-.064 0-.125.004-.181.004-.813 0-1.236-.446-1.236-1.106 0-.576.331-.962.825-.962.242 0 .463.084.641.269l.024-.233h.261v2.99l-.334-.044"/><path d="m198.46 601.333c-.133-.161-.306-.253-.495-.253-.261 0-.487.161-.487.567v1.183h-.338v-1.227c0-.551.338-.805.752-.805.238 0 .459.1.62.269l.02-.233h.266v1.996h-.338"/><path d="m193.884 601.317c-.12-.149-.29-.25-.507-.25-.229 0-.366.109-.366.282 0 .185.173.302.551.302.109 0 .214-.008.322-.028zm.499-.229c-.108 0-.161.068-.161.205l.003.784c0 .552-.297.785-.772.785-.31 0-.572-.104-.777-.273l.08-.266c.19.157.391.254.645.254.301 0 .486-.145.486-.531l-.003-.169c-.1.019-.213.027-.33.027-.571 0-.881-.221-.881-.571 0-.318.249-.535.64-.535.274 0 .479.104.624.257.048-.153.173-.249.366-.249.125 0 .213.04.286.084l-.041.266c-.044-.04-.096-.068-.165-.068"/><path d="m155.183 623.929c-.004 0-.105.008-.166-.016-.08-.031-.042-.184-.042-.184s.255-1.255-.822-3.159l.002-.003c.651-1.089 1.018-2.242 1.179-3.389.859.963 1.202 1.763 1.202 1.763.004.007.008.014.012.022 2.322 4.335-1.156 4.964-1.365 4.966"/><path d="m153.644 619.772c-.081-.115-.162-.229-.253-.347-.095-.123-.198-.245-.303-.364v-.001c.473-.989.709-2.095.76-3.219.269.194.514.394.738.593v.009s-.067 1.59-.942 3.329"/><path d="m155.723 627.19c-1.526.779-2.976.75-4.574.244-.884-.28-1.654-.687-2.352-1.303-.141-.125-.277-.254-.409-.385-.058-.058-.114-.117-.17-.175-.067-.071-.134-.141-.199-.213-.073-.08-.144-.16-.213-.242-.039-.046-.077-.093-.116-.14-.556-.678-1.019-1.416-1.396-2.201-.111-.23-.215-.465-.312-.702-.049-.121-.096-.243-.142-.366-.019-.052-.035-.106-.057-.157-.091-.216-.155-.454-.224-.683-.063-.212-.121-.424-.176-.64-.015-.061-.03-.123-.045-.185-.036-.154-.071-.308-.103-.464-.015-.07-.029-.14-.043-.21-.029-.15-.055-.3-.08-.451-.012-.073-.025-.146-.036-.219-.024-.155-.045-.312-.064-.468-.009-.066-.018-.132-.026-.198-.025-.22-.047-.441-.065-.662-.022-.276-.029-.554-.043-.838-4.03.458-4.815 2.632-4.815 2.632-.401.977-.298 1.779-.119 2.308.01.046.026.138-.012.137-.043-.002-.088-.088-.103-.121-1.484-3.569 1.966-5.3 5.01-5.725-.006-.249.002-.497.002-.746-1.898.226-5.811 1.156-5.795 4.981-.003.044-.012.09-.04.084-.033-.009-.057-.075-.068-.117-.03-.134-.053-.276-.066-.427-.156-1.788.813-4.683 5.954-5.451.007-.001.014-.002.022-.004.004-.1.011-.202.02-.308.023-.267.059-.52.108-.785.03-.166.064-.331.104-.495.066-.274.151-.555.246-.821.069-.196.145-.39.229-.58.067-.151.139-.3.217-.446.094-.179.201-.361.313-.533.169-.26.37-.486.574-.721.054-.063.095-.123.157-.178.079-.069.156-.142.233-.213 0 0 1.124-1.04 2.484.173.126.113.155.14.204.198 0 0 .233.267.152.344-.17.163-.345.312-.499.493-.157.183-.3.378-.439.576-.181.259-.344.53-.488.812-.366.721-.602 1.505-.71 2.305 2.231.069 3.946.649 5.245 1.392-.015.942-.156 2.038-.572 3.104-1.112-.972-2.655-1.721-4.696-1.896.008.185.018.373.031.564v.013c.013.18.028.364.047.55.003.031.006.063.009.095.02.189.043.381.073.583.028.189.063.384.101.581.008.039.015.079.023.118.041.198.087.4.14.606.009.035.019.07.028.105.051.19.108.384.171.582.011.035.021.069.032.104.071.216.152.439.24.666.019.05.039.101.06.151.094.236.195.476.309.724.009.018.019.034.027.051.134.283.284.546.448.79.138.208.286.402.442.583.178.207.365.398.561.571.16.141.325.271.494.391.019.013.038.025.057.038.149.103.301.198.456.286.023.013.047.028.071.041.34.186.69.334 1.038.447.036.011.071.022.107.033.15.046.3.085.449.117.023.006.047.012.07.017.169.035.336.061.5.08.035.004.069.005.103.009.13.012.257.019.383.022.043 0 .086.002.128.001.154 0 .305-.006.45-.021.349-.036.675-.117.972-.237.144-.059.28-.127.411-.204.004-.003.009-.005.014-.007.658-.384 1.139-1.04 1.367-1.761.028-.088.048-.189.099-.266.033-.051.088-.094.094-.003.095 1.466-.658 3.574-2.012 4.266"/></g><path d="m152.747 612.732c-1.056-4.639-3.455-4.927-4.25-4.923-.259.002-.468.045-.618.089-.047.012-.073.007-.08-.007-.015-.036.023-.078.072-.111.725-.467 1.687-.287 1.687-.287 3.039.346 5.652 7.126 3.531 11.567-.927 1.939-2.228 3.09-3.62 3.728-.163-.245-.314-.508-.448-.791 5.428-2.55 3.726-9.265 3.726-9.265" fill="#027d66"/><path d="m140.928 621.322c-.045-.071-.072-.132-.037-.14.023-.005.054.017.08.041.381.42 1.607 1.426 4.708 1.556.223.009.424.006.616-.003.104.217.216.429.333.639-.01-.018-.251.006-.282.006-.1.002-.2.001-.3 0-.617-.009-1.234-.066-1.838-.19-.66-.136-1.308-.352-1.895-.686-.3-.171-.583-.373-.839-.607-.131-.119-.254-.247-.369-.382-.013-.015-.113-.134-.177-.234" fill="#027d66"/><path d="m142.221 623.115c-.027-.03-.085-.102-.052-.119.004-.002.009-.003.015-.003.618.379 2.435 1.321 4.87 1.122.127.191.258.379.398.562-3.342.173-4.955-1.283-5.231-1.562" fill="#027d66"/><path d="m149.912 623.37c4.468-1.995 4.674-6.927 4.674-6.927s.344-4.281-1.904-7.43c-.831-1.164-1.356-1.391-1.777-1.627 0 0-.113-.061-.063-.081.049-.02 1.341.075 2.573 1.689 1.383 1.812 3.35 7.211.74 11.573 0 0-1.129 2.185-3.683 3.373-.196-.173-.382-.364-.56-.57" fill="#027d66"/></g></svg>