<?xml version="1.0" encoding="UTF-8" standalone="no"?>
<svg
   xmlns:dc="http://purl.org/dc/elements/1.1/"
   xmlns:cc="http://creativecommons.org/ns#"
   xmlns:rdf="http://www.w3.org/1999/02/22-rdf-syntax-ns#"
   xmlns:svg="http://www.w3.org/2000/svg"
   xmlns="http://www.w3.org/2000/svg"
   id="svg1079"
   version="1.1"
   viewBox="0 0 87 51"
   height="51px"
   width="87px">
  <metadata
     id="metadata1083">
    <rdf:RDF>
      <cc:Work
         rdf:about="">
        <dc:format>image/svg+xml</dc:format>
        <dc:type
           rdf:resource="http://purl.org/dc/dcmitype/StillImage" />
        <dc:title></dc:title>
      </cc:Work>
    </rdf:RDF>
  </metadata>
  <defs
     id="defs1050">
    <polygon
       points="6.9258891 0.00956048584 6.9258891 9.08018524 0.451209406 9.08018524 0.451209406 0.00956048584 6.9258891 0.00956048584"
       id="path-1" />
    <polygon
       points="0 0.0722044312 0 8.95389578 8.84426887 8.95389578 8.84426887 0.0722044312"
       id="path-3" />
    <polygon
       points="0.390705188 9.56048584 9.25919396 9.56048584 9.25919396 0.439509192 0.390705188 0.439509192"
       id="path-5" />
  </defs>
  <g
     id="layer1" />
  <g
     style="display:inline"
     id="layer2">
    <g
       id="text1120"
       style="font-style:normal;font-variant:normal;font-weight:500;font-stretch:normal;font-size:9.99977493px;line-height:1.25;font-family:aakar;-inkscape-font-specification:'aakar Medium';letter-spacing:0px;word-spacing:0px;fill:#c45352;fill-opacity:1;stroke:none;stroke-width:0.93747884"
       aria-label="THE PRINCE AKATOKI">
      <path
         id="path1144"
         style="font-style:normal;font-variant:normal;font-weight:300;font-stretch:normal;font-size:6.24985886px;font-family:Lato;-inkscape-font-specification:'Lato Light';stroke-width:0.93747884;fill:#c45352;fill-opacity:1"
         d="M 4.738181,31.755021 V 32.02689 H 3.1850911 v 4.149906 H 2.8632234 V 32.02689 H 1.3007587 v -0.271869 z" />
      <path
         id="path1146"
         style="font-style:normal;font-variant:normal;font-weight:300;font-stretch:normal;font-size:6.24985886px;font-family:Lato;-inkscape-font-specification:'Lato Light';stroke-width:0.93747884;fill:#c45352;fill-opacity:1"
         d="M 10.402128,36.176796 H 10.08026 V 34.058094 H 7.311573 v 2.118702 H 6.989705 v -4.421775 h 0.321868 v 2.062453 h 2.768687 v -2.062453 h 0.321868 z" />
      <path
         id="path1148"
         style="font-style:normal;font-variant:normal;font-weight:300;font-stretch:normal;font-size:6.24985886px;font-family:Lato;-inkscape-font-specification:'Lato Light';stroke-width:0.93747884;fill:#c45352;fill-opacity:1"
         d="m 15.574228,31.755021 v 0.265619 h -2.328073 v 1.787459 h 1.937456 v 0.25937 h -1.937456 v 1.843708 h 2.334322 l -0.0062,0.265619 h -2.649941 v -4.421775 z" />
      <path
         id="path1150"
         style="font-style:normal;font-variant:normal;font-weight:300;font-stretch:normal;font-size:6.24985886px;font-family:Lato;-inkscape-font-specification:'Lato Light';stroke-width:0.93747884;fill:#c45352;fill-opacity:1"
         d="m 20.62822,34.395586 v 1.78121 h -0.321868 v -4.421775 h 1.143724 q 0.778108,0 1.171849,0.340617 0.396866,0.340617 0.396866,0.971853 0,0.290619 -0.109373,0.534363 -0.109372,0.243745 -0.312493,0.421866 -0.20312,0.174996 -0.493739,0.274993 -0.290618,0.09687 -0.65311,0.09687 z m 0,-0.256244 h 0.821856 q 0.290619,0 0.521863,-0.08125 0.231245,-0.08125 0.390617,-0.224995 0.162496,-0.143747 0.246869,-0.337492 0.0875,-0.196871 0.0875,-0.428116 0,-0.509363 -0.312493,-0.784357 Q 22.071937,32.00814 21.450076,32.00814 H 20.62822 Z" />
      <path
         id="path1152"
         style="font-style:normal;font-variant:normal;font-weight:300;font-stretch:normal;font-size:6.24985886px;font-family:Lato;-inkscape-font-specification:'Lato Light';stroke-width:0.93747884;fill:#c45352;fill-opacity:1"
         d="m 25.637513,34.176841 v 1.999955 h -0.321868 v -4.421775 h 1.131225 q 0.762483,0 1.140599,0.296868 0.381241,0.293743 0.381241,0.865606 0,0.253119 -0.09062,0.462489 -0.0875,0.20937 -0.253119,0.368742 -0.162496,0.156246 -0.396866,0.259369 -0.231245,0.1 -0.518738,0.131247 0.075,0.04687 0.134372,0.124997 l 1.52184,1.912457 h -0.274993 q -0.05312,0 -0.09062,-0.01563 -0.03437,-0.01875 -0.06562,-0.06562 l -1.418718,-1.79371 q -0.025,-0.03437 -0.05312,-0.05937 -0.025,-0.025 -0.05937,-0.0375 -0.03125,-0.01562 -0.07812,-0.02187 -0.04375,-0.0062 -0.109373,-0.0062 z m 0,-0.237495 h 0.765608 q 0.293743,0 0.524988,-0.06875 0.23437,-0.07187 0.393741,-0.20312 0.162496,-0.131247 0.246869,-0.315618 0.08437,-0.184371 0.08437,-0.415616 0,-0.471864 -0.309368,-0.699984 -0.306244,-0.22812 -0.896855,-0.22812 h -0.809357 z" />
      <path
         id="path1154"
         style="font-style:normal;font-variant:normal;font-weight:300;font-stretch:normal;font-size:6.24985886px;font-family:Lato;-inkscape-font-specification:'Lato Light';stroke-width:0.93747884;fill:#c45352;fill-opacity:1"
         d="m 31.129607,36.176796 h -0.321868 v -4.421775 h 0.321868 z" />
      <path
         id="path1156"
         style="font-style:normal;font-variant:normal;font-weight:300;font-stretch:normal;font-size:6.24985886px;font-family:Lato;-inkscape-font-specification:'Lato Light';stroke-width:0.93747884;fill:#c45352;fill-opacity:1"
         d="m 34.173014,31.755021 q 0.04375,0 0.06562,0.0125 0.025,0.0094 0.05312,0.04687 l 2.86556,3.831164 q -0.0094,-0.09375 -0.0094,-0.181246 v -3.709291 h 0.278119 v 4.421775 h -0.149997 q -0.04062,0 -0.06875,-0.0125 -0.025,-0.01562 -0.05,-0.05 l -2.87181,-3.834288 q 0.0094,0.09375 0.0094,0.174996 v 3.721791 h -0.281243 v -4.421775 h 0.159371 z" />
      <path
         id="path1158"
         style="font-style:normal;font-variant:normal;font-weight:300;font-stretch:normal;font-size:6.24985886px;font-family:Lato;-inkscape-font-specification:'Lato Light';stroke-width:0.93747884;fill:#c45352;fill-opacity:1"
         d="m 43.440339,35.433063 q 0.03125,0 0.05312,0.02187 l 0.124997,0.134372 q -0.137497,0.146872 -0.299993,0.265619 -0.159372,0.115623 -0.353117,0.199996 -0.190621,0.08125 -0.421866,0.124997 -0.228119,0.04687 -0.503113,0.04687 -0.459365,0 -0.843731,-0.159372 -0.381242,-0.162496 -0.656235,-0.456239 -0.274994,-0.296869 -0.428116,-0.715609 -0.149996,-0.418741 -0.149996,-0.931229 0,-0.503114 0.156246,-0.918729 0.156247,-0.415616 0.43749,-0.712484 0.281244,-0.299993 0.674985,-0.46249 0.393741,-0.165621 0.86873,-0.165621 0.453115,0 0.803107,0.140622 0.349992,0.140622 0.637486,0.396866 l -0.09687,0.140622 q -0.025,0.0375 -0.07812,0.0375 -0.0375,0 -0.121872,-0.06875 -0.08437,-0.06875 -0.23437,-0.149996 -0.149997,-0.08437 -0.374992,-0.153122 -0.22187,-0.06875 -0.534363,-0.06875 -0.399991,0 -0.734358,0.137497 -0.331243,0.137497 -0.571862,0.393741 -0.237495,0.256244 -0.371867,0.624986 -0.134372,0.368741 -0.134372,0.828106 0,0.468739 0.134372,0.837481 0.137497,0.368742 0.374992,0.624986 0.237494,0.253119 0.559362,0.390616 0.324993,0.134372 0.699984,0.134372 0.237495,0 0.421866,-0.03125 0.187496,-0.03125 0.343742,-0.09375 0.156247,-0.0625 0.290619,-0.153122 0.134372,-0.09062 0.265619,-0.212495 0.01562,-0.0125 0.03125,-0.01875 0.01563,-0.0094 0.03125,-0.0094 z" />
      <path
         id="path1160"
         style="font-style:normal;font-variant:normal;font-weight:300;font-stretch:normal;font-size:6.24985886px;font-family:Lato;-inkscape-font-specification:'Lato Light';stroke-width:0.93747884;fill:#c45352;fill-opacity:1"
         d="m 48.391174,31.755021 v 0.265619 h -2.328073 v 1.787459 h 1.937457 v 0.25937 h -1.937457 v 1.843708 h 2.334323 l -0.0063,0.265619 h -2.64994 v -4.421775 z" />
      <path
         id="path1162"
         style="font-style:normal;font-variant:normal;font-weight:300;font-stretch:normal;font-size:6.24985886px;font-family:Lato;-inkscape-font-specification:'Lato Light';stroke-width:0.93747884;fill:#c45352;fill-opacity:1"
         d="m 56.400097,36.176796 h -0.246869 q -0.04375,0 -0.07187,-0.02188 -0.02812,-0.025 -0.04375,-0.0625 L 55.51887,34.80807 h -2.171826 l -0.518738,1.284346 q -0.0125,0.03437 -0.04375,0.05937 -0.03125,0.025 -0.075,0.025 h -0.243744 l 1.809334,-4.421775 h 0.315618 z m -2.959308,-1.606214 h 1.981205 l -0.89998,-2.234324 q -0.04687,-0.109373 -0.09062,-0.262494 -0.02188,0.075 -0.04375,0.143746 -0.02188,0.06875 -0.04375,0.121873 z" />
      <path
         id="path1164"
         style="font-style:normal;font-variant:normal;font-weight:300;font-stretch:normal;font-size:6.24985886px;font-family:Lato;-inkscape-font-specification:'Lato Light';stroke-width:0.93747884;fill:#c45352;fill-opacity:1"
         d="m 58.672256,33.7956 h 0.262494 q 0.05937,0 0.103123,-0.0031 0.04375,-0.0063 0.07812,-0.01875 0.0375,-0.0125 0.06562,-0.03437 0.03125,-0.025 0.06562,-0.05937 l 1.784335,-1.834333 q 0.04687,-0.05312 0.09062,-0.07187 0.04687,-0.01875 0.109372,-0.01875 h 0.256244 l -1.931206,1.98433 q -0.05937,0.0625 -0.106248,0.09687 -0.04375,0.03437 -0.1,0.05625 0.06562,0.01875 0.118747,0.05937 0.05312,0.0375 0.106248,0.1 l 2.034329,2.124952 h -0.25937 q -0.08125,0 -0.118747,-0.01875 -0.03437,-0.02187 -0.06875,-0.06562 l -1.868708,-1.912457 q -0.03437,-0.03437 -0.06562,-0.05937 -0.02812,-0.025 -0.06562,-0.04062 -0.03437,-0.01875 -0.08437,-0.025 -0.04687,-0.0094 -0.121872,-0.0094 h -0.284369 v 2.131202 h -0.32186 v -4.421775 h 0.321868 z" />
      <path
         id="path1166"
         style="font-style:normal;font-variant:normal;font-weight:300;font-stretch:normal;font-size:6.24985886px;font-family:Lato;-inkscape-font-specification:'Lato Light';stroke-width:0.93747884;fill:#c45352;fill-opacity:1"
         d="m 67.138655,36.176796 h -0.246869 q -0.04375,0 -0.07187,-0.02188 -0.02812,-0.025 -0.04375,-0.0625 L 66.257428,34.80807 h -2.171826 l -0.518738,1.284346 q -0.0125,0.03437 -0.04375,0.05937 -0.03125,0.025 -0.075,0.025 H 63.20437 l 1.809334,-4.421775 h 0.315618 z m -2.959308,-1.606214 h 1.981205 l -0.899979,-2.234324 q -0.04687,-0.109373 -0.09062,-0.262494 -0.02188,0.075 -0.04375,0.143746 -0.02188,0.06875 -0.04375,0.121873 z" />
      <path
         id="path1168"
         style="font-style:normal;font-variant:normal;font-weight:300;font-stretch:normal;font-size:6.24985886px;font-family:Lato;-inkscape-font-specification:'Lato Light';stroke-width:0.93747884;fill:#c45352;fill-opacity:1"
         d="m 71.707317,31.755021 v 0.271869 h -1.55309 v 4.149906 H 69.83236 V 32.02689 h -1.562465 v -0.271869 z" />
      <path
         id="path1170"
         d="m 75.337891,32.861328 c -0.312493,0 -0.599095,0.05378 -0.857422,0.16211 -0.258328,0.108331 -0.480604,0.261072 -0.666016,0.458984 -0.185413,0.195829 -0.327606,0.43373 -0.429687,0.71289 -0.102081,0.277077 -0.154297,0.584253 -0.154297,0.923829 0,0.341658 0.05222,0.65248 0.154297,0.93164 0.05052,0.137126 0.11071,0.265077 0.18164,0.382813 0.08464,-0.06103 0.174958,-0.11161 0.265625,-0.164063 -0.0557,-0.09775 -0.107663,-0.200867 -0.148437,-0.314453 -0.08541,-0.245828 -0.126953,-0.525528 -0.126953,-0.835937 0,-0.308327 0.04154,-0.584251 0.126953,-0.830079 0.0875,-0.245827 0.208988,-0.45417 0.365234,-0.625 0.15833,-0.170829 0.347661,-0.301043 0.566406,-0.390624 0.218745,-0.09166 0.460163,-0.138672 0.722657,-0.138672 0.264577,0 0.505864,0.04701 0.724609,0.138672 0.218745,0.08958 0.406254,0.219795 0.5625,0.390624 0.156247,0.17083 0.275913,0.379173 0.361328,0.625 0.08541,0.245828 0.128906,0.521752 0.128906,0.830079 0,0.310409 -0.04349,0.590109 -0.128906,0.835937 -0.03557,0.101508 -0.08105,0.192388 -0.128906,0.28125 0.09213,0.0506 0.187226,0.09494 0.273437,0.154297 0.06101,-0.106542 0.117217,-0.217991 0.16211,-0.339844 0.102081,-0.27916 0.154297,-0.589982 0.154297,-0.93164 0,-0.339576 -0.05222,-0.646752 -0.154297,-0.923829 -0.102081,-0.27916 -0.246228,-0.518884 -0.431641,-0.716796 -0.185413,-0.197912 -0.407558,-0.348831 -0.667969,-0.455078 -0.258327,-0.108331 -0.542975,-0.16211 -0.855468,-0.16211 z m 0.794921,4.06836 c -0.0243,0.01136 -0.04519,0.02682 -0.07031,0.03711 -0.218745,0.08958 -0.460032,0.134765 -0.724609,0.134765 -0.262494,0 -0.503912,-0.04518 -0.722657,-0.134765 -0.01547,-0.0063 -0.0278,-0.0167 -0.04297,-0.02344 -0.109242,0.04333 -0.211024,0.0985 -0.310547,0.158203 0.0719,0.0411 0.14009,0.08615 0.21875,0.119141 0.258327,0.106247 0.544929,0.158203 0.857422,0.158203 0.312493,0 0.597141,-0.05196 0.855468,-0.158203 0.09241,-0.03844 0.174845,-0.08921 0.257813,-0.138672 -0.101925,-0.05847 -0.206705,-0.11083 -0.31836,-0.152343 z"
         style="font-style:normal;font-variant:normal;font-weight:300;font-stretch:normal;font-size:6.24985886px;font-family:Lato;-inkscape-font-specification:'Lato Light';stroke-width:0.93747884;fill:#c45352;fill-opacity:1" />
      <path
         id="path1172"
         style="font-style:normal;font-variant:normal;font-weight:300;font-stretch:normal;font-size:6.24985886px;font-family:Lato;-inkscape-font-specification:'Lato Light';stroke-width:0.93747884;fill:#c45352;fill-opacity:1"
         d="m 79.993396,33.7956 h 0.262494 q 0.05937,0 0.103122,-0.0031 0.04375,-0.0063 0.07812,-0.01875 0.0375,-0.0125 0.06562,-0.03437 0.03125,-0.025 0.06562,-0.05937 l 1.784334,-1.834333 q 0.04687,-0.05312 0.09062,-0.07187 0.04687,-0.01875 0.109373,-0.01875 h 0.256244 l -1.931206,1.98433 q -0.05937,0.0625 -0.106248,0.09687 -0.04375,0.03437 -0.1,0.05625 0.06562,0.01875 0.118748,0.05937 0.05312,0.0375 0.106247,0.1 l 2.034329,2.124952 h -0.259369 q -0.08125,0 -0.118747,-0.01875 -0.03437,-0.02187 -0.06875,-0.06562 L 80.61524,34.180002 q -0.03438,-0.03437 -0.06562,-0.05937 -0.02812,-0.025 -0.06562,-0.04062 -0.03437,-0.01875 -0.08437,-0.025 -0.04687,-0.0094 -0.121873,-0.0094 h -0.284368 v 2.131202 h -0.321868 v -4.421775 h 0.321868 z" />
      <path
         id="path1174"
         style="font-style:normal;font-variant:normal;font-weight:300;font-stretch:normal;font-size:6.24985886px;font-family:Lato;-inkscape-font-specification:'Lato Light';stroke-width:0.93747884;fill:#c45352;fill-opacity:1"
         d="m 85.479551,36.176796 h -0.321868 v -4.421775 h 0.321868 z" />
    </g>
    <g
       id="text1120-3"
       style="font-style:normal;font-variant:normal;font-weight:500;font-stretch:normal;font-size:9.99977493px;line-height:1.25;font-family:aakar;-inkscape-font-specification:'aakar Medium';letter-spacing:0px;word-spacing:0px;fill:#c45352;fill-opacity:1;stroke:none;stroke-width:0.93747884"
       aria-label="LONDON">
      <path
         id="path1177"
         style="font-style:normal;font-variant:normal;font-weight:300;font-stretch:normal;font-size:4.66666651px;font-family:Lato;-inkscape-font-specification:'Lato Light';stroke-width:0.93747884;fill:#c45352;fill-opacity:1"
         d="m 31.528312,43.538894 h 1.563333 v 0.203 h -1.803666 v -3.301667 h 0.240333 z" />
      <path
         id="path1179"
         style="font-style:normal;font-variant:normal;font-weight:300;font-stretch:normal;font-size:4.66666651px;font-family:Lato;-inkscape-font-specification:'Lato Light';stroke-width:0.93747884;fill:#c45352;fill-opacity:1"
         d="m 37.537265,42.089894 q 0,0.382666 -0.114333,0.695333 -0.114334,0.310333 -0.322,0.532 -0.207667,0.219333 -0.499333,0.340667 -0.289334,0.119 -0.639334,0.119 -0.35,0 -0.639333,-0.119 -0.289333,-0.121334 -0.497,-0.340667 -0.207667,-0.221667 -0.322,-0.532 -0.114333,-0.312667 -0.114333,-0.695333 0,-0.380333 0.114333,-0.690667 0.114333,-0.312666 0.322,-0.532 0.207667,-0.221666 0.497,-0.343 0.289333,-0.121333 0.639333,-0.121333 0.35,0 0.639334,0.121333 0.291666,0.119 0.499333,0.340667 0.207666,0.221667 0.322,0.534333 0.114333,0.310334 0.114333,0.690667 z m -0.247333,0 q 0,-0.345333 -0.09567,-0.620667 -0.09567,-0.275333 -0.270667,-0.466666 -0.175,-0.191334 -0.419999,-0.291667 -0.245,-0.102667 -0.541334,-0.102667 -0.294,0 -0.539,0.102667 -0.245,0.100333 -0.422333,0.291667 -0.175,0.191333 -0.273,0.466666 -0.09567,0.275334 -0.09567,0.620667 0,0.347666 0.09567,0.623 0.098,0.273 0.273,0.464333 0.177333,0.191333 0.422333,0.291667 0.245,0.100333 0.539,0.100333 0.296334,0 0.541334,-0.100333 0.244999,-0.100334 0.419999,-0.291667 0.175,-0.191333 0.270667,-0.464333 0.09567,-0.275334 0.09567,-0.623 z" />
      <path
         id="path1181"
         style="font-style:normal;font-variant:normal;font-weight:300;font-stretch:normal;font-size:4.66666651px;font-family:Lato;-inkscape-font-specification:'Lato Light';stroke-width:0.93747884;fill:#c45352;fill-opacity:1"
         d="m 39.442228,40.440227 q 0.03267,0 0.049,0.0093 0.01867,0.007 0.03967,0.035 l 2.139667,2.860666 q -0.007,-0.07 -0.007,-0.135333 v -2.769667 h 0.207667 v 3.301667 h -0.112 q -0.03033,0 -0.05133,-0.0093 -0.01867,-0.01167 -0.03733,-0.03733 l -2.144333,-2.863 q 0.007,0.07 0.007,0.130667 v 2.779 h -0.21 V 40.44023 h 0.119 z" />
      <path
         id="path1183"
         style="font-style:normal;font-variant:normal;font-weight:300;font-stretch:normal;font-size:4.66666651px;font-family:Lato;-inkscape-font-specification:'Lato Light';stroke-width:0.93747884;fill:#c45352;fill-opacity:1"
         d="m 46.72321,42.089894 q 0,0.382666 -0.114334,0.688333 -0.114333,0.305667 -0.322,0.520333 -0.207666,0.214667 -0.499333,0.329 -0.289333,0.114334 -0.639333,0.114334 h -1.206334 v -3.301667 h 1.206334 q 0.35,0 0.639333,0.114334 0.291667,0.114333 0.499333,0.329 0.207667,0.214666 0.322,0.520333 0.114334,0.305667 0.114334,0.686 z m -0.247334,0 q 0,-0.345333 -0.09567,-0.616 -0.09567,-0.270667 -0.270667,-0.457333 -0.175,-0.186667 -0.42,-0.284667 -0.245,-0.098 -0.541333,-0.098 h -0.966 v 2.914333 h 0.966 q 0.296333,0 0.541333,-0.098 0.245,-0.098 0.42,-0.284667 0.175,-0.186666 0.270667,-0.457333 0.09567,-0.270667 0.09567,-0.618333 z" />
      <path
         id="path1185"
         style="font-style:normal;font-variant:normal;font-weight:300;font-stretch:normal;font-size:4.66666651px;font-family:Lato;-inkscape-font-specification:'Lato Light';stroke-width:0.93747884;fill:#c45352;fill-opacity:1"
         d="m 51.44684,42.089894 q 0,0.382666 -0.114334,0.695333 -0.114333,0.310333 -0.322,0.532 -0.207666,0.219333 -0.499333,0.340667 -0.289333,0.119 -0.639333,0.119 -0.35,0 -0.639334,-0.119 -0.289333,-0.121334 -0.497,-0.340667 -0.207666,-0.221667 -0.321999,-0.532 -0.114334,-0.312667 -0.114334,-0.695333 0,-0.380333 0.114334,-0.690667 0.114333,-0.312666 0.321999,-0.532 0.207667,-0.221666 0.497,-0.343 0.289334,-0.121333 0.639334,-0.121333 0.35,0 0.639333,0.121333 0.291667,0.119 0.499333,0.340667 0.207667,0.221667 0.322,0.534333 0.114334,0.310334 0.114334,0.690667 z m -0.247334,0 q 0,-0.345333 -0.09567,-0.620667 -0.09567,-0.275333 -0.270667,-0.466666 -0.175,-0.191334 -0.42,-0.291667 -0.245,-0.102667 -0.541333,-0.102667 -0.294,0 -0.539,0.102667 -0.245,0.100333 -0.422334,0.291667 -0.175,0.191333 -0.272999,0.466666 -0.09567,0.275334 -0.09567,0.620667 0,0.347666 0.09567,0.623 0.098,0.273 0.272999,0.464333 0.177334,0.191333 0.422334,0.291667 0.245,0.100333 0.539,0.100333 0.296333,0 0.541333,-0.100333 0.245,-0.100334 0.42,-0.291667 0.175,-0.191333 0.270667,-0.464333 0.09567,-0.275334 0.09567,-0.623 z" />
      <path
         id="path1187"
         style="font-style:normal;font-variant:normal;font-weight:300;font-stretch:normal;font-size:4.66666651px;font-family:Lato;-inkscape-font-specification:'Lato Light';stroke-width:0.93747884;fill:#c45352;fill-opacity:1"
         d="m 53.482129,40.440227 q 0.03267,0 0.049,0.0093 0.01867,0.007 0.03967,0.035 l 2.139667,2.860666 q -0.007,-0.07 -0.007,-0.135333 v -2.769667 h 0.207667 v 3.301667 h -0.112 q -0.03033,0 -0.05133,-0.0093 -0.01867,-0.01167 -0.03733,-0.03733 l -2.144333,-2.863 q 0.007,0.07 0.007,0.130667 v 2.779 h -0.21 V 40.44023 h 0.119 z" />
    </g>
  </g>
  <g
     id="layer5">
    <path
       id="path1212"
       d="m 50.354031,7.6362997 c -0.94946,0.1661059 -1.902578,0.5200169 -2.867417,1.4858834 -1.540009,-0.732811 -2.967893,-0.7428594 -4.52824,-0.6843433 -3.944226,0.1479166 -7.40169,4.5156722 -6.800068,7.2250002 1.028606,4.632193 7.631231,2.403281 7.322664,-2.190614 -0.122125,-1.818164 -2.01942,-3.9776834 -3.534282,-0.666695 -0.03026,0.06612 0.154217,0.140498 0.200985,0.08481 0.404954,-0.482144 1.696211,-2.799069 2.825438,-0.148209 0.45654,1.071731 -0.664582,2.965009 -1.555619,4.158652 -0.934889,1.25239 -3.26644,1.460809 -3.883477,-0.264552 -0.883663,-2.4709 0.782009,-6.206267 3.216784,-7.1850754 2.567523,-1.032177 4.930124,-0.9243994 6.542198,-0.126793 -1.026818,1.1151664 -2.067554,2.9529414 -3.13197,6.0232014 0,0 -0.654614,2.401138 -1.256967,4.160365 -0.146171,0.426907 -0.36634,0.796002 -0.655214,1.11013 -1.24375,-0.356123 -2.417278,-0.703667 -3.355571,-0.870594 -3.085649,-0.56881 -4.956035,2.292954 -0.987618,2.603894 1.070237,0.04905 2.467071,-0.125797 3.844754,-0.871448 0.446588,0.18071 0.894124,0.366178 1.342468,0.544354 -0.657177,0.449393 -1.333726,0.8788 -2.056282,1.220473 l 0.121654,0.179909 c 0.760711,-0.360662 1.485748,-0.821064 2.198667,-1.295348 1.415686,0.548161 2.840603,0.967561 4.276194,0.730948 4.848095,-0.799067 4.646399,-3.791274 1.167185,-3.621668 -1.665458,0.05466 -3.070131,0.943571 -4.493114,1.937371 -0.50003,-0.123801 -1.000369,-0.259162 -1.494107,-0.398028 0.913768,-0.724296 1.777121,-1.754296 2.481725,-3.199137 1.486386,0.481459 4.335503,-0.438871 5.064541,-2.117106 0.351552,-0.809267 1.19858,-3.667691 -1.797554,-5.7168417 -0.138728,-0.094878 -0.276049,-0.1824677 -0.412421,-0.2647215 0.54882,-0.7961197 1.270825,-1.3867113 2.278854,-1.6375191 z m -2.37258,2.1032299 c 1.131779,0.8265804 1.692723,2.0779404 1.372624,3.5000134 -0.991124,4.403191 -3.124963,3.865224 -3.87748,3.948415 0.425221,-0.95542 0.784088,-2.078003 1.048959,-3.396692 0.374919,-1.481599 0.772651,-2.936277 1.455897,-4.0517364 z m 0.90863,9.8881734 c 2.612232,0.05679 2.577782,1.554345 -0.0598,2.005394 -1.183089,0.202316 -2.659714,-0.0159 -4.170304,-0.371128 1.351077,-0.880092 2.707717,-1.623701 4.230104,-1.634266 z M 37.648985,20.48733 c 0.08263,5.88e-4 0.168162,0.0034 0.256672,0.0084 1.139181,0 2.282996,0.370187 3.432332,0.82039 -0.663293,0.358917 -1.499914,0.576016 -2.489606,0.661211 -3.486744,0.472069 -3.760661,-1.510618 -1.199398,-1.489995 z"
       style="opacity:1;fill:#c45352;fill-opacity:1;stroke:none;stroke-width:0.08772735px;stroke-linecap:butt;stroke-linejoin:miter;stroke-opacity:1" />
  </g>
</svg>
