<?xml version="1.0" encoding="UTF-8" standalone="no"?>
<!DOCTYPE svg PUBLIC "-//W3C//DTD SVG 1.1//EN" "http://www.w3.org/Graphics/SVG/1.1/DTD/svg11.dtd">
<svg width="100%" height="100%" viewBox="0 0 300 100" version="1.1" xmlns="http://www.w3.org/2000/svg" xmlns:xlink="http://www.w3.org/1999/xlink" xml:space="preserve" xmlns:serif="http://www.serif.com/" style="fill-rule:evenodd;clip-rule:evenodd;stroke-linejoin:round;stroke-miterlimit:2;">
    <path d="M241.263,91.095L239.127,93.538C241.301,96.075 249.12,98.494 252.563,93.538C253.779,91.788 253.396,89.69 252.563,87.767C252.029,86.532 249.912,85.194 248.067,84.718C239.505,82.513 244.186,75.402 250.997,80.398L252.984,78.046C249.739,74.669 243.302,74.664 240.988,78.046C239.706,79.92 239.899,82.453 240.988,84.509C241.674,85.804 244.263,87.085 246.642,87.767C250.479,88.866 251.422,93.362 246.642,93.538C244.777,93.606 243.033,92.878 241.263,91.095ZM116.756,75.835L120.066,75.835L120.066,93.233L128.85,93.233L128.85,96.159L116.756,96.159L116.756,75.835ZM65.535,75.835L68.845,75.835L68.845,96.159L65.535,96.159L65.535,75.835ZM178.405,96.159L175.095,96.159L175.095,75.835L178.405,75.835L183.877,85.16L189.352,75.835L192.662,75.835L192.662,96.159L189.352,96.159L189.352,81.677L183.877,91.346L178.405,82.03L178.405,96.159ZM5.106,75.835L17.958,75.835L17.958,78.793L8.416,78.793L8.416,84.718L16.799,84.718L16.799,87.767L8.416,87.767L8.416,96.159L5.106,96.159L5.106,75.835ZM57.538,6.59L82.683,6.59L82.683,18.063L78.008,18.063L78.008,42.499C78.008,46.815 81.416,50.314 85.62,50.314C85.62,50.314 85.62,50.314 85.621,50.314C89.627,50.314 92.875,46.98 92.875,42.867C92.875,36.054 92.875,27.247 92.875,21.898C92.875,19.78 91.202,18.063 89.139,18.063L86.969,18.063L86.969,6.59L112.385,6.59L112.385,18.063C109.284,18.387 107.389,19.545 107.219,21.898L107.219,43.694C107.219,54.723 98.278,63.663 87.249,63.663C85.453,63.663 83.634,63.663 81.84,63.663C70.994,63.663 62.202,54.871 62.202,44.025L62.202,18.063L57.538,18.063L57.538,6.59ZM176.665,62.482L166.082,62.482L166.082,44.012L176.665,44.012C182.319,55.448 195.444,48.833 186,44C181.502,41.698 173.045,40.474 170,37C162.707,31.108 162.657,16.051 170,10C177.697,3.657 185.36,4.461 193,10L194,6.59L205.055,6.59L205.055,25.371L194.804,25.371L194.748,25.293C185.218,11.988 178.139,22.347 185,25.371C189.864,27.515 197.317,28.296 201,32C209.103,40.149 208.466,53.612 201,59C193.034,64.749 185.374,64.626 178,59L176.665,62.482ZM253.224,27.755L244.732,27.755L244.708,27.692C240.994,18.124 236.476,14.878 231.944,21.687L231.944,27.755L237.46,27.755L237.46,40.474L231.944,40.474L231.944,47.635C232.909,49.046 233.873,49.967 234.829,50.452L238.122,50.452C240.478,49.278 242.723,45.67 244.732,40.474L253.224,40.474L253.224,62.482L231.944,62.482L215.456,62.482L210.664,62.482L210.664,50.452L215.456,50.452L215.456,18.748L210.664,18.748L210.664,6.59L253.224,6.59L253.224,27.755ZM36.024,62.482L5.101,62.482L5.101,50.452L10.276,50.452L10.276,18.063L5.101,18.063L5.101,6.59L24.218,6.59C26.993,5.385 30.085,4.712 33.345,4.712C45.306,4.712 55.017,13.778 55.017,24.945C55.017,36.112 45.306,45.178 33.345,45.178C32.643,45.178 31.949,45.147 31.265,45.086L31.265,50.452L36.024,50.452L36.024,62.482ZM160.606,62.482L117.736,62.482L117.736,50.452L122.36,50.452L122.36,18.063L117.736,18.063L117.736,6.59L144.03,6.59L144.03,18.063L138.896,18.063L138.896,50.309C151.664,50.123 147.341,48.36 151.3,38.339L160.606,38.339L160.606,62.482Z"/>
</svg>
