<?xml version="1.0" encoding="UTF-8" standalone="no"?>
<!DOCTYPE svg PUBLIC "-//W3C//DTD SVG 1.1//EN" "http://www.w3.org/Graphics/SVG/1.1/DTD/svg11.dtd">
<svg width="100%" height="100%" viewBox="0 0 300 100" version="1.1" xmlns="http://www.w3.org/2000/svg" xmlns:xlink="http://www.w3.org/1999/xlink" xml:space="preserve" xmlns:serif="http://www.serif.com/" style="fill-rule:evenodd;clip-rule:evenodd;stroke-linejoin:round;stroke-miterlimit:2;">
    <path d="M50.272,18.11C67.26,18.11 81.052,31.902 81.052,48.89C81.052,65.879 67.26,79.671 50.272,79.671C33.283,79.671 19.491,65.879 19.491,48.89C19.491,31.902 33.283,18.11 50.272,18.11ZM33.595,70.9C38.23,74.419 44.009,76.508 50.272,76.508C56.534,76.508 62.313,74.419 66.948,70.9L50.272,65.496L33.595,70.9ZM31.128,28.992C25.905,34.018 22.654,41.077 22.654,48.89C22.654,56.703 25.905,63.763 31.128,68.789L31.128,28.992ZM69.415,28.992L69.415,68.789C74.638,63.763 77.889,56.703 77.889,48.89C77.889,41.077 74.638,34.018 69.415,28.992ZM50.272,34.008L50.272,63.277L66.93,68.676L66.93,29.105L50.272,34.008ZM67.015,26.932C62.369,23.382 56.565,21.273 50.272,21.273C43.979,21.273 38.174,23.382 33.528,26.932L50.272,31.86L67.015,26.932Z" style="fill:rgb(0,120,138);"/>
    <g transform="matrix(1,0,0,1,-6.635,-0.698795)">
        <g transform="matrix(0.158992,0.98728,-0.98728,0.158992,61.7429,36.0235)">
            <g transform="matrix(11.6667,0,0,11.6667,9.72703,54.2524)">
                <path d="M0.285,0C0.25,0 0.219,-0.008 0.19,-0.025C0.161,-0.042 0.137,-0.066 0.116,-0.097C0.095,-0.128 0.079,-0.166 0.068,-0.211C0.057,-0.255 0.051,-0.305 0.051,-0.36C0.051,-0.414 0.057,-0.464 0.068,-0.509C0.079,-0.554 0.095,-0.592 0.116,-0.624C0.137,-0.656 0.162,-0.681 0.191,-0.699C0.22,-0.716 0.252,-0.725 0.287,-0.725C0.322,-0.725 0.355,-0.716 0.384,-0.698C0.413,-0.68 0.437,-0.655 0.458,-0.623C0.478,-0.591 0.494,-0.553 0.505,-0.508C0.516,-0.463 0.522,-0.415 0.522,-0.362C0.522,-0.329 0.519,-0.296 0.513,-0.264C0.507,-0.232 0.499,-0.203 0.488,-0.176C0.477,-0.149 0.464,-0.126 0.45,-0.107C0.435,-0.087 0.418,-0.072 0.401,-0.063L0.401,-0.061L0.545,-0.061L0.545,0L0.285,0ZM0.449,-0.36C0.449,-0.401 0.445,-0.44 0.438,-0.477C0.431,-0.513 0.42,-0.545 0.406,-0.572C0.392,-0.599 0.375,-0.62 0.355,-0.635C0.335,-0.65 0.312,-0.658 0.287,-0.658C0.262,-0.658 0.239,-0.65 0.219,-0.635C0.198,-0.62 0.181,-0.599 0.167,-0.572C0.153,-0.545 0.142,-0.514 0.135,-0.478C0.128,-0.441 0.124,-0.402 0.124,-0.36C0.124,-0.319 0.128,-0.28 0.136,-0.244C0.143,-0.208 0.154,-0.177 0.168,-0.15C0.182,-0.123 0.199,-0.102 0.22,-0.087C0.24,-0.072 0.263,-0.064 0.288,-0.064C0.314,-0.064 0.337,-0.072 0.357,-0.089C0.377,-0.105 0.394,-0.127 0.408,-0.154C0.421,-0.181 0.432,-0.213 0.439,-0.249C0.446,-0.284 0.449,-0.321 0.449,-0.36Z" style="fill:rgb(0,120,138);fill-rule:nonzero;"/>
            </g>
        </g>
        <g transform="matrix(0.337188,0.941437,-0.941437,0.337188,66.7209,31.039)">
            <g transform="matrix(11.6667,0,0,11.6667,11.3171,62.9037)">
                <path d="M0.477,-0.248C0.477,-0.211 0.474,-0.177 0.467,-0.145C0.46,-0.112 0.448,-0.084 0.433,-0.06C0.417,-0.036 0.396,-0.017 0.37,-0.004C0.344,0.01 0.312,0.017 0.274,0.017C0.236,0.017 0.204,0.01 0.179,-0.004C0.153,-0.017 0.132,-0.036 0.117,-0.06C0.101,-0.084 0.09,-0.112 0.083,-0.145C0.076,-0.177 0.073,-0.211 0.073,-0.248L0.073,-0.708L0.143,-0.708L0.143,-0.257C0.143,-0.231 0.145,-0.205 0.149,-0.18C0.152,-0.155 0.159,-0.132 0.169,-0.113C0.178,-0.093 0.192,-0.077 0.209,-0.065C0.226,-0.053 0.248,-0.047 0.275,-0.047C0.302,-0.047 0.324,-0.053 0.341,-0.065C0.358,-0.077 0.372,-0.093 0.382,-0.113C0.391,-0.132 0.398,-0.155 0.402,-0.18C0.405,-0.204 0.407,-0.23 0.407,-0.257L0.407,-0.708L0.477,-0.708L0.477,-0.248Z" style="fill:rgb(0,120,138);fill-rule:nonzero;"/>
            </g>
        </g>
        <g transform="matrix(0.494072,0.869421,-0.869421,0.494072,68.8786,23.3212)">
            <g transform="matrix(11.6667,0,0,11.6667,14.4009,70.8434)">
                <path d="M0.384,0L0.341,-0.177L0.123,-0.177L0.078,0L0.007,0L0.187,-0.708L0.282,-0.708L0.457,0L0.384,0ZM0.235,-0.645L0.231,-0.645L0.133,-0.233L0.331,-0.233L0.235,-0.645Z" style="fill:rgb(0,120,138);fill-rule:nonzero;"/>
            </g>
        </g>
        <g transform="matrix(0.624121,0.781328,-0.781328,0.624121,67.2589,14.7752)">
            <g transform="matrix(11.6667,0,0,11.6667,18.273,77.2921)">
                <path d="M0.081,0L0.081,-0.708L0.151,-0.708L0.151,-0.065L0.353,-0.065L0.353,0L0.081,0Z" style="fill:rgb(0,120,138);fill-rule:nonzero;"/>
            </g>
        </g>
        <g transform="matrix(0.704998,0.709209,-0.709209,0.704998,64.8012,8.41861)">
            <g transform="matrix(11.6667,0,0,11.6667,22.2811,82.1031)">
                <rect x="0.081" y="-0.708" width="0.07" height="0.708" style="fill:rgb(0,120,138);fill-rule:nonzero;"/>
            </g>
        </g>
        <g transform="matrix(0.790333,0.612678,-0.612678,0.790333,57.7585,2.16921)">
            <g transform="matrix(11.6667,0,0,11.6667,25.7099,85.4739)">
                <path d="M0.15,-0.645L0.15,-0.392L0.349,-0.392L0.349,-0.331L0.15,-0.331L0.15,0L0.081,0L0.081,-0.708L0.364,-0.708L0.364,-0.645L0.15,-0.645Z" style="fill:rgb(0,120,138);fill-rule:nonzero;"/>
            </g>
        </g>
        <g transform="matrix(0.856652,0.515894,-0.515894,0.856652,50.6158,-3.23187)">
            <g transform="matrix(11.6667,0,0,11.6667,31.1235,89.4647)">
                <rect x="0.081" y="-0.708" width="0.07" height="0.708" style="fill:rgb(0,120,138);fill-rule:nonzero;"/>
            </g>
        </g>
        <g transform="matrix(0.919706,0.392607,-0.392607,0.919706,38.9207,-6.46531)">
            <g transform="matrix(11.6667,0,0,11.6667,35.2669,91.9214)">
                <path d="M0.461,-0.08C0.442,-0.049 0.419,-0.025 0.39,-0.008C0.361,0.009 0.329,0.017 0.293,0.017C0.254,0.017 0.22,0.008 0.19,-0.012C0.16,-0.031 0.135,-0.056 0.114,-0.09C0.093,-0.123 0.078,-0.162 0.067,-0.207C0.056,-0.252 0.05,-0.301 0.05,-0.354C0.05,-0.407 0.056,-0.457 0.067,-0.502C0.078,-0.547 0.094,-0.587 0.115,-0.62C0.135,-0.653 0.161,-0.678 0.191,-0.697C0.221,-0.716 0.255,-0.725 0.293,-0.725C0.326,-0.725 0.358,-0.718 0.387,-0.704C0.416,-0.69 0.44,-0.668 0.459,-0.638L0.414,-0.592C0.399,-0.615 0.381,-0.633 0.361,-0.644C0.34,-0.655 0.319,-0.661 0.296,-0.661C0.267,-0.661 0.241,-0.653 0.22,-0.637C0.198,-0.621 0.18,-0.599 0.166,-0.571C0.151,-0.543 0.141,-0.51 0.134,-0.473C0.127,-0.436 0.123,-0.396 0.123,-0.354C0.123,-0.312 0.127,-0.273 0.134,-0.236C0.141,-0.199 0.152,-0.166 0.167,-0.138C0.181,-0.11 0.199,-0.088 0.221,-0.072C0.242,-0.055 0.268,-0.047 0.297,-0.047C0.322,-0.047 0.345,-0.054 0.366,-0.069C0.387,-0.083 0.404,-0.102 0.417,-0.125L0.461,-0.08Z" style="fill:rgb(0,120,138);fill-rule:nonzero;"/>
            </g>
        </g>
        <g transform="matrix(0.970596,0.240713,-0.240713,0.970596,24.0645,-7.41925)">
            <g transform="matrix(11.6667,0,0,11.6667,42.4011,94.7922)">
                <path d="M0.384,0L0.341,-0.177L0.123,-0.177L0.078,0L0.007,0L0.187,-0.708L0.282,-0.708L0.457,0L0.384,0ZM0.235,-0.645L0.231,-0.645L0.133,-0.233L0.331,-0.233L0.235,-0.645Z" style="fill:rgb(0,120,138);fill-rule:nonzero;"/>
            </g>
        </g>
        <g transform="matrix(0.995338,0.0964482,-0.0964482,0.995338,9.52932,-4.34752)">
            <g transform="matrix(11.6667,0,0,11.6667,49.7358,96.3984)">
                <path d="M0.205,-0.648L0.205,0L0.136,0L0.136,-0.648L0,-0.648L0,-0.708L0.342,-0.708L0.342,-0.648L0.205,-0.648Z" style="fill:rgb(0,120,138);fill-rule:nonzero;"/>
            </g>
        </g>
        <g transform="matrix(0.999819,-0.0190247,0.0190247,0.999819,-1.832,1.07927)">
            <g transform="matrix(11.6667,0,0,11.6667,55.8089,96.8268)">
                <rect x="0.081" y="-0.708" width="0.07" height="0.708" style="fill:rgb(0,120,138);fill-rule:nonzero;"/>
            </g>
        </g>
        <g transform="matrix(0.986583,-0.16326,0.16326,0.986583,-14.9781,11.1958)">
            <g transform="matrix(11.6667,0,0,11.6667,60.6275,96.7264)">
                <path d="M0.519,-0.355C0.519,-0.3 0.514,-0.249 0.503,-0.204C0.492,-0.158 0.477,-0.119 0.457,-0.086C0.437,-0.053 0.413,-0.028 0.384,-0.01C0.355,0.008 0.323,0.017 0.286,0.017C0.249,0.017 0.217,0.008 0.188,-0.01C0.159,-0.028 0.134,-0.053 0.114,-0.086C0.093,-0.119 0.078,-0.158 0.067,-0.204C0.056,-0.249 0.051,-0.3 0.051,-0.355C0.051,-0.41 0.056,-0.46 0.067,-0.506C0.077,-0.551 0.092,-0.59 0.112,-0.623C0.132,-0.655 0.157,-0.68 0.186,-0.698C0.215,-0.716 0.248,-0.725 0.286,-0.725C0.323,-0.725 0.355,-0.716 0.384,-0.698C0.413,-0.68 0.437,-0.655 0.457,-0.623C0.477,-0.59 0.492,-0.551 0.503,-0.506C0.514,-0.46 0.519,-0.41 0.519,-0.355ZM0.446,-0.355C0.446,-0.398 0.443,-0.438 0.436,-0.475C0.429,-0.512 0.419,-0.545 0.406,-0.572C0.392,-0.599 0.375,-0.621 0.355,-0.637C0.335,-0.653 0.312,-0.661 0.286,-0.661C0.259,-0.661 0.235,-0.653 0.215,-0.637C0.194,-0.621 0.177,-0.599 0.164,-0.572C0.151,-0.545 0.141,-0.512 0.134,-0.475C0.127,-0.438 0.124,-0.398 0.124,-0.355C0.124,-0.312 0.127,-0.272 0.134,-0.235C0.141,-0.198 0.151,-0.165 0.164,-0.137C0.177,-0.109 0.194,-0.087 0.215,-0.071C0.235,-0.055 0.259,-0.047 0.286,-0.047C0.313,-0.047 0.336,-0.055 0.356,-0.071C0.376,-0.087 0.393,-0.109 0.406,-0.137C0.419,-0.165 0.429,-0.198 0.436,-0.235C0.443,-0.272 0.446,-0.312 0.446,-0.355Z" style="fill:rgb(0,120,138);fill-rule:nonzero;"/>
            </g>
        </g>
        <g transform="matrix(0.938678,-0.344794,0.344794,0.938678,-28.5439,29.7013)">
            <g transform="matrix(11.6667,0,0,11.6667,69.2289,95.0976)">
                <path d="M0.396,0L0.149,-0.589L0.146,-0.589L0.146,0L0.081,0L0.081,-0.708L0.168,-0.708L0.413,-0.119L0.416,-0.119L0.416,-0.708L0.48,-0.708L0.48,0L0.396,0Z" style="fill:rgb(0,120,138);fill-rule:nonzero;"/>
            </g>
        </g>
        <g transform="matrix(0.867172,-0.498008,0.498008,0.867172,-35.4949,50.6831)">
            <g transform="matrix(11.6667,0,0,11.6667,77.2651,91.8817)">
                <path d="M0.388,-0.181C0.388,-0.15 0.383,-0.122 0.374,-0.098C0.365,-0.073 0.352,-0.053 0.336,-0.036C0.319,-0.019 0.3,-0.006 0.278,0.004C0.256,0.013 0.233,0.017 0.208,0.017C0.172,0.017 0.139,0.009 0.109,-0.006C0.078,-0.021 0.054,-0.042 0.035,-0.067L0.078,-0.116C0.093,-0.094 0.113,-0.077 0.136,-0.065C0.159,-0.053 0.183,-0.047 0.207,-0.047C0.239,-0.047 0.266,-0.058 0.288,-0.081C0.309,-0.104 0.32,-0.136 0.32,-0.178C0.32,-0.198 0.317,-0.216 0.31,-0.231C0.303,-0.246 0.294,-0.26 0.283,-0.272C0.272,-0.284 0.259,-0.295 0.245,-0.304C0.23,-0.313 0.215,-0.322 0.199,-0.33C0.18,-0.339 0.161,-0.35 0.144,-0.362C0.127,-0.373 0.112,-0.387 0.099,-0.402C0.086,-0.417 0.075,-0.436 0.067,-0.457C0.059,-0.478 0.055,-0.502 0.055,-0.53C0.055,-0.563 0.06,-0.591 0.07,-0.616C0.08,-0.64 0.094,-0.66 0.111,-0.677C0.128,-0.693 0.147,-0.705 0.168,-0.713C0.189,-0.721 0.212,-0.725 0.235,-0.725C0.267,-0.725 0.296,-0.72 0.322,-0.709C0.347,-0.698 0.369,-0.68 0.386,-0.657L0.343,-0.608C0.33,-0.627 0.314,-0.641 0.296,-0.65C0.278,-0.658 0.258,-0.662 0.237,-0.662C0.223,-0.662 0.209,-0.66 0.196,-0.655C0.182,-0.65 0.17,-0.642 0.159,-0.631C0.148,-0.62 0.14,-0.607 0.133,-0.59C0.126,-0.573 0.123,-0.554 0.123,-0.531C0.123,-0.511 0.126,-0.494 0.132,-0.479C0.138,-0.464 0.146,-0.451 0.157,-0.44C0.167,-0.429 0.179,-0.419 0.193,-0.41C0.206,-0.401 0.22,-0.393 0.235,-0.386C0.254,-0.377 0.272,-0.366 0.291,-0.354C0.309,-0.342 0.325,-0.328 0.34,-0.312C0.355,-0.296 0.366,-0.277 0.375,-0.256C0.384,-0.235 0.388,-0.21 0.388,-0.181Z" style="fill:rgb(0,120,138);fill-rule:nonzero;"/>
            </g>
        </g>
        <g transform="matrix(0.694093,-0.719885,0.719885,0.694093,-35.0721,88.6989)">
            <g transform="matrix(11.6667,0,0,11.6667,86.8308,85.6168)">
                <path d="M0.573,0L0.481,0L0.365,-0.606L0.363,-0.606L0.248,0L0.156,0L0.017,-0.708L0.088,-0.708L0.204,-0.089L0.206,-0.089L0.324,-0.708L0.408,-0.708L0.528,-0.089L0.53,-0.089L0.645,-0.708L0.713,-0.708L0.573,0Z" style="fill:rgb(0,120,138);fill-rule:nonzero;"/>
            </g>
        </g>
        <g transform="matrix(0.543029,-0.839714,0.839714,0.543029,-22.3662,114.403)">
            <g transform="matrix(11.6667,0,0,11.6667,93.9282,77.751)">
                <path d="M0.384,0L0.341,-0.177L0.123,-0.177L0.078,0L0.007,0L0.187,-0.708L0.282,-0.708L0.457,0L0.384,0ZM0.235,-0.645L0.231,-0.645L0.133,-0.233L0.331,-0.233L0.235,-0.645Z" style="fill:rgb(0,120,138);fill-rule:nonzero;"/>
            </g>
        </g>
        <g transform="matrix(0.404532,-0.914524,0.914524,0.404532,-6.98763,131.978)">
            <g transform="matrix(11.6667,0,0,11.6667,97.8526,71.3549)">
                <path d="M0.081,0L0.081,-0.708L0.151,-0.708L0.151,-0.065L0.353,-0.065L0.353,0L0.081,0Z" style="fill:rgb(0,120,138);fill-rule:nonzero;"/>
            </g>
        </g>
        <g transform="matrix(0.27419,-0.961675,0.961675,0.27419,9.75294,144.078)">
            <g transform="matrix(11.6667,0,0,11.6667,100.326,65.5777)">
                <path d="M0.081,0L0.081,-0.708L0.366,-0.708L0.366,-0.646L0.149,-0.646L0.149,-0.397L0.352,-0.397L0.352,-0.338L0.149,-0.338L0.149,-0.063L0.376,-0.063L0.376,0L0.081,0Z" style="fill:rgb(0,120,138);fill-rule:nonzero;"/>
            </g>
        </g>
        <g transform="matrix(0.130946,-0.991389,0.991389,0.130946,30.4162,152.354)">
            <g transform="matrix(11.6667,0,0,11.6667,102.109,58.8283)">
                <path d="M0.388,-0.181C0.388,-0.15 0.383,-0.122 0.374,-0.098C0.365,-0.073 0.352,-0.053 0.336,-0.036C0.319,-0.019 0.3,-0.006 0.278,0.004C0.256,0.013 0.233,0.017 0.208,0.017C0.172,0.017 0.139,0.009 0.109,-0.006C0.078,-0.021 0.054,-0.042 0.035,-0.067L0.078,-0.116C0.093,-0.094 0.113,-0.077 0.136,-0.065C0.159,-0.053 0.183,-0.047 0.207,-0.047C0.239,-0.047 0.266,-0.058 0.288,-0.081C0.309,-0.104 0.32,-0.136 0.32,-0.178C0.32,-0.198 0.317,-0.216 0.31,-0.231C0.303,-0.246 0.294,-0.26 0.283,-0.272C0.272,-0.284 0.259,-0.295 0.245,-0.304C0.23,-0.313 0.215,-0.322 0.199,-0.33C0.18,-0.339 0.161,-0.35 0.144,-0.362C0.127,-0.373 0.112,-0.387 0.099,-0.402C0.086,-0.417 0.075,-0.436 0.067,-0.457C0.059,-0.478 0.055,-0.502 0.055,-0.53C0.055,-0.563 0.06,-0.591 0.07,-0.616C0.08,-0.64 0.094,-0.66 0.111,-0.677C0.128,-0.693 0.147,-0.705 0.168,-0.713C0.189,-0.721 0.212,-0.725 0.235,-0.725C0.267,-0.725 0.296,-0.72 0.322,-0.709C0.347,-0.698 0.369,-0.68 0.386,-0.657L0.343,-0.608C0.33,-0.627 0.314,-0.641 0.296,-0.65C0.278,-0.658 0.258,-0.662 0.237,-0.662C0.223,-0.662 0.209,-0.66 0.196,-0.655C0.182,-0.65 0.17,-0.642 0.159,-0.631C0.148,-0.62 0.14,-0.607 0.133,-0.59C0.126,-0.573 0.123,-0.554 0.123,-0.531C0.123,-0.511 0.126,-0.494 0.132,-0.479C0.138,-0.464 0.146,-0.451 0.157,-0.44C0.167,-0.429 0.179,-0.419 0.193,-0.41C0.206,-0.401 0.22,-0.393 0.235,-0.386C0.254,-0.377 0.272,-0.366 0.291,-0.354C0.309,-0.342 0.325,-0.328 0.34,-0.312C0.355,-0.296 0.366,-0.277 0.375,-0.256C0.384,-0.235 0.388,-0.21 0.388,-0.181Z" style="fill:rgb(0,120,138);fill-rule:nonzero;"/>
            </g>
        </g>
    </g>
    <g transform="matrix(1,0,0,1,-6.635,-0.698795)">
        <g transform="matrix(0.200302,-0.979734,0.979734,0.200302,-30.4718,53.2607)">
            <g transform="matrix(11.6667,0,0,11.6667,17.3898,45.2963)">
                <path d="M0.461,-0.08C0.442,-0.049 0.419,-0.025 0.39,-0.008C0.361,0.009 0.329,0.017 0.293,0.017C0.254,0.017 0.22,0.008 0.19,-0.012C0.16,-0.031 0.135,-0.056 0.114,-0.09C0.093,-0.123 0.078,-0.162 0.067,-0.207C0.056,-0.252 0.05,-0.301 0.05,-0.354C0.05,-0.407 0.056,-0.457 0.067,-0.502C0.078,-0.547 0.094,-0.587 0.115,-0.62C0.135,-0.653 0.161,-0.678 0.191,-0.697C0.221,-0.716 0.255,-0.725 0.293,-0.725C0.326,-0.725 0.358,-0.718 0.387,-0.704C0.416,-0.69 0.44,-0.668 0.459,-0.638L0.414,-0.592C0.399,-0.615 0.381,-0.633 0.361,-0.644C0.34,-0.655 0.319,-0.661 0.296,-0.661C0.267,-0.661 0.241,-0.653 0.22,-0.637C0.198,-0.621 0.18,-0.599 0.166,-0.571C0.151,-0.543 0.141,-0.51 0.134,-0.473C0.127,-0.436 0.123,-0.396 0.123,-0.354C0.123,-0.312 0.127,-0.273 0.134,-0.236C0.141,-0.199 0.152,-0.166 0.167,-0.138C0.181,-0.11 0.199,-0.088 0.221,-0.072C0.242,-0.055 0.268,-0.047 0.297,-0.047C0.322,-0.047 0.345,-0.054 0.366,-0.069C0.387,-0.083 0.404,-0.102 0.417,-0.125L0.461,-0.08Z" style="fill:rgb(0,120,138);fill-rule:nonzero;"/>
            </g>
        </g>
        <g transform="matrix(0.349127,-0.937075,0.937075,0.349127,-24.2519,42.9307)">
            <g transform="matrix(11.6667,0,0,11.6667,18.7782,38.9233)">
                <path d="M0.244,-0.291L0.244,0L0.176,0L0.176,-0.291L0,-0.708L0.076,-0.708L0.21,-0.363L0.347,-0.708L0.422,-0.708L0.244,-0.291Z" style="fill:rgb(0,120,138);fill-rule:nonzero;"/>
            </g>
        </g>
        <g transform="matrix(0.518475,-0.855093,0.855093,0.518475,-18.7729,33.8483)">
            <g transform="matrix(11.6667,0,0,11.6667,20.6675,33.5926)">
                <path d="M0.564,0L0.564,-0.615L0.561,-0.615L0.387,0L0.322,0L0.149,-0.615L0.146,-0.615L0.146,0L0.081,0L0.081,-0.708L0.185,-0.708L0.354,-0.11L0.358,-0.11L0.525,-0.708L0.633,-0.708L0.633,0L0.564,0Z" style="fill:rgb(0,120,138);fill-rule:nonzero;"/>
            </g>
        </g>
        <g transform="matrix(0.695967,-0.718074,0.718074,0.695967,-11.0768,26.07)">
            <g transform="matrix(11.6667,0,0,11.6667,25.2481,26.1158)">
                <path d="M0.573,0L0.481,0L0.365,-0.606L0.363,-0.606L0.248,0L0.156,0L0.017,-0.708L0.088,-0.708L0.204,-0.089L0.206,-0.089L0.324,-0.708L0.408,-0.708L0.528,-0.089L0.53,-0.089L0.645,-0.708L0.713,-0.708L0.573,0Z" style="fill:rgb(0,120,138);fill-rule:nonzero;"/>
            </g>
        </g>
        <g transform="matrix(0.81789,-0.575374,0.575374,0.81789,-5.52705,21.8882)">
            <g transform="matrix(11.6667,0,0,11.6667,31.8142,19.6754)">
                <path d="M0.244,-0.291L0.244,0L0.176,0L0.176,-0.291L0,-0.708L0.076,-0.708L0.21,-0.363L0.347,-0.708L0.422,-0.708L0.244,-0.291Z" style="fill:rgb(0,120,138);fill-rule:nonzero;"/>
            </g>
        </g>
        <g transform="matrix(0.895074,-0.445917,0.445917,0.895074,-3.43916,18.0698)">
            <g transform="matrix(11.6667,0,0,11.6667,36.6772,16.3428)">
                <path d="M0.388,-0.181C0.388,-0.15 0.383,-0.122 0.374,-0.098C0.365,-0.073 0.352,-0.053 0.336,-0.036C0.319,-0.019 0.3,-0.006 0.278,0.004C0.256,0.013 0.233,0.017 0.208,0.017C0.172,0.017 0.139,0.009 0.109,-0.006C0.078,-0.021 0.054,-0.042 0.035,-0.067L0.078,-0.116C0.093,-0.094 0.113,-0.077 0.136,-0.065C0.159,-0.053 0.183,-0.047 0.207,-0.047C0.239,-0.047 0.266,-0.058 0.288,-0.081C0.309,-0.104 0.32,-0.136 0.32,-0.178C0.32,-0.198 0.317,-0.216 0.31,-0.231C0.303,-0.246 0.294,-0.26 0.283,-0.272C0.272,-0.284 0.259,-0.295 0.245,-0.304C0.23,-0.313 0.215,-0.322 0.199,-0.33C0.18,-0.339 0.161,-0.35 0.144,-0.362C0.127,-0.373 0.112,-0.387 0.099,-0.402C0.086,-0.417 0.075,-0.436 0.067,-0.457C0.059,-0.478 0.055,-0.502 0.055,-0.53C0.055,-0.563 0.06,-0.591 0.07,-0.616C0.08,-0.64 0.094,-0.66 0.111,-0.677C0.128,-0.693 0.147,-0.705 0.168,-0.713C0.189,-0.721 0.212,-0.725 0.235,-0.725C0.267,-0.725 0.296,-0.72 0.322,-0.709C0.347,-0.698 0.369,-0.68 0.386,-0.657L0.343,-0.608C0.33,-0.627 0.314,-0.641 0.296,-0.65C0.278,-0.658 0.258,-0.662 0.237,-0.662C0.223,-0.662 0.209,-0.66 0.196,-0.655C0.182,-0.65 0.17,-0.642 0.159,-0.631C0.148,-0.62 0.14,-0.607 0.133,-0.59C0.126,-0.573 0.123,-0.554 0.123,-0.531C0.123,-0.511 0.126,-0.494 0.132,-0.479C0.138,-0.464 0.146,-0.451 0.157,-0.44C0.167,-0.429 0.179,-0.419 0.193,-0.41C0.206,-0.401 0.22,-0.393 0.235,-0.386C0.254,-0.377 0.272,-0.366 0.291,-0.354C0.309,-0.342 0.325,-0.328 0.34,-0.312C0.355,-0.296 0.366,-0.277 0.375,-0.256C0.384,-0.235 0.388,-0.21 0.388,-0.181Z" style="fill:rgb(0,120,138);fill-rule:nonzero;"/>
            </g>
        </g>
        <g transform="matrix(0.949844,-0.312724,0.312724,0.949844,-2.18321,13.8723)">
            <g transform="matrix(11.6667,0,0,11.6667,42.1554,13.7423)">
                <path d="M0.205,-0.648L0.205,0L0.136,0L0.136,-0.648L0,-0.648L0,-0.708L0.342,-0.708L0.342,-0.648L0.205,-0.648Z" style="fill:rgb(0,120,138);fill-rule:nonzero;"/>
            </g>
        </g>
        <g transform="matrix(0.985337,-0.170621,0.170621,0.985337,-1.39336,8.18546)">
            <g transform="matrix(11.6667,0,0,11.6667,46.926,12.1992)">
                <path d="M0.081,0L0.081,-0.708L0.366,-0.708L0.366,-0.646L0.149,-0.646L0.149,-0.397L0.352,-0.397L0.352,-0.338L0.149,-0.338L0.149,-0.063L0.376,-0.063L0.376,0L0.081,0Z" style="fill:rgb(0,120,138);fill-rule:nonzero;"/>
            </g>
        </g>
        <g transform="matrix(0.999904,-0.0138731,0.0138731,0.999904,-0.150549,0.731424)">
            <g transform="matrix(11.6667,0,0,11.6667,52.6445,11.217)">
                <path d="M0.369,0L0.241,-0.328L0.15,-0.328L0.15,0L0.081,0L0.081,-0.708L0.251,-0.708C0.274,-0.708 0.297,-0.705 0.319,-0.699C0.34,-0.692 0.36,-0.682 0.377,-0.667C0.394,-0.652 0.407,-0.633 0.418,-0.609C0.428,-0.585 0.433,-0.556 0.433,-0.521C0.433,-0.491 0.429,-0.465 0.422,-0.444C0.414,-0.422 0.404,-0.404 0.392,-0.389C0.379,-0.374 0.366,-0.363 0.351,-0.355C0.335,-0.347 0.321,-0.342 0.306,-0.34L0.444,0L0.369,0ZM0.365,-0.518C0.365,-0.543 0.362,-0.565 0.355,-0.582C0.347,-0.599 0.338,-0.612 0.327,-0.622C0.315,-0.632 0.302,-0.639 0.287,-0.643C0.272,-0.647 0.256,-0.649 0.24,-0.649L0.15,-0.649L0.15,-0.383L0.243,-0.383C0.281,-0.383 0.311,-0.395 0.333,-0.419C0.354,-0.442 0.365,-0.475 0.365,-0.518Z" style="fill:rgb(0,120,138);fill-rule:nonzero;"/>
            </g>
        </g>
        <g transform="matrix(0.989996,0.141095,-0.141095,0.989996,2.16924,-8.23243)">
            <g transform="matrix(11.6667,0,0,11.6667,59.1397,11.1812)">
                <path d="M0.384,0L0.341,-0.177L0.123,-0.177L0.078,0L0.007,0L0.187,-0.708L0.282,-0.708L0.457,0L0.384,0ZM0.235,-0.645L0.231,-0.645L0.133,-0.233L0.331,-0.233L0.235,-0.645Z" style="fill:rgb(0,120,138);fill-rule:nonzero;"/>
            </g>
        </g>
        <g transform="matrix(0.950927,0.309416,-0.309416,0.950927,6.943,-19.6093)">
            <g transform="matrix(11.6667,0,0,11.6667,65.2915,12.0838)">
                <path d="M0.477,-0.248C0.477,-0.211 0.474,-0.177 0.467,-0.145C0.46,-0.112 0.448,-0.084 0.433,-0.06C0.417,-0.036 0.396,-0.017 0.37,-0.004C0.344,0.01 0.312,0.017 0.274,0.017C0.236,0.017 0.204,0.01 0.179,-0.004C0.153,-0.017 0.132,-0.036 0.117,-0.06C0.101,-0.084 0.09,-0.112 0.083,-0.145C0.076,-0.177 0.073,-0.211 0.073,-0.248L0.073,-0.708L0.143,-0.708L0.143,-0.257C0.143,-0.231 0.145,-0.205 0.149,-0.18C0.152,-0.155 0.159,-0.132 0.169,-0.113C0.178,-0.093 0.192,-0.077 0.209,-0.065C0.226,-0.053 0.248,-0.047 0.275,-0.047C0.302,-0.047 0.324,-0.053 0.341,-0.065C0.358,-0.077 0.372,-0.093 0.382,-0.113C0.391,-0.132 0.398,-0.155 0.402,-0.18C0.405,-0.204 0.407,-0.23 0.407,-0.257L0.407,-0.708L0.477,-0.708L0.477,-0.248Z" style="fill:rgb(0,120,138);fill-rule:nonzero;"/>
            </g>
        </g>
        <g transform="matrix(0.779928,0.625869,-0.625869,0.779928,28.4368,-45.1023)">
            <g transform="matrix(11.6667,0,0,11.6667,78.3522,17.885)">
                <path d="M0.461,-0.08C0.442,-0.049 0.419,-0.025 0.39,-0.008C0.361,0.009 0.329,0.017 0.293,0.017C0.254,0.017 0.22,0.008 0.19,-0.012C0.16,-0.031 0.135,-0.056 0.114,-0.09C0.093,-0.123 0.078,-0.162 0.067,-0.207C0.056,-0.252 0.05,-0.301 0.05,-0.354C0.05,-0.407 0.056,-0.457 0.067,-0.502C0.078,-0.547 0.094,-0.587 0.115,-0.62C0.135,-0.653 0.161,-0.678 0.191,-0.697C0.221,-0.716 0.255,-0.725 0.293,-0.725C0.326,-0.725 0.358,-0.718 0.387,-0.704C0.416,-0.69 0.44,-0.668 0.459,-0.638L0.414,-0.592C0.399,-0.615 0.381,-0.633 0.361,-0.644C0.34,-0.655 0.319,-0.661 0.296,-0.661C0.267,-0.661 0.241,-0.653 0.22,-0.637C0.198,-0.621 0.18,-0.599 0.166,-0.571C0.151,-0.543 0.141,-0.51 0.134,-0.473C0.127,-0.436 0.123,-0.396 0.123,-0.354C0.123,-0.312 0.127,-0.273 0.134,-0.236C0.141,-0.199 0.152,-0.166 0.167,-0.138C0.181,-0.11 0.199,-0.088 0.221,-0.072C0.242,-0.055 0.268,-0.047 0.297,-0.047C0.322,-0.047 0.345,-0.054 0.366,-0.069C0.387,-0.083 0.404,-0.102 0.417,-0.125L0.461,-0.08Z" style="fill:rgb(0,120,138);fill-rule:nonzero;"/>
            </g>
        </g>
        <g transform="matrix(0.675649,0.737224,-0.737224,0.675649,43.3023,-54.3348)">
            <g transform="matrix(11.6667,0,0,11.6667,83.4004,22.0438)">
                <path d="M0.244,-0.291L0.244,0L0.176,0L0.176,-0.291L0,-0.708L0.076,-0.708L0.21,-0.363L0.347,-0.708L0.422,-0.708L0.244,-0.291Z" style="fill:rgb(0,120,138);fill-rule:nonzero;"/>
            </g>
        </g>
        <g transform="matrix(0.527143,0.849777,-0.849777,0.527143,63.4999,-61.8108)">
            <g transform="matrix(11.6667,0,0,11.6667,87.2904,26.1528)">
                <path d="M0.564,0L0.564,-0.615L0.561,-0.615L0.387,0L0.322,0L0.149,-0.615L0.146,-0.615L0.146,0L0.081,0L0.081,-0.708L0.185,-0.708L0.354,-0.11L0.358,-0.11L0.525,-0.708L0.633,-0.708L0.633,0L0.564,0Z" style="fill:rgb(0,120,138);fill-rule:nonzero;"/>
            </g>
        </g>
        <g transform="matrix(0.346962,0.937879,-0.937879,0.346962,91.7093,-64.0547)">
            <g transform="matrix(11.6667,0,0,11.6667,91.8517,33.8281)">
                <path d="M0.369,0L0.241,-0.328L0.15,-0.328L0.15,0L0.081,0L0.081,-0.708L0.251,-0.708C0.274,-0.708 0.297,-0.705 0.319,-0.699C0.34,-0.692 0.36,-0.682 0.377,-0.667C0.394,-0.652 0.407,-0.633 0.418,-0.609C0.428,-0.585 0.433,-0.556 0.433,-0.521C0.433,-0.491 0.429,-0.465 0.422,-0.444C0.414,-0.422 0.404,-0.404 0.392,-0.389C0.379,-0.374 0.366,-0.363 0.351,-0.355C0.335,-0.347 0.321,-0.342 0.306,-0.34L0.444,0L0.369,0ZM0.365,-0.518C0.365,-0.543 0.362,-0.565 0.355,-0.582C0.347,-0.599 0.338,-0.612 0.327,-0.622C0.315,-0.632 0.302,-0.639 0.287,-0.643C0.272,-0.647 0.256,-0.649 0.24,-0.649L0.15,-0.649L0.15,-0.383L0.243,-0.383C0.281,-0.383 0.311,-0.395 0.333,-0.419C0.354,-0.442 0.365,-0.475 0.365,-0.518Z" style="fill:rgb(0,120,138);fill-rule:nonzero;"/>
            </g>
        </g>
        <g transform="matrix(0.18453,0.982827,-0.982827,0.18453,115.855,-59.9627)">
            <g transform="matrix(11.6667,0,0,11.6667,94.0618,39.8344)">
                <path d="M0.477,-0.248C0.477,-0.211 0.474,-0.177 0.467,-0.145C0.46,-0.112 0.448,-0.084 0.433,-0.06C0.417,-0.036 0.396,-0.017 0.37,-0.004C0.344,0.01 0.312,0.017 0.274,0.017C0.236,0.017 0.204,0.01 0.179,-0.004C0.153,-0.017 0.132,-0.036 0.117,-0.06C0.101,-0.084 0.09,-0.112 0.083,-0.145C0.076,-0.177 0.073,-0.211 0.073,-0.248L0.073,-0.708L0.143,-0.708L0.143,-0.257C0.143,-0.231 0.145,-0.205 0.149,-0.18C0.152,-0.155 0.159,-0.132 0.169,-0.113C0.178,-0.093 0.192,-0.077 0.209,-0.065C0.226,-0.053 0.248,-0.047 0.275,-0.047C0.302,-0.047 0.324,-0.053 0.341,-0.065C0.358,-0.077 0.372,-0.093 0.382,-0.113C0.391,-0.132 0.398,-0.155 0.402,-0.18C0.405,-0.204 0.407,-0.23 0.407,-0.257L0.407,-0.708L0.477,-0.708L0.477,-0.248Z" style="fill:rgb(0,120,138);fill-rule:nonzero;"/>
            </g>
        </g>
    </g>
</svg>
