<?xml version="1.0" encoding="UTF-8" standalone="no"?>
<svg
   xmlns:dc="http://purl.org/dc/elements/1.1/"
   xmlns:cc="http://creativecommons.org/ns#"
   xmlns:rdf="http://www.w3.org/1999/02/22-rdf-syntax-ns#"
   xmlns:svg="http://www.w3.org/2000/svg"
   xmlns="http://www.w3.org/2000/svg"
   xmlns:sodipodi="http://sodipodi.sourceforge.net/DTD/sodipodi-0.dtd"
   xmlns:inkscape="http://www.inkscape.org/namespaces/inkscape"
   width="100%"
   height="100%"
   viewBox="0 0 300 100"
   version="1.1"
   xml:space="preserve"
   style="fill-rule:evenodd;clip-rule:evenodd;stroke-linejoin:round;stroke-miterlimit:2;"
   id="svg4332"
   sodipodi:docname="reed.svg"
   inkscape:version="0.92.5 (2060ec1f9f, 2020-04-08)"><metadata
   id="metadata4338"><rdf:RDF><cc:Work
       rdf:about=""><dc:format>image/svg+xml</dc:format><dc:type
         rdf:resource="http://purl.org/dc/dcmitype/StillImage" /></cc:Work></rdf:RDF></metadata><defs
   id="defs4336" /><sodipodi:namedview
   pagecolor="#ffffff"
   bordercolor="#666666"
   borderopacity="1"
   objecttolerance="10"
   gridtolerance="10"
   guidetolerance="10"
   inkscape:pageopacity="0"
   inkscape:pageshadow="2"
   inkscape:window-width="2800"
   inkscape:window-height="1672"
   id="namedview4334"
   showgrid="false"
   inkscape:zoom="2.36"
   inkscape:cx="150"
   inkscape:cy="50"
   inkscape:window-x="80"
   inkscape:window-y="54"
   inkscape:window-maximized="1"
   inkscape:current-layer="svg4332" />
    <g
   transform="translate(3.1470476e-5,3.1254)"
   id="g4330">
        <path
   d="m 67.263,75.183 c 4.549,0 8.242,3.693 8.242,8.241 0,4.549 -3.693,8.242 -8.242,8.242 -4.549,0 -8.242,-3.693 -8.242,-8.242 0,-4.548 3.693,-8.241 8.242,-8.241 z m 24,0 c 4.549,0 8.242,3.693 8.242,8.241 0,4.549 -3.693,8.242 -8.242,8.242 -4.549,0 -8.242,-3.693 -8.242,-8.242 0,-4.548 3.693,-8.241 8.242,-8.241 z m 24,0 c 4.549,0 8.242,3.693 8.242,8.241 0,4.549 -3.693,8.242 -8.242,8.242 -4.549,0 -8.242,-3.693 -8.242,-8.242 0,-4.548 3.693,-8.241 8.242,-8.241 z"
   style="fill:#e63429"
   id="path4326"
   inkscape:connector-curvature="0" />
        <path
   d="m 61.045,2.787 c 0.658,19.983 0.728,40.103 0,60.408 3.009,-0.324 6.004,-0.319 8.983,0 -0.55,-4.279 -0.767,-13.528 -0.523,-29.644 l 3.778,-0.202 c 1.639,0.279 3.106,1.314 4.4,3.104 7.392,8.646 14.634,17.383 21.488,26.354 14.694,-0.175 29.398,-0.216 44.117,-0.057 -0.227,-1.714 -0.106,-3.496 0.039,-5.331 -8.508,0.755 -17.162,1.047 -25.673,1.139 -0.407,-8.633 -0.475,-17.143 -0.307,-25.742 7.718,-0.084 15.4,-0.034 22.928,0.584 -0.257,-1.556 -0.345,-3.063 0.086,-5.151 -7.585,0.496 -15.175,0.87 -22.79,0.668 -0.155,-7.217 -0.168,-14.525 0.03,-22.102 8.456,0.121 16.886,0.372 25.247,0.97 -0.109,-1.704 -0.066,-3.397 0.157,-5.244 -11.357,0.592 -22.746,0.673 -34.116,0.053 0.715,18.687 0.807,37.371 0.177,56.052 -1.106,1.162 -2.868,-0.798 -5.562,-3.724 L 84.636,33.061 c 0,0 18.125,-3.326 18.059,-15.71 C 102.611,1.453 88.382,2.236 82.815,2.594 75.583,3.058 68.356,3.287 61.045,2.787 Z M 188.436,2.671 c 0.262,19.995 0.128,40.146 -0.068,60.143 l 9.195,-0.178 c 3.25,0.169 44.748,7.118 43.383,-33.255 -1.189,-35.182 -36.008,-25.986 -42.858,-26.756 -2.182,0.179 -5.786,0.127 -9.652,0.046 z m -40.301,60.124 c 14.694,-0.175 19.793,-0.204 34.512,-0.045 -0.227,-1.714 -0.106,-3.496 0.039,-5.331 -8.508,0.755 -17.163,1.047 -25.673,1.139 -0.407,-8.633 -0.475,-17.143 -0.307,-25.742 7.717,-0.084 15.399,-0.034 22.928,0.584 -0.257,-1.556 -0.345,-3.063 0.085,-5.151 -7.584,0.496 -15.174,0.87 -22.79,0.668 -0.154,-7.217 -0.167,-14.525 0.031,-22.102 8.455,0.121 16.885,0.372 25.247,0.97 -0.109,-1.704 -0.066,-3.397 0.156,-5.244 -11.356,0.592 -22.745,0.673 -34.116,0.053 0.716,18.687 0.808,37.371 0.178,56.052 z m 48.56,-56.416 c -0.424,17.501 -0.47,35.019 0.069,52.556 25.94,3.083 37.016,-7.116 36.206,-27.934 C 231.375,7.372 222.149,4.775 196.695,6.379 Z M 70.178,6.274 c -1.03,5.436 -0.874,15.083 -0.688,24.593 0,0 25.058,3.223 24.876,-13.709 C 94.211,2.788 70.178,6.274 70.178,6.274 Z"
   style="fill:#1f2d79"
   id="path4328"
   inkscape:connector-curvature="0" />
    </g>
</svg>