<?xml version="1.0" encoding="UTF-8" standalone="no"?>
<!DOCTYPE svg PUBLIC "-//W3C//DTD SVG 1.1//EN" "http://www.w3.org/Graphics/SVG/1.1/DTD/svg11.dtd">
<svg width="100%" height="100%" viewBox="0 0 300 100" version="1.1" xmlns="http://www.w3.org/2000/svg" xmlns:xlink="http://www.w3.org/1999/xlink" xml:space="preserve" xmlns:serif="http://www.serif.com/" style="fill-rule:evenodd;clip-rule:evenodd;stroke-linejoin:round;stroke-miterlimit:2;">
    <path d="M159.9,80.142C160.804,88.895 168.313,92.093 178.367,87.154L175.414,95.365C158.407,103.888 147.141,86.746 151.185,71.104C155.372,54.904 177.517,56.463 178.719,71.104C179.455,80.071 178.726,80.141 178.719,80.142L159.9,80.142ZM76.086,80.084C76.991,88.837 84.5,92.035 94.554,87.096L91.6,95.307C74.594,103.83 63.328,86.688 67.372,71.046C71.559,54.846 93.704,56.405 94.906,71.046C95.642,80.013 94.912,80.083 94.906,80.084L76.086,80.084ZM253.23,58.958C242.997,60.276 237.33,72.059 238.752,80.369C241.424,95.982 248.93,97.189 257.259,97.532C264.34,97.823 274.674,85.878 273.118,75.798C271.394,64.63 260.599,58.008 253.23,58.958ZM202.968,67.132L202.968,60.783C198.578,58.85 194.194,59.017 189.816,60.783C184.397,62.969 180.22,73.734 189.816,80.6C196.857,85.638 196.524,91.695 189.816,90.72C186.908,90.298 184.9,88.683 183.062,86.878L183.062,95.468C188.829,97.652 194.081,97.848 198.665,95.468C204.938,92.211 205.491,80.617 198.665,75.678C191.734,70.664 190.525,66.475 198.665,65.758C200.172,65.625 201.65,66.25 202.968,67.132ZM233.61,69.043L234.512,60.771C212.156,55.361 207.543,72.067 207.208,78.166C206.888,84.009 209.893,99.881 231.85,96.573L235.603,87.305C220.664,95.01 216.963,81.326 216.922,78.166C216.876,74.6 220.514,58.961 233.61,69.043ZM136.33,60.006L135.881,61.168L135.881,66.497C139.522,60.774 143.347,56.941 147.897,60.567L146.622,68.673C143.378,65.559 139.78,66.92 135.881,72.077L135.881,92.314C135.942,93.67 136.566,94.967 137.655,96.215L124.879,96.215C125.72,95.078 126.344,93.807 126.607,92.314L126.607,63.942C126.443,62.653 126.046,61.339 125.47,60.006L136.33,60.006ZM40.145,96.175L26.937,96.175C28.999,81.096 29.015,54.194 26.937,44.508L43.547,44.508C64.372,44.458 66.51,69.482 49.229,73.249C54.168,81.253 60.235,88.856 67.102,96.175L57.505,96.175C50.235,90.425 43.945,83.671 38.647,75.902L38.647,87.258C38.67,91.164 39.204,94.07 40.145,96.175ZM103.274,60.324L103.274,55.737C103.365,46.854 111.522,41.563 122.927,45.504L121.56,52.484C117.944,48.74 111.483,51.347 111.483,55.022L111.483,59.882L118.979,59.882L118.979,66.576L111.483,66.576L111.483,89.489C111.463,91.716 112.128,93.943 113.375,96.169L101.353,96.169C102.518,94.118 103.147,91.887 103.274,89.489L103.274,66.576L98.149,66.576C99.557,64.505 100.617,62.421 101.353,60.324L103.274,60.324ZM252.86,65.213C265.554,67.811 266.06,83.627 258.46,90.861C248.132,90.394 242.79,75.556 252.86,65.213ZM158.651,74.441L170.747,74.441C170.747,74.441 170.637,65.638 165.475,65.638C159.44,65.638 158.651,74.441 158.651,74.441ZM74.838,74.383L86.934,74.383C86.934,74.383 86.824,65.58 81.662,65.58C75.627,65.58 74.838,74.383 74.838,74.383ZM38.647,52.072L38.647,68.499C52.235,68.499 52.235,52.072 38.647,52.072Z" style="fill:rgb(250,153,6);"/>
    <path d="M8.766,37.899C87.901,-11.343 214.103,-9.398 291.234,37.899C197.078,2.8 102.922,3.022 8.766,37.899Z" style="fill:rgb(0,179,86);"/>
</svg>
