<?xml version="1.0" encoding="UTF-8" standalone="no"?>
<svg
   xmlns:dc="http://purl.org/dc/elements/1.1/"
   xmlns:cc="http://creativecommons.org/ns#"
   xmlns:rdf="http://www.w3.org/1999/02/22-rdf-syntax-ns#"
   xmlns:svg="http://www.w3.org/2000/svg"
   xmlns="http://www.w3.org/2000/svg"
   xmlns:sodipodi="http://sodipodi.sourceforge.net/DTD/sodipodi-0.dtd"
   xmlns:inkscape="http://www.inkscape.org/namespaces/inkscape"
   width="100%"
   height="100%"
   viewBox="0 0 300 100"
   version="1.1"
   xml:space="preserve"
   style="fill-rule:evenodd;clip-rule:evenodd;stroke-linejoin:round;stroke-miterlimit:2;"
   id="svg2876"
   sodipodi:docname="siemens.svg"
   inkscape:version="0.92.5 (2060ec1f9f, 2020-04-08)"><metadata
   id="metadata2882"><rdf:RDF><cc:Work
       rdf:about=""><dc:format>image/svg+xml</dc:format><dc:type
         rdf:resource="http://purl.org/dc/dcmitype/StillImage" /></cc:Work></rdf:RDF></metadata><defs
   id="defs2880" /><sodipodi:namedview
   pagecolor="#ffffff"
   bordercolor="#666666"
   borderopacity="1"
   objecttolerance="10"
   gridtolerance="10"
   guidetolerance="10"
   inkscape:pageopacity="0"
   inkscape:pageshadow="2"
   inkscape:window-width="2800"
   inkscape:window-height="1672"
   id="namedview2878"
   showgrid="false"
   inkscape:zoom="2.36"
   inkscape:cx="150"
   inkscape:cy="50"
   inkscape:window-x="80"
   inkscape:window-y="54"
   inkscape:window-maximized="1"
   inkscape:current-layer="svg2876" />
    
    
    
    
    
    
    <g
   id="g3441"
   transform="translate(1.5069622,0.0464891)"><g
     transform="matrix(0.423737,0,0,0.423737,1.56075,-372.593)"
     id="path4166">
        <path
   id="path2855"
   style="fill:#009999"
   d="m 685.398,945.893 v 20.653 c -10.7,-4.039 -20.226,-6.081 -28.564,-6.081 -4.939,0 -8.872,0.914 -11.828,2.682 -2.958,1.784 -4.467,3.979 -4.467,6.57 0,3.445 3.338,6.508 10.06,9.252 l 19.419,9.451 c 15.701,7.484 23.489,17.42 23.489,29.91 0,10.38 -4.13,18.65 -12.468,24.78 -8.277,6.19 -19.419,9.25 -33.29,9.25 -6.402,0 -12.148,-0.27 -17.254,-0.85 -5.107,-0.55 -10.975,-1.68 -17.484,-3.29 v -21.62 c 11.935,4.04 22.803,6.08 32.589,6.08 11.676,0 17.483,-3.38 17.483,-10.21 0,-3.4 -2.378,-6.14 -7.209,-8.29 l -21.569,-9.19 c -7.956,-3.6 -13.871,-7.958 -17.742,-13.126 -3.811,-5.212 -5.747,-11.188 -5.747,-18.016 0,-9.558 4.024,-17.255 11.981,-23.108 8.018,-5.808 18.657,-8.719 31.887,-8.719 4.299,0 9.253,0.381 14.74,1.082 5.533,0.747 10.853,1.662 15.974,2.79 z"
   inkscape:connector-curvature="0" />
    </g><g
     transform="matrix(0.423737,0,0,0.423737,1.56075,-372.593)"
     id="path4168">
        <path
   id="path2858"
   style="fill:#009999"
   d="m 74.536,945.893 v 20.653 c -10.7,-4.039 -20.211,-6.081 -28.549,-6.081 -4.954,0 -8.871,0.914 -11.828,2.682 -2.957,1.784 -4.466,3.979 -4.466,6.57 0,3.445 3.383,6.508 10.105,9.252 l 19.42,9.451 c 15.638,7.484 23.443,17.42 23.443,29.91 0,10.38 -4.146,18.65 -12.423,24.78 -8.338,6.19 -19.419,9.25 -33.336,9.25 -6.402,0 -12.163,-0.27 -17.27,-0.85 -5.106,-0.55 -10.913,-1.68 -17.467,-3.29 v -21.62 c 11.98,4.04 22.848,6.08 32.573,6.08 11.676,0 17.483,-3.38 17.483,-10.21 0,-3.4 -2.362,-6.14 -7.149,-8.29 l -21.568,-9.19 C 15.486,1001.39 9.572,997.032 5.762,991.864 1.89,986.652 0,980.676 0,973.848 0,964.29 3.994,956.593 11.996,950.74 c 7.957,-5.808 18.611,-8.719 31.842,-8.719 4.344,0 9.237,0.381 14.785,1.082 5.487,0.747 10.807,1.662 15.913,2.79 z"
   inkscape:connector-curvature="0" />
    </g><g
     transform="matrix(1.50143,0,0,1.50143,-8.47842,12.6823)"
     id="polygon4170">
        <path
   id="path2861"
   style="fill:#009999"
   d="M 42.929,9.8 V 39.848 H 34.003 V 9.8 Z"
   inkscape:connector-curvature="0" />
    </g><g
     transform="matrix(1.50143,0,0,1.50143,-8.47842,12.6823)"
     id="polygon4172">
        <path
   id="path2864"
   style="fill:#009999"
   d="M 71.958,39.848 H 49.834 V 9.8 h 21.853 v 5.554 H 58.424 v 6.663 h 11.503 v 5.008 H 58.424 v 6.994 h 13.534 z"
   inkscape:connector-curvature="0" />
    </g><g
     transform="matrix(1.50143,0,0,1.50143,-8.47842,12.4756)"
     id="polygon4174">
        <path
   id="path2867"
   style="fill:#009999"
   d="M 76.892,39.848 V 9.8 H 87.788 L 95.226,28.195 103.008,9.8 h 10.35 v 30.048 h -8.333 V 20.03 L 96.379,40.124 H 91.234 L 82.919,20.03 v 19.818 z"
   inkscape:connector-curvature="0" />
    </g><g
     transform="matrix(1.50143,0,0,1.50143,-8.47842,12.6823)"
     id="polygon4176">
        <path
   id="path2870"
   style="fill:#009999"
   d="M 142.374,39.848 H 120.25 V 9.8 h 21.853 v 5.554 h -13.19 v 6.663 h 11.503 v 5.008 h -11.503 v 6.994 h 13.461 z"
   inkscape:connector-curvature="0" />
    </g><g
     transform="matrix(1.50143,0,0,1.50143,-8.47842,12.6823)"
     id="polygon4178">
        <path
   id="path2873"
   style="fill:#009999"
   d="m 173.424,39.848 h -9.468 L 153.331,20.576 v 19.272 h -6.023 V 9.8 h 9.744 l 10.35,18.941 V 9.8 h 6.022 z"
   inkscape:connector-curvature="0" />
    </g></g>
</svg>