<?xml version="1.0" encoding="UTF-8" standalone="no"?>
<!DOCTYPE svg PUBLIC "-//W3C//DTD SVG 1.1//EN" "http://www.w3.org/Graphics/SVG/1.1/DTD/svg11.dtd">
<svg width="100%" height="100%" viewBox="0 0 300 100" version="1.1" xmlns="http://www.w3.org/2000/svg" xmlns:xlink="http://www.w3.org/1999/xlink" xml:space="preserve" xmlns:serif="http://www.serif.com/" style="fill-rule:evenodd;clip-rule:evenodd;stroke-linejoin:round;stroke-miterlimit:1.5;">
    <g transform="matrix(1,0,0,1,4.89049,0.519728)">
        <path d="M229.473,44.993L230.625,47.793C236.088,45.977 239.699,46.205 239.596,50.536C239.596,50.536 226.72,48.342 228.781,57.667C230.013,63.242 239.746,60.367 239.971,58.886C240.507,61.042 242.512,61.491 245.503,60.794L245.503,58.005C244.138,58.08 243.248,57.687 243.355,56.31L243.355,49.107C241.672,42.106 235.743,43.224 229.473,44.993ZM239.606,52.968C239.885,55.284 239.189,57.014 236.872,57.767C233.066,58.254 231.974,55.988 233.974,53.612C235.309,52.732 237.139,52.46 239.606,52.968Z"/>
    </g>
    <g transform="matrix(1,0,0,1,4.89049,0.519728)">
        <path d="M174.659,43.925L170.32,43.925L177.105,60.214C176.419,63.608 174.526,64.812 171.693,64.311L171.282,67.632C174.458,68.555 177.315,67.969 179.526,64.311L187.559,43.925L183.136,43.925L178.977,55.474L174.659,43.925Z"/>
    </g>
    <g transform="matrix(1,0,0,1,4.89049,0.519728)">
        <path d="M190.631,36.521L190.631,60.214L194.829,60.214L194.829,50.584C195.208,46.108 201.674,46.206 202.284,49.708L202.284,60.214L206.539,60.214L206.539,48.479C206.24,43.305 198.228,42.066 194.829,45.737L194.829,36.521L190.631,36.521Z"/>
    </g>
    <g transform="matrix(1,0,0,1,4.89049,0.519728)">
        <path d="M214.472,53.205L226.523,53.205C226.523,53.205 226.986,49.109 224.955,46.365C223.463,44.348 219.908,43.393 218.436,43.381C217.061,43.37 213.982,44.179 212.255,45.966C210.534,47.746 210.169,50.396 210.117,51.827C209.919,57.279 214.417,60.232 217.252,60.551C222.524,61.145 225.771,58.763 225.771,58.763L224.34,56.2C219.595,58.813 214.869,57.314 214.472,53.205ZM214.282,50.769L222.337,50.769C221.582,45.332 215.08,45.177 214.282,50.769Z"/>
    </g>
    <g transform="matrix(1,0,0,1,4.89049,0.519728)">
        <path d="M145.332,43.846L145.96,45.932C145.96,45.932 147.74,43.329 151.623,43.449C153.806,43.517 157.93,44.654 158.884,50.664C159.331,53.475 158.566,58.311 154.632,60.256C152.391,61.364 149.215,61.617 146.316,58.859L146.316,67.566L142.15,67.566L142.15,43.846L145.332,43.846ZM150.231,46.8C152.683,46.8 154.673,49.22 154.673,52.2C154.673,55.181 152.683,57.601 150.231,57.601C147.78,57.601 146.316,55.181 146.316,52.2C146.316,49.22 147.78,46.8 150.231,46.8Z"/>
    </g>
    <g transform="matrix(1,0,0,1,4.89049,0.519728)">
        <path d="M162.525,36.612L162.525,57.091C163.217,61.042 166.434,61.332 170.407,60.526L170.407,57.498C168.295,57.726 166.889,57.258 166.68,55.613L166.68,36.612L162.525,36.612"/>
    </g>
    <g transform="matrix(1,0,0,1,4.89049,0.519728)">
        <path d="M248.172,36.612L248.172,57.091C248.864,61.042 252.081,61.332 256.054,60.526L256.054,57.498C253.942,57.726 252.536,57.258 252.327,55.613L252.327,36.612L248.172,36.612"/>
    </g>
    <g transform="matrix(1,0,0,1,4.89049,0.519728)">
        <path d="M259.065,39.085L259.065,43.831L256.044,43.831L256.044,46.853L259.065,46.853L259.065,55.636C259.101,60.161 262.534,61.301 268.248,60.166L267.708,57.212C265.157,57.787 263.578,57.207 263.421,54.935L263.421,46.853L267.708,46.853L267.708,43.831L263.421,43.831L263.421,39.085L259.065,39.085Z"/>
    </g>
    <g transform="matrix(1,0,0,1,4.89049,0.519728)">
        <path d="M271.632,36.453L271.632,60.166L275.67,60.166L275.67,50.571C275.67,50.571 276.09,47.266 279.536,47.085C282.807,46.914 283.347,49.692 283.347,49.692L283.347,60.166L287.511,60.166L287.511,48.236C287.46,46.184 285.209,43.558 281.128,43.482C279.138,43.445 277.104,43.978 275.67,45.844L275.67,36.453L271.632,36.453Z"/>
    </g>
    <g transform="matrix(1,0,0,1,4.89049,0.519728)">
        <rect x="102.294" y="43.903" width="4.179" height="16.466"/>
    </g>
    <g transform="matrix(1,0,0,1,4.89049,0.519728)">
        <circle cx="104.422" cy="38.923" r="2.555"/>
    </g>
    <g transform="matrix(1,0,0,1,4.89049,0.519728)">
        <path d="M111.153,43.815L114.402,43.815L115.176,46.082C118.19,42.641 123.242,42.61 126.035,46.454C128.864,42.31 136.728,42.447 138.166,48.154L138.166,60.537L134.136,60.537L134.136,49.456C133.116,45.976 127.012,46.847 126.915,50.519L126.915,60.537L122.667,60.537L122.667,50.018C121.844,46.072 115.901,46.585 115.607,50.519L115.607,60.537L111.483,60.537L111.483,44.419L111.153,43.815Z"/>
    </g>
    <g transform="matrix(1,0,0,1,4.89049,0.519728)">
        <path d="M96.95,42.018L97.974,38.847C97.974,38.847 88.963,35.104 83.884,38.847C81.353,40.711 80.297,45.134 83.884,48.432C85.827,50.219 93.721,50.841 94.354,53.244C95.789,58.684 87.35,57.067 82.857,55.734L81.789,59.123C81.502,59.659 92.023,62.323 95.077,60.076C97.503,58.291 100.753,56.45 97.591,50.36C96.446,48.155 90.589,47.475 88.823,46.493C83.419,43.49 88.503,40.935 90.048,40.873C91.872,40.799 95.02,41.538 96.95,42.018Z"/>
    </g>
    <g transform="matrix(1,0,0,1,4.89049,0.519728)">
        <path d="M42.953,40.32C38.531,28.897 20.438,35.907 26.995,47.613L41.613,63.334C52.763,72.427 65.258,58.342 64.107,47.613C61.516,23.471 35.95,12.596 18.216,24.582" style="fill:none;stroke:black;stroke-width:4px;"/>
    </g>
    <g transform="matrix(1,0,0,1,4.89049,0.519728)">
        <path d="M25.936,58.641C30.357,70.063 48.45,63.054 41.894,51.347L27.275,35.627C16.126,26.534 3.631,40.618 4.782,51.347C7.372,75.49 32.938,86.364 50.673,74.379" style="fill:none;stroke:black;stroke-width:4px;"/>
    </g>
</svg>
