<?xml version="1.0" encoding="UTF-8" standalone="no"?>
<!DOCTYPE svg PUBLIC "-//W3C//DTD SVG 1.1//EN" "http://www.w3.org/Graphics/SVG/1.1/DTD/svg11.dtd">
<svg width="100%" height="100%" viewBox="0 0 300 100" version="1.1" xmlns="http://www.w3.org/2000/svg" xmlns:xlink="http://www.w3.org/1999/xlink" xml:space="preserve" xmlns:serif="http://www.serif.com/" style="fill-rule:evenodd;clip-rule:evenodd;stroke-linejoin:round;stroke-miterlimit:2;">
    <path d="M49.691,16.721C50.838,16.721 51.768,17.651 51.768,18.797L51.768,58.451C51.768,59.597 50.838,60.528 49.691,60.528L42.295,60.528C41.149,60.528 40.219,59.597 40.219,58.451L40.219,18.797C40.219,17.651 41.149,16.721 42.295,16.721L49.691,16.721ZM9,60.528L5.998,60.528C4.895,60.528 4,59.633 4,58.529C4,56.425 4,53.129 4,51.017C4,50.482 4.213,49.969 4.591,49.591C4.969,49.213 5.482,49 6.017,49C7.011,49 8,49 8,49C11.43,48.902 13.008,46.105 13,41L13,34C13.059,23.63 21.629,16.791 30,16.721L31.959,16.721C32.501,16.721 33.02,16.936 33.402,17.318C33.785,17.701 34,18.22 34,18.761C34,20.836 34,24.028 34,26.064C34,27.133 33.133,28 32.064,28C31.485,28 31,28 31,28C27.889,28.05 25,30.84 25,35L25,42C24.921,53.448 16.298,60.418 9,60.528Z" style="fill:rgb(0,90,172);"/>
    <path d="M240.382,15.639C252.477,15.639 262.297,25.957 262.297,38.666C262.297,51.375 252.477,61.693 240.382,61.693C228.287,61.693 218.467,51.375 218.467,38.666C218.467,25.957 228.287,15.639 240.382,15.639ZM143.952,37L143.952,58.584C143.952,59.658 143.082,60.528 142.008,60.528C141.065,60.528 139.932,60.528 138.983,60.528C138.457,60.528 137.953,60.319 137.581,59.947C137.209,59.575 137,59.07 137,58.544L137,58C136.582,57.023 136.181,56.737 135.673,56.624C131.921,59.753 127.168,61.624 122,61.624C109.885,61.624 100.048,51.34 100.048,38.672C100.048,26.005 109.885,15.721 122,15.721C133.578,15.721 143.074,25.112 143.894,37L143.952,37ZM213.13,60.528C209.844,60.678 206.894,60.155 204.428,58.66C201.685,56.884 197.534,53.007 197.534,48.075C197.534,37.028 197.534,15.936 197.534,9.373C197.534,8.268 198.43,7.373 199.534,7.373C200.445,7.373 201.52,7.373 202.43,7.373C203.535,7.373 204.43,8.268 204.43,9.373L204.43,14.892C204.622,15.884 205.192,16.514 206.205,16.721L212.595,16.721C213.675,16.721 214.55,17.596 214.55,18.675C214.55,19.616 214.55,20.741 214.55,21.681C214.55,22.756 213.679,23.627 212.604,23.627L206.201,23.627L206.205,23.683C205.192,23.89 204.622,24.52 204.43,25.512L204.43,45.665C204.691,50.343 207.858,53.874 211.907,53.874C211.907,53.874 212.505,53.874 213.132,53.874C213.915,53.874 214.55,54.509 214.55,55.292L214.55,59.11C214.55,59.893 213.915,60.528 213.132,60.528L213.13,60.528ZM189,58.528C189,59.058 188.789,59.567 188.414,59.942C188.039,60.317 187.53,60.528 187,60.528C186.059,60.528 184.941,60.528 184,60.528C182.895,60.528 182,59.632 182,58.528C182,51.889 182,31 182,31C182,31 180.327,22.471 171,22.471C161.033,22.471 160,31 160,31L160,58.528C160,59.632 159.105,60.528 158,60.528C157.059,60.528 155.941,60.528 155,60.528C154.47,60.528 153.961,60.317 153.586,59.942C153.211,59.567 153,59.058 153,58.528C153,54.006 153,42.619 153,32.714C153,28.185 154.799,23.842 158.001,20.64C161.203,17.438 165.546,15.639 170.074,15.639C170.691,15.639 171.309,15.639 171.926,15.639C176.454,15.639 180.797,17.438 183.999,20.64C187.201,23.842 189,28.185 189,32.714C189,42.619 189,54.006 189,58.528ZM268.623,60.528L265.622,60.528C265.092,60.528 264.583,60.317 264.209,59.942C263.834,59.568 263.623,59.059 263.623,58.529C263.623,57.521 263.623,56.299 263.623,55.288C263.623,54.753 263.836,54.24 264.214,53.862C264.592,53.483 265.106,53.271 265.641,53.271C266.635,53.271 267.623,53.271 267.623,53.271C271.053,53.172 275.753,49.257 275.753,41L275.753,34C275.805,24.73 282.629,16.791 291,16.721L292.959,16.721C293.501,16.721 294.02,16.936 294.402,17.318C294.785,17.701 295,18.22 295,18.761C295,19.688 295,20.778 295,21.691C295,22.761 294.133,23.627 293.064,23.627C292.485,23.627 292,23.627 292,23.627C286.079,23.722 282.854,30.84 282.854,35L282.854,42C282.774,53.448 274.688,60.528 268.623,60.528ZM78.5,50.945L90.74,17.433C90.896,17.005 91.303,16.721 91.758,16.721C92.703,16.721 94.359,16.721 95.728,16.721C96.247,16.721 96.733,16.974 97.03,17.399C97.327,17.824 97.398,18.368 97.22,18.855C94.373,26.651 84.588,53.825 82.425,59.746C82.31,60.061 82.112,60.329 81.86,60.528L75.14,60.528C74.888,60.329 74.69,60.061 74.575,59.746C72.412,53.825 62.627,26.651 59.78,18.855C59.602,18.368 59.673,17.824 59.97,17.399C60.267,16.974 60.753,16.721 61.272,16.721C62.641,16.721 64.297,16.721 65.242,16.721C65.697,16.721 66.104,17.005 66.26,17.433L78.5,50.945ZM240.382,22.118C248.789,22.118 255.615,29.533 255.615,38.666C255.615,47.799 248.789,55.215 240.382,55.215C231.975,55.215 225.15,47.799 225.15,38.666C225.15,29.533 231.975,22.118 240.382,22.118ZM122,22.065C130.156,22.065 136.779,29.437 136.779,38.517C136.779,47.597 130.156,54.969 122,54.969C113.844,54.969 107.221,47.597 107.221,38.517C107.221,29.437 113.844,22.065 122,22.065Z" style="fill:rgb(135,135,135);"/>
    <g transform="matrix(1.15073,0,0,1.16698,-11.2649,-13.447)">
        <g transform="matrix(19.4508,0,0,19.4508,74.3948,86.8033)">
            <path d="M0.258,-0.079L0.271,-0.001C0.246,0.004 0.224,0.007 0.204,0.007C0.172,0.007 0.147,0.002 0.13,-0.008C0.112,-0.018 0.1,-0.032 0.093,-0.048C0.086,-0.065 0.082,-0.099 0.082,-0.152L0.082,-0.45L0.018,-0.45L0.018,-0.519L0.082,-0.519L0.082,-0.647L0.169,-0.7L0.169,-0.519L0.258,-0.519L0.258,-0.45L0.169,-0.45L0.169,-0.147C0.169,-0.122 0.171,-0.106 0.174,-0.099C0.177,-0.091 0.182,-0.086 0.189,-0.082C0.196,-0.077 0.206,-0.075 0.219,-0.075C0.229,-0.075 0.242,-0.076 0.258,-0.079Z" style="fill:rgb(135,135,133);fill-rule:nonzero;"/>
        </g>
        <g transform="matrix(19.4508,0,0,19.4508,79.7988,86.8033)">
            <path d="M0.066,0L0.066,-0.716L0.154,-0.716L0.154,-0.459C0.195,-0.507 0.247,-0.53 0.309,-0.53C0.347,-0.53 0.381,-0.523 0.409,-0.508C0.438,-0.492 0.458,-0.472 0.47,-0.445C0.482,-0.418 0.488,-0.379 0.488,-0.329L0.488,0L0.4,0L0.4,-0.329C0.4,-0.373 0.391,-0.405 0.372,-0.425C0.353,-0.445 0.326,-0.455 0.291,-0.455C0.265,-0.455 0.24,-0.448 0.218,-0.434C0.195,-0.421 0.178,-0.403 0.168,-0.379C0.159,-0.356 0.154,-0.324 0.154,-0.284L0.154,0L0.066,0Z" style="fill:rgb(135,135,133);fill-rule:nonzero;"/>
        </g>
        <g transform="matrix(19.4508,0,0,19.4508,90.6164,86.8033)">
            <path d="M0.421,-0.167L0.512,-0.156C0.497,-0.103 0.471,-0.062 0.432,-0.032C0.393,-0.003 0.344,0.012 0.284,0.012C0.208,0.012 0.148,-0.012 0.103,-0.058C0.059,-0.105 0.037,-0.171 0.037,-0.255C0.037,-0.342 0.059,-0.41 0.104,-0.458C0.149,-0.506 0.207,-0.53 0.279,-0.53C0.348,-0.53 0.405,-0.507 0.449,-0.459C0.493,-0.412 0.515,-0.346 0.515,-0.26C0.515,-0.255 0.514,-0.247 0.514,-0.237L0.127,-0.237C0.131,-0.18 0.147,-0.136 0.176,-0.106C0.205,-0.076 0.241,-0.061 0.284,-0.061C0.316,-0.061 0.344,-0.069 0.367,-0.086C0.389,-0.103 0.408,-0.13 0.421,-0.167ZM0.132,-0.309L0.422,-0.309C0.418,-0.353 0.407,-0.385 0.389,-0.407C0.361,-0.441 0.324,-0.458 0.28,-0.458C0.239,-0.458 0.205,-0.444 0.178,-0.417C0.15,-0.39 0.135,-0.354 0.132,-0.309Z" style="fill:rgb(135,135,133);fill-rule:nonzero;"/>
        </g>
        <g transform="matrix(19.4508,0,0,19.4508,106.838,86.8033)">
            <path d="M0.066,0L0.066,-0.716L0.154,-0.716L0.154,-0.459C0.195,-0.507 0.247,-0.53 0.309,-0.53C0.347,-0.53 0.381,-0.523 0.409,-0.508C0.438,-0.492 0.458,-0.472 0.47,-0.445C0.482,-0.418 0.488,-0.379 0.488,-0.329L0.488,0L0.4,0L0.4,-0.329C0.4,-0.373 0.391,-0.405 0.372,-0.425C0.353,-0.445 0.326,-0.455 0.291,-0.455C0.265,-0.455 0.24,-0.448 0.218,-0.434C0.195,-0.421 0.178,-0.403 0.168,-0.379C0.159,-0.356 0.154,-0.324 0.154,-0.284L0.154,0L0.066,0Z" style="fill:rgb(135,135,133);fill-rule:nonzero;"/>
        </g>
        <g transform="matrix(19.4508,0,0,19.4508,117.656,86.8033)">
            <path d="M0.421,-0.167L0.512,-0.156C0.497,-0.103 0.471,-0.062 0.432,-0.032C0.393,-0.003 0.344,0.012 0.284,0.012C0.208,0.012 0.148,-0.012 0.103,-0.058C0.059,-0.105 0.037,-0.171 0.037,-0.255C0.037,-0.342 0.059,-0.41 0.104,-0.458C0.149,-0.506 0.207,-0.53 0.279,-0.53C0.348,-0.53 0.405,-0.507 0.449,-0.459C0.493,-0.412 0.515,-0.346 0.515,-0.26C0.515,-0.255 0.514,-0.247 0.514,-0.237L0.127,-0.237C0.131,-0.18 0.147,-0.136 0.176,-0.106C0.205,-0.076 0.241,-0.061 0.284,-0.061C0.316,-0.061 0.344,-0.069 0.367,-0.086C0.389,-0.103 0.408,-0.13 0.421,-0.167ZM0.132,-0.309L0.422,-0.309C0.418,-0.353 0.407,-0.385 0.389,-0.407C0.361,-0.441 0.324,-0.458 0.28,-0.458C0.239,-0.458 0.205,-0.444 0.178,-0.417C0.15,-0.39 0.135,-0.354 0.132,-0.309Z" style="fill:rgb(135,135,133);fill-rule:nonzero;"/>
        </g>
        <g transform="matrix(19.4508,0,0,19.4508,128.473,86.8033)">
            <path d="M0.404,-0.064C0.372,-0.036 0.34,-0.017 0.31,-0.005C0.28,0.006 0.248,0.012 0.213,0.012C0.156,0.012 0.113,-0.002 0.082,-0.03C0.051,-0.058 0.036,-0.093 0.036,-0.137C0.036,-0.162 0.042,-0.185 0.053,-0.206C0.065,-0.227 0.08,-0.244 0.099,-0.257C0.118,-0.27 0.139,-0.279 0.162,-0.286C0.179,-0.29 0.205,-0.295 0.24,-0.299C0.311,-0.307 0.363,-0.317 0.397,-0.329C0.397,-0.341 0.397,-0.349 0.397,-0.352C0.397,-0.388 0.389,-0.413 0.373,-0.428C0.35,-0.448 0.317,-0.458 0.272,-0.458C0.231,-0.458 0.201,-0.45 0.181,-0.436C0.161,-0.421 0.147,-0.396 0.137,-0.359L0.051,-0.371C0.059,-0.407 0.072,-0.437 0.09,-0.46C0.108,-0.482 0.134,-0.5 0.167,-0.512C0.201,-0.524 0.241,-0.53 0.285,-0.53C0.329,-0.53 0.365,-0.525 0.393,-0.515C0.421,-0.504 0.441,-0.491 0.454,-0.475C0.467,-0.46 0.476,-0.44 0.481,-0.416C0.484,-0.401 0.486,-0.374 0.486,-0.334L0.486,-0.217C0.486,-0.136 0.488,-0.084 0.491,-0.062C0.495,-0.041 0.503,-0.02 0.514,0L0.422,0C0.413,-0.018 0.407,-0.04 0.404,-0.064ZM0.397,-0.26C0.365,-0.247 0.317,-0.236 0.253,-0.227C0.217,-0.222 0.192,-0.216 0.177,-0.209C0.162,-0.203 0.15,-0.193 0.142,-0.181C0.134,-0.168 0.13,-0.154 0.13,-0.139C0.13,-0.116 0.139,-0.096 0.156,-0.081C0.174,-0.065 0.2,-0.057 0.234,-0.057C0.268,-0.057 0.298,-0.065 0.325,-0.079C0.351,-0.094 0.37,-0.114 0.383,-0.14C0.392,-0.16 0.397,-0.189 0.397,-0.228L0.397,-0.26Z" style="fill:rgb(135,135,133);fill-rule:nonzero;"/>
        </g>
        <g transform="matrix(19.4508,0,0,19.4508,139.291,86.8033)">
            <path d="M0.065,0L0.065,-0.519L0.144,-0.519L0.144,-0.44C0.164,-0.477 0.183,-0.501 0.2,-0.513C0.217,-0.524 0.236,-0.53 0.256,-0.53C0.286,-0.53 0.316,-0.521 0.347,-0.502L0.316,-0.42C0.295,-0.433 0.273,-0.439 0.252,-0.439C0.233,-0.439 0.215,-0.434 0.2,-0.422C0.185,-0.411 0.174,-0.395 0.167,-0.374C0.158,-0.343 0.153,-0.309 0.153,-0.271L0.153,0L0.065,0Z" style="fill:rgb(135,135,133);fill-rule:nonzero;"/>
        </g>
        <g transform="matrix(19.4508,0,0,19.4508,145.768,86.8033)">
            <path d="M0.066,-0.615L0.066,-0.716L0.154,-0.716L0.154,-0.615L0.066,-0.615ZM0.066,0L0.066,-0.519L0.154,-0.519L0.154,0L0.066,0Z" style="fill:rgb(135,135,133);fill-rule:nonzero;"/>
        </g>
        <g transform="matrix(19.4508,0,0,19.4508,150.09,86.8033)">
            <path d="M0.066,0L0.066,-0.519L0.145,-0.519L0.145,-0.445C0.183,-0.502 0.238,-0.53 0.31,-0.53C0.341,-0.53 0.37,-0.525 0.396,-0.513C0.422,-0.502 0.442,-0.487 0.455,-0.469C0.468,-0.451 0.477,-0.429 0.482,-0.404C0.486,-0.388 0.487,-0.36 0.487,-0.319L0.487,0L0.399,0L0.399,-0.315C0.399,-0.351 0.396,-0.378 0.389,-0.396C0.382,-0.413 0.37,-0.428 0.353,-0.438C0.335,-0.449 0.315,-0.454 0.292,-0.454C0.254,-0.454 0.222,-0.442 0.195,-0.418C0.167,-0.395 0.154,-0.35 0.154,-0.283L0.154,0L0.066,0Z" style="fill:rgb(135,135,133);fill-rule:nonzero;"/>
        </g>
        <g transform="matrix(19.4508,0,0,19.4508,160.907,86.8033)">
            <path d="M0.05,0.043L0.135,0.056C0.139,0.082 0.149,0.101 0.165,0.113C0.187,0.13 0.217,0.138 0.254,0.138C0.295,0.138 0.326,0.13 0.349,0.113C0.371,0.097 0.386,0.074 0.394,0.045C0.398,0.027 0.4,-0.011 0.4,-0.068C0.361,-0.023 0.314,0 0.256,0C0.185,0 0.13,-0.026 0.091,-0.077C0.052,-0.129 0.032,-0.19 0.032,-0.262C0.032,-0.312 0.041,-0.357 0.059,-0.399C0.077,-0.441 0.103,-0.473 0.137,-0.496C0.171,-0.519 0.211,-0.53 0.257,-0.53C0.318,-0.53 0.368,-0.506 0.408,-0.456L0.408,-0.519L0.489,-0.519L0.489,-0.07C0.489,0.01 0.481,0.068 0.465,0.101C0.448,0.135 0.422,0.162 0.386,0.181C0.351,0.201 0.307,0.21 0.255,0.21C0.193,0.21 0.143,0.197 0.105,0.169C0.067,0.141 0.049,0.099 0.05,0.043ZM0.123,-0.269C0.123,-0.201 0.136,-0.151 0.163,-0.12C0.19,-0.088 0.224,-0.073 0.265,-0.073C0.305,-0.073 0.339,-0.088 0.366,-0.119C0.394,-0.15 0.407,-0.199 0.407,-0.266C0.407,-0.329 0.393,-0.377 0.365,-0.409C0.337,-0.441 0.303,-0.458 0.263,-0.458C0.224,-0.458 0.191,-0.442 0.164,-0.41C0.136,-0.378 0.123,-0.331 0.123,-0.269Z" style="fill:rgb(135,135,133);fill-rule:nonzero;"/>
        </g>
        <g transform="matrix(19.4508,0,0,19.4508,177.129,86.8033)">
            <path d="M0.404,-0.19L0.491,-0.179C0.481,-0.119 0.457,-0.073 0.418,-0.039C0.379,-0.005 0.332,0.012 0.275,0.012C0.204,0.012 0.147,-0.011 0.104,-0.058C0.061,-0.104 0.039,-0.171 0.039,-0.257C0.039,-0.313 0.048,-0.362 0.067,-0.404C0.085,-0.446 0.114,-0.478 0.152,-0.499C0.19,-0.52 0.231,-0.53 0.275,-0.53C0.332,-0.53 0.378,-0.516 0.414,-0.488C0.449,-0.459 0.472,-0.419 0.482,-0.366L0.397,-0.353C0.389,-0.388 0.374,-0.414 0.354,-0.432C0.333,-0.449 0.308,-0.458 0.279,-0.458C0.235,-0.458 0.199,-0.442 0.171,-0.41C0.143,-0.379 0.129,-0.328 0.129,-0.26C0.129,-0.19 0.143,-0.139 0.169,-0.108C0.196,-0.076 0.231,-0.061 0.274,-0.061C0.308,-0.061 0.337,-0.071 0.36,-0.092C0.383,-0.113 0.398,-0.146 0.404,-0.19Z" style="fill:rgb(135,135,133);fill-rule:nonzero;"/>
        </g>
        <g transform="matrix(19.4508,0,0,19.4508,186.854,86.8033)">
            <path d="M0.033,-0.259C0.033,-0.355 0.06,-0.426 0.113,-0.473C0.158,-0.511 0.212,-0.53 0.276,-0.53C0.348,-0.53 0.406,-0.507 0.451,-0.46C0.496,-0.413 0.519,-0.349 0.519,-0.267C0.519,-0.2 0.509,-0.147 0.489,-0.109C0.469,-0.071 0.44,-0.041 0.402,-0.02C0.363,0.001 0.322,0.012 0.276,0.012C0.204,0.012 0.145,-0.012 0.1,-0.058C0.056,-0.105 0.033,-0.172 0.033,-0.259ZM0.124,-0.259C0.124,-0.193 0.138,-0.143 0.167,-0.11C0.196,-0.077 0.232,-0.061 0.276,-0.061C0.32,-0.061 0.356,-0.077 0.385,-0.11C0.414,-0.144 0.429,-0.194 0.429,-0.262C0.429,-0.326 0.414,-0.375 0.385,-0.408C0.356,-0.441 0.32,-0.458 0.276,-0.458C0.232,-0.458 0.196,-0.441 0.167,-0.408C0.138,-0.375 0.124,-0.326 0.124,-0.259Z" style="fill:rgb(135,135,133);fill-rule:nonzero;"/>
        </g>
        <g transform="matrix(19.4508,0,0,19.4508,197.672,86.8033)">
            <path d="M0.066,0L0.066,-0.519L0.145,-0.519L0.145,-0.446C0.161,-0.471 0.182,-0.492 0.209,-0.507C0.236,-0.523 0.267,-0.53 0.302,-0.53C0.34,-0.53 0.372,-0.522 0.396,-0.506C0.421,-0.49 0.438,-0.468 0.448,-0.439C0.489,-0.5 0.543,-0.53 0.608,-0.53C0.66,-0.53 0.699,-0.516 0.727,-0.488C0.755,-0.459 0.769,-0.415 0.769,-0.356L0.769,0L0.681,0L0.681,-0.327C0.681,-0.362 0.678,-0.387 0.673,-0.403C0.667,-0.418 0.657,-0.431 0.642,-0.44C0.627,-0.449 0.609,-0.454 0.589,-0.454C0.552,-0.454 0.522,-0.442 0.498,-0.418C0.474,-0.393 0.462,-0.355 0.462,-0.301L0.462,0L0.374,0L0.374,-0.337C0.374,-0.376 0.367,-0.405 0.353,-0.425C0.338,-0.444 0.315,-0.454 0.282,-0.454C0.257,-0.454 0.235,-0.448 0.214,-0.435C0.193,-0.422 0.177,-0.403 0.168,-0.377C0.159,-0.352 0.154,-0.316 0.154,-0.269L0.154,0L0.066,0Z" style="fill:rgb(135,135,133);fill-rule:nonzero;"/>
        </g>
        <g transform="matrix(19.4508,0,0,19.4508,213.875,86.8033)">
            <path d="M0.066,0.199L0.066,-0.519L0.146,-0.519L0.146,-0.451C0.165,-0.478 0.186,-0.497 0.21,-0.51C0.234,-0.524 0.263,-0.53 0.296,-0.53C0.341,-0.53 0.38,-0.519 0.414,-0.496C0.447,-0.473 0.473,-0.441 0.49,-0.4C0.507,-0.358 0.516,-0.313 0.516,-0.263C0.516,-0.21 0.507,-0.162 0.488,-0.12C0.469,-0.077 0.441,-0.045 0.405,-0.022C0.368,0 0.33,0.012 0.29,0.012C0.261,0.012 0.234,0.006 0.211,-0.007C0.188,-0.019 0.169,-0.035 0.154,-0.054L0.154,0.199L0.066,0.199ZM0.146,-0.256C0.146,-0.19 0.159,-0.14 0.186,-0.108C0.213,-0.076 0.246,-0.061 0.284,-0.061C0.323,-0.061 0.357,-0.077 0.385,-0.11C0.412,-0.143 0.426,-0.194 0.426,-0.264C0.426,-0.33 0.413,-0.379 0.385,-0.412C0.358,-0.445 0.326,-0.461 0.288,-0.461C0.251,-0.461 0.218,-0.444 0.189,-0.409C0.16,-0.374 0.146,-0.323 0.146,-0.256Z" style="fill:rgb(135,135,133);fill-rule:nonzero;"/>
        </g>
        <g transform="matrix(19.4508,0,0,19.4508,224.692,86.8033)">
            <path d="M0.404,-0.064C0.372,-0.036 0.34,-0.017 0.31,-0.005C0.28,0.006 0.248,0.012 0.213,0.012C0.156,0.012 0.113,-0.002 0.082,-0.03C0.051,-0.058 0.036,-0.093 0.036,-0.137C0.036,-0.162 0.042,-0.185 0.053,-0.206C0.065,-0.227 0.08,-0.244 0.099,-0.257C0.118,-0.27 0.139,-0.279 0.162,-0.286C0.179,-0.29 0.205,-0.295 0.24,-0.299C0.311,-0.307 0.363,-0.317 0.397,-0.329C0.397,-0.341 0.397,-0.349 0.397,-0.352C0.397,-0.388 0.389,-0.413 0.373,-0.428C0.35,-0.448 0.317,-0.458 0.272,-0.458C0.231,-0.458 0.201,-0.45 0.181,-0.436C0.161,-0.421 0.147,-0.396 0.137,-0.359L0.051,-0.371C0.059,-0.407 0.072,-0.437 0.09,-0.46C0.108,-0.482 0.134,-0.5 0.167,-0.512C0.201,-0.524 0.241,-0.53 0.285,-0.53C0.329,-0.53 0.365,-0.525 0.393,-0.515C0.421,-0.504 0.441,-0.491 0.454,-0.475C0.467,-0.46 0.476,-0.44 0.481,-0.416C0.484,-0.401 0.486,-0.374 0.486,-0.334L0.486,-0.217C0.486,-0.136 0.488,-0.084 0.491,-0.062C0.495,-0.041 0.503,-0.02 0.514,0L0.422,0C0.413,-0.018 0.407,-0.04 0.404,-0.064ZM0.397,-0.26C0.365,-0.247 0.317,-0.236 0.253,-0.227C0.217,-0.222 0.192,-0.216 0.177,-0.209C0.162,-0.203 0.15,-0.193 0.142,-0.181C0.134,-0.168 0.13,-0.154 0.13,-0.139C0.13,-0.116 0.139,-0.096 0.156,-0.081C0.174,-0.065 0.2,-0.057 0.234,-0.057C0.268,-0.057 0.298,-0.065 0.325,-0.079C0.351,-0.094 0.37,-0.114 0.383,-0.14C0.392,-0.16 0.397,-0.189 0.397,-0.228L0.397,-0.26Z" style="fill:rgb(135,135,133);fill-rule:nonzero;"/>
        </g>
        <g transform="matrix(19.4508,0,0,19.4508,235.51,86.8033)">
            <path d="M0.066,0L0.066,-0.519L0.145,-0.519L0.145,-0.445C0.183,-0.502 0.238,-0.53 0.31,-0.53C0.341,-0.53 0.37,-0.525 0.396,-0.513C0.422,-0.502 0.442,-0.487 0.455,-0.469C0.468,-0.451 0.477,-0.429 0.482,-0.404C0.486,-0.388 0.487,-0.36 0.487,-0.319L0.487,0L0.399,0L0.399,-0.315C0.399,-0.351 0.396,-0.378 0.389,-0.396C0.382,-0.413 0.37,-0.428 0.353,-0.438C0.335,-0.449 0.315,-0.454 0.292,-0.454C0.254,-0.454 0.222,-0.442 0.195,-0.418C0.167,-0.395 0.154,-0.35 0.154,-0.283L0.154,0L0.066,0Z" style="fill:rgb(135,135,133);fill-rule:nonzero;"/>
        </g>
        <g transform="matrix(19.4508,0,0,19.4508,246.327,86.8033)">
            <path d="M0.062,0.2L0.052,0.117C0.071,0.122 0.088,0.125 0.103,0.125C0.122,0.125 0.138,0.122 0.149,0.115C0.161,0.109 0.171,0.1 0.178,0.088C0.184,0.079 0.193,0.057 0.205,0.022C0.207,0.018 0.209,0.01 0.213,0.001L0.016,-0.519L0.111,-0.519L0.219,-0.218C0.233,-0.18 0.245,-0.14 0.256,-0.098C0.266,-0.139 0.278,-0.178 0.292,-0.216L0.403,-0.519L0.491,-0.519L0.294,0.009C0.273,0.066 0.256,0.105 0.245,0.126C0.229,0.155 0.211,0.177 0.191,0.19C0.171,0.204 0.147,0.21 0.119,0.21C0.102,0.21 0.083,0.207 0.062,0.2Z" style="fill:rgb(135,135,133);fill-rule:nonzero;"/>
        </g>
    </g>
</svg>
