<?xml version="1.0" encoding="UTF-8" standalone="no"?>
<!DOCTYPE svg PUBLIC "-//W3C//DTD SVG 1.1//EN" "http://www.w3.org/Graphics/SVG/1.1/DTD/svg11.dtd">
<svg width="100%" height="100%" viewBox="0 0 300 100" version="1.1" xmlns="http://www.w3.org/2000/svg" xmlns:xlink="http://www.w3.org/1999/xlink" xml:space="preserve" xmlns:serif="http://www.serif.com/" style="fill-rule:evenodd;clip-rule:evenodd;stroke-linejoin:round;stroke-miterlimit:2;">
    <g transform="matrix(3.72696,0,0,3.72696,0.310968,18.6244)">
        <path d="M54.15,0.181L54.15,15.068L56.704,15.068L56.704,5.977C57.21,5.616 58.146,5.354 59.203,5.317C59.485,5.31 60.023,5.311 60.372,5.317C62.203,5.357 63.017,6.163 63.017,7.966L63.017,15.068L65.573,15.068L65.573,7.724C65.573,4.619 64.255,3.351 61.086,3.297C60.468,3.286 60.001,3.288 59.388,3.299C58.41,3.321 57.464,3.506 56.705,3.957L56.705,0.181L54.15,0.181" style="fill:rgb(0,129,198);fill-rule:nonzero;"/>
    </g>
    <g transform="matrix(3.72696,0,0,3.72696,0.310968,18.6244)">
        <path d="M51.524,12.922C50.997,12.974 50.472,12.996 50.058,12.996C48.176,12.996 47.563,12.498 47.563,10.439L47.563,5.201L51.028,5.201L51.028,3.297L47.563,3.297L47.563,0.181L45.006,0.181L45.006,3.297L42.279,3.297L42.279,5.201L45.006,5.201L45.006,10.082C45.006,13.767 46.281,15.068 49.703,15.068C50.227,15.068 50.916,15.034 51.523,14.968L51.523,12.922" style="fill:rgb(0,129,198);fill-rule:nonzero;"/>
    </g>
    <g transform="matrix(3.72696,0,0,3.72696,0.310968,18.6244)">
        <path d="M23.85,4.277C23.155,3.69 22.135,3.391 20.665,3.321C20.155,3.292 19.806,3.286 18.915,3.321C17.297,3.369 15.587,3.844 14.391,4.601L14.391,15.068L16.946,15.068L16.946,5.852C17.52,5.498 18.419,5.348 19.043,5.326C19.609,5.31 19.945,5.301 20.418,5.326C21.786,5.398 22.568,5.959 22.568,7.432L22.568,15.068L25.123,15.068L25.123,7.582C25.123,6.956 25.049,6.443 24.915,6C25.441,5.552 26.427,5.327 27.107,5.302C27.675,5.285 28.048,5.277 28.525,5.302C29.936,5.374 30.672,5.935 30.672,7.408L30.672,15.068L33.228,15.068L33.228,7.558C33.228,4.542 32.037,3.34 28.773,3.297C28.228,3.289 27.997,3.284 27.106,3.297C25.889,3.316 24.658,3.651 23.85,4.277" style="fill:rgb(0,129,198);fill-rule:nonzero;"/>
    </g>
    <g transform="matrix(3.72696,0,0,3.72696,0.310968,18.6244)">
        <path d="M6.653,10.025C8.671,10.275 9.371,10.263 9.371,11.602C9.371,12.72 9.17,13.086 7.485,13.086L0.46,13.086L0.46,15.068L7.264,15.068C10.46,15.068 11.854,14.224 11.94,12.072C11.95,11.806 11.95,11.167 11.94,10.856C11.877,8.931 10.686,8.441 8.14,8.138L5.442,7.814C3.458,7.571 2.766,7.614 2.766,6.418C2.766,5.623 3.095,5.287 4.382,5.287L10.918,5.287L10.918,3.297L4.552,3.297C1.65,3.297 0.169,4.012 0.169,6.19C0.169,6.458 0.159,6.599 0.169,6.909C0.233,8.837 1.29,9.379 3.936,9.696L6.653,10.025" style="fill:rgb(0,129,198);fill-rule:nonzero;"/>
    </g>
    <g transform="matrix(3.72696,0,0,3.72696,0.310968,18.6244)">
        <path d="M74.548,10.025C76.567,10.275 77.268,10.263 77.268,11.602C77.268,12.721 77.067,13.086 75.38,13.086L68.359,13.086L68.359,15.068L75.161,15.068C78.353,15.068 79.747,14.224 79.836,12.072C79.845,11.806 79.845,11.167 79.836,10.856C79.773,8.931 78.582,8.441 76.033,8.138L73.34,7.814C71.354,7.571 70.662,7.614 70.662,6.418C70.662,5.623 70.99,5.287 72.277,5.287L78.816,5.287L78.816,3.297L72.446,3.297C69.544,3.297 68.064,4.012 68.064,6.19C68.064,6.458 68.055,6.599 68.064,6.909C68.127,8.837 69.184,9.379 71.832,9.696L74.548,10.025" style="fill:rgb(0,129,198);fill-rule:nonzero;"/>
    </g>
    <g transform="matrix(3.72696,0,0,3.72696,0.310968,18.6244)">
        <path d="M36.632,3.297L36.632,10.059C36.632,13.186 37.4,15.068 41.22,15.068C41.61,15.068 42.158,15.05 42.465,15.021L42.463,12.95C42.255,12.959 41.938,12.97 41.691,12.97C39.647,12.97 39.186,12.349 39.186,10.416L39.186,3.297L36.632,3.297" style="fill:rgb(0,129,198);fill-rule:nonzero;"/>
    </g>
</svg>
