<?xml version="1.0" encoding="UTF-8" standalone="no"?>
<!DOCTYPE svg PUBLIC "-//W3C//DTD SVG 1.1//EN" "http://www.w3.org/Graphics/SVG/1.1/DTD/svg11.dtd">
<svg width="100%" height="100%" viewBox="0 0 300 100" version="1.1" xmlns="http://www.w3.org/2000/svg" xmlns:xlink="http://www.w3.org/1999/xlink" xml:space="preserve" xmlns:serif="http://www.serif.com/" style="fill-rule:evenodd;clip-rule:evenodd;stroke-linejoin:round;stroke-miterlimit:2;">
    <path d="M71.301,12.582L8.416,12.582L8.416,48.607C10.289,67.46 20.482,81.219 39.768,89.412C57.385,81.177 69.898,69.086 71.301,48.607L71.301,12.582Z" style="fill:rgb(255,219,0);"/>
    <g transform="matrix(1,0,0,1,1.1855,-2.5175)">
        <path d="M57.764,79.02C52.749,84.136 46.302,88.408 38.582,91.93C24.816,85.913 20.29,80.147 19.339,79.02L38.608,58.574L57.764,79.02ZM28.506,47.73L11.123,66.566C8.997,61.704 7.646,56.378 7.231,50.608L7.231,24.938L28.506,47.73ZM70.116,25.104L70.116,50.608C69.773,56.461 68.554,61.777 66.406,66.566L48.857,47.73L70.116,25.104ZM38.608,36.857L18.395,15.099L58.864,15.099L38.608,36.857Z" style="fill:rgb(0,34,168);"/>
    </g>
    <path d="M106.747,55.668L110.164,55.668L112.217,64.387L113.738,55.668L116.971,55.668L113.738,69.164C113,71.942 110.952,73.135 107.751,72.933L107.751,70.505C109.563,70.54 110.6,69.822 110.164,67.671L106.747,55.668ZM291.584,72.863L286.974,72.863L286.974,10.588L291.584,10.588L291.584,72.863ZM157.656,64.196L160.873,64.196C160.778,65.757 161.674,66.242 162.907,66.102C164.51,65.921 164.65,63.963 162.907,63.484C159.615,62.58 157.845,61.767 157.874,59.467C157.801,56.786 159.09,55.643 160.873,55.417C163.426,55.106 165.132,55.427 166.08,56.314C167.067,57.539 167.225,58.424 167.204,59.467L163.988,59.467C164.15,58.207 163.301,57.826 161.611,58.016C160.6,58.953 161.267,59.841 162.906,60.205C165.037,60.678 166.59,61.28 167.203,62.813C167.762,64.972 167.291,66.568 166.079,67.757C163.719,69.366 161.395,69.392 159.107,67.757C158.029,66.796 157.633,65.576 157.656,64.196ZM135.112,68.385L131.419,68.385L130.565,67.435C129.677,68.26 128.531,68.759 127.133,68.938C124.049,68.945 122.018,68.092 121.527,65.982C120.446,63.441 121.107,61.086 124.666,59.037C123.661,58.222 123.062,57.08 122.8,55.668C122.713,52.909 124.25,51.564 127.133,51.39C131.859,51.687 133.314,55.695 128.59,59.588L130.93,62.75C131.662,62.111 131.361,61.537 131.419,60.406L134.662,60.406C134.462,62.211 133.911,63.928 132.878,65.525L135.112,68.385ZM233.169,55.701L236.368,55.593L236.368,63.304C236.419,67.138 239.306,67.165 239.681,63.304L239.681,55.701L242.993,55.701L242.993,68.379L239.681,68.45L239.681,66.859C239.306,68.18 237.634,69.045 236.368,68.918C233.807,68.676 233.153,66.967 233.169,64.516L233.169,55.701ZM94.443,62.071C94.972,66.254 93.454,68.707 89.248,68.887C86.051,69.129 84.021,67.561 83.519,63.617L83.519,57.145C83.662,53.062 85.572,51.067 89.248,51.157C92.506,51.235 94.753,52.584 94.443,57.145L91.09,57.145C90.95,52.042 87.032,53.065 86.962,57.145L86.962,62.071C86.804,64.96 87.483,66.506 89.248,66.31C90.686,66.322 91.259,64.837 91.09,62.071L94.443,62.071ZM265.027,63.796C265.516,66.924 264.114,68.758 260.229,68.893C257.276,69.074 255.399,67.902 254.937,64.952L254.937,60.113C255.069,57.061 256.832,55.568 260.229,55.636C263.239,55.695 265.315,56.703 265.027,60.113L261.931,60.113C261.8,56.297 258.182,57.062 258.118,60.113L258.118,63.796C257.971,65.957 258.599,67.113 260.229,66.967C261.557,66.975 262.086,65.865 261.931,63.796L265.027,63.796ZM196.61,63.796C197.099,66.924 195.697,68.758 191.812,68.893C188.859,69.074 186.982,67.902 186.52,64.952L186.52,60.113C186.652,57.061 188.416,55.568 191.812,55.636C194.821,55.694 196.897,56.702 196.61,60.113L193.514,60.113C193.383,56.297 189.764,57.062 189.701,60.113L189.701,63.796C189.553,65.957 190.182,67.113 191.812,66.967C193.14,66.975 193.669,65.865 193.514,63.796L196.61,63.796ZM220.77,62.126C221.299,66.275 219.783,68.708 215.58,68.887C212.386,69.127 210.357,67.572 209.857,63.659L209.857,57.239C209.999,53.19 211.907,51.21 215.58,51.3C218.836,51.377 221.081,52.715 220.77,57.239L217.421,57.239C217.282,52.177 213.367,53.192 213.297,57.239L213.297,62.126C213.138,64.993 213.817,66.526 215.58,66.332C217.017,66.342 217.59,64.87 217.421,62.126L220.77,62.126ZM226.94,55.31C230.064,55.467 232.033,58.251 232.029,62.095C232.027,66.224 230.047,68.742 226.94,68.881C223.848,69.018 221.845,66.475 221.851,62.095C221.857,58.01 223.917,55.158 226.94,55.31ZM104.952,52.153L104.952,55.734L106.676,55.734L106.676,57.966L104.952,57.966L104.952,64.575C104.892,65.853 105.126,66.41 106.676,66.482L106.676,68.553C103.383,68.617 101.31,68.991 101.295,65.922L101.295,57.966L99.777,57.966L99.777,55.734L101.295,55.734L101.295,52.153L104.952,52.153ZM172.618,52.153L172.618,55.734L174.342,55.734L174.342,57.966L172.618,57.966L172.618,64.575C172.558,65.853 172.791,66.41 174.342,66.482L174.342,68.553C171.049,68.617 168.975,68.991 168.961,65.922L168.961,57.966L167.443,57.966L167.443,55.734L168.961,55.734L168.961,52.153L172.618,52.153ZM198.134,52.153L201.79,52.153L201.79,55.734L203.514,55.734L203.514,57.966L201.79,57.966L201.79,64.575C201.73,65.853 201.963,66.41 203.514,66.482L203.514,68.553C200.22,68.617 198.148,68.991 198.134,65.922L198.134,57.966L196.615,57.966L196.615,55.734L198.134,55.734L198.134,52.153ZM247.481,68.473L244.169,68.473L244.169,55.794L247.481,55.724L247.481,57.314C247.856,55.993 249.529,55.128 250.794,55.256C253.355,55.498 254.009,57.206 253.994,59.657L253.994,68.473L250.794,68.581L250.794,60.869C250.743,57.036 247.855,57.008 247.481,60.869L247.481,68.473ZM178.032,68.524L175.017,68.524L175.017,55.7L178.032,55.7L178.032,57.235C179.404,55.555 180.616,55.164 181.71,55.7L181.71,58.491C179.946,58.252 178.635,58.805 178.032,60.602L178.032,68.524ZM274.205,68.472L270.991,68.472L270.991,51.287L274.205,51.287L274.205,68.472ZM269.205,68.472L265.991,68.472L265.991,55.813L269.205,55.813L269.205,68.472ZM156.976,68.472L153.762,68.472L153.762,55.813L156.976,55.813L156.976,68.472ZM98.934,68.472L95.72,68.472L95.72,55.813L98.934,55.813L98.934,68.472ZM185.794,68.472L182.58,68.472L182.58,55.813L185.794,55.813L185.794,68.472ZM148.091,68.385L140.9,68.385L140.9,51.39L148.091,51.39C153.786,52.933 153.998,68.139 148.091,68.385ZM225.405,59.896C225.937,56.789 227.996,56.908 228.577,59.896L228.577,64.126C228.381,67.367 225.777,67.726 225.405,64.126L225.405,59.896ZM126.198,61.144L129.087,65.093C125.525,68.367 122.359,63.651 126.198,61.144ZM146.979,54.067L144.472,54.067L144.472,66.09L146.979,66.09C149.672,64.612 149.573,55.389 146.979,54.067ZM126.99,57.307C125.613,55.864 124.894,54.51 126.99,53.535C129.094,54.329 129.118,55.567 126.99,57.307ZM153.762,51.35L156.976,51.35L156.976,54.168L153.762,54.168L153.762,51.35ZM182.58,51.35L185.794,51.35L185.794,54.168L182.58,54.168L182.58,51.35ZM265.991,51.35L269.205,51.35L269.205,54.168L265.991,54.168L265.991,51.35ZM98.934,51.35L98.934,54.168L95.72,54.168L95.72,51.35L98.934,51.35ZM253.159,36.346L260.395,36.346C260.181,39.096 262.197,39.95 264.971,39.704C268.577,39.385 268.893,35.936 264.971,35.093C257.563,33.5 253.583,32.067 253.646,28.016C253.481,23.294 256.383,21.281 260.395,20.884C266.139,20.335 269.977,20.9 272.11,22.462C274.332,24.622 274.688,26.18 274.639,28.016L267.404,28.016C267.768,25.797 265.859,25.126 262.058,25.46C259.783,27.112 261.282,28.675 264.971,29.316C269.766,30.15 273.259,31.21 274.639,33.91C275.897,37.715 274.837,40.524 272.11,42.619C266.801,45.454 261.57,45.499 256.422,42.619C253.996,40.925 253.103,38.776 253.159,36.346ZM226.938,43.99L219.312,43.99L218.714,41.75C215.57,45.679 207.367,45.737 204.571,41.75C202.791,38.081 203.118,34.805 206.46,32.092C209.213,30.894 212.328,30.392 215.517,30.034C218.821,29.76 220.805,26.39 215.517,25.319C212.899,25.487 211.558,26.33 211.457,28.19L204.571,28.286C204.649,23.705 207.553,20.429 215.517,20.441C222.464,20.451 225.871,23.074 225.901,28.19L225.901,40.58C225.831,41.867 225.999,43.008 226.938,43.99ZM178.922,12.582L186.577,12.539L186.577,23.375C188.312,20.371 196.354,18.333 200.648,24.554C203.123,29.421 203.387,34.93 200.648,39.938C197.666,45.39 189.249,46.42 186.034,41.457L186.034,43.799L178.922,43.99L178.922,12.582ZM91.495,33.344C91.4,36.337 93.263,37.928 97.086,38.117C103.776,38.435 104.287,32.437 97.086,31.353C89.047,30.144 83.833,27.227 84.433,20.796C84.729,15.301 89.176,12.622 96.372,11.809C107.019,12.489 109.481,17.002 109.336,21.847L101.511,21.847C101.579,17.088 93.031,18.194 92.597,20.243C91.868,23.683 98.545,24.34 104.443,25.684C110.166,28.33 112.532,32.642 109.357,39.705C106.524,43.193 102.209,44.51 97.086,44.642C87.764,44.55 83.701,40.3 83.059,33.344L91.495,33.344ZM121.816,14.075L121.816,20.796L126.504,20.796L126.504,25.975L121.816,25.975L121.816,35.648C121.909,38.098 123.606,38.728 126.504,38.753L126.504,44.061C119.86,44.178 114.467,44.391 114.437,38.753L114.437,25.975L110.608,25.975L110.608,20.796L114.437,20.796L114.437,14.075L121.816,14.075ZM236.301,43.799L228.612,43.799L228.612,21.35L236.301,21.226L236.301,24.042C237.173,21.703 241.054,20.172 243.991,20.397C249.939,20.825 251.457,23.851 251.421,28.19L251.421,43.799L243.991,43.99L243.991,30.336C243.966,25.693 237.246,25.242 236.301,30.336L236.301,43.799ZM168.092,12.582L175.991,12.582L175.991,43.799L168.092,43.799L168.092,12.582ZM168.092,43.799L159.714,43.799L157.98,38.343L146.906,38.343L145.088,43.799L136.49,43.799L148.387,12.291L156.471,12.291L168.092,43.799ZM218.714,33.368L218.714,36.464C217.761,39.52 215.613,40.682 212.169,39.724C210.865,38.429 210.202,36.493 212.744,34.842C214.744,34.501 216.738,34.055 218.714,33.368ZM190.505,26.123C193.04,26.123 195.098,29.015 195.098,32.577C195.098,36.139 193.04,39.031 190.505,39.031C187.97,39.031 185.913,36.139 185.913,32.577C185.913,29.015 187.97,26.123 190.505,26.123ZM148.842,32.092L155.777,32.092L152.524,21.35L148.842,32.092Z" style="fill:rgb(0,34,168);"/>
</svg>
