<?xml version="1.0" encoding="UTF-8" standalone="no"?>
<!DOCTYPE svg PUBLIC "-//W3C//DTD SVG 1.1//EN" "http://www.w3.org/Graphics/SVG/1.1/DTD/svg11.dtd">
<svg width="100%" height="100%" viewBox="0 0 300 100" version="1.1" xmlns="http://www.w3.org/2000/svg" xmlns:xlink="http://www.w3.org/1999/xlink" xml:space="preserve" xmlns:serif="http://www.serif.com/" style="fill-rule:evenodd;clip-rule:evenodd;stroke-linejoin:round;stroke-miterlimit:2;">
    <g id="SLA_Logo_Positive_RGB" transform="matrix(3.35543,0,0,3.35543,23,-7.82311)">
        <g id="Aberdeen" transform="matrix(1,0,0,1,-87.6904,13.6428)">
            <path d="M86,15.3C85.001,15.264 84.02,15.571 83.22,16.17C83.896,14.909 85.182,14.086 86.61,14C87.83,14 88.71,14.69 90.39,14.69C91.692,14.683 92.967,14.312 94.07,13.62C93.153,15.026 91.616,15.912 89.94,16C88.38,16 87.68,15.3 86,15.3Z" style="fill:rgb(26,156,227);fill-rule:nonzero;"/>
            <path d="M97.82,10.83C97.264,10.823 96.712,10.917 96.19,11.11L96.19,7.73L94.86,7.73L94.86,18C95.548,18.332 96.306,18.493 97.07,18.47C99.45,18.47 101.23,17.35 101.23,14.47C101.245,14.342 101.253,14.214 101.253,14.085C101.253,12.297 99.781,10.825 97.993,10.825C97.935,10.825 97.878,10.827 97.82,10.83ZM97.1,17.27C96.791,17.282 96.483,17.238 96.19,17.14L96.19,12.34C96.665,12.143 97.176,12.044 97.69,12.05C99.13,12.05 99.88,12.85 99.88,14.43C99.89,14.523 99.895,14.616 99.895,14.71C99.895,16.12 98.735,17.28 97.325,17.28C97.25,17.28 97.175,17.277 97.1,17.27ZM131.59,10.83C129.4,10.83 128.15,12.45 128.15,14.61C128.148,14.663 128.147,14.716 128.147,14.769C128.147,16.788 129.808,18.449 131.827,18.449C131.914,18.449 132.002,18.446 132.09,18.44C132.939,18.453 133.774,18.217 134.49,17.76L134,16.67C133.459,16.986 132.846,17.158 132.22,17.17C132.12,17.182 132.02,17.189 131.92,17.189C130.681,17.189 129.634,16.234 129.52,15L134.8,15L134.8,14.59C134.8,12.76 133.9,10.84 131.58,10.83L131.59,10.83ZM129.59,13.83C129.673,12.838 130.486,12.051 131.48,12C132.488,11.977 133.346,12.764 133.41,13.77L129.59,13.83ZM105.33,10.83C103.14,10.83 101.89,12.45 101.89,14.61C101.888,14.663 101.887,14.716 101.887,14.769C101.887,16.788 103.548,18.449 105.567,18.449C105.654,18.449 105.742,18.446 105.83,18.44C106.679,18.453 107.514,18.217 108.23,17.76L107.72,16.67C107.179,16.985 106.566,17.158 105.94,17.17C105.837,17.183 105.734,17.19 105.63,17.19C104.391,17.19 103.343,16.234 103.23,15L108.51,15L108.51,14.59C108.51,12.76 107.61,10.84 105.29,10.83L105.33,10.83ZM103.33,13.83C103.412,12.848 104.207,12.066 105.19,12C106.198,11.977 107.056,12.764 107.12,13.77L103.33,13.83ZM141.8,14.51L141.8,18.32L140.48,18.32L140.48,14.58C140.48,12.95 139.82,11.98 138.17,11.98C137.762,11.976 137.355,12.027 136.96,12.13L136.96,18.28L135.64,18.28L135.64,11.36C136.455,10.999 137.339,10.818 138.23,10.83C138.31,10.824 138.39,10.821 138.47,10.821C140.269,10.821 141.75,12.302 141.75,14.101C141.75,14.221 141.743,14.341 141.73,14.46L141.8,14.51ZM124.38,10.88C122.19,10.88 120.94,12.5 120.94,14.66C120.938,14.713 120.937,14.766 120.937,14.819C120.937,16.838 122.598,18.499 124.617,18.499C124.704,18.499 124.792,18.496 124.88,18.49C125.729,18.503 126.564,18.267 127.28,17.81L126.77,16.72C126.229,17.036 125.616,17.208 124.99,17.22C124.879,17.236 124.767,17.244 124.654,17.244C123.395,17.244 122.337,16.256 122.25,15L127.53,15L127.53,14.59C127.53,12.76 126.64,10.84 124.31,10.83L124.38,10.88ZM122.38,13.88C122.436,12.889 123.221,12.083 124.21,12C125.218,11.977 126.076,12.764 126.14,13.77L122.38,13.88ZM114.18,11.63L113.49,12.63C112.955,12.282 112.328,12.104 111.69,12.12C111.349,12.121 111.01,12.182 110.69,12.3L110.69,18.41L109.36,18.41L109.36,11.34C110.05,10.998 110.81,10.82 111.58,10.82C112.47,10.792 113.347,11.04 114.09,11.53L114.18,11.63ZM118.9,11.03C118.531,10.962 118.156,10.929 117.78,10.93C117.69,10.923 117.599,10.92 117.508,10.92C115.462,10.92 113.778,12.604 113.778,14.65C113.778,14.687 113.779,14.723 113.78,14.76C113.78,17.07 115.57,18.53 117.91,18.53C118.699,18.533 119.479,18.369 120.2,18.05L120.2,7.73L118.88,7.73L118.9,11.03ZM118.9,17.26C118.603,17.338 118.297,17.371 117.99,17.36C116.37,17.36 115.12,16.45 115.12,14.73C115.115,14.666 115.112,14.602 115.112,14.538C115.112,13.205 116.209,12.108 117.542,12.108C117.652,12.108 117.761,12.115 117.87,12.13C118.208,12.128 118.544,12.172 118.87,12.26L118.9,17.26ZM86,15.79L86.46,15.79L85.25,18.26L83.53,18.26L84.73,15.92C85.146,15.823 85.573,15.779 86,15.79ZM92.92,15.5L94.34,18.28L92.63,18.28L91.63,16.19C92.075,16.011 92.495,15.776 92.88,15.49L92.92,15.5ZM92.11,13.91C91.631,14.043 91.137,14.121 90.64,14.14L88.92,10.7L87.51,13.58C87.215,13.514 86.913,13.481 86.61,13.48C86.392,13.481 86.174,13.501 85.96,13.54L88.96,7.76L92.11,13.91Z" style="fill:rgb(0,45,115);fill-rule:nonzero;"/>
        </g>
        <g id="Standard_Life" transform="matrix(1,0,0,1,-4.47037,2.3842)">
            <path d="M5.07,13.18C5.902,13.66 6.379,14.584 6.29,15.54C6.29,17.44 5.14,18.31 2.89,18.37C1.953,18.394 1.018,18.269 0.12,18L0.12,16.34C0.73,16.44 1.48,16.53 2.22,16.57C2.743,16.675 3.285,16.612 3.77,16.39C4.019,16.206 4.14,15.894 4.08,15.59C4.02,15.27 3.88,15.1 3.39,14.78C2.9,14.46 2.24,14.07 1.78,13.78C0.38,13 0,12.48 0,11.27C0,9.4 1,8.61 3.36,8.61C4.169,8.616 4.974,8.717 5.76,8.91L5.76,10.65C4.992,10.497 4.213,10.407 3.43,10.38C2.84,10.38 2.43,10.38 2.27,10.62C2.148,10.76 2.094,10.946 2.12,11.13C2.12,11.52 2.41,11.66 2.94,11.97C3.47,12.28 4.53,12.82 5.08,13.19M9.94,18.38C10.451,18.385 10.961,18.331 11.46,18.22L11.46,16.82C11.054,16.846 10.646,16.846 10.24,16.82C10.04,16.82 10.02,16.76 9.95,16.66C9.892,16.476 9.875,16.281 9.9,16.09L9.9,12.35L11.38,12.35L11.38,10.93L9.89,10.93L9.89,9.14L7.83,9.5L7.83,10.94L6.83,10.94L6.83,12.35L7.83,12.35L7.83,16.43C7.83,17.89 8.49,18.37 9.93,18.38M16.36,16.57L16.36,15C15.866,14.93 15.362,14.978 14.89,15.14C14.64,15.27 14.49,15.46 14.49,15.94L14.49,16.03C14.49,16.55 14.86,16.81 15.41,16.79C15.736,16.781 16.056,16.702 16.35,16.56L16.36,16.57ZM15.53,10.83C17.23,10.83 18.41,11.55 18.41,13.38L18.41,18.27L16.41,18.27L16.41,17.84C15.915,18.217 15.301,18.405 14.68,18.37C14.628,18.374 14.575,18.376 14.522,18.376C13.425,18.376 12.522,17.473 12.522,16.376C12.522,16.317 12.525,16.259 12.53,16.2C12.535,16.141 12.53,15.97 12.53,15.94C12.53,14.32 13.6,13.82 15.74,13.81L16.37,13.81L16.37,13.37C16.407,13.086 16.288,12.803 16.06,12.63C15.717,12.47 15.335,12.411 14.96,12.46C14.32,12.46 13.51,12.57 13.03,12.62L13.03,11.15C13.849,10.934 14.693,10.823 15.54,10.82M39,16.57L39,15C38.506,14.93 38.002,14.978 37.53,15.14C37.28,15.27 37.13,15.46 37.13,15.94L37.13,16.03C37.13,16.55 37.5,16.81 38.06,16.79C38.386,16.781 38.706,16.702 39,16.56L39,16.57ZM38.17,10.83C39.87,10.83 41.05,11.55 41.05,13.38L41.05,18.27L39,18.27L39,17.84C38.505,18.216 37.891,18.404 37.27,18.37C37.218,18.374 37.165,18.376 37.112,18.376C36.015,18.376 35.112,17.473 35.112,16.376C35.112,16.317 35.115,16.259 35.12,16.2C35.125,16.141 35.12,15.97 35.12,15.94C35.12,14.32 36.19,13.82 38.33,13.81L39,13.81L39,13.37C39.037,13.086 38.918,12.803 38.69,12.63C38.347,12.47 37.965,12.411 37.59,12.46C36.95,12.46 36.14,12.57 35.66,12.62L35.66,11.15C36.479,10.934 37.323,10.823 38.17,10.82M24.17,18.27L26.23,18.27L26.23,13.27C26.242,13.177 26.248,13.082 26.248,12.988C26.248,11.803 25.273,10.828 24.088,10.828C24.059,10.828 24.029,10.829 24,10.83C23.241,10.828 22.501,11.07 21.89,11.52L21.89,10.93L19.95,10.93L19.95,18.27L22,18.27L22,12.89C22.347,12.698 22.727,12.572 23.12,12.52C23.435,12.439 23.771,12.539 23.99,12.78C24.166,13.082 24.23,13.436 24.17,13.78L24.17,18.32L24.17,18.27ZM31.82,16.56L31.82,12.34C31.416,12.249 31,12.232 30.59,12.29C29.78,12.47 29.59,13.02 29.59,14.29L29.59,14.92C29.59,15.92 29.68,16.21 29.97,16.52C30.206,16.743 30.527,16.852 30.85,16.82C31.199,16.831 31.544,16.748 31.85,16.58L31.82,16.56ZM31.82,8.47L33.9,8.47L33.9,18.27L31.9,18.27L31.9,17.85C31.416,18.225 30.812,18.413 30.2,18.38C28.53,18.38 27.56,17.45 27.56,15.38L27.56,14.2C27.457,13.168 27.824,12.142 28.56,11.41C29.156,10.917 29.917,10.666 30.69,10.71C31.086,10.706 31.481,10.74 31.87,10.81L31.87,8.48L31.82,8.47ZM51.62,16.56L51.62,12.34C51.216,12.249 50.8,12.232 50.39,12.29C49.58,12.47 49.39,13.02 49.39,14.29L49.39,14.92C49.39,15.92 49.48,16.21 49.77,16.52C50.007,16.742 50.327,16.851 50.65,16.82C50.999,16.831 51.344,16.748 51.65,16.58L51.62,16.56ZM51.62,8.47L53.7,8.47L53.7,18.27L51.7,18.27L51.7,17.85C51.216,18.225 50.612,18.413 50,18.38C48.33,18.38 47.36,17.45 47.36,15.38L47.36,14.2C47.257,13.168 47.624,12.142 48.36,11.41C48.957,10.918 49.718,10.667 50.49,10.71C50.886,10.706 51.281,10.74 51.67,10.81L51.67,8.48L51.62,8.47ZM46.69,10.84C45.92,10.762 45.15,10.984 44.54,11.46L44.54,10.92L42.54,10.92L42.54,18.26L44.6,18.26L44.6,13C45.245,12.649 45.978,12.492 46.71,12.55C47.442,12.608 46.71,11.05 46.71,10.87M73,12.36L73,10.93L71.39,10.93L71.39,10.39C71.39,10.13 71.39,9.97 71.5,9.86C72.002,9.705 72.534,9.674 73.05,9.77L73.05,8.38C72.562,8.285 72.067,8.235 71.57,8.23C70.15,8.23 69.34,8.68 69.34,10.5L69.34,10.94L68.2,10.94L68.2,12.37L69.33,12.37L69.33,18.28L71.39,18.28L71.39,12.36L73,12.36ZM79.85,14.8L79.85,15.22L75.49,15.22C75.486,15.26 75.485,15.3 75.485,15.34C75.485,16.081 76.094,16.69 76.835,16.69C76.84,16.69 76.845,16.69 76.85,16.69C77.791,16.722 78.731,16.614 79.64,16.37C80.549,16.126 79.64,17.43 79.64,17.89C78.731,18.223 77.768,18.386 76.8,18.37C74.8,18.37 73.49,17.37 73.49,14.86L73.49,14.22C73.476,14.1 73.469,13.98 73.469,13.859C73.469,12.18 74.85,10.799 76.529,10.799C76.616,10.799 76.703,10.803 76.79,10.81C77.718,10.772 78.613,11.168 79.21,11.88C79.78,12.65 79.89,13.23 79.89,14.78M78,13.9C78,12.84 77.47,12.38 76.76,12.38C76.05,12.38 75.53,12.82 75.52,13.9L78,13.9ZM60.68,16.51C60.593,16.512 60.509,16.483 60.44,16.43C60.392,16.379 60.37,16.309 60.38,16.24L60.38,8.42L58.19,8.42L58.19,16.49C58.123,16.994 58.289,17.502 58.64,17.87C58.998,18.158 59.441,18.32 59.9,18.33C61.159,18.432 62.425,18.409 63.68,18.26L63.68,16.52L60.68,16.51ZM67.07,8.71L65.07,8.71L65.07,10.35L67.07,10.35L67.07,8.71ZM67.07,11.1L65.07,11.1L65.07,18.27L67.07,18.27L67.07,11.1Z" style="fill:rgb(0,45,115);fill-rule:nonzero;"/>
            <path d="M84.81,0L79.88,9.62L77.74,5.42L84.81,0Z" style="fill:rgb(26,156,227);fill-rule:nonzero;"/>
        </g>
    </g>
</svg>
