<?xml version="1.0" encoding="UTF-8" standalone="no"?>
<!DOCTYPE svg PUBLIC "-//W3C//DTD SVG 1.1//EN" "http://www.w3.org/Graphics/SVG/1.1/DTD/svg11.dtd">
<svg width="100%" height="100%" viewBox="0 0 300 100" version="1.1" xmlns="http://www.w3.org/2000/svg" xmlns:xlink="http://www.w3.org/1999/xlink" xml:space="preserve" xmlns:serif="http://www.serif.com/" style="fill-rule:evenodd;clip-rule:evenodd;stroke-linejoin:round;stroke-miterlimit:2;">
    <g>
        <g transform="matrix(1.26922,0,0,1.26922,-34.2131,-25.6804)">
            <path d="M67.69,21.432L100.855,40.58L100.855,78.876L67.69,98.024L34.525,78.876L34.525,40.58L67.69,21.432Z" style="fill:rgb(5,117,148);"/>
        </g>
        <path d="M33.121,47.344L39.628,71.995L13.273,53.95L33.121,47.344Z" style="fill:rgb(5,117,148);"/>
        <path d="M9.607,52.613L9.607,46.362L33.121,47.344L13.273,53.95L9.607,52.613Z" style="fill:rgb(5,105,130);"/>
        <path d="M9.607,25.825L33.121,47.344L9.607,46.362L9.607,25.825Z" style="fill:rgb(5,87,106);"/>
        <path d="M9.607,59.809L9.607,52.613L13.273,53.95L9.607,59.809Z" style="fill:rgb(5,140,179);"/>
        <path d="M9.607,69.744L9.607,59.809L13.273,53.95L39.628,71.995L9.607,69.744Z" style="fill:rgb(5,155,199);"/>
        <path d="M76.901,16.071L88.091,22.532L71.129,25.303L76.901,16.071Z" style="fill:rgb(5,104,129);"/>
        <path d="M39.628,71.995L25.245,83.459L51.7,98.733L59.327,94.33L39.628,71.995Z" style="fill:rgb(5,177,230);"/>
        <path d="M39.628,71.995L59.327,94.33L93.794,74.43L93.794,65.901L39.628,71.995Z" style="fill:rgb(5,173,225);"/>
        <path d="M74.904,35.905L39.628,71.995L93.794,65.901L93.794,58.912L74.904,35.905Z" style="fill:rgb(5,143,184);"/>
        <path d="M74.904,35.905L93.794,58.912L93.794,34.917L74.904,35.905Z" style="fill:rgb(5,119,150);"/>
        <path d="M89.799,23.518L93.794,25.825L93.794,34.917L74.904,35.905L89.799,23.518Z" style="fill:rgb(5,112,141);"/>
        <path d="M71.129,25.303L74.904,35.905L89.799,23.518L88.091,22.532L71.129,25.303Z" style="fill:rgb(5,104,129);"/>
        <path d="M51.7,1.522L63.426,22.532L72.887,13.754L51.7,1.522Z" style="fill:rgb(5,91,110);"/>
        <path d="M41.653,7.323L33.121,47.344L27.088,15.732L41.653,7.323Z" style="fill:rgb(5,74,86);"/>
        <path d="M72.887,13.754L76.901,16.071L71.129,25.303L63.426,22.532L72.887,13.754Z" style="fill:rgb(5,96,117);"/>
        <path d="M39.628,71.995L25.245,83.459L9.607,74.43L9.607,69.744L39.628,71.995Z" style="fill:rgb(5,175,228);"/>
        <path d="M33.121,47.344L74.904,35.905L39.628,71.995L33.121,47.344Z" style="fill:rgb(5,103,127);"/>
        <path d="M63.426,22.532L74.904,35.905L33.121,47.344L63.426,22.532Z" style="fill:rgb(5,90,109);"/>
        <path d="M63.426,22.532L71.129,25.303L74.904,35.905L63.426,22.532Z" style="fill:rgb(5,98,121);"/>
        <path d="M51.7,1.522L63.426,22.532L33.121,47.344L41.653,7.323L51.7,1.522Z" style="fill:rgb(5,80,93);"/>
        <path d="M27.088,15.732L9.607,25.825L33.121,47.344L27.088,15.732Z" style="fill:rgb(5,81,96);"/>
    </g>
    <g transform="matrix(0.944193,0,0,1.02509,-7.14559,-0.949348)">
        <g transform="matrix(32.2771,0,0,32.2771,30.3053,61.075)">
            <path d="M0.041,-0.194C0.056,-0.087 0.131,0.009 0.306,0.009C0.476,0.009 0.559,-0.079 0.559,-0.191C0.559,-0.281 0.524,-0.358 0.326,-0.406C0.204,-0.436 0.165,-0.462 0.165,-0.527C0.165,-0.593 0.212,-0.631 0.297,-0.631C0.399,-0.631 0.437,-0.58 0.45,-0.519L0.544,-0.519C0.534,-0.61 0.466,-0.706 0.3,-0.706C0.145,-0.706 0.069,-0.622 0.069,-0.518C0.069,-0.42 0.126,-0.364 0.29,-0.324C0.429,-0.291 0.463,-0.252 0.463,-0.182C0.463,-0.116 0.42,-0.065 0.312,-0.065C0.211,-0.065 0.154,-0.11 0.135,-0.194L0.041,-0.194Z" style="fill:white;fill-rule:nonzero;"/>
        </g>
        <g transform="matrix(32.2771,0,0,32.2771,49.7683,61.075)">
            <path d="M0.232,0L0.325,0L0.325,-0.617L0.55,-0.617L0.55,-0.696L0.008,-0.696L0.008,-0.617L0.232,-0.617L0.232,0Z" style="fill:white;fill-rule:nonzero;"/>
        </g>
        <g transform="matrix(32.2771,0,0,32.2771,67.9726,61.075)">
            <path d="M0.686,0L0.776,0L0.776,-0.696L0.643,-0.696C0.561,-0.485 0.447,-0.18 0.43,-0.113L0.429,-0.113C0.405,-0.201 0.308,-0.48 0.229,-0.696L0.092,-0.696L0.092,0L0.179,0L0.179,-0.277C0.179,-0.397 0.176,-0.551 0.171,-0.632L0.174,-0.632C0.205,-0.513 0.322,-0.178 0.382,0L0.465,0C0.545,-0.219 0.657,-0.517 0.687,-0.63L0.691,-0.63C0.688,-0.557 0.686,-0.426 0.686,-0.296L0.686,0Z" style="fill:white;fill-rule:nonzero;"/>
        </g>
    </g>
    <g transform="matrix(0.944193,0,0,1.02509,73.4305,-0.949348)">
        <g transform="matrix(32.2771,0,0,32.2771,30.3053,61.075)">
            <path d="M0.092,0L0.183,0L0.183,-0.312L0.516,-0.312L0.516,-0.391L0.183,-0.391L0.183,-0.617L0.539,-0.617L0.539,-0.696L0.092,-0.696L0.092,0Z" style="fill-rule:nonzero;"/>
        </g>
        <g transform="matrix(32.2771,0,0,32.2771,48.5095,61.075)">
            <rect x="0.092" y="-0.696" width="0.092" height="0.696" style="fill-rule:nonzero;"/>
        </g>
        <g transform="matrix(32.2771,0,0,32.2771,57.6117,61.075)">
            <path d="M0.092,0L0.337,0C0.539,0 0.668,-0.149 0.668,-0.355C0.668,-0.562 0.536,-0.696 0.34,-0.696L0.092,-0.696L0.092,0ZM0.184,-0.617L0.33,-0.617C0.5,-0.617 0.571,-0.49 0.571,-0.353C0.571,-0.196 0.494,-0.078 0.33,-0.078L0.184,-0.078L0.184,-0.617Z" style="fill-rule:nonzero;"/>
        </g>
        <g transform="matrix(32.2771,0,0,32.2771,80.8834,61.075)">
            <path d="M0.528,-0.404L0.182,-0.404L0.182,-0.617L0.545,-0.617L0.545,-0.696L0.092,-0.696L0.092,0L0.55,0L0.562,-0.079L0.182,-0.079L0.182,-0.325L0.528,-0.325L0.528,-0.404Z" style="fill-rule:nonzero;"/>
        </g>
        <g transform="matrix(32.2771,0,0,32.2771,100.153,61.075)">
            <path d="M0.55,-0.197C0.524,-0.13 0.477,-0.068 0.37,-0.068C0.209,-0.068 0.15,-0.212 0.15,-0.349C0.15,-0.489 0.212,-0.629 0.366,-0.629C0.476,-0.629 0.526,-0.572 0.551,-0.496L0.643,-0.496C0.622,-0.612 0.533,-0.706 0.369,-0.706C0.158,-0.706 0.053,-0.535 0.053,-0.346C0.053,-0.149 0.158,0.009 0.366,0.009C0.524,0.009 0.612,-0.079 0.643,-0.197L0.55,-0.197Z" style="fill-rule:nonzero;"/>
        </g>
        <g transform="matrix(32.2771,0,0,32.2771,122.585,61.075)">
            <path d="M0.041,-0.194C0.056,-0.087 0.131,0.009 0.306,0.009C0.476,0.009 0.559,-0.079 0.559,-0.191C0.559,-0.281 0.524,-0.358 0.326,-0.406C0.204,-0.436 0.165,-0.462 0.165,-0.527C0.165,-0.593 0.212,-0.631 0.297,-0.631C0.399,-0.631 0.437,-0.58 0.45,-0.519L0.544,-0.519C0.534,-0.61 0.466,-0.706 0.3,-0.706C0.145,-0.706 0.069,-0.622 0.069,-0.518C0.069,-0.42 0.126,-0.364 0.29,-0.324C0.429,-0.291 0.463,-0.252 0.463,-0.182C0.463,-0.116 0.42,-0.065 0.312,-0.065C0.211,-0.065 0.154,-0.11 0.135,-0.194L0.041,-0.194Z" style="fill-rule:nonzero;"/>
        </g>
    </g>
</svg>
