<?xml version="1.0" encoding="UTF-8" standalone="no"?>
<!DOCTYPE svg PUBLIC "-//W3C//DTD SVG 1.1//EN" "http://www.w3.org/Graphics/SVG/1.1/DTD/svg11.dtd">
<svg width="100%" height="100%" viewBox="0 0 300 100" version="1.1" xmlns="http://www.w3.org/2000/svg" xmlns:xlink="http://www.w3.org/1999/xlink" xml:space="preserve" xmlns:serif="http://www.serif.com/" style="fill-rule:evenodd;clip-rule:evenodd;stroke-linejoin:round;stroke-miterlimit:2;">
    <g id="g3070" transform="matrix(0.607815,0,0,0.607815,0.999814,10.5304)">
        <path id="path3072" d="M152.243,122.467L152.193,97.658L160.464,97.658C164.634,99.129 164.505,104.644 163.212,106.491C162.248,108.02 160.436,108.338 160.048,108.338L154.527,108.338L154.527,109.917L159.915,109.863C161.709,109.863 163.008,112.024 163.802,112.852C165.847,115.261 166.005,121.281 160.413,122.466L152.243,122.466L152.243,122.467M146.416,95.307L146.416,96.886C146.416,97.412 146.679,97.676 147.204,97.676L149.57,97.676L149.57,124.527L162.98,124.527C163.902,124.006 165.108,123.598 166.55,121.742C170.815,116.25 166.311,109.962 164.557,109.522L162.98,109.127C165.609,108.002 166.278,106.213 166.901,104.667C167.141,102.984 167.479,101.195 166.781,99.622C166.182,98.256 166.093,97.972 165.461,97.34C163.81,95.687 161.521,95.261 160.995,95.261L146.416,95.307" style="fill:rgb(246,123,0);"/>
        <path id="path3074" d="M196.798,95.777L196.732,97.895L199.788,98.267L199.792,124.893L202.22,124.893L202.279,98.367L210.999,98.317C213.327,98.389 216.032,102.403 213.341,107.483C212.794,108.48 211.233,109.008 210.152,109.078L204.87,109.078L204.87,110.821L208.408,110.821L213.457,124.536L216.498,124.536L211.176,110.835C215.192,110.269 216.947,105.806 216.631,102.253C216.309,98.626 213.841,95.912 210.701,95.728L196.798,95.777" style="fill:rgb(246,123,0);"/>
        <path id="path3076" d="M288.265,96.762C287.027,96.142 286.732,95.859 285.593,95.597C277.224,93.675 271.725,100.976 272,110.511C272.031,111.562 272.13,112.64 272.302,113.738C274.271,126.321 282.87,127.076 287.767,123.663C290.095,122.04 291.359,119.02 291.343,116.268L291.308,109.931L284.615,109.964L284.729,112.627L288.812,112.554L288.962,116.191C289.062,118.645 288.132,120.277 286.47,121.968C284.982,123.484 280.792,123.397 279.544,122.816C276.421,121.363 275.47,117.836 274.761,114.696C273.913,110.943 274.612,108.086 275.11,105.132C276.256,98.224 285.992,92.938 289.028,102.701L291.504,102.741C291.711,102.275 290.449,99.959 289.959,98.706L288.265,96.762" style="fill:rgb(246,123,0);"/>
        <path id="polyline3080" d="M295.731,95.85L295.731,98.133L298.743,98.271L298.772,124.773L301.054,124.773L301.054,110.312L313.978,110.312L313.978,124.773L316.259,124.773L316.259,95.85L314.007,95.84L313.978,108.028L301.054,108.028L301.054,95.85L295.731,95.85" style="fill:rgb(246,123,0);"/>
        <path id="path3082" d="M349.224,116.401C350.529,123.964 338.831,125.71 336.3,116.401C335.362,113.206 335.246,109.269 336.3,104.221C337.443,98.271 346.114,93.987 349.224,103.079L351.755,103.021C352.012,102.574 351.898,101.744 351.505,100.415C347.272,88.777 329.179,96.347 333.259,114.878C336.926,131.533 353.296,125.167 352.265,116.4L349.224,116.4L349.224,116.401" style="fill:rgb(246,123,0);"/>
        <path id="path3084" d="M405.184,95.998L405.184,97.546C405.184,98.062 405.437,98.319 405.944,98.319L408.225,98.319L408.225,124.625L411.266,124.625L411.266,99.093C411.266,98.577 411.519,98.32 412.027,98.32L418.869,98.32C421.91,98.32 423.431,100.125 423.431,103.736L423.431,124.626L425.711,124.626C426.219,124.626 426.472,124.368 426.472,123.853L426.472,104.51C426.472,99.69 422.541,95.999 421.151,95.999L405.184,95.999L405.184,95.998" style="fill:rgb(246,123,0);"/>
        <path id="path3086" d="M462.301,124.673L462.384,96.501C462.384,95.993 462.13,95.739 461.624,95.739L456.302,95.739L456.302,98.022C458.328,98.022 459.343,98.277 459.343,98.784L459.343,124.664L462.301,124.673" style="fill:rgb(246,123,0);"/>
        <path id="polyline3090" d="M255.122,24.998L245.239,24.998L238.562,62.568L231.43,24.998L218.629,24.998L212.083,62.568L205.706,24.998L189.74,24.998L189.713,31.026L196.409,33.206L206.465,79.042L217.869,79.042L224.712,42.506L225.472,42.506L232.314,79.042L243.718,79.042L255.122,24.998" style="fill:rgb(246,123,0);"/>
        <path id="polyline3094" d="M260.121,25.042L260.121,31.381L266.259,33.409L266.286,79.042L277.69,79.042L277.671,25.042L260.121,25.042" style="fill:rgb(246,123,0);"/>
        <path id="path3096" d="M286.358,24.998L286.339,30.975L292.628,33.104L292.678,78.995L303.843,79.042L303.843,34.133L313.727,34.133C317.78,34.133 319.809,36.416 319.809,40.984L319.809,79.043L330.452,79.043L330.452,37.938C330.452,30.712 320.229,24.998 316.767,24.998L286.358,24.998" style="fill:rgb(246,123,0);"/>
        <path id="path3098" d="M355.149,69.922L355.182,34.133C361.696,32.842 366.829,34.016 370.578,37.654C376.615,43.512 376.348,69.908 361.264,69.908L355.149,69.922M337.698,24.998L337.678,31.127L343.019,32.61C343.526,32.61 343.78,32.863 343.78,33.371L343.78,79.042L365.827,79.042C392.374,79.042 391.765,24.998 363.546,24.998L337.698,24.998" style="fill:rgb(246,123,0);"/>
        <path id="path3100" d="M408.378,35.274C427.113,22.567 431.773,63.716 419.266,70.545C402.132,79.902 399.87,41.045 408.378,35.274M409.138,24.238C385.355,31.731 387.939,77.388 412.939,79.804C449.015,83.288 442.698,13.664 409.138,24.238" style="fill:rgb(246,123,0);"/>
        <path id="path3102" d="M141.91,59.657L141.91,60.418C141.91,74.728 162.893,85.896 179.18,76.396C192.183,68.812 196.878,45.899 174.179,38.457L162.842,34.74C152.894,31.479 151.405,21.276 158.243,15.903C164.364,11.094 175.952,13.591 177.643,24.644L186.766,24.644C187.38,14.51 182.311,8.166 171.56,5.614C145.418,-0.591 133.088,35.152 153.625,42.463L167.104,47.261C189.335,55.176 177.876,75.85 161.676,70.315C156.101,68.41 153.313,65.619 153.313,61.942L153.313,59.659L141.91,59.659L141.91,59.657" style="fill:rgb(246,123,0);"/>
        <path id="path3104" d="M73.181,124.16C70.323,122.382 67.701,121.411 65.21,121.832C56.785,124.961 47.642,127.642 37.642,126.487C37.238,126.556 28.203,123.817 23.533,119.344L19.042,115.679C20.716,120.636 24.418,124.761 30.149,128.058C38.519,132.871 49.685,132.727 63.65,127.626C69.85,125.362 73.025,124.206 73.181,124.16" style="fill:rgb(246,123,0);"/>
        <path id="path3106" d="M43.577,91.377C43.678,93.994 43.425,97.323 42.816,101.364C41.144,112.458 38.187,120.102 33.945,124.299L38.927,125.629C48.167,114.482 48.031,93.219 47.895,93.04L43.577,91.377" style="fill:rgb(246,123,0);"/>
        <path id="path3108" d="M97.702,125.739L97.702,125.407C97.702,121.329 85.862,111.901 76.445,117.759L73.638,112.47C71.421,109.08 67.809,96.719 67.809,92.153L67.809,87.498L63.824,89.493C63.778,96.595 66.649,114.514 74.452,123.08C75.452,123.095 76.044,122.566 76.151,122.551C80.193,119.77 85.446,120.123 89.731,121.085C89.884,121.063 90.779,121.456 92.42,122.264L97.702,125.739" style="fill:rgb(246,123,0);"/>
        <path id="path3110" d="M35.439,76.523C35.481,77.112 35.703,77.667 36.104,78.186C36.615,78.85 37.965,78.817 40.153,78.086C43.504,76.968 45.587,75.726 46.4,74.361C46.174,74.271 46.064,74.105 46.067,73.862L44.738,73.862L35.439,76.523" style="fill:rgb(246,123,0);"/>
        <path id="path3112" d="M61.777,72.827C61.642,73.504 61.973,74.167 62.769,74.817C64.317,76.085 65.371,76.64 65.929,76.485C66.962,76.198 67.35,75.534 67.091,74.491L62.773,72.827L61.777,72.827" style="fill:rgb(246,123,0);"/>
        <path id="path3114" d="M23.462,45.432C19.934,44.796 17.387,43.3 15.823,40.943C22.753,37.094 31.689,40.902 30.105,44.103C29.34,45.649 27.125,46.093 23.462,45.432M14.5,36.069C13.721,35.32 13.61,33.215 14.168,29.751C15.627,20.69 23.217,18.112 25.83,18.112L31.771,18.112C31.992,18.112 32.103,18.001 32.103,17.779L32.103,17.114C22.872,7.997 0.036,23.896 9.851,38.397C-0.114,43.214 -3.045,56.012 3.495,66.286C9.541,75.784 18.192,80.233 29.447,79.633C29.471,79.378 29.471,79.157 29.447,78.968C27.903,77.23 26.598,76.191 25.53,75.856L20.219,74.183C12.822,71.854 8.462,66.329 7.14,57.609C6.316,52.175 8.216,47.434 12.84,43.386L13.505,43.386L16.122,45.527C19.036,47.911 27.51,48.933 30.986,45.941C36.577,41.128 24.064,32.381 17.49,35.405C15.83,36.168 14.834,36.389 14.5,36.069" style="fill:rgb(246,123,0);"/>
        <path id="path3116" d="M46.97,49.681C30.298,46.674 18.634,70.211 34.865,85.116C47.498,96.716 67.639,91.766 75.596,77.823C85.189,61.018 79.077,45.652 57.263,31.724C54.92,30.227 53.478,29.283 52.934,28.89C24.811,8.54 63.041,-8.35 70.552,13.933L71.881,14.099C73.27,13.041 72.787,10.857 70.434,7.547C56.212,-12.468 13.984,10.686 51.484,37.809C56.524,41.454 59.3,43.49 59.817,43.922C83.293,63.488 65.047,94.916 42.792,84.836C23.625,76.152 30.676,51.011 45.973,51.011L46.97,51.011L46.97,49.681" style="fill:rgb(246,123,0);"/>
        <path id="path3118" d="M473.181,117.208L473.181,96.073L467.859,96.073L467.859,98.357C469.645,98.357 470.66,98.61 470.9,99.118L470.9,124.82L485.345,124.82L485.345,122.537L473.181,122.537L473.181,117.208" style="fill:rgb(246,123,0);"/>
        <path id="path3120" d="M380.916,95.469L380.916,97.752C382.943,97.752 383.956,98.006 383.956,98.514L383.956,119.065C383.956,120.791 385.075,122.417 387.311,123.946C393.137,127.932 401.469,123.397 401.469,119.689L401.469,95.493L399.162,95.469L399.162,116.782C399.162,120.335 397.885,121.889 395.342,122.931C393.723,123.626 392.021,123.636 390.6,123.047C388.09,122.13 386.997,121.096 386.997,119.065L386.997,96.23C386.997,95.722 386.744,95.468 386.236,95.468L380.916,95.468L380.916,95.469" style="fill:rgb(246,123,0);"/>
        <path id="path3122" d="M449.277,116.401C450.582,123.964 438.883,125.71 436.352,116.401C435.414,113.206 435.299,109.269 436.352,104.221C437.496,98.271 446.168,93.987 449.277,103.079L451.807,103.021C452.064,102.574 451.95,101.744 451.557,100.415C447.325,88.777 429.233,96.347 433.311,114.878C436.978,131.533 453.348,125.167 452.318,116.4L449.277,116.4L449.277,116.401" style="fill:rgb(246,123,0);"/>
        <path id="path3124" d="M245.604,95.566L245.555,97.752C247.582,97.752 248.596,98.006 248.596,98.514L248.596,119.065C248.596,120.791 249.596,122.68 251.832,124.211C255.04,126.405 259.377,126.07 262.295,124.659C264.676,123.507 266.108,121.355 266.108,119.689L266.132,95.517L263.839,95.468L263.8,116.781C263.8,120.334 262.524,121.888 259.98,122.93C258.361,123.625 256.66,123.635 255.239,123.046C252.728,122.129 251.635,121.095 251.635,119.064L251.682,95.566L245.604,95.566" style="fill:rgb(246,123,0);"/>
        <path id="path3126" d="M440.716,24.998L440.698,31.077L447.178,33.371L447.037,78.995L458.201,79.042L458.201,34.133L468.084,34.133C472.139,34.133 474.166,36.416 474.166,40.984L474.166,79.043L484.811,79.043L484.811,37.938C484.811,30.712 474.588,24.998 471.126,24.998L440.716,24.998" style="fill:rgb(246,123,0);"/>
        <path id="path3128" d="M96.343,43.386C110.598,57.725 94.76,78.4 76.746,76.64C76.108,77.908 75.776,78.627 75.75,78.802C75.978,78.891 76.086,79.057 76.082,79.3C76.682,79.268 77.678,79.379 79.071,79.633C100.134,83.477 121.324,53.05 99.165,38.232C100.251,34.07 100.749,31.022 100.66,29.086C100.03,15.354 78.079,9.729 71.764,19.442C71.787,19.62 73.311,19.384 76.334,18.735C76.667,18.664 77.896,18.489 80.021,18.215C92.323,16.623 96.815,31.038 94.018,36.402C85.911,32.324 75.773,37.446 76.415,44.715C79.047,49.165 88.619,48.749 91.93,46.092L94.682,43.884L96.343,43.386M84.743,45.048C81.08,45.709 78.866,45.265 78.1,43.718C76.517,40.518 85.452,36.71 92.382,40.559C90.818,42.916 88.272,44.412 84.743,45.048" style="fill:rgb(246,123,0);"/>
        <path id="path3130" d="M182.461,123.041C173.529,123.587 173.805,106.185 176.27,101.776C178.158,98.4 180.348,97.114 182.412,97.141C184.476,97.114 186.716,98.4 188.603,101.776C191.067,106.185 191.393,123.587 182.461,123.041M182.411,125.543C183.237,125.536 184.158,125.411 185.072,125.155C196.774,121.864 195.332,94.46 182.461,94.981C169.59,94.46 168.098,121.864 179.8,125.155C180.714,125.411 181.584,125.536 182.411,125.543" style="fill:rgb(246,123,0);"/>
        <path id="path3132" d="M231.72,123.041C222.788,123.587 223.064,106.185 225.528,101.776C227.416,98.4 229.607,97.114 231.67,97.141C233.733,97.114 235.974,98.4 237.861,101.776C240.326,106.185 240.651,123.587 231.72,123.041M231.669,125.543C232.495,125.536 233.417,125.411 234.331,125.155C246.032,121.864 244.591,94.46 231.72,94.981C218.848,94.46 217.357,121.864 229.059,125.155C229.973,125.411 230.844,125.536 231.669,125.543" style="fill:rgb(246,123,0);"/>
        <path id="path3134" d="M366.222,123.041C357.29,123.587 357.566,106.185 360.031,101.776C361.918,98.4 364.109,97.114 366.172,97.141C368.236,97.114 370.476,98.4 372.363,101.776C374.827,106.185 375.151,123.587 366.222,123.041M366.171,125.543C366.997,125.536 367.919,125.411 368.832,125.155C380.534,121.864 379.092,94.46 366.222,94.981C353.351,94.46 351.859,121.864 363.56,125.155C364.474,125.411 365.345,125.536 366.171,125.543" style="fill:rgb(246,123,0);"/>
    </g>
</svg>
