
<svg version="1.1" id="Layer_1" xmlns="http://www.w3.org/2000/svg" xmlns:xlink="http://www.w3.org/1999/xlink" x="0px" y="0px" viewBox="0 0 170.9 85.5" style="enable-background:new 0 0 170.9 85.5;" xml:space="preserve">
<style type="text/css">
	.st0{fill:#FFFFFF;}
	.st1{fill:#05244F;}
</style>
<title>logo-2</title>
<rect class="st0" width="170.9" height="85.5"/>
<rect x="4.3" y="3.5" class="st1" width="163.1" height="25"/>
<rect x="4.3" y="30.3" class="st1" width="163.1" height="25"/>
<rect x="4.3" y="57" class="st1" width="163.1" height="25"/>
<path class="st0" d="M19.4,9.7c0.2,0,0.4,0.1,0.5,0.2c0.1,0.1,0.2,0.3,0.2,0.5c0,0.4-0.3,0.7-0.7,0.7c-0.2,0-0.3-0.1-0.5-0.2  c-0.2-0.1-0.2-0.3-0.2-0.5c0-0.2,0.1-0.4,0.2-0.5C19,9.7,19.2,9.7,19.4,9.7 M17.6,9.7c0.2,0,0.4,0.1,0.5,0.2  c0.1,0.1,0.2,0.3,0.2,0.5c0,0.4-0.3,0.7-0.7,0.7c-0.2,0-0.3-0.1-0.5-0.2c-0.2-0.1-0.2-0.3-0.2-0.5c0-0.2,0.1-0.4,0.2-0.5  C17.2,9.7,17.4,9.7,17.6,9.7 M15.7,20.7c0.2,0,0.4,0.1,0.5,0.2c0.1,0.1,0.2,0.3,0.2,0.5c0,0.2-0.1,0.4-0.2,0.5  c-0.1,0.2-0.3,0.3-0.5,0.3c-0.2,0-0.4-0.1-0.6-0.2c-0.1-0.1-0.2-0.3-0.2-0.5c0-0.2,0.1-0.4,0.2-0.5C15.2,20.8,15.4,20.7,15.7,20.7   M15.7,18.8c0.2,0,0.4,0.1,0.5,0.2c0.1,0.1,0.2,0.3,0.2,0.5c0,0.4-0.3,0.7-0.7,0.7c-0.2,0-0.3-0.1-0.5-0.2C15,19.9,15,19.7,15,19.5  C15,19.2,15.2,18.8,15.7,18.8C15.6,18.8,15.6,18.8,15.7,18.8 M15.7,15.2c0.2,0,0.4,0.1,0.5,0.2c0.1,0.1,0.2,0.3,0.2,0.5  c0,0.4-0.3,0.7-0.7,0.7c-0.2,0-0.3-0.1-0.5-0.2C15,16.3,15,16.1,15,15.9c0-0.2,0.1-0.4,0.2-0.5C15.3,15.2,15.5,15.2,15.7,15.2   M15.7,13.3c0.2,0,0.4,0.1,0.5,0.2c0.2,0.2,0.2,0.3,0.2,0.6c0,0.4-0.3,0.7-0.7,0.7c-0.2,0-0.3-0.1-0.5-0.2C15,14.5,15,14.3,15,14.1  c0-0.2,0.1-0.4,0.2-0.6C15.3,13.4,15.5,13.3,15.7,13.3 M15.7,11.5c0.2,0,0.4,0.1,0.5,0.2c0.1,0.1,0.2,0.3,0.2,0.5  c0,0.4-0.3,0.7-0.7,0.7c-0.2,0-0.3-0.1-0.5-0.2C15,12.6,15,12.4,15,12.2C15,11.9,15.2,11.5,15.7,11.5C15.6,11.5,15.6,11.5,15.7,11.5   M15.7,9.7c0.2,0,0.4,0.1,0.5,0.2c0.1,0.1,0.2,0.3,0.2,0.5c0,0.2-0.1,0.4-0.2,0.5c-0.1,0.2-0.3,0.3-0.5,0.3c-0.2,0-0.4-0.1-0.5-0.2  C15,10.9,15,10.7,15,10.5c0-0.2,0.1-0.4,0.2-0.5C15.3,9.7,15.5,9.7,15.7,9.7 M15.7,17c0.2,0,0.4,0.1,0.6,0.2  c0.1,0.1,0.2,0.3,0.2,0.5c0,0.2-0.1,0.4-0.2,0.5c-0.2,0.1-0.4,0.2-0.6,0.2c-0.2,0-0.4-0.1-0.5-0.2c-0.1-0.1-0.2-0.3-0.2-0.5  C15,17.4,15.2,17,15.7,17C15.6,17,15.6,17,15.7,17 M13.9,9.7c0.2,0,0.4,0.1,0.5,0.2c0.1,0.1,0.2,0.3,0.2,0.5c0,0.2-0.1,0.4-0.2,0.5  c-0.1,0.2-0.3,0.3-0.5,0.3c-0.2,0-0.4-0.1-0.5-0.2c-0.2-0.1-0.2-0.3-0.2-0.5c0-0.2,0.1-0.4,0.2-0.5C13.5,9.7,13.7,9.7,13.9,9.7   M12,9.7c0.2,0,0.4,0.1,0.5,0.2c0.1,0.1,0.2,0.3,0.2,0.5c0,0.4-0.3,0.7-0.7,0.7c-0.2,0-0.3-0.1-0.5-0.2c-0.2-0.1-0.2-0.3-0.2-0.5  c0-0.2,0.1-0.4,0.2-0.5C11.6,9.7,11.8,9.7,12,9.7"/>
<path class="st0" d="M30.8,20.7c0.2,0,0.4,0.1,0.5,0.2c0.2,0.2,0.2,0.3,0.2,0.6c0,0.2-0.1,0.4-0.2,0.5c-0.1,0.1-0.3,0.2-0.5,0.2  c-0.2,0-0.4-0.1-0.6-0.2c-0.1-0.1-0.2-0.3-0.2-0.5c0-0.2,0.1-0.4,0.2-0.6C30.3,20.8,30.5,20.7,30.8,20.7 M30.8,18.8  c0.2,0,0.4,0.1,0.5,0.2c0.1,0.1,0.2,0.3,0.2,0.5c0,0.4-0.3,0.7-0.7,0.7c-0.2,0-0.3-0.1-0.5-0.2c-0.2-0.1-0.2-0.3-0.2-0.5  C30.1,19.2,30.3,18.8,30.8,18.8C30.7,18.8,30.7,18.8,30.8,18.8 M30.8,15.2c0.2,0,0.4,0.1,0.5,0.2c0.1,0.1,0.2,0.3,0.2,0.5  c0,0.4-0.3,0.7-0.7,0.7c-0.2,0-0.3-0.1-0.5-0.2c-0.2-0.1-0.2-0.3-0.2-0.5c0-0.2,0.1-0.4,0.2-0.5C30.4,15.2,30.6,15.2,30.8,15.2   M30.8,13.3c0.2,0,0.4,0.1,0.5,0.2c0.1,0.1,0.2,0.3,0.2,0.5c0,0.4-0.3,0.7-0.7,0.7c-0.2,0-0.3-0.1-0.5-0.2c-0.2-0.1-0.2-0.3-0.2-0.5  C30.1,13.7,30.3,13.3,30.8,13.3C30.7,13.3,30.7,13.3,30.8,13.3 M30.8,11.5c0.2,0,0.4,0.1,0.5,0.2c0.1,0.1,0.2,0.3,0.2,0.5  c0,0.4-0.3,0.7-0.7,0.7c-0.2,0-0.3-0.1-0.5-0.2c-0.2-0.1-0.2-0.3-0.2-0.5C30.1,11.9,30.3,11.5,30.8,11.5  C30.7,11.5,30.7,11.5,30.8,11.5 M30.8,9.7c0.2,0,0.4,0.1,0.5,0.2c0.1,0.1,0.2,0.3,0.2,0.5c0,0.4-0.3,0.7-0.7,0.7  c-0.2,0-0.3-0.1-0.5-0.2c-0.2-0.1-0.2-0.3-0.2-0.5c0-0.2,0.1-0.4,0.2-0.5C30.4,9.7,30.6,9.7,30.8,9.7 M30.8,17  c0.2,0,0.4,0.1,0.6,0.2c0.1,0.1,0.2,0.3,0.2,0.5c0,0.2-0.1,0.4-0.2,0.5c-0.2,0.1-0.4,0.2-0.6,0.2c-0.2,0-0.4-0.1-0.5-0.2  c-0.1-0.1-0.2-0.3-0.2-0.5C30.1,17.4,30.3,17,30.8,17C30.7,17,30.7,17,30.8,17 M29,15.2c0.2,0,0.4,0.1,0.5,0.2  c0.1,0.1,0.2,0.3,0.2,0.5c0,0.4-0.3,0.7-0.7,0.7c-0.2,0-0.3-0.1-0.5-0.2c-0.2-0.1-0.2-0.3-0.2-0.5c0-0.2,0.1-0.4,0.2-0.5  C28.6,15.2,28.8,15.2,29,15.2 M27.1,15.2c0.2,0,0.4,0.1,0.5,0.2c0.1,0.1,0.2,0.3,0.2,0.5c0,0.4-0.3,0.7-0.7,0.7  c-0.2,0-0.3-0.1-0.5-0.2c-0.2-0.1-0.2-0.3-0.2-0.5c0-0.2,0.1-0.4,0.2-0.5C26.7,15.2,26.9,15.2,27.1,15.2 M25.3,15.2  c0.2,0,0.4,0.1,0.5,0.2c0.1,0.1,0.2,0.3,0.2,0.5c0,0.4-0.3,0.7-0.7,0.7c-0.2,0-0.3-0.1-0.5-0.2c-0.2-0.1-0.2-0.3-0.2-0.5  c0-0.2,0.1-0.4,0.2-0.5C24.9,15.2,25.1,15.2,25.3,15.2 M23.4,20.7c0.2,0,0.4,0.1,0.5,0.2c0.2,0.2,0.2,0.3,0.2,0.6  c0,0.2-0.1,0.4-0.2,0.5c-0.1,0.1-0.3,0.2-0.5,0.2c-0.2,0-0.4-0.1-0.6-0.2c-0.1-0.1-0.2-0.3-0.2-0.5c0-0.2,0.1-0.4,0.2-0.6  C22.9,20.8,23.1,20.7,23.4,20.7 M23.4,18.8c0.2,0,0.4,0.1,0.5,0.2c0.1,0.1,0.2,0.3,0.2,0.5c0,0.4-0.3,0.7-0.7,0.7  c-0.2,0-0.3-0.1-0.5-0.2c-0.2-0.1-0.2-0.3-0.2-0.5C22.7,19.2,22.9,18.8,23.4,18.8C23.3,18.8,23.3,18.8,23.4,18.8 M23.4,15.2  c0.2,0,0.4,0.1,0.5,0.2c0.1,0.1,0.2,0.3,0.2,0.5c0,0.4-0.3,0.7-0.7,0.7c-0.2,0-0.3-0.1-0.5-0.2c-0.2-0.1-0.2-0.3-0.2-0.5  c0-0.2,0.1-0.4,0.2-0.5C23,15.2,23.2,15.2,23.4,15.2 M23.4,13.3c0.2,0,0.4,0.1,0.5,0.2c0.1,0.1,0.2,0.3,0.2,0.5  c0,0.4-0.3,0.7-0.7,0.7c-0.2,0-0.3-0.1-0.5-0.2c-0.2-0.1-0.2-0.3-0.2-0.5C22.7,13.7,22.9,13.3,23.4,13.3  C23.3,13.3,23.3,13.3,23.4,13.3 M23.4,11.5c0.2,0,0.4,0.1,0.5,0.2c0.1,0.1,0.2,0.3,0.2,0.5c0,0.4-0.3,0.7-0.7,0.7  c-0.2,0-0.3-0.1-0.5-0.2c-0.2-0.1-0.2-0.3-0.2-0.5C22.7,11.9,22.9,11.5,23.4,11.5C23.3,11.5,23.3,11.5,23.4,11.5 M23.4,9.7  c0.2,0,0.4,0.1,0.5,0.2c0.1,0.1,0.2,0.3,0.2,0.5c0,0.4-0.3,0.7-0.7,0.7c-0.2,0-0.3-0.1-0.5-0.2c-0.2-0.1-0.2-0.3-0.2-0.5  c0-0.2,0.1-0.4,0.2-0.5C23,9.7,23.2,9.7,23.4,9.7 M23.4,17c0.2,0,0.4,0.1,0.6,0.2c0.1,0.1,0.2,0.3,0.2,0.5c0,0.2-0.1,0.4-0.2,0.5  c-0.2,0.1-0.4,0.2-0.6,0.2c-0.2,0-0.4-0.1-0.5-0.2c-0.1-0.1-0.2-0.3-0.2-0.5C22.7,17.4,22.9,17,23.4,17C23.3,17,23.3,17,23.4,17"/>
<path class="st0" d="M43.5,20.7c0.2,0,0.4,0.1,0.5,0.2c0.2,0.2,0.2,0.3,0.2,0.6c0,0.4-0.3,0.7-0.7,0.7c0,0,0,0,0,0  c-0.2,0-0.4-0.1-0.6-0.2c-0.1-0.1-0.2-0.3-0.2-0.5c0-0.2,0.1-0.4,0.2-0.6C43,20.8,43.2,20.7,43.5,20.7 M43.5,9.7  c0.2,0,0.4,0.1,0.5,0.2c0.1,0.1,0.2,0.3,0.2,0.5c0,0.2-0.1,0.4-0.2,0.5c-0.1,0.2-0.3,0.3-0.5,0.3c-0.2,0-0.4-0.1-0.5-0.2  c-0.2-0.1-0.2-0.3-0.2-0.5c0-0.2,0.1-0.4,0.2-0.5C43.1,9.7,43.3,9.7,43.5,9.7 M41.7,20.7c0.2,0,0.4,0.1,0.5,0.2  c0.2,0.2,0.2,0.3,0.2,0.6c0,0.4-0.3,0.7-0.7,0.7c0,0,0,0,0,0c-0.2,0-0.4-0.1-0.6-0.2c-0.1-0.1-0.2-0.3-0.2-0.5  c0-0.2,0.1-0.4,0.2-0.6C41.2,20.8,41.4,20.7,41.7,20.7 M41.7,15.2c0.2,0,0.4,0.1,0.5,0.2c0.1,0.1,0.2,0.3,0.2,0.5  c0,0.4-0.3,0.7-0.7,0.7c-0.2,0-0.3-0.1-0.5-0.2C41,16.3,41,16.1,41,15.9c0-0.2,0.1-0.4,0.2-0.5C41.3,15.2,41.5,15.2,41.7,15.2   M41.7,9.7c0.2,0,0.4,0.1,0.5,0.2c0.1,0.1,0.2,0.3,0.2,0.5c0,0.2-0.1,0.4-0.2,0.5c-0.1,0.2-0.3,0.3-0.5,0.3c-0.2,0-0.4-0.1-0.5-0.2  C41,10.9,41,10.7,41,10.5c0-0.2,0.1-0.4,0.2-0.5C41.3,9.7,41.5,9.7,41.7,9.7 M39.8,20.7c0.2,0,0.4,0.1,0.5,0.2  c0.2,0.2,0.2,0.3,0.2,0.6c0,0.2-0.1,0.4-0.2,0.5c-0.1,0.1-0.3,0.2-0.5,0.2c-0.2,0-0.4-0.1-0.6-0.2c-0.1-0.1-0.2-0.3-0.2-0.5  c0-0.2,0.1-0.4,0.2-0.6C39.3,20.8,39.5,20.7,39.8,20.7 M39.8,15.2c0.2,0,0.4,0.1,0.5,0.2c0.1,0.1,0.2,0.3,0.2,0.5  c0,0.4-0.3,0.7-0.7,0.7c-0.2,0-0.3-0.1-0.5-0.2c-0.2-0.1-0.2-0.3-0.2-0.5c0-0.2,0.1-0.4,0.2-0.5C39.4,15.2,39.6,15.2,39.8,15.2   M39.8,9.7c0.2,0,0.4,0.1,0.5,0.2c0.1,0.1,0.2,0.3,0.2,0.5c0,0.4-0.3,0.7-0.7,0.7c-0.2,0-0.3-0.1-0.5-0.2c-0.2-0.1-0.2-0.3-0.2-0.5  c0-0.2,0.1-0.4,0.2-0.5C39.4,9.7,39.6,9.7,39.8,9.7 M38,20.7c0.2,0,0.4,0.1,0.5,0.2c0.2,0.2,0.2,0.3,0.2,0.6c0,0.2-0.1,0.4-0.2,0.5  c-0.1,0.1-0.3,0.2-0.5,0.2c-0.2,0-0.4-0.1-0.6-0.2c-0.1-0.1-0.2-0.3-0.2-0.5c0-0.2,0.1-0.4,0.2-0.6C37.5,20.8,37.7,20.7,38,20.7   M38,15.2c0.2,0,0.4,0.1,0.5,0.2c0.1,0.1,0.2,0.3,0.2,0.5c0,0.4-0.3,0.7-0.7,0.7c-0.2,0-0.3-0.1-0.5-0.2c-0.2-0.1-0.2-0.3-0.2-0.5  c0-0.2,0.1-0.4,0.2-0.5C37.6,15.2,37.8,15.2,38,15.2 M38,9.7c0.2,0,0.4,0.1,0.5,0.2c0.1,0.1,0.2,0.3,0.2,0.5c0,0.4-0.3,0.7-0.7,0.7  c-0.2,0-0.3-0.1-0.5-0.2c-0.2-0.1-0.2-0.3-0.2-0.5c0-0.2,0.1-0.4,0.2-0.5C37.6,9.7,37.8,9.7,38,9.7 M36.1,20.7  c0.2,0,0.4,0.1,0.5,0.2c0.2,0.2,0.2,0.3,0.2,0.6c0,0.2-0.1,0.4-0.2,0.5c-0.1,0.1-0.3,0.2-0.5,0.2c-0.2,0-0.4-0.1-0.6-0.2  c-0.1-0.1-0.2-0.3-0.2-0.5c0-0.2,0.1-0.4,0.2-0.6C35.6,20.8,35.8,20.7,36.1,20.7 M36.1,18.8c0.2,0,0.4,0.1,0.5,0.2  c0.1,0.1,0.2,0.3,0.2,0.5c0,0.4-0.3,0.7-0.7,0.7c-0.2,0-0.3-0.1-0.5-0.2c-0.2-0.1-0.2-0.3-0.2-0.5C35.4,19.2,35.6,18.8,36.1,18.8  C36,18.8,36,18.8,36.1,18.8 M36.1,15.2c0.2,0,0.4,0.1,0.5,0.2c0.1,0.1,0.2,0.3,0.2,0.5c0,0.4-0.3,0.7-0.7,0.7  c-0.2,0-0.3-0.1-0.5-0.2c-0.2-0.1-0.2-0.3-0.2-0.5c0-0.2,0.1-0.4,0.2-0.5C35.7,15.2,35.9,15.2,36.1,15.2 M36.1,13.3  c0.2,0,0.4,0.1,0.5,0.2c0.1,0.1,0.2,0.3,0.2,0.5c0,0.4-0.3,0.7-0.7,0.7c-0.2,0-0.3-0.1-0.5-0.2c-0.2-0.1-0.2-0.3-0.2-0.5  C35.4,13.7,35.6,13.3,36.1,13.3C36,13.3,36,13.3,36.1,13.3 M36.1,11.5c0.2,0,0.4,0.1,0.5,0.2c0.1,0.1,0.2,0.3,0.2,0.5  c0,0.4-0.3,0.7-0.7,0.7c-0.2,0-0.3-0.1-0.5-0.2c-0.2-0.1-0.2-0.3-0.2-0.5C35.4,11.9,35.6,11.5,36.1,11.5C36,11.5,36,11.5,36.1,11.5   M36.1,9.7c0.2,0,0.4,0.1,0.5,0.2c0.1,0.1,0.2,0.3,0.2,0.5c0,0.4-0.3,0.7-0.7,0.7c-0.2,0-0.3-0.1-0.5-0.2c-0.2-0.1-0.2-0.3-0.2-0.5  c0-0.2,0.1-0.4,0.2-0.5C35.7,9.7,35.9,9.7,36.1,9.7 M36.1,17c0.2,0,0.4,0.1,0.6,0.2c0.1,0.1,0.2,0.3,0.2,0.5c0,0.2-0.1,0.4-0.2,0.5  c-0.2,0.1-0.4,0.2-0.6,0.2c-0.2,0-0.4-0.1-0.5-0.2c-0.1-0.1-0.2-0.3-0.2-0.5C35.4,17.4,35.6,17,36.1,17C36,17,36,17,36.1,17"/>
<path class="st0" d="M17.6,47.4c0.2,0,0.4,0.1,0.5,0.2c0.1,0.1,0.2,0.3,0.2,0.5c0,0.2-0.1,0.4-0.2,0.5c-0.1,0.1-0.3,0.2-0.5,0.2  c-0.2,0-0.4-0.1-0.6-0.2c-0.1-0.1-0.2-0.3-0.2-0.5c0-0.2,0.1-0.4,0.2-0.5C17.1,47.5,17.3,47.5,17.6,47.4 M17.6,36.4  c0.2,0,0.4,0.1,0.5,0.2c0.1,0.1,0.2,0.3,0.2,0.5c0,0.4-0.3,0.7-0.7,0.7c-0.2,0-0.3-0.1-0.5-0.2c-0.2-0.1-0.2-0.3-0.2-0.5  C16.9,36.8,17.1,36.4,17.6,36.4C17.5,36.4,17.5,36.4,17.6,36.4 M15.7,47.4c0.2,0,0.4,0.1,0.5,0.2c0.1,0.1,0.2,0.3,0.2,0.5  c0,0.2-0.1,0.4-0.2,0.5c-0.1,0.1-0.3,0.2-0.5,0.2c-0.2,0-0.4-0.1-0.6-0.2c-0.1,0-0.2-0.2-0.2-0.4c0-0.2,0.1-0.4,0.2-0.5  C15.2,47.6,15.4,47.5,15.7,47.4 M15.7,45.6c0.2,0,0.4,0.1,0.5,0.2c0.1,0.1,0.2,0.3,0.2,0.5c0,0.4-0.3,0.7-0.7,0.7  c-0.2,0-0.3-0.1-0.5-0.2C15,46.7,15,46.5,15,46.3c0-0.2,0.1-0.4,0.2-0.5C15.3,45.6,15.5,45.6,15.7,45.6 M15.7,41.9  c0.2,0,0.4,0.1,0.5,0.2c0.1,0.1,0.2,0.3,0.2,0.5c0,0.4-0.3,0.7-0.7,0.7c-0.2,0-0.3-0.1-0.5-0.2C15,43,15,42.8,15,42.6  C15,42.3,15.2,41.9,15.7,41.9C15.6,41.9,15.6,41.9,15.7,41.9 M15.7,40.1c0.2,0,0.4,0.1,0.5,0.2c0.2,0.2,0.2,0.3,0.2,0.6  c0,0.4-0.3,0.7-0.7,0.7c-0.2,0-0.3-0.1-0.5-0.2c-0.2-0.2-0.3-0.4-0.3-0.6c0-0.2,0.1-0.4,0.2-0.6C15.3,40.2,15.5,40.1,15.7,40.1   M15.7,38.2c0.2,0,0.4,0.1,0.5,0.2c0.1,0.1,0.2,0.3,0.2,0.5c0,0.4-0.3,0.7-0.7,0.7c-0.2,0-0.3-0.1-0.5-0.2c-0.2,0-0.3-0.2-0.3-0.4  c0-0.2,0.1-0.4,0.2-0.5C15.2,38.4,15.4,38.3,15.7,38.2 M15.7,36.4c0.2,0,0.4,0.1,0.5,0.2c0.1,0.1,0.2,0.3,0.2,0.5  c0,0.4-0.3,0.7-0.7,0.7c-0.2,0-0.3-0.1-0.5-0.2c-0.2,0-0.3-0.2-0.3-0.4c0-0.2,0.1-0.4,0.2-0.5C15.2,36.6,15.4,36.5,15.7,36.4   M15.7,43.7c0.2,0,0.4,0.1,0.6,0.2c0.1,0.1,0.2,0.3,0.2,0.5c0,0.2-0.1,0.4-0.2,0.5c-0.2,0.1-0.4,0.2-0.6,0.2c-0.2,0-0.4-0.1-0.5-0.2  c-0.1-0.1-0.2-0.3-0.2-0.5C15,44.1,15.2,43.7,15.7,43.7C15.6,43.7,15.6,43.7,15.7,43.7 M13.9,47.4c0.2,0,0.4,0.1,0.5,0.2  c0.1,0.1,0.2,0.3,0.2,0.5c0,0.2-0.1,0.4-0.2,0.5c-0.1,0.1-0.3,0.2-0.5,0.2c-0.2,0-0.4-0.1-0.6-0.2c-0.1-0.1-0.2-0.3-0.2-0.5  c0-0.2,0.1-0.4,0.2-0.5C13.4,47.5,13.6,47.5,13.9,47.4 M13.9,36.4c0.2,0,0.4,0.1,0.5,0.2c0.1,0.1,0.2,0.3,0.2,0.5  c0,0.4-0.3,0.7-0.7,0.7c-0.2,0-0.3-0.1-0.5-0.2c-0.2-0.1-0.2-0.3-0.2-0.5C13.2,36.8,13.4,36.4,13.9,36.4  C13.8,36.4,13.8,36.4,13.9,36.4"/>
<path class="st0" d="M31.1,47.4c0.2,0,0.4,0.1,0.5,0.2c0.2,0.2,0.2,0.3,0.2,0.6c0,0.2-0.1,0.4-0.2,0.5c-0.1,0.1-0.3,0.2-0.5,0.2  c-0.2,0-0.4-0.1-0.6-0.2c-0.1-0.1-0.2-0.3-0.2-0.5c0-0.2,0.1-0.4,0.2-0.6C30.6,47.5,30.8,47.5,31.1,47.4 M31.1,45.6  c0.2,0,0.4,0.1,0.5,0.2c0.1,0.1,0.2,0.3,0.2,0.5c0,0.4-0.3,0.7-0.7,0.7c-0.2,0-0.3-0.1-0.5-0.2c-0.2-0.1-0.2-0.3-0.2-0.5  c0-0.2,0.1-0.4,0.2-0.5C30.7,45.6,30.9,45.6,31.1,45.6 M31.1,41.9c0.2,0,0.4,0.1,0.5,0.2c0.1,0.1,0.2,0.3,0.2,0.5  c0,0.4-0.3,0.7-0.7,0.7c-0.2,0-0.3-0.1-0.5-0.2c-0.2-0.1-0.2-0.3-0.2-0.5C30.4,42.3,30.6,41.9,31.1,41.9C31,41.9,31,41.9,31.1,41.9   M31.1,40.1c0.2,0,0.4,0.1,0.5,0.2c0.1,0.1,0.2,0.3,0.2,0.5c0,0.4-0.3,0.7-0.7,0.7c-0.2,0-0.3-0.1-0.5-0.2c-0.2-0.1-0.2-0.3-0.2-0.5  c0-0.2,0.1-0.4,0.2-0.5C30.7,40.1,30.9,40.1,31.1,40.1 M31.1,38.2c0.2,0,0.4,0.1,0.5,0.2c0.1,0.1,0.2,0.3,0.2,0.5  c0,0.4-0.3,0.7-0.7,0.7c-0.2,0-0.3-0.1-0.5-0.2c-0.2-0.1-0.2-0.3-0.2-0.5C30.4,38.6,30.6,38.2,31.1,38.2C31,38.2,31,38.2,31.1,38.2   M31.1,36.4c0.2,0,0.4,0.1,0.5,0.2c0.1,0.1,0.2,0.3,0.2,0.5c0,0.4-0.3,0.7-0.7,0.7c-0.2,0-0.3-0.1-0.5-0.2c-0.2-0.1-0.2-0.3-0.2-0.5  C30.4,36.8,30.6,36.4,31.1,36.4C31,36.4,31,36.4,31.1,36.4 M31.1,43.7c0.2,0,0.4,0.1,0.6,0.2c0.1,0.1,0.2,0.3,0.2,0.5  c0,0.2-0.1,0.4-0.2,0.5c-0.2,0.1-0.4,0.2-0.6,0.2c-0.2,0-0.4-0.1-0.5-0.2c-0.1-0.1-0.2-0.3-0.2-0.5C30.4,44.1,30.6,43.7,31.1,43.7  C31,43.7,31,43.7,31.1,43.7 M29.3,45.6c0.2,0,0.4,0.1,0.5,0.2c0.1,0.1,0.2,0.3,0.2,0.5c0,0.4-0.3,0.7-0.7,0.7  c-0.2,0-0.3-0.1-0.5-0.2c-0.2-0.1-0.2-0.3-0.2-0.5c0-0.2,0.1-0.4,0.2-0.5C28.9,45.6,29.1,45.6,29.3,45.6 M28.3,43.7  c0.2,0,0.4,0.1,0.6,0.2c0.1,0.1,0.2,0.3,0.2,0.5c0,0.2-0.1,0.4-0.2,0.5c-0.2,0.1-0.4,0.2-0.6,0.2c-0.4,0-0.7-0.3-0.7-0.7  S27.9,43.7,28.3,43.7L28.3,43.7 M27.4,41.9c0.2,0,0.4,0.1,0.5,0.2c0.1,0.1,0.2,0.3,0.2,0.5c0,0.4-0.3,0.7-0.7,0.7  c-0.2,0-0.3-0.1-0.5-0.2c-0.2-0.1-0.2-0.3-0.2-0.5C26.7,42.3,26.9,41.9,27.4,41.9C27.3,41.9,27.3,41.9,27.4,41.9 M26.5,40.1  c0.2,0,0.4,0.1,0.6,0.2c0.1,0.1,0.2,0.3,0.2,0.5c0,0.2-0.1,0.4-0.2,0.5c-0.2,0.1-0.4,0.2-0.6,0.2c-0.4,0-0.7-0.3-0.7-0.7  c0-0.2,0.1-0.3,0.2-0.5C26.1,40.1,26.3,40.1,26.5,40.1 M25.6,38.2c0.2,0,0.4,0.1,0.5,0.2c0.1,0.1,0.2,0.3,0.2,0.5  c0,0.4-0.3,0.7-0.7,0.7c-0.2,0-0.3-0.1-0.5-0.2c-0.2-0.1-0.2-0.3-0.2-0.5C24.9,38.6,25.1,38.2,25.6,38.2  C25.5,38.2,25.5,38.2,25.6,38.2 M23.7,47.4c0.2,0,0.4,0.1,0.5,0.2c0.2,0.2,0.2,0.3,0.2,0.6c0,0.2-0.1,0.4-0.2,0.5  c-0.1,0.1-0.3,0.2-0.5,0.2c-0.2,0-0.4-0.1-0.6-0.2c-0.1-0.1-0.2-0.3-0.2-0.5c0-0.2,0.1-0.4,0.2-0.6C23.2,47.5,23.4,47.5,23.7,47.4   M23.7,45.6c0.2,0,0.4,0.1,0.5,0.2c0.1,0.1,0.2,0.3,0.2,0.5c0,0.4-0.3,0.7-0.7,0.7c-0.2,0-0.3-0.1-0.5-0.2C23,46.7,23,46.5,23,46.3  c0-0.2,0.1-0.4,0.2-0.5C23.3,45.6,23.5,45.6,23.7,45.6 M23.7,41.9c0.2,0,0.4,0.1,0.5,0.2c0.1,0.1,0.2,0.3,0.2,0.5  c0,0.4-0.3,0.7-0.7,0.7c-0.2,0-0.3-0.1-0.5-0.2C23,43,23,42.8,23,42.6C23,42.3,23.2,41.9,23.7,41.9C23.6,41.9,23.6,41.9,23.7,41.9   M23.7,40.1c0.2,0,0.4,0.1,0.5,0.2c0.1,0.1,0.2,0.3,0.2,0.5c0,0.4-0.3,0.7-0.7,0.7c-0.2,0-0.3-0.1-0.5-0.2c-0.2-0.1-0.3-0.3-0.3-0.5  c0-0.2,0.1-0.4,0.2-0.5C23.2,40.2,23.4,40.1,23.7,40.1 M23.7,38.2c0.2,0,0.4,0.1,0.5,0.2c0.1,0.1,0.2,0.3,0.2,0.5  c0,0.4-0.3,0.7-0.7,0.7c-0.2,0-0.3-0.1-0.5-0.2c-0.2,0-0.3-0.2-0.3-0.4c0-0.2,0.1-0.4,0.2-0.5C23.2,38.4,23.4,38.3,23.7,38.2   M23.7,36.4c0.2,0,0.4,0.1,0.5,0.2c0.1,0.1,0.2,0.3,0.2,0.5c0,0.4-0.3,0.7-0.7,0.7c-0.2,0-0.3-0.1-0.5-0.2c-0.2,0-0.3-0.2-0.3-0.4  c0-0.2,0.1-0.4,0.2-0.5C23.2,36.6,23.4,36.5,23.7,36.4 M23.7,43.7c0.2,0,0.4,0.1,0.6,0.2c0.1,0.1,0.2,0.3,0.2,0.5  c0,0.2-0.1,0.4-0.2,0.5c-0.2,0.1-0.4,0.2-0.6,0.2c-0.2,0-0.4-0.1-0.5-0.2c-0.1-0.1-0.2-0.3-0.2-0.5C23,44.1,23.2,43.7,23.7,43.7  C23.6,43.7,23.6,43.7,23.7,43.7"/>
<path class="st0" d="M43.8,40.1c0.2,0,0.4,0.1,0.5,0.2c0.2,0.2,0.2,0.3,0.2,0.6c0,0.4-0.3,0.7-0.7,0.7c-0.2,0-0.3-0.1-0.5-0.2  c-0.2-0.1-0.2-0.3-0.2-0.5c0-0.2,0.1-0.4,0.2-0.6C43.4,40.1,43.6,40.1,43.8,40.1 M43.8,38.2c0.2,0,0.4,0.1,0.5,0.2  c0.1,0.1,0.2,0.3,0.2,0.5c0,0.4-0.3,0.7-0.7,0.7c-0.2,0-0.3-0.1-0.5-0.2c-0.2-0.1-0.2-0.3-0.2-0.5C43.1,38.6,43.3,38.2,43.8,38.2  C43.7,38.2,43.7,38.2,43.8,38.2 M43.8,36.4c0.2,0,0.4,0.1,0.5,0.2c0.1,0.1,0.2,0.3,0.2,0.5c0,0.4-0.3,0.7-0.7,0.7  c-0.2,0-0.3-0.1-0.5-0.2c-0.2-0.1-0.2-0.3-0.2-0.5C43.1,36.8,43.3,36.4,43.8,36.4C43.7,36.4,43.7,36.4,43.8,36.4 M42.9,41.9  c0.2,0,0.4,0.1,0.6,0.2c0.1,0.1,0.2,0.3,0.2,0.5c0,0.2-0.1,0.4-0.2,0.5c-0.2,0.1-0.4,0.2-0.6,0.2c-0.4,0-0.7-0.3-0.7-0.7  S42.5,41.9,42.9,41.9L42.9,41.9 M42,43.7c0.2,0,0.4,0.1,0.5,0.2c0.1,0.1,0.2,0.3,0.2,0.5c0,0.4-0.3,0.7-0.7,0.7  c-0.2,0-0.3-0.1-0.5-0.2c-0.2-0.1-0.2-0.3-0.2-0.5C41.3,44.1,41.5,43.7,42,43.7C41.9,43.7,41.9,43.7,42,43.7 M41,45.6  c0.2,0,0.4,0.1,0.6,0.2c0.1,0.1,0.2,0.3,0.2,0.5c0,0.2-0.1,0.4-0.2,0.5C41.4,47,41.2,47,41,47c-0.4,0-0.7-0.3-0.7-0.7  c0-0.2,0.1-0.3,0.2-0.5C40.6,45.6,40.8,45.6,41,45.6 M40.1,47.4c0.2,0,0.4,0.1,0.5,0.2c0.1,0.1,0.2,0.3,0.2,0.5  c0,0.2-0.1,0.4-0.2,0.5c-0.1,0.1-0.3,0.2-0.5,0.2c-0.2,0-0.4-0.1-0.6-0.2c-0.1-0.1-0.2-0.3-0.2-0.5c0-0.2,0.1-0.4,0.2-0.5  C39.6,47.5,39.8,47.5,40.1,47.4 M39.2,45.6c0.2,0,0.4,0.1,0.6,0.2c0.1,0.1,0.2,0.3,0.2,0.5c0,0.2-0.1,0.4-0.2,0.5  C39.6,47,39.4,47,39.2,47c-0.4,0-0.7-0.3-0.7-0.7c0-0.2,0.1-0.3,0.2-0.5C38.8,45.6,39,45.6,39.2,45.6 M38.3,43.7  c0.2,0,0.4,0.1,0.5,0.2c0.1,0.1,0.2,0.3,0.2,0.5c0,0.4-0.3,0.7-0.7,0.7c-0.2,0-0.3-0.1-0.5-0.2c-0.2-0.1-0.2-0.3-0.2-0.5  C37.6,44.1,37.8,43.7,38.3,43.7C38.2,43.7,38.2,43.7,38.3,43.7 M37.3,41.9c0.2,0,0.4,0.1,0.6,0.2c0.1,0.1,0.2,0.3,0.2,0.5  c0,0.2-0.1,0.4-0.2,0.5c-0.2,0.1-0.4,0.2-0.6,0.2c-0.4,0-0.7-0.3-0.7-0.7S36.9,41.9,37.3,41.9 M36.4,40.1c0.2,0,0.4,0.1,0.5,0.2  c0.2,0.2,0.2,0.3,0.2,0.6c0,0.4-0.3,0.7-0.7,0.7c-0.2,0-0.3-0.1-0.5-0.2c-0.2-0.1-0.2-0.3-0.2-0.5c0-0.2,0.1-0.4,0.2-0.6  C36,40.1,36.2,40.1,36.4,40.1 M36.4,38.2c0.2,0,0.4,0.1,0.5,0.2c0.1,0.1,0.2,0.3,0.2,0.5c0,0.4-0.3,0.7-0.7,0.7  c-0.2,0-0.3-0.1-0.5-0.2c-0.2-0.1-0.2-0.3-0.2-0.5C35.7,38.6,35.9,38.2,36.4,38.2C36.3,38.2,36.3,38.2,36.4,38.2 M36.4,36.4  c0.2,0,0.4,0.1,0.5,0.2c0.1,0.1,0.2,0.3,0.2,0.5c0,0.4-0.3,0.7-0.7,0.7c-0.2,0-0.3-0.1-0.5-0.2c-0.2-0.1-0.2-0.3-0.2-0.5  C35.7,36.8,35.9,36.4,36.4,36.4C36.3,36.4,36.3,36.4,36.4,36.4"/>
<path class="st0" d="M56.5,47.4c0.2,0,0.4,0.1,0.5,0.2c0.2,0.2,0.2,0.3,0.2,0.6c0,0.2-0.1,0.4-0.2,0.5c-0.1,0.1-0.3,0.2-0.5,0.2  c-0.2,0-0.4-0.1-0.6-0.2c-0.1-0.1-0.2-0.3-0.2-0.5c-0.1-0.4,0.2-0.7,0.6-0.8C56.3,47.4,56.4,47.4,56.5,47.4 M56.5,36.4  c0.2,0,0.4,0.1,0.5,0.2c0.1,0.1,0.2,0.3,0.2,0.5c0,0.4-0.3,0.7-0.7,0.7c-0.2,0-0.3-0.1-0.5-0.2c-0.2-0.1-0.2-0.3-0.2-0.5  C55.8,36.8,56,36.4,56.5,36.4C56.4,36.4,56.4,36.4,56.5,36.4 M54.7,47.4c0.2,0,0.4,0.1,0.5,0.2c0.2,0.2,0.2,0.3,0.2,0.6  c0,0.2-0.1,0.4-0.2,0.5c-0.1,0.1-0.3,0.2-0.5,0.2c-0.2,0-0.4-0.1-0.6-0.2c-0.1-0.1-0.2-0.3-0.2-0.5c-0.1-0.4,0.2-0.7,0.6-0.8  C54.5,47.4,54.6,47.4,54.7,47.4 M54.7,41.9c0.2,0,0.4,0.1,0.5,0.2c0.1,0.1,0.2,0.3,0.2,0.5c0,0.4-0.3,0.7-0.7,0.7  c-0.2,0-0.3-0.1-0.5-0.2C54,43,54,42.8,54,42.6C54,42.3,54.2,41.9,54.7,41.9C54.6,41.9,54.6,41.9,54.7,41.9 M54.7,36.4  c0.2,0,0.4,0.1,0.5,0.2c0.1,0.1,0.2,0.3,0.2,0.5c0,0.4-0.3,0.7-0.7,0.7c-0.2,0-0.3-0.1-0.5-0.2c-0.2,0-0.3-0.2-0.3-0.4  c0-0.2,0.1-0.4,0.2-0.5C54.2,36.6,54.4,36.5,54.7,36.4 M52.8,47.4c0.2,0,0.4,0.1,0.5,0.2c0.2,0.2,0.2,0.3,0.2,0.6  c0,0.2-0.1,0.4-0.2,0.5c-0.1,0.1-0.3,0.2-0.5,0.2c-0.2,0-0.4-0.1-0.6-0.2c-0.1-0.1-0.2-0.3-0.2-0.5c-0.1-0.4,0.2-0.7,0.6-0.8  C52.6,47.4,52.7,47.4,52.8,47.4 M52.8,41.9c0.2,0,0.4,0.1,0.5,0.2c0.1,0.1,0.2,0.3,0.2,0.5c0,0.4-0.3,0.7-0.7,0.7  c-0.2,0-0.3-0.1-0.5-0.2c-0.2-0.1-0.2-0.3-0.2-0.5C52.1,42.3,52.3,41.9,52.8,41.9C52.7,41.9,52.7,41.9,52.8,41.9 M52.8,36.4  c0.2,0,0.4,0.1,0.5,0.2c0.1,0.1,0.2,0.3,0.2,0.5c0,0.4-0.3,0.7-0.7,0.7c-0.2,0-0.3-0.1-0.5-0.2c-0.2-0.1-0.2-0.3-0.2-0.5  C52.1,36.8,52.3,36.4,52.8,36.4C52.7,36.4,52.7,36.4,52.8,36.4 M51,47.4c0.2,0,0.4,0.1,0.5,0.2c0.2,0.2,0.2,0.3,0.2,0.6  c0,0.2-0.1,0.4-0.2,0.5c-0.1,0.1-0.3,0.2-0.5,0.2c-0.2,0-0.4-0.1-0.6-0.2c-0.1-0.1-0.2-0.3-0.2-0.5c-0.1-0.4,0.2-0.7,0.6-0.8  C50.8,47.4,50.9,47.4,51,47.4 M51,41.9c0.2,0,0.4,0.1,0.5,0.2c0.1,0.1,0.2,0.3,0.2,0.5c0,0.4-0.3,0.7-0.7,0.7  c-0.2,0-0.3-0.1-0.5-0.2c-0.2-0.1-0.2-0.3-0.2-0.5C50.3,42.3,50.5,41.9,51,41.9C50.9,41.9,50.9,41.9,51,41.9 M51,36.4  c0.2,0,0.4,0.1,0.5,0.2c0.1,0.1,0.2,0.3,0.2,0.5c0,0.4-0.3,0.7-0.7,0.7c-0.2,0-0.3-0.1-0.5-0.2c-0.2-0.1-0.2-0.3-0.2-0.5  C50.3,36.8,50.5,36.4,51,36.4C50.9,36.4,50.9,36.4,51,36.4 M49.1,47.4c0.2,0,0.4,0.1,0.5,0.2c0.2,0.2,0.2,0.3,0.2,0.6  c0,0.2-0.1,0.4-0.2,0.5c-0.1,0.1-0.3,0.2-0.5,0.2c-0.2,0-0.4-0.1-0.6-0.2c-0.1-0.1-0.2-0.3-0.2-0.5c-0.1-0.4,0.2-0.7,0.6-0.8  C48.9,47.4,49,47.4,49.1,47.4 M49.1,45.6c0.2,0,0.4,0.1,0.5,0.2c0.1,0.1,0.2,0.3,0.2,0.5c0,0.4-0.3,0.7-0.7,0.7  c-0.2,0-0.3-0.1-0.5-0.2c-0.2-0.1-0.2-0.3-0.2-0.5c0-0.2,0.1-0.4,0.2-0.5C48.7,45.6,48.9,45.6,49.1,45.6 M49.1,41.9  c0.2,0,0.4,0.1,0.5,0.2c0.1,0.1,0.2,0.3,0.2,0.5c0,0.4-0.3,0.7-0.7,0.7c-0.2,0-0.3-0.1-0.5-0.2c-0.2-0.1-0.2-0.3-0.2-0.5  C48.4,42.3,48.6,41.9,49.1,41.9C49,41.9,49,41.9,49.1,41.9 M49.1,40.1c0.2,0,0.4,0.1,0.5,0.2c0.1,0.1,0.2,0.3,0.2,0.5  c0,0.4-0.3,0.7-0.7,0.7c-0.2,0-0.3-0.1-0.5-0.2c-0.2-0.1-0.2-0.3-0.2-0.5c0-0.2,0.1-0.4,0.2-0.5C48.7,40.1,48.9,40.1,49.1,40.1   M49.1,38.2c0.2,0,0.4,0.1,0.5,0.2c0.1,0.1,0.2,0.3,0.2,0.5c0,0.4-0.3,0.7-0.7,0.7c-0.2,0-0.3-0.1-0.5-0.2c-0.2-0.1-0.2-0.3-0.2-0.5  C48.4,38.6,48.6,38.2,49.1,38.2C49,38.2,49,38.2,49.1,38.2 M49.1,36.4c0.2,0,0.4,0.1,0.5,0.2c0.1,0.1,0.2,0.3,0.2,0.5  c0,0.4-0.3,0.7-0.7,0.7c-0.2,0-0.3-0.1-0.5-0.2c-0.2-0.1-0.2-0.3-0.2-0.5C48.4,36.8,48.6,36.4,49.1,36.4C49,36.4,49,36.4,49.1,36.4   M49.1,43.7c0.2,0,0.4,0.1,0.6,0.2c0.1,0.1,0.2,0.3,0.2,0.5c0,0.2-0.1,0.4-0.2,0.5c-0.2,0.1-0.4,0.2-0.6,0.2c-0.2,0-0.4-0.1-0.5-0.2  c-0.1-0.1-0.2-0.3-0.2-0.5C48.4,44.1,48.6,43.7,49.1,43.7C49,43.7,49,43.7,49.1,43.7"/>
<path class="st0" d="M69,45.6c0.2,0,0.4,0.1,0.5,0.2c0.1,0.1,0.2,0.3,0.2,0.5c0,0.4-0.3,0.7-0.7,0.7c-0.2,0-0.3-0.1-0.5-0.2  c-0.2-0.1-0.2-0.3-0.2-0.5c0-0.2,0.1-0.4,0.2-0.5C68.6,45.6,68.7,45.6,69,45.6 M69,38.2c0.2,0,0.4,0.1,0.5,0.2  c0.1,0.1,0.2,0.3,0.2,0.5c0,0.4-0.3,0.7-0.7,0.7c-0.2,0-0.3-0.1-0.5-0.2c-0.2-0.1-0.2-0.3-0.2-0.5c0-0.2,0.1-0.4,0.2-0.5  C68.6,38.3,68.8,38.2,69,38.2 M68.9,43.7c0.2,0,0.4,0.1,0.6,0.2c0.1,0.1,0.2,0.3,0.2,0.5c0,0.2-0.1,0.4-0.2,0.5  c-0.2,0.1-0.4,0.2-0.6,0.2c-0.2,0-0.4-0.1-0.5-0.2c-0.1-0.1-0.2-0.3-0.2-0.5C68.2,44.1,68.4,43.7,68.9,43.7  C68.8,43.7,68.8,43.7,68.9,43.7 M67.1,47.4c0.2,0,0.4,0.1,0.5,0.2c0.1,0.1,0.2,0.3,0.2,0.5c0,0.2-0.1,0.4-0.2,0.5  c-0.1,0.1-0.3,0.2-0.5,0.2c-0.2,0-0.4-0.1-0.6-0.2c-0.1-0.1-0.2-0.3-0.2-0.5c0-0.2,0.1-0.4,0.2-0.5C66.6,47.5,66.8,47.5,67.1,47.4   M67.1,41.9c0.2,0,0.4,0.1,0.5,0.2c0.2,0.2,0.2,0.3,0.2,0.6c0,0.4-0.3,0.7-0.7,0.7c-0.2,0-0.3-0.1-0.5-0.2c-0.2-0.1-0.2-0.3-0.2-0.5  c0-0.2,0.1-0.4,0.2-0.6C66.7,42,66.9,41.9,67.1,41.9 M67.1,36.4c0.2,0,0.4,0.1,0.5,0.2c0.1,0.1,0.2,0.3,0.2,0.5  c0,0.4-0.3,0.7-0.7,0.7c-0.2,0-0.3-0.1-0.5-0.2c-0.2-0.1-0.2-0.3-0.2-0.5C66.4,36.8,66.6,36.4,67.1,36.4C67,36.4,67,36.4,67.1,36.4   M65.3,47.4c0.2,0,0.4,0.1,0.5,0.2c0.1,0.1,0.2,0.3,0.2,0.5c0,0.2-0.1,0.4-0.2,0.5c-0.1,0.1-0.3,0.2-0.5,0.2c-0.2,0-0.4-0.1-0.6-0.2  c-0.1-0.1-0.2-0.3-0.2-0.5c0-0.2,0.1-0.4,0.2-0.5C64.8,47.5,65,47.4,65.3,47.4 M65.3,41.9c0.2,0,0.4,0.1,0.5,0.2  c0.2,0.2,0.2,0.3,0.2,0.6c0,0.4-0.3,0.7-0.7,0.7c-0.2,0-0.3-0.1-0.5-0.2c-0.2-0.1-0.2-0.3-0.2-0.5c0-0.2,0.1-0.4,0.2-0.6  C64.9,42,65.1,41.9,65.3,41.9 M65.3,36.4c0.2,0,0.4,0.1,0.5,0.2c0.1,0.1,0.2,0.3,0.2,0.5c0,0.4-0.3,0.7-0.7,0.7  c-0.2,0-0.3-0.1-0.5-0.2c-0.2-0.1-0.2-0.3-0.2-0.5c0-0.2,0.1-0.4,0.2-0.5C64.9,36.5,65.1,36.4,65.3,36.4 M63.4,47.4  c0.2,0,0.4,0.1,0.5,0.2c0.1,0.1,0.2,0.3,0.2,0.5c0,0.2-0.1,0.4-0.2,0.5c-0.1,0.1-0.3,0.2-0.5,0.2c-0.2,0-0.4-0.1-0.6-0.2  c-0.1-0.1-0.2-0.3-0.2-0.5c0-0.2,0.1-0.4,0.2-0.5C62.9,47.5,63.1,47.5,63.4,47.4 M63.4,41.9c0.2,0,0.4,0.1,0.5,0.2  c0.2,0.2,0.2,0.3,0.2,0.6c0,0.4-0.3,0.7-0.7,0.7c-0.2,0-0.3-0.1-0.5-0.2c-0.2-0.1-0.2-0.3-0.2-0.5c0-0.2,0.1-0.4,0.2-0.6  C63,42,63.2,41.9,63.4,41.9 M63.4,36.4c0.2,0,0.4,0.1,0.5,0.2c0.1,0.1,0.2,0.3,0.2,0.5c0,0.4-0.3,0.7-0.7,0.7  c-0.2,0-0.3-0.1-0.5-0.2c-0.2-0.1-0.2-0.3-0.2-0.5C62.7,36.8,62.9,36.4,63.4,36.4C63.3,36.4,63.3,36.4,63.4,36.4 M61.6,45.6  c0.2,0,0.4,0.1,0.5,0.2c0.1,0.1,0.2,0.3,0.2,0.5c0,0.4-0.3,0.7-0.7,0.7c-0.2,0-0.3-0.1-0.5-0.2c-0.2-0.1-0.2-0.3-0.2-0.5  c0-0.2,0.1-0.4,0.2-0.5C61.2,45.6,61.3,45.6,61.6,45.6 M61.6,40.1c0.2,0,0.4,0.1,0.5,0.2c0.1,0.1,0.2,0.3,0.2,0.5  c0,0.4-0.3,0.7-0.7,0.7c-0.2,0-0.3-0.1-0.5-0.2c-0.2-0.1-0.2-0.3-0.2-0.5c0-0.2,0.1-0.4,0.2-0.5C61.2,40.1,61.3,40.1,61.6,40.1   M61.6,38.2c0.2,0,0.4,0.1,0.5,0.2c0.1,0.1,0.2,0.3,0.2,0.5c0,0.4-0.3,0.7-0.7,0.7c-0.2,0-0.3-0.1-0.5-0.2c-0.2-0.1-0.2-0.3-0.2-0.5  c0-0.2,0.1-0.4,0.2-0.5C61.2,38.3,61.4,38.2,61.6,38.2"/>
<path class="st0" d="M80.4,36.4c0.2,0,0.4,0.1,0.5,0.2c0.1,0.1,0.2,0.3,0.2,0.5c0,0.4-0.3,0.7-0.7,0.7c-0.2,0-0.3-0.1-0.5-0.2  c-0.2-0.1-0.2-0.3-0.2-0.5c0-0.2,0.1-0.4,0.2-0.5C80,36.5,80.2,36.4,80.4,36.4 M78.5,36.4c0.2,0,0.4,0.1,0.5,0.2  c0.1,0.1,0.2,0.3,0.2,0.5c0,0.4-0.3,0.7-0.7,0.7c-0.2,0-0.3-0.1-0.5-0.2c-0.2-0.1-0.2-0.3-0.2-0.5C77.8,36.8,78,36.4,78.5,36.4  C78.4,36.4,78.4,36.4,78.5,36.4 M76.7,47.4c0.2,0,0.4,0.1,0.5,0.2c0.1,0.1,0.2,0.3,0.2,0.5c0,0.2-0.1,0.4-0.2,0.5  c-0.1,0.1-0.3,0.2-0.5,0.2c-0.2,0-0.4-0.1-0.6-0.2c-0.2,0-0.2-0.2-0.2-0.4c0-0.2,0.1-0.4,0.2-0.5C76.2,47.5,76.4,47.4,76.7,47.4   M76.7,45.6c0.2,0,0.4,0.1,0.5,0.2c0.1,0.1,0.2,0.3,0.2,0.5c0,0.4-0.3,0.7-0.7,0.7c-0.2,0-0.3-0.1-0.5-0.2C76,46.7,76,46.5,76,46.3  c0-0.2,0.1-0.4,0.2-0.5C76.3,45.6,76.4,45.6,76.7,45.6 M76.7,41.9c0.2,0,0.4,0.1,0.5,0.2c0.1,0.1,0.2,0.3,0.2,0.5  c0,0.4-0.3,0.7-0.7,0.7c-0.2,0-0.3-0.1-0.5-0.2C76,43,76,42.8,76,42.6c0-0.2,0.1-0.4,0.2-0.5C76.3,42,76.5,41.9,76.7,41.9   M76.7,40.1c0.2,0,0.4,0.1,0.5,0.2c0.2,0.2,0.2,0.3,0.2,0.6c0,0.4-0.3,0.7-0.7,0.7c-0.2,0-0.3-0.1-0.5-0.2c-0.2-0.2-0.3-0.4-0.3-0.6  c0-0.2,0.1-0.4,0.2-0.6C76.2,40.1,76.5,40.1,76.7,40.1 M76.7,38.2c0.2,0,0.4,0.1,0.5,0.2c0.1,0.1,0.2,0.3,0.2,0.5  c0,0.4-0.3,0.7-0.7,0.7c-0.2,0-0.3-0.1-0.5-0.2c-0.2,0-0.3-0.2-0.3-0.4c0-0.2,0.1-0.4,0.2-0.5C76.2,38.3,76.4,38.2,76.7,38.2   M76.7,36.4c0.2,0,0.4,0.1,0.5,0.2c0.1,0.1,0.2,0.3,0.2,0.5c0,0.4-0.3,0.7-0.7,0.7c-0.2,0-0.3-0.1-0.5-0.2c-0.2,0-0.3-0.2-0.3-0.4  c0-0.2,0.1-0.4,0.2-0.5C76.2,36.5,76.4,36.4,76.7,36.4 M76.6,43.7c0.2,0,0.4,0.1,0.6,0.2c0.1,0.1,0.2,0.3,0.2,0.5  c0,0.2-0.1,0.4-0.2,0.5c-0.2,0.1-0.4,0.2-0.6,0.2c-0.2,0-0.4-0.1-0.5-0.2c-0.2,0-0.2-0.2-0.2-0.4c0-0.2,0.1-0.4,0.2-0.5  C76.2,43.8,76.4,43.7,76.6,43.7 M74.8,36.4c0.2,0,0.4,0.1,0.5,0.2c0.1,0.1,0.2,0.3,0.2,0.5c0,0.4-0.3,0.7-0.7,0.7  c-0.2,0-0.3-0.1-0.5-0.2c-0.2-0.1-0.2-0.3-0.2-0.5C74.1,36.8,74.3,36.4,74.8,36.4C74.7,36.4,74.7,36.4,74.8,36.4 M73,36.4  c0.2,0,0.4,0.1,0.5,0.2c0.1,0.1,0.2,0.3,0.2,0.5c0,0.4-0.3,0.7-0.7,0.7c-0.2,0-0.3-0.1-0.5-0.2c-0.2-0.1-0.2-0.3-0.2-0.5  c0-0.2,0.1-0.4,0.2-0.5C72.6,36.5,72.8,36.4,73,36.4"/>
<path class="st0" d="M92.5,47.4c0.2,0,0.4,0.1,0.5,0.2c0.2,0.2,0.2,0.3,0.2,0.6c0,0.2-0.1,0.4-0.2,0.5c-0.1,0.1-0.3,0.2-0.5,0.2  c-0.2,0-0.4-0.1-0.6-0.2c-0.1-0.1-0.2-0.3-0.2-0.5c-0.1-0.4,0.2-0.7,0.6-0.8C92.3,47.4,92.4,47.4,92.5,47.4 M92.5,45.6  c0.2,0,0.4,0.1,0.5,0.2c0.1,0.1,0.2,0.3,0.2,0.5c0,0.4-0.3,0.7-0.7,0.7c-0.2,0-0.3-0.1-0.5-0.2c-0.2-0.1-0.2-0.3-0.2-0.5  c0-0.2,0.1-0.4,0.2-0.5C92.1,45.6,92.3,45.6,92.5,45.6 M92.5,41.9c0.2,0,0.4,0.1,0.5,0.2c0.1,0.1,0.2,0.3,0.2,0.5  c0,0.4-0.3,0.7-0.7,0.7c-0.2,0-0.3-0.1-0.5-0.2c-0.2-0.1-0.2-0.3-0.2-0.5C91.8,42.3,92,41.9,92.5,41.9  C92.4,41.9,92.4,41.9,92.5,41.9 M92.5,40.1c0.2,0,0.4,0.1,0.5,0.2c0.1,0.1,0.2,0.3,0.2,0.5c0,0.4-0.3,0.7-0.7,0.7  c-0.2,0-0.3-0.1-0.5-0.2c-0.2-0.1-0.2-0.3-0.2-0.5c0-0.2,0.1-0.4,0.2-0.5C92.1,40.1,92.3,40.1,92.5,40.1 M92.5,38.2  c0.2,0,0.4,0.1,0.5,0.2c0.1,0.1,0.2,0.3,0.2,0.5c0,0.4-0.3,0.7-0.7,0.7c-0.2,0-0.3-0.1-0.5-0.2c-0.2-0.1-0.2-0.3-0.2-0.5  C91.8,38.6,92,38.2,92.5,38.2C92.4,38.2,92.4,38.2,92.5,38.2 M92.5,36.4c0.2,0,0.4,0.1,0.5,0.2c0.1,0.1,0.2,0.3,0.2,0.5  c0,0.4-0.3,0.7-0.7,0.7c-0.2,0-0.3-0.1-0.5-0.2c-0.2-0.1-0.2-0.3-0.2-0.5C91.8,36.8,92,36.4,92.5,36.4  C92.4,36.4,92.4,36.4,92.5,36.4 M92.5,43.7c0.2,0,0.4,0.1,0.6,0.2c0.1,0.1,0.2,0.3,0.2,0.5c0,0.2-0.1,0.4-0.2,0.5  c-0.2,0.1-0.4,0.2-0.6,0.2c-0.2,0-0.4-0.1-0.5-0.2c-0.1-0.1-0.2-0.3-0.2-0.5C91.8,44.1,92,43.7,92.5,43.7  C92.4,43.7,92.4,43.7,92.5,43.7 M90.6,38.2c0.2,0,0.4,0.1,0.5,0.2c0.1,0.1,0.2,0.3,0.2,0.5c0,0.4-0.3,0.7-0.7,0.7  c-0.2,0-0.3-0.1-0.5-0.2c-0.1-0.1-0.2-0.2-0.2-0.4c0-0.2,0.1-0.4,0.2-0.5C90.2,38.3,90.4,38.2,90.6,38.2 M89.7,40.1  c0.2,0,0.4,0.1,0.6,0.2c0.1,0.1,0.2,0.3,0.2,0.5c0,0.2-0.1,0.4-0.2,0.5c-0.2,0.1-0.4,0.2-0.6,0.2c-0.2,0-0.4-0.1-0.5-0.2  c-0.2-0.1-0.3-0.3-0.3-0.5c0-0.2,0.1-0.4,0.2-0.5C89.2,40.2,89.4,40.1,89.7,40.1 M88.8,43.7c0.2,0,0.4,0.1,0.5,0.2  c0.1,0.1,0.2,0.3,0.2,0.5c0,0.4-0.3,0.7-0.7,0.7c-0.2,0-0.3-0.1-0.5-0.2c-0.2-0.1-0.2-0.3-0.2-0.5C88.1,44.1,88.3,43.7,88.8,43.7  C88.7,43.7,88.7,43.7,88.8,43.7 M88.8,41.9c0.2,0,0.4,0.1,0.5,0.2c0.1,0.1,0.2,0.3,0.2,0.5c0,0.4-0.3,0.7-0.7,0.7  c-0.2,0-0.3-0.1-0.5-0.2c-0.2-0.1-0.2-0.3-0.2-0.5C88.1,42.3,88.3,41.9,88.8,41.9C88.7,41.9,88.7,41.9,88.8,41.9 M87.9,40.1  c0.2,0,0.4,0.1,0.6,0.2c0.1,0.1,0.2,0.3,0.2,0.5c0,0.2-0.1,0.4-0.2,0.5c-0.2,0.1-0.4,0.2-0.6,0.2c-0.4,0-0.7-0.3-0.7-0.7  c0-0.2,0.1-0.3,0.2-0.5C87.5,40.1,87.6,40.1,87.9,40.1 M86.9,38.2c0.2,0,0.4,0.1,0.5,0.2c0.1,0.1,0.2,0.3,0.2,0.5  c0,0.4-0.3,0.7-0.7,0.7c-0.2,0-0.3-0.1-0.5-0.2c-0.2-0.1-0.2-0.3-0.2-0.5C86.2,38.6,86.4,38.2,86.9,38.2  C86.8,38.2,86.8,38.2,86.9,38.2 M85.1,47.4c0.2,0,0.4,0.1,0.5,0.2c0.2,0.2,0.2,0.3,0.2,0.6c0,0.2-0.1,0.4-0.2,0.5  c-0.1,0.1-0.3,0.2-0.5,0.2c-0.2,0-0.4-0.1-0.6-0.2c-0.1-0.1-0.2-0.3-0.2-0.5c-0.1-0.4,0.2-0.7,0.6-0.8C84.9,47.4,85,47.4,85.1,47.4   M85.1,45.6c0.2,0,0.4,0.1,0.5,0.2c0.1,0.1,0.2,0.3,0.2,0.5c0,0.4-0.3,0.7-0.7,0.7c-0.2,0-0.3-0.1-0.5-0.2c-0.2-0.1-0.2-0.3-0.2-0.5  c0-0.2,0.1-0.4,0.2-0.5C84.7,45.6,84.9,45.6,85.1,45.6 M85.1,41.9c0.2,0,0.4,0.1,0.5,0.2c0.1,0.1,0.2,0.3,0.2,0.5  c0,0.4-0.3,0.7-0.7,0.7c-0.2,0-0.3-0.1-0.5-0.2c-0.2-0.1-0.2-0.3-0.2-0.5C84.4,42.3,84.6,41.9,85.1,41.9C85,41.9,85,41.9,85.1,41.9   M85.1,40.1c0.2,0,0.4,0.1,0.5,0.2c0.1,0.1,0.2,0.3,0.2,0.5c0,0.4-0.3,0.7-0.7,0.7c-0.2,0-0.3-0.1-0.5-0.2c-0.2-0.1-0.2-0.3-0.2-0.5  c0-0.2,0.1-0.4,0.2-0.5C84.7,40.1,84.9,40.1,85.1,40.1 M85.1,38.2c0.2,0,0.4,0.1,0.5,0.2c0.1,0.1,0.2,0.3,0.2,0.5  c0,0.4-0.3,0.7-0.7,0.7c-0.2,0-0.3-0.1-0.5-0.2c-0.2-0.1-0.2-0.3-0.2-0.5C84.4,38.6,84.6,38.2,85.1,38.2C85,38.2,85,38.2,85.1,38.2   M85.1,36.4c0.2,0,0.4,0.1,0.5,0.2c0.1,0.1,0.2,0.3,0.2,0.5c0,0.4-0.3,0.7-0.7,0.7c-0.2,0-0.3-0.1-0.5-0.2c-0.2-0.1-0.2-0.3-0.2-0.5  C84.4,36.8,84.6,36.4,85.1,36.4C85,36.4,85,36.4,85.1,36.4 M85.1,43.7c0.2,0,0.4,0.1,0.6,0.2c0.1,0.1,0.2,0.3,0.2,0.5  c0,0.2-0.1,0.4-0.2,0.5c-0.2,0.1-0.4,0.2-0.6,0.2c-0.2,0-0.4-0.1-0.5-0.2c-0.1-0.1-0.2-0.3-0.2-0.5C84.4,44.1,84.6,43.7,85.1,43.7  C85,43.7,85,43.7,85.1,43.7"/>
<path class="st0" d="M105.4,47.4c0.2,0,0.4,0.1,0.5,0.2c0.2,0.2,0.2,0.3,0.2,0.6c0,0.2-0.1,0.4-0.2,0.5c-0.1,0.1-0.3,0.2-0.5,0.2  c-0.2,0-0.4-0.1-0.6-0.2c-0.1-0.1-0.2-0.3-0.2-0.5c0-0.2,0.1-0.4,0.2-0.6C104.9,47.5,105.1,47.4,105.4,47.4 M105.4,36.4  c0.2,0,0.4,0.1,0.5,0.2c0.1,0.1,0.2,0.3,0.2,0.5c0,0.4-0.3,0.7-0.7,0.7c-0.2,0-0.3-0.1-0.5-0.2c-0.2-0.1-0.2-0.3-0.2-0.5  c0-0.2,0.1-0.4,0.2-0.5C105,36.5,105.2,36.4,105.4,36.4 M103.5,47.4c0.2,0,0.4,0.1,0.5,0.2c0.2,0.2,0.2,0.3,0.2,0.6  c0,0.2-0.1,0.4-0.2,0.5c-0.1,0.1-0.3,0.2-0.5,0.2c-0.2,0-0.4-0.1-0.6-0.2c-0.1-0.1-0.2-0.3-0.2-0.5c-0.1-0.4,0.2-0.7,0.6-0.8  C103.3,47.4,103.4,47.4,103.5,47.4 M103.5,41.9c0.2,0,0.4,0.1,0.5,0.2c0.1,0.1,0.2,0.3,0.2,0.5c0,0.4-0.3,0.7-0.7,0.7  c-0.2,0-0.3-0.1-0.5-0.2c-0.2-0.1-0.2-0.3-0.2-0.5C102.8,42.3,103,41.9,103.5,41.9C103.4,41.9,103.4,41.9,103.5,41.9 M103.5,36.4  c0.2,0,0.4,0.1,0.5,0.2c0.1,0.1,0.2,0.3,0.2,0.5c0,0.4-0.3,0.7-0.7,0.7c-0.2,0-0.3-0.1-0.5-0.2c-0.2-0.1-0.2-0.3-0.2-0.5  C102.8,36.8,103,36.4,103.5,36.4C103.4,36.4,103.4,36.4,103.5,36.4 M101.7,47.4c0.2,0,0.4,0.1,0.5,0.2c0.2,0.2,0.2,0.3,0.2,0.6  c0,0.2-0.1,0.4-0.2,0.5c-0.1,0.1-0.3,0.2-0.5,0.2c-0.2,0-0.4-0.1-0.6-0.2c-0.1-0.1-0.2-0.3-0.2-0.5c0-0.2,0.1-0.4,0.2-0.6  C101.2,47.5,101.4,47.4,101.7,47.4 M101.7,41.9c0.2,0,0.4,0.1,0.5,0.2c0.1,0.1,0.2,0.3,0.2,0.5c0,0.4-0.3,0.7-0.7,0.7  c-0.2,0-0.3-0.1-0.5-0.2c-0.2-0.1-0.2-0.3-0.2-0.5c0-0.2,0.1-0.4,0.2-0.5C101.3,42,101.5,41.9,101.7,41.9 M101.7,36.4  c0.2,0,0.4,0.1,0.5,0.2c0.1,0.1,0.2,0.3,0.2,0.5c0,0.4-0.3,0.7-0.7,0.7c-0.2,0-0.3-0.1-0.5-0.2c-0.2-0.1-0.2-0.3-0.2-0.5  c0-0.2,0.1-0.4,0.2-0.5C101.3,36.5,101.5,36.4,101.7,36.4 M99.8,47.4c0.2,0,0.4,0.1,0.5,0.2c0.2,0.2,0.2,0.3,0.2,0.6  c0,0.2-0.1,0.4-0.2,0.5c-0.1,0.1-0.3,0.2-0.5,0.2c-0.2,0-0.4-0.1-0.6-0.2c-0.1-0.1-0.2-0.3-0.2-0.5c-0.1-0.4,0.2-0.7,0.6-0.8  C99.6,47.4,99.7,47.4,99.8,47.4 M99.8,41.9c0.2,0,0.4,0.1,0.5,0.2c0.1,0.1,0.2,0.3,0.2,0.5c0,0.4-0.3,0.7-0.7,0.7  c-0.2,0-0.3-0.1-0.5-0.2c-0.2-0.1-0.2-0.3-0.2-0.5C99.1,42.3,99.3,41.9,99.8,41.9C99.7,41.9,99.7,41.9,99.8,41.9 M99.8,36.4  c0.2,0,0.4,0.1,0.5,0.2c0.1,0.1,0.2,0.3,0.2,0.5c0,0.4-0.3,0.7-0.7,0.7c-0.2,0-0.3-0.1-0.5-0.2c-0.2-0.1-0.2-0.3-0.2-0.5  C99.1,36.8,99.3,36.4,99.8,36.4C99.7,36.4,99.7,36.4,99.8,36.4 M98,47.4c0.2,0,0.4,0.1,0.5,0.2c0.2,0.2,0.2,0.3,0.2,0.6  c0,0.2-0.1,0.4-0.2,0.5c-0.1,0.1-0.3,0.2-0.5,0.2c-0.2,0-0.4-0.1-0.6-0.2c-0.1-0.1-0.2-0.3-0.2-0.5c0-0.2,0.1-0.4,0.2-0.6  C97.5,47.5,97.7,47.4,98,47.4 M98,45.6c0.2,0,0.4,0.1,0.5,0.2c0.1,0.1,0.2,0.3,0.2,0.5c0,0.4-0.3,0.7-0.7,0.7  c-0.2,0-0.3-0.1-0.5-0.2c-0.2-0.1-0.2-0.3-0.2-0.5c0-0.2,0.1-0.4,0.2-0.5C97.6,45.6,97.7,45.6,98,45.6 M98,41.9  c0.2,0,0.4,0.1,0.5,0.2c0.1,0.1,0.2,0.3,0.2,0.5c0,0.4-0.3,0.7-0.7,0.7c-0.2,0-0.3-0.1-0.5-0.2c-0.2-0.1-0.2-0.3-0.2-0.5  c0-0.2,0.1-0.4,0.2-0.5C97.6,42,97.8,41.9,98,41.9 M98,40.1c0.2,0,0.4,0.1,0.5,0.2c0.1,0.1,0.2,0.3,0.2,0.5c0,0.4-0.3,0.7-0.7,0.7  s-0.7-0.3-0.7-0.7c0-0.2,0.1-0.4,0.2-0.5C97.6,40.1,97.7,40.1,98,40.1 M98,38.2c0.2,0,0.4,0.1,0.5,0.2c0.1,0.1,0.2,0.3,0.2,0.5  c0,0.4-0.3,0.7-0.7,0.7s-0.7-0.3-0.7-0.7c0-0.2,0.1-0.4,0.2-0.5C97.6,38.3,97.8,38.2,98,38.2 M98,36.4c0.2,0,0.4,0.1,0.5,0.2  c0.1,0.1,0.2,0.3,0.2,0.5c0,0.4-0.3,0.7-0.7,0.7s-0.7-0.3-0.7-0.7c0-0.2,0.1-0.4,0.2-0.5C97.6,36.5,97.8,36.4,98,36.4 M97.9,43.7  c0.2,0,0.4,0.1,0.6,0.2c0.1,0.1,0.2,0.3,0.2,0.5c0,0.2-0.1,0.4-0.2,0.5c-0.2,0.1-0.4,0.2-0.6,0.2c-0.2,0-0.4-0.1-0.5-0.2  c-0.1-0.1-0.2-0.3-0.2-0.5C97.2,44.1,97.4,43.7,97.9,43.7C97.8,43.7,97.8,43.7,97.9,43.7"/>
<path class="st0" d="M117.8,47.4c0.2,0,0.4,0.1,0.5,0.2c0.2,0.2,0.2,0.3,0.2,0.6c0,0.2-0.1,0.4-0.2,0.5c-0.1,0.1-0.3,0.2-0.5,0.2  c-0.2,0-0.4-0.1-0.6-0.2c-0.1-0.1-0.2-0.3-0.2-0.5c-0.1-0.4,0.2-0.7,0.6-0.8C117.6,47.4,117.7,47.4,117.8,47.4 M117.8,45.6  c0.2,0,0.4,0.1,0.5,0.2c0.1,0.1,0.2,0.3,0.2,0.5c0,0.4-0.3,0.7-0.7,0.7c-0.2,0-0.3-0.1-0.5-0.2c-0.2-0.1-0.2-0.3-0.2-0.5  c0-0.2,0.1-0.4,0.2-0.5C117.4,45.6,117.6,45.6,117.8,45.6 M117.8,41.9c0.2,0,0.4,0.1,0.5,0.2c0.1,0.1,0.2,0.3,0.2,0.5  c0,0.4-0.3,0.7-0.7,0.7c-0.2,0-0.3-0.1-0.5-0.2c-0.2-0.1-0.2-0.3-0.2-0.5C117.1,42.3,117.3,41.9,117.8,41.9  C117.7,41.9,117.7,41.9,117.8,41.9 M117.8,40.1c0.2,0,0.4,0.1,0.5,0.2c0.1,0.1,0.2,0.3,0.2,0.5c0,0.4-0.3,0.7-0.7,0.7  c-0.2,0-0.3-0.1-0.5-0.2c-0.2-0.1-0.2-0.3-0.2-0.5c0-0.2,0.1-0.4,0.2-0.5C117.4,40.1,117.6,40.1,117.8,40.1 M117.8,38.2  c0.2,0,0.4,0.1,0.5,0.2c0.1,0.1,0.2,0.3,0.2,0.5c0,0.4-0.3,0.7-0.7,0.7c-0.2,0-0.3-0.1-0.5-0.2c-0.2-0.1-0.2-0.3-0.2-0.5  C117.1,38.6,117.3,38.2,117.8,38.2C117.7,38.2,117.7,38.2,117.8,38.2 M117.8,36.4c0.2,0,0.4,0.1,0.5,0.2c0.1,0.1,0.2,0.3,0.2,0.5  c0,0.4-0.3,0.7-0.7,0.7c-0.2,0-0.3-0.1-0.5-0.2c-0.2-0.1-0.2-0.3-0.2-0.5C117.1,36.8,117.3,36.4,117.8,36.4  C117.7,36.4,117.7,36.4,117.8,36.4 M117.8,43.7c0.2,0,0.4,0.1,0.6,0.2c0.1,0.1,0.2,0.3,0.2,0.5c0,0.2-0.1,0.4-0.2,0.5  c-0.2,0.1-0.4,0.2-0.6,0.2c-0.2,0-0.4-0.1-0.5-0.2c-0.1-0.1-0.2-0.3-0.2-0.5C117.1,44.1,117.3,43.7,117.8,43.7  C117.7,43.7,117.7,43.7,117.8,43.7 M115.9,45.6c0.2,0,0.4,0.1,0.5,0.2c0.1,0.1,0.2,0.3,0.2,0.5c0,0.4-0.3,0.7-0.7,0.7  c-0.2,0-0.3-0.1-0.5-0.2c-0.2-0.1-0.2-0.3-0.2-0.5c0-0.2,0.1-0.4,0.2-0.5C115.5,45.6,115.7,45.6,115.9,45.6 M115,43.7  c0.2,0,0.4,0.1,0.6,0.2c0.1,0.1,0.2,0.3,0.2,0.5c0,0.2-0.1,0.4-0.2,0.5c-0.2,0.1-0.4,0.2-0.6,0.2c-0.4,0-0.7-0.3-0.7-0.7  S114.6,43.7,115,43.7 M114.1,41.9c0.2,0,0.4,0.1,0.5,0.2c0.1,0.1,0.2,0.3,0.2,0.5c0,0.4-0.3,0.7-0.7,0.7c-0.2,0-0.3-0.1-0.5-0.2  c-0.2-0.1-0.2-0.3-0.2-0.5C113.4,42.3,113.6,41.9,114.1,41.9C114,41.9,114,41.9,114.1,41.9 M113.2,40.1c0.2,0,0.4,0.1,0.6,0.2  c0.1,0.1,0.2,0.3,0.2,0.5c0,0.2-0.1,0.4-0.2,0.5c-0.2,0.1-0.4,0.2-0.6,0.2c-0.4,0-0.7-0.3-0.7-0.7c0-0.2,0.1-0.3,0.2-0.5  C112.8,40.1,112.9,40.1,113.2,40.1 M112.2,38.2c0.2,0,0.4,0.1,0.5,0.2c0.1,0.1,0.2,0.3,0.2,0.5c0,0.4-0.3,0.7-0.7,0.7  c-0.2,0-0.3-0.1-0.5-0.2c-0.2-0.1-0.2-0.3-0.2-0.5C111.5,38.6,111.7,38.2,112.2,38.2C112.1,38.2,112.1,38.2,112.2,38.2 M110.4,47.4  c0.2,0,0.4,0.1,0.5,0.2c0.2,0.2,0.2,0.3,0.2,0.6c0,0.2-0.1,0.4-0.2,0.5c-0.1,0.1-0.3,0.2-0.5,0.2c-0.2,0-0.4-0.1-0.6-0.2  c-0.1-0.1-0.2-0.3-0.2-0.5c-0.1-0.4,0.2-0.7,0.6-0.8C110.2,47.4,110.3,47.4,110.4,47.4 M110.4,45.6c0.2,0,0.4,0.1,0.5,0.2  c0.1,0.1,0.2,0.3,0.2,0.5c0,0.4-0.3,0.7-0.7,0.7c-0.2,0-0.3-0.1-0.5-0.2c-0.2-0.1-0.2-0.3-0.2-0.5c0-0.2,0.1-0.4,0.2-0.5  C110,45.6,110.2,45.6,110.4,45.6 M110.4,41.9c0.2,0,0.4,0.1,0.5,0.2c0.1,0.1,0.2,0.3,0.2,0.5c0,0.4-0.3,0.7-0.7,0.7  c-0.2,0-0.3-0.1-0.5-0.2c-0.2-0.1-0.2-0.3-0.2-0.5C109.7,42.3,109.9,41.9,110.4,41.9C110.3,41.9,110.3,41.9,110.4,41.9 M110.4,40.1  c0.2,0,0.4,0.1,0.5,0.2c0.1,0.1,0.2,0.3,0.2,0.5c0,0.4-0.3,0.7-0.7,0.7s-0.7-0.3-0.7-0.7c0-0.2,0.1-0.4,0.2-0.5  C110,40.1,110.2,40.1,110.4,40.1 M110.4,38.2c0.2,0,0.4,0.1,0.5,0.2c0.1,0.1,0.2,0.3,0.2,0.5c0,0.4-0.3,0.7-0.7,0.7  c-0.4,0-0.7-0.3-0.7-0.7S109.9,38.2,110.4,38.2C110.3,38.2,110.4,38.2,110.4,38.2 M110.4,36.4c0.2,0,0.4,0.1,0.5,0.2  c0.1,0.1,0.2,0.3,0.2,0.5c0,0.4-0.3,0.7-0.7,0.7c-0.4,0-0.7-0.3-0.7-0.7S109.9,36.4,110.4,36.4C110.3,36.4,110.4,36.4,110.4,36.4   M110.4,43.7c0.2,0,0.4,0.1,0.6,0.2c0.1,0.1,0.2,0.3,0.2,0.5c0,0.2-0.1,0.4-0.2,0.5c-0.2,0.1-0.4,0.2-0.6,0.2  c-0.2,0-0.4-0.1-0.5-0.2c-0.1-0.1-0.2-0.3-0.2-0.5C109.7,44.1,109.9,43.7,110.4,43.7C110.3,43.7,110.3,43.7,110.4,43.7"/>
<path class="st0" d="M130.2,36.4c0.2,0,0.4,0.1,0.5,0.2c0.1,0.1,0.2,0.3,0.2,0.5c0,0.4-0.3,0.7-0.7,0.7c-0.2,0-0.3-0.1-0.5-0.2  c-0.2-0.1-0.2-0.3-0.2-0.5C129.5,36.8,129.7,36.4,130.2,36.4C130.1,36.4,130.1,36.4,130.2,36.4 M128.4,36.4c0.2,0,0.4,0.1,0.5,0.2  c0.1,0.1,0.2,0.3,0.2,0.5c0,0.4-0.3,0.7-0.7,0.7c-0.2,0-0.3-0.1-0.5-0.2c-0.2-0.1-0.2-0.3-0.2-0.5C127.7,36.8,127.9,36.4,128.4,36.4  C128.3,36.4,128.3,36.4,128.4,36.4 M126.5,47.4c0.2,0,0.4,0.1,0.5,0.2c0.1,0.1,0.2,0.3,0.2,0.5c0,0.2-0.1,0.4-0.2,0.5  c-0.1,0.1-0.3,0.2-0.5,0.2c-0.2,0-0.4-0.1-0.6-0.2c-0.1-0.1-0.2-0.3-0.2-0.5c0-0.2,0.1-0.4,0.2-0.5C126,47.5,126.2,47.5,126.5,47.4   M126.5,45.6c0.2,0,0.4,0.1,0.5,0.2c0.1,0.1,0.2,0.3,0.2,0.5c0,0.4-0.3,0.7-0.7,0.7c-0.2,0-0.3-0.1-0.5-0.2  c-0.2-0.1-0.2-0.3-0.2-0.5c0-0.2,0.1-0.4,0.2-0.5C126.1,45.6,126.3,45.6,126.5,45.6 M126.5,41.9c0.2,0,0.4,0.1,0.5,0.2  c0.1,0.1,0.2,0.3,0.2,0.5c0,0.4-0.3,0.7-0.7,0.7c-0.2,0-0.3-0.1-0.5-0.2c-0.2-0.1-0.2-0.3-0.2-0.5C125.8,42.3,126,41.9,126.5,41.9  C126.4,41.9,126.4,41.9,126.5,41.9 M126.5,40.1c0.2,0,0.4,0.1,0.5,0.2c0.2,0.2,0.2,0.3,0.2,0.6c0,0.4-0.3,0.7-0.7,0.7  c-0.2,0-0.3-0.1-0.5-0.2c-0.2-0.1-0.2-0.3-0.2-0.5c0-0.2,0.1-0.4,0.2-0.6C126.1,40.1,126.3,40.1,126.5,40.1 M126.5,38.2  c0.2,0,0.4,0.1,0.5,0.2c0.1,0.1,0.2,0.3,0.2,0.5c0,0.4-0.3,0.7-0.7,0.7c-0.2,0-0.3-0.1-0.5-0.2c-0.2-0.1-0.2-0.3-0.2-0.5  C125.8,38.6,126,38.2,126.5,38.2C126.4,38.2,126.4,38.2,126.5,38.2 M126.5,36.4c0.2,0,0.4,0.1,0.5,0.2c0.1,0.1,0.2,0.3,0.2,0.5  c0,0.4-0.3,0.7-0.7,0.7c-0.2,0-0.3-0.1-0.5-0.2c-0.2-0.1-0.2-0.3-0.2-0.5C125.8,36.8,126,36.4,126.5,36.4  C126.4,36.4,126.4,36.4,126.5,36.4 M126.5,43.7c0.2,0,0.4,0.1,0.6,0.2c0.1,0.1,0.2,0.3,0.2,0.5c0,0.2-0.1,0.4-0.2,0.5  c-0.2,0.1-0.4,0.2-0.6,0.2c-0.2,0-0.4-0.1-0.5-0.2c-0.1-0.1-0.2-0.3-0.2-0.5C125.8,44.1,126,43.7,126.5,43.7  C126.4,43.7,126.4,43.7,126.5,43.7 M124.7,36.4c0.2,0,0.4,0.1,0.5,0.2c0.1,0.1,0.2,0.3,0.2,0.5c0,0.4-0.3,0.7-0.7,0.7  c-0.2,0-0.3-0.1-0.5-0.2c-0.2-0.1-0.2-0.3-0.2-0.5C124,36.8,124.2,36.4,124.7,36.4C124.6,36.4,124.6,36.4,124.7,36.4 M122.8,36.4  c0.2,0,0.4,0.1,0.5,0.2c0.1,0.1,0.2,0.3,0.2,0.5c0,0.4-0.3,0.7-0.7,0.7c-0.2,0-0.3-0.1-0.5-0.2c-0.2-0.1-0.2-0.3-0.2-0.5  C122.1,36.8,122.3,36.4,122.8,36.4C122.7,36.4,122.7,36.4,122.8,36.4"/>
<path class="st0" d="M19.4,74.3c0.2,0,0.4,0.1,0.5,0.2c0.2,0.2,0.2,0.3,0.2,0.6c0,0.2-0.1,0.4-0.2,0.5c-0.1,0.1-0.3,0.2-0.5,0.2  c-0.2,0-0.4-0.1-0.6-0.2c-0.1-0.1-0.2-0.3-0.2-0.5c0-0.2,0.1-0.4,0.2-0.6C18.9,74.4,19.1,74.4,19.4,74.3 M19.4,72.5  c0.2,0,0.4,0.1,0.5,0.2c0.1,0.1,0.2,0.3,0.2,0.5c0,0.4-0.3,0.7-0.7,0.7c-0.2,0-0.3-0.1-0.5-0.2c-0.2-0.1-0.2-0.3-0.2-0.5  c0-0.2,0.1-0.4,0.2-0.5C19,72.5,19.2,72.5,19.4,72.5 M19.4,70.6c0.2,0,0.4,0.1,0.6,0.2c0.1,0.1,0.2,0.3,0.2,0.5  c0,0.2-0.1,0.4-0.2,0.5C19.8,72,19.6,72,19.4,72c-0.2,0-0.4-0.1-0.5-0.2c-0.1-0.1-0.2-0.3-0.2-0.5C18.7,71,18.9,70.6,19.4,70.6  C19.3,70.6,19.3,70.6,19.4,70.6 M18.5,68.8c0.2,0,0.4,0.1,0.6,0.2c0.1,0.1,0.2,0.3,0.2,0.5c0,0.2-0.1,0.4-0.2,0.5  c-0.2,0.1-0.4,0.2-0.6,0.2c-0.4,0-0.7-0.3-0.7-0.7C17.8,69.1,18.1,68.8,18.5,68.8 M17.6,70.6c0.2,0,0.4,0.1,0.5,0.2  c0.1,0.1,0.2,0.3,0.2,0.5c0,0.4-0.3,0.7-0.7,0.7c-0.2,0-0.3-0.1-0.5-0.2c-0.2-0.1-0.2-0.3-0.2-0.5C16.9,71,17.1,70.6,17.6,70.6  C17.5,70.6,17.5,70.6,17.6,70.6 M17.6,67c0.2,0,0.4,0.1,0.5,0.2c0.1,0.1,0.2,0.3,0.2,0.5c0,0.4-0.3,0.7-0.7,0.7  c-0.2,0-0.3-0.1-0.5-0.2c-0.2-0.1-0.2-0.3-0.2-0.5c0-0.2,0.1-0.4,0.2-0.5C17.2,67,17.4,67,17.6,67 M16.6,65.1c0.2,0,0.4,0.1,0.6,0.2  c0.1,0.1,0.2,0.3,0.2,0.5c0,0.2-0.1,0.4-0.2,0.5c-0.2,0.1-0.4,0.2-0.6,0.2c-0.4,0-0.7-0.3-0.7-0.7C15.9,65.4,16.2,65.1,16.6,65.1   M15.7,70.6c0.2,0,0.4,0.1,0.5,0.2c0.1,0.1,0.2,0.3,0.2,0.5c0,0.2-0.1,0.4-0.2,0.5c-0.1,0.2-0.3,0.4-0.5,0.4c-0.2,0-0.4-0.1-0.5-0.2  C15,71.9,15,71.7,15,71.5c0-0.2,0.1-0.4,0.2-0.5C15.2,70.8,15.4,70.6,15.7,70.6 M15.7,63.3c0.2,0,0.4,0.1,0.5,0.2  c0.1,0.1,0.2,0.3,0.2,0.5c0,0.4-0.3,0.7-0.7,0.7c-0.2,0-0.3-0.1-0.5-0.2C15,64.4,15,64.2,15,64C15,63.7,15.2,63.3,15.7,63.3  C15.6,63.3,15.6,63.3,15.7,63.3 M14.8,65.1c0.2,0,0.4,0.1,0.6,0.2c0.1,0.1,0.2,0.3,0.2,0.5c0,0.2-0.1,0.4-0.2,0.5  c-0.2,0.1-0.4,0.2-0.6,0.2c-0.4,0-0.7-0.3-0.7-0.7C14.1,65.4,14.4,65.1,14.8,65.1 M13.9,70.6c0.2,0,0.4,0.1,0.5,0.2  c0.1,0.1,0.2,0.3,0.2,0.5c0,0.2-0.1,0.4-0.2,0.5c-0.1,0.2-0.3,0.4-0.5,0.4c-0.2,0-0.4-0.1-0.5-0.2c-0.2-0.1-0.2-0.3-0.2-0.5  c0-0.2,0.1-0.4,0.2-0.5C13.4,70.8,13.6,70.6,13.9,70.6 M13.9,67c0.2,0,0.4,0.1,0.5,0.2c0.1,0.1,0.2,0.3,0.2,0.5  c0,0.4-0.3,0.7-0.7,0.7c-0.2,0-0.3-0.1-0.5-0.2c-0.2-0.1-0.2-0.3-0.2-0.5c0-0.2,0.1-0.4,0.2-0.5C13.5,67,13.7,67,13.9,67 M12.9,68.8  c0.2,0,0.4,0.1,0.6,0.2c0.1,0.1,0.2,0.3,0.2,0.5c0,0.2-0.1,0.4-0.2,0.5c-0.2,0.1-0.4,0.2-0.6,0.2c-0.4,0-0.7-0.3-0.7-0.7  C12.2,69.1,12.5,68.8,12.9,68.8 M12,74.3c0.2,0,0.4,0.1,0.5,0.2c0.2,0.2,0.2,0.3,0.2,0.6c0,0.2-0.1,0.4-0.2,0.5  c-0.1,0.1-0.3,0.2-0.5,0.2c-0.2,0-0.4-0.1-0.6-0.2c-0.1-0.1-0.2-0.3-0.2-0.5c0-0.2,0.1-0.4,0.2-0.6C11.5,74.4,11.7,74.4,12,74.3   M12,72.5c0.2,0,0.4,0.1,0.5,0.2c0.1,0.1,0.2,0.3,0.2,0.5c0,0.4-0.3,0.7-0.7,0.7c-0.2,0-0.3-0.1-0.5-0.2c-0.2-0.1-0.2-0.3-0.2-0.5  c0-0.2,0.1-0.4,0.2-0.5C11.6,72.5,11.8,72.5,12,72.5 M12,70.6c0.2,0,0.4,0.1,0.6,0.2c0.1,0.1,0.2,0.3,0.2,0.5c0,0.2-0.1,0.4-0.2,0.5  C12.4,72,12.2,72,12,72c-0.2,0-0.4-0.1-0.5-0.2c-0.1-0.1-0.2-0.3-0.2-0.5C11.3,71,11.5,70.6,12,70.6C11.9,70.6,11.9,70.6,12,70.6"/>
<path class="st0" d="M31.9,72.5c0.2,0,0.4,0.1,0.5,0.2c0.1,0.1,0.2,0.3,0.2,0.5c0,0.4-0.3,0.7-0.7,0.7c-0.2,0-0.3-0.1-0.5-0.2  c-0.2-0.1-0.2-0.3-0.2-0.5c0-0.2,0.1-0.4,0.2-0.5C31.5,72.5,31.6,72.5,31.9,72.5 M31.9,65.1c0.2,0,0.4,0.1,0.5,0.2  c0.1,0.1,0.2,0.3,0.2,0.5c0,0.4-0.3,0.7-0.7,0.7c-0.2,0-0.3-0.1-0.5-0.2c-0.2-0.1-0.2-0.3-0.2-0.5c0-0.2,0.1-0.4,0.2-0.5  C31.5,65.2,31.7,65.1,31.9,65.1 M31.8,70.6c0.2,0,0.4,0.1,0.6,0.2c0.1,0.1,0.2,0.3,0.2,0.5c0,0.2-0.1,0.4-0.2,0.5  C32.2,72,32,72,31.8,72c-0.2,0-0.4-0.1-0.5-0.2c-0.1-0.1-0.2-0.3-0.2-0.5C31.1,71,31.3,70.6,31.8,70.6  C31.7,70.6,31.7,70.6,31.8,70.6 M30,74.3c0.2,0,0.4,0.1,0.5,0.2c0.1,0.1,0.2,0.3,0.2,0.5c0,0.2-0.1,0.4-0.2,0.5  c-0.1,0.1-0.3,0.2-0.5,0.2c-0.2,0-0.4-0.1-0.6-0.2c-0.1-0.1-0.2-0.3-0.2-0.5c0-0.2,0.1-0.4,0.2-0.5C29.5,74.4,29.7,74.4,30,74.3   M30,68.8c0.2,0,0.4,0.1,0.5,0.2c0.2,0.2,0.2,0.3,0.2,0.6c0,0.4-0.3,0.7-0.7,0.7c-0.2,0-0.3-0.1-0.5-0.2c-0.2-0.1-0.2-0.3-0.2-0.5  c0-0.2,0.1-0.4,0.2-0.6C29.6,68.9,29.8,68.8,30,68.8 M30,63.3c0.2,0,0.4,0.1,0.5,0.2c0.1,0.1,0.2,0.3,0.2,0.5c0,0.4-0.3,0.7-0.7,0.7  c-0.2,0-0.3-0.1-0.5-0.2c-0.2-0.1-0.2-0.3-0.2-0.5C29.3,63.7,29.5,63.3,30,63.3C29.9,63.3,29.9,63.3,30,63.3 M28.2,74.3  c0.2,0,0.4,0.1,0.5,0.2c0.1,0.1,0.2,0.3,0.2,0.5c0,0.2-0.1,0.4-0.2,0.5c-0.1,0.1-0.3,0.2-0.5,0.2c-0.2,0-0.4-0.1-0.6-0.2  c-0.1-0.1-0.2-0.3-0.2-0.5c0-0.2,0.1-0.4,0.2-0.5C27.7,74.4,27.9,74.3,28.2,74.3 M28.2,68.8c0.2,0,0.4,0.1,0.5,0.2  c0.2,0.2,0.2,0.4,0.2,0.6c0,0.4-0.3,0.7-0.7,0.7c-0.2,0-0.3-0.1-0.5-0.2c-0.2-0.1-0.2-0.3-0.2-0.5c0-0.2,0.1-0.4,0.2-0.6  C27.8,68.9,28,68.8,28.2,68.8 M28.2,63.3c0.2,0,0.4,0.1,0.5,0.2c0.1,0.1,0.2,0.3,0.2,0.5c0,0.4-0.3,0.7-0.7,0.7  c-0.2,0-0.3-0.1-0.5-0.2c-0.2-0.1-0.2-0.3-0.2-0.5c0-0.2,0.1-0.4,0.2-0.5C27.8,63.4,28,63.3,28.2,63.3 M26.3,74.3  c0.2,0,0.4,0.1,0.5,0.2c0.1,0.1,0.2,0.3,0.2,0.5c0,0.2-0.1,0.4-0.2,0.5c-0.1,0.1-0.3,0.2-0.5,0.2c-0.2,0-0.4-0.1-0.6-0.2  c-0.1-0.1-0.2-0.3-0.2-0.5c0-0.2,0.1-0.4,0.2-0.5C25.8,74.4,26,74.4,26.3,74.3 M26.3,68.8c0.2,0,0.4,0.1,0.5,0.2  c0.2,0.2,0.2,0.3,0.2,0.6c0,0.4-0.3,0.7-0.7,0.7c-0.2,0-0.3-0.1-0.5-0.2c-0.2-0.1-0.2-0.3-0.2-0.5c0-0.2,0.1-0.4,0.2-0.6  C25.9,68.9,26.1,68.8,26.3,68.8 M26.3,63.3c0.2,0,0.4,0.1,0.5,0.2c0.1,0.1,0.2,0.3,0.2,0.5c0,0.4-0.3,0.7-0.7,0.7  c-0.2,0-0.3-0.1-0.5-0.2c-0.2-0.1-0.2-0.3-0.2-0.5C25.6,63.7,25.8,63.3,26.3,63.3C26.2,63.3,26.2,63.3,26.3,63.3 M24.5,72.5  c0.2,0,0.4,0.1,0.5,0.2c0.1,0.1,0.2,0.3,0.2,0.5c0,0.4-0.3,0.7-0.7,0.7c-0.2,0-0.3-0.1-0.5-0.2c-0.2-0.1-0.2-0.3-0.2-0.5  c0-0.2,0.1-0.4,0.2-0.5C24.1,72.5,24.2,72.5,24.5,72.5 M24.5,67c0.2,0,0.4,0.1,0.5,0.2c0.1,0.1,0.2,0.3,0.2,0.5  c0,0.4-0.3,0.7-0.7,0.7c-0.2,0-0.3-0.1-0.5-0.2c-0.2-0.1-0.2-0.3-0.2-0.5c0-0.2,0.1-0.4,0.2-0.5C24.1,67,24.2,67,24.5,67 M24.5,65.1  c0.2,0,0.4,0.1,0.5,0.2c0.1,0.1,0.2,0.3,0.2,0.5c0,0.4-0.3,0.7-0.7,0.7c-0.2,0-0.3-0.1-0.5-0.2c-0.2-0.1-0.2-0.3-0.2-0.5  c0-0.2,0.1-0.4,0.2-0.5C24.1,65.2,24.3,65.1,24.5,65.1"/>
<path class="st0" d="M44.3,72.5c0.2,0,0.4,0.1,0.5,0.2c0.1,0.1,0.2,0.3,0.2,0.5c0,0.4-0.3,0.7-0.7,0.7c-0.2,0-0.3-0.1-0.5-0.2  c-0.2-0.1-0.2-0.3-0.2-0.5c0-0.2,0.1-0.4,0.2-0.5C43.9,72.5,44.1,72.5,44.3,72.5 M44.3,65.1c0.2,0,0.4,0.1,0.5,0.2  c0.1,0.1,0.2,0.3,0.2,0.5c0,0.4-0.3,0.7-0.7,0.7c-0.2,0-0.3-0.1-0.5-0.2c-0.2-0.1-0.2-0.3-0.2-0.5C43.6,65.5,43.8,65.1,44.3,65.1  C44.2,65.1,44.2,65.1,44.3,65.1 M44.3,70.6c0.2,0,0.4,0.1,0.6,0.2c0.1,0.1,0.2,0.3,0.2,0.5c0,0.2-0.1,0.4-0.2,0.5  C44.7,72,44.5,72,44.3,72c-0.2,0-0.4-0.1-0.5-0.2c-0.1-0.1-0.2-0.3-0.2-0.5c0-0.2,0.1-0.4,0.2-0.5C43.9,70.7,44.1,70.6,44.3,70.6   M42.4,74.3c0.2,0,0.4,0.1,0.5,0.2c0.1,0.1,0.2,0.3,0.2,0.5c0,0.2-0.1,0.4-0.2,0.5c-0.1,0.1-0.3,0.2-0.5,0.2c-0.2,0-0.4-0.1-0.6-0.2  c-0.1-0.1-0.2-0.3-0.2-0.5c0-0.2,0.1-0.4,0.2-0.5C41.9,74.4,42.1,74.4,42.4,74.3 M42.4,68.8c0.2,0,0.4,0.1,0.5,0.2  c0.2,0.2,0.2,0.3,0.2,0.6c0,0.4-0.3,0.7-0.7,0.7c-0.2,0-0.3-0.1-0.5-0.2c-0.2-0.1-0.2-0.3-0.2-0.5c0-0.2,0.1-0.4,0.2-0.6  C42,68.9,42.2,68.8,42.4,68.8 M42.4,63.3c0.2,0,0.4,0.1,0.5,0.2c0.1,0.1,0.2,0.3,0.2,0.5c0,0.4-0.3,0.7-0.7,0.7  c-0.2,0-0.3-0.1-0.5-0.2c-0.2-0.1-0.2-0.3-0.2-0.5C41.7,63.7,41.9,63.3,42.4,63.3C42.3,63.3,42.3,63.3,42.4,63.3 M40.6,74.3  c0.2,0,0.4,0.1,0.5,0.2c0.1,0.1,0.2,0.3,0.2,0.5c0,0.2-0.1,0.4-0.2,0.5c-0.1,0.1-0.3,0.2-0.5,0.2c-0.2,0-0.4-0.1-0.6-0.2  c-0.1-0.1-0.2-0.3-0.2-0.5c0-0.2,0.1-0.4,0.2-0.5C40.1,74.4,40.3,74.4,40.6,74.3 M40.6,68.8c0.2,0,0.4,0.1,0.5,0.2  c0.2,0.2,0.2,0.3,0.2,0.6c0,0.4-0.3,0.7-0.7,0.7c-0.2,0-0.3-0.1-0.5-0.2c-0.2-0.1-0.2-0.3-0.2-0.5c0-0.2,0.1-0.4,0.2-0.6  C40.2,68.9,40.4,68.8,40.6,68.8 M40.6,63.3c0.2,0,0.4,0.1,0.5,0.2c0.1,0.1,0.2,0.3,0.2,0.5c0,0.4-0.3,0.7-0.7,0.7  c-0.2,0-0.3-0.1-0.5-0.2c-0.2-0.1-0.2-0.3-0.2-0.5C39.9,63.7,40.1,63.3,40.6,63.3C40.5,63.3,40.5,63.3,40.6,63.3 M38.7,74.3  c0.2,0,0.4,0.1,0.5,0.2c0.1,0.1,0.2,0.3,0.2,0.5c0,0.2-0.1,0.4-0.2,0.5c-0.1,0.1-0.3,0.2-0.5,0.2c-0.2,0-0.4-0.1-0.6-0.2  c-0.1-0.1-0.2-0.3-0.2-0.5c0-0.2,0.1-0.4,0.2-0.5C38.2,74.4,38.4,74.4,38.7,74.3 M38.7,68.8c0.2,0,0.4,0.1,0.5,0.2  c0.2,0.2,0.2,0.3,0.2,0.6c0,0.4-0.3,0.7-0.7,0.7c-0.2,0-0.3-0.1-0.5-0.2C38,70,38,69.8,38,69.6c0-0.2,0.1-0.4,0.2-0.6  C38.3,68.9,38.5,68.8,38.7,68.8 M38.7,63.3c0.2,0,0.4,0.1,0.5,0.2c0.1,0.1,0.2,0.3,0.2,0.5c0,0.4-0.3,0.7-0.7,0.7  c-0.2,0-0.3-0.1-0.5-0.2C38,64.4,38,64.2,38,64C38,63.7,38.2,63.3,38.7,63.3C38.6,63.3,38.6,63.3,38.7,63.3 M36.9,72.5  c0.2,0,0.4,0.1,0.5,0.2c0.1,0.1,0.2,0.3,0.2,0.5c0,0.4-0.3,0.7-0.7,0.7c-0.2,0-0.3-0.1-0.5-0.2c-0.2-0.1-0.2-0.3-0.2-0.5  c0-0.2,0.1-0.4,0.2-0.5C36.5,72.5,36.7,72.5,36.9,72.5 M36.9,67c0.2,0,0.4,0.1,0.5,0.2c0.1,0.1,0.2,0.3,0.2,0.5  c0,0.4-0.3,0.7-0.7,0.7c-0.2,0-0.3-0.1-0.5-0.2c-0.2-0.1-0.2-0.3-0.2-0.5c0-0.2,0.1-0.4,0.2-0.5C36.5,67,36.7,67,36.9,67 M36.9,65.1  c0.2,0,0.4,0.1,0.5,0.2c0.1,0.1,0.2,0.3,0.2,0.5c0,0.4-0.3,0.7-0.7,0.7c-0.2,0-0.3-0.1-0.5-0.2c-0.2-0.1-0.2-0.3-0.2-0.5  C36.2,65.5,36.4,65.1,36.9,65.1C36.8,65.1,36.8,65.1,36.9,65.1"/>
<path class="st0" d="M57,72.5c0.2,0,0.4,0.1,0.5,0.2c0.1,0.1,0.2,0.3,0.2,0.5c0,0.4-0.3,0.7-0.7,0.7c-0.2,0-0.3-0.1-0.5-0.2  c-0.2-0.1-0.2-0.3-0.2-0.5c0-0.2,0.1-0.4,0.2-0.5C56.6,72.5,56.8,72.5,57,72.5 M57,68.8c0.2,0,0.4,0.1,0.5,0.2  c0.1,0.1,0.2,0.3,0.2,0.5c0,0.4-0.3,0.7-0.7,0.7c-0.2,0-0.3-0.1-0.5-0.2c-0.2-0.1-0.2-0.3-0.2-0.5C56.3,69.2,56.5,68.8,57,68.8  C56.9,68.8,56.9,68.8,57,68.8 M57,67c0.2,0,0.4,0.1,0.5,0.2c0.1,0.1,0.2,0.3,0.2,0.5c0,0.4-0.3,0.7-0.7,0.7c-0.2,0-0.3-0.1-0.5-0.2  c-0.2-0.1-0.2-0.3-0.2-0.5c0-0.2,0.1-0.4,0.2-0.5C56.6,67,56.8,67,57,67 M57,65.1c0.2,0,0.4,0.1,0.5,0.2c0.1,0.1,0.2,0.3,0.2,0.5  c0,0.4-0.3,0.7-0.7,0.7c-0.2,0-0.3-0.1-0.5-0.2c-0.2-0.1-0.2-0.3-0.2-0.5C56.3,65.5,56.5,65.1,57,65.1C56.9,65.1,56.9,65.1,57,65.1   M57,70.6c0.2,0,0.4,0.1,0.6,0.2c0.1,0.1,0.2,0.3,0.2,0.5c0,0.2-0.1,0.4-0.2,0.5C57.4,72,57.2,72,57,72c-0.2,0-0.4-0.1-0.5-0.2  c-0.1-0.1-0.2-0.3-0.2-0.5C56.3,71,56.5,70.6,57,70.6C56.9,70.6,56.9,70.6,57,70.6 M55.2,74.3c0.2,0,0.4,0.1,0.5,0.2  c0.2,0.2,0.2,0.3,0.2,0.6c0,0.2-0.1,0.4-0.2,0.5c-0.1,0.1-0.3,0.2-0.5,0.2c-0.2,0-0.4-0.1-0.6-0.2c-0.1-0.1-0.2-0.3-0.2-0.5  c0-0.2,0.1-0.4,0.2-0.6C54.7,74.4,54.9,74.3,55.2,74.3 M55.2,63.3c0.2,0,0.4,0.1,0.5,0.2c0.1,0.1,0.2,0.3,0.2,0.5  c0,0.4-0.3,0.7-0.7,0.7c-0.2,0-0.3-0.1-0.5-0.2c-0.2-0.1-0.2-0.3-0.2-0.5c0-0.2,0.1-0.4,0.2-0.5C54.8,63.4,55,63.3,55.2,63.3   M53.3,74.3c0.2,0,0.4,0.1,0.5,0.2c0.2,0.2,0.2,0.3,0.2,0.6c0,0.2-0.1,0.4-0.2,0.5c-0.1,0.1-0.3,0.2-0.5,0.2c-0.2,0-0.4-0.1-0.6-0.2  c-0.1-0.1-0.2-0.3-0.2-0.5c-0.1-0.4,0.2-0.7,0.6-0.8C53.1,74.3,53.2,74.3,53.3,74.3 M53.3,63.3c0.2,0,0.4,0.1,0.5,0.2  c0.1,0.1,0.2,0.3,0.2,0.5c0,0.4-0.3,0.7-0.7,0.7c-0.2,0-0.3-0.1-0.5-0.2c-0.2-0.1-0.2-0.3-0.2-0.5C52.6,63.7,52.8,63.3,53.3,63.3  C53.2,63.3,53.2,63.3,53.3,63.3 M51.5,74.3c0.2,0,0.4,0.1,0.5,0.2c0.2,0.2,0.2,0.3,0.2,0.6c0,0.2-0.1,0.4-0.2,0.5  c-0.1,0.1-0.3,0.2-0.5,0.2c-0.2,0-0.4-0.1-0.6-0.2c-0.1-0.1-0.2-0.3-0.2-0.5c0-0.2,0.1-0.4,0.2-0.6C51,74.4,51.2,74.3,51.5,74.3   M51.5,63.3c0.2,0,0.4,0.1,0.5,0.2c0.1,0.1,0.2,0.3,0.2,0.5c0,0.4-0.3,0.7-0.7,0.7c-0.2,0-0.3-0.1-0.5-0.2c-0.2-0.1-0.2-0.3-0.2-0.5  c0-0.2,0.1-0.4,0.2-0.5C51.1,63.4,51.3,63.3,51.5,63.3 M49.6,72.5c0.2,0,0.4,0.1,0.5,0.2c0.1,0.1,0.2,0.3,0.2,0.5  c0,0.4-0.3,0.7-0.7,0.7c-0.2,0-0.3-0.1-0.5-0.2c-0.2-0.1-0.2-0.3-0.2-0.5c0-0.2,0.1-0.4,0.2-0.5C49.2,72.5,49.4,72.5,49.6,72.5   M49.6,68.8c0.2,0,0.4,0.1,0.5,0.2c0.1,0.1,0.2,0.3,0.2,0.5c0,0.4-0.3,0.7-0.7,0.7c-0.2,0-0.3-0.1-0.5-0.2c-0.2-0.1-0.2-0.3-0.2-0.5  C48.9,69.2,49.1,68.8,49.6,68.8C49.5,68.8,49.5,68.8,49.6,68.8 M49.6,67c0.2,0,0.4,0.1,0.5,0.2c0.1,0.1,0.2,0.3,0.2,0.5  c0,0.4-0.3,0.7-0.7,0.7c-0.2,0-0.3-0.1-0.5-0.2c-0.2-0.1-0.2-0.3-0.2-0.5c0-0.2,0.1-0.4,0.2-0.5C49.2,67,49.4,67,49.6,67 M49.6,65.1  c0.2,0,0.4,0.1,0.5,0.2c0.1,0.1,0.2,0.3,0.2,0.5c0,0.4-0.3,0.7-0.7,0.7c-0.2,0-0.3-0.1-0.5-0.2c-0.2-0.1-0.2-0.3-0.2-0.5  C48.9,65.5,49.1,65.1,49.6,65.1C49.5,65.1,49.5,65.1,49.6,65.1 M49.6,70.6c0.2,0,0.4,0.1,0.6,0.2c0.1,0.1,0.2,0.3,0.2,0.5  c0,0.2-0.1,0.4-0.2,0.5C50,72,49.8,72,49.6,72c-0.2,0-0.4-0.1-0.5-0.2c-0.1-0.1-0.2-0.3-0.2-0.5C48.9,71,49.1,70.6,49.6,70.6  C49.5,70.6,49.5,70.6,49.6,70.6"/>
<path class="st0" d="M69.5,72.5c0.2,0,0.4,0.1,0.5,0.2c0.1,0.1,0.2,0.3,0.2,0.5c0,0.4-0.3,0.7-0.7,0.7c-0.2,0-0.3-0.1-0.5-0.2  c-0.2-0.1-0.2-0.3-0.2-0.5c0-0.2,0.1-0.4,0.2-0.5C69.1,72.5,69.2,72.5,69.5,72.5 M69.5,65.1c0.2,0,0.4,0.1,0.5,0.2  c0.1,0.1,0.2,0.3,0.2,0.5c0,0.4-0.3,0.7-0.7,0.7c-0.4,0-0.7-0.3-0.7-0.7c0-0.2,0.1-0.4,0.2-0.5C69.1,65.2,69.3,65.1,69.5,65.1   M67.6,74.3c0.2,0,0.4,0.1,0.5,0.2c0.2,0.2,0.2,0.3,0.2,0.6c0,0.2-0.1,0.4-0.2,0.5c-0.1,0.1-0.3,0.2-0.5,0.2c-0.2,0-0.4-0.1-0.6-0.2  c-0.1-0.1-0.2-0.3-0.2-0.5c-0.1-0.4,0.2-0.7,0.6-0.8C67.4,74.3,67.5,74.3,67.6,74.3 M67.6,63.3c0.2,0,0.4,0.1,0.5,0.2  c0.1,0.1,0.2,0.3,0.2,0.5c0,0.4-0.3,0.7-0.7,0.7c-0.2,0-0.3-0.1-0.5-0.2c-0.2-0.1-0.2-0.3-0.2-0.5C66.9,63.7,67.1,63.3,67.6,63.3  C67.5,63.3,67.5,63.3,67.6,63.3 M65.8,74.3c0.2,0,0.4,0.1,0.5,0.2c0.2,0.2,0.2,0.3,0.2,0.6c0,0.2-0.1,0.4-0.2,0.5  c-0.1,0.1-0.3,0.2-0.5,0.2c-0.2,0-0.4-0.1-0.6-0.2c-0.1-0.1-0.2-0.3-0.2-0.5c-0.1-0.4,0.2-0.7,0.6-0.8  C65.6,74.3,65.7,74.3,65.8,74.3 M65.8,63.3c0.2,0,0.4,0.1,0.5,0.2c0.1,0.1,0.2,0.3,0.2,0.5c0,0.4-0.3,0.7-0.7,0.7  c-0.2,0-0.3-0.1-0.5-0.2c-0.2-0.1-0.2-0.3-0.2-0.5C65.1,63.7,65.3,63.3,65.8,63.3C65.7,63.3,65.7,63.3,65.8,63.3 M63.9,74.3  c0.2,0,0.4,0.1,0.5,0.2c0.2,0.2,0.2,0.3,0.2,0.6c0,0.2-0.1,0.4-0.2,0.5c-0.1,0.1-0.3,0.2-0.5,0.2c-0.2,0-0.4-0.1-0.6-0.2  c-0.1-0.1-0.2-0.3-0.2-0.5c-0.1-0.4,0.2-0.7,0.6-0.8C63.7,74.3,63.8,74.3,63.9,74.3 M63.9,63.3c0.2,0,0.4,0.1,0.5,0.2  c0.1,0.1,0.2,0.3,0.2,0.5c0,0.4-0.3,0.7-0.7,0.7c-0.2,0-0.3-0.1-0.5-0.2c-0.2-0.1-0.2-0.3-0.2-0.5C63.2,63.7,63.4,63.3,63.9,63.3  C63.8,63.3,63.8,63.3,63.9,63.3 M62.1,72.5c0.2,0,0.4,0.1,0.5,0.2c0.1,0.1,0.2,0.3,0.2,0.5c0,0.4-0.3,0.7-0.7,0.7  c-0.2,0-0.3-0.1-0.5-0.2c-0.2-0.1-0.2-0.3-0.2-0.5c0-0.2,0.1-0.4,0.2-0.5C61.7,72.5,61.9,72.5,62.1,72.5 M62.1,68.8  c0.2,0,0.4,0.1,0.5,0.2c0.1,0.1,0.2,0.3,0.2,0.5c0,0.4-0.3,0.7-0.7,0.7c-0.2,0-0.3-0.1-0.5-0.2c-0.2-0.1-0.2-0.3-0.2-0.5  C61.4,69.2,61.6,68.8,62.1,68.8C62,68.8,62,68.8,62.1,68.8 M62.1,67c0.2,0,0.4,0.1,0.5,0.2c0.1,0.1,0.2,0.3,0.2,0.5  c0,0.4-0.3,0.7-0.7,0.7c-0.2,0-0.3-0.1-0.5-0.2c-0.2-0.1-0.2-0.3-0.2-0.5c0-0.2,0.1-0.4,0.2-0.5C61.7,67,61.9,67,62.1,67 M62.1,65.1  c0.2,0,0.4,0.1,0.5,0.2c0.1,0.1,0.2,0.3,0.2,0.5c0,0.4-0.3,0.7-0.7,0.7c-0.2,0-0.3-0.1-0.5-0.2c-0.2-0.1-0.2-0.3-0.2-0.5  C61.4,65.5,61.6,65.1,62.1,65.1C62,65.1,62,65.1,62.1,65.1 M62,70.6c0.2,0,0.4,0.1,0.6,0.2c0.1,0.1,0.2,0.3,0.2,0.5  c0,0.2-0.1,0.4-0.2,0.5C62.4,72,62.2,72,62,72c-0.2,0-0.4-0.1-0.5-0.2c-0.1-0.1-0.2-0.3-0.2-0.5c0-0.2,0.1-0.4,0.2-0.5  C61.7,70.7,61.8,70.6,62,70.6"/>
<path class="st0" d="M79.2,74.3c0.2,0,0.4,0.1,0.5,0.2c0.1,0.1,0.2,0.3,0.2,0.5c0,0.2-0.1,0.4-0.2,0.5c-0.1,0.1-0.3,0.2-0.5,0.2  c-0.2,0-0.4-0.1-0.6-0.2c-0.1-0.1-0.2-0.3-0.2-0.5c0-0.2,0.1-0.4,0.2-0.5C78.7,74.4,78.9,74.3,79.2,74.3 M79.2,63.3  c0.2,0,0.4,0.1,0.5,0.2c0.1,0.1,0.2,0.3,0.2,0.5c0,0.4-0.3,0.7-0.7,0.7c-0.2,0-0.3-0.1-0.5-0.2c-0.2-0.1-0.2-0.3-0.2-0.5  c0-0.2,0.1-0.4,0.2-0.5C78.8,63.4,79,63.3,79.2,63.3 M77.3,74.3c0.2,0,0.4,0.1,0.5,0.2c0.1,0.1,0.2,0.3,0.2,0.5  c0,0.2-0.1,0.4-0.2,0.5c-0.1,0.1-0.3,0.2-0.5,0.2c-0.2,0-0.4-0.1-0.6-0.2c-0.1-0.1-0.2-0.3-0.2-0.5c0-0.2,0.1-0.4,0.2-0.5  C76.8,74.4,77,74.4,77.3,74.3 M77.3,72.5c0.2,0,0.4,0.1,0.5,0.2c0.1,0.1,0.2,0.3,0.2,0.5c0,0.4-0.3,0.7-0.7,0.7  c-0.2,0-0.3-0.1-0.5-0.2c-0.2-0.1-0.2-0.3-0.2-0.5c0-0.2,0.1-0.4,0.2-0.5C76.9,72.5,77.1,72.5,77.3,72.5 M77.3,68.8  c0.2,0,0.4,0.1,0.5,0.2c0.1,0.1,0.2,0.3,0.2,0.5c0,0.4-0.3,0.7-0.7,0.7c-0.2,0-0.3-0.1-0.5-0.2c-0.2-0.1-0.2-0.3-0.2-0.5  C76.6,69.2,76.8,68.8,77.3,68.8C77.2,68.8,77.2,68.8,77.3,68.8 M77.3,67c0.2,0,0.4,0.1,0.5,0.2c0.2,0.2,0.2,0.3,0.2,0.6  c0,0.4-0.3,0.7-0.7,0.7c-0.2,0-0.3-0.1-0.5-0.2c-0.2-0.1-0.2-0.3-0.2-0.5c0-0.2,0.1-0.4,0.2-0.6C76.9,67,77.1,67,77.3,67 M77.3,65.1  c0.2,0,0.4,0.1,0.5,0.2c0.1,0.1,0.2,0.3,0.2,0.5c0,0.4-0.3,0.7-0.7,0.7c-0.2,0-0.3-0.1-0.5-0.2c-0.2-0.1-0.2-0.3-0.2-0.5  C76.6,65.5,76.8,65.1,77.3,65.1C77.2,65.1,77.2,65.1,77.3,65.1 M77.3,63.3c0.2,0,0.4,0.1,0.5,0.2c0.1,0.1,0.2,0.3,0.2,0.5  c0,0.4-0.3,0.7-0.7,0.7c-0.2,0-0.3-0.1-0.5-0.2c-0.2-0.1-0.2-0.3-0.2-0.5C76.6,63.7,76.8,63.3,77.3,63.3  C77.2,63.3,77.2,63.3,77.3,63.3 M77.3,70.6c0.2,0,0.4,0.1,0.6,0.2c0.1,0.1,0.2,0.3,0.2,0.5c0,0.2-0.1,0.4-0.2,0.5  C77.7,72,77.5,72,77.3,72c-0.2,0-0.4-0.1-0.5-0.2c-0.1-0.1-0.2-0.3-0.2-0.5C76.6,71,76.8,70.6,77.3,70.6  C77.2,70.6,77.2,70.6,77.3,70.6 M75.5,74.3c0.2,0,0.4,0.1,0.5,0.2c0.1,0.1,0.2,0.3,0.2,0.5c0,0.2-0.1,0.4-0.2,0.5  c-0.1,0.1-0.3,0.2-0.5,0.2c-0.2,0-0.4-0.1-0.6-0.2c-0.1-0.1-0.2-0.3-0.2-0.5c0-0.2,0.1-0.4,0.2-0.5C75,74.4,75.2,74.3,75.5,74.3   M75.5,63.3c0.2,0,0.4,0.1,0.5,0.2c0.1,0.1,0.2,0.3,0.2,0.5c0,0.4-0.3,0.7-0.7,0.7c-0.2,0-0.3-0.1-0.5-0.2c-0.2-0.1-0.2-0.3-0.2-0.5  c0-0.2,0.1-0.4,0.2-0.5C75.1,63.4,75.3,63.3,75.5,63.3"/>
<path class="st0" d="M92.4,74.3c0.2,0,0.4,0.1,0.5,0.2c0.2,0.2,0.2,0.3,0.2,0.6c0,0.2-0.1,0.4-0.2,0.5c-0.1,0.1-0.3,0.2-0.5,0.2  c-0.2,0-0.4-0.1-0.6-0.2c-0.1-0.1-0.2-0.3-0.2-0.5c-0.1-0.4,0.2-0.7,0.6-0.8C92.2,74.3,92.3,74.3,92.4,74.3 M92.4,72.5  c0.2,0,0.4,0.1,0.5,0.2c0.1,0.1,0.2,0.3,0.2,0.5c0,0.4-0.3,0.7-0.7,0.7c-0.2,0-0.3-0.1-0.5-0.2c-0.2-0.1-0.2-0.3-0.2-0.5  c0-0.2,0.1-0.4,0.2-0.5C92,72.5,92.2,72.5,92.4,72.5 M92.4,70.6c0.2,0,0.4,0.1,0.6,0.2c0.1,0.1,0.2,0.3,0.2,0.5  c0,0.2-0.1,0.4-0.2,0.5C92.8,72,92.6,72,92.4,72c-0.2,0-0.4-0.1-0.5-0.2c-0.1-0.1-0.2-0.3-0.2-0.5C91.7,71,91.9,70.6,92.4,70.6  C92.3,70.6,92.3,70.6,92.4,70.6 M91.5,68.8c0.2,0,0.4,0.1,0.6,0.2c0.1,0.1,0.2,0.3,0.2,0.5c0,0.2-0.1,0.4-0.2,0.5  c-0.2,0.1-0.4,0.2-0.6,0.2c-0.4,0-0.7-0.3-0.7-0.7c0-0.2,0.1-0.3,0.2-0.5C91.1,68.9,91.3,68.8,91.5,68.8 M90.5,70.6  c0.2,0,0.4,0.1,0.5,0.2c0.1,0.1,0.2,0.3,0.2,0.5c0,0.2-0.1,0.4-0.2,0.5c-0.1,0.3-0.2,0.4-0.5,0.4c-0.2,0-0.4-0.1-0.5-0.2  c-0.2-0.1-0.2-0.3-0.2-0.5c0-0.2,0.1-0.4,0.2-0.5C90,70.8,90.2,70.6,90.5,70.6 M90.5,67c0.2,0,0.4,0.1,0.5,0.2  c0.1,0.1,0.2,0.3,0.2,0.5c0,0.4-0.3,0.7-0.7,0.7c-0.2,0-0.3-0.1-0.5-0.2c-0.2-0.1-0.2-0.3-0.2-0.5c0-0.2,0.1-0.4,0.2-0.5  C90.1,67,90.3,67,90.5,67 M89.6,65.1c0.2,0,0.4,0.1,0.6,0.2c0.1,0.1,0.2,0.3,0.2,0.5c0,0.2-0.1,0.4-0.2,0.5  c-0.2,0.1-0.4,0.2-0.6,0.2c-0.4,0-0.7-0.3-0.7-0.7C88.9,65.4,89.2,65.1,89.6,65.1 M88.7,70.6c0.2,0,0.4,0.1,0.5,0.2  c0.1,0.1,0.2,0.3,0.2,0.5c0,0.2-0.1,0.4-0.2,0.5c-0.1,0.2-0.3,0.4-0.5,0.4c-0.2,0-0.4-0.1-0.5-0.2C88,71.9,88,71.7,88,71.5  c0-0.2,0.1-0.4,0.2-0.5C88.2,70.8,88.4,70.6,88.7,70.6 M88.7,63.3c0.2,0,0.4,0.1,0.5,0.2c0.1,0.1,0.2,0.3,0.2,0.5  c0,0.4-0.3,0.7-0.7,0.7c-0.2,0-0.3-0.1-0.5-0.2C88,64.4,88,64.2,88,64C88,63.7,88.2,63.3,88.7,63.3C88.6,63.3,88.6,63.3,88.7,63.3   M87.8,65.1c0.2,0,0.4,0.1,0.6,0.2c0.1,0.1,0.2,0.3,0.2,0.5c0,0.2-0.1,0.4-0.2,0.5c-0.2,0.1-0.4,0.2-0.6,0.2c-0.4,0-0.7-0.3-0.7-0.7  C87.1,65.4,87.4,65.1,87.8,65.1 M86.9,70.6c0.2,0,0.4,0.1,0.5,0.2c0.1,0.1,0.2,0.3,0.2,0.5c0,0.2-0.1,0.4-0.2,0.5  c-0.1,0.2-0.3,0.4-0.5,0.4c-0.2,0-0.4-0.1-0.5-0.2c-0.2-0.1-0.2-0.3-0.2-0.5c0-0.2,0.1-0.4,0.2-0.5C86.4,70.7,86.6,70.6,86.9,70.6   M86.9,67c0.2,0,0.4,0.1,0.5,0.2c0.1,0.1,0.2,0.3,0.2,0.5c0,0.4-0.3,0.7-0.7,0.7c-0.2,0-0.3-0.1-0.5-0.2c-0.2-0.1-0.2-0.3-0.2-0.5  c0-0.2,0.1-0.4,0.2-0.5C86.4,67,86.6,67,86.9,67 M85.9,68.8c0.2,0,0.4,0.1,0.6,0.2c0.1,0.1,0.2,0.3,0.2,0.5c0,0.2-0.1,0.4-0.2,0.5  c-0.2,0.1-0.4,0.2-0.6,0.2c-0.4,0-0.7-0.3-0.7-0.7C85.2,69.1,85.5,68.8,85.9,68.8L85.9,68.8 M85,74.3c0.2,0,0.4,0.1,0.5,0.2  c0.2,0.2,0.2,0.3,0.2,0.6c0,0.2-0.1,0.4-0.2,0.5c-0.1,0.1-0.3,0.2-0.5,0.2c-0.2,0-0.4-0.1-0.6-0.2c-0.1-0.1-0.2-0.3-0.2-0.5  c-0.1-0.4,0.2-0.7,0.6-0.8C84.8,74.3,84.9,74.3,85,74.3 M85,72.5c0.2,0,0.4,0.1,0.5,0.2c0.1,0.1,0.2,0.3,0.2,0.5  c0,0.4-0.3,0.7-0.7,0.7c-0.2,0-0.3-0.1-0.5-0.2c-0.2-0.1-0.2-0.3-0.2-0.5c0-0.2,0.1-0.4,0.2-0.5C84.6,72.5,84.8,72.5,85,72.5   M85,70.6c0.2,0,0.4,0.1,0.6,0.2c0.1,0.1,0.2,0.3,0.2,0.5c0,0.2-0.1,0.4-0.2,0.5C85.4,72,85.2,72,85,72c-0.2,0-0.4-0.1-0.5-0.2  c-0.1-0.1-0.2-0.3-0.2-0.5C84.3,71,84.5,70.6,85,70.6C84.9,70.6,84.9,70.6,85,70.6"/>
<path class="st0" d="M104.2,63.3c0.2,0,0.4,0.1,0.5,0.2c0.1,0.1,0.2,0.3,0.2,0.5c0,0.4-0.3,0.7-0.7,0.7c-0.2,0-0.3-0.1-0.5-0.2  c-0.2-0.1-0.2-0.3-0.2-0.5C103.5,63.7,103.7,63.3,104.2,63.3C104.1,63.3,104.1,63.3,104.2,63.3 M102.4,63.3c0.2,0,0.4,0.1,0.5,0.2  c0.1,0.1,0.2,0.3,0.2,0.5c0,0.4-0.3,0.7-0.7,0.7c-0.2,0-0.3-0.1-0.5-0.2c-0.2-0.1-0.2-0.3-0.2-0.5C101.7,63.7,101.9,63.3,102.4,63.3  C102.3,63.3,102.3,63.3,102.4,63.3 M100.5,74.3c0.2,0,0.4,0.1,0.5,0.2c0.1,0.1,0.2,0.3,0.2,0.5c0,0.2-0.1,0.4-0.2,0.5  c-0.1,0.1-0.3,0.2-0.5,0.2c-0.2,0-0.4-0.1-0.6-0.2c-0.1-0.1-0.2-0.3-0.2-0.5c0-0.2,0.1-0.4,0.2-0.5C100,74.4,100.2,74.4,100.5,74.3   M100.5,72.5c0.2,0,0.4,0.1,0.5,0.2c0.1,0.1,0.2,0.3,0.2,0.5c0,0.4-0.3,0.7-0.7,0.7c-0.2,0-0.3-0.1-0.5-0.2  c-0.2-0.1-0.2-0.3-0.2-0.5c0-0.2,0.1-0.4,0.2-0.5C100.1,72.5,100.3,72.5,100.5,72.5 M100.5,68.8c0.2,0,0.4,0.1,0.5,0.2  c0.1,0.1,0.2,0.3,0.2,0.5c0,0.4-0.3,0.7-0.7,0.7c-0.2,0-0.3-0.1-0.5-0.2c-0.2-0.1-0.2-0.3-0.2-0.5C99.8,69.2,100,68.8,100.5,68.8  C100.4,68.8,100.4,68.8,100.5,68.8 M100.5,67c0.2,0,0.4,0.1,0.5,0.2c0.2,0.2,0.2,0.3,0.2,0.6c0,0.4-0.3,0.7-0.7,0.7  c-0.2,0-0.3-0.1-0.5-0.2c-0.2-0.1-0.2-0.3-0.2-0.5c0-0.2,0.1-0.4,0.2-0.6C100.1,67,100.3,67,100.5,67 M100.5,65.1  c0.2,0,0.4,0.1,0.5,0.2c0.1,0.1,0.2,0.3,0.2,0.5c0,0.4-0.3,0.7-0.7,0.7c-0.2,0-0.3-0.1-0.5-0.2c-0.2-0.1-0.2-0.3-0.2-0.5  C99.8,65.5,100,65.1,100.5,65.1C100.4,65.1,100.4,65.1,100.5,65.1 M100.5,63.3c0.2,0,0.4,0.1,0.5,0.2c0.1,0.1,0.2,0.3,0.2,0.5  c0,0.4-0.3,0.7-0.7,0.7c-0.2,0-0.3-0.1-0.5-0.2c-0.2-0.1-0.2-0.3-0.2-0.5C99.8,63.7,100,63.3,100.5,63.3  C100.4,63.3,100.4,63.3,100.5,63.3 M100.5,70.6c0.2,0,0.4,0.1,0.6,0.2c0.1,0.1,0.2,0.3,0.2,0.5c0,0.2-0.1,0.4-0.2,0.5  c-0.2,0.1-0.4,0.2-0.6,0.2c-0.2,0-0.4-0.1-0.5-0.2c-0.1-0.1-0.2-0.3-0.2-0.5C99.8,71,100,70.6,100.5,70.6  C100.4,70.6,100.4,70.6,100.5,70.6 M98.7,63.3c0.2,0,0.4,0.1,0.5,0.2c0.1,0.1,0.2,0.3,0.2,0.5c0,0.4-0.3,0.7-0.7,0.7  c-0.2,0-0.3-0.1-0.5-0.2C98,64.4,98,64.2,98,64C98,63.7,98.2,63.3,98.7,63.3C98.6,63.3,98.6,63.3,98.7,63.3 M96.8,63.3  c0.2,0,0.4,0.1,0.5,0.2c0.1,0.1,0.2,0.3,0.2,0.5c0,0.4-0.3,0.7-0.7,0.7c-0.2,0-0.3-0.1-0.5-0.2c-0.2-0.1-0.2-0.3-0.2-0.5  C96.1,63.7,96.3,63.3,96.8,63.3C96.7,63.3,96.7,63.3,96.8,63.3"/>
<path class="st0" d="M113.3,74.3c0.2,0,0.4,0.1,0.5,0.2c0.1,0.1,0.2,0.3,0.2,0.5c0,0.2-0.1,0.4-0.2,0.5c-0.1,0.1-0.3,0.2-0.5,0.2  c-0.2,0-0.4-0.1-0.6-0.2c-0.1-0.1-0.2-0.3-0.2-0.5c0-0.2,0.1-0.4,0.2-0.5C112.8,74.4,113,74.4,113.3,74.3 M113.3,63.3  c0.2,0,0.4,0.1,0.5,0.2c0.1,0.1,0.2,0.3,0.2,0.5c0,0.4-0.3,0.7-0.7,0.7c-0.2,0-0.3-0.1-0.5-0.2c-0.2-0.1-0.2-0.3-0.2-0.5  C112.6,63.7,112.8,63.3,113.3,63.3C113.2,63.3,113.2,63.3,113.3,63.3 M111.5,74.3c0.2,0,0.4,0.1,0.5,0.2c0.1,0.1,0.2,0.3,0.2,0.5  c0,0.2-0.1,0.4-0.2,0.5c-0.1,0.1-0.3,0.2-0.5,0.2c-0.2,0-0.4-0.1-0.6-0.2c-0.1-0.1-0.2-0.3-0.2-0.5c0-0.2,0.1-0.4,0.2-0.5  C111,74.4,111.2,74.4,111.5,74.3 M111.5,72.5c0.2,0,0.4,0.1,0.5,0.2c0.1,0.1,0.2,0.3,0.2,0.5c0,0.4-0.3,0.7-0.7,0.7  c-0.2,0-0.3-0.1-0.5-0.2c-0.2-0.1-0.2-0.3-0.2-0.5c0-0.2,0.1-0.4,0.2-0.5C111.1,72.5,111.3,72.5,111.5,72.5 M111.5,68.8  c0.2,0,0.4,0.1,0.5,0.2c0.1,0.1,0.2,0.3,0.2,0.5c0,0.4-0.3,0.7-0.7,0.7c-0.2,0-0.3-0.1-0.5-0.2c-0.2-0.1-0.2-0.3-0.2-0.5  C110.8,69.2,111,68.8,111.5,68.8C111.4,68.8,111.4,68.8,111.5,68.8 M111.5,67c0.2,0,0.4,0.1,0.5,0.2c0.2,0.2,0.2,0.3,0.2,0.6  c0,0.4-0.3,0.7-0.7,0.7c-0.2,0-0.3-0.1-0.5-0.2c-0.2-0.1-0.2-0.3-0.2-0.5c0-0.2,0.1-0.4,0.2-0.6C111.1,67,111.3,67,111.5,67   M111.5,65.1c0.2,0,0.4,0.1,0.5,0.2c0.1,0.1,0.2,0.3,0.2,0.5c0,0.4-0.3,0.7-0.7,0.7c-0.2,0-0.3-0.1-0.5-0.2  c-0.2-0.1-0.2-0.3-0.2-0.5C110.8,65.5,111,65.1,111.5,65.1C111.4,65.1,111.4,65.1,111.5,65.1 M111.5,63.3c0.2,0,0.4,0.1,0.5,0.2  c0.1,0.1,0.2,0.3,0.2,0.5c0,0.4-0.3,0.7-0.7,0.7c-0.2,0-0.3-0.1-0.5-0.2c-0.2-0.1-0.2-0.3-0.2-0.5C110.8,63.7,111,63.3,111.5,63.3  C111.4,63.3,111.4,63.3,111.5,63.3 M111.5,70.6c0.2,0,0.4,0.1,0.6,0.2c0.1,0.1,0.2,0.3,0.2,0.5c0,0.2-0.1,0.4-0.2,0.5  c-0.2,0.1-0.4,0.2-0.6,0.2c-0.2,0-0.4-0.1-0.5-0.2c-0.1-0.1-0.2-0.3-0.2-0.5c0-0.2,0.1-0.4,0.2-0.5  C111.1,70.7,111.3,70.6,111.5,70.6 M109.6,74.3c0.2,0,0.4,0.1,0.5,0.2c0.1,0.1,0.2,0.3,0.2,0.5c0,0.2-0.1,0.4-0.2,0.5  c-0.1,0.1-0.3,0.2-0.5,0.2c-0.2,0-0.4-0.1-0.6-0.2c-0.1-0.1-0.2-0.3-0.2-0.5c0-0.2,0.1-0.4,0.2-0.5  C109.1,74.4,109.3,74.4,109.6,74.3 M109.6,63.3c0.2,0,0.4,0.1,0.5,0.2c0.1,0.1,0.2,0.3,0.2,0.5c0,0.4-0.3,0.7-0.7,0.7  c-0.2,0-0.3-0.1-0.5-0.2c-0.2-0.1-0.2-0.3-0.2-0.5C108.9,63.7,109.1,63.3,109.6,63.3C109.5,63.3,109.5,63.3,109.6,63.3"/>
<path class="st0" d="M126.4,72.5c0.2,0,0.4,0.1,0.5,0.2c0.1,0.1,0.2,0.3,0.2,0.5c0,0.4-0.3,0.7-0.7,0.7c-0.2,0-0.3-0.1-0.5-0.2  c-0.2-0.1-0.2-0.3-0.2-0.5c0-0.2,0.1-0.4,0.2-0.5C126,72.5,126.2,72.5,126.4,72.5 M126.4,68.8c0.2,0,0.4,0.1,0.5,0.2  c0.1,0.1,0.2,0.3,0.2,0.5c0,0.4-0.3,0.7-0.7,0.7c-0.2,0-0.3-0.1-0.5-0.2c-0.2-0.1-0.2-0.3-0.2-0.5C125.7,69.2,125.9,68.8,126.4,68.8  C126.3,68.8,126.3,68.8,126.4,68.8 M126.4,67c0.2,0,0.4,0.1,0.5,0.2c0.1,0.1,0.2,0.3,0.2,0.5c0,0.4-0.3,0.7-0.7,0.7  c-0.2,0-0.3-0.1-0.5-0.2c-0.2-0.1-0.2-0.3-0.2-0.5c0-0.2,0.1-0.4,0.2-0.5C126,67,126.2,67,126.4,67 M126.4,65.1  c0.2,0,0.4,0.1,0.5,0.2c0.1,0.1,0.2,0.3,0.2,0.5c0,0.4-0.3,0.7-0.7,0.7c-0.2,0-0.3-0.1-0.5-0.2c-0.2-0.1-0.2-0.3-0.2-0.5  C125.7,65.5,125.9,65.1,126.4,65.1C126.3,65.1,126.3,65.1,126.4,65.1 M126.4,70.6c0.2,0,0.4,0.1,0.6,0.2c0.1,0.1,0.2,0.3,0.2,0.5  c0,0.2-0.1,0.4-0.2,0.5c-0.2,0.1-0.4,0.2-0.6,0.2c-0.2,0-0.4-0.1-0.5-0.2c-0.1-0.1-0.2-0.3-0.2-0.5C125.7,71,125.9,70.6,126.4,70.6  C126.3,70.6,126.3,70.6,126.4,70.6 M124.6,74.3c0.2,0,0.4,0.1,0.5,0.2c0.2,0.2,0.2,0.3,0.2,0.6c0,0.2-0.1,0.4-0.2,0.5  c-0.1,0.1-0.3,0.2-0.5,0.2c-0.2,0-0.4-0.1-0.6-0.2c-0.1-0.1-0.2-0.3-0.2-0.5c-0.1-0.4,0.2-0.7,0.6-0.8  C124.4,74.3,124.5,74.3,124.6,74.3 M124.6,63.3c0.2,0,0.4,0.1,0.5,0.2c0.1,0.1,0.2,0.3,0.2,0.5c0,0.4-0.3,0.7-0.7,0.7  c-0.2,0-0.3-0.1-0.5-0.2c-0.2-0.1-0.2-0.3-0.2-0.5C123.9,63.7,124.1,63.3,124.6,63.3C124.5,63.3,124.5,63.3,124.6,63.3 M122.7,74.3  c0.2,0,0.4,0.1,0.5,0.2c0.2,0.2,0.2,0.3,0.2,0.6c0,0.2-0.1,0.4-0.2,0.5c-0.1,0.1-0.3,0.2-0.5,0.2c-0.2,0-0.4-0.1-0.6-0.2  c-0.1-0.1-0.2-0.3-0.2-0.5c-0.1-0.4,0.2-0.7,0.6-0.8C122.5,74.3,122.6,74.3,122.7,74.3 M122.7,63.3c0.2,0,0.4,0.1,0.5,0.2  c0.1,0.1,0.2,0.3,0.2,0.5c0,0.4-0.3,0.7-0.7,0.7c-0.2,0-0.3-0.1-0.5-0.2c-0.2-0.1-0.2-0.3-0.2-0.5C122,63.7,122.2,63.3,122.7,63.3  C122.6,63.3,122.6,63.3,122.7,63.3 M120.9,74.3c0.2,0,0.4,0.1,0.5,0.2c0.2,0.2,0.2,0.3,0.2,0.6c0,0.2-0.1,0.4-0.2,0.5  c-0.1,0.1-0.3,0.2-0.5,0.2c-0.2,0-0.4-0.1-0.6-0.2c-0.1-0.1-0.2-0.3-0.2-0.5c-0.1-0.4,0.2-0.7,0.6-0.8  C120.7,74.3,120.8,74.3,120.9,74.3 M120.9,63.3c0.2,0,0.4,0.1,0.5,0.2c0.1,0.1,0.2,0.3,0.2,0.5c0,0.4-0.3,0.7-0.7,0.7  c-0.2,0-0.3-0.1-0.5-0.2c-0.2-0.1-0.2-0.3-0.2-0.5C120.2,63.7,120.4,63.3,120.9,63.3C120.8,63.3,120.8,63.3,120.9,63.3 M119,72.5  c0.2,0,0.4,0.1,0.5,0.2c0.1,0.1,0.2,0.3,0.2,0.5c0,0.4-0.3,0.7-0.7,0.7c-0.2,0-0.3-0.1-0.5-0.2c-0.2-0.1-0.2-0.3-0.2-0.5  c0-0.2,0.1-0.4,0.2-0.5C118.6,72.5,118.8,72.5,119,72.5 M119,68.8c0.2,0,0.4,0.1,0.5,0.2c0.1,0.1,0.2,0.3,0.2,0.5  c0,0.4-0.3,0.7-0.7,0.7c-0.2,0-0.3-0.1-0.5-0.2c-0.2-0.1-0.2-0.3-0.2-0.5C118.3,69.2,118.5,68.8,119,68.8  C118.9,68.8,118.9,68.8,119,68.8 M119,67c0.2,0,0.4,0.1,0.5,0.2c0.1,0.1,0.2,0.3,0.2,0.5c0,0.4-0.3,0.7-0.7,0.7  c-0.2,0-0.3-0.1-0.5-0.2c-0.2-0.1-0.2-0.3-0.2-0.5c0-0.2,0.1-0.4,0.2-0.5C118.6,67,118.8,67,119,67 M119,65.1c0.2,0,0.4,0.1,0.5,0.2  c0.1,0.1,0.2,0.3,0.2,0.5c0,0.4-0.3,0.7-0.7,0.7c-0.2,0-0.3-0.1-0.5-0.2c-0.2-0.1-0.2-0.3-0.2-0.5C118.3,65.5,118.5,65.1,119,65.1  C118.9,65.1,118.9,65.1,119,65.1 M119,70.6c0.2,0,0.4,0.1,0.6,0.2c0.1,0.1,0.2,0.3,0.2,0.5c0,0.2-0.1,0.4-0.2,0.5  c-0.2,0.1-0.4,0.2-0.6,0.2c-0.2,0-0.4-0.1-0.5-0.2c-0.1-0.1-0.2-0.3-0.2-0.5C118.3,71,118.5,70.6,119,70.6  C118.9,70.6,118.9,70.6,119,70.6"/>
<path class="st0" d="M139.2,74.3c0.2,0,0.4,0.1,0.5,0.2c0.2,0.2,0.2,0.3,0.2,0.6c0,0.2-0.1,0.4-0.2,0.5c-0.1,0.1-0.3,0.2-0.5,0.2  c-0.2,0-0.4-0.1-0.6-0.2c-0.1-0.1-0.2-0.3-0.2-0.5c0-0.2,0.1-0.4,0.2-0.6C138.7,74.4,138.9,74.3,139.2,74.3 M139.2,72.5  c0.2,0,0.4,0.1,0.5,0.2c0.1,0.1,0.2,0.3,0.2,0.5c0,0.4-0.3,0.7-0.7,0.7c-0.2,0-0.3-0.1-0.5-0.2c-0.2-0.1-0.2-0.3-0.2-0.5  c0-0.2,0.1-0.4,0.2-0.5C138.8,72.5,138.9,72.5,139.2,72.5 M139.2,68.8c0.2,0,0.4,0.1,0.5,0.2c0.1,0.1,0.2,0.3,0.2,0.5  c0,0.4-0.3,0.7-0.7,0.7c-0.2,0-0.3-0.1-0.5-0.2c-0.2-0.1-0.2-0.3-0.2-0.5c0-0.2,0.1-0.4,0.2-0.5C138.8,68.9,139,68.8,139.2,68.8   M139.2,67c0.2,0,0.4,0.1,0.5,0.2c0.1,0.1,0.2,0.3,0.2,0.5c0,0.4-0.3,0.7-0.7,0.7c-0.2,0-0.3-0.1-0.5-0.2c-0.2-0.1-0.2-0.3-0.2-0.5  c0-0.2,0.1-0.4,0.2-0.5C138.8,67,138.9,67,139.2,67 M139.2,65.1c0.2,0,0.4,0.1,0.5,0.2c0.1,0.1,0.2,0.3,0.2,0.5  c0,0.4-0.3,0.7-0.7,0.7c-0.2,0-0.3-0.1-0.5-0.2c-0.2-0.1-0.2-0.3-0.2-0.5c0-0.2,0.1-0.4,0.2-0.5C138.8,65.2,139,65.1,139.2,65.1   M139.2,63.3c0.2,0,0.4,0.1,0.5,0.2c0.1,0.1,0.2,0.3,0.2,0.5c0,0.4-0.3,0.7-0.7,0.7c-0.2,0-0.3-0.1-0.5-0.2  c-0.2-0.1-0.2-0.3-0.2-0.5c0-0.2,0.1-0.4,0.2-0.5C138.8,63.4,139,63.3,139.2,63.3 M139.1,70.6c0.2,0,0.4,0.1,0.6,0.2  c0.1,0.1,0.2,0.3,0.2,0.5c0,0.2-0.1,0.4-0.2,0.5c-0.2,0.1-0.4,0.2-0.6,0.2c-0.2,0-0.4-0.1-0.5-0.2c-0.1-0.1-0.2-0.3-0.2-0.5  C138.4,71,138.6,70.6,139.1,70.6C139,70.6,139,70.6,139.1,70.6 M137.3,72.5c0.2,0,0.4,0.1,0.5,0.2c0.1,0.1,0.2,0.3,0.2,0.5  c0,0.4-0.3,0.7-0.7,0.7c-0.2,0-0.3-0.1-0.5-0.2c-0.2-0.1-0.2-0.3-0.2-0.5c0-0.2,0.1-0.4,0.2-0.5C136.9,72.5,137.1,72.5,137.3,72.5   M136.4,70.6c0.2,0,0.4,0.1,0.6,0.2c0.1,0.1,0.2,0.3,0.2,0.5c0,0.2-0.1,0.4-0.2,0.5c-0.2,0.1-0.4,0.2-0.6,0.2  c-0.4,0-0.7-0.3-0.7-0.7C135.7,70.9,136,70.6,136.4,70.6 M135.5,68.8c0.2,0,0.4,0.1,0.5,0.2c0.1,0.1,0.2,0.3,0.2,0.5  c0,0.4-0.3,0.7-0.7,0.7c-0.2,0-0.3-0.1-0.5-0.2c-0.2-0.1-0.2-0.3-0.2-0.5c0-0.2,0.1-0.4,0.2-0.5C135.1,68.9,135.3,68.8,135.5,68.8   M134.5,67c0.2,0,0.4,0.1,0.6,0.2c0.1,0.1,0.2,0.3,0.2,0.5c0,0.2-0.1,0.4-0.2,0.5c-0.2,0.1-0.4,0.2-0.6,0.2c-0.4,0-0.7-0.3-0.7-0.7  c0-0.2,0.1-0.3,0.2-0.5C134.1,67,134.3,67,134.5,67 M133.6,65.1c0.2,0,0.4,0.1,0.5,0.2c0.1,0.1,0.2,0.3,0.2,0.5  c0,0.4-0.3,0.7-0.7,0.7c-0.2,0-0.3-0.1-0.5-0.2c-0.2-0.1-0.2-0.3-0.2-0.5C132.9,65.5,133.1,65.1,133.6,65.1  C133.5,65.1,133.5,65.1,133.6,65.1 M131.8,74.3c0.2,0,0.4,0.1,0.5,0.2c0.2,0.2,0.2,0.3,0.2,0.6c0,0.2-0.1,0.4-0.2,0.5  c-0.1,0.1-0.3,0.2-0.5,0.2c-0.2,0-0.4-0.1-0.6-0.2c-0.1-0.1-0.2-0.3-0.2-0.5c0-0.2,0.1-0.4,0.2-0.6  C131.3,74.4,131.5,74.3,131.8,74.3 M131.8,72.5c0.2,0,0.4,0.1,0.5,0.2c0.1,0.1,0.2,0.3,0.2,0.5c0,0.4-0.3,0.7-0.7,0.7  c-0.2,0-0.3-0.1-0.5-0.2c-0.2-0.1-0.2-0.3-0.2-0.5c0-0.2,0.1-0.4,0.2-0.5C131.4,72.5,131.5,72.5,131.8,72.5 M131.8,68.8  c0.2,0,0.4,0.1,0.5,0.2c0.1,0.1,0.2,0.3,0.2,0.5c0,0.4-0.3,0.7-0.7,0.7c-0.2,0-0.3-0.1-0.5-0.2c-0.2-0.1-0.2-0.3-0.2-0.5  c0-0.2,0.1-0.4,0.2-0.5C131.4,68.9,131.6,68.8,131.8,68.8 M131.8,67c0.2,0,0.4,0.1,0.5,0.2c0.1,0.1,0.2,0.3,0.2,0.5  c0,0.4-0.3,0.7-0.7,0.7c-0.2,0-0.3-0.1-0.5-0.2c-0.2-0.1-0.2-0.3-0.2-0.5c0-0.2,0.1-0.4,0.2-0.5C131.4,67,131.5,67,131.8,67   M131.8,65.1c0.2,0,0.4,0.1,0.5,0.2c0.1,0.1,0.2,0.3,0.2,0.5c0,0.4-0.3,0.7-0.7,0.7c-0.2,0-0.3-0.1-0.5-0.2  c-0.2-0.1-0.2-0.3-0.2-0.5c0-0.2,0.1-0.4,0.2-0.5C131.4,65.2,131.6,65.1,131.8,65.1 M131.8,63.3c0.2,0,0.4,0.1,0.5,0.2  c0.1,0.1,0.2,0.3,0.2,0.5c0,0.4-0.3,0.7-0.7,0.7c-0.2,0-0.3-0.1-0.5-0.2c-0.2-0.1-0.2-0.3-0.2-0.5c0-0.2,0.1-0.4,0.2-0.5  C131.4,63.4,131.6,63.3,131.8,63.3 M131.7,70.6c0.2,0,0.4,0.1,0.6,0.2c0.1,0.1,0.2,0.3,0.2,0.5c0,0.2-0.1,0.4-0.2,0.5  c-0.2,0.1-0.4,0.2-0.6,0.2c-0.2,0-0.4-0.1-0.5-0.2c-0.1-0.1-0.2-0.3-0.2-0.5C131,71,131.2,70.6,131.7,70.6  C131.6,70.6,131.6,70.6,131.7,70.6"/>
</svg>
