<?xml version="1.0" encoding="UTF-8" standalone="no"?>
<!DOCTYPE svg PUBLIC "-//W3C//DTD SVG 1.1//EN" "http://www.w3.org/Graphics/SVG/1.1/DTD/svg11.dtd">
<svg width="100%" height="100%" viewBox="0 0 300 100" version="1.1" xmlns="http://www.w3.org/2000/svg" xmlns:xlink="http://www.w3.org/1999/xlink" xml:space="preserve" xmlns:serif="http://www.serif.com/" style="fill-rule:evenodd;clip-rule:evenodd;stroke-linejoin:round;stroke-miterlimit:2;">
    <g transform="matrix(1,0,0,1,0.4355,-0.298763)">
        <path d="M214.752,44.843C214.667,48.092 217.771,49.161 219.817,47.423C221.674,44.962 219.034,43.551 214.752,42.434C209.852,41.294 207.308,39.144 207.045,36.015C207.045,36.015 205.978,28.411 217.23,28.209C228.719,28.002 227.873,36.015 227.873,36.015L220.037,36.015C220.08,34.488 219.225,33.152 217.793,33.113C217.049,33.093 215.504,33.014 215.179,34.165C214.481,36.646 216.825,37.066 220.037,37.796C220.037,37.796 228.602,38.942 228.359,45.148C228.253,47.859 227.908,52.601 218.28,53.15C205.571,53.875 206.899,44.854 206.901,44.843L214.752,44.843ZM154.21,28.209C161.188,28.209 166.854,33.797 166.854,40.68C166.854,47.562 161.188,53.15 154.21,53.15C147.232,53.15 141.567,47.562 141.567,40.68C141.567,33.797 147.232,28.209 154.21,28.209ZM65.593,42.29C65.192,46.31 66.994,47.822 68.34,48.144C69.576,48.441 73.015,48.309 73.194,44.689L81.163,44.689C80.466,51.54 73.392,53.181 69.763,53.15C63.948,53.099 58.061,51.841 57.58,40.856C57.699,34.364 60.339,28.171 69.457,28.101C74.203,28.064 81.388,29.924 81.339,42.29L65.593,42.29ZM263.874,42.29C263.473,46.31 265.275,47.822 266.621,48.144C267.856,48.441 271.296,48.309 271.475,44.689L279.444,44.689C278.747,51.54 271.673,53.181 268.044,53.15C262.229,53.099 256.342,51.841 255.861,40.856C255.98,34.364 258.62,28.171 267.738,28.101C272.484,28.064 279.669,29.924 279.62,42.29L263.874,42.29ZM204.742,52.426L196.418,52.426L196.418,28.865L204.742,28.865L204.742,52.426ZM289.814,28.874L289.997,33.284C291.277,29.621 294.032,28.53 297.468,28.628L297.468,35.772C292.857,35.316 290.077,36.832 289.997,41.258L289.997,52.426L281.655,52.426C281.797,44.576 281.778,36.726 281.472,28.874L289.814,28.874ZM91.542,28.874L91.725,33.284C93.005,29.621 95.76,28.53 99.196,28.628L99.196,35.772C94.585,35.316 91.805,36.832 91.725,41.258L91.725,52.426L83.383,52.426C83.525,44.576 83.506,36.726 83.2,28.874L91.542,28.874ZM30.107,18.6L30.107,24.916L20.251,24.916L20.251,52.426L11.41,52.426L11.41,24.916L1.661,24.916L1.661,18.6L30.107,18.6ZM193.821,24.829L182.177,24.829L182.177,32.859L191.21,32.859L189.257,39.128L182.177,39.128L182.177,52.426L173.333,52.426L173.333,18.6L195.768,18.6L193.821,24.829ZM238.653,18.6L238.653,31.311C241.625,26.889 252.493,26.358 253.627,34.923C253.724,40.75 253.561,46.556 254.146,52.426L245.339,52.426L245.339,37.318C245.24,31.715 238.579,32.601 238.653,37.318L238.653,52.426L230.277,52.426L230.277,18.6L238.653,18.6ZM40.473,18.6L40.473,31.311C43.445,26.889 54.313,26.358 55.447,34.923C55.544,40.75 55.381,46.556 55.966,52.426L47.159,52.426L47.159,37.318C47.06,31.715 40.399,32.601 40.473,37.318L40.473,52.426L32.097,52.426L32.097,18.6L40.473,18.6ZM109.39,52.426L101.113,52.426L101.113,28.874L109.119,28.874L109.39,32.26C109.39,32.26 111.42,28.35 116.361,28.365C122.158,28.384 123.58,32.26 123.58,32.26C126.158,28.402 130.453,27.868 133.134,28.365C135.779,28.855 139.179,30.862 139.5,35.513L139.5,45.769L139.9,52.426L131.137,52.426L131.137,37.345C131.137,37.345 131.32,33.418 127.871,33.516C124.36,33.615 124.466,37.345 124.466,37.345L124.466,52.426L116.122,52.426L116.122,37.345C116.045,34.59 114.844,33.49 112.769,33.516C110.388,33.545 109.622,35.426 109.39,37.345L109.39,52.426ZM154.208,33.18C156.53,33.18 158.415,36.539 158.415,40.676C158.415,44.813 156.53,48.172 154.208,48.172C151.885,48.172 150,44.813 150,40.676C150,36.539 151.885,33.18 154.208,33.18ZM65.669,37.756L73.383,37.756C73.383,37.756 73.316,32.536 69.652,32.565C65.523,32.596 65.669,37.756 65.669,37.756ZM263.95,37.756L271.663,37.756C271.663,37.756 271.597,32.536 267.933,32.565C263.804,32.596 263.95,37.756 263.95,37.756ZM206.719,18.6L204.742,24.794L196.418,24.794L198.478,18.6L206.719,18.6Z" style="fill:rgb(255,20,19);"/>
    </g>
    <g transform="matrix(1,0,0,1,0.4355,-0.298763)">
        <path d="M24.812,65.69L26.226,63.691C26.226,63.691 22.419,61.237 17.078,61.964C10.762,62.823 9.608,68.162 12.946,70.952C15.446,73.041 20.876,72.833 22.224,74.2C23.416,75.411 24.643,77.837 21.033,79.158C16.814,80.703 11.644,78.072 11.644,78.072L10.354,80.191C10.354,80.191 19.876,84.59 25.18,79.659C27.334,77.655 28.238,72.487 22.616,70.952C18.775,69.903 13.044,69.001 14.543,66.203C16.802,61.986 24.812,65.69 24.812,65.69ZM289.058,65.531L290.611,63.665C290.611,63.665 288.031,61.76 283.943,61.982C281.745,62.101 278.867,62.639 276.343,64.87C271.614,69.051 272.58,75.442 275.701,78.658C281.965,85.113 291.12,80.096 291.12,80.096L289.664,78.347C289.664,78.347 285.143,80.283 281.494,79.291C280.806,79.103 275.384,76.818 276.692,70.851C278.91,60.729 289.058,65.531 289.058,65.531ZM59.336,65.531L60.889,63.665C60.889,63.665 58.308,61.76 54.22,61.982C52.022,62.101 49.145,62.639 46.621,64.87C41.891,69.051 42.857,75.442 45.978,78.658C52.243,85.113 61.398,80.096 61.398,80.096L59.942,78.347C59.942,78.347 55.42,80.283 51.772,79.291C51.083,79.103 45.662,76.818 46.969,70.851C49.187,60.729 59.336,65.531 59.336,65.531ZM183.334,62.42L182.885,64.636L175.796,64.636L175.796,81.492L172.788,81.492L172.788,64.636L165.795,64.636L165.795,62.42L183.334,62.42ZM202.058,81.492L199.063,81.492L199.063,62.42L202.058,62.42L202.058,81.492ZM81.3,81.492L78.306,81.492L78.306,62.42L81.3,62.42L81.3,81.492ZM255.223,81.492L252.186,81.492L252.186,62.42L255.223,62.42L255.223,81.492ZM235.901,62.42L235.402,64.661L225,64.661L225,70.354L233.858,70.354L233.858,72.559L225,72.559L225,81.492L221.813,81.492L221.813,62.42L235.901,62.42ZM115.27,62.42L114.839,64.635L104.235,64.635L104.235,70.455L113.216,70.455L113.216,72.635L104.235,72.635L104.235,79.149L115.64,79.149L115.64,81.492L101.156,81.492L101.156,62.42L115.27,62.42ZM135.346,81.492L132.289,81.492L132.289,62.42L135.916,62.42C139.77,67.59 143.6,72.764 147.205,77.977C146.582,73.417 146.64,67.916 146.695,62.42L149.72,62.42L149.72,81.492L146.41,81.492C142.533,76.43 138.68,71.311 135.019,65.723C135.187,70.972 135.268,76.231 135.346,81.492Z"/>
    </g>
</svg>
