<?xml version="1.0" encoding="UTF-8" standalone="no"?>
<!DOCTYPE svg PUBLIC "-//W3C//DTD SVG 1.1//EN" "http://www.w3.org/Graphics/SVG/1.1/DTD/svg11.dtd">
<svg width="100%" height="100%" viewBox="0 0 300 100" version="1.1" xmlns="http://www.w3.org/2000/svg" xmlns:xlink="http://www.w3.org/1999/xlink" xml:space="preserve" xmlns:serif="http://www.serif.com/" style="fill-rule:evenodd;clip-rule:evenodd;stroke-linejoin:round;stroke-miterlimit:2;">
    <path d="M185.839,67.071L182.022,67.071L182.022,53.595L178.69,53.595C179.639,55.026 180.191,56.741 180.191,58.585C180.191,63.578 176.138,67.631 171.145,67.631C166.152,67.631 162.098,63.578 162.098,58.585C162.098,53.592 166.152,49.538 171.145,49.538C173.643,49.538 175.906,50.553 177.544,52.192L178.532,50.823L182.022,50.823L182.022,49.538L182.022,47.592C182.022,45.423 185.2,44.197 188.469,44.197L188.469,47.592C187.022,47.536 186.25,48.214 185.839,49.284L185.839,50.823L188.469,50.823L188.469,53.595L185.839,53.595L185.839,67.071ZM171.145,53.423C173.993,53.423 176.306,55.736 176.306,58.585C176.306,61.433 173.993,63.746 171.145,63.746C168.296,63.746 165.983,61.433 165.983,58.585C165.983,55.736 168.296,53.423 171.145,53.423ZM161.401,42.639L157.464,42.639L157.464,25.438L165.254,25.438L165.254,22.184L169.199,19.184L169.199,25.438L175.784,25.438L179.553,36.068L183.78,25.438L187.858,25.438L179.049,47.592L174.971,47.592L177.457,41.338L172.776,28.898L169.199,28.898L169.199,42.639L165.254,42.639L165.254,28.898L161.401,28.898L161.401,42.639ZM155.877,30.509L151.466,30.509C151.491,30.41 151.466,30.306 151.466,30.199C151.466,29.481 150.883,28.898 150.165,28.898C149.447,28.898 148.951,29.486 148.864,30.199C148.768,30.988 149.997,31.462 150.237,31.516C153.249,32.19 155.258,33.487 156.132,35.488L156.132,37.382C156.132,40.67 153.466,43.336 150.178,43.336C150.17,43.336 150.161,43.336 150.153,43.336C146.865,43.336 144.199,40.67 144.199,37.382L148.38,37.382C148.333,37.543 148.38,37.713 148.38,37.889C148.38,38.874 149.18,39.674 150.165,39.674C151.151,39.674 151.95,38.874 151.95,37.889C151.95,36.903 151.14,36.248 150.165,36.103C147.134,35.654 144.646,33.334 144.646,31.387C144.646,29.809 144.826,28.296 145.942,27.18C147.057,26.064 148.571,25.438 150.149,25.438C150.16,25.438 150.171,25.438 150.182,25.438C151.76,25.438 153.273,26.064 154.389,27.18C155.296,28.087 155.877,29.227 155.877,30.509ZM135.481,35.086L122.422,35.086L125.334,32.028L131.471,32.028C130.695,30.033 128.755,28.618 126.487,28.618C123.537,28.618 121.142,31.013 121.142,33.963C121.142,36.913 123.537,39.308 126.487,39.308C128.255,39.308 129.823,38.448 130.797,37.124L134.982,37.124C133.698,40.569 130.377,43.026 126.487,43.026C121.485,43.026 117.424,38.965 117.424,33.963C117.424,28.961 121.485,24.9 126.487,24.9C131.489,24.9 135.55,28.961 135.55,33.963C135.55,34.343 135.526,34.718 135.481,35.086ZM54.715,35.086L41.656,35.086L44.568,32.028L50.705,32.028C49.929,30.033 47.989,28.618 45.721,28.618C42.771,28.618 40.376,31.013 40.376,33.963C40.376,36.913 42.771,39.308 45.721,39.308C47.489,39.308 49.058,38.448 50.031,37.124L54.217,37.124C52.933,40.569 49.612,43.026 45.721,43.026C40.719,43.026 36.659,38.965 36.659,33.963C36.659,28.961 40.719,24.9 45.721,24.9C50.723,24.9 54.784,28.961 54.784,33.963C54.784,34.343 54.761,34.718 54.715,35.086ZM78.273,36.231L78.268,36.231C78.1,40.004 74.139,43.026 69.284,43.026C64.429,43.026 60.468,40.004 60.301,36.231L60.296,36.231L60.296,22.374L64.307,19.184L64.307,36.231C64.47,38.182 66.754,39.726 69.284,39.726C71.815,39.726 73.793,38.182 73.956,36.231L73.956,22.374L78.273,19.184L78.273,36.231ZM84.027,42.639L80.254,42.639L80.254,28.438L84.027,25.438L84.027,27.461C88.546,23.287 95.398,25.828 95.398,30.493L95.398,42.639L91.422,42.639L91.422,33.229C90.763,27.217 84.615,27.693 84.027,33.657L84.027,42.639ZM96.938,25.438L100.853,25.438L100.853,42.639L96.938,42.639L96.938,25.438ZM140.478,42.639L136.663,42.639L136.663,25.438L140.478,25.438L140.478,27.168C141.653,25.482 143.473,25.097 145.652,25.438L143.197,29.598C141.574,29.499 140.819,30.619 140.478,32.32L140.478,42.639ZM111.99,42.639L108.277,42.639L101.58,25.438L105.944,25.438L110.139,36.231L113.971,25.438L104,25.438L118.682,25.438L118.682,25.451L111.99,42.639ZM24.732,19.986L24.732,27.349C28.201,22.744 36.217,25.225 36.179,32.028L36.179,42.639L32.149,42.639L32.149,32.028C30.324,27.715 26.198,27.967 24.732,32.028L24.732,42.639L20.879,42.639L20.879,23.773L15.399,23.773L15.399,42.639L11.102,42.639L11.102,23.773L2.549,23.773L6.549,19.986L24.732,19.986ZM96.938,21.518L100.853,21.518L100.853,23.946L96.938,23.946L96.938,21.518ZM161.401,23.774L157.464,23.774L157.464,21.52L161.401,21.52L161.401,23.774Z" style="fill:rgb(0,144,187);"/>
    <path d="M240.539,38.907L240.539,35.575L258.716,35.575L264.905,55.979L269.62,35.575L277.733,35.575L282.193,54.874L288.046,35.575L297.451,35.575L287.728,67.631L278.323,67.631L278.659,66.526L273.676,44.968L268.439,67.631L259.034,67.631L250.243,38.648L250.243,67.631L240.539,67.631L240.539,63.996C237.865,66.789 234.298,68.496 230.382,68.496C224.712,68.496 219.771,64.916 217.219,59.641L217.219,67.631L193.77,67.631L193.77,32.337L204.735,24.9L204.735,57.834L216.463,57.834C215.76,55.862 215.374,53.708 215.374,51.451C215.374,42.045 222.099,34.407 230.382,34.407C234.298,34.407 237.865,36.114 240.539,38.907ZM232.617,43.682C236.989,43.682 240.539,47.231 240.539,51.603C240.539,55.975 236.989,59.525 232.617,59.525C228.245,59.525 224.696,55.975 224.696,51.603C224.696,47.231 228.245,43.682 232.617,43.682Z" style="fill:rgb(147,32,145);"/>
</svg>
