<?xml version="1.0" encoding="UTF-8" standalone="no"?>
<!DOCTYPE svg PUBLIC "-//W3C//DTD SVG 1.1//EN" "http://www.w3.org/Graphics/SVG/1.1/DTD/svg11.dtd">
<svg width="100%" height="100%" viewBox="0 0 300 100" version="1.1" xmlns="http://www.w3.org/2000/svg" xmlns:xlink="http://www.w3.org/1999/xlink" xml:space="preserve" xmlns:serif="http://www.serif.com/" style="fill-rule:evenodd;clip-rule:evenodd;stroke-linejoin:round;stroke-miterlimit:2;">
    <path d="M3.485,7.34C3.392,6.328 3.73,5.322 4.415,4.571C5.101,3.82 6.071,3.391 7.088,3.391C12.565,3.39 22.378,3.39 27.52,3.39C29.406,3.39 30.976,4.839 31.128,6.719C33.858,40.312 40.244,62.426 50.877,71.202C61.931,61.584 68.624,40.056 71.005,6.754C71.139,4.859 72.715,3.391 74.614,3.391C79.957,3.39 90.322,3.39 96.043,3.39C97.074,3.39 98.056,3.829 98.743,4.598C99.429,5.367 99.756,6.392 99.64,7.416C95.957,38.935 86.562,72.99 65.746,94.454L37.376,94.454C18.261,80.275 6.585,39.424 3.485,7.34Z" style="fill:rgb(242,127,0);"/>
    <path d="M160.059,58.7L130.708,58.7C127.151,58.7 124.267,61.584 124.267,65.141L124.267,66.118C124.267,69.675 127.151,72.559 130.708,72.559L160.059,72.559L160.059,58.7ZM160.059,94.454L121.101,94.454C113.839,94.454 106.875,91.569 101.739,86.434C96.604,81.299 93.719,74.334 93.719,67.072C93.719,67.071 93.719,67.071 93.719,67.07C93.719,59.808 96.604,52.843 101.739,47.708C106.875,42.573 113.839,39.688 121.101,39.688C139.372,39.688 160.059,39.688 160.059,39.688L160.059,33.841C160.059,30.251 153.094,25.83 146.925,25.791L103.823,25.791L103.823,3.39L155.032,3.39L155.231,3.391C172.109,3.496 187.347,16.95 187.347,33.841L187.347,94.454L160.059,94.454Z" style="fill:rgb(242,127,0);"/>
    <path d="M241.87,35.514L242.582,35.514C254.869,29.236 260.299,19.326 261.359,7.102C261.537,5.011 263.287,3.404 265.386,3.403C270.337,3.391 278.921,3.391 284.027,3.391C285.145,3.391 286.214,3.852 286.98,4.667C287.746,5.481 288.142,6.576 288.074,7.692C286.981,24.139 279.35,37.717 266.308,48.922C280.929,60.114 287.269,74.198 288.1,90.205C288.154,91.31 287.752,92.389 286.989,93.19C286.225,93.991 285.167,94.445 284.061,94.445C279.006,94.454 270.507,94.454 265.524,94.454C263.37,94.454 261.593,92.769 261.477,90.618C260.833,78.874 255.554,68.677 242.582,61.056L241.87,61.056C228.898,68.677 223.62,78.874 222.975,90.618C222.86,92.769 221.082,94.454 218.928,94.454C213.945,94.454 205.447,94.454 200.391,94.445C199.285,94.445 198.227,93.991 197.464,93.19C196.7,92.389 196.299,91.31 196.352,90.205C197.183,74.198 203.523,60.114 218.145,48.922C205.102,37.717 197.471,24.139 196.379,7.692C196.31,6.576 196.706,5.481 197.472,4.667C198.238,3.852 199.307,3.391 200.425,3.391C205.532,3.391 214.115,3.391 219.067,3.403C221.166,3.404 222.915,5.011 223.093,7.102C224.153,19.326 229.583,29.236 241.87,35.514Z" style="fill:rgb(242,127,0);"/>
</svg>
