<?xml version="1.0" encoding="UTF-8" standalone="no"?>
<!DOCTYPE svg PUBLIC "-//W3C//DTD SVG 1.1//EN" "http://www.w3.org/Graphics/SVG/1.1/DTD/svg11.dtd">
<svg width="100%" height="100%" viewBox="0 0 300 100" version="1.1" xmlns="http://www.w3.org/2000/svg" xmlns:xlink="http://www.w3.org/1999/xlink" xml:space="preserve" xmlns:serif="http://www.serif.com/" style="fill-rule:evenodd;clip-rule:evenodd;stroke-linejoin:round;stroke-miterlimit:2;">
    <path d="M263.11,27.043L281.779,27.043L281.779,27.073C288.394,27.522 295.335,32.91 295.335,39.482C295.335,44.953 291.794,49.605 286.881,51.267L286.881,53.855L299.113,72.083L289.805,72.083L278.145,54.706L273.388,54.706L277.388,47.55L282.896,47.55L282.896,47.368C286.395,46.558 287.383,43.171 287.383,40.196C287.383,37.273 283.997,34.822 280.896,34.183L280.896,34.021L271.136,34.021L271.136,72.083L263.11,72.083L263.11,27.043Z" style="fill:url(#_Linear1);"/>
    <g transform="matrix(1.08756,0,0,1.07881,-20.0741,-5.75339)">
        <path d="M233.174,29.434C244.643,29.434 253.955,39.194 253.955,51.217C253.955,63.239 244.643,73 233.174,73C221.706,73 212.394,63.239 212.394,51.217C212.394,39.194 221.706,29.434 233.174,29.434ZM233.174,36.09C241.139,36.09 247.605,42.868 247.605,51.217C247.605,59.565 241.139,66.343 233.174,66.343C225.21,66.343 218.744,59.565 218.744,51.217C218.744,42.868 225.21,36.09 233.174,36.09Z" style="fill:url(#_Linear2);"/>
    </g>
    <path d="M194.035,34.021L194.035,72.083L186.062,72.083L186.062,34.021L194.035,34.021ZM194.035,27.043L194.035,34.021L171.043,34.021L171.043,27.043L194.035,27.043ZM208.953,27.043L208.953,34.021L196.289,34.021L200.289,27.043L208.953,27.043Z" style="fill:url(#_Linear3);"/>
    <path d="M150,27.043L157.65,27.043L177.621,72.083L167.948,72.083L162.022,58.284L148.603,58.284L153.603,51.921L159.288,51.921L154.138,39.929L140.327,72.083L130.655,72.083L150,27.043Z" style="fill:url(#_Linear4);"/>
    <path d="M93.942,72.083L85.947,72.083L85.947,27.043L93.942,27.043L117.952,59.238L117.952,27.043L124.996,27.043L124.996,72.083L117.952,72.083L93.942,39.888L93.942,72.083Z" style="fill:url(#_Linear5);"/>
    <path d="M76.938,44.824L76.938,51.921L59.61,51.921L63.61,44.824L76.938,44.824ZM56.901,65.003L78.02,65.003L78.02,72.083L48.988,72.083L48.988,27.043L78.02,27.043L78.02,34.021L56.901,34.021L56.901,65.003Z" style="fill:url(#_Linear6);"/>
    <path d="M17.202,72.083L0,27.043L9.126,27.043L21.765,59.196L34.404,27.043L43.53,27.043L26.328,72.083L17.202,72.083Z" style="fill:url(#_Linear7);"/>
    <defs>
        <linearGradient id="_Linear1" x1="0" y1="0" x2="1" y2="0" gradientUnits="userSpaceOnUse" gradientTransform="matrix(299.113,0,0,45.9567,-3.55271e-15,50.0216)"><stop offset="0" style="stop-color:rgb(12,36,108);stop-opacity:1"/><stop offset="1" style="stop-color:rgb(169,3,43);stop-opacity:1"/></linearGradient>
        <linearGradient id="_Linear2" x1="0" y1="0" x2="1" y2="0" gradientUnits="userSpaceOnUse" gradientTransform="matrix(299.113,0,0,45.9567,-3.55271e-15,50.0216)"><stop offset="0" style="stop-color:rgb(12,36,108);stop-opacity:1"/><stop offset="1" style="stop-color:rgb(169,3,43);stop-opacity:1"/></linearGradient>
        <linearGradient id="_Linear3" x1="0" y1="0" x2="1" y2="0" gradientUnits="userSpaceOnUse" gradientTransform="matrix(299.113,0,0,45.9567,-3.55271e-15,50.0216)"><stop offset="0" style="stop-color:rgb(12,36,108);stop-opacity:1"/><stop offset="1" style="stop-color:rgb(169,3,43);stop-opacity:1"/></linearGradient>
        <linearGradient id="_Linear4" x1="0" y1="0" x2="1" y2="0" gradientUnits="userSpaceOnUse" gradientTransform="matrix(299.113,0,0,45.9567,-3.55271e-15,50.0216)"><stop offset="0" style="stop-color:rgb(12,36,108);stop-opacity:1"/><stop offset="1" style="stop-color:rgb(169,3,43);stop-opacity:1"/></linearGradient>
        <linearGradient id="_Linear5" x1="0" y1="0" x2="1" y2="0" gradientUnits="userSpaceOnUse" gradientTransform="matrix(299.113,0,0,45.9567,-3.55271e-15,50.0216)"><stop offset="0" style="stop-color:rgb(12,36,108);stop-opacity:1"/><stop offset="1" style="stop-color:rgb(169,3,43);stop-opacity:1"/></linearGradient>
        <linearGradient id="_Linear6" x1="0" y1="0" x2="1" y2="0" gradientUnits="userSpaceOnUse" gradientTransform="matrix(299.113,0,0,45.9567,-3.55271e-15,50.0216)"><stop offset="0" style="stop-color:rgb(12,36,108);stop-opacity:1"/><stop offset="1" style="stop-color:rgb(169,3,43);stop-opacity:1"/></linearGradient>
        <linearGradient id="_Linear7" x1="0" y1="0" x2="1" y2="0" gradientUnits="userSpaceOnUse" gradientTransform="matrix(299.113,0,0,45.9567,-3.55271e-15,50.0216)"><stop offset="0" style="stop-color:rgb(12,36,108);stop-opacity:1"/><stop offset="1" style="stop-color:rgb(169,3,43);stop-opacity:1"/></linearGradient>
    </defs>
</svg>
