<?xml version="1.0" encoding="UTF-8" standalone="no"?>
<svg
   xmlns:dc="http://purl.org/dc/elements/1.1/"
   xmlns:cc="http://creativecommons.org/ns#"
   xmlns:rdf="http://www.w3.org/1999/02/22-rdf-syntax-ns#"
   xmlns:svg="http://www.w3.org/2000/svg"
   xmlns="http://www.w3.org/2000/svg"
   id="svg8"
   version="1.1"
   viewBox="0 0 46.357597 28.337593"
   height="28.337593mm"
   width="46.357597mm">
  <defs
     id="defs2" />
  <metadata
     id="metadata5">
    <rdf:RDF>
      <cc:Work
         rdf:about="">
        <dc:format>image/svg+xml</dc:format>
        <dc:type
           rdf:resource="http://purl.org/dc/dcmitype/StillImage" />
        <dc:title></dc:title>
      </cc:Work>
    </rdf:RDF>
  </metadata>
  <g
     transform="translate(-9.853367,-18.360672)"
     id="layer1" />
  <g
     transform="translate(-9.853367,-18.360672)"
     style="display:inline"
     id="layer2">
    <g
       transform="translate(-0.22962823)"
       id="g891">
      <path
         style="opacity:1;fill:#282482;fill-opacity:1;stroke:none;stroke-width:0.99999994px;stroke-linecap:butt;stroke-linejoin:miter;stroke-opacity:1"
         d="M 91.923828,77.769531 125.71484,132.51953 159.50391,77.769531 H 146.625 L 125.71484,113.5918 104.80273,77.769531 Z"
         transform="scale(0.26458333)"
         id="path839" />
      <path
         style="fill:#00a098;fill-opacity:1;stroke:none;stroke-width:0.26458332px;stroke-linecap:butt;stroke-linejoin:miter;stroke-opacity:1"
         d="m 28.796951,19.093001 4.464843,7.890475 4.464844,-7.890475 h -2.338874 c 0,1.483481 -0.394386,2.998125 -2.12597,3.024105 -1.731581,-0.02598 -2.126485,-1.540624 -2.126485,-3.024105 z"
         id="path863" />
      <circle
         style="opacity:1;fill:#7cc1d1;fill-opacity:1;stroke:none;stroke-width:0.42333335;stroke-linecap:round;stroke-linejoin:round;stroke-miterlimit:1.5;stroke-dasharray:none;stroke-dashoffset:0;stroke-opacity:0.08154506"
         id="path881"
         cx="33.261795"
         cy="19.955261"
         r="1.5945894" />
    </g>
  </g>
  <g
     transform="translate(-9.853367,-18.360672)"
     style="display:inline"
     id="layer3">
    <g
       id="text886"
       style="font-style:normal;font-weight:normal;font-size:9.4789257px;line-height:1.25;font-family:sans-serif;letter-spacing:0px;word-spacing:0px;fill:#282482;fill-opacity:1;stroke:none;stroke-width:0.23697314"
       transform="scale(1.0362462,0.96502166)"
       aria-label="vocare">
      <path
         id="path893"
         style="font-style:normal;font-variant:normal;font-weight:bold;font-stretch:normal;font-size:15.16628075px;font-family:Loma;-inkscape-font-specification:'Loma Bold';fill:#282482;fill-opacity:1;stroke-width:0.23697314"
         d="M 12.493093,48.294628 9.5087123,40.430082 h 1.7921097 l 1.866163,5.198598 1.777299,-5.198598 h 1.777298 l -2.969569,7.864546 z" />
      <path
         id="path895"
         style="font-style:normal;font-variant:normal;font-weight:bold;font-stretch:normal;font-size:15.16628075px;font-family:Loma;-inkscape-font-specification:'Loma Bold';fill:#282482;fill-opacity:1;stroke-width:0.23697314"
         d="m 23.815965,47.331925 q -0.947892,1.058973 -2.725191,1.058973 -1.777298,0 -2.732596,-1.058973 -0.955298,-1.058974 -0.955298,-2.999191 0,-1.932813 0.955298,-2.991786 0.955298,-1.058974 2.732596,-1.058974 1.777299,0 2.725191,1.058974 0.955298,1.051568 0.955298,2.991786 0,1.940217 -0.955298,2.999191 z m -2.725191,-5.568869 q -2.058704,0 -2.058704,2.569678 0,2.577082 2.058704,2.577082 2.051299,0 2.051299,-2.577082 0,-2.569678 -2.051299,-2.569678 z" />
      <path
         id="path897"
         style="font-style:normal;font-variant:normal;font-weight:bold;font-stretch:normal;font-size:15.16628075px;font-family:Loma;-inkscape-font-specification:'Loma Bold';fill:#282482;fill-opacity:1;stroke-width:0.23697314"
         d="m 29.495916,46.909816 q 0.792378,0 1.214487,-0.392486 0.429514,-0.399893 0.444325,-1.184866 h 1.62919 q -0.02222,0.718325 -0.251784,1.281136 -0.222162,0.555406 -0.555406,0.881244 -0.333243,0.325838 -0.777568,0.540595 -0.444325,0.207351 -0.851622,0.281405 -0.407298,0.07405 -0.836812,0.07405 -1.621785,0 -2.599299,-1.088595 -0.977514,-1.088595 -0.977514,-2.88811 0,-1.88838 0.925676,-3.006597 0.933082,-1.125622 2.658543,-1.125622 1.444055,0 2.347515,0.829406 0.90346,0.822001 0.90346,2.103137 h -1.614379 q -0.0074,-0.622055 -0.481352,-1.036758 -0.473946,-0.414703 -1.103406,-0.414703 -0.45173,0 -0.814595,0.170325 -0.35546,0.162919 -0.577623,0.429513 -0.214756,0.25919 -0.362865,0.614649 -0.140702,0.35546 -0.199946,0.703514 -0.05184,0.340649 -0.05184,0.696109 0,1.133028 0.496163,1.836542 0.496162,0.696108 1.43665,0.696108 z" />
      <path
         id="path899"
         style="font-style:normal;font-variant:normal;font-weight:bold;font-stretch:normal;font-size:15.16628075px;font-family:Loma;-inkscape-font-specification:'Loma Bold';fill:#282482;fill-opacity:1;stroke-width:0.23697314"
         d="m 40.293003,45.021437 q 0,1.644001 0.06665,2.206812 0.07405,0.562811 0.35546,1.066379 h -1.762488 q -0.133298,-0.37027 -0.162919,-0.710919 -0.562811,0.473946 -1.170055,0.64427 -0.599838,0.162919 -1.458866,0.162919 -0.614649,0 -1.096001,-0.140702 -0.481351,-0.148109 -0.777568,-0.370271 -0.288811,-0.229568 -0.481351,-0.533189 -0.192541,-0.303622 -0.266595,-0.585028 -0.06665,-0.288811 -0.06665,-0.585027 0,-1.110812 0.784974,-1.71065 0.792378,-0.599838 2.310488,-0.792379 1.236703,-0.148108 2.103136,-0.459135 -0.03703,-0.762758 -0.414703,-1.103407 -0.377676,-0.348054 -1.199676,-0.348054 -0.703514,0 -1.170055,0.333244 -0.459136,0.333243 -0.607244,0.799784 l -1.577352,-0.222162 q 0.259189,-1.221893 1.125622,-1.806921 0.866433,-0.585027 2.421569,-0.585027 0.814596,0 1.355191,0.133297 0.540595,0.125892 0.933081,0.45173 0.399892,0.325838 0.577622,0.90346 0.17773,0.570217 0.17773,1.451461 z m -5.191193,1.014541 q 0,0.244378 0.140703,0.429514 0.140703,0.17773 0.370271,0.274 0.229567,0.08886 0.459135,0.133297 0.229568,0.03703 0.459136,0.03703 1.066379,0 1.599568,-0.45173 0.53319,-0.45173 0.53319,-1.429244 v -0.333243 q -0.429514,0.148108 -0.992325,0.244378 -0.562811,0.09627 -0.977514,0.148108 -0.414703,0.04443 -0.799785,0.133298 -0.385081,0.08886 -0.592433,0.288811 -0.199946,0.19254 -0.199946,0.525784 z" />
      <path
         id="path901"
         style="font-style:normal;font-variant:normal;font-weight:bold;font-stretch:normal;font-size:15.16628075px;font-family:Loma;-inkscape-font-specification:'Loma Bold';fill:#282482;fill-opacity:1;stroke-width:0.23697314"
         d="m 42.351708,48.294628 v -7.864546 h 1.629191 v 0.947893 q 0.385081,-0.644271 0.755352,-0.866433 0.377676,-0.229568 0.925676,-0.229568 0.192541,0 0.385081,0.06665 0.192541,0.05924 0.296217,0.118486 0.103675,0.05924 0.281405,0.17773 l -0.459135,1.407028 q -0.05924,-0.02962 -0.162919,-0.111081 -0.103676,-0.08887 -0.207352,-0.133297 -0.103675,-0.04443 -0.244378,-0.04443 -0.377676,0 -0.644271,0.08886 -0.259189,0.08887 -0.481352,0.325838 -0.222162,0.229568 -0.333243,0.688703 -0.111081,0.459136 -0.111081,1.155244 v 4.272922 z" />
      <path
         id="path903"
         style="font-style:normal;font-variant:normal;font-weight:bold;font-stretch:normal;font-size:15.16628075px;font-family:Loma;-inkscape-font-specification:'Loma Bold';fill:#282482;fill-opacity:1;stroke-width:0.23697314"
         d="m 50.742038,46.909816 q 0.407297,0 0.72573,-0.08146 0.318433,-0.08886 0.496163,-0.207352 0.177729,-0.118486 0.303621,-0.281405 0.125892,-0.162919 0.170325,-0.266595 0.04443,-0.111081 0.06665,-0.222162 h 1.688434 q -0.236973,1.192271 -1.140433,1.866163 -0.90346,0.673892 -2.317894,0.673892 -1.821731,0 -2.784434,-1.036757 -0.962703,-1.036757 -0.962703,-2.902921 0,-1.910596 0.955298,-3.036218 0.962703,-1.133028 2.717785,-1.133028 1.681028,0 2.628921,1.103406 0.955298,1.096001 0.955298,2.962164 0,0.207352 -0.01481,0.473947 h -5.568869 q 0.06665,0.918271 0.607244,1.503298 0.548,0.585027 1.473677,0.585027 z m 1.829136,-3.569407 q -0.162919,-1.577353 -1.90319,-1.577353 -0.836812,0 -1.377407,0.473946 -0.540595,0.466541 -0.585027,1.103407 z" />
    </g>
  </g>
</svg>
