<?xml version="1.0" encoding="UTF-8" standalone="no"?>
<!DOCTYPE svg PUBLIC "-//W3C//DTD SVG 1.1//EN" "http://www.w3.org/Graphics/SVG/1.1/DTD/svg11.dtd">
<svg width="100%" height="100%" viewBox="0 0 300 100" version="1.1" xmlns="http://www.w3.org/2000/svg" xmlns:xlink="http://www.w3.org/1999/xlink" xml:space="preserve" xmlns:serif="http://www.serif.com/" style="fill-rule:evenodd;clip-rule:evenodd;stroke-linejoin:round;stroke-miterlimit:2;">
    <g transform="matrix(0.790869,0,0,0.790869,-6.63903,10.2495)">
        <g transform="matrix(60.4997,0,0,60.4997,10.0868,76.3451)">
            <path d="M0.834,-0.151L0.99,-0.585C0.999,-0.611 1.006,-0.632 1.01,-0.647C1.014,-0.662 1.016,-0.676 1.016,-0.687C1.016,-0.704 1.011,-0.716 1,-0.723C0.989,-0.729 0.969,-0.732 0.941,-0.732L0.941,-0.77L1.184,-0.77L1.184,-0.732C1.153,-0.732 1.13,-0.726 1.115,-0.713C1.099,-0.7 1.086,-0.68 1.075,-0.651L0.824,0.01L0.789,0.01L0.597,-0.559L0.384,0.01L0.349,0.01L0.141,-0.564C0.129,-0.596 0.118,-0.623 0.109,-0.645C0.099,-0.666 0.089,-0.683 0.078,-0.696C0.067,-0.709 0.054,-0.718 0.04,-0.723C0.026,-0.728 0.009,-0.731 -0.011,-0.731L-0.011,-0.77L0.315,-0.77L0.315,-0.731C0.281,-0.731 0.257,-0.728 0.244,-0.722C0.23,-0.716 0.223,-0.704 0.223,-0.687C0.223,-0.678 0.224,-0.668 0.227,-0.657C0.23,-0.646 0.234,-0.632 0.239,-0.617L0.391,-0.154L0.514,-0.5C0.523,-0.526 0.533,-0.55 0.542,-0.573C0.551,-0.595 0.558,-0.615 0.563,-0.633C0.554,-0.652 0.545,-0.668 0.538,-0.681C0.53,-0.694 0.522,-0.704 0.515,-0.711C0.507,-0.718 0.499,-0.724 0.491,-0.727C0.482,-0.729 0.473,-0.731 0.464,-0.731L0.464,-0.77L0.77,-0.77L0.77,-0.731C0.751,-0.731 0.735,-0.73 0.723,-0.729C0.711,-0.728 0.702,-0.725 0.696,-0.723C0.689,-0.72 0.685,-0.715 0.683,-0.71C0.68,-0.705 0.679,-0.698 0.679,-0.691C0.679,-0.681 0.681,-0.669 0.685,-0.655C0.688,-0.64 0.693,-0.622 0.7,-0.6L0.834,-0.151Z" style="fill-rule:nonzero;"/>
        </g>
        <g transform="matrix(60.4997,0,0,60.4997,75.9105,76.3451)">
            <path d="M0.349,-0.296C0.311,-0.281 0.279,-0.267 0.253,-0.253C0.226,-0.239 0.205,-0.225 0.189,-0.211C0.173,-0.197 0.162,-0.183 0.155,-0.169C0.148,-0.155 0.144,-0.141 0.144,-0.126C0.144,-0.104 0.151,-0.086 0.166,-0.072C0.181,-0.058 0.2,-0.051 0.224,-0.051C0.241,-0.051 0.258,-0.055 0.273,-0.064C0.288,-0.073 0.301,-0.085 0.312,-0.1C0.323,-0.115 0.332,-0.132 0.339,-0.153C0.346,-0.173 0.349,-0.194 0.349,-0.217L0.349,-0.296ZM0.349,-0.339L0.349,-0.38C0.349,-0.461 0.314,-0.502 0.245,-0.502C0.234,-0.502 0.224,-0.501 0.216,-0.499C0.208,-0.497 0.201,-0.494 0.196,-0.489C0.191,-0.484 0.186,-0.478 0.182,-0.469C0.177,-0.46 0.173,-0.45 0.169,-0.437C0.162,-0.418 0.155,-0.405 0.148,-0.399C0.14,-0.392 0.13,-0.389 0.117,-0.389C0.084,-0.389 0.067,-0.406 0.067,-0.439C0.067,-0.471 0.084,-0.496 0.118,-0.514C0.152,-0.531 0.2,-0.54 0.263,-0.54C0.33,-0.54 0.377,-0.528 0.405,-0.505C0.433,-0.481 0.447,-0.441 0.447,-0.384L0.447,-0.16C0.447,-0.084 0.462,-0.046 0.492,-0.046C0.501,-0.046 0.51,-0.047 0.519,-0.05C0.528,-0.052 0.535,-0.058 0.541,-0.068L0.555,-0.044C0.547,-0.029 0.532,-0.016 0.511,-0.006C0.49,0.005 0.467,0.01 0.444,0.01C0.415,0.01 0.393,0.001 0.379,-0.018C0.364,-0.037 0.357,-0.063 0.357,-0.097L0.352,-0.097C0.335,-0.064 0.311,-0.039 0.28,-0.02C0.249,0 0.215,0.009 0.178,0.009C0.136,0.009 0.103,-0.002 0.079,-0.023C0.055,-0.044 0.043,-0.073 0.043,-0.109C0.043,-0.125 0.046,-0.14 0.052,-0.155C0.057,-0.17 0.066,-0.184 0.079,-0.197C0.092,-0.21 0.108,-0.224 0.129,-0.237C0.15,-0.25 0.175,-0.263 0.205,-0.276L0.349,-0.339Z" style="fill-rule:nonzero;"/>
        </g>
        <g transform="matrix(60.4997,0,0,60.4997,109.427,76.3451)">
            <path d="M0.04,-0.467L0.04,-0.504C0.075,-0.525 0.103,-0.545 0.123,-0.566C0.143,-0.587 0.158,-0.611 0.169,-0.64L0.198,-0.64L0.198,-0.514L0.332,-0.514L0.332,-0.467L0.198,-0.467L0.198,-0.163C0.198,-0.14 0.199,-0.12 0.202,-0.104C0.204,-0.088 0.208,-0.075 0.213,-0.066C0.218,-0.056 0.225,-0.049 0.234,-0.045C0.243,-0.041 0.254,-0.039 0.267,-0.039C0.284,-0.039 0.298,-0.043 0.31,-0.05C0.321,-0.056 0.333,-0.068 0.344,-0.085L0.369,-0.066C0.36,-0.041 0.343,-0.023 0.321,-0.01C0.298,0.004 0.269,0.01 0.235,0.01C0.191,0.01 0.158,-0.001 0.135,-0.022C0.112,-0.043 0.1,-0.073 0.1,-0.112L0.1,-0.467L0.04,-0.467Z" style="fill-rule:nonzero;"/>
        </g>
        <g transform="matrix(60.4997,0,0,60.4997,132.296,76.3451)">
            <path d="M0.522,-0.093C0.465,-0.024 0.395,0.01 0.311,0.01C0.272,0.01 0.236,0.004 0.204,-0.01C0.172,-0.023 0.145,-0.041 0.122,-0.065C0.098,-0.088 0.081,-0.117 0.068,-0.15C0.055,-0.183 0.049,-0.219 0.049,-0.259C0.049,-0.3 0.056,-0.337 0.069,-0.372C0.082,-0.407 0.101,-0.436 0.126,-0.461C0.15,-0.486 0.179,-0.505 0.213,-0.519C0.246,-0.533 0.283,-0.54 0.323,-0.54C0.388,-0.54 0.438,-0.523 0.473,-0.488C0.508,-0.452 0.526,-0.402 0.526,-0.337C0.526,-0.328 0.524,-0.322 0.521,-0.32C0.517,-0.318 0.508,-0.317 0.495,-0.317L0.166,-0.317C0.165,-0.312 0.164,-0.305 0.163,-0.298C0.162,-0.29 0.162,-0.281 0.162,-0.272C0.162,-0.237 0.166,-0.206 0.175,-0.178C0.183,-0.149 0.195,-0.125 0.211,-0.105C0.226,-0.085 0.245,-0.069 0.267,-0.059C0.288,-0.048 0.312,-0.042 0.339,-0.042C0.367,-0.042 0.393,-0.048 0.417,-0.061C0.441,-0.073 0.466,-0.093 0.491,-0.121L0.522,-0.093ZM0.357,-0.363C0.37,-0.363 0.381,-0.363 0.389,-0.364C0.397,-0.365 0.403,-0.366 0.407,-0.368C0.411,-0.37 0.414,-0.373 0.415,-0.377C0.416,-0.38 0.417,-0.385 0.417,-0.391C0.417,-0.422 0.407,-0.446 0.388,-0.465C0.368,-0.483 0.341,-0.492 0.307,-0.492C0.235,-0.492 0.19,-0.449 0.173,-0.363L0.357,-0.363Z" style="fill-rule:nonzero;"/>
        </g>
        <g transform="matrix(60.4997,0,0,60.4997,166.963,76.3451)">
            <path d="M0.222,-0.159C0.222,-0.132 0.223,-0.11 0.224,-0.094C0.225,-0.078 0.229,-0.066 0.235,-0.058C0.24,-0.049 0.248,-0.044 0.259,-0.041C0.27,-0.038 0.285,-0.036 0.304,-0.035L0.304,0L0.038,0L0.038,-0.035C0.057,-0.036 0.073,-0.038 0.084,-0.041C0.095,-0.044 0.104,-0.049 0.11,-0.057C0.116,-0.065 0.12,-0.077 0.122,-0.092C0.123,-0.107 0.124,-0.127 0.124,-0.152L0.124,-0.269C0.124,-0.314 0.124,-0.35 0.123,-0.375C0.122,-0.4 0.118,-0.419 0.113,-0.431C0.107,-0.443 0.098,-0.45 0.086,-0.453C0.074,-0.455 0.057,-0.456 0.036,-0.456L0.036,-0.491L0.211,-0.529L0.225,-0.405L0.229,-0.405C0.238,-0.425 0.249,-0.443 0.262,-0.46C0.275,-0.477 0.289,-0.491 0.304,-0.503C0.319,-0.514 0.335,-0.523 0.352,-0.53C0.369,-0.537 0.386,-0.54 0.403,-0.54C0.424,-0.54 0.441,-0.535 0.454,-0.525C0.466,-0.514 0.472,-0.5 0.472,-0.483C0.472,-0.467 0.467,-0.455 0.457,-0.446C0.447,-0.436 0.433,-0.432 0.414,-0.432C0.403,-0.432 0.394,-0.433 0.387,-0.436C0.38,-0.439 0.373,-0.442 0.368,-0.445C0.362,-0.448 0.357,-0.45 0.352,-0.453C0.347,-0.456 0.341,-0.457 0.335,-0.457C0.317,-0.457 0.299,-0.446 0.281,-0.423C0.263,-0.4 0.249,-0.37 0.239,-0.335C0.234,-0.316 0.23,-0.294 0.227,-0.27C0.224,-0.245 0.222,-0.22 0.222,-0.193L0.222,-0.159Z" style="fill-rule:nonzero;"/>
        </g>
        <g transform="matrix(60.4997,0,0,60.4997,195.821,76.3451)">
            <path d="M0.086,0L0.064,0L0.064,-0.172L0.089,-0.172C0.115,-0.078 0.162,-0.031 0.231,-0.031C0.258,-0.031 0.279,-0.038 0.295,-0.051C0.31,-0.064 0.318,-0.083 0.318,-0.11C0.318,-0.12 0.317,-0.129 0.314,-0.136C0.311,-0.142 0.305,-0.15 0.297,-0.158C0.288,-0.165 0.277,-0.174 0.262,-0.184C0.247,-0.194 0.227,-0.207 0.202,-0.222C0.179,-0.236 0.16,-0.249 0.143,-0.261C0.126,-0.273 0.112,-0.285 0.101,-0.298C0.09,-0.31 0.081,-0.323 0.076,-0.337C0.07,-0.351 0.067,-0.367 0.067,-0.386C0.067,-0.409 0.071,-0.43 0.079,-0.449C0.086,-0.468 0.097,-0.484 0.11,-0.497C0.123,-0.51 0.139,-0.521 0.157,-0.529C0.175,-0.536 0.195,-0.54 0.216,-0.54C0.234,-0.54 0.253,-0.537 0.272,-0.532C0.291,-0.526 0.308,-0.518 0.323,-0.509L0.343,-0.53L0.362,-0.53L0.362,-0.386L0.336,-0.386C0.321,-0.427 0.305,-0.456 0.288,-0.473C0.271,-0.49 0.249,-0.499 0.224,-0.499C0.201,-0.499 0.183,-0.493 0.17,-0.481C0.156,-0.469 0.149,-0.452 0.149,-0.431C0.149,-0.42 0.151,-0.41 0.155,-0.402C0.158,-0.393 0.164,-0.385 0.172,-0.377C0.18,-0.369 0.19,-0.361 0.203,-0.353C0.215,-0.344 0.23,-0.335 0.247,-0.324C0.276,-0.306 0.3,-0.29 0.321,-0.276C0.341,-0.262 0.357,-0.248 0.37,-0.235C0.383,-0.221 0.392,-0.207 0.398,-0.192C0.404,-0.177 0.407,-0.161 0.407,-0.142C0.407,-0.095 0.392,-0.058 0.361,-0.031C0.33,-0.003 0.29,0.01 0.24,0.01C0.188,0.01 0.143,-0.005 0.106,-0.035L0.086,0Z" style="fill-rule:nonzero;"/>
        </g>
        <g transform="matrix(60.4997,0,0,60.4997,223.288,76.3451)">
            <path d="M0.04,-0.467L0.04,-0.504C0.075,-0.525 0.103,-0.545 0.123,-0.566C0.143,-0.587 0.158,-0.611 0.169,-0.64L0.198,-0.64L0.198,-0.514L0.332,-0.514L0.332,-0.467L0.198,-0.467L0.198,-0.163C0.198,-0.14 0.199,-0.12 0.202,-0.104C0.204,-0.088 0.208,-0.075 0.213,-0.066C0.218,-0.056 0.225,-0.049 0.234,-0.045C0.243,-0.041 0.254,-0.039 0.267,-0.039C0.284,-0.039 0.298,-0.043 0.31,-0.05C0.321,-0.056 0.333,-0.068 0.344,-0.085L0.369,-0.066C0.36,-0.041 0.343,-0.023 0.321,-0.01C0.298,0.004 0.269,0.01 0.235,0.01C0.191,0.01 0.158,-0.001 0.135,-0.022C0.112,-0.043 0.1,-0.073 0.1,-0.112L0.1,-0.467L0.04,-0.467Z" style="fill-rule:nonzero;"/>
        </g>
        <g transform="matrix(60.4997,0,0,60.4997,246.157,76.3451)">
            <path d="M0.325,-0.54C0.363,-0.54 0.399,-0.533 0.433,-0.52C0.467,-0.506 0.497,-0.487 0.523,-0.463C0.548,-0.439 0.569,-0.411 0.584,-0.378C0.599,-0.345 0.606,-0.308 0.606,-0.269C0.606,-0.228 0.599,-0.191 0.584,-0.157C0.569,-0.123 0.548,-0.094 0.523,-0.069C0.497,-0.044 0.467,-0.025 0.433,-0.011C0.399,0.003 0.363,0.01 0.325,0.01C0.288,0.01 0.252,0.003 0.219,-0.011C0.185,-0.024 0.155,-0.043 0.13,-0.068C0.105,-0.093 0.085,-0.122 0.07,-0.157C0.055,-0.191 0.048,-0.228 0.048,-0.269C0.048,-0.308 0.055,-0.345 0.07,-0.378C0.085,-0.411 0.105,-0.44 0.13,-0.464C0.155,-0.488 0.185,-0.507 0.219,-0.52C0.252,-0.533 0.288,-0.54 0.325,-0.54ZM0.325,-0.492C0.3,-0.492 0.278,-0.487 0.258,-0.476C0.237,-0.465 0.22,-0.45 0.206,-0.431C0.191,-0.411 0.18,-0.387 0.173,-0.36C0.165,-0.332 0.161,-0.301 0.161,-0.268C0.161,-0.233 0.165,-0.202 0.173,-0.174C0.18,-0.146 0.191,-0.122 0.206,-0.103C0.22,-0.083 0.237,-0.068 0.257,-0.057C0.277,-0.046 0.3,-0.041 0.325,-0.041C0.35,-0.041 0.373,-0.046 0.394,-0.057C0.415,-0.068 0.432,-0.083 0.447,-0.103C0.462,-0.123 0.473,-0.147 0.481,-0.175C0.489,-0.203 0.493,-0.234 0.493,-0.268C0.493,-0.301 0.489,-0.332 0.481,-0.359C0.473,-0.386 0.462,-0.41 0.447,-0.43C0.432,-0.449 0.415,-0.464 0.394,-0.476C0.373,-0.487 0.35,-0.492 0.325,-0.492Z" style="fill-rule:nonzero;"/>
        </g>
        <g transform="matrix(60.4997,0,0,60.4997,285.724,76.3451)">
            <path d="M0.216,-0.157C0.216,-0.13 0.217,-0.108 0.218,-0.093C0.219,-0.077 0.223,-0.065 0.229,-0.057C0.234,-0.048 0.243,-0.043 0.254,-0.04C0.265,-0.037 0.28,-0.035 0.299,-0.034L0.299,0L0.037,0L0.037,-0.034C0.056,-0.035 0.071,-0.037 0.082,-0.04C0.093,-0.043 0.101,-0.048 0.107,-0.056C0.113,-0.064 0.117,-0.075 0.119,-0.09C0.12,-0.105 0.121,-0.125 0.121,-0.15L0.121,-0.283C0.121,-0.362 0.119,-0.411 0.115,-0.428C0.113,-0.437 0.111,-0.444 0.108,-0.45C0.105,-0.455 0.1,-0.46 0.094,-0.463C0.088,-0.466 0.08,-0.468 0.071,-0.469C0.062,-0.47 0.05,-0.47 0.035,-0.47L0.035,-0.502L0.195,-0.54L0.207,-0.441L0.211,-0.441C0.236,-0.472 0.266,-0.497 0.3,-0.514C0.334,-0.531 0.371,-0.54 0.411,-0.54C0.442,-0.54 0.47,-0.535 0.495,-0.525C0.52,-0.515 0.54,-0.501 0.553,-0.484C0.564,-0.469 0.572,-0.449 0.577,-0.425C0.582,-0.4 0.584,-0.367 0.584,-0.324L0.584,-0.157C0.584,-0.13 0.585,-0.108 0.587,-0.093C0.588,-0.077 0.592,-0.065 0.597,-0.057C0.602,-0.048 0.611,-0.043 0.622,-0.04C0.632,-0.037 0.647,-0.035 0.665,-0.034L0.665,0L0.406,0L0.406,-0.034C0.425,-0.035 0.44,-0.037 0.451,-0.04C0.462,-0.043 0.47,-0.048 0.476,-0.056C0.481,-0.064 0.485,-0.076 0.487,-0.091C0.488,-0.106 0.489,-0.125 0.489,-0.15L0.489,-0.282C0.489,-0.32 0.487,-0.352 0.483,-0.378C0.479,-0.404 0.472,-0.425 0.464,-0.441C0.455,-0.457 0.443,-0.468 0.428,-0.476C0.413,-0.483 0.396,-0.486 0.375,-0.486C0.345,-0.486 0.318,-0.478 0.293,-0.463C0.268,-0.447 0.248,-0.425 0.234,-0.398C0.231,-0.391 0.228,-0.385 0.226,-0.379C0.223,-0.373 0.221,-0.366 0.22,-0.358C0.219,-0.35 0.218,-0.341 0.217,-0.331C0.216,-0.32 0.216,-0.307 0.216,-0.291L0.216,-0.157Z" style="fill-rule:nonzero;"/>
        </g>
        <g transform="matrix(60.4997,0,0,60.4997,327.408,76.3451)">
            <path d="M0.522,-0.093C0.465,-0.024 0.395,0.01 0.311,0.01C0.272,0.01 0.236,0.004 0.204,-0.01C0.172,-0.023 0.145,-0.041 0.122,-0.065C0.098,-0.088 0.081,-0.117 0.068,-0.15C0.055,-0.183 0.049,-0.219 0.049,-0.259C0.049,-0.3 0.056,-0.337 0.069,-0.372C0.082,-0.407 0.101,-0.436 0.126,-0.461C0.15,-0.486 0.179,-0.505 0.213,-0.519C0.246,-0.533 0.283,-0.54 0.323,-0.54C0.388,-0.54 0.438,-0.523 0.473,-0.488C0.508,-0.452 0.526,-0.402 0.526,-0.337C0.526,-0.328 0.524,-0.322 0.521,-0.32C0.517,-0.318 0.508,-0.317 0.495,-0.317L0.166,-0.317C0.165,-0.312 0.164,-0.305 0.163,-0.298C0.162,-0.29 0.162,-0.281 0.162,-0.272C0.162,-0.237 0.166,-0.206 0.175,-0.178C0.183,-0.149 0.195,-0.125 0.211,-0.105C0.226,-0.085 0.245,-0.069 0.267,-0.059C0.288,-0.048 0.312,-0.042 0.339,-0.042C0.367,-0.042 0.393,-0.048 0.417,-0.061C0.441,-0.073 0.466,-0.093 0.491,-0.121L0.522,-0.093ZM0.357,-0.363C0.37,-0.363 0.381,-0.363 0.389,-0.364C0.397,-0.365 0.403,-0.366 0.407,-0.368C0.411,-0.37 0.414,-0.373 0.415,-0.377C0.416,-0.38 0.417,-0.385 0.417,-0.391C0.417,-0.422 0.407,-0.446 0.388,-0.465C0.368,-0.483 0.341,-0.492 0.307,-0.492C0.235,-0.492 0.19,-0.449 0.173,-0.363L0.357,-0.363Z" style="fill-rule:nonzero;"/>
        </g>
        <g transform="matrix(60.4997,0,0,60.4997,362.074,76.3451)">
            <path d="M0.086,0L0.064,0L0.064,-0.172L0.089,-0.172C0.115,-0.078 0.162,-0.031 0.231,-0.031C0.258,-0.031 0.279,-0.038 0.295,-0.051C0.31,-0.064 0.318,-0.083 0.318,-0.11C0.318,-0.12 0.317,-0.129 0.314,-0.136C0.311,-0.142 0.305,-0.15 0.297,-0.158C0.288,-0.165 0.277,-0.174 0.262,-0.184C0.247,-0.194 0.227,-0.207 0.202,-0.222C0.179,-0.236 0.16,-0.249 0.143,-0.261C0.126,-0.273 0.112,-0.285 0.101,-0.298C0.09,-0.31 0.081,-0.323 0.076,-0.337C0.07,-0.351 0.067,-0.367 0.067,-0.386C0.067,-0.409 0.071,-0.43 0.079,-0.449C0.086,-0.468 0.097,-0.484 0.11,-0.497C0.123,-0.51 0.139,-0.521 0.157,-0.529C0.175,-0.536 0.195,-0.54 0.216,-0.54C0.234,-0.54 0.253,-0.537 0.272,-0.532C0.291,-0.526 0.308,-0.518 0.323,-0.509L0.343,-0.53L0.362,-0.53L0.362,-0.386L0.336,-0.386C0.321,-0.427 0.305,-0.456 0.288,-0.473C0.271,-0.49 0.249,-0.499 0.224,-0.499C0.201,-0.499 0.183,-0.493 0.17,-0.481C0.156,-0.469 0.149,-0.452 0.149,-0.431C0.149,-0.42 0.151,-0.41 0.155,-0.402C0.158,-0.393 0.164,-0.385 0.172,-0.377C0.18,-0.369 0.19,-0.361 0.203,-0.353C0.215,-0.344 0.23,-0.335 0.247,-0.324C0.276,-0.306 0.3,-0.29 0.321,-0.276C0.341,-0.262 0.357,-0.248 0.37,-0.235C0.383,-0.221 0.392,-0.207 0.398,-0.192C0.404,-0.177 0.407,-0.161 0.407,-0.142C0.407,-0.095 0.392,-0.058 0.361,-0.031C0.33,-0.003 0.29,0.01 0.24,0.01C0.188,0.01 0.143,-0.005 0.106,-0.035L0.086,0Z" style="fill-rule:nonzero;"/>
        </g>
    </g>
</svg>
