<?xml version="1.0" encoding="UTF-8" standalone="no"?>
<!DOCTYPE svg PUBLIC "-//W3C//DTD SVG 1.1//EN" "http://www.w3.org/Graphics/SVG/1.1/DTD/svg11.dtd">
<svg width="100%" height="100%" viewBox="0 0 300 100" version="1.1" xmlns="http://www.w3.org/2000/svg" xmlns:xlink="http://www.w3.org/1999/xlink" xml:space="preserve" xmlns:serif="http://www.serif.com/" style="fill-rule:evenodd;clip-rule:evenodd;stroke-linejoin:round;stroke-miterlimit:2;">
    <g id="logo" transform="matrix(4.10296,0,0,4.10296,2.49852,12.8682)">
        <rect x="67.3" y="13.2" width="1.6" height="1.6" style="fill:rgb(193,2,48);fill-rule:nonzero;"/>
        <path d="M35.3,10L29.2,10L29.2,7.2L35.3,7.2L35.3,10ZM27.2,3.6L27.2,14.6L36.4,14.6L36.4,17.4L23.8,17.4L23.8,0.8L36,0.8L36,3.6L27.2,3.6ZM15.7,12.7C16.9,8.7 17.8,4.7 18.2,0.8L21.7,0.8C20.7,6.4 19.2,11.9 17.3,17.4L13.7,17.4L11.1,5.4L8.5,17.4L4.9,17.4C3.1,11.8 1.6,6.3 0.5,0.8L4.1,0.8C4.7,4.7 5.6,8.7 6.7,12.6L9.3,0.8L13.1,0.8L15.7,12.7ZM47.6,7.7C49.9,8.4 51.9,9.3 51.9,12.6C51.9,17.3 47.9,17.7 45.4,17.7C40,17.7 38.5,15.5 38.3,12.1L41.7,12.1C41.9,13.9 42.1,14.8 45.4,14.8C47.1,14.8 48.4,14.6 48.4,12.9C48.4,11.8 48,11.3 46.5,10.9L42.5,9.8C40.5,9.3 38.7,8.3 38.7,5.3C38.7,2.9 39.8,0.4 44.9,0.4C49.8,0.4 51.3,2.6 51.4,5.6L48,5.6C47.8,4.2 47.8,3.3 44.8,3.3C43.1,3.3 42.2,3.6 42.2,4.9C42.2,6.1 42.9,6.4 43.9,6.7L47.6,7.7ZM52.8,0.8L66.2,0.8L66.2,3.7L61.2,3.7L61.2,17.4L57.8,17.4L57.8,3.7L52.8,3.7L52.8,0.8ZM64.8,10.7L71.4,10.7L71.4,17.3L64.8,17.3L64.8,10.7ZM70,16L70,12.1L66.1,12.1L66.1,16L70,16Z" style="fill:rgb(0,27,98);fill-rule:nonzero;"/>
    </g>
</svg>
