<?xml version="1.0" encoding="UTF-8" standalone="no"?>
<!DOCTYPE svg PUBLIC "-//W3C//DTD SVG 1.1//EN" "http://www.w3.org/Graphics/SVG/1.1/DTD/svg11.dtd">
<svg width="100%" height="100%" viewBox="0 0 300 100" version="1.1" xmlns="http://www.w3.org/2000/svg" xmlns:xlink="http://www.w3.org/1999/xlink" xml:space="preserve" xmlns:serif="http://www.serif.com/" style="fill-rule:evenodd;clip-rule:evenodd;stroke-linejoin:round;stroke-miterlimit:2;">
    <g transform="matrix(-1,0,0,1,355.718,0)">
        <path d="M177.859,1.398L164.861,51.103L177.859,61.467L177.859,1.398" style="fill:rgb(158,192,41);"/>
    </g>
    <rect x="6.055" y="67.269" width="286.889" height="2.449" style="fill:rgb(158,192,41);"/>
    <path d="M245.006,98.602L241.022,98.602L241.022,94.986C237.204,94.151 234.355,90.917 234.355,87.059C234.355,82.568 238.215,78.923 242.97,78.923C247.724,78.923 251.584,82.568 251.584,87.059C251.584,90.887 248.779,94.101 245.006,94.966L245.006,98.602ZM272.768,78.923L272.768,89.084C272.768,90.881 272.054,92.605 270.783,93.876C269.512,95.146 267.789,95.86 265.992,95.86C265.991,95.86 265.991,95.86 265.991,95.86C264.194,95.86 262.47,95.146 261.199,93.876C259.929,92.605 259.215,90.881 259.215,89.084L259.215,78.923L262.567,78.923L262.567,88.443C262.567,89.342 262.924,90.205 263.561,90.841C264.197,91.477 265.059,91.835 265.959,91.835C265.96,91.835 265.96,91.835 265.961,91.835C266.861,91.835 267.723,91.477 268.36,90.841C268.996,90.205 269.353,89.342 269.353,88.443L269.353,78.923L272.768,78.923ZM218.706,95.195L215.328,95.195L215.328,78.923L223.32,78.923L223.32,79.053C226.681,79.726 227.527,82.785 227.517,84.292C227.5,86.923 226.73,88.3 224.728,88.839L224.728,89.115L228.012,95.195L223.901,95.195L220.98,89.786L218.706,89.786L218.706,95.195ZM171.415,95.195L167.579,95.195L167.579,78.923L171.415,78.923L175.842,86.374L180.269,78.923L184.303,78.923L184.303,95.195L180.269,95.195L180.269,84.384L176.249,91.419L175.436,91.419L171.415,84.384L171.415,95.195ZM207.969,95.195L203.74,95.195L202.809,92.52L196.31,92.52L195.379,95.195L191.15,95.195L197.219,78.923L201.9,78.923L207.969,95.195ZM242.97,82.268C245.769,82.268 248.042,84.415 248.042,87.059C248.042,89.703 245.769,91.85 242.97,91.85C240.17,91.85 237.897,89.703 237.897,87.059C237.897,84.415 240.17,82.268 242.97,82.268ZM197.496,89.115L201.623,89.115L199.559,83.19L197.496,89.115ZM218.706,87.059L222.09,87.059C224.333,87.026 224.788,82.377 222.107,82.368L218.706,82.368L218.706,87.059ZM284.833,85.738L290.311,85.738L290.311,88.465L284.833,88.465L284.833,91.835L292.945,91.835L292.945,95.195L280.803,95.195L280.803,78.923L292.945,78.923L292.945,82.368L284.833,82.368L284.833,85.738ZM177.859,1.398L164.861,51.103L177.859,61.467L177.859,1.398ZM118.999,56.845L106.723,56.845L106.723,7.295L118.999,7.295L144.555,36.626L144.555,7.295L156.668,7.295L156.668,56.845L145.468,56.845L145.467,56.95L144.555,56.95L118.999,27.619L118.999,56.845ZM98.872,56.845L62.191,56.845L62.191,7.295L98.872,7.295L98.872,18.683L74.652,18.683L74.652,27.619L96.734,27.619L96.734,36.626L74.652,36.626L74.652,45.527L98.872,45.527L98.872,56.845ZM259.738,56.845L247.758,56.845L247.758,7.295L259.738,7.295L259.738,27.619L280.696,27.619L280.696,7.295L292.945,7.295L292.945,56.845L280.696,56.845L280.696,36.626L259.738,36.626L259.738,56.845ZM54.185,56.845L6.055,56.845L30.42,18.683L8.058,18.683L8.058,7.295L54.185,7.295L29.984,45.527L54.185,45.527L54.185,56.845ZM222.108,56.845L210.023,56.845L210.023,18.683L191.74,18.683L191.74,7.295L240.035,7.295L240.035,18.683L222.108,18.683L222.108,56.845Z" style="fill:rgb(44,38,92);"/>
</svg>
