<?xml version="1.0" encoding="UTF-8" standalone="no"?>
<svg
   xmlns:dc="http://purl.org/dc/elements/1.1/"
   xmlns:cc="http://creativecommons.org/ns#"
   xmlns:rdf="http://www.w3.org/1999/02/22-rdf-syntax-ns#"
   xmlns:svg="http://www.w3.org/2000/svg"
   xmlns="http://www.w3.org/2000/svg"
   xmlns:sodipodi="http://sodipodi.sourceforge.net/DTD/sodipodi-0.dtd"
   xmlns:inkscape="http://www.inkscape.org/namespaces/inkscape"
   width="70.470978mm"
   height="70.470978mm"
   viewBox="0 0 70.470978 70.470978"
   version="1.1"
   id="svg1427"
   sodipodi:docname="average-sensor.svg"
   inkscape:version="0.92.5 (2060ec1f9f, 2020-04-08)">
  <sodipodi:namedview
     pagecolor="#ffffff"
     bordercolor="#666666"
     borderopacity="1"
     objecttolerance="10"
     gridtolerance="10"
     guidetolerance="10"
     inkscape:pageopacity="0"
     inkscape:pageshadow="2"
     inkscape:window-width="1106"
     inkscape:window-height="546"
     id="namedview2813"
     showgrid="false"
     inkscape:zoom="0.88606216"
     inkscape:cx="133.1735"
     inkscape:cy="133.1735"
     inkscape:window-x="80"
     inkscape:window-y="54"
     inkscape:window-maximized="0"
     inkscape:current-layer="svg1427" />
  <defs
     id="defs1421" />
  <metadata
     id="metadata1424">
    <rdf:RDF>
      <cc:Work
         rdf:about="">
        <dc:format>image/svg+xml</dc:format>
        <dc:type
           rdf:resource="http://purl.org/dc/dcmitype/StillImage" />
        <dc:title />
      </cc:Work>
    </rdf:RDF>
  </metadata>
  <g
     id="layer1"
     transform="translate(-6.9212569,-95.497035)">
    <g
       id="g2454"
       transform="translate(28.988079,11.780086)">
      <g
         style="font-style:normal;font-variant:normal;font-weight:normal;font-stretch:normal;font-size:7.05555534px;line-height:1.25;font-family:'Open Sans';-inkscape-font-specification:'Open Sans';letter-spacing:0px;word-spacing:0px;fill:#000000;fill-opacity:1;stroke:none;stroke-width:0.07000434"
         id="text897" />
      <g
         transform="translate(2.1517545e-7,-6.7159213)"
         id="g1023">
        <g
           aria-label="a0 + a1 + a2 ... "
           style="font-style:normal;font-variant:normal;font-weight:bold;font-stretch:normal;font-size:7.05555534px;line-height:1.25;font-family:'Chopin Script';-inkscape-font-specification:'Chopin Script Bold';letter-spacing:0px;word-spacing:0px;fill:#000000;fill-opacity:1;stroke:none;stroke-width:0.07000434"
           id="text901">
          <path
             d="m -11.548083,121.16418 -0.226688,-0.74277 h -0.03859 q -0.38585,0.48714 -0.776524,0.6656 -0.390674,0.17363 -1.003212,0.17363 -0.786171,0 -1.229899,-0.42444 -0.438905,-0.42443 -0.438905,-1.20096 0,-0.82475 0.612538,-1.24436 0.612538,-0.41962 1.866552,-0.4582 l 0.921219,-0.0289 v -0.28457 q 0,-0.51125 -0.241157,-0.76205 -0.236333,-0.25563 -0.737939,-0.25563 -0.409967,0 -0.786171,0.12058 -0.376204,0.12058 -0.72347,0.28457 l -0.366558,-0.81029 q 0.434082,-0.22669 0.950157,-0.34244 0.516075,-0.12058 0.974273,-0.12058 1.017681,0 1.533757,0.44373 0.520898,0.44373 0.520898,1.39388 v 3.59324 z m -1.688097,-0.7717 q 0.617361,0 0.988742,-0.34245 0.376205,-0.34726 0.376205,-0.96945 v -0.46302 l -0.684885,0.0289 q -0.80064,0.0289 -1.167199,0.2701 -0.361735,0.23633 -0.361735,0.72829 0,0.35691 0.212218,0.55466 0.212218,0.19293 0.636654,0.19293 z"
             style="font-size:9.8777771px"
             id="path3359" />
          <path
             d="m -7.5453999,120.93835 q 0,0.85318 -0.2754353,1.26745 -0.273196,0.41427 -0.8375026,0.41427 -0.5463921,0 -0.8285454,-0.4277 -0.2821533,-0.42771 -0.2821533,-1.25402 0,-0.86661 0.2731961,-1.27641 0.2754353,-0.41203 0.8375026,-0.41203 0.5486314,0 0.8307847,0.42995 0.2821532,0.42995 0.2821532,1.25849 z m -1.6906804,0 q 0,0.66956 0.136598,0.95619 0.1388374,0.28663 0.4411445,0.28663 0.3023071,0 0.4411444,-0.29111 0.1410766,-0.29111 0.1410766,-0.95171 0,-0.65836 -0.1410766,-0.95171 -0.1388373,-0.29559 -0.4411444,-0.29559 -0.3023071,0 -0.4411445,0.28888 -0.136598,0.28887 -0.136598,0.95842 z"
             style="font-size:64.99999762%;baseline-shift:sub"
             id="path3361" />
          <path
             d="m -2.3998056,118.11113 h -1.9196071 v -0.85851 h 1.9196071 v -1.96784 h 0.868164 v 1.96784 h 1.92443017 v 0.85851 H -1.5316416 v 1.9582 h -0.868164 z"
             style="font-size:9.8777771px"
             id="path3363" />
          <path
             d="M 7.5696114,121.16418 7.3429241,120.42141 H 7.304339 q -0.3858506,0.48714 -0.7765244,0.6656 -0.3906738,0.17363 -1.0032118,0.17363 -0.7861707,0 -1.229899,-0.42444 -0.4389051,-0.42443 -0.4389051,-1.20096 0,-0.82475 0.6125379,-1.24436 0.612538,-0.41962 1.8665526,-0.4582 l 0.9212185,-0.0289 v -0.28457 q 0,-0.51125 -0.2411567,-0.76205 -0.2363335,-0.25563 -0.7379394,-0.25563 -0.4099663,0 -0.7861707,0.12058 -0.3762044,0.12058 -0.72347,0.28457 l -0.3665581,-0.81029 q 0.434082,-0.22669 0.9501572,-0.34244 0.5160753,-0.12058 0.974273,-0.12058 1.0176811,0 1.5337564,0.44373 0.5208984,0.44373 0.5208984,1.39388 v 3.59324 z m -1.6880967,-0.7717 q 0.6173611,0 0.9887423,-0.34245 0.3762044,-0.34726 0.3762044,-0.96945 v -0.46302 l -0.6848849,0.0289 q -0.8006401,0.0289 -1.1671983,0.2701 -0.361735,0.23633 -0.361735,0.72829 0,0.35691 0.2122179,0.55466 0.2122179,0.19293 0.6366536,0.19293 z"
             style="font-size:9.8777771px"
             id="path3365" />
          <path
             d="m 10.898261,122.57529 h -0.526238 v -2.11391 q 0,-0.37845 0.01791,-0.60014 -0.0515,0.0538 -0.12764,0.11869 -0.0739,0.0649 -0.5016062,0.41203 l -0.2642388,-0.33366 0.962904,-0.75689 h 0.438905 z"
             style="font-size:64.99999762%;baseline-shift:sub"
             id="path3367" />
          <path
             d="m 16.717888,118.11113 h -1.919607 v -0.85851 h 1.919607 v -1.96784 h 0.868164 v 1.96784 h 1.92443 v 0.85851 h -1.92443 v 1.9582 h -0.868164 z"
             style="font-size:9.8777771px"
             id="path3369" />
          <path
             d="m 26.687306,121.16418 -0.226687,-0.74277 h -0.03859 q -0.385851,0.48714 -0.776525,0.6656 -0.390673,0.17363 -1.003211,0.17363 -0.786171,0 -1.229899,-0.42444 -0.438905,-0.42443 -0.438905,-1.20096 0,-0.82475 0.612537,-1.24436 0.612538,-0.41962 1.866553,-0.4582 l 0.921219,-0.0289 v -0.28457 q 0,-0.51125 -0.241157,-0.76205 -0.236334,-0.25563 -0.73794,-0.25563 -0.409966,0 -0.78617,0.12058 -0.376205,0.12058 -0.72347,0.28457 l -0.366558,-0.81029 q 0.434082,-0.22669 0.950157,-0.34244 0.516075,-0.12058 0.974273,-0.12058 1.017681,0 1.533756,0.44373 0.520899,0.44373 0.520899,1.39388 v 3.59324 z m -1.688096,-0.7717 q 0.617361,0 0.988742,-0.34245 0.376204,-0.34726 0.376204,-0.96945 v -0.46302 l -0.684885,0.0289 q -0.80064,0.0289 -1.167198,0.2701 -0.361735,0.23633 -0.361735,0.72829 0,0.35691 0.212218,0.55466 0.212218,0.19293 0.636654,0.19293 z"
             style="font-size:9.8777771px"
             id="path3371" />
          <path
             d="m 30.689989,122.57529 h -2.219158 v -0.3986 l 0.84422,-0.8487 q 0.373966,-0.38292 0.494888,-0.54191 0.123163,-0.16123 0.179145,-0.30231 0.05598,-0.14108 0.05598,-0.30231 0,-0.22169 -0.134359,-0.34933 -0.132119,-0.12764 -0.367247,-0.12764 -0.188102,0 -0.365008,0.0694 -0.174666,0.0694 -0.405315,0.2508 l -0.284393,-0.34709 q 0.273196,-0.23065 0.530717,-0.32694 0.257521,-0.0963 0.548632,-0.0963 0.456819,0 0.732255,0.23961 0.275435,0.23736 0.275435,0.64044 0,0.22169 -0.08061,0.42099 -0.07838,0.1993 -0.244085,0.41203 -0.16347,0.2105 -0.546392,0.57103 l -0.568785,0.55087 v 0.0224 h 1.554082 z"
             style="font-size:64.99999762%;baseline-shift:sub"
             id="path3373" />
          <path
             d="m 34.094432,120.56129 q 0,-0.35209 0.183279,-0.5402 0.183279,-0.1881 0.530545,-0.1881 0.352088,0 0.535368,0.19775 0.183279,0.19293 0.183279,0.53055 0,0.34244 -0.188103,0.54501 -0.183279,0.19775 -0.530544,0.19775 -0.347266,0 -0.530545,-0.19775 -0.183279,-0.19775 -0.183279,-0.54501 z"
             style="font-size:9.8777771px"
             id="path3375" />
          <path
             d="m 36.809856,120.56129 q 0,-0.35209 0.183279,-0.5402 0.183279,-0.1881 0.530544,-0.1881 0.352089,0 0.535368,0.19775 0.183279,0.19293 0.183279,0.53055 0,0.34244 -0.188102,0.54501 -0.183279,0.19775 -0.530545,0.19775 -0.347265,0 -0.530544,-0.19775 -0.183279,-0.19775 -0.183279,-0.54501 z"
             style="font-size:9.8777771px"
             id="path3377" />
          <path
             d="m 39.525279,120.56129 q 0,-0.35209 0.183279,-0.5402 0.183279,-0.1881 0.530545,-0.1881 0.352089,0 0.535368,0.19775 0.183279,0.19293 0.183279,0.53055 0,0.34244 -0.188102,0.54501 -0.18328,0.19775 -0.530545,0.19775 -0.347266,0 -0.530545,-0.19775 -0.183279,-0.19775 -0.183279,-0.54501 z"
             style="font-size:9.8777771px"
             id="path3379" />
        </g>
        <path
           style="fill:none;stroke:#000000;stroke-width:0.52916664;stroke-linecap:butt;stroke-linejoin:miter;stroke-miterlimit:4;stroke-dasharray:none;stroke-opacity:1"
           d="M -17.780751,125.10159 H 44.118081"
           id="path969" />
        <g
           aria-label="n(a)"
           style="font-style:normal;font-variant:normal;font-weight:bold;font-stretch:normal;font-size:7.05555487px;line-height:1.25;font-family:'Chopin Script';-inkscape-font-specification:'Chopin Script Bold';letter-spacing:0px;word-spacing:0px;fill:#000000;fill-opacity:1;stroke:none;stroke-width:0.07000434"
           id="text901-3">
          <path
             d="M 9.3342742,134.48924 H 8.1960147 v -3.27973 q 0,-0.61736 -0.2508029,-0.92122 -0.2459798,-0.30385 -0.7861708,-0.30385 -0.7186469,0 -1.0514431,0.42443 -0.3327962,0.42444 -0.3327962,1.42283 v 2.65754 H 4.6413654 v -5.33438 h 0.8874565 l 0.1591634,0.69935 h 0.057878 q 0.2411567,-0.38103 0.684885,-0.58842 0.4437282,-0.2074 0.9839192,-0.2074 1.9196071,0 1.9196071,1.95337 z"
             style="font-size:9.8777771px;stroke-width:0.07000434"
             id="path3382" />
          <path
             d="m 10.496649,131.78346 q 0,-1.27813 0.371382,-2.39227 0.376204,-1.11414 1.080381,-1.95337 h 0.988743 q -0.670416,0.90675 -1.027328,2.03536 -0.356911,1.12379 -0.356911,2.30064 0,1.17684 0.356911,2.28134 0.356912,1.1045 1.017682,1.99678 h -0.979097 q -0.709,-0.81993 -1.080381,-1.91479 -0.371382,-1.09485 -0.371382,-2.35369 z"
             style="font-size:9.8777771px;stroke-width:0.07000434"
             id="path3384" />
          <path
             d="m 17.37926,134.48924 -0.226687,-0.74276 h -0.03859 q -0.385851,0.48714 -0.776524,0.66559 -0.390674,0.17364 -1.003212,0.17364 -0.786171,0 -1.229899,-0.42444 -0.438905,-0.42444 -0.438905,-1.20096 0,-0.82476 0.612538,-1.24437 0.612538,-0.41961 1.866552,-0.4582 l 0.921219,-0.0289 v -0.28456 q 0,-0.51125 -0.241157,-0.76206 -0.236334,-0.25562 -0.737939,-0.25562 -0.409967,0 -0.786171,0.12058 -0.376205,0.12058 -0.72347,0.28456 l -0.366558,-0.81028 q 0.434082,-0.22669 0.950157,-0.34245 0.516075,-0.12058 0.974273,-0.12058 1.017681,0 1.533756,0.44373 0.520899,0.44373 0.520899,1.39389 v 3.59323 z m -1.688096,-0.7717 q 0.617361,0 0.988742,-0.34244 0.376204,-0.34727 0.376204,-0.96945 v -0.46302 l -0.684885,0.0289 q -0.80064,0.0289 -1.167198,0.27009 -0.361735,0.23634 -0.361735,0.7283 0,0.35691 0.212218,0.55466 0.212218,0.19292 0.636654,0.19292 z"
             style="font-size:9.8777771px;stroke-width:0.07000434"
             id="path3386" />
          <path
             d="m 21.695965,131.78346 q 0,1.26849 -0.376205,2.36334 -0.371381,1.09485 -1.075559,1.90514 h -0.979096 q 0.665593,-0.90193 1.017681,-2.0016 0.356912,-1.09968 0.356912,-2.27652 0,-1.18167 -0.356912,-2.30064 -0.356911,-1.12379 -1.027327,-2.03536 h 0.988742 q 0.709001,0.84405 1.080382,1.96302 0.371382,1.11414 0.371382,2.38262 z"
             style="font-size:9.8777771px;stroke-width:0.07000434"
             id="path3388" />
        </g>
      </g>
    </g>
  </g>
</svg>
