<?xml version="1.0" encoding="UTF-8" standalone="no"?>
<svg
   xmlns:dc="http://purl.org/dc/elements/1.1/"
   xmlns:cc="http://creativecommons.org/ns#"
   xmlns:rdf="http://www.w3.org/1999/02/22-rdf-syntax-ns#"
   xmlns:svg="http://www.w3.org/2000/svg"
   xmlns="http://www.w3.org/2000/svg"
   xmlns:sodipodi="http://sodipodi.sourceforge.net/DTD/sodipodi-0.dtd"
   xmlns:inkscape="http://www.inkscape.org/namespaces/inkscape"
   id="svg1427"
   version="1.1"
   viewBox="0 0 70.470978 70.470978"
   height="70.470978mm"
   width="70.470978mm"
   sodipodi:docname="combination-sensor-monitoring.svg"
   inkscape:version="0.92.5 (2060ec1f9f, 2020-04-08)">
  <sodipodi:namedview
     pagecolor="#ffffff"
     bordercolor="#666666"
     borderopacity="1"
     objecttolerance="10"
     gridtolerance="10"
     guidetolerance="10"
     inkscape:pageopacity="0"
     inkscape:pageshadow="2"
     inkscape:window-width="2800"
     inkscape:window-height="1672"
     id="namedview51"
     showgrid="false"
     inkscape:zoom="4.7574603"
     inkscape:cx="98.601787"
     inkscape:cy="137.57488"
     inkscape:window-x="80"
     inkscape:window-y="54"
     inkscape:window-maximized="1"
     inkscape:current-layer="g2454" />
  <defs
     id="defs1421" />
  <metadata
     id="metadata1424">
    <rdf:RDF>
      <cc:Work
         rdf:about="">
        <dc:format>image/svg+xml</dc:format>
        <dc:type
           rdf:resource="http://purl.org/dc/dcmitype/StillImage" />
        <dc:title />
      </cc:Work>
    </rdf:RDF>
  </metadata>
  <g
     transform="translate(-6.9212569,-95.497035)"
     id="layer1">
    <g
       transform="translate(28.988079,11.780086)"
       id="g2454">
      <g
         style="font-style:normal;font-variant:normal;font-weight:normal;font-stretch:normal;font-size:7.05555534px;line-height:1.25;font-family:'Open Sans';-inkscape-font-specification:'Open Sans';letter-spacing:0px;word-spacing:0px;fill:#000000;fill-opacity:1;stroke:none;stroke-width:0.07000434"
         id="text897" />
      <g
         aria-label="a0 + a1 + a2 ... "
         style="font-style:normal;font-variant:normal;font-weight:bold;font-stretch:normal;font-size:7.05555534px;line-height:1.25;font-family:'Chopin Script';-inkscape-font-specification:'Chopin Script Bold';letter-spacing:0px;word-spacing:0px;fill:#000000;fill-opacity:1;stroke:none;stroke-width:0.07000434"
         id="text901">
        <path
           d="m -11.548083,121.16418 -0.226688,-0.74277 h -0.03859 q -0.38585,0.48714 -0.776524,0.6656 -0.390674,0.17363 -1.003212,0.17363 -0.786171,0 -1.229899,-0.42444 -0.438905,-0.42443 -0.438905,-1.20096 0,-0.82475 0.612538,-1.24436 0.612538,-0.41962 1.866552,-0.4582 l 0.921219,-0.0289 v -0.28457 q 0,-0.51125 -0.241157,-0.76205 -0.236333,-0.25563 -0.737939,-0.25563 -0.409967,0 -0.786171,0.12058 -0.376204,0.12058 -0.72347,0.28457 l -0.366558,-0.81029 q 0.434082,-0.22669 0.950157,-0.34244 0.516075,-0.12058 0.974273,-0.12058 1.017681,0 1.533757,0.44373 0.520898,0.44373 0.520898,1.39388 v 3.59324 z m -1.688097,-0.7717 q 0.617361,0 0.988742,-0.34245 0.376205,-0.34726 0.376205,-0.96945 v -0.46302 l -0.684885,0.0289 q -0.80064,0.0289 -1.167199,0.2701 -0.361735,0.23633 -0.361735,0.72829 0,0.35691 0.212218,0.55466 0.212218,0.19293 0.636654,0.19293 z"
           style="font-size:9.8777771px"
           id="path3952" />
        <path
           d="m -7.5453999,120.93835 q 0,0.85318 -0.2754353,1.26745 -0.273196,0.41427 -0.8375026,0.41427 -0.5463921,0 -0.8285454,-0.4277 -0.2821533,-0.42771 -0.2821533,-1.25402 0,-0.86661 0.2731961,-1.27641 0.2754353,-0.41203 0.8375026,-0.41203 0.5486314,0 0.8307847,0.42995 0.2821532,0.42995 0.2821532,1.25849 z m -1.6906804,0 q 0,0.66956 0.136598,0.95619 0.1388374,0.28663 0.4411445,0.28663 0.3023071,0 0.4411444,-0.29111 0.1410766,-0.29111 0.1410766,-0.95171 0,-0.65836 -0.1410766,-0.95171 -0.1388373,-0.29559 -0.4411444,-0.29559 -0.3023071,0 -0.4411445,0.28888 -0.136598,0.28887 -0.136598,0.95842 z"
           style="font-size:64.99999762%;baseline-shift:sub"
           id="path3954" />
        <path
           d="m -2.3998056,118.11113 h -1.9196071 v -0.85851 h 1.9196071 v -1.96784 h 0.868164 v 1.96784 h 1.92443017 v 0.85851 H -1.5316416 v 1.9582 h -0.868164 z"
           style="font-size:9.8777771px"
           id="path3956" />
        <path
           d="M 7.5696114,121.16418 7.3429241,120.42141 H 7.304339 q -0.3858506,0.48714 -0.7765244,0.6656 -0.3906738,0.17363 -1.0032118,0.17363 -0.7861707,0 -1.229899,-0.42444 -0.4389051,-0.42443 -0.4389051,-1.20096 0,-0.82475 0.6125379,-1.24436 0.612538,-0.41962 1.8665526,-0.4582 l 0.9212185,-0.0289 v -0.28457 q 0,-0.51125 -0.2411567,-0.76205 -0.2363335,-0.25563 -0.7379394,-0.25563 -0.4099663,0 -0.7861707,0.12058 -0.3762044,0.12058 -0.72347,0.28457 l -0.3665581,-0.81029 q 0.434082,-0.22669 0.9501572,-0.34244 0.5160753,-0.12058 0.974273,-0.12058 1.0176811,0 1.5337564,0.44373 0.5208984,0.44373 0.5208984,1.39388 v 3.59324 z m -1.6880967,-0.7717 q 0.6173611,0 0.9887423,-0.34245 0.3762044,-0.34726 0.3762044,-0.96945 v -0.46302 l -0.6848849,0.0289 q -0.8006401,0.0289 -1.1671983,0.2701 -0.361735,0.23633 -0.361735,0.72829 0,0.35691 0.2122179,0.55466 0.2122179,0.19293 0.6366536,0.19293 z"
           style="font-size:9.8777771px"
           id="path3958" />
        <path
           d="m 10.898261,122.57529 h -0.526238 v -2.11391 q 0,-0.37845 0.01791,-0.60014 -0.0515,0.0538 -0.12764,0.11869 -0.0739,0.0649 -0.5016062,0.41203 l -0.2642388,-0.33366 0.962904,-0.75689 h 0.438905 z"
           style="font-size:64.99999762%;baseline-shift:sub"
           id="path3960" />
        <path
           d="m 16.717888,118.11113 h -1.919607 v -0.85851 h 1.919607 v -1.96784 h 0.868164 v 1.96784 h 1.92443 v 0.85851 h -1.92443 v 1.9582 h -0.868164 z"
           style="font-size:9.8777771px"
           id="path3962" />
        <path
           d="m 26.687306,121.16418 -0.226687,-0.74277 h -0.03859 q -0.385851,0.48714 -0.776525,0.6656 -0.390673,0.17363 -1.003211,0.17363 -0.786171,0 -1.229899,-0.42444 -0.438905,-0.42443 -0.438905,-1.20096 0,-0.82475 0.612537,-1.24436 0.612538,-0.41962 1.866553,-0.4582 l 0.921219,-0.0289 v -0.28457 q 0,-0.51125 -0.241157,-0.76205 -0.236334,-0.25563 -0.73794,-0.25563 -0.409966,0 -0.78617,0.12058 -0.376205,0.12058 -0.72347,0.28457 l -0.366558,-0.81029 q 0.434082,-0.22669 0.950157,-0.34244 0.516075,-0.12058 0.974273,-0.12058 1.017681,0 1.533756,0.44373 0.520899,0.44373 0.520899,1.39388 v 3.59324 z m -1.688096,-0.7717 q 0.617361,0 0.988742,-0.34245 0.376204,-0.34726 0.376204,-0.96945 v -0.46302 l -0.684885,0.0289 q -0.80064,0.0289 -1.167198,0.2701 -0.361735,0.23633 -0.361735,0.72829 0,0.35691 0.212218,0.55466 0.212218,0.19293 0.636654,0.19293 z"
           style="font-size:9.8777771px"
           id="path3964" />
        <path
           d="m 30.689989,122.57529 h -2.219158 v -0.3986 l 0.84422,-0.8487 q 0.373966,-0.38292 0.494888,-0.54191 0.123163,-0.16123 0.179145,-0.30231 0.05598,-0.14108 0.05598,-0.30231 0,-0.22169 -0.134359,-0.34933 -0.132119,-0.12764 -0.367247,-0.12764 -0.188102,0 -0.365008,0.0694 -0.174666,0.0694 -0.405315,0.2508 l -0.284393,-0.34709 q 0.273196,-0.23065 0.530717,-0.32694 0.257521,-0.0963 0.548632,-0.0963 0.456819,0 0.732255,0.23961 0.275435,0.23736 0.275435,0.64044 0,0.22169 -0.08061,0.42099 -0.07838,0.1993 -0.244085,0.41203 -0.16347,0.2105 -0.546392,0.57103 l -0.568785,0.55087 v 0.0224 h 1.554082 z"
           style="font-size:64.99999762%;baseline-shift:sub"
           id="path3966" />
        <path
           d="m 34.094432,120.56129 q 0,-0.35209 0.183279,-0.5402 0.183279,-0.1881 0.530545,-0.1881 0.352088,0 0.535368,0.19775 0.183279,0.19293 0.183279,0.53055 0,0.34244 -0.188103,0.54501 -0.183279,0.19775 -0.530544,0.19775 -0.347266,0 -0.530545,-0.19775 -0.183279,-0.19775 -0.183279,-0.54501 z"
           style="font-size:9.8777771px"
           id="path3968" />
        <path
           d="m 36.809856,120.56129 q 0,-0.35209 0.183279,-0.5402 0.183279,-0.1881 0.530544,-0.1881 0.352089,0 0.535368,0.19775 0.183279,0.19293 0.183279,0.53055 0,0.34244 -0.188102,0.54501 -0.183279,0.19775 -0.530545,0.19775 -0.347265,0 -0.530544,-0.19775 -0.183279,-0.19775 -0.183279,-0.54501 z"
           style="font-size:9.8777771px"
           id="path3970" />
        <path
           d="m 39.525279,120.56129 q 0,-0.35209 0.183279,-0.5402 0.183279,-0.1881 0.530545,-0.1881 0.352089,0 0.535368,0.19775 0.183279,0.19293 0.183279,0.53055 0,0.34244 -0.188102,0.54501 -0.18328,0.19775 -0.530545,0.19775 -0.347266,0 -0.530545,-0.19775 -0.183279,-0.19775 -0.183279,-0.54501 z"
           style="font-size:9.8777771px"
           id="path3972" />
      </g>
    </g>
  </g>
</svg>
