<?xml version="1.0" encoding="UTF-8" standalone="no"?>
<svg
   xmlns:dc="http://purl.org/dc/elements/1.1/"
   xmlns:cc="http://creativecommons.org/ns#"
   xmlns:rdf="http://www.w3.org/1999/02/22-rdf-syntax-ns#"
   xmlns:svg="http://www.w3.org/2000/svg"
   xmlns="http://www.w3.org/2000/svg"
   id="svg8"
   version="1.1"
   viewBox="0 0 151.19048 81.64286"
   height="81.64286mm"
   width="151.19048mm">
  <defs
     id="defs2" />
  <metadata
     id="metadata5">
    <rdf:RDF>
      <cc:Work
         rdf:about="">
        <dc:format>image/svg+xml</dc:format>
        <dc:type
           rdf:resource="http://purl.org/dc/dcmitype/StillImage" />
        <dc:title></dc:title>
      </cc:Work>
    </rdf:RDF>
  </metadata>
  <g
     transform="translate(1.5119048,0.46726206)"
     id="layer1">
    <g
       transform="matrix(0.4897633,0,0,0.4897633,179.03758,34.526353)"
       id="g836">
      <path
         style="fill:#000000;stroke-width:0.26458332"
         d="m -152.13543,83.541819 c -0.88968,-0.21659 -2.51354,-1.01251 -2.51354,-1.23199 0,-0.0786 0.12007,-0.36725 0.26682,-0.64146 0.25764,-0.4814 0.31457,-0.47633 1.65365,0.14711 3.37899,1.57315 6.54249,0.12333 6.54521,-2.99966 l 0.001,-1.13695 -1.06515,0.85598 c -2.22714,1.78978 -5.87003,1.1835 -7.27297,-1.21043 -0.71983,-1.22829 -0.88407,-3.22042 -0.3763,-4.56433 0.38296,-1.01359 1.52473,-2.18895 2.55435,-2.62949 1.66709,-0.7133 4.42676,-0.30688 5.33257,0.78535 0.51832,0.625 0.8275,0.54146 0.8275,-0.2236 0,-0.55857 0.12347,-0.66146 0.79375,-0.66146 h 0.79375 l -0.0116,4.82865 c -0.015,6.2508 -0.36957,7.33139 -2.76651,8.43207 -1.09023,0.50064 -3.26459,0.61488 -4.7625,0.25021 z m 4.04544,-5.81283 c 1.19435,-0.61319 1.90769,-1.76036 1.90769,-3.06789 0,-3.43104 -4.6782,-4.85465 -6.85581,-2.08627 -0.67123,0.85334 -0.73924,2.67753 -0.14281,3.8309 0.88448,1.71038 3.17651,2.30614 5.09093,1.32326 z m -198.77876,2.47879 c -1.27818,-0.64925 -1.71979,-1.36248 -1.71979,-2.77757 0,-0.97656 0.15617,-1.4589 0.67011,-2.06969 0.94859,-1.12733 2.17673,-1.45594 4.82416,-1.29078 l 2.23376,0.13937 -0.15956,-0.83234 c -0.34874,-1.81904 -2.3763,-2.64151 -4.82898,-1.95884 -1.37567,0.3829 -1.44474,0.37764 -1.71685,-0.13082 -0.32997,-0.61655 -0.0857,-0.84195 1.35861,-1.2538 1.44206,-0.41119 3.46395,-0.30438 4.6788,0.24718 1.75275,0.79578 2.0271,1.58198 2.15185,6.16655 l 0.10619,3.9026 h -0.82259 c -0.71534,0 -0.82259,-0.0923 -0.82259,-0.70758 v -0.70758 l -0.59531,0.55767 c -1.23215,1.15422 -3.81514,1.49923 -5.35781,0.71563 z m 3.62101,-0.92569 c 1.26746,-0.35202 2.33211,-1.61243 2.33211,-2.7609 0,-1.01576 -0.22895,-1.14771 -2.38186,-1.37274 -1.12027,-0.11709 -1.7402,-0.0425 -2.45085,0.29468 -1.71046,0.81166 -1.7746,2.86487 -0.11507,3.68319 1.00335,0.49475 1.32601,0.51396 2.61567,0.15577 z m 21.84448,0.79942 c -0.54606,-0.29641 -1.31996,-1.03325 -1.71979,-1.63743 -0.64349,-0.97238 -0.72695,-1.34596 -0.72695,-3.25381 0,-1.90853 0.0833,-2.28126 0.7279,-3.25524 1.64803,-2.49036 5.28419,-2.93789 7.40803,-0.91176 l 0.72761,0.69412 v -3.09221 -3.09221 h 0.79375 0.79375 v 7.40834 7.40833 h -0.79375 c -0.70829,0 -0.79375,-0.0868 -0.79375,-0.80622 v -0.80622 l -1.07094,0.86063 c -0.90726,0.7291 -1.32173,0.87301 -2.71198,0.94162 -1.26045,0.0622 -1.8713,-0.044 -2.63388,-0.45794 z m 4.29486,-1.25363 c 2.76467,-1.38902 2.88441,-5.57795 0.20613,-7.21092 -2.41551,-1.47275 -5.48968,0.45368 -5.49113,3.44101 -7.9e-4,1.51571 0.67774,2.86722 1.82367,3.63275 1.07659,0.71921 2.21318,0.76425 3.46133,0.13716 z m 27.37606,1.39052 c -1.74564,-0.89323 -2.27675,-3.38344 -1.03609,-4.85788 0.94545,-1.1236 2.17841,-1.45584 4.79659,-1.29249 2.18422,0.13626 2.20621,0.13138 2.20621,-0.49037 0,-0.3454 -0.33128,-0.99878 -0.73619,-1.45194 -0.90699,-1.0151 -2.48881,-1.26036 -4.37333,-0.67808 -1.23769,0.38242 -1.27918,0.37739 -1.49312,-0.18097 -0.18526,-0.4835 -0.0885,-0.63357 0.6116,-0.94896 1.44024,-0.64878 3.89695,-0.68322 5.27435,-0.0739 1.88337,0.8331 2.14509,1.55211 2.25799,6.20325 l 0.0947,3.9026 h -0.81801 c -0.64163,0 -0.81802,-0.1141 -0.81802,-0.52917 0,-0.66761 -0.10594,-0.66229 -1.07474,0.054 -1.02764,0.75977 -3.71067,0.94841 -4.89197,0.34396 z m 3.6346,-0.93631 c 1.37042,-0.38062 2.38216,-1.65047 2.27975,-2.86136 -0.0734,-0.86772 -0.1666,-0.96381 -1.13826,-1.17339 -1.57363,-0.33941 -3.5442,-0.043 -4.27433,0.64289 -0.81591,0.76652 -0.82758,2.06207 -0.0252,2.79212 0.99552,0.90571 1.62555,1.02536 3.15799,0.59974 z m 9.40507,0.78257 c -3.72198,-1.96464 -3.6764,-7.85751 0.0756,-9.77163 1.89875,-0.96867 4.98546,-0.58971 6.18778,0.75968 0.48819,0.5479 0.48886,0.58244 0.0214,1.09895 -0.47382,0.52357 -0.49262,0.52417 -1.03319,0.0331 -2.02409,-1.83888 -4.89096,-1.31536 -5.98412,1.09277 -0.66822,1.47201 -0.64868,2.47495 0.0757,3.88765 1.09149,2.12859 3.23642,2.6799 5.49245,1.41172 1.08869,-0.61198 1.33271,-0.66321 1.70146,-0.35717 0.39372,0.32677 0.3818,0.40911 -0.1396,0.96412 -1.39662,1.48662 -4.45269,1.9074 -6.39749,0.88084 z m 27.13919,-0.0883 -0.74236,-0.63792 -0.085,-3.97653 -0.085,-3.97654 -0.70879,-0.0819 c -1.05004,-0.12134 -1.15597,-1.20185 -0.12937,-1.31957 0.70544,-0.0809 0.75028,-0.16654 0.8758,-1.67275 0.12347,-1.48167 0.17639,-1.5875 0.79375,-1.5875 0.61736,0 0.67028,0.10583 0.79375,1.5875 l 0.13229,1.5875 1.67034,0.0792 c 1.55037,0.0735 1.66438,0.12102 1.5875,0.66146 -0.0738,0.51886 -0.26288,0.59083 -1.73649,0.66103 l -1.65364,0.0788 v 3.42696 c 0,3.13383 0.0478,3.47471 0.55832,3.98528 0.45168,0.45167 0.7549,0.52688 1.5875,0.39374 0.95616,-0.15289 1.02918,-0.11943 1.02918,0.47171 0,0.75137 -0.42863,0.95747 -1.99126,0.95747 -0.83817,0 -1.35751,-0.17468 -1.89659,-0.63791 z m 14.59855,0.2692 c -1.68743,-0.73526 -3.03484,-2.97968 -3.03484,-5.05524 0,-2.09668 1.44357,-4.44342 3.1743,-5.16031 1.19173,-0.49363 3.69484,-0.22854 4.7174,0.49958 1.06682,0.75964 1.8787,2.32871 2.07869,4.01736 l 0.15454,1.30482 h -4.27019 c -2.3486,0 -4.27019,0.0634 -4.27019,0.14079 0,0.57442 0.87386,1.99625 1.60502,2.61148 0.78717,0.66236 1.04474,0.7315 2.36839,0.63575 1.00062,-0.0724 1.76743,-0.30842 2.35034,-0.72349 0.78823,-0.56127 0.90235,-0.57891 1.28289,-0.19837 0.35305,0.35305 0.36253,0.48418 0.0613,0.8472 -1.09196,1.31573 -4.3702,1.88539 -6.2176,1.08043 z m 5.2809,-6.31201 c -0.60852,-1.97267 -1.55819,-2.84428 -3.09903,-2.84428 -1.80455,0 -2.8768,0.87532 -3.48417,2.84428 l -0.18365,0.59531 h 3.47525 3.47524 z m 4.97928,6.01455 c -1.21223,-0.61331 -1.35234,-0.76511 -1.11517,-1.20826 0.33745,-0.63053 0.45361,-0.62951 1.87737,0.0165 2.25574,1.02357 4.46067,0.4989 4.46067,-1.06143 0,-0.90325 -0.61988,-1.38494 -2.37977,-1.84925 -1.62875,-0.42971 -3.1039,-1.21601 -3.43222,-1.82948 -0.66592,-1.24428 -0.014,-3.16621 1.30541,-3.84851 1.07943,-0.55819 3.34314,-0.49747 4.71811,0.12655 1.0131,0.45979 1.10617,0.57496 0.85059,1.05253 -0.34339,0.64161 -0.45801,0.6511 -1.68277,0.13936 -1.9926,-0.83256 -3.98634,-0.2333 -3.82623,1.15006 0.0872,0.75371 0.78677,1.19511 3.25625,2.05465 0.72761,0.25326 1.66525,0.80241 2.08365,1.22034 0.66202,0.66127 0.74181,0.90091 0.61493,1.84687 -0.0981,0.73171 -0.41042,1.35162 -0.95539,1.8966 -0.71552,0.71551 -1.01757,0.82035 -2.59931,0.90223 -1.52284,0.0788 -1.99645,-0.012 -3.17612,-0.6088 z m 34.69171,0.30033 c -1.20921,-0.54727 -1.68759,-1.39 -1.68759,-2.97291 0,-1.23163 0.0923,-1.44998 0.92038,-2.17704 1.1179,-0.98153 2.23219,-1.21689 4.83081,-1.02035 l 1.9806,0.14979 -0.16145,-0.84172 c -0.35069,-1.82839 -2.37299,-2.65233 -4.83085,-1.96822 -1.37568,0.3829 -1.44474,0.37764 -1.71686,-0.13082 -0.32996,-0.61655 -0.0857,-0.84195 1.35862,-1.2538 1.44206,-0.41119 3.46395,-0.30438 4.6788,0.24718 1.75275,0.79578 2.0271,1.58198 2.15185,6.16655 l 0.10619,3.9026 h -0.82259 c -0.6462,0 -0.82259,-0.11347 -0.82259,-0.52917 0,-0.66761 -0.10594,-0.66229 -1.07474,0.054 -0.98804,0.73049 -3.67129,0.93481 -4.91058,0.37394 z m 3.65519,-1.00365 c 1.32909,-0.3982 2.33013,-1.56825 2.33013,-2.72354 0,-1.01576 -0.22895,-1.14771 -2.38186,-1.37274 -1.12027,-0.11709 -1.7402,-0.0425 -2.45086,0.29468 -1.71045,0.81166 -1.77459,2.86487 -0.11506,3.68319 1.02518,0.50551 1.28623,0.51732 2.61765,0.11841 z m 20.56322,0.76624 c -2.35686,-1.58829 -1.99769,-4.60413 0.66963,-5.62279 0.97186,-0.37116 1.67736,-0.43385 3.46382,-0.30777 l 2.24339,0.15832 -0.17073,-0.71486 c -0.29073,-1.21726 -0.63618,-1.67186 -1.56554,-2.06017 -1.152,-0.48134 -2.15309,-0.47366 -3.57325,0.0274 -0.91026,0.32116 -1.18259,0.33444 -1.35585,0.0661 -0.64225,-0.99452 0.81349,-1.7336 3.48669,-1.7702 1.78017,-0.0244 3.07666,0.57586 3.89733,1.80432 0.55708,0.8339 0.60059,1.18369 0.60059,4.82865 v 3.92962 h -0.66146 c -0.48507,0 -0.66146,-0.14111 -0.66146,-0.52917 0,-0.66099 0.024,-0.66326 -1.36206,0.12911 -1.56046,0.89207 -3.73885,0.91876 -5.0111,0.0614 z m 4.53116,-1.05039 c 0.94891,-0.47851 1.25674,-0.81575 1.56893,-1.71883 0.34305,-0.99239 0.34219,-1.16971 -0.007,-1.51927 -0.61942,-0.61942 -3.36252,-0.80773 -4.5484,-0.31224 -1.88523,0.7877 -1.99108,2.78242 -0.19541,3.68222 1.21158,0.60711 1.76202,0.5843 3.18225,-0.13188 z m 22.34721,1.15869 c -2.66471,-1.65498 -3.52069,-4.79019 -2.09109,-7.65902 0.98348,-1.97359 2.43397,-2.79272 4.69078,-2.64902 1.16222,0.074 1.90248,0.28086 2.48209,0.69357 1.03131,0.73436 1.88488,2.46447 1.9853,4.02401 l 0.0767,1.19062 -4.16719,0.0729 c -2.74664,0.048 -4.16719,0.16968 -4.16719,0.35688 0,0.72599 0.93777,2.12965 1.76392,2.64023 1.20532,0.74493 3.306,0.61272 4.51948,-0.28445 0.6968,-0.51516 0.90706,-0.5626 1.24617,-0.28117 0.62757,0.52084 0.50747,0.75146 -0.83449,1.60251 -1.05349,0.6681 -1.50614,0.78777 -2.97656,0.78693 -1.22997,-7.9e-4 -1.96491,-0.14431 -2.52789,-0.49396 z m 5.43453,-6.34733 c -0.3617,-1.26118 -0.78221,-1.86394 -1.59278,-2.2831 -1.07202,-0.55437 -2.55999,-0.50054 -3.43756,0.12434 -0.69152,0.4924 -1.59482,1.97913 -1.59482,2.62488 0,0.19628 1.11155,0.29075 3.42112,0.29075 h 3.42111 z m 26.31547,6.4017 c -1.94717,-1.02883 -2.86807,-2.62892 -2.86807,-4.98337 0,-2.38499 1.23274,-4.44043 3.08373,-5.14176 1.66606,-0.63125 3.9673,-0.24902 5.17705,0.8599 0.89462,0.82006 1.60614,2.50467 1.61293,3.81884 l 0.006,1.12447 h -4.10104 c -4.57571,0 -4.6433,0.0335 -3.58258,1.7731 1.07191,1.75799 3.61868,2.22031 5.43627,0.98686 0.90108,-0.61149 1.04228,-0.63884 1.4083,-0.27282 0.36602,0.36602 0.35975,0.45881 -0.0626,0.92548 -1.19338,1.31866 -4.42486,1.79959 -6.10982,0.9093 z m 5.42395,-6.05485 c 0,-0.2255 -0.17621,-0.75077 -0.39158,-1.16726 -1.03157,-1.99484 -3.35905,-2.50226 -4.97391,-1.08439 -0.4873,0.42785 -1.01608,1.20176 -1.17507,1.71979 l -0.28907,0.94188 h 3.41482 c 2.90764,0 3.41481,-0.0609 3.41481,-0.41002 z m 18.60175,5.85774 c -0.73822,-0.63412 -0.74311,-0.65968 -0.87466,-4.56406 l -0.13229,-3.92637 -0.72761,-0.0837 c -0.56525,-0.065 -0.7276,-0.22347 -0.7276,-0.71003 0,-0.48656 0.16235,-0.64499 0.7276,-0.71003 0.69821,-0.0803 0.73081,-0.15119 0.8068,-1.75368 0.0779,-1.642 0.0912,-1.66858 0.79375,-1.5875 0.68146,0.0786 0.71821,0.15909 0.79332,1.7361 l 0.0788,1.65365 h 1.574877 c 1.503495,0 1.57488,0.03 1.57488,0.66146 0,0.63206 -0.07057,0.66146 -1.5875,0.66146 h -1.587497 v 3.56577 c 0,3.50985 0.0103,3.57256 0.66029,3.99842 0.463683,0.30381 0.936388,0.38084 1.587501,0.25869 0.853943,-0.1602 0.927206,-0.12296 0.927206,0.4712 0,0.76018 -0.424815,0.96633 -1.991254,0.96633 -0.837993,0 -1.357633,-0.17472 -1.896583,-0.63769 z m -253.02257,-4.78626 v -5.15938 h 0.79375 c 0.67028,0 0.79375,0.10289 0.79375,0.66146 0,0.3638 0.11907,0.66146 0.26459,0.66146 0.14552,0 0.26458,-0.10935 0.26458,-0.24301 0,-0.13365 0.40101,-0.49084 0.89112,-0.79375 1.16876,-0.72233 3.41259,-0.74787 4.55401,-0.0518 1.42323,0.86788 1.69862,1.87658 1.69862,6.22179 v 3.86262 h -0.79375 -0.79375 v -3.58501 c 0,-4.02551 -0.24182,-4.85342 -1.57939,-5.40746 -0.9887,-0.40954 -2.5269,-0.1975 -3.25244,0.44835 -0.98888,0.88024 -1.25359,2.0122 -1.25359,5.36062 v 3.1835 h -0.79375 -0.79375 z m 32.80833,-1.99009 v -7.14947 l 5.09323,0.0719 5.09323,0.0719 0.0837,0.72761 0.0837,0.7276 h -4.3832 -4.3832 v 2.51354 2.51354 h 3.83646 3.83646 v 0.79375 0.79375 h -3.83646 -3.83646 v 3.04271 3.04271 h -0.79375 -0.79375 z m 36.24792,1.99009 v -5.15938 h 0.79375 0.79375 v 5.15938 5.15937 h -0.79375 -0.79375 z m 5.55625,-2.26654 v -7.4259 l 0.7276,0.0837 0.72761,0.0837 0.0703,7.34218 0.0703,7.34219 h -0.79794 -0.79793 z m 5.29167,2.26654 v -5.15938 h 0.79375 0.79375 v 5.15938 5.15937 h -0.79375 -0.79375 z m 13.75833,0 v -5.15938 h 0.79375 0.79375 v 5.15938 5.15937 h -0.79375 -0.79375 z m 33.92849,-1.91823 0.0705,-7.07761 h 0.79375 c 0.72687,0 1.00557,0.31699 3.3073,3.76167 1.38244,2.06892 2.58417,3.76556 2.67049,3.77031 0.0863,0.005 1.30716,-1.71776 2.71298,-3.82781 2.34289,-3.51654 2.62213,-3.83646 3.34878,-3.83646 h 0.79275 v 7.14375 7.14375 h -0.78849 -0.78849 l -0.0714,-5.62239 -0.0714,-5.6224 -2.49167,3.63802 c -1.37043,2.00091 -2.56597,3.63802 -2.65676,3.63802 -0.0908,0 -1.29126,-1.63711 -2.6677,-3.63802 l -2.50262,-3.63802 -0.0714,5.6224 -0.0714,5.62239 h -0.79281 -0.79281 z m 29.30692,1.91823 v -5.15938 h 0.79375 c 0.67028,0 0.79375,0.10289 0.79375,0.66146 0,0.3638 0.11906,0.66146 0.26458,0.66146 0.14553,0 0.26459,-0.10935 0.26459,-0.24301 0,-0.13365 0.40101,-0.49084 0.89112,-0.79375 1.16876,-0.72233 3.41259,-0.74787 4.55401,-0.0518 1.42323,0.86788 1.69862,1.87658 1.69862,6.22179 v 3.86262 h -0.79375 -0.79375 v -3.58501 c 0,-4.02551 -0.24182,-4.85342 -1.5794,-5.40746 -0.98869,-0.40954 -2.52689,-0.1975 -3.25243,0.44835 -0.98888,0.88024 -1.25359,2.0122 -1.25359,5.36062 v 3.1835 h -0.79375 -0.79375 z m 50.27083,0 v -5.15938 h 0.79375 c 0.67755,0 0.79375,0.10028 0.79375,0.68498 v 0.68498 l 0.81414,-0.68506 c 1.01262,-0.85205 1.78503,-1.05338 3.36021,-0.87584 0.95466,0.10761 1.40322,0.33005 1.99011,0.98689 0.73621,0.82397 0.76803,0.83317 1.1239,0.32509 0.90225,-1.28814 3.92945,-1.82221 5.4011,-0.95289 1.47835,0.87329 1.72164,1.69073 1.82023,6.11571 l 0.0899,4.03489 h -0.8175 -0.81749 v -3.46574 c 0,-2.58051 -0.10463,-3.68623 -0.40963,-4.32897 -1.08729,-2.2913 -4.41631,-1.72988 -5.13741,0.86641 -0.14896,0.53634 -0.27151,2.31463 -0.27232,3.95174 -0.002,2.96654 -0.004,2.97656 -0.63756,2.97656 h -0.63609 l -0.0915,-3.68528 c -0.0805,-3.24262 -0.15812,-3.77494 -0.64604,-4.43177 -1.2185,-1.64035 -3.66904,-1.39021 -4.6188,0.47147 -0.42949,0.84187 -0.51522,1.56199 -0.51522,4.32775 v 3.31783 h -0.79375 -0.79375 z m 31.75,0 v -5.15938 h 0.79375 c 0.68408,0 0.79375,0.0978 0.79375,0.70758 v 0.70758 l 0.59531,-0.54222 c 0.95533,-0.87014 1.66725,-1.13759 3.02532,-1.13653 1.54321,0.001 2.78029,0.68649 3.43981,1.90554 0.37602,0.69501 0.49074,1.66224 0.56628,4.7742 l 0.0947,3.9026 h -0.81802 -0.81801 l -5.3e-4,-3.37344 c -2.7e-4,-2.68298 -0.0951,-3.56222 -0.46302,-4.2958 -0.76109,-1.51746 -2.44901,-2.01418 -4.04315,-1.18982 -1.32435,0.68491 -1.57872,1.55592 -1.57872,5.40634 v 3.45272 h -0.79375 -0.79375 z m -169.86249,-8.44991 c 0,-0.90429 0.0385,-0.9428 0.9428,-0.9428 0.9043,0 0.93942,0.0351 0.8599,0.85989 -0.0729,0.75611 -0.1867,0.86991 -0.9428,0.94281 -0.82478,0.0795 -0.8599,0.0444 -0.8599,-0.8599 z m 10.84792,-0.0168 c 0,-0.85255 0.063,-0.92604 0.79375,-0.92604 0.73075,0 0.79375,0.0735 0.79375,0.92604 0,0.85254 -0.063,0.92604 -0.79375,0.92604 -0.73076,0 -0.79375,-0.0735 -0.79375,-0.92604 z m 13.67013,0.74965 c -0.097,-0.097 -0.17639,-0.51373 -0.17639,-0.92604 0,-0.68036 0.0856,-0.74965 0.92605,-0.74965 0.88194,0 0.92604,0.0441 0.92604,0.92604 0,0.84044 -0.0693,0.92604 -0.74965,0.92604 -0.41231,0 -0.82903,-0.0794 -0.92605,-0.17639 z m 65.55951,-7.83203 c -0.0708,-0.18452 -0.0968,-3.30991 -0.0578,-6.94531 l 0.0709,-6.60981 0.7276,-0.0837 c 0.67339,-0.0775 0.72761,-0.0134 0.72761,0.85989 0,0.96499 0.33603,1.235 0.71446,0.5741 0.45214,-0.78966 2.2531,-1.58276 3.54967,-1.5632 4.2495,0.0641 6.47449,5.43327 3.74584,9.03912 -1.6504,2.18097 -5.36973,2.49871 -7.05879,0.60303 -0.27722,-0.31112 -0.60464,-0.56568 -0.72761,-0.56568 -0.12296,0 -0.22357,1.13109 -0.22357,2.51354 0,2.51304 -1.4e-4,2.51354 -0.66976,2.51354 -0.36837,0 -0.7277,-0.15097 -0.79851,-0.3355 z m 7.5112,-4.92591 c 0.84321,-0.60042 1.63343,-2.25904 1.62417,-3.40905 -0.01,-1.18529 -0.94927,-2.91608 -1.89703,-3.49391 -1.88945,-1.15197 -4.32539,-0.38523 -5.25048,1.65265 -0.57743,1.27202 -0.64511,2.2085 -0.23738,3.2846 0.91835,2.42379 3.75707,3.39244 5.76072,1.96571 z m -158.18005,1.8392 c -0.86027,-0.26168 -2.37954,-1.0484 -2.37954,-1.23218 0,-0.0786 0.12007,-0.36725 0.26682,-0.64146 0.25764,-0.4814 0.31457,-0.47633 1.65365,0.1471 1.82856,0.85133 3.19428,0.8518 4.04468,10e-4 0.35719,-0.35711 0.64943,-0.77924 0.64943,-0.93799 0,-0.65304 -1.36806,-1.57854 -3.09249,-2.0921 -2.63661,-0.78522 -3.59925,-2.02385 -2.99524,-3.854 0.6069,-1.83894 3.14166,-2.51235 5.90831,-1.56966 1.25692,0.42828 1.52778,0.86027 0.87767,1.39981 -0.27062,0.22459 -0.59722,0.19977 -1.31442,-0.0999 -1.37174,-0.57315 -2.97126,-0.51548 -3.61716,0.13042 -1.1742,1.17419 -0.42924,1.95791 2.89412,3.04468 1.86176,0.60882 2.66213,1.40403 2.66213,2.64498 0,1.32401 -0.60898,2.36445 -1.68198,2.87362 -0.94653,0.44916 -2.72856,0.53437 -3.87598,0.18534 z m 10.41491,-0.0151 c -1.22963,-0.49622 -1.41737,-1.18538 -1.41737,-5.2029 v -3.76002 l -0.7276,-0.0837 c -0.5774,-0.0664 -0.72761,-0.22027 -0.72761,-0.74517 0,-0.52491 0.15021,-0.67874 0.72761,-0.74518 0.70259,-0.0808 0.7276,-0.13768 0.7276,-1.65365 0,-1.48967 0.0331,-1.56992 0.64826,-1.56992 0.60359,0 0.65372,0.10482 0.7276,1.52135 l 0.0794,1.52136 1.65365,0.0788 c 1.63726,0.078 1.65364,0.0865 1.65364,0.85989 v 0.78113 h -1.74636 -1.74636 l 0.0927,3.43036 c 0.10933,4.04475 0.29305,4.40321 2.21862,4.32868 1.07062,-0.0414 1.18139,0.0115 1.18139,0.56468 0,0.40934 -0.19608,0.66294 -0.59531,0.76993 -0.82413,0.22086 -2.07326,0.17743 -2.74982,-0.0956 z m 13.79617,0.0122 c -0.29104,-0.11912 -0.76729,-0.48088 -1.05833,-0.80391 -0.46756,-0.51895 -0.53914,-1.03081 -0.61483,-4.39685 l -0.0857,-3.80952 h -0.64194 c -0.53687,0 -0.64194,-0.12991 -0.64194,-0.79375 0,-0.67028 0.1029,-0.79375 0.66146,-0.79375 0.63206,0 0.66146,-0.0706 0.66146,-1.5875 v -1.5875 h 0.79375 c 0.79304,0 0.79375,0.001 0.79375,1.57487 v 1.57488 l 1.65365,0.0788 c 1.56649,0.0746 1.65364,0.11363 1.65364,0.74023 0,0.62659 -0.0871,0.66561 -1.65364,0.74023 l -1.65365,0.0788 v 3.26535 c 0,2.82101 0.0688,3.35036 0.50586,3.88998 0.41204,0.50879 0.73098,0.61611 1.71979,0.57868 1.02986,-0.039 1.21393,0.0298 1.21393,0.45372 0,0.90898 -1.90964,1.36935 -3.30729,0.79731 z m 7.77819,-0.35046 c -1.57289,-1.05076 -1.82419,-1.92699 -1.82465,-6.3623 l -4.1e-4,-3.92017 0.7276,0.0837 0.72761,0.0837 0.13229,3.88208 c 0.12425,3.64625 0.17102,3.92327 0.76992,4.56001 1.29659,1.37855 3.73376,1.02818 4.77955,-0.68711 0.46482,-0.76241 0.53409,-1.33203 0.53495,-4.39912 l 10e-4,-3.5233 0.72761,0.0837 0.7276,0.0837 0.0717,5.22552 0.0717,5.22552 h -0.79934 c -0.67632,0 -0.79942,-0.10186 -0.79942,-0.66146 0,-0.70496 -0.3821,-0.89717 -0.60885,-0.30626 -0.22233,0.57939 -1.89782,1.2323 -3.16232,1.2323 -0.78391,0 -1.47824,-0.2008 -2.07668,-0.60058 z m 13.1239,0.35047 c -0.29105,-0.11912 -0.7673,-0.48105 -1.05834,-0.80429 -0.46691,-0.51856 -0.53987,-1.03588 -0.62012,-4.39686 l -0.0909,-3.80914 h -0.63665 c -0.531,0 -0.63665,-0.13172 -0.63665,-0.79375 0,-0.66597 0.10436,-0.79375 0.64825,-0.79375 0.60359,0 0.65372,-0.10482 0.72761,-1.52136 0.0751,-1.44021 0.11815,-1.52582 0.80695,-1.60507 0.72299,-0.0832 0.7276,-0.0735 0.7276,1.52135 v 1.60508 h 1.71979 1.7198 v 0.79375 0.79375 h -1.7198 -1.71979 v 3.27798 c 0,2.83343 0.0686,3.36269 0.50586,3.9026 0.41205,0.50879 0.73098,0.61611 1.71979,0.57868 1.02986,-0.039 1.21394,0.0298 1.21394,0.45372 0,0.90898 -1.90965,1.36935 -3.30729,0.79731 z m 8.20208,-0.24995 c -2.87362,-1.32626 -3.88095,-4.71187 -2.3023,-7.73794 2.39111,-4.58344 8.84992,-3.11109 9.11648,2.07819 l 0.065,1.26503 -4.16718,0.0729 c -2.62013,0.0458 -4.16719,0.17347 -4.16719,0.34386 0,0.14906 0.16728,0.59252 0.37174,0.98547 1.11183,2.13693 3.29302,2.73154 5.55711,1.51494 1.15659,-0.62149 1.34223,-0.65424 1.69707,-0.29941 0.52029,0.5203 0.13949,0.99867 -1.38087,1.73466 -1.4016,0.6785 -3.37368,0.69593 -4.78984,0.0423 z m 5.25802,-5.79549 c 0.22358,-0.36176 -0.80558,-2.34487 -1.4518,-2.7975 -0.91254,-0.63917 -2.90428,-0.56497 -3.8026,0.14165 -0.66816,0.52558 -1.45883,1.93091 -1.45883,2.59292 0,0.32456 6.51379,0.38562 6.71323,0.0629 z m 12.91984,5.73248 c -3.88343,-1.92225 -3.87821,-7.79787 0.009,-9.79038 3.29275,-1.68793 7.17915,0.17884 7.92352,3.80594 0.91597,4.46321 -3.80695,8.0264 -7.93222,5.98444 z m 3.98949,-1.12261 c 2.71257,-1.15581 3.29839,-4.6657 1.12958,-6.76779 -0.76249,-0.73903 -1.16528,-0.91222 -2.32021,-0.99763 -1.78051,-0.13166 -2.94121,0.53959 -3.65609,2.11439 -0.8072,1.77819 -0.60023,3.32703 0.62251,4.65848 1.1568,1.25964 2.7299,1.62927 4.22421,0.99255 z m 24.84176,1.23873 c -0.14015,-0.26349 -1.26898,-3.33658 -2.50852,-6.82908 -1.23953,-3.4925 -2.33628,-6.55836 -2.43722,-6.81302 -0.15324,-0.3866 -0.0339,-0.46302 0.72315,-0.46302 h 0.90669 l 1.94564,5.70129 c 1.07011,3.13572 2.01911,5.7467 2.10889,5.80219 0.0898,0.0555 1.03282,-2.51693 2.09563,-5.71647 1.88439,-5.67286 1.94928,-5.81534 2.61209,-5.73604 0.63918,0.0765 0.79063,0.42438 2.54056,5.83601 1.02347,3.16508 1.9268,5.75363 2.00741,5.75233 0.0806,-10e-4 0.90368,-2.23371 1.82905,-4.96094 2.28916,-6.74659 2.25784,-6.67837 3.06651,-6.67837 0.47332,0 0.66956,0.13833 0.65689,0.46302 -0.01,0.25466 -1.11127,3.49912 -2.44739,7.2099 -2.24569,6.23685 -2.47933,6.75267 -3.09079,6.82355 -0.63679,0.0738 -0.73436,-0.13614 -2.61629,-5.62989 -1.07516,-3.13861 -2.01538,-5.64602 -2.08937,-5.57202 -0.074,0.074 -0.98026,2.60744 -2.01392,5.62988 -1.6235,4.74717 -1.95799,5.50654 -2.45679,5.57755 -0.34919,0.0497 -0.67812,-0.10714 -0.83222,-0.39687 z m 19.64717,-0.0538 c -3.39384,-1.54145 -4.19307,-6.17942 -1.52469,-8.84781 3.66982,-3.66982 9.7263,-0.76565 9.29326,4.45625 -0.30895,3.72558 -4.28552,5.97353 -7.76857,4.39156 z m 4.59214,-1.57543 c 3.0923,-2.20191 1.496,-7.44877 -2.26622,-7.44877 -2.31304,0 -3.76241,1.60563 -3.76241,4.16805 0,3.21776 3.46724,5.10459 6.02863,3.28072 z m 46.09015,1.59223 c -1.96765,-1.03301 -2.34712,-3.61733 -0.75018,-5.10908 0.98067,-0.91609 2.07447,-1.13357 4.77147,-0.94872 l 2.09979,0.14393 -0.17345,-0.83596 c -0.40691,-1.96113 -2.6375,-2.79902 -5.13942,-1.93056 -0.64916,0.22534 -1.21214,0.37786 -1.25106,0.33894 -0.0389,-0.0389 -0.10311,-0.34727 -0.14263,-0.6852 -0.0571,-0.48874 0.11759,-0.68425 0.85419,-0.95572 1.40588,-0.51812 3.9154,-0.45421 5.20798,0.13264 1.7287,0.78486 1.93577,1.43602 1.93577,6.08726 v 3.98189 h -0.66145 c -0.48507,0 -0.66146,-0.14111 -0.66146,-0.52917 0,-0.29104 -0.0298,-0.52867 -0.0662,-0.52805 -0.0364,5.2e-4 -0.65187,0.29826 -1.36776,0.66145 -1.56963,0.79633 -3.34652,0.86364 -4.65564,0.17635 z m 4.51071,-1.24027 c 0.93093,-0.4814 1.64154,-1.74765 1.52857,-2.72381 -0.0924,-0.79864 -0.71859,-1.02377 -2.99244,-1.07587 -2.8896,-0.0662 -4.28925,2.31301 -2.27189,3.86189 0.59038,0.45328 2.81041,0.41631 3.73576,-0.0622 z m 8.85488,1.2242 c -1.97048,-0.90944 -3.04271,-2.69283 -3.04271,-5.06082 0,-4.44046 5.1591,-7.00262 8.68506,-4.31325 0.88326,0.6737 0.88669,0.68457 0.37627,1.19499 -0.51042,0.51042 -0.52423,0.50892 -1.51785,-0.16537 -2.72609,-1.84997 -5.95598,0.0484 -5.95598,3.50059 0,3.2948 3.59056,5.11674 6.18455,3.13821 l 0.89626,-0.68362 0.48768,0.53888 c 0.47632,0.52634 0.47244,0.55113 -0.16697,1.06485 -1.68592,1.35454 -4.03972,1.66549 -5.94631,0.78554 z m 11.37708,0.1236 c -1.08894,-0.48808 -1.88161,-1.29526 -2.54073,-2.58724 -0.83574,-1.63818 -0.63867,-4.28295 0.43207,-5.79872 1.97413,-2.79462 6.17776,-2.9279 7.94858,-0.25201 0.6333,0.95697 1.29808,3.56857 1.02206,4.01517 -0.0805,0.13023 -1.99768,0.23677 -4.26045,0.23677 h -4.1141 l 0.17293,0.68902 c 0.5694,2.26867 3.0368,3.3772 5.25074,2.35901 0.46827,-0.21535 1.05753,-0.54076 1.30946,-0.72312 0.37866,-0.27409 0.53917,-0.24989 0.92604,0.1396 0.44779,0.45082 0.43943,0.49377 -0.19347,0.99501 -1.61925,1.28237 -4.24679,1.6913 -5.95313,0.92651 z m 5.15938,-6.25125 c 0,-0.76491 -0.68456,-1.99704 -1.38028,-2.48434 -0.87125,-0.61024 -2.89106,-0.53503 -3.7487,0.13959 -0.75524,0.59407 -1.48561,1.81186 -1.48561,2.47704 0,0.34843 0.49676,0.41002 3.30729,0.41002 3.15762,0 3.3073,-0.0246 3.3073,-0.54231 z m -220.39791,-0.78061 v -7.14375 h 0.79375 0.79375 v 7.14375 7.14375 h -0.79375 -0.79375 z m 5.55625,1.85208 v -5.29166 h 0.79375 c 0.71063,0 0.79375,0.0856 0.79375,0.81727 v 0.81727 l 0.80578,-0.67802 c 1.52268,-1.28125 3.67376,-1.40963 5.33884,-0.31862 1.19935,0.78584 1.5283,2.13035 1.5283,6.24662 v 3.69881 h -0.79375 -0.79375 v -3.46574 c 0,-3.82377 -0.30572,-4.95821 -1.48041,-5.49343 -1.60465,-0.73113 -3.60983,-0.0542 -4.22898,1.42762 -0.25711,0.61534 -0.37603,1.94862 -0.37603,4.21576 v 3.31579 h -0.79375 -0.79375 z m 31.0168,0.0661 0.0717,-5.22552 0.7276,-0.0837 0.72761,-0.0837 v 5.30924 5.30924 h -0.79935 -0.79934 z m 66.34986,0.74518 v -4.48035 l -0.7276,-0.0837 c -0.5774,-0.0664 -0.72761,-0.22027 -0.72761,-0.74517 0,-0.52491 0.15021,-0.67874 0.72761,-0.74518 0.65796,-0.0757 0.7276,-0.1846 0.7276,-1.13762 0,-2.35211 1.25471,-3.34267 4.0349,-3.18543 0.58875,0.0333 0.7276,0.16738 0.7276,0.7026 0,0.60407 -0.0997,0.66146 -1.14962,0.66146 -1.46114,0 -2.02538,0.57705 -2.02538,2.07135 v 1.10365 h 1.5875 c 1.51694,0 1.5875,0.0294 1.5875,0.66146 0,0.63206 -0.0706,0.66146 -1.5875,0.66146 h -1.5875 v 4.49791 4.49792 h -0.79375 -0.79375 z m 47.68555,-0.74518 0.0717,-5.22552 h 0.66146 c 0.58722,0 0.67631,0.13279 0.79375,1.18315 l 0.13229,1.18316 0.4774,-0.73277 c 0.61196,-0.9393 1.96455,-1.76358 2.89604,-1.76484 0.62606,-8e-4 0.7276,0.10567 0.7276,0.76331 0,0.65967 -0.12311,0.7874 -0.8992,0.933 -2.33615,0.43826 -3.31994,2.2632 -3.32832,6.17405 l -0.006,2.71198 h -0.79934 -0.79935 z m 8.14153,-2.18281 v -7.40834 h 0.79375 0.79375 v 5.02709 c 0,2.76489 0.0514,5.02708 0.11415,5.02708 0.0628,0 1.39132,-1.30969 2.95231,-2.91042 2.29705,-2.35551 2.98152,-2.91041 3.59002,-2.91041 0.41352,0 0.75185,0.0934 0.75185,0.20747 0,0.11411 -0.6641,0.85826 -1.47578,1.65365 -0.81169,0.79539 -1.71322,1.77424 -2.00342,2.17521 l -0.52763,0.72904 2.13571,2.76657 c 1.17464,1.52161 2.13571,2.83065 2.13571,2.90898 0,0.0783 -0.38851,0.14241 -0.86336,0.14241 -0.77662,0 -1.04677,-0.2405 -2.68904,-2.39393 l -1.82568,-2.39394 -1.14742,1.12611 c -1.03719,1.01793 -1.14742,1.2479 -1.14742,2.39393 0,1.23231 -0.0222,1.26783 -0.79375,1.26783 h -0.79375 z m 25.4,0 v -7.40834 h 0.79375 0.79375 v 7.40834 7.40833 h -0.79375 -0.79375 z m -147.63749,-6.35 c 0,-0.73076 0.0735,-0.79375 0.92604,-0.79375 0.85255,0 0.92604,0.063 0.92604,0.79375 0,0.73075 -0.0735,0.79375 -0.92604,0.79375 -0.85255,0 -0.92604,-0.063 -0.92604,-0.79375 z"
         id="path832" />
      <path
         style="fill:#2ad2c9;fill-opacity:1;stroke-width:0.26458332"
         d="m -326.10605,28.436279 c -8.7636,-1.24433 -16.27259,-6.73821 -19.95557,-14.60029 -0.56877,-1.21416 -1.31041,-3.21959 -1.64808,-4.4565103 l -0.61395,-2.24896 v -20.5052097 -20.50521 h 7.14375 7.14375 l 0.13262,19.57917 c 0.14658,21.6389297 0.0405,20.3283797 1.87799,23.1919197 1.11741,1.7413403 2.64534,3.0483603 4.70362,4.0235903 1.6182,0.76672 1.96523,0.83032 4.53056,0.83032 2.48771,0 2.94408,-0.0774 4.36562,-0.74038 0.87313,-0.40721 2.04408,-1.10554 2.60212,-1.55185 0.56534,-0.45214 1.11368,-0.71009 1.23835,-0.58253 0.12306,0.12591 0.58584,1.22474 1.02841,2.44185 0.96551,2.65523 2.65473,5.59543 4.64612,8.08689 0.80587,1.00823 1.46521,1.92251 1.46521,2.03173 0,0.33012 -3.77539,2.57592 -5.5266,3.2875 -3.7161,1.50998 -9.38052,2.25092 -13.13392,1.71797 z m 36.65219,-0.0124 c -3.4939,-0.48704 -8.17375,-2.30412 -11.092,-4.30675 -1.7889,-1.22763 -4.98246,-4.36513 -6.24722,-6.13757 -1.6703,-2.34075 -3.21388,-5.60729 -4.03148,-8.5314103 l -0.72201,-2.58225 v -20.3729097 -20.37292 h 7.14375 7.14375 l 0.13229,19.44687 0.13229,19.4468797 0.6,1.48306 c 1.289,3.18614 3.09753,5.1386603 6.03307,6.5134103 1.41723,0.6637 1.85057,0.73478 4.47943,0.73478 2.74543,0 3.00985,-0.0486 4.66439,-0.85816 2.26459,-1.10798 4.68785,-3.6367803 5.56257,-5.8048303 l 0.62096,-1.53909 0.13229,-19.7114597 0.13229,-19.71146 h 7.27604 7.27604 l 0.1323,19.84375 0.13229,19.8437497 0.71665,1.52952 c 1.00175,2.13798 3.34232,4.5098703 5.48517,5.5585603 1.63428,0.7998 1.90602,0.84942 4.65166,0.84942 2.76902,0 3.0061,-0.0444 4.70419,-0.88033 2.3023,-1.13342 4.25956,-3.0927303 5.31547,-5.3210403 l 0.82269,-1.73613 0.0712,-19.5581097 c 0.0506,-13.91769 0.15638,-19.66079 0.36665,-19.91415 0.23682,-0.28535 1.69367,-0.34206 7.33717,-0.28564 l 7.04168,0.0704 v 20.10833 c 0,22.1095697 0.0248,21.7188797 -1.64357,25.91961 -1.30085,3.2754 -2.78191,5.65003 -5.04409,8.08737 -2.31964,2.49924 -4.541,4.2099 -7.20297,5.54698 -9.45334,4.74833 -20.38446,3.46327 -28.4849,-3.34869 -0.75082,-0.63139 -1.49813,-1.14797 -1.66071,-1.14797 -0.16257,0 -1.05437,0.62588 -1.98179,1.39086 -3.14829,2.59686 -7.15154,4.55704 -10.99321,5.3828 -2.24657,0.4829 -6.82359,0.66823 -9.0023,0.36452 z m 81.55929,-1.79665 c -0.25753,-0.16547 -0.34397,-5.16416 -0.39687,-22.9510203 l -0.0676,-22.7394697 -5.42395,-0.1323 -5.42396,-0.13229 v -7.27604 -7.27604 l 5.41183,-0.0718 c 3.92417,-0.0521 5.46861,-0.16116 5.61835,-0.39687 0.11358,-0.1788 0.20833,-0.80923 0.21056,-1.40097 0.009,-2.43228 1.23696,-7.06283 2.59108,-9.77203 2.49064,-4.98304 7.2285,-9.55969 12.34247,-11.92249 2.23091,-1.03074 6.32604,-2.10439 8.95334,-2.34735 l 1.79014,-0.16555 -0.0703,7.33817 -0.0703,7.33817 -1.71979,0.3461 c -4.6241,0.93057 -8.04788,4.27024 -9.01873,8.79716 -0.15956,0.74402 -0.22438,1.52407 -0.14403,1.73345 0.11916,0.31053 1.13548,0.3939 5.51432,0.45235 l 5.36823,0.0717 0.0706,6.97897 c 0.0498,4.92727 -0.018,7.08576 -0.23083,7.34219 -0.23703,0.2856 -1.42522,0.36321 -5.56071,0.36321 -2.8926,0 -5.28738,0.0298 -5.32174,0.0661 -0.0344,0.0364 -0.12365,10.3650497 -0.19844,22.9526097 l -0.13596,22.8864503 -6.87917,0.0646 c -3.78354,0.0355 -7.02732,-0.0306 -7.20841,-0.14699 z m 40.74435,0.0417 c -0.25999,-0.10667 -0.33073,-3.96726 -0.33073,-18.0497203 0,-19.1891497 -0.0148,-19.4297997 -1.35468,-22.0562197 -0.3099,-0.60745 -1.2332,-1.76994 -2.05178,-2.58332 -1.91537,-1.90318 -3.41603,-2.61442 -6.98268,-3.30944 l -0.73184,-0.14261 0.0704,-7.20379 0.0704,-7.20379 1.94055,0.0804 c 4.20518,0.17426 9.49099,2.09982 13.02378,4.7444 0.95434,0.7144 1.88056,1.38877 2.05825,1.49859 0.20139,0.12446 0.99293,-0.39236 2.1013,-1.37198 3.55928,-3.14585 6.90797,-4.96993 11.38908,-6.20379 2.93406,-0.80789 9.57234,-0.79821 12.57554,0.0183 3.79907,1.03295 9.24409,4.02162 11.13635,6.11255 0.27149,0.29999 0.65735,0.54544 0.85745,0.54544 0.20011,0 1.11944,-0.641 2.04294,-1.42443 2.92782,-2.48375 6.69595,-4.38575 10.64687,-5.37411 2.50683,-0.62712 9.04202,-0.63115 11.533383,-0.007 6.4861,1.62461 12.12471,5.54577 15.68378,10.90671 1.6823,2.53402 2.57403,4.48189 3.512613,7.67292 l 0.700431,2.38125 0.08358,20.5594497 0.08358,20.5594603 -7.219114,-0.0542 -7.21911,-0.0542 -0.14431,-19.3145803 c -0.1529,-20.4647197 -0.1243,-20.0171297 -1.44558,-22.6218797 -2.03783,-4.01732 -6.746843,-6.45627 -11.239393,-5.82125 -3.6747,0.51941 -6.96468,2.93825 -8.55087,6.28672 l -0.84485,1.78349 -0.0728,19.5600497 c -0.051,13.7084803 -0.15964,19.6647103 -0.36313,19.9099003 -0.22673,0.2732 -1.75665,0.34985 -6.98318,0.34985 -3.68106,0 -6.88117,-0.0723 -7.11136,-0.1606 -0.37629,-0.1444 -0.41851,-2.09066 -0.41851,-19.2910103 0,-18.2094197 -0.0248,-19.2100497 -0.51481,-20.7844897 -2.76701,-8.89043 -14.83651,-10.534 -19.80291,-2.69667 -1.85026,2.91983 -1.76082,1.82475 -1.90728,23.3535997 l -0.13229,19.4468703 -6.87917,0.0475 c -3.78354,0.0261 -7.02799,-0.0135 -7.20989,-0.0882 z m -176.71984,-64.59434 c -5.96806,-2.13305 -7.57584,-9.74199 -2.95328,-13.97664 4.17342,-3.82322 10.89093,-2.41852 13.27606,2.77616 0.78672,1.71342 0.78672,4.96594 0,6.67936 -1.79237,3.90367 -6.40184,5.9225 -10.32278,4.52112 z"
         id="path830" />
    </g>
  </g>
</svg>
