<?xml version="1.0" encoding="UTF-8" standalone="no"?>
<!-- Created with Inkscape (http://www.inkscape.org/) -->

<svg
   xmlns:dc="http://purl.org/dc/elements/1.1/"
   xmlns:cc="http://creativecommons.org/ns#"
   xmlns:rdf="http://www.w3.org/1999/02/22-rdf-syntax-ns#"
   xmlns:svg="http://www.w3.org/2000/svg"
   xmlns="http://www.w3.org/2000/svg"
   xmlns:sodipodi="http://sodipodi.sourceforge.net/DTD/sodipodi-0.dtd"
   xmlns:inkscape="http://www.inkscape.org/namespaces/inkscape"
   width="641.27441mm"
   height="39.158333mm"
   viewBox="0 0 641.27441 39.158333"
   version="1.1"
   id="svg8"
   inkscape:version="0.92.5 (2060ec1f9f, 2020-04-08)"
   sodipodi:docname="supported-protocols.svg">
  <defs
     id="defs2">
        
        
    </defs>
  <sodipodi:namedview
     id="base"
     pagecolor="#ffffff"
     bordercolor="#666666"
     borderopacity="1.0"
     inkscape:pageopacity="0.0"
     inkscape:pageshadow="2"
     inkscape:zoom="3.959798"
     inkscape:cx="1848.4837"
     inkscape:cy="19.536124"
     inkscape:document-units="mm"
     inkscape:current-layer="layer1"
     showgrid="false"
     inkscape:window-width="2800"
     inkscape:window-height="1672"
     inkscape:window-x="80"
     inkscape:window-y="54"
     inkscape:window-maximized="1" />
  <metadata
     id="metadata5">
    <rdf:RDF>
      <cc:Work
         rdf:about="">
        <dc:format>image/svg+xml</dc:format>
        <dc:type
           rdf:resource="http://purl.org/dc/dcmitype/StillImage" />
        <dc:title></dc:title>
      </cc:Work>
    </rdf:RDF>
  </metadata>
  <g
     inkscape:label="Layer 1"
     inkscape:groupmode="layer"
     id="layer1"
     transform="translate(-567.79585,142.88869)">
    <g
       style="clip-rule:evenodd;fill-rule:evenodd;stroke-linecap:round;stroke-linejoin:round;stroke-miterlimit:1.5"
       id="g850"
       transform="matrix(0.17532701,0,0,0.17532701,870.75933,-132.07588)">
      <g
         id="g831"
         transform="translate(-353.98,-253.418)">
        <g
   id="g819">
            <path
   id="path815"
   style="fill:#757575;stroke:#757575;stroke-width:0.94999999px"
   d="m 401.701,279.916 -0.08,-0.024 c -33.733,-9.852 -41.893,60.015 0.398,64.585 -24.054,0 -43.583,-19.529 -43.583,-43.583 0,-24.054 19.529,-43.583 43.583,-43.583 0,0 2.715,0.063 4.023,0.184 7.549,1.866 22.141,8.367 24.452,29.271 2.708,24.499 -8.376,30.379 -10.99,32.491 -4.076,3.294 -14.35,4.431 -17.883,2 17.999,-9.335 16.731,-34.067 0.398,-41.245 l -0.175,-0.053 z"
   inkscape:connector-curvature="0" />

            <path
   id="path817"
   style="fill:none;stroke:#757575;stroke-width:0.94999999px"
   d="m 402.493,321.871 0.081,0.024 c 33.733,9.853 41.893,-60.015 -0.398,-64.584 24.054,0 43.582,19.529 43.582,43.583 0,24.054 -19.528,43.583 -43.582,43.583 0,0 -2.715,-0.064 -4.024,-0.184 -7.548,-1.867 -22.14,-8.368 -24.451,-29.272 -2.708,-24.499 8.376,-30.379 10.989,-32.49 4.077,-3.294 13.906,-5.432 17.439,-3 -17.999,9.335 -16.286,35.067 0.047,42.244 l 0.174,0.054 z"
   inkscape:connector-curvature="0" />

        </g>

        <g
   id="g829">
            <path
   id="path821"
   style="fill:#757575;fill-rule:nonzero"
   d="m 439.231,348.926 v -9.509 c 3.486,1.329 6.565,1.994 9.238,1.994 3.486,0 5.918,-1.167 7.298,-3.502 1.38,-2.335 2.07,-6.416 2.07,-12.244 v -66.463 h 9.151 v 66.105 c 0,16.462 -6.638,24.693 -19.914,24.693 -2.033,0 -4.648,-0.358 -7.843,-1.074 z"
   inkscape:connector-curvature="0" />

            <path
   id="path823"
   style="fill:#757575;fill-rule:nonzero"
   d="m 495.965,336.759 c -4.329,0 -9.863,-1.108 -16.602,-3.323 v -10.634 c 7.262,3.953 13.232,5.93 17.909,5.93 3.602,0 6.5,-1.108 8.693,-3.323 2.193,-2.215 3.29,-5.13 3.29,-8.742 0,-2.966 -0.719,-5.488 -2.157,-7.567 -1.438,-2.079 -4.089,-4.397 -7.952,-6.953 l -4.445,-3.016 c -5.49,-3.681 -9.361,-7.149 -11.613,-10.404 -2.251,-3.255 -3.377,-7.047 -3.377,-11.375 0,-5.828 1.801,-10.626 5.404,-14.392 3.602,-3.766 8.192,-5.649 13.769,-5.649 4.968,0 10.211,0.971 15.73,2.914 v 9.816 c -6.797,-3.136 -11.866,-4.704 -15.207,-4.704 -3.166,0 -5.781,0.989 -7.843,2.966 -2.063,1.976 -3.094,4.465 -3.094,7.464 0,2.522 0.755,4.754 2.266,6.697 1.51,1.943 4.27,4.261 8.279,6.953 l 4.619,3.068 c 5.577,3.715 9.47,7.225 11.678,10.531 2.207,3.306 3.311,7.277 3.311,11.912 0,6.578 -2.069,11.861 -6.209,15.849 -4.14,3.988 -9.623,5.982 -16.449,5.982 z"
   inkscape:connector-curvature="0" />

            <path
   id="path825"
   style="fill:#757575;fill-rule:nonzero"
   d="m 557.361,336.759 c -8.947,0 -16.144,-3.639 -21.591,-10.915 -5.447,-7.277 -8.17,-16.897 -8.17,-28.86 0,-12.032 2.738,-21.652 8.213,-28.86 5.476,-7.209 12.789,-10.813 21.94,-10.813 9.122,0 16.428,3.596 21.918,10.787 5.49,7.192 8.236,16.786 8.236,28.783 0,12.236 -2.746,21.941 -8.236,29.116 -5.49,7.174 -12.927,10.762 -22.31,10.762 z m 0.131,-8.027 c 6.594,0 11.692,-2.786 15.294,-8.359 3.602,-5.572 5.403,-13.437 5.403,-23.594 0,-9.85 -1.808,-17.553 -5.425,-23.108 -3.616,-5.556 -8.62,-8.334 -15.011,-8.334 -6.42,0 -11.431,2.787 -15.033,8.359 -3.602,5.573 -5.403,13.318 -5.403,23.237 0,9.884 1.786,17.655 5.359,23.312 3.573,5.658 8.512,8.487 14.816,8.487 z"
   inkscape:connector-curvature="0" />

            <path
   id="path827"
   style="fill:#757575;fill-rule:nonzero"
   d="m 600.717,334.867 v -75.665 h 8.977 l 32.463,58.436 V 259.202 H 650 v 75.665 h -8.933 l -32.506,-58.436 v 58.436 z"
   inkscape:connector-curvature="0" />

        </g>

    </g>
    </g>
    <path
       style="clip-rule:evenodd;fill:#757575;fill-rule:evenodd;stroke-width:0.99999994;stroke-linecap:round;stroke-linejoin:round;stroke-miterlimit:1.5"
       d="M 1773.4961 29.765625 C 1772.2571 29.716074 1770.9907 29.849816 1769.7305 30.1875 C 1763.0105 31.988483 1759.0155 38.906953 1760.8164 45.626953 C 1760.892 45.921945 1760.9838 46.212251 1761.082 46.496094 C 1758.3748 48.506122 1755.9756 50.907291 1753.9648 53.613281 C 1753.6806 53.515391 1753.3905 53.424695 1753.0957 53.345703 C 1746.3757 51.545703 1739.4576 55.539766 1737.6562 62.259766 C 1735.8553 68.979766 1739.8503 75.899219 1746.5703 77.699219 C 1746.8636 77.778211 1747.1582 77.845273 1747.4492 77.902344 C 1747.8374 81.323345 1748.7319 84.592825 1750.0547 87.632812 C 1749.8298 87.827798 1749.6081 88.032172 1749.3965 88.246094 C 1744.4763 93.166094 1744.4763 101.15422 1749.3965 106.07422 C 1754.3152 110.99324 1762.3036 110.99324 1767.2227 106.07422 C 1767.4366 105.86022 1767.6394 105.6409 1767.8359 105.41602 C 1770.8762 106.73802 1774.1456 107.63054 1777.5664 108.01953 C 1777.6193 108.31256 1777.6882 108.60552 1777.7676 108.89844 C 1779.5685 115.61844 1786.4863 119.61352 1793.207 117.8125 C 1799.927 116.0125 1803.922 109.09407 1802.1211 102.37305 C 1802.0417 102.07805 1801.9537 101.78775 1801.8555 101.50391 C 1804.5624 99.493916 1806.9616 97.09373 1808.9727 94.386719 C 1809.2565 94.484986 1809.547 94.575305 1809.8418 94.654297 C 1812.8088 95.449373 1815.8118 95.111879 1818.3984 93.912109 L 1811.7344 93.912109 A 1.8899528 1.8899528 0 0 1 1809.9473 92.642578 L 1807.334 85.121094 L 1806.7539 84.966797 L 1807.1914 84.712891 L 1806.2891 82.117188 L 1802.0977 80.994141 L 1799.8125 92.400391 A 1.8899528 1.8899528 0 0 1 1797.959 93.912109 L 1788.2715 93.912109 L 1790.5742 102.50781 L 1792.4355 99.287109 L 1793.4824 103.19727 L 1790.6191 108.1543 L 1785.6621 105.29102 L 1784.6152 101.38086 L 1787.8379 103.24219 L 1782.291 82.542969 L 1780.4297 85.763672 L 1779.3828 81.855469 L 1782.2441 76.898438 L 1787.2031 79.759766 L 1787.8477 82.166016 L 1788.2773 80.015625 L 1787.2285 79.734375 L 1784.3652 74.777344 L 1789.3242 71.914062 L 1789.8691 72.060547 L 1790.0527 71.140625 L 1789.3145 71.878906 L 1783.5898 71.878906 L 1783.5898 66.154297 L 1786.4512 63.292969 L 1786.4512 67.013672 L 1791.9844 61.480469 L 1792.998 56.412109 A 1.8899528 1.8899528 0 0 1 1794.8516 54.900391 L 1798.5664 54.900391 L 1801.6055 51.861328 L 1797.8828 51.861328 L 1800.7461 48.998047 L 1806.4707 48.998047 L 1806.4707 54.722656 L 1806.293 54.900391 L 1811.0469 54.900391 A 1.8899528 1.8899528 0 0 1 1812.834 56.154297 L 1813.9453 59.306641 C 1818.4428 54.362285 1818.3175 46.703045 1813.541 41.927734 C 1808.6212 37.007734 1800.6331 37.007734 1795.7129 41.927734 C 1795.5001 42.140711 1795.2961 42.359858 1795.0996 42.583984 C 1792.0597 41.261981 1788.7923 40.369458 1785.3711 39.980469 C 1785.3144 39.68748 1785.2493 39.393342 1785.1699 39.101562 C 1783.7067 33.640733 1778.8652 29.980345 1773.4961 29.765625 z M 1772.3184 39.845703 L 1777.2754 42.708984 L 1778.3223 46.619141 L 1775.0996 44.757812 L 1780.6465 65.458984 L 1782.5059 62.236328 L 1783.5547 66.146484 L 1780.6934 71.103516 L 1775.7344 68.240234 L 1774.6855 64.330078 L 1777.9102 66.191406 L 1772.3633 45.492188 L 1770.502 48.714844 L 1769.4551 44.804688 L 1772.3184 39.845703 z M 1803.6094 53.863281 L 1802.5723 54.900391 L 1803.6094 54.900391 L 1803.6094 53.863281 z M 1798.793 58.679688 L 1795.8047 61.667969 L 1793.0098 75.626953 L 1798.998 77.230469 L 1801.1484 66.511719 A 1.8899528 1.8899528 0 0 1 1804.7871 66.261719 L 1809.582 80.066406 L 1810.7109 80.369141 L 1808.8496 77.146484 L 1812.7598 78.193359 L 1815.6211 83.152344 L 1811.4824 85.541016 L 1813.0781 90.134766 L 1818.2734 90.134766 L 1825.5176 80.341797 C 1825.157 78.260092 1824.2773 76.313947 1822.9824 74.671875 L 1819.9492 78.818359 A 1.8899528 1.8899528 0 0 1 1816.6426 78.330078 L 1809.7109 58.679688 L 1798.793 58.679688 z M 1752.2734 61.986328 L 1756.1816 63.035156 L 1752.9609 64.894531 L 1773.6602 70.441406 L 1771.7988 67.21875 L 1775.709 68.265625 L 1778.5723 73.222656 L 1773.6133 76.085938 L 1769.7031 75.039062 L 1772.9258 73.177734 L 1752.2266 67.630859 L 1754.0879 70.853516 L 1750.1777 69.806641 L 1747.3145 64.847656 L 1752.2734 61.986328 z M 1790.9824 66.490234 L 1788.4551 69.017578 L 1790.4766 69.017578 L 1790.9824 66.490234 z M 1818.0293 70.888672 L 1819.0195 73.693359 L 1820.2031 72.074219 C 1819.528 71.613005 1818.8024 71.216471 1818.0293 70.888672 z M 1803.4883 74.056641 L 1802.6562 78.210938 L 1805.166 78.882812 L 1803.4883 74.056641 z M 1773.623 76.121094 L 1779.3477 76.121094 L 1779.3477 81.845703 L 1776.4863 84.707031 L 1776.4863 80.986328 L 1761.332 96.138672 L 1765.0527 96.138672 L 1762.1914 99.001953 L 1756.4668 99.001953 L 1756.4668 93.277344 L 1759.3281 90.416016 L 1759.3281 94.136719 L 1774.4824 78.984375 L 1770.7598 78.984375 L 1773.623 76.121094 z M 1792.4531 78.410156 L 1790.1055 90.134766 L 1796.4082 90.134766 L 1798.4395 80.013672 L 1792.4531 78.410156 z M 1785.0273 81.808594 L 1786.6836 87.986328 L 1787.6191 83.304688 L 1785.0273 81.808594 z M 1824.1152 88.589844 L 1822.1465 91.253906 C 1822.911 90.468291 1823.5704 89.571693 1824.1152 88.589844 z "
       id="path852"
       transform="matrix(0.26458333,0,0,0.26458333,567.79585,-142.88869)" />
    <path
       id="path854"
       style="clip-rule:evenodd;fill:#757575;fill-rule:evenodd;stroke:none;stroke-width:0.39687499px;stroke-linecap:round;stroke-linejoin:round;stroke-miterlimit:1.5"
       d="m 1098.979,-120.73817 c -0.062,0.42995 0.19,0.60828 0.5731,0.6813 0.916,0.0836 1.8124,0.1098 2.6623,0 1.0668,-0.2712 0.971,-1.11204 0,-1.10516 l -3.2354,-0.10345 c -0.8024,-0.063 -1.3708,-0.3183 -1.4615,-0.96547 -0.069,-0.62812 0.014,-1.24381 0.3043,-1.84309 0.2891,-0.5834 0.8241,-0.97895 1.7303,-1.09087 1.2616,-0.0757 2.5183,-0.0995 3.764,0 1.0816,0.077 1.6444,0.32041 1.8063,0.78978 0.1775,0.42148 0.1588,0.82126 0.1286,1.21999 h -2.0942 c -0.014,-0.27781 -0.1992,-0.42968 -0.5276,-0.47704 -0.8403,-0.0304 -1.6819,-0.0833 -2.518,0 -0.8152,0.21193 -0.7239,0.7665 0,0.85566 1.1626,0.0273 2.3294,0.0617 3.5002,0.10266 1.2557,0.11853 1.5536,0.83502 1.3954,1.83674 -0.1831,1.40837 -0.8329,1.98067 -1.6907,2.18016 -1.7695,0.29237 -3.5412,0.30242 -5.315,0 -0.6389,-0.099 -1.0662,-0.43021 -1.212,-1.07077 -0.01,-0.33416 0.018,-0.67071 0.1045,-1.01044 z m -8.6579,-4.39394 -0.6279,3.14087 c -0.2587,1.00516 0.084,1.61343 1.4267,1.56237 1.2229,0.0447 1.8944,-0.53076 2.1598,-1.56237 l 0.6482,-3.14087 h 2.3307 l -1.2906,6.64237 h -2.2247 l 0.2861,-1.50178 c -0.621,0.89483 -1.4463,1.36922 -2.4376,1.50178 -0.7927,0.0773 -1.5809,0.046 -2.3612,-0.19976 -0.867,-0.30983 -1.2239,-1.08003 -1.0279,-2.35029 l 0.812,-4.09232 z m -15.0469,6.59501 h -2.3032 l 0.2162,-1.04352 c -0.4733,0.7194 -1.2068,1.02579 -2.1217,1.04352 -0.7683,0.11933 -1.596,0.0847 -2.4429,0 -0.6657,-0.13335 -1.3406,-0.25241 -1.4052,-1.30651 0.018,-1.4277 0.295,-2.84242 0.9266,-4.23942 0.5813,-0.86704 1.7042,-1.22899 3.2909,-1.15914 1.5285,-0.003 2.5209,0.31591 2.6379,1.15914 l 0.7254,-3.78328 h 2.3498 z m 3.9577,-0.002 h -2.3032 l 1.8304,-9.32921 h 2.3497 l -0.7855,3.64041 c -0.014,0.0458 -0.024,0.0934 -0.031,0.14287 l 0.031,-0.14287 c 0.2193,-0.73581 1.2993,-1.01283 2.7384,-1.01045 1.5865,-0.0699 2.4733,0.0357 3.0546,0.9025 0.367,1.08611 -0.099,2.80881 -0.5344,4.16454 -0.339,1.05436 -0.8898,1.36869 -2.0016,1.63221 -0.8469,0.0847 -1.8164,0.11933 -2.585,0 -0.9149,-0.0177 -1.4417,-0.42201 -1.5872,-1.03505 z m -16.672,-6.65427 c -0.8752,-0.0169 -2.6979,0.0998 -3.3604,0.48922 -1.1147,0.65563 -1.2176,1.49436 -1.5119,2.5265 -0.159,0.55695 -0.5193,2.29976 0.1419,3.06864 0.6294,0.73184 2.7612,0.6477 3.4851,0.63923 0.8815,-0.0101 2.6066,0.0312 3.6065,-0.63923 0.8517,-0.57124 1.198,-2.14127 1.2912,-2.69187 0.1193,-0.70432 0.4495,-2.05899 -0.3056,-2.78527 -0.7065,-0.67998 -2.6443,-0.59346 -3.3468,-0.60722 z m -13.6392,2.86332 4.0465,-5.53402 h 4.3119 l -1.8515,9.32338 h -2.6578 l 1.2822,-6.65268 -4.9181,6.65268 h -1.9843 l -2.3096,-6.65268 -1.3348,6.65268 h -2.6861 l 1.864,-9.32338 h 4.286 z m 13.3493,-0.97446 c -0.6284,0.0132 -1.2216,-0.0577 -1.7063,0.20823 -0.5366,0.29448 -0.4943,0.55589 -0.6536,1.21126 -0.059,0.24262 -0.2378,1.0078 0.1305,1.3417 0.2109,0.19103 1.333,0.18045 1.6679,0.18045 0.3538,0 1.2163,0.0688 1.692,-0.27543 0.4249,-0.30692 0.4829,-1.01547 0.5271,-1.24672 0.042,-0.22278 0.1458,-0.96308 0,-1.10463 -0.3482,-0.33761 -1.2925,-0.32227 -1.6576,-0.31486 z m 9.6707,-0.0114 c -0.6283,0.0132 -1.2215,-0.0577 -1.7063,0.20823 -0.5365,0.29422 -0.4942,0.55589 -0.6535,1.21126 -0.059,0.24263 -0.2378,1.00754 0.1305,1.34144 0.2108,0.19129 1.3329,0.18071 1.6679,0.18071 0.3537,0 1.2163,0.0685 1.692,-0.27543 0.4249,-0.30718 0.4829,-1.01547 0.5268,-1.24672 0.043,-0.22304 0.146,-0.96308 0,-1.10463 -0.3479,-0.33761 -1.2922,-0.32253 -1.6574,-0.31486 z m 9.605,2.92021 c 0.6283,-0.0132 1.2215,0.0577 1.7062,-0.20823 0.5366,-0.29448 0.4943,-0.55589 0.6536,-1.21126 0.059,-0.24262 0.2378,-1.00753 -0.1305,-1.3417 -0.2108,-0.19103 -1.3329,-0.18045 -1.6676,-0.18045 -0.3541,0 -1.2166,-0.0685 -1.6923,0.27543 -0.4249,0.30692 -0.4829,1.01547 -0.5268,1.24672 -0.043,0.22278 -0.146,0.96308 0,1.10464 0.3479,0.3376 1.2922,0.32226 1.6574,0.31485 z"
       inkscape:connector-curvature="0" />
    <g
       style="clip-rule:evenodd;fill-rule:evenodd;stroke-linejoin:round;stroke-miterlimit:2"
       id="g906"
       transform="matrix(0.26458333,0,0,0.26458333,666.98908,-136.53658)">
      <g
         id="g887"
         transform="translate(-5.81684,-8.18576)">
        <g
   id="g873"
   transform="matrix(88.8889,0,0,88.8889,13,90)">
            <path
   id="path871"
   style="fill:#757575"
   d="m 0.035,-0.237 0.21,-0.013 c 0.005,0.034 0.014,0.06 0.028,0.078 0.023,0.029 0.055,0.044 0.098,0.044 0.031,0 0.056,-0.008 0.073,-0.023 0.017,-0.014 0.025,-0.032 0.025,-0.051 0,-0.019 -0.008,-0.035 -0.024,-0.05 C 0.429,-0.267 0.391,-0.28 0.332,-0.293 0.235,-0.315 0.165,-0.344 0.124,-0.38 0.082,-0.417 0.062,-0.463 0.062,-0.519 c 0,-0.036 0.01,-0.071 0.032,-0.104 0.021,-0.033 0.053,-0.058 0.096,-0.077 0.043,-0.019 0.101,-0.028 0.176,-0.028 0.091,0 0.161,0.017 0.209,0.051 0.048,0.034 0.077,0.088 0.086,0.162 L 0.452,-0.502 C 0.447,-0.535 0.435,-0.558 0.417,-0.573 0.399,-0.587 0.375,-0.595 0.344,-0.595 c -0.026,0 -0.045,0.006 -0.058,0.017 -0.013,0.011 -0.02,0.024 -0.02,0.039 0,0.012 0.005,0.022 0.016,0.031 0.011,0.01 0.035,0.018 0.074,0.027 0.097,0.02 0.166,0.041 0.208,0.063 0.042,0.021 0.072,0.048 0.092,0.079 0.019,0.032 0.028,0.067 0.028,0.106 0,0.046 -0.013,0.088 -0.038,0.127 -0.025,0.039 -0.061,0.068 -0.106,0.088 -0.046,0.02 -0.103,0.03 -0.173,0.03 -0.122,0 -0.206,-0.023 -0.253,-0.07 C 0.067,-0.105 0.041,-0.165 0.035,-0.237 Z"
   inkscape:connector-curvature="0" />

        </g>

        <g
   id="g877"
   transform="matrix(88.8889,0,0,88.8889,77.1927,90)">
            <path
   id="path875"
   style="fill:#757575"
   d="m 0.075,-0.716 h 0.206 l 0.27,0.396 V -0.716 H 0.759 V 0 H 0.551 L 0.283,-0.393 V 0 H 0.075 Z"
   inkscape:connector-curvature="0" />

        </g>

        <g
   id="g881"
   transform="matrix(88.8889,0,0,88.8889,151.238,90)">
            <path
   id="path879"
   style="fill:#757575"
   d="m 0.071,-0.716 h 0.291 l 0.112,0.436 0.112,-0.436 h 0.29 V 0 H 0.695 V -0.546 L 0.555,0 H 0.392 L 0.252,-0.546 V 0 H 0.071 Z"
   inkscape:connector-curvature="0" />

        </g>

        <g
   id="g885"
   transform="matrix(88.8889,0,0,88.8889,235.135,90)">
            <path
   id="path883"
   style="fill:#757575"
   d="M 0.072,-0.716 H 0.44 c 0.08,0 0.14,0.019 0.18,0.057 0.04,0.038 0.06,0.093 0.06,0.163 0,0.072 -0.022,0.129 -0.065,0.169 -0.044,0.041 -0.11,0.061 -0.199,0.061 H 0.294 V 0 H 0.072 Z m 0.222,0.305 h 0.055 c 0.042,0 0.072,-0.007 0.089,-0.022 0.018,-0.015 0.026,-0.034 0.026,-0.057 0,-0.022 -0.007,-0.041 -0.022,-0.057 C 0.427,-0.563 0.399,-0.57 0.357,-0.57 H 0.294 Z"
   inkscape:connector-curvature="0" />

        </g>

    </g>
    </g>
    <g
       style="clip-rule:evenodd;fill-rule:evenodd;stroke-miterlimit:1.5"
       id="g949"
       transform="matrix(0.26458333,0,0,0.26458333,1118.3259,-136.69956)">
      <g
         id="g928"
         transform="translate(3.5135,-125)">
        <g
   id="g920">
            <path
   id="path908"
   style="fill:none;stroke:#757575;stroke-width:2.5px"
   d="M 254.665,202.979 V 192.707"
   inkscape:connector-curvature="0" />

            <path
   id="path910"
   style="fill:none;stroke:#757575;stroke-width:2.5px"
   d="M 227.808,202.979 V 192.301"
   inkscape:connector-curvature="0" />

            <path
   id="path912"
   style="fill:none;stroke:#757575;stroke-width:2.5px"
   d="M 177.025,202.979 V 192.707"
   inkscape:connector-curvature="0" />

            <path
   id="path914"
   style="fill:none;stroke:#757575;stroke-width:2.5px"
   d="M 131.912,202.979 V 181.138"
   inkscape:connector-curvature="0" />

            <path
   id="path916"
   style="fill:none;stroke:#757575;stroke-width:2.5px"
   d="M 88.265,202.979 V 192.301"
   inkscape:connector-curvature="0" />

            <path
   id="path918"
   style="fill:none;stroke:#757575;stroke-width:2.5px"
   d="m 36.089,188.485 v 14.494 h 247.494 v -11.185"
   inkscape:connector-curvature="0" />

        </g>

        <path
   id="path922"
   style="fill:#757575"
   d="m 11.048,169.597 v 2.421 c 0.369,1.002 1.904,0.966 2.283,0 v -2.074 c 0.046,-0.566 -0.798,-1.192 -2.014,-1.843 -1.558,-0.795 -2.502,-1.902 -2.677,-3.399 v -1.816 c 0.008,-3.633 7.174,-3.561 7.262,0 v 1.816 h -2.571 v -1.816 c -0.802,-1.005 -2.261,-0.527 -2.283,0.736 -0.003,0.459 0.079,0.881 0.269,1.257 0.581,0.486 0.481,0.605 1.158,0.969 1.475,0.791 3.276,2.199 3.427,3.407 v 3.019 c -0.205,1.84 -1.685,2.422 -3.623,2.552 -2.593,-0.073 -3.695,-1.126 -3.836,-2.808 v -2.421 z m 31.384,-8.882 h 6.67 v 2.009 h -4.043 v 3.34 h 3.765 v 2.053 h -3.765 v 4.267 h 4.206 v 2.105 h -6.833 z m -22.863,5.345 h 2.244 v -5.345 h 2.623 v 13.774 h -2.623 v -6.358 h -2.244 v 6.358 h -2.611 v -13.774 h 2.611 z m 16.794,8.429 h -5.17 c -0.216,-0.189 -0.299,-0.472 -0.314,-0.802 v -4.185 c -0.108,-0.576 -0.401,-0.925 -0.838,-1.098 h -1.698 v 6.085 h -2.612 v -13.774 h 5.865 c 0.913,0.142 1.588,0.625 1.766,1.823 v 3.317 c -0.2,0.916 -0.761,1.443 -1.616,1.652 0.924,0.235 1.674,0.69 1.758,1.995 v 4.185 c 0.134,0.083 0.196,0.21 0.197,0.374 v 0.382 l 2.662,-13.728 h 2.911 l 2.661,13.774 h -2.661 l -0.347,-2.201 h -2.291 z m -28.12,0 H 5.582 L 5.235,172.288 H 2.944 l -0.273,2.201 H 0 l 2.671,-13.774 h 2.911 z m -4.121,-9.787 -0.847,5.38 h 1.618 z m 33.692,0 -0.847,5.38 h 1.618 z m -7.581,-1.933 h -1.826 v 3.671 h 1.598 c 0.345,-0.036 0.609,-0.195 0.731,-0.574 v -2.608 c -0.079,-0.256 -0.252,-0.414 -0.503,-0.489 z"
   inkscape:connector-curvature="0" />

        <path
   id="path924"
   style="fill:none;stroke:#757575;stroke-width:2.5px;stroke-linejoin:round"
   d="m 18.88,158.692 5.997,-10.455 h 22.216 l 11.108,19.365 -11.108,19.365 H 24.877 l -5.988,-10.439"
   inkscape:connector-curvature="0" />

        <path
   id="path926"
   style="fill:#757575"
   d="m 248.694,179.19 h 21.525 c 0.343,-12.972 -5.243,-18.967 -15.343,-19.651 -19.737,-0.343 -21.324,34.908 0.806,34.394 8.139,-0.903 12.561,-4.298 13.803,-9.827 l -8.237,-1.506 c -1.923,7.559 -12.459,5.627 -12.554,-3.41 z m 37.563,-18.878 h 5.88 v 7.043 h -5.88 v 16.519 c 0.306,3.02 2.266,3.623 5.88,1.807 l 0.836,6.733 c -9.421,2.964 -14.934,1.187 -15.381,-6.733 v -18.326 h -3.974 v -7.043 h 3.974 v -6.479 l 8.665,-5.036 z m -99.292,2.191 8.75,-2.213 c -4.048,-17.483 -30.845,-17.901 -37.4,0 -3.256,11.567 -1.073,20.197 4.052,27.238 10.049,10.576 31.11,7.52 33.348,-8.149 l -8.75,-2.813 c -0.793,10.659 -15.277,13.269 -19.536,2.813 -1.879,-5.866 -1.839,-11.766 0,-17.697 3.779,-9.702 16.889,-8.659 19.536,0.821 z m 25.048,30.472 h -8.492 v -32.394 h 7.805 v 4.396 c 8.035,-9.061 21.058,-6.275 21.922,5.09 v 22.908 h -8.668 v -19.862 c -0.154,-10.33 -13.094,-8.904 -12.567,3.088 z m -87.842,-10.171 -3.592,9.981 -9.7,-0.078 17.209,-44.774 h 9.952 l 17.86,44.774 -9.929,0.078 -3.881,-9.981 z M 94.767,147.933 c 12.475,0.431 17.818,14.669 6.19,21.161 13.239,3.165 11.324,25.16 -6.886,23.613 H 71.64 v -44.774 z m -13.95,25.585 v 11.922 h 13.11 c 8.587,-0.875 8.599,-12.087 -1.968,-11.922 z m 52.091,-15.008 -6.041,16.629 h 12.308 z m 115.994,15.337 h 12.764 c 0,0 0.156,-7.51 -6.289,-7.608 -6.585,-0.101 -6.475,7.608 -6.475,7.608 z M 92.287,155.434 h -11.47 v 10.416 h 12.312 c 7.654,-1.112 6.841,-10.259 -0.842,-10.416 z"
   inkscape:connector-curvature="0" />

    </g>
    </g>
    <g
       id="layer1-3"
       transform="matrix(0.18107531,0,0,0.18107531,617.38316,-148.62433)"
       style="fill:#757575;fill-opacity:1">
      <g
         id="g3180"
         style="fill:#757575;fill-opacity:1">
        <path
           id="path3121-6"
           d="m -140.9721,208.32073 c -0.43656,-0.0591 -1.86531,-0.23819 -3.175,-0.39793 -5.9682,-0.72793 -13.52311,-2.8515 -19.1823,-5.39186 -2.91619,-1.30906 -8.52079,-4.38318 -9.71013,-5.32602 l -0.6975,-0.55292 2.22726,-3.2084 c 1.22499,-1.76462 2.32978,-3.21244 2.45509,-3.21738 0.12531,-0.005 1.19687,0.57313 2.38125,1.2846 7.64668,4.59347 15.76324,7.39962 24.643,8.51984 3.07722,0.38821 11.00448,0.38621 13.89062,-0.004 8.58865,-1.15969 16.47272,-3.77288 23.17022,-7.67981 1.50945,-0.88052 2.83701,-1.5972 2.95014,-1.59262 0.11313,0.005 1.20425,1.45536 2.424732,3.22393 l 2.21905,3.21559 -0.68633,0.54639 c -1.24909,0.99439 -6.310172,3.67966 -9.553652,5.0689 -5.73974,2.45844 -11.13524,4.00609 -17.53113,5.02867 -2.46125,0.39351 -13.90592,0.74246 -15.82532,0.48252 z m 1.71652,-14.93995 c -5.81841,-0.40945 -12.95429,-2.24985 -18.34494,-4.73131 -2.92771,-1.3477 -7.31638,-3.915 -7.31638,-4.27996 0,-0.22747 2.82338,-4.41233 3.41838,-5.06675 0.0994,-0.10938 1.4961,0.55168 3.10371,1.46898 4.83988,2.76167 9.90691,4.5551 15.9675,5.65159 3.74959,0.67837 11.3137,0.61641 15.39285,-0.12608 5.27228,-0.95967 11.83028,-3.38464 15.86181,-5.86527 0.71337,-0.43895 1.34606,-0.79809 1.40597,-0.79809 0.15075,0 3.90008,5.33694 3.80021,5.4094 -0.0444,0.0322 -0.79501,0.48207 -1.66813,0.99977 -9.31138,5.52097 -20.50993,8.11962 -31.62098,7.33772 z m -0.65819,-14.7194 c -5.17736,-0.64884 -11.63071,-2.91398 -15.79963,-5.54572 l -1.01763,-0.6424 1.37959,-1.97593 c 0.75878,-1.08677 1.45651,-1.97594 1.55053,-1.97594 0.094,0 1.41161,0.64751 2.92799,1.43891 3.26301,1.70296 6.63353,2.87872 9.87049,3.44321 3.02792,0.52802 8.67139,0.5283 11.70348,5.2e-4 3.00527,-0.52303 7.27496,-1.9506 9.86631,-3.29877 1.11507,-0.58013 2.10934,-1.05477 2.20948,-1.05477 0.29614,0 2.84286,3.75279 2.7017,3.9812 -0.24302,0.39321 -3.47194,2.07899 -5.70235,2.97711 -2.69654,1.08584 -6.78288,2.17338 -9.58879,2.55201 -1.93208,0.26069 -8.31605,0.32422 -10.10117,0.10051 z M 11.295608,131.47974 V 99.994312 h 7.67102 7.67103 l 0.068,17.433108 0.068,17.43311 12.0328,-17.43311 12.0328,-17.433108 h 6.28769 6.28769 l 0.0681,17.317828 0.068,17.31784 11.91462,-17.25169 11.91458,-17.25169 9.31823,-0.0695 c 5.125002,-0.0382 9.312542,0.0213 9.305632,0.1323 -0.007,0.111 -9.575192,14.25119 -21.262843,31.42265 l -21.250299,31.22083 -7.83913,0.0701 -7.83913,0.0701 -0.0683,-14.9367 -0.0683,-14.93671 -10.44837,14.93277 -10.44838,14.93277 h -7.74173 -7.74173 z m 65.53348,28.48933 c 1.137149,-1.64784 10.99725,-15.81388 21.91131,-31.4801 l 19.843752,-28.48402 7.87135,-0.0053 7.87136,-0.0053 v 31.48542 31.48542 h -7.54063 -7.54062 v -4.49794 -4.49792 l -10.25261,0.0112 -10.252602,0.0112 -3.04271,4.4866 -3.04271,4.4866 -8.946731,1.4e-4 -8.94672,1.3e-4 2.067561,-2.99607 z m 42.416522,-27.431 c 0,-4.51115 -0.0478,-8.20209 -0.10621,-8.20209 -0.0584,0 -2.10312,2.9468 -4.54385,6.54844 -2.4407,3.60164 -4.96321,7.29258 -5.60556,8.20209 l -1.16793,1.65364 h 5.71177 5.71178 z m 25.92916,-1.05834 V 99.994307 h 8.01823 8.01825 L 172.243,116.96871 183.27477,133.9431 V 116.96871 99.994307 h 7.80521 7.80521 v 31.485423 31.48541 h -8.33414 -8.33413 l -10.78201,-16.17368 -10.78201,-16.17368 -0.0682,16.17368 -0.0682,16.17368 h -7.67088 -7.67088 z m -263.3927,-20.6709 c -3.00413,-1.98275 -8.23146,-3.92164 -12.43606,-4.6127 -3.78609,-0.62227 -9.62235,-0.39405 -13.22853,0.51727 -3.16489,0.7998 -4.68717,1.37223 -7.7796,2.92534 l -2.32985,1.17012 -1.38074,-2.02326 c -1.6292,-2.38733 -1.7827,-2.10866 2.22978,-4.04786 5.80108,-2.80361 10.44544,-3.82336 17.3302,-3.80514 5.10396,0.0135 7.52463,0.3691 11.89666,1.74758 2.47004,0.7788 7.7557,3.22404 8.94271,4.13707 l 0.59874,0.46054 -1.47608,2.0468 c -0.81184,1.12574 -1.49799,2.0381 -1.52478,2.02746 -0.0268,-0.0106 -0.40589,-0.25509 -0.84245,-0.54322 z m 325.42437,-2.72002 c -1.0877,-0.47377 -2.17638,-1.81997 -2.38919,-2.95433 -0.23817,-1.26961 0.49996,-3.12206 1.53877,-3.86176 1.72786,-1.23034 4.60481,-0.80502 5.82506,0.86116 1.34488,1.83636 0.58749,4.87778 -1.44438,5.79994 -1.3222,0.60009 -2.39977,0.6474 -3.53026,0.15499 z m 2.65896,-1.07349 c 0.63542,-0.29096 0.68659,-0.36774 0.25643,-0.38494 -0.34361,-0.0137 -0.64529,-0.30759 -0.8369,-0.81524 -0.16478,-0.43656 -0.42902,-0.79375 -0.58716,-0.79375 -0.15817,0 -0.28758,0.35719 -0.28758,0.79375 0,0.61736 -0.11758,0.79375 -0.52917,0.79375 -0.48506,0 -0.52916,-0.17639 -0.52916,-2.11667 v -2.11666 h 1.29053 c 1.52522,0 2.02213,0.43619 1.79435,1.57512 -0.0858,0.42904 -0.0241,1.15888 0.13742,1.62187 l 0.29345,0.84181 0.34941,-0.63034 c 0.64254,-1.15913 0.45662,-2.31461 -0.53141,-3.30263 -1.14218,-1.14219 -2.38382,-1.21948 -3.56905,-0.22218 -1.57919,1.32881 -1.26523,3.95293 0.5683,4.74992 1.05611,0.45908 1.19063,0.45946 2.18054,0.006 z m -0.66146,-3.05631 c 0.35277,-0.23159 0.35277,-0.28948 0,-0.52107 -0.59486,-0.3905 -0.79375,-0.32522 -0.79375,0.26053 0,0.58576 0.19889,0.65104 0.79375,0.26054 z m -320.27812,-4.119868 c -2.34379,-1.47895 -7.00128,-3.65224 -9.91394,-4.626079 -9.27829,-3.102157 -18.78795,-3.322614 -28.07487,-0.65084 -3.00205,0.863666 -7.49273,2.760146 -10.10882,4.269105 -2.45802,1.417792 -2.09119,1.574702 -4.52522,-1.935618 l -1.50643,-2.172552 1.11841,-0.706025 c 5.58616,-3.526388 13.59029,-6.357903 20.86399,-7.380785 3.59702,-0.505838 10.53308,-0.507463 14.37855,-0.0034 5.62736,0.737682 11.65252,2.572001 16.70999,5.087244 2.91543,1.449936 5.95313,3.28729 5.95313,3.600755 0,0.329136 -3.42663,5.204223 -3.65095,5.194233 -0.10203,-0.005 -0.66176,-0.30877 -1.24384,-0.676073 z m 6.87916,-11.526344 c -6.26762,-3.915743 -13.91701,-6.812703 -21.56354,-8.166497 -4.61967,-0.817898 -12.86819,-1.011639 -17.4625,-0.410162 -8.54606,1.118838 -16.43652,3.78592 -23.5659,7.965588 -1.10709,0.649044 -2.1215,1.178936 -2.25423,1.177536 -0.13273,-0.0013 -1.24361,-1.446874 -2.46862,-3.212168 -2.54692,-3.670226 -2.60945,-3.146859 0.60149,-5.035005 2.66565,-1.567501 8.3907,-4.270119 11.37747,-5.370963 15.43016,-5.687137 33.72258,-5.393349 49.12297,0.788951 5.30052,2.127829 13.124682,6.464011 12.868452,7.131746 -0.1137,0.296291 -4.004742,5.880013 -4.372842,6.275117 -0.0914,0.09804 -1.11858,-0.416819 -2.28275,-1.144143 z"
           style="fill:#757575;fill-opacity:1;stroke-width:0.26458338"
           inkscape:connector-curvature="0" />
        <path
           id="path3121"
           d="m -141.53833,164.17744 c -7.99737,-1.51671 -14.4245,-6.50625 -17.18533,-13.34138 -2.34188,-5.79789 -2.60486,-14.3969 -0.62435,-20.41467 2.51948,-7.6554 8.82258,-13.11714 17.18256,-14.88896 3.52225,-0.74651 9.71223,-0.74651 13.23447,0 8.33396,1.76631 14.61224,7.18986 17.18149,14.8424 1.58406,4.71816 1.75356,12.02512 0.40234,17.34476 -2.03239,8.00135 -7.98089,13.80103 -16.50723,16.09426 -2.60138,0.69966 -10.76776,0.91665 -13.68395,0.36359 z m 9.81791,-10.9147 c 3.97325,-1.3962 5.95673,-4.17482 6.92194,-9.69685 1.00653,-5.75836 -0.19661,-11.54349 -3.08481,-14.83297 -1.92202,-2.18906 -6.11252,-3.44795 -9.52779,-2.86229 -4.46254,0.76524 -7.23226,3.50854 -8.62293,8.54067 -0.59105,2.13873 -0.66348,8.13131 -0.12445,10.29759 1.25575,5.04675 4.30005,8.26077 8.49358,8.96713 1.73045,0.29147 4.48361,0.10006 5.94446,-0.41328 z m 101.81845,10.90505 c -2.495687,-0.56384 -4.931291,-1.85241 -6.792833,-3.59379 -3.03902,-2.84285 -4.297854,-6.25339 -4.049157,-10.97032 0.323276,-6.13139 2.96653,-9.87215 8.960803,-12.68143 3.806359,-1.78389 8.675724,-3.00959 15.826607,-3.9838 4.721511,-0.64325 4.233333,-0.28576 4.233333,-3.10002 0,-3.29748 -0.526618,-4.40964 -2.558796,-5.40389 -1.254349,-0.6137 -1.790057,-0.71462 -3.751728,-0.70677 -3.881686,0.0155 -5.861883,1.35765 -6.768052,4.58721 l -0.442552,1.57724 h -6.769722 -6.769724 l 0.175582,-1.71378 c 0.700395,-6.83627 4.780286,-11.0429 12.252275,-12.63289 2.096934,-0.44622 3.532394,-0.55206 7.488967,-0.5522 11.9079913,-5.3e-4 17.72203,2.52752 20.0092894,8.69998 0.4420923,1.19304 0.4976865,2.74619 0.6527906,18.23744 0.172249,17.20394 0.1921086,17.55489 1.1866059,20.96823 l 0.1734476,0.59531 h -6.4872657 -6.4872687 l -0.3006431,-0.8599 c -0.165351,-0.47294 -0.370253,-1.52249 -0.455337,-2.33234 l -0.154694,-1.47244 -1.256522,1.22389 c -1.366441,1.33096 -4.096409,2.77783 -7.012694,3.71669 -2.36188,0.76038 -8.333052,0.97813 -10.902712,0.39758 z m 13.008216,-10.7368 c 2.375558,-1.14088 4.026207,-3.27109 4.810876,-6.20856 0.376296,-1.4087 0.498232,-6.48229 0.155789,-6.48229 -0.624514,0 -10.627807,3.02621 -11.541521,3.49156 -2.82769,1.44011 -4.050766,3.23541 -3.777287,5.54451 0.380603,3.21358 2.351966,4.50528 6.659139,4.36327 1.851774,-0.061 2.672921,-0.21859 3.693004,-0.70849 z M -205.92738,131.8766 v -31.61771 h 7.9375 7.9375 v 24.87083 24.87084 h 12.30313 12.30312 v 6.74687 6.74688 h -20.24062 -20.24063 z m 104.51042,-0.0146 v -31.63231 l 18.719266,0.10063 c 17.973177,0.0966 18.810763,0.12294 21.014814,0.66026 7.697086,1.87645 12.11509,5.96135 14.03296,12.9749 0.454458,1.66192 0.561197,2.83841 0.580805,6.40174 0.02278,4.14021 -0.01442,4.47492 -0.720267,6.48229 -1.494375,4.24981 -4.720196,7.92398 -8.710547,9.92121 -1.163695,0.58245 -2.273593,1.059 -2.466435,1.059 -0.192841,0 -0.419658,0.11171 -0.504039,0.24823 -0.08438,0.13653 3.004219,5.7872 6.863554,12.55705 3.859331,6.76985 7.016966,12.43426 7.016966,12.58758 0,0.19115 -2.790576,0.25687 -8.8783,0.20911 l -8.878297,-0.0697 -6.150819,-11.24479 -6.150819,-11.2448 -4.946922,-0.072 -4.946925,-0.072 v 11.38292 11.38292 h -7.9375 -7.937495 z m 34.18754,-3.62984 c 1.368737,-0.63464 2.792391,-1.94419 3.392596,-3.12068 0.826627,-1.62033 1.168193,-4.37188 0.803018,-6.46887 -0.53154,-3.05232 -1.637474,-4.5921 -4.119618,-5.73568 -1.280446,-0.58993 -1.596858,-0.61216 -9.855729,-0.69224 l -8.532812,-0.0827 v 8.36736 8.36736 l 8.665104,-0.0895 c 7.516378,-0.0777 8.795332,-0.1499 9.647441,-0.545 z m 274.43579,-20.14335 c -2.75862,-1.50338 -3.14674,-5.07113 -0.85043,-6.81609 1.72786,-1.23034 4.60481,-0.80502 5.82507,0.86116 1.34488,1.83636 0.58748,4.87778 -1.44439,5.79994 -1.3222,0.60009 -2.39977,0.6474 -3.53025,0.15499 z m 2.65895,-1.07349 c 0.63543,-0.29096 0.6866,-0.36774 0.25644,-0.38494 -0.34362,-0.0137 -0.6453,-0.30759 -0.83691,-0.81524 -0.16478,-0.43656 -0.42902,-0.79375 -0.58716,-0.79375 -0.15817,0 -0.28758,0.35719 -0.28758,0.79375 0,0.61736 -0.11758,0.79375 -0.52916,0.79375 -0.48506,0 -0.52917,-0.17639 -0.52917,-2.11667 v -2.11666 h 1.29053 c 1.52522,0 2.02213,0.43619 1.79435,1.57512 -0.0858,0.42904 -0.0241,1.15888 0.13743,1.62187 l 0.29345,0.84181 0.34941,-0.63034 c 0.64254,-1.15913 0.45661,-2.31461 -0.53142,-3.30263 -1.14218,-1.14219 -2.38382,-1.21948 -3.56904,-0.22218 -1.5792,1.32881 -1.26524,3.95293 0.5683,4.74992 1.05611,0.45908 1.19062,0.45946 2.18053,0.006 z m -0.66146,-3.05631 c 0.35277,-0.23159 0.35277,-0.28948 0,-0.52107 -0.59486,-0.3905 -0.79375,-0.32522 -0.79375,0.26053 0,0.58576 0.19889,0.65104 0.79375,0.26054 z"
           style="fill:#757575;fill-opacity:1;stroke-width:0.26458335"
           inkscape:connector-curvature="0" />
      </g>
    </g>
    <g
       style="clip-rule:evenodd;fill-rule:evenodd;stroke-linejoin:round;stroke-miterlimit:2"
       id="g978"
       transform="matrix(0.26458333,0,0,0.26458333,935.36032,-136.53869)">
      <g
         id="g966"
         transform="translate(-354.103,-125)">
        <path
   id="path964"
   style="fill:#757575"
   d="m 401.207,160 v 12 l -30,12 30,12 v 11.714 L 358.207,189 V 179 Z M 607,160 v 12 l 30,12 -30,12 v 11.714 L 650,189 v -10 z m -52.793,46 h -11 v -62 h 11 z m 34,0 h -9 l 16,-63.714 h 9 z m -163,0 h -14 l 16,-23 -16,-22 h 15 l 8,13 8,-13 h 14 l -15,22 17,23 h -15 l -9,-13 z m 50,-45 v 6 c 9.29,-9.409 20.943,-8.977 27,0 7.586,-9.984 25.54,-9.606 28,5 v 34 h -12 v -31 c -0.241,-8.945 -14.949,-6.932 -15,4 v 27 h -12 v -31 c -0.306,-8.648 -14.884,-6.649 -15,3 v 28 h -12 v -45 z"
   inkscape:connector-curvature="0" />

    </g>
    </g>
    <path
       style="fill:#757575;fill-opacity:1;stroke-width:0.13223295"
       d="m 760.73626,-114.66541 c -3.01455,-0.96449 -4.22202,-4.35282 -2.51192,-7.04881 0.66318,-1.0455 1.86405,-1.76875 3.35042,-2.01785 l 0.49587,-0.0831 v 0.79939 c 0,0.65154 -0.04,0.79939 -0.21606,0.79939 -0.93462,0 -2.24217,0.93623 -2.62864,1.88216 -0.31341,0.76713 -0.29467,1.90456 0.0422,2.5584 0.96582,1.87478 3.30577,2.36871 4.80498,1.01426 0.75157,-0.67899 1.08957,-1.39295 1.09563,-2.31429 l 0.005,-0.76034 h 2.60915 c 2.46929,0 2.6167,-0.0141 2.74996,-0.2631 0.32719,-0.61136 1.49933,-0.85169 2.25302,-0.46194 0.99431,0.51417 1.05307,2.23077 0.0992,2.89886 -0.17884,0.12526 -0.57577,0.20637 -1.00994,0.20637 -0.6462,0 -0.75748,-0.0447 -1.1518,-0.46281 l -0.43649,-0.46282 h -1.7788 -1.7788 l -0.22445,0.68621 c -0.47995,1.46735 -1.59335,2.55811 -3.07988,3.01725 -1.03781,0.32055 -1.71658,0.32377 -2.68864,0.0127 z m 10.16039,0.11529 c -0.86469,-0.21789 -1.73657,-0.74215 -2.38228,-1.43246 -0.34401,-0.36778 -0.62548,-0.72566 -0.62548,-0.79529 0,-0.0696 0.27778,-0.28185 0.6173,-0.47161 l 0.6173,-0.34502 0.37424,0.45401 c 0.51845,0.62898 1.58796,1.13905 2.38835,1.13905 2.44237,0 3.9441,-2.65177 2.66938,-4.7136 -0.24089,-0.38962 -0.64278,-0.78944 -1.04041,-1.03504 -0.56123,-0.34666 -0.77303,-0.4002 -1.5833,-0.4002 -0.78934,0 -1.03508,0.0586 -1.57388,0.3753 -0.35116,0.20641 -0.65535,0.35518 -0.67596,0.33058 -0.0206,-0.0246 -0.60471,-1.02586 -1.298,-2.22504 -1.12283,-1.94216 -1.30503,-2.18944 -1.66786,-2.26364 -0.60412,-0.12356 -1.00766,-0.4361 -1.26602,-0.98054 -0.30973,-0.65273 -0.17734,-1.30817 0.37602,-1.86153 0.7936,-0.79359 2.02912,-0.68062 2.58838,0.23668 0.27826,0.45641 0.35277,1.2866 0.14983,1.66956 -0.0877,0.16549 0.0929,0.58851 0.70299,1.64637 0.45155,0.78301 0.884,1.48665 0.961,1.56365 0.0985,0.0985 0.37431,0.0939 0.93056,-0.0155 2.00655,-0.39476 4.10737,0.75548 5.03581,2.75722 0.50359,1.08574 0.49456,2.53978 -0.0228,3.67416 -0.71235,1.56193 -2.25989,2.64651 -3.93935,2.76088 -0.46168,0.0314 -1.06279,0.001 -1.33582,-0.0679 z m -9.8481,-3.22666 c -1.11275,-0.93631 -0.72539,-2.65728 0.66357,-2.9481 0.46014,-0.0963 0.55195,-0.20617 1.40779,-1.68417 l 0.91555,-1.5811 -0.46866,-0.51876 c -1.82495,-2.01999 -1.51204,-5.1152 0.68785,-6.80401 0.81291,-0.62405 1.5653,-0.86009 2.77472,-0.8705 0.87656,-0.008 1.18648,0.0505 1.8083,0.33896 1.68853,0.78316 2.63267,2.16647 2.72506,3.99261 0.0441,0.87121 2.7e-4,1.21665 -0.23247,1.83376 l -0.28679,0.76035 -0.6186,-0.35412 c -0.34023,-0.19477 -0.63426,-0.36415 -0.6534,-0.3764 -0.0191,-0.0122 0.0552,-0.23777 0.16529,-0.50116 0.70182,-1.67968 -0.49002,-3.80526 -2.34263,-4.17797 -1.71319,-0.34466 -3.31574,0.76978 -3.70039,2.5733 -0.24863,1.16574 0.50578,2.66718 1.62774,3.23956 0.28388,0.14483 0.51614,0.29473 0.51614,0.33312 0,0.0384 -0.56773,1.04857 -1.26164,2.24486 -1.25158,2.15772 -1.26042,2.17916 -1.10813,2.68745 0.32442,1.08281 -0.33566,2.00639 -1.50313,2.10321 -0.61165,0.0507 -0.75441,0.0135 -1.11617,-0.29089 z m 34.93984,-1.17791 c -1.2365,-0.4112 -1.97611,-1.06241 -2.49542,-2.19712 -0.22248,-0.48611 -0.27599,-0.86862 -0.27844,-1.99021 -0.002,-1.223 0.0379,-1.47583 0.34092,-2.12177 0.47495,-1.01261 1.06245,-1.63763 1.94534,-2.06959 1.01885,-0.49847 2.41928,-0.51811 3.38553,-0.0475 0.80589,0.39254 1.54656,1.1416 1.92511,1.94691 0.33109,0.70437 0.562,1.92955 0.44872,2.38087 l -0.0772,0.30774 h -3.09314 c -2.38675,0 -3.09297,0.0377 -3.0924,0.16529 0.002,0.45246 0.32068,1.2127 0.67972,1.62162 0.93444,1.06427 2.86083,0.87443 3.49092,-0.34403 0.18877,-0.36506 0.24348,-0.38502 1.05522,-0.38502 0.92419,0 0.95615,0.0335 0.67431,0.70809 -0.27932,0.6685 -0.98105,1.38938 -1.71406,1.76082 -0.8074,0.40914 -2.37018,0.5382 -3.1951,0.26386 z m 3.31097,-5.47661 c -0.26958,-1.09356 -1.0667,-1.75208 -2.12088,-1.75208 -1.05417,0 -1.8513,0.65852 -2.12087,1.75208 l -0.0896,0.36364 h 2.21051 2.21052 z m 6.77236,5.44948 c -0.34558,-0.11063 -0.83573,-0.40908 -1.09092,-0.66428 l -0.46339,-0.46338 v 0.53334 0.53334 h -0.85951 -0.85952 v -5.88437 -5.88437 h 0.92563 0.92563 v 2.19202 2.19202 l 0.38739,-0.38739 c 0.64194,-0.64193 1.28569,-0.88536 2.32339,-0.87856 2.06041,0.0135 3.49238,1.40959 3.76717,3.67274 0.26463,2.17951 -0.54085,4.09797 -2.04814,4.87817 -0.69095,0.35764 -2.14915,0.43556 -3.00773,0.16072 z m 2.08103,-1.64712 c 0.22431,-0.13863 0.55434,-0.50789 0.73339,-0.82058 0.27967,-0.48842 0.32554,-0.7362 0.32554,-1.75862 0,-1.02397 -0.0461,-1.27245 -0.33058,-1.78003 -0.47503,-0.8477 -1.05174,-1.19521 -1.9835,-1.19521 -0.95681,0 -1.53583,0.35952 -1.962,1.21825 -0.4327,0.87187 -0.4453,2.46831 -0.0263,3.33382 0.6172,1.27499 2.07394,1.72518 3.24346,1.00237 z m 16.92689,1.76937 c -2.20066,-0.54779 -3.34988,-2.24177 -3.21106,-4.73319 0.0734,-1.31641 0.43693,-2.21191 1.20219,-2.961 1.90073,-1.86058 5.32036,-1.47487 6.65982,0.75117 0.57001,0.94729 0.79605,2.27948 0.58298,3.43584 -0.4093,2.22137 -1.80001,3.458 -3.97772,3.53702 -0.54546,0.0198 -1.11076,0.006 -1.25621,-0.0298 z m 1.65877,-1.50501 c 0.56285,-0.15636 1.22695,-0.80981 1.50811,-1.48393 0.23426,-0.56165 0.26864,-1.91877 0.067,-2.64479 -0.16264,-0.58562 -0.67542,-1.22859 -1.19346,-1.49648 -0.20591,-0.10648 -0.69568,-0.1936 -1.08839,-0.1936 -1.46711,0 -2.28314,1.09563 -2.26524,3.04136 0.0132,1.4325 0.46998,2.24625 1.51549,2.69973 0.54558,0.23664 0.82981,0.25181 1.45649,0.0777 z m 7.57537,1.34928 c -1.78535,-0.63738 -2.68861,-2.04352 -2.68861,-4.18547 0,-2.0643 0.67555,-3.3088 2.20476,-4.06163 0.80489,-0.39624 1.01331,-0.44166 2.02669,-0.44166 1.01338,0 1.22181,0.0454 2.02669,0.44166 1.53221,0.75431 2.20477,1.99685 2.20477,4.0733 0,1.91114 -0.74462,3.25057 -2.204,3.96458 -0.98294,0.4809 -2.55176,0.57284 -3.5703,0.20922 z m 2.23054,-1.35498 c 0.5908,-0.16409 1.32141,-0.96882 1.53903,-1.69516 0.45668,-1.52426 -0.0916,-3.36253 -1.16914,-3.91973 -0.49273,-0.2548 -1.62245,-0.2548 -2.11519,0 -0.80904,0.41837 -1.3204,1.48673 -1.32185,2.76169 -10e-4,0.90614 0.23261,1.58429 0.75685,2.19676 0.61258,0.71565 1.34637,0.92415 2.3103,0.65644 z m 16.172,1.51021 c -0.81778,-0.20945 -1.19335,-0.38395 -1.60592,-0.7462 -0.55498,-0.48728 -0.97262,-1.26511 -0.97262,-1.81146 v -0.40197 h 0.91512 c 0.90041,0 0.91647,0.006 0.99861,0.3801 0.17663,0.80421 1.25663,1.31813 2.37862,1.13187 1.16751,-0.19382 1.65007,-0.77036 1.20865,-1.44406 -0.27938,-0.42639 -0.75719,-0.66271 -1.73236,-0.8568 -1.84291,-0.3668 -2.62079,-0.69398 -3.15258,-1.32598 -1.02898,-1.22287 -0.27957,-3.08057 1.44455,-3.58084 0.80348,-0.23314 2.59247,-0.23469 3.27311,-0.003 0.67762,0.23081 1.39727,0.88227 1.69248,1.53209 0.38066,0.83792 0.36122,0.86064 -0.73623,0.86064 -0.86237,0 -0.99298,-0.032 -1.06567,-0.26102 -0.17322,-0.54575 -0.70192,-0.79684 -1.67785,-0.79684 -0.79391,0 -0.9564,0.0426 -1.23838,0.32457 -0.41322,0.41322 -0.40762,0.53836 0.0444,0.99034 0.29272,0.29273 0.67672,0.44111 1.8589,0.71832 0.81948,0.19216 1.71706,0.46524 1.99462,0.60684 1.94505,0.99229 1.70747,3.45369 -0.42187,4.37068 -0.68403,0.29458 -2.56111,0.47761 -3.20554,0.31256 z m -70.2178,-0.34802 c -0.0329,-0.0909 -0.60354,-1.91961 -1.26797,-4.06377 -0.66444,-2.14416 -1.23803,-3.97656 -1.27466,-4.07202 -0.0522,-0.13605 0.15629,-0.16514 0.96487,-0.13463 l 1.03147,0.0389 0.79982,3.07112 c 0.4399,1.68911 0.83764,3.02797 0.88387,2.97524 0.0462,-0.0527 0.36298,-1.22646 0.70389,-2.6083 0.34091,-1.38184 0.67946,-2.73812 0.75234,-3.01396 l 0.13249,-0.50154 0.95007,0.0387 0.95006,0.0387 0.72239,3.0083 c 0.39731,1.65456 0.75939,3.0083 0.80463,3.0083 0.0452,0 0.40004,-1.17522 0.78848,-2.6116 0.38844,-1.43638 0.75899,-2.80499 0.82345,-3.04136 l 0.1172,-0.42976 h 0.96783 0.96784 l -1.33147,4.23654 -1.33147,4.23653 -0.99066,-0.0381 -0.99066,-0.0381 -0.73459,-2.93256 c -0.40403,-1.6129 -0.76657,-2.9639 -0.80565,-3.00222 -0.0391,-0.0383 -0.36103,1.10282 -0.71546,2.53586 -0.35442,1.43303 -0.69714,2.79891 -0.76161,3.03528 l -0.11722,0.42975 h -0.98968 c -0.67163,0 -1.00893,-0.0531 -1.0496,-0.16529 z m 30.24902,-5.68602 0.0344,-5.85131 h 0.92563 0.92563 l 0.0364,2.07925 0.0364,2.07924 0.59482,-0.45403 c 0.967,-0.73813 1.8527,-0.88933 3.07804,-0.52544 0.83021,0.24654 1.49264,0.86729 1.71401,1.60618 0.10629,0.35475 0.16023,1.6092 0.16023,3.72611 v 3.19131 h -0.92563 -0.92563 v -2.63815 c 0,-4.07029 -0.20558,-4.57759 -1.81393,-4.47617 -0.64424,0.0406 -0.89835,0.1221 -1.17408,0.37643 -0.65169,0.60112 -0.71451,0.94898 -0.71451,3.95675 v 2.78114 h -0.99312 -0.99312 z m 29.05956,-0.0391 v -5.89041 l 0.89258,0.0391 0.89257,0.0391 0.0661,3.27497 0.0661,3.27498 1.65093,-1.65513 1.65092,-1.65512 1.12597,10e-4 1.12596,0.001 -1.55795,1.54507 c -0.85688,0.8498 -1.53289,1.61043 -1.50224,1.69031 0.0558,0.14534 3.05304,4.74764 3.29489,5.0593 0.10052,0.12953 -0.12555,0.16413 -1.04496,0.15991 l -1.17323,-0.005 -1.08476,-1.7467 c -1.58644,-2.55453 -1.37688,-2.37212 -2.01389,-1.75292 l -0.53776,0.5227 v 1.49385 1.49384 h -0.92562 -0.92564 z"
       id="path1002"
       inkscape:connector-curvature="0" />
  </g>
</svg>
