<?xml version="1.0" encoding="UTF-8" standalone="no"?>
<!-- Created with Inkscape (http://www.inkscape.org/) -->

<svg
   xmlns:dc="http://purl.org/dc/elements/1.1/"
   xmlns:cc="http://creativecommons.org/ns#"
   xmlns:rdf="http://www.w3.org/1999/02/22-rdf-syntax-ns#"
   xmlns:svg="http://www.w3.org/2000/svg"
   xmlns="http://www.w3.org/2000/svg"
   xmlns:sodipodi="http://sodipodi.sourceforge.net/DTD/sodipodi-0.dtd"
   xmlns:inkscape="http://www.inkscape.org/namespaces/inkscape"
   width="205.79753mm"
   height="205.79753mm"
   viewBox="0 0 205.79753 205.79753"
   version="1.1"
   id="svg8"
   sodipodi:docname="supported-devices-banner.svg"
   inkscape:version="0.92.5 (2060ec1f9f, 2020-04-08)">
  <defs
     id="defs2">
    <path
       style="opacity:1;fill:none;fill-opacity:1;stroke:#000000;stroke-width:0.26499999;stroke-linecap:round;stroke-linejoin:round;stroke-miterlimit:4;stroke-dasharray:none;stroke-dashoffset:0;stroke-opacity:1;paint-order:normal"
       d="M 113.05988,5.5922994 A 75.236374,75.236374 0 0 1 196.64906,71.424451 75.236374,75.236374 0 0 1 130.81692,155.01364 75.236374,75.236374 0 0 1 47.22773,89.181495 75.236374,75.236374 0 0 1 113.05988,5.5922994 Z"
       id="path1275-6"
       inkscape:connector-curvature="0" />
  </defs>
  <sodipodi:namedview
     id="base"
     pagecolor="#ffffff"
     bordercolor="#666666"
     borderopacity="1.0"
     inkscape:pageopacity="0.0"
     inkscape:pageshadow="2"
     inkscape:zoom="1.4"
     inkscape:cx="147.58279"
     inkscape:cy="320.11073"
     inkscape:document-units="mm"
     inkscape:current-layer="layer1"
     showgrid="false"
     showguides="true"
     inkscape:guide-bbox="true"
     inkscape:window-width="2800"
     inkscape:window-height="1672"
     inkscape:window-x="80"
     inkscape:window-y="54"
     inkscape:window-maximized="1">
    <sodipodi:guide
       position="99.609395,102.01482"
       orientation="1,0"
       id="guide826"
       inkscape:locked="false"
       inkscape:label=""
       inkscape:color="rgb(0,0,255)" />
    <sodipodi:guide
       position="99.609395,102.01482"
       orientation="0,1"
       id="guide828"
       inkscape:locked="false"
       inkscape:label=""
       inkscape:color="rgb(0,0,255)" />
  </sodipodi:namedview>
  <metadata
     id="metadata5">
    <rdf:RDF>
      <cc:Work
         rdf:about="">
        <dc:format>image/svg+xml</dc:format>
        <dc:type
           rdf:resource="http://purl.org/dc/dcmitype/StillImage" />
        <dc:title />
      </cc:Work>
    </rdf:RDF>
  </metadata>
  <g
     inkscape:groupmode="layer"
     id="layer2"
     inkscape:label="Layer 2"
     transform="translate(-25.390605,-21.217285)">
    <g
       id="g1416"
       transform="translate(3.4051014,-0.61911401)">
      <path
         inkscape:transform-center-y="-72.793172"
         inkscape:transform-center-x="-0.044872737"
         sodipodi:nodetypes="ccccccccccccccc"
         inkscape:connector-curvature="0"
         id="path953"
         d="M 103.84896,77.170385 C 100.2907,71.14062 97.780152,64.961181 99.171502,58.224329 l 7.843008,-0.755951 c 3.99499,-9.028343 -0.71715,-9.888133 -5.1263,-11.032181 l -5.504281,6.047619 C 90.125911,48.809359 88.539033,41.603065 85.682478,35.35677 111.05062,25.358769 135.92458,24.243774 160.12016,34.033854 l -4.53571,13.465402 c 0.36053,2.087515 -0.22855,4.374946 1.65364,6.142112 l 6.18936,-0.09449 c 2.2215,5.823408 0.75815,9.901365 -5.48065,11.717261 l -5.76414,-4.913691 -4.67745,5.008187 -4.08687,10.748695 c -13.85532,-4.259933 -27.05041,-3.942326 -39.56938,1.063055 z"
         style="fill:#6a87df;fill-opacity:0.94117647;stroke:none;stroke-width:0.26499999;stroke-linecap:butt;stroke-linejoin:miter;stroke-miterlimit:4;stroke-dasharray:none;stroke-opacity:1;opacity:0.515" />
      <path
         inkscape:transform-center-y="-54.402906"
         inkscape:transform-center-x="-53.935661"
         sodipodi:nodetypes="cccccccccccccccc"
         inkscape:connector-curvature="0"
         id="path953-6"
         d="m 143.77996,76.192081 c 1.73576,-6.782808 2.66181,-12.051746 8.4027,-15.841633 l 5.76414,4.913691 c 9.20265,-3.575221 7.4148,-7.78405 6.13859,-12.226426 l -8.16775,0.398488 c -1.83913,-7.020117 2.12352,-13.244764 4.50916,-19.685638 25.02661,10.82457 43.43294,27.592524 53.66118,51.60616 l -12.71764,6.336502 c -1.21813,1.733169 -3.25003,2.937631 -3.16418,5.517972 l 4.4509,4.301943 c -0.92248,6.98466 -6.38395,7.60319 -12.15304,4.43121 l -0.61456,-7.549304 -6.84836,0.245848 -10.48207,4.728966 C 165.75167,90.572327 156.18083,81.483301 143.77997,76.192074 Z"
         style="fill:#6a87df;fill-opacity:0.94117647;stroke:none;stroke-width:0.26499999;stroke-linecap:butt;stroke-linejoin:miter;stroke-miterlimit:4;stroke-dasharray:none;stroke-opacity:1;opacity:0.515" />
      <path
         inkscape:transform-center-y="0.044871787"
         inkscape:transform-center-x="-72.793171"
         sodipodi:nodetypes="cccccccccccccccc"
         inkscape:connector-curvature="0"
         id="path953-7"
         d="m 172.82963,103.85235 c 6.02977,-3.55826 11.0065,-6.569933 17.74335,-5.178583 -0.349,2.682623 -2.11258,6.503203 1.12344,8.778443 8.61351,1.71339 9.74772,-1.90873 10.96064,-5.93907 l -5.14086,-5.125816 c 3.67446,-6.258018 10.88075,-7.844896 17.12705,-10.701451 9.998,25.368137 11.113,50.242097 1.32291,74.437677 l -13.4654,-4.53571 c -2.08751,0.36054 -4.95329,-2.82884 -6.72046,-0.94664 l -2.83506,6.48445 c -5.82341,2.2215 -7.89685,1.99427 -9.71274,-4.24453 l 4.01165,-6.09824 -3.1373,-2.9736 -10.21415,-4.38755 c 4.25993,-13.85531 3.94232,-27.05041 -1.06306,-39.56938 z"
         style="fill:#6a87df;fill-opacity:0.94117647;stroke:none;stroke-width:0.26499999;stroke-linecap:butt;stroke-linejoin:miter;stroke-miterlimit:4;stroke-dasharray:none;stroke-opacity:1;opacity:0.515" />
      <path
         inkscape:transform-center-y="54.082507"
         inkscape:transform-center-x="-54.225225"
         sodipodi:nodetypes="cccccccccccccccc"
         inkscape:connector-curvature="0"
         id="path953-6-5"
         d="m 173.91092,144.11109 c 6.77701,1.75823 9.5624,0.91837 13.33323,6.67179 l -4.01165,6.09824 c 2.34199,6.20767 5.26615,5.50601 9.71274,4.24453 l 2.6012,-7.18603 c 7.02618,-1.81585 14.31765,4.55192 20.75059,6.95889 -10.90747,24.99059 -27.73634,43.34125 -51.78375,53.48983 l -6.29431,-12.73857 c -1.72912,-1.22387 -2.92684,-6.1329 -4.97291,-5.12015 l -5.25211,4.3698 c -4.77659,-2.01471 -6.4461,-4.4046 -3.99,-10.16315 l 7.55129,-0.58953 -1.35905,-6.24778 -3.55829,-11.09904 c 12.82002,-6.76491 21.94073,-16.30557 27.27303,-28.68882 z"
         style="fill:#6a87df;fill-opacity:0.94117647;stroke:none;stroke-width:0.26499999;stroke-linecap:butt;stroke-linejoin:miter;stroke-miterlimit:4;stroke-dasharray:none;stroke-opacity:1;opacity:0.515" />
      <path
         inkscape:transform-center-y="72.686106"
         inkscape:transform-center-x="-0.82298293"
         sodipodi:nodetypes="cccccccccccccccc"
         inkscape:connector-curvature="0"
         id="path953-7-3"
         d="m 147.56104,176.27758 c 3.62663,5.9889 2.63515,7.62138 3.50921,13.00607 -2.48597,0.81744 -5.85864,-0.76894 -8.09692,2.49276 0.12197,7.02882 1.88587,6.71859 5.3952,9.62283 l 5.06701,-5.19884 c 6.29941,3.60303 7.44161,11.78556 10.36903,17.99895 -25.25275,10.28595 -49.58586,10.6891 -73.891246,1.1749 l 4.382232,-13.51613 c -0.384265,-2.08327 2.772307,-4.98515 0.870125,-6.73079 l -7.272235,-1.67443 c -3.185298,-4.66383 -1.328025,-8.96033 4.889713,-10.84708 l 4.916149,4.62152 4.165052,-3.85043 4.27107,-10.2634 c 13.90287,4.10203 26.34592,5.25749 38.80714,0.11002 z"
         style="fill:#6a87df;fill-opacity:0.94117647;stroke:none;stroke-width:0.26499999;stroke-linecap:butt;stroke-linejoin:miter;stroke-miterlimit:4;stroke-dasharray:none;stroke-opacity:1;opacity:0.515" />
      <path
         inkscape:transform-center-y="53.122259"
         inkscape:transform-center-x="54.975439"
         sodipodi:nodetypes="cccccccccccccccc"
         inkscape:connector-curvature="0"
         id="path953-6-5-5"
         d="m 105.4215,173.31436 c -1.89764,6.73929 -1.89222,10.26162 -7.722192,13.91298 l -6.607143,-3.85452 c -6.254655,2.21345 -5.379596,4.75055 -4.2101,9.22222 l 8.266744,2.14751 c 1.670542,7.06214 -3.777189,14.62161 -6.316333,21.00354 -24.760296,-11.4206 -43.762202,-27.9228 -53.412622,-52.17442 l 14.268852,-5.99682 c 1.259274,-1.7035 4.721982,-3.93562 3.75165,-6.00214 l -3.826228,-3.83774 c 2.112803,-4.73402 4.169124,-4.95071 10.042834,-4.54793 2.092718,2.25842 2.38148,4.35754 1.803408,7.59525 l 5.973804,-0.8958 9.867133,-4.4311 c 6.499046,12.95684 15.849552,22.27239 28.120183,27.85897 z"
         style="fill:#6a87df;fill-opacity:0.94117647;stroke:none;stroke-width:0.26499999;stroke-linecap:butt;stroke-linejoin:miter;stroke-miterlimit:4;stroke-dasharray:none;stroke-opacity:1;opacity:0.515" />
      <path
         inkscape:transform-center-y="0.41877486"
         inkscape:transform-center-x="72.640009"
         sodipodi:nodetypes="cccccccccccccccc"
         inkscape:connector-curvature="0"
         id="path953-7-3-6"
         d="m 72.843171,148.01243 c -6.00793,3.595 -5.993583,1.9242 -11.382801,2.76986 -0.804327,-2.49024 1.446449,-5.33981 -1.803408,-7.59525 -7.079614,0.0447 -9.283364,-0.059 -9.388018,5.68945 l 3.990886,4.0549 c -3.636186,6.28032 -13.194784,8.22984 -19.423518,11.12446 -10.152705,-25.3066 -10.427591,-49.6415 -0.785411,-73.896413 l 13.020372,3.650218 c 2.085265,-0.373276 4.403506,-0.650491 6.159146,-2.543443 l 1.098527,-7.027072 c 4.575476,-2.740356 8.61419,-1.144388 10.726662,4.049125 l -5.308825,7.301317 c 1.368083,3.449093 4.084936,4.586008 6.238021,6.689388 l 10.240742,4.32511 c -4.175251,13.88105 -4.005958,26.36313 1.075761,38.85131 z"
         style="fill:#6a87df;fill-opacity:0.94117647;stroke:none;stroke-width:0.26499999;stroke-linecap:butt;stroke-linejoin:miter;stroke-miterlimit:4;stroke-dasharray:none;stroke-opacity:1;opacity:0.515" />
      <path
         inkscape:transform-center-y="-55.077743"
         inkscape:transform-center-x="52.994017"
         sodipodi:nodetypes="cccccccccccccccc"
         inkscape:connector-curvature="0"
         id="path953-6-5-5-2"
         d="m 75.921743,105.2228 c -6.734659,-1.91401 -12.395148,-2.78579 -16.03233,-8.624604 l 5.166195,-8.309931 C 62.857363,82.028246 58.803445,83.080512 54.328946,84.23914 l -1.848297,8.520771 C 45.41447,94.413287 39.90619,91.085359 33.530449,88.530715 45.011182,63.798244 61.559508,44.836494 85.834506,35.245032 l 5.96213,14.283382 c 1.700435,1.26341 3.790499,3.26155 5.859369,2.296242 l 4.232205,-5.388459 c 5.43045,0.754544 7.02763,3.848414 6.61058,9.721128 -2.62619,1.643245 -10.924656,0.575952 -9.93822,5.159224 l 0.88128,5.975964 4.40711,9.877872 C 90.876368,83.637926 81.538124,92.965769 75.921743,105.22278 Z"
         style="fill:#6a87df;fill-opacity:0.94117647;stroke:none;stroke-width:0.26499999;stroke-linecap:butt;stroke-linejoin:miter;stroke-miterlimit:4;stroke-dasharray:none;stroke-opacity:1;opacity:0.515" />
    </g>
  </g>
  <g
     inkscape:label="Layer 1"
     inkscape:groupmode="layer"
     id="layer1"
     transform="translate(-22.328993,23.479742)">
    <path
       style="fill:#e0e0e0;stroke-width:0.26458332;fill-opacity:0.94117647;opacity:0.581"
       d="m 125.73121,-19.070332 c -4.97238,-0.01867 -9.97973,0.338597 -15.01769,1.072286 -39.073524,5.690367 -71.291775,34.807959 -80.973345,73.181061 -2.322719,9.206143 -2.999324,15.504708 -2.814816,26.19375 0.166078,9.621239 0.829174,14.755664 2.955892,22.886455 10.788385,41.24581 46.398698,70.56089 89.298939,73.51231 0.65485,0.0451 3.0361,0.10254 5.29167,0.12764 23.64154,0.26277 46.9079,-8.25684 64.95521,-23.78511 3.00797,-2.58812 8.8238,-8.45855 11.1218,-11.22567 12.93294,-15.57317 20.26645,-32.7791 22.66683,-53.18125 0.52129,-4.430731 0.43097,-17.628571 -0.15038,-21.960417 -1.69499,-12.630073 -4.98819,-23.250405 -10.50168,-33.866666 -11.38173,-21.915596 -31.41986,-39.3115583 -54.57135,-47.376434 -10.55205,-3.675832 -21.32182,-5.536883 -32.26108,-5.577955 z m -1.29087,1.779737 c 8.20437,-0.07141 16.42507,0.901565 24.50548,2.925919 3.27544,0.820586 10.16733,3.026306 10.51563,3.365685 0.1083,0.105518 -0.20536,1.1451614 -0.69659,2.3099366 -1.25999,2.9875109 -2.97849,8.38002875 -3.3476,10.5042678 -0.44158,2.541262 -0.24757,5.2700157 0.4408,6.1975549 0.87254,1.1756998 2.01383,1.4204183 4.35012,0.9322435 3.22132,-0.6731026 4.25348,-0.034523 4.25348,2.6318822 0,3.585723 -2.5633,7.411434 -4.96558,7.411434 -1.07381,0 -1.76165,-0.545955 -3.31246,-2.628781 -1.68823,-2.267384 -3.13864,-2.70124 -5.12992,-1.534274 -1.39825,0.819431 -3.20665,3.41866 -4.60747,6.623368 -0.69204,1.583187 -2.33735,6.268582 -3.22771,9.129159 a 52.228104,52.228104 0 0 1 1.65778,0.605131 c 0.70145,-2.567474 2.50539,-7.546964 3.8349,-10.329603 1.32892,-2.781385 3.07079,-4.828646 4.10828,-4.828646 0.67662,0 1.5086,0.748665 2.60036,2.338877 1.06,1.543982 2.54284,2.423689 4.08244,2.422591 2.26821,-0.0016 4.13823,-1.559642 5.65237,-4.709789 1.53812,-3.200064 1.49035,-6.4889964 -0.11783,-8.0971815 -1.09972,-1.0997248 -2.43148,-1.3228797 -4.90512,-0.8216556 -1.95097,0.3953562 -2.15449,0.3951366 -2.59054,5.291e-4 -1.01978,-0.9228825 -0.88213,-3.563522 0.42788,-8.1989823 0.81806,-2.8946871 3.23686,-9.1281247 3.5419,-9.1281247 0.38731,0 4.27274,1.7307135 7.31532,3.2582007 16.06298,8.064185 29.97523,20.9914703 39.29424,36.5130153 2.82271,4.701442 5.42832,9.904677 5.1077,10.198859 -0.1395,0.128003 -1.44384,0.683734 -2.89905,1.235067 -5.1616,1.955575 -10.24168,4.830808 -11.73417,6.641457 -0.99444,1.206426 -1.38776,2.527501 -1.07642,3.613732 0.15378,0.536517 1.0173,1.579841 2.34508,2.833418 2.15651,2.035995 2.60125,2.848427 2.27376,4.153236 -0.26099,1.039889 -1.77596,2.341671 -3.45767,2.970877 -2.65718,0.994182 -6.01826,0.606753 -6.88382,-0.79375 -0.32615,-0.527715 -0.20335,-2.390032 0.26355,-3.996137 0.69054,-2.375353 -0.006,-3.921506 -2.00814,-4.460711 -2.41226,-0.649552 -8.02549,1.058857 -15.80214,4.809527 -0.53861,0.25977 -1.02919,0.491291 -1.4826,0.702281 a 52.228104,52.228104 0 0 1 0.76327,1.705324 c 2.01221,-1.001602 5.29865,-2.559995 6.58461,-3.092318 6.65988,-2.756866 10.50323,-3.259772 10.50323,-1.374595 0,0.332761 -0.19277,1.169847 -0.42788,1.859836 -0.5722,1.679329 -0.4026,4.023923 0.36949,5.108215 0.95761,1.344845 2.22837,1.802982 4.95318,1.786972 3.14498,-0.0185 5.00818,-0.726274 6.90552,-2.623614 1.59003,-1.590021 1.94818,-2.799186 1.38597,-4.675682 -0.33194,-1.107885 -1.28475,-2.23551 -3.73104,-4.415753 -0.55396,-0.493712 -0.98857,-1.128133 -0.98857,-1.442289 0,-0.334946 0.61276,-1.156149 1.52135,-2.039151 1.69223,-1.644555 5.56748,-3.771644 9.85573,-5.409489 1.38245,-0.52801 2.78702,-1.075827 3.12177,-1.21698 0.6961,-0.293523 0.68042,-0.322741 2.48254,4.506701 2.70785,7.256727 4.75627,16.428236 5.49579,24.60625 0.6565,7.259865 0.2055,17.982578 -1.06454,25.318868 -0.91374,5.278157 -3.79866,15.824217 -4.72115,17.257857 -0.26626,0.41377 0.0962,0.54017 -5.90094,-2.06033 -6.13394,-2.65983 -11.51288,-4.22486 -13.34078,-3.88194 -0.52172,0.0979 -1.239,0.46798 -1.59371,0.82269 -0.58797,0.58798 -0.62917,0.78257 -0.4687,2.2009 0.21492,1.89966 -0.14342,3.11014 -1.22732,4.14858 -0.70747,0.6778 -1.02127,0.77645 -2.70578,0.84905 -1.57481,0.0678 -2.13683,-0.0281 -3.23907,-0.55294 -3.48712,-1.66045 -3.64275,-4.27337 -0.39636,-6.65644 4.09034,-3.00259 0.76628,-6.23814 -10.19938,-9.927044 -0.82684,-0.278154 -1.54913,-0.538207 -2.17868,-0.774113 a 52.228104,52.228104 0 0 1 -0.64078,1.754931 c 0.7183,0.215467 1.57281,0.483344 2.48356,0.785996 4.36548,1.45072 9.34312,3.86511 10.10533,4.901 l 0.5271,0.71675 -1.87534,1.79679 c -2.59252,2.4836 -3.05884,4.3223 -1.67276,6.59443 2.18269,3.57799 8.97907,4.40412 11.50782,1.39888 1.04266,-1.23914 1.26565,-1.9572 1.30845,-4.21267 l 0.0377,-1.98437 1.62368,0.0439 c 2.08254,0.0562 6.53111,1.53019 12.30726,4.07727 2.37868,1.04891 4.42012,1.99121 4.53615,2.09393 0.28624,0.25337 -2.51306,6.37854 -4.8736,10.66446 -9.23916,16.77513 -23.74684,30.77543 -40.95512,39.52265 -2.09749,1.06618 -3.92,1.93838 -4.04989,1.93838 -0.12989,0 -0.48254,-0.56555 -0.78341,-1.25677 -5.347,-12.2841 -8.36246,-16.74212 -10.89494,-16.10651 -0.44375,0.11137 -0.92788,0.60652 -1.39423,1.42524 -1.1927,2.09391 -1.89876,2.70888 -3.10937,2.70888 -0.93321,0 -1.22289,-0.16801 -2.4226,-1.40663 -2.58794,-2.67191 -3.00443,-6.11201 -0.87333,-7.21403 0.68887,-0.35621 1.28174,-0.41281 2.98793,-0.28319 2.61663,0.19879 3.23243,0.0493 3.72639,-0.90589 1.14972,-2.22332 -0.23751,-7.36987 -4.2571,-15.79283 l -0.78755,-1.65055 a 52.228104,52.228104 0 0 1 -1.61799,0.72399 l 0.95446,1.99988 c 2.49814,5.23359 4.16236,9.96292 4.25556,12.09383 0.0831,1.90091 0.23999,1.79527 -2.59261,1.75597 -3.03948,-0.0421 -4.21086,0.39183 -5.15524,1.91047 -0.88713,1.42658 -0.81678,3.90841 0.1664,5.85856 2.76983,5.49403 7.51719,6.39104 9.81594,1.85467 0.3694,-0.72897 0.77062,-1.3255 0.89141,-1.3255 0.70622,0 2.65358,2.67682 4.61936,6.35 1.41993,2.65325 4.41265,9.35544 4.41265,9.88208 0,0.67236 -8.07268,3.50728 -14.41979,5.06377 -4.83889,1.18664 -9.10832,1.90886 -14.13195,2.39056 -4.88817,0.4687 -13.63533,0.46281 -18.42317,-0.0124 -8.28358,-0.82218 -17.268711,-2.89351 -24.510131,-5.64979 l -0.708999,-0.26975 0.905886,-2.14716 c 1.536655,-3.64354 3.463689,-9.25032 4.215246,-12.26281 0.927436,-3.71745 0.881184,-6.54624 -0.120922,-7.35769 -0.567214,-0.45931 -0.891662,-0.49679 -2.928504,-0.33745 -1.975681,0.15456 -2.456794,0.10548 -3.50366,-0.3576 -2.078228,-0.9193 -2.604884,-2.95699 -1.415936,-5.47822 0.696465,-1.47688 1.517994,-2.33948 2.629297,-2.76055 1.7561,-0.66537 3.271845,-0.0492 5.434295,2.20813 1.268259,1.32393 1.530062,1.47846 2.500106,1.47846 0.953937,0 1.227056,-0.15338 2.287202,-1.28364 0.66226,-0.70607 1.75857,-2.34318 2.43602,-3.63802 1.07417,-2.0531 3.26182,-7.3199 3.95687,-9.40821 a 52.228104,52.228104 0 0 1 -1.70584,-0.6227 l -0.35915,1.01492 c -2.02745,5.72837 -4.23011,10.1053 -5.870961,11.66544 l -0.810287,0.7705 -1.407668,-1.46451 c -1.840148,-1.91515 -3.33838,-2.6903 -5.225002,-2.7032 -3.326699,-0.0228 -6.159315,3.19454 -6.159315,6.99596 0,2.46354 0.78549,3.75704 2.988448,4.92218 0.731954,0.3871 1.467416,0.48452 3.509346,0.46302 2.50272,-0.0263 2.58786,-0.008 2.739369,0.59583 0.429363,1.71072 -1.555422,8.68111 -4.830712,16.96382 -0.475719,1.20302 -0.903939,1.91031 -1.15342,1.90531 -0.837996,-0.0173 -8.015155,-3.47122 -11.90625,-5.72988 -16.290882,-9.45635 -30.17159,-24.2219 -38.212653,-40.6492 -0.793761,-1.62159 -1.480349,-3.09837 -1.52549,-3.28145 -0.05093,-0.20656 1.424469,-0.96865 3.887102,-2.00815 8.832041,-3.72807 13.310608,-6.48643 14.312305,-8.81497 0.562343,-1.30723 0.106672,-2.15997 -1.814875,-3.39617 -1.968042,-1.2661 -2.516005,-2.17427 -2.025716,-3.35793 0.911608,-2.200817 5.934019,-3.895661 8.320939,-2.808102 1.319403,0.601155 1.715778,2.088372 1.152901,4.323762 -0.973286,3.86527 2.249302,4.13226 10.349238,0.8568 1.81901,-0.73557 4.361301,-1.86438 5.649785,-2.50786 0.368059,-0.18381 0.707625,-0.34838 1.022159,-0.49816 a 52.228104,52.228104 0 0 1 -0.722952,-1.614887 l -1.787488,0.845427 c -5.269844,2.49306 -10.496259,4.34624 -12.297442,4.35994 -0.688948,0.005 -0.68721,0.0186 -0.305924,-1.87999 0.891569,-4.439453 -2.735572,-7.087652 -7.716324,-5.633764 -3.966266,1.157759 -6.350956,3.863754 -5.548498,6.295224 0.317077,0.96076 1.751452,2.42513 3.251996,3.32021 0.545703,0.32551 0.992188,0.71921 0.992188,0.8754 0,0.15618 -0.475271,0.73609 -1.055749,1.28829 -1.774515,1.68805 -6.253006,4.10513 -12.404928,6.6952 -1.932173,0.81348 -3.685609,1.47898 -3.896402,1.47898 -0.210794,0 -0.487202,-0.26789 -0.613916,-0.59531 -0.126717,-0.32742 -0.585351,-1.48828 -1.019577,-2.57969 -1.129345,-2.83855 -2.538071,-7.30218 -3.465422,-10.98021 -4.204857,-16.677117 -3.754337,-34.959233 1.272275,-51.607183 1.491811,-4.94083 1.978538,-6.081189 2.570385,-6.025989 0.26915,0.02511 1.835991,0.595172 3.481959,1.267105 4.659368,1.902095 7.626185,2.627305 10.811742,2.642736 2.994914,0.0145 3.604215,-0.237144 4.789371,-1.978692 0.547267,-0.804199 0.595458,-1.1401 0.529167,-3.690215 -0.06117,-2.353191 0.0047,-2.924993 0.410311,-3.545002 0.523501,-0.800187 1.882399,-1.488799 2.937806,-1.488799 2.438482,0 6.237277,2.757593 6.235276,4.526338 -0.0016,1.374206 -1.156726,2.969315 -3.388423,4.679301 -1.736156,1.330296 -2.111973,3.203091 -0.978233,4.871538 1.570926,2.311826 7.168962,5.45189 14.289566,8.016049 0.892125,0.321257 1.684692,0.610659 2.306836,0.840259 a 52.228104,52.228104 0 0 1 0.622702,-1.705325 l -1.225248,-0.428913 c -8.48573,-2.971996 -14.327746,-6.260007 -14.880746,-8.374681 -0.13987,-0.534866 0.141112,-0.914313 1.847432,-2.492873 3.883162,-3.592409 4.243408,-6.634789 1.09089,-9.218041 -3.830378,-3.138704 -8.691531,-3.162501 -10.453627,-0.05116 -0.517657,0.914043 -0.599262,1.440331 -0.603062,3.879866 -0.0024,1.552448 -0.07807,3.015398 -0.168465,3.250965 -0.489487,1.27558 -3.831715,1.57844 -7.400584,0.670242 -2.245198,-0.571354 -7.271686,-2.384636 -8.91935,-3.217373 -1.193819,-0.603361 -1.218004,-0.446444 0.707448,-4.584734 8.824156,-18.965346 22.633998,-33.9332699 40.77994,-44.2004022 3.022434,-1.7101185 7.544036,-3.9353886 7.656381,-3.7677274 0.02895,0.043209 0.627229,1.5072968 1.329634,3.2535468 2.270059,5.64358885 4.199176,9.146696 6.281272,11.4055047 2.753132,2.9867939 4.975878,2.6326227 6.82542,-1.0867549 0.47256,-0.9503013 1.22599,-2.0360401 1.67432,-2.4132883 0.69225,-0.5824882 1.00473,-0.6679645 2.07274,-0.5653405 1.47993,0.1422029 2.81178,1.0511816 3.8592,2.6339482 0.8841,1.3359632 1.12544,3.8281107 0.51263,5.2947675 -0.68259,1.6336801 -1.43346,1.9274661 -4.96508,1.9425151 -3.531255,0.01506 -4.244738,0.293616 -4.928377,1.925466 -1.069758,2.55352 0.87629,9.895927 4.586287,17.304369 0.25842,0.516035 0.48591,0.9892 0.67902,1.401982 a 52.228104,52.228104 0 0 1 1.66915,-0.747242 c -0.86165,-1.60573 -2.24985,-4.627303 -3.19773,-7.065719 -1.42568,-3.667522 -2.226742,-6.777357 -2.226742,-8.643916 0,-2.325259 0.238092,-2.501239 3.123322,-2.300634 3.01561,0.209669 4.34079,-0.153961 5.77123,-1.584399 2.89388,-2.8938857 1.93341,-8.4354645 -1.90221,-10.97607565 C 103.5867,-1.1804494 100.42361,-0.03637253 98.51427,4.0047515 98.071543,4.941784 97.481075,5.8305776 97.202204,5.9798238 96.034444,6.6047908 93.991255,4.5096824 91.695563,0.33262332 90.65406,-1.5624124 87.430192,-8.893527 87.430192,-9.3665253 c 0,-0.3341661 1.74607,-1.0853767 5.775359,-2.4846037 10.164259,-3.52968 20.686309,-5.347645 31.234789,-5.439461 z"
       id="path1088"
       inkscape:connector-curvature="0" />
    <path
       style="opacity:0.581;fill:none;fill-opacity:1;stroke:#e0e0e0;stroke-width:1.65900004;stroke-linecap:round;stroke-linejoin:round;stroke-miterlimit:4;stroke-dasharray:none;stroke-dashoffset:0;stroke-opacity:0.94117647;paint-order:normal"
       d="M 177.75404,79.649101 A 52.228104,52.228104 0 0 1 125.52594,131.8772 52.228104,52.228104 0 0 1 73.297836,79.649101 52.228104,52.228104 0 0 1 125.52594,27.420998 a 52.228104,52.228104 0 0 1 52.2281,52.228103 z"
       id="path1090" />
    <path
       style="opacity:1;fill:none;fill-opacity:1;stroke:none;stroke-width:0.26499999;stroke-linecap:round;stroke-linejoin:round;stroke-miterlimit:4;stroke-dasharray:none;stroke-dashoffset:0;stroke-opacity:1;paint-order:normal"
       d="M 116.64743,4.9384284 A 75.236374,75.236374 0 0 1 200.23661,70.77058 75.236374,75.236374 0 0 1 134.40447,154.35977 75.236374,75.236374 0 0 1 50.815279,88.527624 75.236374,75.236374 0 0 1 116.64743,4.9384284 Z"
       id="path1275"
       inkscape:connector-curvature="0" />
    <path
       style="opacity:1;fill:none;fill-opacity:1;stroke:none;stroke-width:0.26499999;stroke-linecap:round;stroke-linejoin:round;stroke-miterlimit:4;stroke-dasharray:none;stroke-dashoffset:0;stroke-opacity:1;paint-order:normal"
       d="M 171.477,20.075512 A 75.236374,75.236374 0 0 1 185.09953,125.60016 75.236374,75.236374 0 0 1 79.574882,139.22269 75.236374,75.236374 0 0 1 65.952343,33.69805 75.236374,75.236374 0 0 1 171.477,20.075512 Z"
       id="path1275-1"
       inkscape:connector-curvature="0" />
    <path
       style="opacity:1;fill:none;fill-opacity:1;stroke:none;stroke-width:0.23011561;stroke-linecap:round;stroke-linejoin:round;stroke-miterlimit:4;stroke-dasharray:none;stroke-dashoffset:0;stroke-opacity:1;paint-order:normal"
       d="M 112.88127,15.552103 A 65.33232,65.33232 0 0 1 189.62293,67.004434 65.33232,65.33232 0 0 1 138.1706,143.7461 65.33232,65.33232 0 0 1 61.428939,92.293775 65.33232,65.33232 0 0 1 112.88127,15.552103 Z"
       id="path1275-1-8"
       inkscape:connector-curvature="0" />
    <g
       aria-label="Generators"
       style="font-style:normal;font-variant:normal;font-weight:bold;font-stretch:normal;font-size:7.05555534px;line-height:1.25;font-family:'Open Sans';-inkscape-font-specification:'Open Sans Bold';letter-spacing:0px;word-spacing:0px;fill:#e0e0e0;fill-opacity:0.94117647;stroke:none;stroke-width:0.26458332"
       id="text845">
      <path
         d="m 55.301995,129.5965 h 1.998155 v 2.61139 q -0.485758,0.15847 -0.916395,0.22048 -0.427192,0.0655 -0.875055,0.0655 -1.140326,0 -1.743218,-0.66835 -0.599446,-0.67179 -0.599446,-1.92581 0,-1.21956 0.695909,-1.90169 0.699354,-0.68213 1.936143,-0.68213 0.775147,0 1.495172,0.31006 l -0.354845,0.85438 q -0.551215,-0.27561 -1.147217,-0.27561 -0.692464,0 -1.10932,0.46509 -0.416857,0.46509 -0.416857,1.25057 0,0.81994 0.334174,1.25402 0.33762,0.43063 0.978407,0.43063 0.334175,0 0.678684,-0.0689 v -1.05075 h -0.954291 z"
         style="fill:#e0e0e0;fill-opacity:0.94117647;stroke-width:0.26458332"
         id="path852" />
      <path
         d="m 60.01144,129.24855 q -0.334174,0 -0.523654,0.21359 -0.189481,0.21016 -0.217041,0.59945 h 1.4745 q -0.0069,-0.38929 -0.20326,-0.59945 -0.196371,-0.21359 -0.530545,-0.21359 z m 0.148139,3.24528 q -0.930176,0 -1.45383,-0.51332 -0.523655,-0.51332 -0.523655,-1.45383 0,-0.96807 0.482314,-1.49517 0.485758,-0.53055 1.340142,-0.53055 0.816488,0 1.27124,0.46509 0.454753,0.46509 0.454753,1.28502 v 0.50988 h -2.483914 q 0.01723,0.44786 0.265272,0.69935 0.248047,0.25149 0.69591,0.25149 0.347954,0 0.658013,-0.0723 0.310058,-0.0724 0.647678,-0.23083 v 0.81305 q -0.275608,0.1378 -0.589112,0.20326 -0.313503,0.0689 -0.764811,0.0689 z"
         style="fill:#e0e0e0;fill-opacity:0.94117647;stroke-width:0.26458332"
         id="path854" />
      <path
         d="M 66.140264,132.42493 H 65.08951 v -2.24965 q 0,-0.41686 -0.148139,-0.62356 -0.148139,-0.21015 -0.471978,-0.21015 -0.440972,0 -0.637343,0.29627 -0.19637,0.29284 -0.19637,0.97497 v 1.81212 h -1.050754 v -3.85162 h 0.802707 l 0.141249,0.49265 h 0.05857 q 0.1757,-0.27905 0.482314,-0.4203 0.310058,-0.1447 0.702799,-0.1447 0.671794,0 1.019749,0.36518 0.347954,0.36174 0.347954,1.04731 z"
         style="fill:#e0e0e0;fill-opacity:0.94117647;stroke-width:0.26458332"
         id="path856" />
      <path
         d="m 68.817103,129.24855 q -0.334174,0 -0.523654,0.21359 -0.189481,0.21016 -0.217041,0.59945 h 1.474501 q -0.0069,-0.38929 -0.203261,-0.59945 -0.196371,-0.21359 -0.530545,-0.21359 z m 0.148139,3.24528 q -0.930175,0 -1.45383,-0.51332 -0.523654,-0.51332 -0.523654,-1.45383 0,-0.96807 0.482313,-1.49517 0.485758,-0.53055 1.340142,-0.53055 0.816488,0 1.27124,0.46509 0.454753,0.46509 0.454753,1.28502 v 0.50988 h -2.483914 q 0.01723,0.44786 0.265272,0.69935 0.248047,0.25149 0.69591,0.25149 0.347954,0 0.658013,-0.0723 0.310058,-0.0724 0.647678,-0.23083 v 0.81305 q -0.275608,0.1378 -0.589112,0.20326 -0.313503,0.0689 -0.764811,0.0689 z"
         style="fill:#e0e0e0;fill-opacity:0.94117647;stroke-width:0.26458332"
         id="path858" />
      <path
         d="m 73.540329,128.50096 q 0.213596,0 0.354845,0.031 l -0.07924,0.9853 q -0.127469,-0.0344 -0.310059,-0.0344 -0.502984,0 -0.785481,0.25838 -0.279053,0.25838 -0.279053,0.72347 v 1.96026 H 71.39059 v -3.85162 h 0.795817 l 0.155029,0.64768 h 0.05168 q 0.179145,-0.32384 0.482313,-0.52021 0.306613,-0.19982 0.664903,-0.19982 z"
         style="fill:#e0e0e0;fill-opacity:0.94117647;stroke-width:0.26458332"
         id="path860" />
      <path
         d="m 77.040547,132.42493 -0.203261,-0.52366 h -0.02756 q -0.265273,0.33418 -0.547771,0.46509 -0.279052,0.12747 -0.73036,0.12747 -0.55466,0 -0.875054,-0.31695 -0.316949,-0.31695 -0.316949,-0.90262 0,-0.61322 0.427192,-0.90261 0.430637,-0.29283 1.295356,-0.32384 l 0.668348,-0.0207 v -0.16881 q 0,-0.58567 -0.599446,-0.58567 -0.461643,0 -1.085205,0.27906 l -0.347955,-0.70969 q 0.664904,-0.34796 1.474501,-0.34796 0.775146,0 1.188558,0.33762 0.413411,0.33762 0.413411,1.02664 v 2.5666 z m -0.310059,-1.78456 -0.406521,0.0138 q -0.458198,0.0138 -0.682129,0.16536 -0.223931,0.15159 -0.223931,0.46165 0,0.44441 0.509874,0.44441 0.36518,0 0.582221,-0.21015 0.220486,-0.21015 0.220486,-0.5581 z"
         style="fill:#e0e0e0;fill-opacity:0.94117647;stroke-width:0.26458332"
         id="path862" />
      <path
         d="m 80.478751,131.65667 q 0.275607,0 0.661458,-0.12058 v 0.78204 q -0.392741,0.1757 -0.964627,0.1757 -0.630452,0 -0.91984,-0.31695 -0.285943,-0.32039 -0.285943,-0.95774 v -1.8569 h -0.502984 v -0.44442 l 0.578776,-0.3514 0.303168,-0.81304 h 0.671794 v 0.81993 h 1.078315 v 0.78893 h -1.078315 v 1.8569 q 0,0.22393 0.124023,0.33073 0.127469,0.1068 0.334175,0.1068 z"
         style="fill:#e0e0e0;fill-opacity:0.94117647;stroke-width:0.26458332"
         id="path864" />
      <path
         d="m 82.75596,130.49223 q 0,0.57188 0.186035,0.86472 0.18948,0.29283 0.613227,0.29283 0.420301,0 0.602891,-0.28939 0.186036,-0.29283 0.186036,-0.86816 0,-0.57189 -0.186036,-0.85783 -0.186035,-0.28594 -0.609781,-0.28594 -0.420302,0 -0.606337,0.28594 -0.186035,0.2825 -0.186035,0.85783 z m 2.663058,0 q 0,0.94051 -0.496093,1.47105 -0.496094,0.53055 -1.381484,0.53055 -0.55466,0 -0.978407,-0.24116 -0.423746,-0.2446 -0.651123,-0.69935 -0.227376,-0.45475 -0.227376,-1.06109 0,-0.94396 0.492649,-1.46761 0.492648,-0.52366 1.384928,-0.52366 0.55466,0 0.978407,0.24116 0.423747,0.24116 0.651123,0.69246 0.227376,0.45131 0.227376,1.05765 z"
         style="fill:#e0e0e0;fill-opacity:0.94117647;stroke-width:0.26458332"
         id="path866" />
      <path
         d="m 88.436921,128.50096 q 0.213595,0 0.354844,0.031 l -0.07924,0.9853 q -0.127468,-0.0344 -0.310058,-0.0344 -0.502984,0 -0.785482,0.25838 -0.279053,0.25838 -0.279053,0.72347 v 1.96026 h -1.050754 v -3.85162 h 0.795817 l 0.155029,0.64768 h 0.05168 q 0.179145,-0.32384 0.482313,-0.52021 0.306614,-0.19982 0.664904,-0.19982 z"
         style="fill:#e0e0e0;fill-opacity:0.94117647;stroke-width:0.26458332"
         id="path868" />
      <path
         d="m 92.178297,131.28116 q 0,0.59255 -0.413412,0.90261 -0.409966,0.31006 -1.229899,0.31006 -0.420301,0 -0.71658,-0.0586 -0.296278,-0.0551 -0.55466,-0.16536 v -0.86817 q 0.292833,0.13781 0.658013,0.23082 0.368625,0.093 0.647678,0.093 0.571886,0 0.571886,-0.33073 0,-0.12402 -0.07579,-0.19981 -0.07579,-0.0792 -0.261827,-0.1757 -0.186035,-0.0999 -0.496094,-0.23082 -0.444417,-0.18604 -0.654568,-0.34451 -0.206706,-0.15848 -0.303169,-0.36174 -0.09302,-0.2067 -0.09302,-0.50643 0,-0.51332 0.396186,-0.79237 0.399631,-0.2825 1.129991,-0.2825 0.695909,0 1.353923,0.30317 l -0.316949,0.75792 q -0.289388,-0.12402 -0.54088,-0.20326 -0.251492,-0.0792 -0.513319,-0.0792 -0.465088,0 -0.465088,0.2515 0,0.14125 0.148139,0.2446 0.151584,0.10335 0.658013,0.30661 0.451308,0.18259 0.661458,0.34107 0.210151,0.15847 0.310059,0.36518 0.09991,0.2067 0.09991,0.49265 z"
         style="fill:#e0e0e0;fill-opacity:0.94117647;stroke-width:0.26458332"
         id="path870" />
    </g>
    <g
       aria-label="Intelligent
     PDUs"
       style="font-style:normal;font-variant:normal;font-weight:bold;font-stretch:normal;font-size:7.05555534px;line-height:1.25;font-family:'Open Sans';-inkscape-font-specification:'Open Sans Bold';letter-spacing:0px;word-spacing:0px;fill:#e0e0e0;fill-opacity:0.94117647;stroke:none;stroke-width:0.26458332"
       id="text849">
      <path
         d="m 160.9242,132.42493 v -5.03673 h 1.06798 v 5.03673 z"
         style="fill:#e0e0e0;fill-opacity:0.94117647;stroke-width:0.26458332"
         id="path873" />
      <path
         d="m 166.73263,132.42493 h -1.05076 v -2.24965 q 0,-0.41686 -0.14814,-0.62356 -0.14814,-0.21015 -0.47197,-0.21015 -0.44098,0 -0.63735,0.29627 -0.19637,0.29284 -0.19637,0.97497 v 1.81212 h -1.05075 v -3.85162 H 163.98 l 0.14124,0.49265 h 0.0586 q 0.1757,-0.27905 0.48231,-0.4203 0.31006,-0.1447 0.7028,-0.1447 0.6718,0 1.01975,0.36518 0.34796,0.36174 0.34796,1.04731 z"
         style="fill:#e0e0e0;fill-opacity:0.94117647;stroke-width:0.26458332"
         id="path875" />
      <path
         d="m 169.43703,131.65667 q 0.2756,0 0.66145,-0.12058 v 0.78204 q -0.39274,0.1757 -0.96462,0.1757 -0.63045,0 -0.91984,-0.31695 -0.28595,-0.32039 -0.28595,-0.95774 v -1.8569 h -0.50298 v -0.44442 l 0.57878,-0.3514 0.30317,-0.81304 h 0.67179 v 0.81993 h 1.07831 v 0.78893 h -1.07831 v 1.8569 q 0,0.22393 0.12402,0.33073 0.12747,0.1068 0.33418,0.1068 z"
         style="fill:#e0e0e0;fill-opacity:0.94117647;stroke-width:0.26458332"
         id="path877" />
      <path
         d="m 172.47216,129.24855 q -0.33418,0 -0.52366,0.21359 -0.18948,0.21016 -0.21704,0.59945 h 1.4745 q -0.007,-0.38929 -0.20326,-0.59945 -0.19637,-0.21359 -0.53054,-0.21359 z m 0.14813,3.24528 q -0.93017,0 -1.45383,-0.51332 -0.52365,-0.51332 -0.52365,-1.45383 0,-0.96807 0.48231,-1.49517 0.48576,-0.53055 1.34015,-0.53055 0.81648,0 1.27124,0.46509 0.45475,0.46509 0.45475,1.28502 v 0.50988 h -2.48392 q 0.0172,0.44786 0.26528,0.69935 0.24804,0.25149 0.69591,0.25149 0.34795,0 0.65801,-0.0723 0.31006,-0.0724 0.64768,-0.23083 v 0.81305 q -0.27561,0.1378 -0.58911,0.20326 -0.31351,0.0689 -0.76482,0.0689 z"
         style="fill:#e0e0e0;fill-opacity:0.94117647;stroke-width:0.26458332"
         id="path879" />
      <path
         d="m 176.0964,132.42493 h -1.05076 v -5.36057 h 1.05076 z"
         style="fill:#e0e0e0;fill-opacity:0.94117647;stroke-width:0.26458332"
         id="path881" />
      <path
         d="m 178.24958,132.42493 h -1.05075 v -5.36057 h 1.05075 z"
         style="fill:#e0e0e0;fill-opacity:0.94117647;stroke-width:0.26458332"
         id="path883" />
      <path
         d="m 179.30723,127.57768 q 0,-0.51332 0.57188,-0.51332 0.57189,0 0.57189,0.51332 0,0.2446 -0.1447,0.3824 -0.14125,0.13436 -0.42719,0.13436 -0.57188,0 -0.57188,-0.51676 z m 1.09554,4.84725 h -1.05076 v -3.85162 h 1.05076 z"
         style="fill:#e0e0e0;fill-opacity:0.94117647;stroke-width:0.26458332"
         id="path885" />
      <path
         d="m 184.85727,128.57331 v 0.53399 l -0.60289,0.15503 q 0.16537,0.25838 0.16537,0.57878 0,0.62011 -0.43409,0.96807 -0.43063,0.34451 -1.19889,0.34451 l -0.18948,-0.0103 -0.15503,-0.0172 q -0.16192,0.12402 -0.16192,0.2756 0,0.22738 0.57878,0.22738 h 0.65457 q 0.63389,0 0.96462,0.27216 0.33418,0.27216 0.33418,0.79926 0,0.67524 -0.565,1.04731 -0.56155,0.37207 -1.61575,0.37207 -0.80615,0 -1.23334,-0.28249 -0.42375,-0.27906 -0.42375,-0.78549 0,-0.34795 0.21704,-0.58222 0.21704,-0.23426 0.63734,-0.33417 -0.16192,-0.0689 -0.28249,-0.22393 -0.12058,-0.15848 -0.12058,-0.33418 0,-0.22048 0.12747,-0.36518 0.12746,-0.14814 0.36862,-0.28938 -0.30317,-0.13092 -0.48231,-0.42031 -0.1757,-0.28938 -0.1757,-0.68213 0,-0.63045 0.40996,-0.97496 0.40997,-0.34451 1.17134,-0.34451 0.16192,0 0.3824,0.031 0.22393,0.0276 0.28595,0.0413 z m -2.97311,4.39594 q 0,0.21704 0.2067,0.34107 0.21015,0.12402 0.58567,0.12402 0.56499,0 0.88539,-0.15503 0.32039,-0.15503 0.32039,-0.42375 0,-0.21704 -0.18948,-0.29972 -0.18948,-0.0827 -0.58567,-0.0827 h -0.54432 q -0.28939,0 -0.48576,0.13436 -0.19292,0.1378 -0.19292,0.36173 z m 0.3824,-3.13503 q 0,0.3135 0.14125,0.49609 0.14469,0.18259 0.43753,0.18259 0.29628,0 0.43408,-0.18259 0.1378,-0.18259 0.1378,-0.49609 0,-0.69591 -0.57188,-0.69591 -0.57878,0 -0.57878,0.69591 z"
         style="fill:#e0e0e0;fill-opacity:0.94117647;stroke-width:0.26458332"
         id="path887" />
      <path
         d="m 187.08625,129.24855 q -0.33417,0 -0.52365,0.21359 -0.18948,0.21016 -0.21704,0.59945 h 1.4745 q -0.007,-0.38929 -0.20326,-0.59945 -0.19637,-0.21359 -0.53055,-0.21359 z m 0.14814,3.24528 q -0.93018,0 -1.45383,-0.51332 -0.52365,-0.51332 -0.52365,-1.45383 0,-0.96807 0.48231,-1.49517 0.48576,-0.53055 1.34014,-0.53055 0.81649,0 1.27124,0.46509 0.45475,0.46509 0.45475,1.28502 v 0.50988 h -2.48391 q 0.0172,0.44786 0.26527,0.69935 0.24805,0.25149 0.69591,0.25149 0.34796,0 0.65801,-0.0723 0.31006,-0.0724 0.64768,-0.23083 v 0.81305 q -0.2756,0.1378 -0.58911,0.20326 -0.3135,0.0689 -0.76481,0.0689 z"
         style="fill:#e0e0e0;fill-opacity:0.94117647;stroke-width:0.26458332"
         id="path889" />
      <path
         d="m 193.21507,132.42493 h -1.05075 v -2.24965 q 0,-0.41686 -0.14814,-0.62356 -0.14814,-0.21015 -0.47198,-0.21015 -0.44097,0 -0.63734,0.29627 -0.19637,0.29284 -0.19637,0.97497 v 1.81212 h -1.05075 v -3.85162 h 0.8027 l 0.14125,0.49265 h 0.0586 q 0.1757,-0.27905 0.48231,-0.4203 0.31006,-0.1447 0.7028,-0.1447 0.67179,0 1.01975,0.36518 0.34795,0.36174 0.34795,1.04731 z"
         style="fill:#e0e0e0;fill-opacity:0.94117647;stroke-width:0.26458332"
         id="path891" />
      <path
         d="m 195.91948,131.65667 q 0.2756,0 0.66145,-0.12058 v 0.78204 q -0.39274,0.1757 -0.96462,0.1757 -0.63045,0 -0.91984,-0.31695 -0.28595,-0.32039 -0.28595,-0.95774 v -1.8569 h -0.50298 v -0.44442 l 0.57878,-0.3514 0.30316,-0.81304 h 0.6718 v 0.81993 h 1.07831 v 0.78893 h -1.07831 v 1.8569 q 0,0.22393 0.12402,0.33073 0.12747,0.1068 0.33418,0.1068 z"
         style="fill:#e0e0e0;fill-opacity:0.94117647;stroke-width:0.26458332"
         id="path893" />
      <path
         d="m 171.15613,138.57787 h 0.3514 q 0.49265,0 0.73725,-0.19293 0.2446,-0.19637 0.2446,-0.56844 0,-0.37551 -0.2067,-0.55466 -0.20327,-0.17914 -0.64079,-0.17914 h -0.48576 z m 2.41157,-0.79927 q 0,0.81305 -0.50988,1.24368 -0.50643,0.43064 -1.44349,0.43064 h -0.4582 v 1.79145 h -1.06798 v -5.03673 h 1.60886 q 0.91639,0 1.39182,0.39619 0.47887,0.39274 0.47887,1.17477 z"
         style="fill:#e0e0e0;fill-opacity:0.94117647;stroke-width:0.26458332"
         id="path895" />
      <path
         d="m 178.69744,138.67777 q 0,1.24368 -0.70969,1.90514 -0.70624,0.66146 -2.04294,0.66146 h -1.42627 v -5.03673 h 1.5813 q 1.23334,0 1.91547,0.65112 0.68213,0.65113 0.68213,1.81901 z m -1.10932,0.0276 q 0,-1.62264 -1.43316,-1.62264 h -0.56844 v 3.27973 h 0.4582 q 1.5434,0 1.5434,-1.65709 z"
         style="fill:#e0e0e0;fill-opacity:0.94117647;stroke-width:0.26458332"
         id="path897" />
      <path
         d="m 183.84097,136.20764 v 3.25906 q 0,0.55811 -0.25149,0.97841 -0.24805,0.4203 -0.72003,0.64423 -0.47198,0.22393 -1.11621,0.22393 -0.97152,0 -1.50895,-0.49609 -0.53743,-0.49954 -0.53743,-1.36426 v -3.24528 h 1.06453 v 3.08336 q 0,0.58222 0.23427,0.85439 0.23426,0.27216 0.77514,0.27216 0.52366,0 0.75792,-0.27216 0.23772,-0.27561 0.23772,-0.86128 v -3.07647 z"
         style="fill:#e0e0e0;fill-opacity:0.94117647;stroke-width:0.26458332"
         id="path899" />
      <path
         d="m 187.67881,140.1006 q 0,0.59256 -0.41342,0.90261 -0.40996,0.31006 -1.22989,0.31006 -0.42031,0 -0.71658,-0.0586 -0.29628,-0.0551 -0.55466,-0.16537 v -0.86816 q 0.29283,0.1378 0.65801,0.23082 0.36862,0.093 0.64768,0.093 0.57188,0 0.57188,-0.33073 0,-0.12403 -0.0758,-0.19982 -0.0758,-0.0792 -0.26183,-0.1757 -0.18603,-0.0999 -0.49609,-0.23082 -0.44442,-0.18603 -0.65457,-0.34451 -0.2067,-0.15847 -0.30317,-0.36173 -0.093,-0.20671 -0.093,-0.50643 0,-0.51332 0.39618,-0.79237 0.39963,-0.2825 1.12999,-0.2825 0.69591,0 1.35392,0.30317 l -0.31694,0.75792 q -0.28939,-0.12403 -0.54088,-0.20326 -0.2515,-0.0792 -0.51332,-0.0792 -0.46509,0 -0.46509,0.25149 0,0.14125 0.14814,0.2446 0.15158,0.10336 0.65801,0.30662 0.45131,0.18259 0.66146,0.34106 0.21015,0.15847 0.31006,0.36518 0.0999,0.20671 0.0999,0.49265 z"
         style="fill:#e0e0e0;fill-opacity:0.94117647;stroke-width:0.26458332"
         id="path901" />
    </g>
    <g
       aria-label=" 3rd party
equipment"
       style="font-style:normal;font-variant:normal;font-weight:bold;font-stretch:normal;font-size:7.05555534px;line-height:1.25;font-family:'Open Sans';-inkscape-font-specification:'Open Sans Bold';letter-spacing:0px;word-spacing:0px;fill:#e0e0e0;fill-opacity:0.94117647;stroke:none;stroke-width:0.26458332"
       id="text855">
      <path
         d="m 109.60065,146.12938 q 0,0.47198 -0.28594,0.80271 -0.28595,0.33073 -0.80271,0.45475 v 0.0207 q 0.60978,0.0758 0.92328,0.37207 0.31351,0.29284 0.31351,0.79238 0,0.72691 -0.5271,1.13343 -0.5271,0.40308 -1.50551,0.40308 -0.81993,0 -1.45383,-0.27216 v -0.90606 q 0.29283,0.14813 0.64423,0.24115 0.3514,0.093 0.69591,0.093 0.5271,0 0.77859,-0.17915 0.2515,-0.17914 0.2515,-0.57533 0,-0.35484 -0.28939,-0.50298 -0.28939,-0.14814 -0.92329,-0.14814 h -0.3824 v -0.81649 h 0.38929 q 0.58567,0 0.85439,-0.15158 0.27216,-0.15503 0.27216,-0.5271 0,-0.57189 -0.71658,-0.57189 -0.24805,0 -0.50643,0.0827 -0.25494,0.0827 -0.56844,0.28594 l -0.49265,-0.73381 q 0.68902,-0.49609 1.64331,-0.49609 0.78204,0 1.23335,0.31695 0.45475,0.31695 0.45475,0.88194 z"
         style="fill:#e0e0e0;fill-opacity:0.94117647;stroke-width:0.26458332"
         id="path904" />
      <path
         d="m 112.72191,146.1156 q 0.21359,0 0.35484,0.031 l -0.0792,0.9853 q -0.12747,-0.0345 -0.31006,-0.0345 -0.50298,0 -0.78548,0.25839 -0.27905,0.25838 -0.27905,0.72347 v 1.96026 h -1.05075 v -3.85162 h 0.79581 l 0.15503,0.64768 h 0.0517 q 0.17914,-0.32384 0.48231,-0.52021 0.30662,-0.19982 0.66491,-0.19982 z"
         style="fill:#e0e0e0;fill-opacity:0.94117647;stroke-width:0.26458332"
         id="path906" />
      <path
         d="m 114.99567,150.10847 q -0.67869,0 -1.06798,-0.5271 -0.38585,-0.5271 -0.38585,-1.46072 0,-0.9474 0.39274,-1.4745 0.39618,-0.53055 1.08865,-0.53055 0.72691,0 1.10932,0.565 h 0.0345 q -0.0792,-0.43064 -0.0792,-0.76826 V 144.679 h 1.0542 v 5.36057 h -0.80615 l -0.20326,-0.49954 h -0.0448 q -0.35829,0.56844 -1.09209,0.56844 z m 0.36862,-0.83716 q 0.40308,0 0.58911,-0.23427 0.18948,-0.23426 0.20671,-0.79581 v -0.11369 q 0,-0.62012 -0.19293,-0.88884 -0.18948,-0.26871 -0.62011,-0.26871 -0.3514,0 -0.54777,0.29972 -0.19293,0.29628 -0.19293,0.86472 0,0.56844 0.19637,0.85438 0.19637,0.2825 0.56155,0.2825 z"
         style="fill:#e0e0e0;fill-opacity:0.94117647;stroke-width:0.26458332"
         id="path908" />
      <path
         d="m 122.18903,150.10847 q -0.67869,0 -1.06454,-0.49265 h -0.0551 q 0.0551,0.48231 0.0551,0.5581 v 1.56063 h -1.05075 v -5.5466 h 0.85438 l 0.14814,0.49954 h 0.0482 q 0.36863,-0.57189 1.0921,-0.57189 0.68213,0 1.06798,0.5271 0.38585,0.5271 0.38585,1.46417 0,0.61667 -0.18259,1.07142 -0.17915,0.45475 -0.51332,0.69247 -0.33417,0.23771 -0.78548,0.23771 z m -0.31006,-3.15226 q -0.3893,0 -0.56844,0.24115 -0.17915,0.23771 -0.18604,0.78893 v 0.11369 q 0,0.62011 0.18259,0.88883 0.18604,0.26872 0.58567,0.26872 0.70624,0 0.70624,-1.16444 0,-0.56844 -0.1757,-0.85094 -0.17225,-0.28594 -0.54432,-0.28594 z"
         style="fill:#e0e0e0;fill-opacity:0.94117647;stroke-width:0.26458332"
         id="path910" />
      <path
         d="m 126.9846,150.03957 -0.20326,-0.52366 h -0.0276 q -0.26527,0.33418 -0.54777,0.46509 -0.27905,0.12747 -0.73036,0.12747 -0.55466,0 -0.87506,-0.31695 -0.31694,-0.31695 -0.31694,-0.90262 0,-0.61322 0.42719,-0.90261 0.43063,-0.29283 1.29535,-0.32384 l 0.66835,-0.0207 v -0.16881 q 0,-0.58567 -0.59944,-0.58567 -0.46165,0 -1.08521,0.27906 l -0.34795,-0.70969 q 0.6649,-0.34796 1.4745,-0.34796 0.77514,0 1.18855,0.33762 0.41342,0.33762 0.41342,1.02664 v 2.5666 z m -0.31006,-1.78456 -0.40652,0.0138 q -0.4582,0.0138 -0.68213,0.16536 -0.22393,0.15159 -0.22393,0.46164 0,0.44442 0.50987,0.44442 0.36518,0 0.58223,-0.21015 0.22048,-0.21015 0.22048,-0.5581 z"
         style="fill:#e0e0e0;fill-opacity:0.94117647;stroke-width:0.26458332"
         id="path912" />
      <path
         d="m 130.94991,146.1156 q 0.21359,0 0.35484,0.031 l -0.0792,0.9853 q -0.12747,-0.0345 -0.31006,-0.0345 -0.50298,0 -0.78548,0.25839 -0.27905,0.25838 -0.27905,0.72347 v 1.96026 h -1.05075 v -3.85162 h 0.79581 l 0.15503,0.64768 h 0.0517 q 0.17914,-0.32384 0.48231,-0.52021 0.30662,-0.19982 0.66491,-0.19982 z"
         style="fill:#e0e0e0;fill-opacity:0.94117647;stroke-width:0.26458332"
         id="path914" />
      <path
         d="m 133.62674,149.27131 q 0.27561,0 0.66146,-0.12058 v 0.78204 q -0.39274,0.1757 -0.96462,0.1757 -0.63046,0 -0.91985,-0.31695 -0.28594,-0.32039 -0.28594,-0.95774 v -1.8569 h -0.50298 v -0.44442 l 0.57877,-0.3514 0.30317,-0.81304 h 0.6718 v 0.81993 h 1.07831 v 0.78893 h -1.07831 v 1.8569 q 0,0.22393 0.12402,0.33073 0.12747,0.1068 0.33417,0.1068 z"
         style="fill:#e0e0e0;fill-opacity:0.94117647;stroke-width:0.26458332"
         id="path916" />
      <path
         d="m 134.51558,146.18795 h 1.15066 l 0.72692,2.16696 q 0.093,0.2825 0.12746,0.66835 h 0.0207 q 0.0379,-0.35484 0.14813,-0.66835 l 0.71314,-2.16696 h 1.12655 l -1.62953,4.34426 q -0.22394,0.6029 -0.64079,0.90262 -0.41341,0.29972 -0.96807,0.29972 -0.27217,0 -0.53399,-0.0586 v -0.83372 q 0.18948,0.0448 0.41341,0.0448 0.27905,0 0.48576,-0.17226 0.21015,-0.1688 0.32728,-0.51331 l 0.062,-0.18948 z"
         style="fill:#e0e0e0;fill-opacity:0.94117647;stroke-width:0.26458332"
         id="path918" />
      <path
         d="m 106.30714,155.68263 q -0.33418,0 -0.52366,0.2136 -0.18948,0.21015 -0.21704,0.59944 h 1.4745 q -0.007,-0.38929 -0.20326,-0.59944 -0.19637,-0.2136 -0.53054,-0.2136 z m 0.14814,3.24528 q -0.93018,0 -1.45383,-0.51332 -0.52366,-0.51332 -0.52366,-1.45383 0,-0.96807 0.48232,-1.49517 0.48575,-0.53054 1.34014,-0.53054 0.81648,0 1.27124,0.46508 0.45475,0.46509 0.45475,1.28503 v 0.50987 h -2.48391 q 0.0172,0.44786 0.26527,0.69935 0.24805,0.2515 0.69591,0.2515 0.34795,0 0.65801,-0.0724 0.31006,-0.0724 0.64768,-0.23082 v 0.81304 q -0.27561,0.1378 -0.58911,0.20326 -0.31351,0.0689 -0.76481,0.0689 z"
         style="fill:#e0e0e0;fill-opacity:0.94117647;stroke-width:0.26458332"
         id="path920" />
      <path
         d="m 110.4757,158.10453 q 0.39963,0 0.58567,-0.22737 0.18603,-0.23082 0.20326,-0.80271 v -0.12747 q 0,-0.62011 -0.19293,-0.88883 -0.18948,-0.26872 -0.61322,-0.26872 -0.7407,0 -0.7407,1.16444 0,0.57878 0.18259,0.86472 0.18604,0.28594 0.57533,0.28594 z m -0.37551,0.82338 q -0.68213,0 -1.06798,-0.52365 -0.38585,-0.5271 -0.38585,-1.46417 0,-0.94395 0.39274,-1.4745 0.39618,-0.53054 1.08176,-0.53054 0.36518,0 0.63734,0.1378 0.27216,0.1378 0.47887,0.42719 h 0.0276 l 0.093,-0.49265 h 0.88883 v 5.54661 h -1.0542 v -1.61575 q 0,-0.21015 0.0448,-0.57878 h -0.0448 q -0.16881,0.27905 -0.44786,0.42375 -0.27905,0.14469 -0.64423,0.14469 z"
         style="fill:#e0e0e0;fill-opacity:0.94117647;stroke-width:0.26458332"
         id="path922" />
      <path
         d="m 116.07398,158.85901 -0.14125,-0.49265 h -0.0551 q -0.16881,0.26872 -0.47887,0.41686 -0.31005,0.14469 -0.70624,0.14469 -0.67868,0 -1.02319,-0.36173 -0.34451,-0.36518 -0.34451,-1.04731 v -2.51148 h 1.05075 v 2.24965 q 0,0.41686 0.14814,0.62701 0.14814,0.2067 0.47198,0.2067 0.44097,0 0.63734,-0.29283 0.19637,-0.29628 0.19637,-0.97841 v -1.81212 h 1.05076 v 3.85162 z"
         style="fill:#e0e0e0;fill-opacity:0.94117647;stroke-width:0.26458332"
         id="path924" />
      <path
         d="m 117.93778,154.01176 q 0,-0.51332 0.57189,-0.51332 0.57188,0 0.57188,0.51332 0,0.2446 -0.14469,0.38241 -0.14125,0.13436 -0.42719,0.13436 -0.57189,0 -0.57189,-0.51677 z m 1.09554,4.84725 h -1.05075 v -3.85162 h 1.05075 z"
         style="fill:#e0e0e0;fill-opacity:0.94117647;stroke-width:0.26458332"
         id="path926" />
      <path
         d="m 122.25104,158.92791 q -0.67869,0 -1.06454,-0.49265 h -0.0551 q 0.0551,0.48232 0.0551,0.55811 v 1.56063 h -1.05075 v -5.54661 h 0.85438 l 0.14814,0.49954 h 0.0482 q 0.36863,-0.57188 1.0921,-0.57188 0.68213,0 1.06798,0.5271 0.38585,0.5271 0.38585,1.46416 0,0.61667 -0.18259,1.07143 -0.17915,0.45475 -0.51332,0.69246 -0.33417,0.23771 -0.78548,0.23771 z m -0.31006,-3.15226 q -0.3893,0 -0.56844,0.24116 -0.17915,0.23771 -0.18604,0.78892 v 0.11369 q 0,0.62012 0.18259,0.88884 0.18604,0.26871 0.58567,0.26871 0.70624,0 0.70624,-1.16444 0,-0.56844 -0.1757,-0.85094 -0.17225,-0.28594 -0.54432,-0.28594 z"
         style="fill:#e0e0e0;fill-opacity:0.94117647;stroke-width:0.26458332"
         id="path928" />
      <path
         d="m 128.04914,158.85901 h -1.05076 v -2.24965 q 0,-0.41685 -0.14125,-0.62356 -0.1378,-0.21015 -0.43753,-0.21015 -0.40307,0 -0.58566,0.29628 -0.18259,0.29628 -0.18259,0.97496 v 1.81212 h -1.05076 v -3.85162 h 0.80271 l 0.14125,0.49265 h 0.0586 q 0.15503,-0.26527 0.44786,-0.41341 0.29283,-0.15158 0.67179,-0.15158 0.86472,0 1.17134,0.56499 h 0.093 q 0.15503,-0.26872 0.45476,-0.41685 0.30316,-0.14814 0.68212,-0.14814 0.65457,0 0.98875,0.33762 0.33762,0.33417 0.33762,1.07487 v 2.51147 h -1.0542 v -2.24965 q 0,-0.41685 -0.14125,-0.62356 -0.13781,-0.21015 -0.43753,-0.21015 -0.38585,0 -0.57877,0.27561 -0.18948,0.27561 -0.18948,0.87505 z"
         style="fill:#e0e0e0;fill-opacity:0.94117647;stroke-width:0.26458332"
         id="path930" />
      <path
         d="m 133.12376,155.68263 q -0.33418,0 -0.52366,0.2136 -0.18948,0.21015 -0.21704,0.59944 h 1.4745 q -0.007,-0.38929 -0.20326,-0.59944 -0.19637,-0.2136 -0.53054,-0.2136 z m 0.14814,3.24528 q -0.93018,0 -1.45383,-0.51332 -0.52366,-0.51332 -0.52366,-1.45383 0,-0.96807 0.48232,-1.49517 0.48576,-0.53054 1.34014,-0.53054 0.81649,0 1.27124,0.46508 0.45475,0.46509 0.45475,1.28503 v 0.50987 h -2.48391 q 0.0172,0.44786 0.26527,0.69935 0.24805,0.2515 0.69591,0.2515 0.34795,0 0.65801,-0.0724 0.31006,-0.0724 0.64768,-0.23082 v 0.81304 q -0.27561,0.1378 -0.58911,0.20326 -0.3135,0.0689 -0.76481,0.0689 z"
         style="fill:#e0e0e0;fill-opacity:0.94117647;stroke-width:0.26458332"
         id="path932" />
      <path
         d="m 139.25258,158.85901 h -1.05075 v -2.24965 q 0,-0.41685 -0.14814,-0.62356 -0.14814,-0.21015 -0.47198,-0.21015 -0.44097,0 -0.63734,0.29628 -0.19637,0.29283 -0.19637,0.97496 v 1.81212 h -1.05075 v -3.85162 h 0.8027 l 0.14125,0.49265 h 0.0586 q 0.1757,-0.27905 0.48231,-0.4203 0.31006,-0.14469 0.7028,-0.14469 0.67179,0 1.01975,0.36518 0.34795,0.36173 0.34795,1.04731 z"
         style="fill:#e0e0e0;fill-opacity:0.94117647;stroke-width:0.26458332"
         id="path934" />
      <path
         d="m 141.95699,158.09075 q 0.2756,0 0.66145,-0.12057 v 0.78203 q -0.39274,0.1757 -0.96462,0.1757 -0.63046,0 -0.91984,-0.31695 -0.28595,-0.32039 -0.28595,-0.95773 v -1.85691 h -0.50298 v -0.44442 l 0.57878,-0.3514 0.30316,-0.81304 h 0.6718 v 0.81993 h 1.07831 v 0.78893 h -1.07831 v 1.85691 q 0,0.22393 0.12402,0.33073 0.12747,0.10679 0.33418,0.10679 z"
         style="fill:#e0e0e0;fill-opacity:0.94117647;stroke-width:0.26458332"
         id="path936" />
    </g>
    <g
       aria-label="UPS"
       style="font-style:normal;font-variant:normal;font-weight:bold;font-stretch:normal;font-size:7.05555534px;line-height:1.25;font-family:'Open Sans';-inkscape-font-specification:'Open Sans Bold';letter-spacing:0px;word-spacing:0px;fill:#e0e0e0;fill-opacity:0.94117647;stroke:none;stroke-width:0.26458332"
       id="text861">
      <path
         d="m 198.47476,77.117361 v 3.259061 q 0,0.558105 -0.2515,0.978407 -0.24804,0.420301 -0.72002,0.644233 -0.47198,0.223931 -1.11621,0.223931 -0.97152,0 -1.50895,-0.496094 -0.53744,-0.499539 -0.53744,-1.364258 v -3.24528 h 1.06454 v 3.083361 q 0,0.582221 0.23426,0.854383 0.23427,0.272163 0.77515,0.272163 0.52365,0 0.75792,-0.272163 0.23771,-0.275607 0.23771,-0.861273 v -3.076471 z"
         style="fill:#e0e0e0;fill-opacity:0.94117647;stroke-width:0.26458332"
         id="path939" />
      <path
         d="m 200.77608,79.487587 h 0.3514 q 0.49265,0 0.73725,-0.192925 0.2446,-0.196371 0.2446,-0.568441 0,-0.375515 -0.2067,-0.55466 -0.20326,-0.179145 -0.64079,-0.179145 h -0.48576 z m 2.41157,-0.799262 q 0,0.813042 -0.50988,1.243679 -0.50643,0.430637 -1.44349,0.430637 h -0.4582 v 1.79145 h -1.06798 v -5.03673 h 1.60886 q 0.9164,0 1.39182,0.396186 0.47887,0.392741 0.47887,1.174778 z"
         style="fill:#e0e0e0;fill-opacity:0.94117647;stroke-width:0.26458332"
         id="path941" />
      <path
         d="m 207.11161,80.755382 q 0,0.682129 -0.49265,1.07487 -0.4892,0.392741 -1.36425,0.392741 -0.80616,0 -1.42627,-0.303169 v -0.992187 q 0.50987,0.227376 0.86127,0.320394 0.35484,0.09302 0.64768,0.09302 0.3514,0 0.53743,-0.134358 0.18948,-0.134359 0.18948,-0.399631 0,-0.14814 -0.0827,-0.261828 -0.0827,-0.117133 -0.2446,-0.223931 -0.15848,-0.106798 -0.65112,-0.341064 -0.46165,-0.217041 -0.69247,-0.416857 -0.23082,-0.199815 -0.36862,-0.465088 -0.13781,-0.265272 -0.13781,-0.620117 0,-0.668348 0.45131,-1.050754 0.45475,-0.382406 1.25401,-0.382406 0.39275,0 0.74759,0.09302 0.35829,0.09302 0.74759,0.261827 l -0.34451,0.830268 q -0.40308,-0.165364 -0.66835,-0.230821 -0.26183,-0.06546 -0.51677,-0.06546 -0.30316,0 -0.46508,0.141249 -0.16192,0.141249 -0.16192,0.368625 0,0.141249 0.0654,0.248047 0.0655,0.103353 0.20671,0.203261 0.14469,0.09646 0.67868,0.351399 0.70625,0.33762 0.96807,0.678684 0.26183,0.33762 0.26183,0.830268 z"
         style="fill:#e0e0e0;fill-opacity:0.94117647;stroke-width:0.26458332"
         id="path943" />
    </g>
    <g
       aria-label="BMS"
       style="font-style:normal;font-variant:normal;font-weight:bold;font-stretch:normal;font-size:7.05555534px;line-height:1.25;font-family:'Open Sans';-inkscape-font-specification:'Open Sans Bold';letter-spacing:0px;word-spacing:0px;fill:#e0e0e0;fill-opacity:0.94117647;stroke:none;stroke-width:0.26458332"
       id="text865">
      <path
         d="m 42.806642,76.550406 h 1.567519 q 1.071424,0 1.553738,0.306613 0.485758,0.303169 0.485758,0.968072 0,0.451308 -0.213596,0.740696 -0.210151,0.289388 -0.56155,0.347954 v 0.03445 q 0.478868,0.106798 0.689019,0.399631 0.213596,0.292833 0.213596,0.778592 0,0.689019 -0.499539,1.07487 -0.496094,0.38585 -1.350478,0.38585 h -1.884467 z m 1.06798,1.99471 h 0.620117 q 0.434082,0 0.627007,-0.134359 0.196371,-0.134358 0.196371,-0.444417 0,-0.289388 -0.213596,-0.413411 Q 44.89437,77.42546 44.436172,77.42546 h -0.56155 z m 0,0.847494 v 1.312581 h 0.695909 q 0.440972,0 0.651123,-0.16881 0.210151,-0.168809 0.210151,-0.516764 0,-0.627007 -0.895725,-0.627007 z"
         style="fill:#e0e0e0;fill-opacity:0.94117647;stroke-width:0.26458332"
         id="path946" />
      <path
         d="m 49.679608,81.587135 -1.212674,-3.951524 h -0.03101 q 0.06546,1.205783 0.06546,1.608859 v 2.342665 h -0.954291 v -5.036729 h 1.45383 l 1.192003,3.851617 h 0.02067 l 1.26435,-3.851617 h 1.453831 v 5.036729 h -0.995633 v -2.384006 q 0,-0.168809 0.0034,-0.389295 0.0069,-0.220487 0.04823,-1.171333 h -0.03101 l -1.298801,3.944634 z"
         style="fill:#e0e0e0;fill-opacity:0.94117647;stroke-width:0.26458332"
         id="path948" />
      <path
         d="m 57.172691,80.188427 q 0,0.682128 -0.492649,1.074869 -0.489204,0.392741 -1.364258,0.392741 -0.806152,0 -1.426269,-0.303168 v -0.992188 q 0.509874,0.227377 0.861274,0.320394 0.354844,0.09302 0.647677,0.09302 0.3514,0 0.537435,-0.134359 0.189481,-0.134359 0.189481,-0.399631 0,-0.148139 -0.08268,-0.261827 -0.08268,-0.117133 -0.244601,-0.223931 -0.158475,-0.106798 -0.651123,-0.341065 -0.461643,-0.217041 -0.692465,-0.416856 -0.230821,-0.199816 -0.368625,-0.465088 -0.137804,-0.265273 -0.137804,-0.620117 0,-0.668349 0.451308,-1.050755 0.454752,-0.382405 1.254015,-0.382405 0.39274,0 0.747585,0.09302 0.35829,0.09302 0.747586,0.261828 l -0.34451,0.830268 q -0.403076,-0.165365 -0.668348,-0.230822 -0.261827,-0.06546 -0.516764,-0.06546 -0.303169,0 -0.465088,0.141249 -0.16192,0.141249 -0.16192,0.368626 0,0.141248 0.06546,0.248046 0.06546,0.103353 0.206706,0.203261 0.144694,0.09646 0.678684,0.3514 0.706244,0.337619 0.968071,0.678684 0.261828,0.337619 0.261828,0.830268 z"
         style="fill:#e0e0e0;fill-opacity:0.94117647;stroke-width:0.26458332"
         id="path950" />
    </g>
    <g
       aria-label="  Water
systems"
       style="font-style:normal;font-variant:normal;font-weight:bold;font-stretch:normal;font-size:7.05555534px;line-height:1.25;font-family:'Open Sans';-inkscape-font-specification:'Open Sans Bold';letter-spacing:0px;word-spacing:0px;fill:#e0e0e0;fill-opacity:0.94117647;stroke:none;stroke-width:0.26458332"
       id="text869">
      <path
         d="m 70.843814,21.677908 h -1.216119 l -0.682128,-2.645833 q -0.0379,-0.141249 -0.130914,-0.582221 -0.08957,-0.444418 -0.103353,-0.596002 -0.02067,0.186035 -0.103353,0.599447 -0.08268,0.409966 -0.127468,0.585666 l -0.678684,2.638943 h -1.212674 l -1.28502,-5.03673 h 1.050754 l 0.644233,2.749187 q 0.168809,0.761366 0.244601,1.319471 0.02067,-0.19637 0.09302,-0.606337 0.07579,-0.413411 0.141249,-0.640787 l 0.733805,-2.821534 h 1.009413 l 0.733806,2.821534 q 0.04823,0.18948 0.120578,0.578776 0.07235,0.389295 0.110243,0.668348 0.03445,-0.268717 0.110243,-0.668348 0.07579,-0.403077 0.137804,-0.651123 l 0.640788,-2.749187 h 1.050754 z"
         style="fill:#e0e0e0;fill-opacity:0.94117647;stroke-width:0.26458332"
         id="path954" />
      <path
         d="m 75.122623,21.677908 -0.203261,-0.523655 h -0.02756 q -0.265273,0.334175 -0.547771,0.465088 -0.279052,0.127469 -0.73036,0.127469 -0.55466,0 -0.875054,-0.316949 -0.316949,-0.316949 -0.316949,-0.902615 0,-0.613227 0.427192,-0.902615 0.430637,-0.292833 1.295356,-0.323839 l 0.668348,-0.02067 v -0.16881 q 0,-0.585666 -0.599446,-0.585666 -0.461643,0 -1.085205,0.279052 l -0.347955,-0.709689 q 0.664904,-0.347955 1.474501,-0.347955 0.775146,0 1.188558,0.337619 0.413411,0.33762 0.413411,1.026639 v 2.566596 z m -0.310059,-1.784559 -0.406521,0.01378 q -0.458197,0.01378 -0.682129,0.165364 -0.223931,0.151585 -0.223931,0.461643 0,0.444418 0.509874,0.444418 0.36518,0 0.582221,-0.210151 0.220486,-0.210151 0.220486,-0.558106 z"
         style="fill:#e0e0e0;fill-opacity:0.94117647;stroke-width:0.26458332"
         id="path956" />
      <path
         d="m 78.560828,20.909652 q 0.275607,0 0.661458,-0.120579 v 0.782037 q -0.392741,0.1757 -0.964627,0.1757 -0.630452,0 -0.91984,-0.316949 -0.285943,-0.320394 -0.285943,-0.957736 v -1.856907 h -0.502984 v -0.444417 l 0.578776,-0.3514 0.303168,-0.813042 h 0.671794 v 0.819932 h 1.078315 v 0.788927 H 78.10263 v 1.856907 q 0,0.223931 0.124023,0.330729 0.127469,0.106798 0.334175,0.106798 z"
         style="fill:#e0e0e0;fill-opacity:0.94117647;stroke-width:0.26458332"
         id="path958" />
      <path
         d="m 81.595958,18.50153 q -0.334175,0 -0.523655,0.213596 -0.18948,0.210151 -0.217041,0.599447 h 1.474501 q -0.0069,-0.389296 -0.203261,-0.599447 -0.19637,-0.213596 -0.530544,-0.213596 z m 0.148139,3.24528 q -0.930176,0 -1.453831,-0.513319 -0.523654,-0.51332 -0.523654,-1.453831 0,-0.968071 0.482313,-1.495171 0.485759,-0.530545 1.340142,-0.530545 0.816488,0 1.271241,0.465088 0.454752,0.465088 0.454752,1.285021 v 0.509874 h -2.483914 q 0.01723,0.447862 0.265273,0.699354 0.248047,0.251492 0.695909,0.251492 0.347955,0 0.658013,-0.07235 0.310059,-0.07235 0.647678,-0.230821 v 0.813042 q -0.275607,0.137804 -0.589111,0.203261 -0.313504,0.0689 -0.764811,0.0689 z"
         style="fill:#e0e0e0;fill-opacity:0.94117647;stroke-width:0.26458332"
         id="path960" />
      <path
         d="m 86.319182,17.753944 q 0.213596,0 0.354845,0.03101 l -0.07924,0.985297 q -0.127468,-0.03445 -0.310058,-0.03445 -0.502984,0 -0.785482,0.258383 -0.279053,0.258382 -0.279053,0.72347 v 1.960259 h -1.050754 v -3.851617 h 0.795817 l 0.15503,0.647678 h 0.05168 q 0.179145,-0.323839 0.482313,-0.520209 0.306614,-0.199816 0.664904,-0.199816 z"
         style="fill:#e0e0e0;fill-opacity:0.94117647;stroke-width:0.26458332"
         id="path962" />
      <path
         d="m 64.876909,29.35358 q 0,0.592557 -0.413411,0.902615 -0.409967,0.310059 -1.2299,0.310059 -0.420301,0 -0.716579,-0.05857 -0.296279,-0.05512 -0.554661,-0.165364 v -0.868164 q 0.292833,0.137804 0.658013,0.230821 0.368626,0.09302 0.647678,0.09302 0.571886,0 0.571886,-0.330729 0,-0.124024 -0.07579,-0.199816 -0.07579,-0.07924 -0.261827,-0.1757 -0.186035,-0.09991 -0.496094,-0.230821 -0.444417,-0.186035 -0.654568,-0.34451 -0.206706,-0.158474 -0.303168,-0.361735 -0.09302,-0.206705 -0.09302,-0.506429 0,-0.513319 0.396186,-0.792372 0.399631,-0.282498 1.129991,-0.282498 0.69591,0 1.353923,0.303169 l -0.316949,0.757921 q -0.289388,-0.124024 -0.54088,-0.203261 -0.251492,-0.07924 -0.513319,-0.07924 -0.465088,0 -0.465088,0.251492 0,0.141249 0.148139,0.244602 0.151584,0.103353 0.658013,0.306613 0.451308,0.18259 0.661459,0.341065 0.21015,0.158474 0.310058,0.36518 0.09991,0.206706 0.09991,0.492648 z"
         style="fill:#e0e0e0;fill-opacity:0.94117647;stroke-width:0.26458332"
         id="path964" />
      <path
         d="m 65.145626,26.645735 h 1.150662 l 0.726915,2.166965 q 0.09302,0.282498 0.127469,0.668349 h 0.02067 q 0.0379,-0.354845 0.148139,-0.668349 l 0.713135,-2.166965 h 1.126546 l -1.62953,4.344266 q -0.223931,0.602891 -0.640787,0.902615 -0.413412,0.299723 -0.968072,0.299723 -0.272163,0 -0.53399,-0.05857 v -0.833713 q 0.18948,0.04479 0.413411,0.04479 0.279053,0 0.485759,-0.172255 0.210151,-0.16881 0.327284,-0.513319 l 0.06201,-0.189481 z"
         style="fill:#e0e0e0;fill-opacity:0.94117647;stroke-width:0.26458332"
         id="path966" />
      <path
         d="m 72.397552,29.35358 q 0,0.592557 -0.413411,0.902615 -0.409967,0.310059 -1.229899,0.310059 -0.420302,0 -0.71658,-0.05857 -0.296278,-0.05512 -0.554661,-0.165364 v -0.868164 q 0.292834,0.137804 0.658014,0.230821 0.368625,0.09302 0.647678,0.09302 0.571885,0 0.571885,-0.330729 0,-0.124024 -0.07579,-0.199816 -0.07579,-0.07924 -0.261827,-0.1757 -0.186035,-0.09991 -0.496094,-0.230821 -0.444417,-0.186035 -0.654568,-0.34451 -0.206705,-0.158474 -0.303168,-0.361735 -0.09302,-0.206705 -0.09302,-0.506429 0,-0.513319 0.396186,-0.792372 0.399631,-0.282498 1.129992,-0.282498 0.695909,0 1.353922,0.303169 l -0.316949,0.757921 q -0.289388,-0.124024 -0.54088,-0.203261 -0.251492,-0.07924 -0.513319,-0.07924 -0.465088,0 -0.465088,0.251492 0,0.141249 0.148139,0.244602 0.151584,0.103353 0.658014,0.306613 0.451307,0.18259 0.661458,0.341065 0.210151,0.158474 0.310058,0.36518 0.09991,0.206706 0.09991,0.492648 z"
         style="fill:#e0e0e0;fill-opacity:0.94117647;stroke-width:0.26458332"
         id="path968" />
      <path
         d="m 74.840124,29.729096 q 0.275608,0 0.661459,-0.120578 v 0.782036 q -0.392741,0.1757 -0.964627,0.1757 -0.630452,0 -0.91984,-0.316949 -0.285943,-0.320394 -0.285943,-0.957736 v -1.856907 h -0.502984 v -0.444417 l 0.578776,-0.3514 0.303168,-0.813042 h 0.671794 v 0.819932 h 1.078315 v 0.788927 h -1.078315 v 1.856907 q 0,0.223931 0.124023,0.330729 0.127469,0.106798 0.334174,0.106798 z"
         style="fill:#e0e0e0;fill-opacity:0.94117647;stroke-width:0.26458332"
         id="path970" />
      <path
         d="m 77.875254,27.320974 q -0.334175,0 -0.523655,0.213596 -0.18948,0.210151 -0.217041,0.599447 h 1.474501 q -0.0069,-0.389296 -0.203261,-0.599447 -0.19637,-0.213596 -0.530544,-0.213596 z m 0.148139,3.24528 q -0.930176,0 -1.453831,-0.513319 -0.523654,-0.513319 -0.523654,-1.45383 0,-0.968072 0.482313,-1.495172 0.485759,-0.530545 1.340142,-0.530545 0.816488,0 1.271241,0.465088 0.454752,0.465088 0.454752,1.285021 v 0.509874 h -2.483914 q 0.01723,0.447862 0.265273,0.699354 0.248047,0.251492 0.695909,0.251492 0.347955,0 0.658013,-0.07235 0.310059,-0.07235 0.647678,-0.230821 v 0.813042 q -0.275608,0.137804 -0.589111,0.203261 -0.313504,0.0689 -0.764811,0.0689 z"
         style="fill:#e0e0e0;fill-opacity:0.94117647;stroke-width:0.26458332"
         id="path972" />
      <path
         d="m 83.89728,30.497352 h -1.050754 v -2.249647 q 0,-0.416857 -0.141249,-0.623562 -0.137804,-0.210151 -0.437527,-0.210151 -0.403077,0 -0.585667,0.296278 -0.18259,0.296278 -0.18259,0.974962 v 1.81212 h -1.050754 v -3.851617 h 0.802707 l 0.141249,0.492649 h 0.05857 q 0.155029,-0.265272 0.447862,-0.413411 0.292833,-0.151585 0.671794,-0.151585 0.864719,0 1.171332,0.564996 h 0.09302 q 0.155029,-0.268717 0.454752,-0.416856 0.303169,-0.14814 0.682129,-0.14814 0.654569,0 0.988743,0.33762 0.337619,0.334174 0.337619,1.07487 v 2.511474 h -1.054199 v -2.249647 q 0,-0.416857 -0.141249,-0.623562 -0.137804,-0.210151 -0.437527,-0.210151 -0.385851,0 -0.578776,0.275607 -0.18948,0.275608 -0.18948,0.875055 z"
         style="fill:#e0e0e0;fill-opacity:0.94117647;stroke-width:0.26458332"
         id="path974" />
      <path
         d="m 90.064001,29.35358 q 0,0.592557 -0.413412,0.902615 -0.409966,0.310059 -1.229899,0.310059 -0.420301,0 -0.71658,-0.05857 -0.296278,-0.05512 -0.55466,-0.165364 v -0.868164 q 0.292833,0.137804 0.658013,0.230821 0.368626,0.09302 0.647678,0.09302 0.571886,0 0.571886,-0.330729 0,-0.124024 -0.07579,-0.199816 -0.07579,-0.07924 -0.261827,-0.1757 -0.186035,-0.09991 -0.496094,-0.230821 -0.444417,-0.186035 -0.654568,-0.34451 -0.206706,-0.158474 -0.303169,-0.361735 -0.09302,-0.206705 -0.09302,-0.506429 0,-0.513319 0.396186,-0.792372 0.399631,-0.282498 1.129991,-0.282498 0.695909,0 1.353923,0.303169 l -0.316949,0.757921 q -0.289388,-0.124024 -0.54088,-0.203261 -0.251492,-0.07924 -0.513319,-0.07924 -0.465088,0 -0.465088,0.251492 0,0.141249 0.148139,0.244602 0.151584,0.103353 0.658013,0.306613 0.451308,0.18259 0.661458,0.341065 0.210151,0.158474 0.310059,0.36518 0.09991,0.206706 0.09991,0.492648 z"
         style="fill:#e0e0e0;fill-opacity:0.94117647;stroke-width:0.26458332"
         id="path976" />
    </g>
    <g
       aria-label=" Climate
monitors"
       style="font-style:normal;font-variant:normal;font-weight:bold;font-stretch:normal;font-size:7.05555534px;line-height:1.25;font-family:'Open Sans';-inkscape-font-specification:'Open Sans Bold';letter-spacing:0px;word-spacing:0px;fill:#e0e0e0;fill-opacity:0.94117647;stroke:none;stroke-width:0.26458332"
       id="text875">
      <path
         d="m 116.13746,-0.11823016 q -0.60289,0 -0.93362,0.45475259 -0.33073,0.45130749 -0.33073,1.26090487 0,1.6846517 1.26435,1.6846517 0.53055,0 1.28503,-0.2652724 v 0.8957248 q -0.62012,0.2583822 -1.38493,0.2583822 -1.09899,0 -1.68121,-0.6649034 -0.58222,-0.6683485 -0.58222,-1.9154731 0,-0.7854817 0.28594,-1.37459301 0.28594,-0.59255641 0.81993,-0.90606009 0.53744,-0.3169488 1.25746,-0.3169488 0.73381,0 1.47451,0.35484485 l -0.34451,0.86816404 q -0.2825,-0.13435872 -0.56844,-0.23426649 -0.28595,-0.09990776 -0.56156,-0.09990776 z"
         style="fill:#e0e0e0;fill-opacity:0.94117647;stroke-width:0.26458332"
         id="path979" />
      <path
         d="m 119.46198,4.1020117 h -1.05075 v -5.3605684 h 1.05075 z"
         style="fill:#e0e0e0;fill-opacity:0.94117647;stroke-width:0.26458332"
         id="path981" />
      <path
         d="m 120.51963,-0.74523752 q 0,-0.51331918 0.57188,-0.51331918 0.57189,0 0.57189,0.51331918 0,0.24460177 -0.1447,0.38240558 -0.14125,0.13435872 -0.42719,0.13435872 -0.57188,0 -0.57188,-0.5167643 z m 1.09554,4.84724922 h -1.05076 V 0.25039504 h 1.05076 z"
         style="fill:#e0e0e0;fill-opacity:0.94117647;stroke-width:0.26458332"
         id="path983" />
      <path
         d="m 126.16614,4.1020117 h -1.05076 V 1.8523644 q 0,-0.4168565 -0.14125,-0.6235623 -0.1378,-0.2101508 -0.43752,-0.2101508 -0.40308,0 -0.58567,0.2962782 -0.18259,0.2962782 -0.18259,0.974962 V 4.1020117 H 122.7176 V 0.25039504 h 0.8027 l 0.14125,0.49264864 h 0.0586 q 0.15503,-0.26527234 0.44786,-0.41341144 0.29284,-0.1515842 0.6718,-0.1515842 0.86471,0 1.17133,0.56499564 h 0.093 q 0.15503,-0.26871744 0.45475,-0.41685654 0.30317,-0.1481391 0.68213,-0.1481391 0.65457,0 0.98874,0.33761935 0.33762,0.33417425 0.33762,1.07486971 v 2.5114746 h -1.0542 V 1.8523644 q 0,-0.4168565 -0.14125,-0.6235623 -0.1378,-0.2101508 -0.43753,-0.2101508 -0.38585,0 -0.57877,0.2756076 -0.18948,0.2756077 -0.18948,0.8750543 z"
         style="fill:#e0e0e0;fill-opacity:0.94117647;stroke-width:0.26458332"
         id="path985" />
      <path
         d="m 132.0917,4.1020117 -0.20326,-0.5236545 h -0.0276 q -0.26527,0.3341742 -0.54777,0.4650879 -0.27905,0.1274685 -0.73036,0.1274685 -0.55466,0 -0.87505,-0.3169488 -0.31695,-0.3169488 -0.31695,-0.902615 0,-0.613227 0.42719,-0.902615 0.43064,-0.2928331 1.29535,-0.3238389 l 0.66835,-0.020671 V 1.5354156 q 0,-0.58566619 -0.59944,-0.58566619 -0.46165,0 -1.08521,0.27905269 l -0.34795,-0.70968962 q 0.6649,-0.34795463 1.4745,-0.34795463 0.77514,0 1.18856,0.33761935 0.41341,0.33761934 0.41341,1.0266384 v 2.5665961 z m -0.31006,-1.7845594 -0.40652,0.01378 q -0.4582,0.01378 -0.68213,0.1653645 -0.22393,0.1515842 -0.22393,0.4616428 0,0.4444173 0.50988,0.4444173 0.36518,0 0.58222,-0.2101508 0.22048,-0.2101508 0.22048,-0.5581055 z"
         style="fill:#e0e0e0;fill-opacity:0.94117647;stroke-width:0.26458332"
         id="path987" />
      <path
         d="m 135.52991,3.3337554 q 0.2756,0 0.66145,-0.1205783 v 0.7820366 q -0.39274,0.1756999 -0.96462,0.1756999 -0.63046,0 -0.91984,-0.3169488 -0.28595,-0.3203939 -0.28595,-0.9577365 V 1.0393219 h -0.50298 V 0.59490458 l 0.57878,-0.35139973 0.30316,-0.81304251 h 0.6718 v 0.8199327 h 1.07831 V 1.0393219 h -1.07831 v 1.8569064 q 0,0.2239312 0.12402,0.3307292 0.12747,0.1067979 0.33418,0.1067979 z"
         style="fill:#e0e0e0;fill-opacity:0.94117647;stroke-width:0.26458332"
         id="path989" />
      <path
         d="m 138.56504,0.92563374 q -0.33418,0 -0.52366,0.21359596 -0.18948,0.2101508 -0.21704,0.5994465 h 1.4745 q -0.007,-0.3892957 -0.20326,-0.5994465 -0.19637,-0.21359596 -0.53054,-0.21359596 z m 0.14813,3.24527986 q -0.93017,0 -1.45383,-0.5133192 -0.52365,-0.5133192 -0.52365,-1.4538303 0,-0.9680718 0.48231,-1.49517137 0.48576,-0.53054469 1.34015,-0.53054469 0.81648,0 1.27124,0.46508788 0.45475,0.46508788 0.45475,1.28502058 v 0.5098741 h -2.48392 q 0.0172,0.4478624 0.26528,0.6993544 0.24804,0.2514919 0.69591,0.2514919 0.34795,0 0.65801,-0.072347 0.31006,-0.072347 0.64768,-0.2308214 v 0.8130426 q -0.27561,0.1378038 -0.58911,0.2032606 -0.31351,0.068902 -0.76482,0.068902 z"
         style="fill:#e0e0e0;fill-opacity:0.94117647;stroke-width:0.26458332"
         id="path991" />
      <path
         d="m 115.53113,12.921456 h -1.05076 v -2.249647 q 0,-0.416857 -0.14125,-0.623563 -0.1378,-0.2101505 -0.43752,-0.2101505 -0.40308,0 -0.58567,0.2962785 -0.18259,0.296278 -0.18259,0.974962 v 1.81212 h -1.05075 V 9.0698392 h 0.8027 l 0.14125,0.4926487 h 0.0586 q 0.15503,-0.2652724 0.44786,-0.4134115 0.29284,-0.1515842 0.6718,-0.1515842 0.86472,0 1.17133,0.5649957 h 0.093 q 0.15503,-0.2687175 0.45475,-0.4168566 0.30317,-0.1481391 0.68213,-0.1481391 0.65457,0 0.98874,0.3376194 0.33762,0.3341742 0.33762,1.0748694 v 2.511475 h -1.0542 v -2.249647 q 0,-0.416857 -0.14125,-0.623563 -0.1378,-0.2101505 -0.43753,-0.2101505 -0.38585,0 -0.57877,0.2756075 -0.18948,0.275608 -0.18948,0.875054 z"
         style="fill:#e0e0e0;fill-opacity:0.94117647;stroke-width:0.26458332"
         id="path993" />
      <path
         d="m 119.84783,10.988757 q 0,0.571886 0.18604,0.864719 0.18948,0.292833 0.61322,0.292833 0.42031,0 0.6029,-0.289388 0.18603,-0.292833 0.18603,-0.868164 0,-0.571885 -0.18603,-0.857828 -0.18604,-0.2859433 -0.60979,-0.2859433 -0.4203,0 -0.60633,0.2859433 -0.18604,0.282497 -0.18604,0.857828 z m 2.66306,0 q 0,0.940511 -0.49609,1.471056 -0.4961,0.530545 -1.38149,0.530545 -0.55466,0 -0.9784,-0.241157 -0.42375,-0.244602 -0.65113,-0.699354 -0.22737,-0.454753 -0.22737,-1.06109 0,-0.943956 0.49265,-1.4676103 0.49264,-0.5236545 1.38492,-0.5236545 0.55466,0 0.97841,0.2411567 0.42375,0.2411567 0.65112,0.6924642 0.22738,0.4513079 0.22738,1.0576439 z"
         style="fill:#e0e0e0;fill-opacity:0.94117647;stroke-width:0.26458332"
         id="path995" />
      <path
         d="m 126.93439,12.921456 h -1.05075 v -2.249647 q 0,-0.416857 -0.14814,-0.623563 -0.14814,-0.2101505 -0.47198,-0.2101505 -0.44097,0 -0.63734,0.2962785 -0.19637,0.292833 -0.19637,0.974962 v 1.81212 h -1.05075 V 9.0698392 h 0.8027 l 0.14125,0.4926487 h 0.0586 q 0.1757,-0.2790528 0.48231,-0.4203017 0.31006,-0.144694 0.7028,-0.144694 0.67179,0 1.01975,0.3651801 0.34795,0.361735 0.34795,1.0473087 z"
         style="fill:#e0e0e0;fill-opacity:0.94117647;stroke-width:0.26458332"
         id="path997" />
      <path
         d="m 127.97137,8.0742067 q 0,-0.5133193 0.57188,-0.5133193 0.57189,0 0.57189,0.5133193 0,0.2446017 -0.1447,0.3824055 -0.14124,0.1343588 -0.42719,0.1343588 -0.57188,0 -0.57188,-0.5167643 z m 1.09554,4.8472493 h -1.05076 V 9.0698392 h 1.05076 z"
         style="fill:#e0e0e0;fill-opacity:0.94117647;stroke-width:0.26458332"
         id="path999" />
      <path
         d="m 131.79198,12.1532 q 0.2756,0 0.66146,-0.120579 v 0.782037 q -0.39275,0.1757 -0.96463,0.1757 -0.63045,0 -0.91984,-0.316949 -0.28594,-0.320394 -0.28594,-0.957737 V 9.8587661 h -0.50299 V 9.4143488 l 0.57878,-0.3513998 0.30317,-0.8130425 h 0.67179 v 0.8199327 h 1.07831 v 0.7889269 h -1.07831 v 1.8569059 q 0,0.223932 0.12402,0.33073 0.12747,0.106798 0.33418,0.106798 z"
         style="fill:#e0e0e0;fill-opacity:0.94117647;stroke-width:0.26458332"
         id="path1001" />
      <path
         d="m 134.06919,10.988757 q 0,0.571886 0.18603,0.864719 0.18948,0.292833 0.61323,0.292833 0.4203,0 0.60289,-0.289388 0.18604,-0.292833 0.18604,-0.868164 0,-0.571885 -0.18604,-0.857828 -0.18604,-0.2859433 -0.60978,-0.2859433 -0.4203,0 -0.60634,0.2859433 -0.18603,0.282497 -0.18603,0.857828 z m 2.66306,0 q 0,0.940511 -0.4961,1.471056 -0.49609,0.530545 -1.38148,0.530545 -0.55466,0 -0.97841,-0.241157 -0.42375,-0.244602 -0.65112,-0.699354 -0.22738,-0.454753 -0.22738,-1.06109 0,-0.943956 0.49265,-1.4676103 0.49265,-0.5236545 1.38493,-0.5236545 0.55466,0 0.97841,0.2411567 0.42374,0.2411567 0.65112,0.6924642 0.22738,0.4513079 0.22738,1.0576439 z"
         style="fill:#e0e0e0;fill-opacity:0.94117647;stroke-width:0.26458332"
         id="path1003" />
      <path
         d="m 139.75015,8.9974922 q 0.2136,0 0.35484,0.031006 l -0.0792,0.9852969 q -0.12747,-0.034451 -0.31006,-0.034451 -0.50299,0 -0.78548,0.2583826 -0.27906,0.258382 -0.27906,0.72347 v 1.960259 h -1.05075 V 9.0698392 h 0.79582 l 0.15503,0.647678 h 0.0517 q 0.17915,-0.323839 0.48232,-0.5202094 0.30661,-0.1998156 0.6649,-0.1998156 z"
         style="fill:#e0e0e0;fill-opacity:0.94117647;stroke-width:0.26458332"
         id="path1005" />
      <path
         d="m 143.49152,11.777684 q 0,0.592557 -0.41341,0.902615 -0.40997,0.310059 -1.2299,0.310059 -0.4203,0 -0.71658,-0.05857 -0.29628,-0.05512 -0.55466,-0.165364 v -0.868164 q 0.29283,0.137803 0.65801,0.230821 0.36863,0.09302 0.64768,0.09302 0.57189,0 0.57189,-0.330729 0,-0.124023 -0.0758,-0.199815 -0.0758,-0.07924 -0.26183,-0.1757 -0.18604,-0.09991 -0.4961,-0.230821 -0.44441,-0.186036 -0.65456,-0.34451 -0.20671,-0.158474 -0.30317,-0.361735 -0.093,-0.206706 -0.093,-0.506429 0,-0.5133192 0.39619,-0.792372 0.39963,-0.2824978 1.12999,-0.2824978 0.69591,0 1.35392,0.3031684 l -0.31695,0.7579214 q -0.28939,-0.1240238 -0.54088,-0.203261 -0.25149,-0.079237 -0.51332,-0.079237 -0.46509,0 -0.46509,0.2514922 0,0.141249 0.14814,0.244602 0.15159,0.103352 0.65802,0.306613 0.4513,0.18259 0.66146,0.341064 0.21015,0.158475 0.31005,0.365181 0.0999,0.206705 0.0999,0.492648 z"
         style="fill:#e0e0e0;fill-opacity:0.94117647;stroke-width:0.26458332"
         id="path1007" />
    </g>
    <g
       aria-label="Wireless
 sensors"
       style="font-style:normal;font-variant:normal;font-weight:bold;font-stretch:normal;font-size:7.05555534px;line-height:1.25;font-family:'Open Sans';-inkscape-font-specification:'Open Sans Bold';letter-spacing:0px;word-spacing:0px;fill:#e0e0e0;fill-opacity:0.94117647;stroke:none;stroke-width:0.26458332"
       id="text881">
      <path
         d="m 173.20056,27.725525 h -1.21612 l -0.68213,-2.645833 q -0.0379,-0.141249 -0.13091,-0.582221 -0.0896,-0.444418 -0.10336,-0.596002 -0.0207,0.186035 -0.10335,0.599447 -0.0827,0.409966 -0.12747,0.585666 l -0.67868,2.638943 h -1.21268 l -1.28502,-5.03673 h 1.05076 l 0.64423,2.749187 q 0.16881,0.761366 0.2446,1.319471 0.0207,-0.19637 0.093,-0.606337 0.0758,-0.413411 0.14125,-0.640787 l 0.7338,-2.821534 h 1.00942 l 0.7338,2.821534 q 0.0482,0.18948 0.12058,0.578776 0.0724,0.389295 0.11024,0.668348 0.0344,-0.268717 0.11025,-0.668348 0.0758,-0.403077 0.1378,-0.651123 l 0.64079,-2.749187 h 1.05075 z"
         style="fill:#e0e0e0;fill-opacity:0.94117647;stroke-width:0.26458332"
         id="path1010" />
      <path
         d="m 174.98856,22.878276 q 0,-0.51332 0.57189,-0.51332 0.57188,0 0.57188,0.51332 0,0.244601 -0.14469,0.382405 -0.14125,0.134359 -0.42719,0.134359 -0.57189,0 -0.57189,-0.516764 z m 1.09554,4.847249 h -1.05075 v -3.851617 h 1.05075 z"
         style="fill:#e0e0e0;fill-opacity:0.94117647;stroke-width:0.26458332"
         id="path1012" />
      <path
         d="m 179.33627,23.801561 q 0.2136,0 0.35485,0.03101 l -0.0792,0.985297 q -0.12747,-0.03445 -0.31006,-0.03445 -0.50298,0 -0.78548,0.258383 -0.27905,0.258382 -0.27905,0.72347 v 1.960259 h -1.05076 v -3.851617 h 0.79582 l 0.15503,0.647678 h 0.0517 q 0.17915,-0.323839 0.48232,-0.520209 0.30661,-0.199816 0.6649,-0.199816 z"
         style="fill:#e0e0e0;fill-opacity:0.94117647;stroke-width:0.26458332"
         id="path1014" />
      <path
         d="m 181.98555,24.549147 q -0.33417,0 -0.52365,0.213596 -0.18948,0.210151 -0.21705,0.599446 h 1.47451 q -0.007,-0.389295 -0.20327,-0.599446 -0.19637,-0.213596 -0.53054,-0.213596 z m 0.14814,3.24528 q -0.93018,0 -1.45383,-0.513319 -0.52366,-0.51332 -0.52366,-1.453831 0,-0.968071 0.48232,-1.495171 0.48576,-0.530545 1.34014,-0.530545 0.81649,0 1.27124,0.465088 0.45475,0.465088 0.45475,1.285021 v 0.509874 h -2.48391 q 0.0172,0.447862 0.26527,0.699354 0.24805,0.251492 0.69591,0.251492 0.34795,0 0.65801,-0.07235 0.31006,-0.07235 0.64768,-0.230821 v 0.813042 q -0.27561,0.137804 -0.58911,0.203261 -0.3135,0.0689 -0.76481,0.0689 z"
         style="fill:#e0e0e0;fill-opacity:0.94117647;stroke-width:0.26458332"
         id="path1016" />
      <path
         d="m 185.60979,27.725525 h -1.05075 v -5.360569 h 1.05075 z"
         style="fill:#e0e0e0;fill-opacity:0.94117647;stroke-width:0.26458332"
         id="path1018" />
      <path
         d="m 188.3073,24.549147 q -0.33417,0 -0.52366,0.213596 -0.18948,0.210151 -0.21704,0.599446 h 1.4745 q -0.007,-0.389295 -0.20326,-0.599446 -0.19637,-0.213596 -0.53054,-0.213596 z m 0.14814,3.24528 q -0.93018,0 -1.45383,-0.513319 -0.52366,-0.51332 -0.52366,-1.453831 0,-0.968071 0.48232,-1.495171 0.48576,-0.530545 1.34014,-0.530545 0.81649,0 1.27124,0.465088 0.45475,0.465088 0.45475,1.285021 v 0.509874 h -2.48391 q 0.0172,0.447862 0.26527,0.699354 0.24805,0.251492 0.69591,0.251492 0.34795,0 0.65801,-0.07235 0.31006,-0.07235 0.64768,-0.230821 v 0.813042 q -0.27561,0.137804 -0.58911,0.203261 -0.3135,0.0689 -0.76481,0.0689 z"
         style="fill:#e0e0e0;fill-opacity:0.94117647;stroke-width:0.26458332"
         id="path1020" />
      <path
         d="m 193.56796,26.581753 q 0,0.592557 -0.41341,0.902615 -0.40997,0.310059 -1.2299,0.310059 -0.4203,0 -0.71658,-0.05857 -0.29628,-0.05512 -0.55466,-0.165364 v -0.868164 q 0.29283,0.137803 0.65801,0.230821 0.36863,0.09302 0.64768,0.09302 0.57189,0 0.57189,-0.33073 0,-0.124023 -0.0758,-0.199815 -0.0758,-0.07924 -0.26182,-0.1757 -0.18604,-0.09991 -0.4961,-0.230821 -0.44441,-0.186036 -0.65456,-0.34451 -0.20671,-0.158474 -0.30317,-0.361735 -0.093,-0.206706 -0.093,-0.506429 0,-0.513319 0.39619,-0.792372 0.39963,-0.282498 1.12999,-0.282498 0.69591,0 1.35392,0.303169 l -0.31695,0.757921 q -0.28939,-0.124024 -0.54088,-0.203261 -0.25149,-0.07924 -0.51332,-0.07924 -0.46509,0 -0.46509,0.251492 0,0.141249 0.14814,0.244602 0.15159,0.103352 0.65802,0.306613 0.4513,0.18259 0.66145,0.341064 0.21015,0.158475 0.31006,0.365181 0.0999,0.206705 0.0999,0.492648 z"
         style="fill:#e0e0e0;fill-opacity:0.94117647;stroke-width:0.26458332"
         id="path1022" />
      <path
         d="m 197.07507,26.581753 q 0,0.592557 -0.41341,0.902615 -0.40997,0.310059 -1.2299,0.310059 -0.4203,0 -0.71658,-0.05857 -0.29628,-0.05512 -0.55466,-0.165364 v -0.868164 q 0.29283,0.137803 0.65801,0.230821 0.36862,0.09302 0.64768,0.09302 0.57188,0 0.57188,-0.33073 0,-0.124023 -0.0758,-0.199815 -0.0758,-0.07924 -0.26183,-0.1757 -0.18603,-0.09991 -0.49609,-0.230821 -0.44442,-0.186036 -0.65457,-0.34451 -0.2067,-0.158474 -0.30317,-0.361735 -0.093,-0.206706 -0.093,-0.506429 0,-0.513319 0.39618,-0.792372 0.39963,-0.282498 1.12999,-0.282498 0.69591,0 1.35393,0.303169 l -0.31695,0.757921 q -0.28939,-0.124024 -0.54088,-0.203261 -0.25149,-0.07924 -0.51332,-0.07924 -0.46509,0 -0.46509,0.251492 0,0.141249 0.14814,0.244602 0.15158,0.103352 0.65801,0.306613 0.45131,0.18259 0.66146,0.341064 0.21015,0.158475 0.31006,0.365181 0.0999,0.206705 0.0999,0.492648 z"
         style="fill:#e0e0e0;fill-opacity:0.94117647;stroke-width:0.26458332"
         id="path1024" />
      <path
         d="m 172.73202,35.401197 q 0,0.592557 -0.41341,0.902615 -0.40996,0.310059 -1.2299,0.310059 -0.4203,0 -0.71658,-0.05857 -0.29628,-0.05512 -0.55466,-0.165364 v -0.868164 q 0.29284,0.137804 0.65802,0.230821 0.36862,0.09302 0.64767,0.09302 0.57189,0 0.57189,-0.330729 0,-0.124024 -0.0758,-0.199816 -0.0758,-0.07924 -0.26183,-0.1757 -0.18603,-0.09991 -0.49609,-0.230821 -0.44442,-0.186035 -0.65457,-0.34451 -0.20671,-0.158474 -0.30317,-0.361735 -0.093,-0.206706 -0.093,-0.506429 0,-0.513319 0.39619,-0.792372 0.39963,-0.282498 1.12999,-0.282498 0.69591,0 1.35392,0.303169 l -0.31695,0.757921 q -0.28938,-0.124024 -0.54088,-0.203261 -0.25149,-0.07924 -0.51332,-0.07924 -0.46508,0 -0.46508,0.251492 0,0.141249 0.14814,0.244602 0.15158,0.103353 0.65801,0.306613 0.45131,0.18259 0.66146,0.341065 0.21015,0.158474 0.31006,0.36518 0.0999,0.206705 0.0999,0.492648 z"
         style="fill:#e0e0e0;fill-opacity:0.94117647;stroke-width:0.26458332"
         id="path1026" />
      <path
         d="m 175.14703,33.368591 q -0.33417,0 -0.52365,0.213596 -0.18948,0.210151 -0.21704,0.599447 h 1.4745 q -0.007,-0.389296 -0.20326,-0.599447 -0.19637,-0.213596 -0.53055,-0.213596 z m 0.14814,3.24528 q -0.93017,0 -1.45383,-0.513319 -0.52365,-0.513319 -0.52365,-1.45383 0,-0.968072 0.48231,-1.495172 0.48576,-0.530545 1.34014,-0.530545 0.81649,0 1.27124,0.465088 0.45476,0.465088 0.45476,1.285021 v 0.509874 h -2.48392 q 0.0172,0.447862 0.26528,0.699354 0.24804,0.251492 0.69591,0.251492 0.34795,0 0.65801,-0.07235 0.31006,-0.07235 0.64768,-0.230821 v 0.813042 q -0.27561,0.137804 -0.58911,0.203261 -0.31351,0.0689 -0.76482,0.0689 z"
         style="fill:#e0e0e0;fill-opacity:0.94117647;stroke-width:0.26458332"
         id="path1028" />
      <path
         d="m 181.27586,36.544969 h -1.05075 v -2.249647 q 0,-0.416857 -0.14814,-0.623562 -0.14814,-0.210151 -0.47198,-0.210151 -0.44097,0 -0.63734,0.296278 -0.19637,0.292833 -0.19637,0.974962 v 1.81212 h -1.05076 v -3.851617 h 0.80271 l 0.14125,0.492649 h 0.0586 q 0.1757,-0.279053 0.48232,-0.420302 0.31006,-0.144694 0.7028,-0.144694 0.67179,0 1.01974,0.365181 0.34796,0.361735 0.34796,1.047309 z"
         style="fill:#e0e0e0;fill-opacity:0.94117647;stroke-width:0.26458332"
         id="path1030" />
      <path
         d="m 185.04479,35.401197 q 0,0.592557 -0.41341,0.902615 -0.40996,0.310059 -1.2299,0.310059 -0.4203,0 -0.71658,-0.05857 -0.29627,-0.05512 -0.55466,-0.165364 v -0.868164 q 0.29284,0.137804 0.65802,0.230821 0.36862,0.09302 0.64767,0.09302 0.57189,0 0.57189,-0.330729 0,-0.124024 -0.0758,-0.199816 -0.0758,-0.07924 -0.26183,-0.1757 -0.18603,-0.09991 -0.49609,-0.230821 -0.44442,-0.186035 -0.65457,-0.34451 -0.20671,-0.158474 -0.30317,-0.361735 -0.093,-0.206706 -0.093,-0.506429 0,-0.513319 0.39619,-0.792372 0.39963,-0.282498 1.12999,-0.282498 0.69591,0 1.35392,0.303169 l -0.31695,0.757921 q -0.28938,-0.124024 -0.54088,-0.203261 -0.25149,-0.07924 -0.51332,-0.07924 -0.46508,0 -0.46508,0.251492 0,0.141249 0.14814,0.244602 0.15158,0.103353 0.65801,0.306613 0.45131,0.18259 0.66146,0.341065 0.21015,0.158474 0.31006,0.36518 0.0999,0.206705 0.0999,0.492648 z"
         style="fill:#e0e0e0;fill-opacity:0.94117647;stroke-width:0.26458332"
         id="path1032" />
      <path
         d="m 186.70188,34.612271 q 0,0.571885 0.18604,0.864719 0.18948,0.292833 0.61323,0.292833 0.4203,0 0.60289,-0.289388 0.18603,-0.292833 0.18603,-0.868164 0,-0.571886 -0.18603,-0.857829 -0.18604,-0.285943 -0.60978,-0.285943 -0.42031,0 -0.60634,0.285943 -0.18604,0.282498 -0.18604,0.857829 z m 2.66306,0 q 0,0.940511 -0.49609,1.471055 -0.49609,0.530545 -1.38148,0.530545 -0.55466,0 -0.97841,-0.241157 -0.42375,-0.244601 -0.65112,-0.699354 -0.22738,-0.454753 -0.22738,-1.061089 0,-0.943957 0.49265,-1.467611 0.49265,-0.523655 1.38493,-0.523655 0.55466,0 0.9784,0.241157 0.42375,0.241157 0.65113,0.692464 0.22737,0.451308 0.22737,1.057645 z"
         style="fill:#e0e0e0;fill-opacity:0.94117647;stroke-width:0.26458332"
         id="path1034" />
      <path
         d="m 192.38285,32.621005 q 0.21359,0 0.35484,0.03101 l -0.0792,0.985298 q -0.12746,-0.03445 -0.31005,-0.03445 -0.50299,0 -0.78549,0.258382 -0.27905,0.258382 -0.27905,0.72347 v 1.960259 h -1.05075 v -3.851617 h 0.79581 l 0.15503,0.647678 h 0.0517 q 0.17915,-0.323839 0.48231,-0.520209 0.30662,-0.199816 0.66491,-0.199816 z"
         style="fill:#e0e0e0;fill-opacity:0.94117647;stroke-width:0.26458332"
         id="path1036" />
      <path
         d="m 196.12422,35.401197 q 0,0.592557 -0.41341,0.902615 -0.40997,0.310059 -1.2299,0.310059 -0.4203,0 -0.71658,-0.05857 -0.29628,-0.05512 -0.55466,-0.165364 v -0.868164 q 0.29283,0.137804 0.65801,0.230821 0.36863,0.09302 0.64768,0.09302 0.57189,0 0.57189,-0.330729 0,-0.124024 -0.0758,-0.199816 -0.0758,-0.07924 -0.26183,-0.1757 -0.18604,-0.09991 -0.4961,-0.230821 -0.44441,-0.186035 -0.65456,-0.34451 -0.20671,-0.158474 -0.30317,-0.361735 -0.093,-0.206706 -0.093,-0.506429 0,-0.513319 0.39619,-0.792372 0.39963,-0.282498 1.12999,-0.282498 0.69591,0 1.35392,0.303169 l -0.31695,0.757921 q -0.28939,-0.124024 -0.54088,-0.203261 -0.25149,-0.07924 -0.51332,-0.07924 -0.46509,0 -0.46509,0.251492 0,0.141249 0.14814,0.244602 0.15159,0.103353 0.65802,0.306613 0.4513,0.18259 0.66146,0.341065 0.21015,0.158474 0.31005,0.36518 0.0999,0.206705 0.0999,0.492648 z"
         style="fill:#e0e0e0;fill-opacity:0.94117647;stroke-width:0.26458332"
         id="path1038" />
    </g>
  </g>
</svg>
