<?xml version="1.0" encoding="UTF-8" standalone="no"?>
<svg
   xmlns:dc="http://purl.org/dc/elements/1.1/"
   xmlns:cc="http://creativecommons.org/ns#"
   xmlns:rdf="http://www.w3.org/1999/02/22-rdf-syntax-ns#"
   xmlns:svg="http://www.w3.org/2000/svg"
   xmlns="http://www.w3.org/2000/svg"
   xmlns:sodipodi="http://sodipodi.sourceforge.net/DTD/sodipodi-0.dtd"
   xmlns:inkscape="http://www.inkscape.org/namespaces/inkscape"
   id="svg8"
   version="1.1"
   viewBox="0 0 397.69705 236.26627"
   height="236.26627mm"
   width="397.69705mm"
   sodipodi:docname="temperature-chart.svg"
   inkscape:version="0.92.5 (2060ec1f9f, 2020-04-08)">
  <sodipodi:namedview
     pagecolor="#ffffff"
     bordercolor="#666666"
     borderopacity="1"
     objecttolerance="10"
     gridtolerance="10"
     guidetolerance="10"
     inkscape:pageopacity="0"
     inkscape:pageshadow="2"
     inkscape:window-width="2800"
     inkscape:window-height="1672"
     id="namedview70"
     showgrid="false"
     inkscape:zoom="0.26428515"
     inkscape:cx="751.55348"
     inkscape:cy="446.48743"
     inkscape:window-x="80"
     inkscape:window-y="54"
     inkscape:window-maximized="1"
     inkscape:current-layer="svg8" />
  <defs
     id="defs2" />
  <metadata
     id="metadata5">
    <rdf:RDF>
      <cc:Work
         rdf:about="">
        <dc:format>image/svg+xml</dc:format>
        <dc:type
           rdf:resource="http://purl.org/dc/dcmitype/StillImage" />
        <dc:title />
      </cc:Work>
    </rdf:RDF>
  </metadata>
  <g
     transform="translate(110.64958,-4.6071372)"
     id="layer1">
    <g
       transform="translate(3.7632216,-18.383685)"
       id="g1989">
      <path
         style="fill:none;stroke:#c8c8c8;stroke-width:0.67380285;stroke-linecap:butt;stroke-linejoin:miter;stroke-miterlimit:4;stroke-dasharray:none;stroke-opacity:1"
         d="M -56.460688,91.436324 260.8543,91.302691"
         id="path1297-2-3" />
      <path
         style="fill:none;stroke:#c8c8c8;stroke-width:0.67380285;stroke-linecap:butt;stroke-linejoin:miter;stroke-miterlimit:4;stroke-dasharray:none;stroke-opacity:1"
         d="M -56.460688,124.61116 260.85429,124.47753"
         id="path1297-2-3-1" />
      <path
         style="fill:none;stroke:#c8c8c8;stroke-width:0.67380285;stroke-linecap:butt;stroke-linejoin:miter;stroke-miterlimit:4;stroke-dasharray:none;stroke-opacity:1"
         d="M -56.460688,58.412937 260.85429,58.279304"
         id="path1297-2" />
      <path
         style="fill:none;stroke:#c8c8c8;stroke-width:0.67380285;stroke-linecap:butt;stroke-linejoin:miter;stroke-miterlimit:4;stroke-dasharray:none;stroke-opacity:1"
         d="M -56.460688,157.75258 260.85428,157.61895"
         id="path1297-2-3-1-9" />
      <path
         style="fill:none;stroke:#c8c8c8;stroke-width:0.67380285;stroke-linecap:butt;stroke-linejoin:miter;stroke-miterlimit:4;stroke-dasharray:none;stroke-opacity:1"
         d="M -56.460688,190.894 260.85428,190.76037"
         id="path1297-2-3-1-9-4" />
      <path
         style="fill:none;stroke:#c8c8c8;stroke-width:0.67380285;stroke-linecap:butt;stroke-linejoin:miter;stroke-miterlimit:4;stroke-dasharray:none;stroke-opacity:1"
         d="M -56.460688,223.9686 260.85427,223.83497"
         id="path1297-2-3-1-9-4-7" />
      <path
         style="fill:#b3e5fc;fill-opacity:1;stroke:none;stroke-width:1.32599998;stroke-linecap:butt;stroke-linejoin:miter;stroke-miterlimit:4;stroke-dasharray:none;stroke-opacity:1"
         d="m -55.391612,149.19995 c 0,0 1.678536,0.47862 2.53906,0.46772 0.864837,-0.0109 1.674252,-0.52161 2.539061,-0.53454 0.882408,-0.0132 1.725918,0.40073 2.605879,0.46772 0.866404,0.066 1.738199,-0.0205 2.605878,-0.0668 0.825613,-0.044 1.717067,0.13612 2.472244,-0.20046 1.036113,-0.46179 1.75763,-1.45763 2.472242,-2.3386 1.020312,-1.25783 1.669345,-2.77638 2.539061,-4.14268 0.802749,-1.26109 1.609358,-2.52104 2.472243,-3.74177 0.789364,-1.11672 1.63432,-2.1933 2.472243,-3.27406 0.854647,-1.10233 1.76903,-2.15815 2.605879,-3.27405 0.834176,-1.11234 1.495775,-2.35616 2.405426,-3.40768 0.783354,-0.90553 1.682181,-1.7104 2.605875,-2.47225 0.739037,-0.60954 1.457736,-1.2939 2.33861,-1.67043 0.439452,-0.18784 0.895133,-0.32207 1.36048,-0.42453 l -0.375787,99.41581 -34.72747,-0.0348 v -74.92266 z"
         id="path826-4" />
      <path
         style="fill:#ffccbc;fill-opacity:1;stroke:none;stroke-width:1.32599998;stroke-linecap:butt;stroke-linejoin:miter;stroke-miterlimit:4;stroke-dasharray:none;stroke-opacity:1"
         d="m -21.733218,124.6782 c 1.38728,-0.36601 2.87879,-0.38868 4.293878,-0.66839 1.62835,-0.32187 3.23739,-0.74803 4.87767,-1.00226 1.68198,-0.26069 3.40298,-0.233 5.07812,-0.53454 1.67471,-0.30146 3.26768,-0.97998 4.94449,-1.26953 1.69693,-0.29303 3.43975,-0.22731 5.14493,-0.46773 1.63931,-0.23113 3.25065,-0.62957 4.87767,-0.93544 1.691561,-0.318 3.38617,-0.61956 5.07813,-0.93544 1.648899,-0.30785 3.28821,-0.67002 4.94448,-0.93544 1.68579,-0.27016 3.397898,-0.36535 5.078124,-0.66818 1.664277,-0.29996 3.271539,-0.8888 4.944483,-1.13589 1.634191,-0.24137 3.310761,-0.0896 4.944489,-0.33409 1.741815,-0.26067 3.399766,-0.96553 5.144936,-1.20271 1.63449,-0.22214 3.302977,-0.0382 4.944489,-0.20046 1.705358,-0.16863 3.392014,-0.49562 5.078113,-0.8018 1.633159,-0.29656 3.2355,-0.76066 4.877681,-1.00227 1.72565,-0.2539 3.49417,-0.16395 5.21175,-0.46772 1.70239,-0.30109 3.305698,-1.05403 5.011308,-1.33634 1.629741,-0.26976 3.309941,-0.0951 4.944481,-0.33409 1.694791,-0.2478 3.326021,-0.83007 5.011301,-1.1359 1.614699,-0.29303 3.25937,-0.39576 4.87767,-0.66817 l 1e-6,115.36154 h -99.308194 z"
         id="path826-69-5" />
      <path
         style="fill:#ffcdd2;fill-opacity:1;stroke:none;stroke-width:1.32599998;stroke-linecap:butt;stroke-linejoin:miter;stroke-miterlimit:4;stroke-dasharray:none;stroke-opacity:1"
         d="m 77.574976,108.64181 c 1.679883,-0.28277 3.327573,-0.74341 5.011313,-1.00226 1.63851,-0.2519 3.299999,-0.32513 4.944479,-0.53454 1.67479,-0.21327 3.33747,-0.51447 5.01131,-0.73499 1.71186,-0.22553 3.44087,-0.32299 5.14493,-0.60136 1.70719,-0.27888 3.372302,-0.7819 5.078112,-1.06908 1.57188,-0.26463 3.16961,-0.35233 4.74404,-0.60135 1.76897,-0.27978 3.51331,-0.69993 5.27857,-1.00226 1.59894,-0.27385 3.20087,-0.53603 4.81085,-0.735 1.64302,-0.20305 3.30426,-0.24334 4.94449,-0.46772 1.74872,-0.23922 3.46007,-0.71891 5.21175,-0.93544 1.61739,-0.19993 3.28646,0.018 4.87767,-0.33409 0.90868,-0.20108 1.69205,-0.82609 2.60589,-1.00225 1.59664,-0.307791 3.25476,0.0342 4.87766,-0.0668 1.81166,-0.1128 3.66826,-0.0979 5.41221,-0.60136 0.78477,-0.226559 1.4101,-0.88096 2.20498,-1.069081 1.62566,-0.384749 3.34527,0.0564 5.01129,-0.0668 1.65861,-0.122672 3.30154,-0.409842 4.94449,-0.66817 1.7436,-0.274161 3.47261,-0.634451 5.21176,-0.93545 1.60192,-0.277241 3.20137,-0.572511 4.81085,-0.801801 1.6875,-0.240411 3.38441,-0.40953 5.07812,-0.601359 1.64724,-0.186572 3.31425,-0.233662 4.94448,-0.534542 1.72127,-0.317678 3.35122,-1.050893 5.07814,-1.336344 1.56402,-0.258531 3.17346,-0.118662 4.74404,-0.334087 1.75695,-0.240995 3.45254,-0.844849 5.21173,-1.069081 1.7256,-0.219947 3.48002,-0.102916 5.21176,-0.267268 1.61177,-0.152966 3.21956,-0.369914 4.81085,-0.668174 1.70977,-0.320462 3.35615,-0.956134 5.07813,-1.202713 1.69995,-0.243427 3.44527,-0.02176 5.14493,-0.26727 1.60935,-0.232467 3.12282,-1.261225 4.74403,-1.135895 0.93611,0.07237 1.66713,1.082646 2.60589,1.069078 0.87734,-0.01268 1.54713,-0.886931 2.40543,-1.069078 1.74298,-0.369886 3.56735,0.115471 5.34538,0 1.54656,-0.100438 3.07763,-0.372086 4.61042,-0.601356 1.7201,-0.257293 3.42596,-0.603899 5.14492,-0.868628 1.75581,-0.270398 3.52941,-0.424558 5.27858,-0.734988 1.66031,-0.294659 3.27329,-0.844273 4.94451,-1.069078 2.4317,-0.327108 7.34988,-0.400905 7.34988,-0.400905 V 224.00335 H 77.574976 Z"
         id="path826-69-3-2" />
      <path
         style="fill:none;stroke:#64b5f6;stroke-width:1.32599998;stroke-linecap:butt;stroke-linejoin:miter;stroke-miterlimit:4;stroke-dasharray:none;stroke-opacity:1"
         d="m -55.39161,149.19995 c 0,0 1.678536,0.47862 2.53906,0.46772 0.864837,-0.0109 1.674252,-0.52161 2.539061,-0.53454 0.882408,-0.0132 1.725918,0.40073 2.605879,0.46772 0.866404,0.066 1.738199,-0.0205 2.605878,-0.0668 0.825613,-0.044 1.717067,0.13612 2.472243,-0.20046 1.036114,-0.46179 1.75763,-1.45763 2.472243,-2.3386 1.020311,-1.25783 1.669344,-2.77638 2.539061,-4.14268 0.802748,-1.26109 1.609357,-2.52104 2.472242,-3.74177 0.789364,-1.11672 1.63432,-2.1933 2.472243,-3.27406 0.854647,-1.10233 1.76903,-2.15815 2.605879,-3.27405 0.834176,-1.11234 1.495776,-2.35616 2.405425,-3.40768 0.783355,-0.90553 1.682182,-1.7104 2.605878,-2.47225 0.739035,-0.60954 1.457734,-1.2939 2.338609,-1.67043 0.43945,-0.18784 0.895133,-0.32207 1.360478,-0.42453"
         id="path826" />
      <path
         style="fill:none;stroke:#ff8a65;stroke-width:1.32599998;stroke-linecap:butt;stroke-linejoin:miter;stroke-miterlimit:4;stroke-dasharray:none;stroke-opacity:1"
         d="m -21.733218,124.6782 c 1.38728,-0.36601 2.87879,-0.38868 4.293878,-0.66839 1.628351,-0.32187 3.23739,-0.74803 4.87767,-1.00226 1.68198,-0.26069 3.40298,-0.233 5.07812,-0.53454 1.67471,-0.30146 3.26768,-0.97998 4.94449,-1.26953 1.69693,-0.29303 3.43975,-0.22731 5.14493,-0.46773 1.63931,-0.23113 3.25065,-0.62957 4.87767,-0.93544 1.69156,-0.318 3.38617,-0.61956 5.07813,-0.93544 1.6489,-0.30785 3.28821,-0.67002 4.94448,-0.93544 1.685789,-0.27016 3.397897,-0.36535 5.078123,-0.66818 1.664277,-0.29996 3.271539,-0.8888 4.944483,-1.13589 1.634191,-0.24137 3.310761,-0.0896 4.944489,-0.33409 1.741815,-0.26067 3.399766,-0.96553 5.144936,-1.20271 1.63449,-0.22214 3.302977,-0.0382 4.944489,-0.20046 1.705358,-0.16863 3.392014,-0.49562 5.078114,-0.8018 1.63316,-0.29656 3.2355,-0.76066 4.87768,-1.00227 1.72565,-0.2539 3.49417,-0.16395 5.21175,-0.46772 1.70239,-0.30109 3.3057,-1.05403 5.01131,-1.33634 1.62974,-0.26976 3.30994,-0.0951 4.94448,-0.33409 1.69479,-0.2478 3.32602,-0.83007 5.0113,-1.1359 1.6147,-0.29303 3.25937,-0.39576 4.87767,-0.66817"
         id="path826-69" />
      <path
         style="fill:none;stroke:#e57373;stroke-width:1.32599998;stroke-linecap:butt;stroke-linejoin:miter;stroke-miterlimit:4;stroke-dasharray:none;stroke-opacity:1"
         d="m 77.574976,108.64181 c 1.679883,-0.28277 3.327573,-0.74341 5.011313,-1.00226 1.63851,-0.2519 3.299999,-0.32513 4.944479,-0.53454 1.67479,-0.21327 3.33747,-0.51447 5.01131,-0.73499 1.71186,-0.22553 3.44087,-0.32299 5.14493,-0.60136 1.70719,-0.27888 3.372302,-0.7819 5.078112,-1.06908 1.57188,-0.26463 3.16961,-0.35233 4.74404,-0.60135 1.76897,-0.27978 3.51331,-0.69993 5.27857,-1.00226 1.59894,-0.27385 3.20087,-0.53603 4.81085,-0.735 1.64302,-0.20305 3.30426,-0.24334 4.94449,-0.46772 1.74872,-0.23922 3.46007,-0.71891 5.21175,-0.93544 1.61739,-0.19993 3.28646,0.018 4.87767,-0.33409 0.90868,-0.20108 1.69205,-0.826092 2.60589,-1.002251 1.59664,-0.30779 3.25476,0.0342 4.87766,-0.0668 1.81166,-0.112799 3.66826,-0.0979 5.41221,-0.601359 0.78477,-0.22656 1.4101,-0.880961 2.20498,-1.069081 1.62566,-0.38475 3.34527,0.0564 5.01129,-0.0668 1.65861,-0.122671 3.30154,-0.409841 4.94449,-0.66817 1.7436,-0.27416 3.47261,-0.63445 5.21176,-0.93545 1.60192,-0.27724 3.20137,-0.57251 4.81085,-0.8018 1.6875,-0.240411 3.38441,-0.40953 5.07812,-0.60136 1.64724,-0.186571 3.31425,-0.233661 4.94448,-0.534541 1.72127,-0.317679 3.35122,-1.050894 5.07814,-1.336345 1.56402,-0.258531 3.17346,-0.118662 4.74404,-0.334087 1.75695,-0.240995 3.45254,-0.844849 5.21173,-1.069081 1.7256,-0.219947 3.48002,-0.102916 5.21176,-0.267268 1.61177,-0.152966 3.21956,-0.369914 4.81085,-0.668174 1.70977,-0.320462 3.35615,-0.956134 5.07813,-1.202713 1.69995,-0.243427 3.44527,-0.02176 5.14493,-0.26727 1.60935,-0.232467 3.12282,-1.261225 4.74403,-1.135895 0.93611,0.07237 1.66713,1.082646 2.60589,1.069078 0.87734,-0.01268 1.54713,-0.886931 2.40543,-1.069078 1.74298,-0.369886 3.56735,0.115471 5.34538,0 1.54656,-0.100438 3.07763,-0.372086 4.61042,-0.601356 1.7201,-0.257293 3.42596,-0.603899 5.14492,-0.868628 1.75581,-0.270398 3.52941,-0.424558 5.27858,-0.734988 1.66031,-0.294659 3.27329,-0.844273 4.94451,-1.069078 2.4317,-0.327108 7.34988,-0.400905 7.34988,-0.400905"
         id="path826-69-3" />
      <path
         style="opacity:1;fill:#ffffff;fill-opacity:1;stroke:#2196f3;stroke-width:1.05833328;stroke-linecap:round;stroke-linejoin:round;stroke-miterlimit:4;stroke-dasharray:none;stroke-dashoffset:0;stroke-opacity:1;paint-order:normal"
         d="m -53.768713,149.27928 a 1.5355282,1.5355282 0 0 1 -1.535528,1.53553 1.5355282,1.5355282 0 0 1 -1.535528,-1.53553 1.5355282,1.5355282 0 0 1 1.535528,-1.53553 1.5355282,1.5355282 0 0 1 1.535528,1.53553 z"
         id="path828-9-2-2-8-9-7-3-6-1-2-9-3-1-9-4-7-8-4-5-0" />
      <path
         style="opacity:1;fill:#ffffff;fill-opacity:1;stroke:#2196f3;stroke-width:1.05833328;stroke-linecap:round;stroke-linejoin:round;stroke-miterlimit:4;stroke-dasharray:none;stroke-dashoffset:0;stroke-opacity:1;paint-order:normal"
         d="m -48.610918,149.06633 a 1.5355282,1.5355282 0 0 1 -1.535528,1.53553 1.5355282,1.5355282 0 0 1 -1.535528,-1.53553 1.5355282,1.5355282 0 0 1 1.535528,-1.53553 1.5355282,1.5355282 0 0 1 1.535528,1.53553 z"
         id="path828-9-2-2-8-9-7-3-6-1-2-9-3-1-9-4-7-8-4-5-0-6" />
      <path
         style="opacity:1;fill:#ffffff;fill-opacity:1;stroke:#2196f3;stroke-width:1.05833328;stroke-linecap:round;stroke-linejoin:round;stroke-miterlimit:4;stroke-dasharray:none;stroke-dashoffset:0;stroke-opacity:1;paint-order:normal"
         d="m -41.194189,149.13313 a 1.5355282,1.5355282 0 0 1 -1.535528,1.53553 1.5355282,1.5355282 0 0 1 -1.535528,-1.53553 1.5355282,1.5355282 0 0 1 1.535528,-1.53553 1.5355282,1.5355282 0 0 1 1.535528,1.53553 z"
         id="path828-9-2-2-8-9-7-3-6-1-2-9-3-1-9-4-7-8-4-5-0-6-2" />
      <path
         style="opacity:1;fill:#ffffff;fill-opacity:1;stroke:#2196f3;stroke-width:1.05833328;stroke-linecap:round;stroke-linejoin:round;stroke-miterlimit:4;stroke-dasharray:none;stroke-dashoffset:0;stroke-opacity:1;paint-order:normal"
         d="m -36.182882,142.85231 a 1.5355282,1.5355282 0 0 1 -1.535528,1.53553 1.5355282,1.5355282 0 0 1 -1.535529,-1.53553 1.5355282,1.5355282 0 0 1 1.535529,-1.53553 1.5355282,1.5355282 0 0 1 1.535528,1.53553 z"
         id="path828-9-2-2-8-9-7-3-6-1-2-9-3-1-9-4-7-8-4-5-0-6-2-9" />
      <path
         style="opacity:1;fill:#ffffff;fill-opacity:1;stroke:#2196f3;stroke-width:1.05833328;stroke-linecap:round;stroke-linejoin:round;stroke-miterlimit:4;stroke-dasharray:none;stroke-dashoffset:0;stroke-opacity:1;paint-order:normal"
         d="m -31.171579,135.5024 a 1.5355282,1.5355282 0 0 1 -1.535529,1.53552 1.5355282,1.5355282 0 0 1 -1.535528,-1.53552 1.5355282,1.5355282 0 0 1 1.535528,-1.53553 1.5355282,1.5355282 0 0 1 1.535529,1.53553 z"
         id="path828-9-2-2-8-9-7-3-6-1-2-9-3-1-9-4-7-8-4-5-0-6-2-9-1" />
      <path
         style="opacity:1;fill:#ffffff;fill-opacity:1;stroke:#2196f3;stroke-width:1.05833328;stroke-linecap:round;stroke-linejoin:round;stroke-miterlimit:4;stroke-dasharray:none;stroke-dashoffset:0;stroke-opacity:1;paint-order:normal"
         d="m -26.02664,129.25497 a 1.5355282,1.5355282 0 0 1 -1.535528,1.53553 1.5355282,1.5355282 0 0 1 -1.535528,-1.53553 1.5355282,1.5355282 0 0 1 1.535528,-1.53552 1.5355282,1.5355282 0 0 1 1.535528,1.53552 z"
         id="path828-9-2-2-8-9-7-3-6-1-2-9-3-1-9-4-7-8-4-5-0-6-2-9-1-2" />
      <path
         style="opacity:1;fill:#ffffff;fill-opacity:1;stroke:#2196f3;stroke-width:1.05833328;stroke-linecap:round;stroke-linejoin:round;stroke-miterlimit:4;stroke-dasharray:none;stroke-dashoffset:0;stroke-opacity:1;paint-order:normal"
         d="m -21.048748,124.8116 a 1.5355282,1.5355282 0 0 1 -1.535528,1.53553 1.5355282,1.5355282 0 0 1 -1.535528,-1.53553 1.5355282,1.5355282 0 0 1 1.535528,-1.53553 1.5355282,1.5355282 0 0 1 1.535528,1.53553 z"
         id="path828-9-2-2-8-9-7-3-6-1-2-9-3-1-9-4-7-8-4-5-0-6-2-9-1-2-7" />
      <path
         style="opacity:1;fill:#ffffff;fill-opacity:1;stroke:#ff5722;stroke-width:1.05833328;stroke-linecap:round;stroke-linejoin:round;stroke-miterlimit:4;stroke-dasharray:none;stroke-dashoffset:0;stroke-opacity:1;paint-order:normal"
         d="m -11.360227,122.77367 a 1.5355282,1.5355282 0 0 1 -1.535528,1.53552 1.5355282,1.5355282 0 0 1 -1.535528,-1.53552 1.5355282,1.5355282 0 0 1 1.535528,-1.53553 1.5355282,1.5355282 0 0 1 1.535528,1.53553 z"
         id="path828-9-2-2-8-9-7-3-6-1-2-9-3-1-9-4-7-8-4-5-0-6-2-9-1-2-7-0" />
      <path
         style="opacity:1;fill:#ffffff;fill-opacity:1;stroke:#ff5722;stroke-width:1.05833328;stroke-linecap:round;stroke-linejoin:round;stroke-miterlimit:4;stroke-dasharray:none;stroke-dashoffset:0;stroke-opacity:1;paint-order:normal"
         d="m -5.4802966,122.473 a 1.5355282,1.5355282 0 0 1 -1.5355282,1.53553 1.5355282,1.5355282 0 0 1 -1.5355282,-1.53553 1.5355282,1.5355282 0 0 1 1.5355282,-1.53553 1.5355282,1.5355282 0 0 1 1.5355282,1.53553 z"
         id="path828-9-2-2-8-9-7-3-6-1-2-9-3-1-9-4-7-8-4-5-0-6-2-9-1-2-7-0-9" />
      <path
         style="opacity:1;fill:#ffffff;fill-opacity:1;stroke:#ff5722;stroke-width:1.05833328;stroke-linecap:round;stroke-linejoin:round;stroke-miterlimit:4;stroke-dasharray:none;stroke-dashoffset:0;stroke-opacity:1;paint-order:normal"
         d="m 3.2393713,120.9362 a 1.5355282,1.5355282 0 0 1 -1.5355282,1.53553 1.5355282,1.5355282 0 0 1 -1.53552817,-1.53553 1.5355282,1.5355282 0 0 1 1.53552817,-1.53553 1.5355282,1.5355282 0 0 1 1.5355282,1.53553 z"
         id="path828-9-2-2-8-9-7-3-6-1-2-9-3-1-9-4-7-8-4-5-0-6-2-9-1-2-7-0-9-3" />
      <path
         style="opacity:1;fill:#ffffff;fill-opacity:1;stroke:#ff5722;stroke-width:1.05833328;stroke-linecap:round;stroke-linejoin:round;stroke-miterlimit:4;stroke-dasharray:none;stroke-dashoffset:0;stroke-opacity:1;paint-order:normal"
         d="m 11.624953,119.33258 a 1.5355282,1.5355282 0 0 1 -1.535528,1.53553 1.5355282,1.5355282 0 0 1 -1.5355281,-1.53553 1.5355282,1.5355282 0 0 1 1.5355281,-1.53553 1.5355282,1.5355282 0 0 1 1.535528,1.53553 z"
         id="path828-9-2-2-8-9-7-3-6-1-2-9-3-1-9-4-7-8-4-5-0-6-2-9-1-2-7-0-9-3-6" />
      <path
         style="opacity:1;fill:#ffffff;fill-opacity:1;stroke:#ff5722;stroke-width:1.05833328;stroke-linecap:round;stroke-linejoin:round;stroke-miterlimit:4;stroke-dasharray:none;stroke-dashoffset:0;stroke-opacity:1;paint-order:normal"
         d="m 18.941456,117.96283 a 1.5355282,1.5355282 0 0 1 -1.535528,1.53553 1.5355282,1.5355282 0 0 1 -1.535529,-1.53553 1.5355282,1.5355282 0 0 1 1.535529,-1.53553 1.5355282,1.5355282 0 0 1 1.535528,1.53553 z"
         id="path828-9-2-2-8-9-7-3-6-1-2-9-3-1-9-4-7-8-4-5-0-6-2-9-1-2-7-0-9-3-6-0" />
      <path
         style="opacity:1;fill:#ffffff;fill-opacity:1;stroke:#ff5722;stroke-width:1.05833328;stroke-linecap:round;stroke-linejoin:round;stroke-miterlimit:4;stroke-dasharray:none;stroke-dashoffset:0;stroke-opacity:1;paint-order:normal"
         d="m 27.694534,116.42603 a 1.5355282,1.5355282 0 0 1 -1.535528,1.53553 1.5355282,1.5355282 0 0 1 -1.535528,-1.53553 1.5355282,1.5355282 0 0 1 1.535528,-1.53553 1.5355282,1.5355282 0 0 1 1.535528,1.53553 z"
         id="path828-9-2-2-8-9-7-3-6-1-2-9-3-1-9-4-7-8-4-5-0-6-2-9-1-2-7-0-9-3-6-0-6" />
      <path
         style="opacity:1;fill:#ffffff;fill-opacity:1;stroke:#ff5722;stroke-width:1.05833328;stroke-linecap:round;stroke-linejoin:round;stroke-miterlimit:4;stroke-dasharray:none;stroke-dashoffset:0;stroke-opacity:1;paint-order:normal"
         d="m 34.142412,115.99171 a 1.5355282,1.5355282 0 0 1 -1.535528,1.53553 1.5355282,1.5355282 0 0 1 -1.535528,-1.53553 1.5355282,1.5355282 0 0 1 1.535528,-1.53553 1.5355282,1.5355282 0 0 1 1.535528,1.53553 z"
         id="path828-9-2-2-8-9-7-3-6-1-2-9-3-1-9-4-7-8-4-5-0-6-2-9-1-2-7-0-9-3-6-0-6-2" />
      <path
         style="opacity:1;fill:#ffffff;fill-opacity:1;stroke:#ff5722;stroke-width:1.05833328;stroke-linecap:round;stroke-linejoin:round;stroke-miterlimit:4;stroke-dasharray:none;stroke-dashoffset:0;stroke-opacity:1;paint-order:normal"
         d="m 39.554621,114.35468 a 1.5355282,1.5355282 0 0 1 -1.535528,1.53553 1.5355282,1.5355282 0 0 1 -1.535529,-1.53553 1.5355282,1.5355282 0 0 1 1.535529,-1.53553 1.5355282,1.5355282 0 0 1 1.535528,1.53553 z"
         id="path828-9-2-2-8-9-7-3-6-1-2-9-3-1-9-4-7-8-4-5-0-6-2-9-1-2-7-0-9-3-6-0-6-2-6" />
      <path
         style="opacity:1;fill:#ffffff;fill-opacity:1;stroke:#ff5722;stroke-width:1.05833328;stroke-linecap:round;stroke-linejoin:round;stroke-miterlimit:4;stroke-dasharray:none;stroke-dashoffset:0;stroke-opacity:1;paint-order:normal"
         d="m 52.416964,112.81789 a 1.5355282,1.5355282 0 0 1 -1.535529,1.53552 1.5355282,1.5355282 0 0 1 -1.535528,-1.53552 1.5355282,1.5355282 0 0 1 1.535528,-1.53553 1.5355282,1.5355282 0 0 1 1.535529,1.53553 z"
         id="path828-9-2-2-8-9-7-3-6-1-2-9-3-1-9-4-7-8-4-5-0-6-2-9-1-2-7-0-9-3-6-0-6-2-6-1" />
      <path
         style="opacity:1;fill:#ffffff;fill-opacity:1;stroke:#ff5722;stroke-width:1.05833328;stroke-linecap:round;stroke-linejoin:round;stroke-miterlimit:4;stroke-dasharray:none;stroke-dashoffset:0;stroke-opacity:1;paint-order:normal"
         d="m 59.432791,112.24994 a 1.5355282,1.5355282 0 0 1 -1.535528,1.53553 1.5355282,1.5355282 0 0 1 -1.535529,-1.53553 1.5355282,1.5355282 0 0 1 1.535529,-1.53553 1.5355282,1.5355282 0 0 1 1.535528,1.53553 z"
         id="path828-9-2-2-8-9-7-3-6-1-2-9-3-1-9-4-7-8-4-5-0-6-2-9-1-2-7-0-9-3-6-0-6-2-6-1-8" />
      <path
         style="opacity:1;fill:#ffffff;fill-opacity:1;stroke:#ff5722;stroke-width:1.05833328;stroke-linecap:round;stroke-linejoin:round;stroke-miterlimit:4;stroke-dasharray:none;stroke-dashoffset:0;stroke-opacity:1;paint-order:normal"
         d="m 68.820631,110.51269 a 1.5355282,1.5355282 0 0 1 -1.535528,1.53553 1.5355282,1.5355282 0 0 1 -1.535528,-1.53553 1.5355282,1.5355282 0 0 1 1.535528,-1.53553 1.5355282,1.5355282 0 0 1 1.535528,1.53553 z"
         id="path828-9-2-2-8-9-7-3-6-1-2-9-3-1-9-4-7-8-4-5-0-6-2-9-1-2-7-0-9-3-6-0-6-2-6-1-8-7" />
      <path
         style="opacity:1;fill:#ffffff;fill-opacity:1;stroke:#f44336;stroke-width:1.05833328;stroke-linecap:round;stroke-linejoin:round;stroke-miterlimit:4;stroke-dasharray:none;stroke-dashoffset:0;stroke-opacity:1;paint-order:normal"
         d="m 79.310957,108.64181 a 1.5355282,1.5355282 0 0 1 -1.535528,1.53553 1.5355282,1.5355282 0 0 1 -1.535528,-1.53553 1.5355282,1.5355282 0 0 1 1.535528,-1.53553 1.5355282,1.5355282 0 0 1 1.535528,1.53553 z"
         id="path828-9-2-2-8-9-7-3-6-1-2-9-3-1-9-4-7-8-4-5-0-6-2-9-1-2-7-0-9-3-6-0-6-2-6-1-8-7-9" />
      <path
         style="opacity:1;fill:#ffffff;fill-opacity:1;stroke:#f44336;stroke-width:1.05833328;stroke-linecap:round;stroke-linejoin:round;stroke-miterlimit:4;stroke-dasharray:none;stroke-dashoffset:0;stroke-opacity:1;paint-order:normal"
         d="m 89.634245,107.03819 a 1.5355282,1.5355282 0 0 1 -1.535528,1.53553 1.5355282,1.5355282 0 0 1 -1.535528,-1.53553 1.5355282,1.5355282 0 0 1 1.535528,-1.53553 1.5355282,1.5355282 0 0 1 1.535528,1.53553 z"
         id="path828-9-2-2-8-9-7-3-6-1-2-9-3-1-9-4-7-8-4-5-0-6-2-9-1-2-7-0-9-3-6-0-6-2-6-1-8-7-9-2" />
      <path
         style="opacity:1;fill:#ffffff;fill-opacity:1;stroke:#f44336;stroke-width:1.05833328;stroke-linecap:round;stroke-linejoin:round;stroke-miterlimit:4;stroke-dasharray:none;stroke-dashoffset:0;stroke-opacity:1;paint-order:normal"
         d="m 109.41219,104.0648 a 1.5355282,1.5355282 0 0 1 -1.53553,1.53552 1.5355282,1.5355282 0 0 1 -1.53552,-1.53552 1.5355282,1.5355282 0 0 1 1.53552,-1.53553 1.5355282,1.5355282 0 0 1 1.53553,1.53553 z"
         id="path828-9-2-2-8-9-7-3-6-1-2-9-3-1-9-4-7-8-4-5-0-6-2-9-1-2-7-0-9-3-6-0-6-2-6-1-8-7-9-2-0-2" />
      <path
         style="opacity:1;fill:#ffffff;fill-opacity:1;stroke:#f44336;stroke-width:1.05833328;stroke-linecap:round;stroke-linejoin:round;stroke-miterlimit:4;stroke-dasharray:none;stroke-dashoffset:0;stroke-opacity:1;paint-order:normal"
         d="m 119.50162,102.42779 a 1.5355282,1.5355282 0 0 1 -1.53553,1.53553 1.5355282,1.5355282 0 0 1 -1.53553,-1.53553 1.5355282,1.5355282 0 0 1 1.53553,-1.53553 1.5355282,1.5355282 0 0 1 1.53553,1.53553 z"
         id="path828-9-2-2-8-9-7-3-6-1-2-9-3-1-9-4-7-8-4-5-0-6-2-9-1-2-7-0-9-3-6-0-6-2-6-1-8-7-9-2-0-2-3" />
      <path
         style="opacity:1;fill:#ffffff;fill-opacity:1;stroke:#f44336;stroke-width:1.05833328;stroke-linecap:round;stroke-linejoin:round;stroke-miterlimit:4;stroke-dasharray:none;stroke-dashoffset:0;stroke-opacity:1;paint-order:normal"
         d="m 129.45741,100.89098 a 1.5355282,1.5355282 0 0 1 -1.53553,1.53553 1.5355282,1.5355282 0 0 1 -1.53553,-1.53553 1.5355282,1.5355282 0 0 1 1.53553,-1.535525 1.5355282,1.5355282 0 0 1 1.53553,1.535525 z"
         id="path828-9-2-2-8-9-7-3-6-1-2-9-3-1-9-4-7-8-4-5-0-6-2-9-1-2-7-0-9-3-6-0-6-2-6-1-8-7-9-2-0-2-3-7" />
      <path
         style="opacity:1;fill:#ffffff;fill-opacity:1;stroke:#f44336;stroke-width:1.05833328;stroke-linecap:round;stroke-linejoin:round;stroke-miterlimit:4;stroke-dasharray:none;stroke-dashoffset:0;stroke-opacity:1;paint-order:normal"
         d="m 137.20823,99.487816 a 1.5355282,1.5355282 0 0 1 -1.53553,1.535524 1.5355282,1.5355282 0 0 1 -1.53553,-1.535524 1.5355282,1.5355282 0 0 1 1.53553,-1.535528 1.5355282,1.5355282 0 0 1 1.53553,1.535528 z"
         id="path828-9-2-2-8-9-7-3-6-1-2-9-3-1-9-4-7-8-4-5-0-6-2-9-1-2-7-0-9-3-6-0-6-2-6-1-8-7-9-2-0-2-3-7-5" />
      <path
         style="opacity:1;fill:#ffffff;fill-opacity:1;stroke:#f44336;stroke-width:1.05833328;stroke-linecap:round;stroke-linejoin:round;stroke-miterlimit:4;stroke-dasharray:none;stroke-dashoffset:0;stroke-opacity:1;paint-order:normal"
         d="m 149.50263,97.81739 a 1.5355282,1.5355282 0 0 1 -1.53553,1.535529 1.5355282,1.5355282 0 0 1 -1.53553,-1.535529 1.5355282,1.5355282 0 0 1 1.53553,-1.535528 1.5355282,1.5355282 0 0 1 1.53553,1.535528 z"
         id="path828-9-2-2-8-9-7-3-6-1-2-9-3-1-9-4-7-8-4-5-0-6-2-9-1-2-7-0-9-3-6-0-6-2-6-1-8-7-9-2-0-2-3-7-5-9" />
      <path
         style="opacity:1;fill:#ffffff;fill-opacity:1;stroke:#f44336;stroke-width:1.05833328;stroke-linecap:round;stroke-linejoin:round;stroke-miterlimit:4;stroke-dasharray:none;stroke-dashoffset:0;stroke-opacity:1;paint-order:normal"
         d="m 167.0756,95.67923 a 1.5355282,1.5355282 0 0 1 -1.53553,1.535528 1.5355282,1.5355282 0 0 1 -1.53553,-1.535528 1.5355282,1.5355282 0 0 1 1.53553,-1.535528 1.5355282,1.5355282 0 0 1 1.53553,1.535528 z"
         id="path828-9-2-2-8-9-7-3-6-1-2-9-3-1-9-4-7-8-4-5-0-6-2-9-1-2-7-0-9-3-6-0-6-2-6-1-8-7-9-2-0-2-3-7-5-9-2" />
      <path
         style="opacity:1;fill:#ffffff;fill-opacity:1;stroke:#f44336;stroke-width:1.05833328;stroke-linecap:round;stroke-linejoin:round;stroke-miterlimit:4;stroke-dasharray:none;stroke-dashoffset:0;stroke-opacity:1;paint-order:normal"
         d="m 181.50814,93.708115 a 1.5355282,1.5355282 0 0 1 -1.53553,1.535528 1.5355282,1.5355282 0 0 1 -1.53553,-1.535528 1.5355282,1.5355282 0 0 1 1.53553,-1.535529 1.5355282,1.5355282 0 0 1 1.53553,1.535529 z"
         id="path828-9-2-2-8-9-7-3-6-1-2-9-3-1-9-4-7-8-4-5-0-6-2-9-1-2-7-0-9-3-6-0-6-2-6-1-8-7-9-2-0-2-3-7-5-9-2-2" />
      <path
         style="opacity:1;fill:#ffffff;fill-opacity:1;stroke:#f44336;stroke-width:1.05833328;stroke-linecap:round;stroke-linejoin:round;stroke-miterlimit:4;stroke-dasharray:none;stroke-dashoffset:0;stroke-opacity:1;paint-order:normal"
         d="m 189.12533,92.839485 a 1.5355282,1.5355282 0 0 1 -1.53553,1.535528 1.5355282,1.5355282 0 0 1 -1.53553,-1.535528 1.5355282,1.5355282 0 0 1 1.53553,-1.535528 1.5355282,1.5355282 0 0 1 1.53553,1.535528 z"
         id="path828-9-2-2-8-9-7-3-6-1-2-9-3-1-9-4-7-8-4-5-0-6-2-9-1-2-7-0-9-3-6-0-6-2-6-1-8-7-9-2-0-2-3-7-5-9-2-2-8" />
      <path
         style="opacity:1;fill:#ffffff;fill-opacity:1;stroke:#f44336;stroke-width:1.05833328;stroke-linecap:round;stroke-linejoin:round;stroke-miterlimit:4;stroke-dasharray:none;stroke-dashoffset:0;stroke-opacity:1;paint-order:normal"
         d="m 195.80707,91.336098 a 1.5355282,1.5355282 0 0 1 -1.53552,1.535528 1.5355282,1.5355282 0 0 1 -1.53553,-1.535528 1.5355282,1.5355282 0 0 1 1.53553,-1.535528 1.5355282,1.5355282 0 0 1 1.53552,1.535528 z"
         id="path828-9-2-2-8-9-7-3-6-1-2-9-3-1-9-4-7-8-4-5-0-6-2-9-1-2-7-0-9-3-6-0-6-2-6-1-8-7-9-2-0-2-3-7-5-9-2-2-8-9" />
      <path
         style="opacity:1;fill:#ffffff;fill-opacity:1;stroke:#f44336;stroke-width:1.05833328;stroke-linecap:round;stroke-linejoin:round;stroke-miterlimit:4;stroke-dasharray:none;stroke-dashoffset:0;stroke-opacity:1;paint-order:normal"
         d="m 209.50464,89.264755 a 1.5355282,1.5355282 0 0 1 -1.53552,1.535528 1.5355282,1.5355282 0 0 1 -1.53553,-1.535528 1.5355282,1.5355282 0 0 1 1.53553,-1.535528 1.5355282,1.5355282 0 0 1 1.53552,1.535528 z"
         id="path828-9-2-2-8-9-7-3-6-1-2-9-3-1-9-4-7-8-4-5-0-6-2-9-1-2-7-0-9-3-6-0-6-2-6-1-8-7-9-2-0-2-3-7-5-9-2-2-8-9-7" />
      <path
         style="opacity:1;fill:#ffffff;fill-opacity:1;stroke:#f44336;stroke-width:1.05833328;stroke-linecap:round;stroke-linejoin:round;stroke-miterlimit:4;stroke-dasharray:none;stroke-dashoffset:0;stroke-opacity:1;paint-order:normal"
         d="m 218.75884,88.16227 a 1.5355282,1.5355282 0 0 1 -1.53553,1.535528 1.5355282,1.5355282 0 0 1 -1.53553,-1.535528 1.5355282,1.5355282 0 0 1 1.53553,-1.535529 1.5355282,1.5355282 0 0 1 1.53553,1.535529 z"
         id="path828-9-2-2-8-9-7-3-6-1-2-9-3-1-9-4-7-8-4-5-0-6-2-9-1-2-7-0-9-3-6-0-6-2-6-1-8-7-9-2-0-2-3-7-5-9-2-2-8-9-7-3" />
      <path
         style="opacity:1;fill:#ffffff;fill-opacity:1;stroke:#f44336;stroke-width:1.05833328;stroke-linecap:round;stroke-linejoin:round;stroke-miterlimit:4;stroke-dasharray:none;stroke-dashoffset:0;stroke-opacity:1;paint-order:normal"
         d="m 225.24012,87.861595 a 1.5355282,1.5355282 0 0 1 -1.53553,1.535528 1.5355282,1.5355282 0 0 1 -1.53553,-1.535528 1.5355282,1.5355282 0 0 1 1.53553,-1.535528 1.5355282,1.5355282 0 0 1 1.53553,1.535528 z"
         id="path828-9-2-2-8-9-7-3-6-1-2-9-3-1-9-4-7-8-4-5-0-6-2-9-1-2-7-0-9-3-6-0-6-2-6-1-8-7-9-2-0-2-3-7-5-9-2-2-8-9-7-3-6" />
      <path
         style="opacity:1;fill:#ffffff;fill-opacity:1;stroke:#f44336;stroke-width:1.05833328;stroke-linecap:round;stroke-linejoin:round;stroke-miterlimit:4;stroke-dasharray:none;stroke-dashoffset:0;stroke-opacity:1;paint-order:normal"
         d="m 237.50112,86.926147 a 1.5355282,1.5355282 0 0 1 -1.53553,1.535529 1.5355282,1.5355282 0 0 1 -1.53553,-1.535529 1.5355282,1.5355282 0 0 1 1.53553,-1.535528 1.5355282,1.5355282 0 0 1 1.53553,1.535528 z"
         id="path828-9-2-2-8-9-7-3-6-1-2-9-3-1-9-4-7-8-4-5-0-6-2-9-1-2-7-0-9-3-6-0-6-2-6-1-8-7-9-2-0-2-3-7-5-9-2-2-8-9-7-3-6-1" />
      <path
         style="opacity:1;fill:#ffffff;fill-opacity:1;stroke:#f44336;stroke-width:1.05833328;stroke-linecap:round;stroke-linejoin:round;stroke-miterlimit:4;stroke-dasharray:none;stroke-dashoffset:0;stroke-opacity:1;paint-order:normal"
         d="m 247.25644,85.322533 a 1.5355282,1.5355282 0 0 1 -1.53552,1.535528 1.5355282,1.5355282 0 0 1 -1.53553,-1.535528 1.5355282,1.5355282 0 0 1 1.53553,-1.535529 1.5355282,1.5355282 0 0 1 1.53552,1.535529 z"
         id="path828-9-2-2-8-9-7-3-6-1-2-9-3-1-9-4-7-8-4-5-0-6-2-9-1-2-7-0-9-3-6-0-6-2-6-1-8-7-9-2-0-2-3-7-5-9-2-2-8-9-7-3-6-1-2" />
      <path
         style="opacity:1;fill:#ffffff;fill-opacity:1;stroke:#f44336;stroke-width:1.05833328;stroke-linecap:round;stroke-linejoin:round;stroke-miterlimit:4;stroke-dasharray:none;stroke-dashoffset:0;stroke-opacity:1;paint-order:normal"
         d="m 256.91157,84.220047 a 1.5355282,1.5355282 0 0 1 -1.53553,1.535528 1.5355282,1.5355282 0 0 1 -1.53553,-1.535528 1.5355282,1.5355282 0 0 1 1.53553,-1.535528 1.5355282,1.5355282 0 0 1 1.53553,1.535528 z"
         id="path828-9-2-2-8-9-7-3-6-1-2-9-3-1-9-4-7-8-4-5-0-6-2-9-1-2-7-0-9-3-6-0-6-2-6-1-8-7-9-2-0-2-3-7-5-9-2-2-8-9-7-3-6-1-2-9" />
      <g
         aria-label="50"
         style="font-style:normal;font-variant:normal;font-weight:bold;font-stretch:normal;font-size:7.05555534px;line-height:1.25;font-family:'Open Sans';-inkscape-font-specification:'Open Sans Bold';letter-spacing:0px;word-spacing:0px;fill:#555555;fill-opacity:1;stroke:none;stroke-width:0.26458332"
         id="text1787-0-3-0">
        <path
           d="m -67.854107,57.72428 q 0.761367,0 1.205784,0.403076 0.444417,0.403076 0.444417,1.098985 0,0.806153 -0.506429,1.260905 -0.502984,0.451308 -1.43316,0.451308 -0.844048,0 -1.326361,-0.272163 v -0.733805 q 0.279052,0.158474 0.640787,0.244602 0.361735,0.08613 0.671794,0.08613 0.54777,0 0.833713,-0.244602 0.285943,-0.244602 0.285943,-0.71658 0,-0.902615 -1.150662,-0.902615 -0.161919,0 -0.399631,0.03445 -0.237711,0.03101 -0.416856,0.07235 l -0.361735,-0.213596 0.192925,-2.459798 h 2.618272 v 0.720025 h -1.905137 l -0.113688,1.247125 q 0.120578,-0.02067 0.292833,-0.04823 0.175699,-0.02756 0.427191,-0.02756 z"
           style="font-style:normal;font-variant:normal;font-weight:600;font-stretch:normal;font-family:'Open Sans';-inkscape-font-specification:'Open Sans Semi-Bold';fill:#555555;fill-opacity:1;stroke-width:0.26458332"
           id="path915" />
        <path
           d="m -62.121468,58.351287 q 0,1.312581 -0.423746,1.949924 -0.420302,0.637343 -1.288466,0.637343 -0.840603,0 -1.274685,-0.658014 -0.434082,-0.658013 -0.434082,-1.929253 0,-1.333252 0.420301,-1.963704 0.423747,-0.633898 1.288466,-0.633898 0.844048,0 1.27813,0.661458 0.434082,0.661459 0.434082,1.936144 z m -2.601047,0 q 0,1.030084 0.210151,1.471056 0.213596,0.440972 0.678684,0.440972 0.465088,0 0.678684,-0.447862 0.217041,-0.447863 0.217041,-1.464166 0,-1.012858 -0.217041,-1.464165 -0.213596,-0.454753 -0.678684,-0.454753 -0.465088,0 -0.678684,0.444417 -0.210151,0.444418 -0.210151,1.474501 z"
           style="font-style:normal;font-variant:normal;font-weight:600;font-stretch:normal;font-family:'Open Sans';-inkscape-font-specification:'Open Sans Semi-Bold';fill:#555555;fill-opacity:1;stroke-width:0.26458332"
           id="path917" />
      </g>
      <g
         aria-label="40"
         style="font-style:normal;font-variant:normal;font-weight:bold;font-stretch:normal;font-size:7.05555534px;line-height:1.25;font-family:'Open Sans';-inkscape-font-specification:'Open Sans Bold';letter-spacing:0px;word-spacing:0px;fill:#555555;fill-opacity:1;stroke:none;stroke-width:0.26458332"
         id="text1787-0-3-0-2">
        <path
           d="m -65.969639,92.794058 h -0.678684 v 1.098986 h -0.788927 v -1.098986 h -2.301324 v -0.623562 l 2.301324,-3.327962 h 0.788927 v 3.27973 h 0.678684 z m -1.467611,-0.671794 v -1.26435 q 0,-0.675238 0.03445,-1.105875 h -0.02756 q -0.09646,0.227376 -0.303168,0.551215 l -1.25057,1.81901 z"
           style="font-style:normal;font-variant:normal;font-weight:600;font-stretch:normal;font-family:'Open Sans';-inkscape-font-specification:'Open Sans Semi-Bold';fill:#555555;fill-opacity:1;stroke-width:0.26458332"
           id="path920" />
        <path
           d="m -62.121468,91.374679 q 0,1.312581 -0.423746,1.949924 -0.420302,0.637342 -1.288466,0.637342 -0.840603,0 -1.274685,-0.658013 -0.434082,-0.658013 -0.434082,-1.929253 0,-1.333252 0.420301,-1.963705 0.423747,-0.633897 1.288466,-0.633897 0.844048,0 1.27813,0.661458 0.434082,0.661459 0.434082,1.936144 z m -2.601047,0 q 0,1.030083 0.210151,1.471056 0.213596,0.440972 0.678684,0.440972 0.465088,0 0.678684,-0.447863 0.217041,-0.447862 0.217041,-1.464165 0,-1.012858 -0.217041,-1.464166 -0.213596,-0.454752 -0.678684,-0.454752 -0.465088,0 -0.678684,0.444417 -0.210151,0.444417 -0.210151,1.474501 z"
           style="font-style:normal;font-variant:normal;font-weight:600;font-stretch:normal;font-family:'Open Sans';-inkscape-font-specification:'Open Sans Semi-Bold';fill:#555555;fill-opacity:1;stroke-width:0.26458332"
           id="path922" />
      </g>
      <g
         id="g1877">
        <g
           aria-label="30"
           style="font-style:normal;font-variant:normal;font-weight:bold;font-stretch:normal;font-size:7.05555534px;line-height:1.25;font-family:'Open Sans';-inkscape-font-specification:'Open Sans Bold';letter-spacing:0px;word-spacing:0px;fill:#555555;fill-opacity:1;stroke:none;stroke-width:0.26458332"
           id="text1787-0-3-0-2-6">
          <path
             d="m -66.338265,123.1887 q 0,0.47887 -0.279052,0.79926 -0.279053,0.31695 -0.785482,0.4272 v 0.0276 q 0.606337,0.0758 0.909505,0.37896 0.303169,0.29972 0.303169,0.79926 0,0.72691 -0.51332,1.1231 -0.513319,0.39274 -1.46072,0.39274 -0.837158,0 -1.412489,-0.27216 v -0.72003 q 0.320394,0.15848 0.678684,0.2446 0.358289,0.0861 0.689019,0.0861 0.585666,0 0.875054,-0.21704 0.289388,-0.21704 0.289388,-0.67179 0,-0.40308 -0.320394,-0.59256 -0.320394,-0.18948 -1.005968,-0.18948 h -0.437527 v -0.65801 h 0.444417 q 1.205784,0 1.205784,-0.83372 0,-0.32383 -0.210151,-0.49953 -0.210151,-0.1757 -0.620117,-0.1757 -0.285943,0 -0.551216,0.0827 -0.265272,0.0792 -0.627007,0.3135 l -0.396186,-0.56499 q 0.692464,-0.50988 1.60886,-0.50988 0.761366,0 1.188558,0.32729 0.427191,0.32728 0.427191,0.90261 z"
             style="font-style:normal;font-variant:normal;font-weight:600;font-stretch:normal;font-family:'Open Sans';-inkscape-font-specification:'Open Sans Semi-Bold';fill:#555555;fill-opacity:1;stroke-width:0.26458332"
             id="path925" />
          <path
             d="m -62.121468,124.54951 q 0,1.31259 -0.423746,1.94993 -0.420302,0.63734 -1.288466,0.63734 -0.840603,0 -1.274685,-0.65801 -0.434082,-0.65802 -0.434082,-1.92926 0,-1.33325 0.420301,-1.9637 0.423747,-0.6339 1.288466,-0.6339 0.844048,0 1.27813,0.66146 0.434082,0.66146 0.434082,1.93614 z m -2.601047,0 q 0,1.03009 0.210151,1.47106 0.213596,0.44097 0.678684,0.44097 0.465088,0 0.678684,-0.44786 0.217041,-0.44786 0.217041,-1.46417 0,-1.01285 -0.217041,-1.46416 -0.213596,-0.45475 -0.678684,-0.45475 -0.465088,0 -0.678684,0.44441 -0.210151,0.44442 -0.210151,1.4745 z"
             style="font-style:normal;font-variant:normal;font-weight:600;font-stretch:normal;font-family:'Open Sans';-inkscape-font-specification:'Open Sans Semi-Bold';fill:#555555;fill-opacity:1;stroke-width:0.26458332"
             id="path927" />
        </g>
        <g
           aria-label="20"
           style="font-style:normal;font-variant:normal;font-weight:bold;font-stretch:normal;font-size:7.05555534px;line-height:1.25;font-family:'Open Sans';-inkscape-font-specification:'Open Sans Bold';letter-spacing:0px;word-spacing:0px;fill:#555555;fill-opacity:1;stroke:none;stroke-width:0.26458332"
           id="text1787-0-3-0-2-6-5">
          <path
             d="m -66.148784,160.2093 h -3.41409 v -0.61322 l 1.298801,-1.30569 q 0.575331,-0.58911 0.761366,-0.83372 0.18948,-0.24804 0.275608,-0.46508 0.08613,-0.21705 0.08613,-0.46509 0,-0.34107 -0.206706,-0.53744 -0.20326,-0.19637 -0.564995,-0.19637 -0.289388,0 -0.561551,0.1068 -0.268717,0.1068 -0.623562,0.38585 l -0.437527,-0.53399 q 0.420302,-0.35484 0.816488,-0.50298 0.396185,-0.14814 0.844048,-0.14814 0.702799,0 1.126546,0.36862 0.423747,0.36518 0.423747,0.9853 0,0.34107 -0.124024,0.64768 -0.120578,0.30661 -0.375515,0.6339 -0.251492,0.32384 -0.840603,0.8785 l -0.875055,0.84749 v 0.0344 h 2.390897 z"
             style="font-style:normal;font-variant:normal;font-weight:600;font-stretch:normal;font-family:'Open Sans';-inkscape-font-specification:'Open Sans Semi-Bold';fill:#555555;fill-opacity:1;stroke-width:0.26458332"
             id="path930" />
          <path
             d="m -62.121468,157.69094 q 0,1.31258 -0.423746,1.94992 -0.420302,0.63735 -1.288466,0.63735 -0.840603,0 -1.274685,-0.65802 -0.434082,-0.65801 -0.434082,-1.92925 0,-1.33325 0.420301,-1.9637 0.423747,-0.6339 1.288466,-0.6339 0.844048,0 1.27813,0.66146 0.434082,0.66145 0.434082,1.93614 z m -2.601047,0 q 0,1.03008 0.210151,1.47106 0.213596,0.44097 0.678684,0.44097 0.465088,0 0.678684,-0.44786 0.217041,-0.44787 0.217041,-1.46417 0,-1.01286 -0.217041,-1.46417 -0.213596,-0.45475 -0.678684,-0.45475 -0.465088,0 -0.678684,0.44442 -0.210151,0.44442 -0.210151,1.4745 z"
             style="font-style:normal;font-variant:normal;font-weight:600;font-stretch:normal;font-family:'Open Sans';-inkscape-font-specification:'Open Sans Semi-Bold';fill:#555555;fill-opacity:1;stroke-width:0.26458332"
             id="path932" />
        </g>
      </g>
      <g
         aria-label="10"
         style="font-style:normal;font-variant:normal;font-weight:bold;font-stretch:normal;font-size:7.05555534px;line-height:1.25;font-family:'Open Sans';-inkscape-font-specification:'Open Sans Bold';letter-spacing:0px;word-spacing:0px;fill:#555555;fill-opacity:1;stroke:none;stroke-width:0.26458332"
         id="text1787-0-3-0-2-6-5-4">
        <path
           d="m -67.185758,193.35072 h -0.809597 v -3.25217 q 0,-0.58222 0.02756,-0.92328 -0.07924,0.0827 -0.19637,0.18259 -0.113688,0.0999 -0.771701,0.6339 l -0.406522,-0.51332 1.481391,-1.16445 h 0.675239 z"
           style="font-style:normal;font-variant:normal;font-weight:600;font-stretch:normal;font-family:'Open Sans';-inkscape-font-specification:'Open Sans Semi-Bold';fill:#555555;fill-opacity:1;stroke-width:0.26458332"
           id="path935" />
        <path
           d="m -62.121468,190.83236 q 0,1.31258 -0.423746,1.94992 -0.420302,0.63735 -1.288466,0.63735 -0.840603,0 -1.274685,-0.65802 -0.434082,-0.65801 -0.434082,-1.92925 0,-1.33325 0.420301,-1.96371 0.423747,-0.63389 1.288466,-0.63389 0.844048,0 1.27813,0.66145 0.434082,0.66146 0.434082,1.93615 z m -2.601047,0 q 0,1.03008 0.210151,1.47105 0.213596,0.44098 0.678684,0.44098 0.465088,0 0.678684,-0.44787 0.217041,-0.44786 0.217041,-1.46416 0,-1.01286 -0.217041,-1.46417 -0.213596,-0.45475 -0.678684,-0.45475 -0.465088,0 -0.678684,0.44442 -0.210151,0.44442 -0.210151,1.4745 z"
           style="font-style:normal;font-variant:normal;font-weight:600;font-stretch:normal;font-family:'Open Sans';-inkscape-font-specification:'Open Sans Semi-Bold';fill:#555555;fill-opacity:1;stroke-width:0.26458332"
           id="path937" />
      </g>
      <g
         aria-label="0"
         style="font-style:normal;font-variant:normal;font-weight:bold;font-stretch:normal;font-size:7.05555534px;line-height:1.25;font-family:'Open Sans';-inkscape-font-specification:'Open Sans Bold';letter-spacing:0px;word-spacing:0px;fill:#555555;fill-opacity:1;stroke:none;stroke-width:0.26458332"
         id="text1787-0-3-0-2-6-5-4-6">
        <path
           d="m -62.121471,223.90696 q 0,1.31258 -0.423747,1.94992 -0.420301,0.63735 -1.288465,0.63735 -0.840604,0 -1.274686,-0.65802 -0.434082,-0.65801 -0.434082,-1.92925 0,-1.33325 0.420302,-1.96371 0.423747,-0.63389 1.288466,-0.63389 0.844048,0 1.27813,0.66146 0.434082,0.66145 0.434082,1.93614 z m -2.601047,0 q 0,1.03008 0.210151,1.47105 0.213596,0.44098 0.678684,0.44098 0.465087,0 0.678683,-0.44787 0.217041,-0.44786 0.217041,-1.46416 0,-1.01286 -0.217041,-1.46417 -0.213596,-0.45475 -0.678683,-0.45475 -0.465088,0 -0.678684,0.44442 -0.210151,0.44442 -0.210151,1.4745 z"
           style="font-style:normal;font-variant:normal;font-weight:600;font-stretch:normal;font-family:'Open Sans';-inkscape-font-specification:'Open Sans Semi-Bold';fill:#555555;fill-opacity:1;stroke-width:0.26458332"
           id="path940" />
      </g>
      <path
         style="opacity:1;fill:#ffffff;fill-opacity:1;stroke:#f44336;stroke-width:1.05833328;stroke-linecap:round;stroke-linejoin:round;stroke-miterlimit:4;stroke-dasharray:none;stroke-dashoffset:0;stroke-opacity:1;paint-order:normal"
         d="m 99.322767,105.60162 a 1.5355282,1.5355282 0 0 1 -1.535528,1.53553 1.5355282,1.5355282 0 0 1 -1.535528,-1.53553 1.5355282,1.5355282 0 0 1 1.535528,-1.53552 1.5355282,1.5355282 0 0 1 1.535528,1.53552 z"
         id="path828-9-2-2-8-9-7-3-6-1-2-9-3-1-9-4-7-8-4-5-0-6-2-9-1-2-7-0-9-3-6-0-6-2-6-1-8-7-9-2-0" />
      <g
         aria-label="Temperature °C"
         transform="rotate(-90)"
         style="font-style:normal;font-variant:normal;font-weight:bold;font-stretch:normal;font-size:7.05555534px;line-height:1.25;font-family:'Open Sans';-inkscape-font-specification:'Open Sans Bold';letter-spacing:0px;word-spacing:0px;fill:#555555;fill-opacity:1;stroke:none;stroke-width:0.26458332"
         id="text1787-0-5-7">
        <path
           d="m -165.6872,-86.873917 h -0.82337 v -4.330485 h -1.4814 v -0.706244 h 3.78616 v 0.706244 h -1.48139 z"
           style="font-style:normal;font-variant:normal;font-weight:600;font-stretch:normal;font-family:'Open Sans';-inkscape-font-specification:'Open Sans Semi-Bold';fill:#555555;fill-opacity:1;stroke-width:0.26458332"
           id="path944" />
        <path
           d="m -161.85625,-86.805015 q -0.88884,0 -1.39182,-0.516764 -0.49954,-0.520209 -0.49954,-1.429715 0,-0.93362 0.46509,-1.46761 0.46509,-0.53399 1.27813,-0.53399 0.75448,0 1.192,0.458198 0.43753,0.458197 0.43753,1.260905 v 0.437527 h -2.53903 q 0.0172,0.55466 0.29972,0.854383 0.2825,0.296279 0.79582,0.296279 0.33761,0 0.627,-0.06201 0.29284,-0.06546 0.62701,-0.213596 v 0.658013 q -0.29628,0.141249 -0.59945,0.199816 -0.30316,0.05857 -0.69246,0.05857 z m -0.14814,-3.334852 q -0.38585,0 -0.62012,0.244602 -0.23082,0.244601 -0.2756,0.713134 h 1.72943 q -0.007,-0.471978 -0.22737,-0.713134 -0.22049,-0.244602 -0.60634,-0.244602 z"
           style="font-style:normal;font-variant:normal;font-weight:600;font-stretch:normal;font-family:'Open Sans';-inkscape-font-specification:'Open Sans Semi-Bold';fill:#555555;fill-opacity:1;stroke-width:0.26458332"
           id="path946" />
        <path
           d="m -156.24419,-86.873917 h -0.81304 v -2.349555 q 0,-0.437527 -0.16537,-0.651123 -0.16536,-0.217041 -0.51676,-0.217041 -0.46853,0 -0.68902,0.306614 -0.21704,0.303168 -0.21704,1.012858 v 1.898247 h -0.8096 v -3.810275 h 0.6339 l 0.11369,0.499539 h 0.0413 q 0.15847,-0.272163 0.4582,-0.420302 0.30316,-0.148139 0.6649,-0.148139 0.8785,0 1.16444,0.599447 h 0.0551 q 0.16881,-0.282498 0.47543,-0.440973 0.30661,-0.158474 0.7028,-0.158474 0.68212,0 0.99218,0.34451 0.31351,0.344509 0.31351,1.050754 v 2.483913 h -0.8096 v -2.349555 q 0,-0.437527 -0.16881,-0.651123 -0.16536,-0.217041 -0.51676,-0.217041 -0.47198,0 -0.69247,0.296278 -0.21704,0.292834 -0.21704,0.902615 z"
           style="font-style:normal;font-variant:normal;font-weight:600;font-stretch:normal;font-family:'Open Sans';-inkscape-font-specification:'Open Sans Semi-Bold';fill:#555555;fill-opacity:1;stroke-width:0.26458332"
           id="path948" />
        <path
           d="m -150.77682,-86.805015 q -0.72347,0 -1.1231,-0.520209 h -0.0482 q 0.0482,0.482313 0.0482,0.585666 v 1.560628 h -0.8096 v -5.505262 h 0.65457 q 0.0276,0.106798 0.11368,0.509874 h 0.0413 q 0.37896,-0.578776 1.13688,-0.578776 0.71313,0 1.10932,0.516764 0.39963,0.516765 0.39963,1.450385 0,0.933621 -0.40652,1.457276 -0.40308,0.523654 -1.11621,0.523654 z m -0.19637,-3.286621 q -0.48232,0 -0.70625,0.282498 -0.22048,0.282498 -0.22048,0.902615 v 0.120578 q 0,0.69591 0.22048,1.009413 0.22049,0.310059 0.72003,0.310059 0.4203,0 0.64767,-0.34451 0.22738,-0.344509 0.22738,-0.981852 0,-0.640787 -0.22738,-0.968072 -0.22393,-0.330729 -0.66145,-0.330729 z"
           style="font-style:normal;font-variant:normal;font-weight:600;font-stretch:normal;font-family:'Open Sans';-inkscape-font-specification:'Open Sans Semi-Bold';fill:#555555;fill-opacity:1;stroke-width:0.26458332"
           id="path950" />
        <path
           d="m -146.6496,-86.805015 q -0.88883,0 -1.39182,-0.516764 -0.49954,-0.520209 -0.49954,-1.429715 0,-0.93362 0.46509,-1.46761 0.46509,-0.53399 1.27813,-0.53399 0.75448,0 1.192,0.458198 0.43753,0.458197 0.43753,1.260905 v 0.437527 h -2.53903 q 0.0172,0.55466 0.29972,0.854383 0.2825,0.296279 0.79582,0.296279 0.33762,0 0.627,-0.06201 0.29284,-0.06546 0.62701,-0.213596 v 0.658013 q -0.29628,0.141249 -0.59945,0.199816 -0.30316,0.05857 -0.69246,0.05857 z m -0.14814,-3.334852 q -0.38585,0 -0.62012,0.244602 -0.23082,0.244601 -0.2756,0.713134 h 1.72943 q -0.007,-0.471978 -0.22737,-0.713134 -0.22049,-0.244602 -0.60634,-0.244602 z"
           style="font-style:normal;font-variant:normal;font-weight:600;font-stretch:normal;font-family:'Open Sans';-inkscape-font-specification:'Open Sans Semi-Bold';fill:#555555;fill-opacity:1;stroke-width:0.26458332"
           id="path952" />
        <path
           d="m -142.31567,-90.753094 q 0.2446,0 0.40308,0.03445 l -0.0792,0.754476 q -0.17226,-0.04134 -0.35829,-0.04134 -0.48576,0 -0.78893,0.316948 -0.29972,0.316949 -0.29972,0.823378 v 1.991265 h -0.8096 v -3.810275 h 0.6339 l 0.1068,0.671793 h 0.0413 q 0.18948,-0.341064 0.49265,-0.540879 0.30661,-0.199816 0.65801,-0.199816 z"
           style="font-style:normal;font-variant:normal;font-weight:600;font-stretch:normal;font-family:'Open Sans';-inkscape-font-specification:'Open Sans Semi-Bold';fill:#555555;fill-opacity:1;stroke-width:0.26458332"
           id="path954" />
        <path
           d="m -138.82234,-86.873917 -0.16192,-0.530544 h -0.0276 q -0.27561,0.347954 -0.55466,0.475423 -0.27906,0.124023 -0.71658,0.124023 -0.56155,0 -0.8785,-0.303168 -0.31351,-0.303169 -0.31351,-0.857829 0,-0.589111 0.43753,-0.888834 0.43753,-0.299724 1.33325,-0.327285 l 0.65802,-0.02067 v -0.203261 q 0,-0.36518 -0.17226,-0.544325 -0.16881,-0.18259 -0.5271,-0.18259 -0.29283,0 -0.56155,0.08613 -0.26872,0.08613 -0.51676,0.20326 l -0.26183,-0.578776 q 0.31006,-0.161919 0.67868,-0.244602 0.36863,-0.08613 0.69591,-0.08613 0.72692,0 1.09554,0.316949 0.37207,0.316949 0.37207,0.995632 v 2.566596 z m -1.20579,-0.551215 q 0.44098,0 0.70625,-0.244602 0.26872,-0.248047 0.26872,-0.692464 v -0.330729 l -0.48921,0.02067 q -0.57188,0.02067 -0.83371,0.192925 -0.25838,0.16881 -0.25838,0.520209 0,0.254937 0.15158,0.396186 0.15159,0.137804 0.45475,0.137804 z"
           style="font-style:normal;font-variant:normal;font-weight:600;font-stretch:normal;font-family:'Open Sans';-inkscape-font-specification:'Open Sans Semi-Bold';fill:#555555;fill-opacity:1;stroke-width:0.26458332"
           id="path956" />
        <path
           d="m -135.6942,-87.459583 q 0.29628,0 0.59256,-0.09302 v 0.609781 q -0.13436,0.05857 -0.34795,0.09646 -0.21015,0.04134 -0.43753,0.04134 -1.15066,0 -1.15066,-1.212673 v -2.053277 h -0.52021 v -0.35829 l 0.5581,-0.296278 0.27561,-0.806153 h 0.49954 v 0.847494 h 1.08521 v 0.613227 h -1.08521 v 2.039496 q 0,0.292833 0.14469,0.434082 0.14814,0.137804 0.38585,0.137804 z"
           style="font-style:normal;font-variant:normal;font-weight:600;font-stretch:normal;font-family:'Open Sans';-inkscape-font-specification:'Open Sans Semi-Bold';fill:#555555;fill-opacity:1;stroke-width:0.26458332"
           id="path958" />
        <path
           d="m -131.6531,-86.873917 -0.11369,-0.499538 h -0.0413 q -0.16881,0.265272 -0.48231,0.416856 -0.31006,0.151584 -0.70969,0.151584 -0.69246,0 -1.03353,-0.344509 -0.34106,-0.34451 -0.34106,-1.043864 v -2.490804 h 0.81648 v 2.349555 q 0,0.437527 0.17915,0.658013 0.17914,0.217041 0.56155,0.217041 0.50987,0 0.74759,-0.303168 0.24115,-0.306614 0.24115,-1.023194 v -1.898247 h 0.81304 v 3.810275 z"
           style="font-style:normal;font-variant:normal;font-weight:600;font-stretch:normal;font-family:'Open Sans';-inkscape-font-specification:'Open Sans Semi-Bold';fill:#555555;fill-opacity:1;stroke-width:0.26458332"
           id="path960" />
        <path
           d="m -127.92895,-90.753094 q 0.2446,0 0.40307,0.03445 l -0.0792,0.754476 q -0.17226,-0.04134 -0.35829,-0.04134 -0.48576,0 -0.78893,0.316948 -0.29972,0.316949 -0.29972,0.823378 v 1.991265 h -0.8096 v -3.810275 h 0.6339 l 0.1068,0.671793 h 0.0413 q 0.18948,-0.341064 0.49265,-0.540879 0.30661,-0.199816 0.65801,-0.199816 z"
           style="font-style:normal;font-variant:normal;font-weight:600;font-stretch:normal;font-family:'Open Sans';-inkscape-font-specification:'Open Sans Semi-Bold';fill:#555555;fill-opacity:1;stroke-width:0.26458332"
           id="path962" />
        <path
           d="m -125.15565,-86.805015 q -0.88883,0 -1.39182,-0.516764 -0.49954,-0.520209 -0.49954,-1.429715 0,-0.93362 0.46509,-1.46761 0.46509,-0.53399 1.27813,-0.53399 0.75448,0 1.192,0.458198 0.43753,0.458197 0.43753,1.260905 v 0.437527 h -2.53903 q 0.0172,0.55466 0.29972,0.854383 0.2825,0.296279 0.79582,0.296279 0.33762,0 0.627,-0.06201 0.29284,-0.06546 0.62701,-0.213596 v 0.658013 q -0.29628,0.141249 -0.59945,0.199816 -0.30316,0.05857 -0.69246,0.05857 z m -0.14814,-3.334852 q -0.38585,0 -0.62012,0.244602 -0.23082,0.244601 -0.2756,0.713134 h 1.72943 q -0.007,-0.471978 -0.22737,-0.713134 -0.22049,-0.244602 -0.60634,-0.244602 z"
           style="font-style:normal;font-variant:normal;font-weight:600;font-stretch:normal;font-family:'Open Sans';-inkscape-font-specification:'Open Sans Semi-Bold';fill:#555555;fill-opacity:1;stroke-width:0.26458332"
           id="path964" />
        <path
           d="m -121.12489,-90.846112 q 0,-0.465087 0.32729,-0.799262 0.32728,-0.337619 0.80615,-0.337619 0.47542,0 0.8027,0.330729 0.32729,0.330729 0.32729,0.806152 0,0.478869 -0.33073,0.806153 -0.33073,0.323839 -0.79926,0.323839 -0.30317,0 -0.56844,-0.148139 -0.26183,-0.151585 -0.41341,-0.413412 -0.15159,-0.261827 -0.15159,-0.568441 z m 0.5271,0 q 0,0.241157 0.1757,0.420302 0.1757,0.179145 0.43064,0.179145 0.25493,0 0.43063,-0.1757 0.1757,-0.179145 0.1757,-0.423747 0,-0.261827 -0.17914,-0.437527 -0.17915,-0.1757 -0.42719,-0.1757 -0.24805,0 -0.42719,0.179145 -0.17915,0.179145 -0.17915,0.434082 z"
           style="font-style:normal;font-variant:normal;font-weight:600;font-stretch:normal;font-family:'Open Sans';-inkscape-font-specification:'Open Sans Semi-Bold';fill:#555555;fill-opacity:1;stroke-width:0.26458332"
           id="path966" />
        <path
           d="m -115.6713,-91.276749 q -0.70969,0 -1.11621,0.502984 -0.40652,0.502984 -0.40652,1.388374 0,0.92673 0.38929,1.402154 0.39274,0.475423 1.13344,0.475423 0.32039,0 0.62012,-0.06201 0.29972,-0.06546 0.62356,-0.165364 v 0.706244 q -0.59256,0.223931 -1.34359,0.223931 -1.10587,0 -1.69843,-0.668348 -0.59256,-0.671794 -0.59256,-1.918918 0,-0.785482 0.28595,-1.374593 0.28938,-0.589112 0.83371,-0.902615 0.54432,-0.313504 1.27813,-0.313504 0.7717,0 1.42627,0.323839 l -0.29628,0.685574 q -0.25494,-0.120578 -0.54088,-0.210151 -0.2825,-0.09302 -0.596,-0.09302 z"
           style="font-style:normal;font-variant:normal;font-weight:600;font-stretch:normal;font-family:'Open Sans';-inkscape-font-specification:'Open Sans Semi-Bold';fill:#555555;fill-opacity:1;stroke-width:0.26458332"
           id="path968" />
      </g>
    </g>
  </g>
</svg>
