<svg width="100%" height="100%" viewBox="0 0 600 400" version="1.1" xmlns="http://www.w3.org/2000/svg" xmlns:xlink="http://www.w3.org/1999/xlink" xml:space="preserve" xmlns:serif="http://www.serif.com/" style="fill-rule:evenodd;clip-rule:evenodd;stroke-linecap:round;stroke-linejoin:round;stroke-miterlimit:1.5;"><g><g><g><path d="M409.017,309.356L245.148,378.744C241.029,380.407 236.738,380.551 232.228,378.744" style="fill:none;stroke:black;stroke-width:1.5px;"></path><path d="M153.341,296.547L212.791,332.402C216.941,335.421 219.799,339.116 221.394,343.472L230.359,368.868C233.767,378.823 232.487,390.166 222.722,384.724L148.022,334.912C143.436,330.388 140.336,320.629 142.617,312.89L148.022,298.358C149.133,296.18 150.971,295.731 153.341,296.547Z" style="fill:none;stroke:black;stroke-width:1.5px;"></path><path d="M166.1,286.651L320.191,235.913L377.515,259.462L219.955,317.582L166.1,286.651Z" style="fill:none;stroke:black;stroke-width:1.5px;"></path><path d="M384,259L321,234C317.619,232.346 314.295,232.672 311,234L156,284C150.871,285.583 146.733,289.445 144.7,294.379C137.834,311.037 136.937,329.445 152,342L227,393C229.901,395.336 239.659,395.507 246,392L402,323C407.734,318.43 409.944,311.687 409,303L398,271C394.432,265.113 389.636,261.335 384,259" style="fill:none;stroke:black;stroke-width:1.5px;"></path></g><path d="M247.134,333.823L257.339,361.769L395.534,303.168L389.232,279.202L247.134,333.823Z" style="fill:none;stroke:black;stroke-width:1.5px;"></path></g><g><path d="M401.115,274.259L418.69,267.787C427.178,269.283 430.699,278.987 425.568,286.371L408.229,294.113C414.601,287.721 411.254,275.37 401.115,274.259" style="fill:none;stroke:black;stroke-width:1.5px;"></path><path d="M418.135,267.503L419.256,163.896L419.951,135.694L425.28,81.374L425.981,73.062C426.428,51.266 425.402,29.426 425.28,7.591C425.402,0.603 436.122,0.114 436.081,7.591L436.081,81.374L440.614,135.694L439.79,219.627L439.225,246.495L439.225,282.838C436.324,287.64 432.758,287.792 428.461,282.838L428.461,269.722C425.196,267.55 421.804,266.401 418.135,267.503Z" style="fill:none;stroke:black;stroke-width:1.5px;"></path><path d="M399,275L400.452,274.494C411.068,275.949 413.408,287.131 408.277,293.768L406.049,294.926L399,275" style="fill:none;stroke:black;stroke-width:1.5px;"></path></g><g transform="matrix(1,0,0,1,-82.6767,-12.7098)"><path d="M418.257,252.158C418.257,252.158 419.32,117.932 419.634,78.271C419.682,72.232 424.591,67.361 430.63,67.361C430.656,67.361 430.681,67.361 430.706,67.361C433.65,67.361 436.472,68.542 438.538,70.64C440.605,72.737 441.744,75.576 441.701,78.52C441.095,119.627 439.022,260.24 439.022,260.24" style="fill:none;stroke:black;stroke-width:1.5px;"></path></g></g><g><g transform="matrix(1,0.653803,0,0.926564,0,-85.9676)"><rect x="169.503" y="333.079" width="6.165" height="5.363" style="fill:rgb(48,213,200);fill-opacity:0.45;" class="animate-flicker"></rect></g><g transform="matrix(1,0.653803,0,0.926564,11.0228,-79.0451)"><rect x="169.503" y="333.079" width="6.165" height="5.363" style="fill:rgb(48,213,200);fill-opacity:0.45;" class="animate-blink"></rect></g><g transform="matrix(1,0.653803,0,0.926564,22.0962,-71.8553)"><rect x="169.503" y="333.079" width="6.165" height="5.363" style="fill:rgb(48,213,200);fill-opacity:0.45;" class="animate-flicker-slow"></rect></g></g></svg>
