<?xml version="1.0" encoding="UTF-8" standalone="no"?>
<svg
   xmlns:dc="http://purl.org/dc/elements/1.1/"
   xmlns:cc="http://creativecommons.org/ns#"
   xmlns:rdf="http://www.w3.org/1999/02/22-rdf-syntax-ns#"
   xmlns:svg="http://www.w3.org/2000/svg"
   xmlns="http://www.w3.org/2000/svg"
   id="svg8"
   version="1.1"
   viewBox="0 0 167.578 129.62572"
   height="129.62572mm"
   width="167.578mm">
  <defs
     id="defs2" />
  <metadata
     id="metadata5">
    <rdf:RDF>
      <cc:Work
         rdf:about="">
        <dc:format>image/svg+xml</dc:format>
        <dc:type
           rdf:resource="http://purl.org/dc/dcmitype/StillImage" />
        <dc:title></dc:title>
      </cc:Work>
    </rdf:RDF>
  </metadata>
  <g
     transform="translate(-5.6126599,-6.7452927)"
     id="layer1">
    <g
       transform="translate(2.3028149,-1.7786124)"
       id="g1048">
      <g
         style="clip-rule:evenodd;fill-rule:evenodd;stroke-linejoin:round;stroke-miterlimit:1.41420996"
         id="g967"
         transform="matrix(0.37041667,0,0,0.37041667,34.985357,29.416619)">
        <g
           id="g954">
          <path
             id="path950"
             style="fill:#00b5b6"
             d="M 50,3 C 64.902,3 77,15.098 77,30 77,44.902 64.902,57 50,57 35.098,57 23,44.902 23,30 23,15.098 35.098,3 50,3 Z m -6.264,18.183 c -0.668,-0.324 -1.129,-1.009 -1.129,-1.8 0,-1.104 0.896,-2 2,-2 0.803,0 1.496,0.474 1.814,1.157 0.317,-0.686 1.011,-1.163 1.817,-1.163 0.767,0 1.434,0.433 1.769,1.068 0.337,-0.632 1.002,-1.062 1.767,-1.062 0.799,0 1.49,0.469 1.81,1.148 0.32,-0.679 1.01,-1.148 1.809,-1.148 1.104,0 2,0.896 2,2 0,1.103 -0.896,2 -2,2 -0.799,0 -1.489,-0.47 -1.809,-1.149 -0.32,0.679 -1.011,1.149 -1.81,1.149 -0.767,0 -1.434,-0.434 -1.77,-1.068 -0.336,0.631 -1.001,1.062 -1.766,1.062 -0.803,0 -1.496,-0.475 -1.814,-1.158 -0.195,0.421 -0.531,0.763 -0.947,0.964 0.668,0.324 1.13,1.009 1.13,1.801 0,0.814 -0.487,1.514 -1.185,1.827 0.698,0.312 1.185,1.013 1.185,1.826 0,0.792 -0.462,1.477 -1.13,1.801 0.414,0.201 0.749,0.54 0.944,0.958 0.317,-0.686 1.011,-1.163 1.817,-1.163 0.767,0 1.434,0.433 1.769,1.068 0.337,-0.632 1.002,-1.062 1.767,-1.062 0.799,0 1.49,0.47 1.81,1.148 0.32,-0.678 1.01,-1.148 1.809,-1.148 1.104,0 2,0.896 2,2 0,1.103 -0.896,2 -2,2 -0.799,0 -1.489,-0.47 -1.809,-1.149 -0.32,0.679 -1.011,1.149 -1.81,1.149 -0.767,0 -1.434,-0.433 -1.77,-1.068 -0.336,0.631 -1.001,1.062 -1.766,1.062 -0.803,0 -1.496,-0.475 -1.814,-1.158 -0.132,0.286 -0.329,0.535 -0.573,0.729 0.46,0.366 0.756,0.931 0.756,1.565 0,0.813 -0.487,1.514 -1.185,1.826 0.698,0.313 1.185,1.013 1.185,1.827 0,0.792 -0.462,1.477 -1.13,1.801 0.414,0.2 0.749,0.54 0.944,0.958 0.317,-0.687 1.011,-1.164 1.817,-1.164 0.767,0 1.434,0.434 1.769,1.068 0.337,-0.631 1.002,-1.062 1.767,-1.062 0.799,0 1.49,0.47 1.81,1.149 0.32,-0.679 1.01,-1.149 1.809,-1.149 1.104,0 2,0.897 2,2 0,1.104 -0.896,2 -2,2 -0.799,0 -1.489,-0.469 -1.809,-1.148 -0.32,0.679 -1.011,1.148 -1.81,1.148 -0.767,0 -1.434,-0.433 -1.77,-1.068 -0.336,0.632 -1.001,1.062 -1.766,1.062 -0.803,0 -1.496,-0.474 -1.814,-1.157 -0.317,0.686 -1.012,1.163 -1.817,1.163 -1.104,0 -2,-0.896 -2,-2 0,-0.791 0.461,-1.476 1.129,-1.8 -0.668,-0.324 -1.129,-1.009 -1.129,-1.801 0,-0.814 0.486,-1.514 1.184,-1.827 -0.698,-0.312 -1.184,-1.013 -1.184,-1.826 0,-0.634 0.295,-1.199 0.755,-1.565 -0.46,-0.367 -0.755,-0.932 -0.755,-1.565 0,-0.792 0.461,-1.477 1.129,-1.801 -0.668,-0.324 -1.129,-1.009 -1.129,-1.801 0,-0.813 0.486,-1.514 1.184,-1.826 -0.698,-0.313 -1.184,-1.013 -1.184,-1.827 0,-0.792 0.461,-1.477 1.129,-1.801 z" />
          <path
             id="path952"
             style="fill:#00b5b6"
             d="M 50,43 C 64.902,43 77,55.098 77,70 77,84.902 64.902,97 50,97 35.098,97 23,84.902 23,70 23,55.098 35.098,43 50,43 Z m -6.264,18.183 c -0.668,-0.324 -1.129,-1.009 -1.129,-1.8 0,-1.104 0.896,-2 2,-2 0.803,0 1.496,0.474 1.814,1.157 0.317,-0.686 1.011,-1.163 1.817,-1.163 0.767,0 1.434,0.433 1.769,1.068 0.337,-0.632 1.002,-1.062 1.767,-1.062 0.799,0 1.49,0.469 1.81,1.148 0.32,-0.679 1.01,-1.148 1.809,-1.148 1.104,0 2,0.896 2,2 0,1.103 -0.896,2 -2,2 -0.799,0 -1.489,-0.47 -1.809,-1.149 -0.32,0.679 -1.011,1.149 -1.81,1.149 -0.767,0 -1.434,-0.434 -1.77,-1.068 -0.336,0.631 -1.001,1.062 -1.766,1.062 -0.803,0 -1.496,-0.475 -1.814,-1.158 -0.195,0.421 -0.531,0.763 -0.947,0.964 0.668,0.324 1.13,1.009 1.13,1.801 0,0.814 -0.487,1.514 -1.185,1.827 0.698,0.312 1.185,1.013 1.185,1.826 0,0.792 -0.462,1.477 -1.13,1.801 0.414,0.201 0.749,0.54 0.944,0.958 0.317,-0.686 1.011,-1.163 1.817,-1.163 0.767,0 1.434,0.433 1.769,1.068 0.337,-0.632 1.002,-1.062 1.767,-1.062 0.799,0 1.49,0.47 1.81,1.148 0.32,-0.678 1.01,-1.148 1.809,-1.148 1.104,0 2,0.896 2,2 0,1.103 -0.896,2 -2,2 -0.799,0 -1.489,-0.47 -1.809,-1.149 -0.32,0.679 -1.011,1.149 -1.81,1.149 -0.767,0 -1.434,-0.433 -1.77,-1.068 -0.336,0.631 -1.001,1.062 -1.766,1.062 -0.803,0 -1.496,-0.475 -1.814,-1.158 -0.132,0.286 -0.329,0.535 -0.573,0.729 0.46,0.366 0.756,0.931 0.756,1.565 0,0.813 -0.487,1.514 -1.185,1.826 0.698,0.313 1.185,1.013 1.185,1.827 0,0.792 -0.462,1.477 -1.13,1.801 0.414,0.2 0.749,0.54 0.944,0.958 0.317,-0.687 1.011,-1.164 1.817,-1.164 0.767,0 1.434,0.434 1.769,1.068 0.337,-0.631 1.002,-1.062 1.767,-1.062 0.799,0 1.49,0.47 1.81,1.149 0.32,-0.679 1.01,-1.149 1.809,-1.149 1.104,0 2,0.897 2,2 0,1.104 -0.896,2 -2,2 -0.799,0 -1.489,-0.469 -1.809,-1.148 -0.32,0.679 -1.011,1.148 -1.81,1.148 -0.767,0 -1.434,-0.433 -1.77,-1.068 -0.336,0.632 -1.001,1.062 -1.766,1.062 -0.803,0 -1.496,-0.474 -1.814,-1.157 -0.317,0.686 -1.012,1.163 -1.817,1.163 -1.104,0 -2,-0.896 -2,-2 0,-0.791 0.461,-1.476 1.129,-1.8 -0.668,-0.324 -1.129,-1.009 -1.129,-1.801 0,-0.814 0.486,-1.514 1.184,-1.827 -0.698,-0.312 -1.184,-1.013 -1.184,-1.826 0,-0.634 0.295,-1.199 0.755,-1.565 -0.46,-0.367 -0.755,-0.932 -0.755,-1.565 0,-0.792 0.461,-1.477 1.129,-1.801 -0.668,-0.324 -1.129,-1.009 -1.129,-1.801 0,-0.813 0.486,-1.514 1.184,-1.826 -0.698,-0.313 -1.184,-1.013 -1.184,-1.827 0,-0.792 0.461,-1.477 1.129,-1.801 z" />
        </g>
      </g>
      <g
         style="clip-rule:evenodd;fill-rule:evenodd;stroke-linejoin:round;stroke-miterlimit:1.41420996"
         id="g983"
         transform="matrix(0.37041667,0,0,0.37041667,34.97943,79.616092)">
        <path
           id="path969"
           style="fill:#000166"
           d="M 40.5,5 C 60.645,5 77,21.651 77,42.16 77,62.668 60.645,79.319 40.5,79.319 20.355,79.319 4,62.668 4,42.16 4,21.651 20.355,5 40.5,5 Z m 0,10.16 c 12.418,0 22.5,12.098 22.5,27 0,14.901 -10.082,27 -22.5,27 -12.418,0 -22.5,-12.099 -22.5,-27 0,-14.902 10.082,-27 22.5,-27 z" />
        <path
           id="path971"
           style="fill:#000166;fill-rule:nonzero"
           d="m 74.858,95.257 v -5.068 c 0,0 4.825,-4.706 6.63,-6.279 l 4.62,-5.317 c 1.701,-2.203 3.73,-7.459 1.163,-9.15 -1.198,-0.789 -3.594,-1.481 -5.783,-1.147 -2.33,0.355 -4.443,1.776 -5.228,2.177 l -0.579,-5.247 c 3.262,-1.213 6.416,-1.819 9.462,-1.819 0.444,0 2.912,-0.067 4.727,0.6 1.705,0.627 2.834,1.813 3.271,2.392 1.263,1.671 2.821,7.227 0,12.194 -1.433,2.524 -3.322,4.777 -5.199,6.765 -2.077,2.2 -3.84,4.174 -4.83,4.831 h 12.92 v 5.068 z" />
      </g>
      <g
         style="clip-rule:evenodd;fill-rule:evenodd;stroke-linejoin:round;stroke-miterlimit:1.41420996"
         id="g996"
         transform="matrix(0.37041667,0,0,0.37041667,100.83309,79.663691)">
        <path
           id="path985"
           style="fill:#1d1d1b;fill-rule:nonzero"
           d="m 75.279,42.05 c -0.749,-0.521 -1.466,-1.085 -2.15,-1.689 0.225,-0.391 0.626,-0.993 0.986,-1.502 2.095,-3.04 6.024,-8.779 6.024,-16.962 C 80.165,16.707 78.041,11.731 74.275,8.161 70.121,4.235 63.578,1.508 53.972,1.511 c -9.118,0 -19.385,2.994 -28.254,8.239 -3.977,2.357 -7.252,4.902 -9.547,7.342 -2.295,2.44 -3.61,4.774 -3.617,6.785 -0.005,0.969 0.387,1.898 1.083,2.572 1.295,1.274 3.593,1.866 6.525,2.181 2.932,0.315 6.508,0.315 10.358,0.315 h 0.692 c 5.933,0 10.122,0.162 12.808,0.55 0.998,0.106 1.974,0.361 2.897,0.755 0.606,0.311 0.797,0.609 0.8,0.948 -0.076,0.322 -0.259,0.609 -0.519,0.814 -1.281,1.284 -4.646,3.191 -7.671,5.286 -1.446,0.956 -2.794,2.054 -4.023,3.278 -1.062,1.121 -1.782,2.274 -1.793,3.461 v 0.059 c 0,1.506 0.81,2.718 2.029,3.652 3.679,2.821 11.302,3.562 15.286,4.286 2.462,0.45 3.767,1.322 4.469,2.274 0.592,0.858 0.885,1.888 0.835,2.929 0,3.416 -1.267,6.435 -3.545,8.498 -2.022,1.859 -4.459,3.063 -8.014,3.067 h -0.426 c 0.084,-0.661 0.126,-1.327 0.125,-1.994 0,-4.022 -1.578,-7.377 -4.265,-9.693 -2.686,-2.315 -6.459,-3.638 -10.838,-3.638 -5.404,0 -9.738,2.24 -12.708,5.567 -2.942,3.331 -4.574,7.622 -4.59,12.067 0,6.823 3.15,13.68 9.284,18.817 6.134,5.137 15.259,8.561 27.198,8.561 9.468,0 19.015,-3.116 26.243,-8.554 5.985,-4.5 13.154,-12.725 13.137,-26.208 0,-12.337 -8.28,-18.433 -12.646,-21.645 z m -37.677,0.873 c 1.322,-1.319 4.054,-3.192 6.093,-4.483 2.039,-1.291 3.807,-2.423 5.109,-3.583 1.302,-1.16 2.167,-2.319 2.17,-3.673 0.003,-1.059 -0.425,-2.075 -1.183,-2.814 -1.385,-1.385 -3.864,-2.015 -6.924,-2.357 -3.06,-0.343 -6.774,-0.347 -10.61,-0.347 h -1.038 c -3.161,0 -5.681,-0.048 -7.692,-0.128 2.794,-1.083 6.023,-2.81 9.544,-4.69 5.712,-3.053 12.039,-6.446 18,-7.962 -1.384,1.558 -2.267,3.334 -2.274,4.864 -0.006,0.401 0.139,0.79 0.405,1.09 0.362,0.357 0.859,0.545 1.367,0.516 1.063,0 2.25,-0.409 3.625,-0.848 1.862,-0.613 4.019,-1.316 6.386,-1.316 2.382,0.022 4.701,0.77 6.647,2.143 -1.579,0.104 -2.873,0.564 -3.683,1.205 -0.66,0.446 -1.066,1.184 -1.091,1.98 0,0.876 0.62,1.537 1.385,2.423 1.225,1.385 2.831,3.192 2.831,6.11 -0.05,2.194 -0.756,4.324 -2.028,6.113 0,-0.12 0,-0.245 0,-0.374 0,-1.481 -0.329,-3.153 -1.142,-4.102 -0.465,-0.554 -1.154,-0.871 -1.877,-0.865 -1.249,0 -2.326,0.962 -3.932,2.284 -1.37,1.171 -2.817,2.249 -4.33,3.227 -7.519,4.735 -11.552,6.577 -14.411,6.805 -1.056,0.094 -2.638,0.076 -1.347,-1.218 z m 6.892,29.001 c 4.234,0 7.765,-1.291 10.496,-3.808 2.918,-2.655 4.576,-6.629 4.576,-10.904 0.059,-1.854 -0.59,-3.663 -1.814,-5.057 6.311,1.506 12.864,4.749 16.509,9.627 -1.266,-0.444 -2.598,-0.672 -3.939,-0.675 -1.177,0.017 -2.112,1.242 -2.119,2.648 0,0.734 0.28,1.568 0.616,2.61 0.526,1.616 1.201,3.704 1.201,6.196 0,2.299 -0.571,4.94 -2.381,7.893 -0.052,-2.382 -0.693,-4.282 -1.52,-5.303 -0.405,-0.614 -1.093,-0.984 -1.828,-0.984 -0.72,0 -1.394,0.354 -1.803,0.945 -0.532,0.694 -0.996,1.437 -1.385,2.219 -1.731,3.116 -4.469,8.083 -13.022,10.655 0.71,-1.148 1.115,-2.459 1.176,-3.808 0.01,-0.395 -0.058,-0.789 -0.2,-1.159 -0.226,-0.62 -0.818,-1.037 -1.478,-1.039 h -0.021 c -1.118,0.105 -2.22,0.337 -3.285,0.693 -1.97,0.547 -4.358,1.218 -6.982,1.218 -3.173,0.008 -6.257,-1.057 -8.748,-3.022 0.98,-0.115 1.908,-0.502 2.679,-1.118 0.548,-0.427 0.883,-1.072 0.918,-1.765 0,-1.001 -0.8,-1.686 -1.697,-2.51 -1.308,-1.232 -2.869,-2.683 -2.866,-5.123 0.012,-0.82 0.16,-1.632 0.44,-2.403 0.266,0.763 0.675,1.468 1.205,2.077 0.799,0.862 1.755,1.385 2.689,1.385 0.935,0 1.565,-0.457 1.811,-1.039 0.202,-0.576 0.286,-1.187 0.249,-1.796 0.013,-0.614 0.276,-1.197 0.727,-1.613 0.454,-0.439 1.061,-0.687 1.693,-0.693 1.44,0 2.527,0.8 3.288,1.994 0.765,1.296 1.163,2.775 1.153,4.279 0.013,0.868 -0.143,1.731 -0.457,2.541 l -0.325,0.792 0.675,-0.526 c 1.175,-0.927 2.122,-2.111 2.769,-3.461 0.322,0.024 0.664,0.034 1,0.034 z M 16.528,24.846 c -0.443,-0.26 -0.724,-0.54 -0.724,-0.966 0,-1.166 1.104,-3.025 3.15,-5.064 6.127,-6.141 20.317,-14.051 35.018,-14.041 7.429,0 13.48,1.839 17.499,5.269 3.472,2.95 5.453,7.3 5.396,11.856 0,7.19 -3.385,12.144 -5.445,15.141 -1.038,1.52 -1.679,2.424 -1.689,3.424 0.036,0.815 0.401,1.581 1.011,2.122 0.809,0.764 1.676,1.466 2.593,2.098 4.278,3.167 11.312,8.342 11.316,19.039 0,12.143 -6.418,19.52 -11.818,23.594 -6.661,5.023 -15.522,7.907 -24.291,7.907 -21.898,0 -33.231,-12.185 -33.231,-24.118 0.012,-3.635 1.34,-7.146 3.738,-9.879 2.607,-2.95 6.379,-4.617 10.316,-4.559 2.458,0 5.559,0.578 8.021,2.222 2.461,1.644 4.306,4.341 4.313,8.706 0,0.125 0,0.253 0,0.381 -0.247,-0.558 -0.567,-1.081 -0.952,-1.554 -1.052,-1.336 -2.669,-2.108 -4.369,-2.088 -2.344,0.003 -4.288,1.895 -4.355,4.237 0.015,0.28 -0.022,0.561 -0.107,0.828 -0.012,0.033 -0.028,0.064 -0.048,0.093 -0.575,0 -1.257,-0.412 -1.8,-1.191 -0.66,-1.031 -0.992,-2.238 -0.952,-3.461 -10e-4,-0.312 0.015,-0.624 0.048,-0.935 l 0.076,-0.692 -0.47,0.522 c -2.216,2.465 -3.016,4.694 -3.016,6.612 0,3.14 2.119,5.38 3.372,6.553 0.229,0.208 0.512,0.467 0.734,0.692 0.107,0.115 0.204,0.222 0.27,0.305 l 0.069,0.107 v 0.021 c 0,0.114 -0.249,0.416 -0.834,0.647 -0.985,0.355 -2.028,0.516 -3.074,0.475 -0.498,0 -1.039,-0.025 -1.658,-0.083 l -0.547,-0.049 0.346,0.426 c 4.213,5.005 8.845,6.355 12.857,6.355 2.963,0 5.594,-0.737 7.491,-1.266 0.799,-0.229 1.703,-0.568 2.201,-0.561 0.208,0 0.294,0.048 0.346,0.111 0.066,0.114 0.096,0.245 0.087,0.377 0,0.581 -0.346,1.637 -0.914,2.721 -0.583,1.124 -1.345,2.146 -2.257,3.025 l -0.537,0.488 0.717,-0.093 c 12.251,-1.575 16.339,-8.675 18.347,-12.337 0.28,-0.539 0.587,-1.062 0.92,-1.569 0.277,-0.412 0.551,-0.609 0.617,-0.585 0.065,0.025 0.301,0.104 0.502,0.405 0.602,0.893 1.107,3.116 1.104,5.459 0.005,1.009 -0.096,2.015 -0.301,3.002 l -0.153,0.709 0.53,-0.495 c 4.625,-4.282 5.885,-8.785 5.885,-12.531 -0.045,-2.345 -0.468,-4.668 -1.253,-6.878 -0.249,-0.65 -0.422,-1.326 -0.516,-2.015 -0.022,-0.192 0.019,-0.387 0.118,-0.554 0.091,-0.099 0.213,-0.164 0.346,-0.187 1.952,0 4.271,0.693 7.055,2.025 l 0.543,0.26 -0.235,-0.554 C 74.181,55.925 65.769,52.131 57.586,50.061 53.488,49.022 49.434,48.416 46.021,47.828 43.539,47.399 41.389,46.973 39.828,46.415 l -0.769,-0.346 c 4.681,-0.588 10.33,-3.887 15.342,-7.106 1.572,-1.038 3.076,-2.175 4.501,-3.407 0.612,-0.505 1.177,-0.976 1.658,-1.312 0.303,-0.261 0.667,-0.442 1.059,-0.526 0.182,0.006 0.352,0.093 0.464,0.236 0.46,0.495 0.734,1.865 0.723,3.361 0.007,1.191 -0.145,2.379 -0.45,3.531 l -0.159,0.581 0.505,-0.325 c 3.981,-2.565 5.885,-6.439 5.885,-10.077 0,-3.638 -2.021,-5.923 -3.323,-7.38 -0.201,-0.225 -0.433,-0.492 -0.62,-0.72 -0.114,-0.139 -0.216,-0.287 -0.304,-0.443 0.069,-0.178 0.189,-0.331 0.346,-0.44 0.834,-0.623 2.257,-1.011 3.908,-1.011 0.893,0.004 1.782,0.108 2.652,0.312 l 0.626,0.142 -0.394,-0.506 c -3.424,-4.403 -7.36,-5.67 -10.87,-5.663 -2.769,0 -5.262,0.772 -7.086,1.385 -0.886,0.291 -2.118,0.671 -2.644,0.664 -0.048,0.007 -0.095,0.007 -0.142,0 0,-0.64 0.47,-1.73 1.35,-2.869 1.081,-1.389 2.412,-2.563 3.925,-3.462 l 0.62,-0.37 -0.72,-0.052 c -0.315,-0.021 -0.637,-0.035 -0.963,-0.035 -7.044,0 -16.138,5.127 -22.846,8.588 -4.151,2.143 -12.933,7.235 -15.574,5.664 z" />
      </g>
      <g
         style="clip-rule:evenodd;fill-rule:evenodd;stroke-linejoin:round;stroke-miterlimit:1.41420996"
         id="g1025"
         transform="matrix(0.37041667,0,0,0.37041667,100.97126,29.582196)">
        <path
           id="path998"
           style="fill:#e90000"
           d="M 51,14.426 C 63.459,14.426 73.574,24.541 73.574,37 73.574,49.459 63.459,59.574 51,59.574 38.541,59.574 28.426,49.459 28.426,37 28.426,24.541 38.541,14.426 51,14.426 Z M 39.112,41.161 c -4.041,-12.075 7.599,-25.072 21.072,-24.054 -5.334,1.842 -7.316,5.819 -7.153,9.292 5.68,1.085 10.203,5.391 10.203,11.385 0,6.787 -5.509,12.297 -12.296,12.297 -5.616,0 -10.357,-3.773 -11.826,-8.92 z" />
        <path
           style="fill:#ee3023;fill-rule:nonzero"
           d="M 5.259,84.391 0,71.841 h 3.435 l 3.281,8.334 3.179,-8.334 h 3.281 l -5.104,12.55 z"
           id="path2339-2" />
        <path
           style="fill:#ee3023;fill-rule:nonzero"
           d="m 22.329,78.051 c 0,-0.521 -0.06,-1.017 -0.184,-1.488 -0.12,-0.471 -0.303,-0.876 -0.546,-1.214 -0.244,-0.341 -0.538,-0.61 -0.885,-0.809 -0.348,-0.202 -0.756,-0.303 -1.224,-0.303 -0.467,0 -0.878,0.101 -1.223,0.303 -0.347,0.199 -0.644,0.468 -0.885,0.809 -0.243,0.338 -0.426,0.743 -0.546,1.214 -0.124,0.471 -0.184,0.967 -0.184,1.488 0,0.541 0.06,1.043 0.184,1.505 0.12,0.461 0.297,0.866 0.531,1.213 0.234,0.348 0.531,0.623 0.888,0.825 0.354,0.199 0.768,0.3 1.235,0.3 0.468,0 0.876,-0.101 1.224,-0.3 0.347,-0.202 0.641,-0.477 0.885,-0.825 0.243,-0.347 0.426,-0.752 0.546,-1.213 0.124,-0.462 0.184,-0.964 0.184,-1.505 m 3.176,0.014 c 0,0.819 -0.127,1.621 -0.376,2.412 -0.253,0.79 -0.626,1.494 -1.122,2.12 -0.493,0.626 -1.119,1.128 -1.874,1.511 -0.756,0.382 -1.637,0.572 -2.643,0.572 -1.008,0 -1.889,-0.19 -2.642,-0.572 -0.755,-0.382 -1.381,-0.885 -1.877,-1.511 -0.493,-0.626 -0.866,-1.33 -1.119,-2.12 -0.249,-0.791 -0.376,-1.593 -0.376,-2.412 0,-0.815 0.127,-1.612 0.376,-2.395 0.253,-0.781 0.626,-1.48 1.119,-2.096 0.496,-0.616 1.122,-1.109 1.877,-1.482 0.753,-0.373 1.634,-0.563 2.642,-0.563 1.006,0 1.884,0.19 2.63,0.563 0.746,0.373 1.372,0.866 1.874,1.482 0.506,0.616 0.882,1.315 1.135,2.096 0.249,0.783 0.376,1.58 0.376,2.395"
           id="path2341-0" />
        <path
           style="fill:#ee3023;fill-rule:nonzero"
           d="m 35.204,74.603 c -0.622,-0.243 -1.201,-0.366 -1.738,-0.366 -0.55,0 -1.027,0.107 -1.422,0.316 -0.398,0.208 -0.727,0.49 -0.986,0.847 -0.259,0.357 -0.452,0.758 -0.582,1.204 -0.129,0.442 -0.196,0.901 -0.196,1.372 0,0.521 0.057,1.02 0.171,1.501 0.111,0.477 0.284,0.897 0.518,1.254 0.231,0.358 0.525,0.645 0.879,0.863 0.354,0.215 0.774,0.326 1.258,0.326 0.398,0 0.802,-0.111 1.216,-0.326 0.415,-0.218 0.708,-0.477 0.882,-0.771 z m 0.259,9.788 -0.129,-0.961 c -0.294,0.329 -0.683,0.62 -1.17,0.87 -0.483,0.252 -1.055,0.379 -1.713,0.379 -0.862,0 -1.627,-0.183 -2.281,-0.547 -0.661,-0.363 -1.214,-0.85 -1.663,-1.457 -0.449,-0.607 -0.793,-1.311 -1.027,-2.111 -0.231,-0.797 -0.348,-1.631 -0.348,-2.5 0,-0.815 0.121,-1.615 0.361,-2.396 0.243,-0.78 0.61,-1.479 1.103,-2.095 0.496,-0.616 1.112,-1.109 1.858,-1.482 0.743,-0.373 1.618,-0.563 2.62,-0.563 0.657,0 1.369,0.123 2.13,0.364 v -4.867 h 3.227 v 17.366 z"
           id="path2343-6" />
        <path
           style="fill:#ee3023;fill-rule:nonzero"
           d="m 47.521,78.506 c -0.348,0.019 -0.708,0.051 -1.075,0.092 -0.367,0.044 -0.714,0.101 -1.046,0.171 -0.702,0.139 -1.185,0.376 -1.457,0.714 -0.269,0.341 -0.405,0.708 -0.405,1.109 0,0.414 0.152,0.749 0.459,1.002 0.306,0.25 0.736,0.376 1.295,0.376 0.421,0 0.828,-0.085 1.22,-0.259 0.392,-0.174 0.73,-0.392 1.009,-0.651 z m 0.259,5.876 -0.127,-0.939 c -0.351,0.386 -0.793,0.689 -1.333,0.907 -0.541,0.218 -1.132,0.329 -1.777,0.329 -0.54,0 -1.062,-0.092 -1.555,-0.275 -0.499,-0.18 -0.938,-0.443 -1.321,-0.781 -0.382,-0.338 -0.692,-0.752 -0.926,-1.248 -0.237,-0.496 -0.354,-1.056 -0.354,-1.681 0,-0.623 0.12,-1.176 0.367,-1.653 0.243,-0.478 0.572,-0.879 0.992,-1.211 0.418,-0.329 0.898,-0.597 1.438,-0.806 0.538,-0.208 1.107,-0.366 1.698,-0.471 0.417,-0.085 0.875,-0.148 1.371,-0.193 0.496,-0.044 0.91,-0.082 1.242,-0.117 V 76.06 c 0,-0.695 -0.177,-1.188 -0.537,-1.485 -0.357,-0.294 -0.85,-0.443 -1.476,-0.443 -0.367,0 -0.717,0.045 -1.049,0.133 -0.332,0.085 -0.626,0.193 -0.888,0.322 -0.263,0.133 -0.493,0.263 -0.696,0.392 -0.199,0.13 -0.36,0.247 -0.483,0.351 l -1.068,-2.263 c 0.139,-0.123 0.35,-0.268 0.638,-0.442 0.288,-0.174 0.632,-0.345 1.043,-0.509 0.408,-0.164 0.866,-0.303 1.378,-0.417 0.512,-0.114 1.065,-0.171 1.653,-0.171 0.695,0 1.33,0.092 1.902,0.275 0.572,0.183 1.069,0.468 1.486,0.86 0.414,0.389 0.739,0.882 0.976,1.482 0.234,0.597 0.351,1.321 0.351,2.171 v 8.066 z"
           id="path2345-7" />
        <path
           style="fill:#ee3023;fill-rule:nonzero"
           d="m 60.7,69.888 c -0.105,-0.051 -0.307,-0.126 -0.61,-0.221 -0.307,-0.095 -0.708,-0.143 -1.214,-0.143 -0.449,0 -0.828,0.136 -1.131,0.405 -0.304,0.269 -0.456,0.708 -0.456,1.315 v 0.597 h 2.709 v 2.604 h -2.683 v 9.946 h -3.23 v -9.946 h -1.666 v -2.604 h 1.666 v -0.676 c 0,-0.816 0.104,-1.505 0.313,-2.07 0.208,-0.563 0.499,-1.024 0.872,-1.378 0.373,-0.357 0.812,-0.62 1.315,-0.784 0.505,-0.165 1.052,-0.247 1.643,-0.247 0.781,0 1.425,0.073 1.937,0.222 0.512,0.148 0.813,0.246 0.898,0.3 z"
           id="path2347-3" />
        <path
           style="fill:#ee3023;fill-rule:nonzero"
           d="m 69.501,78.051 c 0,-0.521 -0.063,-1.017 -0.183,-1.488 -0.12,-0.471 -0.303,-0.876 -0.547,-1.214 -0.243,-0.341 -0.537,-0.61 -0.885,-0.809 -0.347,-0.202 -0.755,-0.303 -1.223,-0.303 -0.467,0 -0.878,0.101 -1.223,0.303 -0.347,0.199 -0.644,0.468 -0.888,0.809 -0.24,0.338 -0.423,0.743 -0.547,1.214 -0.12,0.471 -0.18,0.967 -0.18,1.488 0,0.541 0.06,1.043 0.18,1.505 0.124,0.461 0.301,0.866 0.535,1.213 0.233,0.348 0.53,0.623 0.884,0.825 0.358,0.199 0.772,0.3 1.239,0.3 0.468,0 0.876,-0.101 1.223,-0.3 0.348,-0.202 0.642,-0.477 0.885,-0.825 0.244,-0.347 0.427,-0.752 0.547,-1.213 0.12,-0.462 0.183,-0.964 0.183,-1.505 m 3.177,0.014 c 0,0.819 -0.127,1.621 -0.38,2.412 -0.249,0.79 -0.622,1.494 -1.118,2.12 -0.493,0.626 -1.119,1.128 -1.875,1.511 -0.755,0.382 -1.637,0.572 -2.642,0.572 -1.008,0 -1.89,-0.19 -2.642,-0.572 -0.755,-0.382 -1.381,-0.885 -1.877,-1.511 -0.493,-0.626 -0.866,-1.33 -1.119,-2.12 -0.253,-0.791 -0.376,-1.593 -0.376,-2.412 0,-0.815 0.123,-1.612 0.376,-2.395 0.253,-0.781 0.626,-1.48 1.119,-2.096 0.496,-0.616 1.122,-1.109 1.877,-1.482 0.752,-0.373 1.634,-0.563 2.642,-0.563 1.005,0 1.884,0.19 2.63,0.563 0.746,0.373 1.371,0.866 1.874,1.482 0.506,0.616 0.882,1.315 1.131,2.096 0.253,0.783 0.38,1.58 0.38,2.395"
           id="path2349-9" />
        <path
           style="fill:#ee3023;fill-rule:nonzero"
           d="m 82.699,84.391 v -7.158 c 0,-0.955 -0.199,-1.694 -0.597,-2.216 -0.401,-0.518 -0.954,-0.78 -1.669,-0.78 -0.502,0 -0.967,0.129 -1.39,0.392 -0.427,0.259 -0.797,0.546 -1.109,0.859 v 8.903 h -3.227 v -12.55 h 2.942 l 0.155,0.989 c 0.506,-0.414 1.071,-0.736 1.707,-0.96 0.632,-0.228 1.27,-0.339 1.912,-0.339 0.66,0 1.267,0.098 1.823,0.297 0.556,0.203 1.034,0.519 1.432,0.952 0.401,0.433 0.708,0.998 0.926,1.691 0.215,0.695 0.325,1.529 0.325,2.499 v 7.421 z"
           id="path2351-6" />
        <path
           style="fill:#ee3023;fill-rule:nonzero"
           d="m 95.973,76.607 c -0.034,-0.433 -0.126,-0.812 -0.275,-1.131 -0.148,-0.323 -0.331,-0.582 -0.55,-0.781 -0.218,-0.202 -0.451,-0.348 -0.704,-0.446 -0.256,-0.094 -0.512,-0.142 -0.775,-0.142 -0.559,0 -1.09,0.209 -1.596,0.626 -0.505,0.417 -0.802,1.04 -0.891,1.874 z m -4.867,2.317 c 0.07,1.058 0.398,1.823 0.993,2.291 0.591,0.468 1.359,0.705 2.297,0.705 0.436,0 0.847,-0.041 1.23,-0.117 0.382,-0.079 0.723,-0.177 1.021,-0.3 0.297,-0.121 0.549,-0.244 0.758,-0.364 0.209,-0.123 0.363,-0.237 0.471,-0.341 l 0.86,2.632 c -0.124,0.086 -0.32,0.203 -0.588,0.351 -0.269,0.149 -0.604,0.285 -1.002,0.417 -0.398,0.13 -0.869,0.241 -1.407,0.339 -0.537,0.094 -1.128,0.142 -1.769,0.142 -0.819,0 -1.593,-0.13 -2.333,-0.389 -0.736,-0.262 -1.384,-0.667 -1.937,-1.214 -0.556,-0.546 -0.999,-1.226 -1.328,-2.041 -0.331,-0.816 -0.496,-1.789 -0.496,-2.917 0,-1.059 0.152,-1.998 0.455,-2.813 0.304,-0.816 0.721,-1.501 1.249,-2.058 0.531,-0.553 1.147,-0.979 1.849,-1.276 0.704,-0.294 1.453,-0.443 2.253,-0.443 0.8,0 1.536,0.133 2.216,0.392 0.676,0.259 1.261,0.664 1.757,1.21 0.493,0.547 0.885,1.255 1.169,2.124 0.288,0.866 0.43,1.9 0.43,3.098 v 0.572 z"
           id="path2353-4" />
      </g>
    </g>
  </g>
</svg>
