<?xml version="1.0" encoding="UTF-8" standalone="no"?>
<svg
   xmlns:dc="http://purl.org/dc/elements/1.1/"
   xmlns:cc="http://creativecommons.org/ns#"
   xmlns:rdf="http://www.w3.org/1999/02/22-rdf-syntax-ns#"
   xmlns:svg="http://www.w3.org/2000/svg"
   xmlns="http://www.w3.org/2000/svg"
   id="svg8"
   version="1.1"
   viewBox="0 0 519.57196 42.763123"
   height="42.763123mm"
   width="519.57196mm">
  <defs
     id="defs2" />
  <metadata
     id="metadata5">
    <rdf:RDF>
      <cc:Work
         rdf:about="">
        <dc:format>image/svg+xml</dc:format>
        <dc:type
           rdf:resource="http://purl.org/dc/dcmitype/StillImage" />
        <dc:title></dc:title>
      </cc:Work>
    </rdf:RDF>
  </metadata>
  <g
     transform="translate(118.13313,-71.424515)"
     id="layer1">
    <g
       transform="translate(0.92208594,-0.08678097)"
       id="g981">
      <g
         style="clip-rule:evenodd;fill-rule:evenodd;stroke-linejoin:round;stroke-miterlimit:1.41420996"
         id="g826"
         transform="matrix(0.26458333,0,0,0.26458333,-113.77083,79.657555)">
        <path
           id="path815"
           style="fill:#707070"
           d="m 141.258,69.031 c 0,0 0.514,19.117 -20.678,20.358 -17.8,1.042 -21.343,-15.82 -21.343,-15.82 h 12.994 c 0,0 -0.128,6.773 8.349,6.597 6.579,-0.137 7.936,-4.864 7.936,-4.864 l 0.776,-9.402 c -3.162,2.157 -6.972,4.634 -11.071,4.634 -10.94,0 -19.823,-8.98 -19.823,-20.041 0,-11.061 8.883,-20.041 19.823,-20.041 4.099,0 7.909,2.085 11.071,4.243 v -3.034 h 11.966 z m -47,0 c 0,0 0.514,19.117 -20.678,20.358 -17.8,1.042 -21.343,-15.82 -21.343,-15.82 h 12.994 c 0,0 -0.128,6.773 8.349,6.597 6.579,-0.137 7.936,-4.864 7.936,-4.864 L 82.292,65.9 c -3.162,2.157 -6.972,4.634 -11.071,4.634 -10.94,0 -19.823,-8.98 -19.823,-20.041 0,-11.061 8.883,-20.041 19.823,-20.041 4.099,0 7.909,2.085 11.071,4.243 v -3.034 h 11.966 z m -46.74,0 H 35.552 v -1.915 c -3.162,2.158 -6.972,3.418 -11.071,3.418 -10.94,0 -19.823,-8.98 -19.823,-20.041 0,-11.061 8.883,-20.041 19.823,-20.041 4.099,0 7.909,1.26 11.071,3.418 V 31.661 H 47.518 Z M 273.427,30.048 c 12.095,0 21.915,9.071 21.915,20.243 0,11.172 -9.82,20.243 -21.915,20.243 -12.096,0 -21.916,-9.071 -21.916,-20.243 0,-11.172 9.82,-20.243 21.916,-20.243 z m -89.769,21.937 c 0.406,5.725 2.896,9.952 8.678,9.845 4.579,-0.085 5.934,-1.828 8.21,-5.06 l 10.711,1.593 c -3.824,8.477 -10.703,11.54 -19.904,11.54 -11.034,0 -19.992,-6.268 -19.992,-19.776 0,-13.509 8.958,-19.777 19.992,-19.777 14.914,0 19.992,8.861 19.992,19.777 0,0.626 -0.03,1.246 -0.088,1.858 z M 157.253,31.661 v 3.513 c 3.695,-5.05 9.304,-5.663 15.898,-3.993 l -1.737,9.386 c -8.118,-2.192 -13.231,0.175 -14.161,8.892 V 69.175 H 145.345 V 31.661 Z M 227.27,45.047 239.818,31.33 h 15.265 L 237.997,47.94 256.34,68.602 H 240.821 L 227.27,52.974 V 68.602 H 215.727 V 10.611 H 227.27 Z M 26.84,39.798 c 5.733,0 10.388,4.702 10.388,10.493 0,5.791 -4.655,10.493 -10.388,10.493 -5.733,0 -10.388,-4.702 -10.388,-10.493 0,-5.791 4.655,-10.493 10.388,-10.493 z m 247,0 c 5.733,0 10.388,4.702 10.388,10.493 0,5.791 -4.655,10.493 -10.388,10.493 -5.733,0 -10.388,-4.702 -10.388,-10.493 0,-5.791 4.655,-10.493 10.388,-10.493 z m -153.26,0 c 5.733,0 10.388,4.702 10.388,10.493 0,5.791 -4.655,10.493 -10.388,10.493 -5.733,0 -10.388,-4.702 -10.388,-10.493 0,-5.791 4.655,-10.493 10.388,-10.493 z m -47,0 c 5.733,0 10.388,4.702 10.388,10.493 0,5.791 -4.655,10.493 -10.388,10.493 -5.733,0 -10.388,-4.702 -10.388,-10.493 0,-5.791 4.655,-10.493 10.388,-10.493 z m 127.005,5.364 c -1.018,-4.355 -4.346,-7.55 -8.29,-7.55 -3.944,0 -7.272,3.195 -8.291,7.55 z" />
      </g>
      <g
         id="layer1-3"
         transform="translate(-19.209236,59.909228)">
        <g
           transform="matrix(0.59032161,0,0,0.59032161,3.3925601,1.7707922)"
           id="g3358"
           style="fill:#707070;fill-opacity:1">
          <path
             id="rect3278"
             transform="scale(0.26458333)"
             d="M 84.136719,123.16211 C 66.333348,123.16211 52,137.49546 52,155.29883 v 89.08203 c 0,17.80337 14.333348,32.13672 32.136719,32.13672 H 93.75 l 32.22955,-26.14395 c 5.34028,-4.88536 5.34076,-5.43248 5.34076,-12.13966 V 212.16211 H 99.236328 v 31.24023 c 0,4.19719 -3.378988,7.57618 -7.576172,7.57618 -4.197183,0 -7.576172,-3.37899 -7.576172,-7.57618 v -87.125 c 0,-4.19718 3.378989,-7.57617 7.576172,-7.57617 4.197184,0 7.576172,3.37899 7.576172,7.57617 v 30.88477 h 32.083982 v -31.86328 c 0,-17.80337 -14.33335,-32.13672 -32.136716,-32.13672 z"
             style="opacity:1;fill:#707070;fill-opacity:1;stroke:none;stroke-width:1.51181102;stroke-linecap:round;stroke-linejoin:round;stroke-miterlimit:4;stroke-dasharray:1.51181099, 3.02362201;stroke-dashoffset:0;stroke-opacity:1" />
          <path
             id="path3289"
             transform="scale(0.26458333)"
             d="M 163.13867,125.5 138.21484,241.0918 185.36328,202.36328 232.51172,241.0918 207.58594,125.5 Z m 22.48633,29.79883 8.125,39.63086 h -8.125 -8.125 z"
             style="fill:#707070;fill-opacity:1;stroke:none;stroke-width:0.99999994px;stroke-linecap:butt;stroke-linejoin:miter;stroke-opacity:1" />
          <path
             id="rect3328"
             transform="scale(0.26458333)"
             d="m 225.26367,125.5 v 29.79883 h 21.71875 v 98.76562 l 26.76172,22.45313 h 9.09766 V 155.29883 h 22.22461 V 125.5 Z"
             style="opacity:1;fill:#707070;fill-opacity:1;stroke:none;stroke-width:1.51181102;stroke-linecap:round;stroke-linejoin:round;stroke-miterlimit:4;stroke-dasharray:1.51181099, 3.02362201;stroke-dashoffset:0;stroke-opacity:1" />
          <path
             id="path3336"
             transform="scale(0.26458333)"
             d="m 185.625,211.61523 -80.08008,64.90235 h 71.41992 17.32032 71.41992 z"
             style="fill:#707070;fill-opacity:1;stroke:none;stroke-width:0.99999994px;stroke-linecap:butt;stroke-linejoin:miter;stroke-opacity:1" />
        </g>
      </g>
      <g
         style="clip-rule:evenodd;fill-rule:evenodd;stroke-linejoin:round;stroke-miterlimit:1.41420996"
         id="g856"
         transform="matrix(0.26458333,0,0,0.26458333,33.909496,79.783547)">
        <path
           id="path845"
           style="fill:#707070"
           d="m 182.467,0.851 h 12.337 v 35.7 h -43.237 c -3.498,0 -6.852,1.389 -9.325,3.863 -2.474,2.473 -3.863,5.827 -3.863,9.325 0,0 0,0 0,0.001 0,3.376 1.341,6.615 3.729,9.003 2.388,2.387 5.626,3.729 9.003,3.729 h 43.693 v 35.771 c 0,0 -23.984,0 -48.111,0 -12.988,0 -25.444,-5.16 -34.628,-14.344 -9.184,-9.184 -14.344,-21.64 -14.344,-34.628 0,-10e-4 0,-0.002 0,-0.002 0,-26.741 21.677,-48.418 48.418,-48.418 h 29.53 c -0.46,0.477 -1.358,1.469 -1.652,2.22 -0.31,0.796 -0.752,3.375 1.631,4.333 1.952,0.785 5.104,-1.167 6.091,-1.14 0.987,0.028 1.499,1.078 1.061,1.531 -1.554,1.61 -2.708,0.024 -2.708,0.024 l -3.225,2.235 c 0,0 1.44,2.354 3.733,1.859 1.516,-0.328 4.9,-2.385 5.493,-3.808 0.618,-1.479 0.627,-4.137 -1.709,-5.308 -1.696,-0.851 -5.252,1.39 -6.161,1.36 -0.56,-0.018 -1.063,-1.069 -0.334,-1.683 1.084,-0.913 1.931,0.212 1.931,0.212 z m -79.475,44.732 4.814,-3.336 2.691,3.883 -4.307,2.985 c -0.739,0.513 -1.236,1.312 -1.38,2.221 -0.144,0.909 0.076,1.855 0.612,2.628 0.007,0.01 0.014,0.021 0.022,0.032 1.128,1.627 3.304,2.072 4.861,0.992 l 4.277,-2.964 2.726,3.934 c 0,0 -2.3,1.594 -4.831,3.348 -1.735,1.202 -3.897,1.635 -6.012,1.203 -2.115,-0.432 -4.01,-1.693 -5.266,-3.506 -0.005,-0.007 -0.01,-0.013 -0.014,-0.02 -1.26,-1.818 -1.778,-4.04 -1.439,-6.178 0.339,-2.138 1.507,-4.016 3.246,-5.222 z m 11.971,-2.271 4.194,6.052 c 1.938,2.271 4.043,-0.097 2.636,-2.126 l -4.063,-5.862 3.565,-2.453 c 2.204,3.23 4.299,6.535 6.829,9.538 l -3.57,2.475 c -0.166,-0.152 -0.321,-0.314 -0.463,-0.487 -0.136,-0.165 -0.26,-0.341 -0.373,-0.527 -0.342,3.884 -4.788,5.41 -7.444,2.685 l -4.778,-6.893 z m 23.886,-2.302 -3.467,2.403 -4.194,-6.052 c -1.938,-2.271 -4.042,0.097 -2.636,2.126 l 4.063,5.862 -3.565,2.453 c -2.204,-3.23 -4.299,-6.535 -6.829,-9.539 l 3.382,-2.344 c 0.167,0.152 0.407,0.373 0.549,0.546 0.136,0.166 0.598,0.684 0.711,0.871 -0.298,-3.677 3.6,-5.743 5.967,-4.137 -0.151,-4.243 4.682,-6.611 7.553,-3.456 l 4.777,6.893 -3.466,2.402 -4.194,-6.052 c -2.506,-2.738 -3.649,1.282 -2.921,1.864 z m 17.434,-12.083 -3.466,2.402 -4.195,-6.052 c -1.937,-2.27 -4.042,0.098 -2.635,2.126 l 4.063,5.862 -3.566,2.453 c -2.203,-3.23 -4.298,-6.535 -6.829,-9.538 l 3.383,-2.345 c 0.166,0.152 0.407,0.374 0.549,0.546 0.136,0.166 0.598,0.685 0.71,0.871 -0.298,-3.677 3.601,-5.743 5.968,-4.136 -0.152,-4.244 4.681,-6.612 7.553,-3.457 l 4.777,6.893 -3.466,2.403 -4.195,-6.052 c -2.505,-2.738 -3.649,1.281 -2.92,1.864 z m 4.27,-17.231 6.69,9.653 -3.433,2.379 -6.69,-9.653 z m 4.503,-3.147 c 0.166,0.152 0.321,0.314 0.463,0.487 0.136,0.165 0.26,0.341 0.373,0.527 0.342,-3.884 4.788,-5.41 7.444,-2.685 l 4.778,6.893 -3.467,2.402 -4.194,-6.052 c -1.938,-2.271 -4.043,0.097 -2.636,2.126 l 4.063,5.862 -3.565,2.453 c -2.204,-3.23 -4.299,-6.535 -6.829,-9.538 z m -7.404,-1.04 1.769,2.553 -3.433,2.379 -1.769,-2.552 z" />
      </g>
      <g
         id="layer1-6"
         transform="translate(107.54637,65.956845)">
        <g
           transform="matrix(0.300976,0,0,0.300976,4.8831911,5.8311008)"
           id="g12903"
           style="fill:#707070;fill-opacity:1">
          <path
             id="rect5170"
             transform="scale(0.26458333)"
             d="m 150.51367,166.91602 v 24.875 83.21093 h 25.75781 69.19532 v -23.61328 h -69.19532 v -19.82422 h 64.39649 v -20.45507 h -64.39649 v -19.31836 h 69.19532 v -24.875 h -69.19532 z"
             style="opacity:1;fill:#707070;fill-opacity:1;stroke:none;stroke-width:1.51181102;stroke-linecap:round;stroke-linejoin:round;stroke-miterlimit:4;stroke-dasharray:1.51181099, 3.02362201;stroke-dashoffset:0;stroke-opacity:1" />
          <path
             id="rect5170-0"
             d="m 107.06796,44.163235 v 6.58151 22.016226 h 6.81508 18.30793 V 66.51329 h -18.30793 v -5.245158 h 17.03824 v -5.412071 h -17.03824 v -5.111316 h 18.30793 v -6.58151 h -18.30793 z"
             style="opacity:1;fill:#707070;fill-opacity:1;stroke:none;stroke-width:0.40000001;stroke-linecap:round;stroke-linejoin:round;stroke-miterlimit:4;stroke-dasharray:0.39999999, 0.79999999;stroke-dashoffset:0;stroke-opacity:1" />
          <path
             id="rect5194"
             transform="scale(0.26458333)"
             d="m 264.4082,166.91602 v 108.08593 h 24.24219 v -81.67773 l 51.64453,81.67773 h 25.77735 15.38671 V 166.91602 H 357.7207 v 80.9375 l -51.64843,-80.9375 h -17.42188 z"
             style="opacity:1;fill:#707070;fill-opacity:1;stroke:none;stroke-width:1.51181102;stroke-linecap:round;stroke-linejoin:round;stroke-miterlimit:4;stroke-dasharray:1.51181099, 3.02362201;stroke-dashoffset:0;stroke-opacity:1" />
          <path
             id="rect12840"
             transform="scale(0.26458333)"
             d="m 518.71289,166.91602 v 108.08593 h 25.75977 v -27.14843 h 44.82422 c 4.46449,3.4e-4 9.4707,3.53583 9.4707,10.48066 v 16.66777 h 26.51758 v -27.14843 c -2.7341,-10.64287 -10.25056,-12.32121 -18.14258,-13.29297 v -0.0859 c 8.84492,-1.82931 18.16238,-7.90178 18.14258,-27.2793 3e-5,-23.43989 -10e-4,-40.27929 -26.51758,-40.27929 h -54.29492 z m 25.75977,26.4082 h 46.46659 c 3.31427,-9.6e-4 8.08087,2.95304 7.82833,6.29485 v 17.5514 c 0.0578,5.42954 -4.45882,5.42954 -7.44953,5.42914 h -46.84539 z"
             style="opacity:1;fill:#707070;fill-opacity:1;stroke:none;stroke-width:1.51181102;stroke-linecap:round;stroke-linejoin:round;stroke-miterlimit:4;stroke-dasharray:1.51181099, 3.02362201;stroke-dashoffset:0;stroke-opacity:1" />
          <path
             id="path12855"
             transform="scale(0.26458333)"
             d="m 683.75,166.91602 -47.32227,108.08593 h 29.28711 l 8.21289,-19.08984 11.04297,0.0449 -0.0156,0.13477 16.36133,-0.0664 16.36132,0.0664 -0.0156,-0.13477 11.04297,-0.0449 8.21289,19.08984 h 29.28711 L 718.88281,166.91602 H 707.5 695.13281 Z m 17.97461,24.875 17.85742,42.06836 h -36.51758 z"
             style="fill:#707070;fill-opacity:1;stroke:none;stroke-width:0.99999994px;stroke-linecap:butt;stroke-linejoin:miter;stroke-opacity:1" />
          <path
             id="path12876"
             d="m 28.063301,62.203718 h -8.819895 v -5.679477 l 15.635266,0.06682 c -0.02642,3.98073 0.442422,7.662737 -0.534539,11.960313 -0.623628,3.073599 -2.62815,4.677216 -6.013563,4.81085 -6.279642,0.27056 -11.726618,0.01124 -17.038433,-0.334087 C 8.1357707,72.480713 5.6201202,70.789157 4.9444862,65.811857 4.4604866,60.870084 4.560067,55.831047 5.1449385,50.711128 5.7014277,46.141065 8.5768647,43.990773 13.229841,43.695305 h 14.365737 c 2.990707,0.625891 5.997035,1.230539 6.815373,4.810852 l 0.400905,5.412206 h -6.748555 v -1.202712 c -0.59119,-1.498963 -1.769788,-2.242687 -3.60814,-2.138156 h -9.42125 c -1.677999,0.423943 -2.774613,1.292475 -2.939965,2.873148 v 10.15624 c 0.296896,1.738979 1.520609,2.448163 2.939965,2.939965 h 10.356694 c 1.264886,-0.226018 2.694139,0.0849 2.672696,-4.34313 z"
             style="fill:#707070;fill-opacity:1;stroke:none;stroke-width:0.26458332px;stroke-linecap:butt;stroke-linejoin:miter;stroke-opacity:1" />
          <path
             id="path12876-5"
             d="m 226.37729,62.203718 c 4.43925,-0.102761 2.06016,-0.02637 6.3391,-0.03617 0.0501,3.566452 0.12113,3.165018 -0.0583,6.383821 -0.62362,3.073599 -2.62815,4.677217 -6.01356,4.810851 -6.27964,0.27056 -11.72662,0.01124 -17.03843,-0.334087 -3.15637,-0.547426 -5.67202,-2.238981 -6.34765,-7.216281 -0.484,-4.941773 -0.38442,-9.98081 0.20045,-15.100728 0.55649,-4.570064 3.43192,-6.720356 8.0849,-7.015824 h 14.36574 c 2.99071,0.625891 5.99703,1.230539 6.81537,4.810852 l 0.40091,5.412206 h -6.74856 v -1.202711 c -0.59119,-1.498963 -1.76979,-2.242688 -3.60814,-2.138157 h -9.42125 c -1.678,0.423943 -2.77461,1.292475 -2.93996,2.873148 v 10.15624 c 0.29689,1.738979 1.5206,2.448163 2.93996,2.939965 h 10.3567 c 1.26488,-0.226018 2.69413,0.0849 2.67269,-4.34313 z"
             style="fill:#707070;fill-opacity:1;stroke:none;stroke-width:0.26458332px;stroke-linecap:butt;stroke-linejoin:miter;stroke-opacity:1" />
          <path
             id="path12893"
             d="M 232.79176,77.037178 V 96.547854 L 3.1738257,87.410575 v -1.202712 z"
             style="fill:#707070;fill-opacity:1;stroke:none;stroke-width:0.26458332px;stroke-linecap:butt;stroke-linejoin:miter;stroke-opacity:1" />
        </g>
      </g>
      <g
         style="clip-rule:evenodd;fill-rule:evenodd;stroke-linejoin:round;stroke-miterlimit:1.41420996"
         id="g894"
         transform="matrix(0.26458333,0,0,0.26458333,210.0536,78.476505)">
        <path
           id="path883"
           style="fill:#707070"
           d="m 32.986,23.295 c 17.215,0 31.192,13.977 31.192,31.192 0,17.216 -13.977,31.192 -31.192,31.192 -17.215,0 -31.192,-13.976 -31.192,-31.192 0,-17.215 13.977,-31.192 31.192,-31.192 z m 0,0.858 c 16.742,0 30.334,13.592 30.334,30.334 0,16.742 -13.592,30.334 -30.334,30.334 -16.742,0 -30.334,-13.592 -30.334,-30.334 0,-16.742 13.592,-30.334 30.334,-30.334 z m 0,2.647 c 15.281,0 27.687,12.406 27.687,27.687 0,15.281 -12.406,27.687 -27.687,27.687 C 17.705,82.174 5.299,69.768 5.299,54.487 5.299,39.206 17.705,26.8 32.986,26.8 Z m 0,2.331 c 13.994,0 25.356,11.362 25.356,25.356 0,13.995 -11.362,25.356 -25.356,25.356 C 18.992,79.843 7.63,68.482 7.63,54.487 7.63,40.493 18.992,29.131 32.986,29.131 Z m 14.219,19.678 v 18.577 l -5.41,-5.346 v -6.267 l -3.23,-3.056 v 6.179 L 33.954,54.487 V 35.604 l 4.611,4.708 v 5.436 l 3.23,3.061 v -5.284 z m -6.353,9.423 v 3.943 l -5.391,5.211 V 63.764 Z M 18.954,48.809 v 18.577 l 5.41,-5.346 v -6.267 l 3.23,-3.056 v 6.179 l 4.611,-4.409 V 35.604 l -4.611,4.708 v 5.436 l -3.23,3.061 v -5.284 z m 6.353,9.423 v 3.943 l 5.391,5.211 v -3.622 z m 210.046,-6.557 0.001,-1.102 c -0.005,-0.09 -0.007,-0.18 -0.007,-0.27 0,-0.88 0,-1.796 0,-2.691 0,-1.601 0.637,-3.137 1.769,-4.27 1.133,-1.133 2.669,-1.769 4.27,-1.769 4.301,0 10.085,0 14.539,0 1.791,0 3.509,0.712 4.775,1.978 1.266,1.267 1.978,2.984 1.978,4.775 v 7.354 h -0.007 c 0.005,0.09 0.007,0.18 0.007,0.271 0,0.879 0,1.796 0,2.69 0,1.602 -0.636,3.138 -1.769,4.271 -1.132,1.132 -2.669,1.768 -4.27,1.768 -4.301,0 -10.085,0 -14.539,0 -1.791,0 -3.508,-0.711 -4.775,-1.977 -1.266,-1.267 -1.978,-2.985 -1.978,-4.776 l 0.001,-0.804 h -0.001 v -5.501 c 0.002,0.018 0.004,0.036 0.006,0.053 l -0.005,5.448 h 7.196 c 0.094,1.587 0.635,2.35 2.448,2.373 h 8.441 c 2.983,-0.024 3.493,-3.543 0,-3.532 h -10.889 c -4.576,-0.241 -6.895,-1.714 -7.191,-4.289 z M 212.281,41.573 225.069,57.697 V 41.573 h 6.665 V 63.962 H 221.487 L 208.92,48.026 v 15.936 h -6.787 V 41.573 Z m -24.213,7.159 c 0,-1.898 -0.754,-3.719 -2.096,-5.062 -1.343,-1.343 -3.164,-2.097 -5.063,-2.097 -4.759,0 -10.987,0 -15.762,0 -1.919,0 -3.76,0.763 -5.117,2.12 -1.358,1.357 -2.12,3.198 -2.12,5.117 0,2.828 0,6.042 0,8.78 0,3.519 2.853,6.372 6.372,6.372 5.144,0 12.344,0 17.472,0 1.675,0 3.281,-0.665 4.465,-1.849 1.184,-1.184 1.849,-2.79 1.849,-4.465 0,-2.776 0,-6.05 0,-8.916 z m -51.457,7.093 7.777,-14.252 h 10.098 v 22.389 h -6.394 V 48.294 l -9.018,15.668 h -5.045 l -8.964,-15.668 v 15.668 h -6.431 V 41.573 h 10.119 z M 114.815,41.573 v 22.389 h -6.599 V 41.573 Z m 83.398,0 v 22.389 h -6.599 V 41.573 Z M 83.382,49.427 h 14.127 v -7.854 h 6.714 V 63.962 H 97.509 V 55.586 H 83.382 v 8.178 H 76.61 V 41.573 h 6.772 z m 213.01,14.535 h -7.274 l -2.187,-4.023 h -13.528 l -2.187,4.023 h -7.274 l 10.813,-22.394 h 10.824 z M 181.186,50.003 c 0,-1.521 -1.233,-2.754 -2.753,-2.754 -2.987,0 -7.722,0 -10.67,0 -1.467,0 -2.656,1.189 -2.656,2.656 0,1.943 0,4.55 0,6.396 0,1.252 1.015,2.267 2.267,2.267 2.877,0 7.839,0 10.967,0 1.572,0 2.845,-1.274 2.845,-2.845 0,-1.752 0,-3.986 0,-5.72 z m 94.697,5.374 h 8.567 l -4.283,-7.878 z m -22.85,-8.619 h -8.441 c -2.983,0.023 -3.492,3.542 0,3.531 h 10.889 c 4.608,0.243 6.926,1.734 7.197,4.342 v -5.5 h -7.197 c -0.094,-1.588 -0.635,-2.35 -2.448,-2.373 z" />
      </g>
      <g
         style="clip-rule:evenodd;fill-rule:evenodd;stroke-linejoin:round;stroke-miterlimit:1.41420996"
         id="g907"
         transform="matrix(0.26458333,0,0,0.26458333,315.43482,79.663691)">
        <path
           id="path896"
           style="fill:#707070"
           d="m 196.018,59.238 h 1.71 v 2.78 c 1.424,-1.956 3.608,-3.209 6.055,-3.209 4.286,0 7.765,3.843 7.765,8.577 0,4.733 -3.479,8.576 -7.765,8.576 -2.447,0 -4.631,-1.253 -6.055,-3.209 v 12.072 h -1.71 z M 26.77,76.707 H 3.676 V 52.988 H 26.77 Z M 12.037,73.192 c 0.798,0 1.445,0.647 1.445,1.445 0,0.798 -0.647,1.446 -1.445,1.446 -0.798,0 -1.446,-0.648 -1.446,-1.446 0,-0.798 0.648,-1.445 1.446,-1.445 z M 247.584,50 v 12.072 c 1.424,-1.956 3.608,-3.209 6.055,-3.209 4.286,0 7.765,3.843 7.765,8.577 0,4.733 -3.479,8.576 -7.765,8.576 -2.447,0 -4.631,-1.253 -6.055,-3.209 v 2.78 h -1.71 V 50 Z M 122.658,67.6 c 0,0.005 0.231,7.218 6.353,6.907 4.049,-0.207 5.846,-3.718 5.846,-3.718 l 1.197,0.821 c 0,0 -2.318,4.335 -7.043,4.352 -2.581,0.009 -7.916,-1.964 -7.916,-8.362 0,-5.601 2.662,-8.362 7.916,-8.362 8.069,0 7.485,8.356 7.485,8.362 z m 159.819,0 c 0,0.005 0.231,7.218 6.353,6.907 4.049,-0.207 5.846,-3.718 5.846,-3.718 l 1.197,0.821 c 0,0 -2.318,4.335 -7.043,4.352 -2.581,0.009 -7.916,-1.964 -7.916,-8.362 0,-5.601 2.662,-8.362 7.916,-8.362 8.069,0 7.485,8.356 7.485,8.362 z M 77.51,75.962 H 75.745 V 59.238 H 77.51 Z M 110.55,60.71 h -1.75 v -1.472 h 1.75 v -6.762 h 1.61 v 6.762 h 2.746 v 1.472 h -2.746 v 15.252 h -1.61 z m 110.047,0 h -1.749 v -1.472 h 1.749 v -6.762 h 1.61 v 6.762 h 2.747 v 1.472 h -2.747 v 15.252 h -1.61 z m -58.964,15.252 h -1.677 V 59.238 h 1.677 v 1.793 c 1.469,-2.212 3.202,-2.694 5.146,-1.793 l -0.773,1.354 c -2.536,-0.824 -3.845,0.666 -4.373,3.627 z m -106.798,0 H 53.316 V 63.475 c 0,-0.125 0,-4.237 0,-4.237 h 1.519 v 1.221 c 3.066,-2.333 9.712,-1.321 9.795,3.016 V 75.962 H 63.12 V 64.58 c -0.057,-4.888 -8.194,-5.533 -8.285,0 z m 92.146,0 h -1.677 V 59.238 h 1.677 v 1.793 c 1.469,-2.212 3.202,-2.694 5.146,-1.793 l -0.773,1.354 c -2.536,-0.824 -3.845,0.666 -4.373,3.627 z m -57.103,0 H 88.359 V 63.475 c 0,-0.125 0,-4.237 0,-4.237 h 1.519 v 1.221 c 3.066,-2.333 9.712,-1.321 9.795,3.016 v 12.487 h -1.51 V 64.58 c -0.057,-4.888 -8.194,-5.533 -8.285,0 z m 145.045,0 h -1.764 V 59.238 h 1.764 z m 35.401,-23.486 h 1.704 v 23.486 h -1.704 z M 31.646,59.238 h 1.519 V 70.62 c 0.091,5.533 8.228,4.888 8.285,0 V 59.238 h 1.51 v 12.487 c -0.108,5.643 -11.324,5.656 -11.314,0 z m 142.757,0 h 1.519 V 70.62 c 0.091,5.533 8.229,4.888 8.285,0 V 59.238 h 1.51 v 12.487 c -0.108,5.643 -11.324,5.656 -11.314,0 z m 73.181,5.91 c 0.857,-2.815 3.247,-4.843 6.058,-4.843 3.53,0 6.395,3.197 6.395,7.135 0,3.938 -2.865,7.135 -6.395,7.135 -2.811,0 -5.201,-2.028 -6.058,-4.843 -0.372,-1.526 -0.362,-3.054 0,-4.584 z m -49.856,4.529 c 0.857,2.815 3.247,4.843 6.058,4.843 3.53,0 6.395,-3.197 6.395,-7.135 0,-3.938 -2.865,-7.135 -6.395,-7.135 -2.811,0 -5.201,2.028 -6.058,4.843 -0.372,1.526 -0.362,3.054 0,4.584 z m -187.28,1.048 c 0.616,0 1.115,0.5 1.115,1.115 0,0.616 -0.499,1.115 -1.115,1.115 -0.615,0 -1.115,-0.499 -1.115,-1.115 0,-0.615 0.5,-1.115 1.115,-1.115 z m 3.47,0 c 0.616,0 1.116,0.5 1.116,1.115 0,0.616 -0.5,1.115 -1.116,1.115 -0.615,0 -1.115,-0.499 -1.115,-1.115 0,-0.615 0.5,-1.115 1.115,-1.115 z m -2.024,-3.031 c 0.798,0 1.445,0.648 1.445,1.445 0,0.798 -0.647,1.446 -1.445,1.446 -0.798,0 -1.446,-0.648 -1.446,-1.446 0,-0.797 0.648,-1.445 1.446,-1.445 z m 3.837,0.528 c 0.616,0 1.115,0.5 1.115,1.115 0,0.616 -0.499,1.116 -1.115,1.116 -0.615,0 -1.115,-0.5 -1.115,-1.116 0,-0.615 0.5,-1.115 1.115,-1.115 z m -7.036,0 c 0.501,0 0.907,0.406 0.907,0.907 0,0.5 -0.406,0.906 -0.907,0.906 -0.5,0 -0.906,-0.406 -0.906,-0.906 0,-0.501 0.406,-0.907 0.906,-0.907 z m 5.223,-2.098 c 0.501,0 0.907,0.406 0.907,0.906 0,0.5 -0.406,0.906 -0.907,0.906 -0.5,0 -0.906,-0.406 -0.906,-0.906 0,-0.5 0.406,-0.906 0.906,-0.906 z m 3.704,-0.158 c 0.544,0 0.985,0.442 0.985,0.985 0,0.544 -0.441,0.985 -0.985,0.985 -0.543,0 -0.985,-0.441 -0.985,-0.985 0,-0.543 0.442,-0.985 0.985,-0.985 z m -7.52,-0.503 c 0.615,0 1.115,0.5 1.115,1.116 0,0.615 -0.5,1.115 -1.115,1.115 -0.616,0 -1.116,-0.5 -1.116,-1.115 0,-0.616 0.5,-1.116 1.116,-1.116 z m -2.727,0.995 c 0.329,0 0.596,0.267 0.596,0.596 0,0.329 -0.267,0.596 -0.596,0.596 -0.329,0 -0.596,-0.267 -0.596,-0.596 0,-0.329 0.267,-0.596 0.596,-0.596 z m 115.257,-0.526 h 12.255 c 0,0 -0.86,-5.586 -6.087,-5.586 -5.227,0 -6.168,5.586 -6.168,5.586 z m 159.819,0 h 12.255 c 0,0 -0.86,-5.586 -6.087,-5.586 -5.227,0 -6.168,5.586 -6.168,5.586 z M 15.731,63.941 c 0.5,0 0.906,0.406 0.906,0.907 0,0.5 -0.406,0.906 -0.906,0.906 -0.5,0 -0.906,-0.406 -0.906,-0.906 0,-0.501 0.406,-0.907 0.906,-0.907 z m -3.827,-0.217 c 0.5,0 0.906,0.406 0.906,0.907 0,0.5 -0.406,0.906 -0.906,0.906 -0.501,0 -0.907,-0.406 -0.907,-0.906 0,-0.501 0.406,-0.907 0.907,-0.907 z m -5.467,0.528 c 0.329,0 0.596,0.267 0.596,0.596 0,0.329 -0.267,0.596 -0.596,0.596 -0.329,0 -0.596,-0.267 -0.596,-0.596 0,-0.329 0.267,-0.596 0.596,-0.596 z M 19.365,63.76 c 0.417,0 0.757,0.339 0.757,0.757 0,0.418 -0.34,0.757 -0.757,0.757 -0.418,0 -0.758,-0.339 -0.758,-0.757 0,-0.418 0.34,-0.757 0.758,-0.757 z M 8.545,63.331 c 0.501,0 0.907,0.406 0.907,0.906 0,0.5 -0.406,0.906 -0.907,0.906 -0.5,0 -0.906,-0.406 -0.906,-0.906 0,-0.5 0.406,-0.906 0.906,-0.906 z m 1.574,-1.121 c 0.418,0 0.757,0.339 0.757,0.757 0,0.418 -0.339,0.757 -0.757,0.757 -0.418,0 -0.757,-0.339 -0.757,-0.757 0,-0.418 0.339,-0.757 0.757,-0.757 z M 5.46,62.532 c 0.329,0 0.596,0.267 0.596,0.596 0,0.329 -0.267,0.596 -0.596,0.596 -0.329,0 -0.596,-0.267 -0.596,-0.596 0,-0.329 0.267,-0.596 0.596,-0.596 z m 12.162,-0.539 c 0.418,0 0.757,0.339 0.757,0.757 0,0.417 -0.339,0.757 -0.757,0.757 -0.417,0 -0.757,-0.34 -0.757,-0.757 0,-0.418 0.34,-0.757 0.757,-0.757 z m 3.096,0 c 0.329,0 0.596,0.267 0.596,0.596 0,0.329 -0.267,0.596 -0.596,0.596 -0.329,0 -0.596,-0.267 -0.596,-0.596 0,-0.329 0.267,-0.596 0.596,-0.596 z M 7.255,61.34 c 0.395,0 0.716,0.321 0.716,0.717 0,0.395 -0.321,0.716 -0.716,0.716 -0.396,0 -0.717,-0.321 -0.717,-0.716 0,-0.396 0.321,-0.717 0.717,-0.717 z m 1.511,-0.548 c 0.329,0 0.596,0.267 0.596,0.596 0,0.329 -0.267,0.596 -0.596,0.596 -0.329,0 -0.596,-0.267 -0.596,-0.596 0,-0.329 0.267,-0.596 0.596,-0.596 z m 10.209,-0.294 c 0.329,0 0.597,0.267 0.597,0.596 0,0.329 -0.268,0.596 -0.597,0.596 -0.328,0 -0.596,-0.267 -0.596,-0.596 0,-0.329 0.268,-0.596 0.596,-0.596 z m 2.775,-0.156 c 0.329,0 0.596,0.267 0.596,0.596 0,0.329 -0.267,0.596 -0.596,0.596 -0.329,0 -0.596,-0.267 -0.596,-0.596 0,-0.329 0.267,-0.596 0.596,-0.596 z M 6.162,60.106 c 0.341,0 0.617,0.276 0.617,0.617 0,0.34 -0.276,0.617 -0.617,0.617 -0.341,0 -0.617,-0.277 -0.617,-0.617 0,-0.341 0.276,-0.617 0.617,-0.617 z m 14.224,-0.8 c 0.329,0 0.596,0.267 0.596,0.596 0,0.329 -0.267,0.596 -0.596,0.596 -0.329,0 -0.596,-0.267 -0.596,-0.596 0,-0.329 0.267,-0.596 0.596,-0.596 z m 2.369,-0.226 c 0.299,0 0.541,0.243 0.541,0.542 0,0.299 -0.242,0.541 -0.541,0.541 -0.299,0 -0.542,-0.242 -0.542,-0.541 0,-0.299 0.243,-0.542 0.542,-0.542 z M 5.197,58.889 c 0.259,0 0.469,0.21 0.469,0.469 0,0.259 -0.21,0.469 -0.469,0.469 -0.259,0 -0.469,-0.21 -0.469,-0.469 0,-0.259 0.21,-0.469 0.469,-0.469 z m 16.68,-1.034 c 0.259,0 0.469,0.211 0.469,0.47 0,0.259 -0.21,0.469 -0.469,0.469 -0.259,0 -0.47,-0.21 -0.47,-0.469 0,-0.259 0.211,-0.47 0.47,-0.47 z m 1.889,-0.257 c 0.259,0 0.469,0.21 0.469,0.47 0,0.259 -0.21,0.469 -0.469,0.469 -0.259,0 -0.47,-0.21 -0.47,-0.469 0,-0.26 0.211,-0.47 0.47,-0.47 z m -0.939,-0.939 c 0.259,0 0.469,0.21 0.469,0.469 0,0.26 -0.21,0.47 -0.469,0.47 -0.259,0 -0.47,-0.21 -0.47,-0.47 0,-0.259 0.211,-0.469 0.47,-0.469 z m 1.932,-0.134 c 0.202,0 0.366,0.164 0.366,0.366 0,0.201 -0.164,0.365 -0.366,0.365 -0.202,0 -0.366,-0.164 -0.366,-0.365 0,-0.202 0.164,-0.366 0.366,-0.366 z m -0.731,-0.731 c 0.202,0 0.365,0.164 0.365,0.366 0,0.201 -0.163,0.365 -0.365,0.365 -0.202,0 -0.366,-0.164 -0.366,-0.365 0,-0.202 0.164,-0.366 0.366,-0.366 z m 1.66,-0.198 c 0.201,0 0.365,0.164 0.365,0.366 0,0.202 -0.164,0.365 -0.365,0.365 -0.202,0 -0.366,-0.163 -0.366,-0.365 0,-0.202 0.164,-0.366 0.366,-0.366 z m -0.731,-0.884 c 0.201,0 0.365,0.164 0.365,0.366 0,0.201 -0.164,0.365 -0.365,0.365 -0.202,0 -0.366,-0.164 -0.366,-0.365 0,-0.202 0.164,-0.366 0.366,-0.366 z m 209.084,-2.236 c 0.729,0 1.321,0.593 1.321,1.324 0,0.731 -0.592,1.325 -1.321,1.325 -0.73,0 -1.322,-0.594 -1.322,-1.325 0,-0.731 0.592,-1.324 1.322,-1.324 z m -157.414,0 c 0.73,0 1.322,0.593 1.322,1.324 0,0.731 -0.592,1.325 -1.322,1.325 -0.729,0 -1.321,-0.594 -1.321,-1.325 0,-0.731 0.592,-1.324 1.321,-1.324 z m -50.712,1.505 c 0.202,0 0.366,0.164 0.366,0.366 0,0.201 -0.164,0.365 -0.366,0.365 -0.201,0 -0.365,-0.164 -0.365,-0.365 0,-0.202 0.164,-0.366 0.365,-0.366 z M 208.021,16.626 h 2.089 l 8.648,25.925 11.394,-27.376 11.41,27.376 8.312,-25.925 h 2.184 l -10.496,32.617 -11.41,-28.019 -11.948,28.019 z m -49.562,16.469 v 15.013 h -2.73 V 16.626 h 10.525 c 0,0 10.354,-0.302 10.354,7.577 0,8.443 -10.337,8.891 -10.354,8.892 z m 112.66,15.013 H 254.391 V 16.626 h 16.728 v 1.645 H 256.973 V 30.17 h 14.146 v 2.197 h -14.146 v 13.286 h 14.146 z M 107.953,16.626 h 17.398 v 7.369 h -8.531 v 5.004 h 7.724 v 6.983 h -7.724 v 4.824 h 8.531 v 7.302 h -17.398 z m 27.551,31.482 H 127.17 V 16.626 h 12.168 c 0.01,0.002 8.109,2.382 8.864,8.292 0.92,7.196 -5.183,10.655 -5.183,10.655 l 8.656,12.535 h -9.293 l -6.878,-9.316 z M 68.888,27.478 h 8.455 V 16.626 h 8.548 V 48.108 H 77.343 V 36.266 H 68.888 V 48.108 H 60.194 V 16.626 h 8.694 z M 12.255,26.061 20.223,16.626 H 31.381 L 19.046,31.779 32.976,48.108 H 21.74 L 12.255,37.036 V 48.108 H 3.676 V 16.626 h 8.579 z m 75.858,-9.435 h 8.563 v 23.286 h 9.341 v 8.196 H 88.113 Z M 276.49,48.108 h -2.637 V 16.626 h 8.627 c 16.07,-0.57 17.19,16.284 0,16.478 l 14.459,15.004 h -3.183 L 279.045,33.104 H 276.49 Z M 193.601,15.822 c 8.703,0 15.769,7.233 15.769,16.143 0,8.91 -7.066,16.143 -15.769,16.143 -8.703,0 -15.769,-7.233 -15.769,-16.143 0,-8.91 7.066,-16.143 15.769,-16.143 z m -150.73,0.129 c 8.867,0 16.065,7.205 16.065,16.079 0,8.874 -7.198,16.078 -16.065,16.078 -8.866,0 -16.064,-7.204 -16.064,-16.078 0,-8.874 7.198,-16.079 16.064,-16.079 z m 150.57,2.166 c 7.525,0 13.635,6.287 13.635,14.031 0,7.744 -6.11,14.031 -13.635,14.031 -7.525,0 -13.635,-6.287 -13.635,-14.031 0,-7.744 6.11,-14.031 13.635,-14.031 z M 42.739,23.99 c 3.963,0 7.18,3.603 7.18,8.04 0,4.437 -3.217,8.039 -7.18,8.039 -3.963,0 -7.181,-3.602 -7.181,-8.039 0,-4.437 3.218,-8.04 7.181,-8.04 z m 241.512,-5.444 h -7.761 v 12.369 h 7.761 c 0,0 7.654,-0.848 7.654,-6.264 0,-5.411 -7.638,-6.103 -7.654,-6.105 z M 165.61,18.423 h -7.151 v 12.458 h 7.151 c 0,0 8.271,-0.781 8.271,-6.232 0,-5.446 -8.254,-6.224 -8.271,-6.226 z m -27.103,5.622 h -3.003 v 5.916 h 3.003 c 3.312,-0.632 2.695,-5.651 0,-5.916 z" />
      </g>
    </g>
  </g>
</svg>
