<svg version="1.1" class="highcharts-root" style="font-family:&quot;Lucida Grande&quot;, &quot;Lucida Sans Unicode&quot;, Arial, Helvetica, sans-serif;font-size:12px;" xmlns="http://www.w3.org/2000/svg" width="500" height="400" viewBox="0 0 500 400"><desc>Created with Highcharts 8.2.0</desc><defs><clipPath id="highcharts-gbbiedr-1-"><rect x="0" y="0" width="417" height="190" fill="none"></rect></clipPath></defs><rect fill="rgba(0,0,0,0)" class="highcharts-background" x="0" y="0" width="500" height="400" rx="0" ry="0"></rect><rect fill="none" class="highcharts-plot-background" x="73" y="67" width="417" height="190"></rect><g class="highcharts-grid highcharts-xaxis-grid" data-z-index="1"><path fill="none" data-z-index="1" class="highcharts-grid-line" d="M 142.5 67 L 142.5 257" opacity="1"></path><path fill="none" data-z-index="1" class="highcharts-grid-line" d="M 211.5 67 L 211.5 257" opacity="1"></path><path fill="none" data-z-index="1" class="highcharts-grid-line" d="M 281.5 67 L 281.5 257" opacity="1"></path><path fill="none" data-z-index="1" class="highcharts-grid-line" d="M 350.5 67 L 350.5 257" opacity="1"></path><path fill="none" data-z-index="1" class="highcharts-grid-line" d="M 420.5 67 L 420.5 257" opacity="1"></path><path fill="none" data-z-index="1" class="highcharts-grid-line" d="M 489.5 67 L 489.5 257" opacity="1"></path><path fill="none" data-z-index="1" class="highcharts-grid-line" d="M 72.5 67 L 72.5 257" opacity="1"></path></g><g class="highcharts-grid highcharts-yaxis-grid" data-z-index="1"><path fill="none" stroke="#e6e6e6" stroke-width="1" data-z-index="1" class="highcharts-grid-line" d="M 73 257.5 L 490 257.5" opacity="1"></path><path fill="none" stroke="#e6e6e6" stroke-width="1" data-z-index="1" class="highcharts-grid-line" d="M 73 210.5 L 490 210.5" opacity="1"></path><path fill="none" stroke="#e6e6e6" stroke-width="1" data-z-index="1" class="highcharts-grid-line" d="M 73 162.5 L 490 162.5" opacity="1"></path><path fill="none" stroke="#e6e6e6" stroke-width="1" data-z-index="1" class="highcharts-grid-line" d="M 73 115.5 L 490 115.5" opacity="1"></path><path fill="none" stroke="#e6e6e6" stroke-width="1" data-z-index="1" class="highcharts-grid-line" d="M 73 66.5 L 490 66.5" opacity="1"></path></g><rect fill="none" class="highcharts-plot-border" data-z-index="1" x="73" y="67" width="417" height="190"></rect><g class="highcharts-axis highcharts-xaxis" data-z-index="2"><path fill="none" class="highcharts-axis-line" stroke="#ccd6eb" stroke-width="1" data-z-index="7" d="M 73 257.5 L 490 257.5"></path></g><g class="highcharts-axis highcharts-yaxis" data-z-index="2"><text x="23.53333282470703" data-z-index="7" text-anchor="middle" transform="translate(0,0) rotate(270 23.53333282470703 162)" class="highcharts-axis-title" style="color:#666666;fill:#666666;" y="162"><tspan>Power consumption (watts)</tspan></text><path fill="none" class="highcharts-axis-line" data-z-index="7" d="M 73 67 L 73 257"></path></g><g class="highcharts-series-group" data-z-index="3"><g class="highcharts-series highcharts-series-0 highcharts-column-series highcharts-color-0 highcharts-tracker" data-z-index="0.1" opacity="1" transform="translate(73,67) scale(1 1)" clip-path="url(#highcharts-gbbiedr-1-)"><rect x="15.5" y="185.5" width="17" height="5" fill="#7cb5ec" stroke="#ffffff" stroke-width="1" opacity="1" class="highcharts-point highcharts-color-0"></rect><rect x="84.5" y="184.5" width="17" height="6" fill="#7cb5ec" stroke="#ffffff" stroke-width="1" opacity="1" class="highcharts-point highcharts-color-0"></rect><rect x="154.5" y="185.5" width="17" height="5" fill="#7cb5ec" stroke="#ffffff" stroke-width="1" opacity="1" class="highcharts-point highcharts-color-0"></rect><rect x="223.5" y="182.5" width="17" height="8" fill="#7cb5ec" stroke="#ffffff" stroke-width="1" opacity="1" class="highcharts-point highcharts-color-0"></rect><rect x="293.5" y="166.5" width="17" height="24" fill="#7cb5ec" stroke="#ffffff" stroke-width="1" opacity="1" class="highcharts-point highcharts-color-0"></rect><rect x="362.5" y="183.5" width="17" height="7" fill="#7cb5ec" stroke="#ffffff" stroke-width="1" opacity="1" class="highcharts-point highcharts-color-0"></rect></g><g class="highcharts-markers highcharts-series-0 highcharts-column-series highcharts-color-0" data-z-index="0.1" opacity="1" transform="translate(73,67) scale(1 1)" clip-path="none"></g><g class="highcharts-series highcharts-series-1 highcharts-column-series highcharts-color-1 highcharts-tracker" data-z-index="0.1" opacity="1" transform="translate(73,67) scale(1 1)" clip-path="url(#highcharts-gbbiedr-1-)"><rect x="36.5" y="147.5" width="17" height="43" fill="#434348" stroke="#ffffff" stroke-width="1" opacity="1" class="highcharts-point highcharts-color-1"></rect><rect x="105.5" y="165.5" width="17" height="25" fill="#434348" stroke="#ffffff" stroke-width="1" opacity="1" class="highcharts-point highcharts-color-1"></rect><rect x="175.5" y="165.5" width="17" height="25" fill="#434348" stroke="#ffffff" stroke-width="1" opacity="1" class="highcharts-point highcharts-color-1"></rect><rect x="244.5" y="100.5" width="17" height="90" fill="#434348" stroke="#ffffff" stroke-width="1" opacity="1" class="highcharts-point highcharts-color-1"></rect><rect x="314.5" y="54.5" width="17" height="136" fill="rgb(67,67,72)" stroke="#ffffff" stroke-width="1" opacity="1" class="highcharts-point highcharts-color-1"></rect><rect x="383.5" y="161.5" width="17" height="29" fill="#434348" stroke="#ffffff" stroke-width="1" opacity="1" class="highcharts-point highcharts-color-1"></rect></g><g class="highcharts-markers highcharts-series-1 highcharts-column-series highcharts-color-1" data-z-index="0.1" opacity="1" transform="translate(73,67) scale(1 1)" clip-path="none"></g></g><text x="250" text-anchor="middle" class="highcharts-title" data-z-index="4" style="color:#333333;font-size:18px;fill:#333333;" y="24"><tspan>Comparison of power consumption while idle vs at</tspan><tspan dy="21" x="250">100% work load</tspan></text><text x="250" text-anchor="middle" class="highcharts-subtitle" data-z-index="4" style="color:#666666;fill:#666666;" y="66"></text><text x="10" text-anchor="start" class="highcharts-caption" data-z-index="4" style="color:#666666;fill:#666666;" y="397"></text><g class="highcharts-legend" data-z-index="7" transform="translate(137,359)"><rect fill="none" class="highcharts-legend-box" rx="0" ry="0" x="0" y="0" width="225" height="26" visibility="visible"></rect><g data-z-index="1"><g><g class="highcharts-legend-item highcharts-column-series highcharts-color-0 highcharts-series-0" data-z-index="1" transform="translate(8,3)"><text x="21" style="color:#333333;cursor:pointer;font-size:12px;font-weight:bold;fill:#333333;" text-anchor="start" data-z-index="2" y="15"><tspan>Idle (avg)</tspan></text><rect x="2" y="4" width="12" height="12" fill="#7cb5ec" rx="6" ry="6" class="highcharts-point" data-z-index="3"></rect></g><g class="highcharts-legend-item highcharts-column-series highcharts-color-1 highcharts-series-1" data-z-index="1" transform="translate(101.66666793823242,3)"><text x="21" y="15" style="color:#333333;cursor:pointer;font-size:12px;font-weight:bold;fill:#333333;" text-anchor="start" data-z-index="2"><tspan>100% Load (avg)</tspan></text><rect x="2" y="4" width="12" height="12" fill="#434348" rx="6" ry="6" class="highcharts-point" data-z-index="3"></rect></g></g></g></g><g class="highcharts-axis-labels highcharts-xaxis-labels" data-z-index="7"><text x="110.34272486435069" style="color:#666666;cursor:default;font-size:11px;fill:#666666;" text-anchor="end" transform="translate(0,0) rotate(-45 110.34272486435069 273)" y="273" opacity="1"><tspan>Dell PowerEdge</tspan></text><text x="179.84272486435069" style="color:#666666;cursor:default;font-size:11px;fill:#666666;" text-anchor="end" transform="translate(0,0) rotate(-45 179.84272486435069 273)" y="273" opacity="1"><tspan>CISCO VCS</tspan></text><text x="249.34272486435066" style="color:#666666;cursor:default;font-size:11px;fill:#666666;" text-anchor="end" transform="translate(0,0) rotate(-45 249.34272486435066 273)" y="273" opacity="1"><tspan>IBM System</tspan></text><text x="318.84272486435066" style="color:#666666;cursor:default;font-size:11px;fill:#666666;" text-anchor="end" transform="translate(0,0) rotate(-45 318.84272486435066 273)" y="273" opacity="1"><tspan>HPE ProLiant</tspan></text><text x="388.34272486435066" style="color:#666666;cursor:default;font-size:11px;fill:#666666;" text-anchor="end" transform="translate(0,0) rotate(-45 388.34272486435066 273)" y="273" opacity="1"><tspan>Lenovo ThinkSystem</tspan></text><text x="457.84272486435066" style="color:#666666;cursor:default;font-size:11px;fill:#666666;" text-anchor="end" transform="translate(0,0) rotate(-45 457.84272486435066 273)" y="273" opacity="1"><tspan>SuperMicro SYS</tspan></text></g><g class="highcharts-axis-labels highcharts-yaxis-labels" data-z-index="7"><text x="58" style="color:#666666;cursor:default;font-size:11px;fill:#666666;" text-anchor="end" transform="translate(0,0)" y="261" opacity="1">0</text><text x="58" style="color:#666666;cursor:default;font-size:11px;fill:#666666;" text-anchor="end" transform="translate(0,0)" y="214" opacity="1">500</text><text x="58" style="color:#666666;cursor:default;font-size:11px;fill:#666666;" text-anchor="end" transform="translate(0,0)" y="166" opacity="1">1000</text><text x="58" style="color:#666666;cursor:default;font-size:11px;fill:#666666;" text-anchor="end" transform="translate(0,0)" y="119" opacity="1">1500</text><text x="58" style="color:#666666;cursor:default;font-size:11px;fill:#666666;" text-anchor="end" transform="translate(0,0)" y="71" opacity="1">2000</text></g><g class="highcharts-label highcharts-tooltip highcharts-color-1" style="white-space:nowrap;pointer-events:none;" data-z-index="8" transform="translate(302,-9999)" opacity="0" visibility="hidden"><path fill="none" class="highcharts-label-box highcharts-tooltip-box highcharts-shadow" d="M 3.5 0.5 L 186.5 0.5 C 189.5 0.5 189.5 0.5 189.5 3.5 L 189.5 42.5 C 189.5 45.5 189.5 45.5 186.5 45.5 L 99.5 45.5 L 93.5 51.5 L 87.5 45.5 L 3.5 45.5 C 0.5 45.5 0.5 45.5 0.5 42.5 L 0.5 3.5 C 0.5 0.5 0.5 0.5 3.5 0.5" stroke="#000000" stroke-opacity="0.049999999999999996" stroke-width="5" transform="translate(1, 1)"></path><path fill="none" class="highcharts-label-box highcharts-tooltip-box highcharts-shadow" d="M 3.5 0.5 L 186.5 0.5 C 189.5 0.5 189.5 0.5 189.5 3.5 L 189.5 42.5 C 189.5 45.5 189.5 45.5 186.5 45.5 L 99.5 45.5 L 93.5 51.5 L 87.5 45.5 L 3.5 45.5 C 0.5 45.5 0.5 45.5 0.5 42.5 L 0.5 3.5 C 0.5 0.5 0.5 0.5 3.5 0.5" stroke="#000000" stroke-opacity="0.09999999999999999" stroke-width="3" transform="translate(1, 1)"></path><path fill="none" class="highcharts-label-box highcharts-tooltip-box highcharts-shadow" d="M 3.5 0.5 L 186.5 0.5 C 189.5 0.5 189.5 0.5 189.5 3.5 L 189.5 42.5 C 189.5 45.5 189.5 45.5 186.5 45.5 L 99.5 45.5 L 93.5 51.5 L 87.5 45.5 L 3.5 45.5 C 0.5 45.5 0.5 45.5 0.5 42.5 L 0.5 3.5 C 0.5 0.5 0.5 0.5 3.5 0.5" stroke="#000000" stroke-opacity="0.15" stroke-width="1" transform="translate(1, 1)"></path><path fill="rgba(247,247,247,0.85)" class="highcharts-label-box highcharts-tooltip-box" d="M 3.5 0.5 L 186.5 0.5 C 189.5 0.5 189.5 0.5 189.5 3.5 L 189.5 42.5 C 189.5 45.5 189.5 45.5 186.5 45.5 L 99.5 45.5 L 93.5 51.5 L 87.5 45.5 L 3.5 45.5 C 0.5 45.5 0.5 45.5 0.5 42.5 L 0.5 3.5 C 0.5 0.5 0.5 0.5 3.5 0.5" stroke="#434348" stroke-width="1"></path><text x="8" data-z-index="1" y="20" style="color:#333333;cursor:default;font-size:12px;fill:#333333;"><tspan style="font-size: 10px">Lenovo ThinkSystem</tspan><tspan style="fill:#434348" x="8" dy="15">●</tspan><tspan dx="0"> 100% Load (avg): </tspan><tspan style="font-weight:bold" dx="0">1 434 watts</tspan></text></g></svg>
