<?xml version="1.0" encoding="UTF-8" standalone="no"?>
<!DOCTYPE svg PUBLIC "-//W3C//DTD SVG 1.1//EN" "http://www.w3.org/Graphics/SVG/1.1/DTD/svg11.dtd">
<svg width="100%" height="100%" viewBox="0 0 800 600" version="1.1" xmlns="http://www.w3.org/2000/svg" xmlns:xlink="http://www.w3.org/1999/xlink" xml:space="preserve" xmlns:serif="http://www.serif.com/" style="fill-rule:evenodd;clip-rule:evenodd;stroke-linejoin:round;stroke-miterlimit:2;">
    <rect x="209.808" y="32.038" width="379.384" height="534.924" style="fill:rgb(0,65,152);"/>
    <g>
        <path d="M488.89,223.086C471.862,246.398 439.077,262.195 401.462,262.195C346.348,262.195 301.603,228.283 301.603,186.512C301.603,144.742 346.348,110.829 401.462,110.829C440.653,110.829 474.601,127.978 490.945,152.905L468.428,152.905C454.083,136.667 429.81,125.986 402.305,125.986C358.281,125.986 322.54,153.347 322.54,187.047C322.54,220.747 358.281,248.108 402.305,248.108C428.727,248.108 452.167,238.252 466.683,223.086L488.89,223.086Z" style="fill:rgb(218,213,0);"/>
        <path d="M302.226,221.982L323.158,236.095C327.359,266.781 361.298,290.731 402.486,290.731C428.909,290.731 452.348,280.874 466.865,265.709L489.072,265.709C472.043,289.021 439.258,304.818 401.643,304.818C346.53,304.818 301.785,270.906 301.785,229.135C301.785,226.725 301.934,224.341 302.226,221.982ZM305.789,207.866C317.931,176.433 356.274,153.452 401.643,153.452C440.834,153.452 474.783,170.6 491.127,195.528L468.61,195.528C454.265,179.29 429.992,168.609 402.486,168.609C358.463,168.609 322.721,195.97 322.721,229.67C322.721,230.809 322.762,231.941 322.843,233.067C315.839,226.07 309.954,217.963 305.789,207.866Z" style="fill:white;"/>
    </g>
    <g>
        <g transform="matrix(0.961109,0,0,1,13.4796,0.435291)">
            <g transform="matrix(64,0,0,64,276.72,423.743)">
                <path d="M0.672,-0.029C0.602,0.002 0.518,0.018 0.421,0.018C0.303,0.018 0.211,-0.015 0.145,-0.082C0.078,-0.149 0.045,-0.242 0.045,-0.361C0.045,-0.483 0.079,-0.577 0.145,-0.642C0.212,-0.708 0.307,-0.741 0.43,-0.741C0.509,-0.741 0.587,-0.731 0.665,-0.713L0.665,-0.595C0.577,-0.626 0.503,-0.642 0.443,-0.642C0.367,-0.642 0.308,-0.617 0.267,-0.569C0.226,-0.521 0.205,-0.452 0.205,-0.363C0.205,-0.276 0.227,-0.208 0.272,-0.159C0.316,-0.11 0.378,-0.086 0.457,-0.086C0.528,-0.086 0.6,-0.104 0.672,-0.14L0.672,-0.029Z" style="fill:white;fill-rule:nonzero;"/>
            </g>
            <g transform="matrix(64,0,0,64,322.314,423.743)">
                <path d="M0.407,0.018C0.298,0.018 0.21,-0.016 0.144,-0.085C0.078,-0.154 0.045,-0.246 0.045,-0.361C0.045,-0.478 0.078,-0.57 0.145,-0.638C0.211,-0.707 0.3,-0.741 0.412,-0.741C0.524,-0.741 0.613,-0.707 0.679,-0.638C0.745,-0.57 0.778,-0.478 0.778,-0.363C0.778,-0.245 0.745,-0.152 0.679,-0.084C0.613,-0.016 0.522,0.018 0.407,0.018ZM0.409,-0.082C0.474,-0.082 0.525,-0.107 0.562,-0.157C0.6,-0.208 0.619,-0.277 0.619,-0.363C0.619,-0.447 0.6,-0.515 0.562,-0.565C0.524,-0.616 0.474,-0.642 0.412,-0.642C0.349,-0.642 0.299,-0.616 0.261,-0.565C0.224,-0.515 0.205,-0.447 0.205,-0.362C0.205,-0.278 0.224,-0.21 0.261,-0.158C0.299,-0.107 0.348,-0.082 0.409,-0.082Z" style="fill:white;fill-rule:nonzero;"/>
            </g>
            <g transform="matrix(64,0,0,64,375.002,423.743)">
                <path d="M0.09,0L0.09,-0.723L0.401,-0.723C0.513,-0.723 0.599,-0.693 0.659,-0.634C0.718,-0.574 0.748,-0.488 0.748,-0.376C0.748,-0.257 0.716,-0.165 0.653,-0.099C0.59,-0.033 0.502,0 0.388,0L0.09,0ZM0.241,-0.103L0.353,-0.103C0.432,-0.103 0.491,-0.124 0.53,-0.168C0.569,-0.212 0.588,-0.278 0.588,-0.368C0.588,-0.437 0.573,-0.494 0.542,-0.54C0.52,-0.572 0.494,-0.593 0.464,-0.605C0.434,-0.618 0.389,-0.624 0.332,-0.624L0.241,-0.624L0.241,-0.103Z" style="fill:white;fill-rule:nonzero;"/>
            </g>
            <g transform="matrix(64,0,0,64,425.752,423.743)">
                <path d="M0.09,0L0.09,-0.723L0.542,-0.723L0.542,-0.624L0.241,-0.624L0.241,-0.422L0.488,-0.422L0.488,-0.325L0.241,-0.325L0.241,-0.103L0.565,-0.103L0.565,0L0.09,0Z" style="fill:white;fill-rule:nonzero;"/>
            </g>
            <g transform="matrix(64,0,0,64,476.349,423.743)">
                <path d="M0.407,0.018C0.298,0.018 0.21,-0.016 0.144,-0.085C0.078,-0.154 0.045,-0.246 0.045,-0.361C0.045,-0.478 0.078,-0.57 0.145,-0.638C0.211,-0.707 0.3,-0.741 0.412,-0.741C0.524,-0.741 0.613,-0.707 0.679,-0.638C0.745,-0.57 0.778,-0.478 0.778,-0.363C0.778,-0.245 0.745,-0.152 0.679,-0.084C0.613,-0.016 0.522,0.018 0.407,0.018ZM0.409,-0.082C0.474,-0.082 0.525,-0.107 0.562,-0.157C0.6,-0.208 0.619,-0.277 0.619,-0.363C0.619,-0.447 0.6,-0.515 0.562,-0.565C0.524,-0.616 0.474,-0.642 0.412,-0.642C0.349,-0.642 0.299,-0.616 0.261,-0.565C0.224,-0.515 0.205,-0.447 0.205,-0.362C0.205,-0.278 0.224,-0.21 0.261,-0.158C0.299,-0.107 0.348,-0.082 0.409,-0.082Z" style="fill:white;fill-rule:nonzero;"/>
            </g>
            <g transform="matrix(64,0,0,64,529.037,423.743)">
                <path d="M0.09,0L0.09,-0.723L0.545,-0.723L0.545,-0.624L0.241,-0.624L0.241,-0.404L0.491,-0.404L0.491,-0.304L0.241,-0.304L0.241,0L0.09,0Z" style="fill:white;fill-rule:nonzero;"/>
            </g>
        </g>
        <g transform="matrix(0.961109,0,0,1,-9.20979,60.9334)">
            <g transform="matrix(64,0,0,64,276.72,423.743)">
                <path d="M0.672,-0.029C0.602,0.002 0.518,0.018 0.421,0.018C0.303,0.018 0.211,-0.015 0.145,-0.082C0.078,-0.149 0.045,-0.242 0.045,-0.361C0.045,-0.483 0.079,-0.577 0.145,-0.642C0.212,-0.708 0.307,-0.741 0.43,-0.741C0.509,-0.741 0.587,-0.731 0.665,-0.713L0.665,-0.595C0.577,-0.626 0.503,-0.642 0.443,-0.642C0.367,-0.642 0.308,-0.617 0.267,-0.569C0.226,-0.521 0.205,-0.452 0.205,-0.363C0.205,-0.276 0.227,-0.208 0.272,-0.159C0.316,-0.11 0.378,-0.086 0.457,-0.086C0.528,-0.086 0.6,-0.104 0.672,-0.14L0.672,-0.029Z" style="fill:white;fill-rule:nonzero;"/>
            </g>
            <g transform="matrix(64,0,0,64,322.314,423.743)">
                <path d="M0.407,0.018C0.298,0.018 0.21,-0.016 0.144,-0.085C0.078,-0.154 0.045,-0.246 0.045,-0.361C0.045,-0.478 0.078,-0.57 0.145,-0.638C0.211,-0.707 0.3,-0.741 0.412,-0.741C0.524,-0.741 0.613,-0.707 0.679,-0.638C0.745,-0.57 0.778,-0.478 0.778,-0.363C0.778,-0.245 0.745,-0.152 0.679,-0.084C0.613,-0.016 0.522,0.018 0.407,0.018ZM0.409,-0.082C0.474,-0.082 0.525,-0.107 0.562,-0.157C0.6,-0.208 0.619,-0.277 0.619,-0.363C0.619,-0.447 0.6,-0.515 0.562,-0.565C0.524,-0.616 0.474,-0.642 0.412,-0.642C0.349,-0.642 0.299,-0.616 0.261,-0.565C0.224,-0.515 0.205,-0.447 0.205,-0.362C0.205,-0.278 0.224,-0.21 0.261,-0.158C0.299,-0.107 0.348,-0.082 0.409,-0.082Z" style="fill:white;fill-rule:nonzero;"/>
            </g>
            <g transform="matrix(64,0,0,64,375.002,423.743)">
                <path d="M0.09,0L0.09,-0.723L0.223,-0.723L0.558,-0.229L0.558,-0.723L0.678,-0.723L0.678,0L0.543,0L0.211,-0.494L0.211,0L0.09,0Z" style="fill:white;fill-rule:nonzero;"/>
            </g>
            <g transform="matrix(64,0,0,64,424.189,423.743)">
                <path d="M0.09,0L0.09,-0.723L0.401,-0.723C0.513,-0.723 0.599,-0.693 0.659,-0.634C0.718,-0.574 0.748,-0.488 0.748,-0.376C0.748,-0.257 0.716,-0.165 0.653,-0.099C0.59,-0.033 0.502,0 0.388,0L0.09,0ZM0.241,-0.103L0.353,-0.103C0.432,-0.103 0.491,-0.124 0.53,-0.168C0.569,-0.212 0.588,-0.278 0.588,-0.368C0.588,-0.437 0.573,-0.494 0.542,-0.54C0.52,-0.572 0.494,-0.593 0.464,-0.605C0.434,-0.618 0.389,-0.624 0.332,-0.624L0.241,-0.624L0.241,-0.103Z" style="fill:white;fill-rule:nonzero;"/>
            </g>
            <g transform="matrix(64,0,0,64,474.939,423.743)">
                <path d="M0.084,-0.723L0.235,-0.723L0.235,-0.28C0.235,-0.21 0.246,-0.159 0.27,-0.128C0.293,-0.097 0.33,-0.082 0.381,-0.082C0.431,-0.082 0.466,-0.096 0.488,-0.126C0.51,-0.156 0.521,-0.203 0.521,-0.269L0.521,-0.723L0.652,-0.723L0.652,-0.279C0.652,-0.212 0.646,-0.161 0.633,-0.126C0.62,-0.091 0.597,-0.061 0.563,-0.035C0.518,0 0.456,0.018 0.378,0.018C0.295,0.018 0.229,-0.001 0.178,-0.039C0.143,-0.065 0.119,-0.095 0.105,-0.131C0.091,-0.167 0.084,-0.216 0.084,-0.28L0.084,-0.723Z" style="fill:white;fill-rule:nonzero;"/>
            </g>
            <g transform="matrix(64,0,0,64,522.064,423.743)">
                <path d="M0.672,-0.029C0.602,0.002 0.518,0.018 0.421,0.018C0.303,0.018 0.211,-0.015 0.145,-0.082C0.078,-0.149 0.045,-0.242 0.045,-0.361C0.045,-0.483 0.079,-0.577 0.145,-0.642C0.212,-0.708 0.307,-0.741 0.43,-0.741C0.509,-0.741 0.587,-0.731 0.665,-0.713L0.665,-0.595C0.577,-0.626 0.503,-0.642 0.443,-0.642C0.367,-0.642 0.308,-0.617 0.267,-0.569C0.226,-0.521 0.205,-0.452 0.205,-0.363C0.205,-0.276 0.227,-0.208 0.272,-0.159C0.316,-0.11 0.378,-0.086 0.457,-0.086C0.528,-0.086 0.6,-0.104 0.672,-0.14L0.672,-0.029Z" style="fill:white;fill-rule:nonzero;"/>
            </g>
            <g transform="matrix(64,0,0,64,567.658,423.743)">
                <path d="M0.27,0L0.27,-0.624L0.011,-0.624L0.011,-0.723L0.679,-0.723L0.679,-0.624L0.42,-0.624L0.42,0L0.27,0Z" style="fill:white;fill-rule:nonzero;"/>
            </g>
        </g>
        <g transform="matrix(0.961109,0,0,1,17.4177,103.848)">
            <g transform="matrix(36,0,0,36,276.72,423.743)">
                <path d="M0.09,0L0.09,-0.723L0.401,-0.723C0.513,-0.723 0.599,-0.693 0.659,-0.634C0.718,-0.574 0.748,-0.488 0.748,-0.376C0.748,-0.257 0.716,-0.165 0.653,-0.099C0.59,-0.033 0.502,0 0.388,0L0.09,0ZM0.241,-0.103L0.353,-0.103C0.432,-0.103 0.491,-0.124 0.53,-0.168C0.569,-0.212 0.588,-0.278 0.588,-0.368C0.588,-0.437 0.573,-0.494 0.542,-0.54C0.52,-0.572 0.494,-0.593 0.464,-0.605C0.434,-0.618 0.389,-0.624 0.332,-0.624L0.241,-0.624L0.241,-0.103Z" style="fill:white;fill-rule:nonzero;"/>
            </g>
            <g transform="matrix(36,0,0,36,305.267,423.743)">
                <path d="M0.011,0L0.292,-0.723L0.443,-0.723L0.724,0L0.57,0L0.495,-0.193L0.196,-0.193L0.121,0L0.011,0ZM0.233,-0.289L0.458,-0.289L0.345,-0.577L0.233,-0.289Z" style="fill:white;fill-rule:nonzero;"/>
            </g>
            <g transform="matrix(36,0,0,36,331.775,423.743)">
                <path d="M0.27,0L0.27,-0.624L0.011,-0.624L0.011,-0.723L0.679,-0.723L0.679,-0.624L0.42,-0.624L0.42,0L0.27,0Z" style="fill:white;fill-rule:nonzero;"/>
            </g>
            <g transform="matrix(36,0,0,36,356.613,423.743)">
                <path d="M0.011,0L0.292,-0.723L0.443,-0.723L0.724,0L0.57,0L0.495,-0.193L0.196,-0.193L0.121,0L0.011,0ZM0.233,-0.289L0.458,-0.289L0.345,-0.577L0.233,-0.289Z" style="fill:white;fill-rule:nonzero;"/>
            </g>
            <g transform="matrix(36,0,0,36,389.961,423.743)">
                <path d="M0.672,-0.029C0.602,0.002 0.518,0.018 0.421,0.018C0.303,0.018 0.211,-0.015 0.145,-0.082C0.078,-0.149 0.045,-0.242 0.045,-0.361C0.045,-0.483 0.079,-0.577 0.145,-0.642C0.212,-0.708 0.307,-0.741 0.43,-0.741C0.509,-0.741 0.587,-0.731 0.665,-0.713L0.665,-0.595C0.577,-0.626 0.503,-0.642 0.443,-0.642C0.367,-0.642 0.308,-0.617 0.267,-0.569C0.226,-0.521 0.205,-0.452 0.205,-0.363C0.205,-0.276 0.227,-0.208 0.272,-0.159C0.316,-0.11 0.378,-0.086 0.457,-0.086C0.528,-0.086 0.6,-0.104 0.672,-0.14L0.672,-0.029Z" style="fill:white;fill-rule:nonzero;"/>
            </g>
            <g transform="matrix(36,0,0,36,415.607,423.743)">
                <path d="M0.09,0L0.09,-0.723L0.542,-0.723L0.542,-0.624L0.241,-0.624L0.241,-0.422L0.488,-0.422L0.488,-0.325L0.241,-0.325L0.241,-0.103L0.565,-0.103L0.565,0L0.09,0Z" style="fill:white;fill-rule:nonzero;"/>
            </g>
            <g transform="matrix(36,0,0,36,437.228,423.743)">
                <path d="M0.09,0L0.09,-0.723L0.223,-0.723L0.558,-0.229L0.558,-0.723L0.678,-0.723L0.678,0L0.543,0L0.211,-0.494L0.211,0L0.09,0Z" style="fill:white;fill-rule:nonzero;"/>
            </g>
            <g transform="matrix(36,0,0,36,464.896,423.743)">
                <path d="M0.27,0L0.27,-0.624L0.011,-0.624L0.011,-0.723L0.679,-0.723L0.679,-0.624L0.42,-0.624L0.42,0L0.27,0Z" style="fill:white;fill-rule:nonzero;"/>
            </g>
            <g transform="matrix(36,0,0,36,489.734,423.743)">
                <path d="M0.09,0L0.09,-0.723L0.361,-0.723C0.508,-0.723 0.581,-0.663 0.581,-0.543C0.581,-0.499 0.569,-0.458 0.544,-0.422C0.519,-0.385 0.485,-0.357 0.441,-0.337L0.677,0L0.494,0L0.315,-0.295L0.232,-0.295L0.232,0L0.09,0ZM0.232,-0.395L0.267,-0.395C0.376,-0.395 0.43,-0.439 0.43,-0.527C0.43,-0.591 0.382,-0.624 0.284,-0.624L0.232,-0.624L0.232,-0.395Z" style="fill:white;fill-rule:nonzero;"/>
            </g>
            <g transform="matrix(36,0,0,36,514.572,423.743)">
                <path d="M0.09,0L0.09,-0.723L0.542,-0.723L0.542,-0.624L0.241,-0.624L0.241,-0.422L0.488,-0.422L0.488,-0.325L0.241,-0.325L0.241,-0.103L0.565,-0.103L0.565,0L0.09,0Z" style="fill:white;fill-rule:nonzero;"/>
            </g>
            <g transform="matrix(36,0,0,36,536.193,423.743)">
                <path d="M0.05,-0.006L0.05,-0.13C0.128,-0.098 0.194,-0.082 0.25,-0.082C0.288,-0.082 0.319,-0.09 0.341,-0.107C0.363,-0.125 0.375,-0.148 0.375,-0.178C0.375,-0.201 0.368,-0.221 0.354,-0.237C0.34,-0.253 0.313,-0.272 0.274,-0.294L0.226,-0.321C0.161,-0.358 0.115,-0.393 0.088,-0.426C0.062,-0.459 0.048,-0.498 0.048,-0.543C0.048,-0.603 0.07,-0.65 0.114,-0.687C0.158,-0.723 0.216,-0.741 0.288,-0.741C0.345,-0.741 0.41,-0.732 0.482,-0.716L0.482,-0.6C0.409,-0.628 0.35,-0.642 0.307,-0.642C0.274,-0.642 0.247,-0.634 0.227,-0.619C0.207,-0.605 0.197,-0.585 0.197,-0.561C0.197,-0.541 0.204,-0.524 0.218,-0.509C0.232,-0.494 0.259,-0.475 0.297,-0.454L0.349,-0.425C0.419,-0.386 0.467,-0.35 0.493,-0.317C0.52,-0.284 0.533,-0.244 0.533,-0.197C0.533,-0.13 0.508,-0.077 0.458,-0.039C0.408,-0.001 0.34,0.018 0.252,0.018C0.194,0.018 0.127,0.01 0.05,-0.006Z" style="fill:white;fill-rule:nonzero;"/>
            </g>
        </g>
    </g>
    <g>
        <g transform="matrix(1.11206,0,0,1.11206,-20.1458,-110.017)">
            <path d="M310.653,162.373L313.324,170.592L321.966,170.592L314.974,175.672L317.645,183.891L310.653,178.811L303.661,183.891L306.332,175.672L299.34,170.592L307.982,170.592L310.653,162.373Z" style="fill:rgb(218,213,0);"/>
        </g>
        <g transform="matrix(1.11206,0,0,1.11206,56.992,-125.988)">
            <path d="M310.653,162.373L313.324,170.592L321.966,170.592L314.974,175.672L317.645,183.891L310.653,178.811L303.661,183.891L306.332,175.672L299.34,170.592L307.982,170.592L310.653,162.373Z" style="fill:rgb(218,213,0);"/>
        </g>
        <g transform="matrix(1.11206,0,0,1.11206,127.569,-110.092)">
            <path d="M310.653,162.373L313.324,170.592L321.966,170.592L314.974,175.672L317.645,183.891L310.653,178.811L303.661,183.891L306.332,175.672L299.34,170.592L307.982,170.592L310.653,162.373Z" style="fill:rgb(218,213,0);"/>
        </g>
        <g transform="matrix(1.11206,0,0,1.11206,178.163,-64.9632)">
            <path d="M310.653,162.373L313.324,170.592L321.966,170.592L314.974,175.672L317.645,183.891L310.653,178.811L303.661,183.891L306.332,175.672L299.34,170.592L307.982,170.592L310.653,162.373Z" style="fill:rgb(218,213,0);"/>
        </g>
        <g transform="matrix(1.11206,0,0,1.11206,203.546,0.825214)">
            <path d="M310.653,162.373L313.324,170.592L321.966,170.592L314.974,175.672L317.645,183.891L310.653,178.811L303.661,183.891L306.332,175.672L299.34,170.592L307.982,170.592L310.653,162.373Z" style="fill:rgb(218,213,0);"/>
        </g>
        <g transform="matrix(1.11206,0,0,1.11206,189.031,75.8152)">
            <path d="M310.653,162.373L313.324,170.592L321.966,170.592L314.974,175.672L317.645,183.891L310.653,178.811L303.661,183.891L306.332,175.672L299.34,170.592L307.982,170.592L310.653,162.373Z" style="fill:rgb(218,213,0);"/>
        </g>
        <g transform="matrix(1.11206,0,0,1.11206,131.741,133.727)">
            <path d="M310.653,162.373L313.324,170.592L321.966,170.592L314.974,175.672L317.645,183.891L310.653,178.811L303.661,183.891L306.332,175.672L299.34,170.592L307.982,170.592L310.653,162.373Z" style="fill:rgb(218,213,0);"/>
        </g>
        <g transform="matrix(1.11206,0,0,1.11206,56.9987,151.503)">
            <path d="M310.653,162.373L313.324,170.592L321.966,170.592L314.974,175.672L317.645,183.891L310.653,178.811L303.661,183.891L306.332,175.672L299.34,170.592L307.982,170.592L310.653,162.373Z" style="fill:rgb(218,213,0);"/>
        </g>
        <g transform="matrix(1.11206,0,0,1.11206,-23.07,133.77)">
            <path d="M310.653,162.373L313.324,170.592L321.966,170.592L314.974,175.672L317.645,183.891L310.653,178.811L303.661,183.891L306.332,175.672L299.34,170.592L307.982,170.592L310.653,162.373Z" style="fill:rgb(218,213,0);"/>
        </g>
        <g transform="matrix(1.11206,0,0,1.11206,-81.0408,75.9568)">
            <path d="M310.653,162.373L313.324,170.592L321.966,170.592L314.974,175.672L317.645,183.891L310.653,178.811L303.661,183.891L306.332,175.672L299.34,170.592L307.982,170.592L310.653,162.373Z" style="fill:rgb(218,213,0);"/>
        </g>
        <g transform="matrix(1.11206,0,0,1.11206,-97.3089,0.694679)">
            <path d="M310.653,162.373L313.324,170.592L321.966,170.592L314.974,175.672L317.645,183.891L310.653,178.811L303.661,183.891L306.332,175.672L299.34,170.592L307.982,170.592L310.653,162.373Z" style="fill:rgb(218,213,0);"/>
        </g>
        <g transform="matrix(1.11206,0,0,1.11206,-72.9719,-64.9776)">
            <path d="M310.653,162.373L313.324,170.592L321.966,170.592L314.974,175.672L317.645,183.891L310.653,178.811L303.661,183.891L306.332,175.672L299.34,170.592L307.982,170.592L310.653,162.373Z" style="fill:rgb(218,213,0);"/>
        </g>
    </g>
</svg>
