<?xml version="1.0" encoding="UTF-8" standalone="no"?>
<!-- Created with Inkscape (http://www.inkscape.org/) -->

<svg
   xmlns:dc="http://purl.org/dc/elements/1.1/"
   xmlns:cc="http://creativecommons.org/ns#"
   xmlns:rdf="http://www.w3.org/1999/02/22-rdf-syntax-ns#"
   xmlns:svg="http://www.w3.org/2000/svg"
   xmlns="http://www.w3.org/2000/svg"
   xmlns:sodipodi="http://sodipodi.sourceforge.net/DTD/sodipodi-0.dtd"
   xmlns:inkscape="http://www.inkscape.org/namespaces/inkscape"
   width="152.89136mm"
   height="62.517269mm"
   viewBox="0 0 152.89135 62.51727"
   version="1.1"
   id="svg8"
   inkscape:version="0.92.5 (2060ec1f9f, 2020-04-08)"
   sodipodi:docname="dewpoint-range.svg">
  <defs
     id="defs2" />
  <sodipodi:namedview
     id="base"
     pagecolor="#ffffff"
     bordercolor="#666666"
     borderopacity="1.0"
     inkscape:pageopacity="0.0"
     inkscape:pageshadow="2"
     inkscape:zoom="1.4"
     inkscape:cx="140.18551"
     inkscape:cy="-130.41429"
     inkscape:document-units="mm"
     inkscape:current-layer="g1241"
     showgrid="false"
     inkscape:window-width="2800"
     inkscape:window-height="1672"
     inkscape:window-x="80"
     inkscape:window-y="54"
     inkscape:window-maximized="1">
    <sodipodi:guide
       position="6.1799106,25.4567"
       orientation="0,553.99998"
       id="guide826"
       inkscape:locked="false" />
    <sodipodi:guide
       position="152.75907,25.4567"
       orientation="-111,0"
       id="guide828"
       inkscape:locked="false" />
    <sodipodi:guide
       position="152.75907,54.825449"
       orientation="0,-553.99998"
       id="guide830"
       inkscape:locked="false" />
    <sodipodi:guide
       position="6.1799106,54.825449"
       orientation="111,0"
       id="guide832"
       inkscape:locked="false" />
  </sodipodi:namedview>
  <metadata
     id="metadata5">
    <rdf:RDF>
      <cc:Work
         rdf:about="">
        <dc:format>image/svg+xml</dc:format>
        <dc:type
           rdf:resource="http://purl.org/dc/dcmitype/StillImage" />
        <dc:title />
      </cc:Work>
    </rdf:RDF>
  </metadata>
  <g
     inkscape:label="Layer 1"
     inkscape:groupmode="layer"
     id="layer1"
     transform="translate(9.921873,-130.99286)">
    <g
       id="g1519"
       transform="translate(-3.0238134,-0.37512451)">
      <path
         style="opacity:1;fill:#ffffff;fill-opacity:1;stroke:none;stroke-width:1.05833328;stroke-linecap:round;stroke-linejoin:round;stroke-miterlimit:4;stroke-dasharray:none;stroke-dashoffset:0;stroke-opacity:1;paint-order:normal"
         d="M -3.7419622,138.68468 H 14.031462 v 29.36875 H -3.7419622 Z"
         id="rect836" />
      <path
         style="opacity:1;fill:#b7cfe4;fill-opacity:1;stroke:none;stroke-width:1.05833328;stroke-linecap:round;stroke-linejoin:round;stroke-miterlimit:4;stroke-dasharray:none;stroke-dashoffset:0;stroke-opacity:1;paint-order:normal"
         d="M 14.031462,138.68468 H 62.07316 v 29.36875 H 14.031462 Z"
         id="rect838" />
      <path
         style="opacity:1;fill:#fecb85;fill-opacity:1;stroke:none;stroke-width:1.05833328;stroke-linecap:round;stroke-linejoin:round;stroke-miterlimit:4;stroke-dasharray:none;stroke-dashoffset:0;stroke-opacity:1;paint-order:normal"
         d="m 62.073158,138.68468 h 16.437077 v 29.36875 H 62.073158 Z"
         id="rect838-3" />
      <path
         style="opacity:1;fill:#fc9a67;fill-opacity:1;stroke:none;stroke-width:1.05833328;stroke-linecap:round;stroke-linejoin:round;stroke-miterlimit:4;stroke-dasharray:none;stroke-dashoffset:0;stroke-opacity:1;paint-order:normal"
         d="m 78.510239,138.68468 h 16.437076 v 29.36875 H 78.510239 Z"
         id="rect838-3-6" />
      <path
         style="opacity:1;fill:#f16d57;fill-opacity:1;stroke:none;stroke-width:1.05833328;stroke-linecap:round;stroke-linejoin:round;stroke-miterlimit:4;stroke-dasharray:none;stroke-dashoffset:0;stroke-opacity:1;paint-order:normal"
         d="m 94.947311,138.68468 h 16.437079 v 29.36875 H 94.947311 Z"
         id="rect838-3-6-7" />
      <path
         style="opacity:1;fill:#d84041;fill-opacity:1;stroke:none;stroke-width:1.05833328;stroke-linecap:round;stroke-linejoin:round;stroke-miterlimit:4;stroke-dasharray:none;stroke-dashoffset:0;stroke-opacity:1;paint-order:normal"
         d="m 111.38437,138.68468 h 31.45282 v 29.36875 h -31.45282 z"
         id="rect838-3-6-7-5" />
      <path
         style="opacity:1;fill:none;fill-opacity:0.39285715;stroke:#000000;stroke-width:1.05833328;stroke-linecap:round;stroke-linejoin:round;stroke-miterlimit:4;stroke-dasharray:none;stroke-dashoffset:0;stroke-opacity:1;paint-order:normal"
         d="M -3.7419622,138.68468 H 142.8372 v 29.36875 H -3.7419622 Z"
         id="rect834" />
      <g
         aria-label="&lt; 0"
         style="font-style:normal;font-variant:normal;font-weight:bold;font-stretch:normal;font-size:7.05555534px;line-height:1.25;font-family:'Open Sans';-inkscape-font-specification:'Open Sans Bold';letter-spacing:0px;word-spacing:0px;fill:#000000;fill-opacity:1;stroke:none;stroke-width:0.26458332"
         id="text920">
        <path
           d="m 3.8993478,155.19322 -3.4209797,-1.50895 v -0.49265 l 3.4209797,-1.70876 v 0.82682 l -2.3564452,1.09209 2.3564452,0.96808 z"
           style="stroke-width:0.26458332"
           id="path1145" />
        <path
           d="m 9.8111317,153.37421 q 0,1.31947 -0.4340821,1.95337 -0.4306369,0.6339 -1.3298068,0.6339 -0.8716091,0 -1.3160264,-0.65457 -0.4409722,-0.65457 -0.4409722,-1.9327 0,-1.33325 0.4306369,-1.9637 0.4306369,-0.6339 1.3263617,-0.6339 0.8716092,0 1.3160265,0.66146 0.4478624,0.66146 0.4478624,1.93614 z m -2.4632432,0 q 0,0.92673 0.1584744,1.32981 0.1619194,0.39963 0.5408799,0.39963 0.3720703,0 0.5374349,-0.40652 0.1653646,-0.40652 0.1653646,-1.32292 0,-0.92673 -0.1688097,-1.3298 -0.1653646,-0.40652 -0.5339898,-0.40652 -0.3755154,0 -0.5374349,0.40652 -0.1619194,0.40307 -0.1619194,1.3298 z"
           style="stroke-width:0.26458332"
           id="path1147" />
      </g>
      <g
         aria-label="0 - 15"
         style="font-style:normal;font-variant:normal;font-weight:bold;font-stretch:normal;font-size:7.05555534px;line-height:1.25;font-family:'Open Sans';-inkscape-font-specification:'Open Sans Bold';letter-spacing:0px;word-spacing:0px;fill:#000000;fill-opacity:1;stroke:none;stroke-width:0.26458332"
         id="text920-3">
        <path
           d="m 32.850217,153.37421 q 0,1.31947 -0.434082,1.95337 -0.430637,0.6339 -1.329807,0.6339 -0.871609,0 -1.316026,-0.65457 -0.440973,-0.65457 -0.440973,-1.9327 0,-1.33325 0.430637,-1.9637 0.430637,-0.6339 1.326362,-0.6339 0.871609,0 1.316026,0.66146 0.447863,0.66146 0.447863,1.93614 z m -2.463243,0 q 0,0.92673 0.158474,1.32981 0.16192,0.39963 0.54088,0.39963 0.37207,0 0.537435,-0.40652 0.165364,-0.40652 0.165364,-1.32292 0,-0.92673 -0.168809,-1.3298 -0.165365,-0.40652 -0.53399,-0.40652 -0.375515,0 -0.537435,0.40652 -0.161919,0.40307 -0.161919,1.3298 z"
           style="stroke-width:0.26458332"
           id="path1150" />
        <path
           d="m 35.144651,154.43186 v -0.86128 h 1.850016 v 0.86128 z"
           style="stroke-width:0.26458332"
           id="path1152" />
        <path
           d="m 41.952159,155.89258 h -1.064535 v -2.91455 l 0.01034,-0.47887 0.01723,-0.52366 q -0.265272,0.26528 -0.368625,0.34796 l -0.578776,0.46509 -0.513319,-0.64079 1.62264,-1.29191 h 0.875054 z"
           style="stroke-width:0.26458332"
           id="path1154" />
        <path
           d="m 45.180213,152.67486 q 0.73036,0 1.160997,0.40997 0.434082,0.40996 0.434082,1.1231 0,0.84404 -0.520209,1.2988 -0.52021,0.45475 -1.488282,0.45475 -0.840603,0 -1.357367,-0.27216 v -0.91984 q 0.272162,0.14469 0.633897,0.23771 0.361735,0.0896 0.685574,0.0896 0.974962,0 0.974962,-0.79926 0,-0.76137 -1.009413,-0.76137 -0.18259,0 -0.403076,0.0379 -0.220486,0.0344 -0.35829,0.0758 l -0.423746,-0.22738 0.18948,-2.56659 h 2.73196 v 0.90261 h -1.798339 l -0.09302,0.98875 0.120578,-0.0241 q 0.210151,-0.0482 0.52021,-0.0482 z"
           style="stroke-width:0.26458332"
           id="path1156" />
      </g>
      <g
         aria-label="16
-
18"
         style="font-style:normal;font-variant:normal;font-weight:bold;font-stretch:normal;font-size:7.05555534px;line-height:1.25;font-family:'Open Sans';-inkscape-font-specification:'Open Sans Bold';letter-spacing:0px;word-spacing:0px;fill:#000000;fill-opacity:1;stroke:none;stroke-width:0.26458332"
         id="text920-3-6">
        <path
           d="m 69.08247,147.06281 h -1.064534 v -2.91456 l 0.01033,-0.47886 0.01723,-0.52366 q -0.265273,0.26527 -0.368626,0.34796 l -0.578776,0.46508 -0.513319,-0.64078 1.62264,-1.29191 h 0.875054 z"
           style="text-align:center;text-anchor:middle;stroke-width:0.26458332"
           id="path1159" />
        <path
           d="m 70.443283,144.9234 q 0,-1.49517 0.630453,-2.22553 0.633897,-0.73036 1.894802,-0.73036 0.430637,0 0.675239,0.0517 v 0.85093 q -0.306614,-0.0689 -0.606337,-0.0689 -0.54777,0 -0.895725,0.16537 -0.344509,0.16536 -0.516764,0.4892 -0.172255,0.32384 -0.203261,0.91984 h 0.04479 q 0.341065,-0.58567 1.092096,-0.58567 0.675238,0 1.057644,0.42375 0.382406,0.42375 0.382406,1.17133 0,0.80616 -0.454753,1.27813 -0.454753,0.46854 -1.260905,0.46854 -0.558105,0 -0.974962,-0.25839 -0.413411,-0.25838 -0.640788,-0.75447 -0.223931,-0.49609 -0.223931,-1.19545 z m 1.819011,1.35737 q 0.341064,0 0.523654,-0.22738 0.18259,-0.23082 0.18259,-0.65457 0,-0.36862 -0.172255,-0.57877 -0.168809,-0.2136 -0.513319,-0.2136 -0.323839,0 -0.55466,0.21015 -0.227377,0.21015 -0.227377,0.48921 0,0.40996 0.213596,0.69246 0.217041,0.2825 0.547771,0.2825 z"
           style="text-align:center;text-anchor:middle;stroke-width:0.26458332"
           id="path1162" />
        <path
           d="m 69.270228,154.42153 v -0.86127 h 1.850016 v 0.86127 z"
           style="text-align:center;text-anchor:middle;stroke-width:0.26458332"
           id="path1164" />
        <path
           d="m 69.08247,164.70169 h -1.064534 v -2.91455 l 0.01033,-0.47887 0.01723,-0.52365 q -0.265273,0.26527 -0.368626,0.34795 l -0.578776,0.46509 -0.513319,-0.64079 1.62264,-1.29191 h 0.875054 z"
           style="text-align:center;text-anchor:middle;stroke-width:0.26458332"
           id="path1166" />
        <path
           d="m 72.214062,159.59951 q 0.72347,0 1.164442,0.33073 0.444418,0.32728 0.444418,0.88539 0,0.38585 -0.213596,0.68902 -0.213596,0.29972 -0.689019,0.53743 0.564995,0.30317 0.809597,0.6339 0.248047,0.32728 0.248047,0.72002 0,0.62012 -0.485758,0.99908 -0.485759,0.37552 -1.278131,0.37552 -0.826823,0 -1.298801,-0.3514 -0.471978,-0.3514 -0.471978,-0.99564 0,-0.43063 0.227376,-0.76481 0.230822,-0.33417 0.737251,-0.58911 -0.430637,-0.27216 -0.620117,-0.58222 -0.189481,-0.31006 -0.189481,-0.67868 0,-0.54088 0.447863,-0.87506 0.447862,-0.33417 1.167887,-0.33417 z m -0.785482,3.76204 q 0,0.29628 0.206706,0.46164 0.206706,0.16537 0.564996,0.16537 0.396186,0 0.592556,-0.16881 0.196371,-0.17226 0.196371,-0.45131 0,-0.23082 -0.196371,-0.43064 -0.192925,-0.20326 -0.630452,-0.43063 -0.733806,0.33762 -0.733806,0.85438 z m 0.778592,-2.98345 q -0.272163,0 -0.440972,0.14125 -0.165365,0.1378 -0.165365,0.37207 0,0.2067 0.130914,0.37207 0.134359,0.16192 0.482313,0.33417 0.33762,-0.15847 0.471978,-0.32384 0.134359,-0.16536 0.134359,-0.3824 0,-0.23771 -0.172255,-0.37552 -0.172255,-0.1378 -0.440972,-0.1378 z"
           style="text-align:center;text-anchor:middle;stroke-width:0.26458332"
           id="path1168" />
      </g>
      <g
         aria-label="18
-
21"
         style="font-style:normal;font-variant:normal;font-weight:bold;font-stretch:normal;font-size:7.05555534px;line-height:1.25;font-family:'Open Sans';-inkscape-font-specification:'Open Sans Bold';letter-spacing:0px;word-spacing:0px;fill:#000000;fill-opacity:1;stroke:none;stroke-width:0.26458332"
         id="text920-3-6-9">
        <path
           d="M 85.603955,147.10071 H 84.53942 v -2.91455 l 0.01034,-0.47887 0.01722,-0.52366 q -0.265272,0.26528 -0.368625,0.34796 l -0.578776,0.46509 -0.513319,-0.64079 1.62264,-1.29191 h 0.875054 z"
           style="text-align:center;text-anchor:middle;stroke-width:0.26458332"
           id="path1171" />
        <path
           d="m 88.735547,141.99852 q 0.72347,0 1.164442,0.33073 0.444417,0.32728 0.444417,0.88539 0,0.38585 -0.213596,0.68902 -0.213596,0.29972 -0.689019,0.53743 0.564996,0.30317 0.809598,0.6339 0.248046,0.32729 0.248046,0.72003 0,0.62011 -0.485758,0.99907 -0.485759,0.37552 -1.27813,0.37552 -0.826823,0 -1.298801,-0.3514 -0.471978,-0.3514 -0.471978,-0.99563 0,-0.43064 0.227376,-0.76481 0.230821,-0.33418 0.73725,-0.58911 -0.430637,-0.27217 -0.620117,-0.58223 -0.18948,-0.31005 -0.18948,-0.67868 0,-0.54088 0.447862,-0.87505 0.447863,-0.33418 1.167888,-0.33418 z m -0.785482,3.76205 q 0,0.29627 0.206706,0.46164 0.206705,0.16536 0.564995,0.16536 0.396186,0 0.592557,-0.16881 0.19637,-0.17225 0.19637,-0.4513 0,-0.23083 -0.19637,-0.43064 -0.192926,-0.20326 -0.630453,-0.43064 -0.733805,0.33762 -0.733805,0.85439 z m 0.778591,-2.98346 q -0.272162,0 -0.440972,0.14125 -0.165364,0.13781 -0.165364,0.37207 0,0.20671 0.130913,0.37207 0.134359,0.16192 0.482314,0.33418 0.337619,-0.15848 0.471978,-0.32384 0.134358,-0.16537 0.134358,-0.38241 0,-0.23771 -0.172254,-0.37551 -0.172255,-0.13781 -0.440973,-0.13781 z"
           style="text-align:center;text-anchor:middle;stroke-width:0.26458332"
           id="path1173" />
        <path
           d="m 85.791712,154.45943 v -0.86127 h 1.850017 v 0.86127 z"
           style="text-align:center;text-anchor:middle;stroke-width:0.26458332"
           id="path1175" />
        <path
           d="m 86.492789,164.7396 h -3.520887 v -0.7407 l 1.26435,-1.27813 q 0.56155,-0.57533 0.733805,-0.79582 0.172255,-0.22393 0.248047,-0.41341 0.07579,-0.18948 0.07579,-0.39274 0,-0.30317 -0.168809,-0.45131 -0.165365,-0.14814 -0.444418,-0.14814 -0.292833,0 -0.568441,0.13436 -0.275607,0.13436 -0.57533,0.38241 l -0.578776,-0.68558 q 0.37207,-0.31694 0.616672,-0.44786 0.244601,-0.13091 0.533989,-0.19981 0.289388,-0.0724 0.647678,-0.0724 0.471978,0 0.833713,0.17225 0.361735,0.17226 0.561551,0.48232 0.199815,0.31006 0.199815,0.70969 0,0.34795 -0.124023,0.65457 -0.120578,0.30316 -0.37896,0.62356 -0.254938,0.32039 -0.902615,0.91295 l -0.647678,0.60978 v 0.0482 h 2.194525 z"
           style="text-align:center;text-anchor:middle;stroke-width:0.26458332"
           id="path1177" />
        <path
           d="m 89.631271,164.7396 h -1.064534 v -2.91455 l 0.01033,-0.47887 0.01723,-0.52366 q -0.265273,0.26528 -0.368626,0.34796 l -0.578776,0.46509 -0.513319,-0.64079 1.62264,-1.29191 h 0.875054 z"
           style="text-align:center;text-anchor:middle;stroke-width:0.26458332"
           id="path1179" />
      </g>
      <g
         aria-label="21
-
23"
         style="font-style:normal;font-variant:normal;font-weight:bold;font-stretch:normal;font-size:7.05555534px;line-height:1.25;font-family:'Open Sans';-inkscape-font-specification:'Open Sans Bold';letter-spacing:0px;word-spacing:0px;fill:#000000;fill-opacity:1;stroke:none;stroke-width:0.26458332"
         id="text920-3-6-9-2">
        <path
           d="m 102.94364,147.0697 h -3.520887 v -0.74069 l 1.264347,-1.27813 q 0.56155,-0.57533 0.73381,-0.79582 0.17225,-0.22393 0.24805,-0.41341 0.0758,-0.18948 0.0758,-0.39274 0,-0.30317 -0.16881,-0.45131 -0.16537,-0.14814 -0.44442,-0.14814 -0.29283,0 -0.56844,0.13436 -0.27561,0.13436 -0.575331,0.3824 l -0.578776,-0.68557 q 0.37207,-0.31695 0.616677,-0.44786 0.2446,-0.13092 0.53398,-0.19982 0.28939,-0.0723 0.64768,-0.0723 0.47198,0 0.83372,0.17225 0.36173,0.17226 0.56155,0.48231 0.19981,0.31006 0.19981,0.70969 0,0.34796 -0.12402,0.65457 -0.12058,0.30317 -0.37896,0.62356 -0.25494,0.3204 -0.90262,0.91295 l -0.64767,0.60979 v 0.0482 h 2.19452 z"
           style="text-align:center;text-anchor:middle;stroke-width:0.26458332"
           id="path1182" />
        <path
           d="m 106.08212,147.0697 h -1.06453 v -2.91455 l 0.0103,-0.47887 0.0172,-0.52365 q -0.26527,0.26527 -0.36863,0.34795 l -0.57877,0.46509 -0.51332,-0.64079 1.62264,-1.29191 h 0.87505 z"
           style="text-align:center;text-anchor:middle;stroke-width:0.26458332"
           id="path1184" />
        <path
           d="m 102.24256,154.42843 v -0.86128 h 1.85002 v 0.86128 z"
           style="text-align:center;text-anchor:middle;stroke-width:0.26458332"
           id="path1186" />
        <path
           d="m 102.94364,164.70859 h -3.520887 v -0.74069 l 1.264347,-1.27814 q 0.56155,-0.57533 0.73381,-0.79581 0.17225,-0.22393 0.24805,-0.41341 0.0758,-0.18948 0.0758,-0.39274 0,-0.30317 -0.16881,-0.45131 -0.16537,-0.14814 -0.44442,-0.14814 -0.29283,0 -0.56844,0.13436 -0.27561,0.13436 -0.575331,0.3824 l -0.578776,-0.68557 q 0.37207,-0.31695 0.616677,-0.44786 0.2446,-0.13092 0.53398,-0.19982 0.28939,-0.0724 0.64768,-0.0724 0.47198,0 0.83372,0.17226 0.36173,0.17225 0.56155,0.48231 0.19981,0.31006 0.19981,0.70969 0,0.34796 -0.12402,0.65457 -0.12058,0.30317 -0.37896,0.62356 -0.25494,0.3204 -0.90262,0.91295 l -0.64767,0.60978 v 0.0482 h 2.19452 z"
           style="text-align:center;text-anchor:middle;stroke-width:0.26458332"
           id="path1188" />
        <path
           d="m 106.77459,160.79841 q 0,0.47198 -0.28595,0.8027 -0.28594,0.33073 -0.8027,0.45476 v 0.0207 q 0.60978,0.0758 0.92328,0.37207 0.31351,0.29283 0.31351,0.79237 0,0.72692 -0.5271,1.13344 -0.5271,0.40307 -1.50551,0.40307 -0.81993,0 -1.45383,-0.27216 v -0.90606 q 0.29283,0.14814 0.64423,0.24116 0.3514,0.093 0.69591,0.093 0.5271,0 0.77859,-0.17914 0.2515,-0.17915 0.2515,-0.57533 0,-0.35485 -0.28939,-0.50299 -0.28939,-0.14813 -0.92329,-0.14813 h -0.3824 v -0.81649 h 0.38929 q 0.58567,0 0.85439,-0.15159 0.27216,-0.15503 0.27216,-0.5271 0,-0.57188 -0.71658,-0.57188 -0.24805,0 -0.50643,0.0827 -0.25494,0.0827 -0.56844,0.28594 l -0.49265,-0.7338 q 0.68902,-0.4961 1.64331,-0.4961 0.78204,0 1.23334,0.31695 0.45476,0.31695 0.45476,0.88195 z"
           style="text-align:center;text-anchor:middle;stroke-width:0.26458332"
           id="path1190" />
      </g>
      <g
         aria-label="&gt; 24"
         style="font-style:normal;font-variant:normal;font-weight:bold;font-stretch:normal;font-size:7.05555534px;line-height:1.25;font-family:'Open Sans';-inkscape-font-specification:'Open Sans Bold';letter-spacing:0px;word-spacing:0px;fill:#000000;fill-opacity:1;stroke:none;stroke-width:0.26458332"
         id="text920-3-6-9-2-0">
        <path
           d="m 120.36012,154.40085 2.35645,-0.96807 -2.35645,-1.0921 v -0.82682 l 3.42098,1.70877 v 0.49265 l -3.42098,1.50895 z"
           style="stroke-width:0.26458332"
           id="path1193" />
        <path
           d="m 129.72045,155.92358 h -3.52089 v -0.74069 l 1.26435,-1.27813 q 0.56155,-0.57533 0.7338,-0.79582 0.17226,-0.22393 0.24805,-0.41341 0.0758,-0.18948 0.0758,-0.39274 0,-0.30317 -0.16881,-0.45131 -0.16536,-0.14814 -0.44441,-0.14814 -0.29284,0 -0.56844,0.13436 -0.27561,0.13436 -0.57534,0.38241 l -0.57877,-0.68558 q 0.37207,-0.31695 0.61667,-0.44786 0.2446,-0.13091 0.53399,-0.19982 0.28939,-0.0723 0.64768,-0.0723 0.47198,0 0.83371,0.17225 0.36174,0.17226 0.56155,0.48232 0.19982,0.31005 0.19982,0.70969 0,0.34795 -0.12403,0.65456 -0.12057,0.30317 -0.37896,0.62357 -0.25493,0.32039 -0.90261,0.91295 l -0.64768,0.60978 v 0.0482 h 2.19453 z"
           style="stroke-width:0.26458332"
           id="path1195" />
        <path
           d="m 133.86145,154.87972 h -0.60634 v 1.04386 h -1.04042 v -1.04386 h -2.14973 v -0.7407 l 2.2083,-3.25217 h 0.98185 v 3.16605 h 0.60634 z m -1.64676,-0.82682 v -0.85439 q 0,-0.21359 0.0172,-0.62011 0.0172,-0.40652 0.0276,-0.47198 h -0.0276 q -0.12747,0.2825 -0.30661,0.55121 l -0.92329,1.39527 z"
           style="stroke-width:0.26458332"
           id="path1197" />
      </g>
      <g
         style="stroke-width:1.90579867"
         transform="matrix(0.52665673,0,0,0.52277925,-3.1594992,83.881277)"
         id="g1298">
        <g
           style="stroke-width:1.90579867"
           id="g1241">
          <g
             aria-label="Comfort varies"
             style="font-style:normal;font-variant:normal;font-weight:normal;font-stretch:normal;font-size:7.05555534px;line-height:1.25;font-family:'Open Sans';-inkscape-font-specification:'Open Sans';letter-spacing:0px;word-spacing:0px;fill:#000000;fill-opacity:1;stroke:none;stroke-width:0.50424254"
             id="text1051">
            <path
               d="m 16.511883,178.02629 q -0.830268,0 -1.312581,0.55466 -0.478868,0.55121 -0.478868,1.51239 0,0.98875 0.461642,1.52963 0.465088,0.53743 1.322917,0.53743 0.5271,0 1.202338,-0.18948 v 0.51332 q -0.523654,0.19637 -1.29191,0.19637 -1.112766,0 -1.719103,-0.67524 -0.602892,-0.67524 -0.602892,-1.91892 0,-0.77859 0.289388,-1.36425 0.292833,-0.58567 0.840604,-0.90262 0.551215,-0.31695 1.295355,-0.31695 0.792372,0 1.384929,0.28939 l -0.248047,0.50299 q -0.571886,-0.26872 -1.143772,-0.26872 z"
               style="stroke-width:0.50424254"
               id="path1111" />
            <path
               d="m 21.97925,180.72035 q 0,0.92329 -0.465088,1.4435 -0.465088,0.51676 -1.285021,0.51676 -0.506429,0 -0.89917,-0.23771 -0.392741,-0.23771 -0.606337,-0.68213 -0.213596,-0.44442 -0.213596,-1.04042 0,-0.92328 0.461643,-1.4366 0.461643,-0.51677 1.281576,-0.51677 0.792372,0 1.25746,0.5271 0.468533,0.5271 0.468533,1.42627 z m -2.876655,0 q 0,0.72347 0.289388,1.10243 0.289388,0.37896 0.850938,0.37896 0.561551,0 0.850939,-0.37551 0.292833,-0.37896 0.292833,-1.10588 0,-0.72002 -0.292833,-1.09209 -0.289388,-0.37552 -0.857829,-0.37552 -0.56155,0 -0.847493,0.36863 -0.285943,0.36862 -0.285943,1.09898 z"
               style="stroke-width:0.50424254"
               id="path1113" />
            <path
               d="m 27.794571,182.61171 v -2.45635 q 0,-0.45131 -0.192925,-0.67524 -0.192926,-0.22738 -0.599447,-0.22738 -0.53399,0 -0.788927,0.30662 -0.254937,0.30661 -0.254937,0.94395 v 2.1084 h -0.571886 v -2.45635 q 0,-0.45131 -0.192925,-0.67524 -0.192925,-0.22738 -0.602892,-0.22738 -0.537435,0 -0.788927,0.32384 -0.248047,0.32039 -0.248047,1.0542 v 1.98093 h -0.571885 v -3.77582 h 0.465087 l 0.09302,0.51676 h 0.02756 q 0.161919,-0.27561 0.454752,-0.43064 0.296279,-0.15503 0.661459,-0.15503 0.885389,0 1.157552,0.64079 h 0.02756 q 0.168809,-0.29628 0.489203,-0.46853 0.320394,-0.17226 0.73036,-0.17226 0.640788,0 0.957737,0.33073 0.320394,0.32729 0.320394,1.05076 v 2.46324 z"
               style="stroke-width:0.50424254"
               id="path1115" />
            <path
               d="m 31.246556,179.2803 h -0.961182 v 3.33141 H 29.713489 V 179.2803 H 29.03825 v -0.25838 l 0.675239,-0.20671 v -0.21015 q 0,-1.39181 1.216118,-1.39181 0.299724,0 0.7028,0.12057 l -0.148139,0.4582 q -0.33073,-0.1068 -0.564996,-0.1068 -0.323839,0 -0.478868,0.21704 -0.15503,0.2136 -0.15503,0.68902 v 0.24461 h 0.961182 z"
               style="stroke-width:0.50424254"
               id="path1117" />
            <path
               d="m 35.194635,180.72035 q 0,0.92329 -0.465088,1.4435 -0.465088,0.51676 -1.28502,0.51676 -0.50643,0 -0.89917,-0.23771 -0.392741,-0.23771 -0.606337,-0.68213 -0.213596,-0.44442 -0.213596,-1.04042 0,-0.92328 0.461643,-1.4366 0.461642,-0.51677 1.281575,-0.51677 0.792372,0 1.25746,0.5271 0.468533,0.5271 0.468533,1.42627 z m -2.876655,0 q 0,0.72347 0.289388,1.10243 0.289388,0.37896 0.850939,0.37896 0.56155,0 0.850938,-0.37551 0.292834,-0.37896 0.292834,-1.10588 0,-0.72002 -0.292834,-1.09209 -0.289388,-0.37552 -0.857828,-0.37552 -0.561551,0 -0.847494,0.36863 -0.285943,0.36862 -0.285943,1.09898 z"
               style="stroke-width:0.50424254"
               id="path1119" />
            <path
               d="m 37.919706,178.76698 q 0.251492,0 0.451307,0.0413 l -0.07924,0.53055 q -0.234266,-0.0517 -0.413411,-0.0517 -0.458198,0 -0.785482,0.37207 -0.323839,0.37207 -0.323839,0.92673 v 2.02572 h -0.571886 v -3.77582 h 0.471978 l 0.06546,0.69935 h 0.02756 q 0.210151,-0.36863 0.506429,-0.56844 0.296278,-0.19982 0.651123,-0.19982 z"
               style="stroke-width:0.50424254"
               id="path1121" />
            <path
               d="m 40.296822,182.20863 q 0.151584,0 0.292833,-0.0207 0.141249,-0.0241 0.223931,-0.0482 v 0.43753 q -0.09302,0.0448 -0.275607,0.0724 -0.179145,0.031 -0.323839,0.031 -1.095541,0 -1.095541,-1.15411 v -2.2462 h -0.54088 v -0.27561 l 0.54088,-0.23771 0.241157,-0.80615 h 0.330729 v 0.87506 h 1.095541 v 0.44441 h -1.095541 v 2.22209 q 0,0.34106 0.16192,0.52365 0.161919,0.18259 0.444417,0.18259 z"
               style="stroke-width:0.50424254"
               id="path1123" />
            <path
               d="m 44.227674,182.61171 -1.433159,-3.77582 h 0.613227 l 0.813042,2.23931 q 0.275608,0.78548 0.323839,1.01975 h 0.02756 q 0.0379,-0.18259 0.237711,-0.75448 0.203261,-0.57533 0.906061,-2.50458 h 0.613227 l -1.43316,3.77582 z"
               style="stroke-width:0.50424254"
               id="path1125" />
            <path
               d="m 49.257514,182.61171 -0.113688,-0.53744 h -0.02756 q -0.282498,0.35485 -0.564996,0.48232 -0.279053,0.12402 -0.699354,0.12402 -0.561551,0 -0.881945,-0.28939 -0.316948,-0.28938 -0.316948,-0.82337 0,-1.14378 1.829345,-1.1989 l 0.640788,-0.0207 v -0.23426 q 0,-0.44442 -0.192925,-0.65457 -0.189481,-0.2136 -0.609782,-0.2136 -0.471978,0 -1.06798,0.28939 l -0.1757,-0.43753 q 0.279053,-0.15158 0.609782,-0.23771 0.334174,-0.0861 0.668349,-0.0861 0.675238,0 0.999077,0.29973 0.327284,0.29972 0.327284,0.96118 v 2.57693 z m -1.291911,-0.40308 q 0.53399,0 0.837158,-0.29283 0.306614,-0.29283 0.306614,-0.81993 v -0.34107 l -0.571886,0.0241 q -0.682129,0.0241 -0.985298,0.21359 -0.299723,0.18604 -0.299723,0.58223 0,0.31005 0.186035,0.47197 0.189481,0.16192 0.5271,0.16192 z"
               style="stroke-width:0.50424254"
               id="path1127" />
            <path
               d="m 52.582033,178.76698 q 0.251492,0 0.451307,0.0413 l -0.07924,0.53055 q -0.234267,-0.0517 -0.413412,-0.0517 -0.458197,0 -0.785481,0.37207 -0.323839,0.37207 -0.323839,0.92673 v 2.02572 h -0.571886 v -3.77582 h 0.471978 l 0.06546,0.69935 h 0.02756 q 0.21015,-0.36863 0.506429,-0.56844 0.296278,-0.19982 0.651123,-0.19982 z"
               style="stroke-width:0.50424254"
               id="path1129" />
            <path
               d="m 54.311471,182.61171 h -0.571886 v -3.77582 h 0.571886 z m -0.620117,-4.79902 q 0,-0.19637 0.09646,-0.28594 0.09646,-0.093 0.241157,-0.093 0.137804,0 0.237712,0.093 0.09991,0.093 0.09991,0.28594 0,0.19293 -0.09991,0.28939 -0.09991,0.093 -0.237712,0.093 -0.144694,0 -0.241157,-0.093 -0.09646,-0.0965 -0.09646,-0.28939 z"
               style="stroke-width:0.50424254"
               id="path1131" />
            <path
               d="m 57.119222,182.68061 q -0.837159,0 -1.322917,-0.50987 -0.482313,-0.50988 -0.482313,-1.41594 0,-0.91295 0.447862,-1.45038 0.451308,-0.53744 1.209229,-0.53744 0.709689,0 1.123101,0.46854 0.413411,0.46508 0.413411,1.2299 v 0.36173 h -2.601047 q 0.01723,0.6649 0.334174,1.00941 0.320394,0.34451 0.89917,0.34451 0.609782,0 1.205784,-0.25493 v 0.50987 q -0.303169,0.13091 -0.575331,0.18603 -0.268718,0.0586 -0.651123,0.0586 z m -0.15503,-3.43476 q -0.454752,0 -0.726915,0.29628 -0.268717,0.29628 -0.316949,0.81993 h 1.97404 q 0,-0.54088 -0.241157,-0.82682 -0.241156,-0.28939 -0.689019,-0.28939 z"
               style="stroke-width:0.50424254"
               id="path1133" />
            <path
               d="m 61.918241,181.58163 q 0,0.5271 -0.392741,0.81304 -0.392741,0.28594 -1.102431,0.28594 -0.75103,0 -1.171332,-0.23771 v -0.53054 q 0.272163,0.1378 0.582221,0.21704 0.313504,0.0792 0.602892,0.0792 0.447862,0 0.689019,-0.14125 0.241157,-0.14469 0.241157,-0.43752 0,-0.22049 -0.192926,-0.37552 -0.18948,-0.15847 -0.74414,-0.37207 -0.5271,-0.19637 -0.751031,-0.34106 -0.220486,-0.14814 -0.330729,-0.33418 -0.106798,-0.18603 -0.106798,-0.44441 0,-0.46165 0.375515,-0.72692 0.375516,-0.26872 1.030084,-0.26872 0.609782,0 1.192003,0.24805 l -0.203261,0.46509 q -0.568441,-0.23427 -1.030083,-0.23427 -0.406522,0 -0.613227,0.12747 -0.206706,0.12747 -0.206706,0.3514 0,0.15158 0.07579,0.25838 0.07924,0.1068 0.251492,0.20326 0.172255,0.0965 0.661458,0.27906 0.671794,0.2446 0.90606,0.49264 0.237712,0.24805 0.237712,0.62357 z"
               style="stroke-width:0.50424254"
               id="path1135" />
          </g>
          <path
             style="opacity:1;fill:#ffffff;fill-opacity:1;stroke:#000000;stroke-width:0.50424254;stroke-linecap:round;stroke-linejoin:round;stroke-miterlimit:4;stroke-dasharray:none;stroke-dashoffset:0;stroke-opacity:1;paint-order:normal"
             d="m 9.487879,179.94693 a 3.7417734,3.7417734 0 0 1 -3.7417733,3.74177 3.7417734,3.7417734 0 0 1 -3.7417734,-3.74177 3.7417734,3.7417734 0 0 1 3.7417734,-3.74177 3.7417734,3.7417734 0 0 1 3.7417733,3.74177 z"
             id="path1161" />
        </g>
        <g
           aria-label="Comfortable"
           style="font-style:normal;font-variant:normal;font-weight:normal;font-stretch:normal;font-size:7.05555534px;line-height:1.25;font-family:'Open Sans';-inkscape-font-specification:'Open Sans';letter-spacing:0px;word-spacing:0px;fill:#000000;fill-opacity:1;stroke:none;stroke-width:0.50424254"
           id="text1051-3-0">
          <path
             d="m 16.511883,191.52339 q -0.830268,0 -1.312581,0.55466 -0.478868,0.55121 -0.478868,1.5124 0,0.98874 0.461642,1.52962 0.465088,0.53743 1.322917,0.53743 0.5271,0 1.202338,-0.18948 v 0.51332 q -0.523654,0.19637 -1.29191,0.19637 -1.112766,0 -1.719103,-0.67524 -0.602892,-0.67524 -0.602892,-1.91891 0,-0.7786 0.289388,-1.36426 0.292833,-0.58567 0.840604,-0.90262 0.551215,-0.31695 1.295355,-0.31695 0.792372,0 1.384929,0.28939 l -0.248047,0.50299 q -0.571886,-0.26872 -1.143772,-0.26872 z"
             style="stroke-width:0.50424254"
             id="path1086" />
          <path
             d="m 21.97925,194.21745 q 0,0.92329 -0.465088,1.4435 -0.465088,0.51676 -1.285021,0.51676 -0.506429,0 -0.89917,-0.23771 -0.392741,-0.23771 -0.606337,-0.68213 -0.213596,-0.44442 -0.213596,-1.04042 0,-0.92328 0.461643,-1.4366 0.461643,-0.51677 1.281576,-0.51677 0.792372,0 1.25746,0.5271 0.468533,0.5271 0.468533,1.42627 z m -2.876655,0 q 0,0.72347 0.289388,1.10243 0.289388,0.37896 0.850938,0.37896 0.561551,0 0.850939,-0.37551 0.292833,-0.37896 0.292833,-1.10588 0,-0.72002 -0.292833,-1.09209 -0.289388,-0.37552 -0.857829,-0.37552 -0.56155,0 -0.847493,0.36863 -0.285943,0.36862 -0.285943,1.09898 z"
             style="stroke-width:0.50424254"
             id="path1088" />
          <path
             d="m 27.794571,196.10881 v -2.45635 q 0,-0.45131 -0.192925,-0.67524 -0.192926,-0.22738 -0.599447,-0.22738 -0.53399,0 -0.788927,0.30662 -0.254937,0.30661 -0.254937,0.94395 v 2.1084 h -0.571886 v -2.45635 q 0,-0.45131 -0.192925,-0.67524 -0.192925,-0.22738 -0.602892,-0.22738 -0.537435,0 -0.788927,0.32384 -0.248047,0.3204 -0.248047,1.0542 v 1.98093 h -0.571885 v -3.77582 h 0.465087 l 0.09302,0.51676 h 0.02756 q 0.161919,-0.27561 0.454752,-0.43064 0.296279,-0.15503 0.661459,-0.15503 0.885389,0 1.157552,0.64079 h 0.02756 q 0.168809,-0.29628 0.489203,-0.46853 0.320394,-0.17226 0.73036,-0.17226 0.640788,0 0.957737,0.33073 0.320394,0.32729 0.320394,1.05076 v 2.46324 z"
             style="stroke-width:0.50424254"
             id="path1090" />
          <path
             d="m 31.246556,192.7774 h -0.961182 v 3.33141 H 29.713489 V 192.7774 H 29.03825 v -0.25838 l 0.675239,-0.2067 v -0.21016 q 0,-1.39181 1.216118,-1.39181 0.299724,0 0.7028,0.12057 l -0.148139,0.4582 q -0.33073,-0.1068 -0.564996,-0.1068 -0.323839,0 -0.478868,0.21705 -0.15503,0.21359 -0.15503,0.68901 v 0.24461 h 0.961182 z"
             style="stroke-width:0.50424254"
             id="path1092" />
          <path
             d="m 35.194635,194.21745 q 0,0.92329 -0.465088,1.4435 -0.465088,0.51676 -1.28502,0.51676 -0.50643,0 -0.89917,-0.23771 -0.392741,-0.23771 -0.606337,-0.68213 -0.213596,-0.44442 -0.213596,-1.04042 0,-0.92328 0.461643,-1.4366 0.461642,-0.51677 1.281575,-0.51677 0.792372,0 1.25746,0.5271 0.468533,0.5271 0.468533,1.42627 z m -2.876655,0 q 0,0.72347 0.289388,1.10243 0.289388,0.37896 0.850939,0.37896 0.56155,0 0.850938,-0.37551 0.292834,-0.37896 0.292834,-1.10588 0,-0.72002 -0.292834,-1.09209 -0.289388,-0.37552 -0.857828,-0.37552 -0.561551,0 -0.847494,0.36863 -0.285943,0.36862 -0.285943,1.09898 z"
             style="stroke-width:0.50424254"
             id="path1094" />
          <path
             d="m 37.919706,192.26408 q 0.251492,0 0.451307,0.0413 l -0.07924,0.53054 q -0.234266,-0.0517 -0.413411,-0.0517 -0.458198,0 -0.785482,0.37207 -0.323839,0.37207 -0.323839,0.92673 v 2.02572 h -0.571886 v -3.77582 h 0.471978 l 0.06546,0.69935 h 0.02756 q 0.210151,-0.36862 0.506429,-0.56844 0.296278,-0.19982 0.651123,-0.19982 z"
             style="stroke-width:0.50424254"
             id="path1096" />
          <path
             d="m 40.296822,195.70573 q 0.151584,0 0.292833,-0.0207 0.141249,-0.0241 0.223931,-0.0482 v 0.43753 q -0.09302,0.0448 -0.275607,0.0724 -0.179145,0.031 -0.323839,0.031 -1.095541,0 -1.095541,-1.1541 v -2.24621 h -0.54088 v -0.2756 l 0.54088,-0.23772 0.241157,-0.80615 h 0.330729 v 0.87506 h 1.095541 v 0.44441 h -1.095541 v 2.22209 q 0,0.34106 0.16192,0.52365 0.161919,0.18259 0.444417,0.18259 z"
             style="stroke-width:0.50424254"
             id="path1098" />
          <path
             d="m 43.890055,196.10881 -0.113688,-0.53743 h -0.02756 q -0.282497,0.35484 -0.564995,0.48231 -0.279053,0.12402 -0.699355,0.12402 -0.56155,0 -0.881944,-0.28939 -0.316949,-0.28938 -0.316949,-0.82337 0,-1.14378 1.829346,-1.1989 l 0.640788,-0.0207 v -0.23426 q 0,-0.44442 -0.192926,-0.65457 -0.18948,-0.2136 -0.609782,-0.2136 -0.471978,0 -1.067979,0.28939 l -0.1757,-0.43753 q 0.279053,-0.15158 0.609782,-0.23771 0.334174,-0.0861 0.668348,-0.0861 0.675239,0 0.999078,0.29973 0.327284,0.29972 0.327284,0.96118 v 2.57693 z m -1.29191,-0.40308 q 0.533989,0 0.837158,-0.29283 0.306613,-0.29283 0.306613,-0.81993 v -0.34107 l -0.571886,0.0241 q -0.682128,0.0241 -0.985297,0.2136 -0.299723,0.18603 -0.299723,0.58222 0,0.31006 0.186035,0.47197 0.18948,0.16192 0.5271,0.16192 z"
             style="stroke-width:0.50424254"
             id="path1100" />
          <path
             d="m 47.249023,192.27097 q 0.744141,0 1.154107,0.50988 0.413412,0.50643 0.413412,1.4366 0,0.93018 -0.416857,1.44694 -0.413411,0.51332 -1.150662,0.51332 -0.368625,0 -0.675238,-0.13436 -0.303169,-0.1378 -0.509875,-0.4203 h -0.04134 l -0.120578,0.48576 h -0.409966 v -5.36057 h 0.571885 v 1.30225 q 0,0.43753 -0.02756,0.78548 h 0.02756 q 0.399632,-0.565 1.185113,-0.565 z m -0.08268,0.47887 q -0.585666,0 -0.844048,0.33762 -0.258383,0.33418 -0.258383,1.12999 0,0.79582 0.265273,1.14033 0.265272,0.34106 0.850938,0.34106 0.5271,0 0.785482,-0.3824 0.258382,-0.38585 0.258382,-1.10588 0,-0.73725 -0.258382,-1.09898 -0.258382,-0.36174 -0.799262,-0.36174 z"
             style="stroke-width:0.50424254"
             id="path1102" />
          <path
             d="M 50.387505,196.10881 H 49.81562 v -5.36057 h 0.571885 z"
             style="stroke-width:0.50424254"
             id="path1104" />
          <path
             d="m 53.19526,196.17771 q -0.837158,0 -1.322917,-0.50987 -0.482313,-0.50988 -0.482313,-1.41594 0,-0.91295 0.447862,-1.45038 0.451308,-0.53744 1.209229,-0.53744 0.70969,0 1.123101,0.46854 0.413411,0.46508 0.413411,1.2299 v 0.36173 h -2.601047 q 0.01723,0.6649 0.334175,1.00941 0.320394,0.34451 0.89917,0.34451 0.609781,0 1.205783,-0.25493 v 0.50987 q -0.303168,0.13091 -0.575331,0.18604 -0.268717,0.0586 -0.651123,0.0586 z m -0.155029,-3.43476 q -0.454753,0 -0.726915,0.29628 -0.268718,0.29628 -0.316949,0.81993 h 1.974039 q 0,-0.54088 -0.241156,-0.82682 -0.241157,-0.28939 -0.689019,-0.28939 z"
             style="stroke-width:0.50424254"
             id="path1106" />
        </g>
        <path
           style="opacity:1;fill:#b7cfe4;fill-opacity:1;stroke:#000000;stroke-width:0.50424254;stroke-linecap:round;stroke-linejoin:round;stroke-miterlimit:4;stroke-dasharray:none;stroke-dashoffset:0;stroke-opacity:1;paint-order:normal"
           d="m 9.487879,193.44403 a 3.7417734,3.7417734 0 0 1 -3.7417733,3.74177 3.7417734,3.7417734 0 0 1 -3.7417734,-3.74177 3.7417734,3.7417734 0 0 1 3.7417734,-3.74177 3.7417734,3.7417734 0 0 1 3.7417733,3.74177 z"
           id="path1161-2" />
        <g
           aria-label="Slightly uncomfortable"
           style="font-style:normal;font-variant:normal;font-weight:normal;font-stretch:normal;font-size:7.05555534px;line-height:1.25;font-family:'Open Sans';-inkscape-font-specification:'Open Sans';letter-spacing:0px;word-spacing:0px;fill:#000000;fill-opacity:1;stroke:none;stroke-width:0.50424254"
           id="text1051-3-0-2">
          <path
             d="m 86.054581,180.45853 q 0,0.66491 -0.482314,1.03698 -0.482313,0.37207 -1.309136,0.37207 -0.895725,0 -1.378038,-0.23082 v -0.565 q 0.310058,0.13091 0.675239,0.20671 0.36518,0.0758 0.72347,0.0758 0.585666,0 0.881944,-0.22049 0.296278,-0.22393 0.296278,-0.62012 0,-0.26182 -0.106798,-0.42719 -0.103353,-0.16881 -0.3514,-0.31006 -0.244601,-0.14124 -0.747585,-0.32039 -0.7028,-0.25149 -1.005968,-0.596 -0.299723,-0.34451 -0.299723,-0.89917 0,-0.58222 0.437527,-0.92673 0.437527,-0.34451 1.157552,-0.34451 0.751031,0 1.381483,0.27561 l -0.18259,0.50987 q -0.623562,-0.26183 -1.212674,-0.26183 -0.465087,0 -0.726915,0.19982 -0.261827,0.19981 -0.261827,0.55466 0,0.26183 0.09646,0.43064 0.09646,0.16536 0.323839,0.30661 0.230821,0.1378 0.702799,0.30661 0.792372,0.2825 1.08865,0.60634 0.299724,0.32384 0.299724,0.8406 z"
             style="stroke-width:0.50424254"
             id="path1042" />
          <path
             d="m 87.570423,181.79868 h -0.571886 v -5.36057 h 0.571886 z"
             style="stroke-width:0.50424254"
             id="path1044" />
          <path
             d="m 89.354982,181.79868 h -0.571886 v -3.77583 h 0.571886 z m -0.620117,-4.79902 q 0,-0.19637 0.09646,-0.28595 0.09646,-0.093 0.241157,-0.093 0.137804,0 0.237712,0.093 0.09991,0.093 0.09991,0.28595 0,0.19292 -0.09991,0.28939 -0.09991,0.093 -0.237712,0.093 -0.144694,0 -0.241157,-0.093 -0.09646,-0.0965 -0.09646,-0.28939 z"
             style="stroke-width:0.50424254"
             id="path1046" />
          <path
             d="m 93.657906,178.02285 v 0.36174 l -0.699354,0.0827 q 0.09646,0.12058 0.172255,0.31695 0.07579,0.19292 0.07579,0.43752 0,0.55466 -0.378961,0.88539 -0.37896,0.33073 -1.040418,0.33073 -0.16881,0 -0.316949,-0.0276 -0.36518,0.19293 -0.36518,0.48576 0,0.15503 0.127468,0.23082 0.127469,0.0724 0.437527,0.0724 h 0.668349 q 0.613227,0 0.940511,0.25838 0.330729,0.25838 0.330729,0.75103 0,0.62701 -0.502984,0.95429 -0.502984,0.33073 -1.467611,0.33073 -0.740695,0 -1.143771,-0.27561 -0.399631,-0.2756 -0.399631,-0.77859 0,-0.34451 0.220486,-0.596 0.220486,-0.25149 0.620117,-0.34106 -0.144694,-0.0655 -0.244602,-0.20326 -0.09646,-0.13781 -0.09646,-0.3204 0,-0.2067 0.110243,-0.36173 0.110243,-0.15503 0.347954,-0.29973 -0.292833,-0.12057 -0.478868,-0.40996 -0.18259,-0.28939 -0.18259,-0.66146 0,-0.62012 0.37207,-0.95429 0.37207,-0.33762 1.054199,-0.33762 0.296279,0 0.53399,0.0689 z m -3.011013,4.40972 q 0,0.30662 0.258382,0.46509 0.258382,0.15848 0.740696,0.15848 0.720025,0 1.064534,-0.21705 0.347955,-0.21359 0.347955,-0.58222 0,-0.30661 -0.189481,-0.42719 -0.18948,-0.11713 -0.713134,-0.11713 h -0.685574 q -0.389296,0 -0.606337,0.18603 -0.217041,0.18604 -0.217041,0.53399 z m 0.310059,-3.20049 q 0,0.39619 0.223931,0.59945 0.223931,0.20326 0.623562,0.20326 0.837158,0 0.837158,-0.81305 0,-0.85093 -0.847493,-0.85093 -0.403076,0 -0.620117,0.21704 -0.217041,0.21704 -0.217041,0.64423 z"
             style="stroke-width:0.50424254"
             id="path1048" />
          <path
             d="m 97.016874,181.79868 v -2.44258 q 0,-0.46164 -0.210151,-0.68902 -0.210151,-0.22737 -0.658013,-0.22737 -0.596002,0 -0.871609,0.32384 -0.272163,0.32384 -0.272163,1.06109 v 1.97404 h -0.571886 v -5.36057 h 0.571886 v 1.62264 q 0,0.29283 -0.02756,0.48576 h 0.03445 q 0.16881,-0.27217 0.478869,-0.4272 0.313503,-0.15847 0.713134,-0.15847 0.692464,0 1.036974,0.33073 0.347955,0.32728 0.347955,1.04386 v 2.46325 z"
             style="stroke-width:0.50424254"
             id="path1050" />
          <path
             d="m 99.983101,181.3956 q 0.151589,0 0.292829,-0.0207 0.14125,-0.0241 0.22394,-0.0482 v 0.43752 q -0.093,0.0448 -0.27561,0.0724 -0.17915,0.031 -0.323841,0.031 -1.09554,0 -1.09554,-1.15411 v -2.2462 h -0.54088 v -0.27561 l 0.54088,-0.23771 0.241156,-0.80615 h 0.33073 v 0.87505 h 1.095535 v 0.44442 h -1.095535 v 2.22208 q 0,0.34107 0.161919,0.52366 0.16192,0.18259 0.444417,0.18259 z"
             style="stroke-width:0.50424254"
             id="path1052" />
          <path
             d="m 101.82623,181.79868 h -0.57189 v -5.36057 h 0.57189 z"
             style="stroke-width:0.50424254"
             id="path1054" />
          <path
             d="m 102.43945,178.02285 h 0.61323 l 0.82682,2.15319 q 0.27217,0.73725 0.33762,1.06453 h 0.0276 q 0.0448,-0.1757 0.18604,-0.59945 0.14469,-0.42719 0.93707,-2.61827 h 0.61322 l -1.62264,4.29948 q -0.24115,0.63734 -0.56499,0.90262 -0.3204,0.26871 -0.78893,0.26871 -0.26183,0 -0.51676,-0.0586 v -0.4582 q 0.18948,0.0413 0.42374,0.0413 0.58911,0 0.84061,-0.66146 l 0.21015,-0.53743 z"
             style="stroke-width:0.50424254"
             id="path1056" />
          <path
             d="m 108.96447,178.02285 v 2.44946 q 0,0.46165 0.21015,0.68902 0.21015,0.22738 0.65801,0.22738 0.59256,0 0.86472,-0.32384 0.27561,-0.32384 0.27561,-1.05764 v -1.98438 h 0.57188 v 3.77583 h -0.47198 l -0.0827,-0.50643 h -0.031 q -0.1757,0.27905 -0.48921,0.42719 -0.31006,0.14814 -0.70969,0.14814 -0.68902,0 -1.03353,-0.32729 -0.34106,-0.32728 -0.34106,-1.04731 v -2.47013 z"
             style="stroke-width:0.50424254"
             id="path1058" />
          <path
             d="m 115.34134,181.79868 v -2.44258 q 0,-0.46164 -0.21015,-0.68902 -0.21015,-0.22737 -0.65802,-0.22737 -0.59255,0 -0.86816,0.32039 -0.27561,0.3204 -0.27561,1.05765 v 1.98093 h -0.57188 v -3.77583 h 0.46508 l 0.093,0.51677 h 0.0276 q 0.1757,-0.27906 0.49265,-0.43064 0.31695,-0.15503 0.70624,-0.15503 0.68213,0 1.02664,0.33073 0.34451,0.32728 0.34451,1.05075 v 2.46325 z"
             style="stroke-width:0.50424254"
             id="path1060" />
          <path
             d="m 118.59695,181.86758 q -0.81993,0 -1.27124,-0.50299 -0.44786,-0.50643 -0.44786,-1.42971 0,-0.9474 0.45475,-1.46417 0.4582,-0.51676 1.30225,-0.51676 0.27216,0 0.54432,0.0586 0.27216,0.0586 0.42719,0.1378 l -0.1757,0.48576 q -0.18948,-0.0758 -0.41341,-0.12403 -0.22393,-0.0517 -0.39618,-0.0517 -1.15066,0 -1.15066,1.46761 0,0.69591 0.27905,1.06798 0.2825,0.37207 0.83371,0.37207 0.47198,0 0.96807,-0.20326 v 0.50643 q -0.37896,0.19637 -0.95429,0.19637 z"
             style="stroke-width:0.50424254"
             id="path1062" />
          <path
             d="m 123.70603,179.90732 q 0,0.92328 -0.46509,1.44349 -0.46509,0.51677 -1.28502,0.51677 -0.50643,0 -0.89917,-0.23771 -0.39274,-0.23772 -0.60634,-0.68213 -0.21359,-0.44442 -0.21359,-1.04042 0,-0.92329 0.46164,-1.43661 0.46164,-0.51676 1.28157,-0.51676 0.79238,0 1.25746,0.5271 0.46854,0.5271 0.46854,1.42627 z m -2.87666,0 q 0,0.72347 0.28939,1.10243 0.28939,0.37896 0.85094,0.37896 0.56155,0 0.85094,-0.37552 0.29283,-0.37896 0.29283,-1.10587 0,-0.72003 -0.29283,-1.0921 -0.28939,-0.37551 -0.85783,-0.37551 -0.56155,0 -0.8475,0.36862 -0.28594,0.36863 -0.28594,1.09899 z"
             style="stroke-width:0.50424254"
             id="path1064" />
          <path
             d="m 129.52135,181.79868 v -2.45636 q 0,-0.4513 -0.19293,-0.67524 -0.19292,-0.22737 -0.59944,-0.22737 -0.53399,0 -0.78893,0.30661 -0.25494,0.30661 -0.25494,0.94396 v 2.1084 h -0.57188 v -2.45636 q 0,-0.4513 -0.19293,-0.67524 -0.19292,-0.22737 -0.60289,-0.22737 -0.53743,0 -0.78893,0.32384 -0.24804,0.32039 -0.24804,1.0542 v 1.98093 h -0.57189 v -3.77583 h 0.46509 l 0.093,0.51677 h 0.0276 q 0.16192,-0.27561 0.45475,-0.43064 0.29628,-0.15503 0.66146,-0.15503 0.88539,0 1.15755,0.64079 h 0.0276 q 0.16881,-0.29628 0.48921,-0.46854 0.32039,-0.17225 0.73036,-0.17225 0.64078,0 0.95773,0.33073 0.3204,0.32728 0.3204,1.05075 v 2.46325 z"
             style="stroke-width:0.50424254"
             id="path1066" />
          <path
             d="m 132.97333,178.46727 h -0.96118 v 3.33141 h -0.57188 v -3.33141 h -0.67524 v -0.25838 l 0.67524,-0.20671 v -0.21015 q 0,-1.39182 1.21611,-1.39182 0.29973,0 0.7028,0.12058 l -0.14814,0.4582 q -0.33072,-0.1068 -0.56499,-0.1068 -0.32384,0 -0.47887,0.21704 -0.15503,0.2136 -0.15503,0.68902 v 0.2446 h 0.96118 z"
             style="stroke-width:0.50424254"
             id="path1068" />
          <path
             d="m 136.92141,179.90732 q 0,0.92328 -0.46509,1.44349 -0.46508,0.51677 -1.28502,0.51677 -0.50643,0 -0.89917,-0.23771 -0.39274,-0.23772 -0.60633,-0.68213 -0.2136,-0.44442 -0.2136,-1.04042 0,-0.92329 0.46164,-1.43661 0.46165,-0.51676 1.28158,-0.51676 0.79237,0 1.25746,0.5271 0.46853,0.5271 0.46853,1.42627 z m -2.87665,0 q 0,0.72347 0.28939,1.10243 0.28938,0.37896 0.85093,0.37896 0.56155,0 0.85094,-0.37552 0.29284,-0.37896 0.29284,-1.10587 0,-0.72003 -0.29284,-1.0921 -0.28939,-0.37551 -0.85783,-0.37551 -0.56155,0 -0.84749,0.36862 -0.28594,0.36863 -0.28594,1.09899 z"
             style="stroke-width:0.50424254"
             id="path1070" />
          <path
             d="m 139.64648,177.95395 q 0.2515,0 0.45131,0.0413 l -0.0792,0.53054 q -0.23427,-0.0517 -0.41342,-0.0517 -0.45819,0 -0.78548,0.37207 -0.32384,0.37207 -0.32384,0.92673 v 2.02572 h -0.57188 v -3.77583 h 0.47198 l 0.0654,0.69936 h 0.0276 q 0.21015,-0.36863 0.50643,-0.56845 0.29628,-0.19981 0.65112,-0.19981 z"
             style="stroke-width:0.50424254"
             id="path1072" />
          <path
             d="m 142.0236,181.3956 q 0.15159,0 0.29283,-0.0207 0.14125,-0.0241 0.22394,-0.0482 v 0.43752 q -0.093,0.0448 -0.27561,0.0724 -0.17915,0.031 -0.32384,0.031 -1.09554,0 -1.09554,-1.15411 v -2.2462 h -0.54088 v -0.27561 l 0.54088,-0.23771 0.24116,-0.80615 h 0.33072 v 0.87505 h 1.09554 v 0.44442 h -1.09554 v 2.22208 q 0,0.34107 0.16192,0.52366 0.16192,0.18259 0.44442,0.18259 z"
             style="stroke-width:0.50424254"
             id="path1074" />
          <path
             d="m 145.61683,181.79868 -0.11368,-0.53744 h -0.0276 q -0.2825,0.35485 -0.565,0.48231 -0.27905,0.12403 -0.69935,0.12403 -0.56156,0 -0.88195,-0.28939 -0.31695,-0.28939 -0.31695,-0.82338 0,-1.14377 1.82935,-1.19889 l 0.64079,-0.0207 v -0.23427 q 0,-0.44442 -0.19293,-0.65457 -0.18948,-0.21359 -0.60978,-0.21359 -0.47198,0 -1.06798,0.28939 l -0.1757,-0.43753 q 0.27905,-0.15159 0.60978,-0.23771 0.33418,-0.0861 0.66835,-0.0861 0.67524,0 0.99908,0.29972 0.32728,0.29973 0.32728,0.96118 v 2.57694 z m -1.29191,-0.40308 q 0.53399,0 0.83716,-0.29283 0.30662,-0.29284 0.30662,-0.81994 v -0.34106 l -0.57189,0.0241 q -0.68213,0.0241 -0.9853,0.2136 -0.29972,0.18604 -0.29972,0.58222 0,0.31006 0.18603,0.47198 0.18948,0.16192 0.5271,0.16192 z"
             style="stroke-width:0.50424254"
             id="path1076" />
          <path
             d="m 148.9758,177.96084 q 0.74414,0 1.15411,0.50987 0.41341,0.50643 0.41341,1.43661 0,0.93017 -0.41686,1.44694 -0.41341,0.51332 -1.15066,0.51332 -0.36862,0 -0.67524,-0.13436 -0.30317,-0.13781 -0.50987,-0.4203 h -0.0413 l -0.12058,0.48576 h -0.40997 v -5.36057 h 0.57189 v 1.30224 q 0,0.43753 -0.0276,0.78548 h 0.0276 q 0.39963,-0.56499 1.18511,-0.56499 z m -0.0827,0.47887 q -0.58567,0 -0.84405,0.33762 -0.25838,0.33417 -0.25838,1.12999 0,0.79582 0.26527,1.14032 0.26527,0.34107 0.85094,0.34107 0.5271,0 0.78548,-0.38241 0.25838,-0.38585 0.25838,-1.10587 0,-0.73725 -0.25838,-1.09899 -0.25838,-0.36173 -0.79926,-0.36173 z"
             style="stroke-width:0.50424254"
             id="path1078" />
          <path
             d="m 152.11428,181.79868 h -0.57189 v -5.36057 h 0.57189 z"
             style="stroke-width:0.50424254"
             id="path1080" />
          <path
             d="m 154.92204,181.86758 q -0.83716,0 -1.32292,-0.50988 -0.48231,-0.50987 -0.48231,-1.41593 0,-0.91295 0.44786,-1.45039 0.45131,-0.53743 1.20923,-0.53743 0.70969,0 1.1231,0.46853 0.41341,0.46509 0.41341,1.2299 v 0.36174 h -2.60105 q 0.0172,0.6649 0.33418,1.00941 0.32039,0.34451 0.89917,0.34451 0.60978,0 1.20578,-0.25494 v 0.50988 q -0.30317,0.13091 -0.57533,0.18603 -0.26872,0.0586 -0.65112,0.0586 z m -0.15503,-3.43476 q -0.45476,0 -0.72692,0.29628 -0.26872,0.29627 -0.31695,0.81993 h 1.97404 q 0,-0.54088 -0.24116,-0.82682 -0.24115,-0.28939 -0.68901,-0.28939 z"
             style="stroke-width:0.50424254"
             id="path1082" />
        </g>
        <path
           style="opacity:1;fill:#fecb85;fill-opacity:1;stroke:#000000;stroke-width:0.50424254;stroke-linecap:round;stroke-linejoin:round;stroke-miterlimit:4;stroke-dasharray:none;stroke-dashoffset:0;stroke-opacity:1;paint-order:normal"
           d="m 78.279546,179.94693 a 3.7417734,3.7417734 0 0 1 -3.741773,3.74177 3.7417734,3.7417734 0 0 1 -3.741773,-3.74177 3.7417734,3.7417734 0 0 1 3.741773,-3.74177 3.7417734,3.7417734 0 0 1 3.741773,3.74177 z"
           id="path1161-2-3" />
        <g
           aria-label="Moderately uncomfortable"
           style="font-style:normal;font-variant:normal;font-weight:normal;font-stretch:normal;font-size:7.05555534px;line-height:1.25;font-family:'Open Sans';-inkscape-font-specification:'Open Sans';letter-spacing:0px;word-spacing:0px;fill:#000000;fill-opacity:1;stroke:none;stroke-width:0.50424254"
           id="text1051-3-0-2-1">
          <path
             d="m 85.114075,195.29578 -1.708767,-4.46485 h -0.02756 q 0.04823,0.53055 0.04823,1.26091 v 3.20394 h -0.54088 v -5.03673 h 0.881944 l 1.595079,4.15478 h 0.02756 l 1.60886,-4.15478 h 0.875054 v 5.03673 h -0.585666 v -3.24528 q 0,-0.55811 0.04823,-1.21268 h -0.02756 l -1.722547,4.45796 z"
             style="stroke-width:0.50424254"
             id="path994" />
          <path
             d="m 92.428013,193.40442 q 0,0.92328 -0.465088,1.44349 -0.465088,0.51677 -1.285021,0.51677 -0.506429,0 -0.899169,-0.23771 -0.392741,-0.23771 -0.606337,-0.68213 -0.213596,-0.44442 -0.213596,-1.04042 0,-0.92329 0.461643,-1.43661 0.461642,-0.51676 1.281575,-0.51676 0.792372,0 1.25746,0.5271 0.468533,0.5271 0.468533,1.42627 z m -2.876655,0 q 0,0.72347 0.289388,1.10243 0.289388,0.37896 0.850939,0.37896 0.56155,0 0.850938,-0.37552 0.292833,-0.37896 0.292833,-1.10587 0,-0.72003 -0.292833,-1.0921 -0.289388,-0.37551 -0.857828,-0.37551 -0.561551,0 -0.847494,0.36862 -0.285943,0.36863 -0.285943,1.09899 z"
             style="stroke-width:0.50424254"
             id="path996" />
          <path
             d="m 96.000577,194.78935 h -0.03101 q -0.396186,0.57533 -1.185113,0.57533 -0.740696,0 -1.154107,-0.50643 -0.409966,-0.50643 -0.409966,-1.44005 0,-0.93362 0.413411,-1.45039 0.413412,-0.51676 1.150662,-0.51676 0.768256,0 1.178223,0.55811 h 0.04479 l -0.02412,-0.27217 -0.01378,-0.26527 v -1.53651 h 0.571886 v 5.36057 h -0.465088 z m -1.143772,0.0965 q 0.585666,0 0.847493,-0.31695 0.265273,-0.32039 0.265273,-1.03008 v -0.12058 q 0,-0.80271 -0.268718,-1.14377 -0.265272,-0.34451 -0.850938,-0.34451 -0.502984,0 -0.771702,0.39274 -0.265272,0.38929 -0.265272,1.10243 0,0.72347 0.265272,1.09209 0.265273,0.36863 0.778592,0.36863 z"
             style="stroke-width:0.50424254"
             id="path998" />
          <path
             d="m 99.349209,195.36468 q -0.837158,0 -1.322917,-0.50988 -0.482313,-0.50987 -0.482313,-1.41593 0,-0.91295 0.447862,-1.45039 0.451308,-0.53743 1.209229,-0.53743 0.709689,0 1.1231,0.46853 0.41341,0.46509 0.41341,1.2299 v 0.36174 h -2.601045 q 0.01723,0.6649 0.334174,1.00941 0.320394,0.34451 0.89917,0.34451 0.609782,0 1.205781,-0.25494 v 0.50988 q -0.30317,0.13091 -0.57533,0.18603 -0.268716,0.0586 -0.651121,0.0586 z m -0.15503,-3.43476 q -0.454752,0 -0.726915,0.29628 -0.268717,0.29627 -0.316948,0.81993 h 1.974044 q 0,-0.54088 -0.241161,-0.82682 -0.241157,-0.28939 -0.68902,-0.28939 z"
             style="stroke-width:0.50424254"
             id="path1000" />
          <path
             d="m 103.43509,191.45105 q 0.2515,0 0.45131,0.0413 l -0.0792,0.53055 q -0.23426,-0.0517 -0.41341,-0.0517 -0.4582,0 -0.78548,0.37207 -0.32384,0.37207 -0.32384,0.92673 v 2.02572 h -0.57188 v -3.77583 h 0.47197 l 0.0655,0.69936 h 0.0276 q 0.21015,-0.36863 0.50643,-0.56844 0.29628,-0.19982 0.65112,-0.19982 z"
             style="stroke-width:0.50424254"
             id="path1002" />
          <path
             d="m 106.91464,195.29578 -0.11369,-0.53744 h -0.0276 q -0.2825,0.35485 -0.565,0.48231 -0.27905,0.12403 -0.69935,0.12403 -0.56155,0 -0.88195,-0.28939 -0.31694,-0.28939 -0.31694,-0.82338 0,-1.14377 1.82934,-1.19889 l 0.64079,-0.0207 v -0.23427 q 0,-0.44442 -0.19293,-0.65457 -0.18948,-0.21359 -0.60978,-0.21359 -0.47198,0 -1.06798,0.28939 l -0.1757,-0.43753 q 0.27906,-0.15159 0.60978,-0.23771 0.33418,-0.0861 0.66835,-0.0861 0.67524,0 0.99908,0.29972 0.32728,0.29973 0.32728,0.96119 v 2.57693 z m -1.29191,-0.40308 q 0.53399,0 0.83716,-0.29283 0.30661,-0.29284 0.30661,-0.81994 v -0.34106 l -0.57189,0.0241 q -0.68213,0.0241 -0.98529,0.21359 -0.29973,0.18604 -0.29973,0.58222 0,0.31006 0.18604,0.47198 0.18948,0.16192 0.5271,0.16192 z"
             style="stroke-width:0.50424254"
             id="path1004" />
          <path
             d="m 109.73617,194.8927 q 0.15159,0 0.29283,-0.0207 0.14125,-0.0241 0.22394,-0.0482 v 0.43753 q -0.093,0.0448 -0.27561,0.0723 -0.17915,0.031 -0.32384,0.031 -1.09554,0 -1.09554,-1.15411 v -2.2462 h -0.54088 v -0.27561 l 0.54088,-0.23771 0.24116,-0.80615 h 0.33072 v 0.87505 h 1.09554 v 0.44442 h -1.09554 v 2.22209 q 0,0.34106 0.16192,0.52365 0.16192,0.18259 0.44442,0.18259 z"
             style="stroke-width:0.50424254"
             id="path1006" />
          <path
             d="m 112.60249,195.36468 q -0.83716,0 -1.32292,-0.50988 -0.48231,-0.50987 -0.48231,-1.41593 0,-0.91295 0.44786,-1.45039 0.45131,-0.53743 1.20923,-0.53743 0.70969,0 1.1231,0.46853 0.41341,0.46509 0.41341,1.2299 v 0.36174 h -2.60104 q 0.0172,0.6649 0.33417,1.00941 0.3204,0.34451 0.89917,0.34451 0.60978,0 1.20579,-0.25494 v 0.50988 q -0.30317,0.13091 -0.57534,0.18603 -0.26871,0.0586 -0.65112,0.0586 z m -0.15503,-3.43476 q -0.45475,0 -0.72691,0.29628 -0.26872,0.29627 -0.31695,0.81993 h 1.97404 q 0,-0.54088 -0.24116,-0.82682 -0.24116,-0.28939 -0.68902,-0.28939 z"
             style="stroke-width:0.50424254"
             id="path1008" />
          <path
             d="m 115.53771,195.29578 h -0.57188 v -5.36057 h 0.57188 z"
             style="stroke-width:0.50424254"
             id="path1010" />
          <path
             d="m 116.15094,191.51995 h 0.61323 l 0.82682,2.15319 q 0.27216,0.73725 0.33762,1.06453 h 0.0276 q 0.0448,-0.1757 0.18604,-0.59945 0.14469,-0.42719 0.93706,-2.61827 h 0.61323 l -1.62264,4.29948 q -0.24116,0.63734 -0.565,0.90262 -0.32039,0.26871 -0.78892,0.26871 -0.26183,0 -0.51677,-0.0586 v -0.4582 q 0.18948,0.0413 0.42375,0.0413 0.58911,0 0.8406,-0.66146 l 0.21015,-0.53743 z"
             style="stroke-width:0.50424254"
             id="path1012" />
          <path
             d="m 122.67595,191.51995 v 2.44946 q 0,0.46165 0.21015,0.68902 0.21015,0.22738 0.65801,0.22738 0.59256,0 0.86472,-0.32384 0.27561,-0.32384 0.27561,-1.05764 v -1.98438 h 0.57189 v 3.77583 h -0.47198 l -0.0827,-0.50643 h -0.031 q -0.1757,0.27905 -0.4892,0.42719 -0.31006,0.14814 -0.70969,0.14814 -0.68902,0 -1.03353,-0.32729 -0.34107,-0.32728 -0.34107,-1.0473 v -2.47014 z"
             style="stroke-width:0.50424254"
             id="path1014" />
          <path
             d="m 129.05282,195.29578 v -2.44258 q 0,-0.46164 -0.21015,-0.68902 -0.21015,-0.22737 -0.65801,-0.22737 -0.59256,0 -0.86817,0.32039 -0.2756,0.3204 -0.2756,1.05765 v 1.98093 H 126.469 v -3.77583 h 0.46509 l 0.093,0.51677 h 0.0276 q 0.1757,-0.27906 0.49264,-0.43064 0.31695,-0.15503 0.70625,-0.15503 0.68213,0 1.02664,0.33073 0.34451,0.32728 0.34451,1.05075 v 2.46325 z"
             style="stroke-width:0.50424254"
             id="path1016" />
          <path
             d="m 132.30844,195.36468 q -0.81993,0 -1.27124,-0.50299 -0.44786,-0.50642 -0.44786,-1.42971 0,-0.9474 0.45475,-1.46417 0.4582,-0.51676 1.30224,-0.51676 0.27217,0 0.54433,0.0586 0.27216,0.0586 0.42719,0.1378 l -0.1757,0.48576 q -0.18948,-0.0758 -0.41341,-0.12402 -0.22393,-0.0517 -0.39619,-0.0517 -1.15066,0 -1.15066,1.46761 0,0.69591 0.27905,1.06798 0.2825,0.37207 0.83372,0.37207 0.47198,0 0.96807,-0.20326 v 0.50643 q -0.37896,0.19637 -0.95429,0.19637 z"
             style="stroke-width:0.50424254"
             id="path1018" />
          <path
             d="m 137.41751,193.40442 q 0,0.92328 -0.46508,1.44349 -0.46509,0.51677 -1.28503,0.51677 -0.50642,0 -0.89916,-0.23771 -0.39275,-0.23771 -0.60634,-0.68213 -0.2136,-0.44442 -0.2136,-1.04042 0,-0.92329 0.46165,-1.43661 0.46164,-0.51676 1.28157,-0.51676 0.79237,0 1.25746,0.5271 0.46853,0.5271 0.46853,1.42627 z m -2.87665,0 q 0,0.72347 0.28939,1.10243 0.28938,0.37896 0.85094,0.37896 0.56155,0 0.85093,-0.37552 0.29284,-0.37896 0.29284,-1.10587 0,-0.72003 -0.29284,-1.0921 -0.28938,-0.37551 -0.85782,-0.37551 -0.56156,0 -0.8475,0.36862 -0.28594,0.36863 -0.28594,1.09899 z"
             style="stroke-width:0.50424254"
             id="path1020" />
          <path
             d="m 143.23283,195.29578 v -2.45636 q 0,-0.4513 -0.19292,-0.67524 -0.19293,-0.22737 -0.59945,-0.22737 -0.53399,0 -0.78893,0.30661 -0.25493,0.30662 -0.25493,0.94396 v 2.1084 h -0.57189 v -2.45636 q 0,-0.4513 -0.19292,-0.67524 -0.19293,-0.22737 -0.6029,-0.22737 -0.53743,0 -0.78892,0.32384 -0.24805,0.32039 -0.24805,1.0542 v 1.98093 h -0.57189 v -3.77583 h 0.46509 l 0.093,0.51677 h 0.0276 q 0.16192,-0.27561 0.45475,-0.43064 0.29628,-0.15503 0.66146,-0.15503 0.88539,0 1.15755,0.64079 h 0.0276 q 0.16881,-0.29628 0.48921,-0.46854 0.32039,-0.17225 0.73036,-0.17225 0.64079,0 0.95773,0.33073 0.3204,0.32728 0.3204,1.05075 v 2.46325 z"
             style="stroke-width:0.50424254"
             id="path1022" />
          <path
             d="m 146.68482,191.96437 h -0.96118 v 3.33141 h -0.57189 v -3.33141 h -0.67524 v -0.25838 l 0.67524,-0.20671 v -0.21015 q 0,-1.39182 1.21612,-1.39182 0.29972,0 0.7028,0.12058 l -0.14814,0.4582 q -0.33073,-0.1068 -0.56499,-0.1068 -0.32384,0 -0.47887,0.21704 -0.15503,0.2136 -0.15503,0.68902 v 0.2446 h 0.96118 z"
             style="stroke-width:0.50424254"
             id="path1024" />
          <path
             d="m 150.6329,193.40442 q 0,0.92328 -0.46509,1.44349 -0.46509,0.51677 -1.28502,0.51677 -0.50643,0 -0.89917,-0.23771 -0.39274,-0.23771 -0.60634,-0.68213 -0.21359,-0.44442 -0.21359,-1.04042 0,-0.92329 0.46164,-1.43661 0.46164,-0.51676 1.28158,-0.51676 0.79237,0 1.25746,0.5271 0.46853,0.5271 0.46853,1.42627 z m -2.87666,0 q 0,0.72347 0.28939,1.10243 0.28939,0.37896 0.85094,0.37896 0.56155,0 0.85094,-0.37552 0.29283,-0.37896 0.29283,-1.10587 0,-0.72003 -0.29283,-1.0921 -0.28939,-0.37551 -0.85783,-0.37551 -0.56155,0 -0.84749,0.36862 -0.28595,0.36863 -0.28595,1.09899 z"
             style="stroke-width:0.50424254"
             id="path1026" />
          <path
             d="m 153.35797,191.45105 q 0.25149,0 0.45131,0.0413 l -0.0792,0.53055 q -0.23427,-0.0517 -0.41341,-0.0517 -0.4582,0 -0.78549,0.37207 -0.32383,0.37207 -0.32383,0.92673 v 2.02572 h -0.57189 v -3.77583 h 0.47198 l 0.0654,0.69936 h 0.0276 q 0.21015,-0.36863 0.50642,-0.56844 0.29628,-0.19982 0.65113,-0.19982 z"
             style="stroke-width:0.50424254"
             id="path1028" />
          <path
             d="m 155.73509,194.8927 q 0.15158,0 0.29283,-0.0207 0.14125,-0.0241 0.22393,-0.0482 v 0.43753 q -0.093,0.0448 -0.27561,0.0723 -0.17914,0.031 -0.32383,0.031 -1.09554,0 -1.09554,-1.15411 v -2.2462 h -0.54088 v -0.27561 l 0.54088,-0.23771 0.24115,-0.80615 h 0.33073 v 0.87505 h 1.09554 v 0.44442 h -1.09554 v 2.22209 q 0,0.34106 0.16192,0.52365 0.16192,0.18259 0.44442,0.18259 z"
             style="stroke-width:0.50424254"
             id="path1030" />
          <path
             d="m 159.32832,195.29578 -0.11369,-0.53744 h -0.0276 q -0.2825,0.35485 -0.565,0.48231 -0.27905,0.12403 -0.69935,0.12403 -0.56155,0 -0.88195,-0.28939 -0.31694,-0.28939 -0.31694,-0.82338 0,-1.14377 1.82934,-1.19889 l 0.64079,-0.0207 v -0.23427 q 0,-0.44442 -0.19293,-0.65457 -0.18948,-0.21359 -0.60978,-0.21359 -0.47198,0 -1.06798,0.28939 l -0.1757,-0.43753 q 0.27905,-0.15159 0.60978,-0.23771 0.33418,-0.0861 0.66835,-0.0861 0.67524,0 0.99908,0.29972 0.32728,0.29973 0.32728,0.96119 v 2.57693 z m -1.29191,-0.40308 q 0.53399,0 0.83715,-0.29283 0.30662,-0.29284 0.30662,-0.81994 v -0.34106 l -0.57189,0.0241 q -0.68213,0.0241 -0.98529,0.21359 -0.29973,0.18604 -0.29973,0.58222 0,0.31006 0.18604,0.47198 0.18948,0.16192 0.5271,0.16192 z"
             style="stroke-width:0.50424254"
             id="path1032" />
          <path
             d="m 162.68729,191.45794 q 0.74414,0 1.1541,0.50987 0.41342,0.50643 0.41342,1.43661 0,0.93017 -0.41686,1.44694 -0.41341,0.51332 -1.15066,0.51332 -0.36863,0 -0.67524,-0.13436 -0.30317,-0.1378 -0.50988,-0.4203 h -0.0413 l -0.12058,0.48576 h -0.40996 v -5.36057 h 0.57188 v 1.30224 q 0,0.43753 -0.0276,0.78549 h 0.0276 q 0.39964,-0.565 1.18512,-0.565 z m -0.0827,0.47887 q -0.58566,0 -0.84404,0.33762 -0.25839,0.33417 -0.25839,1.12999 0,0.79582 0.26528,1.14033 0.26527,0.34106 0.85094,0.34106 0.52709,0 0.78548,-0.38241 0.25838,-0.38585 0.25838,-1.10587 0,-0.73725 -0.25838,-1.09899 -0.25839,-0.36173 -0.79927,-0.36173 z"
             style="stroke-width:0.50424254"
             id="path1034" />
          <path
             d="m 165.82577,195.29578 h -0.57189 v -5.36057 h 0.57189 z"
             style="stroke-width:0.50424254"
             id="path1036" />
          <path
             d="m 168.63352,195.36468 q -0.83716,0 -1.32291,-0.50988 -0.48232,-0.50987 -0.48232,-1.41593 0,-0.91295 0.44786,-1.45039 0.45131,-0.53743 1.20923,-0.53743 0.70969,0 1.1231,0.46853 0.41342,0.46509 0.41342,1.2299 v 0.36174 h -2.60105 q 0.0172,0.6649 0.33417,1.00941 0.3204,0.34451 0.89917,0.34451 0.60978,0 1.20579,-0.25494 v 0.50988 q -0.30317,0.13091 -0.57534,0.18603 -0.26871,0.0586 -0.65112,0.0586 z m -0.15503,-3.43476 q -0.45475,0 -0.72691,0.29628 -0.26872,0.29627 -0.31695,0.81993 h 1.97404 q 0,-0.54088 -0.24116,-0.82682 -0.24115,-0.28939 -0.68902,-0.28939 z"
             style="stroke-width:0.50424254"
             id="path1038" />
        </g>
        <path
           style="opacity:1;fill:#fc9a67;fill-opacity:1;stroke:#000000;stroke-width:0.50424254;stroke-linecap:round;stroke-linejoin:round;stroke-miterlimit:4;stroke-dasharray:none;stroke-dashoffset:0;stroke-opacity:1;paint-order:normal"
           d="m 78.279546,193.44403 a 3.7417734,3.7417734 0 0 1 -3.741773,3.74177 3.7417734,3.7417734 0 0 1 -3.741773,-3.74177 3.7417734,3.7417734 0 0 1 3.741773,-3.74177 3.7417734,3.7417734 0 0 1 3.741773,3.74177 z"
           id="path1161-2-3-7" />
        <g
           aria-label="Very uncomfortable"
           style="font-style:normal;font-variant:normal;font-weight:normal;font-stretch:normal;font-size:7.05555534px;line-height:1.25;font-family:'Open Sans';-inkscape-font-specification:'Open Sans';letter-spacing:0px;word-spacing:0px;fill:#000000;fill-opacity:1;stroke:none;stroke-width:0.50424254"
           id="text1051-3-0-2-1-7">
          <path
             d="m 195.48396,176.76195 h 0.63045 l -1.81556,5.03673 h -0.57878 l -1.80523,-5.03673 h 0.62012 l 1.15755,3.25906 q 0.19982,0.56155 0.31695,1.09209 0.12402,-0.5581 0.32384,-1.11276 z"
             style="stroke-width:0.50424254"
             id="path958" />
          <path
             d="m 198.31583,181.86758 q -0.83716,0 -1.32292,-0.50988 -0.48231,-0.50987 -0.48231,-1.41593 0,-0.91295 0.44786,-1.45039 0.45131,-0.53743 1.20923,-0.53743 0.70969,0 1.1231,0.46853 0.41341,0.46509 0.41341,1.2299 v 0.36174 h -2.60105 q 0.0172,0.6649 0.33418,1.00941 0.32039,0.34451 0.89917,0.34451 0.60978,0 1.20578,-0.25494 v 0.50988 q -0.30317,0.13091 -0.57533,0.18603 -0.26872,0.0586 -0.65112,0.0586 z m -0.15503,-3.43476 q -0.45475,0 -0.72692,0.29628 -0.26871,0.29627 -0.31695,0.81993 h 1.97404 q 0,-0.54088 -0.24115,-0.82682 -0.24116,-0.28939 -0.68902,-0.28939 z"
             style="stroke-width:0.50424254"
             id="path960" />
          <path
             d="m 202.40171,177.95395 q 0.25149,0 0.45131,0.0413 l -0.0792,0.53054 q -0.23427,-0.0517 -0.41341,-0.0517 -0.4582,0 -0.78548,0.37207 -0.32384,0.37207 -0.32384,0.92673 v 2.02572 h -0.57189 v -3.77583 h 0.47198 l 0.0655,0.69936 h 0.0276 q 0.21015,-0.36863 0.50643,-0.56845 0.29628,-0.19981 0.65112,-0.19981 z"
             style="stroke-width:0.50424254"
             id="path962" />
          <path
             d="m 202.95982,178.02285 h 0.61322 l 0.82683,2.15319 q 0.27216,0.73725 0.33762,1.06453 h 0.0276 q 0.0448,-0.1757 0.18603,-0.59945 0.1447,-0.42719 0.93707,-2.61827 h 0.61322 l -1.62264,4.29948 q -0.24115,0.63734 -0.56499,0.90262 -0.32039,0.26871 -0.78893,0.26871 -0.26182,0 -0.51676,-0.0586 v -0.4582 q 0.18948,0.0413 0.42374,0.0413 0.58912,0 0.84061,-0.66146 l 0.21015,-0.53743 z"
             style="stroke-width:0.50424254"
             id="path964" />
          <path
             d="m 209.48483,178.02285 v 2.44946 q 0,0.46165 0.21015,0.68902 0.21015,0.22738 0.65801,0.22738 0.59256,0 0.86472,-0.32384 0.27561,-0.32384 0.27561,-1.05764 v -1.98438 h 0.57188 v 3.77583 h -0.47198 l -0.0827,-0.50643 h -0.031 q -0.1757,0.27905 -0.48921,0.42719 -0.31006,0.14814 -0.70969,0.14814 -0.68902,0 -1.03352,-0.32729 -0.34107,-0.32728 -0.34107,-1.04731 v -2.47013 z"
             style="stroke-width:0.50424254"
             id="path966" />
          <path
             d="m 215.8617,181.79868 v -2.44258 q 0,-0.46164 -0.21015,-0.68902 -0.21015,-0.22737 -0.65802,-0.22737 -0.59255,0 -0.86816,0.32039 -0.27561,0.3204 -0.27561,1.05765 v 1.98093 h -0.57188 v -3.77583 h 0.46508 l 0.093,0.51677 h 0.0276 q 0.1757,-0.27906 0.49265,-0.43064 0.31695,-0.15503 0.70625,-0.15503 0.68212,0 1.02663,0.33073 0.34451,0.32728 0.34451,1.05075 v 2.46325 z"
             style="stroke-width:0.50424254"
             id="path968" />
          <path
             d="m 219.11731,181.86758 q -0.81993,0 -1.27124,-0.50299 -0.44786,-0.50643 -0.44786,-1.42971 0,-0.9474 0.45475,-1.46417 0.4582,-0.51676 1.30225,-0.51676 0.27216,0 0.54433,0.0586 0.27216,0.0586 0.42719,0.1378 l -0.1757,0.48576 q -0.18948,-0.0758 -0.41341,-0.12403 -0.22394,-0.0517 -0.39619,-0.0517 -1.15066,0 -1.15066,1.46761 0,0.69591 0.27905,1.06798 0.2825,0.37207 0.83371,0.37207 0.47198,0 0.96808,-0.20326 v 0.50643 q -0.37896,0.19637 -0.9543,0.19637 z"
             style="stroke-width:0.50424254"
             id="path970" />
          <path
             d="m 224.22639,179.90732 q 0,0.92328 -0.46509,1.44349 -0.46509,0.51677 -1.28502,0.51677 -0.50643,0 -0.89917,-0.23771 -0.39274,-0.23772 -0.60634,-0.68213 -0.21359,-0.44442 -0.21359,-1.04042 0,-0.92329 0.46164,-1.43661 0.46164,-0.51676 1.28158,-0.51676 0.79237,0 1.25746,0.5271 0.46853,0.5271 0.46853,1.42627 z m -2.87666,0 q 0,0.72347 0.28939,1.10243 0.28939,0.37896 0.85094,0.37896 0.56155,0 0.85094,-0.37552 0.29283,-0.37896 0.29283,-1.10587 0,-0.72003 -0.29283,-1.0921 -0.28939,-0.37551 -0.85783,-0.37551 -0.56155,0 -0.84749,0.36862 -0.28595,0.36863 -0.28595,1.09899 z"
             style="stroke-width:0.50424254"
             id="path972" />
          <path
             d="m 230.04171,181.79868 v -2.45636 q 0,-0.4513 -0.19292,-0.67524 -0.19293,-0.22737 -0.59945,-0.22737 -0.53399,0 -0.78893,0.30661 -0.25493,0.30661 -0.25493,0.94396 v 2.1084 h -0.57189 v -2.45636 q 0,-0.4513 -0.19292,-0.67524 -0.19293,-0.22737 -0.6029,-0.22737 -0.53743,0 -0.78892,0.32384 -0.24805,0.32039 -0.24805,1.0542 v 1.98093 h -0.57189 v -3.77583 h 0.46509 l 0.093,0.51677 h 0.0276 q 0.16192,-0.27561 0.45475,-0.43064 0.29628,-0.15503 0.66146,-0.15503 0.88539,0 1.15755,0.64079 h 0.0276 q 0.16881,-0.29628 0.48921,-0.46854 0.32039,-0.17225 0.73036,-0.17225 0.64079,0 0.95773,0.33073 0.3204,0.32728 0.3204,1.05075 v 2.46325 z"
             style="stroke-width:0.50424254"
             id="path974" />
          <path
             d="m 233.4937,178.46727 h -0.96119 v 3.33141 h -0.57188 v -3.33141 h -0.67524 v -0.25838 l 0.67524,-0.20671 v -0.21015 q 0,-1.39182 1.21612,-1.39182 0.29972,0 0.7028,0.12058 l -0.14814,0.4582 q -0.33073,-0.1068 -0.565,-0.1068 -0.32384,0 -0.47887,0.21704 -0.15503,0.2136 -0.15503,0.68902 v 0.2446 h 0.96119 z"
             style="stroke-width:0.50424254"
             id="path976" />
          <path
             d="m 237.44177,179.90732 q 0,0.92328 -0.46508,1.44349 -0.46509,0.51677 -1.28502,0.51677 -0.50643,0 -0.89917,-0.23771 -0.39274,-0.23772 -0.60634,-0.68213 -0.2136,-0.44442 -0.2136,-1.04042 0,-0.92329 0.46165,-1.43661 0.46164,-0.51676 1.28157,-0.51676 0.79237,0 1.25746,0.5271 0.46853,0.5271 0.46853,1.42627 z m -2.87665,0 q 0,0.72347 0.28939,1.10243 0.28939,0.37896 0.85094,0.37896 0.56155,0 0.85094,-0.37552 0.29283,-0.37896 0.29283,-1.10587 0,-0.72003 -0.29283,-1.0921 -0.28939,-0.37551 -0.85783,-0.37551 -0.56155,0 -0.8475,0.36862 -0.28594,0.36863 -0.28594,1.09899 z"
             style="stroke-width:0.50424254"
             id="path978" />
          <path
             d="m 240.16685,177.95395 q 0.25149,0 0.45131,0.0413 l -0.0792,0.53054 q -0.23427,-0.0517 -0.41341,-0.0517 -0.4582,0 -0.78549,0.37207 -0.32383,0.37207 -0.32383,0.92673 v 2.02572 h -0.57189 v -3.77583 h 0.47198 l 0.0654,0.69936 h 0.0276 q 0.21015,-0.36863 0.50642,-0.56845 0.29628,-0.19981 0.65113,-0.19981 z"
             style="stroke-width:0.50424254"
             id="path980" />
          <path
             d="m 242.54396,181.3956 q 0.15158,0 0.29283,-0.0207 0.14125,-0.0241 0.22393,-0.0482 v 0.43752 q -0.093,0.0448 -0.2756,0.0724 -0.17915,0.031 -0.32384,0.031 -1.09554,0 -1.09554,-1.15411 v -2.2462 h -0.54088 v -0.27561 l 0.54088,-0.23771 0.24115,-0.80615 h 0.33073 v 0.87505 h 1.09554 v 0.44442 h -1.09554 v 2.22208 q 0,0.34107 0.16192,0.52366 0.16192,0.18259 0.44442,0.18259 z"
             style="stroke-width:0.50424254"
             id="path982" />
          <path
             d="m 246.1372,181.79868 -0.11369,-0.53744 h -0.0276 q -0.2825,0.35485 -0.565,0.48231 -0.27905,0.12403 -0.69935,0.12403 -0.56155,0 -0.88195,-0.28939 -0.31694,-0.28939 -0.31694,-0.82338 0,-1.14377 1.82934,-1.19889 l 0.64079,-0.0207 v -0.23427 q 0,-0.44442 -0.19293,-0.65457 -0.18948,-0.21359 -0.60978,-0.21359 -0.47198,0 -1.06798,0.28939 l -0.1757,-0.43753 q 0.27905,-0.15159 0.60978,-0.23771 0.33418,-0.0861 0.66835,-0.0861 0.67524,0 0.99908,0.29972 0.32728,0.29973 0.32728,0.96118 v 2.57694 z m -1.29191,-0.40308 q 0.53399,0 0.83715,-0.29283 0.30662,-0.29284 0.30662,-0.81994 v -0.34106 l -0.57189,0.0241 q -0.68213,0.0241 -0.9853,0.2136 -0.29972,0.18604 -0.29972,0.58222 0,0.31006 0.18604,0.47198 0.18948,0.16192 0.5271,0.16192 z"
             style="stroke-width:0.50424254"
             id="path984" />
          <path
             d="m 249.49616,177.96084 q 0.74414,0 1.15411,0.50987 0.41341,0.50643 0.41341,1.43661 0,0.93017 -0.41685,1.44694 -0.41342,0.51332 -1.15067,0.51332 -0.36862,0 -0.67524,-0.13436 -0.30316,-0.13781 -0.50987,-0.4203 h -0.0413 l -0.12058,0.48576 h -0.40997 v -5.36057 h 0.57189 v 1.30224 q 0,0.43753 -0.0276,0.78548 h 0.0276 q 0.39963,-0.56499 1.18511,-0.56499 z m -0.0827,0.47887 q -0.58567,0 -0.84405,0.33762 -0.25838,0.33417 -0.25838,1.12999 0,0.79582 0.26527,1.14032 0.26528,0.34107 0.85094,0.34107 0.5271,0 0.78548,-0.38241 0.25839,-0.38585 0.25839,-1.10587 0,-0.73725 -0.25839,-1.09899 -0.25838,-0.36173 -0.79926,-0.36173 z"
             style="stroke-width:0.50424254"
             id="path986" />
          <path
             d="m 252.63465,181.79868 h -0.57189 v -5.36057 h 0.57189 z"
             style="stroke-width:0.50424254"
             id="path988" />
          <path
             d="m 255.4424,181.86758 q -0.83716,0 -1.32292,-0.50988 -0.48231,-0.50987 -0.48231,-1.41593 0,-0.91295 0.44786,-1.45039 0.45131,-0.53743 1.20923,-0.53743 0.70969,0 1.1231,0.46853 0.41341,0.46509 0.41341,1.2299 v 0.36174 h -2.60105 q 0.0172,0.6649 0.33418,1.00941 0.32039,0.34451 0.89917,0.34451 0.60978,0 1.20578,-0.25494 v 0.50988 q -0.30317,0.13091 -0.57533,0.18603 -0.26872,0.0586 -0.65112,0.0586 z m -0.15503,-3.43476 q -0.45475,0 -0.72692,0.29628 -0.26871,0.29627 -0.31695,0.81993 h 1.97404 q 0,-0.54088 -0.24115,-0.82682 -0.24116,-0.28939 -0.68902,-0.28939 z"
             style="stroke-width:0.50424254"
             id="path990" />
        </g>
        <path
           style="opacity:1;fill:#f16d57;fill-opacity:1;stroke:#000000;stroke-width:0.50424254;stroke-linecap:round;stroke-linejoin:round;stroke-miterlimit:4;stroke-dasharray:none;stroke-dashoffset:0;stroke-opacity:1;paint-order:normal"
           d="m 187.30929,179.94693 a 3.7417734,3.7417734 0 0 1 -3.74177,3.74177 3.7417734,3.7417734 0 0 1 -3.74177,-3.74177 3.7417734,3.7417734 0 0 1 3.74177,-3.74177 3.7417734,3.7417734 0 0 1 3.74177,3.74177 z"
           id="path1161-2-3-7-5" />
        <g
           aria-label="Extremely uncomfortable"
           style="font-style:normal;font-variant:normal;font-weight:normal;font-stretch:normal;font-size:7.05555534px;line-height:1.25;font-family:'Open Sans';-inkscape-font-specification:'Open Sans';letter-spacing:0px;word-spacing:0px;fill:#000000;fill-opacity:1;stroke:none;stroke-width:0.50424254"
           id="text1051-3-0-2-1-7-2">
          <path
             d="m 194.7226,195.29578 h -2.80775 v -5.03673 h 2.80775 v 0.52021 h -2.22209 v 1.62264 h 2.08773 v 0.51676 h -2.08773 v 1.85346 h 2.22209 z"
             style="stroke-width:0.50424254"
             id="path912" />
          <path
             d="m 196.66219,193.36308 -1.31258,-1.84313 h 0.65112 l 0.99563,1.44694 0.99219,-1.44694 h 0.64423 l -1.31258,1.84313 1.38148,1.9327 h -0.64767 l -1.05765,-1.52963 -1.06798,1.52963 h -0.64768 z"
             style="stroke-width:0.50424254"
             id="path914" />
          <path
             d="m 200.66883,194.8927 q 0.15159,0 0.29284,-0.0207 0.14125,-0.0241 0.22393,-0.0482 v 0.43753 q -0.093,0.0448 -0.27561,0.0723 -0.17915,0.031 -0.32384,0.031 -1.09554,0 -1.09554,-1.15411 v -2.2462 h -0.54088 v -0.27561 l 0.54088,-0.23771 0.24116,-0.80615 h 0.33073 v 0.87505 h 1.09554 v 0.44442 h -1.09554 v 2.22209 q 0,0.34106 0.16192,0.52365 0.16192,0.18259 0.44441,0.18259 z"
             style="stroke-width:0.50424254"
             id="path916" />
          <path
             d="m 203.66262,191.45105 q 0.25149,0 0.45131,0.0413 l -0.0792,0.53055 q -0.23427,-0.0517 -0.41341,-0.0517 -0.4582,0 -0.78548,0.37207 -0.32384,0.37207 -0.32384,0.92673 v 2.02572 h -0.57189 v -3.77583 h 0.47198 l 0.0655,0.69936 h 0.0276 q 0.21015,-0.36863 0.50643,-0.56844 0.29628,-0.19982 0.65112,-0.19982 z"
             style="stroke-width:0.50424254"
             id="path918" />
          <path
             d="m 206.41525,195.36468 q -0.83716,0 -1.32291,-0.50988 -0.48232,-0.50987 -0.48232,-1.41593 0,-0.91295 0.44787,-1.45039 0.4513,-0.53743 1.20922,-0.53743 0.70969,0 1.1231,0.46853 0.41342,0.46509 0.41342,1.2299 v 0.36174 h -2.60105 q 0.0172,0.6649 0.33417,1.00941 0.3204,0.34451 0.89917,0.34451 0.60979,0 1.20579,-0.25494 v 0.50988 q -0.30317,0.13091 -0.57533,0.18603 -0.26872,0.0586 -0.65113,0.0586 z m -0.15503,-3.43476 q -0.45475,0 -0.72691,0.29628 -0.26872,0.29627 -0.31695,0.81993 h 1.97404 q 0,-0.54088 -0.24116,-0.82682 -0.24115,-0.28939 -0.68902,-0.28939 z"
             style="stroke-width:0.50424254"
             id="path920" />
          <path
             d="m 213.59139,195.29578 v -2.45636 q 0,-0.4513 -0.19293,-0.67524 -0.19292,-0.22737 -0.59945,-0.22737 -0.53399,0 -0.78892,0.30661 -0.25494,0.30662 -0.25494,0.94396 v 2.1084 h -0.57189 v -2.45636 q 0,-0.4513 -0.19292,-0.67524 -0.19293,-0.22737 -0.60289,-0.22737 -0.53744,0 -0.78893,0.32384 -0.24805,0.32039 -0.24805,1.0542 v 1.98093 h -0.57188 v -3.77583 h 0.46509 l 0.093,0.51677 h 0.0276 q 0.16192,-0.27561 0.45476,-0.43064 0.29627,-0.15503 0.66145,-0.15503 0.88539,0 1.15756,0.64079 h 0.0276 q 0.16881,-0.29628 0.4892,-0.46854 0.32039,-0.17225 0.73036,-0.17225 0.64079,0 0.95774,0.33073 0.32039,0.32728 0.32039,1.05075 v 2.46325 z"
             style="stroke-width:0.50424254"
             id="path922" />
          <path
             d="m 216.93657,195.36468 q -0.83716,0 -1.32291,-0.50988 -0.48232,-0.50987 -0.48232,-1.41593 0,-0.91295 0.44787,-1.45039 0.4513,-0.53743 1.20922,-0.53743 0.70969,0 1.1231,0.46853 0.41342,0.46509 0.41342,1.2299 v 0.36174 h -2.60105 q 0.0172,0.6649 0.33417,1.00941 0.3204,0.34451 0.89917,0.34451 0.60979,0 1.20579,-0.25494 v 0.50988 q -0.30317,0.13091 -0.57533,0.18603 -0.26872,0.0586 -0.65113,0.0586 z m -0.15503,-3.43476 q -0.45475,0 -0.72691,0.29628 -0.26872,0.29627 -0.31695,0.81993 h 1.97404 q 0,-0.54088 -0.24116,-0.82682 -0.24115,-0.28939 -0.68902,-0.28939 z"
             style="stroke-width:0.50424254"
             id="path924" />
          <path
             d="m 219.8718,195.29578 h -0.57189 v -5.36057 h 0.57189 z"
             style="stroke-width:0.50424254"
             id="path926" />
          <path
             d="m 220.48502,191.51995 h 0.61323 l 0.82682,2.15319 q 0.27216,0.73725 0.33762,1.06453 h 0.0276 q 0.0448,-0.1757 0.18604,-0.59945 0.14469,-0.42719 0.93706,-2.61827 h 0.61323 l -1.62264,4.29948 q -0.24116,0.63734 -0.565,0.90262 -0.32039,0.26871 -0.78892,0.26871 -0.26183,0 -0.51677,-0.0586 v -0.4582 q 0.18948,0.0413 0.42375,0.0413 0.58911,0 0.8406,-0.66146 l 0.21015,-0.53743 z"
             style="stroke-width:0.50424254"
             id="path928" />
          <path
             d="m 227.01003,191.51995 v 2.44946 q 0,0.46165 0.21015,0.68902 0.21015,0.22738 0.65802,0.22738 0.59255,0 0.86472,-0.32384 0.2756,-0.32384 0.2756,-1.05764 v -1.98438 h 0.57189 v 3.77583 h -0.47198 l -0.0827,-0.50643 h -0.031 q -0.1757,0.27905 -0.4892,0.42719 -0.31006,0.14814 -0.70969,0.14814 -0.68902,0 -1.03353,-0.32729 -0.34106,-0.32728 -0.34106,-1.0473 v -2.47014 z"
             style="stroke-width:0.50424254"
             id="path930" />
          <path
             d="m 233.38691,195.29578 v -2.44258 q 0,-0.46164 -0.21016,-0.68902 -0.21015,-0.22737 -0.65801,-0.22737 -0.59256,0 -0.86816,0.32039 -0.27561,0.3204 -0.27561,1.05765 v 1.98093 h -0.57189 v -3.77583 h 0.46509 l 0.093,0.51677 h 0.0276 q 0.1757,-0.27906 0.49265,-0.43064 0.31695,-0.15503 0.70624,-0.15503 0.68213,0 1.02664,0.33073 0.34451,0.32728 0.34451,1.05075 v 2.46325 z"
             style="stroke-width:0.50424254"
             id="path932" />
          <path
             d="m 236.64252,195.36468 q -0.81993,0 -1.27124,-0.50299 -0.44786,-0.50642 -0.44786,-1.42971 0,-0.9474 0.45475,-1.46417 0.4582,-0.51676 1.30224,-0.51676 0.27217,0 0.54433,0.0586 0.27216,0.0586 0.42719,0.1378 l -0.1757,0.48576 q -0.18948,-0.0758 -0.41341,-0.12402 -0.22393,-0.0517 -0.39619,-0.0517 -1.15066,0 -1.15066,1.46761 0,0.69591 0.27905,1.06798 0.2825,0.37207 0.83372,0.37207 0.47198,0 0.96807,-0.20326 v 0.50643 q -0.37896,0.19637 -0.95429,0.19637 z"
             style="stroke-width:0.50424254"
             id="path934" />
          <path
             d="m 241.7516,193.40442 q 0,0.92328 -0.46509,1.44349 -0.46509,0.51677 -1.28502,0.51677 -0.50643,0 -0.89917,-0.23771 -0.39274,-0.23771 -0.60634,-0.68213 -0.21359,-0.44442 -0.21359,-1.04042 0,-0.92329 0.46164,-1.43661 0.46164,-0.51676 1.28157,-0.51676 0.79238,0 1.25746,0.5271 0.46854,0.5271 0.46854,1.42627 z m -2.87666,0 q 0,0.72347 0.28939,1.10243 0.28939,0.37896 0.85094,0.37896 0.56155,0 0.85094,-0.37552 0.29283,-0.37896 0.29283,-1.10587 0,-0.72003 -0.29283,-1.0921 -0.28939,-0.37551 -0.85783,-0.37551 -0.56155,0 -0.84749,0.36862 -0.28595,0.36863 -0.28595,1.09899 z"
             style="stroke-width:0.50424254"
             id="path936" />
          <path
             d="m 247.56692,195.29578 v -2.45636 q 0,-0.4513 -0.19293,-0.67524 -0.19292,-0.22737 -0.59945,-0.22737 -0.53399,0 -0.78892,0.30661 -0.25494,0.30662 -0.25494,0.94396 v 2.1084 h -0.57189 v -2.45636 q 0,-0.4513 -0.19292,-0.67524 -0.19293,-0.22737 -0.60289,-0.22737 -0.53744,0 -0.78893,0.32384 -0.24805,0.32039 -0.24805,1.0542 v 1.98093 h -0.57188 v -3.77583 h 0.46509 l 0.093,0.51677 h 0.0276 q 0.16192,-0.27561 0.45476,-0.43064 0.29628,-0.15503 0.66146,-0.15503 0.88538,0 1.15755,0.64079 h 0.0276 q 0.16881,-0.29628 0.4892,-0.46854 0.3204,-0.17225 0.73036,-0.17225 0.64079,0 0.95774,0.33073 0.32039,0.32728 0.32039,1.05075 v 2.46325 z"
             style="stroke-width:0.50424254"
             id="path938" />
          <path
             d="m 251.0189,191.96437 h -0.96118 v 3.33141 h -0.57188 v -3.33141 h -0.67524 v -0.25838 l 0.67524,-0.20671 v -0.21015 q 0,-1.39182 1.21611,-1.39182 0.29973,0 0.7028,0.12058 l -0.14813,0.4582 q -0.33073,-0.1068 -0.565,-0.1068 -0.32384,0 -0.47887,0.21704 -0.15503,0.2136 -0.15503,0.68902 v 0.2446 h 0.96118 z"
             style="stroke-width:0.50424254"
             id="path940" />
          <path
             d="m 254.96698,193.40442 q 0,0.92328 -0.46509,1.44349 -0.46508,0.51677 -1.28502,0.51677 -0.50643,0 -0.89917,-0.23771 -0.39274,-0.23771 -0.60633,-0.68213 -0.2136,-0.44442 -0.2136,-1.04042 0,-0.92329 0.46164,-1.43661 0.46165,-0.51676 1.28158,-0.51676 0.79237,0 1.25746,0.5271 0.46853,0.5271 0.46853,1.42627 z m -2.87665,0 q 0,0.72347 0.28939,1.10243 0.28938,0.37896 0.85093,0.37896 0.56155,0 0.85094,-0.37552 0.29284,-0.37896 0.29284,-1.10587 0,-0.72003 -0.29284,-1.0921 -0.28939,-0.37551 -0.85783,-0.37551 -0.56155,0 -0.84749,0.36862 -0.28594,0.36863 -0.28594,1.09899 z"
             style="stroke-width:0.50424254"
             id="path942" />
          <path
             d="m 257.69205,191.45105 q 0.25149,0 0.45131,0.0413 l -0.0792,0.53055 q -0.23426,-0.0517 -0.41341,-0.0517 -0.4582,0 -0.78548,0.37207 -0.32384,0.37207 -0.32384,0.92673 v 2.02572 h -0.57189 v -3.77583 h 0.47198 l 0.0655,0.69936 h 0.0276 q 0.21015,-0.36863 0.50643,-0.56844 0.29628,-0.19982 0.65112,-0.19982 z"
             style="stroke-width:0.50424254"
             id="path944" />
          <path
             d="m 260.06916,194.8927 q 0.15159,0 0.29284,-0.0207 0.14125,-0.0241 0.22393,-0.0482 v 0.43753 q -0.093,0.0448 -0.27561,0.0723 -0.17914,0.031 -0.32384,0.031 -1.09554,0 -1.09554,-1.15411 v -2.2462 h -0.54088 v -0.27561 l 0.54088,-0.23771 0.24116,-0.80615 h 0.33073 v 0.87505 h 1.09554 v 0.44442 h -1.09554 v 2.22209 q 0,0.34106 0.16192,0.52365 0.16192,0.18259 0.44441,0.18259 z"
             style="stroke-width:0.50424254"
             id="path946" />
          <path
             d="m 263.6624,195.29578 -0.11369,-0.53744 h -0.0276 q -0.2825,0.35485 -0.56499,0.48231 -0.27906,0.12403 -0.69936,0.12403 -0.56155,0 -0.88194,-0.28939 -0.31695,-0.28939 -0.31695,-0.82338 0,-1.14377 1.82934,-1.19889 l 0.64079,-0.0207 v -0.23427 q 0,-0.44442 -0.19292,-0.65457 -0.18948,-0.21359 -0.60979,-0.21359 -0.47197,0 -1.06797,0.28939 l -0.1757,-0.43753 q 0.27905,-0.15159 0.60978,-0.23771 0.33417,-0.0861 0.66835,-0.0861 0.67523,0 0.99907,0.29972 0.32729,0.29973 0.32729,0.96119 v 2.57693 z m -1.29191,-0.40308 q 0.53399,0 0.83716,-0.29283 0.30661,-0.29284 0.30661,-0.81994 v -0.34106 l -0.57188,0.0241 q -0.68213,0.0241 -0.9853,0.21359 -0.29972,0.18604 -0.29972,0.58222 0,0.31006 0.18603,0.47198 0.18948,0.16192 0.5271,0.16192 z"
             style="stroke-width:0.50424254"
             id="path948" />
          <path
             d="m 267.02137,191.45794 q 0.74414,0 1.15411,0.50987 0.41341,0.50643 0.41341,1.43661 0,0.93017 -0.41686,1.44694 -0.41341,0.51332 -1.15066,0.51332 -0.36862,0 -0.67524,-0.13436 -0.30317,-0.1378 -0.50987,-0.4203 h -0.0413 l -0.12058,0.48576 h -0.40997 v -5.36057 h 0.57189 v 1.30224 q 0,0.43753 -0.0276,0.78549 h 0.0276 q 0.39963,-0.565 1.18511,-0.565 z m -0.0827,0.47887 q -0.58567,0 -0.84405,0.33762 -0.25838,0.33417 -0.25838,1.12999 0,0.79582 0.26527,1.14033 0.26527,0.34106 0.85094,0.34106 0.5271,0 0.78548,-0.38241 0.25838,-0.38585 0.25838,-1.10587 0,-0.73725 -0.25838,-1.09899 -0.25838,-0.36173 -0.79926,-0.36173 z"
             style="stroke-width:0.50424254"
             id="path950" />
          <path
             d="m 270.15985,195.29578 h -0.57188 v -5.36057 h 0.57188 z"
             style="stroke-width:0.50424254"
             id="path952" />
          <path
             d="m 272.96761,195.36468 q -0.83716,0 -1.32292,-0.50988 -0.48231,-0.50987 -0.48231,-1.41593 0,-0.91295 0.44786,-1.45039 0.45131,-0.53743 1.20923,-0.53743 0.70969,0 1.1231,0.46853 0.41341,0.46509 0.41341,1.2299 v 0.36174 h -2.60105 q 0.0172,0.6649 0.33418,1.00941 0.32039,0.34451 0.89917,0.34451 0.60978,0 1.20578,-0.25494 v 0.50988 q -0.30317,0.13091 -0.57533,0.18603 -0.26872,0.0586 -0.65112,0.0586 z m -0.15503,-3.43476 q -0.45476,0 -0.72692,0.29628 -0.26872,0.29627 -0.31695,0.81993 h 1.97404 q 0,-0.54088 -0.24115,-0.82682 -0.24116,-0.28939 -0.68902,-0.28939 z"
             style="stroke-width:0.50424254"
             id="path954" />
        </g>
        <path
           style="opacity:1;fill:#d84041;fill-opacity:1;stroke:#000000;stroke-width:0.50424254;stroke-linecap:round;stroke-linejoin:round;stroke-miterlimit:4;stroke-dasharray:none;stroke-dashoffset:0;stroke-opacity:1;paint-order:normal"
           d="m 187.30929,193.44403 a 3.7417734,3.7417734 0 0 1 -3.74177,3.74177 3.7417734,3.7417734 0 0 1 -3.74177,-3.74177 3.7417734,3.7417734 0 0 1 3.74177,-3.74177 3.7417734,3.7417734 0 0 1 3.74177,3.74177 z"
           id="path1161-2-3-7-5-9" />
      </g>
    </g>
  </g>
</svg>
