<?xml version="1.0" encoding="UTF-8" standalone="no"?>
<svg
   xmlns:dc="http://purl.org/dc/elements/1.1/"
   xmlns:cc="http://creativecommons.org/ns#"
   xmlns:rdf="http://www.w3.org/1999/02/22-rdf-syntax-ns#"
   xmlns:svg="http://www.w3.org/2000/svg"
   xmlns="http://www.w3.org/2000/svg"
   xmlns:sodipodi="http://sodipodi.sourceforge.net/DTD/sodipodi-0.dtd"
   xmlns:inkscape="http://www.inkscape.org/namespaces/inkscape"
   width="1809.2496"
   height="1814.7682"
   viewBox="0 0 1809.2496 1814.7682"
   version="1.1"
   xml:space="preserve"
   style="clip-rule:evenodd;fill-rule:evenodd;stroke-linejoin:round;stroke-miterlimit:2"
   id="svg953"
   sodipodi:docname="omniwatch-logo.svg"
   inkscape:version="0.92.5 (0.92.5+69)"><metadata
   id="metadata959"><rdf:RDF><cc:Work
       rdf:about=""><dc:format>image/svg+xml</dc:format><dc:type
         rdf:resource="http://purl.org/dc/dcmitype/StillImage" /></cc:Work></rdf:RDF></metadata><defs
   id="defs957" /><sodipodi:namedview
   pagecolor="#ffffff"
   bordercolor="#666666"
   borderopacity="1"
   objecttolerance="10"
   gridtolerance="10"
   guidetolerance="10"
   inkscape:pageopacity="0"
   inkscape:pageshadow="2"
   inkscape:window-width="1328"
   inkscape:window-height="704"
   id="namedview955"
   showgrid="false"
   inkscape:zoom="0.14652223"
   inkscape:cx="874.01274"
   inkscape:cy="799.69576"
   inkscape:window-x="38"
   inkscape:window-y="27"
   inkscape:window-maximized="1"
   inkscape:current-layer="svg953" />
    <g
   transform="matrix(1.45968,0,0,1.45968,-1619.8973,-3100.5175)"
   id="g951">
        <g
   transform="matrix(1.16712,0,0,1.17068,695.6,310.468)"
   id="g909">
            <circle
   cx="885.85901"
   cy="2080.22"
   r="531.00098"
   style="fill:#6c8ad8;fill-opacity:0.7"
   id="circle907" />
        </g>
        <g
   transform="translate(512.878,1220.65)"
   id="g927">
            <g
   transform="matrix(416.667,0,0,416.667,724.064,1471.1)"
   id="g913">
                <path
   d="m 0.637,-0.323 c 0,0.052 -0.006,0.099 -0.019,0.14 C 0.605,-0.141 0.585,-0.106 0.56,-0.077 0.534,-0.049 0.502,-0.027 0.464,-0.011 0.426,0.004 0.382,0.011 0.333,0.011 0.283,0.011 0.24,0.005 0.204,-0.008 0.167,-0.021 0.137,-0.041 0.112,-0.067 0.088,-0.093 0.07,-0.127 0.057,-0.167 0.045,-0.208 0.039,-0.256 0.039,-0.312 c 0,-0.051 0.007,-0.097 0.02,-0.138 0.013,-0.041 0.032,-0.076 0.058,-0.104 0.025,-0.029 0.057,-0.051 0.095,-0.066 0.038,-0.015 0.082,-0.023 0.132,-0.023 0.048,0 0.09,0.006 0.127,0.019 0.037,0.013 0.067,0.032 0.092,0.059 0.024,0.026 0.043,0.059 0.055,0.099 0.013,0.041 0.019,0.088 0.019,0.143 z M 0.502,-0.316 C 0.502,-0.35 0.5,-0.38 0.495,-0.407 0.489,-0.434 0.481,-0.457 0.468,-0.477 0.455,-0.496 0.439,-0.511 0.418,-0.522 0.397,-0.532 0.371,-0.538 0.34,-0.538 c -0.032,0 -0.058,0.006 -0.079,0.018 -0.021,0.012 -0.039,0.028 -0.052,0.048 -0.013,0.02 -0.022,0.043 -0.027,0.069 -0.005,0.027 -0.008,0.055 -0.008,0.085 0,0.034 0.002,0.065 0.008,0.093 0.005,0.027 0.014,0.051 0.026,0.07 0.012,0.02 0.029,0.035 0.05,0.045 0.021,0.01 0.047,0.015 0.078,0.015 0.032,0 0.058,-0.006 0.08,-0.017 C 0.437,-0.124 0.454,-0.14 0.467,-0.16 0.48,-0.18 0.489,-0.204 0.494,-0.231 0.5,-0.258 0.502,-0.286 0.502,-0.316 Z"
   style="fill:#ffffff;fill-rule:nonzero"
   id="path911"
   inkscape:connector-curvature="0" />
            </g>
            <g
   transform="matrix(416.667,0,0,416.667,976.676,1471.1)"
   id="g917">
                <path
   d="m 0.805,-0.018 c 0,0.004 -0.001,0.007 -0.003,0.009 C 0.801,-0.006 0.797,-0.004 0.793,-0.002 0.788,-0.001 0.782,0 0.774,0.001 0.766,0.002 0.756,0.003 0.744,0.003 0.732,0.003 0.723,0.002 0.715,0.001 0.707,0 0.701,-0.001 0.696,-0.002 0.692,-0.004 0.688,-0.006 0.687,-0.009 0.685,-0.011 0.684,-0.014 0.684,-0.018 V -0.532 H 0.683 L 0.5,-0.018 C 0.498,-0.014 0.496,-0.01 0.493,-0.008 0.49,-0.005 0.486,-0.003 0.481,-0.001 0.476,0.001 0.47,0.002 0.462,0.002 0.454,0.003 0.445,0.003 0.434,0.003 0.423,0.003 0.413,0.003 0.405,0.002 0.397,0.001 0.391,0 0.386,-0.002 0.381,-0.004 0.377,-0.006 0.374,-0.009 0.371,-0.011 0.369,-0.014 0.368,-0.018 L 0.191,-0.532 H 0.19 v 0.514 c 0,0.004 0,0.007 -0.002,0.009 -0.002,0.003 -0.005,0.005 -0.01,0.007 C 0.173,-0.001 0.167,0 0.159,0.001 0.151,0.002 0.141,0.003 0.129,0.003 0.118,0.003 0.108,0.002 0.1,0.001 0.092,0 0.086,-0.001 0.081,-0.002 0.077,-0.004 0.073,-0.006 0.072,-0.009 0.07,-0.011 0.069,-0.014 0.069,-0.018 v -0.563 c 0,-0.016 0.004,-0.029 0.013,-0.038 0.009,-0.008 0.021,-0.013 0.035,-0.013 h 0.084 c 0.015,0 0.028,0.001 0.039,0.004 0.01,0.002 0.02,0.006 0.028,0.012 0.007,0.006 0.014,0.013 0.019,0.022 0.005,0.01 0.01,0.021 0.014,0.035 l 0.137,0.376 H 0.439 L 0.581,-0.558 C 0.585,-0.572 0.59,-0.583 0.595,-0.593 0.6,-0.602 0.606,-0.61 0.613,-0.616 c 0.006,-0.006 0.014,-0.01 0.023,-0.012 0.009,-0.003 0.02,-0.004 0.032,-0.004 h 0.086 c 0.009,0 0.017,0.001 0.023,0.004 0.006,0.002 0.012,0.005 0.016,0.01 0.004,0.004 0.007,0.009 0.009,0.016 0.002,0.006 0.003,0.013 0.003,0.021 z"
   style="fill:#ffffff;fill-rule:nonzero"
   id="path915"
   inkscape:connector-curvature="0" />
            </g>
            <g
   transform="matrix(416.667,0,0,416.667,1311.69,1471.1)"
   id="g921">
                <path
   d="m 0.59,-0.045 c 0,0.008 -0.001,0.014 -0.004,0.02 C 0.583,-0.019 0.58,-0.014 0.575,-0.01 0.571,-0.006 0.566,-0.003 0.56,-0.002 0.554,0 0.548,0.001 0.542,0.001 H 0.487 C 0.475,0.001 0.466,0 0.457,-0.002 0.449,-0.005 0.441,-0.009 0.434,-0.015 0.427,-0.021 0.421,-0.029 0.414,-0.039 0.408,-0.05 0.4,-0.063 0.392,-0.079 L 0.235,-0.375 C 0.226,-0.392 0.216,-0.411 0.207,-0.431 0.198,-0.452 0.189,-0.472 0.182,-0.491 H 0.181 c 0.001,0.024 0.002,0.047 0.003,0.07 0,0.024 0.001,0.048 0.001,0.072 v 0.331 c 0,0.003 -0.001,0.006 -0.003,0.009 C 0.18,-0.007 0.177,-0.004 0.173,-0.003 0.168,-0.001 0.162,0 0.155,0.001 0.147,0.002 0.138,0.003 0.126,0.003 0.115,0.003 0.105,0.002 0.098,0.001 0.09,0 0.084,-0.001 0.08,-0.003 0.076,-0.004 0.073,-0.007 0.071,-0.009 0.07,-0.012 0.069,-0.015 0.069,-0.018 v -0.568 c 0,-0.015 0.004,-0.027 0.013,-0.034 0.009,-0.008 0.02,-0.012 0.033,-0.012 h 0.069 c 0.012,0 0.023,0.001 0.031,0.003 0.009,0.002 0.016,0.006 0.023,0.011 0.007,0.005 0.013,0.011 0.019,0.02 0.006,0.009 0.012,0.019 0.018,0.032 l 0.123,0.231 c 0.007,0.014 0.014,0.028 0.021,0.041 0.007,0.014 0.014,0.027 0.02,0.041 0.007,0.013 0.013,0.027 0.019,0.04 0.007,0.013 0.013,0.026 0.019,0.039 v 0 C 0.476,-0.197 0.475,-0.221 0.475,-0.246 0.474,-0.27 0.474,-0.294 0.474,-0.316 v -0.297 c 0,-0.003 0.001,-0.006 0.003,-0.009 0.002,-0.002 0.005,-0.004 0.01,-0.006 0.004,-0.002 0.01,-0.004 0.018,-0.005 0.007,0 0.017,-0.001 0.029,-0.001 0.011,0 0.02,0.001 0.028,0.001 0.007,0.001 0.013,0.003 0.017,0.005 0.004,0.002 0.007,0.004 0.008,0.006 0.002,0.003 0.003,0.006 0.003,0.009 z"
   style="fill:#ffffff;fill-rule:nonzero"
   id="path919"
   inkscape:connector-curvature="0" />
            </g>
            <g
   transform="matrix(416.667,0,0,416.667,1556.97,1471.1)"
   id="g925">
                <path
   d="m 0.198,-0.018 c 0,0.004 -0.001,0.007 -0.003,0.009 C 0.192,-0.006 0.189,-0.004 0.184,-0.002 0.179,-0.001 0.173,0 0.165,0.001 0.156,0.002 0.146,0.003 0.133,0.003 0.121,0.003 0.111,0.002 0.102,0.001 0.094,0 0.087,-0.001 0.083,-0.002 0.078,-0.004 0.074,-0.006 0.072,-0.009 0.07,-0.011 0.069,-0.014 0.069,-0.018 v -0.596 c 0,-0.004 0.001,-0.006 0.003,-0.009 0.002,-0.003 0.006,-0.005 0.011,-0.006 0.005,-0.002 0.011,-0.003 0.02,-0.004 0.008,-0.001 0.018,-0.002 0.03,-0.002 0.013,0 0.023,0.001 0.032,0.002 0.008,0.001 0.014,0.002 0.019,0.004 0.005,0.001 0.008,0.003 0.011,0.006 0.002,0.003 0.003,0.005 0.003,0.009 z"
   style="fill:#ffffff;fill-rule:nonzero"
   id="path923"
   inkscape:connector-curvature="0" />
            </g>
        </g>
        <g
   transform="translate(409.691,1536.51)"
   id="g949">
            <g
   transform="matrix(416.667,0,0,416.667,724.064,1471.1)"
   id="g931">
                <path
   d="M 0.734,-0.033 C 0.732,-0.025 0.729,-0.019 0.726,-0.014 0.722,-0.009 0.717,-0.006 0.71,-0.003 0.704,-0.001 0.695,0.001 0.684,0.002 0.673,0.003 0.66,0.003 0.643,0.003 0.625,0.003 0.61,0.003 0.598,0.002 0.587,0.001 0.578,-0.001 0.572,-0.003 0.565,-0.006 0.561,-0.009 0.558,-0.014 0.555,-0.019 0.552,-0.025 0.551,-0.033 L 0.45,-0.433 H 0.449 l -0.096,0.4 C 0.351,-0.025 0.349,-0.019 0.346,-0.014 0.343,-0.01 0.339,-0.006 0.332,-0.003 0.326,-0.001 0.317,0.001 0.306,0.002 0.295,0.003 0.281,0.003 0.263,0.003 0.244,0.003 0.229,0.003 0.218,0.002 0.207,0.001 0.198,-0.001 0.191,-0.003 0.185,-0.006 0.18,-0.009 0.177,-0.014 0.174,-0.019 0.172,-0.025 0.17,-0.033 L 0.026,-0.584 C 0.023,-0.596 0.022,-0.605 0.021,-0.612 c 0,-0.006 0.002,-0.011 0.006,-0.015 0.004,-0.004 0.011,-0.006 0.02,-0.007 0.009,0 0.022,-0.001 0.039,-0.001 0.015,0 0.027,0 0.036,0.001 0.009,0 0.016,0.002 0.021,0.003 0.004,0.002 0.007,0.005 0.009,0.008 0.001,0.004 0.003,0.008 0.004,0.015 l 0.111,0.483 v 0 l 0.115,-0.48 C 0.384,-0.611 0.385,-0.616 0.387,-0.62 0.39,-0.624 0.393,-0.627 0.398,-0.629 0.403,-0.631 0.41,-0.633 0.419,-0.634 c 0.009,0 0.02,-0.001 0.035,-0.001 0.016,0 0.028,0.001 0.037,0.001 0.01,0.001 0.017,0.002 0.022,0.004 0.005,0.002 0.009,0.005 0.011,0.009 0.002,0.004 0.004,0.01 0.005,0.016 l 0.119,0.48 H 0.649 L 0.76,-0.607 c 0.001,-0.005 0.003,-0.01 0.004,-0.013 0.002,-0.004 0.005,-0.007 0.009,-0.009 0.005,-0.002 0.012,-0.004 0.02,-0.005 0.008,0 0.02,-0.001 0.036,-0.001 0.014,0 0.025,0.001 0.033,0.001 0.008,0.001 0.014,0.003 0.017,0.007 0.004,0.004 0.006,0.009 0.005,0.016 0,0.007 -0.002,0.016 -0.005,0.028 z"
   style="fill:#4b4b4b;fill-rule:nonzero"
   id="path929"
   inkscape:connector-curvature="0" />
            </g>
            <g
   transform="matrix(416.667,0,0,416.667,1057.14,1471.1)"
   id="g935">
                <path
   d="M 0.586,-0.048 C 0.59,-0.036 0.593,-0.027 0.594,-0.02 0.595,-0.013 0.593,-0.008 0.59,-0.005 0.586,-0.001 0.58,0.001 0.571,0.002 0.562,0.003 0.549,0.003 0.533,0.003 0.517,0.003 0.504,0.003 0.494,0.002 0.485,0.002 0.478,0.001 0.473,-0.001 0.468,-0.002 0.465,-0.004 0.463,-0.007 0.461,-0.009 0.459,-0.013 0.458,-0.017 L 0.416,-0.144 H 0.178 l -0.04,0.123 C 0.137,-0.016 0.135,-0.012 0.133,-0.009 0.131,-0.006 0.128,-0.003 0.123,-0.002 0.118,0 0.111,0.001 0.103,0.002 0.094,0.003 0.083,0.003 0.069,0.003 0.054,0.003 0.042,0.002 0.034,0.001 0.025,0 0.019,-0.002 0.016,-0.006 0.013,-0.009 0.012,-0.015 0.013,-0.021 0.014,-0.028 0.016,-0.037 0.02,-0.049 l 0.195,-0.56 c 0.002,-0.006 0.004,-0.01 0.007,-0.014 0.002,-0.003 0.006,-0.006 0.012,-0.008 0.006,-0.001 0.014,-0.003 0.024,-0.003 0.01,-0.001 0.023,-0.001 0.04,-0.001 0.019,0 0.034,0 0.046,0.001 0.011,0 0.02,0.002 0.026,0.003 0.007,0.002 0.011,0.005 0.014,0.008 0.003,0.004 0.005,0.009 0.007,0.015 z m -0.29,-0.463 v 0 l -0.089,0.268 h 0.179 z"
   style="fill:#4b4b4b;fill-rule:nonzero"
   id="path933"
   inkscape:connector-curvature="0" />
            </g>
            <g
   transform="matrix(416.667,0,0,416.667,1252.07,1471.1)"
   id="g939">
                <path
   d="m 0.489,-0.579 c 0,0.009 0,0.017 -0.001,0.024 C 0.487,-0.548 0.486,-0.543 0.484,-0.539 0.483,-0.535 0.481,-0.532 0.478,-0.53 0.476,-0.528 0.473,-0.527 0.47,-0.527 H 0.312 v 0.509 c 0,0.004 -0.001,0.007 -0.003,0.009 C 0.307,-0.006 0.303,-0.004 0.298,-0.002 0.293,-0.001 0.287,0 0.279,0.001 0.27,0.002 0.26,0.003 0.248,0.003 0.235,0.003 0.225,0.002 0.217,0.001 0.208,0 0.202,-0.001 0.197,-0.002 0.192,-0.004 0.188,-0.006 0.186,-0.009 0.184,-0.011 0.183,-0.014 0.183,-0.018 V -0.527 H 0.025 C 0.022,-0.527 0.019,-0.528 0.017,-0.53 0.014,-0.532 0.012,-0.535 0.011,-0.539 0.009,-0.543 0.008,-0.548 0.007,-0.555 0.006,-0.562 0.006,-0.57 0.006,-0.579 c 0,-0.01 0,-0.018 0.001,-0.025 0.001,-0.007 0.002,-0.012 0.004,-0.016 0.001,-0.004 0.003,-0.007 0.006,-0.009 0.002,-0.002 0.005,-0.003 0.008,-0.003 H 0.47 c 0.003,0 0.006,0.001 0.008,0.003 0.003,0.002 0.005,0.005 0.006,0.009 0.002,0.004 0.003,0.009 0.004,0.016 0.001,0.007 0.001,0.015 0.001,0.025 z"
   style="fill:#4b4b4b;fill-rule:nonzero"
   id="path937"
   inkscape:connector-curvature="0" />
            </g>
            <g
   transform="matrix(416.667,0,0,416.667,1424.21,1471.1)"
   id="g943">
                <path
   d="m 0.506,-0.096 c 0,0.008 0,0.015 -0.001,0.021 0,0.006 -0.001,0.011 -0.002,0.015 C 0.502,-0.056 0.501,-0.053 0.499,-0.05 0.497,-0.047 0.495,-0.044 0.491,-0.04 0.488,-0.036 0.481,-0.031 0.47,-0.025 0.46,-0.02 0.448,-0.014 0.433,-0.009 0.418,-0.003 0.401,0.001 0.382,0.005 0.363,0.008 0.342,0.01 0.32,0.01 0.277,0.01 0.238,0.004 0.203,-0.01 0.168,-0.023 0.139,-0.043 0.114,-0.07 0.09,-0.096 0.071,-0.129 0.058,-0.169 0.045,-0.209 0.039,-0.255 0.039,-0.308 c 0,-0.053 0.007,-0.101 0.021,-0.143 0.014,-0.041 0.034,-0.076 0.06,-0.105 0.026,-0.028 0.057,-0.049 0.093,-0.064 0.036,-0.015 0.075,-0.022 0.119,-0.022 0.017,0 0.034,0.001 0.05,0.004 0.017,0.003 0.032,0.007 0.045,0.012 0.014,0.004 0.027,0.01 0.038,0.016 0.011,0.006 0.019,0.012 0.023,0.016 0.004,0.004 0.007,0.008 0.009,0.011 0.002,0.003 0.003,0.007 0.004,0.011 0.001,0.005 0.002,0.01 0.002,0.016 0.001,0.007 0.001,0.014 0.001,0.023 0,0.01 0,0.018 -0.001,0.025 C 0.502,-0.501 0.501,-0.495 0.5,-0.491 0.498,-0.487 0.496,-0.484 0.494,-0.482 0.491,-0.48 0.489,-0.479 0.486,-0.479 0.481,-0.479 0.475,-0.482 0.467,-0.488 0.46,-0.493 0.45,-0.5 0.438,-0.507 0.426,-0.514 0.412,-0.52 0.396,-0.526 0.379,-0.531 0.36,-0.534 0.337,-0.534 c -0.025,0 -0.048,0.005 -0.067,0.015 -0.02,0.01 -0.037,0.025 -0.051,0.044 -0.013,0.019 -0.024,0.042 -0.031,0.069 -0.007,0.027 -0.011,0.058 -0.011,0.092 0,0.037 0.004,0.069 0.012,0.096 0.007,0.027 0.018,0.05 0.032,0.067 0.015,0.018 0.032,0.031 0.052,0.039 0.02,0.009 0.042,0.013 0.067,0.013 0.023,0 0.043,-0.002 0.059,-0.008 0.017,-0.005 0.031,-0.011 0.043,-0.018 0.012,-0.006 0.022,-0.012 0.029,-0.017 0.008,-0.005 0.014,-0.008 0.018,-0.008 0.004,0 0.006,0.001 0.008,0.002 0.002,0.001 0.004,0.004 0.005,0.008 0.001,0.004 0.002,0.009 0.003,0.016 0.001,0.007 0.001,0.017 0.001,0.028 z"
   style="fill:#4b4b4b;fill-rule:nonzero"
   id="path941"
   inkscape:connector-curvature="0" />
            </g>
            <g
   transform="matrix(416.667,0,0,416.667,1619.75,1471.1)"
   id="g947">
                <path
   d="m 0.562,-0.018 c 0,0.004 -0.001,0.007 -0.003,0.009 C 0.557,-0.006 0.553,-0.004 0.548,-0.002 0.543,-0.001 0.537,0 0.529,0.001 0.521,0.002 0.51,0.003 0.498,0.003 0.485,0.003 0.475,0.002 0.467,0.001 0.458,0 0.452,-0.001 0.447,-0.002 0.442,-0.004 0.439,-0.006 0.437,-0.009 0.435,-0.011 0.434,-0.014 0.434,-0.018 V -0.273 H 0.197 v 0.255 c 0,0.004 -0.001,0.007 -0.003,0.009 -0.002,0.003 -0.005,0.005 -0.01,0.007 C 0.179,-0.001 0.173,0 0.165,0.001 0.156,0.002 0.146,0.003 0.133,0.003 0.121,0.003 0.111,0.002 0.102,0.001 0.094,0 0.087,-0.001 0.083,-0.002 0.078,-0.004 0.074,-0.006 0.072,-0.009 0.07,-0.011 0.069,-0.014 0.069,-0.018 v -0.596 c 0,-0.004 0.001,-0.006 0.003,-0.009 0.002,-0.003 0.006,-0.005 0.011,-0.006 0.004,-0.002 0.011,-0.003 0.019,-0.004 0.009,-0.001 0.019,-0.002 0.031,-0.002 0.013,0 0.023,0.001 0.032,0.002 0.008,0.001 0.014,0.002 0.019,0.004 0.005,0.001 0.008,0.003 0.01,0.006 0.002,0.003 0.003,0.005 0.003,0.009 v 0.232 h 0.237 v -0.232 c 0,-0.004 0.001,-0.006 0.003,-0.009 0.002,-0.003 0.005,-0.005 0.01,-0.006 0.005,-0.002 0.011,-0.003 0.02,-0.004 0.008,-0.001 0.018,-0.002 0.031,-0.002 0.012,0 0.023,0.001 0.031,0.002 0.008,0.001 0.014,0.002 0.019,0.004 0.005,0.001 0.009,0.003 0.011,0.006 0.002,0.003 0.003,0.005 0.003,0.009 z"
   style="fill:#4b4b4b;fill-rule:nonzero"
   id="path945"
   inkscape:connector-curvature="0" />
            </g>
        </g>
    </g>
</svg>