<?xml version="1.0" encoding="UTF-8" standalone="no"?>
<svg
   xmlns:dc="http://purl.org/dc/elements/1.1/"
   xmlns:cc="http://creativecommons.org/ns#"
   xmlns:rdf="http://www.w3.org/1999/02/22-rdf-syntax-ns#"
   xmlns:svg="http://www.w3.org/2000/svg"
   xmlns="http://www.w3.org/2000/svg"
   xmlns:sodipodi="http://sodipodi.sourceforge.net/DTD/sodipodi-0.dtd"
   xmlns:inkscape="http://www.inkscape.org/namespaces/inkscape"
   width="100%"
   height="100%"
   viewBox="0 0 600 600"
   version="1.1"
   xml:space="preserve"
   style="fill-rule:evenodd;clip-rule:evenodd;stroke-linejoin:round;stroke-miterlimit:2;"
   id="svg897"
   sodipodi:docname="omniwatch-logo.svg"
   inkscape:version="0.92.5 (2060ec1f9f, 2020-04-08)"><metadata
   id="metadata903"><rdf:RDF><cc:Work
       rdf:about=""><dc:format>image/svg+xml</dc:format><dc:type
         rdf:resource="http://purl.org/dc/dcmitype/StillImage" /><dc:title /></cc:Work></rdf:RDF></metadata><defs
   id="defs901" /><sodipodi:namedview
   pagecolor="#ffffff"
   bordercolor="#666666"
   borderopacity="1"
   objecttolerance="10"
   gridtolerance="10"
   guidetolerance="10"
   inkscape:pageopacity="0"
   inkscape:pageshadow="2"
   inkscape:window-width="1776"
   inkscape:window-height="1365"
   id="namedview899"
   showgrid="false"
   showguides="true"
   inkscape:guide-bbox="true"
   inkscape:zoom="0.91333333"
   inkscape:cx="250.18298"
   inkscape:cy="261.22032"
   inkscape:window-x="1044"
   inkscape:window-y="388"
   inkscape:window-maximized="0"
   inkscape:current-layer="g895"><sodipodi:guide
     position="300,348.17518"
     orientation="1,0"
     id="guide947"
     inkscape:locked="false" /><sodipodi:guide
     position="116.05839,300"
     orientation="0,1"
     id="guide949"
     inkscape:locked="false" /></sodipodi:namedview>
    <g
   transform="matrix(0.451442,0,0,0.451442,-480.769,-939.537)"
   id="g895">
        <g
   transform="matrix(1.16712,0,0,1.17068,695.59637,310.45622)"
   id="g881">
            <circle
   cx="885.85901"
   cy="2080.22"
   r="531.00098"
   style="fill:#6c8ad8;fill-opacity:1"
   id="circle879" />
        </g>
        
        
    <g
   id="g4541"
   transform="matrix(0.95860662,0,0,0.95860662,70.787716,126.21528)"><g
     id="flowRoot907"
     style="font-style:normal;font-weight:normal;font-size:192px;line-height:1.25;font-family:sans-serif;letter-spacing:0px;word-spacing:0px;fill:#000000;fill-opacity:1;stroke:none"
     transform="matrix(2.215124,0,0,2.215124,638.62428,1995.5612)"
     aria-label="OMNI"><path
       id="path824"
       style="font-style:normal;font-variant:normal;font-weight:800;font-stretch:normal;font-size:160px;font-family:'Open Sans';-inkscape-font-specification:'Open Sans Ultra-Bold';letter-spacing:-12px;fill:#ffffff"
       d="m 396.22656,272.46289 q 0,28.82813 -14.14062,43.82813 -14.14063,15 -41.40625,15 -26.875,0 -41.25,-15.07813 -14.29688,-15.07812 -14.29688,-43.90625 0,-28.51562 14.21875,-43.51562 14.29688,-15.07813 41.48438,-15.07813 27.26562,0 41.32812,14.92188 14.0625,14.92187 14.0625,43.82812 z m -78.59375,0 q 0,33.125 23.04688,33.125 11.71875,0 17.34375,-8.04687 5.70312,-8.04688 5.70312,-25.07813 0,-17.10937 -5.78125,-25.23437 -5.70312,-8.20313 -17.10937,-8.20313 -23.20313,0 -23.20313,33.4375 z"
       inkscape:connector-curvature="0" /><path
       id="path826"
       style="font-style:normal;font-variant:normal;font-weight:800;font-stretch:normal;font-size:160px;font-family:'Open Sans';-inkscape-font-specification:'Open Sans Ultra-Bold';letter-spacing:-12px;fill:#ffffff"
       d="m 454.61719,329.72852 -23.35938,-82.26563 h -0.70312 q 1.64062,21.01563 1.64062,32.65625 v 49.60938 H 404.85156 V 215.50977 h 41.09375 l 23.82813,81.09375 h 0.625 l 23.35937,-81.09375 h 41.17188 v 114.21875 h -28.35938 v -50.07813 q 0,-3.90625 0.0781,-8.67187 0.15625,-4.76563 1.09375,-23.35938 h -0.70313 l -23.04687,82.10938 z"
       inkscape:connector-curvature="0" /><path
       id="path828"
       style="font-style:normal;font-variant:normal;font-weight:800;font-stretch:normal;font-size:160px;font-family:'Open Sans';-inkscape-font-specification:'Open Sans Ultra-Bold';letter-spacing:-12px;fill:#ffffff"
       d="m 656.28906,329.72852 h -40.46875 l -41.71875,-80.46875 h -0.70312 q 1.48437,18.98437 1.48437,28.98437 v 51.48438 H 547.53906 V 215.50977 h 40.3125 l 41.5625,79.375 h 0.46875 q -1.09375,-17.26563 -1.09375,-27.73438 v -51.64062 h 27.5 z"
       inkscape:connector-curvature="0" /><path
       id="path830"
       style="font-style:normal;font-variant:normal;font-weight:800;font-stretch:normal;font-size:160px;font-family:'Open Sans';-inkscape-font-specification:'Open Sans Ultra-Bold';letter-spacing:-12px;fill:#ffffff"
       d="M 668.97656,329.72852 V 215.50977 h 31.01563 v 114.21875 z"
       inkscape:connector-curvature="0" /></g><g
     id="flowRoot907-6"
     style="font-style:normal;font-weight:normal;font-size:192px;line-height:1.25;font-family:sans-serif;letter-spacing:0px;word-spacing:0px;clip-rule:evenodd;fill:#4b4b4b;fill-opacity:1;fill-rule:evenodd;stroke:none;stroke-linejoin:round;stroke-miterlimit:2"
     transform="matrix(2.215124,0,0,2.215124,567.2381,2262.7269)"
     aria-label="WATCH"><path
       id="path833"
       style="font-style:normal;font-variant:normal;font-weight:800;font-stretch:normal;font-size:146.66668701px;font-family:'Open Sans';-inkscape-font-specification:'Open Sans Ultra-Bold';letter-spacing:-12px;fill:#4b4b4b;fill-opacity:1"
       d="m 401.40236,329.72852 h -33.44401 l -10.02605,-45.6185 q -0.71614,-2.86458 -2.29166,-11.38672 -1.50391,-8.52214 -2.22006,-14.2513 -0.57291,4.65494 -1.86198,11.60156 -1.28906,6.875 -2.57812,12.67578 -1.21745,5.80078 -10.38412,46.97918 H 305.15235 L 279.22786,225.02798 h 27.28516 l 11.38673,52.4935 q 3.86718,17.40234 5.29948,27.71484 0.93098,-7.30468 3.29427,-19.83724 2.43489,-12.53255 4.51172,-20.76823 l 9.23828,-39.60287 h 26.21094 l 8.95182,39.60287 q 2.29167,9.52474 4.65495,21.98568 2.36328,12.46094 3.15104,18.61979 0.93099,-7.94922 5.08464,-27.57161 l 11.60156,-52.63673 h 27.28516 z"
       inkscape:connector-curvature="0" /><path
       id="path835"
       style="font-style:normal;font-variant:normal;font-weight:800;font-stretch:normal;font-size:146.66668701px;font-family:'Open Sans';-inkscape-font-specification:'Open Sans Ultra-Bold';letter-spacing:-12px;fill:#4b4b4b;fill-opacity:1"
       d="m 492.95707,329.72852 -5.15625,-19.6224 h -34.01694 l -5.29948,19.6224 h -31.08073 l 34.16016,-105.13023 h 37.74089 l 34.58985,105.13023 z m -11.02865,-42.82553 -4.51172,-17.1875 q -1.57552,-5.72917 -3.86719,-14.82422 -2.22005,-9.09506 -2.9362,-13.03386 -0.64453,3.65234 -2.57812,12.03125 -1.86198,8.37891 -8.37891,33.01433 z"
       inkscape:connector-curvature="0" /><path
       id="path837"
       style="font-style:normal;font-variant:normal;font-weight:800;font-stretch:normal;font-size:146.66668701px;font-family:'Open Sans';-inkscape-font-specification:'Open Sans Ultra-Bold';letter-spacing:-12px;fill:#4b4b4b;fill-opacity:1"
       d="m 569.4727,329.72852 h -28.28776 v -81.56903 h -25.56641 v -23.13151 h 79.34897 v 23.13151 h -25.4948 z"
       inkscape:connector-curvature="0" /><path
       id="path839"
       style="font-style:normal;font-variant:normal;font-weight:800;font-stretch:normal;font-size:146.66668701px;font-family:'Open Sans';-inkscape-font-specification:'Open Sans Ultra-Bold';letter-spacing:-12px;fill:#4b4b4b;fill-opacity:1"
       d="m 644.69927,246.7272 q -10.09766,0 -15.75521,8.30729 -5.65756,8.23568 -5.65756,22.77345 0,30.22135 22.98829,30.22135 6.94661,0 13.46354,-1.93359 6.51693,-1.93359 13.10547,-4.65495 v 23.91928 q -13.10547,5.80078 -29.64844,5.80078 -23.70443,0 -36.38021,-13.75 -12.60417,-13.75001 -12.60417,-39.7461 0,-16.25652 6.08724,-28.57423 6.15885,-12.31771 17.61719,-18.90625 11.52995,-6.66016 27.07032,-6.66016 16.97265,0 32.44141,7.37631 l -8.66537,22.27214 q -5.80078,-2.72136 -11.60156,-4.58334 -5.80079,-1.86198 -12.46094,-1.86198 z"
       inkscape:connector-curvature="0" /><path
       id="path841"
       style="font-style:normal;font-variant:normal;font-weight:800;font-stretch:normal;font-size:146.66668701px;font-family:'Open Sans';-inkscape-font-specification:'Open Sans Ultra-Bold';letter-spacing:-12px;fill:#4b4b4b;fill-opacity:1"
       d="m 770.91544,329.72852 h -28.43099 v -42.6823 h -32.8711 v 42.6823 h -28.431 V 225.02798 h 28.431 v 38.81511 h 32.8711 v -38.81511 h 28.43099 z"
       inkscape:connector-curvature="0" /></g></g></g>
</svg>