<?xml version="1.0" encoding="UTF-8" standalone="no"?>
<!DOCTYPE svg PUBLIC "-//W3C//DTD SVG 1.1//EN" "http://www.w3.org/Graphics/SVG/1.1/DTD/svg11.dtd">
<svg width="100%" height="100%" viewBox="0 0 400 158" version="1.1" xmlns="http://www.w3.org/2000/svg" xmlns:xlink="http://www.w3.org/1999/xlink" xml:space="preserve" xmlns:serif="http://www.serif.com/" style="fill-rule:evenodd;clip-rule:evenodd;stroke-linecap:round;stroke-linejoin:round;stroke-miterlimit:1.5;">
    <g>
        <g>
            <path d="M109.57,42.556L74.115,22.657L74.115,62.454L109.57,42.556Z" style="fill:rgb(146,169,234);stroke:rgb(146,169,234);stroke-width:1px;"/>
            <path d="M38.659,42.556L74.115,22.657L74.115,62.454L38.659,42.556Z" style="fill:rgb(106,136,218);stroke:rgb(106,136,218);stroke-width:1px;"/>
            <path d="M74.115,62.454L38.659,82.353L38.659,42.556L74.115,62.454Z" style="fill:rgb(73,107,199);stroke:rgb(73,107,199);stroke-width:1px;"/>
            <path d="M3.203,102.251L38.659,122.15L38.659,82.353L3.203,102.251Z" style="fill:rgb(146,169,234);stroke:rgb(146,169,234);stroke-width:1px;"/>
            <path d="M74.115,102.251L38.659,122.15L38.659,82.353L74.115,102.251Z" style="fill:rgb(106,136,218);stroke:rgb(106,136,218);stroke-width:1px;"/>
            <path d="M38.659,82.353L74.115,62.454L74.115,102.251L38.659,82.353Z" style="fill:rgb(44,79,177);stroke:rgb(44,79,177);stroke-width:1px;"/>
        </g>
        <g>
            <path d="M133.423,118.711C133.423,125.104 131.122,130.141 126.521,133.822C121.92,137.502 115.519,139.343 107.318,139.343C99.763,139.343 93.08,137.922 87.268,135.081L87.268,121.133C92.047,123.264 96.091,124.765 99.4,125.637C102.709,126.509 105.736,126.944 108.481,126.944C111.774,126.944 114.301,126.315 116.06,125.056C117.82,123.796 118.7,121.924 118.7,119.438C118.7,118.049 118.312,116.814 117.537,115.733C116.763,114.651 115.624,113.61 114.123,112.609C112.622,111.608 109.562,110.01 104.945,107.814C100.619,105.78 97.374,103.827 95.211,101.954C93.048,100.081 91.32,97.902 90.029,95.416C88.737,92.93 88.091,90.024 88.091,86.698C88.091,80.435 90.214,75.511 94.46,71.927C98.706,68.343 104.574,66.551 112.065,66.551C115.745,66.551 119.257,66.987 122.598,67.859C125.94,68.73 129.435,69.957 133.084,71.539L128.241,83.211C124.463,81.662 121.339,80.58 118.869,79.966C116.399,79.353 113.97,79.046 111.58,79.046C108.739,79.046 106.56,79.708 105.042,81.032C103.525,82.356 102.766,84.083 102.766,86.214C102.766,87.538 103.073,88.692 103.686,89.677C104.3,90.662 105.276,91.614 106.616,92.534C107.956,93.454 111.128,95.109 116.133,97.498C122.752,100.663 127.288,103.835 129.742,107.015C132.196,110.195 133.423,114.094 133.423,118.711Z" style="fill-rule:nonzero;"/>
            <path d="M154.625,100.889L159.565,100.889C164.182,100.889 167.637,99.976 169.929,98.152C172.222,96.328 173.368,93.672 173.368,90.185C173.368,86.666 172.407,84.067 170.486,82.388C168.565,80.709 165.554,79.87 161.454,79.87L154.625,79.87L154.625,100.889ZM188.527,89.653C188.527,97.272 186.146,103.1 181.383,107.136C176.621,111.172 169.849,113.19 161.066,113.19L154.625,113.19L154.625,138.374L139.611,138.374L139.611,67.568L162.229,67.568C170.817,67.568 177.347,69.417 181.819,73.113C186.291,76.81 188.527,82.323 188.527,89.653Z" style="fill-rule:nonzero;"/>
            <path d="M259.516,102.874C259.516,114.595 256.61,123.603 250.798,129.899C244.987,136.195 236.657,139.343 225.808,139.343C214.96,139.343 206.629,136.195 200.818,129.899C195.006,123.603 192.1,114.562 192.1,102.777C192.1,90.993 195.014,81.992 200.842,75.777C206.67,69.562 215.024,66.454 225.905,66.454C236.786,66.454 245.108,69.586 250.871,75.85C256.634,82.114 259.516,91.122 259.516,102.874ZM207.84,102.874C207.84,110.785 209.342,116.742 212.344,120.745C215.347,124.749 219.835,126.751 225.808,126.751C237.787,126.751 243.776,118.792 243.776,102.874C243.776,86.924 237.819,78.949 225.905,78.949C219.932,78.949 215.428,80.959 212.393,84.979C209.358,88.999 207.84,94.964 207.84,102.874Z" style="fill-rule:nonzero;"/>
            <path d="M331.813,102.874C331.813,114.595 328.907,123.603 323.095,129.899C317.284,136.195 308.954,139.343 298.105,139.343C287.257,139.343 278.926,136.195 273.115,129.899C267.303,123.603 264.397,114.562 264.397,102.777C264.397,90.993 267.311,81.992 273.139,75.777C278.967,69.562 287.321,66.454 298.202,66.454C309.083,66.454 317.405,69.586 323.168,75.85C328.931,82.114 331.813,91.122 331.813,102.874ZM280.137,102.874C280.137,110.785 281.639,116.742 284.641,120.745C287.644,124.749 292.132,126.751 298.105,126.751C310.084,126.751 316.073,118.792 316.073,102.874C316.073,86.924 310.116,78.949 298.202,78.949C292.229,78.949 287.725,80.959 284.69,84.979C281.655,88.999 280.137,94.964 280.137,102.874Z" style="fill-rule:nonzero;"/>
            <path d="M396.797,138.374L379.749,138.374L361.2,108.541L354.856,113.093L354.856,138.374L339.842,138.374L339.842,67.568L354.856,67.568L354.856,99.968L360.764,91.638L379.943,67.568L396.603,67.568L371.903,98.903L396.797,138.374Z" style="fill-rule:nonzero;"/>
        </g>
    </g>
</svg>
