<?xml version="1.0" encoding="UTF-8" standalone="no"?>
<!DOCTYPE svg PUBLIC "-//W3C//DTD SVG 1.1//EN" "http://www.w3.org/Graphics/SVG/1.1/DTD/svg11.dtd">
<svg width="100%" height="100%" viewBox="0 0 300 100" version="1.1" xmlns="http://www.w3.org/2000/svg" xmlns:xlink="http://www.w3.org/1999/xlink" xml:space="preserve" xmlns:serif="http://www.serif.com/" style="fill-rule:evenodd;clip-rule:evenodd;stroke-linejoin:round;stroke-miterlimit:1.41421;">
    <path d="M267.999,4L263.804,14.939L241.345,14.939C241.345,14.939 217.67,13.465 217.887,49.219C218.16,94.082 250.211,84.935 250.211,84.935L250.211,54.154L235.315,54.154L239.321,43.617L271.653,43.617L271.653,90.635C271.653,90.635 261.485,95.959 238.995,96C226.002,96.024 193.914,88.392 193.914,49.219C193.914,4.432 238.9,4.001 238.995,4L267.999,4ZM113.481,94.438L88.593,94.438L80.233,72.907L48.985,72.907L40.485,94.438L28.347,94.438L58.868,17.957L53.188,4L77.796,4L113.481,94.438ZM187.27,4L182.861,14.939L147.153,14.939L147.153,43.449L180.151,43.449L175.765,54.203L147.153,54.203L147.153,83.851L188.554,83.851L184.221,94.438L124.002,94.438L124.002,4L187.27,4ZM64.883,33.559L53.188,62.517L76.182,62.517L64.883,33.559Z" style="fill:rgb(112,112,112);"/>
</svg>
