<?xml version="1.0" encoding="UTF-8" standalone="no"?>
<!DOCTYPE svg PUBLIC "-//W3C//DTD SVG 1.1//EN" "http://www.w3.org/Graphics/SVG/1.1/DTD/svg11.dtd">
<svg width="100%" height="100%" viewBox="0 0 300 100" version="1.1" xmlns="http://www.w3.org/2000/svg" xmlns:xlink="http://www.w3.org/1999/xlink" xml:space="preserve" xmlns:serif="http://www.serif.com/" style="fill-rule:evenodd;clip-rule:evenodd;stroke-linejoin:round;stroke-miterlimit:1.41421;">
    <path d="M141.258,69.031C141.258,69.031 141.772,88.148 120.58,89.389C102.78,90.431 99.237,73.569 99.237,73.569L112.231,73.569C112.231,73.569 112.103,80.342 120.58,80.166C127.159,80.029 128.516,75.302 128.516,75.302L129.292,65.9C126.13,68.057 122.32,70.534 118.221,70.534C107.281,70.534 98.398,61.554 98.398,50.493C98.398,39.432 107.281,30.452 118.221,30.452C122.32,30.452 126.13,32.537 129.292,34.695L129.292,31.661L141.258,31.661L141.258,69.031ZM94.258,69.031C94.258,69.031 94.772,88.148 73.58,89.389C55.78,90.431 52.237,73.569 52.237,73.569L65.231,73.569C65.231,73.569 65.103,80.342 73.58,80.166C80.159,80.029 81.516,75.302 81.516,75.302L82.292,65.9C79.13,68.057 75.32,70.534 71.221,70.534C60.281,70.534 51.398,61.554 51.398,50.493C51.398,39.432 60.281,30.452 71.221,30.452C75.32,30.452 79.13,32.537 82.292,34.695L82.292,31.661L94.258,31.661L94.258,69.031ZM47.518,69.031L35.552,69.031L35.552,67.116C32.39,69.274 28.58,70.534 24.481,70.534C13.541,70.534 4.658,61.554 4.658,50.493C4.658,39.432 13.541,30.452 24.481,30.452C28.58,30.452 32.39,31.712 35.552,33.87L35.552,31.661L47.518,31.661L47.518,69.031ZM273.427,30.048C285.522,30.048 295.342,39.119 295.342,50.291C295.342,61.463 285.522,70.534 273.427,70.534C261.331,70.534 251.511,61.463 251.511,50.291C251.511,39.119 261.331,30.048 273.427,30.048ZM183.658,51.985C184.064,57.71 186.554,61.937 192.336,61.83C196.915,61.745 198.27,60.002 200.546,56.77L211.257,58.363C207.433,66.84 200.554,69.903 191.353,69.903C180.319,69.903 171.361,63.635 171.361,50.127C171.361,36.618 180.319,30.35 191.353,30.35C206.267,30.35 211.345,39.211 211.345,50.127C211.345,50.753 211.315,51.373 211.257,51.985L183.658,51.985ZM157.253,31.661L157.253,35.174C160.948,30.124 166.557,29.511 173.151,31.181L171.414,40.567C163.296,38.375 158.183,40.742 157.253,49.459L157.253,69.175L145.345,69.175L145.345,31.661L157.253,31.661ZM227.27,45.047L239.818,31.33L255.083,31.33L237.997,47.94L256.34,68.602L240.821,68.602L227.27,52.974L227.27,68.602L215.727,68.602L215.727,10.611L227.27,10.611L227.27,45.047ZM26.84,39.798C32.573,39.798 37.228,44.5 37.228,50.291C37.228,56.082 32.573,60.784 26.84,60.784C21.107,60.784 16.452,56.082 16.452,50.291C16.452,44.5 21.107,39.798 26.84,39.798ZM273.84,39.798C279.573,39.798 284.228,44.5 284.228,50.291C284.228,56.082 279.573,60.784 273.84,60.784C268.107,60.784 263.452,56.082 263.452,50.291C263.452,44.5 268.107,39.798 273.84,39.798ZM120.58,39.798C126.313,39.798 130.968,44.5 130.968,50.291C130.968,56.082 126.313,60.784 120.58,60.784C114.847,60.784 110.192,56.082 110.192,50.291C110.192,44.5 114.847,39.798 120.58,39.798ZM73.58,39.798C79.313,39.798 83.968,44.5 83.968,50.291C83.968,56.082 79.313,60.784 73.58,60.784C67.847,60.784 63.192,56.082 63.192,50.291C63.192,44.5 67.847,39.798 73.58,39.798ZM200.585,45.162C199.567,40.807 196.239,37.612 192.295,37.612C188.351,37.612 185.023,40.807 184.004,45.162L200.585,45.162Z" style="fill:rgb(112,112,112);"/>
</svg>
