<?xml version="1.0" encoding="UTF-8" standalone="no"?>
<svg
   xmlns:dc="http://purl.org/dc/elements/1.1/"
   xmlns:cc="http://creativecommons.org/ns#"
   xmlns:rdf="http://www.w3.org/1999/02/22-rdf-syntax-ns#"
   xmlns:svg="http://www.w3.org/2000/svg"
   xmlns="http://www.w3.org/2000/svg"
   id="svg8"
   version="1.1"
   viewBox="0 0 52.916665 52.916668"
   height="200"
   width="200">
  <defs
     id="defs2" />
  <metadata
     id="metadata5">
    <rdf:RDF>
      <cc:Work
         rdf:about="">
        <dc:format>image/svg+xml</dc:format>
        <dc:type
           rdf:resource="http://purl.org/dc/dcmitype/StillImage" />
        <dc:title></dc:title>
      </cc:Work>
    </rdf:RDF>
  </metadata>
  <g
     transform="translate(0,-244.08332)"
     id="layer1">
    <path
       id="path882"
       transform="matrix(0.26458333,0,0,0.26458333,0,244.08332)"
       d="M 33.839844 115.65234 L 20 151.43164 L 27.589844 151.38672 L 29.642578 145.87891 L 43.847656 145.87891 L 46.087891 151.38672 L 54.359375 151.38672 L 39.775391 115.65234 L 33.839844 115.65234 z M 36.775391 126.59375 L 41.384766 139.44336 L 32.072266 139.44336 L 36.775391 126.59375 z "
       style="fill:#000000;fill-opacity:1;stroke:#000000;stroke-width:0.99999994px;stroke-linecap:butt;stroke-linejoin:miter;stroke-opacity:1" />
    <path
       id="path886"
       d="m 15.18425,284.13764 v -9.45466 h 2.03793 l 4.710625,6.04513 v -6.04513 h 2.004521 v 9.45466 h -1.855017 l -4.860129,-6.26207 v 6.26207 z"
       style="fill:#000000;stroke:none;stroke-width:0.26458332px;stroke-linecap:butt;stroke-linejoin:miter;stroke-opacity:1;fill-opacity:1" />
    <path
       id="path888"
       transform="matrix(0.26458333,0,0,0.26458333,0,244.08332)"
       d="M 96.722656 115.65234 L 96.722656 151.38672 L 109.4375 151.38672 C 135.80191 151.38672 135.1823 115.65234 109.4375 115.65234 L 96.722656 115.65234 z M 105.01562 122.01172 C 108.07481 121.99743 120.3125 122.64915 120.3125 134 C 120.3125 146.9724 104.33008 145.04102 104.33008 145.04102 L 104.33008 122.0293 C 104.33008 122.0293 104.5786 122.01376 105.01562 122.01172 z "
       style="fill:#000000;stroke:none;stroke-width:0.99999994px;stroke-linecap:butt;stroke-linejoin:miter;stroke-opacity:1;fill-opacity:1" />
    <path
       id="path892"
       d="m 35.237816,274.68298 v 9.45466 h 5.487377 v -1.67879 h -3.441094 v -2.3052 h 2.965018 v -1.69549 h -2.965018 v -2.08804 h 2.965018 l 0.476076,-1.68714 z"
       style="fill:#000000;stroke:none;stroke-width:0.26458332px;stroke-linecap:butt;stroke-linejoin:miter;stroke-opacity:1;fill-opacity:1" />
    <path
       id="path894"
       d="m 42.287049,274.68298 v 9.45466 h 5.33795 v -1.67879 h -3.325077 v -7.77587 z"
       style="fill:#000000;stroke:none;stroke-width:0.26458332px;stroke-linecap:butt;stroke-linejoin:miter;stroke-opacity:1;fill-opacity:1" />
    <path
       id="path902"
       d="m 5.2916666,257.544 v 3.9026 c 8.3535144,-4.80798 18.2761414,-2.49891 27.7812494,-2.08359 -9.68729,-2.78339 -19.384242,-5.61606 -27.7812494,-1.81901 z"
       style="fill:#c3e9fc;stroke:none;stroke-width:0.26458332px;stroke-linecap:butt;stroke-linejoin:miter;stroke-opacity:1;fill-opacity:1" />
    <path
       id="path902-3"
       d="m 5.2916666,262.1039 v 3.9026 c 8.3535144,-4.80798 18.2761414,-2.49891 27.7812504,-2.08359 -9.687291,-2.78339 -19.384243,-5.61606 -27.7812504,-1.81901 z"
       style="fill:#4e8abe;stroke:none;stroke-width:0.26458332px;stroke-linecap:butt;stroke-linejoin:miter;stroke-opacity:1;fill-opacity:1" />
    <path
       id="path902-3-6"
       d="m 5.2916666,266.9313 v 3.9026 c 8.3535144,-4.80798 18.2761414,-2.49891 27.7812504,-2.08359 -9.687291,-2.78339 -19.384243,-5.61606 -27.7812504,-1.81901 z"
       style="fill:#c1d72e;stroke:none;stroke-width:0.26458332px;stroke-linecap:butt;stroke-linejoin:miter;stroke-opacity:1;fill-opacity:1" />
    <path
       id="path902-7"
       d="m 47.625,261.26473 v -3.9026 c -8.353514,4.80798 -18.276141,2.49891 -27.78125,2.08359 9.687291,2.78339 19.384243,5.61606 27.78125,1.81901 z"
       style="fill:#c3e9fc;stroke:none;stroke-width:0.26458332px;stroke-linecap:butt;stroke-linejoin:miter;stroke-opacity:1;fill-opacity:1" />
    <path
       id="path902-7-5"
       d="m 47.625,265.90029 v -3.9026 c -8.353515,4.80798 -18.276143,2.49891 -27.781252,2.08359 9.687291,2.78339 19.384244,5.61606 27.781252,1.81901 z"
       style="fill:#4e8abe;stroke:none;stroke-width:0.26458332px;stroke-linecap:butt;stroke-linejoin:miter;stroke-opacity:1;fill-opacity:1" />
    <path
       id="path902-7-5-3"
       d="m 47.625,270.53049 v -3.9026 c -8.353514,4.80798 -18.276142,2.49891 -27.781251,2.08359 9.687291,2.78339 19.384244,5.61606 27.781251,1.81901 z"
       style="fill:#c1d72e;stroke:none;stroke-width:0.26458332px;stroke-linecap:butt;stroke-linejoin:miter;stroke-opacity:1;fill-opacity:1" />
  </g>
</svg>
