<?xml version="1.0" encoding="UTF-8" standalone="no"?><!DOCTYPE svg PUBLIC "-//W3C//DTD SVG 1.1//EN" "http://www.w3.org/Graphics/SVG/1.1/DTD/svg11.dtd"><svg width="100%" height="100%" viewBox="0 0 300 100" version="1.1" xmlns="http://www.w3.org/2000/svg" xmlns:xlink="http://www.w3.org/1999/xlink" xml:space="preserve" xmlns:serif="http://www.serif.com/" style="fill-rule:evenodd;clip-rule:evenodd;stroke-linejoin:round;stroke-miterlimit:1.41421;"><path d="M126.026,87.371l-56.816,0l-8.819,-18.978l29.949,-0.896l-14.596,-36.724l-23.613,55.094l-27.324,0l35.584,-76.606l29.949,0l35.686,78.11Zm74.848,-56.393c6.677,-13.493 21.571,-21.236 36.108,-23.086c18.332,-2.332 36.096,5.297 36.096,5.297l0,22.592c0,0 -13.142,-7.332 -26.312,-7.696c-11.94,-0.329 -24.027,7.21 -24.002,18.876c0.029,13.327 14.857,19.071 24.002,19.77c12.248,0.935 26.312,-5.536 26.312,-5.536l0,19.622c0,0 -17.323,8.152 -35.41,5.726c-19.754,-2.65 -40.419,-16.778 -40.419,-39.582c0,-0.245 0.002,-0.488 0.007,-0.731c-3.916,6.907 -10.839,12.157 -20.091,12.835l-22.23,0l0,26.407l-28.909,0l0,-45.422l44.005,0c5.154,1.378 5.85,-11.669 0.548,-13.153c-0.195,-0.055 -0.357,-0.205 -0.548,-0.304l-44.005,0l-6.845,-17.332l56.176,-1.479c17.083,1.25 24.909,11.91 25.517,23.196Z" style="fill:#757575;"/></svg>