<?xml version="1.0" encoding="UTF-8" standalone="no"?>
<!DOCTYPE svg PUBLIC "-//W3C//DTD SVG 1.1//EN" "http://www.w3.org/Graphics/SVG/1.1/DTD/svg11.dtd">
<svg width="100%" height="100%" viewBox="0 0 300 100" version="1.1" xmlns="http://www.w3.org/2000/svg" xmlns:xlink="http://www.w3.org/1999/xlink" xml:space="preserve" xmlns:serif="http://www.serif.com/" style="fill-rule:evenodd;clip-rule:evenodd;stroke-linejoin:round;stroke-miterlimit:1.41421;">
    <path d="M294.662,91.676L294.662,100.797L7.753,100.797L7.753,91.676L294.662,91.676ZM215.875,81.143L206.909,81.143L212.543,58.536C201.032,72.216 186.278,77.25 182.437,63.951C175.916,72.233 167.778,73.49 161.41,68.798C152.937,61.627 154.55,43.956 169.121,31.714C175.499,27.674 181.346,27.798 186.711,31.714L187.744,29.602L191.542,29.602L188.2,43.514L184.576,43.514C184.784,26.517 171.304,30.566 166.92,54.118C165.394,62.313 170.282,71.682 177.115,63.393C186.301,52.25 191.552,41.634 199.82,41.94C207.98,42.714 208.507,49.87 208.019,57.875C211.607,54.659 213.948,50.708 215.437,46.253L211.967,46.253L212.543,43.514L224.808,43.514L224.808,45.145C228.969,42.831 232.998,42.294 236.819,44.589C240.678,48.176 240.796,53.061 239.214,58.536L251.655,45.75C256.919,40.936 265.806,41.459 267.685,46.961C268.846,51.932 267.311,54.049 263.84,54.118C258.765,54.217 259.089,47.589 263.84,47.584C263.61,46.194 262.594,45.691 261.077,45.75C257.934,46.279 255.392,50.222 253.36,57.06C250.861,65.47 256.367,69.325 262.697,63.393C265.453,60.493 267.899,57.434 269.844,54.118C271.738,51.38 273.699,48.931 275.769,46.961C279.124,43.862 282.874,42.085 287.306,42.579C295.33,43.475 296.392,56.218 292.584,62.612C287.317,71.455 277.538,73.387 272.858,70.344C270.664,68.919 268.613,66.121 268.18,62.612C256.131,76.833 242.335,73.647 244.463,58.536C232.078,71.658 223.961,74.124 218.964,68.798L215.875,81.143ZM29.275,53C25.864,69.833 15.779,72.206 5.338,71.522L5.338,67.336C10.783,70.221 14.4,68.048 16.806,62.524C16.82,62.433 16.829,62.342 16.849,62.253C18.921,53.026 20.991,45.55 24.36,40.262C29.572,32.081 37,28.743 46.198,29.05L59.634,29.05L58.877,31.922L53.237,31.922L44.8,62.524C44.138,68.717 51.18,68.182 55.914,57.609L58.877,46.731L53.998,46.731L55.066,42.874L58.083,42.874C61.535,42.993 64.718,39.771 67.719,34.306L71.264,34.306L69.215,42.874L75.48,42.874L74.454,46.336L68.471,46.336L64.693,61.531C63.957,68.486 70.821,66.713 76.108,57.609C78.506,49.885 80.339,42.11 81.873,34.306L76.684,34.306L77.409,30.741L92.519,30.741L84.793,61.531C83.34,67.409 87.964,65.645 89.758,62.524C95.654,52.267 100.35,43.786 106.424,42.874C109.882,42.38 112.792,42.875 114.788,45.016L115.496,42.874L123.918,42.874L119.532,62.524C118.971,66.317 120.927,66.247 124.605,63.534C124.169,60.216 125.787,58.584 128.95,58.218C133.031,58.32 133.129,64.114 129.797,64.833C130.074,69.025 137.491,69.266 138.596,64.833C138.909,63.575 138.476,62.479 137.364,61.531C131.89,57.648 129.006,54.966 129.342,51.367C129.97,44.639 134.456,41.785 142.042,42.043C148.687,42.89 152.657,49.762 147.892,52.158C145.127,53.548 140.925,51.486 143.736,46.731C141.343,44.955 138.454,46.058 137.93,48.82C137.919,51.277 140.206,53.069 143.088,54.688C145.546,55.653 147.786,58.16 147.892,60.556C148.196,67.481 144.105,70.575 136.747,71.522C131.823,72.069 128.194,70.428 125.914,66.507C121.582,71.497 114.295,74.21 110.582,67.646C104.135,74.436 94.749,72.326 93.378,64.16C86.573,72.608 75.727,74.955 74.7,65.948C65.647,73.659 56.118,73.422 55.292,66.507C47.667,74.483 34.309,72.807 35.346,64.833C35.851,60.945 36.883,56.993 38.241,53L29.275,53ZM228.958,46.415C231.251,47.067 231.755,52.372 230.083,58.254C228.41,64.136 225.19,68.382 222.896,67.73C220.603,67.077 220.099,61.772 221.772,55.89C223.444,50.008 226.665,45.762 228.958,46.415ZM199.595,46.289C202.132,47.011 202.833,52.372 201.16,58.254C199.487,64.136 196.07,68.326 193.533,67.604C190.997,66.883 190.296,61.522 191.968,55.64C193.641,49.758 197.059,45.568 199.595,46.289ZM285.595,46.289C288.132,47.011 288.833,52.372 287.16,58.254C285.487,64.136 282.07,68.326 279.533,67.604C276.997,66.883 276.296,61.522 277.968,55.64C279.641,49.758 283.059,45.568 285.595,46.289ZM110.292,46.674C112.686,47.312 113.483,52.13 112.07,57.425C110.657,62.72 107.567,66.501 105.174,65.862C102.78,65.224 101.984,60.406 103.396,55.111C104.809,49.816 107.899,46.035 110.292,46.674ZM43.903,32.502L41.314,32.502C34.914,35.246 32.017,41.787 30.132,49.423L39.23,49.423L43.903,32.502ZM294.662,-0.324L294.662,14.726L7.753,14.726L7.753,-0.324L294.662,-0.324Z" style="fill:rgb(112,112,112);"/>
</svg>
