<?xml version="1.0" encoding="UTF-8" standalone="no"?><!DOCTYPE svg PUBLIC "-//W3C//DTD SVG 1.1//EN" "http://www.w3.org/Graphics/SVG/1.1/DTD/svg11.dtd"><svg width="100%" height="100%" viewBox="0 0 300 100" version="1.1" xmlns="http://www.w3.org/2000/svg" xmlns:xlink="http://www.w3.org/1999/xlink" xml:space="preserve" xmlns:serif="http://www.serif.com/" style="fill-rule:evenodd;clip-rule:evenodd;stroke-linejoin:round;stroke-miterlimit:1.41421;"><path d="M254.826,41.908l-8.987,0c-1.69,-9.08 -14.78,-10.865 -18.502,0c-1.834,5.071 -1.348,10.13 0,15.184c2.833,10.625 17.228,9.18 18.502,-1.361l8.987,0c-1.499,18.973 -31.61,25.173 -37.477,0c-0.642,-4.383 -0.8,-8.935 0,-13.823c7.967,-24.713 37.261,-14.994 37.477,0Zm-72.278,-14.282l31.563,0l0,7.622l-22.613,0l0,9.209l20.933,0l0,7.587l-20.933,0l0,11.189l23.798,0l0,7.627l-32.748,0l0,-43.234Zm-25.67,7.722l-12.982,0l0,-7.722l35.038,0l0,7.722l-12.908,0l0,35.434l-9.148,0l0,-35.434Zm111.134,8.741l16.821,0l0,-16.372l8.686,0l0,43.055l-8.686,0l0,-19.078l-16.821,0l0,19.078l-8.865,0l0,-43.055l8.865,0l0,16.372Zm-261.815,26.673l19.081,0l1.439,-2.442l18.391,0l1.612,2.442l18.678,0l-6.39,-15.435c-8.507,9.193 -14.922,11.66 -17.862,-1.907c-2.986,-13.786 -9.873,-12.429 -21.974,-1.301l-9.948,10.723l-3.027,7.92Zm105.762,0l-9.915,0l-2.592,-8.886l-15.809,0l-3.085,8.886l-9.296,0l15.418,-43.136l10.043,0l15.236,43.136Zm16.131,-0.041l-8.813,0l-14.245,-43.095l9.71,0l9.256,32.33l9.556,-32.33l9.168,0l-14.632,43.095Zm-104.732,-43.007l24.182,0l9.422,22.851c-7.191,10.072 -12.802,13.2 -16.053,-3.878c-1.583,-8.313 -6.828,-10.085 -15.179,-6.308l-9.273,4.793l6.901,-17.458Zm68.277,10.064l-6.044,16.491l11.651,0l-5.607,-16.491Z" style="fill:#757575;"/></svg>