<?xml version="1.0" encoding="UTF-8" standalone="no"?>
<!DOCTYPE svg PUBLIC "-//W3C//DTD SVG 1.1//EN" "http://www.w3.org/Graphics/SVG/1.1/DTD/svg11.dtd">
<svg width="100%" height="100%" viewBox="0 0 300 100" version="1.1" xmlns="http://www.w3.org/2000/svg" xmlns:xlink="http://www.w3.org/1999/xlink" xml:space="preserve" xmlns:serif="http://www.serif.com/" style="fill-rule:evenodd;clip-rule:evenodd;stroke-miterlimit:1.5;">
    <g transform="matrix(1,0,0,1,3.5135,-125)">
        <g>
            <path d="M254.665,202.979L254.665,192.707" style="fill:none;stroke:rgb(117,117,117);stroke-width:2.5px;"/>
            <path d="M227.808,202.979L227.808,192.301" style="fill:none;stroke:rgb(117,117,117);stroke-width:2.5px;"/>
            <path d="M177.025,202.979L177.025,192.707" style="fill:none;stroke:rgb(117,117,117);stroke-width:2.5px;"/>
            <path d="M131.912,202.979L131.912,181.138" style="fill:none;stroke:rgb(117,117,117);stroke-width:2.5px;"/>
            <path d="M88.265,202.979L88.265,192.301" style="fill:none;stroke:rgb(117,117,117);stroke-width:2.5px;"/>
            <path d="M36.089,188.485L36.089,202.979L283.583,202.979L283.583,191.794" style="fill:none;stroke:rgb(117,117,117);stroke-width:2.5px;"/>
        </g>
        <path d="M11.048,169.597L11.048,172.018C11.417,173.02 12.952,172.984 13.331,172.018L13.331,169.944C13.377,169.378 12.533,168.752 11.317,168.101C9.759,167.306 8.815,166.199 8.64,164.702L8.64,162.886C8.648,159.253 15.814,159.325 15.902,162.886L15.902,164.702L13.331,164.702L13.331,162.886C12.529,161.881 11.07,162.359 11.048,163.622C11.045,164.081 11.127,164.503 11.317,164.879C11.898,165.365 11.798,165.484 12.475,165.848C13.95,166.639 15.751,168.047 15.902,169.255L15.902,172.274C15.697,174.114 14.217,174.696 12.279,174.826C9.686,174.753 8.584,173.7 8.443,172.018L8.443,169.597L11.048,169.597ZM42.432,160.715L49.102,160.715L49.102,162.724L45.059,162.724L45.059,166.064L48.824,166.064L48.824,168.117L45.059,168.117L45.059,172.384L49.265,172.384L49.265,174.489L42.432,174.489L42.432,160.715ZM19.569,166.06L21.813,166.06L21.813,160.715L24.436,160.715L24.436,174.489L21.813,174.489L21.813,168.131L19.569,168.131L19.569,174.489L16.958,174.489L16.958,160.715L19.569,160.715L19.569,166.06ZM36.363,174.489L31.193,174.489C30.977,174.3 30.894,174.017 30.879,173.687L30.879,169.502C30.771,168.926 30.478,168.577 30.041,168.404L28.343,168.404L28.343,174.489L25.731,174.489L25.731,160.715L31.596,160.715C32.509,160.857 33.184,161.34 33.362,162.538L33.362,165.855C33.162,166.771 32.601,167.298 31.746,167.507C32.67,167.742 33.42,168.197 33.504,169.502L33.504,173.687C33.638,173.77 33.7,173.897 33.701,174.061L33.701,174.443L36.363,160.715L39.274,160.715L41.935,174.489L39.274,174.489L38.927,172.288L36.636,172.288L36.363,174.489ZM8.243,174.489L5.582,174.489L5.235,172.288L2.944,172.288L2.671,174.489L0,174.489L2.671,160.715L5.582,160.715L8.243,174.489ZM4.122,164.702L3.275,170.082L4.893,170.082L4.122,164.702ZM37.814,164.702L36.967,170.082L38.585,170.082L37.814,164.702ZM30.233,162.769L28.407,162.769L28.407,166.44L30.005,166.44C30.35,166.404 30.614,166.245 30.736,165.866L30.736,163.258C30.657,163.002 30.484,162.844 30.233,162.769Z" style="fill:rgb(117,117,117);"/>
        <path d="M18.88,158.692L24.877,148.237L47.093,148.237L58.201,167.602L47.093,186.967L24.877,186.967L18.889,176.528" style="fill:none;stroke:rgb(117,117,117);stroke-width:2.5px;stroke-linejoin:round;"/>
        <path d="M248.694,179.19L270.219,179.19C270.562,166.218 264.976,160.223 254.876,159.539C235.139,159.196 233.552,194.447 255.682,193.933C263.821,193.03 268.243,189.635 269.485,184.106L261.248,182.6C259.325,190.159 248.789,188.227 248.694,179.19ZM286.257,160.312L292.137,160.312L292.137,167.355L286.257,167.355L286.257,183.874C286.563,186.894 288.523,187.497 292.137,185.681L292.973,192.414C283.552,195.378 278.039,193.601 277.592,185.681L277.592,167.355L273.618,167.355L273.618,160.312L277.592,160.312L277.592,153.833L286.257,148.797L286.257,160.312ZM186.965,162.503L195.715,160.29C191.667,142.807 164.87,142.389 158.315,160.29C155.059,171.857 157.242,180.487 162.367,187.528C172.416,198.104 193.477,195.048 195.715,179.379L186.965,176.566C186.172,187.225 171.688,189.835 167.429,179.379C165.55,173.513 165.59,167.613 167.429,161.682C171.208,151.98 184.318,153.023 186.965,162.503ZM212.013,192.975L203.521,192.975L203.521,160.581L211.326,160.581L211.326,164.977C219.361,155.916 232.384,158.702 233.248,170.067L233.248,192.975L224.58,192.975L224.58,173.113C224.426,162.783 211.486,164.209 212.013,176.201L212.013,192.975ZM124.171,182.804L120.579,192.785L110.879,192.707L128.088,147.933L138.04,147.933L155.9,192.707L145.971,192.785L142.09,182.804L124.171,182.804ZM94.767,147.933C107.242,148.364 112.585,162.602 100.957,169.094C114.196,172.259 112.281,194.254 94.071,192.707L71.64,192.707L71.64,147.933L94.767,147.933ZM80.817,173.518L80.817,185.44L93.927,185.44C102.514,184.565 102.526,173.353 91.959,173.518L80.817,173.518ZM132.908,158.51L126.867,175.139L139.175,175.139L132.908,158.51ZM248.902,173.847L261.666,173.847C261.666,173.847 261.822,166.337 255.377,166.239C248.792,166.138 248.902,173.847 248.902,173.847ZM92.287,155.434L80.817,155.434L80.817,165.85L93.129,165.85C100.783,164.738 99.97,155.591 92.287,155.434Z" style="fill:rgb(117,117,117);"/>
    </g>
</svg>
