<?xml version="1.0" encoding="UTF-8" standalone="no"?>
<svg
   xmlns:dc="http://purl.org/dc/elements/1.1/"
   xmlns:cc="http://creativecommons.org/ns#"
   xmlns:rdf="http://www.w3.org/1999/02/22-rdf-syntax-ns#"
   xmlns:svg="http://www.w3.org/2000/svg"
   xmlns="http://www.w3.org/2000/svg"
   xmlns:xlink="http://www.w3.org/1999/xlink"
   id="svg8"
   version="1.1"
   viewBox="0 0 52.916665 52.916668"
   height="200"
   width="200">
  <defs
     id="defs2">
    <linearGradient
       id="linearGradient1001">
      <stop
         id="stop997"
         offset="0"
         style="stop-color:#1872b5;stop-opacity:1;" />
      <stop
         id="stop999"
         offset="1"
         style="stop-color:#95bb2d;stop-opacity:1" />
    </linearGradient>
    <linearGradient
       gradientUnits="userSpaceOnUse"
       y2="170.47955"
       x2="292.97299"
       y1="170.47955"
       x1="188.51099"
       id="linearGradient1003"
       xlink:href="#linearGradient1001" />
    <linearGradient
       gradientUnits="userSpaceOnUse"
       y2="167.60201"
       x2="60.181835"
       y1="167.60201"
       x1="45.725658"
       id="linearGradient1011"
       xlink:href="#linearGradient1001" />
  </defs>
  <metadata
     id="metadata5">
    <rdf:RDF>
      <cc:Work
         rdf:about="">
        <dc:format>image/svg+xml</dc:format>
        <dc:type
           rdf:resource="http://purl.org/dc/dcmitype/StillImage" />
        <dc:title></dc:title>
      </cc:Work>
    </rdf:RDF>
  </metadata>
  <g
     transform="translate(0,-244.08332)"
     id="layer1">
    <g
       transform="matrix(0.16696205,0,0,0.16696205,1.4140257,262.09204)"
       id="g952"
       style="clip-rule:evenodd;fill-rule:evenodd;stroke-width:1.58469141;stroke-miterlimit:1.5">
      <g
         style="display:inline;stroke-width:1.58469141"
         transform="translate(3.5135,-125)"
         id="g931">
        <g
   style="fill:none;fill-opacity:1;stroke:#9381a6;stroke-width:1.58469141;stroke-opacity:1"
   id="g923">
            <path
   d="M 254.665,202.979 V 192.707"
   style="fill:none;fill-opacity:1;stroke:#9381a6;stroke-width:3.96172857px;stroke-opacity:1"
   id="path911" />

            <path
   d="M 227.808,202.979 V 192.301"
   style="fill:none;fill-opacity:1;stroke:#9381a6;stroke-width:3.96172857px;stroke-opacity:1"
   id="path913" />

            <path
   d="M 177.025,202.979 V 192.707"
   style="fill:none;fill-opacity:1;stroke:#9381a6;stroke-width:3.96172857px;stroke-opacity:1"
   id="path915" />

            <path
   d="M 131.912,202.979 V 181.138"
   style="fill:none;fill-opacity:1;stroke:#9381a6;stroke-width:3.96172857px;stroke-opacity:1"
   id="path917" />

            <path
   d="M 88.265,202.979 V 192.301"
   style="fill:none;fill-opacity:1;stroke:#9381a6;stroke-width:3.96172857px;stroke-opacity:1"
   id="path919" />

            <path
   d="m 36.089,188.485 v 14.494 h 247.494 v -11.185"
   style="fill:none;fill-opacity:1;stroke:#9381a6;stroke-width:3.96172857px;stroke-opacity:1"
   id="path921" />

        </g>

        <path
   d="m 11.048,169.597 v 2.421 c 0.369,1.002 1.904,0.966 2.283,0 v -2.074 c 0.046,-0.566 -0.798,-1.192 -2.014,-1.843 -1.558,-0.795 -2.502,-1.902 -2.677,-3.399 v -1.816 c 0.008,-3.633 7.174,-3.561 7.262,0 v 1.816 h -2.571 v -1.816 c -0.802,-1.005 -2.261,-0.527 -2.283,0.736 -0.003,0.459 0.079,0.881 0.269,1.257 0.581,0.486 0.481,0.605 1.158,0.969 1.475,0.791 3.276,2.199 3.427,3.407 v 3.019 c -0.205,1.84 -1.685,2.422 -3.623,2.552 -2.593,-0.073 -3.695,-1.126 -3.836,-2.808 v -2.421 z m 31.384,-8.882 h 6.67 v 2.009 h -4.043 v 3.34 h 3.765 v 2.053 h -3.765 v 4.267 h 4.206 v 2.105 h -6.833 z m -22.863,5.345 h 2.244 v -5.345 h 2.623 v 13.774 h -2.623 v -6.358 h -2.244 v 6.358 h -2.611 v -13.774 h 2.611 z m 16.794,8.429 h -5.17 c -0.216,-0.189 -0.299,-0.472 -0.314,-0.802 v -4.185 c -0.108,-0.576 -0.401,-0.925 -0.838,-1.098 h -1.698 v 6.085 h -2.612 v -13.774 h 5.865 c 0.913,0.142 1.588,0.625 1.766,1.823 v 3.317 c -0.2,0.916 -0.761,1.443 -1.616,1.652 0.924,0.235 1.674,0.69 1.758,1.995 v 4.185 c 0.134,0.083 0.196,0.21 0.197,0.374 v 0.382 l 2.662,-13.728 h 2.911 l 2.661,13.774 h -2.661 l -0.347,-2.201 h -2.291 z m -28.12,0 H 5.582 L 5.235,172.288 H 2.944 l -0.273,2.201 H 0 l 2.671,-13.774 h 2.911 z m -4.121,-9.787 -0.847,5.38 h 1.618 z m 33.692,0 -0.847,5.38 h 1.618 z m -7.581,-1.933 h -1.826 v 3.671 h 1.598 c 0.345,-0.036 0.609,-0.195 0.731,-0.574 v -2.608 c -0.079,-0.256 -0.252,-0.414 -0.503,-0.489 z"
   style="fill:#0d4985;fill-opacity:1;stroke-width:1.58469141"
   id="path925" />

        <path
   d="m 18.88,158.692 5.997,-10.455 h 22.216 l 11.108,19.365 -11.108,19.365 H 24.877 l -5.988,-10.439"
   style="fill:none;stroke:url(#linearGradient1011);stroke-width:3.96172857px;stroke-linejoin:round"
   id="path927" />

        <path
   d="m 248.694,179.19 h 21.525 c 0.343,-12.972 -5.243,-18.967 -15.343,-19.651 -19.737,-0.343 -21.324,34.908 0.806,34.394 8.139,-0.903 12.561,-4.298 13.803,-9.827 l -8.237,-1.506 c -1.923,7.559 -12.459,5.627 -12.554,-3.41 z m 37.563,-18.878 h 5.88 v 7.043 h -5.88 v 16.519 c 0.306,3.02 2.266,3.623 5.88,1.807 l 0.836,6.733 c -9.421,2.964 -14.934,1.187 -15.381,-6.733 v -18.326 h -3.974 v -7.043 h 3.974 v -6.479 l 8.665,-5.036 z m -99.292,2.191 8.75,-2.213 c -4.048,-17.483 -30.845,-17.901 -37.4,0 -3.256,11.567 -1.073,20.197 4.052,27.238 10.049,10.576 31.11,7.52 33.348,-8.149 l -8.75,-2.813 c -0.793,10.659 -15.277,13.269 -19.536,2.813 -1.879,-5.866 -1.839,-11.766 0,-17.697 3.779,-9.702 16.889,-8.659 19.536,0.821 z m 25.048,30.472 h -8.492 v -32.394 h 7.805 v 4.396 c 8.035,-9.061 21.058,-6.275 21.922,5.09 v 22.908 h -8.668 v -19.862 c -0.154,-10.33 -13.094,-8.904 -12.567,3.088 z m -87.842,-10.171 -3.592,9.981 -9.7,-0.078 17.209,-44.774 h 9.952 l 17.86,44.774 -9.929,0.078 -3.881,-9.981 z M 94.767,147.933 c 12.475,0.431 17.818,14.669 6.19,21.161 13.239,3.165 11.324,25.16 -6.886,23.613 H 71.64 v -44.774 z m -13.95,25.585 v 11.922 h 13.11 c 8.587,-0.875 8.599,-12.087 -1.968,-11.922 z m 52.091,-15.008 -6.041,16.629 h 12.308 z m 115.994,15.337 h 12.764 c 0,0 0.156,-7.51 -6.289,-7.608 -6.585,-0.101 -6.475,7.608 -6.475,7.608 z M 92.287,155.434 h -11.47 v 10.416 h 12.312 c 7.654,-1.112 6.841,-10.259 -0.842,-10.416 z"
   style="fill:url(#linearGradient1003);fill-opacity:1;stroke-width:1.58469141"
   id="path929" />

    </g>
    </g>
  </g>
  <style
     type="text/css"
     id="style823">
	.st0{fill:#F49500;}
	.st1{fill:#FCC000;}
	.st2{fill:#03A239;}
	.st3{fill:#1192CF;}
</style>
</svg>
