<?xml version="1.0" encoding="UTF-8" standalone="no"?>
<!DOCTYPE svg PUBLIC "-//W3C//DTD SVG 1.1//EN" "http://www.w3.org/Graphics/SVG/1.1/DTD/svg11.dtd">
<svg width="100%" height="100%" viewBox="0 0 300 100" version="1.1" xmlns="http://www.w3.org/2000/svg" xmlns:xlink="http://www.w3.org/1999/xlink" xml:space="preserve" xmlns:serif="http://www.serif.com/" style="fill-rule:evenodd;clip-rule:evenodd;stroke-linejoin:round;stroke-miterlimit:1.41421;">
    <path d="M182.467,0.851L194.804,0.851L194.804,36.551L151.567,36.551C148.069,36.551 144.715,37.94 142.242,40.414C139.768,42.887 138.379,46.241 138.379,49.739C138.379,49.739 138.379,49.739 138.379,49.74C138.379,53.116 139.72,56.355 142.108,58.743C144.496,61.13 147.734,62.472 151.111,62.472L194.804,62.472L194.804,98.243C194.804,98.243 170.82,98.243 146.693,98.243C133.705,98.243 121.249,93.083 112.065,83.899C102.881,74.715 97.721,62.259 97.721,49.271C97.721,49.27 97.721,49.269 97.721,49.269C97.721,22.528 119.398,0.851 146.139,0.851L175.669,0.851C175.209,1.328 174.311,2.32 174.017,3.071C173.707,3.867 173.265,6.446 175.648,7.404C177.6,8.189 180.752,6.237 181.739,6.264C182.726,6.292 183.238,7.342 182.8,7.795C181.246,9.405 180.092,7.819 180.092,7.819L176.867,10.054C176.867,10.054 178.307,12.408 180.6,11.913C182.116,11.585 185.5,9.528 186.093,8.105C186.711,6.626 186.72,3.968 184.384,2.797C182.688,1.946 179.132,4.187 178.223,4.157C177.663,4.139 177.16,3.088 177.889,2.474C178.973,1.561 179.82,2.686 179.82,2.686L182.467,0.851ZM102.992,45.583L107.806,42.247L110.497,46.13L106.19,49.115C105.451,49.628 104.954,50.427 104.81,51.336C104.666,52.245 104.886,53.191 105.422,53.964C105.429,53.974 105.436,53.985 105.444,53.996C106.572,55.623 108.748,56.068 110.305,54.988L114.582,52.024L117.308,55.958C117.308,55.958 115.008,57.552 112.477,59.306C110.742,60.508 108.58,60.941 106.465,60.509C104.35,60.077 102.455,58.816 101.199,57.003C101.194,56.996 101.189,56.99 101.185,56.983C99.925,55.165 99.407,52.943 99.746,50.805C100.085,48.667 101.253,46.789 102.992,45.583ZM114.963,43.312L119.157,49.364C121.095,51.635 123.2,49.267 121.793,47.238L117.73,41.376L121.295,38.923C123.499,42.153 125.594,45.458 128.124,48.461L124.554,50.936C124.388,50.784 124.233,50.622 124.091,50.449C123.955,50.284 123.831,50.108 123.718,49.922C123.376,53.806 118.93,55.332 116.274,52.607L111.496,45.714L114.963,43.312ZM138.849,41.01L135.382,43.413L131.188,37.361C129.25,35.09 127.146,37.458 128.552,39.487L132.615,45.349L129.05,47.802C126.846,44.572 124.751,41.267 122.221,38.263L125.603,35.919C125.77,36.071 126.01,36.292 126.152,36.465C126.288,36.631 126.75,37.149 126.863,37.336C126.565,33.659 130.463,31.593 132.83,33.199C132.679,28.956 137.512,26.588 140.383,29.743L145.16,36.636L141.694,39.038L137.5,32.986C134.994,30.248 133.851,34.268 134.579,34.85L138.849,41.01ZM156.283,28.927L152.817,31.329L148.622,25.277C146.685,23.007 144.58,25.375 145.987,27.403L150.05,33.265L146.484,35.718C144.281,32.488 142.186,29.183 139.655,26.18L143.038,23.835C143.204,23.987 143.445,24.209 143.587,24.381C143.723,24.547 144.185,25.066 144.297,25.252C143.999,21.575 147.898,19.509 150.265,21.116C150.113,16.872 154.946,14.504 157.818,17.659L162.595,24.552L159.129,26.955L154.934,20.903C152.429,18.165 151.285,22.184 152.014,22.767L156.283,28.927ZM160.553,11.696L167.243,21.349L163.81,23.728L157.12,14.075L160.553,11.696ZM165.056,8.549C165.222,8.701 165.377,8.863 165.519,9.036C165.655,9.201 165.779,9.377 165.892,9.563C166.234,5.679 170.68,4.153 173.336,6.878L178.114,13.771L174.647,16.173L170.453,10.121C168.515,7.85 166.41,10.218 167.817,12.247L171.88,18.109L168.315,20.562C166.111,17.332 164.016,14.027 161.486,11.024L165.056,8.549ZM157.652,7.509L159.421,10.062L155.988,12.441L154.219,9.889L157.652,7.509Z" style="fill:rgb(112,112,112);"/>
</svg>
