<?xml version="1.0" encoding="UTF-8" standalone="no"?>
<!DOCTYPE svg PUBLIC "-//W3C//DTD SVG 1.1//EN" "http://www.w3.org/Graphics/SVG/1.1/DTD/svg11.dtd">
<svg width="100%" height="100%" viewBox="0 0 221 344" version="1.1" xmlns="http://www.w3.org/2000/svg" xmlns:xlink="http://www.w3.org/1999/xlink" xml:space="preserve" xmlns:serif="http://www.serif.com/" style="fill-rule:evenodd;clip-rule:evenodd;stroke-linecap:round;stroke-linejoin:round;stroke-miterlimit:1.5;">
    <g transform="matrix(1,0,0,1,-166.489,-122.353)">
        <g transform="matrix(-1,0,0,1,604.989,88.4707)">
            <path d="M394,153.032L394,353.758" style="fill:none;stroke:black;stroke-width:1px;"/>
            <path d="M342,133L340,133.5L340,374.518L342,377L342,133Z" style="fill:none;stroke:black;stroke-width:1px;"/>
            <g transform="matrix(2,0,0,1,-342,0)">
                <path d="M390,146L342,133L342,377L390,359L390,146Z" style="fill:none;stroke:black;stroke-width:0.63px;"/>
            </g>
            <path d="M385.233,197.582L385.17,200.81L390.975,200.761L390.934,197.428L385.233,197.582Z" style="fill:none;stroke:black;stroke-width:1px;"/>
            <g transform="matrix(1,0,0,1,0,109.014)">
                <path d="M385.233,197.582L385.17,200.81L390.975,200.645L390.934,197.428L385.233,197.582Z" style="fill:none;stroke:black;stroke-width:1px;"/>
            </g>
            <g transform="matrix(1,0,0,3.37611,0,-348.698)">
                <path d="M435.217,150.169L347.93,146.752L347.93,210.438L435.217,206.028L435.217,150.169Z" style="fill:none;stroke:black;stroke-width:0.4px;"/>
            </g>
            <g>
                <g transform="matrix(1,0,0,25.7059,0,-3841.76)">
                    <path d="M337,154.625L301,155.13L301,163.416L337,164L337,154.625Z" style="fill:none;stroke:black;stroke-width:0.05px;"/>
                </g>
                <g transform="matrix(1,0,0,26.7778,0,-3455.22)">
                    <path d="M340,134L337,134L337,143L340,143.019L340,134Z" style="fill:none;stroke:black;stroke-width:0.05px;"/>
                </g>
            </g>
            <g transform="matrix(1,0,0,0.876735,-39,30.1459)">
                <g transform="matrix(1,0,0,25.7059,0,-3841.76)">
                    <path d="M337,154.625L301,155.13L301,163.416L337,164L337,154.625Z" style="fill:none;stroke:black;stroke-width:0.06px;"/>
                </g>
                <g transform="matrix(1,0,0,26.7778,0,-3455.22)">
                    <path d="M340,134L337,134L337,143L340,143.019L340,134Z" style="fill:none;stroke:black;stroke-width:0.06px;"/>
                </g>
            </g>
            <g transform="matrix(1,0,0,0.76807,-78,56.3239)">
                <g transform="matrix(1,0,0,25.7059,0,-3841.76)">
                    <path d="M337,154.625L301,155.13L301,163.416L337,164L337,154.625Z" style="fill:none;stroke:black;stroke-width:0.07px;"/>
                </g>
                <g transform="matrix(1,0,0,26.7778,0,-3455.22)">
                    <path d="M340,134L337,134L337,143L340,143.019L340,134Z" style="fill:none;stroke:black;stroke-width:0.07px;"/>
                </g>
            </g>
        </g>
        <path d="M167.28,165.327L263.985,148.425L386.17,195.341L303.879,209.793L167.28,165.327Z" style="fill:none;stroke:black;stroke-width:1px;"/>
        <g>
            <g transform="matrix(1,0,0,1,-17.0428,3.01843)">
                <path d="M208.018,162.95L205.853,162.95L205.853,228.377L208.018,228.119L208.018,162.95Z" style="fill:white;stroke:black;stroke-width:1px;"/>
                <g transform="matrix(1,0,0,1,2.28336,0)">
                    <path d="M208.018,162.95L205.853,162.95L205.853,228.095L208.018,227.79L208.018,162.95Z" style="fill:white;stroke:black;stroke-width:1px;"/>
                </g>
                <g transform="matrix(1,0,0,1,4.69003,0)">
                    <path d="M208.018,162.95L205.853,162.95L205.853,227.864L208.018,227.586L208.018,162.95Z" style="fill:white;stroke:black;stroke-width:1px;"/>
                </g>
            </g>
            <g transform="matrix(1,0,0,1,47.0422,25.1425)">
                <path d="M208.018,162.95L205.853,162.95L205.853,197.647L208.018,197.379L208.018,162.95Z" style="fill:white;stroke:black;stroke-width:1px;"/>
            </g>
            <g transform="matrix(1,0,0,1,100.398,40.3095)">
                <g transform="matrix(1,0,0,0.488342,0,83.3745)">
                    <path d="M208.018,162.95L205.853,162.95L205.853,228.377L208.018,229.14L208.018,162.95Z" style="fill:white;stroke:black;stroke-width:1.27px;"/>
                </g>
                <g transform="matrix(1,0,0,0.488342,2.28336,83.3745)">
                    <path d="M208.018,162.95L205.853,162.95L205.853,229.018L208.018,230.443L208.018,162.95Z" style="fill:white;stroke:black;stroke-width:1.27px;"/>
                </g>
                <g transform="matrix(1,0,0,0.488342,4.69003,83.3745)">
                    <path d="M208.018,162.95L205.853,162.95L205.853,230.856L208.018,232.214L208.018,162.95Z" style="fill:white;stroke:black;stroke-width:1.27px;"/>
                </g>
            </g>
            <g transform="matrix(1,0,0,1,49.4603,-5.76888)">
                <path d="M208.018,162.95L205.853,162.95L205.853,228.221L208.018,227.953L208.018,162.95Z" style="fill:white;stroke:black;stroke-width:1px;"/>
                <g transform="matrix(1,0,0,1,2.28336,0)">
                    <path d="M208.018,162.95L205.853,162.95L205.853,227.973L208.018,227.744L208.018,162.95Z" style="fill:white;stroke:black;stroke-width:1px;"/>
                </g>
                <g transform="matrix(1,0,0,1,4.69003,0)">
                    <path d="M208.018,162.95L205.853,162.95L205.853,227.703L208.018,227.283L208.018,162.95Z" style="fill:white;stroke:black;stroke-width:1px;"/>
                </g>
            </g>
            <g transform="matrix(1,0,0,1,113.545,16.3552)">
                <path d="M208.018,162.95L205.853,162.95L205.853,222.788L208.018,223.316L208.018,162.95Z" style="fill:white;stroke:black;stroke-width:1px;"/>
                <g transform="matrix(1,0,0,1,2.28336,0)">
                    <path d="M208.018,162.95L205.853,162.95L205.853,223.309L208.018,224.042L208.018,162.95Z" style="fill:white;stroke:black;stroke-width:1px;"/>
                </g>
                <g transform="matrix(1,0,0,1,4.69003,0)">
                    <path d="M208.018,162.95L205.853,162.95L205.853,224.247L208.018,224.944L208.018,162.95Z" style="fill:white;stroke:black;stroke-width:1px;"/>
                </g>
            </g>
            <g transform="matrix(1,0,0,1,156.493,28.7578)">
                <path d="M208.018,162.95L205.853,162.95L205.853,222.823L208.018,223.367L208.018,162.95Z" style="fill:white;stroke:black;stroke-width:1px;"/>
                <g transform="matrix(1,0,0,1,2.28336,0)">
                    <path d="M208.018,162.95L205.853,162.95L205.853,223.348L208.018,224.103L208.018,162.95Z" style="fill:white;stroke:black;stroke-width:1px;"/>
                </g>
                <g transform="matrix(1,0,0,1,4.69003,0)">
                    <path d="M208.018,162.95L205.853,162.95L205.853,224.089L208.018,224.681L208.018,162.95Z" style="fill:white;stroke:black;stroke-width:1px;"/>
                </g>
            </g>
        </g>
        <path d="M167.414,165.307L167.414,141.78L264.15,122.853L264.301,148.416L264.15,122.853L385.938,173.921L386.116,195.168" style="fill:none;stroke:black;stroke-width:1px;"/>
    </g>
</svg>
