<?xml version="1.0" encoding="UTF-8" standalone="no"?>
<!DOCTYPE svg PUBLIC "-//W3C//DTD SVG 1.1//EN" "http://www.w3.org/Graphics/SVG/1.1/DTD/svg11.dtd">
<svg width="100%" height="100%" viewBox="0 0 300 100" version="1.1" xmlns="http://www.w3.org/2000/svg" xmlns:xlink="http://www.w3.org/1999/xlink" xml:space="preserve" xmlns:serif="http://www.serif.com/" style="fill-rule:evenodd;clip-rule:evenodd;stroke-linejoin:round;stroke-miterlimit:1.41421;">
    <path d="M117.25,89.899L79.641,89.899L85.819,68.836L111.073,68.836L117.25,89.899ZM49.727,89.899L4.082,89.899L4.082,10.101L73.94,10.101L66.984,33.026L31.574,33.026L31.574,39.497L65.02,39.497L58.488,61.026L31.574,61.026L31.574,67.497L56.524,67.497L49.727,89.899ZM272.549,10.101L295.918,10.101L295.918,89.899L258.144,89.899L243.256,40.476L243.256,89.899L219.942,89.899L219.942,10.101L257.37,10.549L272.549,60.715L272.549,10.101ZM171.077,89.899L134.557,89.899L134.557,33.211L111.779,33.211L111.779,10.101L183.757,10.101L183.667,10.669C166.6,13.991 153.567,31.469 153.567,52.502C153.567,68.014 160.655,81.592 171.222,88.984L171.077,89.899ZM196.655,36.785C205.122,36.785 211.996,44.129 211.996,53.175C211.996,62.222 205.122,69.566 196.655,69.566C188.188,69.566 181.314,62.222 181.314,53.175C181.314,44.129 188.188,36.785 196.655,36.785ZM105.861,51.065L91.031,51.065L98.446,25.782L105.861,51.065Z" style="fill:rgb(112,112,112);"/>
</svg>
