<?xml version="1.0" encoding="UTF-8" standalone="no"?>
<!DOCTYPE svg PUBLIC "-//W3C//DTD SVG 1.1//EN" "http://www.w3.org/Graphics/SVG/1.1/DTD/svg11.dtd">
<svg width="100%" height="100%" viewBox="0 0 300 100" version="1.1" xmlns="http://www.w3.org/2000/svg" xmlns:xlink="http://www.w3.org/1999/xlink" xml:space="preserve" xmlns:serif="http://www.serif.com/" style="fill-rule:evenodd;clip-rule:evenodd;stroke-linejoin:round;stroke-miterlimit:1.41421;">
    <path d="M202.923,70.053C215.652,70.053 217.87,78.967 217.87,83.359C217.87,87.75 216.166,96.403 202.923,96.403C189.68,96.403 188.02,87.75 188.02,83.359C188.02,78.967 189.555,70.053 202.923,70.053ZM182.431,75.728L185.385,72.275C185.385,72.275 176.255,68.494 168.27,70.796C158.453,73.627 161.956,81.636 165.166,83.358C167.659,84.695 172.886,85.702 175.021,86.372C178.651,87.51 178.588,91.253 175.021,92.473C172.949,93.182 163.604,90.994 163.716,90.79L161.148,94.388C163.178,95.508 177.289,98.3 182.431,94.388C186.91,90.981 186.207,85.578 182.431,82.82C179.897,80.969 173.396,79.912 171.593,78.989C168.035,77.167 170.04,74.068 174.062,74.005C175.948,73.975 182.431,75.728 182.431,75.728ZM128.412,70.796L127.054,74.778L114.376,74.778L114.376,80.783L125.598,80.783L125.598,84.617L114.376,84.617L114.376,91.941L128.412,91.941L128.412,95.921L106.412,95.921L106.412,70.796L128.412,70.796ZM63.004,70.796L61.646,74.778L48.968,74.778L48.968,80.783L60.19,80.783L60.19,84.617L48.968,84.617L48.968,91.941L63.004,91.941L63.004,95.921L41.004,95.921L41.004,70.796L63.004,70.796ZM228.413,95.921L221.671,95.921L221.671,70.796L228.965,70.796L242.669,86.941L242.669,70.796L249.471,70.796L249.471,95.921L243.362,95.921L228.413,78.81L228.413,95.921ZM140.815,95.921L132.633,95.921L132.633,70.796L146.041,70.796C159.695,70.647 160.851,81.781 150.719,84.48L161.148,95.921L152.199,95.921L143.615,85.435L140.815,85.435L140.815,95.921ZM74.321,95.921L67.272,95.921L67.272,70.796L74.321,70.796L84.548,86.383L94.192,70.796L101.213,70.796L101.213,95.921L94.192,95.921L94.192,79.45L84.548,95.279L74.321,79.45L74.321,95.921ZM202.923,74.009C208.46,74.009 209.391,80.248 209.391,83.359C209.391,86.469 208.529,92.673 202.923,92.673C197.318,92.673 196.525,86.469 196.525,83.359C196.525,80.248 197.386,74.009 202.923,74.009ZM143.59,74.653L140.815,74.653L140.815,81.504L144.656,81.504C151.607,81.207 151.035,74.624 143.59,74.653ZM145.663,5.108L142.321,10.545C146.598,16.538 151.265,22.096 155.981,27.601L151.148,25.516C147.57,21.427 144.217,17.174 141.044,12.788L137.917,18.092C138.37,19.203 139.061,20.107 139.866,20.912C138.84,20.454 137.806,20.128 136.756,20.062L133.338,25.516C133.831,26.71 134.5,27.693 135.383,28.42C134.365,27.95 133.35,27.636 132.341,27.601L128.867,33.182C129.325,34.192 129.944,35.12 130.786,35.932C129.858,35.521 128.91,35.228 127.931,35.104L124.402,40.709C130.531,49.479 138.128,57.495 144.788,66.381L147.953,61.043C143.521,55.264 138.993,49.608 134.353,44.096L139.09,45.999C142.66,50.145 145.965,54.49 149.146,58.927L152.483,53.576C151.896,52.488 151.185,51.524 150.308,50.726C151.339,51.344 152.415,51.629 153.549,51.481L156.882,45.999C156.416,44.928 155.709,44.003 154.867,43.159C155.823,43.739 156.793,44.169 157.81,44.096L161.361,38.437C160.799,37.316 160.092,36.37 159.213,35.629C160.343,36.292 161.484,36.554 162.638,36.314L165.848,30.754C158.993,22.237 147.009,8.058 145.663,5.108ZM138.666,36.468C139.761,37.955 140.927,39.377 142.189,40.709C143.733,41.629 145.295,42.128 146.858,42.594C145.774,41.168 144.633,39.763 143.418,38.385C141.78,37.834 140.2,37.189 138.666,36.468ZM143.374,29.045C144.469,30.533 145.635,31.954 146.897,33.286C148.441,34.206 150.002,34.706 151.565,35.172C150.481,33.745 149.341,32.34 148.125,30.963C146.488,30.411 144.908,29.766 143.374,29.045Z" style="fill:rgb(112,112,112);"/>
</svg>
