<?xml version="1.0" encoding="UTF-8" standalone="no"?><!DOCTYPE svg PUBLIC "-//W3C//DTD SVG 1.1//EN" "http://www.w3.org/Graphics/SVG/1.1/DTD/svg11.dtd"><svg width="100%" height="100%" viewBox="0 0 300 100" version="1.1" xmlns="http://www.w3.org/2000/svg" xmlns:xlink="http://www.w3.org/1999/xlink" xml:space="preserve" xmlns:serif="http://www.serif.com/" style="fill-rule:evenodd;clip-rule:evenodd;stroke-linejoin:round;stroke-miterlimit:1.41421;"><path d="M37.79,9l-35.79,10.049l0,47.804l41.335,24.959l41.604,-24.959l0,-53.119l-44.182,19.683l1.476,35.671l2.359,-30.745l34.693,-16.082l0,41.427l-35.95,18.948l-35.469,-18.948l0,-43.394l29.924,-11.294Zm94.95,19.367l0,6.881l-34.442,0c-2.427,0.167 -3.706,1.51 -4.147,3.713l0,21.474c0.401,1.987 1.757,3.086 4.147,3.222l25.189,0c2.221,-0.113 3.272,-1.156 3.039,-3.222l0,-4.925c0.007,-2.107 -1.09,-3.022 -3.039,-3.018l-16.962,0l0,-7.043l20.001,0c3.736,0.738 5.807,3.086 6.214,7.043l0,11.165c-0.472,3.621 -2.577,5.729 -6.214,6.42l-32.375,0c-2.919,-0.892 -4.785,-2.998 -5.509,-6.42l0,-27.095c0.044,-3.584 1.742,-6.381 5.509,-8.195l38.589,0Zm50.219,0.666l0,6.023l-35.251,0c-1.411,0.365 -2.265,1.454 -2.561,3.269l0,7.731l36.85,0l0,7.054l-36.85,0l0,8.527c0.212,1.366 1.045,2.157 2.561,2.317l35.251,0l0,6.101l-37.812,0c-3.754,-1.019 -5.816,-3.467 -6.147,-7.381l0,-25.593c0.277,-4.039 2.248,-6.781 6.147,-8.048l37.812,0Zm64.017,-0.182l0,6.464l-34.213,0c-1.655,0.262 -2.28,1.253 -2.756,2.864l0,4.853c0.132,1.432 1.508,2.342 2.756,2.755l26.503,0c3.816,0.431 6.611,2.093 7.71,5.801l0,12.385c-0.305,3.145 -1.982,5.159 -4.997,6.068l-38.051,0l0,-6.068l35.338,0c1.523,-0.427 2.526,-1.378 2.713,-3.152l0,-5.632c-0.423,-1.561 -1.464,-2.053 -2.713,-2.185l-28.032,0c-3.865,-0.655 -6.456,-2.459 -7.306,-5.836l0,-11.853c0.516,-3.213 2.331,-5.516 6.079,-6.464l36.969,0Zm48.956,0.081l0,6.202l-15.072,0c-1.264,-0.064 -1.793,0.674 -1.793,1.988l0,32.821l-6.266,0l0,-32.821c-0.142,-1.402 -0.696,-2.043 -1.623,-1.988l-18.123,0l0,-6.202l42.877,0Zm-100.066,40.969l-4.823,0l0,-41.05l4.823,0l0,41.05Z" style="fill:#757575;"/></svg>