<?xml version="1.0" encoding="UTF-8" standalone="no"?>
<!-- Created with Inkscape (http://www.inkscape.org/) -->

<svg
   xmlns:dc="http://purl.org/dc/elements/1.1/"
   xmlns:cc="http://creativecommons.org/ns#"
   xmlns:rdf="http://www.w3.org/1999/02/22-rdf-syntax-ns#"
   xmlns:svg="http://www.w3.org/2000/svg"
   xmlns="http://www.w3.org/2000/svg"
   xmlns:sodipodi="http://sodipodi.sourceforge.net/DTD/sodipodi-0.dtd"
   xmlns:inkscape="http://www.inkscape.org/namespaces/inkscape"
   width="293.29236mm"
   height="67.496513mm"
   viewBox="0 0 293.29236 67.496513"
   version="1.1"
   id="svg2094"
   sodipodi:docname="generator-manufacturers.svg"
   inkscape:version="0.92.5 (0.92.5+69)">
  <defs
     id="defs2088" />
  <sodipodi:namedview
     id="base"
     pagecolor="#ffffff"
     bordercolor="#666666"
     borderopacity="1.0"
     inkscape:pageopacity="0.0"
     inkscape:pageshadow="2"
     inkscape:zoom="0.47750611"
     inkscape:cx="280.20928"
     inkscape:cy="129.19702"
     inkscape:document-units="mm"
     inkscape:current-layer="layer1"
     showgrid="false"
     showguides="true"
     inkscape:guide-bbox="true"
     inkscape:window-width="1328"
     inkscape:window-height="704"
     inkscape:window-x="38"
     inkscape:window-y="27"
     inkscape:window-maximized="1">
    <sodipodi:guide
       position="38.28177,29.024681"
       orientation="1,0"
       id="guide12944"
       inkscape:locked="false" />
    <sodipodi:guide
       position="152.68846,15.311551"
       orientation="1,0"
       id="guide12946"
       inkscape:locked="false" />
  </sodipodi:namedview>
  <metadata
     id="metadata2091">
    <rdf:RDF>
      <cc:Work
         rdf:about="">
        <dc:format>image/svg+xml</dc:format>
        <dc:type
           rdf:resource="http://purl.org/dc/dcmitype/StillImage" />
        <dc:title />
      </cc:Work>
    </rdf:RDF>
  </metadata>
  <g
     inkscape:label="Layer 1"
     inkscape:groupmode="layer"
     id="layer1"
     transform="translate(-11.869106,-8.165573)">
    <path
       inkscape:connector-curvature="0"
       d="m 134.02411,58.195135 c 4.55481,0 8.25289,3.698083 8.25289,8.252883 0,4.55507 -3.69808,8.25289 -8.25289,8.25289 -4.5548,0 -8.25288,-3.69782 -8.25288,-8.25289 0,-4.5548 3.69808,-8.252883 8.25288,-8.252883 z m 0,0.22701 c 4.42966,0 8.02588,3.596223 8.02588,8.025873 0,4.42966 -3.59622,8.02587 -8.02588,8.02587 -4.42965,0 -8.02587,-3.59621 -8.02587,-8.02587 0,-4.42965 3.59622,-8.025873 8.02587,-8.025873 z m 0,0.70035 c 4.0431,0 7.32552,3.282433 7.32552,7.325523 0,4.0431 -3.28242,7.32552 -7.32552,7.32552 -4.04309,0 -7.32551,-3.28242 -7.32551,-7.32552 0,-4.04309 3.28242,-7.325523 7.32551,-7.325523 z m 0,0.61675 c 3.70258,0 6.70878,3.006193 6.70878,6.708773 0,3.70285 -3.0062,6.70878 -6.70878,6.70878 -3.70257,0 -6.70877,-3.00593 -6.70877,-6.70878 0,-3.70258 3.0062,-6.708773 6.70877,-6.708773 z m 3.76212,5.206473 v 4.91516 l -1.4314,-1.41446 v -1.65814 l -0.85461,-0.80857 v 1.63486 l -1.21999,-1.16655 v -4.99612 l 1.21999,1.24565 v 1.43828 l 0.85461,0.80989 v -1.39806 z m -1.6809,2.49317 v 1.04325 l -1.42637,1.37874 v -0.95832 z m -5.79385,-2.49317 v 4.91516 l 1.4314,-1.41446 v -1.65814 l 0.8546,-0.80857 v 1.63486 l 1.21999,-1.16655 v -4.99612 l -1.21999,1.24565 v 1.43828 l -0.8546,0.80989 v -1.39806 z m 1.6809,2.49317 v 1.04325 l 1.42637,1.37874 v -0.95832 z m 55.57467,-1.73488 2.6e-4,-0.29157 c -0.001,-0.0238 -0.002,-0.0476 -0.002,-0.0714 0,-0.23284 0,-0.4752 0,-0.712 0,-0.4236 0.16854,-0.83 0.46805,-1.12977 0.29978,-0.29977 0.70618,-0.46805 1.12977,-0.46805 1.13798,0 2.66833,0 3.84678,0 0.47387,0 0.92842,0.18839 1.26339,0.52335 0.33496,0.33523 0.52334,0.78952 0.52334,1.26338 v 1.94575 h -0.002 c 0.001,0.0238 0.002,0.0476 0.002,0.0717 0,0.23257 0,0.47519 0,0.71173 0,0.42386 -0.16827,0.83026 -0.46805,1.13004 -0.2995,0.2995 -0.70617,0.46778 -1.12977,0.46778 -1.13797,0 -2.66832,0 -3.84677,0 -0.47387,0 -0.92816,-0.18812 -1.26339,-0.52308 -0.33496,-0.33523 -0.52335,-0.78978 -0.52335,-1.26365 l 2.7e-4,-0.21273 h -2.7e-4 v -1.45547 c 5.3e-4,0.005 10e-4,0.01 0.002,0.014 l -0.001,1.44145 h 1.90395 c 0.0249,0.4199 0.16801,0.62178 0.6477,0.62786 h 2.23334 c 0.78926,-0.006 0.92419,-0.93742 0,-0.93451 h -2.88103 c -1.21073,-0.0638 -1.8243,-0.45349 -1.90262,-1.1348 z m -6.10447,-2.67282 3.3835,4.26615 v -4.26615 h 1.76344 v 5.92376 h -2.71118 l -3.32502,-4.2164 v 4.2164 h -1.79573 v -5.92376 z m -6.40635,1.89416 c 0,-0.50218 -0.1995,-0.98399 -0.55457,-1.33932 -0.35533,-0.35534 -0.83714,-0.55484 -1.33958,-0.55484 -1.25916,0 -2.90698,0 -4.17037,0 -0.50773,0 -0.99483,0.20188 -1.35387,0.56092 -0.3593,0.35904 -0.56092,0.84614 -0.56092,1.35387 0,0.74825 0,1.59862 0,2.32305 0,0.93106 0.75486,1.68592 1.68593,1.68592 1.36101,0 3.26601,0 4.6228,0 0.44318,0 0.8681,-0.17595 1.18136,-0.48921 0.31327,-0.31327 0.48922,-0.73819 0.48922,-1.18137 0,-0.73448 0,-1.60073 0,-2.35902 z m -13.61467,1.87669 2.05767,-3.77085 h 2.67176 v 5.92376 h -1.69175 v -4.14549 l -2.38601,4.14549 h -1.33482 l -2.37173,-4.14549 v 4.14549 h -1.70153 v -5.92376 h 2.67732 z m -5.76686,-3.77085 v 5.92376 h -1.74598 v -5.92376 z m 22.06573,0 v 5.92376 h -1.74599 v -5.92376 z m -30.38237,2.07804 h 3.73777 v -2.07804 h 1.77641 v 5.92376 h -1.77641 v -2.21615 h -3.73777 v 2.16376 h -1.79176 v -5.87137 h 1.79176 z m 56.35889,3.84572 h -1.92458 l -0.57864,-1.06442 h -3.57928 l -0.57865,1.06442 h -1.92458 l 2.86094,-5.92508 h 2.86385 z m -30.48159,-3.69332 c 0,-0.40243 -0.32623,-0.72866 -0.72839,-0.72866 -0.79031,0 -2.04312,0 -2.82311,0 -0.38814,0 -0.70273,0.31459 -0.70273,0.70273 0,0.51409 0,1.20386 0,1.69228 0,0.33126 0.26855,0.59981 0.59981,0.59981 0.76121,0 2.07407,0 2.90169,0 0.41592,0 0.75273,-0.33708 0.75273,-0.75274 0,-0.46355 0,-1.05463 0,-1.51342 z m 25.05525,1.42187 h 2.26669 l -1.13321,-2.08439 z m -6.04573,-2.28044 h -2.23334 c -0.78926,0.006 -0.92393,0.93715 0,0.93424 h 2.88104 c 1.2192,0.0643 1.83251,0.45879 1.90421,1.14882 v -1.45521 h -1.90421 c -0.0249,-0.42015 -0.16801,-0.62177 -0.6477,-0.62785 z"
       style="clip-rule:evenodd;fill:#ffffff;fill-rule:evenodd;stroke-width:0.26458332;stroke-linejoin:round;stroke-miterlimit:1.41420996;fill-opacity:1"
       id="path983" />
    <path
       inkscape:connector-curvature="0"
       d="m 275.94431,8.165573 h 3.26416 v 9.44563 h -11.43979 c -0.92551,0 -1.81292,0.3675 -2.46724,1.02208 -0.65458,0.65432 -1.02208,1.54173 -1.02208,2.46724 0,0 0,0 0,2.7e-4 0,0.89323 0.3548,1.75021 0.98663,2.38204 0.63182,0.63156 1.48854,0.98663 2.38204,0.98663 h 11.56044 v 9.46441 c 0,0 -6.34576,0 -12.72937,0 -3.4364,0 -6.73205,-1.36525 -9.16199,-3.79518 -2.42993,-2.42994 -3.79518,-5.72559 -3.79518,-9.16199 0,-2.7e-4 0,-5.3e-4 0,-5.3e-4 0,-7.07523 5.73537,-12.8106 12.81059,-12.8106 h 7.81315 c -0.12171,0.12621 -0.3593,0.38867 -0.43709,0.58738 -0.082,0.2106 -0.19897,0.89296 0.43153,1.14644 0.51647,0.20769 1.35044,-0.30877 1.61158,-0.30163 0.26114,0.007 0.39661,0.28522 0.28072,0.40508 -0.41116,0.42598 -0.71649,0.006 -0.71649,0.006 l -0.85328,0.59134 c 0,0 0.381,0.62283 0.98769,0.49186 0.40111,-0.0868 1.29646,-0.63103 1.45336,-1.00753 0.16351,-0.39132 0.16589,-1.09458 -0.45218,-1.40441 -0.44873,-0.22516 -1.38959,0.36777 -1.63009,0.35983 -0.14817,-0.005 -0.28126,-0.28284 -0.0884,-0.44529 0.2868,-0.24157 0.51091,0.0561 0.51091,0.0561 z m -21.02776,11.83534 1.2737,-0.88265 0.712,1.02738 -1.13957,0.78978 c -0.19552,0.13573 -0.32702,0.34713 -0.36512,0.58764 -0.0381,0.24051 0.0201,0.4908 0.16192,0.69533 0.002,0.003 0.004,0.006 0.006,0.008 0.29845,0.43047 0.87419,0.54821 1.28614,0.26246 l 1.13163,-0.78422 0.72125,1.04087 c 0,0 -0.60854,0.42174 -1.2782,0.88582 -0.45905,0.31803 -1.03108,0.4326 -1.59068,0.3183 -0.55959,-0.1143 -1.06097,-0.44794 -1.39329,-0.92763 -0.001,-0.002 -0.003,-0.003 -0.004,-0.005 -0.33338,-0.48104 -0.47043,-1.06894 -0.38074,-1.63462 0.0897,-0.56568 0.39873,-1.06257 0.85884,-1.38166 z m 3.16732,-0.60087 1.10967,1.60126 c 0.51276,0.60087 1.06971,-0.0257 0.69744,-0.5625 l -1.075,-1.55099 0.94324,-0.64902 c 0.58314,0.8546 1.13744,1.72905 1.80684,2.52359 l -0.94457,0.65485 c -0.0439,-0.0402 -0.0849,-0.0831 -0.1225,-0.12886 -0.036,-0.0437 -0.0688,-0.0902 -0.0987,-0.13943 -0.0905,1.02764 -1.26682,1.4314 -1.96956,0.71041 l -1.26418,-1.82378 z m 6.31984,-0.60907 -0.91731,0.6358 -1.10966,-1.60126 c -0.51276,-0.60087 -1.06945,0.0257 -0.69744,0.5625 l 1.075,1.55099 -0.94324,0.64902 c -0.58314,-0.8546 -1.13744,-1.72905 -1.80684,-2.52386 l 0.89482,-0.62018 c 0.0442,0.0402 0.10769,0.0987 0.14526,0.14446 0.036,0.0439 0.15822,0.18098 0.18812,0.23045 -0.0789,-0.97287 0.9525,-1.5195 1.57876,-1.09458 -0.04,-1.12262 1.23878,-1.74916 1.9984,-0.9144 l 1.26392,1.82378 -0.91705,0.63552 -1.10966,-1.60125 c -0.66305,-0.72443 -0.96547,0.33919 -0.77285,0.49318 z m 4.61275,-3.19696 -0.91705,0.63553 -1.10993,-1.60126 c -0.51249,-0.6006 -1.06944,0.0259 -0.69717,0.56251 l 1.075,1.55098 -0.9435,0.64903 c -0.58288,-0.85461 -1.13718,-1.72905 -1.80684,-2.5236 l 0.89508,-0.62045 c 0.0439,0.0402 0.10769,0.099 0.14526,0.14447 0.036,0.0439 0.15822,0.18124 0.18785,0.23045 -0.0789,-0.97287 0.95277,-1.5195 1.57904,-1.09432 -0.0402,-1.12289 1.23851,-1.74942 1.99839,-0.91466 l 1.26392,1.82377 -0.91705,0.63579 -1.10993,-1.60125 c -0.66278,-0.72443 -0.96546,0.33893 -0.77258,0.49318 z m 1.12977,-4.55903 1.77006,2.55402 -0.90831,0.62944 -1.77007,-2.55402 z m 1.19142,-0.83265 c 0.0439,0.0402 0.0849,0.0831 0.1225,0.12886 0.036,0.0437 0.0688,0.0902 0.0987,0.13943 0.0905,-1.02764 1.26682,-1.4314 1.96956,-0.71041 l 1.26418,1.82378 -0.91731,0.63553 -1.10967,-1.60126 c -0.51276,-0.60087 -1.06971,0.0257 -0.69744,0.5625 l 1.075,1.55099 -0.94323,0.64902 c -0.58315,-0.8546 -1.13745,-1.72905 -1.80685,-2.52359 z m -1.95898,-0.27516 0.46805,0.67548 -0.90831,0.62944 -0.46805,-0.67522 z"
       style="clip-rule:evenodd;fill:#ffffff;fill-rule:evenodd;stroke-width:0.26458332;stroke-linejoin:round;stroke-miterlimit:1.41420996;fill-opacity:1"
       id="path973" />
    <path
       inkscape:connector-curvature="0"
       d="m 48.011189,26.078871 c 0,0 0.135996,5.05804 -5.471054,5.38639 -4.709583,0.2757 -5.647002,-4.18571 -5.647002,-4.18571 h 3.437996 c 0,0 -0.03387,1.79202 2.209006,1.74546 1.740694,-0.0362 2.099733,-1.28694 2.099733,-1.28694 l 0.205317,-2.48761 c -0.836612,0.57071 -1.844675,1.22608 -2.929202,1.22608 -2.894542,0 -5.244835,-2.37596 -5.244835,-5.30251 0,-2.92656 2.350293,-5.302518 5.244835,-5.302518 1.084527,0 2.09259,0.551658 2.929202,1.122628 v -0.80275 h 3.166004 z m -12.435416,0 c 0,0 0.135995,5.05804 -5.471055,5.38639 -4.709583,0.2757 -5.647002,-4.18571 -5.647002,-4.18571 h 3.437996 c 0,0 -0.03387,1.79202 2.209006,1.74546 1.740694,-0.0362 2.099734,-1.28694 2.099734,-1.28694 l 0.205316,-2.48761 c -0.836612,0.57071 -1.844675,1.22608 -2.929202,1.22608 -2.894541,0 -5.244835,-2.37596 -5.244835,-5.30251 0,-2.92656 2.350294,-5.302518 5.244835,-5.302518 1.084527,0 2.09259,0.551658 2.929202,1.122628 v -0.80275 h 3.166005 z m -12.366625,0 h -3.166004 v -0.50667 c -0.836613,0.57097 -1.844675,0.90434 -2.929203,0.90434 -2.894541,0 -5.244835,-2.37596 -5.244835,-5.30251 0,-2.92656 2.350294,-5.302518 5.244835,-5.302518 1.084528,0 2.09259,0.333378 2.929203,0.904348 v -0.58447 h 3.166004 z M 82.980904,15.764623 c 3.200135,0 5.798344,2.400038 5.798344,5.355958 0,2.95593 -2.598209,5.35596 -5.798344,5.35596 -3.2004,0 -5.798608,-2.40003 -5.798608,-5.35596 0,-2.95592 2.598208,-5.355958 5.798608,-5.355958 z m -23.751381,5.804168 c 0.10742,1.51473 0.766233,2.63313 2.296054,2.60482 1.211527,-0.0225 1.570037,-0.48366 2.172229,-1.33879 l 2.833952,0.42148 c -1.011767,2.24287 -2.831835,3.05329 -5.266267,3.05329 -2.919412,0 -5.28955,-1.65841 -5.28955,-5.2324 0,-3.57426 2.370138,-5.232658 5.28955,-5.232658 3.945996,0 5.28955,2.344468 5.28955,5.232658 0,0.16563 -0.0079,0.32967 -0.02328,0.4916 z m -6.986323,-5.3774 v 0.92949 c 0.977635,-1.336148 2.461683,-1.498338 4.206346,-1.05649 l -0.459582,2.48338 c -2.147887,-0.57996 -3.500702,0.0463 -3.746764,2.35268 v 5.21652 h -3.150659 v -9.92558 z m 18.525331,3.54172 3.319992,-3.62929 h 4.038864 l -4.520671,4.39473 4.853252,5.46682 H 74.3539 l -3.585369,-4.13491 v 4.13491 H 67.714446 V 10.621913 h 3.054085 z m -53.030437,-1.3888 c 1.516856,0 2.748491,1.24407 2.748491,2.77627 0,1.5322 -1.231635,2.77627 -2.748491,2.77627 -1.516857,0 -2.748492,-1.24407 -2.748492,-2.77627 0,-1.5322 1.231635,-2.77627 2.748492,-2.77627 z m 65.352083,0 c 1.516856,0 2.748491,1.24407 2.748491,2.77627 0,1.5322 -1.231635,2.77627 -2.748491,2.77627 -1.516856,0 -2.748492,-1.24407 -2.748492,-2.77627 0,-1.5322 1.231636,-2.77627 2.748492,-2.77627 z m -40.550042,0 c 1.516856,0 2.748492,1.24407 2.748492,2.77627 0,1.5322 -1.231636,2.77627 -2.748492,2.77627 -1.516856,0 -2.748492,-1.24407 -2.748492,-2.77627 0,-1.5322 1.231636,-2.77627 2.748492,-2.77627 z m -12.435416,0 c 1.516856,0 2.748491,1.24407 2.748491,2.77627 0,1.5322 -1.231635,2.77627 -2.748491,2.77627 -1.516857,0 -2.748492,-1.24407 -2.748492,-2.77627 0,-1.5322 1.231635,-2.77627 2.748492,-2.77627 z m 33.603406,1.41922 c -0.269346,-1.15226 -1.149879,-1.9976 -2.193396,-1.9976 -1.043517,0 -1.92405,0.84534 -2.193661,1.9976 z"
       style="clip-rule:evenodd;fill:#ffffff;fill-rule:evenodd;stroke-width:0.26458332;stroke-linejoin:round;stroke-miterlimit:1.41420996;fill-opacity:1"
       id="path963" />
    <g
       transform="matrix(0.59032161,0,0,0.59032161,136.85912,-10.163114)"
       id="g3358"
       style="fill:#ffffff;fill-opacity:1">
      <path
         sodipodi:nodetypes="sssscccccssssssccsss"
         inkscape:connector-curvature="0"
         id="rect3278"
         transform="scale(0.26458333)"
         d="M 84.136719,123.16211 C 66.333348,123.16211 52,137.49546 52,155.29883 v 89.08203 c 0,17.80337 14.333348,32.13672 32.136719,32.13672 H 93.75 l 32.22955,-26.14395 c 5.34028,-4.88536 5.34076,-5.43248 5.34076,-12.13966 V 212.16211 H 99.236328 v 31.24023 c 0,4.19719 -3.378988,7.57618 -7.576172,7.57618 -4.197183,0 -7.576172,-3.37899 -7.576172,-7.57618 v -87.125 c 0,-4.19718 3.378989,-7.57617 7.576172,-7.57617 4.197184,0 7.576172,3.37899 7.576172,7.57617 v 30.88477 h 32.083982 v -31.86328 c 0,-17.80337 -14.33335,-32.13672 -32.136716,-32.13672 z"
         style="opacity:1;fill:#ffffff;fill-opacity:1;stroke:none;stroke-width:1.51181102;stroke-linecap:round;stroke-linejoin:round;stroke-miterlimit:4;stroke-dasharray:1.51181099, 3.02362200999999997;stroke-dashoffset:0;stroke-opacity:1" />
      <path
         inkscape:connector-curvature="0"
         id="path3289"
         transform="scale(0.26458333)"
         d="M 163.13867,125.5 138.21484,241.0918 185.36328,202.36328 232.51172,241.0918 207.58594,125.5 Z m 22.48633,29.79883 8.125,39.63086 h -8.125 -8.125 z"
         style="fill:#ffffff;fill-opacity:1;stroke:none;stroke-width:0.99999994px;stroke-linecap:butt;stroke-linejoin:miter;stroke-opacity:1" />
      <path
         inkscape:connector-curvature="0"
         id="rect3328"
         transform="scale(0.26458333)"
         d="m 225.26367,125.5 v 29.79883 h 21.71875 v 98.76562 l 26.76172,22.45313 h 9.09766 V 155.29883 h 22.22461 V 125.5 Z"
         style="opacity:1;fill:#ffffff;fill-opacity:1;stroke:none;stroke-width:1.51181102;stroke-linecap:round;stroke-linejoin:round;stroke-miterlimit:4;stroke-dasharray:1.51181099, 3.02362200999999997;stroke-dashoffset:0;stroke-opacity:1" />
      <path
         inkscape:connector-curvature="0"
         id="path3336"
         transform="scale(0.26458333)"
         d="m 185.625,211.61523 -80.08008,64.90235 h 71.41992 17.32032 71.41992 z"
         style="fill:#ffffff;fill-opacity:1;stroke:none;stroke-width:0.99999994px;stroke-linecap:butt;stroke-linejoin:miter;stroke-opacity:1" />
    </g>
    <path
       inkscape:connector-curvature="0"
       d="m 278.45943,68.8922 h 0.45244 v 0.73554 c 0.37677,-0.51753 0.95462,-0.84905 1.60205,-0.84905 1.13401,0 2.05449,1.01679 2.05449,2.26933 0,1.25227 -0.92048,2.26907 -2.05449,2.26907 -0.64743,0 -1.22528,-0.33153 -1.60205,-0.84905 v 3.19405 h -0.45244 z m -44.78019,4.622 h -6.11029 v -6.27565 h 6.11029 z m -3.89811,-0.93001 c 0.21114,0 0.38232,0.17119 0.38232,0.38232 0,0.21114 -0.17118,0.38259 -0.38232,0.38259 -0.21114,0 -0.38259,-0.17145 -0.38259,-0.38259 0,-0.21113 0.17145,-0.38232 0.38259,-0.38232 z m 62.32181,-6.13622 v 3.19406 c 0.37677,-0.51753 0.95462,-0.84905 1.60205,-0.84905 1.13401,0 2.05449,1.01679 2.05449,2.26933 0,1.25227 -0.92048,2.26907 -2.05449,2.26907 -0.64743,0 -1.22528,-0.33153 -1.60205,-0.84905 v 0.73554 h -0.45244 v -6.7699 z m -33.05334,4.65667 c 0,10e-4 0.0611,1.90976 1.6809,1.82748 1.0713,-0.0548 1.54675,-0.98372 1.54675,-0.98372 l 0.31671,0.21722 c 0,0 -0.6133,1.14697 -1.86346,1.15147 -0.68289,0.002 -2.09444,-0.51964 -2.09444,-2.21245 0,-1.48193 0.70432,-2.21244 2.09444,-2.21244 2.13492,0 1.98041,2.21085 1.98041,2.21244 z m 42.28545,0 c 0,10e-4 0.0611,1.90976 1.68089,1.82748 1.0713,-0.0548 1.54676,-0.98372 1.54676,-0.98372 l 0.3167,0.21722 c 0,0 -0.6133,1.14697 -1.86346,1.15147 -0.68289,0.002 -2.09444,-0.51964 -2.09444,-2.21245 0,-1.48193 0.70432,-2.21244 2.09444,-2.21244 2.13493,0 1.98041,2.21085 1.98041,2.21244 z m -54.23086,2.21245 H 246.6372 V 68.8922 h 0.46699 z m 8.74184,-4.03543 h -0.46302 V 68.8922 h 0.46302 v -1.78912 h 0.42598 v 1.78912 h 0.72654 v 0.38946 h -0.72654 v 4.03543 h -0.42598 z m 29.1166,0 h -0.46276 V 68.8922 h 0.46276 v -1.78912 h 0.42598 v 1.78912 h 0.72681 v 0.38946 h -0.72681 v 4.03543 h -0.42598 z m -15.60089,4.03543 h -0.44371 V 68.8922 h 0.44371 v 0.47439 c 0.38867,-0.58525 0.84719,-0.71278 1.36154,-0.47439 l -0.20452,0.35824 c -0.67098,-0.21801 -1.01732,0.17621 -1.15702,0.95965 z m -28.25697,0 h -0.40191 v -3.30385 c 0,-0.0331 0,-1.12104 0,-1.12104 h 0.40191 v 0.32305 c 0.81121,-0.61727 2.56963,-0.34951 2.59159,0.79799 v 3.30385 h -0.39952 V 70.3056 c -0.0151,-1.29328 -2.168,-1.46394 -2.19207,0 z m 24.38029,0 h -0.4437 V 68.8922 h 0.4437 v 0.47439 c 0.38867,-0.58525 0.8472,-0.71278 1.36155,-0.47439 l -0.20453,0.35824 c -0.67098,-0.21801 -1.01732,0.17621 -1.15702,0.95965 z m -15.1085,0 h -0.4019 v -3.30385 c 0,-0.0331 0,-1.12104 0,-1.12104 h 0.4019 v 0.32305 c 0.81121,-0.61727 2.56963,-0.34951 2.59159,0.79799 v 3.30385 h -0.39952 V 70.3056 c -0.0151,-1.29328 -2.16799,-1.46394 -2.19207,0 z m 38.37649,0 h -0.46673 V 68.8922 h 0.46673 z m 9.36651,-6.21401 h 0.45085 v 6.21401 h -0.45085 z m -63.15022,1.78912 h 0.40191 v 3.01148 c 0.0241,1.46394 2.17699,1.29329 2.19207,0 V 68.8922 h 0.39952 v 3.30385 c -0.0286,1.49304 -2.99614,1.49648 -2.9935,0 z m 37.77113,0 h 0.4019 v 3.01148 c 0.0241,1.46394 2.17725,1.29329 2.19207,0 V 68.8922 h 0.39952 v 3.30385 c -0.0286,1.49304 -2.99614,1.49648 -2.99349,0 z m 19.36247,1.56368 c 0.22675,-0.7448 0.8591,-1.28137 1.60284,-1.28137 0.93398,0 1.69202,0.84587 1.69202,1.8878 0,1.04193 -0.75804,1.8878 -1.69202,1.8878 -0.74374,0 -1.37609,-0.53657 -1.60284,-1.28138 -0.0984,-0.40375 -0.0958,-0.80803 0,-1.21285 z m -13.19107,1.1983 c 0.22675,0.7448 0.8591,1.28138 1.60285,1.28138 0.93398,0 1.69201,-0.84587 1.69201,-1.8878 0,-1.04193 -0.75803,-1.88781 -1.69201,-1.88781 -0.74375,0 -1.3761,0.53658 -1.60285,1.28138 -0.0984,0.40376 -0.0958,0.80804 0,1.21285 z m -49.55116,0.27728 c 0.16298,0 0.29501,0.1323 0.29501,0.29502 0,0.16298 -0.13203,0.29501 -0.29501,0.29501 -0.16272,0 -0.29501,-0.13203 -0.29501,-0.29501 0,-0.16272 0.13229,-0.29502 0.29501,-0.29502 z m 0.9181,0 c 0.16298,0 0.29528,0.1323 0.29528,0.29502 0,0.16298 -0.1323,0.29501 -0.29528,0.29501 -0.16272,0 -0.29501,-0.13203 -0.29501,-0.29501 0,-0.16272 0.13229,-0.29502 0.29501,-0.29502 z m -0.53552,-0.80195 c 0.21114,0 0.38233,0.17145 0.38233,0.38233 0,0.21113 -0.17119,0.38258 -0.38233,0.38258 -0.21113,0 -0.38258,-0.17145 -0.38258,-0.38258 0,-0.21088 0.17145,-0.38233 0.38258,-0.38233 z m 1.01521,0.1397 c 0.16298,0 0.29501,0.13229 0.29501,0.29501 0,0.16299 -0.13203,0.29528 -0.29501,0.29528 -0.16272,0 -0.29501,-0.13229 -0.29501,-0.29528 0,-0.16272 0.13229,-0.29501 0.29501,-0.29501 z m -1.86161,0 c 0.13256,0 0.23998,0.10742 0.23998,0.23998 0,0.13229 -0.10742,0.23971 -0.23998,0.23971 -0.13229,0 -0.23971,-0.10742 -0.23971,-0.23971 0,-0.13256 0.10742,-0.23998 0.23971,-0.23998 z m 1.38192,-0.55509 c 0.13256,0 0.23998,0.10742 0.23998,0.23971 0,0.13229 -0.10742,0.23971 -0.23998,0.23971 -0.13229,0 -0.23971,-0.10742 -0.23971,-0.23971 0,-0.13229 0.10742,-0.23971 0.23971,-0.23971 z m 0.98002,-0.0418 c 0.14393,0 0.26061,0.11694 0.26061,0.26061 0,0.14393 -0.11668,0.26062 -0.26061,0.26062 -0.14367,0 -0.26062,-0.11669 -0.26062,-0.26062 0,-0.14367 0.11695,-0.26061 0.26062,-0.26061 z m -1.98967,-0.13309 c 0.16272,0 0.29501,0.13229 0.29501,0.29527 0,0.16272 -0.13229,0.29501 -0.29501,0.29501 -0.16298,0 -0.29527,-0.13229 -0.29527,-0.29501 0,-0.16298 0.13229,-0.29527 0.29527,-0.29527 z m -0.72152,0.26326 c 0.087,0 0.15769,0.0706 0.15769,0.15769 0,0.0871 -0.0706,0.15769 -0.15769,0.15769 -0.0871,0 -0.15769,-0.0706 -0.15769,-0.15769 0,-0.087 0.0706,-0.15769 0.15769,-0.15769 z m 30.49508,-0.13917 h 3.24247 c 0,0 -0.22754,-1.47797 -1.61052,-1.47797 -1.38297,0 -1.63195,1.47797 -1.63195,1.47797 z m 42.28545,0 h 3.24246 c 0,0 -0.22754,-1.47797 -1.61051,-1.47797 -1.38298,0 -1.63195,1.47797 -1.63195,1.47797 z M 230.7585,70.13653 c 0.13229,0 0.23971,0.10742 0.23971,0.23998 0,0.13229 -0.10742,0.23971 -0.23971,0.23971 -0.13229,0 -0.23971,-0.10742 -0.23971,-0.23971 0,-0.13256 0.10742,-0.23998 0.23971,-0.23998 z m -1.01256,-0.0574 c 0.13229,0 0.23971,0.10742 0.23971,0.23998 0,0.13229 -0.10742,0.23971 -0.23971,0.23971 -0.13256,0 -0.23998,-0.10742 -0.23998,-0.23971 0,-0.13256 0.10742,-0.23998 0.23998,-0.23998 z m -1.44648,0.1397 c 0.0871,0 0.15769,0.0706 0.15769,0.15769 0,0.087 -0.0706,0.1577 -0.15769,0.1577 -0.0871,0 -0.15769,-0.0706 -0.15769,-0.1577 0,-0.0871 0.0706,-0.15769 0.15769,-0.15769 z M 231.72,70.08866 c 0.11033,0 0.20029,0.0897 0.20029,0.20029 0,0.1106 -0.09,0.20029 -0.20029,0.20029 -0.1106,0 -0.20056,-0.0897 -0.20056,-0.20029 0,-0.11059 0.09,-0.20029 0.20056,-0.20029 z m -2.8628,-0.1135 c 0.13256,0 0.23998,0.10742 0.23998,0.23971 0,0.13229 -0.10742,0.23971 -0.23998,0.23971 -0.13229,0 -0.23971,-0.10742 -0.23971,-0.23971 0,-0.13229 0.10742,-0.23971 0.23971,-0.23971 z m 0.41646,-0.2966 c 0.11059,0 0.20029,0.0897 0.20029,0.20029 0,0.11059 -0.0897,0.20029 -0.20029,0.20029 -0.1106,0 -0.20029,-0.0897 -0.20029,-0.20029 0,-0.1106 0.0897,-0.20029 0.20029,-0.20029 z m -1.2327,0.0852 c 0.087,0 0.1577,0.0706 0.1577,0.15769 0,0.0871 -0.0706,0.15769 -0.1577,0.15769 -0.0871,0 -0.15769,-0.0706 -0.15769,-0.15769 0,-0.087 0.0706,-0.15769 0.15769,-0.15769 z m 3.21787,-0.14262 c 0.11059,0 0.20029,0.0897 0.20029,0.20029 0,0.11033 -0.0897,0.20029 -0.20029,0.20029 -0.11033,0 -0.20029,-0.09 -0.20029,-0.20029 0,-0.11059 0.09,-0.20029 0.20029,-0.20029 z m 0.81915,0 c 0.0871,0 0.15769,0.0706 0.15769,0.15769 0,0.087 -0.0706,0.1577 -0.15769,0.1577 -0.087,0 -0.15769,-0.0706 -0.15769,-0.1577 0,-0.0871 0.0706,-0.15769 0.15769,-0.15769 z m -3.56209,-0.17277 c 0.10451,0 0.18944,0.0849 0.18944,0.18971 0,0.10451 -0.0849,0.18944 -0.18944,0.18944 -0.10477,0 -0.1897,-0.0849 -0.1897,-0.18944 0,-0.10478 0.0849,-0.18971 0.1897,-0.18971 z m 0.39979,-0.14499 c 0.0871,0 0.15769,0.0706 0.15769,0.15769 0,0.087 -0.0706,0.15769 -0.15769,0.15769 -0.0871,0 -0.15769,-0.0706 -0.15769,-0.15769 0,-0.087 0.0706,-0.15769 0.15769,-0.15769 z m 2.70113,-0.0778 c 0.087,0 0.15795,0.0706 0.15795,0.15769 0,0.087 -0.0709,0.15769 -0.15795,0.15769 -0.0868,0 -0.15769,-0.0706 -0.15769,-0.15769 0,-0.0871 0.0709,-0.15769 0.15769,-0.15769 z m 0.73422,-0.0413 c 0.0871,0 0.15769,0.0706 0.15769,0.15769 0,0.087 -0.0706,0.15769 -0.15769,0.15769 -0.0871,0 -0.15769,-0.0706 -0.15769,-0.15769 0,-0.0871 0.0706,-0.15769 0.15769,-0.15769 z m -4.12433,-0.0624 c 0.0902,0 0.16325,0.073 0.16325,0.16325 0,0.09 -0.073,0.16324 -0.16325,0.16324 -0.0902,0 -0.16325,-0.0733 -0.16325,-0.16324 0,-0.0902 0.073,-0.16325 0.16325,-0.16325 z m 3.76344,-0.21167 c 0.0871,0 0.15769,0.0706 0.15769,0.15769 0,0.087 -0.0706,0.15769 -0.15769,0.15769 -0.087,0 -0.1577,-0.0706 -0.1577,-0.15769 0,-0.087 0.0706,-0.15769 0.1577,-0.15769 z m 0.62679,-0.0598 c 0.0791,0 0.14314,0.0643 0.14314,0.1434 0,0.0791 -0.064,0.14314 -0.14314,0.14314 -0.0791,0 -0.1434,-0.064 -0.1434,-0.14314 0,-0.0791 0.0643,-0.1434 0.1434,-0.1434 z m -4.64555,-0.0505 c 0.0685,0 0.12409,0.0556 0.12409,0.12409 0,0.0685 -0.0556,0.12409 -0.12409,0.12409 -0.0685,0 -0.12409,-0.0556 -0.12409,-0.12409 0,-0.0685 0.0556,-0.12409 0.12409,-0.12409 z m 4.41325,-0.27358 c 0.0685,0 0.12409,0.0558 0.12409,0.12435 0,0.0685 -0.0556,0.12409 -0.12409,0.12409 -0.0685,0 -0.12436,-0.0556 -0.12436,-0.12409 0,-0.0685 0.0558,-0.12435 0.12436,-0.12435 z m 0.4998,-0.068 c 0.0685,0 0.12409,0.0556 0.12409,0.12435 0,0.0685 -0.0556,0.12409 -0.12409,0.12409 -0.0685,0 -0.12436,-0.0556 -0.12436,-0.12409 0,-0.0688 0.0558,-0.12435 0.12436,-0.12435 z m -0.24845,-0.24844 c 0.0685,0 0.12409,0.0556 0.12409,0.12409 0,0.0688 -0.0556,0.12435 -0.12409,0.12435 -0.0685,0 -0.12435,-0.0556 -0.12435,-0.12435 0,-0.0685 0.0558,-0.12409 0.12435,-0.12409 z m 0.51118,-0.0354 c 0.0534,0 0.0968,0.0434 0.0968,0.0968 0,0.0532 -0.0434,0.0966 -0.0968,0.0966 -0.0534,0 -0.0968,-0.0434 -0.0968,-0.0966 0,-0.0534 0.0434,-0.0968 0.0968,-0.0968 z m -0.19341,-0.19342 c 0.0534,0 0.0966,0.0434 0.0966,0.0968 0,0.0532 -0.0431,0.0966 -0.0966,0.0966 -0.0534,0 -0.0968,-0.0434 -0.0968,-0.0966 0,-0.0534 0.0434,-0.0968 0.0968,-0.0968 z m 0.43921,-0.0524 c 0.0532,0 0.0966,0.0434 0.0966,0.0968 0,0.0534 -0.0434,0.0966 -0.0966,0.0966 -0.0534,0 -0.0968,-0.0431 -0.0968,-0.0966 0,-0.0534 0.0434,-0.0968 0.0968,-0.0968 z m -0.19341,-0.23389 c 0.0532,0 0.0966,0.0434 0.0966,0.0968 0,0.0532 -0.0434,0.0966 -0.0966,0.0966 -0.0534,0 -0.0968,-0.0434 -0.0968,-0.0966 0,-0.0534 0.0434,-0.0968 0.0968,-0.0968 z m 55.32014,-0.59161 c 0.19288,0 0.34951,0.1569 0.34951,0.35031 0,0.19341 -0.15663,0.35057 -0.34951,0.35057 -0.19315,0 -0.34978,-0.15716 -0.34978,-0.35057 0,-0.19341 0.15663,-0.35031 0.34978,-0.35031 z m -41.64912,0 c 0.19314,0 0.34978,0.1569 0.34978,0.35031 0,0.19341 -0.15664,0.35057 -0.34978,0.35057 -0.19288,0 -0.34952,-0.15716 -0.34952,-0.35057 0,-0.19341 0.15664,-0.35031 0.34952,-0.35031 z m -13.41755,0.3982 c 0.0534,0 0.0968,0.0434 0.0968,0.0968 0,0.0532 -0.0434,0.0966 -0.0968,0.0966 -0.0532,0 -0.0966,-0.0434 -0.0966,-0.0966 0,-0.0534 0.0434,-0.0968 0.0966,-0.0968 z m 48.18221,-9.883507 h 0.55271 l 2.28812,6.859317 3.01466,-7.243227 3.0189,7.243227 2.19921,-6.859317 h 0.57785 l -2.77706,8.629917 -3.0189,-7.413367 -3.16124,7.413367 z m -13.11328,4.357417 v 3.97219 h -0.72231 v -8.329607 h 2.78474 c 0,0 2.73949,-0.0799 2.73949,2.00475 0,2.233877 -2.735,2.352407 -2.73949,2.352667 z m 29.80796,3.97219 h -4.42595 v -8.329607 h 4.42595 v 0.43524 h -3.7428 v 3.14828 h 3.7428 v 0.581287 h -3.7428 v 3.51525 h 3.7428 z M 255.1589,57.617863 h 4.60322 v 1.94972 h -2.25716 v 1.32397 h 2.04365 v 1.847587 h -2.04365 v 1.27635 h 2.25716 v 1.93198 h -4.60322 z m 7.28954,8.329607 h -2.20504 v -8.329607 h 3.21945 c 0.003,5.3e-4 2.14551,0.63024 2.34527,2.19393 0.24341,1.903937 -1.37134,2.819127 -1.37134,2.819127 l 2.29024,3.31655 h -2.45878 l -1.8198,-2.46486 z m -17.62548,-5.458347 h 2.23705 v -2.87126 h 2.26166 v 8.329607 h -2.26166 v -3.13319 h -2.23705 v 3.13319 h -2.30029 v -8.329607 h 2.30029 z m -14.98415,-0.37492 2.1082,-2.49634 h 2.95222 l -3.26364,4.009227 3.68565,4.32038 h -2.97286 l -2.50957,-2.92946 v 2.92946 h -2.26986 v -8.329607 h 2.26986 z m 20.07076,-2.49634 h 2.26563 v 6.161087 h 2.47147 v 2.16852 h -4.7371 z m 49.84141,8.329607 h -0.6977 v -8.329607 h 2.28256 c 4.25185,-0.15081 4.54819,4.308477 0,4.359797 l 3.82561,3.96981 h -0.84217 L 300.427,61.97766 h -0.67602 z m -21.93104,-8.542327 c 2.30267,0 4.17221,1.91373 4.17221,4.271157 0,2.35744 -1.86954,4.27117 -4.17221,4.27117 -2.30267,0 -4.17222,-1.91373 -4.17222,-4.27117 0,-2.357427 1.86955,-4.271157 4.17222,-4.271157 z m -39.88065,0.0341 c 2.34606,0 4.25053,1.90632 4.25053,4.254227 0,2.34791 -1.90447,4.25397 -4.25053,4.25397 -2.34579,0 -4.25027,-1.90606 -4.25027,-4.25397 0,-2.347907 1.90448,-4.254227 4.25027,-4.254227 z m 39.83831,0.57308 c 1.99099,0 3.6076,1.66344 3.6076,3.712367 0,2.04894 -1.61661,3.71237 -3.6076,3.71237 -1.99099,0 -3.60759,-1.66343 -3.60759,-3.71237 0,-2.048927 1.6166,-3.712367 3.60759,-3.712367 z m -39.87323,1.5539 c 1.04854,0 1.8997,0.9533 1.8997,2.127247 0,1.17396 -0.85116,2.12699 -1.8997,2.12699 -1.04855,0 -1.89998,-0.95303 -1.89998,-2.12699 0,-1.173947 0.85143,-2.127247 1.89998,-2.127247 z m 63.90005,-1.44039 h -2.05344 v 3.272627 h 2.05344 c 0,0 2.02512,-0.224357 2.02512,-1.657346 0,-1.43166 -2.02089,-1.61475 -2.02512,-1.615281 z m -31.39044,-0.0325 h -1.89203 v 3.296177 h 1.89203 c 0,0 2.18837,-0.206636 2.18837,-1.648886 0,-1.44092 -2.18387,-1.64676 -2.18837,-1.647291 z m -7.171,1.487481 h -0.79454 v 1.56528 h 0.79454 c 0.8763,-0.16722 0.71305,-1.49516 0,-1.56528 z"
       style="clip-rule:evenodd;fill:#ffffff;fill-rule:evenodd;stroke-width:0.26458332;stroke-linejoin:round;stroke-miterlimit:1.41420996;fill-opacity:1"
       id="path3426" />
    <g
       transform="matrix(0.30097601,0,0,0.30097601,14.763915,45.343109)"
       id="g12903"
       style="fill:#ffffff;fill-opacity:1">
      <path
         inkscape:connector-curvature="0"
         id="rect5170"
         transform="scale(0.26458333)"
         d="m 150.51367,166.91602 v 24.875 83.21093 h 25.75781 69.19532 v -23.61328 h -69.19532 v -19.82422 h 64.39649 v -20.45507 h -64.39649 v -19.31836 h 69.19532 v -24.875 h -69.19532 z"
         style="opacity:1;fill:#ffffff;fill-opacity:1;stroke:none;stroke-width:1.51181102;stroke-linecap:round;stroke-linejoin:round;stroke-miterlimit:4;stroke-dasharray:1.51181099, 3.02362200999999997;stroke-dashoffset:0;stroke-opacity:1" />
      <path
         id="rect5170-0"
         d="m 107.06796,44.163235 v 6.58151 22.016226 h 6.81508 18.30793 V 66.51329 h -18.30793 v -5.245158 h 17.03824 v -5.412071 h -17.03824 v -5.111316 h 18.30793 v -6.58151 h -18.30793 z"
         style="opacity:1;fill:#ffffff;fill-opacity:1;stroke:none;stroke-width:0.40000001;stroke-linecap:round;stroke-linejoin:round;stroke-miterlimit:4;stroke-dasharray:0.39999999, 0.79999998999999999;stroke-dashoffset:0;stroke-opacity:1"
         inkscape:connector-curvature="0" />
      <path
         inkscape:connector-curvature="0"
         id="rect5194"
         transform="scale(0.26458333)"
         d="m 264.4082,166.91602 v 108.08593 h 24.24219 v -81.67773 l 51.64453,81.67773 h 25.77735 15.38671 V 166.91602 H 357.7207 v 80.9375 l -51.64843,-80.9375 h -17.42188 z"
         style="opacity:1;fill:#ffffff;fill-opacity:1;stroke:none;stroke-width:1.51181102;stroke-linecap:round;stroke-linejoin:round;stroke-miterlimit:4;stroke-dasharray:1.51181099, 3.02362200999999997;stroke-dashoffset:0;stroke-opacity:1" />
      <path
         sodipodi:nodetypes="ccccccccccccsccccccccc"
         inkscape:connector-curvature="0"
         id="rect12840"
         transform="scale(0.26458333)"
         d="m 518.71289,166.91602 v 108.08593 h 25.75977 v -27.14843 h 44.82422 c 4.46449,3.4e-4 9.4707,3.53583 9.4707,10.48066 v 16.66777 h 26.51758 v -27.14843 c -2.7341,-10.64287 -10.25056,-12.32121 -18.14258,-13.29297 v -0.0859 c 8.84492,-1.82931 18.16238,-7.90178 18.14258,-27.2793 3e-5,-23.43989 -10e-4,-40.27929 -26.51758,-40.27929 h -54.29492 z m 25.75977,26.4082 h 46.46659 c 3.31427,-9.6e-4 8.08087,2.95304 7.82833,6.29485 v 17.5514 c 0.0578,5.42954 -4.45882,5.42954 -7.44953,5.42914 h -46.84539 z"
         style="opacity:1;fill:#ffffff;fill-opacity:1;stroke:none;stroke-width:1.51181102;stroke-linecap:round;stroke-linejoin:round;stroke-miterlimit:4;stroke-dasharray:1.51181099, 3.02362200999999997;stroke-dashoffset:0;stroke-opacity:1" />
      <path
         inkscape:connector-curvature="0"
         id="path12855"
         transform="scale(0.26458333)"
         d="m 683.75,166.91602 -47.32227,108.08593 h 29.28711 l 8.21289,-19.08984 11.04297,0.0449 -0.0156,0.13477 16.36133,-0.0664 16.36132,0.0664 -0.0156,-0.13477 11.04297,-0.0449 8.21289,19.08984 h 29.28711 L 718.88281,166.91602 H 707.5 695.13281 Z m 17.97461,24.875 17.85742,42.06836 h -36.51758 z"
         style="fill:#ffffff;fill-opacity:1;stroke:none;stroke-width:0.99999994px;stroke-linecap:butt;stroke-linejoin:miter;stroke-opacity:1" />
      <path
         sodipodi:nodetypes="cccccccccccccccccccccc"
         inkscape:connector-curvature="0"
         id="path12876"
         d="m 28.063301,62.203718 h -8.819895 v -5.679477 l 15.635266,0.06682 c -0.02642,3.98073 0.442422,7.662737 -0.534539,11.960313 -0.623628,3.073599 -2.62815,4.677216 -6.013563,4.81085 -6.279642,0.27056 -11.726618,0.01124 -17.038433,-0.334087 C 8.1357707,72.480713 5.6201202,70.789157 4.9444862,65.811857 4.4604866,60.870084 4.560067,55.831047 5.1449385,50.711128 5.7014277,46.141065 8.5768647,43.990773 13.229841,43.695305 h 14.365737 c 2.990707,0.625891 5.997035,1.230539 6.815373,4.810852 l 0.400905,5.412206 h -6.748555 v -1.202712 c -0.59119,-1.498963 -1.769788,-2.242687 -3.60814,-2.138156 h -9.42125 c -1.677999,0.423943 -2.774613,1.292475 -2.939965,2.873148 v 10.15624 c 0.296896,1.738979 1.520609,2.448163 2.939965,2.939965 h 10.356694 c 1.264886,-0.226018 2.694139,0.0849 2.672696,-4.34313 z"
         style="fill:#ffffff;fill-opacity:1;stroke:none;stroke-width:0.26458332px;stroke-linecap:butt;stroke-linejoin:miter;stroke-opacity:1" />
      <path
         sodipodi:nodetypes="cccccccccccccccccccc"
         inkscape:connector-curvature="0"
         id="path12876-5"
         d="m 226.37729,62.203718 c 4.43925,-0.102761 2.06016,-0.02637 6.3391,-0.03617 0.0501,3.566452 0.12113,3.165018 -0.0583,6.383821 -0.62362,3.073599 -2.62815,4.677217 -6.01356,4.810851 -6.27964,0.27056 -11.72662,0.01124 -17.03843,-0.334087 -3.15637,-0.547426 -5.67202,-2.238981 -6.34765,-7.216281 -0.484,-4.941773 -0.38442,-9.98081 0.20045,-15.100728 0.55649,-4.570064 3.43192,-6.720356 8.0849,-7.015824 h 14.36574 c 2.99071,0.625891 5.99703,1.230539 6.81537,4.810852 l 0.40091,5.412206 h -6.74856 v -1.202711 c -0.59119,-1.498963 -1.76979,-2.242688 -3.60814,-2.138157 h -9.42125 c -1.678,0.423943 -2.77461,1.292475 -2.93996,2.873148 v 10.15624 c 0.29689,1.738979 1.5206,2.448163 2.93996,2.939965 h 10.3567 c 1.26488,-0.226018 2.69413,0.0849 2.67269,-4.34313 z"
         style="fill:#ffffff;fill-opacity:1;stroke:none;stroke-width:0.26458332px;stroke-linecap:butt;stroke-linejoin:miter;stroke-opacity:1" />
      <path
         inkscape:connector-curvature="0"
         id="path12893"
         d="M 232.79176,77.037178 V 96.547854 L 3.1738257,87.410575 v -1.202712 z"
         style="fill:#ffffff;fill-opacity:1;stroke:none;stroke-width:0.26458332px;stroke-linecap:butt;stroke-linejoin:miter;stroke-opacity:1" />
    </g>
  </g>
</svg>
