<?xml version="1.0" encoding="UTF-8" standalone="no"?>
<!DOCTYPE svg PUBLIC "-//W3C//DTD SVG 1.1//EN" "http://www.w3.org/Graphics/SVG/1.1/DTD/svg11.dtd">
<svg width="100%" height="100%" viewBox="0 0 300 100" version="1.1" xmlns="http://www.w3.org/2000/svg" xmlns:xlink="http://www.w3.org/1999/xlink" xml:space="preserve" xmlns:serif="http://www.serif.com/" style="fill-rule:evenodd;clip-rule:evenodd;stroke-linejoin:round;stroke-miterlimit:1.41421;">
    <path d="M32.986,23.295C50.201,23.295 64.178,37.272 64.178,54.487C64.178,71.703 50.201,85.679 32.986,85.679C15.771,85.679 1.794,71.703 1.794,54.487C1.794,37.272 15.771,23.295 32.986,23.295ZM32.986,24.153C49.728,24.153 63.32,37.745 63.32,54.487C63.32,71.229 49.728,84.821 32.986,84.821C16.244,84.821 2.652,71.229 2.652,54.487C2.652,37.745 16.244,24.153 32.986,24.153ZM32.986,26.8C48.267,26.8 60.673,39.206 60.673,54.487C60.673,69.768 48.267,82.174 32.986,82.174C17.705,82.174 5.299,69.768 5.299,54.487C5.299,39.206 17.705,26.8 32.986,26.8ZM32.986,29.131C46.98,29.131 58.342,40.493 58.342,54.487C58.342,68.482 46.98,79.843 32.986,79.843C18.992,79.843 7.63,68.482 7.63,54.487C7.63,40.493 18.992,29.131 32.986,29.131ZM47.205,48.809L47.205,67.386L41.795,62.04L41.795,55.773L38.565,52.717L38.565,58.896L33.954,54.487L33.954,35.604L38.565,40.312L38.565,45.748L41.795,48.809L41.795,43.525L47.205,48.809ZM40.852,58.232L40.852,62.175L35.461,67.386L35.461,63.764L40.852,58.232ZM18.954,48.809L18.954,67.386L24.364,62.04L24.364,55.773L27.594,52.717L27.594,58.896L32.205,54.487L32.205,35.604L27.594,40.312L27.594,45.748L24.364,48.809L24.364,43.525L18.954,48.809ZM25.307,58.232L25.307,62.175L30.698,67.386L30.698,63.764L25.307,58.232ZM235.353,51.675L235.354,50.573C235.349,50.483 235.347,50.393 235.347,50.303C235.347,49.423 235.347,48.507 235.347,47.612C235.347,46.011 235.984,44.475 237.116,43.342C238.249,42.209 239.785,41.573 241.386,41.573C245.687,41.573 251.471,41.573 255.925,41.573C257.716,41.573 259.434,42.285 260.7,43.551C261.966,44.818 262.678,46.535 262.678,48.326L262.678,55.68L262.671,55.68C262.676,55.77 262.678,55.86 262.678,55.951C262.678,56.83 262.678,57.747 262.678,58.641C262.678,60.243 262.042,61.779 260.909,62.912C259.777,64.044 258.24,64.68 256.639,64.68C252.338,64.68 246.554,64.68 242.1,64.68C240.309,64.68 238.592,63.969 237.325,62.703C236.059,61.436 235.347,59.718 235.347,57.927L235.348,57.123L235.347,57.123L235.347,51.622C235.349,51.64 235.351,51.658 235.353,51.675L235.348,57.123L242.544,57.123C242.638,58.71 243.179,59.473 244.992,59.496L253.433,59.496C256.416,59.472 256.926,55.953 253.433,55.964L242.544,55.964C237.968,55.723 235.649,54.25 235.353,51.675ZM212.281,41.573L225.069,57.697L225.069,41.573L231.734,41.573L231.734,63.962L221.487,63.962L208.92,48.026L208.92,63.962L202.133,63.962L202.133,41.573L212.281,41.573ZM188.068,48.732C188.068,46.834 187.314,45.013 185.972,43.67C184.629,42.327 182.808,41.573 180.909,41.573C176.15,41.573 169.922,41.573 165.147,41.573C163.228,41.573 161.387,42.336 160.03,43.693C158.672,45.05 157.91,46.891 157.91,48.81C157.91,51.638 157.91,54.852 157.91,57.59C157.91,61.109 160.763,63.962 164.282,63.962C169.426,63.962 176.626,63.962 181.754,63.962C183.429,63.962 185.035,63.297 186.219,62.113C187.403,60.929 188.068,59.323 188.068,57.648C188.068,54.872 188.068,51.598 188.068,48.732ZM136.611,55.825L144.388,41.573L154.486,41.573L154.486,63.962L148.092,63.962L148.092,48.294L139.074,63.962L134.029,63.962L125.065,48.294L125.065,63.962L118.634,63.962L118.634,41.573L128.753,41.573L136.611,55.825ZM114.815,41.573L114.815,63.962L108.216,63.962L108.216,41.573L114.815,41.573ZM198.213,41.573L198.213,63.962L191.614,63.962L191.614,41.573L198.213,41.573ZM83.382,49.427L97.509,49.427L97.509,41.573L104.223,41.573L104.223,63.962L97.509,63.962L97.509,55.586L83.382,55.586L83.382,63.764L76.61,63.764L76.61,41.573L83.382,41.573L83.382,49.427ZM296.392,63.962L289.118,63.962L286.931,59.939L273.403,59.939L271.216,63.962L263.942,63.962L274.755,41.568L285.579,41.568L296.392,63.962ZM181.186,50.003C181.186,48.482 179.953,47.249 178.433,47.249C175.446,47.249 170.711,47.249 167.763,47.249C166.296,47.249 165.107,48.438 165.107,49.905C165.107,51.848 165.107,54.455 165.107,56.301C165.107,57.553 166.122,58.568 167.374,58.568C170.251,58.568 175.213,58.568 178.341,58.568C179.913,58.568 181.186,57.294 181.186,55.723C181.186,53.971 181.186,51.737 181.186,50.003ZM275.883,55.377L284.45,55.377L280.167,47.499L275.883,55.377ZM253.033,46.758L244.592,46.758C241.609,46.781 241.1,50.3 244.592,50.289L255.481,50.289C260.089,50.532 262.407,52.023 262.678,54.631L262.678,49.131L255.481,49.131C255.387,47.543 254.846,46.781 253.033,46.758Z" style="fill:rgb(112,112,112);"/>
</svg>
