<?xml version="1.0" encoding="UTF-8" standalone="no"?>
<svg
   xmlns:dc="http://purl.org/dc/elements/1.1/"
   xmlns:cc="http://creativecommons.org/ns#"
   xmlns:rdf="http://www.w3.org/1999/02/22-rdf-syntax-ns#"
   xmlns:svg="http://www.w3.org/2000/svg"
   xmlns="http://www.w3.org/2000/svg"
   id="svg8"
   version="1.1"
   viewBox="0 0 52.916665 52.916668"
   height="200"
   width="200">
  <defs
     id="defs2" />
  <metadata
     id="metadata5">
    <rdf:RDF>
      <cc:Work
         rdf:about="">
        <dc:format>image/svg+xml</dc:format>
        <dc:type
           rdf:resource="http://purl.org/dc/dcmitype/StillImage" />
        <dc:title></dc:title>
      </cc:Work>
    </rdf:RDF>
  </metadata>
  <g
     transform="translate(0,-244.08332)"
     id="layer1">
    <g
       style="stroke-width:0.83699167"
       transform="matrix(1.194755,0,0,1.194755,-9.2751663,-47.871339)"
       id="g880">
      <path
         style="fill:#282425;fill-opacity:1;stroke-width:0.83699167"
         d="m 12.192284,271.15415 v -2.31342 h 0.680417 0.680417 v 0.79949 0.79949 h 1.522433 1.522433 v -0.79949 -0.79949 h 0.731448 0.731448 v 2.31342 2.31342 h -0.731267 -0.731267 l -0.0044,-0.73164 -0.0044,-0.73164 -1.50117,1.3e-4 c -0.825643,5e-5 -1.508825,1.2e-4 -1.51818,1.9e-4 -0.01107,6e-5 -0.01701,0.25531 -0.01701,0.73154 v 0.73145 H 12.87277 12.192352 v -2.31343 z m 8.045931,2.30274 c -0.273888,-0.0434 -0.453169,-0.0973 -0.646396,-0.19429 -0.529676,-0.26599 -0.928664,-0.79821 -1.029342,-1.37305 -0.03615,-0.20638 -0.0367,-1.26548 -7.65e-4,-1.46891 0.08616,-0.4878 0.372524,-0.9386 0.781734,-1.2306 0.151293,-0.10796 0.43549,-0.23994 0.633877,-0.29436 l 0.167335,-0.0459 1.488412,-0.005 c 1.038836,-0.004 1.529516,2.6e-4 1.624495,0.0136 0.174929,0.0246 0.458202,0.11878 0.620881,0.2064 0.531286,0.28619 0.90662,0.816 0.995421,1.40513 0.03477,0.23067 0.03491,1.13895 1.93e-4,1.36512 -0.118167,0.77019 -0.680059,1.37977 -1.461748,1.58579 -0.135114,0.0356 -0.166449,0.0364 -1.634672,0.0398 -0.823303,0.002 -1.516053,4.5e-4 -1.539442,-0.003 z m 2.877751,-1.44645 c 0.112648,-0.0521 0.226605,-0.16357 0.281587,-0.27553 l 0.04713,-0.096 v -0.42526 c 0,-0.42213 -3.21e-4,-0.42594 -0.04406,-0.51881 -0.06176,-0.13114 -0.116413,-0.18957 -0.23999,-0.25658 l -0.107189,-0.0581 h -1.335319 c -1.332582,0 -1.335482,7e-5 -1.414855,0.0368 -0.118403,0.0547 -0.223692,0.16068 -0.276423,0.27818 l -0.04587,0.10222 0.0053,0.43782 0.0053,0.43782 0.05012,0.0905 c 0.079,0.14262 0.214936,0.24294 0.372482,0.2749 0.03889,0.008 0.644802,0.0131 1.346482,0.0116 1.268709,-0.003 1.276222,-0.003 1.355318,-0.0395 z m 3.594717,1.42275 c -0.654082,-0.13844 -1.156964,-0.61591 -1.346775,-1.27872 -0.0452,-0.15782 -0.04536,-0.16046 -0.0523,-0.86417 -0.0075,-0.76034 2.57e-4,-0.87438 0.07577,-1.11385 0.08528,-0.27041 0.215699,-0.48884 0.418301,-0.70058 0.254553,-0.26604 0.572032,-0.44177 0.915964,-0.50702 0.117508,-0.0223 0.377135,-0.0261 1.794028,-0.0261 h 1.656637 v 0.73145 0.73145 H 28.71005 c -1.440241,0 -1.463685,5.1e-4 -1.557004,0.0355 -0.118254,0.0442 -0.221996,0.12235 -0.288834,0.21747 l -0.05146,0.0732 v 0.49607 0.49608 l 0.04919,0.10651 c 0.05645,0.12223 0.149469,0.21481 0.243179,0.24202 0.04622,0.0134 0.633968,0.0174 2.046562,0.0138 l 1.981714,-0.005 0.09868,-0.0485 c 0.06802,-0.0334 0.112942,-0.07 0.144588,-0.11783 l 0.04591,-0.0694 0.0045,-1.50241 0.0045,-1.50242 h 0.722671 0.722674 v 0.32745 c 0,0.18009 0.0051,0.55135 0.01124,0.825 l 0.01121,0.49756 h 1.502682 1.502682 v -0.82501 -0.825 h 0.765589 0.765585 l -3.86e-4,2.31341 -3.86e-4,2.31342 h -0.765975 c -0.602915,0 -0.76539,-0.005 -0.763218,-0.0213 0.0015,-0.0117 0.0019,-0.33323 7.46e-4,-0.71453 l -0.002,-0.69327 -1.524368,0.004 -1.524367,0.004 -0.03138,0.12355 c -0.01726,0.068 -0.06204,0.18899 -0.09951,0.26895 -0.229189,0.48908 -0.63526,0.8293 -1.172065,0.982 l -0.130561,0.0371 -2.279397,0.003 c -2.183698,0.003 -2.285825,0.002 -2.432491,-0.029 z m 11.133323,-2.27904 v -2.31342 h 0.765469 0.765469 v 2.31342 2.31341 h -0.765469 -0.765469 z m 1.939188,0 v -2.31342 h 0.748459 0.748459 v 0.73145 0.73145 h 0.06785 c 0.05744,0 0.110319,-0.0276 0.344461,-0.18006 0.152134,-0.099 0.659343,-0.42809 1.12713,-0.73124 l 0.85052,-0.55117 1.03622,-1.9e-4 c 0.569918,-1.3e-4 1.033028,0.002 1.02913,0.006 -0.0039,0.003 -0.389823,0.28008 -0.857609,0.61533 -0.467787,0.33525 -0.969169,0.6951 -1.114183,0.79967 -0.145014,0.10458 -0.453656,0.32666 -0.685874,0.49352 -0.434565,0.31227 -0.484681,0.36048 -0.455233,0.43793 0.0092,0.0242 0.124563,0.11911 0.284867,0.23431 0.148157,0.10646 0.48371,0.3475 0.745672,0.53564 0.26196,0.18814 0.72507,0.5209 1.029131,0.73947 0.304061,0.21856 0.665943,0.47823 0.804181,0.57703 l 0.251342,0.17964 -1.166756,0.004 -1.166757,0.004 -0.590008,-0.40315 c -0.324504,-0.22172 -0.761004,-0.52031 -0.97,-0.66352 -0.374971,-0.25694 -0.381205,-0.26038 -0.472038,-0.26038 h -0.09205 v 0.6634 0.66341 H 40.531649 39.78319 Z m 6.429941,0 v -2.31342 H 46.919068 47.625 v 2.31342 2.31341 h -0.705932 -0.705933 z"
         id="path834-3" />
      <g
         style="stroke-width:0.83699167"
         id="g874"
         transform="translate(23.027424,-6.7819643)">
        <path
           id="path834"
           d="m 4.2954218,271.10125 0.00448,-2.36635 0.095248,-0.10849 c 0.052386,-0.0597 0.1032223,-0.10356 0.1129689,-0.0975 0.00978,0.006 0.012691,0.003 0.00649,-0.007 -0.014732,-0.0238 0.1570349,-0.21149 0.1803804,-0.19706 0.010553,0.007 0.012937,0.003 0.00578,-0.009 -0.010163,-0.0164 0.2328678,-0.30198 0.5957752,-0.69998 0.029858,-0.0328 0.1573821,-0.17436 0.2833874,-0.31469 0.1260047,-0.14034 0.2382998,-0.25306 0.249545,-0.25049 0.011245,0.003 0.01553,-0.003 0.00952,-0.013 -0.013963,-0.0226 0.093819,-0.13804 0.1160479,-0.1243 0.00917,0.006 0.011851,0.002 0.00595,-0.007 -0.008,-0.0129 0.3157741,-0.39731 0.4834267,-0.57392 0.00912,-0.01 0.015341,1.43457 0.015341,3.55943 v 3.57559 l -1.0844148,10e-6 H 4.2909334 Z"
           style="fill:#ea2a31;fill-opacity:1;stroke-width:0.83699167" />
        <path
           style="fill:#282425;fill-opacity:1;stroke-width:0.83699167"
           d="m 6.6979079,271.10312 v -2.36445 h 0.559116 c 0.725015,0 0.872758,0.0248 1.235203,0.20693 0.436586,0.21945 0.735229,0.57443 0.913535,1.08586 l 0.05634,0.1616 0.0047,1.63725 0.0047,1.63726 h -1.386757 -1.386761 z"
           id="path834-3-6" />
      </g>
    </g>
  </g>
</svg>
