<?xml version="1.0" encoding="UTF-8" standalone="no"?>
<!DOCTYPE svg PUBLIC "-//W3C//DTD SVG 1.1//EN" "http://www.w3.org/Graphics/SVG/1.1/DTD/svg11.dtd">
<svg width="100%" height="100%" viewBox="0 0 300 100" version="1.1" xmlns="http://www.w3.org/2000/svg" xmlns:xlink="http://www.w3.org/1999/xlink" xml:space="preserve" xmlns:serif="http://www.serif.com/" style="fill-rule:evenodd;clip-rule:evenodd;stroke-linejoin:round;stroke-miterlimit:1.41421;">
    <path d="M164,84L154,84C150.678,82.751 148.729,80.879 149,78L152,78C152.265,79.674 153.381,80.567 155,81L162,81L162,75L155,75C151.926,74.73 149.769,73.269 149,70L149,58C149.504,55.064 151.285,53.522 154,53L169,53L169,79C168.121,81.685 166.533,83.453 164,84ZM281,83L274,83L274,53L288,53C291.189,53.383 293.227,55.009 294,58L294,71C293.152,74.122 291.121,75.749 288,76L281,76L281,83ZM19,45L34,45L34,14.61L50,14.61L50,83L34,83L34,53L19,53L19,83L4,83L4,14.61L19,14.61L19,45ZM80,75L95,75L95,14.61L110,14.61L110,75L117,75L125,67L125,14.61L140,14.61L140,64L121,83L64,83L64,14.61L80,14.61L80,75ZM186,76L179,76L179,53L186,53L186,56C188.262,53.839 191.011,53.076 194,53L196,53L196,56L194,56C190.996,56.177 188.364,57.63 186,60L186,76ZM221,76L211,76C208.32,75.095 207.146,73.339 207,71L207,58C207.499,55.397 209.076,53.658 212,53L221,53C223.737,53.733 225.576,55.25 226,58L226,72C225.343,74.071 223.721,75.436 221,76ZM247,73L253,73L253,53L260,53L260,76L246,76C242.918,75.648 240.888,74.342 240,72L240,53L247,53L247,73ZM287,56L281,56L281,73L287,73L287,56ZM220,56L213,56L213,73L220,73L220,56ZM162,56L156,56L156,72L162,72L162,56ZM293,14.61L293,44L149,44L149,14.61L293,14.61Z" style="fill:rgb(112,112,112);"/>
</svg>
