<?xml version="1.0" encoding="UTF-8" standalone="no"?>
<!DOCTYPE svg PUBLIC "-//W3C//DTD SVG 1.1//EN" "http://www.w3.org/Graphics/SVG/1.1/DTD/svg11.dtd">
<svg width="100%" height="100%" viewBox="0 0 300 100" version="1.1" xmlns="http://www.w3.org/2000/svg" xmlns:xlink="http://www.w3.org/1999/xlink" xml:space="preserve" xmlns:serif="http://www.serif.com/" style="fill-rule:evenodd;clip-rule:evenodd;stroke-linejoin:round;stroke-miterlimit:1.41421;">
    <path d="M112.443,42.182C108.352,42.222 109.761,35.279 117.123,34.943L171.856,34.943C179.951,34.543 183.929,37.957 182.692,46.206C180.856,52.023 178.448,57.725 175.278,63.275C170.736,68.349 165.432,71.413 159.096,71.749L131.71,71.749C129.296,71.613 127.656,72.517 126.79,74.46L121.369,87.789C120.15,90.985 118.324,92.897 115.613,92.932L100.572,92.932C97.964,92.732 97.495,90.868 98.59,87.789L112.443,53.154C113.135,50.797 114.982,49.347 118.518,49.222L131.71,49.222C134.872,49.456 135.735,51.19 134.297,54.425L132.594,58.646C131.573,61.529 131.718,63.7 134.836,64.053L150,64.053C152.302,63.652 153.878,62.291 154.814,60.086L159.857,47.205C161.414,43.985 160.085,42.359 156.129,42.182L112.443,42.182ZM75.568,31.356C74.47,33.855 72.526,34.714 70.284,34.943C64.937,35.488 62.285,40.91 65.936,41.756C69.007,42.468 70.822,44.578 68.9,47.879C67.435,50.395 65.816,55.57 64.644,59.174C62.639,65.338 64.982,70.582 68.9,70.621C71.876,70.651 74.984,71.952 77.759,71.721C81.339,71.424 83.849,68.244 84.579,64.841C85.605,60.06 89.857,49.936 92.187,46.181C93.498,44.069 96.35,42.433 98.56,42.311C104.848,41.962 105.526,34.02 99.262,34.943C97.988,35.13 96.642,34.406 96.983,32.493C97.282,30.817 93.507,28.794 91.2,28.671C87.631,28.481 79.991,27.61 75.568,31.356ZM227.924,13.22C230.503,13.233 230.94,14.666 229.601,17.277L224.881,30.248C224.16,33.14 224.645,34.781 226.586,34.911L233.408,34.911C238.724,35.228 237.124,41.872 230.764,42.243L223.831,42.243C221.545,42.324 219.909,43.99 218.538,46.297L213.72,59.348C212.531,61.897 213.116,63.379 215.261,63.922C216.57,63.945 217.776,64.261 218.538,65.826C218.558,68.571 216.735,70.345 213.07,71.148C207.211,71.792 201.367,71.58 195.535,70.58C191.12,68.95 189.548,65.252 191.008,59.348L196.33,45.692C196.855,43.679 195.888,42.615 193.83,42.243C192.166,42.365 190.956,41.788 191.008,39.259C191.628,36.57 193.592,34.875 197.9,34.911C200.045,34.503 201.554,32.83 202.606,30.248L207.921,17.277C208.845,14.826 210.51,13.403 213.07,13.22L227.924,13.22ZM93.705,5.229C99.358,5.229 103.947,9.818 103.947,15.471C103.947,21.124 99.358,25.713 93.705,25.713C88.052,25.713 83.463,21.124 83.463,15.471C83.463,9.818 88.052,5.229 93.705,5.229Z" style="fill:rgb(112,112,112);"/>
</svg>
