<?xml version="1.0" encoding="UTF-8" standalone="no"?>
<!DOCTYPE svg PUBLIC "-//W3C//DTD SVG 1.1//EN" "http://www.w3.org/Graphics/SVG/1.1/DTD/svg11.dtd">
<svg width="100%" height="100%" viewBox="0 0 300 100" version="1.1" xmlns="http://www.w3.org/2000/svg" xmlns:xlink="http://www.w3.org/1999/xlink" xml:space="preserve" xmlns:serif="http://www.serif.com/" style="fill-rule:evenodd;clip-rule:evenodd;stroke-linejoin:round;stroke-miterlimit:1.41421;">
    <path d="M266,64L245,64L245,61L264,61L265,59L265,58L247,58L244,55L244,44L248,41L265,41L268,44L268,60L266,64ZM296,41L296,44L276,44L275,45L275,47L276,48L293,48L296,50L296,56L294,58L273,58L273,55L292,55L294,54L294,52L292,51L275,51L273,48L273,44L275,41L296,41ZM8,37L8,58L4,58L4,37L8,37ZM152,41L152,44L133,44L131,46L131,53L133,55L152,55L152,58L131,58L128,55L128,44L131,41L152,41ZM97,58L78,58L75,56L75,50L78,47L95,47L96,46L95,45L75,45L75,41L96,41L100,44L100,55L97,58ZM237,58L218,58L215,55L215,44L219,41L236,41L240,44L240,55L237,58ZM107,37L107,41L125,41L125,44L107,44L107,53L109,55L125,55L125,58L107,58L104,55L104,37L107,37ZM159,37L159,41L177,41L180,45L180,58L177,58L177,46L176,44L159,44L159,58L156,58L156,37L159,37ZM208,58L185,58L185,37L208,37L211,41L211,54L208,58ZM37,37L37,40L27,40L27,58L23,58L23,40L11,40L11,37L37,37ZM44,37L44,53L45,54L53,54L53,37L58,37L58,54L66,54L67,53L67,37L71,37L71,54L67,58L44,58L40,54L40,37L44,37ZM95,50L80,50L78,51L78,54L80,55L95,55L97,54L97,51L95,50ZM235,44L220,44L218,46L218,53L220,55L235,55L237,53L237,46L235,44ZM206,40L188,40L188,55L206,55L208,53L208,42L206,40ZM264,44L249,44L247,46L247,53L249,55L264,55L266,53L266,46L264,44Z" style="fill:rgb(112,112,112);"/>
</svg>
