<?xml version="1.0" encoding="UTF-8" standalone="no"?><!DOCTYPE svg PUBLIC "-//W3C//DTD SVG 1.1//EN" "http://www.w3.org/Graphics/SVG/1.1/DTD/svg11.dtd"><svg width="100%" height="100%" viewBox="0 0 300 100" version="1.1" xmlns="http://www.w3.org/2000/svg" xmlns:xlink="http://www.w3.org/1999/xlink" xml:space="preserve" xmlns:serif="http://www.serif.com/" style="fill-rule:evenodd;clip-rule:evenodd;stroke-linejoin:round;stroke-miterlimit:1.41421;"><path d="M20.281,60.31c2.642,0.066 3.986,-1.436 3.969,-4.584l0,-23.665c-0.129,-2.432 -0.578,-3.99 -1.142,-5.235l17.835,0c-0.793,1.3 -1.292,2.796 -1.435,4.529l0,25.69c0.288,7.408 -4.813,9.786 -12.365,9.879l-20.273,0l-1.457,-7.675c1.268,0.498 2.615,0.927 4.296,1.061l10.572,0Zm175.266,6.547l-17.872,0c0.878,-1.55 1.348,-3.217 1.624,-4.942l0,-19.297c-0.297,-1.811 -0.787,-3.511 -1.624,-5.012l14.431,0c0.751,1.433 0.849,3.173 0.738,5.012c0.773,-3.26 3.066,-4.956 6.949,-5.012l8.009,0l0,9.42c-4.625,-1.4 -9.043,-1.999 -12.794,0c-0.499,0.386 -0.891,1.201 -1.009,3.106l0,11.783c0.012,2.144 0.627,3.693 1.548,4.942Zm58.279,-23.487l-4.147,1.04l1.149,-6.936l27.954,0c6.692,0.656 9.283,4.183 9.068,9.673l0,15.776c0.052,1.621 0.565,2.927 1.518,3.934l-14.92,0c-0.352,-0.924 -0.62,-2.02 -0.856,-3.182c-1.013,2.512 -2.66,3.178 -4.536,3.182l-15.23,0c-3.65,-0.681 -5.414,-3.226 -5.578,-7.354l0,-5.641c0.324,-4.727 3.241,-6.553 7.645,-6.715l15.182,0c2.694,-0.137 2.298,-3.796 0,-3.777l-17.249,0Zm-116.315,0l-4.147,1.04l1.149,-6.936l27.954,0c6.693,0.656 9.283,4.183 9.068,9.673l0,15.776c0.053,1.621 0.566,2.927 1.518,3.934l-14.919,0c-0.353,-0.924 -0.621,-2.02 -0.857,-3.182c-1.012,2.512 -2.66,3.178 -4.536,3.182l-15.23,0c-3.649,-0.681 -5.414,-3.226 -5.578,-7.354l0,-5.641c0.325,-4.727 3.241,-6.553 7.645,-6.715l15.182,0c2.695,-0.137 2.298,-3.796 0,-3.777l-17.249,0Zm-85.093,0l-4.147,1.04l1.149,-6.936l27.954,0c6.693,0.656 9.284,4.183 9.068,9.673l0,15.776c0.053,1.621 0.566,2.927 1.518,3.934l-14.919,0c-0.352,-0.924 -0.621,-2.02 -0.856,-3.182c-1.013,2.512 -2.661,3.178 -4.536,3.182l-15.231,0c-3.649,-0.681 -5.413,-3.226 -5.578,-7.354l0,-5.641c0.325,-4.727 3.242,-6.553 7.645,-6.715l15.183,0c2.694,-0.137 2.297,-3.796 0,-3.777l-17.25,0Zm163.681,-5.779l0,-6.17l14.709,-0.506l0,6.676l11.573,0l0,5.875l-11.573,0l0,15.232c-0.09,1.685 0.608,2.555 1.973,2.735l6.54,0c1.924,-0.18 3.64,-0.614 5.139,-1.312l-1.107,6.645l-19.336,0c-5.489,-0.049 -8.056,-3.071 -7.918,-8.845l0,-14.455l-6.545,0l0,-5.875l6.545,0Zm-90.954,-0.117l1.468,6.936c-1.763,-0.764 -3.639,-1.18 -5.672,-1.114l-10.429,0c-1.558,0.076 -2.626,0.827 -2.865,2.719l0,12.401c0.233,1.923 1.273,2.743 2.865,2.808l10.429,0c1.815,-0.108 3.524,-0.538 5.096,-1.385l-0.892,6.92l-24.133,0c-5.056,0.078 -7.722,-2.457 -8.096,-7.501l0,-13.801c0.182,-5.114 2.949,-7.709 8.096,-7.983l24.133,0Zm141.086,15.332c-1.958,-0.049 -2.997,0.523 -3.071,1.747l0,4.738c-0.023,1.032 0.529,1.75 1.88,2.031l5.153,0c1.737,-0.026 2.618,-0.938 2.645,-2.736l0,-5.78l-6.607,0Zm-116.315,0c-1.958,-0.049 -2.997,0.523 -3.071,1.747l0,4.738c-0.022,1.032 0.529,1.75 1.88,2.031l5.153,0c1.737,-0.026 2.618,-0.938 2.645,-2.736l0,-5.78l-6.607,0Zm-85.092,0c-1.959,-0.049 -2.997,0.523 -3.072,1.747l0,4.738c-0.022,1.032 0.529,1.75 1.88,2.031l5.153,0c1.737,-0.026 2.619,-0.938 2.645,-2.736l0,-5.78l-6.606,0Z" style="fill:#757575;"/></svg>