<?xml version="1.0" encoding="UTF-8" standalone="no"?>
<svg
   xmlns:dc="http://purl.org/dc/elements/1.1/"
   xmlns:cc="http://creativecommons.org/ns#"
   xmlns:rdf="http://www.w3.org/1999/02/22-rdf-syntax-ns#"
   xmlns:svg="http://www.w3.org/2000/svg"
   xmlns="http://www.w3.org/2000/svg"
   id="svg4"
   style="fill-rule:evenodd;clip-rule:evenodd;stroke-linejoin:round;stroke-miterlimit:1.41421;"
   xml:space="preserve"
   version="1.1"
   viewBox="0 0 300 100"
   height="100%"
   width="100%"><metadata
   id="metadata10"><rdf:RDF><cc:Work
       rdf:about=""><dc:format>image/svg+xml</dc:format><dc:type
         rdf:resource="http://purl.org/dc/dcmitype/StillImage" /><dc:title></dc:title></cc:Work></rdf:RDF></metadata><defs
   id="defs8" />
    
<path
   id="path828"
   d="M 63.990467,74.550526 C 57.433012,73.376483 54.97733,69.685855 56.37393,63.103661 c 0.74657,-3.518609 2.909481,-6.536543 5.729947,-7.995064 3.201099,-1.655353 12.861685,-2.473943 19.113543,-1.619586 1.722233,0.235354 3.191842,0.367414 3.265782,0.293469 0.07395,-0.07394 0.303651,-1.224947 0.51044,-2.557783 0.688932,-4.440211 -0.286704,-5.162581 -6.620117,-4.901635 -4.464915,0.183962 -5.443741,0.673025 -5.965735,2.98072 l -0.325301,1.438137 H 66.06179 60.041092 l 0.225433,-1.409767 c 0.299493,-1.87291 1.639147,-4.457114 3.033322,-5.85129 1.518137,-1.518135 4.647196,-2.948772 7.654009,-3.49949 3.914337,-0.716935 16.391756,-0.620131 19.217274,0.149097 2.846275,0.774881 4.77207,2.108753 5.870229,4.065936 1.331162,2.372447 1.163422,6.229109 -0.802824,18.45863 -0.885515,5.507658 -1.691649,10.363543 -1.791406,10.79086 -0.178778,0.765748 -0.260961,0.776942 -5.699732,0.776942 h -5.518344 v -1.245521 c 0,-1.044938 -0.09731,-1.207921 -0.604287,-1.012048 -6.005153,2.32014 -13.213035,3.376843 -17.634299,2.585258 z m 14.14869,-7.384104 c 4.34454,-0.77484 4.502857,-0.910419 5.028797,-4.30634 0.247259,-1.596504 0.385595,-2.966688 0.307423,-3.044862 -0.07819,-0.07817 -1.67922,-0.286757 -3.557889,-0.463527 -3.5884,-0.337638 -7.712855,-0.02006 -9.052795,0.697055 -2.040029,1.091787 -2.853106,5.070342 -1.325703,6.486859 1.274437,1.181918 4.275783,1.402058 8.600167,0.630815 z m 177.779663,7.290424 c -2.91872,-0.567332 -4.54093,-1.37945 -6.01527,-3.011359 -1.41385,-1.564977 -1.72213,-2.887011 -1.51353,-6.490652 0.25621,-4.425743 2.13662,-7.710786 5.44429,-9.511044 3.74766,-2.03974 13.25069,-2.930876 20.21261,-1.895419 1.43961,0.214116 2.69524,0.311537 2.79028,0.216492 0.095,-0.09505 0.26341,-1.474492 0.37416,-3.065435 0.18708,-2.687664 0.14684,-2.941559 -0.56793,-3.583241 -0.68473,-0.614705 -1.25591,-0.690615 -5.1967,-0.690615 -5.13471,0 -6.03316,0.378143 -6.84166,2.879552 l -0.46441,1.436794 h -5.97897 -5.97897 l 0.42795,-1.812865 c 0.87133,-3.691152 2.44181,-5.733026 5.6385,-7.330965 2.68848,-1.343893 5.80541,-1.880722 12.34522,-2.126204 11.34579,-0.425882 16.04958,1.030767 17.99454,5.572458 0.95334,2.226167 0.70009,5.946387 -1.21406,17.834042 -0.96778,6.010334 -1.7596,11.021613 -1.7596,11.136169 0,0.114556 -2.57095,0.208283 -5.71322,0.208283 h -5.71322 l 0.22673,-1.208575 c 0.1247,-0.664719 0.13749,-1.208574 0.0284,-1.208574 -0.10907,0 -0.94608,0.294744 -1.86004,0.655 -4.60043,1.813314 -12.64721,2.777166 -16.66514,1.996158 z m 14.1576,-7.277746 c 4.52238,-0.739987 4.71436,-0.880471 5.1816,-3.791768 0.21705,-1.35236 0.46744,-2.718753 0.55644,-3.036429 0.13237,-0.472537 -0.20204,-0.625984 -1.83853,-0.843639 -3.08647,-0.410512 -8.41856,-0.320559 -9.84476,0.166076 -1.66064,0.566636 -2.87594,2.035141 -3.16135,3.819991 -0.29183,1.825024 0.46226,3.386617 1.7751,3.675903 0.51882,0.114325 1.0987,0.259697 1.28862,0.323051 0.79661,0.265736 3.29677,0.13616 6.04288,-0.313185 z M 19.728362,74.195286 c -3.051081,-0.452213 -6.22474,-2.039678 -7.361551,-3.682255 -1.682788,-2.431442 -1.898991,-5.14281 -0.881309,-11.052093 l 0.37168,-2.158173 h 5.69453 5.694531 l -0.233824,1.700163 c -0.355877,2.587484 -0.280286,4.837262 0.181202,5.393326 0.72125,0.869055 2.871493,1.271164 6.118372,1.144178 3.458851,-0.135274 4.658639,-0.681694 5.566559,-2.535182 0.261043,-0.532902 1.698896,-8.599126 3.195235,-17.924947 1.49633,-9.325822 2.800753,-17.305661 2.898712,-17.732979 0.176103,-0.768224 0.243902,-0.776942 6.041749,-0.776942 3.225008,0 5.863654,0.07171 5.863654,0.159345 0,1.0089 -5.669967,35.04315 -6.071301,36.443264 -0.742909,2.591768 -2.639144,5.909083 -4.121929,7.210979 -1.649252,1.44807 -4.181576,2.693278 -6.806557,3.346969 -2.627784,0.654383 -12.878918,0.949127 -16.149753,0.464347 z m 161.586918,-0.09744 c -2.27923,-0.614706 -3.96891,-1.780322 -4.64447,-3.203967 -1.06632,-2.247122 -1.00714,-4.628782 0.32489,-13.07315 0.68905,-4.368142 1.34623,-8.602478 1.46043,-9.409634 l 0.20764,-1.467558 h -2.48736 c -2.20637,0 -2.4673,-0.06827 -2.30978,-0.604288 0.0977,-0.332359 0.35911,-1.886243 0.58096,-3.453077 l 0.40337,-2.848788 h 2.51973 2.51973 l 0.42619,-3.118616 c 0.23439,-1.715236 0.59767,-3.230273 0.80728,-3.366749 0.77196,-0.502599 11.94895,-2.373052 11.94664,-1.999249 -9.2e-4,0.203434 -0.31101,2.156851 -0.68833,4.340922 -0.37732,2.18407 -0.68706,4.009886 -0.68833,4.057365 -0.002,0.04748 3.33856,0.08632 7.42183,0.08632 h 7.42411 l -0.0263,0.776942 c -0.0145,0.427318 -0.21358,1.942356 -0.4425,3.366749 l -0.41622,2.589808 -7.47359,0.09299 -7.47359,0.09299 -0.19125,0.942932 c -0.55396,2.731301 -2.62318,16.547327 -2.62318,17.514683 0,1.647805 0.6504,2.007213 3.32427,1.836956 2.74074,-0.174527 3.39357,-0.763259 3.75425,-3.385704 l 0.23775,-1.72866 h 5.62301 5.623 l -0.48066,2.293031 c -1.11117,5.300979 -4.12247,8.342923 -9.51813,9.61499 -2.7199,0.641244 -12.82883,0.676457 -15.14141,0.05274 z m -77.33184,-0.49235 c 0,-0.339537 1.16464,-7.914729 2.58811,-16.833746 1.42346,-8.919025 2.58887,-16.332946 2.5898,-16.475385 9.2e-4,-0.142439 2.48791,-0.258981 5.52662,-0.258981 h 5.52492 v 1.535743 1.535742 l 2.15818,-1.009877 c 7.35206,-3.440263 16.57301,-3.535209 20.2341,-0.208352 2.87292,2.610644 2.97639,5.983233 0.6318,20.591743 -0.8992,5.602621 -1.71108,10.536198 -1.80418,10.963515 -0.16762,0.769271 -0.22835,0.776942 -6.14416,0.776942 h -5.97488 l 1.65574,-10.272904 c 0.91066,-5.650092 1.65995,-11.21699 1.66511,-12.370881 0.008,-1.816118 -0.11046,-2.21045 -0.88259,-2.935116 -0.81002,-0.760222 -1.18279,-0.837132 -4.05737,-0.837132 -4.04863,0 -7.7552,0.938184 -7.99935,2.02475 -0.0912,0.405739 -0.94597,5.710142 -1.89955,11.787552 -0.95358,6.077424 -1.81282,11.399472 -1.9094,11.826789 -0.17366,0.768321 -0.24067,0.776942 -6.03925,0.776942 -5.40148,0 -5.86365,-0.04868 -5.86365,-0.617344 z m 47.99776,0.06399 c 0,-0.304343 1.16541,-7.928099 2.58981,-16.941674 1.42439,-9.013569 2.58981,-16.456289 2.58981,-16.53937 0,-0.08309 2.72226,-0.151059 6.04946,-0.151059 h 6.04946 l -0.17854,0.776943 c -0.0982,0.427318 -1.26601,7.769422 -2.59512,16.315787 -1.32911,8.546361 -2.49778,15.888467 -2.59707,16.315784 -0.17845,0.768137 -0.24702,0.776942 -6.04416,0.776942 -5.14862,0 -5.86365,-0.06749 -5.86365,-0.553353 z m 56.99724,-0.223589 c 0.0118,-0.427317 0.28372,-2.281377 0.60428,-4.120131 l 0.58283,-3.343197 9.6601,-8.742572 9.66011,-8.742576 -7.7222,-0.09306 -7.72221,-0.09306 0.19073,-1.806132 c 0.1049,-0.993371 0.37537,-2.855003 0.60102,-4.136958 l 0.41031,-2.330827 h 14.99201 14.99201 l -0.17514,0.776943 c -0.0963,0.427318 -0.40347,2.253132 -0.68254,4.057365 -0.4866,3.145887 -0.56412,3.329988 -1.89021,4.488999 -0.76054,0.664718 -5.1087,4.627123 -9.66259,8.805346 l -8.27978,7.59677 8.81081,0.09221 8.81081,0.09221 -0.17989,0.943714 c -0.099,0.519043 -0.35534,2.109128 -0.56976,3.533519 -0.21442,1.424391 -0.46648,2.861737 -0.56013,3.194092 -0.159,0.56427 -1.22062,0.604287 -16.03116,0.604287 h -15.86088 l 0.0215,-0.776942 z m -50.7806,-39.365071 c 7e-4,-0.2374 0.23473,-1.830132 0.52027,-3.539405 0.28554,-1.709273 0.60286,-3.612781 0.70516,-4.230018 l 0.186,-1.12225 h 6.06417 c 4.70828,0 6.02766,0.09651 5.90081,0.431634 -0.0899,0.237399 -0.45223,2.335143 -0.80528,4.661654 l -0.64191,4.230019 h -5.96516 c -4.5425,0 -5.96489,-0.102943 -5.96406,-0.431634 z"
   style="fill:#707070;fill-opacity:1;stroke-width:0.99999994" /></svg>