<?xml version="1.0" encoding="UTF-8" standalone="no"?>
<!DOCTYPE svg PUBLIC "-//W3C//DTD SVG 1.1//EN" "http://www.w3.org/Graphics/SVG/1.1/DTD/svg11.dtd">
<svg width="100%" height="100%" viewBox="0 0 300 100" version="1.1" xmlns="http://www.w3.org/2000/svg" xmlns:xlink="http://www.w3.org/1999/xlink" xml:space="preserve" xmlns:serif="http://www.serif.com/" style="fill-rule:evenodd;clip-rule:evenodd;stroke-linejoin:round;stroke-miterlimit:1.41421;">
    <path d="M196.018,59.238L197.728,59.238L197.728,62.018C199.152,60.062 201.336,58.809 203.783,58.809C208.069,58.809 211.548,62.652 211.548,67.386C211.548,72.119 208.069,75.962 203.783,75.962C201.336,75.962 199.152,74.709 197.728,72.753L197.728,84.825L196.018,84.825L196.018,59.238ZM26.77,76.707L3.676,76.707L3.676,52.988L26.77,52.988L26.77,76.707ZM12.037,73.192C12.835,73.192 13.482,73.839 13.482,74.637C13.482,75.435 12.835,76.083 12.037,76.083C11.239,76.083 10.591,75.435 10.591,74.637C10.591,73.839 11.239,73.192 12.037,73.192ZM247.584,50L247.584,62.072C249.008,60.116 251.192,58.863 253.639,58.863C257.925,58.863 261.404,62.706 261.404,67.44C261.404,72.173 257.925,76.016 253.639,76.016C251.192,76.016 249.008,74.763 247.584,72.807L247.584,75.587L245.874,75.587L245.874,50L247.584,50ZM122.658,67.6C122.658,67.605 122.889,74.818 129.011,74.507C133.06,74.3 134.857,70.789 134.857,70.789L136.054,71.61C136.054,71.61 133.736,75.945 129.011,75.962C126.43,75.971 121.095,73.998 121.095,67.6C121.095,61.999 123.757,59.238 129.011,59.238C137.08,59.238 136.496,67.594 136.496,67.6L122.658,67.6ZM282.477,67.6C282.477,67.605 282.708,74.818 288.83,74.507C292.879,74.3 294.676,70.789 294.676,70.789L295.873,71.61C295.873,71.61 293.555,75.945 288.83,75.962C286.249,75.971 280.914,73.998 280.914,67.6C280.914,61.999 283.576,59.238 288.83,59.238C296.899,59.238 296.315,67.594 296.315,67.6L282.477,67.6ZM77.51,75.962L75.745,75.962L75.745,59.238L77.51,59.238L77.51,75.962ZM110.55,60.71L108.8,60.71L108.8,59.238L110.55,59.238L110.55,52.476L112.16,52.476L112.16,59.238L114.906,59.238L114.906,60.71L112.16,60.71L112.16,75.962L110.55,75.962L110.55,60.71ZM220.597,60.71L218.848,60.71L218.848,59.238L220.597,59.238L220.597,52.476L222.207,52.476L222.207,59.238L224.954,59.238L224.954,60.71L222.207,60.71L222.207,75.962L220.597,75.962L220.597,60.71ZM161.633,75.962L159.956,75.962L159.956,59.238L161.633,59.238L161.633,61.031C163.102,58.819 164.835,58.337 166.779,59.238L166.006,60.592C163.47,59.768 162.161,61.258 161.633,64.219L161.633,75.962ZM54.835,75.962L53.316,75.962L53.316,63.475C53.316,63.35 53.316,59.238 53.316,59.238L54.835,59.238L54.835,60.459C57.901,58.126 64.547,59.138 64.63,63.475L64.63,75.962L63.12,75.962L63.12,64.58C63.063,59.692 54.926,59.047 54.835,64.58L54.835,75.962ZM146.981,75.962L145.304,75.962L145.304,59.238L146.981,59.238L146.981,61.031C148.45,58.819 150.183,58.337 152.127,59.238L151.354,60.592C148.818,59.768 147.509,61.258 146.981,64.219L146.981,75.962ZM89.878,75.962L88.359,75.962L88.359,63.475C88.359,63.35 88.359,59.238 88.359,59.238L89.878,59.238L89.878,60.459C92.944,58.126 99.59,59.138 99.673,63.475L99.673,75.962L98.163,75.962L98.163,64.58C98.106,59.692 89.969,59.047 89.878,64.58L89.878,75.962ZM234.923,75.962L233.159,75.962L233.159,59.238L234.923,59.238L234.923,75.962ZM270.324,52.476L272.028,52.476L272.028,75.962L270.324,75.962L270.324,52.476ZM31.646,59.238L33.165,59.238L33.165,70.62C33.256,76.153 41.393,75.508 41.45,70.62L41.45,59.238L42.96,59.238L42.96,71.725C42.852,77.368 31.636,77.381 31.646,71.725L31.646,59.238ZM174.403,59.238L175.922,59.238L175.922,70.62C176.013,76.153 184.151,75.508 184.207,70.62L184.207,59.238L185.717,59.238L185.717,71.725C185.609,77.368 174.393,77.381 174.403,71.725L174.403,59.238ZM247.584,65.148C248.441,62.333 250.831,60.305 253.642,60.305C257.172,60.305 260.037,63.502 260.037,67.44C260.037,71.378 257.172,74.575 253.642,74.575C250.831,74.575 248.441,72.547 247.584,69.732C247.212,68.206 247.222,66.678 247.584,65.148ZM197.728,69.677C198.585,72.492 200.975,74.52 203.786,74.52C207.316,74.52 210.181,71.323 210.181,67.385C210.181,63.447 207.316,60.25 203.786,60.25C200.975,60.25 198.585,62.278 197.728,65.093C197.356,66.619 197.366,68.147 197.728,69.677ZM10.448,70.725C11.064,70.725 11.563,71.225 11.563,71.84C11.563,72.456 11.064,72.955 10.448,72.955C9.833,72.955 9.333,72.456 9.333,71.84C9.333,71.225 9.833,70.725 10.448,70.725ZM13.918,70.725C14.534,70.725 15.034,71.225 15.034,71.84C15.034,72.456 14.534,72.955 13.918,72.955C13.303,72.955 12.803,72.456 12.803,71.84C12.803,71.225 13.303,70.725 13.918,70.725ZM11.894,67.694C12.692,67.694 13.339,68.342 13.339,69.139C13.339,69.937 12.692,70.585 11.894,70.585C11.096,70.585 10.448,69.937 10.448,69.139C10.448,68.342 11.096,67.694 11.894,67.694ZM15.731,68.222C16.347,68.222 16.846,68.722 16.846,69.337C16.846,69.953 16.347,70.453 15.731,70.453C15.116,70.453 14.616,69.953 14.616,69.337C14.616,68.722 15.116,68.222 15.731,68.222ZM8.695,68.222C9.196,68.222 9.602,68.628 9.602,69.129C9.602,69.629 9.196,70.035 8.695,70.035C8.195,70.035 7.789,69.629 7.789,69.129C7.789,68.628 8.195,68.222 8.695,68.222ZM13.918,66.124C14.419,66.124 14.825,66.53 14.825,67.03C14.825,67.53 14.419,67.936 13.918,67.936C13.418,67.936 13.012,67.53 13.012,67.03C13.012,66.53 13.418,66.124 13.918,66.124ZM17.622,65.966C18.166,65.966 18.607,66.408 18.607,66.951C18.607,67.495 18.166,67.936 17.622,67.936C17.079,67.936 16.637,67.495 16.637,66.951C16.637,66.408 17.079,65.966 17.622,65.966ZM10.102,65.463C10.717,65.463 11.217,65.963 11.217,66.579C11.217,67.194 10.717,67.694 10.102,67.694C9.486,67.694 8.986,67.194 8.986,66.579C8.986,65.963 9.486,65.463 10.102,65.463ZM7.375,66.458C7.704,66.458 7.971,66.725 7.971,67.054C7.971,67.383 7.704,67.65 7.375,67.65C7.046,67.65 6.779,67.383 6.779,67.054C6.779,66.725 7.046,66.458 7.375,66.458ZM122.632,65.932L134.887,65.932C134.887,65.932 134.027,60.346 128.8,60.346C123.573,60.346 122.632,65.932 122.632,65.932ZM282.451,65.932L294.706,65.932C294.706,65.932 293.846,60.346 288.619,60.346C283.392,60.346 282.451,65.932 282.451,65.932ZM15.731,63.941C16.231,63.941 16.637,64.347 16.637,64.848C16.637,65.348 16.231,65.754 15.731,65.754C15.231,65.754 14.825,65.348 14.825,64.848C14.825,64.347 15.231,63.941 15.731,63.941ZM11.904,63.724C12.404,63.724 12.81,64.13 12.81,64.631C12.81,65.131 12.404,65.537 11.904,65.537C11.403,65.537 10.997,65.131 10.997,64.631C10.997,64.13 11.403,63.724 11.904,63.724ZM6.437,64.252C6.766,64.252 7.033,64.519 7.033,64.848C7.033,65.177 6.766,65.444 6.437,65.444C6.108,65.444 5.841,65.177 5.841,64.848C5.841,64.519 6.108,64.252 6.437,64.252ZM19.365,63.76C19.782,63.76 20.122,64.099 20.122,64.517C20.122,64.935 19.782,65.274 19.365,65.274C18.947,65.274 18.607,64.935 18.607,64.517C18.607,64.099 18.947,63.76 19.365,63.76ZM8.545,63.331C9.046,63.331 9.452,63.737 9.452,64.237C9.452,64.737 9.046,65.143 8.545,65.143C8.045,65.143 7.639,64.737 7.639,64.237C7.639,63.737 8.045,63.331 8.545,63.331ZM10.119,62.21C10.537,62.21 10.876,62.549 10.876,62.967C10.876,63.385 10.537,63.724 10.119,63.724C9.701,63.724 9.362,63.385 9.362,62.967C9.362,62.549 9.701,62.21 10.119,62.21ZM5.46,62.532C5.789,62.532 6.056,62.799 6.056,63.128C6.056,63.457 5.789,63.724 5.46,63.724C5.131,63.724 4.864,63.457 4.864,63.128C4.864,62.799 5.131,62.532 5.46,62.532ZM17.622,61.993C18.04,61.993 18.379,62.332 18.379,62.75C18.379,63.167 18.04,63.507 17.622,63.507C17.205,63.507 16.865,63.167 16.865,62.75C16.865,62.332 17.205,61.993 17.622,61.993ZM20.718,61.993C21.047,61.993 21.314,62.26 21.314,62.589C21.314,62.918 21.047,63.185 20.718,63.185C20.389,63.185 20.122,62.918 20.122,62.589C20.122,62.26 20.389,61.993 20.718,61.993ZM7.255,61.34C7.65,61.34 7.971,61.661 7.971,62.057C7.971,62.452 7.65,62.773 7.255,62.773C6.859,62.773 6.538,62.452 6.538,62.057C6.538,61.661 6.859,61.34 7.255,61.34ZM8.766,60.792C9.095,60.792 9.362,61.059 9.362,61.388C9.362,61.717 9.095,61.984 8.766,61.984C8.437,61.984 8.17,61.717 8.17,61.388C8.17,61.059 8.437,60.792 8.766,60.792ZM18.975,60.498C19.304,60.498 19.572,60.765 19.572,61.094C19.572,61.423 19.304,61.69 18.975,61.69C18.647,61.69 18.379,61.423 18.379,61.094C18.379,60.765 18.647,60.498 18.975,60.498ZM21.75,60.342C22.079,60.342 22.346,60.609 22.346,60.938C22.346,61.267 22.079,61.534 21.75,61.534C21.421,61.534 21.154,61.267 21.154,60.938C21.154,60.609 21.421,60.342 21.75,60.342ZM6.162,60.106C6.503,60.106 6.779,60.382 6.779,60.723C6.779,61.063 6.503,61.34 6.162,61.34C5.821,61.34 5.545,61.063 5.545,60.723C5.545,60.382 5.821,60.106 6.162,60.106ZM20.386,59.306C20.715,59.306 20.982,59.573 20.982,59.902C20.982,60.231 20.715,60.498 20.386,60.498C20.057,60.498 19.79,60.231 19.79,59.902C19.79,59.573 20.057,59.306 20.386,59.306ZM22.755,59.08C23.054,59.08 23.296,59.323 23.296,59.622C23.296,59.921 23.054,60.163 22.755,60.163C22.456,60.163 22.213,59.921 22.213,59.622C22.213,59.323 22.456,59.08 22.755,59.08ZM5.197,58.889C5.456,58.889 5.666,59.099 5.666,59.358C5.666,59.617 5.456,59.827 5.197,59.827C4.938,59.827 4.728,59.617 4.728,59.358C4.728,59.099 4.938,58.889 5.197,58.889ZM21.877,57.855C22.136,57.855 22.346,58.066 22.346,58.325C22.346,58.584 22.136,58.794 21.877,58.794C21.618,58.794 21.407,58.584 21.407,58.325C21.407,58.066 21.618,57.855 21.877,57.855ZM23.766,57.598C24.025,57.598 24.235,57.808 24.235,58.068C24.235,58.327 24.025,58.537 23.766,58.537C23.507,58.537 23.296,58.327 23.296,58.068C23.296,57.808 23.507,57.598 23.766,57.598ZM22.827,56.659C23.086,56.659 23.296,56.869 23.296,57.128C23.296,57.388 23.086,57.598 22.827,57.598C22.568,57.598 22.357,57.388 22.357,57.128C22.357,56.869 22.568,56.659 22.827,56.659ZM24.759,56.525C24.961,56.525 25.125,56.689 25.125,56.891C25.125,57.092 24.961,57.256 24.759,57.256C24.557,57.256 24.393,57.092 24.393,56.891C24.393,56.689 24.557,56.525 24.759,56.525ZM24.028,55.794C24.23,55.794 24.393,55.958 24.393,56.16C24.393,56.361 24.23,56.525 24.028,56.525C23.826,56.525 23.662,56.361 23.662,56.16C23.662,55.958 23.826,55.794 24.028,55.794ZM25.688,55.596C25.889,55.596 26.053,55.76 26.053,55.962C26.053,56.164 25.889,56.327 25.688,56.327C25.486,56.327 25.322,56.164 25.322,55.962C25.322,55.76 25.486,55.596 25.688,55.596ZM24.957,54.712C25.158,54.712 25.322,54.876 25.322,55.078C25.322,55.279 25.158,55.443 24.957,55.443C24.755,55.443 24.591,55.279 24.591,55.078C24.591,54.876 24.755,54.712 24.957,54.712ZM234.041,52.476C234.77,52.476 235.362,53.069 235.362,53.8C235.362,54.531 234.77,55.125 234.041,55.125C233.311,55.125 232.719,54.531 232.719,53.8C232.719,53.069 233.311,52.476 234.041,52.476ZM76.627,52.476C77.357,52.476 77.949,53.069 77.949,53.8C77.949,54.531 77.357,55.125 76.627,55.125C75.898,55.125 75.306,54.531 75.306,53.8C75.306,53.069 75.898,52.476 76.627,52.476ZM25.915,53.981C26.117,53.981 26.281,54.145 26.281,54.347C26.281,54.548 26.117,54.712 25.915,54.712C25.714,54.712 25.55,54.548 25.55,54.347C25.55,54.145 25.714,53.981 25.915,53.981ZM208.021,16.626L210.11,16.626L218.758,42.551L230.152,15.175L241.562,42.551L249.874,16.626L252.058,16.626L241.562,49.243L230.152,21.224L218.204,49.243L208.021,16.626ZM158.459,33.095L158.459,48.108L155.729,48.108L155.729,16.626L166.254,16.626C166.254,16.626 176.608,16.324 176.608,24.203C176.608,32.646 166.271,33.094 166.254,33.095L158.459,33.095ZM271.119,48.108L254.391,48.108L254.391,16.626L271.119,16.626L271.119,18.271L256.973,18.271L256.973,30.17L271.119,30.17L271.119,32.367L256.973,32.367L256.973,45.653L271.119,45.653L271.119,48.108ZM107.953,16.626L125.351,16.626L125.351,23.995L116.82,23.995L116.82,28.999L124.544,28.999L124.544,35.982L116.82,35.982L116.82,40.806L125.351,40.806L125.351,48.108L107.953,48.108L107.953,16.626ZM135.504,48.108L127.17,48.108L127.17,16.626L139.338,16.626C139.348,16.628 147.447,19.008 148.202,24.918C149.122,32.114 143.019,35.573 143.019,35.573L151.675,48.108L142.382,48.108L135.504,38.792L135.504,48.108ZM68.888,27.478L77.343,27.478L77.343,16.626L85.891,16.626L85.891,48.108L77.343,48.108L77.343,36.266L68.888,36.266L68.888,48.108L60.194,48.108L60.194,16.626L68.888,16.626L68.888,27.478ZM12.255,26.061L20.223,16.626L31.381,16.626L19.046,31.779L32.976,48.108L21.74,48.108L12.255,37.036L12.255,48.108L3.676,48.108L3.676,16.626L12.255,16.626L12.255,26.061ZM88.113,16.626L96.676,16.626L96.676,39.912L106.017,39.912L106.017,48.108L88.113,48.108L88.113,16.626ZM276.49,48.108L273.853,48.108L273.853,16.626L282.48,16.626C298.55,16.056 299.67,32.91 282.48,33.104L296.939,48.108L293.756,48.108L279.045,33.104L276.49,33.104L276.49,48.108ZM193.601,15.822C202.304,15.822 209.37,23.055 209.37,31.965C209.37,40.875 202.304,48.108 193.601,48.108C184.898,48.108 177.832,40.875 177.832,31.965C177.832,23.055 184.898,15.822 193.601,15.822ZM42.871,15.951C51.738,15.951 58.936,23.156 58.936,32.03C58.936,40.904 51.738,48.108 42.871,48.108C34.005,48.108 26.807,40.904 26.807,32.03C26.807,23.156 34.005,15.951 42.871,15.951ZM193.441,18.117C200.966,18.117 207.076,24.404 207.076,32.148C207.076,39.892 200.966,46.179 193.441,46.179C185.916,46.179 179.806,39.892 179.806,32.148C179.806,24.404 185.916,18.117 193.441,18.117ZM42.739,23.99C46.702,23.99 49.919,27.593 49.919,32.03C49.919,36.467 46.702,40.069 42.739,40.069C38.776,40.069 35.558,36.467 35.558,32.03C35.558,27.593 38.776,23.99 42.739,23.99ZM284.251,18.546L276.49,18.546L276.49,30.915L284.251,30.915C284.251,30.915 291.905,30.067 291.905,24.651C291.905,19.24 284.267,18.548 284.251,18.546ZM165.61,18.423L158.459,18.423L158.459,30.881L165.61,30.881C165.61,30.881 173.881,30.1 173.881,24.649C173.881,19.203 165.627,18.425 165.61,18.423ZM138.507,24.045L135.504,24.045L135.504,29.961L138.507,29.961C141.819,29.329 141.202,24.31 138.507,24.045Z" style="fill:rgb(112,112,112);"/>
</svg>
