<?xml version="1.0" encoding="UTF-8" standalone="no"?>
<svg
   xmlns:dc="http://purl.org/dc/elements/1.1/"
   xmlns:cc="http://creativecommons.org/ns#"
   xmlns:rdf="http://www.w3.org/1999/02/22-rdf-syntax-ns#"
   xmlns:svg="http://www.w3.org/2000/svg"
   xmlns="http://www.w3.org/2000/svg"
   id="svg8"
   version="1.1"
   viewBox="0 0 52.916665 52.916668"
   height="200"
   width="200">
  <defs
     id="defs2" />
  <metadata
     id="metadata5">
    <rdf:RDF>
      <cc:Work
         rdf:about="">
        <dc:format>image/svg+xml</dc:format>
        <dc:type
           rdf:resource="http://purl.org/dc/dcmitype/StillImage" />
        <dc:title></dc:title>
      </cc:Work>
    </rdf:RDF>
  </metadata>
  <g
     transform="translate(0,-244.08332)"
     id="layer1">
    <g
       style="stroke-width:9.36534977"
       transform="matrix(0.10677658,0,0,0.10677658,28.528387,228.9286)"
       id="g871">
      <path
         style="fill:#00aeef;fill-opacity:1;stroke-width:9.36534977"
         d="m -156.83782,458.2384 c -0.43656,-0.0591 -1.86531,-0.2382 -3.175,-0.39794 -5.9682,-0.72792 -13.52311,-2.8515 -19.18229,-5.39186 -2.91619,-1.30906 -8.52079,-4.38318 -9.71014,-5.32601 l -0.6975,-0.55293 2.22726,-3.20839 c 1.22499,-1.76462 2.32978,-3.21244 2.45509,-3.21738 0.12531,-0.005 1.19688,0.57312 2.38125,1.2846 7.64668,4.59347 15.76324,7.39962 24.643,8.51983 3.07722,0.38821 11.00448,0.38621 13.89062,-0.003 8.58865,-1.15969 16.47272,-3.77288 23.17022,-7.67981 1.50945,-0.88052 2.83701,-1.5972 2.95014,-1.59262 0.11313,0.005 1.20425,1.45536 2.42473,3.22393 l 2.21905,3.21559 -0.68633,0.54639 c -1.24909,0.99439 -6.31017,3.67966 -9.55365,5.0689 -5.73974,2.45843 -11.13524,4.00609 -17.53113,5.02867 -2.46125,0.39351 -13.90592,0.74246 -15.82532,0.48252 z m 1.71652,-14.93995 c -5.81841,-0.40945 -12.95429,-2.24985 -18.34493,-4.7313 -2.92772,-1.34772 -7.31638,-3.91501 -7.31638,-4.27998 0,-0.22747 2.82337,-4.41231 3.41837,-5.06675 0.0994,-0.10937 1.4961,0.55168 3.10371,1.46898 4.83988,2.76167 9.90691,4.55511 15.9675,5.65159 3.74959,0.67837 11.3137,0.61642 15.39285,-0.12608 5.27228,-0.95967 11.83028,-3.38464 15.86181,-5.86527 0.71337,-0.43894 1.34606,-0.79808 1.40597,-0.79808 0.15075,0 3.90008,5.33694 3.80021,5.40939 -0.0444,0.0322 -0.79501,0.48207 -1.66813,0.99977 -9.31138,5.52097 -20.50993,8.11962 -31.62098,7.33773 z m -0.65819,-14.7194 c -5.17736,-0.64884 -11.63071,-2.91399 -15.79963,-5.54572 l -1.01763,-0.6424 1.37959,-1.97593 c 0.75878,-1.08677 1.45652,-1.97594 1.55053,-1.97594 0.094,0 1.41161,0.64751 2.928,1.43891 3.263,1.70296 6.63352,2.87872 9.87048,3.4432 3.02792,0.52802 8.67139,0.52831 11.70348,5.3e-4 3.00527,-0.52304 7.27496,-1.95061 9.86631,-3.29877 1.11507,-0.58013 2.10934,-1.05477 2.20948,-1.05477 0.29614,0 2.84286,3.7528 2.7017,3.98119 -0.24302,0.39322 -3.47194,2.079 -5.70235,2.97713 -2.69654,1.08583 -6.78288,2.17338 -9.58879,2.55199 -1.93208,0.2607 -8.31605,0.32423 -10.10117,0.10051 z M -4.570125,381.3974 v -31.48541 h 7.67103 7.67103 l 0.068,17.43311 0.068,17.43311 12.0328,-17.43311 12.0328,-17.43311 h 6.28769 6.28768 l 0.0681,17.31783 0.068,17.31783 11.91461,-17.25169 11.91459,-17.25169 9.31823,-0.0695 c 5.125,-0.0382 9.31254,0.0213 9.30563,0.1323 -0.007,0.111 -9.57519,14.25119 -21.26284,31.42265 l -21.2503,31.22083 -7.83914,0.0701 -7.83912,0.0701 -0.0683,-14.9367 -0.0683,-14.9367 -10.44837,14.9327 -10.44838,14.93276 h -7.74173 -7.74173 z m 65.53349,28.48934 c 1.13715,-1.64784 10.99724,-15.81389 21.91131,-31.4801 l 19.843755,-28.48403 7.87135,-0.005 7.87136,-0.005 v 31.4848 31.48541 h -7.54063 -7.54062 v -4.49791 -4.49792 l -10.252615,0.0112 -10.2526,0.0112 -3.04271,4.4866 -3.04271,4.4866 -8.94673,1.3e-4 -8.94672,1.4e-4 2.06756,-2.99608 z m 42.416525,-27.431 c 0,-4.51114 -0.0478,-8.20208 -0.10621,-8.20208 -0.0584,0 -2.10312,2.9468 -4.543855,6.54844 -2.4407,3.60164 -4.96321,7.29257 -5.60556,8.20208 l -1.16793,1.65364 h 5.71177 5.711785 z m 25.92916,-1.05833 v -31.48542 h 8.01823 8.01825 l 11.03175,16.9744 11.03177,16.97439 v -16.97439 -16.9744 h 7.80521 7.80521 v 31.48542 31.48541 h -8.33414 -8.33413 l -10.78201,-16.17368 -10.78201,-16.17368 -0.0682,16.17368 -0.0682,16.17368 h -7.67087 -7.67088 z m -263.3927,-20.6709 c -3.00413,-1.98275 -8.23146,-3.92164 -12.43606,-4.61269 -3.78609,-0.62227 -9.62235,-0.39406 -13.22853,0.51727 -3.16488,0.7998 -4.68717,1.37222 -7.7796,2.92534 l -2.32985,1.17011 -1.38074,-2.02325 c -1.6292,-2.38733 -1.7827,-2.10867 2.22978,-4.04786 5.80108,-2.80362 10.44544,-3.82336 17.3302,-3.80514 5.10396,0.0135 7.52463,0.36909 11.89666,1.74757 2.47004,0.7788 7.7557,3.22405 8.94271,4.13708 l 0.59874,0.46054 -1.47608,2.0468 c -0.81184,1.12574 -1.49799,2.03809 -1.52478,2.02745 -0.0268,-0.0106 -0.40589,-0.25508 -0.84245,-0.54322 z m 7.14375,-10.96968 c -2.34379,-1.47895 -7.00128,-3.65224 -9.91394,-4.62608 -9.27829,-3.10216 -18.78795,-3.32261 -28.07487,-0.65084 -3.00205,0.86366 -7.49273,2.76015 -10.10882,4.2691 -2.45802,1.41779 -2.09119,1.5747 -4.52522,-1.93561 l -1.50643,-2.17256 1.11841,-0.70602 c 5.58616,-3.52639 13.59029,-6.3579 20.86399,-7.38079 3.59702,-0.50583 10.53308,-0.50746 14.37855,-0.003 5.62736,0.73769 11.65252,2.57201 16.70999,5.08725 2.91543,1.44993 5.95313,3.28729 5.95313,3.60075 0,0.32914 -3.42663,5.20422 -3.65095,5.19424 -0.10203,-0.005 -0.66176,-0.30878 -1.24384,-0.67608 z m 6.87916,-11.52635 c -6.26762,-3.91574 -13.91701,-6.8127 -21.56354,-8.16649 -4.61967,-0.8179 -12.86819,-1.01164 -17.4625,-0.41016 -8.54606,1.11883 -16.43652,3.78592 -23.5659,7.96558 -1.10709,0.64905 -2.1215,1.17894 -2.25423,1.17754 -0.13273,-10e-4 -1.24361,-1.44687 -2.46862,-3.21217 -2.54692,-3.67022 -2.60945,-3.14686 0.60149,-5.035 2.66566,-1.5675 8.3907,-4.27012 11.37747,-5.37097 15.43017,-5.68713 33.72258,-5.39334 49.12297,0.78895 5.30052,2.12783 13.12468,6.46402 12.86845,7.13175 -0.1137,0.29629 -4.00474,5.88001 -4.37284,6.27512 -0.0913,0.098 -1.11858,-0.41682 -2.28275,-1.14415 z"
         id="path852-3" />
      <path
         style="fill:#000000;stroke-width:9.36534977"
         d="m -157.40398,414.09511 c -7.99737,-1.51671 -14.4245,-6.50625 -17.18533,-13.34138 -2.34188,-5.79789 -2.60486,-14.3969 -0.62435,-20.41466 2.51948,-7.65541 8.82258,-13.11714 17.18256,-14.88897 3.52225,-0.74651 9.71223,-0.74651 13.23447,0 8.33396,1.76631 14.61224,7.18986 17.18149,14.8424 1.58406,4.71816 1.75356,12.02513 0.40234,17.34476 -2.03239,8.00135 -7.98089,13.80103 -16.50723,16.09426 -2.60138,0.69967 -10.76776,0.91665 -13.68395,0.36359 z m 9.81791,-10.9147 c 3.97325,-1.39619 5.95673,-4.17482 6.92194,-9.69685 1.00653,-5.75836 -0.19661,-11.54349 -3.08481,-14.83297 -1.92202,-2.18905 -6.11252,-3.44794 -9.52779,-2.86229 -4.46254,0.76524 -7.23226,3.50854 -8.62293,8.54067 -0.59105,2.13873 -0.66348,8.13132 -0.12445,10.29759 1.25575,5.04675 4.30005,8.26078 8.49358,8.96713 1.73045,0.29147 4.48361,0.10007 5.94446,-0.41328 z m 101.818449,10.90505 c -2.495687,-0.56383 -4.931291,-1.8524 -6.792833,-3.59379 -3.03902,-2.84285 -4.297854,-6.25339 -4.049157,-10.97031 0.323276,-6.1314 2.96653,-9.87216 8.960803,-12.68144 3.806359,-1.78389 8.675724,-3.00958 15.826607,-3.9838 4.721511,-0.64324 4.233333,-0.28575 4.233333,-3.10002 0,-3.29748 -0.526618,-4.40964 -2.558796,-5.40389 -1.254349,-0.6137 -1.790057,-0.71461 -3.751728,-0.70677 -3.881686,0.0155 -5.861883,1.35765 -6.768052,4.58721 l -0.442552,1.57725 h -6.769722 -6.769724 l 0.175582,-1.71379 c 0.700395,-6.83626 4.780286,-11.04289 12.252275,-12.63289 2.096934,-0.44621 3.532394,-0.55205 7.488967,-0.55219 11.907991,-5.3e-4 17.72203,2.52751 20.009289,8.69997 0.442093,1.19305 0.497687,2.7462 0.652791,18.23744 0.172249,17.20395 0.192109,17.55489 1.186606,20.96823 l 0.173447,0.59531 h -6.487265 -6.487269 l -0.300643,-0.85989 c -0.165351,-0.47295 -0.370253,-1.5225 -0.455337,-2.33234 l -0.154694,-1.47245 -1.256522,1.22389 c -1.366441,1.33096 -4.096409,2.77783 -7.012694,3.7167 -2.36188,0.76038 -8.333052,0.97812 -10.902712,0.39757 z m 13.008216,-10.7368 c 2.375558,-1.14088 4.026207,-3.27108 4.810876,-6.20855 0.376296,-1.4087 0.498232,-6.4823 0.155789,-6.4823 -0.624514,0 -10.627807,3.02621 -11.541521,3.49156 -2.82769,1.44011 -4.050766,3.23542 -3.777287,5.54451 0.380603,3.21359 2.351966,4.50529 6.659139,4.36327 1.851774,-0.061 2.672921,-0.21859 3.693004,-0.70849 z M -221.79303,381.79427 v -31.6177 h 7.9375 7.9375 v 24.87083 24.87083 h 12.30313 12.30312 v 6.74688 6.74687 h -20.24062 -20.24063 z m 104.51042,-0.0146 v -31.63231 l 18.719265,0.10064 c 17.973177,0.0966 18.810763,0.12293 21.014814,0.66025 7.697086,1.87645 12.11509,5.96135 14.03296,12.9749 0.454458,1.66192 0.561197,2.83841 0.580805,6.40174 0.02278,4.14021 -0.01442,4.47492 -0.720267,6.48229 -1.494375,4.24981 -4.720196,7.92398 -8.710547,9.92121 -1.163695,0.58245 -2.273593,1.059 -2.466435,1.059 -0.192841,0 -0.419658,0.1117 -0.504039,0.24823 -0.08438,0.13653 3.004219,5.7872 6.863554,12.55705 3.859331,6.76985 7.016966,12.43426 7.016966,12.58758 0,0.19115 -2.790576,0.25687 -8.8783,0.2091 l -8.878297,-0.0697 -6.150819,-11.24479 -6.150819,-11.24479 -4.946922,-0.072 -4.946919,-0.072 v 11.38292 11.38292 h -7.9375 -7.9375 v -31.6323 z m 34.187539,-3.62984 c 1.368737,-0.63464 2.792391,-1.94419 3.392596,-3.12068 0.826627,-1.62033 1.168193,-4.37188 0.803018,-6.46887 -0.53154,-3.05232 -1.637474,-4.5921 -4.119618,-5.73568 -1.280446,-0.58993 -1.596858,-0.61216 -9.855729,-0.69224 l -8.532806,-0.0827 v 8.36736 8.36736 l 8.665098,-0.0895 c 7.516378,-0.0777 8.795332,-0.1499 9.647441,-0.54499 z"
         id="path852" />
    </g>
  </g>
</svg>
