<?xml version="1.0" encoding="UTF-8" standalone="no"?>
<svg
   xmlns:dc="http://purl.org/dc/elements/1.1/"
   xmlns:cc="http://creativecommons.org/ns#"
   xmlns:rdf="http://www.w3.org/1999/02/22-rdf-syntax-ns#"
   xmlns:svg="http://www.w3.org/2000/svg"
   xmlns="http://www.w3.org/2000/svg"
   xmlns:sodipodi="http://sodipodi.sourceforge.net/DTD/sodipodi-0.dtd"
   xmlns:inkscape="http://www.inkscape.org/namespaces/inkscape"
   version="1.1"
   width="705.60913"
   height="109"
   id="svg3349"
   sodipodi:docname="merlin-gerin.svg"
   inkscape:version="0.92.5 (2060ec1f9f, 2020-04-08)">
  <metadata
     id="metadata1592">
    <rdf:RDF>
      <cc:Work
         rdf:about="">
        <dc:format>image/svg+xml</dc:format>
        <dc:type
           rdf:resource="http://purl.org/dc/dcmitype/StillImage" />
      </cc:Work>
    </rdf:RDF>
  </metadata>
  <sodipodi:namedview
     pagecolor="#ffffff"
     bordercolor="#666666"
     borderopacity="1"
     objecttolerance="10"
     gridtolerance="10"
     guidetolerance="10"
     inkscape:pageopacity="0"
     inkscape:pageshadow="2"
     inkscape:window-width="2800"
     inkscape:window-height="1672"
     id="namedview1590"
     showgrid="false"
     inkscape:zoom="1.2457322"
     inkscape:cx="352.80457"
     inkscape:cy="54.5"
     inkscape:window-x="80"
     inkscape:window-y="54"
     inkscape:window-maximized="1"
     inkscape:current-layer="layer1" />
  <defs
     id="defs3351" />
  <g
     transform="translate(-84.34375,-457.875)"
     id="layer1">
    <g
       id="g2140"
       transform="matrix(0.85739822,0,0,0.85704865,62.358379,73.255681)"
       style="stroke-width:1.16655707">
      <path
         style="fill:#707070;fill-opacity:1;fill-rule:evenodd;stroke:#231f20;stroke-width:0.50888604;stroke-linecap:butt;stroke-linejoin:miter;stroke-miterlimit:3.86400008;stroke-dasharray:none;stroke-opacity:1"
         id="path110"
         d="m 87.31334,459.07899 h 52.01595 v 51.27872 H 87.31334 Z m 54.04005,79.05779 c 0,7.49878 -2.78314,14.00731 -8.33633,19.5038 -5.38307,5.33944 -11.94832,8.0048 -19.69574,8.0048 -7.57294,0 -14.138188,-2.66536 -19.687021,-8.0048 -5.387429,-5.49649 -8.083324,-12.00502 -8.083324,-19.5038 0,-7.67763 2.695895,-14.18617 8.083324,-19.52125 5.548833,-5.50521 12.114081,-8.25782 19.687021,-8.25782 7.74742,0 14.31267,2.75261 19.69574,8.25782 5.55319,5.33508 8.33633,11.84362 8.33633,19.52125 z m -12.8862,-68.54903 H 97.92243 l 15.14587,14.75326 z m 0,30.26557 v -14.50898 l -15.14587,14.26033 -15.39889,-14.26033 v 14.50898 z m 1.52244,43.52693 h -18.18639 v -10.75304 h 17.92901 c -2.68717,-7.83468 -8.16184,-11.76074 -16.41093,-11.76074 -4.71128,0 -8.75512,1.66203 -12.11845,5.00791 -3.367686,3.33279 -5.05153,7.42026 -5.05153,12.2624 0,4.65892 1.683844,8.66351 5.05153,11.9963 3.36333,3.34151 7.40717,5.00354 12.11845,5.00354 8.41922,0 13.97677,-3.91733 16.66831,-11.75637 z"
         inkscape:connector-curvature="0" />
      <path
         style="fill:#707070;fill-opacity:1;fill-rule:nonzero;stroke:none;stroke-width:1.16655707"
         id="path112"
         d="M 171.18274,459.37126 H 788.95286 V 565.04339 H 171.18274 Z"
         inkscape:connector-curvature="0" />
      <path
         style="fill:#ffffff;fill-opacity:1;fill-rule:nonzero;stroke:none;stroke-width:1.16655707"
         id="path114"
         d="m 480.117,482.63099 c -20.79503,0 -35.22549,12.29294 -35.22549,30.09981 0,17.45788 14.54388,29.88169 34.89832,29.88169 9.40946,0 20.1756,-3.41568 24.53789,-7.96118 v -23.77448 h -23.01109 v 10.68761 h 8.39741 v 6.76155 c -4.28377,1.71438 -6.00687,2.07208 -9.59704,2.07208 -12.07045,0 -20.17559,-6.76591 -20.17559,-17.12199 0,-8.64605 5.54447,-18.43067 21.37522,-18.43067 7.18033,0 14.37375,1.75364 21.81146,5.3438 v -12.7597 c -5.81057,-2.8224 -14.29523,-4.79852 -23.01109,-4.79852 z m -288.12928,0.76341 v 58.45469 h 14.50462 V 505.3149 l 15.70424,18.32162 h 2.2902 l 15.70425,-18.32162 v 36.53419 h 14.50462 V 483.3944 H 242.045 l -18.75785,21.70239 -18.64879,-21.70239 z m 149.08128,0 v 58.45469 h 12.32347 V 483.3944 Z m 27.59148,0 c -1.29183,0.037 -2.64627,0.48913 -4.03511,1.30868 -3.69486,2.18987 -5.83239,6.43874 -4.68947,9.48798 1.14729,3.04052 5.13878,3.71231 8.83364,1.52681 3.69922,-2.17242 5.72769,-6.44311 4.58041,-9.48799 -0.71978,-1.90031 -2.53638,-2.89732 -4.68947,-2.83548 z m 230.00177,0 c -1.29135,0.037 -2.76189,0.48913 -4.14418,1.30868 -3.70795,2.18987 -5.73205,6.43874 -4.5804,9.48798 1.15164,3.04052 5.02536,3.71231 8.72458,1.52681 3.6905,-2.17242 5.83238,-6.44311 4.68946,-9.48799 -0.71706,-1.90031 -2.53721,-2.89732 -4.68946,-2.83548 z m -317.24758,18.21256 c -12.14461,0 -20.82993,8.537 -20.82993,20.61182 0,12.32783 9.03866,20.39371 22.90202,20.39371 3.07542,0 10.45641,-0.0174 17.55822,-5.23475 v -7.85212 c -5.81057,4.1878 -9.64938,5.67097 -14.61367,5.67097 -7.77797,0 -12.55031,-4.10491 -12.97782,-11.12384 h 28.35489 c 0.59764,-14.38247 -8.92524,-22.46579 -20.39371,-22.46579 z m 50.16634,0 c -4.79415,0 -8.86417,3.7821 -12.54158,11.9963 h -0.10888 v -11.2329 h -12.43253 v 39.47873 h 12.43253 V 524.7271 c 2.73515,-7.2763 5.6099,-11.45102 10.14232,-11.45102 1.96303,0 4.06566,0.78522 7.30684,2.83549 l 3.48983,-10.90572 c -3.59016,-2.65664 -5.81929,-3.59889 -8.28835,-3.59889 z m 73.39554,0 c -5.04717,0 -8.82927,1.89759 -12.7597,6.43438 v -5.67098 h -12.43253 v 39.47873 h 12.43253 v -25.41034 c 3.25427,-4.87705 5.53139,-6.54344 8.61553,-6.54344 3.50728,0 6.1072,2.28148 6.1072,7.85212 v 24.10166 h 12.43253 v -25.08317 c 0,-11.64732 -8.236,-15.15896 -14.39556,-15.15896 z m 125.74302,0 c -12.14898,0 -20.82993,8.537 -20.82993,20.61182 0,12.32783 9.03866,20.39371 22.90202,20.39371 3.07542,0 10.55674,-0.0174 17.66728,-5.23475 v -7.85212 c -5.82366,4.1878 -9.75408,5.67097 -14.72273,5.67097 -7.77797,0 -12.54595,-4.10491 -12.97782,-11.12384 h 28.35489 c 0.60636,-14.38247 -8.93397,-22.46579 -20.39371,-22.46579 z m 50.2754,0 c -4.78979,0 -8.97323,3.7821 -12.65064,11.9963 h -0.10888 v -11.2329 h -12.43253 v 39.47873 h 12.43253 V 524.7271 c 2.74388,-7.2763 5.60118,-11.45102 10.14232,-11.45102 1.95867,0 4.06129,0.78522 7.30684,2.83549 l 3.48983,-10.90572 c -3.59453,-2.65664 -5.70151,-3.59889 -8.17929,-3.59889 z m 53.87429,0 c -5.05153,0 -8.93397,1.89759 -12.86876,6.43438 v -5.67098 h -12.43253 v 39.47873 h 12.43253 v -25.41034 c 3.25427,-4.87705 5.54011,-6.54344 8.61553,-6.54344 3.51164,0 6.21626,2.28148 6.21626,7.85212 v 24.10166 h 12.32347 v -25.08317 c 0,-11.64732 -8.12695,-15.15896 -14.2865,-15.15896 z m -274.38807,1.09057 v 39.15156 h 12.32347 v -39.15156 z m 230.00176,0 v 39.15156 h 12.21442 v -39.15156 z m -308.19582,6.21626 c 4.7898,0 7.99172,3.32843 8.50647,8.72459 h -17.12199 c 0.51911,-5.47904 3.74721,-8.72459 8.61552,-8.72459 z m 249.3049,0 c 4.7898,0 7.99608,3.32843 8.50647,8.72459 h -17.12199 c 0.51911,-5.47904 3.73412,-8.72459 8.61552,-8.72459 z"
         inkscape:connector-curvature="0" />
    </g>
  </g>
</svg>
