<?xml version="1.0" encoding="UTF-8" standalone="no"?>
<svg
   xmlns:dc="http://purl.org/dc/elements/1.1/"
   xmlns:cc="http://creativecommons.org/ns#"
   xmlns:rdf="http://www.w3.org/1999/02/22-rdf-syntax-ns#"
   xmlns:svg="http://www.w3.org/2000/svg"
   xmlns="http://www.w3.org/2000/svg"
   id="svg8"
   version="1.1"
   viewBox="0 0 52.916665 52.916668"
   height="200"
   width="200">
  <defs
     id="defs2" />
  <metadata
     id="metadata5">
    <rdf:RDF>
      <cc:Work
         rdf:about="">
        <dc:format>image/svg+xml</dc:format>
        <dc:type
           rdf:resource="http://purl.org/dc/dcmitype/StillImage" />
        <dc:title></dc:title>
      </cc:Work>
    </rdf:RDF>
  </metadata>
  <g
     transform="translate(0,-244.08332)"
     id="layer1">
    <g
       style="stroke-width:3.62036729"
       transform="matrix(0.07308191,0,0,0.07308191,2.9293657,247.04947)"
       id="g890">
      <path
         style="fill:#f49500;stroke-width:3.62036729"
         class="st0"
         d="m 189.4,323.1 c 0,-36.5 -31,-66.1 -69.3,-66.1 -38.3,0 -69.3,29.6 -69.3,66.1 0,36.5 31,66.1 69.3,66.1 38.3,-0.1 69.3,-29.6 69.3,-66.1"
         id="path825" />
      <path
         style="fill:#fcc000;stroke-width:3.62036729"
         class="st1"
         d="m 127.3,251.6 c 0,14.2 -11.5,25.8 -25.8,25.8 -14.2,0 -25.8,-11.5 -25.8,-25.8 0,-14.2 11.5,-25.8 25.8,-25.8 14.2,0 25.8,11.6 25.8,25.8"
         id="path827" />
      <path
         style="fill:#fcc000;stroke-width:3.62036729"
         class="st1"
         d="m 198.9,273.5 c 0,14.2 -11.5,25.8 -25.8,25.8 -14.2,0 -25.8,-11.5 -25.8,-25.8 0,-14.2 11.5,-25.8 25.8,-25.8 14.3,0 25.8,11.6 25.8,25.8"
         id="path829" />
      <path
         style="fill:#fcc000;stroke-width:3.62036729"
         class="st1"
         d="m 223.5,341.5 c 0,14.2 -11.5,25.8 -25.8,25.8 -14.2,0 -25.8,-11.5 -25.8,-25.8 0,-14.2 11.5,-25.8 25.8,-25.8 14.3,0.1 25.8,11.6 25.8,25.8"
         id="path831" />
      <path
         style="fill:#fcc000;stroke-width:3.62036729"
         class="st1"
         d="m 168.9,391.3 c 0,14.2 -11.5,25.8 -25.8,25.8 -14.2,0 -25.8,-11.5 -25.8,-25.8 0,-14.2 11.5,-25.8 25.8,-25.8 14.2,0 25.8,11.5 25.8,25.8"
         id="path833" />
      <path
         style="fill:#fcc000;stroke-width:3.62036729"
         class="st1"
         d="m 94.3,373.4 c 0,14.2 -11.5,25.8 -25.8,25.8 -14.2,0 -25.8,-11.5 -25.8,-25.8 0,-14.2 11.5,-25.8 25.8,-25.8 14.2,0 25.8,11.6 25.8,25.8"
         id="path835" />
      <path
         style="fill:#fcc000;stroke-width:3.62036729"
         class="st1"
         d="m 73.5,303.1 c 0,14.2 -11.5,25.8 -25.8,25.8 -14.2,0 -25.8,-11.5 -25.8,-25.8 0,-14.2 11.5,-25.8 25.8,-25.8 14.2,0 25.8,11.6 25.8,25.8"
         id="path837" />
      <polygon
         style="fill:#03a239;stroke-width:3.62036729"
         class="st2"
         points="109.5,312.6 119.6,318 125.3,308 123.4,301.4 119.4,309 105.1,259.6 112.3,263.8 110.5,257.5 100.5,252 94.9,262 96.8,268.3 100.6,260.9 115,310.3 107.6,306 "
         id="polygon839" />
      <polygon
         style="fill:#03a239;stroke-width:3.62036729"
         class="st2"
         points="126.5,308.1 126.8,319 137.7,320.1 142.1,316 134.1,315.4 167.7,284.3 167.7,292.1 171.9,288.2 171.7,277.3 160.9,276.3 156.7,280.3 164.5,280.8 130.9,312 131,303.9 "
         id="polygon841" />
      <polygon
         style="fill:#03a239;stroke-width:3.62036729"
         class="st2"
         points="70.5,361.6 71,372.7 82.1,373.4 86.6,368.9 78.4,368.7 112.1,335.5 112.2,343.5 116.5,339.3 116.2,328.2 105.1,327.7 100.9,331.9 108.8,332.1 75.1,365.4 75,357.2 "
         id="polygon843" />
      <polygon
         style="fill:#03a239;stroke-width:3.62036729"
         class="st2"
         points="103.9,327.9 113.9,322.4 108.7,312.2 102.3,310.2 106.4,317.6 58.1,302.8 65.4,299 59.3,297.1 49.3,302.5 54.6,312.6 60.7,314.5 56.8,307.3 105,322.1 97.5,325.9 "
         id="polygon845" />
      <polygon
         style="fill:#03a239;stroke-width:3.62036729"
         class="st2"
         points="132.3,384.1 142.4,388.5 147.9,378.9 145.9,373 142.1,380.2 127.4,336 134.6,339.3 132.7,333.7 122.6,329.3 117.3,338.8 119.2,344.4 122.9,337.5 137.7,381.7 130.3,378.2 "
         id="polygon847" />
      <polygon
         style="fill:#03a239;stroke-width:3.62036729"
         class="st2"
         points="179,348.4 188.3,342.5 183.6,332.6 177.6,330.8 181.3,338.1 136.5,325.1 143.3,321.1 137.7,319.5 128.3,325.2 133.2,335 138.8,336.7 135.2,329.6 180,342.5 173,346.6 "
         id="polygon849" />
      <polygon
         style="fill:#1192cf;stroke-width:3.62036729"
         class="st3"
         points="150.1,357.5 129.6,357.5 143.8,286.8 176.2,286.8 190.8,329.3 222.5,286.8 255,286.8 240.6,357.5 220.6,357.5 230.4,307.5 193.3,357.5 177.6,357.5 159.9,307.6 "
         id="polygon851" />
      <path
         style="fill:#1192cf;stroke-width:3.62036729"
         class="st3"
         d="m 320.1,310.8 c -2.8,-2.8 -12.6,-4 -24,-4 -17.8,0 -26.6,2.9 -31.9,8.2 -5.3,5.3 -7.9,25.3 -7.9,27.5 0,2.1 -0.8,7.8 3.1,11.7 3.9,3.9 13.3,4.2 27.8,4.2 14.5,0 22.5,-2.5 27.9,-6.2 5.4,-3.6 8.6,-22.7 9.2,-28.6 0.5,-6 -1.4,-10.1 -4.2,-12.8 m -14.2,22.3 c -1.5,5.3 -2.1,7.5 -3.9,8.8 -1.8,1.3 -11,2.2 -13,2.2 -2,0 -11.8,-0.2 -13.8,-2.2 -2,-2 1,-16.9 3.9,-18.5 2.9,-1.6 8.9,-2.1 13.2,-2 6.6,0.1 11.6,0.3 13,1.7 1.4,1.6 2.1,4.7 0.6,10"
         id="path853" />
      <path
         style="fill:#1192cf;stroke-width:3.62036729"
         class="st3"
         d="m 389,286.8 -5.5,28.1 c -2.6,-6.2 -7.5,-8.1 -18,-8.1 -17.8,0 -20.9,2.9 -26.2,8.2 -5.3,5.3 -7.9,25.3 -7.9,27.5 0,2.1 -0.8,7.8 3.1,11.7 3.9,3.9 7,4.2 21.1,4.2 13.6,0 18.5,-4.6 20.9,-7.7 l -1.3,6.8 H 393 l 13.8,-70.7 z M 376,342 c -1.8,1.3 -11,2.2 -13.1,2.2 -2.1,0 -11.8,-0.2 -13.8,-2.2 -2,-2 1,-16.9 3.9,-18.5 2.9,-1.6 8.9,-2.1 13.2,-2 6.6,0.1 11.6,0.3 13.1,1.7 0.9,0.9 1.5,2.6 1.4,5.1 l -1.2,5.9 c -1.2,4.6 -1.8,6.6 -3.5,7.8"
         id="path855" />
      <path
         style="fill:#1192cf;stroke-width:3.62036729"
         class="st3"
         d="m 472.3,309.8 c -2.2,-1.9 -7.8,-3 -18.4,-3 -13.3,0 -18.8,2.7 -23,8.4 l 5.5,-28.3 H 419 l -14,70.6 h 17.7 l 1.4,-7.2 c 2.1,4.9 5.3,8.1 20,8.1 14.5,0 18.4,-0.7 23,-5.4 4.9,-4.9 8.7,-23.4 9.2,-29.4 0.5,-5.9 -0.3,-10.7 -4,-13.8 m -13.9,23.3 c -1.5,5.3 -2.1,7.5 -3.9,8.8 -1.8,1.3 -11,2.2 -13,2.2 -2,0 -11.8,-0.2 -13.8,-2.2 -2,-2 1,-16.9 3.9,-18.5 2.9,-1.6 8.9,-2.1 13.2,-2 6.6,0.1 11.6,0.3 13,1.7 1.5,1.6 2.1,4.7 0.6,10"
         id="path857" />
      <path
         style="fill:#1192cf;stroke-width:3.62036729"
         class="st3"
         d="m 536.2,307.4 h -0.7 c 0,0 -4.7,27.5 -9,31.8 -4.3,4.3 -10.6,4.6 -12.8,4.6 -2.1,0 -8.2,-0.9 -10.4,-3.1 -2.7,-2.8 3.2,-28.7 4.3,-33.3 h -17.3 c 0,0 -7,31.7 -7,36.6 0,3.9 0.4,11.1 11.2,13.6 2.5,0.6 5.5,0.9 9.2,0.9 2.9,0 5.6,-0.3 8,-0.9 8.4,-2 13.7,-6.8 16.6,-10.4 l -2,10.4 h 16.5 l 9.8,-50.1 v 0 h -16.4 z"
         id="path859" />
      <path
         style="fill:#1192cf;stroke-width:3.62036729"
         class="st3"
         d="m 605.6,323 h 16.1 c 0,0 0.3,-3.9 0.3,-5.5 0,-1.7 0.3,-3.9 -3.1,-7.3 -3.4,-3.4 -21.8,-3.3 -24.9,-3.3 -3.1,0 -19.8,-0.3 -24.5,3.6 -4,3.2 -7.3,7.4 -7.3,15.6 0,8.3 5.5,11.5 16.4,11.5 h 19.5 c 2.7,0 6.1,0.8 6.1,3.3 0,2.5 -1.9,5.9 -8.7,5.9 h -12.9 c -3.1,0 -8.7,-0.5 -8.7,-4 v -1.6 h -16.1 c 0,0 -0.8,2.8 -0.8,5.2 0,2.4 0.4,5.5 3.1,8.2 2.7,2.7 14,3.9 25.6,3.9 11.6,0 24.1,-0.5 28.3,-4.8 4.3,-4.3 6.2,-12.3 6.2,-16.5 0,-4.2 -1.4,-6.2 -2.8,-7.6 -1.3,-1.3 -5.3,-3.7 -23,-3.7 -15.8,0 -16.3,-1.5 -16.3,-3 0,-1.2 0.2,-4.2 12.7,-4.2 12.5,-0.1 14.8,0.5 14.8,4.3"
         id="path861" />
    </g>
  </g>
  <style
     type="text/css"
     id="style823">
	.st0{fill:#F49500;}
	.st1{fill:#FCC000;}
	.st2{fill:#03A239;}
	.st3{fill:#1192CF;}
</style>
</svg>
