<?xml version="1.0" encoding="UTF-8" standalone="no"?>
<!DOCTYPE svg PUBLIC "-//W3C//DTD SVG 1.1//EN" "http://www.w3.org/Graphics/SVG/1.1/DTD/svg11.dtd">
<svg width="100%" height="100%" viewBox="0 0 300 100" version="1.1" xmlns="http://www.w3.org/2000/svg" xmlns:xlink="http://www.w3.org/1999/xlink" xml:space="preserve" xmlns:serif="http://www.serif.com/" style="fill-rule:evenodd;clip-rule:evenodd;stroke-linecap:round;stroke-linejoin:round;stroke-miterlimit:1.5;">
    <g transform="matrix(1,0,0,1,-353.286,5.7555)">
        <path d="M379.681,16.74C379.582,16.456 379.494,16.166 379.415,15.871C377.614,9.151 381.608,2.233 388.328,0.432C395.049,-1.369 401.967,2.625 403.768,9.346C403.846,9.638 403.913,9.931 403.97,10.224C407.391,10.613 410.66,11.507 413.7,12.829C413.895,12.605 414.1,12.385 414.313,12.172C419.233,7.252 427.221,7.252 432.141,12.172C437.061,17.091 437.061,25.08 432.141,29.999C431.927,30.213 431.708,30.417 431.483,30.612C432.806,33.653 433.7,36.921 434.088,40.343C434.381,40.399 434.674,40.467 434.967,40.545C441.687,42.346 445.681,49.264 443.881,55.984C442.08,62.705 435.162,66.699 428.441,64.898C428.146,64.819 427.857,64.73 427.573,64.632C425.562,67.339 423.162,69.739 420.455,71.749C420.553,72.033 420.642,72.323 420.721,72.618C422.522,79.339 418.528,86.257 411.808,88.057C405.087,89.858 398.169,85.864 396.368,79.144C396.29,78.851 396.222,78.558 396.166,78.265C392.745,77.876 389.476,76.982 386.436,75.66C386.241,75.885 386.036,76.104 385.822,76.318C380.903,81.237 372.914,81.237 367.995,76.318C363.075,71.398 363.075,63.41 367.995,58.49C368.208,58.276 368.428,58.072 368.653,57.877C367.33,54.837 366.436,51.568 366.048,48.147C365.755,48.09 365.462,48.023 365.169,47.944C358.449,46.144 354.454,39.225 356.255,32.505C358.056,25.785 364.974,21.791 371.694,23.591C371.989,23.67 372.279,23.759 372.563,23.857C374.574,21.151 376.974,18.75 379.681,16.74ZM400.89,52.787L399.03,56.009L397.982,52.099L400.844,47.142L405.802,50.004L406.849,53.914L403.627,52.053L409.173,72.753L411.034,69.531L412.082,73.441L409.219,78.398L404.262,75.536L403.214,71.626L406.437,73.486L400.89,52.787ZM397.947,46.365L392.223,46.365L389.36,49.228L393.081,49.228L377.928,64.381L377.928,60.66L375.066,63.522L375.066,69.247L380.79,69.247L383.653,66.384L379.932,66.384L395.085,51.231L395.085,54.952L397.947,52.09L397.947,46.365ZM429.31,50.613L427.449,47.391L431.359,48.438L434.221,53.396L429.264,56.258L425.354,55.211L428.576,53.35L407.877,47.804L409.737,51.026L405.827,49.978L402.965,45.021L407.923,42.159L411.832,43.206L408.61,45.067L429.31,50.613ZM392.259,40.686L390.399,37.463L394.309,38.511L397.171,43.468L392.213,46.331L388.303,45.283L391.526,43.423L370.826,37.876L372.687,41.098L368.777,40.051L365.914,35.093L370.872,32.231L374.782,33.279L371.56,35.139L392.259,40.686ZM407.913,42.124L410.775,39.262L407.055,39.262L422.208,24.108L422.208,27.829L425.07,24.967L425.07,19.243L419.345,19.243L416.483,22.105L420.204,22.105L405.051,37.258L405.051,33.537L402.189,36.399L402.189,42.124L407.913,42.124ZM390.962,15.736L389.102,18.959L388.054,15.049L390.917,10.091L395.874,12.953L396.922,16.863L393.699,15.003L399.246,35.703L401.106,32.48L402.154,36.39L399.292,41.348L394.334,38.485L393.286,34.575L396.509,36.436L390.962,15.736Z" style="fill:rgb(117,117,117);"/>
        <path d="M626.221,53.963C625.987,55.588 626.939,56.262 628.387,56.538C631.849,56.854 635.237,56.953 638.449,56.538C642.481,55.513 642.119,52.335 638.449,52.361L626.221,51.97C623.188,51.732 621.04,50.767 620.697,48.321C620.437,45.947 620.751,43.62 621.847,41.355C622.94,39.15 624.962,37.655 628.387,37.232C633.155,36.946 637.905,36.856 642.613,37.232C646.701,37.523 648.828,38.443 649.44,40.217C650.111,41.81 650.04,43.321 649.926,44.828L642.011,44.828C641.96,43.778 641.258,43.204 640.017,43.025C636.841,42.91 633.66,42.71 630.5,43.025C627.419,43.826 627.764,45.922 630.5,46.259C634.894,46.362 639.304,46.492 643.729,46.647C648.475,47.095 649.601,49.803 649.003,53.589C648.311,58.912 645.855,61.075 642.613,61.829C635.925,62.934 629.229,62.972 622.525,61.829C620.11,61.455 618.495,60.203 617.944,57.782C617.906,56.519 618.013,55.247 618.339,53.963L626.221,53.963ZM593.498,37.356L591.125,49.227C590.147,53.026 591.442,55.325 596.517,55.132C601.139,55.301 603.677,53.126 604.68,49.227L607.13,37.356L615.939,37.356L611.061,62.461L602.653,62.461L603.734,56.785C601.387,60.167 598.268,61.96 594.521,62.461C591.525,62.753 588.546,62.635 585.597,61.706C582.32,60.535 580.971,57.624 581.712,52.823L584.781,37.356L593.498,37.356ZM536.628,62.282L527.923,62.282L528.74,58.338C526.951,61.057 524.179,62.215 520.721,62.282C517.817,62.733 514.689,62.602 511.488,62.282C508.972,61.778 506.421,61.328 506.177,57.344C506.245,51.948 507.292,46.601 509.679,41.321C511.876,38.044 516.12,36.676 522.117,36.94C527.894,36.93 531.645,38.134 532.087,41.321L534.829,27.022L543.71,27.022L536.628,62.282ZM551.586,62.276L542.881,62.276L549.799,27.016L558.68,27.016L555.711,40.775C555.66,40.948 555.621,41.128 555.595,41.315L555.711,40.775C556.54,37.994 560.622,36.947 566.061,36.956C572.057,36.692 575.409,37.091 577.606,40.367C578.993,44.472 577.232,50.983 575.586,56.107C574.305,60.092 572.223,61.28 568.021,62.276C564.82,62.596 561.156,62.727 558.251,62.276C554.793,62.209 552.802,60.681 552.252,58.364L551.586,62.276ZM488.574,37.126C485.266,37.062 478.377,37.503 475.873,38.975C471.66,41.453 471.271,44.623 470.159,48.524C469.558,50.629 468.196,57.216 470.695,60.122C473.074,62.888 481.131,62.57 483.867,62.538C487.199,62.5 493.719,62.656 497.498,60.122C500.717,57.963 502.026,52.029 502.378,49.948C502.829,47.286 504.077,42.166 501.223,39.421C498.553,36.851 491.229,37.178 488.574,37.126ZM437.024,47.948L452.318,27.032L468.615,27.032L461.617,62.27L451.572,62.27L456.418,37.126L437.83,62.27L430.33,62.27L421.601,37.126L416.556,62.27L406.404,62.27L413.449,27.032L429.648,27.032L437.024,47.948ZM487.478,44.265C485.103,44.315 482.861,44.047 481.029,45.052C479.001,46.165 479.161,47.153 478.559,49.63C478.336,50.547 477.66,53.439 479.052,54.701C479.849,55.423 484.09,55.383 485.356,55.383C486.693,55.383 489.953,55.643 491.751,54.342C493.357,53.182 493.576,50.504 493.743,49.63C493.903,48.788 494.294,45.99 493.743,45.455C492.427,44.179 488.858,44.237 487.478,44.265ZM524.029,44.222C521.654,44.272 519.412,44.004 517.58,45.009C515.552,46.121 515.712,47.11 515.11,49.587C514.887,50.504 514.211,53.395 515.603,54.657C516.4,55.38 520.641,55.34 521.907,55.34C523.244,55.34 526.504,55.599 528.302,54.299C529.908,53.138 530.127,50.461 530.293,49.587C530.454,48.744 530.845,45.947 530.293,45.412C528.978,44.136 525.409,44.193 524.029,44.222ZM560.331,55.259C562.706,55.209 564.948,55.477 566.78,54.472C568.808,53.359 568.648,52.371 569.25,49.894C569.473,48.977 570.149,46.086 568.757,44.823C567.96,44.101 563.719,44.141 562.454,44.141C561.116,44.141 557.856,43.882 556.058,45.182C554.452,46.342 554.233,49.02 554.067,49.894C553.906,50.736 553.515,53.534 554.067,54.069C555.382,55.345 558.951,55.287 560.331,55.259Z" style="fill:rgb(117,117,117);stroke:rgb(244,244,244);stroke-width:1.5px;"/>
    </g>
</svg>
