<?xml version="1.0" encoding="UTF-8" standalone="no"?><!DOCTYPE svg PUBLIC "-//W3C//DTD SVG 1.1//EN" "http://www.w3.org/Graphics/SVG/1.1/DTD/svg11.dtd"><svg width="100%" height="100%" viewBox="0 0 300 100" version="1.1" xmlns="http://www.w3.org/2000/svg" xmlns:xlink="http://www.w3.org/1999/xlink" xml:space="preserve" xmlns:serif="http://www.serif.com/" style="fill-rule:evenodd;clip-rule:evenodd;stroke-linejoin:round;stroke-miterlimit:1.41421;"><path d="M100.581,27.443l0,10.214c-9.203,-1.025 -14.429,5.135 -13.946,12.07c0.525,7.554 4.002,12.918 13.946,12.3l0,10.062c0,0 -5.376,0.785 -11.141,-1.535c-6.661,-2.682 -13.68,-9.278 -13.841,-21.793c-0.141,-10.964 6.89,-17.475 13.841,-20.082c5.319,-1.994 11.141,-1.236 11.141,-1.236Zm3.302,0l0,10.214c9.204,-1.025 14.429,5.135 13.947,12.07c-0.526,7.554 -4.003,12.918 -13.947,12.3l0,10.062c0,0 5.376,0.785 11.141,-1.535c6.661,-2.682 13.68,-9.278 13.841,-21.793c0.141,-10.964 -6.89,-17.475 -13.841,-20.082c-5.319,-1.994 -11.141,-1.236 -11.141,-1.236Zm-85.234,40.921l-12.641,0l9.711,-33.2c1.736,-4.943 8.607,-6.107 11.887,-1.215l12.1,19.435l12.052,-19.435c3.22,-4.551 9.054,-4.15 12.07,1.215l9.633,33.2l-12.398,0l-5.05,-19.269l-9.677,15.518c-3.927,5.678 -9.035,5.584 -12.945,0l-10.169,-15.518l-4.573,19.269Zm127.1,0.006l-11.668,0l0,-32.138c0.226,-4.893 5.395,-6.219 9.95,-3.325l22.482,18.908l0,-20.427l11.562,0l0,31.782c0.322,6.29 -6.255,6.649 -9.598,3.837l-22.728,-18.764l0,20.127Zm50.867,0l-11.668,0l0,-32.138c0.227,-4.893 5.395,-6.219 9.95,-3.325l22.482,18.908l0,-20.427l11.562,0l0,31.782c0.322,6.29 -6.254,6.649 -9.597,3.837l-22.729,-18.764l0,20.127Zm50.543,0.019l-11.306,0l0,-37.001l11.306,0l0,37.001Zm42.966,-27.365l-11.156,0l0,27.131l-11.338,0l0,-27.131l-15.297,0l7.272,-9.636l37.761,0l-7.242,9.636Z" style="fill:#757575;"/></svg>