<?xml version="1.0" encoding="UTF-8" standalone="no"?><!DOCTYPE svg PUBLIC "-//W3C//DTD SVG 1.1//EN" "http://www.w3.org/Graphics/SVG/1.1/DTD/svg11.dtd"><svg width="100%" height="100%" viewBox="0 0 650 280" version="1.1" xmlns="http://www.w3.org/2000/svg" xmlns:xlink="http://www.w3.org/1999/xlink" xml:space="preserve" xmlns:serif="http://www.serif.com/" style="fill: grey;fill-rule:evenodd;clip-rule:evenodd;stroke-linejoin:round;stroke-miterlimit:1.41421;"><path d="M45.79,10l-35.79,10.049l0,47.804l41.335,24.959l41.604,-24.959l0,-53.119l-44.182,19.683l1.476,35.671l2.359,-30.745l34.693,-16.082l0,41.427l-35.95,18.948l-35.469,-18.948l0,-43.394l29.924,-11.294Zm94.95,19.367l0,6.881l-34.442,0c-2.427,0.167 -3.706,1.51 -4.147,3.713l0,21.474c0.401,1.987 1.757,3.086 4.147,3.222l25.189,0c2.221,-0.113 3.272,-1.156 3.039,-3.222l0,-4.925c0.007,-2.107 -1.09,-3.022 -3.039,-3.018l-16.962,0l0,-7.043l20.001,0c3.736,0.738 5.807,3.086 6.214,7.043l0,11.165c-0.472,3.621 -2.577,5.729 -6.214,6.42l-32.375,0c-2.919,-0.892 -4.785,-2.998 -5.509,-6.42l0,-27.095c0.044,-3.584 1.742,-6.381 5.509,-8.195l38.589,0Zm50.219,0.666l0,6.023l-35.251,0c-1.411,0.365 -2.265,1.454 -2.561,3.269l0,7.731l36.85,0l0,7.054l-36.85,0l0,8.527c0.212,1.366 1.045,2.157 2.561,2.317l35.251,0l0,6.101l-37.812,0c-3.754,-1.019 -5.816,-3.467 -6.147,-7.381l0,-25.593c0.277,-4.039 2.248,-6.781 6.147,-8.048l37.812,0Zm64.017,-0.182l0,6.464l-34.213,0c-1.655,0.262 -2.28,1.253 -2.756,2.864l0,4.853c0.132,1.432 1.508,2.342 2.756,2.755l26.503,0c3.816,0.431 6.611,2.093 7.71,5.801l0,12.385c-0.305,3.145 -1.982,5.159 -4.997,6.068l-38.051,0l0,-6.068l35.338,0c1.523,-0.427 2.526,-1.378 2.713,-3.152l0,-5.632c-0.423,-1.561 -1.464,-2.053 -2.713,-2.185l-28.032,0c-3.865,-0.655 -6.456,-2.459 -7.306,-5.836l0,-11.853c0.516,-3.213 2.331,-5.516 6.079,-6.464l36.969,0Zm48.956,0.081l0,6.202l-15.072,0c-1.264,-0.064 -1.793,0.674 -1.793,1.988l0,32.821l-6.266,0l0,-32.821c-0.142,-1.402 -0.696,-2.043 -1.623,-1.988l-18.123,0l0,-6.202l42.877,0Zm-100.066,40.969l-4.823,0l0,-41.05l4.823,0l0,41.05Z"/><path d="M462.816,79.607c-13.041,19.751 -43.173,23.083 -39.044,-2.917l7.685,0l1.389,-3.81l-7.719,0c0.296,-1.475 0.969,-2.325 1.675,-3.723l6.868,0l0.963,-3.401l-5.531,0c14.375,-19.252 42.362,-20.668 38.901,3.005l-9.565,0l-1.034,3.604l9.218,0l-1.525,3.634l-8.531,0l-1.023,3.608l7.273,0Zm98.711,-6.478l6.698,-6.828l0,3.859l5.262,0l0,2.969l-5.262,0l0,9.753c1.065,2.796 3.454,2.428 6.351,0.847l0,3.078c-4.72,2.144 -8.207,1.575 -9.954,-2.823l0,-10.855l-3.095,0Zm-43.557,6.284l12.234,0c-0.837,-9.267 -8.026,-11.837 -13.304,-7.336c-4.161,3.548 -2.867,12.486 1.837,14.949c2.795,1.463 7.506,1.433 11.029,-1.067l0,-3.477c-6.17,3.879 -10.952,2.49 -11.796,-3.069Zm90.406,8.298l-3.251,0l0,-17.424l3.251,0l0,17.424Zm-115.23,-26.462l0,3.429l-10.987,0l0,7.969l10.355,0l0,3.532l-10.355,0l0,7.996l11.423,0l0,3.455l-15.456,0l0,-26.381l15.02,0Zm137.887,13.623l0,-3.654c0,0 -12.956,-5.585 -13.645,7.437c-0.68,12.87 13.645,8.106 13.645,8.106l0,-3.103c-13.257,6.098 -14.327,-15.946 0,-8.786Zm-78.537,0l0,-3.654c0,0 -12.957,-5.585 -13.645,7.437c-0.68,12.87 13.645,8.106 13.645,8.106l0,-3.103c-13.257,6.098 -14.327,-15.946 0,-8.786Zm-46.742,12.745l-3.457,0l0,-26.368l3.457,0l0,26.368Zm81.146,-17.457l0,3.725c2.65,-4.899 5.74,-4.991 9.132,-1.792l-2.083,2.779c-2.872,-2.811 -5.164,-1.709 -7.049,2.126l0,10.469l-3.679,0l0,-17.307l3.679,0Zm-124.888,-10.225l-11.213,0c-5.089,1.184 -8.076,3.927 -9.483,7.842l-2.394,10.214c-0.212,1.102 -0.854,1.78 -1.869,2.096l-5.896,0l-1.603,5.803l11.043,0c5.652,-0.814 10.027,-3.505 11.021,-11.173c0.638,-3.247 1.199,-6.543 2.673,-9.247l6.309,0l1.412,-5.535Zm55.958,17.029l8.697,0c0,0 -0.692,-4.165 -4.061,-4.165c-3.37,0 -4.636,4.165 -4.636,4.165Zm87.155,-10.244c-1.134,-2.048 0.151,-3.973 3.251,-3.251c0.905,1.511 -0.17,4.316 -3.251,3.251Zm4.654,-24.536c-2.858,-27.727 -33.373,-18.945 -32.461,0c0.668,13.863 20.384,18.783 31.504,10.255l0,-6.216c-9.764,8.251 -20.969,4.312 -21.2,-4.039l22.157,0Zm-85.881,0c-2.859,-27.727 -33.374,-18.945 -32.461,0c0.668,13.863 20.383,18.783 31.504,10.255l0,-6.216c-9.764,8.251 -20.97,4.312 -21.201,-4.039l22.158,0Zm49.337,13.665l-9.604,0l0,-2.417c0,0 -8.925,7.213 -17.11,0c-9.393,-8.279 -5.788,-20.35 0,-25.419c6.409,-5.611 17.11,-1.736 17.11,-1.736l0,-15.94l9.604,0l0,45.512Zm-187.785,-33.495l0,-8.809c0,0 -24.863,-11.096 -32.493,6.381c-3.078,7.051 4.999,15.565 14.201,17.761c15.011,3.583 7.828,10.621 2.763,10.296c-11.784,-0.756 -16.006,-5.761 -16.006,-5.761l0,9.691c0.172,2.449 16.47,6.863 26.716,1.876c7.835,-3.814 9.156,-14.422 2.914,-20.552c-3.455,-3.394 -10.685,-6.236 -13.624,-6.461c-6.494,-0.496 -9.781,-10.238 4.482,-8.675c2.675,0.294 11.047,4.253 11.047,4.253Zm31.932,4.036l0,7.183c-24.729,-9.558 -21.23,24.629 0,14.018l0,6.984c-40.072,10.649 -33.469,-40.589 0,-28.185Zm119.637,29.525l-9.588,0l0,-30.75l9.588,0l0,30.75Zm-79.897,-10.143l0,-20.598l9.894,0l0,3.969c5.576,-7.677 18.255,-6.425 20.912,5.049l0,21.653c-5.06,0.101 -4.323,-0.007 -9.802,0l0,-19.461c-1.905,-6.83 -8.753,-6.156 -11.11,0l0,14.307c-2.764,-2.226 -6.009,-3.924 -9.894,-4.919Zm166.876,9.821l-9.894,0l0,-30.482l9.894,0l0,7.653c5.576,-7.677 8.55,-11.477 16.002,-5.028l-2.868,8.961c-5.973,-6.381 -10.777,-1.361 -13.134,4.795l0,14.101Zm-192.241,0l-9.894,0l0,-45.097l9.894,0l0,18.959c5.576,-7.676 18.255,-6.425 20.913,5.05l0,11.58c-3.675,-0.399 -6.887,0.861 -9.803,3.407l0,-12.795c-1.904,-6.83 -8.753,-6.156 -11.11,0l0,18.896Zm131.874,-22.742l0,14.885c-17.893,11.313 -16.982,-24.764 0,-14.885Zm37.186,4.097c-1.519,-8.814 -11.366,-8.14 -13.013,0l13.013,0Zm-85.881,0c-1.519,-8.814 -11.366,-8.14 -13.013,0l13.013,0Zm12.495,-17.643c-4.201,-4.717 5.653,-11.972 9.588,-8.306c3.537,3.296 -4.853,13.624 -9.588,8.306Z"/><path d="M258.629,142.324l-8.987,0c-1.691,-9.08 -14.781,-10.865 -18.503,0c-1.834,5.071 -1.347,10.13 0,15.184c2.834,10.625 17.228,9.18 18.503,-1.361l8.987,0c-1.499,18.973 -31.61,25.174 -37.477,0c-0.643,-4.383 -0.8,-8.935 0,-13.823c7.967,-24.713 37.261,-14.994 37.477,0Zm-72.278,-14.282l31.562,0l0,7.622l-22.612,0l0,9.209l20.932,0l0,7.587l-20.932,0l0,11.189l23.798,0l0,7.627l-32.748,0l0,-43.234Zm-25.67,7.722l-12.983,0l0,-7.722l35.038,0l0,7.722l-12.908,0l0,35.434l-9.147,0l0,-35.434Zm111.134,8.741l16.82,0l0,-16.372l8.687,0l0,43.055l-8.687,0l0,-19.078l-16.82,0l0,19.078l-8.865,0l0,-43.055l8.865,0l0,16.372Zm-261.815,26.673l19.08,0l1.439,-2.442l18.392,0l1.612,2.442l18.678,0l-6.391,-15.435c-8.507,9.193 -14.922,11.66 -17.861,-1.907c-2.987,-13.786 -9.874,-12.429 -21.975,-1.301l-9.948,10.723l-3.026,7.92Zm105.761,0l-9.914,0l-2.593,-8.886l-15.808,0l-3.086,8.886l-9.295,0l15.418,-43.136l10.042,0l15.236,43.136Zm16.131,-0.041l-8.812,0l-14.246,-43.095l9.71,0l9.257,32.33l9.556,-32.33l9.168,0l-14.633,43.095Zm-104.731,-43.007l24.182,0l9.421,22.851c-7.19,10.072 -12.801,13.2 -16.053,-3.878c-1.582,-8.313 -6.827,-10.085 -15.179,-6.308l-9.272,4.793l6.901,-17.458Zm68.276,10.064l-6.043,16.491l11.651,0l-5.608,-16.491Z"/><path d="M443.214,127.684l0,10.214c-9.203,-1.025 -14.429,5.135 -13.946,12.07c0.525,7.554 4.002,12.917 13.946,12.299l0,10.062c0,0 -5.376,0.786 -11.14,-1.534c-6.662,-2.682 -13.681,-9.278 -13.842,-21.794c-0.141,-10.963 6.89,-17.475 13.842,-20.081c5.318,-1.995 11.14,-1.236 11.14,-1.236Zm3.302,0l0,10.214c9.204,-1.025 14.429,5.135 13.947,12.07c-0.526,7.554 -4.003,12.917 -13.947,12.299l0,10.062c0,0 5.376,0.786 11.141,-1.534c6.661,-2.682 13.68,-9.278 13.841,-21.794c0.142,-10.963 -6.89,-17.475 -13.841,-20.081c-5.319,-1.995 -11.141,-1.236 -11.141,-1.236Zm-85.234,40.921l-12.641,0l9.711,-33.2c1.736,-4.943 8.607,-6.107 11.887,-1.216l12.1,19.436l12.052,-19.436c3.22,-4.55 9.054,-4.15 12.07,1.216l9.633,33.2l-12.398,0l-5.05,-19.269l-9.677,15.518c-3.926,5.678 -9.035,5.584 -12.945,0l-10.169,-15.518l-4.573,19.269Zm127.1,0.006l-11.668,0l0,-32.138c0.227,-4.893 5.395,-6.219 9.95,-3.325l22.482,18.908l0,-20.427l11.562,0l0,31.782c0.322,6.29 -6.254,6.649 -9.598,3.836l-22.728,-18.763l0,20.127Zm50.867,0l-11.668,0l0,-32.138c0.227,-4.893 5.395,-6.219 9.95,-3.325l22.482,18.908l0,-20.427l11.562,0l0,31.782c0.323,6.29 -6.254,6.649 -9.597,3.836l-22.729,-18.763l0,20.127Zm50.543,0.019l-11.306,0l0,-37.001l11.306,0l0,37.001Zm42.966,-27.365l-11.156,0l0,27.131l-11.338,0l0,-27.131l-15.297,0l7.272,-9.636l37.761,0l-7.242,9.636Z"/><path d="M24.868,263.385c2.642,0.067 3.986,-1.436 3.969,-4.583l0,-23.666c-0.128,-2.432 -0.577,-3.99 -1.142,-5.234l17.835,0c-0.793,1.3 -1.292,2.796 -1.435,4.528l0,25.691c0.288,7.407 -4.813,9.786 -12.365,9.879l-20.272,0l-1.458,-7.675c1.268,0.498 2.615,0.927 4.296,1.06l10.572,0Zm175.266,6.547l-17.871,0c0.877,-1.549 1.347,-3.217 1.623,-4.941l0,-19.297c-0.297,-1.811 -0.786,-3.512 -1.623,-5.012l14.43,0c0.751,1.433 0.849,3.173 0.738,5.012c0.774,-3.261 3.066,-4.956 6.95,-5.012l8.008,0l0,9.419c-4.624,-1.399 -9.043,-1.998 -12.794,0c-0.499,0.387 -0.891,1.201 -1.009,3.107l0,11.783c0.012,2.144 0.628,3.693 1.548,4.941Zm58.279,-23.486l-4.147,1.039l1.149,-6.935l27.954,0c6.693,0.656 9.283,4.182 9.068,9.673l0,15.776c0.053,1.62 0.566,2.927 1.518,3.933l-14.919,0c-0.353,-0.924 -0.621,-2.019 -0.857,-3.182c-1.012,2.512 -2.66,3.179 -4.535,3.182l-15.231,0c-3.649,-0.68 -5.414,-3.226 -5.578,-7.353l0,-5.641c0.325,-4.728 3.242,-6.554 7.645,-6.715l15.182,0c2.695,-0.138 2.298,-3.796 0,-3.777l-17.249,0Zm-116.315,0l-4.147,1.039l1.149,-6.935l27.954,0c6.693,0.656 9.284,4.182 9.068,9.673l0,15.776c0.053,1.62 0.566,2.927 1.518,3.933l-14.919,0c-0.353,-0.924 -0.621,-2.019 -0.857,-3.182c-1.012,2.512 -2.66,3.179 -4.535,3.182l-15.231,0c-3.649,-0.68 -5.413,-3.226 -5.578,-7.353l0,-5.641c0.325,-4.728 3.242,-6.554 7.645,-6.715l15.182,0c2.695,-0.138 2.298,-3.796 0,-3.777l-17.249,0Zm-85.093,0l-4.147,1.039l1.15,-6.935l27.954,0c6.692,0.656 9.283,4.182 9.067,9.673l0,15.776c0.053,1.62 0.566,2.927 1.518,3.933l-14.919,0c-0.352,-0.924 -0.621,-2.019 -0.856,-3.182c-1.013,2.512 -2.66,3.179 -4.536,3.182l-15.231,0c-3.649,-0.68 -5.413,-3.226 -5.578,-7.353l0,-5.641c0.325,-4.728 3.242,-6.554 7.646,-6.715l15.182,0c2.694,-0.138 2.297,-3.796 0,-3.777l-17.25,0Zm163.681,-5.78l0,-6.169l14.709,-0.506l0,6.675l11.573,0l0,5.876l-11.573,0l0,15.232c-0.089,1.684 0.608,2.555 1.973,2.735l6.54,0c1.924,-0.181 3.641,-0.614 5.139,-1.312l-1.107,6.645l-19.335,0c-5.49,-0.049 -8.057,-3.071 -7.919,-8.845l0,-14.455l-6.544,0l0,-5.876l6.544,0Zm-90.954,-0.116l1.468,6.935c-1.763,-0.763 -3.638,-1.179 -5.672,-1.114l-10.429,0c-1.558,0.077 -2.626,0.828 -2.865,2.72l0,12.4c0.233,1.924 1.273,2.744 2.865,2.809l10.429,0c1.815,-0.108 3.524,-0.539 5.096,-1.386l-0.892,6.921l-24.133,0c-5.055,0.078 -7.722,-2.457 -8.096,-7.502l0,-13.8c0.183,-5.114 2.949,-7.709 8.096,-7.983l24.133,0Zm141.086,15.332c-1.958,-0.049 -2.997,0.523 -3.071,1.747l0,4.738c-0.022,1.032 0.529,1.75 1.88,2.031l5.153,0c1.737,-0.026 2.619,-0.938 2.645,-2.736l0,-5.78l-6.607,0Zm-116.315,0c-1.958,-0.049 -2.997,0.523 -3.071,1.747l0,4.738c-0.022,1.032 0.529,1.75 1.88,2.031l5.153,0c1.737,-0.026 2.619,-0.938 2.645,-2.736l0,-5.78l-6.607,0Zm-85.092,0c-1.959,-0.049 -2.997,0.523 -3.072,1.747l0,4.738c-0.022,1.032 0.53,1.75 1.88,2.031l5.154,0c1.736,-0.026 2.618,-0.938 2.644,-2.736l0,-5.78l-6.606,0Z"/><path d="M477.577,270l-41.51,0l-6.443,-13.866l21.881,-0.654l-10.664,-26.831l-17.253,40.253l-19.963,0l25.999,-55.97l21.881,0l26.072,57.068Zm54.686,-41.201c4.878,-9.859 15.76,-15.516 26.381,-16.867c13.393,-1.704 26.372,3.87 26.372,3.87l0,16.505c0,0 -9.601,-5.356 -19.224,-5.622c-8.723,-0.241 -17.554,5.268 -17.536,13.791c0.021,9.737 10.855,13.934 17.536,14.444c8.949,0.684 19.224,-4.045 19.224,-4.045l0,14.337c0,0 -12.656,5.956 -25.871,4.183c-14.432,-1.935 -29.53,-12.258 -29.53,-28.919c0,-0.179 0.001,-0.357 0.004,-0.534c-2.861,5.046 -7.919,8.882 -14.679,9.377l-16.241,0l0,19.294l-21.122,0l0,-33.187l32.151,0c3.766,1.008 4.275,-8.524 0.401,-9.609c-0.143,-0.04 -0.261,-0.15 -0.401,-0.222l-32.151,0l-5,-12.663l41.043,-1.081c12.481,0.913 18.199,8.702 18.643,16.948Z"/></svg>