<?xml version="1.0" encoding="UTF-8" standalone="no"?>
<!DOCTYPE svg PUBLIC "-//W3C//DTD SVG 1.1//EN" "http://www.w3.org/Graphics/SVG/1.1/DTD/svg11.dtd">
<svg width="100%" height="100%" viewBox="0 0 800 600" version="1.1" xmlns="http://www.w3.org/2000/svg" xmlns:xlink="http://www.w3.org/1999/xlink" xml:space="preserve" xmlns:serif="http://www.serif.com/" style="fill-rule:evenodd;clip-rule:evenodd;stroke-linecap:round;stroke-linejoin:round;stroke-miterlimit:1.5;">
    <g transform="matrix(-1,0,0,1,806.964,16.0194)">
        <g>
            <path d="M259.384,424.853L259.384,505.351L769.207,250.44L769.207,169.941L259.384,424.853Z" style="fill:none;stroke:black;stroke-width:2px;"/>
            <g transform="matrix(-1,0,0,1,518.768,-8.52651e-14)">
                <path d="M259.384,424.853L259.384,505.351L474.046,398.02L474.046,317.522L259.384,424.853Z" style="fill:none;stroke:black;stroke-width:2px;"/>
            </g>
            <path d="M44.721,317.522L554.545,62.61L769.207,169.941" style="fill:none;stroke:black;stroke-width:2px;"/>
        </g>
        <g transform="matrix(1,0,0,1,8.38525,-4.19263)">
            <g transform="matrix(0.738318,-0.374927,0,0.738318,21.8931,188.282)">
                <g transform="matrix(1.31959,0,0,1,-117.198,0)">
                    <rect x="366.715" y="532.184" width="108.449" height="35.218" style="fill:none;stroke:black;stroke-width:2.82px;"/>
                </g>
                <g>
                    <g transform="matrix(1,0,0,1,0,1)">
                        <path d="M387.958,536.097L392.43,536.097L392.43,548.396L372.305,548.396L372.305,536.097L376.777,536.097L376.777,533.861L387.958,533.861L387.958,536.097Z" style="fill:none;stroke:black;stroke-width:1.72px;"/>
                    </g>
                    <g transform="matrix(1,0,0,1,44.9574,1)">
                        <path d="M387.958,536.097L392.43,536.097L392.43,548.396L372.305,548.396L372.305,536.097L376.777,536.097L376.777,533.861L387.958,533.861L387.958,536.097Z" style="fill:none;stroke:black;stroke-width:1.72px;"/>
                    </g>
                    <g transform="matrix(1,0,0,1,89.6161,1)">
                        <path d="M387.958,536.097L392.43,536.097L392.43,548.396L372.305,548.396L372.305,536.097L376.777,536.097L376.777,533.861L387.958,533.861L387.958,536.097Z" style="fill:none;stroke:black;stroke-width:1.72px;"/>
                    </g>
                    <g transform="matrix(1,0,0,1,22.5967,1)">
                        <path d="M387.958,536.097L392.43,536.097L392.43,548.396L372.305,548.396L372.305,536.097L376.777,536.097L376.777,533.861L387.958,533.861L387.958,536.097Z" style="fill:none;stroke:black;stroke-width:1.72px;"/>
                    </g>
                    <g transform="matrix(1,0,0,1,67.5542,1)">
                        <path d="M387.958,536.097L392.43,536.097L392.43,548.396L372.305,548.396L372.305,536.097L376.777,536.097L376.777,533.861L387.958,533.861L387.958,536.097Z" style="fill:none;stroke:black;stroke-width:1.72px;"/>
                    </g>
                    <g transform="matrix(1,0,0,1,112.213,1)">
                        <path d="M387.958,536.097L392.43,536.097L392.43,548.396L372.305,548.396L372.305,536.097L376.777,536.097L376.777,533.861L387.958,533.861L387.958,536.097Z" style="fill:none;stroke:black;stroke-width:1.72px;"/>
                    </g>
                </g>
                <g transform="matrix(1,0,0,-1,0,1100.23)">
                    <g transform="matrix(1,0,0,1,0,1)">
                        <path d="M387.958,536.097L392.43,536.097L392.43,548.396L372.305,548.396L372.305,536.097L376.777,536.097L376.777,533.861L387.958,533.861L387.958,536.097Z" style="fill:none;stroke:black;stroke-width:1.06px;"/>
                    </g>
                    <g transform="matrix(1,0,0,1,44.9574,1)">
                        <path d="M387.958,536.097L392.43,536.097L392.43,548.396L372.305,548.396L372.305,536.097L376.777,536.097L376.777,533.861L387.958,533.861L387.958,536.097Z" style="fill:none;stroke:black;stroke-width:1.06px;"/>
                    </g>
                    <g transform="matrix(1,0,0,1,89.6161,1)">
                        <path d="M387.958,536.097L392.43,536.097L392.43,548.396L372.305,548.396L372.305,536.097L376.777,536.097L376.777,533.861L387.958,533.861L387.958,536.097Z" style="fill:none;stroke:black;stroke-width:1.06px;"/>
                    </g>
                    <g transform="matrix(1,0,0,1,22.5967,1)">
                        <path d="M387.958,536.097L392.43,536.097L392.43,548.396L372.305,548.396L372.305,536.097L376.777,536.097L376.777,533.861L387.958,533.861L387.958,536.097Z" style="fill:none;stroke:black;stroke-width:1.06px;"/>
                    </g>
                    <g transform="matrix(1,0,0,1,67.5542,1)">
                        <path d="M387.958,536.097L392.43,536.097L392.43,548.396L372.305,548.396L372.305,536.097L376.777,536.097L376.777,533.861L387.958,533.861L387.958,536.097Z" style="fill:none;stroke:black;stroke-width:1.06px;"/>
                    </g>
                    <g transform="matrix(1,0,0,1,112.213,1)">
                        <path d="M387.958,536.097L392.43,536.097L392.43,548.396L372.305,548.396L372.305,536.097L376.777,536.097L376.777,533.861L387.958,533.861L387.958,536.097Z" style="fill:none;stroke:black;stroke-width:1.06px;"/>
                    </g>
                </g>
            </g>
            <g transform="matrix(0.738318,-0.374927,0,0.738318,137.051,130.284)">
                <g transform="matrix(1.31959,0,0,1,-117.198,0)">
                    <rect x="366.715" y="532.184" width="108.449" height="35.218" style="fill:none;stroke:black;stroke-width:2.82px;"/>
                </g>
                <g>
                    <g transform="matrix(1,0,0,1,0,1)">
                        <path d="M387.958,536.097L392.43,536.097L392.43,548.396L372.305,548.396L372.305,536.097L376.777,536.097L376.777,533.861L387.958,533.861L387.958,536.097Z" style="fill:none;stroke:black;stroke-width:1.72px;"/>
                    </g>
                    <g transform="matrix(1,0,0,1,44.9574,1)">
                        <path d="M387.958,536.097L392.43,536.097L392.43,548.396L372.305,548.396L372.305,536.097L376.777,536.097L376.777,533.861L387.958,533.861L387.958,536.097Z" style="fill:none;stroke:black;stroke-width:1.72px;"/>
                    </g>
                    <g transform="matrix(1,0,0,1,89.6161,1)">
                        <path d="M387.958,536.097L392.43,536.097L392.43,548.396L372.305,548.396L372.305,536.097L376.777,536.097L376.777,533.861L387.958,533.861L387.958,536.097Z" style="fill:none;stroke:black;stroke-width:1.72px;"/>
                    </g>
                    <g transform="matrix(1,0,0,1,22.5967,1)">
                        <path d="M387.958,536.097L392.43,536.097L392.43,548.396L372.305,548.396L372.305,536.097L376.777,536.097L376.777,533.861L387.958,533.861L387.958,536.097Z" style="fill:none;stroke:black;stroke-width:1.72px;"/>
                    </g>
                    <g transform="matrix(1,0,0,1,67.5542,1)">
                        <path d="M387.958,536.097L392.43,536.097L392.43,548.396L372.305,548.396L372.305,536.097L376.777,536.097L376.777,533.861L387.958,533.861L387.958,536.097Z" style="fill:none;stroke:black;stroke-width:1.72px;"/>
                    </g>
                    <g transform="matrix(1,0,0,1,112.213,1)">
                        <path d="M387.958,536.097L392.43,536.097L392.43,548.396L372.305,548.396L372.305,536.097L376.777,536.097L376.777,533.861L387.958,533.861L387.958,536.097Z" style="fill:none;stroke:black;stroke-width:1.72px;"/>
                    </g>
                </g>
                <g transform="matrix(1,0,0,-1,0,1100.23)">
                    <g transform="matrix(1,0,0,1,0,1)">
                        <path d="M387.958,536.097L392.43,536.097L392.43,548.396L372.305,548.396L372.305,536.097L376.777,536.097L376.777,533.861L387.958,533.861L387.958,536.097Z" style="fill:none;stroke:black;stroke-width:1.06px;"/>
                    </g>
                    <g transform="matrix(1,0,0,1,44.9574,1)">
                        <path d="M387.958,536.097L392.43,536.097L392.43,548.396L372.305,548.396L372.305,536.097L376.777,536.097L376.777,533.861L387.958,533.861L387.958,536.097Z" style="fill:none;stroke:black;stroke-width:1.06px;"/>
                    </g>
                    <g transform="matrix(1,0,0,1,89.6161,1)">
                        <path d="M387.958,536.097L392.43,536.097L392.43,548.396L372.305,548.396L372.305,536.097L376.777,536.097L376.777,533.861L387.958,533.861L387.958,536.097Z" style="fill:none;stroke:black;stroke-width:1.06px;"/>
                    </g>
                    <g transform="matrix(1,0,0,1,22.5967,1)">
                        <path d="M387.958,536.097L392.43,536.097L392.43,548.396L372.305,548.396L372.305,536.097L376.777,536.097L376.777,533.861L387.958,533.861L387.958,536.097Z" style="fill:none;stroke:black;stroke-width:1.06px;"/>
                    </g>
                    <g transform="matrix(1,0,0,1,67.5542,1)">
                        <path d="M387.958,536.097L392.43,536.097L392.43,548.396L372.305,548.396L372.305,536.097L376.777,536.097L376.777,533.861L387.958,533.861L387.958,536.097Z" style="fill:none;stroke:black;stroke-width:1.06px;"/>
                    </g>
                    <g transform="matrix(1,0,0,1,112.213,1)">
                        <path d="M387.958,536.097L392.43,536.097L392.43,548.396L372.305,548.396L372.305,536.097L376.777,536.097L376.777,533.861L387.958,533.861L387.958,536.097Z" style="fill:none;stroke:black;stroke-width:1.06px;"/>
                    </g>
                </g>
            </g>
            <g transform="matrix(0.738318,-0.374927,0,0.738318,252.208,73.2645)">
                <g transform="matrix(1.31959,0,0,1,-117.198,0)">
                    <rect x="366.715" y="532.184" width="108.449" height="35.218" style="fill:none;stroke:black;stroke-width:2.82px;"/>
                </g>
                <g>
                    <g transform="matrix(1,0,0,1,0,1)">
                        <path d="M387.958,536.097L392.43,536.097L392.43,548.396L372.305,548.396L372.305,536.097L376.777,536.097L376.777,533.861L387.958,533.861L387.958,536.097Z" style="fill:none;stroke:black;stroke-width:1.72px;"/>
                    </g>
                    <g transform="matrix(1,0,0,1,44.9574,1)">
                        <path d="M387.958,536.097L392.43,536.097L392.43,548.396L372.305,548.396L372.305,536.097L376.777,536.097L376.777,533.861L387.958,533.861L387.958,536.097Z" style="fill:none;stroke:black;stroke-width:1.72px;"/>
                    </g>
                    <g transform="matrix(1,0,0,1,89.6161,1)">
                        <path d="M387.958,536.097L392.43,536.097L392.43,548.396L372.305,548.396L372.305,536.097L376.777,536.097L376.777,533.861L387.958,533.861L387.958,536.097Z" style="fill:none;stroke:black;stroke-width:1.72px;"/>
                    </g>
                    <g transform="matrix(1,0,0,1,22.5967,1)">
                        <path d="M387.958,536.097L392.43,536.097L392.43,548.396L372.305,548.396L372.305,536.097L376.777,536.097L376.777,533.861L387.958,533.861L387.958,536.097Z" style="fill:none;stroke:black;stroke-width:1.72px;"/>
                    </g>
                    <g transform="matrix(1,0,0,1,67.5542,1)">
                        <path d="M387.958,536.097L392.43,536.097L392.43,548.396L372.305,548.396L372.305,536.097L376.777,536.097L376.777,533.861L387.958,533.861L387.958,536.097Z" style="fill:none;stroke:black;stroke-width:1.72px;"/>
                    </g>
                    <g transform="matrix(1,0,0,1,112.213,1)">
                        <path d="M387.958,536.097L392.43,536.097L392.43,548.396L372.305,548.396L372.305,536.097L376.777,536.097L376.777,533.861L387.958,533.861L387.958,536.097Z" style="fill:none;stroke:black;stroke-width:1.72px;"/>
                    </g>
                </g>
                <g transform="matrix(1,0,0,-1,0,1100.23)">
                    <g transform="matrix(1,0,0,1,0,1)">
                        <path d="M387.958,536.097L392.43,536.097L392.43,548.396L372.305,548.396L372.305,536.097L376.777,536.097L376.777,533.861L387.958,533.861L387.958,536.097Z" style="fill:none;stroke:black;stroke-width:1.06px;"/>
                    </g>
                    <g transform="matrix(1,0,0,1,44.9574,1)">
                        <path d="M387.958,536.097L392.43,536.097L392.43,548.396L372.305,548.396L372.305,536.097L376.777,536.097L376.777,533.861L387.958,533.861L387.958,536.097Z" style="fill:none;stroke:black;stroke-width:1.06px;"/>
                    </g>
                    <g transform="matrix(1,0,0,1,89.6161,1)">
                        <path d="M387.958,536.097L392.43,536.097L392.43,548.396L372.305,548.396L372.305,536.097L376.777,536.097L376.777,533.861L387.958,533.861L387.958,536.097Z" style="fill:none;stroke:black;stroke-width:1.06px;"/>
                    </g>
                    <g transform="matrix(1,0,0,1,22.5967,1)">
                        <path d="M387.958,536.097L392.43,536.097L392.43,548.396L372.305,548.396L372.305,536.097L376.777,536.097L376.777,533.861L387.958,533.861L387.958,536.097Z" style="fill:none;stroke:black;stroke-width:1.06px;"/>
                    </g>
                    <g transform="matrix(1,0,0,1,67.5542,1)">
                        <path d="M387.958,536.097L392.43,536.097L392.43,548.396L372.305,548.396L372.305,536.097L376.777,536.097L376.777,533.861L387.958,533.861L387.958,536.097Z" style="fill:none;stroke:black;stroke-width:1.06px;"/>
                    </g>
                    <g transform="matrix(1,0,0,1,112.213,1)">
                        <path d="M387.958,536.097L392.43,536.097L392.43,548.396L372.305,548.396L372.305,536.097L376.777,536.097L376.777,533.861L387.958,533.861L387.958,536.097Z" style="fill:none;stroke:black;stroke-width:1.06px;"/>
                    </g>
                </g>
            </g>
            <g transform="matrix(0.738318,-0.374927,0,0.738318,367.366,15.546)">
                <g transform="matrix(1.31959,0,0,1,-117.198,0)">
                    <rect x="366.715" y="532.184" width="108.449" height="35.218" style="fill:none;stroke:black;stroke-width:2.82px;"/>
                </g>
                <g>
                    <g transform="matrix(1,0,0,1,0,1)">
                        <path d="M387.958,536.097L392.43,536.097L392.43,548.396L372.305,548.396L372.305,536.097L376.777,536.097L376.777,533.861L387.958,533.861L387.958,536.097Z" style="fill:none;stroke:black;stroke-width:1.72px;"/>
                    </g>
                    <g transform="matrix(1,0,0,1,44.9574,1)">
                        <path d="M387.958,536.097L392.43,536.097L392.43,548.396L372.305,548.396L372.305,536.097L376.777,536.097L376.777,533.861L387.958,533.861L387.958,536.097Z" style="fill:none;stroke:black;stroke-width:1.72px;"/>
                    </g>
                    <g transform="matrix(1,0,0,1,89.6161,1)">
                        <path d="M387.958,536.097L392.43,536.097L392.43,548.396L372.305,548.396L372.305,536.097L376.777,536.097L376.777,533.861L387.958,533.861L387.958,536.097Z" style="fill:none;stroke:black;stroke-width:1.72px;"/>
                    </g>
                    <g transform="matrix(1,0,0,1,22.5967,1)">
                        <path d="M387.958,536.097L392.43,536.097L392.43,548.396L372.305,548.396L372.305,536.097L376.777,536.097L376.777,533.861L387.958,533.861L387.958,536.097Z" style="fill:none;stroke:black;stroke-width:1.72px;"/>
                    </g>
                    <g transform="matrix(1,0,0,1,67.5542,1)">
                        <path d="M387.958,536.097L392.43,536.097L392.43,548.396L372.305,548.396L372.305,536.097L376.777,536.097L376.777,533.861L387.958,533.861L387.958,536.097Z" style="fill:none;stroke:black;stroke-width:1.72px;"/>
                    </g>
                    <g transform="matrix(1,0,0,1,112.213,1)">
                        <path d="M387.958,536.097L392.43,536.097L392.43,548.396L372.305,548.396L372.305,536.097L376.777,536.097L376.777,533.861L387.958,533.861L387.958,536.097Z" style="fill:none;stroke:black;stroke-width:1.72px;"/>
                    </g>
                </g>
                <g transform="matrix(1,0,0,-1,0,1100.23)">
                    <g transform="matrix(1,0,0,1,0,1)">
                        <path d="M387.958,536.097L392.43,536.097L392.43,548.396L372.305,548.396L372.305,536.097L376.777,536.097L376.777,533.861L387.958,533.861L387.958,536.097Z" style="fill:none;stroke:black;stroke-width:1.06px;"/>
                    </g>
                    <g transform="matrix(1,0,0,1,44.9574,1)">
                        <path d="M387.958,536.097L392.43,536.097L392.43,548.396L372.305,548.396L372.305,536.097L376.777,536.097L376.777,533.861L387.958,533.861L387.958,536.097Z" style="fill:none;stroke:black;stroke-width:1.06px;"/>
                    </g>
                    <g transform="matrix(1,0,0,1,89.6161,1)">
                        <path d="M387.958,536.097L392.43,536.097L392.43,548.396L372.305,548.396L372.305,536.097L376.777,536.097L376.777,533.861L387.958,533.861L387.958,536.097Z" style="fill:none;stroke:black;stroke-width:1.06px;"/>
                    </g>
                    <g transform="matrix(1,0,0,1,22.5967,1)">
                        <path d="M387.958,536.097L392.43,536.097L392.43,548.396L372.305,548.396L372.305,536.097L376.777,536.097L376.777,533.861L387.958,533.861L387.958,536.097Z" style="fill:none;stroke:black;stroke-width:1.06px;"/>
                    </g>
                    <g transform="matrix(1,0,0,1,67.5542,1)">
                        <path d="M387.958,536.097L392.43,536.097L392.43,548.396L372.305,548.396L372.305,536.097L376.777,536.097L376.777,533.861L387.958,533.861L387.958,536.097Z" style="fill:none;stroke:black;stroke-width:1.06px;"/>
                    </g>
                    <g transform="matrix(1,0,0,1,112.213,1)">
                        <path d="M387.958,536.097L392.43,536.097L392.43,548.396L372.305,548.396L372.305,536.097L376.777,536.097L376.777,533.861L387.958,533.861L387.958,536.097Z" style="fill:none;stroke:black;stroke-width:1.06px;"/>
                    </g>
                </g>
            </g>
        </g>
        <g transform="matrix(1,0,0,1,-3.3541,1.67705)">
            <path d="M277.272,469.574L277.272,478.519L295.161,469.574L295.161,460.63L277.272,469.574Z" style="fill:none;stroke:black;stroke-width:2px;"/>
        </g>
    </g>
</svg>
