<?xml version="1.0" encoding="UTF-8" standalone="no"?>
<!DOCTYPE svg PUBLIC "-//W3C//DTD SVG 1.1//EN" "http://www.w3.org/Graphics/SVG/1.1/DTD/svg11.dtd">
<svg width="100%" height="100%" viewBox="0 0 300 100" version="1.1" xmlns="http://www.w3.org/2000/svg" xmlns:xlink="http://www.w3.org/1999/xlink" xml:space="preserve" xmlns:serif="http://www.serif.com/" style="fill-rule:evenodd;clip-rule:evenodd;stroke-linejoin:round;stroke-miterlimit:1.41421;">
    <g transform="matrix(1,0,0,1,2.10342,-0.194523)">
        <path d="M227.881,94.334L67.912,94.334L67.912,6.055L227.881,6.055L227.881,94.334ZM222.811,9.959L71.745,9.959L71.745,90.43L222.811,90.43L222.811,9.959ZM218.889,86.209L76.268,86.209L76.268,14.866L218.889,14.866L218.889,86.209ZM149.728,25.128L136.439,25.128L136.439,25.258C135.181,25.511 134.016,26.13 133.095,27.051C131.864,28.282 131.173,29.951 131.173,31.692L131.173,42.824C131.118,46.206 132.726,48.843 136.439,50.538C139.603,51.982 143.025,53.635 144.189,56.663L144.189,65.967C144.189,66.281 144.064,66.583 143.842,66.805C143.619,67.028 143.318,67.153 143.003,67.153C143.003,67.153 143.002,67.153 143.001,67.153C142.285,67.153 141.705,66.573 141.705,65.857L141.705,55.309L131.173,55.309L131.173,69.827C131.173,71.439 131.813,72.986 132.953,74.126C133.9,75.073 135.127,75.675 136.439,75.852L136.439,75.907L149.728,75.907L149.728,75.855C151.113,75.676 152.408,75.045 153.406,74.047C154.597,72.856 155.266,71.241 155.266,69.557L155.266,53.102L155.155,53.102C155.07,52.458 154.405,49.627 149.272,46.809C147.044,45.586 144.08,44.413 142.769,42.824C142.365,42.334 141.993,41.655 141.705,41.056L141.705,34.098C141.705,33.422 142.253,32.874 142.929,32.874C142.93,32.874 142.93,32.874 142.931,32.874C143.626,32.874 144.189,33.437 144.189,34.132C144.189,36.808 144.189,42.824 144.189,42.824L155.266,42.824C155.266,42.824 155.266,36.675 155.266,31.626C155.266,29.902 154.582,28.25 153.363,27.031C152.373,26.041 151.096,25.404 149.728,25.199L149.728,25.128ZM110.338,31.741C110.338,28.089 107.378,25.128 103.725,25.128C100.279,25.128 96.08,25.128 92.65,25.128C90.925,25.128 89.271,25.814 88.051,27.034C86.831,28.253 86.146,29.908 86.146,31.633C86.146,41.438 86.146,59.884 86.146,69.582C86.146,73.075 88.977,75.907 92.47,75.907C95.886,75.907 100.103,75.907 103.583,75.907C105.375,75.907 107.093,75.195 108.36,73.928C109.627,72.661 110.338,70.943 110.338,69.151C110.338,59.384 110.338,41.429 110.338,31.741ZM181.338,31.741C181.338,28.089 178.378,25.128 174.725,25.128C171.279,25.128 167.08,25.128 163.65,25.128C161.925,25.128 160.271,25.814 159.051,27.034C157.831,28.253 157.146,29.908 157.146,31.633C157.146,41.438 157.146,59.884 157.146,69.582C157.146,73.075 159.977,75.907 163.47,75.907C166.886,75.907 171.103,75.907 174.583,75.907C176.375,75.907 178.093,75.195 179.36,73.928C180.627,72.661 181.338,70.943 181.338,69.151C181.338,59.384 181.338,41.429 181.338,31.741ZM123.706,25.128L113.47,25.128L113.47,75.907L129.795,75.907L129.795,67.153L123.706,67.153L123.706,25.128ZM194.631,25.128L183.996,25.128L183.996,75.907L193.209,75.907L193.209,53.766L197.626,75.907L208.244,75.907L208.244,25.128L199.048,25.128L199.048,47.269L194.631,25.128ZM170.64,34.094C170.648,31.927 168.073,32.081 168.041,34.094L168.041,65.764C168.049,67.691 170.673,67.539 170.64,65.764L170.64,34.094ZM99.316,34.094C99.323,31.927 96.749,32.081 96.717,34.094L96.717,65.764C96.725,67.691 99.349,67.539 99.316,65.764L99.316,34.094Z" style="fill:rgb(112,112,112);"/>
    </g>
</svg>
