<?xml version="1.0" encoding="UTF-8" standalone="no"?>
<!DOCTYPE svg PUBLIC "-//W3C//DTD SVG 1.1//EN" "http://www.w3.org/Graphics/SVG/1.1/DTD/svg11.dtd">
<svg width="100%" height="100%" viewBox="0 0 300 100" version="1.1" xmlns="http://www.w3.org/2000/svg" xmlns:xlink="http://www.w3.org/1999/xlink" xml:space="preserve" xmlns:serif="http://www.serif.com/" style="fill-rule:evenodd;clip-rule:evenodd;stroke-linecap:round;stroke-linejoin:round;stroke-miterlimit:1.5;">
    <g>
        <path d="M148.109,21.589L160.258,21.589C160.258,21.589 159.188,17.443 154.28,17.443C149.372,17.443 148.109,21.589 148.109,21.589Z" style="fill:none;stroke:rgb(112,112,112);stroke-width:1px;"/>
        <path d="M174.589,11.3L174.589,37.946L185.855,37.946L185.855,26.942C186.351,23.192 188.349,20.562 192.4,19.466L196.275,19.466L196.275,11.3L192.4,11.3C189.688,11.355 187.377,12.213 185.855,14.656L185.855,11.3L174.589,11.3Z" style="fill:none;stroke:rgb(112,112,112);stroke-width:1px;"/>
        <path d="M13.168,11.3L13.168,48.04L24.441,48.04L24.441,35.772C24.441,35.772 47.539,45.198 47.539,24.842C47.539,4.487 24.441,13.874 24.441,13.874L24.441,11.3L13.168,11.3Z" style="fill:none;stroke:rgb(112,112,112);stroke-width:1px;"/>
        <g transform="matrix(1,0,0,1,-0.15744,-1.69555)">
            <circle cx="30.511" cy="26.479" r="6.618" style="fill:none;stroke:rgb(112,112,112);stroke-width:1px;"/>
        </g>
        <g transform="matrix(1,0,0,1,39.2066,-1.69555)">
            <circle cx="30.511" cy="26.479" r="6.618" style="fill:none;stroke:rgb(112,112,112);stroke-width:1px;"/>
        </g>
        <g transform="matrix(2.71815,0,0,2.01318,-13.7235,-28.6831)">
            <circle cx="30.511" cy="26.479" r="6.618" style="fill:none;stroke:rgb(112,112,112);stroke-width:0.42px;"/>
        </g>
        <path d="M87.199,11.3L97.467,37.946L107.941,37.946L112.599,22.078L117.409,37.946L127.679,37.946L138.377,11.3L126.213,11.3L122.464,27.377L117.409,11.3L107.941,11.3L103.099,27.377L98.807,11.3L87.199,11.3Z" style="fill:none;stroke:rgb(112,112,112);stroke-width:1px;"/>
        <path d="M148.467,27.377L170.997,27.377C170.997,27.377 172.799,10.066 154.867,10.066C149.198,10.066 136.743,12.237 137.096,24.783C137.364,34.331 145.887,38.833 154.867,38.904C163.847,38.975 170.959,33.047 170.997,29.505L159.136,29.505C155.811,34.764 148.759,31.956 148.467,27.377Z" style="fill:none;stroke:rgb(112,112,112);stroke-width:1px;"/>
    </g>
    <path d="M139.58,90.001C139.622,90.719 139.829,91.269 140.201,91.651C140.573,92.032 141.036,92.223 141.592,92.223C142.006,92.223 142.359,92.116 142.652,91.903C142.944,91.69 143.176,91.349 143.348,90.881L144.514,91.023C144.33,91.692 143.989,92.211 143.492,92.58C142.994,92.949 142.359,93.134 141.586,93.134C140.612,93.134 139.84,92.839 139.27,92.251C138.699,91.662 138.414,90.836 138.414,89.773C138.414,88.674 138.702,87.82 139.279,87.213C139.856,86.606 140.604,86.302 141.523,86.302C142.414,86.302 143.141,86.6 143.705,87.195C144.269,87.79 144.551,88.627 144.551,89.706C144.551,89.771 144.549,89.87 144.545,90.001L139.58,90.001ZM168.424,92.986L167.377,92.986L167.377,92.161C166.955,92.81 166.335,93.134 165.515,93.134C164.985,93.134 164.497,92.99 164.052,92.703C163.606,92.416 163.262,92.015 163.017,91.5C162.773,90.985 162.65,90.393 162.65,89.724C162.65,89.072 162.761,88.48 162.983,87.949C163.204,87.417 163.536,87.01 163.979,86.727C164.423,86.444 164.918,86.302 165.465,86.302C165.867,86.302 166.224,86.385 166.537,86.552C166.851,86.718 167.106,86.934 167.302,87.201L167.302,83.964L168.424,83.964L168.424,92.986ZM52.739,89.718C52.739,88.508 53.082,87.611 53.768,87.029C54.34,86.544 55.038,86.302 55.861,86.302C56.777,86.302 57.525,86.597 58.106,87.185C58.687,87.774 58.977,88.588 58.977,89.626C58.977,90.467 58.849,91.128 58.592,91.611C58.335,92.093 57.961,92.467 57.469,92.734C56.978,93 56.442,93.134 55.861,93.134C54.929,93.134 54.176,92.84 53.601,92.254C53.027,91.667 52.739,90.822 52.739,89.718ZM83.427,89.718C83.427,88.508 83.77,87.611 84.455,87.029C85.028,86.544 85.726,86.302 86.549,86.302C87.464,86.302 88.212,86.597 88.793,87.185C89.374,87.774 89.665,88.588 89.665,89.626C89.665,90.467 89.536,91.128 89.279,91.611C89.022,92.093 88.648,92.467 88.157,92.734C87.666,93 87.13,93.134 86.549,93.134C85.617,93.134 84.864,92.84 84.289,92.254C83.714,91.667 83.427,90.822 83.427,89.718ZM127.662,89.718C127.662,88.508 128.005,87.611 128.69,87.029C129.263,86.544 129.961,86.302 130.784,86.302C131.7,86.302 132.448,86.597 133.029,87.185C133.61,87.774 133.9,88.588 133.9,89.626C133.9,90.467 133.772,91.128 133.514,91.611C133.257,92.093 132.883,92.467 132.392,92.734C131.901,93 131.365,93.134 130.784,93.134C129.852,93.134 129.099,92.84 128.524,92.254C127.95,91.667 127.662,90.822 127.662,89.718ZM101.05,90.001C101.091,90.719 101.298,91.269 101.67,91.651C102.042,92.032 102.506,92.223 103.062,92.223C103.476,92.223 103.829,92.116 104.121,91.903C104.414,91.69 104.646,91.349 104.817,90.881L105.983,91.023C105.8,91.692 105.459,92.211 104.962,92.58C104.464,92.949 103.829,93.134 103.056,93.134C102.082,93.134 101.31,92.839 100.739,92.251C100.169,91.662 99.884,90.836 99.884,89.773C99.884,88.674 100.172,87.82 100.749,87.213C101.325,86.606 102.074,86.302 102.993,86.302C103.883,86.302 104.61,86.6 105.175,87.195C105.739,87.79 106.021,88.627 106.021,89.706C106.021,89.771 106.019,89.87 106.015,90.001L101.05,90.001ZM156.707,90.001C156.749,90.719 156.956,91.269 157.328,91.651C157.7,92.032 158.164,92.223 158.72,92.223C159.133,92.223 159.487,92.116 159.779,91.903C160.072,91.69 160.304,91.349 160.475,90.881L161.641,91.023C161.457,91.692 161.117,92.211 160.619,92.58C160.122,92.949 159.487,93.134 158.713,93.134C157.74,93.134 156.967,92.839 156.397,92.251C155.826,91.662 155.541,90.836 155.541,89.773C155.541,88.674 155.83,87.82 156.406,87.213C156.983,86.606 157.731,86.302 158.651,86.302C159.541,86.302 160.268,86.6 160.832,87.195C161.397,87.79 161.679,88.627 161.679,89.706C161.679,89.771 161.677,89.87 161.672,90.001L156.707,90.001ZM150.275,90.592L151.385,90.734C151.264,91.484 150.953,92.072 150.454,92.497C149.954,92.921 149.341,93.134 148.614,93.134C147.703,93.134 146.97,92.841 146.416,92.257C145.863,91.672 145.586,90.834 145.586,89.743C145.586,89.037 145.705,88.419 145.943,87.89C146.181,87.361 146.544,86.964 147.031,86.699C147.518,86.435 148.047,86.302 148.62,86.302C149.343,86.302 149.934,86.482 150.394,86.841C150.854,87.2 151.149,87.71 151.278,88.37L150.181,88.536C150.077,88.097 149.892,87.767 149.626,87.545C149.361,87.324 149.04,87.213 148.664,87.213C148.096,87.213 147.634,87.413 147.278,87.813C146.923,88.213 146.746,88.846 146.746,89.712C146.746,90.59 146.917,91.228 147.26,91.626C147.602,92.024 148.05,92.223 148.601,92.223C149.044,92.223 149.414,92.09 149.711,91.823C150.008,91.556 150.196,91.146 150.275,90.592ZM65.673,92.986L64.663,92.986L64.663,92.026C64.145,92.765 63.441,93.134 62.551,93.134C62.158,93.134 61.791,93.06 61.45,92.912C61.11,92.765 60.857,92.579 60.692,92.355C60.527,92.132 60.411,91.858 60.344,91.534C60.298,91.316 60.275,90.972 60.275,90.5L60.275,86.45L61.403,86.45L61.403,90.075C61.403,90.654 61.426,91.043 61.472,91.244C61.543,91.536 61.694,91.764 61.924,91.931C62.154,92.097 62.438,92.18 62.776,92.18C63.115,92.18 63.432,92.095 63.729,91.924C64.026,91.754 64.236,91.522 64.359,91.229C64.483,90.936 64.544,90.51 64.544,89.952L64.544,86.45L65.673,86.45L65.673,92.986ZM153.679,86.45L154.814,86.45L154.814,87.312L153.679,87.312L153.679,91.134C153.679,91.45 153.699,91.653 153.739,91.743C153.779,91.833 153.843,91.905 153.933,91.958C154.023,92.012 154.152,92.038 154.319,92.038C154.444,92.038 154.609,92.024 154.814,91.995L154.977,92.974C154.659,93.039 154.375,93.072 154.124,93.072C153.715,93.072 153.397,93.009 153.171,92.881C152.946,92.754 152.787,92.587 152.695,92.38C152.603,92.173 152.557,91.737 152.557,91.072L152.557,87.312L151.73,87.312L151.73,86.45L152.557,86.45L152.557,84.831L153.679,84.167L153.679,86.45ZM136.552,86.45L137.687,86.45L137.687,87.312L136.552,87.312L136.552,91.134C136.552,91.45 136.572,91.653 136.611,91.743C136.651,91.833 136.716,91.905 136.806,91.958C136.896,92.012 137.024,92.038 137.191,92.038C137.317,92.038 137.482,92.024 137.687,91.995L137.85,92.974C137.532,93.039 137.248,93.072 136.997,93.072C136.587,93.072 136.27,93.009 136.044,92.881C135.818,92.754 135.66,92.587 135.568,92.38C135.476,92.173 135.43,91.737 135.43,91.072L135.43,87.312L134.602,87.312L134.602,86.45L135.43,86.45L135.43,84.831L136.552,84.167L136.552,86.45ZM68.556,92.986L67.428,92.986L67.428,86.45L68.444,86.45L68.444,87.441C68.703,86.977 68.942,86.672 69.161,86.524C69.381,86.376 69.622,86.302 69.886,86.302C70.266,86.302 70.652,86.421 71.045,86.659L70.657,87.687C70.381,87.527 70.105,87.447 69.829,87.447C69.583,87.447 69.361,87.52 69.165,87.666C68.968,87.811 68.828,88.013 68.745,88.272C68.619,88.666 68.556,89.096 68.556,89.564L68.556,92.986ZM124.923,92.986L123.794,92.986L123.794,86.45L124.81,86.45L124.81,87.441C125.069,86.977 125.308,86.672 125.528,86.524C125.747,86.376 125.988,86.302 126.252,86.302C126.632,86.302 127.019,86.421 127.411,86.659L127.023,87.687C126.747,87.527 126.471,87.447 126.195,87.447C125.949,87.447 125.727,87.52 125.531,87.666C125.334,87.811 125.194,88.013 125.111,88.272C124.985,88.666 124.923,89.096 124.923,89.564L124.923,92.986ZM93.395,92.986L92.216,92.986L90.179,86.45L91.345,86.45L92.404,90.223L92.799,91.626C92.816,91.556 92.931,91.107 93.144,90.278L94.204,86.45L95.363,86.45L96.36,90.241L96.693,91.491L97.075,90.229L98.216,86.45L99.313,86.45L97.232,92.986L96.059,92.986L95,89.072L94.743,87.958L93.395,92.986ZM108.516,92.986L107.388,92.986L107.388,86.45L108.403,86.45L108.403,87.441C108.662,86.977 108.902,86.672 109.121,86.524C109.341,86.376 109.582,86.302 109.845,86.302C110.226,86.302 110.612,86.421 111.005,86.659L110.616,87.687C110.34,87.527 110.065,87.447 109.789,87.447C109.542,87.447 109.321,87.52 109.124,87.666C108.928,87.811 108.788,88.013 108.704,88.272C108.579,88.666 108.516,89.096 108.516,89.564L108.516,92.986ZM76.644,92.986L75.428,92.986L75.428,83.964L78.894,83.964C79.505,83.964 79.971,83.992 80.292,84.05C80.744,84.124 81.122,84.264 81.427,84.471C81.732,84.679 81.978,84.969 82.164,85.342C82.35,85.716 82.443,86.126 82.443,86.573C82.443,87.34 82.194,87.99 81.697,88.521C81.199,89.052 80.301,89.318 79.001,89.318L76.644,89.318L76.644,92.986ZM116.603,92.986L115.387,92.986L115.387,83.964L118.854,83.964C119.464,83.964 119.93,83.992 120.252,84.05C120.703,84.124 121.082,84.264 121.387,84.471C121.692,84.679 121.937,84.969 122.123,85.342C122.309,85.716 122.402,86.126 122.402,86.573C122.402,87.34 122.154,87.99 121.656,88.521C121.159,89.052 120.26,89.318 118.961,89.318L116.603,89.318L116.603,92.986ZM49.724,92.986L48.508,92.986L48.508,89.164L44.966,83.964L46.445,83.964L48.257,86.684C48.591,87.193 48.903,87.701 49.191,88.21C49.467,87.738 49.801,87.207 50.194,86.616L51.975,83.964L53.391,83.964L49.724,89.164L49.724,92.986ZM163.81,89.724C163.81,90.561 163.99,91.187 164.349,91.601C164.709,92.016 165.133,92.223 165.622,92.223C166.115,92.223 166.534,92.025 166.879,91.629C167.224,91.233 167.396,90.629 167.396,89.817C167.396,88.922 167.221,88.266 166.87,87.847C166.518,87.429 166.086,87.219 165.572,87.219C165.07,87.219 164.651,87.42 164.315,87.822C163.978,88.225 163.81,88.858 163.81,89.724ZM128.822,89.718C128.822,90.555 129.008,91.182 129.38,91.598C129.752,92.015 130.22,92.223 130.784,92.223C131.344,92.223 131.81,92.014 132.182,91.595C132.554,91.177 132.74,90.539 132.74,89.681C132.74,88.873 132.553,88.26 132.179,87.844C131.805,87.428 131.34,87.219 130.784,87.219C130.22,87.219 129.752,87.427 129.38,87.841C129.008,88.255 128.822,88.881 128.822,89.718ZM84.587,89.718C84.587,90.555 84.773,91.182 85.145,91.598C85.517,92.015 85.985,92.223 86.549,92.223C87.109,92.223 87.575,92.014 87.947,91.595C88.319,91.177 88.505,90.539 88.505,89.681C88.505,88.873 88.318,88.26 87.944,87.844C87.57,87.428 87.105,87.219 86.549,87.219C85.985,87.219 85.517,87.427 85.145,87.841C84.773,88.255 84.587,88.881 84.587,89.718ZM53.899,89.718C53.899,90.555 54.085,91.182 54.457,91.598C54.829,92.015 55.297,92.223 55.861,92.223C56.421,92.223 56.887,92.014 57.259,91.595C57.631,91.177 57.817,90.539 57.817,89.681C57.817,88.873 57.63,88.26 57.256,87.844C56.882,87.428 56.417,87.219 55.861,87.219C55.297,87.219 54.829,87.427 54.457,87.841C54.085,88.255 53.899,88.881 53.899,89.718ZM156.77,89.09L160.488,89.09C160.437,88.54 160.295,88.128 160.061,87.853C159.702,87.427 159.236,87.213 158.663,87.213C158.145,87.213 157.709,87.383 157.356,87.724C157.003,88.065 156.808,88.52 156.77,89.09ZM139.643,89.09L143.36,89.09C143.31,88.54 143.168,88.128 142.934,87.853C142.574,87.427 142.108,87.213 141.536,87.213C141.018,87.213 140.582,87.383 140.229,87.724C139.876,88.065 139.68,88.52 139.643,89.09ZM101.112,89.09L104.83,89.09C104.78,88.54 104.638,88.128 104.404,87.853C104.044,87.427 103.578,87.213 103.006,87.213C102.487,87.213 102.052,87.383 101.698,87.724C101.345,88.065 101.15,88.52 101.112,89.09ZM118.954,85.028L116.603,85.028L116.603,88.253L118.979,88.253C119.765,88.253 120.323,88.11 120.653,87.822C120.983,87.535 121.149,87.131 121.149,86.61C121.149,86.233 121.051,85.909 120.857,85.641C120.663,85.372 120.407,85.194 120.089,85.108C119.884,85.055 119.506,85.028 118.954,85.028ZM78.995,85.028L76.644,85.028L76.644,88.253L79.02,88.253C79.805,88.253 80.363,88.11 80.694,87.822C81.024,87.535 81.189,87.131 81.189,86.61C81.189,86.233 81.092,85.909 80.897,85.641C80.703,85.372 80.447,85.194 80.129,85.108C79.925,85.055 79.546,85.028 78.995,85.028Z" style="fill:rgb(112,112,112);fill-rule:nonzero;"/>
    <path d="M180.677,92.986L173.059,92.986L173.059,88.312L180.677,88.312L180.677,92.986ZM220.316,85.704L211.534,85.704L211.534,72.512C211.534,72.512 206.74,75.444 201.436,75.487C194.861,75.541 187.519,72.843 187.519,61.583C187.519,51.313 196.383,48.665 203.502,48.861C209.22,49.019 211.534,51.998 211.534,51.998L211.534,48.861L220.316,48.861L220.316,85.704ZM180.677,83.957L173.059,83.957L173.059,48.04L180.677,48.04L180.677,83.957ZM131.027,58.006L122.128,58.006C120.95,55.407 118.669,53.644 116.051,53.644C112.227,53.644 109.123,57.405 109.123,62.037C109.123,66.669 112.227,70.429 116.051,70.429C118.787,70.429 121.155,68.504 122.281,65.711L130.962,65.711C129.005,71.364 122.954,75.487 115.801,75.487C107.065,75.487 99.973,69.338 99.973,61.764C99.973,54.189 107.065,48.04 115.801,48.04C123.033,48.04 129.14,52.256 131.027,58.006ZM167.214,75.487L158.332,75.487L158.332,59.677C157.213,52.085 147.436,53.841 145.333,58.604L145.333,75.487L137.088,75.487L137.088,49.285L145.333,49.285L145.333,52.383C152.846,45.325 165.777,47.082 167.214,55.982L167.214,75.487ZM71.814,63.821C71.452,69.833 81.897,73.187 84.852,67.473L93.938,67.473C93.902,70.844 87.664,75.554 79.184,75.486C70.703,75.419 62.654,71.134 62.4,62.047C62.067,50.106 73.83,48.04 79.184,48.04C96.073,48.04 94.426,63.735 94.417,63.821L71.814,63.821ZM271.027,63.821C270.664,69.833 281.11,73.187 284.064,67.473L293.151,67.473C293.115,70.844 286.877,75.554 278.397,75.486C269.916,75.419 261.867,71.134 261.613,62.047C261.28,50.106 273.043,48.04 278.397,48.04C295.286,48.04 293.639,63.735 293.63,63.821L271.027,63.821ZM255.878,74.233L247.634,74.233L247.634,71.135C240.12,78.193 227.189,76.436 225.753,67.536L225.753,48.031L234.634,48.031L234.634,63.841C235.753,71.434 245.53,69.677 247.634,64.915L247.634,48.031L255.878,48.031L255.878,74.233ZM53.553,42.101L53.553,49.03L59.111,49.03L59.111,54.047L54.481,54.047C53.787,54.047 53.466,54.367 53.553,55.037L53.553,68.191C53.607,70.046 54.517,70.748 56.041,70.623L59.111,70.623L59.111,75.487L51.841,75.487C47.791,74.923 45.449,73.007 44.961,69.623L44.961,54.047L40.485,54.047L40.485,49.03L44.961,49.03L44.961,42.101L53.553,42.101ZM203.918,55.017C207.935,55.017 211.196,58.37 211.196,62.499C211.196,66.628 207.935,69.98 203.918,69.98C199.901,69.98 196.639,66.628 196.639,62.499C196.639,58.37 199.901,55.017 203.918,55.017ZM71.814,58.794L85.376,58.794C85.376,58.794 84.1,53.332 78.429,53.332C72.759,53.332 71.814,58.794 71.814,58.794ZM271.027,58.794L284.589,58.794C284.589,58.794 283.313,53.332 277.642,53.332C271.971,53.332 271.027,58.794 271.027,58.794Z" style="fill:rgb(112,112,112);"/>
</svg>
