<?xml version="1.0" encoding="UTF-8" standalone="no"?>
<svg
   xmlns:dc="http://purl.org/dc/elements/1.1/"
   xmlns:cc="http://creativecommons.org/ns#"
   xmlns:rdf="http://www.w3.org/1999/02/22-rdf-syntax-ns#"
   xmlns:svg="http://www.w3.org/2000/svg"
   xmlns="http://www.w3.org/2000/svg"
   xmlns:sodipodi="http://sodipodi.sourceforge.net/DTD/sodipodi-0.dtd"
   xmlns:inkscape="http://www.inkscape.org/namespaces/inkscape"
   style="width:90px;height:42px"
   width="90"
   height="42"
   viewBox="0 0 123.59 58.17"
   version="1.1"
   id="svg18"
   sodipodi:docname="raritan.svg"
   inkscape:version="0.92.5 (0.92.5+69)">
  <metadata
     id="metadata24">
    <rdf:RDF>
      <cc:Work
         rdf:about="">
        <dc:format>image/svg+xml</dc:format>
        <dc:type
           rdf:resource="http://purl.org/dc/dcmitype/StillImage" />
      </cc:Work>
    </rdf:RDF>
  </metadata>
  <defs
     id="defs22" />
  <sodipodi:namedview
     pagecolor="#ffffff"
     bordercolor="#666666"
     borderopacity="1"
     objecttolerance="10"
     gridtolerance="10"
     guidetolerance="10"
     inkscape:pageopacity="0"
     inkscape:pageshadow="2"
     inkscape:window-width="1882"
     inkscape:window-height="1016"
     id="namedview20"
     showgrid="false"
     inkscape:zoom="8.2666667"
     inkscape:cx="36.318016"
     inkscape:cy="13.129433"
     inkscape:window-x="38"
     inkscape:window-y="27"
     inkscape:window-maximized="1"
     inkscape:current-layer="svg18" />
  <g
     fill="#231f20"
     id="g6"
     style="fill:#707070;fill-opacity:1">
    <path
       d="M75.34 47.5v2.1h2.22v5.49h2.01V47.5zm-.27 2.1v-2.76h-.48v2.76z"
       id="path2"
       style="fill:#707070;fill-opacity:1" />
    <path
       d="M76.53 55.09v-2.1h-2.21v-5.48h-2.01v7.58zm.27-2.1v2.77h.49v-2.77z"
       id="path4"
       style="fill:#707070;fill-opacity:1" />
  </g>
  <path
     d="M83.98 55.48v-8.19h-1.79v8.19z"
     fill="#ed1c24"
     id="path8"
     style="fill:#707070;fill-opacity:1" />
  <path
     d="M96.57 49.48v6h1.91v-3.06c0-1.5 1.7-1.59 1.7-1.59v-1.45a2.85 2.85 0 0 0-1.71.72v-.61h-1.9m7.9-.01v6h1.84v-3.54a.68.68 0 0 1 1.36 0v3.53h1.8v-4.48c0-.9-1.18-2.23-3.17-.94v-.56h-1.84"
     fill="#ed1c24"
     id="path10"
     style="fill:#707070;fill-opacity:1" />
  <path
     d="M100.62 50.77a3.79 3.79 0 0 1 .85 0c.88 0 .77.75.77.75a2.25 2.25 0 0 0-1-.27 2 2 0 0 0-2 2.18 1.93 1.93 0 0 0 2 2 1.88 1.88 0 0 0 1.14-.35v.38h1.73v-4.07a1.65 1.65 0 0 0-.5-1.41 2.9 2.9 0 0 0-1.7-.6h-1.23v1.4zm.18 2.49a.77.77 0 1 1 .77.77.77.77 0 0 1-.77-.77m11.72.43a1.16 1.16 0 1 1 1.15-1.15 1.15 1.15 0 0 1-1.15 1.15zm0-4a2.68 2.68 0 0 0-2.73 2.84 2.62 2.62 0 0 0 2.71 2.89 1.94 1.94 0 0 0 1-.44v.51h1.85v-8.21h-1.85V50a2.34 2.34 0 0 0-1-.33m-19.29 3.97a1.16 1.16 0 1 1 1.16-1.16 1.16 1.16 0 0 1-1.16 1.16zm.13 2.79c-.85 0-1-.58-1-.58h-2.17c.45 3 5.7 3.11 5.94.24v-6.61h-1.78v.62c-1.23-1.25-4.11-.34-4 2.46.09 2.62 2.87 3.41 4 2.4v.7c0 .79-1 .76-1 .76m-7.14-4.7a1 1 0 0 1 2 0zm1-2.46a3 3 0 0 0-2.89 3.09c0 2.13 1.33 3.35 3.08 3.3A2.72 2.72 0 0 0 90 53.57h-1.85a.92.92 0 0 1-.89.41 1 1 0 0 1-1-1h3.87c.22-2.21-1.21-3.71-2.91-3.71"
     fill="#ed1c24"
     id="path12"
     style="fill:#707070;fill-opacity:1" />
  <path
     d="M 26.8,55.01 26.36,53.7 h -2.61 l -0.45,1.31 h -1.5 l 2.68,-7.37 h 1.13 l 2.69,7.37 z m -1.72,-5.2 -0.93,2.68 H 26 Z m 10.41,4.78 c -0.357399,0.325731 -0.826566,0.501221 -1.31,0.49 -0.514584,0.03279 -1.014628,-0.17834 -1.35,-0.57 v 0.51 h -1.3 v -7.38 h 1.35 v 2.45 c 0.328819,-0.37408 0.813087,-0.573702 1.31,-0.54 0.483434,-0.01122 0.952601,0.164269 1.31,0.49 0.445303,0.667248 0.623753,1.47741 0.5,2.27 0.121436,0.797047 -0.06055,1.61065 -0.51,2.28 z m -1.71,-3.82 c -0.81,0 -0.91,0.66 -0.91,1.54 0,0.88 0.1,1.55 0.91,1.55 0.81,0 0.91,-0.67 0.91,-1.55 0,-0.88 -0.1,-1.54 -0.91,-1.54 z m 6.12,0.32 c -0.571258,-0.668088 -1.663124,-0.205082 -1.58,0.67 v 3.25 H 37 v -5.4 h 1.31 v 0.52 c 0.35158,-0.37601 0.845268,-0.586554 1.36,-0.58 0.477655,-0.02456 0.941993,0.161907 1.27,0.51 z m 4.17,3.92 v -0.47 c -0.340634,0.367384 -0.830512,0.558916 -1.33,0.52 -0.506533,0.03732 -1.005964,-0.136393 -1.38,-0.48 -0.300507,-0.330161 -0.461745,-0.763712 -0.45,-1.21 0,-0.86 0.59,-1.56 1.84,-1.56 H 44 v -0.27 c 0,-0.59 -0.29,-0.85 -1,-0.85 -0.387666,-0.02697 -0.763085,0.141968 -1,0.45 L 41.14,50.3 c 0.489492,-0.552042 1.216741,-0.831753 1.95,-0.75 1.51,0 2.3,0.64 2.3,1.91 v 3.55 z m 0,-2.28 H 43 c -0.49,0 -0.76,0.23 -0.76,0.61 0,0.38 0.25,0.62 0.78,0.62 0.30763,0.04069 0.617772,-0.05418 0.85,-0.26 0.157944,-0.189197 0.230362,-0.435419 0.2,-0.68 z m 5.55,2.28 v -3.26 c 0.140391,-1.326314 -1.930391,-1.326314 -1.79,0 v 3.26 h -1.35 v -5.4 h 1.32 v 0.5 c 0.354066,-0.364044 0.842213,-0.566534 1.35,-0.56 0.470678,-0.01742 0.92851,0.155613 1.27,0.48 0.402654,0.403965 0.613677,0.960628 0.58,1.53 v 3.45 z m 5.52,0 v -0.5 c -0.33129,0.391357 -0.828297,0.60277 -1.34,0.57 -0.489771,0.0133 -0.965923,-0.162127 -1.33,-0.49 -0.462534,-0.664241 -0.658819,-1.477933 -0.55,-2.28 -0.109224,-0.798937 0.08721,-1.609657 0.55,-2.27 0.359915,-0.328155 0.833139,-0.503821 1.32,-0.49 0.499826,-0.03378 0.987162,0.165585 1.32,0.54 v -2.45 h 1.35 v 7.37 z m -1,-4.25 c -0.81,0 -0.91,0.66 -0.91,1.54 0,0.88 0.1,1.55 0.91,1.55 0.81,0 0.92,-0.67 0.92,-1.55 0,-0.88 -0.06,-1.53 -0.88,-1.53 z m 9.32,3.65 c -0.442657,0.445873 -1.052221,0.685345 -1.68,0.66 -0.624986,0.02626 -1.231826,-0.213569 -1.67,-0.66 -0.485963,-0.585008 -0.706919,-1.345678 -0.61,-2.1 -0.0954,-0.755846 0.12937,-1.517173 0.62,-2.1 0.438174,-0.446431 1.045014,-0.68626 1.67,-0.66 0.627779,-0.02534 1.237343,0.214127 1.68,0.66 0.484354,0.581937 0.705282,1.338887 0.61,2.09 0.09704,0.759053 -0.127759,1.524102 -0.62,2.11 z m -1,-3.41 c -0.167941,-0.16342 -0.395896,-0.25026 -0.63,-0.24 -0.231079,-0.0099 -0.4558,0.07711 -0.62,0.24 -0.266024,0.381419 -0.376863,0.849807 -0.31,1.31 -0.06744,0.463376 0.04334,0.935089 0.31,1.32 0.1642,0.162891 0.388921,0.24988 0.62,0.24 0.234104,0.01026 0.462059,-0.07658 0.63,-0.24 0.266664,-0.384911 0.377445,-0.856624 0.31,-1.32 0.05642,-0.465448 -0.06895,-0.934716 -0.35,-1.31 z m 4.12,-0.2 v 4.21 H 65.23 V 50.8 h -0.56 v -1 h 0.56 v -0.67 c -0.04408,-0.880165 0.690849,-1.601053 1.57,-1.54 h 0.77 v 1.14 H 67 c -0.32,0 -0.47,0.18 -0.47,0.49 v 0.59 h 1 v 1 z M 14.56,38.68 9.51,22.82 H 6.09 V 38.68 H 0 V 0 h 9.78 c 7.06,0 9.89,3.42 9.89,11.41 0,4.78 -1,8.2 -4.51,10.11 l 5.76,17.17 z M 9.83,5.48 H 6.09 v 11.85 h 3.74 c 3.26,0 3.75,-2.72 3.75,-5.92 0,-3.2 -0.49,-5.93 -3.75,-5.93 z m 23.26,33.2 v -2.47 c -0.463276,0.731095 -1.052374,1.374363 -1.74,1.9 -0.9465,0.684028 -2.092743,1.035637 -3.26,1 -2.075365,0.126055 -4.082298,-0.765501 -5.38,-2.39 C 21.57,35.37 21,33.21 21,30.31 c -0.09068,-2.422364 0.880861,-4.763569 2.66,-6.41 1.41,-1.25 3.26,-2 6.57,-2 h 2.55 v -4 c 0,-2.12 -1,-3.31 -2.77,-3.31 -0.724697,-0.02778 -1.42309,0.273636 -1.9,0.82 -0.630935,0.736401 -0.943837,1.693091 -0.87,2.66 h -5.78 c -0.08057,-2.312475 0.803195,-4.554487 2.44,-6.19 1.637253,-1.502474 3.777835,-2.337301 6,-2.34 2.246777,-0.1315268 4.449938,0.659444 6.1,2.19 1.733366,1.801876 2.639053,4.243607 2.5,6.74 V 38.68 Z M 32.76,26.02 h -1.9 c -1.077155,-0.135712 -2.162574,0.179059 -3,0.87 -0.759663,0.894644 -1.165222,2.036612 -1.14,3.21 0,2.55 1,4 3,4 1.74,0 3,-1.47 3,-3.8 z M 51.88,15.21 c -2.747823,-0.108618 -4.978998,2.19724 -4.78,4.94 V 38.68 H 41.34 V 10.05 h 5.54 v 3 c 0.670682,-0.921146 1.521143,-1.696766 2.5,-2.28 1.348842,-0.7995106 2.892155,-1.2112915 4.46,-1.19 v 5.63 z m 3.81,-12 c 0.011,-1.74845 1.431515,-3.16003458 3.18,-3.16 1.728953,0.02715527 3.119338,1.4308671 3.13,3.16 0.01119,1.7447029 -1.385476,3.1726029 -3.13,3.2 -1.764106,3.49e-5 -3.191095,-1.4359292 -3.18,-3.2 z M 56,38.68 V 10.81 h 5.76 v 27.87 z m 13.87,-1.74 c -1.79,-1.41 -2.88,-3.59 -2.88,-7 V 15.21 h -3.7 v -4.4 H 67 v -8.1 h 5.76 v 8.1 h 4 v 4.4 h -4 v 14.45 c 0,2.66 1.36,3.86 4.07,3.86 v 5.16 c -2.73,0 -5.01,-0.22 -6.96,-1.74 z m 20.04,1.74 v -2.47 c -0.463444,0.730967 -1.052516,1.374207 -1.74,1.9 -0.9465,0.684028 -2.092743,1.035637 -3.26,1 -2.075365,0.126055 -4.082298,-0.765501 -5.38,-2.39 -1.14,-1.35 -1.73,-3.51 -1.73,-6.41 -0.09068,-2.422364 0.880861,-4.763569 2.66,-6.41 1.41,-1.25 3.26,-2 6.57,-2 h 2.55 v -4 c 0,-2.12 -1,-3.31 -2.77,-3.31 -0.724697,-0.02778 -1.42309,0.273636 -1.9,0.82 -0.663359,0.747579 -0.99214,1.733921 -0.91,2.73 h -5.71 c -0.08057,-2.312475 0.803195,-4.554487 2.44,-6.19 1.637253,-1.502474 3.777835,-2.337301 6,-2.34 2.230003,-0.1448861 4.423553,0.61997 6.08,2.12 1.733366,1.801876 2.639053,4.243607 2.5,6.74 V 38.68 Z M 89.58,26.02 h -1.9 c -1.077155,-0.135712 -2.162574,0.179059 -3,0.87 -0.759663,0.894644 -1.165222,2.036612 -1.14,3.21 0,2.55 1,4 3,4 1.74,0 3,-1.47 3,-3.8 z m 20,12.66 V 18.09 c 0,-2.23 -1.25,-3.31 -2.83,-3.31 -1.58,0 -2.82,1.09 -2.82,3.31 V 38.68 H 98.17 V 10.05 h 5.54 v 2.16 c 0.50866,-0.716507 1.15447,-1.324928 1.9,-1.79 0.87567,-0.5041177 1.86961,-0.7664066 2.88,-0.76 1.99611,-0.1319616 3.93538,0.696498 5.22,2.23 1.14,1.3 1.63,2.88 1.63,6.19 v 20.6 z"
     id="path16"
     inkscape:connector-curvature="0"
     style="fill:#707070;fill-opacity:1"
     sodipodi:nodetypes="cccccccccccccccccccccccccssssscccccccccccccccscsccccscccssccccccccccccccccccccccccccccccsssccccccccccccccccccccccccccccccccssccccccccccsscccsccssscccccccscsccccccccccccccscccccccccccccscccsccccccsccccccccccsccccccccccscsccccccccccccccscccsssccccccccscc" />
</svg>
