<?xml version="1.0" encoding="UTF-8" standalone="no"?>
<!DOCTYPE svg PUBLIC "-//W3C//DTD SVG 1.1//EN" "http://www.w3.org/Graphics/SVG/1.1/DTD/svg11.dtd">
<svg width="100%" height="100%" viewBox="0 0 300 100" version="1.1" xmlns="http://www.w3.org/2000/svg" xmlns:xlink="http://www.w3.org/1999/xlink" xml:space="preserve" xmlns:serif="http://www.serif.com/" style="fill-rule:evenodd;clip-rule:evenodd;stroke-linejoin:round;stroke-miterlimit:1.41421;">
    <path d="M11.453,15.201C14.392,18.215 16.163,22.701 16.687,28.756C23.817,25.759 31.101,23.2 38.911,22.141C52.306,21.438 55.514,26.073 49.297,35.645C43.651,43.107 37.62,50.025 31.576,56.925C23.209,68.73 24.549,77.016 31.576,83.24C43.783,91.027 55.321,92.803 66.346,89.971C58.762,89.39 51.698,87.05 45.367,82.225C40.175,77.466 39.371,71.817 42.242,65.423C53.182,46.909 52.592,46.694 53.656,44.184C56.227,38.124 57.498,32.33 56.672,26.965C55.062,18.368 49.044,14.336 39.862,13.583C30.134,12.591 20.739,13.573 11.453,15.201ZM258.337,83.456L251.857,83.456L251.857,48.508C251.939,36.884 270.881,37.374 271.017,48.508L271.017,62.25C270.442,67.417 267.287,70.171 262.032,70.96L258.337,70.96L258.337,83.456ZM245.911,40.001L245.911,60.664C245.898,68.515 241.195,71.345 236.411,71.381C231.539,71.418 226.648,68.922 226.644,60.664L226.644,40.001L233.116,40.001L233.116,60.664C233.214,66.448 239.562,65.921 239.529,60.664L239.529,40.001L245.911,40.001ZM146.601,57.612C146.583,65.463 139.759,71.345 132.819,71.381C125.752,71.418 118.656,67.066 118.65,58.807L118.65,37.67C119.064,21.512 146.456,21.735 146.601,37.67L146.601,52.898L128.039,52.898L128.039,57.612C128.224,63.7 137.38,62.968 137.343,57.612L146.601,57.612ZM211.902,57.612C211.884,65.463 205.06,71.345 198.12,71.381C191.053,71.418 183.957,67.066 183.951,58.807L183.951,37.67C184.365,21.512 211.757,21.735 211.902,37.67L211.902,57.612ZM112.418,71.381L103.172,71.381L103.172,25.62L112.418,25.62L112.418,71.381ZM153.098,7.319L162.248,7.319L162.248,71.381L153.098,71.381L153.098,7.319ZM168.567,7.319L177.717,7.319L177.717,71.381L168.567,71.381L168.567,7.319ZM87.557,71.381L78.016,71.381L78.016,40.422C78.35,31.57 82.814,26.208 92.21,25.62L96.805,25.62L96.805,34.768L92.21,34.768C89.463,34.804 87.752,36.132 87.557,39.35L87.557,71.381ZM67.775,71.381L42.207,71.381C42.293,68.26 44.324,64.204 48.782,57.356C52.633,51.022 56.003,43.277 57.672,36.509C60.185,24.217 56.237,14.646 40.315,12.149C29.491,11.11 18.582,12.102 7.615,14.472C12.017,16.905 14.55,20.377 15.454,31.046C21.986,27.937 29.008,25.402 36.924,23.916C53.356,22.146 53.568,28.442 45.97,37.945C40.961,44.122 35.129,50.221 29.953,56.618C26.332,61.476 24.665,66.404 24.335,71.381L3.569,71.381L3.569,7.319L67.775,7.319L67.775,71.381ZM283.275,61.714C283.275,61.724 283.183,64.946 287.038,64.818C289.777,64.727 291.06,59.274 287.038,58.745C284.712,58.439 276.694,57.885 276.82,49.176C276.997,36.944 295.92,36.843 296,49.176L289.649,49.176C289.678,47.73 286.988,43.842 283.839,47.684C282.768,48.989 282.799,52.157 287.038,52.378C291.278,52.6 295.983,55.351 296,61.714C296.034,74.473 276.821,73.845 276.82,61.714L283.275,61.714ZM261.437,64.802C263.154,64.634 264.325,63.767 264.569,61.714L264.569,48.508C264.492,45.673 258.372,45.252 258.337,48.508L258.337,64.802L261.437,64.802ZM193.34,57.872C193.483,63.657 202.692,63.129 202.644,57.872L202.644,38.523C202.488,33.578 193.381,34.038 193.34,38.523L193.34,57.872ZM128.039,43.872L137.343,43.872L137.343,38.523C137.187,33.578 128.08,34.038 128.039,38.523L128.039,43.872ZM103.172,7.319L112.418,7.319L112.418,16.244L103.172,16.244L103.172,7.319Z" style="fill:rgb(112,112,112);"/>
</svg>
