<?xml version="1.0" encoding="UTF-8" standalone="no"?><!DOCTYPE svg PUBLIC "-//W3C//DTD SVG 1.1//EN" "http://www.w3.org/Graphics/SVG/1.1/DTD/svg11.dtd"><svg width="100%" height="100%" viewBox="0 0 300 100" version="1.1" xmlns="http://www.w3.org/2000/svg" xmlns:xlink="http://www.w3.org/1999/xlink" xml:space="preserve" xmlns:serif="http://www.serif.com/" style="fill-rule:evenodd;clip-rule:evenodd;stroke-linejoin:round;stroke-miterlimit:1.41421;"><path d="M116.061,78.917c-13.04,19.751 -43.173,23.083 -39.044,-2.917l7.685,0l1.389,-3.81l-7.718,0c0.295,-1.474 0.969,-2.325 1.674,-3.723l6.868,0l0.963,-3.401l-5.531,0c14.375,-19.251 42.362,-20.668 38.901,3.006l-9.565,0l-1.033,3.603l9.217,0l-1.524,3.634l-8.531,0l-1.023,3.608l7.272,0Zm98.711,-6.478l6.698,-6.828l0,3.859l5.263,0l0,2.969l-5.263,0l0,9.754c1.065,2.795 3.454,2.427 6.351,0.846l0,3.078c-4.72,2.144 -8.207,1.576 -9.954,-2.823l0,-10.855l-3.095,0Zm-43.557,6.284l12.234,0c-0.837,-9.267 -8.026,-11.836 -13.304,-7.336c-4.161,3.548 -2.867,12.486 1.838,14.949c2.794,1.463 7.506,1.433 11.028,-1.067l0,-3.476c-6.17,3.879 -10.952,2.489 -11.796,-3.07Zm90.406,8.298l-3.251,0l0,-17.424l3.251,0l0,17.424Zm-115.23,-26.462l0,3.429l-10.987,0l0,7.97l10.356,0l0,3.531l-10.356,0l0,7.997l11.423,0l0,3.454l-15.456,0l0,-26.381l15.02,0Zm137.887,13.623l0,-3.653c0,0 -12.956,-5.586 -13.644,7.437c-0.681,12.87 13.644,8.105 13.644,8.105l0,-3.103c-13.257,6.098 -14.327,-15.946 0,-8.786Zm-78.537,0l0,-3.653c0,0 -12.956,-5.586 -13.644,7.437c-0.681,12.87 13.644,8.105 13.644,8.105l0,-3.103c-13.257,6.098 -14.327,-15.946 0,-8.786Zm-46.742,12.745l-3.456,0l0,-26.368l3.456,0l0,26.368Zm81.146,-17.457l0,3.725c2.65,-4.899 5.741,-4.99 9.133,-1.792l-2.084,2.779c-2.872,-2.81 -5.164,-1.709 -7.049,2.126l0,10.469l-3.679,0l0,-17.307l3.679,0Zm-124.888,-10.224l-11.212,0c-5.09,1.183 -8.076,3.926 -9.484,7.841l-2.393,10.214c-0.213,1.102 -0.855,1.78 -1.87,2.096l-5.896,0l-1.603,5.803l11.044,0c5.651,-0.813 10.027,-3.505 11.02,-11.172c0.638,-3.247 1.2,-6.544 2.673,-9.248l6.309,0l1.412,-5.534Zm55.958,17.028l8.697,0c0,0 -0.691,-4.165 -4.061,-4.165c-3.37,0 -4.636,4.165 -4.636,4.165Zm87.155,-10.244c-1.134,-2.048 0.152,-3.973 3.251,-3.251c0.906,1.511 -0.169,4.316 -3.251,3.251Zm4.654,-24.536c-2.858,-27.727 -33.373,-18.944 -32.46,0c0.668,13.863 20.383,18.783 31.503,10.256l0,-6.217c-9.763,8.251 -20.969,4.312 -21.2,-4.039l22.157,0Zm-85.881,0c-2.858,-27.727 -33.373,-18.944 -32.46,0c0.668,13.863 20.383,18.783 31.503,10.256l0,-6.217c-9.764,8.251 -20.969,4.312 -21.2,-4.039l22.157,0Zm49.337,13.665l-9.603,0l0,-2.417c0,0 -8.926,7.213 -17.11,0c-9.394,-8.279 -5.789,-20.35 0,-25.418c6.408,-5.612 17.11,-1.737 17.11,-1.737l0,-15.94l9.603,0l0,45.512Zm-187.785,-33.495l0,-8.808c0,0 -24.862,-11.096 -32.492,6.38c-3.079,7.052 4.998,15.565 14.2,17.761c15.011,3.583 7.828,10.621 2.764,10.296c-11.785,-0.756 -16.007,-5.761 -16.007,-5.761l0,9.691c0.173,2.449 16.47,6.864 26.717,1.876c7.835,-3.814 9.155,-14.421 2.913,-20.552c-3.455,-3.394 -10.685,-6.236 -13.623,-6.461c-6.494,-0.496 -9.782,-10.238 4.481,-8.674c2.675,0.293 11.047,4.252 11.047,4.252Zm31.933,4.036l0,7.183c-24.729,-9.558 -21.23,24.629 0,14.018l0,6.984c-40.073,10.649 -33.469,-40.589 0,-28.185Zm119.637,29.525l-9.589,0l0,-30.75l9.589,0l0,30.75Zm-79.898,-10.143l0,-20.598l9.894,0l0,3.969c5.576,-7.677 18.256,-6.425 20.913,5.049l0,21.654c-5.061,0.101 -4.324,-0.008 -9.803,0l0,-19.462c-1.904,-6.83 -8.753,-6.156 -11.11,0l0,14.307c-2.764,-2.226 -6.009,-3.923 -9.894,-4.919Zm166.876,9.822l-9.893,0l0,-30.482l9.893,0l0,7.652c5.577,-7.677 8.55,-11.477 16.002,-5.028l-2.868,8.961c-5.973,-6.381 -10.776,-1.361 -13.134,4.795l0,14.102Zm-192.241,0l-9.893,0l0,-45.098l9.893,0l0,18.96c5.576,-7.677 18.256,-6.425 20.913,5.049l0,11.58c-3.674,-0.399 -6.886,0.862 -9.802,3.407l0,-12.795c-1.905,-6.83 -8.754,-6.156 -11.111,0l0,18.897Zm131.875,-22.743l0,14.885c-17.894,11.313 -16.982,-24.764 0,-14.885Zm37.186,4.097c-1.52,-8.814 -11.367,-8.14 -13.013,0l13.013,0Zm-85.882,0c-1.519,-8.814 -11.366,-8.14 -13.012,0l13.012,0Zm12.495,-17.642c-4.2,-4.718 5.654,-11.973 9.589,-8.306c3.536,3.295 -4.853,13.624 -9.589,8.306Z" style="fill:#757575;"/></svg>