<?xml version="1.0" encoding="UTF-8" standalone="no"?>
<svg
   xmlns:dc="http://purl.org/dc/elements/1.1/"
   xmlns:cc="http://creativecommons.org/ns#"
   xmlns:rdf="http://www.w3.org/1999/02/22-rdf-syntax-ns#"
   xmlns:svg="http://www.w3.org/2000/svg"
   xmlns="http://www.w3.org/2000/svg"
   xmlns:sodipodi="http://sodipodi.sourceforge.net/DTD/sodipodi-0.dtd"
   xmlns:inkscape="http://www.inkscape.org/namespaces/inkscape"
   id="Layer_1"
   data-name="Layer 1"
   viewBox="0 0 419.86 98.09"
   version="1.1"
   sodipodi:docname="sel.svg"
   inkscape:version="0.92.5 (2060ec1f9f, 2020-04-08)">
  <metadata
     id="metadata996">
    <rdf:RDF>
      <cc:Work
         rdf:about="">
        <dc:format>image/svg+xml</dc:format>
        <dc:type
           rdf:resource="http://purl.org/dc/dcmitype/StillImage" />
      </cc:Work>
    </rdf:RDF>
  </metadata>
  <sodipodi:namedview
     pagecolor="#ffffff"
     bordercolor="#666666"
     borderopacity="1"
     objecttolerance="10"
     gridtolerance="10"
     guidetolerance="10"
     inkscape:pageopacity="0"
     inkscape:pageshadow="2"
     inkscape:window-width="2800"
     inkscape:window-height="1672"
     id="namedview994"
     showgrid="false"
     inkscape:zoom="2.0935551"
     inkscape:cx="209.92999"
     inkscape:cy="49.044998"
     inkscape:window-x="80"
     inkscape:window-y="54"
     inkscape:window-maximized="1"
     inkscape:current-layer="Layer_1" />
  <defs
     id="defs987">
    <style
       id="style985">.cls-1{fill:#fff;}</style>
  </defs>
  <g
     id="g1543"
     transform="matrix(0.86864205,0,0,0.86864205,27.575967,6.446792)"
     style="stroke-width:1.15122223">
    <path
       style="fill:#707070;fill-opacity:1;stroke-width:1.15122223"
       id="path989"
       d="m 16.98,9.41 a 7.58,7.58 0 0 0 -7.57,7.57 v 64.18 a 7.58,7.58 0 0 0 7.57,7.57 h 135.2 a 7.57,7.57 0 0 0 7.57,-7.57 V 16.95 a 7.58,7.58 0 0 0 -7.57,-7.54 z m 135.19,88.7 H 16.98 a 17,17 0 0 1 -17,-17 V 16.95 a 17,17 0 0 1 17,-17 h 135.2 a 17,17 0 0 1 17,17 v 64.18 a 17,17 0 0 1 -17,17 z"
       class="cls-1"
       inkscape:connector-curvature="0" />
    <path
       style="fill:#707070;fill-opacity:1;stroke-width:1.15122223"
       id="path991"
       d="m 145.51,66.67 h -21 V 24.11 a 2.54,2.54 0 0 0 -2.54,-2.54 h -4.74 a 2.54,2.54 0 0 0 -2.57,2.54 v 49.85 a 2.54,2.54 0 0 0 2.55,2.54 h 28.33 a 2.55,2.55 0 0 0 2.54,-2.54 v -4.73 a 2.56,2.56 0 0 0 -2.57,-2.56 z M 105.66,24.12 a 2.54,2.54 0 0 0 -2.55,-2.54 H 74.78 a 2.56,2.56 0 0 0 -2.55,2.54 v 49.84 a 2.55,2.55 0 0 0 2.55,2.54 h 28.33 a 2.55,2.55 0 0 0 2.54,-2.54 v -4.73 a 2.55,2.55 0 0 0 -2.54,-2.55 h -21 V 53.95 H 93.63 A 2.55,2.55 0 0 0 96.1,51.41 V 46.67 A 2.55,2.55 0 0 0 93.58,44.13 H 82.07 V 31.41 h 21 a 2.55,2.55 0 0 0 2.59,-2.57 z M 63.12,58.59 a 12.57,12.57 0 0 0 -0.86,-3.49 16.62,16.62 0 0 0 -9,-8.72 41.61,41.61 0 0 0 -7.67,-2 c -1.62,-0.33 -3.24,-0.64 -4.85,-1 a 15.75,15.75 0 0 1 -3.88,-1.3 c -1.57,-0.83 -3.12,-1.67 -3.75,-3.42 a 4.45,4.45 0 0 1 0.36,-3.62 8.8,8.8 0 0 1 4.06,-3.18 13.19,13.19 0 0 1 11.13,0.13 10.18,10.18 0 0 1 1.3,0.82 13.9,13.9 0 0 1 2.48,2.36 7.46,7.46 0 0 0 1.93,1.76 5.49,5.49 0 0 0 2.9,0.64 c 1.68,0 4,-0.26 5,-1.83 a 2.8,2.8 0 0 0 0.47,-1.33 6.37,6.37 0 0 0 -0.28,-1.9 9.8,9.8 0 0 0 -1.43,-2.91 20.78,20.78 0 0 0 -3.09,-3.39 c -0.29,-0.25 -0.61,-0.45 -0.91,-0.68 a 24.77,24.77 0 0 0 -16.88,-4.58 24.49,24.49 0 0 0 -8.79,2.83 17.84,17.84 0 0 0 -5.7,5.07 14.58,14.58 0 0 0 -2.84,9 14.14,14.14 0 0 0 3.41,8.73 15.49,15.49 0 0 0 3.56,3.05 c 4.06,2.31 11,3.85 16.6,5.18 2,0.49 3.93,0.91 5.52,2.38 a 4.84,4.84 0 0 1 1.13,1.86 c 1,3 -1.37,5.5 -3.78,6.79 a 13.66,13.66 0 0 1 -3.89,1.27 14.61,14.61 0 0 1 -5.11,-0.06 12.06,12.06 0 0 1 -3.77,-1.22 9.51,9.51 0 0 1 -3,-3.08 6.72,6.72 0 0 0 -0.9,-1.22 4.75,4.75 0 0 0 -3.39,-1 13.06,13.06 0 0 0 -2.2,0.23 8.28,8.28 0 0 0 -1.9,0.55 2.81,2.81 0 0 0 -1.44,1.37 3.87,3.87 0 0 0 -0.3,1.81 4.87,4.87 0 0 0 0.05,0.49 6.93,6.93 0 0 0 0.92,2.56 18,18 0 0 0 4,4.73 c 0.5,0.4 1,0.78 1.52,1.14 a 19.29,19.29 0 0 0 2.73,1.58 25.6,25.6 0 0 0 10.16,2.28 24.82,24.82 0 0 0 6,-0.76 20.11,20.11 0 0 0 9.34,-4.9 16.11,16.11 0 0 0 2,-2.3 16.49,16.49 0 0 0 3.04,-10.72 z M 194.39,26.41 a 9.84,9.84 0 0 1 -8.25,-3.85 l 3.06,-2.73 a 6.88,6.88 0 0 0 5.46,2.43 c 2.52,0 3.7,-0.7 3.7,-2.3 0,-1.36 -0.73,-2 -4.73,-2.88 -4,-0.88 -6.64,-2.15 -6.64,-6.34 0,-3.85 3.4,-6.21 7.58,-6.21 a 10.14,10.14 0 0 1 7.73,3.33 l -3.06,3 a 6.47,6.47 0 0 0 -4.82,-2.18 c -2.27,0 -3,1 -3,1.91 0,1.33 0.91,1.76 4.27,2.55 3.36,0.79 7.09,1.94 7.09,6.55 -0.05,4 -2.6,6.72 -8.39,6.72 z m 24.8,-15.37 a 4,4 0 0 0 -3.88,-2.3 c -3.18,0 -5,2.79 -5,6.73 0,3.94 1.85,6.73 5,6.73 1.91,0 3,-0.82 4.15,-2.7 l 3.58,2.12 a 8.11,8.11 0 0 1 -7.82,4.79 c -5.55,0 -9.28,-4.24 -9.28,-10.94 0,-6.46 3.88,-10.94 9.43,-10.94 a 8,8 0 0 1 7.76,4.7 z m 21.13,15.04 v -8.91 h -8.66 v 8.91 h -4.25 V 4.86 h 4.25 v 8.13 h 8.7 V 4.86 h 4.24 v 21.22 h -4.24 z m 27.74,0 h -4.15 L 261.3,15.17 c -0.3,-1.27 -0.61,-2.85 -0.73,-3.64 a 36.69,36.69 0 0 1 -0.7,3.64 l -2.67,10.91 h -4 L 248.77,4.86 h 4.43 l 1.85,10.34 c 0.18,1 0.42,2.61 0.52,3.49 0.15,-0.88 0.49,-2.46 0.73,-3.49 l 2.49,-10.34 h 3.7 l 2.52,10.34 c 0.24,1 0.58,2.61 0.73,3.49 0.09,-0.88 0.33,-2.49 0.52,-3.49 l 1.85,-10.34 h 4.37 z m 8.66,0 V 4.86 h 14.74 v 4.15 h -10.49 v 3.67 h 6.09 v 4.12 h -6.09 v 5.12 h 10.94 v 4.15 h -15.19 z m 20.01,0 V 4.86 h 4.24 V 26.08 Z M 315.66,9.04 v 17 h -4.2 v -17 h -6.09 V 4.86 h 16.43 v 4.18 z m 8.78,17.04 v -3.76 l 9.12,-10.91 c 0.67,-0.82 1.88,-2.21 2.42,-2.76 -0.85,0 -3.06,0.06 -4.3,0.06 h -6.64 V 4.86 h 16 v 3.76 l -9,10.88 c -0.67,0.82 -1.88,2.21 -2.42,2.76 0.85,0 3.06,-0.06 4.3,-0.06 h 7.31 v 3.88 z m 21.52,0 V 4.86 h 14.7 V 9.01 H 350.2 v 3.67 h 6.09 v 4.12 h -6.09 v 5.12 h 10.94 v 4.15 h -15.18 z m 32.01,0 -3.79,-7.67 h -4.27 v 7.64 h -4.25 V 4.86 h 9.88 c 4,0 7.31,2.21 7.31,6.73 0,3.18 -1.36,5.18 -4.06,6.24 l 4.06,8.25 z m -2.52,-17.1 h -5.55 v 5.43 h 5.55 c 2,0 3,-0.91 3,-2.76 0,-1.85 -1.12,-2.67 -3,-2.67 z M 187.51,59.65 V 38.41 h 14.73 v 4.15 h -10.49 v 3.67 h 6.09 v 4.18 h -6.09 v 5.12 h 10.91 v 4.15 h -15.15 z m 33.1,0 -7.79,-11.58 c -0.52,-0.79 -1.21,-1.85 -1.49,-2.39 0,0.79 0.06,3.46 0.06,4.64 v 9.34 h -4.18 V 38.41 h 4.06 l 7.52,11.22 c 0.52,0.79 1.21,1.85 1.49,2.4 0,-0.79 -0.06,-3.46 -0.06,-4.64 v -8.98 h 4.18 v 21.24 z m 17.4,0.34 c -5.55,0 -9.28,-4.24 -9.28,-10.94 0,-6.46 3.88,-10.94 9.43,-10.94 4.34,0 6.64,2 8,5.31 l -4,1.67 c -0.79,-1.58 -1.76,-2.76 -4.06,-2.76 -3.18,0 -5,2.79 -5,6.73 0,3.94 1.85,6.79 5,6.79 2.91,0 3.91,-1.37 4.15,-3.21 h -3.37 v -4 h 7.61 v 2.77 c 0.04,5.48 -3.57,8.58 -8.48,8.58 z m 13.3,-0.34 V 38.41 h 4.24 v 21.24 z m 23.41,0 -7.79,-11.58 c -0.51,-0.79 -1.21,-1.85 -1.49,-2.39 0,0.79 0.06,3.46 0.06,4.64 v 9.34 h -4.18 V 38.41 h 4.06 l 7.52,11.22 c 0.52,0.79 1.21,1.85 1.49,2.4 0,-0.79 -0.06,-3.46 -0.06,-4.64 v -8.98 h 4.18 v 21.24 z m 9.24,0 V 38.41 h 14.7 v 4.15 h -10.45 v 3.67 h 6.09 v 4.18 h -6.09 v 5.12 h 10.94 v 4.15 h -15.19 z m 19.7,0 V 38.41 h 14.73 v 4.15 h -10.48 v 3.67 H 314 v 4.18 h -6.09 v 5.12 h 10.94 v 4.15 h -15.19 z m 32,0 -3.79,-7.64 h -4.21 v 7.64 h -4.25 V 38.41 h 9.88 c 4,0 7.31,2.21 7.31,6.73 0,3.18 -1.36,5.18 -4.06,6.24 l 4.06,8.25 h -4.94 z m -2.52,-17.1 h -5.48 v 5.46 h 5.55 c 2,0 3,-0.91 3,-2.76 0,-1.85 -1.17,-2.69 -3.05,-2.69 z m 12.17,17.1 V 38.41 h 4.24 v 21.24 z m 23.41,0 -7.79,-11.58 c -0.51,-0.79 -1.21,-1.85 -1.48,-2.39 0,0.79 0.06,3.46 0.06,4.64 v 9.34 h -4.18 V 38.41 h 4.06 l 7.52,11.22 c 0.52,0.79 1.21,1.85 1.49,2.4 0,-0.79 -0.06,-3.46 -0.06,-4.64 v -8.98 h 4.18 v 21.24 h -3.79 z m 17.4,0.34 c -5.55,0 -9.28,-4.24 -9.28,-10.94 0,-6.46 3.88,-10.94 9.43,-10.94 4.33,0 6.64,2 8,5.31 l -4,1.67 c -0.79,-1.58 -1.76,-2.76 -4.06,-2.76 -3.18,0 -5,2.79 -5,6.73 0,3.94 1.85,6.79 5,6.79 2.91,0 3.91,-1.37 4.15,-3.21 h -3.37 v -4 h 7.67 v 2.77 c 0,5.48 -3.63,8.58 -8.54,8.58 z M 187.51,93.23 V 72.01 h 4.24 v 17 h 10.64 v 4.18 h -14.88 z m 32.92,0 -1.67,-4.73 H 211 l -1.67,4.73 h -4.55 l 8.13,-21.22 h 4.12 l 8.06,21.22 h -4.67 z m -4.49,-12.61 c -0.43,-1.24 -0.85,-2.52 -1.06,-3.3 -0.21,0.79 -0.64,2.06 -1.06,3.3 l -1.37,3.85 h 4.85 z m 22.72,12.61 h -9.64 V 72.01 h 9.73 c 4.12,0 6.73,2 6.73,5.61 a 4.66,4.66 0 0 1 -2.24,4.12 4.85,4.85 0 0 1 3,4.64 c -0.02,4.45 -3.02,6.85 -7.58,6.85 z m -0.09,-17.31 h -5.4 v 4 h 5.61 c 1.76,0 2.4,-0.82 2.4,-2 0.01,-1.3 -0.75,-2 -2.6,-2 z m 0.24,7.79 h -5.64 v 5.49 h 5.64 c 2.06,0 3,-1.09 3,-2.76 0.05,-1.82 -0.92,-2.73 -2.98,-2.73 z m 19.69,9.85 c -5.55,0 -9.34,-4.06 -9.34,-10.91 0,-6.85 3.85,-11 9.4,-11 5.55,0 9.31,4.06 9.31,10.91 0,6.85 -3.85,11 -9.37,11 z m 0,-17.67 c -3,0 -4.94,2.39 -4.94,6.7 0,4.31 2.06,6.76 5,6.76 2.94,0 4.94,-2.4 4.94,-6.7 0,-4.3 -2.06,-6.76 -5.03,-6.76 z m 25.95,17.34 -3.79,-7.64 h -4.27 v 7.64 h -4.25 V 72.01 h 9.88 c 4,0 7.31,2.21 7.31,6.73 0,3.18 -1.36,5.18 -4.06,6.25 l 4.06,8.25 h -4.88 z m -2.52,-17.1 h -5.55 v 5.46 h 5.55 c 2,0 3,-0.91 3,-2.76 0,-1.85 -1.12,-2.7 -3,-2.7 z m 25.52,17.1 -1.67,-4.73 h -7.76 l -1.67,4.73 h -4.55 l 8.12,-21.22 h 4.12 l 8.06,21.22 h -4.67 z m -4.49,-12.61 c -0.42,-1.24 -0.85,-2.52 -1.06,-3.3 -0.21,0.79 -0.64,2.06 -1.06,3.3 l -1.36,3.85 h 4.85 z m 19.2,-4.43 v 17 h -4.24 v -17 h -6.09 v -4.18 h 16.43 v 4.18 z m 17.31,17.37 c -5.55,0 -9.34,-4.06 -9.34,-10.91 0,-6.85 3.85,-11 9.4,-11 5.55,0 9.31,4.06 9.31,10.91 0,6.85 -3.86,11 -9.37,11 z m 0,-17.67 c -3,0 -4.94,2.39 -4.94,6.7 0,4.31 2.06,6.76 5,6.76 2.94,0 4.94,-2.4 4.94,-6.7 0,-4.3 -2.06,-6.76 -5.03,-6.76 z m 25.94,17.34 -3.75,-7.64 h -4.27 v 7.64 h -4.25 V 72.01 h 9.88 c 4,0 7.31,2.21 7.31,6.73 0,3.18 -1.36,5.18 -4.06,6.25 l 4.06,8.25 h -4.88 z m -2.52,-17.1 h -5.55 v 5.46 h 5.55 c 2,0 3,-0.91 3,-2.76 0,-1.85 -1.11,-2.7 -2.99,-2.7 z m 12.16,17.1 V 72.01 h 4.24 v 21.22 z m 10.01,0 V 72.01 h 14.73 v 4.15 H 389.3 v 3.67 h 6.09 v 4.12 h -6.09 v 5.12 h 10.94 v 4.15 h -15.18 z m 26.46,0.33 a 9.84,9.84 0 0 1 -8.25,-3.85 l 3.06,-2.73 a 6.88,6.88 0 0 0 5.43,2.43 c 2.52,0 3.7,-0.7 3.7,-2.3 0,-1.36 -0.73,-2 -4.73,-2.88 -4,-0.88 -6.64,-2.15 -6.64,-6.34 0,-3.85 3.4,-6.21 7.58,-6.21 a 10.14,10.14 0 0 1 7.73,3.33 l -3.06,3 a 6.47,6.47 0 0 0 -4.82,-2.18 c -2.27,0 -3,1 -3,1.91 0,1.33 0.91,1.76 4.27,2.55 3.36,0.79 7.09,1.94 7.09,6.55 -0.02,3.99 -2.57,6.72 -8.36,6.72 z"
       class="cls-1"
       inkscape:connector-curvature="0" />
  </g>
</svg>
