<?xml version="1.0" encoding="UTF-8" standalone="no"?>
<!-- Created with Inkscape (http://www.inkscape.org/) -->

<svg
   xmlns:dc="http://purl.org/dc/elements/1.1/"
   xmlns:cc="http://creativecommons.org/ns#"
   xmlns:rdf="http://www.w3.org/1999/02/22-rdf-syntax-ns#"
   xmlns:svg="http://www.w3.org/2000/svg"
   xmlns="http://www.w3.org/2000/svg"
   xmlns:sodipodi="http://sodipodi.sourceforge.net/DTD/sodipodi-0.dtd"
   xmlns:inkscape="http://www.inkscape.org/namespaces/inkscape"
   width="200"
   height="200"
   viewBox="0 0 52.916665 52.916668"
   version="1.1"
   id="svg8"
   inkscape:version="0.92.5 (2060ec1f9f, 2020-04-08)"
   sodipodi:docname="lorawan.svg"
   inkscape:dataloss="true">
  <defs
     id="defs2" />
  <sodipodi:namedview
     id="base"
     pagecolor="#ffffff"
     bordercolor="#666666"
     borderopacity="1.0"
     inkscape:pageopacity="0.0"
     inkscape:pageshadow="2"
     inkscape:zoom="2.8"
     inkscape:cx="284.19822"
     inkscape:cy="133.15014"
     inkscape:document-units="px"
     inkscape:current-layer="layer1"
     showgrid="false"
     units="px"
     showguides="true"
     inkscape:guide-bbox="true"
     inkscape:window-width="2800"
     inkscape:window-height="1672"
     inkscape:window-x="80"
     inkscape:window-y="54"
     inkscape:window-maximized="1">
    <sodipodi:guide
       position="5.2916666,16.370259"
       orientation="1,0"
       id="guide815"
       inkscape:locked="false"
       inkscape:label=""
       inkscape:color="rgb(0,0,255)" />
    <sodipodi:guide
       position="47.625,14.499372"
       orientation="1,0"
       id="guide817"
       inkscape:locked="false"
       inkscape:label=""
       inkscape:color="rgb(0,0,255)" />
    <sodipodi:guide
       position="-11.759859,5.2916666"
       orientation="0,1"
       id="guide819"
       inkscape:locked="false"
       inkscape:label=""
       inkscape:color="rgb(0,0,255)" />
    <sodipodi:guide
       position="-13.096206,47.625"
       orientation="0,1"
       id="guide821"
       inkscape:locked="false"
       inkscape:label=""
       inkscape:color="rgb(0,0,255)" />
  </sodipodi:namedview>
  <metadata
     id="metadata5">
    <rdf:RDF>
      <cc:Work
         rdf:about="">
        <dc:format>image/svg+xml</dc:format>
        <dc:type
           rdf:resource="http://purl.org/dc/dcmitype/StillImage" />
        <dc:title></dc:title>
      </cc:Work>
    </rdf:RDF>
  </metadata>
  <g
     inkscape:label="Layer 1"
     inkscape:groupmode="layer"
     id="layer1"
     transform="translate(0,-244.08332)">
    <g
       aria-label="SNMP"
       style="font-style:normal;font-variant:normal;font-weight:normal;font-stretch:normal;font-size:4.60109949px;line-height:1.25;font-family:'Open Sans';-inkscape-font-specification:'Open Sans';letter-spacing:0px;word-spacing:0px;fill:#000000;fill-opacity:1;stroke:none;stroke-width:0.26458332"
       id="text894">
      <path
         d="m 12.374656,272.88175 q 0,1.42346 -1.028058,2.24303 -1.020869,0.81957 -2.8469306,0.81957 -1.682277,0 -2.9763362,-0.63265 v -2.07049 q 1.0640042,0.47448 1.7973044,0.66859 0.7404895,0.19411 1.351573,0.19411 0.7333003,0 1.121518,-0.28038 0.3954074,-0.28038 0.3954074,-0.83395 0,-0.30913 -0.172542,-0.54638 -0.1725409,-0.24443 -0.5104341,-0.4673 -0.330704,-0.22286 -1.3587622,-0.71173 -0.9633552,-0.45292 -1.4450328,-0.86989 -0.4816776,-0.41698 -0.7692463,-0.97055 -0.2875687,-0.55357 -0.2875687,-1.29406 0,-1.39471 0.9417875,-2.19271 0.9489768,-0.798 2.6168754,-0.798 0.8195712,0 1.5600602,0.19411 0.747679,0.19411 1.56006,0.54638 l -0.718921,1.7326 q -0.841139,-0.34508 -1.394709,-0.48168 -0.5463803,-0.13659 -1.0783824,-0.13659 -0.6326512,0 -0.9705445,0.29475 -0.3378932,0.29476 -0.3378932,0.76925 0,0.29476 0.1365951,0.51762 0.1365952,0.21568 0.4313531,0.42417 0.3019472,0.2013 1.416276,0.7333 1.4737899,0.70454 2.0201699,1.41627 0.546381,0.70455 0.546381,1.73261 z"
         style="font-style:normal;font-variant:normal;font-weight:bold;font-stretch:normal;font-size:14.72351837px;font-family:'Open Sans';-inkscape-font-specification:'Open Sans Bold';stroke-width:0.26458332"
         id="path896" />
      <path
         d="m 23.604214,275.80057 h -2.832551 l -4.572343,-7.95128 h -0.0647 q 0.136595,2.10644 0.136595,3.0051 v 4.94618 h -1.991413 v -10.51064 h 2.810984 l 4.565153,7.87219 h 0.05033 q -0.107838,-2.04892 -0.107838,-2.89725 v -4.97494 h 2.005791 z"
         style="font-style:normal;font-variant:normal;font-weight:bold;font-stretch:normal;font-size:14.72351837px;font-family:'Open Sans';-inkscape-font-specification:'Open Sans Bold';stroke-width:0.26458332"
         id="path898" />
      <path
         d="m 30.699974,275.80057 -2.530605,-8.24604 h -0.0647 q 0.136595,2.51623 0.136595,3.35737 v 4.88867 h -1.991413 v -10.51064 h 3.03385 l 2.487469,8.03755 h 0.04314 l 2.638443,-8.03755 h 3.03385 v 10.51064 h -2.077684 v -4.97494 q 0,-0.35227 0.0072,-0.81238 0.01438,-0.46011 0.100649,-2.44434 h -0.0647 l -2.710336,8.23166 z"
         style="font-style:normal;font-variant:normal;font-weight:bold;font-stretch:normal;font-size:14.72351837px;font-family:'Open Sans';-inkscape-font-specification:'Open Sans Bold';stroke-width:0.26458332"
         id="path900" />
      <path
         d="m 42.360883,270.23611 h 0.7333 q 1.028058,0 1.538493,-0.40259 0.510434,-0.40979 0.510434,-1.18622 0,-0.78363 -0.431353,-1.15747 -0.424164,-0.37384 -1.337194,-0.37384 h -1.01368 z m 5.032452,-1.6679 q 0,1.69666 -1.064004,2.59531 -1.056815,0.89865 -3.012282,0.89865 h -0.956166 v 3.7384 h -2.228658 v -10.51064 h 3.357365 q 1.912332,0 2.904444,0.82676 0.999301,0.81957 0.999301,2.45152 z"
         style="font-style:normal;font-variant:normal;font-weight:bold;font-stretch:normal;font-size:14.72351837px;font-family:'Open Sans';-inkscape-font-specification:'Open Sans Bold';stroke-width:0.26458332"
         id="path902" />
    </g>
  </g>
</svg>
