<?xml version="1.0" encoding="UTF-8" standalone="no"?>
<!DOCTYPE svg PUBLIC "-//W3C//DTD SVG 1.1//EN" "http://www.w3.org/Graphics/SVG/1.1/DTD/svg11.dtd">
<svg width="100%" height="100%" viewBox="0 0 300 100" version="1.1" xmlns="http://www.w3.org/2000/svg" xmlns:xlink="http://www.w3.org/1999/xlink" xml:space="preserve" xmlns:serif="http://www.serif.com/" style="fill-rule:evenodd;clip-rule:evenodd;stroke-linejoin:round;stroke-miterlimit:1.41421;">
    <g transform="matrix(1,0,0,1,0,6.71537)">
        <path d="M242.494,46.106L264.518,46.106C264.518,46.106 267.962,29.504 252.233,28.272C238.371,27.186 233.276,38.677 233.198,43.653C232.82,67.818 262.192,56.424 262.192,56.424L262.751,49.605C259.411,51.512 255.411,52.574 250.902,52.984C245.262,53.075 242.662,50.612 242.494,46.106ZM140.497,37.041L141.323,29.86C141.323,29.86 116.049,22.108 114.08,43.6C112.111,65.092 138.789,57.51 138.789,57.51L139.424,50C139.424,50 122.578,58.459 123.849,43.111C124.966,29.627 140.497,37.041 140.497,37.041ZM294.13,37.041L294.956,29.86C294.956,29.86 269.682,22.108 267.713,43.6C265.744,65.092 292.422,57.51 292.422,57.51L293.057,50C293.057,50 276.211,58.459 277.482,43.111C278.599,29.627 294.13,37.041 294.13,37.041ZM75.473,29.809L74.646,36.65C74.646,36.65 65.42,33.395 60.979,34.457C56.538,35.519 58.016,38.288 60.213,39.474C62.636,40.783 66.799,39.856 70.219,41.5C77.318,44.912 77.332,52.386 70.219,57.387C65.789,60.503 48.819,57.387 48.819,57.387L49.506,50C49.506,50 56.564,54.142 63.754,52.7C68.185,51.811 67.498,47.843 63.754,47.142C61.2,46.663 52.836,46.047 51.459,43.111C49.398,38.716 50.019,32.651 54.914,29.809C60.223,26.725 75.473,29.809 75.473,29.809ZM161.492,28.438C173.464,28.438 177.193,36.263 176.335,43.111C174.339,59.057 163.072,58.761 157.696,58.761C147.484,58.761 142.996,51.778 144.081,43.111C145.309,33.304 151.475,28.438 161.492,28.438ZM96.658,28.438C108.63,28.438 112.359,36.263 111.502,43.111C109.506,59.057 98.238,58.761 92.862,58.761C82.65,58.761 78.162,51.778 79.247,43.111C80.475,33.304 86.641,28.438 96.658,28.438ZM42.021,58.761L30.743,58.761L30.743,47.508L5.044,58.761L5.044,47.508L21.312,40.141C15.626,38.901 10.188,39.009 5.044,40.726L5.044,29.311C5.044,29.311 14.93,25.15 23.878,29.311C32.048,33.11 42.021,29.311 42.021,29.311L42.021,40.726C38.499,42.506 34.734,42.91 30.743,42.027L30.743,47.508L42.021,47.508L42.021,58.761ZM189.156,58.564L179.868,58.564L182.47,28.498L191.774,28.498L191.774,32.966C196.648,26.872 205.853,26.337 209.52,33.585C214.918,26.223 227.005,26.273 228.8,35.306C228.756,43.079 228.176,50.828 227.325,58.564L217.965,58.564L219.676,40.394C219.51,32.717 212.19,33.982 210.196,40.394L208.339,58.564L198.959,58.564L200.544,40.394C200.636,33.552 193.57,33.165 191.103,40.394L189.156,58.564ZM160.727,34.779C164.577,34.636 167.131,37.984 166.724,43.111C166.256,49.01 163.816,52.447 159.311,52.615C154.807,52.783 153.24,48.585 153.636,43.6C154.077,38.046 156.877,34.923 160.727,34.779ZM95.893,34.779C99.744,34.636 102.298,37.984 101.891,43.111C101.422,49.01 98.983,52.447 94.478,52.615C89.973,52.783 88.407,48.585 88.802,43.6C89.243,38.046 92.043,34.923 95.893,34.779ZM243.145,40.417L255.325,40.417C255.755,36.95 253.287,34.104 250.497,34.268C246.132,34.525 243.855,36.737 243.145,40.417Z" style="fill:rgb(112,112,112);"/>
    </g>
</svg>
