<?xml version="1.0" encoding="UTF-8" standalone="no"?>
<!DOCTYPE svg PUBLIC "-//W3C//DTD SVG 1.1//EN" "http://www.w3.org/Graphics/SVG/1.1/DTD/svg11.dtd">
<svg width="100%" height="100%" viewBox="0 0 470 130" version="1.1" xmlns="http://www.w3.org/2000/svg" xmlns:xlink="http://www.w3.org/1999/xlink" xml:space="preserve" xmlns:serif="http://www.serif.com/" style="fill-rule:evenodd;clip-rule:evenodd;stroke-linejoin:round;stroke-miterlimit:2;">
    <g id="Artboard1" transform="matrix(1,0,0,1,-147,-195)">
        <rect x="147" y="195" width="470" height="130" style="fill:none;"/>
        <g transform="matrix(1,0,0,1,7.62623,0.350617)">
            <g>
                <path d="M512.492,285.684C508.691,293.276 501.315,294 491.5,294C477.978,294 467,282.574 467,268.5C467,254.426 477.978,243 491.5,243C505.022,243 516,254.426 516,268.5C516,270.035 515.869,271.539 515.619,273L481,273C483.64,284.148 495.913,286.899 503.6,279.426C506.812,276.304 515.245,280.186 512.492,285.684ZM481,264L502,264C502,264 500.5,254 492,254C483.5,254 481,264 481,264Z" style="fill:#757575;"/>
                <path d="M423,260.485C418.964,254.085 411.362,252.525 403,256C394.477,259.542 392.464,248.459 397,246C415.589,235.92 437,245 436.661,260.109L436.661,287.363C436.661,289.175 435.942,290.912 434.661,292.193C433.38,293.474 431.643,294.193 429.831,294.193C429.831,294.193 429.83,294.193 429.83,294.193C428.019,294.193 426.281,293.474 425,292.193C423.858,291.051 423.162,289.546 423.025,287.949L423,288C411.508,299.597 390.83,295.211 391,279C391.83,265.437 404.073,260.451 423,264.54L423,260.485ZM414.5,271.166C419.743,270.874 424,273.632 424,277.319C424,281.006 419.743,284.236 414.5,284.528C409.257,284.819 405,282.062 405,278.375C405,274.687 409.257,271.457 414.5,271.166Z" style="fill:#757575;"/>
                <g transform="matrix(1.11467,0,0,1.38905,145.392,-3.57176)">
                    <path d="M281.939,169.843C281.939,168.44 281.244,167.094 280.008,166.102C278.772,165.11 277.095,164.553 275.347,164.553C275.346,164.553 275.345,164.553 275.344,164.553C273.595,164.553 271.919,165.11 270.682,166.102C269.446,167.094 268.752,168.44 268.752,169.843C268.752,179.415 268.752,199.504 268.752,209.076C268.752,210.479 269.446,211.825 270.682,212.817C271.919,213.809 273.595,214.366 275.344,214.366C275.345,214.366 275.346,214.366 275.347,214.366C277.095,214.366 278.772,213.809 280.008,212.817C281.244,211.825 281.939,210.479 281.939,209.076C281.939,199.504 281.939,179.415 281.939,169.843Z" style="fill:#757575;"/>
                </g>
                <path d="M546.479,243L546.502,243C550.091,243 553,245.909 553,249.498L553,249.502C553,252.922 550.358,255.724 547.004,255.981L547,256C541.325,258.158 537.926,262.628 536.661,269.263L536.661,286.845C536.661,288.794 535.887,290.663 534.509,292.041C533.131,293.419 531.262,294.193 529.313,294.193C529.312,294.193 529.311,294.193 529.31,294.193C527.361,294.193 525.492,293.419 524.114,292.041C522.736,290.663 521.962,288.794 521.962,286.845C521.962,277.12 521.962,260.073 521.962,250.348C521.962,248.399 522.736,246.53 524.114,245.152C525.492,243.774 527.361,243 529.31,243C529.311,243 529.312,243 529.313,243C531.262,243 533.131,243.774 534.509,245.152C535.887,246.53 536.661,248.399 536.661,250.348L536.661,251C537.479,249.369 539.795,246.064 542.66,244.254C543.689,243.499 544.95,243.04 546.315,243.003C546.37,243.001 546.424,243 546.479,243L546.479,243Z" style="fill:#757575;"/>
                <g transform="matrix(1,0,0,1,204,0)">
                    <path d="M359,243.812L359,237.717C359,233.575 362.358,230.217 366.5,230.217L366.5,230.217C368.489,230.217 370.397,231.007 371.803,232.413C373.21,233.82 374,235.728 374,237.717L374,243.795L380.601,243.795C383.831,243.795 386.449,246.413 386.449,249.643C386.449,249.644 386.449,249.645 386.449,249.647C386.449,252.876 383.831,255.495 380.601,255.495L374,255.495L374,278C375.085,279.904 376.775,281.127 379.66,281C382.547,281 386,283 386,286.622C386,292 381.868,294.001 374,294C364,294 359,287 359,282L359.012,281.994C359.004,281.855 359,281.714 359,281.573L359,255.478C355.976,255.252 353.593,252.728 353.593,249.647C353.593,249.645 353.593,249.644 353.593,249.643C353.593,246.562 355.976,244.037 359,243.812Z" style="fill:#757575;"/>
                </g>
            </g>
            <g>
                <path d="M176.398,265.318C164.072,262.721 156.947,246.602 164.897,236.234C172.215,226.69 186.527,224.59 197.093,229.944C200.545,231.693 203.986,233.571 207,236C211.167,239.359 202.374,246.198 199.114,245.503C197.174,245.089 195.218,242.904 193.624,242.268C190.094,240.859 185.709,240.297 181.972,241.242C174.054,243.245 175.88,250.045 182.309,252.568C186.748,254.309 191.532,255.062 195.975,256.789C209.87,259.717 215.502,278.087 205.375,288.02C192.901,300.256 170.707,293.06 159.373,283.107C155.4,279.618 163.595,274.456 165.247,273.691C168.483,272.19 173.51,277.261 175.749,278.339C181.032,280.882 184.489,282.047 190.402,280.865C199.097,279.126 195.69,272.221 190.064,269.539C187.186,268.826 181.561,267.325 176.398,265.318Z" style="fill:#757575;"/>
                <g transform="matrix(1.11467,0,0,1.03224,-4.60846,72.9153)">
                    <path d="M281.939,171.671C281.939,169.783 281.244,167.973 280.008,166.638C278.772,165.303 277.095,164.553 275.347,164.553C275.346,164.553 275.345,164.553 275.344,164.553C273.595,164.553 271.919,165.303 270.682,166.638C269.446,167.973 268.752,169.783 268.752,171.671C268.752,181.139 268.752,197.779 268.752,207.248C268.752,209.136 269.446,210.946 270.682,212.281C271.919,213.616 273.595,214.366 275.344,214.366C275.345,214.366 275.346,214.366 275.347,214.366C277.095,214.366 278.772,213.616 280.008,212.281C281.244,210.946 281.939,209.136 281.939,207.248C281.939,197.779 281.939,181.139 281.939,171.671Z" style="fill:#757575;"/>
                </g>
                <g transform="matrix(1.11467,0,0,0.269398,-4.60846,180.444)">
                    <path d="M281.939,189.453C281.939,182.849 281.305,176.515 280.176,171.846C279.047,167.176 277.517,164.553 275.921,164.553C275.538,164.553 275.152,164.553 274.769,164.553C273.173,164.553 271.643,167.176 270.514,171.846C269.386,176.515 268.752,182.849 268.752,189.453C268.752,189.457 268.752,189.462 268.752,189.466C268.752,196.07 269.386,202.403 270.514,207.073C271.643,211.743 273.173,214.366 274.769,214.366C275.152,214.366 275.538,214.366 275.921,214.366C277.517,214.366 279.047,211.743 280.176,207.073C281.305,202.403 281.939,196.07 281.939,189.466C281.939,189.462 281.939,189.457 281.939,189.453Z" style="fill:#757575;"/>
                </g>
                <path d="M250.845,242.904C254.071,242.904 257.099,244.295 258.156,247.344L266.526,271.478L274.946,247.198C276.064,243.973 279.525,242.202 282.795,243.182C282.795,243.182 282.795,243.182 282.796,243.182C284.436,243.674 285.805,244.814 286.585,246.338C287.365,247.863 287.489,249.64 286.928,251.258C283.505,261.128 276.862,280.285 273.534,289.879C272.568,292.666 269.972,294.145 267.022,294.145C263.746,294.145 260.641,293.12 259.567,290.025L250.845,264.873L242.122,290.025C241.048,293.12 237.943,294.145 234.667,294.145C231.717,294.145 229.121,292.666 228.155,289.879C224.827,280.285 218.184,261.128 214.761,251.258C214.2,249.64 214.324,247.863 215.104,246.338C215.884,244.814 217.253,243.674 218.893,243.182C218.894,243.182 218.894,243.182 218.894,243.182C222.164,242.202 225.625,243.973 226.743,247.198L235.163,271.478L243.533,247.344C244.591,244.295 247.675,242.904 250.845,242.904Z" style="fill:#757575;"/>
                <path d="M335.555,224.804C335.758,224.784 335.963,224.774 336.17,224.774L343.453,224.774C346.882,224.774 349.661,227.553 349.661,230.982L349.661,230.985C349.661,234.414 346.882,237.193 343.453,237.193L340.599,237.193C338.997,237.245 338.014,237.953 338,239.687L338,239.717L338,243.795L343.601,243.795C346.831,243.795 349.449,246.413 349.449,249.643C349.449,249.644 349.449,249.645 349.449,249.647C349.449,252.876 346.831,255.495 343.601,255.495L338,255.495L338,286.573C338,290.715 334.642,294.073 330.5,294.073L330.5,294.073C328.511,294.073 326.603,293.283 325.197,291.876C323.79,290.47 323,288.562 323,286.573L323,255.495L322.441,255.495C319.212,255.495 316.593,252.876 316.593,249.647C316.593,249.645 316.593,249.644 316.593,249.643C316.593,246.413 319.212,243.795 322.441,243.795L323,243.795L323,239.717C323,239.323 323.03,238.937 323.089,238.559C323.763,230.446 328.245,225.242 335.555,224.804Z" style="fill:#757575;"/>
                <path d="M359,243.812L359,237.717C359,233.575 362.358,230.217 366.5,230.217L366.5,230.217C368.489,230.217 370.397,231.007 371.803,232.413C373.21,233.82 374,235.728 374,237.717L374,243.795L380.601,243.795C383.831,243.795 386.449,246.413 386.449,249.643C386.449,249.644 386.449,249.645 386.449,249.647C386.449,252.876 383.831,255.495 380.601,255.495L374,255.495L374,278C375.085,279.904 376.775,281.127 379.66,281C382.547,281 386,283 386,286.622C386,292 381.868,294.001 374,294C364,294 359,287 359,282L359.012,281.994C359.004,281.855 359,281.714 359,281.573L359,255.478C355.976,255.252 353.593,252.728 353.593,249.647C353.593,249.645 353.593,249.644 353.593,249.643C353.593,246.562 355.976,244.037 359,243.812Z" style="fill:#757575;"/>
            </g>
        </g>
    </g>
</svg>
