<?xml version="1.0" encoding="UTF-8" standalone="no"?>
<!DOCTYPE svg PUBLIC "-//W3C//DTD SVG 1.1//EN" "http://www.w3.org/Graphics/SVG/1.1/DTD/svg11.dtd">
<svg width="100%" height="100%" viewBox="0 0 300 100" version="1.1" xmlns="http://www.w3.org/2000/svg" xmlns:xlink="http://www.w3.org/1999/xlink" xml:space="preserve" xmlns:serif="http://www.serif.com/" style="fill-rule:evenodd;clip-rule:evenodd;stroke-linejoin:round;stroke-miterlimit:1.41421;">
    <path d="M93.201,97.275L90.536,97.275L90.536,80.632L93.201,80.632L93.201,82.129L93.26,82.129C93.773,81.571 94.479,81.138 95.377,80.83C96.275,80.522 97.198,80.368 98.146,80.368C99.231,80.368 100.213,80.507 101.092,80.786C101.97,81.065 102.72,81.454 103.342,81.953C103.964,82.452 104.443,83.035 104.778,83.703C105.114,84.371 105.281,85.086 105.281,85.849C105.281,86.627 105.114,87.35 104.778,88.018C104.443,88.686 103.964,89.265 103.342,89.757C102.72,90.249 101.97,90.634 101.092,90.913C100.213,91.192 99.231,91.331 98.146,91.331C97.139,91.331 96.191,91.173 95.303,90.858C94.415,90.542 93.734,90.113 93.26,89.57L93.201,89.57L93.201,97.275ZM111.292,97.275L108.627,97.275L108.627,80.632L111.292,80.632L111.292,82.129L111.351,82.129C111.865,81.571 112.57,81.138 113.468,80.83C114.367,80.522 115.289,80.368 116.237,80.368C117.323,80.368 118.305,80.507 119.183,80.786C120.062,81.065 120.812,81.454 121.433,81.953C122.055,82.452 122.534,83.035 122.87,83.703C123.205,84.371 123.373,85.086 123.373,85.849C123.373,86.627 123.205,87.35 122.87,88.018C122.534,88.686 122.055,89.265 121.433,89.757C120.812,90.249 120.062,90.634 119.183,90.913C118.305,91.192 117.323,91.331 116.237,91.331C115.23,91.331 114.283,91.173 113.394,90.858C112.507,90.542 111.826,90.113 111.351,89.57L111.292,89.57L111.292,97.275ZM58.913,87.809C59.426,88.381 60.083,88.803 60.882,89.075C61.682,89.346 62.506,89.482 63.354,89.482C63.828,89.482 64.312,89.427 64.805,89.317C65.299,89.207 65.748,89.042 66.153,88.821C66.557,88.601 66.888,88.33 67.144,88.007C67.401,87.684 67.529,87.31 67.529,86.884C67.529,86.282 67.273,85.824 66.76,85.508C66.246,85.193 65.61,84.929 64.85,84.716C64.09,84.503 63.261,84.297 62.363,84.099C61.464,83.901 60.635,83.626 59.875,83.274C59.115,82.922 58.479,82.448 57.966,81.854C57.452,81.259 57.196,80.456 57.196,79.443C57.196,78.988 57.329,78.504 57.595,77.99C57.862,77.477 58.281,77.007 58.854,76.581C59.426,76.156 60.162,75.8 61.06,75.514C61.958,75.228 63.039,75.084 64.302,75.084C65.447,75.084 66.542,75.202 67.589,75.437C68.635,75.672 69.553,76.149 70.342,76.868L68.033,78.431C67.677,78.02 67.174,77.689 66.523,77.44C65.871,77.191 65.131,77.066 64.302,77.066C63.512,77.066 62.856,77.143 62.333,77.297C61.81,77.451 61.39,77.649 61.075,77.891C60.759,78.133 60.537,78.394 60.408,78.673C60.28,78.952 60.216,79.208 60.216,79.443C60.216,80.104 60.472,80.61 60.986,80.962C61.499,81.315 62.136,81.601 62.895,81.821C63.655,82.041 64.485,82.239 65.383,82.415C66.281,82.591 67.11,82.837 67.87,83.153C68.63,83.468 69.266,83.894 69.78,84.43C70.293,84.965 70.55,85.703 70.55,86.642C70.55,87.39 70.357,88.066 69.972,88.667C69.587,89.269 69.069,89.775 68.418,90.186C67.766,90.597 66.996,90.913 66.108,91.133C65.22,91.353 64.272,91.463 63.266,91.463C61.923,91.463 60.65,91.287 59.446,90.935C58.242,90.582 57.284,90.039 56.574,89.306L58.913,87.809ZM219.16,91.067L216.495,91.067L216.495,89.57L216.435,89.57C215.922,90.128 215.216,90.561 214.318,90.869C213.42,91.177 212.497,91.331 211.55,91.331C210.464,91.331 209.482,91.192 208.604,90.913C207.725,90.634 206.975,90.245 206.353,89.746C205.732,89.247 205.253,88.667 204.917,88.007C204.582,87.346 204.414,86.627 204.414,85.849C204.414,85.072 204.582,84.349 204.917,83.681C205.253,83.013 205.732,82.434 206.353,81.942C206.975,81.45 207.725,81.065 208.604,80.786C209.482,80.507 210.464,80.368 211.55,80.368C212.557,80.368 213.504,80.526 214.392,80.841C215.281,81.157 215.962,81.586 216.435,82.129L216.495,82.129L216.495,74.424L219.16,74.424L219.16,91.067ZM164.856,83.252C164.54,82.958 164.15,82.712 163.686,82.514C163.222,82.316 162.655,82.217 161.984,82.217C161.352,82.217 160.804,82.316 160.34,82.514C159.876,82.712 159.644,83.002 159.644,83.384C159.644,83.692 159.778,83.942 160.044,84.132C160.311,84.323 160.627,84.477 160.992,84.595C161.357,84.712 161.747,84.8 162.161,84.859C162.576,84.918 162.931,84.969 163.227,85.013C163.8,85.116 164.338,85.24 164.841,85.387C165.344,85.534 165.779,85.725 166.144,85.96C166.509,86.194 166.795,86.481 167.002,86.818C167.21,87.156 167.313,87.567 167.313,88.051C167.313,88.638 167.146,89.141 166.81,89.559C166.474,89.977 166.04,90.318 165.507,90.582C164.974,90.847 164.367,91.037 163.686,91.155C163.005,91.272 162.319,91.331 161.628,91.331C160.464,91.331 159.442,91.199 158.564,90.935C157.685,90.671 156.901,90.186 156.21,89.482L158.223,88.249C158.658,88.572 159.141,88.858 159.674,89.108C160.207,89.357 160.858,89.482 161.628,89.482C161.964,89.482 162.304,89.456 162.65,89.405C162.995,89.353 163.301,89.273 163.568,89.163C163.834,89.053 164.051,88.913 164.219,88.744C164.387,88.576 164.471,88.381 164.471,88.161C164.471,87.867 164.347,87.625 164.101,87.434C163.854,87.244 163.558,87.093 163.212,86.983C162.867,86.873 162.502,86.785 162.117,86.719C161.732,86.653 161.391,86.598 161.095,86.554C160.523,86.451 159.98,86.334 159.467,86.202C158.954,86.07 158.5,85.893 158.105,85.673C157.71,85.453 157.394,85.174 157.157,84.837C156.92,84.499 156.802,84.081 156.802,83.582C156.802,83.039 156.955,82.566 157.261,82.162C157.567,81.758 157.972,81.425 158.475,81.16C158.978,80.896 159.551,80.698 160.192,80.566C160.834,80.434 161.48,80.368 162.132,80.368C163.079,80.368 163.987,80.5 164.856,80.764C165.724,81.028 166.415,81.469 166.928,82.085L164.856,83.252ZM197.841,80.632L201.66,80.632L201.66,82.349L197.841,82.349L197.841,87.082C197.841,87.376 197.851,87.666 197.87,87.952C197.89,88.238 197.964,88.495 198.092,88.722C198.221,88.95 198.418,89.133 198.685,89.273C198.951,89.412 199.341,89.482 199.854,89.482C200.17,89.482 200.496,89.46 200.831,89.416C201.167,89.372 201.473,89.291 201.749,89.174L201.749,90.979C201.433,91.111 201.024,91.203 200.52,91.254C200.017,91.305 199.627,91.331 199.351,91.331C198.324,91.331 197.53,91.225 196.967,91.012C196.405,90.799 195.99,90.524 195.724,90.186C195.457,89.849 195.299,89.471 195.25,89.053C195.201,88.634 195.176,88.212 195.176,87.787L195.176,82.349L192.096,82.349L192.096,80.632L195.176,80.632L195.176,77.704L197.841,77.704L197.841,80.632ZM83.785,89.46C83.449,90.018 82.867,90.469 82.038,90.814C81.209,91.159 80.252,91.331 79.166,91.331C78.475,91.331 77.824,91.254 77.212,91.1C76.6,90.946 76.062,90.707 75.598,90.384C75.134,90.061 74.764,89.647 74.488,89.141C74.211,88.634 74.073,88.036 74.073,87.346L74.073,80.632L76.738,80.632L76.738,86.796C76.738,87.28 76.827,87.695 77.004,88.04C77.182,88.385 77.419,88.664 77.715,88.876C78.011,89.089 78.352,89.243 78.737,89.339C79.121,89.434 79.521,89.482 79.936,89.482C80.488,89.482 81.002,89.416 81.475,89.284C81.949,89.152 82.364,88.942 82.719,88.656C83.074,88.37 83.351,88.007 83.548,87.567C83.746,87.126 83.844,86.605 83.844,86.004L83.844,80.632L86.509,80.632L86.509,91.067L83.844,91.067L83.844,89.46L83.785,89.46ZM142.945,86.576C142.945,87.031 143.078,87.446 143.344,87.82C143.611,88.194 143.961,88.513 144.396,88.777C144.83,89.042 145.333,89.247 145.906,89.394C146.478,89.54 147.07,89.614 147.682,89.614C148.511,89.614 149.232,89.471 149.844,89.185C150.456,88.898 151.018,88.52 151.531,88.051L153.545,89.196C152.064,90.619 149.992,91.331 147.327,91.331C146.222,91.331 145.22,91.192 144.322,90.913C143.423,90.634 142.663,90.249 142.042,89.757C141.42,89.265 140.941,88.686 140.606,88.018C140.27,87.35 140.102,86.627 140.102,85.849C140.102,85.072 140.285,84.349 140.65,83.681C141.015,83.013 141.519,82.434 142.16,81.942C142.802,81.45 143.567,81.065 144.455,80.786C145.343,80.507 146.31,80.368 147.357,80.368C148.6,80.368 149.651,80.529 150.51,80.852C151.369,81.175 152.074,81.597 152.627,82.118C153.18,82.639 153.579,83.226 153.826,83.879C154.073,84.532 154.196,85.196 154.196,85.871L154.196,86.576L142.945,86.576ZM182.296,89.086L191.919,89.086L191.919,91.067L179.453,91.067L179.453,75.481L182.296,75.481L182.296,89.086ZM136.697,91.067L134.032,91.067L134.032,80.632L136.697,80.632L136.697,91.067ZM129.591,91.067L126.926,91.067L126.926,74.424L129.591,74.424L129.591,91.067ZM288.382,90.744L228.994,90.744L228.994,29.749L288.382,29.749L288.382,90.744ZM97.82,82.217C97.109,82.217 96.468,82.309 95.895,82.492C95.323,82.676 94.839,82.925 94.444,83.241C94.05,83.556 93.744,83.938 93.527,84.385C93.309,84.833 93.201,85.321 93.201,85.849C93.201,86.378 93.309,86.866 93.527,87.313C93.744,87.761 94.05,88.143 94.444,88.458C94.839,88.774 95.323,89.023 95.895,89.207C96.468,89.39 97.109,89.482 97.82,89.482C98.531,89.482 99.172,89.39 99.744,89.207C100.317,89.023 100.801,88.774 101.195,88.458C101.59,88.143 101.896,87.761 102.113,87.313C102.33,86.866 102.439,86.378 102.439,85.849C102.439,85.321 102.33,84.833 102.113,84.385C101.896,83.938 101.59,83.556 101.195,83.241C100.801,82.925 100.317,82.676 99.744,82.492C99.172,82.309 98.531,82.217 97.82,82.217ZM115.911,82.217C115.201,82.217 114.559,82.309 113.987,82.492C113.414,82.676 112.931,82.925 112.536,83.241C112.141,83.556 111.835,83.938 111.618,84.385C111.401,84.833 111.292,85.321 111.292,85.849C111.292,86.378 111.401,86.866 111.618,87.313C111.835,87.761 112.141,88.143 112.536,88.458C112.931,88.774 113.414,89.023 113.987,89.207C114.559,89.39 115.201,89.482 115.911,89.482C116.622,89.482 117.263,89.39 117.836,89.207C118.408,89.023 118.892,88.774 119.287,88.458C119.682,88.143 119.988,87.761 120.205,87.313C120.422,86.866 120.53,86.378 120.53,85.849C120.53,85.321 120.422,84.833 120.205,84.385C119.988,83.938 119.682,83.556 119.287,83.241C118.892,82.925 118.408,82.676 117.836,82.492C117.263,82.309 116.622,82.217 115.911,82.217ZM211.876,89.482C212.586,89.482 213.228,89.39 213.8,89.207C214.373,89.023 214.856,88.774 215.251,88.458C215.646,88.143 215.952,87.761 216.169,87.313C216.386,86.866 216.495,86.378 216.495,85.849C216.495,85.321 216.386,84.833 216.169,84.385C215.952,83.938 215.646,83.556 215.251,83.241C214.856,82.925 214.373,82.676 213.8,82.492C213.228,82.309 212.586,82.217 211.876,82.217C211.165,82.217 210.523,82.309 209.951,82.492C209.379,82.676 208.895,82.925 208.5,83.241C208.105,83.556 207.799,83.938 207.582,84.385C207.365,84.833 207.257,85.321 207.257,85.849C207.257,86.378 207.365,86.866 207.582,87.313C207.799,87.761 208.105,88.143 208.5,88.458C208.895,88.774 209.379,89.023 209.951,89.207C210.523,89.39 211.165,89.482 211.876,89.482ZM250.495,81.704C252.547,81.704 254.212,83.37 254.212,85.422C254.212,87.474 252.547,89.14 250.495,89.14C248.443,89.14 246.777,87.474 246.777,85.422C246.777,83.37 248.443,81.704 250.495,81.704ZM151.354,84.991C151.334,84.551 151.24,84.147 151.073,83.78C150.905,83.413 150.653,83.094 150.318,82.822C149.982,82.551 149.562,82.338 149.059,82.184C148.556,82.03 147.968,81.953 147.297,81.953C146.646,81.953 146.049,82.045 145.506,82.228C144.963,82.412 144.504,82.65 144.129,82.944C143.754,83.237 143.463,83.564 143.256,83.923C143.048,84.283 142.945,84.639 142.945,84.991L151.354,84.991ZM246.409,75.361C247.992,75.361 249.277,76.646 249.277,78.229C249.277,79.812 247.992,81.097 246.409,81.097C244.826,81.097 243.541,79.812 243.541,78.229C243.541,76.646 244.826,75.361 246.409,75.361ZM255.334,75.361C256.917,75.361 258.202,76.646 258.202,78.229C258.202,79.812 256.917,81.097 255.334,81.097C253.751,81.097 252.466,79.812 252.466,78.229C252.466,76.646 253.751,75.361 255.334,75.361ZM133.41,76.89C133.41,76.493 133.603,76.152 133.988,75.866C134.373,75.58 134.832,75.437 135.365,75.437C135.898,75.437 136.357,75.58 136.742,75.866C137.126,76.152 137.319,76.493 137.319,76.89C137.319,77.286 137.126,77.627 136.742,77.913C136.357,78.199 135.898,78.343 135.365,78.343C134.832,78.343 134.373,78.199 133.988,77.913C133.603,77.627 133.41,77.286 133.41,76.89ZM250.127,67.566C252.179,67.566 253.844,69.232 253.844,71.284C253.844,73.335 252.179,75.001 250.127,75.001C248.075,75.001 246.409,73.335 246.409,71.284C246.409,69.232 248.075,67.566 250.127,67.566ZM259.995,68.925C261.578,68.925 262.863,70.21 262.863,71.793C262.863,73.376 261.578,74.661 259.995,74.661C258.412,74.661 257.127,73.376 257.127,71.793C257.127,70.21 258.412,68.925 259.995,68.925ZM241.902,68.925C243.188,68.925 244.233,69.969 244.233,71.255C244.233,72.542 243.188,73.586 241.902,73.586C240.616,73.586 239.572,72.542 239.572,71.255C239.572,69.969 240.616,68.925 241.902,68.925ZM169.621,55.878C169.68,62.754 177.983,66.064 182.274,60.247L196.074,60.247C196.07,60.262 192.99,73.131 176.191,73.029C168.19,72.98 155.111,67.267 155.111,55.878C155.111,42.947 159.089,31.143 176.191,31.143C200.136,31.143 197.234,55.808 197.226,55.878L169.621,55.878ZM76.71,31.143C88.236,31.143 97.593,40.527 97.593,52.086C97.593,63.645 88.236,73.029 76.71,73.029C65.184,73.029 55.827,63.645 55.827,52.086C55.827,40.527 65.184,31.143 76.71,31.143ZM121.387,71.837L107.13,71.837L94.842,32.026L109.208,32.026L115.163,55.878L120.432,32.026L132.643,32.026L138.871,55.878L144.515,32.026L158.565,32.026L146.71,71.837L132.643,71.837L126.597,48.767L121.387,71.837ZM212.982,71.837L198.441,71.837L198.441,32.026L211.692,32.026L211.692,39.637C214.325,32.864 218.701,30.116 224.712,31.143L224.712,46.598L220.214,46.598C215.975,46.97 213.642,49.508 212.982,53.948L212.982,71.837ZM28.221,71.837L11.618,71.837L11.618,17.094L40.713,17.094C62.56,18.308 64.415,51.798 40.713,54.483L28.221,54.483L28.221,71.837ZM255.334,63.528C256.62,63.528 257.664,64.573 257.664,65.859C257.664,67.145 256.62,68.189 255.334,68.189C254.047,68.189 253.003,67.145 253.003,65.859C253.003,64.573 254.047,63.528 255.334,63.528ZM264.859,63.123C266.257,63.123 267.392,64.258 267.392,65.656C267.392,67.054 266.257,68.189 264.859,68.189C263.461,68.189 262.326,67.054 262.326,65.656C262.326,64.258 263.461,63.123 264.859,63.123ZM245.518,61.83C247.101,61.83 248.386,63.115 248.386,64.698C248.386,66.281 247.101,67.566 245.518,67.566C243.936,67.566 242.65,66.281 242.65,64.698C242.65,63.115 243.936,61.83 245.518,61.83ZM238.507,64.387C239.353,64.387 240.04,65.074 240.04,65.92C240.04,66.766 239.353,67.453 238.507,67.453C237.661,67.453 236.974,66.766 236.974,65.92C236.974,65.074 237.661,64.387 238.507,64.387ZM76.594,41.461C80.242,41.461 83.204,46.222 83.204,52.086C83.204,57.951 80.242,62.712 76.594,62.712C72.947,62.712 69.985,57.951 69.985,52.086C69.985,46.222 72.947,41.461 76.594,41.461ZM259.995,57.916C261.281,57.916 262.326,58.96 262.326,60.247C262.326,61.533 261.281,62.577 259.995,62.577C258.709,62.577 257.664,61.533 257.664,60.247C257.664,58.96 258.709,57.916 259.995,57.916ZM250.152,57.358C251.439,57.358 252.483,58.402 252.483,59.688C252.483,60.975 251.439,62.019 250.152,62.019C248.866,62.019 247.822,60.975 247.822,59.688C247.822,58.402 248.866,57.358 250.152,57.358ZM236.095,58.714C236.941,58.714 237.627,59.401 237.627,60.247C237.627,61.092 236.941,61.779 236.095,61.779C235.249,61.779 234.562,61.092 234.562,60.247C234.562,59.401 235.249,58.714 236.095,58.714ZM269.339,57.45C270.413,57.45 271.286,58.322 271.286,59.396C271.286,60.471 270.413,61.343 269.339,61.343C268.264,61.343 267.392,60.471 267.392,59.396C267.392,58.322 268.264,57.45 269.339,57.45ZM241.516,56.346C242.803,56.346 243.847,57.39 243.847,58.676C243.847,59.962 242.803,61.007 241.516,61.007C240.23,61.007 239.186,59.962 239.186,58.676C239.186,57.39 240.23,56.346 241.516,56.346ZM233.582,54.292C234.428,54.292 235.115,54.979 235.115,55.825C235.115,56.671 234.428,57.358 233.582,57.358C232.736,57.358 232.049,56.671 232.049,55.825C232.049,54.979 232.736,54.292 233.582,54.292ZM245.563,53.464C246.637,53.464 247.51,54.337 247.51,55.411C247.51,56.485 246.637,57.358 245.563,57.358C244.489,57.358 243.616,56.485 243.616,55.411C243.616,54.337 244.489,53.464 245.563,53.464ZM264.859,52.904C265.933,52.904 266.806,53.777 266.806,54.851C266.806,55.926 265.933,56.798 264.859,56.798C263.784,56.798 262.912,55.926 262.912,54.851C262.912,53.777 263.784,52.904 264.859,52.904ZM272.819,52.904C273.665,52.904 274.351,53.591 274.351,54.437C274.351,55.283 273.665,55.97 272.819,55.97C271.973,55.97 271.286,55.283 271.286,54.437C271.286,53.591 271.973,52.904 272.819,52.904ZM238.197,51.227C239.214,51.227 240.04,52.052 240.04,53.069C240.04,54.086 239.214,54.912 238.197,54.912C237.181,54.912 236.355,54.086 236.355,53.069C236.355,52.052 237.181,51.227 238.197,51.227ZM242.083,49.817C242.929,49.817 243.616,50.503 243.616,51.349C243.616,52.195 242.929,52.882 242.083,52.882C241.237,52.882 240.551,52.195 240.551,51.349C240.551,50.503 241.237,49.817 242.083,49.817ZM268.338,49.061C269.184,49.061 269.871,49.748 269.871,50.594C269.871,51.44 269.184,52.127 268.338,52.127C267.492,52.127 266.806,51.44 266.806,50.594C266.806,49.748 267.492,49.061 268.338,49.061ZM275.474,48.661C276.32,48.661 277.007,49.347 277.007,50.193C277.007,51.039 276.32,51.726 275.474,51.726C274.628,51.726 273.941,51.039 273.941,50.193C273.941,49.347 274.628,48.661 275.474,48.661ZM235.387,48.052C236.263,48.052 236.974,48.763 236.974,49.639C236.974,50.515 236.263,51.227 235.387,51.227C234.511,51.227 233.8,50.515 233.8,49.639C233.8,48.763 234.511,48.052 235.387,48.052ZM271.965,45.995C272.811,45.995 273.498,46.682 273.498,47.528C273.498,48.374 272.811,49.061 271.965,49.061C271.119,49.061 270.432,48.374 270.432,47.528C270.432,46.682 271.119,45.995 271.965,45.995ZM278.058,45.415C278.826,45.415 279.45,46.039 279.45,46.808C279.45,47.576 278.826,48.2 278.058,48.2C277.289,48.2 276.665,47.576 276.665,46.808C276.665,46.039 277.289,45.415 278.058,45.415ZM232.906,44.923C233.571,44.923 234.112,45.464 234.112,46.129C234.112,46.795 233.571,47.336 232.906,47.336C232.24,47.336 231.699,46.795 231.699,46.129C231.699,45.464 232.24,44.923 232.906,44.923ZM169.621,47.222L182.274,47.222C182.274,47.222 181.816,40.56 176.226,40.56C170.636,40.56 169.621,47.222 169.621,47.222ZM275.799,42.265C276.466,42.265 277.007,42.806 277.007,43.472C277.007,44.139 276.466,44.68 275.799,44.68C275.133,44.68 274.592,44.139 274.592,43.472C274.592,42.806 275.133,42.265 275.799,42.265ZM280.658,41.603C281.324,41.603 281.865,42.144 281.865,42.811C281.865,43.477 281.324,44.018 280.658,44.018C279.991,44.018 279.45,43.477 279.45,42.811C279.45,42.144 279.991,41.603 280.658,41.603ZM35.828,29.749L28.221,29.749L28.221,42.001L37.405,42.001C42.834,41.362 44.681,30.849 35.828,29.749ZM278.243,39.188C278.909,39.188 279.45,39.729 279.45,40.396C279.45,41.062 278.909,41.603 278.243,41.603C277.576,41.603 277.035,41.062 277.035,40.396C277.035,39.729 277.576,39.188 278.243,39.188ZM283.211,38.844C283.73,38.844 284.151,39.265 284.151,39.784C284.151,40.303 283.73,40.724 283.211,40.724C282.693,40.724 282.272,40.303 282.272,39.784C282.272,39.265 282.693,38.844 283.211,38.844ZM281.332,36.964C281.85,36.964 282.272,37.385 282.272,37.904C282.272,38.423 281.85,38.844 281.332,38.844C280.813,38.844 280.392,38.423 280.392,37.904C280.392,37.385 280.813,36.964 281.332,36.964ZM285.6,36.456C286.118,36.456 286.539,36.877 286.539,37.396C286.539,37.914 286.118,38.336 285.6,38.336C285.081,38.336 284.66,37.914 284.66,37.396C284.66,36.877 285.081,36.456 285.6,36.456ZM283.72,34.182C284.238,34.182 284.66,34.603 284.66,35.122C284.66,35.64 284.238,36.062 283.72,36.062C283.201,36.062 282.78,35.64 282.78,35.122C282.78,34.603 283.201,34.182 283.72,34.182ZM286.185,32.302C286.704,32.302 287.125,32.723 287.125,33.242C287.125,33.76 286.704,34.182 286.185,34.182C285.667,34.182 285.245,33.76 285.245,33.242C285.245,32.723 285.667,32.302 286.185,32.302ZM205.838,29.526L202.781,29.526L202.781,11.417L205.838,11.417L205.838,13.045L205.906,13.045C206.495,12.439 207.304,11.967 208.335,11.632C209.365,11.297 210.424,11.129 211.511,11.129C212.756,11.129 213.883,11.281 214.891,11.584C215.898,11.888 216.759,12.311 217.472,12.854C218.186,13.397 218.735,14.031 219.12,14.758C219.505,15.485 219.697,16.263 219.697,17.094C219.697,17.94 219.505,18.726 219.12,19.453C218.735,20.18 218.186,20.81 217.472,21.345C216.759,21.88 215.898,22.3 214.891,22.603C213.883,22.906 212.756,23.058 211.511,23.058C210.356,23.058 209.269,22.886 208.25,22.543C207.231,22.2 206.45,21.733 205.906,21.142L205.838,21.142L205.838,29.526ZM61.062,5.811L61.062,16.207C61.062,16.734 61.164,17.281 61.368,17.848C61.572,18.415 61.911,18.938 62.387,19.417C62.863,19.896 63.485,20.287 64.255,20.591C65.025,20.894 65.976,21.046 67.109,21.046C68.241,21.046 69.192,20.894 69.962,20.591C70.732,20.287 71.355,19.896 71.83,19.417C72.306,18.938 72.646,18.415 72.849,17.848C73.053,17.281 73.155,16.734 73.155,16.207L73.155,5.811L76.416,5.811L76.416,16.567C76.416,17.557 76.178,18.455 75.703,19.261C75.227,20.068 74.57,20.767 73.733,21.357C72.895,21.948 71.91,22.403 70.777,22.723C69.645,23.042 68.422,23.202 67.109,23.202C65.795,23.202 64.572,23.042 63.44,22.723C62.308,22.403 61.323,21.948 60.485,21.357C59.647,20.767 58.99,20.068 58.514,19.261C58.039,18.455 57.801,17.557 57.801,16.567L57.801,5.811L61.062,5.811ZM131.548,11.417L135.93,11.417L135.93,13.285L131.548,13.285L131.548,18.435C131.548,18.754 131.559,19.07 131.582,19.381C131.604,19.693 131.689,19.972 131.836,20.22C131.984,20.467 132.21,20.667 132.516,20.818C132.822,20.97 133.269,21.046 133.858,21.046C134.22,21.046 134.594,21.022 134.979,20.974C135.364,20.926 135.715,20.838 136.032,20.711L136.032,22.675C135.669,22.819 135.199,22.918 134.622,22.974C134.044,23.03 133.597,23.058 133.28,23.058C132.103,23.058 131.191,22.942 130.546,22.711C129.9,22.479 129.425,22.18 129.119,21.813C128.813,21.445 128.632,21.034 128.575,20.579C128.519,20.124 128.491,19.665 128.491,19.202L128.491,13.285L124.958,13.285L124.958,11.417L128.491,11.417L128.491,8.231L131.548,8.231L131.548,11.417ZM195.036,21.022C194.65,21.629 193.982,22.12 193.032,22.495C192.08,22.87 190.982,23.058 189.737,23.058C188.944,23.058 188.197,22.974 187.495,22.807C186.793,22.639 186.175,22.379 185.643,22.028C185.111,21.677 184.686,21.226 184.369,20.675C184.052,20.124 183.894,19.473 183.894,18.722L183.894,11.417L186.951,11.417L186.951,18.124C186.951,18.651 187.053,19.102 187.257,19.477C187.461,19.852 187.732,20.156 188.072,20.387C188.412,20.619 188.802,20.786 189.244,20.89C189.686,20.994 190.144,21.046 190.62,21.046C191.254,21.046 191.843,20.974 192.386,20.83C192.93,20.687 193.405,20.459 193.813,20.148C194.22,19.836 194.537,19.441 194.764,18.962C194.99,18.483 195.104,17.916 195.104,17.261L195.104,11.417L198.161,11.417L198.161,22.771L195.104,22.771L195.104,21.022L195.036,21.022ZM227.782,11.417L232.164,11.417L232.164,13.285L227.782,13.285L227.782,18.435C227.782,18.754 227.793,19.07 227.816,19.381C227.838,19.693 227.923,19.972 228.07,20.22C228.218,20.467 228.444,20.667 228.75,20.818C229.056,20.97 229.503,21.046 230.092,21.046C230.454,21.046 230.828,21.022 231.213,20.974C231.598,20.926 231.949,20.838 232.266,20.711L232.266,22.675C231.903,22.819 231.433,22.918 230.856,22.974C230.278,23.03 229.831,23.058 229.514,23.058C228.337,23.058 227.425,22.942 226.78,22.711C226.134,22.479 225.659,22.18 225.353,21.813C225.047,21.445 224.866,21.034 224.809,20.579C224.753,20.124 224.725,19.665 224.725,19.202L224.725,13.285L221.192,13.285L221.192,11.417L224.725,11.417L224.725,8.231L227.782,8.231L227.782,11.417ZM142.18,17.884C142.18,18.38 142.333,18.83 142.639,19.237C142.944,19.645 143.346,19.992 143.844,20.279C144.343,20.567 144.92,20.79 145.577,20.95C146.234,21.11 146.913,21.19 147.615,21.19C148.566,21.19 149.393,21.034 150.095,20.723C150.797,20.411 151.442,20 152.031,19.489L154.341,20.735C152.642,22.284 150.265,23.058 147.207,23.058C145.939,23.058 144.79,22.906 143.76,22.603C142.729,22.3 141.857,21.88 141.144,21.345C140.431,20.81 139.881,20.18 139.496,19.453C139.111,18.726 138.919,17.94 138.919,17.094C138.919,16.247 139.128,15.461 139.547,14.734C139.966,14.008 140.544,13.377 141.28,12.842C142.016,12.307 142.893,11.888 143.912,11.584C144.931,11.281 146.041,11.129 147.241,11.129C148.668,11.129 149.874,11.305 150.859,11.656C151.844,12.007 152.654,12.466 153.288,13.033C153.922,13.6 154.381,14.239 154.664,14.95C154.947,15.66 155.088,16.383 155.088,17.118L155.088,17.884L142.18,17.884ZM247.314,22.771L244.257,22.771L244.257,4.662L247.314,4.662L247.314,13.045L247.382,13.045C247.925,12.455 248.707,11.987 249.726,11.644C250.745,11.301 251.832,11.129 252.987,11.129C254.232,11.129 255.359,11.281 256.367,11.584C257.374,11.888 258.235,12.307 258.948,12.842C259.662,13.377 260.211,14.008 260.596,14.734C260.981,15.461 261.173,16.247 261.173,17.094C261.173,17.94 260.981,18.722 260.596,19.441C260.211,20.16 259.662,20.79 258.948,21.333C258.235,21.876 257.374,22.3 256.367,22.603C255.359,22.906 254.232,23.058 252.987,23.058C251.9,23.058 250.841,22.89 249.811,22.555C248.781,22.22 247.971,21.749 247.382,21.142L247.314,21.142L247.314,22.771ZM275.474,17.884C275.474,18.38 275.627,18.83 275.933,19.237C276.238,19.645 276.64,19.992 277.139,20.279C277.637,20.567 278.214,20.79 278.871,20.95C279.528,21.11 280.207,21.19 280.909,21.19C281.86,21.19 282.687,21.034 283.389,20.723C284.091,20.411 284.736,20 285.325,19.489L287.635,20.735C285.937,22.284 283.559,23.058 280.502,23.058C279.233,23.058 278.084,22.906 277.054,22.603C276.023,22.3 275.151,21.88 274.438,21.345C273.725,20.81 273.176,20.18 272.791,19.453C272.406,18.726 272.213,17.94 272.213,17.094C272.213,16.247 272.423,15.461 272.842,14.734C273.261,14.008 273.838,13.377 274.574,12.842C275.31,12.307 276.188,11.888 277.207,11.584C278.226,11.281 279.335,11.129 280.536,11.129C281.962,11.129 283.168,11.305 284.153,11.656C285.138,12.007 285.948,12.466 286.582,13.033C287.216,13.6 287.675,14.239 287.958,14.95C288.241,15.66 288.382,16.383 288.382,17.118L288.382,17.884L275.474,17.884ZM239.399,22.771L236.342,22.771L236.342,11.417L239.399,11.417L239.399,22.771ZM268.307,22.771L265.25,22.771L265.25,4.662L268.307,4.662L268.307,22.771ZM103.557,22.771L100.5,22.771L100.5,11.417L103.557,11.417L103.557,22.771ZM174.383,22.771L171.325,22.771L171.325,11.417L174.383,11.417L174.383,13.165L174.451,13.165C174.654,12.862 174.926,12.586 175.266,12.339C175.605,12.091 175.985,11.88 176.404,11.704C176.823,11.528 177.281,11.389 177.779,11.285C178.278,11.181 178.776,11.129 179.274,11.129C179.772,11.129 180.225,11.177 180.633,11.273L180.497,13.596C180.248,13.548 179.999,13.508 179.75,13.477C179.501,13.445 179.251,13.429 179.002,13.429C177.508,13.429 176.364,13.724 175.571,14.315C174.779,14.906 174.383,15.824 174.383,17.07L174.383,22.771ZM161.814,22.771L158.757,22.771L158.757,11.417L161.814,11.417L161.814,13.165L161.882,13.165C162.086,12.862 162.358,12.586 162.697,12.339C163.037,12.091 163.416,11.88 163.835,11.704C164.254,11.528 164.713,11.389 165.211,11.285C165.709,11.181 166.207,11.129 166.706,11.129C167.204,11.129 167.657,11.177 168.064,11.273L167.928,13.596C167.679,13.548 167.43,13.508 167.181,13.477C166.932,13.445 166.683,13.429 166.434,13.429C164.939,13.429 163.796,13.724 163.003,14.315C162.21,14.906 161.814,15.824 161.814,17.07L161.814,22.771ZM111.472,22.771L108.415,22.771L108.415,11.417L111.472,11.417L111.472,13.165L111.54,13.165C111.925,12.558 112.593,12.067 113.544,11.692C114.495,11.317 115.594,11.129 116.839,11.129C117.609,11.129 118.351,11.213 119.064,11.381C119.777,11.548 120.4,11.808 120.932,12.159C121.465,12.51 121.889,12.962 122.206,13.512C122.523,14.063 122.682,14.714 122.682,15.465L122.682,22.771L119.625,22.771L119.625,16.064C119.625,15.537 119.523,15.085 119.319,14.71C119.115,14.335 118.843,14.031 118.504,13.8C118.164,13.568 117.773,13.401 117.332,13.297C116.89,13.193 116.432,13.141 115.956,13.141C115.322,13.141 114.733,13.213 114.19,13.357C113.646,13.501 113.171,13.728 112.763,14.039C112.355,14.351 112.038,14.746 111.812,15.225C111.585,15.704 111.472,16.271 111.472,16.926L111.472,22.771ZM84.433,22.771L81.376,22.771L81.376,11.417L84.433,11.417L84.433,13.165L84.501,13.165C84.886,12.558 85.554,12.067 86.505,11.692C87.456,11.317 88.554,11.129 89.8,11.129C90.57,11.129 91.311,11.213 92.025,11.381C92.738,11.548 93.361,11.808 93.893,12.159C94.425,12.51 94.85,12.962 95.167,13.512C95.484,14.063 95.643,14.714 95.643,15.465L95.643,22.771L92.585,22.771L92.585,16.064C92.585,15.537 92.483,15.085 92.28,14.71C92.076,14.335 91.804,14.031 91.464,13.8C91.125,13.568 90.734,13.401 90.292,13.297C89.851,13.193 89.392,13.141 88.917,13.141C88.283,13.141 87.694,13.213 87.15,13.357C86.607,13.501 86.131,13.728 85.724,14.039C85.316,14.351 84.999,14.746 84.772,15.225C84.546,15.704 84.433,16.271 84.433,16.926L84.433,22.771ZM252.613,21.046C253.428,21.046 254.164,20.946 254.821,20.747C255.478,20.547 256.033,20.275 256.486,19.932C256.938,19.589 257.289,19.174 257.539,18.687C257.788,18.199 257.912,17.668 257.912,17.094C257.912,16.519 257.788,15.988 257.539,15.501C257.289,15.014 256.938,14.598 256.486,14.255C256.033,13.912 255.478,13.64 254.821,13.441C254.164,13.241 253.428,13.141 252.613,13.141C251.798,13.141 251.062,13.241 250.405,13.441C249.748,13.64 249.194,13.912 248.741,14.255C248.288,14.598 247.937,15.014 247.688,15.501C247.438,15.988 247.314,16.519 247.314,17.094C247.314,17.668 247.438,18.199 247.688,18.687C247.937,19.174 248.288,19.589 248.741,19.932C249.194,20.275 249.748,20.547 250.405,20.747C251.062,20.946 251.798,21.046 252.613,21.046ZM211.137,13.141C210.322,13.141 209.586,13.241 208.929,13.441C208.272,13.64 207.717,13.912 207.265,14.255C206.812,14.598 206.461,15.014 206.211,15.501C205.962,15.988 205.838,16.519 205.838,17.094C205.838,17.668 205.962,18.199 206.211,18.687C206.461,19.174 206.812,19.589 207.265,19.932C207.717,20.275 208.272,20.547 208.929,20.747C209.586,20.946 210.322,21.046 211.137,21.046C211.952,21.046 212.688,20.946 213.345,20.747C214.002,20.547 214.557,20.275 215.009,19.932C215.462,19.589 215.813,19.174 216.062,18.687C216.312,18.199 216.436,17.668 216.436,17.094C216.436,16.519 216.312,15.988 216.062,15.501C215.813,15.014 215.462,14.598 215.009,14.255C214.557,13.912 214.002,13.64 213.345,13.441C212.688,13.241 211.952,13.141 211.137,13.141ZM285.121,16.159C285.099,15.68 284.991,15.241 284.799,14.842C284.606,14.443 284.317,14.095 283.932,13.8C283.547,13.504 283.066,13.273 282.489,13.105C281.911,12.938 281.238,12.854 280.468,12.854C279.72,12.854 279.035,12.954 278.412,13.153C277.79,13.353 277.263,13.612 276.833,13.932C276.403,14.251 276.069,14.606 275.831,14.998C275.593,15.389 275.474,15.776 275.474,16.159L285.121,16.159ZM151.827,16.159C151.805,15.68 151.697,15.241 151.504,14.842C151.312,14.443 151.023,14.095 150.638,13.8C150.253,13.504 149.772,13.273 149.195,13.105C148.617,12.938 147.943,12.854 147.173,12.854C146.426,12.854 145.741,12.954 145.118,13.153C144.496,13.353 143.969,13.612 143.539,13.932C143.108,14.251 142.774,14.606 142.537,14.998C142.299,15.389 142.18,15.776 142.18,16.159L151.827,16.159ZM99.787,7.344C99.787,6.913 100.008,6.542 100.449,6.23C100.891,5.919 101.417,5.763 102.029,5.763C102.64,5.763 103.167,5.919 103.608,6.23C104.05,6.542 104.271,6.913 104.271,7.344C104.271,7.776 104.05,8.147 103.608,8.458C103.167,8.77 102.64,8.925 102.029,8.925C101.417,8.925 100.891,8.77 100.449,8.458C100.008,8.147 99.787,7.776 99.787,7.344ZM235.629,7.344C235.629,6.913 235.849,6.542 236.291,6.23C236.733,5.919 237.259,5.763 237.871,5.763C238.482,5.763 239.008,5.919 239.45,6.23C239.892,6.542 240.112,6.913 240.112,7.344C240.112,7.776 239.892,8.147 239.45,8.458C239.008,8.77 238.482,8.925 237.871,8.925C237.259,8.925 236.733,8.77 236.291,8.458C235.849,8.147 235.629,7.776 235.629,7.344Z" style="fill:rgb(112,112,112);"/>
</svg>
