<?xml version="1.0" encoding="UTF-8" standalone="no"?>
<!-- Created with Inkscape (http://www.inkscape.org/) -->

<svg
   xmlns:dc="http://purl.org/dc/elements/1.1/"
   xmlns:cc="http://creativecommons.org/ns#"
   xmlns:rdf="http://www.w3.org/1999/02/22-rdf-syntax-ns#"
   xmlns:svg="http://www.w3.org/2000/svg"
   xmlns="http://www.w3.org/2000/svg"
   xmlns:sodipodi="http://sodipodi.sourceforge.net/DTD/sodipodi-0.dtd"
   xmlns:inkscape="http://www.inkscape.org/namespaces/inkscape"
   width="272.32938mm"
   height="126.47635mm"
   viewBox="0 0 272.32938 126.47635"
   version="1.1"
   id="svg8"
   inkscape:version="0.92.5 (0.92.5+69)"
   sodipodi:docname="ups-manufacturers.svg">
  <defs
     id="defs2" />
  <sodipodi:namedview
     id="base"
     pagecolor="#ffffff"
     bordercolor="#666666"
     borderopacity="1.0"
     inkscape:pageopacity="0.0"
     inkscape:pageshadow="2"
     inkscape:zoom="0.35"
     inkscape:cx="567.34268"
     inkscape:cy="282.16003"
     inkscape:document-units="mm"
     inkscape:current-layer="g1252"
     showgrid="false"
     inkscape:window-width="917"
     inkscape:window-height="683"
     inkscape:window-x="38"
     inkscape:window-y="27"
     inkscape:window-maximized="0" />
  <metadata
     id="metadata5">
    <rdf:RDF>
      <cc:Work
         rdf:about="">
        <dc:format>image/svg+xml</dc:format>
        <dc:type
           rdf:resource="http://purl.org/dc/dcmitype/StillImage" />
        <dc:title />
      </cc:Work>
    </rdf:RDF>
  </metadata>
  <g
     inkscape:label="Layer 1"
     inkscape:groupmode="layer"
     id="layer1"
     transform="translate(-12.335309,-128.76182)">
    <g
       id="g1252"
       transform="translate(1.8845915,1.9267116)">
      <g
         transform="matrix(0.26458333,0,0,0.26458333,104.60122,126.46209)"
         id="g1008"
         style="clip-rule:evenodd;fill-rule:evenodd;stroke-linejoin:round;stroke-miterlimit:1.41420996;fill:#ffffff;fill-opacity:1">
        <path
           inkscape:connector-curvature="0"
           d="M 126.026,87.371 H 69.21 L 60.391,68.393 90.34,67.497 75.744,30.773 52.131,85.867 H 24.807 L 60.391,9.261 H 90.34 Z m 74.848,-56.393 c 6.677,-13.493 21.571,-21.236 36.108,-23.086 18.332,-2.332 36.096,5.297 36.096,5.297 v 22.592 c 0,0 -13.142,-7.332 -26.312,-7.696 -11.94,-0.329 -24.027,7.21 -24.002,18.876 0.029,13.327 14.857,19.071 24.002,19.77 12.248,0.935 26.312,-5.536 26.312,-5.536 v 19.622 c 0,0 -17.323,8.152 -35.41,5.726 -19.754,-2.65 -40.419,-16.778 -40.419,-39.582 0,-0.245 0.002,-0.488 0.007,-0.731 -3.916,6.907 -10.839,12.157 -20.091,12.835 h -22.23 V 85.472 H 126.026 V 40.05 h 44.005 c 5.154,1.378 5.85,-11.669 0.548,-13.153 -0.195,-0.055 -0.357,-0.205 -0.548,-0.304 H 126.026 L 119.181,9.261 175.357,7.782 c 17.083,1.25 24.909,11.91 25.517,23.196 z"
           style="fill:#ffffff;fill-opacity:1"
           id="path997" />
      </g>
      <g
         transform="matrix(0.26458333,0,0,0.26458333,204.48513,125.77679)"
         id="g1021"
         style="clip-rule:evenodd;fill-rule:evenodd;stroke-linejoin:round;stroke-miterlimit:1.41420996;fill:#ffffff;fill-opacity:1">
        <path
           inkscape:connector-curvature="0"
           d="M 117.25,89.899 H 79.641 l 6.178,-21.063 h 25.254 z m -67.523,0 H 4.082 V 10.101 H 73.94 l -6.956,22.925 h -35.41 v 6.471 H 65.02 L 58.488,61.026 H 31.574 v 6.471 h 24.95 z M 272.549,10.101 h 23.369 V 89.899 H 258.144 L 243.256,40.476 V 89.899 H 219.942 V 10.101 l 37.428,0.448 15.179,50.166 z M 171.077,89.899 h -36.52 V 33.211 h -22.778 v -23.11 h 71.978 l -0.09,0.568 c -17.067,3.322 -30.1,20.8 -30.1,41.833 0,15.512 7.088,29.09 17.655,36.482 z m 25.578,-53.114 c 8.467,0 15.341,7.344 15.341,16.39 0,9.047 -6.874,16.391 -15.341,16.391 -8.467,0 -15.341,-7.344 -15.341,-16.391 0,-9.046 6.874,-16.39 15.341,-16.39 z m -90.794,14.28 h -14.83 l 7.415,-25.283 z"
           style="fill:#ffffff;fill-opacity:1"
           id="path1010" />
      </g>
      <g
         transform="matrix(0.26458333,0,0,0.26458333,6.1737602,176.60365)"
         id="g1034"
         style="clip-rule:evenodd;fill-rule:evenodd;stroke-linejoin:round;stroke-miterlimit:1.41420996;fill:#ffffff;fill-opacity:1">
        <path
           inkscape:connector-curvature="0"
           d="m 202.923,70.053 c 12.729,0 14.947,8.914 14.947,13.306 0,4.391 -1.704,13.044 -14.947,13.044 -13.243,0 -14.903,-8.653 -14.903,-13.044 0,-4.392 1.535,-13.306 14.903,-13.306 z m -20.492,5.675 2.954,-3.453 c 0,0 -9.13,-3.781 -17.115,-1.479 -9.817,2.831 -6.314,10.84 -3.104,12.562 2.493,1.337 7.72,2.344 9.855,3.014 3.63,1.138 3.567,4.881 0,6.101 -2.072,0.709 -11.417,-1.479 -11.305,-1.683 l -2.568,3.598 c 2.03,1.12 16.141,3.912 21.283,0 4.479,-3.407 3.776,-8.81 0,-11.568 -2.534,-1.851 -9.035,-2.908 -10.838,-3.831 -3.558,-1.822 -1.553,-4.921 2.469,-4.984 1.886,-0.03 8.369,1.723 8.369,1.723 z m -54.019,-4.932 -1.358,3.982 h -12.678 v 6.005 h 11.222 v 3.834 h -11.222 v 7.324 h 14.036 v 3.98 h -22 V 70.796 Z m -65.408,0 -1.358,3.982 H 48.968 v 6.005 H 60.19 v 3.834 H 48.968 v 7.324 h 14.036 v 3.98 h -22 V 70.796 Z m 165.409,25.125 h -6.742 V 70.796 h 7.294 l 13.704,16.145 V 70.796 h 6.802 v 25.125 h -6.109 L 228.413,78.81 Z m -87.598,0 h -8.182 V 70.796 h 13.408 c 13.654,-0.149 14.81,10.985 4.678,13.684 l 10.429,11.441 h -8.949 l -8.584,-10.486 h -2.8 z m -66.494,0 H 67.272 V 70.796 h 7.049 l 10.227,15.587 9.644,-15.587 h 7.021 V 95.921 H 94.192 V 79.45 L 84.548,95.279 74.321,79.45 Z M 202.923,74.009 c 5.537,0 6.468,6.239 6.468,9.35 0,3.11 -0.862,9.314 -6.468,9.314 -5.605,0 -6.398,-6.204 -6.398,-9.314 0,-3.111 0.861,-9.35 6.398,-9.35 z m -59.333,0.644 h -2.775 v 6.851 h 3.841 c 6.951,-0.297 6.379,-6.88 -1.066,-6.851 z m 2.073,-69.545 -3.342,5.437 c 4.277,5.993 8.944,11.551 13.66,17.056 l -4.833,-2.085 c -3.578,-4.089 -6.931,-8.342 -10.104,-12.728 l -3.127,5.304 c 0.453,1.111 1.144,2.015 1.949,2.82 -1.026,-0.458 -2.06,-0.784 -3.11,-0.85 l -3.418,5.454 c 0.493,1.194 1.162,2.177 2.045,2.904 -1.018,-0.47 -2.033,-0.784 -3.042,-0.819 l -3.474,5.581 c 0.458,1.01 1.077,1.938 1.919,2.75 -0.928,-0.411 -1.876,-0.704 -2.855,-0.828 l -3.529,5.605 c 6.129,8.77 13.726,16.786 20.386,25.672 l 3.165,-5.338 c -4.432,-5.779 -8.96,-11.435 -13.6,-16.947 l 4.737,1.903 c 3.57,4.146 6.875,8.491 10.056,12.928 l 3.337,-5.351 c -0.587,-1.088 -1.298,-2.052 -2.175,-2.85 1.031,0.618 2.107,0.903 3.241,0.755 l 3.333,-5.482 c -0.466,-1.071 -1.173,-1.996 -2.015,-2.84 0.956,0.58 1.926,1.01 2.943,0.937 l 3.551,-5.659 c -0.562,-1.121 -1.269,-2.067 -2.148,-2.808 1.13,0.663 2.271,0.925 3.425,0.685 l 3.21,-5.56 C 158.993,22.237 147.009,8.058 145.663,5.108 Z m -6.997,31.36 c 1.095,1.487 2.261,2.909 3.523,4.241 1.544,0.92 3.106,1.419 4.669,1.885 -1.084,-1.426 -2.225,-2.831 -3.44,-4.209 -1.638,-0.551 -3.218,-1.196 -4.752,-1.917 z m 4.708,-7.423 c 1.095,1.488 2.261,2.909 3.523,4.241 1.544,0.92 3.105,1.42 4.668,1.886 -1.084,-1.427 -2.224,-2.832 -3.44,-4.209 -1.637,-0.552 -3.217,-1.197 -4.751,-1.918 z"
           style="fill:#ffffff;fill-opacity:1"
           id="path1023" />
      </g>
      <g
         transform="matrix(0.26458333,0,0,0.26458333,107.64186,176.80358)"
         id="g1047"
         style="clip-rule:evenodd;fill-rule:evenodd;stroke-linejoin:round;stroke-miterlimit:1.41420996;fill:#ffffff;fill-opacity:1">
        <path
           inkscape:connector-curvature="0"
           d="m 196.018,59.238 h 1.71 v 2.78 c 1.424,-1.956 3.608,-3.209 6.055,-3.209 4.286,0 7.765,3.843 7.765,8.577 0,4.733 -3.479,8.576 -7.765,8.576 -2.447,0 -4.631,-1.253 -6.055,-3.209 v 12.072 h -1.71 z M 26.77,76.707 H 3.676 V 52.988 H 26.77 Z M 12.037,73.192 c 0.798,0 1.445,0.647 1.445,1.445 0,0.798 -0.647,1.446 -1.445,1.446 -0.798,0 -1.446,-0.648 -1.446,-1.446 0,-0.798 0.648,-1.445 1.446,-1.445 z M 247.584,50 v 12.072 c 1.424,-1.956 3.608,-3.209 6.055,-3.209 4.286,0 7.765,3.843 7.765,8.577 0,4.733 -3.479,8.576 -7.765,8.576 -2.447,0 -4.631,-1.253 -6.055,-3.209 v 2.78 h -1.71 V 50 Z M 122.658,67.6 c 0,0.005 0.231,7.218 6.353,6.907 4.049,-0.207 5.846,-3.718 5.846,-3.718 l 1.197,0.821 c 0,0 -2.318,4.335 -7.043,4.352 -2.581,0.009 -7.916,-1.964 -7.916,-8.362 0,-5.601 2.662,-8.362 7.916,-8.362 8.069,0 7.485,8.356 7.485,8.362 z m 159.819,0 c 0,0.005 0.231,7.218 6.353,6.907 4.049,-0.207 5.846,-3.718 5.846,-3.718 l 1.197,0.821 c 0,0 -2.318,4.335 -7.043,4.352 -2.581,0.009 -7.916,-1.964 -7.916,-8.362 0,-5.601 2.662,-8.362 7.916,-8.362 8.069,0 7.485,8.356 7.485,8.362 z M 77.51,75.962 H 75.745 V 59.238 H 77.51 Z M 110.55,60.71 h -1.75 v -1.472 h 1.75 v -6.762 h 1.61 v 6.762 h 2.746 v 1.472 h -2.746 v 15.252 h -1.61 z m 110.047,0 h -1.749 v -1.472 h 1.749 v -6.762 h 1.61 v 6.762 h 2.747 v 1.472 h -2.747 v 15.252 h -1.61 z m -58.964,15.252 h -1.677 V 59.238 h 1.677 v 1.793 c 1.469,-2.212 3.202,-2.694 5.146,-1.793 l -0.773,1.354 c -2.536,-0.824 -3.845,0.666 -4.373,3.627 z m -106.798,0 H 53.316 V 63.475 c 0,-0.125 0,-4.237 0,-4.237 h 1.519 v 1.221 c 3.066,-2.333 9.712,-1.321 9.795,3.016 V 75.962 H 63.12 V 64.58 c -0.057,-4.888 -8.194,-5.533 -8.285,0 z m 92.146,0 h -1.677 V 59.238 h 1.677 v 1.793 c 1.469,-2.212 3.202,-2.694 5.146,-1.793 l -0.773,1.354 c -2.536,-0.824 -3.845,0.666 -4.373,3.627 z m -57.103,0 H 88.359 V 63.475 c 0,-0.125 0,-4.237 0,-4.237 h 1.519 v 1.221 c 3.066,-2.333 9.712,-1.321 9.795,3.016 v 12.487 h -1.51 V 64.58 c -0.057,-4.888 -8.194,-5.533 -8.285,0 z m 145.045,0 h -1.764 V 59.238 h 1.764 z m 35.401,-23.486 h 1.704 v 23.486 h -1.704 z M 31.646,59.238 h 1.519 V 70.62 c 0.091,5.533 8.228,4.888 8.285,0 V 59.238 h 1.51 v 12.487 c -0.108,5.643 -11.324,5.656 -11.314,0 z m 142.757,0 h 1.519 V 70.62 c 0.091,5.533 8.229,4.888 8.285,0 V 59.238 h 1.51 v 12.487 c -0.108,5.643 -11.324,5.656 -11.314,0 z m 73.181,5.91 c 0.857,-2.815 3.247,-4.843 6.058,-4.843 3.53,0 6.395,3.197 6.395,7.135 0,3.938 -2.865,7.135 -6.395,7.135 -2.811,0 -5.201,-2.028 -6.058,-4.843 -0.372,-1.526 -0.362,-3.054 0,-4.584 z m -49.856,4.529 c 0.857,2.815 3.247,4.843 6.058,4.843 3.53,0 6.395,-3.197 6.395,-7.135 0,-3.938 -2.865,-7.135 -6.395,-7.135 -2.811,0 -5.201,2.028 -6.058,4.843 -0.372,1.526 -0.362,3.054 0,4.584 z m -187.28,1.048 c 0.616,0 1.115,0.5 1.115,1.115 0,0.616 -0.499,1.115 -1.115,1.115 -0.615,0 -1.115,-0.499 -1.115,-1.115 0,-0.615 0.5,-1.115 1.115,-1.115 z m 3.47,0 c 0.616,0 1.116,0.5 1.116,1.115 0,0.616 -0.5,1.115 -1.116,1.115 -0.615,0 -1.115,-0.499 -1.115,-1.115 0,-0.615 0.5,-1.115 1.115,-1.115 z m -2.024,-3.031 c 0.798,0 1.445,0.648 1.445,1.445 0,0.798 -0.647,1.446 -1.445,1.446 -0.798,0 -1.446,-0.648 -1.446,-1.446 0,-0.797 0.648,-1.445 1.446,-1.445 z m 3.837,0.528 c 0.616,0 1.115,0.5 1.115,1.115 0,0.616 -0.499,1.116 -1.115,1.116 -0.615,0 -1.115,-0.5 -1.115,-1.116 0,-0.615 0.5,-1.115 1.115,-1.115 z m -7.036,0 c 0.501,0 0.907,0.406 0.907,0.907 0,0.5 -0.406,0.906 -0.907,0.906 -0.5,0 -0.906,-0.406 -0.906,-0.906 0,-0.501 0.406,-0.907 0.906,-0.907 z m 5.223,-2.098 c 0.501,0 0.907,0.406 0.907,0.906 0,0.5 -0.406,0.906 -0.907,0.906 -0.5,0 -0.906,-0.406 -0.906,-0.906 0,-0.5 0.406,-0.906 0.906,-0.906 z m 3.704,-0.158 c 0.544,0 0.985,0.442 0.985,0.985 0,0.544 -0.441,0.985 -0.985,0.985 -0.543,0 -0.985,-0.441 -0.985,-0.985 0,-0.543 0.442,-0.985 0.985,-0.985 z m -7.52,-0.503 c 0.615,0 1.115,0.5 1.115,1.116 0,0.615 -0.5,1.115 -1.115,1.115 -0.616,0 -1.116,-0.5 -1.116,-1.115 0,-0.616 0.5,-1.116 1.116,-1.116 z m -2.727,0.995 c 0.329,0 0.596,0.267 0.596,0.596 0,0.329 -0.267,0.596 -0.596,0.596 -0.329,0 -0.596,-0.267 -0.596,-0.596 0,-0.329 0.267,-0.596 0.596,-0.596 z m 115.257,-0.526 h 12.255 c 0,0 -0.86,-5.586 -6.087,-5.586 -5.227,0 -6.168,5.586 -6.168,5.586 z m 159.819,0 h 12.255 c 0,0 -0.86,-5.586 -6.087,-5.586 -5.227,0 -6.168,5.586 -6.168,5.586 z M 15.731,63.941 c 0.5,0 0.906,0.406 0.906,0.907 0,0.5 -0.406,0.906 -0.906,0.906 -0.5,0 -0.906,-0.406 -0.906,-0.906 0,-0.501 0.406,-0.907 0.906,-0.907 z m -3.827,-0.217 c 0.5,0 0.906,0.406 0.906,0.907 0,0.5 -0.406,0.906 -0.906,0.906 -0.501,0 -0.907,-0.406 -0.907,-0.906 0,-0.501 0.406,-0.907 0.907,-0.907 z m -5.467,0.528 c 0.329,0 0.596,0.267 0.596,0.596 0,0.329 -0.267,0.596 -0.596,0.596 -0.329,0 -0.596,-0.267 -0.596,-0.596 0,-0.329 0.267,-0.596 0.596,-0.596 z M 19.365,63.76 c 0.417,0 0.757,0.339 0.757,0.757 0,0.418 -0.34,0.757 -0.757,0.757 -0.418,0 -0.758,-0.339 -0.758,-0.757 0,-0.418 0.34,-0.757 0.758,-0.757 z M 8.545,63.331 c 0.501,0 0.907,0.406 0.907,0.906 0,0.5 -0.406,0.906 -0.907,0.906 -0.5,0 -0.906,-0.406 -0.906,-0.906 0,-0.5 0.406,-0.906 0.906,-0.906 z m 1.574,-1.121 c 0.418,0 0.757,0.339 0.757,0.757 0,0.418 -0.339,0.757 -0.757,0.757 -0.418,0 -0.757,-0.339 -0.757,-0.757 0,-0.418 0.339,-0.757 0.757,-0.757 z M 5.46,62.532 c 0.329,0 0.596,0.267 0.596,0.596 0,0.329 -0.267,0.596 -0.596,0.596 -0.329,0 -0.596,-0.267 -0.596,-0.596 0,-0.329 0.267,-0.596 0.596,-0.596 z m 12.162,-0.539 c 0.418,0 0.757,0.339 0.757,0.757 0,0.417 -0.339,0.757 -0.757,0.757 -0.417,0 -0.757,-0.34 -0.757,-0.757 0,-0.418 0.34,-0.757 0.757,-0.757 z m 3.096,0 c 0.329,0 0.596,0.267 0.596,0.596 0,0.329 -0.267,0.596 -0.596,0.596 -0.329,0 -0.596,-0.267 -0.596,-0.596 0,-0.329 0.267,-0.596 0.596,-0.596 z M 7.255,61.34 c 0.395,0 0.716,0.321 0.716,0.717 0,0.395 -0.321,0.716 -0.716,0.716 -0.396,0 -0.717,-0.321 -0.717,-0.716 0,-0.396 0.321,-0.717 0.717,-0.717 z m 1.511,-0.548 c 0.329,0 0.596,0.267 0.596,0.596 0,0.329 -0.267,0.596 -0.596,0.596 -0.329,0 -0.596,-0.267 -0.596,-0.596 0,-0.329 0.267,-0.596 0.596,-0.596 z m 10.209,-0.294 c 0.329,0 0.597,0.267 0.597,0.596 0,0.329 -0.268,0.596 -0.597,0.596 -0.328,0 -0.596,-0.267 -0.596,-0.596 0,-0.329 0.268,-0.596 0.596,-0.596 z m 2.775,-0.156 c 0.329,0 0.596,0.267 0.596,0.596 0,0.329 -0.267,0.596 -0.596,0.596 -0.329,0 -0.596,-0.267 -0.596,-0.596 0,-0.329 0.267,-0.596 0.596,-0.596 z M 6.162,60.106 c 0.341,0 0.617,0.276 0.617,0.617 0,0.34 -0.276,0.617 -0.617,0.617 -0.341,0 -0.617,-0.277 -0.617,-0.617 0,-0.341 0.276,-0.617 0.617,-0.617 z m 14.224,-0.8 c 0.329,0 0.596,0.267 0.596,0.596 0,0.329 -0.267,0.596 -0.596,0.596 -0.329,0 -0.596,-0.267 -0.596,-0.596 0,-0.329 0.267,-0.596 0.596,-0.596 z m 2.369,-0.226 c 0.299,0 0.541,0.243 0.541,0.542 0,0.299 -0.242,0.541 -0.541,0.541 -0.299,0 -0.542,-0.242 -0.542,-0.541 0,-0.299 0.243,-0.542 0.542,-0.542 z M 5.197,58.889 c 0.259,0 0.469,0.21 0.469,0.469 0,0.259 -0.21,0.469 -0.469,0.469 -0.259,0 -0.469,-0.21 -0.469,-0.469 0,-0.259 0.21,-0.469 0.469,-0.469 z m 16.68,-1.034 c 0.259,0 0.469,0.211 0.469,0.47 0,0.259 -0.21,0.469 -0.469,0.469 -0.259,0 -0.47,-0.21 -0.47,-0.469 0,-0.259 0.211,-0.47 0.47,-0.47 z m 1.889,-0.257 c 0.259,0 0.469,0.21 0.469,0.47 0,0.259 -0.21,0.469 -0.469,0.469 -0.259,0 -0.47,-0.21 -0.47,-0.469 0,-0.26 0.211,-0.47 0.47,-0.47 z m -0.939,-0.939 c 0.259,0 0.469,0.21 0.469,0.469 0,0.26 -0.21,0.47 -0.469,0.47 -0.259,0 -0.47,-0.21 -0.47,-0.47 0,-0.259 0.211,-0.469 0.47,-0.469 z m 1.932,-0.134 c 0.202,0 0.366,0.164 0.366,0.366 0,0.201 -0.164,0.365 -0.366,0.365 -0.202,0 -0.366,-0.164 -0.366,-0.365 0,-0.202 0.164,-0.366 0.366,-0.366 z m -0.731,-0.731 c 0.202,0 0.365,0.164 0.365,0.366 0,0.201 -0.163,0.365 -0.365,0.365 -0.202,0 -0.366,-0.164 -0.366,-0.365 0,-0.202 0.164,-0.366 0.366,-0.366 z m 1.66,-0.198 c 0.201,0 0.365,0.164 0.365,0.366 0,0.202 -0.164,0.365 -0.365,0.365 -0.202,0 -0.366,-0.163 -0.366,-0.365 0,-0.202 0.164,-0.366 0.366,-0.366 z m -0.731,-0.884 c 0.201,0 0.365,0.164 0.365,0.366 0,0.201 -0.164,0.365 -0.365,0.365 -0.202,0 -0.366,-0.164 -0.366,-0.365 0,-0.202 0.164,-0.366 0.366,-0.366 z m 209.084,-2.236 c 0.729,0 1.321,0.593 1.321,1.324 0,0.731 -0.592,1.325 -1.321,1.325 -0.73,0 -1.322,-0.594 -1.322,-1.325 0,-0.731 0.592,-1.324 1.322,-1.324 z m -157.414,0 c 0.73,0 1.322,0.593 1.322,1.324 0,0.731 -0.592,1.325 -1.322,1.325 -0.729,0 -1.321,-0.594 -1.321,-1.325 0,-0.731 0.592,-1.324 1.321,-1.324 z m -50.712,1.505 c 0.202,0 0.366,0.164 0.366,0.366 0,0.201 -0.164,0.365 -0.366,0.365 -0.201,0 -0.365,-0.164 -0.365,-0.365 0,-0.202 0.164,-0.366 0.365,-0.366 z M 208.021,16.626 h 2.089 l 8.648,25.925 11.394,-27.376 11.41,27.376 8.312,-25.925 h 2.184 l -10.496,32.617 -11.41,-28.019 -11.948,28.019 z m -49.562,16.469 v 15.013 h -2.73 V 16.626 h 10.525 c 0,0 10.354,-0.302 10.354,7.577 0,8.443 -10.337,8.891 -10.354,8.892 z m 112.66,15.013 H 254.391 V 16.626 h 16.728 v 1.645 H 256.973 V 30.17 h 14.146 v 2.197 h -14.146 v 13.286 h 14.146 z M 107.953,16.626 h 17.398 v 7.369 h -8.531 v 5.004 h 7.724 v 6.983 h -7.724 v 4.824 h 8.531 v 7.302 h -17.398 z m 27.551,31.482 H 127.17 V 16.626 h 12.168 c 0.01,0.002 8.109,2.382 8.864,8.292 0.92,7.196 -5.183,10.655 -5.183,10.655 l 8.656,12.535 h -9.293 l -6.878,-9.316 z M 68.888,27.478 h 8.455 V 16.626 h 8.548 V 48.108 H 77.343 V 36.266 H 68.888 V 48.108 H 60.194 V 16.626 h 8.694 z M 12.255,26.061 20.223,16.626 H 31.381 L 19.046,31.779 32.976,48.108 H 21.74 L 12.255,37.036 V 48.108 H 3.676 V 16.626 h 8.579 z m 75.858,-9.435 h 8.563 v 23.286 h 9.341 v 8.196 H 88.113 Z M 276.49,48.108 h -2.637 V 16.626 h 8.627 c 16.07,-0.57 17.19,16.284 0,16.478 l 14.459,15.004 h -3.183 L 279.045,33.104 H 276.49 Z M 193.601,15.822 c 8.703,0 15.769,7.233 15.769,16.143 0,8.91 -7.066,16.143 -15.769,16.143 -8.703,0 -15.769,-7.233 -15.769,-16.143 0,-8.91 7.066,-16.143 15.769,-16.143 z m -150.73,0.129 c 8.867,0 16.065,7.205 16.065,16.079 0,8.874 -7.198,16.078 -16.065,16.078 -8.866,0 -16.064,-7.204 -16.064,-16.078 0,-8.874 7.198,-16.079 16.064,-16.079 z m 150.57,2.166 c 7.525,0 13.635,6.287 13.635,14.031 0,7.744 -6.11,14.031 -13.635,14.031 -7.525,0 -13.635,-6.287 -13.635,-14.031 0,-7.744 6.11,-14.031 13.635,-14.031 z M 42.739,23.99 c 3.963,0 7.18,3.603 7.18,8.04 0,4.437 -3.217,8.039 -7.18,8.039 -3.963,0 -7.181,-3.602 -7.181,-8.039 0,-4.437 3.218,-8.04 7.181,-8.04 z m 241.512,-5.444 h -7.761 v 12.369 h 7.761 c 0,0 7.654,-0.848 7.654,-6.264 0,-5.411 -7.638,-6.103 -7.654,-6.105 z M 165.61,18.423 h -7.151 v 12.458 h 7.151 c 0,0 8.271,-0.781 8.271,-6.232 0,-5.446 -8.254,-6.224 -8.271,-6.226 z m -27.103,5.622 h -3.003 v 5.916 h 3.003 c 3.312,-0.632 2.695,-5.651 0,-5.916 z"
           style="fill:#ffffff;fill-opacity:1"
           id="path1036" />
      </g>
      <g
         transform="matrix(0.26458333,0,0,0.26458333,203.64566,176.44639)"
         id="g1099"
         style="clip-rule:evenodd;fill-rule:evenodd;stroke-linecap:round;stroke-linejoin:round;stroke-miterlimit:1.5">
        <g
           id="g1071"
           style="stroke:#ffffff;stroke-opacity:1">
          <path
             inkscape:connector-curvature="0"
             d="m 148.109,21.589 h 12.149 c 0,0 -1.07,-4.146 -5.978,-4.146 -4.908,0 -6.171,4.146 -6.171,4.146 z"
             style="fill:none;stroke:#ffffff;stroke-width:1px;stroke-opacity:1"
             id="path1049" />
          <path
             inkscape:connector-curvature="0"
             d="m 174.589,11.3 v 26.646 h 11.266 V 26.942 c 0.496,-3.75 2.494,-6.38 6.545,-7.476 h 3.875 V 11.3 H 192.4 c -2.712,0.055 -5.023,0.913 -6.545,3.356 V 11.3 Z"
             style="fill:none;stroke:#ffffff;stroke-width:1px;stroke-opacity:1"
             id="path1051" />
          <path
             inkscape:connector-curvature="0"
             d="M 13.168,11.3 V 48.04 H 24.441 V 35.772 c 0,0 23.098,9.426 23.098,-10.93 0,-20.355 -23.098,-10.968 -23.098,-10.968 V 11.3 Z"
             style="fill:none;stroke:#ffffff;stroke-width:1px;stroke-opacity:1"
             id="path1053" />
          <g
             transform="translate(-0.15744,-1.69555)"
             id="g1057"
             style="stroke:#ffffff;stroke-opacity:1">
            <circle
               cx="30.511"
               cy="26.479"
               r="6.618"
               style="fill:none;stroke:#ffffff;stroke-width:1px;stroke-opacity:1"
               id="circle1055" />
          </g>
          <g
             transform="translate(39.2066,-1.69555)"
             id="g1061"
             style="stroke:#ffffff;stroke-opacity:1">
            <circle
               cx="30.511"
               cy="26.479"
               r="6.618"
               style="fill:none;stroke:#ffffff;stroke-width:1px;stroke-opacity:1"
               id="circle1059" />
          </g>
          <g
             transform="matrix(2.71815,0,0,2.01318,-13.7235,-28.6831)"
             id="g1065"
             style="stroke:#ffffff;stroke-opacity:1">
            <circle
               cx="30.511"
               cy="26.479"
               r="6.618"
               style="fill:none;stroke:#ffffff;stroke-width:0.41999999px;stroke-opacity:1"
               id="circle1063" />
          </g>
          <path
             inkscape:connector-curvature="0"
             d="m 87.199,11.3 10.268,26.646 h 10.474 l 4.658,-15.868 4.81,15.868 h 10.27 L 138.377,11.3 H 126.213 L 122.464,27.377 117.409,11.3 h -9.468 L 103.099,27.377 98.807,11.3 Z"
             style="fill:none;stroke:#ffffff;stroke-width:1px;stroke-opacity:1"
             id="path1067" />
          <path
             inkscape:connector-curvature="0"
             d="m 148.467,27.377 h 22.53 c 0,0 1.802,-17.311 -16.13,-17.311 -5.669,0 -18.124,2.171 -17.771,14.717 0.268,9.548 8.791,14.05 17.771,14.121 8.98,0.071 16.092,-5.857 16.13,-9.399 h -11.861 c -3.325,5.259 -10.377,2.451 -10.669,-2.128 z"
             style="fill:none;stroke:#ffffff;stroke-width:1px;stroke-opacity:1"
             id="path1069" />
        </g>
        <path
           inkscape:connector-curvature="0"
           d="m 139.58,90.001 c 0.042,0.718 0.249,1.268 0.621,1.65 0.372,0.381 0.835,0.572 1.391,0.572 0.414,0 0.767,-0.107 1.06,-0.32 0.292,-0.213 0.524,-0.554 0.696,-1.022 l 1.166,0.142 c -0.184,0.669 -0.525,1.188 -1.022,1.557 -0.498,0.369 -1.133,0.554 -1.906,0.554 -0.974,0 -1.746,-0.295 -2.316,-0.883 -0.571,-0.589 -0.856,-1.415 -0.856,-2.478 0,-1.099 0.288,-1.953 0.865,-2.56 0.577,-0.607 1.325,-0.911 2.244,-0.911 0.891,0 1.618,0.298 2.182,0.893 0.564,0.595 0.846,1.432 0.846,2.511 0,0.065 -0.002,0.164 -0.006,0.295 z m 28.844,2.985 h -1.047 v -0.825 c -0.422,0.649 -1.042,0.973 -1.862,0.973 -0.53,0 -1.018,-0.144 -1.463,-0.431 -0.446,-0.287 -0.79,-0.688 -1.035,-1.203 -0.244,-0.515 -0.367,-1.107 -0.367,-1.776 0,-0.652 0.111,-1.244 0.333,-1.775 0.221,-0.532 0.553,-0.939 0.996,-1.222 0.444,-0.283 0.939,-0.425 1.486,-0.425 0.402,0 0.759,0.083 1.072,0.25 0.314,0.166 0.569,0.382 0.765,0.649 v -3.237 h 1.122 z M 52.739,89.718 c 0,-1.21 0.343,-2.107 1.029,-2.689 0.572,-0.485 1.27,-0.727 2.093,-0.727 0.916,0 1.664,0.295 2.245,0.883 0.581,0.589 0.871,1.403 0.871,2.441 0,0.841 -0.128,1.502 -0.385,1.985 -0.257,0.482 -0.631,0.856 -1.123,1.123 -0.491,0.266 -1.027,0.4 -1.608,0.4 -0.932,0 -1.685,-0.294 -2.26,-0.88 -0.574,-0.587 -0.862,-1.432 -0.862,-2.536 z m 30.688,0 c 0,-1.21 0.343,-2.107 1.028,-2.689 0.573,-0.485 1.271,-0.727 2.094,-0.727 0.915,0 1.663,0.295 2.244,0.883 0.581,0.589 0.872,1.403 0.872,2.441 0,0.841 -0.129,1.502 -0.386,1.985 -0.257,0.482 -0.631,0.856 -1.122,1.123 -0.491,0.266 -1.027,0.4 -1.608,0.4 -0.932,0 -1.685,-0.294 -2.26,-0.88 -0.575,-0.587 -0.862,-1.432 -0.862,-2.536 z m 44.235,0 c 0,-1.21 0.343,-2.107 1.028,-2.689 0.573,-0.485 1.271,-0.727 2.094,-0.727 0.916,0 1.664,0.295 2.245,0.883 0.581,0.589 0.871,1.403 0.871,2.441 0,0.841 -0.128,1.502 -0.386,1.985 -0.257,0.482 -0.631,0.856 -1.122,1.123 -0.491,0.266 -1.027,0.4 -1.608,0.4 -0.932,0 -1.685,-0.294 -2.26,-0.88 -0.574,-0.587 -0.862,-1.432 -0.862,-2.536 z m -26.612,0.283 c 0.041,0.718 0.248,1.268 0.62,1.65 0.372,0.381 0.836,0.572 1.392,0.572 0.414,0 0.767,-0.107 1.059,-0.32 0.293,-0.213 0.525,-0.554 0.696,-1.022 l 1.166,0.142 c -0.183,0.669 -0.524,1.188 -1.021,1.557 -0.498,0.369 -1.133,0.554 -1.906,0.554 -0.974,0 -1.746,-0.295 -2.317,-0.883 -0.57,-0.589 -0.855,-1.415 -0.855,-2.478 0,-1.099 0.288,-1.953 0.865,-2.56 0.576,-0.607 1.325,-0.911 2.244,-0.911 0.89,0 1.617,0.298 2.182,0.893 0.564,0.595 0.846,1.432 0.846,2.511 0,0.065 -0.002,0.164 -0.006,0.295 z m 55.657,0 c 0.042,0.718 0.249,1.268 0.621,1.65 0.372,0.381 0.836,0.572 1.392,0.572 0.413,0 0.767,-0.107 1.059,-0.32 0.293,-0.213 0.525,-0.554 0.696,-1.022 l 1.166,0.142 c -0.184,0.669 -0.524,1.188 -1.022,1.557 -0.497,0.369 -1.132,0.554 -1.906,0.554 -0.973,0 -1.746,-0.295 -2.316,-0.883 -0.571,-0.589 -0.856,-1.415 -0.856,-2.478 0,-1.099 0.289,-1.953 0.865,-2.56 0.577,-0.607 1.325,-0.911 2.245,-0.911 0.89,0 1.617,0.298 2.181,0.893 0.565,0.595 0.847,1.432 0.847,2.511 0,0.065 -0.002,0.164 -0.007,0.295 z m -6.432,0.591 1.11,0.142 c -0.121,0.75 -0.432,1.338 -0.931,1.763 -0.5,0.424 -1.113,0.637 -1.84,0.637 -0.911,0 -1.644,-0.293 -2.198,-0.877 -0.553,-0.585 -0.83,-1.423 -0.83,-2.514 0,-0.706 0.119,-1.324 0.357,-1.853 0.238,-0.529 0.601,-0.926 1.088,-1.191 0.487,-0.264 1.016,-0.397 1.589,-0.397 0.723,0 1.314,0.18 1.774,0.539 0.46,0.359 0.755,0.869 0.884,1.529 l -1.097,0.166 c -0.104,-0.439 -0.289,-0.769 -0.555,-0.991 -0.265,-0.221 -0.586,-0.332 -0.962,-0.332 -0.568,0 -1.03,0.2 -1.386,0.6 -0.355,0.4 -0.532,1.033 -0.532,1.899 0,0.878 0.171,1.516 0.514,1.914 0.342,0.398 0.79,0.597 1.341,0.597 0.443,0 0.813,-0.133 1.11,-0.4 0.297,-0.267 0.485,-0.677 0.564,-1.231 z m -84.602,2.394 h -1.01 v -0.96 c -0.518,0.739 -1.222,1.108 -2.112,1.108 -0.393,0 -0.76,-0.074 -1.101,-0.222 -0.34,-0.147 -0.593,-0.333 -0.758,-0.557 -0.165,-0.223 -0.281,-0.497 -0.348,-0.821 -0.046,-0.218 -0.069,-0.562 -0.069,-1.034 v -4.05 h 1.128 v 3.625 c 0,0.579 0.023,0.968 0.069,1.169 0.071,0.292 0.222,0.52 0.452,0.687 0.23,0.166 0.514,0.249 0.852,0.249 0.339,0 0.656,-0.085 0.953,-0.256 0.297,-0.17 0.507,-0.402 0.63,-0.695 0.124,-0.293 0.185,-0.719 0.185,-1.277 V 86.45 h 1.129 z m 88.006,-6.536 h 1.135 v 0.862 h -1.135 v 3.822 c 0,0.316 0.02,0.519 0.06,0.609 0.04,0.09 0.104,0.162 0.194,0.215 0.09,0.054 0.219,0.08 0.386,0.08 0.125,0 0.29,-0.014 0.495,-0.043 l 0.163,0.979 c -0.318,0.065 -0.602,0.098 -0.853,0.098 -0.409,0 -0.727,-0.063 -0.953,-0.191 -0.225,-0.127 -0.384,-0.294 -0.476,-0.501 -0.092,-0.207 -0.138,-0.643 -0.138,-1.308 v -3.76 H 151.73 V 86.45 h 0.827 v -1.619 l 1.122,-0.664 z m -17.127,0 h 1.135 v 0.862 h -1.135 v 3.822 c 0,0.316 0.02,0.519 0.059,0.609 0.04,0.09 0.105,0.162 0.195,0.215 0.09,0.054 0.218,0.08 0.385,0.08 0.126,0 0.291,-0.014 0.496,-0.043 l 0.163,0.979 c -0.318,0.065 -0.602,0.098 -0.853,0.098 -0.41,0 -0.727,-0.063 -0.953,-0.191 -0.226,-0.127 -0.384,-0.294 -0.476,-0.501 -0.092,-0.207 -0.138,-0.643 -0.138,-1.308 v -3.76 h -0.828 V 86.45 h 0.828 v -1.619 l 1.122,-0.664 z M 68.556,92.986 H 67.428 V 86.45 h 1.016 v 0.991 c 0.259,-0.464 0.498,-0.769 0.717,-0.917 0.22,-0.148 0.461,-0.222 0.725,-0.222 0.38,0 0.766,0.119 1.159,0.357 l -0.388,1.028 c -0.276,-0.16 -0.552,-0.24 -0.828,-0.24 -0.246,0 -0.468,0.073 -0.664,0.219 -0.197,0.145 -0.337,0.347 -0.42,0.606 -0.126,0.394 -0.189,0.824 -0.189,1.292 z m 56.367,0 h -1.129 V 86.45 h 1.016 v 0.991 c 0.259,-0.464 0.498,-0.769 0.718,-0.917 0.219,-0.148 0.46,-0.222 0.724,-0.222 0.38,0 0.767,0.119 1.159,0.357 l -0.388,1.028 c -0.276,-0.16 -0.552,-0.24 -0.828,-0.24 -0.246,0 -0.468,0.073 -0.664,0.219 -0.197,0.145 -0.337,0.347 -0.42,0.606 -0.126,0.394 -0.188,0.824 -0.188,1.292 z m -31.528,0 H 92.216 L 90.179,86.45 h 1.166 l 1.059,3.773 0.395,1.403 c 0.017,-0.07 0.132,-0.519 0.345,-1.348 l 1.06,-3.828 h 1.159 l 0.997,3.791 0.333,1.25 0.382,-1.262 1.141,-3.779 h 1.097 l -2.081,6.536 H 96.059 L 95,89.072 94.743,87.958 Z m 15.121,0 h -1.128 V 86.45 h 1.015 v 0.991 c 0.259,-0.464 0.499,-0.769 0.718,-0.917 0.22,-0.148 0.461,-0.222 0.724,-0.222 0.381,0 0.767,0.119 1.16,0.357 l -0.389,1.028 c -0.276,-0.16 -0.551,-0.24 -0.827,-0.24 -0.247,0 -0.468,0.073 -0.665,0.219 -0.196,0.145 -0.336,0.347 -0.42,0.606 -0.125,0.394 -0.188,0.824 -0.188,1.292 z m -31.872,0 h -1.216 v -9.022 h 3.466 c 0.611,0 1.077,0.028 1.398,0.086 0.452,0.074 0.83,0.214 1.135,0.421 0.305,0.208 0.551,0.498 0.737,0.871 0.186,0.374 0.279,0.784 0.279,1.231 0,0.767 -0.249,1.417 -0.746,1.948 -0.498,0.531 -1.396,0.797 -2.696,0.797 h -2.357 z m 39.959,0 h -1.216 v -9.022 h 3.467 c 0.61,0 1.076,0.028 1.398,0.086 0.451,0.074 0.83,0.214 1.135,0.421 0.305,0.208 0.55,0.498 0.736,0.871 0.186,0.374 0.279,0.784 0.279,1.231 0,0.767 -0.248,1.417 -0.746,1.948 -0.497,0.531 -1.396,0.797 -2.695,0.797 h -2.358 z m -66.879,0 h -1.216 v -3.822 l -3.542,-5.2 h 1.479 l 1.812,2.72 c 0.334,0.509 0.646,1.017 0.934,1.526 0.276,-0.472 0.61,-1.003 1.003,-1.594 l 1.781,-2.652 h 1.416 l -3.667,5.2 z M 163.81,89.724 c 0,0.837 0.18,1.463 0.539,1.877 0.36,0.415 0.784,0.622 1.273,0.622 0.493,0 0.912,-0.198 1.257,-0.594 0.345,-0.396 0.517,-1 0.517,-1.812 0,-0.895 -0.175,-1.551 -0.526,-1.97 -0.352,-0.418 -0.784,-0.628 -1.298,-0.628 -0.502,0 -0.921,0.201 -1.257,0.603 -0.337,0.403 -0.505,1.036 -0.505,1.902 z m -34.988,-0.006 c 0,0.837 0.186,1.464 0.558,1.88 0.372,0.417 0.84,0.625 1.404,0.625 0.56,0 1.026,-0.209 1.398,-0.628 0.372,-0.418 0.558,-1.056 0.558,-1.914 0,-0.808 -0.187,-1.421 -0.561,-1.837 -0.374,-0.416 -0.839,-0.625 -1.395,-0.625 -0.564,0 -1.032,0.208 -1.404,0.622 -0.372,0.414 -0.558,1.04 -0.558,1.877 z m -44.235,0 c 0,0.837 0.186,1.464 0.558,1.88 0.372,0.417 0.84,0.625 1.404,0.625 0.56,0 1.026,-0.209 1.398,-0.628 0.372,-0.418 0.558,-1.056 0.558,-1.914 0,-0.808 -0.187,-1.421 -0.561,-1.837 -0.374,-0.416 -0.839,-0.625 -1.395,-0.625 -0.564,0 -1.032,0.208 -1.404,0.622 -0.372,0.414 -0.558,1.04 -0.558,1.877 z m -30.688,0 c 0,0.837 0.186,1.464 0.558,1.88 0.372,0.417 0.84,0.625 1.404,0.625 0.56,0 1.026,-0.209 1.398,-0.628 0.372,-0.418 0.558,-1.056 0.558,-1.914 0,-0.808 -0.187,-1.421 -0.561,-1.837 -0.374,-0.416 -0.839,-0.625 -1.395,-0.625 -0.564,0 -1.032,0.208 -1.404,0.622 -0.372,0.414 -0.558,1.04 -0.558,1.877 z M 156.77,89.09 h 3.718 c -0.051,-0.55 -0.193,-0.962 -0.427,-1.237 -0.359,-0.426 -0.825,-0.64 -1.398,-0.64 -0.518,0 -0.954,0.17 -1.307,0.511 -0.353,0.341 -0.548,0.796 -0.586,1.366 z m -17.127,0 h 3.717 c -0.05,-0.55 -0.192,-0.962 -0.426,-1.237 -0.36,-0.426 -0.826,-0.64 -1.398,-0.64 -0.518,0 -0.954,0.17 -1.307,0.511 -0.353,0.341 -0.549,0.796 -0.586,1.366 z m -38.531,0 h 3.718 c -0.05,-0.55 -0.192,-0.962 -0.426,-1.237 -0.36,-0.426 -0.826,-0.64 -1.398,-0.64 -0.519,0 -0.954,0.17 -1.308,0.511 -0.353,0.341 -0.548,0.796 -0.586,1.366 z m 17.842,-4.062 h -2.351 v 3.225 h 2.376 c 0.786,0 1.344,-0.143 1.674,-0.431 0.33,-0.287 0.496,-0.691 0.496,-1.212 0,-0.377 -0.098,-0.701 -0.292,-0.969 -0.194,-0.269 -0.45,-0.447 -0.768,-0.533 -0.205,-0.053 -0.583,-0.08 -1.135,-0.08 z m -39.959,0 h -2.351 v 3.225 h 2.376 c 0.785,0 1.343,-0.143 1.674,-0.431 0.33,-0.287 0.495,-0.691 0.495,-1.212 0,-0.377 -0.097,-0.701 -0.292,-0.969 -0.194,-0.269 -0.45,-0.447 -0.768,-0.533 -0.204,-0.053 -0.583,-0.08 -1.134,-0.08 z"
           style="fill:#ffffff;fill-rule:nonzero;fill-opacity:1"
           id="path1073" />
        <path
           inkscape:connector-curvature="0"
           d="m 180.677,92.986 h -7.618 v -4.674 h 7.618 z m 39.639,-7.282 h -8.782 V 72.512 c 0,0 -4.794,2.932 -10.098,2.975 -6.575,0.054 -13.917,-2.644 -13.917,-13.904 0,-10.27 8.864,-12.918 15.983,-12.722 5.718,0.158 8.032,3.137 8.032,3.137 v -3.137 h 8.782 z m -39.639,-1.747 h -7.618 V 48.04 h 7.618 z m -49.65,-25.951 h -8.899 c -1.178,-2.599 -3.459,-4.362 -6.077,-4.362 -3.824,0 -6.928,3.761 -6.928,8.393 0,4.632 3.104,8.392 6.928,8.392 2.736,0 5.104,-1.925 6.23,-4.718 h 8.681 c -1.957,5.653 -8.008,9.776 -15.161,9.776 -8.736,0 -15.828,-6.149 -15.828,-13.723 0,-7.575 7.092,-13.724 15.828,-13.724 7.232,0 13.339,4.216 15.226,9.966 z m 36.187,17.481 h -8.882 v -15.81 c -1.119,-7.592 -10.896,-5.836 -12.999,-1.073 v 16.883 h -8.245 V 49.285 h 8.245 v 3.098 c 7.513,-7.058 20.444,-5.301 21.881,3.599 z m -95.4,-11.666 c -0.362,6.012 10.083,9.366 13.038,3.652 h 9.086 C 93.902,70.844 87.664,75.554 79.184,75.486 70.703,75.419 62.654,71.134 62.4,62.047 62.067,50.106 73.83,48.04 79.184,48.04 c 16.889,0 15.242,15.695 15.233,15.781 z m 199.213,0 c -0.363,6.012 10.083,9.366 13.037,3.652 h 9.087 c -0.036,3.371 -6.274,8.081 -14.754,8.013 -8.481,-0.067 -16.53,-4.352 -16.784,-13.439 -0.333,-11.941 11.43,-14.007 16.784,-14.007 16.889,0 15.242,15.695 15.233,15.781 z m -15.149,10.412 h -8.244 v -3.098 c -7.514,7.058 -20.445,5.301 -21.881,-3.599 V 48.031 h 8.881 v 15.81 c 1.119,7.593 10.896,5.836 13,1.074 V 48.031 h 8.244 z M 53.553,42.101 v 6.929 h 5.558 v 5.017 h -4.63 c -0.694,0 -1.015,0.32 -0.928,0.99 v 13.154 c 0.054,1.855 0.964,2.557 2.488,2.432 h 3.07 v 4.864 h -7.27 c -4.05,-0.564 -6.392,-2.48 -6.88,-5.864 V 54.047 H 40.485 V 49.03 h 4.476 v -6.929 z m 150.365,12.916 c 4.017,0 7.278,3.353 7.278,7.482 0,4.129 -3.261,7.481 -7.278,7.481 -4.017,0 -7.279,-3.352 -7.279,-7.481 0,-4.129 3.262,-7.482 7.279,-7.482 z M 71.814,58.794 h 13.562 c 0,0 -1.276,-5.462 -6.947,-5.462 -5.67,0 -6.615,5.462 -6.615,5.462 z m 199.213,0 h 13.562 c 0,0 -1.276,-5.462 -6.947,-5.462 -5.671,0 -6.615,5.462 -6.615,5.462 z"
           style="fill:#ffffff;fill-opacity:1"
           id="path1075" />
      </g>
      <g
         transform="matrix(0.26458333,0,0,0.26458333,9.5064192,228.02123)"
         id="g1112"
         style="clip-rule:evenodd;fill-rule:evenodd;stroke-linejoin:round;stroke-miterlimit:1.41420996;fill:#ffffff;fill-opacity:1">
        <path
           inkscape:connector-curvature="0"
           d="m 11.453,15.201 c 2.939,3.014 4.71,7.5 5.234,13.555 7.13,-2.997 14.414,-5.556 22.224,-6.615 13.395,-0.703 16.603,3.932 10.386,13.504 -5.646,7.462 -11.677,14.38 -17.721,21.28 -8.367,11.805 -7.027,20.091 0,26.315 12.207,7.787 23.745,9.563 34.77,6.731 C 58.762,89.39 51.698,87.05 45.367,82.225 40.175,77.466 39.371,71.817 42.242,65.423 53.182,46.909 52.592,46.694 53.656,44.184 56.227,38.124 57.498,32.33 56.672,26.965 55.062,18.368 49.044,14.336 39.862,13.583 30.134,12.591 20.739,13.573 11.453,15.201 Z m 246.884,68.255 h -6.48 V 48.508 c 0.082,-11.624 19.024,-11.134 19.16,0 V 62.25 c -0.575,5.167 -3.73,7.921 -8.985,8.71 h -3.695 z M 245.911,40.001 v 20.663 c -0.013,7.851 -4.716,10.681 -9.5,10.717 -4.872,0.037 -9.763,-2.459 -9.767,-10.717 V 40.001 h 6.472 v 20.663 c 0.098,5.784 6.446,5.257 6.413,0 V 40.001 Z m -99.31,17.611 c -0.018,7.851 -6.842,13.733 -13.782,13.769 -7.067,0.037 -14.163,-4.315 -14.169,-12.574 V 37.67 c 0.414,-16.158 27.806,-15.935 27.951,0 v 15.228 h -18.562 v 4.714 c 0.185,6.088 9.341,5.356 9.304,0 z m 65.301,0 c -0.018,7.851 -6.842,13.733 -13.782,13.769 -7.067,0.037 -14.163,-4.315 -14.169,-12.574 V 37.67 c 0.414,-16.158 27.806,-15.935 27.951,0 z m -99.484,13.769 h -9.246 V 25.62 h 9.246 z m 40.68,-64.062 h 9.15 v 64.062 h -9.15 z m 15.469,0 h 9.15 v 64.062 h -9.15 z M 87.557,71.381 H 78.016 V 40.422 C 78.35,31.57 82.814,26.208 92.21,25.62 h 4.595 v 9.148 H 92.21 c -2.747,0.036 -4.458,1.364 -4.653,4.582 z m -19.782,0 H 42.207 c 0.086,-3.121 2.117,-7.177 6.575,-14.025 3.851,-6.334 7.221,-14.079 8.89,-20.847 2.513,-12.292 -1.435,-21.863 -17.357,-24.36 -10.824,-1.039 -21.733,-0.047 -32.7,2.323 4.402,2.433 6.935,5.905 7.839,16.574 6.532,-3.109 13.554,-5.644 21.47,-7.13 16.432,-1.77 16.644,4.526 9.046,14.029 -5.009,6.177 -10.841,12.276 -16.017,18.673 -3.621,4.858 -5.288,9.786 -5.618,14.763 H 3.569 V 7.319 h 64.206 z m 215.5,-9.667 c 0,0.01 -0.092,3.232 3.763,3.104 2.739,-0.091 4.022,-5.544 0,-6.073 -2.326,-0.306 -10.344,-0.86 -10.218,-9.569 0.177,-12.232 19.1,-12.333 19.18,0 h -6.351 c 0.029,-1.446 -2.661,-5.334 -5.81,-1.492 -1.071,1.305 -1.04,4.473 3.199,4.694 4.24,0.222 8.945,2.973 8.962,9.336 0.034,12.759 -19.179,12.131 -19.18,0 z m -21.838,3.088 c 1.717,-0.168 2.888,-1.035 3.132,-3.088 V 48.508 c -0.077,-2.835 -6.197,-3.256 -6.232,0 v 16.294 z m -68.097,-6.93 c 0.143,5.785 9.352,5.257 9.304,0 V 38.523 c -0.156,-4.945 -9.263,-4.485 -9.304,0 z m -65.301,-14 h 9.304 v -5.349 c -0.156,-4.945 -9.263,-4.485 -9.304,0 z M 103.172,7.319 h 9.246 v 8.925 h -9.246 z"
           style="fill:#ffffff;fill-opacity:1"
           id="path1101" />
      </g>
      <g
         transform="matrix(0.26458333,0,0,0.26458333,103.94346,227.83033)"
         id="g1128"
         style="clip-rule:evenodd;fill-rule:evenodd;stroke-linejoin:round;stroke-miterlimit:1.41420996;fill:#ffffff;fill-opacity:1">
        <g
           transform="translate(0,6.71537)"
           id="g1116"
           style="fill:#ffffff;fill-opacity:1">
          <path
             inkscape:connector-curvature="0"
             d="m 242.494,46.106 h 22.024 c 0,0 3.444,-16.602 -12.285,-17.834 -13.862,-1.086 -18.957,10.405 -19.035,15.381 -0.378,24.165 28.994,12.771 28.994,12.771 l 0.559,-6.819 c -3.34,1.907 -7.34,2.969 -11.849,3.379 -5.64,0.091 -8.24,-2.372 -8.408,-6.878 z m -101.997,-9.065 0.826,-7.181 c 0,0 -25.274,-7.752 -27.243,13.74 -1.969,21.492 24.709,13.91 24.709,13.91 L 139.424,50 c 0,0 -16.846,8.459 -15.575,-6.889 1.117,-13.484 16.648,-6.07 16.648,-6.07 z m 153.633,0 0.826,-7.181 c 0,0 -25.274,-7.752 -27.243,13.74 -1.969,21.492 24.709,13.91 24.709,13.91 L 293.057,50 c 0,0 -16.846,8.459 -15.575,-6.889 1.117,-13.484 16.648,-6.07 16.648,-6.07 z M 75.473,29.809 74.646,36.65 c 0,0 -9.226,-3.255 -13.667,-2.193 -4.441,1.062 -2.963,3.831 -0.766,5.017 2.423,1.309 6.586,0.382 10.006,2.026 7.099,3.412 7.113,10.886 0,15.887 -4.43,3.116 -21.4,0 -21.4,0 L 49.506,50 c 0,0 7.058,4.142 14.248,2.7 4.431,-0.889 3.744,-4.857 0,-5.558 -2.554,-0.479 -10.918,-1.095 -12.295,-4.031 -2.061,-4.395 -1.44,-10.46 3.455,-13.302 5.309,-3.084 20.559,0 20.559,0 z m 86.019,-1.371 c 11.972,0 15.701,7.825 14.843,14.673 -1.996,15.946 -13.263,15.65 -18.639,15.65 -10.212,0 -14.7,-6.983 -13.615,-15.65 1.228,-9.807 7.394,-14.673 17.411,-14.673 z m -64.834,0 c 11.972,0 15.701,7.825 14.844,14.673 -1.996,15.946 -13.264,15.65 -18.64,15.65 -10.212,0 -14.7,-6.983 -13.615,-15.65 1.228,-9.807 7.394,-14.673 17.411,-14.673 z M 42.021,58.761 H 30.743 V 47.508 L 5.044,58.761 V 47.508 L 21.312,40.141 C 15.626,38.901 10.188,39.009 5.044,40.726 V 29.311 c 0,0 9.886,-4.161 18.834,0 8.17,3.799 18.143,0 18.143,0 v 11.415 c -3.522,1.78 -7.287,2.184 -11.278,1.301 v 5.481 h 11.278 z m 147.135,-0.197 h -9.288 l 2.602,-30.066 h 9.304 v 4.468 c 4.874,-6.094 14.079,-6.629 17.746,0.619 5.398,-7.362 17.485,-7.312 19.28,1.721 -0.044,7.773 -0.624,15.522 -1.475,23.258 h -9.36 l 1.711,-18.17 c -0.166,-7.677 -7.486,-6.412 -9.48,0 l -1.857,18.17 h -9.38 l 1.585,-18.17 c 0.092,-6.842 -6.974,-7.229 -9.441,0 z M 160.727,34.779 c 3.85,-0.143 6.404,3.205 5.997,8.332 -0.468,5.899 -2.908,9.336 -7.413,9.504 -4.504,0.168 -6.071,-4.03 -5.675,-9.015 0.441,-5.554 3.241,-8.677 7.091,-8.821 z m -64.834,0 c 3.851,-0.143 6.405,3.205 5.998,8.332 -0.469,5.899 -2.908,9.336 -7.413,9.504 -4.505,0.168 -6.071,-4.03 -5.676,-9.015 0.441,-5.554 3.241,-8.677 7.091,-8.821 z m 147.252,5.638 h 12.18 c 0.43,-3.467 -2.038,-6.313 -4.828,-6.149 -4.365,0.257 -6.642,2.469 -7.352,6.149 z"
             style="fill:#ffffff;fill-opacity:1"
             id="path1114" />
        </g>
      </g>
      <g
         transform="matrix(0.26458333,0,0,0.26458333,204.48513,227.57412)"
         id="g1141"
         style="clip-rule:evenodd;fill-rule:evenodd;stroke-linejoin:round;stroke-miterlimit:1.41420996;fill:#ffffff;fill-opacity:1">
        <path
           inkscape:connector-curvature="0"
           d="M 93.201,97.275 H 90.536 V 80.632 h 2.665 v 1.497 h 0.059 c 0.513,-0.558 1.219,-0.991 2.117,-1.299 0.898,-0.308 1.821,-0.462 2.769,-0.462 1.085,0 2.067,0.139 2.946,0.418 0.878,0.279 1.628,0.668 2.25,1.167 0.622,0.499 1.101,1.082 1.436,1.75 0.336,0.668 0.503,1.383 0.503,2.146 0,0.778 -0.167,1.501 -0.503,2.169 -0.335,0.668 -0.814,1.247 -1.436,1.739 -0.622,0.492 -1.372,0.877 -2.25,1.156 -0.879,0.279 -1.861,0.418 -2.946,0.418 -1.007,0 -1.955,-0.158 -2.843,-0.473 -0.888,-0.316 -1.569,-0.745 -2.043,-1.288 h -0.059 z m 18.091,0 h -2.665 V 80.632 h 2.665 v 1.497 h 0.059 c 0.514,-0.558 1.219,-0.991 2.117,-1.299 0.899,-0.308 1.821,-0.462 2.769,-0.462 1.086,0 2.068,0.139 2.946,0.418 0.879,0.279 1.629,0.668 2.25,1.167 0.622,0.499 1.101,1.082 1.437,1.75 0.335,0.668 0.503,1.383 0.503,2.146 0,0.778 -0.168,1.501 -0.503,2.169 -0.336,0.668 -0.815,1.247 -1.437,1.739 -0.621,0.492 -1.371,0.877 -2.25,1.156 -0.878,0.279 -1.86,0.418 -2.946,0.418 -1.007,0 -1.954,-0.158 -2.843,-0.473 -0.887,-0.316 -1.568,-0.745 -2.043,-1.288 h -0.059 z M 58.913,87.809 c 0.513,0.572 1.17,0.994 1.969,1.266 0.8,0.271 1.624,0.407 2.472,0.407 0.474,0 0.958,-0.055 1.451,-0.165 0.494,-0.11 0.943,-0.275 1.348,-0.496 0.404,-0.22 0.735,-0.491 0.991,-0.814 0.257,-0.323 0.385,-0.697 0.385,-1.123 0,-0.602 -0.256,-1.06 -0.769,-1.376 -0.514,-0.315 -1.15,-0.579 -1.91,-0.792 -0.76,-0.213 -1.589,-0.419 -2.487,-0.617 -0.899,-0.198 -1.728,-0.473 -2.488,-0.825 -0.76,-0.352 -1.396,-0.826 -1.909,-1.42 -0.514,-0.595 -0.77,-1.398 -0.77,-2.411 0,-0.455 0.133,-0.939 0.399,-1.453 0.267,-0.513 0.686,-0.983 1.259,-1.409 0.572,-0.425 1.308,-0.781 2.206,-1.067 0.898,-0.286 1.979,-0.43 3.242,-0.43 1.145,0 2.24,0.118 3.287,0.353 1.046,0.235 1.964,0.712 2.753,1.431 l -2.309,1.563 c -0.356,-0.411 -0.859,-0.742 -1.51,-0.991 -0.652,-0.249 -1.392,-0.374 -2.221,-0.374 -0.79,0 -1.446,0.077 -1.969,0.231 -0.523,0.154 -0.943,0.352 -1.258,0.594 -0.316,0.242 -0.538,0.503 -0.667,0.782 -0.128,0.279 -0.192,0.535 -0.192,0.77 0,0.661 0.256,1.167 0.77,1.519 0.513,0.353 1.15,0.639 1.909,0.859 0.76,0.22 1.59,0.418 2.488,0.594 0.898,0.176 1.727,0.422 2.487,0.738 0.76,0.315 1.396,0.741 1.91,1.277 0.513,0.535 0.77,1.273 0.77,2.212 0,0.748 -0.193,1.424 -0.578,2.025 -0.385,0.602 -0.903,1.108 -1.554,1.519 -0.652,0.411 -1.422,0.727 -2.31,0.947 -0.888,0.22 -1.836,0.33 -2.842,0.33 -1.343,0 -2.616,-0.176 -3.82,-0.528 -1.204,-0.353 -2.162,-0.896 -2.872,-1.629 z m 160.247,3.258 h -2.665 V 89.57 h -0.06 c -0.513,0.558 -1.219,0.991 -2.117,1.299 -0.898,0.308 -1.821,0.462 -2.768,0.462 -1.086,0 -2.068,-0.139 -2.946,-0.418 -0.879,-0.279 -1.629,-0.668 -2.251,-1.167 -0.621,-0.499 -1.1,-1.079 -1.436,-1.739 -0.335,-0.661 -0.503,-1.38 -0.503,-2.158 0,-0.777 0.168,-1.5 0.503,-2.168 0.336,-0.668 0.815,-1.247 1.436,-1.739 0.622,-0.492 1.372,-0.877 2.251,-1.156 0.878,-0.279 1.86,-0.418 2.946,-0.418 1.007,0 1.954,0.158 2.842,0.473 0.889,0.316 1.57,0.745 2.043,1.288 h 0.06 v -7.705 h 2.665 z m -54.304,-7.815 c -0.316,-0.294 -0.706,-0.54 -1.17,-0.738 -0.464,-0.198 -1.031,-0.297 -1.702,-0.297 -0.632,0 -1.18,0.099 -1.644,0.297 -0.464,0.198 -0.696,0.488 -0.696,0.87 0,0.308 0.134,0.558 0.4,0.748 0.267,0.191 0.583,0.345 0.948,0.463 0.365,0.117 0.755,0.205 1.169,0.264 0.415,0.059 0.77,0.11 1.066,0.154 0.573,0.103 1.111,0.227 1.614,0.374 0.503,0.147 0.938,0.338 1.303,0.573 0.365,0.234 0.651,0.521 0.858,0.858 0.208,0.338 0.311,0.749 0.311,1.233 0,0.587 -0.167,1.09 -0.503,1.508 -0.336,0.418 -0.77,0.759 -1.303,1.023 -0.533,0.265 -1.14,0.455 -1.821,0.573 -0.681,0.117 -1.367,0.176 -2.058,0.176 -1.164,0 -2.186,-0.132 -3.064,-0.396 -0.879,-0.264 -1.663,-0.749 -2.354,-1.453 l 2.013,-1.233 c 0.435,0.323 0.918,0.609 1.451,0.859 0.533,0.249 1.184,0.374 1.954,0.374 0.336,0 0.676,-0.026 1.022,-0.077 0.345,-0.052 0.651,-0.132 0.918,-0.242 0.266,-0.11 0.483,-0.25 0.651,-0.419 0.168,-0.168 0.252,-0.363 0.252,-0.583 0,-0.294 -0.124,-0.536 -0.37,-0.727 -0.247,-0.19 -0.543,-0.341 -0.889,-0.451 -0.345,-0.11 -0.71,-0.198 -1.095,-0.264 -0.385,-0.066 -0.726,-0.121 -1.022,-0.165 -0.572,-0.103 -1.115,-0.22 -1.628,-0.352 -0.513,-0.132 -0.967,-0.309 -1.362,-0.529 -0.395,-0.22 -0.711,-0.499 -0.948,-0.836 -0.237,-0.338 -0.355,-0.756 -0.355,-1.255 0,-0.543 0.153,-1.016 0.459,-1.42 0.306,-0.404 0.711,-0.737 1.214,-1.002 0.503,-0.264 1.076,-0.462 1.717,-0.594 0.642,-0.132 1.288,-0.198 1.94,-0.198 0.947,0 1.855,0.132 2.724,0.396 0.868,0.264 1.559,0.705 2.072,1.321 z m 32.985,-2.62 h 3.819 v 1.717 h -3.819 v 4.733 c 0,0.294 0.01,0.584 0.029,0.87 0.02,0.286 0.094,0.543 0.222,0.77 0.129,0.228 0.326,0.411 0.593,0.551 0.266,0.139 0.656,0.209 1.169,0.209 0.316,0 0.642,-0.022 0.977,-0.066 0.336,-0.044 0.642,-0.125 0.918,-0.242 v 1.805 c -0.316,0.132 -0.725,0.224 -1.229,0.275 -0.503,0.051 -0.893,0.077 -1.169,0.077 -1.027,0 -1.821,-0.106 -2.384,-0.319 -0.562,-0.213 -0.977,-0.488 -1.243,-0.826 -0.267,-0.337 -0.425,-0.715 -0.474,-1.133 -0.049,-0.419 -0.074,-0.841 -0.074,-1.266 v -5.438 h -3.08 v -1.717 h 3.08 v -2.928 h 2.665 z M 83.785,89.46 c -0.336,0.558 -0.918,1.009 -1.747,1.354 -0.829,0.345 -1.786,0.517 -2.872,0.517 -0.691,0 -1.342,-0.077 -1.954,-0.231 -0.612,-0.154 -1.15,-0.393 -1.614,-0.716 -0.464,-0.323 -0.834,-0.737 -1.11,-1.243 -0.277,-0.507 -0.415,-1.105 -0.415,-1.795 v -6.714 h 2.665 v 6.164 c 0,0.484 0.089,0.899 0.266,1.244 0.178,0.345 0.415,0.624 0.711,0.836 0.296,0.213 0.637,0.367 1.022,0.463 0.384,0.095 0.784,0.143 1.199,0.143 0.552,0 1.066,-0.066 1.539,-0.198 0.474,-0.132 0.889,-0.342 1.244,-0.628 0.355,-0.286 0.632,-0.649 0.829,-1.089 0.198,-0.441 0.296,-0.962 0.296,-1.563 v -5.372 h 2.665 V 91.067 H 83.844 V 89.46 Z m 59.16,-2.884 c 0,0.455 0.133,0.87 0.399,1.244 0.267,0.374 0.617,0.693 1.052,0.957 0.434,0.265 0.937,0.47 1.51,0.617 0.572,0.146 1.164,0.22 1.776,0.22 0.829,0 1.55,-0.143 2.162,-0.429 0.612,-0.287 1.174,-0.665 1.687,-1.134 l 2.014,1.145 c -1.481,1.423 -3.553,2.135 -6.218,2.135 -1.105,0 -2.107,-0.139 -3.005,-0.418 -0.899,-0.279 -1.659,-0.664 -2.28,-1.156 -0.622,-0.492 -1.101,-1.071 -1.436,-1.739 -0.336,-0.668 -0.504,-1.391 -0.504,-2.169 0,-0.777 0.183,-1.5 0.548,-2.168 0.365,-0.668 0.869,-1.247 1.51,-1.739 0.642,-0.492 1.407,-0.877 2.295,-1.156 0.888,-0.279 1.855,-0.418 2.902,-0.418 1.243,0 2.294,0.161 3.153,0.484 0.859,0.323 1.564,0.745 2.117,1.266 0.553,0.521 0.952,1.108 1.199,1.761 0.247,0.653 0.37,1.317 0.37,1.992 v 0.705 z m 39.351,2.51 h 9.623 v 1.981 H 179.453 V 75.481 h 2.843 z m -45.599,1.981 h -2.665 V 80.632 h 2.665 z m -7.106,0 h -2.665 V 74.424 h 2.665 z M 288.382,90.744 H 228.994 V 29.749 h 59.388 z M 97.82,82.217 c -0.711,0 -1.352,0.092 -1.925,0.275 -0.572,0.184 -1.056,0.433 -1.451,0.749 -0.394,0.315 -0.7,0.697 -0.917,1.144 -0.218,0.448 -0.326,0.936 -0.326,1.464 0,0.529 0.108,1.017 0.326,1.464 0.217,0.448 0.523,0.83 0.917,1.145 0.395,0.316 0.879,0.565 1.451,0.749 0.573,0.183 1.214,0.275 1.925,0.275 0.711,0 1.352,-0.092 1.924,-0.275 0.573,-0.184 1.057,-0.433 1.451,-0.749 0.395,-0.315 0.701,-0.697 0.918,-1.145 0.217,-0.447 0.326,-0.935 0.326,-1.464 0,-0.528 -0.109,-1.016 -0.326,-1.464 -0.217,-0.447 -0.523,-0.829 -0.918,-1.144 -0.394,-0.316 -0.878,-0.565 -1.451,-0.749 -0.572,-0.183 -1.213,-0.275 -1.924,-0.275 z m 18.091,0 c -0.71,0 -1.352,0.092 -1.924,0.275 -0.573,0.184 -1.056,0.433 -1.451,0.749 -0.395,0.315 -0.701,0.697 -0.918,1.144 -0.217,0.448 -0.326,0.936 -0.326,1.464 0,0.529 0.109,1.017 0.326,1.464 0.217,0.448 0.523,0.83 0.918,1.145 0.395,0.316 0.878,0.565 1.451,0.749 0.572,0.183 1.214,0.275 1.924,0.275 0.711,0 1.352,-0.092 1.925,-0.275 0.572,-0.184 1.056,-0.433 1.451,-0.749 0.395,-0.315 0.701,-0.697 0.918,-1.145 0.217,-0.447 0.325,-0.935 0.325,-1.464 0,-0.528 -0.108,-1.016 -0.325,-1.464 -0.217,-0.447 -0.523,-0.829 -0.918,-1.144 -0.395,-0.316 -0.879,-0.565 -1.451,-0.749 -0.573,-0.183 -1.214,-0.275 -1.925,-0.275 z m 95.965,7.265 c 0.71,0 1.352,-0.092 1.924,-0.275 0.573,-0.184 1.056,-0.433 1.451,-0.749 0.395,-0.315 0.701,-0.697 0.918,-1.145 0.217,-0.447 0.326,-0.935 0.326,-1.464 0,-0.528 -0.109,-1.016 -0.326,-1.464 -0.217,-0.447 -0.523,-0.829 -0.918,-1.144 -0.395,-0.316 -0.878,-0.565 -1.451,-0.749 -0.572,-0.183 -1.214,-0.275 -1.924,-0.275 -0.711,0 -1.353,0.092 -1.925,0.275 -0.572,0.184 -1.056,0.433 -1.451,0.749 -0.395,0.315 -0.701,0.697 -0.918,1.144 -0.217,0.448 -0.325,0.936 -0.325,1.464 0,0.529 0.108,1.017 0.325,1.464 0.217,0.448 0.523,0.83 0.918,1.145 0.395,0.316 0.879,0.565 1.451,0.749 0.572,0.183 1.214,0.275 1.925,0.275 z m 38.619,-7.778 c 2.052,0 3.717,1.666 3.717,3.718 0,2.052 -1.665,3.718 -3.717,3.718 -2.052,0 -3.718,-1.666 -3.718,-3.718 0,-2.052 1.666,-3.718 3.718,-3.718 z m -99.141,3.287 c -0.02,-0.44 -0.114,-0.844 -0.281,-1.211 -0.168,-0.367 -0.42,-0.686 -0.755,-0.958 -0.336,-0.271 -0.756,-0.484 -1.259,-0.638 -0.503,-0.154 -1.091,-0.231 -1.762,-0.231 -0.651,0 -1.248,0.092 -1.791,0.275 -0.543,0.184 -1.002,0.422 -1.377,0.716 -0.375,0.293 -0.666,0.62 -0.873,0.979 -0.208,0.36 -0.311,0.716 -0.311,1.068 z m 95.055,-9.63 c 1.583,0 2.868,1.285 2.868,2.868 0,1.583 -1.285,2.868 -2.868,2.868 -1.583,0 -2.868,-1.285 -2.868,-2.868 0,-1.583 1.285,-2.868 2.868,-2.868 z m 8.925,0 c 1.583,0 2.868,1.285 2.868,2.868 0,1.583 -1.285,2.868 -2.868,2.868 -1.583,0 -2.868,-1.285 -2.868,-2.868 0,-1.583 1.285,-2.868 2.868,-2.868 z M 133.41,76.89 c 0,-0.397 0.193,-0.738 0.578,-1.024 0.385,-0.286 0.844,-0.429 1.377,-0.429 0.533,0 0.992,0.143 1.377,0.429 0.384,0.286 0.577,0.627 0.577,1.024 0,0.396 -0.193,0.737 -0.577,1.023 -0.385,0.286 -0.844,0.43 -1.377,0.43 -0.533,0 -0.992,-0.144 -1.377,-0.43 -0.385,-0.286 -0.578,-0.627 -0.578,-1.023 z m 116.717,-9.324 c 2.052,0 3.717,1.666 3.717,3.718 0,2.051 -1.665,3.717 -3.717,3.717 -2.052,0 -3.718,-1.666 -3.718,-3.717 0,-2.052 1.666,-3.718 3.718,-3.718 z m 9.868,1.359 c 1.583,0 2.868,1.285 2.868,2.868 0,1.583 -1.285,2.868 -2.868,2.868 -1.583,0 -2.868,-1.285 -2.868,-2.868 0,-1.583 1.285,-2.868 2.868,-2.868 z m -18.093,0 c 1.286,0 2.331,1.044 2.331,2.33 0,1.287 -1.045,2.331 -2.331,2.331 -1.286,0 -2.33,-1.044 -2.33,-2.331 0,-1.286 1.044,-2.33 2.33,-2.33 z M 169.621,55.878 c 0.059,6.876 8.362,10.186 12.653,4.369 h 13.8 c -0.004,0.015 -3.084,12.884 -19.883,12.782 -8.001,-0.049 -21.08,-5.762 -21.08,-17.151 0,-12.931 3.978,-24.735 21.08,-24.735 23.945,0 21.043,24.665 21.035,24.735 z M 76.71,31.143 c 11.526,0 20.883,9.384 20.883,20.943 0,11.559 -9.357,20.943 -20.883,20.943 -11.526,0 -20.883,-9.384 -20.883,-20.943 0,-11.559 9.357,-20.943 20.883,-20.943 z m 44.677,40.694 H 107.13 L 94.842,32.026 h 14.366 l 5.955,23.852 5.269,-23.852 h 12.211 l 6.228,23.852 5.644,-23.852 h 14.05 L 146.71,71.837 h -14.067 l -6.046,-23.07 z m 91.595,0 H 198.441 V 32.026 h 13.251 v 7.611 c 2.633,-6.773 7.009,-9.521 13.02,-8.494 v 15.455 h -4.498 c -4.239,0.372 -6.572,2.91 -7.232,7.35 z m -184.761,0 H 11.618 V 17.094 h 29.095 c 21.847,1.214 23.702,34.704 0,37.389 H 28.221 Z m 227.113,-8.309 c 1.286,0 2.33,1.045 2.33,2.331 0,1.286 -1.044,2.33 -2.33,2.33 -1.287,0 -2.331,-1.044 -2.331,-2.33 0,-1.286 1.044,-2.331 2.331,-2.331 z m 9.525,-0.405 c 1.398,0 2.533,1.135 2.533,2.533 0,1.398 -1.135,2.533 -2.533,2.533 -1.398,0 -2.533,-1.135 -2.533,-2.533 0,-1.398 1.135,-2.533 2.533,-2.533 z M 245.518,61.83 c 1.583,0 2.868,1.285 2.868,2.868 0,1.583 -1.285,2.868 -2.868,2.868 -1.582,0 -2.868,-1.285 -2.868,-2.868 0,-1.583 1.286,-2.868 2.868,-2.868 z m -7.011,2.557 c 0.846,0 1.533,0.687 1.533,1.533 0,0.846 -0.687,1.533 -1.533,1.533 -0.846,0 -1.533,-0.687 -1.533,-1.533 0,-0.846 0.687,-1.533 1.533,-1.533 z M 76.594,41.461 c 3.648,0 6.61,4.761 6.61,10.625 0,5.865 -2.962,10.626 -6.61,10.626 -3.647,0 -6.609,-4.761 -6.609,-10.626 0,-5.864 2.962,-10.625 6.609,-10.625 z m 183.401,16.455 c 1.286,0 2.331,1.044 2.331,2.331 0,1.286 -1.045,2.33 -2.331,2.33 -1.286,0 -2.331,-1.044 -2.331,-2.33 0,-1.287 1.045,-2.331 2.331,-2.331 z m -9.843,-0.558 c 1.287,0 2.331,1.044 2.331,2.33 0,1.287 -1.044,2.331 -2.331,2.331 -1.286,0 -2.33,-1.044 -2.33,-2.331 0,-1.286 1.044,-2.33 2.33,-2.33 z m -14.057,1.356 c 0.846,0 1.532,0.687 1.532,1.533 0,0.845 -0.686,1.532 -1.532,1.532 -0.846,0 -1.533,-0.687 -1.533,-1.532 0,-0.846 0.687,-1.533 1.533,-1.533 z m 33.244,-1.264 c 1.074,0 1.947,0.872 1.947,1.946 0,1.075 -0.873,1.947 -1.947,1.947 -1.075,0 -1.947,-0.872 -1.947,-1.947 0,-1.074 0.872,-1.946 1.947,-1.946 z m -27.823,-1.104 c 1.287,0 2.331,1.044 2.331,2.33 0,1.286 -1.044,2.331 -2.331,2.331 -1.286,0 -2.33,-1.045 -2.33,-2.331 0,-1.286 1.044,-2.33 2.33,-2.33 z m -7.934,-2.054 c 0.846,0 1.533,0.687 1.533,1.533 0,0.846 -0.687,1.533 -1.533,1.533 -0.846,0 -1.533,-0.687 -1.533,-1.533 0,-0.846 0.687,-1.533 1.533,-1.533 z m 11.981,-0.828 c 1.074,0 1.947,0.873 1.947,1.947 0,1.074 -0.873,1.947 -1.947,1.947 -1.074,0 -1.947,-0.873 -1.947,-1.947 0,-1.074 0.873,-1.947 1.947,-1.947 z m 19.296,-0.56 c 1.074,0 1.947,0.873 1.947,1.947 0,1.075 -0.873,1.947 -1.947,1.947 -1.075,0 -1.947,-0.872 -1.947,-1.947 0,-1.074 0.872,-1.947 1.947,-1.947 z m 7.96,0 c 0.846,0 1.532,0.687 1.532,1.533 0,0.846 -0.686,1.533 -1.532,1.533 -0.846,0 -1.533,-0.687 -1.533,-1.533 0,-0.846 0.687,-1.533 1.533,-1.533 z m -34.622,-1.677 c 1.017,0 1.843,0.825 1.843,1.842 0,1.017 -0.826,1.843 -1.843,1.843 -1.016,0 -1.842,-0.826 -1.842,-1.843 0,-1.017 0.826,-1.842 1.842,-1.842 z m 3.886,-1.41 c 0.846,0 1.533,0.686 1.533,1.532 0,0.846 -0.687,1.533 -1.533,1.533 -0.846,0 -1.532,-0.687 -1.532,-1.533 0,-0.846 0.686,-1.532 1.532,-1.532 z m 26.255,-0.756 c 0.846,0 1.533,0.687 1.533,1.533 0,0.846 -0.687,1.533 -1.533,1.533 -0.846,0 -1.532,-0.687 -1.532,-1.533 0,-0.846 0.686,-1.533 1.532,-1.533 z m 7.136,-0.4 c 0.846,0 1.533,0.686 1.533,1.532 0,0.846 -0.687,1.533 -1.533,1.533 -0.846,0 -1.533,-0.687 -1.533,-1.533 0,-0.846 0.687,-1.532 1.533,-1.532 z m -40.087,-0.609 c 0.876,0 1.587,0.711 1.587,1.587 0,0.876 -0.711,1.588 -1.587,1.588 -0.876,0 -1.587,-0.712 -1.587,-1.588 0,-0.876 0.711,-1.587 1.587,-1.587 z m 36.578,-2.057 c 0.846,0 1.533,0.687 1.533,1.533 0,0.846 -0.687,1.533 -1.533,1.533 -0.846,0 -1.533,-0.687 -1.533,-1.533 0,-0.846 0.687,-1.533 1.533,-1.533 z m 6.093,-0.58 c 0.768,0 1.392,0.624 1.392,1.393 0,0.768 -0.624,1.392 -1.392,1.392 -0.769,0 -1.393,-0.624 -1.393,-1.392 0,-0.769 0.624,-1.393 1.393,-1.393 z m -45.152,-0.492 c 0.665,0 1.206,0.541 1.206,1.206 0,0.666 -0.541,1.207 -1.206,1.207 -0.666,0 -1.207,-0.541 -1.207,-1.207 0,-0.665 0.541,-1.206 1.207,-1.206 z m -63.285,2.299 h 12.653 c 0,0 -0.458,-6.662 -6.048,-6.662 -5.59,0 -6.605,6.662 -6.605,6.662 z m 106.178,-4.957 c 0.667,0 1.208,0.541 1.208,1.207 0,0.667 -0.541,1.208 -1.208,1.208 -0.666,0 -1.207,-0.541 -1.207,-1.208 0,-0.666 0.541,-1.207 1.207,-1.207 z m 4.859,-0.662 c 0.666,0 1.207,0.541 1.207,1.208 0,0.666 -0.541,1.207 -1.207,1.207 -0.667,0 -1.208,-0.541 -1.208,-1.207 0,-0.667 0.541,-1.208 1.208,-1.208 z M 35.828,29.749 h -7.607 v 12.252 h 9.184 c 5.429,-0.639 7.276,-11.152 -1.577,-12.252 z m 242.415,9.439 c 0.666,0 1.207,0.541 1.207,1.208 0,0.666 -0.541,1.207 -1.207,1.207 -0.667,0 -1.208,-0.541 -1.208,-1.207 0,-0.667 0.541,-1.208 1.208,-1.208 z m 4.968,-0.344 c 0.519,0 0.94,0.421 0.94,0.94 0,0.519 -0.421,0.94 -0.94,0.94 -0.518,0 -0.939,-0.421 -0.939,-0.94 0,-0.519 0.421,-0.94 0.939,-0.94 z m -1.879,-1.88 c 0.518,0 0.94,0.421 0.94,0.94 0,0.519 -0.422,0.94 -0.94,0.94 -0.519,0 -0.94,-0.421 -0.94,-0.94 0,-0.519 0.421,-0.94 0.94,-0.94 z m 4.268,-0.508 c 0.518,0 0.939,0.421 0.939,0.94 0,0.518 -0.421,0.94 -0.939,0.94 -0.519,0 -0.94,-0.422 -0.94,-0.94 0,-0.519 0.421,-0.94 0.94,-0.94 z m -1.88,-2.274 c 0.518,0 0.94,0.421 0.94,0.94 0,0.518 -0.422,0.94 -0.94,0.94 -0.519,0 -0.94,-0.422 -0.94,-0.94 0,-0.519 0.421,-0.94 0.94,-0.94 z m 2.465,-1.88 c 0.519,0 0.94,0.421 0.94,0.94 0,0.518 -0.421,0.94 -0.94,0.94 -0.518,0 -0.94,-0.422 -0.94,-0.94 0,-0.519 0.422,-0.94 0.94,-0.94 z m -80.347,-2.776 h -3.057 V 11.417 h 3.057 v 1.628 h 0.068 c 0.589,-0.606 1.398,-1.078 2.429,-1.413 1.03,-0.335 2.089,-0.503 3.176,-0.503 1.245,0 2.372,0.152 3.38,0.455 1.007,0.304 1.868,0.727 2.581,1.27 0.714,0.543 1.263,1.177 1.648,1.904 0.385,0.727 0.577,1.505 0.577,2.336 0,0.846 -0.192,1.632 -0.577,2.359 -0.385,0.727 -0.934,1.357 -1.648,1.892 -0.713,0.535 -1.574,0.955 -2.581,1.258 -1.008,0.303 -2.135,0.455 -3.38,0.455 -1.155,0 -2.242,-0.172 -3.261,-0.515 -1.019,-0.343 -1.8,-0.81 -2.344,-1.401 h -0.068 z M 61.062,5.811 v 10.396 c 0,0.527 0.102,1.074 0.306,1.641 0.204,0.567 0.543,1.09 1.019,1.569 0.476,0.479 1.098,0.87 1.868,1.174 0.77,0.303 1.721,0.455 2.854,0.455 1.132,0 2.083,-0.152 2.853,-0.455 0.77,-0.304 1.393,-0.695 1.868,-1.174 0.476,-0.479 0.816,-1.002 1.019,-1.569 0.204,-0.567 0.306,-1.114 0.306,-1.641 V 5.811 h 3.261 v 10.756 c 0,0.99 -0.238,1.888 -0.713,2.694 -0.476,0.807 -1.133,1.506 -1.97,2.096 -0.838,0.591 -1.823,1.046 -2.956,1.366 -1.132,0.319 -2.355,0.479 -3.668,0.479 -1.314,0 -2.537,-0.16 -3.669,-0.479 -1.132,-0.32 -2.117,-0.775 -2.955,-1.366 -0.838,-0.59 -1.495,-1.289 -1.971,-2.096 -0.475,-0.806 -0.713,-1.704 -0.713,-2.694 V 5.811 Z m 70.486,5.606 h 4.382 v 1.868 h -4.382 v 5.15 c 0,0.319 0.011,0.635 0.034,0.946 0.022,0.312 0.107,0.591 0.254,0.839 0.148,0.247 0.374,0.447 0.68,0.598 0.306,0.152 0.753,0.228 1.342,0.228 0.362,0 0.736,-0.024 1.121,-0.072 0.385,-0.048 0.736,-0.136 1.053,-0.263 v 1.964 c -0.363,0.144 -0.833,0.243 -1.41,0.299 -0.578,0.056 -1.025,0.084 -1.342,0.084 -1.177,0 -2.089,-0.116 -2.734,-0.347 -0.646,-0.232 -1.121,-0.531 -1.427,-0.898 -0.306,-0.368 -0.487,-0.779 -0.544,-1.234 -0.056,-0.455 -0.084,-0.914 -0.084,-1.377 v -5.917 h -3.533 v -1.868 h 3.533 V 8.231 h 3.057 z m 63.488,9.605 c -0.386,0.607 -1.054,1.098 -2.004,1.473 -0.952,0.375 -2.05,0.563 -3.295,0.563 -0.793,0 -1.54,-0.084 -2.242,-0.251 -0.702,-0.168 -1.32,-0.428 -1.852,-0.779 -0.532,-0.351 -0.957,-0.802 -1.274,-1.353 -0.317,-0.551 -0.475,-1.202 -0.475,-1.953 v -7.305 h 3.057 v 6.707 c 0,0.527 0.102,0.978 0.306,1.353 0.204,0.375 0.475,0.679 0.815,0.91 0.34,0.232 0.73,0.399 1.172,0.503 0.442,0.104 0.9,0.156 1.376,0.156 0.634,0 1.223,-0.072 1.766,-0.216 0.544,-0.143 1.019,-0.371 1.427,-0.682 0.407,-0.312 0.724,-0.707 0.951,-1.186 0.226,-0.479 0.34,-1.046 0.34,-1.701 v -5.844 h 3.057 v 11.354 h -3.057 v -1.749 z m 32.746,-9.605 h 4.382 v 1.868 h -4.382 v 5.15 c 0,0.319 0.011,0.635 0.034,0.946 0.022,0.312 0.107,0.591 0.254,0.839 0.148,0.247 0.374,0.447 0.68,0.598 0.306,0.152 0.753,0.228 1.342,0.228 0.362,0 0.736,-0.024 1.121,-0.072 0.385,-0.048 0.736,-0.136 1.053,-0.263 v 1.964 c -0.363,0.144 -0.833,0.243 -1.41,0.299 -0.578,0.056 -1.025,0.084 -1.342,0.084 -1.177,0 -2.089,-0.116 -2.734,-0.347 -0.646,-0.232 -1.121,-0.531 -1.427,-0.898 -0.306,-0.368 -0.487,-0.779 -0.544,-1.234 -0.056,-0.455 -0.084,-0.914 -0.084,-1.377 v -5.917 h -3.533 v -1.868 h 3.533 V 8.231 h 3.057 z m -85.602,6.467 c 0,0.496 0.153,0.946 0.459,1.353 0.305,0.408 0.707,0.755 1.205,1.042 0.499,0.288 1.076,0.511 1.733,0.671 0.657,0.16 1.336,0.24 2.038,0.24 0.951,0 1.778,-0.156 2.48,-0.467 0.702,-0.312 1.347,-0.723 1.936,-1.234 l 2.31,1.246 c -1.699,1.549 -4.076,2.323 -7.134,2.323 -1.268,0 -2.417,-0.152 -3.447,-0.455 -1.031,-0.303 -1.903,-0.723 -2.616,-1.258 -0.713,-0.535 -1.263,-1.165 -1.648,-1.892 -0.385,-0.727 -0.577,-1.513 -0.577,-2.359 0,-0.847 0.209,-1.633 0.628,-2.36 0.419,-0.726 0.997,-1.357 1.733,-1.892 0.736,-0.535 1.613,-0.954 2.632,-1.258 1.019,-0.303 2.129,-0.455 3.329,-0.455 1.427,0 2.633,0.176 3.618,0.527 0.985,0.351 1.795,0.81 2.429,1.377 0.634,0.567 1.093,1.206 1.376,1.917 0.283,0.71 0.424,1.433 0.424,2.168 v 0.766 z m 105.134,4.887 h -3.057 V 4.662 h 3.057 v 8.383 h 0.068 c 0.543,-0.59 1.325,-1.058 2.344,-1.401 1.019,-0.343 2.106,-0.515 3.261,-0.515 1.245,0 2.372,0.152 3.38,0.455 1.007,0.304 1.868,0.723 2.581,1.258 0.714,0.535 1.263,1.166 1.648,1.892 0.385,0.727 0.577,1.513 0.577,2.36 0,0.846 -0.192,1.628 -0.577,2.347 -0.385,0.719 -0.934,1.349 -1.648,1.892 -0.713,0.543 -1.574,0.967 -2.581,1.27 -1.008,0.303 -2.135,0.455 -3.38,0.455 -1.087,0 -2.146,-0.168 -3.176,-0.503 -1.03,-0.335 -1.84,-0.806 -2.429,-1.413 h -0.068 z m 28.16,-4.887 c 0,0.496 0.153,0.946 0.459,1.353 0.305,0.408 0.707,0.755 1.206,1.042 0.498,0.288 1.075,0.511 1.732,0.671 0.657,0.16 1.336,0.24 2.038,0.24 0.951,0 1.778,-0.156 2.48,-0.467 0.702,-0.312 1.347,-0.723 1.936,-1.234 l 2.31,1.246 c -1.698,1.549 -4.076,2.323 -7.133,2.323 -1.269,0 -2.418,-0.152 -3.448,-0.455 -1.031,-0.303 -1.903,-0.723 -2.616,-1.258 -0.713,-0.535 -1.262,-1.165 -1.647,-1.892 -0.385,-0.727 -0.578,-1.513 -0.578,-2.359 0,-0.847 0.21,-1.633 0.629,-2.36 0.419,-0.726 0.996,-1.357 1.732,-1.892 0.736,-0.535 1.614,-0.954 2.633,-1.258 1.019,-0.303 2.128,-0.455 3.329,-0.455 1.426,0 2.632,0.176 3.617,0.527 0.985,0.351 1.795,0.81 2.429,1.377 0.634,0.567 1.093,1.206 1.376,1.917 0.283,0.71 0.424,1.433 0.424,2.168 v 0.766 z m -36.075,4.887 h -3.057 V 11.417 h 3.057 z m 28.908,0 H 265.25 V 4.662 h 3.057 z m -164.75,0 H 100.5 V 11.417 h 3.057 z m 70.826,0 h -3.058 V 11.417 h 3.058 v 1.748 h 0.068 c 0.203,-0.303 0.475,-0.579 0.815,-0.826 0.339,-0.248 0.719,-0.459 1.138,-0.635 0.419,-0.176 0.877,-0.315 1.375,-0.419 0.499,-0.104 0.997,-0.156 1.495,-0.156 0.498,0 0.951,0.048 1.359,0.144 l -0.136,2.323 c -0.249,-0.048 -0.498,-0.088 -0.747,-0.119 -0.249,-0.032 -0.499,-0.048 -0.748,-0.048 -1.494,0 -2.638,0.295 -3.431,0.886 -0.792,0.591 -1.188,1.509 -1.188,2.755 z m -12.569,0 h -3.057 V 11.417 h 3.057 v 1.748 h 0.068 c 0.204,-0.303 0.476,-0.579 0.815,-0.826 0.34,-0.248 0.719,-0.459 1.138,-0.635 0.419,-0.176 0.878,-0.315 1.376,-0.419 0.498,-0.104 0.996,-0.156 1.495,-0.156 0.498,0 0.951,0.048 1.358,0.144 l -0.136,2.323 c -0.249,-0.048 -0.498,-0.088 -0.747,-0.119 -0.249,-0.032 -0.498,-0.048 -0.747,-0.048 -1.495,0 -2.638,0.295 -3.431,0.886 -0.793,0.591 -1.189,1.509 -1.189,2.755 z m -50.342,0 h -3.057 V 11.417 h 3.057 v 1.748 h 0.068 c 0.385,-0.607 1.053,-1.098 2.004,-1.473 0.951,-0.375 2.05,-0.563 3.295,-0.563 0.77,0 1.512,0.084 2.225,0.252 0.713,0.167 1.336,0.427 1.868,0.778 0.533,0.351 0.957,0.803 1.274,1.353 0.317,0.551 0.476,1.202 0.476,1.953 v 7.306 h -3.057 v -6.707 c 0,-0.527 -0.102,-0.979 -0.306,-1.354 -0.204,-0.375 -0.476,-0.679 -0.815,-0.91 -0.34,-0.232 -0.731,-0.399 -1.172,-0.503 -0.442,-0.104 -0.9,-0.156 -1.376,-0.156 -0.634,0 -1.223,0.072 -1.766,0.216 -0.544,0.144 -1.019,0.371 -1.427,0.682 -0.408,0.312 -0.725,0.707 -0.951,1.186 -0.227,0.479 -0.34,1.046 -0.34,1.701 z m -27.039,0 H 81.376 V 11.417 h 3.057 v 1.748 h 0.068 c 0.385,-0.607 1.053,-1.098 2.004,-1.473 0.951,-0.375 2.049,-0.563 3.295,-0.563 0.77,0 1.511,0.084 2.225,0.252 0.713,0.167 1.336,0.427 1.868,0.778 0.532,0.351 0.957,0.803 1.274,1.353 0.317,0.551 0.476,1.202 0.476,1.953 v 7.306 h -3.058 v -6.707 c 0,-0.527 -0.102,-0.979 -0.305,-1.354 -0.204,-0.375 -0.476,-0.679 -0.816,-0.91 -0.339,-0.232 -0.73,-0.399 -1.172,-0.503 -0.441,-0.104 -0.9,-0.156 -1.375,-0.156 -0.634,0 -1.223,0.072 -1.767,0.216 -0.543,0.144 -1.019,0.371 -1.426,0.682 -0.408,0.312 -0.725,0.707 -0.952,1.186 -0.226,0.479 -0.339,1.046 -0.339,1.701 z m 168.18,-1.725 c 0.815,0 1.551,-0.1 2.208,-0.299 0.657,-0.2 1.212,-0.472 1.665,-0.815 0.452,-0.343 0.803,-0.758 1.053,-1.245 0.249,-0.488 0.373,-1.019 0.373,-1.593 0,-0.575 -0.124,-1.106 -0.373,-1.593 -0.25,-0.487 -0.601,-0.903 -1.053,-1.246 -0.453,-0.343 -1.008,-0.615 -1.665,-0.814 -0.657,-0.2 -1.393,-0.3 -2.208,-0.3 -0.815,0 -1.551,0.1 -2.208,0.3 -0.657,0.199 -1.211,0.471 -1.664,0.814 -0.453,0.343 -0.804,0.759 -1.053,1.246 -0.25,0.487 -0.374,1.018 -0.374,1.593 0,0.574 0.124,1.105 0.374,1.593 0.249,0.487 0.6,0.902 1.053,1.245 0.453,0.343 1.007,0.615 1.664,0.815 0.657,0.199 1.393,0.299 2.208,0.299 z m -41.476,-7.905 c -0.815,0 -1.551,0.1 -2.208,0.3 -0.657,0.199 -1.212,0.471 -1.664,0.814 -0.453,0.343 -0.804,0.759 -1.054,1.246 -0.249,0.487 -0.373,1.018 -0.373,1.593 0,0.574 0.124,1.105 0.373,1.593 0.25,0.487 0.601,0.902 1.054,1.245 0.452,0.343 1.007,0.615 1.664,0.815 0.657,0.199 1.393,0.299 2.208,0.299 0.815,0 1.551,-0.1 2.208,-0.299 0.657,-0.2 1.212,-0.472 1.664,-0.815 0.453,-0.343 0.804,-0.758 1.053,-1.245 0.25,-0.488 0.374,-1.019 0.374,-1.593 0,-0.575 -0.124,-1.106 -0.374,-1.593 -0.249,-0.487 -0.6,-0.903 -1.053,-1.246 -0.452,-0.343 -1.007,-0.615 -1.664,-0.814 -0.657,-0.2 -1.393,-0.3 -2.208,-0.3 z m 73.984,3.018 c -0.022,-0.479 -0.13,-0.918 -0.322,-1.317 -0.193,-0.399 -0.482,-0.747 -0.867,-1.042 -0.385,-0.296 -0.866,-0.527 -1.443,-0.695 -0.578,-0.167 -1.251,-0.251 -2.021,-0.251 -0.748,0 -1.433,0.1 -2.056,0.299 -0.622,0.2 -1.149,0.459 -1.579,0.779 -0.43,0.319 -0.764,0.674 -1.002,1.066 -0.238,0.391 -0.357,0.778 -0.357,1.161 z m -133.294,0 c -0.022,-0.479 -0.13,-0.918 -0.323,-1.317 -0.192,-0.399 -0.481,-0.747 -0.866,-1.042 -0.385,-0.296 -0.866,-0.527 -1.443,-0.695 -0.578,-0.167 -1.252,-0.251 -2.022,-0.251 -0.747,0 -1.432,0.1 -2.055,0.299 -0.622,0.2 -1.149,0.459 -1.579,0.779 -0.431,0.319 -0.765,0.674 -1.002,1.066 -0.238,0.391 -0.357,0.778 -0.357,1.161 z M 99.787,7.344 c 0,-0.431 0.221,-0.802 0.662,-1.114 0.442,-0.311 0.968,-0.467 1.58,-0.467 0.611,0 1.138,0.156 1.579,0.467 0.442,0.312 0.663,0.683 0.663,1.114 0,0.432 -0.221,0.803 -0.663,1.114 -0.441,0.312 -0.968,0.467 -1.579,0.467 -0.612,0 -1.138,-0.155 -1.58,-0.467 -0.441,-0.311 -0.662,-0.682 -0.662,-1.114 z m 135.842,0 c 0,-0.431 0.22,-0.802 0.662,-1.114 0.442,-0.311 0.968,-0.467 1.58,-0.467 0.611,0 1.137,0.156 1.579,0.467 0.442,0.312 0.662,0.683 0.662,1.114 0,0.432 -0.22,0.803 -0.662,1.114 -0.442,0.312 -0.968,0.467 -1.579,0.467 -0.612,0 -1.138,-0.155 -1.58,-0.467 -0.442,-0.311 -0.662,-0.682 -0.662,-1.114 z"
           style="fill:#ffffff;fill-opacity:1"
           id="path1130" />
      </g>
      <g
         transform="matrix(0.26458333,0,0,0.26458333,4.1577392,125.77678)"
         id="g1218"
         style="clip-rule:evenodd;fill-rule:evenodd;stroke-linejoin:round;stroke-miterlimit:1.41420996;fill:#ffffff;fill-opacity:1">
        <path
           inkscape:connector-curvature="0"
           d="m 267.999,4 -4.195,10.939 h -22.459 c 0,0 -23.675,-1.474 -23.458,34.28 0.273,44.863 32.324,35.716 32.324,35.716 V 54.154 h -14.896 l 4.006,-10.537 h 32.332 v 47.018 c 0,0 -10.168,5.324 -32.658,5.365 C 226.002,96.024 193.914,88.392 193.914,49.219 193.914,4.432 238.9,4.001 238.995,4 Z M 113.481,94.438 H 88.593 L 80.233,72.907 H 48.985 l -8.5,21.531 H 28.347 L 58.868,17.957 53.188,4 H 77.796 Z M 187.27,4 182.861,14.939 h -35.708 v 28.51 h 32.998 l -4.386,10.754 h -28.612 v 29.648 h 41.401 l -4.333,10.587 H 124.002 V 4 Z M 64.883,33.559 53.188,62.517 h 22.994 z"
           style="fill:#ffffff;fill-opacity:1"
           id="path1207" />
      </g>
    </g>
  </g>
</svg>
