<?xml version="1.0" encoding="UTF-8" standalone="no"?>
<!-- Generator: Adobe Illustrator 22.0.1, SVG Export Plug-In . SVG Version: 6.00 Build 0)  -->

<svg
   xmlns:dc="http://purl.org/dc/elements/1.1/"
   xmlns:cc="http://creativecommons.org/ns#"
   xmlns:rdf="http://www.w3.org/1999/02/22-rdf-syntax-ns#"
   xmlns:svg="http://www.w3.org/2000/svg"
   xmlns="http://www.w3.org/2000/svg"
   xmlns:sodipodi="http://sodipodi.sourceforge.net/DTD/sodipodi-0.dtd"
   xmlns:inkscape="http://www.inkscape.org/namespaces/inkscape"
   version="1.1"
   id="Layer_1"
   x="0px"
   y="0px"
   viewBox="0 0 181 45"
   style="enable-background:new 0 0 181 45;"
   xml:space="preserve"
   sodipodi:docname="vertiv.svg"
   inkscape:version="0.92.5 (2060ec1f9f, 2020-04-08)"><metadata
   id="metadata941"><rdf:RDF><cc:Work
       rdf:about=""><dc:format>image/svg+xml</dc:format><dc:type
         rdf:resource="http://purl.org/dc/dcmitype/StillImage" /></cc:Work></rdf:RDF></metadata><defs
   id="defs939" /><sodipodi:namedview
   pagecolor="#ffffff"
   bordercolor="#666666"
   borderopacity="1"
   objecttolerance="10"
   gridtolerance="10"
   guidetolerance="10"
   inkscape:pageopacity="0"
   inkscape:pageshadow="2"
   inkscape:window-width="2800"
   inkscape:window-height="1672"
   id="namedview937"
   showgrid="false"
   inkscape:zoom="5.3314917"
   inkscape:cx="68.819773"
   inkscape:cy="-14.660983"
   inkscape:window-x="80"
   inkscape:window-y="54"
   inkscape:window-maximized="1"
   inkscape:current-layer="g934" />
<style
   type="text/css"
   id="style914">
	.st0{fill:#FFFFFF;}
</style>
<g
   id="g934"
   style="fill:#707070;fill-opacity:1">
	
	
	<polygon
   class="st0"
   points="172.1,13.1 167,27.4 161.9,13.1 156.4,13.1 164.5,34.4 169.5,34.4 177.5,13.1  "
   id="polygon920"
   style="fill:#707070;fill-opacity:1" />
	<polygon
   class="st0"
   points="148,34.4 152.9,34.4 152.9,13.1 148,13.1  "
   id="polygon922"
   style="fill:#707070;fill-opacity:1" />
	<polygon
   class="st0"
   points="126,17.6 132.5,17.6 132.5,34.4 137.4,34.4 137.4,17.6 144,17.6 144,13.1 126,13.1  "
   id="polygon924"
   style="fill:#707070;fill-opacity:1" />
	<path
   class="st0"
   d="M123.1,20.3c0,3.1-2,5.7-4.7,6.7l5.3,7.4H118l-4.7-6.8h-2.2v6.8h-4.9V13.1h9.8   C119.9,13.1,123.1,16.3,123.1,20.3z M115.2,23.3c1.6,0,2.8-1.3,2.8-2.8s-1.3-2.8-2.8-2.8h-4.1v5.7H115.2z"
   id="path926"
   style="fill:#707070;fill-opacity:1" />
	<polygon
   class="st0"
   points="85.2,34.4 101,34.4 101,29.9 90.1,29.9 90.1,25.7 99.1,25.7 99.1,21.4 90.1,21.4 90.1,17.6 101,17.6    101,13.1 85.2,13.1  "
   id="polygon928"
   style="fill:#707070;fill-opacity:1" />
	<polygon
   class="st0"
   points="71.2,27.4 66.1,13.1 60.6,13.1 68.6,34.4 73.6,34.4 81.7,13.1 76.3,13.1  "
   id="polygon930"
   style="fill:#707070;fill-opacity:1" />
	<path
   class="st0"
   d="M45,13.1L23.8,34.3L34.4,45c7.8-3.9,13.1-11.9,13.1-21.2C47.5,19.9,46.6,16.3,45,13.1z M0,23.8   C0,33.1,5.3,41.1,13.1,45l10.7-10.7L2.5,13.1C0.9,16.3,0,19.9,0,23.8z M23.8,22.3l9.2-9.2h12C41.1,5.3,33,0,23.8,0   S6.4,5.3,2.5,13.1h12L23.8,22.3z"
   id="path932"
   style="fill:#707070;fill-opacity:1" />
</g>
</svg>