<?xml version="1.0" encoding="UTF-8" standalone="no"?>
<svg
   xmlns:dc="http://purl.org/dc/elements/1.1/"
   xmlns:cc="http://creativecommons.org/ns#"
   xmlns:rdf="http://www.w3.org/1999/02/22-rdf-syntax-ns#"
   xmlns:svg="http://www.w3.org/2000/svg"
   xmlns="http://www.w3.org/2000/svg"
   id="svg8"
   version="1.1"
   viewBox="0 0 52.916665 52.916668"
   height="200"
   width="200">
  <defs
     id="defs2" />
  <metadata
     id="metadata5">
    <rdf:RDF>
      <cc:Work
         rdf:about="">
        <dc:format>image/svg+xml</dc:format>
        <dc:type
           rdf:resource="http://purl.org/dc/dcmitype/StillImage" />
        <dc:title></dc:title>
      </cc:Work>
    </rdf:RDF>
  </metadata>
  <g
     transform="translate(0,-244.08332)"
     id="layer1">
    <g
       id="text1034"
       style="font-style:normal;font-variant:normal;font-weight:normal;font-stretch:normal;font-size:19.64335632px;line-height:1.25;font-family:'Open Sans';-inkscape-font-specification:'Open Sans';letter-spacing:0px;word-spacing:0px;fill:#000000;fill-opacity:1;stroke:none;stroke-width:0.26458329"
       aria-label="VFCs">
      <path
         id="path1036"
         style="font-style:normal;font-variant:normal;font-weight:bold;font-stretch:normal;font-family:'Open Sans';-inkscape-font-specification:'Open Sans Bold';stroke-width:0.26458329"
         d="m 13.682479,263.53508 h 3.002135 l -4.766967,14.02275 H 8.6757256 L 3.9183502,263.53508 h 3.0021341 l 2.6376577,8.34459 q 0.2206041,0.73855 0.4508,1.72647 0.239787,0.97833 0.297336,1.36199 0.105506,-0.88242 0.719361,-3.08846 z" />
      <path
         id="path1038"
         style="font-style:normal;font-variant:normal;font-weight:bold;font-stretch:normal;font-family:'Open Sans';-inkscape-font-specification:'Open Sans Bold';stroke-width:0.26458329"
         d="m 21.374848,277.55783 h -2.925402 v -14.02275 h 8.037662 v 2.43624 h -5.11226 v 3.61599 h 4.757376 v 2.42664 h -4.757376 z" />
      <path
         id="path1040"
         style="font-style:normal;font-variant:normal;font-weight:bold;font-stretch:normal;font-family:'Open Sans';-inkscape-font-specification:'Open Sans Bold';stroke-width:0.26458329"
         d="m 35.186582,265.80826 q -1.678509,0 -2.599291,1.26608 -0.920783,1.25648 -0.920783,3.51048 0,4.69024 3.520074,4.69024 1.477089,0 3.577623,-0.73855 v 2.49379 q -1.726467,0.71936 -3.855776,0.71936 -3.059683,0 -4.680643,-1.85116 -1.620961,-1.86074 -1.620961,-5.33286 0,-2.18686 0.796093,-3.827 0.796093,-1.64974 2.282773,-2.52256 1.496271,-0.88242 3.500891,-0.88242 2.042986,0 4.105155,0.98792 l -0.959148,2.41706 q -0.786502,-0.37407 -1.582595,-0.65222 -0.796093,-0.27816 -1.563412,-0.27816 z" />
      <path
         id="path1042"
         style="font-style:normal;font-variant:normal;font-weight:bold;font-stretch:normal;font-family:'Open Sans';-inkscape-font-specification:'Open Sans Bold';stroke-width:0.26458329"
         d="m 48.998316,274.37346 q 0,1.64973 -1.150978,2.51297 -1.141386,0.86323 -3.424159,0.86323 -1.170161,0 -1.995028,-0.16305 -0.824868,-0.15347 -1.544229,-0.4604 v -2.41705 q 0.815276,0.38366 1.831973,0.64263 1.026289,0.25897 1.803199,0.25897 1.592186,0 1.592186,-0.92078 0,-0.3453 -0.211013,-0.55631 -0.211012,-0.2206 -0.728952,-0.48916 -0.51794,-0.27816 -1.381174,-0.64263 -1.237301,-0.51794 -1.822381,-0.95915 -0.575489,-0.44121 -0.844051,-1.00711 -0.25897,-0.57549 -0.25897,-1.40995 0,-1.42913 1.103021,-2.20604 1.112612,-0.7865 3.146006,-0.7865 1.937479,0 3.769453,0.84405 l -0.882417,2.11013 q -0.805684,-0.34529 -1.505863,-0.5659 -0.700178,-0.2206 -1.429131,-0.2206 -1.29485,0 -1.29485,0.70018 0,0.39325 0.412434,0.68099 0.422025,0.28775 1.831973,0.85364 1.256484,0.50835 1.841565,0.94956 0.58508,0.44121 0.863233,1.0167 0.278153,0.57549 0.278153,1.37158 z" />
    </g>
  </g>
  <style
     type="text/css"
     id="style823">
	.st0{fill:#F49500;}
	.st1{fill:#FCC000;}
	.st2{fill:#03A239;}
	.st3{fill:#1192CF;}
</style>
</svg>
