<?xml version="1.0" encoding="UTF-8" standalone="no"?>
<!DOCTYPE svg PUBLIC "-//W3C//DTD SVG 1.1//EN" "http://www.w3.org/Graphics/SVG/1.1/DTD/svg11.dtd">
<svg width="100%" height="100%" viewBox="0 0 300 100" version="1.1" xmlns="http://www.w3.org/2000/svg" xmlns:xlink="http://www.w3.org/1999/xlink" xml:space="preserve" xmlns:serif="http://www.serif.com/" style="fill-rule:evenodd;clip-rule:evenodd;stroke-linejoin:round;stroke-miterlimit:2;">
    <g transform="matrix(1,0,0,1,-354.103,-125)">
        <path d="M401.207,160L401.207,172L371.207,184L401.207,196L401.207,207.714L358.207,189L358.207,179L401.207,160ZM607,160L607,172L637,184L607,196L607,207.714L650,189L650,179L607,160ZM554.207,206L543.207,206L543.207,144L554.207,144L554.207,206ZM588.207,206L579.207,206L595.207,142.286L604.207,142.286L588.207,206ZM425.207,206L411.207,206L427.207,183L411.207,161L426.207,161L434.207,174L442.207,161L456.207,161L441.207,183L458.207,206L443.207,206L434.207,193L425.207,206ZM475.207,161L475.207,167C484.497,157.591 496.15,158.023 502.207,167C509.793,157.016 527.747,157.394 530.207,172L530.207,206L518.207,206L518.207,175C517.966,166.055 503.258,168.068 503.207,179L503.207,206L491.207,206L491.207,175C490.901,166.352 476.323,168.351 476.207,178L476.207,206L464.207,206L464.207,161L475.207,161Z" style="fill:rgb(117,117,117);"/>
    </g>
</svg>
