<?xml version="1.0" encoding="UTF-8" standalone="no"?>
<svg
   xmlns:dc="http://purl.org/dc/elements/1.1/"
   xmlns:cc="http://creativecommons.org/ns#"
   xmlns:rdf="http://www.w3.org/1999/02/22-rdf-syntax-ns#"
   xmlns:svg="http://www.w3.org/2000/svg"
   xmlns="http://www.w3.org/2000/svg"
   id="svg8"
   version="1.1"
   viewBox="0 0 100.01766 119.86765"
   height="119.86765mm"
   width="100.01766mm">
  <defs
     id="defs2" />
  <metadata
     id="metadata5">
    <rdf:RDF>
      <cc:Work
         rdf:about="">
        <dc:format>image/svg+xml</dc:format>
        <dc:type
           rdf:resource="http://purl.org/dc/dcmitype/StillImage" />
        <dc:title></dc:title>
      </cc:Work>
    </rdf:RDF>
  </metadata>
  <g
     transform="translate(-51.680198,-33.139259)"
     id="layer1">
    <path
       id="path834"
       d="m 82.994759,39.285459 -0.997303,94.523521 c -6.426216,8.96886 -23.756484,9.05685 -29.817258,0.0731 v -2e-5 l 0.391246,-94.602176"
       style="fill:none;stroke:#333333;stroke-width:1;stroke-linecap:butt;stroke-linejoin:miter;stroke-miterlimit:4;stroke-dasharray:none;stroke-opacity:1" />
    <ellipse
       ry="5.6022458"
       rx="15.212465"
       cy="39.241505"
       cx="67.783104"
       id="path836"
       style="opacity:1;fill:none;fill-opacity:1;stroke:#333333;stroke-width:1;stroke-linecap:square;stroke-linejoin:round;stroke-miterlimit:4;stroke-dasharray:none;stroke-opacity:1" />
    <path
       id="path838"
       transform="scale(0.26458333)"
       d="m 238.26953,136.4082 c -14.81394,1.87923 -22.2179,5.76888 -22.24219,10.38672 -2.9e-4,6.46768 18.41287,11.71085 41.12696,11.71094 22.71485,2.1e-4 41.12919,-5.24304 41.1289,-11.71094 -0.0171,-4.59784 -6.94248,-8.27916 -21.6582,-10.17187"
       style="opacity:1;fill:none;fill-opacity:1;stroke:#333333;stroke-width:3.77952766;stroke-linecap:butt;stroke-linejoin:round;stroke-miterlimit:4;stroke-dasharray:none;stroke-opacity:1" />
    <path
       id="path836-3"
       d="m 51.948995,69.278776 c 0,0.956949 0.394817,1.82768 1.232646,2.557162 0.837829,0.729481 2.000861,1.351892 3.416015,1.873046 2.830308,1.042309 6.679125,1.671875 10.929688,1.671875 4.250563,0 8.09938,-0.629566 10.929687,-1.671875 1.415154,-0.521154 2.578187,-1.143565 3.416016,-1.873046 0.837829,-0.729482 1.307808,-1.606213 1.307808,-2.563162 m -1,0 c 0,0.590068 -0.262302,1.19825 -0.964058,1.809255 -0.701756,0.611006 -1.767708,1.194847 -3.105469,1.6875 -2.675522,0.985306 -6.432935,1.611328 -10.583984,1.611328 -4.15105,0 -7.908463,-0.626022 -10.583985,-1.611328 -1.337761,-0.492653 -2.403712,-1.076494 -3.105468,-1.6875 -0.701757,-0.611005 -0.888896,-1.213187 -0.888896,-1.803255"
       style="color:#000000;font-style:normal;font-variant:normal;font-weight:normal;font-stretch:normal;font-size:medium;line-height:normal;font-family:sans-serif;font-variant-ligatures:normal;font-variant-position:normal;font-variant-caps:normal;font-variant-numeric:normal;font-variant-alternates:normal;font-feature-settings:normal;text-indent:0;text-align:start;text-decoration:none;text-decoration-line:none;text-decoration-style:solid;text-decoration-color:#000000;letter-spacing:normal;word-spacing:normal;text-transform:none;writing-mode:lr-tb;direction:ltr;text-orientation:mixed;dominant-baseline:auto;baseline-shift:baseline;text-anchor:start;white-space:normal;shape-padding:0;clip-rule:nonzero;display:inline;overflow:visible;visibility:visible;opacity:1;isolation:auto;mix-blend-mode:normal;color-interpolation:sRGB;color-interpolation-filters:linearRGB;solid-color:#000000;solid-opacity:1;vector-effect:none;fill:#333333;fill-opacity:1;fill-rule:nonzero;stroke:none;stroke-width:1;stroke-linecap:square;stroke-linejoin:round;stroke-miterlimit:4;stroke-dasharray:none;stroke-dashoffset:0;stroke-opacity:1;color-rendering:auto;image-rendering:auto;shape-rendering:auto;text-rendering:auto;enable-background:accumulate" />
    <path
       id="path857"
       d="m 61.753876,37.671604 c 2.789987,-4.763599 10.201635,-4.606895 12.716185,0.146161"
       style="fill:none;stroke:#333333;stroke-width:1;stroke-linecap:butt;stroke-linejoin:miter;stroke-miterlimit:4;stroke-dasharray:none;stroke-opacity:1" />
    <ellipse
       transform="matrix(1,0,0.20976146,0.97775259,0,0)"
       ry="14.251552"
       rx="13.211021"
       cy="141.71281"
       cx="65.565453"
       id="path875"
       style="opacity:1;fill:none;fill-opacity:1;stroke:#333333;stroke-width:1.04801214;stroke-linecap:butt;stroke-linejoin:round;stroke-miterlimit:4;stroke-dasharray:none;stroke-opacity:1" />
    <path
       id="path877"
       d="M 85.007729,127.19124 130.06958,87.762124 c 13.16328,-6.433837 28.07848,11.252514 17.62166,22.634276 l -41.6512,38.96403"
       style="fill:none;stroke:#333333;stroke-width:1;stroke-linecap:butt;stroke-linejoin:miter;stroke-miterlimit:4;stroke-dasharray:none;stroke-opacity:1" />
    <path
       id="path894"
       d="m 118.44238,97.94238 c 8.72009,-2.445226 24.30233,4.29488 20.15381,21.08398"
       style="fill:none;stroke:#333333;stroke-width:1;stroke-linecap:butt;stroke-linejoin:miter;stroke-miterlimit:4;stroke-dasharray:none;stroke-opacity:1" />
    <ellipse
       transform="matrix(1,0,0.20444168,0.97887875,0,0)"
       ry="11.236345"
       rx="10.151799"
       cy="141.9193"
       cx="65.708687"
       id="path875-5"
       style="opacity:1;fill:none;fill-opacity:1;stroke:#333333;stroke-width:1.01073086;stroke-linecap:butt;stroke-linejoin:round;stroke-miterlimit:4;stroke-dasharray:none;stroke-opacity:1" />
  </g>
</svg>
