<?xml version="1.0" encoding="UTF-8" standalone="no"?>
<!DOCTYPE svg PUBLIC "-//W3C//DTD SVG 1.1//EN" "http://www.w3.org/Graphics/SVG/1.1/DTD/svg11.dtd">
<svg width="100%" height="100%" viewBox="0 0 300 300" version="1.1" xmlns="http://www.w3.org/2000/svg" xmlns:xlink="http://www.w3.org/1999/xlink" xml:space="preserve" xmlns:serif="http://www.serif.com/" style="fill-rule:evenodd;clip-rule:evenodd;stroke-linecap:round;stroke-linejoin:round;stroke-miterlimit:1.5;">
    <g transform="matrix(1,0,0,1,-1,170)">
        <g transform="matrix(1,0,0,1,10,-149.934)">
            <path d="M20.056,20.597L18.619,21.073L11.302,13.375C9.846,11.584 12.867,9.548 13.966,10.562L22.259,16.728L22.259,18.428L20.056,20.597Z" style="fill:none;stroke:black;stroke-width:1.5px;"/>
        </g>
        <g transform="matrix(1,0,0,1,10,-149.934)">
            <path d="M76.91,86.468C59.717,62.907 41.558,40.164 22.224,18.418L20.264,20.432C39.39,41.631 57.312,63.944 74.065,87.339L76.91,86.468Z" style="fill:none;stroke:black;stroke-width:1.5px;"/>
        </g>
        <g transform="matrix(0.779826,-0.0750987,0.0750987,0.779826,85.2749,-180.402)">
            <ellipse cx="60.798" cy="142.421" rx="5.775" ry="2.781" style="fill:none;stroke:black;stroke-width:1.91px;"/>
        </g>
        <g transform="matrix(0.779826,-0.0750987,0.0750987,0.779826,122.453,-144.952)">
            <ellipse cx="60.798" cy="142.421" rx="5.775" ry="2.781" style="fill:none;stroke:black;stroke-width:1.91px;"/>
        </g>
        <g transform="matrix(0.779826,-0.0750987,0.0750987,0.779826,11.5992,-112.597)">
            <ellipse cx="60.798" cy="142.421" rx="5.775" ry="2.781" style="fill:none;stroke:black;stroke-width:1.91px;"/>
        </g>
        <g transform="matrix(0.779826,-0.0750987,0.0750987,0.779826,-18.8237,-150.121)">
            <ellipse cx="60.798" cy="142.421" rx="5.775" ry="2.781" style="fill:none;stroke:black;stroke-width:1.91px;"/>
        </g>
        <g transform="matrix(1,0,0,1,10,-149.934)">
            <path d="M30.991,116.884L45.128,98.421L113.369,78.585L147.648,82.047L165.744,98.421L155.962,116.884L82.247,139.277L46.88,134.678L30.991,116.884Z" style="fill:none;stroke:black;stroke-width:1.5px;"/>
        </g>
        <g transform="matrix(1,0,0,1,10,-149.934)">
            <path d="M21,142L18,111C17.774,106.264 20.522,103.545 25,102L128,72C134.178,70.647 139.367,71.309 143,74L182,108C183.347,109.191 184.052,110.517 184,112L184,118L192,125C192.888,126.042 193.045,127.546 192,130L183,149C181.857,150.788 180.118,152.058 178,153L70,189C67.294,189.901 62.695,189.625 59,189L28,184C25.851,183.509 23.763,182.822 22,181L9,162C7.951,160.326 8.015,158.702 9,157.118L21,142Z" style="fill:none;stroke:black;stroke-width:1.5px;"/>
        </g>
        <g transform="matrix(1,0,0,1,10,-149.934)">
            <path d="M21.172,142.226L56,188" style="fill:none;stroke:black;stroke-width:1.5px;stroke-linecap:square;"/>
        </g>
        <g transform="matrix(1,0,0,1,10,-149.934)">
            <path d="M184,118L185.283,144.18" style="fill:none;stroke:black;stroke-width:1.5px;"/>
        </g>
        <g transform="matrix(1,0,0,1,10,-149.934)">
            <path d="M18,113L47,149C50.165,153.037 59.605,153.783 66,152L179,117C181.785,116.095 183.36,114.067 184,111" style="fill:none;stroke:black;stroke-width:1.5px;stroke-linecap:butt;"/>
        </g>
    </g>
    <g transform="matrix(0.633041,-0.060963,0.129868,1.34855,73.8904,-10.9552)">
        <ellipse cx="60.798" cy="142.421" rx="5.775" ry="2.781" style="fill:none;stroke:black;stroke-width:1.91px;"/>
    </g>
    <g transform="matrix(1,0,0,1,-18.6556,20.7891)">
        <path d="M149.118,156.754C163.435,168.547 180.231,182.283 195.983,199.042C228.433,233.566 168,260.667 152,268C136,275.333 99.196,265.701 95,249C85.333,210.528 149.107,191.548 173.107,191.548C197.107,191.548 218.406,193.982 234.333,205" style="fill:none;stroke:black;stroke-width:3.33px;stroke-linecap:butt;"/>
    </g>
    <g transform="matrix(1,0,0,1,-18.6556,19.7353)">
        <g transform="matrix(1,0,0,1,30.6897,2.67981)">
            <path d="M244.978,235.158L244.978,248.458L245.847,256.31L245.836,243.764L245.847,256.31L274.265,256.31C277.34,256.084 280.1,252.52 280.124,248.458L280.124,237.867" style="fill:none;stroke:black;stroke-width:1.67px;stroke-linecap:square;"/>
            <path d="M241.65,201.797L241.65,214.568L242.654,222.319" style="fill:none;stroke:black;stroke-width:1.67px;stroke-linecap:square;"/>
            <path d="M242.654,211.857L242.654,222.78L253.279,222.78C258.837,222.851 261.931,227.792 261.181,232.78" style="fill:none;stroke:black;stroke-width:1.67px;"/>
            <path d="M279.971,236.334C280.161,238.233 279.538,240.125 278.256,241.541C276.975,242.956 275.155,243.764 273.245,243.764C262.999,243.764 245.836,243.764 245.836,243.764L244.978,235.158C273.942,239.144 271.775,210.029 242.654,211.857L241.65,201.797L267.49,201.797C272.619,201.797 276.914,205.684 277.423,210.789C278.183,218.406 279.259,229.197 279.971,236.334Z" style="fill:none;stroke:black;stroke-width:1.67px;stroke-linecap:square;"/>
        </g>
        <g transform="matrix(1,0,0,1,32.3396,1.30037)">
            <g transform="matrix(1,-0.16,0,1,8.5,32.44)">
                <path d="M214.923,233.129C211.624,230.878 209,227.791 209,223.5C209,216.601 214.601,211 221.5,211C223.913,211 226.166,211.685 228.077,212.871" style="fill:none;stroke:black;stroke-width:1.8px;"/>
            </g>
            <g transform="matrix(1,-0.16,0,1,8.5,45.44)">
                <path d="M211.079,216.544C213.318,213.16 217.151,210.958 221.5,211C223.912,211.023 226.166,212.498 228.077,213.684" style="fill:none;stroke:black;stroke-width:1.8px;"/>
            </g>
            <g transform="matrix(1,0.46875,0,1,0,-103.125)">
                <rect x="188" y="237" width="32" height="14" style="fill:none;stroke:black;stroke-width:1.33px;"/>
            </g>
            <g transform="matrix(1,0.46875,0,1,20,-137.125)">
                <path d="M220,251L220,237L193.497,237" style="fill:none;stroke:black;stroke-width:1.33px;"/>
            </g>
            <g transform="matrix(0.625,-1.0625,0,-1,70.5,672.75)">
                <path d="M188,251L228.795,239.079" style="fill:none;stroke:black;stroke-width:1.09px;"/>
            </g>
            <g transform="matrix(0.106956,-0.181825,0,-1,216.47,494.001)">
                <rect x="188" y="237" width="32" height="14" style="fill:none;stroke:black;stroke-width:1.99px;"/>
            </g>
            <g transform="matrix(0.106956,-0.181825,0,-1,199.892,522.183)">
                <rect x="188" y="237" width="32" height="14" style="fill:none;stroke:black;stroke-width:1.99px;"/>
            </g>
        </g>
    </g>
</svg>
