<?xml version="1.0" encoding="UTF-8" standalone="no"?>
<svg
   xmlns:dc="http://purl.org/dc/elements/1.1/"
   xmlns:cc="http://creativecommons.org/ns#"
   xmlns:rdf="http://www.w3.org/1999/02/22-rdf-syntax-ns#"
   xmlns:svg="http://www.w3.org/2000/svg"
   xmlns="http://www.w3.org/2000/svg"
   id="svg863"
   style="fill-rule:evenodd;clip-rule:evenodd;stroke-linecap:round;stroke-linejoin:round;stroke-miterlimit:1.5;"
   xml:space="preserve"
   version="1.1"
   viewBox="0 0 225 236"
   height="100%"
   width="100%"><metadata
   id="metadata869"><rdf:RDF><cc:Work
       rdf:about=""><dc:format>image/svg+xml</dc:format><dc:type
         rdf:resource="http://purl.org/dc/dcmitype/StillImage" /><dc:title></dc:title></cc:Work></rdf:RDF></metadata><defs
   id="defs867" />
    <g
   id="g861"
   transform="matrix(1,0,0,1,-6.41131,-61.816)">
        <g
   id="g859">
            
            
            
            
            
            
            
            
            
            
            
            
            
            
            
            
            <g
   transform="translate(42.877738,32.564254)"
   id="g881"><path
     d="M 64.992,117.248 34.494,69.408 c -0.775,-0.124 -1.371,0.071 -1.627,0.874 l 30.482,48.165"
     style="fill:none;stroke:#000000;stroke-width:1px"
     id="path815" /><path
     d="m 32.867,70.661 c -0.386,-0.216 -0.981,-0.539 -1.269,-1.033 l -3.302,-5.839 c 0.454,-0.923 1.254,-1.372 2.307,-1.473 l 4.061,5.7 c 0.174,0.546 0.159,1.075 0.016,1.593"
     style="fill:none;stroke:#000000;stroke-width:1px"
     id="path817" /><g
     transform="rotate(45,212.42496,287.00779)"
     id="g825">
                
            </g><g
     transform="translate(-7.70759,3.29199)"
     id="g841">
                
            </g><path
     d="m 22.296,152.26 67.77,-43.454 c 0.908,-0.44 1.756,-0.44 2.549,-0.039 l 32.071,29.918 c 0.678,0.813 0.726,1.606 -0.042,2.374 l -66.845,46.413 c -1.103,0.734 -2.23,0.782 -3.386,0 L 21.638,154.541 c -0.64,-0.884 -0.26,-1.621 0.658,-2.281 z"
     style="fill:none;stroke:#000000;stroke-width:1px"
     id="path847" /><path
     d="m 136.529,135.5 c 2.705,2.648 4.047,5.425 0.373,8.894 L 54.544,200 c -3.62,2.408 -7.131,1.613 -10.557,-1.653 L 7.103,160.288"
     style="fill:none;stroke:#000000;stroke-width:1px"
     id="path849" /><g
     transform="matrix(1,0,0,1.23088,1.1272,-50.3012)"
     id="g853">
                <ellipse
   cx="26.896"
   cy="213.3"
   rx="3.4849999"
   ry="2.539"
   style="fill:none;stroke:#000000;stroke-width:0.88999999px"
   id="ellipse851" />
            </g><path
     d="m 13.969,187.472 6.376,24.808 c 0.705,3.181 2.204,5.347 4.462,6.544 l 28.627,11.945"
     style="fill:none;stroke:#000000;stroke-width:1px"
     id="path855" /><path
     d="m 142.915,173.42 c 1.64,-1.519 2.329,-3.312 2.23,-5.33 l -3.853,-24.229 c -0.685,-3.334 -2.322,-5.922 -4.49,-8.094 L 99.446,101.594 c -2.857,-2.393 -5.676,-2.481 -8.462,-0.659 l -80.365,51.852 c -3.128,2.067 -4.398,4.818 -3.343,8.426 l 6.339,25.561 39.902,44.11 c 2.702,1.812 5.667,1.836 8.962,-0.376 26.851773,-18.97336 53.64609,-38.02749 80.436,-57.088 z"
     style="fill:none;stroke:#000000;stroke-width:1px"
     id="path857" /></g>
        </g>
    </g>
</svg>