<?xml version="1.0" encoding="UTF-8" standalone="no"?>
<svg
   xmlns:dc="http://purl.org/dc/elements/1.1/"
   xmlns:cc="http://creativecommons.org/ns#"
   xmlns:rdf="http://www.w3.org/1999/02/22-rdf-syntax-ns#"
   xmlns:svg="http://www.w3.org/2000/svg"
   xmlns="http://www.w3.org/2000/svg"
   xmlns:sodipodi="http://sodipodi.sourceforge.net/DTD/sodipodi-0.dtd"
   xmlns:inkscape="http://www.inkscape.org/namespaces/inkscape"
   width="193.51515"
   height="206.98726"
   viewBox="0 0 193.51515 206.98726"
   version="1.1"
   xml:space="preserve"
   style="clip-rule:evenodd;fill-rule:evenodd;stroke-linecap:round;stroke-linejoin:round;stroke-miterlimit:1.5"
   id="svg60"
   sodipodi:docname="airflow.svg"
   inkscape:version="0.92.5 (0.92.5+69)"><metadata
   id="metadata66"><rdf:RDF><cc:Work
       rdf:about=""><dc:format>image/svg+xml</dc:format><dc:type
         rdf:resource="http://purl.org/dc/dcmitype/StillImage" /></cc:Work></rdf:RDF></metadata><defs
   id="defs64" /><sodipodi:namedview
   pagecolor="#ffffff"
   bordercolor="#666666"
   borderopacity="1"
   objecttolerance="10"
   gridtolerance="10"
   guidetolerance="10"
   inkscape:pageopacity="0"
   inkscape:pageshadow="2"
   inkscape:window-width="640"
   inkscape:window-height="480"
   id="namedview62"
   showgrid="false"
   inkscape:zoom="0.78666667"
   inkscape:cx="111.24224"
   inkscape:cy="86.596025"
   inkscape:window-x="38"
   inkscape:window-y="27"
   inkscape:window-maximized="0"
   inkscape:current-layer="svg60" />
    
    
    <g
   id="g902"
   transform="translate(-16.511998,-29.608763)"><g
     id="g46"
     transform="translate(-1,170)">
        <g
   id="g4"
   transform="translate(10,-149.934)">
            <path
   id="path2"
   style="fill:none;stroke:#000000;stroke-width:1.5px"
   d="m 20.056,20.597 -1.437,0.476 -7.317,-7.698 c -1.456,-1.791 1.565,-3.827 2.664,-2.813 l 8.293,6.166 v 1.7 z"
   inkscape:connector-curvature="0" />
        </g>
        <g
   id="g8"
   transform="translate(10,-149.934)">
            <path
   id="path6"
   style="fill:none;stroke:#000000;stroke-width:1.5px"
   d="M 76.91,86.468 C 59.717,62.907 41.558,40.164 22.224,18.418 l -1.96,2.014 C 39.39,41.631 57.312,63.944 74.065,87.339 Z"
   inkscape:connector-curvature="0" />
        </g>
        <g
   id="g12"
   transform="matrix(0.779826,-0.0750987,0.0750987,0.779826,85.2749,-180.402)">
            <ellipse
   id="ellipse10"
   style="fill:none;stroke:#000000;stroke-width:1.90999997px"
   ry="2.7809999"
   rx="5.7750001"
   cy="142.42101"
   cx="60.798" />
        </g>
        <g
   id="g16"
   transform="matrix(0.779826,-0.0750987,0.0750987,0.779826,122.453,-144.952)">
            <ellipse
   id="ellipse14"
   style="fill:none;stroke:#000000;stroke-width:1.90999997px"
   ry="2.7809999"
   rx="5.7750001"
   cy="142.42101"
   cx="60.798" />
        </g>
        <g
   id="g20"
   transform="matrix(0.779826,-0.0750987,0.0750987,0.779826,11.5992,-112.597)">
            <ellipse
   id="ellipse18"
   style="fill:none;stroke:#000000;stroke-width:1.90999997px"
   ry="2.7809999"
   rx="5.7750001"
   cy="142.42101"
   cx="60.798" />
        </g>
        <g
   id="g24"
   transform="matrix(0.779826,-0.0750987,0.0750987,0.779826,-18.8237,-150.121)">
            <ellipse
   id="ellipse22"
   style="fill:none;stroke:#000000;stroke-width:1.90999997px"
   ry="2.7809999"
   rx="5.7750001"
   cy="142.42101"
   cx="60.798" />
        </g>
        <g
   id="g28"
   transform="translate(10,-149.934)">
            <path
   id="path26"
   style="fill:none;stroke:#000000;stroke-width:1.5px"
   d="m 30.991,116.884 14.137,-18.463 68.241,-19.836 34.279,3.462 18.096,16.374 -9.782,18.463 -73.715,22.393 -35.367,-4.599 z"
   inkscape:connector-curvature="0" />
        </g>
        <g
   id="g32"
   transform="translate(10,-149.934)">
            <path
   id="path30"
   style="fill:none;stroke:#000000;stroke-width:1.5px"
   d="M 131.904,168.365 70,189 c -2.706,0.901 -7.305,0.625 -11,0 l -31,-5 c -2.149,-0.491 -4.237,-1.178 -6,-3 L 9,162 c -1.049,-1.674 -0.985,-3.298 0,-4.882 L 21,142 18,111 c -0.226,-4.736 2.522,-7.455 7,-9 L 128,72 c 6.178,-1.353 11.367,-0.691 15,2 l 39,34 c 1.347,1.191 2.052,2.517 2,4 v 6 l 8,7 c 0.888,1.042 1.045,2.546 0,5 l -9,19 c -1.143,1.788 -2.882,3.058 -5,4 l -33.843,11.281"
   inkscape:connector-curvature="0" />
        </g>
        <g
   id="g36"
   transform="translate(10,-149.934)">
            <path
   id="path34"
   style="fill:none;stroke:#000000;stroke-width:1.5px;stroke-linecap:square"
   d="M 21.172,142.226 56,188"
   inkscape:connector-curvature="0" />
        </g>
        <g
   id="g40"
   transform="translate(10,-149.934)">
            <path
   id="path38"
   style="fill:none;stroke:#000000;stroke-width:1.5px"
   d="m 184,118 1.283,26.18"
   inkscape:connector-curvature="0" />
        </g>
        <g
   id="g44"
   transform="translate(10,-149.934)">
            <path
   id="path42"
   style="fill:none;stroke:#000000;stroke-width:1.5px;stroke-linecap:butt"
   d="m 18,113 29,36 c 3.165,4.037 12.605,4.783 19,3 l 113,-35 c 2.785,-0.905 4.36,-2.933 5,-6"
   inkscape:connector-curvature="0" />
        </g>
    </g><g
     id="g54"
     transform="translate(0,-1)">
        <path
   id="path48"
   style="fill:none;stroke:#000000;stroke-width:1.5px"
   d="m 163.924,197.575 2.558,2.073 c 1.581,0.803 3.163,0.746 4.744,0 l 4.179,-2.073 c 1.821,-0.831 3.559,-0.489 5.229,0.848 l 27.028,21.546 c 2.137,1.87 2.17,3.489 0,4.843 l -22.172,11.011 c -2.788,1.383 -5.126,1.394 -7.002,0 l -26.511,-23.859 c -2.388,-2.332 -2.403,-3.924 0,-5.372 L 157.083,204 c 1.407,-0.891 1.163,-2.07 0,-3.409"
   inkscape:connector-curvature="0" />
        <path
   id="path50"
   style="fill:none;stroke:#000000;stroke-width:1.5px"
   d="m 129.411,176.762 29.084,22.886 6.513,-3.281 -24.468,-22.752 z"
   inkscape:connector-curvature="0" />
        <path
   id="path52"
   style="fill:none;stroke:#000000;stroke-width:1.5px"
   d="m 129.411,176.762 v 4.29 l 26.801,19.539 2.283,-0.943"
   inkscape:connector-curvature="0" />
    </g><g
     id="g58"
     transform="matrix(0.535475,-0.150085,0,1,64.2084,15.6984)">
        <path
   id="path56"
   style="fill:none;stroke:#000000;stroke-width:2.1099999px"
   d="m 148.956,182.463 v -6.325 h -34.23 v 6.434 h 7.04"
   inkscape:connector-curvature="0" />
    </g></g>
</svg>