<?xml version="1.0" encoding="UTF-8" standalone="no"?>
<!DOCTYPE svg PUBLIC "-//W3C//DTD SVG 1.1//EN" "http://www.w3.org/Graphics/SVG/1.1/DTD/svg11.dtd">
<svg width="100%" height="100%" viewBox="0 0 300 300" version="1.1" xmlns="http://www.w3.org/2000/svg" xmlns:xlink="http://www.w3.org/1999/xlink" xml:space="preserve" xmlns:serif="http://www.serif.com/" style="fill-rule:evenodd;clip-rule:evenodd;stroke-linecap:round;stroke-linejoin:round;stroke-miterlimit:1.5;">
    <g id="g46" transform="matrix(1,0,0,1,-3.60575,158.96)">
        <g id="g4" transform="matrix(1,0,0,1,10,-149.934)">
            <path id="path2" d="M20.056,20.597L18.619,21.073L11.302,13.375C9.846,11.584 12.867,9.548 13.966,10.562L22.259,16.728L22.259,18.428L20.056,20.597Z" style="fill:none;stroke:black;stroke-width:1.5px;"/>
        </g>
        <g id="g8" transform="matrix(1,0,0,1,10,-149.934)">
            <path id="path6" d="M76.91,86.468C59.717,62.907 41.558,40.164 22.224,18.418L20.264,20.432C39.39,41.631 57.312,63.944 74.065,87.339L76.91,86.468Z" style="fill:none;stroke:black;stroke-width:1.5px;"/>
        </g>
        <g id="g12" transform="matrix(0.779826,-0.0750987,0.0750987,0.779826,85.2749,-180.402)">
            <ellipse id="ellipse10" cx="60.798" cy="142.421" rx="5.775" ry="2.781" style="fill:none;stroke:black;stroke-width:1.91px;"/>
        </g>
        <g id="g16" transform="matrix(0.779826,-0.0750987,0.0750987,0.779826,122.453,-144.952)">
            <ellipse id="ellipse14" cx="60.798" cy="142.421" rx="5.775" ry="2.781" style="fill:none;stroke:black;stroke-width:1.91px;"/>
        </g>
        <g id="g20" transform="matrix(0.779826,-0.0750987,0.0750987,0.779826,11.5992,-112.597)">
            <ellipse id="ellipse18" cx="60.798" cy="142.421" rx="5.775" ry="2.781" style="fill:none;stroke:black;stroke-width:1.91px;"/>
        </g>
        <g id="g24" transform="matrix(0.779826,-0.0750987,0.0750987,0.779826,-18.8237,-150.121)">
            <ellipse id="ellipse22" cx="60.798" cy="142.421" rx="5.775" ry="2.781" style="fill:none;stroke:black;stroke-width:1.91px;"/>
        </g>
        <g id="g28" transform="matrix(1,0,0,1,10,-149.934)">
            <path id="path26" d="M30.991,116.884L45.128,98.421L113.369,78.585L147.648,82.047L165.744,98.421L155.962,116.884L82.247,139.277L46.88,134.678L30.991,116.884Z" style="fill:none;stroke:black;stroke-width:1.5px;"/>
        </g>
        <g id="g32" transform="matrix(1,0,0,1,10,-149.934)">
            <path id="path30" d="M133.853,167.716L70,189C67.294,189.901 62.695,189.625 59,189L28,184C25.851,183.509 23.763,182.822 22,181L9,162C7.951,160.326 8.015,158.702 9,157.118L21,142L18,111C17.774,106.264 20.522,103.545 25,102L128,72C134.178,70.647 139.367,71.309 143,74L182,108C183.347,109.191 184.052,110.517 184,112L184,118L192,125C192.888,126.042 193.045,127.546 192,130L183,149C181.857,150.788 180.118,152.058 178,153L144.026,164.324" style="fill:none;stroke:black;stroke-width:1.5px;"/>
        </g>
        <g id="g36" transform="matrix(1,0,0,1,10,-149.934)">
            <path id="path34" d="M21.172,142.226L56,188" style="fill:none;stroke:black;stroke-width:1.5px;stroke-linecap:square;"/>
        </g>
        <g id="g40" transform="matrix(1,0,0,1,10,-149.934)">
            <path id="path38" d="M184,118L185.283,144.18" style="fill:none;stroke:black;stroke-width:1.5px;"/>
        </g>
        <g id="g44" transform="matrix(1,0,0,1,10,-149.934)">
            <path id="path42" d="M18,113L47,149C50.165,153.037 59.605,153.783 66,152L179,117C181.785,116.095 183.36,114.067 184,111" style="fill:none;stroke:black;stroke-width:1.5px;stroke-linecap:butt;"/>
        </g>
        <g transform="matrix(1,0,0,1,3.60575,-158.96)">
            <path d="M128.763,166.729L193.98,221.738C202.544,228.044 209.105,222.317 201.578,216.166L138.168,163.524L128.763,166.729Z" style="fill:none;stroke:black;stroke-width:1px;"/>
        </g>
        <g transform="matrix(1,0,0,1,3.60575,-158.96)">
            <path d="M140.808,165.563L143.146,164.922L143.146,161.79L125.971,167.688L125.971,170.517L131.022,169.069" style="fill:none;stroke:black;stroke-width:1px;"/>
        </g>
    </g>
</svg>
