<?xml version="1.0" encoding="UTF-8" standalone="no"?>
<!DOCTYPE svg PUBLIC "-//W3C//DTD SVG 1.1//EN" "http://www.w3.org/Graphics/SVG/1.1/DTD/svg11.dtd">
<svg width="100%" height="100%" viewBox="0 0 318 263" version="1.1" xmlns="http://www.w3.org/2000/svg" xmlns:xlink="http://www.w3.org/1999/xlink" xml:space="preserve" xmlns:serif="http://www.serif.com/" style="fill-rule:evenodd;clip-rule:evenodd;">
    <g id="layer1" transform="matrix(1,0,0,1,-152.695,-150.008)">
        <g id="g3693">
            <path id="path3637" d="M330.804,341.265L326.786,281.265C326.064,277.591 323.782,273.61 319.821,271.89L238.929,240.015C235.705,239.151 230.977,237.763 227.679,239.747L164.732,286.086C161.108,289.71 160.982,294.082 160.982,298.408L165,351.979L166.875,359.479" style="fill:none;fill-rule:nonzero;stroke:white;stroke-width:1.5px;"/>
            <path id="path3639" d="M162.054,317.961L156.964,321.443C154.893,323.448 153.972,325.939 154.554,329.077L161.116,357.336C162.125,360.563 164.378,362.712 167.277,364.3L258.75,409.568C261.652,410.427 264.554,410.516 267.455,410.372L314.062,408.363C318.882,407.711 322.387,405.24 325.58,402.336L347.946,379.702C349.531,376.926 348.984,373.883 348.616,370.863" style="fill:none;fill-rule:nonzero;stroke:white;stroke-width:1.5px;"/>
            <g id="g3669" transform="matrix(0,2.73891,-2.45236,0,825.306,-1026.39)">
                <g id="g3034" transform="matrix(0.264583,0,0,0.264583,421.886,137.778)">
                    <path id="path3032" d="M56.852,58.385L52.778,59.734L32.037,37.913C27.91,32.837 36.473,27.065 39.589,29.94L63.096,47.418L63.096,52.237L56.852,58.385Z" style="fill:none;stroke:white;stroke-width:2.18px;stroke-linecap:round;stroke-linejoin:round;stroke-miterlimit:1.5;"/>
                </g>
                <g id="g3038" transform="matrix(0.264583,0,0,0.264583,421.886,137.778)">
                    <path id="path3036" d="M223.187,245.106C165.1,183.976 113.591,116.467 62.997,52.209L57.441,57.917C108.33,119.248 159.687,187.451 215.123,247.575L223.187,245.106Z" style="fill:none;stroke:white;stroke-width:2.18px;stroke-linecap:round;stroke-linejoin:round;stroke-miterlimit:1.5;"/>
                </g>
            </g>
            <path id="path3671" d="M330.737,338.184L336.161,343.742L347.879,367.314C349.776,370.721 347.636,376.38 344.196,379.167L320.156,401.131C318.63,402.356 314.934,402.489 311.786,402.738L266.853,405.216C262.746,405.326 259.084,404.369 255.871,402.336" style="fill:none;fill-rule:nonzero;stroke:white;stroke-width:1.5px;"/>
            <path id="path3673" d="M307.768,383.318L303.214,387.202C299.465,390.709 307.432,396.135 312.054,392.024L317.009,387.336C318.304,385.898 319.598,385.251 320.893,385.327C325.539,385.204 327.771,383.092 328.125,379.434C327.628,377.44 328.658,377.356 329.063,376.488L334.018,371.667C336.214,369.399 330.104,363.773 325.045,367.247L320.089,371.533C318.373,373.566 316.963,373.575 315.402,373.943C309.062,375.161 307.681,378.305 308.304,380.372C308.711,381.549 308.86,382.641 307.768,383.318Z" style="fill:none;fill-rule:nonzero;stroke:white;stroke-width:1.5px;"/>
            <path id="path3675" d="M303.993,391.867L308.633,387.984C310.141,386.522 313.318,384.876 312.327,381.166C311.963,379.386 316.523,376.774 318.956,377.283C321.395,377.764 322.915,374.315 324.732,372.548C328.087,370.553 329.92,371.792 331.267,374.063" style="fill:none;fill-rule:nonzero;stroke:white;stroke-width:1.5px;"/>
            <path id="path3677" d="M272.679,395.64L333.08,339.792" style="fill:none;fill-rule:nonzero;stroke:white;stroke-width:1.5px;"/>
            <path id="path3679" d="M164.732,286.086C162.681,290.685 162.23,295.083 168.19,298.68L246.035,333.72C252.149,337.714 259.013,340.459 259.294,354.175L260.998,401.148" style="fill:none;fill-rule:nonzero;stroke:white;stroke-width:1.5px;"/>
        </g>
    </g>
</svg>
