<?xml version="1.0" encoding="UTF-8" standalone="no"?>
<svg
   xmlns:dc="http://purl.org/dc/elements/1.1/"
   xmlns:cc="http://creativecommons.org/ns#"
   xmlns:rdf="http://www.w3.org/1999/02/22-rdf-syntax-ns#"
   xmlns:svg="http://www.w3.org/2000/svg"
   xmlns="http://www.w3.org/2000/svg"
   id="svg56"
   style="clip-rule:evenodd;fill-rule:evenodd;stroke-linecap:round;stroke-linejoin:round;stroke-miterlimit:1.5"
   xml:space="preserve"
   version="1.1"
   viewBox="0 0 185.9641 180.79999"
   height="180.79999"
   width="185.9641"><metadata
   id="metadata62"><rdf:RDF><cc:Work
       rdf:about=""><dc:format>image/svg+xml</dc:format><dc:type
         rdf:resource="http://purl.org/dc/dcmitype/StillImage" /><dc:title></dc:title></cc:Work></rdf:RDF></metadata><defs
   id="defs60" />
    <g
   style="stroke:#ffffff;stroke-opacity:1"
   id="g46"
   transform="translate(-17.511998,140.39124)">
        <g
   style="stroke:#ffffff;stroke-opacity:1"
   id="g4"
   transform="translate(10,-149.934)">
            <path
   id="path2"
   style="fill:none;stroke:#ffffff;stroke-width:1.5px;stroke-opacity:1"
   d="m 20.056,20.597 -1.437,0.476 -7.317,-7.698 c -1.456,-1.791 1.565,-3.827 2.664,-2.813 l 8.293,6.166 v 1.7 z" />
        </g>
        <g
   style="stroke:#ffffff;stroke-opacity:1"
   id="g8"
   transform="translate(10,-149.934)">
            <path
   id="path6"
   style="fill:none;stroke:#ffffff;stroke-width:1.5px;stroke-opacity:1"
   d="M 76.91,86.468 C 59.717,62.907 41.558,40.164 22.224,18.418 l -1.96,2.014 C 39.39,41.631 57.312,63.944 74.065,87.339 Z" />
        </g>
        <g
   style="stroke:#ffffff;stroke-opacity:1"
   id="g12"
   transform="matrix(0.779826,-0.0750987,0.0750987,0.779826,85.2749,-180.402)">
            <ellipse
   id="ellipse10"
   style="fill:none;stroke:#ffffff;stroke-width:1.90999997px;stroke-opacity:1"
   ry="2.7809999"
   rx="5.7750001"
   cy="142.42101"
   cx="60.798" />
        </g>
        <g
   style="stroke:#ffffff;stroke-opacity:1"
   id="g16"
   transform="matrix(0.779826,-0.0750987,0.0750987,0.779826,122.453,-144.952)">
            <ellipse
   id="ellipse14"
   style="fill:none;stroke:#ffffff;stroke-width:1.90999997px;stroke-opacity:1"
   ry="2.7809999"
   rx="5.7750001"
   cy="142.42101"
   cx="60.798" />
        </g>
        <g
   style="stroke:#ffffff;stroke-opacity:1"
   id="g20"
   transform="matrix(0.779826,-0.0750987,0.0750987,0.779826,11.5992,-112.597)">
            <ellipse
   id="ellipse18"
   style="fill:none;stroke:#ffffff;stroke-width:1.90999997px;stroke-opacity:1"
   ry="2.7809999"
   rx="5.7750001"
   cy="142.42101"
   cx="60.798" />
        </g>
        <g
   style="stroke:#ffffff;stroke-opacity:1"
   id="g24"
   transform="matrix(0.779826,-0.0750987,0.0750987,0.779826,-18.8237,-150.121)">
            <ellipse
   id="ellipse22"
   style="fill:none;stroke:#ffffff;stroke-width:1.90999997px;stroke-opacity:1"
   ry="2.7809999"
   rx="5.7750001"
   cy="142.42101"
   cx="60.798" />
        </g>
        <g
   style="stroke:#ffffff;stroke-opacity:1"
   id="g28"
   transform="translate(10,-149.934)">
            <path
   id="path26"
   style="fill:none;stroke:#ffffff;stroke-width:1.5px;stroke-opacity:1"
   d="m 30.991,116.884 14.137,-18.463 68.241,-19.836 34.279,3.462 18.096,16.374 -9.782,18.463 -73.715,22.393 -35.367,-4.599 z" />
        </g>
        <g
   style="stroke:#ffffff;stroke-opacity:1"
   id="g32"
   transform="translate(10,-149.934)">
            <path
   id="path30"
   style="fill:none;stroke:#ffffff;stroke-width:1.5px;stroke-opacity:1"
   d="m 21,142 -3,-31 c -0.226,-4.736 2.522,-7.455 7,-9 L 128,72 c 6.178,-1.353 11.367,-0.691 15,2 l 39,34 c 1.347,1.191 2.052,2.517 2,4 v 6 l 8,7 c 0.888,1.042 1.045,2.546 0,5 l -9,19 c -1.143,1.788 -2.882,3.058 -5,4 L 70,189 c -2.706,0.901 -7.305,0.625 -11,0 l -31,-5 c -2.149,-0.491 -4.237,-1.178 -6,-3 L 9,162 c -1.049,-1.674 -0.985,-3.298 0,-4.882 z" />
        </g>
        <g
   style="stroke:#ffffff;stroke-opacity:1"
   id="g36"
   transform="translate(10,-149.934)">
            <path
   id="path34"
   style="fill:none;stroke:#ffffff;stroke-width:1.5px;stroke-linecap:square;stroke-opacity:1"
   d="M 21.172,142.226 56,188" />
        </g>
        <g
   style="stroke:#ffffff;stroke-opacity:1"
   id="g40"
   transform="translate(10,-149.934)">
            <path
   id="path38"
   style="fill:none;stroke:#ffffff;stroke-width:1.5px;stroke-opacity:1"
   d="m 184,118 1.283,26.18" />
        </g>
        <g
   style="stroke:#ffffff;stroke-opacity:1"
   id="g44"
   transform="translate(10,-149.934)">
            <path
   id="path42"
   style="fill:none;stroke:#ffffff;stroke-width:1.5px;stroke-linecap:butt;stroke-opacity:1"
   d="m 18,113 29,36 c 3.165,4.037 12.605,4.783 19,3 l 113,-35 c 2.785,-0.905 4.36,-2.933 5,-6" />
        </g>
    </g>
    <g
   style="stroke:#ffffff;stroke-opacity:1"
   id="g50"
   transform="matrix(0.633041,-0.060963,0.129868,1.34855,103.378,-59.563963)">
        <ellipse
   id="ellipse48"
   style="fill:none;stroke:#ffffff;stroke-width:1.90999997px;stroke-opacity:1"
   ry="2.7809999"
   rx="5.7750001"
   cy="142.42101"
   cx="60.798" />
    </g>
    <g
   style="stroke:#ffffff;stroke-opacity:1"
   id="g54"
   transform="matrix(0.633041,-0.060963,0.129868,1.34855,15.378402,-30.563946)">
        <ellipse
   id="ellipse52"
   style="fill:none;stroke:#ffffff;stroke-width:1.90999997px;stroke-opacity:1"
   ry="2.7809999"
   rx="5.7750001"
   cy="142.42101"
   cx="60.798" />
    </g>
</svg>