<?xml version="1.0" encoding="UTF-8" standalone="no"?>
<svg
   xmlns:dc="http://purl.org/dc/elements/1.1/"
   xmlns:cc="http://creativecommons.org/ns#"
   xmlns:rdf="http://www.w3.org/1999/02/22-rdf-syntax-ns#"
   xmlns:svg="http://www.w3.org/2000/svg"
   xmlns="http://www.w3.org/2000/svg"
   id="svg8"
   version="1.1"
   viewBox="0 0 63.607464 86.058098"
   height="86.058098mm"
   width="63.607464mm">
  <defs
     id="defs2" />
  <metadata
     id="metadata5">
    <rdf:RDF>
      <cc:Work
         rdf:about="">
        <dc:format>image/svg+xml</dc:format>
        <dc:type
           rdf:resource="http://purl.org/dc/dcmitype/StillImage" />
        <dc:title></dc:title>
      </cc:Work>
    </rdf:RDF>
  </metadata>
  <g
     transform="translate(0.13229166,0.06873685)"
     id="layer1">
    <path
       id="path826"
       d="m 49.136905,19.281993 -5.386162,53.294643 c -0.103182,1.268718 -0.495376,2.306228 -1.228421,3.071056 l -4.393975,3.401785 c -1.278709,0.537952 -2.485242,0.642853 -3.638021,0.425225 L 14.315848,73.568824 C 13.590436,73.152646 12.850387,72.63401 12.000744,71.348213 L 9.6856398,67.28497 C 8.9489535,65.853849 8.926027,64.303767 8.9296874,62.749255 L 12.898437,14.462797 c 0.09784,-1.155712 0.471047,-1.944276 0.944941,-2.598587 l 4.063244,-4.0632436 c 0.659324,-0.6236866 1.73522,-0.9349438 3.401785,-0.8031993 l 20.552457,2.3623513 c 0.921277,0.2123348 1.838249,0.3945416 2.882066,1.4646576 l 4.063246,6.000372 c 0.390588,0.818948 0.442687,1.637897 0.330729,2.456845 z"
       style="fill:none;stroke:#000000;stroke-width:0.26458332px;stroke-linecap:butt;stroke-linejoin:miter;stroke-opacity:1" />
    <path
       id="path828"
       d="m 20.741443,6.9505202 24.473959,2.3623511 c 1.304907,0.2096958 2.254126,0.7039417 2.929316,1.4174107 l 3.732514,5.386161 c 0.431765,0.640524 0.758553,1.616979 0.566965,4.252232 L 47.29427,71.206473 c -0.159377,1.352842 -0.417366,2.623507 -1.322916,3.354538 l -5.905879,4.488466 c -3.007431,1.195036 -3.951707,0.498846 -5.575149,0.425225"
       style="fill:none;stroke:#000000;stroke-width:0.26458332px;stroke-linecap:butt;stroke-linejoin:miter;stroke-opacity:1" />
    <path
       id="path830"
       d="m 20.410714,12.147693 17.906622,2.362351 c 0.838335,0.132648 1.631798,0.377476 2.220611,1.133929 l 2.078868,3.260044 c 0.534104,0.778273 0.350902,1.700008 0.283483,2.598586 l -4.677455,49.042412 c -0.24445,1.116136 -0.574902,1.716262 -0.944941,2.078868 l -2.267857,1.842632 c -0.5949,0.439471 -1.313866,0.38268 -2.031622,0.330729 L 15.497024,70.072543 c -0.566964,-0.0041 -1.133929,-0.549374 -1.700893,-1.039434 l -1.74814,-2.929316 c -0.313929,-0.531619 -0.534265,-1.188027 -0.47247,-2.220611 l 3.779761,-46.869046 c 0.09073,-0.632701 0.15525,-1.570879 0.755953,-2.22061 l 2.315104,-2.22061 c 0.913533,-0.561866 1.437364,-0.474227 1.984375,-0.425223 z"
       style="fill:none;stroke:#000000;stroke-width:0.26458332px;stroke-linecap:butt;stroke-linejoin:miter;stroke-opacity:1" />
    <path
       id="path832"
       d="m 23.387276,20.60491 11.622769,1.653646 -0.803201,8.220981 -12.000743,-2.031622 0.661458,-7.60677 c 0.02447,-0.178184 0.246763,-0.299223 0.519717,-0.236235 z"
       style="fill:none;stroke:#000000;stroke-width:0.26458332px;stroke-linecap:butt;stroke-linejoin:miter;stroke-opacity:1" />
    <ellipse
       ry="3.7114332"
       rx="3.0432591"
       cy="41.690784"
       cx="21.114292"
       id="path834"
       style="opacity:1;fill:none;fill-opacity:1;stroke:#090000;stroke-width:0.32526371;stroke-linecap:round;stroke-linejoin:round;stroke-miterlimit:1.5;stroke-dasharray:none;stroke-dashoffset:0;stroke-opacity:1" />
    <ellipse
       ry="3.7114332"
       rx="3.0432591"
       cy="43.962574"
       cx="33.007786"
       id="path834-3"
       style="opacity:1;fill:none;fill-opacity:1;stroke:#090000;stroke-width:0.32526371;stroke-linecap:round;stroke-linejoin:round;stroke-miterlimit:1.5;stroke-dasharray:none;stroke-dashoffset:0;stroke-opacity:1" />
  </g>
</svg>
