<?xml version="1.0" encoding="UTF-8" standalone="no"?>
<!DOCTYPE svg PUBLIC "-//W3C//DTD SVG 1.1//EN" "http://www.w3.org/Graphics/SVG/1.1/DTD/svg11.dtd">
<svg width="100%" height="100%" viewBox="0 0 300 300" version="1.1" xmlns="http://www.w3.org/2000/svg" xmlns:xlink="http://www.w3.org/1999/xlink" xml:space="preserve" xmlns:serif="http://www.serif.com/" style="fill-rule:evenodd;clip-rule:evenodd;stroke-linecap:round;stroke-linejoin:round;stroke-miterlimit:1.5;">
    <path d="M126.707,177.866L127.567,91.261C129.592,75.02 130.787,58.365 131.686,41.561L132.276,8.931C132.276,5.301 138.092,5.12 138.092,8.75L138.193,53.939L141.097,89.708L140.327,172.976" style="fill:none;stroke:black;stroke-width:1px;"/>
    <path d="M133.672,274.538C143.548,292.647 176.523,289.987 180.664,269.526C180.631,263.718 179.796,258.028 178.503,252.405" style="fill:none;stroke:black;stroke-width:1px;"/>
    <ellipse cx="70.453" cy="247.046" rx="2.937" ry="1.374" style="fill:none;stroke:black;stroke-width:1px;"/>
    <g transform="matrix(1,0,0,1,36.6383,20.2939)">
        <ellipse cx="70.453" cy="247.046" rx="2.937" ry="1.374" style="fill:none;stroke:black;stroke-width:1px;"/>
    </g>
    <g transform="matrix(1.71605,0,0,1.23443,6.74819,-83.0722)">
        <ellipse cx="70.453" cy="247.046" rx="2.937" ry="1.374" style="fill:none;stroke:black;stroke-width:0.67px;"/>
    </g>
    <g transform="matrix(1.71605,0,0,1.23443,-41.7833,-106.354)">
        <ellipse cx="70.453" cy="247.046" rx="2.937" ry="1.374" style="fill:none;stroke:black;stroke-width:0.67px;"/>
    </g>
    <g transform="matrix(1.30687,0,0,1.21062,77.5645,-131.742)">
        <ellipse cx="70.453" cy="247.046" rx="2.937" ry="1.374" style="fill:none;stroke:black;stroke-width:0.79px;"/>
    </g>
    <g transform="matrix(1.30687,0,0,1.21062,125.666,-113.678)">
        <ellipse cx="70.453" cy="247.046" rx="2.937" ry="1.374" style="fill:none;stroke:black;stroke-width:0.79px;"/>
    </g>
    <path d="M59.674,245.55C59.439,247.298 59.67,248.706 60.925,249.368L102.303,272.567C105.484,273.651 108.778,274.075 112.258,273.4L127.653,268.966" style="fill:none;stroke:black;stroke-width:1px;"/>
    <path d="M228.907,216.611L229.164,222.417C227.221,226.319 224.401,228.787 220.625,231.032L135.689,273.694L127.773,276.271L112.5,280.751C108.907,281.52 105.773,281.239 102.943,280.264L60.27,255.831C59.229,255.325 58.613,254.565 58.463,253.528L58.503,248.88C58.516,247.636 58.787,246.493 59.672,245.594L70.295,238.404" style="fill:none;stroke:black;stroke-width:1px;"/>
    <path d="M223.274,204.355C223.822,204.565 224.294,204.88 224.236,205.919L223.435,224.024L228.489,219.177C229.509,216.928 228.736,215.594 227.274,214.61L223.894,213.649" style="fill:none;stroke:black;stroke-width:1px;"/>
    <path d="M72.027,219.673C71.293,219.646 70.863,220.005 70.685,220.686L70.333,239.294L119.292,266.166C122.119,267.451 125.118,268.147 128.312,268.173" style="fill:none;stroke:black;stroke-width:1px;"/>
    <path d="M71.406,199.062L70.828,217.018C70.805,218.356 71.376,219.234 72.353,219.797L121.496,244.415C125.273,245.992 129.346,246.259 133.841,244.653L222.614,204.57C223.368,204.117 224.028,203.537 224.305,202.44L224.623,186.363" style="fill:none;stroke:black;stroke-width:1px;"/>
    <path d="M73.546,201.517L121.67,225.397C126.351,226.52 131.031,226.392 135.712,224.643L222.227,189.288C225.966,186.804 225.444,184.463 219.896,182.293L175.466,165.389C171.646,164.026 167.534,164.032 163.155,165.287L76.651,195.244C71.586,197.071 69.62,199.101 73.546,201.517Z" style="fill:none;stroke:black;stroke-width:1px;"/>
</svg>
