<?xml version="1.0" encoding="UTF-8" standalone="no"?>
<svg
   xmlns:dc="http://purl.org/dc/elements/1.1/"
   xmlns:cc="http://creativecommons.org/ns#"
   xmlns:rdf="http://www.w3.org/1999/02/22-rdf-syntax-ns#"
   xmlns:svg="http://www.w3.org/2000/svg"
   xmlns="http://www.w3.org/2000/svg"
   id="svg8"
   version="1.1"
   viewBox="0 0 126.94228 139.23668"
   height="139.23668mm"
   width="126.94228mm">
  <defs
     id="defs2" />
  <metadata
     id="metadata5">
    <rdf:RDF>
      <cc:Work
         rdf:about="">
        <dc:format>image/svg+xml</dc:format>
        <dc:type
           rdf:resource="http://purl.org/dc/dcmitype/StillImage" />
        <dc:title></dc:title>
      </cc:Work>
    </rdf:RDF>
  </metadata>
  <g
     transform="translate(-31.810444,-11.828786)"
     id="layer1">
    <path
       id="path826"
       d="M 73.198441,22.647829 49.51168,62.805076 c -1.282513,2.221378 0.03818,4.741064 1.269529,5.980155 0.756648,0.798299 1.577885,1.117516 1.837478,4.57699 l 1.637027,21.815875 c 0,1.963079 1.50807,3.009619 3.741772,3.608138 l 57.195684,13.931426 c 3.21119,0.78216 6.01587,-0.51659 7.14946,-2.87315 l 18.64204,-38.754081 c 0.27133,-0.564049 0.25674,-1.154884 0.30068,-1.837475 l 1.43658,-22.317006 2.77292,-5.278573 c 1.41997,-2.703072 -0.29135,-7.713556 -4.24291,-8.586036 L 81.483797,19.874908 c -3.288067,-0.881035 -6.752115,0.11727 -8.285356,2.772921 z"
       style="fill:none;stroke:#000000;stroke-width:1.05833328;stroke-linecap:butt;stroke-linejoin:miter;stroke-miterlimit:4;stroke-dasharray:none;stroke-opacity:1" />
    <path
       id="path828"
       d="m 50.764182,68.77456 c 0.733698,0.609979 1.712954,1.024591 2.766696,1.274361 l 62.389692,14.788316 c 3.91999,0.92916 7.89674,0.363111 9.78014,-3.449031 l 17.02122,-34.452258"
       style="fill:none;stroke:#000000;stroke-width:1.05833328;stroke-linecap:butt;stroke-linejoin:miter;stroke-miterlimit:4;stroke-dasharray:none;stroke-opacity:1" />
    <path
       id="path830"
       d="m 50.012811,61.969858 c -1.178168,1.741487 -1.45848,4.547833 2.605876,5.512435 L 117.2311,82.816882 c 3.73742,0.887008 6.50293,-1.081889 8.21853,-4.510175 l 19.64431,-39.25521 c 1.0945,-2.187136 -1.45088,-5.15734 -3.11536,-5.771352"
       style="fill:none;stroke:#000000;stroke-width:1.05833328;stroke-linecap:butt;stroke-linejoin:miter;stroke-miterlimit:4;stroke-dasharray:none;stroke-opacity:1" />
    <path
       id="path832"
       d="m 83.8558,98.585783 3.908817,-2.605878 3.457799,-6.79867 1.46163,-2.797977 -0.01669,-1.553503 -2.789626,-4.059156 -1.411518,-1.319643 -5.178346,-1.102487 -1.628674,0.526187 -2.260568,2.348185 -4.252232,7.39416 0.188988,5.338914"
       style="fill:none;stroke:#000000;stroke-width:1.05833328;stroke-linecap:butt;stroke-linejoin:miter;stroke-miterlimit:4;stroke-dasharray:none;stroke-opacity:1" />
    <path
       id="path834"
       d="m 75.146391,88.617001 c 1.719054,0.250484 2.897599,-0.787939 4.048911,-1.891303 l 1.586913,-0.05011 c 0.976237,1.680458 2.676455,2.501188 5.078121,2.488949 l 0.968851,1.202714 c -0.512802,2.102808 0.03092,3.90847 0.935429,5.612659"
       style="fill:none;stroke:#000000;stroke-width:1.05833328;stroke-linecap:butt;stroke-linejoin:miter;stroke-miterlimit:4;stroke-dasharray:none;stroke-opacity:1" />
    <ellipse
       transform="matrix(0.95348882,0.30142838,0,1,0,0)"
       ry="3.3993907"
       rx="5.1880317"
       cy="69.724266"
       cx="84.15123"
       id="path836"
       style="opacity:1;fill:none;fill-opacity:1;stroke:#000000;stroke-width:1.0838387;stroke-linecap:round;stroke-linejoin:round;stroke-miterlimit:4;stroke-dasharray:none;stroke-dashoffset:0;stroke-opacity:1;paint-order:normal" />
    <ellipse
       ry="2.3741629"
       rx="3.2482328"
       cy="62.146854"
       cx="57.653179"
       id="path838"
       style="opacity:1;fill:none;fill-opacity:1;stroke:#000000;stroke-width:1.05833328;stroke-linecap:round;stroke-linejoin:round;stroke-miterlimit:4;stroke-dasharray:none;stroke-dashoffset:0;stroke-opacity:1;paint-order:normal" />
    <ellipse
       ry="1.9371279"
       rx="3.0710564"
       cy="23.416107"
       cx="79.941963"
       id="path840"
       style="opacity:1;fill:none;fill-opacity:1;stroke:#000000;stroke-width:1.05833328;stroke-linecap:round;stroke-linejoin:round;stroke-miterlimit:4;stroke-dasharray:none;stroke-dashoffset:0;stroke-opacity:1;paint-order:normal" />
    <ellipse
       ry="1.8662573"
       rx="3.0238097"
       cy="36.2673"
       cx="138.03218"
       id="path842"
       style="opacity:1;fill:none;fill-opacity:1;stroke:#000000;stroke-width:1.05833328;stroke-linecap:round;stroke-linejoin:round;stroke-miterlimit:4;stroke-dasharray:none;stroke-dashoffset:0;stroke-opacity:1;paint-order:normal" />
    <ellipse
       ry="2.3269157"
       rx="3.0828683"
       cy="76.013855"
       cx="118.01125"
       id="path844"
       style="opacity:1;fill:none;fill-opacity:1;stroke:#000000;stroke-width:1.05833328;stroke-linecap:round;stroke-linejoin:round;stroke-miterlimit:4;stroke-dasharray:none;stroke-dashoffset:0;stroke-opacity:1;paint-order:normal" />
    <path
       id="path846"
       d="m 80.1782,95.018973 c -1.128562,2.747484 1.096888,7.836167 -2.244236,10.654197 -3.316065,2.7969 -7.106707,-3.44697 -11.315662,-3.66164 -5.396985,-0.27526 -6.444064,3.51126 -6.756324,7.03981 l -0.472469,5.33891 c -0.787412,8.89778 21.665272,6.74052 32.06678,16.15094"
       style="fill:none;stroke:#000000;stroke-width:1.05833328;stroke-linecap:butt;stroke-linejoin:miter;stroke-miterlimit:4;stroke-dasharray:none;stroke-opacity:1" />
    <ellipse
       ry="2.7748432"
       rx="2.3954701"
       cy="135.24982"
       cx="97.82357"
       id="path865"
       style="opacity:1;fill:none;fill-opacity:1;stroke:#000000;stroke-width:1.05833328;stroke-linecap:round;stroke-linejoin:round;stroke-miterlimit:4;stroke-dasharray:none;stroke-dashoffset:0;stroke-opacity:1;paint-order:normal" />
    <circle
       r="0.98667681"
       cy="137.36909"
       cx="101.04932"
       id="path871"
       style="opacity:1;fill:none;fill-opacity:1;stroke:#000000;stroke-width:1.05833328;stroke-linecap:round;stroke-linejoin:round;stroke-miterlimit:4;stroke-dasharray:none;stroke-dashoffset:0;stroke-opacity:1;paint-order:normal" />
    <path
       id="path875"
       d="m 94.429663,129.28002 0.02506,-1.36141 1.712195,-0.89368 1.219417,0.99391 0.551243,-0.0752 0.860275,-1.11919 2.104747,0.11693 0.34244,1.08578 1.02114,0.70253 0.94494,-0.59058 1.63002,1.18117 -0.42522,1.41741 0.51972,1.01581 1.27567,0.23624 0.42522,2.29148 -0.8032,0.59059 -0.0945,0.87407 0.89769,1.03943 -0.63783,2.3151 -1.13393,0.0709 -0.63784,0.89769 v 1.44103 l -1.2048,1.2048 -1.6064,-0.25986 -0.92131,0.4961 -0.25986,1.2048 -2.126114,0.0709 -0.401597,-0.94494 -1.488282,-0.21262 -0.448847,0.82683 -1.984375,-0.75595 0.118118,-1.34655 -0.59059,-0.51971 -1.417409,-0.0472 -1.204799,-2.05524 0.566965,-0.87408 -0.661458,-1.5119 -0.637837,-0.25986 v -2.05524 l 0.779576,-0.21262 0.519719,-1.9135 -0.259861,-0.99219 1.110306,-1.5119 1.41741,0.23623 z"
       style="fill:none;stroke:#000000;stroke-width:1.05833328;stroke-linecap:butt;stroke-linejoin:miter;stroke-miterlimit:4;stroke-dasharray:none;stroke-opacity:1" />
    <path
       id="path877"
       d="m 100.9026,126.94138 2.01323,1.28044"
       style="fill:none;stroke:#000000;stroke-width:1.05833328;stroke-linecap:butt;stroke-linejoin:miter;stroke-miterlimit:4;stroke-dasharray:none;stroke-opacity:1" />
    <path
       id="path879"
       d="m 103.21112,128.13911 1.66546,0.60242 1.61821,1.65365 -0.0118,1.3111 0.31892,0.53153 0.96856,0.33073 0.57878,2.01981 -0.38979,0.53153 0.0472,1.93713 0.48428,0.54334 -0.77958,1.88988 -0.79139,0.63784 -0.57877,0.77957 -0.10631,1.0985 -1.25204,1.15755 -1.52372,-0.0354 -1.51191,1.51191 -2.52771,0.14174 -1.311114,-0.55513"
       style="fill:none;stroke:#000000;stroke-width:1.05833328;stroke-linecap:butt;stroke-linejoin:miter;stroke-miterlimit:4;stroke-dasharray:none;stroke-opacity:1" />
    <path
       id="path881"
       d="m 95.769709,143.89604 2.17337,0.0709"
       style="fill:none;stroke:#000000;stroke-width:1.05833328;stroke-linecap:butt;stroke-linejoin:miter;stroke-miterlimit:4;stroke-dasharray:none;stroke-opacity:1" />
    <path
       id="path883"
       d="m 104.84114,129.32028 1.65365,1.0749"
       style="fill:none;stroke:#000000;stroke-width:1.05833328;stroke-linecap:butt;stroke-linejoin:miter;stroke-miterlimit:4;stroke-dasharray:none;stroke-opacity:1" />
    <path
       id="path885"
       d="m 104.41592,130.73769 2.06707,0.96859"
       style="fill:none;stroke:#000000;stroke-width:1.05833328;stroke-linecap:butt;stroke-linejoin:miter;stroke-miterlimit:4;stroke-dasharray:none;stroke-opacity:1" />
    <path
       id="path887"
       d="m 106.80191,132.23781 -1.86627,-0.48431"
       style="fill:none;stroke:#000000;stroke-width:1.05833328;stroke-linecap:butt;stroke-linejoin:miter;stroke-miterlimit:4;stroke-dasharray:none;stroke-opacity:1" />
    <path
       id="path889"
       d="m 106.21131,131.98974 1.55916,0.5788"
       style="fill:none;stroke:#000000;stroke-width:1.05833328;stroke-linecap:butt;stroke-linejoin:miter;stroke-miterlimit:4;stroke-dasharray:none;stroke-opacity:1" />
    <path
       id="path891"
       d="m 106.63653,134.28122 1.71272,0.30713"
       style="fill:none;stroke:#000000;stroke-width:1.05833328;stroke-linecap:butt;stroke-linejoin:miter;stroke-miterlimit:4;stroke-dasharray:none;stroke-opacity:1" />
    <path
       id="path893"
       d="m 105.83333,134.87181 2.12613,0.24807"
       style="fill:none;stroke:#000000;stroke-width:1.05833328;stroke-linecap:butt;stroke-linejoin:miter;stroke-miterlimit:4;stroke-dasharray:none;stroke-opacity:1" />
    <path
       id="path895"
       d="m 105.73883,135.74588 2.26783,1.31113"
       style="fill:none;stroke:#000000;stroke-width:1.05833328;stroke-linecap:butt;stroke-linejoin:miter;stroke-miterlimit:4;stroke-dasharray:none;stroke-opacity:1" />
    <path
       id="path897"
       d="m 106.63652,136.78531 1.85442,0.81504"
       style="fill:none;stroke:#000000;stroke-width:1.05833328;stroke-linecap:butt;stroke-linejoin:miter;stroke-miterlimit:4;stroke-dasharray:none;stroke-opacity:1" />
    <path
       id="path899"
       d="m 105.99869,139.10041 1.71267,0.38982"
       style="fill:none;stroke:#000000;stroke-width:1.05833328;stroke-linecap:butt;stroke-linejoin:miter;stroke-miterlimit:4;stroke-dasharray:none;stroke-opacity:1" />
    <path
       id="path901"
       d="m 104.86476,139.17131 2.05521,0.95676"
       style="fill:none;stroke:#000000;stroke-width:1.05833328;stroke-linecap:butt;stroke-linejoin:miter;stroke-miterlimit:4;stroke-dasharray:none;stroke-opacity:1" />
    <path
       id="path903"
       d="m 104.22692,140.069 2.11428,0.83864"
       style="fill:none;stroke:#000000;stroke-width:1.05833328;stroke-linecap:butt;stroke-linejoin:miter;stroke-miterlimit:4;stroke-dasharray:none;stroke-opacity:1" />
    <path
       id="path905"
       d="m 104.22692,141.51003 2.00797,0.49611"
       style="fill:none;stroke:#000000;stroke-width:1.05833328;stroke-linecap:butt;stroke-linejoin:miter;stroke-miterlimit:4;stroke-dasharray:none;stroke-opacity:1" />
    <path
       id="path907"
       d="m 103.02212,142.71483 1.96073,0.44886"
       style="fill:none;stroke:#000000;stroke-width:1.05833328;stroke-linecap:butt;stroke-linejoin:miter;stroke-miterlimit:4;stroke-dasharray:none;stroke-opacity:1" />
    <path
       id="path909"
       d="m 101.41572,142.45497 2.04341,0.67332"
       style="fill:none;stroke:#000000;stroke-width:1.05833328;stroke-linecap:butt;stroke-linejoin:miter;stroke-miterlimit:4;stroke-dasharray:none;stroke-opacity:1" />
    <path
       id="path911"
       d="m 100.23455,144.15587 1.71267,0.48433"
       style="fill:none;stroke:#000000;stroke-width:1.05833328;stroke-linecap:butt;stroke-linejoin:miter;stroke-miterlimit:4;stroke-dasharray:none;stroke-opacity:1" />
    <path
       id="path913"
       d="m 100.49441,142.95107 2.03163,0.98038"
       style="fill:none;stroke:#000000;stroke-width:1.05833328;stroke-linecap:butt;stroke-linejoin:miter;stroke-miterlimit:4;stroke-dasharray:none;stroke-opacity:1" />
    <circle
       r="0.98667681"
       cy="131.64368"
       cx="99.9254"
       id="path871-6"
       style="opacity:1;fill:none;fill-opacity:1;stroke:#000000;stroke-width:1.05833328;stroke-linecap:round;stroke-linejoin:round;stroke-miterlimit:4;stroke-dasharray:none;stroke-dashoffset:0;stroke-opacity:1;paint-order:normal" />
    <circle
       r="0.98667681"
       cy="138.85995"
       cx="95.198067"
       id="path871-7"
       style="opacity:1;fill:none;fill-opacity:1;stroke:#000000;stroke-width:1.05833328;stroke-linecap:round;stroke-linejoin:round;stroke-miterlimit:4;stroke-dasharray:none;stroke-dashoffset:0;stroke-opacity:1;paint-order:normal" />
    <circle
       r="6.1396017"
       cy="135.327"
       cx="97.92923"
       id="path936"
       style="opacity:1;fill:none;fill-opacity:1;stroke:#000000;stroke-width:1.05833328;stroke-linecap:round;stroke-linejoin:round;stroke-miterlimit:4;stroke-dasharray:none;stroke-dashoffset:0;stroke-opacity:1;paint-order:normal" />
  </g>
</svg>
