<?xml version="1.0" encoding="UTF-8" standalone="no"?>
<svg
   xmlns:dc="http://purl.org/dc/elements/1.1/"
   xmlns:cc="http://creativecommons.org/ns#"
   xmlns:rdf="http://www.w3.org/1999/02/22-rdf-syntax-ns#"
   xmlns:svg="http://www.w3.org/2000/svg"
   xmlns="http://www.w3.org/2000/svg"
   xmlns:sodipodi="http://sodipodi.sourceforge.net/DTD/sodipodi-0.dtd"
   xmlns:inkscape="http://www.inkscape.org/namespaces/inkscape"
   width="185.9641"
   height="180.79999"
   viewBox="0 0 185.9641 180.79999"
   version="1.1"
   xml:space="preserve"
   style="clip-rule:evenodd;fill-rule:evenodd;stroke-linecap:round;stroke-linejoin:round;stroke-miterlimit:1.5"
   id="svg58"
   sodipodi:docname="motion.svg"
   inkscape:version="0.92.5 (0.92.5+69)"><metadata
   id="metadata64"><rdf:RDF><cc:Work
       rdf:about=""><dc:format>image/svg+xml</dc:format><dc:type
         rdf:resource="http://purl.org/dc/dcmitype/StillImage" /></cc:Work></rdf:RDF></metadata><defs
   id="defs62" /><sodipodi:namedview
   pagecolor="#ffffff"
   bordercolor="#666666"
   borderopacity="1"
   objecttolerance="10"
   gridtolerance="10"
   guidetolerance="10"
   inkscape:pageopacity="0"
   inkscape:pageshadow="2"
   inkscape:window-width="680"
   inkscape:window-height="480"
   id="namedview60"
   showgrid="false"
   inkscape:zoom="0.78666667"
   inkscape:cx="136.66597"
   inkscape:cy="60.40875"
   inkscape:window-x="38"
   inkscape:window-y="27"
   inkscape:window-maximized="0"
   inkscape:current-layer="svg58" />
    <g
   transform="translate(-17.511998,140.39124)"
   id="g50">
        <g
   transform="translate(10,-149.934)"
   id="g4">
            <path
   d="m 20.056,20.597 -1.437,0.476 -7.317,-7.698 c -1.456,-1.791 1.565,-3.827 2.664,-2.813 l 8.293,6.166 v 1.7 z"
   style="fill:none;stroke:#000000;stroke-width:1.5px"
   id="path2"
   inkscape:connector-curvature="0" />
        </g>
        <g
   transform="translate(10,-149.934)"
   id="g8">
            <path
   d="M 76.91,86.468 C 59.717,62.907 41.558,40.164 22.224,18.418 l -1.96,2.014 C 39.39,41.631 57.312,63.944 74.065,87.339 Z"
   style="fill:none;stroke:#000000;stroke-width:1.5px"
   id="path6"
   inkscape:connector-curvature="0" />
        </g>
        <g
   transform="matrix(0.779826,-0.0750987,0.0750987,0.779826,85.2749,-180.402)"
   id="g12">
            <ellipse
   cx="60.798"
   cy="142.42101"
   rx="5.7750001"
   ry="2.7809999"
   style="fill:none;stroke:#000000;stroke-width:1.90999997px"
   id="ellipse10" />
        </g>
        <g
   transform="matrix(0.779826,-0.0750987,0.0750987,0.779826,122.453,-144.952)"
   id="g16">
            <ellipse
   cx="60.798"
   cy="142.42101"
   rx="5.7750001"
   ry="2.7809999"
   style="fill:none;stroke:#000000;stroke-width:1.90999997px"
   id="ellipse14" />
        </g>
        <g
   transform="matrix(0.779826,-0.0750987,0.0750987,0.779826,11.5992,-112.597)"
   id="g20">
            <ellipse
   cx="60.798"
   cy="142.42101"
   rx="5.7750001"
   ry="2.7809999"
   style="fill:none;stroke:#000000;stroke-width:1.90999997px"
   id="ellipse18" />
        </g>
        <g
   transform="matrix(0.779826,-0.0750987,0.0750987,0.779826,-18.8237,-150.121)"
   id="g24">
            <ellipse
   cx="60.798"
   cy="142.42101"
   rx="5.7750001"
   ry="2.7809999"
   style="fill:none;stroke:#000000;stroke-width:1.90999997px"
   id="ellipse22" />
        </g>
        <g
   transform="translate(10,-149.934)"
   id="g28">
            <path
   d="m 30.991,116.884 14.137,-18.463 68.241,-19.836 34.279,3.462 18.096,16.374 -9.782,18.463 -73.715,22.393 -35.367,-4.599 z"
   style="fill:none;stroke:#000000;stroke-width:1.5px"
   id="path26"
   inkscape:connector-curvature="0" />
        </g>
        <g
   transform="translate(10,-149.934)"
   id="g32">
            <path
   d="m 149.514,162.495 -21.473,7.158"
   style="fill:none;stroke:#000000;stroke-width:1.5px"
   id="path30"
   inkscape:connector-curvature="0" />
        </g>
        <g
   transform="translate(10,-149.934)"
   id="g36">
            <path
   d="M 128.041,169.653 70,189 c -2.706,0.901 -7.305,0.625 -11,0 l -31,-5 c -2.149,-0.491 -4.237,-1.178 -6,-3 L 9,162 c -1.049,-1.674 -0.985,-3.298 0,-4.882 L 21,142 18,111 c -0.226,-4.736 2.522,-7.455 7,-9 L 128,72 c 6.178,-1.353 11.367,-0.691 15,2 l 39,34 c 1.347,1.191 2.052,2.517 2,4 v 6 l 8,7 c 0.888,1.042 1.045,2.546 0,5 l -9,19 c -1.143,1.788 -2.882,3.058 -5,4 l -28.486,9.495"
   style="fill:none;stroke:#000000;stroke-width:1.5px"
   id="path34"
   inkscape:connector-curvature="0" />
        </g>
        <g
   transform="translate(10,-149.934)"
   id="g40">
            <path
   d="M 21.172,142.226 56,188"
   style="fill:none;stroke:#000000;stroke-width:1.5px;stroke-linecap:square"
   id="path38"
   inkscape:connector-curvature="0" />
        </g>
        <g
   transform="translate(10,-149.934)"
   id="g44">
            <path
   d="m 184,118 1.283,26.18"
   style="fill:none;stroke:#000000;stroke-width:1.5px"
   id="path42"
   inkscape:connector-curvature="0" />
        </g>
        <g
   transform="translate(10,-149.934)"
   id="g48">
            <path
   d="m 18,113 29,36 c 3.165,4.037 12.605,4.783 19,3 l 113,-35 c 2.785,-0.905 4.36,-2.933 5,-6"
   style="fill:none;stroke:#000000;stroke-width:1.5px;stroke-linecap:butt"
   id="path46"
   inkscape:connector-curvature="0" />
        </g>
    </g>
    <g
   transform="matrix(1,0,0,1.06667,-16.511998,-39.875463)"
   id="g54">
        <path
   d="M 92,146.5 C 92,150.639 86.399,154 79.5,154 72.601,154 67,150.639 67,146.5"
   style="fill:none;stroke:#000000;stroke-width:1.61000001px"
   id="path52"
   inkscape:connector-curvature="0" />
    </g>
    <path
   d="m 50.488002,116.39124 c 0.614,-14.464 25.08,-13.704 25,0"
   style="fill:none;stroke:#000000;stroke-width:1.66999996px"
   id="path56"
   inkscape:connector-curvature="0" />
</svg>