<?xml version="1.0" encoding="UTF-8" standalone="no"?>
<svg
   xmlns:dc="http://purl.org/dc/elements/1.1/"
   xmlns:cc="http://creativecommons.org/ns#"
   xmlns:rdf="http://www.w3.org/1999/02/22-rdf-syntax-ns#"
   xmlns:svg="http://www.w3.org/2000/svg"
   xmlns="http://www.w3.org/2000/svg"
   xmlns:sodipodi="http://sodipodi.sourceforge.net/DTD/sodipodi-0.dtd"
   xmlns:inkscape="http://www.inkscape.org/namespaces/inkscape"
   width="259.323"
   height="251.22624"
   viewBox="0 0 259.323 251.22624"
   version="1.1"
   xml:space="preserve"
   style="clip-rule:evenodd;fill-rule:evenodd;stroke-linecap:round;stroke-linejoin:round;stroke-miterlimit:1.5"
   id="svg86"
   sodipodi:docname="openclosed.svg"
   inkscape:version="0.92.5 (0.92.5+69)"><metadata
   id="metadata92"><rdf:RDF><cc:Work
       rdf:about=""><dc:format>image/svg+xml</dc:format><dc:type
         rdf:resource="http://purl.org/dc/dcmitype/StillImage" /></cc:Work></rdf:RDF></metadata><defs
   id="defs90" /><sodipodi:namedview
   pagecolor="#ffffff"
   bordercolor="#666666"
   borderopacity="1"
   objecttolerance="10"
   gridtolerance="10"
   guidetolerance="10"
   inkscape:pageopacity="0"
   inkscape:pageshadow="2"
   inkscape:window-width="1328"
   inkscape:window-height="704"
   id="namedview88"
   showgrid="false"
   inkscape:zoom="0.78666667"
   inkscape:cx="-23.503524"
   inkscape:cy="130.835"
   inkscape:window-x="38"
   inkscape:window-y="27"
   inkscape:window-maximized="1"
   inkscape:current-layer="svg86" />
    
    
    
    
    
    
    
    
    
    
    
    
    <g
   id="g136"
   transform="translate(-16.511998,-29.608763)"><g
     id="g46"
     transform="translate(-1,170)">
        <g
   id="g4"
   transform="translate(10,-149.934)">
            <path
   id="path2"
   style="fill:none;stroke:#000000;stroke-width:1.5px"
   d="m 20.056,20.597 -1.437,0.476 -7.317,-7.698 c -1.456,-1.791 1.565,-3.827 2.664,-2.813 l 8.293,6.166 v 1.7 z"
   inkscape:connector-curvature="0" />
        </g>
        <g
   id="g8"
   transform="translate(10,-149.934)">
            <path
   id="path6"
   style="fill:none;stroke:#000000;stroke-width:1.5px"
   d="M 76.91,86.468 C 59.717,62.907 41.558,40.164 22.224,18.418 l -1.96,2.014 C 39.39,41.631 57.312,63.944 74.065,87.339 Z"
   inkscape:connector-curvature="0" />
        </g>
        <g
   id="g12"
   transform="matrix(0.779826,-0.0750987,0.0750987,0.779826,85.2749,-180.402)">
            <ellipse
   id="ellipse10"
   style="fill:none;stroke:#000000;stroke-width:1.90999997px"
   ry="2.7809999"
   rx="5.7750001"
   cy="142.42101"
   cx="60.798" />
        </g>
        <g
   id="g16"
   transform="matrix(0.779826,-0.0750987,0.0750987,0.779826,122.453,-144.952)">
            <ellipse
   id="ellipse14"
   style="fill:none;stroke:#000000;stroke-width:1.90999997px"
   ry="2.7809999"
   rx="5.7750001"
   cy="142.42101"
   cx="60.798" />
        </g>
        <g
   id="g20"
   transform="matrix(0.779826,-0.0750987,0.0750987,0.779826,11.5992,-112.597)">
            <ellipse
   id="ellipse18"
   style="fill:none;stroke:#000000;stroke-width:1.90999997px"
   ry="2.7809999"
   rx="5.7750001"
   cy="142.42101"
   cx="60.798" />
        </g>
        <g
   id="g24"
   transform="matrix(0.779826,-0.0750987,0.0750987,0.779826,-18.8237,-150.121)">
            <ellipse
   id="ellipse22"
   style="fill:none;stroke:#000000;stroke-width:1.90999997px"
   ry="2.7809999"
   rx="5.7750001"
   cy="142.42101"
   cx="60.798" />
        </g>
        <g
   id="g28"
   transform="translate(10,-149.934)">
            <path
   id="path26"
   style="fill:none;stroke:#000000;stroke-width:1.5px"
   d="m 30.991,116.884 14.137,-18.463 68.241,-19.836 34.279,3.462 18.096,16.374 -9.782,18.463 -73.715,22.393 -35.367,-4.599 z"
   inkscape:connector-curvature="0" />
        </g>
        <g
   id="g32"
   transform="translate(10,-149.934)">
            <path
   id="path30"
   style="fill:none;stroke:#000000;stroke-width:1.5px"
   d="m 21,142 -3,-31 c -0.226,-4.736 2.522,-7.455 7,-9 L 128,72 c 6.178,-1.353 11.367,-0.691 15,2 l 39,34 c 1.347,1.191 2.052,2.517 2,4 v 6 l 8,7 c 0.888,1.042 1.045,2.546 0,5 l -9,19 c -1.143,1.788 -2.882,3.058 -5,4 L 70,189 c -2.706,0.901 -7.305,0.625 -11,0 l -31,-5 c -2.149,-0.491 -4.237,-1.178 -6,-3 L 9,162 c -1.049,-1.674 -0.985,-3.298 0,-4.882 z"
   inkscape:connector-curvature="0" />
        </g>
        <g
   id="g36"
   transform="translate(10,-149.934)">
            <path
   id="path34"
   style="fill:none;stroke:#000000;stroke-width:1.5px;stroke-linecap:square"
   d="M 21.172,142.226 56,188"
   inkscape:connector-curvature="0" />
        </g>
        <g
   id="g40"
   transform="translate(10,-149.934)">
            <path
   id="path38"
   style="fill:none;stroke:#000000;stroke-width:1.5px"
   d="m 184,118 1.283,26.18"
   inkscape:connector-curvature="0" />
        </g>
        <g
   id="g44"
   transform="translate(10,-149.934)">
            <path
   id="path42"
   style="fill:none;stroke:#000000;stroke-width:1.5px;stroke-linecap:butt"
   d="m 18,113 29,36 c 3.165,4.037 12.605,4.783 19,3 l 113,-35 c 2.785,-0.905 4.36,-2.933 5,-6"
   inkscape:connector-curvature="0" />
        </g>
    </g><g
     id="g50"
     transform="matrix(0.633041,-0.060963,0.129868,1.34855,73.8904,-10.9552)">
        <ellipse
   id="ellipse48"
   style="fill:none;stroke:#000000;stroke-width:1.90999997px"
   ry="2.7809999"
   rx="5.7750001"
   cy="142.42101"
   cx="60.798" />
    </g><path
     id="path52"
     style="fill:none;stroke:#000000;stroke-width:3.32999992px"
     d="m 130.874,177.401 c 23.042,6.2 44.374,10.84 60.126,27.599 32.45,34.524 -23,55.667 -39,63 -16,7.333 -52.804,-2.299 -57,-19 -9.667,-38.472 95.029,-70.803 112,-53.832 14,14 0.667,63.721 13,62.332"
     inkscape:connector-curvature="0" /><rect
     id="rect54"
     style="fill:none;stroke:#000000;stroke-width:1.66999996px"
     height="45"
     width="22"
     y="235"
     x="221" /><rect
     id="rect56"
     style="fill:none;stroke:#000000;stroke-width:1.66999996px"
     height="45"
     width="14"
     y="235"
     x="229" /><rect
     id="rect58"
     style="fill:none;stroke:#000000;stroke-width:1.66999996px"
     height="37"
     width="2"
     y="239"
     x="243" /><circle
     id="circle60"
     style="fill:none;stroke:#000000;stroke-width:1.66999996px"
     r="2"
     cy="241"
     cx="225" /><g
     id="g64"
     transform="translate(0,33)">
        <circle
   id="circle62"
   style="fill:none;stroke:#000000;stroke-width:1.66999996px"
   r="2"
   cy="241"
   cx="225" />
    </g><g
     id="g68"
     transform="matrix(-1,0,0,1,496,0)">
        <rect
   id="rect66"
   style="fill:none;stroke:#000000;stroke-width:1.66999996px"
   height="45"
   width="22"
   y="235"
   x="221" />
    </g><g
     id="g72"
     transform="matrix(-1,0,0,1,496,0)">
        <rect
   id="rect70"
   style="fill:none;stroke:#000000;stroke-width:1.66999996px"
   height="45"
   width="14"
   y="235"
   x="229" />
    </g><g
     id="g76"
     transform="matrix(-1,0,0,1,496,0)">
        <rect
   id="rect74"
   style="fill:none;stroke:#000000;stroke-width:1.66999996px"
   height="37"
   width="2"
   y="239"
   x="243" />
    </g><g
     id="g80"
     transform="matrix(-1,0,0,1,496,0)">
        <circle
   id="circle78"
   style="fill:none;stroke:#000000;stroke-width:1.66999996px"
   r="2"
   cy="241"
   cx="225" />
    </g><g
     id="g84"
     transform="matrix(-1,0,0,1,496,33)">
        <circle
   id="circle82"
   style="fill:none;stroke:#000000;stroke-width:1.66999996px"
   r="2"
   cy="241"
   cx="225" />
    </g></g>
</svg>