<?xml version="1.0" encoding="UTF-8" standalone="no"?>
<!DOCTYPE svg PUBLIC "-//W3C//DTD SVG 1.1//EN" "http://www.w3.org/Graphics/SVG/1.1/DTD/svg11.dtd">
<svg width="100%" height="100%" viewBox="0 0 300 300" version="1.1" xmlns="http://www.w3.org/2000/svg" xmlns:xlink="http://www.w3.org/1999/xlink" xml:space="preserve" xmlns:serif="http://www.serif.com/" style="fill-rule:evenodd;clip-rule:evenodd;stroke-linecap:round;stroke-linejoin:round;stroke-miterlimit:1.5;">
    <g transform="matrix(1,0,0,1,-1,170)">
        <g transform="matrix(1,0,0,1,10,-149.934)">
            <path d="M20.056,20.597L18.619,21.073L11.302,13.375C9.846,11.584 12.867,9.548 13.966,10.562L22.259,16.728L22.259,18.428L20.056,20.597Z" style="fill:none;stroke:black;stroke-width:1.5px;"/>
        </g>
        <g transform="matrix(1,0,0,1,10,-149.934)">
            <path d="M76.91,86.468C59.717,62.907 41.558,40.164 22.224,18.418L20.264,20.432C39.39,41.631 57.312,63.944 74.065,87.339L76.91,86.468Z" style="fill:none;stroke:black;stroke-width:1.5px;"/>
        </g>
        <g transform="matrix(0.779826,-0.0750987,0.0750987,0.779826,85.2749,-180.402)">
            <ellipse cx="60.798" cy="142.421" rx="5.775" ry="2.781" style="fill:none;stroke:black;stroke-width:1.91px;"/>
        </g>
        <g transform="matrix(0.779826,-0.0750987,0.0750987,0.779826,122.453,-144.952)">
            <ellipse cx="60.798" cy="142.421" rx="5.775" ry="2.781" style="fill:none;stroke:black;stroke-width:1.91px;"/>
        </g>
        <g transform="matrix(0.779826,-0.0750987,0.0750987,0.779826,11.5992,-112.597)">
            <ellipse cx="60.798" cy="142.421" rx="5.775" ry="2.781" style="fill:none;stroke:black;stroke-width:1.91px;"/>
        </g>
        <g transform="matrix(0.779826,-0.0750987,0.0750987,0.779826,-18.8237,-150.121)">
            <ellipse cx="60.798" cy="142.421" rx="5.775" ry="2.781" style="fill:none;stroke:black;stroke-width:1.91px;"/>
        </g>
        <g transform="matrix(1,0,0,1,10,-149.934)">
            <path d="M30.991,116.884L45.128,98.421L113.369,78.585L147.648,82.047L165.744,98.421L155.962,116.884L82.247,139.277L46.88,134.678L30.991,116.884Z" style="fill:none;stroke:black;stroke-width:1.5px;"/>
        </g>
        <g transform="matrix(1,0,0,1,10,-149.934)">
            <path d="M178,153L70,189C67.294,189.901 62.695,189.625 59,189L28,184C25.851,183.509 23.763,182.822 22,181L9,162C7.951,160.326 8.015,158.702 9,157.118L21,142L18,111C17.774,106.264 20.522,103.545 25,102L128,72C134.178,70.647 139.367,71.309 143,74L182,108C183.347,109.191 184.052,110.517 184,112L184,118L192,125C192.888,126.042 193.045,127.546 192,130L183,149C181.857,150.788 180.118,152.058 178,153Z" style="fill:none;stroke:black;stroke-width:1.5px;"/>
        </g>
        <g transform="matrix(1,0,0,1,10,-149.934)">
            <path d="M21.172,142.226L56,188" style="fill:none;stroke:black;stroke-width:1.5px;stroke-linecap:square;"/>
        </g>
        <g transform="matrix(1,0,0,1,10,-149.934)">
            <path d="M184,118L185.283,144.18" style="fill:none;stroke:black;stroke-width:1.5px;"/>
        </g>
        <g transform="matrix(1,0,0,1,10,-149.934)">
            <path d="M18,113L47,149C50.165,153.037 59.605,153.783 66,152L179,117C181.785,116.095 183.36,114.067 184,111" style="fill:none;stroke:black;stroke-width:1.5px;stroke-linecap:butt;"/>
        </g>
    </g>
    <path d="M208.093,226.905C201.23,217.328 193.852,209.071 183.928,202.897C139.532,183.895 91.645,205.813 97.962,229.226C106.913,249.748 122.53,251.677 143.665,253.032C171.697,253.032 188.476,245.508 194.282,228.316C202.651,207.389 139.325,191.688 132.058,180.236" style="fill:none;stroke:black;stroke-width:1.5px;"/>
    <g>
        <path d="M237.24,276.622L243.109,284.11C247.44,286.076 252.703,282.841 252.46,277.806L246.538,269.693C241.691,269.197 238.619,271.55 237.24,276.622Z" style="fill:none;stroke:black;stroke-width:1.5px;"/>
        <path d="M243.109,284.11C242.542,279.318 248.789,274.813 252.46,277.806" style="fill:none;stroke:black;stroke-width:1.5px;"/>
        <path d="M246.102,265.577L241.974,260.087" style="fill:none;stroke:black;stroke-width:1.5px;"/>
        <path d="M233.664,275.423L229.155,270.302" style="fill:none;stroke:black;stroke-width:1.5px;"/>
        <path d="M237.832,269.215L233.182,263.596" style="fill:none;stroke:black;stroke-width:1.5px;"/>
        <path d="M234.311,279.323L233.769,275.485L238.033,269.219L245.932,265.447L249.925,267.047" style="fill:none;stroke:black;stroke-width:1.5px;"/>
        <path d="M244.496,259.661L250.324,267.328L249.286,272.68" style="fill:none;stroke:black;stroke-width:1.5px;"/>
        <path d="M228.358,272.094L234.242,279.562L239.022,279.807" style="fill:none;stroke:black;stroke-width:1.5px;"/>
        <path d="M207.894,237.514C209.561,233.459 212.597,230.853 217.788,230.523" style="fill:none;stroke:black;stroke-width:1.5px;"/>
        <path d="M208.965,245.123L228.132,271.432C230.508,263.484 236.083,259.876 244.126,259.617L224.17,233.251C219.174,231.256 207.187,238.124 208.965,245.123Z" style="fill:none;stroke:black;stroke-width:1.5px;"/>
        <path d="M209.785,240.212L204.82,233.951C202.937,230.696 210.765,222.497 214.665,226.074L219.528,232.616" style="fill:none;stroke:black;stroke-width:1.5px;"/>
    </g>
    <g transform="matrix(1,-0.166751,0,1,1.04635,22.4465)">
        <ellipse cx="131.227" cy="179.6" rx="4.083" ry="3.606" style="fill:none;stroke:black;stroke-width:1.63px;"/>
    </g>
</svg>
