<?xml version="1.0" encoding="UTF-8" standalone="no"?>
<svg
   xmlns:dc="http://purl.org/dc/elements/1.1/"
   xmlns:cc="http://creativecommons.org/ns#"
   xmlns:rdf="http://www.w3.org/1999/02/22-rdf-syntax-ns#"
   xmlns:svg="http://www.w3.org/2000/svg"
   xmlns="http://www.w3.org/2000/svg"
   id="svg8"
   version="1.1"
   viewBox="0 0 126.94228 139.23668"
   height="139.23668mm"
   width="126.94228mm">
  <defs
     id="defs2" />
  <metadata
     id="metadata5">
    <rdf:RDF>
      <cc:Work
         rdf:about="">
        <dc:format>image/svg+xml</dc:format>
        <dc:type
           rdf:resource="http://purl.org/dc/dcmitype/StillImage" />
        <dc:title></dc:title>
      </cc:Work>
    </rdf:RDF>
  </metadata>
  <g
     transform="translate(-31.810444,-11.828786)"
     id="layer1">
    <path
       id="path826"
       d="M 73.198441,22.647829 49.51168,62.805076 c -1.282513,2.221378 0.03818,4.741064 1.269529,5.980155 0.756648,0.798299 1.577885,1.117516 1.837478,4.57699 l 1.637027,21.815875 c 0,1.963079 1.50807,3.009619 3.741772,3.608138 l 57.195684,13.931426 c 3.21119,0.78216 6.01587,-0.51659 7.14946,-2.87315 l 18.64204,-38.754081 c 0.27133,-0.564049 0.25674,-1.154884 0.30068,-1.837475 l 1.43658,-22.317006 2.77292,-5.278573 c 1.41997,-2.703072 -0.29135,-7.713556 -4.24291,-8.586036 L 81.483797,19.874908 c -3.288067,-0.881035 -6.752115,0.11727 -8.285356,2.772921 z"
       style="fill:none;stroke:#000000;stroke-width:1.05833328;stroke-linecap:butt;stroke-linejoin:miter;stroke-miterlimit:4;stroke-dasharray:none;stroke-opacity:1" />
    <path
       id="path828"
       d="m 50.764182,68.77456 c 0.733698,0.609979 1.712954,1.024591 2.766696,1.274361 l 62.389692,14.788316 c 3.91999,0.92916 7.89674,0.363111 9.78014,-3.449031 l 17.02122,-34.452258"
       style="fill:none;stroke:#000000;stroke-width:1.05833328;stroke-linecap:butt;stroke-linejoin:miter;stroke-miterlimit:4;stroke-dasharray:none;stroke-opacity:1" />
    <path
       id="path830"
       d="m 50.012811,61.969858 c -1.178168,1.741487 -1.45848,4.547833 2.605876,5.512435 L 117.2311,82.816882 c 3.73742,0.887008 6.50293,-1.081889 8.21853,-4.510175 l 19.64431,-39.25521 c 1.0945,-2.187136 -1.45088,-5.15734 -3.11536,-5.771352"
       style="fill:none;stroke:#000000;stroke-width:1.05833328;stroke-linecap:butt;stroke-linejoin:miter;stroke-miterlimit:4;stroke-dasharray:none;stroke-opacity:1" />
    <path
       id="path832"
       d="m 83.8558,98.585783 3.908817,-2.605878 3.457799,-6.79867 1.46163,-2.797977 -0.01669,-1.553503 -2.789626,-4.059156 -1.411518,-1.319643 -5.178346,-1.102487 -1.628674,0.526187 -2.260568,2.348185 -4.252232,7.39416 0.188988,5.338914"
       style="fill:none;stroke:#000000;stroke-width:1.05833328;stroke-linecap:butt;stroke-linejoin:miter;stroke-miterlimit:4;stroke-dasharray:none;stroke-opacity:1" />
    <path
       id="path834"
       d="m 75.146391,88.617001 c 1.719054,0.250484 2.897599,-0.787939 4.048911,-1.891303 l 1.586913,-0.05011 c 0.976237,1.680458 2.676455,2.501188 5.078121,2.488949 l 0.968851,1.202714 c -0.512802,2.102808 0.03092,3.90847 0.935429,5.612659"
       style="fill:none;stroke:#000000;stroke-width:1.05833328;stroke-linecap:butt;stroke-linejoin:miter;stroke-miterlimit:4;stroke-dasharray:none;stroke-opacity:1" />
    <ellipse
       transform="matrix(0.95348882,0.30142838,0,1,0,0)"
       ry="3.3993907"
       rx="5.1880317"
       cy="69.724266"
       cx="84.15123"
       id="path836"
       style="opacity:1;fill:none;fill-opacity:1;stroke:#000000;stroke-width:1.0838387;stroke-linecap:round;stroke-linejoin:round;stroke-miterlimit:4;stroke-dasharray:none;stroke-dashoffset:0;stroke-opacity:1;paint-order:normal" />
    <ellipse
       ry="2.3741629"
       rx="3.2482328"
       cy="62.146854"
       cx="57.653179"
       id="path838"
       style="opacity:1;fill:none;fill-opacity:1;stroke:#000000;stroke-width:1.05833328;stroke-linecap:round;stroke-linejoin:round;stroke-miterlimit:4;stroke-dasharray:none;stroke-dashoffset:0;stroke-opacity:1;paint-order:normal" />
    <ellipse
       ry="1.9371279"
       rx="3.0710564"
       cy="23.416107"
       cx="79.941963"
       id="path840"
       style="opacity:1;fill:none;fill-opacity:1;stroke:#000000;stroke-width:1.05833328;stroke-linecap:round;stroke-linejoin:round;stroke-miterlimit:4;stroke-dasharray:none;stroke-dashoffset:0;stroke-opacity:1;paint-order:normal" />
    <ellipse
       ry="1.8662573"
       rx="3.0238097"
       cy="36.2673"
       cx="138.03218"
       id="path842"
       style="opacity:1;fill:none;fill-opacity:1;stroke:#000000;stroke-width:1.05833328;stroke-linecap:round;stroke-linejoin:round;stroke-miterlimit:4;stroke-dasharray:none;stroke-dashoffset:0;stroke-opacity:1;paint-order:normal" />
    <ellipse
       ry="2.3269157"
       rx="3.0828683"
       cy="76.013855"
       cx="118.01125"
       id="path844"
       style="opacity:1;fill:none;fill-opacity:1;stroke:#000000;stroke-width:1.05833328;stroke-linecap:round;stroke-linejoin:round;stroke-miterlimit:4;stroke-dasharray:none;stroke-dashoffset:0;stroke-opacity:1;paint-order:normal" />
  </g>
</svg>
