<?xml version="1.0" encoding="UTF-8" standalone="no"?>
<svg
   xmlns:serif="http://www.serif.com/"
   xmlns:dc="http://purl.org/dc/elements/1.1/"
   xmlns:cc="http://creativecommons.org/ns#"
   xmlns:rdf="http://www.w3.org/1999/02/22-rdf-syntax-ns#"
   xmlns:svg="http://www.w3.org/2000/svg"
   xmlns="http://www.w3.org/2000/svg"
   xmlns:sodipodi="http://sodipodi.sourceforge.net/DTD/sodipodi-0.dtd"
   xmlns:inkscape="http://www.inkscape.org/namespaces/inkscape"
   width="349.58685"
   height="405.99271"
   viewBox="0 0 349.58685 405.99271"
   version="1.1"
   xml:space="preserve"
   style="clip-rule:evenodd;fill-rule:evenodd;stroke-linejoin:round"
   id="svg2930"
   sodipodi:docname="soil-moisture.svg"
   inkscape:version="0.92.5 (2060ec1f9f, 2020-04-08)"><metadata
   id="metadata2936"><rdf:RDF><cc:Work
       rdf:about=""><dc:format>image/svg+xml</dc:format><dc:type
         rdf:resource="http://purl.org/dc/dcmitype/StillImage" /><dc:title></dc:title></cc:Work></rdf:RDF></metadata><defs
   id="defs2934" /><sodipodi:namedview
   pagecolor="#ffffff"
   bordercolor="#666666"
   borderopacity="1"
   objecttolerance="10"
   gridtolerance="10"
   guidetolerance="10"
   inkscape:pageopacity="0"
   inkscape:pageshadow="2"
   inkscape:window-width="1880"
   inkscape:window-height="1136"
   id="namedview2932"
   showgrid="false"
   inkscape:zoom="3.0159744"
   inkscape:cx="357.77365"
   inkscape:cy="23.166849"
   inkscape:window-x="40"
   inkscape:window-y="27"
   inkscape:window-maximized="1"
   inkscape:current-layer="g5276" />
    
<g
   id="g5276"
   transform="translate(-0.70040078,-0.70079059)"><g
     style="stroke-width:2;stroke-miterlimit:1.5;stroke-dasharray:none"
     transform="translate(-53.8796,-22.2898)"
     serif:id="Layer 1"
     id="Layer-1">
        <g
   style="stroke-width:2;stroke-miterlimit:1.5;stroke-dasharray:none"
   id="g878">
            <g
   style="stroke-width:7.55906487;stroke-miterlimit:1.5;stroke-dasharray:none"
   transform="scale(0.264583)"
   id="rect840">
                <path
   id="path2919"
   style="fill:none;fill-rule:nonzero;stroke:#000000;stroke-width:7.55906487;stroke-miterlimit:1.5;stroke-dasharray:none"
   d="m 352.315,1153.21 13.847,8.31 c 6.047,3.63 14.355,3.62 18.63,-0.02 4.275,-3.64 2.852,-9.5 -3.194,-13.13 l -14.511,-8.7 c -0.35,-12.5 -12.408,-20.14 -27.677,-16.61 l -10.12,-6.08 c -3.024,-1.81 -6.609,-2.71 -9.977,-2.71 -3.368,0 -6.516,0.91 -8.654,2.74 -4.275,3.63 -2.852,9.49 3.195,13.12 l 8.974,5.38 c -1.454,15.07 17.375,19.68 29.487,17.7 z"
   inkscape:connector-curvature="0" />
            </g>
            <path
   style="fill:none;fill-rule:nonzero;stroke:#000000;stroke-width:2;stroke-linejoin:miter;stroke-miterlimit:1.5;stroke-dasharray:none"
   d="m 75.004,249.056 0.379,-16.288 c 0.365,-2.27 2.72,-3.485 5.303,-4.167 l 73.299,-18.183 c 4.598,-1.086 8.913,-0.87 12.88,0.947 l 57.199,26.706 c 1.813,1.438 1.74,4.227 1.516,6.819 l -0.758,13.637 -77.277,24.433 c -5.956,1.654 -11.53,1.686 -16.478,-0.947 L 75.383,250.951 c -0.523,-0.384 -0.31,-1.227 -0.379,-1.895 z"
   id="path826"
   inkscape:connector-curvature="0" />
            <path
   style="fill:none;fill-rule:nonzero;stroke:#000000;stroke-width:2;stroke-miterlimit:1.5;stroke-dasharray:none"
   d="m 75.383,250.951 -1.053,28.573 -15.669,7.098 c -1.162,0.801 -2.466,1.067 -2.947,4.42 l -0.134,9.375 46.474,29.732 c 3.804,1.819 8.008,3.352 16.205,2.009 l 20.357,-3.616 c 2.973,-0.408 6.008,-0.898 9.509,-2.009 l 76.473,-25.581 12.589,-8.303 0.268,-9.107 c 0.008,-3.014 -0.744,-3.995 -2.41,-5.358 l -10.447,-5.089"
   id="path828"
   inkscape:connector-curvature="0" />
            <path
   style="fill:none;fill-rule:nonzero;stroke:#000000;stroke-width:2;stroke-miterlimit:1.5;stroke-dasharray:none"
   d="m 224.822,258.527 -0.758,32.766 12.596,-8.617"
   id="path830"
   inkscape:connector-curvature="0" />
            <path
   style="fill:none;fill-rule:nonzero;stroke:#000000;stroke-width:2;stroke-linejoin:miter;stroke-miterlimit:1.5;stroke-dasharray:none"
   d="m 58.661,286.622 c -0.644,1.683 -1.009,3.367 0.812,5.05 l 43.941,28.032 c 2.991,1.079 3.847,3.257 12.312,1.515 l 25.758,-3.977 c -4.798,-1.066 -9.596,-1.296 -14.394,-4.167 L 74.33,279.524"
   id="path832"
   inkscape:connector-curvature="0" />
            <path
   style="fill:none;fill-rule:nonzero;stroke:#000000;stroke-width:2;stroke-linejoin:miter;stroke-miterlimit:1.5;stroke-dasharray:none"
   d="m 77.664,229.781 c -3.37,2.182 0.065,4.456 2.693,6.082 l 49.822,27.321 c 4.922,2.446 11.198,3.129 19.687,0.938 l 70.446,-19.955 c 5.069,-2.257 4.654,-4.191 3.752,-6.096"
   id="path834"
   inkscape:connector-curvature="0" />
            <path
   style="fill:none;fill-rule:nonzero;stroke:#000000;stroke-width:2;stroke-linejoin:miter;stroke-miterlimit:1.5;stroke-dasharray:none"
   d="m 105.498,221.972 1.136,-98.49 4.357,-37.313 c 0.508,-2.206 1.478,-5.692 1.549,-7.063 l 0.723,-52.031 c 0.275,-3.649 5.941,-4.622 6.44,0.19 l -1.326,49.813 c 0.003,1.832 0.576,4.211 1.104,6.218 l 3.063,40.944 -0.947,94.323"
   id="path869"
   inkscape:connector-curvature="0" />
        </g>
    </g><g
     transform="translate(253.79189,-190.60041)"
     id="g4948"
     style="clip-rule:evenodd;fill-rule:evenodd;stroke-linecap:round;stroke-linejoin:round;stroke-miterlimit:1.5"><g
       id="g136"
       transform="translate(-16.511998,-29.608763)"><g
         id="g50"
         transform="matrix(0.633041,-0.060963,0.129868,1.34855,73.8904,-10.9552)">
        <ellipse
   id="ellipse48"
   style="fill:none;stroke:#000000;stroke-width:1.90999997px"
   ry="2.7809999"
   rx="5.7750001"
   cy="362.23749"
   cx="-353.177" />
    </g><path
         id="path52"
         style="fill:none;stroke:#000000;stroke-width:3.32999992px"
         d="m -102.64202,499.07167 c 23.041998,6.2 44.373998,10.84 60.125998,27.599 32.45,34.524 -23,55.667 -39,63 -16,7.333 -52.803998,-2.299 -56.999998,-19 -9.667,-38.472 95.028998,-70.803 111.999998,-53.832 14,14 0.667,63.721 13,62.332"
         inkscape:connector-curvature="0" /></g></g><g
     transform="rotate(15,229.442,366.21408)"
     id="g5239"><rect
       style="opacity:1;fill:none;fill-opacity:1;stroke:#000000;stroke-width:2;stroke-linecap:round;stroke-linejoin:miter;stroke-miterlimit:1.5;stroke-dasharray:none;stroke-dashoffset:0;stroke-opacity:1"
       id="rect4950"
       width="12.426053"
       height="23.21093"
       x="223.90341"
       y="348.87143" /><rect
       style="opacity:1;fill:none;fill-opacity:1;stroke:#000000;stroke-width:2;stroke-linecap:round;stroke-linejoin:miter;stroke-miterlimit:1.5;stroke-dasharray:none;stroke-dashoffset:0;stroke-opacity:1"
       id="rect4952"
       width="92.140358"
       height="36.340343"
       x="236.56393"
       y="342.30673" /><path
       style="clip-rule:evenodd;opacity:1;fill:none;fill-opacity:1;fill-rule:evenodd;stroke:#000000;stroke-width:2;stroke-linecap:round;stroke-linejoin:miter;stroke-miterlimit:1.5;stroke-dasharray:none;stroke-dashoffset:0;stroke-opacity:1"
       d="m 328.70428,342.30697 v 36.33985 h 4.45508 c 10.06627,0 18.16992,-8.10365 18.16992,-18.16992 0,-10.06628 -8.10365,-18.16993 -18.16992,-18.16993 z"
       id="rect4952-3"
       inkscape:connector-curvature="0" /><path
       style="fill:none;stroke:#000000;stroke-width:2;stroke-linecap:butt;stroke-linejoin:miter;stroke-miterlimit:4;stroke-dasharray:none;stroke-opacity:1"
       d="m 246.64544,342.30673 v 36.5748"
       id="path4972"
       inkscape:connector-curvature="0" /><g
       id="g4993"
       transform="translate(-2.3841858e-6,0.9378109)"><circle
         r="5.3924384"
         cy="350.51263"
         cx="256.60971"
         id="path4974"
         style="opacity:1;fill:none;fill-opacity:1;stroke:#000000;stroke-width:2;stroke-linecap:round;stroke-linejoin:miter;stroke-miterlimit:4;stroke-dasharray:none;stroke-dashoffset:0;stroke-opacity:1" /><circle
         r="5.3924384"
         cy="368.56555"
         cx="256.60971"
         id="path4974-6"
         style="clip-rule:evenodd;opacity:1;fill:none;fill-opacity:1;fill-rule:evenodd;stroke:#000000;stroke-width:2;stroke-linecap:round;stroke-linejoin:miter;stroke-miterlimit:4;stroke-dasharray:none;stroke-dashoffset:0;stroke-opacity:1" /></g><g
       style="clip-rule:evenodd;fill-rule:evenodd;stroke-linejoin:round"
       id="g4993-7-5"
       transform="translate(31.53404,0.9378109)"><circle
         r="5.3924384"
         cy="350.51263"
         cx="256.60971"
         id="path4974-5-6"
         style="opacity:1;fill:none;fill-opacity:1;stroke:#000000;stroke-width:2;stroke-linecap:round;stroke-linejoin:miter;stroke-miterlimit:4;stroke-dasharray:none;stroke-dashoffset:0;stroke-opacity:1" /><circle
         r="5.3924384"
         cy="368.56555"
         cx="256.60971"
         id="path4974-6-3-2"
         style="clip-rule:evenodd;opacity:1;fill:none;fill-opacity:1;fill-rule:evenodd;stroke:#000000;stroke-width:2;stroke-linecap:round;stroke-linejoin:miter;stroke-miterlimit:4;stroke-dasharray:none;stroke-dashoffset:0;stroke-opacity:1" /></g><g
       style="clip-rule:evenodd;fill-rule:evenodd;stroke-linejoin:round"
       id="g4993-7-5-9-7"
       transform="translate(63.068097,0.9378109)"><circle
         r="5.3924384"
         cy="350.51263"
         cx="256.60971"
         id="path4974-5-6-1-0"
         style="opacity:1;fill:none;fill-opacity:1;stroke:#000000;stroke-width:2;stroke-linecap:round;stroke-linejoin:miter;stroke-miterlimit:4;stroke-dasharray:none;stroke-dashoffset:0;stroke-opacity:1" /><circle
         r="5.3924384"
         cy="368.56555"
         cx="256.60971"
         id="path4974-6-3-2-2-9"
         style="clip-rule:evenodd;opacity:1;fill:none;fill-opacity:1;fill-rule:evenodd;stroke:#000000;stroke-width:2;stroke-linecap:round;stroke-linejoin:miter;stroke-miterlimit:4;stroke-dasharray:none;stroke-dashoffset:0;stroke-opacity:1" /></g><path
       style="clip-rule:evenodd;opacity:1;fill:none;fill-opacity:1;fill-rule:evenodd;stroke:#000000;stroke-width:2;stroke-linecap:round;stroke-linejoin:miter;stroke-miterlimit:4;stroke-dasharray:none;stroke-dashoffset:0;stroke-opacity:1"
       d="m 267.04883,342.33094 a 5.3924384,5.3924384 0 0 0 5.32812,4.5957 5.3924384,5.3924384 0 0 0 5.32617,-4.5957 z"
       id="path4974-5"
       inkscape:connector-curvature="0" /><circle
       style="clip-rule:evenodd;opacity:1;fill:none;fill-opacity:1;fill-rule:evenodd;stroke:#000000;stroke-width:2;stroke-linecap:round;stroke-linejoin:miter;stroke-miterlimit:4;stroke-dasharray:none;stroke-dashoffset:0;stroke-opacity:1"
       id="path4974-6-3"
       cx="272.37671"
       cy="359.50336"
       r="5.3924384" /><path
       style="clip-rule:evenodd;opacity:1;fill:none;fill-opacity:1;fill-rule:evenodd;stroke:#000000;stroke-width:2;stroke-linecap:round;stroke-linejoin:miter;stroke-miterlimit:4;stroke-dasharray:none;stroke-dashoffset:0;stroke-opacity:1"
       d="m 298.51953,342.33094 a 5.3924384,5.3924384 0 0 0 -0.002,0.041 5.3924384,5.3924384 0 0 0 5.39258,5.39258 5.3924384,5.3924384 0 0 0 5.39257,-5.39258 5.3924384,5.3924384 0 0 0 -0.002,-0.041 z"
       id="path4974-5-1"
       inkscape:connector-curvature="0" /><circle
       style="clip-rule:evenodd;opacity:1;fill:none;fill-opacity:1;fill-rule:evenodd;stroke:#000000;stroke-width:2;stroke-linecap:round;stroke-linejoin:miter;stroke-miterlimit:4;stroke-dasharray:none;stroke-dashoffset:0;stroke-opacity:1"
       id="path4974-6-3-8"
       cx="303.91074"
       cy="360.3418"
       r="5.3924384" /><path
       style="clip-rule:evenodd;opacity:1;fill:none;fill-opacity:1;fill-rule:evenodd;stroke:#000000;stroke-width:2;stroke-linecap:round;stroke-linejoin:miter;stroke-miterlimit:4;stroke-dasharray:none;stroke-dashoffset:0;stroke-opacity:1"
       d="m 266.96851,378.59746 a 5.3924384,5.3924384 0 0 1 5.32812,-4.5957 5.3924384,5.3924384 0 0 1 5.32617,4.5957 z"
       id="path4974-5-3"
       inkscape:connector-curvature="0" /><path
       style="clip-rule:evenodd;opacity:1;fill:none;fill-opacity:1;fill-rule:evenodd;stroke:#000000;stroke-width:2;stroke-linecap:round;stroke-linejoin:miter;stroke-miterlimit:4;stroke-dasharray:none;stroke-dashoffset:0;stroke-opacity:1"
       d="m 298.43921,378.59746 a 5.3924384,5.3924384 0 0 1 -0.002,-0.041 5.3924384,5.3924384 0 0 1 5.39258,-5.39258 5.3924384,5.3924384 0 0 1 5.39257,5.39258 5.3924384,5.3924384 0 0 1 -0.002,0.041 z"
       id="path4974-5-1-7"
       inkscape:connector-curvature="0" /></g></g></svg>