<?xml version="1.0" encoding="UTF-8" standalone="no"?>
<svg
   xmlns:dc="http://purl.org/dc/elements/1.1/"
   xmlns:cc="http://creativecommons.org/ns#"
   xmlns:rdf="http://www.w3.org/1999/02/22-rdf-syntax-ns#"
   xmlns:svg="http://www.w3.org/2000/svg"
   xmlns="http://www.w3.org/2000/svg"
   id="svg1081"
   style="fill-rule:evenodd;clip-rule:evenodd;stroke-linecap:round;stroke-linejoin:round;stroke-miterlimit:1.5;"
   xml:space="preserve"
   version="1.1"
   viewBox="0 0 300 300"
   height="100%"
   width="100%"><metadata
   id="metadata1087"><rdf:RDF><cc:Work
       rdf:about=""><dc:format>image/svg+xml</dc:format><dc:type
         rdf:resource="http://purl.org/dc/dcmitype/StillImage" /><dc:title></dc:title></cc:Work></rdf:RDF></metadata><defs
   id="defs1085" />
    <g
   id="g1029"
   transform="matrix(1,0,0,1,-1,170)">
        <g
   id="g987"
   transform="matrix(1,0,0,1,10,-149.934)">
            <path
   id="path985"
   style="fill:none;stroke:black;stroke-width:1.5px;"
   d="M20.056,20.597L18.619,21.073L11.302,13.375C9.846,11.584 12.867,9.548 13.966,10.562L22.259,16.728L22.259,18.428L20.056,20.597Z" />
        </g>
        <g
   id="g991"
   transform="matrix(1,0,0,1,10,-149.934)">
            <path
   id="path989"
   style="fill:none;stroke:black;stroke-width:1.5px;"
   d="M76.91,86.468C59.717,62.907 41.558,40.164 22.224,18.418L20.264,20.432C39.39,41.631 57.312,63.944 74.065,87.339L76.91,86.468Z" />
        </g>
        <g
   id="g995"
   transform="matrix(0.779826,-0.0750987,0.0750987,0.779826,85.2749,-180.402)">
            <ellipse
   id="ellipse993"
   style="fill:none;stroke:black;stroke-width:1.91px;"
   ry="2.781"
   rx="5.775"
   cy="142.421"
   cx="60.798" />
        </g>
        <g
   id="g999"
   transform="matrix(0.779826,-0.0750987,0.0750987,0.779826,122.453,-144.952)">
            <ellipse
   id="ellipse997"
   style="fill:none;stroke:black;stroke-width:1.91px;"
   ry="2.781"
   rx="5.775"
   cy="142.421"
   cx="60.798" />
        </g>
        <g
   id="g1003"
   transform="matrix(0.779826,-0.0750987,0.0750987,0.779826,11.5992,-112.597)">
            <ellipse
   id="ellipse1001"
   style="fill:none;stroke:black;stroke-width:1.91px;"
   ry="2.781"
   rx="5.775"
   cy="142.421"
   cx="60.798" />
        </g>
        <g
   id="g1007"
   transform="matrix(0.779826,-0.0750987,0.0750987,0.779826,-18.8237,-150.121)">
            <ellipse
   id="ellipse1005"
   style="fill:none;stroke:black;stroke-width:1.91px;"
   ry="2.781"
   rx="5.775"
   cy="142.421"
   cx="60.798" />
        </g>
        <g
   id="g1011"
   transform="matrix(1,0,0,1,10,-149.934)">
            <path
   id="path1009"
   style="fill:none;stroke:black;stroke-width:1.5px;"
   d="M30.991,116.884L45.128,98.421L113.369,78.585L147.648,82.047L165.744,98.421L155.962,116.884L82.247,139.277L46.88,134.678L30.991,116.884Z" />
        </g>
        <g
   id="g1015"
   transform="matrix(1,0,0,1,10,-149.934)">
            <path
   id="path1013"
   style="fill:none;stroke:black;stroke-width:1.5px;"
   d="M21,142L18,111C17.774,106.264 20.522,103.545 25,102L128,72C134.178,70.647 139.367,71.309 143,74L182,108C183.347,109.191 184.052,110.517 184,112L184,118L192,125C192.888,126.042 193.045,127.546 192,130L183,149C181.857,150.788 180.118,152.058 178,153L70,189C67.294,189.901 62.695,189.625 59,189L28,184C25.851,183.509 23.763,182.822 22,181L9,162C7.951,160.326 8.015,158.702 9,157.118L21,142Z" />
        </g>
        <g
   id="g1019"
   transform="matrix(1,0,0,1,10,-149.934)">
            <path
   id="path1017"
   style="fill:none;stroke:black;stroke-width:1.5px;stroke-linecap:square;"
   d="M21.172,142.226L56,188" />
        </g>
        <g
   id="g1023"
   transform="matrix(1,0,0,1,10,-149.934)">
            <path
   id="path1021"
   style="fill:none;stroke:black;stroke-width:1.5px;"
   d="M184,118L185.283,144.18" />
        </g>
        <g
   id="g1027"
   transform="matrix(1,0,0,1,10,-149.934)">
            <path
   id="path1025"
   style="fill:none;stroke:black;stroke-width:1.5px;stroke-linecap:butt;"
   d="M18,113L47,149C50.165,153.037 59.605,153.783 66,152L179,117C181.785,116.095 183.36,114.067 184,111" />
        </g>
    </g>
    <g
   id="g1033"
   transform="matrix(0.633041,-0.060963,0.129868,1.34855,73.8904,-10.9552)">
        <ellipse
   id="ellipse1031"
   style="fill:none;stroke:black;stroke-width:1.91px;"
   ry="2.781"
   rx="5.775"
   cy="142.421"
   cx="60.798" />
    </g>
    <g
   id="g1037"
   transform="matrix(1,0,0,1,-18.6556,20.7891)">
        <path
   id="path1035"
   style="fill:none;stroke:black;stroke-width:3.33px;stroke-linecap:butt;"
   d="M149.118,156.754C163.435,168.547 180.231,182.283 195.983,199.042C228.433,233.566 168,260.667 152,268C136,275.333 99.196,265.701 95,249C85.333,210.528 149.107,191.548 173.107,191.548C197.107,191.548 218.406,193.982 234.333,205" />
    </g>
    
<rect
   transform="rotate(30)"
   ry="5.0220652"
   y="83.276001"
   x="301.52383"
   height="10.04413"
   width="36.359753"
   id="rect1089"
   style="opacity:1;fill:none;fill-opacity:1;stroke:#000000;stroke-width:4.53543329;stroke-linecap:butt;stroke-linejoin:round;stroke-miterlimit:1.5;stroke-dasharray:none;stroke-dashoffset:0;stroke-opacity:1" /><path
   id="path1091"
   d="m 223.58234,236.72198 c -0.16589,-4.12533 0.91971,-7.31204 5.02207,-8.23619"
   style="fill:none;stroke:#000000;stroke-width:1px;stroke-linecap:butt;stroke-linejoin:miter;stroke-opacity:1" /></svg>