<svg width="75px" height="75px" viewBox="0 0 200 200" version="1.1" xmlns="http://www.w3.org/2000/svg" xmlns:xlink="http://www.w3.org/1999/xlink" xml:space="preserve" xmlns:serif="http://www.serif.com/" style="fill-rule:evenodd;clip-rule:evenodd;stroke-linecap:round;stroke-linejoin:round;stroke-miterlimit:1.5;">
<g id="Temperature-sensor" serif:id="Temperature sensor">
<path d="M66.729,120.754l0,-91.905c0,-12.622 10.232,-22.855 22.855,-22.855c0,0 0,0 0.001,0c12.622,0 22.855,10.233 22.855,22.855l0,91.905c10.473,7.258 17.337,19.363 17.337,33.058c0,22.184 -18.01,40.194 -40.193,40.194c-22.183,0 -40.193,-18.01 -40.193,-40.194c0,-13.695 6.865,-25.8 17.338,-33.058Z" style="fill:none;stroke:#333;stroke-width:8px;"></path>
<rect x="119.916" y="52.993" width="30.693" height="8.257" style="fill:#333"></rect>
<rect x="119.916" y="67.711" width="30.693" height="8.257" style="fill:#333"></rect>
<rect x="119.916" y="82.429" width="30.693" height="8.257" style="fill:#333"></rect>
<rect x="119.916" y="97.147" width="30.693" height="8.257" style="fill:#333"></rect>
<path d="M80.042,131.906l0,-71.894c0,-2.53 1.005,-4.957 2.795,-6.747c1.789,-1.79 4.216,-2.795 6.747,-2.795c0,0 0,0 0,0c2.531,0 4.958,1.005 6.748,2.795c1.789,1.79 2.794,4.217 2.794,6.747l0,71.894c8.443,3.687 14.349,12.112 14.349,21.906c0,13.186 -10.705,23.891 -23.891,23.891c-13.185,0 -23.891,-10.705 -23.891,-23.891c0,-9.794 5.907,-18.219 14.349,-21.906Z" style="fill:#333;"></path>
</g>
</svg>
