<?xml version="1.0" encoding="UTF-8" standalone="no"?>
<!DOCTYPE svg PUBLIC "-//W3C//DTD SVG 1.1//EN" "http://www.w3.org/Graphics/SVG/1.1/DTD/svg11.dtd">
<svg width="100%" height="100%" viewBox="0 0 300 300" version="1.1" xmlns="http://www.w3.org/2000/svg" xmlns:xlink="http://www.w3.org/1999/xlink" xml:space="preserve" xmlns:serif="http://www.serif.com/" style="fill-rule:evenodd;clip-rule:evenodd;stroke-linecap:round;stroke-linejoin:round;stroke-miterlimit:1.5;">
    <g>
        <path d="M83.37,103.665L77.343,60.932L77.442,37.848L73.928,8.13C73.708,5.405 77.581,5.041 78.125,7.417L81.586,36.769L87.172,57.706L92.531,102.215" style="fill:none;stroke:black;stroke-width:1px;"/>
        <path d="M95.105,124.088L88.096,117.162C89.132,112.989 91.185,109.948 96.274,110.286L103.588,118.21C99.656,118.302 96.978,120.515 95.105,124.088Z" style="fill:none;stroke:black;stroke-width:1px;"/>
        <path d="M94.023,109.873C93.876,107.306 93.735,104.737 92.739,102.295C89.623,106.429 86.224,106.268 82.666,103.713L83.473,112.444C84.012,115.124 84.972,116.293 86.133,116.743L87.996,116.457" style="fill:none;stroke:black;stroke-width:1px;"/>
    </g>
    <g>
        <g transform="matrix(1,0,0,1,30.8969,-20.5729)">
            <path d="M131.225,175.137L134.562,178.744C139.788,179.821 149.357,172.2 148.504,167.267L144.81,163.479C140.57,162.754 131.226,169.693 131.225,175.137Z" style="fill:none;stroke:black;stroke-width:1px;"/>
            <path d="M134.562,178.744C134.244,172.856 142.955,165.589 148.504,167.267" style="fill:none;stroke:black;stroke-width:1px;"/>
        </g>
        <g transform="matrix(1,0,0,1,15.8658,-10.2229)">
            <path d="M131.225,175.137L134.562,178.744C139.788,179.821 149.357,172.2 148.504,167.267L144.81,163.479C140.57,162.754 131.226,169.693 131.225,175.137Z" style="fill:none;stroke:black;stroke-width:1px;"/>
            <path d="M134.562,178.744C134.244,172.856 142.955,165.589 148.504,167.267" style="fill:none;stroke:black;stroke-width:1px;"/>
        </g>
        <g transform="matrix(1,0,0,1,0.580192,0.865792)">
            <path d="M131.225,175.137L134.562,178.744C139.788,179.821 149.357,172.2 148.504,167.267L144.81,163.479C140.57,162.754 131.226,169.693 131.225,175.137Z" style="fill:none;stroke:black;stroke-width:1px;"/>
            <path d="M134.562,178.744C134.244,172.856 142.955,165.589 148.504,167.267" style="fill:none;stroke:black;stroke-width:1px;"/>
        </g>
    </g>
    <g>
        <g>
            <path d="M90.725,266.303L96.352,282.339C98.152,285.528 101.338,286.173 105.438,285.139L132.396,277.068C136.446,274.849 137.381,271.112 135.202,265.858L129.844,250.824L121.308,253.007C128.787,272.529 102.992,279.678 98.465,259.046L89.159,261.841" style="fill:none;stroke:black;stroke-width:1px;"/>
            <path d="M90.405,270.182L90.952,273.845L96.11,287.6C97.773,292.944 100.898,294.845 105.192,293.991L131.747,286.086C134.617,284.958 136.493,283.109 136.817,280.137L136.349,270.335" style="fill:none;stroke:black;stroke-width:1px;"/>
            <path d="M89.342,258.011L80.385,228.332C79.85,226.592 80.194,225.245 81.997,224.55L114.448,215.928C116.012,215.461 117.27,215.898 118.11,217.57L129.96,247.17L121.336,250.411C112.035,243.395 101.747,245.435 98.985,254.812L89.342,258.011Z" style="fill:none;stroke:black;stroke-width:1px;"/>
            <path d="M103.438,268.121C109.317,263.993 115.022,263.204 120.898,265.957" style="fill:none;stroke:black;stroke-width:1px;"/>
            <path d="M129.946,247.122L130.126,251.497" style="fill:none;stroke:black;stroke-width:1px;"/>
            <path d="M121.339,252.991L122.1,263.728" style="fill:none;stroke:black;stroke-width:1px;"/>
            <path d="M89.364,258.095L89.554,261.393" style="fill:none;stroke:black;stroke-width:1px;"/>
            <path d="M99.022,254.838L99.741,262.941" style="fill:none;stroke:black;stroke-width:1px;"/>
            <path d="M121.214,250.455L121.295,253.026" style="fill:none;stroke:black;stroke-width:1px;"/>
            <path d="M80.126,226.63L79.746,235.259L86.736,259.72" style="fill:none;stroke:black;stroke-width:1px;"/>
            <g transform="matrix(1.00466,0.326434,0.0139767,0.999902,5.25582,-33.2522)">
                <g transform="matrix(0.981936,-0.189215,0.189215,0.981936,-49.2315,19.3067)">
                    <path d="M73.012,260.93C70.755,265.779 81.968,268.546 80.069,274.054" style="fill:none;stroke:black;stroke-width:0.85px;"/>
                </g>
                <g transform="matrix(0.981936,-0.189215,0.189215,0.981936,-49.9602,24.6939)">
                    <path d="M73.012,260.93C70.755,265.779 81.968,268.546 80.069,274.054" style="fill:none;stroke:black;stroke-width:0.85px;"/>
                </g>
                <path d="M81.238,273.308L80.656,278.718" style="fill:none;stroke:black;stroke-width:0.85px;"/>
                <path d="M71.809,261.711L71.088,267.273" style="fill:none;stroke:black;stroke-width:0.85px;"/>
            </g>
        </g>
        <g>
            <path d="M215.379,245.398L215.401,250.407" style="fill:none;stroke:black;stroke-width:1px;"/>
            <path d="M195.002,239.295C202.544,236.214 208.797,246.823 215.324,245.392" style="fill:none;stroke:black;stroke-width:1px;"/>
            <g transform="matrix(1,0,0,1,0,4.99911)">
                <path d="M195.002,239.295C202.544,236.214 208.797,246.823 215.324,245.392" style="fill:none;stroke:black;stroke-width:1px;"/>
            </g>
            <path d="M194.963,239.377L195.002,244.294" style="fill:none;stroke:black;stroke-width:1px;"/>
            <path d="M215.606,233.988C215.711,230.632 219.477,227.653 224.35,227.181L226.059,224.593C230.335,225.721 233.351,228.173 235.343,231.703" style="fill:none;stroke:black;stroke-width:1px;"/>
            <path d="M209.798,244.205L209.973,239.03C210.074,237.59 210.827,236.267 211.495,235.283L214.875,229.677C206.711,223.982 213.817,213.136 222.346,215.932L228.485,206.332L195.499,191.299C194.165,190.748 193.182,191.335 192.41,192.253L176.572,218.592C175.885,219.605 175.518,220.687 175.407,221.823L175.606,231.158C175.622,232.736 176.302,233.818 177.617,234.427L194.713,243.078" style="fill:none;stroke:black;stroke-width:1px;"/>
            <path d="M196.458,243.961L209.581,250.602L209.623,249.369" style="fill:none;stroke:black;stroke-width:1px;"/>
            <path d="M224.711,215.624L229.012,208.998L247.84,218.017C251.703,220.415 253.002,223.536 250.795,227.646L239.409,247.883C236.782,250.996 233.08,251.444 228.389,249.435L210.373,240.678L214.645,233.665C234.631,245.994 246.23,222.792 224.711,215.624Z" style="fill:none;stroke:black;stroke-width:1px;"/>
            <path d="M214.187,250.53L229.779,257.392C233.863,258.636 236.867,258.005 238.766,255.454L250.317,234.908C251.173,233.263 251.667,231.649 251.916,230.051C252.248,227.928 252.148,225.832 251.89,223.725" style="fill:none;stroke:black;stroke-width:1px;"/>
            <path d="M224.715,215.657L226.222,224.596" style="fill:none;stroke:black;stroke-width:1px;"/>
            <path d="M228.505,206.424L229.072,208.902" style="fill:none;stroke:black;stroke-width:1px;"/>
            <path d="M224.266,226.986L222.33,215.943" style="fill:none;stroke:black;stroke-width:1px;"/>
            <path d="M214.931,229.692L215.114,233.678" style="fill:none;stroke:black;stroke-width:1px;"/>
            <path d="M209.714,250.524L210.353,249.674" style="fill:none;stroke:black;stroke-width:1px;"/>
            <path d="M175.858,220.094L210.308,237.324" style="fill:none;stroke:black;stroke-width:1px;"/>
        </g>
        <g>
            <path d="M236.91,151.069C243.29,147.524 252.71,148.805 253.702,154.046" style="fill:none;stroke:black;stroke-width:1px;"/>
            <path d="M235.944,139.954L237.246,155.637" style="fill:none;stroke:black;stroke-width:1px;"/>
            <path d="M236.24,142.432C257.457,134.395 263.028,159.241 240.916,160.606" style="fill:none;stroke:black;stroke-width:1px;"/>
            <path d="M268.111,157.545L268.203,166.615C267.752,169.097 266.006,170.532 263.372,171.249L248.792,174.448" style="fill:none;stroke:black;stroke-width:1px;"/>
            <path d="M242.781,169.051L264.112,164.104C266.874,162.818 268.412,160.613 267.972,156.921L261.878,135.722C260.596,132.075 257.326,130.993 252.409,132.036L234.495,135.46" style="fill:none;stroke:black;stroke-width:1px;"/>
            <g>
                <path d="M229.643,175.735C232.239,170.214 242.489,173.683 247.771,168.95" style="fill:none;stroke:black;stroke-width:1px;"/>
                <g transform="matrix(1,0,0,1,0.818437,5.61846)">
                    <path d="M229.643,175.735C232.239,170.214 242.489,173.683 247.771,168.95" style="fill:none;stroke:black;stroke-width:1px;"/>
                </g>
                <path d="M247.771,168.95L248.589,174.568" style="fill:none;stroke:black;stroke-width:1px;"/>
                <path d="M229.643,175.735L230.461,181.353" style="fill:none;stroke:black;stroke-width:1px;"/>
            </g>
            <path d="M204,171L241.58,164.033" style="fill:none;stroke:black;stroke-width:1px;"/>
            <path d="M242.472,171.194L242,166C242,164.564 241.793,163.197 241,162L239,156C233.079,156.871 228.843,142.343 236,140L233,132L199,140C197.891,140.507 197.433,141.708 198,144L206,182C206.339,183.422 206.962,184.189 208,184L242,179C242.78,178.538 243.1,177.865 243,177" style="fill:none;stroke:black;stroke-width:1px;"/>
        </g>
    </g>
    <g>
        <path d="M76.992,152L71,158C69.048,160.037 68.765,162.035 70,164L92,190" style="fill:none;stroke:black;stroke-width:1px;"/>
        <path d="M80,134L150,89C152.494,87.447 154.834,87.709 157,90L185,118C187.801,121.251 187.861,124.282 184,127L115,172C112.717,173.608 108.213,176.007 105,173L78,141C76.118,139.077 76.92,135.775 80,134Z" style="fill:none;stroke:black;stroke-width:1px;"/>
        <g transform="matrix(1,0,0,1,0,7)">
            <path d="M187.011,122.379C187.011,123.999 186.068,125.545 184,127L115,172C112.616,173.739 108.319,175.739 105,173L78,141C77.249,140.232 76.925,139.245 77.003,138.223" style="fill:none;stroke:black;stroke-width:1px;"/>
        </g>
        <path d="M187.011,122L187.011,130" style="fill:none;stroke:black;stroke-width:1px;"/>
        <path d="M77.003,138.223L76.992,154" style="fill:none;stroke:black;stroke-width:1px;"/>
        <g>
            <path d="M141.837,173.103C155.315,188.269 89.867,196.206 98.315,220.255" style="fill:none;stroke:black;stroke-width:1px;"/>
            <path d="M77.07,154.053L104.926,185.716C109.366,190.278 115.073,189.375 121.434,185.66" style="fill:none;stroke:black;stroke-width:1px;"/>
            <path d="M187.025,121.006L192.486,125.98C194.236,128.469 193.517,132.097 190.393,134.805L177.84,144.553" style="fill:none;stroke:black;stroke-width:1px;"/>
            <path d="M132.724,177.749L115.274,190.058C112.855,191.214 110.922,191.303 108.642,191.501L98.283,192.655C96.238,192.959 94.223,192.103 92.233,190.179" style="fill:none;stroke:black;stroke-width:1px;"/>
            <path d="M172.566,152.294C184.434,168.077 178.416,162.036 201.56,161.36" style="fill:none;stroke:black;stroke-width:1px;"/>
            <path d="M157.737,162.831C171.565,179.996 167.792,197.524 184.033,206.463" style="fill:none;stroke:black;stroke-width:1px;"/>
        </g>
    </g>
</svg>
