<?xml version="1.0" encoding="UTF-8" standalone="no"?>
<!DOCTYPE svg PUBLIC "-//W3C//DTD SVG 1.1//EN" "http://www.w3.org/Graphics/SVG/1.1/DTD/svg11.dtd">
<svg width="100%" height="100%" viewBox="0 0 562 530" version="1.1" xmlns="http://www.w3.org/2000/svg" xmlns:xlink="http://www.w3.org/1999/xlink" xml:space="preserve" xmlns:serif="http://www.serif.com/" style="fill-rule:evenodd;clip-rule:evenodd;">
    <g id="layer1" transform="matrix(1,0,0,1,-29.6304,-37.516)">
        <path id="path1471" d="M411.824,47.704L387.899,40.713C382.213,38.215 376.399,36.612 369.716,41.091L293.197,91.473C288.401,94.377 287.289,97.281 293.576,100.185L477.297,161.931C485.149,164.68 491.03,162.828 495.859,158.522L562.15,100.943C570.981,93.401 560.227,91.979 553.816,89.2L478.798,67.277" style="fill:none;fill-rule:nonzero;stroke:black;stroke-width:1.5px;"/>
        <path id="path1473" d="M565.312,95.506L564.911,205.595C564.461,208.108 565.72,209.554 568.125,210.283L587.411,218.452C591.908,220.972 591.049,223.747 588.08,226.622L506.518,294.256C502.662,296.489 497.739,297.199 491.384,295.863L463.393,289.033C470.546,287.798 477.696,286.55 484.152,281.131L563.304,214.434C565.514,211.874 564.648,210.631 564.509,209.077" style="fill:none;fill-rule:nonzero;stroke:black;stroke-width:1.5px;"/>
        <path id="path1475" d="M590.491,222.671L589.286,230.64C589.132,232.129 588.454,233.269 587.545,234.256L504.375,303.497C500.456,306.802 494.634,307.181 487.433,305.439L463.326,299.278L451.674,294.457L307.165,235.193" style="fill:none;fill-rule:nonzero;stroke:black;stroke-width:1.5px;"/>
        <path id="path1477" d="M289.03,96.302L284.295,212.975" style="fill:none;fill-rule:nonzero;stroke:black;stroke-width:1.5px;"/>
        <path id="path1479" d="M287.893,121.541C289.514,124.806 292.052,125.776 294.665,126.56L472.373,187.311C481.275,190.821 490.177,189.724 499.078,181.629L564.991,124.997" style="fill:none;fill-rule:nonzero;stroke:black;stroke-width:1.5px;"/>
        <path id="path1481" d="M284.674,186.553L269.521,197.539C265.14,201.028 268.252,205.587 271.037,207.766L280.507,214.017" style="fill:none;fill-rule:nonzero;stroke:black;stroke-width:1.5px;"/>
        <path id="path1483" d="M267.248,201.564C267.252,204.945 267.179,208.25 267.296,211.744L276.056,217.9" style="fill:none;fill-rule:nonzero;stroke:black;stroke-width:1.5px;"/>
        <path id="path1485" d="M308.036,190.729L324.777,178.542C330.052,178.893 335.235,179.393 339.107,182.024C342.763,186.483 346.214,191.016 347.411,196.354C347.047,200.181 345.174,204.182 343.259,207.068L328.929,218.854L331.339,209.077L322.098,194.077L308.036,190.729Z" style="fill:none;fill-rule:nonzero;stroke:black;stroke-width:1.5px;"/>
        <path id="path1487" d="M122.923,473.689C63.48,454.47 52.887,405.6 64.622,366.726C78.331,321.308 132.518,309.943 183.7,295.328M77.43,475.913C82.737,477.292 92.384,484.362 98.869,483.159" style="fill:none;fill-rule:nonzero;stroke:black;stroke-width:1.5px;"/>
        <path id="path14871" serif:id="path1487" d="M211.406,286.689C222.915,282.644 233.808,278.032 243.504,272.357C272.509,255.382 298.028,243.443 328.192,217.649C328.752,197.463 317.377,194.376 308.304,192.135C286.984,213.032 265.046,225.081 241.875,239.211C227.756,247.821 212.195,254.64 196.074,260.721" style="fill:none;fill-rule:nonzero;stroke:black;stroke-width:1.5px;"/>
        <path id="path14872" serif:id="path1487" d="M168.886,270.336C120.824,286.634 72.176,301.613 44.908,341.433C29.259,364.286 26.281,398.055 35.885,424.034C40.874,437.529 49.431,452.086 59.379,464.33" style="fill:none;fill-rule:nonzero;stroke:black;stroke-width:1.5px;"/>
        <path id="path1489" d="M322.098,194.077L339.107,182.024" style="fill:none;fill-rule:nonzero;stroke:black;stroke-width:1.5px;"/>
        <path id="path1491" d="M331.339,209.077L347.411,196.354" style="fill:none;fill-rule:nonzero;stroke:black;stroke-width:1.5px;"/>
        <path id="path1493" d="M307.542,190.93L307.257,193.115" style="fill:none;fill-rule:nonzero;stroke:black;stroke-width:1.5px;"/>
        <path id="path1495" d="M328.811,219.214L328.192,217.649" style="fill:none;fill-rule:nonzero;stroke:black;stroke-width:1.5px;"/>
        <g id="path1497" transform="matrix(0.99659,-0.0825103,0.0825103,0.99659,0,0)">
            <ellipse cx="411.442" cy="116.157" rx="62.16" ry="34.412" style="fill:none;stroke:black;stroke-width:1.5px;stroke-linecap:round;stroke-linejoin:round;"/>
        </g>
        <g id="path1497-3" transform="matrix(0.996611,-0.0822557,0.0827657,0.996569,0,0)">
            <ellipse cx="411.765" cy="111.805" rx="48.614" ry="26.831" style="fill:none;stroke:black;stroke-width:1.5px;stroke-linecap:round;stroke-linejoin:round;"/>
        </g>
        <path id="path1514" d="M357.405,81.624C356.2,87.487 354.498,92.554 355.7,102.269C368.838,127.269 395.945,133.538 431.272,128.785C449.2,123.504 468.23,120.663 479.381,100.375C482.813,91.559 481.289,86.873 482.032,80.298" style="fill:none;fill-rule:nonzero;stroke:black;stroke-width:1.5px;"/>
        <ellipse id="path1516" cx="300.773" cy="95.545" rx="5.682" ry="2.936" style="fill:none;stroke:black;stroke-width:1.5px;stroke-linecap:round;stroke-linejoin:round;"/>
        <ellipse id="path1516-6" cx="378.807" cy="42.985" rx="5.682" ry="2.936" style="fill:none;stroke:black;stroke-width:1.5px;stroke-linecap:round;stroke-linejoin:round;"/>
        <ellipse id="path1516-6-7" cx="481.843" cy="156.059" rx="5.682" ry="2.936" style="fill:none;stroke:black;stroke-width:1.5px;stroke-linecap:round;stroke-linejoin:round;"/>
        <ellipse id="path1516-6-7-5" cx="554.574" cy="95.45" rx="5.682" ry="2.936" style="fill:none;stroke:black;stroke-width:1.5px;stroke-linecap:round;stroke-linejoin:round;"/>
        <ellipse id="path1516-6-7-5-3" cx="570.536" cy="223.408" rx="5.682" ry="2.936" style="fill:none;stroke:black;stroke-width:1.5px;stroke-linecap:round;stroke-linejoin:round;"/>
        <ellipse id="path1516-6-7-5-3-5" cx="499.286" cy="283.809" rx="5.682" ry="2.936" style="fill:none;stroke:black;stroke-width:1.5px;stroke-linecap:round;stroke-linejoin:round;"/>
        <path id="path1516-6-7-5-3-5-6" d="M284.598,202.839C281.46,202.839 279.452,201.324 279.452,199.702C279.452,198.081 281.46,196.967 284.598,196.967" style="fill:none;fill-rule:nonzero;stroke:black;stroke-width:1.5px;stroke-linecap:round;stroke-linejoin:round;"/>
        <path id="path1609" d="M85.714,489.925L72.589,467.693C65.577,461.04 60.633,464.039 55.714,467.158C37.099,485.95 34.332,502.383 49.286,516.175L128.839,563.854C134.152,565.729 137.651,568.813 153.214,563.854L170.625,556.354C180.105,553.219 175.982,544.133 174.643,536.265L155.625,512.425C149.196,506.561 142.768,508.228 136.339,513.765C122.849,521.548 113.687,515.387 106.607,502.515C106.173,496.987 108.559,493.222 113.839,491.265L155.625,474.122C169.934,475.116 183.883,477.309 196.071,485.372C205.043,488.539 200.596,490.294 196.339,492.068C200.285,503.269 201.632,515.12 210.804,525.015C215.672,528.89 219.373,536.271 226.875,532.247L243.482,524.479C248.811,513.933 246.686,508.355 241.339,504.925C220.256,492.079 198.659,480.943 175.446,475.193C138.262,459.997 165.373,465.789 168.214,466.622C169.498,466.622 187.726,479.214 185.893,477.604" style="fill:none;fill-rule:nonzero;stroke:black;stroke-width:1.5px;"/>
        <path id="path1611" d="M72.589,467.693C74.562,478.45 42.494,484.931 78.981,490.83C85.714,489.925 92.934,488.268 98.869,483.159L142.053,466.113C143.814,465.406 145.541,464.63 147.545,464.408C152.034,463.74 149.763,461.19 143.757,457.779C134.819,452.865 129.843,456.314 119.703,453.802" style="fill:none;fill-rule:nonzero;stroke:black;stroke-width:1.5px;"/>
        <path id="path1613" d="M122.923,473.689C118.799,471.363 114.864,465.443 110.991,458.347C106.963,452.377 109.536,441.872 119.703,453.802L125.622,472.411" style="fill:none;fill-rule:nonzero;stroke:black;stroke-width:1.5px;"/>
        <path id="path1615" d="M110.422,448.877C120.045,444.393 131.136,445.867 168.214,466.622" style="fill:none;fill-rule:nonzero;stroke:black;stroke-width:1.5px;"/>
        <path id="path1617" d="M77.545,526.622L89.196,533.184C92.379,533.661 93.724,532.562 94.42,530.908C98.331,522.765 100.953,513.333 102.723,503.05C91.453,483.77 80.315,494.58 77.946,497.158C75.04,501.591 74.524,505.342 74.062,509.077C74.029,516.597 75.848,521.525 77.545,526.622Z" style="fill:none;fill-rule:nonzero;stroke:black;stroke-width:1.5px;"/>
        <path id="path1619" d="M77.545,526.622C82.987,519.441 89.664,515.14 99.375,517.917" style="fill:none;fill-rule:nonzero;stroke:black;stroke-width:1.5px;"/>
        <path id="path1621" d="M204.241,515.238C198.071,511.669 167.354,508.487 160.58,518.72" style="fill:none;fill-rule:nonzero;stroke:black;stroke-width:1.5px;"/>
        <g transform="matrix(0.866025,-0.5,0.871117,1.50882,-212.674,-83.678)">
            <rect x="152.096" y="271.29" width="3.722" height="55.462"/>
        </g>
        <g transform="matrix(0.866025,-0.5,0.871117,1.50882,-191.023,-100.783)">
            <rect x="152.096" y="271.29" width="3.722" height="55.462"/>
        </g>
    </g>
</svg>
