<?xml version="1.0" encoding="UTF-8" standalone="no"?>
<svg
   xmlns:dc="http://purl.org/dc/elements/1.1/"
   xmlns:cc="http://creativecommons.org/ns#"
   xmlns:rdf="http://www.w3.org/1999/02/22-rdf-syntax-ns#"
   xmlns:svg="http://www.w3.org/2000/svg"
   xmlns="http://www.w3.org/2000/svg"
   id="svg915"
   version="1.1"
   viewBox="0 0 198.14311 186.8912"
   height="186.8912mm"
   width="198.14311mm">
  <defs
     id="defs909" />
  <metadata
     id="metadata912">
    <rdf:RDF>
      <cc:Work
         rdf:about="">
        <dc:format>image/svg+xml</dc:format>
        <dc:type
           rdf:resource="http://purl.org/dc/dcmitype/StillImage" />
        <dc:title></dc:title>
      </cc:Work>
    </rdf:RDF>
  </metadata>
  <g
     transform="translate(-10.452947,-13.234808)"
     id="layer1">
    <path
       id="path1471"
       d="M 145.28218,16.829012 136.842,14.362474 c -2.0059,-0.881238 -4.05692,-1.446683 -6.41447,0.133635 l -26.99422,17.773424 c -1.69179,1.024533 -2.08422,2.049065 0.13363,3.073598 l 64.81286,21.782468 c 2.77014,0.969791 4.84473,0.316628 6.5481,-1.202713 l 23.38609,-20.312483 c 3.11542,-2.660707 -0.67833,-3.162301 -2.93997,-4.142679 l -26.46461,-7.73395"
       style="fill:none;stroke:#000000;stroke-width:0.5291667;stroke-linecap:butt;stroke-linejoin:miter;stroke-miterlimit:4;stroke-dasharray:none;stroke-opacity:1" />
    <path
       id="path1473"
       d="m 199.42968,33.692335 -0.14173,38.837055 c -0.15857,0.886557 0.28546,1.396484 1.13392,1.653645 l 6.80357,2.882067 c 1.58663,0.888886 1.28366,1.867752 0.23624,2.882069 l -28.77344,23.859749 c -1.36039,0.7879 -3.09701,1.03836 -5.33891,0.56696 l -9.87463,-2.4096 c 2.52335,-0.43569 5.04596,-0.87576 7.32329,-2.787571 l 27.92299,-23.529017 c 0.7797,-0.903371 0.47445,-1.341766 0.42522,-1.889882"
       style="fill:none;stroke:#000000;stroke-width:0.5291667;stroke-linecap:butt;stroke-linejoin:miter;stroke-miterlimit:4;stroke-dasharray:none;stroke-opacity:1" />
    <path
       id="path1475"
       d="m 208.31213,78.553383 -0.42523,2.811198 c -0.0543,0.525504 -0.29357,0.927713 -0.61421,1.27567 l -29.3404,24.426709 c -1.3827,1.16613 -3.43656,1.29971 -5.97675,0.68509 l -8.50446,-2.17337 -4.11049,-1.70089 -50.97954,-20.90681"
       style="fill:none;stroke:#000000;stroke-width:0.5291667;stroke-linecap:butt;stroke-linejoin:miter;stroke-miterlimit:4;stroke-dasharray:none;stroke-opacity:1" />
    <path
       id="path1477"
       d="m 101.96332,33.973375 -1.67043,41.159507"
       style="fill:none;stroke:#000000;stroke-width:0.5291667;stroke-linecap:butt;stroke-linejoin:miter;stroke-miterlimit:4;stroke-dasharray:none;stroke-opacity:1" />
    <path
       id="path1479"
       d="m 101.56242,42.876792 c 0.57157,1.151886 1.46694,1.494285 2.38872,1.770661 l 62.69141,21.431673 c 3.14042,1.238457 6.28083,0.851137 9.42125,-2.004521 l 23.25245,-19.978396"
       style="fill:none;stroke:#000000;stroke-width:0.5291667;stroke-linecap:butt;stroke-linejoin:miter;stroke-miterlimit:4;stroke-dasharray:none;stroke-opacity:1" />
    <path
       id="path1481"
       d="m 100.42652,65.811857 -5.345386,3.875407 c -1.545712,1.230902 -0.447662,2.839385 0.534537,3.608139 l 3.34087,2.204974"
       style="fill:none;stroke:#000000;stroke-width:0.5291667;stroke-linecap:butt;stroke-linejoin:miter;stroke-miterlimit:4;stroke-dasharray:none;stroke-opacity:1" />
    <path
       id="path1483"
       d="m 94.279325,71.107135 c 0.0013,1.192929 -0.02444,2.358723 0.01669,3.591433 l 3.090301,2.171565"
       style="fill:none;stroke:#000000;stroke-width:0.5291667;stroke-linecap:butt;stroke-linejoin:miter;stroke-miterlimit:4;stroke-dasharray:none;stroke-opacity:1" />
    <path
       id="path1485"
       d="m 108.66815,67.28497 5.90588,-4.29948 c 1.86085,0.123942 3.68942,0.300363 5.05543,1.228421 1.28959,1.573306 2.507,3.172389 2.92932,5.055434 -0.1283,1.349901 -0.78897,2.761601 -1.46466,3.77976 l -5.05543,4.157739 0.85045,-3.449034 -3.26005,-5.291666 z"
       style="fill:none;stroke:#000000;stroke-width:0.5291667;stroke-linecap:butt;stroke-linejoin:miter;stroke-miterlimit:4;stroke-dasharray:none;stroke-opacity:1" />
    <path
       id="path1487"
       d="M 43.36448,167.10701 C 22.394262,160.32697 18.657485,143.08666 22.797145,129.37265 29.669878,106.60442 65.376892,108.09437 85.902956,96.081578 96.135284,90.09315 105.13763,85.88144 115.77883,76.781621 c 0.19745,-7.120889 -3.81545,-8.210074 -7.01619,-9.000557 -7.52123,7.371829 -15.260417,11.622498 -23.434516,16.607329 -22.279297,13.58664 -54.741492,14.530692 -69.485549,36.061527 -5.520734,8.06196 -6.5711451,19.97495 -3.183155,29.13985 1.759924,4.76079 4.778886,9.89617 8.288329,14.21564 m 6.367671,4.0862 c 1.872188,0.48637 5.275524,2.98056 7.563254,2.55627"
       style="fill:none;stroke:#000000;stroke-width:0.5291667;stroke-linecap:butt;stroke-linejoin:miter;stroke-miterlimit:4;stroke-dasharray:none;stroke-opacity:1" />
    <path
       id="path1489"
       d="m 113.62909,68.466144 6.00037,-4.252233"
       style="fill:none;stroke:#000000;stroke-width:0.5291667;stroke-linecap:butt;stroke-linejoin:miter;stroke-miterlimit:4;stroke-dasharray:none;stroke-opacity:1" />
    <path
       id="path1491"
       d="m 116.88914,73.75781 5.66964,-4.488465"
       style="fill:none;stroke:#000000;stroke-width:0.5291667;stroke-linecap:butt;stroke-linejoin:miter;stroke-miterlimit:4;stroke-dasharray:none;stroke-opacity:1" />
    <path
       id="path1493"
       d="m 108.49393,67.355841 -0.10039,0.770717"
       style="fill:none;stroke:#000000;stroke-width:0.5291667;stroke-linecap:butt;stroke-linejoin:miter;stroke-miterlimit:4;stroke-dasharray:none;stroke-opacity:1" />
    <path
       id="path1495"
       d="m 115.99735,77.333818 -0.21852,-0.552199"
       style="fill:none;stroke:#000000;stroke-width:0.5291667;stroke-linecap:butt;stroke-linejoin:miter;stroke-miterlimit:4;stroke-dasharray:none;stroke-opacity:1" />
    <ellipse
       transform="rotate(-4.7328728)"
       ry="12.139873"
       rx="21.928617"
       cy="40.977757"
       cx="145.14775"
       id="path1497"
       style="opacity:1;fill:none;fill-opacity:1;stroke:#000000;stroke-width:0.5291667;stroke-linecap:round;stroke-linejoin:round;stroke-miterlimit:4;stroke-dasharray:none;stroke-dashoffset:0;stroke-opacity:1" />
    <ellipse
       transform="matrix(0.99661126,-0.0822557,0.08276568,0.99656904,0,0)"
       ry="9.4652987"
       rx="17.150011"
       cy="39.442387"
       cx="145.26169"
       id="path1497-3"
       style="opacity:1;fill:none;fill-opacity:1;stroke:#000000;stroke-width:0.5291667;stroke-linecap:round;stroke-linejoin:round;stroke-miterlimit:4;stroke-dasharray:none;stroke-dashoffset:0;stroke-opacity:1" />
    <path
       id="path1514"
       d="m 126.0844,28.795027 c -0.42501,2.068404 -1.02547,3.856098 -0.60136,7.283096 4.63488,8.819469 14.1976,11.031152 26.66014,9.354433 6.3246,-1.863071 13.03797,-2.86528 16.97161,-10.022607 1.21075,-3.109992 0.67316,-4.763034 0.93545,-7.082642"
       style="fill:none;stroke:#000000;stroke-width:0.5291667;stroke-linecap:butt;stroke-linejoin:miter;stroke-miterlimit:4;stroke-dasharray:none;stroke-opacity:1" />
    <ellipse
       ry="1.0356694"
       rx="2.0045214"
       cy="33.706104"
       cx="106.106"
       id="path1516"
       style="opacity:1;fill:none;fill-opacity:1;stroke:#000000;stroke-width:0.5291667;stroke-linecap:round;stroke-linejoin:round;stroke-miterlimit:4;stroke-dasharray:none;stroke-dashoffset:0;stroke-opacity:1" />
    <ellipse
       ry="1.0356694"
       rx="2.0045214"
       cy="15.164285"
       cx="133.63477"
       id="path1516-6"
       style="opacity:1;fill:none;fill-opacity:1;stroke:#000000;stroke-width:0.5291667;stroke-linecap:round;stroke-linejoin:round;stroke-miterlimit:4;stroke-dasharray:none;stroke-dashoffset:0;stroke-opacity:1" />
    <ellipse
       ry="1.0356694"
       rx="2.0045214"
       cy="55.05426"
       cx="169.98341"
       id="path1516-6-7"
       style="opacity:1;fill:none;fill-opacity:1;stroke:#000000;stroke-width:0.5291667;stroke-linecap:round;stroke-linejoin:round;stroke-miterlimit:4;stroke-dasharray:none;stroke-dashoffset:0;stroke-opacity:1" />
    <ellipse
       ry="1.0356694"
       rx="2.0045214"
       cy="33.672699"
       cx="195.6413"
       id="path1516-6-7-5"
       style="opacity:1;fill:none;fill-opacity:1;stroke:#000000;stroke-width:0.5291667;stroke-linecap:round;stroke-linejoin:round;stroke-miterlimit:4;stroke-dasharray:none;stroke-dashoffset:0;stroke-opacity:1" />
    <ellipse
       ry="1.0356694"
       rx="2.0045214"
       cy="78.81324"
       cx="201.27232"
       id="path1516-6-7-5-3"
       style="opacity:1;fill:none;fill-opacity:1;stroke:#000000;stroke-width:0.5291667;stroke-linecap:round;stroke-linejoin:round;stroke-miterlimit:4;stroke-dasharray:none;stroke-dashoffset:0;stroke-opacity:1" />
    <ellipse
       ry="1.0356694"
       rx="2.0045214"
       cy="100.12165"
       cx="176.1369"
       id="path1516-6-7-5-3-5"
       style="opacity:1;fill:none;fill-opacity:1;stroke:#000000;stroke-width:0.5291667;stroke-linecap:round;stroke-linejoin:round;stroke-miterlimit:4;stroke-dasharray:none;stroke-dashoffset:0;stroke-opacity:1" />
    <path
       id="path1516-6-7-5-3-5-6"
       d="m 100.39992,71.557064 c -1.107064,-10e-7 -1.815529,-0.534557 -1.815528,-1.106541 0,-0.571984 0.708465,-0.964797 1.815528,-0.964798"
       style="opacity:1;fill:none;fill-opacity:1;stroke:#000000;stroke-width:0.5291667;stroke-linecap:round;stroke-linejoin:round;stroke-miterlimit:4;stroke-dasharray:none;stroke-dashoffset:0;stroke-opacity:1" />
    <path
       id="path1609"
       d="m 30.238094,172.83482 -4.630207,-7.84301 c -2.47383,-2.34712 -4.218017,-1.28923 -5.953125,-0.18898 -6.566968,6.62961 -7.543301,12.42657 -2.267857,17.29241 l 28.06473,16.81994 c 1.874181,0.66143 3.108465,1.74945 8.598958,0 l 6.142115,-2.64584 c 3.344279,-1.10593 1.889831,-4.31131 1.41741,-7.08705 l -6.709077,-8.40997 c -2.267858,-2.0688 -4.535715,-1.48076 -6.803573,0.47247 -4.75894,2.74566 -7.991238,0.57213 -10.488837,-3.96875 -0.153253,-1.95023 0.688725,-3.27844 2.551338,-3.96875 l 14.741072,-6.04762 c 5.047854,0.35074 9.968829,1.12441 14.268601,3.96875 3.164853,1.11728 1.59601,1.73627 0.09449,2.36235 1.392119,3.95145 1.867047,8.1322 5.10268,11.62277 1.71763,1.3672 3.023022,3.97111 5.669642,2.55134 l 5.858632,-2.74033 c 1.879733,-3.7205 1.13011,-5.68809 -0.755954,-6.89806 -7.437775,-4.53207 -15.056611,-8.4606 -23.245535,-10.48884 -13.117981,-5.36093 -3.553682,-3.31778 -2.55134,-3.02381 0.452738,0 6.883328,4.4422 6.236607,3.87425"
       style="fill:none;stroke:#000000;stroke-width:0.5291667;stroke-linecap:butt;stroke-linejoin:miter;stroke-miterlimit:4;stroke-dasharray:none;stroke-opacity:1" />
    <path
       id="path1611"
       d="m 25.607887,164.99181 c 0.695871,3.79467 -10.616925,6.08102 2.25496,8.16217 2.375247,-0.31916 4.922191,-0.90405 7.015827,-2.7061 l 15.234361,-6.01357 c 0.621493,-0.24927 1.230629,-0.52325 1.937705,-0.60135 1.583512,-0.23565 0.782243,-1.13535 -1.336347,-2.33861 -3.15339,-1.73358 -4.908742,-0.51694 -8.485808,-1.40317"
       style="fill:none;stroke:#000000;stroke-width:0.5291667;stroke-linecap:butt;stroke-linejoin:miter;stroke-miterlimit:4;stroke-dasharray:none;stroke-opacity:1" />
    <path
       id="path1613"
       d="m 43.36448,167.10701 c -1.45492,-0.82071 -2.843121,-2.90909 -4.209494,-5.41221 -1.420812,-2.10641 -0.512964,-5.81203 3.073599,-1.60362 l 2.088044,6.56481"
       style="fill:none;stroke:#000000;stroke-width:0.5291667;stroke-linecap:butt;stroke-linejoin:miter;stroke-miterlimit:4;stroke-dasharray:none;stroke-opacity:1" />
    <path
       id="path1615"
       d="m 38.954532,158.35393 c 3.394518,-1.58207 7.307369,-1.0619 20.387725,6.25991"
       style="fill:none;stroke:#000000;stroke-width:0.5291667;stroke-linecap:butt;stroke-linejoin:miter;stroke-miterlimit:4;stroke-dasharray:none;stroke-opacity:1" />
    <path
       id="path1617"
       d="m 27.356027,185.7805 4.11049,2.31511 c 1.122713,0.16812 1.5971,-0.21946 1.842635,-0.8032 1.379875,-2.87236 2.304657,-6.19981 2.929316,-9.82738 -3.975963,-6.80173 -7.905262,-2.98805 -8.740701,-2.07887 -1.025493,1.56417 -1.207299,2.88728 -1.370163,4.20498 -0.01171,2.65278 0.62971,4.39117 1.228423,6.18936 z"
       style="fill:none;stroke:#000000;stroke-width:0.5291667;stroke-linecap:butt;stroke-linejoin:miter;stroke-miterlimit:4;stroke-dasharray:none;stroke-opacity:1" />
    <path
       id="path1619"
       d="m 27.356027,185.7805 c 1.920091,-2.53334 4.275597,-4.05072 7.701264,-3.07105"
       style="fill:none;stroke:#000000;stroke-width:0.5291667;stroke-linecap:butt;stroke-linejoin:miter;stroke-miterlimit:4;stroke-dasharray:none;stroke-opacity:1" />
    <path
       id="path1621"
       d="m 72.051711,181.76451 c -2.176616,-1.2589 -13.013069,-2.38147 -15.402531,1.22842"
       style="fill:none;stroke:#000000;stroke-width:0.5291667;stroke-linecap:butt;stroke-linejoin:miter;stroke-miterlimit:4;stroke-dasharray:none;stroke-opacity:1" />
  </g>
</svg>
