<?xml version="1.0" encoding="UTF-8" standalone="no"?>
<svg
   xmlns:dc="http://purl.org/dc/elements/1.1/"
   xmlns:cc="http://creativecommons.org/ns#"
   xmlns:rdf="http://www.w3.org/1999/02/22-rdf-syntax-ns#"
   xmlns:svg="http://www.w3.org/2000/svg"
   xmlns="http://www.w3.org/2000/svg"
   xmlns:sodipodi="http://sodipodi.sourceforge.net/DTD/sodipodi-0.dtd"
   xmlns:inkscape="http://www.inkscape.org/namespaces/inkscape"
   width="267.79477"
   height="406.31332"
   viewBox="0 0 267.79477 406.31332"
   version="1.1"
   xml:space="preserve"
   style="clip-rule:evenodd;fill-rule:evenodd;stroke-linecap:round;stroke-linejoin:round;stroke-miterlimit:1.5"
   id="svg442"
   sodipodi:docname="waterrope.svg"
   inkscape:version="0.92.5 (0.92.5+69)"><metadata
   id="metadata448"><rdf:RDF><cc:Work
       rdf:about=""><dc:format>image/svg+xml</dc:format><dc:type
         rdf:resource="http://purl.org/dc/dcmitype/StillImage" /><dc:title></dc:title></cc:Work></rdf:RDF></metadata><defs
   id="defs446" /><sodipodi:namedview
   pagecolor="#ffffff"
   bordercolor="#666666"
   borderopacity="1"
   objecttolerance="10"
   gridtolerance="10"
   guidetolerance="10"
   inkscape:pageopacity="0"
   inkscape:pageshadow="2"
   inkscape:window-width="1882"
   inkscape:window-height="1016"
   id="namedview444"
   showgrid="false"
   inkscape:zoom="1.4066667"
   inkscape:cx="125.62571"
   inkscape:cy="202.08156"
   inkscape:window-x="38"
   inkscape:window-y="27"
   inkscape:window-maximized="1"
   inkscape:current-layer="layer2" />
    
    
    
    
<g
   inkscape:groupmode="layer"
   id="layer1"
   inkscape:label="Layer 1"
   style="display:inline"
   transform="translate(-16.511998,-29.608763)" /><g
   inkscape:groupmode="layer"
   id="layer2"
   inkscape:label="Layer 2"
   transform="translate(-16.511998,-29.608763)"><g
     id="g1423"><g
       id="g1359"
       style="clip-rule:evenodd;fill-rule:evenodd;stroke-linecap:round;stroke-linejoin:round;stroke-miterlimit:1.5"><g
         transform="translate(-1,170)"
         id="g430">
        <g
   transform="translate(10,-149.934)"
   id="g388">
            <path
   d="m 20.056,20.597 -1.437,0.476 -7.317,-7.698 c -1.456,-1.791 1.565,-3.827 2.664,-2.813 l 8.293,6.166 v 1.7 z"
   style="fill:none;stroke:#000000;stroke-width:1.5px"
   id="path386"
   inkscape:connector-curvature="0" />
        </g>
        <g
   transform="translate(10,-149.934)"
   id="g392">
            <path
   d="M 76.91,86.468 C 59.717,62.907 41.558,40.164 22.224,18.418 l -1.96,2.014 C 39.39,41.631 57.312,63.944 74.065,87.339 Z"
   style="fill:none;stroke:#000000;stroke-width:1.5px"
   id="path390"
   inkscape:connector-curvature="0" />
        </g>
        <g
   transform="matrix(0.779826,-0.0750987,0.0750987,0.779826,85.2749,-180.402)"
   id="g396">
            <ellipse
   cx="60.798"
   cy="142.42101"
   rx="5.7750001"
   ry="2.7809999"
   style="fill:none;stroke:#000000;stroke-width:1.90999997px"
   id="ellipse394" />
        </g>
        <g
   transform="matrix(0.779826,-0.0750987,0.0750987,0.779826,122.453,-144.952)"
   id="g400">
            <ellipse
   cx="60.798"
   cy="142.42101"
   rx="5.7750001"
   ry="2.7809999"
   style="fill:none;stroke:#000000;stroke-width:1.90999997px"
   id="ellipse398" />
        </g>
        <g
   transform="matrix(0.779826,-0.0750987,0.0750987,0.779826,11.5992,-112.597)"
   id="g404">
            <ellipse
   cx="60.798"
   cy="142.42101"
   rx="5.7750001"
   ry="2.7809999"
   style="fill:none;stroke:#000000;stroke-width:1.90999997px"
   id="ellipse402" />
        </g>
        <g
   transform="matrix(0.779826,-0.0750987,0.0750987,0.779826,-18.8237,-150.121)"
   id="g408">
            <ellipse
   cx="60.798"
   cy="142.42101"
   rx="5.7750001"
   ry="2.7809999"
   style="fill:none;stroke:#000000;stroke-width:1.90999997px"
   id="ellipse406" />
        </g>
        <g
   transform="translate(10,-149.934)"
   id="g412">
            <path
   d="m 30.991,116.884 14.137,-18.463 68.241,-19.836 34.279,3.462 18.096,16.374 -9.782,18.463 -73.715,22.393 -35.367,-4.599 z"
   style="fill:none;stroke:#000000;stroke-width:1.5px"
   id="path410"
   inkscape:connector-curvature="0" />
        </g>
        <g
   transform="translate(10,-149.934)"
   id="g416">
            <path
   d="m 21,142 -3,-31 c -0.226,-4.736 2.522,-7.455 7,-9 L 128,72 c 6.178,-1.353 11.367,-0.691 15,2 l 39,34 c 1.347,1.191 2.052,2.517 2,4 v 6 l 8,7 c 0.888,1.042 1.045,2.546 0,5 l -9,19 c -1.143,1.788 -2.882,3.058 -5,4 L 70,189 c -2.706,0.901 -7.305,0.625 -11,0 l -31,-5 c -2.149,-0.491 -4.237,-1.178 -6,-3 L 9,162 c -1.049,-1.674 -0.985,-3.298 0,-4.882 z"
   style="fill:none;stroke:#000000;stroke-width:1.5px"
   id="path414"
   inkscape:connector-curvature="0" />
        </g>
        <g
   transform="translate(10,-149.934)"
   id="g420">
            <path
   d="M 21.172,142.226 56,188"
   style="fill:none;stroke:#000000;stroke-width:1.5px;stroke-linecap:square"
   id="path418"
   inkscape:connector-curvature="0" />
        </g>
        <g
   transform="translate(10,-149.934)"
   id="g424">
            <path
   d="m 184,118 1.283,26.18"
   style="fill:none;stroke:#000000;stroke-width:1.5px"
   id="path422"
   inkscape:connector-curvature="0" />
        </g>
        <g
   transform="translate(10,-149.934)"
   id="g428">
            <path
   d="m 18,113 29,36 c 3.165,4.037 12.605,4.783 19,3 l 113,-35 c 2.785,-0.905 4.36,-2.933 5,-6"
   style="fill:none;stroke:#000000;stroke-width:1.5px;stroke-linecap:butt"
   id="path426"
   inkscape:connector-curvature="0" />
        </g>
    </g><g
         transform="matrix(0.633041,-0.060963,0.129868,1.34855,73.8904,-10.9552)"
         id="g434">
        <ellipse
   cx="60.798"
   cy="142.42101"
   rx="5.7750001"
   ry="2.7809999"
   style="fill:none;stroke:#000000;stroke-width:1.90999997px"
   id="ellipse432" />
    </g><path
         d="m 130.874,177.401 c 23.042,6.2 44.374,10.84 60.126,27.599 32.45,34.524 -23,55.667 -39,63 -16,7.333 -52.804,-2.299 -57,-19 -9.667,-38.472 89,-67.832 113,-67.832 24,0 35.667,12.221 46,34.832"
         style="fill:none;stroke:#000000;stroke-width:3.32999992px"
         id="path436"
         inkscape:connector-curvature="0" /></g><g
       transform="matrix(-0.59766772,0.39751018,-0.39751018,-0.59766772,506.40076,300.78363)"
       id="g1331"><path
         style="clip-rule:evenodd;display:inline;fill:none;fill-rule:evenodd;stroke:#000000;stroke-width:1px;stroke-linecap:butt;stroke-linejoin:miter;stroke-miterlimit:1.5;stroke-opacity:1"
         d="m 219.66825,287.91469 16.70616,6.39811 20.26066,-37.32228 c 1.8933,-2.35749 3.16628,-1.61339 4.62085,-1.77725 2.85853,0.3853 4.20098,-2.26156 5.68721,-4.62085 l 6.3981,-13.50711 c 0.43847,-3.4598 -5.01151,-4.9411 -8.5308,-6.39811 l -23.54858,-7.55331 -7.37559,16.43957 c -0.55304,2.09192 1.33078,3.65431 2.28028,5.01741 1.44172,2.06974 0.91168,4.59345 -0.14758,7.42335 z"
         id="path462"
         inkscape:connector-curvature="0"
         sodipodi:nodetypes="cccccccccscc" /><path
         style="clip-rule:evenodd;display:inline;fill:none;fill-rule:evenodd;stroke:#000000;stroke-width:1px;stroke-linecap:butt;stroke-linejoin:miter;stroke-miterlimit:1.5;stroke-opacity:1"
         d="m 309.21233,131.12138 c -3.84891,-4.87659 -9.20549,-6.0525 -14.87885,-6.4509 l -14.25706,29.16145 c -1.40752,2.51932 -2.25481,4.94173 -3.70593,5.13369 -2.86545,-0.32995 -5.97869,1.02282 -7.41903,3.41041 l -8.2093,17.9011 c -0.37149,3.46763 4.10075,4.08925 7.64755,5.47795 l 23.69022,7.09657 6.428,-20.22355 c 0.51249,-2.10223 -0.89851,-4.69609 -1.87418,-6.04059 -1.48148,-2.04147 -0.30914,-4.26078 0.69519,-7.11063 z"
         id="path462-3"
         inkscape:connector-curvature="0"
         sodipodi:nodetypes="cccccccccscc" /><path
         style="clip-rule:evenodd;display:inline;fill:none;fill-rule:evenodd;stroke:#000000;stroke-width:0.65917009px;stroke-linecap:butt;stroke-linejoin:miter;stroke-miterlimit:1.5;stroke-opacity:1"
         d="m 375.15359,212.47622 c 3.29976,-2.10154 4.10247,-5.45645 4.38056,-9.07474 l -19.673,-11.40527 c -1.6993,-1.0984 -3.33405,-1.82907 -3.4614,-2.77707 0.22737,-1.81761 -0.68133,-3.92361 -2.29161,-5.03303 l -12.07736,-6.65231 c -2.34144,-0.50478 -2.76839,2.32388 -3.71194,4.49852 l -4.83065,14.69229 13.64877,5.68472 c 1.41902,0.49081 3.17317,-0.21783 4.08279,-0.74224 1.38115,-0.79629 2.87823,0.12784 4.80142,0.99228 z"
         id="path462-3-6"
         inkscape:connector-curvature="0"
         sodipodi:nodetypes="cccccccccscc" /><path
         style="clip-rule:evenodd;fill:none;fill-rule:evenodd;stroke:#000000;stroke-width:1px;stroke-linecap:butt;stroke-linejoin:miter;stroke-miterlimit:1.5;stroke-opacity:1"
         d="m 243.80103,222.33555 6.28354,-13.32109 -2.26207,-21.86669 7.54023,-5.02683 4.02146,3.77012 -3.77012,6.03219 0.75403,5.27817 24.63144,4.02146 4.02146,2.76475 -2.51341,3.26744 4.2728,-1.75939 4.77549,-9.55097 3.77012,11.81304 -17.84523,14.5778 -5.02683,10.80767 z"
         id="path464"
         inkscape:connector-curvature="0" /><path
         style="clip-rule:evenodd;fill:none;fill-rule:evenodd;stroke:#000000;stroke-width:1px;stroke-linecap:butt;stroke-linejoin:miter;stroke-miterlimit:1.5;stroke-opacity:1"
         d="m 256.3681,197.20142 5.02682,-14.07511 28.15023,10.55633 -4.52415,10.30499"
         id="path466"
         inkscape:connector-curvature="0" /><path
         style="clip-rule:evenodd;fill:none;fill-rule:evenodd;stroke:#000000;stroke-width:1px;stroke-linecap:butt;stroke-linejoin:miter;stroke-miterlimit:1.5;stroke-opacity:1"
         d="M 280.99954,201.22288 269.1865,231.38383"
         id="path483"
         inkscape:connector-curvature="0" /><path
         style="fill:none;stroke:#000000;stroke-width:9.10000038;stroke-linecap:butt;stroke-linejoin:miter;stroke-miterlimit:1.5;stroke-dasharray:0.91000004, 0.91000004;stroke-dashoffset:0;stroke-opacity:1"
         d="m 302.36355,125.8205 c 13.22266,-32.700721 85.52069,-76.515448 145.5266,-47.754844 39.19237,18.784752 77.39067,86.480384 59.0652,127.430024 -18.32547,40.94964 -87.14562,47.8859 -123.15723,37.44985 -36.01161,-10.43605 -64.33997,-41.73991 -68.8675,-72.63763 -4.52753,-30.89772 11.61579,-67.33805 43.23069,-83.4453 31.6149,-16.107255 93.9748,-4.280818 119.13577,25.13413 25.16097,29.41495 28.74594,83.34791 5.78085,110.33882 -22.96509,26.99091 -105.06066,-14.07512 -105.06066,-14.07512"
         id="path494"
         inkscape:connector-curvature="0"
         sodipodi:nodetypes="csssssssc" /></g></g></g></svg>