<?xml version="1.0" encoding="UTF-8" standalone="no"?>
<svg
   xmlns:dc="http://purl.org/dc/elements/1.1/"
   xmlns:cc="http://creativecommons.org/ns#"
   xmlns:rdf="http://www.w3.org/1999/02/22-rdf-syntax-ns#"
   xmlns:svg="http://www.w3.org/2000/svg"
   xmlns="http://www.w3.org/2000/svg"
   id="svg8"
   version="1.1"
   viewBox="0 0 131.28073 154.64702"
   height="154.64702mm"
   width="131.28073mm">
  <defs
     id="defs2" />
  <metadata
     id="metadata5">
    <rdf:RDF>
      <cc:Work
         rdf:about="">
        <dc:format>image/svg+xml</dc:format>
        <dc:type
           rdf:resource="http://purl.org/dc/dcmitype/StillImage" />
        <dc:title></dc:title>
      </cc:Work>
    </rdf:RDF>
  </metadata>
  <g
     transform="translate(-31.250008,-20.063593)"
     id="layer1">
    <g
       id="g869">
      <path
         style="opacity:1;fill:none;fill-opacity:1;stroke:#000000;stroke-width:1;stroke-linecap:round;stroke-linejoin:round;stroke-miterlimit:4;stroke-dasharray:none;stroke-dashoffset:0;stroke-opacity:1"
         d="m 96.761909,107.25595 c 35.905091,0 65.011911,7.27671 65.011901,16.25298 -1e-5,8.97627 -29.10683,16.25297 -65.011901,16.25297 -35.905074,0 -65.01189,-7.2767 -65.011901,-16.25297 -1.1e-5,-8.81346 28.060516,-15.98845 63.065019,-16.24583"
         id="path815" />
      <path
         style="opacity:1;fill:none;fill-opacity:1;stroke:#000000;stroke-width:1;stroke-linecap:round;stroke-linejoin:round;stroke-miterlimit:4;stroke-dasharray:none;stroke-dashoffset:0;stroke-opacity:1"
         d="m 31.806483,123.94298 0.200452,31.34912 c -1.1e-5,8.97627 29.106812,16.25298 65.011902,16.25298 35.905093,0 65.011913,-7.27671 65.011903,-16.25298 l -0.26727,-31.88366"
         id="path815-3" />
      <path
         style="fill:none;stroke:#000000;stroke-width:1;stroke-linecap:butt;stroke-linejoin:miter;stroke-miterlimit:4;stroke-dasharray:none;stroke-opacity:1"
         d="M 94.88068,118.99849 C 95.795384,92.1548 97.180345,61.31114 119.73675,29.463203 l 1.33634,0.534538 C 103.68411,54.149028 96.059086,84.158688 96.484299,118.99849 Z"
         id="path836" />
      <path
         style="fill:none;stroke:#000000;stroke-width:1;stroke-linecap:butt;stroke-linejoin:miter;stroke-miterlimit:4;stroke-dasharray:none;stroke-opacity:1"
         d="m 119.73675,29.463203 v 0 l -1.26953,-0.601358 5.67947,-8.15172 3.20724,1.670435 -5.0113,8.619441 -1.26954,-1.00226"
         id="path838" />
      <path
         transform="rotate(7.1389171)"
         style="opacity:1;fill:none;fill-opacity:1;stroke:#000000;stroke-width:1;stroke-linecap:round;stroke-linejoin:round;stroke-miterlimit:4;stroke-dasharray:none;stroke-dashoffset:0;stroke-opacity:1"
         d="m 89.515089,160.03842 c -1.848693,3.05052 -7.181073,5.25499 -13.470953,5.25499 -7.823277,0 -14.165294,-3.41033 -14.165285,-7.61719"
         id="path841" />
      <path
         style="opacity:1;fill:none;fill-opacity:1;stroke:#000000;stroke-width:0.99999994;stroke-linecap:round;stroke-linejoin:round;stroke-miterlimit:4;stroke-dasharray:none;stroke-dashoffset:0;stroke-opacity:1"
         d="m 123.25008,170.46105 c 2.21346,2.79713 7.77847,4.32182 14.01959,3.54015 7.76263,-0.97224 13.63166,-5.14429 13.10884,-9.31854"
         id="path841-6" />
      <path
         style="opacity:1;fill:none;fill-opacity:1;stroke:#000000;stroke-width:1;stroke-linecap:round;stroke-linejoin:round;stroke-miterlimit:4;stroke-dasharray:none;stroke-dashoffset:0;stroke-opacity:1"
         d="m 96.707522,116.85853 c 1.715365,0.20861 2.983693,0.94938 2.983694,1.83121 -10e-7,1.04375 -1.776871,1.88988 -3.96875,1.88988 -2.191879,0 -3.968749,-0.84613 -3.96875,-1.88988 10e-7,-0.85573 1.194355,-1.57862 2.832567,-1.8113"
         id="path859" />
    </g>
  </g>
</svg>
