<?xml version="1.0" encoding="UTF-8" standalone="no"?>
<svg
   xmlns:dc="http://purl.org/dc/elements/1.1/"
   xmlns:cc="http://creativecommons.org/ns#"
   xmlns:rdf="http://www.w3.org/1999/02/22-rdf-syntax-ns#"
   xmlns:svg="http://www.w3.org/2000/svg"
   xmlns="http://www.w3.org/2000/svg"
   id="svg62"
   style="fill-rule:evenodd;clip-rule:evenodd;stroke-linecap:round;stroke-linejoin:round;stroke-miterlimit:1.5;"
   xml:space="preserve"
   version="1.1"
   viewBox="0 0 300 300"
   height="100%"
   width="100%"><metadata
   id="metadata68"><rdf:RDF><cc:Work
       rdf:about=""><dc:format>image/svg+xml</dc:format><dc:type
         rdf:resource="http://purl.org/dc/dcmitype/StillImage" /><dc:title></dc:title></cc:Work></rdf:RDF></metadata><defs
   id="defs66" />
    <g
   id="g46"
   transform="matrix(1,0,0,1,-1,170)">
        <g
   id="g4"
   transform="matrix(1,0,0,1,10,-149.934)">
            <path
   id="path2"
   style="fill:none;stroke:black;stroke-width:1.5px;"
   d="M20.056,20.597L18.619,21.073L11.302,13.375C9.846,11.584 12.867,9.548 13.966,10.562L22.259,16.728L22.259,18.428L20.056,20.597Z" />
        </g>
        <g
   id="g8"
   transform="matrix(1,0,0,1,10,-149.934)">
            <path
   id="path6"
   style="fill:none;stroke:black;stroke-width:1.5px;"
   d="M76.91,86.468C59.717,62.907 41.558,40.164 22.224,18.418L20.264,20.432C39.39,41.631 57.312,63.944 74.065,87.339L76.91,86.468Z" />
        </g>
        <g
   id="g12"
   transform="matrix(0.779826,-0.0750987,0.0750987,0.779826,85.2749,-180.402)">
            <ellipse
   id="ellipse10"
   style="fill:none;stroke:black;stroke-width:1.91px;"
   ry="2.781"
   rx="5.775"
   cy="142.421"
   cx="60.798" />
        </g>
        <g
   id="g16"
   transform="matrix(0.779826,-0.0750987,0.0750987,0.779826,122.453,-144.952)">
            <ellipse
   id="ellipse14"
   style="fill:none;stroke:black;stroke-width:1.91px;"
   ry="2.781"
   rx="5.775"
   cy="142.421"
   cx="60.798" />
        </g>
        <g
   id="g20"
   transform="matrix(0.779826,-0.0750987,0.0750987,0.779826,11.5992,-112.597)">
            <ellipse
   id="ellipse18"
   style="fill:none;stroke:black;stroke-width:1.91px;"
   ry="2.781"
   rx="5.775"
   cy="142.421"
   cx="60.798" />
        </g>
        <g
   id="g24"
   transform="matrix(0.779826,-0.0750987,0.0750987,0.779826,-18.8237,-150.121)">
            <ellipse
   id="ellipse22"
   style="fill:none;stroke:black;stroke-width:1.91px;"
   ry="2.781"
   rx="5.775"
   cy="142.421"
   cx="60.798" />
        </g>
        <g
   id="g28"
   transform="matrix(1,0,0,1,10,-149.934)">
            <path
   id="path26"
   style="fill:none;stroke:black;stroke-width:1.5px;"
   d="M30.991,116.884L45.128,98.421L113.369,78.585L147.648,82.047L165.744,98.421L155.962,116.884L82.247,139.277L46.88,134.678L30.991,116.884Z" />
        </g>
        <g
   id="g32"
   transform="matrix(1,0,0,1,10,-149.934)">
            <path
   id="path30"
   style="fill:none;stroke:black;stroke-width:1.5px;"
   d="M21,142L18,111C17.774,106.264 20.522,103.545 25,102L128,72C134.178,70.647 139.367,71.309 143,74L182,108C183.347,109.191 184.052,110.517 184,112L184,118L192,125C192.888,126.042 193.045,127.546 192,130L183,149C181.857,150.788 180.118,152.058 178,153L70,189C67.294,189.901 62.695,189.625 59,189L28,184C25.851,183.509 23.763,182.822 22,181L9,162C7.951,160.326 8.015,158.702 9,157.118L21,142Z" />
        </g>
        <g
   id="g36"
   transform="matrix(1,0,0,1,10,-149.934)">
            <path
   id="path34"
   style="fill:none;stroke:black;stroke-width:1.5px;stroke-linecap:square;"
   d="M21.172,142.226L56,188" />
        </g>
        <g
   id="g40"
   transform="matrix(1,0,0,1,10,-149.934)">
            <path
   id="path38"
   style="fill:none;stroke:black;stroke-width:1.5px;"
   d="M184,118L185.283,144.18" />
        </g>
        <g
   id="g44"
   transform="matrix(1,0,0,1,10,-149.934)">
            <path
   id="path42"
   style="fill:none;stroke:black;stroke-width:1.5px;stroke-linecap:butt;"
   d="M18,113L47,149C50.165,153.037 59.605,153.783 66,152L179,117C181.785,116.095 183.36,114.067 184,111" />
        </g>
    </g>
    <g
   id="g50"
   transform="matrix(0.633041,-0.060963,0.129868,1.34855,73.8904,-10.9552)">
        <ellipse
   id="ellipse48"
   style="fill:none;stroke:black;stroke-width:1.91px;"
   ry="2.781"
   rx="5.775"
   cy="142.421"
   cx="60.798" />
    </g>
    <path
   id="path52"
   style="fill:none;stroke:#000000;stroke-width:3.32999992px"
   d="m 130.874,177.401 c 23.042,6.2 44.374,10.84 60.126,27.599 32.45,34.524 -23,55.667 -39,63 -16,7.333 -52.804,-2.299 -57,-19 -9.667,-38.472 89,-67.832 113,-67.832 24,0 78.13835,35.70384 38.13494,62.80916" />
    
    
<g
   style="stroke-width:1;stroke-miterlimit:1.5;stroke-dasharray:none"
   id="g938"><path
     style="fill:none;stroke:#000000;stroke-width:1.5;stroke-linecap:round;stroke-linejoin:miter;stroke-opacity:1;stroke-miterlimit:1.5;stroke-dasharray:none"
     d="m 197.66949,245.18008 22.40466,-11.91737 47.5106,21.76907 -25.74153,14.45975 z"
     id="path905" /><path
     style="fill:none;stroke:#000000;stroke-width:1.5;stroke-linecap:round;stroke-linejoin:miter;stroke-miterlimit:1.5;stroke-dasharray:none;stroke-opacity:1"
     d="m 241.84322,269.49153 2.06568,13.50635 11.12288,6.19704 16.20763,-9.5339 0.1589,5.08474 -16.36653,10.16949 -25.2468,-14.49115 m -9.53294,-5.10689 -17.65381,-10.49774 m -8.46134,-4.85663 -1.39325,-0.7997 -0.47669,-6.51483 6.35593,3.49576 -0.95339,-10.96399"
     id="path907" /><path
     style="fill:none;stroke:#000000;stroke-width:1.5;stroke-linecap:round;stroke-linejoin:miter;stroke-opacity:1;stroke-miterlimit:1.5;stroke-dasharray:none"
     d="m 267.58475,255.03178 2.38347,10.80508"
     id="path909" /><path
     style="fill:none;stroke:#000000;stroke-width:1.5;stroke-linecap:round;stroke-linejoin:miter;stroke-opacity:1;stroke-miterlimit:1.5;stroke-dasharray:none"
     d="m 245.97458,276.80085 20.97457,-12.23517 11.59958,5.40254 -21.84852,12.63242 -3.41631,-1.90678 6.99152,-4.21081 -4.76694,-2.93962 -7.62712,4.5286 -2.22458,-1.19173"
     id="path911" /><path
     style="fill:none;stroke:#000000;stroke-width:1.5;stroke-linecap:round;stroke-linejoin:miter;stroke-miterlimit:1.5;stroke-dasharray:none;stroke-opacity:1"
     d="m 245.65678,276.8803 0.4767,2.93962 1.58898,0.87394 0.1589,-2.62183"
     id="path913" /><path
     style="fill:none;stroke:#000000;stroke-width:1.5;stroke-linecap:round;stroke-linejoin:miter;stroke-opacity:1;stroke-miterlimit:1.5;stroke-dasharray:none"
     d="m 247.72246,280.69386 8.18326,-4.60805 2.30403,1.43008"
     id="path915" /><path
     style="fill:none;stroke:#000000;stroke-width:1.5;stroke-linecap:round;stroke-linejoin:miter;stroke-opacity:1;stroke-miterlimit:1.5;stroke-dasharray:none"
     d="m 253.2839,280.69386 -0.0794,2.30402 3.41631,1.90678 21.76907,-13.02966 0.1589,-1.90678"
     id="path917" /><path
     style="fill:none;stroke:#000000;stroke-width:1.5;stroke-linecap:round;stroke-linejoin:miter;stroke-opacity:1;stroke-miterlimit:1.5;stroke-dasharray:none"
     d="m 272.59004,275.37076 0.71505,5.40255 -1.74789,1.74788"
     id="path919" /><path
     style="fill:none;stroke:#000000;stroke-width:1;stroke-linecap:butt;stroke-linejoin:miter;stroke-opacity:1;stroke-miterlimit:1.5;stroke-dasharray:none"
     d="m 192.26695,252.64831 5.48199,-3.09852"
     id="path921" /><path
     style="fill:none;stroke:#000000;stroke-width:1.5;stroke-linecap:butt;stroke-linejoin:miter;stroke-opacity:1;stroke-miterlimit:1.5;stroke-dasharray:none"
     d="m 231.59428,269.41208 -18.51165,10.01059 c -2.9401,2.23243 -1.24974,8.88844 4.13135,7.94491 l 18.9089,-10.64618 c 0.34444,-3.19984 -1.272,-5.59226 -4.5286,-7.30932 z"
     id="path923" /><path
     style="fill:none;stroke:#000000;stroke-width:1.5;stroke-linecap:butt;stroke-linejoin:miter;stroke-opacity:1;stroke-miterlimit:1.5;stroke-dasharray:none"
     d="m 204.42267,254.71398 -17.95551,9.29555 c -3.16758,2.78892 -0.11525,8.75684 3.97246,7.22988 l 18.19386,-9.6928 c -0.37875,-2.90822 -1.11368,-5.59726 -4.21081,-6.83263 z"
     id="path925" /></g><path
   id="path940"
   d="m 256.70021,282.60064 -0.0794,2.30402"
   style="fill:none;stroke:#000000;stroke-width:1.5;stroke-linecap:butt;stroke-linejoin:miter;stroke-opacity:1;stroke-miterlimit:1.5;stroke-dasharray:none" /></svg>