<svg xmlns="http://www.w3.org/2000/svg" viewBox="0 0 1037.899 611.542" height="2311.339" width="3922.767"><g transform="translate(234.04 99.108)" stroke-linecap="round"><rect ry="19.243" y="76.235" x="154.482" height="260.855" width="260.855" fill="#fff" stroke="#000" stroke-width="5" stroke-opacity=".941"/><g transform="translate(39.183 42.39)"><circle cx="327.672" cy="246.219" r="32.607" fill="none" stroke="#00000e" stroke-width="5"/><circle cx="327.672" cy="246.219" r="20.847" fill="none" stroke="#000" stroke-width="5"/><g clip-rule="evenodd" fill-rule="evenodd" stroke-linejoin="round" stroke-miterlimit="1.5"><path d="M247.668-124.19a20.97 20.97 0 00-20.136 15.176c-.573-.059-1.15-.089-1.726-.09-9.378 0-16.981 7.603-16.981 16.982.008 8.87 6.84 16.239 15.684 16.916 15.698.105 32.096.07 46.319.011 8.847-.678 15.68-8.054 15.683-16.927 0-9.379-7.603-16.981-16.981-16.981-.572.006-1.144.04-1.712.105a20.97 20.97 0 00-20.15-15.192z" fill="none" stroke="#000" stroke-width="2.6458" stroke-linejoin="miter" stroke-miterlimit="4"/><text style="line-height:1.25;-inkscape-font-specification:'Open Sans'" x="269.659" y="212.437" font-weight="400" font-size="14.667" font-family="Open Sans" letter-spacing="0" word-spacing="0" transform="matrix(.26458 0 0 .26458 193.406 -148.962)"/><g font-family="Open Sans" letter-spacing="0" word-spacing="0"><g style="line-height:1.25;-inkscape-font-specification:'Open Sans'" aria-label="CO" font-weight="700" font-size="85.333"><path style="-inkscape-font-specification:'Open Sans Bold'" d="M237.066-99.864q-1.93 0-2.988 1.455-1.058 1.444-1.058 4.035 0 5.39 4.046 5.39 1.697 0 4.112-.848v2.866q-1.985.827-4.432.827-3.517 0-5.38-2.128-1.863-2.139-1.863-6.13 0-2.513.915-4.398.915-1.896 2.624-2.9 1.72-1.014 4.024-1.014 2.348 0 4.718 1.136l-1.102 2.778q-.904-.43-1.82-.75-.914-.32-1.796-.32zM259.235-94.44q0 4.001-1.984 6.151-1.984 2.15-5.688 2.15-3.705 0-5.689-2.15t-1.984-6.174q0-4.023 1.984-6.14 1.995-2.128 5.71-2.128 3.716 0 5.678 2.139 1.973 2.139 1.973 6.152zm-11.762 0q0 2.7 1.025 4.068 1.025 1.367 3.065 1.367 4.09 0 4.09-5.435 0-5.446-4.068-5.446-2.04 0-3.076 1.378-1.036 1.367-1.036 4.068z"/></g><g style="line-height:1.25;-inkscape-font-specification:'Open Sans'"><path style="-inkscape-font-specification:'Open Sans Bold'" d="M269.008-81.772h-7.042v-1.482l2.529-2.556q1.123-1.15 1.467-1.592.345-.448.497-.827.151-.379.151-.785 0-.606-.338-.903-.33-.296-.888-.296-.586 0-1.137.269t-1.15.765l-1.158-1.372q.744-.633 1.233-.895.49-.262 1.068-.4.579-.145 1.295-.145.944 0 1.668.345.723.344 1.123.965.4.62.4 1.419 0 .696-.249 1.31-.24.605-.758 1.246-.51.641-1.805 1.826l-1.295 1.22v.096h4.389z" font-weight="700" font-size="53.333" aria-label="2"/></g></g></g><g clip-rule="evenodd" fill-rule="evenodd" stroke-linejoin="round" stroke-miterlimit="1.5"><path d="M58.154 417.72l26.458-26.723" fill="none" stroke="#000" stroke-width="2.6458"/><circle r="22.5" cy="192.5" cx="173.5" fill="none" stroke="#000" stroke-width="10" transform="matrix(.26458 0 0 .26458 17.408 340.065)"/><circle r="22.5" cy="192.5" cx="173.5" fill="none" stroke="#000" stroke-width="10" transform="matrix(.26458 0 0 .26458 33.283 366.258)"/><path d="M98.635 405.218s-.292 5.102-.962 7.48c-3.264 11.594-13.923 20.103-26.554 20.103-15.224 0-27.583-12.36-27.583-27.583.002-26.637 27.596-41.615 27.583-51.527h-.067c-.012 9.912 27.581 24.89 27.583 51.527z" fill="none" stroke="#000" stroke-width="2.6458"/></g><g clip-rule="evenodd" fill-rule="evenodd" stroke-linejoin="round" stroke-miterlimit="1.5"><g fill="none" stroke="#000" stroke-width="10"><path d="M391.341 400.525c-3.044-5.277-3.208-10.96-.21-17.091M385.69 380.172c-4.4 7.818-4.17 15.72.239 23.7" stroke-width="2.6458"/></g><g fill="none" stroke="#000" stroke-width="10"><path d="M435.158 422.176c3.044-5.278 3.208-10.961.21-17.092M440.81 401.822c4.4 7.818 4.17 15.72-.24 23.701" stroke-width="2.6458"/></g><circle r="22.72" cy="108.733" cx="252.579" fill="none" stroke="#000" stroke-width="10" transform="matrix(.26458 0 0 .26458 358.82 349.53)"/><path d="M411.98 389.196l-18.761 35.318c-1.53 2.913 3.84 5.41 5.95 3.299l10.317-17.94 6.377 4.315-7.667 5.195c-2.555 1.605-.052 6.827 3.099 5.432l12.43-6.327c2.426-1.963 3.515-4.606 1.308-6.813l-7.427-5.407 5.958-11.906c8.214 1.452 14.662-1.677 19.767-8.294 2.163-2.804-2.693-5.67-5.197-3.165-16.032 16.032-24.087-12.478-41.293 7.586-1.656 1.657 1.98 5.751 4.208 3.524 3.388-4.183 7.052-5.584 10.931-4.817z" fill="none" stroke="#000" stroke-width="2.6458"/></g><g clip-rule="evenodd" fill-rule="evenodd" stroke-linejoin="round" stroke-miterlimit="1.5"><path d="M506.425 36.158v8.202M480.607 46.853l5.8 5.8M469.913 72.67h8.202M480.607 98.49l5.8-5.8M532.244 46.853l-5.8 5.8M542.938 72.67h-8.202M532.244 98.49l-5.8-5.8M502.15 104.156c-2.313 0-4.191-1.808-4.191-4.035 1.596-18.561-11.642-12.26-11.642-30.89 0-9.267 6.282-17.078 14.817-19.403h0l.012-.003.142-.039h.004l.019-.006.092-.024.029-.007.02-.005.025-.006.046-.012.06-.015.027-.007.014-.003.144-.035h.002l.012-.003.105-.025.026-.006.017-.004.027-.006.051-.011.056-.013.027-.006.016-.003.146-.032.122-.025.024-.005.016-.003.027-.006.056-.01.052-.01.027-.007.018-.003.026-.005.107-.02.012-.002h.002l.147-.027.014-.003.028-.005.06-.01.049-.009.026-.004.02-.003.03-.006.096-.015.018-.003h.005c.049-.009.098-.016.148-.024l.012-.002.029-.004.066-.01.044-.006.026-.004.021-.003.034-.005.087-.012.023-.003h.007c.05-.008.099-.014.149-.02l.01-.002.028-.003.073-.009.04-.005.025-.003.023-.002.038-.005.08-.009.026-.003h.009l.15-.016.008-.001.027-.003.08-.008.037-.003.024-.002.024-.002.041-.004.074-.007.028-.002.01-.001.152-.012h.007l.024-.002.088-.007.034-.002.022-.002.027-.001.045-.003.068-.004.03-.002h.012l.152-.01h.025l.098-.005.031-.001.02-.001.028-.001.05-.002.063-.003h.03l.014-.001.154-.004h.002l.012-.001.112-.002h.028l.019-.001h.028l.055-.001.059-.001h.046l.154-.001h.172l.03.001h.058l.055.001h.028l.019.001h.028l.112.003h.014a10 10 0 01.154.005h.014l.03.001.063.003.05.002h.028l.02.002.031.001.099.005h.024l.152.01h.013l.029.002.068.004.045.003.027.001.022.002.034.002.088.007.024.001h.007l.151.013h.01l.029.003.074.007.04.004.025.002.024.002.038.003.08.008.026.003h.008l.15.016.009.001.026.003.08.01.037.004.024.002.024.003.041.005.073.009.028.003.01.002c.05.006.1.012.15.02h.006l.023.003.087.012.034.005.02.003.027.004.044.006.066.01.029.004.012.002.148.023h.005l.018.004.096.015.03.006.02.003.026.004.048.009.06.01.03.005.013.003.147.026h.002l.012.003.107.02.026.005.018.003.027.006.052.01.056.011.027.006.016.003.024.005.122.025c.049.01.097.02.146.032l.016.003.027.006.056.013.05.01.027.007.018.004.026.006.105.025.012.003h.002l.144.035.014.003.027.007.06.015.046.012.026.006.019.005.03.007.091.024.019.005.004.001.142.039.012.003h0c8.535 2.325 14.817 10.136 14.817 19.403 0 18.63-13.238 12.329-11.642 30.89 0 2.227-1.878 4.035-4.19 4.035zM497.959 93.838h17.03M504.044 99.923h10.831" fill="none" stroke="#000" stroke-width="2.6458"/><circle r="5" cy="326" cx="192" fill="none" stroke="#000" stroke-width="10" transform="matrix(.26458 0 0 .26458 455.625 19.225)"/><path d="M500.87 99.923h-2.911" fill="none" stroke="#000" stroke-width="2.6458"/></g><g clip-rule="evenodd" fill-rule="evenodd" stroke-linejoin="round" stroke-miterlimit="1.5"><path d="M-16.124 89.116V47.724a2.912 2.912 0 012.91-2.91 2.912 2.912 0 012.911 2.91v41.392C-5.505 90.4-1.969 94.78-1.969 99.98c0 6.206-5.038 11.244-11.244 11.244-6.206 0-11.245-5.038-11.245-11.244 0-5.2 3.537-9.58 8.334-10.864z"/><path d="M-23.598 84.354V34.826c0-5.732 4.653-10.385 10.385-10.385 5.731 0 10.385 4.653 10.385 10.385v49.528c4.985 3.35 8.268 9.042 8.268 15.493 0 10.295-8.358 18.653-18.653 18.653-10.295 0-18.654-8.358-18.654-18.653 0-6.451 3.283-12.143 8.269-15.493zM-2.828 43.034H5.44M-2.828 52.03H5.44M-2.828 61.025H5.44M-2.828 70.021H5.44" fill="none" stroke="#000" stroke-width="2.6458"/></g></g></g></svg>