<svg xmlns="http://www.w3.org/2000/svg" viewBox="0 0 168.01 153.723" height="581" width="635"><g fill="none" stroke="#000"><path d="M30.238 23.283l85.234-6.142c6.06-.377 13.245 3.294 14.93 8.41l25.324 72.288c1.864 8.011-4.604 11.637-8.977 12.19l-91.281 11.245c-9.028.926-15.044-4.73-16.536-10.3l-17.576-76.73c-1.629-6.076 4.551-10.96 8.882-10.96z"/><path d="M21.358 30.204l-4.81 22.752 16.837 77.307c3.25 9.306 11.067 11.337 17.139 10.892l88.3-11.76c3.142-.565 6.242-1.919 9.12-7.417l7.727-18.653"/><path d="M20.387 34.859l17.434 76.351c2.248 7.147 7.372 11.725 17.789 11.268l90.998-11.197c6.97-1.122 5.996-3.432 8.031-5.292"/><path d="M38.979 110.856l-.874.992-4.72 18.415M55.562 121.274l.048 1.204-5.15 18.71M146.395 110.029l.307 1.134-7.701 18.19"/><g transform="translate(52.35 -8.094)" stroke-linecap="round"><ellipse cx="76.091" cy="96.413" rx="9.993" ry="8.764"/><ellipse cx="76.328" cy="96.531" rx="6.908" ry="5.656"/></g><path d="M62.919 130.297l70.358-9.02M62.428 133.505l70.359-9.02M61.899 136.151l70.359-9.02" stroke-linecap="round"/></g></svg>