<svg xmlns="http://www.w3.org/2000/svg" width="777.143" height="727.143" viewBox="0 0 205.619 192.39"><path fill="#ac1c22" d="M17.704 10.395h170.212v171.6H17.704z"/><g fill="#fff"><path d="M32.07 25.139v3.148h60.212c.108.065.168.17.057.267l-12.064 12.05H32.07v3.147h45.053l-12.235 12.22H32.07v3.148h29.667l-2.44 2.436c-1.082 1.083-1.025 2.343-.533 4.176l1.936 5.675H32.07v3.148h29.703l4.192 12.288H32.071v3.147h43.68c.828.221 2.661.722 2.661 2.196v10.128H32.071v3.148H97.347c1.275 0 2.543-1.501 2.543-3V76.19c0-1.895-.97-3.118-3.11-3.118h-9.402c-2.679 0-3.657-3.572-2.032-5.197l14.092-17.848c.452-.493.452-.868.452-1.523V28.07c.02-1.459-1.463-2.931-2.213-2.931h-3.8zm61.807 1.41l.105.152-.105-.025zM50.045 117.23c-6.013.443-11.996.472-17.946.034v1.403c1.363-.366 3.49.422 3.49 2.439v.335l-.06.016v41.26c0 .997-1.494 2.355-3.43 2.02v1.387c6.013-.444 11.996-.472 17.946-.033v-1.404c-1.364.365-3.492-.421-3.492-2.439v-.335l.062-.016v-17.89h18.58v18.241c0 2.017-2.127 2.804-3.49 2.439v1.403c5.95-.438 11.932-.41 17.945.034v-1.387c-1.935.335-3.43-1.023-3.43-2.021v-41.26l-.008-.001v-.655c0-.998 1.494-2.356 3.43-2.021v-1.387c-6.014.444-11.997.472-17.947.034v1.403c1.364-.365 3.491.421 3.491 2.438v15.59H46.615v-16.219c0-.998 1.494-2.356 3.43-2.022zM170.904 117.598c-6.013.443-32.313.104-38.263-.334v1.932c3.013 0 3.958.934 3.958 2.287-.123 13.459-.06 27.155-.06 40.699 0 .997-1.963 2.36-3.898 2.026v1.576c6.08 0 34.238-.024 40.057-.024-.057-4.767.278-9.535.85-14.302l-1.829.036c0 1.892-2.185 7.428-4.166 7.438l-19.89.1s.483-10.777-.034-15.025h11.234c1.508 0 3.118.589 3.54 4.028l1.44.035c-.383-4.791-.445-9.608-.01-14.463l-1.403.024c-.425 1.587-.44 3.756-3 3.756h-11.801v-12.761l18.673-.012c2.411 0 3.722 3.317 3.722 5.326l1.514-.031zM122.742 118.43l.614 13.914h-1.511c-2.485-5.28-6.422-10.947-16.189-10.09-9.767.858-15.281 11.175 5.967 14.971 21.247 3.797 15.466 20.044 10.25 24.957-5.215 4.912-21.983 7.14-34.01 2.605.555-5.734-.1-10.724-.668-15.768H88.8c2.558 10.469 7.133 12.17 16.57 12.16 9.438-.009 16.168-10.868.067-14.299-16.1-3.43-23.101-11.17-17.773-22.183 5.328-11.012 26.442-8.837 35.08-6.267zM170.799 25.139v3.148h-60.212c-.108.065-.168.17-.056.267l12.063 12.05H170.8v3.147h-45.053l12.235 12.22h32.818v3.148h-29.667l2.438 2.436c1.083 1.083 1.026 2.343.535 4.176l-1.937 5.675h28.63v3.148h-29.703l-4.192 12.288H170.8v3.147h-43.68c-.829.221-2.662.722-2.662 2.196v10.128h46.342v3.148H105.523c-1.275 0-2.544-1.501-2.544-3V76.19c0-1.895.971-3.118 3.11-3.118h9.403c2.678 0 3.656-3.572 2.03-5.197l-14.09-17.848c-.453-.493-.453-.868-.453-1.524V28.07c-.02-1.459 1.463-2.931 2.213-2.931h3.8zm-61.807 1.41l-.105.152.105-.025z"/></g></svg>