<svg xmlns="http://www.w3.org/2000/svg" width="3922.767" height="2311.339" viewBox="0 0 1037.899 611.542"><g transform="translate(383.256 691.018)" stroke="#000" stroke-width="5"><circle cx="-114.137" cy="-593.524" r="83.911" fill="none" stroke-linecap="square"/><path d="M350.079-277.884a83.91 83.91 0 00-70.743 82.823 83.91 83.91 0 0083.91 83.91 83.91 83.91 0 0067.597-34.35 83.91 83.91 0 01-13.167 1.089 83.91 83.91 0 01-83.911-83.911 83.91 83.91 0 0116.314-49.56z" fill="none" stroke-linecap="square"/><path d="M-147.43-132.48l520.095-520.096" fill="none"/><g transform="translate(-172.292 -599.191)" stroke-linecap="round"><rect ry="19.243" y="76.235" x="154.482" height="260.855" width="260.855" fill="#fff"/><g transform="translate(39.183 42.39)" fill="none"><circle cx="327.672" cy="246.219" r="32.607"/><circle cx="327.672" cy="246.219" r="20.847"/></g></g><g fill="none"><path d="M53.677-144.155C-46.596-123.933-116.61-163.853-159.87-256.943M-169.76-197.075l9.889-59.868 60.403 10.423"/></g><g fill="none"><path d="M168.625-642.52c100.274-20.222 170.287 19.698 213.548 112.788M392.062-589.6l-9.889 59.868-60.402-10.423"/></g></g></svg>