<svg xmlns="http://www.w3.org/2000/svg" width="1089.895" height="690.425" viewBox="0 0 288.368 182.675"><g fill="none" stroke="#000" stroke-linecap="round"><path stroke-width="1.323" d="M9.88 32.588h268.607v135.506H9.88z"/><path stroke-width=".529" d="M12.455 45.817h6.647v120.007h-6.647zM269.919 45.817h6.647v120.007h-6.647zM19.102 161.005h250.807v4.82H19.102z"/><path d="M19.102 45.818H269.91v11.091H19.1zM12.455 35.092h264.11v10.726H12.456z" stroke-width=".529"/></g><g stroke="#000" stroke-width=".529"><path d="M133.578 48.092v13.37h-3.354c0 2.443 2.287 2.41 3.354 2.41h25.986c1.068 0 3.355.033 3.355-2.41h-3.355v-13.37z" fill="#fff" stroke-linecap="round"/><path d="M133.578 61.462h25.986" fill="none"/></g><path d="M120.462 65.377H58.096c-11.568 0-23.577 11.823-23.577 23.577v18.757" fill="none" stroke="#003fc0" stroke-width="1.323"/><path d="M31.305 107.434l3.214 5.568 3.215-5.568z" fill="#003fc0"/><path d="M172.592 65.377h62.366c11.568 0 23.577 11.823 23.577 23.577v18.757" fill="none" stroke="#003fc0" stroke-width="1.323"/><path d="M261.75 107.434l-3.215 5.568-3.215-5.568z" fill="#003fc0"/><path d="M140.001 111.812v18.757c0 11.753-12.008 23.576-23.576 23.576H54.059c-17.135 0-19.547-4.999-19.547-19.547v-14.81" fill="none" stroke="#000" stroke-width="1.323"/><path d="M143.216 112.088l-3.215-5.568-3.215 5.568z" fill="#cd003c"/><path d="M140.001 111.812v18.757c0 11.753-12.008 23.576-23.576 23.576H54.059c-17.135 0-19.547-4.999-19.547-19.547v-14.81" fill="none" stroke="#cd003c" stroke-width="1.323"/><g><path d="M152.952 111.812v18.757c0 11.753 12.009 23.576 23.577 23.576h62.366c17.135 0 19.547-4.999 19.547-19.547v-14.81" fill="none" stroke="#cd003c" stroke-width="1.323"/><path d="M149.738 112.088l3.214-5.568 3.215 5.568z" fill="#cd003c"/></g><g><path d="M146.684 80.03V29.525" fill="none" stroke="#cd003c" stroke-width="1.323"/><path d="M149.899 29.8l-3.215-5.568-3.215 5.568z" fill="#cd003c"/></g><g><path d="M138.57 13.92v50.507" fill="none" stroke="#003fc0" stroke-width="1.323"/><path d="M141.785 64.15l-3.214 5.569-3.215-5.568z" fill="#003fc0"/><g><path d="M154.797 13.92v50.507" fill="none" stroke="#003fc0" stroke-width="1.323"/><path d="M158.012 64.15l-3.215 5.569-3.215-5.568z" fill="#003fc0"/></g></g></svg>