<svg xmlns="http://www.w3.org/2000/svg" width="1089.895" height="690.425" viewBox="0 0 288.368 182.675"><g fill="none" stroke="#000" stroke-linecap="round"><path stroke-width="1.323" d="M9.88 32.588h268.607v135.506H9.88z"/><path stroke-width=".529" d="M12.455 45.817h6.647v120.007h-6.647zM269.919 45.817h6.647v120.007h-6.647zM19.102 161.005h250.807v4.82H19.102z"/><path d="M19.102 45.818H269.91v11.091H19.1zM12.455 35.092h264.11v10.726H12.456z" stroke-width=".529"/></g><path d="M254.104 94.662H177.14" fill="none" stroke="#003fc0" stroke-width="1.323"/><path d="M177.415 97.877l-5.568-3.215 5.568-3.214z" fill="#003fc0"/><g><path d="M254.104 110.89H177.14" fill="none" stroke="#003fc0" stroke-width="1.323"/><path d="M177.415 114.104l-5.568-3.215 5.568-3.215z" fill="#003fc0"/></g><g><path d="M116.52 94.662H39.557" fill="none" stroke="#cd003c" stroke-width="1.323"/><path d="M39.832 97.877l-5.568-3.215 5.568-3.214z" fill="#cd003c"/><g><path d="M116.52 110.89H39.557" fill="none" stroke="#cd003c" stroke-width="1.323"/><path d="M39.832 114.104l-5.568-3.215 5.568-3.215z" fill="#cd003c"/></g></g><g><path d="M8.874 79.458h10.614v46.885H8.874z" fill="#f6f6f6"/><path d="M9.22 79.568h10.147M9.22 126.222h10.146" fill="none" stroke="#000" stroke-width=".265"/><path d="M13.183 101.264h2.407v24.811h-2.407zM13.385 80.213l2.085 1.204-12.405 21.487L.98 101.7z" fill="#fff" stroke="#000" stroke-width=".529" stroke-linecap="round"/><g><path d="M279.73 79.458h-10.385v46.885h10.385z" fill="#f6f6f6"/><path d="M279.148 79.568h-9.496M279.147 126.222h-9.493" fill="none" stroke="#000" stroke-width=".265"/><path d="M275.65 101.264h-2.408v24.811h2.408zM275.447 80.213l-2.084 1.204 12.405 21.487 2.085-1.204z" fill="#fff" stroke="#000" stroke-width=".529" stroke-linecap="round"/></g></g></svg>