<svg xmlns="http://www.w3.org/2000/svg" width="1097.817" height="545.547" viewBox="0 0 290.464 144.343"><g><g transform="translate(87.363 -102.076) scale(2.02511)" stroke-width=".988" fill="none" stroke="#000" clip-rule="evenodd" fill-rule="evenodd" stroke-linecap="round" stroke-linejoin="round"><circle r="10.678" cy="66.567" cx="68.697"/><path d="M55.09 94.027h27.214v21.734H55.09z"/><path d="M58.492 83.066c-4.365.222-7.542 2.423-9.639 6.425L45.64 104.8c-.427 3.636.141 6.744 3.97 8.126l5.385.946.095 1.89s10.293.533 13.607.42c3.313.113 13.607-.42 13.607-.42l.095-1.89 5.386-.946c3.828-1.382 4.396-4.49 3.969-8.126L88.54 89.491c-2.097-4.002-5.274-6.203-9.639-6.425H66.996z" stroke-linecap="butt" stroke-linejoin="miter"/></g><g transform="matrix(.24601 0 0 .24601 -22.85 21.33)" stroke="#333" stroke-width="5" stroke-linecap="round"><rect width="260.855" height="260.855" x="154.482" y="76.235" ry="19.243" fill="#fff" stroke-opacity=".941"/><g transform="translate(39.183 42.39)" fill="none"><circle r="32.607" cy="246.219" cx="327.672"/><circle r="20.847" cy="246.219" cx="327.672"/></g></g><g fill="none" stroke="#000" stroke-width="2"><path d="M90.409 72.171h76.162M165.571 63.383V80.96M91.409 63.383V80.96"/></g></g></svg>