<svg xmlns="http://www.w3.org/2000/svg" width="1097.817" height="545.547" viewBox="0 0 290.464 144.343"><g fill="none" stroke="#000" stroke-linecap="round"><path stroke-width="1.323" d="M6.407 4.419h268.606v135.506H6.407z"/><path stroke-width=".529" d="M8.981 17.648h6.647v120.007H8.981zM266.445 17.648h6.647v120.007h-6.647zM15.628 132.836h250.808v4.82H15.628z"/><path d="M15.628 17.648h250.81V28.74H15.627z" stroke-width=".529"/><path stroke-width=".529" d="M8.981 6.923h264.111v10.726H8.982z"/></g><g stroke="#000" stroke-width=".529"><path d="M130.105 19.922v13.371h-3.355c0 2.443 2.287 2.41 3.355 2.41h25.985c1.069 0 3.355.033 3.355-2.41h-3.355v-13.37z" fill="#fff" stroke-linecap="round"/><path d="M130.105 33.293h25.985" fill="none"/></g><path d="M276.233 50.847H265.85v46.886h10.384z" fill="#fff"/><path d="M275.651 50.957h-9.495M275.65 97.611h-9.492" fill="none" stroke="#000" stroke-width=".265"/><path d="M272.154 72.653h-2.408v24.811h2.408zM271.951 51.602l-2.085 1.204 12.406 21.487 2.085-1.204z" fill="#fff" stroke="#000" stroke-width=".529" stroke-linecap="round"/><g transform="translate(-1.383 58.729)"><circle r="9.213" cy="39.424" cx="145.521" fill="#b16562" stroke="#000" stroke-width="1.058" stroke-linecap="round"/><path d="M143.702 39.424l-1.894-1.894a1.287 1.287 0 011.82-1.82l1.893 1.894 1.894-1.893a1.287 1.287 0 011.82 1.82l-1.894 1.893 1.893 1.893a1.287 1.287 0 01-1.82 1.82l-1.893-1.894-1.893 1.893a1.287 1.287 0 01-1.82-1.82z" clip-rule="evenodd" fill="#fff" fill-rule="evenodd"/></g><g transform="translate(27.536 -139.23)" stroke-linecap="round"><circle r="9.213" cy="237.382" cx="33.548" fill="#62b162" stroke="#000" stroke-width="1.058"/><path d="M28.525 237.308a12.431 12.431 0 013.17 4.186c.086.184.276.179.358 0 1.41-3.083 3.699-5.8 6.517-8.012.209-.164-.098-.474-.359-.299-2.4 1.422-4.988 3.176-6.278 5.321-.072.12-.163.063-.239 0-1.173-1.074-2.194-1.508-3.109-1.495-.154.008-.162.212-.06.3z" clip-rule="evenodd" fill="#fff" fill-rule="evenodd" stroke="#fff" stroke-width=".493" stroke-linejoin="round" stroke-miterlimit="1.5"/></g><g transform="translate(81.67 58.729)"><circle r="9.213" cy="39.424" cx="145.521" fill="#b16562" stroke="#000" stroke-width="1.058" stroke-linecap="round"/><path d="M143.702 39.424l-1.894-1.894a1.287 1.287 0 011.82-1.82l1.893 1.894 1.894-1.893a1.287 1.287 0 011.82 1.82l-1.894 1.893 1.893 1.893a1.287 1.287 0 01-1.82 1.82l-1.893-1.894-1.893 1.893a1.287 1.287 0 01-1.82-1.82z" clip-rule="evenodd" fill="#fff" fill-rule="evenodd"/></g><g transform="matrix(.0535 0 0 .0535 128.898 62.468)" stroke-width="9.347" stroke="#333" stroke-linecap="round"><rect ry="19.243" y="76.235" x="154.482" height="260.855" width="260.855" fill="#fff" stroke-opacity=".941"/><g transform="translate(39.183 42.39)" fill="none"><circle cx="327.672" cy="246.219" r="32.607"/><circle cx="327.672" cy="246.219" r="20.847"/></g></g><g transform="matrix(.0535 0 0 .0535 211.952 62.468)" stroke-width="9.347" stroke="#333" stroke-linecap="round"><rect ry="19.243" y="76.235" x="154.482" height="260.855" width="260.855" fill="#fff" stroke-opacity=".941"/><g transform="translate(39.183 42.39)" fill="none"><circle cx="327.672" cy="246.219" r="32.607"/><circle cx="327.672" cy="246.219" r="20.847"/></g></g><g transform="matrix(.0535 0 0 .0535 45.844 62.468)" stroke-width="9.347" stroke="#333" stroke-linecap="round"><rect ry="19.243" y="76.235" x="154.482" height="260.855" width="260.855" fill="#fff" stroke-opacity=".941"/><g transform="translate(39.183 42.39)" fill="none"><circle cx="327.672" cy="246.219" r="32.607"/><circle cx="327.672" cy="246.219" r="20.847"/></g></g></svg>