<svg xmlns="http://www.w3.org/2000/svg" viewBox="0 0 290.464 144.343" height="545.547" width="1097.817"><path fill="#62b162" d="M15.635 56.144H266.2v35.547H15.635z"/><g fill="none" stroke="#000" stroke-linecap="round"><path stroke-width="1.323" d="M6.407 4.419h268.606v135.506H6.407z"/><path stroke-width=".529" d="M8.981 17.648h6.647v120.007H8.981zM266.445 17.648h6.647v120.007h-6.647zM15.628 132.836h250.808v4.82H15.628z"/><path d="M15.628 17.648h250.81V28.74H15.627z" stroke-width=".529"/><path stroke-width=".529" d="M8.981 6.923h264.111v10.726H8.982z"/></g><g transform="matrix(.0535 0 0 .0535 128.898 62.468)" stroke-width="9.347" stroke="#333" stroke-linecap="round"><rect width="260.855" height="260.855" x="154.482" y="76.235" ry="19.243" fill="#fff" stroke-opacity=".941"/><g transform="translate(39.183 42.39)" fill="none"><circle r="32.607" cy="246.219" cx="327.672"/><circle r="20.847" cy="246.219" cx="327.672"/></g></g><path d="M38.758 131.38V93.428M35.183 93.361h7.15M35.183 131.248h7.15M239.165 131.38V56.915" fill="none" stroke="#000"/><path d="M235.59 131.248h7.15" fill="none" stroke="#000" stroke-width=".265"/><path d="M235.59 131.248h7.15M235.59 57.048h7.15" fill="none" stroke="#000"/><text style="line-height:1.25;-inkscape-font-specification:'Open Sans Semi-Bold'" x="247.341" y="123.51" font-weight="600" font-size="7.056" font-family="Open Sans" letter-spacing="0" word-spacing="0" stroke-width=".265" transform="translate(-13.429 -12.806)"><tspan x="247.341" y="123.51" style="text-align:end" text-anchor="end">6 Feet</tspan><tspan x="247.341" y="132.329" style="text-align:end" text-anchor="end">1.8 Meters</tspan></text><text style="line-height:1.25;-inkscape-font-specification:'Open Sans Semi-Bold'" x="60.962" y="123.484" font-weight="600" font-size="7.056" font-family="Open Sans" letter-spacing="0" word-spacing="0" stroke-width=".265" transform="translate(-13.429 -12.806)"><tspan x="60.962" y="123.484" style="text-align:start">4 Feet</tspan><tspan x="60.962" y="132.303" style="text-align:start">1.2 Meters</tspan></text></svg>