<svg width="100%" height="100%" viewBox="0 0 600 200" version="1.1" xmlns="http://www.w3.org/2000/svg" xmlns:xlink="http://www.w3.org/1999/xlink" xml:space="preserve" xmlns:serif="http://www.serif.com/" style="fill-rule:evenodd;clip-rule:evenodd;stroke-linejoin:round;stroke-miterlimit:1.41421;">
    <path style="fill: #fff;" d="M92.519,193.019L71.398,193.019L71.398,7.283L257.384,7.283C304.047,8.733 337.135,32.075 349.793,80.054L394.806,7.283L418.73,7.283L412.785,18.275L332.909,151.551C316.172,174.64 292.275,191.161 262.532,193.019L188.564,193.019L188.564,82.573L210.323,82.573L210.323,170.733L263.159,170.456C300.382,168.923 330.132,137.722 330.132,99.64C330.132,60.957 299.428,29.481 261.383,28.879L261.383,28.855L93.32,28.855L92.519,28.855L92.519,193.019ZM180.659,135.935L121.221,135.935L121.221,193.019L99.616,193.019L99.616,114.158L180.659,114.158L180.659,135.935ZM501.983,193.019L387.582,193.019L387.582,170.751L505.674,170.751L505.674,170.733L515.777,170.733L501.983,193.019ZM498.942,161.806L387.582,161.806L387.582,141.031L461.515,141.031L418.734,71.699L378.841,141.031L349.398,193.019L320.001,193.019L418.762,28.233L498.942,161.806ZM442.61,7.283L529.942,147.845L516.015,170.347L418.73,7.283L442.61,7.283ZM180.659,104.355L99.616,104.355L99.616,37.056L261.358,37.056L261.358,37.107C294.679,37.437 321.624,65.487 321.624,99.637C321.624,133.255 295.505,160.685 262.904,161.846L262.904,161.868L218.74,161.868L218.74,82.573L241.245,82.573C241.232,84.743 241.003,127.753 241.132,140.095C247.586,140.116 252.527,140.357 258.877,140.357C281.679,140.357 300.192,122.086 300.192,99.581C300.192,77.699 282.691,59.82 260.761,58.846L260.761,58.763L121.415,58.763L121.415,82.573L180.659,82.573L180.659,104.355Z"/>
</svg>
