<?xml version="1.0" encoding="UTF-8" standalone="no"?>
<svg
   xmlns:dc="http://purl.org/dc/elements/1.1/"
   xmlns:cc="http://creativecommons.org/ns#"
   xmlns:rdf="http://www.w3.org/1999/02/22-rdf-syntax-ns#"
   xmlns:svg="http://www.w3.org/2000/svg"
   xmlns="http://www.w3.org/2000/svg"
   xmlns:sodipodi="http://sodipodi.sourceforge.net/DTD/sodipodi-0.dtd"
   xmlns:inkscape="http://www.inkscape.org/namespaces/inkscape"
   width="100%"
   height="100%"
   viewBox="0 0 600 200"
   version="1.1"
   xml:space="preserve"
   style="fill-rule:evenodd;clip-rule:evenodd;stroke-linejoin:round;stroke-miterlimit:1.41421;"
   id="svg98"
   sodipodi:docname="mhpra.svg"
   inkscape:version="0.92.5 (0.92.5+69)"><metadata
   id="metadata104"><rdf:RDF><cc:Work
       rdf:about=""><dc:format>image/svg+xml</dc:format><dc:type
         rdf:resource="http://purl.org/dc/dcmitype/StillImage" /></cc:Work></rdf:RDF></metadata><defs
   id="defs102" /><sodipodi:namedview
   pagecolor="#ffffff"
   bordercolor="#666666"
   borderopacity="1"
   objecttolerance="10"
   gridtolerance="10"
   guidetolerance="10"
   inkscape:pageopacity="0"
   inkscape:pageshadow="2"
   inkscape:window-width="951"
   inkscape:window-height="697"
   id="namedview100"
   showgrid="false"
   inkscape:zoom="0.68"
   inkscape:cx="300"
   inkscape:cy="100"
   inkscape:window-x="38"
   inkscape:window-y="27"
   inkscape:window-maximized="0"
   inkscape:current-layer="svg98" />
    <g
   transform="matrix(1,0,0,1,9,0)"
   id="g94"
   style="fill:#ffffff;fill-opacity:1">
        <path
   d="M113.356,187.772C99.087,187.365 84.555,186.258 83.155,177.955C82.546,174.341 80.728,169.257 79.438,167.919C73.234,161.485 81.905,158.504 84.485,155.536C78.458,152.801 57.098,169.637 53.61,171.123C48.661,173.231 43.843,173.767 41.694,171.827C38.582,169.017 35.127,166.621 31.322,164.648C36.712,166.367 51.242,160.731 59.758,153.222C62.317,150.966 70.054,146.534 75.718,144.607C80.427,143.004 88.593,146.133 89.795,150.274C90.674,153.305 92.476,156.195 94.586,159.036C95.926,167.483 85.37,165.613 85.469,170.36C94.614,173.726 105.923,175.436 114.28,175.234C124.308,174.991 133.621,173.577 142.629,170.418C142.728,165.671 132.173,167.541 133.512,159.094C135.623,156.252 137.424,153.363 138.304,150.332C139.505,146.191 147.672,143.061 152.381,144.664C158.045,146.592 165.782,151.024 168.34,153.28C176.857,160.789 191.387,166.424 196.777,164.705C192.972,166.678 189.517,169.075 186.404,171.884C184.255,173.824 179.438,173.288 174.489,171.18C171.001,169.695 149.64,152.858 143.614,155.594C146.193,158.562 154.864,161.543 148.66,167.977C147.371,169.315 145.539,174.396 144.943,178.013C143.51,186.72 125.878,188.13 113.356,187.772ZM109.226,150.343C112.369,151.236 115.585,151.771 118.889,151.888L118.838,158.093C123.856,157.688 125.436,162.224 121.879,166.093C120.971,163.758 120.183,163.392 119.599,166.099C119.08,168.507 118.259,170.015 116.586,170.06C117.04,172.531 115.667,173.827 114.238,173.83C112.749,173.832 111.235,172.608 111.529,170.176C109.855,170.131 109.034,168.623 108.515,166.215C107.932,163.508 107.143,163.874 106.236,166.209C102.678,162.34 104.259,157.804 109.277,158.209L109.226,150.343ZM114.057,169.594C114.869,169.594 115.528,170.253 115.528,171.065C115.528,171.877 114.869,172.536 114.057,172.536C113.245,172.536 112.586,171.877 112.586,171.065C112.586,170.253 113.245,169.594 114.057,169.594ZM141.607,155.742C141.607,155.742 141.907,156.247 148.318,161.465C152.655,164.996 143.94,169.811 143.94,169.811C143.94,169.811 145.405,167.426 137.518,163.829C126.948,159.007 141.607,155.742 141.607,155.742ZM86.491,155.684C86.491,155.684 86.191,156.189 79.781,161.408C75.443,164.938 84.159,169.753 84.159,169.753C84.159,169.753 82.694,167.368 90.58,163.771C101.151,158.95 86.491,155.684 86.491,155.684ZM114.113,154.122C110.867,156.22 109.786,158.569 112.674,161.381C113.779,162.457 111.75,164.795 110.891,162.446C109.599,158.914 108.311,158.784 106.366,160.04C104.936,160.965 105.477,162.763 106.246,164.065C107.263,162.646 108.782,162.906 109.212,164.471C109.557,165.727 109.77,166.945 110.431,168.092C111.498,169.947 114.005,168.766 113.251,166.49C111.399,164.224 116.638,163.954 114.857,166.488C113.955,167.771 115.92,170.211 117.692,168.2C118.373,167.428 118.663,165.06 119.196,163.977C119.867,162.616 121.021,162.863 121.983,164.088C123,161.844 122.141,159.915 121.27,159.653C119.054,158.987 117.799,159.781 117.459,161.969C116.85,164.28 114.534,163.41 115.376,161.541C118.194,158.563 117.552,156.62 114.113,154.122ZM170.235,44.698C167.043,46.289 164.106,48.125 161.593,50.368C160.573,51.547 160.707,52.507 161.365,53.366C161.295,53.955 161.303,54.372 161.38,54.825C161.547,55.803 162.219,55.456 162.975,54.889L167.606,52.625C169.289,52.229 170.123,52.973 168.553,54.119C165.767,55.494 163.679,56.263 163.794,57.194C163.835,57.529 164.543,57.533 165.063,57.514C165.695,59.423 166.645,59.079 167.702,57.98C168.109,59.259 167.888,60.464 167.178,61.61C169.928,60.894 170.791,59.21 170.714,57.043C170.662,55.576 172.027,55.27 171.961,56.866C171.938,57.436 171.931,58.01 171.755,58.581C173.917,57.618 173.968,55.881 173.783,54.057C174.271,53.888 174.753,53.648 175.222,53.24C178.061,55.631 180.384,55.764 182.557,54.396C185.035,52.837 185.52,50.719 184.998,48.318C186.864,50.432 186.898,53.228 184.41,55.716C180.633,59.49 174.88,60.502 173.158,63.256L169.029,61.628L166.175,70.231L166.631,70.629C164.12,73.658 162.345,77.142 161.644,81.292L158.599,78.577C159.492,74.272 156.313,72.27 153.382,74.573L148.025,70.063L144.544,69.971L140.245,73.605L142.659,76.17L144.446,74.808C145.307,74.235 146.012,74.511 146.669,75.04C149.02,78.049 151.411,81.028 153.974,83.881C153.557,84.792 151.023,84.952 146.796,84.513C145.828,85.226 145.145,86.096 144.634,87.06C144.217,87.846 144.264,88.542 144.498,89.269C146.64,92.82 148.501,96.409 150.176,100.025C151.166,102.161 152.863,102.986 154.368,103.606C156.412,104.448 158.334,105.554 160.08,106.838L160.347,104.799C159.099,103.934 157.775,103.45 156.45,102.974C157.484,102.521 159.739,103.376 162.03,104.269C161.377,102.43 160.107,100.703 158.356,99.064C157.849,98.59 155.564,98.619 155.038,99.597C154.494,100.611 152.891,100.02 153.852,98.672C154.554,97.688 154.507,96.929 153.726,96.26C153.217,95.824 152.741,95.699 152.159,95.845C150.652,94.075 149.661,92.163 148.664,90.253C148.023,89.025 148.832,88.211 150.026,88.296C154.82,89.371 158.476,89.611 161.832,89.631C162.56,95.78 165.492,99.723 171.023,101.065C175.656,102.19 178.342,104.706 179.407,107.739C175.028,107.613 171.373,108.254 168.313,109.523C164.433,111.133 163.144,114.324 163.425,117.729C163.752,121.701 164.804,122.924 167.13,124.829C168.121,125.641 168.81,128.217 167.142,129.82C165.388,131.504 157.844,133.527 152.654,133.812C148.102,134.063 144.132,138.871 141.252,141.942L143.575,142.037L146.383,138.47L147.037,138.499C146.652,139.859 145.904,141.126 144.875,142.323L148.912,142.272C151.964,141.632 152.792,139.011 151.911,138.173C151.055,137.358 151.054,136.746 152.744,136.538C153.558,136.437 154.207,137.314 154.664,138.155C155.14,139.032 156.294,138.98 157.324,138.518C163.179,136.144 168.983,133.743 174.534,131.206C175.525,130.471 175.292,129.792 174.475,129.139C172.492,127.68 172.276,125.095 174.071,121.228C174.57,120.153 177.856,119.011 180.548,119.211C180.23,120.865 180.257,122.367 180.672,123.697C181.787,127.277 187.24,133.097 193.155,135.31C193.763,135.537 194.433,135.591 195.075,135.308C196.217,135.345 196.946,136.004 197.073,137.571C197.12,140.387 197.233,143.205 197.453,146.025C197.758,149.913 195.709,151.848 192.738,154.024C192.188,154.427 189.527,158.355 188.287,160.67C190.109,161.877 190.984,160.313 191.597,157.986C192.02,156.979 192.551,156.094 193.352,155.508L191.601,161.505C193.816,161.711 195.909,161.217 197.767,159.364C199.002,158.132 198.958,156.683 197.693,155.506C196.804,154.679 197.138,153.91 198.232,153.44C199.226,153.013 200.062,153.504 200.828,154.671C202.212,153.899 203.002,151.718 202.649,146.833C205.127,149.753 209.38,147.884 210.163,145.273C210.868,142.919 210.038,141.283 206.451,140.936C205.107,140.805 203.254,142.104 202.49,143.941L202.162,133.931C202.14,131.85 201.424,131.587 200.335,132.373C199.353,133.082 198.437,132.948 197.578,132.072C194.829,129.525 194.196,126.652 195.769,123.44C197.007,121.169 197.76,118.773 197.966,116.236C198.054,113.814 198.586,113.713 199.484,115.535C200.189,117.108 201.08,118.48 202.115,119.696C202.243,126.812 207.484,129.745 211.922,126.43C209.636,126.422 208.054,125.145 207.089,122.754L208.847,122.686C213.063,125.595 216.231,122.816 217.35,119.393C216.032,120.558 214.706,121.247 213.361,120.995C216.805,117.628 217.006,112.927 214.067,106.933C211.906,103.748 209.007,101.221 206.254,98.718C205.126,97.692 204.26,96.557 203.106,95.56C199.051,91.667 198.487,83.879 203.711,80.639C205.443,79.565 207.422,79.532 209.077,80.638C206.425,84.615 207.6,87.643 209.746,90.43C210.336,91.196 215.089,94.158 218.365,95.047C220.977,95.755 223.082,97.06 223.943,99.105C224.64,95.429 221.742,93.623 218.329,92.085C215.224,90.686 213.94,87.724 213.734,85.382C215.848,90.207 218.49,91.317 221.441,90.268C219.498,90.043 218.244,87.746 217.542,83.792C216.908,80.225 214.604,78.985 211.365,79.366C208.698,77.004 205.359,76.234 199.955,80.343C197.375,82.305 196.447,90.061 199.307,94.542C201.625,98.173 204.437,101.107 207.568,103.233C208.279,103.715 212.014,107.878 213.017,110.6C215.802,118.156 209.152,124.115 204.108,118.291C203.08,117.104 202.251,115.69 201.515,114.299C199.607,110.692 197.514,107.344 194.881,104.24C197.187,105.422 198.916,104.985 200.135,103.118C201.598,100.328 197.983,96.328 194.789,97.157C193.515,97.488 192.282,99.353 192.781,101.274C190.232,98.375 187.989,95.314 186.598,91.806C185.665,89.452 186.455,87.532 189.565,83.796L190.102,84.119L196.359,77.445L194.554,75.904C195.1,75.004 195.476,73.967 195.721,72.824C196.453,75.299 197.583,76.127 199.013,75.717C198.501,74.087 198.612,72.211 199.056,70.202C199.432,68.499 199.249,66.68 198.758,64.962C200.202,67.286 201.793,67.91 203.466,67.579C202.126,66.749 201.565,64.97 201.804,62.218C202.041,59.49 201.668,55.919 199.782,53.158C201.299,53.429 202.465,53.299 202.968,52.407C201.335,52.335 200.075,50.877 199.031,48.614C198.433,47.319 195.864,45.212 193.343,44.488C194.975,43.871 195.821,43.072 195.774,42.063C194.979,42.437 194.242,42.435 193.31,41.762C190.814,39.961 188.234,39.646 185.544,39.433C184.931,36.86 183.188,34.762 180.267,33.157C180.564,35.097 180.437,36.812 179.705,38.206L157.28,16.658L175.819,40.671L172.089,42.182C170.676,42.755 170.13,43.618 170.235,44.698ZM61.968,35.358C55.086,37.016 49.722,39.349 45.563,42.22C45.061,41.993 44.72,41.58 44.527,40.999C43.068,41.976 42.511,43.101 42.942,44.388C40.985,44.506 39.296,45.075 37.88,46.106C38.256,48.894 39.784,50.388 42.01,51.098C40.458,52.696 39.502,54.563 39.856,57.019C39.831,59.515 39.08,61.206 37.88,62.4C40.134,62.515 41.595,61.055 42.487,58.465C42.993,56.732 43.697,55.558 44.527,54.742C44.53,56.816 43.951,58.719 42.942,60.498C41.253,63.729 41.551,66.768 42.487,69.737C42.831,71.15 42.595,72.435 42.01,73.643C44.458,72.35 45.356,69.56 45.563,66.102C45.796,63.951 46.307,61.978 47.587,60.498C47.813,61.832 47.776,63.159 47.587,64.481C46.422,67.566 46.463,70.605 46.532,73.643C46.454,75.2 45.917,76.323 45.147,77.226C46.95,77.549 48.914,75.321 50.291,72.013C51.315,69.551 51.632,70.014 52.236,68.786C51.062,72.119 49.543,75.431 48.639,79.053C46.9,86.023 43.802,92.645 39.497,98.232C35.667,103.201 33.394,109.862 28.94,113.616C23.115,118.526 17.416,114.208 19.729,106.798C22.607,98.826 34.202,91.644 37.88,83.25C39.276,80.063 38.605,76.472 36.77,74.078C34.985,71.748 32.097,70.552 28.94,71.966C27.578,72.443 26.372,73.066 25.528,74.022C21.685,72.646 19.32,74.371 17.989,78.262C15.961,83.916 14.1,86.009 12.352,85.665C14.775,86.91 17.671,85.296 20.987,81.157C20.197,83.92 18.684,86.27 15.327,87.57C10.556,89.417 8.836,92.801 9.517,96.33C13.468,89.452 18.798,90.607 23.717,87.146C29.003,83.426 30.883,79.917 27.834,75.407C33.704,72.759 38.428,76.291 34.18,84.335C32.485,87.018 30.437,89.619 27.821,92.087C23.092,96.046 20.709,100.063 17.989,104.072C16.211,108.051 16.021,111.811 17.989,115.272C16.62,115.762 15.413,115.398 14.353,114.255C14.806,117.976 17.496,118.816 21.689,117.72C22.308,117.963 22.971,118.131 23.717,118.161C22.525,120.145 20.695,121.051 18.353,121.096C24.906,124.421 30.539,119.773 30.795,115.673C33.93,112.552 36.885,108.943 39.376,104.072C39.455,104.907 39.316,105.649 39.376,106.272C35.804,111.983 33.311,118.007 32.673,124.569C31.171,129.888 29.06,133.916 24.49,132.734C22.979,131.912 21.734,133.065 22.427,134.399C22.746,135.631 22.631,136.734 21.689,137.594C20.162,138.988 19.053,143.662 20.285,146.796C20.595,147.848 20.718,148.885 20.712,149.912C21.407,149.567 23.734,146.234 24.161,144.845C24.483,146.938 24.367,148.968 23.539,150.896C22.992,152.688 23.002,154.496 24.29,156.341C25.129,154.483 26.292,153.978 27.703,154.518C28.406,155.16 28.538,155.786 27.702,156.383C26.423,158.327 26.318,159.93 27.683,161.107C28.348,161.442 29.001,161.546 29.646,161.52C28.969,160.457 29.585,159.869 30.789,159.497C32.33,159.301 33.798,159.56 35.229,160.059C36.571,160.469 37.734,160.289 38.731,159.565L40.1,158.16C41.771,157.663 42.193,158.303 41.719,159.761C43.572,159.5 44.679,158.443 44.223,155.716C43.673,154.431 44.152,154.052 45.097,154.084C46.424,154.254 47.03,154.915 46.584,156.296C49.27,155.981 49.405,151.498 46.177,151.242L45.027,151.22C43.814,149.226 40.175,148.828 38.298,151.477C36.969,152.124 35.639,152.365 34.308,151.129C31.74,149.088 30.19,145.567 30.127,139.883C30.336,137.391 32.015,135.451 35.84,134.319C40.372,132.978 50.068,127.546 51.619,116.446L51.685,109.072C57.561,112.442 58.237,121.763 52.307,123.459C51.394,123.72 51.314,125.24 52.204,125.452C53.512,126.43 54.2,127.667 54.181,129.2C54.156,131.316 56.535,134.431 58.718,135.704C58.214,134.163 58.177,132.652 58.691,131.177C59.965,132.246 60.726,133.463 60.821,134.871C61.479,138.438 63.312,139.618 65.839,139.39C64.763,138.48 64.938,137.575 65.782,136.673C66.937,137.092 67.938,138.032 68.811,139.403C69.187,140.15 69.753,140.454 70.466,140.417L73.959,140.399C74.656,140.247 75.166,139.908 75.52,139.414C77.11,139.675 77.482,140.725 76.418,142.704C78.985,142.301 79.747,140.454 79.179,137.544C80.912,137.042 82.299,137.553 83.163,139.597C84.497,137.347 84.569,135.372 81.349,134.118C81.363,133.304 80.887,132.649 79.74,132.211L76.048,132.187C73.484,134.663 71.396,133.682 69.362,132.313C66.329,130.438 63.971,127.958 61.887,125.234C60.845,123.794 60.957,122.478 62.201,121.261C67.856,115.729 73.525,110.558 62.165,103.633C60.332,102.611 58.627,101.494 57.208,100.163C60.237,98.218 63.716,97.81 67.712,99.175C68.861,97.996 69.538,96.548 69.824,94.878C70.589,97.058 70.7,98.971 70.475,100.747C72.326,100.308 73.141,98.591 73.819,96.707C73.401,100.127 73.321,102.841 74.415,103.108C75.456,98.88 79.897,102.364 75.572,104.995C74.168,106.393 73.992,107.716 75.407,108.939C76.258,109.675 76.128,110.539 74.868,111.167C74.359,111.358 73.778,111.131 73.182,110.818C75.194,114.717 77.391,112.486 79.58,110.53C80.285,112.304 79.906,113.742 78.388,114.497C81.11,115.347 82.625,114.057 82.815,110.416C84.662,110.76 85.484,111.853 84.519,114.252C87.143,113.54 88.137,112.052 86.901,109.5C86.652,108.946 86.526,108.396 86.462,107.849C86.487,106.319 85.854,105.42 85.193,104.549C84.254,102.993 84.084,101.434 84.074,99.874C84.059,97.501 75.436,89.066 70.593,83.349C72.831,84.294 75.236,86.311 77.769,89.155C79.819,83.731 82.847,78.442 87.952,73.436C86.262,73.828 84.69,74.431 83.342,75.439C83.434,72.777 82.545,71.044 81.22,69.725C82.264,65.32 79.492,61.64 74.5,58.382C78.491,60.144 81.102,62.118 82.669,60.029C80.856,58.863 79.378,57.061 78.019,55.037C77.026,53.558 73.968,51.591 71.667,50.365C72.065,50.105 72.103,49.252 74.987,51.648C77.35,53.612 79.954,53.873 81.165,52.506C79.155,51.27 77.287,49.583 75.574,47.405C74.191,45.647 72.178,44.417 70.289,43.434C72.877,44.435 74.794,43.715 76.432,42.275C75.182,42.168 73.934,42.054 72.845,41.156C71.914,40.389 71.171,40.226 70.299,40.363C71.24,37.904 70.851,35.751 70.078,33.686C68.087,33.645 66.524,34.278 65.214,35.309C64.796,33.971 63.636,33.542 61.931,33.778C62.056,34.296 62.101,34.82 61.968,35.358ZM196.406,147.29C195.917,149.114 193.662,150.097 191.373,149.484C189.083,148.871 187.622,146.892 188.11,145.067C188.599,143.243 190.855,142.26 193.144,142.873C195.433,143.487 196.895,145.466 196.406,147.29ZM91.482,140.742C84.531,134.646 79.523,125.813 77.708,115.663C79.876,116.523 81.738,116.362 83.164,114.748C83.474,114.936 83.567,115.292 83.42,115.832C86.35,115.683 87.995,114.442 89.071,112.717C90.396,119.822 93.902,125.979 98.726,130.18C100.481,129.618 101.841,129.834 103.467,130.727C104.569,131.332 105.463,134.632 105.332,135.35C117.482,140.567 126.89,143.141 133.673,143.183C129.343,147.001 124.394,149.718 117.797,149.309C110.582,148.861 104.183,147.327 99.075,144.205C98.618,144.428 97.224,144.887 97.179,144.86C95.702,145.159 94.296,144.937 93.217,144.11C92.201,143.331 91.626,142.134 91.482,140.742ZM195.064,146.902C194.755,148.057 193.23,148.655 191.663,148.235C190.095,147.815 189.073,146.535 189.383,145.379C189.693,144.223 191.217,143.626 192.785,144.046C194.353,144.466 195.374,145.746 195.064,146.902ZM117.207,143.035C118.327,143.035 119.236,143.945 119.236,145.065C119.236,146.185 118.327,147.094 117.207,147.094C116.087,147.094 115.178,146.185 115.178,145.065C115.178,143.945 116.087,143.035 117.207,143.035ZM205.27,142.735C206.591,141.938 208.155,142.105 208.76,143.107C209.365,144.11 208.783,145.571 207.462,146.368C206.141,147.165 204.577,146.998 203.972,145.996C203.367,144.993 203.949,143.532 205.27,142.735ZM106.923,139.513C108.138,139.513 109.125,140.5 109.125,141.716C109.125,142.932 108.138,143.919 106.923,143.919C105.707,143.919 104.72,142.932 104.72,141.716C104.72,140.5 105.707,139.513 106.923,139.513ZM214.998,132.912C217.985,132.912 220.41,135.337 220.41,138.324C220.41,141.311 217.985,143.737 214.998,143.737C212.011,143.737 209.586,141.311 209.586,138.324C209.586,135.337 212.011,132.912 214.998,132.912ZM104.077,134.199C104.047,134.028 103.609,132.153 102.937,131.639C101.81,130.775 100.204,130.777 98.574,131.478C97.57,131.985 96.435,132.843 95.292,134.076L93.262,133.782L94.267,135.527C93.998,135.84 93.744,136.169 93.514,136.524C92.179,139.263 92.284,142.073 93.962,143.358C94.814,144.011 97.5,143.648 97.627,143.458L94.88,141.78C94.183,140.935 94.676,139.522 96.087,137.67C99.229,139.541 100.692,137.575 97.901,135.183C98.568,134.274 99.305,133.413 100.274,132.708C101.47,132.364 102.728,132.755 104.077,134.199ZM215.096,134.244C217.394,134.244 219.259,136.11 219.259,138.407C219.259,140.705 217.394,142.571 215.096,142.571C212.798,142.571 210.933,140.705 210.933,138.407C210.933,136.11 212.798,134.244 215.096,134.244ZM185.075,133.385C186.964,133.385 188.497,135.309 188.497,137.679C188.497,140.049 186.964,141.973 185.075,141.973C183.187,141.973 181.653,140.049 181.653,137.679C181.653,135.309 183.187,133.385 185.075,133.385ZM95.155,70.777C92.064,68.292 91.222,65.65 93.813,62.769C92.499,58.054 90.186,53.586 87.26,49.27C88.811,48.369 90.466,47.773 92.159,47.286C91.03,49.056 90.727,50.838 91.076,52.629C92.408,51.848 93.32,50.575 94.008,49.04C94.317,51.02 94.916,52.823 95.84,54.429C94.4,53.73 93.01,53.46 91.735,54.172C92.977,56.745 100.501,56.752 101.245,53.878C101.989,51.004 97.672,50.715 98.722,54.222C93.994,49.785 99.266,45.192 101.993,52.062C103.114,46.186 108.242,46.911 105.867,53.62C104.938,49.695 101.467,52.154 103.102,53.84C106.211,57.048 112.672,55.034 113.167,50.735C111.447,51.151 110.02,51.968 108.927,53.242L108.96,46.591C110.232,48.204 111.639,49.001 113.159,49.123C112.462,47.336 111.252,45.804 109.561,44.513L118.513,44.483C116.823,45.774 115.613,47.306 114.916,49.093C116.436,48.971 117.843,48.174 119.114,46.561L119.148,53.211C118.054,51.938 116.627,51.121 114.908,50.705C115.403,55.004 121.864,57.018 124.973,53.81C126.607,52.123 123.137,49.665 122.208,53.59C119.832,46.881 124.961,46.156 126.082,52.031C128.809,45.162 134.081,49.755 129.353,54.192C130.403,50.685 126.085,50.973 126.83,53.847C127.574,56.721 135.098,56.715 136.34,54.142C135.065,53.43 133.675,53.7 132.234,54.399C133.159,52.793 133.758,50.99 134.067,49.01C134.755,50.545 135.667,51.818 136.999,52.599C137.347,50.808 137.045,49.026 135.916,47.256C137.609,47.743 139.264,48.339 140.815,49.239C137.889,53.556 135.575,58.024 134.262,62.739C136.837,65.602 136.021,68.228 132.979,70.699C137.86,73.982 142.027,78.499 145.146,83.872C144.143,85.205 143.246,86.558 142.627,87.963C142.154,89.039 143.765,91.51 145.411,94.122C147.476,97.139 149.666,101.683 151.15,103.495C151.242,104.71 151.289,105.939 151.289,107.18C151.289,121.122 145.36,133.498 136.219,141.214C131.838,141.609 126.294,140.719 121.349,139.374C121.426,137.46 122.272,135.641 123.414,133.864C123.488,133.831 123.562,133.798 123.634,133.762C132.58,129.392 138.936,119.203 139.232,107.252L115.201,107.252L115.201,134.422C117.061,134.526 119.046,134.668 120.815,134.486C119.988,135.749 119.294,137.118 119.075,138.71C116.322,137.853 113.868,136.884 112.064,135.969C110.763,136.1 109.795,134.424 112.239,134.345C112.687,134.331 113.158,134.335 113.647,134.35L113.647,107.252L88.5,107.252C88.516,107.892 88.549,108.528 88.599,109.158C88.026,108.295 87.824,106.968 88.073,106.148C86.431,103.5 85.445,101.6 85.803,99.719C84.968,97.018 81.83,93.425 79.704,91.198C82.776,82.631 88.243,75.464 95.155,70.777ZM185.047,134.781C186.244,134.781 187.215,136.099 187.215,137.722C187.215,139.345 186.244,140.663 185.047,140.663C183.85,140.663 182.879,139.345 182.879,137.722C182.879,136.099 183.85,134.781 185.047,134.781ZM189.034,121.626C190.064,122.261 190.241,123.846 189.429,125.162C188.617,126.479 187.122,127.032 186.091,126.396C185.061,125.761 184.884,124.176 185.696,122.859C186.508,121.543 188.003,120.99 189.034,121.626ZM195.429,111.591C196.459,112.226 196.637,113.811 195.825,115.127C195.013,116.444 193.517,116.997 192.486,116.361C191.456,115.725 191.279,114.141 192.091,112.824C192.903,111.508 194.399,110.955 195.429,111.591ZM113.647,76.714C99.742,76.851 88.489,89.338 88.489,105.625C88.489,105.914 113.647,105.76 113.647,105.76L113.647,76.714ZM115.201,76.753L115.201,105.76L139.238,105.76C138.965,90.193 128.413,77.555 115.201,76.753ZM194.462,99.049C195.298,98.173 196.885,98.329 198.004,99.396C199.123,100.464 199.354,102.042 198.518,102.918C197.683,103.794 196.096,103.638 194.976,102.571C193.857,101.503 193.627,99.925 194.462,99.049ZM162.324,95.208C161.692,96.988 159.366,97.789 157.132,96.996C154.899,96.203 153.599,94.114 154.231,92.334C154.863,90.554 157.19,89.753 159.423,90.547C161.656,91.34 162.956,93.429 162.324,95.208ZM161.018,94.714C160.617,95.842 159.05,96.316 157.521,95.773C155.991,95.23 155.074,93.874 155.475,92.746C155.875,91.618 157.442,91.144 158.972,91.687C160.501,92.23 161.418,93.587 161.018,94.714ZM180.471,71.831C177.982,74.077 175.097,71.665 175.312,70.773C175.558,69.753 176.789,69.531 177.554,71.18C179.062,69.765 179.695,68.503 176.955,67.835C178.533,66.04 178.489,64.572 177.863,63.221C175.844,63.816 174.84,65.012 174.899,66.836C172.985,65.621 171.99,66.087 172.004,68.399C173.586,67.24 174.815,70.111 172.922,70.026C170.603,69.923 169.226,67.678 169.506,66.42C170.137,66.72 170.649,67.237 171.03,68L172.204,65.235C171.468,65.508 170.732,65.587 169.995,65.394C170.629,64.732 171.397,64.201 172.279,63.779L169.683,62.572C168.75,64.807 167.971,67.272 167.246,69.818C174.749,74.448 182.319,78.818 189.926,83.046C191.736,81.22 193.501,79.354 195.168,77.4L192.816,75.319C192.855,76.286 192.762,77.266 192.503,78.262C192.077,77.846 191.856,77.158 191.775,76.285L189.741,78.769C190.73,78.926 191.456,79.127 191.866,79.382C189.125,80.647 187.277,78.769 186.97,78.08C186.571,77.18 187.907,75.739 188.901,78.197C190.673,77.272 191.112,75.505 188.826,74.952C190.385,73.662 190.848,72.151 190.524,70.483C188.597,70.712 187.283,71.672 186.822,73.65C185.383,71.652 184.025,72.273 183.804,74.704C185.164,74.436 186.093,75.408 185.483,76.208C184.384,77.648 180.257,74.869 181.691,72.551C182.108,73.077 182.36,73.823 182.454,74.777L184.526,71.355C183.76,71.639 183.049,71.671 182.405,71.399C183.209,70.328 184.175,70.056 185.187,70.008L180.971,67.494C181.288,68.527 181.34,69.551 181.024,70.56C180.469,70.071 180.248,69.465 180.154,68.813L178.121,72.376C180.132,71.417 180.343,71.826 180.471,71.831C180.507,71.798 180.544,71.764 180.58,71.73C180.531,71.807 180.504,71.832 180.471,71.831ZM155.64,74.901C156.601,74.901 157.381,75.998 157.381,77.349C157.381,78.7 156.601,79.797 155.64,79.797C154.68,79.797 153.9,78.7 153.9,77.349C153.9,75.998 154.68,74.901 155.64,74.901ZM164.518,67.312C165.537,68.722 164.926,70.905 163.156,72.183C161.386,73.461 159.122,73.354 158.103,71.943C157.085,70.532 157.695,68.349 159.465,67.071C161.236,65.793 163.5,65.901 164.518,67.312ZM163.46,68.044C164.105,68.938 163.645,70.374 162.432,71.249C161.22,72.124 159.712,72.109 159.066,71.215C158.421,70.322 158.882,68.885 160.094,68.01C161.306,67.135 162.815,67.15 163.46,68.044ZM131.237,69.598C135.047,66.838 134.964,64.253 129.695,62.388C124.534,60.562 103.609,60.559 98.38,62.419C93.088,64.3 93.027,66.894 96.894,69.669C102.045,66.589 107.908,64.847 114.125,64.847C120.294,64.847 126.114,66.563 131.237,69.598ZM57.63,48.868L53.554,50.443C52.901,50.913 52.606,51.57 52.734,52.447C52.807,53.82 53.158,53.838 53.761,52.621C54.626,50.878 56.193,51.52 55.255,53.732C58.819,52.372 60.504,54.738 58.003,57.471C57.987,59.725 58.69,61.049 59.771,61.884C61.766,63.422 65.004,62.586 64.906,59.228C64.864,57.784 63.89,56.354 63.152,55.741C58.93,54.827 59.515,52.242 62.365,51.002C59.657,49.945 60.87,48.678 63.032,49.338C63.741,49.547 63.884,49.247 63.639,48.598L62.468,47.621C62.014,47.415 61.551,47.412 61.083,47.528L57.63,48.868ZM101.104,41.19C97.835,46.198 99.82,47.125 101.797,49.846C105.204,43.87 102.08,43.896 101.104,41.19ZM126.918,41.19C130.187,46.198 128.203,47.125 126.225,49.846C122.818,43.87 125.943,43.896 126.918,41.19ZM53.04,44.563C50.712,45.509 48.354,46.295 45.978,46.978C47.093,47.455 48.167,48.016 49.138,48.78C51.019,50.259 53.766,47.784 53.04,44.563ZM171.944,47.857C173.825,46.855 175.914,46.297 178.212,46.182C175.93,44.285 173.884,43.91 172.847,44.926C171.909,45.844 172.695,45.664 171.944,47.857ZM58.214,42.653C60.546,41.717 62.788,40.645 64.971,39.485C64.501,40.604 64.118,41.752 63.95,42.977C63.624,45.347 59.929,45.475 58.214,42.653ZM113.096,43.128L110.92,43.135L110.92,34.895C111.611,35.351 112.317,35.653 113.071,35.496L113.096,43.128ZM114.982,43.128L117.157,43.135L117.157,34.895C116.467,35.351 115.76,35.653 115.007,35.496L114.982,43.128ZM48.492,30.764L52.01,29.372C51.677,30.212 51.443,31.061 51.466,31.931C52.169,31.538 52.788,30.971 53.331,30.246L53.958,33.186C53.097,32.509 52.334,32.278 51.685,32.568C52.848,35.656 56.806,34.047 56.182,31.794C55.983,31.073 55.265,31.254 54.925,32.01C53.98,31.192 54.483,30.055 55.832,30.252C54.762,28.727 54.784,27.525 55.655,26.575C56.92,27.354 57.205,28.544 56.615,30.102C57.986,29.52 58.439,30.146 58.443,31.365C57.801,30.885 57.052,30.892 57.085,31.639C57.186,33.954 59.582,32.798 59.936,31.312C60.077,30.924 60.085,30.573 59.978,30.253C59.581,30.456 59.295,30.773 59.029,31.111L58.924,28.397C59.235,28.878 59.593,29.227 60.018,29.393C60.051,28.791 59.936,28.217 59.54,27.697L61.346,27.788C60.85,30.036 60.749,32.263 61.008,34.472C58.367,34.892 55.803,35.591 53.304,36.522C53.304,36.522 47.773,38.927 45.235,40.58C43.946,38.768 42.378,37.182 40.502,35.847L41.781,34.569C41.836,35.22 42.136,35.723 42.563,36.148C42.768,35.74 42.8,35.241 42.708,34.676L44.449,36.759C44.026,36.687 43.601,36.644 43.17,36.759C43.305,37.068 43.546,37.324 43.912,37.517C45.17,38.382 47.723,37.633 46.246,35.847C45.769,35.272 45.209,35.769 45.055,36.555C44.24,35.648 44.157,34.88 45.563,34.392C44.081,33.632 43.495,32.558 43.912,31.133C45.195,31.253 46.017,32.13 46.246,33.979C47.115,32.928 48.25,33.434 48.097,34.676C47.338,34.343 46.684,34.689 47.019,35.358C48.067,37.448 52.082,35.988 50.875,32.917C50.199,33.137 49.788,33.82 49.603,34.9L48.097,32.297C48.986,32.471 49.826,32.477 50.611,32.297C50.044,31.636 49.301,31.164 48.492,30.764ZM40.048,32.623C40.73,32.623 41.284,33.177 41.284,33.859C41.284,34.542 40.73,35.095 40.048,35.095C39.366,35.095 38.812,34.542 38.812,33.859C38.812,33.177 39.366,32.623 40.048,32.623ZM119.429,28.819C118.899,31.333 116.666,33.222 113.996,33.222C111.325,33.222 109.092,31.333 108.562,28.819L119.429,28.819ZM39.629,29.237C40.312,29.237 40.866,29.79 40.866,30.473C40.866,31.155 40.312,31.709 39.629,31.709C38.947,31.709 38.393,31.155 38.393,30.473C38.393,29.79 38.947,29.237 39.629,29.237ZM41.559,26.439C42.242,26.439 42.796,26.993 42.796,27.675C42.796,28.357 42.242,28.911 41.559,28.911C40.877,28.911 40.323,28.357 40.323,27.675C40.323,26.993 40.877,26.439 41.559,26.439ZM44.905,26.279C45.588,26.279 46.141,26.833 46.141,27.515C46.141,28.198 45.588,28.752 44.905,28.752C44.223,28.752 43.669,28.198 43.669,27.515C43.669,26.833 44.223,26.279 44.905,26.279ZM47.478,23.169L49.487,21.807L50.055,23.929L47.741,23.761L47.733,23.769C48.506,24.346 50.078,25.588 50.448,26.401C50.824,27.227 50.459,28.203 49.632,28.579C48.806,28.955 47.83,28.589 47.454,27.763C47.112,27.01 47.254,24.95 47.322,23.929L45.59,25.699L44.736,23.676L47.008,23.488L45.297,21.582L47.322,20.732L47.478,23.169ZM119.485,26.825L115.04,26.825L115.04,22.214C117.335,22.651 119.13,24.502 119.485,26.825ZM112.966,26.825L108.506,26.825C108.861,24.497 110.664,22.643 112.966,22.211L112.966,26.825ZM60.124,24.301C60.806,24.301 61.36,24.855 61.36,25.537C61.36,26.219 60.806,26.773 60.124,26.773C59.441,26.773 58.887,26.219 58.887,25.537C58.887,24.855 59.441,24.301 60.124,24.301ZM51.898,23.219C52.58,23.219 53.134,23.773 53.134,24.455C53.134,25.137 52.58,25.691 51.898,25.691C51.215,25.691 50.662,25.137 50.662,24.455C50.662,23.773 51.215,23.219 51.898,23.219ZM58.069,21.596C58.751,21.596 59.305,22.15 59.305,22.832C59.305,23.514 58.751,24.068 58.069,24.068C57.386,24.068 56.833,23.514 56.833,22.832C56.833,22.15 57.386,21.596 58.069,21.596ZM54.731,21.072C55.413,21.072 55.967,21.626 55.967,22.308C55.967,22.99 55.413,23.544 54.731,23.544C54.049,23.544 53.495,22.99 53.495,22.308C53.495,21.626 54.049,21.072 54.731,21.072ZM116.708,21.618L111.157,21.618C113.853,18.609 113.126,17.882 113.126,17.882C113.126,17.882 112.402,17.157 109.406,19.837L109.406,14.383C112.448,17.121 113.181,16.388 113.181,16.388C113.181,16.388 113.985,15.584 110.766,12.167L117.21,12.167C113.958,15.609 114.767,16.418 114.767,16.418C114.767,16.418 115.521,17.173 118.676,14.292L118.676,20.028C115.475,17.088 114.712,17.851 114.712,17.851C114.712,17.851 113.98,18.583 116.708,21.618Z"
   id="path2"
   style="fill:#ffffff;fill-opacity:1" />
        <g
   transform="matrix(1,0,0,1,-26.8908,-14.7093)"
   id="g92"
   style="fill:#ffffff;fill-opacity:1">
            <path
   d="M257.611,55.129L257.611,83.689L261.211,83.689L261.211,59.929L261.291,59.929L270.211,83.689L273.451,83.689L282.371,59.929L282.451,59.929L282.451,83.689L286.051,83.689L286.051,55.129L280.851,55.129L271.811,79.129L262.811,55.129L257.611,55.129Z"
   style="fill-rule:nonzero;fill:#ffffff;fill-opacity:1"
   id="path4" />
            <path
   d="M306.171,71.369L294.291,71.369C294.344,70.569 294.518,69.816 294.811,69.109C295.104,68.403 295.504,67.783 296.011,67.249C296.518,66.716 297.124,66.296 297.831,65.989C298.538,65.683 299.331,65.529 300.211,65.529C301.064,65.529 301.844,65.683 302.551,65.989C303.258,66.296 303.871,66.709 304.391,67.229C304.911,67.749 305.324,68.369 305.631,69.089C305.938,69.809 306.118,70.569 306.171,71.369ZM309.451,77.129L306.091,77.129C305.798,78.489 305.191,79.503 304.271,80.169C303.351,80.836 302.171,81.169 300.731,81.169C299.611,81.169 298.638,80.983 297.811,80.609C296.984,80.236 296.304,79.736 295.771,79.109C295.238,78.483 294.851,77.763 294.611,76.949C294.371,76.136 294.264,75.276 294.291,74.369L309.771,74.369C309.824,73.116 309.711,71.796 309.431,70.409C309.151,69.023 308.644,67.743 307.911,66.569C307.178,65.396 306.204,64.429 304.991,63.669C303.778,62.909 302.251,62.529 300.411,62.529C298.998,62.529 297.698,62.796 296.511,63.329C295.324,63.863 294.298,64.609 293.431,65.569C292.564,66.529 291.891,67.663 291.411,68.969C290.931,70.276 290.691,71.716 290.691,73.289C290.744,74.863 290.978,76.316 291.391,77.649C291.804,78.983 292.424,80.129 293.251,81.089C294.078,82.049 295.098,82.796 296.311,83.329C297.524,83.863 298.958,84.129 300.611,84.129C302.958,84.129 304.904,83.543 306.451,82.369C307.998,81.196 308.998,79.449 309.451,77.129Z"
   style="fill-rule:nonzero;fill:#ffffff;fill-opacity:1"
   id="path6" />
            <path
   d="M315.771,73.529C315.771,72.516 315.878,71.529 316.091,70.569C316.304,69.609 316.651,68.756 317.131,68.009C317.611,67.263 318.251,66.663 319.051,66.209C319.851,65.756 320.824,65.529 321.971,65.529C323.144,65.529 324.144,65.749 324.971,66.189C325.798,66.629 326.471,67.209 326.991,67.929C327.511,68.649 327.891,69.483 328.131,70.429C328.371,71.376 328.491,72.356 328.491,73.369C328.491,74.329 328.378,75.276 328.151,76.209C327.924,77.143 327.558,77.976 327.051,78.709C326.544,79.443 325.891,80.036 325.091,80.489C324.291,80.943 323.318,81.169 322.171,81.169C321.078,81.169 320.124,80.956 319.311,80.529C318.498,80.103 317.831,79.529 317.311,78.809C316.791,78.089 316.404,77.269 316.151,76.349C315.898,75.429 315.771,74.489 315.771,73.529ZM331.771,83.689L331.771,55.129L328.371,55.129L328.371,65.769L328.291,65.769C327.918,65.156 327.458,64.643 326.911,64.229C326.364,63.816 325.784,63.483 325.171,63.229C324.558,62.976 323.944,62.796 323.331,62.689C322.718,62.583 322.144,62.529 321.611,62.529C320.038,62.529 318.658,62.816 317.471,63.389C316.284,63.963 315.298,64.736 314.511,65.709C313.724,66.683 313.138,67.823 312.751,69.129C312.364,70.436 312.171,71.823 312.171,73.289C312.171,74.756 312.371,76.143 312.771,77.449C313.171,78.756 313.764,79.903 314.551,80.889C315.338,81.876 316.324,82.663 317.511,83.249C318.698,83.836 320.091,84.129 321.691,84.129C323.131,84.129 324.451,83.876 325.651,83.369C326.851,82.863 327.731,82.036 328.291,80.889L328.371,80.889L328.371,83.689L331.771,83.689Z"
   style="fill-rule:nonzero;fill:#ffffff;fill-opacity:1"
   id="path8" />
            <path
   d="M340.611,59.289L340.611,55.129L337.211,55.129L337.211,59.289L340.611,59.289ZM337.211,63.009L337.211,83.689L340.611,83.689L340.611,63.009L337.211,63.009Z"
   style="fill-rule:nonzero;fill:#ffffff;fill-opacity:1"
   id="path10" />
            <path
   d="M359.931,69.649L363.451,69.649C363.318,68.423 362.998,67.363 362.491,66.469C361.984,65.576 361.338,64.836 360.551,64.249C359.764,63.663 358.858,63.229 357.831,62.949C356.804,62.669 355.704,62.529 354.531,62.529C352.904,62.529 351.478,62.816 350.251,63.389C349.024,63.963 348.004,64.749 347.191,65.749C346.378,66.749 345.771,67.923 345.371,69.269C344.971,70.616 344.771,72.063 344.771,73.609C344.771,75.156 344.978,76.576 345.391,77.869C345.804,79.163 346.418,80.276 347.231,81.209C348.044,82.143 349.058,82.863 350.271,83.369C351.484,83.876 352.878,84.129 354.451,84.129C357.091,84.129 359.178,83.436 360.711,82.049C362.244,80.663 363.198,78.689 363.571,76.129L360.091,76.129C359.878,77.729 359.298,78.969 358.351,79.849C357.404,80.729 356.091,81.169 354.411,81.169C353.344,81.169 352.424,80.956 351.651,80.529C350.878,80.103 350.251,79.536 349.771,78.829C349.291,78.123 348.938,77.316 348.711,76.409C348.484,75.503 348.371,74.569 348.371,73.609C348.371,72.569 348.478,71.563 348.691,70.589C348.904,69.616 349.258,68.756 349.751,68.009C350.244,67.263 350.904,66.663 351.731,66.209C352.558,65.756 353.584,65.529 354.811,65.529C356.251,65.529 357.398,65.889 358.251,66.609C359.104,67.329 359.664,68.343 359.931,69.649Z"
   style="fill-rule:nonzero;fill:#ffffff;fill-opacity:1"
   id="path12" />
            <path
   d="M370.971,59.289L370.971,55.129L367.571,55.129L367.571,59.289L370.971,59.289ZM367.571,63.009L367.571,83.689L370.971,83.689L370.971,63.009L367.571,63.009Z"
   style="fill-rule:nonzero;fill:#ffffff;fill-opacity:1"
   id="path14" />
            <path
   d="M376.251,63.009L376.251,83.689L379.651,83.689L379.651,72.009C379.651,71.076 379.778,70.216 380.031,69.429C380.284,68.643 380.664,67.956 381.171,67.369C381.678,66.783 382.311,66.329 383.071,66.009C383.831,65.689 384.731,65.529 385.771,65.529C387.078,65.529 388.104,65.903 388.851,66.649C389.598,67.396 389.971,68.409 389.971,69.689L389.971,83.689L393.371,83.689L393.371,70.089C393.371,68.969 393.258,67.949 393.031,67.029C392.804,66.109 392.411,65.316 391.851,64.649C391.291,63.983 390.558,63.463 389.651,63.089C388.744,62.716 387.611,62.529 386.251,62.529C383.184,62.529 380.944,63.783 379.531,66.289L379.451,66.289L379.451,63.009L376.251,63.009Z"
   style="fill-rule:nonzero;fill:#ffffff;fill-opacity:1"
   id="path16" />
            <path
   d="M412.851,71.369L400.971,71.369C401.024,70.569 401.198,69.816 401.491,69.109C401.784,68.403 402.184,67.783 402.691,67.249C403.198,66.716 403.804,66.296 404.511,65.989C405.218,65.683 406.011,65.529 406.891,65.529C407.744,65.529 408.524,65.683 409.231,65.989C409.938,66.296 410.551,66.709 411.071,67.229C411.591,67.749 412.004,68.369 412.311,69.089C412.618,69.809 412.798,70.569 412.851,71.369ZM416.131,77.129L412.771,77.129C412.478,78.489 411.871,79.503 410.951,80.169C410.031,80.836 408.851,81.169 407.411,81.169C406.291,81.169 405.318,80.983 404.491,80.609C403.664,80.236 402.984,79.736 402.451,79.109C401.918,78.483 401.531,77.763 401.291,76.949C401.051,76.136 400.944,75.276 400.971,74.369L416.451,74.369C416.504,73.116 416.391,71.796 416.111,70.409C415.831,69.023 415.324,67.743 414.591,66.569C413.858,65.396 412.884,64.429 411.671,63.669C410.458,62.909 408.931,62.529 407.091,62.529C405.678,62.529 404.378,62.796 403.191,63.329C402.004,63.863 400.978,64.609 400.111,65.569C399.244,66.529 398.571,67.663 398.091,68.969C397.611,70.276 397.371,71.716 397.371,73.289C397.424,74.863 397.658,76.316 398.071,77.649C398.484,78.983 399.104,80.129 399.931,81.089C400.758,82.049 401.778,82.796 402.991,83.329C404.204,83.863 405.638,84.129 407.291,84.129C409.638,84.129 411.584,83.543 413.131,82.369C414.678,81.196 415.678,79.449 416.131,77.129Z"
   style="fill-rule:nonzero;fill:#ffffff;fill-opacity:1"
   id="path18" />
            <path
   d="M422.051,77.169L418.651,77.169C418.704,78.449 418.971,79.536 419.451,80.429C419.931,81.323 420.571,82.043 421.371,82.589C422.171,83.136 423.091,83.529 424.131,83.769C425.171,84.009 426.264,84.129 427.411,84.129C428.451,84.129 429.498,84.029 430.551,83.829C431.604,83.629 432.551,83.276 433.391,82.769C434.231,82.263 434.911,81.596 435.431,80.769C435.951,79.943 436.211,78.903 436.211,77.649C436.211,76.663 436.018,75.836 435.631,75.169C435.244,74.503 434.738,73.949 434.111,73.509C433.484,73.069 432.764,72.716 431.951,72.449C431.138,72.183 430.304,71.956 429.451,71.769C428.651,71.583 427.851,71.403 427.051,71.229C426.251,71.056 425.531,70.843 424.891,70.589C424.251,70.336 423.724,70.016 423.311,69.629C422.898,69.243 422.691,68.756 422.691,68.169C422.691,67.636 422.824,67.203 423.091,66.869C423.358,66.536 423.704,66.269 424.131,66.069C424.558,65.869 425.031,65.729 425.551,65.649C426.071,65.569 426.584,65.529 427.091,65.529C427.651,65.529 428.204,65.589 428.751,65.709C429.298,65.829 429.798,66.023 430.251,66.289C430.704,66.556 431.078,66.909 431.371,67.349C431.664,67.789 431.838,68.343 431.891,69.009L435.291,69.009C435.211,67.756 434.944,66.709 434.491,65.869C434.038,65.029 433.431,64.363 432.671,63.869C431.911,63.376 431.038,63.029 430.051,62.829C429.064,62.629 427.984,62.529 426.811,62.529C425.904,62.529 424.991,62.643 424.071,62.869C423.151,63.096 422.324,63.443 421.591,63.909C420.858,64.376 420.258,64.983 419.791,65.729C419.324,66.476 419.091,67.369 419.091,68.409C419.091,69.743 419.424,70.783 420.091,71.529C420.758,72.276 421.591,72.856 422.591,73.269C423.591,73.683 424.678,74.003 425.851,74.229C427.024,74.456 428.111,74.709 429.111,74.989C430.111,75.269 430.944,75.636 431.611,76.089C432.278,76.543 432.611,77.209 432.611,78.089C432.611,78.729 432.451,79.256 432.131,79.669C431.811,80.083 431.404,80.396 430.911,80.609C430.418,80.823 429.878,80.969 429.291,81.049C428.704,81.129 428.144,81.169 427.611,81.169C426.918,81.169 426.244,81.103 425.591,80.969C424.938,80.836 424.351,80.616 423.831,80.309C423.311,80.003 422.891,79.589 422.571,79.069C422.251,78.549 422.078,77.916 422.051,77.169Z"
   style="fill-rule:nonzero;fill:#ffffff;fill-opacity:1"
   id="path20" />
            <path
   d="M459.531,66.129C459.211,65.729 458.891,65.329 458.571,64.929C458.251,64.529 457.958,64.123 457.691,63.709C457.424,63.296 457.204,62.876 457.031,62.449C456.858,62.023 456.771,61.596 456.771,61.169C456.771,60.129 457.118,59.363 457.811,58.869C458.504,58.376 459.251,58.129 460.051,58.129C461.064,58.129 461.864,58.429 462.451,59.029C463.038,59.629 463.331,60.343 463.331,61.169C463.331,61.783 463.211,62.336 462.971,62.829C462.731,63.323 462.424,63.769 462.051,64.169C461.678,64.569 461.264,64.929 460.811,65.249C460.358,65.569 459.931,65.863 459.531,66.129ZM466.851,80.129L469.891,83.689L474.331,83.689L468.771,77.249C469.064,76.609 469.318,76.043 469.531,75.549C469.744,75.056 469.924,74.556 470.071,74.049C470.218,73.543 470.338,72.989 470.431,72.389C470.524,71.789 470.611,71.063 470.691,70.209L467.451,70.209C467.371,71.676 467.064,73.156 466.531,74.649L461.371,68.369C462.064,67.969 462.731,67.523 463.371,67.029C464.011,66.536 464.584,65.983 465.091,65.369C465.598,64.756 465.998,64.083 466.291,63.349C466.584,62.616 466.731,61.823 466.731,60.969C466.731,60.009 466.538,59.163 466.151,58.429C465.764,57.696 465.251,57.083 464.611,56.589C463.971,56.096 463.231,55.729 462.391,55.489C461.551,55.249 460.691,55.129 459.811,55.129C458.771,55.129 457.851,55.289 457.051,55.609C456.251,55.929 455.578,56.363 455.031,56.909C454.484,57.456 454.071,58.083 453.791,58.789C453.511,59.496 453.371,60.236 453.371,61.009C453.371,61.729 453.458,62.376 453.631,62.949C453.804,63.523 454.044,64.069 454.351,64.589C454.658,65.109 454.998,65.623 455.371,66.129C455.744,66.636 456.131,67.169 456.531,67.729C455.624,68.209 454.764,68.723 453.951,69.269C453.138,69.816 452.431,70.429 451.831,71.109C451.231,71.789 450.751,72.556 450.391,73.409C450.031,74.263 449.851,75.249 449.851,76.369C449.851,76.956 449.951,77.689 450.151,78.569C450.351,79.449 450.771,80.303 451.411,81.129C452.051,81.956 452.958,82.663 454.131,83.249C455.304,83.836 456.851,84.129 458.771,84.129C460.344,84.129 461.871,83.796 463.351,83.129C464.831,82.463 465.998,81.463 466.851,80.129ZM458.411,69.889L464.971,77.769C464.278,78.809 463.418,79.636 462.391,80.249C461.364,80.863 460.198,81.169 458.891,81.169C458.198,81.169 457.524,81.049 456.871,80.809C456.218,80.569 455.638,80.243 455.131,79.829C454.624,79.416 454.218,78.909 453.911,78.309C453.604,77.709 453.451,77.049 453.451,76.329C453.451,75.476 453.584,74.736 453.851,74.109C454.118,73.483 454.478,72.916 454.931,72.409C455.384,71.903 455.911,71.449 456.511,71.049C457.111,70.649 457.744,70.263 458.411,69.889Z"
   style="fill-rule:nonzero;fill:#ffffff;fill-opacity:1"
   id="path22" />
            <path
   d="M257.531,96.249L257.531,124.809L261.331,124.809L261.331,111.729L276.371,111.729L276.371,124.809L280.171,124.809L280.171,96.249L276.371,96.249L276.371,108.529L261.331,108.529L261.331,96.249L257.531,96.249Z"
   style="fill-rule:nonzero;fill:#ffffff;fill-opacity:1"
   id="path24" />
            <path
   d="M300.211,112.489L288.331,112.489C288.384,111.689 288.558,110.936 288.851,110.229C289.144,109.523 289.544,108.903 290.051,108.369C290.558,107.836 291.164,107.416 291.871,107.109C292.578,106.803 293.371,106.649 294.251,106.649C295.104,106.649 295.884,106.803 296.591,107.109C297.298,107.416 297.911,107.829 298.431,108.349C298.951,108.869 299.364,109.489 299.671,110.209C299.978,110.929 300.158,111.689 300.211,112.489ZM303.491,118.249L300.131,118.249C299.838,119.609 299.231,120.623 298.311,121.289C297.391,121.956 296.211,122.289 294.771,122.289C293.651,122.289 292.678,122.103 291.851,121.729C291.024,121.356 290.344,120.856 289.811,120.229C289.278,119.603 288.891,118.883 288.651,118.069C288.411,117.256 288.304,116.396 288.331,115.489L303.811,115.489C303.864,114.236 303.751,112.916 303.471,111.529C303.191,110.143 302.684,108.863 301.951,107.689C301.218,106.516 300.244,105.549 299.031,104.789C297.818,104.029 296.291,103.649 294.451,103.649C293.038,103.649 291.738,103.916 290.551,104.449C289.364,104.983 288.338,105.729 287.471,106.689C286.604,107.649 285.931,108.783 285.451,110.089C284.971,111.396 284.731,112.836 284.731,114.409C284.784,115.983 285.018,117.436 285.431,118.769C285.844,120.103 286.464,121.249 287.291,122.209C288.118,123.169 289.138,123.916 290.351,124.449C291.564,124.983 292.998,125.249 294.651,125.249C296.998,125.249 298.944,124.663 300.491,123.489C302.038,122.316 303.038,120.569 303.491,118.249Z"
   style="fill-rule:nonzero;fill:#ffffff;fill-opacity:1"
   id="path26" />
            <path
   d="M325.651,124.729C325.064,125.076 324.251,125.249 323.211,125.249C322.331,125.249 321.631,125.003 321.111,124.509C320.591,124.016 320.331,123.209 320.331,122.089C319.398,123.209 318.311,124.016 317.071,124.509C315.831,125.003 314.491,125.249 313.051,125.249C312.118,125.249 311.231,125.143 310.391,124.929C309.551,124.716 308.824,124.383 308.211,123.929C307.598,123.476 307.111,122.883 306.751,122.149C306.391,121.416 306.211,120.529 306.211,119.489C306.211,118.316 306.411,117.356 306.811,116.609C307.211,115.863 307.738,115.256 308.391,114.789C309.044,114.323 309.791,113.969 310.631,113.729C311.471,113.489 312.331,113.289 313.211,113.129C314.144,112.943 315.031,112.803 315.871,112.709C316.711,112.616 317.451,112.483 318.091,112.309C318.731,112.136 319.238,111.883 319.611,111.549C319.984,111.216 320.171,110.729 320.171,110.089C320.171,109.343 320.031,108.743 319.751,108.289C319.471,107.836 319.111,107.489 318.671,107.249C318.231,107.009 317.738,106.849 317.191,106.769C316.644,106.689 316.104,106.649 315.571,106.649C314.131,106.649 312.931,106.923 311.971,107.469C311.011,108.016 310.491,109.049 310.411,110.569L307.011,110.569C307.064,109.289 307.331,108.209 307.811,107.329C308.291,106.449 308.931,105.736 309.731,105.189C310.531,104.643 311.444,104.249 312.471,104.009C313.498,103.769 314.598,103.649 315.771,103.649C316.704,103.649 317.631,103.716 318.551,103.849C319.471,103.983 320.304,104.256 321.051,104.669C321.798,105.083 322.398,105.663 322.851,106.409C323.304,107.156 323.531,108.129 323.531,109.329L323.531,119.969C323.531,120.769 323.578,121.356 323.671,121.729C323.764,122.103 324.078,122.289 324.611,122.289C324.904,122.289 325.251,122.223 325.651,122.089L325.651,124.729ZM320.131,114.129C319.704,114.449 319.144,114.683 318.451,114.829C317.758,114.976 317.031,115.096 316.271,115.189C315.511,115.283 314.744,115.389 313.971,115.509C313.198,115.629 312.504,115.823 311.891,116.089C311.278,116.356 310.778,116.736 310.391,117.229C310.004,117.723 309.811,118.396 309.811,119.249C309.811,119.809 309.924,120.283 310.151,120.669C310.378,121.056 310.671,121.369 311.031,121.609C311.391,121.849 311.811,122.023 312.291,122.129C312.771,122.236 313.278,122.289 313.811,122.289C314.931,122.289 315.891,122.136 316.691,121.829C317.491,121.523 318.144,121.136 318.651,120.669C319.158,120.203 319.531,119.696 319.771,119.149C320.011,118.603 320.131,118.089 320.131,117.609L320.131,114.129Z"
   style="fill-rule:nonzero;fill:#ffffff;fill-opacity:1"
   id="path28" />
            <rect
   x="329.011"
   y="96.249"
   width="3.4"
   height="28.56"
   style="fill-rule:nonzero;fill:#ffffff;fill-opacity:1"
   id="rect30" />
            <path
   d="M342.411,104.129L342.411,97.929L339.011,97.929L339.011,104.129L335.491,104.129L335.491,107.129L339.011,107.129L339.011,120.289C339.011,121.249 339.104,122.023 339.291,122.609C339.478,123.196 339.764,123.649 340.151,123.969C340.538,124.289 341.044,124.509 341.671,124.629C342.298,124.749 343.051,124.809 343.931,124.809L346.531,124.809L346.531,121.809L344.971,121.809C344.438,121.809 344.004,121.789 343.671,121.749C343.338,121.709 343.078,121.623 342.891,121.489C342.704,121.356 342.578,121.169 342.511,120.929C342.444,120.689 342.411,120.369 342.411,119.969L342.411,107.129L346.531,107.129L346.531,104.129L342.411,104.129Z"
   style="fill-rule:nonzero;fill:#ffffff;fill-opacity:1"
   id="path32" />
            <path
   d="M350.291,96.249L350.291,124.809L353.691,124.809L353.691,113.129C353.691,112.196 353.818,111.336 354.071,110.549C354.324,109.763 354.704,109.076 355.211,108.489C355.718,107.903 356.351,107.449 357.111,107.129C357.871,106.809 358.771,106.649 359.811,106.649C361.118,106.649 362.144,107.023 362.891,107.769C363.638,108.516 364.011,109.529 364.011,110.809L364.011,124.809L367.411,124.809L367.411,111.209C367.411,110.089 367.298,109.069 367.071,108.149C366.844,107.229 366.451,106.436 365.891,105.769C365.331,105.103 364.598,104.583 363.691,104.209C362.784,103.836 361.651,103.649 360.291,103.649C359.678,103.649 359.044,103.716 358.391,103.849C357.738,103.983 357.111,104.189 356.511,104.469C355.911,104.749 355.371,105.109 354.891,105.549C354.411,105.989 354.038,106.529 353.771,107.169L353.691,107.169L353.691,96.249L350.291,96.249Z"
   style="fill-rule:nonzero;fill:#ffffff;fill-opacity:1"
   id="path34" />
            <path
   d="M386.571,110.769L390.091,110.769C389.958,109.543 389.638,108.483 389.131,107.589C388.624,106.696 387.978,105.956 387.191,105.369C386.404,104.783 385.498,104.349 384.471,104.069C383.444,103.789 382.344,103.649 381.171,103.649C379.544,103.649 378.118,103.936 376.891,104.509C375.664,105.083 374.644,105.869 373.831,106.869C373.018,107.869 372.411,109.043 372.011,110.389C371.611,111.736 371.411,113.183 371.411,114.729C371.411,116.276 371.618,117.696 372.031,118.989C372.444,120.283 373.058,121.396 373.871,122.329C374.684,123.263 375.698,123.983 376.911,124.489C378.124,124.996 379.518,125.249 381.091,125.249C383.731,125.249 385.818,124.556 387.351,123.169C388.884,121.783 389.838,119.809 390.211,117.249L386.731,117.249C386.518,118.849 385.938,120.089 384.991,120.969C384.044,121.849 382.731,122.289 381.051,122.289C379.984,122.289 379.064,122.076 378.291,121.649C377.518,121.223 376.891,120.656 376.411,119.949C375.931,119.243 375.578,118.436 375.351,117.529C375.124,116.623 375.011,115.689 375.011,114.729C375.011,113.689 375.118,112.683 375.331,111.709C375.544,110.736 375.898,109.876 376.391,109.129C376.884,108.383 377.544,107.783 378.371,107.329C379.198,106.876 380.224,106.649 381.451,106.649C382.891,106.649 384.038,107.009 384.891,107.729C385.744,108.449 386.304,109.463 386.571,110.769Z"
   style="fill-rule:nonzero;fill:#ffffff;fill-opacity:1"
   id="path36" />
            <path
   d="M412.331,124.729C411.744,125.076 410.931,125.249 409.891,125.249C409.011,125.249 408.311,125.003 407.791,124.509C407.271,124.016 407.011,123.209 407.011,122.089C406.078,123.209 404.991,124.016 403.751,124.509C402.511,125.003 401.171,125.249 399.731,125.249C398.798,125.249 397.911,125.143 397.071,124.929C396.231,124.716 395.504,124.383 394.891,123.929C394.278,123.476 393.791,122.883 393.431,122.149C393.071,121.416 392.891,120.529 392.891,119.489C392.891,118.316 393.091,117.356 393.491,116.609C393.891,115.863 394.418,115.256 395.071,114.789C395.724,114.323 396.471,113.969 397.311,113.729C398.151,113.489 399.011,113.289 399.891,113.129C400.824,112.943 401.711,112.803 402.551,112.709C403.391,112.616 404.131,112.483 404.771,112.309C405.411,112.136 405.918,111.883 406.291,111.549C406.664,111.216 406.851,110.729 406.851,110.089C406.851,109.343 406.711,108.743 406.431,108.289C406.151,107.836 405.791,107.489 405.351,107.249C404.911,107.009 404.418,106.849 403.871,106.769C403.324,106.689 402.784,106.649 402.251,106.649C400.811,106.649 399.611,106.923 398.651,107.469C397.691,108.016 397.171,109.049 397.091,110.569L393.691,110.569C393.744,109.289 394.011,108.209 394.491,107.329C394.971,106.449 395.611,105.736 396.411,105.189C397.211,104.643 398.124,104.249 399.151,104.009C400.178,103.769 401.278,103.649 402.451,103.649C403.384,103.649 404.311,103.716 405.231,103.849C406.151,103.983 406.984,104.256 407.731,104.669C408.478,105.083 409.078,105.663 409.531,106.409C409.984,107.156 410.211,108.129 410.211,109.329L410.211,119.969C410.211,120.769 410.258,121.356 410.351,121.729C410.444,122.103 410.758,122.289 411.291,122.289C411.584,122.289 411.931,122.223 412.331,122.089L412.331,124.729ZM406.811,114.129C406.384,114.449 405.824,114.683 405.131,114.829C404.438,114.976 403.711,115.096 402.951,115.189C402.191,115.283 401.424,115.389 400.651,115.509C399.878,115.629 399.184,115.823 398.571,116.089C397.958,116.356 397.458,116.736 397.071,117.229C396.684,117.723 396.491,118.396 396.491,119.249C396.491,119.809 396.604,120.283 396.831,120.669C397.058,121.056 397.351,121.369 397.711,121.609C398.071,121.849 398.491,122.023 398.971,122.129C399.451,122.236 399.958,122.289 400.491,122.289C401.611,122.289 402.571,122.136 403.371,121.829C404.171,121.523 404.824,121.136 405.331,120.669C405.838,120.203 406.211,119.696 406.451,119.149C406.691,118.603 406.811,118.089 406.811,117.609L406.811,114.129Z"
   style="fill-rule:nonzero;fill:#ffffff;fill-opacity:1"
   id="path38" />
            <path
   d="M415.371,104.129L415.371,124.809L418.771,124.809L418.771,115.609C418.771,114.276 418.904,113.096 419.171,112.069C419.438,111.043 419.864,110.169 420.451,109.449C421.038,108.729 421.811,108.183 422.771,107.809C423.731,107.436 424.891,107.249 426.251,107.249L426.251,103.649C424.411,103.596 422.891,103.969 421.691,104.769C420.491,105.569 419.478,106.809 418.651,108.489L418.571,108.489L418.571,104.129L415.371,104.129Z"
   style="fill-rule:nonzero;fill:#ffffff;fill-opacity:1"
   id="path40" />
            <path
   d="M442.451,112.489L430.571,112.489C430.624,111.689 430.798,110.936 431.091,110.229C431.384,109.523 431.784,108.903 432.291,108.369C432.798,107.836 433.404,107.416 434.111,107.109C434.818,106.803 435.611,106.649 436.491,106.649C437.344,106.649 438.124,106.803 438.831,107.109C439.538,107.416 440.151,107.829 440.671,108.349C441.191,108.869 441.604,109.489 441.911,110.209C442.218,110.929 442.398,111.689 442.451,112.489ZM445.731,118.249L442.371,118.249C442.078,119.609 441.471,120.623 440.551,121.289C439.631,121.956 438.451,122.289 437.011,122.289C435.891,122.289 434.918,122.103 434.091,121.729C433.264,121.356 432.584,120.856 432.051,120.229C431.518,119.603 431.131,118.883 430.891,118.069C430.651,117.256 430.544,116.396 430.571,115.489L446.051,115.489C446.104,114.236 445.991,112.916 445.711,111.529C445.431,110.143 444.924,108.863 444.191,107.689C443.458,106.516 442.484,105.549 441.271,104.789C440.058,104.029 438.531,103.649 436.691,103.649C435.278,103.649 433.978,103.916 432.791,104.449C431.604,104.983 430.578,105.729 429.711,106.689C428.844,107.649 428.171,108.783 427.691,110.089C427.211,111.396 426.971,112.836 426.971,114.409C427.024,115.983 427.258,117.436 427.671,118.769C428.084,120.103 428.704,121.249 429.531,122.209C430.358,123.169 431.378,123.916 432.591,124.449C433.804,124.983 435.238,125.249 436.891,125.249C439.238,125.249 441.184,124.663 442.731,123.489C444.278,122.316 445.278,120.569 445.731,118.249Z"
   style="fill-rule:nonzero;fill:#ffffff;fill-opacity:1"
   id="path42" />
            <path
   d="M460.811,104.129L460.811,132.689L464.211,132.689L464.211,122.049L464.291,122.049C464.664,122.663 465.124,123.176 465.671,123.589C466.218,124.003 466.798,124.329 467.411,124.569C468.024,124.809 468.644,124.983 469.271,125.089C469.898,125.196 470.464,125.249 470.971,125.249C472.544,125.249 473.924,124.969 475.111,124.409C476.298,123.849 477.284,123.083 478.071,122.109C478.858,121.136 479.444,119.996 479.831,118.689C480.218,117.383 480.411,115.996 480.411,114.529C480.411,113.063 480.211,111.676 479.811,110.369C479.411,109.063 478.818,107.909 478.031,106.909C477.244,105.909 476.258,105.116 475.071,104.529C473.884,103.943 472.491,103.649 470.891,103.649C469.451,103.649 468.131,103.909 466.931,104.429C465.731,104.949 464.851,105.783 464.291,106.929L464.211,106.929L464.211,104.129L460.811,104.129ZM476.811,114.289C476.811,115.303 476.704,116.289 476.491,117.249C476.278,118.209 475.931,119.063 475.451,119.809C474.971,120.556 474.338,121.156 473.551,121.609C472.764,122.063 471.784,122.289 470.611,122.289C469.438,122.289 468.438,122.069 467.611,121.629C466.784,121.189 466.111,120.609 465.591,119.889C465.071,119.169 464.691,118.336 464.451,117.389C464.211,116.443 464.091,115.463 464.091,114.449C464.091,113.489 464.204,112.543 464.431,111.609C464.658,110.676 465.024,109.843 465.531,109.109C466.038,108.376 466.691,107.783 467.491,107.329C468.291,106.876 469.264,106.649 470.411,106.649C471.504,106.649 472.458,106.863 473.271,107.289C474.084,107.716 474.751,108.289 475.271,109.009C475.791,109.729 476.178,110.549 476.431,111.469C476.684,112.389 476.811,113.329 476.811,114.289Z"
   style="fill-rule:nonzero;fill:#ffffff;fill-opacity:1"
   id="path44" />
            <path
   d="M484.291,104.129L484.291,124.809L487.691,124.809L487.691,115.609C487.691,114.276 487.824,113.096 488.091,112.069C488.358,111.043 488.784,110.169 489.371,109.449C489.958,108.729 490.731,108.183 491.691,107.809C492.651,107.436 493.811,107.249 495.171,107.249L495.171,103.649C493.331,103.596 491.811,103.969 490.611,104.769C489.411,105.569 488.398,106.809 487.571,108.489L487.491,108.489L487.491,104.129L484.291,104.129Z"
   style="fill-rule:nonzero;fill:#ffffff;fill-opacity:1"
   id="path46" />
            <path
   d="M499.491,114.489C499.491,113.236 499.658,112.123 499.991,111.149C500.324,110.176 500.784,109.356 501.371,108.689C501.958,108.023 502.644,107.516 503.431,107.169C504.218,106.823 505.051,106.649 505.931,106.649C506.811,106.649 507.644,106.823 508.431,107.169C509.218,107.516 509.904,108.023 510.491,108.689C511.078,109.356 511.538,110.176 511.871,111.149C512.204,112.123 512.371,113.236 512.371,114.489C512.371,115.743 512.204,116.856 511.871,117.829C511.538,118.803 511.078,119.616 510.491,120.269C509.904,120.923 509.218,121.423 508.431,121.769C507.644,122.116 506.811,122.289 505.931,122.289C505.051,122.289 504.218,122.116 503.431,121.769C502.644,121.423 501.958,120.923 501.371,120.269C500.784,119.616 500.324,118.803 499.991,117.829C499.658,116.856 499.491,115.743 499.491,114.489ZM495.891,114.489C495.891,116.009 496.104,117.423 496.531,118.729C496.958,120.036 497.598,121.176 498.451,122.149C499.304,123.123 500.358,123.883 501.611,124.429C502.864,124.976 504.304,125.249 505.931,125.249C507.584,125.249 509.031,124.976 510.271,124.429C511.511,123.883 512.558,123.123 513.411,122.149C514.264,121.176 514.904,120.036 515.331,118.729C515.758,117.423 515.971,116.009 515.971,114.489C515.971,112.969 515.758,111.549 515.331,110.229C514.904,108.909 514.264,107.763 513.411,106.789C512.558,105.816 511.511,105.049 510.271,104.489C509.031,103.929 507.584,103.649 505.931,103.649C504.304,103.649 502.864,103.929 501.611,104.489C500.358,105.049 499.304,105.816 498.451,106.789C497.598,107.763 496.958,108.909 496.531,110.229C496.104,111.549 495.891,112.969 495.891,114.489Z"
   style="fill-rule:nonzero;fill:#ffffff;fill-opacity:1"
   id="path48" />
            <path
   d="M522.451,114.649C522.451,113.636 522.558,112.649 522.771,111.689C522.984,110.729 523.331,109.876 523.811,109.129C524.291,108.383 524.931,107.783 525.731,107.329C526.531,106.876 527.504,106.649 528.651,106.649C529.824,106.649 530.824,106.869 531.651,107.309C532.478,107.749 533.151,108.329 533.671,109.049C534.191,109.769 534.571,110.603 534.811,111.549C535.051,112.496 535.171,113.476 535.171,114.489C535.171,115.449 535.058,116.396 534.831,117.329C534.604,118.263 534.238,119.096 533.731,119.829C533.224,120.563 532.571,121.156 531.771,121.609C530.971,122.063 529.998,122.289 528.851,122.289C527.758,122.289 526.804,122.076 525.991,121.649C525.178,121.223 524.511,120.649 523.991,119.929C523.471,119.209 523.084,118.389 522.831,117.469C522.578,116.549 522.451,115.609 522.451,114.649ZM538.451,124.809L538.451,96.249L535.051,96.249L535.051,106.889L534.971,106.889C534.598,106.276 534.138,105.763 533.591,105.349C533.044,104.936 532.464,104.603 531.851,104.349C531.238,104.096 530.624,103.916 530.011,103.809C529.398,103.703 528.824,103.649 528.291,103.649C526.718,103.649 525.338,103.936 524.151,104.509C522.964,105.083 521.978,105.856 521.191,106.829C520.404,107.803 519.818,108.943 519.431,110.249C519.044,111.556 518.851,112.943 518.851,114.409C518.851,115.876 519.051,117.263 519.451,118.569C519.851,119.876 520.444,121.023 521.231,122.009C522.018,122.996 523.004,123.783 524.191,124.369C525.378,124.956 526.771,125.249 528.371,125.249C529.811,125.249 531.131,124.996 532.331,124.489C533.531,123.983 534.411,123.156 534.971,122.009L535.051,122.009L535.051,124.809L538.451,124.809Z"
   style="fill-rule:nonzero;fill:#ffffff;fill-opacity:1"
   id="path50" />
            <path
   d="M560.811,124.809L560.811,104.129L557.411,104.129L557.411,115.809C557.411,116.743 557.284,117.603 557.031,118.389C556.778,119.176 556.398,119.863 555.891,120.449C555.384,121.036 554.751,121.489 553.991,121.809C553.231,122.129 552.331,122.289 551.291,122.289C549.984,122.289 548.958,121.916 548.211,121.169C547.464,120.423 547.091,119.409 547.091,118.129L547.091,104.129L543.691,104.129L543.691,117.729C543.691,118.849 543.804,119.869 544.031,120.789C544.258,121.709 544.651,122.503 545.211,123.169C545.771,123.836 546.504,124.349 547.411,124.709C548.318,125.069 549.451,125.249 550.811,125.249C552.331,125.249 553.651,124.949 554.771,124.349C555.891,123.749 556.811,122.809 557.531,121.529L557.611,121.529L557.611,124.809L560.811,124.809Z"
   style="fill-rule:nonzero;fill:#ffffff;fill-opacity:1"
   id="path52" />
            <path
   d="M579.971,110.769L583.491,110.769C583.358,109.543 583.038,108.483 582.531,107.589C582.024,106.696 581.378,105.956 580.591,105.369C579.804,104.783 578.898,104.349 577.871,104.069C576.844,103.789 575.744,103.649 574.571,103.649C572.944,103.649 571.518,103.936 570.291,104.509C569.064,105.083 568.044,105.869 567.231,106.869C566.418,107.869 565.811,109.043 565.411,110.389C565.011,111.736 564.811,113.183 564.811,114.729C564.811,116.276 565.018,117.696 565.431,118.989C565.844,120.283 566.458,121.396 567.271,122.329C568.084,123.263 569.098,123.983 570.311,124.489C571.524,124.996 572.918,125.249 574.491,125.249C577.131,125.249 579.218,124.556 580.751,123.169C582.284,121.783 583.238,119.809 583.611,117.249L580.131,117.249C579.918,118.849 579.338,120.089 578.391,120.969C577.444,121.849 576.131,122.289 574.451,122.289C573.384,122.289 572.464,122.076 571.691,121.649C570.918,121.223 570.291,120.656 569.811,119.949C569.331,119.243 568.978,118.436 568.751,117.529C568.524,116.623 568.411,115.689 568.411,114.729C568.411,113.689 568.518,112.683 568.731,111.709C568.944,110.736 569.298,109.876 569.791,109.129C570.284,108.383 570.944,107.783 571.771,107.329C572.598,106.876 573.624,106.649 574.851,106.649C576.291,106.649 577.438,107.009 578.291,107.729C579.144,108.449 579.704,109.463 579.971,110.769Z"
   style="fill-rule:nonzero;fill:#ffffff;fill-opacity:1"
   id="path54" />
            <path
   d="M592.131,104.129L592.131,97.929L588.731,97.929L588.731,104.129L585.211,104.129L585.211,107.129L588.731,107.129L588.731,120.289C588.731,121.249 588.824,122.023 589.011,122.609C589.198,123.196 589.484,123.649 589.871,123.969C590.258,124.289 590.764,124.509 591.391,124.629C592.018,124.749 592.771,124.809 593.651,124.809L596.251,124.809L596.251,121.809L594.691,121.809C594.158,121.809 593.724,121.789 593.391,121.749C593.058,121.709 592.798,121.623 592.611,121.489C592.424,121.356 592.298,121.169 592.231,120.929C592.164,120.689 592.131,120.369 592.131,119.969L592.131,107.129L596.251,107.129L596.251,104.129L592.131,104.129Z"
   style="fill-rule:nonzero;fill:#ffffff;fill-opacity:1"
   id="path56" />
            <path
   d="M602.091,118.289L598.691,118.289C598.744,119.569 599.011,120.656 599.491,121.549C599.971,122.443 600.611,123.163 601.411,123.709C602.211,124.256 603.131,124.649 604.171,124.889C605.211,125.129 606.304,125.249 607.451,125.249C608.491,125.249 609.538,125.149 610.591,124.949C611.644,124.749 612.591,124.396 613.431,123.889C614.271,123.383 614.951,122.716 615.471,121.889C615.991,121.063 616.251,120.023 616.251,118.769C616.251,117.783 616.058,116.956 615.671,116.289C615.284,115.623 614.778,115.069 614.151,114.629C613.524,114.189 612.804,113.836 611.991,113.569C611.178,113.303 610.344,113.076 609.491,112.889C608.691,112.703 607.891,112.523 607.091,112.349C606.291,112.176 605.571,111.963 604.931,111.709C604.291,111.456 603.764,111.136 603.351,110.749C602.938,110.363 602.731,109.876 602.731,109.289C602.731,108.756 602.864,108.323 603.131,107.989C603.398,107.656 603.744,107.389 604.171,107.189C604.598,106.989 605.071,106.849 605.591,106.769C606.111,106.689 606.624,106.649 607.131,106.649C607.691,106.649 608.244,106.709 608.791,106.829C609.338,106.949 609.838,107.143 610.291,107.409C610.744,107.676 611.118,108.029 611.411,108.469C611.704,108.909 611.878,109.463 611.931,110.129L615.331,110.129C615.251,108.876 614.984,107.829 614.531,106.989C614.078,106.149 613.471,105.483 612.711,104.989C611.951,104.496 611.078,104.149 610.091,103.949C609.104,103.749 608.024,103.649 606.851,103.649C605.944,103.649 605.031,103.763 604.111,103.989C603.191,104.216 602.364,104.563 601.631,105.029C600.898,105.496 600.298,106.103 599.831,106.849C599.364,107.596 599.131,108.489 599.131,109.529C599.131,110.863 599.464,111.903 600.131,112.649C600.798,113.396 601.631,113.976 602.631,114.389C603.631,114.803 604.718,115.123 605.891,115.349C607.064,115.576 608.151,115.829 609.151,116.109C610.151,116.389 610.984,116.756 611.651,117.209C612.318,117.663 612.651,118.329 612.651,119.209C612.651,119.849 612.491,120.376 612.171,120.789C611.851,121.203 611.444,121.516 610.951,121.729C610.458,121.943 609.918,122.089 609.331,122.169C608.744,122.249 608.184,122.289 607.651,122.289C606.958,122.289 606.284,122.223 605.631,122.089C604.978,121.956 604.391,121.736 603.871,121.429C603.351,121.123 602.931,120.709 602.611,120.189C602.291,119.669 602.118,119.036 602.091,118.289Z"
   style="fill-rule:nonzero;fill:#ffffff;fill-opacity:1"
   id="path58" />
            <path
   d="M257.531,137.369L257.531,165.929L261.331,165.929L261.331,153.729L270.611,153.729C271.544,153.729 272.291,153.869 272.851,154.149C273.411,154.429 273.864,154.803 274.211,155.269C274.558,155.736 274.811,156.283 274.971,156.909C275.131,157.536 275.264,158.196 275.371,158.889C275.504,159.583 275.584,160.289 275.611,161.009C275.638,161.729 275.664,162.403 275.691,163.029C275.718,163.656 275.778,164.223 275.871,164.729C275.964,165.236 276.144,165.636 276.411,165.929L280.651,165.929C280.251,165.449 279.951,164.896 279.751,164.269C279.551,163.643 279.398,162.983 279.291,162.289C279.184,161.596 279.118,160.889 279.091,160.169C279.064,159.449 279.024,158.743 278.971,158.049C278.891,157.356 278.778,156.689 278.631,156.049C278.484,155.409 278.258,154.829 277.951,154.309C277.644,153.789 277.231,153.343 276.711,152.969C276.191,152.596 275.518,152.329 274.691,152.169L274.691,152.089C276.424,151.609 277.684,150.716 278.471,149.409C279.258,148.103 279.651,146.583 279.651,144.849C279.651,142.529 278.884,140.703 277.351,139.369C275.818,138.036 273.691,137.369 270.971,137.369L257.531,137.369ZM269.251,150.529L261.331,150.529L261.331,140.569L270.771,140.569C272.558,140.569 273.851,141.023 274.651,141.929C275.451,142.836 275.851,144.009 275.851,145.449C275.851,146.489 275.671,147.336 275.311,147.989C274.951,148.643 274.471,149.163 273.871,149.549C273.271,149.936 272.571,150.196 271.771,150.329C270.971,150.463 270.131,150.529 269.251,150.529Z"
   style="fill-rule:nonzero;fill:#ffffff;fill-opacity:1"
   id="path60" />
            <path
   d="M298.731,153.609L286.851,153.609C286.904,152.809 287.078,152.056 287.371,151.349C287.664,150.643 288.064,150.023 288.571,149.489C289.078,148.956 289.684,148.536 290.391,148.229C291.098,147.923 291.891,147.769 292.771,147.769C293.624,147.769 294.404,147.923 295.111,148.229C295.818,148.536 296.431,148.949 296.951,149.469C297.471,149.989 297.884,150.609 298.191,151.329C298.498,152.049 298.678,152.809 298.731,153.609ZM302.011,159.369L298.651,159.369C298.358,160.729 297.751,161.743 296.831,162.409C295.911,163.076 294.731,163.409 293.291,163.409C292.171,163.409 291.198,163.223 290.371,162.849C289.544,162.476 288.864,161.976 288.331,161.349C287.798,160.723 287.411,160.003 287.171,159.189C286.931,158.376 286.824,157.516 286.851,156.609L302.331,156.609C302.384,155.356 302.271,154.036 301.991,152.649C301.711,151.263 301.204,149.983 300.471,148.809C299.738,147.636 298.764,146.669 297.551,145.909C296.338,145.149 294.811,144.769 292.971,144.769C291.558,144.769 290.258,145.036 289.071,145.569C287.884,146.103 286.858,146.849 285.991,147.809C285.124,148.769 284.451,149.903 283.971,151.209C283.491,152.516 283.251,153.956 283.251,155.529C283.304,157.103 283.538,158.556 283.951,159.889C284.364,161.223 284.984,162.369 285.811,163.329C286.638,164.289 287.658,165.036 288.871,165.569C290.084,166.103 291.518,166.369 293.171,166.369C295.518,166.369 297.464,165.783 299.011,164.609C300.558,163.436 301.558,161.689 302.011,159.369Z"
   style="fill-rule:nonzero;fill:#ffffff;fill-opacity:1"
   id="path62" />
            <path
   d="M323.691,164.169L323.691,145.249L320.491,145.249L320.491,148.209L320.451,148.209C319.838,147.063 318.984,146.203 317.891,145.629C316.798,145.056 315.598,144.769 314.291,144.769C312.504,144.769 310.998,145.109 309.771,145.789C308.544,146.469 307.558,147.336 306.811,148.389C306.064,149.443 305.531,150.616 305.211,151.909C304.891,153.203 304.731,154.463 304.731,155.689C304.731,157.103 304.924,158.443 305.311,159.709C305.698,160.976 306.278,162.083 307.051,163.029C307.824,163.976 308.784,164.729 309.931,165.289C311.078,165.849 312.424,166.129 313.971,166.129C315.304,166.129 316.564,165.829 317.751,165.229C318.938,164.629 319.824,163.689 320.411,162.409L320.491,162.409L320.491,163.769C320.491,164.916 320.378,165.969 320.151,166.929C319.924,167.889 319.558,168.709 319.051,169.389C318.544,170.069 317.904,170.603 317.131,170.989C316.358,171.376 315.411,171.569 314.291,171.569C313.731,171.569 313.144,171.509 312.531,171.389C311.918,171.269 311.351,171.076 310.831,170.809C310.311,170.543 309.871,170.196 309.511,169.769C309.151,169.343 308.958,168.823 308.931,168.209L305.531,168.209C305.584,169.329 305.878,170.276 306.411,171.049C306.944,171.823 307.618,172.449 308.431,172.929C309.244,173.409 310.151,173.756 311.151,173.969C312.151,174.183 313.131,174.289 314.091,174.289C317.398,174.289 319.824,173.449 321.371,171.769C322.918,170.089 323.691,167.556 323.691,164.169ZM314.171,163.169C313.051,163.169 312.118,162.936 311.371,162.469C310.624,162.003 310.024,161.389 309.571,160.629C309.118,159.869 308.798,159.023 308.611,158.089C308.424,157.156 308.331,156.223 308.331,155.289C308.331,154.303 308.444,153.356 308.671,152.449C308.898,151.543 309.258,150.743 309.751,150.049C310.244,149.356 310.878,148.803 311.651,148.389C312.424,147.976 313.358,147.769 314.451,147.769C315.518,147.769 316.424,147.983 317.171,148.409C317.918,148.836 318.524,149.403 318.991,150.109C319.458,150.816 319.798,151.609 320.011,152.489C320.224,153.369 320.331,154.263 320.331,155.169C320.331,156.129 320.218,157.089 319.991,158.049C319.764,159.009 319.411,159.869 318.931,160.629C318.451,161.389 317.818,162.003 317.031,162.469C316.244,162.936 315.291,163.169 314.171,163.169Z"
   style="fill-rule:nonzero;fill:#ffffff;fill-opacity:1"
   id="path64" />
            <path
   d="M345.931,165.929L345.931,145.249L342.531,145.249L342.531,156.929C342.531,157.863 342.404,158.723 342.151,159.509C341.898,160.296 341.518,160.983 341.011,161.569C340.504,162.156 339.871,162.609 339.111,162.929C338.351,163.249 337.451,163.409 336.411,163.409C335.104,163.409 334.078,163.036 333.331,162.289C332.584,161.543 332.211,160.529 332.211,159.249L332.211,145.249L328.811,145.249L328.811,158.849C328.811,159.969 328.924,160.989 329.151,161.909C329.378,162.829 329.771,163.623 330.331,164.289C330.891,164.956 331.624,165.469 332.531,165.829C333.438,166.189 334.571,166.369 335.931,166.369C337.451,166.369 338.771,166.069 339.891,165.469C341.011,164.869 341.931,163.929 342.651,162.649L342.731,162.649L342.731,165.929L345.931,165.929Z"
   style="fill-rule:nonzero;fill:#ffffff;fill-opacity:1"
   id="path66" />
            <rect
   x="351.251"
   y="137.369"
   width="3.4"
   height="28.56"
   style="fill-rule:nonzero;fill:#ffffff;fill-opacity:1"
   id="rect68" />
            <path
   d="M378.251,165.849C377.664,166.196 376.851,166.369 375.811,166.369C374.931,166.369 374.231,166.123 373.711,165.629C373.191,165.136 372.931,164.329 372.931,163.209C371.998,164.329 370.911,165.136 369.671,165.629C368.431,166.123 367.091,166.369 365.651,166.369C364.718,166.369 363.831,166.263 362.991,166.049C362.151,165.836 361.424,165.503 360.811,165.049C360.198,164.596 359.711,164.003 359.351,163.269C358.991,162.536 358.811,161.649 358.811,160.609C358.811,159.436 359.011,158.476 359.411,157.729C359.811,156.983 360.338,156.376 360.991,155.909C361.644,155.443 362.391,155.089 363.231,154.849C364.071,154.609 364.931,154.409 365.811,154.249C366.744,154.063 367.631,153.923 368.471,153.829C369.311,153.736 370.051,153.603 370.691,153.429C371.331,153.256 371.838,153.003 372.211,152.669C372.584,152.336 372.771,151.849 372.771,151.209C372.771,150.463 372.631,149.863 372.351,149.409C372.071,148.956 371.711,148.609 371.271,148.369C370.831,148.129 370.338,147.969 369.791,147.889C369.244,147.809 368.704,147.769 368.171,147.769C366.731,147.769 365.531,148.043 364.571,148.589C363.611,149.136 363.091,150.169 363.011,151.689L359.611,151.689C359.664,150.409 359.931,149.329 360.411,148.449C360.891,147.569 361.531,146.856 362.331,146.309C363.131,145.763 364.044,145.369 365.071,145.129C366.098,144.889 367.198,144.769 368.371,144.769C369.304,144.769 370.231,144.836 371.151,144.969C372.071,145.103 372.904,145.376 373.651,145.789C374.398,146.203 374.998,146.783 375.451,147.529C375.904,148.276 376.131,149.249 376.131,150.449L376.131,161.089C376.131,161.889 376.178,162.476 376.271,162.849C376.364,163.223 376.678,163.409 377.211,163.409C377.504,163.409 377.851,163.343 378.251,163.209L378.251,165.849ZM372.731,155.249C372.304,155.569 371.744,155.803 371.051,155.949C370.358,156.096 369.631,156.216 368.871,156.309C368.111,156.403 367.344,156.509 366.571,156.629C365.798,156.749 365.104,156.943 364.491,157.209C363.878,157.476 363.378,157.856 362.991,158.349C362.604,158.843 362.411,159.516 362.411,160.369C362.411,160.929 362.524,161.403 362.751,161.789C362.978,162.176 363.271,162.489 363.631,162.729C363.991,162.969 364.411,163.143 364.891,163.249C365.371,163.356 365.878,163.409 366.411,163.409C367.531,163.409 368.491,163.256 369.291,162.949C370.091,162.643 370.744,162.256 371.251,161.789C371.758,161.323 372.131,160.816 372.371,160.269C372.611,159.723 372.731,159.209 372.731,158.729L372.731,155.249Z"
   style="fill-rule:nonzero;fill:#ffffff;fill-opacity:1"
   id="path70" />
            <path
   d="M386.131,145.249L386.131,139.049L382.731,139.049L382.731,145.249L379.211,145.249L379.211,148.249L382.731,148.249L382.731,161.409C382.731,162.369 382.824,163.143 383.011,163.729C383.198,164.316 383.484,164.769 383.871,165.089C384.258,165.409 384.764,165.629 385.391,165.749C386.018,165.869 386.771,165.929 387.651,165.929L390.251,165.929L390.251,162.929L388.691,162.929C388.158,162.929 387.724,162.909 387.391,162.869C387.058,162.829 386.798,162.743 386.611,162.609C386.424,162.476 386.298,162.289 386.231,162.049C386.164,161.809 386.131,161.489 386.131,161.089L386.131,148.249L390.251,148.249L390.251,145.249L386.131,145.249Z"
   style="fill-rule:nonzero;fill:#ffffff;fill-opacity:1"
   id="path72" />
            <path
   d="M396.491,155.609C396.491,154.356 396.658,153.243 396.991,152.269C397.324,151.296 397.784,150.476 398.371,149.809C398.958,149.143 399.644,148.636 400.431,148.289C401.218,147.943 402.051,147.769 402.931,147.769C403.811,147.769 404.644,147.943 405.431,148.289C406.218,148.636 406.904,149.143 407.491,149.809C408.078,150.476 408.538,151.296 408.871,152.269C409.204,153.243 409.371,154.356 409.371,155.609C409.371,156.863 409.204,157.976 408.871,158.949C408.538,159.923 408.078,160.736 407.491,161.389C406.904,162.043 406.218,162.543 405.431,162.889C404.644,163.236 403.811,163.409 402.931,163.409C402.051,163.409 401.218,163.236 400.431,162.889C399.644,162.543 398.958,162.043 398.371,161.389C397.784,160.736 397.324,159.923 396.991,158.949C396.658,157.976 396.491,156.863 396.491,155.609ZM392.891,155.609C392.891,157.129 393.104,158.543 393.531,159.849C393.958,161.156 394.598,162.296 395.451,163.269C396.304,164.243 397.358,165.003 398.611,165.549C399.864,166.096 401.304,166.369 402.931,166.369C404.584,166.369 406.031,166.096 407.271,165.549C408.511,165.003 409.558,164.243 410.411,163.269C411.264,162.296 411.904,161.156 412.331,159.849C412.758,158.543 412.971,157.129 412.971,155.609C412.971,154.089 412.758,152.669 412.331,151.349C411.904,150.029 411.264,148.883 410.411,147.909C409.558,146.936 408.511,146.169 407.271,145.609C406.031,145.049 404.584,144.769 402.931,144.769C401.304,144.769 399.864,145.049 398.611,145.609C397.358,146.169 396.304,146.936 395.451,147.909C394.598,148.883 393.958,150.029 393.531,151.349C393.104,152.669 392.891,154.089 392.891,155.609Z"
   style="fill-rule:nonzero;fill:#ffffff;fill-opacity:1"
   id="path74" />
            <path
   d="M416.851,145.249L416.851,165.929L420.251,165.929L420.251,156.729C420.251,155.396 420.384,154.216 420.651,153.189C420.918,152.163 421.344,151.289 421.931,150.569C422.518,149.849 423.291,149.303 424.251,148.929C425.211,148.556 426.371,148.369 427.731,148.369L427.731,144.769C425.891,144.716 424.371,145.089 423.171,145.889C421.971,146.689 420.958,147.929 420.131,149.609L420.051,149.609L420.051,145.249L416.851,145.249Z"
   style="fill-rule:nonzero;fill:#ffffff;fill-opacity:1"
   id="path76" />
            <path
   d="M438.411,168.689C438.011,169.703 437.618,170.556 437.231,171.249C436.844,171.943 436.418,172.509 435.951,172.949C435.484,173.389 434.964,173.709 434.391,173.909C433.818,174.109 433.158,174.209 432.411,174.209C432.011,174.209 431.611,174.183 431.211,174.129C430.811,174.076 430.424,173.983 430.051,173.849L430.051,170.729C430.344,170.863 430.684,170.976 431.071,171.069C431.458,171.163 431.784,171.209 432.051,171.209C432.744,171.209 433.324,171.043 433.791,170.709C434.258,170.376 434.611,169.903 434.851,169.289L436.251,165.809L428.051,145.249L431.891,145.249L437.931,162.169L438.011,162.169L443.811,145.249L447.411,145.249L438.411,168.689Z"
   style="fill-rule:nonzero;fill:#ffffff;fill-opacity:1"
   id="path78" />
            <path
   d="M466.891,154.129L471.731,140.809L471.811,140.809L476.571,154.129L466.891,154.129ZM469.731,137.369L458.611,165.929L462.491,165.929L465.691,157.329L477.771,157.329L480.891,165.929L485.091,165.929L473.931,137.369L469.731,137.369Z"
   style="fill-rule:nonzero;fill:#ffffff;fill-opacity:1"
   id="path80" />
            <path
   d="M505.171,164.169L505.171,145.249L501.971,145.249L501.971,148.209L501.931,148.209C501.318,147.063 500.464,146.203 499.371,145.629C498.278,145.056 497.078,144.769 495.771,144.769C493.984,144.769 492.478,145.109 491.251,145.789C490.024,146.469 489.038,147.336 488.291,148.389C487.544,149.443 487.011,150.616 486.691,151.909C486.371,153.203 486.211,154.463 486.211,155.689C486.211,157.103 486.404,158.443 486.791,159.709C487.178,160.976 487.758,162.083 488.531,163.029C489.304,163.976 490.264,164.729 491.411,165.289C492.558,165.849 493.904,166.129 495.451,166.129C496.784,166.129 498.044,165.829 499.231,165.229C500.418,164.629 501.304,163.689 501.891,162.409L501.971,162.409L501.971,163.769C501.971,164.916 501.858,165.969 501.631,166.929C501.404,167.889 501.038,168.709 500.531,169.389C500.024,170.069 499.384,170.603 498.611,170.989C497.838,171.376 496.891,171.569 495.771,171.569C495.211,171.569 494.624,171.509 494.011,171.389C493.398,171.269 492.831,171.076 492.311,170.809C491.791,170.543 491.351,170.196 490.991,169.769C490.631,169.343 490.438,168.823 490.411,168.209L487.011,168.209C487.064,169.329 487.358,170.276 487.891,171.049C488.424,171.823 489.098,172.449 489.911,172.929C490.724,173.409 491.631,173.756 492.631,173.969C493.631,174.183 494.611,174.289 495.571,174.289C498.878,174.289 501.304,173.449 502.851,171.769C504.398,170.089 505.171,167.556 505.171,164.169ZM495.651,163.169C494.531,163.169 493.598,162.936 492.851,162.469C492.104,162.003 491.504,161.389 491.051,160.629C490.598,159.869 490.278,159.023 490.091,158.089C489.904,157.156 489.811,156.223 489.811,155.289C489.811,154.303 489.924,153.356 490.151,152.449C490.378,151.543 490.738,150.743 491.231,150.049C491.724,149.356 492.358,148.803 493.131,148.389C493.904,147.976 494.838,147.769 495.931,147.769C496.998,147.769 497.904,147.983 498.651,148.409C499.398,148.836 500.004,149.403 500.471,150.109C500.938,150.816 501.278,151.609 501.491,152.489C501.704,153.369 501.811,154.263 501.811,155.169C501.811,156.129 501.698,157.089 501.471,158.049C501.244,159.009 500.891,159.869 500.411,160.629C499.931,161.389 499.298,162.003 498.511,162.469C497.724,162.936 496.771,163.169 495.651,163.169Z"
   style="fill-rule:nonzero;fill:#ffffff;fill-opacity:1"
   id="path82" />
            <path
   d="M524.651,153.609L512.771,153.609C512.824,152.809 512.998,152.056 513.291,151.349C513.584,150.643 513.984,150.023 514.491,149.489C514.998,148.956 515.604,148.536 516.311,148.229C517.018,147.923 517.811,147.769 518.691,147.769C519.544,147.769 520.324,147.923 521.031,148.229C521.738,148.536 522.351,148.949 522.871,149.469C523.391,149.989 523.804,150.609 524.111,151.329C524.418,152.049 524.598,152.809 524.651,153.609ZM527.931,159.369L524.571,159.369C524.278,160.729 523.671,161.743 522.751,162.409C521.831,163.076 520.651,163.409 519.211,163.409C518.091,163.409 517.118,163.223 516.291,162.849C515.464,162.476 514.784,161.976 514.251,161.349C513.718,160.723 513.331,160.003 513.091,159.189C512.851,158.376 512.744,157.516 512.771,156.609L528.251,156.609C528.304,155.356 528.191,154.036 527.911,152.649C527.631,151.263 527.124,149.983 526.391,148.809C525.658,147.636 524.684,146.669 523.471,145.909C522.258,145.149 520.731,144.769 518.891,144.769C517.478,144.769 516.178,145.036 514.991,145.569C513.804,146.103 512.778,146.849 511.911,147.809C511.044,148.769 510.371,149.903 509.891,151.209C509.411,152.516 509.171,153.956 509.171,155.529C509.224,157.103 509.458,158.556 509.871,159.889C510.284,161.223 510.904,162.369 511.731,163.329C512.558,164.289 513.578,165.036 514.791,165.569C516.004,166.103 517.438,166.369 519.091,166.369C521.438,166.369 523.384,165.783 524.931,164.609C526.478,163.436 527.478,161.689 527.931,159.369Z"
   style="fill-rule:nonzero;fill:#ffffff;fill-opacity:1"
   id="path84" />
            <path
   d="M531.771,145.249L531.771,165.929L535.171,165.929L535.171,154.249C535.171,153.316 535.298,152.456 535.551,151.669C535.804,150.883 536.184,150.196 536.691,149.609C537.198,149.023 537.831,148.569 538.591,148.249C539.351,147.929 540.251,147.769 541.291,147.769C542.598,147.769 543.624,148.143 544.371,148.889C545.118,149.636 545.491,150.649 545.491,151.929L545.491,165.929L548.891,165.929L548.891,152.329C548.891,151.209 548.778,150.189 548.551,149.269C548.324,148.349 547.931,147.556 547.371,146.889C546.811,146.223 546.078,145.703 545.171,145.329C544.264,144.956 543.131,144.769 541.771,144.769C538.704,144.769 536.464,146.023 535.051,148.529L534.971,148.529L534.971,145.249L531.771,145.249Z"
   style="fill-rule:nonzero;fill:#ffffff;fill-opacity:1"
   id="path86" />
            <path
   d="M568.051,151.889L571.571,151.889C571.438,150.663 571.118,149.603 570.611,148.709C570.104,147.816 569.458,147.076 568.671,146.489C567.884,145.903 566.978,145.469 565.951,145.189C564.924,144.909 563.824,144.769 562.651,144.769C561.024,144.769 559.598,145.056 558.371,145.629C557.144,146.203 556.124,146.989 555.311,147.989C554.498,148.989 553.891,150.163 553.491,151.509C553.091,152.856 552.891,154.303 552.891,155.849C552.891,157.396 553.098,158.816 553.511,160.109C553.924,161.403 554.538,162.516 555.351,163.449C556.164,164.383 557.178,165.103 558.391,165.609C559.604,166.116 560.998,166.369 562.571,166.369C565.211,166.369 567.298,165.676 568.831,164.289C570.364,162.903 571.318,160.929 571.691,158.369L568.211,158.369C567.998,159.969 567.418,161.209 566.471,162.089C565.524,162.969 564.211,163.409 562.531,163.409C561.464,163.409 560.544,163.196 559.771,162.769C558.998,162.343 558.371,161.776 557.891,161.069C557.411,160.363 557.058,159.556 556.831,158.649C556.604,157.743 556.491,156.809 556.491,155.849C556.491,154.809 556.598,153.803 556.811,152.829C557.024,151.856 557.378,150.996 557.871,150.249C558.364,149.503 559.024,148.903 559.851,148.449C560.678,147.996 561.704,147.769 562.931,147.769C564.371,147.769 565.518,148.129 566.371,148.849C567.224,149.569 567.784,150.583 568.051,151.889Z"
   style="fill-rule:nonzero;fill:#ffffff;fill-opacity:1"
   id="path88" />
            <path
   d="M583.611,168.689C583.211,169.703 582.818,170.556 582.431,171.249C582.044,171.943 581.618,172.509 581.151,172.949C580.684,173.389 580.164,173.709 579.591,173.909C579.018,174.109 578.358,174.209 577.611,174.209C577.211,174.209 576.811,174.183 576.411,174.129C576.011,174.076 575.624,173.983 575.251,173.849L575.251,170.729C575.544,170.863 575.884,170.976 576.271,171.069C576.658,171.163 576.984,171.209 577.251,171.209C577.944,171.209 578.524,171.043 578.991,170.709C579.458,170.376 579.811,169.903 580.051,169.289L581.451,165.809L573.251,145.249L577.091,145.249L583.131,162.169L583.211,162.169L589.011,145.249L592.611,145.249L583.611,168.689Z"
   style="fill-rule:nonzero;fill:#ffffff;fill-opacity:1"
   id="path90" />
        </g>
    </g>
    <rect
   x="5.969"
   y="8.054"
   width="4.866"
   height="183.315"
   style="fill:rgb(0,173,147);"
   id="rect96" />
</svg>