<?xml version="1.0" encoding="UTF-8" standalone="no"?>
<svg
   xmlns:dc="http://purl.org/dc/elements/1.1/"
   xmlns:cc="http://creativecommons.org/ns#"
   xmlns:rdf="http://www.w3.org/1999/02/22-rdf-syntax-ns#"
   xmlns:svg="http://www.w3.org/2000/svg"
   xmlns="http://www.w3.org/2000/svg"
   xmlns:sodipodi="http://sodipodi.sourceforge.net/DTD/sodipodi-0.dtd"
   xmlns:inkscape="http://www.inkscape.org/namespaces/inkscape"
   width="100%"
   height="100%"
   viewBox="0 0 600 400"
   version="1.1"
   xml:space="preserve"
   style="fill-rule:evenodd;clip-rule:evenodd;stroke-linecap:round;stroke-linejoin:round;stroke-miterlimit:1.5;"
   id="svg44"
   sodipodi:docname="gateway.svg"
   inkscape:version="0.92.5 (2060ec1f9f, 2020-04-08)"><metadata
     id="metadata50"><rdf:RDF><cc:Work
         rdf:about=""><dc:format>image/svg+xml</dc:format><dc:type
           rdf:resource="http://purl.org/dc/dcmitype/StillImage" /></cc:Work></rdf:RDF></metadata><defs
     id="defs48" /><sodipodi:namedview
     pagecolor="#ffffff"
     bordercolor="#666666"
     borderopacity="1"
     objecttolerance="10"
     gridtolerance="10"
     guidetolerance="10"
     inkscape:pageopacity="0"
     inkscape:pageshadow="2"
     inkscape:window-width="1880"
     inkscape:window-height="1136"
     id="namedview46"
     showgrid="false"
     inkscape:zoom="3.337544"
     inkscape:cx="320.23602"
     inkscape:cy="254.40472"
     inkscape:window-x="40"
     inkscape:window-y="27"
     inkscape:window-maximized="1"
     inkscape:current-layer="svg44" /><g
     id="g28"><g
       id="g14"><g
         id="g10"><path
           d="M409.017,309.356L245.148,378.744C241.029,380.407 236.738,380.551 232.228,378.744"
           style="fill:none;stroke:black;stroke-width:1.5px;"
           id="path2" /><path
           d="M153.341,296.547L212.791,332.402C216.941,335.421 219.799,339.116 221.394,343.472L230.359,368.868C233.767,378.823 232.487,390.166 222.722,384.724L148.022,334.912C143.436,330.388 140.336,320.629 142.617,312.89L148.022,298.358C149.133,296.18 150.971,295.731 153.341,296.547Z"
           style="fill:none;stroke:black;stroke-width:1.5px;"
           id="path4" /><path
           d="M166.1,286.651L320.191,235.913L377.515,259.462L219.955,317.582L166.1,286.651Z"
           style="fill:none;stroke:black;stroke-width:1.5px;"
           id="path6" /><path
           d="M384,259L321,234C317.619,232.346 314.295,232.672 311,234L156,284C150.871,285.583 146.733,289.445 144.7,294.379C137.834,311.037 136.937,329.445 152,342L227,393C229.901,395.336 239.659,395.507 246,392L402,323C407.734,318.43 409.944,311.687 409,303L398,271C394.432,265.113 389.636,261.335 384,259"
           style="fill:none;stroke:black;stroke-width:1.5px;"
           id="path8" /></g><path
         d="M247.134,333.823L257.339,361.769L395.534,303.168L389.232,279.202L247.134,333.823Z"
         style="fill:none;stroke:black;stroke-width:1.5px;"
         id="path12" /></g><g
       id="g22"><path
         d="M401.115,274.259L418.69,267.787C427.178,269.283 430.699,278.987 425.568,286.371L408.229,294.113C414.601,287.721 411.254,275.37 401.115,274.259"
         style="fill:none;stroke:black;stroke-width:1.5px;"
         id="path16" /><path
         d="M418.135,267.503L419.256,163.896L419.951,135.694L425.28,81.374L425.981,73.062C426.428,51.266 425.402,29.426 425.28,7.591C425.402,0.603 436.122,0.114 436.081,7.591L436.081,81.374L440.614,135.694L439.79,219.627L439.225,246.495L439.225,282.838C436.324,287.64 432.758,287.792 428.461,282.838L428.461,269.722C425.196,267.55 421.804,266.401 418.135,267.503Z"
         style="fill:none;stroke:black;stroke-width:1.5px;"
         id="path18" /><path
         d="M399,275L400.452,274.494C411.068,275.949 413.408,287.131 408.277,293.768L406.049,294.926L399,275"
         style="fill:none;stroke:black;stroke-width:1.5px;"
         id="path20" /></g><g
       transform="matrix(1,0,0,1,-82.6767,-12.7098)"
       id="g26" /></g><g
     id="g42"><g
       transform="matrix(1,0.653803,0,0.926564,0,-85.9676)"
       id="g32"><rect
         x="169.503"
         y="333.079"
         width="6.165"
         height="5.363"
         style="fill:rgb(48,213,200);fill-opacity:0.45;"
         class="animate-flicker"
         id="rect30" /></g><g
       transform="matrix(1,0.653803,0,0.926564,11.0228,-79.0451)"
       id="g36"><rect
         x="169.503"
         y="333.079"
         width="6.165"
         height="5.363"
         style="fill:rgb(48,213,200);fill-opacity:0.45;"
         class="animate-blink"
         id="rect34" /></g><g
       transform="matrix(1,0.653803,0,0.926564,22.0962,-71.8553)"
       id="g40"><rect
         x="169.503"
         y="333.079"
         width="6.165"
         height="5.363"
         style="fill:rgb(48,213,200);fill-opacity:0.45;"
         class="animate-flicker-slow"
         id="rect38" /></g></g></svg>