<?xml version="1.0" encoding="UTF-8" standalone="no"?>
<!-- Created with Inkscape (http://www.inkscape.org/) -->

<svg
   xmlns:dc="http://purl.org/dc/elements/1.1/"
   xmlns:cc="http://creativecommons.org/ns#"
   xmlns:rdf="http://www.w3.org/1999/02/22-rdf-syntax-ns#"
   xmlns:svg="http://www.w3.org/2000/svg"
   xmlns="http://www.w3.org/2000/svg"
   xmlns:sodipodi="http://sodipodi.sourceforge.net/DTD/sodipodi-0.dtd"
   xmlns:inkscape="http://www.inkscape.org/namespaces/inkscape"
   width="683.66473mm"
   height="249.08446mm"
   viewBox="0 0 683.66473 249.08446"
   version="1.1"
   id="svg8"
   inkscape:version="0.92.5 (2060ec1f9f, 2020-04-08)"
   sodipodi:docname="stranded-power.svg">
  <defs
     id="defs2" />
  <sodipodi:namedview
     id="base"
     pagecolor="#ffffff"
     bordercolor="#666666"
     borderopacity="1.0"
     inkscape:pageopacity="0.0"
     inkscape:pageshadow="2"
     inkscape:zoom="0.49497475"
     inkscape:cx="1288.0856"
     inkscape:cy="-38.224126"
     inkscape:document-units="mm"
     inkscape:current-layer="g1381"
     showgrid="false"
     showguides="true"
     inkscape:guide-bbox="true"
     inkscape:window-width="2800"
     inkscape:window-height="1672"
     inkscape:window-x="80"
     inkscape:window-y="54"
     inkscape:window-maximized="1" />
  <metadata
     id="metadata5">
    <rdf:RDF>
      <cc:Work
         rdf:about="">
        <dc:format>image/svg+xml</dc:format>
        <dc:type
           rdf:resource="http://purl.org/dc/dcmitype/StillImage" />
        <dc:title />
      </cc:Work>
    </rdf:RDF>
  </metadata>
  <g
     inkscape:label="Layer 1"
     inkscape:groupmode="layer"
     id="layer1"
     transform="translate(232.25185,-56.462804)">
    <g
       id="g1381"
       transform="translate(12.147756,2.7914661)">
      <g
         id="g900"
         transform="translate(-14.907084,-2.6530623)">
        <path
           style="opacity:0.7;fill:#b16562;fill-opacity:1;stroke:none;stroke-width:0.26458332px;stroke-linecap:butt;stroke-linejoin:miter;stroke-opacity:1"
           d="m 29.462767,207.23066 0.780054,0.18899 2.834821,-11.50466 2.834821,9.82739 2.811198,-13.72526 2.858445,-25.4189 2.740327,24.35584 5.646019,17.85937 2.858444,-4.41759 2.74033,-15.80413 2.834819,-8.78795 2.882069,-3.26004 2.787573,20.95405 2.858447,-26.90718 3.02381,10.08724 2.598586,13.13467 2.763949,-5.26804 2.976562,7.58315 2.693083,-23.38728 2.882067,-5.33891 2.763951,18.61532 2.834822,-21.87537 2.787574,29.97824 2.834822,9.9455 2.83482,-4.98456 2.8112,6.14211 2.78757,-9.23679 2.85845,5.9295 5.48066,-6.28386 2.90569,-0.92131 2.9057,3.18917 2.81122,5.1263 2.8112,-7.74851 2.74033,3.77976 2.85844,-4.15773 2.8112,4.01599 2.97656,-7.91388 2.66946,-13.63076 2.88207,25.06454 2.8112,-25.3244 2.7167,6.8272 5.71689,5.48065 2.78757,12.99293 2.83482,1.41741 2.83482,-23.83612 2.74033,-2.55134 2.85846,18.00112 2.85844,2.40959 3.00019,-1.06306 2.62221,0.56697 2.90569,-5.5279 2.76395,-1.58278 2.74033,-6.18936 2.88207,12.63858 2.78757,-7.08705 3.00019,1.65364 2.74032,0.68508 2.74033,2.14974 2.8112,-16.11123 2.90569,14.41034 2.74033,-1.6064 2.8112,-0.99218 5.64602,7.25241 2.88207,-4.25223 2.74032,-0.0236 2.8112,3.16555 2.83482,-0.42523 h 3.23642 V 156.39286 H 29.46277 Z"
           id="path1055-9"
           inkscape:connector-curvature="0" />
        <g
           transform="translate(-203.32098,71.875858)"
           id="g2046">
          <rect
             style="opacity:1;fill:#fffffd;fill-opacity:1;stroke:#000000;stroke-width:1.05833328;stroke-linecap:round;stroke-linejoin:miter;stroke-miterlimit:4;stroke-dasharray:none;stroke-dashoffset:0;stroke-opacity:1"
             id="rect815"
             width="115.01925"
             height="19.85874"
             x="8.4526129"
             y="96.524277" />
          <text
             xml:space="preserve"
             style="font-style:normal;font-variant:normal;font-weight:600;font-stretch:normal;font-size:2.82222223px;line-height:1.25;font-family:'Open Sans';-inkscape-font-specification:'Open Sans Semi-Bold';letter-spacing:0px;word-spacing:0px;fill:#000000;fill-opacity:1;stroke:none;stroke-width:0.26458332"
             x="50.010067"
             y="110.42791"
             id="text819"><tspan
               id="tspan817"
               x="50.010067"
               y="110.42791"
               style="font-size:11.28888893px;stroke-width:0.26458332">PDU 1</tspan></text>
        </g>
        <path
           sodipodi:nodetypes="ccccscccccccccc"
           id="path842"
           d="m 271.8824,134.88718 h -31.27871 l 2.93677,-2.93677 -0.74827,-0.74879 c -1.40317,1.40317 -2.8064,2.80639 -4.20957,4.20956 l -0.004,0.004 4.20957,4.20904 0.74827,-0.74827 -2.93057,-2.93057 h 31.27013 z m -31.80633,0.52865 -5.1e-4,-5.1e-4 5.1e-4,-5.2e-4 z"
           style="color:#000000;font-style:normal;font-variant:normal;font-weight:normal;font-stretch:normal;font-size:medium;line-height:normal;font-family:sans-serif;font-variant-ligatures:normal;font-variant-position:normal;font-variant-caps:normal;font-variant-numeric:normal;font-variant-alternates:normal;font-feature-settings:normal;text-indent:0;text-align:start;text-decoration:none;text-decoration-line:none;text-decoration-style:solid;text-decoration-color:#000000;letter-spacing:normal;word-spacing:normal;text-transform:none;writing-mode:lr-tb;direction:ltr;text-orientation:mixed;dominant-baseline:auto;baseline-shift:baseline;text-anchor:start;white-space:normal;shape-padding:0;clip-rule:nonzero;display:inline;overflow:visible;visibility:visible;opacity:1;isolation:auto;mix-blend-mode:normal;color-interpolation:sRGB;color-interpolation-filters:linearRGB;solid-color:#000000;solid-opacity:1;vector-effect:none;fill:#000000;fill-opacity:1;fill-rule:nonzero;stroke:none;stroke-width:1.05833328;stroke-linecap:butt;stroke-linejoin:miter;stroke-miterlimit:4;stroke-dasharray:none;stroke-dashoffset:0;stroke-opacity:1;color-rendering:auto;image-rendering:auto;shape-rendering:auto;text-rendering:auto;enable-background:accumulate"
           inkscape:connector-curvature="0" />
        <path
           style="fill:none;stroke:#000000;stroke-width:1.05833328;stroke-linecap:butt;stroke-linejoin:miter;stroke-miterlimit:4;stroke-dasharray:none;stroke-opacity:1"
           d="M 29.46277,127.81839 V 228.31173 H 228.04406"
           id="path1021"
           inkscape:connector-curvature="0" />
        <path
           style="fill:none;stroke:#000000;stroke-width:0.26458332;stroke-linecap:butt;stroke-linejoin:miter;stroke-miterlimit:4;stroke-dasharray:0.26458333, 0.26458333;stroke-dashoffset:0;stroke-opacity:1"
           d="M 29.482146,135.41518 H 227.99528"
           id="path1023"
           inkscape:connector-curvature="0" />
        <path
           style="fill:none;stroke:#000000;stroke-width:0.26458332;stroke-linecap:butt;stroke-linejoin:miter;stroke-miterlimit:4;stroke-dasharray:0.26458332, 0.52916663;stroke-dashoffset:0;stroke-opacity:1"
           d="M 29.482147,156.58186 H 227.99528"
           id="path1023-5"
           inkscape:connector-curvature="0" />
        <path
           style="fill:none;stroke:#000000;stroke-width:0.26458332px;stroke-linecap:butt;stroke-linejoin:miter;stroke-opacity:1"
           d="m 29.46277,207.23066 0.780054,0.18899 2.834821,-11.50466 2.834821,9.82739 2.811198,-13.72526 2.858445,-25.4189 2.740327,24.35584 5.646019,17.85937 2.858444,-4.41759 2.74033,-15.80413 2.83482,-8.78795 2.882069,-3.26004 2.787573,20.95405 2.858447,-26.90718 3.023809,10.08724 2.598587,13.13467 2.763948,-5.26804 2.976563,7.58315 2.693083,-23.38728 2.882066,-5.33891 2.763951,18.61532 2.834823,-21.87537 2.787573,29.97824 2.834823,9.9455 2.834819,-4.98456 2.811197,6.14211 2.78758,-9.23679 2.85844,5.9295 5.48066,-6.28386 2.90569,-0.92131 2.90571,3.18917 2.81121,5.1263 2.8112,-7.74851 2.74033,3.77976 2.85844,-4.15773 2.8112,4.01599 2.97656,-7.91388 2.66946,-13.63076 2.88207,25.06454 2.8112,-25.3244 2.7167,6.8272 5.71689,5.48065 2.78757,12.99293 2.83482,1.41741 2.83482,-23.83612 2.74033,-2.55134 2.85845,18.00112 2.85844,2.40959 3.00019,-1.06306 2.62221,0.56697 2.90569,-5.5279 2.76395,-1.58278 2.74033,-6.18936 2.88207,12.63858 2.78757,-7.08705 3.00019,1.65364 2.74032,0.68508 2.74033,2.14974 2.8112,-16.11123 2.90569,14.41034 2.74033,-1.6064 2.8112,-0.99218 5.64602,7.25241 2.88207,-4.25223 2.74032,-0.0236 2.8112,3.16555 2.83482,-0.42523"
           id="path1055"
           inkscape:connector-curvature="0" />
        <path
           sodipodi:nodetypes="ccccscccccccccc"
           id="path842-3"
           d="m 271.8824,156.05386 h -31.27871 l 2.93677,-2.93677 -0.74827,-0.74879 c -1.40317,1.40317 -2.8064,2.80639 -4.20957,4.20956 l -0.004,0.004 4.20957,4.20904 0.74827,-0.74827 -2.93057,-2.93057 h 31.27013 z m -31.80633,0.52865 -5.1e-4,-5e-4 5.1e-4,-5.3e-4 z"
           style="color:#000000;font-style:normal;font-variant:normal;font-weight:normal;font-stretch:normal;font-size:medium;line-height:normal;font-family:sans-serif;font-variant-ligatures:normal;font-variant-position:normal;font-variant-caps:normal;font-variant-numeric:normal;font-variant-alternates:normal;font-feature-settings:normal;text-indent:0;text-align:start;text-decoration:none;text-decoration-line:none;text-decoration-style:solid;text-decoration-color:#000000;letter-spacing:normal;word-spacing:normal;text-transform:none;writing-mode:lr-tb;direction:ltr;text-orientation:mixed;dominant-baseline:auto;baseline-shift:baseline;text-anchor:start;white-space:normal;shape-padding:0;clip-rule:nonzero;display:inline;overflow:visible;visibility:visible;opacity:1;isolation:auto;mix-blend-mode:normal;color-interpolation:sRGB;color-interpolation-filters:linearRGB;solid-color:#000000;solid-opacity:1;vector-effect:none;fill:#000000;fill-opacity:1;fill-rule:nonzero;stroke:none;stroke-width:1.05833328;stroke-linecap:butt;stroke-linejoin:miter;stroke-miterlimit:4;stroke-dasharray:none;stroke-dashoffset:0;stroke-opacity:1;color-rendering:auto;image-rendering:auto;shape-rendering:auto;text-rendering:auto;enable-background:accumulate"
           inkscape:connector-curvature="0" />
        <path
           sodipodi:nodetypes="ccccscccccccccc"
           id="path842-3-5"
           d="m 271.8824,177.22054 h -31.27871 l 2.93677,-2.93677 -0.74827,-0.74879 c -1.40317,1.40317 -2.8064,2.80639 -4.20957,4.20956 l -0.004,0.004 4.20957,4.20904 0.74827,-0.74827 -2.93057,-2.93057 h 31.27013 z m -31.80633,0.52865 -5.2e-4,-5e-4 5.2e-4,-5.3e-4 z"
           style="color:#000000;font-style:normal;font-variant:normal;font-weight:normal;font-stretch:normal;font-size:medium;line-height:normal;font-family:sans-serif;font-variant-ligatures:normal;font-variant-position:normal;font-variant-caps:normal;font-variant-numeric:normal;font-variant-alternates:normal;font-feature-settings:normal;text-indent:0;text-align:start;text-decoration:none;text-decoration-line:none;text-decoration-style:solid;text-decoration-color:#000000;letter-spacing:normal;word-spacing:normal;text-transform:none;writing-mode:lr-tb;direction:ltr;text-orientation:mixed;dominant-baseline:auto;baseline-shift:baseline;text-anchor:start;white-space:normal;shape-padding:0;clip-rule:nonzero;display:inline;overflow:visible;visibility:visible;opacity:1;isolation:auto;mix-blend-mode:normal;color-interpolation:sRGB;color-interpolation-filters:linearRGB;solid-color:#000000;solid-opacity:1;vector-effect:none;fill:#000000;fill-opacity:1;fill-rule:nonzero;stroke:none;stroke-width:1.05833328;stroke-linecap:butt;stroke-linejoin:miter;stroke-miterlimit:4;stroke-dasharray:none;stroke-dashoffset:0;stroke-opacity:1;color-rendering:auto;image-rendering:auto;shape-rendering:auto;text-rendering:auto;enable-background:accumulate"
           inkscape:connector-curvature="0" />
        <text
           xml:space="preserve"
           style="font-style:normal;font-variant:normal;font-weight:600;font-stretch:normal;font-size:2.82222223px;line-height:1.25;font-family:'Open Sans';-inkscape-font-specification:'Open Sans Semi-Bold';letter-spacing:0px;word-spacing:0px;fill:#000000;fill-opacity:1;stroke:none;stroke-width:0.26458332"
           x="-200.73"
           y="18.806822"
           id="text1089"
           transform="rotate(-90)"><tspan
             sodipodi:role="line"
             id="tspan1087"
             x="-200.73"
             y="18.806822"
             style="font-size:7.76111126px;stroke-width:0.26458332">Amps usage</tspan></text>
        <text
           xml:space="preserve"
           style="font-style:normal;font-variant:normal;font-weight:600;font-stretch:normal;font-size:2.82222223px;line-height:1.25;font-family:'Open Sans';-inkscape-font-specification:'Open Sans Semi-Bold';letter-spacing:0px;word-spacing:0px;fill:#000000;fill-opacity:1;stroke:none;stroke-width:0.26458332"
           x="119.39754"
           y="242.4175"
           id="text1089-6"><tspan
             sodipodi:role="line"
             id="tspan1087-2"
             x="119.39754"
             y="242.4175"
             style="font-size:7.76111126px;stroke-width:0.26458332">Time</tspan></text>
        <path
           style="fill:none;stroke:#000000;stroke-width:0.26458332px;stroke-linecap:butt;stroke-linejoin:miter;stroke-opacity:1"
           d="m 29.462766,207.23066 0.780054,0.18899 2.834821,-11.50466 2.834821,9.82739 2.811198,-13.72526 2.858446,-25.4189 2.740327,24.35584 5.646019,17.85937 2.858444,-4.41759 2.74033,-15.80413 2.834819,-8.78795 2.882069,-3.26004 2.787573,20.95405 2.858447,-26.90718 3.02381,10.08724 2.598586,13.13467 2.763949,-5.26804 2.976562,7.58315 2.693083,-23.38728 2.882067,-5.33891 2.763951,18.61532 2.834822,-21.87537 2.787574,29.97824 2.834822,9.9455 2.83482,-4.98456 2.8112,6.14211 2.78757,-9.23679 2.85845,5.9295 5.48066,-6.28386 2.90569,-0.92131 2.9057,3.18917 2.81122,5.1263 2.8112,-7.74851 2.74033,3.77976 2.85844,-4.15773 2.8112,4.01599 2.97656,-7.91388 2.66946,-13.63076 2.88207,25.06454 2.8112,-25.3244 2.7167,6.8272 5.71689,5.48065 2.78757,12.99293 2.83482,1.41741 2.83482,-23.83612 2.74033,-2.55134 2.85845,18.00112 2.85844,2.40959 3.00019,-1.06306 2.62221,0.56697 2.90569,-5.5279 2.76395,-1.58278 2.74033,-6.18936 2.88207,12.63858 2.78757,-7.08705 3.00019,1.65364 2.74032,0.68508 2.74033,2.14974 2.8112,-16.11123 2.90569,14.41034 2.74033,-1.6064 2.8112,-0.99218 5.64602,7.25241 2.88207,-4.25223 2.74032,-0.0236 2.8112,3.16555 2.83482,-0.42523 h 3.23643 v 32.81305 H 29.46277 Z"
           id="path1055-6"
           inkscape:connector-curvature="0" />
        <text
           id="text2157-2"
           y="138.34538"
           x="283.19907"
           style="font-style:normal;font-variant:normal;font-weight:600;font-stretch:normal;font-size:2.82222223px;line-height:1.25;font-family:'Open Sans';-inkscape-font-specification:'Open Sans Semi-Bold';letter-spacing:0px;word-spacing:0px;fill:#000000;fill-opacity:1;stroke:none;stroke-width:0.26458332"
           xml:space="preserve"><tspan
             style="font-size:11.28888893px;stroke-width:0.26458332"
             y="138.34538"
             x="283.19907"
             id="tspan2155-6">Nameplate rating</tspan></text>
        <text
           id="text2157-2-1"
           y="159.51207"
           x="282.53247"
           style="font-style:normal;font-variant:normal;font-weight:600;font-stretch:normal;font-size:2.82222223px;line-height:1.25;font-family:'Open Sans';-inkscape-font-specification:'Open Sans Semi-Bold';letter-spacing:0px;word-spacing:0px;fill:#000000;fill-opacity:1;stroke:none;stroke-width:0.26458332"
           xml:space="preserve"><tspan
             style="font-size:11.28888893px;stroke-width:0.26458332"
             y="159.51207"
             x="282.53247"
             id="tspan2155-6-8">Planned power allocation</tspan></text>
        <text
           id="text2157-2-1-7"
           y="180.67874"
           x="283.0451"
           style="font-style:normal;font-variant:normal;font-weight:600;font-stretch:normal;font-size:2.82222223px;line-height:1.25;font-family:'Open Sans';-inkscape-font-specification:'Open Sans Semi-Bold';letter-spacing:0px;word-spacing:0px;fill:#000000;fill-opacity:1;stroke:none;stroke-width:0.26458332"
           xml:space="preserve"><tspan
             style="font-size:11.28888893px;stroke-width:0.26458332"
             y="180.67874"
             x="283.0451"
             id="tspan2155-6-8-9">Stranded power</tspan><tspan
             style="font-size:11.28888893px;stroke-width:0.26458332"
             y="180.67874"
             x="283.0451"
             id="tspan1353" /></text>
        <path
           inkscape:connector-curvature="0"
           id="path851"
           d="m -15.429702,119.23997 c -8.60861,0.0283 -14.171905,2.14633 -17.576187,5.40794 -3.404284,3.26161 -4.589901,7.61823 -4.589901,11.93932 v 0.004 l 0.377238,24.93337 c -0.162003,6.76937 -2.273704,10.47415 -5.41414,12.71912 -3.08041,2.20207 -7.247974,2.98498 -11.630299,3.5512 -0.04128,-0.005 -0.08221,-0.0113 -0.123505,-0.0165 v 5.2e-4 l -0.0041,0.0331 c -0.04316,0.006 -0.08548,0.0121 -0.128672,0.0176 l 0.06304,0.4992 -0.06304,0.49868 c 0.04303,0.005 0.08517,0.0121 0.128156,0.0176 l 0.0047,0.0351 c 0.0432,-0.005 0.086,-0.012 0.129191,-0.0176 4.380243,0.56616 8.545533,1.34956 11.624613,3.55068 3.140436,2.24497 5.252137,5.9513 5.41414,12.72067 1.7e-5,7.2e-4 -1.7e-5,0.001 0,0.002 l -0.377238,24.92974 v 0.004 c 0,4.32109 1.185617,8.67771 4.589901,11.93932 3.404282,3.26161 8.967576,5.38167 17.576187,5.41001 l 0.0041,-1.05834 c -8.436871,-0.0278 -13.694151,-2.09372 -16.848066,-5.11545 -3.151914,-3.01982 -4.261898,-7.04122 -4.263306,-11.16779 v -0.006 -0.002 l 0.376721,-24.94886 v -0.0103 c -0.166745,-6.9861 -2.444301,-11.11836 -5.857523,-13.55834 -2.470705,-1.76621 -5.483796,-2.65046 -8.669239,-3.22255 3.185459,-0.57264 6.198524,-1.45839 8.669239,-3.22461 3.413222,-2.43997 5.690778,-6.57224 5.857523,-13.55834 v -0.01 l -0.376721,-24.94938 v -0.002 -0.006 c 0.0014,-4.12657 1.111392,-8.14849 4.263306,-11.16831 3.153915,-3.02173 8.411196,-5.08561 16.848066,-5.11338 z"
           style="color:#000000;font-style:normal;font-variant:normal;font-weight:normal;font-stretch:normal;font-size:medium;line-height:normal;font-family:sans-serif;font-variant-ligatures:normal;font-variant-position:normal;font-variant-caps:normal;font-variant-numeric:normal;font-variant-alternates:normal;font-feature-settings:normal;text-indent:0;text-align:start;text-decoration:none;text-decoration-line:none;text-decoration-style:solid;text-decoration-color:#000000;letter-spacing:normal;word-spacing:normal;text-transform:none;writing-mode:lr-tb;direction:ltr;text-orientation:mixed;dominant-baseline:auto;baseline-shift:baseline;text-anchor:start;white-space:normal;shape-padding:0;clip-rule:nonzero;display:inline;overflow:visible;visibility:visible;opacity:1;isolation:auto;mix-blend-mode:normal;color-interpolation:sRGB;color-interpolation-filters:linearRGB;solid-color:#000000;solid-opacity:1;vector-effect:none;fill:#000000;fill-opacity:1;fill-rule:nonzero;stroke:none;stroke-width:1.05833328;stroke-linecap:butt;stroke-linejoin:miter;stroke-miterlimit:4;stroke-dasharray:none;stroke-dashoffset:0;stroke-opacity:1;color-rendering:auto;image-rendering:auto;shape-rendering:auto;text-rendering:auto;enable-background:accumulate" />
      </g>
    </g>
  </g>
</svg>
