<?xml version="1.0" encoding="UTF-8" standalone="no"?>
<svg
   xmlns:dc="http://purl.org/dc/elements/1.1/"
   xmlns:cc="http://creativecommons.org/ns#"
   xmlns:rdf="http://www.w3.org/1999/02/22-rdf-syntax-ns#"
   xmlns:svg="http://www.w3.org/2000/svg"
   xmlns="http://www.w3.org/2000/svg"
   xmlns:sodipodi="http://sodipodi.sourceforge.net/DTD/sodipodi-0.dtd"
   xmlns:inkscape="http://www.inkscape.org/namespaces/inkscape"
   width="575.20325"
   height="301.19272"
   viewBox="0 0 575.20325 301.19272"
   version="1.1"
   xml:space="preserve"
   style="clip-rule:evenodd;fill-rule:evenodd;stroke-linecap:round;stroke-linejoin:round;stroke-miterlimit:1.5"
   id="svg54"
   sodipodi:docname="dashboard-devices.svg"
   inkscape:version="0.92.5 (0.92.5+69)"><metadata
   id="metadata60"><rdf:RDF><cc:Work
       rdf:about=""><dc:format>image/svg+xml</dc:format><dc:type
         rdf:resource="http://purl.org/dc/dcmitype/StillImage" /></cc:Work></rdf:RDF></metadata><defs
   id="defs58" /><sodipodi:namedview
   pagecolor="#ffffff"
   bordercolor="#666666"
   borderopacity="1"
   objecttolerance="10"
   gridtolerance="10"
   guidetolerance="10"
   inkscape:pageopacity="0"
   inkscape:pageshadow="2"
   inkscape:window-width="1603"
   inkscape:window-height="925"
   id="namedview56"
   showgrid="false"
   inkscape:zoom="0.39333333"
   inkscape:cx="-59.965967"
   inkscape:cy="123.31307"
   inkscape:window-x="38"
   inkscape:window-y="27"
   inkscape:window-maximized="0"
   inkscape:current-layer="svg54" />
    <path
   d="m 86.31905,278.59671 -85.819,3.909 122.584,4.736 h 11.879 l 76.611,-4.173 v 4.173 l -76.611,4.335 h -11.879 l -122.584,-4.335 v -4.736"
   style="fill:none;stroke:#000000;stroke-width:1px"
   id="path2"
   inkscape:connector-curvature="0" />
    <g
   id="g18"
   transform="translate(-5.30495,-128.47629)">
        <path
   d="M 399.188,384.401 402,399 c 0.695,6.87 -3.697,15.488 -8,16 l -57,6 c -3.629,0.58 -3.54,2.995 0,3 l 91,3 15,-2 27,-3 c 6.424,-1.523 6.986,-14.066 5,-21 l -5,-15.833 h -2 L 472,401 c 1.432,7.366 1.736,15.89 -3,18 l -41,8"
   style="fill:none;stroke:#000000;stroke-width:1px"
   id="path4"
   inkscape:connector-curvature="0" />
        <g
   transform="matrix(0.986486,0.0104465,0,1.13676,2.60811,-54.1238)"
   id="g8">
            <path
   d="M 286.165,382.027 542.56,382.001"
   style="fill:none;stroke:#000000;stroke-width:0.93000001px"
   id="path6"
   inkscape:connector-curvature="0" />
        </g>
        <g
   transform="matrix(0.986486,0.0104465,0,1.13676,2.60811,-54.1238)"
   id="g12">
            <path
   d="M 563,333.38 V 163.248 c 0,-4 -3.742,-7.248 -8.351,-7.248 l -279.298,23.752 c -4.609,0 -8.351,3.247 -8.351,7.248 l -1.714,105.822"
   style="fill:none;stroke:#000000;stroke-width:0.93000001px"
   id="path10"
   inkscape:connector-curvature="0" />
        </g>
        <path
   d="M 285.001,338.956 537.827,338.03"
   style="fill:none;stroke:#000000;stroke-width:1px"
   id="path14"
   inkscape:connector-curvature="0" />
        <path
   d="M 546,330.863 V 143 l -271,22 -1.336,116.226"
   style="fill:none;stroke:#000000;stroke-width:1px"
   id="path16"
   inkscape:connector-curvature="0" />
    </g>
    <g
   id="g28"
   transform="translate(-5.30495,-128.47629)">
        <g
   id="g26">
            <path
   d="m 577.716,337.506 c 0,-2.87 -2.33,-5.201 -5.201,-5.201 h -29.488 c -2.87,0 -5.201,2.331 -5.201,5.201 v 86.462 c 0,2.871 2.331,5.201 5.201,5.201 h 29.488 c 2.871,0 5.201,-2.33 5.201,-5.201 z"
   style="fill:none;stroke:#000000;stroke-width:1px"
   id="path20"
   inkscape:connector-curvature="0" />
            <g
   transform="translate(2.29217,-1.39801)"
   id="g24">
                <path
   d="m 572.016,430.243 c 2.128,-0.652 5.7,-3.934 5.7,-6.275 v -86.462 c 0,-2.87 -2.33,-5.201 -5.201,-5.201 h -29.488 c -1.48,0 -4.686,1.604 -5.633,2.598"
   style="fill:none;stroke:#000000;stroke-width:1px"
   id="path22"
   inkscape:connector-curvature="0" />
            </g>
        </g>
    </g>
    <g
   id="g38"
   transform="translate(-5.30495,-128.47629)">
        <g
   transform="matrix(1.01168,0,0,1,-2.52369,0)"
   id="g32">
            <path
   d="m 216.887,415.114 c 0.832,1.217 2.22,2.015 3.791,2.015 l 58.743,1 c 2.542,0 4.606,-2.088 4.606,-4.66 V 285.9 c 0,-2.572 -2.064,-4.659 -4.606,-4.659 l -58.743,1 c -2.541,0 -4.605,2.087 -4.605,4.659 v 12.014"
   style="fill:none;stroke:#000000;stroke-width:0.99000001px"
   id="path30"
   inkscape:connector-curvature="0" />
        </g>
        <g
   transform="matrix(0.881377,0,0,0.931521,29.4778,24.7382)"
   id="g36">
            <path
   d="m 284.027,285.598 c 0,-2.405 -2.064,-4.357 -4.606,-4.357 l -58.743,1.073 c -2.541,0 -4.605,1.953 -4.605,4.358 v 126.026 c 0,2.404 2.064,4.357 4.605,4.357 l 58.743,1.074 c 2.542,0 4.606,-1.953 4.606,-4.358 z"
   style="fill:none;stroke:#000000;stroke-width:1.10000002px"
   id="path34"
   inkscape:connector-curvature="0" />
        </g>
    </g>
    <g
   id="g52"
   transform="translate(-5.30495,-128.47629)">
        <g
   transform="matrix(0.98077,0,0,1,1.71796,0)"
   id="g42">
            <path
   d="m 221.549,304.007 c 0,-2.99 -2.476,-5.418 -5.525,-5.418 H 94.86 c -3.049,0 -5.525,2.428 -5.525,5.418 v 98.577 c 0,2.991 2.476,5.419 5.525,5.419 l 121.164,3 c 3.049,0 5.525,-2.428 5.525,-5.419 z"
   style="fill:none;stroke:#000000;stroke-width:1.00999999px"
   id="path40"
   inkscape:connector-curvature="0" />
        </g>
        <g
   transform="matrix(0.93293,0,0,0.951223,8.71454,17.2352)"
   id="g46">
            <path
   d="m 221.549,304.007 c 0,-2.99 -2.476,-5.418 -5.525,-5.418 H 94.86 c -3.049,0 -5.525,2.428 -5.525,5.418 v 98.577 c 0,2.991 2.476,5.419 5.525,5.419 l 121.164,3 c 3.049,0 5.525,-2.428 5.525,-5.419 z"
   style="fill:none;stroke:#000000;stroke-width:1.05999994px"
   id="path44"
   inkscape:connector-curvature="0" />
        </g>
        <g
   transform="matrix(0.98077,0,0,1,2.71796,0)"
   id="g50">
            <path
   d="m 216.024,411.003 c 3.049,0 5.525,-2.428 5.525,-5.419 V 304.007 c 0,-2.99 -2.476,-5.418 -5.525,-5.418"
   style="fill:none;stroke:#000000;stroke-width:1.00999999px"
   id="path48"
   inkscape:connector-curvature="0" />
        </g>
    </g>
</svg>