<?xml version="1.0" encoding="UTF-8" standalone="no"?>
<svg
   xmlns:serif="http://www.serif.com/"
   xmlns:dc="http://purl.org/dc/elements/1.1/"
   xmlns:cc="http://creativecommons.org/ns#"
   xmlns:rdf="http://www.w3.org/1999/02/22-rdf-syntax-ns#"
   xmlns:svg="http://www.w3.org/2000/svg"
   xmlns="http://www.w3.org/2000/svg"
   id="svg9504"
   style="fill-rule:evenodd;clip-rule:evenodd;stroke-linecap:round;stroke-linejoin:round;stroke-miterlimit:1.5;"
   xml:space="preserve"
   version="1.1"
   viewBox="0 0 1196 705"
   height="100%"
   width="100%"><metadata
   id="metadata9510"><rdf:RDF><cc:Work
       rdf:about=""><dc:format>image/svg+xml</dc:format><dc:type
         rdf:resource="http://purl.org/dc/dcmitype/StillImage" /><dc:title></dc:title></cc:Work></rdf:RDF></metadata><defs
   id="defs9508" />
    <g
   style="display:inline"
   id="layer1"><g
     id="g9502"
     transform="translate(-86.7608,-31.152)"
     style="clip-rule:evenodd;fill-rule:evenodd;stroke-linecap:round;stroke-linejoin:round;stroke-miterlimit:1.5">
        <g
   id="g7508"
   transform="translate(-44.9669,5.81941)">
            <g
   id="g7409"
   transform="matrix(0.957534,0,0,1,-342.251,-7.66746)">
                <rect
   id="rect7407"
   style="fill:#ffffff"
   height="705"
   width="1249"
   y="33"
   x="495" />
            </g>
            <g
   id="g7413"
   transform="matrix(1.94286,0,0,1.25222,-894.102,-193.806)">
                <rect
   id="rect7411"
   style="fill:#f8f8f8"
   height="563"
   width="35"
   y="175"
   x="528" />
            </g>
            <g
   transform="matrix(0.0457532,0,0,0.0458928,126.195,-31.5029)"
   id="g881">
                <circle
   style="fill:#6c8ad8;fill-opacity:0.7"
   r="531.00098"
   cy="2080.22"
   cx="885.85901"
   id="circle879" />
            </g>
            <g
   transform="matrix(0.0868367,0,0,0.0868367,123.962,34.5557)"
   id="flowRoot907">
                <path
   style="fill:#ffffff"
   d="m 396.227,272.463 c 0,19.219 -4.714,33.828 -14.141,43.828 -9.427,10 -23.229,15 -41.406,15 -17.917,0 -31.667,-5.026 -41.25,-15.078 -9.532,-10.052 -14.297,-24.688 -14.297,-43.906 0,-19.011 4.739,-33.516 14.219,-43.516 9.531,-10.052 23.359,-15.078 41.484,-15.078 18.177,0 31.953,4.974 41.328,14.922 9.375,9.948 14.063,24.557 14.063,43.828 z m -78.594,0 c 0,22.083 7.682,33.125 23.047,33.125 7.812,0 13.593,-2.682 17.343,-8.047 3.803,-5.365 5.704,-13.724 5.704,-25.078 0,-11.406 -1.928,-19.818 -5.782,-25.234 -3.802,-5.469 -9.505,-8.204 -17.109,-8.204 -15.469,0 -23.203,11.146 -23.203,33.438 z"
   id="path824" />
                <path
   style="fill:#ffffff"
   d="m 454.617,329.729 -23.359,-82.266 h -0.703 c 1.093,14.01 1.64,24.896 1.64,32.656 v 49.61 H 404.852 V 215.51 h 41.093 l 23.828,81.094 h 0.625 l 23.36,-81.094 H 534.93 V 329.729 H 506.57 V 279.65 c 0,-2.604 0.026,-5.494 0.078,-8.671 0.105,-3.178 0.469,-10.964 1.094,-23.36 h -0.703 l -23.047,82.11 z"
   id="path826" />
                <path
   style="fill:#ffffff"
   d="M 656.289,329.729 H 615.82 L 574.102,249.26 h -0.704 c 0.99,12.656 1.485,22.317 1.485,28.984 v 51.485 H 547.539 V 215.51 h 40.313 l 41.562,79.375 h 0.469 c -0.729,-11.511 -1.094,-20.755 -1.094,-27.735 v -51.64 h 27.5 z"
   id="path828" />
                <rect
   style="fill:#ffffff"
   height="114.219"
   width="31.016001"
   y="215.50999"
   x="668.97699"
   id="path830" />
            </g>
            <g
   transform="matrix(0.0868367,0,0,0.0868367,121.163,45.0293)"
   id="flowRoot907-6">
                <path
   style="fill:#4b4b4b"
   d="M 401.402,329.729 H 367.958 L 357.932,284.11 c -0.477,-1.91 -1.241,-5.705 -2.291,-11.387 -1.003,-5.681 -1.743,-10.432 -2.22,-14.251 -0.382,3.103 -1.003,6.97 -1.862,11.602 -0.86,4.583 -1.719,8.808 -2.579,12.675 -0.811,3.868 -4.273,19.527 -10.384,46.98 H 305.152 L 279.228,225.028 h 27.285 l 11.387,52.493 c 2.578,11.602 4.344,20.84 5.299,27.715 0.621,-4.869 1.719,-11.482 3.295,-19.837 1.623,-8.355 3.127,-15.278 4.511,-20.768 l 9.239,-39.603 h 26.21 l 8.952,39.603 c 1.528,6.35 3.08,13.678 4.655,21.986 1.576,8.307 2.626,14.513 3.151,18.619 0.621,-5.299 2.316,-14.49 5.085,-27.571 l 11.601,-52.637 h 27.286 z"
   id="path833" />
                <path
   style="fill:#4b4b4b"
   d="m 492.957,329.729 -5.156,-19.623 h -34.017 l -5.3,19.623 h -31.08 l 34.16,-105.131 h 37.741 l 34.59,105.131 z m -11.029,-42.826 -4.511,-17.188 c -1.051,-3.819 -2.34,-8.76 -3.867,-14.824 -1.481,-6.063 -2.459,-10.408 -2.937,-13.034 -0.429,2.435 -1.289,6.446 -2.578,12.032 -1.241,5.586 -4.034,16.59 -8.379,33.014 z"
   id="path835" />
                <path
   style="fill:#4b4b4b"
   d="m 569.473,329.729 h -28.288 v -81.57 h -25.566 v -23.131 h 79.349 v 23.131 h -25.495 z"
   id="path837" />
                <path
   style="fill:#4b4b4b"
   d="m 644.699,246.727 c -6.732,0 -11.983,2.769 -15.755,8.307 -3.772,5.491 -5.658,13.082 -5.658,22.774 0,20.148 7.663,30.221 22.989,30.221 4.631,0 9.119,-0.644 13.463,-1.933 4.345,-1.289 8.713,-2.841 13.106,-4.655 v 23.919 c -8.737,3.867 -18.62,5.801 -29.649,5.801 -15.803,0 -27.929,-4.584 -36.38,-13.75 -8.403,-9.167 -12.604,-22.416 -12.604,-39.746 0,-10.838 2.029,-20.363 6.087,-28.575 4.106,-8.211 9.979,-14.513 17.617,-18.906 7.687,-4.44 16.71,-6.66 27.071,-6.66 11.315,0 22.129,2.459 32.441,7.376 l -8.665,22.273 c -3.867,-1.815 -7.735,-3.342 -11.602,-4.584 -3.867,-1.241 -8.021,-1.862 -12.461,-1.862 z"
   id="path839" />
                <path
   style="fill:#4b4b4b"
   d="m 770.915,329.729 h -28.431 v -42.683 h -32.871 v 42.683 H 681.182 V 225.028 h 28.431 v 38.815 h 32.871 v -38.815 h 28.431 z"
   id="path841" />
            </g>
            <g
   id="g7430"
   transform="translate(-363.273,-8.66682)">
                <path
   id="path7428"
   style="fill:none;stroke:#050f19;stroke-width:1px"
   d="m 528,153 v -5.006 h 4 V 153" />
            </g>
            <g
   id="g7434"
   transform="translate(-362.773,-8.66682)">
                <path
   id="path7432"
   style="fill:none;stroke:#050f19;stroke-width:1px"
   d="M 524,142.454 V 153 h 11 v -10" />
            </g>
            <g
   id="g7438"
   transform="translate(-363.273,-8.66682)">
                <path
   id="path7436"
   style="fill:none;stroke:#050f19;stroke-width:1px"
   d="m 521,145 9,-7 8,7" />
            </g>
            <g
   id="g7442"
   transform="translate(-363.273,-8.66682)">
                <path
   id="path7440"
   style="fill:none;stroke:#050f19;stroke-width:1px"
   d="m 534,141.5 v -2.272" />
            </g>
            <g
   id="g7446"
   transform="translate(-363.762,-8.37305)">
                <path
   id="path7444"
   style="fill:none;stroke:#85898e;stroke-width:1px"
   d="m 532,208.335 c 0,0.829 -0.673,1.503 -1.503,1.503 -0.829,0 -1.503,-0.674 -1.503,-1.503" />
            </g>
            <g
   id="g7450"
   transform="translate(-363.273,-7.66682)">
                <path
   id="path7448"
   style="fill:none;stroke:#85898e;stroke-width:1px"
   d="m 531.324,194.871 c 0,-0.777 -0.631,-1.408 -1.408,-1.408 h -0.002 c -0.778,0 -1.408,0.631 -1.408,1.408 v 1.037 h 2.818 z" />
            </g>
            <g
   id="g7454"
   transform="translate(-363.273,-7.66682)">
                <path
   id="path7452"
   style="fill:none;stroke:#85898e;stroke-width:1px"
   d="m 530,204.062 h -4.437 l -2.101,1.516 v 1.578 h 6.641" />
            </g>
            <g
   id="g7458"
   transform="matrix(-1,0,0,1,696.837,-7.66682)">
                <path
   id="path7456"
   style="fill:none;stroke:#85898e;stroke-width:1px"
   d="m 525.468,204.062 -2.006,1.516 v 1.578 h 6.641" />
            </g>
            <g
   id="g7462"
   transform="matrix(1,0,0,1.05578,-363.273,-19.1289)">
                <path
   id="path7460"
   style="fill:none;stroke:#85898e;stroke-width:0.97000003px"
   d="m 534.643,204.138 v -5.573 c 0,-1.187 -1.018,-2.15 -2.27,-2.15 h -4.54 c -1.253,0 -2.27,0.963 -2.27,2.15 v 5.573" />
            </g>
            <g
   id="g7466"
   transform="matrix(0.678018,0,0,0.678018,-193.415,73.3363)">
                <path
   id="path7464"
   style="fill:none;stroke:#85898e;stroke-width:1.47000003px"
   d="m 531.977,245.247 h -8.114 v 19.808 h 14.914 v -13.008" />
            </g>
            <g
   id="g7470"
   transform="matrix(0.678018,0,0,0.678018,-195.222,78.4722)">
                <path
   id="path7468"
   style="fill:none;stroke:#85898e;stroke-width:1.47000003px"
   d="m 541.443,244.473 -6.8,-6.801 v 6.801 z" />
            </g>
            <g
   id="g7474"
   transform="translate(-360.285,-6.27472)">
                <circle
   id="circle7472"
   style="fill:none;stroke:#85898e;stroke-width:1px"
   r="5.927"
   cy="303.608"
   cx="526.927" />
            </g>
            <g
   id="g7478"
   transform="translate(-363.273,-7.66682)">
                <path
   id="path7476"
   style="fill:none;stroke:#85898e;stroke-width:1px"
   d="m 530.103,296.659 v 2.414" />
            </g>
            <g
   id="g7482"
   transform="rotate(90,352.197,119.53)">
                <path
   id="path7480"
   style="fill:none;stroke:#85898e;stroke-width:1px"
   d="m 530.103,296.659 v 2.414" />
            </g>
            <g
   id="g7486"
   transform="rotate(180,348.3635,301.1665)">
                <path
   id="path7484"
   style="fill:none;stroke:#85898e;stroke-width:1px"
   d="m 530.103,296.659 v 2.414" />
            </g>
            <g
   id="g7490"
   transform="rotate(-90,344.53,482.803)">
                <path
   id="path7488"
   style="fill:none;stroke:#85898e;stroke-width:1px"
   d="m 530.103,296.659 v 2.414" />
            </g>
            <g
   id="g7494"
   transform="translate(-363.135,-7.58437)">
                <circle
   id="circle7492"
   style="fill:#85898e"
   r="1.86"
   cy="304.918"
   cx="529.96399" />
            </g>
            <g
   id="g7498"
   transform="matrix(0.04109,0,0,0.04109,148.47,690.955)">
                <path
   id="path7496"
   style="fill:none;fill-rule:nonzero;stroke:#85898e;stroke-width:24.34000015px;stroke-miterlimit:4"
   d="m 420,60 c -65.83,0 -120,54.17 -120,120 0,65.83 54.17,120 120,120 65.83,0 120,-54.17 120,-120 C 540,114.17 485.83,60 420,60 m 0,270 c -98.745,0 -180,67.712 -180,150 M 420,330 c 98.745,0 180,67.712 180,150 H 240" />
            </g>
            <g
   id="g7502"
   transform="translate(-362.546,-7.9797)">
                <circle
   id="circle7500"
   style="fill:none;stroke:#85898e;stroke-width:1px"
   r="2.971"
   cy="674.25598"
   cx="528.27399" />
            </g>
            <g
   id="g7506"
   transform="translate(-363.273,-7.66682)">
                <path
   id="path7504"
   style="fill:none;stroke:#85898e;stroke-width:1px"
   d="m 534.338,677.115 c 0.291,-0.489 0.478,-0.983 0.626,-1.546 h 2.551 v -3.129 h -2.551 c -0.144,-0.55 -0.363,-1.071 -0.644,-1.551 h 0.008 l 1.799,-1.799 -2.212,-2.212 -1.803,1.804 v 0.008 c -0.489,-0.291 -0.983,-0.501 -1.547,-0.649 v -2.55 h -3.128 v 2.55 c -0.551,0.145 -1.071,0.363 -1.551,0.645 v -0.009 l -1.799,-1.799 -2.212,2.212 1.804,1.804 h -0.014 c -0.291,0.488 -0.479,0.983 -0.627,1.546 h -2.55 v 3.129 h 2.55 c 0.144,0.55 0.363,1.071 0.645,1.55 h -0.009 l -1.799,1.799 2.212,2.212 1.804,-1.803 v -0.008 c 0.488,0.291 0.983,0.501 1.546,0.648 v 2.551 h 3.128 v -2.551 c 0.551,-0.144 1.072,-0.363 1.551,-0.644 v 0.008 l 1.799,1.799 2.212,-2.212 -1.803,-1.803" />
            </g>
        </g>
        
        
    
</g></g><g
   id="layer2">




<g
   id="g3291"
   transform="translate(43.736651,27.566425)"
   style="clip-rule:evenodd;fill-rule:evenodd"><g
     transform="translate(-51.32,-88)"
     id="Room"><g
       transform="rotate(90,278.575,446.265)"
       id="shape1"><path
         id="path2746"
         style="fill:#ffffff;fill-rule:nonzero"
         d="m 0,0 h 491.6 l 0.879,457.404 h 15.1 v 131.5 h -15.1 L 491.6,600.2 H 0 Z" /></g><g
       id="g2751"
       transform="translate(51.32,88)"><path
         id="path2749"
         style="fill:#808080"
         d="M 84.616,587.957 H 56.653 V 63.023 H 690.187 V 587.957 H 216.116 V 571.29 H 673.52 V 79.69 H 73.32 v 491.6 h 11.296 z" /></g><g
       id="g2755"
       transform="matrix(1.01557,0,0,1,124.64,245.25)"><rect
         id="rect2753"
         style="fill:#808080;fill-opacity:0.13999999;fill-rule:nonzero;stroke:#868686;stroke-width:1px"
         height="56"
         width="591"
         y="0"
         x="0" /></g><g
       id="g2759"
       transform="matrix(1.01557,0,0,1,124.64,524.53)"><rect
         id="rect2757"
         style="fill:#808080;fill-opacity:0.13999999;fill-rule:nonzero;stroke:#868686;stroke-width:1px"
         height="56"
         width="591"
         y="0"
         x="0" /></g><g
       id="g2763"
       transform="translate(124.64,167.65)"><rect
         id="rect2761"
         style="fill:none;fill-rule:nonzero;stroke:#868686;stroke-width:1px"
         height="104"
         width="58.700001"
         y="0"
         x="0" /></g><g
       id="g2767"
       transform="translate(218.8,167.65)"><rect
         id="rect2765"
         style="fill:none;fill-rule:nonzero;stroke:#868686;stroke-width:1px"
         height="56"
         width="133"
         y="0"
         x="0" /></g><g
       id="g2771"
       transform="translate(558,167.65)"><rect
         id="rect2769"
         style="fill:none;fill-rule:nonzero;stroke:#868686;stroke-width:1px"
         height="56"
         width="133"
         y="0"
         x="0" /></g><g
       id="g2775"
       transform="translate(656.6,529.03)"><path
         id="path2773"
         style="fill:none;fill-rule:nonzero;stroke:#868686;stroke-width:1px"
         d="M 0,23.5 C 0,10.5 10.5,0 23.5,0 36.5,0 47,10.5 47,23.5 47,36.5 36.5,47 23.5,47 10.5,47 0,36.5 0,23.5 Z" /></g><g
       id="g2779"
       transform="translate(282.223,640.869)"><rect
         id="rect2777"
         style="fill:none;fill-rule:nonzero;stroke:#868686;stroke-width:1px"
         height="19.299999"
         width="58.700001"
         y="0"
         x="0" /></g><g
       id="g2783"
       transform="rotate(180,131.218,337.6345)"><path
         id="path2781"
         style="fill:none;fill-rule:nonzero;stroke:#868686;stroke-width:1px"
         d="M 0,15.1 C 0,37.9 6.3,59.2 17.2,77.4 M 0,0 V 15.1 H -5 V 0 Z m 121.5,0 v 15.1 h 5 V 0 Z m 0,15.1 L 17.2,77.4 14.6,73.1 118.9,10.8 Z" /></g></g><g
     id="Racks"><g
       id="g2836"><g
         transform="matrix(0.625696,0,0,0.625696,214.198,37.5248)"
         id="Temperature"><g
           id="g2788"
           transform="translate(51.32,88)"><path
             id="path2786"
             style="fill:#496bc7"
             d="m 127.687,282.458 c 0,-4.317 -3.506,-7.823 -7.823,-7.823 h -15.646 c -4.318,0 -7.823,3.506 -7.823,7.823 v 15.646 c 0,4.318 3.505,7.823 7.823,7.823 h 15.646 c 4.317,0 7.823,-3.505 7.823,-7.823 z" /></g><g
           id="g2808"
           transform="matrix(0.0684229,0,0,0.0684229,149.676,364.75)"><path
             id="path2790"
             style="fill:#ffffff"
             d="M 189,264.44 V 108 c 0,-6.071 4.929,-11 11,-11 6.071,0 11,4.929 11,11 v 156.44 c 18.133,4.854 31.5,21.408 31.5,41.06 0,23.456 -19.044,42.5 -42.5,42.5 -23.456,0 -42.5,-19.044 -42.5,-42.5 0,-19.652 13.367,-36.206 31.5,-41.06 z" /><path
             id="path2792"
             style="fill:none;stroke:#ffffff;stroke-width:10px;stroke-linecap:round;stroke-linejoin:round;stroke-miterlimit:1.5"
             d="M 160.75,246.443 V 59.25 C 160.75,37.587 178.337,20 200,20 c 21.663,0 39.25,17.587 39.25,39.25 v 187.193 c 18.843,12.662 31.25,34.172 31.25,58.557 0,38.91 -31.59,70.5 -70.5,70.5 -38.91,0 -70.5,-31.59 -70.5,-70.5 0,-24.385 12.407,-45.895 31.25,-58.557 z" /><path
             id="path2794"
             style="fill:none;stroke:#ffffff;stroke-width:10px;stroke-linecap:round;stroke-linejoin:round;stroke-miterlimit:1.5"
             d="M 239.25,90.271 H 270.5" /><g
             id="g2798"
             transform="translate(0,34)"><path
               id="path2796"
               style="fill:none;stroke:#ffffff;stroke-width:10px;stroke-linecap:round;stroke-linejoin:round;stroke-miterlimit:1.5"
               d="M 239.25,90.271 H 270.5" /></g><g
             id="g2802"
             transform="translate(0,68)"><path
               id="path2800"
               style="fill:none;stroke:#ffffff;stroke-width:10px;stroke-linecap:round;stroke-linejoin:round;stroke-miterlimit:1.5"
               d="M 239.25,90.271 H 270.5" /></g><g
             id="g2806"
             transform="translate(0,102)"><path
               id="path2804"
               style="fill:none;stroke:#ffffff;stroke-width:10px;stroke-linecap:round;stroke-linejoin:round;stroke-miterlimit:1.5"
               d="M 239.25,90.271 H 270.5" /></g></g></g><g
         transform="matrix(0.625696,0,0,0.625696,214.198,139.597)"
         serif:id="Temperature"
         id="Temperature1"><g
           id="g2813"
           transform="translate(51.32,88)"><path
             id="path2811"
             style="fill:#496bc7"
             d="m 127.687,282.458 c 0,-4.317 -3.506,-7.823 -7.823,-7.823 h -15.646 c -4.318,0 -7.823,3.506 -7.823,7.823 v 15.646 c 0,4.318 3.505,7.823 7.823,7.823 h 15.646 c 4.317,0 7.823,-3.505 7.823,-7.823 z" /></g><g
           id="g2833"
           transform="matrix(0.0684229,0,0,0.0684229,149.676,364.75)"><path
             id="path2815"
             style="fill:#ffffff"
             d="M 189,264.44 V 108 c 0,-6.071 4.929,-11 11,-11 6.071,0 11,4.929 11,11 v 156.44 c 18.133,4.854 31.5,21.408 31.5,41.06 0,23.456 -19.044,42.5 -42.5,42.5 -23.456,0 -42.5,-19.044 -42.5,-42.5 0,-19.652 13.367,-36.206 31.5,-41.06 z" /><path
             id="path2817"
             style="fill:none;stroke:#ffffff;stroke-width:10px;stroke-linecap:round;stroke-linejoin:round;stroke-miterlimit:1.5"
             d="M 160.75,246.443 V 59.25 C 160.75,37.587 178.337,20 200,20 c 21.663,0 39.25,17.587 39.25,39.25 v 187.193 c 18.843,12.662 31.25,34.172 31.25,58.557 0,38.91 -31.59,70.5 -70.5,70.5 -38.91,0 -70.5,-31.59 -70.5,-70.5 0,-24.385 12.407,-45.895 31.25,-58.557 z" /><path
             id="path2819"
             style="fill:none;stroke:#ffffff;stroke-width:10px;stroke-linecap:round;stroke-linejoin:round;stroke-miterlimit:1.5"
             d="M 239.25,90.271 H 270.5" /><g
             id="g2823"
             transform="translate(0,34)"><path
               id="path2821"
               style="fill:none;stroke:#ffffff;stroke-width:10px;stroke-linecap:round;stroke-linejoin:round;stroke-miterlimit:1.5"
               d="M 239.25,90.271 H 270.5" /></g><g
             id="g2827"
             transform="translate(0,68)"><path
               id="path2825"
               style="fill:none;stroke:#ffffff;stroke-width:10px;stroke-linecap:round;stroke-linejoin:round;stroke-miterlimit:1.5"
               d="M 239.25,90.271 H 270.5" /></g><g
             id="g2831"
             transform="translate(0,102)"><path
               id="path2829"
               style="fill:none;stroke:#ffffff;stroke-width:10px;stroke-linecap:round;stroke-linejoin:round;stroke-miterlimit:1.5"
               d="M 239.25,90.271 H 270.5" /></g></g></g></g><rect
       id="rect2838"
       style="fill:none;stroke:#808080;stroke-width:2.22000003px;stroke-linecap:square;stroke-miterlimit:1.5"
       height="133.978"
       width="86.123001"
       y="258.16501"
       x="300.005" /><g
       id="g2890"><g
         transform="matrix(0.625696,0,0,0.625696,300.322,37.5248)"
         serif:id="Temperature"
         id="Temperature2"><g
           id="g2842"
           transform="translate(51.32,88)"><path
             id="path2840"
             style="fill:#496bc7"
             d="m 127.687,282.458 c 0,-4.317 -3.506,-7.823 -7.823,-7.823 h -15.646 c -4.318,0 -7.823,3.506 -7.823,7.823 v 15.646 c 0,4.318 3.505,7.823 7.823,7.823 h 15.646 c 4.317,0 7.823,-3.505 7.823,-7.823 z" /></g><g
           id="g2862"
           transform="matrix(0.0684229,0,0,0.0684229,149.676,364.75)"><path
             id="path2844"
             style="fill:#ffffff"
             d="M 189,264.44 V 108 c 0,-6.071 4.929,-11 11,-11 6.071,0 11,4.929 11,11 v 156.44 c 18.133,4.854 31.5,21.408 31.5,41.06 0,23.456 -19.044,42.5 -42.5,42.5 -23.456,0 -42.5,-19.044 -42.5,-42.5 0,-19.652 13.367,-36.206 31.5,-41.06 z" /><path
             id="path2846"
             style="fill:none;stroke:#ffffff;stroke-width:10px;stroke-linecap:round;stroke-linejoin:round;stroke-miterlimit:1.5"
             d="M 160.75,246.443 V 59.25 C 160.75,37.587 178.337,20 200,20 c 21.663,0 39.25,17.587 39.25,39.25 v 187.193 c 18.843,12.662 31.25,34.172 31.25,58.557 0,38.91 -31.59,70.5 -70.5,70.5 -38.91,0 -70.5,-31.59 -70.5,-70.5 0,-24.385 12.407,-45.895 31.25,-58.557 z" /><path
             id="path2848"
             style="fill:none;stroke:#ffffff;stroke-width:10px;stroke-linecap:round;stroke-linejoin:round;stroke-miterlimit:1.5"
             d="M 239.25,90.271 H 270.5" /><g
             id="g2852"
             transform="translate(0,34)"><path
               id="path2850"
               style="fill:none;stroke:#ffffff;stroke-width:10px;stroke-linecap:round;stroke-linejoin:round;stroke-miterlimit:1.5"
               d="M 239.25,90.271 H 270.5" /></g><g
             id="g2856"
             transform="translate(0,68)"><path
               id="path2854"
               style="fill:none;stroke:#ffffff;stroke-width:10px;stroke-linecap:round;stroke-linejoin:round;stroke-miterlimit:1.5"
               d="M 239.25,90.271 H 270.5" /></g><g
             id="g2860"
             transform="translate(0,102)"><path
               id="path2858"
               style="fill:none;stroke:#ffffff;stroke-width:10px;stroke-linecap:round;stroke-linejoin:round;stroke-miterlimit:1.5"
               d="M 239.25,90.271 H 270.5" /></g></g></g><g
         transform="matrix(0.625696,0,0,0.625696,300.322,139.597)"
         serif:id="Temperature"
         id="Temperature3"><g
           id="g2867"
           transform="translate(51.32,88)"><path
             id="path2865"
             style="fill:#496bc7"
             d="m 127.687,282.458 c 0,-4.317 -3.506,-7.823 -7.823,-7.823 h -15.646 c -4.318,0 -7.823,3.506 -7.823,7.823 v 15.646 c 0,4.318 3.505,7.823 7.823,7.823 h 15.646 c 4.317,0 7.823,-3.505 7.823,-7.823 z" /></g><g
           id="g2887"
           transform="matrix(0.0684229,0,0,0.0684229,149.676,364.75)"><path
             id="path2869"
             style="fill:#ffffff"
             d="M 189,264.44 V 108 c 0,-6.071 4.929,-11 11,-11 6.071,0 11,4.929 11,11 v 156.44 c 18.133,4.854 31.5,21.408 31.5,41.06 0,23.456 -19.044,42.5 -42.5,42.5 -23.456,0 -42.5,-19.044 -42.5,-42.5 0,-19.652 13.367,-36.206 31.5,-41.06 z" /><path
             id="path2871"
             style="fill:none;stroke:#ffffff;stroke-width:10px;stroke-linecap:round;stroke-linejoin:round;stroke-miterlimit:1.5"
             d="M 160.75,246.443 V 59.25 C 160.75,37.587 178.337,20 200,20 c 21.663,0 39.25,17.587 39.25,39.25 v 187.193 c 18.843,12.662 31.25,34.172 31.25,58.557 0,38.91 -31.59,70.5 -70.5,70.5 -38.91,0 -70.5,-31.59 -70.5,-70.5 0,-24.385 12.407,-45.895 31.25,-58.557 z" /><path
             id="path2873"
             style="fill:none;stroke:#ffffff;stroke-width:10px;stroke-linecap:round;stroke-linejoin:round;stroke-miterlimit:1.5"
             d="M 239.25,90.271 H 270.5" /><g
             id="g2877"
             transform="translate(0,34)"><path
               id="path2875"
               style="fill:none;stroke:#ffffff;stroke-width:10px;stroke-linecap:round;stroke-linejoin:round;stroke-miterlimit:1.5"
               d="M 239.25,90.271 H 270.5" /></g><g
             id="g2881"
             transform="translate(0,68)"><path
               id="path2879"
               style="fill:none;stroke:#ffffff;stroke-width:10px;stroke-linecap:round;stroke-linejoin:round;stroke-miterlimit:1.5"
               d="M 239.25,90.271 H 270.5" /></g><g
             id="g2885"
             transform="translate(0,102)"><path
               id="path2883"
               style="fill:none;stroke:#ffffff;stroke-width:10px;stroke-linecap:round;stroke-linejoin:round;stroke-miterlimit:1.5"
               d="M 239.25,90.271 H 270.5" /></g></g></g></g><g
       id="g2894"
       transform="translate(86.1233)"><rect
         id="rect2892"
         style="fill:none;stroke:#808080;stroke-width:2.22000003px;stroke-linecap:square;stroke-miterlimit:1.5"
         height="133.978"
         width="86.123001"
         y="258.16501"
         x="300.005" /></g><g
       id="g2946"><g
         transform="matrix(0.625696,0,0,0.625696,386.445,37.5248)"
         serif:id="Temperature"
         id="Temperature4"><g
           id="g2898"
           transform="translate(51.32,88)"><path
             id="path2896"
             style="fill:#496bc7"
             d="m 127.687,282.458 c 0,-4.317 -3.506,-7.823 -7.823,-7.823 h -15.646 c -4.318,0 -7.823,3.506 -7.823,7.823 v 15.646 c 0,4.318 3.505,7.823 7.823,7.823 h 15.646 c 4.317,0 7.823,-3.505 7.823,-7.823 z" /></g><g
           id="g2918"
           transform="matrix(0.0684229,0,0,0.0684229,149.676,364.75)"><path
             id="path2900"
             style="fill:#ffffff"
             d="M 189,264.44 V 108 c 0,-6.071 4.929,-11 11,-11 6.071,0 11,4.929 11,11 v 156.44 c 18.133,4.854 31.5,21.408 31.5,41.06 0,23.456 -19.044,42.5 -42.5,42.5 -23.456,0 -42.5,-19.044 -42.5,-42.5 0,-19.652 13.367,-36.206 31.5,-41.06 z" /><path
             id="path2902"
             style="fill:none;stroke:#ffffff;stroke-width:10px;stroke-linecap:round;stroke-linejoin:round;stroke-miterlimit:1.5"
             d="M 160.75,246.443 V 59.25 C 160.75,37.587 178.337,20 200,20 c 21.663,0 39.25,17.587 39.25,39.25 v 187.193 c 18.843,12.662 31.25,34.172 31.25,58.557 0,38.91 -31.59,70.5 -70.5,70.5 -38.91,0 -70.5,-31.59 -70.5,-70.5 0,-24.385 12.407,-45.895 31.25,-58.557 z" /><path
             id="path2904"
             style="fill:none;stroke:#ffffff;stroke-width:10px;stroke-linecap:round;stroke-linejoin:round;stroke-miterlimit:1.5"
             d="M 239.25,90.271 H 270.5" /><g
             id="g2908"
             transform="translate(0,34)"><path
               id="path2906"
               style="fill:none;stroke:#ffffff;stroke-width:10px;stroke-linecap:round;stroke-linejoin:round;stroke-miterlimit:1.5"
               d="M 239.25,90.271 H 270.5" /></g><g
             id="g2912"
             transform="translate(0,68)"><path
               id="path2910"
               style="fill:none;stroke:#ffffff;stroke-width:10px;stroke-linecap:round;stroke-linejoin:round;stroke-miterlimit:1.5"
               d="M 239.25,90.271 H 270.5" /></g><g
             id="g2916"
             transform="translate(0,102)"><path
               id="path2914"
               style="fill:none;stroke:#ffffff;stroke-width:10px;stroke-linecap:round;stroke-linejoin:round;stroke-miterlimit:1.5"
               d="M 239.25,90.271 H 270.5" /></g></g></g><g
         transform="matrix(0.625696,0,0,0.625696,386.445,139.597)"
         serif:id="Temperature"
         id="Temperature5"><g
           id="g2923"
           transform="translate(51.32,88)"><path
             id="path2921"
             style="fill:#496bc7"
             d="m 127.687,282.458 c 0,-4.317 -3.506,-7.823 -7.823,-7.823 h -15.646 c -4.318,0 -7.823,3.506 -7.823,7.823 v 15.646 c 0,4.318 3.505,7.823 7.823,7.823 h 15.646 c 4.317,0 7.823,-3.505 7.823,-7.823 z" /></g><g
           id="g2943"
           transform="matrix(0.0684229,0,0,0.0684229,149.676,364.75)"><path
             id="path2925"
             style="fill:#ffffff"
             d="M 189,264.44 V 108 c 0,-6.071 4.929,-11 11,-11 6.071,0 11,4.929 11,11 v 156.44 c 18.133,4.854 31.5,21.408 31.5,41.06 0,23.456 -19.044,42.5 -42.5,42.5 -23.456,0 -42.5,-19.044 -42.5,-42.5 0,-19.652 13.367,-36.206 31.5,-41.06 z" /><path
             id="path2927"
             style="fill:none;stroke:#ffffff;stroke-width:10px;stroke-linecap:round;stroke-linejoin:round;stroke-miterlimit:1.5"
             d="M 160.75,246.443 V 59.25 C 160.75,37.587 178.337,20 200,20 c 21.663,0 39.25,17.587 39.25,39.25 v 187.193 c 18.843,12.662 31.25,34.172 31.25,58.557 0,38.91 -31.59,70.5 -70.5,70.5 -38.91,0 -70.5,-31.59 -70.5,-70.5 0,-24.385 12.407,-45.895 31.25,-58.557 z" /><path
             id="path2929"
             style="fill:none;stroke:#ffffff;stroke-width:10px;stroke-linecap:round;stroke-linejoin:round;stroke-miterlimit:1.5"
             d="M 239.25,90.271 H 270.5" /><g
             id="g2933"
             transform="translate(0,34)"><path
               id="path2931"
               style="fill:none;stroke:#ffffff;stroke-width:10px;stroke-linecap:round;stroke-linejoin:round;stroke-miterlimit:1.5"
               d="M 239.25,90.271 H 270.5" /></g><g
             id="g2937"
             transform="translate(0,68)"><path
               id="path2935"
               style="fill:none;stroke:#ffffff;stroke-width:10px;stroke-linecap:round;stroke-linejoin:round;stroke-miterlimit:1.5"
               d="M 239.25,90.271 H 270.5" /></g><g
             id="g2941"
             transform="translate(0,102)"><path
               id="path2939"
               style="fill:none;stroke:#ffffff;stroke-width:10px;stroke-linecap:round;stroke-linejoin:round;stroke-miterlimit:1.5"
               d="M 239.25,90.271 H 270.5" /></g></g></g></g><g
       id="g2950"
       transform="translate(172.247)"><rect
         id="rect2948"
         style="fill:none;stroke:#808080;stroke-width:2.22000003px;stroke-linecap:square;stroke-miterlimit:1.5"
         height="133.978"
         width="86.123001"
         y="258.16501"
         x="300.005" /></g><g
       id="g3002"><g
         transform="matrix(0.625696,0,0,0.625696,472.568,37.5248)"
         serif:id="Temperature"
         id="Temperature6"><g
           id="g2954"
           transform="translate(51.32,88)"><path
             id="path2952"
             style="fill:#496bc7"
             d="m 127.687,282.458 c 0,-4.317 -3.506,-7.823 -7.823,-7.823 h -15.646 c -4.318,0 -7.823,3.506 -7.823,7.823 v 15.646 c 0,4.318 3.505,7.823 7.823,7.823 h 15.646 c 4.317,0 7.823,-3.505 7.823,-7.823 z" /></g><g
           id="g2974"
           transform="matrix(0.0684229,0,0,0.0684229,149.676,364.75)"><path
             id="path2956"
             style="fill:#ffffff"
             d="M 189,264.44 V 108 c 0,-6.071 4.929,-11 11,-11 6.071,0 11,4.929 11,11 v 156.44 c 18.133,4.854 31.5,21.408 31.5,41.06 0,23.456 -19.044,42.5 -42.5,42.5 -23.456,0 -42.5,-19.044 -42.5,-42.5 0,-19.652 13.367,-36.206 31.5,-41.06 z" /><path
             id="path2958"
             style="fill:none;stroke:#ffffff;stroke-width:10px;stroke-linecap:round;stroke-linejoin:round;stroke-miterlimit:1.5"
             d="M 160.75,246.443 V 59.25 C 160.75,37.587 178.337,20 200,20 c 21.663,0 39.25,17.587 39.25,39.25 v 187.193 c 18.843,12.662 31.25,34.172 31.25,58.557 0,38.91 -31.59,70.5 -70.5,70.5 -38.91,0 -70.5,-31.59 -70.5,-70.5 0,-24.385 12.407,-45.895 31.25,-58.557 z" /><path
             id="path2960"
             style="fill:none;stroke:#ffffff;stroke-width:10px;stroke-linecap:round;stroke-linejoin:round;stroke-miterlimit:1.5"
             d="M 239.25,90.271 H 270.5" /><g
             id="g2964"
             transform="translate(0,34)"><path
               id="path2962"
               style="fill:none;stroke:#ffffff;stroke-width:10px;stroke-linecap:round;stroke-linejoin:round;stroke-miterlimit:1.5"
               d="M 239.25,90.271 H 270.5" /></g><g
             id="g2968"
             transform="translate(0,68)"><path
               id="path2966"
               style="fill:none;stroke:#ffffff;stroke-width:10px;stroke-linecap:round;stroke-linejoin:round;stroke-miterlimit:1.5"
               d="M 239.25,90.271 H 270.5" /></g><g
             id="g2972"
             transform="translate(0,102)"><path
               id="path2970"
               style="fill:none;stroke:#ffffff;stroke-width:10px;stroke-linecap:round;stroke-linejoin:round;stroke-miterlimit:1.5"
               d="M 239.25,90.271 H 270.5" /></g></g></g><g
         transform="matrix(0.625696,0,0,0.625696,472.568,139.597)"
         serif:id="Temperature"
         id="Temperature7"><g
           id="g2979"
           transform="translate(51.32,88)"><path
             id="path2977"
             style="fill:#496bc7"
             d="m 127.687,282.458 c 0,-4.317 -3.506,-7.823 -7.823,-7.823 h -15.646 c -4.318,0 -7.823,3.506 -7.823,7.823 v 15.646 c 0,4.318 3.505,7.823 7.823,7.823 h 15.646 c 4.317,0 7.823,-3.505 7.823,-7.823 z" /></g><g
           id="g2999"
           transform="matrix(0.0684229,0,0,0.0684229,149.676,364.75)"><path
             id="path2981"
             style="fill:#ffffff"
             d="M 189,264.44 V 108 c 0,-6.071 4.929,-11 11,-11 6.071,0 11,4.929 11,11 v 156.44 c 18.133,4.854 31.5,21.408 31.5,41.06 0,23.456 -19.044,42.5 -42.5,42.5 -23.456,0 -42.5,-19.044 -42.5,-42.5 0,-19.652 13.367,-36.206 31.5,-41.06 z" /><path
             id="path2983"
             style="fill:none;stroke:#ffffff;stroke-width:10px;stroke-linecap:round;stroke-linejoin:round;stroke-miterlimit:1.5"
             d="M 160.75,246.443 V 59.25 C 160.75,37.587 178.337,20 200,20 c 21.663,0 39.25,17.587 39.25,39.25 v 187.193 c 18.843,12.662 31.25,34.172 31.25,58.557 0,38.91 -31.59,70.5 -70.5,70.5 -38.91,0 -70.5,-31.59 -70.5,-70.5 0,-24.385 12.407,-45.895 31.25,-58.557 z" /><path
             id="path2985"
             style="fill:none;stroke:#ffffff;stroke-width:10px;stroke-linecap:round;stroke-linejoin:round;stroke-miterlimit:1.5"
             d="M 239.25,90.271 H 270.5" /><g
             id="g2989"
             transform="translate(0,34)"><path
               id="path2987"
               style="fill:none;stroke:#ffffff;stroke-width:10px;stroke-linecap:round;stroke-linejoin:round;stroke-miterlimit:1.5"
               d="M 239.25,90.271 H 270.5" /></g><g
             id="g2993"
             transform="translate(0,68)"><path
               id="path2991"
               style="fill:none;stroke:#ffffff;stroke-width:10px;stroke-linecap:round;stroke-linejoin:round;stroke-miterlimit:1.5"
               d="M 239.25,90.271 H 270.5" /></g><g
             id="g2997"
             transform="translate(0,102)"><path
               id="path2995"
               style="fill:none;stroke:#ffffff;stroke-width:10px;stroke-linecap:round;stroke-linejoin:round;stroke-miterlimit:1.5"
               d="M 239.25,90.271 H 270.5" /></g></g></g></g><g
       id="g3006"
       transform="translate(258.37)"><rect
         id="rect3004"
         style="fill:none;stroke:#808080;stroke-width:2.22000003px;stroke-linecap:square;stroke-miterlimit:1.5"
         height="133.978"
         width="86.123001"
         y="258.16501"
         x="300.005" /></g></g><g
     serif:id="AC units"
     id="AC-units"><g
       transform="matrix(0.625696,0,0,0.625696,186.164,-113.018)"
       serif:id="Temperature"
       id="Temperature8"><g
         id="g3011"
         transform="translate(51.32,88)"><path
           id="path3009"
           style="fill:#496bc7"
           d="m 127.687,282.458 c 0,-4.317 -3.506,-7.823 -7.823,-7.823 h -15.646 c -4.318,0 -7.823,3.506 -7.823,7.823 v 15.646 c 0,4.318 3.505,7.823 7.823,7.823 h 15.646 c 4.317,0 7.823,-3.505 7.823,-7.823 z" /></g><g
         id="g3031"
         transform="matrix(0.0684229,0,0,0.0684229,149.676,364.75)"><path
           id="path3013"
           style="fill:#ffffff"
           d="M 189,264.44 V 108 c 0,-6.071 4.929,-11 11,-11 6.071,0 11,4.929 11,11 v 156.44 c 18.133,4.854 31.5,21.408 31.5,41.06 0,23.456 -19.044,42.5 -42.5,42.5 -23.456,0 -42.5,-19.044 -42.5,-42.5 0,-19.652 13.367,-36.206 31.5,-41.06 z" /><path
           id="path3015"
           style="fill:none;stroke:#ffffff;stroke-width:10px;stroke-linecap:round;stroke-linejoin:round;stroke-miterlimit:1.5"
           d="M 160.75,246.443 V 59.25 C 160.75,37.587 178.337,20 200,20 c 21.663,0 39.25,17.587 39.25,39.25 v 187.193 c 18.843,12.662 31.25,34.172 31.25,58.557 0,38.91 -31.59,70.5 -70.5,70.5 -38.91,0 -70.5,-31.59 -70.5,-70.5 0,-24.385 12.407,-45.895 31.25,-58.557 z" /><path
           id="path3017"
           style="fill:none;stroke:#ffffff;stroke-width:10px;stroke-linecap:round;stroke-linejoin:round;stroke-miterlimit:1.5"
           d="M 239.25,90.271 H 270.5" /><g
           id="g3021"
           transform="translate(0,34)"><path
             id="path3019"
             style="fill:none;stroke:#ffffff;stroke-width:10px;stroke-linecap:round;stroke-linejoin:round;stroke-miterlimit:1.5"
             d="M 239.25,90.271 H 270.5" /></g><g
           id="g3025"
           transform="translate(0,68)"><path
             id="path3023"
             style="fill:none;stroke:#ffffff;stroke-width:10px;stroke-linecap:round;stroke-linejoin:round;stroke-miterlimit:1.5"
             d="M 239.25,90.271 H 270.5" /></g><g
           id="g3029"
           transform="translate(0,102)"><path
             id="path3027"
             style="fill:none;stroke:#ffffff;stroke-width:10px;stroke-linecap:round;stroke-linejoin:round;stroke-miterlimit:1.5"
             d="M 239.25,90.271 H 270.5" /></g></g></g><g
       transform="matrix(0.625696,0,0,0.625696,525.373,-113.018)"
       serif:id="Temperature"
       id="Temperature9"><g
         id="g3036"
         transform="translate(51.32,88)"><path
           id="path3034"
           style="fill:#496bc7"
           d="m 127.687,282.458 c 0,-4.317 -3.506,-7.823 -7.823,-7.823 h -15.646 c -4.318,0 -7.823,3.506 -7.823,7.823 v 15.646 c 0,4.318 3.505,7.823 7.823,7.823 h 15.646 c 4.317,0 7.823,-3.505 7.823,-7.823 z" /></g><g
         id="g3056"
         transform="matrix(0.0684229,0,0,0.0684229,149.676,364.75)"><path
           id="path3038"
           style="fill:#ffffff"
           d="M 189,264.44 V 108 c 0,-6.071 4.929,-11 11,-11 6.071,0 11,4.929 11,11 v 156.44 c 18.133,4.854 31.5,21.408 31.5,41.06 0,23.456 -19.044,42.5 -42.5,42.5 -23.456,0 -42.5,-19.044 -42.5,-42.5 0,-19.652 13.367,-36.206 31.5,-41.06 z" /><path
           id="path3040"
           style="fill:none;stroke:#ffffff;stroke-width:10px;stroke-linecap:round;stroke-linejoin:round;stroke-miterlimit:1.5"
           d="M 160.75,246.443 V 59.25 C 160.75,37.587 178.337,20 200,20 c 21.663,0 39.25,17.587 39.25,39.25 v 187.193 c 18.843,12.662 31.25,34.172 31.25,58.557 0,38.91 -31.59,70.5 -70.5,70.5 -38.91,0 -70.5,-31.59 -70.5,-70.5 0,-24.385 12.407,-45.895 31.25,-58.557 z" /><path
           id="path3042"
           style="fill:none;stroke:#ffffff;stroke-width:10px;stroke-linecap:round;stroke-linejoin:round;stroke-miterlimit:1.5"
           d="M 239.25,90.271 H 270.5" /><g
           id="g3046"
           transform="translate(0,34)"><path
             id="path3044"
             style="fill:none;stroke:#ffffff;stroke-width:10px;stroke-linecap:round;stroke-linejoin:round;stroke-miterlimit:1.5"
             d="M 239.25,90.271 H 270.5" /></g><g
           id="g3050"
           transform="translate(0,68)"><path
             id="path3048"
             style="fill:none;stroke:#ffffff;stroke-width:10px;stroke-linecap:round;stroke-linejoin:round;stroke-miterlimit:1.5"
             d="M 239.25,90.271 H 270.5" /></g><g
           id="g3054"
           transform="translate(0,102)"><path
             id="path3052"
             style="fill:none;stroke:#ffffff;stroke-width:10px;stroke-linecap:round;stroke-linejoin:round;stroke-miterlimit:1.5"
             d="M 239.25,90.271 H 270.5" /></g></g></g><g
       transform="matrix(0.625696,0,0,0.625696,163.485,-113.018)"
       id="Water"><g
         id="g3061"
         transform="translate(51.32,88)"><path
           id="path3059"
           style="fill:#496bc7"
           d="m 127.687,282.458 c 0,-4.317 -3.506,-7.823 -7.823,-7.823 h -15.646 c -4.318,0 -7.823,3.506 -7.823,7.823 v 15.646 c 0,4.318 3.505,7.823 7.823,7.823 h 15.646 c 4.317,0 7.823,-3.505 7.823,-7.823 z" /></g><g
         id="g3065"
         transform="matrix(0.0358847,0,0,0.0358847,152.267,364.831)"><path
           id="path3063"
           style="fill:none;stroke:#ffffff;stroke-width:20.62000084px;stroke-linecap:round;stroke-linejoin:round;stroke-miterlimit:1.5"
           d="m 304,243.75 c 0,0 -1.104,19.281 -3.636,28.273 C 288.028,315.841 247.74,348 200,348 142.463,348 95.75,301.287 95.75,243.75 95.758,143.075 200.049,86.464 200,49 h -0.25 C 199.701,86.464 303.992,143.075 304,243.75 Z" /></g><g
         id="g3069"
         transform="matrix(0.0358847,0,0,0.0358847,160.11,370.751)"><path
           id="path3067"
           style="fill:none;stroke:#ffffff;stroke-width:20.62000084px;stroke-linecap:round;stroke-linejoin:round;stroke-miterlimit:1.5"
           d="m 304,243.75 c 0,0 -1.104,19.281 -3.636,28.273 C 288.028,315.841 247.74,348 200,348 142.463,348 95.75,301.287 95.75,243.75 95.758,143.075 200.049,86.464 200,49 h -0.25 C 199.701,86.464 303.992,143.075 304,243.75 Z" /></g><g
         id="g3073"
         transform="matrix(0.0358847,0,0,0.0358847,152.267,377.485)"><path
           id="path3071"
           style="fill:none;stroke:#ffffff;stroke-width:20.62000084px;stroke-linecap:round;stroke-linejoin:round;stroke-miterlimit:1.5"
           d="m 304,243.75 c 0,0 -1.104,19.281 -3.636,28.273 C 288.028,315.841 247.74,348 200,348 142.463,348 95.75,301.287 95.75,243.75 95.758,143.075 200.049,86.464 200,49 h -0.25 C 199.701,86.464 303.992,143.075 304,243.75 Z" /></g></g><g
       transform="matrix(0.625696,0,0,0.625696,502.694,-113.018)"
       serif:id="Water"
       id="Water1"><g
         id="g3078"
         transform="translate(51.32,88)"><path
           id="path3076"
           style="fill:#496bc7"
           d="m 127.687,282.458 c 0,-4.317 -3.506,-7.823 -7.823,-7.823 h -15.646 c -4.318,0 -7.823,3.506 -7.823,7.823 v 15.646 c 0,4.318 3.505,7.823 7.823,7.823 h 15.646 c 4.317,0 7.823,-3.505 7.823,-7.823 z" /></g><g
         id="g3082"
         transform="matrix(0.0358847,0,0,0.0358847,152.267,364.831)"><path
           id="path3080"
           style="fill:none;stroke:#ffffff;stroke-width:20.62000084px;stroke-linecap:round;stroke-linejoin:round;stroke-miterlimit:1.5"
           d="m 304,243.75 c 0,0 -1.104,19.281 -3.636,28.273 C 288.028,315.841 247.74,348 200,348 142.463,348 95.75,301.287 95.75,243.75 95.758,143.075 200.049,86.464 200,49 h -0.25 C 199.701,86.464 303.992,143.075 304,243.75 Z" /></g><g
         id="g3086"
         transform="matrix(0.0358847,0,0,0.0358847,160.11,370.751)"><path
           id="path3084"
           style="fill:none;stroke:#ffffff;stroke-width:20.62000084px;stroke-linecap:round;stroke-linejoin:round;stroke-miterlimit:1.5"
           d="m 304,243.75 c 0,0 -1.104,19.281 -3.636,28.273 C 288.028,315.841 247.74,348 200,348 142.463,348 95.75,301.287 95.75,243.75 95.758,143.075 200.049,86.464 200,49 h -0.25 C 199.701,86.464 303.992,143.075 304,243.75 Z" /></g><g
         id="g3090"
         transform="matrix(0.0358847,0,0,0.0358847,152.267,377.485)"><path
           id="path3088"
           style="fill:none;stroke:#ffffff;stroke-width:20.62000084px;stroke-linecap:round;stroke-linejoin:round;stroke-miterlimit:1.5"
           d="m 304,243.75 c 0,0 -1.104,19.281 -3.636,28.273 C 288.028,315.841 247.74,348 200,348 142.463,348 95.75,301.287 95.75,243.75 95.758,143.075 200.049,86.464 200,49 h -0.25 C 199.701,86.464 303.992,143.075 304,243.75 Z" /></g></g><g
       transform="matrix(0.625696,0,0,0.625696,140.806,-113.018)"
       id="Airflow"><g
         id="g3095"
         transform="translate(51.32,88)"><path
           id="path3093"
           style="fill:#496bc7"
           d="m 127.687,282.458 c 0,-4.317 -3.506,-7.823 -7.823,-7.823 h -15.646 c -4.318,0 -7.823,3.506 -7.823,7.823 v 15.646 c 0,4.318 3.505,7.823 7.823,7.823 h 15.646 c 4.317,0 7.823,-3.505 7.823,-7.823 z" /></g><g
         id="g3109"
         transform="matrix(0.0858633,0,0,0.0858633,146.872,361.151)"><path
           id="path3097"
           style="fill:none;stroke:#ffffff;stroke-width:10px;stroke-linecap:round;stroke-linejoin:round;stroke-miterlimit:1.5"
           d="M 54,162 H 240" /><path
           id="path3099"
           style="fill:none;stroke:#ffffff;stroke-width:10px;stroke-linecap:round;stroke-linejoin:round;stroke-miterlimit:1.5"
           d="m 302,122 c 24.749,8.234 -1.888,46.48 -25,25 -23.129,-21.496 8.362,-56.999 39,-39 18.444,10.836 19.099,48.136 0,65 -3.864,3.412 -10.098,7.004 -17,7 H 73" /><g
           id="g3103"
           transform="matrix(1,0,0,-1,-11,380)"><path
             id="path3101"
             style="fill:none;stroke:#ffffff;stroke-width:10px;stroke-linecap:round;stroke-linejoin:round;stroke-miterlimit:1.5"
             d="m 302,122 c 24.749,8.234 -1.888,46.48 -25,25 -23.129,-21.496 8.362,-56.999 39,-39 18.444,10.836 19.099,48.136 0,65 -3.864,3.412 -10.098,7.004 -17,7 H 159" /></g><g
           id="g3107"
           transform="matrix(1,0,0,-1,-115,399)"><path
             id="path3105"
             style="fill:none;stroke:#ffffff;stroke-width:10px;stroke-linecap:round;stroke-linejoin:round;stroke-miterlimit:1.5"
             d="m 302,122 c 24.749,8.234 -1.888,46.48 -25,25 -23.129,-21.496 8.362,-56.999 39,-39 18.444,10.836 19.099,48.136 0,65 -3.864,3.412 -10.098,7.004 -17,7 H 182" /></g></g></g><g
       transform="matrix(0.625696,0,0,0.625696,480.016,-113.018)"
       serif:id="Airflow"
       id="Airflow1"><g
         id="g3114"
         transform="translate(51.32,88)"><path
           id="path3112"
           style="fill:#496bc7"
           d="m 127.687,282.458 c 0,-4.317 -3.506,-7.823 -7.823,-7.823 h -15.646 c -4.318,0 -7.823,3.506 -7.823,7.823 v 15.646 c 0,4.318 3.505,7.823 7.823,7.823 h 15.646 c 4.317,0 7.823,-3.505 7.823,-7.823 z" /></g><g
         id="g3128"
         transform="matrix(0.0858633,0,0,0.0858633,146.872,361.151)"><path
           id="path3116"
           style="fill:none;stroke:#ffffff;stroke-width:10px;stroke-linecap:round;stroke-linejoin:round;stroke-miterlimit:1.5"
           d="M 54,162 H 240" /><path
           id="path3118"
           style="fill:none;stroke:#ffffff;stroke-width:10px;stroke-linecap:round;stroke-linejoin:round;stroke-miterlimit:1.5"
           d="m 302,122 c 24.749,8.234 -1.888,46.48 -25,25 -23.129,-21.496 8.362,-56.999 39,-39 18.444,10.836 19.099,48.136 0,65 -3.864,3.412 -10.098,7.004 -17,7 H 73" /><g
           id="g3122"
           transform="matrix(1,0,0,-1,-11,380)"><path
             id="path3120"
             style="fill:none;stroke:#ffffff;stroke-width:10px;stroke-linecap:round;stroke-linejoin:round;stroke-miterlimit:1.5"
             d="m 302,122 c 24.749,8.234 -1.888,46.48 -25,25 -23.129,-21.496 8.362,-56.999 39,-39 18.444,10.836 19.099,48.136 0,65 -3.864,3.412 -10.098,7.004 -17,7 H 159" /></g><g
           id="g3126"
           transform="matrix(1,0,0,-1,-115,399)"><path
             id="path3124"
             style="fill:none;stroke:#ffffff;stroke-width:10px;stroke-linecap:round;stroke-linejoin:round;stroke-miterlimit:1.5"
             d="m 302,122 c 24.749,8.234 -1.888,46.48 -25,25 -23.129,-21.496 8.362,-56.999 39,-39 18.444,10.836 19.099,48.136 0,65 -3.864,3.412 -10.098,7.004 -17,7 H 182" /></g></g></g></g><g
     id="g3207"><g
       transform="matrix(0.625696,0,0,0.625696,91.6863,258.461)"
       serif:id="Door access"
       id="Door-access"><g
         id="g3134"
         transform="translate(51.32,88)"><path
           id="path3132"
           style="fill:#496bc7"
           d="m 127.687,282.458 c 0,-4.317 -3.506,-7.823 -7.823,-7.823 h -15.646 c -4.318,0 -7.823,3.506 -7.823,7.823 v 15.646 c 0,4.318 3.505,7.823 7.823,7.823 h 15.646 c 4.317,0 7.823,-3.505 7.823,-7.823 z" /></g><g
         id="g3144"
         transform="matrix(0.0955509,0,0,0.0955509,143.847,360.415)"><g
           id="g3138"
           transform="matrix(0.53996,0.935238,-0.613167,0.789953,196.388,-140.217)"><circle
             id="circle3136"
             style="fill:none;stroke:#ffffff;stroke-width:8.18999958px;stroke-linecap:round;stroke-linejoin:round;stroke-miterlimit:1.5"
             r="5.5"
             cy="182.5"
             cx="194.5" /></g><path
           id="path3140"
           style="fill:none;stroke:#ffffff;stroke-width:10px;stroke-linecap:round;stroke-linejoin:round;stroke-miterlimit:1.5"
           d="M 155,75.65 H 126.353 V 296.056 H 155" /><path
           id="path3142"
           style="fill:none;stroke:#ffffff;stroke-width:10px;stroke-linecap:round;stroke-linejoin:round;stroke-miterlimit:1.5"
           d="m 282.096,70.228 -113.209,-20 v 273.514 l 113.209,-20 z" /></g></g><g
       transform="matrix(0.625696,0,0,0.625696,240.853,172.241)"
       serif:id="Door access"
       id="Door-access1"><g
         id="g3149"
         transform="translate(51.32,88)"><path
           id="path3147"
           style="fill:#496bc7"
           d="m 127.687,282.458 c 0,-4.317 -3.506,-7.823 -7.823,-7.823 h -15.646 c -4.318,0 -7.823,3.506 -7.823,7.823 v 15.646 c 0,4.318 3.505,7.823 7.823,7.823 h 15.646 c 4.317,0 7.823,-3.505 7.823,-7.823 z" /></g><g
         id="g3159"
         transform="matrix(0.0955509,0,0,0.0955509,143.847,360.415)"><g
           id="g3153"
           transform="matrix(0.53996,0.935238,-0.613167,0.789953,196.388,-140.217)"><circle
             id="circle3151"
             style="fill:none;stroke:#ffffff;stroke-width:8.18999958px;stroke-linecap:round;stroke-linejoin:round;stroke-miterlimit:1.5"
             r="5.5"
             cy="182.5"
             cx="194.5" /></g><path
           id="path3155"
           style="fill:none;stroke:#ffffff;stroke-width:10px;stroke-linecap:round;stroke-linejoin:round;stroke-miterlimit:1.5"
           d="M 155,75.65 H 126.353 V 296.056 H 155" /><path
           id="path3157"
           style="fill:none;stroke:#ffffff;stroke-width:10px;stroke-linecap:round;stroke-linejoin:round;stroke-miterlimit:1.5"
           d="m 282.096,70.228 -113.209,-20 v 273.514 l 113.209,-20 z" /></g></g><g
       transform="matrix(0.625696,0,0,0.625696,327.001,172.241)"
       serif:id="Door access"
       id="Door-access2"><g
         id="g3164"
         transform="translate(51.32,88)"><path
           id="path3162"
           style="fill:#496bc7"
           d="m 127.687,282.458 c 0,-4.317 -3.506,-7.823 -7.823,-7.823 h -15.646 c -4.318,0 -7.823,3.506 -7.823,7.823 v 15.646 c 0,4.318 3.505,7.823 7.823,7.823 h 15.646 c 4.317,0 7.823,-3.505 7.823,-7.823 z" /></g><g
         id="g3174"
         transform="matrix(0.0955509,0,0,0.0955509,143.847,360.415)"><g
           id="g3168"
           transform="matrix(0.53996,0.935238,-0.613167,0.789953,196.388,-140.217)"><circle
             id="circle3166"
             style="fill:none;stroke:#ffffff;stroke-width:8.18999958px;stroke-linecap:round;stroke-linejoin:round;stroke-miterlimit:1.5"
             r="5.5"
             cy="182.5"
             cx="194.5" /></g><path
           id="path3170"
           style="fill:none;stroke:#ffffff;stroke-width:10px;stroke-linecap:round;stroke-linejoin:round;stroke-miterlimit:1.5"
           d="M 155,75.65 H 126.353 V 296.056 H 155" /><path
           id="path3172"
           style="fill:none;stroke:#ffffff;stroke-width:10px;stroke-linecap:round;stroke-linejoin:round;stroke-miterlimit:1.5"
           d="m 282.096,70.228 -113.209,-20 v 273.514 l 113.209,-20 z" /></g></g><g
       transform="matrix(0.625696,0,0,0.625696,413.148,172.241)"
       serif:id="Door access"
       id="Door-access3"><g
         id="g3179"
         transform="translate(51.32,88)"><path
           id="path3177"
           style="fill:#496bc7"
           d="m 127.687,282.458 c 0,-4.317 -3.506,-7.823 -7.823,-7.823 h -15.646 c -4.318,0 -7.823,3.506 -7.823,7.823 v 15.646 c 0,4.318 3.505,7.823 7.823,7.823 h 15.646 c 4.317,0 7.823,-3.505 7.823,-7.823 z" /></g><g
         id="g3189"
         transform="matrix(0.0955509,0,0,0.0955509,143.847,360.415)"><g
           id="g3183"
           transform="matrix(0.53996,0.935238,-0.613167,0.789953,196.388,-140.217)"><circle
             id="circle3181"
             style="fill:none;stroke:#ffffff;stroke-width:8.18999958px;stroke-linecap:round;stroke-linejoin:round;stroke-miterlimit:1.5"
             r="5.5"
             cy="182.5"
             cx="194.5" /></g><path
           id="path3185"
           style="fill:none;stroke:#ffffff;stroke-width:10px;stroke-linecap:round;stroke-linejoin:round;stroke-miterlimit:1.5"
           d="M 155,75.65 H 126.353 V 296.056 H 155" /><path
           id="path3187"
           style="fill:none;stroke:#ffffff;stroke-width:10px;stroke-linecap:round;stroke-linejoin:round;stroke-miterlimit:1.5"
           d="m 282.096,70.228 -113.209,-20 v 273.514 l 113.209,-20 z" /></g></g><g
       transform="matrix(0.625696,0,0,0.625696,499.296,172.241)"
       serif:id="Door access"
       id="Door-access4"><g
         id="g3194"
         transform="translate(51.32,88)"><path
           id="path3192"
           style="fill:#496bc7"
           d="m 127.687,282.458 c 0,-4.317 -3.506,-7.823 -7.823,-7.823 h -15.646 c -4.318,0 -7.823,3.506 -7.823,7.823 v 15.646 c 0,4.318 3.505,7.823 7.823,7.823 h 15.646 c 4.317,0 7.823,-3.505 7.823,-7.823 z" /></g><g
         id="g3204"
         transform="matrix(0.0955509,0,0,0.0955509,143.847,360.415)"><g
           id="g3198"
           transform="matrix(0.53996,0.935238,-0.613167,0.789953,196.388,-140.217)"><circle
             id="circle3196"
             style="fill:none;stroke:#ffffff;stroke-width:8.18999958px;stroke-linecap:round;stroke-linejoin:round;stroke-miterlimit:1.5"
             r="5.5"
             cy="182.5"
             cx="194.5" /></g><path
           id="path3200"
           style="fill:none;stroke:#ffffff;stroke-width:10px;stroke-linecap:round;stroke-linejoin:round;stroke-miterlimit:1.5"
           d="M 155,75.65 H 126.353 V 296.056 H 155" /><path
           id="path3202"
           style="fill:none;stroke:#ffffff;stroke-width:10px;stroke-linecap:round;stroke-linejoin:round;stroke-miterlimit:1.5"
           d="m 282.096,70.228 -113.209,-20 v 273.514 l 113.209,-20 z" /></g></g></g><g
     id="g3289"><g
       id="g3211"
       transform="translate(-11.0097,-1.53377)"><path
         id="path3209"
         style="fill:#ffffff;stroke:#808080;stroke-width:1.11000001px;stroke-linecap:square;stroke-miterlimit:1.5"
         d="m 282.286,223.563 h 48.136 v 22.272 h 5.755 l -8.855,8.855 -8.854,-8.855 h 5.755 v -7.687 h -41.937 z" /></g><g
       id="g3215"
       transform="translate(76.8974,-0.533774)"><path
         id="path3213"
         style="fill:#ffffff;stroke:#808080;stroke-width:1.11000001px;stroke-linecap:square;stroke-miterlimit:1.5"
         d="m 282.286,223.563 h 48.136 v 22.272 h 5.755 l -8.855,8.855 -8.854,-8.855 h 5.755 v -7.687 h -41.937 z" /></g><g
       id="g3219"
       transform="translate(160.867,-0.533774)"><path
         id="path3217"
         style="fill:#ffffff;stroke:#808080;stroke-width:1.11000001px;stroke-linecap:square;stroke-miterlimit:1.5"
         d="m 282.286,223.563 h 48.136 v 22.272 h 5.755 l -8.855,8.855 -8.854,-8.855 h 5.755 v -7.687 h -41.937 z" /></g><g
       id="g3223"
       transform="translate(247.179,-0.533774)"><path
         id="path3221"
         style="fill:#ffffff;stroke:#808080;stroke-width:1.11000001px;stroke-linecap:square;stroke-miterlimit:1.5"
         d="m 282.286,223.563 h 48.136 v 22.272 h 5.755 l -8.855,8.855 -8.854,-8.855 h 5.755 v -7.687 h -41.937 z" /></g><g
       id="g3227"
       transform="translate(255.287,-146.873)"><path
         id="path3225"
         style="fill:#ffffff;stroke:#808080;stroke-width:1.11000001px;stroke-linecap:square;stroke-miterlimit:1.5"
         d="m 282.286,223.563 h 48.136 v 22.272 h 5.755 l -8.855,8.855 -8.854,-8.855 h 5.755 v -7.687 h -41.937 z" /></g><g
       id="g3231"
       transform="matrix(-1,0,0,1,932.75,-146.873)"><path
         id="path3229"
         style="fill:#ffffff;stroke:#808080;stroke-width:1.11000001px;stroke-linecap:square;stroke-miterlimit:1.5"
         d="m 282.286,223.563 h 48.136 v 22.272 h 5.755 l -8.855,8.855 -8.854,-8.855 h 5.755 v -7.687 h -41.937 z" /></g><g
       id="g3235"
       transform="rotate(180,477.375,196.19)"><path
         id="path3233"
         style="fill:#ffffff;stroke:#808080;stroke-width:1.11000001px;stroke-linecap:square;stroke-miterlimit:1.5"
         d="m 282.286,223.563 h 48.136 v 22.272 h 5.755 l -8.855,8.855 -8.854,-8.855 h 5.755 v -7.687 h -41.937 z" /></g><g
       id="g3239"
       transform="translate(-83.7126,-146.873)"><path
         id="path3237"
         style="fill:#ffffff;stroke:#808080;stroke-width:1.11000001px;stroke-linecap:square;stroke-miterlimit:1.5"
         d="m 282.286,223.563 h 48.136 v 22.272 h 5.755 l -8.855,8.855 -8.854,-8.855 h 5.755 v -7.687 h -41.937 z" /></g><g
       id="g3243"
       transform="matrix(-1,0,0,1,593.75,-146.873)"><path
         id="path3241"
         style="fill:#ffffff;stroke:#808080;stroke-width:1.11000001px;stroke-linecap:square;stroke-miterlimit:1.5"
         d="m 282.286,223.563 h 48.136 v 22.272 h 5.755 l -8.855,8.855 -8.854,-8.855 h 5.755 v -7.687 h -41.937 z" /></g><g
       id="g3247"
       transform="rotate(180,307.875,196.19)"><path
         id="path3245"
         style="fill:#ffffff;stroke:#808080;stroke-width:1.11000001px;stroke-linecap:square;stroke-miterlimit:1.5"
         d="m 282.286,223.563 h 48.136 v 22.272 h 5.755 l -8.855,8.855 -8.854,-8.855 h 5.755 v -7.687 h -41.937 z" /></g><g
       id="g3251"
       transform="rotate(180,212.875,221.688)"><path
         id="path3249"
         style="fill:#ffffff;stroke:#808080;stroke-width:1.11000001px;stroke-linecap:square;stroke-miterlimit:1.5"
         d="m 282.286,223.563 h 48.136 v 22.272 h 5.755 l -8.855,8.855 -8.854,-8.855 h 5.755 v -7.687 h -41.937 z" /></g><g
       id="g3255"
       transform="translate(-11.0097,103.937)"><path
         id="path3253"
         style="fill:#ffffff;stroke:#808080;stroke-width:1.11000001px;stroke-linecap:square;stroke-miterlimit:1.5"
         d="m 282.286,223.563 h 48.136 v 22.272 h 5.755 l -8.855,8.855 -8.854,-8.855 h 5.755 v -7.687 h -41.937 z" /></g><g
       id="g3259"
       transform="translate(-133.01,226.937)"><path
         id="path3257"
         style="fill:#ffffff;stroke:#808080;stroke-width:1.11000001px;stroke-linecap:square;stroke-miterlimit:1.5"
         d="m 282.286,223.563 h 48.136 v 22.272 h 5.755 l -8.855,8.855 -8.854,-8.855 h 5.755 v -7.687 h -41.937 z" /></g><g
       id="g3263"
       transform="translate(76.8974,103.937)"><path
         id="path3261"
         style="fill:#ffffff;stroke:#808080;stroke-width:1.11000001px;stroke-linecap:square;stroke-miterlimit:1.5"
         d="m 282.286,223.563 h 48.136 v 22.272 h 5.755 l -8.855,8.855 -8.854,-8.855 h 5.755 v -7.687 h -41.937 z" /></g><g
       id="g3267"
       transform="translate(160.867,103.937)"><path
         id="path3265"
         style="fill:#ffffff;stroke:#808080;stroke-width:1.11000001px;stroke-linecap:square;stroke-miterlimit:1.5"
         d="m 282.286,223.563 h 48.136 v 22.272 h 5.755 l -8.855,8.855 -8.854,-8.855 h 5.755 v -7.687 h -41.937 z" /></g><g
       id="g3271"
       transform="translate(247.179,103.937)"><path
         id="path3269"
         style="fill:#ffffff;stroke:#808080;stroke-width:1.11000001px;stroke-linecap:square;stroke-miterlimit:1.5"
         d="m 282.286,223.563 h 48.136 v 22.272 h 5.755 l -8.855,8.855 -8.854,-8.855 h 5.755 v -7.687 h -41.937 z" /></g><g
       id="g3275"
       transform="rotate(180,464.821,340.095)"><path
         id="path3273"
         style="fill:#ffffff;stroke:#808080;stroke-width:1.11000001px;stroke-linecap:square;stroke-miterlimit:1.5"
         d="m 282.286,223.563 h 48.136 v 22.272 h 5.755 l -8.855,8.855 -8.854,-8.855 h 5.755 v -7.687 h -41.937 z" /></g><g
       id="g3279"
       transform="rotate(180,420.8675,340.095)"><path
         id="path3277"
         style="fill:#ffffff;stroke:#808080;stroke-width:1.11000001px;stroke-linecap:square;stroke-miterlimit:1.5"
         d="m 282.286,223.563 h 48.136 v 22.272 h 5.755 l -8.855,8.855 -8.854,-8.855 h 5.755 v -7.687 h -41.937 z" /></g><g
       id="g3283"
       transform="rotate(180,378.8825,340.095)"><path
         id="path3281"
         style="fill:#ffffff;stroke:#808080;stroke-width:1.11000001px;stroke-linecap:square;stroke-miterlimit:1.5"
         d="m 282.286,223.563 h 48.136 v 22.272 h 5.755 l -8.855,8.855 -8.854,-8.855 h 5.755 v -7.687 h -41.937 z" /></g><g
       id="g3287"
       transform="rotate(180,335.7265,340.095)"><path
         id="path3285"
         style="fill:#ffffff;stroke:#808080;stroke-width:1.11000001px;stroke-linecap:square;stroke-miterlimit:1.5"
         d="m 282.286,223.563 h 48.136 v 22.272 h 5.755 l -8.855,8.855 -8.854,-8.855 h 5.755 v -7.687 h -41.937 z" /></g></g></g></g>
</svg>