<?xml version="1.0" encoding="UTF-8" standalone="no"?>
<!DOCTYPE svg PUBLIC "-//W3C//DTD SVG 1.1//EN" "http://www.w3.org/Graphics/SVG/1.1/DTD/svg11.dtd">
<svg width="100%" height="100%" viewBox="0 0 1196 705" version="1.1" xmlns="http://www.w3.org/2000/svg" xmlns:xlink="http://www.w3.org/1999/xlink" xml:space="preserve" xmlns:serif="http://www.serif.com/" style="fill-rule:evenodd;clip-rule:evenodd;stroke-linecap:round;stroke-linejoin:round;stroke-miterlimit:1.5;">
    <g transform="matrix(1,0,0,1,-86.7608,-31.152)">
        <g transform="matrix(1,0,0,1,-44.9669,5.81941)">
            <g transform="matrix(0.957534,0,0,1,-342.251,-7.66746)">
                <rect x="495" y="33" width="1249" height="705" style="fill:white;"/>
            </g>
            <g transform="matrix(1.94286,0,0,1.25222,-894.102,-193.806)">
                <rect x="528" y="175" width="35" height="563" style="fill:rgb(248,248,248);"/>
            </g>
            <g id="g881" transform="matrix(0.0457532,0,0,0.0458928,126.195,-31.5029)">
                <circle id="circle879" cx="885.859" cy="2080.22" r="531.001" style="fill:rgb(108,138,216);fill-opacity:0.7;"/>
            </g>
            <g id="flowRoot907" transform="matrix(0.0868367,0,0,0.0868367,123.962,34.5557)">
                <path id="path824" d="M396.227,272.463C396.227,291.682 391.513,306.291 382.086,316.291C372.659,326.291 358.857,331.291 340.68,331.291C322.763,331.291 309.013,326.265 299.43,316.213C289.898,306.161 285.133,291.525 285.133,272.307C285.133,253.296 289.872,238.791 299.352,228.791C308.883,218.739 322.711,213.713 340.836,213.713C359.013,213.713 372.789,218.687 382.164,228.635C391.539,238.583 396.227,253.192 396.227,272.463ZM317.633,272.463C317.633,294.546 325.315,305.588 340.68,305.588C348.492,305.588 354.273,302.906 358.023,297.541C361.826,292.176 363.727,283.817 363.727,272.463C363.727,261.057 361.799,252.645 357.945,247.229C354.143,241.76 348.44,239.025 340.836,239.025C325.367,239.025 317.633,250.171 317.633,272.463Z" style="fill:white;"/>
                <path id="path826" d="M454.617,329.729L431.258,247.463L430.555,247.463C431.648,261.473 432.195,272.359 432.195,280.119L432.195,329.729L404.852,329.729L404.852,215.51L445.945,215.51L469.773,296.604L470.398,296.604L493.758,215.51L534.93,215.51L534.93,329.729L506.57,329.729L506.57,279.65C506.57,277.046 506.596,274.156 506.648,270.979C506.753,267.801 507.117,260.015 507.742,247.619L507.039,247.619L483.992,329.729L454.617,329.729Z" style="fill:white;"/>
                <path id="path828" d="M656.289,329.729L615.82,329.729L574.102,249.26L573.398,249.26C574.388,261.916 574.883,271.577 574.883,278.244L574.883,329.729L547.539,329.729L547.539,215.51L587.852,215.51L629.414,294.885L629.883,294.885C629.154,283.374 628.789,274.13 628.789,267.15L628.789,215.51L656.289,215.51L656.289,329.729Z" style="fill:white;"/>
                <rect id="path830" x="668.977" y="215.51" width="31.016" height="114.219" style="fill:white;"/>
            </g>
            <g id="flowRoot907-6" transform="matrix(0.0868367,0,0,0.0868367,121.163,45.0293)">
                <path id="path833" d="M401.402,329.729L367.958,329.729L357.932,284.11C357.455,282.2 356.691,278.405 355.641,272.723C354.638,267.042 353.898,262.291 353.421,258.472C353.039,261.575 352.418,265.442 351.559,270.074C350.699,274.657 349.84,278.882 348.98,282.749C348.169,286.617 344.707,302.276 338.596,329.729L305.152,329.729L279.228,225.028L306.513,225.028L317.9,277.521C320.478,289.123 322.244,298.361 323.199,305.236C323.82,300.367 324.918,293.754 326.494,285.399C328.117,277.044 329.621,270.121 331.005,264.631L340.244,225.028L366.454,225.028L375.406,264.631C376.934,270.981 378.486,278.309 380.061,286.617C381.637,294.924 382.687,301.13 383.212,305.236C383.833,299.937 385.528,290.746 388.297,277.665L399.898,225.028L427.184,225.028L401.402,329.729Z" style="fill:rgb(75,75,75);"/>
                <path id="path835" d="M492.957,329.729L487.801,310.106L453.784,310.106L448.484,329.729L417.404,329.729L451.564,224.598L489.305,224.598L523.895,329.729L492.957,329.729ZM481.928,286.903L477.417,269.715C476.366,265.896 475.077,260.955 473.55,254.891C472.069,248.828 471.091,244.483 470.613,241.857C470.184,244.292 469.324,248.303 468.035,253.889C466.794,259.475 464.001,270.479 459.656,286.903L481.928,286.903Z" style="fill:rgb(75,75,75);"/>
                <path id="path837" d="M569.473,329.729L541.185,329.729L541.185,248.159L515.619,248.159L515.619,225.028L594.968,225.028L594.968,248.159L569.473,248.159L569.473,329.729Z" style="fill:rgb(75,75,75);"/>
                <path id="path839" d="M644.699,246.727C637.967,246.727 632.716,249.496 628.944,255.034C625.172,260.525 623.286,268.116 623.286,277.808C623.286,297.956 630.949,308.029 646.275,308.029C650.906,308.029 655.394,307.385 659.738,306.096C664.083,304.807 668.451,303.255 672.844,301.441L672.844,325.36C664.107,329.227 654.224,331.161 643.195,331.161C627.392,331.161 615.266,326.577 606.815,317.411C598.412,308.244 594.211,294.995 594.211,277.665C594.211,266.827 596.24,257.302 600.298,249.09C604.404,240.879 610.277,234.577 617.915,230.184C625.602,225.744 634.625,223.524 644.986,223.524C656.301,223.524 667.115,225.983 677.427,230.9L668.762,253.173C664.895,251.358 661.027,249.831 657.16,248.589C653.293,247.348 649.139,246.727 644.699,246.727Z" style="fill:rgb(75,75,75);"/>
                <path id="path841" d="M770.915,329.729L742.484,329.729L742.484,287.046L709.613,287.046L709.613,329.729L681.182,329.729L681.182,225.028L709.613,225.028L709.613,263.843L742.484,263.843L742.484,225.028L770.915,225.028L770.915,329.729Z" style="fill:rgb(75,75,75);"/>
            </g>
            <g transform="matrix(1,0,0,1,-363.273,-8.66682)">
                <path d="M528,153L528,147.994L532,147.994L532,153" style="fill:none;stroke:rgb(5,15,25);stroke-width:1px;"/>
            </g>
            <g transform="matrix(1,0,0,1,-362.773,-8.66682)">
                <path d="M524,142.454L524,153L535,153L535,143" style="fill:none;stroke:rgb(5,15,25);stroke-width:1px;"/>
            </g>
            <g transform="matrix(1,0,0,1,-363.273,-8.66682)">
                <path d="M521,145L530,138L538,145" style="fill:none;stroke:rgb(5,15,25);stroke-width:1px;"/>
            </g>
            <g transform="matrix(1,0,0,1,-363.273,-8.66682)">
                <path d="M534,141.5L534,139.228" style="fill:none;stroke:rgb(5,15,25);stroke-width:1px;"/>
            </g>
            <g transform="matrix(1,0,0,1,-363.762,-8.37305)">
                <path d="M532,208.335C532,209.164 531.327,209.838 530.497,209.838C529.668,209.838 528.994,209.164 528.994,208.335" style="fill:none;stroke:rgb(133,137,142);stroke-width:1px;"/>
            </g>
            <g transform="matrix(1,0,0,1,-363.273,-7.66682)">
                <path d="M531.324,194.871C531.324,194.094 530.693,193.463 529.916,193.463L529.914,193.463C529.136,193.463 528.506,194.094 528.506,194.871L528.506,195.908L531.324,195.908L531.324,194.871Z" style="fill:none;stroke:rgb(133,137,142);stroke-width:1px;"/>
            </g>
            <g transform="matrix(1,0,0,1,-363.273,-7.66682)">
                <path d="M530,204.062L525.563,204.062L523.462,205.578L523.462,207.156L530.103,207.156" style="fill:none;stroke:rgb(133,137,142);stroke-width:1px;"/>
            </g>
            <g transform="matrix(-1,0,0,1,696.837,-7.66682)">
                <path d="M525.468,204.062L523.462,205.578L523.462,207.156L530.103,207.156" style="fill:none;stroke:rgb(133,137,142);stroke-width:1px;"/>
            </g>
            <g transform="matrix(1,0,0,1.05578,-363.273,-19.1289)">
                <path d="M534.643,204.138L534.643,198.565C534.643,197.378 533.625,196.415 532.373,196.415L527.833,196.415C526.58,196.415 525.563,197.378 525.563,198.565L525.563,204.138" style="fill:none;stroke:rgb(133,137,142);stroke-width:0.97px;"/>
            </g>
            <g transform="matrix(0.678018,0,0,0.678018,-193.415,73.3363)">
                <path d="M531.977,245.247L523.863,245.247L523.863,265.055L538.777,265.055L538.777,252.047" style="fill:none;stroke:rgb(133,137,142);stroke-width:1.47px;"/>
            </g>
            <g transform="matrix(0.678018,0,0,0.678018,-195.222,78.4722)">
                <path d="M541.443,244.473L534.643,237.672L534.643,244.473L541.443,244.473Z" style="fill:none;stroke:rgb(133,137,142);stroke-width:1.47px;"/>
            </g>
            <g transform="matrix(1,0,0,1,-360.285,-6.27472)">
                <circle cx="526.927" cy="303.608" r="5.927" style="fill:none;stroke:rgb(133,137,142);stroke-width:1px;"/>
            </g>
            <g transform="matrix(1,0,0,1,-363.273,-7.66682)">
                <path d="M530.103,296.659L530.103,299.073" style="fill:none;stroke:rgb(133,137,142);stroke-width:1px;"/>
            </g>
            <g transform="matrix(6.12323e-17,1,-1,6.12323e-17,471.727,-232.667)">
                <path d="M530.103,296.659L530.103,299.073" style="fill:none;stroke:rgb(133,137,142);stroke-width:1px;"/>
            </g>
            <g transform="matrix(-1,1.22465e-16,-1.22465e-16,-1,696.727,602.333)">
                <path d="M530.103,296.659L530.103,299.073" style="fill:none;stroke:rgb(133,137,142);stroke-width:1px;"/>
            </g>
            <g transform="matrix(6.12323e-17,-1,1,6.12323e-17,-138.273,827.333)">
                <path d="M530.103,296.659L530.103,299.073" style="fill:none;stroke:rgb(133,137,142);stroke-width:1px;"/>
            </g>
            <g transform="matrix(1,0,0,1,-363.135,-7.58437)">
                <circle cx="529.964" cy="304.918" r="1.86" style="fill:rgb(133,137,142);"/>
            </g>
            <g transform="matrix(0.04109,0,0,0.04109,148.47,690.955)">
                <path d="M420,60C354.17,60 300,114.17 300,180C300,245.83 354.17,300 420,300C485.83,300 540,245.83 540,180C540,114.17 485.83,60 420,60M420,330C321.255,330 240,397.712 240,480M420,330C518.745,330 600,397.712 600,480L240,480" style="fill:none;fill-rule:nonzero;stroke:rgb(133,137,142);stroke-width:24.34px;stroke-miterlimit:4;"/>
            </g>
            <g transform="matrix(1,0,0,1,-362.546,-7.9797)">
                <circle cx="528.274" cy="674.256" r="2.971" style="fill:none;stroke:rgb(133,137,142);stroke-width:1px;"/>
            </g>
            <g transform="matrix(1,0,0,1,-363.273,-7.66682)">
                <path d="M534.338,677.115C534.629,676.626 534.816,676.132 534.964,675.569L537.515,675.569L537.515,672.44L534.964,672.44C534.82,671.89 534.601,671.369 534.32,670.889L534.328,670.889L536.127,669.09L533.915,666.878L532.112,668.682L532.112,668.69C531.623,668.399 531.129,668.189 530.565,668.041L530.565,665.491L527.437,665.491L527.437,668.041C526.886,668.186 526.366,668.404 525.886,668.686L525.886,668.677L524.087,666.878L521.875,669.09L523.679,670.894L523.665,670.894C523.374,671.382 523.186,671.877 523.038,672.44L520.488,672.44L520.488,675.569L523.038,675.569C523.182,676.119 523.401,676.64 523.683,677.119L523.674,677.119L521.875,678.918L524.087,681.13L525.891,679.327L525.891,679.319C526.379,679.61 526.874,679.82 527.437,679.967L527.437,682.518L530.565,682.518L530.565,679.967C531.116,679.823 531.637,679.604 532.116,679.323L532.116,679.331L533.915,681.13L536.127,678.918L534.324,677.115" style="fill:none;stroke:rgb(133,137,142);stroke-width:1px;"/>
            </g>
        </g>
    </g>
</svg>
