<?xml version="1.0" encoding="UTF-8" standalone="no"?>
<!-- Created with Inkscape (http://www.inkscape.org/) -->

<svg
   xmlns:dc="http://purl.org/dc/elements/1.1/"
   xmlns:cc="http://creativecommons.org/ns#"
   xmlns:rdf="http://www.w3.org/1999/02/22-rdf-syntax-ns#"
   xmlns:svg="http://www.w3.org/2000/svg"
   xmlns="http://www.w3.org/2000/svg"
   xmlns:sodipodi="http://sodipodi.sourceforge.net/DTD/sodipodi-0.dtd"
   xmlns:inkscape="http://www.inkscape.org/namespaces/inkscape"
   width="819.29639mm"
   height="541.86188mm"
   viewBox="0 0 819.29635 541.86189"
   version="1.1"
   id="svg8"
   inkscape:version="0.92.5 (2060ec1f9f, 2020-04-08)"
   sodipodi:docname="protocols.svg">
  <defs
     id="defs2" />
  <sodipodi:namedview
     id="base"
     pagecolor="#ffffff"
     bordercolor="#666666"
     borderopacity="1.0"
     inkscape:pageopacity="0.0"
     inkscape:pageshadow="2"
     inkscape:zoom="0.35"
     inkscape:cx="1941.4267"
     inkscape:cy="738.56775"
     inkscape:document-units="mm"
     inkscape:current-layer="layer1"
     showgrid="false"
     inkscape:window-width="2800"
     inkscape:window-height="1672"
     inkscape:window-x="80"
     inkscape:window-y="54"
     inkscape:window-maximized="1" />
  <metadata
     id="metadata5">
    <rdf:RDF>
      <cc:Work
         rdf:about="">
        <dc:format>image/svg+xml</dc:format>
        <dc:type
           rdf:resource="http://purl.org/dc/dcmitype/StillImage" />
        <dc:title />
      </cc:Work>
    </rdf:RDF>
  </metadata>
  <g
     inkscape:label="Layer 1"
     inkscape:groupmode="layer"
     id="layer1"
     transform="translate(657.90352,-123.20491)">
    <g
       id="g1352"
       transform="translate(5.8658434,0.54157872)">
      <path
         style="opacity:1;fill:#64c7cc;fill-opacity:1;stroke:none;stroke-width:2.11666656;stroke-linecap:round;stroke-linejoin:round;stroke-miterlimit:4;stroke-dasharray:none;stroke-dashoffset:0;stroke-opacity:1;paint-order:normal"
         d="m -259.41284,350.85958 -129.70641,74.88603 -129.70642,-74.88604 V 201.08751 l 129.70642,-74.88603 129.70641,74.88603 z"
         id="path1134"
         inkscape:connector-curvature="0" />
      <path
         inkscape:connector-curvature="0"
         style="opacity:1;fill:#64c7cc;fill-opacity:1;stroke:none;stroke-width:2.11666656;stroke-linecap:round;stroke-linejoin:round;stroke-miterlimit:4;stroke-dasharray:none;stroke-dashoffset:0;stroke-opacity:1;paint-order:normal"
         d="M 10.58333,350.85958 -119.12309,425.74561 -248.8295,350.85957 V 201.08751 l 129.70642,-74.88603 129.70641,74.88603 z"
         id="path1134-6" />
      <path
         inkscape:connector-curvature="0"
         style="opacity:1;fill:#64c7cc;fill-opacity:1;stroke:none;stroke-width:2.11666656;stroke-linecap:round;stroke-linejoin:round;stroke-miterlimit:4;stroke-dasharray:none;stroke-dashoffset:0;stroke-opacity:1;paint-order:normal"
         d="m -394.41093,586.10102 -129.70641,74.88603 -129.70642,-74.88604 V 436.32895 l 129.70642,-74.88603 129.70641,74.88603 z"
         id="path1134-3" />
      <path
         inkscape:connector-curvature="0"
         style="opacity:1;fill:#64c7cc;fill-opacity:1;stroke:none;stroke-width:2.11666656;stroke-linecap:round;stroke-linejoin:round;stroke-miterlimit:4;stroke-dasharray:none;stroke-dashoffset:0;stroke-opacity:1;paint-order:normal"
         d="M 145.58142,586.10103 15.875002,660.98706 -113.83141,586.10102 V 436.32896 L 15.875004,361.44293 145.58142,436.32896 Z"
         id="path1134-6-4-7" />
      <path
         inkscape:connector-curvature="0"
         style="opacity:1;fill:#64c7cc;fill-opacity:1;stroke:none;stroke-width:2.11666656;stroke-linecap:round;stroke-linejoin:round;stroke-miterlimit:4;stroke-dasharray:none;stroke-dashoffset:0;stroke-opacity:1;paint-order:normal"
         d="M -124.41477,586.10102 -254.12118,660.98705 -383.8276,586.10101 V 436.32895 l 129.70642,-74.88603 129.70641,74.88603 z"
         id="path1134-6-8" />
      <g
         transform="matrix(0.73166391,0,0,0.73166391,-633.86693,474.46659)"
         id="g1020"
         style="clip-rule:evenodd;fill-rule:evenodd;stroke-width:0.36161867;stroke-miterlimit:1.5">
        <g
           style="stroke-width:0.36161867"
           transform="translate(3.5135,-125)"
           id="g999">
        <g
   style="stroke:#ffffff;stroke-width:0.36161867;stroke-opacity:1"
   id="g991">
            <path
   inkscape:connector-curvature="0"
   d="M 254.665,202.979 V 192.707"
   style="fill:none;stroke:#ffffff;stroke-width:0.90404665px;stroke-opacity:1"
   id="path979" />

            <path
   inkscape:connector-curvature="0"
   d="M 227.808,202.979 V 192.301"
   style="fill:none;stroke:#ffffff;stroke-width:0.90404665px;stroke-opacity:1"
   id="path981" />

            <path
   inkscape:connector-curvature="0"
   d="M 177.025,202.979 V 192.707"
   style="fill:none;stroke:#ffffff;stroke-width:0.90404665px;stroke-opacity:1"
   id="path983" />

            <path
   inkscape:connector-curvature="0"
   d="M 131.912,202.979 V 181.138"
   style="fill:none;stroke:#ffffff;stroke-width:0.90404665px;stroke-opacity:1"
   id="path985" />

            <path
   inkscape:connector-curvature="0"
   d="M 88.265,202.979 V 192.301"
   style="fill:none;stroke:#ffffff;stroke-width:0.90404665px;stroke-opacity:1"
   id="path987" />

            <path
   inkscape:connector-curvature="0"
   d="m 36.089,188.485 v 14.494 h 247.494 v -11.185"
   style="fill:none;stroke:#ffffff;stroke-width:0.90404665px;stroke-opacity:1"
   id="path989" />

        </g>

        <path
   inkscape:connector-curvature="0"
   d="m 11.048,169.597 v 2.421 c 0.369,1.002 1.904,0.966 2.283,0 v -2.074 c 0.046,-0.566 -0.798,-1.192 -2.014,-1.843 -1.558,-0.795 -2.502,-1.902 -2.677,-3.399 v -1.816 c 0.008,-3.633 7.174,-3.561 7.262,0 v 1.816 h -2.571 v -1.816 c -0.802,-1.005 -2.261,-0.527 -2.283,0.736 -0.003,0.459 0.079,0.881 0.269,1.257 0.581,0.486 0.481,0.605 1.158,0.969 1.475,0.791 3.276,2.199 3.427,3.407 v 3.019 c -0.205,1.84 -1.685,2.422 -3.623,2.552 -2.593,-0.073 -3.695,-1.126 -3.836,-2.808 v -2.421 z m 31.384,-8.882 h 6.67 v 2.009 h -4.043 v 3.34 h 3.765 v 2.053 h -3.765 v 4.267 h 4.206 v 2.105 h -6.833 z m -22.863,5.345 h 2.244 v -5.345 h 2.623 v 13.774 h -2.623 v -6.358 h -2.244 v 6.358 h -2.611 v -13.774 h 2.611 z m 16.794,8.429 h -5.17 c -0.216,-0.189 -0.299,-0.472 -0.314,-0.802 v -4.185 c -0.108,-0.576 -0.401,-0.925 -0.838,-1.098 h -1.698 v 6.085 h -2.612 v -13.774 h 5.865 c 0.913,0.142 1.588,0.625 1.766,1.823 v 3.317 c -0.2,0.916 -0.761,1.443 -1.616,1.652 0.924,0.235 1.674,0.69 1.758,1.995 v 4.185 c 0.134,0.083 0.196,0.21 0.197,0.374 v 0.382 l 2.662,-13.728 h 2.911 l 2.661,13.774 h -2.661 l -0.347,-2.201 h -2.291 z m -28.12,0 H 5.582 L 5.235,172.288 H 2.944 l -0.273,2.201 H 0 l 2.671,-13.774 h 2.911 z m -4.121,-9.787 -0.847,5.38 h 1.618 z m 33.692,0 -0.847,5.38 h 1.618 z m -7.581,-1.933 h -1.826 v 3.671 h 1.598 c 0.345,-0.036 0.609,-0.195 0.731,-0.574 v -2.608 c -0.079,-0.256 -0.252,-0.414 -0.503,-0.489 z"
   style="fill:#ffffff;fill-opacity:1;stroke-width:0.36161867"
   id="path993" />

        <path
   inkscape:connector-curvature="0"
   d="m 18.88,158.692 5.997,-10.455 h 22.216 l 11.108,19.365 -11.108,19.365 H 24.877 l -5.988,-10.439"
   style="fill:none;stroke:#ffffff;stroke-width:0.90404665px;stroke-linejoin:round;stroke-opacity:1"
   id="path995" />

        <path
   inkscape:connector-curvature="0"
   d="m 248.694,179.19 h 21.525 c 0.343,-12.972 -5.243,-18.967 -15.343,-19.651 -19.737,-0.343 -21.324,34.908 0.806,34.394 8.139,-0.903 12.561,-4.298 13.803,-9.827 l -8.237,-1.506 c -1.923,7.559 -12.459,5.627 -12.554,-3.41 z m 37.563,-18.878 h 5.88 v 7.043 h -5.88 v 16.519 c 0.306,3.02 2.266,3.623 5.88,1.807 l 0.836,6.733 c -9.421,2.964 -14.934,1.187 -15.381,-6.733 v -18.326 h -3.974 v -7.043 h 3.974 v -6.479 l 8.665,-5.036 z m -99.292,2.191 8.75,-2.213 c -4.048,-17.483 -30.845,-17.901 -37.4,0 -3.256,11.567 -1.073,20.197 4.052,27.238 10.049,10.576 31.11,7.52 33.348,-8.149 l -8.75,-2.813 c -0.793,10.659 -15.277,13.269 -19.536,2.813 -1.879,-5.866 -1.839,-11.766 0,-17.697 3.779,-9.702 16.889,-8.659 19.536,0.821 z m 25.048,30.472 h -8.492 v -32.394 h 7.805 v 4.396 c 8.035,-9.061 21.058,-6.275 21.922,5.09 v 22.908 h -8.668 v -19.862 c -0.154,-10.33 -13.094,-8.904 -12.567,3.088 z m -87.842,-10.171 -3.592,9.981 -9.7,-0.078 17.209,-44.774 h 9.952 l 17.86,44.774 -9.929,0.078 -3.881,-9.981 z M 94.767,147.933 c 12.475,0.431 17.818,14.669 6.19,21.161 13.239,3.165 11.324,25.16 -6.886,23.613 H 71.64 v -44.774 z m -13.95,25.585 v 11.922 h 13.11 c 8.587,-0.875 8.599,-12.087 -1.968,-11.922 z m 52.091,-15.008 -6.041,16.629 h 12.308 z m 115.994,15.337 h 12.764 c 0,0 0.156,-7.51 -6.289,-7.608 -6.585,-0.101 -6.475,7.608 -6.475,7.608 z M 92.287,155.434 h -11.47 v 10.416 h 12.312 c 7.654,-1.112 6.841,-10.259 -0.842,-10.416 z"
   style="fill:#ffffff;fill-opacity:1;stroke-width:0.36161867"
   id="path997" />

    </g>
      </g>
      <g
         transform="matrix(0.50595571,0,0,0.50679805,-60.075983,485.81762)"
         id="g1057"
         style="clip-rule:evenodd;fill:#ffffff;fill-opacity:1;fill-rule:evenodd;stroke-width:0.52250296;stroke-linecap:round;stroke-linejoin:round;stroke-miterlimit:1.5">
        <g
           style="fill:#ffffff;fill-opacity:1;stroke-width:0.52250296"
           transform="translate(-353.98,-253.418)"
           id="g1038">
        <g
   style="fill:#ffffff;fill-opacity:1;stroke-width:0.52250296"
   id="g1026">
            <path
   inkscape:connector-curvature="0"
   d="m 401.701,279.916 -0.08,-0.024 c -33.733,-9.852 -41.893,60.015 0.398,64.585 -24.054,0 -43.583,-19.529 -43.583,-43.583 0,-24.054 19.529,-43.583 43.583,-43.583 0,0 2.715,0.063 4.023,0.184 7.549,1.866 22.141,8.367 24.452,29.271 2.708,24.499 -8.376,30.379 -10.99,32.491 -4.076,3.294 -14.35,4.431 -17.883,2 17.999,-9.335 16.731,-34.067 0.398,-41.245 l -0.175,-0.053 z"
   style="fill:#ffffff;fill-opacity:1;stroke:#757575;stroke-width:0.49637783px"
   id="path1022" />

            <path
   inkscape:connector-curvature="0"
   d="m 402.493,321.871 0.081,0.024 c 33.733,9.853 41.893,-60.015 -0.398,-64.584 24.054,0 43.582,19.529 43.582,43.583 0,24.054 -19.528,43.583 -43.582,43.583 0,0 -2.715,-0.064 -4.024,-0.184 -7.548,-1.867 -22.14,-8.368 -24.451,-29.272 -2.708,-24.499 8.376,-30.379 10.989,-32.49 4.077,-3.294 13.906,-5.432 17.439,-3 -17.999,9.335 -16.286,35.067 0.047,42.244 l 0.174,0.054 z"
   style="fill:#ffffff;fill-opacity:1;stroke:#757575;stroke-width:0.49637783px"
   id="path1024" />

        </g>

        <g
   style="fill:#ffffff;fill-opacity:1;stroke-width:0.52250296"
   id="g1036">
            <path
   inkscape:connector-curvature="0"
   d="m 439.231,348.926 v -9.509 c 3.486,1.329 6.565,1.994 9.238,1.994 3.486,0 5.918,-1.167 7.298,-3.502 1.38,-2.335 2.07,-6.416 2.07,-12.244 v -66.463 h 9.151 v 66.105 c 0,16.462 -6.638,24.693 -19.914,24.693 -2.033,0 -4.648,-0.358 -7.843,-1.074 z"
   style="fill:#ffffff;fill-opacity:1;fill-rule:nonzero;stroke-width:0.52250296"
   id="path1028" />

            <path
   inkscape:connector-curvature="0"
   d="m 495.965,336.759 c -4.329,0 -9.863,-1.108 -16.602,-3.323 v -10.634 c 7.262,3.953 13.232,5.93 17.909,5.93 3.602,0 6.5,-1.108 8.693,-3.323 2.193,-2.215 3.29,-5.13 3.29,-8.742 0,-2.966 -0.719,-5.488 -2.157,-7.567 -1.438,-2.079 -4.089,-4.397 -7.952,-6.953 l -4.445,-3.016 c -5.49,-3.681 -9.361,-7.149 -11.613,-10.404 -2.251,-3.255 -3.377,-7.047 -3.377,-11.375 0,-5.828 1.801,-10.626 5.404,-14.392 3.602,-3.766 8.192,-5.649 13.769,-5.649 4.968,0 10.211,0.971 15.73,2.914 v 9.816 c -6.797,-3.136 -11.866,-4.704 -15.207,-4.704 -3.166,0 -5.781,0.989 -7.843,2.966 -2.063,1.976 -3.094,4.465 -3.094,7.464 0,2.522 0.755,4.754 2.266,6.697 1.51,1.943 4.27,4.261 8.279,6.953 l 4.619,3.068 c 5.577,3.715 9.47,7.225 11.678,10.531 2.207,3.306 3.311,7.277 3.311,11.912 0,6.578 -2.069,11.861 -6.209,15.849 -4.14,3.988 -9.623,5.982 -16.449,5.982 z"
   style="fill:#ffffff;fill-opacity:1;fill-rule:nonzero;stroke-width:0.52250296"
   id="path1030" />

            <path
   inkscape:connector-curvature="0"
   d="m 557.361,336.759 c -8.947,0 -16.144,-3.639 -21.591,-10.915 -5.447,-7.277 -8.17,-16.897 -8.17,-28.86 0,-12.032 2.738,-21.652 8.213,-28.86 5.476,-7.209 12.789,-10.813 21.94,-10.813 9.122,0 16.428,3.596 21.918,10.787 5.49,7.192 8.236,16.786 8.236,28.783 0,12.236 -2.746,21.941 -8.236,29.116 -5.49,7.174 -12.927,10.762 -22.31,10.762 z m 0.131,-8.027 c 6.594,0 11.692,-2.786 15.294,-8.359 3.602,-5.572 5.403,-13.437 5.403,-23.594 0,-9.85 -1.808,-17.553 -5.425,-23.108 -3.616,-5.556 -8.62,-8.334 -15.011,-8.334 -6.42,0 -11.431,2.787 -15.033,8.359 -3.602,5.573 -5.403,13.318 -5.403,23.237 0,9.884 1.786,17.655 5.359,23.312 3.573,5.658 8.512,8.487 14.816,8.487 z"
   style="fill:#ffffff;fill-opacity:1;fill-rule:nonzero;stroke-width:0.52250296"
   id="path1032" />

            <path
   inkscape:connector-curvature="0"
   d="m 600.717,334.867 v -75.665 h 8.977 l 32.463,58.436 V 259.202 H 650 v 75.665 h -8.933 l -32.506,-58.436 v 58.436 z"
   style="fill:#ffffff;fill-opacity:1;fill-rule:nonzero;stroke-width:0.52250296"
   id="path1034" />

        </g>

    </g>
      </g>
      <g
         transform="matrix(0.62098634,0,0,0.62098634,-212.13765,244.92423)"
         id="g1076"
         style="clip-rule:evenodd;fill:#ffffff;fill-opacity:1;fill-rule:evenodd;stroke-width:0.4260695;stroke-linecap:round;stroke-linejoin:round;stroke-miterlimit:1.5">
        <g
           style="fill:#ffffff;fill-opacity:1;stroke-width:0.4260695"
           transform="translate(-353.286,5.7555)"
           id="g1063">
        <path
   inkscape:connector-curvature="0"
   d="m 379.681,16.74 c -0.099,-0.284 -0.187,-0.574 -0.266,-0.869 -1.801,-6.72 2.193,-13.638 8.913,-15.439 6.721,-1.801 13.639,2.193 15.44,8.914 0.078,0.292 0.145,0.585 0.202,0.878 3.421,0.389 6.69,1.283 9.73,2.605 0.195,-0.224 0.4,-0.444 0.613,-0.657 4.92,-4.92 12.908,-4.92 17.828,0 4.92,4.919 4.92,12.908 0,17.827 -0.214,0.214 -0.433,0.418 -0.658,0.613 1.323,3.041 2.217,6.309 2.605,9.731 0.293,0.056 0.586,0.124 0.879,0.202 6.72,1.801 10.714,8.719 8.914,15.439 -1.801,6.721 -8.719,10.715 -15.44,8.914 -0.295,-0.079 -0.584,-0.168 -0.868,-0.266 -2.011,2.707 -4.411,5.107 -7.118,7.117 0.098,0.284 0.187,0.574 0.266,0.869 1.801,6.721 -2.193,13.639 -8.913,15.439 -6.721,1.801 -13.639,-2.193 -15.44,-8.913 -0.078,-0.293 -0.146,-0.586 -0.202,-0.879 -3.421,-0.389 -6.69,-1.283 -9.73,-2.605 -0.195,0.225 -0.4,0.444 -0.614,0.658 -4.919,4.919 -12.908,4.919 -17.827,0 -4.92,-4.92 -4.92,-12.908 0,-17.828 0.213,-0.214 0.433,-0.418 0.658,-0.613 -1.323,-3.04 -2.217,-6.309 -2.605,-9.73 -0.293,-0.057 -0.586,-0.124 -0.879,-0.203 -6.72,-1.8 -10.715,-8.719 -8.914,-15.439 1.801,-6.72 8.719,-10.714 15.439,-8.914 0.295,0.079 0.585,0.168 0.869,0.266 2.011,-2.706 4.411,-5.107 7.118,-7.117 z m 21.209,36.047 -1.86,3.222 -1.048,-3.91 2.862,-4.957 4.958,2.862 1.047,3.91 -3.222,-1.861 5.546,20.7 1.861,-3.222 1.048,3.91 -2.863,4.957 -4.957,-2.862 -1.048,-3.91 3.223,1.86 z m -2.943,-6.422 h -5.724 l -2.863,2.863 h 3.721 L 377.928,64.381 V 60.66 l -2.862,2.862 v 5.725 h 5.724 l 2.863,-2.863 h -3.721 l 15.153,-15.153 v 3.721 l 2.862,-2.862 z m 31.363,4.248 -1.861,-3.222 3.91,1.047 2.862,4.958 -4.957,2.862 -3.91,-1.047 3.222,-1.861 -20.699,-5.546 1.86,3.222 -3.91,-1.048 -2.862,-4.957 4.958,-2.862 3.909,1.047 -3.222,1.861 z m -37.051,-9.927 -1.86,-3.223 3.91,1.048 2.862,4.957 -4.958,2.863 -3.91,-1.048 3.223,-1.86 -20.7,-5.547 1.861,3.222 -3.91,-1.047 -2.863,-4.958 4.958,-2.862 3.91,1.048 -3.222,1.86 z m 15.654,1.438 2.862,-2.862 h -3.72 l 15.153,-15.154 v 3.721 l 2.862,-2.862 v -5.724 h -5.725 l -2.862,2.862 h 3.721 l -15.153,15.153 v -3.721 l -2.862,2.862 v 5.725 z m -16.951,-26.388 -1.86,3.223 -1.048,-3.91 2.863,-4.958 4.957,2.862 1.048,3.91 -3.223,-1.86 5.547,20.7 1.86,-3.223 1.048,3.91 -2.862,4.958 -4.958,-2.863 -1.048,-3.91 3.223,1.861 z"
   style="fill:#ffffff;fill-opacity:1;stroke-width:0.4260695"
   id="path1059" />

        <path
   inkscape:connector-curvature="0"
   d="m 627.07314,53.963 c -0.234,1.625 0.718,2.299 2.166,2.575 3.462,0.316 6.85,0.415 10.062,0 4.032,-1.025 3.67,-4.203 0,-4.177 l -12.228,-0.391 c -3.033,-0.238 -5.181,-1.203 -5.524,-3.649 -0.26,-2.374 0.054,-4.701 1.15,-6.966 1.093,-2.205 3.115,-3.7 6.54,-4.123 4.768,-0.286 9.518,-0.376 14.226,0 4.088,0.291 6.215,1.211 6.827,2.985 0.671,1.593 0.6,3.104 0.486,4.611 h -7.915 c -0.051,-1.05 -0.753,-1.624 -1.994,-1.803 -3.176,-0.115 -6.357,-0.315 -9.517,0 -3.081,0.801 -2.736,2.897 0,3.234 4.394,0.103 8.804,0.233 13.229,0.388 4.746,0.448 5.872,3.156 5.274,6.942 -0.692,5.323 -3.148,7.486 -6.39,8.24 -6.688,1.105 -13.384,1.143 -20.088,0 -2.415,-0.374 -4.03,-1.626 -4.581,-4.047 -0.038,-1.263 0.069,-2.535 0.395,-3.819 z m -32.723,-16.607 -2.373,11.871 c -0.978,3.799 0.317,6.098 5.392,5.905 4.622,0.169 7.16,-2.006 8.163,-5.905 l 2.45,-11.871 h 8.809 l -4.878,25.105 h -8.408 l 1.081,-5.676 c -2.347,3.382 -5.466,5.175 -9.213,5.676 -2.996,0.292 -5.975,0.174 -8.924,-0.755 -3.277,-1.171 -4.626,-4.082 -3.885,-8.883 l 3.069,-15.467 z m -56.87,24.926 h -8.705 l 0.817,-3.944 c -1.789,2.719 -4.561,3.877 -8.019,3.944 -2.904,0.451 -6.032,0.32 -9.233,0 -2.516,-0.504 -5.067,-0.954 -5.311,-4.938 0.068,-5.396 1.115,-10.743 3.502,-16.023 2.197,-3.277 6.441,-4.645 12.438,-4.381 5.777,-0.01 9.528,1.194 9.97,4.381 l 2.742,-14.299 h 8.881 z m 14.958,-0.006 h -8.705 l 6.918,-35.26 h 8.881 l -2.969,13.759 c -0.051,0.173 -0.09,0.353 -0.116,0.54 l 0.116,-0.54 c 0.829,-2.781 4.911,-3.828 10.35,-3.819 5.996,-0.264 9.348,0.135 11.545,3.411 1.387,4.105 -0.374,10.616 -2.02,15.74 -1.281,3.985 -3.363,5.173 -7.565,6.169 -3.201,0.32 -6.865,0.451 -9.77,0 -3.458,-0.067 -5.449,-1.595 -5.999,-3.912 z m -63.012,-25.15 c -3.308,-0.064 -10.197,0.377 -12.701,1.849 -4.213,2.478 -4.602,5.648 -5.714,9.549 -0.601,2.105 -1.963,8.692 0.536,11.598 2.379,2.766 10.436,2.448 13.172,2.416 3.332,-0.038 9.852,0.118 13.631,-2.416 3.219,-2.159 4.528,-8.093 4.88,-10.174 0.451,-2.662 1.699,-7.782 -1.155,-10.527 -2.67,-2.57 -9.994,-2.243 -12.649,-2.295 z m -51.55,10.822 15.294,-20.916 h 16.297 l -6.998,35.238 h -10.045 l 4.846,-25.144 -18.588,25.144 h -7.5 l -8.729,-25.144 -5.045,25.144 h -10.152 l 7.045,-35.238 h 16.199 z m 50.454,-3.683 c -2.375,0.05 -4.617,-0.218 -6.449,0.787 -2.028,1.113 -1.868,2.101 -2.47,4.578 -0.223,0.917 -0.899,3.809 0.493,5.071 0.797,0.722 5.038,0.682 6.304,0.682 1.337,0 4.597,0.26 6.395,-1.041 1.606,-1.16 1.825,-3.838 1.992,-4.712 0.16,-0.842 0.551,-3.64 0,-4.175 -1.316,-1.276 -4.885,-1.218 -6.265,-1.19 z m 36.551,-0.043 c -2.375,0.05 -4.617,-0.218 -6.449,0.787 -2.028,1.112 -1.868,2.101 -2.47,4.578 -0.223,0.917 -0.899,3.808 0.493,5.07 0.797,0.723 5.038,0.683 6.304,0.683 1.337,0 4.597,0.259 6.395,-1.041 1.606,-1.161 1.825,-3.838 1.991,-4.712 0.161,-0.843 0.552,-3.64 0,-4.175 -1.315,-1.276 -4.884,-1.219 -6.264,-1.19 z m 36.302,11.037 c 2.375,-0.05 4.617,0.218 6.449,-0.787 2.028,-1.113 1.868,-2.101 2.47,-4.578 0.223,-0.917 0.899,-3.808 -0.493,-5.071 -0.797,-0.722 -5.038,-0.682 -6.303,-0.682 -1.338,0 -4.598,-0.259 -6.396,1.041 -1.606,1.16 -1.825,3.838 -1.991,4.712 -0.161,0.842 -0.552,3.64 0,4.175 1.315,1.276 4.884,1.218 6.264,1.19 z"
   style="fill:#ffffff;fill-opacity:1;stroke:#64c7cc;stroke-width:0.96620482;stroke-miterlimit:1.5;stroke-dasharray:none;stroke-opacity:1"
   id="path1061" />

    </g>
      </g>
      <g
         transform="matrix(0.65859951,0,0,0.65859951,-487.92791,243.04883)"
         id="g1113"
         style="clip-rule:evenodd;fill:#ffffff;fill-opacity:1;fill-rule:evenodd;stroke-width:0.40173629;stroke-linejoin:round;stroke-miterlimit:2">
        <g
           style="fill:#ffffff;fill-opacity:1;stroke-width:0.40173629"
           transform="translate(-5.81684,-8.18576)"
           id="g1094">
        <g
   style="fill:#ffffff;fill-opacity:1;stroke-width:0.40173629"
   transform="matrix(88.8889,0,0,88.8889,13,90)"
   id="g1080">
            <path
   inkscape:connector-curvature="0"
   d="m 0.035,-0.237 0.21,-0.013 c 0.005,0.034 0.014,0.06 0.028,0.078 0.023,0.029 0.055,0.044 0.098,0.044 0.031,0 0.056,-0.008 0.073,-0.023 0.017,-0.014 0.025,-0.032 0.025,-0.051 0,-0.019 -0.008,-0.035 -0.024,-0.05 C 0.429,-0.267 0.391,-0.28 0.332,-0.293 0.235,-0.315 0.165,-0.344 0.124,-0.38 0.082,-0.417 0.062,-0.463 0.062,-0.519 c 0,-0.036 0.01,-0.071 0.032,-0.104 0.021,-0.033 0.053,-0.058 0.096,-0.077 0.043,-0.019 0.101,-0.028 0.176,-0.028 0.091,0 0.161,0.017 0.209,0.051 0.048,0.034 0.077,0.088 0.086,0.162 L 0.452,-0.502 C 0.447,-0.535 0.435,-0.558 0.417,-0.573 0.399,-0.587 0.375,-0.595 0.344,-0.595 c -0.026,0 -0.045,0.006 -0.058,0.017 -0.013,0.011 -0.02,0.024 -0.02,0.039 0,0.012 0.005,0.022 0.016,0.031 0.011,0.01 0.035,0.018 0.074,0.027 0.097,0.02 0.166,0.041 0.208,0.063 0.042,0.021 0.072,0.048 0.092,0.079 0.019,0.032 0.028,0.067 0.028,0.106 0,0.046 -0.013,0.088 -0.038,0.127 -0.025,0.039 -0.061,0.068 -0.106,0.088 -0.046,0.02 -0.103,0.03 -0.173,0.03 -0.122,0 -0.206,-0.023 -0.253,-0.07 C 0.067,-0.105 0.041,-0.165 0.035,-0.237 Z"
   style="fill:#ffffff;fill-opacity:1;stroke-width:0.40173629"
   id="path1078" />

        </g>

        <g
   style="fill:#ffffff;fill-opacity:1;stroke-width:0.40173629"
   transform="matrix(88.8889,0,0,88.8889,77.1927,90)"
   id="g1084">
            <path
   inkscape:connector-curvature="0"
   d="m 0.075,-0.716 h 0.206 l 0.27,0.396 V -0.716 H 0.759 V 0 H 0.551 L 0.283,-0.393 V 0 H 0.075 Z"
   style="fill:#ffffff;fill-opacity:1;stroke-width:0.40173629"
   id="path1082" />

        </g>

        <g
   style="fill:#ffffff;fill-opacity:1;stroke-width:0.40173629"
   transform="matrix(88.8889,0,0,88.8889,151.238,90)"
   id="g1088">
            <path
   inkscape:connector-curvature="0"
   d="m 0.071,-0.716 h 0.291 l 0.112,0.436 0.112,-0.436 h 0.29 V 0 H 0.695 V -0.546 L 0.555,0 H 0.392 L 0.252,-0.546 V 0 H 0.071 Z"
   style="fill:#ffffff;fill-opacity:1;stroke-width:0.40173629"
   id="path1086" />

        </g>

        <g
   style="fill:#ffffff;fill-opacity:1;stroke-width:0.40173629"
   transform="matrix(88.8889,0,0,88.8889,235.135,90)"
   id="g1092">
            <path
   inkscape:connector-curvature="0"
   d="M 0.072,-0.716 H 0.44 c 0.08,0 0.14,0.019 0.18,0.057 0.04,0.038 0.06,0.093 0.06,0.163 0,0.072 -0.022,0.129 -0.065,0.169 -0.044,0.041 -0.11,0.061 -0.199,0.061 H 0.294 V 0 H 0.072 Z m 0.222,0.305 h 0.055 c 0.042,0 0.072,-0.007 0.089,-0.022 0.018,-0.015 0.026,-0.034 0.026,-0.057 0,-0.022 -0.007,-0.041 -0.022,-0.057 C 0.427,-0.563 0.399,-0.57 0.357,-0.57 H 0.294 Z"
   style="fill:#ffffff;fill-opacity:1;stroke-width:0.40173629"
   id="path1090" />

        </g>

    </g>
      </g>
      <g
         transform="matrix(0.68409115,0,0,0.68409115,-356.7352,477.01043)"
         id="g1129"
         style="clip-rule:evenodd;fill:#ffffff;fill-opacity:1;fill-rule:evenodd;stroke-width:0.3867662;stroke-linejoin:round;stroke-miterlimit:2">
        <g
           style="fill:#ffffff;fill-opacity:1;stroke-width:0.3867662"
           transform="translate(-354.103,-125)"
           id="g1117">
        <path
   inkscape:connector-curvature="0"
   d="m 401.207,160 v 12 l -30,12 30,12 v 11.714 L 358.207,189 V 179 Z M 607,160 v 12 l 30,12 -30,12 v 11.714 L 650,189 v -10 z m -52.793,46 h -11 v -62 h 11 z m 34,0 h -9 l 16,-63.714 h 9 z m -163,0 h -14 l 16,-23 -16,-22 h 15 l 8,13 8,-13 h 14 l -15,22 17,23 h -15 l -9,-13 z m 50,-45 v 6 c 9.29,-9.409 20.943,-8.977 27,0 7.586,-9.984 25.54,-9.606 28,5 v 34 h -12 v -31 c -0.241,-8.945 -14.949,-6.932 -15,4 v 27 h -12 v -31 c -0.306,-8.648 -14.884,-6.649 -15,3 v 28 h -12 v -45 z"
   style="fill:#ffffff;fill-opacity:1;stroke-width:0.3867662"
   id="path1115" />

    </g>
      </g>
    </g>
  </g>
</svg>
