<?xml version="1.0" encoding="UTF-8" standalone="no"?>
<svg
   xmlns:serif="http://www.serif.com/"
   xmlns:dc="http://purl.org/dc/elements/1.1/"
   xmlns:cc="http://creativecommons.org/ns#"
   xmlns:rdf="http://www.w3.org/1999/02/22-rdf-syntax-ns#"
   xmlns:svg="http://www.w3.org/2000/svg"
   xmlns="http://www.w3.org/2000/svg"
   id="svg1256"
   style="fill-rule:evenodd;clip-rule:evenodd;stroke-linecap:round;stroke-linejoin:round;stroke-miterlimit:1.5;"
   xml:space="preserve"
   version="1.1"
   viewBox="0 0 3421 522"
   height="100%"
   width="100%"><metadata
   id="metadata1262"><rdf:RDF><cc:Work
       rdf:about=""><dc:format>image/svg+xml</dc:format><dc:type
         rdf:resource="http://purl.org/dc/dcmitype/StillImage" /><dc:title></dc:title></cc:Work></rdf:RDF></metadata><defs
   id="defs1260" />
    <g
   transform="matrix(1,0,0,1,-46.5132,-745.976)"
   id="Artboard1">
        <rect
   id="rect1056"
   style="fill:none;"
   height="521.674"
   width="3420.81"
   y="745.976"
   x="46.513" />
        <clipPath
   id="_clip1">
            <rect
   id="rect1058"
   height="521.674"
   width="3420.81"
   y="745.976"
   x="46.513" />
        </clipPath>
        <g
   id="g1253"
   clip-path="url(#_clip1)">
            <g
   transform="matrix(1,0,0,1,0.51318,0.975661)"
   id="Frame">
                <g
   id="DisplayButtons">
                    <rect
   id="rect1061"
   style="fill:none;stroke:black;stroke-width:8.33px;"
   height="97.479"
   width="236.927"
   y="985.824"
   x="3011.32" />
                    <rect
   id="rect1063"
   style="fill:none;stroke:black;stroke-width:8.33px;"
   height="99.696"
   width="157.261"
   y="1107.87"
   x="3011.32" />
                    <g
   id="g1067"
   transform="matrix(1,0,0,1,-6.78031,-5.86717)">
                        <circle
   id="circle1065"
   style="fill:none;stroke:black;stroke-width:8.33px;"
   r="37.572"
   cy="1051.6"
   cx="3322.05" />
                    </g>
                    <g
   id="g1071"
   transform="matrix(1,0,0,1,-6.78031,93.842)">
                        <circle
   id="circle1069"
   style="fill:none;stroke:black;stroke-width:8.33px;"
   r="37.572"
   cy="1051.6"
   cx="3322.05" />
                    </g>
                </g>
                <g
   transform="matrix(1,0,0,1,356.792,-661.749)"
   id="NetworkPorts">
                    <g
   id="g1076"
   transform="matrix(1.0167,0,0,1.00654,-43.5221,-12.31)">
                        <rect
   id="rect1074"
   style="fill:none;stroke:black;stroke-width:8.24px;"
   height="246.088"
   width="129.425"
   y="1636.2"
   x="2477.11" />
                    </g>
                    <g
   id="g1084">
                        <g
   id="g1080"
   transform="matrix(1,0,0,0.944049,0,92.04)">
                            <rect
   id="rect1078"
   style="fill:none;stroke:black;stroke-width:8.57px;"
   height="114.243"
   width="111.585"
   y="1645.01"
   x="2484.96" />
                        </g>
                        <path
   id="path1082"
   style="fill:none;stroke:black;stroke-width:8.33px;"
   d="M2523.69,1668.47L2523.69,1657.53L2558,1657.53L2558,1668.47L2585.09,1668.47L2585.09,1722.58L2496.52,1722.58L2496.52,1668.47L2523.69,1668.47Z" />
                    </g>
                    <g
   id="g1092"
   transform="matrix(1,0,0,-1,0,3516.03)">
                        <g
   id="g1088"
   transform="matrix(1,0,0,0.944049,0,92.04)">
                            <rect
   id="rect1086"
   style="fill:none;stroke:black;stroke-width:8.57px;"
   height="114.243"
   width="111.585"
   y="1645.01"
   x="2484.96" />
                        </g>
                        <path
   id="path1090"
   style="fill:none;stroke:black;stroke-width:8.33px;"
   d="M2523.69,1668.47L2523.69,1657.53L2558,1657.53L2558,1668.47L2585.09,1668.47L2585.09,1722.58L2496.52,1722.58L2496.52,1668.47L2523.69,1668.47Z" />
                    </g>
                </g>
                <g
   id="Sockets">
                    <g
   id="Socket">
                        <rect
   id="rect1095"
   style="fill:none;stroke:black;stroke-width:8.33px;opacity:0.3"
   height="16.841"
   width="39.296"
   y="1091.25"
   x="356.506" />
                        <g
   id="g1099"
   transform="matrix(1,0,0,1,-34.1636,-53.9286)">
                            <rect
   id="rect1097"
   style="fill:none;stroke:black;stroke-width:8.33px;opacity:0.3"
   height="16.841"
   width="39.296"
   y="1091.25"
   x="356.506" />
                        </g>
                        <g
   id="g1103"
   transform="matrix(1,0,0,1,-34.1636,53.4561)">
                            <rect
   id="rect1101"
   style="fill:none;stroke:black;stroke-width:8.33px;opacity:0.3"
   height="16.841"
   width="39.296"
   y="1091.25"
   x="356.506" />
                        </g>
                        <path
   id="path1105"
   style="fill:none;stroke:black;stroke-width:8.33px;opacity:0.3"
   d="M445.956,1026.37L395.802,981.431L309.735,981.431C301.138,981.431 292.894,984.846 286.815,990.925C280.736,997.004 277.321,1005.25 277.321,1013.85C277.321,1058.5 277.321,1138.45 277.321,1183.1C277.321,1191.7 280.736,1199.94 286.815,1206.02C292.894,1212.1 301.138,1215.52 309.735,1215.52C344.814,1215.52 395.802,1215.52 395.802,1215.52L445.956,1172.74L445.956,1026.37Z" />
                        <g
   id="g1109"
   transform="matrix(0.736191,0,0,0.721518,94.1041,305.905)">
                            <path
   id="path1107"
   style="fill:none;stroke:black;stroke-width:11.43px;opacity:0.3"
   d="M445.956,1037.07L395.802,981.431L309.361,981.431C291.666,981.431 277.321,996.068 277.321,1014.12C277.321,1058.73 277.321,1138.22 277.321,1182.83C277.321,1200.88 291.666,1215.52 309.361,1215.52C344.45,1215.52 395.802,1215.52 395.802,1215.52L445.956,1161.49L445.956,1037.07Z" />
                        </g>
                        <path
   id="path1111"
   style="fill:none;stroke:black;stroke-width:8.33px;opacity:0.3"
   d="M465.828,978.694C465.828,971.204 459.748,965.123 452.258,965.123L268.543,965.123C261.053,965.123 254.973,971.204 254.973,978.694L254.973,1219.98C254.973,1227.47 261.053,1233.55 268.543,1233.55L452.258,1233.55C459.748,1233.55 465.828,1227.47 465.828,1219.98L465.828,978.694Z" />
                    </g>
                    <g
   transform="matrix(1,0,0,1,272.64,0)"
   serif:id="Socket"
   id="Socket1">
                        <rect
   id="rect1114"
   style="fill:none;stroke:black;stroke-width:8.33px;opacity:0.3"
   height="16.841"
   width="39.296"
   y="1091.25"
   x="356.506" />
                        <g
   id="g1118"
   transform="matrix(1,0,0,1,-34.1636,-53.9286)">
                            <rect
   id="rect1116"
   style="fill:none;stroke:black;stroke-width:8.33px;opacity:0.3"
   height="16.841"
   width="39.296"
   y="1091.25"
   x="356.506" />
                        </g>
                        <g
   id="g1122"
   transform="matrix(1,0,0,1,-34.1636,53.4561)">
                            <rect
   id="rect1120"
   style="fill:none;stroke:black;stroke-width:8.33px;opacity:0.3"
   height="16.841"
   width="39.296"
   y="1091.25"
   x="356.506" />
                        </g>
                        <path
   id="path1124"
   style="fill:none;stroke:black;stroke-width:8.33px;opacity:0.3"
   d="M445.956,1026.37L395.802,981.431L309.735,981.431C301.138,981.431 292.894,984.846 286.815,990.925C280.736,997.004 277.321,1005.25 277.321,1013.85C277.321,1058.5 277.321,1138.45 277.321,1183.1C277.321,1191.7 280.736,1199.94 286.815,1206.02C292.894,1212.1 301.138,1215.52 309.735,1215.52C344.814,1215.52 395.802,1215.52 395.802,1215.52L445.956,1172.74L445.956,1026.37Z" />
                        <g
   id="g1128"
   transform="matrix(0.736191,0,0,0.721518,94.1041,305.905)">
                            <path
   id="path1126"
   style="fill:none;stroke:black;stroke-width:11.43px;opacity:0.3"
   d="M445.956,1037.07L395.802,981.431L309.361,981.431C291.666,981.431 277.321,996.068 277.321,1014.12C277.321,1058.73 277.321,1138.22 277.321,1182.83C277.321,1200.88 291.666,1215.52 309.361,1215.52C344.45,1215.52 395.802,1215.52 395.802,1215.52L445.956,1161.49L445.956,1037.07Z" />
                        </g>
                        <path
   id="path1130"
   style="fill:none;stroke:black;stroke-width:8.33px;opacity:0.3"
   d="M465.828,978.694C465.828,971.204 459.748,965.123 452.258,965.123L268.543,965.123C261.053,965.123 254.973,971.204 254.973,978.694L254.973,1219.98C254.973,1227.47 261.053,1233.55 268.543,1233.55L452.258,1233.55C459.748,1233.55 465.828,1227.47 465.828,1219.98L465.828,978.694Z" />
                    </g>
                    <g
   transform="matrix(1,0,0,1,545.28,0)"
   serif:id="Socket"
   id="Socket2">
                        <rect
   id="rect1133"
   style="fill:none;stroke:black;stroke-width:8.33px;"
   height="16.841"
   width="39.296"
   y="1091.25"
   x="356.506" />
                        <g
   id="g1137"
   transform="matrix(1,0,0,1,-34.1636,-53.9286)">
                            <rect
   id="rect1135"
   style="fill:none;stroke:black;stroke-width:8.33px;"
   height="16.841"
   width="39.296"
   y="1091.25"
   x="356.506" />
                        </g>
                        <g
   id="g1141"
   transform="matrix(1,0,0,1,-34.1636,53.4561)">
                            <rect
   id="rect1139"
   style="fill:none;stroke:black;stroke-width:8.33px;"
   height="16.841"
   width="39.296"
   y="1091.25"
   x="356.506" />
                        </g>
                        <path
   id="path1143"
   style="fill:none;stroke:black;stroke-width:8.33px;"
   d="M445.956,1026.37L395.802,981.431L309.735,981.431C301.138,981.431 292.894,984.846 286.815,990.925C280.736,997.004 277.321,1005.25 277.321,1013.85C277.321,1058.5 277.321,1138.45 277.321,1183.1C277.321,1191.7 280.736,1199.94 286.815,1206.02C292.894,1212.1 301.138,1215.52 309.735,1215.52C344.814,1215.52 395.802,1215.52 395.802,1215.52L445.956,1172.74L445.956,1026.37Z" />
                        <g
   id="g1147"
   transform="matrix(0.736191,0,0,0.721518,94.1041,305.905)">
                            <path
   id="path1145"
   style="fill:none;stroke:black;stroke-width:11.43px;"
   d="M445.956,1037.07L395.802,981.431L309.361,981.431C291.666,981.431 277.321,996.068 277.321,1014.12C277.321,1058.73 277.321,1138.22 277.321,1182.83C277.321,1200.88 291.666,1215.52 309.361,1215.52C344.45,1215.52 395.802,1215.52 395.802,1215.52L445.956,1161.49L445.956,1037.07Z" />
                        </g>
                        <path
   id="path1149"
   style="fill:none;stroke:black;stroke-width:8.33px;"
   d="M465.828,978.694C465.828,971.204 459.748,965.123 452.258,965.123L268.543,965.123C261.053,965.123 254.973,971.204 254.973,978.694L254.973,1219.98C254.973,1227.47 261.053,1233.55 268.543,1233.55L452.258,1233.55C459.748,1233.55 465.828,1227.47 465.828,1219.98L465.828,978.694Z" />
                    </g>
                    <g
   transform="matrix(1,0,0,1,817.92,0)"
   serif:id="Socket"
   id="Socket3">
                        <rect
   id="rect1152"
   style="fill:none;stroke:black;stroke-width:8.33px;"
   height="16.841"
   width="39.296"
   y="1091.25"
   x="356.506" />
                        <g
   id="g1156"
   transform="matrix(1,0,0,1,-34.1636,-53.9286)">
                            <rect
   id="rect1154"
   style="fill:none;stroke:black;stroke-width:8.33px;"
   height="16.841"
   width="39.296"
   y="1091.25"
   x="356.506" />
                        </g>
                        <g
   id="g1160"
   transform="matrix(1,0,0,1,-34.1636,53.4561)">
                            <rect
   id="rect1158"
   style="fill:none;stroke:black;stroke-width:8.33px;"
   height="16.841"
   width="39.296"
   y="1091.25"
   x="356.506" />
                        </g>
                        <path
   id="path1162"
   style="fill:none;stroke:black;stroke-width:8.33px;"
   d="M445.956,1026.37L395.802,981.431L309.735,981.431C301.138,981.431 292.894,984.846 286.815,990.925C280.736,997.004 277.321,1005.25 277.321,1013.85C277.321,1058.5 277.321,1138.45 277.321,1183.1C277.321,1191.7 280.736,1199.94 286.815,1206.02C292.894,1212.1 301.138,1215.52 309.735,1215.52C344.814,1215.52 395.802,1215.52 395.802,1215.52L445.956,1172.74L445.956,1026.37Z" />
                        <g
   id="g1166"
   transform="matrix(0.736191,0,0,0.721518,94.1041,305.905)">
                            <path
   id="path1164"
   style="fill:none;stroke:black;stroke-width:11.43px;"
   d="M445.956,1037.07L395.802,981.431L309.361,981.431C291.666,981.431 277.321,996.068 277.321,1014.12C277.321,1058.73 277.321,1138.22 277.321,1182.83C277.321,1200.88 291.666,1215.52 309.361,1215.52C344.45,1215.52 395.802,1215.52 395.802,1215.52L445.956,1161.49L445.956,1037.07Z" />
                        </g>
                        <path
   id="path1168"
   style="fill:none;stroke:black;stroke-width:8.33px;"
   d="M465.828,978.694C465.828,971.204 459.748,965.123 452.258,965.123L268.543,965.123C261.053,965.123 254.973,971.204 254.973,978.694L254.973,1219.98C254.973,1227.47 261.053,1233.55 268.543,1233.55L452.258,1233.55C459.748,1233.55 465.828,1227.47 465.828,1219.98L465.828,978.694Z" />
                    </g>
                    <g
   transform="matrix(1,0,0,1,1090.56,0)"
   serif:id="Socket"
   id="Socket4">
                        <rect
   id="rect1171"
   style="fill:none;stroke:black;stroke-width:8.33px;"
   height="16.841"
   width="39.296"
   y="1091.25"
   x="356.506" />
                        <g
   id="g1175"
   transform="matrix(1,0,0,1,-34.1636,-53.9286)">
                            <rect
   id="rect1173"
   style="fill:none;stroke:black;stroke-width:8.33px;"
   height="16.841"
   width="39.296"
   y="1091.25"
   x="356.506" />
                        </g>
                        <g
   id="g1179"
   transform="matrix(1,0,0,1,-34.1636,53.4561)">
                            <rect
   id="rect1177"
   style="fill:none;stroke:black;stroke-width:8.33px;"
   height="16.841"
   width="39.296"
   y="1091.25"
   x="356.506" />
                        </g>
                        <path
   id="path1181"
   style="fill:none;stroke:black;stroke-width:8.33px;"
   d="M445.956,1026.37L395.802,981.431L309.735,981.431C301.138,981.431 292.894,984.846 286.815,990.925C280.736,997.004 277.321,1005.25 277.321,1013.85C277.321,1058.5 277.321,1138.45 277.321,1183.1C277.321,1191.7 280.736,1199.94 286.815,1206.02C292.894,1212.1 301.138,1215.52 309.735,1215.52C344.814,1215.52 395.802,1215.52 395.802,1215.52L445.956,1172.74L445.956,1026.37Z" />
                        <g
   id="g1185"
   transform="matrix(0.736191,0,0,0.721518,94.1041,305.905)">
                            <path
   id="path1183"
   style="fill:none;stroke:black;stroke-width:11.43px;"
   d="M445.956,1037.07L395.802,981.431L309.361,981.431C291.666,981.431 277.321,996.068 277.321,1014.12C277.321,1058.73 277.321,1138.22 277.321,1182.83C277.321,1200.88 291.666,1215.52 309.361,1215.52C344.45,1215.52 395.802,1215.52 395.802,1215.52L445.956,1161.49L445.956,1037.07Z" />
                        </g>
                        <path
   id="path1187"
   style="fill:none;stroke:black;stroke-width:8.33px;"
   d="M465.828,978.694C465.828,971.204 459.748,965.123 452.258,965.123L268.543,965.123C261.053,965.123 254.973,971.204 254.973,978.694L254.973,1219.98C254.973,1227.47 261.053,1233.55 268.543,1233.55L452.258,1233.55C459.748,1233.55 465.828,1227.47 465.828,1219.98L465.828,978.694Z" />
                    </g>
                    <g
   transform="matrix(1,0,0,1,1363.35,0)"
   serif:id="Socket"
   id="Socket5">
                        <rect
   id="rect1190"
   style="fill:none;stroke:black;stroke-width:8.33px;opacity:0.3"
   height="16.841"
   width="39.296"
   y="1091.25"
   x="356.506" />
                        <g
   id="g1194"
   transform="matrix(1,0,0,1,-34.1636,-53.9286)">
                            <rect
   id="rect1192"
   style="fill:none;stroke:black;stroke-width:8.33px;opacity:0.3"
   height="16.841"
   width="39.296"
   y="1091.25"
   x="356.506" />
                        </g>
                        <g
   id="g1198"
   transform="matrix(1,0,0,1,-34.1636,53.4561)">
                            <rect
   id="rect1196"
   style="fill:none;stroke:black;stroke-width:8.33px;opacity:0.3"
   height="16.841"
   width="39.296"
   y="1091.25"
   x="356.506" />
                        </g>
                        <path
   id="path1200"
   style="fill:none;stroke:black;stroke-width:8.33px;opacity:0.3"
   d="M445.956,1026.37L395.802,981.431L309.735,981.431C301.138,981.431 292.894,984.846 286.815,990.925C280.736,997.004 277.321,1005.25 277.321,1013.85C277.321,1058.5 277.321,1138.45 277.321,1183.1C277.321,1191.7 280.736,1199.94 286.815,1206.02C292.894,1212.1 301.138,1215.52 309.735,1215.52C344.814,1215.52 395.802,1215.52 395.802,1215.52L445.956,1172.74L445.956,1026.37Z" />
                        <g
   id="g1204"
   transform="matrix(0.736191,0,0,0.721518,94.1041,305.905)">
                            <path
   id="path1202"
   style="fill:none;stroke:black;stroke-width:11.43px;opacity:0.3"
   d="M445.956,1037.07L395.802,981.431L309.361,981.431C291.666,981.431 277.321,996.068 277.321,1014.12C277.321,1058.73 277.321,1138.22 277.321,1182.83C277.321,1200.88 291.666,1215.52 309.361,1215.52C344.45,1215.52 395.802,1215.52 395.802,1215.52L445.956,1161.49L445.956,1037.07Z" />
                        </g>
                        <path
   id="path1206"
   style="fill:none;stroke:black;stroke-width:8.33px;opacity:0.3"
   d="M465.828,978.694C465.828,971.204 459.748,965.123 452.258,965.123L268.543,965.123C261.053,965.123 254.973,971.204 254.973,978.694L254.973,1219.98C254.973,1227.47 261.053,1233.55 268.543,1233.55L452.258,1233.55C459.748,1233.55 465.828,1227.47 465.828,1219.98L465.828,978.694Z" />
                    </g>
                    <g
   transform="matrix(1,0,0,1,1635.99,0)"
   serif:id="Socket"
   id="Socket6">
                        <rect
   id="rect1209"
   style="fill:none;stroke:black;stroke-width:8.33px;opacity:0.3"
   height="16.841"
   width="39.296"
   y="1091.25"
   x="356.506" />
                        <g
   id="g1213"
   transform="matrix(1,0,0,1,-34.1636,-53.9286)">
                            <rect
   id="rect1211"
   style="fill:none;stroke:black;stroke-width:8.33px;opacity:0.3"
   height="16.841"
   width="39.296"
   y="1091.25"
   x="356.506" />
                        </g>
                        <g
   id="g1217"
   transform="matrix(1,0,0,1,-34.1636,53.4561)">
                            <rect
   id="rect1215"
   style="fill:none;stroke:black;stroke-width:8.33px;opacity:0.3"
   height="16.841"
   width="39.296"
   y="1091.25"
   x="356.506" />
                        </g>
                        <path
   id="path1219"
   style="fill:none;stroke:black;stroke-width:8.33px;opacity:0.3"
   d="M445.956,1026.37L395.802,981.431L309.735,981.431C301.138,981.431 292.894,984.846 286.815,990.925C280.736,997.004 277.321,1005.25 277.321,1013.85C277.321,1058.5 277.321,1138.45 277.321,1183.1C277.321,1191.7 280.736,1199.94 286.815,1206.02C292.894,1212.1 301.138,1215.52 309.735,1215.52C344.814,1215.52 395.802,1215.52 395.802,1215.52L445.956,1172.74L445.956,1026.37Z" />
                        <g
   id="g1223"
   transform="matrix(0.736191,0,0,0.721518,94.1041,305.905)">
                            <path
   id="path1221"
   style="fill:none;stroke:black;stroke-width:11.43px;opacity:0.3"
   d="M445.956,1037.07L395.802,981.431L309.361,981.431C291.666,981.431 277.321,996.068 277.321,1014.12C277.321,1058.73 277.321,1138.22 277.321,1182.83C277.321,1200.88 291.666,1215.52 309.361,1215.52C344.45,1215.52 395.802,1215.52 395.802,1215.52L445.956,1161.49L445.956,1037.07Z" />
                        </g>
                        <path
   id="path1225"
   style="fill:none;stroke:black;stroke-width:8.33px;opacity:0.3"
   d="M465.828,978.694C465.828,971.204 459.748,965.123 452.258,965.123L268.543,965.123C261.053,965.123 254.973,971.204 254.973,978.694L254.973,1219.98C254.973,1227.47 261.053,1233.55 268.543,1233.55L452.258,1233.55C459.748,1233.55 465.828,1227.47 465.828,1219.98L465.828,978.694Z" />
                    </g>
                    <g
   transform="matrix(1,0,0,1,1908.63,0)"
   serif:id="Socket"
   id="Socket7">
                        <rect
   id="rect1228"
   style="fill:none;stroke:black;stroke-width:8.33px;opacity:0.3"
   height="16.841"
   width="39.296"
   y="1091.25"
   x="356.506" />
                        <g
   id="g1232"
   transform="matrix(1,0,0,1,-34.1636,-53.9286)">
                            <rect
   id="rect1230"
   style="fill:none;stroke:black;stroke-width:8.33px;opacity:0.3"
   height="16.841"
   width="39.296"
   y="1091.25"
   x="356.506" />
                        </g>
                        <g
   id="g1236"
   transform="matrix(1,0,0,1,-34.1636,53.4561)">
                            <rect
   id="rect1234"
   style="fill:none;stroke:black;stroke-width:8.33px;opacity:0.3"
   height="16.841"
   width="39.296"
   y="1091.25"
   x="356.506" />
                        </g>
                        <path
   id="path1238"
   style="fill:none;stroke:black;stroke-width:8.33px;opacity:0.3"
   d="M445.956,1026.37L395.802,981.431L309.735,981.431C301.138,981.431 292.894,984.846 286.815,990.925C280.736,997.004 277.321,1005.25 277.321,1013.85C277.321,1058.5 277.321,1138.45 277.321,1183.1C277.321,1191.7 280.736,1199.94 286.815,1206.02C292.894,1212.1 301.138,1215.52 309.735,1215.52C344.814,1215.52 395.802,1215.52 395.802,1215.52L445.956,1172.74L445.956,1026.37Z" />
                        <g
   id="g1242"
   transform="matrix(0.736191,0,0,0.721518,94.1041,305.905)">
                            <path
   id="path1240"
   style="fill:none;stroke:black;stroke-width:11.43px;opacity:0.3"
   d="M445.956,1037.07L395.802,981.431L309.361,981.431C291.666,981.431 277.321,996.068 277.321,1014.12C277.321,1058.73 277.321,1138.22 277.321,1182.83C277.321,1200.88 291.666,1215.52 309.361,1215.52C344.45,1215.52 395.802,1215.52 395.802,1215.52L445.956,1161.49L445.956,1037.07Z" />
                        </g>
                        <path
   id="path1244"
   style="fill:none;stroke:black;stroke-width:8.33px;opacity:0.3"
   d="M465.828,978.694C465.828,971.204 459.748,965.123 452.258,965.123L268.543,965.123C261.053,965.123 254.973,971.204 254.973,978.694L254.973,1219.98C254.973,1227.47 261.053,1233.55 268.543,1233.55L452.258,1233.55C459.748,1233.55 465.828,1227.47 465.828,1219.98L465.828,978.694Z" />
                    </g>
                </g>
                <rect
   id="rect1248"
   style="fill:none;stroke:black;stroke-width:8.33px;"
   height="338.013"
   width="3412.48"
   y="925.47"
   x="50.68" />
                <path
   id="path1250"
   style="fill:none;stroke:black;stroke-width:8.33px;"
   d="M50.68,925.47L159.147,750.142L3318.01,750.142L3463.16,925.47" />
            </g>
        </g>
    </g>
</svg>