<?xml version="1.0" encoding="UTF-8" standalone="no"?>
<!DOCTYPE svg PUBLIC "-//W3C//DTD SVG 1.1//EN" "http://www.w3.org/Graphics/SVG/1.1/DTD/svg11.dtd">
<svg width="100%" height="100%" viewBox="0 0 3421 522" version="1.1" xmlns="http://www.w3.org/2000/svg" xmlns:xlink="http://www.w3.org/1999/xlink" xml:space="preserve" xmlns:serif="http://www.serif.com/" style="fill-rule:evenodd;clip-rule:evenodd;stroke-linecap:round;stroke-linejoin:round;stroke-miterlimit:1.5;">
    <g id="Artboard1" transform="matrix(1,0,0,1,-46.5132,-745.976)">
        <rect x="46.513" y="745.976" width="3420.81" height="521.674" style="fill:none;"/>
        <clipPath id="_clip1">
            <rect x="46.513" y="745.976" width="3420.81" height="521.674"/>
        </clipPath>
        <g clip-path="url(#_clip1)">
            <g id="Frame" transform="matrix(1,0,0,1,0.51318,0.975661)">
                <g id="DisplayButtons">
                    <rect x="3011.32" y="985.824" width="236.927" height="97.479" style="fill:none;stroke:black;stroke-width:8.33px;"/>
                    <rect x="3011.32" y="1107.87" width="157.261" height="99.696" style="fill:none;stroke:black;stroke-width:8.33px;"/>
                    <g transform="matrix(1,0,0,1,-6.78031,-5.86717)">
                        <circle cx="3322.05" cy="1051.6" r="37.572" style="fill:none;stroke:black;stroke-width:8.33px;"/>
                    </g>
                    <g transform="matrix(1,0,0,1,-6.78031,93.842)">
                        <circle cx="3322.05" cy="1051.6" r="37.572" style="fill:none;stroke:black;stroke-width:8.33px;"/>
                    </g>
                </g>
                <g id="NetworkPorts" transform="matrix(1,0,0,1,356.792,-661.749)">
                    <g transform="matrix(1.0167,0,0,1.00654,-43.5221,-12.31)">
                        <rect x="2477.11" y="1636.2" width="129.425" height="246.088" style="fill:none;stroke:black;stroke-width:8.24px;"/>
                    </g>
                    <g>
                        <g transform="matrix(1,0,0,0.944049,0,92.04)">
                            <rect x="2484.96" y="1645.01" width="111.585" height="114.243" style="fill:none;stroke:black;stroke-width:8.57px;"/>
                        </g>
                        <path d="M2523.69,1668.47L2523.69,1657.53L2558,1657.53L2558,1668.47L2585.09,1668.47L2585.09,1722.58L2496.52,1722.58L2496.52,1668.47L2523.69,1668.47Z" style="fill:none;stroke:black;stroke-width:8.33px;"/>
                    </g>
                    <g transform="matrix(1,0,0,-1,0,3516.03)">
                        <g transform="matrix(1,0,0,0.944049,0,92.04)">
                            <rect x="2484.96" y="1645.01" width="111.585" height="114.243" style="fill:none;stroke:black;stroke-width:8.57px;"/>
                        </g>
                        <path d="M2523.69,1668.47L2523.69,1657.53L2558,1657.53L2558,1668.47L2585.09,1668.47L2585.09,1722.58L2496.52,1722.58L2496.52,1668.47L2523.69,1668.47Z" style="fill:none;stroke:black;stroke-width:8.33px;"/>
                    </g>
                </g>
                <g id="Sockets">
                    <g id="Socket">
                        <rect x="356.506" y="1091.25" width="39.296" height="16.841" style="fill:none;stroke:black;stroke-width:8.33px;"/>
                        <g transform="matrix(1,0,0,1,-34.1636,-53.9286)">
                            <rect x="356.506" y="1091.25" width="39.296" height="16.841" style="fill:none;stroke:black;stroke-width:8.33px;"/>
                        </g>
                        <g transform="matrix(1,0,0,1,-34.1636,53.4561)">
                            <rect x="356.506" y="1091.25" width="39.296" height="16.841" style="fill:none;stroke:black;stroke-width:8.33px;"/>
                        </g>
                        <path d="M445.956,1026.37L395.802,981.431L309.735,981.431C301.138,981.431 292.894,984.846 286.815,990.925C280.736,997.004 277.321,1005.25 277.321,1013.85C277.321,1058.5 277.321,1138.45 277.321,1183.1C277.321,1191.7 280.736,1199.94 286.815,1206.02C292.894,1212.1 301.138,1215.52 309.735,1215.52C344.814,1215.52 395.802,1215.52 395.802,1215.52L445.956,1172.74L445.956,1026.37Z" style="fill:none;stroke:black;stroke-width:8.33px;"/>
                        <g transform="matrix(0.736191,0,0,0.721518,94.1041,305.905)">
                            <path d="M445.956,1037.07L395.802,981.431L309.361,981.431C291.666,981.431 277.321,996.068 277.321,1014.12C277.321,1058.73 277.321,1138.22 277.321,1182.83C277.321,1200.88 291.666,1215.52 309.361,1215.52C344.45,1215.52 395.802,1215.52 395.802,1215.52L445.956,1161.49L445.956,1037.07Z" style="fill:none;stroke:black;stroke-width:11.43px;"/>
                        </g>
                        <path d="M465.828,978.694C465.828,971.204 459.748,965.123 452.258,965.123L268.543,965.123C261.053,965.123 254.973,971.204 254.973,978.694L254.973,1219.98C254.973,1227.47 261.053,1233.55 268.543,1233.55L452.258,1233.55C459.748,1233.55 465.828,1227.47 465.828,1219.98L465.828,978.694Z" style="fill:none;stroke:black;stroke-width:8.33px;"/>
                    </g>
                    <g id="Socket1" serif:id="Socket" transform="matrix(1,0,0,1,272.64,0)">
                        <rect x="356.506" y="1091.25" width="39.296" height="16.841" style="fill:none;stroke:black;stroke-width:8.33px;"/>
                        <g transform="matrix(1,0,0,1,-34.1636,-53.9286)">
                            <rect x="356.506" y="1091.25" width="39.296" height="16.841" style="fill:none;stroke:black;stroke-width:8.33px;"/>
                        </g>
                        <g transform="matrix(1,0,0,1,-34.1636,53.4561)">
                            <rect x="356.506" y="1091.25" width="39.296" height="16.841" style="fill:none;stroke:black;stroke-width:8.33px;"/>
                        </g>
                        <path d="M445.956,1026.37L395.802,981.431L309.735,981.431C301.138,981.431 292.894,984.846 286.815,990.925C280.736,997.004 277.321,1005.25 277.321,1013.85C277.321,1058.5 277.321,1138.45 277.321,1183.1C277.321,1191.7 280.736,1199.94 286.815,1206.02C292.894,1212.1 301.138,1215.52 309.735,1215.52C344.814,1215.52 395.802,1215.52 395.802,1215.52L445.956,1172.74L445.956,1026.37Z" style="fill:none;stroke:black;stroke-width:8.33px;"/>
                        <g transform="matrix(0.736191,0,0,0.721518,94.1041,305.905)">
                            <path d="M445.956,1037.07L395.802,981.431L309.361,981.431C291.666,981.431 277.321,996.068 277.321,1014.12C277.321,1058.73 277.321,1138.22 277.321,1182.83C277.321,1200.88 291.666,1215.52 309.361,1215.52C344.45,1215.52 395.802,1215.52 395.802,1215.52L445.956,1161.49L445.956,1037.07Z" style="fill:none;stroke:black;stroke-width:11.43px;"/>
                        </g>
                        <path d="M465.828,978.694C465.828,971.204 459.748,965.123 452.258,965.123L268.543,965.123C261.053,965.123 254.973,971.204 254.973,978.694L254.973,1219.98C254.973,1227.47 261.053,1233.55 268.543,1233.55L452.258,1233.55C459.748,1233.55 465.828,1227.47 465.828,1219.98L465.828,978.694Z" style="fill:none;stroke:black;stroke-width:8.33px;"/>
                    </g>
                    <g id="Socket2" serif:id="Socket" transform="matrix(1,0,0,1,545.28,0)">
                        <rect x="356.506" y="1091.25" width="39.296" height="16.841" style="fill:none;stroke:black;stroke-width:8.33px;"/>
                        <g transform="matrix(1,0,0,1,-34.1636,-53.9286)">
                            <rect x="356.506" y="1091.25" width="39.296" height="16.841" style="fill:none;stroke:black;stroke-width:8.33px;"/>
                        </g>
                        <g transform="matrix(1,0,0,1,-34.1636,53.4561)">
                            <rect x="356.506" y="1091.25" width="39.296" height="16.841" style="fill:none;stroke:black;stroke-width:8.33px;"/>
                        </g>
                        <path d="M445.956,1026.37L395.802,981.431L309.735,981.431C301.138,981.431 292.894,984.846 286.815,990.925C280.736,997.004 277.321,1005.25 277.321,1013.85C277.321,1058.5 277.321,1138.45 277.321,1183.1C277.321,1191.7 280.736,1199.94 286.815,1206.02C292.894,1212.1 301.138,1215.52 309.735,1215.52C344.814,1215.52 395.802,1215.52 395.802,1215.52L445.956,1172.74L445.956,1026.37Z" style="fill:none;stroke:black;stroke-width:8.33px;"/>
                        <g transform="matrix(0.736191,0,0,0.721518,94.1041,305.905)">
                            <path d="M445.956,1037.07L395.802,981.431L309.361,981.431C291.666,981.431 277.321,996.068 277.321,1014.12C277.321,1058.73 277.321,1138.22 277.321,1182.83C277.321,1200.88 291.666,1215.52 309.361,1215.52C344.45,1215.52 395.802,1215.52 395.802,1215.52L445.956,1161.49L445.956,1037.07Z" style="fill:none;stroke:black;stroke-width:11.43px;"/>
                        </g>
                        <path d="M465.828,978.694C465.828,971.204 459.748,965.123 452.258,965.123L268.543,965.123C261.053,965.123 254.973,971.204 254.973,978.694L254.973,1219.98C254.973,1227.47 261.053,1233.55 268.543,1233.55L452.258,1233.55C459.748,1233.55 465.828,1227.47 465.828,1219.98L465.828,978.694Z" style="fill:none;stroke:black;stroke-width:8.33px;"/>
                    </g>
                    <g id="Socket3" serif:id="Socket" transform="matrix(1,0,0,1,817.92,0)">
                        <rect x="356.506" y="1091.25" width="39.296" height="16.841" style="fill:none;stroke:black;stroke-width:8.33px;"/>
                        <g transform="matrix(1,0,0,1,-34.1636,-53.9286)">
                            <rect x="356.506" y="1091.25" width="39.296" height="16.841" style="fill:none;stroke:black;stroke-width:8.33px;"/>
                        </g>
                        <g transform="matrix(1,0,0,1,-34.1636,53.4561)">
                            <rect x="356.506" y="1091.25" width="39.296" height="16.841" style="fill:none;stroke:black;stroke-width:8.33px;"/>
                        </g>
                        <path d="M445.956,1026.37L395.802,981.431L309.735,981.431C301.138,981.431 292.894,984.846 286.815,990.925C280.736,997.004 277.321,1005.25 277.321,1013.85C277.321,1058.5 277.321,1138.45 277.321,1183.1C277.321,1191.7 280.736,1199.94 286.815,1206.02C292.894,1212.1 301.138,1215.52 309.735,1215.52C344.814,1215.52 395.802,1215.52 395.802,1215.52L445.956,1172.74L445.956,1026.37Z" style="fill:none;stroke:black;stroke-width:8.33px;"/>
                        <g transform="matrix(0.736191,0,0,0.721518,94.1041,305.905)">
                            <path d="M445.956,1037.07L395.802,981.431L309.361,981.431C291.666,981.431 277.321,996.068 277.321,1014.12C277.321,1058.73 277.321,1138.22 277.321,1182.83C277.321,1200.88 291.666,1215.52 309.361,1215.52C344.45,1215.52 395.802,1215.52 395.802,1215.52L445.956,1161.49L445.956,1037.07Z" style="fill:none;stroke:black;stroke-width:11.43px;"/>
                        </g>
                        <path d="M465.828,978.694C465.828,971.204 459.748,965.123 452.258,965.123L268.543,965.123C261.053,965.123 254.973,971.204 254.973,978.694L254.973,1219.98C254.973,1227.47 261.053,1233.55 268.543,1233.55L452.258,1233.55C459.748,1233.55 465.828,1227.47 465.828,1219.98L465.828,978.694Z" style="fill:none;stroke:black;stroke-width:8.33px;"/>
                    </g>
                    <g id="Socket4" serif:id="Socket" transform="matrix(1,0,0,1,1090.56,0)">
                        <rect x="356.506" y="1091.25" width="39.296" height="16.841" style="fill:none;stroke:black;stroke-width:8.33px;"/>
                        <g transform="matrix(1,0,0,1,-34.1636,-53.9286)">
                            <rect x="356.506" y="1091.25" width="39.296" height="16.841" style="fill:none;stroke:black;stroke-width:8.33px;"/>
                        </g>
                        <g transform="matrix(1,0,0,1,-34.1636,53.4561)">
                            <rect x="356.506" y="1091.25" width="39.296" height="16.841" style="fill:none;stroke:black;stroke-width:8.33px;"/>
                        </g>
                        <path d="M445.956,1026.37L395.802,981.431L309.735,981.431C301.138,981.431 292.894,984.846 286.815,990.925C280.736,997.004 277.321,1005.25 277.321,1013.85C277.321,1058.5 277.321,1138.45 277.321,1183.1C277.321,1191.7 280.736,1199.94 286.815,1206.02C292.894,1212.1 301.138,1215.52 309.735,1215.52C344.814,1215.52 395.802,1215.52 395.802,1215.52L445.956,1172.74L445.956,1026.37Z" style="fill:none;stroke:black;stroke-width:8.33px;"/>
                        <g transform="matrix(0.736191,0,0,0.721518,94.1041,305.905)">
                            <path d="M445.956,1037.07L395.802,981.431L309.361,981.431C291.666,981.431 277.321,996.068 277.321,1014.12C277.321,1058.73 277.321,1138.22 277.321,1182.83C277.321,1200.88 291.666,1215.52 309.361,1215.52C344.45,1215.52 395.802,1215.52 395.802,1215.52L445.956,1161.49L445.956,1037.07Z" style="fill:none;stroke:black;stroke-width:11.43px;"/>
                        </g>
                        <path d="M465.828,978.694C465.828,971.204 459.748,965.123 452.258,965.123L268.543,965.123C261.053,965.123 254.973,971.204 254.973,978.694L254.973,1219.98C254.973,1227.47 261.053,1233.55 268.543,1233.55L452.258,1233.55C459.748,1233.55 465.828,1227.47 465.828,1219.98L465.828,978.694Z" style="fill:none;stroke:black;stroke-width:8.33px;"/>
                    </g>
                    <g id="Socket5" serif:id="Socket" transform="matrix(1,0,0,1,1363.35,0)">
                        <rect x="356.506" y="1091.25" width="39.296" height="16.841" style="fill:none;stroke:black;stroke-width:8.33px;"/>
                        <g transform="matrix(1,0,0,1,-34.1636,-53.9286)">
                            <rect x="356.506" y="1091.25" width="39.296" height="16.841" style="fill:none;stroke:black;stroke-width:8.33px;"/>
                        </g>
                        <g transform="matrix(1,0,0,1,-34.1636,53.4561)">
                            <rect x="356.506" y="1091.25" width="39.296" height="16.841" style="fill:none;stroke:black;stroke-width:8.33px;"/>
                        </g>
                        <path d="M445.956,1026.37L395.802,981.431L309.735,981.431C301.138,981.431 292.894,984.846 286.815,990.925C280.736,997.004 277.321,1005.25 277.321,1013.85C277.321,1058.5 277.321,1138.45 277.321,1183.1C277.321,1191.7 280.736,1199.94 286.815,1206.02C292.894,1212.1 301.138,1215.52 309.735,1215.52C344.814,1215.52 395.802,1215.52 395.802,1215.52L445.956,1172.74L445.956,1026.37Z" style="fill:none;stroke:black;stroke-width:8.33px;"/>
                        <g transform="matrix(0.736191,0,0,0.721518,94.1041,305.905)">
                            <path d="M445.956,1037.07L395.802,981.431L309.361,981.431C291.666,981.431 277.321,996.068 277.321,1014.12C277.321,1058.73 277.321,1138.22 277.321,1182.83C277.321,1200.88 291.666,1215.52 309.361,1215.52C344.45,1215.52 395.802,1215.52 395.802,1215.52L445.956,1161.49L445.956,1037.07Z" style="fill:none;stroke:black;stroke-width:11.43px;"/>
                        </g>
                        <path d="M465.828,978.694C465.828,971.204 459.748,965.123 452.258,965.123L268.543,965.123C261.053,965.123 254.973,971.204 254.973,978.694L254.973,1219.98C254.973,1227.47 261.053,1233.55 268.543,1233.55L452.258,1233.55C459.748,1233.55 465.828,1227.47 465.828,1219.98L465.828,978.694Z" style="fill:none;stroke:black;stroke-width:8.33px;"/>
                    </g>
                    <g id="Socket6" serif:id="Socket" transform="matrix(1,0,0,1,1635.99,0)">
                        <rect x="356.506" y="1091.25" width="39.296" height="16.841" style="fill:none;stroke:black;stroke-width:8.33px;"/>
                        <g transform="matrix(1,0,0,1,-34.1636,-53.9286)">
                            <rect x="356.506" y="1091.25" width="39.296" height="16.841" style="fill:none;stroke:black;stroke-width:8.33px;"/>
                        </g>
                        <g transform="matrix(1,0,0,1,-34.1636,53.4561)">
                            <rect x="356.506" y="1091.25" width="39.296" height="16.841" style="fill:none;stroke:black;stroke-width:8.33px;"/>
                        </g>
                        <path d="M445.956,1026.37L395.802,981.431L309.735,981.431C301.138,981.431 292.894,984.846 286.815,990.925C280.736,997.004 277.321,1005.25 277.321,1013.85C277.321,1058.5 277.321,1138.45 277.321,1183.1C277.321,1191.7 280.736,1199.94 286.815,1206.02C292.894,1212.1 301.138,1215.52 309.735,1215.52C344.814,1215.52 395.802,1215.52 395.802,1215.52L445.956,1172.74L445.956,1026.37Z" style="fill:none;stroke:black;stroke-width:8.33px;"/>
                        <g transform="matrix(0.736191,0,0,0.721518,94.1041,305.905)">
                            <path d="M445.956,1037.07L395.802,981.431L309.361,981.431C291.666,981.431 277.321,996.068 277.321,1014.12C277.321,1058.73 277.321,1138.22 277.321,1182.83C277.321,1200.88 291.666,1215.52 309.361,1215.52C344.45,1215.52 395.802,1215.52 395.802,1215.52L445.956,1161.49L445.956,1037.07Z" style="fill:none;stroke:black;stroke-width:11.43px;"/>
                        </g>
                        <path d="M465.828,978.694C465.828,971.204 459.748,965.123 452.258,965.123L268.543,965.123C261.053,965.123 254.973,971.204 254.973,978.694L254.973,1219.98C254.973,1227.47 261.053,1233.55 268.543,1233.55L452.258,1233.55C459.748,1233.55 465.828,1227.47 465.828,1219.98L465.828,978.694Z" style="fill:none;stroke:black;stroke-width:8.33px;"/>
                    </g>
                    <g id="Socket7" serif:id="Socket" transform="matrix(1,0,0,1,1908.63,0)">
                        <rect x="356.506" y="1091.25" width="39.296" height="16.841" style="fill:none;stroke:black;stroke-width:8.33px;"/>
                        <g transform="matrix(1,0,0,1,-34.1636,-53.9286)">
                            <rect x="356.506" y="1091.25" width="39.296" height="16.841" style="fill:none;stroke:black;stroke-width:8.33px;"/>
                        </g>
                        <g transform="matrix(1,0,0,1,-34.1636,53.4561)">
                            <rect x="356.506" y="1091.25" width="39.296" height="16.841" style="fill:none;stroke:black;stroke-width:8.33px;"/>
                        </g>
                        <path d="M445.956,1026.37L395.802,981.431L309.735,981.431C301.138,981.431 292.894,984.846 286.815,990.925C280.736,997.004 277.321,1005.25 277.321,1013.85C277.321,1058.5 277.321,1138.45 277.321,1183.1C277.321,1191.7 280.736,1199.94 286.815,1206.02C292.894,1212.1 301.138,1215.52 309.735,1215.52C344.814,1215.52 395.802,1215.52 395.802,1215.52L445.956,1172.74L445.956,1026.37Z" style="fill:none;stroke:black;stroke-width:8.33px;"/>
                        <g transform="matrix(0.736191,0,0,0.721518,94.1041,305.905)">
                            <path d="M445.956,1037.07L395.802,981.431L309.361,981.431C291.666,981.431 277.321,996.068 277.321,1014.12C277.321,1058.73 277.321,1138.22 277.321,1182.83C277.321,1200.88 291.666,1215.52 309.361,1215.52C344.45,1215.52 395.802,1215.52 395.802,1215.52L445.956,1161.49L445.956,1037.07Z" style="fill:none;stroke:black;stroke-width:11.43px;"/>
                        </g>
                        <path d="M465.828,978.694C465.828,971.204 459.748,965.123 452.258,965.123L268.543,965.123C261.053,965.123 254.973,971.204 254.973,978.694L254.973,1219.98C254.973,1227.47 261.053,1233.55 268.543,1233.55L452.258,1233.55C459.748,1233.55 465.828,1227.47 465.828,1219.98L465.828,978.694Z" style="fill:none;stroke:black;stroke-width:8.33px;"/>
                    </g>
                </g>
                <rect x="50.68" y="925.47" width="3412.48" height="338.013" style="fill:none;stroke:black;stroke-width:8.33px;"/>
                <path d="M50.68,925.47L159.147,750.142L3318.01,750.142L3463.16,925.47" style="fill:none;stroke:black;stroke-width:8.33px;"/>
            </g>
        </g>
    </g>
</svg>
