<?xml version="1.0" encoding="UTF-8" standalone="no"?>
<!-- Created with Inkscape (http://www.inkscape.org/) -->

<svg
   xmlns:serif="http://www.serif.com/"
   xmlns:dc="http://purl.org/dc/elements/1.1/"
   xmlns:cc="http://creativecommons.org/ns#"
   xmlns:rdf="http://www.w3.org/1999/02/22-rdf-syntax-ns#"
   xmlns:svg="http://www.w3.org/2000/svg"
   xmlns="http://www.w3.org/2000/svg"
   xmlns:sodipodi="http://sodipodi.sourceforge.net/DTD/sodipodi-0.dtd"
   xmlns:inkscape="http://www.inkscape.org/namespaces/inkscape"
   width="1920"
   height="1080"
   viewBox="0 0 507.99999 285.75001"
   version="1.1"
   id="svg8"
   inkscape:version="0.92.5 (2060ec1f9f, 2020-04-08)"
   sodipodi:docname="power-monitoring-banner.svg">
  <defs
     id="defs2" />
  <sodipodi:namedview
     id="base"
     pagecolor="#ffffff"
     bordercolor="#666666"
     borderopacity="1.0"
     inkscape:pageopacity="0.0"
     inkscape:pageshadow="2"
     inkscape:zoom="0.49497475"
     inkscape:cx="864.63029"
     inkscape:cy="615.90333"
     inkscape:document-units="mm"
     inkscape:current-layer="layer1"
     showgrid="false"
     units="px"
     inkscape:window-width="1880"
     inkscape:window-height="1136"
     inkscape:window-x="40"
     inkscape:window-y="1107"
     inkscape:window-maximized="1" />
  <metadata
     id="metadata5">
    <rdf:RDF>
      <cc:Work
         rdf:about="">
        <dc:format>image/svg+xml</dc:format>
        <dc:type
           rdf:resource="http://purl.org/dc/dcmitype/StillImage" />
        <dc:title></dc:title>
      </cc:Work>
    </rdf:RDF>
  </metadata>
  <g
     inkscape:label="Layer 1"
     inkscape:groupmode="layer"
     id="layer1"
     transform="translate(0,-11.249983)">
    <g
       id="layer1-1-8-8"
       transform="matrix(2.9631265,0,0,2.9631265,-7.0990632,26.248722)"
       style="fill:none">
      <path
         id="path26295-3-0"
         d="m 15.97042,38.371396 v 12.683916 l 9.526326,5.096597 56.506584,-5.470829 0.294804,-0.262276 -0.03759,-12.269343 -0.25723,-0.205457 -11.052971,0.93635 -45.4536,3.169565 z"
         style="opacity:0.6;fill:none;fill-opacity:1;stroke:none;stroke-width:0.26458332px;stroke-linecap:butt;stroke-linejoin:miter;stroke-opacity:1"
         inkscape:connector-curvature="0" />
      <path
         id="path26293-5-3"
         d="M 25.143479,41.833819 15.97042,38.371396 V 8.9105278 l 31.135775,-0.1540674 20.763263,-0.099332 14.300023,0.4352017 0.09319,2.4649959 -0.13406,0.322901 0.159686,0.354913 -0.05946,25.591936 -0.22552,0.11693 -10.650345,0.954009 -26.283752,1.829401 -19.572476,1.322503 z"
         style="fill:none;fill-opacity:1;stroke:none;stroke-width:0.26458332px;stroke-linecap:butt;stroke-linejoin:miter;stroke-opacity:1"
         inkscape:connector-curvature="0" />
      <g
         transform="matrix(0.61547028,0,0,0.61547028,-37.442143,-19.093984)"
         id="g6407-9-3"
         style="display:inline;fill:none">
        <path
           style="fill:none;stroke:#000000;stroke-width:0.26458332px;stroke-linecap:butt;stroke-linejoin:miter;stroke-opacity:1"
           d="M 102.26146,122.25542 86.783335,113.97674 V 94.178651 c -0.03238,-0.545122 0.269737,-0.711537 0.562237,-0.661459 l 14.915888,5.705078 v 23.03529"
           id="path6237-8-6"
           inkscape:connector-curvature="0" />
        <path
           style="fill:none;stroke:#000000;stroke-width:0.26458332px;stroke-linecap:butt;stroke-linejoin:miter;stroke-opacity:1"
           d="M 86.783335,92.508468 V 50.125526 l 2.232419,0.231511 0.115755,43.011327 c 3.88e-4,0.347645 -0.127114,0.368458 -0.264583,0.363802 l -1.727457,-0.626412 c -0.352472,-0.151679 -0.334014,-0.363018 -0.356134,-0.597286 z"
           id="path6239-6-2"
           inkscape:connector-curvature="0" />
        <path
           style="fill:none;stroke:#000000;stroke-width:0.26458332px;stroke-linecap:square;stroke-linejoin:miter;stroke-opacity:1"
           d="m 100.50169,51.442357 1.75977,0.163703 v 46.986703 c -0.0431,0.118431 -0.10967,0.197864 -0.25137,0.152011 l -1.62139,-0.608896 c -0.0963,-0.06628 -0.16842,-0.122613 -0.2191,-0.305924 l 0.24391,-46.145868 c -0.008,-0.139027 0.0188,-0.223938 0.0882,-0.241729 z"
           id="path6279-4-1"
           inkscape:connector-curvature="0" />
        <path
           style="opacity:1;fill:none;fill-opacity:1;stroke:#000000;stroke-width:0.28999999;stroke-linecap:square;stroke-linejoin:miter;stroke-miterlimit:4;stroke-dasharray:none;stroke-opacity:1"
           d="m 136.65729,53.874508 37.17395,-0.608038 v 38.774126 l -37.17395,2.458745 z"
           id="rect6281-5-4"
           inkscape:connector-curvature="0" />
        <rect
           style="opacity:1;fill:none;fill-opacity:1;stroke:#000000;stroke-width:0.30919775;stroke-linecap:square;stroke-linejoin:miter;stroke-miterlimit:4;stroke-dasharray:none;stroke-opacity:1"
           id="rect6284-3-8"
           width="16.838879"
           height="3.3997986"
           x="105.53555"
           y="57.594898"
           transform="matrix(0.99993347,-0.01153488,0,1,0,0)"
           ry="1.6998993" />
        <rect
           style="opacity:1;fill:none;fill-opacity:1;stroke:#000000;stroke-width:0.30924365;stroke-linecap:square;stroke-linejoin:miter;stroke-miterlimit:4;stroke-dasharray:none;stroke-opacity:1"
           id="rect6284-0-0-9"
           width="16.84388"
           height="3.3997989"
           x="105.62188"
           y="67.672455"
           transform="matrix(0.99963662,-0.02695621,0,1,0,0)"
           ry="1.6998994" />
        <rect
           style="opacity:1;fill:none;fill-opacity:1;stroke:#000000;stroke-width:0.3093527;stroke-linecap:square;stroke-linejoin:miter;stroke-miterlimit:4;stroke-dasharray:none;stroke-opacity:1"
           id="rect6284-0-9-3-7"
           width="16.855761"
           height="3.3997989"
           x="105.6715"
           y="78.362427"
           transform="matrix(0.998932,-0.04620455,0,1,0,0)"
           ry="1.6998994" />
        <rect
           style="opacity:1;fill:none;fill-opacity:1;stroke:#000000;stroke-width:0.30935273;stroke-linecap:square;stroke-linejoin:miter;stroke-miterlimit:4;stroke-dasharray:none;stroke-opacity:1"
           id="rect6284-0-9-7-2-9"
           width="16.855761"
           height="3.3997989"
           x="105.66324"
           y="86.902359"
           transform="matrix(0.998932,-0.04620455,0,1,0,0)"
           ry="1.6998994" />
        <rect
           style="opacity:1;fill:none;fill-opacity:1;stroke:#000000;stroke-width:0.30935273;stroke-linecap:square;stroke-linejoin:miter;stroke-miterlimit:4;stroke-dasharray:none;stroke-opacity:1"
           id="rect6284-0-9-7-5-1-2"
           width="16.855761"
           height="3.3997989"
           x="105.72945"
           y="95.405159"
           transform="matrix(0.998932,-0.04620455,0,1,0,0)"
           ry="1.6998994" />
        <path
           style="fill:none;stroke:#000000;stroke-width:0.26458332px;stroke-linecap:butt;stroke-linejoin:miter;stroke-opacity:1"
           d="m 102.26146,51.60606 22.43314,-0.233862 c 0.39736,0.0085 0.71413,0.119997 0.7179,0.631425 v 45.252071 c -0.0126,0.337408 -0.15394,0.580934 -0.62436,0.584652 l -21.93615,1.122532 c -0.45914,0.01348 -0.59053,-0.115187 -0.59053,-0.370118"
           id="path6350-3-9"
           inkscape:connector-curvature="0" />
        <path
           style="fill:none;stroke:#000000;stroke-width:0.26458332px;stroke-linecap:butt;stroke-linejoin:miter;stroke-opacity:1"
           d="m 125.4125,51.878391 c 0,-0.345474 0.34214,-0.594638 0.99219,-0.578776 l 49.67552,-0.578776 c 0.50686,-0.0053 0.68538,0.317826 0.69453,0.810286 l -0.16304,42.099727 c -0.0215,0.286734 -0.13562,0.510308 -0.49842,0.564335 l -50.19642,3.563607 c -0.23608,-0.03088 -0.42217,-0.154603 -0.50436,-0.471289"
           id="path6352-3-2"
           inkscape:connector-curvature="0" />
        <path
           style="fill:none;stroke:#000000;stroke-width:0.26458332px;stroke-linecap:butt;stroke-linejoin:miter;stroke-opacity:1"
           d="m 176.79127,51.299615 c 0.0265,-0.360807 0.20712,-0.618923 0.76068,-0.628386 l 16.51993,-0.347265 c 0.32019,0.0063 0.49534,0.175853 0.46301,0.578776 v 41.026952 c 0.005,0.334887 0.006,0.667701 -0.46301,0.744141 l -16.81759,1.422135 c -0.45951,-0.0017 -0.5204,-0.252574 -0.64259,-0.465116"
           id="path6354-9-7"
           inkscape:connector-curvature="0" />
        <path
           style="fill:none;stroke:#000000;stroke-width:0.26458332px;stroke-linecap:butt;stroke-linejoin:miter;stroke-opacity:1"
           d="m 86.783335,49.927085 15.478125,1.604036 V 46.454429 L 87.229817,45.495314 c -0.279023,-0.01225 -0.42241,0.161079 -0.446482,0.51263 z"
           id="path6356-1-4"
           inkscape:connector-curvature="0" />
        <path
           style="fill:none;stroke:#000000;stroke-width:0.26458332px;stroke-linecap:butt;stroke-linejoin:miter;stroke-opacity:1"
           d="m 102.26146,46.454427 91.41039,-0.788432 c 0.53124,-0.01945 0.71152,0.192411 0.76005,0.491107 l 0.0818,3.437755 c -0.0157,0.436692 -0.21004,0.634043 -0.44182,0.731231"
           id="path6358-6-1"
           inkscape:connector-curvature="0" />
        <path
           style="fill:none;stroke:#000000;stroke-width:0.26458332px;stroke-linecap:butt;stroke-linejoin:miter;stroke-opacity:1"
           d="M 193.79902,45.660683 171.0862,45.131516 87.188475,45.487049"
           id="path6360-9-9"
           inkscape:connector-curvature="0" />
        <path
           style="fill:none;stroke:#000000;stroke-width:0.26458332px;stroke-linecap:butt;stroke-linejoin:miter;stroke-opacity:1"
           d="m 102.26146,122.25542 91.81042,-8.88672 c 0.50828,-0.0828 0.50941,-0.41822 0.47695,-1.22776 l -0.0351,-18.814107 c 0.004,-0.544806 -0.27908,-0.468923 -0.44187,-0.653"
           id="path6362-7-1"
           inkscape:connector-curvature="0" />
        <path
           style="fill:none;stroke:#000000;stroke-width:0.26458332px;stroke-linecap:butt;stroke-linejoin:miter;stroke-opacity:1"
           d="m 124.22187,98.034202 -0.0331,21.999448 -1.38906,-0.48807 0.0992,-21.412159 z"
           id="path6364-5-2"
           inkscape:connector-curvature="0" />
        <path
           style="fill:none;stroke:#000000;stroke-width:0.26458332px;stroke-linecap:butt;stroke-linejoin:miter;stroke-opacity:1"
           d="m 136.17132,97.203093 -0.0468,21.725657 -1.71887,-0.63143 0.12862,-20.912985 z"
           id="path6366-8-6"
           inkscape:connector-curvature="0" />
        <path
           style="fill:none;stroke:#000000;stroke-width:0.26458332px;stroke-linecap:butt;stroke-linejoin:miter;stroke-opacity:1"
           d="m 145.98385,96.520836 v 21.428974 l -1.6123,-0.62012 -0.0248,-20.635221 z"
           id="path6368-2-8"
           inkscape:connector-curvature="0" />
        <path
           style="fill:none;stroke:#000000;stroke-width:0.26458332px;stroke-linecap:butt;stroke-linejoin:miter;stroke-opacity:1"
           d="m 163.05947,95.396529 0.0117,20.930521 -1.73057,-0.56127 0.14032,-20.228934 z"
           id="path6370-8-2"
           inkscape:connector-curvature="0" />
        <path
           style="fill:none;stroke:#000000;stroke-width:0.26458332px;stroke-linecap:butt;stroke-linejoin:miter;stroke-opacity:1"
           d="m 172.18004,94.788462 0.0702,20.661608 -1.74227,-0.64312 0.0117,-19.854785 z"
           id="path6372-8-1"
           inkscape:connector-curvature="0" />
        <path
           style="fill:none;stroke:#000000;stroke-width:0.26458332px;stroke-linecap:butt;stroke-linejoin:miter;stroke-opacity:1"
           d="m 177.34836,94.437672 -0.0585,20.497898 -1.70719,-0.57296 0.0819,-19.796316 z"
           id="path6374-3-8"
           inkscape:connector-curvature="0" />
        <path
           style="fill:none;stroke:#000000;stroke-width:0.26458332px;stroke-linecap:butt;stroke-linejoin:miter;stroke-opacity:1"
           d="m 193.15736,93.057892 0.0234,19.609228 1.22777,0.5145"
           id="path6376-0-2"
           inkscape:connector-curvature="0" />
        <path
           style="fill:none;stroke:#000000;stroke-width:0.26458332px;stroke-linecap:round;stroke-linejoin:miter;stroke-opacity:1"
           d="m 193.18076,112.66712 -15.86331,1.55559 m -1.741,0.17072 -3.31236,0.32482 m -1.75612,0.0887 -7.3882,0.80801 m -1.80118,0.17663 -15.33349,1.50363 m -1.61355,0.0345 -8.22271,0.93009 m -1.59044,0.0975 -10.29068,1.00912 m -1.45895,0.20154 -20.13217,1.9742"
           id="path6378-7-4"
           inkscape:connector-curvature="0" />
        <path
           style="fill:none;stroke:#000000;stroke-width:0.26458332px;stroke-linecap:butt;stroke-linejoin:miter;stroke-opacity:1"
           d="m 102.26146,99.345013 92.13755,-6.260106"
           id="path6380-3-0"
           inkscape:connector-curvature="0" />
      </g>
    </g>
    <g
       style="clip-rule:evenodd;fill-rule:evenodd;stroke-linecap:round;stroke-linejoin:round;stroke-miterlimit:1.5"
       id="g5199"
       transform="matrix(0.05760179,0,0,0.05760179,56.987733,223.55907)">
      <g
         transform="translate(-46.5132,-745.976)"
         id="Artboard1">
        <rect
   id="rect4884"
   style="fill:none"
   height="521.67401"
   width="3420.8101"
   y="745.97601"
   x="46.513" />

        <clipPath
   id="_clip1">
            <rect
   id="rect4886"
   height="521.67401"
   width="3420.8101"
   y="745.97601"
   x="46.513" />

        </clipPath>

        <g
   id="g5081"
   clip-path="url(#_clip1)">
            <g
   transform="translate(0.51318,0.975661)"
   id="Frame">
                <g
   id="DisplayButtons">
                    <rect
   id="rect4889"
   style="fill:none;stroke:#000000;stroke-width:8.32999992px"
   height="97.478996"
   width="236.927"
   y="985.82397"
   x="3011.3201" />

                    <rect
   id="rect4891"
   style="fill:none;stroke:#000000;stroke-width:8.32999992px"
   height="99.695999"
   width="157.261"
   y="1107.87"
   x="3011.3201" />

                    <g
   id="g4895"
   transform="translate(-6.78031,-5.86717)">
                        <circle
   id="circle4893"
   style="fill:none;stroke:#000000;stroke-width:8.32999992px"
   r="37.571999"
   cy="1051.6"
   cx="3322.05" />

                    </g>

                    <g
   id="g4899"
   transform="translate(-6.78031,93.842)">
                        <circle
   id="circle4897"
   style="fill:none;stroke:#000000;stroke-width:8.32999992px"
   r="37.571999"
   cy="1051.6"
   cx="3322.05" />

                    </g>

                </g>

                <g
   transform="translate(356.792,-661.749)"
   id="NetworkPorts">
                    <g
   id="g4904"
   transform="matrix(1.0167,0,0,1.00654,-43.5221,-12.31)">
                        <rect
   id="rect4902"
   style="fill:none;stroke:#000000;stroke-width:8.23999977px"
   height="246.088"
   width="129.425"
   y="1636.2"
   x="2477.1101" />

                    </g>

                    <g
   id="g4912">
                        <g
   id="g4908"
   transform="matrix(1,0,0,0.944049,0,92.04)">
                            <rect
   id="rect4906"
   style="fill:none;stroke:#000000;stroke-width:8.56999969px"
   height="114.243"
   width="111.585"
   y="1645.01"
   x="2484.96" />

                        </g>

                        <path
   id="path4910"
   style="fill:none;stroke:#000000;stroke-width:8.32999992px"
   d="m 2523.69,1668.47 v -10.94 H 2558 v 10.94 h 27.09 v 54.11 h -88.57 v -54.11 z"
   inkscape:connector-curvature="0" />

                    </g>

                    <g
   id="g4920"
   transform="matrix(1,0,0,-1,0,3516.03)">
                        <g
   id="g4916"
   transform="matrix(1,0,0,0.944049,0,92.04)">
                            <rect
   id="rect4914"
   style="fill:none;stroke:#000000;stroke-width:8.56999969px"
   height="114.243"
   width="111.585"
   y="1645.01"
   x="2484.96" />

                        </g>

                        <path
   id="path4918"
   style="fill:none;stroke:#000000;stroke-width:8.32999992px"
   d="m 2523.69,1668.47 v -10.94 H 2558 v 10.94 h 27.09 v 54.11 h -88.57 v -54.11 z"
   inkscape:connector-curvature="0" />

                    </g>

                </g>

                <g
   id="Sockets">
                    <g
   id="Socket">
                        <rect
   id="rect4923"
   style="fill:none;stroke:#000000;stroke-width:8.32999992px"
   height="16.841"
   width="39.296001"
   y="1091.25"
   x="356.50601" />

                        <g
   id="g4927"
   transform="translate(-34.1636,-53.9286)">
                            <rect
   id="rect4925"
   style="fill:none;stroke:#000000;stroke-width:8.32999992px"
   height="16.841"
   width="39.296001"
   y="1091.25"
   x="356.50601" />

                        </g>

                        <g
   id="g4931"
   transform="translate(-34.1636,53.4561)">
                            <rect
   id="rect4929"
   style="fill:none;stroke:#000000;stroke-width:8.32999992px"
   height="16.841"
   width="39.296001"
   y="1091.25"
   x="356.50601" />

                        </g>

                        <path
   id="path4933"
   style="fill:none;stroke:#000000;stroke-width:8.32999992px"
   d="m 445.956,1026.37 -50.154,-44.939 h -86.067 c -8.597,0 -16.841,3.415 -22.92,9.494 -6.079,6.079 -9.494,14.325 -9.494,22.925 0,44.65 0,124.6 0,169.25 0,8.6 3.415,16.84 9.494,22.92 6.079,6.08 14.323,9.5 22.92,9.5 35.079,0 86.067,0 86.067,0 l 50.154,-42.78 z"
   inkscape:connector-curvature="0" />

                        <g
   id="g4937"
   transform="matrix(0.736191,0,0,0.721518,94.1041,305.905)">
                            <path
   id="path4935"
   style="fill:none;stroke:#000000;stroke-width:11.43000031px"
   d="m 445.956,1037.07 -50.154,-55.639 h -86.441 c -17.695,0 -32.04,14.637 -32.04,32.689 0,44.61 0,124.1 0,168.71 0,18.05 14.345,32.69 32.04,32.69 35.089,0 86.441,0 86.441,0 l 50.154,-54.03 z"
   inkscape:connector-curvature="0" />

                        </g>

                        <path
   id="path4939"
   style="fill:none;stroke:#000000;stroke-width:8.32999992px"
   d="m 465.828,978.694 c 0,-7.49 -6.08,-13.571 -13.57,-13.571 H 268.543 c -7.49,0 -13.57,6.081 -13.57,13.571 v 241.286 c 0,7.49 6.08,13.57 13.57,13.57 h 183.715 c 7.49,0 13.57,-6.08 13.57,-13.57 z"
   inkscape:connector-curvature="0" />

                    </g>

                    <g
   transform="translate(272.64)"
   serif:id="Socket"
   id="Socket1">
                        <rect
   id="rect4942"
   style="fill:none;stroke:#000000;stroke-width:8.32999992px"
   height="16.841"
   width="39.296001"
   y="1091.25"
   x="356.50601" />

                        <g
   id="g4946"
   transform="translate(-34.1636,-53.9286)">
                            <rect
   id="rect4944"
   style="fill:none;stroke:#000000;stroke-width:8.32999992px"
   height="16.841"
   width="39.296001"
   y="1091.25"
   x="356.50601" />

                        </g>

                        <g
   id="g4950"
   transform="translate(-34.1636,53.4561)">
                            <rect
   id="rect4948"
   style="fill:none;stroke:#000000;stroke-width:8.32999992px"
   height="16.841"
   width="39.296001"
   y="1091.25"
   x="356.50601" />

                        </g>

                        <path
   id="path4952"
   style="fill:none;stroke:#000000;stroke-width:8.32999992px"
   d="m 445.956,1026.37 -50.154,-44.939 h -86.067 c -8.597,0 -16.841,3.415 -22.92,9.494 -6.079,6.079 -9.494,14.325 -9.494,22.925 0,44.65 0,124.6 0,169.25 0,8.6 3.415,16.84 9.494,22.92 6.079,6.08 14.323,9.5 22.92,9.5 35.079,0 86.067,0 86.067,0 l 50.154,-42.78 z"
   inkscape:connector-curvature="0" />

                        <g
   id="g4956"
   transform="matrix(0.736191,0,0,0.721518,94.1041,305.905)">
                            <path
   id="path4954"
   style="fill:none;stroke:#000000;stroke-width:11.43000031px"
   d="m 445.956,1037.07 -50.154,-55.639 h -86.441 c -17.695,0 -32.04,14.637 -32.04,32.689 0,44.61 0,124.1 0,168.71 0,18.05 14.345,32.69 32.04,32.69 35.089,0 86.441,0 86.441,0 l 50.154,-54.03 z"
   inkscape:connector-curvature="0" />

                        </g>

                        <path
   id="path4958"
   style="fill:none;stroke:#000000;stroke-width:8.32999992px"
   d="m 465.828,978.694 c 0,-7.49 -6.08,-13.571 -13.57,-13.571 H 268.543 c -7.49,0 -13.57,6.081 -13.57,13.571 v 241.286 c 0,7.49 6.08,13.57 13.57,13.57 h 183.715 c 7.49,0 13.57,-6.08 13.57,-13.57 z"
   inkscape:connector-curvature="0" />

                    </g>

                    <g
   transform="translate(545.28)"
   serif:id="Socket"
   id="Socket2">
                        <rect
   id="rect4961"
   style="fill:none;stroke:#000000;stroke-width:8.32999992px"
   height="16.841"
   width="39.296001"
   y="1091.25"
   x="356.50601" />

                        <g
   id="g4965"
   transform="translate(-34.1636,-53.9286)">
                            <rect
   id="rect4963"
   style="fill:none;stroke:#000000;stroke-width:8.32999992px"
   height="16.841"
   width="39.296001"
   y="1091.25"
   x="356.50601" />

                        </g>

                        <g
   id="g4969"
   transform="translate(-34.1636,53.4561)">
                            <rect
   id="rect4967"
   style="fill:none;stroke:#000000;stroke-width:8.32999992px"
   height="16.841"
   width="39.296001"
   y="1091.25"
   x="356.50601" />

                        </g>

                        <path
   id="path4971"
   style="fill:none;stroke:#000000;stroke-width:8.32999992px"
   d="m 445.956,1026.37 -50.154,-44.939 h -86.067 c -8.597,0 -16.841,3.415 -22.92,9.494 -6.079,6.079 -9.494,14.325 -9.494,22.925 0,44.65 0,124.6 0,169.25 0,8.6 3.415,16.84 9.494,22.92 6.079,6.08 14.323,9.5 22.92,9.5 35.079,0 86.067,0 86.067,0 l 50.154,-42.78 z"
   inkscape:connector-curvature="0" />

                        <g
   id="g4975"
   transform="matrix(0.736191,0,0,0.721518,94.1041,305.905)">
                            <path
   id="path4973"
   style="fill:none;stroke:#000000;stroke-width:11.43000031px"
   d="m 445.956,1037.07 -50.154,-55.639 h -86.441 c -17.695,0 -32.04,14.637 -32.04,32.689 0,44.61 0,124.1 0,168.71 0,18.05 14.345,32.69 32.04,32.69 35.089,0 86.441,0 86.441,0 l 50.154,-54.03 z"
   inkscape:connector-curvature="0" />

                        </g>

                        <path
   id="path4977"
   style="fill:none;stroke:#000000;stroke-width:8.32999992px"
   d="m 465.828,978.694 c 0,-7.49 -6.08,-13.571 -13.57,-13.571 H 268.543 c -7.49,0 -13.57,6.081 -13.57,13.571 v 241.286 c 0,7.49 6.08,13.57 13.57,13.57 h 183.715 c 7.49,0 13.57,-6.08 13.57,-13.57 z"
   inkscape:connector-curvature="0" />

                    </g>

                    <g
   transform="translate(817.92)"
   serif:id="Socket"
   id="Socket3">
                        <rect
   id="rect4980"
   style="fill:none;stroke:#000000;stroke-width:8.32999992px"
   height="16.841"
   width="39.296001"
   y="1091.25"
   x="356.50601" />

                        <g
   id="g4984"
   transform="translate(-34.1636,-53.9286)">
                            <rect
   id="rect4982"
   style="fill:none;stroke:#000000;stroke-width:8.32999992px"
   height="16.841"
   width="39.296001"
   y="1091.25"
   x="356.50601" />

                        </g>

                        <g
   id="g4988"
   transform="translate(-34.1636,53.4561)">
                            <rect
   id="rect4986"
   style="fill:none;stroke:#000000;stroke-width:8.32999992px"
   height="16.841"
   width="39.296001"
   y="1091.25"
   x="356.50601" />

                        </g>

                        <path
   id="path4990"
   style="fill:none;stroke:#000000;stroke-width:8.32999992px"
   d="m 445.956,1026.37 -50.154,-44.939 h -86.067 c -8.597,0 -16.841,3.415 -22.92,9.494 -6.079,6.079 -9.494,14.325 -9.494,22.925 0,44.65 0,124.6 0,169.25 0,8.6 3.415,16.84 9.494,22.92 6.079,6.08 14.323,9.5 22.92,9.5 35.079,0 86.067,0 86.067,0 l 50.154,-42.78 z"
   inkscape:connector-curvature="0" />

                        <g
   id="g4994"
   transform="matrix(0.736191,0,0,0.721518,94.1041,305.905)">
                            <path
   id="path4992"
   style="fill:none;stroke:#000000;stroke-width:11.43000031px"
   d="m 445.956,1037.07 -50.154,-55.639 h -86.441 c -17.695,0 -32.04,14.637 -32.04,32.689 0,44.61 0,124.1 0,168.71 0,18.05 14.345,32.69 32.04,32.69 35.089,0 86.441,0 86.441,0 l 50.154,-54.03 z"
   inkscape:connector-curvature="0" />

                        </g>

                        <path
   id="path4996"
   style="fill:none;stroke:#000000;stroke-width:8.32999992px"
   d="m 465.828,978.694 c 0,-7.49 -6.08,-13.571 -13.57,-13.571 H 268.543 c -7.49,0 -13.57,6.081 -13.57,13.571 v 241.286 c 0,7.49 6.08,13.57 13.57,13.57 h 183.715 c 7.49,0 13.57,-6.08 13.57,-13.57 z"
   inkscape:connector-curvature="0" />

                    </g>

                    <g
   transform="translate(1090.56)"
   serif:id="Socket"
   id="Socket4">
                        <rect
   id="rect4999"
   style="fill:none;stroke:#000000;stroke-width:8.32999992px"
   height="16.841"
   width="39.296001"
   y="1091.25"
   x="356.50601" />

                        <g
   id="g5003"
   transform="translate(-34.1636,-53.9286)">
                            <rect
   id="rect5001"
   style="fill:none;stroke:#000000;stroke-width:8.32999992px"
   height="16.841"
   width="39.296001"
   y="1091.25"
   x="356.50601" />

                        </g>

                        <g
   id="g5007"
   transform="translate(-34.1636,53.4561)">
                            <rect
   id="rect5005"
   style="fill:none;stroke:#000000;stroke-width:8.32999992px"
   height="16.841"
   width="39.296001"
   y="1091.25"
   x="356.50601" />

                        </g>

                        <path
   id="path5009"
   style="fill:none;stroke:#000000;stroke-width:8.32999992px"
   d="m 445.956,1026.37 -50.154,-44.939 h -86.067 c -8.597,0 -16.841,3.415 -22.92,9.494 -6.079,6.079 -9.494,14.325 -9.494,22.925 0,44.65 0,124.6 0,169.25 0,8.6 3.415,16.84 9.494,22.92 6.079,6.08 14.323,9.5 22.92,9.5 35.079,0 86.067,0 86.067,0 l 50.154,-42.78 z"
   inkscape:connector-curvature="0" />

                        <g
   id="g5013"
   transform="matrix(0.736191,0,0,0.721518,94.1041,305.905)">
                            <path
   id="path5011"
   style="fill:none;stroke:#000000;stroke-width:11.43000031px"
   d="m 445.956,1037.07 -50.154,-55.639 h -86.441 c -17.695,0 -32.04,14.637 -32.04,32.689 0,44.61 0,124.1 0,168.71 0,18.05 14.345,32.69 32.04,32.69 35.089,0 86.441,0 86.441,0 l 50.154,-54.03 z"
   inkscape:connector-curvature="0" />

                        </g>

                        <path
   id="path5015"
   style="fill:none;stroke:#000000;stroke-width:8.32999992px"
   d="m 465.828,978.694 c 0,-7.49 -6.08,-13.571 -13.57,-13.571 H 268.543 c -7.49,0 -13.57,6.081 -13.57,13.571 v 241.286 c 0,7.49 6.08,13.57 13.57,13.57 h 183.715 c 7.49,0 13.57,-6.08 13.57,-13.57 z"
   inkscape:connector-curvature="0" />

                    </g>

                    <g
   transform="translate(1363.35)"
   serif:id="Socket"
   id="Socket5">
                        <rect
   id="rect5018"
   style="fill:none;stroke:#000000;stroke-width:8.32999992px"
   height="16.841"
   width="39.296001"
   y="1091.25"
   x="356.50601" />

                        <g
   id="g5022"
   transform="translate(-34.1636,-53.9286)">
                            <rect
   id="rect5020"
   style="fill:none;stroke:#000000;stroke-width:8.32999992px"
   height="16.841"
   width="39.296001"
   y="1091.25"
   x="356.50601" />

                        </g>

                        <g
   id="g5026"
   transform="translate(-34.1636,53.4561)">
                            <rect
   id="rect5024"
   style="fill:none;stroke:#000000;stroke-width:8.32999992px"
   height="16.841"
   width="39.296001"
   y="1091.25"
   x="356.50601" />

                        </g>

                        <path
   id="path5028"
   style="fill:none;stroke:#000000;stroke-width:8.32999992px"
   d="m 445.956,1026.37 -50.154,-44.939 h -86.067 c -8.597,0 -16.841,3.415 -22.92,9.494 -6.079,6.079 -9.494,14.325 -9.494,22.925 0,44.65 0,124.6 0,169.25 0,8.6 3.415,16.84 9.494,22.92 6.079,6.08 14.323,9.5 22.92,9.5 35.079,0 86.067,0 86.067,0 l 50.154,-42.78 z"
   inkscape:connector-curvature="0" />

                        <g
   id="g5032"
   transform="matrix(0.736191,0,0,0.721518,94.1041,305.905)">
                            <path
   id="path5030"
   style="fill:none;stroke:#000000;stroke-width:11.43000031px"
   d="m 445.956,1037.07 -50.154,-55.639 h -86.441 c -17.695,0 -32.04,14.637 -32.04,32.689 0,44.61 0,124.1 0,168.71 0,18.05 14.345,32.69 32.04,32.69 35.089,0 86.441,0 86.441,0 l 50.154,-54.03 z"
   inkscape:connector-curvature="0" />

                        </g>

                        <path
   id="path5034"
   style="fill:none;stroke:#000000;stroke-width:8.32999992px"
   d="m 465.828,978.694 c 0,-7.49 -6.08,-13.571 -13.57,-13.571 H 268.543 c -7.49,0 -13.57,6.081 -13.57,13.571 v 241.286 c 0,7.49 6.08,13.57 13.57,13.57 h 183.715 c 7.49,0 13.57,-6.08 13.57,-13.57 z"
   inkscape:connector-curvature="0" />

                    </g>

                    <g
   transform="translate(1635.99)"
   serif:id="Socket"
   id="Socket6">
                        <rect
   id="rect5037"
   style="fill:none;stroke:#000000;stroke-width:8.32999992px"
   height="16.841"
   width="39.296001"
   y="1091.25"
   x="356.50601" />

                        <g
   id="g5041"
   transform="translate(-34.1636,-53.9286)">
                            <rect
   id="rect5039"
   style="fill:none;stroke:#000000;stroke-width:8.32999992px"
   height="16.841"
   width="39.296001"
   y="1091.25"
   x="356.50601" />

                        </g>

                        <g
   id="g5045"
   transform="translate(-34.1636,53.4561)">
                            <rect
   id="rect5043"
   style="fill:none;stroke:#000000;stroke-width:8.32999992px"
   height="16.841"
   width="39.296001"
   y="1091.25"
   x="356.50601" />

                        </g>

                        <path
   id="path5047"
   style="fill:none;stroke:#000000;stroke-width:8.32999992px"
   d="m 445.956,1026.37 -50.154,-44.939 h -86.067 c -8.597,0 -16.841,3.415 -22.92,9.494 -6.079,6.079 -9.494,14.325 -9.494,22.925 0,44.65 0,124.6 0,169.25 0,8.6 3.415,16.84 9.494,22.92 6.079,6.08 14.323,9.5 22.92,9.5 35.079,0 86.067,0 86.067,0 l 50.154,-42.78 z"
   inkscape:connector-curvature="0" />

                        <g
   id="g5051"
   transform="matrix(0.736191,0,0,0.721518,94.1041,305.905)">
                            <path
   id="path5049"
   style="fill:none;stroke:#000000;stroke-width:11.43000031px"
   d="m 445.956,1037.07 -50.154,-55.639 h -86.441 c -17.695,0 -32.04,14.637 -32.04,32.689 0,44.61 0,124.1 0,168.71 0,18.05 14.345,32.69 32.04,32.69 35.089,0 86.441,0 86.441,0 l 50.154,-54.03 z"
   inkscape:connector-curvature="0" />

                        </g>

                        <path
   id="path5053"
   style="fill:none;stroke:#000000;stroke-width:8.32999992px"
   d="m 465.828,978.694 c 0,-7.49 -6.08,-13.571 -13.57,-13.571 H 268.543 c -7.49,0 -13.57,6.081 -13.57,13.571 v 241.286 c 0,7.49 6.08,13.57 13.57,13.57 h 183.715 c 7.49,0 13.57,-6.08 13.57,-13.57 z"
   inkscape:connector-curvature="0" />

                    </g>

                    <g
   transform="translate(1908.63)"
   serif:id="Socket"
   id="Socket7">
                        <rect
   id="rect5056"
   style="fill:none;stroke:#000000;stroke-width:8.32999992px"
   height="16.841"
   width="39.296001"
   y="1091.25"
   x="356.50601" />

                        <g
   id="g5060"
   transform="translate(-34.1636,-53.9286)">
                            <rect
   id="rect5058"
   style="fill:none;stroke:#000000;stroke-width:8.32999992px"
   height="16.841"
   width="39.296001"
   y="1091.25"
   x="356.50601" />

                        </g>

                        <g
   id="g5064"
   transform="translate(-34.1636,53.4561)">
                            <rect
   id="rect5062"
   style="fill:none;stroke:#000000;stroke-width:8.32999992px"
   height="16.841"
   width="39.296001"
   y="1091.25"
   x="356.50601" />

                        </g>

                        <path
   id="path5066"
   style="fill:none;stroke:#000000;stroke-width:8.32999992px"
   d="m 445.956,1026.37 -50.154,-44.939 h -86.067 c -8.597,0 -16.841,3.415 -22.92,9.494 -6.079,6.079 -9.494,14.325 -9.494,22.925 0,44.65 0,124.6 0,169.25 0,8.6 3.415,16.84 9.494,22.92 6.079,6.08 14.323,9.5 22.92,9.5 35.079,0 86.067,0 86.067,0 l 50.154,-42.78 z"
   inkscape:connector-curvature="0" />

                        <g
   id="g5070"
   transform="matrix(0.736191,0,0,0.721518,94.1041,305.905)">
                            <path
   id="path5068"
   style="fill:none;stroke:#000000;stroke-width:11.43000031px"
   d="m 445.956,1037.07 -50.154,-55.639 h -86.441 c -17.695,0 -32.04,14.637 -32.04,32.689 0,44.61 0,124.1 0,168.71 0,18.05 14.345,32.69 32.04,32.69 35.089,0 86.441,0 86.441,0 l 50.154,-54.03 z"
   inkscape:connector-curvature="0" />

                        </g>

                        <path
   id="path5072"
   style="fill:none;stroke:#000000;stroke-width:8.32999992px"
   d="m 465.828,978.694 c 0,-7.49 -6.08,-13.571 -13.57,-13.571 H 268.543 c -7.49,0 -13.57,6.081 -13.57,13.571 v 241.286 c 0,7.49 6.08,13.57 13.57,13.57 h 183.715 c 7.49,0 13.57,-6.08 13.57,-13.57 z"
   inkscape:connector-curvature="0" />

                    </g>

                </g>

                <rect
   id="rect5076"
   style="fill:none;stroke:#000000;stroke-width:8.32999992px"
   height="338.013"
   width="3412.48"
   y="925.46997"
   x="50.68" />

                <path
   id="path5078"
   style="fill:none;stroke:#000000;stroke-width:8.32999992px"
   d="M 50.68,925.47 159.147,750.142 H 3318.01 l 145.15,175.328"
   inkscape:connector-curvature="0" />

            </g>

        </g>

    </g>
    </g>
    <g
       transform="matrix(-4.8823601,0,0,4.8823601,618.46955,-292.9815)"
       id="g27953"
       style="fill:none">
      <g
         transform="translate(27.372586,55.377524)"
         id="g27561-0-6"
         style="fill:none">
        <path
           inkscape:connector-curvature="0"
           id="path26960-2-3-6"
           d="m 6.4917143,15.144229 5.9387877,-6.5306043 3.722519,0.890946 0.245325,-0.21488 9.952306,2.3479363 0.03542,0.218424 1.977628,0.466366 0.106265,0.159392 2.154729,0.59624 0.42105,-0.208407 6.993584,1.849544 0.0118,0.177102 1.570302,0.430946 -0.123976,36.394277 -0.239083,0.02363 -26.060431,8.028586 -0.425043,0.212518 -0.04575,0.01476 -6.0701437,-9.011494 z"
           style="opacity:1;fill:none;fill-opacity:1;stroke:#000000;stroke-width:0.26458332px;stroke-linecap:butt;stroke-linejoin:miter;stroke-opacity:1" />
        <path
           inkscape:connector-curvature="0"
           id="path26960-2-3"
           d="m 6.4917142,15.144243 5.9387878,-6.5306044 3.722519,0.8909465 0.245325,-0.2148797 9.952306,2.3479356 0.03542,0.218424 1.977628,0.466366 0.106265,0.159392 2.154729,0.59624 0.42105,-0.208407 6.993583,1.849544 0.0118,0.177102 1.570302,0.430946 -0.123976,36.394278 -0.239083,0.02363 -26.060431,8.028583 -0.425043,0.212521 -0.04575,0.01476 -6.0701419,-9.011494 z"
           style="opacity:1;fill:none;fill-opacity:0.39215686;stroke:#000000;stroke-width:0.26458332px;stroke-linecap:butt;stroke-linejoin:miter;stroke-opacity:1" />
        <g
           transform="matrix(0.47611125,0,0,0.47611125,-50.322327,-7.1271481)"
           id="g5237-8-0"
           style="display:inline;fill:none">
          <path
             inkscape:connector-curvature="0"
             style="fill:none;stroke:#000000;stroke-width:0.26458332px;stroke-linecap:butt;stroke-linejoin:miter;stroke-opacity:1"
             d="m 133.41476,140.51521 -0.89274,0.44637 -0.59516,-107.922126 0.94234,0.198385 z"
             id="path5157-4-7" />
          <path
             inkscape:connector-curvature="0"
             style="fill:none;stroke:#000000;stroke-width:0.26499999;stroke-linecap:square;stroke-linejoin:miter;stroke-miterlimit:4;stroke-dasharray:none;stroke-opacity:1"
             d="m 131.80287,33.061152 -12.47353,13.716551 0.34717,75.287587 12.74942,18.92729"
             id="path5159-5-7" />
          <path
             inkscape:connector-curvature="0"
             style="fill:none;stroke:#000000;stroke-width:0.26458332px;stroke-linecap:square;stroke-linejoin:miter;stroke-opacity:1"
             d="m 132.97459,33.374232 6.64687,1.558219"
             id="path5161-1-0" />
          <path
             inkscape:connector-curvature="0"
             style="fill:none;stroke:#000000;stroke-width:0.26458332px;stroke-linecap:square;stroke-linejoin:miter;stroke-opacity:1"
             d="m 133.50155,135.65475 6.72034,-1.82268"
             id="path5163-3-0" />
          <path
             inkscape:connector-curvature="0"
             style="fill:none;stroke:#000000;stroke-width:0.26458332px;stroke-linecap:butt;stroke-linejoin:miter;stroke-opacity:1"
             d="m 133.41476,140.51521 54.73601,-16.86283"
             id="path5165-2-6" />
          <path
             inkscape:connector-curvature="0"
             style="fill:none;stroke:#000000;stroke-width:0.26458332px;stroke-linecap:butt;stroke-linejoin:miter;stroke-opacity:1"
             d="m 139.42214,35.172107 0.61376,-0.533164 0.39058,99.224127 -0.45257,-0.10539 z"
             id="path5167-3-7" />
          <path
             inkscape:connector-curvature="0"
             style="fill:none;stroke:#000000;stroke-width:0.26458332px;stroke-linecap:butt;stroke-linejoin:miter;stroke-opacity:1"
             d="m 140.13673,34.481128 20.90332,4.931485 v 89.224217 l -20.51384,5.2635"
             id="path5171-6-7" />
          <path
             inkscape:connector-curvature="0"
             style="fill:none;stroke:#000000;stroke-width:0.26458332px;stroke-linecap:butt;stroke-linejoin:miter;stroke-opacity:1"
             d="m 170.01703,42.438002 0.66955,-0.371972 -0.0248,83.59501 -0.74395,-0.39677 z"
             id="path5173-3-9" />
          <path
             inkscape:connector-curvature="0"
             style="fill:none;stroke:#000000;stroke-width:0.26458332px;stroke-linecap:square;stroke-linejoin:miter;stroke-opacity:1"
             d="m 170.90138,42.000274 14.68897,3.88469 -0.0992,75.709156 -14.60619,4.11032"
             id="path5175-5-2" />
          <path
             inkscape:connector-curvature="0"
             style="fill:none;stroke:#000000;stroke-width:0.26458332px;stroke-linecap:butt;stroke-linejoin:miter;stroke-opacity:1"
             d="m 188.21896,123.73917 0.43397,-0.13639 0.26039,-76.440704 -0.34718,-0.09919 z"
             id="path5177-5-2" />
          <path
             inkscape:connector-curvature="0"
             style="fill:none;stroke:#000000;stroke-width:0.26458332px;stroke-linecap:butt;stroke-linejoin:miter;stroke-opacity:1"
             d="m 185.54075,120.91217 2.64102,-0.74395"
             id="path5179-7-4" />
          <path
             inkscape:connector-curvature="0"
             style="fill:none;stroke:#000000;stroke-width:0.26458332px;stroke-linecap:butt;stroke-linejoin:miter;stroke-opacity:1"
             d="m 161.04005,127.94248 4.43889,-1.23991 -0.21079,-85.851658 -4.15371,-0.979532"
             id="path5181-7-9" />
          <path
             inkscape:connector-curvature="0"
             style="fill:none;stroke:#000000;stroke-width:0.26458332px;stroke-linecap:square;stroke-linejoin:miter;stroke-opacity:1"
             d="m 170.01703,42.438002 -4.52569,-1.252313 0.21473,85.540431 4.4539,-1.26252"
             id="path5183-3-7" />
          <path
             inkscape:connector-curvature="0"
             style="fill:none;stroke:#000000;stroke-width:0.26458332px;stroke-linecap:butt;stroke-linejoin:miter;stroke-opacity:1"
             d="m 185.61514,46.25694 2.951,0.805944"
             id="path5185-5-9" />
          <path
             inkscape:connector-curvature="0"
             transform="matrix(0.98889742,0.14859977,0,1,0,0)"
             style="opacity:1;fill:none;fill-opacity:1;stroke:#000000;stroke-width:0.26648343;stroke-linecap:square;stroke-linejoin:miter;stroke-miterlimit:4;stroke-dasharray:none;stroke-opacity:1"
             d="m 147.03642,27.381575 h 11.1357 c 0.65944,0 1.19032,0.530881 1.19032,1.190317 v 7.137378 c 0,0.659435 -0.52632,1.152491 -1.19032,1.190317 l -11.1357,0.634377 c -0.664,0.03783 -1.19032,-0.530882 -1.19032,-1.190317 v -7.771755 c 0,-0.659436 0.53088,-1.190317 1.19032,-1.190317 z"
             id="rect5187-1-4" />
          <path
             inkscape:connector-curvature="0"
             style="fill:none;stroke:#000000;stroke-width:0.26458332px;stroke-linecap:butt;stroke-linejoin:miter;stroke-opacity:1"
             d="m 157.02623,51.150128 -0.0701,9.170823"
             id="path5190-5-4" />
          <path
             inkscape:connector-curvature="0"
             style="fill:none;stroke:#000000;stroke-width:0.26458332px;stroke-linecap:butt;stroke-linejoin:miter;stroke-opacity:1"
             d="m 145.62846,50.764357 -0.0701,6.891269 10.78404,1.209916 0.0175,-6.452891 z"
             id="path5192-9-8" />
          <path
             inkscape:connector-curvature="0"
             style="fill:none;stroke:#000000;stroke-width:0.26458332px;stroke-linecap:butt;stroke-linejoin:miter;stroke-opacity:1"
             d="m 163.04074,80.153072 v 7.434856 l 1.43788,-0.08768 0.0351,-7.31211 z"
             id="path5194-4-7" />
          <path
             inkscape:connector-curvature="0"
             style="fill:none;stroke:#000000;stroke-width:0.26458332px;stroke-linecap:butt;stroke-linejoin:miter;stroke-opacity:1"
             d="m 163.56679,81.275316 -0.0351,5.1553 c -0.003,0.463876 0.87674,0.419736 0.87674,-0.03507 l 0.0526,-5.102696 c 0,-0.424087 -0.89424,-0.516223 -0.89424,-0.01753 z"
             id="path5196-3-2" />
          <path
             inkscape:connector-curvature="0"
             style="fill:none;stroke:#000000;stroke-width:0.26857403px;stroke-linecap:butt;stroke-linejoin:miter;stroke-opacity:1"
             d="m 166.79468,80.415567 v 7.010247 l 1.57132,-0.08267 0.0384,-6.894512 z"
             id="path5194-3-1-1" />
          <path
             inkscape:connector-curvature="0"
             style="fill:none;stroke:#000000;stroke-width:0.26857403px;stroke-linecap:butt;stroke-linejoin:miter;stroke-opacity:1"
             d="m 167.36955,81.473719 -0.0384,4.860878 c -0.003,0.437384 0.95811,0.395765 0.95811,-0.03307 l 0.0575,-4.811279 c 0,-0.399867 -0.97723,-0.486741 -0.97723,-0.01653 z"
             id="path5196-6-7-2" />
        </g>
        <path
           inkscape:connector-curvature="0"
           id="path26962-8-1"
           d="m 16.058122,9.6186875 0.262704,46.9377005 0.262956,0.06792 9.76687,-2.506012 0.03542,-42.262228 -0.03542,-0.218423 -9.952306,-2.3479356 z"
           style="fill:none;fill-opacity:0.39215686;stroke:#000000;stroke-width:0.26458332px;stroke-linecap:butt;stroke-linejoin:miter;stroke-opacity:1" />
        <path
           inkscape:connector-curvature="0"
           id="path26964-4-5"
           d="m 30.624692,13.078062 0.42105,-0.208407 6.993583,1.849545 -0.04723,36.04598 -6.954171,1.95697 -0.46046,-0.209572 z"
           style="fill:none;fill-opacity:0.39215686;stroke:#000000;stroke-width:0.26458332px;stroke-linecap:butt;stroke-linejoin:miter;stroke-opacity:1" />
      </g>
    </g>
  </g>
</svg>
