<?xml version="1.0" encoding="UTF-8" standalone="no"?>
<svg
   xmlns:dc="http://purl.org/dc/elements/1.1/"
   xmlns:cc="http://creativecommons.org/ns#"
   xmlns:rdf="http://www.w3.org/1999/02/22-rdf-syntax-ns#"
   xmlns:svg="http://www.w3.org/2000/svg"
   xmlns="http://www.w3.org/2000/svg"
   id="svg1284"
   version="1.1"
   viewBox="0 0 57.992699 73.225288"
   height="73.225288mm"
   width="57.992699mm">
  <defs
     id="defs1278" />
  <metadata
     id="metadata1281">
    <rdf:RDF>
      <cc:Work
         rdf:about="">
        <dc:format>image/svg+xml</dc:format>
        <dc:type
           rdf:resource="http://purl.org/dc/dcmitype/StillImage" />
        <dc:title></dc:title>
      </cc:Work>
    </rdf:RDF>
  </metadata>
  <g
     transform="translate(-2.7536504,-7.8992604)"
     id="layer1">
    <g
       transform="translate(227.54167,-179.91667)"
       id="g1851">
      <rect
         x="-196.82208"
         y="222.28902"
         width="10.397067"
         height="4.4558477"
         style="clip-rule:evenodd;fill:none;fill-rule:evenodd;stroke:#000000;stroke-width:2.20397925px;stroke-linecap:round;stroke-linejoin:round;stroke-miterlimit:1.5"
         id="rect1095" />
      <rect
         x="-205.86121"
         y="208.02042"
         width="10.397067"
         height="4.4558477"
         style="clip-rule:evenodd;fill:none;fill-rule:evenodd;stroke:#000000;stroke-width:2.20397925px;stroke-linecap:round;stroke-linejoin:round;stroke-miterlimit:1.5"
         id="rect1097" />
      <rect
         x="-205.86121"
         y="236.43262"
         width="10.397067"
         height="4.4558477"
         style="clip-rule:evenodd;fill:none;fill-rule:evenodd;stroke:#000000;stroke-width:2.20397925px;stroke-linecap:round;stroke-linejoin:round;stroke-miterlimit:1.5"
         id="rect1101" />
      <path
         d="m -173.15511,205.12285 -13.26991,-11.89011 h -22.77189 c -2.27463,0 -4.45585,0.90355 -6.06425,2.51196 -1.60841,1.6084 -2.51196,3.79015 -2.51196,6.06557 0,11.81364 0,32.96708 0,44.78073 0,2.27541 0.90355,4.45558 2.51196,6.06425 1.6084,1.60866 3.78962,2.51354 6.06425,2.51354 9.28132,0 22.77189,0 22.77189,0 l 13.26991,-11.31888 z"
         style="clip-rule:evenodd;fill:none;fill-rule:evenodd;stroke:#000000;stroke-width:2.20397925px;stroke-linecap:round;stroke-linejoin:round;stroke-miterlimit:1.5"
         id="path1105" />
      <path
         d="m -179.38422,212.47818 -9.76919,-10.62157 h -16.83731 c -3.4467,0 -6.24088,2.79422 -6.24088,6.24038 0,8.51612 0,23.69089 0,32.20702 0,3.44577 2.79418,6.24057 6.24088,6.24057 6.83477,0 16.83731,0 16.83731,0 l 9.76919,-10.31442 z"
         style="clip-rule:evenodd;fill:none;fill-rule:evenodd;stroke:#000000;stroke-width:2.20408106px;stroke-linecap:round;stroke-linejoin:round;stroke-miterlimit:1.5"
         id="path1107" />
      <path
         d="m -167.89731,192.50858 c 0,-1.98173 -1.60866,-3.59066 -3.59039,-3.59066 h -48.60793 c -1.98173,0 -3.5904,1.60893 -3.5904,3.59066 v 63.84025 c 0,1.98173 1.60867,3.5904 3.5904,3.5904 h 48.60793 c 1.98173,0 3.59039,-1.60867 3.59039,-3.5904 z"
         style="clip-rule:evenodd;fill:none;fill-rule:evenodd;stroke:#000000;stroke-width:2.20397925px;stroke-linecap:round;stroke-linejoin:round;stroke-miterlimit:1.5"
         id="path1111" />
    </g>
  </g>
</svg>
