<?xml version="1.0" encoding="UTF-8" standalone="no"?>
<!-- Created with Inkscape (http://www.inkscape.org/) -->

<svg
   xmlns:dc="http://purl.org/dc/elements/1.1/"
   xmlns:cc="http://creativecommons.org/ns#"
   xmlns:rdf="http://www.w3.org/1999/02/22-rdf-syntax-ns#"
   xmlns:svg="http://www.w3.org/2000/svg"
   xmlns="http://www.w3.org/2000/svg"
   xmlns:sodipodi="http://sodipodi.sourceforge.net/DTD/sodipodi-0.dtd"
   xmlns:inkscape="http://www.inkscape.org/namespaces/inkscape"
   width="171.10149mm"
   height="103.58291mm"
   viewBox="0 0 171.10149 103.58291"
   version="1.1"
   id="svg8"
   inkscape:version="0.92.5 (0.92.5+69)"
   sodipodi:docname="server-room-monitoring-manuf.svg">
  <defs
     id="defs2" />
  <sodipodi:namedview
     id="base"
     pagecolor="#ffffff"
     bordercolor="#666666"
     borderopacity="1.0"
     inkscape:pageopacity="0.0"
     inkscape:pageshadow="2"
     inkscape:zoom="0.24748737"
     inkscape:cx="256.39674"
     inkscape:cy="-65.585651"
     inkscape:document-units="mm"
     inkscape:current-layer="layer1"
     showgrid="false"
     showguides="false"
     inkscape:guide-bbox="true"
     inkscape:window-width="859"
     inkscape:window-height="701"
     inkscape:window-x="38"
     inkscape:window-y="27"
     inkscape:window-maximized="0">
    <sodipodi:guide
       position="-18.154177,67.757074"
       orientation="1,0"
       id="guide1047"
       inkscape:locked="false" />
    <sodipodi:guide
       position="-1.5232255,106.31065"
       orientation="0,1"
       id="guide1049"
       inkscape:locked="false" />
    <sodipodi:guide
       position="47.235704,68.513024"
       orientation="1,0"
       id="guide1051"
       inkscape:locked="false" />
  </sodipodi:namedview>
  <metadata
     id="metadata5">
    <rdf:RDF>
      <cc:Work
         rdf:about="">
        <dc:format>image/svg+xml</dc:format>
        <dc:type
           rdf:resource="http://purl.org/dc/dcmitype/StillImage" />
        <dc:title></dc:title>
      </cc:Work>
    </rdf:RDF>
  </metadata>
  <g
     inkscape:label="Layer 1"
     inkscape:groupmode="layer"
     id="layer1"
     transform="translate(-28.73751,-15.489643)">
    <g
       style="clip-rule:evenodd;fill-rule:evenodd;stroke-linejoin:round;stroke-miterlimit:1.41420996"
       id="g954"
       transform="matrix(0.19770069,0,0,0.19770069,29.240137,14.017021)">
      <path
         id="path943"
         style="fill:#757575"
         d="M 126.026,87.371 H 69.21 L 60.391,68.393 90.34,67.497 75.744,30.773 52.131,85.867 H 24.807 L 60.391,9.261 H 90.34 Z m 74.848,-56.393 c 6.677,-13.493 21.571,-21.236 36.108,-23.086 18.332,-2.332 36.096,5.297 36.096,5.297 v 22.592 c 0,0 -13.142,-7.332 -26.312,-7.696 -11.94,-0.329 -24.027,7.21 -24.002,18.876 0.029,13.327 14.857,19.071 24.002,19.77 12.248,0.935 26.312,-5.536 26.312,-5.536 v 19.622 c 0,0 -17.323,8.152 -35.41,5.726 -19.754,-2.65 -40.419,-16.778 -40.419,-39.582 0,-0.245 0.002,-0.488 0.007,-0.731 -3.916,6.907 -10.839,12.157 -20.091,12.835 h -22.23 V 85.472 H 126.026 V 40.05 h 44.005 c 5.154,1.378 5.85,-11.669 0.548,-13.153 -0.195,-0.055 -0.357,-0.205 -0.548,-0.304 H 126.026 L 119.181,9.261 175.357,7.782 c 17.083,1.25 24.909,11.91 25.517,23.196 z"
         inkscape:connector-curvature="0" />
    </g>
    <g
       style="clip-rule:evenodd;fill-rule:evenodd;stroke-linejoin:round;stroke-miterlimit:1.41420996"
       id="g967"
       transform="matrix(0.20688661,0,0,0.20688661,137.98473,13.448305)">
      <path
         id="path956"
         style="fill:#707070"
         d="M 117.25,89.899 H 79.641 l 6.178,-21.063 h 25.254 z m -67.523,0 H 4.082 V 10.101 H 73.94 l -6.956,22.925 h -35.41 v 6.471 H 65.02 L 58.488,61.026 H 31.574 v 6.471 h 24.95 z M 272.549,10.101 h 23.369 V 89.899 H 258.144 L 243.256,40.476 V 89.899 H 219.942 V 10.101 l 37.428,0.448 15.179,50.166 z M 171.077,89.899 h -36.52 V 33.211 h -22.778 v -23.11 h 71.978 l -0.09,0.568 c -17.067,3.322 -30.1,20.8 -30.1,41.833 0,15.512 7.088,29.09 17.655,36.482 z m 25.578,-53.114 c 8.467,0 15.341,7.344 15.341,16.39 0,9.047 -6.874,16.391 -15.341,16.391 -8.467,0 -15.341,-7.344 -15.341,-16.391 0,-9.046 6.874,-16.39 15.341,-16.39 z m -90.794,14.28 h -14.83 l 7.415,-25.283 z"
         inkscape:connector-curvature="0" />
    </g>
    <g
       style="clip-rule:evenodd;fill-rule:evenodd;stroke-linejoin:round;stroke-miterlimit:1.41420996"
       id="g980"
       transform="matrix(0.2053516,0,0,0.2053516,28.861419,41.773221)">
      <path
         id="path969"
         style="fill:#707070"
         d="m 202.923,70.053 c 12.729,0 14.947,8.914 14.947,13.306 0,4.391 -1.704,13.044 -14.947,13.044 -13.243,0 -14.903,-8.653 -14.903,-13.044 0,-4.392 1.535,-13.306 14.903,-13.306 z m -20.492,5.675 2.954,-3.453 c 0,0 -9.13,-3.781 -17.115,-1.479 -9.817,2.831 -6.314,10.84 -3.104,12.562 2.493,1.337 7.72,2.344 9.855,3.014 3.63,1.138 3.567,4.881 0,6.101 -2.072,0.709 -11.417,-1.479 -11.305,-1.683 l -2.568,3.598 c 2.03,1.12 16.141,3.912 21.283,0 4.479,-3.407 3.776,-8.81 0,-11.568 -2.534,-1.851 -9.035,-2.908 -10.838,-3.831 -3.558,-1.822 -1.553,-4.921 2.469,-4.984 1.886,-0.03 8.369,1.723 8.369,1.723 z m -54.019,-4.932 -1.358,3.982 h -12.678 v 6.005 h 11.222 v 3.834 h -11.222 v 7.324 h 14.036 v 3.98 h -22 V 70.796 Z m -65.408,0 -1.358,3.982 H 48.968 v 6.005 H 60.19 v 3.834 H 48.968 v 7.324 h 14.036 v 3.98 h -22 V 70.796 Z m 165.409,25.125 h -6.742 V 70.796 h 7.294 l 13.704,16.145 V 70.796 h 6.802 v 25.125 h -6.109 L 228.413,78.81 Z m -87.598,0 h -8.182 V 70.796 h 13.408 c 13.654,-0.149 14.81,10.985 4.678,13.684 l 10.429,11.441 h -8.949 l -8.584,-10.486 h -2.8 z m -66.494,0 H 67.272 V 70.796 h 7.049 l 10.227,15.587 9.644,-15.587 h 7.021 V 95.921 H 94.192 V 79.45 L 84.548,95.279 74.321,79.45 Z M 202.923,74.009 c 5.537,0 6.468,6.239 6.468,9.35 0,3.11 -0.862,9.314 -6.468,9.314 -5.605,0 -6.398,-6.204 -6.398,-9.314 0,-3.111 0.861,-9.35 6.398,-9.35 z m -59.333,0.644 h -2.775 v 6.851 h 3.841 c 6.951,-0.297 6.379,-6.88 -1.066,-6.851 z m 2.073,-69.545 -3.342,5.437 c 4.277,5.993 8.944,11.551 13.66,17.056 l -4.833,-2.085 c -3.578,-4.089 -6.931,-8.342 -10.104,-12.728 l -3.127,5.304 c 0.453,1.111 1.144,2.015 1.949,2.82 -1.026,-0.458 -2.06,-0.784 -3.11,-0.85 l -3.418,5.454 c 0.493,1.194 1.162,2.177 2.045,2.904 -1.018,-0.47 -2.033,-0.784 -3.042,-0.819 l -3.474,5.581 c 0.458,1.01 1.077,1.938 1.919,2.75 -0.928,-0.411 -1.876,-0.704 -2.855,-0.828 l -3.529,5.605 c 6.129,8.77 13.726,16.786 20.386,25.672 l 3.165,-5.338 c -4.432,-5.779 -8.96,-11.435 -13.6,-16.947 l 4.737,1.903 c 3.57,4.146 6.875,8.491 10.056,12.928 l 3.337,-5.351 c -0.587,-1.088 -1.298,-2.052 -2.175,-2.85 1.031,0.618 2.107,0.903 3.241,0.755 l 3.333,-5.482 c -0.466,-1.071 -1.173,-1.996 -2.015,-2.84 0.956,0.58 1.926,1.01 2.943,0.937 l 3.551,-5.659 c -0.562,-1.121 -1.269,-2.067 -2.148,-2.808 1.13,0.663 2.271,0.925 3.425,0.685 l 3.21,-5.56 C 158.993,22.237 147.009,8.058 145.663,5.108 Z m -6.997,31.36 c 1.095,1.487 2.261,2.909 3.523,4.241 1.544,0.92 3.106,1.419 4.669,1.885 -1.084,-1.426 -2.225,-2.831 -3.44,-4.209 -1.638,-0.551 -3.218,-1.196 -4.752,-1.917 z m 4.708,-7.423 c 1.095,1.488 2.261,2.909 3.523,4.241 1.544,0.92 3.105,1.42 4.668,1.886 -1.084,-1.427 -2.224,-2.832 -3.44,-4.209 -1.637,-0.552 -3.217,-1.197 -4.751,-1.918 z"
         inkscape:connector-curvature="0" />
    </g>
    <g
       style="clip-rule:evenodd;fill-rule:evenodd;stroke-linejoin:round;stroke-miterlimit:1.41420996"
       id="g993"
       transform="matrix(0.2097171,0,0,0.2097171,137.777,41.877624)">
      <path
         id="path982"
         style="fill:#757575"
         d="M 37.79,9 2,19.049 V 66.853 L 43.335,91.812 84.939,66.853 V 13.734 L 40.757,33.417 42.233,69.088 44.592,38.343 79.285,22.261 V 63.688 L 43.335,82.636 7.866,63.688 V 20.294 Z m 94.95,19.367 v 6.881 H 98.298 c -2.427,0.167 -3.706,1.51 -4.147,3.713 v 21.474 c 0.401,1.987 1.757,3.086 4.147,3.222 h 25.189 c 2.221,-0.113 3.272,-1.156 3.039,-3.222 V 55.51 c 0.007,-2.107 -1.09,-3.022 -3.039,-3.018 h -16.962 v -7.043 h 20.001 c 3.736,0.738 5.807,3.086 6.214,7.043 v 11.165 c -0.472,3.621 -2.577,5.729 -6.214,6.42 H 94.151 c -2.919,-0.892 -4.785,-2.998 -5.509,-6.42 V 36.562 c 0.044,-3.584 1.742,-6.381 5.509,-8.195 z m 50.219,0.666 v 6.023 h -35.251 c -1.411,0.365 -2.265,1.454 -2.561,3.269 v 7.731 h 36.85 v 7.054 h -36.85 v 8.527 c 0.212,1.366 1.045,2.157 2.561,2.317 h 35.251 v 6.101 H 145.147 C 141.393,69.036 139.331,66.588 139,62.674 V 37.081 c 0.277,-4.039 2.248,-6.781 6.147,-8.048 z m 64.017,-0.182 v 6.464 h -34.213 c -1.655,0.262 -2.28,1.253 -2.756,2.864 v 4.853 c 0.132,1.432 1.508,2.342 2.756,2.755 h 26.503 c 3.816,0.431 6.611,2.093 7.71,5.801 v 12.385 c -0.305,3.145 -1.982,5.159 -4.997,6.068 h -38.051 v -6.068 h 35.338 c 1.523,-0.427 2.526,-1.378 2.713,-3.152 v -5.632 c -0.423,-1.561 -1.464,-2.053 -2.713,-2.185 h -28.032 c -3.865,-0.655 -6.456,-2.459 -7.306,-5.836 V 35.315 c 0.516,-3.213 2.331,-5.516 6.079,-6.464 z m 48.956,0.081 v 6.202 H 280.86 c -1.264,-0.064 -1.793,0.674 -1.793,1.988 v 32.821 h -6.266 V 37.122 c -0.142,-1.402 -0.696,-2.043 -1.623,-1.988 H 253.055 V 28.932 Z M 195.866,69.901 h -4.823 v -41.05 h 4.823 z"
         inkscape:connector-curvature="0" />
    </g>
    <g
       style="clip-rule:evenodd;fill-rule:evenodd;stroke-linejoin:round;stroke-miterlimit:1.41420996"
       id="g1006"
       transform="matrix(0.20941697,0,0,0.20941697,27.8201,71.185533)">
      <path
         id="path995"
         style="fill:#757575"
         d="m 20.281,60.31 c 2.642,0.066 3.986,-1.436 3.969,-4.584 V 32.061 c -0.129,-2.432 -0.578,-3.99 -1.142,-5.235 h 17.835 c -0.793,1.3 -1.292,2.796 -1.435,4.529 v 25.69 c 0.288,7.408 -4.813,9.786 -12.365,9.879 H 6.87 L 5.413,59.249 c 1.268,0.498 2.615,0.927 4.296,1.061 z m 175.266,6.547 h -17.872 c 0.878,-1.55 1.348,-3.217 1.624,-4.942 V 42.618 c -0.297,-1.811 -0.787,-3.511 -1.624,-5.012 h 14.431 c 0.751,1.433 0.849,3.173 0.738,5.012 0.773,-3.26 3.066,-4.956 6.949,-5.012 h 8.009 v 9.42 c -4.625,-1.4 -9.043,-1.999 -12.794,0 -0.499,0.386 -0.891,1.201 -1.009,3.106 v 11.783 c 0.012,2.144 0.627,3.693 1.548,4.942 z m 58.279,-23.487 -4.147,1.04 1.149,-6.936 h 27.954 c 6.692,0.656 9.283,4.183 9.068,9.673 v 15.776 c 0.052,1.621 0.565,2.927 1.518,3.934 h -14.92 c -0.352,-0.924 -0.62,-2.02 -0.856,-3.182 -1.013,2.512 -2.66,3.178 -4.536,3.182 h -15.23 c -3.65,-0.681 -5.414,-3.226 -5.578,-7.354 v -5.641 c 0.324,-4.727 3.241,-6.553 7.645,-6.715 h 15.182 c 2.694,-0.137 2.298,-3.796 0,-3.777 z m -116.315,0 -4.147,1.04 1.149,-6.936 h 27.954 c 6.693,0.656 9.283,4.183 9.068,9.673 v 15.776 c 0.053,1.621 0.566,2.927 1.518,3.934 h -14.919 c -0.353,-0.924 -0.621,-2.02 -0.857,-3.182 -1.012,2.512 -2.66,3.178 -4.536,3.182 h -15.23 c -3.649,-0.681 -5.414,-3.226 -5.578,-7.354 v -5.641 c 0.325,-4.727 3.241,-6.553 7.645,-6.715 h 15.182 c 2.695,-0.137 2.298,-3.796 0,-3.777 z m -85.093,0 -4.147,1.04 1.149,-6.936 h 27.954 c 6.693,0.656 9.284,4.183 9.068,9.673 v 15.776 c 0.053,1.621 0.566,2.927 1.518,3.934 H 73.041 c -0.352,-0.924 -0.621,-2.02 -0.856,-3.182 -1.013,2.512 -2.661,3.178 -4.536,3.182 H 52.418 C 48.769,66.176 47.005,63.631 46.84,59.503 v -5.641 c 0.325,-4.727 3.242,-6.553 7.645,-6.715 h 15.183 c 2.694,-0.137 2.297,-3.796 0,-3.777 z m 163.681,-5.779 v -6.17 l 14.709,-0.506 v 6.676 h 11.573 v 5.875 h -11.573 v 15.232 c -0.09,1.685 0.608,2.555 1.973,2.735 h 6.54 c 1.924,-0.18 3.64,-0.614 5.139,-1.312 l -1.107,6.645 h -19.336 c -5.489,-0.049 -8.056,-3.071 -7.918,-8.845 V 43.466 h -6.545 v -5.875 z m -90.954,-0.117 1.468,6.936 c -1.763,-0.764 -3.639,-1.18 -5.672,-1.114 h -10.429 c -1.558,0.076 -2.626,0.827 -2.865,2.719 v 12.401 c 0.233,1.923 1.273,2.743 2.865,2.808 h 10.429 c 1.815,-0.108 3.524,-0.538 5.096,-1.385 l -0.892,6.92 H 101.012 C 95.956,66.837 93.29,64.302 92.916,59.258 V 45.457 c 0.182,-5.114 2.949,-7.709 8.096,-7.983 z m 141.086,15.332 c -1.958,-0.049 -2.997,0.523 -3.071,1.747 v 4.738 c -0.023,1.032 0.529,1.75 1.88,2.031 h 5.153 c 1.737,-0.026 2.618,-0.938 2.645,-2.736 v -5.78 z m -116.315,0 c -1.958,-0.049 -2.997,0.523 -3.071,1.747 v 4.738 c -0.022,1.032 0.529,1.75 1.88,2.031 h 5.153 c 1.737,-0.026 2.618,-0.938 2.645,-2.736 v -5.78 z m -85.092,0 c -1.959,-0.049 -2.997,0.523 -3.072,1.747 v 4.738 c -0.022,1.032 0.529,1.75 1.88,2.031 h 5.153 c 1.737,-0.026 2.619,-0.938 2.645,-2.736 v -5.78 z"
         inkscape:connector-curvature="0" />
    </g>
    <g
       style="clip-rule:evenodd;fill-rule:evenodd;stroke-linejoin:round;stroke-miterlimit:1.41420996"
       id="g1019"
       transform="matrix(0.2072562,0,0,0.2072562,137.97395,70.891302)">
      <path
         id="path1008"
         style="fill:#707070"
         d="m 11.453,15.201 c 2.939,3.014 4.71,7.5 5.234,13.555 7.13,-2.997 14.414,-5.556 22.224,-6.615 13.395,-0.703 16.603,3.932 10.386,13.504 -5.646,7.462 -11.677,14.38 -17.721,21.28 -8.367,11.805 -7.027,20.091 0,26.315 12.207,7.787 23.745,9.563 34.77,6.731 C 58.762,89.39 51.698,87.05 45.367,82.225 40.175,77.466 39.371,71.817 42.242,65.423 53.182,46.909 52.592,46.694 53.656,44.184 56.227,38.124 57.498,32.33 56.672,26.965 55.062,18.368 49.044,14.336 39.862,13.583 30.134,12.591 20.739,13.573 11.453,15.201 Z m 246.884,68.255 h -6.48 V 48.508 c 0.082,-11.624 19.024,-11.134 19.16,0 V 62.25 c -0.575,5.167 -3.73,7.921 -8.985,8.71 h -3.695 z M 245.911,40.001 v 20.663 c -0.013,7.851 -4.716,10.681 -9.5,10.717 -4.872,0.037 -9.763,-2.459 -9.767,-10.717 V 40.001 h 6.472 v 20.663 c 0.098,5.784 6.446,5.257 6.413,0 V 40.001 Z m -99.31,17.611 c -0.018,7.851 -6.842,13.733 -13.782,13.769 -7.067,0.037 -14.163,-4.315 -14.169,-12.574 V 37.67 c 0.414,-16.158 27.806,-15.935 27.951,0 v 15.228 h -18.562 v 4.714 c 0.185,6.088 9.341,5.356 9.304,0 z m 65.301,0 c -0.018,7.851 -6.842,13.733 -13.782,13.769 -7.067,0.037 -14.163,-4.315 -14.169,-12.574 V 37.67 c 0.414,-16.158 27.806,-15.935 27.951,0 z m -99.484,13.769 h -9.246 V 25.62 h 9.246 z m 40.68,-64.062 h 9.15 v 64.062 h -9.15 z m 15.469,0 h 9.15 v 64.062 h -9.15 z M 87.557,71.381 H 78.016 V 40.422 C 78.35,31.57 82.814,26.208 92.21,25.62 h 4.595 v 9.148 H 92.21 c -2.747,0.036 -4.458,1.364 -4.653,4.582 z m -19.782,0 H 42.207 c 0.086,-3.121 2.117,-7.177 6.575,-14.025 3.851,-6.334 7.221,-14.079 8.89,-20.847 2.513,-12.292 -1.435,-21.863 -17.357,-24.36 -10.824,-1.039 -21.733,-0.047 -32.7,2.323 4.402,2.433 6.935,5.905 7.839,16.574 6.532,-3.109 13.554,-5.644 21.47,-7.13 16.432,-1.77 16.644,4.526 9.046,14.029 -5.009,6.177 -10.841,12.276 -16.017,18.673 -3.621,4.858 -5.288,9.786 -5.618,14.763 H 3.569 V 7.319 h 64.206 z m 215.5,-9.667 c 0,0.01 -0.092,3.232 3.763,3.104 2.739,-0.091 4.022,-5.544 0,-6.073 -2.326,-0.306 -10.344,-0.86 -10.218,-9.569 0.177,-12.232 19.1,-12.333 19.18,0 h -6.351 c 0.029,-1.446 -2.661,-5.334 -5.81,-1.492 -1.071,1.305 -1.04,4.473 3.199,4.694 4.24,0.222 8.945,2.973 8.962,9.336 0.034,12.759 -19.179,12.131 -19.18,0 z m -21.838,3.088 c 1.717,-0.168 2.888,-1.035 3.132,-3.088 V 48.508 c -0.077,-2.835 -6.197,-3.256 -6.232,0 v 16.294 z m -68.097,-6.93 c 0.143,5.785 9.352,5.257 9.304,0 V 38.523 c -0.156,-4.945 -9.263,-4.485 -9.304,0 z m -65.301,-14 h 9.304 v -5.349 c -0.156,-4.945 -9.263,-4.485 -9.304,0 z M 103.172,7.319 h 9.246 v 8.925 h -9.246 z"
         inkscape:connector-curvature="0" />
    </g>
    <g
       style="clip-rule:evenodd;fill-rule:evenodd;stroke-linejoin:round;stroke-miterlimit:1.41420996"
       id="g1032"
       transform="matrix(0.20818753,0,0,0.20818753,27.584882,98.989911)">
      <path
         id="path1021"
         style="fill:#757575"
         d="M 116.061,78.917 C 103.021,98.668 72.888,102 77.017,76 h 7.685 l 1.389,-3.81 h -7.718 c 0.295,-1.474 0.969,-2.325 1.674,-3.723 h 6.868 l 0.963,-3.401 h -5.531 c 14.375,-19.251 42.362,-20.668 38.901,3.006 h -9.565 l -1.033,3.603 h 9.217 l -1.524,3.634 h -8.531 l -1.023,3.608 z m 98.711,-6.478 6.698,-6.828 v 3.859 h 5.263 v 2.969 h -5.263 v 9.754 c 1.065,2.795 3.454,2.427 6.351,0.846 v 3.078 c -4.72,2.144 -8.207,1.576 -9.954,-2.823 V 72.439 Z m -43.557,6.284 h 12.234 c -0.837,-9.267 -8.026,-11.836 -13.304,-7.336 -4.161,3.548 -2.867,12.486 1.838,14.949 2.794,1.463 7.506,1.433 11.028,-1.067 v -3.476 c -6.17,3.879 -10.952,2.489 -11.796,-3.07 z m 90.406,8.298 H 258.37 V 69.597 h 3.251 z M 146.391,60.559 v 3.429 h -10.987 v 7.97 h 10.356 v 3.531 h -10.356 v 7.997 h 11.423 V 86.94 H 131.371 V 60.559 Z m 137.887,13.623 v -3.653 c 0,0 -12.956,-5.586 -13.644,7.437 -0.681,12.87 13.644,8.105 13.644,8.105 v -3.103 c -13.257,6.098 -14.327,-15.946 0,-8.786 z m -78.537,0 v -3.653 c 0,0 -12.956,-5.586 -13.644,7.437 -0.681,12.87 13.644,8.105 13.644,8.105 v -3.103 c -13.257,6.098 -14.327,-15.946 0,-8.786 z m -46.742,12.745 h -3.456 V 60.559 h 3.456 z M 240.145,69.47 v 3.725 c 2.65,-4.899 5.741,-4.99 9.133,-1.792 l -2.084,2.779 c -2.872,-2.81 -5.164,-1.709 -7.049,2.126 v 10.469 h -3.679 V 69.47 Z M 115.257,59.246 h -11.212 c -5.09,1.183 -8.076,3.926 -9.484,7.841 l -2.393,10.214 c -0.213,1.102 -0.855,1.78 -1.87,2.096 H 84.402 L 82.799,85.2 h 11.044 c 5.651,-0.813 10.027,-3.505 11.02,-11.172 0.638,-3.247 1.2,-6.544 2.673,-9.248 h 6.309 z m 55.958,17.028 h 8.697 c 0,0 -0.691,-4.165 -4.061,-4.165 -3.37,0 -4.636,4.165 -4.636,4.165 z M 258.37,66.03 c -1.134,-2.048 0.152,-3.973 3.251,-3.251 0.906,1.511 -0.169,4.316 -3.251,3.251 z m 4.654,-24.536 c -2.858,-27.727 -33.373,-18.944 -32.46,0 0.668,13.863 20.383,18.783 31.503,10.256 v -6.217 c -9.763,8.251 -20.969,4.312 -21.2,-4.039 z m -85.881,0 c -2.858,-27.727 -33.373,-18.944 -32.46,0 0.668,13.863 20.383,18.783 31.503,10.256 v -6.217 c -9.764,8.251 -20.969,4.312 -21.2,-4.039 z m 49.337,13.665 h -9.603 v -2.417 c 0,0 -8.926,7.213 -17.11,0 -9.394,-8.279 -5.789,-20.35 0,-25.418 6.408,-5.612 17.11,-1.737 17.11,-1.737 V 9.647 h 9.603 z M 38.695,21.664 v -8.808 c 0,0 -24.862,-11.096 -32.492,6.38 -3.079,7.052 4.998,15.565 14.2,17.761 15.011,3.583 7.828,10.621 2.764,10.296 C 11.382,46.537 7.16,41.532 7.16,41.532 v 9.691 c 0.173,2.449 16.47,6.864 26.717,1.876 7.835,-3.814 9.155,-14.421 2.913,-20.552 -3.455,-3.394 -10.685,-6.236 -13.623,-6.461 -6.494,-0.496 -9.782,-10.238 4.481,-8.674 2.675,0.293 11.047,4.252 11.047,4.252 z M 70.628,25.7 v 7.183 c -24.729,-9.558 -21.23,24.629 0,14.018 v 6.984 C 30.555,64.534 37.159,13.296 70.628,25.7 Z m 119.637,29.525 h -9.589 v -30.75 h 9.589 z M 110.367,45.082 V 24.484 h 9.894 v 3.969 c 5.576,-7.677 18.256,-6.425 20.913,5.049 v 21.654 c -5.061,0.101 -4.324,-0.008 -9.803,0 V 35.694 c -1.904,-6.83 -8.753,-6.156 -11.11,0 v 14.307 c -2.764,-2.226 -6.009,-3.923 -9.894,-4.919 z m 166.876,9.822 H 267.35 V 24.422 h 9.893 v 7.652 c 5.577,-7.677 8.55,-11.477 16.002,-5.028 l -2.868,8.961 c -5.973,-6.381 -10.776,-1.361 -13.134,4.795 z m -192.241,0 H 75.109 V 9.806 h 9.893 v 18.96 c 5.576,-7.677 18.256,-6.425 20.913,5.049 v 11.58 c -3.674,-0.399 -6.886,0.862 -9.802,3.407 V 36.007 c -1.905,-6.83 -8.754,-6.156 -11.111,0 z M 216.877,32.161 v 14.885 c -17.894,11.313 -16.982,-24.764 0,-14.885 z m 37.186,4.097 c -1.52,-8.814 -11.367,-8.14 -13.013,0 z m -85.882,0 c -1.519,-8.814 -11.366,-8.14 -13.012,0 z m 12.495,-17.642 c -4.2,-4.718 5.654,-11.973 9.589,-8.306 3.536,3.295 -4.853,13.624 -9.589,8.306 z"
         inkscape:connector-curvature="0" />
    </g>
    <g
       style="clip-rule:evenodd;fill-rule:evenodd;stroke-linejoin:round;stroke-miterlimit:1.41420996"
       id="g1045"
       transform="matrix(0.20109408,0,0,0.20109408,138.85361,99.511123)">
      <path
         id="path1034"
         style="fill:#707070"
         d="M 93.201,97.275 H 90.536 V 80.632 h 2.665 v 1.497 h 0.059 c 0.513,-0.558 1.219,-0.991 2.117,-1.299 0.898,-0.308 1.821,-0.462 2.769,-0.462 1.085,0 2.067,0.139 2.946,0.418 0.878,0.279 1.628,0.668 2.25,1.167 0.622,0.499 1.101,1.082 1.436,1.75 0.336,0.668 0.503,1.383 0.503,2.146 0,0.778 -0.167,1.501 -0.503,2.169 -0.335,0.668 -0.814,1.247 -1.436,1.739 -0.622,0.492 -1.372,0.877 -2.25,1.156 -0.879,0.279 -1.861,0.418 -2.946,0.418 -1.007,0 -1.955,-0.158 -2.843,-0.473 -0.888,-0.316 -1.569,-0.745 -2.043,-1.288 h -0.059 z m 18.091,0 h -2.665 V 80.632 h 2.665 v 1.497 h 0.059 c 0.514,-0.558 1.219,-0.991 2.117,-1.299 0.899,-0.308 1.821,-0.462 2.769,-0.462 1.086,0 2.068,0.139 2.946,0.418 0.879,0.279 1.629,0.668 2.25,1.167 0.622,0.499 1.101,1.082 1.437,1.75 0.335,0.668 0.503,1.383 0.503,2.146 0,0.778 -0.168,1.501 -0.503,2.169 -0.336,0.668 -0.815,1.247 -1.437,1.739 -0.621,0.492 -1.371,0.877 -2.25,1.156 -0.878,0.279 -1.86,0.418 -2.946,0.418 -1.007,0 -1.954,-0.158 -2.843,-0.473 -0.887,-0.316 -1.568,-0.745 -2.043,-1.288 h -0.059 z M 58.913,87.809 c 0.513,0.572 1.17,0.994 1.969,1.266 0.8,0.271 1.624,0.407 2.472,0.407 0.474,0 0.958,-0.055 1.451,-0.165 0.494,-0.11 0.943,-0.275 1.348,-0.496 0.404,-0.22 0.735,-0.491 0.991,-0.814 0.257,-0.323 0.385,-0.697 0.385,-1.123 0,-0.602 -0.256,-1.06 -0.769,-1.376 -0.514,-0.315 -1.15,-0.579 -1.91,-0.792 -0.76,-0.213 -1.589,-0.419 -2.487,-0.617 -0.899,-0.198 -1.728,-0.473 -2.488,-0.825 -0.76,-0.352 -1.396,-0.826 -1.909,-1.42 -0.514,-0.595 -0.77,-1.398 -0.77,-2.411 0,-0.455 0.133,-0.939 0.399,-1.453 0.267,-0.513 0.686,-0.983 1.259,-1.409 0.572,-0.425 1.308,-0.781 2.206,-1.067 0.898,-0.286 1.979,-0.43 3.242,-0.43 1.145,0 2.24,0.118 3.287,0.353 1.046,0.235 1.964,0.712 2.753,1.431 l -2.309,1.563 c -0.356,-0.411 -0.859,-0.742 -1.51,-0.991 -0.652,-0.249 -1.392,-0.374 -2.221,-0.374 -0.79,0 -1.446,0.077 -1.969,0.231 -0.523,0.154 -0.943,0.352 -1.258,0.594 -0.316,0.242 -0.538,0.503 -0.667,0.782 -0.128,0.279 -0.192,0.535 -0.192,0.77 0,0.661 0.256,1.167 0.77,1.519 0.513,0.353 1.15,0.639 1.909,0.859 0.76,0.22 1.59,0.418 2.488,0.594 0.898,0.176 1.727,0.422 2.487,0.738 0.76,0.315 1.396,0.741 1.91,1.277 0.513,0.535 0.77,1.273 0.77,2.212 0,0.748 -0.193,1.424 -0.578,2.025 -0.385,0.602 -0.903,1.108 -1.554,1.519 -0.652,0.411 -1.422,0.727 -2.31,0.947 -0.888,0.22 -1.836,0.33 -2.842,0.33 -1.343,0 -2.616,-0.176 -3.82,-0.528 -1.204,-0.353 -2.162,-0.896 -2.872,-1.629 z m 160.247,3.258 h -2.665 V 89.57 h -0.06 c -0.513,0.558 -1.219,0.991 -2.117,1.299 -0.898,0.308 -1.821,0.462 -2.768,0.462 -1.086,0 -2.068,-0.139 -2.946,-0.418 -0.879,-0.279 -1.629,-0.668 -2.251,-1.167 -0.621,-0.499 -1.1,-1.079 -1.436,-1.739 -0.335,-0.661 -0.503,-1.38 -0.503,-2.158 0,-0.777 0.168,-1.5 0.503,-2.168 0.336,-0.668 0.815,-1.247 1.436,-1.739 0.622,-0.492 1.372,-0.877 2.251,-1.156 0.878,-0.279 1.86,-0.418 2.946,-0.418 1.007,0 1.954,0.158 2.842,0.473 0.889,0.316 1.57,0.745 2.043,1.288 h 0.06 v -7.705 h 2.665 z m -54.304,-7.815 c -0.316,-0.294 -0.706,-0.54 -1.17,-0.738 -0.464,-0.198 -1.031,-0.297 -1.702,-0.297 -0.632,0 -1.18,0.099 -1.644,0.297 -0.464,0.198 -0.696,0.488 -0.696,0.87 0,0.308 0.134,0.558 0.4,0.748 0.267,0.191 0.583,0.345 0.948,0.463 0.365,0.117 0.755,0.205 1.169,0.264 0.415,0.059 0.77,0.11 1.066,0.154 0.573,0.103 1.111,0.227 1.614,0.374 0.503,0.147 0.938,0.338 1.303,0.573 0.365,0.234 0.651,0.521 0.858,0.858 0.208,0.338 0.311,0.749 0.311,1.233 0,0.587 -0.167,1.09 -0.503,1.508 -0.336,0.418 -0.77,0.759 -1.303,1.023 -0.533,0.265 -1.14,0.455 -1.821,0.573 -0.681,0.117 -1.367,0.176 -2.058,0.176 -1.164,0 -2.186,-0.132 -3.064,-0.396 -0.879,-0.264 -1.663,-0.749 -2.354,-1.453 l 2.013,-1.233 c 0.435,0.323 0.918,0.609 1.451,0.859 0.533,0.249 1.184,0.374 1.954,0.374 0.336,0 0.676,-0.026 1.022,-0.077 0.345,-0.052 0.651,-0.132 0.918,-0.242 0.266,-0.11 0.483,-0.25 0.651,-0.419 0.168,-0.168 0.252,-0.363 0.252,-0.583 0,-0.294 -0.124,-0.536 -0.37,-0.727 -0.247,-0.19 -0.543,-0.341 -0.889,-0.451 -0.345,-0.11 -0.71,-0.198 -1.095,-0.264 -0.385,-0.066 -0.726,-0.121 -1.022,-0.165 -0.572,-0.103 -1.115,-0.22 -1.628,-0.352 -0.513,-0.132 -0.967,-0.309 -1.362,-0.529 -0.395,-0.22 -0.711,-0.499 -0.948,-0.836 -0.237,-0.338 -0.355,-0.756 -0.355,-1.255 0,-0.543 0.153,-1.016 0.459,-1.42 0.306,-0.404 0.711,-0.737 1.214,-1.002 0.503,-0.264 1.076,-0.462 1.717,-0.594 0.642,-0.132 1.288,-0.198 1.94,-0.198 0.947,0 1.855,0.132 2.724,0.396 0.868,0.264 1.559,0.705 2.072,1.321 z m 32.985,-2.62 h 3.819 v 1.717 h -3.819 v 4.733 c 0,0.294 0.01,0.584 0.029,0.87 0.02,0.286 0.094,0.543 0.222,0.77 0.129,0.228 0.326,0.411 0.593,0.551 0.266,0.139 0.656,0.209 1.169,0.209 0.316,0 0.642,-0.022 0.977,-0.066 0.336,-0.044 0.642,-0.125 0.918,-0.242 v 1.805 c -0.316,0.132 -0.725,0.224 -1.229,0.275 -0.503,0.051 -0.893,0.077 -1.169,0.077 -1.027,0 -1.821,-0.106 -2.384,-0.319 -0.562,-0.213 -0.977,-0.488 -1.243,-0.826 -0.267,-0.337 -0.425,-0.715 -0.474,-1.133 -0.049,-0.419 -0.074,-0.841 -0.074,-1.266 v -5.438 h -3.08 v -1.717 h 3.08 v -2.928 h 2.665 z M 83.785,89.46 c -0.336,0.558 -0.918,1.009 -1.747,1.354 -0.829,0.345 -1.786,0.517 -2.872,0.517 -0.691,0 -1.342,-0.077 -1.954,-0.231 -0.612,-0.154 -1.15,-0.393 -1.614,-0.716 -0.464,-0.323 -0.834,-0.737 -1.11,-1.243 -0.277,-0.507 -0.415,-1.105 -0.415,-1.795 v -6.714 h 2.665 v 6.164 c 0,0.484 0.089,0.899 0.266,1.244 0.178,0.345 0.415,0.624 0.711,0.836 0.296,0.213 0.637,0.367 1.022,0.463 0.384,0.095 0.784,0.143 1.199,0.143 0.552,0 1.066,-0.066 1.539,-0.198 0.474,-0.132 0.889,-0.342 1.244,-0.628 0.355,-0.286 0.632,-0.649 0.829,-1.089 0.198,-0.441 0.296,-0.962 0.296,-1.563 v -5.372 h 2.665 V 91.067 H 83.844 V 89.46 Z m 59.16,-2.884 c 0,0.455 0.133,0.87 0.399,1.244 0.267,0.374 0.617,0.693 1.052,0.957 0.434,0.265 0.937,0.47 1.51,0.617 0.572,0.146 1.164,0.22 1.776,0.22 0.829,0 1.55,-0.143 2.162,-0.429 0.612,-0.287 1.174,-0.665 1.687,-1.134 l 2.014,1.145 c -1.481,1.423 -3.553,2.135 -6.218,2.135 -1.105,0 -2.107,-0.139 -3.005,-0.418 -0.899,-0.279 -1.659,-0.664 -2.28,-1.156 -0.622,-0.492 -1.101,-1.071 -1.436,-1.739 -0.336,-0.668 -0.504,-1.391 -0.504,-2.169 0,-0.777 0.183,-1.5 0.548,-2.168 0.365,-0.668 0.869,-1.247 1.51,-1.739 0.642,-0.492 1.407,-0.877 2.295,-1.156 0.888,-0.279 1.855,-0.418 2.902,-0.418 1.243,0 2.294,0.161 3.153,0.484 0.859,0.323 1.564,0.745 2.117,1.266 0.553,0.521 0.952,1.108 1.199,1.761 0.247,0.653 0.37,1.317 0.37,1.992 v 0.705 z m 39.351,2.51 h 9.623 v 1.981 H 179.453 V 75.481 h 2.843 z m -45.599,1.981 h -2.665 V 80.632 h 2.665 z m -7.106,0 h -2.665 V 74.424 h 2.665 z M 288.382,90.744 H 228.994 V 29.749 h 59.388 z M 97.82,82.217 c -0.711,0 -1.352,0.092 -1.925,0.275 -0.572,0.184 -1.056,0.433 -1.451,0.749 -0.394,0.315 -0.7,0.697 -0.917,1.144 -0.218,0.448 -0.326,0.936 -0.326,1.464 0,0.529 0.108,1.017 0.326,1.464 0.217,0.448 0.523,0.83 0.917,1.145 0.395,0.316 0.879,0.565 1.451,0.749 0.573,0.183 1.214,0.275 1.925,0.275 0.711,0 1.352,-0.092 1.924,-0.275 0.573,-0.184 1.057,-0.433 1.451,-0.749 0.395,-0.315 0.701,-0.697 0.918,-1.145 0.217,-0.447 0.326,-0.935 0.326,-1.464 0,-0.528 -0.109,-1.016 -0.326,-1.464 -0.217,-0.447 -0.523,-0.829 -0.918,-1.144 -0.394,-0.316 -0.878,-0.565 -1.451,-0.749 -0.572,-0.183 -1.213,-0.275 -1.924,-0.275 z m 18.091,0 c -0.71,0 -1.352,0.092 -1.924,0.275 -0.573,0.184 -1.056,0.433 -1.451,0.749 -0.395,0.315 -0.701,0.697 -0.918,1.144 -0.217,0.448 -0.326,0.936 -0.326,1.464 0,0.529 0.109,1.017 0.326,1.464 0.217,0.448 0.523,0.83 0.918,1.145 0.395,0.316 0.878,0.565 1.451,0.749 0.572,0.183 1.214,0.275 1.924,0.275 0.711,0 1.352,-0.092 1.925,-0.275 0.572,-0.184 1.056,-0.433 1.451,-0.749 0.395,-0.315 0.701,-0.697 0.918,-1.145 0.217,-0.447 0.325,-0.935 0.325,-1.464 0,-0.528 -0.108,-1.016 -0.325,-1.464 -0.217,-0.447 -0.523,-0.829 -0.918,-1.144 -0.395,-0.316 -0.879,-0.565 -1.451,-0.749 -0.573,-0.183 -1.214,-0.275 -1.925,-0.275 z m 95.965,7.265 c 0.71,0 1.352,-0.092 1.924,-0.275 0.573,-0.184 1.056,-0.433 1.451,-0.749 0.395,-0.315 0.701,-0.697 0.918,-1.145 0.217,-0.447 0.326,-0.935 0.326,-1.464 0,-0.528 -0.109,-1.016 -0.326,-1.464 -0.217,-0.447 -0.523,-0.829 -0.918,-1.144 -0.395,-0.316 -0.878,-0.565 -1.451,-0.749 -0.572,-0.183 -1.214,-0.275 -1.924,-0.275 -0.711,0 -1.353,0.092 -1.925,0.275 -0.572,0.184 -1.056,0.433 -1.451,0.749 -0.395,0.315 -0.701,0.697 -0.918,1.144 -0.217,0.448 -0.325,0.936 -0.325,1.464 0,0.529 0.108,1.017 0.325,1.464 0.217,0.448 0.523,0.83 0.918,1.145 0.395,0.316 0.879,0.565 1.451,0.749 0.572,0.183 1.214,0.275 1.925,0.275 z m 38.619,-7.778 c 2.052,0 3.717,1.666 3.717,3.718 0,2.052 -1.665,3.718 -3.717,3.718 -2.052,0 -3.718,-1.666 -3.718,-3.718 0,-2.052 1.666,-3.718 3.718,-3.718 z m -99.141,3.287 c -0.02,-0.44 -0.114,-0.844 -0.281,-1.211 -0.168,-0.367 -0.42,-0.686 -0.755,-0.958 -0.336,-0.271 -0.756,-0.484 -1.259,-0.638 -0.503,-0.154 -1.091,-0.231 -1.762,-0.231 -0.651,0 -1.248,0.092 -1.791,0.275 -0.543,0.184 -1.002,0.422 -1.377,0.716 -0.375,0.293 -0.666,0.62 -0.873,0.979 -0.208,0.36 -0.311,0.716 -0.311,1.068 z m 95.055,-9.63 c 1.583,0 2.868,1.285 2.868,2.868 0,1.583 -1.285,2.868 -2.868,2.868 -1.583,0 -2.868,-1.285 -2.868,-2.868 0,-1.583 1.285,-2.868 2.868,-2.868 z m 8.925,0 c 1.583,0 2.868,1.285 2.868,2.868 0,1.583 -1.285,2.868 -2.868,2.868 -1.583,0 -2.868,-1.285 -2.868,-2.868 0,-1.583 1.285,-2.868 2.868,-2.868 z M 133.41,76.89 c 0,-0.397 0.193,-0.738 0.578,-1.024 0.385,-0.286 0.844,-0.429 1.377,-0.429 0.533,0 0.992,0.143 1.377,0.429 0.384,0.286 0.577,0.627 0.577,1.024 0,0.396 -0.193,0.737 -0.577,1.023 -0.385,0.286 -0.844,0.43 -1.377,0.43 -0.533,0 -0.992,-0.144 -1.377,-0.43 -0.385,-0.286 -0.578,-0.627 -0.578,-1.023 z m 116.717,-9.324 c 2.052,0 3.717,1.666 3.717,3.718 0,2.051 -1.665,3.717 -3.717,3.717 -2.052,0 -3.718,-1.666 -3.718,-3.717 0,-2.052 1.666,-3.718 3.718,-3.718 z m 9.868,1.359 c 1.583,0 2.868,1.285 2.868,2.868 0,1.583 -1.285,2.868 -2.868,2.868 -1.583,0 -2.868,-1.285 -2.868,-2.868 0,-1.583 1.285,-2.868 2.868,-2.868 z m -18.093,0 c 1.286,0 2.331,1.044 2.331,2.33 0,1.287 -1.045,2.331 -2.331,2.331 -1.286,0 -2.33,-1.044 -2.33,-2.331 0,-1.286 1.044,-2.33 2.33,-2.33 z M 169.621,55.878 c 0.059,6.876 8.362,10.186 12.653,4.369 h 13.8 c -0.004,0.015 -3.084,12.884 -19.883,12.782 -8.001,-0.049 -21.08,-5.762 -21.08,-17.151 0,-12.931 3.978,-24.735 21.08,-24.735 23.945,0 21.043,24.665 21.035,24.735 z M 76.71,31.143 c 11.526,0 20.883,9.384 20.883,20.943 0,11.559 -9.357,20.943 -20.883,20.943 -11.526,0 -20.883,-9.384 -20.883,-20.943 0,-11.559 9.357,-20.943 20.883,-20.943 z m 44.677,40.694 H 107.13 L 94.842,32.026 h 14.366 l 5.955,23.852 5.269,-23.852 h 12.211 l 6.228,23.852 5.644,-23.852 h 14.05 L 146.71,71.837 h -14.067 l -6.046,-23.07 z m 91.595,0 H 198.441 V 32.026 h 13.251 v 7.611 c 2.633,-6.773 7.009,-9.521 13.02,-8.494 v 15.455 h -4.498 c -4.239,0.372 -6.572,2.91 -7.232,7.35 z m -184.761,0 H 11.618 V 17.094 h 29.095 c 21.847,1.214 23.702,34.704 0,37.389 H 28.221 Z m 227.113,-8.309 c 1.286,0 2.33,1.045 2.33,2.331 0,1.286 -1.044,2.33 -2.33,2.33 -1.287,0 -2.331,-1.044 -2.331,-2.33 0,-1.286 1.044,-2.331 2.331,-2.331 z m 9.525,-0.405 c 1.398,0 2.533,1.135 2.533,2.533 0,1.398 -1.135,2.533 -2.533,2.533 -1.398,0 -2.533,-1.135 -2.533,-2.533 0,-1.398 1.135,-2.533 2.533,-2.533 z M 245.518,61.83 c 1.583,0 2.868,1.285 2.868,2.868 0,1.583 -1.285,2.868 -2.868,2.868 -1.582,0 -2.868,-1.285 -2.868,-2.868 0,-1.583 1.286,-2.868 2.868,-2.868 z m -7.011,2.557 c 0.846,0 1.533,0.687 1.533,1.533 0,0.846 -0.687,1.533 -1.533,1.533 -0.846,0 -1.533,-0.687 -1.533,-1.533 0,-0.846 0.687,-1.533 1.533,-1.533 z M 76.594,41.461 c 3.648,0 6.61,4.761 6.61,10.625 0,5.865 -2.962,10.626 -6.61,10.626 -3.647,0 -6.609,-4.761 -6.609,-10.626 0,-5.864 2.962,-10.625 6.609,-10.625 z m 183.401,16.455 c 1.286,0 2.331,1.044 2.331,2.331 0,1.286 -1.045,2.33 -2.331,2.33 -1.286,0 -2.331,-1.044 -2.331,-2.33 0,-1.287 1.045,-2.331 2.331,-2.331 z m -9.843,-0.558 c 1.287,0 2.331,1.044 2.331,2.33 0,1.287 -1.044,2.331 -2.331,2.331 -1.286,0 -2.33,-1.044 -2.33,-2.331 0,-1.286 1.044,-2.33 2.33,-2.33 z m -14.057,1.356 c 0.846,0 1.532,0.687 1.532,1.533 0,0.845 -0.686,1.532 -1.532,1.532 -0.846,0 -1.533,-0.687 -1.533,-1.532 0,-0.846 0.687,-1.533 1.533,-1.533 z m 33.244,-1.264 c 1.074,0 1.947,0.872 1.947,1.946 0,1.075 -0.873,1.947 -1.947,1.947 -1.075,0 -1.947,-0.872 -1.947,-1.947 0,-1.074 0.872,-1.946 1.947,-1.946 z m -27.823,-1.104 c 1.287,0 2.331,1.044 2.331,2.33 0,1.286 -1.044,2.331 -2.331,2.331 -1.286,0 -2.33,-1.045 -2.33,-2.331 0,-1.286 1.044,-2.33 2.33,-2.33 z m -7.934,-2.054 c 0.846,0 1.533,0.687 1.533,1.533 0,0.846 -0.687,1.533 -1.533,1.533 -0.846,0 -1.533,-0.687 -1.533,-1.533 0,-0.846 0.687,-1.533 1.533,-1.533 z m 11.981,-0.828 c 1.074,0 1.947,0.873 1.947,1.947 0,1.074 -0.873,1.947 -1.947,1.947 -1.074,0 -1.947,-0.873 -1.947,-1.947 0,-1.074 0.873,-1.947 1.947,-1.947 z m 19.296,-0.56 c 1.074,0 1.947,0.873 1.947,1.947 0,1.075 -0.873,1.947 -1.947,1.947 -1.075,0 -1.947,-0.872 -1.947,-1.947 0,-1.074 0.872,-1.947 1.947,-1.947 z m 7.96,0 c 0.846,0 1.532,0.687 1.532,1.533 0,0.846 -0.686,1.533 -1.532,1.533 -0.846,0 -1.533,-0.687 -1.533,-1.533 0,-0.846 0.687,-1.533 1.533,-1.533 z m -34.622,-1.677 c 1.017,0 1.843,0.825 1.843,1.842 0,1.017 -0.826,1.843 -1.843,1.843 -1.016,0 -1.842,-0.826 -1.842,-1.843 0,-1.017 0.826,-1.842 1.842,-1.842 z m 3.886,-1.41 c 0.846,0 1.533,0.686 1.533,1.532 0,0.846 -0.687,1.533 -1.533,1.533 -0.846,0 -1.532,-0.687 -1.532,-1.533 0,-0.846 0.686,-1.532 1.532,-1.532 z m 26.255,-0.756 c 0.846,0 1.533,0.687 1.533,1.533 0,0.846 -0.687,1.533 -1.533,1.533 -0.846,0 -1.532,-0.687 -1.532,-1.533 0,-0.846 0.686,-1.533 1.532,-1.533 z m 7.136,-0.4 c 0.846,0 1.533,0.686 1.533,1.532 0,0.846 -0.687,1.533 -1.533,1.533 -0.846,0 -1.533,-0.687 -1.533,-1.533 0,-0.846 0.687,-1.532 1.533,-1.532 z m -40.087,-0.609 c 0.876,0 1.587,0.711 1.587,1.587 0,0.876 -0.711,1.588 -1.587,1.588 -0.876,0 -1.587,-0.712 -1.587,-1.588 0,-0.876 0.711,-1.587 1.587,-1.587 z m 36.578,-2.057 c 0.846,0 1.533,0.687 1.533,1.533 0,0.846 -0.687,1.533 -1.533,1.533 -0.846,0 -1.533,-0.687 -1.533,-1.533 0,-0.846 0.687,-1.533 1.533,-1.533 z m 6.093,-0.58 c 0.768,0 1.392,0.624 1.392,1.393 0,0.768 -0.624,1.392 -1.392,1.392 -0.769,0 -1.393,-0.624 -1.393,-1.392 0,-0.769 0.624,-1.393 1.393,-1.393 z m -45.152,-0.492 c 0.665,0 1.206,0.541 1.206,1.206 0,0.666 -0.541,1.207 -1.206,1.207 -0.666,0 -1.207,-0.541 -1.207,-1.207 0,-0.665 0.541,-1.206 1.207,-1.206 z m -63.285,2.299 h 12.653 c 0,0 -0.458,-6.662 -6.048,-6.662 -5.59,0 -6.605,6.662 -6.605,6.662 z m 106.178,-4.957 c 0.667,0 1.208,0.541 1.208,1.207 0,0.667 -0.541,1.208 -1.208,1.208 -0.666,0 -1.207,-0.541 -1.207,-1.208 0,-0.666 0.541,-1.207 1.207,-1.207 z m 4.859,-0.662 c 0.666,0 1.207,0.541 1.207,1.208 0,0.666 -0.541,1.207 -1.207,1.207 -0.667,0 -1.208,-0.541 -1.208,-1.207 0,-0.667 0.541,-1.208 1.208,-1.208 z M 35.828,29.749 h -7.607 v 12.252 h 9.184 c 5.429,-0.639 7.276,-11.152 -1.577,-12.252 z m 242.415,9.439 c 0.666,0 1.207,0.541 1.207,1.208 0,0.666 -0.541,1.207 -1.207,1.207 -0.667,0 -1.208,-0.541 -1.208,-1.207 0,-0.667 0.541,-1.208 1.208,-1.208 z m 4.968,-0.344 c 0.519,0 0.94,0.421 0.94,0.94 0,0.519 -0.421,0.94 -0.94,0.94 -0.518,0 -0.939,-0.421 -0.939,-0.94 0,-0.519 0.421,-0.94 0.939,-0.94 z m -1.879,-1.88 c 0.518,0 0.94,0.421 0.94,0.94 0,0.519 -0.422,0.94 -0.94,0.94 -0.519,0 -0.94,-0.421 -0.94,-0.94 0,-0.519 0.421,-0.94 0.94,-0.94 z m 4.268,-0.508 c 0.518,0 0.939,0.421 0.939,0.94 0,0.518 -0.421,0.94 -0.939,0.94 -0.519,0 -0.94,-0.422 -0.94,-0.94 0,-0.519 0.421,-0.94 0.94,-0.94 z m -1.88,-2.274 c 0.518,0 0.94,0.421 0.94,0.94 0,0.518 -0.422,0.94 -0.94,0.94 -0.519,0 -0.94,-0.422 -0.94,-0.94 0,-0.519 0.421,-0.94 0.94,-0.94 z m 2.465,-1.88 c 0.519,0 0.94,0.421 0.94,0.94 0,0.518 -0.421,0.94 -0.94,0.94 -0.518,0 -0.94,-0.422 -0.94,-0.94 0,-0.519 0.422,-0.94 0.94,-0.94 z m -80.347,-2.776 h -3.057 V 11.417 h 3.057 v 1.628 h 0.068 c 0.589,-0.606 1.398,-1.078 2.429,-1.413 1.03,-0.335 2.089,-0.503 3.176,-0.503 1.245,0 2.372,0.152 3.38,0.455 1.007,0.304 1.868,0.727 2.581,1.27 0.714,0.543 1.263,1.177 1.648,1.904 0.385,0.727 0.577,1.505 0.577,2.336 0,0.846 -0.192,1.632 -0.577,2.359 -0.385,0.727 -0.934,1.357 -1.648,1.892 -0.713,0.535 -1.574,0.955 -2.581,1.258 -1.008,0.303 -2.135,0.455 -3.38,0.455 -1.155,0 -2.242,-0.172 -3.261,-0.515 -1.019,-0.343 -1.8,-0.81 -2.344,-1.401 h -0.068 z M 61.062,5.811 v 10.396 c 0,0.527 0.102,1.074 0.306,1.641 0.204,0.567 0.543,1.09 1.019,1.569 0.476,0.479 1.098,0.87 1.868,1.174 0.77,0.303 1.721,0.455 2.854,0.455 1.132,0 2.083,-0.152 2.853,-0.455 0.77,-0.304 1.393,-0.695 1.868,-1.174 0.476,-0.479 0.816,-1.002 1.019,-1.569 0.204,-0.567 0.306,-1.114 0.306,-1.641 V 5.811 h 3.261 v 10.756 c 0,0.99 -0.238,1.888 -0.713,2.694 -0.476,0.807 -1.133,1.506 -1.97,2.096 -0.838,0.591 -1.823,1.046 -2.956,1.366 -1.132,0.319 -2.355,0.479 -3.668,0.479 -1.314,0 -2.537,-0.16 -3.669,-0.479 -1.132,-0.32 -2.117,-0.775 -2.955,-1.366 -0.838,-0.59 -1.495,-1.289 -1.971,-2.096 -0.475,-0.806 -0.713,-1.704 -0.713,-2.694 V 5.811 Z m 70.486,5.606 h 4.382 v 1.868 h -4.382 v 5.15 c 0,0.319 0.011,0.635 0.034,0.946 0.022,0.312 0.107,0.591 0.254,0.839 0.148,0.247 0.374,0.447 0.68,0.598 0.306,0.152 0.753,0.228 1.342,0.228 0.362,0 0.736,-0.024 1.121,-0.072 0.385,-0.048 0.736,-0.136 1.053,-0.263 v 1.964 c -0.363,0.144 -0.833,0.243 -1.41,0.299 -0.578,0.056 -1.025,0.084 -1.342,0.084 -1.177,0 -2.089,-0.116 -2.734,-0.347 -0.646,-0.232 -1.121,-0.531 -1.427,-0.898 -0.306,-0.368 -0.487,-0.779 -0.544,-1.234 -0.056,-0.455 -0.084,-0.914 -0.084,-1.377 v -5.917 h -3.533 v -1.868 h 3.533 V 8.231 h 3.057 z m 63.488,9.605 c -0.386,0.607 -1.054,1.098 -2.004,1.473 -0.952,0.375 -2.05,0.563 -3.295,0.563 -0.793,0 -1.54,-0.084 -2.242,-0.251 -0.702,-0.168 -1.32,-0.428 -1.852,-0.779 -0.532,-0.351 -0.957,-0.802 -1.274,-1.353 -0.317,-0.551 -0.475,-1.202 -0.475,-1.953 v -7.305 h 3.057 v 6.707 c 0,0.527 0.102,0.978 0.306,1.353 0.204,0.375 0.475,0.679 0.815,0.91 0.34,0.232 0.73,0.399 1.172,0.503 0.442,0.104 0.9,0.156 1.376,0.156 0.634,0 1.223,-0.072 1.766,-0.216 0.544,-0.143 1.019,-0.371 1.427,-0.682 0.407,-0.312 0.724,-0.707 0.951,-1.186 0.226,-0.479 0.34,-1.046 0.34,-1.701 v -5.844 h 3.057 v 11.354 h -3.057 v -1.749 z m 32.746,-9.605 h 4.382 v 1.868 h -4.382 v 5.15 c 0,0.319 0.011,0.635 0.034,0.946 0.022,0.312 0.107,0.591 0.254,0.839 0.148,0.247 0.374,0.447 0.68,0.598 0.306,0.152 0.753,0.228 1.342,0.228 0.362,0 0.736,-0.024 1.121,-0.072 0.385,-0.048 0.736,-0.136 1.053,-0.263 v 1.964 c -0.363,0.144 -0.833,0.243 -1.41,0.299 -0.578,0.056 -1.025,0.084 -1.342,0.084 -1.177,0 -2.089,-0.116 -2.734,-0.347 -0.646,-0.232 -1.121,-0.531 -1.427,-0.898 -0.306,-0.368 -0.487,-0.779 -0.544,-1.234 -0.056,-0.455 -0.084,-0.914 -0.084,-1.377 v -5.917 h -3.533 v -1.868 h 3.533 V 8.231 h 3.057 z m -85.602,6.467 c 0,0.496 0.153,0.946 0.459,1.353 0.305,0.408 0.707,0.755 1.205,1.042 0.499,0.288 1.076,0.511 1.733,0.671 0.657,0.16 1.336,0.24 2.038,0.24 0.951,0 1.778,-0.156 2.48,-0.467 0.702,-0.312 1.347,-0.723 1.936,-1.234 l 2.31,1.246 c -1.699,1.549 -4.076,2.323 -7.134,2.323 -1.268,0 -2.417,-0.152 -3.447,-0.455 -1.031,-0.303 -1.903,-0.723 -2.616,-1.258 -0.713,-0.535 -1.263,-1.165 -1.648,-1.892 -0.385,-0.727 -0.577,-1.513 -0.577,-2.359 0,-0.847 0.209,-1.633 0.628,-2.36 0.419,-0.726 0.997,-1.357 1.733,-1.892 0.736,-0.535 1.613,-0.954 2.632,-1.258 1.019,-0.303 2.129,-0.455 3.329,-0.455 1.427,0 2.633,0.176 3.618,0.527 0.985,0.351 1.795,0.81 2.429,1.377 0.634,0.567 1.093,1.206 1.376,1.917 0.283,0.71 0.424,1.433 0.424,2.168 v 0.766 z m 105.134,4.887 h -3.057 V 4.662 h 3.057 v 8.383 h 0.068 c 0.543,-0.59 1.325,-1.058 2.344,-1.401 1.019,-0.343 2.106,-0.515 3.261,-0.515 1.245,0 2.372,0.152 3.38,0.455 1.007,0.304 1.868,0.723 2.581,1.258 0.714,0.535 1.263,1.166 1.648,1.892 0.385,0.727 0.577,1.513 0.577,2.36 0,0.846 -0.192,1.628 -0.577,2.347 -0.385,0.719 -0.934,1.349 -1.648,1.892 -0.713,0.543 -1.574,0.967 -2.581,1.27 -1.008,0.303 -2.135,0.455 -3.38,0.455 -1.087,0 -2.146,-0.168 -3.176,-0.503 -1.03,-0.335 -1.84,-0.806 -2.429,-1.413 h -0.068 z m 28.16,-4.887 c 0,0.496 0.153,0.946 0.459,1.353 0.305,0.408 0.707,0.755 1.206,1.042 0.498,0.288 1.075,0.511 1.732,0.671 0.657,0.16 1.336,0.24 2.038,0.24 0.951,0 1.778,-0.156 2.48,-0.467 0.702,-0.312 1.347,-0.723 1.936,-1.234 l 2.31,1.246 c -1.698,1.549 -4.076,2.323 -7.133,2.323 -1.269,0 -2.418,-0.152 -3.448,-0.455 -1.031,-0.303 -1.903,-0.723 -2.616,-1.258 -0.713,-0.535 -1.262,-1.165 -1.647,-1.892 -0.385,-0.727 -0.578,-1.513 -0.578,-2.359 0,-0.847 0.21,-1.633 0.629,-2.36 0.419,-0.726 0.996,-1.357 1.732,-1.892 0.736,-0.535 1.614,-0.954 2.633,-1.258 1.019,-0.303 2.128,-0.455 3.329,-0.455 1.426,0 2.632,0.176 3.617,0.527 0.985,0.351 1.795,0.81 2.429,1.377 0.634,0.567 1.093,1.206 1.376,1.917 0.283,0.71 0.424,1.433 0.424,2.168 v 0.766 z m -36.075,4.887 h -3.057 V 11.417 h 3.057 z m 28.908,0 H 265.25 V 4.662 h 3.057 z m -164.75,0 H 100.5 V 11.417 h 3.057 z m 70.826,0 h -3.058 V 11.417 h 3.058 v 1.748 h 0.068 c 0.203,-0.303 0.475,-0.579 0.815,-0.826 0.339,-0.248 0.719,-0.459 1.138,-0.635 0.419,-0.176 0.877,-0.315 1.375,-0.419 0.499,-0.104 0.997,-0.156 1.495,-0.156 0.498,0 0.951,0.048 1.359,0.144 l -0.136,2.323 c -0.249,-0.048 -0.498,-0.088 -0.747,-0.119 -0.249,-0.032 -0.499,-0.048 -0.748,-0.048 -1.494,0 -2.638,0.295 -3.431,0.886 -0.792,0.591 -1.188,1.509 -1.188,2.755 z m -12.569,0 h -3.057 V 11.417 h 3.057 v 1.748 h 0.068 c 0.204,-0.303 0.476,-0.579 0.815,-0.826 0.34,-0.248 0.719,-0.459 1.138,-0.635 0.419,-0.176 0.878,-0.315 1.376,-0.419 0.498,-0.104 0.996,-0.156 1.495,-0.156 0.498,0 0.951,0.048 1.358,0.144 l -0.136,2.323 c -0.249,-0.048 -0.498,-0.088 -0.747,-0.119 -0.249,-0.032 -0.498,-0.048 -0.747,-0.048 -1.495,0 -2.638,0.295 -3.431,0.886 -0.793,0.591 -1.189,1.509 -1.189,2.755 z m -50.342,0 h -3.057 V 11.417 h 3.057 v 1.748 h 0.068 c 0.385,-0.607 1.053,-1.098 2.004,-1.473 0.951,-0.375 2.05,-0.563 3.295,-0.563 0.77,0 1.512,0.084 2.225,0.252 0.713,0.167 1.336,0.427 1.868,0.778 0.533,0.351 0.957,0.803 1.274,1.353 0.317,0.551 0.476,1.202 0.476,1.953 v 7.306 h -3.057 v -6.707 c 0,-0.527 -0.102,-0.979 -0.306,-1.354 -0.204,-0.375 -0.476,-0.679 -0.815,-0.91 -0.34,-0.232 -0.731,-0.399 -1.172,-0.503 -0.442,-0.104 -0.9,-0.156 -1.376,-0.156 -0.634,0 -1.223,0.072 -1.766,0.216 -0.544,0.144 -1.019,0.371 -1.427,0.682 -0.408,0.312 -0.725,0.707 -0.951,1.186 -0.227,0.479 -0.34,1.046 -0.34,1.701 z m -27.039,0 H 81.376 V 11.417 h 3.057 v 1.748 h 0.068 c 0.385,-0.607 1.053,-1.098 2.004,-1.473 0.951,-0.375 2.049,-0.563 3.295,-0.563 0.77,0 1.511,0.084 2.225,0.252 0.713,0.167 1.336,0.427 1.868,0.778 0.532,0.351 0.957,0.803 1.274,1.353 0.317,0.551 0.476,1.202 0.476,1.953 v 7.306 h -3.058 v -6.707 c 0,-0.527 -0.102,-0.979 -0.305,-1.354 -0.204,-0.375 -0.476,-0.679 -0.816,-0.91 -0.339,-0.232 -0.73,-0.399 -1.172,-0.503 -0.441,-0.104 -0.9,-0.156 -1.375,-0.156 -0.634,0 -1.223,0.072 -1.767,0.216 -0.543,0.144 -1.019,0.371 -1.426,0.682 -0.408,0.312 -0.725,0.707 -0.952,1.186 -0.226,0.479 -0.339,1.046 -0.339,1.701 z m 168.18,-1.725 c 0.815,0 1.551,-0.1 2.208,-0.299 0.657,-0.2 1.212,-0.472 1.665,-0.815 0.452,-0.343 0.803,-0.758 1.053,-1.245 0.249,-0.488 0.373,-1.019 0.373,-1.593 0,-0.575 -0.124,-1.106 -0.373,-1.593 -0.25,-0.487 -0.601,-0.903 -1.053,-1.246 -0.453,-0.343 -1.008,-0.615 -1.665,-0.814 -0.657,-0.2 -1.393,-0.3 -2.208,-0.3 -0.815,0 -1.551,0.1 -2.208,0.3 -0.657,0.199 -1.211,0.471 -1.664,0.814 -0.453,0.343 -0.804,0.759 -1.053,1.246 -0.25,0.487 -0.374,1.018 -0.374,1.593 0,0.574 0.124,1.105 0.374,1.593 0.249,0.487 0.6,0.902 1.053,1.245 0.453,0.343 1.007,0.615 1.664,0.815 0.657,0.199 1.393,0.299 2.208,0.299 z m -41.476,-7.905 c -0.815,0 -1.551,0.1 -2.208,0.3 -0.657,0.199 -1.212,0.471 -1.664,0.814 -0.453,0.343 -0.804,0.759 -1.054,1.246 -0.249,0.487 -0.373,1.018 -0.373,1.593 0,0.574 0.124,1.105 0.373,1.593 0.25,0.487 0.601,0.902 1.054,1.245 0.452,0.343 1.007,0.615 1.664,0.815 0.657,0.199 1.393,0.299 2.208,0.299 0.815,0 1.551,-0.1 2.208,-0.299 0.657,-0.2 1.212,-0.472 1.664,-0.815 0.453,-0.343 0.804,-0.758 1.053,-1.245 0.25,-0.488 0.374,-1.019 0.374,-1.593 0,-0.575 -0.124,-1.106 -0.374,-1.593 -0.249,-0.487 -0.6,-0.903 -1.053,-1.246 -0.452,-0.343 -1.007,-0.615 -1.664,-0.814 -0.657,-0.2 -1.393,-0.3 -2.208,-0.3 z m 73.984,3.018 c -0.022,-0.479 -0.13,-0.918 -0.322,-1.317 -0.193,-0.399 -0.482,-0.747 -0.867,-1.042 -0.385,-0.296 -0.866,-0.527 -1.443,-0.695 -0.578,-0.167 -1.251,-0.251 -2.021,-0.251 -0.748,0 -1.433,0.1 -2.056,0.299 -0.622,0.2 -1.149,0.459 -1.579,0.779 -0.43,0.319 -0.764,0.674 -1.002,1.066 -0.238,0.391 -0.357,0.778 -0.357,1.161 z m -133.294,0 c -0.022,-0.479 -0.13,-0.918 -0.323,-1.317 -0.192,-0.399 -0.481,-0.747 -0.866,-1.042 -0.385,-0.296 -0.866,-0.527 -1.443,-0.695 -0.578,-0.167 -1.252,-0.251 -2.022,-0.251 -0.747,0 -1.432,0.1 -2.055,0.299 -0.622,0.2 -1.149,0.459 -1.579,0.779 -0.431,0.319 -0.765,0.674 -1.002,1.066 -0.238,0.391 -0.357,0.778 -0.357,1.161 z M 99.787,7.344 c 0,-0.431 0.221,-0.802 0.662,-1.114 0.442,-0.311 0.968,-0.467 1.58,-0.467 0.611,0 1.138,0.156 1.579,0.467 0.442,0.312 0.663,0.683 0.663,1.114 0,0.432 -0.221,0.803 -0.663,1.114 -0.441,0.312 -0.968,0.467 -1.579,0.467 -0.612,0 -1.138,-0.155 -1.58,-0.467 -0.441,-0.311 -0.662,-0.682 -0.662,-1.114 z m 135.842,0 c 0,-0.431 0.22,-0.802 0.662,-1.114 0.442,-0.311 0.968,-0.467 1.58,-0.467 0.611,0 1.137,0.156 1.579,0.467 0.442,0.312 0.662,0.683 0.662,1.114 0,0.432 -0.22,0.803 -0.662,1.114 -0.442,0.312 -0.968,0.467 -1.579,0.467 -0.612,0 -1.138,-0.155 -1.58,-0.467 -0.442,-0.311 -0.662,-0.682 -0.662,-1.114 z"
         inkscape:connector-curvature="0" />
    </g>
  </g>
</svg>
