<svg xmlns="http://www.w3.org/2000/svg" width="752.557" height="752.557" viewBox="0 0 199.114 199.114"><g transform="translate(-4.678 -4.207)"><path d="M186.02 100.06c.111 2.532-4.455 5.003-4.568 7.5-.113 2.499 4.156 5.428 3.819 7.891-.335 2.508-5.296 4.105-5.857 6.534-.561 2.428 3.116 6.096 2.285 8.447-.786 2.394-5.965 3.066-6.978 5.336-1.014 2.27 1.934 6.549.695 8.74-1.24 2.191-6.417 1.884-7.84 3.95-1.423 2.065.7 6.825-.909 8.72-1.607 1.94-6.647.692-8.44 2.463-1.791 1.77-.592 6.792-2.48 8.389-1.934 1.598-6.658-.554-8.732.872-2.075 1.427-1.804 6.579-3.975 7.832-2.173 1.208-6.443-1.766-8.757-.73-2.272.99-2.98 6.141-5.351 6.913-2.37.772-6.003-2.897-8.472-2.344-2.424.551-4.078 5.476-6.557 5.808-2.434.329-5.337-3.95-7.87-3.84-2.532.111-5.05 4.629-7.503 4.514-2.498-.113-4.576-4.874-7.04-5.212-2.507-.335-5.806 3.638-8.234 3.077-2.429-.561-3.586-5.63-5.935-6.417-2.394-.786-6.345 2.504-8.66 1.492-2.27-1.013-2.498-6.212-4.688-7.407-2.19-1.239-6.709 1.319-8.774-.104-2.066-1.423-1.313-6.576-3.206-8.14-1.94-1.607-6.855.033-8.578-1.716-1.77-1.792-.07-6.675-1.669-8.608-1.598-1.933-6.729-1.174-8.155-3.248-1.427-2.075 1.135-6.594-.073-8.767-1.209-2.173-6.382-2.391-7.418-4.705-.99-2.272 2.352-6.247 1.536-8.615-.772-2.37-5.853-3.527-6.406-5.996-.552-2.424 3.444-5.716 3.113-8.194-.332-2.479-5.096-4.54-5.207-7.073-.111-2.532 4.455-5.003 4.568-7.5.11-2.543-4.156-5.428-3.819-7.891.335-2.508 5.296-4.105 5.857-6.534.561-2.428-3.116-6.096-2.285-8.447.786-2.394 5.965-3.066 6.978-5.337 1.014-2.27-1.934-6.548-.695-8.739 1.24-2.191 6.417-1.884 7.84-3.95 1.423-2.065-.7-6.825.909-8.72 1.607-1.94 6.647-.693 8.395-2.46 1.792-1.771.592-6.794 2.481-8.39 1.933-1.598 6.658.554 8.732-.873 2.074-1.426 1.804-6.578 3.977-7.786 2.172-1.209 6.443 1.765 8.757.729 2.271-.99 2.98-6.141 5.35-6.913 2.37-.771 6.004 2.898 8.473 2.344 2.424-.551 4.078-5.476 6.556-5.807 2.434-.33 5.337 3.95 7.87 3.84 2.533-.112 5.05-4.63 7.504-4.515 2.542.112 4.576 4.875 7.04 5.212 2.507.335 5.805-3.638 8.234-3.077 2.428.562 3.585 5.63 5.935 6.418 2.394.785 6.345-2.505 8.66-1.493 2.314 1.011 2.498 6.212 4.643 7.409 2.191 1.24 6.709-1.318 8.774.105 2.066 1.423 1.313 6.575 3.206 8.14 1.94 1.606 6.855-.034 8.623 1.714 1.77 1.792.07 6.674 1.668 8.607 1.599 1.934 6.73 1.174 8.156 3.249 1.426 2.074-1.135 6.593.073 8.766s6.382 2.392 7.418 4.706c.99 2.271-2.353 6.246-1.537 8.614.772 2.37 5.853 3.528 6.407 5.996.551 2.425-3.444 5.716-3.113 8.194.374 2.433 5.14 4.538 5.25 7.027z" fill="#d31d21" stroke="#fff" stroke-width=".9997980000000001"/><circle cx="102.578" cy="103.764" r="70.201" fill="#fff"/><circle cx="102.578" cy="103.764" r="49.596" fill="none" stroke="#d31d21" stroke-width="1.2" stroke-linecap="round" stroke-miterlimit="1.5"/><circle cx="102.578" cy="103.764" r="67.878" fill="none" stroke="#d31d21" stroke-linecap="round" stroke-miterlimit="1.5"/><circle cx="102.578" cy="103.764" r="46.889" fill="none" stroke="#d31d21" stroke-width=".8" stroke-linecap="round" stroke-miterlimit="1.5"/></g><g fill="#d31d21" stroke="#fff"><path transform="matrix(.99137 -.13108 .09432 .99554 -4.678 -4.207)" stroke-width="1.501" stroke-linecap="round" stroke-miterlimit="1.5" d="M13.407 96.855h164.19v39.331H13.407z"/><path d="M184.23 108.092l-4.11 7.12 14.778-1.69-10.016-18.804 6.898-20.6-10.206 1.607z" stroke-width="1.5"/><path d="M21.458 129.614l4.39 5.17-14.93 1.606 5.008-20.316L4.303 97.837l13.23-1.701 3.925 33.478" stroke-width="1.5" stroke-linecap="round"/></g><g fill="#d31d21"><path d="M93.04 55.327l1.674 2.628 3.139.093-1.995 2.396.842 2.996-2.897-1.148-2.581 1.747.214-3.112-2.466-1.908 3.005-.764zM109.508 62.893l.566 2.014-1.947-.772-1.735 1.175.144-2.092-1.658-1.283 2.02-.513.717-1.968 1.124 1.766 2.11.063zM119.202 68.93l-1.504 1.018.125-1.814-1.438-1.112 1.752-.445.621-1.707.975 1.532 1.83.054-1.163 1.396.49 1.747zM79.026 64.47l-2.046.516 1.658 1.283-.118 2.089 1.735-1.174 1.947.771-.592-2.01 1.34-1.611-2.083-.065-1.124-1.767zM69.075 73.465l-.102 1.812 1.504-1.019 1.69.67-.515-1.745 1.163-1.396-1.806-.056-.975-1.532-.622 1.706-1.774.448z"/><g><path d="M99.848 137.774l-.843-2.997 2.898 1.148 2.58-1.747-.214 3.112 2.466 1.908-3.005.764-1.066 2.928-1.673-2.628-3.138-.092zM89.313 132.907L89.17 135l1.658 1.283-2.02.514-.717 1.968-1.124-1.767-2.11-.062 1.341-1.61-.566-2.015 1.948.772zM79.32 131.195l-1.752.446-.62 1.706-.976-1.532-1.83-.053 1.164-1.397-.491-1.746 1.688.669 1.504-1.019-.124 1.814zM117.185 129.86l-1.735 1.174-1.947-.772.593 2.011-1.341 1.61 2.083.066 1.124 1.767.717-1.969 2.046-.516-1.657-1.283zM123.539 123.29l.514 1.744-1.163 1.396 1.806.057.976 1.532.62-1.707 1.775-.448-1.437-1.112.102-1.811-1.504 1.018z"/></g></g><g font-family="Open Sans" letter-spacing="0" word-spacing="0"><text transform="rotate(-7.562 -3.722 48.907)" y="125.254" x="21.064" style="line-height:1.25;-inkscape-font-specification:'Open Sans'" font-weight="400" font-size="5.978" fill="#fff" stroke-width=".374"><tspan style="-inkscape-font-specification:'Open Sans Semi-Bold'" y="125.254" x="21.064" font-weight="600" font-size="35.869">30% OFF</tspan></text><g style="line-height:1.25;-inkscape-font-specification:'Open Sans'" aria-label="NHS ORGANISATIONS" font-weight="600" font-size="9.878" fill="#d31d21" stroke-width=".265"><path style="-inkscape-font-specification:'Open Sans Semi-Bold'" d="M52.818 68.02l-.746 1.2-6.603-.02-.02.032.28.145q.797.417 1.428.809l3.113 1.935-.553.889-5.989-3.723.739-1.188 6.573.014.015-.024q-.099-.05-.704-.393-.61-.344-.941-.55l-3.138-1.951.558-.897zM57.476 62.235l-.74.89-2.443-2.033-2.08 2.499 2.444 2.033-.737.886L48.5 62l.736-.886 2.218 1.844 2.079-2.499-2.217-1.844.74-.89zM60.424 56.73q.647.682.522 1.538-.125.857-.993 1.68t-1.676 1.078l-.75-.79q.506-.168.987-.445.485-.281.825-.603.497-.471.552-.883.058-.414-.244-.733-.272-.287-.678-.28-.406.006-1.344.377-.969.38-1.6.289-.633-.092-1.118-.603-.607-.64-.5-1.44.106-.798.872-1.525.735-.697 1.768-1.066l.381.935q-.954.36-1.49.868-.405.385-.446.763-.044.374.231.664.19.2.41.264.216.06.528.003.312-.056 1.009-.324.785-.3 1.24-.346.455-.046.82.093.365.14.694.485zM68.008 49.189q.96 1.43.775 2.703-.18 1.272-1.49 2.15-1.325.89-2.565.584-1.238-.313-2.211-1.762-.973-1.45-.782-2.705.195-1.258 1.52-2.148 1.306-.876 2.548-.566 1.243.31 2.205 1.744zm-4.469 3q.726 1.081 1.539 1.349.81.263 1.667-.312.853-.573.915-1.416.065-.845-.669-1.938-.723-1.078-1.53-1.344-.801-.269-1.654.304-.861.578-.928 1.43-.063.85.66 1.927zM70.675 47.53l.716-.358q.721-.36.911-.789.19-.429-.073-.955-.267-.536-.733-.594-.466-.059-1.169.293l-.682.34zm.427.854l1.258 2.52-1.032.515-3.15-6.309 1.783-.89q1.221-.61 2.036-.445.816.165 1.277 1.088.588 1.178-.388 2.29l3.176 1.903-1.174.586-2.768-1.766zM78.459 44.108l2.445-.868 1.184 3.337q-.53.408-1.056.686-.521.277-1.162.505-1.51.535-2.644-.066-1.136-.605-1.713-2.232-.569-1.605.033-2.837.6-1.236 2.218-1.81 1.041-.37 2.115-.3l-.06 1.04q-.942-.086-1.751.201-1.064.378-1.445 1.265-.381.888.03 2.047.432 1.218 1.212 1.658.783.433 1.829.062.527-.187 1.08-.531l-.607-1.714-1.378.488zM88.096 45.465l-1.109-1.76-2.633.58-.252 2.06-1.187.262 1.053-7.482 1.225-.27 4.1 6.346zm-1.62-2.666l-1.058-1.732q-.112-.173-.328-.55-.212-.378-.3-.556 0 .607-.094 1.349l-.226 1.932zM96.076 44.566l-1.408.124-3.945-5.295-.039.004.052.31q.145.888.21 1.628l.32 3.651-1.042.092-.616-7.025L91 37.933l3.934 5.267.028-.003q-.019-.11-.108-.799-.09-.694-.125-1.083l-.322-3.68 1.052-.093zM97.943 44.61l.074-7.051 1.152.012-.074 7.051zM105.176 43.115q-.082.937-.807 1.411-.724.474-1.916.369-1.191-.105-1.918-.542l.096-1.085q.46.268.987.445.532.177.998.218.682.06 1.027-.17.35-.232.388-.669.034-.394-.24-.694-.273-.3-1.173-.757-.926-.473-1.276-1.008-.35-.534-.289-1.235.078-.88.747-1.33.669-.449 1.72-.356 1.01.088 1.97.618l-.447.905q-.903-.476-1.638-.54-.557-.05-.867.17-.31.215-.344.613-.024.274.074.481.098.203.347.399.25.196.911.54.746.39 1.081.7.336.31.474.676.137.366.095.841zM110.653 46.072l-.306-2.058-2.644-.529-1.06 1.785-1.192-.238 3.975-6.426 1.23.246 1.199 7.46zm-.41-3.092l-.27-2.012q-.034-.203-.08-.636-.042-.43-.051-.63-.244.557-.628 1.198l-.985 1.677zM115.062 47.361l-1.099-.35 1.84-5.776-1.975-.63.3-.942 5.05 1.61-.3.941-1.976-.63zM118.027 48.436l2.66-6.53 1.068.434-2.66 6.53zM128.02 49.335q-.801 1.524-2.01 1.968-1.204.446-2.6-.288-1.413-.742-1.734-1.978-.313-1.239.499-2.784.812-1.546 2.007-1.975 1.2-.426 2.613.316 1.392.732 1.71 1.972.318 1.24-.485 2.77zm-4.765-2.504q-.606 1.153-.455 1.995.154.838 1.067 1.318.91.478 1.68.131.776-.344 1.388-1.51.604-1.148.454-1.984-.145-.834-1.054-1.311-.918-.483-1.7-.136-.777.349-1.38 1.497zM132.427 56.717l-1.147-.825.467-6.587-.031-.022-.164.268q-.469.768-.903 1.37l-2.14 2.976-.85-.611 4.119-5.724 1.135.817-.458 6.558.023.017q.057-.096.44-.677.384-.584.612-.901l2.158-3 .858.618zM138.118 59.295q-.637.692-1.5.625-.862-.067-1.742-.877t-1.19-1.6l.739-.801q.201.493.51.955.313.465.657.782.504.464.918.49.418.031.715-.292.268-.29.234-.695-.033-.405-.467-1.316-.445-.94-.396-1.577.049-.637.525-1.155.598-.65 1.403-.597.804.052 1.581.767.745.686 1.183 1.692l-.907.444q-.424-.928-.967-1.428-.412-.38-.791-.394-.376-.019-.648.276-.186.202-.234.426-.046.22.032.528.077.307.392.984.352.763.429 1.214.076.45-.038.824-.114.374-.438.725z"/></g><g style="line-height:1.25;-inkscape-font-specification:'Open Sans'" aria-label="ANNUAL MONITORING FEES" font-weight="600" font-size="9.878" fill="#d31d21" stroke-width=".265"><path style="-inkscape-font-specification:'Open Sans Semi-Bold'" d="M50.922 140.103l1.13-1.747-1.634-2.144-1.975.638-.737-.966 7.23-2.194.76.997-4.031 6.39zm1.737-2.591l1.126-1.69q.11-.174.36-.529.254-.35.378-.506-.55.256-1.262.483l-1.848.608zM56.373 146l-.982-1.016 1.629-6.398-.027-.028-.209.235q-.598.672-1.132 1.188l-2.635 2.548-.728-.752 5.07-4.901.972 1.005-1.615 6.372.02.02q.073-.083.552-.587.483-.507.764-.778l2.656-2.568.734.759zM62.345 150.924l-1.104-.882.797-6.555-.03-.024-.177.26q-.507.743-.971 1.324l-2.288 2.864-.817-.653 4.4-5.51 1.093.873-.786 6.526.022.018q.062-.093.473-.653.414-.565.657-.87l2.306-2.887.825.66zM72.276 148.854l-2.38 3.892q-.408.667-1.003.993-.588.324-1.298.263-.702-.062-1.455-.522-1.12-.685-1.378-1.657-.26-.973.375-2.01l2.37-3.876.988.604-2.328 3.806q-.455.745-.326 1.31.13.565.845 1.003 1.39.85 2.284-.61l2.323-3.798zM74.173 157.54l.185-2.073-2.446-1.134-1.45 1.486-1.102-.511 5.372-5.313 1.138.527-.586 7.533zm.327-3.102l.209-2.02q.015-.205.071-.636.061-.429.099-.624-.368.483-.892 1.016l-1.35 1.4zM76.178 158.338l2.328-6.656 1.088.38-2.001 5.723 2.818.985-.327.934zM86.727 161.292l-.984-6.156-.038-.007q-.148 1.306-.349 2.437l-.6 3.376-1.03-.183 1.233-6.943 1.6.284.948 5.866.028.005 2.966-5.17 1.605.284-1.233 6.943-1.092-.194.61-3.433q.091-.518.263-1.345.176-.826.226-.998l-.038-.007-3.113 5.419zM99.121 158.88q-.064 1.721-.962 2.643-.894.923-2.47.864-1.595-.06-2.418-1.036-.818-.981-.753-2.726.065-1.745.958-2.648.897-.903 2.493-.843 1.571.058 2.394 1.04.822.981.758 2.707zm-5.379-.2q-.048 1.302.452 1.996.5.69 1.532.728 1.026.038 1.572-.608.55-.645.599-1.961.048-1.297-.448-1.986-.49-.689-1.517-.727-1.036-.039-1.591.611-.55.65-.599 1.947zM106.36 161.82l-1.407.127-3.961-5.283-.039.003.053.31q.148.888.215 1.627l.332 3.651-1.043.095-.637-7.023 1.393-.126 3.95 5.254.028-.003q-.02-.11-.111-.799-.092-.693-.128-1.083l-.334-3.679 1.052-.095zM108.193 161.465l-1.258-6.939 1.134-.205 1.258 6.938zM113.516 160.301l-1.117.287-1.505-5.873-2.009.515-.245-.958 5.135-1.316.245.958-2.009.515zM121.169 153.953q.61 1.61.14 2.809-.465 1.197-1.94 1.755-1.493.566-2.63-.015-1.135-.586-1.753-2.219-.618-1.633-.147-2.812.476-1.18 1.97-1.746 1.47-.556 2.61.028 1.139.585 1.75 2.2zm-5.034 1.905q.46 1.218 1.192 1.664.729.44 1.694.075.96-.363 1.212-1.17.256-.809-.21-2.04-.46-1.214-1.184-1.656-.72-.445-1.68-.081-.97.367-1.23 1.182-.254.813.206 2.026zM123.07 152.702l.71-.368q.715-.371.898-.803.184-.432-.087-.954-.275-.531-.742-.583-.467-.051-1.165.31l-.676.352zm.439.848l1.296 2.5-1.023.531-3.246-6.26 1.768-.916q1.212-.629 2.03-.477.817.152 1.293 1.068.606 1.17-.353 2.296l3.205 1.854-1.164.604-2.796-1.724zM129.322 153.557l-3.714-5.994.98-.607 3.714 5.994zM136.605 148.467l-1.132.846-6.142-2.423-.03.023.206.237q.592.678 1.036 1.272l2.196 2.936-.839.627-4.222-5.647 1.12-.838 6.117 2.406.023-.017q-.074-.083-.513-.622-.442-.543-.676-.856l-2.213-2.959.846-.632zM137.454 142.49l1.873-1.795 2.45 2.555q-.316.59-.68 1.06-.362.467-.852.937-1.156 1.109-2.437 1.027-1.284-.085-2.48-1.331-1.178-1.229-1.135-2.6.039-1.373 1.278-2.562.797-.764 1.805-1.142l.372.973q-.894.309-1.514.903-.814.781-.797 1.747.017.966.869 1.853.894.933 1.786 1.014.892.073 1.693-.695.404-.387.767-.929l-1.259-1.312-1.055 1.011zM145.47 139.332l-.702.902-5.567-4.327 2.441-3.142.77.598-1.74 2.24 1.74 1.352 1.63-2.098.774.6-1.631 2.099zM150.09 132.68l-2.157 3.356-5.932-3.813 2.157-3.356.82.527-1.534 2.386 1.615 1.038 1.437-2.236.811.522-1.437 2.236 1.863 1.197 1.533-2.386zM152.684 127.814l-1.842 3.538-6.254-3.256 1.842-3.538.864.45-1.31 2.515 1.703.887 1.227-2.357.856.445-1.228 2.357 1.964 1.023 1.31-2.516zM153.085 121.934q.87.358 1.107 1.19.237.833-.218 1.939-.454 1.106-1.087 1.67l-1.008-.414q.392-.36.718-.81.328-.455.505-.888.26-.633.143-1.031-.117-.402-.523-.57-.366-.15-.733.023-.368.172-1.072.895-.728.743-1.342.919-.614.175-1.266-.093-.816-.335-1.046-1.107-.23-.773.17-1.75.386-.937 1.177-1.696l.731.696q-.723.72-1.004 1.403-.212.517-.095.878.114.36.484.512.254.104.481.072.222-.034.484-.213.261-.18.787-.71.594-.595.99-.823.396-.228.786-.25.39-.023.831.158z"/></g></g></svg>