<svg xmlns="http://www.w3.org/2000/svg" width="1122.52" height="793.707"><path d="M794.208 323.97h271.037V219.05H794.208v104.92" fill="#fff"/><path d="M1072.517 215.181H790.943v113.386h281.574zm-168.364 10.94l-19.438 91.264H854.21l-19.178-63.15h-.257l-12.759 63.15h-23.133l19.593-91.264h30.608l18.799 63.286h.259l12.878-63.286zm87.246 0l-19.058 91.264h-24.564l8.147-39.088h-29.053l-8.148 39.088h-24.566l19.06-91.264h24.564l-7.216 34.915h29.039l7.23-34.915zm70.572 2.49l-5.922 18.172c-4.729-2.218-11.17-4.175-20.232-4.175-9.718 0-17.609 1.424-17.609 8.759 0 12.933 35.613 8.106 35.613 35.826 0 25.228-23.529 31.774-44.814 31.774-9.459 0-20.371-2.236-28.379-4.724l5.783-18.566c4.85 3.143 14.588 5.239 22.596 5.239 7.632 0 19.576-1.444 19.576-10.855 0-14.649-35.612-9.154-35.612-34.898 0-23.547 20.769-30.606 40.876-30.606 11.309 0 21.945 1.186 28.124 4.054" fill="#196fc1"/><g aria-label="NHS Foundation Trust" style="-inkscape-font-specification:Frutiger-Bold" font-weight="700" font-size="40" font-family="Frutiger" fill="#196fc1" text-anchor="end"><path d="M576.338 499.224h-8.646l-11.667-21.485q-1.12-2.03-2.942-6.302.807 5.547.807 9.167v18.62h-6.823V463.65h8.464l11.953 21.536q.625 1.146.807 1.641.208.495.755 1.875t1.12 2.786q-.651-3.724-.651-8.697V463.65h6.823zM613.421 499.224h-7.161V483.91h-14.193v15.313h-7.187V463.65h7.187v14.453h14.193v-14.453h7.161zM621.39 498.417l.651-6.38q4.219 2.291 8.047 2.291 2.474 0 4.323-1.224 1.875-1.224 1.875-3.594 0-2.396-1.589-3.411-1.562-1.016-5.703-2.787-4.14-1.797-6.224-3.984-2.057-2.214-2.057-6.302 0-3.412 1.719-5.677 1.745-2.292 4.583-3.36 2.865-1.093 6.224-1.093 4.505 0 8.49 1.406l-.6 5.86q-3.88-1.772-7.37-1.772-2.29 0-4.01 1.042-1.692 1.016-1.692 3.23 0 2.109 1.276 2.89 1.276.781 5.781 2.786 4.531 1.98 6.667 4.245 2.135 2.24 2.135 6.302 0 2.89-1.068 5-1.067 2.11-2.968 3.49-1.875 1.354-4.323 2.005-2.422.651-5.157.651-4.322 0-9.01-1.614zM672.796 483.807v15.417h-7.24V463.65h19.74v5.86h-12.552v8.437h12.058v5.86zM716.807 486.255q0 3.047-.99 5.599-.99 2.526-2.812 4.323-1.797 1.77-4.323 2.76-2.526.99-5.625.99-4.089 0-7.188-1.77-3.099-1.772-4.791-5-1.667-3.23-1.667-7.267 0-4.036 1.719-7.161 1.718-3.125 4.817-4.844 3.125-1.745 7.162-1.745 3.125 0 5.65 1.042 2.553 1.042 4.35 2.969 1.797 1.901 2.734 4.48.964 2.577.964 5.624zm-7.084-.156q0-2.136-.703-4.193-.677-2.057-2.187-3.385-1.51-1.328-3.724-1.328-2.11 0-3.646 1.302-1.51 1.302-2.24 3.333-.729 2.005-.729 4.062 0 2.214.677 4.271.703 2.058 2.214 3.386 1.51 1.302 3.828 1.302 1.64 0 2.89-.781 1.25-.808 2.032-2.032.781-1.25 1.172-2.786.416-1.563.416-3.151zM745.973 472.818v16.12q.053 1.12.105 3.463.078 2.344.13 3.75.052 1.406.156 3.073h-6.458l-.209-4.063q-.911 1.433-2.213 2.422-1.276.99-2.89 1.537-1.616.52-3.23.52-3.672 0-5.73-1.51-2.057-1.51-2.838-4.14-.755-2.63-.755-6.277v-14.895h6.823v12.708q0 2.474.234 4.193.26 1.692 1.328 2.968 1.068 1.25 3.23 1.25 3.099 0 4.296-2.604 1.198-2.63 1.198-6.146v-12.37zM759.697 472.818l.157 4.218q3.177-4.635 8.906-4.635 5.312 0 7.161 3.151 1.85 3.125 1.85 8.802v14.87h-6.824v-13.281q0-3.516-.911-5.704-.886-2.187-3.88-2.187-3.203 0-4.506 2.578-1.302 2.552-1.302 6.068v12.526H753.5v-16.797q0-5.599-.26-9.61zM808.812 499.224h-6.458l-.105-4.48q-1.171 2.37-3.359 3.646-2.161 1.25-4.896 1.25-2.864 0-5.026-1.12-2.135-1.145-3.463-3.072-1.328-1.927-1.98-4.375-.625-2.448-.625-5.13 0-3.542 1.172-6.641 1.172-3.125 3.62-5.026 2.474-1.927 6.146-1.927 2.76 0 4.818 1.224 2.057 1.224 3.385 3.62-.26-1.928-.26-4.688v-11.693h6.823v30.73q.052 2.552.078 4.479.052 1.927.13 3.203zm-6.927-13.021q0-2.057-.651-3.88-.651-1.85-2.057-3.047-1.38-1.224-3.438-1.224-3.073 0-4.427 2.37-1.328 2.343-1.328 5.677 0 3.125 1.484 5.65 1.485 2.527 4.375 2.527 1.953 0 3.334-1.172 1.406-1.198 2.057-3.02.65-1.85.65-3.881zM837.77 499.224h-6.094l-.104-3.959q-1.224 2.11-3.437 3.256-2.188 1.12-4.766 1.12-2.63 0-4.713-.912-2.058-.911-3.256-2.76-1.197-1.875-1.197-4.532 0-4.948 3.88-6.77 3.88-1.823 9.453-1.823.807 0 1.042.026.234 0 1.041.052.808.026 1.64.078 0-2.943-1.431-4.375-1.433-1.432-4.428-1.432-4.53 0-8.177 2.89l-.208-5.937q4.245-1.797 9.193-1.797 1.849 0 3.672.364 1.823.365 3.359 1.224 1.563.834 2.578 2.24 1.042 1.406 1.354 3.23.339 1.796.339 4.296v5.182q.026 2.604.052 4.766.052 2.135.208 5.573zm-6.406-12.005q-.26-.053-.807-.053h-.834q-2.24 0-4.114.26-1.85.235-3.255 1.25-1.38.99-1.38 2.918 0 1.562 1.223 2.5 1.25.911 2.891.911 3.099 0 4.687-2.292 1.589-2.291 1.589-5.494zM859.203 493.573l.234 5.338q-2.604.521-4.61.521-3.359 0-5.312-1.224-1.953-1.25-2.734-3.515-.782-2.292-.782-5.6v-11.041h-4.974v-5.078h5.079v-5.365l6.822-2.24v7.605h6.016v5.078h-6.016v9.61q0 3.072.652 4.687.677 1.588 3.28 1.588.964 0 2.345-.364zM870.947 499.224h-6.823v-26.406h6.823zm.104-31.198h-7.03v-6.458h7.03zM903.734 486.255q0 3.047-.99 5.599-.99 2.526-2.812 4.323-1.797 1.77-4.323 2.76-2.526.99-5.625.99-4.089 0-7.188-1.77-3.099-1.772-4.791-5-1.667-3.23-1.667-7.267 0-4.036 1.719-7.161 1.718-3.125 4.817-4.844 3.125-1.745 7.162-1.745 3.125 0 5.65 1.042 2.553 1.042 4.35 2.969 1.797 1.901 2.734 4.48.964 2.577.964 5.624zm-7.084-.156q0-2.136-.703-4.193-.677-2.057-2.187-3.385-1.51-1.328-3.724-1.328-2.11 0-3.646 1.302-1.51 1.302-2.24 3.333-.729 2.005-.729 4.062 0 2.214.677 4.271.703 2.058 2.214 3.386 1.51 1.302 3.828 1.302 1.64 0 2.89-.781 1.25-.808 2.032-2.032.781-1.25 1.172-2.786.416-1.563.416-3.151zM915.635 472.818l.156 4.218q3.177-4.635 8.906-4.635 5.313 0 7.162 3.151 1.849 3.125 1.849 8.802v14.87h-6.823v-13.281q0-3.516-.912-5.704-.885-2.187-3.88-2.187-3.203 0-4.505 2.578-1.302 2.552-1.302 6.068v12.526h-6.85v-16.797q0-5.599-.26-9.61zM969.541 499.224h-7.187V469.51h-10.157v-5.86h27.578v5.86h-10.234zM990.817 499.224h-6.823V480.76q-.13-6.588-.208-7.942h6.198l.156 6.666q.885-3.125 2.682-5 1.823-1.875 4.74-1.875.885 0 2.005.26v6.407q-1.354-.365-2.396-.365-2.422 0-3.854 1.276t-1.98 3.282q-.52 1.979-.52 4.349v.52zM1027.51 472.818v16.12q.052 1.12.104 3.463.078 2.344.13 3.75.052 1.406.156 3.073h-6.458l-.208-4.063q-.912 1.433-2.214 2.422-1.276.99-2.89 1.537-1.615.52-3.23.52-3.671 0-5.729-1.51-2.057-1.51-2.838-4.14-.755-2.63-.755-6.277v-14.895h6.822v12.708q0 2.474.235 4.193.26 1.692 1.328 2.968 1.068 1.25 3.23 1.25 3.098 0 4.296-2.604 1.198-2.63 1.198-6.146v-12.37zM1033.604 498.52l.312-5.755q3.646 1.875 6.719 1.875 1.693 0 3.203-.729 1.51-.729 1.51-2.265 0-1.328-2.161-2.266-2.162-.937-4.35-1.849-2.16-.911-3.75-2.552-1.588-1.64-1.588-4.583 0-2.813 1.641-4.61 1.667-1.797 4.219-2.604 2.552-.833 5.286-.833 2.89 0 6.51 1.015l-.494 5.105q-3.177-1.016-5.6-1.016-1.77 0-3.28.599-1.51.599-1.51 2.083 0 1.276 2.057 2.136 2.083.833 4.348 1.692 2.292.834 3.907 2.526 1.64 1.667 1.64 4.792 0 2.839-1.588 4.74-1.563 1.9-4.063 2.786-2.5.886-5.286.886-3.177 0-7.682-1.172zM1072.484 493.573l.234 5.338q-2.604.521-4.61.521-3.359 0-5.312-1.224-1.953-1.25-2.734-3.515-.781-2.292-.781-5.6v-11.041h-4.974v-5.078h5.078v-5.365l6.823-2.24v7.605h6.015v5.078h-6.015v9.61q0 3.072.65 4.687.678 1.588 3.282 1.588.964 0 2.344-.364z" style="text-align:end"/></g><g><g aria-label="Alder Hey Children's" style="-inkscape-font-specification:Frutiger-Bold" font-weight="700" font-size="600" font-family="Frutiger" fill="#231f20" stroke-width="10" text-anchor="end"><path d="M398.311 420.152h-11.757l-4.649-12.148h-22.07l-4.57 12.148h-11.133l20.82-53.36h11.992zm-19.687-20.898l-6.875-18.868q-.235-.625-1.055-3.515-.312 1.21-.625 2.46-.312 1.212-.547 1.954l-6.406 17.969zM414.366 420.152h-10.234v-57.617h10.234zM461.32 420.152h-9.688l-.157-6.719q-1.757 3.555-5.039 5.47-3.242 1.874-7.343 1.874-4.297 0-7.54-1.68-3.203-1.718-5.195-4.609-1.992-2.89-2.969-6.563-.937-3.671-.937-7.695 0-5.312 1.758-9.96 1.758-4.688 5.43-7.54 3.71-2.89 9.218-2.89 4.14 0 7.227 1.835 3.086 1.836 5.078 5.43-.39-2.89-.39-7.031v-17.54h10.234v46.095q.078 3.828.117 6.718.078 2.891.195 4.805zm-10.391-19.531q0-3.086-.977-5.82-.977-2.774-3.086-4.57-2.07-1.837-5.156-1.837-4.61 0-6.64 3.555-1.993 3.516-1.993 8.516 0 4.687 2.227 8.476 2.226 3.79 6.562 3.79 2.93 0 5-1.759 2.11-1.797 3.086-4.53.977-2.774.977-5.821zM503.546 409.605l.156 8.867q-6.29 2.735-13.594 2.735-4.883 0-8.71-1.367-3.79-1.407-6.485-4.102-2.695-2.734-4.102-6.563-1.406-3.867-1.406-8.789 0-4.53 1.29-8.32 1.327-3.828 3.788-6.601 2.461-2.813 6.055-4.375 3.633-1.563 8.203-1.563 4.453 0 7.852 1.602 3.398 1.601 5.507 4.414 2.149 2.812 3.204 6.523 1.054 3.672 1.054 8.086 0 .781-.039 1.172-.039.39-.078.976-.04.586-.117 1.368h-26.64q.39 4.687 3.632 7.304 3.281 2.618 8.125 2.618 5.469 0 12.305-3.985zm-6.953-13.047q-.079-2.656-.977-4.883-.86-2.226-2.695-3.593-1.797-1.367-4.492-1.367-2.774 0-4.766 1.367-1.953 1.328-3.047 3.554-1.055 2.227-1.29 4.922zM525.07 420.152h-10.235v-27.695q-.196-9.883-.313-11.914h9.297l.235 10q1.328-4.688 4.023-7.5 2.734-2.813 7.11-2.813 1.327 0 3.007.39v9.61q-2.031-.547-3.594-.547-3.632 0-5.78 1.914-2.15 1.914-2.97 4.922-.78 2.969-.78 6.524v.78zM610.772 420.152H600.03v-22.969h-21.289v22.97H567.96v-53.36h10.781v21.68h21.29v-21.68h10.741zM654.17 409.605l.157 8.867q-6.29 2.735-13.594 2.735-4.883 0-8.71-1.367-3.79-1.407-6.485-4.102-2.695-2.734-4.102-6.563-1.406-3.867-1.406-8.789 0-4.53 1.29-8.32 1.327-3.828 3.788-6.601 2.461-2.813 6.055-4.375 3.633-1.563 8.203-1.563 4.453 0 7.852 1.602 3.398 1.601 5.507 4.414 2.149 2.812 3.204 6.523 1.054 3.672 1.054 8.086 0 .781-.039 1.172-.039.39-.078.976-.04.586-.117 1.368h-26.64q.39 4.687 3.632 7.304 3.281 2.618 8.125 2.618 5.469 0 12.305-3.985zm-6.952-13.047q-.079-2.656-.977-4.883-.86-2.226-2.695-3.593-1.797-1.367-4.492-1.367-2.774 0-4.766 1.367-1.953 1.328-3.047 3.554-1.055 2.227-1.29 4.922zM663.311 435.816l.703-7.734q2.266.86 4.336.86 3.125 0 4.883-1.798 1.758-1.797 3.047-5l-15.625-41.68h11.367l8.164 24.18q.274.86.703 2.227.43 1.328.977 3.125.586-2.11 1.055-3.79.508-1.718.86-2.773l7.694-22.968h10.391l-15.742 42.421q-1.797 4.649-3.633 7.5-1.797 2.891-4.766 4.688-2.93 1.797-7.226 1.797-2.89 0-7.188-1.055zM769.874 409.37l.39 9.415q-6.64 1.758-12.148 1.758-6.25 0-11.562-1.64-5.313-1.642-9.375-5-4.024-3.4-6.211-8.4-2.149-5-2.149-11.523t1.953-11.68q1.953-5.156 5.664-8.71 3.75-3.594 8.985-5.391 5.234-1.797 11.718-1.797 5.782 0 12.891 2.305l-.86 9.14q-5.273-2.89-11.445-2.89-5.234 0-9.218 2.265-3.985 2.227-6.133 6.25-2.11 4.024-2.11 9.258 0 5.43 2.227 9.766 2.266 4.336 6.406 6.719 4.14 2.382 9.688 2.382 5.273 0 11.289-2.226zM813.624 420.152h-10.235v-19.219q0-5.703-1.25-9.101-1.21-3.438-5.78-3.438-4.923 0-6.915 4.063-1.992 4.023-1.992 9.453v18.242h-10.234v-57.617h10.234v23.633q2.227-3.203 5.352-4.766 3.125-1.562 7.148-1.562 4.18 0 6.875 1.367 2.734 1.328 4.18 3.633 1.484 2.304 2.03 5.39.587 3.047.587 7.188zM833.936 420.152h-10.234v-39.61h10.234zm.157-46.797h-10.547v-9.687h10.547zM854.483 420.152H844.25v-57.617h10.234zM901.436 420.152h-9.687l-.156-6.719q-1.758 3.555-5.04 5.47-3.242 1.874-7.343 1.874-4.297 0-7.54-1.68-3.202-1.718-5.195-4.609-1.992-2.89-2.968-6.563-.938-3.671-.938-7.695 0-5.312 1.758-9.96 1.758-4.688 5.43-7.54 3.71-2.89 9.218-2.89 4.141 0 7.227 1.835 3.086 1.836 5.078 5.43-.39-2.89-.39-7.031v-17.54h10.234v46.095q.078 3.828.117 6.718.078 2.891.195 4.805zm-10.39-19.531q0-3.086-.977-5.82-.976-2.774-3.086-4.57-2.07-1.837-5.156-1.837-4.61 0-6.64 3.555-1.993 3.516-1.993 8.516 0 4.687 2.227 8.476 2.226 3.79 6.562 3.79 2.93 0 5-1.759 2.11-1.797 3.086-4.53.977-2.774.977-5.821zM922.374 420.152h-10.235v-27.695q-.195-9.883-.312-11.914h9.297l.234 10q1.328-4.688 4.024-7.5 2.734-2.813 7.109-2.813 1.328 0 3.008.39v9.61q-2.031-.547-3.594-.547-3.633 0-5.781 1.914-2.149 1.914-2.969 4.922-.781 2.969-.781 6.524v.78zM973.663 409.605l.156 8.867q-6.289 2.735-13.594 2.735-4.882 0-8.71-1.367-3.79-1.407-6.485-4.102-2.695-2.734-4.102-6.563-1.406-3.867-1.406-8.789 0-4.53 1.29-8.32 1.327-3.828 3.788-6.601 2.461-2.813 6.055-4.375 3.633-1.563 8.203-1.563 4.453 0 7.852 1.602 3.398 1.601 5.508 4.414 2.148 2.812 3.203 6.523 1.054 3.672 1.054 8.086 0 .781-.039 1.172-.039.39-.078.976t-.117 1.368h-26.64q.39 4.687 3.632 7.304 3.281 2.618 8.125 2.618 5.469 0 12.305-3.985zm-6.953-13.047q-.078-2.656-.977-4.883-.86-2.226-2.695-3.593-1.797-1.367-4.492-1.367-2.774 0-4.766 1.367-1.953 1.328-3.047 3.554-1.055 2.227-1.289 4.922zM994.327 380.543l.234 6.328q4.766-6.953 13.36-6.953 7.968 0 10.742 4.726 2.773 4.688 2.773 13.203v22.305h-10.234V400.23q0-5.273-1.367-8.555-1.328-3.28-5.82-3.28-4.805 0-6.758 3.866-1.954 3.829-1.954 9.102v18.79H985.03v-25.196q0-8.399-.39-14.414zM1038.975 383.98h-7.539l-1.836-21.445h11.29zM1047.686 419.097l.47-8.632q5.468 2.812 10.077 2.812 2.54 0 4.805-1.094 2.265-1.093 2.265-3.398 0-1.992-3.242-3.399-3.242-1.406-6.523-2.773-3.242-1.367-5.625-3.828t-2.383-6.875q0-4.219 2.461-6.914 2.5-2.696 6.328-3.906 3.828-1.25 7.93-1.25 4.336 0 9.765 1.523l-.742 7.656q-4.765-1.523-8.398-1.523-2.656 0-4.922.898-2.266.899-2.266 3.125 0 1.914 3.086 3.203 3.125 1.25 6.524 2.54 3.437 1.25 5.86 3.788 2.46 2.5 2.46 7.188 0 4.258-2.383 7.11-2.344 2.85-6.094 4.18-3.75 1.327-7.93 1.327-4.765 0-11.523-1.758z" style="line-height:0;text-align:end"/></g></g></svg>