<svg xmlns="http://www.w3.org/2000/svg" width="1122.52" height="793.707"><path d="M794.208 323.97h271.037V219.05H794.208v104.92" fill="#fff"/><path d="M1072.517 215.181H790.943v113.386h281.574zm-168.364 10.94l-19.438 91.264H854.21l-19.178-63.15h-.257l-12.759 63.15h-23.133l19.593-91.264h30.608l18.799 63.286h.259l12.878-63.286zm87.246 0l-19.058 91.264h-24.564l8.147-39.088h-29.053l-8.148 39.088h-24.566l19.06-91.264h24.564l-7.216 34.915h29.039l7.23-34.915zm70.572 2.49l-5.922 18.172c-4.729-2.218-11.17-4.175-20.232-4.175-9.718 0-17.609 1.424-17.609 8.759 0 12.933 35.613 8.106 35.613 35.826 0 25.228-23.529 31.774-44.814 31.774-9.459 0-20.371-2.236-28.379-4.724l5.783-18.566c4.85 3.143 14.588 5.239 22.596 5.239 7.632 0 19.576-1.444 19.576-10.855 0-14.649-35.612-9.154-35.612-34.898 0-23.547 20.769-30.606 40.876-30.606 11.309 0 21.945 1.186 28.124 4.054" fill="#196fc1"/><g><g aria-label="Business Services Authority" style="-inkscape-font-specification:Frutiger-Bold" font-weight="700" font-size="600" font-family="Frutiger" fill="#231f20" stroke-width="10" text-anchor="end"><path d="M93.741 420.152v-53.36h17.031q7.93 0 13.32 2.97 5.391 2.93 5.391 10.468 0 5.156-2.656 8.086-2.617 2.89-7.813 3.984 2.579.274 4.883 1.329 2.344 1.015 4.024 2.734 1.68 1.68 2.578 3.945.898 2.227.898 5.117 0 2.461-.781 4.766t-2.344 4.18q-1.562 1.836-3.75 3.125-3.008 1.797-6.289 2.226-3.242.43-8.32.43zm10.781-8.164h5.196q4.609 0 7.773-1.758 3.203-1.797 3.203-6.015 0-4.102-2.93-5.938-2.93-1.875-7.304-1.875h-5.938zm0-23.594h5.117q3.946 0 6.524-1.484 2.617-1.485 2.617-5.078 0-3.711-2.422-5.235-2.422-1.562-6.367-1.562h-5.469zM176.202 380.543v24.18q.078 1.68.156 5.195.117 3.515.196 5.625.078 2.11.234 4.61H167.1l-.312-6.095q-1.367 2.149-3.32 3.633-1.914 1.484-4.336 2.305-2.422.781-4.844.781-5.508 0-8.594-2.266-3.086-2.265-4.258-6.21-1.132-3.946-1.132-9.415v-22.343h10.234v19.062q0 3.711.351 6.29.391 2.538 1.993 4.452 1.601 1.875 4.843 1.875 4.649 0 6.446-3.906 1.797-3.945 1.797-9.219v-18.554zM185.343 419.097l.468-8.632q5.47 2.812 10.078 2.812 2.54 0 4.805-1.094 2.266-1.093 2.266-3.398 0-1.992-3.242-3.399-3.243-1.406-6.524-2.773-3.242-1.367-5.625-3.828t-2.383-6.875q0-4.219 2.461-6.914 2.5-2.696 6.328-3.906 3.829-1.25 7.93-1.25 4.336 0 9.766 1.523l-.742 7.656q-4.766-1.523-8.399-1.523-2.656 0-4.922.898-2.265.899-2.265 3.125 0 1.914 3.086 3.203 3.125 1.25 6.523 2.54 3.437 1.25 5.86 3.788 2.46 2.5 2.46 7.188 0 4.258-2.383 7.11-2.343 2.85-6.093 4.18-3.75 1.327-7.93 1.327-4.766 0-11.523-1.758zM231.749 420.152h-10.235v-39.61h10.235zm.156-46.797h-10.547v-9.687h10.547zM251.827 380.543l.234 6.328q4.766-6.953 13.36-6.953 7.968 0 10.742 4.726 2.773 4.688 2.773 13.203v22.305h-10.234V400.23q0-5.273-1.367-8.555-1.328-3.28-5.82-3.28-4.805 0-6.758 3.866-1.953 3.829-1.953 9.102v18.79H242.53v-25.196q0-8.399-.39-14.414zM320.772 409.605l.157 8.867q-6.29 2.735-13.594 2.735-4.883 0-8.711-1.367-3.79-1.407-6.485-4.102-2.695-2.734-4.101-6.563-1.406-3.867-1.406-8.789 0-4.53 1.289-8.32 1.328-3.828 3.789-6.601 2.46-2.813 6.054-4.375 3.633-1.563 8.204-1.563 4.453 0 7.851 1.602 3.399 1.601 5.508 4.414 2.148 2.812 3.203 6.523 1.055 3.672 1.055 8.086 0 .781-.04 1.172-.038.39-.077.976-.04.586-.118 1.368h-26.64q.39 4.687 3.633 7.304 3.28 2.618 8.125 2.618 5.468 0 12.304-3.985zm-6.953-13.047q-.078-2.656-.976-4.883-.86-2.226-2.696-3.593-1.797-1.367-4.492-1.367-2.773 0-4.766 1.367-1.953 1.328-3.046 3.554-1.055 2.227-1.29 4.922zM329.991 419.097l.469-8.632q5.469 2.812 10.078 2.812 2.539 0 4.805-1.094 2.265-1.093 2.265-3.398 0-1.992-3.242-3.399-3.242-1.406-6.523-2.773-3.243-1.367-5.625-3.828-2.383-2.461-2.383-6.875 0-4.219 2.46-6.914 2.5-2.696 6.329-3.906 3.828-1.25 7.93-1.25 4.335 0 9.765 1.523l-.742 7.656q-4.766-1.523-8.398-1.523-2.657 0-4.922.898-2.266.899-2.266 3.125 0 1.914 3.086 3.203 3.125 1.25 6.523 2.54 3.438 1.25 5.86 3.788 2.46 2.5 2.46 7.188 0 4.258-2.382 7.11-2.344 2.85-6.094 4.18-3.75 1.327-7.93 1.327-4.765 0-11.523-1.758zM364.405 419.097l.469-8.632q5.469 2.812 10.078 2.812 2.539 0 4.805-1.094 2.265-1.093 2.265-3.398 0-1.992-3.242-3.399-3.242-1.406-6.523-2.773-3.243-1.367-5.625-3.828-2.383-2.461-2.383-6.875 0-4.219 2.46-6.914 2.5-2.696 6.329-3.906 3.828-1.25 7.93-1.25 4.336 0 9.765 1.523l-.742 7.656q-4.766-1.523-8.398-1.523-2.657 0-4.922.898-2.266.899-2.266 3.125 0 1.914 3.086 3.203 3.125 1.25 6.523 2.54 3.438 1.25 5.86 3.788 2.46 2.5 2.46 7.188 0 4.258-2.382 7.11-2.344 2.85-6.094 4.18-3.75 1.327-7.93 1.327-4.765 0-11.523-1.758zM423.194 418.941l.977-9.57q6.328 3.437 12.07 3.437 3.71 0 6.484-1.836 2.813-1.836 2.813-5.39 0-3.594-2.383-5.117-2.344-1.524-8.555-4.18-6.21-2.695-9.336-5.977-3.085-3.32-3.085-9.453 0-5.117 2.578-8.515 2.617-3.438 6.875-5.04 4.297-1.64 9.336-1.64 6.757 0 12.734 2.11l-.898 8.788q-5.82-2.656-11.055-2.656-3.438 0-6.016 1.563-2.539 1.523-2.539 4.843 0 3.164 1.914 4.336 1.914 1.172 8.672 4.18 6.797 2.969 10 6.367 3.203 3.36 3.203 9.453 0 4.336-1.601 7.5-1.602 3.164-4.453 5.235-2.813 2.03-6.485 3.007-3.633.977-7.734.977-6.485 0-13.516-2.422zM497.843 409.605l.156 8.867q-6.29 2.735-13.594 2.735-4.883 0-8.71-1.367-3.79-1.407-6.485-4.102-2.696-2.734-4.102-6.563-1.406-3.867-1.406-8.789 0-4.53 1.289-8.32 1.328-3.828 3.79-6.601 2.46-2.813 6.054-4.375 3.633-1.563 8.203-1.563 4.453 0 7.851 1.602 3.399 1.601 5.508 4.414 2.149 2.812 3.203 6.523 1.055 3.672 1.055 8.086 0 .781-.039 1.172-.04.39-.078.976-.04.586-.117 1.368h-26.64q.39 4.687 3.632 7.304 3.281 2.618 8.125 2.618 5.469 0 12.305-3.985zm-6.954-13.047q-.078-2.656-.976-4.883-.86-2.226-2.695-3.593-1.797-1.367-4.493-1.367-2.773 0-4.765 1.367-1.953 1.328-3.047 3.554-1.055 2.227-1.29 4.922zM519.366 420.152h-10.234v-27.695q-.196-9.883-.313-11.914h9.297l.234 10q1.329-4.688 4.024-7.5 2.734-2.813 7.11-2.813 1.327 0 3.007.39v9.61q-2.031-.547-3.594-.547-3.633 0-5.781 1.914-2.148 1.914-2.969 4.922-.781 2.969-.781 6.524v.78zM560.655 420.152H549.21l-14.805-39.61h11.211l6.64 19.063q2.618 7.305 3.204 11.758.937-4.727 2.5-9.219l7.11-21.601h10.312zM591.514 420.152H581.28v-39.61h10.234zm.157-46.797h-10.547v-9.687h10.547zM628.702 410.308l.586 8.633q-5.156 1.524-9.219 1.524-4.531 0-8.32-1.368-3.79-1.406-6.524-4.062-2.695-2.656-4.14-6.445-1.406-3.829-1.406-8.438 0-5.86 2.5-10.39 2.539-4.532 7.109-7.032 4.61-2.5 10.39-2.5 4.297 0 8.711 1.29l-.78 8.241q-3.516-1.367-6.329-1.367-3.203 0-5.742 1.602-2.54 1.562-3.906 4.219-1.328 2.617-1.328 5.859 0 5.351 3.125 8.594 3.125 3.242 8.398 3.242 3.36 0 6.875-1.602zM668.233 409.605l.156 8.867q-6.289 2.735-13.593 2.735-4.883 0-8.711-1.367-3.79-1.407-6.485-4.102-2.695-2.734-4.101-6.563-1.406-3.867-1.406-8.789 0-4.53 1.289-8.32 1.328-3.828 3.789-6.601 2.46-2.813 6.054-4.375 3.633-1.563 8.204-1.563 4.453 0 7.851 1.602 3.399 1.601 5.508 4.414 2.148 2.812 3.203 6.523 1.055 3.672 1.055 8.086 0 .781-.04 1.172-.038.39-.077.976-.04.586-.118 1.368h-26.64q.39 4.687 3.633 7.304 3.28 2.618 8.125 2.618 5.468 0 12.304-3.985zm-6.953-13.047q-.078-2.656-.976-4.883-.86-2.226-2.696-3.593-1.797-1.367-4.492-1.367-2.773 0-4.766 1.367-1.953 1.328-3.046 3.554-1.055 2.227-1.29 4.922zM677.452 419.097l.469-8.632q5.468 2.812 10.078 2.812 2.539 0 4.805-1.094 2.265-1.093 2.265-3.398 0-1.992-3.242-3.399-3.242-1.406-6.523-2.773-3.243-1.367-5.625-3.828-2.383-2.461-2.383-6.875 0-4.219 2.46-6.914 2.5-2.696 6.329-3.906 3.828-1.25 7.93-1.25 4.335 0 9.765 1.523l-.742 7.656q-4.766-1.523-8.399-1.523-2.656 0-4.921.898-2.266.899-2.266 3.125 0 1.914 3.086 3.203 3.125 1.25 6.523 2.54 3.438 1.25 5.86 3.788 2.46 2.5 2.46 7.188 0 4.258-2.382 7.11-2.344 2.85-6.094 4.18-3.75 1.327-7.93 1.327-4.765 0-11.523-1.758zM785.616 420.152h-11.758l-4.648-12.148h-22.07l-4.57 12.148h-11.134l20.82-53.36h11.993zm-19.687-20.898l-6.875-18.868q-.235-.625-1.055-3.515-.313 1.21-.625 2.46-.313 1.212-.547 1.954l-6.406 17.969zM827.1 380.543v24.18q.078 1.68.157 5.195.117 3.515.195 5.625t.234 4.61H818l-.313-6.095q-1.367 2.149-3.32 3.633-1.914 1.484-4.336 2.305-2.422.781-4.844.781-5.507 0-8.593-2.266-3.086-2.265-4.258-6.21-1.133-3.946-1.133-9.415v-22.343h10.234v19.062q0 3.711.352 6.29.39 2.538 1.992 4.452 1.602 1.875 4.844 1.875 4.648 0 6.445-3.906 1.797-3.945 1.797-9.219v-18.554zM860.147 411.675l.352 8.008q-3.906.782-6.914.782-5.04 0-7.969-1.836-2.93-1.875-4.102-5.274-1.171-3.437-1.171-8.398v-16.563h-7.461v-7.617h7.617v-8.047l10.234-3.36v11.407h9.024v7.617h-9.024v14.414q0 4.61.977 7.032 1.015 2.382 4.922 2.382 1.445 0 3.515-.547zM903.936 420.152h-10.234v-19.219q0-5.703-1.25-9.101-1.211-3.438-5.781-3.438-4.922 0-6.914 4.063-1.993 4.023-1.993 9.453v18.242H867.53v-57.617h10.234v23.633q2.227-3.203 5.352-4.766 3.125-1.562 7.148-1.562 4.18 0 6.875 1.367 2.735 1.328 4.18 3.633 1.484 2.304 2.031 5.39.586 3.047.586 7.188zM952.803 400.699q0 4.57-1.484 8.398-1.484 3.79-4.219 6.485-2.695 2.656-6.484 4.14-3.79 1.485-8.438 1.485-6.132 0-10.78-2.657-4.65-2.656-7.188-7.5-2.5-4.843-2.5-10.898t2.578-10.742q2.578-4.688 7.226-7.266 4.688-2.617 10.743-2.617 4.687 0 8.476 1.563 3.828 1.562 6.524 4.453 2.695 2.851 4.101 6.718 1.445 3.868 1.445 8.438zm-10.625-.234q0-3.204-1.054-6.29-1.016-3.085-3.281-5.078-2.266-1.992-5.586-1.992-3.164 0-5.47 1.953-2.265 1.953-3.359 5-1.093 3.008-1.093 6.094 0 3.32 1.015 6.406 1.055 3.086 3.32 5.078 2.266 1.954 5.743 1.954 2.46 0 4.336-1.172 1.875-1.211 3.047-3.047 1.172-1.875 1.757-4.18.625-2.344.625-4.726zM971.514 420.152H961.28v-27.695q-.195-9.883-.312-11.914h9.296l.235 10q1.328-4.688 4.023-7.5 2.735-2.813 7.11-2.813 1.328 0 3.007.39v9.61q-2.03-.547-3.593-.547-3.633 0-5.782 1.914-2.148 1.914-2.968 4.922-.782 2.969-.782 6.524v.78zM1001.202 420.152h-10.234v-39.61h10.234zm.156-46.797h-10.547v-9.687h10.547zM1033.741 411.675l.352 8.008q-3.907.782-6.915.782-5.039 0-7.968-1.836-2.93-1.875-4.102-5.274-1.172-3.437-1.172-8.398v-16.563h-7.46v-7.617h7.617v-8.047l10.234-3.36v11.407h9.023v7.617h-9.023v14.414q0 4.61.976 7.032 1.016 2.382 4.922 2.382 1.446 0 3.516-.547zM1039.288 435.816l.703-7.734q2.266.86 4.336.86 3.125 0 4.883-1.798 1.758-1.797 3.047-5l-15.625-41.68h11.367l8.164 24.18q.273.86.703 2.227.43 1.328.977 3.125.585-2.11 1.054-3.79.508-1.718.86-2.773l7.695-22.968h10.39l-15.742 42.421q-1.797 4.649-3.632 7.5-1.797 2.891-4.766 4.688-2.93 1.797-7.227 1.797-2.89 0-7.187-1.055z" style="line-height:0;text-align:end"/></g></g></svg>