<svg xmlns="http://www.w3.org/2000/svg" width="1122.52" height="793.707"><path d="M794.208 323.97h271.037V219.05H794.208v104.92" fill="#fff"/><path d="M1072.517 215.181H790.943v113.386h281.574zm-168.364 10.94l-19.438 91.264H854.21l-19.178-63.15h-.257l-12.759 63.15h-23.133l19.593-91.264h30.608l18.799 63.286h.259l12.878-63.286zm87.246 0l-19.058 91.264h-24.564l8.147-39.088h-29.053l-8.148 39.088h-24.566l19.06-91.264h24.564l-7.216 34.915h29.039l7.23-34.915zm70.572 2.49l-5.922 18.172c-4.729-2.218-11.17-4.175-20.232-4.175-9.718 0-17.609 1.424-17.609 8.759 0 12.933 35.613 8.106 35.613 35.826 0 25.228-23.529 31.774-44.814 31.774-9.459 0-20.371-2.236-28.379-4.724l5.783-18.566c4.85 3.143 14.588 5.239 22.596 5.239 7.632 0 19.576-1.444 19.576-10.855 0-14.649-35.612-9.154-35.612-34.898 0-23.547 20.769-30.606 40.876-30.606 11.309 0 21.945 1.186 28.124 4.054" fill="#196fc1"/><g aria-label="NHS Foundation Trust" style="-inkscape-font-specification:Frutiger-Bold" font-weight="700" font-size="40" font-family="Frutiger" fill="#196fc1" text-anchor="end"><path d="M576.338 565.811h-8.646l-11.667-21.484q-1.12-2.032-2.942-6.302.807 5.547.807 9.166v18.62h-6.823v-35.573h8.464l11.953 21.537q.625 1.145.807 1.64.208.495.755 1.875t1.12 2.787q-.651-3.724-.651-8.698v-19.14h6.823zM613.421 565.811h-7.161V550.5h-14.193v15.312h-7.187v-35.573h7.187v14.453h14.193v-14.453h7.161zM621.39 565.004l.651-6.38q4.219 2.291 8.047 2.291 2.474 0 4.323-1.224 1.875-1.224 1.875-3.593 0-2.396-1.589-3.412-1.562-1.016-5.703-2.786-4.14-1.797-6.224-3.985-2.057-2.213-2.057-6.302 0-3.411 1.719-5.677 1.745-2.292 4.583-3.36 2.865-1.093 6.224-1.093 4.505 0 8.49 1.406l-.6 5.86q-3.88-1.771-7.37-1.771-2.29 0-4.01 1.041-1.692 1.016-1.692 3.23 0 2.109 1.276 2.89 1.276.781 5.781 2.787 4.531 1.979 6.667 4.244 2.135 2.24 2.135 6.303 0 2.89-1.068 5-1.067 2.109-2.968 3.49-1.875 1.353-4.323 2.004-2.422.651-5.157.651-4.322 0-9.01-1.614zM672.796 550.394v15.417h-7.24v-35.573h19.74v5.86h-12.552v8.437h12.058v5.86zM716.807 552.842q0 3.047-.99 5.6-.99 2.525-2.812 4.322-1.797 1.771-4.323 2.76-2.526.99-5.625.99-4.089 0-7.188-1.77-3.099-1.771-4.791-5-1.667-3.23-1.667-7.266 0-4.037 1.719-7.162 1.718-3.125 4.817-4.843 3.125-1.745 7.162-1.745 3.125 0 5.65 1.041 2.553 1.042 4.35 2.97 1.797 1.9 2.734 4.478.964 2.578.964 5.625zm-7.084-.156q0-2.135-.703-4.193-.677-2.057-2.187-3.385-1.51-1.328-3.724-1.328-2.11 0-3.646 1.302-1.51 1.302-2.24 3.333-.729 2.005-.729 4.063 0 2.213.677 4.27.703 2.058 2.214 3.386 1.51 1.302 3.828 1.302 1.64 0 2.89-.781 1.25-.807 2.032-2.031.781-1.25 1.172-2.787.416-1.562.416-3.15zM745.973 539.405v16.12q.053 1.12.105 3.463.078 2.344.13 3.75.052 1.406.156 3.073h-6.458l-.209-4.062q-.911 1.432-2.213 2.421-1.276.99-2.89 1.537-1.616.52-3.23.52-3.672 0-5.73-1.51-2.057-1.51-2.838-4.14-.755-2.63-.755-6.276v-14.896h6.823v12.708q0 2.474.234 4.193.26 1.693 1.328 2.969 1.068 1.25 3.23 1.25 3.099 0 4.296-2.605 1.198-2.63 1.198-6.145v-12.37zM759.697 539.405l.157 4.219q3.177-4.636 8.906-4.636 5.312 0 7.161 3.151 1.85 3.125 1.85 8.802v14.87h-6.824V552.53q0-3.516-.911-5.703-.886-2.188-3.88-2.188-3.203 0-4.506 2.578-1.302 2.552-1.302 6.068v12.526H753.5v-16.797q0-5.599-.26-9.61zM808.812 565.811h-6.458l-.105-4.48q-1.171 2.37-3.359 3.647-2.161 1.25-4.896 1.25-2.864 0-5.026-1.12-2.135-1.146-3.463-3.073-1.328-1.927-1.98-4.375-.625-2.448-.625-5.13 0-3.542 1.172-6.64 1.172-3.126 3.62-5.027 2.474-1.927 6.146-1.927 2.76 0 4.818 1.224 2.057 1.224 3.385 3.62-.26-1.927-.26-4.688V527.4h6.823v30.729q.052 2.552.078 4.479.052 1.927.13 3.203zm-6.927-13.02q0-2.058-.651-3.88-.651-1.85-2.057-3.048-1.38-1.224-3.438-1.224-3.073 0-4.427 2.37-1.328 2.344-1.328 5.677 0 3.125 1.484 5.651 1.485 2.526 4.375 2.526 1.953 0 3.334-1.172 1.406-1.198 2.057-3.02.65-1.85.65-3.88zM837.77 565.811h-6.094l-.104-3.958q-1.224 2.11-3.437 3.255-2.188 1.12-4.766 1.12-2.63 0-4.713-.912-2.058-.911-3.256-2.76-1.197-1.875-1.197-4.531 0-4.948 3.88-6.771 3.88-1.823 9.453-1.823.807 0 1.042.026.234 0 1.041.052.808.026 1.64.078 0-2.943-1.431-4.375-1.433-1.432-4.428-1.432-4.53 0-8.177 2.89l-.208-5.937q4.245-1.797 9.193-1.797 1.849 0 3.672.365 1.823.364 3.359 1.224 1.563.833 2.578 2.24 1.042 1.406 1.354 3.228.339 1.797.339 4.297v5.183q.026 2.604.052 4.765.052 2.136.208 5.573zm-6.406-12.005q-.26-.052-.807-.052h-.834q-2.24 0-4.114.26-1.85.235-3.255 1.25-1.38.99-1.38 2.917 0 1.562 1.223 2.5 1.25.911 2.891.911 3.099 0 4.687-2.291 1.589-2.292 1.589-5.495zM859.203 560.16l.234 5.339q-2.604.52-4.61.52-3.359 0-5.312-1.224-1.953-1.25-2.734-3.515-.782-2.292-.782-5.6v-11.04h-4.974v-5.079h5.079v-5.364l6.822-2.24v7.604h6.016v5.078h-6.016v9.61q0 3.073.652 4.687.677 1.589 3.28 1.589.964 0 2.345-.365zM870.947 565.811h-6.823v-26.406h6.823zm.104-31.198h-7.03v-6.458h7.03zM903.734 552.842q0 3.047-.99 5.6-.99 2.525-2.812 4.322-1.797 1.771-4.323 2.76-2.526.99-5.625.99-4.089 0-7.188-1.77-3.099-1.771-4.791-5-1.667-3.23-1.667-7.266 0-4.037 1.719-7.162 1.718-3.125 4.817-4.843 3.125-1.745 7.162-1.745 3.125 0 5.65 1.041 2.553 1.042 4.35 2.97 1.797 1.9 2.734 4.478.964 2.578.964 5.625zm-7.084-.156q0-2.135-.703-4.193-.677-2.057-2.187-3.385-1.51-1.328-3.724-1.328-2.11 0-3.646 1.302-1.51 1.302-2.24 3.333-.729 2.005-.729 4.063 0 2.213.677 4.27.703 2.058 2.214 3.386 1.51 1.302 3.828 1.302 1.64 0 2.89-.781 1.25-.807 2.032-2.031.781-1.25 1.172-2.787.416-1.562.416-3.15zM915.635 539.405l.156 4.219q3.177-4.636 8.906-4.636 5.313 0 7.162 3.151 1.849 3.125 1.849 8.802v14.87h-6.823V552.53q0-3.516-.912-5.703-.885-2.188-3.88-2.188-3.203 0-4.505 2.578-1.302 2.552-1.302 6.068v12.526h-6.85v-16.797q0-5.599-.26-9.61zM969.541 565.811h-7.187v-29.713h-10.157v-5.86h27.578v5.86h-10.234zM990.817 565.811h-6.823v-18.463q-.13-6.589-.208-7.943h6.198l.156 6.667q.885-3.125 2.682-5 1.823-1.875 4.74-1.875.885 0 2.005.26v6.406q-1.354-.364-2.396-.364-2.422 0-3.854 1.276t-1.98 3.28q-.52 1.98-.52 4.35v.52zM1027.51 539.405v16.12q.052 1.12.104 3.463.078 2.344.13 3.75.052 1.406.156 3.073h-6.458l-.208-4.062q-.912 1.432-2.214 2.421-1.276.99-2.89 1.537-1.615.52-3.23.52-3.671 0-5.729-1.51-2.057-1.51-2.838-4.14-.755-2.63-.755-6.276v-14.896h6.822v12.708q0 2.474.235 4.193.26 1.693 1.328 2.969 1.068 1.25 3.23 1.25 3.098 0 4.296-2.605 1.198-2.63 1.198-6.145v-12.37zM1033.604 565.108l.312-5.755q3.646 1.875 6.719 1.875 1.693 0 3.203-.73 1.51-.729 1.51-2.265 0-1.328-2.161-2.266-2.162-.937-4.35-1.849-2.16-.911-3.75-2.552-1.588-1.64-1.588-4.583 0-2.813 1.641-4.61 1.667-1.796 4.219-2.604 2.552-.833 5.286-.833 2.89 0 6.51 1.016l-.494 5.104q-3.177-1.016-5.6-1.016-1.77 0-3.28.6-1.51.598-1.51 2.083 0 1.276 2.057 2.135 2.083.833 4.348 1.693 2.292.833 3.907 2.526 1.64 1.666 1.64 4.791 0 2.839-1.588 4.74-1.563 1.901-4.063 2.786-2.5.886-5.286.886-3.177 0-7.682-1.172zM1072.484 560.16l.234 5.339q-2.604.52-4.61.52-3.359 0-5.312-1.224-1.953-1.25-2.734-3.515-.781-2.292-.781-5.6v-11.04h-4.974v-5.079h5.078v-5.364l6.823-2.24v7.604h6.015v5.078h-6.015v9.61q0 3.073.65 4.687.678 1.589 3.282 1.589.964 0 2.344-.365z" style="text-align:end"/></g><g font-weight="700" font-family="Frutiger" fill="#231f20" text-anchor="end"><g aria-label="The Clatterbridge" style="-inkscape-font-specification:Frutiger-Bold" font-size="600" stroke-width="10"><path d="M474.874 420.152h-10.781v-44.57h-15.235v-8.79h41.367v8.79h-15.351zM532.647 420.152h-10.234v-19.219q0-5.703-1.25-9.101-1.211-3.438-5.781-3.438-4.922 0-6.914 4.063-1.993 4.023-1.993 9.453v18.242h-10.234v-57.617h10.234v23.633q2.227-3.203 5.352-4.766 3.125-1.562 7.148-1.562 4.18 0 6.875 1.367 2.735 1.328 4.18 3.633 1.484 2.304 2.031 5.39.586 3.047.586 7.188zM574.561 409.605l.157 8.867q-6.29 2.735-13.594 2.735-4.883 0-8.711-1.367-3.79-1.407-6.484-4.102-2.696-2.734-4.102-6.563-1.406-3.867-1.406-8.789 0-4.53 1.289-8.32 1.328-3.828 3.789-6.601 2.46-2.813 6.055-4.375 3.632-1.563 8.203-1.563 4.453 0 7.851 1.602 3.399 1.601 5.508 4.414 2.148 2.812 3.203 6.523 1.055 3.672 1.055 8.086 0 .781-.04 1.172-.038.39-.077.976-.04.586-.118 1.368H550.5q.39 4.687 3.633 7.304 3.28 2.618 8.125 2.618 5.468 0 12.304-3.985zm-6.953-13.047q-.078-2.656-.976-4.883-.86-2.226-2.696-3.593-1.797-1.367-4.492-1.367-2.773 0-4.765 1.367-1.954 1.328-3.047 3.554-1.055 2.227-1.29 4.922zM647.53 409.37l.39 9.415q-6.64 1.758-12.148 1.758-6.25 0-11.562-1.64-5.313-1.642-9.375-5-4.024-3.4-6.211-8.4-2.149-5-2.149-11.523t1.954-11.68q1.953-5.156 5.664-8.71 3.75-3.594 8.984-5.391 5.234-1.797 11.719-1.797 5.78 0 12.89 2.305l-.86 9.14q-5.272-2.89-11.444-2.89-5.235 0-9.22 2.265-3.983 2.227-6.132 6.25-2.11 4.024-2.11 9.258 0 5.43 2.227 9.766 2.266 4.336 6.407 6.719 4.14 2.382 9.687 2.382 5.273 0 11.29-2.226zM665.03 420.152h-10.234v-57.617h10.234zM708.468 420.152h-9.141l-.156-5.937q-1.836 3.164-5.157 4.882-3.28 1.68-7.148 1.68-3.945 0-7.07-1.367-3.086-1.367-4.883-4.14-1.797-2.813-1.797-6.798 0-7.422 5.82-10.156 5.82-2.734 14.18-2.734 1.21 0 1.563.039.351 0 1.562.078 1.21.039 2.46.117 0-4.414-2.147-6.562-2.149-2.149-6.641-2.149-6.797 0-12.266 4.336l-.312-8.906q6.367-2.695 13.789-2.695 2.773 0 5.508.546 2.734.547 5.039 1.836 2.343 1.25 3.867 3.36 1.562 2.11 2.031 4.843.508 2.696.508 6.446v7.773q.039 3.906.078 7.149.078 3.203.313 8.36zm-9.61-18.008q-.39-.078-1.21-.078h-1.25q-3.36 0-6.173.39-2.773.352-4.882 1.876-2.07 1.484-2.07 4.375 0 2.343 1.835 3.75 1.875 1.367 4.336 1.367 4.649 0 7.031-3.438 2.383-3.437 2.383-8.242zM740.616 411.675l.352 8.008q-3.907.782-6.914.782-5.04 0-7.97-1.836-2.929-1.875-4.1-5.274-1.173-3.437-1.173-8.398v-16.563h-7.46v-7.617h7.617v-8.047l10.234-3.36v11.407h9.023v7.617h-9.023v14.414q0 4.61.977 7.032 1.015 2.382 4.921 2.382 1.446 0 3.516-.547zM770.147 411.675l.352 8.008q-3.906.782-6.914.782-5.04 0-7.969-1.836-2.93-1.875-4.102-5.274-1.171-3.437-1.171-8.398v-16.563h-7.461v-7.617h7.617v-8.047l10.234-3.36v11.407h9.024v7.617h-9.024v14.414q0 4.61.977 7.032 1.015 2.382 4.922 2.382 1.445 0 3.515-.547zM809.366 409.605l.156 8.867q-6.289 2.735-13.593 2.735-4.883 0-8.711-1.367-3.79-1.407-6.485-4.102-2.695-2.734-4.101-6.563-1.407-3.867-1.407-8.789 0-4.53 1.29-8.32 1.328-3.828 3.789-6.601 2.46-2.813 6.054-4.375 3.633-1.563 8.203-1.563 4.453 0 7.852 1.602 3.398 1.601 5.508 4.414 2.148 2.812 3.203 6.523 1.054 3.672 1.054 8.086 0 .781-.039 1.172-.039.39-.078.976t-.117 1.368h-26.64q.39 4.687 3.632 7.304 3.282 2.618 8.125 2.618 5.47 0 12.305-3.985zm-6.953-13.047q-.078-2.656-.977-4.883-.86-2.226-2.695-3.593-1.797-1.367-4.492-1.367-2.774 0-4.766 1.367-1.953 1.328-3.047 3.554-1.054 2.227-1.289 4.922zM830.89 420.152h-10.235v-27.695q-.195-9.883-.312-11.914h9.296l.235 10q1.328-4.688 4.023-7.5 2.735-2.813 7.11-2.813 1.328 0 3.007.39v9.61q-2.03-.547-3.593-.547-3.633 0-5.782 1.914-2.148 1.914-2.968 4.922-.782 2.969-.782 6.524v.78zM859.874 420.152h-9.61v-57.617H860.5v17.617q0 4.258-.39 7.344 2.03-3.906 5.194-5.781 3.165-1.875 7.696-1.875 4.14 0 7.148 1.601 3.047 1.563 4.961 4.336 1.914 2.773 2.852 6.29.937 3.476.937 7.46 0 4.219-.86 8.008-.859 3.75-2.734 6.719-1.875 2.93-5.078 4.726-3.203 1.797-7.656 1.797-8.789 0-12.46-6.875zm18.398-19.766q0-4.765-2.07-8.359-2.031-3.633-6.406-3.633-4.61 0-6.914 3.75-2.305 3.75-2.305 8.555t2.266 8.437q2.265 3.594 6.796 3.594 2.97 0 4.883-1.914 1.953-1.914 2.852-4.766.898-2.89.898-5.664zM907.686 420.152h-10.234v-27.695q-.195-9.883-.313-11.914h9.297l.235 10q1.328-4.688 4.023-7.5 2.734-2.813 7.11-2.813 1.328 0 3.007.39v9.61q-2.03-.547-3.593-.547-3.633 0-5.782 1.914-2.148 1.914-2.968 4.922-.782 2.969-.782 6.524v.78zM937.374 420.152h-10.235v-39.61h10.235zm.156-46.797h-10.547v-9.687h10.547zM984.327 420.152h-9.688l-.156-6.719q-1.758 3.555-5.039 5.47-3.242 1.874-7.344 1.874-4.297 0-7.539-1.68-3.203-1.718-5.195-4.609-1.992-2.89-2.969-6.563-.937-3.671-.937-7.695 0-5.312 1.758-9.96 1.757-4.688 5.43-7.54 3.71-2.89 9.218-2.89 4.14 0 7.227 1.835 3.085 1.836 5.078 5.43-.39-2.89-.39-7.031v-17.54h10.233v46.095q.079 3.828.118 6.718.078 2.891.195 4.805zm-10.39-19.531q0-3.086-.977-5.82-.977-2.774-3.086-4.57-2.07-1.837-5.156-1.837-4.61 0-6.641 3.555-1.992 3.516-1.992 8.516 0 4.687 2.226 8.476 2.227 3.79 6.563 3.79 2.93 0 5-1.759 2.11-1.797 3.086-4.53.976-2.774.976-5.821zM1021.28 380.62h9.766v34.727q0 10.743-4.961 16.211-4.922 5.47-15.664 5.47-6.953 0-13.868-2.813l.82-8.868q3.165 1.563 6.095 2.422 2.968.86 5.976.86 3.36 0 6.29-1.446 2.929-1.445 4.257-4.218.898-1.875 1.094-4.141.234-2.266.351-6.602-1.953 3.633-5.468 5.782-3.516 2.148-7.657 2.148-5.351 0-8.984-2.852-3.594-2.851-5.274-7.46-1.64-4.61-1.64-9.844 0-5.352 1.68-9.922 1.718-4.61 5.351-7.422 3.633-2.812 9.102-2.812 4.297 0 7.539 1.757 3.242 1.758 5.039 5.352zm-.39 19.298q0-1.993-.587-4.14-.585-2.15-1.718-3.75-1.094-1.642-2.89-2.657-1.798-1.055-3.946-1.055-4.375 0-6.563 3.438-2.148 3.437-2.148 8.086 0 4.609 2.187 8.32 2.227 3.672 6.524 3.672 3.047 0 5.078-1.758t3.047-4.531q1.015-2.774 1.015-5.625zM1072.882 409.605l.156 8.867q-6.29 2.735-13.594 2.735-4.883 0-8.71-1.367-3.79-1.407-6.485-4.102-2.696-2.734-4.102-6.563-1.406-3.867-1.406-8.789 0-4.53 1.29-8.32 1.327-3.828 3.788-6.601 2.461-2.813 6.055-4.375 3.633-1.563 8.203-1.563 4.453 0 7.851 1.602 3.399 1.601 5.508 4.414 2.149 2.812 3.203 6.523 1.055 3.672 1.055 8.086 0 .781-.039 1.172-.039.39-.078.976-.04.586-.117 1.368h-26.64q.39 4.687 3.632 7.304 3.281 2.618 8.125 2.618 5.469 0 12.305-3.985zm-6.954-13.047q-.078-2.656-.976-4.883-.86-2.226-2.695-3.593-1.797-1.367-4.493-1.367-2.773 0-4.765 1.367-1.953 1.328-3.047 3.554-1.055 2.227-1.29 4.922z" style="line-height:0;text-align:end"/></g><g aria-label="Cancer Centre" style="-inkscape-font-specification:Frutiger-Bold" font-size="60"><path d="M617.687 489.184l.39 9.414q-6.64 1.758-12.148 1.758-6.25 0-11.563-1.641-5.312-1.64-9.375-5-4.023-3.398-6.21-8.398-2.149-5-2.149-11.524 0-6.523 1.953-11.68 1.953-5.156 5.664-8.71 3.75-3.594 8.985-5.391 5.234-1.797 11.718-1.797 5.782 0 12.89 2.305l-.858 9.14q-5.274-2.89-11.446-2.89-5.234 0-9.219 2.265-3.984 2.227-6.132 6.25-2.11 4.024-2.11 9.258 0 5.43 2.227 9.766 2.265 4.336 6.406 6.718 4.14 2.383 9.688 2.383 5.273 0 11.289-2.226zM658.077 499.965h-9.14l-.157-5.938q-1.836 3.165-5.156 4.883-3.281 1.68-7.148 1.68-3.946 0-7.07-1.367-3.087-1.367-4.883-4.14-1.797-2.813-1.797-6.798 0-7.422 5.82-10.156 5.82-2.734 14.18-2.734 1.21 0 1.562.039.352 0 1.563.078 1.21.039 2.46.117 0-4.414-2.148-6.562-2.148-2.149-6.64-2.149-6.797 0-12.266 4.336l-.313-8.906q6.368-2.695 13.79-2.695 2.773 0 5.507.546 2.735.547 5.04 1.836 2.343 1.25 3.867 3.36 1.562 2.11 2.03 4.843.509 2.696.509 6.446v7.773q.039 3.906.078 7.149.078 3.203.312 8.359zm-9.61-18.008q-.39-.078-1.21-.078h-1.25q-3.36 0-6.172.39-2.773.352-4.883 1.876-2.07 1.484-2.07 4.375 0 2.343 1.836 3.75 1.875 1.367 4.336 1.367 4.648 0 7.031-3.438 2.383-3.437 2.383-8.242zM677.765 460.356l.234 6.328q4.766-6.953 13.36-6.953 7.968 0 10.742 4.726 2.773 4.688 2.773 13.203v22.305H694.64v-19.922q0-5.273-1.367-8.555-1.329-3.28-5.82-3.28-4.805 0-6.759 3.866-1.953 3.828-1.953 9.102v18.789h-10.273V474.77q0-8.399-.39-14.414zM741.671 490.121l.586 8.633q-5.156 1.523-9.219 1.523-4.531 0-8.32-1.367-3.79-1.406-6.524-4.062-2.695-2.656-4.14-6.446-1.406-3.828-1.406-8.437 0-5.86 2.5-10.39 2.539-4.532 7.109-7.032 4.61-2.5 10.39-2.5 4.297 0 8.712 1.29l-.782 8.241q-3.515-1.367-6.328-1.367-3.203 0-5.742 1.602-2.54 1.562-3.906 4.218-1.328 2.618-1.328 5.86 0 5.351 3.125 8.594 3.125 3.242 8.398 3.242 3.36 0 6.875-1.602zM781.202 489.418l.157 8.867q-6.29 2.735-13.594 2.735-4.883 0-8.711-1.368-3.79-1.406-6.485-4.101-2.695-2.734-4.101-6.563-1.406-3.867-1.406-8.789 0-4.53 1.289-8.32 1.328-3.828 3.789-6.602 2.46-2.812 6.054-4.375 3.633-1.562 8.204-1.562 4.453 0 7.851 1.602 3.399 1.601 5.508 4.414 2.148 2.812 3.203 6.523 1.055 3.672 1.055 8.086 0 .781-.04 1.172-.038.39-.077.976-.04.586-.118 1.368h-26.64q.39 4.687 3.633 7.304 3.28 2.617 8.125 2.617 5.468 0 12.304-3.984zm-6.953-13.047q-.078-2.656-.976-4.883-.86-2.226-2.696-3.593-1.797-1.368-4.492-1.368-2.773 0-4.766 1.368-1.953 1.328-3.046 3.554-1.055 2.227-1.29 4.922zM802.726 499.965H792.49V472.27q-.195-9.883-.312-11.914h9.297l.234 10q1.328-4.688 4.024-7.5 2.734-2.813 7.109-2.813 1.328 0 3.008.39v9.61q-2.032-.547-3.594-.547-3.633 0-5.781 1.914-2.149 1.914-2.969 4.922-.781 2.969-.781 6.524v.78zM884.171 489.184l.39 9.414q-6.64 1.758-12.148 1.758-6.25 0-11.562-1.641-5.313-1.64-9.375-5-4.024-3.398-6.211-8.398-2.149-5-2.149-11.524 0-6.523 1.953-11.68 1.954-5.156 5.665-8.71 3.75-3.594 8.984-5.391 5.234-1.797 11.719-1.797 5.78 0 12.89 2.305l-.86 9.14q-5.273-2.89-11.444-2.89-5.235 0-9.22 2.265-3.984 2.227-6.132 6.25-2.11 4.024-2.11 9.258 0 5.43 2.227 9.766 2.266 4.336 6.406 6.718 4.141 2.383 9.688 2.383 5.273 0 11.289-2.226zM923.35 489.418l.157 8.867q-6.29 2.735-13.594 2.735-4.883 0-8.71-1.368-3.79-1.406-6.485-4.101-2.695-2.734-4.102-6.563-1.406-3.867-1.406-8.789 0-4.53 1.29-8.32 1.327-3.828 3.788-6.602 2.461-2.812 6.055-4.375 3.633-1.562 8.203-1.562 4.453 0 7.852 1.602 3.398 1.601 5.507 4.414 2.149 2.812 3.204 6.523 1.054 3.672 1.054 8.086 0 .781-.039 1.172-.039.39-.078.976t-.117 1.368h-26.64q.39 4.687 3.632 7.304 3.281 2.617 8.125 2.617 5.469 0 12.305-3.984zm-6.952-13.047q-.079-2.656-.977-4.883-.86-2.226-2.695-3.593-1.797-1.368-4.492-1.368-2.774 0-4.766 1.368-1.953 1.328-3.047 3.554-1.055 2.227-1.289 4.922zM944.015 460.356l.234 6.328q4.766-6.953 13.36-6.953 7.968 0 10.742 4.726 2.773 4.688 2.773 13.203v22.305H960.89v-19.922q0-5.273-1.367-8.555-1.329-3.28-5.82-3.28-4.805 0-6.759 3.866-1.953 3.828-1.953 9.102v18.789h-10.273V474.77q0-8.399-.39-14.414zM1003.273 491.488l.351 8.008q-3.906.781-6.914.781-5.039 0-7.969-1.835-2.93-1.875-4.101-5.274-1.172-3.437-1.172-8.398v-16.563h-7.461v-7.617h7.617v-8.047l10.235-3.36v11.407h9.023v7.617h-9.023v14.414q0 4.61.976 7.031 1.016 2.383 4.922 2.383 1.445 0 3.516-.547zM1021.202 499.965h-10.234V472.27q-.195-9.883-.313-11.914h9.297l.235 10q1.328-4.688 4.023-7.5 2.734-2.813 7.11-2.813 1.328 0 3.007.39v9.61q-2.031-.547-3.593-.547-3.633 0-5.782 1.914-2.148 1.914-2.968 4.922-.782 2.969-.782 6.524v.78zM1072.491 489.418l.157 8.867q-6.29 2.735-13.594 2.735-4.883 0-8.711-1.368-3.79-1.406-6.484-4.101-2.696-2.734-4.102-6.563-1.406-3.867-1.406-8.789 0-4.53 1.289-8.32 1.328-3.828 3.789-6.602 2.46-2.812 6.055-4.375 3.632-1.562 8.203-1.562 4.453 0 7.851 1.602 3.399 1.601 5.508 4.414 2.148 2.812 3.203 6.523 1.055 3.672 1.055 8.086 0 .781-.04 1.172-.038.39-.077.976-.04.586-.118 1.368h-26.64q.39 4.687 3.633 7.304 3.28 2.617 8.125 2.617 5.468 0 12.304-3.984zm-6.953-13.047q-.078-2.656-.976-4.883-.86-2.226-2.696-3.593-1.797-1.368-4.492-1.368-2.773 0-4.765 1.368-1.954 1.328-3.047 3.554-1.055 2.227-1.29 4.922z" style="line-height:0;text-align:end"/></g></g></svg>