<svg xmlns="http://www.w3.org/2000/svg" width="1122.52" height="793.707"><path d="M794.208 323.97h271.037V219.05H794.208v104.92" fill="#fff"/><path d="M1072.517 215.181H790.943v113.386h281.574zm-168.364 10.94l-19.438 91.264H854.21l-19.178-63.15h-.257l-12.759 63.15h-23.133l19.593-91.264h30.608l18.799 63.286h.259l12.878-63.286zm87.246 0l-19.058 91.264h-24.564l8.147-39.088h-29.053l-8.148 39.088h-24.566l19.06-91.264h24.564l-7.216 34.915h29.039l7.23-34.915zm70.572 2.49l-5.922 18.172c-4.729-2.218-11.17-4.175-20.232-4.175-9.718 0-17.609 1.424-17.609 8.759 0 12.933 35.613 8.106 35.613 35.826 0 25.228-23.529 31.774-44.814 31.774-9.459 0-20.371-2.236-28.379-4.724l5.783-18.566c4.85 3.143 14.588 5.239 22.596 5.239 7.632 0 19.576-1.444 19.576-10.855 0-14.649-35.612-9.154-35.612-34.898 0-23.547 20.769-30.606 40.876-30.606 11.309 0 21.945 1.186 28.124 4.054" fill="#196fc1"/><g aria-label="NHS Trust" style="-inkscape-font-specification:Frutiger-Bold" font-weight="700" font-size="40" font-family="Frutiger" fill="#196fc1" text-anchor="end"><path d="M866.78 565.811h-8.645l-11.667-21.484q-1.12-2.032-2.943-6.302.808 5.547.808 9.166v18.62h-6.823v-35.573h8.463l11.953 21.537q.625 1.145.808 1.64.208.495.755 1.875t1.12 2.787q-.651-3.724-.651-8.698v-19.14h6.823zM903.864 565.811h-7.161V550.5H882.51v15.312h-7.188v-35.573h7.188v14.453h14.193v-14.453h7.161zM911.833 565.004l.65-6.38q4.22 2.291 8.048 2.291 2.474 0 4.323-1.224 1.875-1.224 1.875-3.593 0-2.396-1.589-3.412-1.562-1.016-5.703-2.786-4.14-1.797-6.224-3.985-2.057-2.213-2.057-6.302 0-3.411 1.718-5.677 1.745-2.292 4.584-3.36 2.864-1.093 6.224-1.093 4.505 0 8.49 1.406l-.6 5.86q-3.88-1.771-7.37-1.771-2.291 0-4.01 1.041-1.693 1.016-1.693 3.23 0 2.109 1.276 2.89 1.276.781 5.782 2.787 4.531 1.979 6.666 4.244 2.136 2.24 2.136 6.303 0 2.89-1.068 5-1.068 2.109-2.969 3.49-1.875 1.353-4.323 2.004-2.421.651-5.156.651-4.323 0-9.01-1.614zM969.541 565.811h-7.187v-29.713h-10.157v-5.86h27.578v5.86h-10.234zM990.817 565.811h-6.823v-18.463q-.13-6.589-.208-7.943h6.198l.156 6.667q.885-3.125 2.682-5 1.823-1.875 4.74-1.875.885 0 2.005.26v6.406q-1.354-.364-2.396-.364-2.422 0-3.854 1.276t-1.98 3.28q-.52 1.98-.52 4.35v.52zM1027.51 539.405v16.12q.052 1.12.104 3.463.078 2.344.13 3.75.052 1.406.156 3.073h-6.458l-.208-4.062q-.912 1.432-2.214 2.421-1.276.99-2.89 1.537-1.615.52-3.23.52-3.671 0-5.729-1.51-2.057-1.51-2.838-4.14-.755-2.63-.755-6.276v-14.896h6.822v12.708q0 2.474.235 4.193.26 1.693 1.328 2.969 1.068 1.25 3.23 1.25 3.098 0 4.296-2.605 1.198-2.63 1.198-6.145v-12.37zM1033.604 565.108l.312-5.755q3.646 1.875 6.719 1.875 1.693 0 3.203-.73 1.51-.729 1.51-2.265 0-1.328-2.161-2.266-2.162-.937-4.35-1.849-2.16-.911-3.75-2.552-1.588-1.64-1.588-4.583 0-2.813 1.641-4.61 1.667-1.796 4.219-2.604 2.552-.833 5.286-.833 2.89 0 6.51 1.016l-.494 5.104q-3.177-1.016-5.6-1.016-1.77 0-3.28.6-1.51.598-1.51 2.083 0 1.276 2.057 2.135 2.083.833 4.348 1.693 2.292.833 3.907 2.526 1.64 1.666 1.64 4.791 0 2.839-1.588 4.74-1.563 1.901-4.063 2.786-2.5.886-5.286.886-3.177 0-7.682-1.172zM1072.484 560.16l.234 5.339q-2.604.52-4.61.52-3.359 0-5.312-1.224-1.953-1.25-2.734-3.515-.781-2.292-.781-5.6v-11.04h-4.974v-5.079h5.078v-5.364l6.823-2.24v7.604h6.015v5.078h-6.015v9.61q0 3.073.65 4.687.678 1.589 3.282 1.589.964 0 2.344-.365z" style="text-align:end"/></g><g font-weight="700" font-family="Frutiger" fill="#231f20" text-anchor="end"><g aria-label="Maidstone and" style="-inkscape-font-specification:Frutiger-Bold" font-size="600" stroke-width="10"><path d="M602.1 420.152h-10.78V388.63q.234-7.188.702-14.414h-.312q-.781 3.164-1.602 5.546l-13.594 40.391h-9.921l-11.524-33.36q-2.148-6.25-3.672-12.577h-.312q.781 7.734.781 14.023v31.914h-10.234v-53.36h17.03l9.688 28.008q2.266 6.758 3.438 13.125.703-3.359 1.328-5.82.664-2.5 1.484-5l10.235-30.312H602.1zM646.749 420.152h-9.14l-.157-5.937q-1.836 3.164-5.156 4.882-3.282 1.68-7.149 1.68-3.945 0-7.07-1.367-3.086-1.367-4.883-4.14-1.797-2.813-1.797-6.798 0-7.422 5.82-10.156 5.82-2.734 14.18-2.734 1.211 0 1.563.039.351 0 1.562.078 1.211.039 2.461.117 0-4.414-2.148-6.562-2.149-2.149-6.64-2.149-6.798 0-12.266 4.336l-.313-8.906q6.367-2.695 13.79-2.695 2.773 0 5.507.546 2.734.547 5.039 1.836 2.344 1.25 3.867 3.36 1.563 2.11 2.031 4.843.508 2.696.508 6.446v7.773q.04 3.906.078 7.149.078 3.203.313 8.36zm-9.61-18.008q-.39-.078-1.21-.078h-1.25q-3.36 0-6.172.39-2.774.352-4.883 1.876-2.07 1.484-2.07 4.375 0 2.343 1.835 3.75 1.875 1.367 4.336 1.367 4.649 0 7.032-3.438 2.382-3.437 2.382-8.242zM666.983 420.152H656.75v-39.61h10.234zm.156-46.797h-10.546v-9.687h10.546zM713.936 420.152h-9.687l-.156-6.719q-1.758 3.555-5.04 5.47-3.242 1.874-7.343 1.874-4.297 0-7.54-1.68-3.202-1.718-5.195-4.609-1.992-2.89-2.968-6.563-.938-3.671-.938-7.695 0-5.312 1.758-9.96 1.758-4.688 5.43-7.54 3.71-2.89 9.218-2.89 4.141 0 7.227 1.835 3.086 1.836 5.078 5.43-.39-2.89-.39-7.031v-17.54h10.234v46.095q.078 3.828.117 6.718.078 2.891.195 4.805zm-10.39-19.531q0-3.086-.977-5.82-.976-2.774-3.086-4.57-2.07-1.837-5.156-1.837-4.61 0-6.64 3.555-1.993 3.516-1.993 8.516 0 4.687 2.227 8.476 2.226 3.79 6.562 3.79 2.93 0 5-1.759 2.11-1.797 3.086-4.53.977-2.774.977-5.821zM722.57 419.097l.468-8.632q5.469 2.812 10.078 2.812 2.54 0 4.805-1.094 2.265-1.093 2.265-3.398 0-1.992-3.242-3.399-3.242-1.406-6.523-2.773-3.242-1.367-5.625-3.828t-2.383-6.875q0-4.219 2.46-6.914 2.5-2.696 6.329-3.906 3.828-1.25 7.93-1.25 4.336 0 9.765 1.523l-.742 7.656q-4.766-1.523-8.398-1.523-2.657 0-4.922.898-2.266.899-2.266 3.125 0 1.914 3.086 3.203 3.125 1.25 6.524 2.54 3.437 1.25 5.859 3.788 2.46 2.5 2.46 7.188 0 4.258-2.382 7.11-2.344 2.85-6.094 4.18-3.75 1.327-7.93 1.327-4.765 0-11.523-1.758zM780.89 411.675l.351 8.008q-3.906.782-6.914.782-5.04 0-7.969-1.836-2.93-1.875-4.101-5.274-1.172-3.437-1.172-8.398v-16.563h-7.461v-7.617h7.617v-8.047l10.234-3.36v11.407h9.024v7.617h-9.024v14.414q0 4.61.977 7.032 1.016 2.382 4.922 2.382 1.445 0 3.515-.547zM827.061 400.699q0 4.57-1.484 8.398-1.484 3.79-4.219 6.485-2.695 2.656-6.484 4.14-3.79 1.485-8.438 1.485-6.133 0-10.78-2.657-4.65-2.656-7.188-7.5-2.5-4.843-2.5-10.898t2.578-10.742q2.578-4.688 7.226-7.266 4.688-2.617 10.742-2.617 4.688 0 8.477 1.563 3.828 1.562 6.523 4.453 2.696 2.851 4.102 6.718 1.445 3.868 1.445 8.438zm-10.625-.234q0-3.204-1.054-6.29-1.016-3.085-3.282-5.078-2.265-1.992-5.586-1.992-3.164 0-5.468 1.953-2.266 1.953-3.36 5-1.093 3.008-1.093 6.094 0 3.32 1.015 6.406 1.055 3.086 3.32 5.078 2.266 1.954 5.743 1.954 2.46 0 4.336-1.172 1.875-1.211 3.046-3.047 1.172-1.875 1.758-4.18.625-2.344.625-4.726zM844.913 380.543l.234 6.328q4.766-6.953 13.36-6.953 7.968 0 10.742 4.726 2.773 4.688 2.773 13.203v22.305h-10.234V400.23q0-5.273-1.367-8.555-1.328-3.28-5.82-3.28-4.805 0-6.758 3.866-1.954 3.829-1.954 9.102v18.79h-10.273v-25.196q0-8.399-.39-14.414zM913.858 409.605l.156 8.867q-6.289 2.735-13.593 2.735-4.883 0-8.711-1.367-3.79-1.407-6.485-4.102-2.695-2.734-4.101-6.563-1.406-3.867-1.406-8.789 0-4.53 1.289-8.32 1.328-3.828 3.789-6.601 2.46-2.813 6.054-4.375 3.633-1.563 8.203-1.563 4.454 0 7.852 1.602 3.398 1.601 5.508 4.414 2.148 2.812 3.203 6.523 1.055 3.672 1.055 8.086 0 .781-.04 1.172-.038.39-.078.976-.039.586-.117 1.368h-26.64q.39 4.687 3.632 7.304 3.282 2.618 8.125 2.618 5.47 0 12.305-3.985zm-6.953-13.047q-.078-2.656-.977-4.883-.859-2.226-2.695-3.593-1.797-1.367-4.492-1.367-2.773 0-4.766 1.367-1.953 1.328-3.047 3.554-1.054 2.227-1.289 4.922zM980.108 420.152h-9.14l-.157-5.937q-1.836 3.164-5.156 4.882-3.281 1.68-7.148 1.68-3.946 0-7.07-1.367-3.087-1.367-4.884-4.14-1.796-2.813-1.796-6.798 0-7.422 5.82-10.156 5.82-2.734 14.18-2.734 1.21 0 1.562.039.352 0 1.563.078 1.21.039 2.46.117 0-4.414-2.148-6.562-2.148-2.149-6.64-2.149-6.797 0-12.266 4.336l-.313-8.906q6.368-2.695 13.79-2.695 2.773 0 5.507.546 2.735.547 5.04 1.836 2.343 1.25 3.866 3.36 1.563 2.11 2.032 4.843.508 2.696.508 6.446v7.773q.039 3.906.078 7.149.078 3.203.312 8.36zm-9.61-18.008q-.39-.078-1.21-.078h-1.25q-3.36 0-6.172.39-2.773.352-4.883 1.876-2.07 1.484-2.07 4.375 0 2.343 1.836 3.75 1.875 1.367 4.336 1.367 4.648 0 7.031-3.438 2.383-3.437 2.383-8.242zM999.796 380.543l.234 6.328q4.766-6.953 13.36-6.953 7.968 0 10.742 4.726 2.773 4.688 2.773 13.203v22.305h-10.234V400.23q0-5.273-1.368-8.555-1.328-3.28-5.82-3.28-4.805 0-6.758 3.866-1.953 3.829-1.953 9.102v18.79H990.5v-25.196q0-8.399-.39-14.414zM1073.468 420.152h-9.688l-.156-6.719q-1.758 3.555-5.04 5.47-3.241 1.874-7.343 1.874-4.297 0-7.54-1.68-3.202-1.718-5.194-4.609-1.993-2.89-2.97-6.563-.937-3.671-.937-7.695 0-5.312 1.758-9.96 1.758-4.688 5.43-7.54 3.71-2.89 9.219-2.89 4.14 0 7.226 1.835 3.086 1.836 5.078 5.43-.39-2.89-.39-7.031v-17.54h10.234v46.095q.078 3.828.117 6.718.078 2.891.196 4.805zm-10.391-19.531q0-3.086-.977-5.82-.976-2.774-3.086-4.57-2.07-1.837-5.156-1.837-4.61 0-6.64 3.555-1.993 3.516-1.993 8.516 0 4.687 2.227 8.476 2.226 3.79 6.562 3.79 2.93 0 5-1.759 2.11-1.797 3.086-4.53.977-2.774.977-5.821z" style="line-height:0;text-align:end"/></g><g aria-label="Tunbridge Wells" style="-inkscape-font-specification:Frutiger-Bold" font-size="60"><path d="M517.804 499.965h-10.781v-44.57h-15.235v-8.79h41.367v8.79h-15.351zM574.757 460.356v24.18q.078 1.679.156 5.195.117 3.515.196 5.625.078 2.109.234 4.609h-9.688l-.312-6.094q-1.367 2.149-3.32 3.633-1.914 1.484-4.336 2.305-2.422.781-4.844.781-5.508 0-8.594-2.266-3.086-2.265-4.258-6.21-1.132-3.946-1.132-9.415v-22.343h10.234v19.062q0 3.711.351 6.29.391 2.538 1.993 4.452 1.601 1.875 4.843 1.875 4.649 0 6.446-3.906 1.797-3.945 1.797-9.219v-18.554zM595.343 460.356l.234 6.328q4.766-6.953 13.36-6.953 7.968 0 10.742 4.726 2.773 4.688 2.773 13.203v22.305h-10.234v-19.922q0-5.273-1.367-8.555-1.328-3.28-5.82-3.28-4.805 0-6.758 3.866-1.954 3.828-1.954 9.102v18.789h-10.273V474.77q0-8.399-.39-14.414zM641.984 499.965h-9.61v-57.617h10.235v17.617q0 4.258-.391 7.344 2.031-3.907 5.195-5.782t7.696-1.875q4.14 0 7.148 1.602 3.047 1.563 4.96 4.336 1.915 2.773 2.852 6.289.938 3.477.938 7.461 0 4.219-.86 8.008-.859 3.75-2.734 6.719-1.875 2.93-5.078 4.726-3.203 1.797-7.656 1.797-8.79 0-12.461-6.875zm18.398-19.766q0-4.765-2.07-8.359-2.032-3.633-6.407-3.633-4.609 0-6.914 3.75-2.304 3.75-2.304 8.555t2.265 8.437q2.266 3.594 6.797 3.594 2.969 0 4.883-1.914 1.953-1.914 2.852-4.766.898-2.89.898-5.664zM689.796 499.965h-10.234V472.27q-.196-9.883-.313-11.914h9.297l.234 10q1.329-4.688 4.024-7.5 2.734-2.813 7.11-2.813 1.327 0 3.007.39v9.61q-2.031-.547-3.594-.547-3.633 0-5.781 1.914-2.148 1.914-2.969 4.922-.781 2.969-.781 6.524v.78zM719.484 499.965h-10.235v-39.61h10.235zm.156-46.797h-10.547v-9.687h10.547zM766.437 499.965h-9.688l-.156-6.719q-1.758 3.555-5.04 5.469-3.241 1.875-7.343 1.875-4.297 0-7.539-1.68-3.203-1.718-5.195-4.61-1.992-2.89-2.969-6.562-.938-3.671-.938-7.695 0-5.312 1.758-9.96 1.758-4.688 5.43-7.54 3.71-2.89 9.219-2.89 4.14 0 7.226 1.835 3.086 1.836 5.078 5.43-.39-2.89-.39-7.031v-17.54h10.234v46.095q.078 3.828.117 6.718.079 2.89.196 4.805zm-10.391-19.531q0-3.086-.977-5.82-.976-2.774-3.085-4.57-2.07-1.837-5.157-1.837-4.61 0-6.64 3.555-1.993 3.515-1.993 8.515 0 4.688 2.227 8.477 2.227 3.79 6.563 3.79 2.93 0 5-1.759 2.109-1.797 3.085-4.531.977-2.773.977-5.82zM803.39 460.434h9.765v34.726q0 10.742-4.96 16.211-4.922 5.469-15.665 5.469-6.953 0-13.867-2.813l.82-8.867q3.165 1.563 6.094 2.422 2.969.86 5.977.86 3.36 0 6.289-1.446 2.93-1.445 4.258-4.219.898-1.875 1.093-4.14.235-2.266.352-6.602-1.953 3.633-5.469 5.782-3.515 2.148-7.656 2.148-5.352 0-8.984-2.852-3.594-2.851-5.274-7.46-1.64-4.61-1.64-9.844 0-5.352 1.68-9.922 1.718-4.61 5.35-7.422 3.634-2.813 9.102-2.813 4.297 0 7.54 1.758 3.242 1.758 5.039 5.352zM803 479.73q0-1.993-.587-4.141-.586-2.148-1.719-3.75-1.093-1.64-2.89-2.656-1.797-1.055-3.945-1.055-4.375 0-6.563 3.438-2.148 3.437-2.148 8.085 0 4.61 2.187 8.32 2.227 3.673 6.524 3.673 3.046 0 5.078-1.758 2.03-1.758 3.047-4.531 1.015-2.774 1.015-5.625zM854.991 489.418l.157 8.867q-6.29 2.735-13.594 2.735-4.883 0-8.711-1.368-3.79-1.406-6.484-4.101-2.696-2.734-4.102-6.563-1.406-3.867-1.406-8.789 0-4.53 1.289-8.32 1.328-3.828 3.789-6.602 2.46-2.812 6.055-4.375 3.632-1.562 8.203-1.562 4.453 0 7.851 1.602 3.399 1.601 5.508 4.414 2.148 2.812 3.203 6.523 1.055 3.672 1.055 8.086 0 .781-.04 1.172-.038.39-.077.976-.04.586-.118 1.368h-26.64q.39 4.687 3.633 7.304 3.28 2.617 8.125 2.617 5.468 0 12.304-3.984zm-6.953-13.047q-.078-2.656-.976-4.883-.86-2.226-2.696-3.593-1.797-1.368-4.492-1.368-2.773 0-4.765 1.368-1.954 1.328-3.047 3.554-1.055 2.227-1.29 4.922zM945.148 499.965h-13.672l-4.805-20.078q-.43-2.031-1.289-5.586-.82-3.555-1.64-7.344-.821-3.789-1.25-5.898-.391-2.149-.86-5.664h-.313q-.546 4.687-1.601 9.804-1.016 5.078-2.227 9.883l-5.625 24.883h-13.828l-14.336-53.36h11.133l5.117 20.391q3.75 13.281 5.04 23.281h.312q.625-3.789 1.64-9.218 1.055-5.469 1.993-10.313l5.43-24.14h14.374l5.313 21.836q3.125 12.734 4.375 21.835h.312q.547-3.632 1.407-8.085.859-4.454 1.992-9.336 1.172-4.883 1.992-7.93l4.531-18.32h10.586zM996.984 489.418l.156 8.867q-6.29 2.735-13.594 2.735-4.883 0-8.71-1.368-3.79-1.406-6.485-4.101-2.696-2.734-4.102-6.563-1.406-3.867-1.406-8.789 0-4.53 1.289-8.32 1.328-3.828 3.789-6.602 2.461-2.812 6.055-4.375 3.633-1.562 8.203-1.562 4.453 0 7.851 1.602 3.399 1.601 5.508 4.414 2.149 2.812 3.203 6.523 1.055 3.672 1.055 8.086 0 .781-.039 1.172-.04.39-.078.976-.04.586-.117 1.368H972.92q.39 4.687 3.633 7.304 3.281 2.617 8.125 2.617 5.469 0 12.305-3.984zm-6.954-13.047q-.078-2.656-.976-4.883-.86-2.226-2.695-3.593-1.797-1.368-4.493-1.368-2.773 0-4.765 1.368-1.953 1.328-3.047 3.554-1.055 2.227-1.29 4.922zM1018.116 499.965h-10.234v-57.617h10.234zM1038.663 499.965h-10.234v-57.617h10.234zM1047.296 498.91l.469-8.633q5.469 2.813 10.078 2.813 2.539 0 4.805-1.094 2.265-1.094 2.265-3.398 0-1.992-3.242-3.399-3.242-1.406-6.523-2.773-3.243-1.367-5.625-3.828-2.383-2.461-2.383-6.875 0-4.219 2.46-6.914 2.5-2.696 6.329-3.907 3.828-1.25 7.93-1.25 4.335 0 9.765 1.524l-.742 7.656q-4.766-1.523-8.398-1.523-2.657 0-4.922.898-2.266.899-2.266 3.125 0 1.914 3.086 3.203 3.125 1.25 6.523 2.54 3.438 1.25 5.86 3.788 2.46 2.5 2.46 7.188 0 4.258-2.382 7.11-2.344 2.85-6.094 4.179-3.75 1.328-7.93 1.328-4.765 0-11.523-1.758z" style="line-height:0;text-align:end"/></g></g></svg>